<?xml version="1.0" encoding="UTF-8" standalone="no"?>
<svg width="3140px" height="2230px" viewBox="0 0 3140 2230" version="1.1" xmlns="http://www.w3.org/2000/svg" xmlns:xlink="http://www.w3.org/1999/xlink">
    <!-- Generator: Sketch 39.1 (31720) - http://www.bohemiancoding.com/sketch -->
    <title>assets_02</title>
    <desc>Created with Sketch.</desc>
    <defs>
        <rect id="path-1" x="78" y="83" width="270" height="51" rx="4.8195"></rect>
        <mask id="mask-2" maskContentUnits="userSpaceOnUse" maskUnits="objectBoundingBox" x="0" y="0" width="270" height="51" fill="white">
            <use xlink:href="#path-1"></use>
        </mask>
        <rect id="path-3" x="369" y="83" width="270" height="51" rx="4.8195"></rect>
        <mask id="mask-4" maskContentUnits="userSpaceOnUse" maskUnits="objectBoundingBox" x="0" y="0" width="270" height="51" fill="white">
            <use xlink:href="#path-3"></use>
        </mask>
        <polygon id="path-5" points="43 21.499785 43 0 0 0 0 21.499785 0 42.99957 43 42.99957 43 21.499785"></polygon>
        <polygon id="path-7" points="43 21.499785 43 0 0 0 0 21.499785 0 42.99957 43 42.99957 43 21.499785"></polygon>
        <polygon id="path-9" points="43 21.499785 43 0 0 0 0 21.499785 0 42.99957 43 42.99957 43 21.499785"></polygon>
        <polygon id="path-11" points="43 21.499785 43 0 0 0 0 21.499785 0 42.99957 43 42.99957 43 21.499785"></polygon>
    </defs>
    <g id="Page-1" stroke="none" stroke-width="1" fill="none" fill-rule="evenodd">
        <g id="assets_02">
            <use id="Rectangle-7-Copy" stroke="#0072BC" mask="url(#mask-2)" stroke-width="1.9278" fill="#0072BC" xlink:href="#path-1"></use>
            <use id="Rectangle-7-Copy-4" stroke="#00609E" mask="url(#mask-4)" stroke-width="1.9278" fill="#00609E" xlink:href="#path-3"></use>
            <text id="Botones-GO-TO-CFP-SI" font-family="OpenSans-Bold, Open Sans" font-size="26.775" font-weight="bold" fill="#A1A1A1">
                <tspan x="191.245691" y="61">Botones GO TO CFP SITE</tspan>
            </text>
            <text id="github" font-family="OpenSans-Bold, Open Sans" font-size="26.775" font-weight="bold" fill="#A1A1A1">
                <tspan x="252.971014" y="236">github</tspan>
            </text>
            <text id="gmail" font-family="OpenSans-Bold, Open Sans" font-size="26.775" font-weight="bold" fill="#A1A1A1">
                <tspan x="392.534027" y="236">gmail</tspan>
            </text>
            <text id="hover" font-family="OpenSans-Bold, Open Sans" font-size="18" font-weight="bold" fill="#A1A1A1">
                <tspan x="465.48877" y="153">hover</tspan>
            </text>
            <text id="hover-copy" font-family="OpenSans-Bold, Open Sans" font-size="18" font-weight="bold" fill="#A1A1A1">
                <tspan x="612.48877" y="518">hover</tspan>
            </text>
            <g id="logo_callforpapers" transform="translate(75.000000, 441.000000)" fill="#FFBE66">
                <path d="M20.3382475,16.1494955 L13.5016751,16.1494955 L13.5016751,10.4757991 C13.5016751,9.85729018 13.3856818,9.44264732 13.1519378,9.22841518 C12.9129214,9.01763839 12.4840979,8.91225 11.8549223,8.91225 L9.08514386,8.91225 C8.45772577,8.91225 8.02362979,9.01763839 7.78988579,9.22841518 C7.55438433,9.44264732 7.43487612,9.85729018 7.43487612,10.4757991 L7.43487612,34.2158304 C7.43487612,34.8326116 7.55438433,35.2489821 7.78988579,35.4614866 C8.02362979,35.6757188 8.45772577,35.7793795 9.08514386,35.7793795 L11.8549223,35.7793795 C12.4840979,35.7793795 12.9129214,35.6757188 13.1519378,35.4614866 C13.3856818,35.2489821 13.5016751,34.8326116 13.5016751,34.2158304 L13.5016751,28.6561607 L20.3382475,28.6561607 L20.3382475,34.9120848 C20.3382475,38.7337098 18.1958871,40.6445223 13.9181963,40.6445223 L7.02362729,40.6445223 C2.74417901,40.6445223 0.601818658,38.7337098 0.601818658,34.9120848 L0.601818658,9.77954464 C0.601818658,5.95791964 2.74417901,4.04537946 7.02362729,4.04537946 L13.9181963,4.04537946 C18.1958871,4.04537946 20.3382475,5.95791964 20.3382475,9.77954464 L20.3382475,16.1494955" id="Fill-4"></path>
                <path d="M40.366417,40.5857813 L38.9498932,32.9995446 L30.8215777,32.9995446 L29.5245621,40.5857813 L22.7495013,40.5857813 L30.232824,4.04537946 L39.361142,4.04537946 L47.1977169,40.5857813 L40.366417,40.5857813 L40.366417,40.5857813 Z M31.7055869,27.9633616 L38.0078873,27.9633616 L34.7688634,10.4757991 L31.7055869,27.9633616 L31.7055869,27.9633616 Z" id="Fill-5"></path>
                <polyline id="Fill-6" points="57.2697983 35.4908571 67.1678898 35.4908571 67.1678898 40.5857813 50.4947375 40.5857813 50.4947375 4.04537946 57.2697983 4.04537946 57.2697983 35.4908571"></polyline>
                <polyline id="Fill-7" points="76.9482305 35.4908571 86.8410496 35.4908571 86.8410496 40.5857813 70.1731697 40.5857813 70.1731697 4.04537946 76.9482305 4.04537946 76.9482305 35.4908571"></polyline>
                <path d="M132.466822,4.07475 L146.13118,4.07475 C150.410628,4.07475 152.552988,5.98729018 152.552988,9.80891518 L152.552988,21.446558 C152.552988,25.2716384 150.410628,27.1807232 146.13118,27.1807232 L139.241883,27.1807232 L139.241883,40.6151518 L132.466822,40.6151518 L132.466822,4.07475 L132.466822,4.07475 Z M145.777928,20.5205223 L145.777928,10.7349509 C145.777928,10.1181696 145.661934,9.70179911 145.422918,9.49102232 C145.189174,9.27851786 144.755078,9.17140179 144.131175,9.17140179 L139.241883,9.17140179 L139.241883,22.0840714 L144.131175,22.0840714 C144.755078,22.0840714 145.189174,21.9804107 145.422918,21.7679063 C145.661934,21.5571295 145.777928,21.1407589 145.777928,20.5205223 L145.777928,20.5205223 Z" id="Fill-8"></path>
                <path d="M172.168152,40.6151518 L170.7569,33.0289152 L162.623312,33.0289152 L161.331569,40.6151518 L154.556508,40.6151518 L162.034559,4.07475 L171.168149,4.07475 L179.001209,40.6151518 L172.168152,40.6151518 L172.168152,40.6151518 Z M163.509079,27.9927321 L169.814894,27.9927321 L166.570598,10.5051696 L163.509079,27.9927321 L163.509079,27.9927321 Z" id="Fill-9"></path>
                <path d="M182.301745,4.07475 L195.966102,4.07475 C200.24555,4.07475 202.386153,5.98729018 202.386153,9.80891518 L202.386153,21.446558 C202.386153,25.2716384 200.24555,27.1807232 195.966102,27.1807232 L189.076805,27.1807232 L189.076805,40.6151518 L182.301745,40.6151518 L182.301745,4.07475 L182.301745,4.07475 Z M195.61285,20.5205223 L195.61285,10.7349509 C195.61285,10.1181696 195.496857,9.70179911 195.25784,9.49102232 C195.024096,9.27851786 194.59,9.17140179 193.966097,9.17140179 L189.076805,9.17140179 L189.076805,22.0840714 L193.966097,22.0840714 C194.59,22.0840714 195.024096,21.9804107 195.25784,21.7679063 C195.496857,21.5571295 195.61285,21.1407589 195.61285,20.5205223 L195.61285,20.5205223 Z" id="Fill-10"></path>
                <polyline id="Fill-11" points="213.577745 35.5202277 224.887088 35.5202277 224.887088 40.6151518 206.744688 40.6151518 206.744688 4.07475 224.4196 4.07475 224.4196 9.17140179 213.577745 9.17140179 213.577745 19.3059643 222.711336 19.3059643 222.711336 24.4596295 213.577745 24.4596295 213.577745 35.5202277"></polyline>
                <path d="M235.551438,26.3687143 L235.551438,40.6151518 L228.778135,40.6151518 L228.778135,4.07475 L242.442492,4.07475 C246.72194,4.07475 248.862543,5.98729018 248.862543,9.80891518 L248.862543,20.6380045 C248.862543,23.8031116 247.428445,25.6569107 244.562005,26.1976741 L250.748312,40.6151518 L243.442495,40.6151518 L237.786944,26.3687143 L235.551438,26.3687143 L235.551438,26.3687143 Z M235.551438,9.17140179 L235.551438,21.446558 L240.44073,21.446558 C241.06639,21.446558 241.498729,21.3428973 241.73423,21.1303929 C241.973247,20.9196161 242.087482,20.5032455 242.087482,19.8864643 L242.087482,10.7349509 C242.087482,10.1181696 241.973247,9.70179911 241.73423,9.49102232 C241.498729,9.27851786 241.06639,9.17140179 240.44073,9.17140179 L235.551438,9.17140179 L235.551438,9.17140179 Z" id="Fill-12"></path>
                <path d="M265.885433,33.9566786 L265.885433,26.138933 C265.885433,25.5204241 265.771197,25.1057813 265.532181,24.8950045 C265.296679,24.6825 264.864341,24.5753839 264.235165,24.5753839 L259.465382,24.5753839 C255.421435,24.5753839 253.398583,22.645567 253.398583,18.785933 L253.398583,9.80891518 C253.398583,5.98729018 255.518096,4.07475 259.762395,4.07475 L266.240443,4.07475 C270.479469,4.07475 272.602497,5.98729018 272.602497,9.80891518 L272.602497,14.905567 L265.771197,14.905567 L265.771197,10.7349509 C265.771197,10.1181696 265.651689,9.70179911 265.416187,9.49102232 C265.177171,9.27851786 264.748347,9.17140179 264.120929,9.17140179 L261.88015,9.17140179 C261.214068,9.17140179 260.762397,9.27851786 260.526896,9.49102232 C260.287879,9.70179911 260.173644,10.1181696 260.173644,10.7349509 L260.173644,18.0896786 C260.173644,18.7064598 260.287879,19.1228304 260.526896,19.3353348 C260.762397,19.5461116 261.214068,19.6532277 261.88015,19.6532277 L266.535698,19.6532277 C270.656974,19.6532277 272.71849,21.5450357 272.71849,25.3269241 L272.71849,34.8827143 C272.71849,38.7043393 270.581402,40.6151518 266.296682,40.6151518 L259.938142,40.6151518 C255.655179,40.6151518 253.518091,38.7043393 253.518091,34.8827143 L253.518091,29.8448036 L260.287879,29.8448036 L260.287879,33.9566786 C260.287879,34.5734598 260.407388,34.9881027 260.641132,35.2023348 C260.880148,35.4131116 261.331819,35.5202277 262.001416,35.5202277 L264.235165,35.5202277 C264.864341,35.5202277 265.296679,35.4131116 265.532181,35.2023348 C265.771197,34.9881027 265.885433,34.5734598 265.885433,33.9566786" id="Fill-13"></path>
                <path d="M119.016877,14.5082009 L116.074866,14.5082009 L116.074866,22.0978929 L119.016877,22.0978929 C119.43867,22.0978929 119.707564,22.0391518 119.8218,21.925125 C119.93955,21.8110982 119.999304,21.5484911 119.999304,21.1321205 L119.999304,15.4722455 C119.999304,15.0576027 119.93955,14.7932679 119.8218,14.6775134 C119.707564,14.566942 119.43867,14.5082009 119.016877,14.5082009" id="Fill-14"></path>
                <path d="M107.46676,14.5082009 L105.507177,14.5082009 C105.104715,14.5082009 104.839337,14.566942 104.716314,14.6775134 C104.589776,14.7932679 104.524749,15.0576027 104.524749,15.4722455 L104.524749,29.2193839 C104.524749,29.6340268 104.589776,29.8983616 104.716314,30.0123884 C104.839337,30.1264152 105.104715,30.1851562 105.507177,30.1851562 L107.46676,30.1851562 C107.867464,30.1851562 108.131085,30.1264152 108.257623,30.0123884 C108.384161,29.8983616 108.449188,29.6340268 108.449188,29.2193839 L108.449188,15.4722455 C108.449188,15.0576027 108.384161,14.7932679 108.257623,14.6775134 C108.131085,14.566942 107.867464,14.5082009 107.46676,14.5082009" id="Fill-15"></path>
                <path d="M108.053756,0.0734464286 C95.540544,0.0734464286 85.3964062,10.0456071 85.3964062,22.3466786 C85.3964062,34.6460223 95.540544,44.618183 108.053756,44.618183 C120.565211,44.618183 130.709349,34.6460223 130.709349,22.3466786 C130.709349,10.0456071 120.565211,0.0734464286 108.053756,0.0734464286 L108.053756,0.0734464286 Z M100.63546,14.5082009 L95.1275377,14.5082009 L95.1275377,21.349808 L99.3683216,21.349808 L99.3683216,23.1863304 L95.1275377,23.1863304 L95.1275377,32.0199509 L92.9447555,32.0199509 L92.9447555,12.6716786 L100.63546,12.6716786 L100.63546,14.5082009 L100.63546,14.5082009 Z M110.600336,29.5614643 C110.600336,31.2010313 109.765536,32.0199509 108.099451,32.0199509 L104.874486,32.0199509 C103.204887,32.0199509 102.373601,31.2010313 102.373601,29.5614643 L102.373601,15.1301652 C102.373601,13.4923259 103.204887,12.6716786 104.874486,12.6716786 L108.099451,12.6716786 C109.765536,12.6716786 110.600336,13.4923259 110.600336,15.1301652 L110.600336,29.5614643 L110.600336,29.5614643 Z M120.820045,32.0199509 L117.941303,23.9326875 L116.074866,23.9326875 L116.074866,32.0199509 L113.920203,32.0199509 L113.920203,12.6716786 L119.649567,12.6716786 C121.315652,12.6716786 122.148695,13.4923259 122.148695,15.1301652 L122.148695,21.4742009 C122.148695,22.9479107 121.494915,23.7564643 120.187354,23.9015893 L123.162757,32.0199509 L120.820045,32.0199509 L120.820045,32.0199509 Z" id="Fill-16"></path>
            </g>
            <g id="Twitter" transform="translate(505.000000, 441.000000)">
                <g id="Page-1">
                    <path d="M30.7068,17.9917 L30.72185,18.57435 C30.72185,24.5191 26.19825,31.36685 17.9272,31.36685 C15.3902,31.36685 13.02735,30.62295 11.03645,29.34585 C11.3869,29.3867 11.74595,29.41035 12.1093,29.41035 C14.2163,29.41035 16.15345,28.6901 17.69285,27.4861 C15.7256,27.44955 14.06365,26.1488 13.49175,24.36215 C13.7691,24.4159 14.04645,24.43955 14.33885,24.43955 C14.7495,24.43955 15.14725,24.38795 15.5235,24.28475 C13.46595,23.8698 11.9158,22.0552 11.9158,19.87725 L11.9158,19.8192 C12.52425,20.15675 13.21655,20.35885 13.954,20.38465 C12.74785,19.5784 11.95235,18.2024 11.95235,16.6415 C11.95235,15.81805 12.1738,15.0462 12.5608,14.38185 C14.77745,17.10375 18.09275,18.89255 21.82945,19.0796 C21.75205,18.75065 21.7112,18.40665 21.7112,18.0562 C21.7112,15.5751 23.72575,13.56055 26.209,13.56055 C27.50115,13.56055 28.67075,14.10665 29.49205,14.97955 C30.51545,14.77745 31.47865,14.40335 32.34725,13.8895 C32.01185,14.9387 31.3002,15.8202 30.3714,16.37705 C31.2787,16.2717 32.1473,16.0266 32.95355,15.6697 C32.3494,16.57055 31.58615,17.36175 30.7068,17.9917 M21.4661,2 C10.7161,2 2,10.71395 2,21.4661 C2,32.2161 10.7161,40.9322 21.4661,40.9322 C32.21825,40.9322 40.9322,32.2161 40.9322,21.4661 C40.9322,10.71395 32.21825,2 21.4661,2" id="Fill-1" fill="#FF6666"></path>
                    <g id="Group-5">
                        <mask id="mask-6" fill="white">
                            <use xlink:href="#path-5"></use>
                        </mask>
                        <g id="Clip-4"></g>
                        <path d="M21.5,0.6063 C9.97815,0.6063 0.6063,9.9803 0.6063,21.5 C0.6063,33.02185 9.97815,42.3937 21.5,42.3937 C33.02185,42.3937 42.3937,33.02185 42.3937,21.5 C42.3937,9.9803 33.02185,0.6063 21.5,0.6063 M21.5,43 C9.6449,43 0,33.3551 0,21.5 C0,9.6449 9.6449,0 21.5,0 C33.3551,0 43,9.6449 43,21.5 C43,33.3551 33.3551,43 21.5,43" id="Fill-3" fill="#FF6666" mask="url(#mask-6)"></path>
                    </g>
                </g>
            </g>
            <g id="Twitter-Copy" transform="translate(658.000000, 441.000000)">
                <g id="Page-1">
                    <path d="M30.7068,17.9917 L30.72185,18.57435 C30.72185,24.5191 26.19825,31.36685 17.9272,31.36685 C15.3902,31.36685 13.02735,30.62295 11.03645,29.34585 C11.3869,29.3867 11.74595,29.41035 12.1093,29.41035 C14.2163,29.41035 16.15345,28.6901 17.69285,27.4861 C15.7256,27.44955 14.06365,26.1488 13.49175,24.36215 C13.7691,24.4159 14.04645,24.43955 14.33885,24.43955 C14.7495,24.43955 15.14725,24.38795 15.5235,24.28475 C13.46595,23.8698 11.9158,22.0552 11.9158,19.87725 L11.9158,19.8192 C12.52425,20.15675 13.21655,20.35885 13.954,20.38465 C12.74785,19.5784 11.95235,18.2024 11.95235,16.6415 C11.95235,15.81805 12.1738,15.0462 12.5608,14.38185 C14.77745,17.10375 18.09275,18.89255 21.82945,19.0796 C21.75205,18.75065 21.7112,18.40665 21.7112,18.0562 C21.7112,15.5751 23.72575,13.56055 26.209,13.56055 C27.50115,13.56055 28.67075,14.10665 29.49205,14.97955 C30.51545,14.77745 31.47865,14.40335 32.34725,13.8895 C32.01185,14.9387 31.3002,15.8202 30.3714,16.37705 C31.2787,16.2717 32.1473,16.0266 32.95355,15.6697 C32.3494,16.57055 31.58615,17.36175 30.7068,17.9917 M21.4661,2 C10.7161,2 2,10.71395 2,21.4661 C2,32.2161 10.7161,40.9322 21.4661,40.9322 C32.21825,40.9322 40.9322,32.2161 40.9322,21.4661 C40.9322,10.71395 32.21825,2 21.4661,2" id="Fill-1" fill="#00609E"></path>
                    <g id="Group-5">
                        <mask id="mask-8" fill="white">
                            <use xlink:href="#path-7"></use>
                        </mask>
                        <g id="Clip-4"></g>
                        <path d="M21.5,0.6063 C9.97815,0.6063 0.6063,9.9803 0.6063,21.5 C0.6063,33.02185 9.97815,42.3937 21.5,42.3937 C33.02185,42.3937 42.3937,33.02185 42.3937,21.5 C42.3937,9.9803 33.02185,0.6063 21.5,0.6063 M21.5,43 C9.6449,43 0,33.3551 0,21.5 C0,9.6449 9.6449,0 21.5,0 C33.3551,0 43,9.6449 43,21.5 C43,33.3551 33.3551,43 21.5,43" id="Fill-3" fill="#00609E" mask="url(#mask-8)"></path>
                    </g>
                </g>
            </g>
            <g id="FB" transform="translate(435.000000, 441.000000)">
                <g id="Page-1">
                    <path d="M27.2453,14.08085 L23.6505,14.08085 C23.2248,14.08085 22.7518,14.63985 22.7518,15.38805 L22.7518,17.9831 L27.2453,17.9831 L27.2453,21.6811 L22.7518,21.6811 L22.7518,32.7923 L18.5077,32.7923 L18.5077,21.6811 L14.66135,21.6811 L14.66135,17.9831 L18.5077,17.9831 L18.5077,15.80515 C18.5077,12.68335 20.67705,10.1442 23.6505,10.1442 L27.2453,10.1442 L27.2453,14.08085 Z M21.4661,2 C10.7161,2 2,10.7161 2,21.4661 C2,32.21825 10.7161,40.9322 21.4661,40.9322 C32.2161,40.9322 40.9322,32.21825 40.9322,21.4661 C40.9322,10.7161 32.2161,2 21.4661,2 L21.4661,2 Z" id="Fill-1" fill="#FF6666"></path>
                    <g id="Group-5">
                        <mask id="mask-10" fill="white">
                            <use xlink:href="#path-9"></use>
                        </mask>
                        <g id="Clip-4"></g>
                        <path d="M21.5,0.6063 C9.97815,0.6063 0.6063,9.9803 0.6063,21.5 C0.6063,33.02185 9.97815,42.3937 21.5,42.3937 C33.02185,42.3937 42.3937,33.02185 42.3937,21.5 C42.3937,9.9803 33.02185,0.6063 21.5,0.6063 M21.5,43 C9.6449,43 0,33.3551 0,21.5 C0,9.6449 9.6449,0 21.5,0 C33.3551,0 43,9.6449 43,21.5 C43,33.3551 33.3551,43 21.5,43" id="Fill-3" fill="#FF6666" mask="url(#mask-10)"></path>
                    </g>
                </g>
            </g>
            <g id="FB-Copy" transform="translate(588.000000, 441.000000)">
                <g id="Page-1">
                    <path d="M27.2453,14.08085 L23.6505,14.08085 C23.2248,14.08085 22.7518,14.63985 22.7518,15.38805 L22.7518,17.9831 L27.2453,17.9831 L27.2453,21.6811 L22.7518,21.6811 L22.7518,32.7923 L18.5077,32.7923 L18.5077,21.6811 L14.66135,21.6811 L14.66135,17.9831 L18.5077,17.9831 L18.5077,15.80515 C18.5077,12.68335 20.67705,10.1442 23.6505,10.1442 L27.2453,10.1442 L27.2453,14.08085 Z M21.4661,2 C10.7161,2 2,10.7161 2,21.4661 C2,32.21825 10.7161,40.9322 21.4661,40.9322 C32.2161,40.9322 40.9322,32.21825 40.9322,21.4661 C40.9322,10.7161 32.2161,2 21.4661,2 L21.4661,2 Z" id="Fill-1" fill="#00609E"></path>
                    <g id="Group-5">
                        <mask id="mask-12" fill="white">
                            <use xlink:href="#path-11"></use>
                        </mask>
                        <g id="Clip-4"></g>
                        <path d="M21.5,0.6063 C9.97815,0.6063 0.6063,9.9803 0.6063,21.5 C0.6063,33.02185 9.97815,42.3937 21.5,42.3937 C33.02185,42.3937 42.3937,33.02185 42.3937,21.5 C42.3937,9.9803 33.02185,0.6063 21.5,0.6063 M21.5,43 C9.6449,43 0,33.3551 0,21.5 C0,9.6449 9.6449,0 21.5,0 C33.3551,0 43,9.6449 43,21.5 C43,33.3551 33.3551,43 21.5,43" id="Fill-3" fill="#00609E" mask="url(#mask-12)"></path>
                    </g>
                </g>
            </g>
            <g id="logo_callforpapers" transform="translate(75.000000, 511.000000)" fill="#FFFFFF">
                <path d="M10.5043696,8.25418661 L6.97339263,8.25418661 L6.97339263,5.35429732 C6.97339263,5.03817054 6.91348402,4.82624196 6.7927591,4.71674554 C6.66931106,4.60901518 6.44783076,4.55515 6.12287195,4.55515 L4.69232705,4.55515 C4.36827595,4.55515 4.14407253,4.60901518 4.02334761,4.71674554 C3.90171498,4.82624196 3.83999096,5.03817054 3.83999096,5.35429732 L3.83999096,17.4880911 C3.83999096,17.8033348 3.90171498,18.0161464 4.02334761,18.1247598 C4.14407253,18.2342563 4.36827595,18.2872384 4.69232705,18.2872384 L6.12287195,18.2872384 C6.44783076,18.2872384 6.66931106,18.2342563 6.7927591,18.1247598 C6.91348402,18.0161464 6.97339263,17.8033348 6.97339263,17.4880911 L6.97339263,14.6464821 L10.5043696,14.6464821 L10.5043696,17.8439545 C10.5043696,19.7972295 9.39787578,20.773867 7.18851899,20.773867 L3.62758772,20.773867 C1.41732322,20.773867 0.310829417,19.7972295 0.310829417,17.8439545 L0.310829417,4.99843393 C0.310829417,3.04515893 1.41732322,2.06763839 3.62758772,2.06763839 L7.18851899,2.06763839 C9.39787578,2.06763839 10.5043696,3.04515893 10.5043696,4.99843393 L10.5043696,8.25418661" id="Fill-4"></path>
                <path d="M20.848589,20.7438438 L20.1169778,16.8664339 L15.9188368,16.8664339 L15.2489497,20.7438438 L11.7497424,20.7438438 L15.6147553,2.06763839 L20.3293811,2.06763839 L24.3768428,20.7438438 L20.848589,20.7438438 L20.848589,20.7438438 Z M16.375413,14.2923848 L19.6304473,14.2923848 L17.9575449,5.35429732 L16.375413,14.2923848 L16.375413,14.2923848 Z" id="Fill-5"></path>
                <polyline id="Fill-6" points="29.5789068 18.1397714 34.6911079 18.1397714 34.6911079 20.7438438 26.0796996 20.7438438 26.0796996 2.06763839 29.5789068 2.06763839 29.5789068 18.1397714"></polyline>
                <polyline id="Fill-7" points="39.7424927 18.1397714 44.8519707 18.1397714 44.8519707 20.7438438 36.2432854 20.7438438 36.2432854 2.06763839 39.7424927 2.06763839 39.7424927 18.1397714"></polyline>
                <path d="M68.4169303,2.08265 L75.4743456,2.08265 C77.6846101,2.08265 78.7911039,3.06017054 78.7911039,5.01344554 L78.7911039,10.9615741 C78.7911039,12.9166152 77.6846101,13.8923696 75.4743456,13.8923696 L71.9161375,13.8923696 L71.9161375,20.7588554 L68.4169303,20.7588554 L68.4169303,2.08265 L68.4169303,2.08265 Z M75.2918967,10.488267 L75.2918967,5.48675268 C75.2918967,5.17150893 75.2319881,4.95869732 75.1085401,4.85096696 C74.9878151,4.74235357 74.7636117,4.68760536 74.441376,4.68760536 L71.9161375,4.68760536 L71.9161375,11.2874143 L74.441376,11.2874143 C74.7636117,11.2874143 74.9878151,11.2344321 75.1085401,11.1258188 C75.2319881,11.0180884 75.2918967,10.8052768 75.2918967,10.488267 L75.2918967,10.488267 Z" id="Fill-8"></path>
                <path d="M88.9220124,20.7588554 L88.1931243,16.8814455 L83.9922602,16.8814455 L83.3250962,20.7588554 L79.825889,20.7588554 L83.6881787,2.08265 L88.4055276,2.08265 L92.4511739,20.7588554 L88.9220124,20.7588554 L88.9220124,20.7588554 Z M84.4497441,14.3073964 L87.7065938,14.3073964 L86.0309683,5.36930893 L84.4497441,14.3073964 L84.4497441,14.3073964 Z" id="Fill-9"></path>
                <path d="M94.1558461,2.08265 L101.213261,2.08265 C103.423526,2.08265 104.529112,3.06017054 104.529112,5.01344554 L104.529112,10.9615741 C104.529112,12.9166152 103.423526,13.8923696 101.213261,13.8923696 L97.6550533,13.8923696 L97.6550533,20.7588554 L94.1558461,20.7588554 L94.1558461,2.08265 L94.1558461,2.08265 Z M101.030813,10.488267 L101.030813,5.48675268 C101.030813,5.17150893 100.970904,4.95869732 100.847456,4.85096696 C100.726731,4.74235357 100.502528,4.68760536 100.180292,4.68760536 L97.6550533,4.68760536 L97.6550533,11.2874143 L100.180292,11.2874143 C100.502528,11.2874143 100.726731,11.2344321 100.847456,11.1258188 C100.970904,11.0180884 101.030813,10.8052768 101.030813,10.488267 L101.030813,10.488267 Z" id="Fill-10"></path>
                <polyline id="Fill-11" points="110.309385 18.154783 116.150474 18.154783 116.150474 20.7588554 106.780223 20.7588554 106.780223 2.08265 115.909024 2.08265 115.909024 4.68760536 110.309385 4.68760536 110.309385 9.86749286 115.026734 9.86749286 115.026734 12.5015884 110.309385 12.5015884 110.309385 18.154783"></polyline>
                <path d="M121.658435,13.4773429 L121.658435,20.7588554 L118.160135,20.7588554 L118.160135,2.08265 L125.217551,2.08265 C127.427815,2.08265 128.533401,3.06017054 128.533401,5.01344554 L128.533401,10.5483134 C128.533401,12.1660348 127.792713,13.1135321 126.312245,13.3899223 L129.50737,20.7588554 L125.734036,20.7588554 L122.813037,13.4773429 L121.658435,13.4773429 L121.658435,13.4773429 Z M121.658435,4.68760536 L121.658435,10.9615741 L124.183674,10.9615741 C124.506817,10.9615741 124.730113,10.908592 124.851745,10.7999786 C124.975193,10.6922482 125.034194,10.4794366 125.034194,10.1641929 L125.034194,5.48675268 C125.034194,5.17150893 124.975193,4.95869732 124.851745,4.85096696 C124.730113,4.74235357 124.506817,4.68760536 124.183674,4.68760536 L121.658435,4.68760536 L121.658435,4.68760536 Z" id="Fill-12"></path>
                <path d="M137.325443,17.3556357 L137.325443,13.3598991 C137.325443,13.0437723 137.266442,12.8318438 137.142994,12.7241134 C137.021362,12.6155 136.798066,12.5607518 136.473107,12.5607518 L134.009593,12.5607518 C131.920961,12.5607518 130.876191,11.5744009 130.876191,9.60169911 L130.876191,5.01344554 C130.876191,3.06017054 131.970885,2.08265 134.162995,2.08265 L137.5088,2.08265 C139.698187,2.08265 140.794696,3.06017054 140.794696,5.01344554 L140.794696,7.61840089 L137.266442,7.61840089 L137.266442,5.48675268 C137.266442,5.17150893 137.204718,4.95869732 137.083086,4.85096696 C136.959638,4.74235357 136.738157,4.68760536 136.414106,4.68760536 L135.256781,4.68760536 C134.91276,4.68760536 134.67948,4.74235357 134.557847,4.85096696 C134.434399,4.95869732 134.375398,5.17150893 134.375398,5.48675268 L134.375398,9.24583571 C134.375398,9.56107946 134.434399,9.77389107 134.557847,9.88250446 C134.67948,9.99023482 134.91276,10.044983 135.256781,10.044983 L137.661295,10.044983 C139.789866,10.044983 140.854605,11.0119071 140.854605,12.9448723 L140.854605,17.8289429 C140.854605,19.7822179 139.750834,20.7588554 137.537847,20.7588554 L134.253766,20.7588554 C132.041686,20.7588554 130.937915,19.7822179 130.937915,17.8289429 L130.937915,15.2540107 L134.434399,15.2540107 L134.434399,17.3556357 C134.434399,17.6708795 134.496123,17.882808 134.616848,17.9923045 C134.740296,18.1000348 134.973577,18.154783 135.319413,18.154783 L136.473107,18.154783 C136.798066,18.154783 137.021362,18.1000348 137.142994,17.9923045 C137.266442,17.882808 137.325443,17.6708795 137.325443,17.3556357" id="Fill-13"></path>
                <path d="M61.470255,7.41530268 L59.9507549,7.41530268 L59.9507549,11.2944786 L61.470255,11.2944786 C61.6881045,11.2944786 61.8269835,11.2644554 61.8859844,11.206175 C61.9468007,11.1478946 61.9776628,11.0136732 61.9776628,10.8008616 L61.9776628,7.90803661 C61.9776628,7.69610804 61.9468007,7.56100357 61.8859844,7.50184018 C61.8269835,7.44532589 61.6881045,7.41530268 61.470255,7.41530268" id="Fill-14"></path>
                <path d="M55.5048101,7.41530268 L54.4927178,7.41530268 C54.2848531,7.41530268 54.1477894,7.44532589 54.08425,7.50184018 C54.0188952,7.56100357 53.98531,7.69610804 53.98531,7.90803661 L53.98531,14.9343518 C53.98531,15.1462804 54.0188952,15.2813848 54.08425,15.3396652 C54.1477894,15.3979455 54.2848531,15.4279687 54.4927178,15.4279687 L55.5048101,15.4279687 C55.7117671,15.4279687 55.8479231,15.3979455 55.9132779,15.3396652 C55.9786328,15.2813848 56.0122179,15.1462804 56.0122179,14.9343518 L56.0122179,7.90803661 C56.0122179,7.69610804 55.9786328,7.56100357 55.9132779,7.50184018 C55.8479231,7.44532589 55.7117671,7.41530268 55.5048101,7.41530268" id="Fill-15"></path>
                <path d="M55.807984,0.0375392857 C49.3451161,0.0375392857 44.1058362,5.13442143 44.1058362,11.4216357 C44.1058362,17.707967 49.3451161,22.8048491 55.807984,22.8048491 C62.2699441,22.8048491 67.5092241,17.707967 67.5092241,11.4216357 C67.5092241,5.13442143 62.2699441,0.0375392857 55.807984,0.0375392857 L55.807984,0.0375392857 Z M51.9765563,7.41530268 L49.1318052,7.41530268 L49.1318052,10.9121241 L51.3221002,10.9121241 L51.3221002,11.8507911 L49.1318052,11.8507911 L49.1318052,16.3657527 L48.0044341,16.3657527 L48.0044341,6.47663571 L51.9765563,6.47663571 L51.9765563,7.41530268 L51.9765563,7.41530268 Z M57.1232502,15.1091929 C57.1232502,15.9471938 56.6920898,16.3657527 55.8315844,16.3657527 L54.1659436,16.3657527 C53.3036227,16.3657527 52.8742777,15.9471938 52.8742777,15.1091929 L52.8742777,7.73319554 C52.8742777,6.89607768 53.3036227,6.47663571 54.1659436,6.47663571 L55.8315844,6.47663571 C56.6920898,6.47663571 57.1232502,6.89607768 57.1232502,7.73319554 L57.1232502,15.1091929 L57.1232502,15.1091929 Z M62.4015615,16.3657527 L60.9147388,12.2322625 L59.9507549,12.2322625 L59.9507549,16.3657527 L58.8379072,16.3657527 L58.8379072,6.47663571 L61.7970292,6.47663571 C62.6575347,6.47663571 63.0877874,6.89607768 63.0877874,7.73319554 L63.0877874,10.9757027 C63.0877874,11.7289321 62.7501207,12.1421929 62.0747873,12.2163679 L63.6115338,16.3657527 L62.4015615,16.3657527 L62.4015615,16.3657527 Z" id="Fill-16"></path>
            </g>
            <rect id="Rectangle-7" fill="#0072BC" x="235" y="255" width="121" height="41" rx="4.5"></rect>
            <rect id="Rectangle-7-Copy-3" fill="#00609E" x="235" y="307" width="121" height="41" rx="4.5"></rect>
            <rect id="Rectangle-7-Copy" fill="#00ACBC" x="370" y="255" width="121" height="41" rx="4.5"></rect>
            <rect id="Rectangle-7-Copy-2" fill="#0098A6" x="370" y="307" width="121" height="41" rx="4.5"></rect>
            <path d="M78,800.356473 C172.823801,987.163967 366.762054,1115.17558 590.599021,1115.17558 C814.578338,1115.17558 1008.6209,987.001097 1103.37883,800 C935.398043,799.999998 197.987732,800 78,800.356473 Z" id="Oval-3" fill="#FF6666"></path>
            <polygon id="Path-290" fill="#070243" points="1177 800 1177 1429.18105 1290.5 1405.82401 1404 1429.18105 1404 800"></polygon>
        </g>
    </g>
</svg>