<svg id="Layer_1" data-name="Layer 1" xmlns="http://www.w3.org/2000/svg" xmlns:xlink="http://www.w3.org/1999/xlink" viewBox="0 0 872.31 872.31"><defs><style>.cls-1,.cls-13,.cls-17,.cls-26,.cls-27,.cls-28,.cls-29,.cls-30,.cls-31,.cls-32,.cls-33,.cls-34,.cls-35,.cls-36,.cls-37,.cls-38,.cls-39,.cls-40,.cls-41,.cls-42,.cls-43,.cls-45,.cls-47{fill:none;}.cls-2{fill:#e2e2e2;}.cls-3{clip-path:url(#clip-path);}.cls-4{fill:#a09292;}.cls-5{fill:#2d5b20;}.cls-6,.cls-9{fill:#e2a97a;}.cls-10,.cls-25,.cls-7{opacity:0.1;}.cls-8{fill:#bc3131;}.cls-17,.cls-9{stroke:#a67c52;}.cls-13,.cls-16,.cls-17,.cls-26,.cls-27,.cls-28,.cls-29,.cls-30,.cls-31,.cls-32,.cls-33,.cls-34,.cls-35,.cls-36,.cls-37,.cls-38,.cls-39,.cls-40,.cls-41,.cls-42,.cls-43,.cls-45,.cls-47,.cls-9{stroke-miterlimit:10;}.cls-13,.cls-17,.cls-9{stroke-width:5px;}.cls-10,.cls-11{fill:#1d1d1b;}.cls-11,.cls-19{opacity:0.05;}.cls-12{fill:#fff;}.cls-13{stroke:#000;}.cls-14{fill:#557f41;}.cls-15{fill:#e65253;}.cls-16,.cls-48{fill:#eda54f;}.cls-16,.cls-26,.cls-27,.cls-28,.cls-29,.cls-30,.cls-31,.cls-32,.cls-33,.cls-34,.cls-35,.cls-36,.cls-37,.cls-38,.cls-39,.cls-40,.cls-41,.cls-42,.cls-43,.cls-45{stroke:#ba2b32;stroke-width:3px;}.cls-18{fill:#f6c785;}.cls-20{fill:#ba2b32;}.cls-21{fill:#ffe5cc;}.cls-22{fill:#a67c52;}.cls-23{fill:#736357;}.cls-24{fill:#f7d3a9;}.cls-25{fill:#020100;}.cls-27{stroke-dasharray:10.07 10.07;}.cls-28{stroke-dasharray:7.11 7.11;}.cls-29{stroke-dasharray:9.5 9.5;}.cls-30{stroke-dasharray:10.17 10.17;}.cls-31{stroke-dasharray:4.8 4.8;}.cls-32{stroke-dasharray:8.42 8.42;}.cls-33{stroke-dasharray:9.12 9.12;}.cls-34{stroke-dasharray:8.85 8.85;}.cls-35{stroke-dasharray:7.83 7.83;}.cls-36{stroke-dasharray:8.29 8.29;}.cls-37{stroke-dasharray:8.72 8.72;}.cls-38{stroke-dasharray:8.95 8.95;}.cls-39{stroke-dasharray:8.77 8.77;}.cls-40{stroke-dasharray:9.92 9.92;}.cls-41{stroke-dasharray:9.58 9.58;}.cls-42{stroke-dasharray:10.21 10.21;}.cls-43{stroke-dasharray:9.8 9.8;}.cls-44{clip-path:url(#clip-path-2);}.cls-45{stroke-dasharray:9;}.cls-46{fill:#4c4038;}.cls-47{stroke:#d68534;stroke-width:2px;stroke-dasharray:8;}.cls-49{clip-path:url(#clip-path-3);}</style><clipPath id="clip-path"><path class="cls-1" d="M496.88,118l4.32-81L418.5-10.25l-193,45.54-121,193.4L16.27,388l49.61,30.62a379,379,0,0,0-6.78,71.54c0,208.24,168.82,377.06,377.06,377.06S813.22,698.4,813.22,490.16C813.22,302.58,676.25,147,496.88,118Z"/></clipPath><clipPath id="clip-path-2"><circle class="cls-1" cx="462.82" cy="388.62" r="235.73"/></clipPath><clipPath id="clip-path-3"><path class="cls-1" d="M-235.95,184.05l9.15-62-184-88.36H-462l-237.46,100-13.24,34.59-9.88,55A375.88,375.88,0,0,0-833.22,490.16c0,208.24,168.82,377.06,377.06,377.06S-79.09,698.4-79.09,490.16C-79.09,364.11-140.95,252.52-235.95,184.05Z"/></clipPath></defs><title>reylero_rec</title><circle class="cls-2" cx="436.16" cy="490.16" r="377.06"/><g class="cls-3"><path class="cls-4" d="M677.74,596.31S679,529.94,465.9,545.7C273.48,559.94,133.74,591.63,74.24,922.35c-22,122.38,55.82,234.38,55.82,234.38S169.38,1033,217.19,979c0,0,6.1,93.08,37.64,184.12,0,0,72.1-134.85,124.74-166.13,0,0,22.1,126.43,53.38,171.44,0,0,82.23-149,105.12-166.55,0,0,61.5,132.18,95.37,148.77,0,0,18.95-136.57,33.44-157.16,0,0,52.22,106.72,132.33,127.32C799.19,1120.87,708,1022.54,677.74,596.31Z"/><path class="cls-5" d="M658.13,552.33l.62,7a3.77,3.77,0,0,0,5.45,3l3.88-1.94a3.77,3.77,0,0,0,1.69-5.06l-2.92-5.84a3.77,3.77,0,0,0-5.06-1.69l-1.58.79A3.77,3.77,0,0,0,658.13,552.33Z"/><path class="cls-6" d="M627.14,577.94c168,40.85,193.8,150.23,199,192.58v0a19.2,19.2,0,0,1-.09,38.4c-5-.12-10.52-3.17-10.52-3.17-47.73,60.35-107.53,64.09-111,64.54,0,0,12.29-149.49-34.35-183.59C649.22,671.41,627.14,577.94,627.14,577.94Z"/><path class="cls-7" d="M653.2,597.42a58.77,58.77,0,0,1,6.08-2.21c18.3,13.09,20.43,78.65,20.43,78.65s13.83,5.51,39.74,32.25,27.05,88.52-18,108.53c0,0-10.64-112.78-31.33-127.91C649.22,671.41,653.2,597.42,653.2,597.42Z"/><path class="cls-6" d="M326.54,603.69s-30.72,34.63,21,287.15a19.64,19.64,0,0,0,20.25,15.68c58.42-3,245.92-.76,260.12-22.07,16.78-25.18,61-236.51,19.84-301.36C630.09,555.32,340.27,557.15,326.54,603.69Z"/><path class="cls-7" d="M328.7,644.69s-20.64-33.33-7.57,82.52l11.35-1.36s8.47-31.38,8.47-80Z"/><path class="cls-8" d="M562.18,924.24s40.66-9,58.55-15.76a13.58,13.58,0,0,0,8-8.23c4.36-12.4,12.85-39.83,2.71-39.83-7.38,0-69.6,16.65-131.33,20.74-93.42,6.2-123.74-1-153.41-2.41-11.32-.52-4,45.11,1.18,44.22,0,0,36.69,12.92,115.46,10.94,0,0,6.61,162.25.13,223.28,0,0,53.21,25,92.7-5C556.18,1152.24,569.92,953.62,562.18,924.24Z"/><path class="cls-6" d="M329.59,731.1s11.15-109.48-8.39-133.51c0,0-95.58-31-138.48,144.07a21,21,0,0,0-7.59,41S214.36,906.89,340.95,899C340.95,899,301.36,785.26,329.59,731.1Z"/><path class="cls-7" d="M245.7,618.84c-23.18,20.14-46.82,56.85-63,122.81a21,21,0,0,0-7.59,41S214.36,906.89,340.95,899c0,0-5.79-13.68-11.1-61.86,0,0-97.15,7.63-111.9-61.48C205.83,718.88,245.7,618.84,245.7,618.84Z"/><path class="cls-9" d="M336.88,727c38.35-51.56,100.08-37.17,110.49-30,2.91,2,6,7.53,6,7.53s9-12.05,32.88,1.68,25.18,76.8,19.07,81.13c-4.76,3.37-11.71-.44-14.1-1.75l-.06.59c9.87,19.35,6.36,41.23,4.29,50.05a9.83,9.83,0,0,1-4.3,6.06c-53.1,33.67-98,50.16-135.66,55.29C355.5,897.55,281.87,800.93,336.88,727Z"/><path class="cls-10" d="M352.73,707.83s-11.85,10.3-17.45,17.83c-55,74,16.79,171.89,16.79,171.89,8.95-1.22,20-1.5,29.75-4.08C381.81,893.47,321.16,812,352.73,707.83Z"/><path class="cls-11" d="M453.78,701.4a19,19,0,0,1,8.68-3.46c5.49,3.61,4.6,23,9.38,26.67,28.71,21.93,21.46,59.89,21.46,59.89l-3.21-1.75s-2-42.5-26-51.28Z"/><path class="cls-10" d="M679.71,594.57h0c-28.08-33.69-101.06,68.68-168.79,70.9-72.09,2.36-156-53.58-271.28-27.89-10.34,2.3-51.43,16.84-58.34,25.68,0,0,119.54-41.44,218.72-3.3s145.47,25.94,171.41,4.58S644.67,584.12,679.71,594.57Z"/><path class="cls-12" d="M679.71,594.57s-1.51-65.16-211.84-49.06c-118.7,9.09-220,21.55-286.56,106.74,0,0,119.54-41.44,218.72-3.3s145.47,25.94,171.41,4.58S644.67,584.12,679.71,594.57Z"/><circle class="cls-7" cx="461.26" cy="396.62" r="235.73"/><path class="cls-10" d="M679.71,594.57s-.06-6.19-6.86-14.34c-28.08-33.69-94.2,72-161.92,74.23-72.09,2.36-156-53.58-271.28-27.89-10.34,2.3-51.43,16.84-58.34,25.68,0,0,119.54-41.44,218.72-3.3s145.47,25.94,171.41,4.58S644.67,584.12,679.71,594.57Z"/><path class="cls-13" d="M346.38,73.45s68.92,27,87.61,86.47"/><path class="cls-14" d="M439.71,159.15l41.2-57.22,9.92-24.41-46.28,25.94,10.68-42.72L445,53.61,431.32,75.48s9.16-38.66,4.07-50.86l-27.47-11.7s-11.19,50.35-19.33,60.53L386,33.27,346.38,73.45,233.46,63.27,246.18,78l23.4,13.73L238,94.3l21.36,50.35s85.45-1,91.55,1l-64.09,22.38-5.59,20.85,73.24-1S308.23,307.67,164.8,417.53c0,0-14.92-3.29-16.28-5.09-1.79-2.38-26.7-27.72-25.43-80.62,0,0,48.32-6.1,55.19-20.34,0,0-19.07,7.63-63.07-16.78,0,0-7.76-3.69-10.17-1.27s-21.63,67.06-32.49,83.51a2,2,0,0,0,.12,2.34c7,8.69,36.77,58.68,31.86,84.28,0,0,61.8,30.26,73.62,30.26C178.15,493.82,442.17,358.81,439.71,159.15Z"/><path class="cls-7" d="M354.51,187.89l-73.24,1,5.59-20.85L351,145.67c-6.1-2-91.55-1-91.55-1L238,94.3l31.53-2.54L246.18,78,233.46,63.27,346.38,73.45s50.26,33.82,91.29,119Z"/><path class="cls-7" d="M257.74,443.38c-44.49,32.49-79.59,50.44-79.59,50.44-11.83,0-73.62-30.26-73.62-30.26S216,381.42,228.58,361.9"/><path class="cls-7" d="M99.19,381.1c.61-19.7,17.74-73.43,22.89-69.62,21.83,16.17,56.2,0,56.2,0-6.87,14.24-55.19,20.34-55.19,20.34-1.27,52.9,23.64,78.24,25.43,80.62C148.52,412.44,99,386.25,99.19,381.1Z"/><path class="cls-6" d="M664.43,510.86c6.37,5.08,9.31,13,8.59,21.9a25.59,25.59,0,0,1-23.63,23.32c-7.66.52-16.27-1.35-16.42-4.13-.69-13.37-.48-24.17,6.36-31.44C651.37,507.71,664.43,510.86,664.43,510.86Z"/><circle class="cls-15" cx="462.82" cy="388.62" r="235.73"/><path class="cls-16" d="M662,358.53c-8.25-10.16-68-2-68-2l-31.6-80.87,49-9.35-11-50.24-53.72,7.5,1.1,16-64,34.82-79.28-22.88-5.65-19.22-60.38,10.06,9.63,54.92,46.77-6.36-5.73,81.39s-53.45-6.16-79.38,18.64c0,0-7.93,77.74,74.82,81.81,0,0,62.43,7.39,80-31a78,78,0,0,1-2.22,19.69s33.83-13.23,73-3.82c0,0-7.36-17.36-8.82-24.09,0,0,29,30.59,85.45,15.71C686.87,429.45,662,358.53,662,358.53Zm-228.69,20.1,1.27-79.19,25.08,11.78c1.59,9.16,4.79,81.34,4.79,81.34S452.65,386.35,433.32,378.63ZM517,390.2s-11.9-72-12.58-81.27l21.19-15,19.11,77.32C527.67,382.7,517,390.2,517,390.2Z"/><path class="cls-6" d="M571.81,480.63c-1.47-8.84-8.39-11.06-16.48-9.41-9.69,2-13.11,8.63-13.11,8.63s-10.66-15.56-40.53-12.52c-32,3.26-43.62,18.63-43.62,18.63s-6.85-6.69-15.82-6c-8.05.65-11.84,6-11.73,12.24.11,6.53,4.76,9.86,11.73,11.17,6.81,1.28,16.57-1,16.57-1s11.29,15.84,47.69,11.71c32.77-3.72,39.95-18.55,39.95-18.55S573.43,499.36,571.81,480.63Z"/><path class="cls-6" d="M385.63,528.52s.15-6.86,17.5-7.24c18.7-.4,77.74,8.15,107.66,5.34s47.18-25.72,51.85-17.31-1.31,18.7-8.6,20.95l7.83,72.33s-77.66,40.86-173.56,9.74l8.6-69.37Z"/><path class="cls-7" d="M571.39,478.79c-3.48,12.66-24.94,9.63-24.94,9.63s-7.18,14.83-39.95,18.55c-36.4,4.13-47.69-11.71-47.69-11.71s-9.76,2.3-16.57,1c-5.71-1.07-9.86-3.5-11.23-7.94a13.49,13.49,0,0,0-.5,3.89c.11,6.53,4.76,9.86,11.73,11.17,6.81,1.28,16.57-1,16.57-1s11.29,15.84,47.69,11.71c32.77-3.72,39.95-18.55,39.95-18.55s27,3.82,25.36-14.91A16.5,16.5,0,0,0,571.39,478.79Z"/><path class="cls-8" d="M346.38,713.52s-26.45,32.11-5.85,110.15c19.84,75.15,35.86,71.33,48.83,70.19,0,0-21.74,30.9-69.81,12.59S265.79,760.91,288.27,739C303.91,723.72,328.32,706.11,346.38,713.52Z"/><path class="cls-10" d="M346.38,713.52s-26.45,32.11-5.85,110.15c19.84,75.15,35.86,71.33,48.83,70.19,0,0-.47,3.15-8.43,8.1C369.87,908.83,331,882.72,322,798.23c-6.8-63.83,13.2-86.37,14.81-86.39A24.18,24.18,0,0,1,346.38,713.52Z"/><path class="cls-17" d="M419,558.3s59.22-25,121.78-2.11a98,98,0,0,1-10.11,23.08"/><path class="cls-17" d="M422.86,544.56s-6.29,12.21-3.24,23.84"/><path class="cls-18" d="M540.31,692.92l-36,7.65a14.12,14.12,0,0,1-15.57-7.43l-9.3-22.36c-2.48-4.65-1.36-10.57,2.81-13.37a9.17,9.17,0,0,1,3-1.31l51.12-12.38a9.17,9.17,0,0,1,3.23-.2c5,.58,8.69,5.32,8.62,10.58l2.75,25A14.12,14.12,0,0,1,540.31,692.92Z"/><path class="cls-5" d="M532.23,685.14l-22.79,4.7a8.15,8.15,0,0,1-9-4.29l-5.37-12.91a6,6,0,0,1,1.62-7.72,5.29,5.29,0,0,1,1.71-.75l31.51-7.43a5.29,5.29,0,0,1,1.87-.11,6,6,0,0,1,5,6.11l1.59,14.43A8.15,8.15,0,0,1,532.23,685.14Z"/><path class="cls-17" d="M431,799.76s25.38-22.66,60.14-13.62"/><path class="cls-17" d="M464.13,732.8s-7.6-29.2-16.76-35.84"/><path class="cls-9" d="M695.2,871.26a213,213,0,0,1-81.14-8,93.63,93.63,0,0,1-11-3.62c-15-5.58-27.45-19.53-36.66-26.9-11.44-9.16-11.84-28.2-11.84-28.2-35.48,1.91-27.07-56.87-19.44-79.75s21.36-18.69,21.36-18.69c25.28-26.89,55.23-33.76,55.23-33.76s37-4.58,93.08,34.71S695.2,871.26,695.2,871.26Z"/><path class="cls-7" d="M645.45,675s31.28,12.45,59.32,32.09c56.08,39.29-9.57,164.2-9.57,164.2-43.78,2.29-49.31.95-49.31.95S715.38,784.5,645.45,675Z"/><path class="cls-19" d="M553.85,707.72a12.59,12.59,0,0,0-6,1.62c-6.47,16,1.29,32.69,1.29,32.69s-9.66,16.69-1.14,42.47c0,0-3.66,10.64-3.58,16.54,0,0,2.94,1.72,9.19,1.66l.69-17.62c-6.8-6.43-7.17-26,.32-42.92Z"/><path class="cls-8" d="M654.51,679.88s30.81,19.46,32.33,78.84c2.6,101.69-37.26,114-37.26,114,.82,2.07,11.38,9.16,52.2,3.43,13-1.82,40.34-2.94,47.94-43.23,7.17-38,11.23-148.95-53.77-157.27C633.48,667.68,654.51,679.88,654.51,679.88Z"/><path class="cls-7" d="M654.51,679.88s30.81,19.46,32.33,78.84c2.6,101.69-37.26,114-37.26,114s2.12,4.36,17.77,5.45c13.08.92,41.77-41.06,36-119.48-2.81-38.58-16.55-81-38.6-85.08C602.84,662.29,654.51,679.88,654.51,679.88Z"/><path class="cls-20" d="M418.1,158.49c7.18,2.34,13.95,7.17,19.68,11.91,15.74,13,26.81,30.91,33.78,50,6.21,17,9.31,34.94,10.57,53,.13,1.92,3.14,1.93,3,0-3-42.84-18.23-92-58.4-114.11a46.32,46.32,0,0,0-7.83-3.61c-1.84-.6-2.63,2.3-.8,2.89Z"/><path class="cls-20" d="M432.66,183.61c5.08-6.71,15.79-11.22,24.47-13,1.89-.4,1.09-3.29-.8-2.89-9.54,2-20.17,6.37-26.26,14.42-1.17,1.54,1.44,3,2.59,1.51Z"/><path class="cls-20" d="M431.79,172.18c5.29-3.2,12.32-4.18,18.29-5,1.9-.28,1.09-3.17-.8-2.89-6.24.9-13.47,2-19,5.35a1.5,1.5,0,0,0,1.51,2.59Z"/><path class="cls-20" d="M457.64,239.8c10.23-7.1,24.67-7.87,36.54-6.5,1.91.22,1.9-2.78,0-3-12.33-1.42-27.44-.46-38.06,6.91-1.58,1.09-.08,3.69,1.51,2.59Z"/><path class="cls-9" d="M325.6,398.46c-8.25,43.06,38.13,59.15,59.91,60.48,35.91,2.19,56.59-13.7,60.9-22.24l3.8-1.87-.83-9.12c-25.87-14.47-35.63-35-73.93-40.77C361.37,382.82,363.16,387.4,325.6,398.46Z"/><path class="cls-21" d="M352.92,412s7.4,25.1,30.36,28.53,37.9-13.37,37.9-13.37S396,392,352.92,412Z"/><circle class="cls-22" cx="390.98" cy="419.73" r="17.2" transform="translate(-52.05 784.08) rotate(-86.46)"/><circle class="cls-23" cx="390.98" cy="419.73" r="9.92" transform="translate(-52.05 784.08) rotate(-86.46)"/><circle class="cls-24" cx="387.44" cy="415.72" r="3.78" transform="translate(-51.38 776.79) rotate(-86.46)"/><path class="cls-22" d="M422.17,426.38h0a2,2,0,0,1-3,.15c-13.8-19.12-42.7-26.47-66.18-15.91-.62.28-1.31-.61-.75-1,28.92-16.44,57.29-4.11,69.63,13.82C422.56,424.4,422.92,425.5,422.17,426.38Z"/><path class="cls-9" d="M651.25,369.49C667,410.4,628.71,434.21,603,439.67c-35.2,7.48-58.22-7.41-64-15.05h-6L530.48,417c22.88-18.84,32.62-39.54,69.3-52C613.27,360.48,612.32,365.3,651.25,369.49Z"/><path class="cls-21" d="M626.62,391.45s-5.2,25.65-27.78,31.05-38.91-10-38.91-10S582,375.28,626.62,391.45Z"/><circle class="cls-22" cx="589.37" cy="402.48" r="17.2" transform="translate(-53 91.5) rotate(-8.5)"/><circle class="cls-23" cx="589.37" cy="402.48" r="9.92" transform="translate(-53 91.5) rotate(-8.5)"/><circle class="cls-24" cx="584.92" cy="402" r="3.78" transform="translate(-52.98 90.83) rotate(-8.5)"/><path class="cls-22" d="M558.88,411.81h0a2,2,0,0,0,3-.11c12.09-20.24,40.25-30.06,64.56-21.57.64.22,1.25-.72.66-1.06-30.23-13.87-57.43.86-68.18,19.79C558.32,409.87,558.05,411,558.88,411.81Z"/><path class="cls-7" d="M504.05,592c-130.19,0-235.73-105.54-235.73-235.73a235,235,0,0,1,70.51-168.12A235.57,235.57,0,0,0,227.08,388.62c0,130.19,105.54,235.73,235.73,235.73A235,235,0,0,0,628,556.74,234.61,234.61,0,0,1,504.05,592Z"/><path class="cls-6" d="M270.36,524.78a25.51,25.51,0,0,0,14.1,45.41c7.66.52,19.52-4.46,19.66-7.24.69-13.37-2.77-21.06-9.61-28.33C282.48,521.82,270.36,524.78,270.36,524.78Z"/><path class="cls-25" d="M288,562.87a25.52,25.52,0,0,1-22.65-32.78,25.5,25.5,0,0,0,19.09,40.1c7.66.52,19.52-4.46,19.66-7.24.07-1.43.09-2.77.07-4.08C300.08,561.13,293.13,563.22,288,562.87Z"/><path class="cls-5" d="M289.47,565.13l1.72,9.06a5,5,0,0,1-5.8,5.79l-5.59-1.06a5,5,0,0,1-3.94-5.8l1.6-8.43a5,5,0,0,1,5.8-3.94l2.27.43A5,5,0,0,1,289.47,565.13Z"/><path class="cls-26" d="M375.39,361.6c1.6,0,3.11,0,4.5.08l.32-4.49"/><line class="cls-27" x1="380.91" y1="347.15" x2="383.39" y2="311.97"/><polyline class="cls-26" points="383.74 306.95 384.06 302.46 379.6 303.06"/><line class="cls-28" x1="372.56" y1="304.02" x2="347.91" y2="307.37"/><polyline class="cls-26" points="344.39 307.85 339.93 308.46 339.15 304.02"/><line class="cls-29" x1="337.52" y1="294.67" x2="328.5" y2="243.23"/><polyline class="cls-26" points="327.68 238.55 326.9 234.12 331.34 233.38"/><line class="cls-30" x1="341.37" y1="231.71" x2="396.52" y2="222.52"/><polyline class="cls-26" points="401.53 221.68 405.97 220.94 407.24 225.26"/><line class="cls-31" x1="408.59" y1="229.87" x2="410.62" y2="236.78"/><polyline class="cls-26" points="411.3 239.08 412.57 243.4 416.89 244.64"/><polyline class="cls-32" points="424.98 246.98 482.63 263.62 529.73 237.99"/><polyline class="cls-26" points="533.43 235.98 537.38 233.83 537.07 229.34"/><polyline class="cls-26" points="536.39 219.43 536.09 214.94 540.54 214.32"/><line class="cls-33" x1="549.57" y1="213.06" x2="599.24" y2="206.12"/><polyline class="cls-26" points="603.76 205.49 608.21 204.87 609.17 209.26"/><line class="cls-34" x1="611.07" y1="217.91" x2="621.46" y2="265.47"/><polyline class="cls-26" points="622.41 269.79 623.37 274.19 618.95 275.03"/><line class="cls-35" x1="611.26" y1="276.5" x2="584.33" y2="281.63"/><polyline class="cls-26" points="580.48 282.36 576.06 283.2 577.7 287.4"/><line class="cls-36" x1="580.72" y1="295.12" x2="597.32" y2="337.6"/><path class="cls-26" d="M598.83,341.46l1.64,4.19,4.47-.47"/><path class="cls-37" d="M613.63,344.41c7-.55,14.87-1,22.36-1,18.68,0,28.78,2.63,33.79,8.8l1.1,1.35.58,1.64c.5,1.43,12.09,35.37-3.94,65.57-9.87,18.6-27.7,31.42-53,38.08A127.92,127.92,0,0,1,582,463.29h0a102.48,102.48,0,0,1-27.71-3.7"/><path class="cls-26" d="M550.12,458.31q-2.2-.72-4.24-1.51l1.76,4.14"/><polyline class="cls-26" points="550.55 467.8 552.3 471.94 547.93 470.89"/><path class="cls-38" d="M539.23,468.8,533,467.31a115.16,115.16,0,0,0-26.88-3.1A123.78,123.78,0,0,0,466,470.72l-9.91,3.82"/><path class="cls-26" d="M451.9,476.15l-4.2,1.62,1.61-6.09q-2,1.1-4,2.07"/><path class="cls-39" d="M437.19,477.08c-14.34,5-29.48,6.21-40.44,6.21a129.4,129.4,0,0,1-12.95-.6c-27.94-1.43-49.56-10.83-64.25-27.92-23.28-27.09-19.88-63.35-19.73-64.88l.37-3.67,2.66-2.55c10.23-9.78,30.3-21.39,68.14-22.06"/><path class="cls-26" d="M443.51,367.45l-.07,4.5,4.15,1.75"/><path class="cls-26" d="M449.59,374.57l4.12,1.81q-.11-2.23-.22-4.5"/><path class="cls-40" d="M453,362c-.64-12.7-1.34-25.31-2-34.66"/><path class="cls-26" d="M450.71,322.38c-.12-1.67-.24-3.18-.35-4.48l-6-2.83-.07,4.5"/><line class="cls-41" x1="444.12" y1="329.15" x2="443.58" y2="362.66"/><path class="cls-26" d="M520.49,314.93l-1.08-4.37L515,313.65c.18,1.31.39,2.8.63,4.45"/><path class="cls-42" d="M517.19,328.2c1.56,10.17,3.57,22.87,5.58,35.31"/><path class="cls-26" d="M523.59,368.56l.72,4.44,3.72-2.53"/><path class="cls-26" d="M529.6,369.39l3.73-2.52-1.08-4.37"/><line class="cls-43" x1="529.9" y1="352.99" x2="521.67" y2="319.69"/><g class="cls-44"><path class="cls-45" d="M462.25,634a249.13,249.13,0,0,1-77-12.18l-7.85-2.55,9.11-73.44-10.93-14,.08-3.57c.06-2.74,1.67-16.46,27.28-17l1.58,0c7.77,0,20.18,1.09,34.54,2.36,18.92,1.67,40.37,3.56,57.51,3.56,5.13,0,9.61-.18,13.31-.52,13.79-1.29,24.91-7.8,33-12.56,6.58-3.86,11.34-6.64,16.72-6.64a13.18,13.18,0,0,1,11.79,7A23.83,23.83,0,0,1,572.46,525a26.46,26.46,0,0,1-7.78,10.64l7.87,72.62-6,3.17C564.78,612.37,522.91,634,462.25,634Z"/></g><path class="cls-46" d="M486.25,579.78s60.27-10.17,72,62.31c0,0-48.68,26.73-103-6.5a11,11,0,0,1-5.26-10.14C450.73,613.2,456.14,587.78,486.25,579.78Z"/><path class="cls-7" d="M457.72,623.12A11,11,0,0,1,452.46,613c0-.59.09-1.21.16-1.85a60.49,60.49,0,0,0-2.7,14.32,11,11,0,0,0,5.26,10.14c54.37,33.23,103,6.5,103,6.5-.59-3.64-1.3-7.06-2.12-10.29C542.69,637.42,502.1,650.25,457.72,623.12Z"/><path class="cls-19" d="M555.45,735.71s16.59-13.77,57.79-9.57l.89,6.67s-56.32,10-57.2,10Z"/><path class="cls-19" d="M555.44,785.8c25.21,14.43,63.72,13.49,63.72,13.49C614.84,794.9,598,786.45,551.91,779,550.11,778.67,555.44,785.8,555.44,785.8Z"/><path class="cls-17" d="M618.87,801.16s-48.39-7.95-61.63-15.35c-5.57-3.12-2.62,7.38-2.69,19.17"/><path class="cls-17" d="M556.46,706.11s-9.63,19.18.47,36.72"/><path class="cls-17" d="M614.93,733s-53.29,5.12-58,9.83-11.77,37.12.31,43"/><path class="cls-11" d="M463.32,731.48S442.47,714,409.15,747.94C409.15,747.94,456.64,729.32,463.32,731.48Z"/><path class="cls-17" d="M410.21,749.41s33.36-21.5,56.66-16.1a17.25,17.25,0,0,1,11.26,8.83c5,9.45,13.88,29.2,9.39,42.87"/><path class="cls-11" d="M429.88,798.49s24.54-37.13,58.41-15C488.29,783.48,461.92,779,429.88,798.49Z"/><path class="cls-47" d="M396.75,467.3a110.6,110.6,0,0,1-11.45-.53l-.2,0h-.21c-23.53-1.16-41.43-8.69-53.2-22.38-15.92-18.52-16.34-43.21-16.07-50.63,16.33-14,43.67-16.12,58.85-16.12a138.46,138.46,0,0,1,14,.64l6.22.71.44-6.25L401.4,284,353,290.53l-7.59-43.28,49.17-8.2,5.08,17.28,84.81,24.48L554,243l-1-14.25,42.68-6,8.48,38.79-50.08,9.54,36,92,4.68-.64c.22,0,22.51-3,41.21-3,14.31,0,19.29,1.75,20.82,2.55,1.77,6.14,7.66,30.53-3.47,51.4-7.71,14.46-22.13,24.56-42.89,30A111.92,111.92,0,0,1,582,447.29h0c-14,0-26.87-3-38.2-8.94a54.81,54.81,0,0,1-12.93-9l-14.66-15.18,4.46,20.61a122.07,122.07,0,0,0,5,14.84,134.38,134.38,0,0,0-19.51-1.41A146.08,146.08,0,0,0,470,452.77a84.86,84.86,0,0,0,.56-11.25l-.82-25.57-10.63,23.27C454.33,449.7,439.85,467.3,396.75,467.3Zm30.51-84.63,3.84,1.53c18.76,7.49,30.46,13.61,30.57,13.67l9.25,4.86-.46-10.44c-.33-7.43-3.26-72.83-4.87-82.1l-.53-3.08-36.31-17.06ZM498.18,306l.25,3.38c.7,9.43,12.16,78.86,12.65,81.81l1.56,9.42,7.81-5.49c.11-.07,10.83-7.6,27.61-18.87l3.49-2.34L529.32,284Z"/><path class="cls-46" d="M455,391.52l-11.31,42s-123.07-42.86-137.42-54l1.68-21S378.57,377,455,391.52Z"/><path class="cls-46" d="M523.51,385.47l18.6,39.28s113.48-64.08,125.62-77.6l-5.39-20.32S596.13,357.62,523.51,385.47Z"/><polygon class="cls-48" points="389.51 284.08 390.78 288.28 400.76 287.26 399.81 282.81 389.51 284.08"/><polyline class="cls-26" points="394.9 290.89 396.64 265.72 364.02 260.38 364.98 275.63"/><polygon class="cls-48" points="553.66 269.84 554.93 274.03 564.92 273.02 563.96 268.57 553.66 269.84"/><polyline class="cls-26" points="565.34 283.23 554.57 255.67 584.89 237.68 587.93 250.55"/></g><g class="cls-49"><path class="cls-15" d="M16.27,769.93c4.28,0,4.29-6.66,0-6.66s-4.29,6.66,0,6.66Z"/></g></svg>