<?xml version="1.0" encoding="utf-8"?>
<!-- Generator: Adobe Illustrator 18.0.0, SVG Export Plug-In . SVG Version: 6.00 Build 0)  -->
<!DOCTYPE svg PUBLIC "-//W3C//DTD SVG 1.0//EN" "http://www.w3.org/TR/2001/REC-SVG-20010904/DTD/svg10.dtd">
<svg version="1.0" id="Layer_1" xmlns="http://www.w3.org/2000/svg" xmlns:xlink="http://www.w3.org/1999/xlink" x="0px" y="0px"
	 viewBox="0 0 144.4 155.8" enable-background="new 0 0 144.4 155.8" xml:space="preserve">
<g>
	<circle opacity="0.1" fill="#883E26" cx="72.2" cy="83.6" r="72.2"/>
	<circle fill="#FFFFFF" cx="72.2" cy="72.2" r="72.2"/>
	<g>
		<path fill="#BA2B32" d="M72.3,136.7L72.3,136.7c-0.9,0-1.8,0.1-2.7,0.1l0-0.9c0.9,0,1.7-0.1,2.6-0.1L72.3,136.7z M74.9,137l0-1
			c0.9,0,1.8-0.1,2.6-0.2l0.1,1C76.7,136.9,75.8,136.9,74.9,137z M66.9,136.8c-0.9-0.1-1.8-0.2-2.7-0.3l0.1-1
			c0.9,0.1,1.7,0.2,2.6,0.3L66.9,136.8z M80.3,136.5l-0.1-1c0.9-0.1,1.7-0.2,2.6-0.4l0.2,1C82,136.3,81.2,136.4,80.3,136.5z
			 M61.6,136.2c-0.9-0.1-1.8-0.3-2.6-0.5l0.2-1c0.9,0.2,1.7,0.3,2.6,0.5L61.6,136.2z M85.6,135.6l-0.2-1c0.9-0.2,1.7-0.4,2.6-0.6
			l0.2,1C87.3,135.3,86.4,135.5,85.6,135.6z M56.3,135.1c-0.9-0.2-1.7-0.5-2.6-0.7l0.3-1c0.8,0.2,1.7,0.5,2.5,0.7L56.3,135.1z
			 M90.7,134.3l-0.3-1c0.8-0.3,1.7-0.5,2.5-0.8l0.3,0.9C92.5,133.8,91.6,134.1,90.7,134.3z M51.2,133.5c-0.8-0.3-1.7-0.6-2.5-0.9
			l0.4-0.9c0.8,0.3,1.6,0.6,2.5,0.9L51.2,133.5z M95.8,132.6l-0.4-0.9c0.8-0.3,1.6-0.7,2.4-1l0.4,0.9
			C97.5,131.9,96.6,132.3,95.8,132.6z M46.2,131.6c-0.8-0.4-1.6-0.7-2.4-1.1l0.4-0.9c0.8,0.4,1.6,0.8,2.4,1.1L46.2,131.6z
			 M100.7,130.4l-0.4-0.9c0.8-0.4,1.6-0.8,2.3-1.2l0.5,0.9C102.3,129.6,101.5,130,100.7,130.4z M41.4,129.2
			c-0.8-0.4-1.6-0.9-2.3-1.3l0.5-0.9c0.8,0.5,1.5,0.9,2.3,1.3L41.4,129.2z M105.4,127.9l-0.5-0.9c0.8-0.5,1.5-0.9,2.2-1.4l0.5,0.8
			C106.9,127,106.2,127.4,105.4,127.9z M36.8,126.5c-0.7-0.5-1.5-1-2.2-1.5l0.6-0.8c0.7,0.5,1.4,1,2.2,1.5L36.8,126.5z M109.9,125
			l-0.6-0.8c0.7-0.5,1.4-1,2.1-1.6l0.6,0.8C111.3,123.9,110.6,124.4,109.9,125z M32.4,123.4c-0.7-0.5-1.4-1.1-2.1-1.7l0.6-0.8
			c0.7,0.6,1.4,1.1,2,1.7L32.4,123.4z M114.1,121.7l-0.6-0.8c0.7-0.6,1.3-1.2,2-1.7l0.7,0.7C115.4,120.5,114.8,121.1,114.1,121.7z
			 M28.3,119.9c-0.7-0.6-1.3-1.2-1.9-1.9l0.7-0.7c0.6,0.6,1.3,1.2,1.9,1.8L28.3,119.9z M118,118l-0.7-0.7c0.6-0.6,1.2-1.3,1.8-1.9
			l0.7,0.7C119.3,116.8,118.7,117.4,118,118z M24.6,116.1c-0.6-0.7-1.2-1.3-1.8-2l0.8-0.6c0.6,0.7,1.2,1.3,1.7,2L24.6,116.1z
			 M121.7,114.1l-0.8-0.6c0.6-0.7,1.1-1.4,1.7-2l0.8,0.6C122.8,112.7,122.2,113.4,121.7,114.1z M21.1,112.1
			c-0.5-0.7-1.1-1.4-1.6-2.1l0.8-0.6c0.5,0.7,1,1.4,1.6,2.1L21.1,112.1z M125,109.9l-0.8-0.6c0.5-0.7,1-1.4,1.5-2.2l0.8,0.5
			C126,108.4,125.5,109.2,125,109.9z M18,107.7c-0.5-0.7-1-1.5-1.4-2.3l0.9-0.5c0.5,0.8,0.9,1.5,1.4,2.2L18,107.7z M127.9,105.4
			l-0.9-0.5c0.5-0.8,0.9-1.5,1.3-2.3l0.9,0.5C128.8,103.9,128.3,104.6,127.9,105.4z M15.2,103.1c-0.4-0.8-0.8-1.6-1.2-2.4l0.9-0.4
			c0.4,0.8,0.8,1.6,1.2,2.3L15.2,103.1z M130.4,100.7l-0.9-0.4c0.4-0.8,0.8-1.6,1.1-2.4l0.9,0.4C131.2,99.1,130.8,99.9,130.4,100.7z
			 M12.9,98.3c-0.4-0.8-0.7-1.6-1-2.5l0.9-0.4c0.3,0.8,0.7,1.6,1,2.4L12.9,98.3z M132.6,95.8l-0.9-0.4c0.3-0.8,0.6-1.6,0.9-2.5
			l0.9,0.3C133.2,94.1,132.9,94.9,132.6,95.8z M10.9,93.3c-0.3-0.8-0.6-1.7-0.8-2.5l1-0.3c0.3,0.8,0.5,1.7,0.8,2.5L10.9,93.3z
			 M134.3,90.7l-1-0.3c0.2-0.8,0.5-1.7,0.7-2.5l1,0.2C134.8,89,134.6,89.8,134.3,90.7z M9.4,88.2c-0.2-0.9-0.4-1.7-0.6-2.6l1-0.2
			c0.2,0.9,0.4,1.7,0.6,2.6L9.4,88.2z M135.7,85.5l-1-0.2c0.2-0.9,0.3-1.7,0.5-2.6l1,0.2C136,83.8,135.8,84.6,135.7,85.5z M8.3,83
			c-0.1-0.9-0.3-1.8-0.4-2.6l1-0.1c0.1,0.9,0.2,1.7,0.4,2.6L8.3,83z M136.5,80.2l-1-0.1c0.1-0.9,0.2-1.7,0.3-2.6l1,0.1
			C136.7,78.4,136.6,79.3,136.5,80.2z M7.6,77.7c-0.1-0.9-0.1-1.8-0.2-2.7l1,0c0,0.9,0.1,1.8,0.2,2.6L7.6,77.7z M137.1,74.9l-0.9,0
			c0-0.9,0.1-1.8,0.1-2.6v-0.5h1v0.5C137.3,73.1,137.2,74,137.1,74.9z M7.3,72.3L7.3,72.3c0-1,0-1.8,0.1-2.7l1,0
			c0,0.8-0.1,1.7-0.1,2.5L7.3,72.3z M136,69.4c0-0.9-0.1-1.8-0.2-2.6l1-0.1c0.1,0.9,0.1,1.8,0.2,2.7L136,69.4z M8.6,67l-1-0.1
			c0.1-0.9,0.2-1.8,0.3-2.7l1,0.1C8.8,65.3,8.7,66.2,8.6,67z M135.5,64.1c-0.1-0.9-0.2-1.7-0.4-2.6l1-0.2c0.1,0.9,0.3,1.8,0.4,2.6
			L135.5,64.1z M9.2,61.8l-1-0.2c0.1-0.9,0.3-1.8,0.5-2.6l1,0.2C9.5,60.1,9.4,60.9,9.2,61.8z M134.6,58.9c-0.2-0.9-0.4-1.7-0.6-2.6
			l1-0.2c0.2,0.9,0.4,1.7,0.6,2.6L134.6,58.9z M10.3,56.6l-1-0.2c0.2-0.9,0.5-1.7,0.7-2.6l1,0.3C10.8,54.9,10.5,55.8,10.3,56.6z
			 M133.3,53.8c-0.3-0.8-0.5-1.7-0.8-2.5l0.9-0.3c0.3,0.8,0.6,1.7,0.8,2.5L133.3,53.8z M11.8,51.6l-0.9-0.3c0.3-0.8,0.6-1.7,0.9-2.5
			l0.9,0.4C12.4,49.9,12.1,50.8,11.8,51.6z M131.6,48.8c-0.3-0.8-0.7-1.6-1-2.4l0.9-0.4c0.4,0.8,0.7,1.6,1,2.5L131.6,48.8z
			 M13.7,46.7l-0.9-0.4c0.4-0.8,0.7-1.6,1.1-2.4l0.9,0.4C14.4,45.1,14.1,45.9,13.7,46.7z M129.5,44c-0.4-0.8-0.8-1.6-1.2-2.3
			l0.9-0.5c0.4,0.8,0.8,1.6,1.2,2.4L129.5,44z M16,41.9l-0.9-0.5c0.4-0.8,0.9-1.6,1.3-2.3l0.9,0.5C16.9,40.4,16.5,41.1,16,41.9z
			 M127,39.4c-0.5-0.8-0.9-1.5-1.4-2.2l0.8-0.5c0.5,0.7,1,1.5,1.4,2.3L127,39.4z M18.7,37.4l-0.8-0.5c0.5-0.7,1-1.5,1.5-2.2l0.8,0.6
			C19.7,35.9,19.2,36.6,18.7,37.4z M124.1,35c-0.5-0.7-1-1.4-1.6-2.1l0.8-0.6c0.5,0.7,1.1,1.4,1.6,2.1L124.1,35z M21.8,33.1L21,32.5
			c0.5-0.7,1.1-1.4,1.7-2.1l0.8,0.6C22.9,31.7,22.3,32.4,21.8,33.1z M120.8,30.9c-0.6-0.7-1.2-1.3-1.8-2l0.7-0.7
			c0.6,0.7,1.2,1.3,1.8,2L120.8,30.9z M25.2,29.1l-0.7-0.7c0.6-0.7,1.2-1.3,1.9-1.9l0.7,0.7C26.4,27.8,25.8,28.4,25.2,29.1z
			 M117.2,27c-0.6-0.6-1.3-1.2-1.9-1.8l0.7-0.7c0.7,0.6,1.3,1.2,1.9,1.9L117.2,27z M28.9,25.3l-0.7-0.7c0.7-0.6,1.3-1.2,2-1.8
			l0.6,0.8C30.2,24.1,29.6,24.7,28.9,25.3z M113.3,23.4c-0.7-0.6-1.4-1.1-2.1-1.7l0.6-0.8c0.7,0.5,1.4,1.1,2.1,1.7L113.3,23.4z
			 M32.9,21.9l-0.6-0.8c0.7-0.5,1.4-1.1,2.1-1.6l0.6,0.8C34.3,20.8,33.6,21.4,32.9,21.9z M109.2,20.2c-0.7-0.5-1.4-1-2.2-1.5
			l0.5-0.8c0.7,0.5,1.5,1,2.2,1.5L109.2,20.2z M37.2,18.8L36.7,18c0.7-0.5,1.5-1,2.3-1.4l0.5,0.9C38.7,17.9,38,18.4,37.2,18.8z
			 M104.8,17.3c-0.8-0.4-1.5-0.9-2.3-1.3l0.5-0.9c0.8,0.4,1.6,0.9,2.3,1.3L104.8,17.3z M41.7,16.1l-0.5-0.9c0.8-0.4,1.6-0.8,2.4-1.2
			l0.4,0.9C43.3,15.3,42.5,15.7,41.7,16.1z M100.1,14.8c-0.8-0.4-1.6-0.8-2.4-1.1l0.4-0.9c0.8,0.4,1.6,0.7,2.4,1.1L100.1,14.8z
			 M46.5,13.8L46,12.9c0.8-0.4,1.6-0.7,2.5-1l0.4,0.9C48.1,13.1,47.3,13.5,46.5,13.8z M95.3,12.7c-0.8-0.3-1.6-0.6-2.5-0.9l0.3-0.9
			c0.8,0.3,1.7,0.6,2.5,0.9L95.3,12.7z M51.4,11.9L51,10.9c0.8-0.3,1.7-0.6,2.5-0.8l0.3,1C53,11.3,52.2,11.6,51.4,11.9z M90.3,11
			c-0.8-0.2-1.7-0.5-2.5-0.7l0.2-1c0.9,0.2,1.7,0.5,2.6,0.7L90.3,11z M56.4,10.4l-0.2-1C57,9.2,57.9,9,58.8,8.8l0.2,1
			C58.1,10,57.3,10.2,56.4,10.4z M85.2,9.7c-0.9-0.2-1.7-0.3-2.6-0.5l0.2-1c0.9,0.1,1.8,0.3,2.6,0.5L85.2,9.7z M61.6,9.3l-0.2-1
			C62.3,8.1,63.2,8,64,7.9l0.1,1C63.3,9,62.4,9.1,61.6,9.3z M80,8.9c-0.9-0.1-1.7-0.2-2.6-0.3l0.1-1c0.9,0.1,1.8,0.2,2.7,0.3L80,8.9
			z M66.8,8.6l-0.1-1c0.9-0.1,1.8-0.1,2.7-0.2l0,1C68.5,8.5,67.7,8.6,66.8,8.6z M74.7,8.6c-0.8,0-1.7,0.1-2.5,0.1h0.1v-1h-0.1
			c0.9,0,1.7-0.1,2.5,0L74.7,8.6z"/>
	</g>
	<g>
		<g>
			<path fill="#792323" d="M36.2,46.6h-1.7v-1.8c0-0.2,0-0.4-0.1-0.4c-0.1-0.1-0.2-0.1-0.4-0.1h-1c-0.2,0-0.4,0-0.5,0.1
				c-0.1,0.1-0.1,0.2-0.1,0.4v8.1c0,0.2,0,0.4,0.1,0.4c0.1,0.1,0.2,0.1,0.5,0.1h1c0.2,0,0.4,0,0.4-0.1c0.1-0.1,0.1-0.2,0.1-0.4V51
				h1.7v2c0,1.1-0.6,1.7-1.8,1.7h-2c-1.2,0-1.8-0.6-1.8-1.7v-8.5c0-1.1,0.6-1.7,1.8-1.7h2c1.2,0,1.8,0.6,1.8,1.7V46.6z"/>
			<path fill="#792323" d="M42.1,42.8h1.7v11.9h-1.7v-5.2h-2.5v5.2h-1.7V42.8h1.7v5.3h2.5V42.8z"/>
			<path fill="#792323" d="M47.5,53.3H51v1.4h-5.2V42.8h5v1.4h-3.3v3.7h2.7v1.4h-2.7V53.3z"/>
			<path fill="#792323" d="M57.8,46.6H56v-1.8c0-0.2,0-0.4-0.1-0.4c-0.1-0.1-0.2-0.1-0.4-0.1h-1c-0.2,0-0.4,0-0.5,0.1
				c-0.1,0.1-0.1,0.2-0.1,0.4v8.1c0,0.2,0,0.4,0.1,0.4c0.1,0.1,0.2,0.1,0.5,0.1h1c0.2,0,0.4,0,0.4-0.1c0.1-0.1,0.1-0.2,0.1-0.4V51
				h1.7v2c0,1.1-0.6,1.7-1.8,1.7h-2c-1.2,0-1.8-0.6-1.8-1.7v-8.5c0-1.1,0.6-1.7,1.8-1.7h2c1.2,0,1.8,0.6,1.8,1.7V46.6z"/>
			<path fill="#792323" d="M59.5,54.7V42.8h1.7v11.9H59.5z M65.6,42.8l-2.5,6l2.5,5.9h-1.9l-2.4-5.9l2.4-6H65.6z"/>
			<path fill="#792323" d="M71.2,42.8h2.1c1.2,0,1.8,0.6,1.8,1.7V53c0,1.1-0.6,1.7-1.8,1.7h-2.1c-1.2,0-1.8-0.6-1.8-1.7v-8.5
				C69.4,43.4,70,42.8,71.2,42.8z M73.4,52.8v-8c0-0.2,0-0.4-0.1-0.4c-0.1-0.1-0.2-0.1-0.5-0.1h-1.1c-0.2,0-0.4,0-0.4,0.1
				c-0.1,0.1-0.1,0.2-0.1,0.4v8c0,0.2,0,0.4,0.1,0.4c0.1,0.1,0.2,0.1,0.4,0.1h1.1c0.2,0,0.4,0,0.5-0.1C73.3,53.2,73.4,53,73.4,52.8z
				"/>
			<path fill="#792323" d="M80.9,42.8h1.7V53c0,1.1-0.6,1.7-1.8,1.7h-2.1c-1.2,0-1.8-0.6-1.8-1.7V42.8h1.7v10c0,0.2,0,0.4,0.1,0.4
				c0.1,0.1,0.2,0.1,0.5,0.1h1.1c0.2,0,0.4,0,0.5-0.1c0.1-0.1,0.1-0.2,0.1-0.4V42.8z"/>
			<path fill="#792323" d="M89.3,42.8v1.4h-2v10.5h-1.7V44.2h-2v-1.4H89.3z"/>
			<path fill="#792323" d="M94.8,42.8h2.1c1.2,0,1.8,0.6,1.8,1.7V53c0,1.1-0.6,1.7-1.8,1.7h-2.1c-1.2,0-1.8-0.6-1.8-1.7v-8.5
				C93.1,43.4,93.7,42.8,94.8,42.8z M97,52.8v-8c0-0.2,0-0.4-0.1-0.4c-0.1-0.1-0.2-0.1-0.5-0.1h-1.1c-0.2,0-0.4,0-0.4,0.1
				c-0.1,0.1-0.1,0.2-0.1,0.4v8c0,0.2,0,0.4,0.1,0.4c0.1,0.1,0.2,0.1,0.4,0.1h1.1c0.2,0,0.4,0,0.5-0.1C97,53.2,97,53,97,52.8z"/>
			<path fill="#792323" d="M104.5,42.8h1.7V53c0,1.1-0.6,1.7-1.8,1.7h-2.1c-1.2,0-1.8-0.6-1.8-1.7V42.8h1.7v10c0,0.2,0,0.4,0.1,0.4
				c0.1,0.1,0.2,0.1,0.5,0.1h1.1c0.2,0,0.4,0,0.5-0.1c0.1-0.1,0.1-0.2,0.1-0.4V42.8z"/>
			<path fill="#792323" d="M109.9,49.9v4.8h-1.7V42.8h3.9c1.2,0,1.8,0.6,1.8,1.7v3.7c0,1-0.4,1.5-1.3,1.7l1.9,4.8h-1.8l-1.8-4.8
				H109.9z M109.9,44.2v4.3h1.7c0.2,0,0.4,0,0.5-0.1c0.1-0.1,0.1-0.2,0.1-0.4v-3.2c0-0.2,0-0.4-0.1-0.4c-0.1-0.1-0.2-0.1-0.5-0.1
				H109.9z"/>
		</g>
	</g>
	<g>
		<path fill="#792323" d="M56,74.1h-8.7v-7.3c0-0.8-0.1-1.3-0.4-1.6c-0.3-0.3-0.8-0.4-1.6-0.4h-3.5c-0.8,0-1.3,0.1-1.6,0.4
			c-0.3,0.3-0.4,0.8-0.4,1.6v30.6c0,0.8,0.1,1.3,0.4,1.6c0.3,0.3,0.8,0.4,1.6,0.4h3.5c0.8,0,1.3-0.1,1.6-0.4
			c0.3-0.3,0.4-0.8,0.4-1.6v-7.2H56v8.1c0,4.9-2.7,7.4-8.1,7.4h-8.7c-5.4,0-8.1-2.5-8.1-7.4V65.9c0-4.9,2.7-7.4,8.1-7.4h8.7
			c5.4,0,8.1,2.5,8.1,7.4V74.1z"/>
		<path fill="#792323" d="M84.9,65.1H70.8v14.3h11.6v6.3H70.8v19.9h-8.7V58.5h22.9V65.1z"/>
		<path fill="#792323" d="M89.2,58.5h17.3c5.4,0,8.1,2.5,8.1,7.4v15c0,4.9-2.7,7.4-8.1,7.4h-8.7v17.3h-8.6V58.5z M106.1,79.7V67.1
			c0-0.8-0.1-1.3-0.4-1.6c-0.3-0.3-0.8-0.4-1.6-0.4h-6.2v16.7h6.2c0.8,0,1.3-0.1,1.6-0.4C105.9,81.1,106.1,80.5,106.1,79.7z"/>
	</g>
</g>
</svg>
