<?xml version="1.0" encoding="UTF-8" standalone="no"?>
<svg width="198px" height="214px" viewBox="0 0 198 214" version="1.1" xmlns="http://www.w3.org/2000/svg" xmlns:xlink="http://www.w3.org/1999/xlink" xmlns:sketch="http://www.bohemiancoding.com/sketch/ns">
    <!-- Generator: Sketch 3.3.2 (12043) - http://www.bohemiancoding.com/sketch -->
    <title>download_button</title>
    <desc>Created with Sketch.</desc>
    <defs></defs>
    <g id="app" stroke="none" stroke-width="1" fill="none" fill-rule="evenodd" sketch:type="MSPage">
        <g id="Mobile-Portrait" sketch:type="MSArtboardGroup" transform="translate(-61.000000, -453.000000)">
            <g id="download_button" sketch:type="MSLayerGroup" transform="translate(61.000000, 453.000000)">
                <g id="register-now-button-copy" sketch:type="MSShapeGroup">
                    <g>
                        <path d="M99.1347644,16.0323826 C44.5474084,16.0323826 0.295963351,60.2697579 0.295963351,114.839758 C0.295963351,169.409758 44.5474084,213.647133 99.1347644,213.647133 C153.721602,213.647133 197.973047,169.409758 197.973047,114.839758 C197.973047,60.2697579 153.721602,16.0323826 99.1347644,16.0323826" id="Fill-1" opacity="0.1" fill="#A02D2E"></path>
                        <path d="M197.973047,99.2949637 C197.973047,153.864964 153.721602,198.102339 99.1347644,198.102339 C44.5474084,198.102339 0.295963351,153.864964 0.295963351,99.2949637 C0.295963351,44.7254818 44.5474084,0.487588378 99.1347644,0.487588378 C153.721602,0.487588378 197.973047,44.7254818 197.973047,99.2949637" id="Fill-2" fill="#FFFFFF"></path>
                        <path d="M186.645581,99.1022082 C186.645581,99.16646 186.645581,99.2307119 186.646099,99.2949637 C186.645581,100.505903 186.62122,101.710625 186.572497,102.909646 L187.60811,102.951617 C187.657869,101.738605 187.68223,100.519893 187.68223,99.2949637 L187.68223,99.1001356 L186.645581,99.1022082 Z M186.336141,91.8795787 C186.436178,93.0760097 186.51289,94.2786586 186.564723,95.4880436 L187.600335,95.4434818 C187.547984,94.2201065 187.470754,93.0029492 187.369162,91.793046 L186.336141,91.8795787 Z M185.434775,84.7077288 C185.633812,85.8922421 185.808487,87.0845278 185.959319,88.284586 L186.988194,88.1555642 C186.835806,86.9415157 186.658539,85.7347215 186.457429,84.5362179 L185.434775,84.7077288 Z M183.943037,77.6353656 C184.240037,78.7996707 184.513194,79.9733027 184.762508,81.1562615 L185.776869,80.9422615 C185.524445,79.7458305 185.248178,78.5576901 184.94755,77.3793947 L183.943037,77.6353656 Z M181.868183,70.7111961 C182.261073,71.8475206 182.631157,72.9942082 182.977916,74.1517772 L183.971026,73.8543535 C183.62012,72.6833123 183.245372,71.5226344 182.848335,70.3723196 L181.868183,70.7111961 Z M179.228356,63.9916998 C179.71299,65.0891622 180.175853,66.1985424 180.616429,67.319322 L181.581031,66.9405472 C181.135272,65.8062954 180.667225,64.6839613 180.176372,63.5730266 L179.228356,63.9916998 Z M176.042215,57.5193656 C176.617037,58.574339 177.170607,59.6422663 177.702408,60.7231477 L178.632801,60.2656126 C178.09478,59.1717772 177.534471,58.0908959 176.952911,57.0234867 L176.042215,57.5193656 Z M172.330492,51.3278741 C172.990838,52.332586 173.630969,53.3523245 174.250885,54.3855351 L175.139812,53.8528668 C174.513157,52.8072203 173.865251,51.7755642 173.197131,50.7589346 L172.330492,51.3273559 L172.330492,51.3278741 Z M168.118586,45.4591961 C168.860309,46.4079467 169.582335,47.371724 170.285183,48.3505278 L171.127461,47.7463535 C170.416319,46.755632 169.685482,45.7804552 168.935466,44.8213414 L168.118586,45.4591961 Z M163.43656,39.9542663 C164.253958,40.8392833 165.053733,41.7408814 165.83433,42.6590605 L166.624257,41.9875254 C165.83433,41.0589831 165.025225,40.1465036 164.197979,39.2511235 L163.43656,39.9542663 Z M158.316031,34.8493559 C159.203921,35.6649395 160.075225,36.4986586 160.928906,37.349477 L161.66078,36.6157627 C160.797251,35.7545811 159.915581,34.9110169 159.017325,34.0861065 L158.316031,34.8493559 Z M152.791209,30.1802179 C153.744408,30.9206683 154.681021,31.6802906 155.602084,32.4580484 L156.271241,31.6668184 C155.339812,30.8797337 154.391796,30.1107845 153.427712,29.3620436 L152.791209,30.1802179 Z M146.898895,25.9794964 C147.910147,26.6391138 148.906885,27.3194576 149.888592,28.0194915 L150.490885,27.1754092 C149.497257,26.4676029 148.488597,25.7794867 147.465424,25.1115787 L146.898895,25.9794964 Z M140.676927,22.2777627 C141.74001,22.8518838 142.790136,23.4477676 143.826267,24.0643777 L144.356513,23.173661 C143.307942,22.5497966 142.245377,21.9471768 141.169335,21.3658015 L140.676927,22.2777627 Z M134.165733,19.1024794 C135.274429,19.5869588 136.370686,20.0942373 137.455021,20.6227603 L137.909073,19.691109 C136.812298,19.156368 135.703084,18.6433898 134.581429,18.1532107 L134.165733,19.1024794 Z M127.409372,16.4785182 C128.555906,16.8692107 129.691037,17.2832203 130.815801,17.7200291 L131.191068,16.7541792 C130.053346,16.3121889 128.90422,15.8929976 127.744209,15.4976416 L127.409372,16.4785182 Z M120.474707,14.4307506 C121.647157,14.7245472 122.809759,15.0421792 123.963031,15.3826102 L124.256921,14.3887797 C123.089654,14.0442034 121.913058,13.7229443 120.726613,13.4255206 L120.474707,14.4307506 Z M113.393356,12.9669492 C114.587058,13.1622954 115.772466,13.3819952 116.949063,13.6255303 L117.158984,12.6104552 C115.968393,12.3643293 114.76899,12.1420387 113.560775,11.9441017 L113.393356,12.9669492 Z M106.215597,12.0938499 C107.421738,12.1902276 108.621141,12.311477 109.813288,12.4560436 L109.938723,11.4274964 C108.732581,11.2808571 107.518665,11.1585714 106.29801,11.0606392 L106.215597,12.0938499 Z M98.9896335,11.8114528 L99.1347644,11.8114528 C100.296848,11.8114528 101.454267,11.8342518 102.605466,11.8788136 L102.645895,10.8435303 C101.48122,10.7979322 100.310325,10.7751332 99.1347644,10.7751332 L98.9880785,10.7751332 L98.9896335,11.8114528 Z M91.7641885,12.1171671 C92.961,12.0176804 94.1640314,11.9420291 95.373801,11.8907312 L95.3297435,10.8554479 C94.1059791,10.9072639 92.8889529,10.9834334 91.6781466,11.0844746 L91.7647068,12.1171671 L91.7641885,12.1171671 Z M84.5895393,13.0141017 C85.7744293,12.8161646 86.9670942,12.6415448 88.1680524,12.4917966 L88.0389895,11.4632494 C86.824555,11.6150702 85.6178953,11.7917627 84.4190105,11.9922906 L84.5895393,13.0141017 Z M77.5138901,14.5017385 C78.6790838,14.2058692 79.853089,13.9333172 81.0364241,13.6846005 L80.8233927,12.6700436 C79.6260628,12.9218692 78.4375445,13.1975303 77.2588743,13.4970266 L77.5138901,14.5017385 Z M70.5864817,16.5717869 C71.7236859,16.1800581 72.8712565,15.8106102 74.0286754,15.4644794 L73.7316754,14.4716852 C72.5602618,14.8219613 71.3992147,15.1955545 70.248534,15.5924649 L70.5864817,16.5717869 Z M63.8638115,19.2076659 C64.9621414,18.7237046 66.0718743,18.2615061 67.1935288,17.8215884 L66.8146335,16.8567748 C65.6800209,17.3018741 64.5568115,17.7692542 63.4455236,18.2594334 L63.8638115,19.2076659 Z M57.3873455,22.3886489 C58.4431728,21.8145278 59.5119581,21.2621695 60.5931832,20.7305375 L60.1360209,19.8004407 C59.0418377,20.3382906 57.9600942,20.897385 56.8923455,21.4782421 L57.3873455,22.3886489 Z M51.1918115,26.0960823 C52.1978796,25.4364649 53.2179424,24.7970557 54.252,24.1783729 L53.7196806,23.2886925 C52.6731832,23.9151477 51.6406806,24.5623293 50.6232094,25.2297191 L51.1918115,26.0960823 Z M45.319712,30.30354 C46.2682461,29.5625714 47.2328482,28.8407748 48.213,28.1391864 L47.6091518,27.2966586 C46.6175969,28.0070557 45.6415916,28.7371429 44.6816545,29.4864019 L45.319712,30.30354 Z M39.8099215,34.9809685 C40.6957382,34.1643487 41.5981414,33.3653462 42.5171309,32.5855157 L41.8459005,31.795322 C40.9160262,32.5844794 40.0032565,33.3928087 39.1070733,34.2192736 L39.8099215,34.9809685 Z M34.7007958,40.0967603 C35.5171571,39.2096707 36.3511414,38.3391622 37.203267,37.4862712 L36.4693194,36.7541114 C35.6078639,37.6168475 34.7635131,38.4977191 33.937822,39.3956901 L34.7007958,40.0972785 L34.7007958,40.0967603 Z M30.0270628,45.6172349 C30.768267,44.6653753 31.5286492,43.7290605 32.3076911,42.8088087 L31.5162094,42.1393462 C30.7278377,43.0704794 29.958644,44.0176755 29.2091466,44.9809346 L30.0270628,45.6172349 Z M25.8218953,51.5056029 C26.4822408,50.4951913 27.1633194,49.49877 27.8640942,48.5178935 L27.0202618,47.9157918 C26.3111937,48.908586 25.6223403,49.9164068 24.9542199,50.9387361 L25.8218953,51.5056029 Z M22.115356,57.7235206 C22.6906963,56.661293 23.287288,55.6115012 23.9046126,54.5762179 L23.0141309,54.0456223 C22.3890314,55.0933414 21.7857016,56.1550508 21.203623,57.2307506 L22.115356,57.7235206 Z M18.9354346,64.2305714 C19.4211047,63.1227458 19.9285445,62.0273559 20.4582723,60.9438838 L19.5268429,60.4889395 C18.9908953,61.5848475 18.4772356,62.6937094 17.9858639,63.8150073 L18.9354346,64.2305714 Z M16.3070105,70.9837482 C16.6988639,69.8380969 17.1135236,68.7028087 17.5509895,67.5794383 L16.5848325,67.2032542 C16.1421832,68.340615 15.7223403,69.4888571 15.325822,70.6484988 L16.3070105,70.9837482 Z M14.2549634,77.9151719 C14.5493717,76.7430944 14.867623,75.580862 15.2086806,74.4279564 L14.214534,74.1341598 C13.8693298,75.3005375 13.5474503,76.4767603 13.2494136,77.6628281 L14.2549634,77.9151719 Z M12.7865497,84.9932349 C12.9829948,83.800431 13.2032827,82.6153995 13.4474136,81.4391768 L12.4320157,81.2288039 C12.1852932,82.4190169 11.9624136,83.6180387 11.7638953,84.8248329 L12.7865497,84.9932349 Z M11.9090262,92.1681937 C12.0064712,90.9624358 12.1282775,89.763414 12.2739267,88.5716465 L11.2450524,88.4457337 C11.0973298,89.6514915 10.9744869,90.8650218 10.8760052,92.08477 L11.9090262,92.1681937 Z M11.622911,99.3913414 L11.622911,99.2949637 C11.622911,98.1166683 11.6462356,96.9440726 11.6923665,95.7771768 L10.6567539,95.7362421 C10.6101047,96.9166102 10.5862618,98.1031961 10.5862618,99.2949637 L10.5862618,99.3928959 L11.622911,99.3913414 Z M11.9250942,106.615007 C11.8260942,105.418576 11.7509372,104.215927 11.7006597,103.006542 L10.6645288,103.050068 C10.7158429,104.273443 10.7915183,105.490082 10.8920733,106.700504 L11.9250942,106.615007 Z M12.8181675,113.787893 C12.6206859,112.60338 12.4470471,111.410576 12.2977696,110.210518 L11.2688953,110.338504 C11.4202461,111.55307 11.5959581,112.759346 11.7955131,113.958368 L12.8181675,113.787893 Z M14.3021309,120.861811 C14.0066859,119.696988 13.7350838,118.523356 13.4868063,117.340397 L12.472445,117.552843 C12.7233141,118.749792 12.9985445,119.937932 13.2976178,121.116746 L14.3021309,120.861811 Z M16.3697277,127.788571 C15.9778743,126.651729 15.6093455,125.504005 15.263623,124.346436 L14.2705131,124.642823 C14.6198639,125.814383 14.9930576,126.975579 15.3895759,128.125893 L16.3692094,127.788571 L16.3697277,127.788571 Z M19.0022984,134.510659 C18.5187016,133.41216 18.0568743,132.30278 17.6178534,131.180964 L16.6522147,131.55922 C17.0969372,132.69399 17.5639476,133.816843 18.0532461,134.928295 L19.0022984,134.510659 Z M22.1806649,140.98662 C21.6073979,139.931128 21.0548639,138.862165 20.5240995,137.780765 L19.5931885,138.237264 C20.1301728,139.331617 20.689445,140.413017 21.2694503,141.480944 L22.1806649,140.98662 Z M25.8856492,147.182257 C25.2263403,146.17599 24.5872461,145.156252 23.9688848,144.122005 L23.0794398,144.653637 C23.7050576,145.70032 24.3514084,146.732494 25.0184921,147.75016 L25.8856492,147.182257 Z M30.0913351,153.054562 C29.3506492,152.105811 28.6291414,151.140998 27.9278482,150.161157 L27.0850524,150.764814 C27.7946387,151.756053 28.5244398,152.731748 29.2739372,153.692416 L30.0913351,153.054562 Z M34.7671414,158.565191 C33.9507801,157.679138 33.1520419,156.776504 32.3724817,155.857806 L31.5815183,156.528305 C32.3709267,157.457884 33.1784764,158.3714 34.0052042,159.267298 L34.7671414,158.565191 Z M39.8819686,163.675283 C38.9951152,162.859182 38.1248482,162.024426 37.2716859,161.172571 L36.5392932,161.905768 C37.4017853,162.767467 38.2824188,163.612068 39.1801571,164.438015 L39.8819686,163.675283 Z M45.4016073,168.350639 C44.449445,167.609153 43.5133508,166.849012 42.5933246,166.0697 L41.9231309,166.860412 C42.8540419,167.648533 43.8015393,168.418 44.7645864,169.168295 L45.4016073,168.350639 Z M51.2897749,172.558097 C50.2790419,171.896925 49.282822,171.215545 48.3016335,170.514993 L47.698822,171.357521 C48.6914136,172.066881 49.699555,172.756552 50.7222094,173.424978 L51.2897749,172.558097 Z M57.5075969,176.266567 C56.4445131,175.690891 55.3954241,175.093971 54.3598115,174.476324 L53.8285288,175.366523 C54.8765812,175.991424 55.9381099,176.595598 57.0136335,177.177492 L57.5075969,176.266567 Z M64.014644,179.448586 C62.9069843,178.96307 61.8107277,178.454755 60.7274293,177.925196 L60.271822,178.856329 C61.3680785,179.392107 62.4772932,179.906121 63.5984293,180.397855 L64.014644,179.448586 Z M70.7684136,182.08032 C69.6223979,181.688073 68.487267,181.273027 67.3635393,180.834663 L66.9872356,181.800513 C68.1244398,182.24354 69.2730471,182.663768 70.4325393,183.060678 L70.7684136,182.08032 Z M77.7010052,184.13586 C76.5290733,183.840508 75.3659529,183.52184 74.213199,183.180373 L73.9187906,184.173685 C75.0850209,184.519816 76.2616178,184.842111 77.4480628,185.140571 L77.7010052,184.13586 Z M84.7802827,185.607433 C83.5870995,185.410533 82.4022094,185.189797 81.2256126,184.945225 L81.0141361,185.959782 C82.2047277,186.206944 83.4041309,186.430789 84.6118272,186.629763 L84.7802827,185.607433 Z M91.9575236,186.488823 C90.7508639,186.390373 89.5514607,186.268605 88.3598325,186.121966 L88.2333613,187.150513 C89.4395026,187.298707 90.6529005,187.422547 91.873555,187.521516 L91.9575236,186.488823 Z M99.1829686,186.778475 L99.1342461,186.778475 C97.9395079,186.778475 96.7504712,186.754639 95.5671361,186.706969 L95.5256702,187.74277 C96.7224817,187.790441 97.9255131,187.814794 99.1347644,187.814794 L99.1829686,187.814794 L99.1829686,186.778475 Z M106.408932,186.480533 C105.21212,186.578983 104.009089,186.653598 102.799319,186.703341 L102.841822,187.738625 C104.065586,187.688363 105.283131,187.61323 106.493937,187.513743 L106.408932,186.480533 Z M113.584099,185.591889 C112.399209,185.788271 111.206545,185.961337 110.005586,186.110048 L110.133094,187.138596 C111.348047,186.988329 112.555225,186.813191 113.75411,186.6137 L113.584618,185.591889 L113.584099,185.591889 Z M120.661822,184.112024 C119.49611,184.406339 118.321586,184.677855 117.138251,184.925535 L117.350764,185.939574 C118.548094,185.689303 119.736613,185.414678 120.915801,185.116736 L120.661822,184.112024 Z M127.591304,182.04923 C126.454099,182.439923 125.30601,182.807816 124.148073,183.15291 L124.444037,184.146223 C125.615969,183.796983 126.777534,183.424944 127.928733,183.02907 L127.591304,182.04923 Z M134.317084,179.421123 C133.218754,179.904048 132.107984,180.364692 130.98633,180.803574 L131.36367,181.768387 C132.498801,181.324843 133.622529,180.858499 134.734335,180.369874 L134.317084,179.421123 Z M140.797178,176.247395 C139.740832,176.819961 138.671529,177.371801 137.589267,177.901361 L138.045393,178.831976 C139.140613,178.29568 140.222356,177.737622 141.291141,177.15832 L140.797178,176.247395 Z M146.996859,172.546697 C145.990272,173.205278 144.969173,173.843651 143.934597,174.461298 L144.46588,175.350978 C145.512895,174.726077 146.545916,174.079932 147.564424,173.413579 L146.996859,172.546697 Z M152.873623,168.345976 C151.924052,169.08539 150.958414,169.80615 149.977743,170.50722 L150.580555,171.349748 C151.573147,170.640906 152.54967,169.911855 153.510644,169.163632 L152.873623,168.345976 Z M158.388079,163.674247 C157.501743,164.490349 156.598304,165.287797 155.678277,166.067109 L156.34899,166.857821 C157.279382,166.069182 158.193188,165.262407 159.090408,164.436978 L158.388079,163.674247 Z M163.502906,158.564155 C162.685508,159.450208 161.850487,160.31968 160.997843,161.172053 L161.730754,161.904731 C162.593246,161.043031 163.438115,160.163196 164.264843,159.266262 L163.502906,158.564155 Z M168.18234,153.048862 C167.440618,154.000203 166.679199,154.935482 165.89912,155.854697 L166.689565,156.525196 C167.478974,155.595099 168.249204,154.648421 168.999738,153.686199 L168.18234,153.048862 Z M172.394246,147.165157 C171.732864,148.175051 171.050749,149.170436 170.348937,150.150794 L171.191733,150.753932 C171.901838,149.761656 172.592246,148.754872 173.261403,147.733061 L172.394246,147.165157 Z M176.107524,140.950867 C175.531147,142.013094 174.933518,143.06185 174.315157,144.096615 L175.20512,144.628247 C175.830738,143.581046 176.435623,142.519855 177.018738,141.445191 L176.107524,140.950867 Z M179.294702,134.447443 C178.807995,135.554751 178.299,136.65014 177.768236,137.733094 L178.699147,138.189075 C179.236131,137.093167 179.751346,135.984823 180.243754,134.864562 L179.294702,134.447443 Z M181.930901,127.697893 C181.537492,128.843027 181.121277,129.977278 180.682775,131.100649 L181.648414,131.477869 C182.092618,130.341027 182.513497,129.192785 182.911052,128.034179 L181.930901,127.697893 Z M183.990204,120.768542 C183.694759,121.940102 183.374953,123.102334 183.032859,124.254722 L184.026487,124.549554 C184.372728,123.383695 184.696162,122.207472 184.995236,121.021923 L183.990204,120.768542 Z M185.466393,113.692034 C185.268911,114.884838 185.047068,116.069869 184.801901,117.245574 L185.81678,117.456983 C186.065058,116.267288 186.289492,115.068266 186.489047,113.861472 L185.466393,113.692034 Z M186.351691,106.518111 C186.253209,107.723869 186.130366,108.922891 185.983162,110.11414 L187.012037,110.24109 C187.160796,109.035332 187.285194,107.82232 187.38523,106.602053 L186.351691,106.518111 Z" id="Fill-3" fill="#BA2B32"></path>
                        <path d="M37.1234286,58.0179145 L45.4074286,58.0179145 C47.7634404,58.0179145 48.9414286,59.13257 48.9414286,61.3619145 L48.9414286,78.4619145 C48.9414286,80.6912589 47.7634404,81.8059145 45.4074286,81.8059145 L37.1234286,81.8059145 L37.1234286,58.0179145 Z M45.4834286,78.0059145 L45.4834286,61.8179145 C45.4834286,61.3619122 45.4074293,61.0642485 45.2554286,60.9249145 C45.1034278,60.7855804 44.7994309,60.7159145 44.3434286,60.7159145 L40.5814286,60.7159145 L40.5814286,79.1079145 L44.3434286,79.1079145 C44.7994309,79.1079145 45.1034278,79.0382485 45.2554286,78.8989145 C45.4074293,78.7595804 45.4834286,78.4619167 45.4834286,78.0059145 L45.4834286,78.0059145 Z M56.0854286,58.0179145 L60.3034286,58.0179145 C62.6594404,58.0179145 63.8374286,59.13257 63.8374286,61.3619145 L63.8374286,78.4619145 C63.8374286,80.6912589 62.6594404,81.8059145 60.3034286,81.8059145 L56.0854286,81.8059145 C53.7040833,81.8059145 52.5134286,80.6912589 52.5134286,78.4619145 L52.5134286,61.3619145 C52.5134286,59.13257 53.7040833,58.0179145 56.0854286,58.0179145 L56.0854286,58.0179145 Z M60.4174286,77.9299145 L60.4174286,61.8939145 C60.4174286,61.4379122 60.3414293,61.1402485 60.1894286,61.0009145 C60.0374278,60.8615804 59.7334309,60.7919145 59.2774286,60.7919145 L57.0734286,60.7919145 C56.6174263,60.7919145 56.3197626,60.8615804 56.1804286,61.0009145 C56.0410945,61.1402485 55.9714286,61.4379122 55.9714286,61.8939145 L55.9714286,77.9299145 C55.9714286,78.3859167 56.0410945,78.6835804 56.1804286,78.8229145 C56.3197626,78.9622485 56.6174263,79.0319145 57.0734286,79.0319145 L59.2774286,79.0319145 C59.7334309,79.0319145 60.0374278,78.9622485 60.1894286,78.8229145 C60.3414293,78.6835804 60.4174286,78.3859167 60.4174286,77.9299145 L60.4174286,77.9299145 Z M84.9654286,58.0179145 L88.4234286,58.0179145 L84.6234286,81.8059145 L79.8734286,81.8059145 L77.2134286,63.9459145 L74.5914286,81.8059145 L69.8414286,81.8059145 L66.0414286,58.0179145 L69.5754286,58.0179145 L72.2354286,78.6899145 L75.3134286,58.0179145 L79.1134286,58.0179145 L82.1914286,78.6899145 L84.9654286,58.0179145 Z M99.2534286,58.0179145 L102.407429,58.0179145 L102.407429,81.8059145 L98.9494286,81.8059145 L93.9334286,64.6299145 L93.9334286,81.8059145 L90.7794286,81.8059145 L90.7794286,58.0179145 L94.3894286,58.0179145 L99.2534286,74.6999145 L99.2534286,58.0179145 Z M109.779429,79.0319145 L115.669429,79.0319145 L115.669429,81.8059145 L106.359429,81.8059145 L106.359429,58.0179145 L109.779429,58.0179145 L109.779429,79.0319145 Z M121.179429,58.0179145 L125.397429,58.0179145 C127.75344,58.0179145 128.931429,59.13257 128.931429,61.3619145 L128.931429,78.4619145 C128.931429,80.6912589 127.75344,81.8059145 125.397429,81.8059145 L121.179429,81.8059145 C118.798083,81.8059145 117.607429,80.6912589 117.607429,78.4619145 L117.607429,61.3619145 C117.607429,59.13257 118.798083,58.0179145 121.179429,58.0179145 L121.179429,58.0179145 Z M125.511429,77.9299145 L125.511429,61.8939145 C125.511429,61.4379122 125.435429,61.1402485 125.283429,61.0009145 C125.131428,60.8615804 124.827431,60.7919145 124.371429,60.7919145 L122.167429,60.7919145 C121.711426,60.7919145 121.413763,60.8615804 121.274429,61.0009145 C121.135095,61.1402485 121.065429,61.4379122 121.065429,61.8939145 L121.065429,77.9299145 C121.065429,78.3859167 121.135095,78.6835804 121.274429,78.8229145 C121.413763,78.9622485 121.711426,79.0319145 122.167429,79.0319145 L124.371429,79.0319145 C124.827431,79.0319145 125.131428,78.9622485 125.283429,78.8229145 C125.435429,78.6835804 125.511429,78.3859167 125.511429,77.9299145 L125.511429,77.9299145 Z M141.471429,81.8059145 L140.521429,76.2959145 L135.505429,76.2959145 L134.631429,81.8059145 L131.211429,81.8059145 L135.429429,58.0179145 L140.407429,58.0179145 L144.929429,81.8059145 L141.471429,81.8059145 Z M135.923429,73.5219145 L140.065429,73.5219145 L137.899429,60.9819145 L135.923429,73.5219145 Z M147.437429,58.0179145 L155.721429,58.0179145 C158.07744,58.0179145 159.255429,59.13257 159.255429,61.3619145 L159.255429,78.4619145 C159.255429,80.6912589 158.07744,81.8059145 155.721429,81.8059145 L147.437429,81.8059145 L147.437429,58.0179145 Z M155.797429,78.0059145 L155.797429,61.8179145 C155.797429,61.3619122 155.721429,61.0642485 155.569429,60.9249145 C155.417428,60.7855804 155.113431,60.7159145 154.657429,60.7159145 L150.895429,60.7159145 L150.895429,79.1079145 L154.657429,79.1079145 C155.113431,79.1079145 155.417428,79.0382485 155.569429,78.8989145 C155.721429,78.7595804 155.797429,78.4619167 155.797429,78.0059145 L155.797429,78.0059145 Z" id="DOWNLOAD" fill="#A02D2E"></path>
                        <path d="M55.8908959,92.0211527 L64.9875176,92.0211527 L64.9875176,141.933921 L55.8908959,141.933921 L55.8908959,120.655736 L45.6077583,120.655736 L45.6077583,141.933921 L36.5111365,141.933921 L36.5111365,92.0211527 L45.6077583,92.0211527 L45.6077583,113.694843 L55.8908959,113.694843 L55.8908959,92.0211527 Z M81.756942,134.973028 L96.9443453,134.973028 L96.9443453,141.933921 L72.5812192,141.933921 L72.5812192,92.0211527 L96.3115368,92.0211527 L96.3115368,98.9820459 L81.756942,98.9820459 L81.756942,112.824731 L94.0176061,112.824731 L94.0176061,119.864725 L81.756942,119.864725 L81.756942,134.973028 Z M111.261637,122.47506 L111.261637,141.933921 L102.165015,141.933921 L102.165015,92.0211527 L120.516461,92.0211527 C126.2645,92.0211527 129.138476,94.6314616 129.138476,99.8521575 L129.138476,114.644055 C129.138476,118.968268 127.213703,121.499477 123.364099,122.237757 L131.66971,141.933921 L121.861179,141.933921 L114.267477,122.47506 L111.261637,122.47506 Z M111.261637,98.9820459 L111.261637,115.75147 L117.827025,115.75147 C118.670774,115.75147 119.250842,115.606453 119.567248,115.316414 C119.883654,115.026376 120.041854,114.459491 120.041854,113.615742 L120.041854,101.117774 C120.041854,100.274026 119.883654,99.7071404 119.567248,99.4171017 C119.250842,99.1270631 118.670774,98.9820459 117.827025,98.9820459 L111.261637,98.9820459 Z M145.354193,134.973028 L160.541596,134.973028 L160.541596,141.933921 L136.17847,141.933921 L136.17847,92.0211527 L159.908788,92.0211527 L159.908788,98.9820459 L145.354193,98.9820459 L145.354193,112.824731 L157.614857,112.824731 L157.614857,119.864725 L145.354193,119.864725 L145.354193,134.973028 Z" id="HERE" fill="#A02D2E"></path>
                    </g>
                </g>
            </g>
        </g>
    </g>
</svg>