<svg id="Layer_1" data-name="Layer 1" xmlns="http://www.w3.org/2000/svg" xmlns:xlink="http://www.w3.org/1999/xlink" viewBox="0 0 480 307.21"><defs><style>.cls-1,.cls-101,.cls-79,.cls-83,.cls-84,.cls-85,.cls-97,.cls-99{fill:none;}.cls-2{clip-path:url(#clip-path);}.cls-3{clip-path:url(#clip-path-2);}.cls-100,.cls-4{opacity:0.4;}.cls-5,.cls-71{fill:#4c76ba;}.cls-6,.cls-68,.cls-75,.cls-77{opacity:0.5;}.cls-7{opacity:0.9;}.cls-8{opacity:0.6;}.cls-9{opacity:0.7;}.cls-10,.cls-71{opacity:0.8;}.cls-11{fill:#314a7d;}.cls-12{fill:#243f76;}.cls-13{fill:#eceef8;}.cls-14{fill:#5d94ba;}.cls-15{fill:#283994;}.cls-16{fill:#3d5388;}.cls-17{fill:#4260ac;}.cls-18{fill:#38308a;}.cls-19{fill:#545458;}.cls-20{fill:#3a3a3e;}.cls-21{fill:#14133e;}.cls-22{fill:#23285c;}.cls-23{fill:#1b3866;}.cls-24{fill:#4c8381;}.cls-25{fill:#2b367f;}.cls-26{fill:#27163f;}.cls-27{fill:#6767af;}.cls-28{fill:#5c4c9f;}.cls-29{fill:#27a0b0;}.cls-30{fill:#4e8dcb;}.cls-31{fill:#f9ed38;}.cls-32{fill:#4fb848;}.cls-33,.cls-87,.cls-93{opacity:0.2;}.cls-34{fill:#010101;}.cls-35{fill:#2e5592;}.cls-36{fill:#27316c;}.cls-37{fill:#88bcd8;}.cls-38{fill:#446494;}.cls-39{fill:#8c8a98;}.cls-40{fill:#4f4c50;}.cls-41{fill:#39489e;}.cls-42{fill:#bee5eb;}.cls-43{fill:#50a5db;}.cls-44{fill:#61b6dd;}.cls-45{fill:#35508f;}.cls-46{fill:#243770;}.cls-47{fill:#424a7f;}.cls-48{fill:#cdebef;}.cls-49{fill:#1d3766;}.cls-50{fill:#308d89;}.cls-51{fill:#edebe5;}.cls-52{fill:#414340;}.cls-53{fill:#2d7fc3;}.cls-54{fill:#323431;}.cls-55{fill:#77c6ef;}.cls-56{fill:#b4cdeb;}.cls-57{fill:#2f3743;}.cls-58{fill:#98abd8;}.cls-59{fill:#adc0e4;}.cls-60{fill:#4350a2;}.cls-61{fill:#101238;}.cls-62{fill:#67675f;}.cls-63{fill:#79abd0;}.cls-64{fill:#babecc;}.cls-65{fill:#131042;}.cls-66{fill:#736458;}.cls-67{fill:#8a7a70;}.cls-68{fill:#574d45;}.cls-69{fill:#5c4e46;}.cls-70{fill:#ffdfb8;}.cls-72{fill:#fedbb6;}.cls-73{fill:#ecad9c;}.cls-74{fill:#0599b9;}.cls-75{fill:#02738e;}.cls-76{fill:#e3e5e5;}.cls-77,.cls-86{fill:#8c93a0;}.cls-78{fill:#e55354;}.cls-79,.cls-97{stroke:#9a1b1f;}.cls-101,.cls-79,.cls-83,.cls-84,.cls-85,.cls-97,.cls-99{stroke-miterlimit:10;}.cls-101,.cls-79,.cls-97,.cls-99{stroke-width:1.22px;}.cls-80,.cls-92{fill:#9a1b1f;}.cls-102,.cls-80,.cls-88{opacity:0.1;}.cls-81{fill:#ee7267;}.cls-82{fill:#eead9f;opacity:0.3;}.cls-83,.cls-84,.cls-85{stroke:#736458;}.cls-83{stroke-width:2px;}.cls-84{stroke-width:2.56px;}.cls-85{stroke-width:2.38px;}.cls-87,.cls-88{fill:#60656e;}.cls-89{fill:#fff;}.cls-90{fill:#fce1b6;}.cls-91{fill:#fff4e7;}.cls-92{opacity:0.05;}.cls-93,.cls-94{fill:#9c1c1f;}.cls-95{fill:#34c0cb;}.cls-96{fill:#57c5cd;}.cls-97,.cls-99{stroke-dasharray:4.88;}.cls-98{fill:#fec44b;}.cls-99{stroke:#f2b12e;}.cls-100{fill:#fcd978;}.cls-101{stroke:#d93b33;}.cls-103{fill:#a77d52;}.cls-104{fill:#ffe5cc;}.cls-105{fill:#f6d3a9;}.cls-106{fill:#73625a;}</style><clipPath id="clip-path"><rect class="cls-1" x="0.76" y="0.61" width="479.24" height="306.6"/></clipPath><clipPath id="clip-path-2"><rect class="cls-1" x="0.76" y="74.21" width="479.24" height="248.92"/></clipPath></defs><title>futuro_home_about</title><g class="cls-2"><g id="Lines"><g class="cls-3"><g class="cls-4"><polygon class="cls-5" points="56.59 164.21 10.42 157.98 -212.4 167.35 -188.3 174.51 56.59 164.21"/></g><g class="cls-6"><polygon class="cls-5" points="157.24 177.78 111.07 171.55 -159.86 182.96 -135.76 190.11 157.24 177.78"/></g><polygon class="cls-5" points="102.81 260.95 149.49 274.82 614.74 245.48 569.92 239.43 102.81 260.95"/><g class="cls-7"><polygon class="cls-5" points="469.27 225.86 50.27 245.35 74.37 252.51 515.44 232.08 469.27 225.86"/></g><g class="cls-8"><polygon class="cls-5" points="257.88 191.36 211.72 185.13 -107.33 198.56 -83.23 205.71 257.88 191.36"/></g><g class="cls-9"><polygon class="cls-5" points="358.53 204.93 312.36 198.71 -54.79 214.16 -30.7 221.31 358.53 204.93"/></g><g class="cls-10"><polygon class="cls-5" points="459.18 218.51 413.01 212.28 -2.26 229.75 21.84 236.91 459.18 218.51"/></g></g></g><path class="cls-11" d="M413.32,175c2.93,0,14.42-.76,17.55-.76,13.12,0,26.45,19.78,26.45,41.27S447.2,253,434.08,253H416.66c-13.12,0-23.73-16.44-24.93-37.9C390.38,191,400.21,175,413.32,175Z"/><path class="cls-12" d="M391.73,215.13c1.2,21.46,11.81,37.9,24.93,37.9s23.25-16.07,23.25-37.57S426.44,175,413.32,175,390.38,191,391.73,215.13Z"/><polygon class="cls-13" points="68.53 116.13 61.68 108.7 34.85 107.18 28.99 145.03 49.74 145.03 68.53 116.13"/><polygon class="cls-14" points="34.85 107.18 56.07 135.29 49.74 145.03 28.99 145.03 34.85 107.18"/><path class="cls-15" d="M53.74,49l-4-5.71,48.82-11.7c8.85-7.71,33.4-13.42,37.68-14.56s5.42.57,5.42.57c9.14,0,27.69,5.14,30,6.28a5.94,5.94,0,0,1,2.85,3.71l-1.71,1.43c-4,27.41-10.85,34.83-11.42,38.25S170.5,109,170.5,109l-43.68-.57-9.71-39.68L83.71,46.18l-19.1,4L62.87,47Z"/><path class="cls-16" d="M65.44,50.18s4,8.26,6,10.28c.86.86,55.67-2.85,55.67-2.85C130,57,141.66,52.18,142.81,51a22.05,22.05,0,0,0,3.43-6.85,29.55,29.55,0,0,0,0-5.14l1.14-1.71c.57-.86,3.43.29,4.57-2l-4.28-2.28a8.64,8.64,0,0,1-5.42,2.85c-3.71.57-5.14,4-15.42,2.85S65.44,50.18,65.44,50.18Z"/><path class="cls-17" d="M113.89,39.9c5.31-.47,10.5-1.41,12.93-1.14,10.28,1.14,11.7-2.28,15.42-2.85a8.64,8.64,0,0,0,5.42-2.85l4.28,2.28c-1.14,2.28-4,1.14-4.57,2L146.23,39a29.55,29.55,0,0,1,0,5.14A22.05,22.05,0,0,1,142.81,51c-1.14,1.14-12.85,6-15.7,6.57,0,0-11.49-3.78-12.2-9.49s-3.58-5.93-3.58-5.93Z"/><path class="cls-18" d="M65.73,51.32c10.28-2.85,59.67-11.7,59.67-11.7C136,41.61,141.95,37,141.95,37a11.83,11.83,0,0,0,6.28-2.85S159.65,39,160.79,41c0,0-1.71,17.41-7.42,19.13s-32.83,5.42-32.83,5.42-3.37.56-10.28-6.85l-13.13.86,19.41,14.56s34.55-7.09,38.25-7.71c3.43-.57,10-23.54,8.85-25.41-1.71-2.85-16-9.71-16-9.71C144.8,35,141.38,35,141.38,35c-6.57,5.14-16,2.28-16,2.28s-2.28-.86-10.85,1.14S64,49,64,49,64.87,51.61,65.73,51.32Z"/><path class="cls-19" d="M66,117S38.6,128.69,30.9,133.54a55.84,55.84,0,0,0-11.75,9.56H29.8s3.66-5.85,5.95-7.85,25.12-12,25.12-12Z"/><path class="cls-20" d="M63.87,119.41s-20.55,8.28-28.26,13.13S25.33,143.1,25.33,143.1H29.8s3.66-5.85,5.95-7.85,25.12-12,25.12-12Z"/><path class="cls-21" d="M203.57,182.93s-44.06-12.15-43.06,43l-119-23.4s-5.62-35.4-13-30.07-10,7-10.82,28.93l-4.59-4s-3.81-15.23,0-30.07,18.94-18.46,24.12-7l168.67,11.11Z"/><path class="cls-12" d="M29.55,166.16H44.21c7.23,0,13.09,14.71,13.09,32.87s-5.86,32.87-13.09,32.87H29.55c-7.23,0-13.09-14.71-13.09-32.87S22.32,166.16,29.55,166.16Z"/><path class="cls-22" d="M155.94,222.33s2.28,20.55,3.43,21.13,5.71,0,5.71,0v4.85s-2.28.29-7.42-.86S51.45,223.75,50,221.18s-3.43-17.7-3.43-17.7Z"/><path class="cls-23" d="M155.94,222.33s2.28,20.55,3.43,21.13,5.71,0,5.71,0v-2.07s-3.35.79-3.57-1-3.14-18.49-3.14-18.49Z"/><path class="cls-12" d="M184.78,175.58c3.6,0,17.73-.93,21.58-.93,16.13,0,32.51,24.32,32.51,50.74s-12.45,46.18-28.58,46.18H188.88c-16.13,0-29.17-20.22-30.65-46.6C156.57,195.36,168.65,175.58,184.78,175.58Z"/><path class="cls-24" d="M18.19,206.48l-1.86-.14s-7-52.1,12-46.53A8.37,8.37,0,0,0,21,163.94C15.05,173.65,17.05,197.35,18.19,206.48Z"/><path class="cls-25" d="M146.52,147.19l-14.17-37.42s-33.51-.79-42.07.64S67.72,127.26,60,140.11s-5.14,29.12-5.14,29.12c2.57,14,18.56,38.25,18.56,38.25l51.59,9,1.79-38.58Z"/><path class="cls-17" d="M66.65,147.17c-.91-8.37,22-28.83,26.69-29.69s39.54-.5,39.54-.5L137.8,130s-6.16,8.41-9,16.77c-3.47,10.09,4.14,19.82,4.14,19.82-2.48,9.12-6.95,10.87-6.95,10.87l-1.48,28.76s-23.42-3.19-33-4.4c-9.37-1.19-7.16-16.84-7.16-20.15s-3.35-11-5.78-15.2S67.63,156.14,66.65,147.17Z"/><path class="cls-26" d="M126.64,154a2.53,2.53,0,0,1-2.53-2.53V130.36a2.53,2.53,0,0,1,2.53-2.53H137l.83,2.21s-6.16,8.41-9,16.77a17.27,17.27,0,0,0-.83,7.14Z"/><path class="cls-27" d="M128.32,148.38v-18a2.53,2.53,0,0,1,2.53-2.53H137l.83,2.21s-6.16,8.41-9,16.77C128.59,147.34,128.44,147.86,128.32,148.38Z"/><polygon class="cls-28" points="82.19 125.41 82.19 157.28 98.73 157.28 98.73 124.69 83.05 124.69 82.19 125.41"/><polygon class="cls-29" points="96.34 126.83 96.34 128.23 94.08 128.25 94.08 126.83 96.34 126.83"/><polygon class="cls-30" points="96.34 128.12 96.34 129.52 94.08 129.53 94.08 128.12 96.34 128.12"/><polygon class="cls-31" points="96.34 129.47 96.34 135.65 94.08 135.72 94.08 129.47 96.34 129.47"/><rect class="cls-32" x="94.08" y="135.38" width="2.26" height="14.02"/><polygon class="cls-29" points="93.19 126.83 93.19 128.23 90.93 128.25 90.93 126.83 93.19 126.83"/><polygon class="cls-30" points="93.19 128.12 93.19 129.52 90.93 129.53 90.93 128.12 93.19 128.12"/><polygon class="cls-31" points="93.19 129.47 93.19 135.65 90.93 135.72 90.93 129.47 93.19 129.47"/><rect class="cls-32" x="90.93" y="135.38" width="2.26" height="14.02"/><polygon class="cls-29" points="90.1 126.83 90.1 128.23 87.84 128.25 87.84 126.83 90.1 126.83"/><polygon class="cls-30" points="90.1 128.12 90.1 129.52 87.84 129.53 87.84 128.12 90.1 128.12"/><polygon class="cls-31" points="90.1 129.47 90.1 135.65 87.84 135.72 87.84 129.47 90.1 129.47"/><rect class="cls-32" x="87.84" y="135.38" width="2.26" height="14.02"/><polygon class="cls-29" points="86.92 126.83 86.92 128.23 84.66 128.25 84.66 126.83 86.92 126.83"/><polygon class="cls-30" points="86.92 128.12 86.92 129.52 84.66 129.53 84.66 128.12 86.92 128.12"/><polygon class="cls-31" points="86.92 129.47 86.92 135.65 84.66 135.72 84.66 129.47 86.92 129.47"/><rect class="cls-32" x="84.66" y="135.38" width="2.26" height="14.02"/><g class="cls-33"><path class="cls-34" d="M66.65,147.17c1,9,9.49,15.18,11.92,19.34s5.78,11.9,5.78,15.2-2.21,19,7.16,20.15c9.55,1.21,33,4.4,33,4.4L126,177.5s4.47-1.75,6.95-10.87c0,0-7.6-9.73-4.14-19.82,2.87-8.37,9-16.77,9-16.77L132.89,117s-34.83-.36-39.54.5A14.1,14.1,0,0,0,89,119.85l4,.55s-11.21,15-15.27,23.77H68.51s.8-3.7,4.59-9.42C69.14,139.48,66.32,144.13,66.65,147.17ZM92,149.46,98.7,126h18.41v23.41Z"/></g><path class="cls-35" d="M122.2,153.19s3.54-18.44-13.3-18.44S91.85,142,92.06,146.82a29.93,29.93,0,0,0,1.64,8.49s-9,2.78-7.78,10.49c0,0,10.47,35.4,15.54,38.68l25.12,3.64,1.52-29.43,8-10.09S129.53,152.52,122.2,153.19Z"/><path class="cls-36" d="M93.7,155.31a29.93,29.93,0,0,1-1.64-8.49c-.21-4.78,0-12.06,16.84-12.06,0,0-11.35.64-11,8.35s1.57,11.15,1.57,11.15S95.72,154.15,93.7,155.31Z"/><path class="cls-36" d="M93.7,155.31s8.13-2.64,10.32,15.11c1.56,12.61,7.9,11.42,14.08,37.07l8.66,1.57,3.66-33.29s-2.85-2.39-3.18-9.17c-.58-11.9-5-13.39-5-13.39s-1.24,1.4-19.86,1.19C102.34,154.38,95.92,153.74,93.7,155.31Z"/><path class="cls-36" d="M93.7,155.31s-9,2.78-7.78,10.49c0,0,10.47,35.4,15.54,38.68l7.37,1.33A141.82,141.82,0,0,1,97.32,182.5C94.27,174.29,87.47,158.81,93.7,155.31Z"/><polygon class="cls-37" points="125.91 212.79 81.19 204.91 72.11 205.91 73.42 208.56 124.11 217.74 125.91 212.79"/><polygon class="cls-38" points="125.52 205.93 93.61 201.44 90.09 202.15 90.25 205.53 124.76 212.59 125.52 205.93"/><polygon class="cls-35" points="125.52 205.93 93.61 201.44 90.09 202.15 125.3 207.82 125.52 205.93"/><polygon class="cls-13" points="26.16 142.79 48.99 142.79 48.99 137.81 35.43 137.81 26.16 142.38 26.16 142.79"/><rect class="cls-39" x="26.16" y="142.38" width="22.83" height="0.41" transform="translate(-1.19 0.32) rotate(-0.48)"/><path class="cls-40" d="M39.19,136.69,43,135.27V138h0c.18.41-.53,1.11-1.58,1.57s-2,.51-2.23.1l0-1.69Z"/><ellipse class="cls-13" cx="41.12" cy="135.98" rx="2.08" ry="0.8" transform="translate(-51.37 28.15) rotate(-23.79)"/><path class="cls-40" d="M40.48,135.35l1.09-.4v.74h0c0,.12-.21.26-.45.38a.59.59,0,0,1-.64,0Z"/><ellipse class="cls-13" cx="41.03" cy="135.15" rx="0.59" ry="0.23" transform="translate(-51.04 28.04) rotate(-23.79)"/><path class="cls-40" d="M44.43,136.69l3.86-1.43V138h0c.18.41-.53,1.11-1.58,1.57s-2,.51-2.23.1l0-1.69Z"/><ellipse class="cls-13" cx="46.37" cy="135.98" rx="2.08" ry="0.8" transform="translate(-50.92 30.26) rotate(-23.79)"/><path class="cls-40" d="M45.73,135.35l1.09-.4v.74h0c0,.12-.21.26-.45.38a.59.59,0,0,1-.64,0Z"/><ellipse class="cls-13" cx="46.28" cy="135.15" rx="0.59" ry="0.23" transform="translate(-50.59 30.16) rotate(-23.79)"/><path class="cls-41" d="M17.48,142.68s24.55.78,26.84-.86c1-.71,23.55-30.12,30.69-33.54s151.89,2,159.73,3.28c8.61,1.45,71.09,32,71.09,32s141.31,17.13,149,22c4.76,3,10.56,19.41,10.56,19.41,2,.57,3.71,1.71,3.71,4v19.41s-180.71,28.26-197,21.13l-46,3.43s-13.42-54.24-42-57.38-30,32-28.26,46.82l-32-4.62L126,177.5l3.14-4,16.21-29.29L132.36,110.4s-34.61-1.23-42.09,0c-8.56,1.43-22.55,16.84-30.26,29.69s-5.14,29.12-5.14,29.12c2.57,14,19.22,39.47,19.22,39.47l-27.5-5.21c-4.57-17.7-6.05-40.1-18.27-43.68-19-5.57-12,46.53-12,46.53l-2.85-1.14c-2.85-1.71-5.42-20.27-7.71-32.55S17.48,142.68,17.48,142.68Z"/><path class="cls-15" d="M123.89,217.7,126,177.5l3.14-4,16.21-29.29,131.81,24.91-7.9,33.64L298,227.42l-25.84,2-46,3.43s-7.07-28.57-21.86-45.44l-.06-.07-.22-.25a42.45,42.45,0,0,0-9.69-8.18,27.11,27.11,0,0,0-6-2.61l.73.15a17.67,17.67,0,0,0-4.32-.92h0a24,24,0,0,1,3.59.77l-3.83-.77q-.75,0-1.47,0c.72-.07,1.14-.07,1.14-.07-28.55-3.14-30,32-28.26,46.82Z"/><path class="cls-25" d="M439.27,161.87c8.46,1.5,14.18,2.77,15.57,3.65,4.76,3,10.56,19.41,10.56,19.41,2,.57,3.71,1.71,3.71,4v4.35s-152.89,13.15-162.87,12.35-39-3-39-3-.65-6.57-.24-7.21,1.7-1.53,2.16-2.61,6.54-22.26,7.92-23.68S439.27,161.87,439.27,161.87Z"/><path class="cls-22" d="M432.57,211.48l7.19,5.14a1.62,1.62,0,0,1,.66,1.54l-1,7c-.5,4.35,2.85,4.85,4,6s3.71,3.71-3.14,4.85-123.91,20.67-145,20.84c-17.84.14-45.82-1.57-56.1-1.57-5.71,0-15.56-18.7-15.27-23Z"/><path class="cls-22" d="M299.18,197.44c36.89,2.35,158.79-9.79,158.79-9.79l-1.81-20-157,6Z"/><path class="cls-42" d="M343.28,173.65l-18.2.73a1.37,1.37,0,0,0-1.27,1.42l.48,16.92a1.36,1.36,0,0,0,1.45,1.33l18.2-1.23a1.37,1.37,0,0,0,1.23-1.42L344.69,175A1.36,1.36,0,0,0,343.28,173.65Z"/><path class="cls-43" d="M320.51,174.68l-18.41.74a1.38,1.38,0,0,0-1.28,1.43l.49,17.1a1.37,1.37,0,0,0,1.47,1.35L321.18,194a1.38,1.38,0,0,0,1.25-1.43L321.94,176A1.37,1.37,0,0,0,320.51,174.68Z"/><path class="cls-11" d="M16.46,199c0,18.15,5.61,32.87,12.53,32.87S41.52,217.17,41.52,199s-5.4-32.87-12.32-32.87S16.46,180.87,16.46,199Z"/><ellipse class="cls-44" cx="28.47" cy="200.63" rx="8.71" ry="22.84"/><path class="cls-45" d="M263.85,203.48,263,219.76l49.39,5.71s147-12.28,162.15-18.84V193.78L402,200.91s-89.36,8.28-98.21,6.57Z"/><path class="cls-23" d="M256.66,226.08V197.45a22.76,22.76,0,0,1,9-.82v28.12S260.43,224.47,256.66,226.08Z"/><path class="cls-46" d="M425.29,213.62s-.36,15.19-2.14,16.13c-2.43,1.28-94.64,14.7-98.35,12.13s-5.14-18.27-5.14-18.27Z"/><path class="cls-45" d="M64.87,208.12l57.45,10.78V224L64.87,213.24a2.63,2.63,0,0,1-2.56-2.56A2.56,2.56,0,0,1,64.87,208.12Z"/><circle class="cls-47" cx="122.32" cy="221.48" r="2.56"/><path class="cls-37" d="M308.43,204.44c-6.28.17-46-3.52-46-3.52a3.29,3.29,0,0,0-.29,4.28s42.48,4.67,45.39,4.57c67.09-2.28,161.58-14,161.58-14s8.56-.57,8.56-3.43c0-3.43-7-2.89-7-2.89l-.05,2.51C456.55,193.78,335.28,203.72,308.43,204.44Z"/><path class="cls-37" d="M474.54,204.34s3.14-.57,3.14,2c0,1.86-2.71,2.33-2.71,2.33-17.75,4.95-54.35,9-68.09,10.23,0,0-87.36,8.85-99.35,8s-44.82-4.28-44.82-4.28-1.57-2.71.29-4.57c0,0,40.75,3.74,45.11,4,10.85.64,95.26-7.46,94.07-7.53C402.17,214.51,472.82,207.71,474.54,204.34Z"/><path class="cls-43" d="M454.76,169.23l-11.33.59a1,1,0,0,0-.79,1.14l.3,13.59c0,.63.43,1.12.9,1.07l11.33-1a1,1,0,0,0,.77-1.14l-.3-13.18C455.63,169.68,455.23,169.19,454.76,169.23Z"/><path class="cls-42" d="M440.6,170.05l-11.46.6a1.05,1.05,0,0,0-.8,1.17l.3,13.93c0,.65.43,1.15.91,1.1l11.46-1a1.07,1.07,0,0,0,.78-1.17l-.3-13.51C441.47,170.52,441.07,170,440.6,170.05Z"/><polygon class="cls-45" points="350.22 173.23 351.44 196.27 359.54 197.74 434.52 191.31 429.1 169.48 350.22 173.23"/><polygon class="cls-46" points="350.22 173.23 359.54 197.74 351.44 196.27 350.22 173.23"/><path class="cls-23" d="M184.2,175.51c-28.55-3.14-30,32-28.26,46.82l2.43-.43s-2-17.7,3.71-31.4C168.29,175.58,184.2,175.51,184.2,175.51Z"/><path class="cls-11" d="M158.23,225c1.48,26.38,14.52,46.6,30.65,46.6s28.58-19.76,28.58-46.18-16.56-49.81-32.68-49.81S156.57,195.36,158.23,225Z"/><path class="cls-44" d="M167.35,225.92c1,17.15,9.44,30.29,19.92,30.29s18.58-12.84,18.58-30-10.65-33-21.13-33S166.28,206.67,167.35,225.92Z"/><polygon class="cls-38" points="265.71 196.63 260 197.92 215.89 191.78 222.88 190.83 265.71 196.63"/><path class="cls-48" d="M149.32,143.47,135.7,110.36s89.59,2.42,98.66,3c5.5.36,64,30.17,64,30.17Z"/><polygon class="cls-35" points="216.03 220.47 260.43 228.03 260 197.92 215.89 191.78 216.03 220.47"/><path class="cls-49" d="M245.1,224.41l7.25.91a1.4,1.4,0,0,0,1.37-1.42V200a1.4,1.4,0,0,0-1.37-1.42l-7.25-.91a1.4,1.4,0,0,0-1.37,1.42V223A1.4,1.4,0,0,0,245.1,224.41Z"/><path class="cls-49" d="M221.46,210.88l11.15,1.45a1,1,0,0,0,1.12-1V197.11a1,1,0,0,0-.9-1l-11.15-1.26a1,1,0,0,0-1.07,1v14A1,1,0,0,0,221.46,210.88Z"/><ellipse class="cls-50" cx="189.82" cy="226.3" rx="8.42" ry="13.63"/><path class="cls-50" d="M34.47,191c.84,0,1.61.75,2.22,2a57.25,57.25,0,0,1,.49,7.58c0,1.91-.09,3.76-.26,5.53-.63,1.57-1.5,2.54-2.45,2.54-1.93,0-3.5-4-3.5-8.83S32.53,191,34.47,191Z"/><path class="cls-51" d="M401.62,179.82q-.08-1,.62-1.09l4.22-.32.16,2.08-3.17.24,0,.52,3.17-.24.16,2.08-4.22.32q-.7.05-.78-1Z"/><path class="cls-51" d="M394.36,180.38q-.08-1,.62-1.09l5.28-.41a.59.59,0,0,1,.54.24,1.38,1.38,0,0,1,.24.74l.28,3.64-1.76.14-.2-2.59-.7.05.2,2.59-1.76.14-.2-2.59-.7.05.2,2.59-1.76.14Z"/><path class="cls-51" d="M389,182.36l3.16-.24,0-.52-3.16.24-.16-2.08,4.22-.33a.49.49,0,0,1,.27.06.8.8,0,0,1,.24.2,1.21,1.21,0,0,1,.18.32,1.37,1.37,0,0,1,.09.4l.2,2.6a1.27,1.27,0,0,1,0,.39,1.25,1.25,0,0,1-.14.35.89.89,0,0,1-.21.25.45.45,0,0,1-.25.11l-4.22.33Z"/><path class="cls-52" d="M406.26,202c-.13-1.19-.64-3.69-2.64-4a5,5,0,0,1,3.4-.27c1.36.38,1.93,2.6,2.15,3.81a1.44,1.44,0,0,1-.43,1.3l0,0a1.45,1.45,0,0,1-1.85.13h0A1.45,1.45,0,0,1,406.26,202Z"/><path class="cls-53" d="M404.71,197.66a4.62,4.62,0,0,1,1.13-.09c.31,0,2,.49,2.4,3.18.11.73.21,1.61-.27,1.7s-.57-1-.68-1.58-.63-3.08-2.57-3.21"/><path class="cls-52" d="M416.3,201.11c-.13-1.19-.64-3.69-2.64-4a5,5,0,0,1,3.4-.27c1.36.38,1.93,2.6,2.15,3.81a1.44,1.44,0,0,1-.43,1.3l0,0a1.45,1.45,0,0,1-1.85.13h0A1.45,1.45,0,0,1,416.3,201.11Z"/><path class="cls-53" d="M414.74,196.78a4.62,4.62,0,0,1,1.13-.09c.31,0,2,.49,2.4,3.18.11.73.21,1.61-.27,1.7s-.57-1-.68-1.58-.63-3.08-2.57-3.21"/><path class="cls-54" d="M336.64,207c-.13-1.19-.64-3.69-2.64-4a5,5,0,0,1,3.4-.27c1.36.38,1.93,2.6,2.15,3.81a1.44,1.44,0,0,1-.43,1.3l0,0a1.45,1.45,0,0,1-1.85.13h0A1.45,1.45,0,0,1,336.64,207Z"/><path class="cls-53" d="M335.09,202.65a4.62,4.62,0,0,1,1.13-.09c.31,0,2,.49,2.4,3.18.11.73.21,1.61-.27,1.7s-.57-1-.68-1.58-.63-3.08-2.57-3.21"/><path class="cls-52" d="M439.45,199.14c-.13-1.19-.64-3.69-2.64-4a5,5,0,0,1,3.4-.27c1.36.38,1.93,2.6,2.15,3.81a1.44,1.44,0,0,1-.43,1.3l0,0a1.45,1.45,0,0,1-1.85.13h0A1.45,1.45,0,0,1,439.45,199.14Z"/><path class="cls-53" d="M437.9,194.8a4.62,4.62,0,0,1,1.13-.09c.31,0,2,.49,2.4,3.18.11.73.21,1.61-.27,1.7s-.57-1-.68-1.58-.63-3.08-2.57-3.21"/><path class="cls-52" d="M466.16,206.65c.14,1.19.21,3.74-1.67,4.48a5,5,0,0,0,3.38-.51c1.23-.68,1.3-3,1.23-4.19a1.44,1.44,0,0,0-.71-1.17l-.05,0a1.45,1.45,0,0,0-1.83.29h0A1.45,1.45,0,0,0,466.16,206.65Z"/><path class="cls-53" d="M465.63,211.22a4.62,4.62,0,0,0,1.12-.16c.3-.08,1.83-.93,1.62-3.64-.06-.73-.16-1.61-.65-1.6s-.33,1.08-.3,1.69.09,3.14-1.78,3.7"/><path class="cls-54" d="M291.79,207.46c-.07-1.2-.52-3.33,1.41-3.94a4.07,4.07,0,0,0-3.4,0c-1.27.6-.94,2.79-1,4a1.44,1.44,0,0,0,.63,1.21l.05,0a1.45,1.45,0,0,0,1.84-.17h0A1.45,1.45,0,0,0,291.79,207.46Z"/><path class="cls-53" d="M292.31,203.21a3.85,3.85,0,0,0-1.11-.08c-.31,0-1.6.71-1.56,3.43,0,.73.05,1.63.55,1.63s.36-1.06.37-1.67S290.41,203.65,292.31,203.21Z"/><path class="cls-52" d="M268.54,205.54c-.07-1.2-.52-3.33,1.41-3.94a4.07,4.07,0,0,0-3.4,0c-1.27.6-.94,2.79-1,4a1.44,1.44,0,0,0,.63,1.21l.05,0a1.45,1.45,0,0,0,1.84-.17h0A1.45,1.45,0,0,0,268.54,205.54Z"/><path class="cls-53" d="M269.06,201.28a3.85,3.85,0,0,0-1.11-.08c-.31,0-1.6.71-1.56,3.43,0,.73.05,1.63.55,1.63s.36-1.06.37-1.67S267.15,201.73,269.06,201.28Z"/><circle class="cls-55" cx="313.36" cy="186.07" r="6.3"/><ellipse class="cls-55" cx="449.8" cy="178.45" rx="4.31" ry="5.05"/><path class="cls-52" d="M425.86,193.09s9.74-1,10.73-.45c2.46,1.44,2.78,4.87,2.78,4.87l-5.77.45s-1.22-2.33-1.59-2.3l-5.92.46h0a1.51,1.51,0,0,1-.23-3Z"/><path class="cls-54" d="M424.47,194.71a1.51,1.51,0,0,1,.12-.72s6.76-.61,7.28-.51c2.91.55,3.59,4.33,3.59,4.33l-1.86.14s-1.22-2.33-1.59-2.3l-5.92.46h0A1.51,1.51,0,0,1,424.47,194.71Z"/><path class="cls-52" d="M375.56,197s9.78-.59,10.74,0c2.4,1.55,2.56,5,2.56,5l-5.79.19s-1.12-2.38-1.49-2.37l-5.93.19h0a1.51,1.51,0,0,1-.1-3Z"/><path class="cls-54" d="M374.1,198.53a1.51,1.51,0,0,1,.15-.72s6.78-.31,7.3-.18c2.88.68,3.39,4.48,3.39,4.48l-1.86.06s-1.12-2.38-1.49-2.37l-5.93.19h0A1.51,1.51,0,0,1,374.1,198.53Z"/><path class="cls-52" d="M378,204c-.13-1.19-.64-3.69-2.64-4a5,5,0,0,1,3.4-.27c1.36.38,1.93,2.6,2.15,3.81a1.44,1.44,0,0,1-.43,1.3l0,0a1.45,1.45,0,0,1-1.85.13h0A1.45,1.45,0,0,1,378,204Z"/><path class="cls-53" d="M376.48,199.7a4.62,4.62,0,0,1,1.13-.09c.31,0,2,.49,2.4,3.18.11.73.21,1.61-.27,1.7s-.57-1-.68-1.58-.63-3.08-2.57-3.21"/><path class="cls-52" d="M461.47,190s9.71-1.29,10.72-.74c2.5,1.37,2.91,4.79,2.91,4.79l-5.76.6s-1.29-2.29-1.65-2.26l-5.9.62h0a1.51,1.51,0,1,1-.31-3Z"/><path class="cls-54" d="M460.12,191.63a1.51,1.51,0,0,1,.1-.72s6.74-.79,7.27-.71c2.92.47,3.7,4.23,3.7,4.23l-1.85.19s-1.29-2.29-1.65-2.26l-5.9.62h0A1.51,1.51,0,0,1,460.12,191.63Z"/><path class="cls-52" d="M465.87,196.72c-.13-1.19-.64-3.69-2.64-4a5,5,0,0,1,3.4-.27c1.36.38,1.93,2.6,2.15,3.81a1.44,1.44,0,0,1-.43,1.3l0,0a1.45,1.45,0,0,1-1.85.13h0A1.45,1.45,0,0,1,465.87,196.72Z"/><path class="cls-53" d="M464.32,192.39a4.62,4.62,0,0,1,1.13-.09c.31,0,2,.49,2.4,3.18.11.73.21,1.61-.27,1.7s-.57-1-.68-1.58-.63-3.08-2.57-3.21"/><path class="cls-52" d="M319.67,201s9.78-.56,10.74.07c2.39,1.56,2.54,5,2.54,5l-5.79.17s-1.11-2.38-1.48-2.37l-5.93.17h0a1.51,1.51,0,1,1-.09-3Z"/><path class="cls-54" d="M318.2,202.54a1.51,1.51,0,0,1,.16-.71s6.78-.28,7.3-.16c2.88.69,3.37,4.5,3.37,4.5l-1.86.05s-1.11-2.38-1.48-2.37l-5.93.17h0A1.51,1.51,0,0,1,318.2,202.54Z"/><path class="cls-54" d="M320.67,207.92c-.13-1.19-.64-3.69-2.64-4a5,5,0,0,1,3.4-.27c1.36.38,1.93,2.6,2.15,3.81a1.44,1.44,0,0,1-.43,1.3l0,0a1.45,1.45,0,0,1-1.85.13h0A1.45,1.45,0,0,1,320.67,207.92Z"/><path class="cls-53" d="M319.12,203.59a4.62,4.62,0,0,1,1.13-.09c.31,0,2,.49,2.4,3.18.11.73.21,1.61-.27,1.7s-.57-1-.68-1.58-.63-3.08-2.57-3.21"/><path class="cls-56" d="M229.45,143.5l-80.13,0L135.7,110.36s20.91.57,40.6,1.13Z"/><path class="cls-22" d="M58.54,141.49l.64.14c14.24-23.52,26.2-30.37,31.09-31.21,0,0,5.67-1.43,42.09,0l1.18,3.08s-39.12-.61-41.84.36c-14.7,5.21-28.83,28.62-28.83,28.62-1.71,2.16-.44,13.55,6.71,20.84C79.14,173,80.93,180.64,80,190.57a38.77,38.77,0,0,0,1.19,14.35l-8.83.9S55.72,184.38,54.47,170,55,147.77,58.54,141.49Z"/><path class="cls-15" d="M60,140.11c-7.71,12.85-5.14,29.12-5.14,29.12,2.57,14,19.22,39.47,19.22,39.47l-27.5-5.21c-4.57-17.7-6.05-40.1-18.27-43.68-19-5.57-12,46.53-12,46.53l-2.85-1.14c-2.85-1.71-5.42-20.27-7.71-32.55s11.7-30,11.7-30,24.55.78,26.84-.86Z"/><path class="cls-52" d="M440,210.86c.14,1.19.21,3.74-1.67,4.48a5,5,0,0,0,3.38-.51c1.23-.68,1.3-3,1.23-4.19a1.44,1.44,0,0,0-.71-1.17l-.05,0a1.45,1.45,0,0,0-1.83.29h0A1.45,1.45,0,0,0,440,210.86Z"/><path class="cls-53" d="M439.43,215.43a4.62,4.62,0,0,0,1.12-.16c.3-.08,1.83-.93,1.62-3.64-.06-.73-.16-1.61-.65-1.6s-.33,1.08-.3,1.69.09,3.14-1.78,3.7"/><path class="cls-52" d="M416.75,213.64c.14,1.19.21,3.74-1.67,4.48a5,5,0,0,0,3.38-.51c1.23-.68,1.3-3,1.23-4.19a1.44,1.44,0,0,0-.71-1.17l-.05,0a1.45,1.45,0,0,0-1.83.29h0A1.45,1.45,0,0,0,416.75,213.64Z"/><path class="cls-53" d="M416.21,218.22a4.62,4.62,0,0,0,1.12-.16c.3-.08,1.83-.93,1.62-3.64-.06-.73-.16-1.61-.65-1.6s-.33,1.08-.3,1.69.09,3.14-1.78,3.7"/><path class="cls-52" d="M406.56,214.64c.14,1.19.21,3.74-1.67,4.48a5,5,0,0,0,3.38-.51c1.23-.68,1.3-3,1.23-4.19a1.44,1.44,0,0,0-.71-1.17l-.05,0a1.45,1.45,0,0,0-1.83.29h0A1.45,1.45,0,0,0,406.56,214.64Z"/><path class="cls-53" d="M406,219.22a4.62,4.62,0,0,0,1.12-.16c.3-.08,1.83-.93,1.62-3.64-.06-.73-.16-1.61-.65-1.6s-.33,1.08-.3,1.69.09,3.14-1.78,3.7"/><path class="cls-52" d="M378.41,217.53c.14,1.19.21,3.74-1.67,4.48a5,5,0,0,0,3.38-.51c1.23-.68,1.3-3,1.23-4.19a1.44,1.44,0,0,0-.71-1.17l-.05,0a1.45,1.45,0,0,0-1.83.29h0A1.45,1.45,0,0,0,378.41,217.53Z"/><path class="cls-53" d="M377.87,222.11a4.62,4.62,0,0,0,1.12-.16c.3-.08,1.83-.93,1.62-3.64-.06-.73-.16-1.61-.65-1.6s-.33,1.08-.3,1.69.09,3.14-1.78,3.7"/><path class="cls-52" d="M336.65,221.44c-.08,1.2-.48,3.72-2.46,4.09a5,5,0,0,0,3.41.12c1.34-.44,1.82-2.68,2-3.9a1.44,1.44,0,0,0-.48-1.28l0,0a1.45,1.45,0,0,0-1.85,0h0A1.45,1.45,0,0,0,336.65,221.44Z"/><path class="cls-53" d="M335.29,225.84a4.62,4.62,0,0,0,1.13,0c.31,0,2-.58,2.26-3.28.08-.73.14-1.61-.35-1.69s-.52,1-.61,1.61-.49,3.11-2.43,3.32"/><path class="cls-52" d="M320.66,222.28c.05,1.2-.07,3.75-2,4.34a5,5,0,0,0,3.41-.25c1.28-.58,1.52-2.86,1.55-4.09a1.44,1.44,0,0,0-.62-1.22l-.05,0a1.45,1.45,0,0,0-1.84.15h0A1.45,1.45,0,0,0,320.66,222.28Z"/><path class="cls-53" d="M319.78,226.8a4.62,4.62,0,0,0,1.13-.08c.31-.06,1.89-.79,1.89-3.51,0-.73,0-1.62-.53-1.64s-.41,1-.43,1.67-.15,3.14-2.06,3.56"/><path class="cls-54" d="M290.65,221.41c-.25,1.17-1,3.21.8,4.11a4.07,4.07,0,0,1-3.37-.47c-1.17-.78-.51-2.9-.34-4.11a1.44,1.44,0,0,1,.81-1.1l.06,0a1.45,1.45,0,0,1,1.8.45h0A1.45,1.45,0,0,1,290.65,221.41Z"/><path class="cls-53" d="M290.53,225.69a3.85,3.85,0,0,1-1.11-.09c-.3-.09-1.48-.94-1-3.62.12-.72.3-1.61.79-1.53s.2,1.1.12,1.71S288.71,225,290.53,225.69Z"/><path class="cls-52" d="M267,219c-.25,1.17-1,3.21.8,4.11a4.07,4.07,0,0,1-3.37-.47c-1.17-.78-.51-2.9-.34-4.11a1.44,1.44,0,0,1,.81-1.1l.06,0a1.45,1.45,0,0,1,1.8.45h0A1.45,1.45,0,0,1,267,219Z"/><path class="cls-53" d="M266.91,223.31a3.85,3.85,0,0,1-1.11-.09c-.3-.09-1.48-.94-1-3.62.12-.72.3-1.61.79-1.53s.2,1.1.12,1.71S265.1,222.59,266.91,223.31Z"/><path class="cls-56" d="M210.93,112.56c11.12.35,21,.65,23.44.81,5.5.36,64,30.17,64,30.17H262.47Z"/><path class="cls-48" d="M151.7,35.74c3.46,1.6,8.37,4,9.09,5.31,0,0-1.71,17.41-7.42,19.13s-32.83,5.42-32.83,5.42-3.37.56-10.28-6.85L127.1,57.6C130,57,141.66,52.18,142.81,51a22.05,22.05,0,0,0,3.43-6.85,29.55,29.55,0,0,0,0-5.14l1.14-1.71C147.91,36.53,150.44,37.46,151.7,35.74Z"/><path class="cls-41" d="M136.24,17.06C132,18.2,107.41,23.91,98.56,31.62L47.38,43.92l-.79-1.8A8.25,8.25,0,0,1,49.74,39a62.69,62.69,0,0,1,13.18-4.9s64.14-15.87,71.85-17.43Z"/><polygon class="cls-57" points="136.65 16.96 135.96 15.83 63.35 33.34 62.44 34.54 133.29 17.36 133.45 17.78 136.65 16.96"/><path class="cls-58" d="M112.65,142.91q0-.45.37-.44h2.22v.89h-1.67v.22h1.67v.89H113q-.37,0-.37-.45Z"/><path class="cls-58" d="M108.83,142.9q0-.45.37-.44H112a.33.33,0,0,1,.27.12.51.51,0,0,1,.1.33v1.56h-.92v-1.11h-.37v1.11h-.93v-1.11h-.37v1.11h-.92Z"/><path class="cls-58" d="M105.93,143.57h1.67v-.22h-1.67v-.89h2.22a.3.3,0,0,1,.14,0,.39.39,0,0,1,.12.1.48.48,0,0,1,.08.14.5.5,0,0,1,0,.17V144a.45.45,0,0,1,0,.17.51.51,0,0,1-.09.14.44.44,0,0,1-.12.1.28.28,0,0,1-.13,0h-2.22Z"/><path class="cls-59" d="M401.62,179.82q-.08-1,.62-1.09l4.22-.32.16,2.08-3.17.24,0,.52,3.17-.24.16,2.08-4.22.32q-.7.05-.78-1Z"/><path class="cls-59" d="M394.36,180.38q-.08-1,.62-1.09l5.28-.41a.59.59,0,0,1,.54.24,1.38,1.38,0,0,1,.24.74l.28,3.64-1.76.14-.2-2.59-.7.05.2,2.59-1.76.14-.2-2.59-.7.05.2,2.59-1.76.14Z"/><path class="cls-59" d="M389,182.36l3.16-.24,0-.52-3.16.24-.16-2.08,4.22-.33a.49.49,0,0,1,.27.06.8.8,0,0,1,.24.2,1.21,1.21,0,0,1,.18.32,1.37,1.37,0,0,1,.09.4l.2,2.6a1.27,1.27,0,0,1,0,.39,1.25,1.25,0,0,1-.14.35.89.89,0,0,1-.21.25.45.45,0,0,1-.25.11l-4.22.33Z"/><polygon class="cls-60" points="125.69 182.86 160.94 187.21 163.6 183.2 125.87 178.96 125.69 182.86"/><path class="cls-59" d="M112.65,142.91q0-.45.37-.44h2.22v.89h-1.67v.22h1.67v.89H113q-.37,0-.37-.45Z"/><path class="cls-59" d="M108.83,142.9q0-.45.37-.44H112a.33.33,0,0,1,.27.12.51.51,0,0,1,.1.33v1.56h-.92v-1.11h-.37v1.11h-.93v-1.11h-.37v1.11h-.92Z"/><path class="cls-59" d="M105.93,143.57h1.67v-.22h-1.67v-.89h2.22a.3.3,0,0,1,.14,0,.39.39,0,0,1,.12.1.48.48,0,0,1,.08.14.5.5,0,0,1,0,.17V144a.45.45,0,0,1,0,.17.51.51,0,0,1-.09.14.44.44,0,0,1-.12.1.28.28,0,0,1-.13,0h-2.22Z"/><polygon class="cls-52" points="244.4 194.87 254.62 196.37 255.06 196.13 255.06 189.77 245.06 189.07 244.4 189.43 244.4 194.87"/><path class="cls-61" d="M119.76,221.48a2.55,2.55,0,0,1,.95-2c19,4.23,24.63-27.63,27.67-38.37s23.65-17.89,35.39-18.64c17.52-1.11,21.34,18.83,32.73,22.43s24.94-17.11,33.6-15.64c9.21,1.57,2,17.78,2,17.78l-3.55-.31s5.1-10.38,1.3-13.78c-3.48-3.12-17,17.91-32.35,16.11-12.45-1.46-14.85-14.42-26.13-21.2-10.17-6.11-36.58,6.32-39.11,14.17-2.63,8.15-10.25,46.47-31.79,41.16A2.55,2.55,0,0,1,119.76,221.48Z"/><polygon class="cls-62" points="247.39 186.58 252.83 187.04 252.75 187.78 252.17 187.74 251.96 189.79 247.68 189.47 247.91 187.39 247.31 187.31 247.39 186.58"/><path class="cls-37" d="M126.59,107.48s-42.46-.71-45,.39C72.2,112,48.5,153.24,40.75,154.33s-24.48-2-26.56-1.34c-7.62,2.25-4.91,26.48-.13,49.46,0,0,.32,1.38,3.12,1.12l.06,1.79s-3.85.65-4.81-2.45c-1.39-4.5-11-49.53,1-52.05,3.83-.81,22.92,2.35,27,.56,7.74-3.43,29.57-41.24,40.28-46,3.43-1.53,46.37-.25,46.37-.25l-.94.3Z"/><polygon class="cls-60" points="55.27 171.03 37.6 169.05 38.91 172.11 56.21 174.25 55.27 171.03"/><path class="cls-17" d="M115.4,73S122,94.14,122,97.85a8.34,8.34,0,0,0,3.71,7.42c2,1.48,26-.89,32.41-1.55a2.42,2.42,0,0,0,2.18-2.29c.26-5.77-3.13-21.13-4.33-24.71s-1.39-8.91-.1-11.43c0,0-1.9-2.56-1.61-4.28.13-.78,0-1.15-.34-1.29S122,65.31,120.54,65.31a4.52,4.52,0,0,0-4.28,2.85A10.36,10.36,0,0,0,115.4,73"/><path class="cls-16" d="M148.86,60.58s4.71-1,5.07-.83.43.52.3,1.27c-.29,1.71,1.61,4.28,1.61,4.28-1.28,2.51-1.09,7.86.1,11.43s4.58,18.94,4.33,24.71a2.42,2.42,0,0,1-2.18,2.29l-3.85.39s-3.51-3.4-2.3-9.61-2.78-23.62-2.78-23.62S146.2,62.35,148.86,60.58Z"/><path class="cls-60" d="M104.27,107.26a1.38,1.38,0,0,0,1.2.36c.29,0,.92-.22.91-1.69,0-.47,0-1.64-1.27-1.63-.85,0-.89.41-.89.41A4.34,4.34,0,0,1,104.27,107.26Z"/><path class="cls-63" d="M105.42,104.33a2.55,2.55,0,0,1,.5,1.64,4.06,4.06,0,0,1-.39,1.65,2.42,2.42,0,0,1-.65,0,3.55,3.55,0,0,0,0-3.28A1.64,1.64,0,0,1,105.42,104.33Z"/><path class="cls-60" d="M76.61,111.9a1.45,1.45,0,0,0,1.16-.62c.2-.22.52-.84-.58-1.93-.35-.35-1.2-1.22-2.15-.27-.62.63-.36,1-.36,1A4.54,4.54,0,0,1,76.61,111.9Z"/><path class="cls-63" d="M75.29,108.87a2.67,2.67,0,0,1,1.58.84,4.25,4.25,0,0,1,.94,1.51,2.53,2.53,0,0,1-.5.46,3.71,3.71,0,0,0-2.44-2.41A1.72,1.72,0,0,1,75.29,108.87Z"/><path class="cls-60" d="M60,133c.43,0,.76-.27,1.16-.86.19-.27.43-1-.94-2-.44-.32-1.51-1.14-2.38.05-.58.79-.23,1.11-.23,1.11A5,5,0,0,1,60,133Z"/><path class="cls-63" d="M58.12,129.91a3,3,0,0,1,1.86.67,4.69,4.69,0,0,1,1.27,1.5,2.79,2.79,0,0,1-.47.59,4.09,4.09,0,0,0-3-2.24A1.89,1.89,0,0,1,58.12,129.91Z"/><path class="cls-60" d="M40.76,154.35a1.58,1.58,0,0,1-1.27.68c-.32.05-1.08,0-1.4-1.7-.1-.53-.38-1.84,1.06-2.12,1-.18,1.09.26,1.09.26A5,5,0,0,0,40.76,154.35Z"/><path class="cls-63" d="M38.81,151.31a2.93,2.93,0,0,0-.2,2,4.66,4.66,0,0,0,.8,1.77,2.77,2.77,0,0,0,.73-.17,4.07,4.07,0,0,1-.71-3.69A1.88,1.88,0,0,0,38.81,151.31Z"/><path class="cls-60" d="M13.51,153.28c0,.35-.24.61-.73.93-.23.15-.82.33-1.62-.81-.25-.36-.89-1.25.09-1.94.65-.46.91-.17.91-.17A4.08,4.08,0,0,0,13.51,153.28Z"/><path class="cls-63" d="M11,151.65a2.4,2.4,0,0,0,.5,1.53,3.82,3.82,0,0,0,1.19,1.06,2.27,2.27,0,0,0,.49-.37,3.34,3.34,0,0,1-1.76-2.53A1.54,1.54,0,0,0,11,151.65Z"/><path class="cls-60" d="M7.89,176.26a1.15,1.15,0,0,0-.26,1c0,.24.21.76,1.43.7.39,0,1.36,0,1.31-1.1,0-.7-.37-.73-.37-.73A3.6,3.6,0,0,1,7.89,176.26Z"/><path class="cls-63" d="M10.36,177.13a2.12,2.12,0,0,1-1.34.46,3.37,3.37,0,0,1-1.38-.27,2,2,0,0,1,0-.54,2.94,2.94,0,0,0,2.71-.12A1.36,1.36,0,0,1,10.36,177.13Z"/><path class="cls-60" d="M12.25,202.41a1,1,0,0,0,0,.87c.06.19.32.57,1.3.29.31-.09,1.09-.3.85-1.15-.16-.56-.44-.52-.44-.52A3,3,0,0,1,12.25,202.41Z"/><path class="cls-63" d="M14.42,202.62a1.76,1.76,0,0,1-1,.64,2.81,2.81,0,0,1-1.17.05,1.67,1.67,0,0,1-.1-.44,2.45,2.45,0,0,0,2.17-.63A1.13,1.13,0,0,1,14.42,202.62Z"/><path class="cls-61" d="M40.6,151.32a2.06,2.06,0,0,1,.93-1.23,5.74,5.74,0,0,1,1.33-.43c-1.68,1.36,3,33.19,6.32,42,3.64,9.71,8.14,17.34,13.21,18.45a12.29,12.29,0,0,0,.6,2.28c-.52.33-8.92-.73-15.1-17C42.53,181.36,40,152.62,40.6,151.32Z"/><path class="cls-64" d="M250.5,169.35a.84.84,0,0,0-.88-.4c-.31,0-1.29-.08-1.25,2.64a2.73,2.73,0,0,0,.21,1.21c.12.21.33.22.53.22a.36.36,0,0,0,.37-.28C249.57,172.38,249.21,169.73,250.5,169.35Z"/><path class="cls-64" d="M218.54,185.3a1,1,0,0,0-1-.45c-.35,0-1.48-.09-1.43,3a2.68,2.68,0,0,0,.24,1.28c.13.24.37.25.6.25a.41.41,0,0,0,.42-.32C217.47,188.66,217.07,185.74,218.54,185.3Z"/><path class="cls-64" d="M192,163.71a1,1,0,0,0-1-.61c-.37,0-1.5-.3-1.91,2.9a2.53,2.53,0,0,0,.05,1.28c.1.27.36.29.6.32a.46.46,0,0,0,.52-.26C190.48,166.93,190.44,163.95,192,163.71Z"/><path class="cls-64" d="M148.74,180.05c-.15-.35-.11-.6.17-1.15.17-.34,1-1.23,3.41,1a2.52,2.52,0,0,1,.81,1,.64.64,0,0,1-.23.66.48.48,0,0,1-.57.18C151.91,181.55,150.13,179.19,148.74,180.05Z"/><path class="cls-64" d="M41.08,160.7c-.22-.12-.27-.13-.34-.53-.15-.86,2-1.11,2.38-.79a.55.55,0,0,1,.2.47c0,.34-.2.39-.2.39A2.83,2.83,0,0,0,41.08,160.7Z"/><path class="cls-64" d="M46.1,189.9c-.25-.14-.3-.14-.38-.6-.17-1,2.21-1.25,2.68-.88a.62.62,0,0,1,.23.53c0,.39-.22.44-.22.44A3.18,3.18,0,0,0,46.1,189.9Z"/><path class="cls-65" d="M269.95,296.71a64.73,64.73,0,0,0,11,.91c5.6,0,12.58-.21,17.46-3.37,1.75-1.13,3.07-2.87,2.67-5.05-.48-2.63-3.27-4-5.47-5a1.17,1.17,0,0,1-.58-1l-.76-7.26a11.91,11.91,0,0,1-.26-2.54c.12-.88.95-1.53,1.32-2.32a4.22,4.22,0,0,0-.92-4.92,1.21,1.21,0,0,1-.18-1.41c.73-1.62,2.24-2.33,2.26-4.32a4,4,0,0,0-3.29-4.13,1.19,1.19,0,0,1-.85-1.12q-.77-9.27-1.43-18.55a1.17,1.17,0,0,1,.85-1.12c3.09-.65,3.92-2.94,3.32-5.78a64.52,64.52,0,0,0-2.1-8,1.18,1.18,0,0,1,.53-1.31,38.28,38.28,0,0,0,4.87-4c1.12-1.08,1.83-2,3.34-2.4,1.93-.47,3.94-.72,5.84-1.29,2.15-.65,1.35-2.59,2.55-3.86.9-1,1.95-1.78,2.84-2.75a34.57,34.57,0,0,0,5.17-7.48A47.1,47.1,0,0,0,323,173.91a31.71,31.71,0,0,0-9.55-20.16c-6.41-6.27-15.05-10.28-23.75-12.2a1.17,1.17,0,0,1-.81-1.43,23.22,23.22,0,0,0,1.07-5c.27-1.53,2.31-2.44,3.45-3.42a62,62,0,0,0,9.25-9.91,1.17,1.17,0,0,1,1-.58,6.5,6.5,0,0,0,6.51-2.63,8.17,8.17,0,0,0,1.15-7.46c-.31-.78-1.15-1.53-1.2-2.38s.85-2.42,1.16-3.32a62,62,0,0,0,2.22-8.29L315.56,92a3,3,0,0,0,.47-1.19,7.4,7.4,0,0,0-.73-3.92,10,10,0,0,1-.74-3.41,61.76,61.76,0,0,0-3-16.8,1.18,1.18,0,0,1,.81-1.43c2.86-.92,4.64-4.64,2.1-6.86-1.44-1.26-3-2.4-4.49-3.59-1-.81-2.76-1.72-3.46-2.85a7.9,7.9,0,0,1-.56-2.41q-.33-1.56-.67-3.12-.7-3.21-1.44-6.41c-.67-2.89-1.45-5.75-2.3-8.59-1.15-3.82-2.3-6.77-5.77-9a144.27,144.27,0,0,0-20.25-10.92A67.14,67.14,0,0,0,264.37,7.6a24.58,24.58,0,0,0-12.19,0c-2.86.71-5.65,1.8-8.44,2.72-3.85,1.27-7.63,2.77-11.34,4.41A146.66,146.66,0,0,0,212,25.68c-2.68,1.74-5.58,3.58-7.69,6-1.29,1.49-1.71,3.88-2.26,5.75-.65,2.21-1.23,4.45-1.74,6.69-2,8.71-3,17.57-5.29,26.22a61.53,61.53,0,0,0-.2,29.86,1.18,1.18,0,0,1-1.71,1.31,24,24,0,0,0-11.61-3.82,1.19,1.19,0,0,1-1.12-.85,14.07,14.07,0,0,0-12.27-11c-2.9-.27-6.35.48-7.23,3.66-.8,2.89.57,6.12,1.72,8.74.71,1.61,2.17,3.73,2.23,5.56,0,1.07-.68,2-1,3a17.46,17.46,0,0,0-.8,4.32,71.52,71.52,0,0,0,.18,9.09c.09,1.4.2,2.79.36,4.18a11.76,11.76,0,0,1,.37,3.31c-.13.61-.64,1.19-.84,1.79a8.83,8.83,0,0,0-.34,2c-.09,1-.12,2.08-.12,3.12s0,2-.06,3a67.15,67.15,0,0,0-.23,7.35c.15,1.88,1.74,2.16,2.75,3.43a17.44,17.44,0,0,1,1.43,3.28,40,40,0,0,0,3.74,6.32,41.83,41.83,0,0,0,11.43,10.59,36,36,0,0,0,19.34,6,39.05,39.05,0,0,0,18.51-5.09,1.18,1.18,0,0,1,1.75,1,138.47,138.47,0,0,1-1.91,28.14c-.73,4.6-1.58,9.19-2.41,13.77-.42,2.32-.84,4.64-1.24,7a10,10,0,0,0-.35,3c.23,1.48,1.66,2,2.85,2.51a1.18,1.18,0,0,1,.53,1.31l-1.39,7c-.63,3.15-2.2,7,1.61,8.7a1.12,1.12,0,0,1,.58,1l-1,8.18a1.19,1.19,0,0,1-1.16,1.16,3.92,3.92,0,0,0-3.78,5.23,16.25,16.25,0,0,0,1.13,2.43c.65,1.32,2.61,3.83,2.14,5.4-.33,1.1-1.23,1.79-1.29,3.08-.06,1.1.5,1.91.59,2.94a13,13,0,0,1-.28,2.42l-.71,6.09a1.22,1.22,0,0,1-.85,1.12c-2.31.67-5.12,1.61-6.49,3.76a4.42,4.42,0,0,0,.46,5.32c1.68,2,4.43,3,6.83,3.67a47.6,47.6,0,0,0,8.74,1.65,59.36,59.36,0,0,0,18.84-.86,39.74,39.74,0,0,1,17.92-.2C263.8,295,266.76,296.14,269.95,296.71Zm-52.11-157.1-.85.45a3.48,3.48,0,0,0-.87.65c-5.22,3.41-8.49,4.14-10.33,4.14a4.65,4.65,0,0,1-3.4-1.26,3.48,3.48,0,0,0-.12-1.55l-3-9.36a17.66,17.66,0,0,0,.75-3.54,10.45,10.45,0,0,0-.48-4.19q.17-.29.32-.6a13.2,13.2,0,0,0,11.31,6.24h0a62.18,62.18,0,0,0,6.32,5.24A10.38,10.38,0,0,0,217.84,139.61ZM267.24,281a27.79,27.79,0,0,0-6,1.7,22.36,22.36,0,0,1-6.54,1.26,14.8,14.8,0,0,1-7.06-2.08l-.22-.11a29.47,29.47,0,0,0-7-2.3l.86-2.78a5.73,5.73,0,0,0,1.84-2.94,5.08,5.08,0,0,0-.09-2.75l.71-2.32,1.43-1.42a3.54,3.54,0,0,0,.25-.28c.57-.71,2.32-2.86,1.63-5.46a4.58,4.58,0,0,0-.67-1.44l3.15-10.26,10.73-.13c.86,3.36,1.65,6.48,2.36,9.41a4.42,4.42,0,0,0-1.28,1.65,4.89,4.89,0,0,0,.14,4.11,3.48,3.48,0,0,0,.81,1.14l.15.14a21.07,21.07,0,0,0,1.93,1.81l.38.33v0a5.14,5.14,0,0,0-.5,1.92,5.67,5.67,0,0,0,1.7,4.44Zm24-110a5.71,5.71,0,0,1,.55,6.92l-.39.08Q291.24,174.54,291.2,171Z"/><path class="cls-66" d="M288.47,143.67s33.75,5.87,32.25,35.06S299,212.39,299,212.39l-10-26.1s18.56-13.79-4.44-23.8Z"/><path class="cls-66" d="M231,157.54s-21.38,24.74-46.59,9.93c-22.35-13.13-19.37-36-19.37-36L196,135s.12,23.85,23.3,7.83Z"/><path class="cls-67" d="M227.35,152.93l3.67,4.6s-21.38,24.74-46.59,9.93c-22.35-13.13-19.37-36-19.37-36l9.43,1.06s2.1,19.8,16.21,28C209.33,171.46,227.35,152.93,227.35,152.93Z"/><path class="cls-68" d="M189,134.19l7,.79s.12,23.85,23.3,7.83l3.1,3.88s-10.46,14.73-22.8,8.87S189,134.19,189,134.19Z"/><path class="cls-69" d="M209.71,171a39,39,0,0,0-1.59-22.88,11.66,11.66,0,0,1-4,.09h0s.64,20.26-2.72,24A31.53,31.53,0,0,0,209.71,171Z"/><path class="cls-69" d="M220.71,166.06s-2.79-15.85-5.68-20.62c0,0,2.07-1.16,3.7-2.26,0,0,5.31,13.78,4.69,21.09C223.42,164.26,221.33,165.71,220.71,166.06Z"/><path class="cls-66" d="M196,133.68l3,9.4s-14.19,18.25-34.28,1.91l.42-13.49S178.06,144.45,196,133.68Z"/><path class="cls-67" d="M287.14,150.13l1.32-6.46s33.75,5.87,32.25,35.06S299,212.39,299,212.39l-3.31-8.68s14.2-5.86,15.19-25S298.11,150.45,287.14,150.13Z"/><path class="cls-69" d="M292.85,144.78s-4,14.09-3.78,20l-4.46-2.29,3.85-18.81S291.74,144.35,292.85,144.78Z"/><path class="cls-68" d="M286.19,154.8l-1.57,7.68c23,10,4.44,23.8,4.44,23.8l3.6,9.45s17.92-10.73,10-28A22.63,22.63,0,0,0,286.19,154.8Z"/><path class="cls-70" d="M284.58,183.07a12.31,12.31,0,0,0-6.77.82l.89,4.29c5.48,3,1.84,8.38,1.84,8.38s-13.58,2.63-14,6c-.4,2.14.51,8.17,10.21,8.27-.12,5,4.88,6,6.36,5.92,0,1.5,1,4.41,4.83,4,2.55-.84,7-3.63,11.32-8.57C299.25,212.19,298.65,187,284.58,183.07Z"/><path class="cls-71" d="M279.38,283.71c-7.13-.2-13.4.73-16.89,2.3-6.59,2.05-10.39,2.17-16.44-1l-.08,0-.06,0h0c-3.42-1.74-9.56-3-16.61-3.21-10.84-.31-19.71,2-19.8,5.21s8.62,6,19.47,6.34a52.75,52.75,0,0,0,13.36-1.15h0a39.76,39.76,0,0,1,21.93.71h0a48.87,48.87,0,0,0,14.78,2.42c10.84.31,19.71-2,19.8-5.21S290.23,284,279.38,283.71Z"/><path class="cls-72" d="M231.23,131.76l-.78,11.71c15.51,17.59,26.24,16.4,48.29,9.54l-.08-22.24Z"/><path class="cls-73" d="M254,142.22l-1,3.71c4.17.16,3.79,5-.4,5,2.82-2.05,2-4.25-.76-4.14l.79-5Z"/><path class="cls-74" d="M216.87,285.84c7.27,3.93,12.7,4.36,17.6,1.44L247,246.41l16-.2c4.49,17.31,8,32.49,9.2,42.48,8,4.91,16.25,3.37,21-.46-2.4-20.74-4.23-44.37-5.83-69.2l-61.51.41-3.11,15.85Z"/><polygon class="cls-75" points="224.23 221.03 219.95 258.7 225.46 289 234.13 223.42 224.23 221.03"/><path class="cls-75" d="M281.93,225c-7.52,1.68-10.62,2-16.48,1.34l.4-2.42-17.52.9-.28-5.28,18.31.53,16.48-1Z"/><polygon class="cls-75" points="283.43 230.85 288.4 233.75 288.34 231.45 283.43 230.85"/><path class="cls-76" d="M289.38,218.84s2.87,6.55,3.33,11.09c1.75,4-3.21,4.16-4.36,1.53a12.43,12.43,0,0,1-4.91-.61L281.16,222Z"/><path class="cls-77" d="M289.38,218.84c.66,1.57,1.35,3.46,2.05,5.51a18.4,18.4,0,0,1-9.08,2.26L281.16,222Z"/><path class="cls-78" d="M274.32,220.78c-13.93,4-29.38.53-45.17-3.43,3.44-24,4.47-44.54,2.75-73,15.67,6.06,24.26,8.22,33.25,3.19C273.9,178.34,283.58,205.24,274.32,220.78Z"/><path class="cls-79" d="M247,152.18a25.35,25.35,0,0,0,18.32-1.43"/><path class="cls-80" d="M256.82,222.48c6.53-25.59,10.1-49.4,7.95-73,5.37,19.87,5.59,46.89,5.15,73.29Z"/><path class="cls-81" d="M263.89,146.72c7.47,25.55,7.46,68.44,5.08,77.51,9.19,1.18,17.49-2.59,23.68-6.61-4.92-18.54-5.9-49.35-4.19-73.95l-3.16-2.37Z"/><path class="cls-82" d="M288.47,143.67a64.06,64.06,0,0,1-20,3.54l15.08,9,.13,8.78,3.68,6.45Z"/><path class="cls-80" d="M286.38,142.11c-9.09,4.15-16.82,6.15-21.66,4.55l20.59-5.35Z"/><path class="cls-66" d="M270,217.9l-1.53,6.33c9.81,1.27,18.43-2.55,24.19-6.61l-1.23-5.27C286.54,214.8,283.22,217.54,270,217.9Z"/><path class="cls-75" d="M248.56,226.38A46,46,0,0,1,234,229l-9.49.57,8.18-4Z"/><path class="cls-76" d="M222.52,219.3l-3.43,17.15c-1.6,4.09,2.54,3.69,3.42,2.25,2.45,1.81,5.2,1,8.05-.8L235.5,225Z"/><path class="cls-77" d="M234,229l-11.78,1.17-1.87,9.51c-1.31.29-2.1-.79-1.23-3.26l2.68-13.38,13.39,2.88Z"/><path class="cls-81" d="M247.89,146.35c1.92,23.63,2.88,63.64.3,79.87-8.87.21-24-.64-30.55-4.23,4-24.52,10.93-47.64,1-78.85l4.27-2.26,1-4.13Z"/><path class="cls-66" d="M248.78,218.83c-5.36.83-19.27,1.43-30.26-1.94l-.87,5.1c6.19,3.36,19.76,4.69,30.55,4.23Z"/><path class="cls-83" d="M247.89,146.35c3.3,32.7,2.17,62.17.3,79.87"/><path class="cls-80" d="M283.54,157.11l-.08,2.74a25.64,25.64,0,0,1-12.3,1.15l-.46-4.63Z"/><path class="cls-80" d="M227.58,159.58l.6,3.13c5.37.66,10.4.57,14.66-1.13l.38-1.36Z"/><path class="cls-80" d="M231.31,142.27l16.58,4.08a63.41,63.41,0,0,1-18.55-2.11l-2.54,2.53c.73,7.82,1.29,15,1.6,22.54,0,.43,6.64,2.73,14.47,1a27.17,27.17,0,0,1-14.37,4.08,476.11,476.11,0,0,1-1.2,50.4L217.65,222c6-26.3,8.61-57.18,1-78.85l4.27-2.26.68-2.89Z"/><path class="cls-84" d="M227.65,157.2l.76,12.11c6.94,3.11,14.47,1,14.47,1l-.07-13.77Z"/><path class="cls-85" d="M270.7,156.37l1.16,11.69s6.3,1.95,11.65-.83l0-11Z"/><polygon class="cls-75" points="263.03 246.21 247.03 246.41 276.58 241.32 272.64 247.41 284.61 290.87 268.19 266.69 263.03 246.21"/><path class="cls-86" d="M234.39,264.82c3.55-2.54,6.27-3.77,8.06-3.49,1.35.52,2.06,1.38.35,3.5l-2,2-6.27,20.41c-5.75,3.48-11.6,1.88-17.6-1.44l2.57-21.89L216,257c-.89-2.19,1.19-3.49,3.52-1.58,2.44,4.32,3.07,7.35,4.36,11.11l.58,14.32c.79.64,2.07.71,3.75.3Z"/><path class="cls-87" d="M240.74,266.87l-3.42,2.75-5.59,18.87a5.56,5.56,0,0,0,2.74-1.21Z"/><path class="cls-76" d="M235.78,259.82l-7.59,21.34c-2.18.45-3.23.23-3.75-.3l-.81-23.75C225.64,258.74,229.65,259.66,235.78,259.82Z"/><path class="cls-88" d="M227.67,258.92,226,281.4c-.45,0-1.44-.2-1.52-.54l-.81-23.75A11.09,11.09,0,0,0,227.67,258.92Z"/><path class="cls-87" d="M238.4,274.49l-.32,1c-10.82.14-16.43-1.28-19.51-4.18l.26-2.26Z"/><path class="cls-87" d="M231.1,277.37a8.25,8.25,0,0,1-8.32-1Z"/><path class="cls-87" d="M230,280.07c-3,1.42-5.29.8-7.13-.8Z"/><path class="cls-86" d="M265.48,261.56c-1.11.36-1.11,1.09-.73,1.93l3.44,3.19,4,22c7.23,4.3,15.12,4.23,21-.46l-2-18.92q-.11-5.94,2.77-8.06c.6-1.94-.89-3.29-1.92-2.35-2.42,1.89-4.08,5-5,9.46l1.35,13.53a5.76,5.76,0,0,1-6.6.74l-4.47-12.29C272.94,264.26,270,261.57,265.48,261.56Z"/><path class="cls-87" d="M264.56,262.92l6,2.89,5.34,24.64a15.94,15.94,0,0,1-3.7-1.76L268,266.53C266.65,265.18,264.74,263.87,264.56,262.92Z"/><path class="cls-76" d="M274.89,263.35l7,19.3c1.26.93,5.11,1.08,6.6-.74l-2.12-21.29A36.37,36.37,0,0,1,274.89,263.35Z"/><path class="cls-88" d="M280.07,262.59l5.32,20.69a5.85,5.85,0,0,1-3.47-.64l-7-19.3Z"/><path class="cls-87" d="M291.43,270.86l.21,2.35c-8.6,2.93-10.66,3-22,1.44l-.48-2.6C277.13,273.24,284.64,273.14,291.43,270.86Z"/><path class="cls-89" d="M268.67,269.29c12.64,4.52,18,1.23,23.54-1.9,1.47.86,1.74,2.06.37,3.71-6.26,2.71-12.48,5.49-23.59,1.45C267.49,271.87,267.47,269.51,268.67,269.29Z"/><path class="cls-87" d="M289.08,276.26c-2.92,2.78-6.2,2.92-9.68,1.71Z"/><path class="cls-87" d="M289.46,280.05c-2.26,2.49-5.3,2.93-9.14,1.33Z"/><path class="cls-89" d="M279.84,279.68l.48,1.7c3.78.78,7.12.23,9.14-1.33l-.21-2.09C286.7,279.7,284.14,280,279.84,279.68Z"/><path class="cls-89" d="M279,276.19l.43,1.77a14.4,14.4,0,0,0,9.68-1.71l-.19-1.88C287.12,275.38,284.32,276.52,279,276.19Z"/><path class="cls-89" d="M239.49,271.53c.9,1.26,0,2.56-1.37,3.16-9.49.34-15-.86-19.45-4.28-1.11-1.15-.9-3.36.41-3.49C225.52,271.37,231.68,271.19,239.49,271.53Z"/><path class="cls-89" d="M222.78,276.38l-.08-2.2a15.35,15.35,0,0,0,9,1.67l-.62,1.53A19.48,19.48,0,0,1,222.78,276.38Z"/><path class="cls-89" d="M230.52,278.8l-.51,1.26a8.93,8.93,0,0,1-7.13-.8l0-1.38A21.29,21.29,0,0,0,230.52,278.8Z"/><path class="cls-66" d="M243.25,151.77l-15.5-.12-2,7.58a50.71,50.71,0,0,0,17.46,1Z"/><path class="cls-66" d="M269.61,151.91l.79,5.72a45.38,45.38,0,0,0,15.1-1l-3.19-6.25Z"/><path class="cls-83" d="M263.89,146.72c5.9,15.27,8,64,5.08,77.51"/><polygon class="cls-66" points="224.06 140 223.6 141.93 219.04 144.68 219.64 146.54 225 142.88 226.03 139.62 224.06 140"/><path class="cls-80" d="M283.52,167.23c-4.29,4-8.14,4-11.65.83A15.51,15.51,0,0,0,283.52,167.23Z"/><path class="cls-90" d="M307.09,109.7l-4.82,8.62s4.45,2.61,6.54-2S307.09,109.7,307.09,109.7Z"/><path class="cls-91" d="M305.2,113.08a4.2,4.2,0,0,1,4,2.07,4.5,4.5,0,0,0-2.14-5.44Z"/><path class="cls-92" d="M304.74,113.9l.46,5.14a5.82,5.82,0,0,1-2.93-.72Z"/><circle class="cls-78" cx="253.82" cy="85.6" r="58.45" transform="translate(136.56 326.44) rotate(-82.68)"/><path class="cls-93" d="M258.8,119.32a64.38,64.38,0,0,1-56.14-62A58.46,58.46,0,1,0,309.31,104,64.21,64.21,0,0,1,258.8,119.32Z"/><path class="cls-94" d="M205.44,113.72c4.45-3.4,12.65,9.7,9.92,13C213.85,129,201.53,116.71,205.44,113.72Z"/><path class="cls-95" d="M298.06,28.2c3.43,9.14,7.2,29.66,7.2,29.66-21.08-26-82.25,26.5-108,13.11,2.8-7.93,3.21-22.47,8.46-37.34,5-6.36,40.67-26.15,57-24,12.67,2.7,25.47,11.06,32.45,15.1A6.78,6.78,0,0,1,298.06,28.2Z"/><path class="cls-96" d="M217.89,24.76c5.52-3.18,18.16-9,19.65-9.68-.53,4.44,18.72,8.81,14.25,12.07C245.77,31.43,228.15,22.31,217.89,24.76Z"/><path class="cls-96" d="M210.24,46.66c5.35-16.67,26.92,6.55,21.86,10.88L212.33,68.78S209.33,57.18,210.24,46.66Z"/><path class="cls-96" d="M300,34.2c1.34,4,4.41,19.06,4.41,19.06l-10-5c3.14-2.84,1.07-11.4,1.52-15.06C296.13,31,298.65,30.59,300,34.2Z"/><path class="cls-96" d="M277.9,15.08s12.88,6.64,17.22,9.62c-6.78-.59-1.49,9.93-5.83,11.44C283.67,34.91,285.82,23.31,277.9,15.08Z"/><path class="cls-96" d="M262.67,9.6C281.45,18.52,284,45.53,284,45.53L238.2,54.88c-.41-11.71-9.48-11.06-10.4-18.67.63-8.07,26.39-2.59,30.33-8.9s-17.59-12.47-10.48-15.77C247.66,11.54,256.4,7.64,262.67,9.6Z"/><path class="cls-97" d="M312.18,82.09c-3.5-7.36-7.85-12-13-13.93.19-3-1-4.3-1.73-4.83a3.58,3.58,0,0,0-3.87,0,5.43,5.43,0,0,0-2.6,4.06c-4.49.62-9.46,2.87-14.84,6.69.4-1.74.76-3.49,1.06-5.24l.38,2.74,9.27-4.23.07-.73c1.5-15.48.36-27-4.19-42.64l-.23-.8c-6.24-.7-12.45-1.26-18.41-.46,3.54,8.8,4.92,19.95,4.26,34.72-1.9-5.54-3.8-10.36-5.76-14.63a76.27,76.27,0,0,0-10.48-17.27l-.56-.67L229.3,32.51l1.4,1.43c7.89,8.09,13.63,19.62,18.08,36.29l.17.63,9.49,3.55.14-1.67c0-.17.23-2.82.13-6.22a44.2,44.2,0,0,1,2.91,11.09c-4.7-1.52-8.7-3.14-12.28-4.59-6.84-2.77-12.24-5-17.66-4.29-12,1.48-19.78,10.22-23.8,26.7l-.42,1.7,7.21-.56a53.2,53.2,0,0,0,11.33,6.2,10.27,10.27,0,0,0-1.45,8.44,5.33,5.33,0,0,0,3.32,3.55l-2.54,19.77.86.38a74.13,74.13,0,0,0,24.31,6.5q2.41.19,4.8.19a64.43,64.43,0,0,0,30.37-7.87l.73-.39-.06-.83c-.42-5.59-.9-11.9.71-19.93a6.68,6.68,0,0,0,5-7.23,4.51,4.51,0,0,0-5-4.25H287c-14.27,2.32-26.85,2.71-38.08,1.16a52.05,52.05,0,0,0,13.93-9.67l2,3.72L279,91.79l-1.06-1.42-.06-.08c4.7,3.12,9.29,5.87,13.74,7.28-.28,1.66-.5,3.35.29,4.54l.09.14.12.11c1.54,1.36,5.8,2.28,7.83,0,.76-.84.81-2.15.87-3.54,0-.2,0-.39,0-.57a16.06,16.06,0,0,0,8.69-5.46,10.37,10.37,0,0,0,2.29.29"/><path class="cls-98" d="M313.76,89.45c-4.12-12.16-9.56-18.53-16-20.41,1.15-7.53-5.93-5.65-5.6-.55-5.57.44-11.7,3.58-18.18,8.74a83.24,83.24,0,0,0,3-18.89l1.57,11.35,7.05-3.22c1.52-15.72.23-27.15-4.15-42.16-2.58-.27-15.82-1-15.61-.43C270,35.3,270.37,49.2,269.2,64.1a179,179,0,0,0-7.78-20.79,75.66,75.66,0,0,0-10.3-17l-19.52,6.73c8.93,9.15,14.46,22.11,18.39,36.85l7.31,2.73A58.76,58.76,0,0,0,257,61c3.79,4.91,5.46,12.19,6.14,18.42-15-4.57-23.18-10.42-31.29-9.42-12.3,1.52-19.14,11.05-22.73,25.75l5.92-.46c6.67,4.71,12.85,7.49,18.89,8.2-.46,3,5.85,3.82,5.66.06,7.68-.76,15.3-5,23.56-13l2.27,4.25,5-1.61,6.49-2.09a5.79,5.79,0,0,1-1.17-3.81c5.94,4.05,11.77,7.86,17.3,9.35-.26,1.72-.75,3.74-.09,4.74,1.09,1,4.58,1.74,6,.12.68-.75.44-2.9.67-4.34,3.31-.49,6.46-2.25,9.4-5.8C312.26,92.19,314,92,313.76,89.45Z"/><path class="cls-99" d="M308.21,90.68l.44-.53.67.17a10.66,10.66,0,0,0,2.44.4,1.2,1.2,0,0,0,.78-.18s.18-.25.15-.88c-3.8-11.15-8.91-17.74-15.18-19.58l-.91-.27.14-.94c.34-2.25-.18-3.14-.42-3.42a1,1,0,0,0-.76-.35,2.06,2.06,0,0,0-1.42.72,3.39,3.39,0,0,0-.85,2.6l.07,1.07-1.07.08c-5.09.4-11,3.26-17.59,8.51l-2.62,2.09.9-3.23a82.35,82.35,0,0,0,3-18.63l2.17-.12,1.37,9.9,5.15-2.35c1.35-14.6.27-25.69-4-40.41-2.62-.21-9.11-.56-12.5-.56h-.82c3.32,10,4.25,22.57,2.94,39.41l-.44,5.6-1.69-5.36a177.15,177.15,0,0,0-7.73-20.66,75.26,75.26,0,0,0-9.67-16.16l-17.21,5.93c7.5,8.22,13,19.58,17.35,35.55l5.4,2a55.52,55.52,0,0,0-.4-9.95L255.29,57l2.55,3.31c4.12,5.34,5.73,13.26,6.36,19l.18,1.64-1.58-.48c-5.63-1.72-10.26-3.59-14.35-5.25C242.61,72.84,238,71,233.71,71a14.2,14.2,0,0,0-1.74.11A20.72,20.72,0,0,0,218,78.63c-3.22,3.84-5.68,9.06-7.5,15.91l4.41-.34.39,0,.32.23c6.68,4.71,12.69,7.33,18.39,8l1.12.13-.17,1.11a.76.76,0,0,0,.19.65,2.42,2.42,0,0,0,1.76.67,1.76,1.76,0,0,0,1.27-.43,1.2,1.2,0,0,0,.28-.94l-.05-1,1-.1c7.34-.73,14.84-4.87,22.91-12.68l1-1,.68,1.27,1.84,3.45,4.13-1.33,5.19-1.67a6.92,6.92,0,0,1-.62-3.23l.07-2,1.63,1.11c5.91,4,11.65,7.77,17,9.2l.94.25-.15,1c0,.26-.09.54-.13.81a8.26,8.26,0,0,0-.18,3,5.21,5.21,0,0,0,2.61.69,2.48,2.48,0,0,0,1.78-.58,6.56,6.56,0,0,0,.27-2.06,16.09,16.09,0,0,1,.13-1.71l.12-.79.8-.12C302.73,95.62,305.59,93.85,308.21,90.68Z"/><path class="cls-100" d="M261.43,43.31a75.66,75.66,0,0,0-10.3-17l-19.52,6.73c8.93,9.15,14.46,22.11,18.39,36.85l7.31,2.73A58.76,58.76,0,0,0,257,61c3.79,4.91,5.46,12.19,6.14,18.42-15-4.57-23.18-10.42-31.29-9.42-12.3,1.52-19.14,11.05-22.73,25.75l5.92-.46c6.67,4.71,12.85,7.49,18.89,8.2-.46,3,5.85,3.82,5.66.06,7.68-.76,15.3-5,23.56-13l2.27,4.25,5-1.61L269.2,64.1Z"/><polygon class="cls-66" points="278.12 57.54 278.12 72.53 307.84 72.54 307.82 65.04 278.12 57.54"/><polygon class="cls-66" points="250.81 54.36 252.95 72.93 217.04 79.48 217.04 66.92 250.81 54.36"/><path class="cls-80" d="M308.15,64c-32.52-11.41-54.32,4.14-80.35,10.57l36-25.84s37.67,3,38.31,4A52.91,52.91,0,0,1,308.15,64Z"/><path class="cls-74" d="M313.41,60.47l-.11.83a1.94,1.94,0,0,1-3.16,1.25,40.58,40.58,0,0,0-28.51-9c-23,1.1-63.18,38-84.4,17.42,16.7,4.86,39.5-23.11,71.72-25.9a55.91,55.91,0,0,1,35.42,8.2Z"/><path class="cls-95" d="M281.64,53.54a40.58,40.58,0,0,1,28.51,9,1.94,1.94,0,0,0,3.16-1.25l.11-.83c-9.95-7.31-19.63-10.28-29-10.59-15.66-.52-28,7.63-41.29,14.66-15.2,8-31.21,14.64-45.87,6.41C218.46,91.54,258.65,54.64,281.64,53.54Z"/><path class="cls-90" d="M287.15,102.4c5-.4,5.11,8.13-1.18,9.14-1.8,8.38-1.38,14.76-.91,21.09-11.68,6.18-23.15,8.43-34.48,7.53a72.52,72.52,0,0,1-23.89-6.39l2.57-20c-7.47-1-3.3-16.9,6.52-13C251.16,105.41,268.51,105.43,287.15,102.4Z"/><circle class="cls-90" cx="250.88" cy="131.7" r="12.04" transform="translate(88.28 363.74) rotate(-82.68)"/><path class="cls-66" d="M287.35,132.1c1.14,5.86-1.8,9-2.1,9.2-3.8,2.18-13.14,4.65-21.81,5.48C266.14,143.74,279.72,135.58,287.35,132.1Z"/><path class="cls-90" d="M205.47,114.56c-8.37,4.6.1,15.26,9.33,11.9C215.92,121,209.66,113.26,205.47,114.56Z"/><path class="cls-80" d="M252.66,101.93c0,6.43,4.23,4.33,8.31,2.54,5.72,5.91,13.11,3.15,21.07-2.54,2.46-1.31,3.35-2.49,3.16-3.57Z"/><path class="cls-90" d="M253.61,83.55c6.63-1.42,8.76,5.49-1,6.94-15.84,9.29-24.05,4.39-31.17-2.53l-1.51-.36C227.29,77.71,236.4,71.64,253.61,83.55Z"/><path class="cls-90" d="M277.3,82.39c-1.31,1.45-1.19,2.7.6,3.72,7.79,8,16.46,4.79,25.29-.39,1.58.71,2.07-.09,2.23-1.35C301.34,74.82,295.67,67.95,277.3,82.39Z"/><path class="cls-101" d="M253.61,83.55c6.63-1.42,8.76,5.49-1,6.94-15.84,9.29-24.05,4.39-31.17-2.53l-1.51-.36C227.29,77.71,236.4,71.64,253.61,83.55Z"/><path class="cls-101" d="M277.3,82.39c-1.31,1.45-1.19,2.7.6,3.72,7.79,8,16.46,4.79,25.29-.39,1.58.71,2.07-.09,2.23-1.35C301.34,74.82,295.67,67.95,277.3,82.39Z"/><g class="cls-102"><path class="cls-103" d="M280.88,83.27c-.66,1.42.92,1.39,1.66,2.36,2.64,3.45,8.9,2.83,10.91.48l-11.09-2.95Z"/></g><path class="cls-104" d="M281.58,83.67l1,.63a8.24,8.24,0,0,0,14.41-3.08C292.82,78.65,289.44,78.54,281.58,83.67Z"/><path class="cls-103" d="M281.07,82.92c9.31-6.51,12.85-4.33,16.4-2.08a.26.26,0,0,1-.2.48l-.33-.09c-5.28-1.87-7.94-2.25-15.37,2.44a.45.45,0,0,1-.69-.4h0A.46.46,0,0,1,281.07,82.92Z"/><circle class="cls-103" cx="287.38" cy="82.66" r="4.31" transform="translate(194.84 367.01) rotate(-88.02)"/><circle class="cls-66" cx="287.38" cy="82.66" r="2.49" transform="translate(194.84 367.01) rotate(-88.02)"/><circle class="cls-90" cx="289.82" cy="79.81" r="1.82" transform="translate(200.03 366.7) rotate(-88.02)"/><circle class="cls-105" cx="286.47" cy="81.68" r="0.95" transform="translate(194.94 365.15) rotate(-88.02)"/><path class="cls-104" d="M230.67,83.33c.46,6.24,11.73,12.75,18,3.75l2.19-1.16C244.64,80.49,239,79.73,230.67,83.33Z"/><path class="cls-103" d="M250.83,85.92h0a.69.69,0,0,1-1,0c-5.08-5.15-11.89-5.34-19.91-2.09-.21.09-.43-.22-.24-.34,9.91-5.15,16.11-2.94,21.09,1.43A.69.69,0,0,1,250.83,85.92Z"/><circle class="cls-103" cx="237.82" cy="85.35" r="5.19" transform="translate(129.26 313.52) rotate(-84.3)"/><circle class="cls-66" cx="237.82" cy="85.35" r="2.99" transform="translate(129.26 313.52) rotate(-84.3)"/><circle class="cls-90" cx="240.97" cy="82.13" r="2.2" transform="translate(135.31 313.74) rotate(-84.3)"/><circle class="cls-105" cx="236.8" cy="84.24" r="1.03" transform="translate(129.45 311.5) rotate(-84.3)"/><path class="cls-90" d="M260.89,97.85c10.46-11.13,16.84-10.85,20.56-3.12,4.13-2.61,7.5,4.79-.24,4.93-3.38,7-16.8,6.5-19.95,2.43C246.85,108.74,253.26,92.61,260.89,97.85Z"/><path class="cls-66" d="M248.79,147.27c-8.14-6.44-17.88-9.4-27.47-13.07-.55,3.21-.66,5.42,1.91,6.83C233.88,145.51,237.53,146.82,248.79,147.27Z"/><path class="cls-91" d="M260.89,97.85c10.5-11.33,17.18-10.67,20.56-3.12-4.56-7.32-12.22-2.36-20.27,4.17-3.57-1.39-7.22-.53-8.43,1.8A5.17,5.17,0,0,1,260.89,97.85Z"/><path class="cls-75" d="M205.7,33.62c7.24-7.52,1.76,17.82,6.64,35.16l-4.87,5.31L197.24,71C199.94,56.21,202.68,42,205.7,33.62Z"/><path class="cls-80" d="M277.9,86.11c6,6.84,14.61,6.22,25.29-.39C291.72,91.53,283.67,91,277.9,86.11Z"/><path class="cls-80" d="M221.41,88c7.12,8.86,17.28,10.28,31.17,2.53Q235,99.17,221.41,88Z"/><path class="cls-91" d="M205.47,114.56c-6,3.56-2.39,8.28-2.39,8.28.56-3.35,4.31-4.42,9.14-4.72C212.22,118.12,208.89,113.08,205.47,114.56Z"/><path class="cls-91" d="M238.2,101.46c-6.35-3.67-12,0-12.69,6.32C227.37,102.76,232.06,99,238.2,101.46Z"/><path class="cls-68" d="M287.61,135a111.38,111.38,0,0,0-19.86,11.23,54.87,54.87,0,0,0,17.5-4.9S287.51,139.44,287.61,135Z"/><path class="cls-68" d="M223.24,141l-1-4.63A56.78,56.78,0,0,1,242,146.78,62.44,62.44,0,0,1,223.24,141Z"/><path class="cls-106" d="M237.74,108.44c-7.05,28.38,29.3,22.81,29.3,22.81-.55-8.84,4.5-17.89,4.5-17.89S251.1,115.24,237.74,108.44Z"/><path class="cls-89" d="M237.74,108.44a7.39,7.39,0,0,0,1.41,4.61,6.86,6.86,0,0,0,1.87,1.72c.64-1.46,2.17-1.74,3.79-1.37,1.83.42,3,1.66,2.63,3.49a3.41,3.41,0,0,1-.14.46c5.63,1.66,15.81,3.24,28.69,1l2.53-5.7S251.1,115.24,237.74,108.44Z"/><path class="cls-73" d="M280.19,112.21c-4.24,3.24-38.3.67-42.45-3.77,6.22,3.16,30.28,5.7,40,3.2,0,0-1.77-1.9-1.49-3.36A20,20,0,0,0,280.19,112.21Z"/><path class="cls-78" d="M237.14,118.22s.85,14.07,23.77,13.49C260.9,131.71,258.59,117.8,237.14,118.22Z"/><path class="cls-73" d="M236.28,111.72c.06-.09.18-.2-.09.12l.22-.27c.32-.36.65-.71,1-1a14.08,14.08,0,0,1,3.85-2.45c1.76-.79.24-3.37-1.51-2.59a14.82,14.82,0,0,0-6.06,4.71c-1.12,1.58,1.48,3.08,2.59,1.51Z"/><path class="cls-73" d="M239.65,139.19c2.65,3.42,6.77,6,11.18,6,4.24,0,10.14-2.26,10.16-7.25l-1.1,1.45c5-.69,10.54-3.07,12.17-8.23a1.52,1.52,0,0,0-1.85-1.85,51.87,51.87,0,0,1-16.9.32c-4.06-.63-8.4-1.89-11.39-4.86-4.18-4.14-4-10.17-2.74-15.51.43-1.88-2.46-2.68-2.89-.8-2.6,11.34,1.67,20.59,13.32,23.48a52,52,0,0,0,21.41.26l-1.85-1.85c-1.29,4.06-6.24,5.61-10.08,6.13a1.5,1.5,0,0,0-1.1,1.45c0,5.82-9.84,4.29-12.51,2.55a15.33,15.33,0,0,1-3.71-3.43c-1.18-1.52-3.29.61-2.12,2.12Z"/><path class="cls-66" d="M299.25,212.19l7.9-1.74s3.32-27.24-14.92-29.07l-3.17,3.93S298.22,192.45,299.25,212.19Z"/><path class="cls-69" d="M320.61,180.29s-8-7.4-24.7-3.7a9.36,9.36,0,0,0-.73-5.84s15.08-6,25.34,2.27A29.47,29.47,0,0,1,320.61,180.29Z"/><path class="cls-66" d="M168.28,104.68c0-2.75-1.25-5-2.34-7.44s-3.74-7.63.75-8.05c6.1-.57,10.38,5.21,10.53,10.72a1.13,1.13,0,0,0,2.25,0c-.18-7-5.41-13.18-12.78-13-10.27.29-.61,13.23-.65,17.74a1.13,1.13,0,0,0,2.25,0Z"/><path class="cls-69" d="M181.67,125.55c-8.43-1.15-15.89.73-16.56,5.35-.59,4.06,5.14,8.53,13.57,9.68s16.71-1.51,17.26-5.58S190.1,126.7,181.67,125.55Z"/><path class="cls-90" d="M167.2,105a9.3,9.3,0,0,0-1-4.44c-2.19-4.71-5.58-11.29-1-12.32s13.16,2.42,13.12,11.85l1.35-.07a20.91,20.91,0,0,1,14.47,5.23,7.67,7.67,0,0,1,2.58,5.46,5.45,5.45,0,0,1-1.1,3.58c1.29.75,3.16,7.2.06,10h0a10.73,10.73,0,0,1,.91,4.43c-.13,1-.48,4-2.28,5.66-5.19,4.71-25.12,7.87-28-7a87.49,87.49,0,0,1-1.05-14.87A13.33,13.33,0,0,1,167.2,105Z"/><path class="cls-80" d="M166.39,88.44a23.51,23.51,0,0,0,2.42,8.85,40.4,40.4,0,0,1,2.21,4.2,38.1,38.1,0,0,1,.26,13.59c-1.23,7.25-.74,18.36,3.23,22.06,0,0-9.16-1.07-9.09-19.64,0,0-.19-2.37-.18-5.57,0-2,.59-6.11,1.93-7.25,0,0-1-4.93-1.85-6.11S159.83,88.7,166.39,88.44Z"/><path class="cls-66" d="M195,124.46c5.55,14.9-21.32,17.16-26.83,6-1.93-3.9-2-8.71-2.12-13-.18-4.79-.72-10.77,3.39-14.15,3.07-2.52,7.89-2.94,11.73-2.69a21.66,21.66,0,0,1,9.21,2.79c3.47,2,7.25,6.31,4.64,10.43-.52.82.78,1.57,1.3.76,3-4.81-.35-9.59-4.58-12.15a24.29,24.29,0,0,0-17.3-2.86c-12.39,2.45-10.94,17.3-9,27,1.84,9.39,10.15,13.27,19.11,12.14,8-1,15.35-5.62,11.94-14.76-.33-.9-1.78-.51-1.45.4Z"/><path class="cls-66" d="M183.22,113.08c3.42-.61,8.58-.78,11.52,1.52,1.57,1.23,2,3.82,1.89,5.73-.14,3.18-1.82,3.6-4.55,3.69a31.76,31.76,0,0,1-8.4-.71c-.94-.23-1.34,1.22-.4,1.45a31.11,31.11,0,0,0,11.06.6c2.63-.35,3.7-2.48,3.79-5,.07-2.13-.37-5.23-2.1-6.69-3.33-2.81-9.24-2.71-13.2-2-.95.17-.55,1.62.4,1.45Z"/><path class="cls-69" d="M316.09,160.6s-6.75-1.62-22,8.45a13.87,13.87,0,0,0-2.12-2.19s8.61-10.95,19.93-11.33A32.43,32.43,0,0,1,316.09,160.6Z"/><path class="cls-69" d="M201.53,147.27s-1,15.18-10,23.42a27.92,27.92,0,0,1-7.67-3.55s7.41-4.38,15.07-22.21Z"/></g></svg>