<svg xmlns="http://www.w3.org/2000/svg" xmlns:xlink="http://www.w3.org/1999/xlink" viewBox="0 0 1059.71 280.05"><defs><style>.cls-1{fill:none;}.cls-2{clip-path:url(#clip-path);}.cls-10,.cls-11,.cls-12,.cls-3,.cls-4,.cls-5,.cls-6,.cls-7,.cls-8,.cls-9{fill:#4c76ba;}.cls-3,.cls-97{opacity:0.4;}.cls-4,.cls-83{opacity:0.3;}.cls-35,.cls-5,.cls-85,.cls-91{opacity:0.2;}.cls-6,.cls-81,.cls-86,.cls-99{opacity:0.1;}.cls-7,.cls-70,.cls-76,.cls-78{opacity:0.5;}.cls-9{opacity:0.9;}.cls-10{opacity:0.6;}.cls-11{opacity:0.7;}.cls-12{opacity:0.8;}.cls-13{fill:#314a7d;}.cls-14{fill:#243f76;}.cls-15{fill:#eceef8;}.cls-16{fill:#5d94ba;}.cls-17{fill:#283994;}.cls-18{fill:#3d5388;}.cls-19{fill:#4260ac;}.cls-20{fill:#38308a;}.cls-21{fill:#545458;}.cls-22{fill:#3a3a3e;}.cls-23{fill:#14133e;}.cls-24{fill:#23285c;}.cls-25{fill:#1b3866;}.cls-26{fill:#4c8381;}.cls-27{fill:#2b367f;}.cls-28{fill:#27163f;}.cls-29{fill:#6767af;}.cls-30{fill:#5c4c9f;}.cls-31{fill:#27a0b0;}.cls-32{fill:#4e8dcb;}.cls-33{fill:#f9ed38;}.cls-34{fill:#4fb848;}.cls-35{fill:#010101;}.cls-36{fill:#2e5592;}.cls-37{fill:#27316c;}.cls-38{fill:#88bcd8;}.cls-39{fill:#446494;}.cls-40{fill:#8c8a98;}.cls-41{fill:#4f4c50;}.cls-42{fill:#39489e;}.cls-43{fill:#bee5eb;}.cls-44{fill:#50a5db;}.cls-45{fill:#61b6dd;}.cls-46{fill:#35508f;}.cls-47{fill:#243770;}.cls-48{fill:#424a7f;}.cls-49{fill:#cdebef;}.cls-50{fill:#1d3766;}.cls-51{fill:#308d89;}.cls-52,.cls-60{font-size:6.91px;}.cls-52{fill:#edebe5;}.cls-52,.cls-59,.cls-60,.cls-62{font-family:RustproofBody-Regular, Rustproof Body;}.cls-53{fill:#414340;}.cls-54{fill:#2d7fc3;}.cls-55{fill:#323431;}.cls-56{fill:#77c6ef;}.cls-57{fill:#b4cdeb;}.cls-58{fill:#2f3743;}.cls-59,.cls-62{font-size:2.96px;}.cls-59{fill:#98abd8;}.cls-60,.cls-62{fill:#adc0e4;}.cls-61{fill:#4350a2;}.cls-63{fill:#101238;}.cls-64{fill:#67675f;}.cls-65{fill:#79abd0;}.cls-66{fill:#babecc;}.cls-67{fill:#131042;}.cls-68{fill:#736458;}.cls-69{fill:#8a7a70;}.cls-70{fill:#574d45;}.cls-71{fill:#5c4e46;}.cls-72{fill:#ffdfb8;}.cls-73{fill:#fedbb6;}.cls-74{fill:#ecad9c;}.cls-75{fill:#0599b9;}.cls-76{fill:#02738e;}.cls-77{fill:#e3e5e5;}.cls-78,.cls-84{fill:#8c93a0;}.cls-79{fill:#e55354;}.cls-80,.cls-81,.cls-90{fill:#9a1b1f;}.cls-82{fill:#ee7267;}.cls-83{fill:#eead9f;}.cls-85,.cls-86{fill:#60656e;}.cls-87{fill:#fff;}.cls-88{fill:#fce1b6;}.cls-89{fill:#fff4e7;}.cls-90{opacity:0.05;}.cls-91,.cls-92{fill:#9c1c1f;}.cls-93{fill:#34c0cb;}.cls-94{fill:#57c5cd;}.cls-95{fill:#fec44b;}.cls-96{fill:#f2b12e;}.cls-97{fill:#fcd978;}.cls-98{fill:#d93b33;}.cls-100{fill:#a77d52;}.cls-101{fill:#ffe5cc;}.cls-102{fill:#f6d3a9;}.cls-103{fill:#73625a;}</style><clipPath id="clip-path" transform="translate(-50.35)"><rect class="cls-1" y="62.83" width="1121.62" height="221.06"/></clipPath></defs><title>futuro_auto_extendido</title><g id="Layer_2" data-name="Layer 2"><g id="Layer_1-2" data-name="Layer 1"><g id="Lines"><g class="cls-2"><polygon class="cls-3" points="459.06 159.68 409.38 152.97 169.6 163.06 195.53 170.76 459.06 159.68"/><polygon class="cls-4" points="350.75 145.07 301.07 138.37 113.07 146.28 139 153.98 350.75 145.07"/><polygon class="cls-5" points="242.44 130.46 192.76 123.76 56.53 129.49 82.47 137.19 242.44 130.46"/><polygon class="cls-6" points="134.13 115.85 94.19 110.46 48.46 110.66 0 112.7 25.93 120.4 134.13 115.85"/><polygon class="cls-7" points="567.37 174.28 517.69 167.58 226.13 179.85 252.07 187.55 567.37 174.28"/><polygon class="cls-8" points="508.8 263.79 559.03 278.71 1059.71 247.13 1011.47 240.63 508.8 263.79"/><polygon class="cls-9" points="903.16 226.02 452.27 247 478.2 254.7 952.84 232.72 903.16 226.02"/><polygon class="cls-10" points="675.68 188.89 626 182.19 282.67 196.64 308.6 204.34 675.68 188.89"/><polygon class="cls-11" points="783.99 203.5 734.31 196.8 339.2 213.43 365.13 221.13 783.99 203.5"/><polygon class="cls-12" points="892.3 218.11 842.62 211.41 395.73 230.22 421.67 237.91 892.3 218.11"/></g></g><path class="cls-13" d="M893.3,171.25c3.15,0,15.52-.82,18.89-.82,14.12,0,28.46,21.29,28.46,44.41s-10.9,40.42-25,40.42H896.9c-14.12,0-25.54-17.7-26.83-40.79C868.62,188.56,879.19,171.25,893.3,171.25Z" transform="translate(-50.35)"/><path class="cls-14" d="M870.07,214.48c1.29,23.09,12.71,40.79,26.83,40.79s25-17.3,25-40.42-14.49-43.6-28.61-43.6S868.62,188.56,870.07,214.48Z" transform="translate(-50.35)"/><polygon class="cls-15" points="471.92 107.94 464.54 99.95 435.66 98.31 429.36 139.04 451.69 139.04 471.92 107.94"/><polygon class="cls-16" points="435.66 98.31 458.5 128.56 451.69 139.04 429.36 139.04 435.66 98.31"/><path class="cls-17" d="M506.34,35.74,502,29.6,554.57,17C564.1,8.7,590.52,2.56,595.13,1.33s5.84.61,5.84.61c9.83,0,29.8,5.53,32.26,6.76a6.4,6.4,0,0,1,3.07,4l-1.84,1.54c-4.3,29.49-11.67,37.48-12.29,41.17S632,100.25,632,100.25l-47-.61-10.45-42.7L538.6,32.67,518,37l-1.87-3.37Z" transform="translate(-50.35)"/><path class="cls-18" d="M518.94,37s4.28,8.89,6.45,11.06c.92.92,59.91-3.07,59.91-3.07,3.07-.61,15.67-5.84,16.9-7.07s3.38-5.84,3.69-7.37a31.8,31.8,0,0,0,0-5.53l1.23-1.84c.61-.92,3.69.31,4.92-2.15l-4.61-2.46a9.3,9.3,0,0,1-5.84,3.07c-4,.61-5.53,4.3-16.59,3.07S518.94,37,518.94,37Z" transform="translate(-50.35)"/><path class="cls-19" d="M571.08,25.91c5.72-.51,11.29-1.52,13.91-1.23,11.06,1.23,12.6-2.46,16.59-3.07a9.3,9.3,0,0,0,5.84-3.07L612,21c-1.23,2.46-4.3,1.23-4.92,2.15L605.88,25a31.8,31.8,0,0,1,0,5.53c-.31,1.54-2.46,6.14-3.69,7.37s-13.82,6.45-16.9,7.07c0,0-12.37-4.07-13.13-10.21s-3.85-6.38-3.85-6.38Z" transform="translate(-50.35)"/><path class="cls-20" d="M519.24,38.2c11.06-3.07,64.21-12.6,64.21-12.6,11.37,2.15,17.82-2.76,17.82-2.76A12.73,12.73,0,0,0,608,19.76s12.29,5.22,13.52,7.37c0,0-1.84,18.74-8,20.58s-35.33,5.84-35.33,5.84-3.63.6-11.06-7.37L553,47.11l20.89,15.67s37.18-7.63,41.17-8.29c3.69-.61,10.73-25.34,9.52-27.34-1.84-3.07-17.2-10.45-17.2-10.45-3.07,4-6.76,4-6.76,4-7.07,5.53-17.2,2.46-17.2,2.46s-2.46-.92-11.67,1.23S517.4,35.74,517.4,35.74,518.32,38.5,519.24,38.2Z" transform="translate(-50.35)"/><path class="cls-21" d="M519.55,108.86s-29.49,12.6-37.79,17.82A60.09,60.09,0,0,0,469.12,137h11.47s3.94-6.3,6.4-8.45,27-12.9,27-12.9Z" transform="translate(-50.35)"/><path class="cls-22" d="M517.25,111.47s-22.12,8.91-30.41,14.13S475.77,137,475.77,137h4.81s3.94-6.3,6.4-8.45,27-12.9,27-12.9Z" transform="translate(-50.35)"/><path class="cls-23" d="M667.58,179.83s-47.41-13.08-46.34,46.32L493.19,201s-6.05-38.09-14-32.36-10.8,7.58-11.65,31.13l-4.94-4.3s-4.1-16.38,0-32.36,20.38-19.87,26-7.58l181.51,12Z" transform="translate(-50.35)"/><path class="cls-14" d="M480.31,161.77h15.77c7.78,0,14.09,15.83,14.09,35.37s-6.31,35.37-14.09,35.37H480.31c-7.78,0-14.09-15.83-14.09-35.37S472.53,161.77,480.31,161.77Z" transform="translate(-50.35)"/><path class="cls-24" d="M616.32,222.22S618.78,244.34,620,245s6.14,0,6.14,0v5.22s-2.46.31-8-.92S503.88,223.76,502.35,221s-3.69-19-3.69-19Z" transform="translate(-50.35)"/><path class="cls-25" d="M616.32,222.22S618.78,244.34,620,245s6.14,0,6.14,0v-2.23s-3.61.84-3.84-1.08-3.38-19.89-3.38-19.89Z" transform="translate(-50.35)"/><path class="cls-14" d="M647.36,171.91c3.87,0,19.08-1,23.22-1,17.35,0,35,26.17,35,54.6s-13.4,49.7-30.76,49.7h-23c-17.35,0-31.4-21.76-33-50.14C617,193.2,630,171.91,647.36,171.91Z" transform="translate(-50.35)"/><path class="cls-26" d="M468.09,205.17l-2-.15s-7.53-56.07,12.9-50.08a9,9,0,0,0-7.83,4.45C464.71,169.84,466.86,195.34,468.09,205.17Z" transform="translate(-50.35)"/><path class="cls-27" d="M606.19,141.36,590.94,101.1s-36.06-.84-45.28.69-24.27,18.13-32.56,32-5.53,31.34-5.53,31.34c2.76,15.05,20,41.17,20,41.17L583.06,216,585,174.45Z" transform="translate(-50.35)"/><path class="cls-19" d="M520.24,141.34c-1-9,23.66-31,28.72-32s42.55-.54,42.55-.54l5.29,14.06s-6.62,9-9.72,18c-3.73,10.86,4.45,21.33,4.45,21.33-2.67,9.82-7.47,11.7-7.47,11.7l-1.59,31S557.27,201.5,547,200.2c-10.08-1.28-7.7-18.12-7.7-21.68s-3.61-11.88-6.22-16.36S521.29,151,520.24,141.34Z" transform="translate(-50.35)"/><path class="cls-28" d="M584.8,148.64a2.73,2.73,0,0,1-2.73-2.73V123.26a2.73,2.73,0,0,1,2.73-2.73h11.12l.89,2.37s-6.62,9-9.72,18a18.58,18.58,0,0,0-.9,7.68Z" transform="translate(-50.35)"/><path class="cls-29" d="M586.6,142.65V123.26a2.73,2.73,0,0,1,2.73-2.73h6.58l.9,2.38s-6.62,9-9.72,18C586.89,141.53,586.73,142.09,586.6,142.65Z" transform="translate(-50.35)"/><polygon class="cls-30" points="486.61 117.92 486.61 152.22 504.42 152.22 504.42 117.15 487.53 117.15 486.61 117.92"/><polygon class="cls-31" points="501.84 119.46 501.84 120.96 499.41 120.98 499.41 119.46 501.84 119.46"/><polygon class="cls-32" points="501.84 120.84 501.84 122.34 499.41 122.36 499.41 120.84 501.84 120.84"/><polygon class="cls-33" points="501.84 122.3 501.84 128.95 499.41 129.02 499.41 122.3 501.84 122.3"/><rect class="cls-34" x="499.41" y="128.66" width="2.43" height="15.09"/><polygon class="cls-31" points="498.45 119.46 498.45 120.96 496.02 120.98 496.02 119.46 498.45 119.46"/><polygon class="cls-32" points="498.45 120.84 498.45 122.34 496.02 122.36 496.02 120.84 498.45 120.84"/><polygon class="cls-33" points="498.45 122.3 498.45 128.95 496.02 129.02 496.02 122.3 498.45 122.3"/><rect class="cls-34" x="496.02" y="128.66" width="2.43" height="15.09"/><polygon class="cls-31" points="495.12 119.46 495.12 120.96 492.69 120.98 492.69 119.46 495.12 119.46"/><polygon class="cls-32" points="495.12 120.84 495.12 122.34 492.69 122.36 492.69 120.84 495.12 120.84"/><polygon class="cls-33" points="495.12 122.3 495.12 128.95 492.69 129.02 492.69 122.3 495.12 122.3"/><rect class="cls-34" x="492.69" y="128.66" width="2.43" height="15.09"/><polygon class="cls-31" points="491.7 119.46 491.7 120.96 489.27 120.98 489.27 119.46 491.7 119.46"/><polygon class="cls-32" points="491.7 120.84 491.7 122.34 489.27 122.36 489.27 120.84 491.7 120.84"/><polygon class="cls-33" points="491.7 122.3 491.7 128.95 489.27 129.02 489.27 122.3 491.7 122.3"/><rect class="cls-34" x="489.27" y="128.66" width="2.43" height="15.09"/><path class="cls-35" d="M520.24,141.34c1,9.65,10.21,16.33,12.83,20.81s6.22,12.8,6.22,16.36-2.38,20.4,7.7,21.68c10.28,1.3,35.48,4.74,35.48,4.74l1.59-31s4.81-1.88,7.47-11.7c0,0-8.18-10.47-4.45-21.33,3.09-9,9.72-18,9.72-18l-5.29-14.06s-37.48-.38-42.55.54a15.18,15.18,0,0,0-4.66,2.55l4.28.6s-12.06,16.13-16.44,25.58h-9.91s.86-4,4.93-10.13C522.92,133.07,519.89,138.07,520.24,141.34Zm27.27,2.46,7.22-25.19h19.82V143.8Z" transform="translate(-50.35)"/><path class="cls-36" d="M580,147.82S583.84,128,565.71,128s-18.36,7.83-18.13,13a32.21,32.21,0,0,0,1.77,9.14s-9.68,3-8.37,11.29c0,0,11.26,38.09,16.72,41.63l27,3.92,1.64-31.67,8.6-10.85S587.91,147.11,580,147.82Z" transform="translate(-50.35)"/><path class="cls-37" d="M549.35,150.1a32.21,32.21,0,0,1-1.77-9.14c-.23-5.15,0-13,18.13-13,0,0-12.21.69-11.83,9s1.69,12,1.69,12S551.52,148.85,549.35,150.1Z" transform="translate(-50.35)"/><path class="cls-37" d="M549.35,150.1s8.75-2.84,11.11,16.26c1.68,13.57,8.5,12.29,15.16,39.89l9.32,1.69,3.94-35.83s-3.07-2.57-3.43-9.87c-.62-12.8-5.43-14.41-5.43-14.41s-1.33,1.51-21.38,1.28C558.64,149.1,551.73,148.41,549.35,150.1Z" transform="translate(-50.35)"/><path class="cls-37" d="M549.35,150.1s-9.68,3-8.37,11.29c0,0,11.26,38.09,16.72,41.63l7.94,1.43a152.62,152.62,0,0,1-12.39-25.08C550,170.53,542.64,153.86,549.35,150.1Z" transform="translate(-50.35)"/><polygon class="cls-38" points="533.66 211.96 485.54 203.48 475.77 204.55 477.17 207.41 531.72 217.28 533.66 211.96"/><polygon class="cls-39" points="533.24 204.57 498.9 199.74 495.11 200.51 495.29 204.14 532.42 211.74 533.24 204.57"/><polygon class="cls-36" points="533.24 204.57 498.9 199.74 495.11 200.51 533.01 206.6 533.24 204.57"/><polygon class="cls-15" points="426.32 136.63 450.88 136.63 450.88 131.27 436.29 131.27 426.32 136.19 426.32 136.63"/><rect class="cls-40" x="476.67" y="136.19" width="24.56" height="0.44" transform="translate(-51.47 4.08) rotate(-0.48)"/><path class="cls-41" d="M490.69,130.07l4.16-1.53v2.9h0c.19.44-.57,1.2-1.7,1.69s-2.2.55-2.4.11l0-1.81Z" transform="translate(-50.35)"/><ellipse class="cls-15" cx="492.76" cy="129.3" rx="2.24" ry="0.87" transform="translate(-60.63 209.8) rotate(-23.79)"/><path class="cls-41" d="M492.08,128.62l1.17-.43v.8h0c0,.12-.22.28-.48.41a.63.63,0,0,1-.69,0Z" transform="translate(-50.35)"/><ellipse class="cls-15" cx="492.67" cy="128.4" rx="0.63" ry="0.24" transform="translate(-60.28 209.68) rotate(-23.79)"/><path class="cls-41" d="M496.33,130.07l4.16-1.53v2.9h0c.19.44-.57,1.2-1.7,1.69s-2.2.55-2.4.11l0-1.81Z" transform="translate(-50.35)"/><ellipse class="cls-15" cx="498.41" cy="129.3" rx="2.24" ry="0.87" transform="translate(-60.15 212.07) rotate(-23.79)"/><path class="cls-41" d="M497.73,128.62l1.17-.43v.8h0c0,.12-.22.28-.48.41a.63.63,0,0,1-.69,0Z" transform="translate(-50.35)"/><ellipse class="cls-15" cx="498.31" cy="128.4" rx="0.63" ry="0.24" transform="translate(-59.8 211.96) rotate(-23.79)"/><path class="cls-42" d="M467.32,136.51s26.42.84,28.88-.92c1.08-.77,25.35-32.41,33-36.1S692.68,101.6,701.12,103c9.27,1.56,76.5,34.41,76.5,34.41S929.68,155.86,938,161.08c5.13,3.23,11.37,20.89,11.37,20.89,2.15.61,4,1.84,4,4.3v20.89s-194.47,30.41-212,22.73l-49.46,3.69s-14.44-58.37-45.16-61.75-32.26,34.41-30.41,50.38l-34.48-5L584.07,174l3.38-4.3,17.44-31.52L591,101.78s-37.24-1.33-45.29,0c-9.22,1.54-24.27,18.13-32.56,32s-5.53,31.34-5.53,31.34c2.76,15.05,20.69,42.47,20.69,42.47l-29.6-5.61c-4.92-19-6.51-43.15-19.66-47-20.43-6-12.9,50.08-12.9,50.08L463,203.79c-3.07-1.84-5.84-21.81-8.29-35S467.32,136.51,467.32,136.51Z" transform="translate(-50.35)"/><path class="cls-17" d="M581.84,217.25,584.07,174l3.38-4.3,17.44-31.52L746.74,165l-8.5,36.2,30.93,26.52-27.8,2.2-49.46,3.69s-7.61-30.75-23.52-48.9l-.06-.07-.24-.26a45.68,45.68,0,0,0-10.43-8.8,29.18,29.18,0,0,0-6.43-2.8l.79.16a19,19,0,0,0-4.65-1h0a25.82,25.82,0,0,1,3.87.83l-4.12-.83q-.81,0-1.58,0c.78-.07,1.23-.07,1.23-.07-30.72-3.38-32.26,34.41-30.41,50.38Z" transform="translate(-50.35)"/><path class="cls-27" d="M921.22,157.16c9.1,1.61,15.26,3,16.76,3.92,5.13,3.23,11.37,20.89,11.37,20.89,2.15.61,4,1.84,4,4.3V191s-164.53,14.15-175.27,13.29S736.14,201,736.14,201s-.7-7.07-.26-7.76,1.83-1.65,2.33-2.8,7-24,8.53-25.49S921.22,157.16,921.22,157.16Z" transform="translate(-50.35)"/><path class="cls-24" d="M914,210.55l7.74,5.53a1.74,1.74,0,0,1,.71,1.66l-1.08,7.55c-.54,4.69,3.07,5.22,4.3,6.45s4,4-3.38,5.22S789,259.21,766.24,259.39c-19.2.15-49.31-1.69-60.37-1.69-6.14,0-16.74-20.12-16.44-24.73Z" transform="translate(-50.35)"/><path class="cls-24" d="M770.47,195.44c39.7,2.53,170.88-10.53,170.88-10.53l-1.95-21.56-168.93,6.43Z" transform="translate(-50.35)"/><path class="cls-43" d="M817.92,169.84l-19.59.78a1.47,1.47,0,0,0-1.37,1.53l.52,18.21A1.46,1.46,0,0,0,799,191.8l19.59-1.33a1.47,1.47,0,0,0,1.33-1.52l-.52-17.67A1.46,1.46,0,0,0,817.92,169.84Z" transform="translate(-50.35)"/><path class="cls-44" d="M793.42,170.95l-19.82.79a1.49,1.49,0,0,0-1.38,1.54l.53,18.4a1.48,1.48,0,0,0,1.58,1.45l19.82-1.34a1.49,1.49,0,0,0,1.34-1.54L795,172.4A1.48,1.48,0,0,0,793.42,170.95Z" transform="translate(-50.35)"/><path class="cls-13" d="M466.22,197.14c0,19.53,6,35.37,13.48,35.37s13.48-15.83,13.48-35.37-5.81-35.37-13.26-35.37S466.22,177.61,466.22,197.14Z" transform="translate(-50.35)"/><ellipse class="cls-45" cx="428.8" cy="198.87" rx="9.37" ry="24.58"/><path class="cls-46" d="M732.45,201.94l-.92,17.51,53.15,6.14s158.22-13.21,174.5-20.28V191.5l-78,7.68s-96.16,8.91-105.68,7.07Z" transform="translate(-50.35)"/><path class="cls-25" d="M724.71,226.26V195.45a24.49,24.49,0,0,1,9.74-.88v30.26S728.76,224.52,724.71,226.26Z" transform="translate(-50.35)"/><path class="cls-47" d="M906.18,212.85s-.38,16.34-2.3,17.36C901.27,231.59,802,246,798,243.26s-5.53-19.66-5.53-19.66Z" transform="translate(-50.35)"/><path class="cls-46" d="M518.32,206.94l61.83,11.6v5.53l-61.83-11.62a2.83,2.83,0,0,1-2.76-2.76A2.76,2.76,0,0,1,518.32,206.94Z" transform="translate(-50.35)"/><circle class="cls-48" cx="529.8" cy="221.31" r="2.76"/><path class="cls-38" d="M780.43,203c-6.76.18-49.51-3.79-49.51-3.79a3.54,3.54,0,0,0-.31,4.61s45.72,5,48.85,4.92c72.2-2.46,173.88-15.05,173.88-15.05s9.22-.61,9.22-3.69c0-3.69-7.52-3.11-7.52-3.11l-.05,2.7C939.82,191.5,809.32,202.2,780.43,203Z" transform="translate(-50.35)"/><path class="cls-38" d="M959.18,202.86s3.38-.61,3.38,2.15c0,2-2.92,2.51-2.92,2.51-19.1,5.33-58.49,9.66-73.27,11,0,0-94,9.52-106.91,8.6s-48.23-4.61-48.23-4.61-1.69-2.92.31-4.92c0,0,43.85,4,48.54,4.3,11.67.69,102.51-8,101.23-8.1C881.3,213.81,957.33,206.49,959.18,202.86Z" transform="translate(-50.35)"/><path class="cls-44" d="M937.9,165.08l-12.19.63a1.11,1.11,0,0,0-.85,1.23l.32,14.62c0,.68.46,1.21,1,1.15l12.19-1.07a1.12,1.12,0,0,0,.83-1.22l-.32-14.19C938.83,165.56,938.4,165,937.9,165.08Z" transform="translate(-50.35)"/><path class="cls-43" d="M922.65,166l-12.33.65a1.13,1.13,0,0,0-.86,1.26l.33,15c0,.7.46,1.24,1,1.18L923.1,183a1.15,1.15,0,0,0,.84-1.26l-.33-14.54C923.59,166.47,923.16,165.93,922.65,166Z" transform="translate(-50.35)"/><polygon class="cls-46" points="775.04 169.38 776.36 194.18 785.07 195.77 865.76 188.84 859.93 165.35 775.04 169.38"/><polygon class="cls-47" points="775.04 169.38 785.07 195.77 776.36 194.18 775.04 169.38"/><path class="cls-25" d="M646.74,171.84c-30.72-3.38-32.26,34.41-30.41,50.38l2.61-.46s-2.15-19,4-33.79C629.62,171.91,646.74,171.84,646.74,171.84Z" transform="translate(-50.35)"/><path class="cls-13" d="M618.79,225.07c1.59,28.39,15.63,50.14,33,50.14s30.76-21.27,30.76-49.7-17.82-53.6-35.17-53.6S617,193.2,618.79,225.07Z" transform="translate(-50.35)"/><path class="cls-45" d="M628.61,226.08c1,18.45,10.16,32.59,21.44,32.59s20-13.82,20-32.3-11.46-35.49-22.74-35.49S627.45,205.37,628.61,226.08Z" transform="translate(-50.35)"/><polygon class="cls-39" points="684.1 194.57 677.95 195.95 630.49 189.35 638.02 188.32 684.1 194.57"/><path class="cls-49" d="M609.21,137.36l-14.66-35.63S691,104.33,700.72,105c5.92.38,68.9,32.46,68.9,32.46Z" transform="translate(-50.35)"/><polygon class="cls-36" points="630.64 220.22 678.41 228.36 677.95 195.95 630.49 189.35 630.64 220.22"/><path class="cls-50" d="M712.27,224.46l7.8,1a1.5,1.5,0,0,0,1.48-1.53V198.16a1.5,1.5,0,0,0-1.48-1.53l-7.8-1a1.5,1.5,0,0,0-1.48,1.53v25.76A1.5,1.5,0,0,0,712.27,224.46Z" transform="translate(-50.35)"/><path class="cls-50" d="M686.83,209.9l12,1.57a1.06,1.06,0,0,0,1.2-1.06V195.08a1.06,1.06,0,0,0-1-1.06l-12-1.35a1.06,1.06,0,0,0-1.16,1.06v15.11A1.06,1.06,0,0,0,686.83,209.9Z" transform="translate(-50.35)"/><ellipse class="cls-51" cx="602.43" cy="226.49" rx="9.06" ry="14.67"/><path class="cls-51" d="M485.6,188.55c.91,0,1.74.81,2.39,2.16a61.61,61.61,0,0,1,.53,8.16c0,2.05-.1,4-.28,5.95-.68,1.69-1.61,2.73-2.64,2.73-2.08,0-3.76-4.25-3.76-9.5S483.52,188.55,485.6,188.55Z" transform="translate(-50.35)"/><text class="cls-52" transform="matrix(-0.68, 0.05, 0.08, 1, 836.2, 179.97)">D</text><text class="cls-52" transform="matrix(-0.68, 0.05, 0.08, 1, 830.34, 180.42)">M</text><text class="cls-52" transform="matrix(-0.68, 0.05, 0.08, 1, 822.54, 181.02)">C</text><path class="cls-53" d="M885.7,200.34c-.14-1.28-.69-4-2.84-4.29a5.37,5.37,0,0,1,3.66-.29c1.46.41,2.08,2.8,2.31,4.1a1.55,1.55,0,0,1-.46,1.4l0,0a1.56,1.56,0,0,1-2,.14h0A1.56,1.56,0,0,1,885.7,200.34Z" transform="translate(-50.35)"/><path class="cls-54" d="M884,195.68a5,5,0,0,1,1.21-.1c.33,0,2.14.53,2.58,3.42.12.78.23,1.73-.29,1.83s-.61-1-.73-1.7-.67-3.32-2.77-3.45" transform="translate(-50.35)"/><path class="cls-53" d="M896.5,199.39c-.14-1.28-.69-4-2.84-4.29a5.37,5.37,0,0,1,3.66-.29c1.46.41,2.08,2.8,2.31,4.1a1.55,1.55,0,0,1-.46,1.4l0,0a1.56,1.56,0,0,1-2,.14h0A1.56,1.56,0,0,1,896.5,199.39Z" transform="translate(-50.35)"/><path class="cls-54" d="M894.83,194.72a5,5,0,0,1,1.21-.1c.33,0,2.14.53,2.58,3.42.12.78.23,1.73-.29,1.83s-.61-1-.73-1.7-.67-3.32-2.77-3.45" transform="translate(-50.35)"/><path class="cls-55" d="M810.78,205.71c-.14-1.28-.69-4-2.84-4.29a5.37,5.37,0,0,1,3.66-.29c1.46.41,2.08,2.8,2.31,4.1a1.55,1.55,0,0,1-.46,1.4l0,0a1.56,1.56,0,0,1-2,.14h0A1.56,1.56,0,0,1,810.78,205.71Z" transform="translate(-50.35)"/><path class="cls-54" d="M809.11,201a5,5,0,0,1,1.21-.1c.33,0,2.14.53,2.58,3.42.12.78.23,1.73-.29,1.83s-.61-1-.73-1.7-.67-3.32-2.77-3.45" transform="translate(-50.35)"/><path class="cls-53" d="M921.41,197.27c-.14-1.28-.69-4-2.84-4.29a5.37,5.37,0,0,1,3.66-.29c1.46.41,2.08,2.8,2.31,4.1a1.55,1.55,0,0,1-.46,1.4l0,0a1.56,1.56,0,0,1-2,.14h0A1.56,1.56,0,0,1,921.41,197.27Z" transform="translate(-50.35)"/><path class="cls-54" d="M919.74,192.6a5,5,0,0,1,1.21-.1c.33,0,2.14.53,2.58,3.42.12.78.23,1.73-.29,1.83s-.61-1-.73-1.7-.67-3.32-2.77-3.45" transform="translate(-50.35)"/><path class="cls-53" d="M950.16,205.35c.15,1.28.23,4-1.8,4.82a5.37,5.37,0,0,0,3.63-.54c1.33-.73,1.39-3.2,1.33-4.51a1.55,1.55,0,0,0-.76-1.26l-.06,0a1.56,1.56,0,0,0-2,.31h0A1.56,1.56,0,0,0,950.16,205.35Z" transform="translate(-50.35)"/><path class="cls-54" d="M949.59,210.27a5,5,0,0,0,1.2-.17c.32-.09,2-1,1.74-3.92-.06-.79-.17-1.74-.7-1.72s-.36,1.16-.33,1.82.09,3.38-1.92,4" transform="translate(-50.35)"/><path class="cls-55" d="M762.52,206.23c-.07-1.29-.56-3.58,1.51-4.24a4.38,4.38,0,0,0-3.66,0c-1.37.64-1,3-1,4.32a1.55,1.55,0,0,0,.68,1.3l.06,0a1.56,1.56,0,0,0,2-.19h0A1.56,1.56,0,0,0,762.52,206.23Z" transform="translate(-50.35)"/><path class="cls-54" d="M763.08,201.65a4.14,4.14,0,0,0-1.19-.09c-.33,0-1.72.76-1.68,3.69,0,.79.06,1.76.59,1.76s.39-1.14.4-1.8S761,202.13,763.08,201.65Z" transform="translate(-50.35)"/><path class="cls-53" d="M737.49,204.15c-.07-1.29-.56-3.58,1.51-4.24a4.38,4.38,0,0,0-3.66,0c-1.37.64-1,3-1,4.32a1.55,1.55,0,0,0,.68,1.3l.06,0a1.56,1.56,0,0,0,2-.19h0A1.56,1.56,0,0,0,737.49,204.15Z" transform="translate(-50.35)"/><path class="cls-54" d="M738.05,199.58a4.14,4.14,0,0,0-1.19-.09c-.33,0-1.72.76-1.68,3.69,0,.79.06,1.76.59,1.76s.39-1.14.4-1.8S736,200.05,738.05,199.58Z" transform="translate(-50.35)"/><circle class="cls-56" cx="735.38" cy="183.2" r="6.78"/><ellipse class="cls-56" cx="882.21" cy="175.01" rx="4.64" ry="5.44"/><path class="cls-53" d="M906.8,190.75s10.48-1.11,11.55-.48c2.65,1.55,3,5.24,3,5.24l-6.21.48s-1.32-2.5-1.71-2.47L907,194h0a1.63,1.63,0,1,1-.25-3.25Z" transform="translate(-50.35)"/><path class="cls-55" d="M905.3,192.5a1.62,1.62,0,0,1,.13-.78s7.27-.66,7.84-.55c3.13.59,3.86,4.66,3.86,4.66l-2,.15s-1.32-2.5-1.71-2.47L907,194h0A1.63,1.63,0,0,1,905.3,192.5Z" transform="translate(-50.35)"/><path class="cls-53" d="M852.67,194.93s10.52-.64,11.56,0c2.58,1.67,2.76,5.37,2.76,5.37l-6.23.2s-1.2-2.56-1.6-2.55l-6.38.21h0a1.63,1.63,0,0,1-.11-3.26Z" transform="translate(-50.35)"/><path class="cls-55" d="M851.09,196.61a1.62,1.62,0,0,1,.16-.77s7.3-.33,7.85-.2c3.1.73,3.65,4.83,3.65,4.83l-2,.07s-1.2-2.56-1.6-2.55l-6.38.21h0A1.63,1.63,0,0,1,851.09,196.61Z" transform="translate(-50.35)"/><path class="cls-53" d="M855.32,202.53c-.14-1.28-.69-4-2.84-4.29a5.37,5.37,0,0,1,3.66-.29c1.46.41,2.08,2.8,2.31,4.1a1.55,1.55,0,0,1-.46,1.4l0,0a1.56,1.56,0,0,1-2,.14h0A1.56,1.56,0,0,1,855.32,202.53Z" transform="translate(-50.35)"/><path class="cls-54" d="M853.65,197.87a5,5,0,0,1,1.21-.1c.33,0,2.14.53,2.58,3.42.12.78.23,1.73-.29,1.83s-.61-1-.73-1.7-.67-3.32-2.77-3.45" transform="translate(-50.35)"/><path class="cls-53" d="M945.12,187.4s10.45-1.39,11.53-.79c2.69,1.48,3.13,5.16,3.13,5.16l-6.2.65s-1.38-2.47-1.78-2.43l-6.35.66h0a1.63,1.63,0,1,1-.34-3.24Z" transform="translate(-50.35)"/><path class="cls-55" d="M943.66,189.19a1.62,1.62,0,0,1,.11-.78s7.25-.85,7.82-.76c3.15.51,4,4.55,4,4.55l-2,.21s-1.38-2.47-1.78-2.43l-6.35.66h0A1.63,1.63,0,0,1,943.66,189.19Z" transform="translate(-50.35)"/><path class="cls-53" d="M949.85,194.67c-.14-1.28-.69-4-2.84-4.29a5.37,5.37,0,0,1,3.66-.29c1.46.41,2.08,2.8,2.31,4.1a1.55,1.55,0,0,1-.46,1.4l0,0a1.56,1.56,0,0,1-2,.14h0A1.56,1.56,0,0,1,949.85,194.67Z" transform="translate(-50.35)"/><path class="cls-54" d="M948.18,190a5,5,0,0,1,1.21-.1c.33,0,2.14.53,2.58,3.42.12.78.23,1.73-.29,1.83s-.61-1-.73-1.7-.67-3.32-2.77-3.45" transform="translate(-50.35)"/><path class="cls-53" d="M792.51,199.25s10.52-.6,11.56.08c2.57,1.68,2.74,5.38,2.74,5.38l-6.23.18s-1.19-2.57-1.59-2.55l-6.38.18h0a1.63,1.63,0,0,1-.09-3.26Z" transform="translate(-50.35)"/><path class="cls-55" d="M790.93,200.93a1.62,1.62,0,0,1,.17-.77s7.3-.3,7.86-.17c3.1.74,3.63,4.84,3.63,4.84l-2,.06s-1.19-2.57-1.59-2.55l-6.38.18h0A1.63,1.63,0,0,1,790.93,200.93Z" transform="translate(-50.35)"/><path class="cls-55" d="M793.6,206.72c-.14-1.28-.69-4-2.84-4.29a5.37,5.37,0,0,1,3.66-.29c1.46.41,2.08,2.8,2.31,4.1a1.55,1.55,0,0,1-.46,1.4l0,0a1.56,1.56,0,0,1-2,.14h0A1.56,1.56,0,0,1,793.6,206.72Z" transform="translate(-50.35)"/><path class="cls-54" d="M791.93,202.05a5,5,0,0,1,1.21-.1c.33,0,2.14.53,2.58,3.42.12.78.23,1.73-.29,1.83s-.61-1-.73-1.7-.67-3.32-2.77-3.45" transform="translate(-50.35)"/><path class="cls-57" d="M695.43,137.4l-86.23,0-14.66-35.63s22.5.61,43.69,1.21Z" transform="translate(-50.35)"/><path class="cls-24" d="M511.51,135.23l.69.16c15.32-25.31,28.19-32.68,33.46-33.59,0,0,6.11-1.54,45.29,0l1.27,3.32s-42.1-.65-45,.38c-15.82,5.61-31,30.8-31,30.8-1.84,2.33-.48,14.58,7.22,22.43,10.29,10.48,12.21,18.66,11.21,29.34a41.72,41.72,0,0,0,1.28,15.44l-9.5,1s-17.91-23.07-19.26-38.51S507.72,142,511.51,135.23Z" transform="translate(-50.35)"/><path class="cls-17" d="M513.1,133.74c-8.29,13.82-5.53,31.34-5.53,31.34,2.76,15.05,20.69,42.47,20.69,42.47l-29.6-5.61c-4.92-19-6.51-43.15-19.66-47-20.43-6-12.9,50.08-12.9,50.08L463,203.79c-3.07-1.84-5.84-21.81-8.29-35s12.6-32.26,12.6-32.26,26.42.84,28.88-.92Z" transform="translate(-50.35)"/><path class="cls-53" d="M922,209.88c.15,1.28.23,4-1.8,4.82a5.37,5.37,0,0,0,3.63-.54c1.33-.73,1.39-3.2,1.33-4.51a1.55,1.55,0,0,0-.76-1.26l-.06,0a1.56,1.56,0,0,0-2,.31h0A1.56,1.56,0,0,0,922,209.88Z" transform="translate(-50.35)"/><path class="cls-54" d="M921.4,214.8a5,5,0,0,0,1.2-.17c.32-.09,2-1,1.74-3.92-.06-.79-.17-1.74-.7-1.72s-.36,1.16-.33,1.82.09,3.38-1.92,4" transform="translate(-50.35)"/><path class="cls-53" d="M897,212.88c.15,1.28.23,4-1.8,4.82a5.37,5.37,0,0,0,3.63-.54c1.33-.73,1.39-3.2,1.33-4.51a1.55,1.55,0,0,0-.76-1.26l-.06,0a1.56,1.56,0,0,0-2,.31h0A1.56,1.56,0,0,0,897,212.88Z" transform="translate(-50.35)"/><path class="cls-54" d="M896.41,217.8a5,5,0,0,0,1.2-.17c.32-.09,2-1,1.74-3.92-.06-.79-.17-1.74-.7-1.72s-.36,1.16-.33,1.82.09,3.38-1.92,4" transform="translate(-50.35)"/><path class="cls-53" d="M886,214c.15,1.28.23,4-1.8,4.82a5.37,5.37,0,0,0,3.63-.54c1.33-.73,1.39-3.2,1.33-4.51a1.55,1.55,0,0,0-.76-1.26l-.06,0a1.56,1.56,0,0,0-2,.31h0A1.56,1.56,0,0,0,886,214Z" transform="translate(-50.35)"/><path class="cls-54" d="M885.45,218.87a5,5,0,0,0,1.2-.17c.32-.09,2-1,1.74-3.92-.06-.79-.17-1.74-.7-1.72s-.36,1.16-.33,1.82.09,3.38-1.92,4" transform="translate(-50.35)"/><path class="cls-53" d="M855.73,217.06c.15,1.28.23,4-1.8,4.82a5.37,5.37,0,0,0,3.63-.54c1.33-.73,1.39-3.2,1.33-4.51a1.55,1.55,0,0,0-.76-1.26l-.06,0a1.56,1.56,0,0,0-2,.31h0A1.56,1.56,0,0,0,855.73,217.06Z" transform="translate(-50.35)"/><path class="cls-54" d="M855.15,222a5,5,0,0,0,1.2-.17c.32-.09,2-1,1.74-3.92-.06-.79-.17-1.74-.7-1.72s-.36,1.16-.33,1.82.09,3.38-1.92,4" transform="translate(-50.35)"/><path class="cls-53" d="M810.8,221.27c-.08,1.29-.51,4-2.65,4.41a5.37,5.37,0,0,0,3.67.13c1.44-.47,2-2.89,2.13-4.19a1.55,1.55,0,0,0-.52-1.37l-.05,0a1.56,1.56,0,0,0-2-.05h0A1.56,1.56,0,0,0,810.8,221.27Z" transform="translate(-50.35)"/><path class="cls-54" d="M809.33,226a5,5,0,0,0,1.22,0c.33,0,2.12-.62,2.43-3.53.08-.79.15-1.74-.37-1.82s-.56,1.08-.66,1.73-.53,3.34-2.62,3.57" transform="translate(-50.35)"/><path class="cls-53" d="M793.58,222.17c.06,1.29-.08,4-2.16,4.67a5.37,5.37,0,0,0,3.66-.27c1.38-.63,1.63-3.08,1.67-4.4a1.55,1.55,0,0,0-.67-1.31l-.06,0a1.56,1.56,0,0,0-2,.16h0A1.56,1.56,0,0,0,793.58,222.17Z" transform="translate(-50.35)"/><path class="cls-54" d="M792.64,227a5,5,0,0,0,1.21-.08c.33-.06,2-.85,2-3.78,0-.79,0-1.74-.57-1.77s-.44,1.13-.46,1.79-.16,3.38-2.22,3.83" transform="translate(-50.35)"/><path class="cls-55" d="M761.29,221.23c-.27,1.26-1.09,3.46.86,4.42a4.38,4.38,0,0,1-3.62-.51c-1.26-.84-.55-3.12-.37-4.43a1.55,1.55,0,0,1,.87-1.19l.06,0A1.56,1.56,0,0,1,761,220h0A1.56,1.56,0,0,1,761.29,221.23Z" transform="translate(-50.35)"/><path class="cls-54" d="M761.16,225.84a4.14,4.14,0,0,1-1.19-.09c-.32-.09-1.59-1-1.11-3.9.13-.78.32-1.73.85-1.65s.21,1.18.13,1.84S759.21,225.06,761.16,225.84Z" transform="translate(-50.35)"/><path class="cls-53" d="M735.88,218.67c-.27,1.26-1.09,3.46.86,4.42a4.38,4.38,0,0,1-3.62-.51c-1.26-.84-.55-3.12-.37-4.43a1.55,1.55,0,0,1,.87-1.19l.06,0a1.56,1.56,0,0,1,1.93.48h0A1.56,1.56,0,0,1,735.88,218.67Z" transform="translate(-50.35)"/><path class="cls-54" d="M735.74,223.28a4.14,4.14,0,0,1-1.19-.09c-.32-.09-1.59-1-1.11-3.9.13-.78.32-1.73.85-1.65s.21,1.18.13,1.84S733.79,222.5,735.74,223.28Z" transform="translate(-50.35)"/><path class="cls-57" d="M675.5,104.1c12,.38,22.56.7,25.22.87,5.92.38,68.9,32.46,68.9,32.46l-38.66,0Z" transform="translate(-50.35)"/><path class="cls-49" d="M611.76,21.43c3.72,1.72,9,4.34,9.79,5.71,0,0-1.84,18.74-8,20.58s-35.33,5.84-35.33,5.84-3.63.6-11.06-7.37L585.29,45c3.07-.61,15.67-5.84,16.9-7.07s3.38-5.84,3.69-7.37a31.8,31.8,0,0,0,0-5.53l1.23-1.84C607.68,22.28,610.4,23.28,611.76,21.43Z" transform="translate(-50.35)"/><path class="cls-42" d="M595.13,1.33c-4.61,1.23-31,7.37-40.55,15.67L499.51,30.23l-.85-1.94A8.88,8.88,0,0,1,502,24.94a67.47,67.47,0,0,1,14.18-5.27s69-17.08,77.32-18.75Z" transform="translate(-50.35)"/><polygon class="cls-58" points="545.22 1.22 544.47 0 466.33 18.84 465.36 20.14 541.61 1.65 541.78 2.1 545.22 1.22"/><text class="cls-59" transform="matrix(-0.83, 0, 0, 1, 522.31, 138.46)">D</text><text class="cls-59" transform="matrix(-0.83, 0, 0, 1, 519.24, 138.45)">M</text><text class="cls-59" transform="matrix(-0.83, 0, 0, 1, 515.11, 138.44)">C</text><text class="cls-60" transform="matrix(-0.68, 0.05, 0.08, 1, 836.2, 179.97)">D</text><text class="cls-60" transform="matrix(-0.68, 0.05, 0.08, 1, 830.34, 180.42)">M</text><text class="cls-60" transform="matrix(-0.68, 0.05, 0.08, 1, 822.54, 181.02)">C</text><polygon class="cls-61" points="533.43 179.75 571.36 184.43 574.22 180.12 533.62 175.55 533.43 179.75"/><text class="cls-62" transform="matrix(-0.83, 0, 0, 1, 522.31, 138.46)">D</text><text class="cls-62" transform="matrix(-0.83, 0, 0, 1, 519.24, 138.45)">M</text><text class="cls-62" transform="matrix(-0.83, 0, 0, 1, 515.11, 138.44)">C</text><polygon class="cls-53" points="661.16 192.67 672.17 194.29 672.63 194.03 672.63 187.19 661.88 186.43 661.16 186.82 661.16 192.67"/><path class="cls-63" d="M577.39,221.31a2.75,2.75,0,0,1,1-2.14c20.49,4.55,26.5-29.73,29.77-41.29s25.45-19.26,38.09-20.06c18.85-1.19,23,20.26,35.22,24.13s26.84-18.42,36.16-16.83c9.91,1.69,2.12,19.13,2.12,19.13l-3.82-.33s5.49-11.17,1.4-14.83c-3.75-3.35-18.29,19.27-34.82,17.33-13.4-1.57-16-15.52-28.12-22.81-10.95-6.57-39.36,6.8-42.09,15.25-2.83,8.77-11,50-34.21,44.3A2.74,2.74,0,0,1,577.39,221.31Z" transform="translate(-50.35)"/><polygon class="cls-64" points="664.38 183.75 670.24 184.25 670.16 185.04 669.53 185 669.3 187.21 664.7 186.86 664.95 184.62 664.3 184.54 664.38 183.75"/><path class="cls-38" d="M584.74,98.63s-45.69-.76-48.4.42c-10.14,4.45-35.64,48.81-44,50s-26.34-2.11-28.58-1.44c-8.2,2.42-5.29,28.49-.14,53.22,0,0,.35,1.49,3.35,1.21l.06,1.93s-4.15.7-5.18-2.64c-1.5-4.84-11.79-53.3,1.08-56,4.12-.87,24.67,2.53,29,.6,8.33-3.69,31.82-44.38,43.34-49.5,3.69-1.64,49.9-.27,49.9-.27l-1,.32Z" transform="translate(-50.35)"/><polygon class="cls-61" points="457.64 167.02 438.63 164.89 440.03 168.18 458.65 170.49 457.64 167.02"/><path class="cls-19" d="M572.7,61.55s7.07,22.73,7.07,26.73a9,9,0,0,0,4,8c2.13,1.6,28-1,34.88-1.67A2.61,2.61,0,0,0,621,92.13c.28-6.21-3.37-22.73-4.66-26.59s-1.49-9.59-.11-12.29c0,0-2-2.76-1.73-4.6.14-.84,0-1.23-.36-1.38s-34.32,6-35.89,6a4.86,4.86,0,0,0-4.61,3.07,11.15,11.15,0,0,0-.92,5.22" transform="translate(-50.35)"/><path class="cls-18" d="M608.7,48.17s5.07-1.1,5.45-.89.46.56.32,1.36c-.31,1.84,1.73,4.6,1.73,4.6-1.38,2.71-1.17,8.46.11,12.29s4.93,20.38,4.66,26.59a2.61,2.61,0,0,1-2.34,2.47l-4.14.42s-3.78-3.66-2.47-10.35-3-25.42-3-25.42S605.84,50.07,608.7,48.17Z" transform="translate(-50.35)"/><path class="cls-61" d="M560.72,98.4a1.49,1.49,0,0,0,1.3.39c.31,0,1-.23,1-1.82,0-.51,0-1.76-1.36-1.76-.91,0-1,.44-1,.44A4.67,4.67,0,0,1,560.72,98.4Z" transform="translate(-50.35)"/><path class="cls-65" d="M562,95.24A2.75,2.75,0,0,1,562.5,97a4.37,4.37,0,0,1-.42,1.78,2.6,2.6,0,0,1-.7,0,3.82,3.82,0,0,0,0-3.53A1.77,1.77,0,0,1,562,95.24Z" transform="translate(-50.35)"/><path class="cls-61" d="M531,103.38a1.56,1.56,0,0,0,1.25-.67c.22-.24.56-.9-.62-2.07-.38-.37-1.29-1.31-2.31-.29-.67.68-.38,1-.38,1A4.89,4.89,0,0,1,531,103.38Z" transform="translate(-50.35)"/><path class="cls-65" d="M529.54,100.12a2.88,2.88,0,0,1,1.7.91,4.58,4.58,0,0,1,1,1.63,2.72,2.72,0,0,1-.54.5,4,4,0,0,0-2.62-2.6A1.85,1.85,0,0,1,529.54,100.12Z" transform="translate(-50.35)"/><path class="cls-61" d="M513.13,126.1c.46,0,.82-.3,1.25-.93.2-.29.47-1.08-1-2.16-.47-.35-1.62-1.22-2.57.05-.62.85-.25,1.19-.25,1.19A5.39,5.39,0,0,1,513.13,126.1Z" transform="translate(-50.35)"/><path class="cls-65" d="M511.06,122.77a3.17,3.17,0,0,1,2,.72,5,5,0,0,1,1.36,1.61,3,3,0,0,1-.51.63,4.41,4.41,0,0,0-3.28-2.41A2,2,0,0,1,511.06,122.77Z" transform="translate(-50.35)"/><path class="cls-61" d="M492.37,149.07a1.71,1.71,0,0,1-1.37.73c-.35.05-1.17,0-1.5-1.83-.11-.57-.4-2,1.14-2.28,1-.2,1.18.28,1.18.28A5.35,5.35,0,0,0,492.37,149.07Z" transform="translate(-50.35)"/><path class="cls-65" d="M490.28,145.79a3.15,3.15,0,0,0-.21,2.1,5,5,0,0,0,.86,1.91,3,3,0,0,0,.78-.19,4.37,4.37,0,0,1-.76-4A2,2,0,0,0,490.28,145.79Z" transform="translate(-50.35)"/><path class="cls-61" d="M463.05,147.92c0,.38-.26.66-.78,1-.24.16-.89.36-1.74-.87-.27-.39-1-1.35.1-2.09.7-.49,1-.18,1-.18A4.39,4.39,0,0,0,463.05,147.92Z" transform="translate(-50.35)"/><path class="cls-65" d="M460.39,146.16a2.58,2.58,0,0,0,.54,1.65,4.11,4.11,0,0,0,1.28,1.14,2.45,2.45,0,0,0,.53-.4,3.59,3.59,0,0,1-1.89-2.72A1.66,1.66,0,0,0,460.39,146.16Z" transform="translate(-50.35)"/><path class="cls-61" d="M457,172.65a1.23,1.23,0,0,0-.28,1.09c0,.26.22.81,1.54.75.42,0,1.46,0,1.41-1.19,0-.75-.4-.78-.4-.78A3.87,3.87,0,0,1,457,172.65Z" transform="translate(-50.35)"/><path class="cls-65" d="M459.67,173.58a2.28,2.28,0,0,1-1.44.5,3.63,3.63,0,0,1-1.49-.29,2.16,2.16,0,0,1,0-.58,3.17,3.17,0,0,0,2.92-.12A1.47,1.47,0,0,1,459.67,173.58Z" transform="translate(-50.35)"/><path class="cls-61" d="M461.7,200.78a1,1,0,0,0,0,.93c.07.2.34.61,1.39.31.34-.1,1.17-.32.91-1.24-.17-.6-.47-.55-.47-.55A3.23,3.23,0,0,1,461.7,200.78Z" transform="translate(-50.35)"/><path class="cls-65" d="M464,201a1.9,1.9,0,0,1-1.07.69,3,3,0,0,1-1.26.06,1.79,1.79,0,0,1-.11-.47,2.64,2.64,0,0,0,2.34-.67A1.22,1.22,0,0,1,464,201Z" transform="translate(-50.35)"/><path class="cls-63" d="M492.2,145.81a2.22,2.22,0,0,1,1-1.32,6.17,6.17,0,0,1,1.43-.46c-1.81,1.47,3.25,35.72,6.8,45.17,3.92,10.45,8.76,18.66,14.22,19.86a13.22,13.22,0,0,0,.64,2.46c-.56.36-9.6-.79-16.24-18.24C494.28,178.13,491.57,147.21,492.2,145.81Z" transform="translate(-50.35)"/><path class="cls-66" d="M718.09,165.21a.91.91,0,0,0-1-.43c-.33,0-1.39-.08-1.35,2.84a2.94,2.94,0,0,0,.23,1.3c.13.23.35.24.57.24a.39.39,0,0,0,.4-.3C717.08,168.47,716.69,165.62,718.09,165.21Z" transform="translate(-50.35)"/><path class="cls-66" d="M683.69,182.38a1,1,0,0,0-1.09-.49c-.38,0-1.59-.1-1.54,3.25a2.88,2.88,0,0,0,.26,1.38c.14.26.4.27.65.27a.44.44,0,0,0,.46-.34C682.54,186,682.1,182.84,683.69,182.38Z" transform="translate(-50.35)"/><path class="cls-66" d="M655.16,159.15a1.08,1.08,0,0,0-1-.66c-.4,0-1.62-.33-2.05,3.12a2.72,2.72,0,0,0,.05,1.38c.11.29.39.31.64.35a.5.5,0,0,0,.56-.28C653.49,162.61,653.46,159.4,655.16,159.15Z" transform="translate(-50.35)"/><path class="cls-66" d="M608.57,176.73c-.16-.37-.12-.64.18-1.24.18-.36,1.05-1.33,3.67,1.09a2.71,2.71,0,0,1,.87,1.09.69.69,0,0,1-.25.71.52.52,0,0,1-.62.19C612,178.34,610.07,175.8,608.57,176.73Z" transform="translate(-50.35)"/><path class="cls-66" d="M492.72,155.9c-.24-.13-.29-.14-.37-.58-.17-.92,2.12-1.2,2.56-.84a.59.59,0,0,1,.22.5c0,.37-.21.42-.21.42A3,3,0,0,0,492.72,155.9Z" transform="translate(-50.35)"/><path class="cls-66" d="M498.12,187.32c-.27-.15-.32-.15-.41-.65-.19-1,2.38-1.35,2.88-1a.66.66,0,0,1,.25.57c0,.42-.24.47-.24.47A3.43,3.43,0,0,0,498.12,187.32Z" transform="translate(-50.35)"/><path class="cls-67" d="M438.51,276.83a37.71,37.71,0,0,1,17,.19,56.32,56.32,0,0,0,17.87.82,45.17,45.17,0,0,0,8.29-1.57c2.28-.68,4.89-1.61,6.48-3.48a4.19,4.19,0,0,0,.44-5c-1.31-2-4-2.93-6.16-3.57a1.15,1.15,0,0,1-.81-1.06l-.68-5.78a12.3,12.3,0,0,1-.27-2.29c.08-1,.62-1.74.56-2.79-.06-1.22-.91-1.87-1.23-2.92-.45-1.5,1.41-3.88,2-5.13a15.42,15.42,0,0,0,1.07-2.3,3.72,3.72,0,0,0-3.59-5,1.13,1.13,0,0,1-1.1-1.1l-.91-7.76a1.06,1.06,0,0,1,.55-1c3.61-1.63,2.13-5.26,1.53-8.25l-1.32-6.61a1.12,1.12,0,0,1,.51-1.24c1.14-.5,2.49-1,2.71-2.38a9.44,9.44,0,0,0-.34-2.88c-.38-2.21-.78-4.41-1.18-6.61-.79-4.35-1.6-8.7-2.29-13.07a131.38,131.38,0,0,1-1.81-26.7,1.12,1.12,0,0,1,1.66-1,37.05,37.05,0,0,0,17.56,4.83,34.2,34.2,0,0,0,18.35-5.7,39.69,39.69,0,0,0,10.85-10,37.91,37.91,0,0,0,3.55-6,16.55,16.55,0,0,1,1.36-3.12c1-1.21,2.46-1.48,2.61-3.26a63.71,63.71,0,0,0-.21-7c0-.95-.06-1.89-.05-2.84s0-2-.11-3a8.37,8.37,0,0,0-.32-1.9c-.19-.58-.67-1.12-.79-1.7a11.16,11.16,0,0,1,.35-3.14c.15-1.32.26-2.64.34-4a67.86,67.86,0,0,0,.17-8.62,16.57,16.57,0,0,0-.76-4.1c-.31-1-1-1.81-1-2.83.06-1.73,1.44-3.75,2.12-5.28,1.09-2.48,2.4-5.55,1.63-8.29-.84-3-4.11-3.73-6.86-3.47a13.35,13.35,0,0,0-11.64,10.48,1.13,1.13,0,0,1-1.06.81,22.81,22.81,0,0,0-11,3.62A1.12,1.12,0,0,1,501,92.74a58.38,58.38,0,0,0-.19-28.33c-2.12-8.21-3.12-16.61-5-24.88-.49-2.13-1-4.25-1.65-6.35-.52-1.78-.92-4-2.15-5.46a33.9,33.9,0,0,0-7.3-5.7,139.16,139.16,0,0,0-19.36-10.38c-3.52-1.56-7.1-3-10.76-4.19-2.65-.88-5.3-1.91-8-2.58a23.32,23.32,0,0,0-11.57,0,63.71,63.71,0,0,0-10.6,3.64,136.89,136.89,0,0,0-19.22,10.36c-3.3,2.13-4.38,4.93-5.48,8.55-.81,2.7-1.55,5.4-2.19,8.15q-.71,3-1.37,6.08-.32,1.48-.63,3a7.5,7.5,0,0,1-.53,2.29c-.66,1.07-2.32,1.94-3.28,2.71-1.41,1.13-2.9,2.21-4.26,3.4-2.41,2.1-.72,5.64,2,6.51a1.12,1.12,0,0,1,.77,1.36,58.6,58.6,0,0,0-2.84,15.94,9.53,9.53,0,0,1-.7,3.23,7,7,0,0,0-.69,3.72,2.85,2.85,0,0,0,.45,1.13l2,5a58.84,58.84,0,0,0,2.11,7.86c.29.86,1.16,2.27,1.1,3.15s-.84,1.51-1.13,2.26a7.75,7.75,0,0,0,1.09,7.08,6.17,6.17,0,0,0,6.18,2.5,1.11,1.11,0,0,1,1,.55,58.81,58.81,0,0,0,8.78,9.4c1.08.92,3,1.79,3.27,3.24a22,22,0,0,0,1,4.7A1.11,1.11,0,0,1,411,132c-8.25,1.82-16.45,5.63-22.54,11.58a30.09,30.09,0,0,0-9.06,19.13A44.69,44.69,0,0,0,384,186.13a32.8,32.8,0,0,0,4.9,7.1c.85.93,1.84,1.7,2.69,2.61,1.13,1.2.38,3.05,2.42,3.66,1.8.54,3.72.78,5.55,1.22,1.43.35,2.1,1.26,3.17,2.28a36.32,36.32,0,0,0,4.62,3.79,1.12,1.12,0,0,1,.51,1.24,61.22,61.22,0,0,0-2,7.58c-.57,2.69.21,4.87,3.15,5.48a1.11,1.11,0,0,1,.81,1.06q-.63,8.81-1.36,17.6a1.12,1.12,0,0,1-.81,1.06,3.83,3.83,0,0,0-3.12,3.92c0,1.89,1.44,2.56,2.14,4.1a1.15,1.15,0,0,1-.17,1.34,4,4,0,0,0-.88,4.67c.35.76,1.14,1.36,1.25,2.2a11.3,11.3,0,0,1-.25,2.41l-.72,6.89a1.11,1.11,0,0,1-.55,1c-2.09.91-4.74,2.25-5.19,4.74-.38,2.07.87,3.72,2.53,4.79,4.63,3,11.25,3.17,16.56,3.2a61.42,61.42,0,0,0,10.47-.86C432.72,278.65,435.54,277.54,438.51,276.83Zm40.89-150.3a59,59,0,0,0,6-5h0a12.53,12.53,0,0,0,10.73-5.92q.14.29.3.57a9.91,9.91,0,0,0-.45,4,16.76,16.76,0,0,0,.71,3.36l-2.8,8.88a3.3,3.3,0,0,0-.12,1.47,4.41,4.41,0,0,1-3.22,1.2c-1.75,0-4.85-.69-9.8-3.93a3.3,3.3,0,0,0-.82-.61l-.81-.43A9.85,9.85,0,0,0,479.4,126.54Zm-46,131.77A5.38,5.38,0,0,0,435,254.1a4.88,4.88,0,0,0-.47-1.82v0l.36-.32a20,20,0,0,0,1.83-1.72l.14-.13a3.31,3.31,0,0,0,.77-1.08,4.64,4.64,0,0,0,.14-3.9,4.2,4.2,0,0,0-1.22-1.57c.68-2.78,1.42-5.74,2.24-8.93l10.18.13,3,9.74a4.35,4.35,0,0,0-.63,1.36c-.65,2.46,1,4.51,1.54,5.18l.24.27,1.36,1.35.68,2.2a4.82,4.82,0,0,0-.09,2.61,5.44,5.44,0,0,0,1.75,2.79l.81,2.64a28,28,0,0,0-6.6,2.18l-.21.11a14,14,0,0,1-6.69,2,21.22,21.22,0,0,1-6.2-1.19,26.37,26.37,0,0,0-5.66-1.61Zm-24-91.75-.37-.07a5.42,5.42,0,0,1,.52-6.57Q409.5,163.27,409.39,166.56Z" transform="translate(-50.35)"/><path class="cls-68" d="M412.13,134s-32,5.57-30.6,33.26,20.6,31.93,20.6,31.93l9.45-24.77s-17.61-13.08,4.21-22.59Z" transform="translate(-50.35)"/><path class="cls-68" d="M466.63,147.14s20.29,23.47,44.2,9.42c21.2-12.46,18.38-34.13,18.38-34.13l-29.31,3.3s-.12,22.63-22.11,7.43Z" transform="translate(-50.35)"/><path class="cls-69" d="M470.12,142.77l-3.49,4.37s20.29,23.47,44.2,9.42c21.2-12.46,18.38-34.13,18.38-34.13l-8.95,1s-2,18.78-15.38,26.6C487.22,160.35,470.12,142.77,470.12,142.77Z" transform="translate(-50.35)"/><path class="cls-70" d="M506.53,125l-6.63.75s-.12,22.63-22.11,7.43l-2.94,3.68s9.93,14,21.64,8.42S506.53,125,506.53,125Z" transform="translate(-50.35)"/><path class="cls-71" d="M486.86,159.9a37,37,0,0,1,1.51-21.71,11.06,11.06,0,0,0,3.78.09h0s-.6,19.23,2.58,22.76A29.92,29.92,0,0,1,486.86,159.9Z" transform="translate(-50.35)"/><path class="cls-71" d="M476.42,155.22s2.65-15,5.39-19.56c0,0-2-1.1-3.51-2.15,0,0-5,13.08-4.45,20C473.85,153.52,475.83,154.89,476.42,155.22Z" transform="translate(-50.35)"/><path class="cls-68" d="M499.89,124.5l-2.81,8.92s13.47,17.32,32.53,1.81l-.39-12.8S516.89,134.72,499.89,124.5Z" transform="translate(-50.35)"/><path class="cls-69" d="M413.39,140.11,412.13,134s-32,5.57-30.6,33.26,20.6,31.93,20.6,31.93l3.14-8.23s-13.47-5.56-14.42-23.7S403,140.41,413.39,140.11Z" transform="translate(-50.35)"/><path class="cls-71" d="M408,135s3.76,13.37,3.58,19l4.23-2.17L412.13,134S409,134.63,408,135Z" transform="translate(-50.35)"/><path class="cls-70" d="M414.29,144.55l1.49,7.28c-21.83,9.5-4.21,22.59-4.21,22.59l-3.42,9s-17-10.18-9.52-26.55A21.47,21.47,0,0,1,414.29,144.55Z" transform="translate(-50.35)"/><path class="cls-72" d="M415.82,171.36a11.68,11.68,0,0,1,6.42.78l-.84,4.07c-5.2,2.86-1.75,8-1.75,8s12.88,2.49,13.3,5.74c.38,2-.48,7.75-9.69,7.85.11,4.78-4.63,5.7-6,5.62,0,1.42-.95,4.19-4.59,3.77-2.42-.79-6.6-3.44-10.74-8.13C401.9,199,402.47,175.12,415.82,171.36Z" transform="translate(-50.35)"/><path class="cls-7" d="M420.75,266.86c6.76-.19,12.71.7,16,2.19,6.25,1.95,9.85,2.06,15.59-1l.07,0,.06,0h0c3.24-1.65,9.07-2.86,15.76-3,10.29-.3,18.7,1.92,18.79,4.94s-8.18,5.72-18.47,6a50.06,50.06,0,0,1-12.67-1.09h0a37.72,37.72,0,0,0-20.81.68h0a46.37,46.37,0,0,1-14,2.3c-10.29.3-18.7-1.92-18.79-4.94S410.46,267.16,420.75,266.86Z" transform="translate(-50.35)"/><path class="cls-73" d="M466.44,122.68l.74,11.11c-14.72,16.69-24.9,15.56-45.82,9l.07-21.1Z" transform="translate(-50.35)"/><path class="cls-74" d="M444.85,132.61l.93,3.52c-4,.15-3.6,4.74.38,4.77-2.67-1.95-1.91-4,.72-3.93l-.75-4.73Z" transform="translate(-50.35)"/><path class="cls-75" d="M480.06,268.88c-6.9,3.73-12.05,4.14-16.7,1.36l-11.92-38.77-15.18-.19c-4.26,16.42-7.6,30.83-8.73,40.31-7.63,4.66-15.42,3.2-19.93-.44,2.27-19.68,4-42.1,5.54-65.66l58.36.39,2.95,15Z" transform="translate(-50.35)"/><polygon class="cls-76" points="422.73 207.38 426.79 243.13 421.57 271.88 413.34 209.66 422.73 207.38"/><path class="cls-76" d="M418.33,211.15c7.14,1.6,10.08,1.88,15.64,1.27l-.38-2.29,16.62.85.26-5-17.37.5-15.64-1Z" transform="translate(-50.35)"/><polygon class="cls-76" points="366.56 216.7 361.85 219.45 361.9 217.27 366.56 216.7"/><path class="cls-77" d="M411.26,205.3s-2.73,6.22-3.16,10.52c-1.66,3.77,3,3.94,4.14,1.45a11.79,11.79,0,0,0,4.66-.58l2.16-8.42Z" transform="translate(-50.35)"/><path class="cls-78" d="M411.26,205.3c-.63,1.49-1.28,3.29-1.95,5.23a17.46,17.46,0,0,0,8.62,2.15l1.13-4.4Z" transform="translate(-50.35)"/><path class="cls-79" d="M425.55,207.15c13.22,3.81,27.88.5,42.86-3.25-3.27-22.81-4.24-42.26-2.61-69.31-14.87,5.75-23,7.8-31.55,3C426,166.87,416.76,192.4,425.55,207.15Z" transform="translate(-50.35)"/><path class="cls-80" d="M444.45,143.3A23.1,23.1,0,0,1,434,140.9l.2-.4a23.72,23.72,0,0,0,17.22,1.34l.13.43A24.8,24.8,0,0,1,444.45,143.3Z" transform="translate(-50.35)"/><path class="cls-81" d="M442.16,208.76c-6.2-24.28-9.58-46.87-7.54-69.3-5.1,18.86-5.3,44.49-4.89,69.54Z" transform="translate(-50.35)"/><path class="cls-82" d="M435.45,136.87c-7.09,24.25-7.07,64.93-4.82,73.54-8.72,1.12-16.59-2.46-22.47-6.27,4.67-17.6,5.6-46.82,4-70.16l3-2.25Z" transform="translate(-50.35)"/><path class="cls-83" d="M412.13,134a60.78,60.78,0,0,0,19,3.36l-14.31,8.56-.12,8.33-3.49,6.12Z" transform="translate(-50.35)"/><path class="cls-81" d="M414.11,132.5c8.62,3.94,16,5.83,20.55,4.31l-19.53-5.08Z" transform="translate(-50.35)"/><path class="cls-68" d="M429.66,204.41l1.45,6c-9.31,1.2-17.49-2.42-23-6.27l1.16-5C414,201.47,417.11,204.07,429.66,204.41Z" transform="translate(-50.35)"/><path class="cls-76" d="M450,212.46a43.62,43.62,0,0,0,13.85,2.5l9,.54-7.76-3.79Z" transform="translate(-50.35)"/><path class="cls-77" d="M474.71,205.74,478,222c1.52,3.89-2.41,3.5-3.24,2.13-2.33,1.72-4.93,1-7.64-.76l-4.69-12.21Z" transform="translate(-50.35)"/><path class="cls-78" d="M463.84,215,475,216.08l1.78,9c1.24.27,2-.75,1.17-3.09l-2.54-12.69-12.7,2.73Z" transform="translate(-50.35)"/><path class="cls-82" d="M450.63,136.52c-1.82,22.43-2.73,60.38-.28,75.78,8.42.19,22.81-.61,29-4-3.8-23.26-10.37-45.2-.92-74.81l-4-2.14-.92-3.92Z" transform="translate(-50.35)"/><path class="cls-68" d="M449.78,205.3c5.09.79,18.28,1.36,28.71-1.84l.83,4.84c-5.88,3.19-18.75,4.45-29,4Z" transform="translate(-50.35)"/><path class="cls-68" d="M450,212.35a383.33,383.33,0,0,1,.28-75.86l.73.07a382.54,382.54,0,0,0-.28,75.71Z" transform="translate(-50.35)"/><path class="cls-81" d="M416.8,146.73l.07,2.6a24.33,24.33,0,0,0,11.67,1.09L429,146Z" transform="translate(-50.35)"/><path class="cls-81" d="M469.9,149.08l-.57,3c-5.1.62-9.86.54-13.91-1.08l-.36-1.29Z" transform="translate(-50.35)"/><path class="cls-81" d="M466.36,132.65l-15.73,3.87a60.17,60.17,0,0,0,17.6-2l2.41,2.4c-.69,7.42-1.23,14.19-1.52,21.39,0,.41-6.3,2.59-13.73.92A25.78,25.78,0,0,0,469,163.1a451.75,451.75,0,0,0,1.14,47.82l9.16-2.63c-5.71-25-8.17-54.25-.92-74.81l-4-2.14-.64-2.74Z" transform="translate(-50.35)"/><path class="cls-68" d="M461.07,160.39a23.07,23.07,0,0,1-5.81-.71l-.34-.1.07-13.91,15.36.7-.77,12.25-.26.12A20.16,20.16,0,0,1,461.07,160.39Zm-5.21-1.53c1.46.34,7.34,1.47,12.81-.87l.67-10.72-13.42-.61Z" transform="translate(-50.35)"/><path class="cls-68" d="M423.15,158.2a14.17,14.17,0,0,1-6.52-1.47l-.24-.12,0-11.14,13.1.13-1.18,11.86-.28.09A17.91,17.91,0,0,1,423.15,158.2Zm-5.89-2.13c4.2,2,9,1,10.21.72l1-10.32-11.26-.11Z" transform="translate(-50.35)"/><polygon class="cls-76" points="385.91 231.28 401.1 231.46 373.06 226.64 376.8 232.42 365.44 273.65 381.02 250.7 385.91 231.28"/><path class="cls-84" d="M463.44,248.93c-3.36-2.41-6-3.57-7.64-3.31-1.28.5-2,1.31-.33,3.32l1.94,1.93,6,19.36c5.46,3.3,11,1.79,16.7-1.36l-2.43-20.77,3.28-6.58c.85-2.08-1.13-3.31-3.34-1.5-2.32,4.1-2.91,7-4.14,10.55l-.55,13.59c-.75.6-2,.67-3.56.29Z" transform="translate(-50.35)"/><path class="cls-85" d="M457.41,250.87l3.25,2.61,5.31,17.9a5.28,5.28,0,0,1-2.6-1.15Z" transform="translate(-50.35)"/><path class="cls-77" d="M462.12,244.19l7.2,20.25c2.06.42,3.06.22,3.56-.29l.77-22.54C471.75,243.17,467.94,244,462.12,244.19Z" transform="translate(-50.35)"/><path class="cls-86" d="M469.82,243.34l1.62,21.33c.42,0,1.36-.19,1.44-.51l.77-22.54A10.52,10.52,0,0,1,469.82,243.34Z" transform="translate(-50.35)"/><path class="cls-85" d="M459.64,258.11l.3,1c10.27.14,15.59-1.22,18.51-4L478.2,253Z" transform="translate(-50.35)"/><path class="cls-85" d="M466.56,260.84a7.83,7.83,0,0,0,7.9-.94Z" transform="translate(-50.35)"/><path class="cls-85" d="M467.6,263.4c2.89,1.35,5,.76,6.77-.76Z" transform="translate(-50.35)"/><path class="cls-84" d="M433.94,245.84c1.06.34,1.05,1,.7,1.83l-3.26,3-3.84,20.88c-6.86,4.08-14.35,4-19.93-.44l1.87-17.95q.1-5.64-2.63-7.65c-.57-1.84.85-3.12,1.83-2.23,2.29,1.79,3.87,4.77,4.7,9l-1.28,12.84a5.47,5.47,0,0,0,6.26.71l4.24-11.66C426.86,248.4,429.66,245.85,433.94,245.84Z" transform="translate(-50.35)"/><path class="cls-85" d="M434.81,247.13l-5.73,2.75L424,273.25a15.13,15.13,0,0,0,3.51-1.67l4-21C432.83,249.28,434.65,248,434.81,247.13Z" transform="translate(-50.35)"/><path class="cls-77" d="M425,247.54l-6.66,18.31c-1.2.88-4.85,1-6.26-.71l2-20.2A34.51,34.51,0,0,0,425,247.54Z" transform="translate(-50.35)"/><path class="cls-86" d="M420.1,246.82l-5,19.63a5.55,5.55,0,0,0,3.3-.61L425,247.54Z" transform="translate(-50.35)"/><path class="cls-85" d="M409.32,254.66l-.2,2.23c8.16,2.78,10.12,2.88,20.86,1.37l.45-2.47C422.89,256.92,415.76,256.82,409.32,254.66Z" transform="translate(-50.35)"/><path class="cls-87" d="M430.91,253.18c-12,4.29-17.1,1.17-22.34-1.8-1.39.82-1.65,2-.35,3.52,5.94,2.57,11.85,5.21,22.38,1.38C432,255.63,432.05,253.39,430.91,253.18Z" transform="translate(-50.35)"/><path class="cls-85" d="M411.55,259.79c2.77,2.64,5.89,2.77,9.19,1.62Z" transform="translate(-50.35)"/><path class="cls-85" d="M411.19,263.39c2.14,2.37,5,2.78,8.67,1.27Z" transform="translate(-50.35)"/><path class="cls-87" d="M420.31,263l-.45,1.61c-3.59.74-6.75.22-8.67-1.27l.2-2C413.8,263.05,416.23,263.38,420.31,263Z" transform="translate(-50.35)"/><path class="cls-87" d="M421.14,259.72l-.41,1.68a13.67,13.67,0,0,1-9.19-1.62l.18-1.79C413.41,259,416.07,260,421.14,259.72Z" transform="translate(-50.35)"/><path class="cls-87" d="M458.6,255.3c-.85,1.2,0,2.43,1.3,3,9,.32,14.27-.82,18.45-4.06,1-1.09.86-3.19-.39-3.31C471.86,255.15,466,255,458.6,255.3Z" transform="translate(-50.35)"/><path class="cls-87" d="M474.46,259.9l.07-2.09A14.56,14.56,0,0,1,466,259.4l.59,1.45A18.48,18.48,0,0,0,474.46,259.9Z" transform="translate(-50.35)"/><path class="cls-87" d="M467.11,262.2l.48,1.2a8.48,8.48,0,0,0,6.77-.76l0-1.31A20.21,20.21,0,0,1,467.11,262.2Z" transform="translate(-50.35)"/><path class="cls-68" d="M455,141.67l14.7-.11,1.89,7.19a48.12,48.12,0,0,1-16.56.93Z" transform="translate(-50.35)"/><path class="cls-68" d="M430,141.8l-.75,5.43a43.05,43.05,0,0,1-14.33-.92l3-5.93Z" transform="translate(-50.35)"/><path class="cls-68" d="M430.27,210.49c-2.65-12.36-.86-59,4.84-73.75l.69.26c-5.67,14.68-7.44,61-4.81,73.33Z" transform="translate(-50.35)"/><polygon class="cls-68" points="422.89 130.5 423.32 132.33 427.66 134.94 427.08 136.71 422 133.23 421.02 130.14 422.89 130.5"/><path class="cls-71" d="M482.07,143.21" transform="translate(-50.35)"/><path class="cls-81" d="M416.82,156.34c4.07,3.82,7.72,3.83,11.06.79A14.71,14.71,0,0,1,416.82,156.34Z" transform="translate(-50.35)"/><path class="cls-88" d="M394.46,101.75l4.57,8.18s-4.22,2.48-6.21-1.93S394.46,101.75,394.46,101.75Z" transform="translate(-50.35)"/><path class="cls-89" d="M396.25,105a4,4,0,0,0-3.82,2,4.27,4.27,0,0,1,2-5.16Z" transform="translate(-50.35)"/><path class="cls-90" d="M396.69,105.74l-.44,4.88a5.52,5.52,0,0,0,2.78-.69Z" transform="translate(-50.35)"/><circle class="cls-79" cx="445" cy="78.89" r="55.46" transform="matrix(0.99, -0.13, 0.13, 0.99, -56.78, 57.37)"/><path class="cls-91" d="M440.28,110.88a61.09,61.09,0,0,0,53.27-58.81,55.47,55.47,0,1,1-101.2,44.26A60.92,60.92,0,0,0,440.28,110.88Z" transform="translate(-50.35)"/><path class="cls-92" d="M490.91,105.57c-4.22-3.23-12,9.21-9.42,12.36C482.93,120.06,494.62,108.4,490.91,105.57Z" transform="translate(-50.35)"/><path class="cls-93" d="M403,24.42c-3.25,8.67-6.83,28.14-6.83,28.14,20-24.71,78,25.14,102.5,12.44-2.66-7.52-3-21.32-8-35.42-4.71-6-38.59-24.82-54.06-22.8-12,2.56-24.16,10.5-30.79,14.33A6.43,6.43,0,0,0,403,24.42Z" transform="translate(-50.35)"/><path class="cls-94" d="M479.09,21.16c-5.23-3-17.23-8.55-18.65-9.19.5,4.21-17.76,8.36-13.52,11.45C452.64,27.49,469.36,18.83,479.09,21.16Z" transform="translate(-50.35)"/><path class="cls-94" d="M486.35,41.93c-5.07-15.82-25.55,6.22-20.74,10.32l18.76,10.67S487.22,51.92,486.35,41.93Z" transform="translate(-50.35)"/><path class="cls-94" d="M401.22,30.11C400,33.87,397,48.19,397,48.19l9.52-4.7c-3-2.7-1-10.81-1.44-14.29C404.86,27.11,402.46,26.69,401.22,30.11Z" transform="translate(-50.35)"/><path class="cls-94" d="M422.15,12s-12.22,6.3-16.34,9.12c6.43-.56,1.41,9.42,5.53,10.85C416.68,30.78,414.64,19.78,422.15,12Z" transform="translate(-50.35)"/><path class="cls-94" d="M436.6,6.77c-17.82,8.46-20.21,34.1-20.21,34.1l43.43,8.87c.39-11.11,9-10.5,9.87-17.72-.6-7.65-25-2.46-28.78-8.44s16.69-11.84,9.94-15C450.85,8.61,442.55,4.91,436.6,6.77Z" transform="translate(-50.35)"/><path class="cls-80" d="M443.35,132.26l-1.8,0,0-.45,1.79,0Zm1.8,0v-.45l1.79-.08,0,.45Zm-5.4-.11L438,132l0-.45,1.78.15Zm9-.1,0-.45,1.78-.19.05.45Zm-12.58-.25-1.78-.26.07-.44,1.77.26Zm16.16-.18-.07-.44,1.76-.29.08.44Zm-19.71-.4-1.76-.37.1-.44,1.75.37Zm23.26-.23-.09-.44,1.75-.39.1.44Zm-26.77-.56-1.74-.47.12-.43,1.72.47Zm30.28-.27-.11-.43,1.72-.48.13.43Zm-33.74-.73-1.71-.57.15-.42,1.69.57Zm37.19-.28-.14-.43,1.7-.56.15.42Zm-40.59-.92-1.67-.67.17-.41,1.66.66Zm44-.25-.16-.42,1.67-.64.17.42Zm-47.32-1.12-1.63-.75.19-.4,1.62.75Zm50.66-.2-.17-.41,1.64-.71.18.41Zm-53.91-1.35-1-.52-.59-.31.21-.4.59.31,1,.52Zm56-.75-.23-1.78.44-.06.23,1.78Zm-57.27-2-.45,0q.07-.88.13-1.79l.45,0Q414.5,121.66,414.44,122.55ZM471.25,121,471,119.2l.44-.06.23,1.78Zm-56.58-2-.45,0q0-.88.07-1.79h.45Q414.71,118.08,414.67,119Zm56.13-1.54-.23-1.78.44-.06.23,1.78Zm-56.48-2.06c0-.6,0-1.2,0-1.79h.45c0,.59,0,1.2,0,1.8Zm56-1.5-.23-1.78.44-.06.23,1.78Zm-56.14-2.07c0-.6-.08-1.2-.14-1.78l.45,0c.06.59.1,1.19.14,1.8Zm55.68-1.49-.23-1.78.44-.06.23,1.78Zm-56-2.07c-.08-.59-.16-1.18-.26-1.77l.44-.07c.1.59.18,1.19.26,1.78Zm55.84-1.46,0-.07-.25,0,0-.33.17-.06a4.69,4.69,0,0,0,1.37-.76l.28.35A5.13,5.13,0,0,1,469.7,106.78Zm-56.29-2.05-.09,0h0v0a7.13,7.13,0,0,1-1.43-.59l.22-.39a6.7,6.7,0,0,0,1.46.59l.13,0,.06.29-.3.06Zm59-.19-.39-.23a5.83,5.83,0,0,0,.53-1.18q.07-.21.12-.42l.43.11q-.06.23-.13.44A6.28,6.28,0,0,1,472.42,104.53Zm-62-1.55a6.47,6.47,0,0,1-1.1-1.49l.39-.21a6,6,0,0,0,1,1.38Zm63-2h-.45v-.16a9.36,9.36,0,0,0-.14-1.59l.44-.08a9.83,9.83,0,0,1,.15,1.66Zm-64.73-1.23a6.51,6.51,0,0,1-.15-1.4q0-.23,0-.45l.45,0q0,.21,0,.42a6.07,6.07,0,0,0,.14,1.3Zm63.7-2.22a10.42,10.42,0,0,0-.72-1.6l.39-.22a10.87,10.87,0,0,1,.75,1.67Zm-67.69-1.23-.52,0,0-.45a6.7,6.7,0,0,0,1.73-.1l.08.44A7.44,7.44,0,0,1,404.62,96.32Zm4.7,0-.41-.17A4.53,4.53,0,0,1,410,94.56l.31.33A4.08,4.08,0,0,0,409.32,96.28Zm27.33-.44v-.45l1.79,0v.45Zm-1.8,0-1.8,0v-.45l1.79,0Zm-32.55,0a3.84,3.84,0,0,1-1.2-.9,2.51,2.51,0,0,1-.25-.33l.38-.24a2.07,2.07,0,0,0,.2.27,3.4,3.4,0,0,0,1.06.79Zm37.95-.06,0-.45,1.79-.08,0,.45Zm-9,0-1.8-.09,0-.45,1.79.09Zm-23.54-.08-.19-.41a4.18,4.18,0,0,0,1-.63l.09-.08.07-.11.1-.17.39.22-.12.2-.12.17-.12.1A4.64,4.64,0,0,1,407.71,95.65Zm36.12-.07,0-.45,1.78-.15,0,.45Zm-16.17,0-1.79-.14,0-.45,1.79.14Zm19.75-.28,0-.45,1.78-.22.06.44Zm-23.34,0L422.29,95l0-.45,1.78.18ZM472.44,95l-.17-.41c.54-.22,1.09-.46,1.63-.72l.19.41C473.54,94.54,473,94.79,472.44,95Zm-51.94-.17-1.78-.22.06-.44,1.78.22Zm28-.44c-.53-.26-1.07-.54-1.6-.83l.22-.39c.52.29,1.06.57,1.58.82Zm-31.52,0-1.78-.26.07-.44,1.77.26ZM411.72,94l-.14-.43a4.92,4.92,0,0,1,1.86-.21l0,.45A4.45,4.45,0,0,0,411.72,94Zm64-.54-.21-.4c.52-.27,1-.55,1.57-.85l.22.39C476.77,92.93,476.23,93.22,475.71,93.49Zm-75.41-.68c0-.44-.07-.91-.09-1.37l0-.43.45,0,0,.41c0,.5,0,.94.09,1.37Zm45-.15c-.5-.31-1-.63-1.52-1l.25-.37c.5.33,1,.66,1.5,1Zm-35.66,0h-.45v-.14a10.81,10.81,0,0,0-.14-1.6l.44-.07a11.2,11.2,0,0,1,.15,1.67Zm69.21-.91-.23-.38c.5-.3,1-.62,1.51-.95l.24.38C479.87,91.1,479.35,91.42,478.85,91.73ZM442.3,90.66c-.48-.34-1-.71-1.44-1.08l.27-.35c.48.37,1,.73,1.43,1.07Zm-43.59,0a13.76,13.76,0,0,1-1.67-.72l.2-.4a13.27,13.27,0,0,0,1.62.7Zm90.57-.55-.48,0v-.17h0l-.38-1.57.44-.11Zm-78.92,0-.15-.42c.54-.2,1.09-.42,1.65-.66l.18.41C411.47,89.63,410.91,89.86,410.36,90.06ZM487,89.91l-1.79-.14,0-.45,1.79.14Zm-5.14-.14-.25-.37.47-.32,1.38.11,0,.45-1.22-.09Zm-47.16-.41-1-.31.14-.43.62.2.36-.68.4.21ZM395.48,89A16.69,16.69,0,0,1,394,87.87l.29-.34a16.18,16.18,0,0,0,1.4,1.08Zm18.2-.35-.2-.4c.51-.25,1-.53,1.59-.81l.21.4C414.74,88.1,414.2,88.38,413.68,88.63ZM432,88.49l-1.71-.55.14-.43,1.71.55Zm7.43,0c-.45-.37-.92-.76-1.37-1.16l.29-.34c.46.4.91.78,1.36,1.16Zm-10.84-1.07-1.71-.55.14-.43,1.71.55Zm-11.75-.46-.22-.39,1.54-.91.23.38Zm19.24-.17-.4-.21.73-1.36.21.2.4.37-.3.33-.19-.17Zm-43.38-.14-.63-.68-.61.12-.07-.44.72-.14.13,0,.09.1c.23.26.47.52.71.76Zm95.23,0c-.16-.58-.32-1.16-.49-1.72l.43-.13c.17.56.33,1.15.49,1.73Zm-62.75-.29-1.71-.55.14-.43,1.71.55Zm-3.42-1.1-1-.32.49-.66-1.33.86-.24-.38,1.51-1,.2.31.19-.26L422,84l-.44.59.41.13Zm65.14-2c-.19-.57-.39-1.14-.59-1.68l.42-.16c.21.55.41,1.13.6,1.7Zm-1.24-3.35c-.23-.55-.47-1.1-.71-1.63l.41-.19c.25.54.49,1.09.72,1.65Zm-1.5-3.24c-.28-.53-.57-1.06-.86-1.56l.39-.23c.3.51.59,1,.87,1.58Zm-94.34-.93-.41-.19c.26-.55.53-1.09.81-1.61l.4.21C390.36,74.57,390.1,75.11,389.84,75.65Zm92.54-2.15c-.33-.5-.67-1-1-1.45l.36-.27c.36.47.71,1,1,1.48Zm-90.88-1-.39-.23c.31-.53.63-1,.94-1.54l.38.24C392.11,71.46,391.8,72,391.5,72.49Zm46.34-1.22-.44-.06c.09-.6.18-1.2.28-1.78l.44.08C438,70.08,437.92,70.68,437.83,71.27Zm1.48-.3-.14-.42,1.69-.59.15.42Zm40.92-.31c-.39-.45-.8-.89-1.21-1.3l.32-.32c.42.42.83.87,1.23,1.33Zm-37.53-.9-.16-.42,1.68-.63.16.42Zm-49.26-.26-.36-.27c.36-.49.74-1,1.12-1.42l.34.29C394.17,68.55,393.8,69,393.44,69.51Zm47-.92-.06-.69.45,0V68l1-.38L442,68Zm5.63-.1-.17-.42,1.66-.66.17.42Zm-21.88,0-.48-.34-1-.68.25-.37.5.34v0l.44-.1.14.59Zm53.55-.29c-.45-.39-.92-.76-1.39-1.1l.26-.36c.48.35,1,.73,1.42,1.12Zm-39.28-.4-.44-.09c.13-.6.26-1.19.41-1.76l.43.11C438.71,66.58,438.57,67.16,438.45,67.75Zm5.23-.39-.16-.42,1.68-.63.16.42Zm5.7-.22-.17-.42.07,0,1.59-.64.17.42-1.59.64Zm-53.66-.35-.32-.31c.43-.44.87-.86,1.32-1.24l.29.34C396.58,65.95,396.15,66.36,395.73,66.79Zm25.5-.34c-.51-.32-1-.63-1.53-.92l.22-.39c.51.3,1,.61,1.54.93ZM447,66.11l-.16-.42,1.68-.63.16.42Zm-6.82,0c0-.39-.06-1-.08-1.8h.45c0,.78.06,1.4.08,1.79Zm34.63,0c-.5-.3-1-.59-1.56-.85l.2-.4c.54.26,1.07.56,1.59.87Zm-52.21-.2-.35-.16.08-.18-.13,0,.23-1.69.28,0v0l.44-.08q.16.88.34,1.76l-.44.09q-.13-.62-.24-1.24Zm30.07-.07-.16-.42,1.68-.64.16.42ZM420.66,65,419,64.23l.19-.41,1.63.74Zm-2.52-.31c-.54-.28-1.07-.54-1.6-.78l.19-.41c.53.24,1.08.51,1.62.79Zm37.93-.09-.14-.42c.61-.21,1.17-.38,1.72-.55l.13.43C457.23,64.19,456.67,64.37,456.07,64.57Zm15.6-.05c-.55-.21-1.11-.41-1.68-.58l.13-.43c.58.17,1.15.37,1.71.59Zm-73.26,0-.26-.37a17.1,17.1,0,0,1,1.54-1l.22.39A16.63,16.63,0,0,0,398.41,64.48Zm40.92-.18-.43-.13c.18-.59.37-1.16.56-1.72l.42.15C439.69,63.15,439.5,63.72,439.33,64.29ZM450,64.24l-.43-.12q.23-.88.47-1.73l.43.12Q450.27,63.36,450,64.24Zm9.46-.66-.1-.44c.61-.14,1.21-.26,1.78-.35l.07.44C460.68,63.32,460.09,63.43,459.49,63.58Zm8.78-.08c-.57-.12-1.16-.23-1.75-.32l.06-.44c.6.09,1.2.2,1.78.32Zm-50.88,0-1.63-.74.19-.41,1.63.74Zm-2.49-.3c-.56-.22-1.13-.42-1.68-.59l.13-.43c.56.18,1.13.38,1.71.6ZM463,63l0-.45a16.87,16.87,0,0,1,1.82,0l0,.45A16.31,16.31,0,0,0,463,63Zm-61.5-.27-.17-.41.41-.16q0-.24,0-.47t0-.6l.45,0q0,.27,0,.56t0,.6v.17l-.16.06Zm39.07-.27h-.45v-.08c0-.52,0-1.07,0-1.64h0l.49-1.15,0,1.17c0,.57,0,1.11,0,1.63Zm-29.06-.37c-.59-.14-1.17-.25-1.74-.33l.06-.44c.58.08,1.18.19,1.78.33Zm2.62-.13-.67-.31-.13-1.31.45,0,.1,1,.44.2ZM451,60.79l-.43-.13q.25-.87.52-1.72l.43.13Q451.26,59.92,451,60.79ZM409.06,60a4.85,4.85,0,0,0-1-1.39l.31-.32a5.29,5.29,0,0,1,1.07,1.52Zm-6.5-.52-.42-.17a3.9,3.9,0,0,1,1.08-1.54l.29.34A3.46,3.46,0,0,0,402.55,59.48Zm10.62-.89q-.07-.91-.13-1.79l.45,0q.06.89.13,1.79Zm-6.51-.92a3.34,3.34,0,0,0-1.65-.22L405,57a3.8,3.8,0,0,1,1.87.25Zm45.39-.31-.43-.14q.28-.86.56-1.71l.42.14Q452.33,56.5,452.05,57.36ZM412.93,55q0-.91-.08-1.8l.45,0q0,.89.08,1.79Zm40.27-1-.42-.15q.3-.86.62-1.69l.42.16Q453.5,53.12,453.2,54ZM431,53.33,431,51.45h.26l.14-.4.42.15-.36,1ZM412.8,51.41q0-.91,0-1.8h.45q0,.89,0,1.79Zm41.65-.79-.42-.17q.33-.85.68-1.67l.41.17Q454.79,49.78,454.46,50.62Zm-23.55-1q0-.91,0-1.8h.45q0,.89,0,1.79Zm1.48-.16-.42-.15.62-1.69.42.16Zm-19.14-1.67h-.45q0-.9,0-1.8l.45,0Q413.26,46.92,413.25,47.82Zm42.59-.5-.41-.18q.37-.83.75-1.64l.41.19Q456.21,46.49,455.84,47.32Zm-22.2-1.18-.42-.16.65-1.67.42.17Zm-2.79-.07v-.41q0-.7,0-1.39h.45q0,.69,0,1.39v.4Zm-17.47-1.82-.45,0q.05-.9.12-1.79l.45,0Q413.43,43.35,413.38,44.25Zm44-.16-.4-.2q.41-.81.82-1.6l.4.21Q457.77,43.27,457.36,44.08ZM435,42.81l-.41-.17q.35-.84.7-1.66l.41.18Q435.3,42,435,42.81Zm-3.62-.33h-.45q0-.91.06-1.8l.45,0Q431.36,41.57,431.34,42.48ZM459,40.93l-.39-.22c.3-.52.6-1,.91-1.55l.38.23C459.64,39.88,459.33,40.4,459,40.93Zm-45.38-.25-.45,0q.09-.89.19-1.79l.45.05Q413.75,39.79,413.66,40.68Zm22.71-1.16-.41-.18.53-1.17.22-.47.41.19-.22.47Zm-4.88-.61-.45,0q.06-.91.13-1.79l.45,0Q431.54,38,431.49,38.9Zm29.4-1-.38-.24c.33-.51.67-1,1-1.5l.37.26C461.55,36.86,461.21,37.36,460.89,37.87Zm-46.81-.74-.44-.06q.12-.89.27-1.78l.44.07Q414.2,36.24,414.08,37.13Zm23.8-.86-.4-.2q.4-.82.8-1.61l.4.2Q438.27,35.45,437.88,36.27Zm-6.1-.93-.45,0q.09-.91.2-1.79l.45.05Q431.87,34.43,431.78,35.34Zm31.15-.4-.36-.27c.36-.48.73-1,1.1-1.43l.35.28C463.65,34,463.28,34.45,462.92,34.93Zm-48.28-1.34-.44-.08q.16-.88.33-1.77l.44.09Q414.8,32.72,414.64,33.59Zm24.86-.52-.4-.21q.43-.8.86-1.58l.39.22Q439.93,32.28,439.5,33.08Zm25.66-.93-.34-.29c.39-.46.8-.91,1.2-1.34l.33.31C465.94,31.25,465.54,31.69,465.15,32.14Zm-32.94-.36-.44-.07q.13-.9.29-1.78l.44.08Q432.35,30.89,432.21,31.79Zm-16.88-1.71-.44-.09q.19-.87.39-1.75l.44.1Q415.52,29.21,415.33,30.08ZM441.25,30l-.39-.23q.46-.78.94-1.54l.38.24Q441.71,29.18,441.25,30Zm26.33-.43-.32-.31.59-.61-.22-.08.15-.42.89.31Zm-34.76-1.26-.44-.09c.12-.59.25-1.18.38-1.76l.44.1C433.08,27.09,432.95,27.68,432.83,28.26Zm33.11-.32-1.7-.58.15-.42,1.7.58Zm-22.79-1-.37-.25c.33-.5.68-1,1-1.48l.37.26C443.82,25.93,443.48,26.43,443.15,26.93Zm19.39-.15-1.7-.58.15-.42,1.7.58Zm-46.41-.18-.44-.11q.21-.86.44-1.74l.43.11Q416.35,25.73,416.14,26.59Zm43-1-1.7-.58.15-.42,1.7.58Zm-25.5-.82-.43-.12c.16-.58.32-1.17.5-1.73l.43.13C434,23.63,433.8,24.21,433.65,24.79Zm22.11-.35-1.7-.58.15-.42,1.7.58ZM445.22,24l-.36-.27c.36-.48.74-1,1.11-1.42l.35.28C445.95,23.06,445.58,23.54,445.22,24Zm7.15-.75-1.7-.58.15-.42,1.7.58ZM417,23.12,416.6,23q.23-.86.48-1.73l.43.12Q417.27,22.27,417,23.12Zm31.94-1-1.7-.58.15-.42,1.7.58Zm-14.28-.73-.42-.15c.2-.57.41-1.14.62-1.69l.42.16C435.1,20.24,434.89,20.81,434.69,21.37Zm-16.85-1.51,0-.45,1.79-.19,0,.45Zm3.57-.37,0-.45,1.79-.16,0,.45Zm12.49-.22c-.58-.06-1.18-.1-1.78-.14l0-.45c.61,0,1.21.08,1.8.14ZM425,19.2l0-.45,1.8-.09,0,.45Zm5.36-.13h-1.79v-.45h1.8Z" transform="translate(-50.35)"/><path class="cls-95" d="M388.13,82.54C392,71,397.2,65,403.27,63.17c-1.09-7.14,5.63-5.36,5.32-.52,5.29.42,11.1,3.4,17.25,8.29A79,79,0,0,1,423,53l-1.49,10.77-6.69-3.05c-1.44-14.91-.22-25.76,3.93-40,2.45-.26,15-.94,14.82-.4-3.91,10.83-4.25,24-3.14,38.16a169.81,169.81,0,0,1,7.38-19.72,71.79,71.79,0,0,1,9.77-16.12L466.08,29c-8.47,8.69-13.72,21-17.45,35l-6.93,2.59a55.75,55.75,0,0,1,.31-11c-3.6,4.66-5.18,11.57-5.83,17.48,14.24-4.34,22-9.89,29.69-8.94,11.67,1.44,18.16,10.49,21.56,24.43l-5.62-.43c-6.32,4.47-12.19,7.1-17.92,7.78.43,2.84-5.55,3.63-5.37.06-7.29-.72-14.51-4.74-22.35-12.31l-2.16,4-4.74-1.53-6.16-2a5.49,5.49,0,0,0,1.11-3.61c-5.63,3.84-11.17,7.46-16.41,8.87.25,1.63.71,3.55.08,4.49-1,.92-4.35,1.66-5.74.11-.64-.72-.42-2.75-.63-4.11-3.14-.46-6.13-2.13-8.92-5.51C389.55,85.13,387.94,85,388.13,82.54Z" transform="translate(-50.35)"/><path class="cls-96" d="M461.52,97.45l-.08-.44a1.85,1.85,0,0,0,1.07-.52.52.52,0,0,0,.13-.27l.44.06a1,1,0,0,1-.24.5A2.27,2.27,0,0,1,461.52,97.45ZM459.64,97a1.3,1.3,0,0,1-.31-.92s0-.08,0-.12l0-.86.45,0,0,.86s0,.07,0,.1a.88.88,0,0,0,.19.62Zm3.58-1.87-.05-.45.58-.07,1.19-.17.07.44c-.4.07-.81.13-1.21.17Zm-5.3-.09c-.59-.08-1.19-.18-1.79-.3l.09-.44c.58.12,1.17.22,1.75.29Zm8.86-.51-.1-.44c.57-.13,1.14-.29,1.72-.47l.13.43C467.94,94.23,467.35,94.39,466.78,94.52Zm-12.4-.22c-.57-.16-1.15-.35-1.72-.55l.15-.42c.56.2,1.13.38,1.69.54Zm-49.52-.24,0-.45a5.21,5.21,0,0,0,1.67-.37l.17.41A5.68,5.68,0,0,1,404.85,94.06ZM403,93.64a1.45,1.45,0,0,1-.23-.2,3.55,3.55,0,0,1-.29-1.65l.45,0a3.69,3.69,0,0,0,.19,1.39l.14.13Zm67.25-.17-.15-.42c.55-.2,1.1-.42,1.66-.66l.18.41C471.35,93,470.79,93.27,470.23,93.48ZM451,93.09c-.54-.23-1.09-.49-1.64-.76l.2-.4c.54.27,1.08.52,1.62.75Zm22.59-1-.19-.4c.52-.25,1.06-.52,1.59-.81l.21.4C474.63,91.54,474.09,91.81,473.56,92.07ZM406.93,92c0-.55-.15-1.16-.23-1.66l0-.1.44-.07,0,.1c.08.5.19,1.12.24,1.69Zm40.8-.5c-.51-.29-1-.6-1.55-.92l.24-.38c.51.32,1,.62,1.54.91Zm29-1.11-.22-.39c.5-.29,1-.6,1.53-.92l.24.38C477.77,89.77,477.25,90.08,476.74,90.38ZM402.36,90c0-.09,0-.18,0-.27l-.09-.59-.57-.08.06-.44.9.13.14.92q0,.14,0,.29Zm42.31-.43c-.48-.33-1-.68-1.47-1l.27-.36c.49.36,1,.71,1.46,1Zm-37.77-.8-.12-.43.7-.19,1-.3.14.43-1,.31Zm-7-.12a11.52,11.52,0,0,1-1.69-.69l.2-.4a11.1,11.1,0,0,0,1.63.66Zm79.92-.19-.25-.37,1.47-1,.26.37Zm-69.46-.8-.17-.42c.53-.21,1.08-.45,1.64-.71L412,87C411.43,87.22,410.87,87.46,410.34,87.68Zm74.3-.19-1.79-.14,0-.45,1.79.14Zm-42.87,0c-.46-.36-.93-.74-1.4-1.14l.29-.34c.46.39.93.77,1.38,1.13Zm44-.38c-.16-.58-.32-1.16-.49-1.72l.43-.13c.17.56.34,1.14.5,1.73Zm-89.14,0a15,15,0,0,1-1.42-1.13l.3-.33a14.43,14.43,0,0,0,1.38,1.1Zm35.66-.82-1.71-.55.14-.43,1.71.55Zm-18.67-.06-.21-.4c.51-.26,1-.55,1.57-.85l.22.39C414.66,85.61,414.12,85.9,413.61,86.16ZM434,86l-.4-.21.85-1.58.4.21Zm5-.85q-.66-.59-1.33-1.21l.31-.33q.66.62,1.32,1.21Zm-10.15,0-1.71-.55.14-.43,1.71.55Zm-35-.5c-.23-.25-.45-.51-.68-.78l-.33-.39-.5.13-.48.12-.1-.44.47-.11.77-.2.51.61c.22.27.44.52.66.77Zm22.85-.23-.23-.39,1.53-.94.24.38Zm8.69-.38-1.09-.35.11-.23a6.07,6.07,0,0,0,.31-.81l.43.13a6.53,6.53,0,0,1-.23.64l.62.2ZM390,84a1.26,1.26,0,0,1-.91-.24,1.19,1.19,0,0,1-.2-.82c0-.06,0-.11,0-.18v-.06l0-.08.42.15,0,.05s0,.09,0,.13a.93.93,0,0,0,.09.51,1.13,1.13,0,0,0,.58.09h.07V84Zm94.69-.32c-.19-.57-.39-1.14-.6-1.68l.42-.16c.21.55.41,1.12.6,1.7Zm-49.05-.83-.4-.21.57-1.07.85.82-.31.32-.42-.41Zm-15.87-.33-.24-.38,1.5-1,.25.37ZM390,81l-.42-.16c.21-.57.43-1.13.65-1.68l.42.17C390.42,79.92,390.2,80.48,390,81Zm35.49-.11H425q0-.09,0-.17t0-.27l0-1.33.45,0,0,1.33q0,.15,0,.29C425.49,80.81,425.49,80.87,425.48,80.94Zm-2.69-.43-.25-.37,1-.66.51-.35.25.37-.51.35Zm60.67-.19c-.23-.55-.48-1.1-.73-1.63l.4-.19c.25.53.5,1.08.74,1.65Zm-92.13-2.57-.41-.18c.25-.56.5-1.11.76-1.63l.4.2C391.83,76.64,391.58,77.19,391.34,77.74Zm90.59-.64c-.29-.53-.59-1-.89-1.54l.38-.24c.31.5.61,1,.9,1.56Zm-89-2.56-.39-.21c.29-.54.6-1.06.9-1.56l.38.23C393.5,73.48,393.2,74,392.91,74.53Zm43.53-.28-.13-.43.1,0,1.61-.5.14.43-1.61.51Zm-1.2-.1-.45,0,.13-1.22.06-.56.45.05-.06.56Zm44.82-.09c-.34-.49-.71-1-1.08-1.42l.35-.28c.38.46.74.94,1.09,1.44Zm-53.37-.84-1.4-1.12.28-.35,1.4,1.12Zm13.18-.07-.14-.42,1.69-.59.15.42Zm-12.58,0-.48-1.73.43-.12.48,1.73Zm16-1.18-.16-.42,1.68-.63.16.42Zm-48.48-.46-.37-.25c.35-.51.71-1,1.07-1.45l.35.28C395.46,70.51,395.11,71,394.76,71.49Zm83-.18c-.41-.43-.84-.85-1.28-1.23l.3-.34c.44.39.88.82,1.3,1.26ZM423.87,71c-.48-.37-1-.72-1.44-1.06l.26-.36c.48.34,1,.7,1.45,1.07Zm22.74-.34-.16-.42,1.67-.66.17.42Zm-10.93-.07-.44-.07c.09-.6.19-1.2.29-1.78l.44.08C435.86,69.41,435.76,70,435.67,70.6Zm-9.34-.94q-.23-.87-.44-1.75l.44-.1q.21.87.43,1.74Zm23.61-.33-.17-.42.24-.1,1.42-.58.17.42-1.42.58ZM475.15,69c-.48-.35-1-.68-1.47-1l.23-.38c.51.31,1,.65,1.51,1Zm-54.19,0c-.5-.33-1-.66-1.51-1l.23-.38c.5.31,1,.63,1.52,1Zm-24-.22-.33-.31c.42-.45.86-.88,1.29-1.27l.3.33C397.81,67.85,397.39,68.27,397,68.71ZM453.27,68l-.16-.42,1.68-.64.16.42Zm18.85-.85c-.53-.25-1.08-.48-1.63-.69l.15-.42c.57.21,1.13.45,1.67.7Zm-35.81-.06-.44-.1c.13-.6.27-1.19.41-1.75l.43.11C436.57,65.91,436.44,66.49,436.31,67.08Zm-18.4,0c-.53-.29-1.06-.57-1.58-.82l.2-.4c.52.26,1.06.54,1.6.83Zm38.71-.33-.15-.42c.61-.21,1.17-.39,1.72-.55l.13.43C457.78,66.36,457.22,66.54,456.62,66.75Zm-57-.38-.26-.36a14.87,14.87,0,0,1,1.54-1l.21.39A14.45,14.45,0,0,0,399.62,66.36Zm25.87-.2q-.19-.88-.36-1.76l.44-.09q.17.88.36,1.75Zm43.3-.24c-.56-.15-1.14-.28-1.73-.39l.08-.44c.6.11,1.2.24,1.77.4ZM460,65.74l-.1-.44c.62-.14,1.21-.26,1.78-.34l.07.44C461.23,65.49,460.64,65.6,460,65.74Zm-45.33-.23c-.56-.23-1.12-.45-1.66-.63l.14-.42c.55.19,1.12.4,1.69.64Zm50.6-.23a13.73,13.73,0,0,0-1.76,0l0-.45a14.17,14.17,0,0,1,1.82,0Zm-22.9-.3c0-.59,0-1.2,0-1.8h.45c0,.6,0,1.2,0,1.79Zm1.85-.22-.16-.42,1.68-.63.16.42Zm-41.55-.08-.16-.42c.31-.12.63-.23.94-.32l.78-.23.13.43-.78.23C403.32,64.47,403,64.57,402.71,64.69Zm8.63-.3c-.59-.15-1.17-.26-1.74-.35l.07-.44c.58.09,1.18.21,1.78.36Zm-3.51-.53-.58,0,.08-1.24c0-.08,0-.17,0-.25s0-.1,0-.14l.45,0c0,.05,0,.11,0,.16s0,.18,0,.28l-.05.79h.14Zm29.36-.23-.43-.13c.18-.59.37-1.16.56-1.72l.42.15C437.56,62.47,437.37,63,437.2,63.63Zm10.42-.12-.16-.42.11,0,.38-1.39.43.12-.41,1.5,0,.11Zm-17.34-.44-.34-.11v0l-.45,0-.14-1.79.45,0,.12,1.51.47-1.49.43.13Zm-5.47-.43q-.15-.89-.29-1.78l.44-.07q.13.88.28,1.77Zm-4.54-.29-1.63-.74.19-.41,1.63.74ZM404,62.23c0-.19,0-.36,0-.52a4.63,4.63,0,0,1,.17-1.34l.43.13a4.18,4.18,0,0,0-.15,1.2c0,.15,0,.32,0,.49Zm38.84-.84h-.45c0-.61,0-1.22.06-1.8l.45,0C442.84,60.18,442.82,60.78,442.81,61.39ZM417,60.85l-1.45-.66,0-.47.45,0,0,.2,1.21.55Zm4.08,0-.44-.06.25-1.78.44.06Zm-14.23-.24a2.58,2.58,0,0,0-.27-.34,1.9,1.9,0,0,0-1-.59l.08-.44a2.31,2.31,0,0,1,1.25.73,3,3,0,0,1,.31.4Zm31.55-.34-.41-.17c.24-.57.49-1.12.75-1.65l.4.2C438.88,59.16,438.63,59.71,438.4,60.27Zm10.49-.22-.43-.13q.26-.87.52-1.72l.43.13Q449.14,59.18,448.89,60.05Zm-17.53-.41-.43-.13.25-.78.29-.93.43.14-.29.93Zm-2.14-.2-.07-.86-.07-.93.45,0q0,.46.07.92l.07.86Zm-4.94-.37q-.11-.9-.2-1.79l.45,0q.09.88.2,1.78Zm-8.91-1.13q-.07-.91-.13-1.79l.45,0q.06.89.13,1.79ZM443,57.82l-.45,0c.06-.62.12-1.23.2-1.79l.44.06C443.12,56.61,443,57.21,443,57.82Zm-21.42-.53-.44-.06.25-1.78.44.06ZM440,57.09l-.39-.23c.31-.53.65-1,1-1.52l.36.26C440.61,56.07,440.29,56.57,440,57.09Zm10-.46-.43-.14q.28-.86.56-1.71l.42.14Q450.22,55.77,449.94,56.63Zm-17.49-.4-.43-.14.56-1.7.43.14ZM429,55.86q-.06-.91-.11-1.79l.45,0q0,.89.11,1.79Zm-5-.38c0-.61-.08-1.22-.1-1.8l.45,0c0,.58.06,1.18.1,1.78Zm-8.78-1.14q0-.91-.07-1.8h.45q0,.89.07,1.79Zm28.32-.07-.44-.07.26-1.77.44.07Zm-1.43-.1-.35-.27,1.1-1.42.35.27Zm-20-.44-.44-.06.14-1,1.16.06,0,.45-.75,0Zm29-.5-.42-.15q.3-.86.62-1.69l.42.16Q451.39,52.38,451.09,53.24Zm-17.5-.41-.42-.15.59-1.7.42.15Zm-4.83-.55q0-.91-.07-1.79l.45,0q0,.89.07,1.79ZM415,50.75q0-.62,0-1.23,0-.29,0-.57h.45q0,.28,0,.57,0,.61,0,1.22Zm37.31-.87-.42-.16q.33-.85.68-1.67l.41.17Q452.68,49,452.34,49.88Zm-17.56-.43-.42-.15.62-1.68.42.16Zm-6.14-.76q0-.91,0-1.8h.45q0,.89,0,1.79ZM415.5,47.17h-.45q0-.9.06-1.8l.45,0Q415.53,46.27,415.5,47.17Zm38.22-.58-.41-.18q.37-.83.74-1.64l.41.19Q454.09,45.75,453.72,46.58ZM436,46.1l-.42-.16.66-1.67.42.17Zm-7-1h-.45q0-.91,0-1.8h.45Q429.06,44.19,429.06,45.1Zm-13.39-1.51-.45,0q.06-.9.14-1.79l.45,0Q415.73,42.7,415.67,43.59Zm39.57-.25-.4-.2q.4-.81.82-1.6l.4.21Q455.63,42.53,455.23,43.34Zm-17.84-.56L437,42.6q.35-.84.71-1.65l.41.18Q437.75,41.94,437.39,42.78Zm-8.27-1.26-.45,0q0-.91.08-1.8l.45,0Q429.16,40.61,429.12,41.52Zm27.77-1.34L456.5,40q.44-.79.9-1.56l.39.23Q457.34,39.39,456.9,40.17ZM416,40l-.45,0q.1-.89.21-1.79l.44.06Q416.08,39.14,416,40Zm22.85-.53-.41-.19.1-.21.66-1.42.4.19-.66,1.41Zm-9.52-1.55-.45,0q.06-.91.14-1.79l.45,0Q429.37,37,429.31,37.94Zm29.42-.84-.38-.24c.32-.51.66-1,1-1.51l.37.25C459.37,36.09,459,36.59,458.72,37.1Zm-42.28-.62-.44-.07q.13-.88.28-1.78l.44.08Q416.57,35.6,416.44,36.48Zm23.93-.21-.4-.2q.41-.82.82-1.6l.4.21Q440.78,35.45,440.37,36.26Zm-10.75-1.89-.45,0q.1-.9.22-1.79l.44.06Q429.72,33.48,429.62,34.38Zm31.1-.23-.36-.26c.35-.49.72-1,1.08-1.44l.35.28C461.44,33.18,461.08,33.66,460.73,34.14ZM442,33.1l-.39-.22q.44-.8.89-1.57l.39.23Q442.47,32.3,442,33.1ZM417,33l-.44-.08q.17-.88.35-1.76l.44.09Q417.2,32.08,417,33Zm45.88-1.63-.34-.29c.39-.46.78-.92,1.18-1.36l.33.3C463.69,30.41,463.3,30.86,462.92,31.32Zm-32.82-.49-.44-.07q.14-.9.3-1.77l.44.08Q430.23,29.94,430.09,30.83ZM443.84,30l-.38-.24c.32-.51.64-1,1-1.52l.37.25Q444.31,29.24,443.84,30Zm-26.07-.56-.44-.1q.2-.87.41-1.75l.44.1Q418,28.58,417.76,29.45Zm45.13-.19-1.7-.58.15-.42,1.7.58Zm-3.39-1.17-1.7-.58.15-.42,1.7.58Zm-28.76-.78-.44-.09c.12-.59.26-1.18.4-1.76l.44.11C431,26.14,430.86,26.73,430.74,27.31ZM445.8,27l-.37-.26c.35-.5.7-1,1.06-1.46l.36.27C446.5,26,446.14,26.52,445.8,27Zm10.31-.1-1.7-.58.15-.42,1.7.58ZM418.6,26l-.43-.11q.22-.86.46-1.74l.43.12Q418.82,25.11,418.6,26Zm34.11-.21-1.7-.58.15-.42,1.7.58Zm-3.39-1.17L448,24.12l0,0-.12-.09h0l-.23-.19.23-.29,1.65.57Zm-17.74-.74-.43-.12c.16-.58.33-1.16.51-1.73l.43.13C431.91,22.69,431.75,23.26,431.59,23.84ZM419.53,22.5l-.43-.12.26-.9h.15l1-.08,0,.45-.86.06Zm2.82-.78,0-.45,1.79-.1,0,.45Zm3.58-.19,0-.45,1.8-.07,0,.45Zm3.58-.13V21l1.8,0v.45Z" transform="translate(-50.35)"/><path class="cls-97" d="M437.78,38.76a71.79,71.79,0,0,1,9.77-16.12L466.08,29c-8.47,8.69-13.72,21-17.45,35l-6.93,2.59a55.75,55.75,0,0,1,.31-11c-3.6,4.66-5.18,11.57-5.83,17.48,14.24-4.34,22-9.89,29.69-8.94,11.67,1.44,18.16,10.49,21.56,24.43l-5.62-.43c-6.32,4.47-12.19,7.1-17.92,7.78.43,2.84-5.55,3.63-5.37.06-7.29-.72-14.51-4.74-22.35-12.31l-2.16,4-4.74-1.53,1.13-27.62Z" transform="translate(-50.35)"/><polygon class="cls-68" points="371.6 52.26 371.6 66.48 343.4 66.49 343.42 59.38 371.6 52.26"/><polygon class="cls-68" points="397.51 49.24 395.48 66.86 429.55 73.08 429.55 61.16 397.51 49.24"/><path class="cls-81" d="M393.46,58.41c30.85-10.83,51.54,3.93,76.24,10L435.56,43.92s-35.74,2.87-36.35,3.78A50.21,50.21,0,0,0,393.46,58.41Z" transform="translate(-50.35)"/><path class="cls-75" d="M388.46,55l.1.79a1.84,1.84,0,0,0,3,1.19,38.5,38.5,0,0,1,27-8.56c21.81,1,59.94,36.05,80.08,16.53-15.85,4.61-37.48-21.93-68-24.58A53,53,0,0,0,397,48.19Z" transform="translate(-50.35)"/><path class="cls-93" d="M418.61,48.46a38.5,38.5,0,0,0-27,8.56,1.84,1.84,0,0,1-3-1.19l-.1-.79C397.9,48.1,407.09,45.29,416,45c14.86-.49,26.53,7.24,39.17,13.91,14.42,7.61,29.61,13.89,43.53,6.09C478.55,84.52,440.42,49.51,418.61,48.46Z" transform="translate(-50.35)"/><path class="cls-88" d="M413.37,94.82c-4.77-.38-4.85,7.72,1.11,8.67,1.71,7.95,1.31,14,.86,20,11.08,5.86,22,8,32.71,7.15a68.81,68.81,0,0,0,22.67-6.06l-2.43-18.94c7.09-.91,3.14-16-6.18-12.37C447.53,97.68,431.07,97.7,413.37,94.82Z" transform="translate(-50.35)"/><circle class="cls-88" cx="447.79" cy="122.62" r="11.42" transform="translate(-62.33 58.09) rotate(-7.32)"/><path class="cls-68" d="M413.19,123c-1.08,5.56,1.7,8.55,2,8.73,3.61,2.06,12.46,4.42,20.7,5.2C433.32,134,420.42,126.3,413.19,123Z" transform="translate(-50.35)"/><path class="cls-88" d="M490.88,106.36c7.94,4.36-.1,14.48-8.85,11.29C481,112.52,486.91,105.13,490.88,106.36Z" transform="translate(-50.35)"/><path class="cls-81" d="M446.1,94.38c0,6.1-4,4.11-7.88,2.41-5.43,5.61-12.44,3-20-2.41-2.33-1.24-3.18-2.36-3-3.39Z" transform="translate(-50.35)"/><path class="cls-88" d="M445.2,76.94c-6.29-1.35-8.31,5.21,1,6.58,15,8.81,22.82,4.17,29.58-2.4l1.43-.35C470.18,71.4,461.54,65.64,445.2,76.94Z" transform="translate(-50.35)"/><path class="cls-88" d="M422.72,75.84c1.24,1.37,1.13,2.56-.57,3.53-7.39,7.64-15.62,4.54-24-.37-1.5.68-2-.09-2.11-1.28C399.91,68.66,405.29,62.14,422.72,75.84Z" transform="translate(-50.35)"/><path class="cls-98" d="M461,88.59c-4.06,0-8.9-1.35-14.89-4.85-3.39-.51-5.69-1.78-6.33-3.49a2.37,2.37,0,0,1,.44-2.44c1-1.13,2.81-1.53,4.93-1.1,7.59-5.23,14-7.13,19.59-5.81,4.48,1.06,8.37,4.07,12.63,9.75l.2.27-1.7.41C472.05,85,467.56,88.59,461,88.59ZM443.58,77a3.93,3.93,0,0,0-3,1.11,1.91,1.91,0,0,0-.36,2c.57,1.54,2.82,2.74,6,3.21l.08,0c15.47,9.07,23.24,3.53,29.31-2.37l0,0,1.16-.28c-11.06-14.56-21.66-10.3-31.48-3.51l-.08.06-.09,0A7.52,7.52,0,0,0,443.58,77Z" transform="translate(-50.35)"/><path class="cls-98" d="M412.11,84.17c-4.62,0-9.36-2.23-14-4.92a1.73,1.73,0,0,1-1.54.08,2.05,2.05,0,0,1-.78-1.59v-.06l0-.06c3.15-7.37,6-9,8.45-9.61,4.49-1.15,10.56,1.36,18.57,7.65l0,0a2.2,2.2,0,0,1-.59,3.86A13.74,13.74,0,0,1,412.11,84.17Zm-13.94-5.43.1.06c9.23,5.42,16.8,7.56,23.72.41l0,0a2.24,2.24,0,0,0,1.27-1.43,2.22,2.22,0,0,0-.75-1.74c-7.88-6.2-13.83-8.67-18.17-7.56-4.08,1-6.32,5.08-8.13,9.3.09.65.27,1,.55,1.2a1.44,1.44,0,0,0,1.24-.15Z" transform="translate(-50.35)"/><g class="cls-99"><path class="cls-100" d="M419.33,76.67c.63,1.34-.87,1.32-1.57,2.24-2.51,3.28-8.44,2.69-10.35.46l10.52-2.8Z" transform="translate(-50.35)"/></g><path class="cls-101" d="M418.67,77.05l-.91.6a7.82,7.82,0,0,1-13.67-2.92C408,72.29,411.21,72.19,418.67,77.05Z" transform="translate(-50.35)"/><path class="cls-100" d="M419.14,76.34c-8.83-6.18-12.2-4.11-15.56-2a.25.25,0,0,0,.19.46l.31-.08c5-1.78,7.53-2.13,14.58,2.32a.43.43,0,0,0,.66-.38h0A.43.43,0,0,0,419.14,76.34Z" transform="translate(-50.35)"/><circle class="cls-100" cx="413.16" cy="76.09" r="4.09" transform="translate(-52.73 14.33) rotate(-1.98)"/><circle class="cls-68" cx="413.16" cy="76.09" r="2.36" transform="translate(-52.73 14.33) rotate(-1.98)"/><circle class="cls-88" cx="410.85" cy="73.39" r="1.73" transform="translate(-52.64 14.25) rotate(-1.98)"/><circle class="cls-102" cx="414.03" cy="75.16" r="0.9" transform="translate(-52.7 14.36) rotate(-1.98)"/><path class="cls-101" d="M467,76.73c-.44,5.92-11.13,12.1-17,3.56l-2.08-1.1C453.71,74,459.08,73.32,467,76.73Z" transform="translate(-50.35)"/><path class="cls-100" d="M447.84,79.19h0a.65.65,0,0,0,.95,0c4.82-4.88,11.28-5.07,18.89-2,.2.08.41-.21.23-.33-9.41-4.89-15.28-2.79-20,1.36A.66.66,0,0,0,447.84,79.19Z" transform="translate(-50.35)"/><circle class="cls-100" cx="460.18" cy="78.65" r="4.92" transform="translate(-55.89 46.12) rotate(-5.7)"/><circle class="cls-68" cx="460.18" cy="78.65" r="2.84" transform="translate(-55.89 46.12) rotate(-5.7)"/><circle class="cls-88" cx="457.19" cy="75.59" r="2.08" transform="translate(-55.6 45.81) rotate(-5.7)"/><circle class="cls-102" cx="461.15" cy="77.59" r="0.98" transform="translate(-55.78 46.21) rotate(-5.7)"/><path class="cls-88" d="M438.29,90.51c-9.93-10.56-16-10.3-19.51-3-3.92-2.48-7.12,4.55.23,4.67,3.21,6.62,15.94,6.16,18.93,2.3C451.61,100.84,445.54,85.53,438.29,90.51Z" transform="translate(-50.35)"/><path class="cls-68" d="M449.78,137.39c7.73-6.12,17-8.92,26.06-12.41.52,3,.63,5.15-1.82,6.48C463.93,135.73,460.46,137,449.78,137.39Z" transform="translate(-50.35)"/><path class="cls-89" d="M438.29,90.51c-10-10.75-16.3-10.12-19.51-3,4.33-6.95,11.59-2.24,19.23,4,3.39-1.32,6.85-.51,8,1.7A4.91,4.91,0,0,0,438.29,90.51Z" transform="translate(-50.35)"/><path class="cls-76" d="M490.67,29.57c-6.87-7.14-1.67,16.91-6.3,33.36L489,68l9.7-3C496.12,51,493.53,37.53,490.67,29.57Z" transform="translate(-50.35)"/><path class="cls-81" d="M422.15,79.37c-5.71,6.49-13.87,5.9-24-.37C409,84.51,416.68,84,422.15,79.37Z" transform="translate(-50.35)"/><path class="cls-81" d="M475.76,81.12c-6.76,8.4-16.4,9.75-29.58,2.4Q462.86,91.76,475.76,81.12Z" transform="translate(-50.35)"/><path class="cls-89" d="M490.88,106.36c5.71,3.38,2.27,7.86,2.27,7.86-.53-3.18-4.09-4.2-8.67-4.48C484.48,109.74,487.63,105,490.88,106.36Z" transform="translate(-50.35)"/><path class="cls-89" d="M459.83,93.93c6-3.48,11.41,0,12,6C470.1,95.16,465.65,91.61,459.83,93.93Z" transform="translate(-50.35)"/><path class="cls-70" d="M412.94,125.73a105.68,105.68,0,0,1,18.85,10.65,52.07,52.07,0,0,1-16.61-4.65S413,130,412.94,125.73Z" transform="translate(-50.35)"/><path class="cls-70" d="M474,131.47l1-4.39a53.87,53.87,0,0,0-18.74,9.86A59.25,59.25,0,0,0,474,131.47Z" transform="translate(-50.35)"/><path class="cls-103" d="M460.26,100.56c6.69,26.92-27.8,21.65-27.8,21.65.52-8.39-4.27-17-4.27-17S447.58,107,460.26,100.56Z" transform="translate(-50.35)"/><path class="cls-87" d="M460.26,100.56a7,7,0,0,1-1.34,4.38,6.51,6.51,0,0,1-1.78,1.63c-.61-1.39-2.06-1.65-3.59-1.3-1.74.4-2.89,1.58-2.5,3.31a3.24,3.24,0,0,0,.14.44c-5.34,1.57-15,3.08-27.22.91l-2.4-5.41S447.58,107,460.26,100.56Z" transform="translate(-50.35)"/><path class="cls-74" d="M420,104.13c4,3.07,36.34.63,40.28-3.58-5.91,3-28.73,5.41-37.92,3,0,0,1.68-1.8,1.41-3.19A19,19,0,0,1,420,104.13Z" transform="translate(-50.35)"/><path class="cls-79" d="M460.83,109.84s-.81,13.35-22.55,12.8C438.28,122.64,440.48,109.44,460.83,109.84Z" transform="translate(-50.35)"/><path class="cls-74" d="M463.35,102.67a13.29,13.29,0,0,0-5.44-4.16c-.64-.29-1.2.66-.56,1a12.32,12.32,0,0,1,5,3.76c.41.57,1.36,0,1-.56Z" transform="translate(-50.35)"/><path class="cls-74" d="M457,128.45a14.12,14.12,0,0,1-6.31,4.61,10.12,10.12,0,0,1-6.86-.38c-1.67-.69-3.82-2.07-3.62-4.13,0-.32-.28-.52-.55-.55-3.48-.45-8.93-2.24-10-6.41l-.68.68a54.33,54.33,0,0,0,13.19.72c6.52-.41,14.24-2.19,17.72-8.33,2.4-4.22,2.05-9.3,1-13.85-.17-.69-1.23-.4-1.06.29,1,4.09,1.38,8.66-.59,12.53a13.71,13.71,0,0,1-7.23,6.22c-5.69,2.34-12.25,2.42-18.29,1.9-1.47-.13-3-.28-4.41-.55a.56.56,0,0,0-.68.68c1.23,4.65,6.78,6.66,11.09,7.22l-.55-.55c-.47,4.67,6.71,6.37,10.1,6s6.67-2.78,8.74-5.51c.43-.57-.53-1.11-1-.56Z" transform="translate(-50.35)"/><path class="cls-68" d="M401.9,199l-7.49-1.65s-3.15-25.84,14.16-27.58l3,3.73S402.88,180.27,401.9,199Z" transform="translate(-50.35)"/><path class="cls-69" d="M411.56,167.25" transform="translate(-50.35)"/><path class="cls-71" d="M381.63,168.73s7.55-7,23.44-3.51a8.88,8.88,0,0,1,.69-5.54s-14.31-5.69-24,2.15A28,28,0,0,0,381.63,168.73Z" transform="translate(-50.35)"/><path class="cls-68" d="M527.65,97c-.12-4.17,3.34-7.71,3.9-11.83.38-2.78-1.16-4.27-3.87-4.35-6.59-.2-11.38,5.35-11.47,11.65a.41.41,0,0,0,.83,0c.08-5.86,4.52-11,10.64-10.82,1.43,0,2.82.47,3.08,2.06A9,9,0,0,1,529.9,88c-1.1,2.93-3.17,5.74-3.08,9a.41.41,0,0,0,.83,0Z" transform="translate(-50.35)"/><path class="cls-71" d="M513.46,116.79c8-1.09,15.08.69,15.72,5.07.56,3.86-4.87,8.1-12.88,9.18s-15.85-1.43-16.38-5.3S505.46,117.88,513.46,116.79Z" transform="translate(-50.35)"/><path class="cls-88" d="M527.19,97.29a8.82,8.82,0,0,1,.91-4.21c2.08-4.46,5.29-10.71,1-11.69s-12.49,2.3-12.45,11.24l-1.28-.07a19.84,19.84,0,0,0-13.73,5,7.28,7.28,0,0,0-2.45,5.18,5.17,5.17,0,0,0,1,3.39c-1.22.72-3,6.83-.06,9.46h0a10.19,10.19,0,0,0-.86,4.2c.12,1,.45,3.82,2.16,5.37,4.93,4.46,23.83,7.46,26.56-6.64a83,83,0,0,0,1-14.11A12.65,12.65,0,0,0,527.19,97.29Z" transform="translate(-50.35)"/><path class="cls-81" d="M528,81.58A22.31,22.31,0,0,1,525.67,90a38.33,38.33,0,0,0-2.1,4,36.15,36.15,0,0,0-.25,12.9c1.17,6.88.71,17.42-3.06,20.93,0,0,8.69-1,8.63-18.64,0,0,.18-2.24.17-5.28,0-1.91-.56-5.8-1.83-6.88,0,0,1-4.68,1.75-5.8S534.19,81.82,528,81.58Z" transform="translate(-50.35)"/><path class="cls-68" d="M499.88,115.49a9.49,9.49,0,0,0,.62,9c1.22,1.77,3.51,2.72,5.48,3.39,5.11,1.75,11.41,2.07,16.24-.67,7-4,7-13.06,7.11-20.16.06-3.77.12-8-2.51-11-2.08-2.38-5.25-3.26-8.28-3.62a22.48,22.48,0,0,0-14.65,3.08c-3.44,2.14-7,6.81-3.92,10.77.21.28.69,0,.48-.28-3.4-4.42,1.57-9,5.27-10.89a21.94,21.94,0,0,1,12.39-2.19c3,.31,6.27,1.11,8.33,3.5,2.59,3,2.42,7.25,2.35,11-.12,6.51,0,14.86-6.11,18.9-4.18,2.77-9.75,2.8-14.46,1.66a16.44,16.44,0,0,1-6.15-2.63c-2.93-2.26-2.86-6.53-1.64-9.64.13-.33-.4-.47-.53-.15Z" transform="translate(-50.35)"/><path class="cls-68" d="M512.25,104c-3.77-.7-8.49-.6-11.81,1.61-1.83,1.22-2.25,4.28-2.15,6.31s1,4,3.23,4.25a29.07,29.07,0,0,0,10.31-.57c.34-.08.2-.62-.15-.53a30.12,30.12,0,0,1-8,.69,9.65,9.65,0,0,1-3-.3c-1.34-.52-1.76-2.26-1.82-3.55-.09-1.9.28-4.88,2.08-5.95,3.28-1.94,7.53-2.12,11.19-1.44.35.06.5-.47.15-.53Z" transform="translate(-50.35)"/><path class="cls-71" d="M385.92,150s6.4-1.54,20.87,8a13.16,13.16,0,0,1,2-2.08s-8.17-10.39-18.91-10.75A30.77,30.77,0,0,0,385.92,150Z" transform="translate(-50.35)"/><path class="cls-71" d="M494.62,137.39s.94,14.4,9.48,22.22a26.49,26.49,0,0,0,7.28-3.37s-7-4.15-14.3-21.08Z" transform="translate(-50.35)"/></g></g></svg>