<svg id="Layer_1" data-name="Layer 1" xmlns="http://www.w3.org/2000/svg" xmlns:xlink="http://www.w3.org/1999/xlink" viewBox="0 0 872.31 872.31"><defs><style>.cls-1,.cls-14,.cls-15,.cls-16,.cls-24,.cls-26,.cls-29,.cls-6{fill:none;}.cls-2{clip-path:url(#clip-path);}.cls-3{fill:#ffdbb5;}.cls-4{fill:#edad9c;}.cls-5{fill:#e65253;}.cls-24,.cls-6{stroke:#9a0303;}.cls-14,.cls-15,.cls-16,.cls-24,.cls-26,.cls-29,.cls-6{stroke-miterlimit:10;}.cls-24,.cls-26,.cls-29,.cls-6{stroke-width:1.22px;}.cls-19,.cls-7{fill:#9a0303;}.cls-30,.cls-7{opacity:0.1;}.cls-8{fill:#736357;}.cls-9{fill:#89796f;}.cls-10{fill:#5b4d45;}.cls-11{fill:#ee7267;}.cls-12{fill:#eead9f;opacity:0.3;}.cls-13{fill:#564c45;}.cls-13,.cls-34{opacity:0.5;}.cls-14,.cls-15,.cls-16{stroke:#736357;}.cls-14{stroke-width:2px;}.cls-15{stroke-width:2.56px;}.cls-16{stroke-width:2.38px;}.cls-17{fill:#fde1b6;}.cls-18{fill:#fff4e6;}.cls-19{opacity:0.05;}.cls-20,.cls-21{fill:#9c0301;}.cls-20{opacity:0.2;}.cls-22{fill:#1cc6cf;}.cls-23{fill:#24dddd;}.cls-24,.cls-26{stroke-dasharray:4.88;}.cls-25{fill:#ffc34a;}.cls-26{stroke:#f2b12f;}.cls-27{fill:#fcd977;opacity:0.4;}.cls-28{fill:#0099b9;}.cls-29{stroke:#d93a34;}.cls-31{fill:#a67c52;}.cls-32{fill:#ffe5cc;}.cls-33{fill:#f7d3a9;}.cls-34{fill:#00728e;}</style><clipPath id="clip-path"><circle class="cls-1" cx="436.16" cy="436.16" r="431.18"/></clipPath></defs><title>futuro_recortada</title><g class="cls-2"><path class="cls-3" d="M320.66,648.15l-2.09,55.67c76,81.33,126.72,74.22,230.4,38.65L545.57,637Z"/><path class="cls-4" d="M430,694.68l-4.13,17.73c19.8.17,18.67,23.16-1.22,23.89,13.09-10.11,8.95-20.43-4.17-19.54L423.53,693Z"/><path class="cls-5" d="M537.24,1064.61c-65.55,21-139.31,6.52-214.74-10.1,13.05-114.52,15.13-211.89,3.08-346.92,75.18,26.62,116.2,35.69,158.19,10.59C529.44,863.28,579,989.6,537.24,1064.61Z"/><path class="cls-6" d="M398.16,742.87c31.11,8.37,63.62,3.38,86.72-9.28"/><path class="cls-7" d="M454.43,1075c27.49-122.29,41.18-235.74,27.73-347.59,28.19,93.55,32.91,221.69,34.44,347Z"/><path class="cls-8" d="M587.57,700.74c12.74,9.19,43.31,26.71,43.31,26.71s59.63,70.66,74.08,89S746.77,935,762.14,1000.48C722.5,974.74,682.29,955.19,638.31,977c4.83-72.64-8.45-143.38-60.86-210Z"/><path class="cls-9" d="M629,726.36l81.07,98.73c16.35,42.71,29.85,84,39.39,123.34l-18.12,5.26-32.7-121.84-82-98.26-24.31-16.72V704Z"/><path class="cls-10" d="M601.17,709.7c-20.58,14-15.53,37.92-18.63,64l6,8.33c8-26.73,22.14-48.41,40.47-55.65Z"/><path class="cls-11" d="M477.65,714.65c38.93,120.21,17.51,324.59,7.49,368,43.78,4.34,109.81-15.63,138.65-35.51C597.9,959.8,589,813.8,593.82,696.86l-15.34-10.8Z"/><path class="cls-12" d="M593.82,696.86c-29.54,11.65-61.23,17.59-94.42,19.52l72.77,40.76,1.8,41.63,18.35,30.08Z"/><path class="cls-7" d="M583.69,689.74c-42.54,20.94-79,31.46-102.15,24.52l96.94-28.19Z"/><path class="cls-8" d="M271.58,707.36l-14.3,7.6c-6.47,7.28-33.81,20.34-38.53,27.92-41.9,67.26-77.07,146.29-77.07,146.29s-11.34,89.32-11.34,149c32.21-14.06,79.45-17.32,116.89,0l-1.56-39.83a642.57,642.57,0,0,1,46.17-214.88C299.1,761.31,298.61,737.39,271.58,707.36Z"/><polygon class="cls-9" points="257.28 714.96 218.75 742.87 141.68 889.16 130.34 1007.4 151.11 1025.23 166.64 891.32 239.91 749.87 262.37 730.63 257.28 714.96"/><path class="cls-10" d="M260.25,885.41c-41.5-27.8-59.28-32.51-118.57-1.65L155.8,859c54-27.28,66.58-14,108.09,10.8Z"/><path class="cls-10" d="M284.91,801.36c-14.92-23-28.8-52.15-66.16-58.48L206,764c28.43,7.66,51.67,28.53,72.36,55.92Z"/><path class="cls-13" d="M257.28,715c2.67,6.18,8.78,33,6.62,60.88-7,11.17-50.82,125.41-50.82,125.41l-4,125.4c-.06,11.84,36.62-15.1,36.62-15.1,4.15-87.24,26.6-169.16,46.17-228.11-5.95-31.23-17.11-64-25.23-73.44C266.59,710,257.73,714.81,257.28,715Z"/><path class="cls-11" d="M401.7,715.08C414,826.94,424,1016.6,414,1094c-42.05,2.18-114.12.22-145.49-15.89,15.68-116.85,45.36-227.49-6.16-374.18l19.93-11.3,4-19.74Z"/><path class="cls-14" d="M401.7,715.08C421.82,869.78,420.48,1009.7,414,1094"/><path class="cls-7" d="M572.28,761.26v13a121.71,121.71,0,0,1-58.18,7.14l-2.81-21.89Z"/><path class="cls-7" d="M307.12,780.63l3.27,14.75c25.58,2.39,49.39,1.28,69.39-7.38l1.61-6.5Z"/><path class="cls-7" d="M322.5,698l79.2,17.1c-28.45,2.44-58.08-1-88.31-7.49l-11.69,12.35c4.52,37,8.18,70.76,10.67,106.71.14,2,31.88,12,68.79,2.64-31.55,21-63.92,21.32-67.64,21.32a2259.64,2259.64,0,0,1,1.19,239.27l-46.19-11.82c25-125.6,33-272.42-6.16-374.18l19.93-11.3,2.82-13.81Z"/><path class="cls-15" d="M307.12,769.32l5.26,57.33c33.33,13.83,68.79,2.64,68.79,2.64L379,764Z"/><path class="cls-16" d="M511.28,759.5l7.11,55.32s30.14,8.37,55.16-5.53l-1.39-52.14Z"/><path class="cls-10" d="M710.08,825.09c-31.94-11.38-69.45-3.31-89.68,16.92l8.49,26.12c25-23.11,72.92-19.35,95.51-5.61A337.17,337.17,0,0,0,710.08,825.09Z"/><path class="cls-13" d="M682.46,894.84c-3.66-38.74-20.39-63-20.39-63s-52.69-75.19-69.28-98.26l1.15,56.46c22,29.38,40.06,82,44.79,140.73l59.93,16.92S703,917,682.46,894.84Z"/><path class="cls-8" d="M380.39,741.44,306.85,743l-8.41,36.23c26.8,4.62,54,7.21,82.94,2.29Z"/><path class="cls-8" d="M505.48,738.5l4.55,27c8.65,1.42,45,1.34,71.51-6.68l-16-29.22Z"/><path class="cls-17" d="M678.38,536.8,655.5,577.71s21.11,12.39,31-9.65S678.38,536.8,678.38,536.8Z"/><path class="cls-18" d="M669.42,552.82c7.89-.93,14.08,2.83,19.1,9.8,3.84-15.14-4.66-22.8-10.15-25.82Z"/><path class="cls-19" d="M667.22,556.75l2.2,24.4a27.61,27.61,0,0,1-13.92-3.44Z"/><circle class="cls-5" cx="425.6" cy="422.43" r="277.39" transform="translate(-47.64 790.7) rotate(-82.68)"/><path class="cls-20" d="M449.2,582.44C297.94,563,186.83,436.06,182.74,288.26a276.64,276.64,0,0,0-32.26,98.8C130.94,539,238.29,678,390.24,697.55c134,17.22,257.9-64.22,298.71-187.9A304.74,304.74,0,0,1,449.2,582.44Z"/><path class="cls-21" d="M196,555.9c21.12-16.15,60,46.06,47.1,61.8C235.87,628.39,177.41,570.08,196,555.9Z"/><path class="cls-22" d="M635.56,150c16.27,43.36,34.18,140.75,34.18,140.75C569.7,167.14,279.36,416.48,157,352.93c13.3-37.62,15.22-106.65,40.15-177.19,23.55-30.17,193-124.12,270.41-114,60.11,12.79,120.87,52.51,154,71.66A32.18,32.18,0,0,1,635.56,150Z"/><path class="cls-23" d="M255.08,133.69c26.18-15.07,86.17-42.76,93.27-46-2.49,21.07,88.83,41.8,67.65,57.27C387.38,165.34,303.75,122,255.08,133.69Z"/><path class="cls-23" d="M218.75,237.6c25.38-79.11,127.78,31.09,103.75,51.64L228.68,342.6S214.43,287.54,218.75,237.6Z"/><path class="cls-23" d="M644.59,178.46c6.34,18.82,20.93,90.44,20.93,90.44l-47.64-23.51c14.89-13.49,5.1-54.09,7.22-71.5C626.38,163.45,638.35,161.35,644.59,178.46Z"/><path class="cls-23" d="M539.87,87.74s61.12,31.51,81.71,45.64c-32.17-2.8-7.06,47.13-27.67,54.29C567.24,181.82,577.45,126.76,539.87,87.74Z"/><path class="cls-23" d="M467.59,61.71C556.72,104,568.68,232.26,568.68,232.26L351.43,276.64c-1.94-55.59-45-52.5-49.35-88.63,3-38.29,125.27-12.29,144-42.22s-83.51-59.2-49.73-74.86C396.33,70.93,437.84,52.4,467.59,61.71Z"/><path class="cls-24" d="M702.54,405.77c-16.61-34.93-37.27-57.09-61.68-66.12.92-14.24-4.58-20.43-8.21-22.93-5.27-3.63-12.14-3.7-18.37-.16-6.74,3.82-11.26,11-12.35,19.26-21.3,3-44.91,13.61-70.41,31.76,1.92-8.24,3.6-16.57,5-24.85l1.8,13,44-20.07.33-3.46c7.11-73.45,1.71-128.29-19.89-202.36l-1.1-3.79c-29.61-3.32-59.1-6-87.38-2.19,16.8,41.78,23.36,94.66,20.24,164.78-9-26.27-18.06-49.18-27.36-69.46-15.36-33.48-31.63-60.28-49.72-82l-2.66-3.19L309.23,170.44l6.64,6.81c37.44,38.39,64.7,93.13,85.79,172.25l.8,3,45,16.83.65-7.94c.07-.79,1.07-13.4.64-29.52,7.34,17,11.48,36.13,13.81,52.65-22.32-7.22-41.3-14.9-58.28-21.78-32.46-13.15-58.1-23.53-83.83-20.35-56.91,7-93.86,48.5-113,126.74l-2,8.08,34.23-2.64c18.79,13.1,36.61,22.84,53.79,29.4-7.91,11.94-10.9,27.68-6.89,40.05,2.71,8.36,8.2,14.19,15.74,16.86L290.36,654.7l4.09,1.83c39.12,17.5,77.93,27.87,115.36,30.84q11.42.91,22.79.91c48.88,0,97.26-12.52,144.13-37.33l3.49-1.85-.3-3.93c-2-26.52-4.25-56.48,3.39-94.58A31.71,31.71,0,0,0,607,516.3c-1.57-13.06-11.06-21.16-23.68-20.16l-.49.06c-67.75,11-127.44,12.86-180.74,5.5,21.54-9.62,43.45-24.84,66.1-45.88l9.44,17.63,67.32-21.68-5-6.75-.29-.4c22.29,14.81,44.1,27.84,65.19,34.57-1.31,7.9-2.38,15.9,1.4,21.55l.43.65.58.52c7.29,6.46,27.52,10.83,37.18.06,3.58-4,3.84-10.21,4.12-16.78,0-.93.08-1.84.12-2.72,15.31-3.35,28.86-11.88,41.24-25.94a49.23,49.23,0,0,0,10.87,1.38"/><path class="cls-25" d="M710.05,440.71c-19.54-57.71-45.37-88-75.72-96.87,5.47-35.71-28.14-26.83-26.6-2.6-26.46,2.09-55.53,17-86.29,41.48,8.48-30.59,13.5-63.08,14.29-89.67l7.45,53.86,33.48-15.27c7.22-74.59,1.1-128.85-19.68-200.09-12.25-1.3-75.07-4.68-74.11-2,19.54,54.18,21.25,120.13,15.72,190.86-11-35.09-23.05-68.47-36.91-98.65-14.09-30.7-30.08-58.1-48.87-80.61L320.18,173c42.37,43.45,68.64,104.91,87.3,174.91l34.67,13s2.39-28.94-1.54-55.26c18,23.31,25.89,57.86,29.14,87.44-71.24-21.71-110-49.47-148.51-44.7-58.4,7.23-90.82,52.45-107.86,122.19l28.09-2.17c31.64,22.34,61,35.53,89.64,38.93-2.17,14.19,27.76,18.15,26.85.29,36.46-3.61,72.6-23.69,111.81-61.6l10.79,20.16,23.71-7.64,30.8-9.92a27.47,27.47,0,0,1-5.56-18.08c28.18,19.22,55.88,37.31,82.1,44.37-1.25,8.17-3.57,17.74-.4,22.48,5.19,4.6,21.76,8.28,28.69.55,3.21-3.58,2.11-13.74,3.16-20.58,15.72-2.31,30.67-10.66,44.62-27.55C702.94,453.68,711,452.91,710.05,440.71Z"/><path class="cls-26" d="M683.69,446.52l2.08-2.52,3.17.81a50.58,50.58,0,0,0,11.58,1.92c1.87,0,3.22-.3,3.71-.84.21-.23.85-1.17.7-4.16-18-52.91-42.27-84.18-72.06-92.93l-4.33-1.27.68-4.46c1.64-10.67-.84-14.91-2-16.24a4.49,4.49,0,0,0-3.59-1.66,9.79,9.79,0,0,0-6.73,3.4,16.1,16.1,0,0,0-4.05,12.35l.32,5.08-5.07.4c-24.14,1.91-52.23,15.49-83.48,40.37l-12.44,9.91,4.25-15.33c8.17-29.46,13.31-61.69,14.1-88.44l10.28-.55,6.5,47,24.45-11.16c6.42-69.29,1.27-121.94-18.8-191.81-12.42-1-43.22-2.68-59.32-2.68-1.54,0-2.82,0-3.88,0,15.76,47.4,20.19,107.1,13.94,187l-2.08,26.57-8-25.43c-12.2-38.79-24.2-70.86-36.67-98-14.3-31.15-29.33-56.29-45.89-76.71l-81.68,28.15c35.59,39,61.89,92.94,82.35,168.73l25.62,9.57c.44-10,.77-29.35-1.9-47.21l-2.93-19.62,12.12,15.7c19.56,25.34,27.21,62.95,30.18,90l.85,7.79L468.24,398c-26.72-8.14-48.71-17-68.12-24.91-27.75-11.24-49.67-20.11-70-20.11a67.37,67.37,0,0,0-8.24.5c-27.09,3.35-48.71,15.08-66.12,35.84-15.29,18.24-27,43-35.59,75.52l20.91-1.62,1.86-.14,1.52,1.07c31.68,22.37,60.23,34.81,87.27,38l5.31.63-.81,5.28a3.59,3.59,0,0,0,.91,3.1c1.63,1.89,5,3.17,8.33,3.17a8.33,8.33,0,0,0,6-2,5.72,5.72,0,0,0,1.31-4.45l-.25-4.92,4.9-.48c34.85-3.45,70.41-23.13,108.72-60.17l4.92-4.75,3.23,6,8.76,16.36,19.61-6.32,24.62-7.93a32.86,32.86,0,0,1-3-15.34l.33-9.36,7.74,5.28c28,19.12,55.29,36.85,80.53,43.65l4.46,1.2-.7,4.57c-.19,1.26-.41,2.54-.63,3.84-.79,4.7-2,11.64-.86,14.44,2.2,1.5,7.21,3.27,12.4,3.27,2.22,0,6.27-.36,8.43-2.77.91-1.22,1.14-6.58,1.27-9.78a76.39,76.39,0,0,1,.63-8.14l.58-3.77,3.78-.55C657.73,470,671.27,461.56,683.69,446.52Z"/><path class="cls-27" d="M461.69,221.72c-14.09-30.7-30.08-58.1-48.87-80.61L320.18,173c42.37,43.45,68.64,104.91,87.3,174.91l34.67,13s2.39-28.94-1.54-55.26c18,23.31,25.89,57.86,29.14,87.44-71.24-21.71-110-49.47-148.51-44.7-58.4,7.23-90.82,52.45-107.86,122.19l28.09-2.17c31.64,22.34,61,35.53,89.64,38.93-2.17,14.19,27.76,18.15,26.85.29,36.46-3.61,72.6-23.69,111.81-61.6l10.79,20.16,23.71-7.64-5.68-138.16Z"/><polygon class="cls-8" points="540.9 289.24 540.9 360.41 681.96 360.45 681.86 324.85 540.9 289.24"/><polygon class="cls-8" points="411.27 274.15 421.46 362.29 251.03 393.39 251.03 333.77 411.27 274.15"/><path class="cls-7" d="M683.41,320c-154.33-54.17-257.81,19.67-381.33,50.18L472.8,247.54s178.78,14.36,181.84,18.88C667,284.75,677.14,302.69,683.41,320Z"/><path class="cls-28" d="M708.41,303.17l-.51,3.94a9.22,9.22,0,0,1-15,6c-20.81-17.29-66.8-46.75-135.29-42.8C448.52,275.48,257.76,450.59,157,352.93,236.31,376,344.5,243.25,497.4,230c75.35-7.21,132.44,16.56,168.12,38.9Z"/><path class="cls-22" d="M557.6,270.26c68.49-3.95,114.48,25.51,135.29,42.8a9.22,9.22,0,0,0,15-6l.51-3.94c-47.2-34.71-93.17-48.79-137.71-50.27-74.3-2.47-132.7,36.23-195.95,69.59C302.6,360.53,226.64,391.95,157,352.93,257.76,450.59,448.52,275.48,557.6,270.26Z"/><path class="cls-17" d="M583.78,502.15c23.85-1.9,24.24,38.6-5.58,43.39-8.55,39.76-6.56,70-4.3,100.09C518.5,675,464,685.63,410.28,681.37c-38.14-3-75.91-13.58-113.37-30.34l12.18-94.73c-35.45-4.56-15.68-80.2,30.93-61.87C413,516.46,495.28,516.54,583.78,502.15Z"/><path class="cls-19" d="M532,563.16l-13.13,51,4.87,53.07L468,683.33c29.3-16.61,35.94-42.16,30.72-78.28Z"/><circle class="cls-17" cx="447.31" cy="633.89" r="57.14" transform="translate(-238.43 996.74) rotate(-82.68)"/><path class="cls-4" d="M395.4,543.89l.06,0a2.16,2.16,0,0,1,.15,3.34,63.11,63.11,0,0,0-16.52,25.35,2.14,2.14,0,0,1-3.71.64l-1.16-1.47a2.15,2.15,0,0,1-.28-2.23A73.19,73.19,0,0,1,392.7,544,2.16,2.16,0,0,1,395.4,543.89Z"/><path class="cls-8" d="M591.14,645c5.42,27.8-9.49,26.59-12.66,41.08-18,10.33-59.64,24.68-100.83,28.59C490.45,700.2,554.93,661.46,591.14,645Z"/><path class="cls-17" d="M196.12,559.84c-39.71,21.81.49,72.41,44.28,56.47C245.69,590.65,216,553.71,196.12,559.84Z"/><path class="cls-7" d="M420.08,499.94c0,30.49,20.09,20.54,39.42,12.08,27.14,28,62.23,14.95,100-12.08,11.68-6.23,15.91-11.81,15-16.94Z"/><path class="cls-17" d="M424.6,412.69c31.48-6.76,41.56,26.07-4.9,32.92-75.19,44.09-114.16,20.86-147.95-12l-7.16-1.73C299.66,385,342.88,356.18,424.6,412.69Z"/><path class="cls-17" d="M537,407.2c-6.2,6.87-5.63,12.8,2.84,17.66,37,38.2,78.13,22.73,120-1.86,7.49,3.39,9.8-.44,10.58-6.42C651.12,371.28,624.22,338.65,537,407.2Z"/><path class="cls-29" d="M424.6,412.69c31.48-6.76,41.56,26.07-4.9,32.92-75.19,44.09-114.16,20.86-147.95-12l-7.16-1.73C299.66,385,342.88,356.18,424.6,412.69Z"/><path class="cls-29" d="M537,407.2c-6.2,6.87-5.63,12.8,2.84,17.66,37,38.2,78.13,22.73,120-1.86,7.49,3.39,9.8-.44,10.58-6.42C651.12,371.28,624.22,338.65,537,407.2Z"/><g class="cls-30"><path class="cls-31" d="M554,411.37c-3.14,6.72,4.36,6.6,7.87,11.2,12.54,16.4,42.22,13.43,51.77,2.28l-52.61-14Z"/></g><path class="cls-32" d="M557.31,413.26l4.57,3c19,23.94,59.47,18.17,68.38-14.59C610.66,389.43,594.63,388.92,557.31,413.26Z"/><path class="cls-31" d="M554.93,409.68c44.17-30.9,61-20.53,77.82-9.87a1.25,1.25,0,0,1-.94,2.28,12.1,12.1,0,0,1-1.55-.41c-25.08-8.89-37.67-10.68-72.95,11.58a2.15,2.15,0,0,1-3.3-1.89h0A2.16,2.16,0,0,1,554.93,409.68Z"/><circle class="cls-31" cx="593.75" cy="408.45" r="20.46" transform="translate(165.02 987.73) rotate(-88.02)"/><circle class="cls-8" cx="593.75" cy="408.45" r="11.8" transform="matrix(0.03, -1, 1, 0.03, 165.02, 987.73)"/><circle class="cls-17" cx="605.3" cy="394.95" r="8.66" transform="translate(189.66 986.24) rotate(-88.02)"/><circle class="cls-33" cx="589.41" cy="403.8" r="4.49" transform="translate(165.47 978.91) rotate(-88.02)"/><path class="cls-32" d="M315.7,411.64c2.2,29.6,55.68,60.53,85.28,17.82l10.4-5.52C382,398.17,355.17,394.57,315.7,411.64Z"/><path class="cls-31" d="M411.37,423.93h0a3.27,3.27,0,0,1-4.74.06c-24.11-24.42-56.44-25.34-94.47-9.93-1,.41-2-1.06-1.13-1.63,47.05-24.43,76.45-14,100.1,6.81A3.28,3.28,0,0,1,411.37,423.93Z"/><circle class="cls-31" cx="365.64" cy="421.25" r="24.63" transform="translate(-89.86 743.22) rotate(-84.3)"/><circle class="cls-8" cx="365.64" cy="421.25" r="14.21" transform="translate(-89.86 743.22) rotate(-84.3)"/><circle class="cls-17" cx="380.59" cy="405.93" r="10.43" transform="translate(-61.15 744.3) rotate(-84.3)"/><circle class="cls-33" cx="360.81" cy="415.96" r="4.9" transform="translate(-88.94 733.65) rotate(-84.3)"/><path class="cls-17" d="M459.15,480.55c49.65-52.83,79.94-51.51,97.57-14.79,19.61-12.39,35.59,22.75-1.14,23.38-16.06,33.12-79.75,30.83-94.66,11.52C392.51,532.24,422.9,455.68,459.15,480.55Z"/><path class="cls-4" d="M384.94,556.71a2.17,2.17,0,0,1,2.72-.55c30.52,15.78,119.94,13.65,144.31,7,.31-2.44-26.26,47.25-26.26,47.25,23.71,73.88-79.59,114-118.72,53.7,47.35,42.72,129.39,20.36,108-56.94l17-35.71c-76.28,9.31-104.43.83-127.81-9.42a2.15,2.15,0,0,1-.82-3.3Z"/><path class="cls-14" d="M477.65,714.65c30.05,71.64,27.32,312.88,1.85,368"/><path class="cls-8" d="M401.7,715.08c-38.64-30.59-84.88-44.6-130.36-62.05-2.61,15.25-3.14,25.74,9.09,32.42C330.93,706.75,348.28,713,401.7,715.08Z"/><path class="cls-18" d="M459.15,480.55c49.85-53.79,81.52-50.63,97.57-14.79-21.66-34.74-58-11.22-96.18,19.77-17-6.58-34.25-2.53-40,8.53C426.07,475.79,445.35,470.77,459.15,480.55Z"/><polygon class="cls-8" points="287.76 688.2 285.87 697.44 264.58 711.09 267.71 719.86 292.64 701.74 297.05 686.16 287.76 688.2"/><path class="cls-34" d="M197.18,175.73c34.37-35.71,8.37,84.58,31.5,166.86l-23.13,25.2L157,352.93C169.88,282.93,182.85,215.55,197.18,175.73Z"/><path class="cls-7" d="M539.87,424.86c28.54,32.46,69.36,29.52,120-1.86C605.47,450.57,567.24,447.87,539.87,424.86Z"/><path class="cls-7" d="M271.75,433.6c33.81,42,82,48.78,147.95,12Q336.28,486.82,271.75,433.6Z"/><path class="cls-18" d="M196.12,559.84c-28.57,16.9-11.35,39.32-11.35,39.32,2.67-15.92,20.47-21,43.37-22.42C228.14,576.74,212.36,552.83,196.12,559.84Z"/><path class="cls-18" d="M351.43,497.67c-30.12-17.43-57.09.15-60.23,30C300.05,503.85,322.29,486.08,351.43,497.67Z"/><path class="cls-13" d="M585.23,658.52c-30,13.52-58.84,32.34-87.13,53.38,20.12-2.2,50.86-11.16,80.37-25.84C583.69,674.5,584.55,665.59,585.23,658.52Z"/><path class="cls-13" d="M280.43,685.45l-4.77-22c30.44,9.35,64.26,24.66,93.75,49.31A296.35,296.35,0,0,1,280.43,685.45Z"/><path class="cls-7" d="M573.56,809.28c-19.78,19.69-38.07,20.27-55.16,5.53C537.36,819.82,555.81,818.69,573.56,809.28Z"/></g></svg>