<svg id="Layer_1" data-name="Layer 1" xmlns="http://www.w3.org/2000/svg" xmlns:xlink="http://www.w3.org/1999/xlink" viewBox="0 0 668 295"><defs><style>.cls-1{fill:none;}.cls-2{clip-path:url(#clip-path);}.cls-10,.cls-3,.cls-4,.cls-5,.cls-6,.cls-7,.cls-8,.cls-9{fill:#4c76ba;}.cls-3,.cls-95{opacity:0.4;}.cls-4,.cls-81{opacity:0.3;}.cls-5,.cls-68,.cls-74,.cls-76{opacity:0.5;}.cls-7{opacity:0.9;}.cls-8{opacity:0.6;}.cls-9{opacity:0.7;}.cls-10{opacity:0.8;}.cls-11{fill:#314a7d;}.cls-12{fill:#243f76;}.cls-13{fill:#eceef8;}.cls-14{fill:#5d94ba;}.cls-15{fill:#283994;}.cls-16{fill:#3d5388;}.cls-17{fill:#4260ac;}.cls-18{fill:#38308a;}.cls-19{fill:#545458;}.cls-20{fill:#3a3a3e;}.cls-21{fill:#14133e;}.cls-22{fill:#23285c;}.cls-23{fill:#1b3866;}.cls-24{fill:#4c8381;}.cls-25{fill:#2b367f;}.cls-26{fill:#27163f;}.cls-27{fill:#6767af;}.cls-28{fill:#5c4c9f;}.cls-29{fill:#27a0b0;}.cls-30{fill:#4e8dcb;}.cls-31{fill:#f9ed38;}.cls-32{fill:#4fb848;}.cls-33{fill:#010101;}.cls-33,.cls-83,.cls-89{opacity:0.2;}.cls-34{fill:#2e5592;}.cls-35{fill:#27316c;}.cls-36{fill:#88bcd8;}.cls-37{fill:#446494;}.cls-38{fill:#8c8a98;}.cls-39{fill:#4f4c50;}.cls-40{fill:#39489e;}.cls-41{fill:#bee5eb;}.cls-42{fill:#50a5db;}.cls-43{fill:#61b6dd;}.cls-44{fill:#35508f;}.cls-45{fill:#243770;}.cls-46{fill:#424a7f;}.cls-47{fill:#cdebef;}.cls-48{fill:#1d3766;}.cls-49{fill:#308d89;}.cls-50,.cls-58{font-size:6.91px;}.cls-50{fill:#edebe5;}.cls-50,.cls-57,.cls-58,.cls-60{font-family:RustproofBody-Regular, Rustproof Body;}.cls-51{fill:#414340;}.cls-52{fill:#2d7fc3;}.cls-53{fill:#323431;}.cls-54{fill:#77c6ef;}.cls-55{fill:#b4cdeb;}.cls-56{fill:#2f3743;}.cls-57,.cls-60{font-size:2.96px;}.cls-57{fill:#98abd8;}.cls-58,.cls-60{fill:#adc0e4;}.cls-59{fill:#4350a2;}.cls-61{fill:#101238;}.cls-62{fill:#67675f;}.cls-63{fill:#79abd0;}.cls-64{fill:#babecc;}.cls-65{fill:#131042;}.cls-66{fill:#736458;}.cls-67{fill:#8a7a70;}.cls-68{fill:#574d45;}.cls-69{fill:#5c4e46;}.cls-70{fill:#ffdfb8;}.cls-71{fill:#fedbb6;}.cls-72{fill:#ecad9c;}.cls-73{fill:#0599b9;}.cls-74{fill:#02738e;}.cls-75{fill:#e3e5e5;}.cls-76,.cls-82{fill:#8c93a0;}.cls-77{fill:#e55354;}.cls-78,.cls-79,.cls-88{fill:#9a1b1f;}.cls-79,.cls-84,.cls-97{opacity:0.1;}.cls-80{fill:#ee7267;}.cls-81{fill:#eead9f;}.cls-83,.cls-84{fill:#60656e;}.cls-85{fill:#fff;}.cls-86{fill:#fce1b6;}.cls-87{fill:#fff4e7;}.cls-88{opacity:0.05;}.cls-89,.cls-90{fill:#9c1c1f;}.cls-91{fill:#34c0cb;}.cls-92{fill:#57c5cd;}.cls-93{fill:#fec44b;}.cls-94{fill:#f2b12e;}.cls-95{fill:#fcd978;}.cls-96{fill:#d93b33;}.cls-98{fill:#a77d52;}.cls-99{fill:#ffe5cc;}.cls-100{fill:#f6d3a9;}.cls-101{fill:#73625a;}</style><clipPath id="clip-path"><rect class="cls-1" x="1.18" y="67.44" width="481.35" height="221.06"/></clipPath></defs><title>futuro_auto</title><g id="Lines"><g class="cls-2"><polygon class="cls-3" points="215.52 164.29 165.84 157.59 -73.94 167.68 -48.01 175.38 215.52 164.29"/><polygon class="cls-4" points="107.21 149.68 57.53 142.98 -130.47 150.89 -104.54 158.59 107.21 149.68"/><polygon class="cls-5" points="323.83 178.9 274.15 172.19 -17.41 184.46 8.53 192.16 323.83 178.9"/><polygon class="cls-6" points="265.26 268.4 315.49 283.32 816.17 251.75 767.93 245.24 265.26 268.4"/><polygon class="cls-7" points="659.62 230.63 208.73 251.61 234.66 259.31 709.3 237.33 659.62 230.63"/><polygon class="cls-8" points="432.14 193.5 382.46 186.8 39.13 201.25 65.06 208.95 432.14 193.5"/><polygon class="cls-9" points="540.45 208.11 490.77 201.41 95.66 218.04 121.59 225.74 540.45 208.11"/><polygon class="cls-10" points="648.76 222.72 599.08 216.02 152.19 234.83 178.13 242.53 648.76 222.72"/></g></g><path class="cls-11" d="M599.41,175.86c3.15,0,15.52-.82,18.89-.82,14.12,0,28.46,21.29,28.46,44.41s-10.9,40.42-25,40.42H603c-14.12,0-25.54-17.7-26.83-40.79C574.73,193.17,585.3,175.86,599.41,175.86Z"/><path class="cls-12" d="M576.18,219.09c1.29,23.09,12.71,40.79,26.83,40.79s25-17.3,25-40.42-14.49-43.6-28.61-43.6S574.73,193.17,576.18,219.09Z"/><polygon class="cls-13" points="228.38 112.55 221 104.56 192.12 102.92 185.82 143.65 208.15 143.65 228.38 112.55"/><polygon class="cls-14" points="192.12 102.92 214.97 133.17 208.15 143.65 185.82 143.65 192.12 102.92"/><path class="cls-15" d="M212.45,40.35l-4.3-6.14,52.53-12.6c9.52-8.29,35.94-14.44,40.55-15.67s5.84.61,5.84.61c9.83,0,29.8,5.53,32.26,6.76a6.4,6.4,0,0,1,3.07,4l-1.84,1.54c-4.3,29.49-11.67,37.48-12.29,41.17s9.83,44.85,9.83,44.85l-47-.61-10.45-42.7L244.71,37.28l-20.56,4.29-1.87-3.37Z"/><path class="cls-16" d="M225,41.58s4.28,8.89,6.45,11.06c.92.92,59.91-3.07,59.91-3.07,3.07-.61,15.67-5.84,16.9-7.07s3.38-5.84,3.69-7.37a31.8,31.8,0,0,0,0-5.53l1.23-1.84c.61-.92,3.69.31,4.92-2.15l-4.61-2.46a9.3,9.3,0,0,1-5.84,3.07c-4,.61-5.53,4.3-16.59,3.07S225,41.58,225,41.58Z"/><path class="cls-17" d="M277.19,30.52c5.72-.51,11.29-1.52,13.91-1.23,11.06,1.23,12.6-2.46,16.59-3.07a9.3,9.3,0,0,0,5.84-3.07l4.61,2.46c-1.23,2.46-4.3,1.23-4.92,2.15L312,29.6a31.8,31.8,0,0,1,0,5.53c-.31,1.54-2.46,6.14-3.69,7.37s-13.82,6.45-16.9,7.07c0,0-12.37-4.07-13.13-10.21S274.42,33,274.42,33Z"/><path class="cls-18" d="M225.35,42.81c11.06-3.07,64.21-12.6,64.21-12.6,11.37,2.15,17.82-2.76,17.82-2.76a12.73,12.73,0,0,0,6.76-3.07s12.29,5.22,13.52,7.37c0,0-1.84,18.74-8,20.58s-35.33,5.84-35.33,5.84-3.63.6-11.06-7.37l-14.13.92L280,67.39s37.18-7.63,41.17-8.29c3.69-.61,10.73-25.34,9.52-27.34-1.84-3.07-17.2-10.45-17.2-10.45-3.07,4-6.76,4-6.76,4-7.07,5.53-17.2,2.46-17.2,2.46s-2.46-.92-11.67,1.23-54.38,11.37-54.38,11.37S224.43,43.12,225.35,42.81Z"/><path class="cls-19" d="M225.66,113.47s-29.49,12.6-37.79,17.82a60.09,60.09,0,0,0-12.64,10.29H186.7s3.94-6.3,6.4-8.45,27-12.9,27-12.9Z"/><path class="cls-20" d="M223.36,116.08s-22.12,8.91-30.41,14.13-11.06,11.37-11.06,11.37h4.81s3.94-6.3,6.4-8.45,27-12.9,27-12.9Z"/><path class="cls-21" d="M373.69,184.44s-47.41-13.08-46.34,46.32l-128-25.18s-6.05-38.09-14-32.36-10.8,7.58-11.65,31.13l-4.94-4.3s-4.1-16.38,0-32.36,20.38-19.87,26-7.58l181.51,12Z"/><path class="cls-12" d="M186.43,166.39H202.2c7.78,0,14.09,15.83,14.09,35.37S210,237.12,202.2,237.12H186.43c-7.78,0-14.09-15.83-14.09-35.37S178.64,166.39,186.43,166.39Z"/><path class="cls-22" d="M322.44,226.83s2.46,22.12,3.69,22.73,6.14,0,6.14,0v5.22s-2.46.31-8-.92S210,228.37,208.46,225.6s-3.69-19-3.69-19Z"/><path class="cls-23" d="M322.44,226.83s2.46,22.12,3.69,22.73,6.14,0,6.14,0v-2.23s-3.61.84-3.84-1.08S325,226.37,325,226.37Z"/><path class="cls-12" d="M353.47,176.52c3.87,0,19.08-1,23.22-1,17.35,0,35,26.17,35,54.6s-13.4,49.7-30.76,49.7h-23c-17.35,0-31.4-21.76-33-50.14C323.12,197.81,336.11,176.52,353.47,176.52Z"/><path class="cls-24" d="M174.2,209.78l-2-.15s-7.53-56.07,12.9-50.08a9,9,0,0,0-7.83,4.45C170.82,174.45,173,199.95,174.2,209.78Z"/><path class="cls-25" d="M312.3,146l-15.25-40.26s-36.06-.84-45.28.69-24.27,18.13-32.56,32-5.53,31.34-5.53,31.34c2.76,15.05,20,41.17,20,41.17l55.52,9.72,1.93-41.52Z"/><path class="cls-17" d="M226.35,146c-1-9,23.66-31,28.72-32s42.55-.54,42.55-.54l5.29,14.06s-6.62,9-9.72,18c-3.73,10.86,4.45,21.33,4.45,21.33-2.67,9.82-7.47,11.7-7.47,11.7l-1.59,31s-25.21-3.44-35.48-4.74c-10.08-1.28-7.7-18.12-7.7-21.68s-3.61-11.88-6.22-16.36S227.4,155.61,226.35,146Z"/><path class="cls-26" d="M290.91,153.25a2.73,2.73,0,0,1-2.73-2.73V127.87a2.73,2.73,0,0,1,2.73-2.73H302l.89,2.37s-6.62,9-9.72,18a18.58,18.58,0,0,0-.9,7.68Z"/><path class="cls-27" d="M292.71,147.26V127.87a2.73,2.73,0,0,1,2.73-2.73H302l.9,2.38s-6.62,9-9.72,18C293,146.14,292.84,146.7,292.71,147.26Z"/><polygon class="cls-28" points="243.07 122.53 243.07 156.84 260.88 156.84 260.88 121.76 243.99 121.76 243.07 122.53"/><polygon class="cls-29" points="258.3 124.07 258.3 125.57 255.87 125.59 255.87 124.07 258.3 124.07"/><polygon class="cls-30" points="258.3 125.45 258.3 126.96 255.87 126.97 255.87 125.45 258.3 125.45"/><polygon class="cls-31" points="258.3 126.91 258.3 133.56 255.87 133.63 255.87 126.91 258.3 126.91"/><rect class="cls-32" x="255.87" y="133.27" width="2.43" height="15.09"/><polygon class="cls-29" points="254.91 124.07 254.91 125.57 252.48 125.59 252.48 124.07 254.91 124.07"/><polygon class="cls-30" points="254.91 125.45 254.91 126.96 252.48 126.97 252.48 125.45 254.91 125.45"/><polygon class="cls-31" points="254.91 126.91 254.91 133.56 252.48 133.63 252.48 126.91 254.91 126.91"/><rect class="cls-32" x="252.48" y="133.27" width="2.43" height="15.09"/><polygon class="cls-29" points="251.58 124.07 251.58 125.57 249.15 125.59 249.15 124.07 251.58 124.07"/><polygon class="cls-30" points="251.58 125.45 251.58 126.96 249.15 126.97 249.15 125.45 251.58 125.45"/><polygon class="cls-31" points="251.58 126.91 251.58 133.56 249.15 133.63 249.15 126.91 251.58 126.91"/><rect class="cls-32" x="249.15" y="133.27" width="2.43" height="15.09"/><polygon class="cls-29" points="248.17 124.07 248.17 125.57 245.73 125.59 245.73 124.07 248.17 124.07"/><polygon class="cls-30" points="248.17 125.45 248.17 126.96 245.73 126.97 245.73 125.45 248.17 125.45"/><polygon class="cls-31" points="248.17 126.91 248.17 133.56 245.73 133.63 245.73 126.91 248.17 126.91"/><rect class="cls-32" x="245.73" y="133.27" width="2.43" height="15.09"/><path class="cls-33" d="M226.35,146c1,9.65,10.21,16.33,12.83,20.81s6.22,12.8,6.22,16.36-2.38,20.4,7.7,21.68c10.28,1.3,35.48,4.74,35.48,4.74l1.59-31s4.81-1.88,7.47-11.7c0,0-8.18-10.47-4.45-21.33,3.09-9,9.72-18,9.72-18l-5.29-14.06s-37.48-.38-42.55.54a15.18,15.18,0,0,0-4.66,2.55l4.28.6s-12.06,16.13-16.44,25.58h-9.91s.86-4,4.93-10.13C229,137.68,226,142.68,226.35,146Zm27.27,2.46,7.22-25.19h19.82v25.19Z"/><path class="cls-34" d="M286.13,152.43s3.81-19.84-14.31-19.84-18.36,7.83-18.13,13a32.21,32.21,0,0,0,1.77,9.14s-9.68,3-8.37,11.29c0,0,11.26,38.09,16.72,41.63l27,3.92,1.64-31.67,8.6-10.85S294,151.72,286.13,152.43Z"/><path class="cls-35" d="M255.46,154.71a32.21,32.21,0,0,1-1.77-9.14c-.23-5.15,0-13,18.13-13,0,0-12.21.69-11.83,9s1.69,12,1.69,12S257.63,153.46,255.46,154.71Z"/><path class="cls-35" d="M255.46,154.71s8.75-2.84,11.11,16.26c1.68,13.57,8.5,12.29,15.16,39.89l9.32,1.69L295,176.72s-3.07-2.57-3.43-9.87c-.62-12.8-5.43-14.41-5.43-14.41s-1.33,1.51-21.38,1.28C264.76,153.71,257.84,153,255.46,154.71Z"/><path class="cls-35" d="M255.46,154.71s-9.68,3-8.37,11.29c0,0,11.26,38.09,16.72,41.63l7.94,1.43A152.62,152.62,0,0,1,259.36,184C256.07,175.14,248.75,158.47,255.46,154.71Z"/><polygon class="cls-36" points="290.12 216.57 242 208.09 232.23 209.17 233.63 212.02 288.18 221.89 290.12 216.57"/><polygon class="cls-37" points="289.7 209.18 255.36 204.35 251.57 205.12 251.75 208.75 288.88 216.35 289.7 209.18"/><polygon class="cls-34" points="289.7 209.18 255.36 204.35 251.57 205.12 289.47 211.22 289.7 209.18"/><polygon class="cls-13" points="182.78 141.24 207.34 141.24 207.34 135.88 192.75 135.88 182.78 140.8 182.78 141.24"/><rect class="cls-38" x="182.78" y="140.8" width="24.56" height="0.44" transform="translate(-1.17 1.63) rotate(-0.48)"/><path class="cls-39" d="M196.8,134.68l4.16-1.53V136h0c.19.44-.57,1.2-1.7,1.69s-2.2.55-2.4.11l0-1.81Z"/><ellipse class="cls-13" cx="198.88" cy="133.91" rx="2.24" ry="0.87" transform="translate(-37.12 91.62) rotate(-23.79)"/><path class="cls-39" d="M198.19,133.23l1.17-.43v.8h0c0,.12-.22.28-.48.41a.63.63,0,0,1-.69,0Z"/><ellipse class="cls-13" cx="198.78" cy="133.01" rx="0.63" ry="0.24" transform="translate(-36.77 91.5) rotate(-23.79)"/><path class="cls-39" d="M202.44,134.68l4.16-1.53V136h0c.19.44-.57,1.2-1.7,1.69s-2.2.55-2.4.11l0-1.81Z"/><ellipse class="cls-13" cx="204.52" cy="133.91" rx="2.24" ry="0.87" transform="translate(-36.64 93.9) rotate(-23.79)"/><path class="cls-39" d="M203.84,133.23l1.17-.43v.8h0c0,.12-.22.28-.48.41a.63.63,0,0,1-.69,0Z"/><ellipse class="cls-13" cx="204.42" cy="133.01" rx="0.63" ry="0.24" transform="translate(-36.29 93.78) rotate(-23.79)"/><path class="cls-40" d="M173.44,141.12s26.42.84,28.88-.92c1.08-.77,25.35-32.41,33-36.1s163.45,2.11,171.89,3.53c9.27,1.56,76.5,34.41,76.5,34.41s152.07,18.43,160.37,23.66c5.13,3.23,11.37,20.89,11.37,20.89,2.15.61,4,1.84,4,4.3v20.89s-194.47,30.41-212,22.73L398,238.2s-14.44-58.37-45.16-61.75-32.26,34.41-30.41,50.38l-34.48-5,2.23-43.26,3.38-4.3L311,142.78l-13.94-36.39s-37.24-1.33-45.29,0c-9.22,1.54-24.27,18.13-32.56,32s-5.53,31.34-5.53,31.34c2.76,15.05,20.69,42.47,20.69,42.47l-29.6-5.61c-4.92-19-6.51-43.15-19.66-47-20.43-6-12.9,50.08-12.9,50.08l-3.07-1.23c-3.07-1.84-5.84-21.81-8.29-35S173.44,141.12,173.44,141.12Z"/><path class="cls-15" d="M288,221.86l2.23-43.26,3.38-4.3L311,142.78l141.85,26.81-8.5,36.2,30.93,26.52-27.8,2.2L398,238.2s-7.61-30.75-23.52-48.9l-.06-.07-.24-.26a45.68,45.68,0,0,0-10.43-8.8,29.18,29.18,0,0,0-6.43-2.8l.79.16a19,19,0,0,0-4.65-1h0a25.82,25.82,0,0,1,3.87.83l-4.12-.83q-.81,0-1.58,0c.78-.07,1.23-.07,1.23-.07-30.72-3.38-32.26,34.41-30.41,50.38Z"/><path class="cls-25" d="M627.33,161.77c9.1,1.61,15.26,3,16.76,3.92,5.13,3.23,11.37,20.89,11.37,20.89,2.15.61,4,1.84,4,4.3v4.69s-164.53,14.15-175.27,13.29-41.93-3.23-41.93-3.23-.7-7.07-.26-7.76,1.83-1.65,2.33-2.8,7-24,8.53-25.49S627.33,161.77,627.33,161.77Z"/><path class="cls-22" d="M620.13,215.16l7.74,5.53a1.74,1.74,0,0,1,.71,1.66l-1.08,7.55c-.54,4.69,3.07,5.22,4.3,6.45s4,4-3.38,5.22S495.08,263.82,472.36,264c-19.2.15-49.31-1.69-60.37-1.69-6.14,0-16.74-20.12-16.44-24.73Z"/><path class="cls-22" d="M476.58,200.05c39.7,2.53,170.88-10.53,170.88-10.53L645.51,168l-168.93,6.43Z"/><path class="cls-41" d="M524,174.45l-19.59.78a1.47,1.47,0,0,0-1.37,1.53L503.6,195a1.46,1.46,0,0,0,1.56,1.44l19.59-1.33a1.47,1.47,0,0,0,1.33-1.52l-.52-17.67A1.46,1.46,0,0,0,524,174.45Z"/><path class="cls-42" d="M499.53,175.56l-19.82.79a1.49,1.49,0,0,0-1.38,1.54l.53,18.4a1.48,1.48,0,0,0,1.58,1.45l19.82-1.34a1.49,1.49,0,0,0,1.34-1.54L501.07,177A1.48,1.48,0,0,0,499.53,175.56Z"/><path class="cls-11" d="M172.34,201.75c0,19.53,6,35.37,13.48,35.37s13.48-15.83,13.48-35.37-5.81-35.37-13.26-35.37S172.34,182.22,172.34,201.75Z"/><ellipse class="cls-43" cx="185.26" cy="203.48" rx="9.37" ry="24.58"/><path class="cls-44" d="M438.56,206.55l-.92,17.51,53.15,6.14S649,217,665.29,209.93V196.11l-78,7.68s-96.16,8.91-105.68,7.07Z"/><path class="cls-23" d="M430.82,230.88V200.06a24.49,24.49,0,0,1,9.74-.88v30.26S434.88,229.13,430.82,230.88Z"/><path class="cls-45" d="M612.29,217.46s-.38,16.34-2.3,17.36c-2.61,1.38-101.84,15.82-105.84,13.06s-5.53-19.66-5.53-19.66Z"/><path class="cls-44" d="M224.43,211.55l61.83,11.6v5.53l-61.83-11.62a2.83,2.83,0,0,1-2.76-2.76A2.76,2.76,0,0,1,224.43,211.55Z"/><circle class="cls-46" cx="286.26" cy="225.92" r="2.76"/><path class="cls-36" d="M486.54,207.58c-6.76.18-49.51-3.79-49.51-3.79a3.54,3.54,0,0,0-.31,4.61s45.72,5,48.85,4.92c72.2-2.46,173.88-15.05,173.88-15.05s9.22-.61,9.22-3.69c0-3.69-7.52-3.11-7.52-3.11l-.05,2.7C645.93,196.11,515.43,206.81,486.54,207.58Z"/><path class="cls-36" d="M665.29,207.48s3.38-.61,3.38,2.15c0,2-2.92,2.51-2.92,2.51-19.1,5.33-58.49,9.66-73.27,11,0,0-94,9.52-106.91,8.6s-48.23-4.61-48.23-4.61-1.69-2.92.31-4.92c0,0,43.85,4,48.54,4.3,11.67.69,102.51-8,101.23-8.1C587.41,218.42,663.44,211.1,665.29,207.48Z"/><path class="cls-42" d="M644,169.69l-12.19.63a1.11,1.11,0,0,0-.85,1.23l.32,14.62c0,.68.46,1.21,1,1.15l12.19-1.07a1.12,1.12,0,0,0,.83-1.22L645,170.84C644.94,170.18,644.51,169.65,644,169.69Z"/><path class="cls-41" d="M628.76,170.58l-12.33.65a1.13,1.13,0,0,0-.86,1.26l.33,15c0,.7.46,1.24,1,1.18l12.33-1.09a1.15,1.15,0,0,0,.84-1.26l-.33-14.54C629.71,171.08,629.27,170.54,628.76,170.58Z"/><polygon class="cls-44" points="531.51 173.99 532.82 198.79 541.53 200.38 622.23 193.46 616.39 169.96 531.51 173.99"/><polygon class="cls-45" points="531.51 173.99 541.53 200.38 532.82 198.79 531.51 173.99"/><path class="cls-23" d="M352.85,176.45c-30.72-3.38-32.26,34.41-30.41,50.38l2.61-.46s-2.15-19,4-33.79C335.73,176.52,352.85,176.45,352.85,176.45Z"/><path class="cls-11" d="M324.9,229.68c1.59,28.39,15.63,50.14,33,50.14s30.76-21.27,30.76-49.7-17.82-53.6-35.17-53.6S323.12,197.81,324.9,229.68Z"/><path class="cls-43" d="M334.72,230.69c1,18.45,10.16,32.59,21.44,32.59s20-13.82,20-32.3-11.46-35.49-22.74-35.49S333.56,210,334.72,230.69Z"/><polygon class="cls-37" points="440.56 199.18 434.42 200.56 386.95 193.96 394.48 192.93 440.56 199.18"/><path class="cls-47" d="M315.32,142l-14.66-35.63s96.42,2.6,106.17,3.24c5.92.38,68.9,32.46,68.9,32.46Z"/><polygon class="cls-34" points="387.1 224.83 434.88 232.97 434.42 200.56 386.95 193.96 387.1 224.83"/><path class="cls-48" d="M418.38,229.07l7.8,1a1.5,1.5,0,0,0,1.48-1.53V202.77a1.5,1.5,0,0,0-1.48-1.53l-7.8-1a1.5,1.5,0,0,0-1.48,1.53v25.76A1.5,1.5,0,0,0,418.38,229.07Z"/><path class="cls-48" d="M392.95,214.51l12,1.57a1.06,1.06,0,0,0,1.2-1.06V199.7a1.06,1.06,0,0,0-1-1.06l-12-1.35a1.06,1.06,0,0,0-1.16,1.06v15.11A1.06,1.06,0,0,0,392.95,214.51Z"/><ellipse class="cls-49" cx="358.89" cy="231.11" rx="9.06" ry="14.67"/><path class="cls-49" d="M191.71,193.16c.91,0,1.74.81,2.39,2.16a61.61,61.61,0,0,1,.53,8.16c0,2.05-.1,4-.28,5.95-.68,1.69-1.61,2.73-2.64,2.73-2.08,0-3.76-4.25-3.76-9.5S189.64,193.16,191.71,193.16Z"/><text class="cls-50" transform="matrix(-0.68, 0.05, 0.08, 1, 592.66, 184.58)">D</text><text class="cls-50" transform="matrix(-0.68, 0.05, 0.08, 1, 586.8, 185.03)">M</text><text class="cls-50" transform="matrix(-0.68, 0.05, 0.08, 1, 579, 185.63)">C</text><path class="cls-51" d="M591.81,205c-.14-1.28-.69-4-2.84-4.29a5.37,5.37,0,0,1,3.66-.29c1.46.41,2.08,2.8,2.31,4.1a1.55,1.55,0,0,1-.46,1.4l0,0a1.56,1.56,0,0,1-2,.14h0A1.56,1.56,0,0,1,591.81,205Z"/><path class="cls-52" d="M590.14,200.29a5,5,0,0,1,1.21-.1c.33,0,2.14.53,2.58,3.42.12.78.23,1.73-.29,1.83s-.61-1-.73-1.7-.67-3.32-2.77-3.45"/><path class="cls-51" d="M602.61,204c-.14-1.28-.69-4-2.84-4.29a5.37,5.37,0,0,1,3.66-.29c1.46.41,2.08,2.8,2.31,4.1a1.55,1.55,0,0,1-.46,1.4l0,0a1.56,1.56,0,0,1-2,.14h0A1.56,1.56,0,0,1,602.61,204Z"/><path class="cls-52" d="M600.94,199.34a5,5,0,0,1,1.21-.1c.33,0,2.14.53,2.58,3.42.12.78.23,1.73-.29,1.83s-.61-1-.73-1.7-.67-3.32-2.77-3.45"/><path class="cls-53" d="M516.89,210.33c-.14-1.28-.69-4-2.84-4.29a5.37,5.37,0,0,1,3.66-.29c1.46.41,2.08,2.8,2.31,4.1a1.55,1.55,0,0,1-.46,1.4l0,0a1.56,1.56,0,0,1-2,.14h0A1.56,1.56,0,0,1,516.89,210.33Z"/><path class="cls-52" d="M515.22,205.66a5,5,0,0,1,1.21-.1c.33,0,2.14.53,2.58,3.42.12.78.23,1.73-.29,1.83s-.61-1-.73-1.7-.67-3.32-2.77-3.45"/><path class="cls-51" d="M627.53,201.88c-.14-1.28-.69-4-2.84-4.29a5.37,5.37,0,0,1,3.66-.29c1.46.41,2.08,2.8,2.31,4.1a1.55,1.55,0,0,1-.46,1.4l0,0a1.56,1.56,0,0,1-2,.14h0A1.56,1.56,0,0,1,627.53,201.88Z"/><path class="cls-52" d="M625.86,197.21a5,5,0,0,1,1.21-.1c.33,0,2.14.53,2.58,3.42.12.78.23,1.73-.29,1.83s-.61-1-.73-1.7-.67-3.32-2.77-3.45"/><path class="cls-51" d="M656.27,210c.15,1.28.23,4-1.8,4.82a5.37,5.37,0,0,0,3.63-.54c1.33-.73,1.39-3.2,1.33-4.51a1.55,1.55,0,0,0-.76-1.26l-.06,0a1.56,1.56,0,0,0-2,.31h0A1.56,1.56,0,0,0,656.27,210Z"/><path class="cls-52" d="M655.7,214.88a5,5,0,0,0,1.2-.17c.32-.09,2-1,1.74-3.92-.06-.79-.17-1.74-.7-1.72s-.36,1.16-.33,1.82.09,3.38-1.92,4"/><path class="cls-53" d="M468.63,210.84c-.07-1.29-.56-3.58,1.51-4.24a4.38,4.38,0,0,0-3.66,0c-1.37.64-1,3-1,4.32a1.55,1.55,0,0,0,.68,1.3l.06,0a1.56,1.56,0,0,0,2-.19h0A1.56,1.56,0,0,0,468.63,210.84Z"/><path class="cls-52" d="M469.19,206.26a4.14,4.14,0,0,0-1.19-.09c-.33,0-1.72.76-1.68,3.69,0,.79.06,1.76.59,1.76s.39-1.14.4-1.8S467.14,206.74,469.19,206.26Z"/><path class="cls-51" d="M443.61,208.76c-.07-1.29-.56-3.58,1.51-4.24a4.38,4.38,0,0,0-3.66,0c-1.37.64-1,3-1,4.32a1.55,1.55,0,0,0,.68,1.3l.06,0a1.56,1.56,0,0,0,2-.19h0A1.56,1.56,0,0,0,443.61,208.76Z"/><path class="cls-52" d="M444.16,204.19a4.14,4.14,0,0,0-1.19-.09c-.33,0-1.72.76-1.68,3.69,0,.79.06,1.76.59,1.76s.39-1.14.4-1.8S442.12,204.66,444.16,204.19Z"/><circle class="cls-54" cx="491.85" cy="187.81" r="6.78"/><ellipse class="cls-54" cx="638.67" cy="179.62" rx="4.64" ry="5.44"/><path class="cls-51" d="M612.91,195.36s10.48-1.11,11.55-.48c2.65,1.55,3,5.24,3,5.24l-6.21.48s-1.32-2.5-1.71-2.47l-6.37.49h0a1.63,1.63,0,1,1-.25-3.25Z"/><path class="cls-53" d="M611.41,197.11a1.62,1.62,0,0,1,.13-.78s7.27-.66,7.84-.55c3.13.59,3.86,4.66,3.86,4.66l-2,.15s-1.32-2.5-1.71-2.47l-6.37.49h0A1.63,1.63,0,0,1,611.41,197.11Z"/><path class="cls-51" d="M558.78,199.54s10.52-.64,11.56,0c2.58,1.67,2.76,5.37,2.76,5.37l-6.23.2s-1.2-2.56-1.6-2.55l-6.38.21h0a1.63,1.63,0,0,1-.11-3.26Z"/><path class="cls-53" d="M557.2,201.22a1.62,1.62,0,0,1,.16-.77s7.3-.33,7.85-.2c3.1.73,3.65,4.83,3.65,4.83l-2,.07s-1.2-2.56-1.6-2.55l-6.38.21h0A1.63,1.63,0,0,1,557.2,201.22Z"/><path class="cls-51" d="M561.44,207.14c-.14-1.28-.69-4-2.84-4.29a5.37,5.37,0,0,1,3.66-.29c1.46.41,2.08,2.8,2.31,4.1a1.55,1.55,0,0,1-.46,1.4l0,0a1.56,1.56,0,0,1-2,.14h0A1.56,1.56,0,0,1,561.44,207.14Z"/><path class="cls-52" d="M559.77,202.48a5,5,0,0,1,1.21-.1c.33,0,2.14.53,2.58,3.42.12.78.23,1.73-.29,1.83s-.61-1-.73-1.7-.67-3.32-2.77-3.45"/><path class="cls-51" d="M651.23,192s10.45-1.39,11.53-.79c2.69,1.48,3.13,5.16,3.13,5.16l-6.2.65s-1.38-2.47-1.78-2.43l-6.35.66h0a1.63,1.63,0,0,1-.34-3.24Z"/><path class="cls-53" d="M649.78,193.8a1.62,1.62,0,0,1,.11-.78s7.25-.85,7.82-.76c3.15.51,4,4.55,4,4.55l-2,.21s-1.38-2.47-1.78-2.43l-6.35.66h0A1.63,1.63,0,0,1,649.78,193.8Z"/><path class="cls-51" d="M656,199.28c-.14-1.28-.69-4-2.84-4.29a5.37,5.37,0,0,1,3.66-.29c1.46.41,2.08,2.8,2.31,4.1a1.55,1.55,0,0,1-.46,1.4l0,0a1.56,1.56,0,0,1-2,.14h0A1.56,1.56,0,0,1,656,199.28Z"/><path class="cls-52" d="M654.29,194.61a5,5,0,0,1,1.21-.1c.33,0,2.14.53,2.58,3.42.12.78.23,1.73-.29,1.83s-.61-1-.73-1.7-.67-3.32-2.77-3.45"/><path class="cls-51" d="M498.63,203.87s10.52-.6,11.56.08c2.57,1.68,2.74,5.38,2.74,5.38l-6.23.18s-1.19-2.57-1.59-2.55l-6.38.18h0a1.63,1.63,0,0,1-.09-3.26Z"/><path class="cls-53" d="M497,205.54a1.62,1.62,0,0,1,.17-.77s7.3-.3,7.86-.17c3.1.74,3.63,4.84,3.63,4.84l-2,.06s-1.19-2.57-1.59-2.55l-6.38.18h0A1.63,1.63,0,0,1,497,205.54Z"/><path class="cls-53" d="M499.71,211.33c-.14-1.28-.69-4-2.84-4.29a5.37,5.37,0,0,1,3.66-.29c1.46.41,2.08,2.8,2.31,4.1a1.55,1.55,0,0,1-.46,1.4l0,0a1.56,1.56,0,0,1-2,.14h0A1.56,1.56,0,0,1,499.71,211.33Z"/><path class="cls-52" d="M498,206.67a5,5,0,0,1,1.21-.1c.33,0,2.14.53,2.58,3.42.12.78.23,1.73-.29,1.83s-.61-1-.73-1.7-.67-3.32-2.77-3.45"/><path class="cls-55" d="M401.54,142l-86.23,0-14.66-35.63s22.5.61,43.69,1.21Z"/><path class="cls-22" d="M217.62,139.84l.69.16c15.32-25.31,28.19-32.68,33.46-33.59,0,0,6.11-1.54,45.29,0l1.27,3.32s-42.1-.65-45,.38c-15.82,5.61-31,30.8-31,30.8-1.84,2.33-.48,14.58,7.22,22.43,10.29,10.48,12.21,18.66,11.21,29.34A41.72,41.72,0,0,0,242,208.09l-9.5,1S214.59,186,213.24,170.54,213.83,146.6,217.62,139.84Z"/><path class="cls-15" d="M219.21,138.35c-8.29,13.82-5.53,31.34-5.53,31.34,2.76,15.05,20.69,42.47,20.69,42.47l-29.6-5.61c-4.92-19-6.51-43.15-19.66-47-20.43-6-12.9,50.08-12.9,50.08l-3.07-1.23c-3.07-1.84-5.84-21.81-8.29-35s12.6-32.26,12.6-32.26,26.42.84,28.88-.92Z"/><path class="cls-51" d="M628.08,214.49c.15,1.28.23,4-1.8,4.82a5.37,5.37,0,0,0,3.63-.54c1.33-.73,1.39-3.2,1.33-4.51a1.55,1.55,0,0,0-.76-1.26l-.06,0a1.56,1.56,0,0,0-2,.31h0A1.56,1.56,0,0,0,628.08,214.49Z"/><path class="cls-52" d="M627.51,219.41a5,5,0,0,0,1.2-.17c.32-.09,2-1,1.74-3.92-.06-.79-.17-1.74-.7-1.72s-.36,1.16-.33,1.82.09,3.38-1.92,4"/><path class="cls-51" d="M603.1,217.49c.15,1.28.23,4-1.8,4.82a5.37,5.37,0,0,0,3.63-.54c1.33-.73,1.39-3.2,1.33-4.51a1.55,1.55,0,0,0-.76-1.26l-.06,0a1.56,1.56,0,0,0-2,.31h0A1.56,1.56,0,0,0,603.1,217.49Z"/><path class="cls-52" d="M602.52,222.41a5,5,0,0,0,1.2-.17c.32-.09,2-1,1.74-3.92-.06-.79-.17-1.74-.7-1.72s-.36,1.16-.33,1.82.09,3.38-1.92,4"/><path class="cls-51" d="M592.14,218.56c.15,1.28.23,4-1.8,4.82a5.37,5.37,0,0,0,3.63-.54c1.33-.73,1.39-3.2,1.33-4.51a1.55,1.55,0,0,0-.76-1.26l-.06,0a1.56,1.56,0,0,0-2,.31h0A1.56,1.56,0,0,0,592.14,218.56Z"/><path class="cls-52" d="M591.57,223.48a5,5,0,0,0,1.2-.17c.32-.09,2-1,1.74-3.92-.06-.79-.17-1.74-.7-1.72s-.36,1.16-.33,1.82.09,3.38-1.92,4"/><path class="cls-51" d="M561.84,221.67c.15,1.28.23,4-1.8,4.82a5.37,5.37,0,0,0,3.63-.54c1.33-.73,1.39-3.2,1.33-4.51a1.55,1.55,0,0,0-.76-1.26l-.06,0a1.56,1.56,0,0,0-2,.31h0A1.56,1.56,0,0,0,561.84,221.67Z"/><path class="cls-52" d="M561.27,226.59a5,5,0,0,0,1.2-.17c.32-.09,2-1,1.74-3.92-.06-.79-.17-1.74-.7-1.72s-.36,1.16-.33,1.82.09,3.38-1.92,4"/><path class="cls-51" d="M516.91,225.88c-.08,1.29-.51,4-2.65,4.41a5.37,5.37,0,0,0,3.67.13c1.44-.47,2-2.89,2.13-4.19a1.55,1.55,0,0,0-.52-1.37l-.05,0a1.56,1.56,0,0,0-2-.05h0A1.56,1.56,0,0,0,516.91,225.88Z"/><path class="cls-52" d="M515.44,230.62a5,5,0,0,0,1.22,0c.33,0,2.12-.62,2.43-3.53.08-.79.15-1.74-.37-1.82s-.56,1.08-.66,1.73-.53,3.34-2.62,3.57"/><path class="cls-51" d="M499.7,226.78c.06,1.29-.08,4-2.16,4.67a5.37,5.37,0,0,0,3.66-.27c1.38-.63,1.63-3.08,1.67-4.4a1.55,1.55,0,0,0-.67-1.31l-.06,0a1.56,1.56,0,0,0-2,.16h0A1.56,1.56,0,0,0,499.7,226.78Z"/><path class="cls-52" d="M498.75,231.64a5,5,0,0,0,1.21-.08c.33-.06,2-.85,2-3.78,0-.79,0-1.74-.57-1.77s-.44,1.13-.46,1.79-.16,3.38-2.22,3.83"/><path class="cls-53" d="M467.4,225.84c-.27,1.26-1.09,3.46.86,4.42a4.38,4.38,0,0,1-3.62-.51c-1.26-.84-.55-3.12-.37-4.43a1.55,1.55,0,0,1,.87-1.19l.06,0a1.56,1.56,0,0,1,1.93.48h0A1.56,1.56,0,0,1,467.4,225.84Z"/><path class="cls-52" d="M467.27,230.45a4.14,4.14,0,0,1-1.19-.09c-.32-.09-1.59-1-1.11-3.9.13-.78.32-1.73.85-1.65s.21,1.18.13,1.84S465.32,229.67,467.27,230.45Z"/><path class="cls-51" d="M442,223.28c-.27,1.26-1.09,3.46.86,4.42a4.38,4.38,0,0,1-3.62-.51c-1.26-.84-.55-3.12-.37-4.43a1.55,1.55,0,0,1,.87-1.19l.06,0a1.56,1.56,0,0,1,1.93.48h0A1.56,1.56,0,0,1,442,223.28Z"/><path class="cls-52" d="M441.86,227.89a4.14,4.14,0,0,1-1.19-.09c-.32-.09-1.59-1-1.11-3.9.13-.78.32-1.73.85-1.65s.21,1.18.13,1.84S439.9,227.12,441.86,227.89Z"/><path class="cls-55" d="M381.61,108.71c12,.38,22.56.7,25.22.87,5.92.38,68.9,32.46,68.9,32.46l-38.66,0Z"/><path class="cls-47" d="M317.87,26c3.72,1.72,9,4.34,9.79,5.71,0,0-1.84,18.74-8,20.58s-35.33,5.84-35.33,5.84-3.63.6-11.06-7.37l18.13-1.23c3.07-.61,15.67-5.84,16.9-7.07s3.38-5.84,3.69-7.37a31.8,31.8,0,0,0,0-5.53l1.23-1.84C313.79,26.89,316.51,27.89,317.87,26Z"/><path class="cls-40" d="M301.24,5.94c-4.61,1.23-31,7.37-40.55,15.67L205.62,34.84l-.85-1.94a8.88,8.88,0,0,1,3.38-3.35,67.47,67.47,0,0,1,14.18-5.27s69-17.08,77.32-18.75Z"/><polygon class="cls-56" points="301.68 5.83 300.93 4.61 222.79 23.45 221.82 24.75 298.07 6.26 298.24 6.71 301.68 5.83"/><text class="cls-57" transform="matrix(-0.83, 0, 0, 1, 278.77, 143.07)">D</text><text class="cls-57" transform="matrix(-0.83, 0, 0, 1, 275.7, 143.06)">M</text><text class="cls-57" transform="matrix(-0.83, 0, 0, 1, 271.57, 143.06)">C</text><text class="cls-58" transform="matrix(-0.68, 0.05, 0.08, 1, 592.66, 184.58)">D</text><text class="cls-58" transform="matrix(-0.68, 0.05, 0.08, 1, 586.8, 185.03)">M</text><text class="cls-58" transform="matrix(-0.68, 0.05, 0.08, 1, 579, 185.63)">C</text><polygon class="cls-59" points="289.89 184.36 327.82 189.04 330.68 184.73 290.08 180.16 289.89 184.36"/><text class="cls-60" transform="matrix(-0.83, 0, 0, 1, 278.77, 143.07)">D</text><text class="cls-60" transform="matrix(-0.83, 0, 0, 1, 275.7, 143.06)">M</text><text class="cls-60" transform="matrix(-0.83, 0, 0, 1, 271.57, 143.06)">C</text><polygon class="cls-51" points="417.63 197.28 428.63 198.9 429.1 198.64 429.1 191.8 418.34 191.04 417.63 191.43 417.63 197.28"/><path class="cls-61" d="M283.51,225.92a2.75,2.75,0,0,1,1-2.14C305,228.34,311,194,314.29,182.49s25.45-19.26,38.09-20.06c18.85-1.19,23,20.26,35.22,24.13s26.84-18.42,36.16-16.83c9.91,1.69,2.12,19.13,2.12,19.13l-3.82-.33s5.49-11.17,1.4-14.83c-3.75-3.35-18.29,19.27-34.82,17.33-13.4-1.57-16-15.52-28.12-22.81-10.95-6.57-39.36,6.8-42.09,15.25-2.83,8.77-11,50-34.21,44.3A2.74,2.74,0,0,1,283.51,225.92Z"/><polygon class="cls-62" points="420.85 188.36 426.7 188.86 426.62 189.65 425.99 189.61 425.77 191.82 421.16 191.47 421.41 189.23 420.76 189.15 420.85 188.36"/><path class="cls-36" d="M290.85,103.25s-45.69-.76-48.4.42c-10.14,4.45-35.64,48.81-44,50s-26.34-2.11-28.58-1.44c-8.2,2.42-5.29,28.49-.14,53.22,0,0,.35,1.49,3.35,1.21l.06,1.93s-4.15.7-5.18-2.64c-1.5-4.84-11.79-53.3,1.08-56,4.12-.87,24.67,2.53,29,.6,8.33-3.69,31.82-44.38,43.34-49.5,3.69-1.64,49.9-.27,49.9-.27l-1,.32Z"/><polygon class="cls-59" points="214.1 171.63 195.09 169.5 196.5 172.79 215.12 175.1 214.1 171.63"/><path class="cls-17" d="M278.81,66.16s7.07,22.73,7.07,26.73a9,9,0,0,0,4,8c2.13,1.6,28-1,34.88-1.67a2.61,2.61,0,0,0,2.34-2.47c.28-6.21-3.37-22.73-4.66-26.59s-1.49-9.59-.11-12.29c0,0-2-2.76-1.73-4.6.14-.84,0-1.23-.36-1.38s-34.32,6-35.89,6a4.86,4.86,0,0,0-4.61,3.07,11.15,11.15,0,0,0-.92,5.22"/><path class="cls-16" d="M314.81,52.78s5.07-1.1,5.45-.89.46.56.32,1.36c-.31,1.84,1.73,4.6,1.73,4.6-1.38,2.71-1.17,8.46.11,12.29s4.93,20.38,4.66,26.59a2.61,2.61,0,0,1-2.34,2.47l-4.14.42s-3.78-3.66-2.47-10.35-3-25.42-3-25.42S312,54.68,314.81,52.78Z"/><path class="cls-59" d="M266.83,103a1.49,1.49,0,0,0,1.3.39c.31,0,1-.23,1-1.82,0-.51,0-1.76-1.36-1.76-.91,0-1,.44-1,.44A4.67,4.67,0,0,1,266.83,103Z"/><path class="cls-63" d="M268.07,99.85a2.75,2.75,0,0,1,.54,1.76,4.37,4.37,0,0,1-.42,1.78,2.6,2.6,0,0,1-.7,0,3.82,3.82,0,0,0,0-3.53A1.77,1.77,0,0,1,268.07,99.85Z"/><path class="cls-59" d="M237.07,108a1.56,1.56,0,0,0,1.25-.67c.22-.24.56-.9-.62-2.07-.38-.37-1.29-1.31-2.31-.29-.67.68-.38,1-.38,1A4.89,4.89,0,0,1,237.07,108Z"/><path class="cls-63" d="M235.65,104.74a2.88,2.88,0,0,1,1.7.91,4.58,4.58,0,0,1,1,1.63,2.72,2.72,0,0,1-.54.5,4,4,0,0,0-2.62-2.6A1.85,1.85,0,0,1,235.65,104.74Z"/><path class="cls-59" d="M219.24,130.71c.46,0,.82-.3,1.25-.93.2-.29.47-1.08-1-2.16-.47-.35-1.62-1.22-2.57.05-.62.85-.25,1.19-.25,1.19A5.39,5.39,0,0,1,219.24,130.71Z"/><path class="cls-63" d="M217.17,127.38a3.17,3.17,0,0,1,2,.72,5,5,0,0,1,1.36,1.61,3,3,0,0,1-.51.63,4.41,4.41,0,0,0-3.28-2.41A2,2,0,0,1,217.17,127.38Z"/><path class="cls-59" d="M198.49,153.68a1.71,1.71,0,0,1-1.37.73c-.35.05-1.17,0-1.5-1.83-.11-.57-.4-2,1.14-2.28,1-.2,1.18.28,1.18.28A5.35,5.35,0,0,0,198.49,153.68Z"/><path class="cls-63" d="M196.39,150.41a3.15,3.15,0,0,0-.21,2.1,5,5,0,0,0,.86,1.91,3,3,0,0,0,.78-.19,4.37,4.37,0,0,1-.76-4A2,2,0,0,0,196.39,150.41Z"/><path class="cls-59" d="M169.16,152.53c0,.38-.26.66-.78,1-.24.16-.89.36-1.74-.87-.27-.39-1-1.35.1-2.09.7-.49,1-.18,1-.18A4.39,4.39,0,0,0,169.16,152.53Z"/><path class="cls-63" d="M166.5,150.77a2.58,2.58,0,0,0,.54,1.65,4.11,4.11,0,0,0,1.28,1.14,2.45,2.45,0,0,0,.53-.4,3.59,3.59,0,0,1-1.89-2.72A1.66,1.66,0,0,0,166.5,150.77Z"/><path class="cls-59" d="M163.12,177.26a1.23,1.23,0,0,0-.28,1.09c0,.26.22.81,1.54.75.42,0,1.46,0,1.41-1.19,0-.75-.4-.78-.4-.78A3.87,3.87,0,0,1,163.12,177.26Z"/><path class="cls-63" d="M165.78,178.19a2.28,2.28,0,0,1-1.44.5,3.63,3.63,0,0,1-1.49-.29,2.16,2.16,0,0,1,0-.58,3.17,3.17,0,0,0,2.92-.12A1.47,1.47,0,0,1,165.78,178.19Z"/><path class="cls-59" d="M167.81,205.4a1,1,0,0,0,0,.93c.07.2.34.61,1.39.31.34-.1,1.17-.32.91-1.24-.17-.6-.47-.55-.47-.55A3.23,3.23,0,0,1,167.81,205.4Z"/><path class="cls-63" d="M170.14,205.63a1.9,1.9,0,0,1-1.07.69,3,3,0,0,1-1.26.06,1.79,1.79,0,0,1-.11-.47,2.64,2.64,0,0,0,2.34-.67A1.22,1.22,0,0,1,170.14,205.63Z"/><path class="cls-61" d="M198.31,150.42a2.22,2.22,0,0,1,1-1.32,6.17,6.17,0,0,1,1.43-.46c-1.81,1.47,3.25,35.72,6.8,45.17,3.92,10.45,8.76,18.66,14.22,19.86a13.22,13.22,0,0,0,.64,2.46c-.56.36-9.6-.79-16.24-18.24C200.39,182.74,197.68,151.82,198.31,150.42Z"/><path class="cls-64" d="M424.2,169.83a.91.91,0,0,0-1-.43c-.33,0-1.39-.08-1.35,2.84a2.94,2.94,0,0,0,.23,1.3c.13.23.35.24.57.24a.39.39,0,0,0,.4-.3C423.19,173.09,422.81,170.23,424.2,169.83Z"/><path class="cls-64" d="M389.81,187a1,1,0,0,0-1.09-.49c-.38,0-1.59-.1-1.54,3.25a2.88,2.88,0,0,0,.26,1.38c.14.26.4.27.65.27a.44.44,0,0,0,.46-.34C388.66,190.6,388.22,187.45,389.81,187Z"/><path class="cls-64" d="M361.27,163.76a1.08,1.08,0,0,0-1-.66c-.4,0-1.62-.33-2.05,3.12a2.72,2.72,0,0,0,.05,1.38c.11.29.39.31.64.35a.5.5,0,0,0,.56-.28C359.6,167.22,359.57,164,361.27,163.76Z"/><path class="cls-64" d="M314.68,181.34c-.16-.37-.12-.64.18-1.24.18-.36,1.05-1.33,3.67,1.09a2.71,2.71,0,0,1,.87,1.09.69.69,0,0,1-.25.71.52.52,0,0,1-.62.19C318.1,183,316.18,180.41,314.68,181.34Z"/><path class="cls-64" d="M198.84,160.51c-.24-.13-.29-.14-.37-.58-.17-.92,2.12-1.2,2.56-.84a.59.59,0,0,1,.22.5c0,.37-.21.42-.21.42A3,3,0,0,0,198.84,160.51Z"/><path class="cls-64" d="M204.23,191.94c-.27-.15-.32-.15-.41-.65-.19-1,2.38-1.35,2.88-1a.66.66,0,0,1,.25.57c0,.42-.24.47-.24.47A3.43,3.43,0,0,0,204.23,191.94Z"/><path class="cls-65" d="M144.62,281.44a37.71,37.71,0,0,1,17,.19,56.32,56.32,0,0,0,17.87.82,45.17,45.17,0,0,0,8.29-1.57c2.28-.68,4.89-1.61,6.48-3.48a4.19,4.19,0,0,0,.44-5c-1.31-2-4-2.93-6.16-3.57a1.15,1.15,0,0,1-.81-1.06l-.68-5.78a12.3,12.3,0,0,1-.27-2.29c.08-1,.62-1.74.56-2.79-.06-1.22-.91-1.87-1.23-2.92-.45-1.5,1.41-3.88,2-5.13a15.42,15.42,0,0,0,1.07-2.3,3.72,3.72,0,0,0-3.59-5,1.13,1.13,0,0,1-1.1-1.1l-.91-7.76a1.06,1.06,0,0,1,.55-1c3.61-1.63,2.13-5.26,1.53-8.25l-1.32-6.61a1.12,1.12,0,0,1,.51-1.24c1.14-.5,2.49-1,2.71-2.38a9.44,9.44,0,0,0-.34-2.88c-.38-2.21-.78-4.41-1.18-6.61-.79-4.35-1.6-8.7-2.29-13.07A131.38,131.38,0,0,1,182,164a1.12,1.12,0,0,1,1.66-1,37.05,37.05,0,0,0,17.56,4.83,34.2,34.2,0,0,0,18.35-5.7,39.69,39.69,0,0,0,10.85-10,37.91,37.91,0,0,0,3.55-6,16.55,16.55,0,0,1,1.36-3.12c1-1.21,2.46-1.48,2.61-3.26a63.71,63.71,0,0,0-.21-7c0-.95-.06-1.89-.05-2.84s0-2-.11-3a8.37,8.37,0,0,0-.32-1.9c-.19-.58-.67-1.12-.79-1.7a11.16,11.16,0,0,1,.35-3.14c.15-1.32.26-2.64.34-4a67.86,67.86,0,0,0,.17-8.62,16.57,16.57,0,0,0-.76-4.1c-.31-1-1-1.81-1-2.83.06-1.73,1.44-3.75,2.12-5.28,1.09-2.48,2.4-5.55,1.63-8.29-.84-3-4.11-3.73-6.86-3.47a13.35,13.35,0,0,0-11.64,10.48,1.13,1.13,0,0,1-1.06.81,22.81,22.81,0,0,0-11,3.62,1.12,1.12,0,0,1-1.62-1.24A58.38,58.38,0,0,0,206.93,69c-2.12-8.21-3.12-16.61-5-24.88-.49-2.13-1-4.25-1.65-6.35-.52-1.78-.92-4-2.15-5.46a33.9,33.9,0,0,0-7.3-5.7,139.16,139.16,0,0,0-19.36-10.38c-3.52-1.56-7.1-3-10.76-4.19-2.65-.88-5.3-1.91-8-2.58a23.32,23.32,0,0,0-11.57,0,63.71,63.71,0,0,0-10.6,3.64,136.89,136.89,0,0,0-19.22,10.36c-3.3,2.13-4.38,4.93-5.48,8.55-.81,2.7-1.55,5.4-2.19,8.15q-.71,3-1.37,6.08-.32,1.48-.63,3a7.5,7.5,0,0,1-.53,2.29c-.66,1.07-2.32,1.94-3.28,2.71-1.41,1.13-2.9,2.21-4.26,3.4-2.41,2.1-.72,5.64,2,6.51a1.12,1.12,0,0,1,.77,1.36,58.6,58.6,0,0,0-2.84,15.94,9.53,9.53,0,0,1-.7,3.23,7,7,0,0,0-.69,3.72,2.85,2.85,0,0,0,.45,1.13l2,5a58.84,58.84,0,0,0,2.11,7.86c.29.86,1.16,2.27,1.1,3.15s-.84,1.51-1.13,2.26a7.75,7.75,0,0,0,1.09,7.08,6.17,6.17,0,0,0,6.18,2.5,1.11,1.11,0,0,1,1,.55,58.81,58.81,0,0,0,8.78,9.4c1.08.92,3,1.79,3.27,3.24a22,22,0,0,0,1,4.7,1.11,1.11,0,0,1-.77,1.36c-8.25,1.82-16.45,5.63-22.54,11.58a30.09,30.09,0,0,0-9.06,19.13,44.69,44.69,0,0,0,4.58,23.46,32.8,32.8,0,0,0,4.9,7.1c.85.93,1.84,1.7,2.69,2.61,1.13,1.2.38,3.05,2.42,3.66,1.8.54,3.72.78,5.55,1.22,1.43.35,2.1,1.26,3.17,2.28a36.32,36.32,0,0,0,4.62,3.79,1.12,1.12,0,0,1,.51,1.24,61.22,61.22,0,0,0-2,7.58c-.57,2.69.21,4.87,3.15,5.48a1.11,1.11,0,0,1,.81,1.06q-.63,8.81-1.36,17.6a1.12,1.12,0,0,1-.81,1.06,3.83,3.83,0,0,0-3.12,3.92c0,1.89,1.44,2.56,2.14,4.1a1.15,1.15,0,0,1-.17,1.34,4,4,0,0,0-.88,4.67c.35.76,1.14,1.36,1.25,2.2a11.3,11.3,0,0,1-.25,2.41L112,271a1.11,1.11,0,0,1-.55,1c-2.09.91-4.74,2.25-5.19,4.74-.38,2.07.87,3.72,2.53,4.79,4.63,3,11.25,3.17,16.56,3.2a61.42,61.42,0,0,0,10.47-.86C138.84,283.27,141.65,282.15,144.62,281.44Zm40.89-150.3a59,59,0,0,0,6-5h0a12.53,12.53,0,0,0,10.73-5.92q.14.29.3.57a9.91,9.91,0,0,0-.45,4,16.76,16.76,0,0,0,.71,3.36L200,137a3.3,3.3,0,0,0-.12,1.47,4.41,4.41,0,0,1-3.22,1.2c-1.75,0-4.85-.69-9.8-3.93a3.3,3.3,0,0,0-.82-.61l-.81-.43A9.85,9.85,0,0,0,185.51,131.15Zm-46,131.77a5.38,5.38,0,0,0,1.61-4.21,4.88,4.88,0,0,0-.47-1.82v0l.36-.32a20,20,0,0,0,1.83-1.72l.14-.13a3.31,3.31,0,0,0,.77-1.08,4.64,4.64,0,0,0,.14-3.9,4.2,4.2,0,0,0-1.22-1.57c.68-2.78,1.42-5.74,2.24-8.93l10.18.13,3,9.74a4.35,4.35,0,0,0-.63,1.36c-.65,2.46,1,4.51,1.54,5.18l.24.27,1.36,1.35.68,2.2a4.82,4.82,0,0,0-.09,2.61,5.44,5.44,0,0,0,1.75,2.79l.81,2.64a28,28,0,0,0-6.6,2.18l-.21.11a14,14,0,0,1-6.69,2,21.22,21.22,0,0,1-6.2-1.19,26.37,26.37,0,0,0-5.66-1.61Zm-24-91.75-.37-.07a5.42,5.42,0,0,1,.52-6.57Q115.61,167.88,115.5,171.17Z"/><path class="cls-66" d="M118.24,138.6s-32,5.57-30.6,33.26,20.6,31.93,20.6,31.93L117.69,179s-17.61-13.08,4.21-22.59Z"/><path class="cls-66" d="M172.74,151.75s20.29,23.47,44.2,9.42c21.2-12.46,18.38-34.13,18.38-34.13L206,130.34s-.12,22.63-22.11,7.43Z"/><path class="cls-67" d="M176.23,147.38l-3.49,4.37s20.29,23.47,44.2,9.42c21.2-12.46,18.38-34.13,18.38-34.13l-8.95,1s-2,18.78-15.38,26.6C193.33,165,176.23,147.38,176.23,147.38Z"/><path class="cls-68" d="M212.64,129.6l-6.63.75s-.12,22.63-22.11,7.43L181,141.45s9.93,14,21.64,8.42S212.64,129.6,212.64,129.6Z"/><path class="cls-69" d="M193,164.51a37,37,0,0,1,1.51-21.71,11.06,11.06,0,0,0,3.78.09h0s-.6,19.23,2.58,22.76A29.92,29.92,0,0,1,193,164.51Z"/><path class="cls-69" d="M182.53,159.83s2.65-15,5.39-19.56c0,0-2-1.1-3.51-2.15,0,0-5,13.08-4.45,20C180,158.13,181.94,159.51,182.53,159.83Z"/><path class="cls-66" d="M206,129.11,203.19,138s13.47,17.32,32.53,1.81l-.39-12.8S223,139.33,206,129.11Z"/><path class="cls-67" d="M119.5,144.73l-1.26-6.13s-32,5.57-30.6,33.26,20.6,31.93,20.6,31.93l3.14-8.23S97.91,190,97,171.86,109.09,145,119.5,144.73Z"/><path class="cls-69" d="M114.08,139.64s3.76,13.37,3.58,19l4.23-2.17-3.66-17.84S115.13,139.24,114.08,139.64Z"/><path class="cls-68" d="M120.41,149.16l1.49,7.28c-21.83,9.5-4.21,22.59-4.21,22.59l-3.42,9s-17-10.18-9.52-26.55A21.47,21.47,0,0,1,120.41,149.16Z"/><path class="cls-70" d="M121.93,176a11.68,11.68,0,0,1,6.42.78l-.84,4.07c-5.2,2.86-1.75,8-1.75,8s12.88,2.49,13.3,5.74c.38,2-.48,7.75-9.69,7.85.11,4.78-4.63,5.7-6,5.62,0,1.42-.95,4.19-4.59,3.77-2.42-.79-6.6-3.44-10.74-8.13C108,203.61,108.58,179.73,121.93,176Z"/><path class="cls-5" d="M126.86,271.47c6.76-.19,12.71.7,16,2.19,6.25,1.95,9.85,2.06,15.59-1l.07,0,.06,0h0c3.24-1.65,9.07-2.86,15.76-3,10.29-.3,18.7,1.92,18.79,4.94s-8.18,5.72-18.47,6A50.06,50.06,0,0,1,162,279.46h0a37.72,37.72,0,0,0-20.81.68h0a46.37,46.37,0,0,1-14,2.3c-10.29.3-18.7-1.92-18.79-4.94S116.57,271.77,126.86,271.47Z"/><path class="cls-71" d="M172.55,127.29l.74,11.11c-14.72,16.69-24.9,15.56-45.82,9l.07-21.1Z"/><path class="cls-72" d="M151,137.22l.93,3.52c-4,.15-3.6,4.74.38,4.77-2.67-1.95-1.91-4,.72-3.93l-.75-4.73Z"/><path class="cls-73" d="M186.18,273.49c-6.9,3.73-12.05,4.14-16.7,1.36l-11.92-38.77-15.18-.19c-4.26,16.42-7.6,30.83-8.73,40.31-7.63,4.66-15.42,3.2-19.93-.44,2.27-19.68,4-42.1,5.54-65.66l58.36.39,2.95,15Z"/><polygon class="cls-74" points="179.19 211.99 183.25 247.74 178.03 276.49 169.8 214.27 179.19 211.99"/><path class="cls-74" d="M124.44,215.76c7.14,1.6,10.08,1.88,15.64,1.27l-.38-2.29,16.62.85.26-5-17.37.5-15.64-1Z"/><polygon class="cls-74" points="123.02 221.31 118.31 224.06 118.36 221.88 123.02 221.31"/><path class="cls-75" d="M117.37,209.91s-2.73,6.22-3.16,10.52c-1.66,3.77,3,3.94,4.14,1.45a11.79,11.79,0,0,0,4.66-.58l2.16-8.42Z"/><path class="cls-76" d="M117.37,209.91c-.63,1.49-1.28,3.29-1.95,5.23a17.46,17.46,0,0,0,8.62,2.15l1.13-4.4Z"/><path class="cls-77" d="M131.66,211.76c13.22,3.81,27.88.5,42.86-3.25-3.27-22.81-4.24-42.26-2.61-69.31-14.87,5.75-23,7.8-31.55,3C132.06,171.48,122.87,197,131.66,211.76Z"/><path class="cls-78" d="M150.56,147.91a23.1,23.1,0,0,1-10.44-2.4l.2-.4a23.72,23.72,0,0,0,17.22,1.34l.13.43A24.8,24.8,0,0,1,150.56,147.91Z"/><path class="cls-79" d="M148.27,213.37c-6.2-24.28-9.58-46.87-7.54-69.3-5.1,18.86-5.3,44.49-4.89,69.54Z"/><path class="cls-80" d="M141.56,141.48c-7.09,24.25-7.07,64.93-4.82,73.54-8.72,1.12-16.59-2.46-22.47-6.27,4.67-17.6,5.6-46.82,4-70.16l3-2.25Z"/><path class="cls-81" d="M118.24,138.6a60.78,60.78,0,0,0,19,3.36l-14.31,8.56-.12,8.33L119.3,165Z"/><path class="cls-79" d="M120.22,137.11c8.62,3.94,16,5.83,20.55,4.31l-19.53-5.08Z"/><path class="cls-66" d="M135.78,209l1.45,6c-9.31,1.2-17.49-2.42-23-6.27l1.16-5C120.07,206.08,123.22,208.68,135.78,209Z"/><path class="cls-74" d="M156.1,217.08a43.62,43.62,0,0,0,13.85,2.5l9,.54-7.76-3.79Z"/><path class="cls-75" d="M180.82,210.35l3.26,16.27c1.52,3.89-2.41,3.5-3.24,2.13-2.33,1.72-4.93,1-7.64-.76l-4.69-12.21Z"/><path class="cls-76" d="M170,219.58l11.17,1.11,1.78,9c1.24.27,2-.75,1.17-3.09l-2.54-12.69-12.7,2.73Z"/><path class="cls-80" d="M156.74,141.13c-1.82,22.43-2.73,60.38-.28,75.78,8.42.19,22.81-.61,29-4-3.8-23.26-10.37-45.2-.92-74.81l-4-2.14-.92-3.92Z"/><path class="cls-66" d="M155.9,209.91c5.09.79,18.28,1.36,28.71-1.84l.83,4.84c-5.88,3.19-18.75,4.45-29,4Z"/><path class="cls-66" d="M156.09,217a383.33,383.33,0,0,1,.28-75.86l.73.07a382.54,382.54,0,0,0-.28,75.71Z"/><path class="cls-79" d="M122.92,151.34l.07,2.6A24.33,24.33,0,0,0,134.66,155l.44-4.39Z"/><path class="cls-79" d="M176,153.69l-.57,3c-5.1.62-9.86.54-13.91-1.08l-.36-1.29Z"/><path class="cls-79" d="M172.47,137.26l-15.73,3.87a60.17,60.17,0,0,0,17.6-2l2.41,2.4c-.69,7.42-1.23,14.19-1.52,21.39,0,.41-6.3,2.59-13.73.92a25.78,25.78,0,0,0,13.64,3.87,451.75,451.75,0,0,0,1.14,47.82l9.16-2.63c-5.71-25-8.17-54.25-.92-74.81l-4-2.14-.64-2.74Z"/><path class="cls-66" d="M167.18,165a23.07,23.07,0,0,1-5.81-.71l-.34-.1.07-13.91,15.36.7-.77,12.25-.26.12A20.16,20.16,0,0,1,167.18,165ZM162,163.47c1.46.34,7.34,1.47,12.81-.87l.67-10.72L162,151.27Z"/><path class="cls-66" d="M129.26,162.81a14.17,14.17,0,0,1-6.52-1.47l-.24-.12,0-11.14,13.1.13-1.18,11.86-.28.09A17.91,17.91,0,0,1,129.26,162.81Zm-5.89-2.13c4.2,2,9,1,10.21.72l1-10.32L123.35,151Z"/><polygon class="cls-74" points="142.37 235.89 157.56 236.08 129.52 231.25 133.26 237.03 121.9 278.26 137.48 255.31 142.37 235.89"/><path class="cls-82" d="M169.55,253.54c-3.36-2.41-6-3.57-7.64-3.31-1.28.5-2,1.31-.33,3.32l1.94,1.93,6,19.36c5.46,3.3,11,1.79,16.7-1.36l-2.43-20.77,3.28-6.58c.85-2.08-1.13-3.31-3.34-1.5-2.32,4.1-2.91,7-4.14,10.55L179,268.77c-.75.6-2,.67-3.56.29Z"/><path class="cls-83" d="M163.52,255.48l3.25,2.61,5.31,17.9a5.28,5.28,0,0,1-2.6-1.15Z"/><path class="cls-75" d="M168.23,248.8l7.2,20.25c2.06.42,3.06.22,3.56-.29l.77-22.54C177.86,247.78,174,248.65,168.23,248.8Z"/><path class="cls-84" d="M175.93,247.95l1.62,21.33c.42,0,1.36-.19,1.44-.51l.77-22.54A10.52,10.52,0,0,1,175.93,247.95Z"/><path class="cls-83" d="M165.75,262.72l.3,1c10.27.14,15.59-1.22,18.51-4l-.25-2.14Z"/><path class="cls-83" d="M172.68,265.46a7.83,7.83,0,0,0,7.9-.94Z"/><path class="cls-83" d="M173.71,268c2.89,1.35,5,.76,6.77-.76Z"/><path class="cls-82" d="M140,250.45c1.06.34,1.05,1,.7,1.83l-3.26,3-3.84,20.88c-6.86,4.08-14.35,4-19.93-.44l1.87-17.95q.1-5.64-2.63-7.65c-.57-1.84.85-3.12,1.83-2.23,2.29,1.79,3.87,4.77,4.7,9l-1.28,12.84a5.47,5.47,0,0,0,6.26.71l4.24-11.66C133,253,135.77,250.46,140,250.45Z"/><path class="cls-83" d="M140.93,251.74l-5.73,2.75-5.07,23.38a15.13,15.13,0,0,0,3.51-1.67l4-21C138.94,253.89,140.76,252.64,140.93,251.74Z"/><path class="cls-75" d="M131.12,252.15l-6.66,18.31c-1.2.88-4.85,1-6.26-.71l2-20.2A34.51,34.51,0,0,0,131.12,252.15Z"/><path class="cls-84" d="M126.21,251.43l-5,19.63a5.55,5.55,0,0,0,3.3-.61l6.66-18.31Z"/><path class="cls-83" d="M115.43,259.27l-.2,2.23c8.16,2.78,10.12,2.88,20.86,1.37l.45-2.47C129,261.53,121.87,261.43,115.43,259.27Z"/><path class="cls-85" d="M137,257.79c-12,4.29-17.1,1.17-22.34-1.8-1.39.82-1.65,2-.35,3.52,5.94,2.57,11.85,5.21,22.38,1.38C138.15,260.24,138.16,258,137,257.79Z"/><path class="cls-83" d="M117.66,264.4c2.77,2.64,5.89,2.77,9.19,1.62Z"/><path class="cls-83" d="M117.3,268c2.14,2.37,5,2.78,8.67,1.27Z"/><path class="cls-85" d="M126.42,267.65l-.45,1.61c-3.59.74-6.75.22-8.67-1.27l.2-2C119.92,267.66,122.35,268,126.42,267.65Z"/><path class="cls-85" d="M127.25,264.34l-.41,1.68a13.67,13.67,0,0,1-9.19-1.62l.18-1.79C119.52,263.57,122.18,264.64,127.25,264.34Z"/><path class="cls-85" d="M164.71,259.91c-.85,1.2,0,2.43,1.3,3,9,.32,14.27-.82,18.45-4.06,1-1.09.86-3.19-.39-3.31C178,259.76,172.13,259.59,164.71,259.91Z"/><path class="cls-85" d="M180.57,264.51l.07-2.09a14.56,14.56,0,0,1-8.55,1.59l.59,1.45A18.48,18.48,0,0,0,180.57,264.51Z"/><path class="cls-85" d="M173.22,266.81l.48,1.2a8.48,8.48,0,0,0,6.77-.76l0-1.31A20.21,20.21,0,0,1,173.22,266.81Z"/><path class="cls-66" d="M161.15,146.28l14.7-.11,1.89,7.19a48.12,48.12,0,0,1-16.56.93Z"/><path class="cls-66" d="M136.13,146.41l-.75,5.43a43.05,43.05,0,0,1-14.33-.92l3-5.93Z"/><path class="cls-66" d="M136.38,215.11c-2.65-12.36-.86-59,4.84-73.75l.69.26c-5.67,14.68-7.44,61-4.81,73.33Z"/><polygon class="cls-66" points="179.35 135.11 179.78 136.94 184.12 139.55 183.54 141.32 178.46 137.84 177.49 134.75 179.35 135.11"/><path class="cls-79" d="M122.94,160.95c4.07,3.82,7.72,3.83,11.06.79A14.71,14.71,0,0,1,122.94,160.95Z"/><path class="cls-86" d="M100.57,106.36l4.57,8.18s-4.22,2.48-6.21-1.93S100.57,106.36,100.57,106.36Z"/><path class="cls-87" d="M102.37,109.56a4,4,0,0,0-3.82,2,4.27,4.27,0,0,1,2-5.16Z"/><path class="cls-88" d="M102.8,110.35l-.44,4.88a5.52,5.52,0,0,0,2.78-.69Z"/><circle class="cls-77" cx="151.11" cy="83.5" r="55.46" transform="matrix(0.99, -0.13, 0.13, 0.99, -9.41, 19.95)"/><path class="cls-89" d="M146.39,115.49a61.09,61.09,0,0,0,53.27-58.81,55.47,55.47,0,1,1-101.2,44.26A60.92,60.92,0,0,0,146.39,115.49Z"/><path class="cls-90" d="M197,110.18c-4.22-3.23-12,9.21-9.42,12.36C189,124.67,200.73,113,197,110.18Z"/><path class="cls-91" d="M109.13,29c-3.25,8.67-6.83,28.14-6.83,28.14,20-24.71,78,25.14,102.5,12.44-2.66-7.52-3-21.32-8-35.42-4.71-6-38.59-24.82-54.06-22.8-12,2.56-24.16,10.5-30.79,14.33A6.43,6.43,0,0,0,109.13,29Z"/><path class="cls-92" d="M185.2,25.77c-5.23-3-17.23-8.55-18.65-9.19.5,4.21-17.76,8.36-13.52,11.45C158.75,32.1,175.47,23.44,185.2,25.77Z"/><path class="cls-92" d="M192.47,46.55c-5.07-15.82-25.55,6.22-20.74,10.32l18.76,10.67S193.33,56.53,192.47,46.55Z"/><path class="cls-92" d="M107.33,34.72c-1.27,3.76-4.18,18.08-4.18,18.08l9.52-4.7c-3-2.7-1-10.81-1.44-14.29C111,31.72,108.58,31.3,107.33,34.72Z"/><path class="cls-92" d="M128.26,16.58s-12.22,6.3-16.34,9.12c6.43-.56,1.41,9.42,5.53,10.85C122.79,35.39,120.75,24.39,128.26,16.58Z"/><path class="cls-92" d="M142.72,11.38c-17.82,8.46-20.21,34.1-20.21,34.1l43.43,8.87c.39-11.11,9-10.5,9.87-17.72-.6-7.65-25-2.46-28.78-8.44s16.69-11.84,9.94-15C157,13.22,148.66,9.52,142.72,11.38Z"/><path class="cls-78" d="M149.46,136.87l-1.8,0,0-.45,1.79,0Zm1.8,0v-.45l1.79-.08,0,.45Zm-5.4-.11-1.79-.15,0-.45,1.78.15Zm9-.1,0-.45,1.78-.19.05.45Zm-12.58-.25-1.78-.26.07-.44,1.77.26Zm16.16-.18-.07-.44,1.76-.29.08.44Zm-19.71-.4-1.76-.37.1-.44,1.75.37Zm23.26-.23-.09-.44,1.75-.39.1.44ZM135.21,135l-1.74-.47.12-.43,1.72.47Zm30.28-.27-.11-.43,1.72-.48.13.43ZM131.75,134l-1.71-.57.15-.42,1.69.57Zm37.19-.28-.14-.43,1.7-.56.15.42Zm-40.59-.92-1.67-.67.17-.41,1.66.66Zm44-.25-.16-.42,1.67-.64.17.42ZM125,131.45l-1.63-.75.19-.4,1.62.75Zm50.66-.2-.17-.41,1.64-.71.18.41Zm-53.91-1.35-1-.52-.59-.31.21-.4.59.31,1,.52Zm56-.75-.23-1.78.44-.06.23,1.78Zm-57.27-2-.45,0q.07-.88.13-1.79l.45,0Q120.62,126.27,120.55,127.16Zm56.81-1.57-.23-1.78.44-.06.23,1.78Zm-56.58-2-.45,0q0-.88.07-1.79h.45Q120.82,122.69,120.78,123.57ZM176.91,122l-.23-1.78.44-.06.23,1.78ZM120.42,120c0-.6,0-1.2,0-1.79h.45c0,.59,0,1.2,0,1.8Zm56-1.5-.23-1.78.44-.06.23,1.78Zm-56.14-2.07c0-.6-.08-1.2-.14-1.78l.45,0c.06.59.1,1.19.14,1.8ZM176,114.91l-.23-1.78.44-.06.23,1.78Zm-56-2.07c-.08-.59-.16-1.18-.26-1.77l.44-.07c.1.59.18,1.19.26,1.78Zm55.84-1.46,0-.07-.25,0,0-.33.17-.06a4.69,4.69,0,0,0,1.37-.76l.28.35A5.13,5.13,0,0,1,175.81,111.39Zm-56.29-2.05-.09,0h0v0a7.13,7.13,0,0,1-1.43-.59l.22-.39a6.7,6.7,0,0,0,1.46.59l.13,0,.06.29-.3.06Zm59-.19-.39-.23a5.83,5.83,0,0,0,.53-1.18q.07-.21.12-.42l.43.11q-.06.23-.13.44A6.28,6.28,0,0,1,178.53,109.15Zm-62-1.55a6.47,6.47,0,0,1-1.1-1.49l.39-.21a6,6,0,0,0,1,1.38Zm63-2H179v-.16a9.36,9.36,0,0,0-.14-1.59l.44-.08a9.83,9.83,0,0,1,.15,1.66Zm-64.73-1.23a6.51,6.51,0,0,1-.15-1.4q0-.23,0-.45l.45,0q0,.21,0,.42a6.07,6.07,0,0,0,.14,1.3Zm63.7-2.22a10.42,10.42,0,0,0-.72-1.6l.39-.22a10.87,10.87,0,0,1,.75,1.67Zm-67.69-1.23-.52,0,0-.45a6.7,6.7,0,0,0,1.73-.1l.08.44A7.44,7.44,0,0,1,110.74,100.93Zm4.7,0-.41-.17a4.53,4.53,0,0,1,1.06-1.55l.31.33A4.08,4.08,0,0,0,115.43,100.89Zm27.33-.44V100l1.79,0v.45Zm-1.8,0-1.8,0V100l1.79,0Zm-32.55,0a3.84,3.84,0,0,1-1.2-.9,2.51,2.51,0,0,1-.25-.33l.38-.24a2.07,2.07,0,0,0,.2.27,3.4,3.4,0,0,0,1.06.79Zm37.95-.06,0-.45,1.79-.08,0,.45Zm-9,0-1.8-.09,0-.45,1.79.09Zm-23.54-.08-.19-.41a4.18,4.18,0,0,0,1-.63l.09-.08.07-.11.1-.17.39.22-.12.2-.12.17-.12.1A4.64,4.64,0,0,1,113.82,100.26Zm36.12-.07,0-.45,1.78-.15,0,.45Zm-16.17,0L132,100l0-.45,1.79.14Zm19.75-.28,0-.45,1.78-.22.06.44Zm-23.34,0-1.79-.18,0-.45,1.78.18Zm48.36-.22-.17-.41c.54-.22,1.09-.46,1.63-.72l.19.41C179.65,99.15,179.1,99.4,178.55,99.62Zm-51.94-.17-1.78-.22.06-.44,1.78.22Zm28-.44c-.53-.26-1.07-.54-1.6-.83l.22-.39c.52.29,1.06.57,1.58.82Zm-31.52,0-1.78-.26.07-.44,1.77.26Zm-5.22-.35-.14-.43a4.92,4.92,0,0,1,1.86-.21l0,.45A4.45,4.45,0,0,0,117.83,98.64Zm64-.54-.21-.4c.52-.27,1-.55,1.57-.85l.22.39C182.88,97.54,182.35,97.83,181.82,98.1Zm-75.41-.68c0-.44-.07-.91-.09-1.37l0-.43.45,0,0,.41c0,.5,0,.94.09,1.37Zm45-.15c-.5-.31-1-.63-1.52-1l.25-.37c.5.33,1,.66,1.5,1Zm-35.66,0h-.45v-.14a10.81,10.81,0,0,0-.14-1.6l.44-.07a11.2,11.2,0,0,1,.15,1.67ZM185,96.34l-.23-.38c.5-.3,1-.62,1.51-.95l.24.38C186,95.71,185.46,96,185,96.34Zm-36.55-1.07c-.48-.34-1-.71-1.44-1.08l.27-.35c.48.37,1,.73,1.43,1.07Zm-43.59,0a13.76,13.76,0,0,1-1.67-.72l.2-.4a13.27,13.27,0,0,0,1.62.7Zm90.57-.55-.48,0v-.17h0l-.38-1.57.44-.11Zm-78.92,0-.15-.42c.54-.2,1.09-.42,1.65-.66l.18.41C117.58,94.25,117,94.47,116.47,94.67Zm76.65-.15-1.79-.14,0-.45,1.79.14ZM188,94.38l-.25-.37.47-.32,1.38.11,0,.45-1.22-.09ZM140.82,94l-1-.31.14-.43.62.2.36-.68.4.21Zm-39.23-.38a16.69,16.69,0,0,1-1.44-1.11l.29-.34a16.18,16.18,0,0,0,1.4,1.08Zm18.2-.35-.2-.4c.51-.25,1-.53,1.59-.81l.21.4C120.85,92.71,120.31,93,119.79,93.24Zm18.35-.14-1.71-.55.14-.43,1.71.55Zm7.43,0c-.45-.37-.92-.76-1.37-1.16l.29-.34c.46.4.91.78,1.36,1.16ZM134.72,92,133,91.45l.14-.43,1.71.55ZM123,91.55l-.22-.39,1.54-.91.23.38Zm19.24-.17-.4-.21.73-1.36.21.2.4.37-.3.33-.19-.17Zm-43.38-.14-.63-.68-.61.12-.07-.44.72-.14.13,0,.09.1c.23.26.47.52.71.76Zm95.23,0c-.16-.58-.32-1.16-.49-1.72l.43-.13c.17.56.33,1.15.49,1.73Zm-62.75-.29-1.71-.55.14-.43,1.71.55Zm-3.42-1.1-1-.32.49-.66-1.33.86-.24-.38,1.51-1,.2.31.19-.26.36.27-.44.59.41.13Zm65.14-2c-.19-.57-.39-1.14-.59-1.68l.42-.16c.21.55.41,1.13.6,1.7Zm-1.24-3.35c-.23-.55-.47-1.1-.71-1.63l.41-.19c.25.54.49,1.09.72,1.65Zm-1.5-3.24c-.28-.53-.57-1.06-.86-1.56l.39-.23c.3.51.59,1,.87,1.58Zm-94.34-.93-.41-.19c.26-.55.53-1.09.81-1.61l.4.21C96.48,79.18,96.21,79.72,95.95,80.26Zm92.54-2.15c-.33-.5-.67-1-1-1.45l.36-.27c.36.47.71,1,1,1.48Zm-90.88-1-.39-.23c.31-.53.63-1,.94-1.54l.38.24C98.22,76.07,97.91,76.58,97.61,77.1Zm46.34-1.22-.44-.06c.09-.6.18-1.2.28-1.78l.44.08C144.12,74.69,144,75.29,143.94,75.88Zm1.48-.3-.14-.42,1.69-.59.15.42Zm40.92-.31c-.39-.45-.8-.89-1.21-1.3l.32-.32c.42.42.83.87,1.23,1.33Zm-37.53-.9-.16-.42,1.68-.63.16.42Zm-49.26-.26-.36-.27c.36-.49.74-1,1.12-1.42l.34.29C100.28,73.16,99.91,73.63,99.55,74.12Zm47-.92-.06-.69.45,0v.1l1-.38.16.42Zm5.63-.1-.17-.42,1.66-.66.17.42Zm-21.88,0-.48-.34-1-.68.25-.37.5.34v0l.44-.1.14.59Zm53.55-.29c-.45-.39-.92-.76-1.39-1.1l.26-.36c.48.35,1,.73,1.42,1.12Zm-39.28-.4-.44-.09c.13-.6.26-1.19.41-1.76l.43.11C144.82,71.19,144.69,71.78,144.56,72.37ZM149.8,72l-.16-.42,1.68-.63.16.42Zm5.7-.22-.17-.42.07,0,1.59-.64.17.42-1.59.64Zm-53.66-.35-.32-.31c.43-.44.87-.86,1.32-1.24l.29.34C102.7,70.56,102.26,71,101.84,71.4Zm25.5-.34c-.51-.32-1-.63-1.53-.92l.22-.39c.51.3,1,.61,1.54.93Zm25.82-.34L153,70.3l1.68-.63.16.42Zm-6.82,0c0-.39-.06-1-.08-1.8h.45c0,.78.06,1.4.08,1.79Zm34.63,0c-.5-.3-1-.59-1.56-.85l.2-.4c.54.26,1.07.56,1.59.87Zm-52.21-.2-.35-.16.08-.18-.13,0,.23-1.69.28,0v0l.44-.08q.16.88.34,1.76l-.44.09q-.13-.62-.24-1.24Zm30.07-.07-.16-.42,1.68-.64.16.42Zm-32.06-.83-1.63-.74.19-.41,1.63.74Zm-2.52-.31c-.54-.28-1.07-.54-1.6-.78l.19-.41c.53.24,1.08.51,1.62.79Zm37.93-.09-.14-.42c.61-.21,1.17-.38,1.72-.55l.13.43C163.34,68.8,162.79,69,162.18,69.18Zm15.6-.05c-.55-.21-1.11-.41-1.68-.58l.13-.43c.58.17,1.15.37,1.71.59Zm-73.26,0-.26-.37a17.1,17.1,0,0,1,1.54-1l.22.39A16.63,16.63,0,0,0,104.52,69.09Zm40.92-.18-.43-.13c.18-.59.37-1.16.56-1.72l.42.15C145.8,67.76,145.61,68.33,145.44,68.91Zm10.71-.06-.43-.12q.23-.88.47-1.73l.43.12Q156.38,68,156.15,68.85Zm9.46-.66-.1-.44c.61-.14,1.21-.26,1.78-.35l.07.44C166.79,67.93,166.2,68,165.61,68.19Zm8.78-.08c-.57-.12-1.16-.23-1.75-.32l.06-.44c.6.09,1.2.2,1.78.32Zm-50.88,0-1.63-.74.19-.41,1.63.74ZM121,67.8c-.56-.22-1.13-.42-1.68-.59l.13-.43c.56.18,1.13.38,1.71.6Zm48.1-.16,0-.45a16.87,16.87,0,0,1,1.82,0l0,.45A16.31,16.31,0,0,0,169.11,67.64Zm-61.5-.27-.17-.41.41-.16q0-.24,0-.47t0-.6l.45,0q0,.27,0,.56t0,.6v.17l-.16.06Zm39.07-.27h-.45V67c0-.52,0-1.07,0-1.64h0l.49-1.15,0,1.17c0,.57,0,1.11,0,1.63Zm-29.06-.37c-.59-.14-1.17-.25-1.74-.33l.06-.44c.58.08,1.18.19,1.78.33Zm2.62-.13-.67-.31L119.44,65l.45,0,.1,1,.44.2Zm36.87-1.21-.43-.13q.25-.87.52-1.72l.43.13Q157.37,64.53,157.11,65.4Zm-41.94-.79a4.85,4.85,0,0,0-1-1.39l.31-.32a5.29,5.29,0,0,1,1.07,1.52Zm-6.5-.52-.42-.17a3.9,3.9,0,0,1,1.08-1.54l.29.34A3.46,3.46,0,0,0,108.66,64.09Zm10.62-.89q-.07-.91-.13-1.79l.45,0q.06.89.13,1.79Zm-6.51-.92a3.34,3.34,0,0,0-1.65-.22l-.06-.44a3.8,3.8,0,0,1,1.87.25ZM158.16,62l-.43-.14q.28-.86.56-1.71l.42.14Q158.44,61.11,158.16,62ZM119,59.61q0-.91-.08-1.8l.45,0q0,.89.08,1.79Zm40.27-1-.42-.15q.3-.86.62-1.69l.42.16Q159.61,57.73,159.31,58.58Zm-22.15-.64-.08-1.88h.26l.14-.4.42.15-.36,1ZM118.92,56q0-.91,0-1.8h.45q0,.89,0,1.79Zm41.65-.79-.42-.17q.33-.85.68-1.67l.41.17Q160.9,54.39,160.57,55.23Zm-23.55-1q0-.91,0-1.8h.45q0,.89,0,1.79Zm1.48-.16-.42-.15.62-1.69.42.16Zm-19.14-1.67h-.45q0-.9,0-1.8l.45,0Q119.38,51.53,119.36,52.43Zm42.59-.5-.41-.18q.37-.83.75-1.64l.41.19Q162.32,51.1,162,51.93Zm-22.2-1.18-.42-.16.65-1.67.42.17ZM137,50.67v-.41q0-.7,0-1.39h.45q0,.69,0,1.39v.4Zm-17.47-1.82-.45,0q.05-.9.12-1.79l.45,0Q119.54,48,119.49,48.86Zm44-.16-.4-.2q.41-.81.82-1.6l.4.21Q163.88,47.89,163.47,48.69Zm-22.4-1.28-.41-.17q.35-.84.7-1.66l.41.18Q141.42,46.58,141.07,47.42Zm-3.62-.33H137q0-.91.06-1.8l.45,0Q137.47,46.19,137.45,47.09Zm27.7-1.56-.39-.22c.3-.52.6-1,.91-1.55l.38.23C165.75,44.5,165.45,45,165.15,45.54Zm-45.38-.25-.45,0q.09-.89.19-1.79l.45.05Q119.86,44.4,119.77,45.29Zm22.71-1.16-.41-.18.53-1.17.22-.47.41.19L143,43Zm-4.88-.61-.45,0q.06-.91.13-1.79l.45,0Q137.66,42.61,137.6,43.51Zm29.4-1-.38-.24c.33-.51.67-1,1-1.5L168,41C167.66,41.47,167.33,42,167,42.48Zm-46.81-.74-.44-.06q.12-.89.27-1.78l.44.07Q120.32,40.85,120.19,41.74Zm23.8-.86-.4-.2q.4-.82.8-1.61l.4.2Q144.38,40.06,144,40.88Zm-6.1-.93-.45,0q.09-.91.2-1.79l.45.05Q138,39,137.89,39.95Zm31.15-.4-.36-.27c.36-.48.73-1,1.1-1.43l.35.28C169.76,38.59,169.39,39.06,169,39.54ZM120.76,38.2l-.44-.08q.16-.88.33-1.77l.44.09Q120.91,37.33,120.76,38.2Zm24.86-.52-.4-.21q.43-.8.86-1.58l.39.22Q146,36.89,145.61,37.69Zm25.66-.93-.34-.29c.39-.46.8-.91,1.2-1.34l.33.31C172.06,35.86,171.65,36.3,171.27,36.76Zm-32.94-.36-.44-.07q.13-.9.29-1.78l.44.08Q138.46,35.5,138.33,36.4Zm-16.88-1.71L121,34.6q.19-.87.39-1.75l.44.1Q121.63,33.82,121.44,34.69Zm25.92-.12-.39-.23q.46-.78.94-1.54l.38.24Q147.82,33.79,147.36,34.57Zm26.33-.43-.32-.31.59-.61-.22-.08.15-.42.89.31Zm-34.76-1.26-.44-.09c.12-.59.25-1.18.38-1.76l.44.1C139.19,31.7,139.06,32.29,138.94,32.87ZM172,32.55l-1.7-.58.15-.42,1.7.58Zm-22.79-1-.37-.25c.33-.5.68-1,1-1.48l.37.26C149.93,30.54,149.59,31,149.26,31.54Zm19.39-.15L167,30.8l.15-.42,1.7.58Zm-46.41-.18-.44-.11q.21-.86.44-1.74l.43.11Q122.46,30.34,122.25,31.2Zm43-1-1.7-.58.15-.42,1.7.58Zm-25.5-.82-.43-.12c.16-.58.32-1.17.5-1.73l.43.13C140.08,28.24,139.91,28.82,139.76,29.4ZM161.87,29l-1.7-.58.15-.42,1.7.58Zm-10.54-.42-.36-.27c.36-.48.74-1,1.11-1.42l.35.28C152.06,27.67,151.69,28.15,151.33,28.62Zm7.15-.75-1.7-.58.15-.42,1.7.58Zm-35.33-.14-.43-.12q.23-.86.48-1.73l.43.12Q123.38,26.88,123.15,27.73Zm31.94-1-1.7-.58.15-.42,1.7.58ZM140.81,26l-.42-.15c.2-.57.41-1.14.62-1.69l.42.16C141.21,24.86,141,25.42,140.81,26ZM124,24.47l0-.45,1.79-.19,0,.45Zm3.57-.37,0-.45,1.79-.16,0,.45ZM140,23.88c-.58-.06-1.18-.1-1.78-.14l0-.45c.61,0,1.21.08,1.8.14Zm-8.92-.07,0-.45,1.8-.09,0,.45Zm5.36-.13h-1.79v-.45h1.8Z"/><path class="cls-93" d="M94.24,87.15c3.91-11.54,9.07-17.59,15.14-19.37-1.09-7.14,5.63-5.36,5.32-.52,5.29.42,11.1,3.4,17.25,8.29a79,79,0,0,1-2.86-17.93L127.6,68.4l-6.69-3.05c-1.44-14.91-.22-25.76,3.93-40,2.45-.26,15-.94,14.82-.4-3.91,10.83-4.25,24-3.14,38.16a169.81,169.81,0,0,1,7.38-19.72,71.79,71.79,0,0,1,9.77-16.12l18.52,6.38c-8.47,8.69-13.72,21-17.45,35L147.8,71.2a55.75,55.75,0,0,1,.31-11c-3.6,4.66-5.18,11.57-5.83,17.48,14.24-4.34,22-9.89,29.69-8.94,11.67,1.44,18.16,10.49,21.56,24.43l-5.62-.43c-6.32,4.47-12.19,7.1-17.92,7.78.43,2.84-5.55,3.63-5.37.06-7.29-.72-14.51-4.74-22.35-12.31l-2.16,4-4.74-1.53-6.16-2a5.49,5.49,0,0,0,1.11-3.61C124.7,89,119.17,92.58,113.92,94c.25,1.63.71,3.55.08,4.49-1,.92-4.35,1.66-5.74.11-.64-.72-.42-2.75-.63-4.11C104.5,94,101.5,92.35,98.72,89,95.67,89.74,94.05,89.59,94.24,87.15Z"/><path class="cls-94" d="M167.64,102.06l-.08-.44a1.85,1.85,0,0,0,1.07-.52.52.52,0,0,0,.13-.27l.44.06a1,1,0,0,1-.24.5A2.27,2.27,0,0,1,167.64,102.06Zm-1.89-.45a1.3,1.3,0,0,1-.31-.92s0-.08,0-.12l0-.86.45,0,0,.86s0,.07,0,.1a.88.88,0,0,0,.19.62Zm3.58-1.87-.05-.45.58-.07L171,99l.07.44c-.4.07-.81.13-1.21.17Zm-5.3-.09c-.59-.08-1.19-.18-1.79-.3l.09-.44c.58.12,1.17.22,1.75.29Zm8.86-.51-.1-.44c.57-.13,1.14-.29,1.72-.47l.13.43C174.05,98.84,173.46,99,172.89,99.13Zm-12.4-.22c-.57-.16-1.15-.35-1.72-.55l.15-.42c.56.2,1.13.38,1.69.54ZM111,98.67l0-.45a5.21,5.21,0,0,0,1.67-.37l.17.41A5.68,5.68,0,0,1,111,98.67Zm-1.87-.42a1.45,1.45,0,0,1-.23-.2,3.55,3.55,0,0,1-.29-1.65l.45,0a3.69,3.69,0,0,0,.19,1.39l.14.13Zm67.25-.17-.15-.42c.55-.2,1.1-.42,1.66-.66l.18.41C177.46,97.66,176.9,97.88,176.35,98.09Zm-19.27-.38c-.54-.23-1.09-.49-1.64-.76l.2-.4c.54.27,1.08.52,1.62.75Zm22.59-1-.19-.4c.52-.25,1.06-.52,1.59-.81l.21.4C180.74,96.15,180.2,96.42,179.67,96.68ZM113,96.61c0-.55-.15-1.16-.23-1.66l0-.1.44-.07,0,.1c.08.5.19,1.12.24,1.69Zm40.8-.5c-.51-.29-1-.6-1.55-.92l.24-.38c.51.32,1,.62,1.54.91Zm29-1.11-.22-.39c.5-.29,1-.6,1.53-.92l.24.38C183.88,94.38,183.36,94.7,182.85,95Zm-74.38-.36c0-.09,0-.18,0-.27l-.09-.59-.57-.08.06-.44.9.13.14.92q0,.14,0,.29Zm42.31-.43c-.48-.33-1-.68-1.47-1l.27-.36c.49.36,1,.71,1.46,1ZM113,93.4l-.12-.43.7-.19,1-.3.14.43-1,.31Zm-7-.12a11.52,11.52,0,0,1-1.69-.69l.2-.4a11.1,11.1,0,0,0,1.63.66Zm79.92-.19-.25-.37,1.47-1,.26.37Zm-69.46-.8-.17-.42c.53-.21,1.08-.45,1.64-.71l.19.41C117.54,91.83,117,92.07,116.45,92.29Zm74.3-.19L189,92l0-.45,1.79.14Zm-42.87,0c-.46-.36-.93-.74-1.4-1.14l.29-.34c.46.39.93.77,1.38,1.13Zm44-.38c-.16-.58-.32-1.16-.49-1.72l.43-.13c.17.56.34,1.14.5,1.73Zm-89.14,0a15,15,0,0,1-1.42-1.13l.3-.33a14.43,14.43,0,0,0,1.38,1.1Zm35.66-.82-1.71-.55.14-.43,1.71.55Zm-18.67-.06-.21-.4c.51-.26,1-.55,1.57-.85l.22.39C120.77,90.22,120.23,90.51,119.72,90.77Zm20.37-.18-.4-.21.85-1.58.4.21Zm5-.85q-.66-.59-1.33-1.21l.31-.33q.66.62,1.32,1.21Zm-10.15,0-1.71-.55.14-.43,1.71.55Zm-35-.5c-.23-.25-.45-.51-.68-.78L99,88.06l-.5.13L98,88.3l-.1-.44.47-.11.77-.2.51.61c.22.27.44.52.66.77ZM122.87,89l-.23-.39,1.53-.94.24.38Zm8.69-.38-1.09-.35.11-.23a6.07,6.07,0,0,0,.31-.81l.43.13a6.53,6.53,0,0,1-.23.64l.62.2Zm-35.42-.06a1.26,1.26,0,0,1-.91-.24,1.19,1.19,0,0,1-.2-.82c0-.06,0-.11,0-.18v-.06l0-.08.42.15,0,.05s0,.09,0,.13a.93.93,0,0,0,.09.51,1.13,1.13,0,0,0,.58.09h.07v.45Zm94.69-.32c-.19-.57-.39-1.14-.6-1.68l.42-.16c.21.55.41,1.12.6,1.7Zm-49.05-.83-.4-.21.57-1.07.85.82-.31.32-.42-.41Zm-15.87-.33-.24-.38,1.5-1,.25.37ZM96.1,85.66l-.42-.16c.21-.57.43-1.13.65-1.68l.42.17C96.53,84.53,96.31,85.09,96.1,85.66Zm35.49-.11h-.45q0-.09,0-.17t0-.27l0-1.33.45,0,0,1.33q0,.15,0,.29C131.6,85.42,131.6,85.49,131.6,85.55Zm-2.69-.43-.25-.37,1-.66.51-.35.25.37-.51.35Zm60.67-.19c-.23-.55-.48-1.1-.73-1.63l.4-.19c.25.53.5,1.08.74,1.65ZM97.45,82.35,97,82.17c.25-.56.5-1.11.76-1.63l.4.2C97.95,81.25,97.69,81.8,97.45,82.35ZM188,81.7c-.29-.53-.59-1-.89-1.54l.38-.24c.31.5.61,1,.9,1.56ZM99,79.14l-.39-.21c.29-.54.6-1.06.9-1.56l.38.23C99.61,78.09,99.31,78.61,99,79.14Zm43.53-.28-.13-.43.1,0,1.61-.5.14.43-1.61.51Zm-1.2-.1-.45,0,.13-1.22.06-.56.45.05-.06.56Zm44.82-.09c-.34-.49-.71-1-1.08-1.42l.35-.28c.38.46.74.94,1.09,1.44Zm-53.37-.84-1.4-1.12.28-.35,1.4,1.12ZM146,77.76l-.14-.42,1.69-.59.15.42Zm-12.58,0L132.91,76l.43-.12.48,1.73Zm16-1.18-.16-.42,1.68-.63.16.42Zm-48.48-.46-.37-.25c.35-.51.71-1,1.07-1.45l.35.28C101.58,75.12,101.22,75.6,100.88,76.1Zm83-.18c-.41-.43-.84-.85-1.28-1.23l.3-.34c.44.39.88.82,1.3,1.26ZM130,75.62c-.48-.37-1-.72-1.44-1.06l.26-.36c.48.34,1,.7,1.45,1.07Zm22.74-.34-.16-.42,1.67-.66.17.42Zm-10.93-.07-.44-.07c.09-.6.19-1.2.29-1.78l.44.08C142,74,141.87,74.62,141.78,75.21Zm-9.34-.94q-.23-.87-.44-1.75l.44-.1q.21.87.43,1.74ZM156,73.94l-.17-.42.24-.1,1.42-.58.17.42-1.42.58Zm25.21-.36c-.48-.35-1-.68-1.47-1l.23-.38c.51.31,1,.65,1.51,1Zm-54.19,0c-.5-.33-1-.66-1.51-1l.23-.38c.5.31,1,.63,1.52,1Zm-24-.22-.33-.31c.42-.45.86-.88,1.29-1.27l.3.33C103.93,72.46,103.5,72.88,103.09,73.33Zm56.29-.72-.16-.42,1.68-.64L161,72Zm18.85-.85c-.53-.25-1.08-.48-1.63-.69l.15-.42c.57.21,1.13.45,1.67.7Zm-35.81-.06-.44-.1c.13-.6.27-1.19.41-1.75l.43.11C142.69,70.52,142.55,71.1,142.42,71.69Zm-18.4,0c-.53-.29-1.06-.57-1.58-.82l.2-.4c.52.26,1.06.54,1.6.83Zm38.71-.33-.15-.42c.61-.21,1.17-.39,1.72-.55l.13.43C163.89,71,163.33,71.15,162.73,71.36Zm-57-.38-.26-.36a14.87,14.87,0,0,1,1.54-1l.21.39A14.45,14.45,0,0,0,105.73,71Zm25.87-.2q-.19-.88-.36-1.76l.44-.09q.17.88.36,1.75Zm43.3-.24c-.56-.15-1.14-.28-1.73-.39l.08-.44c.6.11,1.2.24,1.77.4Zm-8.75-.18-.1-.44c.62-.14,1.21-.26,1.78-.34l.07.44C167.34,70.1,166.75,70.21,166.15,70.35Zm-45.33-.23c-.56-.23-1.12-.45-1.66-.63l.14-.42c.55.19,1.12.4,1.69.64Zm50.6-.23a13.73,13.73,0,0,0-1.76,0l0-.45a14.17,14.17,0,0,1,1.82,0Zm-22.9-.3c0-.59,0-1.2,0-1.8h.45c0,.6,0,1.2,0,1.79Zm1.85-.22-.16-.42,1.68-.63.16.42Zm-41.55-.08-.16-.42c.31-.12.63-.23.94-.32l.78-.23.13.43-.78.23C109.43,69.08,109.12,69.18,108.82,69.3Zm8.63-.3c-.59-.15-1.17-.26-1.74-.35l.07-.44c.58.09,1.18.21,1.78.36Zm-3.51-.53-.58,0,.08-1.24c0-.08,0-.17,0-.25s0-.1,0-.14l.45,0c0,.05,0,.11,0,.16s0,.18,0,.28l-.05.79H114Zm29.36-.23-.43-.13c.18-.59.37-1.16.56-1.72l.42.15C143.67,67.09,143.49,67.66,143.31,68.24Zm10.42-.12-.16-.42.11,0,.38-1.39.43.12-.41,1.5,0,.11Zm-17.34-.44-.34-.11v0l-.45,0-.14-1.79.45,0,.12,1.51.47-1.49.43.13Zm-5.47-.43q-.15-.89-.29-1.78l.44-.07q.13.88.28,1.77ZM126.38,67l-1.63-.74.19-.41,1.63.74Zm-16.29-.11c0-.19,0-.36,0-.52a4.63,4.63,0,0,1,.17-1.34l.43.13a4.18,4.18,0,0,0-.15,1.2c0,.15,0,.32,0,.49ZM148.92,66h-.45c0-.61,0-1.22.06-1.8l.45,0C149,64.79,148.94,65.4,148.92,66Zm-25.81-.54-1.45-.66,0-.47.45,0,0,.2,1.21.55Zm4.08,0-.44-.06.25-1.78.44.06ZM113,65.22a2.58,2.58,0,0,0-.27-.34,1.9,1.9,0,0,0-1-.59l.08-.44a2.31,2.31,0,0,1,1.25.73,3,3,0,0,1,.31.4Zm31.55-.34-.41-.17c.24-.57.49-1.12.75-1.65l.4.2C145,63.78,144.74,64.32,144.51,64.88ZM155,64.66l-.43-.13q.26-.87.52-1.72l.43.13Q155.25,63.8,155,64.66Zm-17.53-.41-.43-.13.25-.78.29-.93.43.14-.29.93Zm-2.14-.2-.07-.86-.07-.93.45,0q0,.46.07.92l.07.86Zm-4.94-.37q-.11-.9-.2-1.79l.45,0q.09.88.2,1.78Zm-8.91-1.13q-.07-.91-.13-1.79l.45,0q.06.89.13,1.79Zm27.63-.11-.45,0c.06-.62.12-1.23.2-1.79l.44.06C149.23,61.22,149.16,61.82,149.11,62.43Zm-21.42-.53-.44-.06.25-1.78.44.06Zm18.41-.21-.39-.23c.31-.53.65-1,1-1.52l.36.26C146.72,60.68,146.4,61.18,146.09,61.7Zm10-.46-.43-.14q.28-.86.56-1.71l.42.14Q156.33,60.38,156,61.24Zm-17.49-.4-.43-.14.56-1.7.43.14Zm-3.49-.36q-.06-.91-.11-1.79l.45,0q0,.89.11,1.79Zm-5-.38c0-.61-.08-1.22-.1-1.8l.45,0c0,.58.06,1.18.1,1.78ZM121.25,59q0-.91-.07-1.8h.45q0,.89.07,1.79Zm28.32-.07-.44-.07.26-1.77.44.07Zm-1.43-.1-.35-.27,1.1-1.42.35.27Zm-20-.44-.44-.06.14-1,1.16.06,0,.45-.75,0Zm29-.5-.42-.15q.3-.86.62-1.69l.42.16Q157.5,57,157.2,57.85Zm-17.5-.41-.42-.15.59-1.7.42.15Zm-4.83-.55q0-.91-.07-1.79l.45,0q0,.89.07,1.79Zm-13.73-1.53q0-.62,0-1.23,0-.29,0-.57h.45q0,.28,0,.57,0,.61,0,1.22Zm37.31-.87-.42-.16q.33-.85.68-1.67l.41.17Q158.79,53.65,158.46,54.5Zm-17.56-.43-.42-.15.62-1.68.42.16Zm-6.14-.76q0-.91,0-1.8h.45q0,.89,0,1.79Zm-13.14-1.52h-.45q0-.9.06-1.8l.45,0Q121.64,50.88,121.61,51.78Zm38.22-.58-.41-.18q.37-.83.74-1.64l.41.19Q160.2,50.37,159.83,51.19Zm-17.67-.48-.42-.16.66-1.67.42.17Zm-7-1h-.45q0-.91,0-1.8h.45Q135.17,48.8,135.17,49.71ZM121.78,48.2l-.45,0q.06-.9.14-1.79l.45,0Q121.84,47.31,121.78,48.2ZM161.35,48l-.4-.2q.4-.81.82-1.6l.4.21Q161.75,47.14,161.35,48Zm-17.84-.56-.41-.17q.35-.84.71-1.65l.41.18Q143.86,46.55,143.51,47.39Zm-8.27-1.26-.45,0q0-.91.08-1.8l.45,0Q135.27,45.22,135.24,46.13ZM163,44.78l-.39-.22q.44-.79.9-1.56l.39.23Q163.45,44,163,44.78Zm-40.92-.15-.45,0q.1-.89.21-1.79l.44.06Q122.19,43.75,122.09,44.64Zm22.85-.53-.41-.19.1-.21.66-1.42.4.19L145,43.89Zm-9.52-1.55-.45,0q.06-.91.14-1.79l.45,0Q135.48,41.65,135.42,42.55Zm29.42-.84-.38-.24c.32-.51.66-1,1-1.51l.37.25C165.49,40.7,165.16,41.2,164.83,41.71Zm-42.28-.62-.44-.07q.13-.88.28-1.78l.44.08Q122.68,40.21,122.55,41.09Zm23.93-.21-.4-.2q.41-.82.82-1.6l.4.21Q146.89,40.06,146.48,40.88ZM135.74,39l-.45,0q.1-.9.22-1.79l.44.06Q135.83,38.09,135.74,39Zm31.1-.23-.36-.26c.35-.49.72-1,1.08-1.44l.35.28C167.55,37.79,167.19,38.27,166.84,38.75Zm-18.69-1-.39-.22q.44-.8.89-1.57l.39.23Q148.58,36.91,148.14,37.71Zm-25-.14-.44-.08q.17-.88.35-1.76l.44.09Q123.31,36.69,123.15,37.56ZM169,35.93l-.34-.29c.39-.46.78-.92,1.18-1.36l.33.3C169.8,35,169.41,35.48,169,35.93Zm-32.82-.49-.44-.07q.14-.9.3-1.77l.44.08Q136.35,34.55,136.21,35.44Zm13.74-.82-.38-.24c.32-.51.64-1,1-1.52l.37.25Q150.42,33.85,149.95,34.62Zm-26.07-.56-.44-.1q.2-.87.41-1.75l.44.1Q124.07,33.19,123.88,34.06ZM169,33.87l-1.7-.58.15-.42,1.7.58Zm-3.39-1.17-1.7-.58.15-.42,1.7.58Zm-28.76-.78-.44-.09c.12-.59.26-1.18.4-1.76l.44.11C137.11,30.75,137,31.34,136.85,31.92Zm15.06-.3-.37-.26c.35-.5.7-1,1.06-1.46l.36.27C152.61,30.65,152.26,31.13,151.91,31.63Zm10.31-.1-1.7-.58.15-.42,1.7.58Zm-37.51-1-.43-.11q.22-.86.46-1.74l.43.12Q124.93,29.72,124.71,30.57Zm34.11-.21-1.7-.58.15-.42,1.7.58Zm-3.39-1.17-1.35-.46,0,0-.12-.09h0l-.23-.19.23-.29,1.65.57Zm-17.74-.74-.43-.12c.16-.58.33-1.16.51-1.73l.43.13C138,27.3,137.86,27.88,137.7,28.45Zm-12.05-1.34-.43-.12.26-.9h.15l1-.08,0,.45-.86.06Zm2.82-.78,0-.45,1.79-.1,0,.45Zm3.58-.19,0-.45,1.8-.07,0,.45Zm3.58-.13v-.45l1.8,0V26Z"/><path class="cls-95" d="M143.9,43.37a71.79,71.79,0,0,1,9.77-16.12l18.52,6.38c-8.47,8.69-13.72,21-17.45,35L147.8,71.2a55.75,55.75,0,0,1,.31-11c-3.6,4.66-5.18,11.57-5.83,17.48,14.24-4.34,22-9.89,29.69-8.94,11.67,1.44,18.16,10.49,21.56,24.43l-5.62-.43c-6.32,4.47-12.19,7.1-17.92,7.78.43,2.84-5.55,3.63-5.37.06-7.29-.72-14.51-4.74-22.35-12.31l-2.16,4-4.74-1.53,1.13-27.62Z"/><polygon class="cls-66" points="128.06 56.87 128.06 71.1 99.86 71.11 99.88 63.99 128.06 56.87"/><polygon class="cls-66" points="153.98 53.85 151.94 71.47 186.01 77.69 186.01 65.77 153.98 53.85"/><path class="cls-79" d="M99.57,63c30.85-10.83,51.54,3.93,76.24,10L141.67,48.53s-35.74,2.87-36.35,3.78A50.21,50.21,0,0,0,99.57,63Z"/><path class="cls-73" d="M94.57,59.65l.1.79a1.84,1.84,0,0,0,3,1.19,38.5,38.5,0,0,1,27-8.56c21.81,1,59.94,36.05,80.08,16.53C189,74.21,167.32,47.67,136.76,45a53,53,0,0,0-33.61,7.78Z"/><path class="cls-91" d="M124.72,53.07a38.5,38.5,0,0,0-27,8.56,1.84,1.84,0,0,1-3-1.19l-.1-.79C104,52.71,113.2,49.9,122.1,49.6c14.86-.49,26.53,7.24,39.17,13.91,14.42,7.61,29.61,13.89,43.53,6.09C184.67,89.13,146.53,54.12,124.72,53.07Z"/><path class="cls-86" d="M119.49,99.43c-4.77-.38-4.85,7.72,1.11,8.67,1.71,7.95,1.31,14,.86,20,11.08,5.86,22,8,32.71,7.15a68.81,68.81,0,0,0,22.67-6.06l-2.43-18.94c7.09-.91,3.14-16-6.18-12.37C153.64,102.29,137.18,102.31,119.49,99.43Z"/><circle class="cls-86" cx="153.9" cy="127.23" r="11.42" transform="translate(-14.96 20.66) rotate(-7.32)"/><path class="cls-66" d="M119.3,127.62c-1.08,5.56,1.7,8.55,2,8.73,3.61,2.06,12.46,4.42,20.7,5.2C139.43,138.66,126.54,130.91,119.3,127.62Z"/><path class="cls-86" d="M197,111c7.94,4.36-.1,14.48-8.85,11.29C187.08,117.13,193,109.74,197,111Z"/><path class="cls-79" d="M152.21,99c0,6.1-4,4.11-7.88,2.41-5.43,5.61-12.44,3-20-2.41-2.33-1.24-3.18-2.36-3-3.39Z"/><path class="cls-86" d="M151.31,81.55c-6.29-1.35-8.31,5.21,1,6.58,15,8.81,22.82,4.17,29.58-2.4l1.43-.35C176.29,76,167.65,70.25,151.31,81.55Z"/><path class="cls-86" d="M128.83,80.45c1.24,1.37,1.13,2.56-.57,3.53-7.39,7.64-15.62,4.54-24-.37-1.5.68-2-.09-2.11-1.28C106,73.27,111.4,66.75,128.83,80.45Z"/><path class="cls-96" d="M167.1,93.2c-4.06,0-8.9-1.35-14.89-4.85-3.39-.51-5.69-1.78-6.33-3.49a2.37,2.37,0,0,1,.44-2.44c1-1.13,2.81-1.53,4.93-1.1,7.59-5.23,14-7.13,19.59-5.81,4.48,1.06,8.37,4.07,12.63,9.75l.2.27-1.7.41C178.16,89.64,173.68,93.2,167.1,93.2ZM149.69,81.59a3.93,3.93,0,0,0-3,1.11,1.91,1.91,0,0,0-.36,2c.57,1.54,2.82,2.74,6,3.21l.08,0c15.47,9.07,23.24,3.53,29.31-2.37l0,0,1.16-.28c-11.06-14.56-21.66-10.3-31.48-3.51l-.08.06-.09,0A7.52,7.52,0,0,0,149.69,81.59Z"/><path class="cls-96" d="M118.23,88.79c-4.62,0-9.36-2.23-14-4.92a1.73,1.73,0,0,1-1.54.08,2.05,2.05,0,0,1-.78-1.59v-.06l0-.06c3.15-7.37,6-9,8.45-9.61C114.89,71.48,121,74,129,80.28l0,0a2.2,2.2,0,0,1-.59,3.86A13.74,13.74,0,0,1,118.23,88.79Zm-13.94-5.43.1.06c9.23,5.42,16.8,7.56,23.72.41l0,0a2.24,2.24,0,0,0,1.27-1.43,2.22,2.22,0,0,0-.75-1.74c-7.88-6.2-13.83-8.67-18.17-7.56-4.08,1-6.32,5.08-8.13,9.3.09.65.27,1,.55,1.2a1.44,1.44,0,0,0,1.24-.15Z"/><g class="cls-97"><path class="cls-98" d="M125.44,81.29c.63,1.34-.87,1.32-1.57,2.24-2.51,3.28-8.44,2.69-10.35.46L124,81.18Z"/></g><path class="cls-99" d="M124.78,81.66l-.91.6a7.82,7.82,0,0,1-13.67-2.92C114.11,76.9,117.32,76.8,124.78,81.66Z"/><path class="cls-98" d="M125.26,80.95c-8.83-6.18-12.2-4.11-15.56-2a.25.25,0,0,0,.19.46l.31-.08c5-1.78,7.53-2.13,14.58,2.32a.43.43,0,0,0,.66-.38h0A.43.43,0,0,0,125.26,80.95Z"/><circle class="cls-98" cx="119.27" cy="80.7" r="4.09" transform="translate(-2.72 4.17) rotate(-1.98)"/><circle class="cls-66" cx="119.27" cy="80.7" r="2.36" transform="translate(-2.72 4.17) rotate(-1.98)"/><circle class="cls-86" cx="116.96" cy="78" r="1.73" transform="translate(-2.63 4.09) rotate(-1.98)"/><circle class="cls-100" cx="120.14" cy="79.77" r="0.9" transform="translate(-2.69 4.2) rotate(-1.98)"/><path class="cls-99" d="M173.08,81.34c-.44,5.92-11.13,12.1-17,3.56L154,83.8C159.82,78.65,165.19,77.93,173.08,81.34Z"/><path class="cls-98" d="M154,83.8h0a.65.65,0,0,0,.95,0c4.82-4.88,11.28-5.07,18.89-2,.2.08.41-.21.23-.33-9.41-4.89-15.28-2.79-20,1.36A.66.66,0,0,0,154,83.8Z"/><circle class="cls-98" cx="166.29" cy="83.26" r="4.92" transform="translate(-7.45 16.94) rotate(-5.7)"/><circle class="cls-66" cx="166.29" cy="83.26" r="2.84" transform="translate(-7.45 16.94) rotate(-5.7)"/><circle class="cls-86" cx="163.31" cy="80.2" r="2.08" transform="translate(-7.16 16.63) rotate(-5.7)"/><circle class="cls-100" cx="167.26" cy="82.2" r="0.98" transform="translate(-7.34 17.03) rotate(-5.7)"/><path class="cls-86" d="M144.4,95.12c-9.93-10.56-16-10.3-19.51-3-3.92-2.48-7.12,4.55.23,4.67,3.21,6.62,15.94,6.16,18.93,2.3C157.73,105.45,151.65,90.14,144.4,95.12Z"/><path class="cls-66" d="M155.89,142c7.73-6.12,17-8.92,26.06-12.41.52,3,.63,5.15-1.82,6.48C170,140.34,166.57,141.58,155.89,142Z"/><path class="cls-87" d="M144.4,95.12c-10-10.75-16.3-10.12-19.51-3,4.33-6.95,11.59-2.24,19.23,4,3.39-1.32,6.85-.51,8,1.7A4.91,4.91,0,0,0,144.4,95.12Z"/><path class="cls-74" d="M196.78,34.18c-6.87-7.14-1.67,16.91-6.3,33.36l4.62,5,9.7-3C202.23,55.61,199.64,42.14,196.78,34.18Z"/><path class="cls-79" d="M128.26,84c-5.71,6.49-13.87,5.9-24-.37C115.15,89.12,122.79,88.58,128.26,84Z"/><path class="cls-79" d="M181.87,85.73c-6.76,8.4-16.4,9.75-29.58,2.4Q169,96.37,181.87,85.73Z"/><path class="cls-87" d="M197,111c5.71,3.38,2.27,7.86,2.27,7.86-.53-3.18-4.09-4.2-8.67-4.48C190.59,114.35,193.74,109.57,197,111Z"/><path class="cls-87" d="M165.94,98.54c6-3.48,11.41,0,12,6C176.21,99.77,171.77,96.22,165.94,98.54Z"/><path class="cls-68" d="M119.05,130.34A105.68,105.68,0,0,1,137.9,141a52.07,52.07,0,0,1-16.61-4.65S119.15,134.58,119.05,130.34Z"/><path class="cls-68" d="M180.13,136.08l1-4.39a53.87,53.87,0,0,0-18.74,9.86A59.25,59.25,0,0,0,180.13,136.08Z"/><path class="cls-101" d="M166.38,105.17c6.69,26.92-27.8,21.65-27.8,21.65.52-8.39-4.27-17-4.27-17S153.69,111.62,166.38,105.17Z"/><path class="cls-85" d="M166.38,105.17a7,7,0,0,1-1.34,4.38,6.51,6.51,0,0,1-1.78,1.63c-.61-1.39-2.06-1.65-3.59-1.3-1.74.4-2.89,1.58-2.5,3.31a3.24,3.24,0,0,0,.14.44c-5.34,1.57-15,3.08-27.22.91l-2.4-5.41S153.69,111.62,166.38,105.17Z"/><path class="cls-72" d="M126.1,108.75c4,3.07,36.34.63,40.28-3.58-5.91,3-28.73,5.41-37.92,3,0,0,1.68-1.8,1.41-3.19A19,19,0,0,1,126.1,108.75Z"/><path class="cls-77" d="M166.95,114.45s-.81,13.35-22.55,12.8C144.39,127.25,146.59,114.05,166.95,114.45Z"/><path class="cls-72" d="M169.46,107.28a13.29,13.29,0,0,0-5.44-4.16c-.64-.29-1.2.66-.56,1a12.32,12.32,0,0,1,5,3.76c.41.57,1.36,0,1-.56Z"/><path class="cls-72" d="M163.08,133.06a14.12,14.12,0,0,1-6.31,4.61,10.12,10.12,0,0,1-6.86-.38c-1.67-.69-3.82-2.07-3.62-4.13,0-.32-.28-.52-.55-.55-3.48-.45-8.93-2.24-10-6.41l-.68.68a54.33,54.33,0,0,0,13.19.72c6.52-.41,14.24-2.19,17.72-8.33,2.4-4.22,2.05-9.3,1-13.85-.17-.69-1.23-.4-1.06.29,1,4.09,1.38,8.66-.59,12.53a13.71,13.71,0,0,1-7.23,6.22c-5.69,2.34-12.25,2.42-18.29,1.9-1.47-.13-3-.28-4.41-.55a.56.56,0,0,0-.68.68c1.23,4.65,6.78,6.66,11.09,7.22l-.55-.55c-.47,4.67,6.71,6.37,10.1,6s6.67-2.78,8.74-5.51c.43-.57-.53-1.11-1-.56Z"/><path class="cls-66" d="M108,203.61,100.52,202s-3.15-25.84,14.16-27.58l3,3.73S109,184.88,108,203.61Z"/><path class="cls-69" d="M87.74,173.34s7.55-7,23.44-3.51a8.88,8.88,0,0,1,.69-5.54s-14.31-5.69-24,2.15A28,28,0,0,0,87.74,173.34Z"/><path class="cls-66" d="M233.76,101.6c-.12-4.17,3.34-7.71,3.9-11.83.38-2.78-1.16-4.27-3.87-4.35-6.59-.2-11.38,5.35-11.47,11.65a.41.41,0,0,0,.83,0c.08-5.86,4.52-11,10.64-10.82,1.43,0,2.82.47,3.08,2.06a9,9,0,0,1-.86,4.32c-1.1,2.93-3.17,5.74-3.08,9a.41.41,0,0,0,.83,0Z"/><path class="cls-69" d="M219.57,121.4c8-1.09,15.08.69,15.72,5.07.56,3.86-4.87,8.1-12.88,9.18s-15.85-1.43-16.38-5.3S211.57,122.49,219.57,121.4Z"/><path class="cls-86" d="M233.3,101.9a8.82,8.82,0,0,1,.91-4.21c2.08-4.46,5.29-10.71,1-11.69s-12.49,2.3-12.45,11.24l-1.28-.07a19.84,19.84,0,0,0-13.73,5,7.28,7.28,0,0,0-2.45,5.18,5.17,5.17,0,0,0,1,3.39c-1.22.72-3,6.83-.06,9.46h0a10.19,10.19,0,0,0-.86,4.2c.12,1,.45,3.82,2.16,5.37,4.93,4.46,23.83,7.46,26.56-6.64a83,83,0,0,0,1-14.11A12.65,12.65,0,0,0,233.3,101.9Z"/><path class="cls-79" d="M234.08,86.19a22.31,22.31,0,0,1-2.29,8.39,38.33,38.33,0,0,0-2.1,4,36.15,36.15,0,0,0-.25,12.9c1.17,6.88.71,17.42-3.06,20.93,0,0,8.69-1,8.63-18.64,0,0,.18-2.24.17-5.28,0-1.91-.56-5.8-1.83-6.88,0,0,1-4.68,1.75-5.8S240.3,86.43,234.08,86.19Z"/><path class="cls-66" d="M206,120.1a9.49,9.49,0,0,0,.62,9c1.22,1.77,3.51,2.72,5.48,3.39,5.11,1.75,11.41,2.07,16.24-.67,7-4,7-13.06,7.11-20.16.06-3.77.12-8-2.51-11-2.08-2.38-5.25-3.26-8.28-3.62A22.48,22.48,0,0,0,210,100.09c-3.44,2.14-7,6.81-3.92,10.77.21.28.69,0,.48-.28-3.4-4.42,1.57-9,5.27-10.89a21.94,21.94,0,0,1,12.39-2.19c3,.31,6.27,1.11,8.33,3.5,2.59,3,2.42,7.25,2.35,11-.12,6.51,0,14.86-6.11,18.9-4.18,2.77-9.75,2.8-14.46,1.66a16.44,16.44,0,0,1-6.15-2.63c-2.93-2.26-2.86-6.53-1.64-9.64.13-.33-.4-.47-.53-.15Z"/><path class="cls-66" d="M218.37,108.62c-3.77-.7-8.49-.6-11.81,1.61-1.83,1.22-2.25,4.28-2.15,6.31s1,4,3.23,4.25a29.07,29.07,0,0,0,10.31-.57c.34-.08.2-.62-.15-.53a30.12,30.12,0,0,1-8,.69,9.65,9.65,0,0,1-3-.3c-1.34-.52-1.76-2.26-1.82-3.55-.09-1.9.28-4.88,2.08-5.95,3.28-1.94,7.53-2.12,11.19-1.44.35.06.5-.47.15-.53Z"/><path class="cls-69" d="M92,154.65s6.4-1.54,20.87,8a13.16,13.16,0,0,1,2-2.08S106.74,150.2,96,149.84A30.77,30.77,0,0,0,92,154.65Z"/><path class="cls-69" d="M200.73,142s.94,14.4,9.48,22.22a26.49,26.49,0,0,0,7.28-3.37s-7-4.15-14.3-21.08Z"/></svg>