<svg id="Layer_1" data-name="Layer 1" xmlns="http://www.w3.org/2000/svg" xmlns:xlink="http://www.w3.org/1999/xlink" viewBox="0 0 872.31 872.31"><defs><style>.cls-1{fill:none;}.cls-2{clip-path:url(#clip-path);}.cls-3{fill:#ffdfb8;}.cls-4{fill:#635245;}.cls-5{fill:#3d342d;}.cls-6{opacity:0.05;}.cls-7{fill:#515e3f;}.cls-11,.cls-8{opacity:0.25;}.cls-9{fill:#d73c3a;}.cls-10{fill:#aae3ff;}.cls-11,.cls-13{fill:#9b070b;}.cls-12{fill:#00728e;}.cls-12,.cls-23{opacity:0.1;}.cls-13,.cls-25{opacity:0.5;}.cls-14{clip-path:url(#clip-path-2);}.cls-15{fill:#420d12;}.cls-16{fill:#f6c785;}.cls-17{fill:#ba2b32;}.cls-18{fill:#e5aa6a;}.cls-19{fill:#333131;}.cls-20{fill:#e65253;}.cls-21,.cls-22,.cls-25{fill:#fff;}.cls-22{opacity:0.08;}.cls-24{fill:#cdd9e8;}.cls-26{fill:#fff8e6;}</style><clipPath id="clip-path"><circle class="cls-1" cx="435.16" cy="436.16" r="431.18"/></clipPath><clipPath id="clip-path-2"><circle class="cls-1" cx="392.28" cy="367.81" r="279.84"/></clipPath></defs><title>godin_recortada</title><g class="cls-2"><path class="cls-3" d="M656.67,459.76s34.79,6.18,20.76,38.36c-9.74,22.36-42.71,10.5-42.71,10.5S650.76,483.73,656.67,459.76Z"/><polygon class="cls-4" points="829.65 494.17 842.08 505.4 701.11 716.57 619.6 666.43 653.91 619.57 679.91 633.88 742.59 542.43 714.53 522.66 746.19 477.42 800.83 468.14 821.48 486.79 873.87 409.43 882.43 415.81 829.65 494.17"/><polygon class="cls-5" points="656.91 689.39 619.6 666.43 653.91 619.57 679.91 633.88 742.59 542.43 714.53 522.66 746.19 477.42 800.83 468.14 759.75 526.21 777.17 542.85 703.54 652.56 688.45 643.31 656.91 689.39"/><path class="cls-3" d="M695,611.92s-11.74-50.75,13.33-66.11,31,5.71,31,5.71,8.66,16.25-14.13,33.81S695,611.92,695,611.92Z"/><path class="cls-3" d="M173.08,863.64c9.14-3.82,28.25-4.48,44.5,0L215.24,892C182.15,915.88,210,947.8,210,947.8s90,6.25,95.58,28c4.29,13.53,3.2,53.32-59.59,61.66,4.77,32.54-26.84,42.77-36.5,43.37,1.31,9.67-3,29.36-28.16,29.56-17.17-3.4-47.93-18-80.12-46.54C101.15,1063.89,85.11,900.44,173.08,863.64Z"/><g class="cls-6"><path d="M144.73,882.81a87.59,87.59,0,0,1,28.35-19.17c9.14-3.82,28.25-4.48,44.5,0L215.24,892C182.15,915.88,210,947.8,210,947.8s90,6.25,95.58,28c0,0,2.51,6.55,1,17.08,0,0-43.89,2.35-106.8-18.69C126.1,949.61,144.73,882.81,144.73,882.81Z"/></g><path class="cls-3" d="M877.06,578.31c-2.78-33.67-35.2-71.39-60.28-78.05s-38.75,16.17-33.23,33c0,0-20.64-5.74-32.54,9.78s0,36.66,0,36.66c-12.09-6.38-29.94,6.16-28.24,24.55C725.56,634.38,747,644.59,745,663l-4.1,7.07,5.4,6.55c14,3,48-.87,93-40.35C872.4,607.18,877.06,578.31,877.06,578.31Z"/><g class="cls-6"><path d="M783.56,533.22S804.81,535.42,823,564v-5s-14.7-25.31-40.15-28.38A13.19,13.19,0,0,0,783.56,533.22Z"/></g><g class="cls-6"><path d="M749.32,576.06s28.39,16.46,36.89,39.84l-.86,1.13S774.87,597.21,751,579.66Z"/></g><path class="cls-7" d="M535.24,621.07c45.34,5.67,88.84,141.79,166.34,133.47,66-7.08,44.7-77.89,44.7-77.89s82.54-5.84,131-98.53c0,0,98.84,274-138.75,313.53,0,0-2,17.85-17.07,17.07s-15.64-17.85-15.64-17.85S593,860.4,547.82,755l7.33,141.43,12,18.59a14.78,14.78,0,0,1,2.28,9.87c-1,7.54-5.1,20-21.61,24.19-24.3,6.23-164.65,61.68-337.87-1.25,0,0-23.83-26.17-3-48.49l8.29-7.26L230,712.81s-89.43-5.23-56.9,150.83c0,0-75.38,100.18-64.44,206.51,0,0-129.11-123.76-75.32-313.79,0,0-12.41-8.92-5.35-22.21s22.09-4.42,22.09-4.42,66.09-103.38,197.69-105.55Z"/><path class="cls-8" d="M701.59,754.54c66-7.08,44.7-77.89,44.7-77.89s7.4.14,21.64-4.16c0,0,12.14,60.68-23.91,79.64-53.35,28.05-86.28-8.42-86.28-8.42C683.66,758.72,701.59,754.54,701.59,754.54Z"/><path class="cls-8" d="M543,629.05,463.83,731.59l-15-19-23.52,34.57L417,902.32l-11.44,10.28-45.2-56.89,25.88-120.16L374.42,710l-8.93,23.17s-92.24-26.78-136.07-106l14.6-.53,21-10.28,264.22,7.19S535.14,624,543,629.05Z"/><path class="cls-9" d="M398.44,663l-17.07,43.62,14.47,32L379,845.39l44.91,58.21,43-53.49L449.1,738.39l17.82-34.29L443.5,667.81S425.72,668.24,398.44,663Z"/><path class="cls-10" d="M445,670.79s64.89-49.85,85.05-75.94c0,0,18.05,13.77,21.08,31.88l-74.23,97.66L445,670.79"/><polygon class="cls-11" points="398.44 663.03 381.37 706.65 395.83 738.65 378.96 845.39 423.87 903.6 440.24 883.26 402.34 827.94 415.37 738.95 405.63 700.98 412.04 665.63 398.44 663.03"/><path class="cls-10" d="M377,722.7s-95.36-29.37-134.51-101.48l27.18-25.05S384.73,658.9,398.44,663Z"/><path class="cls-12" d="M391.31,682.84s-90.71-4.25-139.87-69.9l18.2-16.78S384.73,658.9,398.44,663Z"/><circle class="cls-9" cx="392.28" cy="367.81" r="279.84"/><path class="cls-13" d="M169.78,198.06s-57.54,74.16-57.34,169.74c.32,154.55,125.29,279.84,279.84,279.84A279.59,279.59,0,0,0,625.88,522S201.76,658.53,169.78,198.06Z"/><path class="cls-3" d="M529.36,539,509,609.48S526.64,699,385.7,661.7c-71-18.82-72.77-102.26-72.77-102.26s-6.31-34.93,52.35-40.24C365.29,519.19,467,511.74,529.36,539Z"/><g class="cls-14"><path class="cls-15" d="M390.35,653.63c-2,0-4,0-6-.06l0-1.7c2,0,4,.06,5.94.06Zm1.09,0v-1.7c2,0,4,0,5.93-.08l0,1.7C395.43,653.59,393.42,653.62,391.44,653.63Zm-13-.23c-2-.08-4-.17-6-.29l.1-1.7c2,.11,4,.21,5.93.28Zm25,0-.07-1.7c2-.08,4-.19,5.93-.31l.1,1.7C407.35,653.17,405.35,653.27,403.37,653.35Zm-36.87-.64c-2-.15-4-.33-5.95-.52l.17-1.69c1.95.19,3.94.37,5.91.52Zm48.78-.09-.14-1.69c2-.16,4-.34,5.91-.54l.17,1.69C419.27,652.28,417.27,652.46,415.28,652.62Zm-60.67-1.08c-2-.24-4-.5-5.92-.78l.24-1.68c1.92.27,3.9.53,5.88.77Zm72.54-.11-.2-1.69c2-.24,3.95-.49,5.88-.77l.24,1.68C431.13,650.93,429.14,651.19,427.16,651.43Zm-84.37-1.58c-2-.34-4-.7-5.88-1.07l.33-1.67c1.85.37,3.81.72,5.83,1.06Zm96.18-.08-.27-1.68q2.71-.44,5.41-.92l.44-.08.31,1.67-.45.08Q441.7,649.33,439,649.77Zm11.74-2.13-.34-1.67c1.93-.39,3.88-.81,5.8-1.24l.37,1.66C454.62,646.83,452.66,647.25,450.72,647.64ZM331,647.48l-1.91-.49-1.47-1.47c-.11-.11-.7-.7-1.65-1.77l1.27-1.13c.91,1,1.47,1.59,1.57,1.69l1.15,1.14,1.46.38ZM462.36,645l-.41-1.65c1.92-.47,3.85-1,5.75-1.48l.44,1.64C466.24,644.05,464.29,644.55,462.36,645Zm11.53-3.09-.47-1.63c1.89-.55,3.8-1.13,5.68-1.72l.51,1.62C477.71,640.8,475.79,641.38,473.89,641.93Zm-151.68-2.84c-1.17-1.53-2.35-3.17-3.51-4.87l1.4-1c1.14,1.67,2.3,3.28,3.46,4.79Zm163.07-.74-.54-1.61c1.87-.63,3.75-1.29,5.6-2l.58,1.6C489.06,637.06,487.16,637.72,485.28,638.36Zm11.22-4.06-.61-1.59c1.84-.71,3.69-1.45,5.51-2.2l.65,1.57C500.22,632.84,498.35,633.58,496.5,634.3Zm11-4.54-.68-1.56c1.8-.79,3.62-1.61,5.41-2.44l.71,1.54C511.19,628.14,509.36,629,507.54,629.75Zm-192.1-.56c-1-1.67-2-3.41-3-5.17l1.48-.83c1,1.74,2,3.45,3,5.1Zm202.93-4.46-.75-1.53c1.76-.86,3.54-1.76,5.3-2.67l.78,1.51C521.94,623,520.15,623.86,518.37,624.73Zm-208.77-6c-.89-1.76-1.76-3.57-2.6-5.39l1.55-.71c.83,1.8,1.69,3.59,2.57,5.33ZM529,618.55l-1.56-.67.69-1.59a10.29,10.29,0,0,0,.74-3.8l1.7,0a12,12,0,0,1-.88,4.43ZM304.61,607.87c-.76-1.82-1.49-3.7-2.19-5.57l1.59-.59c.69,1.85,1.42,3.7,2.17,5.51ZM528,606.95q-.1-.3-.22-.6l-.1-.28,1.67-5.32,1.62.51L529.45,606l.13.38ZM300.43,596.67c-.63-1.88-1.23-3.79-1.8-5.7l1.63-.48c.56,1.89,1.16,3.79,1.78,5.65Zm232.29-1.09-1.62-.51,1.78-5.68,1.62.51ZM297,585.21c-.5-1.91-1-3.86-1.43-5.8l1.66-.38c.44,1.92.92,3.86,1.41,5.75Zm239.27-1-1.62-.51,1.78-5.68,1.62.51ZM294.36,573.55c-.36-2-.66-4-.88-5.94l1.69-.19c.22,1.91.5,3.87.86,5.83Zm245.48-.68-1.62-.51,1.78-5.68,1.62.51ZM293,561.61q0-1.35-.05-2.71c0-1.11,0-2.22.08-3.31l1.7.08c-.05,1.06-.08,2.14-.08,3.23q0,1.33,0,2.65Zm250.37-.1-1.62-.51,1.78-5.68,1.62.51ZM547,550.15l-1.62-.51,1.78-5.68,1.62.51Zm-251.64-.32-1.68-.24a55.38,55.38,0,0,1,1.19-5.92l1.65.43A53.71,53.71,0,0,0,295.31,549.83Zm255.2-11-1.62-.51,1.78-5.68,1.62.51Zm-252.24-.25-1.58-.62a46.53,46.53,0,0,1,2.58-5.48l1.49.82A44.86,44.86,0,0,0,298.27,538.54Zm5.65-10.18-1.36-1q.47-.63,1-1.25c.94-1.16,1.94-2.29,3-3.35l1.21,1.19a43.06,43.06,0,0,0-2.87,3.22Q304.37,527.75,303.92,528.36Zm249.36-.57-5.69-.33.1-1.7,6.78.4-.4,1.28-.75-.24Zm-11.63-.68-5.94-.35.1-1.7,5.94.35Zm-11.88-.7-5.94-.35.1-1.7,5.94.35Zm-11.88-.7-5.94-.35.1-1.7L518,524ZM506,525l-5.94-.35.1-1.7,5.94.35Zm-11.88-.7-5.94-.35.1-1.7,5.94.35Zm-11.88-.7-5.94-.35.1-1.7,5.94.35Zm-11.88-.7-5.94-.35.1-1.7,5.94.35Zm-11.88-.7-5.94-.35.1-1.7,5.94.35Zm-11.88-.7-5.94-.35.1-1.7,5.94.35Zm-11.88-.7-5.94-.35.1-1.7,5.94.35Zm-11.88-.7-5.94-.35.1-1.7,5.94.35Zm-110.76-.06-1-1.35a42.43,42.43,0,0,1,5.06-3.36l.84,1.48A40.82,40.82,0,0,0,312.08,520.06Zm98.88-.64-5.94-.35.1-1.7,5.94.35Zm-11.88-.7-5.94-.35.1-1.7,5.94.35Zm-11.88-.7-5.94-.35.1-1.7,5.94.35Zm-11.88-.7-5.94-.35.1-1.7,5.94.35Zm-11.88-.7-5.94-.35.1-1.7,5.94.35Zm-11.88-.7-5.94-.35.1-1.7,5.94.35Zm-11.88-.7-5.94-.35.1-1.7,5.94.35Zm-11.88-.7-5-.29-.63.21-.54-1.61.94-.31,5.28.31Z"/></g><path class="cls-16" d="M522.69,613.93s1.14-2.65-1.41-7.47l23-73.25-220.61-13s-30.61,10.2-21.25,54.41,30.68,65.43,30.68,65.43S427.69,664.48,522.69,613.93Z"/><path class="cls-17" d="M390.38,647.25c-34.26,0-57.4-5.86-57.64-5.92l-.34-.09-.25-.24c-.22-.22-21.71-22-31-66.07-2.72-12.87-3.65-31.1,7.37-44.84a35.06,35.06,0,0,1,14.73-11l.23-.08h.24L545.95,532l-23.29,74.31c2.44,4.91,1.34,7.77,1.21,8.09l-.18.41-.4.21c-49.3,26.23-98.47,32-131,32.19Zm-56.66-8.3c3,.73,25.93,6,58.61,5.75,32.15-.21,80.63-5.88,129.27-31.63.14-.81.22-2.87-1.44-6l-.25-.47,22.62-72.2L323.82,521.54a33.65,33.65,0,0,0-13.42,10.25c-8.16,10.25-10.51,25-6.78,42.61C312.26,615.24,331.37,636.46,333.72,638.95Z"/><path class="cls-18" d="M390.44,641.73V640c2,0,4,0,5.93-.06l0,1.7C394.43,641.7,392.42,641.73,390.44,641.73Zm-.09,0c-2,0-4,0-6-.06l0-1.7c2,0,4,.06,5.93.06Zm-11.93-.24c-2-.08-4-.18-6-.3l.1-1.7c2,.12,4,.22,5.93.3Zm24,0-.07-1.7c2-.08,4-.18,5.93-.3l.1,1.7C406.37,641.29,404.36,641.4,402.37,641.48Zm-35.87-.72c-2-.16-4-.35-5.95-.55l.17-1.69c2,.2,3.94.39,5.91.55Zm47.79,0-.14-1.69c2-.16,3.95-.34,5.91-.54l.17,1.69C418.26,640.4,416.26,640.58,414.29,640.75Zm-59.67-1.21c-2-.25-4-.52-5.92-.81L349,637c1.93.29,3.9.56,5.88.81Zm71.54,0-.21-1.69c2-.24,3.94-.5,5.88-.78l.24,1.68C430.13,639,428.14,639.29,426.17,639.53Zm11.82-1.7-.28-1.68c1.95-.32,3.91-.67,5.84-1l.31,1.67C441.92,637.16,439.94,637.51,438,637.83Zm-95.18-.07c-2.09-.37-4.06-.75-5.87-1.14l.35-1.66c1.79.38,3.75.76,5.82,1.13Zm106.91-2.11-.35-1.66c1.92-.4,3.87-.83,5.8-1.27l.38,1.66C453.62,634.81,451.65,635.24,449.72,635.65ZM461.35,633l-.42-1.65c1.91-.48,3.84-1,5.74-1.52l.45,1.64C465.22,632,463.27,632.48,461.35,633Zm-129.18-.48c-1.17-1.51-2.36-3.15-3.52-4.86l1.4-1c1.15,1.68,2.31,3.29,3.46,4.78Zm140.68-2.7-.49-1.63c1.88-.56,3.79-1.16,5.66-1.77l.52,1.62C476.67,628.62,474.76,629.22,472.86,629.79Zm11.36-3.68-.56-1.61c1.87-.65,3.74-1.33,5.58-2l.6,1.59C488,624.77,486.1,625.45,484.22,626.11ZM325.4,622.59c-1-1.68-2-3.42-3-5.18l1.49-.82c1,1.74,2,3.46,3,5.12Zm170-.67-.63-1.58c1.83-.73,3.67-1.49,5.48-2.27l.67,1.56C499.1,620.42,497.24,621.19,495.4,621.92Zm11-4.69-.7-1.55c1.79-.81,3.6-1.66,5.37-2.52l.74,1.53C510,615.56,508.18,616.42,506.38,617.23ZM319.63,612.1c-.87-1.77-1.73-3.59-2.54-5.42l1.55-.69c.8,1.81,1.65,3.61,2.51,5.36Zm197.5-.06-.77-1.51.21-.11a11.44,11.44,0,0,0-.54-1.17l-1.16-2.2.31-1,1.62.51-.1.32.83,1.57a11.76,11.76,0,0,1,.9,2.14l.2.67ZM314.77,601.17c-.73-1.84-1.44-3.72-2.11-5.6l1.6-.57c.66,1.86,1.36,3.72,2.09,5.54Zm203.81-.28-1.62-.51,1.78-5.68,1.62.51Zm-207.83-11c-.59-1.88-1.16-3.81-1.69-5.74l1.64-.45c.53,1.91,1.09,3.82,1.68,5.68Zm211.39-.36-1.62-.51,1.78-5.68,1.62.51ZM307.57,578.37c-.36-1.51-.71-3-1-4.58q-.13-.64-.26-1.26l1.67-.33q.12.61.25,1.23c.32,1.52.67,3,1,4.54Zm218.13-.19-1.62-.51,1.78-5.68,1.62.51Zm3.56-11.36-1.62-.51,1.78-5.68,1.62.51Zm-223.92-.23c-.24-2-.4-4.07-.45-6l1.7,0c.05,1.89.2,3.86.44,5.86Zm227.48-11.13-1.62-.51,1.78-5.68,1.62.51Zm-226.09-.78-1.69-.14a46.74,46.74,0,0,1,.87-6l1.66.36A45.12,45.12,0,0,0,306.72,554.68ZM536.38,544.1l-1.62-.51,1.78-5.68,1.62.51Zm-227.18-.77-1.59-.6a35.4,35.4,0,0,1,2.64-5.49l1.46.87A33.66,33.66,0,0,0,309.19,543.33Zm222.49-4.89-5.94-.35.1-1.7,5.94.35Zm-11.88-.7-5.94-.35.1-1.7,5.94.35Zm-11.88-.7L502,536.7l.1-1.7,5.94.35Zm-11.88-.7L490.1,536l.1-1.7,5.94.35Zm-11.88-.7-5.94-.35.1-1.7,5.94.35Zm-11.88-.7-5.94-.35.1-1.7,5.94.35Zm-11.88-.7-5.94-.35.1-1.7,5.94.35Zm-11.88-.7-5.94-.35.1-1.7,5.94.35Zm-133.41-.12-1.28-1.12a31.87,31.87,0,0,1,4.46-4.18l1,1.35A30.21,30.21,0,0,0,315.1,533.43Zm121.53-.57-5.94-.35.1-1.7,5.94.35Zm-11.88-.7-5.94-.35.1-1.7,5.94.35Zm-11.88-.7-5.94-.35.1-1.7,5.94.35Zm-11.88-.7-5.94-.35.1-1.7,5.94.35Zm-11.88-.7-5.94-.35.1-1.7,5.94.35Zm-11.88-.7-5.94-.35.1-1.7,5.94.35Zm-11.88-.7-5.94-.35.1-1.7,5.94.35Zm-11.88-.7-5.94-.35.1-1.7,5.94.35Zm-11.88-.7-5.94-.35.1-1.7,5.94.35Zm-11.88-.7-5.1-.3-.38.17-.73-1.54.61-.28.19-.08,5.5.32Z"/><path class="cls-3" d="M529.36,539,509,609.48S526.64,699,385.7,661.7c-71-18.82-72.77-102.26-72.77-102.26s-6.31-34.93,52.35-40.24C365.29,519.19,467,511.74,529.36,539Z"/><path class="cls-16" d="M462.51,322.11C475,202.72,483.63,171.25,483.63,171.25l58.51-2.39L543.6,178s-22.6,3-20.5,11.53c24.21,99,33.16,142.59,37.52,160.66a11,11,0,0,0,2.18,4.41,27.67,27.67,0,0,0,18.4,9.78l3.07,9.54-68.33.08,2.54-8.79s17.21-4.66,18.31-11.25c.95-5.69-17.27-85.58-36.15-165.12l-3.8.27-22,166.28-23.7,1c-20.76-81.21-61.43-166.52-61.43-166.52l-2.83.37-9.14,163.48c1.24,6,26.91,11.88,26.91,11.88l-.18,9.88-86,2.21.18-10.43s24.67-7.64,26.73-11.76c8.29-16.58,19.53-160.73,19.53-160.73-.27-10-19.63-11.25-19.63-11.25l.55-8.65,52.86-2.53C434.71,239.1,462.51,322.11,462.51,322.11Z"/><path class="cls-17" d="M317.16,379l.22-12.69.88-.27c11.87-3.68,24.83-8.84,26-11.11,8-16,19.09-156.34,19.39-160.19-.13-3.52-3.16-6.25-9-8.13a44.6,44.6,0,0,0-9.45-1.82l-1.27-.08.7-11.06,54.8-2.63.38.71c30.41,56.29,55.21,124.9,62.06,144.49,12-113.45,20.47-145,20.55-145.35l.25-.9,60.57-2.47,1.85,11.57-1.3.17c-4.26.56-16,3-18.89,7.25a3.22,3.22,0,0,0-.54,2.71c17.37,71,26.83,113.3,32.49,138.57,2.21,9.87,3.8,17,5,22.1a9.7,9.7,0,0,0,1.93,3.9,26.44,26.44,0,0,0,17.57,9.32l.81.1,3.86,12-71.78.08,3.21-11.11.69-.19c6.35-1.72,16.68-6,17.38-10.22.76-4.54-12.65-65.66-35.88-163.56l-1.68.12L476,356.65l-25.8,1.09-.26-1c-19.4-75.9-56.71-156.4-61-165.45l-.86.11L379,353.63c1,3.27,13.85,8,25.91,10.76l1,.23-.22,12.14Zm2.74-10.8-.14,8.18,83.48-2.15.14-7.63c-6.06-1.44-25.61-6.52-26.86-12.63l0-.16v-.17l9.2-164.54,4.8-.62.4.83c.41.85,40.63,85.65,61.26,165.75l21.6-.91,22-166.25,5.92-.43.25,1.06c14,58.95,37.3,158.85,36.17,165.63-1.1,6.62-14.91,11-18.53,12.07l-1.87,6.47,64.89-.08-2.29-7.11a28.89,28.89,0,0,1-18.42-10.13,12.23,12.23,0,0,1-2.44-4.92c-1.24-5.12-2.83-12.26-5-22.14-5.65-25.26-15.11-67.54-32.47-138.52a5.72,5.72,0,0,1,.91-4.76c3.54-5.17,15.38-7.5,19.37-8.15l-1.08-6.76-56.42,2.3c-1.45,5.93-9.67,42.51-20.85,149.76l-.61,5.85-1.87-5.58c-.28-.83-28-83.08-63.38-148.83L347,176.13l-.4,6.27c4.52.49,19.29,2.81,19.56,12.38v.13c-.46,5.9-11.35,144.59-19.66,161.2C344.44,360.24,325.57,366.45,319.9,368.24Z"/><path class="cls-18" d="M321.92,374.24l.08-4.44.57-.19,2.81-.94.55,1.61-2.26.76,0,1.46,2.09-.05,0,1.7Z"/><path class="cls-18" d="M331.42,368.34l-.59-1.6,1.6-.6c1.38-.52,2.63-1,3.78-1.48l.64,1.57c-1.16.47-2.43,1-3.82,1.5Zm10.79-4.47-.75-1.53a28.16,28.16,0,0,0,4.83-2.85l1,1.34A29.76,29.76,0,0,1,342.2,363.87Zm8.59-8.15-1.6-.57a56.13,56.13,0,0,0,1.57-5.51l1.65.4A58,58,0,0,1,350.79,355.73Zm2.86-11.41L352,344c.34-1.75.7-3.67,1.05-5.7l1.68.29C354.35,340.63,354,342.56,353.65,344.32Zm2-11.49-1.68-.26q.44-2.77.87-5.74l1.68.25Q356.1,330,355.66,332.82Zm1.69-11.52-1.68-.23q.39-2.82.77-5.76l1.69.22Q357.74,318.48,357.35,321.3Zm1.51-11.54-1.69-.21q.35-2.84.71-5.76l1.69.2Q359.22,306.92,358.86,309.77Zm1.39-11.55-1.69-.2q.33-2.86.66-5.77l1.69.19Q360.58,295.35,360.25,298.22Zm1.3-11.56-1.69-.18q.31-2.87.62-5.77l1.69.18Q361.86,283.78,361.54,286.66Zm1.23-11.56-1.69-.17q.3-2.89.59-5.78l1.69.17Q363.07,272.2,362.77,275.1Zm1.17-11.57-1.69-.17q.29-2.91.56-5.78l1.69.16Q364.22,260.62,363.94,263.53ZM365.06,252l-1.69-.16q.28-2.93.54-5.78l1.69.16Q365.33,249,365.06,252Zm1.08-11.58-1.69-.15q.27-2.95.52-5.79l1.69.15Q366.4,237.43,366.13,240.38Zm1-11.58-1.69-.15q.26-3,.51-5.79l1.69.15Q367.43,225.81,367.17,228.8Zm1-11.59-1.69-.14.49-5.8,1.69.14Zm1-11.6-1.69-.14c.18-2.22.34-4.17.47-5.81l1.69.14C369.48,201.44,369.32,203.39,369.14,205.61ZM368.25,194a10.53,10.53,0,0,0-1.76-5l1.41-.95a12.21,12.21,0,0,1,2,5.81Zm-5.67-8.78a24.63,24.63,0,0,0-5-2.51l.6-1.59a26.35,26.35,0,0,1,5.35,2.68Z"/><path class="cls-18" d="M352.49,181.21c-.93-.21-1.9-.4-2.87-.56l-.76-.12.15-2.37,3.73-.18.07,1.56h0Z"/><path class="cls-18" d="M358.6,179.4l-.08-1.7,5.78-.28.08,1.7Zm11.55-.55-.08-1.7,5.78-.28.08,1.7Zm11.55-.55-.08-1.7,5.78-.28.08,1.7Z"/><path class="cls-18" d="M396.83,179.77l-1.14-2.15-2.43.12-.08-1.7,3.51-.17.25.47,1.4,2.63Z"/><path class="cls-18" d="M461.12,334l-1.9-5.66,1.61-.54,1.9,5.66Zm-3.8-11.33c-.38-1.1-1-3-2-5.65l1.6-.56c.93,2.64,1.59,4.57,2,5.67Zm-4-11.29c-.62-1.72-1.29-3.6-2-5.62l1.6-.58c.74,2,1.42,3.91,2,5.63Zm-4.09-11.23q-1-2.68-2.08-5.6l1.59-.6q1.09,2.92,2.09,5.61ZM445.08,289q-1-2.71-2.14-5.58l1.59-.61q1.1,2.87,2.14,5.59Zm-4.3-11.15q-1.06-2.73-2.18-5.56l1.58-.63q1.12,2.83,2.19,5.57Zm-4.4-11.11q-1.1-2.73-2.24-5.54l1.57-.64q1.14,2.81,2.24,5.55Zm-4.5-11.07q-1.13-2.73-2.29-5.52l1.57-.66q1.17,2.79,2.29,5.52Zm-4.61-11q-1.16-2.73-2.35-5.49l1.56-.67q1.19,2.77,2.35,5.5Zm-4.72-11q-1.19-2.72-2.41-5.46l1.55-.69q1.22,2.75,2.41,5.47Zm-4.85-10.91q-1.22-2.71-2.47-5.43l1.55-.71q1.25,2.73,2.48,5.44Zm-5-10.85q-1.26-2.71-2.55-5.42l1.54-.73q1.29,2.71,2.56,5.43Zm-5.14-10.81q-1.3-2.69-2.62-5.36l1.52-.75q1.33,2.68,2.63,5.38Zm-5.29-10.7q-1.34-2.66-2.71-5.31l1.51-.78q1.37,2.65,2.71,5.32Z"/><polygon class="cls-18" points="465.15 346.04 462.96 339.5 464.16 339.09 464.17 339 464.38 339.02 464.57 338.96 464.6 339.05 465.86 339.18 465.15 346.04"/><path class="cls-18" d="M466.49,333.2,464.8,333l.62-6,1.69.18Zm1.25-12-1.69-.18q.32-3,.63-6l1.69.18Q468,318.22,467.73,321.24ZM469,309.29l-1.69-.18q.33-3,.65-6l1.69.19Q469.33,306.27,469,309.29Zm1.31-11.94-1.69-.19q.34-3,.67-6l1.69.19Q470.65,294.32,470.31,297.35Zm1.35-11.94-1.69-.19q.35-3,.69-6l1.69.2Q472,282.38,471.66,285.41Zm1.4-11.93-1.69-.2q.36-3,.72-6l1.69.21Q473.42,270.44,473.06,273.48Zm1.45-11.93-1.69-.21q.38-3,.75-6l1.69.21Q474.89,258.51,474.51,261.55ZM476,249.63l-1.69-.22q.4-3.05.78-6l1.69.22Q476.42,246.58,476,249.63Zm1.58-11.91-1.68-.23q.42-3.06.82-6l1.68.23Q478,234.67,477.61,237.72Zm1.66-11.9-1.68-.24q.44-3.08.87-5.95l1.68.25Q479.71,222.75,479.27,225.83ZM481,213.95l-1.68-.26q.47-3.11.92-5.94l1.68.26Q481.49,210.85,481,213.95Zm1.87-11.86-1.68-.28q.52-3.16,1-5.93l1.68.29Q483.41,198.94,482.89,202.09Zm2-11.83-1.67-.3c.4-2.2.77-4.17,1.1-5.91l1.67.32C485.69,186.11,485.32,188.07,484.93,190.26Z"/><path class="cls-18" d="M487.21,178.44l-1.66-.35c.24-1.15.45-2.12.63-2.92l.14-.64,3.62-.15.07,1.7-2.32.09C487.56,176.84,487.39,177.59,487.21,178.44Z"/><path class="cls-18" d="M496.53,175.83l-.07-1.7,6.51-.27.07,1.7Zm13-.53-.07-1.7,6.51-.27.07,1.7Zm13-.53-.07-1.7,6.51-.27.07,1.7Z"/><path class="cls-18" d="M536,176l-.41-1.65.59-.14-.63,0-.07-1.7,3.73-.15.45,2.82-.8.16C537.93,175.56,537,175.77,536,176Z"/><path class="cls-18" d="M569.21,366.09a32.61,32.61,0,0,1-5.08-3.17l1-1.35a30.88,30.88,0,0,0,4.82,3Zm-9.49-7.23c-.32-.35-.6-.69-.86-1a16,16,0,0,1-2.45-4.12l1.58-.64a14.31,14.31,0,0,0,2.19,3.68c.24.3.52.62.81.95ZM554.84,348c-.4-1.72-.83-3.61-1.31-5.7l1.66-.38c.47,2.08.91,4,1.31,5.69Zm-2.59-11.39-1.28-5.7,1.66-.37,1.28,5.7Zm-2.55-11.4-1.28-5.7,1.66-.37,1.28,5.7Zm-2.56-11.39-1.29-5.69,1.66-.38,1.29,5.7Zm-2.58-11.39-1.3-5.69,1.66-.38,1.3,5.69ZM542,291l-1.31-5.69,1.66-.38,1.31,5.69Zm-2.62-11.38L538,274l1.66-.39,1.32,5.69Zm-2.65-11.37-1.33-5.68,1.66-.39,1.33,5.69ZM534,256.89l-1.34-5.68,1.65-.39,1.34,5.68Zm-2.69-11.36L530,239.85l1.65-.39,1.35,5.68Zm-2.7-11.36-1.36-5.68,1.65-.4,1.36,5.68Zm-2.72-11.36-1.37-5.68,1.65-.4,1.37,5.68Zm-2.74-11.35-1.38-5.68,1.65-.4,1.38,5.68Zm-2.76-11.35L519,194.44l1.65-.4,1.38,5.67Zm-2.57-11.57v-.11a9.6,9.6,0,0,1,1.76-5.5l.25-.35,1.36,1-.21.29a7.93,7.93,0,0,0-1.46,4.54Zm7.54-8.48-.87-1.46a32.8,32.8,0,0,1,5.43-2.53l.59,1.6A31.1,31.1,0,0,0,525.39,180.06Z"/><path class="cls-18" d="M575.47,370.56v-1.7H577c-.73-.16-1.46-.35-2.17-.56l.48-1.63c.92.27,1.87.5,2.82.69l.49.1,1,3.1Z"/><path class="cls-18" d="M530.23,370.61v-1.7h5.66v1.7Zm11.31,0v-1.7h5.66v1.7Zm11.31,0v-1.7h5.66v1.7Zm11.31,0v-1.7h5.66v1.7Z"/><path class="cls-18" d="M520.46,370.62l.76-2.63.44-.14c.94-.29,1.88-.61,2.78-.93l.58,1.6-1.13.4h.68v1.7Z"/><path class="cls-18" d="M530.5,366.23l-.74-1.53a34.09,34.09,0,0,0,4.93-2.87l1,1.38A35.77,35.77,0,0,1,530.5,366.23Zm9.57-7.27-1.39-1a8.42,8.42,0,0,0,1.47-3.43,5,5,0,0,0,.08-.94c0-.16,0-.35,0-.57l1.7-.08c0,.25,0,.46,0,.65a6.64,6.64,0,0,1-.1,1.22A10.1,10.1,0,0,1,540.06,359Zm-.56-11.59c-.26-1.63-.59-3.56-1-5.73l1.67-.31c.4,2.18.73,4.13,1,5.77Zm-2.07-11.45c-.34-1.74-.72-3.64-1.14-5.72l1.67-.34c.42,2.09.8,4,1.14,5.73Zm-2.32-11.44q-.56-2.69-1.2-5.71l1.66-.35q.64,3,1.2,5.72ZM532.69,313q-.59-2.73-1.24-5.71l1.66-.36q.65,3,1.24,5.71Zm-2.49-11.42-1.26-5.71,1.66-.37,1.26,5.71Zm-2.54-11.41-1.28-5.7,1.66-.37,1.28,5.71Zm-2.57-11.41-1.3-5.7,1.66-.38,1.3,5.7Zm-2.6-11.4-1.31-5.7,1.66-.38,1.31,5.7ZM519.87,256l-1.32-5.7,1.66-.38,1.32,5.7Zm-2.64-11.4-1.32-5.7,1.66-.39,1.32,5.7Zm-2.65-11.39-1.33-5.7,1.66-.39,1.33,5.7Zm-2.67-11.39-1.34-5.69,1.66-.39,1.34,5.7Zm-2.68-11.39-1.34-5.69,1.65-.39,1.34,5.69Zm-2.69-11.39-1.35-5.69,1.65-.39,1.35,5.69Z"/><polygon class="cls-18" points="503.79 187.46 503.27 185.27 501.03 185.43 500.9 183.74 504.59 183.47 505.45 187.07 503.79 187.46"/><polygon class="cls-18" points="493.52 188.22 491.84 188 492.32 184.36 495.98 184.09 496.1 185.79 493.82 185.95 493.52 188.22"/><path class="cls-18" d="M473.14,342.55l-1.69-.22.78-5.94,1.69.22Zm1.57-11.87-1.69-.22.78-5.94,1.69.22Zm1.57-11.87-1.69-.22.78-5.94,1.69.22Zm1.57-11.87-1.69-.22.78-5.94,1.69.22Zm1.57-11.87-1.69-.22.78-5.94,1.69.22ZM481,283.19l-1.69-.22.78-5.94,1.69.22Zm1.57-11.87-1.69-.22.78-5.94,1.69.22Zm1.57-11.87-1.69-.22.78-5.94,1.69.22Zm1.57-11.87-1.69-.22.78-5.94,1.69.22Zm1.57-11.87-1.69-.22.78-5.94,1.69.22Zm1.57-11.87-1.69-.22.78-5.94,1.69.22ZM490.39,212l-1.69-.22.78-5.94,1.69.22ZM492,200.09l-1.69-.22.78-5.94,1.69.22Z"/><polygon class="cls-18" points="468.19 352.3 468.12 350.61 470.37 350.51 470.67 348.27 472.36 348.49 471.87 352.15 468.19 352.3"/><rect class="cls-18" x="460.98" y="350.83" width="3.59" height="1.7" transform="translate(-14.36 19.74) rotate(-2.41)"/><path class="cls-18" d="M453.77,352.91l-.17-.66q-.38-1.43-.76-2.87l1.64-.44.59,2.22,2.29-.1.07,1.7Z"/><path class="cls-18" d="M451.28,343.66q-.79-2.85-1.61-5.71l1.63-.47q.82,2.86,1.61,5.72ZM448,332.26q-.84-2.85-1.71-5.69l1.63-.5q.87,2.85,1.71,5.7Zm-3.46-11.37q-.89-2.84-1.8-5.67l1.62-.52q.91,2.83,1.8,5.68Zm-3.63-11.32q-.93-2.83-1.87-5.63l1.61-.54q.94,2.81,1.88,5.64Zm-3.78-11.25q-1-2.82-1.94-5.61l1.6-.56q1,2.79,1.95,5.62Zm-3.92-11.21q-1-2.81-2-5.59l1.6-.58q1,2.78,2,5.6Zm-4.05-11.16q-1-2.81-2.07-5.56l1.59-.6q1,2.76,2.08,5.57ZM425,264.83q-1.07-2.8-2.13-5.54l1.59-.61q1.06,2.74,2.13,5.55Zm-4.29-11.08q-1.1-2.8-2.19-5.52l1.58-.63q1.08,2.72,2.19,5.53Zm-4.4-11q-1.13-2.8-2.24-5.5l1.57-.64q1.11,2.7,2.24,5.51Zm-4.5-11q-1.17-2.81-2.29-5.48l1.57-.66q1.12,2.67,2.29,5.49Zm-4.61-11q-1.21-2.83-2.34-5.46l1.56-.67q1.14,2.63,2.35,5.47Zm-4.71-10.91q-1.27-2.89-2.4-5.44l1.55-.69q1.13,2.55,2.4,5.44ZM397.67,199c-.94-2.09-1.77-3.91-2.46-5.41l1.55-.71c.69,1.51,1.52,3.32,2.46,5.42Z"/><polygon class="cls-18" points="392.76 188.35 391.75 186.22 389.41 186.52 389.19 184.84 392.75 184.38 394.3 187.62 392.76 188.35"/><polygon class="cls-18" points="383.54 189.53 381.85 189.43 382.05 185.76 385.7 185.29 385.92 186.97 383.67 187.26 383.54 189.53"/><path class="cls-18" d="M391.58,367.3l-1.53-.5c-1.46-.49-2.82-1-4.06-1.46l.61-1.59c1.21.47,2.56,1,4,1.44l1.5.5Zm-11-4.39a21.6,21.6,0,0,1-5-3.45l1.18-1.22a20,20,0,0,0,4.64,3.16Zm-6.18-9.11-1.7-.09.33-5.87,1.7.09Zm.66-11.73-1.7-.09.33-5.87,1.7.09Zm.66-11.73-1.7-.09.33-5.87,1.7.09Zm.66-11.73-1.7-.09.33-5.87,1.7.09Zm.66-11.73-1.7-.09.33-5.87,1.7.09Zm.66-11.73-1.7-.09.33-5.87,1.7.09Zm.66-11.73-1.7-.09.33-5.87,1.7.09Zm.66-11.73-1.7-.09.33-5.87,1.7.09Zm.66-11.73-1.7-.09.33-5.87,1.7.09Zm.66-11.73-1.7-.09.33-5.87,1.7.09Zm.66-11.73-1.7-.09.33-5.87,1.7.09Zm.66-11.73-1.7-.09.33-5.87,1.7.09Zm.66-11.73-1.7-.09.33-5.87,1.7.09Zm.66-11.73-1.7-.09.33-5.87,1.7.09Z"/><path class="cls-18" d="M397.36,372.3l0-1.7,2.16-.06,0-.94-2.24-.61.46-1.64c1.05.29,2,.55,2.86.77l.65.17-.07,3.91Z"/><path class="cls-18" d="M331.29,374l0-1.7,5.51-.14,0,1.7Zm11-.28,0-1.7,5.51-.14,0,1.7Zm11-.28,0-1.7,5.51-.14,0,1.7Zm11-.28,0-1.7,5.51-.14,0,1.7Zm11-.28,0-1.7,5.51-.14,0,1.7Zm11-.28,0-1.7,5.51-.14,0,1.7Z"/><polygon class="cls-15" points="314.4 366.51 312.7 366.48 312.76 362.89 316.19 361.83 316.7 363.45 314.44 364.15 314.4 366.51"/><path class="cls-15" d="M322.28,361.65l-.54-1.61c1.86-.63,3.71-1.28,5.5-1.94l.59,1.6C326,360.37,324.15,361,322.28,361.65Zm11-4.07-.64-1.57c2.14-.87,3.92-1.66,5.29-2.34l.76,1.52C337.31,355.89,335.49,356.7,333.31,357.59Zm9.41-7.11-1.63-.48c.43-1.47.89-3.37,1.37-5.63l1.66.35C343.64,347,343.17,349,342.72,350.48Zm2.51-11.54-1.67-.3c.32-1.79.64-3.72,1-5.77l1.68.27C345.87,335.2,345.55,337.13,345.23,338.94Zm1.85-11.6-1.68-.25q.41-2.79.82-5.79l1.68.23Q347.49,324.54,347.08,327.34Zm1.6-11.62L347,315.5q.37-2.83.74-5.81l1.69.21Q349.05,312.87,348.68,315.72Zm1.45-11.63-1.69-.2q.34-2.86.68-5.81l1.69.2Q350.48,301.22,350.13,304.08Zm1.35-11.64-1.69-.19q.32-2.88.64-5.82l1.69.18Q351.81,289.56,351.48,292.44Zm1.27-11.65-1.69-.18q.31-2.89.61-5.82l1.69.18Q353.07,277.9,352.76,280.79ZM354,269.14l-1.69-.17q.29-2.9.59-5.83l1.69.17Q354.26,266.23,354,269.14Zm1.16-11.65-1.69-.16q.28-2.91.56-5.83l1.69.16Q355.41,254.58,355.13,257.49Zm1.11-11.67-1.69-.16q.27-2.92.54-5.83l1.69.16Q356.51,242.9,356.24,245.82Zm1.07-11.67-1.69-.15q.26-2.93.52-5.83l1.69.15Q357.58,231.22,357.31,234.15Zm1-11.67-1.69-.15.5-5.83,1.69.14Zm1-11.67-1.69-.14q.25-3,.48-5.84l1.69.14Q359.58,207.85,359.33,210.81Zm1-11.68-1.7-.13.33-4.21a1.9,1.9,0,0,0-.44-.85l1.31-1.09a3.48,3.48,0,0,1,.83,1.81v.08Zm-6.45-7.81a35.69,35.69,0,0,0-5.54-1.4l.29-1.68a37.45,37.45,0,0,1,5.8,1.47Z"/><polygon class="cls-15" points="342.76 189.36 338.94 189.12 339.18 185.3 340.88 185.41 340.75 187.53 342.87 187.66 342.76 189.36"/><rect class="cls-15" x="338.36" y="178.33" width="4.13" height="1.7" transform="translate(140 507.54) rotate(-86.36)"/><polygon class="cls-15" points="341.66 173.06 339.97 172.95 340.2 169.22 343.94 169.04 344.02 170.74 341.8 170.84 341.66 173.06"/><path class="cls-15" d="M350.09,170.45l-.08-1.7,6.08-.29.08,1.7Zm12.15-.58-.08-1.7,6.08-.29.08,1.7Zm12.15-.58-.08-1.7,6.08-.29.08,1.7Zm12.15-.58-.08-1.7,6.08-.29.08,1.7Z"/><polygon class="cls-15" points="402.29 170.15 401.13 168 398.69 168.12 398.61 166.42 402.12 166.25 403.79 169.34 402.29 170.15"/><path class="cls-15" d="M455.92,291.21q-1-2.72-2.13-5.64l1.59-.6q1.11,2.91,2.13,5.64Zm-4.28-11.26q-1.06-2.74-2.18-5.62l1.58-.62q1.12,2.87,2.18,5.62Zm-4.38-11.22q-1.09-2.75-2.23-5.6l1.58-.63q1.14,2.84,2.23,5.6Zm-4.49-11.18q-1.12-2.76-2.28-5.58l1.57-.65q1.16,2.82,2.29,5.58Zm-4.59-11.14q-1.15-2.75-2.34-5.55l1.56-.66q1.19,2.8,2.34,5.56Zm-4.71-11.09q-1.18-2.75-2.4-5.53l1.56-.68q1.22,2.78,2.4,5.53Zm-4.83-11q-1.22-2.74-2.46-5.5l1.55-.7q1.25,2.76,2.47,5.51Zm-5-11q-1.25-2.73-2.53-5.47l1.54-.72q1.28,2.74,2.54,5.48Zm-5.1-10.93q-1.29-2.72-2.61-5.43l1.53-.74q1.32,2.72,2.61,5.44Zm-5.25-10.84q-1.33-2.7-2.69-5.39l1.52-.77q1.36,2.69,2.7,5.4Zm-5.42-10.74q-1.38-2.68-2.78-5.33l1.5-.79q1.4,2.66,2.79,5.35Z"/><polygon class="cls-15" points="460.28 303 458 296.81 459.3 296.33 459.31 296.25 459.46 296.27 459.6 296.22 459.62 296.29 461 296.44 460.28 303"/><path class="cls-15" d="M461.68,290.36l-1.69-.19q.35-3.09.69-6.09l1.69.19Q462,287.27,461.68,290.36Zm1.4-12.16-1.69-.2q.36-3.1.72-6.08l1.69.2Q463.44,275.1,463.08,278.19ZM464.53,266l-1.69-.21q.38-3.1.75-6.08l1.69.21Q464.91,262.94,464.53,266ZM466,253.89l-1.69-.21q.39-3.11.78-6.08l1.69.22Q466.43,250.78,466,253.89Zm1.57-12.14-1.69-.22q.41-3.12.82-6.07l1.68.23Q468,238.64,467.61,241.75Zm1.65-12.13-1.68-.23q.44-3.13.86-6.07l1.68.24Q469.7,226.5,469.26,229.62ZM471,217.51l-1.68-.25q.47-3.15.91-6.06l1.68.26Q471.47,214.36,471,217.51Zm1.85-12.09-1.68-.27q.51-3.19,1-6l1.68.28Q473.36,202.23,472.85,205.42Zm2-12.07-1.68-.29q.57-3.28,1.08-6l1.67.31Q475.42,190.08,474.85,193.35Zm2.21-12-1.67-.33c.43-2.17.84-4.2,1.24-6l1.66.36C477.9,177.16,477.49,179.17,477.06,181.33Z"/><polygon class="cls-15" points="479.73 169.4 478.09 168.95 479.04 165.48 482.64 165.33 482.7 167.03 480.35 167.13 479.73 169.4"/><path class="cls-15" d="M488.23,166.81l-.07-1.7,5.53-.23.07,1.7Zm11.06-.45-.07-1.7,5.53-.23.07,1.7Zm11.06-.45-.07-1.7,5.53-.23.07,1.7Zm11.06-.45-.07-1.7,5.53-.23.07,1.7Zm11.06-.45-.07-1.7,5.53-.23.07,1.7Z"/><polygon class="cls-15" points="546.08 166.65 545.73 164.46 543.51 164.55 543.45 162.85 547.17 162.7 547.76 166.38 546.08 166.65"/><rect class="cls-15" x="547.11" y="170.8" width="1.7" height="4.37" transform="translate(-20.44 88.71) rotate(-9.09)"/><polygon class="cls-15" points="546.62 183.62 546.4 181.93 548.49 181.66 548.15 179.59 549.83 179.32 550.44 183.12 546.62 183.62"/><path class="cls-15" d="M535.93,185.73l-.49-1.63c1.75-.52,3.58-1,5.44-1.34l.33,1.67C539.43,184.78,537.6,185.23,535.93,185.73Z"/><path class="cls-15" d="M528,191.66l-.8-3.26.22-.32a7.23,7.23,0,0,1,2.73-2l.75,1.52A7.94,7.94,0,0,0,529,188.8l.6,2.46Z"/><path class="cls-15" d="M576.07,358.87a23.52,23.52,0,0,1-5.42-2.77l1-1.4a21.84,21.84,0,0,0,5,2.57ZM566.14,352l-.05-.07a6.74,6.74,0,0,1-1.34-2.71q-.34-1.41-.72-3l1.66-.39q.38,1.63.72,3a5.06,5.06,0,0,0,1,2l.06.07Zm-3.43-11.55q-.6-2.65-1.29-5.73l1.66-.37q.69,3.09,1.29,5.73ZM560.13,329l-1.28-5.73,1.66-.37,1.28,5.73Zm-2.57-11.47-1.29-5.73,1.66-.37,1.29,5.73ZM555,306l-1.3-5.73,1.66-.38,1.3,5.73Zm-2.6-11.46-1.31-5.73,1.66-.38L554,294.2Zm-2.63-11.45-1.32-5.72,1.66-.38,1.32,5.73Zm-2.65-11.45L545.76,266l1.66-.39,1.33,5.72Zm-2.67-11.44-1.34-5.72,1.66-.39,1.34,5.72Zm-2.69-11.44-1.35-5.72,1.65-.39,1.35,5.72ZM539,237.36l-1.36-5.72,1.65-.4,1.36,5.72Zm-2.73-11.43-1.37-5.71,1.65-.4,1.37,5.71Zm-2.75-11.43-1.38-5.71,1.65-.4,1.38,5.71Zm-2.77-11.42-1.39-5.71L531,197l1.39,5.71Z"/><polygon class="cls-15" points="585.16 362.82 584.41 360.51 582 360.22 582.2 358.53 585.7 358.95 586.78 362.3 585.16 362.82"/><rect class="cls-15" x="587.31" y="367" width="1.7" height="4.78" transform="translate(-84.89 197.97) rotate(-17.84)"/><polygon class="cls-15" points="588.29 379.89 588.29 378.19 590.1 378.19 589.55 376.47 591.17 375.95 592.44 379.89 588.29 379.89"/><path class="cls-15" d="M518,380v-1.7h5.86V380Zm11.72,0v-1.7h5.86V380Zm11.72,0v-1.7h5.86v1.7Zm11.72,0v-1.7H559v1.7Zm11.72,0v-1.7h5.86v1.7Zm11.72,0v-1.7h5.86v1.7Z"/><polygon class="cls-15" points="508.02 379.99 509.16 376.04 510.8 376.51 510.29 378.28 512.13 378.28 512.13 379.98 508.02 379.99"/><rect class="cls-15" x="509.62" y="369.25" width="4.29" height="1.7" transform="translate(14.03 758.87) rotate(-73.87)"/><polygon class="cls-15" points="514.37 364.16 512.73 363.69 513.69 360.37 517.02 359.47 517.47 361.11 515.06 361.76 514.37 364.16"/><path class="cls-15" d="M523.29,359.15l-.63-1.58A43.43,43.43,0,0,0,528,355l.85,1.48A45.14,45.14,0,0,1,523.29,359.15Zm7.42-7.68c-.18-1.4-.49-3.39-.95-5.92l1.67-.3c.46,2.56.78,4.58,1,6Zm-2.06-11.84q-.52-2.69-1.18-5.92l1.67-.34q.66,3.24,1.18,5.93Zm-2.4-11.83q-.58-2.79-1.24-5.91l1.66-.35q.66,3.12,1.25,5.91ZM523.74,316q-.61-2.83-1.28-5.9l1.66-.36q.67,3.07,1.28,5.91Zm-2.58-11.8-1.31-5.9,1.66-.37,1.31,5.9Zm-2.62-11.79-1.32-5.89,1.66-.37,1.32,5.9Zm-2.66-11.79-1.34-5.89,1.66-.38,1.34,5.89Zm-2.68-11.78-1.35-5.89,1.66-.38,1.35,5.89ZM510.5,257l-1.36-5.89,1.66-.38,1.36,5.89Zm-2.72-11.77-1.37-5.89,1.66-.39,1.37,5.89ZM505,233.5l-1.38-5.88,1.66-.39,1.38,5.88Zm-2.76-11.77-1.38-5.88,1.66-.39,1.38,5.88Z"/><polygon class="cls-15" points="499.5 209.92 499.47 209.81 498.41 209.67 499.4 202.12 501.15 209.53 500.11 209.78 500.1 209.89 499.79 209.85 499.5 209.92"/><path class="cls-15" d="M481.38,351.6l-1.69-.22.78-5.9,1.69.22Zm1.56-11.81-1.69-.22.78-5.9,1.69.22ZM484.5,328l-1.69-.22.78-5.9,1.69.22Zm1.56-11.81-1.69-.22.78-5.9,1.69.22Zm1.56-11.81-1.69-.22.78-5.9,1.69.22Zm1.56-11.81-1.69-.22.78-5.9,1.69.22Zm1.56-11.81-1.69-.22.78-5.9,1.69.22Zm1.56-11.81-1.69-.22.78-5.9,1.69.22Zm1.56-11.81-1.69-.22L493,251l1.69.22Zm1.56-11.81-1.69-.22.78-5.9,1.69.22ZM497,233.51l-1.69-.22.78-5.9,1.69.22Zm1.56-11.81-1.69-.22.78-5.9,1.69.22Z"/><polygon class="cls-15" points="476.43 361.32 476.36 359.62 478.62 359.52 478.91 357.28 480.6 357.5 480.12 361.16 476.43 361.32"/><path class="cls-15" d="M455.49,362.2l-.07-1.7,5.23-.22.07,1.7Zm10.47-.44-.07-1.7,5.23-.22.07,1.7Z"/><polygon class="cls-15" points="446.6 362.57 445.69 359.02 447.34 358.6 447.9 360.82 450.19 360.72 450.26 362.42 446.6 362.57"/><path class="cls-15" d="M444.2,353.28q-.76-2.86-1.54-5.72l1.64-.45q.79,2.87,1.55,5.74Zm-3.14-11.43q-.81-2.85-1.65-5.7l1.63-.48q.84,2.85,1.65,5.71Zm-3.35-11.39q-.86-2.84-1.74-5.68l1.62-.51q.88,2.84,1.75,5.69Zm-3.53-11.35q-.91-2.84-1.83-5.66l1.62-.53q.92,2.83,1.83,5.67Zm-3.7-11.3q-.95-2.82-1.9-5.62l1.61-.55q1,2.8,1.91,5.63Zm-3.84-11.24q-1-2.82-2-5.6l1.6-.57q1,2.79,2,5.61Zm-4-11.19q-1-2.81-2-5.58l1.6-.59q1,2.77,2,5.59Zm-4.11-11.14q-1.05-2.81-2.1-5.56l1.59-.6q1,2.75,2.1,5.56Zm-4.22-11.1q-1.08-2.8-2.16-5.53l1.58-.62q1.07,2.73,2.16,5.54ZM410,252.1q-1.12-2.8-2.21-5.51l1.58-.64q1.1,2.71,2.21,5.52Zm-4.45-11q-1.15-2.81-2.26-5.49l1.57-.65q1.11,2.69,2.27,5.5Zm-4.55-11q-1.19-2.82-2.32-5.47l1.56-.67q1.13,2.65,2.32,5.48Zm-4.66-10.93q-1.23-2.85-2.37-5.45l1.56-.68q1.14,2.59,2.37,5.46Z"/><path class="cls-15" d="M391.61,208.36l0-.06-1.42-.08.36-6.46L392,205l1.21,2.72-1.3.58v.07h-.14Z"/><path class="cls-15" d="M384.3,343.4l-1.7-.09.34-6.14,1.7.09Zm.69-12.28-1.7-.09.34-6.14,1.7.09Zm.69-12.28-1.7-.09.34-6.14,1.7.09Zm.69-12.28-1.7-.09.34-6.14,1.7.09Zm.69-12.28-1.7-.09.34-6.14,1.7.09Zm.69-12.28-1.7-.09.34-6.14,1.7.09Zm.69-12.28-1.7-.09.34-6.14,1.7.09Zm.69-12.28-1.7-.09.34-6.14,1.7.09Zm.69-12.28-1.7-.09.34-6.14,1.7.09Zm.69-12.28-1.7-.09.34-6.14,1.7.09Zm.69-12.28-1.7-.09.34-6.14,1.7.09Z"/><path class="cls-15" d="M385.1,354.77a14.59,14.59,0,0,1-2.7-1.65l-.33-.27.19-3.4,1.7.09-.14,2.52a16,16,0,0,0,2,1.18Z"/><path class="cls-15" d="M399.41,359.91c-2.53-.71-5-1.47-7.24-2.27l.56-1.6c2.24.78,4.64,1.54,7.13,2.23Z"/><polygon class="cls-15" points="410.64 364.57 408.94 364.54 408.99 362.26 406.76 361.75 407.14 360.09 410.71 360.91 410.64 364.57"/><rect class="cls-15" x="407.51" y="370.19" width="4.32" height="1.7" transform="translate(31.1 773.76) rotate(-88.94)"/><polygon class="cls-15" points="406.55 381.42 406.5 379.72 408.66 379.67 408.7 377.5 410.4 377.53 410.33 381.32 406.55 381.42"/><path class="cls-15" d="M322.28,383.59l0-1.7,6-.15,0,1.7Zm12-.31,0-1.7,6-.15,0,1.7Zm12-.31,0-1.7,6-.16,0,1.7Zm12-.31,0-1.7,6-.15,0,1.7Zm12-.31,0-1.7,6-.15,0,1.7Zm12-.31,0-1.7,6-.16,0,1.7Zm12-.31,0-1.7,6-.15,0,1.7Z"/><polygon class="cls-15" points="312.4 383.84 312.46 379.98 314.16 380.01 314.13 382.1 316.21 382.05 316.26 383.74 312.4 383.84"/><rect class="cls-15" x="311.18" y="372.4" width="4.5" height="1.7" transform="translate(-65.26 680.07) rotate(-88.99)"/><path class="cls-19" d="M467.94,557.24C365,558.88,377,549.9,331.41,547.92c0,0-15.18,105.57,118.35,84.72Z"/><path class="cls-20" d="M333.46,578.84s9.07,62.32,87.17,54.59C420.63,633.43,413.34,578.84,333.46,578.84Z"/><path class="cls-21" d="M504.87,553l-173.46-5.07s7.32,43.34,133.09,28.73l8.58-19.32,6.24-.07-.8,18.48c7.65-1,9.13-2.19,17.63-3.61Z"/><path class="cls-5" d="M534.36,304.68s43.51,45.59,140.3,26.9l-27.32-14.79,21.61-17.13s-95.5,7.83-134.69-61.54c0,0-5.39,24.51,2.91,39C537.16,277.16,524.77,285.21,534.36,304.68Z"/><path class="cls-21" d="M342,601.14c14.53,23.14,45.33,44.9,114.22,30.76,0,0,4.78-12,4.35-12C380.35,618.31,342,601.14,342,601.14Z"/><path class="cls-5" d="M416.39,308.91s-64.45,44.16-160.79,23.32l21-9.5-18.95-21.4s112.56,9.36,153.28-59.12c0,0,11.91,24.78,3.28,39.13C414.2,281.34,426.42,289.66,416.39,308.91Z"/><path class="cls-5" d="M542.37,484.07s19,40.8,22.35,63.05c0,0-160.68,5.87-255.61-7.42,0,0,15.51-35.54,39.16-57.58Z"/><path class="cls-22" d="M522.35,547.85S414.76,550.11,401.2,547l23.25-64.1,84.73.85Z"/><path d="M113.07,456.5l11.9,73a6.19,6.19,0,0,0,7.54,5l15.07-5.26a6.19,6.19,0,0,0,4.53-7.68l-22-61.76,122.5-62.74,11.57,77.08a23.37,23.37,0,0,0,24.1,19.48l123.39-4.45c11.34-.44,20.59-9.79,21.62-22l4.76-59.6,7.89-1.95c11.91-2.94,40.52-2.88,52.41.18l7,1.8,4.84,59.73c1,12.21,10.33,21.59,21.69,22l115.76,4.1c11.34.4,21.25-8.25,23.18-20.33L681.74,397l13,2.18a3.4,3.4,0,0,0,3.9-2.78l2.94-17.56a3.4,3.4,0,0,0-2.78-3.9l-13.19-2.21,2.32-14.52c2.33-14.58-7.76-27.93-21.44-28.42l-142.15-5.06c-13.67-.48-24.64,12-23.38,26.7l3,34.53-4.63-1.25c-12.52-3.37-41.87-3.4-54.4-.08l-5.4,1.43,2.91-34.75c1.24-14.71-9.81-27.27-23.49-26.75L269.19,330c-13.67.52-24.57,14.68-22.23,29.25l1.49,10L122.59,436.86A18.17,18.17,0,0,0,113.07,456.5ZM544,352.17,649,354.55c10.33.37,18,10,16.23,20.58L653.53,456.9A17.26,17.26,0,0,1,636,471.63l-89.33-2.88a17.24,17.24,0,0,1-16.4-15.93l-4-81.27C525.35,360.88,533.65,351.8,544,352.17ZM290.54,356l108.34-4.55c10.33-.4,18.66,8.64,17.71,19.33l-4.18,80.09c-.79,8.86-4.19,16.22-12.75,16.55l-96.12,3.86A17.24,17.24,0,0,1,286,456.57l-11.64-80C272.62,366,280.22,356.36,290.54,356Z"/><path class="cls-3" d="M142.19,458.65c9.81,1.91,23.92,9.68,22,38.88a8.18,8.18,0,0,1-4.13,6.58c-8.35,4.74-28.59,13.84-39.77-1.57-14.23-19.61-2.31-33.88,6.68-40.42A19.57,19.57,0,0,1,142.19,458.65Z"/><g class="cls-23"><path d="M120.29,502.53c-14.23-19.61-2.31-33.88,6.68-40.42,4.39-3.19,5.57-4.85,10.9-3.81,0,0-36,17.32-7.86,51.75C130,510.05,131.47,517.94,120.29,502.53Z"/></g><path class="cls-24" d="M526.32,371.55l4,81.27a17.24,17.24,0,0,0,16.4,15.93L636,471.63a17.26,17.26,0,0,0,17.48-14.73l11.72-81.77c1.74-10.59-5.9-20.21-16.23-20.58L544,352.17C533.65,351.8,525.35,360.88,526.32,371.55Z"/><polygon class="cls-25" points="570.17 469.51 618 471.05 623.31 353.97 574 352.85 570.17 469.51"/><path class="cls-24" d="M274.37,376.6l11.64,80a17.24,17.24,0,0,0,17.53,14.67l96.12-3.86c8.57-.33,12-7.69,12.75-16.55l4.18-80.09c1-10.69-7.37-19.73-17.71-19.33L290.54,356C280.22,356.36,272.62,366,274.37,376.6Z"/><polygon class="cls-25" points="322.71 470.54 372.29 468.48 369.48 352.65 315.35 354.94 322.71 470.54"/><path class="cls-3" d="M401.82,444.26A37.38,37.38,0,0,1,416,447c9.44-20.47,30.9-38.69,66-36,28.32,2.14,42.52,20.68,43.78,35.57,16.77.44,30.2,11.48,30.2,25.06,0,13.85-14,25.08-31.22,25.08A35.07,35.07,0,0,1,502,488.74c-8.44,4.44-21.91,7-32.75,7-15.9,0-30.17-5.55-40-14.37-5.31,7.76-15.58,13-27.38,13-17.24,0-31.22-11.23-31.22-25.08S384.58,444.26,401.82,444.26Z"/><g class="cls-6"><path d="M549.36,487s-8.09,9.69-24.65,9.69A35.07,35.07,0,0,1,502,488.74c-8.44,4.44-21.91,7-32.75,7-15.9,0-30.17-5.55-40-14.37-5.31,7.76-15.58,13-27.38,13-17.24,0-31.22-11.23-31.22-25.08s14-25.08,31.22-25.08c0,0-31.22,11.6-14.64,33.7,5.17,6.89,29.49,15.87,43.5-9.82,0,0,5.6,17.4,39,18.39,32.34,1,34.93-5.46,34.93-5.46S512.75,496,549.36,487Z"/></g><path class="cls-26" d="M416,447c9.44-20.47,30.9-38.69,66-36,28.32,2.14,42.52,20.68,43.78,35.57,0,0-14.83-26.92-45.82-29.42C444.77,414.27,416,447,416,447Z"/><path class="cls-8" d="M230,712.81,215.24,892S181.58,912.61,210,947.8c1.33,1.65,4,1.47,6,2.18,124.81,44.63,254.14,28.34,337-2.64,12.5-4.67,19.35-21.78,15.61-29.84-2.68-5.77-3.79,11.88-18.8,17.83-13.21,5.23-123.45,33.52-256.26,9.37A66.39,66.39,0,0,1,239,878l.86-176.72C88.07,703.53,142.63,913.8,142.63,913.8s29.36-49.31,30.45-50.16C173.08,863.64,136,717.7,230,712.81Z"/><g class="cls-14"><path class="cls-15" d="M456.29,281.23q-.27-3.2-.56-6.34l2.54-.24q.29,3.15.57,6.36Z"/><path class="cls-15" d="M454.49,262.66c-.44-4.08-.92-8.18-1.43-12.19l2.53-.32c.5,4,1,8.14,1.43,12.23Zm-3.06-24.35c-.58-4.06-1.2-8.14-1.85-12.13l2.52-.41c.65,4,1.27,8.1,1.85,12.18Zm-3.92-24.23c-.73-4-1.51-8.1-2.31-12l2.5-.51c.81,4,1.59,8,2.32,12.1Zm-4.88-24c-.91-4-1.86-8-2.84-11.93l2.47-.62c1,3.93,1.94,8,2.85,12Zm-6-23.79c-1.1-4-2.26-7.94-3.44-11.77l2.44-.75c1.18,3.85,2.35,7.84,3.46,11.83Zm-7.21-23.43c-1.33-3.91-2.71-7.79-4.12-11.54l2.39-.9c1.42,3.77,2.81,7.68,4.15,11.62Zm-8.63-22.93c-1.59-3.82-3.25-7.59-4.92-11.21l2.31-1.07c1.69,3.65,3.36,7.46,5,11.3Zm-10.3-22.21c-1.91-3.69-3.89-7.3-5.88-10.73l2.21-1.28c2,3.46,4,7.11,5.94,10.84ZM398.22,76.57c-2.33-3.52-4.71-6.86-7.08-9.94l2-1.56c2.41,3.12,4.83,6.51,7.19,10.09Z"/><path class="cls-15" d="M383.22,57.32A51.48,51.48,0,0,0,378.74,53l1.59-2a52.37,52.37,0,0,1,4.73,4.52Z"/></g></g></svg>