<svg id="Layer_1" data-name="Layer 1" xmlns="http://www.w3.org/2000/svg" xmlns:xlink="http://www.w3.org/1999/xlink" viewBox="0 0 872.31 872.31"><defs><style>.cls-1{fill:none;}.cls-2{fill:#e2e2e2;}.cls-3{clip-path:url(#clip-path);}.cls-4{fill:#ffdfb8;}.cls-5{fill:#635245;}.cls-6{fill:#3d342d;}.cls-7{opacity:0.05;}.cls-8{fill:#515e3f;}.cls-12,.cls-9{opacity:0.25;}.cls-10{fill:#d73c3a;}.cls-11{fill:#aae3ff;}.cls-12,.cls-14{fill:#9b070b;}.cls-13{fill:#00728e;}.cls-13,.cls-24{opacity:0.1;}.cls-14,.cls-26{opacity:0.5;}.cls-15{clip-path:url(#clip-path-2);}.cls-16{fill:#420d12;}.cls-17{fill:#f6c785;}.cls-18{fill:#ba2b32;}.cls-19{fill:#e5aa6a;}.cls-20{fill:#333131;}.cls-21{fill:#e65253;}.cls-22,.cls-23,.cls-26{fill:#fff;}.cls-23{opacity:0.08;}.cls-25{fill:#cdd9e8;}.cls-27{fill:#fff8e6;}</style><clipPath id="clip-path"><path class="cls-1" d="M562.12,134.65C541.5,70.44,406.05,28.26,263.5,90.37,151,139.41,119,245,109.86,301.08A375.31,375.31,0,0,0,59.09,490.16c0,208.24,168.82,377.06,377.06,377.06S813.22,698.4,813.22,490.16C813.22,326.08,708.42,186.49,562.12,134.65Z"/></clipPath><clipPath id="clip-path-2"><circle class="cls-1" cx="376.75" cy="364.61" r="268.16"/></clipPath></defs><title>reylero_rec</title><circle class="cls-2" cx="436.16" cy="490.16" r="377.06"/><g class="cls-3"><path class="cls-4" d="M630.1,452.72s33.33,5.92,19.9,36.75c-9.34,21.43-40.93,10.06-40.93,10.06S624.44,475.69,630.1,452.72Z"/><polygon class="cls-5" points="795.86 485.69 807.77 496.46 672.68 698.81 594.57 650.77 627.46 605.86 652.37 619.58 712.44 531.94 685.55 513 715.88 469.65 768.25 460.75 788.03 478.62 838.24 404.49 846.44 410.61 795.86 485.69"/><polygon class="cls-6" points="630.33 672.76 594.57 650.77 627.46 605.86 652.37 619.58 712.44 531.94 685.55 513 715.88 469.65 768.25 460.75 728.88 516.39 745.57 532.34 675.01 637.47 660.55 628.61 630.33 672.76"/><path class="cls-4" d="M666.79,598.53s-11.25-48.63,12.77-63.35,29.69,5.47,29.69,5.47,8.3,15.57-13.54,32.4S666.79,598.53,666.79,598.53Z"/><path class="cls-4" d="M166.7,839.74c8.76-3.66,27.07-4.29,42.64,0L207.09,867c-31.7,22.84-5.06,53.43-5.06,53.43s86.27,6,91.59,26.86c4.11,13,3.07,51.1-57.1,59.09,4.57,31.18-25.72,41-35,41.56,1.25,9.27-2.84,28.14-27,28.33-16.45-3.26-45.93-17.22-76.78-44.6C97.77,1031.64,82.4,875,166.7,839.74Z"/><g class="cls-7"><path d="M139.54,858.11a83.94,83.94,0,0,1,27.16-18.37c8.76-3.66,27.07-4.29,42.64,0L207.09,867c-31.7,22.84-5.06,53.43-5.06,53.43s86.27,6,91.59,26.86c0,0,2.4,6.28.95,16.37,0,0-42.06,2.26-102.34-17.91C121.68,922.12,139.54,858.11,139.54,858.11Z"/></g><path class="cls-4" d="M841.29,566.33c-2.67-32.26-33.73-68.41-57.76-74.79s-37.13,15.5-31.84,31.58c0,0-19.78-5.5-31.18,9.37s0,35.13,0,35.13c-11.59-6.11-28.69,5.9-27.06,23.52,2.67,28.92,23.22,38.7,21.29,56.36l-3.93,6.77,5.18,6.28c13.45,2.9,46-.84,89.07-38.66C836.82,594,841.29,566.33,841.29,566.33Z"/><g class="cls-7"><path d="M751.69,523.11s20.37,2.1,37.81,29.46v-4.75s-14.09-24.26-38.48-27.2A12.64,12.64,0,0,0,751.69,523.11Z"/></g><g class="cls-7"><path d="M718.88,564.17s27.21,15.77,35.35,38.17l-.83,1.09s-10-19-32.9-35.81Z"/></g><path class="cls-8" d="M513.74,607.3c43.45,5.43,85.13,135.87,159.4,127.9,63.27-6.79,42.84-74.64,42.84-74.64s79.09-5.6,125.56-94.42c0,0,94.72,262.54-133,300.44,0,0-1.87,17.11-16.36,16.36s-15-17.1-15-17.1S569.07,836.63,525.8,735.6l7,135.53,11.5,17.82a14.17,14.17,0,0,1,2.19,9.46c-.92,7.22-4.89,19.13-20.71,23.18-23.29,6-157.78,59.11-323.76-1.19,0,0-22.83-25.08-2.89-46.47l7.94-7,14.13-171.76s-85.7-5-54.53,144.54c0,0-72.23,96-61.75,197.89,0,0-123.72-118.59-72.17-300.69,0,0-11.9-8.55-5.13-21.28s21.17-4.23,21.17-4.23,63.33-99.06,189.44-101.14Z"/><path class="cls-9" d="M673.14,735.2c63.27-6.79,42.84-74.64,42.84-74.64s7.1.13,20.74-4c0,0,11.63,58.15-22.91,76.32-51.12,26.88-82.68-8.07-82.68-8.07C656,739.2,673.14,735.2,673.14,735.2Z"/><path class="cls-9" d="M521.22,614.95l-75.9,98.25L430.92,695l-22.54,33.13-8,148.67-11,9.85-43.31-54.51L371,717l-11.32-24.44-8.55,22.2S262.69,689.1,220.7,613.21l14-.51,20.16-9.85L508,609.74S513.64,610.14,521.22,614.95Z"/><path class="cls-10" d="M382.65,647.5l-16.36,41.8L380.15,720,364,822.25,407,878l41.25-51.26L431.19,719.72l17.08-32.86-22.44-34.77S408.79,652.5,382.65,647.5Z"/><path class="cls-11" d="M427.28,654.94s62.18-47.77,81.5-72.77c0,0,17.3,13.2,20.2,30.55L457.86,706.3l-30.58-51.36"/><polygon class="cls-12" points="382.65 647.5 366.29 689.3 380.15 719.97 363.98 822.25 407.02 878.03 422.71 858.54 386.38 805.53 398.88 720.26 389.54 683.87 395.69 650 382.65 647.5"/><path class="cls-11" d="M362.08,704.68s-91.38-28.14-128.89-97.24l26-24s110.29,60.12,123.42,64.07Z"/><path class="cls-13" d="M375.82,666.49s-86.93-4.07-134-67l17.44-16.07s110.29,60.12,123.42,64.07Z"/><circle class="cls-10" cx="376.75" cy="364.61" r="268.16"/><path class="cls-14" d="M163.53,201.95S108.4,273,108.59,364.61c.31,148.1,120.06,268.16,268.16,268.16A267.92,267.92,0,0,0,600.59,512.32S194.18,643.2,163.53,201.95Z"/><path class="cls-4" d="M508.1,528.64l-19.55,67.55s16.95,85.82-118.11,50c-68.07-18-69.73-98-69.73-98s-6-33.47,50.17-38.56C350.88,509.67,448.33,502.53,508.1,528.64Z"/><g class="cls-15"><path class="cls-16" d="M374.9,638.5c-1.91,0-3.83,0-5.72-.05l0-1.63c1.88,0,3.79.05,5.69.05Zm1,0v-1.63c1.89,0,3.8,0,5.69-.07l0,1.63C379.77,638.46,377.84,638.49,375.94,638.5Zm-12.48-.22c-1.89-.07-3.81-.16-5.71-.27l.09-1.63c1.89.11,3.81.2,5.68.27Zm23.91,0-.07-1.63c1.88-.08,3.79-.18,5.68-.29l.1,1.63C391.19,638.06,389.27,638.16,387.38,638.23ZM352,637.62c-1.91-.15-3.82-.32-5.7-.5l.16-1.62c1.87.18,3.77.35,5.67.5Zm46.75-.08-.13-1.62c1.89-.15,3.8-.33,5.66-.51l.16,1.62C402.61,637.21,400.69,637.38,398.79,637.54Zm-58.13-1c-1.91-.23-3.82-.48-5.67-.74l.23-1.61c1.84.26,3.74.51,5.64.74Zm69.51-.11-.19-1.62c1.88-.23,3.78-.47,5.64-.73l.23,1.61C414,635.92,412.07,636.16,410.17,636.39Zm-80.84-1.51c-2-.33-3.85-.67-5.64-1l.32-1.6c1.77.35,3.65.69,5.59,1Zm92.17-.08-.26-1.61q2.6-.42,5.18-.88l.42-.08.29,1.6-.43.08Q424.11,634.38,421.49,634.8Zm11.25-2-.32-1.6c1.85-.37,3.72-.77,5.56-1.19l.36,1.59C436.49,632,434.6,632.38,432.75,632.76Zm-114.67-.15-1.83-.47-1.41-1.41c-.1-.1-.67-.67-1.58-1.7l1.22-1.08c.87,1,1.41,1.52,1.51,1.62l1.1,1.09,1.4.36Zm125.83-2.35-.39-1.58c1.84-.45,3.69-.93,5.51-1.42l.42,1.57C447.62,629.32,445.75,629.8,443.91,630.25Zm11-3-.46-1.56c1.81-.53,3.64-1.08,5.44-1.65l.49,1.55C458.62,626.2,456.77,626.76,455,627.29ZM309.6,624.57c-1.12-1.47-2.25-3-3.36-4.66l1.35-.92c1.09,1.6,2.21,3.15,3.31,4.59Zm156.26-.71-.52-1.54c1.79-.61,3.6-1.24,5.37-1.88l.55,1.53C469.48,622.62,467.67,623.25,465.86,623.86ZM476.62,620l-.59-1.52c1.76-.68,3.54-1.39,5.28-2.11l.62,1.51C480.18,618.57,478.39,619.29,476.62,620Zm10.58-4.35-.65-1.49c1.73-.75,3.47-1.54,5.18-2.33l.68,1.48C490.69,614.07,488.94,614.86,487.2,615.62Zm-184.08-.53c-1-1.6-2-3.27-2.9-5l1.42-.79c.93,1.66,1.89,3.31,2.87,4.89Zm194.46-4.28-.72-1.46c1.69-.83,3.4-1.69,5.08-2.56l.75,1.45C501,609.11,499.28,610,497.58,610.81Zm-200.06-5.74c-.85-1.68-1.69-3.42-2.49-5.17l1.48-.68c.79,1.72,1.62,3.44,2.46,5.11Zm210.27-.19-1.5-.64.66-1.53a9.86,9.86,0,0,0,.71-3.64l1.63,0a11.5,11.5,0,0,1-.84,4.25ZM292.74,594.65c-.72-1.75-1.43-3.54-2.1-5.33l1.53-.57c.66,1.77,1.36,3.55,2.08,5.28Zm214-.89q-.1-.29-.21-.58l-.1-.26,1.6-5.1,1.55.49-1.43,4.56.13.36Zm-218-9.85c-.6-1.8-1.18-3.64-1.73-5.46l1.56-.46c.54,1.81,1.11,3.63,1.71,5.41Zm222.59-1-1.55-.49,1.71-5.44,1.55.49Zm-225.87-9.93c-.48-1.83-.94-3.7-1.37-5.56l1.59-.36c.42,1.84.88,3.7,1.35,5.51Zm229.28-1-1.55-.49,1.71-5.44,1.55.49ZM282.91,561.76c-.35-1.91-.63-3.83-.84-5.69l1.62-.18c.21,1.83.48,3.71.82,5.58Zm235.23-.66-1.55-.49,1.7-5.44,1.55.49Zm-236.5-10.78q0-1.29,0-2.6c0-1.06,0-2.13.08-3.17l1.63.08c0,1-.07,2.05-.07,3.09q0,1.28,0,2.54Zm239.91-.1-1.55-.49,1.71-5.44,1.55.49ZM525,539.34l-1.55-.49,1.71-5.44,1.55.49ZM283.83,539l-1.61-.23a53.07,53.07,0,0,1,1.14-5.67l1.58.41A51.47,51.47,0,0,0,283.83,539Zm244.54-10.58-1.55-.49,1.71-5.44,1.55.49Zm-241.71-.24-1.52-.6a44.59,44.59,0,0,1,2.47-5.25l1.42.79A43,43,0,0,0,286.66,528.21Zm5.42-9.75-1.31-1q.45-.6.93-1.2c.9-1.12,1.86-2.2,2.85-3.21l1.16,1.14A41.27,41.27,0,0,0,293,517.3Q292.51,517.88,292.08,518.46Zm239-.55-5.46-.32.1-1.63,6.5.38-.38,1.22-.72-.23Zm-11.15-.66-5.69-.33.1-1.63,5.69.33Zm-11.39-.67-5.69-.33.1-1.63,5.69.33Zm-11.39-.67-5.69-.33.1-1.63,5.69.33Zm-11.39-.67-5.69-.33.1-1.63,5.69.33Zm-11.39-.67-5.69-.33.1-1.63,5.69.33ZM463,513.91l-5.69-.33.1-1.63,5.69.33Zm-11.39-.67-5.69-.33.1-1.63,5.69.33Zm-11.39-.67-5.69-.33.1-1.63,5.69.33Zm-11.39-.67-5.69-.33.1-1.63,5.69.33Zm-11.39-.67-5.69-.33.1-1.63,5.69.33ZM406,510.56l-5.69-.33.1-1.63,5.69.33Zm-106.13-.06-1-1.29a40.66,40.66,0,0,1,4.85-3.22l.8,1.42A39.11,39.11,0,0,0,299.9,510.51Zm94.75-.61-5.69-.33.1-1.63,5.69.33Zm-11.39-.67-5.69-.33.1-1.63,5.69.33Zm-11.39-.67-5.69-.33.1-1.63,5.69.33Zm-11.39-.67-5.69-.33.1-1.63,5.69.33Zm-11.39-.67-5.69-.33.1-1.63,5.69.33Zm-11.39-.67-5.69-.33.1-1.63,5.69.33Zm-11.39-.67-5.69-.33.1-1.63,5.69.33Zm-11.39-.67-4.74-.28-.6.2-.52-1.55.9-.3,5.06.3Z"/></g><path class="cls-17" d="M501.72,600.46s1.09-2.54-1.35-7.15l22-70.19L311,510.69s-29.33,9.78-20.37,52.14,29.4,62.7,29.4,62.7S410.68,648.9,501.72,600.46Z"/><path class="cls-18" d="M374.92,632.39c-32.83,0-55-5.61-55.23-5.67l-.32-.08-.24-.23c-.21-.21-20.8-21.09-29.74-63.32-2.61-12.34-3.5-29.81,7.07-43a33.6,33.6,0,0,1,14.11-10.58l.22-.07H311L524,522l-22.31,71.21c2.34,4.7,1.29,7.44,1.16,7.75l-.17.39-.38.2c-47.25,25.14-94.36,30.65-125.56,30.84Zm-54.29-8c2.92.7,24.85,5.74,56.16,5.51,30.81-.2,77.26-5.63,123.88-30.31.13-.77.21-2.75-1.38-5.75l-.24-.45,21.68-69.19L311.14,511.93a32.25,32.25,0,0,0-12.86,9.82c-7.82,9.83-10.07,23.94-6.5,40.83C300.07,601.71,318.38,622,320.63,624.43Z"/><path class="cls-19" d="M375,627.09v-1.63c1.89,0,3.8,0,5.69-.06l0,1.63C378.81,627.07,376.88,627.09,375,627.09Zm-.08,0c-1.9,0-3.83,0-5.72-.06l0-1.63c1.88,0,3.79.06,5.69.06Zm-11.44-.23c-1.89-.08-3.82-.17-5.71-.29l.1-1.63c1.89.11,3.8.21,5.68.29Zm23,0-.07-1.63c1.89-.08,3.8-.18,5.68-.29l.1,1.63C390.25,626.68,388.33,626.78,386.42,626.85ZM352,626.16c-1.9-.15-3.81-.33-5.7-.53l.17-1.62c1.87.19,3.78.37,5.66.52Zm45.79,0-.13-1.62c1.88-.15,3.78-.33,5.66-.52l.17,1.62C401.65,625.82,399.73,626,397.84,626.15ZM340.66,625c-1.9-.24-3.81-.5-5.67-.78l.24-1.61c1.85.28,3.74.54,5.63.77Zm68.56,0-.2-1.62c1.88-.23,3.77-.48,5.64-.75l.23,1.61C413,624.5,411.11,624.76,409.22,625Zm11.32-1.63-.26-1.61c1.86-.31,3.75-.64,5.6-1l.3,1.6C424.31,622.72,422.42,623.05,420.54,623.36Zm-91.2-.07c-2-.35-3.89-.72-5.63-1.09l.34-1.59c1.72.37,3.59.73,5.57,1.08Zm102.45-2-.33-1.6c1.84-.38,3.71-.79,5.55-1.22l.37,1.59C435.52,620.47,433.64,620.88,431.79,621.26Zm11.15-2.57-.4-1.58c1.83-.46,3.68-1,5.5-1.45l.43,1.57C446.64,617.74,444.78,618.23,442.94,618.7Zm-123.78-.46c-1.12-1.45-2.26-3-3.38-4.66l1.35-.92c1.1,1.61,2.22,3.15,3.32,4.58ZM454,615.65l-.47-1.56c1.8-.54,3.63-1.11,5.43-1.69l.5,1.55C457.62,614.54,455.78,615.11,454,615.65Zm10.88-3.53-.54-1.54c1.79-.62,3.59-1.27,5.35-1.93l.57,1.53C468.46,610.85,466.65,611.5,464.85,612.13Zm-152.19-3.37c-1-1.61-1.95-3.28-2.88-5l1.43-.78c.92,1.67,1.87,3.32,2.84,4.9Zm162.9-.64L475,606.6c1.75-.7,3.52-1.43,5.25-2.17l.64,1.5C479.11,606.68,477.33,607.41,475.56,608.12Zm10.52-4.49-.67-1.48c1.71-.78,3.45-1.59,5.15-2.41l.71,1.47C489.56,602,487.81,602.84,486.09,603.62Zm-179-4.92c-.84-1.69-1.66-3.44-2.44-5.19l1.49-.66c.77,1.73,1.58,3.46,2.41,5.13Zm189.26-.05-.74-1.45.2-.1a11,11,0,0,0-.52-1.12l-1.11-2.1.3-1,1.55.49-.1.31.8,1.5a11.27,11.27,0,0,1,.86,2.05l.19.65ZM302.47,588.22c-.7-1.76-1.38-3.57-2-5.36l1.54-.55c.63,1.78,1.31,3.56,2,5.31ZM497.78,588l-1.55-.49,1.71-5.44,1.55.49ZM298.62,577.42c-.57-1.8-1.11-3.65-1.62-5.5l1.57-.43c.5,1.83,1,3.66,1.61,5.44Zm202.56-.35-1.55-.49,1.71-5.44,1.55.49Zm-205.61-10.7c-.35-1.44-.68-2.92-1-4.39q-.13-.61-.25-1.21l1.6-.31q.12.59.24,1.18c.31,1.46.64,2.92,1,4.35Zm209-.19-1.55-.49,1.71-5.44,1.55.49ZM508,555.31l-1.55-.49,1.7-5.44,1.55.49Zm-214.58-.22c-.23-2-.38-3.9-.43-5.76l1.63,0c.05,1.81.19,3.7.42,5.61Zm218-10.66-1.55-.49,1.71-5.44,1.55.49Zm-216.66-.75-1.62-.13a44.79,44.79,0,0,1,.83-5.74l1.59.34A43.24,43.24,0,0,0,294.76,543.68Zm220.07-10.13-1.55-.49,1.71-5.44,1.55.49Zm-217.7-.74-1.52-.58a33.92,33.92,0,0,1,2.53-5.26l1.4.83A32.26,32.26,0,0,0,297.13,532.8Zm213.2-4.68-5.69-.33.1-1.63,5.69.33Zm-11.39-.67-5.69-.33.1-1.63,5.69.33Zm-11.39-.67-5.69-.33.1-1.63,5.69.33Zm-11.39-.67-5.69-.33.1-1.63,5.69.33Zm-11.39-.67-5.69-.33.1-1.63,5.69.33Zm-11.39-.67-5.69-.33.1-1.63,5.69.33ZM442,524.1l-5.69-.33.1-1.63,5.69.33Zm-11.39-.67-5.69-.33.1-1.63,5.69.33Zm-127.84-.12-1.22-1.08a30.54,30.54,0,0,1,4.27-4l1,1.29A29,29,0,0,0,302.79,523.32Zm116.45-.55-5.69-.33.1-1.63,5.69.33Zm-11.39-.67-5.69-.33.1-1.63,5.69.33Zm-11.39-.67-5.69-.33.1-1.63,5.69.33Zm-11.39-.67-5.69-.33.1-1.63,5.69.33Zm-11.39-.67-5.69-.33.1-1.63,5.69.33Zm-11.39-.67-5.69-.33.1-1.63,5.69.33Zm-11.39-.67-5.69-.33.1-1.63,5.69.33Zm-11.39-.67-5.69-.33.1-1.63,5.69.33Zm-11.39-.67-5.69-.33.1-1.63,5.69.33Zm-11.39-.67-4.88-.29-.36.17-.7-1.47.59-.27.18-.08,5.27.31Z"/><path class="cls-4" d="M508.1,528.64l-19.55,67.55s16.95,85.82-118.11,50c-68.07-18-69.73-98-69.73-98s-6-33.47,50.17-38.56C350.88,509.67,448.33,502.53,508.1,528.64Z"/><path class="cls-17" d="M444,320.82c11.93-114.4,20.23-144.57,20.23-144.57L520.35,174l1.4,8.77s-21.65,2.84-19.65,11.05c23.2,94.83,31.77,136.64,36,154a10.56,10.56,0,0,0,2.09,4.23,26.52,26.52,0,0,0,17.63,9.38l2.94,9.14-65.48.08,2.43-8.42s16.49-4.46,17.54-10.78c.91-5.45-16.55-82-34.64-158.23l-3.64.26-21,159.34-22.71,1c-19.89-77.82-58.87-159.57-58.87-159.57l-2.71.35-8.76,156.66c1.18,5.79,25.79,11.38,25.79,11.38l-.18,9.47L306,374.12l.18-10s23.64-7.32,25.61-11.27c7.94-15.89,18.71-154,18.71-154-.26-9.6-18.81-10.78-18.81-10.78l.53-8.29,50.65-2.43C417.41,241.27,444,320.82,444,320.82Z"/><path class="cls-18" d="M304.76,375.37l.21-12.16.84-.26c11.37-3.52,23.79-8.47,24.88-10.65,7.68-15.36,18.29-149.81,18.58-153.5-.13-3.37-3-6-8.62-7.79a42.74,42.74,0,0,0-9.05-1.75l-1.22-.08.67-10.6,52.51-2.52.37.68c29.14,53.94,52.91,119.69,59.47,138.46,11.5-108.72,19.61-139,19.69-139.28l.24-.86,58-2.37,1.77,11.08-1.25.16c-4.08.54-15.28,2.83-18.1,7a3.09,3.09,0,0,0-.52,2.6c16.64,68,25.71,108.57,31.13,132.78,2.12,9.46,3.65,16.29,4.83,21.18a9.29,9.29,0,0,0,1.85,3.74,25.34,25.34,0,0,0,16.83,8.94l.78.09,3.7,11.48-68.78.08,3.08-10.64.66-.18c6.08-1.65,16-5.77,16.66-9.8.73-4.35-12.12-62.92-34.38-156.74l-1.61.12L457,353.92l-24.73,1-.25-1c-18.59-72.73-54.34-149.87-58.41-158.54l-.82.11L364.07,351c1,3.14,13.27,7.68,24.83,10.31l1,.22-.22,11.63ZM307.39,365l-.14,7.84,80-2.06.14-7.31c-5.81-1.38-24.54-6.25-25.74-12.11l0-.16v-.16l8.82-157.67,4.6-.59.38.8c.39.82,38.93,82.07,58.7,158.83l20.7-.87,21-159.31,5.67-.41.24,1c13.41,56.49,35.74,152.22,34.66,158.71-1.06,6.34-14.29,10.57-17.76,11.57l-1.79,6.2,62.18-.07-2.19-6.81a27.69,27.69,0,0,1-17.65-9.71,11.72,11.72,0,0,1-2.33-4.71c-1.18-4.91-2.72-11.75-4.83-21.22-5.42-24.21-14.48-64.72-31.12-132.74a5.48,5.48,0,0,1,.87-4.56c3.39-5,14.74-7.18,18.56-7.81l-1-6.48-54.07,2.2c-1.39,5.68-9.26,40.73-20,143.51l-.58,5.61-1.79-5.34c-.27-.79-26.81-79.61-60.74-142.62l-48.79,2.34-.38,6c4.33.47,18.49,2.69,18.74,11.86v.13c-.44,5.65-10.88,138.55-18.84,154.47C330.9,357.36,312.83,363.31,307.39,365Z"/><path class="cls-19" d="M309.32,370.77l.07-4.26.55-.18,2.69-.9.53,1.54-2.16.73,0,1.4,2-.05,0,1.63Z"/><path class="cls-19" d="M318.42,365.12l-.56-1.53,1.53-.57c1.32-.5,2.52-1,3.62-1.42l.61,1.51c-1.11.45-2.33.93-3.66,1.43Zm10.34-4.28-.72-1.46a27,27,0,0,0,4.63-2.73l1,1.29A28.51,28.51,0,0,1,328.76,360.84ZM337,353l-1.54-.55a53.79,53.79,0,0,0,1.5-5.28l1.58.38A55.56,55.56,0,0,1,337,353Zm2.74-10.93-1.6-.32c.33-1.68.67-3.51,1-5.47l1.61.28C340.4,338.56,340.06,340.41,339.73,342.1Zm1.92-11-1.61-.25q.42-2.65.83-5.5l1.61.24Q342.08,328.42,341.66,331.09Zm1.62-11-1.61-.22q.37-2.7.74-5.52l1.62.21Q343.65,317.34,343.28,320ZM344.72,309l-1.62-.2q.34-2.72.68-5.52l1.62.19Q345.06,306.26,344.72,309Zm1.33-11.07-1.62-.19q.32-2.74.63-5.53l1.62.18Q346.37,295.17,346.05,297.92Zm1.24-11.07-1.62-.18q.3-2.75.59-5.53l1.62.17Q347.59,284.09,347.29,286.85Zm1.17-11.08-1.62-.17q.29-2.77.57-5.54l1.62.16Q348.76,273,348.47,275.77Zm1.12-11.08-1.62-.16q.28-2.79.54-5.54l1.62.16Q349.86,261.9,349.59,264.69Zm1.07-11.09-1.62-.15q.27-2.8.52-5.54l1.62.15Q350.93,250.79,350.66,253.6Zm1-11.09-1.62-.15q.26-2.82.5-5.55l1.62.14Q352,239.67,351.69,242.5Zm1-11.1-1.62-.14q.25-2.86.48-5.55l1.62.14Q352.94,228.54,352.69,231.4Zm1-11.11-1.62-.14.47-5.56,1.62.14Zm.93-11.12L353,209c.17-2.12.32-4,.45-5.56l1.62.13C354.9,205.18,354.75,207.05,354.57,209.18ZM353.72,198a10.1,10.1,0,0,0-1.69-4.8l1.35-.91a11.7,11.7,0,0,1,2,5.56Zm-5.43-8.41a23.6,23.6,0,0,0-4.8-2.4l.57-1.53a25.25,25.25,0,0,1,5.13,2.57Z"/><path class="cls-19" d="M338.62,185.8c-.89-.2-1.82-.38-2.75-.53l-.73-.12.14-2.27,3.58-.17.07,1.49h0Z"/><path class="cls-19" d="M344.47,184.07l-.08-1.63,5.54-.27.08,1.63Zm11.07-.53-.08-1.63,5.54-.27.08,1.63Zm11.07-.53-.08-1.63,5.54-.27.08,1.63Z"/><path class="cls-19" d="M381.11,184.42,380,182.36l-2.33.11-.08-1.63,3.36-.16.24.45,1.34,2.52Z"/><path class="cls-19" d="M442.71,332.21l-1.82-5.43,1.54-.52,1.82,5.43Zm-3.64-10.86c-.36-1.05-1-2.9-1.88-5.42l1.54-.54c.89,2.53,1.52,4.37,1.88,5.43Zm-3.79-10.82c-.59-1.65-1.24-3.45-1.95-5.39l1.53-.56c.71,1.94,1.36,3.74,1.95,5.39Zm-3.92-10.76q-.95-2.57-2-5.37l1.53-.57q1,2.8,2,5.37Zm-4-10.72q-1-2.6-2-5.35l1.52-.59q1.06,2.75,2,5.35Zm-4.12-10.68q-1-2.61-2.09-5.33l1.51-.6q1.08,2.72,2.1,5.33ZM419,267.72q-1.05-2.62-2.14-5.31l1.51-.61q1.09,2.69,2.15,5.31Zm-4.31-10.6q-1.08-2.62-2.19-5.29l1.5-.63q1.12,2.67,2.2,5.29Zm-4.42-10.56q-1.11-2.61-2.25-5.26l1.5-.64q1.14,2.65,2.25,5.27ZM405.76,236q-1.14-2.61-2.31-5.24l1.49-.66q1.17,2.63,2.31,5.25Zm-4.64-10.46q-1.17-2.6-2.37-5.21l1.48-.68q1.2,2.61,2.37,5.22Zm-4.77-10.4q-1.21-2.59-2.44-5.19l1.47-.7q1.24,2.6,2.45,5.2Zm-4.92-10.35q-1.25-2.57-2.52-5.14l1.46-.72q1.27,2.57,2.52,5.15Zm-5.07-10.25q-1.29-2.55-2.59-5.09l1.45-.75q1.31,2.54,2.6,5.1Z"/><polygon class="cls-19" points="446.57 343.75 444.48 337.48 445.63 337.09 445.64 337 445.83 337.02 446.02 336.96 446.05 337.05 447.26 337.17 446.57 343.75"/><path class="cls-19" d="M447.86,331.44l-1.62-.17.6-5.73,1.62.17ZM449.05,320l-1.62-.17q.3-2.9.6-5.73l1.62.17Q449.35,317.09,449.05,320Zm1.22-11.45-1.62-.17q.31-2.9.62-5.73l1.62.18Q450.58,305.64,450.27,308.54Zm1.25-11.45-1.62-.18q.32-2.91.64-5.72l1.62.18Q451.84,294.19,451.52,297.09Zm1.3-11.44-1.62-.19q.34-2.91.67-5.72l1.62.19Q453.15,282.74,452.82,285.65Zm1.34-11.43-1.62-.19q.35-2.91.69-5.72l1.62.2Q454.51,271.3,454.16,274.21Zm1.39-11.43-1.62-.2q.36-2.92.72-5.72l1.62.21Q455.91,259.87,455.55,262.79ZM457,251.37l-1.62-.21q.38-2.92.75-5.71l1.61.21Q457.38,248.44,457,251.37ZM458.51,240l-1.61-.22q.4-2.94.79-5.71l1.61.23Q458.91,237,458.51,240Zm1.59-11.4-1.61-.23q.42-3,.83-5.7l1.61.24Q460.53,225.61,460.1,228.55Zm1.68-11.38-1.61-.25q.45-3,.88-5.69l1.61.25Q462.24,214.2,461.78,217.17Zm1.8-11.36-1.61-.26q.5-3,1-5.68l1.61.28Q464.08,202.79,463.58,205.81Zm1.95-11.33-1.6-.29c.38-2.11.73-4,1.06-5.67l1.6.31C466.26,190.49,465.91,192.37,465.53,194.47Z"/><path class="cls-19" d="M467.72,183.15l-1.59-.34c.23-1.1.43-2,.61-2.79l.14-.61,3.47-.14.07,1.63-2.22.09C468,181.61,467.89,182.33,467.72,183.15Z"/><path class="cls-19" d="M476.65,180.64l-.07-1.63,6.24-.25.07,1.63Zm12.48-.51-.07-1.63,6.24-.25.07,1.63Zm12.48-.51-.07-1.63,6.24-.25.07,1.63Z"/><path class="cls-19" d="M514.5,180.81l-.39-1.58.57-.14-.6,0-.07-1.63,3.57-.15L518,180l-.77.15C516.32,180.38,515.39,180.59,514.5,180.81Z"/><path class="cls-19" d="M546.29,363a31.25,31.25,0,0,1-4.87-3l1-1.3A29.59,29.59,0,0,0,547,361.5ZM537.19,356c-.3-.34-.58-.66-.83-1a15.34,15.34,0,0,1-2.35-3.95l1.51-.61a13.71,13.71,0,0,0,2.1,3.53c.23.29.49.59.78.91Zm-4.67-10.43c-.38-1.64-.8-3.46-1.25-5.46l1.59-.36c.45,2,.87,3.81,1.25,5.45ZM530,334.68l-1.22-5.46,1.59-.36,1.22,5.46Zm-2.44-10.92-1.22-5.46,1.59-.36,1.22,5.46Zm-2.45-10.92-1.23-5.46,1.59-.36,1.23,5.46Zm-2.47-10.91-1.24-5.46,1.59-.36,1.24,5.46ZM520.18,291l-1.25-5.45,1.59-.37,1.25,5.45Zm-2.51-10.9-1.26-5.45,1.59-.37,1.26,5.45Zm-2.53-10.9-1.27-5.45,1.59-.37,1.27,5.45Zm-2.55-10.89-1.28-5.45,1.59-.37,1.28,5.45ZM510,247.43,508.72,242l1.58-.38,1.29,5.44Zm-2.59-10.89-1.3-5.44,1.58-.38,1.3,5.44Zm-2.61-10.88-1.31-5.44,1.58-.38,1.31,5.44Zm-2.63-10.88-1.32-5.44,1.58-.38,1.32,5.44Zm-2.64-10.88-1.33-5.44,1.58-.39,1.33,5.44Zm-2.46-11.09v-.1a9.2,9.2,0,0,1,1.68-5.27l.24-.33,1.31,1-.2.28a7.6,7.6,0,0,0-1.4,4.35Zm7.22-8.13-.83-1.4a31.43,31.43,0,0,1,5.2-2.42l.56,1.53A29.8,29.8,0,0,0,504.3,184.69Z"/><path class="cls-19" d="M552.29,367.24v-1.63h1.47c-.7-.16-1.4-.34-2.08-.54l.46-1.56c.88.26,1.79.48,2.7.66l.47.09,1,3Z"/><path class="cls-19" d="M508.94,367.29v-1.63h5.42v1.63Zm10.84,0v-1.63h5.42v1.63Zm10.84,0v-1.63H536v1.63Zm10.84,0v-1.63h5.42v1.63Z"/><path class="cls-19" d="M499.58,367.3l.73-2.52.42-.13c.9-.28,1.8-.58,2.67-.9l.55,1.53-1.09.38h.65v1.63Z"/><path class="cls-19" d="M509.19,363.1l-.71-1.47a32.66,32.66,0,0,0,4.72-2.75l.95,1.33A34.28,34.28,0,0,1,509.19,363.1Zm9.17-7L517,355.2a8.07,8.07,0,0,0,1.41-3.29,4.79,4.79,0,0,0,.07-.9c0-.16,0-.34,0-.54l1.63-.08c0,.24,0,.44,0,.62a6.36,6.36,0,0,1-.09,1.17A9.68,9.68,0,0,1,518.36,356.13ZM517.83,345c-.25-1.56-.56-3.41-.95-5.49l1.6-.29c.38,2.09.7,4,1,5.53Zm-2-11c-.32-1.66-.69-3.48-1.09-5.48l1.6-.32c.41,2,.77,3.83,1.1,5.49Zm-2.22-11q-.54-2.58-1.15-5.48l1.59-.34q.62,2.9,1.15,5.48Zm-2.33-10.95q-.57-2.62-1.19-5.47l1.59-.35q.62,2.86,1.19,5.48Zm-2.39-10.94-1.21-5.47,1.59-.35,1.21,5.47Zm-2.43-10.93-1.23-5.47,1.59-.36,1.23,5.47ZM504,279.33l-1.24-5.46,1.59-.36L505.6,279Zm-2.49-10.93-1.25-5.46,1.59-.37,1.25,5.46ZM499,257.48,497.75,252l1.59-.37,1.26,5.46Zm-2.53-10.92-1.27-5.46,1.59-.37,1.27,5.46Zm-2.54-10.92-1.28-5.46,1.59-.37,1.28,5.46Zm-2.56-10.92-1.28-5.46,1.59-.37,1.28,5.46Zm-2.57-10.91-1.29-5.46,1.59-.37,1.29,5.46Zm-2.58-10.91-1.29-5.46,1.59-.38,1.29,5.46Z"/><polygon class="cls-19" points="483.61 191.79 483.11 189.69 480.96 189.85 480.84 188.22 484.37 187.97 485.19 191.41 483.61 191.79"/><polygon class="cls-19" points="473.77 192.51 472.15 192.3 472.61 188.82 476.12 188.56 476.24 190.19 474.05 190.35 473.77 192.51"/><path class="cls-19" d="M454.23,340.41l-1.61-.21.75-5.69,1.61.21Zm1.5-11.38-1.61-.21.75-5.69,1.61.21Zm1.5-11.38-1.61-.21.75-5.69L458,312Zm1.5-11.38-1.61-.21.75-5.69,1.61.21Zm1.5-11.38-1.61-.21.75-5.69,1.61.21Zm1.5-11.38-1.61-.21.75-5.69,1.61.21Zm1.5-11.38-1.61-.21.75-5.69,1.61.21Zm1.5-11.38-1.61-.21.75-5.69,1.61.21Zm1.5-11.38-1.61-.21.75-5.69,1.61.21Zm1.5-11.38-1.61-.21.75-5.69,1.61.21Zm1.5-11.38-1.61-.21.75-5.69L470,221Zm1.5-11.38-1.61-.21.75-5.69,1.61.21Zm1.5-11.38-1.61-.21.75-5.69,1.61.21Z"/><polygon class="cls-19" points="449.49 349.75 449.42 348.12 451.58 348.03 451.87 345.88 453.48 346.1 453.02 349.6 449.49 349.75"/><rect class="cls-19" x="442.58" y="348.34" width="3.44" height="1.63" transform="matrix(1, -0.04, 0.04, 1, -14.27, 18.97)"/><path class="cls-19" d="M435.68,350.33l-.17-.64-.73-2.75,1.57-.42.56,2.12,2.19-.09.07,1.63Z"/><path class="cls-19" d="M433.29,341.47q-.76-2.73-1.54-5.47l1.57-.45q.79,2.74,1.55,5.48Zm-3.13-10.93q-.81-2.73-1.64-5.45l1.56-.47q.83,2.73,1.64,5.46Zm-3.32-10.89q-.85-2.72-1.72-5.43l1.55-.5q.87,2.72,1.73,5.45Zm-3.48-10.84q-.89-2.71-1.79-5.4l1.54-.52q.91,2.69,1.8,5.41ZM419.73,298q-.93-2.7-1.86-5.38l1.54-.54q.94,2.68,1.87,5.38ZM416,287.28q-1-2.7-1.93-5.35l1.53-.56q1,2.66,1.93,5.36Zm-3.88-10.7q-1-2.69-2-5.33l1.53-.57q1,2.65,2,5.34Zm-4-10.65q-1-2.69-2-5.31l1.52-.59q1,2.63,2,5.32ZM404,255.32q-1.05-2.68-2.09-5.29l1.51-.6q1,2.61,2.1,5.3Zm-4.21-10.57q-1.09-2.69-2.14-5.27l1.51-.62q1.06,2.59,2.15,5.28Zm-4.31-10.53q-1.12-2.69-2.19-5.25l1.5-.63q1.08,2.56,2.2,5.26ZM391,223.72q-1.16-2.71-2.24-5.23l1.5-.65q1.09,2.52,2.25,5.24Zm-4.51-10.45q-1.21-2.77-2.3-5.21l1.49-.66q1.08,2.44,2.3,5.22Zm-4.62-10.41c-.91-2-1.7-3.74-2.36-5.18L381,197c.66,1.44,1.46,3.18,2.36,5.19Z"/><polygon class="cls-19" points="377.21 192.64 376.24 190.6 374 190.89 373.79 189.27 377.2 188.83 378.68 191.94 377.21 192.64"/><polygon class="cls-19" points="368.38 193.77 366.75 193.68 366.94 190.16 370.44 189.71 370.65 191.32 368.5 191.6 368.38 193.77"/><path class="cls-19" d="M376.07,364.12l-1.46-.48c-1.4-.47-2.71-.94-3.89-1.4l.59-1.52c1.16.45,2.45.91,3.82,1.38l1.44.48Zm-10.58-4.21a20.7,20.7,0,0,1-4.82-3.3l1.13-1.17a19.15,19.15,0,0,0,4.44,3Zm-5.93-8.73-1.63-.09.31-5.62,1.63.09Zm.63-11.24-1.63-.09.31-5.62,1.63.09Zm.63-11.24-1.63-.09.31-5.62,1.63.09Zm.63-11.24-1.63-.09.31-5.62,1.63.09Zm.63-11.24-1.63-.09.31-5.62,1.63.09Zm.63-11.24-1.63-.09.31-5.62,1.63.09Zm.63-11.24-1.63-.09L362,278l1.63.09Zm.63-11.24-1.63-.09.31-5.62,1.63.09Zm.63-11.24-1.63-.09.31-5.62,1.63.09Zm.63-11.24-1.63-.09.31-5.62,1.63.09Zm.63-11.24-1.63-.09.31-5.62,1.63.09Zm.63-11.24-1.63-.09.31-5.62,1.63.09Zm.63-11.24-1.63-.09.31-5.62,1.63.09Zm.63-11.24-1.63-.09.31-5.62,1.63.09Z"/><path class="cls-19" d="M381.62,368.91l0-1.63,2.07-.05,0-.9-2.15-.58.44-1.57,2.74.74.62.16-.07,3.75Z"/><path class="cls-19" d="M318.3,370.54l0-1.63,5.28-.14,0,1.63Zm10.55-.27,0-1.63,5.28-.14,0,1.63Zm10.55-.27,0-1.63,5.28-.14,0,1.63Zm10.55-.27,0-1.63,5.28-.14,0,1.63Zm10.55-.27,0-1.63,5.28-.14,0,1.63Zm10.55-.27,0-1.63,5.28-.14,0,1.63Z"/><polygon class="cls-16" points="302.12 363.37 300.49 363.34 300.55 359.9 303.84 358.88 304.32 360.43 302.16 361.1 302.12 363.37"/><path class="cls-16" d="M309.67,358.71l-.52-1.54c1.78-.6,3.55-1.22,5.27-1.85l.56,1.53C313.25,357.48,311.46,358.1,309.67,358.71Zm10.57-3.9-.61-1.51c2.05-.83,3.76-1.59,5.07-2.25l.73,1.46C324.08,353.19,322.33,354,320.24,354.81Zm9-6.81-1.56-.46c.41-1.41.86-3.23,1.31-5.4l1.59.33C330.14,344.69,329.68,346.55,329.26,348Zm2.4-11.06-1.6-.28c.3-1.72.61-3.57.92-5.52l1.61.26C332.28,333.36,332,335.21,331.66,336.94Zm1.78-11.11-1.61-.24q.39-2.67.79-5.55l1.61.22Q333.83,323.14,333.44,325.83ZM335,314.69l-1.62-.21q.35-2.71.71-5.56l1.62.2Q335.32,312,335,314.69Zm1.39-11.15-1.62-.19q.33-2.74.66-5.57L337,298Q336.69,300.8,336.36,303.54Zm1.29-11.16L336,292.2q.31-2.76.62-5.58l1.62.18Q338,289.62,337.66,292.39Zm1.22-11.16-1.62-.17q.29-2.77.59-5.58l1.62.17Q339.17,278.45,338.88,281.22ZM340,270.06l-1.62-.16q.28-2.78.56-5.58l1.62.16Q340.32,267.27,340,270.06Zm1.11-11.16-1.62-.16q.27-2.79.54-5.58l1.62.16Q341.42,256.1,341.14,258.89Zm1.07-11.18-1.62-.15q.26-2.8.52-5.59l1.62.15Q342.47,244.91,342.21,247.71Zm1-11.18-1.62-.15q.25-2.81.5-5.59l1.62.14Q343.49,233.72,343.24,236.53Zm1-11.18-1.62-.14.48-5.59,1.62.14Zm1-11.19-1.62-.14q.24-2.83.46-5.59l1.62.13Q345.41,211.33,345.18,214.16Zm.91-11.19-1.62-.13.32-4a1.82,1.82,0,0,0-.42-.82l1.25-1a3.33,3.33,0,0,1,.79,1.73v.08Zm-6.18-7.49a34.2,34.2,0,0,0-5.31-1.34l.28-1.61a35.89,35.89,0,0,1,5.56,1.41Z"/><polygon class="cls-16" points="329.29 193.61 325.63 193.38 325.87 189.72 327.49 189.82 327.36 191.85 329.4 191.98 329.29 193.61"/><rect class="cls-16" x="325.08" y="183.04" width="3.95" height="1.63" transform="translate(122.82 498.58) rotate(-86.36)"/><polygon class="cls-16" points="328.25 177.99 326.62 177.88 326.85 174.31 330.42 174.14 330.5 175.76 328.38 175.87 328.25 177.99"/><path class="cls-16" d="M336.32,175.49l-.08-1.63,5.82-.28.08,1.63Zm11.64-.56-.08-1.63,5.82-.28.08,1.63Zm11.64-.56-.08-1.63,5.82-.28.08,1.63Zm11.64-.56-.08-1.63,5.82-.28.08,1.63Z"/><polygon class="cls-16" points="386.34 175.2 385.23 173.14 382.89 173.25 382.82 171.63 386.18 171.47 387.77 174.42 386.34 175.2"/><path class="cls-16" d="M437.73,291.21q-1-2.61-2-5.4l1.52-.58q1.06,2.79,2,5.41Zm-4.1-10.79q-1-2.63-2.09-5.38l1.52-.59q1.08,2.75,2.09,5.39Zm-4.2-10.76q-1-2.64-2.14-5.36l1.51-.61q1.09,2.73,2.14,5.37Zm-4.3-10.72q-1.07-2.64-2.19-5.34l1.51-.62q1.12,2.7,2.19,5.35Zm-4.4-10.67q-1.1-2.64-2.24-5.32l1.5-.64q1.14,2.68,2.24,5.33Zm-4.51-10.63q-1.13-2.63-2.3-5.3l1.49-.65q1.16,2.67,2.3,5.3Zm-4.62-10.58q-1.17-2.62-2.36-5.27l1.49-.67q1.19,2.65,2.36,5.28Zm-4.75-10.52q-1.2-2.62-2.43-5.24l1.48-.69q1.23,2.63,2.43,5.25ZM402,206.07q-1.24-2.6-2.5-5.2l1.47-.71q1.26,2.61,2.5,5.22Zm-5-10.39q-1.28-2.59-2.58-5.16l1.45-.73q1.3,2.58,2.58,5.17Zm-5.2-10.3q-1.32-2.57-2.66-5.11l1.44-.76q1.34,2.55,2.67,5.12Z"/><polygon class="cls-16" points="441.91 302.5 439.73 296.58 440.97 296.12 440.98 296.04 441.13 296.06 441.26 296.01 441.28 296.07 442.6 296.22 441.91 302.5"/><path class="cls-16" d="M443.25,290.39l-1.62-.18q.33-3,.66-5.83l1.62.19Q443.59,287.43,443.25,290.39Zm1.34-11.66-1.62-.19q.35-3,.69-5.83l1.62.19Q444.94,275.77,444.59,278.73ZM446,267.09l-1.62-.2q.36-3,.72-5.83l1.62.2Q446.34,264.12,446,267.09Zm1.44-11.64-1.62-.2q.38-3,.75-5.82l1.62.21Q447.8,252.47,447.43,255.44Zm1.51-11.63-1.61-.21q.4-3,.78-5.82l1.61.22Q449.33,240.83,448.93,243.81Zm1.58-11.62L448.9,232q.42-3,.82-5.81l1.61.23Q450.93,229.19,450.52,232.19Zm1.67-11.61-1.61-.24q.45-3,.87-5.8l1.61.25Q452.63,217.57,452.18,220.58ZM454,209l-1.61-.26q.49-3.06.94-5.8l1.61.27Q454.44,205.94,454,209Zm1.91-11.56-1.61-.28q.55-3.14,1-5.78l1.6.29Q456.42,194.3,455.87,197.43ZM458,185.91l-1.6-.31c.41-2.08.81-4,1.19-5.76l1.59.35C458.8,181.92,458.4,183.84,458,185.91Z"/><polygon class="cls-16" points="460.55 174.48 458.97 174.05 459.89 170.72 463.33 170.58 463.4 172.21 461.14 172.3 460.55 174.48"/><path class="cls-16" d="M468.7,172l-.07-1.63,5.3-.22.07,1.63Zm10.59-.43-.07-1.63,5.3-.22.07,1.63Zm10.59-.43-.07-1.63,5.3-.22.07,1.63Zm10.59-.43-.07-1.63,5.3-.22.07,1.63Zm10.59-.43-.07-1.63,5.3-.22.07,1.63Z"/><polygon class="cls-16" points="524.13 171.85 523.8 169.75 521.67 169.84 521.6 168.21 525.18 168.06 525.74 171.59 524.13 171.85"/><rect class="cls-16" x="525.11" y="175.83" width="1.63" height="4.18" transform="translate(-21.5 85.3) rotate(-9.09)"/><polygon class="cls-16" points="524.65 188.11 524.44 186.49 526.43 186.23 526.11 184.24 527.72 183.99 528.31 187.63 524.65 188.11"/><path class="cls-16" d="M514.4,190.13l-.47-1.56c1.68-.5,3.43-.93,5.22-1.28l.31,1.6C517.75,189.22,516,189.65,514.4,190.13Z"/><path class="cls-16" d="M506.79,195.81l-.76-3.13.21-.3a6.93,6.93,0,0,1,2.62-1.89l.72,1.46a7.61,7.61,0,0,0-1.78,1.12l.58,2.36Z"/><path class="cls-16" d="M552.86,356a22.54,22.54,0,0,1-5.19-2.65l.92-1.34a20.93,20.93,0,0,0,4.81,2.46Zm-9.51-6.59-.05-.06a6.46,6.46,0,0,1-1.28-2.6q-.33-1.35-.69-2.92l1.59-.37q.36,1.56.69,2.9a4.85,4.85,0,0,0,1,2l.05.07Zm-3.29-11.07q-.58-2.54-1.24-5.5l1.59-.36q.67,3,1.24,5.49Zm-2.47-11-1.23-5.49,1.59-.36,1.23,5.5Zm-2.46-11-1.24-5.49,1.59-.36,1.24,5.49Zm-2.47-11-1.24-5.49,1.59-.36,1.25,5.49Zm-2.5-11-1.26-5.49,1.59-.36,1.26,5.49Zm-2.52-11L526.37,278l1.59-.37,1.27,5.49Zm-2.54-11L523.82,267l1.59-.37,1.28,5.48Zm-2.56-11L521.25,256l1.59-.37,1.29,5.48Zm-2.58-11-1.3-5.48,1.59-.38,1.3,5.48Zm-2.6-11-1.31-5.48,1.58-.38,1.31,5.48Zm-2.62-11-1.32-5.48,1.58-.38,1.32,5.48Zm-2.63-10.95-1.32-5.47,1.58-.38,1.32,5.47Zm-2.65-10.95-1.33-5.47,1.58-.39,1.33,5.47Z"/><polygon class="cls-16" points="561.57 359.83 560.86 357.62 558.55 357.34 558.74 355.72 562.09 356.12 563.13 359.33 561.57 359.83"/><rect class="cls-16" x="563.64" y="363.83" width="1.63" height="4.58" transform="translate(-85.03 190.55) rotate(-17.84)"/><polygon class="cls-16" points="564.58 376.19 564.58 374.56 566.31 374.56 565.78 372.9 567.33 372.41 568.55 376.18 564.58 376.19"/><path class="cls-16" d="M497.21,376.27v-1.63h5.61v1.63Zm11.23,0v-1.63h5.61v1.63Zm11.23,0v-1.63h5.61v1.63Zm11.23,0V374.6h5.61v1.63Zm11.23,0v-1.63h5.61v1.63Zm11.23,0v-1.63H559v1.63Z"/><polygon class="cls-16" points="487.66 376.28 488.75 372.5 490.32 372.95 489.83 374.65 491.59 374.64 491.6 376.27 487.66 376.28"/><rect class="cls-16" x="489.19" y="365.99" width="4.11" height="1.63" transform="translate(2.38 736.77) rotate(-73.87)"/><polygon class="cls-16" points="493.74 361.11 492.17 360.66 493.09 357.48 496.29 356.62 496.71 358.19 494.4 358.81 493.74 361.11"/><path class="cls-16" d="M502.29,356.31l-.6-1.51a41.61,41.61,0,0,0,5.13-2.42l.81,1.41A43.26,43.26,0,0,1,502.29,356.31ZM509.4,349c-.17-1.34-.47-3.25-.91-5.67l1.6-.29c.44,2.45.75,4.39.92,5.76Zm-2-11.35q-.5-2.58-1.13-5.67l1.6-.32q.63,3.1,1.13,5.68Zm-2.3-11.34q-.56-2.68-1.19-5.66l1.59-.34q.64,3,1.19,5.67Zm-2.41-11.32q-.59-2.72-1.23-5.66l1.59-.35q.64,2.94,1.23,5.66Zm-2.47-11.31L499,298l1.59-.35,1.25,5.65Zm-2.51-11.3-1.27-5.65,1.59-.36,1.27,5.65ZM495.19,281l-1.28-5.65,1.59-.36,1.28,5.65Zm-2.57-11.29-1.29-5.64,1.59-.37,1.29,5.64ZM490,258.46l-1.3-5.64,1.59-.37,1.3,5.64Zm-2.61-11.28-1.31-5.64,1.59-.37,1.31,5.64Zm-2.63-11.28-1.32-5.64,1.59-.37,1.32,5.64Zm-2.64-11.28L480.83,219l1.59-.37,1.32,5.64Z"/><polygon class="cls-16" points="479.49 213.31 479.46 213.2 478.45 213.07 479.4 205.84 481.08 212.94 480.08 213.17 480.06 213.28 479.77 213.24 479.49 213.31"/><path class="cls-16" d="M462.13,349.07l-1.61-.21.75-5.66,1.61.21Zm1.49-11.32-1.61-.21.75-5.66,1.61.21Zm1.49-11.32-1.61-.21.75-5.66,1.61.21Zm1.49-11.32-1.61-.21.75-5.66,1.61.21Zm1.49-11.32-1.61-.21.75-5.66,1.61.21Zm1.49-11.32-1.61-.21.75-5.66,1.61.21Zm1.49-11.32-1.61-.21.75-5.66,1.61.21Zm1.49-11.32-1.61-.21.75-5.66,1.61.21Zm1.49-11.32-1.61-.21.75-5.66,1.61.21Zm1.49-11.32L474,247l.75-5.66,1.61.21Zm1.49-11.32-1.61-.21.75-5.66,1.61.21Zm1.49-11.32-1.61-.21.75-5.66,1.61.21Z"/><polygon class="cls-16" points="457.38 358.39 457.31 356.76 459.48 356.67 459.76 354.52 461.38 354.73 460.92 358.24 457.38 358.39"/><path class="cls-16" d="M437.32,359.23l-.07-1.63,5-.21.07,1.63Zm10-.42-.07-1.63,5-.21.07,1.63Z"/><polygon class="cls-16" points="428.8 359.59 427.93 356.19 429.51 355.79 430.05 357.91 432.24 357.82 432.31 359.44 428.8 359.59"/><path class="cls-16" d="M426.5,350.69q-.72-2.74-1.48-5.48l1.57-.43q.76,2.75,1.48,5.5Zm-3-11q-.78-2.73-1.58-5.46l1.56-.46q.8,2.74,1.58,5.47Zm-3.21-10.91q-.83-2.73-1.67-5.44l1.56-.48q.85,2.72,1.68,5.45Zm-3.38-10.87q-.87-2.72-1.75-5.42l1.55-.51q.89,2.71,1.76,5.43Zm-3.54-10.82q-.91-2.71-1.82-5.39l1.54-.53q.92,2.69,1.83,5.4Zm-3.68-10.77q-.94-2.7-1.89-5.37l1.54-.55q.95,2.67,1.89,5.38Zm-3.81-10.72q-1-2.69-2-5.34l1.53-.56q1,2.66,2,5.35ZM401.93,275q-1-2.69-2-5.32l1.52-.58q1,2.64,2,5.33Zm-4-10.64q-1-2.69-2.07-5.3l1.52-.6q1,2.62,2.07,5.31Zm-4.16-10.6q-1.07-2.69-2.12-5.28l1.51-.61q1,2.6,2.12,5.29Zm-4.26-10.55q-1.1-2.69-2.17-5.26l1.51-.62q1.07,2.58,2.17,5.27Zm-4.36-10.51q-1.14-2.7-2.22-5.24l1.5-.64q1.08,2.54,2.22,5.25Zm-4.46-10.47q-1.18-2.73-2.27-5.22l1.49-.65q1.09,2.49,2.27,5.23Z"/><path class="cls-16" d="M376.1,211.82l0-.05-1.36-.08.35-6.2,1.37,3.06,1.16,2.6-1.25.55v.07h-.13Z"/><path class="cls-16" d="M369.1,341.22l-1.63-.09.33-5.88,1.63.09Zm.66-11.77-1.63-.09.33-5.88,1.63.09Zm.66-11.77-1.63-.09.33-5.88,1.63.09Zm.66-11.77-1.63-.09.33-5.88,1.63.09Zm.66-11.77-1.63-.09.33-5.88,1.63.09Zm.66-11.77-1.63-.09.33-5.88,1.63.09Zm.66-11.77-1.63-.09.33-5.88,1.63.09Zm.66-11.77-1.63-.09.33-5.88L374,253Zm.66-11.77-1.63-.09.33-5.88,1.63.09Zm.66-11.77-1.63-.09.33-5.88,1.63.09Zm.66-11.77-1.63-.09.33-5.88,1.63.09Z"/><path class="cls-16" d="M369.87,352.11a14,14,0,0,1-2.59-1.58l-.32-.26.18-3.26,1.63.09-.14,2.42a15.32,15.32,0,0,0,2,1.13Z"/><path class="cls-16" d="M383.58,357c-2.42-.68-4.76-1.41-6.93-2.17l.54-1.54c2.15.75,4.45,1.47,6.84,2.14Z"/><polygon class="cls-16" points="394.35 361.51 392.72 361.48 392.76 359.29 390.62 358.8 390.98 357.21 394.41 357.99 394.35 361.51"/><rect class="cls-16" x="391.35" y="366.89" width="4.14" height="1.63" transform="translate(18.48 754.23) rotate(-88.94)"/><polygon class="cls-16" points="390.42 377.65 390.38 376.02 392.45 375.97 392.49 373.9 394.12 373.93 394.05 377.56 390.42 377.65"/><path class="cls-16" d="M309.67,379.73l0-1.63,5.77-.15,0,1.63Zm11.54-.3,0-1.63,5.77-.15,0,1.63Zm11.54-.3,0-1.63,5.77-.15,0,1.63Zm11.54-.3,0-1.63,5.77-.15,0,1.63Zm11.54-.3,0-1.63,5.77-.15,0,1.63Zm11.54-.3,0-1.63,5.77-.15,0,1.63Zm11.54-.3,0-1.63,5.77-.15,0,1.63Z"/><polygon class="cls-16" points="300.2 379.97 300.26 376.27 301.89 376.3 301.86 378.3 303.86 378.25 303.9 379.88 300.2 379.97"/><rect class="cls-16" x="299.04" y="369" width="4.31" height="1.63" transform="translate(-73.86 664.46) rotate(-88.99)"/><path class="cls-20" d="M449.25,546.13c-98.63,1.58-87.1-7-130.84-8.93,0,0-14.55,101.16,113.41,81.18Z"/><path class="cls-21" d="M320.38,566.83s8.69,59.72,83.53,52.31C403.91,619.14,396.93,566.83,320.38,566.83Z"/><path class="cls-22" d="M484.64,542.06,318.41,537.2s7,41.54,127.53,27.53l8.22-18.52,6-.07-.77,17.71c7.33-.95,8.75-2.1,16.89-3.46Z"/><path class="cls-6" d="M512.9,304.12s41.69,43.69,134.44,25.77l-26.18-14.17,20.7-16.42s-91.52,7.5-129.07-59c0,0-5.17,23.48,2.79,37.42C515.58,277.75,503.7,285.46,512.9,304.12Z"/><path class="cls-22" d="M328.54,588.2c13.92,22.17,43.44,43,109.45,29.47,0,0,4.58-11.54,4.17-11.55C365.31,604.65,328.54,588.2,328.54,588.2Z"/><path class="cls-6" d="M399.85,308.17s-61.76,42.32-154.08,22.35l20.11-9.11L247.72,300.9s107.86,9,146.88-56.65c0,0,11.42,23.74,3.15,37.5C397.75,281.75,409.46,289.72,399.85,308.17Z"/><path class="cls-6" d="M520.57,476s18.23,39.1,21.41,60.42c0,0-154,5.63-244.94-7.11,0,0,14.87-34.06,37.53-55.18Z"/><path class="cls-23" d="M501.39,537.13s-103.1,2.17-116.1-.83l22.27-61.42,81.19.81Z"/><path d="M109.19,449.59l11.41,69.95a5.93,5.93,0,0,0,7.23,4.81l14.44-5A5.93,5.93,0,0,0,146.6,512l-21-59.18,117.38-60.12L254,466.51a22.39,22.39,0,0,0,23.09,18.67l118.24-4.26c10.87-.42,19.73-9.38,20.71-21.07l4.56-57.11,7.56-1.87c11.42-2.82,38.83-2.76,50.22.18l6.69,1.72L489.74,460c1,11.7,9.9,20.69,20.78,21.07L621.44,485c10.87.38,20.36-7.9,22.21-19.48l10.47-73,12.47,2.09a3.26,3.26,0,0,0,3.74-2.67l2.81-16.83a3.26,3.26,0,0,0-2.67-3.74l-12.64-2.12,2.22-13.91c2.23-14-7.44-26.77-20.55-27.23L503.3,323.32c-13.1-.46-23.61,11.5-22.4,25.58L483.81,382l-4.43-1.19c-12-3.23-40.12-3.26-52.13-.07l-5.18,1.37,2.79-33.3c1.19-14.1-9.4-26.13-22.51-25.63L258.8,328.4c-13.1.5-23.54,14.07-21.3,28l1.43,9.54L118.31,430.78A17.41,17.41,0,0,0,109.19,449.59Zm412.91-100,100.67,2.28c9.9.35,17.22,9.58,15.55,19.72L627.09,450a16.54,16.54,0,0,1-16.75,14.11l-85.6-2.76A16.52,16.52,0,0,1,509,446.07l-3.83-77.88C504.26,358,512.21,349.27,522.1,349.62Zm-242.85,3.64,103.82-4.36c9.9-.38,17.88,8.28,17,18.52l-4,76.75c-.76,8.49-4,15.54-12.22,15.86l-92.11,3.7a16.52,16.52,0,0,1-16.8-14.06L263.76,373C262.08,362.9,269.37,353.64,279.26,353.26Z"/><path class="cls-4" d="M137.09,451.66c9.4,1.83,22.92,9.28,21.09,37.26a7.84,7.84,0,0,1-4,6.3c-8,4.54-27.4,13.26-38.11-1.51-13.64-18.79-2.22-32.47,6.4-38.73A18.75,18.75,0,0,1,137.09,451.66Z"/><g class="cls-24"><path d="M116.11,493.7c-13.64-18.79-2.22-32.47,6.4-38.73,4.2-3.05,5.34-4.65,10.44-3.65,0,0-34.52,16.6-7.54,49.59C125.42,500.92,126.83,508.47,116.11,493.7Z"/></g><path class="cls-25" d="M505.19,368.19,509,446.07a16.52,16.52,0,0,0,15.72,15.26l85.6,2.76A16.54,16.54,0,0,0,627.09,450l11.23-78.36c1.67-10.14-5.65-19.37-15.55-19.72L522.1,349.62C512.21,349.27,504.26,358,505.19,368.19Z"/><polygon class="cls-26" points="547.21 462.06 593.04 463.54 598.13 351.34 550.88 350.27 547.21 462.06"/><path class="cls-25" d="M263.76,373l11.15,76.63a16.52,16.52,0,0,0,16.8,14.06l92.11-3.7c8.21-.32,11.46-7.37,12.22-15.86l4-76.75c.92-10.24-7.06-18.9-17-18.52l-103.82,4.36C269.37,353.64,262.08,362.9,263.76,373Z"/><polygon class="cls-26" points="310.08 463.05 357.6 461.08 354.89 350.08 303.03 352.27 310.08 463.05"/><path class="cls-4" d="M385.89,437.86a35.82,35.82,0,0,1,13.58,2.62c9-19.61,29.61-37.08,63.21-34.54,27.14,2.05,40.74,19.81,41.95,34.09,16.07.42,28.93,11,28.93,24,0,13.27-13.39,24-29.92,24a33.61,33.61,0,0,1-21.81-7.59c-8.08,4.25-21,6.73-31.38,6.73-15.23,0-28.91-5.32-38.33-13.77-5.09,7.44-14.93,12.48-26.24,12.48-16.52,0-29.92-10.76-29.92-24S369.37,437.86,385.89,437.86Z"/><g class="cls-7"><path d="M527.27,478.8s-7.75,9.28-23.62,9.28a33.61,33.61,0,0,1-21.81-7.59c-8.08,4.25-21,6.73-31.38,6.73-15.23,0-28.91-5.32-38.33-13.77-5.09,7.44-14.93,12.48-26.24,12.48-16.52,0-29.92-10.76-29.92-24s13.39-24,29.92-24c0,0-29.92,11.12-14,32.3,5,6.61,28.26,15.21,41.68-9.41,0,0,5.36,16.67,37.34,17.62,31,.92,33.47-5.23,33.47-5.23S492.19,487.45,527.27,478.8Z"/></g><path class="cls-27" d="M399.47,440.49c9-19.61,29.61-37.08,63.21-34.54,27.14,2.05,40.74,19.81,41.95,34.09,0,0-14.21-25.8-43.91-28.19C427.05,409.13,399.47,440.49,399.47,440.49Z"/><path class="cls-9" d="M221.23,695.21,207.09,867s-32.25,19.7-5.06,53.43c1.28,1.58,3.81,1.41,5.72,2.09,119.6,42.77,243.53,27.16,322.9-2.53,12-4.48,18.54-20.87,15-28.59-2.57-5.53-3.63,11.38-18,17.08-12.66,5-118.3,32.12-245.56,9a63.62,63.62,0,0,1-52.2-63.95l.82-169.34c-145.42,2.18-93.13,203.67-93.13,203.67s28.13-47.25,29.18-48.06C166.7,839.74,131.13,699.89,221.23,695.21Z"/><g class="cls-15"><path class="cls-16" d="M438.08,281.64q-.26-3.07-.54-6.08l2.43-.23q.28,3,.54,6.1Z"/><path class="cls-16" d="M436.36,263.85c-.43-3.91-.89-7.84-1.37-11.68l2.42-.3c.48,3.85.94,7.8,1.37,11.72Zm-2.93-23.34c-.56-3.89-1.15-7.8-1.77-11.63l2.41-.39c.62,3.84,1.22,7.77,1.78,11.67Zm-3.76-23.21c-.7-3.87-1.45-7.76-2.22-11.55l2.4-.49c.77,3.8,1.52,7.71,2.23,11.59Zm-4.68-23c-.87-3.84-1.78-7.69-2.72-11.43l2.37-.59c.94,3.76,1.86,7.63,2.74,11.49Zm-5.72-22.79c-1.06-3.81-2.17-7.6-3.29-11.28l2.34-.72c1.13,3.69,2.25,7.51,3.31,11.34ZM412.37,149c-1.27-3.75-2.6-7.47-4-11.06l2.29-.86c1.36,3.62,2.7,7.36,4,11.13Zm-8.27-22c-1.52-3.66-3.11-7.27-4.72-10.74l2.22-1c1.62,3.5,3.22,7.14,4.75,10.83Zm-9.87-21.28c-1.83-3.54-3.72-7-5.63-10.28l2.11-1.23c1.93,3.32,3.84,6.81,5.69,10.39Zm-11.8-20.23c-2.23-3.37-4.52-6.58-6.79-9.52l1.94-1.49c2.31,3,4.62,6.24,6.89,9.66Z"/><path class="cls-16" d="M368.06,67.08A49.33,49.33,0,0,0,363.78,63l1.52-1.91a50.18,50.18,0,0,1,4.54,4.33Z"/></g></g></svg>