<svg id="Layer_1" data-name="Layer 1" xmlns="http://www.w3.org/2000/svg" xmlns:xlink="http://www.w3.org/1999/xlink" viewBox="0 0 872.31 872.31"><defs><style>.cls-1,.cls-2,.cls-21,.cls-22,.cls-23,.cls-24,.cls-25,.cls-26,.cls-27,.cls-28,.cls-29,.cls-35,.cls-41{fill:none;}.cls-2,.cls-20,.cls-3,.cls-4,.cls-6{stroke:#ba2b32;}.cls-14,.cls-16,.cls-2,.cls-20,.cls-21,.cls-22,.cls-23,.cls-24,.cls-25,.cls-26,.cls-27,.cls-28,.cls-29,.cls-3,.cls-35,.cls-36,.cls-4,.cls-41,.cls-6{stroke-miterlimit:10;}.cls-14,.cls-16,.cls-2,.cls-20,.cls-21,.cls-22,.cls-23,.cls-24,.cls-25,.cls-26,.cls-27,.cls-28,.cls-29,.cls-3,.cls-35,.cls-4,.cls-41,.cls-6{stroke-width:3px;}.cls-3,.cls-8{fill:#cc162c;}.cls-4,.cls-9{fill:#00854a;}.cls-4{clip-path:url(#clip-path);}.cls-5{clip-path:url(#clip-path-3);}.cls-6{fill:#fff;}.cls-7{clip-path:url(#clip-path-4);}.cls-10{fill:#00599b;}.cls-11,.cls-20{fill:#f6c785;}.cls-12,.cls-36{fill:#f2b172;}.cls-13{opacity:0.1;}.cls-14,.cls-16{fill:#442c1e;}.cls-14{stroke:#382112;}.cls-15{opacity:0.15;}.cls-16,.cls-41{stroke:#382111;}.cls-17{fill:#382111;}.cls-18{fill:#d73c3a;}.cls-19{fill:#9b070b;opacity:0.5;}.cls-21,.cls-22,.cls-23,.cls-24,.cls-25,.cls-26,.cls-27,.cls-28,.cls-29{stroke:#3f1116;}.cls-22{stroke-dasharray:9.7 9.7;}.cls-23{stroke-dasharray:8.66 8.66;}.cls-24{stroke-dasharray:9.17 9.17;}.cls-25{stroke-dasharray:9.2 9.2;}.cls-26{stroke-dasharray:8.9 8.9;}.cls-27{stroke-dasharray:9.2 9.2;}.cls-28{stroke-dasharray:9.17 9.17;}.cls-29{stroke-dasharray:8.66 8.66;}.cls-30{fill:#a67c52;}.cls-31{fill:#211f1f;}.cls-32{fill:#bf8051;}.cls-33{fill:#ebd280;}.cls-34{fill:#fde08a;}.cls-35{stroke:#ebd280;}.cls-36{stroke:#a67c52;stroke-width:1.5px;}.cls-37{fill:#ffe5cc;}.cls-38{fill:#736357;}.cls-39{fill:#f7d3a9;}.cls-40{fill:#efca75;}</style><clipPath id="clip-path"><path class="cls-3" d="M446.39,1076.61c-192.65,0-354.44-142.8-399.74-335.82a500.39,500.39,0,0,0-4.09,63.93c0,246.2,192.8,487.25,413.59,487.25s385.94-241,385.94-487.25q0-21.12-1.74-41.76C788.27,944.64,631.59,1076.61,446.39,1076.61Z"/></clipPath><clipPath id="clip-path-2"><path class="cls-4" d="M446.39,935.38C253.75,935.38,92,740.94,46.65,547.91a500.39,500.39,0,0,0-4.09,63.93c0,246.2,179,445.79,399.77,445.79S842.1,858,842.1,611.84q0-21.12-1.74-41.76C788.27,751.77,631.59,935.38,446.39,935.38Z"/></clipPath><clipPath id="clip-path-3"><circle class="cls-1" cx="435.16" cy="437.16" r="431.18"/></clipPath><clipPath id="clip-path-4"><path class="cls-2" d="M751.09,1020.44a139.45,139.45,0,0,0,13.66-15.21c-80.33-92.48-134.6-198.54-164.64-285.83,0,0,64.53-83.33-29.41-122.14-49.3-20.37-191-6-251,1.28a75.86,75.86,0,0,0-57,37.61c-23.37,41.31,14.31,64.23,2.86,100.68-43.28,137.81-122.79,266.62-122.79,266.62s6.48,6.69,18.42,17c-2.45,2-32.65,27.57-17.37,62.88,0,0,32.4-3.2,41.29-43.52,8.71,6.62,18.64,13.74,29.66,21-4,4-31.89,33.62-12.29,68.38,0,0,39.28-9.72,41.47-50.62,44.25,24.89,152.7,51.46,152.7,51.46-18.29,44,13.4,65.34,13.4,65.34,35.91-23.58,20.34-64.06,20.34-64.06s18.31.54,24.06.19c-.83,2.31-13.64,41.74,21.22,64.63,0,0,31.31-23.75,13-67.72,0,0,135.63-28.23,179.59-50.29,1.92,41.29,41.5,51.08,41.5,51.08,18.76-33.28-6-61.82-11.65-67.73a332.65,332.65,0,0,0,29.31-20.34c9.28,39.11,41,42.25,41,42.25C783.78,1048,753.46,1022.36,751.09,1020.44Z"/></clipPath></defs><title>justiciero_recortado</title><g class="cls-5"><path class="cls-6" d="M751.09,1020.44a139.45,139.45,0,0,0,13.66-15.21c-80.33-92.48-134.6-198.54-164.64-285.83,0,0,64.53-83.33-29.41-122.14l-249.73,0c-23.85,2.9-46.43,18-58.26,38.87-23.37,41.31,14.31,64.23,2.86,100.68-43.28,137.81-122.79,266.62-122.79,266.62s6.48,6.69,18.42,17c-2.45,2-32.65,27.57-17.37,62.88,0,0,32.4-3.2,41.29-43.52,8.71,6.62,18.64,13.74,29.66,21-4,4-31.89,33.62-12.29,68.38,0,0,39.28-9.72,41.47-50.62,44.25,24.89,152.7,51.46,152.7,51.46-18.29,44,13.4,65.34,13.4,65.34,35.91-23.58,20.34-64.06,20.34-64.06s18.31.54,24.06.19c-.83,2.31-13.64,41.74,21.22,64.63,0,0,31.31-23.75,13-67.72,0,0,135.63-28.23,179.59-50.29,1.92,41.29,41.5,51.08,41.5,51.08,18.76-33.28-6-61.82-11.65-67.73a332.65,332.65,0,0,0,29.31-20.34c9.28,39.11,41,42.25,41,42.25C783.78,1048,753.46,1022.36,751.09,1020.44Z"/><g class="cls-7"><path class="cls-8" d="M446.39,1076.61c-192.65,0-354.44-142.8-399.74-335.82a500.39,500.39,0,0,0-4.09,63.93c0,246.2,192.8,487.25,413.59,487.25s385.94-241,385.94-487.25q0-21.12-1.74-41.76C788.27,944.64,631.59,1076.61,446.39,1076.61Z"/><path class="cls-9" d="M446.39,935.38C253.75,935.38,92,740.94,46.65,547.91a500.39,500.39,0,0,0-4.09,63.93c0,246.2,179,445.79,399.77,445.79S842.1,858,842.1,611.84q0-21.12-1.74-41.76C788.27,751.77,631.59,935.38,446.39,935.38Z"/><path class="cls-10" d="M444,674.81c-192.65,0-352-127.07-397.34-320.09a500.39,500.39,0,0,0-4.09,63.93c0,246.2,179,493.45,399.77,493.45S842.1,664.86,842.1,418.65q0-21.12-1.74-41.76C788.27,558.58,629.19,674.81,444,674.81Z"/><path class="cls-11" d="M450.2,480.67C257.55,480.67,92,354.87,46.65,161.85a500.39,500.39,0,0,0-4.09,63.93c0,246.2,182.78,428.79,403.57,428.79s396-182.58,396-428.79q0-21.12-1.74-41.76C788.27,365.71,635.39,480.67,450.2,480.67Z"/><path class="cls-2" d="M446.39,1076.61c-192.65,0-354.44-142.8-399.74-335.82a500.39,500.39,0,0,0-4.09,63.93c0,246.2,192.8,487.25,413.59,487.25s385.94-241,385.94-487.25q0-21.12-1.74-41.76C788.27,944.64,631.59,1076.61,446.39,1076.61Z"/><path class="cls-2" d="M446.39,935.38C253.75,935.38,92,740.94,46.65,547.91a500.39,500.39,0,0,0-4.09,63.93c0,246.2,179,445.79,399.77,445.79S842.1,858,842.1,611.84q0-21.12-1.74-41.76C788.27,751.77,631.59,935.38,446.39,935.38Z"/><path class="cls-2" d="M444,674.81c-192.65,0-352-127.07-397.34-320.09a500.39,500.39,0,0,0-4.09,63.93c0,246.2,179,493.45,399.77,493.45S842.1,664.86,842.1,418.65q0-21.12-1.74-41.76C788.27,558.58,629.19,674.81,444,674.81Z"/><path class="cls-2" d="M450.2,480.67C257.55,480.67,92,354.87,46.65,161.85a500.39,500.39,0,0,0-4.09,63.93c0,246.2,182.78,428.79,403.57,428.79s396-182.58,396-428.79q0-21.12-1.74-41.76C788.27,365.71,635.39,480.67,450.2,480.67Z"/></g><path class="cls-2" d="M751.09,1020.44a139.45,139.45,0,0,0,13.66-15.21c-80.33-92.48-134.6-198.54-164.64-285.83,0,0,64.53-83.33-29.41-122.14-49.3-20.37-191-6-251,1.28a75.86,75.86,0,0,0-57,37.61c-23.37,41.31,14.31,64.23,2.86,100.68-43.28,137.81-122.79,266.62-122.79,266.62s6.48,6.69,18.42,17c-2.45,2-32.65,27.57-17.37,62.88,0,0,32.4-3.2,41.29-43.52,8.71,6.62,18.64,13.74,29.66,21-4,4-31.89,33.62-12.29,68.38,0,0,39.28-9.72,41.47-50.62,44.25,24.89,152.7,51.46,152.7,51.46-18.29,44,13.4,65.34,13.4,65.34,35.91-23.58,20.34-64.06,20.34-64.06s18.31.54,24.06.19c-.83,2.31-13.64,41.74,21.22,64.63,0,0,31.31-23.75,13-67.72,0,0,135.63-28.23,179.59-50.29,1.92,41.29,41.5,51.08,41.5,51.08,18.76-33.28-6-61.82-11.65-67.73a332.65,332.65,0,0,0,29.31-20.34c9.28,39.11,41,42.25,41,42.25C783.78,1048,753.46,1022.36,751.09,1020.44Z"/><path class="cls-12" d="M548.43,646C594.3,623,641.5,726.74,635.91,781.36c-2.42,23.69,70,54.35,70,54.35-28.06,54.54-74.78,52.72-74.78,52.72-2.57.37-2.72.9-7.23,3.31a13.32,13.32,0,0,1-18-5.48,12.32,12.32,0,0,1-1.56-5.66s-53-24.65-62.67-72S528.85,655.8,548.43,646Z"/><path class="cls-13" d="M548.43,646c-21.72-2.8-16.39,115.3-6.75,162.63s62.67,72,62.67,72a12.32,12.32,0,0,0,1.56,5.66,13.32,13.32,0,0,0,18,5.48c4.52-2.41,4.67-2.94,7.23-3.31,0,0,46.72,1.82,74.78-52.72,0,0-70.86-43.46-68.43-67.15a89.55,89.55,0,0,0-34.62,28.84s.5-22.62,11-35C627.28,746.84,609.51,653.87,548.43,646Z"/><path class="cls-14" d="M664.68,849.66c67.49,2.11,85.69-44.53,85.69-44.53s4.44-79.27,4.19-112.36-44.21-52.92-61-60c-15.28-6.46-21,3.87-21,3.87-2.48-5.62-15.86-11.35-21.12-9.63,0,0-9.11-1.89-24.91,40.33s3.55,40.16,3.55,40.16-5,10.91-2.48,16,11.57,15,11.57,15L612,764.27S621.76,830.75,664.68,849.66Z"/><path class="cls-12" d="M327.84,646C282,623,234.77,726.74,240.36,781.36c2.42,23.69-70,54.35-70,54.35,28.06,54.54,74.78,52.72,74.78,52.72,2.57.37,2.72.9,7.23,3.31a13.32,13.32,0,0,0,18-5.48,12.32,12.32,0,0,0,1.56-5.66s53-24.65,62.67-72S347.43,655.8,327.84,646Z"/><path class="cls-13" d="M327.84,646c21.72-2.8,16.39,115.3,6.75,162.63s-62.67,72-62.67,72a12.32,12.32,0,0,1-1.56,5.66,13.32,13.32,0,0,1-18,5.48c-4.52-2.41-4.67-2.94-7.23-3.31,0,0-46.72,1.82-74.78-52.72,0,0,70.86-43.46,68.43-67.15a89.55,89.55,0,0,1,34.62,28.84s-.5-22.62-11-35C249,746.84,266.76,653.87,327.84,646Z"/><path class="cls-12" d="M437.72,616.06c-75.39-15.47-121.26,1.86-146.26,30.22h0a35,35,0,0,0-12,30.26s10.18,207.24,24.39,219.82,133.83,26.23,133.83,26.23,118.09-15.94,133.64-26.23,24.39-219.82,24.39-219.82a35,35,0,0,0-12-30.26h0C558.79,617.92,513.11,600.6,437.72,616.06Z"/><path class="cls-15" d="M551.08,620.31c-26.14-10.74-66.06-14-113.37-4.24-47.76-9.8-74.55-10.56-100.82.43,0,0,17,16.43,61.74,27.69,0,0,6,36.71,42.18,37.35,28.71.51,42.68-16.26,42.68-34.55,0,0,38.36-21.85,63.28-26.68"/><path class="cls-15" d="M441.07,834.49c74.19-40.14,175.82-165.65,175.82-167.94s-6.48-10.93-6.48-10.93L441.32,799.43S280.41,666.54,276.17,666.65c-2.74.07-7.85,8.42-7.85,8.42s65,95.14,150.39,153.58l-70.89,64.79,17-1.27,70.76-46.81s42,30.3,74.32,47.07l4.83-5.08Z"/><path class="cls-16" d="M211.59,849.66c-67.49,2.11-85.69-44.53-85.69-44.53s-4.44-79.27-4.19-112.36,44.21-52.92,61-60c15.28-6.46,21,3.87,21,3.87,2.48-5.62,15.86-11.35,21.12-9.63,0,0,9.11-1.89,24.91,40.33s-3.55,40.16-3.55,40.16,5,10.91,2.48,16-11.57,15-11.57,15l27.18,25.72S254.51,830.75,211.59,849.66Z"/><path class="cls-17" d="M539.08,607.73c59.29-5.91,73.7,47.6,73.7,47.6S505.87,804.35,304.51,918c0,0-14.83,3.08-20.17-38.31-3.42-26.52,5.52-42.38,5.52-42.38S430.53,737,539.08,607.73Z"/><path class="cls-17" d="M337.65,613c-58.86-5.76-73.16,46.41-73.16,46.41s104.19,149.25,304.06,260c0,0,14.72,3,20-37.35,3.4-25.85-5.48-41.32-5.48-41.32S445.4,739.08,337.65,613Z"/><circle class="cls-18" cx="440.2" cy="470.85" r="170.47" transform="translate(-89.71 837.84) rotate(-81.63)"/><path class="cls-19" d="M610.67,471.79c-.28,51.29-30.17,81.46-66.19,80.68-30.09-.65-59.92-26.82-102.77-27.06-46.32-.25-79.83,29.76-110.39,28.58-31.56-1.21-61.85-36.25-61.58-84.08.52-94.15,77.64,3.72,171.79,4.24S611.18,377.64,610.67,471.79Z"/><path class="cls-20" d="M464.76,522.37s-2.07-5-4.15-17.36C545,585.35,586,478,586,478c-65.41-62.91-121.77-5.32-128.52,2.08-2-23.68-1.86-53.91,6.11-83.53H418.34c8,29.62,8.15,59.85,6.11,83.53-6.75-7.4-63.11-65-128.52-2.08,0,0,40.91,107.38,125.35,27-2.09,12.34-4.15,17.36-4.15,17.36s16.32-4.57,23.69-4.57S464.76,522.37,464.76,522.37Z"/><path class="cls-12" d="M378.32,625.93l-2.1-44.72s-12.58-2.07-11-12.06c0,0,.76-7.85,14.6-5.75,14.92,2.26,62.67-.3,86.8,1.85s38.13-7.24,40.88-.89-3.2,12.53-9.26,13.07l1.62,49S438.41,653.52,378.32,625.93Z"/><path class="cls-21" d="M479.77,528.79q-1.9-1.15-3.8-2.41l1,4.38"/><polyline class="cls-21" points="477.31 532.1 478.33 536.48 473.99 535.28"/><path class="cls-22" d="M464.64,532.7l-2.54-.7c-6.35-1.75-17.15-4.21-21.29-4.21s-14.76,2.46-21,4.2l-7.28,2"/><polyline class="cls-21" points="407.87 535.34 403.54 536.55 404.56 532.17"/><path class="cls-21" d="M404.89,530.76l1-4.38q-1.9,1.25-3.8,2.41"/><path class="cls-23" d="M394.55,533c-11.55,5.81-22.88,8.74-33.92,8.74-45.16,0-68.56-47.63-73.17-58.14"/><polyline class="cls-21" points="285.82 479.59 284.17 475.41 287.41 472.29"/><path class="cls-24" d="M294.13,466c20.51-18,42.25-27.17,64.71-27.17,19.68,0,36.54,7.09,49.17,14.93"/><path class="cls-21" d="M411.85,456.3q1.92,1.3,3.68,2.59,0-2.26,0-4.5"/><path class="cls-25" d="M415.37,445.19a207.8,207.8,0,0,0-6.69-46.07l-1-3.82"/><polyline class="cls-21" points="406.46 390.86 405.29 386.52 409.79 386.52"/><line class="cls-26" x1="418.69" y1="386.52" x2="467.64" y2="386.52"/><polyline class="cls-21" points="472.1 386.52 476.6 386.52 475.43 390.86"/><path class="cls-27" d="M473,399.74a211.56,211.56,0,0,0-6.66,50"/><path class="cls-21" d="M466.33,454.39q0,2.24,0,4.5,1.76-1.29,3.68-2.59"/><path class="cls-28" d="M477.83,451.47c12.11-6.86,27.52-12.59,45.22-12.59,23.71,0,46.61,10.17,68.1,30.24"/><polyline class="cls-21" points="594.47 472.29 597.72 475.41 596.06 479.59"/><path class="cls-29" d="M592.61,487.52c-7.42,15.2-30.46,54.22-71.35,54.22-12.26,0-24.88-3.61-37.74-10.77"/><path class="cls-12" d="M405.21,633.9c1.84,15.46,17.14,39.16,33.28,41.67,19.43,3,44.24-7.75,47.06-30.61,1.23-10-1-14.42-6.63-21.86l7.85-8.52c-39.57-21.88-87.43,5.25-87.43,5.25"/><path class="cls-30" d="M403,634.5c1.78,13,9.48,26,19.11,34.78,9.24,8.37,20.28,10.43,32.39,8.11,11.63-2.22,23-8.8,29-19.25A35.82,35.82,0,0,0,488.12,639c-.28-6.64-3.34-11.86-7.25-17.06l-.35,2.73,7.85-8.52a2.28,2.28,0,0,0-.46-3.53c-27.46-14.74-63.19-9.68-89.7,5.25-2.52,1.42-.26,5.31,2.27,3.89,25.07-14.12,59.17-19.2,85.16-5.25l-.46-3.53-7.85,8.52a2.28,2.28,0,0,0-.35,2.73c3.73,5,6.69,9.74,6.65,16.15A31.32,31.32,0,0,1,479,656.91c-5.79,9.22-16.32,14.66-26.85,16.35-11.77,1.89-21.48-1.28-29.67-10-7.61-8.09-13.58-18.89-15.1-30-.39-2.86-4.73-1.64-4.34,1.2Z"/><path class="cls-31" d="M629.2,536.77a70.14,70.14,0,0,0-7.17-24c-6.78,27.89-30.45,49.12-60.54,53.26-33.83,4.66-58.46-30.25-100.27-15.62a86.39,86.39,0,0,1-53.51,1.17c-42.57-12.85-57,24.08-91,20.94-30.24-2.79-54.83-22.95-62.86-50.5a70.14,70.14,0,0,0-6.09,24.31c-2.58,38.75,33.25,70.79,71.89,74.73,55.89,5.71,82.55-5.71,121.78-34.67,54,31.09,63.73,36.45,119.31,28.25C599.15,609,633.51,575.37,629.2,536.77Z"/><path class="cls-32" d="M776.06,385.29c0,50.35-150,91.16-335.11,91.16s-335.11-40.82-335.11-91.16c0,0-11.76-93.68,1.13-100.56s148.91,72.62,334,72.62,328.48-75,335.59-70.85S776.06,385.29,776.06,385.29Z"/><ellipse class="cls-33" cx="441.51" cy="292.59" rx="335.77" ry="91.16"/><path class="cls-34" d="M737.19,332.77s-70.43,47.07-296.25,48.16c-207.32,1-295.23-48.23-295.23-48.23,0-38.23,132.41-78.81,295.74-78.81S737.19,294.54,737.19,332.77Z"/><path class="cls-35" d="M777.65,343.82C776,369,771.74,382,771.74,382s-9.59-11.43-15.63-29.87c-2.38-7.27-19.86-7.28-17.45,9,1.64,11,9.95,7,9.95,7,1,20.88-5.78,43.52-5.78,43.52s-25.1-4.31-28.49-24.14c0,0,14-1.69,7.56-13.64s-21-5.08-19.25,4.44S697,408,697,408a61,61,0,0,1-19.67-26.45c-2.7-7.16-21.68-3.35-16.31,12.2,3.64,10.53,11.06,5,11.06,5,4.83,20.34-14.3,41.17-14.3,41.17s-26.54-15.52-27.85-35.6c0,0,14.07-.22,8.94-12.78s-20.33-7.24-19.61,2.41-8.91,30-8.91,30a102.38,102.38,0,0,1-16.27-30c-2.47-7.24-21.21-5.59-17.49,10.44,2.52,10.85,10.48,6.13,10.48,6.13,2.69,20.73-13.68,47.55-13.68,47.55s-20.29-23.12-21.93-44c0,0,8.76,3,9-8.16.35-16.45-19.26-14.27-19.26-6.62,0,13.1-12.79,33-12.79,33s-13.61-19.62-14.89-29.21-17.26-10-19.69,3.33,11.38,10.67,11.38,10.67c2.85,19.91-14.55,48.31-14.55,48.31S465,439.14,465.31,419c0,0,10.75,2.6,10.58-11.22-.19-14.67-22.94-13.53-22.94,0,0,9.68-13,27-13,27s-11-6.41-13-27c-1.53-15.74-21.63-15.63-21.63,0,0,11.14,10.41,11.22,10.41,11.22,1,20.88-20.2,46.43-20.2,46.43s-22.73-28.4-19.88-48.31c0,0,13.81,2.68,11.38-10.67s-18.41-12.92-19.69-3.33-14.89,29.21-14.89,29.21-8.8-7.86-12.79-33c-1.23-7.74-19.61-9.83-19.26,6.62.23,11.14,7.11,9.53,7.11,9.53-1.64,20.84-20,42.59-20,42.59s-16.37-26.82-13.68-47.55c0,0,8,4.72,10.48-6.13,3.72-16-15-17.68-17.49-10.44a102.38,102.38,0,0,1-16.27,30s-8.67-11.25-8.91-30c-.12-9.68-14.49-15-19.61-2.41S251,404.32,251,404.32c-1.3,20.07-27.27,42.07-27.27,42.07s-17-27.27-12.18-47.61c0,0,7.42,3.23,11.06-7.3,5.37-15.55-13.61-19.36-16.31-12.2a41.18,41.18,0,0,1-21.5,23,91.89,91.89,0,0,1-5-28.66c-.09-9.68-12.85-17.92-19.25-6s10.61,15.93,10.61,15.93c-3.39,19.83-28.49,37.1-28.49,37.1s-9.83-24.92-8.82-45.8c0,0,8.31,4.06,9.95-7,2.42-16.27-15.07-16.26-17.45-9-6,18.43-15.24,22.76-15.24,22.76s-5.52-37.79-9-36.71"/><path class="cls-36" d="M411.7,495.46s-21.8,30.76-52.86,28.65-50.52-46.75-50.52-46.75,34.13-25.27,60-17.87S411.7,495.46,411.7,495.46Z"/><path class="cls-37" d="M331.63,487.09s8,24,30.33,26.55,36.18-14.22,36.18-14.22S372.57,466.32,331.63,487.09Z"/><path class="cls-30" d="M399.57,500h0a1.88,1.88,0,0,1-2.87.25c-14-18-42.18-24.13-64.52-13.12-.59.29-1.29-.55-.76-.94,27.4-16.88,55.25-5.93,67.79,11C399.87,498,400.26,499.1,399.57,500Z"/><circle class="cls-30" cx="368.71" cy="491.8" r="15.24" transform="translate(-156.39 811.32) rotate(-84.46)"/><circle class="cls-38" cx="368.84" cy="491.8" r="8.79" transform="translate(-156.28 811.44) rotate(-84.46)"/><circle class="cls-39" cx="366.56" cy="488.72" r="3.35" transform="translate(-169.25 195.25) rotate(-24.42)"/><circle class="cls-39" cx="375.7" cy="481.74" r="6.45" transform="translate(-165.54 198.41) rotate(-24.42)"/><polygon class="cls-31" points="415.8 504.15 291.17 467.52 308.01 410.23 426.17 468.9 415.8 504.15"/><path class="cls-36" d="M469.41,495.46s21.8,30.76,52.86,28.65,50.52-46.75,50.52-46.75-34.13-25.27-60-17.87S469.41,495.46,469.41,495.46Z"/><path class="cls-37" d="M549.49,487.09s-8,24-30.33,26.55S483,499.42,483,499.42,508.54,466.32,549.49,487.09Z"/><path class="cls-30" d="M481.55,500h0a1.88,1.88,0,0,0,2.87.25c14-18,42.18-24.13,64.52-13.12.59.29,1.29-.55.76-.94-27.4-16.88-55.25-5.93-67.79,11C481.24,498,480.85,499.1,481.55,500Z"/><circle class="cls-30" cx="512.4" cy="491.8" r="15.24" transform="translate(-45.08 51.76) rotate(-5.54)"/><circle class="cls-38" cx="512.28" cy="491.8" r="8.79" transform="translate(-45.08 51.75) rotate(-5.54)"/><circle class="cls-39" cx="514.56" cy="488.72" r="3.35" transform="translate(-143.16 755.21) rotate(-65.58)"/><circle class="cls-39" cx="505.41" cy="481.74" r="6.45" transform="translate(-142.17 742.79) rotate(-65.58)"/><polygon class="cls-31" points="465.31 504.15 589.94 467.52 573.1 410.23 454.95 468.9 465.31 504.15"/><path class="cls-40" d="M408.07,56.22c10.92-29.13,52.12-29.14,63,0h0l98.19,261.62A24.51,24.51,0,0,1,558,348c-21.84,11.74-62.4,28.11-117.68,27.23-54.85-.88-95.72-16.5-118-27.64a24.48,24.48,0,0,1-12-30.51L408.06,56.26Z"/><path class="cls-12" d="M489.43,538.27a13.35,13.35,0,0,0-10.89,5.62c-5.49-8.49-19.53-14.53-36-14.53-16.31,0-30.23,5.93-35.83,14.29a13.37,13.37,0,1,0-.12,16.14c5.51,8.46,19.52,14.47,35.95,14.47s30.7-6.12,36.1-14.7a13.37,13.37,0,1,0,10.77-21.29Z"/><path class="cls-13" d="M489.43,557.38a13.35,13.35,0,0,1-10.77-5.45c-5.41,8.58-19.53,14.7-36.1,14.7s-30.43-6-35.95-14.47a13.36,13.36,0,0,1-23.41-4.33,13.37,13.37,0,0,0,23.41,12c5.51,8.46,19.52,14.47,35.95,14.47s30.7-6.12,36.1-14.7a13.36,13.36,0,0,0,23.58-11.73A13.37,13.37,0,0,1,489.43,557.38Z"/><path class="cls-41" d="M175.31,720.54s35.06-28.58,52.59-26.68c0,0,11.89,1.51,17.82,14.58"/><path class="cls-41" d="M204.47,638s14.1,22.2,9,21.53c-17.49-2.27-52.59,26.68-52.59,26.68"/><path class="cls-41" d="M215.32,658.13a54.75,54.75,0,0,1,15,34.88"/><path class="cls-41" d="M702.29,719.78s-35.06-28.58-52.59-26.68c0,0-11.89,1.51-17.82,14.58"/><path class="cls-41" d="M673.13,637.27s-14.1,22.2-9,21.53c17.49-2.27,52.59,26.68,52.59,26.68"/><path class="cls-41" d="M662.28,657.37a54.75,54.75,0,0,0-15,34.88"/></g></svg>