<?xml version="1.0" encoding="utf-8"?>
<!-- Generator: Adobe Illustrator 18.0.0, SVG Export Plug-In . SVG Version: 6.00 Build 0)  -->
<!DOCTYPE svg PUBLIC "-//W3C//DTD SVG 1.0//EN" "http://www.w3.org/TR/2001/REC-SVG-20010904/DTD/svg10.dtd">
<svg version="1.0" id="Layer_1" xmlns="http://www.w3.org/2000/svg" xmlns:xlink="http://www.w3.org/1999/xlink" x="0px" y="0px"
	 viewBox="0 0 53.9 22.7" enable-background="new 0 0 53.9 22.7" xml:space="preserve">
<g>
	<g>
		<g>
			<rect x="16.9" y="19.9" fill="#A12E2F" width="0.6" height="2.7"/>
			<polygon fill="#A12E2F" points="23.8,22.6 23.8,20.5 22.9,20.5 22.9,19.9 25.2,19.9 25.2,20.5 24.4,20.5 24.4,22.6 			"/>
			<polygon fill="#A12E2F" points="26.6,22.6 26.6,19.9 28.5,19.9 28.5,20.5 27.3,20.5 27.3,21 28.3,21 28.3,21.5 27.3,21.5 
				27.3,22.1 28.5,22.1 28.5,22.6 			"/>
			<polygon fill="#A12E2F" points="42.2,22.6 42.2,20.5 41.4,20.5 41.4,19.9 43.6,19.9 43.6,20.5 42.8,20.5 42.8,22.6 			"/>
			<rect x="45.2" y="19.9" fill="#A12E2F" width="0.6" height="2.7"/>
			<polygon fill="#A12E2F" points="51.3,22.6 51.3,19.9 53.1,19.9 53.1,20.5 51.9,20.5 51.9,21 52.9,21 52.9,21.5 51.9,21.5 
				51.9,22.1 53.2,22.1 53.2,22.6 			"/>
			<path fill="#A12E2F" d="M38.8,22.7c-0.8,0-1.4-0.6-1.4-1.4c0-0.8,0.6-1.4,1.4-1.4c0.6,0,1.1,0.4,1.3,0.9l0,0.1h-0.6l0,0
				c-0.1-0.3-0.4-0.4-0.7-0.4c-0.4,0-0.8,0.4-0.8,0.8c0,0.4,0.4,0.8,0.8,0.8c0.3,0,0.6-0.2,0.7-0.4l0,0h0.6l0,0.1
				C39.9,22.3,39.4,22.7,38.8,22.7z"/>
			<polygon fill="#A12E2F" points="21.1,19.9 21.1,21.6 20,19.9 19.3,19.9 19.3,22.6 20,22.6 20,21 21.1,22.6 21.1,22.6 21.1,22.6 
				21.7,22.6 21.7,19.9 			"/>
			<path fill="#A12E2F" d="M31.5,22.6h0.7l-0.6-0.8c0.3-0.2,0.6-0.5,0.6-0.9c0-0.5-0.4-1-1-1l0,0h-1l0,0v2.7h0.6v-0.7H31L31.5,22.6z
				 M30.8,20.6h0.4l0,0c0.2,0,0.4,0.2,0.4,0.4s-0.2,0.4-0.4,0.4l0,0h-0.4V20.6z"/>
			<path fill="#A12E2F" d="M35.5,22.6h0.7l-1.1-2.7h-0.6l-1.1,2.7h0.7l0.2-0.6h0.9L35.5,22.6z M34.6,21.4l0.2-0.5l0.2,0.5H34.6z"/>
			<polygon fill="#A12E2F" points="49.3,19.9 48.6,21.7 47.9,19.9 47.2,19.9 48.3,22.6 48.9,22.6 49.9,19.9 			"/>
		</g>
		<path fill="#A12E2F" d="M10.9,13.9c0.3,0.3,0.8,0.5,1.3,0.5s0.9-0.2,1.3-0.5c0.1-0.1,0.3-0.3,0.4-0.5H17c-0.2,1-0.6,1.9-1.4,2.7
			c-1,1-2.1,1.4-3.5,1.4c0,0,0,0,0,0c0,0-0.1,0-0.1,0c-0.9,0-1.7-0.3-2.4-0.7c-0.3-0.2-0.6-0.4-0.9-0.7c-1-1-1.4-2.1-1.4-3.5
			c0-1.4,0.5-2.5,1.4-3.5c1-1,2.1-1.4,3.5-1.5c0,0,0,0,0,0c0,0,0,0,0,0c0.2,0,0.3,0,0.5,0c1.1,0.1,2.1,0.6,2.9,1.4
			c0.8,0.8,1.3,1.7,1.4,2.7h-3.3c-0.1-0.2-0.2-0.4-0.4-0.5c-0.3-0.3-0.8-0.5-1.3-0.5c-0.5,0-0.9,0.2-1.3,0.5
			c-0.3,0.4-0.5,0.8-0.5,1.3C10.4,13.1,10.6,13.6,10.9,13.9z"/>
		<g>
			<g>
				<path fill="#A12E2F" d="M1.3,11.5c0.3,0.2,0.8,0.1,1-0.2c0.2-0.3,0.1-0.8-0.2-1c-0.3-0.2-0.8-0.1-1,0.2S1,11.2,1.3,11.5z"/>
				<path fill="#A12E2F" d="M3.7,7.3C3.5,7.2,3.3,7.3,3.2,7.4C3.1,7.6,3.2,7.8,3.3,7.9C3.5,8,3.7,8,3.8,7.8C3.9,7.7,3.8,7.5,3.7,7.3
					z"/>
				<path fill="#A12E2F" d="M1.9,8.2c0.2,0.1,0.5,0.1,0.6-0.1c0.1-0.2,0.1-0.5-0.1-0.6C2.2,7.3,1.9,7.3,1.8,7.5
					C1.7,7.8,1.7,8,1.9,8.2z"/>
				<path fill="#A12E2F" d="M2.4,6.4c0.4,0.3,1,0.2,1.3-0.3c0.3-0.4,0.2-1-0.3-1.3C3,4.6,2.4,4.7,2.1,5.1S2,6.1,2.4,6.4z"/>
				<path fill="#A12E2F" d="M4.5,5.3c0.3,0.2,0.6,0.1,0.8-0.2s0.1-0.6-0.2-0.8C4.8,4.2,4.5,4.2,4.3,4.5C4.1,4.8,4.2,5.1,4.5,5.3z"/>
				<path fill="#A12E2F" d="M5.5,3.1C5.7,3.3,5.9,3.2,6.1,3s0.1-0.5-0.1-0.6C5.7,2.3,5.5,2.3,5.3,2.5S5.3,3,5.5,3.1z"/>
				<path fill="#A12E2F" d="M7.5,4.1c0.3,0.2,0.7,0.1,0.9-0.2c0.2-0.3,0.1-0.7-0.2-0.9C7.9,2.7,7.5,2.8,7.3,3.1
					C7.1,3.4,7.1,3.9,7.5,4.1z"/>
				<path fill="#A12E2F" d="M7.5,1.1c0.3,0.2,0.6,0.1,0.8-0.2c0.2-0.3,0.1-0.6-0.2-0.8C7.9-0.1,7.5,0,7.3,0.3
					C7.1,0.6,7.2,0.9,7.5,1.1z"/>
				<path fill="#A12E2F" d="M10,2c0.4,0.3,0.9,0.1,1.2-0.2c0.2-0.3,0.2-0.7-0.1-1c0.1,0,0.2-0.1,0.3-0.1c0.1-0.2,0.1-0.4-0.1-0.5
					S10.9,0,10.8,0.2c-0.1,0.1-0.1,0.2,0,0.3c-0.4-0.1-0.8,0-1,0.3C9.5,1.2,9.6,1.7,10,2z"/>
				<path fill="#A12E2F" d="M12.2,3.4c0.3,0.2,0.7,0.1,0.9-0.2c0.2-0.3,0.1-0.7-0.2-0.9c-0.3-0.2-0.7-0.1-0.9,0.2
					C11.8,2.8,11.9,3.2,12.2,3.4z"/>
				<path fill="#A12E2F" d="M13.4,1.2c0.3,0.2,0.7,0.1,0.9-0.2c0.2-0.3,0.1-0.7-0.2-0.9c-0.3-0.2-0.7-0.1-0.9,0.2
					C13,0.6,13.1,1,13.4,1.2z"/>
				<path fill="#A12E2F" d="M14.9,2.3c0.2,0.1,0.5,0.1,0.6-0.1c0.1-0.2,0.1-0.5-0.1-0.6c-0.2-0.1-0.5-0.1-0.6,0.1S14.7,2.1,14.9,2.3
					z"/>
				<path fill="#A12E2F" d="M17.8,5.3c-0.3-0.2-0.6-0.1-0.8,0.2c-0.2,0.3-0.1,0.6,0.2,0.8c0.3,0.2,0.6,0.1,0.8-0.2
					C18.2,5.8,18.1,5.4,17.8,5.3z"/>
				<path fill="#A12E2F" d="M2.7,16.9C2.4,16.7,2,16.7,1.9,17c-0.2,0.3-0.1,0.6,0.2,0.8c0.3,0.2,0.6,0.1,0.8-0.2
					C3,17.4,2.9,17,2.7,16.9z"/>
				<path fill="#A12E2F" d="M0.7,15.4c-0.2-0.1-0.5-0.1-0.6,0.1C-0.1,15.8,0,16,0.2,16.2s0.5,0.1,0.6-0.1
					C0.9,15.8,0.9,15.6,0.7,15.4z"/>
				<path fill="#A12E2F" d="M16.7,6.3c-0.1-0.1-0.2-0.1-0.3-0.1l0,0c0,0-0.2,0-0.2-0.2c0,0,0.1,0,0.1-0.1c0.1-0.2,0.1-0.4-0.1-0.5
					c-0.2-0.1-0.4-0.1-0.5,0.1c-0.1,0.2-0.1,0.4,0.1,0.5c0,0,0.1,0,0.1,0c0,0,0,0,0,0c0.1,0.1,0,0.1,0,0.2c-0.1,0-0.2,0.1-0.3,0.2
					c0-0.1-0.1-0.1-0.2-0.2c-0.1-0.1-0.3-0.1-0.5-0.1c0.1-0.3-0.1-0.7-0.4-0.9c-0.1-0.1-0.2-0.1-0.3-0.1c0,0,0.1-0.1,0.1-0.1
					c0.1-0.1,0.1-0.2,0.1-0.3l0,0c0,0,0.1-0.4,0.5-0.3c0.3,0.2,0.7,0.1,0.9-0.2c0.2-0.3,0.1-0.7-0.2-0.9c-0.3-0.2-0.7-0.1-0.9,0.2
					c-0.1,0.1-0.1,0.2-0.1,0.4l0,0c0,0,0,0,0,0l0,0c0,0.1,0,0.4-0.3,0.3l0,0c0,0,0,0-0.1-0.1c-0.3-0.2-0.6-0.1-0.8,0.1
					c-0.1-0.1-0.1-0.2-0.2-0.3c-0.3-0.2-0.7-0.1-0.9,0.2c0,0.1-0.1,0.1-0.1,0.2c0,0,0,0,0,0c-0.2-0.1-0.4-0.1-0.6-0.1
					c0,0,0.1-0.1,0.1-0.1c0.3-0.4,0.1-0.9-0.2-1.2c-0.4-0.3-0.9-0.1-1.2,0.2c-0.1,0.2-0.2,0.5-0.1,0.7c-0.3-0.2-0.7-0.1-1,0.3
					C9.2,4.3,9.1,4.5,9.2,4.7c0,0,0,0,0,0.1s0,0,0,0.1C9.4,5.1,9.6,5,9.8,5.1l0,0C9.9,5.2,10,5.4,10,5.5C10,5.8,9.8,6,9.5,6
					S9.1,5.8,9.1,5.5c0,0,0,0,0-0.1v0C9.1,5.2,9,5.1,9,5c0,0,0,0,0,0C8.9,4.9,8.7,4.9,8.6,4.9l0,0c0,0,0,0,0,0l0,0c0,0-0.1,0-0.1,0
					c-0.1,0-0.1,0-0.1,0C8.3,5,8.3,5,8.2,5C8.1,5,8,4.9,7.8,4.8l0,0C7.5,4.7,7.2,4.8,7,5.1C6.9,5.2,6.9,5.4,6.9,5.5c0,0,0,0,0,0
					s0,0,0,0c0,0.1,0.1,0.2,0.1,0.3c0,0,0,0.1-0.1,0.1c0,0,0,0,0,0c0,0,0,0-0.1,0c0,0,0,0-0.1,0c0,0-0.1,0-0.1,0c0,0,0,0,0,0
					c0,0-0.1,0-0.1-0.1c0,0,0,0,0-0.1c0,0,0,0,0,0c0,0,0,0,0-0.1l0,0C6.5,5.6,6.4,5.5,6.3,5.5C6,5.3,5.5,5.4,5.3,5.7
					C5.1,6,5.2,6.4,5.5,6.6C5.7,6.7,5.8,6.7,6,6.7l0,0c0.1,0,0.2-0.1,0.3-0.1c0.3,0,0.6,0.3,0.6,0.6c0,0.3-0.3,0.6-0.6,0.6
					C6,7.9,5.7,7.6,5.7,7.3v0c0-0.2-0.1-0.3-0.3-0.4C5,6.6,4.6,6.7,4.4,7S4.2,7.8,4.6,8c0.1,0.1,0.2,0.1,0.3,0.1
					c-0.2,0-0.5,0.1-0.6,0.3c0,0-0.1,0-0.1-0.1C3.8,8.1,3.2,8.3,3,8.7c-0.3,0.4-0.2,1,0.3,1.3c0.1,0.1,0.3,0.1,0.4,0.1
					c0,0-0.1,0.1-0.1,0.1c-0.2,0.3-0.1,0.8,0.2,1c0.1,0.1,0.2,0.1,0.3,0.1c0.2,0.2,0.3,0.5,0.1,0.7c0,0-0.3,0.3-0.6,0.1
					C3.6,12,3.5,12,3.4,11.9c-0.4-0.3-1-0.2-1.3,0.3c-0.2,0.3-0.2,0.7,0,1c-0.1,0-0.3,0-0.4,0c0-0.2-0.1-0.5-0.3-0.6
					c-0.3-0.2-0.7-0.1-0.9,0.2c-0.2,0.3-0.1,0.7,0.2,0.9c0.2,0.1,0.5,0.1,0.7,0c0,0.2,0.1,0.4,0.3,0.5c0.3,0.2,0.6,0.1,0.8-0.2
					c0,0,0-0.1,0-0.1l0,0l0,0c0-0.1,0-0.1,0.1-0.2c0.1-0.2,0.2-0.2,0.3-0.2c0,0,0,0,0,0c0,0,0,0,0,0l0,0c0.1,0,0.2,0,0.2,0l0,0
					c0,0,0,0,0,0c0.1,0,0.1,0,0.2-0.1c0.2,0,0.2,0.1,0.2,0.3l0,0c0,0,0,0.1,0,0.1c0,0,0,0,0,0c0,0,0,0.1,0,0.1
					c-0.1,0.3,0,0.6,0.3,0.8c0.1,0.1,0.3,0.1,0.4,0.1c0.1,0,0.1,0,0.2,0c0,0,0.1,0,0.1,0c0,0,0,0,0,0c0.2,0,0.4,0.2,0.4,0.5
					c0,0.3-0.2,0.5-0.5,0.5c-0.2,0-0.4-0.1-0.4-0.3c0,0,0-0.1,0-0.1c0-0.1,0-0.1,0-0.2v0l0,0c-0.1-0.1-0.1-0.2-0.3-0.3
					c-0.3-0.2-0.7-0.1-0.9,0.2c-0.2,0.3-0.1,0.7,0.2,0.9c0.3,0.2,0.6,0.1,0.8-0.1l0,0l0,0c0,0,0,0,0,0c0.2-0.2,0.2-0.1,0.2,0
					c-0.1,0.4,0,0.7,0.4,0.9c0,0,0,0,0,0c-0.1,0.1-0.1,0.1-0.2,0.2C3.9,17.3,4,17.8,4.3,18c0.3,0.2,0.7,0.1,0.9-0.2
					c0,0.2,0.1,0.5,0.3,0.6c0.3,0.2,0.8,0.1,1-0.2c0.1-0.2,0.1-0.3,0.1-0.3l0,0c0,0,0,0,0,0c0-0.2,0.1-0.3,0.3-0.3s0.3,0.1,0.3,0.3
					c0,0.1,0,0.2-0.1,0.2l0,0l0,0c0,0-0.1,0-0.1,0.1c0,0-0.1,0-0.1,0.1c0,0,0,0,0,0c0,0,0,0,0,0c0,0-0.1,0.1-0.1,0.1
					c-0.1,0.1-0.1,0.3-0.1,0.5c-0.1,0.5-0.4,0.2-0.4,0.2C6,18.9,5.8,19,5.6,19.2s-0.1,0.5,0.1,0.6c0.2,0.1,0.5,0.1,0.6-0.1
					c0,0,0,0,0-0.1l0,0c0,0,0,0,0,0c0,0,0,0,0,0c0-0.1,0.2-0.3,0.4-0.2c0.1,0.1,0.1,0.1,0.2,0.1c0.1,0.1,0.1,0.1,0.2,0.1
					c0,0,0,0,0,0.1c-0.1,0.2-0.1,0.4,0.1,0.5c0.2,0.1,0.4,0.1,0.5-0.1c0.1-0.1,0.1-0.3,0-0.4c0.2-0.1,0.3-0.2,0.5-0.3
					c0-0.1,0.1-0.1,0.1-0.2c0.1,0.1,0.2,0.3,0.3,0.4c0.4,0.3,1,0.2,1.3-0.3c0-0.1,0.1-0.1,0.1-0.2s0-0.1,0.1-0.2
					c-2.6-0.9-4.4-3.3-4.4-6.2C5.6,9,8.5,6,12.2,6c1.6,0,3.1,0.6,4.3,1.6C16.7,7.5,17.1,7,17.1,7C17.1,6.7,17,6.4,16.7,6.3z"/>
			</g>
		</g>
		<g>
			<g>
				<polygon fill="#A12E2F" points="38.8,17.2 35.4,17.2 32.6,8 36,8 				"/>
				<polygon fill="#A12E2F" points="44.4,17.2 41,17.2 38.2,8 41.6,8 				"/>
				<polygon fill="#A12E2F" points="41,17.2 44.4,17.2 47.2,8 43.8,8 				"/>
				<polygon fill="#A12E2F" points="35.4,17.2 38.8,17.2 41.6,8 38.2,8 				"/>
			</g>
			<path fill="#A12E2F" d="M52.6,9.4c-0.9-0.9-1.9-1.3-3.1-1.3h-3.2v2.3v0v6.8h3.2c0,0,0,0,0,0l0,0l0,0c1.2,0,2.2-0.5,3.1-1.3
				c0.9-0.9,1.3-2,1.3-3.2C53.9,11.3,53.5,10.3,52.6,9.4z M50.6,13.8c-0.3,0.3-0.7,0.5-1.2,0.5h-0.1v-3.5c0,0,0.1,0,0.1,0
				c0.5,0,0.9,0.2,1.2,0.5c0.3,0.3,0.5,0.7,0.5,1.2C51.1,13.1,50.9,13.5,50.6,13.8z"/>
			<path fill="#A12E2F" d="M32.7,9.2c-0.9-1-2.1-1.4-3.5-1.5l0,0l0,0l0,0c-1.4,0-2.5,0.5-3.5,1.5c-1,1-1.5,2.1-1.5,3.5
				c0,1.4,0.5,2.5,1.5,3.5c1,1,2.1,1.4,3.5,1.4c1.4,0,2.5-0.5,3.5-1.4c1-1,1.5-2.1,1.5-3.5C34.1,11.3,33.7,10.1,32.7,9.2z
				 M30.5,13.9c-0.3,0.4-0.7,0.5-1.3,0.5c-0.5,0-0.9-0.2-1.2-0.5c-0.4-0.3-0.5-0.8-0.5-1.2c0-0.5,0.2-0.9,0.5-1.3
				c0.3-0.3,0.8-0.5,1.2-0.5c0.5,0,0.9,0.2,1.3,0.5c0.3,0.4,0.5,0.8,0.5,1.3C31,13.1,30.8,13.6,30.5,13.9z"/>
			<path fill="#A12E2F" d="M23.2,14.3c0.1-0.1,0.3-0.3,0.7-0.5c0.3-0.3,0.6-0.6,0.7-1.1c0.2-0.4,0.3-1,0.3-1.5
				c0-0.9-0.3-1.6-0.9-2.2c-0.5-0.6-1.2-0.9-2-0.9h-5.1c1.2,1.2,1.9,2.8,1.9,4.6c0,1.7-0.7,3.3-1.8,4.5h3.1v-2.5l1.4,2.5h3.4
				L23.2,14.3z M21.8,11.5C21.8,11.5,21.8,11.5,21.8,11.5C21.8,11.5,21.8,11.5,21.8,11.5v0.1c0,0.2-0.1,0.3-0.2,0.4
				c-0.1,0.1-0.3,0.2-0.5,0.2h-1.1h0l0,0v-1.5h1.1c0.2,0,0.4,0.1,0.5,0.2C21.7,11.1,21.8,11.2,21.8,11.5L21.8,11.5L21.8,11.5z"/>
		</g>
	</g>
</g>
</svg>
