<?xml version="1.0" encoding="UTF-8" standalone="no"?>
<svg width="131px" height="54px" viewBox="0 0 131 54" version="1.1" xmlns="http://www.w3.org/2000/svg" xmlns:xlink="http://www.w3.org/1999/xlink">
    <!-- Generator: sketchtool 40.2 (33826) - http://www.bohemiancoding.com/sketch -->
    <title>CE4F689A-8BE7-42E8-BAB8-02686E840C58</title>
    <desc>Created with sketchtool.</desc>
    <defs></defs>
    <g id="Page-1" stroke="none" stroke-width="1" fill="none" fill-rule="evenodd">
        <g id="Desktop_Speakers_1440" transform="translate(-193.000000, -1133.000000)" fill="#FEFEFE">
            <g id="Page-1" transform="translate(193.000000, 1132.000000)">
                <polygon id="Fill-1" points="84.5766 40.6486 84.5766 54.0876 92.2086 54.0876 92.2086 52.6006 86.0546 52.6006 86.0546 40.6486"></polygon>
                <g id="Group-27" transform="translate(0.000000, 0.688600)">
                    <path d="M129.1598,46.8701 C128.8878,46.5991 128.5288,46.3291 128.0908,46.0671 C127.6688,45.8141 127.1618,45.5561 126.5838,45.3001 C125.7228,44.9121 125.1258,44.5941 124.8618,44.3851 C124.4128,43.9991 124.1948,43.5681 124.1948,43.0651 C124.1948,42.4921 124.3998,42.0431 124.8228,41.6931 C125.2268,41.3531 125.7288,41.1871 126.3558,41.1871 C126.9568,41.1871 127.4478,41.3031 127.8188,41.5341 C128.0998,41.6941 128.3468,41.9471 128.5538,42.2861 L128.7248,42.5661 L130.1128,41.9641 L129.9128,41.6051 C129.2148,40.3531 128.0188,39.7191 126.3558,39.7191 C125.3468,39.7191 124.4838,40.0281 123.7918,40.6361 C123.0658,41.2481 122.6988,42.0651 122.6988,43.0651 C122.6988,44.0631 123.0578,44.8771 123.7648,45.4851 C124.1718,45.8511 124.8928,46.2611 125.9678,46.7381 C126.4988,46.9731 126.9398,47.1861 127.2798,47.3721 C127.6018,47.5491 127.8408,47.7081 127.9918,47.8471 C128.5528,48.3421 128.8258,48.9461 128.8258,49.6921 C128.8258,50.4871 128.6018,51.0661 128.1408,51.4631 C127.6818,51.8561 127.0258,52.0561 126.1928,52.0561 C124.7388,52.0561 123.8498,51.3921 123.4748,50.0261 L123.3688,49.6431 L121.9018,50.1391 L122.0078,50.4851 C122.6258,52.5141 124.0348,53.5431 126.1928,53.5431 C126.8738,53.5431 127.4778,53.4501 127.9928,53.2671 C129.5378,52.6931 130.3218,51.4901 130.3218,49.6921 C130.3218,48.5731 129.9308,47.6231 129.1598,46.8701" id="Fill-2"></path>
                    <path d="M100.8223,42.6623 L103.1613,48.6653 L98.4833,48.6653 L100.8223,42.6623 Z M101.3113,39.9683 L100.3333,39.9683 L95.1063,53.3983 L96.6383,53.3983 L97.9033,50.1523 L103.7533,50.1523 L105.0053,53.3983 L106.5573,53.3983 L101.3423,40.0483 L101.3113,39.9683 Z" id="Fill-4"></path>
                    <path d="M116.5722,51.2037 C116.0042,51.6927 115.3292,51.9307 114.5072,51.9307 L111.5862,51.9307 L111.5862,46.7057 L114.5072,46.7057 C115.3292,46.7057 116.0182,46.9387 116.5592,47.4017 C117.1322,47.8787 117.4102,48.4897 117.4102,49.2707 C117.4102,50.0407 117.1362,50.7257 116.5722,51.2037 L116.5722,51.2037 Z M111.5862,41.4327 L113.6662,41.4327 C114.2822,41.4327 114.7872,41.6127 115.2152,41.9857 C115.2182,41.9887 115.2222,41.9917 115.2262,41.9957 C116.0282,42.6857 116.0422,43.9197 115.2822,44.6547 C115.2662,44.6707 115.2502,44.6857 115.2362,44.6997 C114.8502,45.0627 114.3722,45.2387 113.7732,45.2387 L111.5862,45.2387 L111.5862,41.4327 Z M117.9732,46.7167 C117.5362,46.2167 116.9922,45.8427 116.3542,45.6017 C116.9662,45.0267 117.2772,44.3307 117.2772,43.3757 C117.2772,42.2977 116.9212,41.4387 116.2192,40.8217 C115.5672,40.2537 114.6902,39.9657 113.6122,39.9657 L110.1262,39.9657 L110.1262,53.3987 L114.4892,53.3987 C115.6992,53.3987 116.7392,53.0197 117.5802,52.2747 C118.4362,51.5297 118.8692,50.4657 118.8692,49.2707 C118.8692,48.2717 118.5682,47.4127 117.9732,46.7167 L117.9732,46.7167 Z" id="Fill-6"></path>
                    <polygon id="Fill-8" points="6.6854 46.5415 0.8914 39.9455 0.0004 39.9455 0.0004 53.3155 2.6744 53.3155 2.6744 45.5605 6.6854 50.0175 10.6964 45.5605 10.7054 53.3155 13.3794 53.3155 13.3794 39.9455 12.4884 39.9455"></polygon>
                    <path d="M21.83,48.5916 L23.862,43.5106 L25.841,48.5916 L21.83,48.5916 Z M22.454,39.9456 L17.106,53.3156 L19.958,53.3156 L20.76,51.2656 L26.822,51.2656 L27.624,53.3156 L30.467,53.3066 L25.128,39.9456 L22.454,39.9456 Z" id="Fill-10"></path>
                    <polygon id="Fill-12" points="57.7626 46.5415 51.9686 39.9455 51.0776 39.9455 51.0776 53.3155 53.7516 53.3155 53.7516 45.5605 57.7626 50.0175 61.7736 45.5605 61.7826 53.3155 64.4566 53.3155 64.4566 39.9455 63.5656 39.9455"></polygon>
                    <path d="M72.1508,48.5916 L74.1828,43.5106 L76.1618,48.5916 L72.1508,48.5916 Z M75.4488,39.9456 L72.7748,39.9456 L67.4268,53.3156 L70.2788,53.3156 L71.0808,51.2656 L77.1428,51.2656 L77.9448,53.3156 L80.7878,53.3066 L75.4488,39.9456 Z" id="Fill-14"></path>
                    <g id="Group-18" transform="translate(32.000000, 39.000000)">
                        <path d="M8.4935,6.8031 L8.4935,9.5311 L12.2575,9.5311 C11.5255,11.1341 9.9105,12.2491 8.0335,12.2491 C5.4705,12.2491 3.3925,10.1711 3.3925,7.6081 C3.3925,5.0451 5.4705,2.9671 8.0335,2.9671 C9.5775,2.9671 10.9445,3.7221 11.7885,4.8811 L13.9595,3.2681 C12.5195,1.3441 10.5225,0.2161 8.0245,0.2161 C2.6835,0.2161 0.6325,5.1761 0.6325,7.6081 C0.6325,9.7111 1.4725,11.4641 2.8295,12.8201 C4.1745,14.1661 5.9225,15.0001 8.0245,15.0001 C10.2285,15.0001 12.0345,14.1191 13.3915,12.6831 C15.9305,9.9851 15.3685,6.8031 15.3685,6.8031 L8.4935,6.8031 Z" id="Fill-16"></path>
                    </g>
                    <polygon id="Fill-19" points="61.9028 17.0958 58.6698 11.5168 45.7658 33.7818 52.2328 33.7818"></polygon>
                    <polygon id="Fill-21" points="78.104 22.6482 74.851 28.2602 78.051 33.7822 84.556 33.7822"></polygon>
                    <polygon id="Fill-23" points="71.7325 11.5165 61.9945 28.3185 65.1615 33.7815 65.2795 33.7815 74.9575 17.0825"></polygon>
                    <polygon id="Fill-25" points="65.1855 11.3635 68.3755 5.8375 65.1855 0.3115 61.9955 5.8375"></polygon>
                </g>
            </g>
        </g>
    </g>
</svg>