<?xml version="1.0" encoding="utf-8"?>
<!-- Generator: Adobe Illustrator 18.0.0, SVG Export Plug-In . SVG Version: 6.00 Build 0)  -->
<!DOCTYPE svg PUBLIC "-//W3C//DTD SVG 1.0//EN" "http://www.w3.org/TR/2001/REC-SVG-20010904/DTD/svg10.dtd">
<svg version="1.0" id="Layer_1" xmlns="http://www.w3.org/2000/svg" xmlns:xlink="http://www.w3.org/1999/xlink" x="0px" y="0px"
	 viewBox="0 0 68.1 28.7" enable-background="new 0 0 68.1 28.7" xml:space="preserve">
<g>
	<g>
		<g>
			<rect x="21.4" y="25.2" fill="#A12E2F" width="0.8" height="3.4"/>
			<polygon fill="#A12E2F" points="30,28.6 30,25.9 28.9,25.9 28.9,25.2 31.8,25.2 31.8,25.9 30.8,25.9 30.8,28.6 			"/>
			<polygon fill="#A12E2F" points="33.6,28.6 33.6,25.2 35.9,25.2 35.9,25.9 34.4,25.9 34.4,26.5 35.7,26.5 35.7,27.2 34.4,27.2 
				34.4,27.9 36,27.9 36,28.6 			"/>
			<polygon fill="#A12E2F" points="53.3,28.6 53.3,25.9 52.2,25.9 52.2,25.2 55.1,25.2 55.1,25.9 54.1,25.9 54.1,28.6 			"/>
			<rect x="57.1" y="25.2" fill="#A12E2F" width="0.8" height="3.4"/>
			<polygon fill="#A12E2F" points="64.8,28.6 64.8,25.2 67.1,25.2 67.1,25.9 65.6,25.9 65.6,26.5 66.8,26.5 66.8,27.2 65.6,27.2 
				65.6,27.9 67.1,27.9 67.1,28.6 			"/>
			<path fill="#A12E2F" d="M48.9,28.7c-1,0-1.8-0.8-1.8-1.8c0-1,0.8-1.8,1.8-1.8c0.7,0,1.4,0.5,1.7,1.2l0,0.1h-0.8l0,0
				c-0.2-0.3-0.5-0.5-0.9-0.5c-0.6,0-1,0.5-1,1c0,0.6,0.5,1,1,1c0.4,0,0.7-0.2,0.9-0.5l0,0h0.8l0,0.1C50.3,28.2,49.7,28.7,48.9,28.7
				z"/>
			<polygon fill="#A12E2F" points="26.6,25.2 26.6,27.3 25.2,25.2 24.4,25.2 24.4,28.6 25.2,28.6 25.2,26.5 26.6,28.6 26.6,28.6 
				26.6,28.6 27.4,28.6 27.4,25.2 			"/>
			<path fill="#A12E2F" d="M39.7,28.6h0.9l-0.7-1c0.4-0.2,0.7-0.6,0.7-1.1c0-0.7-0.6-1.2-1.2-1.2l0,0h-1.3l0,0v3.4h0.8v-0.9h0.2
				L39.7,28.6z M38.9,26h0.5l0,0c0.3,0,0.5,0.2,0.5,0.5c0,0.3-0.2,0.5-0.5,0.5l0,0h-0.5V26z"/>
			<path fill="#A12E2F" d="M44.8,28.6h0.8l-1.4-3.4h-0.7l-1.4,3.4h0.8l0.3-0.8h1.1L44.8,28.6z M43.7,27.1l0.3-0.7l0.3,0.7H43.7z"/>
			<polygon fill="#A12E2F" points="62.2,25.2 61.3,27.4 60.4,25.2 59.6,25.2 61,28.6 61.7,28.6 63,25.2 			"/>
		</g>
		<path fill="#A12E2F" d="M13.7,17.5c0.4,0.4,1,0.7,1.6,0.7c0.6,0,1.2-0.2,1.6-0.7c0.2-0.2,0.3-0.4,0.5-0.6h4.1
			c-0.2,1.3-0.8,2.5-1.8,3.4c-1.2,1.2-2.7,1.8-4.4,1.8c0,0,0,0,0,0c-0.1,0-0.1,0-0.2,0c-1.1,0-2.2-0.4-3.1-0.9
			c-0.4-0.3-0.8-0.6-1.1-0.9c-1.2-1.2-1.8-2.7-1.8-4.4c0-1.7,0.6-3.2,1.8-4.4c1.2-1.2,2.7-1.8,4.4-1.8c0,0,0,0,0,0c0,0,0,0,0,0
			c0.2,0,0.4,0,0.6,0c1.4,0.1,2.7,0.7,3.7,1.8c1,1,1.6,2.1,1.8,3.4h-4.1c-0.1-0.2-0.3-0.4-0.5-0.6c-0.4-0.4-1-0.7-1.6-0.7
			c-0.6,0-1.1,0.2-1.6,0.7c-0.4,0.5-0.6,1-0.6,1.6C13.1,16.6,13.3,17.1,13.7,17.5z"/>
		<g>
			<g>
				<path fill="#A12E2F" d="M1.7,14.5c0.4,0.3,1,0.2,1.3-0.3c0.3-0.4,0.2-1-0.3-1.3c-0.4-0.3-1-0.2-1.3,0.3S1.2,14.2,1.7,14.5z"/>
				<path fill="#A12E2F" d="M4.7,9.3C4.5,9.1,4.2,9.2,4.1,9.4C3.9,9.6,4,9.9,4.2,10c0.2,0.1,0.5,0.1,0.6-0.1
					C4.9,9.7,4.9,9.4,4.7,9.3z"/>
				<path fill="#A12E2F" d="M2.5,10.3c0.3,0.2,0.6,0.1,0.8-0.2c0.2-0.3,0.1-0.6-0.2-0.8C2.8,9.2,2.5,9.3,2.3,9.5
					C2.1,9.8,2.2,10.2,2.5,10.3z"/>
				<path fill="#A12E2F" d="M3,8.1c0.5,0.4,1.3,0.2,1.6-0.3C5,7.2,4.8,6.5,4.3,6.1C3.7,5.8,3,5.9,2.7,6.5S2.5,7.7,3,8.1z"/>
				<path fill="#A12E2F" d="M5.6,6.7c0.3,0.2,0.8,0.1,1-0.2c0.2-0.3,0.1-0.8-0.2-1s-0.8-0.1-1,0.2C5.2,6,5.3,6.5,5.6,6.7z"/>
				<path fill="#A12E2F" d="M6.9,4c0.3,0.2,0.6,0.1,0.8-0.2S7.8,3.2,7.5,3C7.2,2.9,6.9,2.9,6.7,3.2C6.6,3.5,6.6,3.8,6.9,4z"/>
				<path fill="#A12E2F" d="M9.4,5.1c0.4,0.3,0.9,0.2,1.2-0.2c0.3-0.4,0.2-0.9-0.2-1.2C10,3.4,9.4,3.5,9.2,3.9
					C8.9,4.3,9,4.9,9.4,5.1z"/>
				<path fill="#A12E2F" d="M9.5,1.4c0.3,0.2,0.8,0.1,1-0.2c0.2-0.3,0.1-0.8-0.2-1C9.9-0.1,9.5,0,9.2,0.4C9,0.7,9.1,1.2,9.5,1.4z"/>
				<path fill="#A12E2F" d="M12.6,2.5c0.5,0.3,1.2,0.2,1.5-0.3c0.3-0.4,0.2-0.9-0.1-1.3c0.1,0,0.2-0.1,0.3-0.2
					c0.1-0.2,0.1-0.5-0.1-0.6C14,0,13.8,0.1,13.6,0.3c-0.1,0.1-0.1,0.2-0.1,0.3c-0.5-0.2-1,0-1.3,0.4C11.9,1.5,12.1,2.2,12.6,2.5z"
					/>
				<path fill="#A12E2F" d="M15.4,4.3c0.4,0.3,0.9,0.2,1.2-0.2c0.3-0.4,0.1-0.9-0.2-1.2c-0.4-0.3-0.9-0.1-1.2,0.2
					C14.9,3.5,15,4,15.4,4.3z"/>
				<path fill="#A12E2F" d="M16.9,1.6c0.4,0.3,0.9,0.1,1.2-0.2c0.3-0.4,0.2-0.9-0.2-1.2C17.5-0.1,17,0,16.7,0.4
					C16.4,0.8,16.5,1.3,16.9,1.6z"/>
				<path fill="#A12E2F" d="M18.8,2.9C19.1,3,19.4,3,19.6,2.7c0.2-0.3,0.1-0.6-0.2-0.8c-0.3-0.2-0.6-0.1-0.8,0.2S18.6,2.7,18.8,2.9z
					"/>
				<path fill="#A12E2F" d="M22.5,6.7c-0.3-0.2-0.8-0.1-1,0.2c-0.2,0.3-0.1,0.8,0.2,1c0.3,0.2,0.8,0.1,1-0.2S22.9,6.9,22.5,6.7z"/>
				<path fill="#A12E2F" d="M3.4,21.3c-0.3-0.2-0.8-0.1-1,0.2c-0.2,0.3-0.1,0.8,0.2,1s0.8,0.1,1-0.2C3.8,21.9,3.7,21.5,3.4,21.3z"/>
				<path fill="#A12E2F" d="M0.8,19.5c-0.3-0.2-0.6-0.1-0.8,0.2c-0.2,0.3-0.1,0.6,0.2,0.8c0.3,0.2,0.6,0.1,0.8-0.2
					S1.1,19.6,0.8,19.5z"/>
				<path fill="#A12E2F" d="M21.1,7.9c-0.1-0.1-0.2-0.1-0.3-0.1l0,0c0,0-0.2,0-0.2-0.3c0,0,0.1-0.1,0.1-0.1c0.1-0.2,0.1-0.5-0.1-0.6
					c-0.2-0.1-0.5-0.1-0.6,0.1c-0.1,0.2-0.1,0.5,0.1,0.6c0,0,0.1,0,0.1,0.1c0,0,0,0,0,0c0.1,0.1,0,0.2,0,0.2c-0.1,0-0.2,0.1-0.3,0.2
					c-0.1-0.1-0.1-0.2-0.2-0.2c-0.2-0.1-0.4-0.1-0.6-0.1c0.1-0.4-0.1-0.9-0.5-1.2c-0.1-0.1-0.3-0.1-0.4-0.2c0.1,0,0.1-0.1,0.2-0.2
					c0.1-0.1,0.1-0.2,0.1-0.4l0,0c0,0,0.1-0.5,0.6-0.3c0.4,0.3,0.9,0.2,1.2-0.2c0.3-0.4,0.1-0.9-0.2-1.2c-0.4-0.3-0.9-0.1-1.2,0.2
					c-0.1,0.1-0.1,0.3-0.1,0.5l0,0c0,0,0,0,0,0l0,0c0,0.1,0,0.5-0.4,0.4l0,0c0,0-0.1,0-0.1-0.1c-0.3-0.2-0.8-0.1-1,0.2
					C17,5.2,16.9,5.1,16.8,5c-0.4-0.3-0.9-0.2-1.2,0.2c0,0.1-0.1,0.1-0.1,0.2c0,0,0,0,0,0c-0.2-0.1-0.5-0.2-0.7-0.1
					c0,0,0.1-0.1,0.1-0.2c0.3-0.5,0.2-1.2-0.3-1.5c-0.5-0.3-1.2-0.2-1.5,0.3c-0.2,0.3-0.2,0.6-0.1,0.9c-0.4-0.2-0.9-0.1-1.2,0.3
					c-0.2,0.3-0.2,0.6-0.1,0.8c0,0,0,0,0,0.1c0,0,0,0,0,0.1c0.2,0.3,0.5,0.3,0.7,0.4l0,0c0.2,0.1,0.3,0.3,0.3,0.5
					c0,0.3-0.3,0.6-0.6,0.6S11.5,7.3,11.5,7c0,0,0-0.1,0-0.1v0c0-0.4-0.1-0.5-0.1-0.5c0,0,0,0,0,0c-0.1-0.1-0.3-0.1-0.4-0.1l0,0
					c0,0,0,0,0,0l0,0c0,0-0.1,0-0.1,0c-0.1,0-0.1,0-0.2,0c-0.1,0-0.2,0-0.3,0c-0.1,0-0.3-0.1-0.5-0.2l0,0C9.5,5.9,9,6,8.8,6.4
					C8.7,6.6,8.7,6.8,8.7,6.9c0,0,0,0,0,0c0,0,0,0,0,0c0,0.1,0.1,0.3,0.2,0.4c0,0,0,0.1-0.1,0.1c0,0,0,0,0,0c0,0-0.1,0-0.1,0
					c0,0-0.1,0-0.1,0c-0.1,0-0.1,0-0.1,0.1c0,0,0,0,0,0c0,0-0.1,0-0.1-0.1c0,0,0-0.1,0-0.1c0,0,0,0,0,0c0,0,0,0,0-0.1l0,0
					C8.2,7.1,8.1,7,7.9,6.9C7.5,6.6,7,6.8,6.7,7.1C6.5,7.5,6.6,8.1,7,8.3c0.2,0.1,0.4,0.2,0.6,0.1l0,0C7.7,8.4,7.8,8.4,8,8.4
					c0.4,0,0.8,0.3,0.8,0.8S8.4,9.9,8,9.9S7.2,9.6,7.2,9.2v0C7.1,8.9,7,8.7,6.8,8.6c-0.4-0.3-1-0.2-1.3,0.3s-0.2,1,0.3,1.3
					c0.1,0.1,0.3,0.1,0.4,0.1c-0.3,0-0.6,0.1-0.8,0.4c0,0-0.1,0-0.1-0.1c-0.5-0.4-1.3-0.2-1.6,0.3c-0.4,0.5-0.2,1.3,0.3,1.6
					c0.2,0.1,0.4,0.2,0.6,0.2c0,0-0.1,0.1-0.1,0.1c-0.3,0.4-0.2,1,0.3,1.3c0.1,0.1,0.2,0.1,0.4,0.1c0.3,0.2,0.3,0.6,0.2,0.8
					c0,0.1-0.3,0.4-0.8,0.1c-0.1-0.1-0.2-0.2-0.3-0.2c-0.5-0.4-1.2-0.2-1.6,0.3c-0.3,0.4-0.2,0.9,0,1.3c-0.2,0-0.4,0-0.5,0.1
					c0-0.3-0.1-0.6-0.4-0.8c-0.4-0.3-0.9-0.1-1.2,0.2c-0.3,0.4-0.2,0.9,0.2,1.2c0.3,0.2,0.6,0.2,0.9,0c0,0.2,0.1,0.5,0.3,0.6
					c0.3,0.2,0.8,0.1,1-0.2c0,0,0-0.1,0.1-0.1l0,0l0,0c0-0.1,0.1-0.2,0.1-0.2c0.1-0.3,0.3-0.3,0.4-0.3c0,0,0,0,0,0s0,0,0,0l0,0
					c0.1,0,0.2,0,0.3,0l0,0c0,0,0,0,0,0c0.1,0,0.2-0.1,0.2-0.1c0.2,0,0.3,0.2,0.2,0.4l0,0c0,0,0,0.1-0.1,0.1c0,0,0,0,0,0
					c0,0,0,0.1,0,0.1c-0.1,0.4,0,0.8,0.3,1c0.2,0.1,0.3,0.1,0.5,0.1c0.1,0,0.1,0,0.2,0c0,0,0.1,0,0.1,0c0,0,0,0,0,0.1
					c0.3,0.1,0.5,0.3,0.5,0.6c0,0.3-0.3,0.6-0.6,0.6c-0.3,0-0.5-0.2-0.6-0.4c0,0,0-0.1-0.1-0.1c0-0.1,0-0.2-0.1-0.2v0l0,0
					c-0.1-0.2-0.2-0.3-0.3-0.4c-0.4-0.3-0.9-0.1-1.2,0.2c-0.3,0.4-0.2,0.9,0.2,1.2c0.3,0.2,0.8,0.2,1.1-0.1l0,0l0,0c0,0,0,0,0,0
					c0.2-0.2,0.3-0.1,0.3,0.1c-0.1,0.4,0,0.9,0.4,1.2c0,0,0,0,0.1,0c-0.1,0.1-0.2,0.1-0.3,0.2c-0.3,0.4-0.1,0.9,0.2,1.2
					c0.4,0.3,0.9,0.2,1.2-0.2c0,0.3,0.1,0.6,0.4,0.8c0.4,0.3,1,0.2,1.3-0.3c0.1-0.2,0.1-0.4,0.1-0.4l0,0c0,0,0,0,0-0.1
					c0-0.2,0.2-0.4,0.4-0.4c0.2,0,0.4,0.2,0.4,0.4c0,0.1-0.1,0.2-0.1,0.3l0,0l0,0c0,0-0.1,0.1-0.1,0.1c0,0-0.1,0-0.1,0.1
					c0,0,0,0,0,0c0,0,0,0-0.1,0.1c0,0-0.1,0.1-0.1,0.1c-0.1,0.2-0.2,0.4-0.2,0.6c-0.1,0.6-0.5,0.3-0.5,0.3c-0.3-0.2-0.6-0.1-0.8,0.2
					C6.9,24.5,7,24.8,7.3,25c0.3,0.2,0.6,0.1,0.8-0.2c0,0,0,0,0-0.1l0,0c0,0,0,0,0,0c0,0,0,0,0,0c0.1-0.1,0.2-0.4,0.6-0.3
					c0.1,0.1,0.1,0.1,0.2,0.2c0.1,0.1,0.2,0.1,0.3,0.1c0,0,0,0,0,0.1C9,25,9,25.3,9.2,25.4c0.2,0.1,0.5,0.1,0.6-0.1
					c0.1-0.2,0.1-0.4-0.1-0.5c0.2-0.1,0.4-0.2,0.6-0.4c0-0.1,0.1-0.2,0.1-0.2c0.1,0.2,0.2,0.4,0.4,0.5c0.5,0.4,1.3,0.2,1.6-0.3
					c0-0.1,0.1-0.1,0.1-0.2c0-0.1,0-0.2,0.1-0.2C9.4,22.7,7,19.6,7,15.9c0-4.6,3.7-8.3,8.3-8.3c2.1,0,3.9,0.8,5.4,2
					c0.4-0.2,0.9-0.8,0.8-0.8C21.6,8.5,21.4,8.1,21.1,7.9z"/>
			</g>
		</g>
		<g>
			<g>
				<polygon fill="#A12E2F" points="48.9,21.7 44.7,21.7 41.2,10.1 45.4,10.1 				"/>
				<polygon fill="#A12E2F" points="56,21.7 51.8,21.7 48.2,10.1 52.5,10.1 				"/>
				<polygon fill="#A12E2F" points="51.8,21.7 56,21.7 59.6,10.1 55.3,10.1 				"/>
				<polygon fill="#A12E2F" points="44.7,21.7 48.9,21.7 52.5,10.1 48.3,10.1 				"/>
			</g>
			<path fill="#A12E2F" d="M66.4,11.8c-1.1-1.1-2.4-1.6-3.9-1.7h-4V13v0v8.6h4c0,0,0,0,0,0l0,0l0,0c1.5,0,2.8-0.6,3.9-1.7
				c1.1-1.1,1.7-2.5,1.7-4.1C68.1,14.3,67.5,13,66.4,11.8z M63.8,17.5c-0.4,0.4-0.9,0.6-1.5,0.6h-0.2v-4.4c0,0,0.1,0,0.2,0
				c0.6,0,1.1,0.2,1.5,0.6c0.4,0.4,0.6,0.9,0.6,1.6C64.5,16.5,64.3,17.1,63.8,17.5z"/>
			<path fill="#A12E2F" d="M41.3,11.6c-1.2-1.2-2.7-1.8-4.4-1.8l0,0l0,0l0,0c-1.7,0-3.2,0.6-4.4,1.8c-1.2,1.2-1.8,2.7-1.8,4.4
				c0,1.7,0.6,3.2,1.8,4.4c1.2,1.2,2.7,1.8,4.4,1.8c1.7,0,3.2-0.6,4.4-1.8c1.2-1.2,1.8-2.7,1.8-4.4C43.1,14.3,42.5,12.8,41.3,11.6z
				 M38.5,17.5c-0.4,0.5-0.9,0.7-1.6,0.7c-0.6,0-1.1-0.2-1.6-0.7c-0.4-0.4-0.7-1-0.7-1.6c0-0.6,0.2-1.1,0.7-1.6
				c0.4-0.4,1-0.7,1.6-0.7c0.6,0,1.1,0.2,1.6,0.7c0.4,0.5,0.7,1,0.7,1.6C39.1,16.6,38.9,17.1,38.5,17.5z"/>
			<path fill="#A12E2F" d="M29.3,18c0.1-0.1,0.4-0.3,0.8-0.7c0.4-0.3,0.7-0.8,0.9-1.4c0.2-0.6,0.3-1.2,0.3-1.9c0-1.1-0.4-2-1.1-2.8
				c-0.7-0.7-1.5-1.1-2.5-1.1h-6.5c1.5,1.5,2.4,3.6,2.4,5.8c0,2.2-0.9,4.2-2.3,5.7h4v-3.1l1.8,3.1h4.3L29.3,18z M27.6,14.5
				C27.6,14.5,27.6,14.5,27.6,14.5C27.6,14.5,27.6,14.5,27.6,14.5v0.1c0,0.2-0.1,0.4-0.3,0.6c-0.2,0.2-0.4,0.3-0.6,0.3h-1.3h0l0,0
				v-2h1.3c0.2,0,0.4,0.1,0.6,0.3C27.4,14,27.5,14.2,27.6,14.5L27.6,14.5L27.6,14.5z"/>
		</g>
	</g>
</g>
</svg>
