<svg xmlns="http://www.w3.org/2000/svg" xmlns:xlink="http://www.w3.org/1999/xlink" viewBox="0 0 2884 762.16"><defs><style>.cls-1,.cls-100,.cls-102,.cls-80,.cls-84,.cls-85,.cls-86,.cls-98{fill:none;}.cls-2{clip-path:url(#clip-path);}.cls-10,.cls-11,.cls-12,.cls-3,.cls-4,.cls-5,.cls-6,.cls-7,.cls-8,.cls-9{fill:#317dff;}.cls-101,.cls-3{opacity:0.4;}.cls-4,.cls-83{opacity:0.3;}.cls-35,.cls-5,.cls-88,.cls-94{opacity:0.2;}.cls-103,.cls-6,.cls-81,.cls-89{opacity:0.1;}.cls-7,.cls-70,.cls-76,.cls-78{opacity:0.5;}.cls-9{opacity:0.9;}.cls-10{opacity:0.6;}.cls-11{opacity:0.7;}.cls-12{opacity:0.8;}.cls-13{fill:#2f497c;}.cls-14{fill:#233e75;}.cls-15{fill:#eceef8;}.cls-16{fill:#5c94ba;}.cls-17{fill:#243299;}.cls-18{fill:#3c5287;}.cls-19{fill:#355dc6;}.cls-20{fill:#372a8c;}.cls-21{fill:#535357;}.cls-22{fill:#39393d;}.cls-23{fill:#11113d;}.cls-24{fill:#15235e;}.cls-25{fill:#1a3766;}.cls-26{fill:#4c8280;}.cls-27{fill:#203082;}.cls-28{fill:#27163f;}.cls-29{fill:#6666b2;}.cls-30{fill:#5b42b2;}.cls-31{fill:#259faf;}.cls-32{fill:#4e8dcc;}.cls-33{fill:#fff927;}.cls-34{fill:#45bf30;}.cls-36{fill:#2d5491;}.cls-37{fill:#162b6e;}.cls-38{fill:#87bbd8;}.cls-39{fill:#446393;}.cls-40{fill:#8c8a97;}.cls-41{fill:#4e4b4f;}.cls-42{fill:#3241a8;}.cls-43{fill:#b7f7f7;}.cls-44{fill:#44a7ea;}.cls-45{fill:#60b5dc;}.cls-46{fill:#354f8e;}.cls-47{fill:#223570;}.cls-48{fill:#41497f;}.cls-49{fill:#c5fffc;}.cls-50{fill:#173566;}.cls-51{fill:#2f8c89;}.cls-52,.cls-60{font-size:18.81px;}.cls-52{fill:#edebe5;}.cls-52,.cls-59,.cls-60,.cls-62{font-family:RustproofBody-Regular, Rustproof Body;}.cls-53{fill:#40423f;}.cls-54{fill:#2b7fc5;}.cls-55{fill:#323331;}.cls-56{fill:#72c8f7;}.cls-57{fill:#b3cef4;}.cls-58{fill:#2e3643;}.cls-59,.cls-62{font-size:8.05px;}.cls-59{fill:#95abe2;}.cls-60,.cls-62{fill:#abc1ed;}.cls-61{fill:#424ea5;}.cls-63{fill:#0b0b38;}.cls-64{fill:#66665e;}.cls-65{fill:#79abd1;}.cls-66{fill:#babecc;}.cls-67{fill:#090543;}.cls-68{fill:#736357;}.cls-69{fill:#89796f;}.cls-70{fill:#564c45;}.cls-71{fill:#5b4d45;}.cls-72{fill:#ffdfb8;}.cls-73{fill:#ffdbb5;}.cls-74{fill:#edad9c;}.cls-75{fill:#0099b9;}.cls-76{fill:#00728e;}.cls-77{fill:#e3e5e5;}.cls-78,.cls-87{fill:#8b93a0;}.cls-79{fill:#e65253;}.cls-80,.cls-98{stroke:#9a0303;}.cls-100,.cls-102,.cls-80,.cls-84,.cls-85,.cls-86,.cls-98{stroke-miterlimit:10;}.cls-100,.cls-102,.cls-80,.cls-98{stroke-width:1.22px;}.cls-81,.cls-93{fill:#9a0303;}.cls-82{fill:#ee7267;}.cls-83{fill:#eead9f;}.cls-84,.cls-85,.cls-86{stroke:#736357;}.cls-84{stroke-width:2px;}.cls-85{stroke-width:2.56px;}.cls-86{stroke-width:2.38px;}.cls-88,.cls-89{fill:#5f646d;}.cls-90{fill:#fff;}.cls-91{fill:#fde1b6;}.cls-92{fill:#fff4e6;}.cls-93{opacity:0.05;}.cls-94,.cls-95{fill:#9c0301;}.cls-96{fill:#1cc6cf;}.cls-97{fill:#24dddd;}.cls-100,.cls-98{stroke-dasharray:4.88;}.cls-99{fill:#ffc34a;}.cls-100{stroke:#f2b12f;}.cls-101{fill:#fcd977;}.cls-102{stroke:#d93a34;}.cls-104{fill:#a67c52;}.cls-105{fill:#ffe5cc;}.cls-106{fill:#f7d3a9;}.cls-107{fill:#726159;}</style><clipPath id="clip-path"><rect class="cls-1" x="347" y="171" width="1629" height="729"/></clipPath></defs><title>macfly_auto</title><g id="Layer_2" data-name="Layer 2"><g id="Capa_1" data-name="Capa 1"><g id="Lines"><g class="cls-2"><polygon class="cls-3" points="1249.34 434.56 1114.12 416.32 461.57 443.78 532.14 464.74 1249.34 434.56"/><polygon class="cls-4" points="954.57 394.8 819.36 376.56 307.71 398.09 378.29 419.05 954.57 394.8"/><polygon class="cls-5" points="659.8 355.04 524.59 336.8 153.86 352.4 224.43 373.36 659.8 355.04"/><polygon class="cls-6" points="365.04 315.28 256.35 300.62 131.89 301.17 0 306.71 70.58 327.67 365.04 315.28"/><polygon class="cls-7" points="1544.1 474.32 1408.89 456.08 615.42 489.47 686 510.43 1544.1 474.32"/><polygon class="cls-8" points="1384.7 717.91 1521.41 758.5 2884 672.58 2752.72 654.87 1384.7 717.91"/><polygon class="cls-9" points="2457.96 615.11 1230.85 672.22 1301.42 693.18 2593.17 633.35 2457.96 615.11"/><polygon class="cls-10" points="1838.87 514.08 1703.66 495.84 769.28 535.15 839.86 556.11 1838.87 514.08"/><polygon class="cls-11" points="2133.64 553.83 1998.42 535.6 923.14 580.84 993.71 601.8 2133.64 553.83"/><polygon class="cls-12" points="2428.4 593.59 2293.19 575.35 1076.99 626.53 1147.57 647.49 2428.4 593.59"/></g></g><path class="cls-13" d="M2294.11,466c8.57,0,42.23-2.22,51.41-2.22,38.42,0,77.46,57.93,77.46,120.87s-29.66,110-68.08,110h-51c-38.42,0-69.5-48.16-73-111C2226.92,513.16,2255.69,466,2294.11,466Z"/><path class="cls-14" d="M2230.87,583.71c3.52,62.84,34.6,111,73,111s68.08-47.08,68.08-110S2332.52,466,2294.11,466,2226.92,513.16,2230.87,583.71Z"/><polygon class="cls-15" points="1284.32 293.75 1264.26 272.01 1185.66 267.55 1168.5 378.4 1229.28 378.4 1284.32 293.75"/><polygon class="cls-16" points="1185.66 267.55 1247.83 349.88 1229.28 378.4 1168.5 378.4 1185.66 267.55"/><path class="cls-17" d="M1241,97.27l-11.71-16.72,143-34.28c25.92-22.57,97.82-39.3,110.36-42.64S1498.5,5.3,1498.5,5.3c26.75,0,81.1,15,87.79,18.39s8.36,10.87,8.36,10.87l-5,4.18c-11.71,80.26-31.77,102-33.44,112s26.75,122.07,26.75,122.07L1455,271.17,1426.6,155,1328.77,88.9l-55.95,11.68-5.08-9.17Z"/><path class="cls-18" d="M1275.26,100.61s11.65,24.19,17.56,30.1c2.51,2.51,163-8.36,163-8.36,8.36-1.67,42.64-15.89,46-19.23s9.2-15.89,10-20.07,0-15,0-15l3.34-5c1.67-2.51,10,.84,13.38-5.85l-12.54-6.69s-5,6.69-15.89,8.36-15,11.71-45.15,8.36S1275.26,100.61,1275.26,100.61Z"/><path class="cls-19" d="M1417.17,70.51c15.56-1.38,30.74-4.13,37.86-3.34,30.1,3.34,34.28-6.69,45.15-8.36s15.89-8.36,15.89-8.36l12.54,6.69c-3.34,6.69-11.71,3.34-13.38,5.85l-3.34,5s.84,10.87,0,15-6.69,16.72-10,20.07-37.62,17.56-46,19.23c0,0-33.65-11.08-35.74-27.8s-10.47-17.37-10.47-17.37Z"/><path class="cls-20" d="M1276.1,104c30.1-8.36,174.74-34.28,174.74-34.28,30.94,5.85,48.49-7.52,48.49-7.52a34.64,34.64,0,0,0,18.39-8.36s33.44,14.21,36.79,20.07c0,0-5,51-21.74,56s-96.15,15.89-96.15,15.89-9.88,1.64-30.1-20.07l-38.46,2.51,56.85,42.64s101.19-20.77,112-22.57c10-1.67,29.19-69,25.92-74.41-5-8.36-46.82-28.43-46.82-28.43-8.36,10.87-18.39,10.87-18.39,10.87-19.23,15-46.82,6.69-46.82,6.69s-6.69-2.51-31.77,3.34-148,30.94-148,30.94S1273.59,104.79,1276.1,104Z"/><path class="cls-21" d="M1276.94,296.25s-80.26,34.28-102.84,48.49-34.41,28-34.41,28h31.21s10.73-17.14,17.42-23,73.58-35.12,73.58-35.12Z"/><path class="cls-22" d="M1270.66,303.36s-60.2,24.25-82.77,38.46-30.1,30.94-30.1,30.94h13.1s10.73-17.14,17.42-23,73.58-35.12,73.58-35.12Z"/><path class="cls-23" d="M1679.79,489.41s-129-35.6-126.11,126.07L1205.2,546.94s-16.47-103.68-38.21-88.07-29.39,20.62-31.7,84.72l-13.45-11.71s-11.15-44.59,0-88.07,55.46-54.07,70.65-20.62l494,32.54Z"/><path class="cls-14" d="M1170.15,440.27h42.93c21.18,0,38.35,43.09,38.35,96.25s-17.17,96.25-38.35,96.25h-42.93c-21.18,0-38.35-43.09-38.35-96.25S1149,440.27,1170.15,440.27Z"/><path class="cls-24" d="M1540.3,604.77s6.69,60.2,10,61.87,16.72,0,16.72,0v14.21s-6.69.84-21.74-2.51-311-69.4-315.21-76.92-10-51.84-10-51.84Z"/><path class="cls-25" d="M1540.3,604.77s6.69,60.2,10,61.87,16.72,0,16.72,0v-6.06s-9.82,2.3-10.45-2.93-9.2-54.14-9.2-54.14Z"/><path class="cls-14" d="M1624.76,467.86c10.54,0,51.92-2.73,63.2-2.73,47.23,0,95.22,71.22,95.22,148.6S1746.72,749,1699.49,749h-62.71c-47.23,0-85.44-59.21-89.77-136.47C1542.16,525.79,1577.53,467.86,1624.76,467.86Z"/><path class="cls-26" d="M1136.89,558.37l-5.43-.42S1111,405.36,1166.57,421.67a24.52,24.52,0,0,0-21.32,12.12C1127.69,462.22,1133.55,531.61,1136.89,558.37Z"/><path class="cls-27" d="M1512.71,384.72l-41.49-109.58s-98.14-2.3-123.22,1.88-66.05,49.33-88.63,87-15,85.28-15,85.28c7.52,41,54.35,112,54.35,112l151.1,26.46,5.25-113Z"/><path class="cls-19" d="M1278.82,384.67c-2.67-24.51,64.38-84.45,78.17-87s115.8-1.46,115.8-1.46l14.39,38.25s-18,24.62-26.45,49.12c-10.15,29.55,12.12,58,12.12,58-7.26,26.72-20.34,31.84-20.34,31.84l-4.34,84.24s-68.6-9.36-96.57-12.9c-27.44-3.48-21-49.32-21-59s-9.82-32.33-16.93-44.52S1281.67,410.94,1278.82,384.67Z"/><path class="cls-28" d="M1454.5,404.53a7.42,7.42,0,0,1-7.42-7.42V335.45a7.42,7.42,0,0,1,7.42-7.42h29.89l.36,0,2.43,6.46s-18,24.62-26.45,49.12a50.57,50.57,0,0,0-2.44,20.9Z"/><path class="cls-29" d="M1459.41,388.22V335.45a7.42,7.42,0,0,1,7.42-7.42h17.91l2.44,6.48s-18,24.62-26.45,49.12C1460.21,385.16,1459.77,386.7,1459.41,388.22Z"/><polygon class="cls-30" points="1324.31 320.93 1324.31 414.28 1372.77 414.28 1372.77 318.83 1326.82 318.83 1324.31 320.93"/><polygon class="cls-31" points="1365.77 325.1 1365.77 329.2 1359.15 329.25 1359.15 325.1 1365.77 325.1"/><polygon class="cls-32" points="1365.77 328.86 1365.77 332.96 1359.15 333.01 1359.15 328.86 1365.77 328.86"/><polygon class="cls-33" points="1365.77 332.83 1365.77 350.93 1359.15 351.12 1359.15 332.83 1365.77 332.83"/><rect class="cls-34" x="1359.15" y="350.15" width="6.62" height="41.07"/><polygon class="cls-31" points="1356.54 325.1 1356.54 329.2 1349.92 329.25 1349.92 325.1 1356.54 325.1"/><polygon class="cls-32" points="1356.54 328.86 1356.54 332.96 1349.92 333.01 1349.92 328.86 1356.54 328.86"/><polygon class="cls-33" points="1356.54 332.83 1356.54 350.93 1349.92 351.12 1349.92 332.83 1356.54 332.83"/><rect class="cls-34" x="1349.92" y="350.15" width="6.62" height="41.07"/><polygon class="cls-31" points="1347.48 325.1 1347.48 329.2 1340.86 329.25 1340.86 325.1 1347.48 325.1"/><polygon class="cls-32" points="1347.48 328.86 1347.48 332.96 1340.86 333.01 1340.86 328.86 1347.48 328.86"/><polygon class="cls-33" points="1347.48 332.83 1347.48 350.93 1340.86 351.12 1340.86 332.83 1347.48 332.83"/><rect class="cls-34" x="1340.86" y="350.15" width="6.62" height="41.07"/><polygon class="cls-31" points="1338.18 325.1 1338.18 329.2 1331.56 329.25 1331.56 325.1 1338.18 325.1"/><polygon class="cls-32" points="1338.18 328.86 1338.18 332.96 1331.56 333.01 1331.56 328.86 1338.18 328.86"/><polygon class="cls-33" points="1338.18 332.83 1338.18 350.93 1331.56 351.12 1331.56 332.83 1338.18 332.83"/><rect class="cls-34" x="1331.56" y="350.15" width="6.62" height="41.07"/><path class="cls-35" d="M1278.82,384.67c2.86,26.27,27.8,44.45,34.91,56.65s16.93,34.84,16.93,44.52-6.48,55.53,21,59c28,3.54,96.57,12.9,96.57,12.9l4.34-84.24s13.08-5.11,20.34-31.84c0,0-22.27-28.49-12.12-58,8.42-24.5,26.45-49.12,26.45-49.12l-14.39-38.25s-102-1-115.8,1.46c-2.61.47-7.11,3-12.69,6.95l11.65,1.62s-32.82,43.89-44.73,69.6h-27s2.33-10.83,13.43-27.58C1286.11,362.14,1277.85,375.75,1278.82,384.67Zm74.2,6.69,19.65-68.56h53.93v68.56Z"/><path class="cls-36" d="M1441.51,402.3s10.38-54-38.95-54-50,21.32-49.33,35.32A87.65,87.65,0,0,0,1358,408.5s-26.34,8.15-22.78,30.73c0,0,30.66,103.68,45.5,113.29l73.58,10.66,4.46-86.19,23.41-29.54S1463,400.35,1441.51,402.3Z"/><path class="cls-37" d="M1358,408.5a87.65,87.65,0,0,1-4.81-24.87c-.63-14,0-35.32,49.33-35.32,0,0-33.23,1.88-32.19,24.46s4.6,32.65,4.6,32.65S1363.94,405.1,1358,408.5Z"/><path class="cls-37" d="M1358,408.5s23.82-7.72,30.24,44.24c4.56,36.93,23.13,33.44,41.25,108.55l25.36,4.6,10.72-97.5s-8.36-7-9.32-26.87c-1.69-34.84-14.77-39.23-14.77-39.23s-3.62,4.11-58.18,3.48C1383.33,405.78,1364.52,403.9,1358,408.5Z"/><path class="cls-37" d="M1358,408.5s-26.34,8.15-22.78,30.73c0,0,30.66,103.68,45.5,113.29l21.6,3.89s-20.13-31.76-33.71-68.27C1359.69,464.09,1339.78,418.74,1358,408.5Z"/><polygon class="cls-38" points="1452.35 576.85 1321.39 553.77 1294.81 556.7 1298.62 564.47 1447.08 591.33 1452.35 576.85"/><polygon class="cls-39" points="1451.22 556.75 1357.76 543.6 1347.45 545.69 1347.92 555.57 1448.98 576.26 1451.22 556.75"/><polygon class="cls-36" points="1451.22 556.75 1357.76 543.6 1347.45 545.69 1450.58 562.28 1451.22 556.75"/><polygon class="cls-15" points="1160.24 371.84 1227.08 371.84 1227.08 357.25 1187.37 357.25 1160.23 370.64 1160.24 371.84"/><polygon class="cls-40" points="1160.23 370.64 1160.24 371.84 1227.08 371.84 1227.08 370.64 1160.23 370.64"/><path class="cls-41" d="M1198.38,354l11.31-4.18v7.89h-.09l0,0c.52,1.19-1.54,3.25-4.62,4.61s-6,1.49-6.52.3l-.09-4.94Z"/><ellipse class="cls-15" cx="1204.03" cy="351.89" rx="6.09" ry="2.35" transform="translate(-39.63 515.68) rotate(-23.79)"/><path class="cls-41" d="M1202.18,350l3.19-1.18V351s0,0,0,0v0h0c-.06.34-.61.75-1.32,1.13a1.72,1.72,0,0,1-1.86,0Z"/><ellipse class="cls-15" cx="1203.77" cy="349.45" rx="1.72" ry="0.66" transform="translate(-38.67 515.37) rotate(-23.79)"/><path class="cls-41" d="M1213.74,354l11.31-4.18v7.89H1225l0,0c.52,1.19-1.54,3.25-4.62,4.61s-6,1.49-6.52.3l-.09-4.94Z"/><ellipse class="cls-15" cx="1219.4" cy="351.89" rx="6.09" ry="2.35" transform="translate(-38.32 521.88) rotate(-23.79)"/><path class="cls-41" d="M1217.54,350l3.19-1.18V351s0,0,0,0v0h0c-.06.34-.61.75-1.32,1.13a1.72,1.72,0,0,1-1.86,0Z"/><ellipse class="cls-15" cx="1219.13" cy="349.45" rx="1.72" ry="0.66" transform="translate(-37.36 521.56) rotate(-23.79)"/><path class="cls-42" d="M1134.8,371.5s71.89,2.28,78.59-2.51c2.93-2.09,69-88.21,89.88-98.24s444.83,5.75,467.79,9.62c25.22,4.25,208.19,93.64,208.19,93.64s413.86,50.17,436.44,64.38c14,8.79,30.94,56.85,30.94,56.85,5.85,1.67,10.87,5,10.87,11.71V563.8s-529.25,82.77-576.9,61.87l-134.61,10s-39.3-158.86-122.91-168.05-87.79,93.64-82.77,137.12l-93.85-13.53,6.06-117.73,9.2-11.71L1509.19,376l-37.92-99s-101.35-3.61-123.26,0c-25.08,4.18-66.05,49.33-88.63,87s-15,85.28-15,85.28c7.52,41,56.3,115.59,56.3,115.59l-80.54-15.26c-13.38-51.84-17.73-117.43-53.51-127.92C1111,405.36,1131.46,558,1131.46,558l-8.36-3.34c-8.36-5-15.89-59.36-22.57-95.31S1134.8,371.5,1134.8,371.5Z"/><path class="cls-17" d="M1446.46,591.24l6.06-117.73,9.2-11.71L1509.19,376l386,73-23.13,98.52,84.17,72.18-75.67,6-134.61,10s-20.7-83.68-64-133.09l-.18-.2-.64-.72a124.32,124.32,0,0,0-28.39-24,79.4,79.4,0,0,0-17.5-7.63l2.15.43a51.74,51.74,0,0,0-12.65-2.69h0a70.27,70.27,0,0,1,10.52,2.25l-11.21-2.26q-2.19,0-4.31,0c2.12-.19,3.34-.2,3.34-.2-83.61-9.2-87.79,93.64-82.77,137.12Z"/><path class="cls-27" d="M2370.09,427.71c24.76,4.39,41.53,8.12,45.6,10.68,14,8.79,30.94,56.85,30.94,56.85,5.85,1.67,10.87,5,10.87,11.71V519.7s-447.76,38.52-477,36.16-114.13-8.78-114.13-8.78-1.92-19.23-.7-21.11,5-4.49,6.34-7.63,19.16-65.18,23.2-69.36S2370.09,427.71,2370.09,427.71Z"/><path class="cls-24" d="M2350.48,573l21.07,15a4.74,4.74,0,0,1,1.94,4.52l-2.94,20.56c-1.46,12.75,8.36,14.21,11.71,17.56s10.87,10.87-9.2,14.21-362.88,60.54-424.73,61c-52.26.42-134.19-4.6-164.29-4.6-16.72,0-45.57-54.76-44.73-67.31Z"/><path class="cls-24" d="M1959.81,531.89c108,6.89,465.05-28.66,465.05-28.66l-5.31-58.68-459.75,17.51Z"/><path class="cls-43" d="M2089,462.22l-53.31,2.13a4,4,0,0,0-3.72,4.15l1.42,49.56a4,4,0,0,0,4.25,3.91l53.31-3.61a4,4,0,0,0,3.61-4.15l-1.42-48.08A4,4,0,0,0,2089,462.22Z"/><path class="cls-44" d="M2022.28,465.24l-53.93,2.16a4,4,0,0,0-3.76,4.2l1.43,50.07a4,4,0,0,0,4.3,3.95l53.93-3.65a4,4,0,0,0,3.65-4.19l-1.43-48.57A4,4,0,0,0,2022.28,465.24Z"/><path class="cls-13" d="M1131.81,536.53c0,53.16,16.43,96.25,36.7,96.25s36.7-43.09,36.7-96.25-15.82-96.25-36.09-96.25S1131.81,483.37,1131.81,536.53Z"/><ellipse class="cls-45" cx="1166.99" cy="541.23" rx="25.5" ry="66.89"/><path class="cls-46" d="M1856.35,549.59l-2.51,47.66L1998.48,614s430.59-36,474.9-55.18V521.16L2261,542.07s-261.7,24.25-287.62,19.23Z"/><path class="cls-25" d="M1835.28,615.78V531.93c15.17-4.29,26.5-2.4,26.5-2.4v82.35S1846.31,611,1835.28,615.78Z"/><path class="cls-47" d="M2329.16,579.27s-1,44.47-6.27,47.24c-7.11,3.76-277.16,43.06-288,35.53s-15-53.51-15-53.51Z"/><path class="cls-46" d="M1273.59,563.18l168.26,31.56v15l-168.26-31.61c-4.18-.33-7.5-3.36-7.5-7.5A7.5,7.5,0,0,1,1273.59,563.18Z"/><circle class="cls-48" cx="1441.85" cy="602.29" r="7.5"/><path class="cls-38" d="M1986.92,552.38c-18.39.49-134.75-10.31-134.75-10.31-5.85,5.85-.84,12.54-.84,12.54s124.42,13.67,132.94,13.38c196.48-6.69,473.23-41,473.23-41s25.08-1.67,25.08-10c0-10-20.46-8.47-20.46-8.47l-.15,7.34C2420.71,521.16,2065.55,550.29,1986.92,552.38Z"/><path class="cls-38" d="M2473.38,552.1s9.2-1.67,9.2,5.85c0,5.43-7.94,6.83-7.94,6.83-52,14.49-159.17,26.3-199.41,30,0,0-255.84,25.92-291,23.41S1853,605.61,1853,605.61s-4.6-7.94.84-13.38c0,0,119.33,10.95,132.1,11.71,31.77,1.88,279-21.84,275.5-22C2261.44,581.89,2468.37,562,2473.38,552.1Z"/><path class="cls-44" d="M2415.47,449.26,2382.29,451c-1.33.1-2.35,1.58-2.31,3.34l.88,39.8c0,1.86,1.25,3.29,2.64,3.14l33.18-2.9c1.3-.14,2.29-1.61,2.25-3.33l-.88-38.61C2418,450.58,2416.84,449.17,2415.47,449.26Z"/><path class="cls-43" d="M2374,451.69l-33.56,1.76c-1.34.1-2.38,1.61-2.34,3.42l.89,40.8c0,1.9,1.26,3.37,2.67,3.22l33.56-3c1.31-.14,2.31-1.65,2.27-3.42l-.89-39.58C2376.54,453,2375.37,451.59,2374,451.69Z"/><polygon class="cls-46" points="2109.29 460.98 2112.86 528.46 2136.58 532.78 2356.19 513.94 2340.3 450.01 2109.29 460.98"/><polygon class="cls-47" points="2109.29 460.98 2136.58 532.78 2112.86 528.46 2109.29 460.98"/><path class="cls-25" d="M1623.08,467.65c-83.61-9.2-87.79,93.64-82.77,137.12l7.11-1.25s-5.85-51.84,10.87-92C1576.49,467.86,1623.08,467.65,1623.08,467.65Z"/><path class="cls-13" d="M1547,612.52c4.32,77.26,42.53,136.47,89.77,136.47s83.7-57.88,83.7-135.26S1672,467.86,1624.76,467.86,1542.16,525.79,1547,612.52Z"/><path class="cls-45" d="M1573.73,615.29c2.81,50.22,27.65,88.7,58.35,88.7s54.4-37.62,54.4-87.91-31.19-96.59-61.89-96.59S1570.58,558.91,1573.73,615.29Z"/><polygon class="cls-39" points="1861.78 529.52 1845.06 533.29 1715.88 515.31 1736.37 512.52 1861.78 529.52"/><path class="cls-49" d="M1520.93,373.84l-39.89-97s262.4,7.09,289,8.81c16.12,1,187.52,88.35,187.52,88.35Z"/><polygon class="cls-36" points="1716.3 599.34 1846.31 621.49 1845.06 533.29 1715.88 515.31 1716.3 599.34"/><path class="cls-50" d="M1801.42,610.88l21.23,2.67a4.09,4.09,0,0,0,4-4.16V539.28a4.09,4.09,0,0,0-4-4.16l-21.23-2.67a4.09,4.09,0,0,0-4,4.16v70.11A4.09,4.09,0,0,0,1801.42,610.88Z"/><path class="cls-50" d="M1732.2,571.24l32.67,4.26a2.9,2.9,0,0,0,3.27-2.87v-41.7a2.9,2.9,0,0,0-2.65-2.89l-32.67-3.68a2.9,2.9,0,0,0-3.15,2.89v41.12A2.9,2.9,0,0,0,1732.2,571.24Z"/><ellipse class="cls-51" cx="1639.52" cy="616.41" rx="24.66" ry="39.92"/><path class="cls-51" d="M1184.55,513.15c2.47,0,4.73,2.2,6.5,5.87a167.66,167.66,0,0,1,1.45,22.21c0,5.58-.26,11-.76,16.18-1.85,4.6-4.39,7.44-7.19,7.44-5.66,0-10.24-11.57-10.24-25.85S1178.89,513.15,1184.55,513.15Z"/><text class="cls-52" transform="matrix(-0.68, 0.05, 0.08, 1, 2275.76, 489.78)">D</text><text class="cls-52" transform="matrix(-0.68, 0.05, 0.08, 1, 2259.78, 491.01)">M</text><text class="cls-52" transform="matrix(-0.68, 0.05, 0.08, 1, 2238.57, 492.64)">C</text><path class="cls-53" d="M2273.41,545.23c-.38-3.49-1.87-10.82-7.73-11.67a14.61,14.61,0,0,1,10-.79c4,1.12,5.66,7.62,6.3,11.15a4.23,4.23,0,0,1-1.25,3.8l-.13.13a4.25,4.25,0,0,1-5.41.38h0A4.25,4.25,0,0,1,2273.41,545.23Z"/><path class="cls-54" d="M2268.86,532.54a13.53,13.53,0,0,1,3.3-.28c.91,0,5.83,1.45,7,9.32.32,2.13.62,4.7-.8,5s-1.66-2.86-2-4.63-1.84-9-7.54-9.39"/><path class="cls-53" d="M2302.81,542.64c-.38-3.49-1.87-10.82-7.73-11.67a14.61,14.61,0,0,1,10-.79c4,1.12,5.66,7.62,6.3,11.15a4.23,4.23,0,0,1-1.25,3.8l-.13.13a4.25,4.25,0,0,1-5.41.38h0A4.25,4.25,0,0,1,2302.81,542.64Z"/><path class="cls-54" d="M2298.27,529.94a13.53,13.53,0,0,1,3.3-.28c.91,0,5.83,1.45,7,9.32.32,2.13.62,4.7-.8,5s-1.66-2.86-2-4.63-1.84-9-7.54-9.39"/><path class="cls-55" d="M2069.52,559.85c-.38-3.49-1.87-10.82-7.73-11.67a14.61,14.61,0,0,1,10-.79c4,1.12,5.66,7.62,6.3,11.15a4.23,4.23,0,0,1-1.25,3.8l-.13.13a4.25,4.25,0,0,1-5.41.38h0A4.25,4.25,0,0,1,2069.52,559.85Z"/><path class="cls-54" d="M2065,547.16a13.53,13.53,0,0,1,3.3-.28c.91,0,5.83,1.45,7,9.32.32,2.13.62,4.7-.8,5s-1.66-2.86-2-4.63-1.84-9-7.54-9.39"/><path class="cls-53" d="M2370.61,536.87c-.38-3.49-1.87-10.82-7.73-11.67a14.61,14.61,0,0,1,10-.79c4,1.12,5.66,7.62,6.3,11.15a4.23,4.23,0,0,1-1.25,3.8l-.13.13a4.25,4.25,0,0,1-5.41.38h0A4.25,4.25,0,0,1,2370.61,536.87Z"/><path class="cls-54" d="M2366.07,524.17a13.53,13.53,0,0,1,3.3-.28c.91,0,5.83,1.45,7,9.32.32,2.13.62,4.7-.8,5s-1.66-2.86-2-4.63-1.84-9-7.54-9.39"/><path class="cls-53" d="M2448.84,558.86c.42,3.49.62,11-4.89,13.11a14.61,14.61,0,0,0,9.89-1.48c3.62-2,3.8-8.7,3.62-12.28a4.23,4.23,0,0,0-2.08-3.42l-.16-.09a4.25,4.25,0,0,0-5.35.85h0A4.25,4.25,0,0,0,2448.84,558.86Z"/><path class="cls-54" d="M2447.28,572.25a13.53,13.53,0,0,0,3.28-.47c.88-.24,5.35-2.73,4.74-10.66-.17-2.15-.45-4.72-1.9-4.67s-1,3.16-.89,5,.25,9.21-5.23,10.85"/><path class="cls-55" d="M1938.18,561.25c-.2-3.51-1.52-9.75,4.12-11.54a11.91,11.91,0,0,0-10-.11c-3.73,1.76-2.75,8.18-2.79,11.77a4.23,4.23,0,0,0,1.86,3.54l.15.1a4.25,4.25,0,0,0,5.4-.51h0A4.25,4.25,0,0,0,1938.18,561.25Z"/><path class="cls-54" d="M1939.7,548.79a11.27,11.27,0,0,0-3.25-.23c-.9.12-4.68,2.07-4.58,10,0,2.15.15,4.78,1.61,4.78,1.15,0,1.06-3.09,1.09-4.9S1934.13,550.09,1939.7,548.79Z"/><path class="cls-53" d="M1870.07,555.6c-.2-3.51-1.52-9.75,4.12-11.54a11.91,11.91,0,0,0-10-.11c-3.73,1.76-2.75,8.18-2.79,11.77a4.23,4.23,0,0,0,1.86,3.54l.15.1a4.25,4.25,0,0,0,5.4-.51h0A4.25,4.25,0,0,0,1870.07,555.6Z"/><path class="cls-54" d="M1871.59,543.15a11.27,11.27,0,0,0-3.25-.23c-.9.12-4.68,2.07-4.58,10,0,2.15.15,4.78,1.61,4.78,1.15,0,1.06-3.09,1.09-4.9S1866,544.44,1871.59,543.15Z"/><circle class="cls-56" cx="2001.36" cy="498.59" r="18.45"/><ellipse class="cls-56" cx="2400.93" cy="476.29" rx="12.62" ry="14.79"/><path class="cls-53" d="M2330.83,519.14s28.52-3,31.43-1.32c7.22,4.22,8.15,14.25,8.15,14.25l-16.9,1.31s-3.58-6.82-4.66-6.73L2331.52,528h0a4.44,4.44,0,0,1-.69-8.84Z"/><path class="cls-55" d="M2326.75,523.9a4.42,4.42,0,0,1,.35-2.11s19.8-1.79,21.33-1.5c8.52,1.61,10.51,12.67,10.51,12.67l-5.44.42s-3.58-6.82-4.66-6.73L2331.52,528v0A4.43,4.43,0,0,1,2326.75,523.9Z"/><path class="cls-53" d="M2183.51,530.51s28.63-1.73,31.45.09c7,4.54,7.5,14.6,7.5,14.6l-16.94.55s-3.27-7-4.36-6.93l-17.37.56h0a4.44,4.44,0,0,1-.29-8.87Z"/><path class="cls-55" d="M2179.22,535.08a4.42,4.42,0,0,1,.45-2.09s19.86-.9,21.38-.54c8.44,2,9.93,13.13,9.93,13.13l-5.45.18s-3.27-7-4.36-6.93l-17.37.56v0A4.43,4.43,0,0,1,2179.22,535.08Z"/><path class="cls-53" d="M2190.75,551.19c-.38-3.49-1.87-10.82-7.73-11.67a14.61,14.61,0,0,1,10-.79c4,1.12,5.66,7.62,6.3,11.15a4.23,4.23,0,0,1-1.25,3.8l-.13.13a4.25,4.25,0,0,1-5.41.38h0A4.25,4.25,0,0,1,2190.75,551.19Z"/><path class="cls-54" d="M2186.2,538.5a13.53,13.53,0,0,1,3.3-.28c.91,0,5.83,1.45,7,9.32.32,2.13.62,4.7-.8,5s-1.66-2.86-2-4.63-1.84-9-7.54-9.39"/><path class="cls-53" d="M2435.12,510s28.43-3.78,31.38-2.16c7.33,4,8.53,14,8.53,14l-16.86,1.76s-3.76-6.72-4.84-6.6L2436,518.85h0a4.44,4.44,0,0,1-.92-8.82Z"/><path class="cls-55" d="M2431.17,514.88a4.42,4.42,0,0,1,.3-2.12s19.74-2.32,21.28-2.07c8.56,1.38,10.84,12.39,10.84,12.39l-5.43.57s-3.76-6.72-4.84-6.6L2436,518.85v0A4.43,4.43,0,0,1,2431.17,514.88Z"/><path class="cls-53" d="M2448,529.79c-.38-3.49-1.87-10.82-7.73-11.67a14.61,14.61,0,0,1,10-.79c4,1.12,5.66,7.62,6.3,11.15a4.23,4.23,0,0,1-1.25,3.8l-.13.13a4.25,4.25,0,0,1-5.41.38h0A4.25,4.25,0,0,1,2448,529.79Z"/><path class="cls-54" d="M2443.46,517.09a13.53,13.53,0,0,1,3.3-.28c.91,0,5.83,1.45,7,9.32.32,2.13.62,4.7-.8,5s-1.66-2.86-2-4.63-1.84-9-7.54-9.39"/><path class="cls-53" d="M2019.81,542.27s28.64-1.63,31.45.21c7,4.56,7.45,14.63,7.45,14.63l-16.95.49s-3.25-7-4.33-6.95l-17.37.5h0a4.44,4.44,0,0,1-.26-8.87Z"/><path class="cls-55" d="M2015.5,546.83a4.42,4.42,0,0,1,.46-2.09s19.86-.82,21.38-.46c8.43,2,9.88,13.17,9.88,13.17l-5.45.16s-3.25-7-4.33-6.95l-17.37.5v0A4.43,4.43,0,0,1,2015.5,546.83Z"/><path class="cls-55" d="M2022.76,562.59c-.38-3.49-1.87-10.82-7.73-11.67a14.61,14.61,0,0,1,10-.79c4,1.12,5.66,7.62,6.3,11.15a4.23,4.23,0,0,1-1.25,3.8l-.13.13a4.25,4.25,0,0,1-5.41.38h0A4.25,4.25,0,0,1,2022.76,562.59Z"/><path class="cls-54" d="M2018.21,549.89a13.53,13.53,0,0,1,3.3-.28c.91,0,5.83,1.45,7,9.32.32,2.13.62,4.7-.8,5s-1.66-2.86-2-4.63-1.84-9-7.54-9.39"/><path class="cls-57" d="M1755.6,373.93l-234.66-.09-39.89-97s61.24,1.66,118.91,3.3Z"/><path class="cls-24" d="M1255.06,368l1.88.42c41.69-68.89,76.73-88.95,91.06-91.42,0,0,16.62-4.18,123.26,0l3.46,9s-114.57-1.78-122.54,1c-43.06,15.26-84.45,83.82-84.45,83.82-5,6.34-1.3,39.69,19.65,61,28,28.53,33.23,50.79,30.52,79.85-2.29,24.44,3.48,42,3.48,42l-25.86,2.63s-48.73-62.77-52.4-104.82S1244.75,386.41,1255.06,368Z"/><path class="cls-17" d="M1259.38,364c-22.57,37.62-15,85.28-15,85.28,7.52,41,56.3,115.59,56.3,115.59l-80.54-15.26c-13.38-51.84-17.73-117.43-53.51-127.92C1111,405.36,1131.46,558,1131.46,558l-8.36-3.34c-8.36-5-15.89-59.36-22.57-95.31s34.28-87.79,34.28-87.79,71.89,2.28,78.59-2.51Z"/><path class="cls-53" d="M2372.13,571.19c.42,3.49.62,11-4.89,13.11a14.61,14.61,0,0,0,9.89-1.48c3.62-2,3.8-8.7,3.62-12.28a4.23,4.23,0,0,0-2.08-3.42l-.16-.09a4.25,4.25,0,0,0-5.35.85h0A4.25,4.25,0,0,0,2372.13,571.19Z"/><path class="cls-54" d="M2370.57,584.59a13.53,13.53,0,0,0,3.28-.47c.88-.24,5.35-2.73,4.74-10.66-.17-2.15-.45-4.72-1.9-4.67s-1,3.16-.89,5,.25,9.21-5.23,10.85"/><path class="cls-53" d="M2304.13,579.34c.42,3.49.62,11-4.89,13.11a14.61,14.61,0,0,0,9.89-1.48c3.62-2,3.8-8.7,3.62-12.28a4.23,4.23,0,0,0-2.08-3.42l-.16-.09a4.25,4.25,0,0,0-5.35.85h0A4.25,4.25,0,0,0,2304.13,579.34Z"/><path class="cls-54" d="M2302.57,592.74a13.53,13.53,0,0,0,3.28-.47c.88-.24,5.35-2.73,4.74-10.66-.17-2.15-.45-4.72-1.9-4.67s-1,3.16-.89,5,.25,9.21-5.23,10.85"/><path class="cls-53" d="M2274.3,582.27c.42,3.49.62,11-4.89,13.11a14.61,14.61,0,0,0,9.89-1.48c3.62-2,3.8-8.7,3.62-12.28a4.23,4.23,0,0,0-2.08-3.42l-.16-.09a4.25,4.25,0,0,0-5.35.85h0A4.25,4.25,0,0,0,2274.3,582.27Z"/><path class="cls-54" d="M2272.75,595.67a13.53,13.53,0,0,0,3.28-.47c.88-.24,5.35-2.73,4.74-10.66-.17-2.15-.45-4.72-1.9-4.67s-1,3.16-.89,5,.25,9.21-5.23,10.85"/><path class="cls-53" d="M2191.84,590.74c.42,3.49.62,11-4.89,13.11a14.61,14.61,0,0,0,9.89-1.48c3.62-2,3.8-8.7,3.62-12.28a4.23,4.23,0,0,0-2.08-3.42l-.16-.09a4.25,4.25,0,0,0-5.35.85h0A4.25,4.25,0,0,0,2191.84,590.74Z"/><path class="cls-54" d="M2190.28,604.13a13.53,13.53,0,0,0,3.28-.47c.88-.24,5.35-2.73,4.74-10.66-.17-2.15-.45-4.72-1.9-4.67s-1,3.16-.89,5,.25,9.21-5.23,10.85"/><path class="cls-53" d="M2069.56,602.19c-.23,3.51-1.4,10.89-7.21,12a14.61,14.61,0,0,0,10,.35c3.92-1.29,5.32-7.86,5.8-11.41a4.23,4.23,0,0,0-1.41-3.74l-.14-.12a4.25,4.25,0,0,0-5.42-.14h0A4.25,4.25,0,0,0,2069.56,602.19Z"/><path class="cls-54" d="M2065.58,615.07a13.53,13.53,0,0,0,3.31.13c.91-.08,5.76-1.7,6.61-9.62.23-2.14.42-4.73-1-4.94s-1.53,2.93-1.78,4.72-1.44,9.1-7.12,9.71"/><path class="cls-53" d="M2022.72,604.63c.16,3.51-.21,11-5.87,12.7a14.61,14.61,0,0,0,10-.73c3.75-1.71,4.44-8.39,4.53-12a4.23,4.23,0,0,0-1.81-3.57l-.15-.11a4.25,4.25,0,0,0-5.4.44h0A4.25,4.25,0,0,0,2022.72,604.63Z"/><path class="cls-54" d="M2020.16,617.87a13.53,13.53,0,0,0,3.31-.23c.89-.17,5.54-2.31,5.53-10.28,0-2.15-.1-4.74-1.55-4.8s-1.2,3.07-1.26,4.88-.45,9.2-6,10.42"/><path class="cls-55" d="M1934.84,602.08c-.72,3.44-3,9.41,2.34,12a11.91,11.91,0,0,1-9.86-1.38c-3.43-2.29-1.49-8.49-1-12.05a4.23,4.23,0,0,1,2.36-3.23l.17-.08a4.25,4.25,0,0,1,5.26,1.31h0A4.25,4.25,0,0,1,1934.84,602.08Z"/><path class="cls-54" d="M1934.47,614.63a11.27,11.27,0,0,1-3.24-.25c-.87-.26-4.32-2.75-3-10.6.35-2.12.87-4.71,2.3-4.49,1.13.17.58,3.22.35,5S1929.16,612.51,1934.47,614.63Z"/><path class="cls-53" d="M1865.67,595.12c-.72,3.44-3,9.41,2.34,12a11.91,11.91,0,0,1-9.86-1.38c-3.43-2.29-1.49-8.49-1-12.05a4.23,4.23,0,0,1,2.36-3.23l.17-.08a4.25,4.25,0,0,1,5.26,1.31h0A4.25,4.25,0,0,1,1865.67,595.12Z"/><path class="cls-54" d="M1865.31,607.66a11.27,11.27,0,0,1-3.24-.25c-.87-.26-4.32-2.75-3-10.6.35-2.12.87-4.71,2.3-4.49,1.13.17.58,3.22.35,5S1860,605.55,1865.31,607.66Z"/><path class="cls-57" d="M1701.36,283.3c32.57,1,61.39,1.9,68.64,2.37,16.12,1,187.52,88.35,187.52,88.35l-105.21,0Z"/><path class="cls-49" d="M1527.89,58.32c10.13,4.68,24.5,11.81,26.63,15.54,0,0-5,51-21.74,56s-96.15,15.89-96.15,15.89-9.88,1.64-30.1-20.07l49.33-3.34c8.36-1.67,42.64-15.89,46-19.23s9.2-15.89,10-20.07,0-15,0-15l3.34-5C1516.78,60.65,1524.19,63.37,1527.89,58.32Z"/><path class="cls-42" d="M1482.61,3.62c-12.54,3.34-84.45,20.07-110.36,42.64l-149.87,36-2.3-5.28s2.37-5,9.2-9.13c0,0,18.25-9.62,38.6-14.35,0,0,187.84-46.47,210.42-51Z"/><polygon class="cls-58" points="1483.81 3.32 1481.78 0 1269.13 51.28 1266.48 54.8 1473.99 4.5 1474.45 5.72 1483.81 3.32"/><text class="cls-59" transform="matrix(-0.83, 0, 0, 1, 1421.47, 376.78)">D</text><text class="cls-59" transform="matrix(-0.83, 0, 0, 1, 1413.06, 376.76)">M</text><text class="cls-59" transform="matrix(-0.83, 0, 0, 1, 1401.88, 376.74)">C</text><text class="cls-60" transform="matrix(-0.68, 0.05, 0.08, 1, 2275.76, 489.78)">D</text><text class="cls-60" transform="matrix(-0.68, 0.05, 0.08, 1, 2259.78, 491.01)">M</text><text class="cls-60" transform="matrix(-0.68, 0.05, 0.08, 1, 2238.57, 492.64)">C</text><polygon class="cls-61" points="1451.73 489.18 1554.95 501.93 1562.74 490.19 1452.24 477.77 1451.73 489.18"/><text class="cls-62" transform="matrix(-0.83, 0, 0, 1, 1421.47, 376.78)">D</text><text class="cls-62" transform="matrix(-0.83, 0, 0, 1, 1413.06, 376.76)">M</text><text class="cls-62" transform="matrix(-0.83, 0, 0, 1, 1401.88, 376.74)">C</text><polygon class="cls-53" points="1799.37 524.35 1829.31 528.76 1830.59 528.06 1830.59 509.44 1801.32 507.37 1799.37 508.43 1799.37 524.35"/><path class="cls-63" d="M1434.36,602.29a7.48,7.48,0,0,1,2.77-5.82c55.75,12.39,72.13-80.92,81-112.38,9-31.65,69.27-52.41,103.65-54.58,51.3-3.25,62.49,55.14,95.86,65.68,33.75,10.67,73-50.12,98.41-45.8,27,4.59,5.77,52.07,5.77,52.07l-10.41-.9s14.94-30.4,3.8-40.37c-10.2-9.13-49.78,52.44-94.76,47.17-36.47-4.28-43.48-42.23-76.54-62.08-29.8-17.89-107.12,18.51-114.54,41.5-7.7,23.86-30,136.09-93.09,120.55A7.46,7.46,0,0,1,1434.36,602.29Z"/><polygon class="cls-64" points="1808.13 500.08 1824.07 501.45 1823.84 503.6 1822.14 503.47 1821.52 509.49 1808.98 508.55 1809.67 502.45 1807.89 502.23 1808.13 500.08"/><path class="cls-38" d="M1454.35,268.43s-124.35-2.08-131.71,1.16c-27.59,12.12-97,132.85-119.7,136.05-23.06,3.25-71.69-5.73-77.79-3.93-22.33,6.58-14.39,77.54-.38,144.85,0,0,.94,4,9.13,3.29l.16,5.24s-11.29,1.92-14.1-7.17c-4.08-13.17-32.09-145.05,2.93-152.45,11.22-2.37,67.13,6.89,79,1.64,22.68-10,86.61-120.78,118-134.72,10.05-4.47,135.8-.73,135.8-.73l-2.74.87Z"/><polygon class="cls-61" points="1245.48 454.55 1193.74 448.74 1197.56 457.71 1248.23 463.99 1245.48 454.55"/><path class="cls-19" d="M1421.58,167.5s19.23,61.87,19.23,72.74S1445,257,1451.68,262c5.79,4.34,76.15-2.6,94.92-4.54a7.09,7.09,0,0,0,6.38-6.71c.75-16.9-9.17-61.87-12.67-72.36s-4.06-26.1-.3-33.46c0,0-5.55-7.51-4.72-12.52.38-2.29-.11-3.36-1-3.77-1.05-.49-93.41,16.31-97.67,16.31a13.22,13.22,0,0,0-12.54,8.36c-3.34,8.36-2.51,14.21-2.51,14.21"/><path class="cls-18" d="M1519.56,131.08s13.79-3,14.84-2.42c.81.44,1.25,1.52.88,3.71-.84,5,4.72,12.52,4.72,12.52-3.76,7.36-3.18,23,.3,33.46s13.42,55.46,12.67,72.36a7.09,7.09,0,0,1-6.38,6.71c-2.76.29-6.65.68-11.28,1.13,0,0-10.28-10-6.72-28.16s-8.15-69.19-8.15-69.19S1511.78,136.27,1519.56,131.08Z"/><path class="cls-61" d="M1389,267.79c.75.81,1.71,1.13,3.52,1.06.84,0,2.7-.63,2.66-5,0-1.38,0-4.79-3.71-4.78-2.48,0-2.61,1.2-2.61,1.2A12.72,12.72,0,0,1,1389,267.79Z"/><path class="cls-65" d="M1392.35,259.19a7.48,7.48,0,0,1,1.46,4.8,11.9,11.9,0,0,1-1.13,4.85,7.08,7.08,0,0,1-1.91-.08,10.39,10.39,0,0,0,0-9.59A4.81,4.81,0,0,1,1392.35,259.19Z"/><path class="cls-61" d="M1308,281.36c1.15,0,2.11-.43,3.4-1.82.6-.65,1.53-2.46-1.7-5.64-1-1-3.52-3.57-6.28-.79-1.83,1.84-1,2.82-1,2.82A13.31,13.31,0,0,1,1308,281.36Z"/><path class="cls-65" d="M1304.11,272.49a7.83,7.83,0,0,1,4.63,2.47,12.46,12.46,0,0,1,2.75,4.43,7.41,7.41,0,0,1-1.47,1.36,10.87,10.87,0,0,0-7.13-7.07A5,5,0,0,1,1304.11,272.49Z"/><path class="cls-61" d="M1259.46,343.18c1.26-.13,2.23-.8,3.41-2.53.55-.8,1.27-2.93-2.76-5.88-1.28-.94-4.41-3.33-7,.15-1.7,2.3-.69,3.25-.69,3.25A14.68,14.68,0,0,1,1259.46,343.18Z"/><path class="cls-65" d="M1253.83,334.13a8.63,8.63,0,0,1,5.45,2,13.74,13.74,0,0,1,3.71,4.39,8.17,8.17,0,0,1-1.39,1.72,12,12,0,0,0-8.92-6.56A5.55,5.55,0,0,1,1253.83,334.13Z"/><path class="cls-61" d="M1203,405.7c-.66,1.08-1.67,1.65-3.73,2-1,.15-3.17-.11-4.1-5-.29-1.55-1.1-5.38,3.11-6.2,2.79-.54,3.21.77,3.21.77A14.57,14.57,0,0,0,1203,405.7Z"/><path class="cls-65" d="M1197.26,396.78a8.57,8.57,0,0,0-.58,5.72,13.64,13.64,0,0,0,2.35,5.2,8.11,8.11,0,0,0,2.13-.51,11.91,11.91,0,0,1-2.08-10.8A5.51,5.51,0,0,0,1197.26,396.78Z"/><path class="cls-61" d="M1123.17,402.57c-.13,1-.7,1.8-2.13,2.72-.66.43-2.42,1-4.73-2.37-.74-1.06-2.62-3.67.27-5.68,1.91-1.33,2.66-.49,2.66-.49A12,12,0,0,0,1123.17,402.57Z"/><path class="cls-65" d="M1115.92,397.79a7,7,0,0,0,1.47,4.48,11.19,11.19,0,0,0,3.49,3.11,6.65,6.65,0,0,0,1.43-1.1,9.77,9.77,0,0,1-5.16-7.4A4.52,4.52,0,0,0,1115.92,397.79Z"/><path class="cls-61" d="M1106.73,469.86c-.65.64-.89,1.45-.77,3,.05.69.61,2.21,4.19,2.05,1.14-.05,4-.12,3.84-3.23-.09-2.05-1.08-2.13-1.08-2.13A10.55,10.55,0,0,1,1106.73,469.86Z"/><path class="cls-65" d="M1114,472.4a6.2,6.2,0,0,1-3.93,1.36A9.87,9.87,0,0,1,1106,473a5.87,5.87,0,0,1,0-1.59,8.62,8.62,0,0,0,7.95-.34A4,4,0,0,1,1114,472.4Z"/><path class="cls-61" d="M1119.48,546.44a2.8,2.8,0,0,0,0,2.54c.18.55.93,1.67,3.79.84.91-.26,3.19-.88,2.48-3.36-.47-1.65-1.29-1.51-1.29-1.51A8.78,8.78,0,0,1,1119.48,546.44Z"/><path class="cls-65" d="M1125.83,547.07a5.16,5.16,0,0,1-2.91,1.87,8.22,8.22,0,0,1-3.43.16,4.88,4.88,0,0,1-.31-1.29,7.17,7.17,0,0,0,6.36-1.83A3.32,3.32,0,0,1,1125.83,547.07Z"/><path class="cls-63" d="M1202.5,396.82s.73-2.72,2.71-3.61a16.8,16.8,0,0,1,3.9-1.25c-4.92,4,8.85,97.2,18.5,122.93,10.66,28.43,23.83,50.79,38.7,54,.33,1,1,5.92,1.75,6.69-1.51,1-26.12-2.14-44.21-49.65C1208.17,484.79,1200.77,400.64,1202.5,396.82Z"/><path class="cls-66" d="M1817.25,449.63a2.47,2.47,0,0,0-2.59-1.16c-.91.06-3.78-.23-3.68,7.73a8,8,0,0,0,.63,3.54c.34.61,1,.64,1.55.64a1.06,1.06,0,0,0,1.09-.82C1814.52,458.51,1813.46,450.75,1817.25,449.63Z"/><path class="cls-66" d="M1723.65,496.34a2.83,2.83,0,0,0-3-1.32c-1,.07-4.32-.26-4.2,8.83a7.84,7.84,0,0,0,.71,3.74c.39.7,1.1.74,1.77.74a1.21,1.21,0,0,0,1.24-.94C1720.52,506.18,1719.33,497.61,1723.65,496.34Z"/><path class="cls-66" d="M1646,433.12a2.93,2.93,0,0,0-2.85-1.78c-1.08-.07-4.41-.89-5.58,8.48a7.41,7.41,0,0,0,.15,3.76c.3.78,1.06.84,1.75.94a1.36,1.36,0,0,0,1.52-.76C1641.46,442.55,1641.36,433.81,1646,433.12Z"/><path class="cls-66" d="M1519.21,481c-.42-1-.33-1.75.49-3.36.5-1,2.87-3.61,10,3a7.38,7.38,0,0,1,2.36,3,1.88,1.88,0,0,1-.68,1.93,1.41,1.41,0,0,1-1.68.51C1528.51,485.35,1523.29,478.45,1519.21,481Z"/><path class="cls-66" d="M1203.93,424.29c-.65-.35-.78-.37-1-1.57-.45-2.51,5.76-3.25,7-2.3a1.6,1.6,0,0,1,.59,1.37c-.07,1-.57,1.15-.57,1.15C1209.55,423.11,1206.7,422.16,1203.93,424.29Z"/><path class="cls-66" d="M1218.61,509.8c-.73-.4-.88-.42-1.12-1.76-.51-2.83,6.49-3.66,7.85-2.59A1.8,1.8,0,0,1,1226,507c-.08,1.14-.65,1.29-.65,1.29C1224.94,508.47,1221.73,507.4,1218.61,509.8Z"/><path class="cls-67" d="M1056.38,753.4c15.3-3.65,31-2.88,46.27.51,15.89,3.53,32.48,3.87,48.64,2.22a122.92,122.92,0,0,0,22.56-4.27c6.2-1.84,13.3-4.39,17.63-9.47a11.41,11.41,0,0,0,1.19-13.72c-3.55-5.54-10.8-8-16.76-9.71a3.14,3.14,0,0,1-2.2-2.89l-1.84-15.74c-.23-1.92-.9-4.3-.73-6.24.23-2.64,1.68-4.73,1.53-7.58-.17-3.33-2.48-5.1-3.34-7.95-1.22-4.07,3.83-10.56,5.52-14a42,42,0,0,0,2.92-6.27c2.08-6.85-2.5-13.59-9.76-13.5a3.07,3.07,0,0,1-3-3l-2.48-21.13a2.89,2.89,0,0,1,1.49-2.59c9.84-4.44,5.79-14.32,4.16-22.46l-3.6-18a3,3,0,0,1,1.38-3.39c3.09-1.37,6.79-2.66,7.37-6.48.39-2.53-.48-5.32-.91-7.83-1-6-2.11-12-3.2-18-2.16-11.84-4.35-23.68-6.23-35.57-3.8-24.06-6.07-48.29-4.92-72.66a3,3,0,0,1,4.51-2.59c14.71,8,31,13.14,47.8,13.14,17.9,0,35-5.94,49.95-15.51a108,108,0,0,0,29.52-27.34,103.17,103.17,0,0,0,9.66-16.32c1.23-2.59,1.94-6.26,3.7-8.48,2.6-3.29,6.71-4,7.1-8.86.5-6.17-.39-12.78-.58-19-.08-2.58-.16-5.15-.15-7.74s-.07-5.37-.31-8a22.79,22.79,0,0,0-.88-5.18c-.51-1.57-1.82-3-2.16-4.63-.54-2.56.67-6,1-8.54.4-3.59.7-7.19.93-10.79a184.68,184.68,0,0,0,.45-23.46,45.1,45.1,0,0,0-2.06-11.16c-.86-2.61-2.7-4.94-2.61-7.69.15-4.72,3.92-10.19,5.76-14.36,3-6.74,6.52-15.1,4.45-22.56-2.29-8.23-11.18-10.16-18.67-9.45-15.77,1.47-28.24,13.37-31.67,28.53a3.07,3.07,0,0,1-2.89,2.2,62.08,62.08,0,0,0-30,9.85c-2.29,1.46-5-1-4.41-3.39a158.88,158.88,0,0,0-.51-77.1c-5.78-22.34-8.49-45.21-13.65-67.71-1.33-5.8-2.82-11.57-4.5-17.28-1.42-4.83-2.5-11-5.85-14.85-5.45-6.28-13-11-19.87-15.52a378.71,378.71,0,0,0-52.7-28.24c-9.57-4.25-19.33-8.11-29.28-11.4-7.22-2.38-14.42-5.2-21.81-7a63.48,63.48,0,0,0-31.48,0,173.38,173.38,0,0,0-28.85,9.9,372.55,372.55,0,0,0-52.3,28.2c-9,5.79-11.93,13.41-14.91,23.28-2.21,7.34-4.21,14.71-5.95,22.17q-1.93,8.26-3.72,16.56-.88,4-1.72,8.07c-.4,1.94-.4,4.56-1.44,6.24-1.8,2.91-6.31,5.28-8.92,7.36-3.85,3.08-7.88,6-11.59,9.26-6.55,5.73-2,15.34,5.42,17.72a3.05,3.05,0,0,1,2.1,3.69,159.49,159.49,0,0,0-7.72,43.37,25.94,25.94,0,0,1-1.92,8.8c-1.23,3.35-2.52,6.48-1.88,10.13a7.75,7.75,0,0,0,1.22,3.08L920,244.59a160.13,160.13,0,0,0,5.73,21.4c.8,2.33,3.15,6.17,3,8.58-.13,2.18-2.29,4.12-3.09,6.14-2.5,6.33-.84,13.81,3,19.26,4,5.73,10.11,7.63,16.82,6.8a3,3,0,0,1,2.59,1.49,160,160,0,0,0,23.89,25.58c2.93,2.51,8.19,4.88,8.9,8.83.78,4.41,1,8.54,2.77,12.8a3,3,0,0,1-2.1,3.69c-22.46,4.95-44.78,15.32-61.33,31.5a81.9,81.9,0,0,0-24.66,52.07c-1.71,21.4,2.6,44.73,12.48,63.85a89.26,89.26,0,0,0,13.34,19.32c2.3,2.52,5,4.64,7.33,7.11,3.08,3.28,1,8.3,6.57,10,4.91,1.48,10.11,2.11,15.09,3.32,3.9.95,5.72,3.42,8.62,6.2a98.85,98.85,0,0,0,12.58,10.3,3.05,3.05,0,0,1,1.38,3.39,166.61,166.61,0,0,0-5.42,20.64c-1.54,7.33.58,13.24,8.57,14.92a3,3,0,0,1,2.2,2.89q-1.72,24-3.69,47.91a3.06,3.06,0,0,1-2.2,2.89,10.43,10.43,0,0,0-8.5,10.68c0,5.14,3.93,7,5.82,11.17a3.13,3.13,0,0,1-.47,3.64c-3.43,3.63-4.54,8.09-2.39,12.72,1,2.06,3.09,3.71,3.4,6,.27,2-.48,4.56-.68,6.56l-2,18.74a3,3,0,0,1-1.49,2.59c-5.69,2.47-12.89,6.12-14.14,12.9-1,5.64,2.37,10.13,6.89,13,12.59,8.14,30.6,8.62,45.07,8.7a167.16,167.16,0,0,0,28.51-2.34C1040.64,758.36,1048.29,755.33,1056.38,753.4Zm111.28-409A160.57,160.57,0,0,0,1184,330.84h.09c12.15,0,23.6-6.47,29.2-16.12q.39.8.83,1.56a27,27,0,0,0-1.23,10.83,45.61,45.61,0,0,0,1.95,9.15l-7.62,24.16a9,9,0,0,0-.32,4,12,12,0,0,1-8.78,3.26c-4.76,0-13.21-1.89-26.68-10.69a9,9,0,0,0-2.23-1.67l-2.21-1.17A26.8,26.8,0,0,0,1167.66,344.37ZM1042.49,703a14.64,14.64,0,0,0,4.39-11.46,13.28,13.28,0,0,0-1.29-4.95v0l1-.86a54.41,54.41,0,0,0,5-4.67l.39-.36a9,9,0,0,0,2.1-2.94c1.69-3.81,1.82-7.38.37-10.62a11.42,11.42,0,0,0-3.31-4.27c1.85-7.57,3.87-15.61,6.1-24.3l27.7.34,8.15,26.5a11.84,11.84,0,0,0-1.72,3.71c-1.78,6.69,2.72,12.26,4.2,14.09a9.14,9.14,0,0,0,.65.73l3.69,3.67,1.84,6a13.12,13.12,0,0,0-.24,7.1,14.81,14.81,0,0,0,4.75,7.58l2.21,7.19a76.11,76.11,0,0,0-18,5.93l-.58.29c-7.18,3.77-12.62,5.37-18.22,5.37-4.45,0-9.52-1-16.88-3.24a71.75,71.75,0,0,0-15.41-4.39Zm-65.38-249.7a9.05,9.05,0,0,0-1-.2c-2.11-4.11-2.78-7.91-2-11.34a16.38,16.38,0,0,1,3.4-6.54Q977.42,444.35,977.12,453.29Z"/><path class="cls-68" d="M984.59,364.64s-87.14,15.15-83.28,90.53,56.05,86.91,56.05,86.91l25.71-67.4s-47.94-35.61,11.46-61.47Z"/><path class="cls-68" d="M1132.91,400.44s55.22,63.88,120.3,25.65c57.7-33.9,50-92.88,50-92.88l-79.78,9s-.32,61.58-60.16,20.21Z"/><path class="cls-69" d="M1142.4,388.56l-9.49,11.88s55.22,63.88,120.3,25.65c57.7-33.9,50-92.88,50-92.88l-24.35,2.74s-5.41,51.12-41.86,72.4C1188.95,436.4,1142.4,388.56,1142.4,388.56Z"/><path class="cls-70" d="M1241.49,340.15l-18,2s-.32,61.58-60.16,20.21l-8,10s27,38,58.88,22.91S1241.49,340.15,1241.49,340.15Z"/><path class="cls-71" d="M1188,435.18s-8.1-28.67,4.11-59.08c0,0,6.55,1.25,10.3.24h0s-1.64,52.32,7,61.95A81.43,81.43,0,0,1,1188,435.18Z"/><path class="cls-71" d="M1159.56,422.44s7.21-40.93,14.67-53.24c0,0-5.35-3-9.55-5.84,0,0-13.71,35.59-12.12,54.45C1152.56,417.81,1158,421.55,1159.56,422.44Z"/><path class="cls-68" d="M1223.43,338.84l-7.66,24.28s36.65,47.13,88.53,4.94l-1.07-34.85S1269.69,366.64,1223.43,338.84Z"/><path class="cls-69" d="M988,381.32l-3.42-16.68s-87.14,15.15-83.28,90.53,56.05,86.91,56.05,86.91l8.55-22.41s-36.66-15.14-39.23-64.49C924.13,406.08,959.7,382.13,988,381.32Z"/><path class="cls-71" d="M973.26,367.5s10.23,36.39,9.75,51.62l11.52-5.91-9.95-48.56S976.13,366.4,973.26,367.5Z"/><path class="cls-70" d="M990.48,393.38l4.06,19.82c-59.4,25.86-11.46,61.47-11.46,61.47l-9.31,24.4s-46.27-27.7-25.9-72.25A58.43,58.43,0,0,1,990.48,393.38Z"/><path class="cls-72" d="M994.63,466.36c3.77-1.06,11.31-.4,17.48,2.12l-2.29,11.07c-14.14,7.77-4.76,21.65-4.76,21.65s35.07,6.78,36.2,15.61c1,5.52-1.31,21.1-26.37,21.36.31,13-12.6,15.51-16.43,15.28,0,3.86-2.58,11.39-12.49,10.26-6.58-2.16-18-9.36-29.24-22.14C956.74,541.57,958.3,476.59,994.63,466.36Z"/><path class="cls-7" d="M1008,726.26c18.4-.53,34.6,1.89,43.6,6,17,5.31,26.82,5.59,42.44-2.6l.2-.11.15-.08h0c8.82-4.49,24.69-7.77,42.88-8.29,28-.81,50.89,5.22,51.13,13.46s-22.27,15.57-50.27,16.37c-13.27.38-25.39-.77-34.49-3h0q-30.37-7-56.64,1.84h0c-9.21,3.42-22.86,5.81-38.16,6.25-28,.81-50.89-5.22-51.13-13.46S980,727.07,1008,726.26Z"/><path class="cls-73" d="M1132.39,333.88l2,30.25c-40.06,45.42-67.76,42.35-124.7,24.62l.2-57.42Z"/><path class="cls-74" d="M1073.65,360.89l2.52,9.58c-10.76.4-9.79,12.89,1,13-7.28-5.29-5.19-11,2-10.69l-2-12.87Z"/><path class="cls-75" d="M1169.47,731.75c-18.79,10.16-32.81,11.27-45.45,3.71l-32.44-105.52-41.32-.51c-11.58,44.69-20.69,83.9-23.76,109.7-20.76,12.67-42,8.71-54.24-1.2,6.19-53.55,10.93-114.56,15.06-178.69l158.83,1.06,8,40.93Z"/><polygon class="cls-76" points="1150.47 564.38 1161.52 661.67 1147.3 739.91 1124.91 570.58 1150.47 564.38"/><path class="cls-76" d="M1001.45,574.65c19.43,4.35,27.43,5.12,42.56,3.45l-1-6.24,45.24,2.31.72-13.63-47.28,1.36-42.56-2.59Z"/><polygon class="cls-76" points="997.58 589.75 984.77 597.24 984.91 591.31 997.58 589.75"/><path class="cls-77" d="M982.23,558.73s-7.42,16.92-8.59,28.63c-4.53,10.26,8.28,10.73,11.27,3.95a32.09,32.09,0,0,0,12.67-1.57l5.87-22.91Z"/><path class="cls-78" d="M982.23,558.73c-1.71,4-3.49,8.94-5.3,14.23,7.07,4.11,15,5.68,23.46,5.84l3.07-12Z"/><path class="cls-79" d="M1021.11,563.76c36,10.38,75.87,1.37,116.63-8.85-8.89-62.08-11.54-115-7.1-188.63-40.47,15.65-62.64,21.23-85.87,8.23C1022.21,454.15,997.2,523.62,1021.11,563.76Z"/><path class="cls-80" d="M1091.72,386.61c-16.79,5-34.55,2.83-47.31-3.69"/><path class="cls-81" d="M1066.31,568.14c-16.86-66.08-26.08-127.57-20.52-188.61-13.87,51.32-14.43,121.08-13.3,189.26Z"/><path class="cls-82" d="M1048,372.5c-19.29,66-19.25,176.72-13.12,200.15-23.74,3-45.16-6.69-61.15-17.06,12.71-47.89,15.25-127.43,10.82-191l8.17-6.11Z"/><path class="cls-83" d="M984.59,364.64c16.25,5.87,33.57,8.61,51.66,9.14l-38.94,23.3L997,419.76l-9.51,16.65Z"/><path class="cls-81" d="M990,360.61c23.46,10.72,43.44,15.88,55.94,11.74l-53.16-13.81Z"/><path class="cls-68" d="M1032.31,556.32l3.94,16.34c-25.34,3.27-47.6-6.58-62.48-17.06L976.93,542C989.56,548.31,998.14,555.38,1032.31,556.32Z"/><path class="cls-76" d="M1087.63,578.22a118.72,118.72,0,0,0,37.7,6.81l24.5,1.47-21.13-10.32Z"/><path class="cls-77" d="M1154.89,559.92l8.86,44.29c4.14,10.57-6.55,9.53-8.83,5.81-6.34,4.68-13.42,2.64-20.79-2.07l-12.77-33.23Z"/><path class="cls-78" d="M1125.33,585l30.41,3,4.83,24.57c3.37.74,5.42-2,3.18-8.42l-6.91-34.55-34.56,7.43Z"/><path class="cls-82" d="M1089.36,371.55c-5,61-7.43,164.34-.77,206.25,22.9.53,62.07-1.66,78.88-10.92-10.35-63.31-28.23-123-2.5-203.6l-11-5.83-2.5-10.67Z"/><path class="cls-68" d="M1087.07,558.72c13.85,2.14,49.76,3.69,78.14-5l2.25,13.18c-16,8.68-51,12.12-78.88,10.92Z"/><path class="cls-84" d="M1089.36,371.55c-8.52,84.45-5.61,160.53-.77,206.25"/><path class="cls-81" d="M997.31,399.33l.2,7.07a66.22,66.22,0,0,0,31.75,3l1.19-11.95Z"/><path class="cls-81" d="M1141.82,405.72l-1.55,8.07c-13.87,1.7-26.84,1.47-37.86-2.93l-1-3.51Z"/><path class="cls-81" d="M1132.17,361l-42.81,10.54c15.51.88,31.57-1.46,47.91-5.45l6.55,6.53c-1.88,20.2-3.34,38.61-4.14,58.2,0,1.12-17.15,7.05-37.37,2.51a70.16,70.16,0,0,0,37.12,10.54,1229.45,1229.45,0,0,0,3.1,130.15l24.94-7.15c-15.55-67.92-22.23-147.64-2.5-203.6l-11-5.83-1.75-7.46Z"/><path class="cls-85" d="M1141.65,399.57l-2,31.26c-17.91,8-37.37,2.51-37.37,2.51l.17-35.55Z"/><path class="cls-86" d="M1030.46,397.42l-3,30.2s-16.26,5-30.09-2.15l-.06-28.38Z"/><polygon class="cls-76" points="1050.26 629.42 1091.59 629.93 1015.29 616.8 1025.46 632.52 994.54 744.75 1036.94 682.29 1050.26 629.42"/><path class="cls-87" d="M1124.23,677.47c-9.16-6.55-16.2-9.72-20.8-9-3.48,1.35-5.32,3.55-.9,9l5.29,5.26,16.2,52.7c14.85,9,29.95,4.86,45.45-3.71l-6.62-56.53,8.92-17.92c2.3-5.66-3.07-9-9.08-4.08-6.31,11.15-7.93,19-11.27,28.7l-1.49,37c-2,1.64-5.34,1.83-9.69.78Z"/><path class="cls-88" d="M1107.82,682.76l8.84,7.11,14.44,48.73c-1.64-.05-3.87-.92-7.07-3.13Z"/><path class="cls-77" d="M1120.64,664.57l19.59,55.12c5.62,1.16,8.33.59,9.69-.78l2.09-61.33C1146.83,661.79,1136.47,664.15,1120.64,664.57Z"/><path class="cls-89" d="M1141.59,662.25l4.4,58c1.15.06,3.71-.52,3.93-1.39l2.09-61.33A28.64,28.64,0,0,1,1141.59,662.25Z"/><path class="cls-88" d="M1113.88,702.46l.82,2.67c27.95.37,42.43-3.31,50.39-10.8l-.68-5.83Z"/><path class="cls-88" d="M1132.73,709.89c7.52,2.93,14.71,2.34,21.49-2.57Z"/><path class="cls-88" d="M1135.54,716.85c7.87,3.67,13.65,2.07,18.41-2.06Z"/><path class="cls-87" d="M1043.93,669.05c2.88.93,2.86,2.81,1.89,5l-8.88,8.25-10.44,56.84c-18.66,11.11-39,10.92-54.24-1.2l5.08-48.85q.28-15.34-7.15-20.81c-1.55-5,2.3-8.48,5-6.06,6.24,4.88,10.53,13,12.79,24.42l-3.47,34.95c5.27,5.17,14.21,4.18,17,1.92l11.54-31.73C1024.69,676,1032.31,669.09,1043.93,669.05Z"/><path class="cls-88" d="M1046.32,672.56,1030.74,680l-13.8,63.63a41.17,41.17,0,0,0,9.56-4.53l10.82-57.23C1040.92,678.42,1045.87,675,1046.32,672.56Z"/><path class="cls-77" d="M1019.65,673.67l-18.13,49.83c-3.25,2.39-13.19,2.78-17-1.92l5.47-55C998.13,670.27,1008.08,672.61,1019.65,673.67Z"/><path class="cls-89" d="M1006.28,671.73l-13.73,53.43c3.46.11,6.71-.08,9-1.65l18.13-49.83Z"/><path class="cls-88" d="M976.93,693.06l-.55,6.08c22.21,7.57,27.54,7.84,56.78,3.72l1.23-6.71C1013.87,699.21,994.46,698.95,976.93,693.06Z"/><path class="cls-90" d="M1035.71,689c-32.64,11.68-46.53,3.19-60.8-4.9-3.79,2.23-4.49,5.31-1,9.57,16.17,7,32.24,14.17,60.91,3.75C1038.77,695.69,1038.81,689.59,1035.71,689Z"/><path class="cls-88" d="M983,707c7.53,7.17,16,7.54,25,4.4Z"/><path class="cls-88" d="M982,716.81c5.82,6.44,13.7,7.56,23.59,3.44Z"/><path class="cls-90" d="M1006.85,715.86l-1.23,4.39c-9.76,2-18.38.6-23.59-3.44l.54-5.39C989.14,715.9,995.76,716.79,1006.85,715.86Z"/><path class="cls-90" d="M1009.11,706.84l-1.11,4.58c-10.86,1.49-18.87-.76-25-4.4l.48-4.86C988.06,704.75,995.3,707.68,1009.11,706.84Z"/><path class="cls-90" d="M1111,694.79c-2.31,3.26,0,6.62,3.53,8.16,24.52.87,38.83-2.23,50.22-11,2.86-3,2.33-8.67-1.06-9C1147.14,694.4,1131.23,693.92,1111,694.79Z"/><path class="cls-90" d="M1154.22,707.32l.2-5.69c-8,3.91-13.82,5-23.28,4.32l1.59,3.94C1139,710.34,1147.23,710.12,1154.22,707.32Z"/><path class="cls-90" d="M1134.23,713.58l1.32,3.26a23.07,23.07,0,0,0,18.41-2.06l.13-3.57C1149.35,713,1139.54,714.22,1134.23,713.58Z"/><path class="cls-68" d="M1101.36,385.55l40-.31,5.14,19.57c-14.5,2.93-29.28,4.77-45.07,2.54Z"/><path class="cls-68" d="M1033.29,385.9l-2.05,14.77c-4.68.91-24.48,1.43-39-2.51l8.24-16.14Z"/><path class="cls-84" d="M1048,372.5c-15.22,39.43-20.59,165.3-13.12,200.15"/><polygon class="cls-68" points="1150.91 355.14 1152.08 360.14 1163.87 367.23 1162.31 372.05 1148.46 362.58 1145.82 354.18 1150.91 355.14"/><path class="cls-71" d="M1174.93,389.75"/><path class="cls-81" d="M997.37,425.47c11.07,10.4,21,10.43,30.09,2.15C1017.22,430.63,1007.17,430.3,997.37,425.47Z"/><path class="cls-91" d="M936.51,276.92,949,299.17s-11.49,6.74-16.89-5.25S936.51,276.92,936.51,276.92Z"/><path class="cls-92" d="M941.38,285.63c-4.29-.51-7.66,1.54-10.39,5.33-2.09-8.24,2.53-12.4,5.52-14Z"/><path class="cls-93" d="M942.58,287.77,941.38,301a15,15,0,0,0,7.57-1.87Z"/><circle class="cls-79" cx="1074.04" cy="214.69" r="150.92" transform="matrix(0.99, -0.13, 0.13, 0.99, -18.61, 138.67)"/><path class="cls-94" d="M1061.2,301.75a166.26,166.26,0,0,0,145-160.06A150.95,150.95,0,1,1,930.76,262.14,165.8,165.8,0,0,0,1061.2,301.75Z"/><path class="cls-95" d="M1199,287.31c-11.49-8.79-32.66,25.06-25.63,33.63C1177.27,326.75,1209.08,295,1199,287.31Z"/><path class="cls-96" d="M959.8,66.45C951,90,941.21,143,941.21,143c54.43-67.24,212.4,68.42,279,33.84-7.23-20.47-8.28-58-21.84-96.41-12.81-16.42-105-67.53-147.13-62-32.71,7-65.77,28.57-83.78,39A17.51,17.51,0,0,0,959.8,66.45Z"/><path class="cls-97" d="M1166.82,57.59c-14.25-8.2-46.88-23.26-50.75-25,1.36,11.47-48.33,22.74-36.81,31.16C1094.84,74.8,1140.34,51.24,1166.82,57.59Z"/><path class="cls-97" d="M1186.59,114.13c-13.81-43-69.52,16.92-56.45,28.1l51,29S1188.94,141.3,1186.59,114.13Z"/><path class="cls-97" d="M954.89,81.95c-3.45,10.24-11.39,49.21-11.39,49.21l25.92-12.79c-8.1-7.34-2.77-29.43-3.93-38.9C964.8,73.78,958.29,72.64,954.89,81.95Z"/><path class="cls-97" d="M1011.87,32.58s-33.26,17.14-44.46,24.83c17.5-1.52,3.84,25.64,15.06,29.54C997,83.77,991.43,53.82,1011.87,32.58Z"/><path class="cls-97" d="M1051.2,18.42c-48.49,23-55,92.8-55,92.8l118.21,24.14c1.06-30.25,24.48-28.57,26.85-48.22-1.62-20.83-68.16-6.69-78.33-23S1108.35,32,1090,23.44C1090,23.44,1067.39,13.36,1051.2,18.42Z"/><path class="cls-98" d="M923.37,205.62c9-19,20.28-31.06,33.56-36-.5-7.75,2.49-11.11,4.47-12.48a9.25,9.25,0,0,1,10-.09,14,14,0,0,1,6.72,10.48c11.59,1.61,24.44,7.4,38.31,17.28-1-4.48-2-9-2.73-13.52l-1,7.08-23.94-10.92-.18-1.88c-3.87-40-.93-69.8,10.82-110.1l.6-2.06c16.11-1.8,32.16-3.25,47.54-1.19-9.14,22.73-12.71,51.5-11,89.66,4.91-14.3,9.82-26.76,14.89-37.79,8.36-18.21,17.21-32.8,27.05-44.59l1.45-1.73,57.43,19.79-3.61,3.7c-20.37,20.89-35.2,50.67-46.68,93.72l-.44,1.63-24.51,9.16-.36-4.32c0-.43-.58-7.29-.35-16.06-4,9.26-6.25,19.66-7.51,28.65,12.15-3.93,22.47-8.11,31.71-11.85,17.66-7.15,31.61-12.8,45.61-11.07,31,3.83,51.07,26.39,61.47,69l1.07,4.39-18.62-1.44a137.38,137.38,0,0,1-29.27,16c4.31,6.5,5.93,15.06,3.75,21.79a13.78,13.78,0,0,1-8.56,9.18l6.56,51-2.22,1c-21.29,9.52-42.4,15.16-62.76,16.78q-6.21.49-12.4.49c-26.59,0-52.92-6.81-78.42-20.31l-1.9-1,.16-2.14c1.09-14.43,2.32-30.73-1.85-51.46a17.25,17.25,0,0,1-12.88-18.66c.85-7.11,6-11.51,12.88-11l.27,0c36.86,6,69.34,7,98.34,3-11.72-5.23-23.64-13.51-36-25l-5.13,9.59-36.63-11.8,2.74-3.68.16-.22c-12.13,8.06-24,15.15-35.47,18.81.72,4.3,1.29,8.65-.76,11.72l-.23.35-.32.28c-4,3.51-15,5.89-20.23,0-2-2.17-2.09-5.55-2.24-9.13,0-.51,0-1-.07-1.48-8.33-1.82-15.7-6.46-22.44-14.11a26.78,26.78,0,0,1-5.91.75"/><path class="cls-99" d="M919.27,224.63c10.63-31.4,24.69-47.86,41.2-52.71-3-19.43,15.31-14.6,14.47-1.41,14.4,1.14,30.22,9.25,47,22.57a214.94,214.94,0,0,1-7.78-48.79l-4.05,29.3-18.21-8.31c-3.93-40.58-.6-70.11,10.71-108.87,6.66-.71,40.84-2.55,40.32-1.1-10.63,29.48-11.56,65.36-8.55,103.84,6-19.09,12.54-37.25,20.08-53.68,7.67-16.71,16.37-31.61,26.59-43.86L1131.4,79c-23.05,23.64-37.35,57.08-47.5,95.17l-18.87,7s-1.3-15.74.84-30.07c-9.8,12.69-14.09,31.48-15.85,47.58,38.76-11.81,59.86-26.91,80.8-24.32,31.77,3.93,49.42,28.54,58.68,66.48l-15.29-1.18C1157,251.85,1141,259,1125.45,260.88c1.18,7.72-15.1,9.88-14.61.16-19.84-2-39.5-12.89-60.83-33.52l-5.87,11-12.9-4.15-16.76-5.4a14.94,14.94,0,0,0,3-9.84c-15.33,10.46-30.4,20.3-44.67,24.14.68,4.44,1.94,9.65.22,12.23-2.82,2.5-11.84,4.51-15.61.3-1.75-1.95-1.15-7.48-1.72-11.2-8.55-1.26-16.69-5.8-24.28-15C923.15,231.69,918.76,231.27,919.27,224.63Z"/><path class="cls-100" d="M933.62,227.79l-1.13-1.37-1.73.44a27.52,27.52,0,0,1-6.3,1,3.11,3.11,0,0,1-2-.45c-.11-.12-.46-.64-.38-2.26,9.81-28.79,23-45.8,39.21-50.56l2.36-.69-.37-2.43c-.89-5.81.45-8.11,1.07-8.83a2.44,2.44,0,0,1,2-.9,5.33,5.33,0,0,1,3.66,1.85,8.76,8.76,0,0,1,2.21,6.72L972,173.1l2.76.22c13.13,1,28.42,8.43,45.42,22l6.77,5.39-2.31-8.34a212.66,212.66,0,0,1-7.67-48.12l-5.59-.3-3.54,25.56-13.3-6.07C991,125.7,993.81,97.06,1004.72,59c6.76-.55,23.52-1.46,32.27-1.46l2.11,0c-8.58,25.79-11,58.27-7.58,101.77l1.13,14.46L1037,160c6.64-21.1,13.16-38.55,20-53.35,7.78-17,16-30.63,25-41.74l44.44,15.31c-19.36,21.22-33.67,50.57-44.81,91.8l-13.94,5.21a143.36,143.36,0,0,1,1-25.69l1.59-10.67-6.6,8.54c-10.64,13.78-14.81,34.25-16.42,49l-.46,4.24,4.08-1.24c14.54-4.43,26.5-9.28,37.06-13.55,15.1-6.11,27-10.94,38.09-10.94a36.66,36.66,0,0,1,4.49.27c14.74,1.82,26.5,8.2,36,19.5,8.32,9.93,14.67,23.39,19.37,41.09l-11.38-.88-1-.08-.83.58c-17.24,12.17-32.77,18.94-47.48,20.69l-2.89.34.44,2.87a2,2,0,0,1-.49,1.69,6.25,6.25,0,0,1-4.53,1.72,4.53,4.53,0,0,1-3.28-1.11,3.11,3.11,0,0,1-.72-2.42l.14-2.68-2.67-.26c-19-1.87-38.31-12.58-59.16-32.74l-2.67-2.59-1.76,3.28-4.76,8.9-10.67-3.44-13.4-4.31a17.88,17.88,0,0,0,1.61-8.34l-.18-5.09-4.21,2.87c-15.25,10.41-30.08,20.05-43.81,23.75l-2.43.65.38,2.49c.1.68.22,1.38.34,2.09.43,2.56,1.07,6.33.47,7.86a13.44,13.44,0,0,1-6.75,1.78c-1.21,0-3.41-.2-4.59-1.5-.5-.66-.62-3.58-.69-5.32a41.56,41.56,0,0,0-.34-4.43l-.31-2.05-2.05-.3C947.74,240.56,940.38,236,933.62,227.79Z"/><path class="cls-101" d="M1054.41,105.48c7.67-16.71,16.37-31.61,26.59-43.86L1131.4,79c-23.05,23.64-37.35,57.08-47.5,95.17l-18.87,7s-1.3-15.74.84-30.07c-9.8,12.69-14.09,31.48-15.85,47.58,38.76-11.81,59.86-26.91,80.8-24.32,31.77,3.93,49.42,28.54,58.68,66.48l-15.29-1.18C1157,251.85,1141,259,1125.45,260.88c1.18,7.72-15.1,9.88-14.61.16-19.84-2-39.5-12.89-60.83-33.52l-5.87,11-12.9-4.15,3.09-75.17Z"/><polygon class="cls-68" points="1011.31 142.22 1011.31 180.94 934.56 180.97 934.62 161.59 1011.31 142.22"/><polygon class="cls-68" points="1081.84 134.01 1076.3 181.97 1169.03 198.89 1169.03 166.45 1081.84 134.01"/><path class="cls-81" d="M933.77,159c84-29.47,140.27,10.7,207.48,27.3l-92.89-66.72s-97.27,7.81-98.94,10.27C942.68,139.78,937.18,149.54,933.77,159Z"/><path class="cls-75" d="M920.17,149.8l.28,2.14a5,5,0,0,0,8.17,3.24c11.32-9.41,36.35-25.44,73.61-23.29,59.35,2.84,163.14,98.12,217.94,45C1177,189.42,1118.17,117.2,1035,110c-41-3.92-72.06,9-91.47,21.16Z"/><path class="cls-96" d="M1002.22,131.89c-37.26-2.15-62.29,13.88-73.61,23.29a5,5,0,0,1-8.17-3.24l-.28-2.14c25.68-18.89,50.69-26.55,74.93-27.35,40.43-1.34,72.2,19.71,106.61,37.86,39.25,20.7,80.59,37.79,118.46,16.56C1165.36,230,1061.57,134.73,1002.22,131.89Z"/><path class="cls-91" d="M988,258.06c-13-1-13.19,21,3,23.61,4.65,21.64,3.57,38.11,2.34,54.46,30.15,16,59.79,21.77,89,19.45,20.75-1.65,41.3-7.39,61.69-16.51l-6.62-51.54c19.29-2.48,8.53-43.63-16.83-33.66C1080.92,265.85,1036.13,265.89,988,258.06Z"/><circle class="cls-91" cx="1081.64" cy="333.71" r="31.09" transform="translate(-33.72 140.61) rotate(-7.32)"/><path class="cls-68" d="M987.46,334.77c-2.95,15.13,4.64,23.28,5.42,23.76,9.82,5.62,33.92,12,56.33,14.14C1042.25,364.81,1007.16,343.73,987.46,334.77Z"/><path class="cls-91" d="M1198.9,289.45c21.6,11.87-.27,39.4-24.09,30.73C1171.93,306.21,1188.1,286.12,1198.9,289.45Z"/><path class="cls-81" d="M1077,256.86c0,16.59-10.93,11.18-21.45,6.57-14.76,15.25-33.86,8.13-54.42-6.57-6.35-3.39-8.66-6.43-8.15-9.22Z"/><path class="cls-91" d="M1074.59,209.39c-17.13-3.68-22.61,14.18,2.67,17.91,40.91,24,62.11,11.35,80.5-6.53l3.9-.94C1142.57,194.31,1119,178.64,1074.59,209.39Z"/><path class="cls-91" d="M1013.41,206.4c3.37,3.74,3.06,7-1.54,9.61-20.11,20.79-42.51,12.37-65.31-1-4.07,1.85-5.33-.24-5.75-3.49C951.34,186.86,966,169.1,1013.41,206.4Z"/><path class="cls-102" d="M1074.59,209.39c-17.13-3.68-22.61,14.18,2.67,17.91,40.91,24,62.11,11.35,80.5-6.53l3.9-.94C1142.57,194.31,1119,178.64,1074.59,209.39Z"/><path class="cls-102" d="M1013.41,206.4c3.37,3.74,3.06,7-1.54,9.61-20.11,20.79-42.51,12.37-65.31-1-4.07,1.85-5.33-.24-5.75-3.49C951.34,186.86,966,169.1,1013.41,206.4Z"/><g class="cls-103"><path class="cls-104" d="M1004.18,208.67c1.71,3.65-2.37,3.59-4.28,6.09-6.82,8.92-23,7.31-28.17,1.24l28.62-7.61Z"/></g><path class="cls-105" d="M1002.38,209.7l-2.48,1.64c-10.32,13-32.36,9.88-37.21-7.94C973.36,196.73,982.07,196.46,1002.38,209.7Z"/><path class="cls-104" d="M1003.68,207.75c-24-16.81-33.19-11.17-42.34-5.37a.68.68,0,0,0,.51,1.24,6.58,6.58,0,0,0,.84-.23c13.64-4.84,20.5-5.81,39.69,6.3a1.17,1.17,0,0,0,1.79-1h0A1.18,1.18,0,0,0,1003.68,207.75Z"/><circle class="cls-104" cx="987.39" cy="207.08" r="11.13" transform="translate(-6.57 34.26) rotate(-1.98)"/><circle class="cls-68" cx="987.39" cy="207.08" r="6.42" transform="translate(-6.57 34.26) rotate(-1.98)"/><circle class="cls-91" cx="981.1" cy="199.74" r="4.71" transform="translate(-6.32 34.03) rotate(-1.98)"/><circle class="cls-106" cx="989.75" cy="204.55" r="2.45" transform="translate(-6.48 34.34) rotate(-1.98)"/><path class="cls-105" d="M1133.84,208.81c-1.2,16.11-30.3,32.93-46.4,9.7l-5.66-3C1097.75,201.49,1112.36,199.53,1133.84,208.81Z"/><path class="cls-104" d="M1081.78,215.51h0a1.78,1.78,0,0,0,2.58,0c13.12-13.29,30.71-13.79,51.4-5.4.54.22,1.11-.57.62-.89-25.6-13.29-41.6-7.59-54.46,3.7A1.79,1.79,0,0,0,1081.78,215.51Z"/><circle class="cls-104" cx="1115.37" cy="214.05" r="13.4" transform="translate(-15.75 111.9) rotate(-5.7)"/><circle class="cls-68" cx="1115.37" cy="214.05" r="7.73" transform="translate(-15.75 111.9) rotate(-5.7)"/><circle class="cls-91" cx="1107.23" cy="205.71" r="5.67" transform="translate(-14.96 111.05) rotate(-5.7)"/><circle class="cls-106" cx="1117.99" cy="211.17" r="2.66" transform="translate(-15.45 112.14) rotate(-5.7)"/><path class="cls-91" d="M1055.79,246.31c-27-28.75-43.49-28-53.09-8-10.67-6.74-19.36,12.38.62,12.72,8.74,18,43.39,16.77,51.51,6.27C1092,274.44,1075.51,232.78,1055.79,246.31Z"/><path class="cls-68" d="M1087,373.92c21-16.64,46.18-24.26,70.93-33.76,1.42,8.3,1.71,14-4.94,17.64C1125.55,369.38,1116.11,372.77,1087,373.92Z"/><path class="cls-92" d="M1055.79,246.31c-27.12-29.27-44.35-27.55-53.09-8,11.78-18.9,31.55-6.1,52.33,10.76,9.23-3.58,18.63-1.38,21.76,4.64C1073.79,243.72,1063.3,241,1055.79,246.31Z"/><path class="cls-76" d="M1198.32,80.46c-18.7-19.43-4.56,46-17.14,90.79L1193.77,185l26.4-8.09C1213.18,138.79,1206.12,102.13,1198.32,80.46Z"/><path class="cls-81" d="M1011.87,216c-15.53,17.66-37.74,16.06-65.31-1C976.18,230,997,228.53,1011.87,216Z"/><path class="cls-81" d="M1157.75,220.77c-18.4,22.87-44.62,26.54-80.5,6.53Q1122.64,249.72,1157.75,220.77Z"/><path class="cls-92" d="M1198.9,289.45c15.55,9.19,6.18,21.39,6.18,21.39-1.45-8.66-11.14-11.42-23.6-12.2C1181.48,298.65,1190.06,285.64,1198.9,289.45Z"/><path class="cls-92" d="M1114.4,255.62c16.39-9.48,31.06.08,32.77,16.32C1142.35,259,1130.25,249.32,1114.4,255.62Z"/><path class="cls-70" d="M986.79,342.18c16.34,7.36,35.9,17.54,51.29,29-10.95-1.2-29.14-4.66-45.2-12.65C992.88,358.53,987.05,353.72,986.79,342.18Z"/><path class="cls-70" d="M1153,357.79l2.59-11.95c-16.56,5.09-35,13.41-51,26.83A161.24,161.24,0,0,0,1153,357.79Z"/><path class="cls-107" d="M1115.59,273.66c18.21,73.27-75.66,58.91-75.66,58.91,1.42-22.83-11.63-46.2-11.63-46.2S1081.07,291.23,1115.59,273.66Z"/><path class="cls-90" d="M1115.59,273.66a19.09,19.09,0,0,1-3.65,11.91,17.71,17.71,0,0,1-4.84,4.43c-1.65-3.78-5.61-4.49-9.78-3.54-4.72,1.08-7.87,4.29-6.8,9a8.81,8.81,0,0,0,.37,1.19c-14.53,4.28-40.82,8.38-74.08,2.49l-6.53-14.71S1081.07,291.23,1115.59,273.66Z"/><path class="cls-74" d="M1006,283.4c10.95,8.35,98.91,1.73,109.62-9.74-16.07,8.16-78.18,14.71-103.21,8.25,0,0,4.58-4.9,3.84-8.68C1012.46,278.65,1006,283.4,1006,283.4Z"/><path class="cls-79" d="M1117.14,298.93s-2.2,36.34-61.38,34.83C1055.76,333.76,1061.74,297.84,1117.14,298.93Z"/><path class="cls-74" d="M1124,279.41c-3.59-5.06-9.21-8.82-14.8-11.31-1.75-.78-3.28,1.8-1.51,2.59,5.08,2.27,10.44,5.62,13.72,10.24,1.11,1.56,3.71.06,2.59-1.51Z"/><path class="cls-74" d="M1106.62,349.58c-3.83,5-10.57,10.42-17.18,12.55a27.55,27.55,0,0,1-18.67-1c-4.53-1.87-10.4-5.62-9.84-11.24.09-.88-.76-1.4-1.5-1.5-9.48-1.23-24.29-6.1-27.28-17.44l-1.85,1.85a147.85,147.85,0,0,0,35.9,2c17.74-1.13,38.74-6,48.24-22.66,6.53-11.48,5.59-25.3,2.61-37.7-.45-1.88-3.34-1.08-2.89.8,2.67,11.12,3.76,23.57-1.61,34.1-4.1,8-11.45,13.55-19.66,16.93-15.48,6.37-33.33,6.59-49.78,5.17-4-.35-8-.77-12-1.51a1.52,1.52,0,0,0-1.85,1.85c3.33,12.65,18.44,18.12,30.17,19.64l-1.5-1.5c-1.27,12.71,18.27,17.35,27.5,16.22,9.4-1.15,18.15-7.56,23.78-15,1.17-1.54-1.44-3-2.59-1.51Z"/><path class="cls-68" d="M956.74,541.57l-20.39-4.49s-8.58-70.34,38.54-75.07l8.19,10.14S959.41,490.61,956.74,541.57Z"/><path class="cls-69" d="M983,455.17"/><path class="cls-71" d="M901.57,459.2s20.55-19.12,63.78-9.56a24.16,24.16,0,0,1,1.89-15.07s-38.95-15.48-65.44,5.86C901.8,440.43,900.22,452.36,901.57,459.2Z"/><path class="cls-68" d="M1299,264c-.31-11.34,9.08-21,10.63-32.19,1-7.57-3.16-11.61-10.53-11.84-17.92-.55-31,14.56-31.22,31.71a1.13,1.13,0,0,0,2.25,0c.22-16,12.3-30,29-29.46,3.9.12,7.68,1.28,8.39,5.6.63,3.87-1,8.19-2.35,11.76-3,8-8.62,15.62-8.38,24.42a1.13,1.13,0,0,0,2.25,0Z"/><path class="cls-71" d="M1260.36,317.84c21.78-3,41,1.89,42.77,13.8,1.52,10.49-13.27,22-35,25s-43.15-3.9-44.58-14.41S1238.59,320.8,1260.36,317.84Z"/><path class="cls-91" d="M1297.73,264.77a24,24,0,0,1,2.48-11.47c5.66-12.15,14.41-29.15,2.64-31.8s-34,6.26-33.89,30.6q-1.72-.12-3.49-.19a54,54,0,0,0-37.36,13.51,19.8,19.8,0,0,0-6.66,14.11,14.07,14.07,0,0,0,2.83,9.24c-3.33,1.95-8.17,18.58-.15,25.75h0c-1.52,4.26-2.73,8.3-2.34,11.44.33,2.68,1.24,10.4,5.88,14.61,13.41,12.15,64.86,20.31,72.29-18.07,1.58-8.14,2.83-23.48,2.72-38.41C1302.62,275.72,1300.86,269.45,1297.73,264.77Z"/><path class="cls-81" d="M1299.83,222s-.66,12.75-6.24,22.84-5.7,10.85-5.7,10.85a98.38,98.38,0,0,0-.67,35.1c3.19,18.72,1.92,47.41-8.33,57,0,0,23.65-2.77,23.47-50.73,0,0,.5-6.11.46-14.37,0-5.2-1.53-15.77-5-18.73,0,0,2.71-12.73,4.76-15.78S1316.76,222.68,1299.83,222Z"/><path class="cls-68" d="M1223.41,314.32c-3.11,8-3.36,17,1.7,24.38,3.32,4.83,9.57,7.39,14.92,9.22,13.91,4.75,31.06,5.62,44.21-1.83,19.15-10.85,19-35.55,19.34-54.86.16-10.26.33-21.73-6.84-30-5.65-6.48-14.29-8.88-22.54-9.84-14-1.62-27.85.91-39.88,8.39-9.36,5.82-19,18.54-10.67,29.31.58.75,1.88,0,1.3-.76-9.27-12,4.28-24.48,14.34-29.63a59.72,59.72,0,0,1,33.72-5.95c8.21.84,17.05,3,22.67,9.53,7.05,8.16,6.58,19.73,6.39,29.83-.34,17.72,0,40.44-16.63,51.43-11.36,7.53-26.53,7.62-39.36,4.51-5.8-1.4-12-3.47-16.74-7.16-8-6.15-7.77-17.77-4.47-26.24.35-.9-1.1-1.29-1.45-.4Z"/><path class="cls-68" d="M1257.08,283.06c-10.26-1.9-23.12-1.62-32.15,4.39-5,3.32-6.12,11.65-5.86,17.16.28,5.92,2.68,10.79,8.79,11.57a79.1,79.1,0,0,0,28.06-1.54c.94-.23.54-1.68-.4-1.45a82,82,0,0,1-21.85,1.89c-2.51-.07-5.76.11-8.14-.81-3.65-1.41-4.79-6.15-5-9.65-.25-5.17.77-13.29,5.67-16.19,8.93-5.28,20.5-5.76,30.44-3.92.94.17,1.35-1.27.4-1.45Z"/><path class="cls-71" d="M913.26,408.34s17.43-4.18,56.79,21.81a35.81,35.81,0,0,1,5.47-5.67S953.29,396.22,924,395.24A83.74,83.74,0,0,0,913.26,408.34Z"/><path class="cls-71" d="M1209.08,373.92s2.57,39.2,25.8,60.47c0,0,8.69-2.07,19.81-9.17,0,0-19.13-11.31-38.92-57.36Z"/></g></g></svg>