<svg id="Layer_1" data-name="Layer 1" xmlns="http://www.w3.org/2000/svg" xmlns:xlink="http://www.w3.org/1999/xlink" viewBox="0 0 872.31 872.31"><defs><style>.cls-1,.cls-23,.cls-25,.cls-33,.cls-34,.cls-35,.cls-36,.cls-37,.cls-38,.cls-39,.cls-40,.cls-41,.cls-42,.cls-43,.cls-44,.cls-45,.cls-46,.cls-47,.cls-48,.cls-49,.cls-5,.cls-50,.cls-51,.cls-52,.cls-53,.cls-54,.cls-55,.cls-56,.cls-57,.cls-59{fill:none;}.cls-2{fill:#e2e2e2;}.cls-3{clip-path:url(#clip-path);}.cls-4{fill:#161b23;}.cls-5{stroke:#1b1f26;}.cls-11,.cls-17,.cls-23,.cls-24,.cls-25,.cls-26,.cls-27,.cls-33,.cls-34,.cls-35,.cls-36,.cls-37,.cls-38,.cls-39,.cls-40,.cls-41,.cls-42,.cls-43,.cls-44,.cls-45,.cls-46,.cls-47,.cls-48,.cls-49,.cls-5,.cls-50,.cls-51,.cls-52,.cls-53,.cls-54,.cls-55,.cls-56,.cls-57,.cls-59,.cls-60{stroke-miterlimit:10;}.cls-17,.cls-23,.cls-25,.cls-26,.cls-27,.cls-5,.cls-60{stroke-width:3px;}.cls-6{fill:#1e1211;}.cls-22,.cls-7{fill:#fff;}.cls-7{opacity:0.05;}.cls-8{fill:#d93a34;}.cls-18,.cls-9{opacity:0.1;}.cls-10{fill:#a5756b;}.cls-11{fill:#ccc;}.cls-11,.cls-23,.cls-24{stroke:#ccc;}.cls-12{fill:#e0e0e0;}.cls-13{fill:#d88b45;}.cls-14{fill:#931414;}.cls-15,.cls-17,.cls-26{fill:#b58174;}.cls-16{fill:#ad1717;}.cls-17,.cls-25{stroke:#a56f63;}.cls-18{fill:#1f0700;}.cls-19,.cls-24,.cls-27{fill:#f6c785;}.cls-20{fill:#20242d;}.cls-21{fill:#9a0303;opacity:0.5;}.cls-24,.cls-33,.cls-34,.cls-35,.cls-36,.cls-37,.cls-38,.cls-39,.cls-40,.cls-41,.cls-42,.cls-43,.cls-44,.cls-45,.cls-46,.cls-47,.cls-48,.cls-49,.cls-50,.cls-51,.cls-52,.cls-53,.cls-54,.cls-55,.cls-56,.cls-57{stroke-width:2px;}.cls-26{stroke:#99645c;}.cls-27{stroke:#ba2b32;}.cls-28{fill:#fcf3eb;}.cls-29{fill:#875b32;}.cls-30{fill:#a67c52;}.cls-31{fill:#736357;}.cls-32{fill:#f7d3a9;}.cls-33,.cls-34,.cls-35,.cls-36,.cls-37,.cls-38,.cls-39,.cls-40,.cls-41,.cls-42,.cls-43,.cls-44,.cls-45,.cls-46,.cls-47,.cls-48,.cls-49,.cls-50,.cls-51,.cls-52,.cls-53,.cls-54,.cls-55,.cls-56,.cls-57{stroke:#420d12;}.cls-34{stroke-dasharray:5.57 5.57;}.cls-35{stroke-dasharray:5.95 5.95;}.cls-36{stroke-dasharray:5.44 5.44;}.cls-37{stroke-dasharray:7.61 7.61;}.cls-38{stroke-dasharray:6.78 6.78;}.cls-39{stroke-dasharray:7.06 7.06;}.cls-40{stroke-dasharray:8.05 8.05;}.cls-41{stroke-dasharray:5.46 5.46;}.cls-42{stroke-dasharray:7.92 7.92;}.cls-43{stroke-dasharray:6.83 6.83;}.cls-44{stroke-dasharray:7.08 7.08;}.cls-45{stroke-dasharray:5.43 5.43;}.cls-46{stroke-dasharray:6.67 6.67;}.cls-47{stroke-dasharray:7.13 7.13;}.cls-48{stroke-dasharray:6.89 6.89;}.cls-49{stroke-dasharray:6.86 6.86;}.cls-50{stroke-dasharray:7.03 7.03;}.cls-51{stroke-dasharray:8.75 8.75;}.cls-52{stroke-dasharray:5.96 5.96;}.cls-53{stroke-dasharray:8.31 8.31;}.cls-54{stroke-dasharray:6.27 6.27;}.cls-55{stroke-dasharray:6.64 6.64;}.cls-56{stroke-dasharray:6.62 6.62;}.cls-57{stroke-dasharray:7.5 7.5;}.cls-58{fill:#420d12;}.cls-59{stroke:#d89d56;stroke-dasharray:7;}.cls-60{fill:#282323;stroke:#211d1d;}</style><clipPath id="clip-path"><path class="cls-1" d="M819,251.38l-134-161L548.56,96.66,527,124.12a377.9,377.9,0,0,0-90.88-11c-208.24,0-377.06,168.82-377.06,377.06S227.91,867.22,436.16,867.22,813.22,698.4,813.22,490.16a375.45,375.45,0,0,0-41.43-172Z"/></clipPath></defs><title>reylero_rec</title><circle class="cls-2" cx="436.16" cy="490.16" r="377.06"/><g class="cls-3"><path class="cls-4" d="M650,1092.69c187.33-68.67,161-300,161-300,84.67,48.67,81.33,155.67,81.33,155.67,86-147.33,35.67-223,35.67-223,48.5,29,61.33,60,61.33,60,18-166-117.33-209.67-117.33-209.67C926,572,963,581,963,581,849.7,485.69,766.51,496,700.7,487.36c-83.67-11-69.53-63.85-69.53-63.85l-468.81-8.82S151.9,678.77,290,892.69c0,0,9.57-33.81,15.57-50.3,0,0,21.43,169.64,176.16,246.21,0,0-9.14-76.54,3.92-104.22Z"/><path class="cls-5" d="M650,1092.69c187.33-68.67,161-300,161-300,84.67,48.67,81.33,155.67,81.33,155.67,86-147.33,35.67-223,35.67-223,48.5,29,61.33,60,61.33,60,18-166-117.33-209.67-117.33-209.67C926,572,963,581,963,581,849.7,485.69,766.51,496,700.7,487.36c-83.67-11-69.53-63.85-69.53-63.85l-468.81-8.82S151.9,678.77,290,892.69c0,0,9.57-33.81,15.57-50.3,0,0,21.43,169.64,176.16,246.21,0,0-9.14-76.54,3.92-104.22Z"/><path class="cls-6" d="M412.37,719s50,26,41.65,148.59c-18.4,270.3,45,432,45,432C371.53,1286.08,413.37,1423,413.37,1423s-72.54-57.58-148-70c-79-13-104.88,146.59-104.88,146.59-49.49-158,14.55-257.75,50.63-331.84A793,793,0,0,0,274,986.42c33.57-157.09,9.84-240.91,9.84-240.91a184.88,184.88,0,0,1-36.5,29.5c18,52,38.67,121.67,38.67,121.67-69,2-164.67,115.33-164.67,115.33-34-137,34.5-246,34.5-246l-2.29-5.12A9.9,9.9,0,0,1,163.89,747l7.47,1C267.87,647,358,602.49,358,602.49S470.37,614,487,600,412.37,719,412.37,719Z"/><path class="cls-7" d="M276.69,654.68A843.24,843.24,0,0,0,171.37,748l-7.47-1a9.9,9.9,0,0,0-10.31,13.86l2.29,5.12s-68.5,109-34.5,246c0,0,56.89-67.4,114.57-99.16,0,0-27.91-62.33-19-152.65,0,0,42.22-55,60.72-74.18Z"/><path class="cls-8" d="M353.73,572.89s-57.2,24.63-89.95,76.88C239.9,687.89,197,677,197,677s22.07,17.83,48,17.83c0,0-9.67,16.5-8.67,35.17,0,0,20-10.12,33.83-14.67,0,0,39.83,158.67-37.17,365-58.93,157.9-146.67,258-72.88,418.25,0,0-28.32-166.38,65.68-315.38S335.2,808.11,292.76,695.5c0,0,28.93-50.92,96.38-83.31Z"/><path class="cls-9" d="M276.87,713.86S324,871.69,247,1078c-58.93,157.9-157.37,271.33-83.58,431.58,0,0-33.42-166.58,62.38-326.38,90.58-151.1,111.39-374.34,69-487,0,0,28.88-50.94,96.33-83.33l-31.83-32.67S308,597.36,282.16,640.15c-36.74,60.76-85.12,35.33-91.12,34,0,0,23.17,21,51.55,22.17,0,0-4.55,24.33-1.47,33.09C241.11,729.41,269.65,716.36,276.87,713.86Z"/><path class="cls-10" d="M481.92,570.16c-39.49,12.1-90.62,28.38-100.06,31.75,0,0,6.33,5,3.17,27-1.69,11.73-18.37,25.69-20.75,39.63,0,0,63.48-18.25,126.48-5.75"/><path class="cls-11" d="M356.11,658.51s-10.54,36.64,10.08,69.62c0,0,31.61-46.72,67.33-71C433.52,657.14,376.72,641.56,356.11,658.51Z"/><path class="cls-12" d="M383.87,633.15c-4.57,5.15-17.22,41.3-12.83,58.54l73-59.36,23-.81-46.56,70.8,44.32,156.26L311.57,844.39s1-30.6-1-63.37c-1.7-27.31-7.18-56.13-1.5-70,22.59-55.13,58.5-76,58.5-76L385,628.24S384.29,632.68,383.87,633.15Z"/><path class="cls-9" d="M357.54,764.52c19.33-8.67,107.26,94.06,107.26,94.06L311.57,844.39S323.36,779.84,357.54,764.52Z"/><path class="cls-13" d="M288.56,982.84s20.27-94.13,23-138.79l55.65-15.8s55.65,8.93,79.7,15.8l18.55,138.79S377.19,1002.76,288.56,982.84Z"/><path class="cls-9" d="M367.23,828.24c8.11,1.72,74,14.17,79.7,15.8l18.55,138.79-111.44,7,5.65-69.23A74.23,74.23,0,0,0,311.51,845h0Z"/><path class="cls-14" d="M582.9,100.94S697.7,182.69,594.7,300C594.7,300,477,208.52,582.9,100.94Z"/><path class="cls-6" d="M550.37,609.36c53,21.5,179.56,132.25,179.56,132.25l3.61-.69a12.58,12.58,0,0,1,14.83,13.93l-.84,6.68c53.5,89.5,25,231,25,231L605.7,877.36s20.83-55.83,17.83-92.58c0,0-26.5-35.75-52.5-48.75,0,0-21.75,106-20.75,118.75,0,0,26.75,127.25,74.75,183.25s120.28,87.68,174.67,85.33C939,1117.36,983,1253.09,983,1253.09,943,1216,883.7,1214.18,883.7,1214.18,1027.69,1287,985,1421.36,985,1421.36c-96-86-175.52-67.36-175.52-67.36,9.15,84,93.18,83,93.18,83s-274.42,111.25-432.51-204.93C402.69,1097.1,497,837,412,719c0,0,62.87-149.92,124-150C549.49,569,550.37,609.36,550.37,609.36Z"/><path class="cls-7" d="M571,736c26,13,52.5,48.75,52.5,48.75,3,36.75-17.83,92.58-17.83,92.58l79.6,54.95S703,822.69,681,768l-21.5,13-5-18L601.7,726Z"/><path class="cls-15" d="M170.9,420.27s-43.54-2.1-38.75,38.75c4.25,36.25,63.25,20.75,63.25,20.75S192.15,426,170.9,420.27Z"/><path class="cls-16" d="M532,250.69S654,110,762.7,200C762.7,200,712.7,368.69,532,250.69Z"/><circle class="cls-17" cx="392.55" cy="374.04" r="231.83"/><path class="cls-9" d="M180.33,430.68c-1,31.27.3,52.92,10,58.59,0,0,10.9,7,15-1.11,0,0-14.49-20.39-9.24-51.51Z"/><path class="cls-18" d="M529.53,561.1c15.87-10.39,20.22-15.62,33.07-29.48l-4.81-88.1s-24,7.07-32.54,7.07c0,0,3,36.93-19.46,83.93,0,0,13.75-.25,28.75-10.75C534.54,523.77,533.28,549.85,529.53,561.1Z"/><path class="cls-15" d="M594.35,427.85s42.64-12.42,44.46,28.67c1.62,36.46-59.1,34-59.1,34S574.29,436.93,594.35,427.85Z"/><path class="cls-9" d="M594.35,427.85s23.19-9.66,37.36,5.17c0,0-25.79,2-34.92,50.75l-17.08,6.74S574.29,436.93,594.35,427.85Z"/><path class="cls-19" d="M179.65,472.52s48.67,90.29-16.67,96.29c-33.18,3-50.77-49.09-20.39-90.08l.09-.12a40.61,40.61,0,0,0,9.45,4s-19.67,60.92,11,60.92c18.5,0,16.13-40.12,4.88-65.37C168,478.15,176.15,469,179.65,472.52Z"/><path class="cls-9" d="M179.65,472.52S228.51,565.4,163,568.81c-16.08.84-23.17-8.63-23.17-8.63,4.69,2.09,11.14,3.08,19,2.6,20.25-1.25,41.25-38.5,15-89.64C173.83,473.13,177.6,470.43,179.65,472.52Z"/><path class="cls-20" d="M158.46,420.71s-12,73.34,16.73,149.45c0,0,.51-69.1,4.44-79,0,0,12.42,16.18,25.63,5.47,0,0-18.8-20.17-13.9-61Z"/><path class="cls-19" d="M589.54,478.52s-48.67,90.29,16.67,96.29c33.21,3,49.35-51,18.85-92a41.15,41.15,0,0,1-4.17,2.15,32.74,32.74,0,0,1-4.44,1.79s20.28,62.79-10.41,62.79c-18.5,0-16.12-40.12-4.87-65.37C601.16,484.15,597.41,476.33,589.54,478.52Z"/><path class="cls-9" d="M589.54,478.52s-48.67,90.29,16.67,96.29c14.28,1.31,25.41-7.94,31-22.18,0,0-13.82,30.76-41.19,13.14-31.46-20.25-.19-86.86-.19-86.86A9,9,0,0,0,589.54,478.52Z"/><path class="cls-8" d="M531.77,558.33c22.29-5.86,26.6,55.69,26.6,55.69a275.27,275.27,0,0,0-19.78,40.8c-12,31.86-5.05,60.7-5.05,60.7C495,710,466,690,466,690c7.91,10.67,11.33,39.33,11.33,39.33-19.5-12.25-48.54-8.66-48.54-8.66,99.71,71.82-4.38,280.48,96.21,533.32,84.86,213.32,368.67,185.33,368.67,185.33-47.33,17.33-218,70-367.72-91S436.37,934,436.37,854c0-110.67-34.67-134-34.67-134S446.77,580.67,531.77,558.33Z"/><path class="cls-9" d="M433,721.9c96.21,76.75-6.89,278.44,93.46,531.38,86.46,217.92,378.9,183.43,378.9,183.43C858,1454,674.61,1537.14,547,1344c-107.53-162.78-84.41-409.89-84.41-489.91C462.63,749.52,433,721.9,433,721.9Z"/><path class="cls-9" d="M470.93,727.63a52.73,52.73,0,0,1,8.3,4.67s-2.61-24.26-8.86-37.8c0,0,28.54,18.1,65.15,22.82,0,0-7.61-29.94,4.39-61.8a281.16,281.16,0,0,1,20-41.17s-4.33-40.58-12.08-50.08c0,0-28.75,38.75-43.42,88.42,0,0-.33,27.83,23,60.33,0,0-24.92-3.73-60.06-23.17C467.31,689.85,473.69,711.25,470.93,727.63Z"/><path class="cls-20" d="M531.52,449s-.49,50-18.24,83.63c0,0,19-2.33,25.5-17.07,0,0,2.25,35.7-12.75,91.25,0,0,54.54-57.34,66-154.56a26.5,26.5,0,0,1,13.61-20.07c5.49-3,10.76-6,10.78-6.46Z"/><path class="cls-8" d="M365.76,470.56s118.8-1.47,266-46.22c.93-.28,4.1-26.28,4.1-46.41,0-133.4-108.14-241.54-241.54-241.54S152.78,244.54,152.78,377.94a242.89,242.89,0,0,0,4.09,44.5s48.06,27.7,134.9,42.46c0,0,6.14-17.14,32.08-16C357.89,450.4,365.76,470.56,365.76,470.56Z"/><path class="cls-21" d="M365.7,470.36s118.8-1.47,266-46.22c.93-.28,4.1-26.28,4.1-46.41a241.17,241.17,0,0,0-96.6-193.24S556.8,349.25,478.8,386.25c-171.16,81.19-326.09-8.53-326.09-8.53a242.89,242.89,0,0,0,4.09,44.5s48.06,27.7,134.9,42.46c0,0,6.14-17.14,32.08-16C357.83,450.19,365.7,470.36,365.7,470.36Z"/><path class="cls-8" d="M279,861.79s-.73,35.92,17.07,59.26c0,0-103.88,40.25-156.61,148.44,0,0-27.46-44.81-33.09-102.65C106.35,966.85,175.23,864.22,279,861.79Z"/><path class="cls-9" d="M280.49,860.15s-2.46,33.38,18,61.56c0,0-106.31,39.6-159,147.79,0,0,5.63-59.86,117.6-139.14,1.67-1.19-13.31-16.76-19.07-49.34l-1.18-6.74s-13.51-2.95-13.48-3S252,859.77,280.49,860.15Z"/><path class="cls-22" d="M327.16,533.49c34.7.33,104-2.1,137-25,0,0,9.39,75.46-124.59,62.35Z"/><path class="cls-17" d="M337.2,573.38l1.72,7.21s-21.7,23.13-.69,34c28.51,14.77,40.55-10.45,40.55-10.45"/><line class="cls-23" x1="327.73" y1="533.91" x2="339.58" y2="572.21"/><path class="cls-23" d="M333.56,554.39s86.56,2.89,126.27-22.27"/><path class="cls-24" d="M404.42,529.45s3.4,12.63,1.78,20.15a110.19,110.19,0,0,0,19.33-3.93s.78-14.53-2.49-20.72C423,525,412,528,404.42,529.45Z"/><path class="cls-25" d="M306.43,532.88s112.68,6.87,157.69-24.39c0,0,7.83,78.76-129.34,63.86"/><path class="cls-8" d="M605,863s-2.5,18.5-18.67,43c0,0,18,103.33,171.33,179.33,0,0,24.33-46.58,26-104.67C783.7,980.69,701,894,605,863Z"/><path class="cls-26" d="M358.13,474.26s-2.79-14.75-30.7-18.08c-16-1.9-27,3.76-32,14.74-3.14-1.08-11.13-1.48-12.5,5.29-2.19,10.77,7.45,11.32,16,10.68,0,0,7.09,9,25.39,10.6,25.48,2.26,28.49-6.88,28.49-6.88,10.36,1.07,17.87-1.63,18.35-6.36C372.06,475.7,358.13,474.26,358.13,474.26Z"/><path class="cls-27" d="M254.22,360.29c8.37-17.93,13.51-45.54,14.75-52.71a1.81,1.81,0,0,0-1.6-2.1c-10.61-1.11-12.37,14.63-12.66,19.89a1.8,1.8,0,0,1-1.79,1.7h-.84a1.81,1.81,0,0,1-1.83-1.81c0-13.09,10.29-48,12.43-55.21a1.8,1.8,0,0,1,1.75-1.28h.71a1.8,1.8,0,0,1,1.72,2.33,69.85,69.85,0,0,0-2.41,10.43c-.59,4.5,5,4.6,7.63,4.4a1.79,1.79,0,0,0,1.62-1.4c7.45-33,17.79-70.28,19.33-76.84s-6.31-4.65-15.12,4.15-8.13,15.67-9.24,18l0,.07a1.81,1.81,0,0,1-3.39-.71c-.4-3.93.26-13.63,14.36-25.42,18.93-15.83,43.08-16.68,46.74,0,2.87,13.14,15.89,13.92,21.33,13.65a1.8,1.8,0,0,1,1.85,2.2l-.48,2.16a1.8,1.8,0,0,1-1.52,1.39c-3.65.48-14.38,3.19-17.85,18.68-5.14,22.92-3.75,85.83-2.74,115.6a1.81,1.81,0,0,0,3.57.34c7-31.54,24.21-92.54,30.57-111.26,6-17.74-2.05-22-5.94-23.07a1.82,1.82,0,0,1-1.3-2.27l.6-2A1.82,1.82,0,0,1,356.1,218c21.83-.81,35.54-15.43,40.78-22.25a1.8,1.8,0,0,1,3.16.61c4.94,17.53,30.22,21,36.85,21.66a1.81,1.81,0,0,1,1.63,1.76l0,1.84a1.82,1.82,0,0,1-1.62,1.83c-30.21,3.94-26.14,116.34-24.71,138.82a1.8,1.8,0,0,0,3,1.25c10.36-9,50.7-36.87,119.3,2a1.82,1.82,0,0,1,.91,1.78c-.9,8-8.32,54.15-61,70C431,450.33,392.55,424.65,385.52,419a2.22,2.22,0,0,1-1.11-1.72c.14-4.59.93-7.25,3.07-17.62a1.81,1.81,0,0,0-2.7-1.9,58.36,58.36,0,0,1-6,3.39c-6.73-6.73-12.52-9.39-14.85-10.26a1.8,1.8,0,0,1-1.16-1.58l-.26-4.23a1.79,1.79,0,0,1,1-1.72c2.25-1.11,7.45-5.71,10.1-24.8,3.06-22,6.95-68.4,8.79-91.35a1.81,1.81,0,0,0-3.51-.73c-46.57,132.23-26.33,163.74-14.39,170.14a1.82,1.82,0,0,1,.85,2.16l-1.34,4.26a1.8,1.8,0,0,1-2.6,1c-33.11-18.89-59.75-7-67-3a1.8,1.8,0,0,1-2.6-1.09l-.73-2.54a1.8,1.8,0,0,1,.55-1.85c12.4-10.86,11.11-132.75,10.36-172.44a1.81,1.81,0,0,0-3.56-.42c-9.07,35.57-21.91,102.39-25.12,112.52a1.8,1.8,0,0,1-1.62,1.25l-32,1.85a1.81,1.81,0,0,1-.88-3.43C244.51,372.14,250.84,367.53,254.22,360.29Z"/><path class="cls-17" d="M506.95,374s-65.38-30-104.35,36.37c0,0,46.52,36.63,89.15-1.37C509.34,393.27,506.95,374,506.95,374Z"/><path class="cls-28" d="M493.41,381.31s6.65,24.63-29.79,34.86c-29.18,8.2-45.19-11.36-45.19-11.36S449,366.76,493.41,381.31Z"/><path class="cls-29" d="M415.2,405.72h0c.76.93,2.42,1.27,3,.23,12.52-21.66,51.91-35.25,75.58-23.87.62.3,1.35-.59.79-1-29.06-17.51-67.89,1.57-79,21.65C415,403.76,414.46,404.8,415.2,405.72Z"/><circle class="cls-30" cx="454.69" cy="391.25" r="17.27"/><circle class="cls-31" cx="454.69" cy="391.25" r="9.96"/><circle class="cls-32" cx="450.89" cy="387.46" r="3.79"/><circle class="cls-32" cx="464.05" cy="379.52" r="7.31"/><path class="cls-33" d="M285.11,438.64a7.79,7.79,0,0,1,.06-3.47c-1,.65-2,1.26-3,1.83"/><path class="cls-34" d="M277.27,439.63a83.07,83.07,0,0,1-7.66,3.33"/><polyline class="cls-33" points="266.99 443.86 263.65 444.93 261.54 442.14"/><line class="cls-35" x1="257.95" y1="437.4" x2="245.39" y2="420.81"/><polyline class="cls-33" points="243.59 418.44 241.48 415.65 238.66 417.72"/><line class="cls-36" x1="234.26" y1="420.93" x2="218.89" y2="432.19"/><polyline class="cls-33" points="216.7 433.8 213.88 435.87 210.99 433.89"/><path class="cls-37" d="M205,429.24C200,425,192.86,417.9,188.51,409.19l-.24-.47"/><polyline class="cls-33" points="186.58 405.31 185.01 402.17 188.45 401.48"/><path class="cls-38" d="M195.07,400A95.1,95.1,0,0,0,217,391.12"/><path class="cls-33" d="M219.92,389.38q1.47-.92,2.91-1.94-1-1.49-2-2.9"/><path class="cls-39" d="M216.53,379a91,91,0,0,0-18.34-16.48"/><polyline class="cls-33" points="195.19 360.63 192.22 358.79 194.39 356.05"/><path class="cls-40" d="M199.57,349.89a79.41,79.41,0,0,1,22.87-16.19"/><polyline class="cls-33" points="226.13 332.12 229.38 330.81 231.24 333.77"/><line class="cls-41" x1="234.15" y1="338.4" x2="244.32" y2="354.57"/><path class="cls-33" d="M245.78,356.88l1.86,3a19.38,19.38,0,0,0,1.14-2.09l.47-1"/><path class="cls-42" d="M252.21,349.39c1.33-3.65,2.55-7.48,3.65-11.31"/><path class="cls-33" d="M256.92,334.27q.46-1.71.89-3.38a11.56,11.56,0,0,1-3.09,1.62"/><path class="cls-43" d="M248.16,332a7.82,7.82,0,0,1-3.9-6.77c0-13.59,9.72-47,12.69-56.92a7.75,7.75,0,0,1,7.48-5.56h.78a7.74,7.74,0,0,1,1.21.11"/><path class="cls-33" d="M269.56,264.15a7.73,7.73,0,0,1,2.36,2.56q.45-1.7.91-3.38"/><path class="cls-44" d="M274.72,256.5c3.85-13.58,7.8-25.87,10.59-34.56l.86-2.67"/><path class="cls-33" d="M287.24,215.9c.4-1.26.75-2.39,1-3.34a13.8,13.8,0,0,0-3.19,1.42"/><path class="cls-45" d="M280.87,217.37a39.55,39.55,0,0,0-9.27,15.92l-.13.4"/><path class="cls-33" d="M270.46,236.21l-1.5,3.16-3.5,0"/><path class="cls-46" d="M259.77,236.4a12.64,12.64,0,0,1-2.71-6c-.67-6.63,3.82-18.78,18.68-31.21,10.32-8.63,22.45-13.58,33.27-13.58,12.19,0,20.85,6.34,23.17,16.95,1.29,5.89,5.87,8.9,13.62,9"/><path class="cls-33" d="M349.14,211.58a7.74,7.74,0,0,1,3.19,1.36,7.85,7.85,0,0,1,3.33-1"/><path class="cls-47" d="M362.75,211.15c15.52-3.11,25.5-14.06,29.37-19.1a7.73,7.73,0,0,1,6.18-3,7.83,7.83,0,0,1,7.52,5.68c3.95,14,27,16.89,31.64,17.32a7.8,7.8,0,0,1,7.07,7.61l0,1.84a7.82,7.82,0,0,1-6.84,7.91c-3.4.44-14.82,5.86-19,57a565.84,565.84,0,0,0-1.16,60.56"/><path class="cls-33" d="M417.66,350.47q.07,1.81.14,3.5c.91-.62,1.89-1.25,2.94-1.89"/><path class="cls-48" d="M426.77,348.72a90.28,90.28,0,0,1,40.85-9.36c21.9,0,45.41,7,69.85,20.86a7.8,7.8,0,0,1,3.92,7.67c-1.08,9.58-9.27,58.24-65.23,75.1a93,93,0,0,1-26.84,3.93h0c-38.06,0-66.36-22.25-67.54-23.19a7.93,7.93,0,0,1-3.36-6.59c0-1.12.1-2.14.21-3.16"/><path class="cls-33" d="M379.12,410.55c.18-1,.41-2.16.67-3.44a6.33,6.33,0,0,1-1,.07h-2.46"/><path class="cls-49" d="M371.39,402.4c-4.83-4.56-6.75-5.62-7.41-5.87a7.81,7.81,0,0,1-5-6.83l-.26-4.23a7.77,7.77,0,0,1,4.09-7.34c.51-.49,4.25-4.61,6.58-21.43,1.73-12.47,3.17-32.51,4.44-51.92"/><path class="cls-33" d="M374,301.35l.23-3.49-1.08,3.33"/><path class="cls-50" d="M371,307.9c-11.6,37.58-17,67.86-16.13,90.36.25,6.34,1.87,27.48,12.35,33.09a7.82,7.82,0,0,1,3.74,9.25l-1.34,4.26a7.8,7.8,0,0,1-11.3,4.45c-11.14-6.35-22.55-9.57-33.93-9.57a57.46,57.46,0,0,0-27.19,6.66A7.8,7.8,0,0,1,286.07,442"/><path class="cls-33" d="M270,391.64q-1.41,1-2.78,2.13,1,1.43,2.13,2.78"/><path class="cls-51" d="M275.28,403a94,94,0,0,0,10,8.49"/><path class="cls-33" d="M288.86,414c1.14.76,2.14,1.4,2.94,1.89q.26-1.65.52-3.46"/><path class="cls-52" d="M293.09,406.55c.72-6,1.39-12.95,2-20.74"/><path class="cls-33" d="M295.29,382.82q.12-1.72.24-3.49c-1,.32-2.14.69-3.32,1.1"/><path class="cls-53" d="M284.48,383.48a84.55,84.55,0,0,0-11,5.83"/><path class="cls-33" d="M287,338.21l-.73,3.42c.75.69,1.61,1.5,2.53,2.41"/><path class="cls-33" d="M294.67,350.26c.75.86,1.51,1.75,2.26,2.67q.07-1.73.14-3.49"/><path class="cls-54" d="M297.28,343.17c.46-14.46.73-30.25.73-47"/><path class="cls-33" d="M298,293q0-1.74,0-3.5l-.8,3.4"/><path class="cls-55" d="M295.69,299.35c-2.72,11.71-5.49,24-8,35.61"/><path class="cls-33" d="M354.36,229.58a5.63,5.63,0,0,0-.78-.27,7.85,7.85,0,0,1-2.42-1.11,7.73,7.73,0,0,1-2.86,1l-.45.07"/><path class="cls-56" d="M341.87,231.92c-2.54,2-5,5.44-6.36,11.28-3.31,14.75-3.79,47.53-3.47,75.94"/><path class="cls-33" d="M332.08,322.46q0,1.76.05,3.5l.88-3.38"/><path class="cls-57" d="M334.93,315.32c7.59-28.44,16.33-58.57,20.45-70.68,2.32-6.84,2-10.52,1.4-12.37"/><path class="cls-58" d="M351,212.27S364,161.14,394.46,136.4l4,0s-21.77,12.28-45.17,76.09Z"/><path class="cls-58" d="M361.64,162.09c.26-.27,10.31-3.21,26.06,4.7.36.18.64,3.33.32,3.38-.47.07-13.73-7.58-27-5.46a.57.57,0,0,1-.61-.39A21.65,21.65,0,0,1,361.64,162.09Z"/><path class="cls-58" d="M406.61,145c-.18-.32-12.08-7.28-28.9-4-.4.08-2.06,2.77-1.77,2.89s9.42-4.51,28.94,3.23a.58.58,0,0,0,.69-.22S406.79,145.28,406.61,145Z"/><path class="cls-59" d="M449.31,434.91c-29.62,0-53.12-15.54-58.76-19.61a87,87,0,0,1,1.6-8.65c.34-1.62.74-3.51,1.21-5.76a7.8,7.8,0,0,0-11.66-8.26l-2,1.21a50.45,50.45,0,0,0-10.53-7.17c5-4.52,8.47-13.67,10.36-27.27,3-21.82,6.83-66.82,8.82-91.69a7.7,7.7,0,0,0-2-5.91,7.9,7.9,0,0,0-5.79-2.52,7.71,7.71,0,0,0-7.34,5.22c-20.46,58.09-30.38,103.32-29.47,134.42.32,11.15,2.22,24.65,8.48,34.14a76.19,76.19,0,0,0-27.74-5.34,71.53,71.53,0,0,0-24.06,4.18c2.9-8.89,6-28,7.29-71.47,1.13-36.65.64-76.71.25-97.33a7.81,7.81,0,0,0-15.37-1.79c-5,19.58-11.17,48.8-16.13,72.28-3.43,16.21-6.46,30.55-8.13,37.15l-14.68.85a32.81,32.81,0,0,0,6.06-8.77c8.61-18.44,13.83-46.17,15.23-54.22a7.81,7.81,0,0,0-6.88-9.1,16.18,16.18,0,0,0-1.67-.09,14.13,14.13,0,0,0-5.75,1.17c.81-3.34,1.69-6.8,2.61-10.27a15.07,15.07,0,0,0,7.44,1.66c.62,0,1.26,0,1.9-.07a7.76,7.76,0,0,0,7-6.06c5.3-23.41,12-49,16.07-64.25,1.62-6.15,2.79-10.59,3.25-12.55,1-4.14-.24-6.79-1.43-8.29q-.24-.3-.51-.58a32.87,32.87,0,0,1,12.09-2.6c6.51,0,10.36,2.53,11.45,7.51a22.12,22.12,0,0,0,14.88,16.71c-4.67,3.32-9.37,9-11.56,18.78-5.17,23.06-4,83.28-2.88,117.12a7.81,7.81,0,0,0,15.42,1.44c7.12-31.88,24.16-92.28,30.4-110.64,3.2-9.43,3.29-17.08.27-22.73a16,16,0,0,0-1.94-2.85c15-3,25.74-11.66,32.07-18.33,6.36,10.53,19,15.4,28.73,17.64-10.09,8.87-16.38,29.72-19.13,63.13-3,36.06-.76,73.13-.5,77.24a7.8,7.8,0,0,0,12.91,5.4c5.75-5,22-16.64,48.46-16.64,19.08,0,39.75,6,61.47,17.92-2,12.34-11.7,48.75-56.38,62.22A81,81,0,0,1,449.31,434.91Z"/><path class="cls-60" d="M515.91,324s-33.33,47.67-112.67,74c0,0-10.41-3.61-12.54-7.14C390.7,390.88,452.57,374.69,515.91,324Z"/><path class="cls-27" d="M259.21,392.92C275.77,376.59,299,369.38,299,369.38c-6-15-19.35-25.59-19.35-25.59l-31.7,27.81-21-33.35s-15.78,6.36-25.86,19c0,0,18.42,11.33,29.62,31.72-16.12,13.38-36.85,17.55-36.85,17.55,6.37,12.77,19.87,22,19.87,22l28.94-21.2,23.17,30.6s15.59-5,25.33-15.41c0,0-18.67-9.92-30.3-27.35Z"/><path class="cls-59" d="M243.92,399l-30.08,22a67.2,67.2,0,0,1-10.6-10.85c8-2.57,20.54-7.65,31.32-16.59l3.81-3.16L236,386.07c-7.92-14.42-19.1-24.52-25.87-29.77A67.43,67.43,0,0,1,224.73,346l21.88,34.78,33-28.91A67.94,67.94,0,0,1,290.71,366c-8.49,3.44-23.64,10.71-35.71,22.61l-3.75,3.7,4.77,6.29c7.76,11.57,18.26,20,25.18,24.7a66.45,66.45,0,0,1-13.26,7.37Z"/><path class="cls-60" d="M182.7,322S216,369.69,295.37,396c0,0,10.41-3.61,12.54-7.14C307.91,388.88,246,372.69,182.7,322Z"/></g></svg>