<?xml version="1.0" encoding="utf-8"?>
<!-- Generator: Adobe Illustrator 18.1.1, SVG Export Plug-In . SVG Version: 6.00 Build 0)  -->
<!DOCTYPE svg PUBLIC "-//W3C//DTD SVG 1.1//EN" "http://www.w3.org/Graphics/SVG/1.1/DTD/svg11.dtd">
<svg version="1.1" id="Layer_1" xmlns="http://www.w3.org/2000/svg" xmlns:xlink="http://www.w3.org/1999/xlink" x="0px" y="0px"
	 width="146.139px" height="157.634px" viewBox="0 0 146.139 157.634" enable-background="new 0 0 146.139 157.634"
	 xml:space="preserve">
<g>
	<g opacity="0.1">
		<circle fill="#883E26" cx="73.069" cy="84.565" r="73.069"/>
	</g>
	<g>
		<circle fill="#FFFFFF" cx="73.069" cy="73.069" r="73.069"/>
	</g>
	<circle fill="#FF6666" cx="73.069" cy="73.07" r="65.404"/>
	<g>
		<path fill="#FFFFFF" d="M34.959,58.017v8.014h-2.851V46.203h6.493c1.963,0,2.945,0.929,2.945,2.787v6.208
			c0,1.604-0.708,2.523-2.122,2.756l3.136,8.076h-3.072l-2.977-8.014H34.959z M34.959,48.515v7.222h2.787
			c0.38,0,0.634-0.058,0.76-0.174c0.127-0.116,0.19-0.364,0.19-0.744v-5.385c0-0.38-0.063-0.628-0.19-0.744
			c-0.126-0.116-0.38-0.175-0.76-0.175H34.959z"/>
		<path fill="#FFFFFF" d="M47.534,63.718h5.733v2.312h-8.615V46.203h8.394v2.312h-5.511v6.113h4.561v2.312h-4.561V63.718z"/>
		<path fill="#FFFFFF" d="M64.637,51.999h-2.882V49.37c0-0.38-0.063-0.628-0.19-0.744c-0.127-0.116-0.38-0.174-0.76-0.174h-1.615
			c-0.38,0-0.634,0.058-0.76,0.174c-0.127,0.116-0.19,0.364-0.19,0.744v13.524c0,0.38,0.063,0.629,0.19,0.744
			c0.126,0.116,0.38,0.175,0.76,0.175h1.615c0.38,0,0.633-0.059,0.76-0.175c0.126-0.115,0.19-0.364,0.19-0.744v-4.846H60.17v-2.218
			h4.466v7.412c0,1.88-0.982,2.818-2.946,2.818h-3.389c-1.963,0-2.945-0.938-2.945-2.818V48.99c0-1.858,0.982-2.787,2.945-2.787
			h3.389c1.964,0,2.946,0.929,2.946,2.787V51.999z"/>
		<path fill="#FFFFFF" d="M67.867,46.203h2.851V66.03h-2.851V46.203z"/>
		<path fill="#FFFFFF" d="M79.966,62.8v-4.846c0-0.381-0.059-0.629-0.174-0.745c-0.116-0.115-0.364-0.174-0.744-0.174h-2.344
			c-1.922,0-2.882-0.939-2.882-2.819V48.99c0-1.858,0.982-2.787,2.946-2.787h3.104c1.964,0,2.946,0.929,2.946,2.787v2.914h-2.882
			v-2.471c0-0.38-0.063-0.628-0.19-0.744s-0.38-0.175-0.76-0.175h-1.33c-0.38,0-0.634,0.059-0.76,0.175s-0.19,0.364-0.19,0.744
			v4.402c0,0.38,0.063,0.629,0.19,0.744c0.126,0.116,0.38,0.175,0.76,0.175h2.312c1.942,0,2.914,0.929,2.914,2.787v5.701
			c0,1.858-0.993,2.787-2.978,2.787H76.83c-1.963,0-2.945-0.929-2.945-2.787v-2.914h2.882V62.8c0,0.38,0.063,0.628,0.19,0.744
			c0.126,0.116,0.38,0.174,0.76,0.174h1.33c0.38,0,0.628-0.058,0.744-0.174C79.907,63.428,79.966,63.18,79.966,62.8z"/>
		<path fill="#FFFFFF" d="M93.711,46.203v2.312h-3.326V66.03h-2.851V48.515h-3.326v-2.312H93.711z"/>
		<path fill="#FFFFFF" d="M98.399,63.718h5.733v2.312h-8.615V46.203h8.394v2.312h-5.511v6.113h4.561v2.312h-4.561V63.718z"/>
		<path fill="#FFFFFF" d="M109.231,58.017v8.014h-2.851V46.203h6.493c1.963,0,2.945,0.929,2.945,2.787v6.208
			c0,1.604-0.708,2.523-2.122,2.756l3.136,8.076h-3.072l-2.977-8.014H109.231z M109.231,48.515v7.222h2.787
			c0.38,0,0.634-0.058,0.76-0.174c0.127-0.116,0.19-0.364,0.19-0.744v-5.385c0-0.38-0.063-0.628-0.19-0.744
			c-0.126-0.116-0.38-0.175-0.76-0.175H109.231z"/>
	</g>
	<g>
		<path fill="#FFFFFF" d="M44.234,69.833h6.171v37.085h-6.347l-7.935-24.566v24.566h-6.229V69.833h6.523l7.817,24.214V69.833z"/>
		<path fill="#FFFFFF" d="M62.277,69.833h7.17c4.27,0,6.406,1.939,6.406,5.818V101.1c0,3.879-2.136,5.818-6.406,5.818h-7.17
			c-4.271,0-6.406-1.939-6.406-5.818V75.651C55.871,71.772,58.006,69.833,62.277,69.833z M69.095,100.159V76.592
			c0-0.627-0.117-1.048-0.353-1.264c-0.235-0.215-0.667-0.323-1.293-0.323h-3.115c-0.667,0-1.117,0.108-1.352,0.323
			c-0.235,0.216-0.353,0.637-0.353,1.264v23.567c0,0.627,0.118,1.049,0.353,1.264c0.235,0.216,0.685,0.323,1.352,0.323h3.115
			c0.626,0,1.058-0.107,1.293-0.323C68.978,101.208,69.095,100.786,69.095,100.159z"/>
		<path fill="#FFFFFF" d="M110.881,69.833h6.7l-6.524,37.085h-8.581l-4.173-26.153l-4.114,26.153h-8.581l-6.523-37.085h6.994
			l3.82,30.091l4.878-30.091h7.111l4.819,30.091L110.881,69.833z"/>
	</g>
</g>
</svg>
