<?xml version="1.0" encoding="UTF-8" standalone="no"?>
<svg width="280px" height="212px" viewBox="0 0 280 212" version="1.1" xmlns="http://www.w3.org/2000/svg" xmlns:xlink="http://www.w3.org/1999/xlink">
    <!-- Generator: Sketch 40.2 (33826) - http://www.bohemiancoding.com/sketch -->
    <title>Group</title>
    <desc>Created with Sketch.</desc>
    <defs></defs>
    <g id="Page-1" stroke="none" stroke-width="1" fill="none" fill-rule="evenodd">
        <g id="desktop_1440_gettingtomanzanillo" transform="translate(-95.000000, -106.000000)">
            <g id="Group-2" transform="translate(-3.000000, 0.000000)">
                <g id="Group" transform="translate(98.000000, 106.000000)">
                    <g transform="translate(101.766667, 84.200000)" id="Shape" fill="#FF6666">
                        <path></path>
                        <path d="M69.9823625,0.293466667 C71.4185875,1.39515 72.9809833,2.38678333 74.6459667,3.28848333 L74.6801625,1.704 C74.6530417,1.68506667 74.6271,1.66376667 74.5999792,1.64483333 L70.6132167,0.407066667 C70.4221917,0.352633333 70.2087625,0.31595 69.9823625,0.293466667 L69.9823625,0.293466667 Z"></path>
                        <path d="M77.35805,3.41155 L77.3108833,4.61026667 C78.0183833,4.93095 78.7412125,5.23861667 79.48055,5.53208333 C79.6633208,5.47646667 79.841375,5.42321667 80.0099958,5.37351667 L77.379275,3.42456667 C77.3733792,3.41983333 77.365125,3.41628333 77.35805,3.41155 L77.35805,3.41155 Z"></path>
                        <path></path>
                        <path></path>
                        <path></path>
                        <path></path>
                        <path d="M176.048404,47.0434167 L158.188746,41.8485833 C156.743087,41.4285 156.712429,40.3410167 158.214687,39.3612167 C159.663883,38.4157333 159.634404,37.2986667 158.149833,36.86675 L146.907658,33.5972 C146.943033,33.4611167 146.843983,33.33805 146.597537,33.2694167 C147.6128,32.7215333 149.2542,32.5038 150.262387,32.7830667 L162.859425,36.2750833 C163.434858,36.4348333 164.372296,36.3105833 165.040883,35.9496667 C165.622212,35.6360833 165.62575,35.2526833 165.050317,35.0929333 L144.937271,29.51825 C144.385421,29.3656 144.390137,28.9987667 144.945525,28.6982 C145.502092,28.3976333 146.400617,28.2793 146.951287,28.43195 L154.813971,30.61165 C155.966017,30.93115 157.840892,30.6814667 159.002371,30.0554833 L171.338812,33.4753167 C171.915425,33.6350667 172.852862,33.5108167 173.433012,33.1972333 C174.014342,32.88365 174.017879,32.50025 173.441267,32.3405 L91.1908542,6.7947 L89.392625,7.45855 C87.3455917,7.17455 85.289125,6.69885 83.2774667,6.03145 L85.0438583,7.3982 C88.4198125,8.35315 92.0410333,9.0951 95.8627125,9.65955 L87.7335375,12.6604833 L92.7402792,15.7134833 L89.307725,16.37615 L84.6582708,13.7953 L77.9558875,16.26965 C74.5445583,15.7975 71.1167208,15.0023 67.76435,13.89115 L78.2212,21.9827833 L75.4489792,22.51765 L64.6996958,14.5538167 L57.6199792,16.71695 L57.5327208,18.95345 C57.5103167,19.5309167 57.2662292,20.0433 56.8888958,20.4184167 L56.8888958,20.4184167 C56.8358333,20.4716667 56.7792333,20.52255 56.720275,20.5698833 C56.7179167,20.57225 56.7155583,20.5734333 56.7132,20.5758 C56.6566,20.6207667 56.5988208,20.6633667 56.5386833,20.7024167 C56.5327875,20.7059667 56.5280708,20.7095167 56.522175,20.7130667 C56.465575,20.74975 56.4066167,20.7828833 56.3464792,20.81365 C56.3370458,20.8183833 56.3276125,20.8243 56.317,20.8290333 C56.2604,20.8574333 56.2026208,20.8822833 56.1436625,20.9047667 C56.1295125,20.9106833 56.1153625,20.9166 56.1012125,20.9213333 C56.0457917,20.94145 55.9891917,20.9592 55.9325917,20.9745833 C55.913725,20.9793167 55.8960375,20.9852333 55.8771708,20.9899667 C55.8229292,21.0029833 55.7675083,21.0136333 55.7109083,21.0231 C55.6896833,21.02665 55.6684583,21.0313833 55.6460542,21.0349333 C55.5894542,21.0420333 55.531675,21.0467667 55.475075,21.0491333 C55.45385,21.0503167 55.432625,21.0538667 55.4114,21.0538667 C55.3323958,21.0562333 55.2522125,21.0538667 55.1720292,21.04795 C55.064725,21.0396667 54.9621375,21.0207333 54.8607292,20.9970667 C54.8418625,20.9923333 54.8218167,20.9887833 54.80295,20.98405 C54.7062583,20.9592 54.6107458,20.92725 54.51995,20.8893833 C54.5046208,20.8834667 54.4892917,20.8751833 54.4739625,20.8692667 C54.3808083,20.82785 54.2911917,20.7828833 54.2062917,20.7296333 C54.2051125,20.72845 54.2039333,20.72845 54.2027542,20.7272667 C54.1154958,20.6728333 54.0329542,20.6101167 53.95395,20.54385 C53.9433375,20.5343833 53.932725,20.5261 53.9221125,20.5166333 C53.8454667,20.4491833 53.7723583,20.377 53.7051458,20.3000833 C53.7004292,20.2941667 53.6957125,20.2894333 53.692175,20.2835167 C53.5542125,20.1202167 53.4410125,19.9379833 53.3549333,19.7403667 C53.3513958,19.7332667 53.2794667,19.7261667 53.2771083,19.7190667 C53.2346583,19.6184833 53.3903083,19.5155333 53.1025917,19.4090333 L53.1025917,19.4090333 C53.1025917,19.2208833 53.0990542,19.0232667 53.1037708,18.8209167 L53.154475,18.0718667 L51.6816958,18.52745 L50.2230667,16.5169667 C50.2230667,16.5169667 51.4694458,16.12765 53.2381958,15.5774 L53.3089458,12.44275 L53.3266333,11.6676667 L53.4362958,6.67636667 C53.2381958,6.53436667 53.0459917,6.38526667 52.85025,6.2409 L42.6917292,3.28611667 C41.2000833,2.85183333 38.8110917,3.27073333 37.356,4.21976667 L36.5128958,3.97481667 C35.7346458,3.7488 34.4918042,3.96653333 33.7336,4.46116667 C32.9753958,4.9558 32.990725,5.53918333 33.7677958,5.7652 L41.2496083,7.94135 C41.933525,8.14015 41.947675,8.65371667 41.2814458,9.08918333 C40.6152167,9.52465 39.5197708,9.71516667 38.8358542,9.51636667 C37.6555083,9.1732 35.764125,9.50335 34.6132583,10.2547667 L34.0637667,10.6133167 L31.0828333,9.74593333 C30.3057625,9.51991667 29.0629208,9.73765 28.3035375,10.2322833 C27.5453333,10.7269167 27.5618417,11.3103 28.3389125,11.5363167 L30.0829,12.0439667 C30.8281333,12.2605167 30.8434625,12.8214167 30.1147375,13.2959333 C29.3871917,13.77045 28.1926958,13.9799 27.4474625,13.7621667 L26.2105167,13.4024333 C25.8379,13.2935667 25.2400625,13.3988833 24.8757,13.63555 L23.8875583,14.2804667 C23.524375,14.5171333 22.9277167,14.62245 22.5551,14.5135833 C22.1813042,14.4047167 21.5846458,14.5100333 21.2202833,14.7467 L19.3548417,15.96435 L14.0096792,14.40945 C13.2326083,14.1834333 11.9885875,14.4011667 11.2303833,14.8958 C10.4721792,15.3904333 10.4886875,15.9738167 11.2645792,16.1998333 L23.19185,19.6693667 C23.906425,19.8776333 23.920575,20.4148667 23.2236875,20.8692667 C22.5268,21.3236667 21.3830083,21.52365 20.6684333,21.3165667 C19.5187458,20.9816833 17.6768875,21.3047333 16.5555,22.0360333 L15.9517667,22.4300833 L8.41335417,20.2373667 C7.66694167,20.0208167 6.473625,20.2290833 5.74725833,20.7036 C5.01853333,21.1781167 5.03268333,21.7390167 5.77909583,21.9555667 L12.0793833,23.78855 C12.8246167,24.0051 12.8399458,24.566 12.1124,25.0405167 C11.3848542,25.5150333 10.1915375,25.7244833 9.44630417,25.50675 L4.3829625,24.0346833 C3.63772917,23.8181333 2.44323333,24.0264 1.606025,24.5731 C0.878479167,25.0476167 0.893808333,25.6085167 1.63904167,25.8250667 L120.460129,60.3831333 C122.014271,60.8351667 124.502312,60.3997 126.017542,59.4104333 L134.570037,61.8978 C135.315271,62.11435 136.509767,61.9060833 137.345796,61.3593833 C138.073342,60.8848667 138.058012,60.3239667 137.312779,60.1074167 L121.335071,55.4604667 C120.651154,55.2616667 120.639362,54.7469167 121.305592,54.3126333 C121.971821,53.8771667 123.066087,53.6854667 123.750004,53.88545 L133.988708,56.8639 C135.480354,57.2981833 137.869346,56.8792833 139.324437,55.93025 L145.174283,57.6318833 C145.920696,57.8484333 147.115192,57.6401667 147.951221,57.0934667 C148.678767,56.61895 148.663437,56.05805 147.917025,55.8415 L140.121554,53.5742333 C138.710092,53.1636167 138.681792,52.1021667 140.149854,51.14485 L141.737012,50.1094333 C142.281787,49.75325 142.272354,49.3331667 141.71225,49.1698667 C142.984571,48.3391667 145.075233,47.9735167 146.380571,48.3533667 L162.695521,53.0985333 C163.440754,53.3150833 164.63525,53.1068167 165.471279,52.5601167 C166.198825,52.0856 166.184675,51.5247 165.439442,51.30815 L139.390471,43.73245 C138.677075,43.5253667 138.661746,42.9881333 139.358633,42.5337333 C140.055521,42.07815 141.200492,41.8781667 141.913887,42.0864333 L152.097171,45.0483167 C153.588817,45.4826 155.977808,45.0637 157.4329,44.1146667 L173.409429,48.7616167 C174.155842,48.9781667 175.350337,48.7699 176.076704,48.2953833 C176.810146,47.82205 176.794817,47.26115 176.048404,47.0434167 L176.048404,47.0434167 Z"></path>
                        <path></path>
                    </g>
                    <path d="M71.1519625,89.8729 L7.62082083,132.4516 L136.697121,173.430433 C141.709758,173.384283 146.240117,173.225717 151.8671,174.542767 C157.036567,175.752133 160.73915,178.411083 168.144317,183.414217 L230.302908,203.148667 L273.454513,157.103983 L71.1519625,89.8729 L71.1519625,89.8729 Z" id="Shape" fill="#DB565D" opacity="0.5"></path>
                    <path d="M248.6814,202.520317 C249.2474,198.220083 282.923221,200.957133 279.845596,207.130583 C278.343337,210.06525 273.844817,212.297017 269.011412,211.749133 C265.518721,211.3539 262.163992,208.8902 258.151287,207.130583 C257.141921,206.498683 249.069346,205.202933 248.6814,202.520317 L248.6814,202.520317 Z" id="Shape" fill="#DB565D"></path>
                    <g opacity="0.5" transform="translate(133.604167, 43.966667)" id="Shape" fill="#DB565D">
                        <path d="M22.3805833,11.11505 L1.1603,23.2655167 C8.17752083,23.2619667 15.1652625,23.0903833 22.1270625,22.7649667 L22.3805833,11.11505 L22.3805833,11.11505 Z"></path>
                        <path d="M48.7726917,33.7723333 L45.8872708,34.30365 L46.4072833,21.0065333 C60.8603292,19.5971833 75.20725,17.5654 89.463375,15.0117667 L45.7033208,0.753783333 C43.5808208,0.0627166667 41.2661167,0.300566667 39.3275667,1.41053333 L27.6939083,8.07151667 L27.1290875,22.5022667 C32.5320292,22.19105 37.9196417,21.7910833 43.291925,21.3011833 L42.9971333,34.8349667 L36.7369375,35.9887167 C38.4655958,38.3104167 40.5421083,40.2913167 42.8426625,41.93615 L42.8084667,43.5301 C43.6692583,43.99515 44.5559917,44.4365333 45.4733833,44.8518833 L45.52055,43.6448833 C45.527625,43.6484333 45.5347,43.6531667 45.541775,43.6567167 L48.1724958,45.6056667 C48.0015167,45.65655 47.8211042,45.7109833 47.6347958,45.7666 C49.404725,46.46595 51.26545,47.0860167 53.2075375,47.6350833 L51.4376083,46.2659667 C53.4492667,46.9333667 55.5057333,47.41025 57.5527667,47.6930667 L61.5749042,46.2079833 L64.3648125,47.7557833 L66.4248167,47.3581833 L63.4214792,45.5263833 L68.2985125,43.72535 C59.4854208,42.4248667 52.4363625,39.57895 48.7726917,33.7723333 L48.7726917,33.7723333 Z"></path>
                    </g>
                    <path d="M155.205321,90.8787333 L155.010758,99.7797667 C153.242008,100.330017 151.999167,100.719333 151.999167,100.719333 L153.46605,102.729817 L154.956517,102.274233 L154.940008,103.023283 C154.915246,104.180583 155.791367,105.156833 156.939875,105.2515 C158.176821,105.35445 159.249862,104.401867 159.298208,103.157 L159.385467,100.9205 L166.465183,98.7573667 L177.214467,106.7212 L179.986687,106.186333 L169.529837,98.0947 C172.883387,99.2070333 176.311225,100.00105 179.721375,100.4732 L186.423758,97.99885 L191.073212,100.5797 L194.505767,99.9170333 L189.499025,96.8640333 L197.6282,93.8631 C182.939321,91.6928667 171.191283,86.95125 165.084379,77.27395 L160.274558,78.1602667 L161.50325,46.7664333 L156.201717,45.0375833 L155.4612,79.0477667 L145.027933,80.9695 C147.909817,84.83545 151.37185,88.1381333 155.205321,90.8787333 L155.205321,90.8787333 Z M159.668467,93.7258333 C159.680258,93.7329333 159.69205,93.73885 159.703842,93.74595 L164.089162,96.9953833 C162.759062,97.3918 161.122379,97.89235 159.485696,98.3952667 L159.668467,93.7258333 L159.668467,93.7258333 Z" id="Shape" fill="#DB565D" opacity="0.5"></path>
                    <path d="M231.8995,58.4033333 L164.054967,22.54715 C160.763912,20.80765 156.895067,20.5414 153.398837,21.8134833 L84.5461167,46.854 C133.661946,55.3302167 182.780133,58.6908833 231.8995,58.4033333 L231.8995,58.4033333 Z" id="Shape" fill="#FF6666"></path>
                    <path d="M184.178625,101.56305 C164.972358,98.7266 149.610175,92.52475 141.624858,79.8713667 L134.845829,81.2972833 L121.003592,32.2481167 L113.622008,32.2481167 L128.727133,82.4238167 L115.397833,84.7904833 C120.557867,91.7212667 127.145871,97.2154833 134.454346,101.382 L135.685396,105.46095 C135.8493,106.006467 136.1606,106.4585 136.562696,106.8064 C131.033583,108.495017 124.513971,110.5339 124.513971,110.5339 L126.432475,113.159717 L143.431342,107.9637 L157.487008,118.377033 L161.110588,117.677683 L147.43815,107.0975 C151.822292,108.551817 156.304304,109.5896 160.765092,110.2073 L169.529838,106.970883 L175.608442,110.344567 L180.09635,109.478367 L173.549617,105.4858 L184.178625,101.56305 L184.178625,101.56305 Z" id="Shape" fill="#DB565D"></path>
                    <path d="M200.185812,15.77375 L111.241271,0.40935 C106.9267,-0.33615 102.500108,0.77855 99.0475083,3.47891667 L31.0544,56.6508167 C89.1071333,48.2053667 145.306217,34.0314 200.185812,15.77375 L200.185812,15.77375 Z" id="Shape" fill="#F17D7D"></path>
                    <g transform="translate(0.000000, 78.283333)">
                        <path d="M71.1519625,11.5895667 L7.62082083,50.31415 L141.469208,95.1246167 C144.759083,95.1565667 148.061929,95.3683833 151.8671,96.2594333 C156.248883,97.2853833 159.572954,99.3491167 164.991225,102.9997 L230.302908,124.865333 L273.454513,78.82065 L71.1519625,11.5895667 L71.1519625,11.5895667 Z" id="Shape" fill="#FF6666"></path>
                        <path d="M276.326962,94.6453667 C273.772887,99.542 264.732217,98.9515167 251.189487,92.8833833 C248.069412,91.5604167 244.625067,92.7851667 243.534337,90.2528333 C243.014325,89.0150667 244.64865,87.8601333 248.801675,88.1157333 C260.858654,88.4873 280.054308,86.1798 276.326962,94.6453667 L276.326962,94.6453667 Z" id="Shape" fill="#DB565D"></path>
                        <path d="M31.0060155,14.4438365 C14.9237023,12.291322 1.11935614,15.7499602 0.173145406,22.168921 C-0.773065327,28.5878818 11.4971701,35.5364355 27.5794833,37.6889499 C43.6617965,39.8414643 57.4661427,36.3828262 58.4123534,29.9638653 C59.3585641,23.5449045 47.0883287,16.5963509 31.0060155,14.4438365 L31.0060155,14.4438365 Z" id="Oval" fill="#DB565D" opacity="0.5"></path>
                        <g transform="translate(0.358333, 0.000000)" id="Shape">
                            <path d="M84.666525,17.2044833 C84.666525,17.2044833 85.0238125,17.9925833 85.7395667,19.5687833 C82.9531958,25.96825 58.5798208,42.13495 27.5193917,36.4525833 C9.46399167,31.3808167 4.92537917,25.4191833 4.92537917,25.4191833 L2.2675375,19.7735 L84.666525,17.2044833 L84.666525,17.2044833 Z" fill="#DB565D"></path>
                            <path d="M32.7301292,9.37081667 C25.7140875,8.8253 18.6119667,9.41578333 11.7822333,11.11505 C9.17391667,11.7635167 6.56795833,12.5894833 4.30985417,14.0509 C3.39835833,14.6413833 2.5187,15.3715 2.0906625,16.3726 C1.422075,17.9369667 2.01755417,19.7616667 2.89485417,21.2171667 C4.6129,24.0666333 7.3332375,26.16705 10.1691333,27.8959 C19.0293917,33.2966333 29.5440208,35.6573833 39.910075,35.5165667 C50.2761292,35.37575 60.5101167,32.81975 70.1380125,28.96445 C75.5987333,26.77765 81.2033125,23.8926833 84.1700958,18.7984333 C84.4153625,18.37835 84.6453,17.8789833 84.4802167,17.4210333 C84.2656083,16.827 83.5321667,16.64595 82.9095667,16.5512833 C71.3501958,14.7987667 59.7920042,13.0474333 48.2326333,11.2949167 C42.9546833,10.4949833 38.0528875,9.78616667 32.7301292,9.37081667 L32.7301292,9.37081667 Z" fill="#F17D7D"></path>
                            <polygon fill="#DB565D" opacity="0.5" points="27.77645 13.6343667 20.5552333 13.5266833 15.1971 16.7394333 26.8519833 20.9189667"></polygon>
                            <path d="M42.4063708,1.3632 C44.8142292,5.72378333 52.630925,15.8341833 56.6436292,18.6233 C48.8870708,25.5481667 34.7193833,26.1552167 26.7989208,20.9189667 C27.9061583,15.0460833 28.3660333,4.66706667 28.5028167,3.0956 C35.1261958,-0.222466667 42.2129875,1.01293333 42.4063708,1.3632 L42.4063708,1.3632 Z" fill="#F17D7D"></path>
                            <path d="M27.46515,16.2921333 C34.434025,20.06105 46.5664708,19.8504167 52.6427167,14.91355 L56.64245,18.6244833 C49.6936208,25.18015 35.6391333,26.6238167 26.7977417,20.92015 L27.46515,16.2921333 L27.46515,16.2921333 Z" fill="#EE5C5D"></path>
                            <path d="M9.55596667,10.2725167 L8.73172917,10.2997333 L7.57614583,15.5821333 C7.57614583,15.5821333 8.709325,15.62355 8.63032083,15.4496 C8.55249583,15.27565 9.55596667,10.2725167 9.55596667,10.2725167 L9.55596667,10.2725167 Z" fill="#F17D7D"></path>
                            <path d="M6.5479125,14.2343167 C6.18119167,14.1929 2.74392083,13.5266833 2.74392083,13.5266833 L2.42908333,14.3692167 L4.68129167,14.7265833 L1.26524583,15.95015 L1.06596667,16.7406167 L5.76140833,15.57385 L6.5479125,14.2343167 L6.5479125,14.2343167 Z" fill="#F17D7D"></path>
                            <path d="M4.44899583,20.1569 C4.24028333,20.3923833 2.09537917,23.05015 2.09537917,23.05015 L3.07526667,23.93055 L5.0409375,21.4585667 L4.44899583,20.1569 L4.44899583,20.1569 Z" fill="#F17D7D"></path>
                            <polygon fill="#F17D7D" points="10.7292375 10.0985667 13.9200625 12.425 14.6888792 12.07355 11.0275667 9.36963333"></polygon>
                            <g transform="translate(25.941667, 0.000000)" fill="#DB565D">
                                <path d="M0.9091375,20.92015 C1.698,15.3786 2.525775,3.1027 2.51752083,3.09678333 C4.4890875,2.03888333 7.6091625,1.30521667 9.96749583,1.09576667 L9.96749583,3.55473333 L10.3012,3.56065 C9.99225833,3.63283333 9.7175125,3.69318333 9.44630417,3.73696667 L10.3023792,24.2382167 C10.3035583,24.2370333 5.3239375,23.8477167 0.9091375,20.92015 L0.9091375,20.92015 Z" opacity="0.2"></path>
                                <path d="M9.968675,1.09458333 C12.3270083,0.906433333 14.4506875,1.04606667 15.6557958,1.41763333 C16.0861917,1.62353333 12.7267458,2.98673333 10.2823333,3.55946667 L9.96985417,3.55355 L9.96985417,1.09458333 L9.968675,1.09458333 Z" opacity="0.5"></path>
                            </g>
                        </g>
                        <path d="M151.868279,96.2594333 C156.250063,97.2853833 159.574133,99.3491167 164.992404,102.9997 L181.593892,108.557817 L225.179429,62.7770167 L173.547258,45.6175 L127.860446,90.5676 L141.469208,95.1234333 C144.759083,95.1565667 148.061929,95.3695667 151.868279,96.2594333 L151.868279,96.2594333 Z" id="Shape" fill="#F17D7D"></path>
                        <path d="M63.9507917,69.1729333 L73.4525167,72.3537333 L88.821775,71.6177 L106.844158,69.4853333 L147.000679,82.1115 L194.523454,94.9790667 L211.935029,96.1328167 C216.302662,105.217267 229.356037,108.88205 241.061625,113.387 L246.874917,106.997 L218.675146,85.1514833 L188.030962,75.6351167 L210.675679,70.4604 L238.16795,83.3161333 L257.505104,92.0444 L263.996417,88.1749 L244.02605,83.1315333 L223.128858,67.8973 L197.917096,58.5821 L121.775946,40.1138167 L73.4525167,31.2601167 L64.1842667,31.8174667 L56.6387792,36.9424833 L59.9581333,44.65545 L39.3333292,59.9299167 L47.2184167,65.3140833 L66.634575,46.84225 L75.5089833,46.59375 L62.0912458,60.2884667 L63.9507917,69.1729333 L63.9507917,69.1729333 Z" id="Shape" fill="#DB565D"></path>
                        <path d="M206.249087,69.2818 L199.710608,88.9499833 L195.431412,93.00645 C195.431412,93.00645 187.364733,87.96545 187.489725,84.2675333 C189.139379,73.3524667 206.249087,69.2818 206.249087,69.2818 L206.249087,69.2818 Z" id="Shape" fill="#631212"></path>
                        <path d="M198.240187,31.74055 C194.932625,41.1953833 202.445096,51.5152333 210.035392,60.8055833 C209.852621,53.0204333 207.231333,40.4297667 198.240187,31.74055 L198.240187,31.74055 Z" id="Shape" fill="#631212"></path>
                        <g transform="translate(196.100000, 33.133333)" id="Shape">
                            <path d="M46.5983083,54.0333667 L46.9119667,54.02745 L47.9402,53.2997 C49.0344667,51.5258833 51.527225,50.1461167 55.0187375,50.7070167 C58.2720583,51.1543167 67.7301542,52.8796167 75.9041375,54.4487167 L79.3720667,55.3598833 L79.7505792,56.3728167 C81.3683958,59.0530667 79.0713792,64.87625 69.9021792,63.5177833 C62.8236417,62.6160833 56.720275,58.5300333 49.7407875,57.9099667 C47.0169125,57.6460833 46.9544167,55.4214167 46.5983083,54.0333667 L46.5983083,54.0333667 Z" fill="#DDDDDD"></path>
                            <path d="M75.0740042,52.6133667 C68.4270417,51.3401 59.2436917,49.5426167 54.2876542,48.8610167 C47.1006333,47.7049 43.9817375,54.82265 49.0922458,56.52665 C58.9158833,57.7395667 62.0595417,60.7831 69.1380792,61.6848 C83.0888,63.7603667 81.7209667,53.8866333 75.0740042,52.6133667 L75.0740042,52.6133667 Z" fill="#F2F2F2"></path>
                            <path d="M0.928004167,2.89916667 C-0.971633333,8.0869 3.33350417,17.5855167 9.63143333,24.1246167 C9.63143333,24.1246167 14.0992958,22.6052167 20.9148792,18.64815 C26.0383583,29.0520167 37.8111583,37.1046 37.8111583,37.1046 C44.5076458,43.5880833 46.801125,47.3368833 48.5250667,49.7189333 C49.6723958,54.83685 50.5060667,56.1965 55.4137583,56.2189833 C60.3438542,56.8698167 61.9451625,58.078 66.3658583,60.0352333 C67.7124667,60.5748333 71.4975917,60.2269333 72.2404667,60.1133333 C73.2958208,60.2719 74.1967042,59.60095 73.9608708,59.0282167 C74.5575292,58.9430167 75.4654875,58.0661667 74.7556292,57.5750833 C76.3156667,57.6685667 76.6764917,56.3763667 76.0621458,55.75985 C78.9487458,53.8239167 77.817925,52.7624667 75.0740042,52.6133667 C75.0740042,52.6133667 70.2240917,51.2099333 68.1405042,50.6017 C63.7563625,49.3225167 59.4842417,49.4420333 55.2239125,46.2683333 C48.3328625,37.3010333 40.5998875,15.4910167 28.3023583,1.93238333 C22.4619458,-1.83653333 0.928004167,2.89916667 0.928004167,2.89916667 L0.928004167,2.89916667 Z" fill="#F6C785"></path>
                            <path d="M22.9182833,17.3405667 L20.9148792,18.64815 C26.085525,27.7302333 31.8752333,32.8812833 37.8111583,37.1046 L29.2067792,19.10965 C28.0712417,16.7370667 25.11625,15.9063667 22.9182833,17.3405667 L22.9182833,17.3405667 Z" fill="#A67C52" opacity="0.1"></path>
                            <path d="M70.9363083,56.22845 L68.6322167,56.0959167 L71.4633958,60.2020833 C71.4633958,60.2020833 73.6448542,61.273 75.5268042,59.3796667 C75.7555625,59.1501 75.8876292,58.8365167 75.9029583,58.5122833 C76.049175,55.44745 70.9363083,56.22845 70.9363083,56.22845 L70.9363083,56.22845 Z" fill="#F6C785"></path>
                            <path d="M76.0621458,55.75985 C75.57515,55.0593167 74.9938208,54.5717833 74.3606083,54.2025833 L77.2071167,54.83685 C76.8262458,55.1445167 76.4441958,55.4521833 76.0621458,55.75985 L76.0621458,55.75985 Z" fill="#A67C52" opacity="0.1"></path>
                            <path d="M72.3465917,56.0616 C73.7969667,55.3468667 75.5633583,55.8509667 76.1435083,57.0615167 C76.2413792,57.2520333 74.9419375,57.7845333 74.7556292,57.5762667 L72.2675875,56.0923667" fill="#A67C52" opacity="0.1"></path>
                            <path d="M9.63143333,24.1246167 C3.33350417,17.5855167 -0.971633333,8.0869 0.928004167,2.89916667 C0.928004167,2.89916667 22.4619458,-1.83653333 28.3023583,1.93238333 C40.5998875,15.4922 48.3328625,37.3010333 55.2239125,46.2683333 C59.4854208,49.4420333 63.7575417,49.3225167 68.1405042,50.6017 C70.2240917,51.2099333 75.0740042,52.6133667 75.0740042,52.6133667 C77.8191042,52.7624667 78.9487458,53.8239167 76.0621458,55.75985 C76.6764917,56.3763667 76.3156667,57.6685667 74.7556292,57.5750833 C75.4654875,58.0661667 73.4125583,58.7891833 72.8147208,58.8732 C71.8560583,58.7217333 71.0565833,58.7513167 70.3773833,58.8743833 C69.3055208,60.1109667 67.375225,60.4399333 66.3646792,60.03405 C61.9439833,58.0768167 60.342675,56.8698167 55.4125792,56.2178 C50.5037083,56.1953167 49.6712167,54.8356667 48.5238875,49.71775 C46.7999458,47.3357 44.5064667,43.5869 37.8099792,37.1034167 C37.8099792,37.1034167 26.0371792,29.0508333 20.9137,18.6469667 C14.0981167,22.6064 9.63143333,24.1246167 9.63143333,24.1246167 L9.63143333,24.1246167 Z" fill="#A67C52" opacity="0.1"></path>
                            <path d="M48.5250667,49.7189333 L50.9800917,52.08915 C51.4977458,53.0630333 52.7417667,53.7245167 55.2156583,53.8558667 L59.0385167,56.1337833 C63.4804375,54.5007833 67.7702458,54.3209167 71.860775,56.0332 C68.6015583,55.30545 64.9319917,55.61075 60.7659958,57.1644667 L62.8861375,58.4270833 C60.6551542,57.3869333 58.2720583,56.5242833 55.4125792,56.2201667 C55.4125792,56.2201667 52.68045,56.7088833 50.9883458,55.28415 C49.2974208,53.8594167 48.5250667,49.7189333 48.5250667,49.7189333 L48.5250667,49.7189333 Z" fill="#A67C52" opacity="0.1"></path>
                            <path d="M1.3301,6.91303333 C5.596325,12.3895 10.9969083,16.91575 17.4386958,20.57225 C14.7749583,22.0821833 12.2704083,23.3329667 10.1726708,23.927 C5.8262625,18.6670833 2.3489,13.1515667 1.3301,6.91303333 L1.3301,6.91303333 Z" fill="#A67C52" opacity="0.1"></path>
                        </g>
                        <path d="M248.111862,120.084667 C248.111862,120.084667 248.496271,122.18745 248.702625,122.9223 C249.851133,127.0261 257.598258,127.389383 264.547087,131.251783 C274.367187,135.72715 278.984804,128.512367 279.426992,126.26285 C279.751262,125.167083 278.949429,122.8229 278.949429,122.8229 C273.901417,118.728567 254.662133,118.475333 254.692792,118.501367 C254.692792,118.501367 249.5304,117.904967 248.111862,120.084667 L248.111862,120.084667 Z" id="Shape" fill="#F2F2F2"></path>
                        <path d="M248.309962,118.347533 C246.598992,125.0381 255.900258,124.728067 264.094287,129.2839 C273.914387,133.759267 278.532004,126.544483 278.974192,124.294967 C281.116737,117.8742 254.239992,116.533483 254.239992,116.533483 C254.239992,116.533483 249.7285,116.167833 248.309962,118.347533 L248.309962,118.347533 Z" id="Shape" fill="#FFFFFF"></path>
                        <path d="M261.395175,124.872433 C260.89285,124.6689 251.657617,122.37915 250.256767,120.3876 C248.854737,118.39605 252.044383,117.658833 252.044383,117.658833 L261.715908,121.84665 L261.395175,124.872433 L261.395175,124.872433 Z" id="Shape" fill="#F2F2F2"></path>
                        <path d="M200.399242,70.2687 C200.399242,70.2687 214.278033,73.982 217.861521,76.96755 C221.445008,79.9531 247.343046,105.997083 255.311854,111.18245 C263.096713,116.85535 266.927825,116.0424 271.715242,119.2374 C276.324604,118.53805 277.142946,121.4597 274.220971,122.874967 C274.182058,122.9649 272.974592,122.841833 272.910917,122.953067 C273.65615,123.48675 274.847108,124.720967 272.938038,125.324467 C272.692771,126.251017 272.15625,126.171733 271.467617,126.473483 C271.629163,127.176383 270.200013,129.469683 267.334638,127.415417 C266.031658,127.255667 264.466904,126.871083 263.168642,126.169367 C261.180567,125.093717 259.790329,122.963717 257.736221,121.795767 C254.252963,119.81605 252.000754,120.602967 250.342846,115.9501 C229.9185,101.563133 227.982308,110.769467 211.785275,92.2940833 C200.556071,90.0422 186.200896,87.16315 186.200896,87.16315 C189.267908,80.6003833 193.216938,74.5298833 200.399242,70.2687 L200.399242,70.2687 Z" id="Shape" fill="#F6C785"></path>
                        <path d="M272.052483,122.874967 C265.627204,121.645483 261.791375,124.728067 260.823279,125.57415 C260.665271,125.7126 260.442408,125.742183 260.252562,125.65225 L260.252562,125.65225 C259.855183,125.465283 259.795046,124.9245 260.141721,124.6547 C263.163925,122.2904 267.964312,120.489367 273.308296,122.331817 C273.640821,122.4466 273.239904,123.102167 272.052483,122.874967 L272.052483,122.874967 Z" id="Shape" fill="#A12E2F"></path>
                        <path d="M273.046521,122.262 L272.759983,121.0124 C272.284779,118.9392 270.600929,117.365367 268.506729,117.034033 L266.284,116.682583 C269.189467,117.946383 271.146883,119.785283 272.35435,122.078583 L273.046521,122.262 L273.046521,122.262 Z" id="Shape" fill="#A12E2F"></path>
                        <path d="M197.562167,90.0481167 L188.703088,87.969 C189.483696,84.2900167 190.401088,81.1719333 191.572,79.5436667 L196.335833,81.1151333 C197.586929,77.5899833 199.735371,74.11335 203.220988,71.1088667 C200.718796,74.3665833 199.188238,77.9343333 198.360463,81.7588667 L214.596408,87.36195 L243.917567,111.815533 C237.994613,108.31405 229.414996,106.18405 224.263217,103.346417 C216.193,98.4355833 211.786454,92.6005667 211.786454,92.6005667 L197.564525,90.0493 L197.562167,90.0493 L197.562167,90.0481167 Z" id="Shape" fill="#A67C52" opacity="0.1"></path>
                        <path d="M133.96735,70.4154333 C137.494238,73.2353167 145.195375,79.6750167 155.067358,80.9376333 L195.432592,93.00645 C192.494108,84.2509667 200.152796,71.3419833 206.249088,69.2818 L192.629713,65.1839167 L210.035392,60.8055833 C202.380242,53.9552667 195.905438,36.9460333 198.240188,31.74055 L167.996921,43.52655 L162.392342,43.8567 L133.96735,70.4154333 L133.96735,70.4154333 Z" id="Shape" fill="#BA2B32"></path>
                        <path d="M177.509258,52.2394333 L156.97525,53.7351667 L153.507321,57.6602833 C153.507321,57.6602833 151.891863,56.8059167 149.685642,55.73145 L162.393521,43.8578833 L167.9981,43.5277333 L198.241367,31.7417333 C195.907796,36.9460333 202.381421,53.95645 210.036571,60.8067667 L177.509258,52.2394333 L177.509258,52.2394333 Z" id="Shape" fill="#A12E2F" opacity="0.3"></path>
                        <path d="M173.278408,59.0980333 L192.629712,65.1839167 L210.035392,60.8055833 C206.877583,57.084 203.2599,50.8158833 199.290825,42.59645 C199.290825,42.59645 177.694387,52.2974167 175.884367,53.55885 C174.074346,54.8202833 172.467142,56.6852167 173.278408,59.0980333 L173.278408,59.0980333 Z" id="Shape" fill="#A12E2F"></path>
                        <path d="M155.860937,70.0781833 C161.556312,72.8945167 167.608975,75.5025833 167.608975,75.5025833 L195.57645,83.5173 C194.583592,86.7123 194.675567,89.8706167 195.433771,93.00645 L155.068537,80.9376333 C147.635071,79.8063667 140.621387,76.1841833 133.968529,70.4154333 L133.968529,70.4154333 C140.790008,66.7885167 148.935692,66.6536167 155.860937,70.0781833 L155.860937,70.0781833 Z" id="Shape" fill="#A12E2F"></path>
                        <path d="M110.103375,25.2476 C108.392404,26.1019667 106.032892,27.39535 104.898533,29.03545 C97.807025,33.0647 92.8439125,36.0881167 89.1295375,40.2712 C84.293775,42.0379167 79.0028542,44.5323833 74.0456375,47.428 C69.917375,49.8396333 66.01905,52.5305333 62.8046417,55.3113667 C59.375625,55.3030833 54.3075667,55.7977167 50.2748167,57.4981667 C57.6894167,53.8736167 61.3684167,44.28625 71.2073833,38.056 C71.2073833,38.056 67.8620875,32.2174333 69.1898292,31.7299 C70.7498667,31.15835 65.6134167,34.8124833 65.4235708,34.5983 C53.9880125,44.6069333 39.9948417,42.75975 33.3584917,61.8350833 C33.36085,68.0866333 34.4739833,74.95115 42.5524542,72.4566833 C52.5234875,73.4613333 59.6833875,73.1844333 68.3137083,68.3434167 C76.4959458,69.5397667 80.3247,69.3102 87.6862375,67.8913833 C95.4604833,69.38475 98.7326708,66.6701833 104.838396,66.20395 C112.683392,66.6275833 122.308929,66.3921 133.975604,70.4438333 C144.203696,66.9873167 158.725133,55.8722667 162.3947,43.8555167 C154.168833,42.9337 144.974871,40.0416333 135.805671,36.5366 C135.805671,36.5366 134.606458,32.89075 132.443867,31.0057 C132.101908,30.4459833 128.494837,29.8957333 128.494837,29.8957333 C130.186942,26.7587167 132.224542,22.5294833 132.224542,22.5294833 C134.387133,18.06595 137.9718,13.5053833 134.822246,9.21225 C133.659587,6.18765 130.932175,5.52853333 127.398212,6.09061667 C114.301208,5.44096667 99.207875,14.4414 83.5803792,26.0215 C83.6641,26.2427833 79.1938792,30.1418667 79.9768458,30.7406333 C81.0357375,31.5524 87.4126708,29.07805 87.4126708,29.07805 C93.7837083,23.9423833 106.385462,24.4050667 115.281096,18.6351333 C112.773008,20.9793167 110.201246,23.05725 110.103375,25.2476 L110.103375,25.2476 Z" id="Shape" fill="#F6C785"></path>
                        <path d="M83.5803792,26.0215 C99.207875,14.4414 114.301208,5.44096667 127.395854,6.09298333 C130.929817,5.53208333 133.657229,6.19001667 134.819887,9.21461667 C137.969442,13.50775 134.384775,18.0683167 132.222183,22.53185 C132.222183,22.53185 130.028933,27.0581 128.492479,29.8981 C128.492479,29.8981 131.881404,30.3087167 132.441508,31.0080667 C134.6041,32.8931167 135.803312,36.5389667 135.803312,36.5389667 C144.972512,40.044 154.166475,42.9360667 162.392342,43.8578833 C160.8948,48.7616167 157.588417,53.5150667 153.504962,57.6602833 C153.49435,57.6543667 143.355875,52.2915 139.172192,51.53535 L139.172192,51.53535 C138.987062,51.8158 138.642746,51.9424167 138.322012,51.8501167 C133.705575,51.4655333 128.922875,49.3663 123.97745,47.2067167 C119.05325,51.0821333 111.732983,57.03785 105.15795,60.9345667 C104.852546,61.131 104.459883,61.1250833 104.161554,60.9191833 C103.614421,60.5417 103.648617,59.7192833 104.226408,59.3903167 C107.480908,57.5336667 117.825737,50.27865 124.209746,45.5725333 L105.239312,41.6403167 C103.501221,41.2805833 101.707708,41.3007 99.9778708,41.6983 L94.3379167,42.9976 C95.1574375,39.7943167 92.3828583,38.62045 90.0705125,39.9162 L89.7945875,39.55055 C93.4323167,35.7319333 98.2220917,32.8292167 104.898533,29.03545 C106.032892,27.39535 108.393583,26.1019667 110.103375,25.2476 C110.201246,23.05725 112.835504,20.9296167 115.281096,18.63395 C106.385462,24.4038833 93.7837083,23.9412 87.4126708,29.0768667 C87.4126708,29.0768667 83.50845,30.5927167 81.3034083,30.8625167 C80.9425833,30.53 80.5699667,30.1868333 80.1879167,29.8342 C81.0781875,28.4804667 83.6440542,26.18835 83.5803792,26.0215 L83.5803792,26.0215 Z" id="Shape" fill="#A67C52" opacity="0.1"></path>
                        <path d="M134.722017,37.5921333 C132.787004,36.3922333 132.152612,39.7150333 124.207387,45.57135 C117.823379,50.2762833 107.479729,57.5324833 104.22405,59.3891333 C103.646258,59.7181 103.612062,60.5405167 104.159196,60.918 L104.159196,60.918 C104.457525,61.1239 104.851367,61.1298167 105.155592,60.9333833 C111.730625,57.0366667 119.052071,51.08095 123.975092,47.2055333 C128.921696,49.3651167 133.703217,51.4631667 138.319654,51.8489333 C138.641567,51.9412333 138.985883,51.8146167 139.169833,51.5341667 L139.169833,51.5341667 C139.446937,51.1152667 139.254733,50.5460833 138.780708,50.3827833 C134.301054,49.5509 129.992379,48.2113667 125.583475,45.8257667 C125.585833,45.82695 136.269083,38.20865 134.722017,37.5921333 L134.722017,37.5921333 Z" id="Shape" fill="#A67C52" opacity="0.1"></path>
                        <path d="M143.351941,52.3070341 C142.775534,52.4966063 142.446038,53.0497059 142.615992,53.5424167 C142.785946,54.0351275 143.390991,54.28087 143.967399,54.0912979 C144.543806,53.9017258 144.873302,53.3486262 144.703348,52.8559153 C144.533394,52.3632045 143.928349,52.117462 143.351941,52.3070341 L143.351941,52.3070341 Z" id="Oval" fill="#A67C52" opacity="0.1"></path>
                        <path d="M128.740068,34.0935512 C128.163661,34.2831233 127.834165,34.8362229 128.004119,35.3289338 C128.174073,35.8216446 128.779118,36.0673871 129.355526,35.877815 C129.931933,35.6882429 130.261429,35.1351433 130.091475,34.6424324 C129.921521,34.1497216 129.316476,33.9039791 128.740068,34.0935512 L128.740068,34.0935512 Z" id="Oval" fill="#A67C52" opacity="0.1"></path>
                        <path d="M99.6971524,56.0939874 C99.120745,56.2835595 98.7912494,56.8366591 98.9612033,57.32937 C99.1311572,57.8220808 99.7362026,58.0678233 100.31261,57.8782512 C100.889017,57.688679 101.218513,57.1355794 101.048559,56.6428686 C100.878605,56.1501578 100.27356,55.9044153 99.6971524,56.0939874 L99.6971524,56.0939874 Z" id="Oval" fill="#A67C52" opacity="0.1"></path>
                        <path d="M119.594488,27.3965333 L124.120129,28.6686167 L128.492479,29.8981 C128.492479,29.8981 131.305971,24.8571 132.222183,22.53185 L129.803713,24.1033167 C127.421796,25.6511167 124.733296,26.6605 121.923342,27.0628333 L119.594488,27.3965333 L119.594488,27.3965333 Z" id="Shape" fill="#A67C52" opacity="0.1"></path>
                        <path d="M125.747379,16.56785 C124.344171,18.9996 122.819508,22.1224167 122.819508,22.1224167 C122.819508,22.1224167 126.867588,19.7249833 125.747379,16.56785 L125.747379,16.56785 Z" id="Shape" fill="#A67C52" opacity="0.1"></path>
                        <path d="M115.279917,18.63395 L118.325704,15.8969 C114.705662,16.1028 110.19535,16.4660833 110.19535,16.4660833 L91.5786667,26.7031 C98.53575,24.0003667 108.360567,23.22765 115.279917,18.63395 L115.279917,18.63395 Z" id="Shape" fill="#A67C52" opacity="0.1"></path>
                        <path d="M69.3466583,39.3245333 C69.3466583,39.3245333 42.13385,55.76695 43.4533375,60.7547 C47.1818625,58.4945333 50.2736375,57.5005333 50.2736375,57.5005333 C56.772025,54.5327333 61.5618,44.9631167 69.3466583,39.3245333 L69.3466583,39.3245333 Z" id="Shape" fill="#A67C52" opacity="0.1"></path>
                        <polygon id="Shape" fill="#F6C785" points="73.5527458 40.7682 79.6938458 47.94985 101.046196 36.4608667 93.3261917 29.2070333"></polygon>
                        <path d="M93.3261917,29.2070333 L101.046196,36.4608667 L94.3320208,40.0735833 C92.967725,38.7873 91.5468292,38.45715 90.0575417,39.2772 L87.9220708,37.41345 C87.9220708,37.41345 86.6580042,36.2431333 84.5779542,34.3225833 L93.3261917,29.2070333 L93.3261917,29.2070333 Z" id="Shape" fill="#A67C52" opacity="0.1"></path>
                        <g transform="translate(61.675000, 14.200000)" id="Shape">
                            <path d="M26.0348208,22.58155 L29.0876833,24.7624333 C31.5957708,23.4134333 34.7276375,26.1907167 32.6605583,28.7987833 C32.98365,26.2782833 31.2090042,24.6228 28.3931542,25.7173833 L24.8167417,22.9247167 L26.0348208,22.58155 L26.0348208,22.58155 Z" fill="#A67C52"></path>
                            <path d="M34.7913125,17.17845 C28.6160167,10.9493833 22.9123875,5.25755 16.3515042,0.686333333 C5.780275,0.719466667 2.851225,6.60655 0.0860791667,14.50175 C4.06222917,19.9746667 12.6501,29.0887 12.6501,29.0887 C21.4962083,27.4888333 29.7480167,23.7637 34.7913125,17.17845 L34.7913125,17.17845 Z" fill="#A12E2F"></path>
                            <path d="M9.23405417,12.00965 C6.6788,12.56345 6.61394583,10.5588833 8.38505417,10.58965 C8.45580417,8.94955 10.4969417,9.50571667 10.5464667,10.8275 C12.3954,9.58026667 14.6641167,9.4643 16.5000792,9.5424 C14.5662458,8.04666667 12.5604833,7.54611667 9.00883333,6.65743333 C9.00883333,6.65743333 11.2351,7.61948333 11.5511167,8.33066667 C11.8671333,9.04185 11.0994958,9.67375 10.4981208,9.50453333 C10.0877708,9.38028333 9.93801667,8.87618333 10.2717208,8.59691667 C10.4910458,8.41231667 10.8141375,8.53065 10.8389,8.72708333 C10.8436167,8.85251667 10.6431583,9.09155 10.5252417,8.89156667 C10.4603875,8.95783333 10.3978917,9.11995 10.6419792,9.18266667 C11.0818083,9.21935 11.32,8.66555 11.0134167,8.2928 C10.6136792,7.8242 7.45705,6.03381667 6.75190833,6.62311667 C6.3958,6.9509 6.600975,7.30353333 6.84034583,7.3698 C7.0148625,7.3982 7.0926875,7.32601667 7.08679167,7.23726667 C6.9441125,7.30471667 6.87100417,7.0858 6.98420417,6.96391667 C7.14575,6.78996667 7.42992917,6.83966667 7.53959167,7.16981667 C7.82612917,8.22535 5.90998333,8.53183333 5.82744167,7.27395 C5.88050417,5.81371667 6.9901,4.95225 6.9901,4.95225 C7.68109167,4.40673333 8.88737917,4.9842 8.61735,5.91666667 C9.7352,6.42313333 11.9473167,7.04793333 14.0804292,7.35796667 C13.9778417,7.2136 13.8787917,7.0787 13.7821,6.94735 L7.67165833,2.911 C9.58190833,1.42946667 13.0286125,0.694616667 16.3526833,0.68515 C21.5363,3.77246667 31.3540417,13.7089167 34.7924917,17.1772667 C33.1086417,19.3759 31.0651458,21.2550333 28.7622333,22.8430667 L23.0762917,14.7313167 L22.59755,13.91955 L20.0470125,11.5162 C19.3536625,11.9351 18.9008625,12.4013333 18.4999458,12.9208167 L17.2865833,10.6168667 C15.7866833,15.9690833 13.1925167,17.0447333 7.60326667,15.3158833 C7.97942083,13.9041667 8.5466,12.8285167 9.23405417,12.00965 L9.23405417,12.00965 Z" fill="#792323"></path>
                            <path d="M13.9884542,7.08698333 C11.8553417,6.77576667 9.643225,6.15215 8.525375,5.64568333 C8.79540417,4.71321667 7.5879375,4.13575 6.898125,4.68126667 C6.898125,4.68126667 5.78970833,5.54273333 5.73546667,7.00296667 C5.81800833,8.26085 7.73415417,7.95436667 7.44761667,6.89883333 C7.336775,6.56868333 7.053775,6.51898333 6.89222917,6.69293333 C6.77902917,6.816 6.85331667,7.03373333 6.99481667,6.96628333 C7.0007125,7.05503333 6.9228875,7.12721667 6.74837083,7.09881667 C6.509,7.03255 6.303825,6.6811 6.65993333,6.35213333 C7.365075,5.76283333 10.5217042,7.55203333 10.9214417,8.02181667 C11.228025,8.39456667 10.9898333,8.94836667 10.5500042,8.91168333 C10.3059167,8.84778333 10.3672333,8.68685 10.4332667,8.62058333 C10.5511833,8.82056667 10.7516417,8.58035 10.746925,8.4561 C10.7221625,8.25966667 10.3990708,8.14133333 10.1797458,8.32593333 C9.84604167,8.60401667 9.99579583,9.1093 10.4061458,9.23355 C11.0063417,9.40276667 11.7751583,8.77086667 11.4591417,8.05968333 C11.143125,7.3485 8.91685833,6.38645 8.91685833,6.38645 C12.4696875,7.27513333 14.47545,7.7745 16.4081042,9.27141667 C14.5721417,9.19213333 12.303425,9.30928333 10.4544917,10.5565167 C10.4049667,9.23473333 8.36382917,8.67856667 8.29307917,10.3186667 C6.52197083,10.2879 6.586825,12.2924667 9.14207917,11.7386667 C8.454625,12.55635 7.88744583,13.6331833 7.51129167,15.0449 C13.1005417,16.77375 15.6947083,15.6981 17.1946083,10.3458833 L18.4079708,12.6498333 C18.9244458,11.9824333 19.5211042,11.4002333 20.6130125,10.89495 L18.5235292,9.54121667 C18.5235292,9.54121667 24.2200833,10.5659833 24.2082917,6.94616667 C22.8664,6.2267 21.7391167,6.10245 20.8158292,6.28586667 C21.2568375,4.99603333 19.8890042,4.91438333 19.4951625,5.59125 C18.4787208,5.18418333 17.4952958,6.26693333 19.6272292,6.7308 C18.2075125,7.53428333 17.5377458,8.98386667 17.5377458,8.98386667 C15.4423667,7.84313333 13.2396833,5.54983333 11.8034583,3.84465 C11.8034583,3.84465 14.2066,6.42076667 15.2560583,6.01606667 C15.6239583,5.89773333 15.699425,5.59006667 15.6958875,5.39955 C15.6876333,4.94396667 14.9895667,4.64576667 14.7902875,5.02325 C14.6971333,5.43268333 15.2312958,5.4599 15.2419083,5.14513333 C15.49425,5.31908333 15.2725667,5.72851667 14.9176375,5.6445 C12.5887833,4.57595 12.5333625,3.37605 12.5251083,3.01986667 C12.572275,2.47553333 13.3293,2.6057 13.1017208,2.97135 C13.1005417,2.77373333 12.9283833,2.8329 12.8765,2.9181 C12.6890125,3.43521667 13.5863583,3.58786667 13.6441375,2.81396667 C13.6347042,2.34891667 13.3045375,2.03296667 12.3116792,2.09568333 C10.7881958,2.3643 10.0217375,2.97371667 10.0217375,2.97371667 C9.16684167,3.84701667 10.1561625,4.50495 10.9556375,4.02215 C12.2267792,4.86823333 12.9248458,5.59835 13.9884542,7.08698333 L13.9884542,7.08698333 Z" fill="#FFC200"></path>
                            <path d="M19.8347625,11.3174 L19.8347625,11.3174 L17.7759375,9.76841667 L13.987275,7.08698333 C12.9248458,5.59835 12.2256,4.86941667 10.9556375,4.01978333 C10.1561625,4.50258333 9.1656625,3.84583333 10.0217375,2.97135 C10.0217375,2.97135 10.7881958,2.36193333 12.3116792,2.09331667 C13.3045375,2.0306 13.6358833,2.34773333 13.6441375,2.8116 C13.5863583,3.58431667 12.6890125,3.43285 12.8765,2.91573333 C12.9272042,2.83171667 13.1005417,2.77255 13.1017208,2.96898333 C13.3293,2.60215 12.572275,2.47198333 12.5251083,3.0175 C12.5333625,3.3725 12.5887833,4.57358333 14.9176375,5.64213333 C15.2725667,5.72615 15.49425,5.31671667 15.2419083,5.14276667 C15.2312958,5.45753333 14.6971333,5.4315 14.7902875,5.02088333 C14.9895667,4.6434 15.6876333,4.9416 15.6958875,5.39718333 C15.699425,5.5877 15.6239583,5.89655 15.2560583,6.0137 C14.2066,6.4184 11.8034583,3.84228333 11.8034583,3.84228333 C13.2385042,5.54746667 15.4423667,7.84076667 17.5377458,8.9815 C17.5377458,8.9815 18.2075125,7.53191667 19.6272292,6.72843333 C17.496475,6.26456667 18.4787208,5.18181667 19.4951625,5.58888333 C19.8901833,4.91201667 21.2568375,4.99366667 20.8158292,6.2835 C21.7391167,6.10008333 22.8664,6.22551667 24.2082917,6.9438 C24.2200833,10.5636167 18.52235,9.53885 18.52235,9.53885 L20.6118333,10.8925833 C20.3205792,11.0286667 20.0647,11.1706667 19.8347625,11.3174 L19.8347625,11.3174 Z" fill="#FBB03B"></path>
                            <path d="M12.7114167,19.4682 C10.2328083,20.72135 11.850625,22.2537667 14.1264167,20.6657333 C16.5106917,21.53075 17.9233333,22.9306333 19.4680417,25.1860667 C19.4680417,25.1860667 25.7270583,23.6938833 29.5452,23.9636833 C29.6289208,21.1284167 31.3575792,17.9464333 31.3575792,17.9464333 C29.424925,16.3607667 28.6737958,14.89935 28.519325,13.5018333 C30.0911542,12.3469 29.0334417,10.9198 27.2505417,12.1043167 C24.6693458,14.0982333 20.0210708,16.5134167 12.7114167,19.4682 L12.7114167,19.4682 Z" fill="#FBB03B"></path>
                            <path d="M14.1264167,20.6669167 C11.8494458,22.2537667 10.754,20.7095167 13.2326083,19.4563667 C17.5943458,17.6920167 19.4008292,16.1939167 24.1174958,14.7052833 L24.1174958,14.70765 L30.0663917,23.95185 C26.24825,23.6832333 19.7286375,25.1813333 19.7286375,25.1813333 C18.1839292,22.9247167 16.5106917,21.53075 14.1264167,20.6669167 L14.1264167,20.6669167 Z" fill="#FFC200"></path>
                            <path d="M27.4757625,12.77645 C27.7858833,14.6910833 28.8471333,16.5879667 30.2715667,18.1061833 L28.307075,21.99225 L19.7828792,24.3541833 C18.5636208,22.54605 16.5389917,20.7154333 14.425925,19.5155333 C20.13545,17.2175 24.5396375,15.0011167 27.4757625,12.77645 L27.4757625,12.77645 Z" fill="#F6C785"></path>
                            <path d="M26.6703917,18.5605833 C27.4038333,18.4789333 30.4472625,19.9865 28.4049458,22.28335 C26.7057667,23.7542333 24.5561458,23.0312167 24.5561458,23.0312167 L26.6703917,18.5605833 L26.6703917,18.5605833 Z" fill="#F6C785"></path>
                            <path d="M17.2240875,19.7332667 C20.1130458,19.6244 22.8416375,18.1629833 26.5713417,15.8211667 C26.6291208,16.7713833 26.7564708,17.6719 27.0984292,18.4233167 C29.2303625,18.6647167 30.0038958,21.3142 28.406125,22.28335 C29.6772667,21.1520833 28.3530625,19.1617167 26.5465792,18.88245 C26.0819875,18.32155 25.8779917,17.6091833 25.8461542,16.7974167 C22.8758333,18.7499167 20.1790792,19.9107667 17.3490792,20.17465 C17.2995542,20.3900167 17.4221875,20.61485 17.5731208,20.8408667 C17.0566458,20.3048167 16.7536,19.5687833 17.0094792,19.1605333 C17.0200917,19.4232333 17.0448542,19.6717333 17.2240875,19.7332667 L17.2240875,19.7332667 Z" fill="#A67C52"></path>
                            <path d="M4.86995833,13.3977 L5.3451625,14.9123667 C5.39940417,15.0744833 5.49963333,15.21885 5.63287917,15.3265333 L6.72007083,16.2081167 C6.90991667,16.36195 7.16461667,16.4081 7.39455417,16.33 L7.50421667,16.2933167 C7.50421667,16.2933167 9.5194125,18.44225 10.138475,18.89665 C10.8931417,19.56405 11.6725708,19.30135 11.6725708,19.30135 C11.6725708,19.30135 16.8785917,17.9570833 18.288875,15.8827 C18.6461625,14.89935 18.2876958,13.78465 18.2876958,13.78465 L17.3384667,10.07845 C17.3384667,10.07845 18.0259208,9.28088333 19.0517958,9.8832 C20.0776708,10.4867 21.09765,11.08665 21.09765,11.08665 L21.7568042,10.6760333 L24.1009875,12.32205 C24.1009875,12.32205 26.9522125,10.72455 27.7139542,9.86781667 C28.0464792,9.58381667 27.9273833,8.56023333 27.9273833,8.56023333 C27.9273833,8.56023333 20.9856292,8.83358333 19.2546125,8.32238333 C17.5235958,7.81118333 15.0662125,10.2997333 15.0662125,10.2997333 L4.86995833,13.3977 L4.86995833,13.3977 Z" fill="#382F2B"></path>
                            <polygon fill="#4C4441" points="4.9525 13.6462 5.61637083 23.1661167 7.01957917 25.1848833 8.1221 24.8298833 7.11509167 23.4382833 7.68580833 14.98455"></polygon>
                            <polygon fill="#382F2B" points="7.10801667 14.6839833 6.60215417 23.3164 7.63628333 25.0192167 8.19520833 24.8310667 7.1209875 23.4572167 7.68934583 14.9940167"></polygon>
                            <polygon fill="#382F2B" opacity="0.2" points="4.9525 13.6462 5.002025 14.3514667 6.87925833 16.9062833 7.68580833 14.98455"></polygon>
                            <path d="M5.03268333,13.7195667 L5.8050375,14.7845667 C6.09393333,15.18335 6.60805,15.3478333 7.07382083,15.19045 L7.68580833,14.9833667 C7.68580833,14.9833667 9.89320833,18.32155 11.2575042,18.5452 C14.241975,18.034 16.4434792,16.6506833 17.61675,15.7478 C18.2134083,15.2886667 18.4740042,14.5124 18.2865167,13.7811 L17.3372875,10.0749 C17.2181917,9.0241 17.5342083,8.40166667 19.095425,9.11758333 L22.2284708,11.14345 C22.9996458,11.6416333 23.9866083,11.6499167 24.7648583,11.1635667 L27.2422875,9.61576667 C27.967475,9.17911667 28.1596792,8.20878333 27.6549958,7.526 L25.9428458,5.2114 L26.5972833,4.58068333 C26.7871292,4.39845 26.8107125,4.10261667 26.6527042,3.89198333 L26.1680667,3.2447 C26.0183125,3.04471667 25.7482833,2.97963333 25.5254208,3.0885 L18.8713833,6.34385 L18.8088875,7.0006 C16.9564167,7.00296667 16.039025,8.0159 15.8326708,8.57325 L14.7171792,8.165 L5.51024583,12.0132 C4.8393,12.29365 4.60464583,13.1302667 5.03268333,13.7195667 L5.03268333,13.7195667 Z" fill="#4C4441"></path>
                            <path d="M9.53120417,23.8583667 C8.60202083,24.4038833 10.9485625,27.1137167 11.8777458,26.5682 C12.8069292,26.0226833 10.4603875,23.3116667 9.53120417,23.8583667 L9.53120417,23.8583667 Z" fill="#792323"></path>
                            <path d="M11.4603208,26.23095 C11.4603208,26.23095 9.51823333,27.8485667 8.6845625,26.5977833 C7.85089167,25.347 9.7175125,24.2749 9.7175125,24.2749 C10.5334958,24.4524 11.4202292,25.46415 11.4603208,26.23095 L11.4603208,26.23095 Z" fill="#F6C785"></path>
                        </g>
                        <path d="M69.1414833,27.6130833 L71.4231708,30.51935 C72.2426917,31.56305 73.6859917,31.87545 74.8616208,31.2636667 L78.2340375,29.5076 C78.8424875,29.19165 79.1408167,28.4863833 78.945075,27.8272667 L78.1739,25.2251167 C78.0265042,24.7293 77.6821875,24.3175 77.2211333,24.08675 L77.2211333,24.08675 C76.7140917,23.8335167 76.1233292,23.8122167 75.5997792,24.02995 L69.4032583,26.6037 C69.0047,26.7693667 68.8738125,27.2722833 69.1414833,27.6130833 L69.1414833,27.6130833 Z" id="Shape" fill="#382F2B"></path>
                        <path d="M81.7455958,22.9046 L84.8468042,25.2700833 L87.5529917,23.5376833 C88.397275,23.217 88.6779167,22.1591 88.1036625,21.45975 L86.5023542,19.50725 C86.1934125,19.1297667 85.6627875,19.0220833 85.2312125,19.2481 L81.4602375,21.2266333 C81.1005917,21.7757 81.2255833,22.5081833 81.7455958,22.9046 L81.7455958,22.9046 Z" id="Shape" fill="#382F2B"></path>
                        <g transform="translate(69.929167, 20.116667)" id="Shape" fill="#56504E">
                            <path d="M11.8918958,1.30048333 L16.6250708,4.06001667 L15.4836375,4.79131667 L12.7173125,2.87786667 C12.2232417,2.53588333 11.9178375,1.97971667 11.8954333,1.3774 L11.8918958,1.30048333 L11.8918958,1.30048333 Z"></path>
                            <path d="M3.18257083,5.29186667 L8.8579,8.875 C8.72583333,9.088 8.539525,9.26786667 8.30487083,9.38975 L7.55374167,9.78025 L1.77346667,5.92968333 L3.18257083,5.29186667 L3.18257083,5.29186667 Z"></path>
                            <path d="M13.3257625,0.568 L17.9186167,3.26363333 C17.8301792,3.32635 17.7311292,3.3796 17.623825,3.42101667 L17.0472125,3.79021667 C15.6251375,2.911 13.7997875,1.86966667 12.4472833,1.01648333 L13.3257625,0.568 L13.3257625,0.568 Z"></path>
                            <polygon points="1.21807917 6.18291667 6.954725 10.09265 6.49602917 10.3316833 0.7251875 6.40656667"></polygon>
                        </g>
                        <path d="M84.8503417,24.9068 L85.6356667,26.0996 C85.6356667,26.0996 86.614375,25.4830833 86.1851583,24.87485 C85.7547625,24.2666167 84.8503417,24.9068 84.8503417,24.9068 L84.8503417,24.9068 Z" id="Shape" fill="#F6C785"></path>
                        <path d="M83.4318042,24.8736667 C83.8728125,24.6145167 84.4305583,24.6145167 84.8503417,24.9068 C85.5118542,25.3659333 85.9163083,26.3978 85.4481792,27.1231833 C84.2572208,28.63075 82.1099583,28.9159333 81.5663625,28.7916833 C79.9544417,30.2613833 78.5547708,28.4236667 80.3070125,27.5527333 C81.0711125,26.3504667 82.7042583,25.3020333 83.4318042,24.8736667 L83.4318042,24.8736667 Z" id="Shape" fill="#F6C785"></path>
                        <path d="M41.7576958,67.1589 C49.9635167,70.006 59.4074625,68.83095 70.2970667,62.95215 C83.529675,58.1750333 88.9337958,64.5733167 88.9337958,64.5733167 C93.6528208,66.0773333 98.514525,65.9637333 103.379767,65.8039833 C98.2539292,67.95765 93.0420125,68.93035 87.6850583,67.8925667 C81.732625,69.4522 75.1823542,69.3445167 68.3125292,68.3446 C61.0465042,72.4495833 52.5388167,73.9843667 42.551275,72.4578667 C39.0161333,73.7559833 35.4774542,74.2458833 31.9305208,73.78675 C33.6061167,72.6566667 36.3417833,70.81185 41.7576958,67.1589 L41.7576958,67.1589 Z" id="Shape" fill="#A67C52" opacity="0.1"></path>
                        <path d="M62.8034625,55.31255 L68.6698167,54.9705667 C68.6698167,54.9705667 73.1624417,48.58175 77.5713458,45.46485 C71.4491125,48.848 66.3044083,52.1495 62.8034625,55.31255 L62.8034625,55.31255 Z" id="Shape" fill="#A67C52" opacity="0.1"></path>
                        <path d="M259.793867,82.7292 L264.262908,83.72675 L267.961954,89.1665333 L266.813446,83.9030667 C265.927892,82.4807 264.235788,81.7825333 262.608538,82.1671167 L259.793867,82.7292 L259.793867,82.7292 Z" id="Shape" fill="#A12E2F"></path>
                        <path d="M267.961954,89.1665333 C261.109817,86.6495833 254.328429,90.7652167 254.328429,90.7652167 L254.202258,90.7533833 C253.282508,90.667 253.005404,89.4410667 253.804879,88.9783833 C256.410838,87.472 262.837296,85.3656667 267.961954,89.1665333 L267.961954,89.1665333 Z" id="Shape" fill="#A12E2F"></path>
                        <polygon id="Shape" fill="#A67C52" opacity="0.1" points="220.467479 79.36025 220.203346 84.6343667 227.218208 85.84255"></polygon>
                    </g>
                    <polygon id="Shape" fill="#F17D7D" points="38.0527542 85.2295 37.2674292 85.58805 31.3892833 80.3435167 32.1911167 79.9778667"></polygon>
                    <polygon id="Shape" fill="#F17D7D" points="32.4823708 82.7516 32.1864 83.7870167 36.8217042 86.32645 37.2072917 85.4567"></polygon>
                    <polygon id="Shape" fill="#F17D7D" points="36.4502667 86.59625 37.4313333 87.6707167 33.7417208 88.5960833 33.4846625 87.9511667"></polygon>
                    <polygon id="Shape" fill="#F17D7D" points="38.1871792 79.088 40.2141667 83.5539 40.9994917 83.19535 38.7390292 79.2584"></polygon>
                    <polygon id="Shape" fill="#F17D7D" points="43.343675 77.91295 42.148 82.5113833 42.7411208 82.7326667 43.6750208 78.6418833"></polygon>
                    <polygon id="Shape" fill="#F17D7D" points="42.148 78.4075833 41.8602833 81.6463667 42.4534042 81.86765 42.8118708 78.35315"></polygon>
                    <g transform="translate(100.587500, 152.833333)">
                        <path d="M15.9619311,20.4800621 C8.55973856,19.248052 2.08942539,20.7002588 1.51008213,23.7236569 C0.930738876,26.7470549 6.46175105,30.1967448 13.8639436,31.428755 C21.2661361,32.6607651 27.7364493,31.2085583 28.3157926,28.1851602 C28.8951358,25.1617622 23.3641236,21.7120723 15.9619311,20.4800621 L15.9619311,20.4800621 Z" id="Oval" fill="#DB565D" opacity="0.5"></path>
                        <path d="M2.936125,18.0683167 C2.936125,26.63565 9.85665417,30.6933 18.3938208,30.6933 C26.9309875,30.6933 33.8515167,26.63565 33.8515167,18.0683167 C33.8515167,9.50098333 26.9309875,5.44333333 18.3938208,5.44333333 C9.85665417,5.44333333 2.936125,9.50098333 2.936125,18.0683167 L2.936125,18.0683167 Z" id="Shape" fill="#FF6666"></path>
                        <path d="M8.82488333,11.9930833 C11.0558667,10.0678 13.4861292,10.6807667 13.4861292,10.6807667 C13.4861292,10.6807667 15.7265458,13.774 16.350325,13.3894167 C18.048325,12.3421667 19.8654208,11.1730333 19.8654208,11.1730333 L24.5266667,12.6604833 L26.7352458,11.4191667 L31.3964917,13.5124833 C31.3964917,13.5124833 33.0815208,12.8155 31.7408083,10.94465 C28.9792,7.2207 25.0219167,5.98411667 20.3311917,5.08241667 C19.6968,5.01733333 18.0424292,4.98775 17.8667333,4.99366667 C14.6617583,5.43505 10.6066042,6.08943333 7.90749167,8.19103333 L8.82488333,11.9930833 L8.82488333,11.9930833 Z" id="Shape" fill="#F17D7D"></path>
                        <ellipse id="Oval" fill="#DB565D" cx="19.2416417" cy="7.34021667" rx="1.690925" ry="0.8023"></ellipse>
                        <path d="M19.038825,7.01361667 L16.6911042,6.035 C16.2241542,5.84093333 15.6958875,5.86105 15.2454458,6.0918 L14.7042083,6.3687 C14.5013917,6.47283333 14.4742708,6.75328333 14.6546833,6.8941 L14.6546833,6.8941 C14.7478375,6.96746667 14.8751875,6.98048333 14.9813125,6.92841667 L15.6947083,6.5817 C15.968275,6.44916667 16.2878292,6.45271667 16.5578583,6.59353333 L17.9162583,7.2988 L19.038825,7.01361667 L19.038825,7.01361667 Z" id="Shape" fill="#DB565D" opacity="0.5"></path>
                        <path d="M18.3926417,7.52363333 L16.03195,2.82225 L13.4896667,4.76883333 C12.9130542,4.76883333 12.3623833,4.0328 12.3623833,3.4009 L15.925825,0.949033333 C16.4588083,0.5822 17.19225,0.789283333 17.4563833,1.37976667 L20.156675,7.4053 C20.3795375,7.89875 18.7452125,8.10701667 18.3926417,7.52363333 L18.3926417,7.52363333 Z" id="Shape" fill="#DB565D"></path>
                        <polygon id="Shape" fill="#F17D7D" points="15.5367 11.3245 13.4366042 11.9232667 12.8163625 11.5398667 15.2985083 10.7257333"></polygon>
                        <polygon id="Shape" fill="#F17D7D" points="15.8244167 12.4794333 13.7243208 13.0782 13.4318875 12.5871167 15.586225 11.8806667"></polygon>
                    </g>
                </g>
            </g>
        </g>
    </g>
</svg>