<svg xmlns="http://www.w3.org/2000/svg" viewBox="0 0 1568.63 1691.96"><defs><style>.cls-1,.cls-26,.cls-36,.cls-45{opacity:0.5;}.cls-2{fill:#317dff;}.cls-13,.cls-3{fill:#1865f2;}.cls-4{fill:#111aa8;}.cls-5{fill:#1d28a1;}.cls-6{fill:#768cea;}.cls-7{fill:#7ea1fc;}.cls-39,.cls-43,.cls-46,.cls-50,.cls-51,.cls-52,.cls-66,.cls-69,.cls-70,.cls-74,.cls-77,.cls-78,.cls-8{fill:none;}.cls-9{fill:#a5a6f2;}.cls-10{fill:#221dc4;}.cls-11{fill:#7b5fff;}.cls-12{fill:#264ffc;}.cls-13,.cls-32{opacity:0.2;}.cls-14{fill:#736357;}.cls-15,.cls-45{fill:#564c45;}.cls-16{fill:#89796f;}.cls-17{fill:#f2f2f2;}.cls-18{fill:#e8e8e8;}.cls-19{fill:#f7d3a9;}.cls-20,.cls-24,.cls-28,.cls-73{fill:#9a0303;}.cls-20,.cls-23,.cls-30,.cls-78{opacity:0.05;}.cls-21,.cls-68{fill:#fff;}.cls-22{fill:#fde1b6;}.cls-25{fill:#0099b9;}.cls-26{fill:#00728e;}.cls-27{fill:#e65253;}.cls-28,.cls-47,.cls-68{opacity:0.1;}.cls-29{fill:#ffdbb5;}.cls-30,.cls-32,.cls-41{fill:#9c0301;}.cls-31{fill:#edad9c;}.cls-33{fill:#1cc6cf;}.cls-34{fill:#24dddd;}.cls-35{fill:#e3e5e5;}.cls-36,.cls-37{fill:#8b93a0;}.cls-38{fill:#ffc34a;}.cls-39{stroke:#f2b12f;}.cls-39,.cls-43,.cls-46,.cls-50,.cls-51,.cls-52,.cls-66,.cls-69,.cls-70,.cls-74,.cls-77{stroke-miterlimit:10;}.cls-39,.cls-46,.cls-52{stroke-width:1.22px;}.cls-39,.cls-52,.cls-66,.cls-69{stroke-dasharray:4.88;}.cls-40{fill:#fcd977;opacity:0.4;}.cls-42{fill:#ee7267;}.cls-43,.cls-50,.cls-51,.cls-77{stroke:#736357;}.cls-43{stroke-width:2px;}.cls-44{fill:#eead9f;opacity:0.3;}.cls-46{stroke:#d93a34;}.cls-48{fill:#a67c52;}.cls-49{fill:#ffe5cc;}.cls-50{stroke-width:2.56px;}.cls-51{stroke-width:2.38px;}.cls-52,.cls-69{stroke:#9a0303;}.cls-53{fill:#726159;}.cls-54{fill:#121b28;}.cls-55{fill:#516172;}.cls-56{fill:#5b4d45;}.cls-57{font-size:24px;fill:#f97e58;font-family:ARDESTINE, AR DESTINE;}.cls-58{fill:#fff4e6;}.cls-59{fill:#939190;}.cls-60{fill:#d6d5d4;}.cls-61{fill:#30302f;}.cls-62{fill:#061c2d;}.cls-63{fill:#262728;}.cls-64{fill:#8c2a1f;}.cls-65{fill:#f6c785;}.cls-66{stroke:#e59e51;stroke-width:0.75px;}.cls-67{fill:#191919;}.cls-70{stroke:#e5e8ea;}.cls-70,.cls-77{stroke-width:3px;}.cls-71{fill:#e2e1e0;}.cls-72{fill:#c63239;}.cls-73{opacity:0.25;}.cls-74{stroke:#e2e1e0;stroke-width:5px;}.cls-75{fill:#ba2b32;}.cls-76{fill:#bc3131;}.cls-77{stroke-linecap:round;}</style></defs><title>selfie_reyleros</title><g id="Layer_2" data-name="Layer 2"><g id="Layer_2-2" data-name="Layer 2"><g class="cls-1"><path class="cls-2" d="M367.78,1520.64S314.7,869.59,835.54,565l13.24-40.61S218,690.83,157.1,1520.64Z"/><path class="cls-3" d="M388.38,1237.83l-170.72-43.52c-30.07,95.33-51.55,203.57-60.56,326.33H367.78S357.93,1399.77,388.38,1237.83Z"/><path class="cls-3" d="M586.74,661.87l63.76,47A879.39,879.39,0,0,1,835.54,565l13.24-40.61S727.83,556.33,586.74,661.87Z"/><path class="cls-3" d="M446.46,789.34A1025.3,1025.3,0,0,0,313.81,972.47l136.47,49.28c24.11-60.77,55-122.44,94.54-182.05Z"/><path class="cls-4" d="M886.65,472.68s57.87-82.89,157.93-110.84c0,0-36.28,21.06-54.44,48.56,0,0,90.73-64.25,155.47-68.17,0,0-53.33,32.38-68.53,60.33,0,0,73.08-51.75,145-60.33,0,0-50.27,31.63-57.14,49.78,0,0,62-42.42,169.94-46.35,0,0-86.57,30.65-114,50.76,0,0,69.89-33.11,169.45-27.71,0,0-70.14,27-93.68,37.27,0,0,89.51-17.17,150.82-2.94,0,0-49.41,10.67-91.72,25,0,0,72,7.39,134.54,31.66,0,0-69.39,2.57-80.42,7,0,0-2.54-16.71,90.89,52.81,38,28.26,67.85,65.49,67.85,65.49s-73.57-40.34-137.89-60.58c0,0,41.76,44.88,70.21,121.4,0,0-101-121.63-151.06-138.31,0,0,46.1,47.08,64.74,98.09,0,0-92.21-87.3-111.82-102,0,0,36.29,49,41.2,77.49,0,0-97.11-93.19-122.61-101,0,0,47.08,42.36,61.8,79.05,0,0-104-81-119.67-84,0,0,47.33,43.16,66.82,73.57,0,0-89.39-66.7-126.66-73.57,0,0,31.18,23,46.49,49.28,0,0-80.82-49.28-110.25-49.28,0,0,39.24,14.21,55.91,49.28,0,0-57.87-38.49-94.17-42.42,0,0,25.5,17.66,38.26,37.27,0,0-117-22.23-144.81-14.55Z"/><path class="cls-4" d="M879.8,460.87s24.43-96.07-18.94-188.24c0,0,7.62,40.42-1.15,71.52,0,0-10.46-108.51-49-159.08,0,0,10.14,60.32-.86,89.52,0,0-8.43-87.4-48.17-146.31,0,0,8.74,57.58-.33,74.31,0,0-8.27-73.23-74.51-155.83,0,0,32.72,83.89,35.4,117.16,0,0-20.22-73.09-88-143.52,0,0,24.92,69.34,32.37,93.41,0,0-44.62-77.43-94.46-113.82,0,0,23.75,43.51,40.21,84.1,0,0-51.63-48.7-109.71-79.56,0,0,42.56,53.15,46.35,64.16,0,0,14-8.82-97.44-33.61C406.18,25,359.41,26.7,359.41,26.7s77.09,28.75,133.32,63.52c0,0-60.07-2.23-135.09,25.69,0,0,155-3,199.45,23.48,0,0-64.49-4-114.29,14.81,0,0,123.88,12.49,147.37,17.62,0,0-59.66,4.49-83.91,19.08,0,0,131.39,12.36,153.56,26.26,0,0-61.61-7.8-98.27,4.79,0,0,126.76,25.25,139,35,0,0-62.36-7.47-97.42-2.45,0,0,106.79,23.6,135.77,46.86,0,0-37.08-8.38-66.37-2.92,0,0,88.37,28.4,107.23,50.24,0,0-35.69-20-72.41-9.91,0,0,65.66,18.28,91.83,42.71,0,0-29.45-7.61-52.18-4.51,0,0,91.46,72.58,103.6,98.15Z"/><path class="cls-5" d="M1005.59,705.65S1022,629,1001.47,566.76c0,0,22.75,11.37,54.14,157.53,0,0,11.2-61.8,1-139.29,0,0,36.29,73.57,32.37,161.85,0,0,31.39-62.78,12.75-168.72,0,0,40.22,104,29.43,217.76,0,0,26.48-83.38,17.66-154,0,0,38.26,124.58,34.33,182.45,0,0,32.37-62.78,4.9-186.37,0,0,49,123.6,42.18,221.69,0,0,21.58-68.66,13.73-159.89,0,0,43.16,123.6,28.45,190.3,0,0,34.82-50,26-132.42,0,0,18.64,146.16,22.56,160.87,0,0,7.36-81.42,7.36-108.88,0,0,10.3,86.32,66.7,181.47,0,0-24.52-79.45-29.43-163.81,0,0,35.4,71.59,44.22,118.67,0,0,5.07-136.11-65.55-239.11S1117,455.76,890.45,497.2c0,0,72.47,112.32,57.27,168.23,0,0,25.5-48.06,23.05-78.47C970.77,587,1005.59,678.18,1005.59,705.65Z"/><path class="cls-5" d="M610.45,589.53S643,518.25,696.72,480.6c0,0-25-4.47-137.52,94,0,0,27.94-56.25,82.42-112.3,0,0-73.05,37.32-122.64,110.47,0,0,12.33-69.1,90.55-142.93,0,0-94.36,59.37-153.68,157.07,0,0,28.56-82.69,77.83-134.06,0,0-105.09,77.06-136.52,125.82,0,0,11.54-69.68,107.39-152.4,0,0-113.16,69.83-166.25,152.6,0,0,23.71-68,84.49-136.43,0,0-108.44,73.34-136.49,135.62,0,0,2-60.92,58.25-121.73,0,0-102.25,106.08-114.19,115.54,0,0,42.73-69.69,59.14-91.72,0,0-59.82,63.08-161.89,105.69,0,0,67.13-49.07,121.45-113.8,0,0-71.15,36.27-106.35,68.75,0,0,77.23-112.19,195.4-152.61s332.21-65.64,489.18,102.94c0,0-125.22,46.79-146.42,100.71,0,0,8.26-53.78,28.39-76.7C709.28,515.14,626.86,567.5,610.45,589.53Z"/><circle class="cls-6" cx="890.45" cy="559.09" r="61.89"/><circle class="cls-7" cx="790.3" cy="544.65" r="69.52"/><circle class="cls-3" cx="859.82" cy="454.9" r="69.52"/><circle class="cls-5" cx="148.82" cy="1529.45" r="148.78" transform="translate(-400.35 94.26) rotate(-15.38)"/><path class="cls-8" d="M96.28,1417.2c-31,49.94-39.63,127.57-17.63,207.52a347.69,347.69,0,0,0,14.82,42.83,149,149,0,0,0,127.94-8.2,338.41,338.41,0,0,0-12.07-77.43C188.5,1506.2,145.16,1446.29,96.28,1417.2Z"/><path class="cls-3" d="M96.28,1417.2c8.74-14.05,19.24-25.92,31.36-35a150.23,150.23,0,0,0-18.28,3.83,148.73,148.73,0,0,0-40.94,18.22A146.49,146.49,0,0,1,96.28,1417.2Z"/><path class="cls-3" d="M193.56,1671.33c1-.31,1.95-.62,2.92-.95l1.24-.43q1.47-.51,2.93-1l1-.39q1.72-.65,3.41-1.34l.45-.18a148.77,148.77,0,0,0,15.86-7.65,338.41,338.41,0,0,0-12.07-77.43c-20.83-75.72-64.18-135.62-113.07-164.71-31,49.94-39.62,127.57-17.63,207.51a347.69,347.69,0,0,0,14.82,42.83h0q1.32.53,2.65,1l.21.08q6.73,2.54,13.7,4.44l.36.1,2.55.66.45.11,2.61.62h0q4.12.94,8.3,1.63l.59.1,2.3.36.92.13,2.22.3,1,.12,2.25.26.59.06q2.3.23,4.61.38l.93.07,2,.1,1.37.06,1.87.06,1.52,0,1.79,0h1.66l1.68,0q1.57,0,3.14-.09l1.36-.07,2-.11,1.51-.11,1.93-.15,1.49-.14,2-.21,1.39-.16,2.47-.32.93-.12q1.68-.24,3.37-.52l1-.18,2.4-.44,1.27-.25,2.22-.46,1.27-.28,2.36-.55,1.09-.26c1.14-.29,2.29-.58,3.43-.9q2.06-.57,4.09-1.19Z"/><circle class="cls-8" cx="148.82" cy="1529.45" r="148.78" transform="translate(-400.35 94.26) rotate(-15.38)"/><ellipse class="cls-9" cx="96.96" cy="1419.17" rx="24.78" ry="11.43" transform="translate(-484.17 120.81) rotate(-20.2)"/><path class="cls-5" d="M1310.74,1540.41s19.25-13.15,40.39,18.31c0,0,13.62-12.68,37.1,7.51s24,33.34,40.39,34.28l-130.08,2.35Z"/><rect class="cls-10" x="1244.28" y="1345.39" width="7.09" height="103.45" transform="translate(-12.44 11.21) rotate(-0.51)"/><polygon class="cls-11" points="1195 1373.65 1243.81 1345.43 1244.14 1382.08 1195 1373.65"/><path class="cls-3" d="M1195,1613.28s-10.66-163.92-6.82-189.8c.87-5.85,13.93-6.1,22.2-6a3.7,3.7,0,0,1,3.7,3.52l.73,19.07s14.48,2.5,21.14-.94l-.43-19.33a2.77,2.77,0,0,1,2.74-2.8l19.15-.42a2.77,2.77,0,0,1,2.86,2.68l.43,19.33s21.44,1.88,22.83-.5l-.32-19.49a2.86,2.86,0,0,1,2.61-2.87c6-.58,20.44-1.47,22.43,2.92,2.53,5.58,6.2,193.47,6.2,193.47Z"/><path class="cls-12" d="M1140.14,1470.91s121.76-1.41,123.64,6.42,7,134.78,7,134.78l-151.68,2.35,3.29-143.58Z"/><path class="cls-10" d="M1206.18,1524.75h0a24.11,24.11,0,0,1,24.11,24.11v63.24a0,0,0,0,1,0,0h-48.21a0,0,0,0,1,0,0v-63.24A24.11,24.11,0,0,1,1206.18,1524.75Z"/><path class="cls-5" d="M1206.18,1524.75h0a24,24,0,0,0-14.54,4.88,24.11,24.11,0,0,1,19.2,23.61v58.86h19.45v-63.24A24.11,24.11,0,0,0,1206.18,1524.75Z"/><rect class="cls-10" x="1075.62" y="1345.36" width="7.51" height="109.58"/><polygon class="cls-11" points="1023.65 1374.79 1075.62 1345.36 1075.62 1384.18 1023.65 1374.79"/><path class="cls-2" d="M1018.65,1580.17s-1.31-130.38,3-156.17c1-5.83,13.74-5.79,21.81-5.52a3.66,3.66,0,0,1,3.54,3.6l.3,19.08s14.09,2.82,20.66-.47v-19.33a2.74,2.74,0,0,1,2.74-2.74h18.71a2.74,2.74,0,0,1,2.74,2.74v19.33s20.9,2.35,22.31,0l.1-19.49a2.83,2.83,0,0,1,2.62-2.81c5.91-.45,20-1,21.84,3.42,2.35,5.64,1.14,190.29,1.14,190.29"/><path class="cls-5" d="M1131.71,1619c-32.93,7.26-104.32,17.44-186.62-5.06,0,0-9.81-43.2,26.7-40.86,0,0,26.16-41.8,75.2,0,0,0,6.6-24.21,28.34-5.48,15.26,13.15,21.8,21,21.8,21,6.54-3.29,6.56-16.34,35.44,17.47l18.51,7.89"/></g><path class="cls-13" d="M943.73,1636.87c-45.38,0-84.71,6.12-104,15-19.3-8.93-58.62-15-104-15a445.55,445.55,0,0,0-54.39,3.17c-20.08-3.86-45.69-6.17-73.6-6.17-45.38,0-84.71,6.12-104,15-19.3-8.93-58.62-15-104-15-64.44,0-116.68,12.33-116.68,27.54S335.27,1689,399.72,1689c45.38,0,84.71-6.12,104-15,19.3,8.93,58.62,15,104,15a445.55,445.55,0,0,0,54.39-3.17c20.08,3.86,45.69,6.17,73.6,6.17,45.38,0,84.71-6.12,104-15,19.3,8.93,58.62,15,104,15,64.44,0,116.68-12.33,116.68-27.54S1008.17,1636.87,943.73,1636.87Z"/><path class="cls-14" d="M971.27,1176.07c39.69,12.75,73.09,19.65,114.7,17,27.67-1.77,69.37-6.87,96.18-50.07,0,0,48.5,43.66,59.92,82.32,0,0-105.43,112.76-272.25,21.4Z"/><g class="cls-1"><path class="cls-15" d="M1229.57,1198.82c-7.7,7.85-106.17,103.46-259.34,27.37l-.42,20.52c166.82,91.36,272.25-21.4,272.25-21.4C1239.47,1216.55,1235,1207.53,1229.57,1198.82Z"/></g><path class="cls-16" d="M970.86,1196.14c124.48,55.36,210.65-2.4,238-25.32a325.24,325.24,0,0,0-26.66-27.82c-26.81,43.2-68.51,48.31-96.18,50.07-41.61,2.66-75-4.25-114.7-17Z"/><path class="cls-17" d="M309.06,1194.29s14.72,178.27-36.31,375.08c0,0,250.27,68.9,423-23.17,0,0-59.87-314.33-31.9-395.22l-92.23,11.26Z"/><path class="cls-18" d="M663.85,1151c-28,80.88,13.69,404.2,13.69,404.2-112.91,50.44-239.35,42.69-327.1,29.62-47.14-7-77.7-15.43-77.7-15.43,51-196.81,36.31-375.08,36.31-375.08Z"/><path class="cls-19" d="M588,1232s124.15,10,277.76,65.68c0,0-123.1-199.19-286.1-148.12Z"/><path class="cls-14" d="M694.51,1189.1s-80.83,50.32-108.6,44.68,9.72,97.39,9.72,97.39l134.49-68S703.15,1183.57,694.51,1189.1Z"/><path class="cls-16" d="M694.51,1189.1s-80.83,50.32-108.6,44.68c-12.59-2.56-10.94,11-6.28,33.36,40.28,1.32,116.75-44.51,128.4-60.34C702.59,1195.32,697.47,1187.21,694.51,1189.1Z"/><g class="cls-1"><path class="cls-15" d="M730.12,1263.15s-5.18-15.28-11.73-32c1.09,3.12,1.73,5,1.73,5s-50.23,49.49-133.3,68.13c4.57,15.24,8.81,26.89,8.81,26.89Z"/></g><path class="cls-20" d="M558.28,1190.17l62.85,2.9s61.55-31.21,85.23-29.32l1-6.61s-19.72-9.18-32.38-12c0,0-31-8.84-52.33-3.5C622.63,1141.64,561.94,1175,558.28,1190.17Z"/><path class="cls-21" d="M565.54,1179.92l48.22,2s54.32-29.53,88.34-27.5l-53.16-18.85,3.95-20.9H617.23l-3,36.78Z"/><path class="cls-22" d="M1010.7,1083.22s18.78,1.5,15.86,18.75c-5.29,18.91-29.51,9.63-29.51,9.63C993.41,1098.32,997.77,1088.76,1010.7,1083.22Z"/><g class="cls-23"><path class="cls-24" d="M1026.56,1102c-5.29,18.91-29.51,9.63-29.51,9.63a31.42,31.42,0,0,1-1.22-9S1015.48,1109.3,1026.56,1102Z"/></g><path class="cls-25" d="M813.62,1521l-45.78,139.34s-51.28,24.71-66.92-6.67l21.51-239.28c143,40.54,246.54-10.87,246.54-10.87l17.7,245.29s1.81,32.59-70.09,10.84l-27.85-142.16Z"/><path class="cls-26" d="M934.66,1664.34c-5.44-1.15-11.44-2.69-18.08-4.7l-27.85-142.16L813.62,1521l103-27.19L907,1508.52Z"/><path class="cls-26" d="M722.43,1414.38l-21.51,239.28A26.68,26.68,0,0,0,713,1666l26.44-191.35S820.16,1483,902,1465.5l-.18,18.47c32.54-7,51.83-20.9,70.82-29.83L969,1403.51S889,1434,833.26,1430A903.91,903.91,0,0,1,722.43,1414.38Z"/><path class="cls-27" d="M771.47,1208.28c79.4,32.57,104.13,27,163.82-22.79l22.84,244.64s-62,50.12-176.5,17.06Z"/><path class="cls-28" d="M886.78,1219.43c14.58-7.11,29.83-18.36,48.51-33.94l22.84,244.64s-18.71,19.57-67,25.69Z"/><path class="cls-29" d="M760.19,1175.05l11.28,33.23c79.4,32.57,104.13,27,163.82-22.79l-28.92-74.72Z"/><path class="cls-30" d="M762.86,1162.46l11.28,33.23c79.4,32.57,104.13,27,163.82-22.79L909,1098.19Z"/><path class="cls-31" d="M847.06,1197.66l1.86,13.58c14-5.2,19.36,11.28,5.56,17.14,6.5-10.63.81-16.77-8.18-12.63l-4.23-17.54Z"/><ellipse class="cls-27" cx="833.26" cy="1000.4" rx="203.36" ry="200.31"/><path class="cls-32" d="M866.4,1151.45c-112.31,0-203.36-89.68-203.36-200.31a197,197,0,0,1,19-84.71,197.89,197.89,0,0,0-52.18,134c0,110.63,91,200.31,203.36,200.31,81.57,0,151.91-47.31,184.31-115.59A204.21,204.21,0,0,1,866.4,1151.45Z"/><path class="cls-33" d="M998.55,822.68c12.6,33.58,26.47,109,26.47,109-77.49-95.72-302.36,97.4-397.11,48.18,0,0,11.79-82.6,31.09-137.24,18.24-23.37,149.5-96.14,209.44-88.32C915,764.22,962.07,795,987.72,809.82A24.92,24.92,0,0,1,998.55,822.68Z"/><path class="cls-34" d="M868.45,754.31c69,32.79,78.3,132.1,78.3,132.1L778.47,920.78c-1.5-43.06-34.85-40.66-38.22-68.64,2.31-29.66,97-9.52,111.51-32.7s-64.68-45.86-38.51-58C813.25,761.45,845.4,747.1,868.45,754.31Z"/><path class="cls-35" d="M982.16,1435.26s10.3,21.77,12.26,37c6.28,13.19-10.38,14.29-14.53,5.56a41.83,41.83,0,0,1-16.57-1.57l-8.51-29.62Z"/><path class="cls-36" d="M959.67,1463.54l-4.86-16.93,27.35-11.35s4.69,10.23,5.77,13.78C990.15,1456.33,959.67,1463.54,959.67,1463.54Z"/><path class="cls-35" d="M715.49,1437.18l-9.88,58c-5,13.93,8.89,12.17,11.72,7.23,8.43,5.86,17.58,2.93,27-3.47l15.39-43.77Z"/><g class="cls-1"><path class="cls-37" d="M715.49,1437.18l-9.88,58c-2.5,7-.28,10,2.92,10.69l10.07-34.36,33.63,5,7.49-21.3Z"/></g><path class="cls-38" d="M1041.15,1022c-16.82-39.79-36.66-59.84-58.58-64.57,2-25.54-21.3-17.51-18.94-.45-18.6,2.86-38.39,14.91-58.87,33.82,4.41-22.07,6.27-45.31,5.44-64.16l8.07,37.7,22.88-12.54c1.23-53.12-5.92-91.18-24.32-140.48-8.73-.28-53.33.59-52.51,2.42,16.64,37.3,21.27,83.85,21,134.15-9.63-24.24-19.86-47.22-31.23-67.85-11.56-21-24.29-39.52-38.75-54.46L751.53,853c32.22,28.52,54,70.62,70.83,119.15l25.19,7.36s.18-20.59-4-39C857.53,956,864.9,980,868.74,1000.79c-51.5-11.65-80.38-29.26-107.35-23.89-40.92,8.15-61.5,41.81-69.92,92l19.75-3c23.53,14.15,45,22,65.42,22.87-.8,10.15,20.57,11.39,19-1.19,25.6-4.45,50.11-20.53,75.86-49.37l8.68,13.7,16.37-6.63,21.26-8.61a19.48,19.48,0,0,1-4.87-12.5c20.93,12.13,41.46,23.48,60.36,27.11-.46,5.84-1.6,12.73.88,15.92,3.91,3,15.82,4.72,20.32-1.11,2.08-2.7.78-9.83,1.16-14.72,11-2.45,21.14-9.13,30.12-21.8C1036.8,1031.53,1042.46,1030.56,1041.15,1022Z"/><path class="cls-39" d="M1022.82,1027.46l1.34-1.89,2.28.41a35.87,35.87,0,0,0,8.29.75,4.05,4.05,0,0,0,2.58-.78c.14-.17.54-.87.28-3-15.5-36.48-34.27-57.33-55.79-62l-3.13-.67.25-3.19c.6-7.63-1.37-10.5-2.24-11.38a3.18,3.18,0,0,0-2.62-1,7,7,0,0,0-4.58,2.75,11.41,11.41,0,0,0-2.22,8.95l.49,3.57-3.57.55c-17,2.61-36.13,13.67-56.94,32.89l-8.28,7.65,2.21-11.06c4.25-21.26,6.2-44.32,5.38-63.28l7.24-.93,7,32.89,16.71-9.16c.94-49.34-5.44-86.3-23.27-134.66-8.84-.07-30.7.36-42.09,1.19-1.09.08-2,.16-2.75.23C883,849,889.28,891,889,947.9l-.09,18.9-7-17.57c-10.64-26.8-20.79-48.85-31-67.43-11.73-21.29-23.67-38.28-36.44-51.86l-56.3,24.15c27.19,25.73,48.6,62.5,67,115l18.62,5.44c-.21-7.1-1-20.79-3.8-33.29l-3.09-13.72L846.31,938c15.15,16.9,22.52,43.1,26,62.1l1,5.46-5.42-1.22c-19.32-4.37-35.34-9.52-49.47-14.07-20.21-6.5-36.17-11.64-50.56-10.58a47.77,47.77,0,0,0-5.8.78c-19,3.78-33.67,13.19-44.89,28.79-9.86,13.7-16.83,31.81-21.24,55.25l14.71-2.23,1.31-.2,1.13.68c23.57,14.17,44.4,21.48,63.69,22.35l3.78.17-.3,3.78a2.54,2.54,0,0,0,.8,2.15,8.14,8.14,0,0,0,6.06,1.81,5.91,5.91,0,0,0,4.16-1.76,4.05,4.05,0,0,0,.7-3.22l-.43-3.46,3.44-.6c24.46-4.25,48.59-20,73.76-48.21l3.23-3.62,2.6,4.1,7,11.11,13.54-5.49,17-6.89a23.3,23.3,0,0,1-2.89-10.69l-.25-6.64,5.75,3.33c20.82,12.07,41,23.19,59.22,26.68l3.22.62-.26,3.27c-.07.9-.16,1.82-.24,2.75-.32,3.37-.78,8.33.14,10.26a17.52,17.52,0,0,0,8.94,1.67c1.57-.12,4.42-.58,5.82-2.39.58-.91.46-4.71.39-7a54.16,54.16,0,0,1,0-5.79l.21-2.7,2.64-.59C1005.67,1045.4,1014.81,1038.75,1022.82,1027.46Z"/><path class="cls-40" d="M854.13,880c-11.56-21-24.29-39.52-38.75-54.46L751.53,853c32.22,28.52,54,70.62,70.83,119.15l25.19,7.36s.18-20.59-4-39C857.53,956,864.9,980,868.74,1000.79c-51.5-11.65-80.38-29.26-107.35-23.89-40.92,8.15-61.5,41.81-69.92,92l19.75-3c23.53,14.15,45,22,65.42,22.87-.8,10.15,20.57,11.39,19-1.19,25.6-4.45,50.11-20.53,75.86-49.37l8.68,13.7,16.37-6.63-11.2-97.41Z"/><path class="cls-34" d="M703.84,810.06c20.28-11.68,66.74-33.12,72.24-35.59-1.93,16.32,68.81,32.38,52.39,44.36C806.32,834.57,741.55,801,703.84,810.06Z"/><path class="cls-34" d="M675.08,891.48c19.66-61.27,99.6,23.15,81,39.06L683.4,971.87S673.3,931.64,675.08,891.48Z"/><path class="cls-34" d="M1005.54,844.74c4.91,14.58,16.21,70,16.21,70l-36.9-18.21c11.53-10.45,3.95-41.89,5.6-55.38C991.44,833.11,1000.71,831.49,1005.54,844.74Z"/><path class="cls-34" d="M924.43,774.47s47.34,24.4,63.29,35.35c-24.92-2.17-5.47,36.5-21.43,42.05C945.63,847.34,953.53,804.7,924.43,774.47Z"/><path class="cls-26" d="M659,842.63c26.62-27.65,6.49,65.51,24.4,129.24l-17.91,19.52-37.58-11.52C632.72,947.3,645.38,877.64,659,842.63Z"/><path class="cls-41" d="M679,1093.76c8.58,10.39,10,25.76,6.4,28.71s-13.43-3.07-22-13.46-12.63-21.21-9.05-24.16S670.39,1083.37,679,1093.76Z"/><path class="cls-22" d="M655.61,1087.9c16.17-6,31.49,18.68,28,34,0,0-21.22,11.92-35.61-3.72C635.41,1100.74,655.61,1087.9,655.61,1087.9Z"/><g class="cls-23"><path class="cls-24" d="M648,1118.23c14.39,15.64,35.61,3.72,35.61,3.72a25.81,25.81,0,0,0-.36-11.7S671.63,1124.64,648,1118.23Z"/></g><path class="cls-42" d="M826.46,1213.85s28.47,143.66,10.84,262.23c0,0-83.67,5.9-128.09-30,0,0,36.57-220.52-20.43-253.5l20.86-13.44Z"/><path class="cls-28" d="M826.46,1213.85l-116.83-34.71-20.86,13.44c57,33,20.43,253.5,20.43,253.5a110.49,110.49,0,0,0,29.29,16.48s11.2-91.7,5.33-160.81c0,0,44-.85,57-15,0,0-40,6-49.1-3.06L749.72,1260s39.09.07,51-7c0,0-46.83-21.63-52.7-28.09,0,0-4.73-17-11.14-20.79C736.88,1204.14,782.13,1222.63,826.46,1213.85Z"/><path class="cls-43" d="M826.46,1213.85s28.47,143.66,10.84,262.23"/><path class="cls-42" d="M899.2,1206.88S911,1319,905.58,1477.35c0,0,63.89-20.76,81.28-48,0,0-16.21-140.49-8.8-254.19l-12.52-8.47Z"/><path class="cls-44" d="M986.85,1429.39s-16.21-140.49-8.8-254.19l-12.52-8.47-66.34,40.14s61.93,47.25,79.1,232.45C978.3,1439.33,985.9,1431.31,986.85,1429.39Z"/><path class="cls-43" d="M899.2,1206.88S911,1319,905.58,1477.35"/><path class="cls-14" d="M898.16,1207.88c20.93-29.35,48.53-46.92,75.26-67.07,3.37,11.47,4.89,19.54-2.07,26.49C941.89,1191.16,931.64,1198.51,898.16,1207.88Z"/><path class="cls-45" d="M971.36,1167.3l.52-17.74a185.37,185.37,0,0,0-53.59,51.87C937.76,1193.42,955.33,1181.81,971.36,1167.3Z"/><path class="cls-14" d="M841.12,1442s-2.16,22.92-3.82,34.12c0,0-83.67,5.9-128.09-30,0,0,1.74-10.29,3.32-20.69C712.53,1425.39,772.89,1452.59,841.12,1442Z"/><path class="cls-14" d="M984.91,1410.6l1.95,18.79c-17.38,27.2-81.28,48-81.28,48,.45-13.06.7-22.92.93-35.32C906.5,1442,951.61,1434.62,984.91,1410.6Z"/><path class="cls-22" d="M918.52,1002.91c-4.16,4.61-3.78,8.59,1.9,11.85,24.79,25.63,52.42,15.25,80.53-1.25,5,2.28,6.58-.29,7.1-4.31C995.06,978.8,977,956.91,918.52,1002.91Z"/><path class="cls-46" d="M918.52,1002.91c-4.16,4.61-3.78,8.59,1.9,11.85,24.79,25.63,52.42,15.25,80.53-1.25,5,2.28,6.58-.29,7.1-4.31C995.06,978.8,977,956.91,918.52,1002.91Z"/><g class="cls-47"><path class="cls-48" d="M932.63,1004.06c-2.1,4.51,2.92,4.43,5.28,7.51,8.41,11,28.33,9,34.73,1.53l-35.3-9.39Z"/></g><path class="cls-49" d="M932.12,1007l3.06,2c12.73,16.06,39.9,12.19,45.88-9.79C967.91,991,957.16,990.64,932.12,1007Z"/><path class="cls-48" d="M930.52,1004.57c29.63-20.73,40.93-13.78,52.21-6.62a.84.84,0,0,1-.63,1.53,8.12,8.12,0,0,1-1-.28c-16.82-6-25.27-7.16-48.94,7.77a1.44,1.44,0,0,1-2.21-1.27h0A1.45,1.45,0,0,1,930.52,1004.57Z"/><circle class="cls-48" cx="963.5" cy="1002.73" r="13.73" transform="translate(-71.94 1930.99) rotate(-88.02)"/><circle class="cls-14" cx="963.5" cy="1002.73" r="7.92" transform="translate(-71.94 1930.99) rotate(-88.02)"/><circle class="cls-22" cx="971.25" cy="993.67" r="5.81" transform="translate(-55.41 1929.99) rotate(-88.02)"/><circle class="cls-19" cx="957.57" cy="1000.4" r="3.02" transform="matrix(0.03, -1, 1, 0.03, -75.33, 1922.82)"/><path class="cls-22" d="M840.61,1009.95c20.66-7.85,30.16,14.58-.6,23.95-47,38.69-75.23,25.88-100.71,5.7l-5-.54C754.11,1002.23,780.88,977.52,840.61,1009.95Z"/><path class="cls-46" d="M840.61,1009.95c20.66-7.85,30.16,14.58-.6,23.95-47,38.69-75.23,25.88-100.71,5.7l-5-.54C754.11,1002.23,780.88,977.52,840.61,1009.95Z"/><path class="cls-49" d="M767.39,1022.1c4,19.62,42.47,35.7,58.59,4.57l6.48-4.59C810.61,1007.38,792.33,1007.28,767.39,1022.1Z"/><path class="cls-48" d="M832.46,1022.08h0a2.21,2.21,0,0,1-3.17.45c-18.24-14.26-39.95-12.09-64.07,1.5-.63.36-1.46-.53-.9-1,29.38-20.4,49.95-15.93,67.56-4.07A2.21,2.21,0,0,1,832.46,1022.08Z"/><circle class="cls-48" cx="805.38" cy="1022.08" r="16.62" transform="translate(-28.88 23.43) rotate(-1.64)"/><circle class="cls-14" cx="805.38" cy="1022.08" r="9.58" transform="translate(-28.88 23.43) rotate(-1.64)"/><circle class="cls-22" cx="814.06" cy="1010.54" r="7.03" transform="translate(-28.54 23.67) rotate(-1.64)"/><circle class="cls-19" cx="797.95" cy="1021.1" r="3.3" transform="translate(-28.85 23.22) rotate(-1.64)"/><polygon class="cls-14" points="719.74 1185.11 718.4 1191.67 700.09 1203.01 704.26 1209.7 723.2 1194.71 726.33 1183.67 719.74 1185.11"/><path class="cls-14" d="M826.46,1213.85c-35.31-27.95-77.56-40.75-119.11-56.7-2.38,13.94-2.87,23.52,8.3,29.62C761.8,1206.23,777.65,1211.92,826.46,1213.85Z"/><path class="cls-45" d="M715.65,1186.77l-4.35-20.06c27.82,8.54,58.71,22.53,85.66,45.06A270.78,270.78,0,0,1,715.65,1186.77Z"/><path class="cls-50" d="M748.22,1243.6l3.73,40.65c23.64,9.81,48.78,1.87,48.78,1.87l-1.56-46.31Z"/><path class="cls-14" d="M800.17,1223.83,748,1224.93l-6,25.69c19,3.28,38.32,5.11,58.81,1.62Z"/><path class="cls-51" d="M920,1230.84l5,39.22s21.37,5.93,39.11-3.92l-1-37Z"/><path class="cls-14" d="M915.88,1215.94l3.23,19.17c6.13,1,31.94.95,50.7-4.74l-11.34-20.72Z"/><path class="cls-52" d="M825.57,1197.07c-8.1,0-16.51-.37-25-1.09l-2.12-.18-1-1.86c-.6-1.07-14.17-25.85-13.57-59.33-7.21-2.07-20.55-8.77-20.8-25.87a28.53,28.53,0,0,1,5.05-16.69c-17.83-2.32-36.81-9.55-57.71-22l-23.79,3.61.91-5.44c9.42-56.2,33.33-87.37,73.08-95.28a56.64,56.64,0,0,1,11.19-1.07c14.55,0,29.76,4.9,49,11.09,12.47,4,26.44,8.51,42.79,12.48-2.59-12.08-6.73-26.13-13.27-38.24a211.38,211.38,0,0,1,1.23,22.27l0,5.29-32.25-9.42-.68-2c-19-54.91-41.19-92.23-69.7-117.47l-4.73-4.18,72.18-31,1.92,2c13.91,14.36,26.79,32.46,39.38,55.31a538.6,538.6,0,0,1,23.51,49c-1.25-47.6-7.86-83.46-20.48-111.74a4.11,4.11,0,0,1,.31-3.93c1.27-2,1.79-2.76,22.21-3.57,10.57-.42,22.4-.61,28.91-.61,2.12,0,3.75,0,4.87.05l2.68.09.94,2.51c19.12,51.22,25.78,89.7,24.57,142l-.05,2.31-29.61,16.23-2.25-10.49c-.61,6.73-1.46,13.55-2.53,20.3,17.33-14.47,33.69-23.38,48.77-26.57a18.63,18.63,0,0,1,4.44-11.44,14.07,14.07,0,0,1,10.42-5.13,10.9,10.9,0,0,1,8.07,3.57c2,2.18,4.25,6.27,4.27,13.66,22.79,6.48,42.34,28.69,58.15,66.1l.19.46.08.5c.63,4.14,0,7.28-2,9.58s-5.11,3.47-9.5,3.47h0a41.71,41.71,0,0,1-6-.51c-8.06,10.68-17.25,17.44-28,20.58,0,.69,0,1.4.06,2.14.15,4.61.28,9-2,11.91-2.7,3.49-7.36,5.42-13.12,5.42-4.93,0-9.95-1.4-12.79-3.58l-.41-.31-.32-.41c-2.94-3.77-2.55-9.53-2-15.21-15.66-3.71-32.22-12.12-49.23-21.75q.49.68,1.06,1.35l3.66,4.23-45.92,18.6-7.66-12.08c-15.38,16.63-29.45,27.88-44.33,35.22,4.45.11,9.25.18,14.28.18,30.56,0,72.2-2.6,97-15a26.22,26.22,0,0,1,3-1.25,21.25,21.25,0,0,1,23.61,6.59c3.68,4.4,3.87,13.22,3.87,14.95a23.79,23.79,0,0,1-19.13,23.15c.34,7.26,1.6,23.95,6.28,37.9l.69,2.06-1.35,1.7c-.39.49-9.7,12.06-30.4,23.62C905.53,1184.5,873,1197.07,825.57,1197.07Z"/><polygon class="cls-14" points="915.88 921.71 919.42 972.04 1019.2 965.06 1017.35 939.88 915.88 921.71"/><polygon class="cls-14" points="832.72 936.57 838.49 983.59 728.62 1007.52 727.89 965.25 832.72 936.57"/><path class="cls-22" d="M964.32,1082.52a14.75,14.75,0,0,0-3.67-9.57,17.58,17.58,0,0,0-19.48-5.19,22.06,22.06,0,0,0-2.54,1.06c-45.25,22.6-146.35,12.86-149.28,12.86-12.31,0-22.49,10.75-22.29,24,.29,19.8,20.85,22.71,20.91,22.71-1.61,34.46,13,60.61,13,60.61a280.41,280.41,0,0,0,35.63.84,34.69,34.69,0,0,0,52.74-8.51c43.87-13.15,62.39-36.48,62.39-36.48-6.43-19.17-6.61-42.81-6.61-42.81h.13C955.21,1102,964.32,1093.3,964.32,1082.52Z"/><path class="cls-53" d="M805.57,1106.14c-1.69,86.93,100,46.77,100,46.77-7.43-25.27,1.23-54.85,1.23-54.85S848.82,1117,805.57,1106.14Z"/><path class="cls-21" d="M805.57,1106.14a22,22,0,0,0,7.15,12.44,20.39,20.39,0,0,0,6.57,3.74,10.09,10.09,0,0,1,19.9,3.33c17.41,1.08,48-1,83.81-16.17l3.57-18.19S848.82,1117,805.57,1106.14Z"/><path class="cls-31" d="M931.14,1089c-10.15,12.18-110.61,27.26-125.57,17.13,20.13,5,91.54-3.49,118-17.16,0,0-6.4-4.33-6.53-8.76C922.63,1085.34,931.14,1089,931.14,1089Z"/><path class="cls-27" d="M810.3,1134.9s11.77,40.24,77.83,23.39C888.13,1158.29,872.21,1119.5,810.3,1134.9Z"/><path class="cls-37" d="M764.93,1574.12c14.93-11.34,28.25-17.29,35.95-16.31,5.85,2.08,9,5.66,1.93,15l-8.56,9-24.45,88.51c-24.29,15.67-45.2,9.76-71.41-3.76l3.9-94.66-15.7-29.4c-4.11-9.31,4.69-15.14,14.93-7.23,11,18.27,14.11,31.21,20.14,47.24L725.9,1644c3.48,2.63,9,2.78,16.16.84Z"/><path class="cls-35" d="M772,1552.14l-30,92.69c-9.3,2.19-13.84,1.38-16.16-.84l-6.42-102C728.3,1548.77,745.68,1552.21,772,1552.14Z"/><path class="cls-21" d="M789.46,1602c4,5.32.4,11-5.49,13.75-40.77,2.62-64.76-1.85-84.14-16-4.9-4.81-4.3-14.33,1.33-15C729.35,1603.08,755.81,1601.52,789.46,1602Z"/><path class="cls-21" d="M718.19,1624.93l-.61-9.46c13.44,6.13,23.25,7.72,39,6.07l-2.46,6.64C743.73,1629.22,730,1629.25,718.19,1624.93Z"/><path class="cls-21" d="M751.77,1634.4l-2,5.5c-10.32,3.49-20.57,2.59-30.75-2.55l-.38-5.94C726.57,1634.1,743,1635.71,751.77,1634.4Z"/><path class="cls-37" d="M921.23,1568.32c-14.93-11.34-28-16.46-35.68-15.48-5.85,2.08-9,5.66-1.93,15l8.56,9,22.21,91.49c28.21,13.31,58.24,8.3,74.77-3.94l-5-97.47,15.7-29.4c4.11-9.31-4.69-15.14-14.93-7.23-17,14.72-19.68,33.87-20.47,46.38L960.53,1639c-3.48,2.63-9,2.78-16.16.84Z"/><path class="cls-35" d="M914.39,1547.17l30,92.69c9.3,2.19,13.84,1.38,16.16-.84L967,1537C958.13,1543.79,940.76,1547.23,914.39,1547.17Z"/><path class="cls-21" d="M897,1597c-4,5.32-.4,11,5.49,13.75,40.77,2.62,64.76-1.85,84.14-16,4.9-4.81,4.3-14.33-1.33-15C957.08,1598.1,930.62,1596.55,897,1597Z"/><path class="cls-21" d="M968.24,1619.95l.61-9.46c-13.44,6.13-23.25,7.72-39,6.07l2.46,6.64C942.71,1624.25,956.47,1624.27,968.24,1619.95Z"/><path class="cls-21" d="M934.66,1629.42l2,5.5c10.32,3.49,20.57,2.59,30.75-2.55l.38-5.94C959.86,1629.12,943.47,1630.73,934.66,1629.42Z"/><path class="cls-54" d="M705.27,994.92s188.19-74.29,348.17-29.31l-7.18,66.23a29.63,29.63,0,0,1-29.19,26.43l-72.51.66-19-20.24-35.2,5.29-21.19,17.46-112.83,24.62a29.63,29.63,0,0,1-35.19-22.29Z"/><polygon class="cls-54" points="712.64 1026.9 645.3 1084.59 645.3 1062.7 705.27 994.92 712.64 1026.9"/><path class="cls-55" d="M1051.39,984.46l2-18.84c-160-45-348.17,29.31-348.17,29.31l4.3,18.65S898,954.93,1051.39,984.46Z"/><path class="cls-25" d="M1055,941.33l-.39,3.05a7.14,7.14,0,0,1-11.63,4.61c-16.11-13.39-51.74-36.21-104.79-33.15-84.49,4-232.24,139.67-310.25,64,61.4,17.87,145.2-84.95,263.63-95.21,58.36-5.58,102.58,12.83,130.21,30.13Z"/><path class="cls-33" d="M938.16,915.84c53-3.06,88.67,19.76,104.79,33.15a7.14,7.14,0,0,0,11.63-4.61l.39-3.05c-36.56-26.89-72.17-37.79-106.66-38.94-57.55-1.91-102.78,28.06-151.77,53.9-55.88,29.47-114.72,53.8-168.63,23.58C705.93,1055.51,853.68,919.88,938.16,915.84Z"/><path class="cls-56" d="M658.33,1209.61c30.4,30.24,31.14,74.1,31.14,74.1l20.16-10.2s-9.17-56.17-34.34-73.13Z"/><path class="cls-56" d="M600.16,1233.19c24.15,44.56,20.33,85.42,20.33,85.42l16.76-8.48s3.9-43-20-81.87Z"/><path class="cls-56" d="M573.36,1239.19c24.15,44.56,22.59,91.83,22.59,91.83l14.79-7.48s1.21-51.48-22.7-90.39Z"/><text class="cls-57" transform="translate(1010.55 1000.39) rotate(7.16)">M</text><text class="cls-57" transform="translate(1030.02 1002.84) rotate(7.59)">C</text><path class="cls-56" d="M1007.15,1263.59c-6.1-51.7,9.59-75.27,9.59-75.27L994.42,1183s-13.54,24.9-8.43,72Z"/><path class="cls-56" d="M1088.15,1192.93s-14.8,33.73.2,89.3a275,275,0,0,0,30.28-.82s-19.23-43.41-7.46-91.24C1111.17,1190.17,1100.22,1192,1088.15,1192.93Z"/><path class="cls-56" d="M1125,1280.69c-15.14-30-7.62-91.82-7.62-91.82a111.07,111.07,0,0,0,16.1-4.94s-7.48,51.61,11.09,93.29"/><path class="cls-56" d="M1228.29,1173.86c15,23.76,21.1,47.78,10.63,54.54-9.21,6-29.25-9.58-44.24-33.34s-19.62-47.77-10.34-53.62S1213.29,1150.1,1228.29,1173.86Z"/><path class="cls-28" d="M933,1066.44c-11.8,25.42-57.9,24-68.59,9.31-17.65,8.71-26.19,6.92-28.72,1.83-3.38,9.59,3.05,19.13,28.72,6.46,10.69,14.69,56.79,16.11,68.59-9.31,15.07-.38,17.94-9.15,15-14.94C946.16,1063.32,941.55,1066.22,933,1066.44Z"/><path class="cls-22" d="M863.26,1061.38c36.23-40.68,58.15-39.82,70.72-11.84,14.26-9.58,25.65,17.21-1,17.89-11.8,25.42-57.9,24-68.59,9.31C814.74,1101.28,837.15,1042.56,863.26,1061.38Z"/><path class="cls-58" d="M863.26,1069c49.27-62.11,70.72-19.5,70.72-19.5-12.57-28-34.49-28.84-70.72,11.84-16.68-12-31.86,7.6-27.67,16.95C838.55,1069.23,850.46,1059.81,863.26,1069Z"/><path class="cls-31" d="M800.7,1115.66a11.85,11.85,0,0,0,.6-1.19,35.54,35.54,0,0,1,2-3.36,43.15,43.15,0,0,1,9.94-10.3c1.53-1.15,0-3.75-1.51-2.59-5.72,4.3-11.15,9.93-13.94,16.65-.74,1.78,2.16,2.56,2.89.8Z"/><path class="cls-31" d="M834.78,1189.32c7.52,7.85,19.11,12,29.81,10,8.79-1.61,28.62-10.24,25-22.46l-1,1.85c12.68-4.67,28.16-14.68,28.61-29.61a1.52,1.52,0,0,0-2.26-1.3,177.79,177.79,0,0,1-35.81,10.54c-19.1,3.52-43.21,4.6-58.32-9.88-11-10.57-13.59-26.48-13.41-41.11a1.5,1.5,0,0,0-3,0c-.17,13.46,1.88,27.75,10.28,38.73,6.36,8.32,15.73,13.4,25.83,15.67,20.18,4.54,42.05.06,61.41-6.08,4.9-1.55,9.8-3.24,14.52-5.28l-2.26-1.3c-.4,13.41-15.06,22.54-26.41,26.72a1.53,1.53,0,0,0-1,1.85c1.51,5.06-4.12,10-7.76,12.53a36.17,36.17,0,0,1-19.25,6.68c-8.29.22-17-3.73-22.76-9.71-1.34-1.4-3.46.73-2.12,2.12Z"/><path class="cls-21" d="M819.77,1147.45c8.12,9.7,36.74,23.47,90,2.46,0,0-.1-9.73-.39-9.66C854.53,1152.78,819.77,1147.45,819.77,1147.45Z"/><path class="cls-59" d="M1523,895H1391.35c-7.07,0-13.92-5.78-13.92-12.85V828.38c0-7.07,5.67-14.28,18.08-14.28L1523,815.53a12.88,12.88,0,0,1,12.85,12.85l2.8,50C1538.63,885.44,1530.05,895,1523,895Z"/><rect class="cls-60" x="1382.66" y="814.1" width="155.97" height="75.89" rx="12" ry="12"/><polygon class="cls-61" points="1218.01 1144.16 1450.59 892.64 1469.22 892.64 1223.08 1158.29 1218.01 1144.16"/><rect class="cls-62" x="1430.62" y="868.3" width="56.61" height="29.5" rx="3.56" ry="3.56"/><circle class="cls-63" cx="1395.46" cy="875.82" r="6.16"/><circle class="cls-64" cx="1401.61" cy="866.51" r="2.54"/><ellipse class="cls-22" cx="1210.69" cy="1121.07" rx="32.19" ry="22.65" transform="translate(-423.33 1350.31) rotate(-50.79)"/><path class="cls-22" d="M1190.65,1140.3c-2,2.94-7.71,11.35-6.72,19.5,2.84,23.53,46.73,75.78,87,44.18,8.55-6.7,22.95-20.8,35.67-35.67,21.27-24.86,11.54-44.35-9.2-63.77a70.72,70.72,0,0,0-48.56-18.71,25.94,25.94,0,0,0-18.7,8.25c-3.28,3.61-5.92,8.61-4.94,15C1227.47,1123.64,1197.84,1129.62,1190.65,1140.3Z"/><path class="cls-22" d="M1232.63,1158.14c-12.76-7.62-29.37-23.41-29.84-27.15-1.78-14,17.31-26.29,22.27-25.35,11.23,2.15,28.52,9.58,38.24,24.66"/><line class="cls-30" x1="1232.55" y1="1159.05" x2="1201.13" y2="1132.72"/><path class="cls-19" d="M676.25,1016s17.35-6.39,21.85,10.18c3.07,19-22.33,20.73-22.33,20.73C667.07,1036.55,667,1026.24,676.25,1016Z"/><path class="cls-20" d="M698.1,1026.16c3.07,19-22.33,20.73-22.33,20.73C667.07,1036.55,688.63,1047.64,698.1,1026.16Z"/><path class="cls-27" d="M536.49,1520.9l55.8,146.89S659,1690.12,674,1659l-57.33-257.32c-71,31.56-208.17,14.41-231,18-.17-.5-21,239.31-21,239.31s14.06,31.66,85.85,8.6l33.6-138.63Z"/><path class="cls-19" d="M591.08,1181l-256.5-19.31s-88.11,47.2-96.88,72.13l-.7-.07a10.34,10.34,0,1,0,.44,20.59c8.66,75.29,87.79,96.79,147.31,102.21l1.35,62.3c32.53,36.8,238.53,18.8,230.53-17.19-5.29-11.88-17.88-139.48-23.16-195C592,1190.93,591.08,1181,591.08,1181Z"/><path class="cls-20" d="M428.71,1166.72,591.08,1181s.36,3.93,1,10.74l-23.94,1.34s-19.5,28.82-76.75,14.57l-61.94-6.76Z"/><path class="cls-20" d="M429.63,1435.64c-12.83-1.09-42-9-43.53-16.8l-4.38-202.45-22.08-3.74,32-40,28.75-.79Z"/><ellipse class="cls-27" cx="480.45" cy="1005.09" rx="199.58" ry="196.59"/><path class="cls-32" d="M542.35,1139.79c-110.23,0-199.58-88-199.58-196.59a193.49,193.49,0,0,1,30-103.65c-55.26,35-91.88,96-91.88,165.53,0,108.57,89.36,196.59,199.58,196.59a200.12,200.12,0,0,0,169.6-92.94A200.85,200.85,0,0,1,542.35,1139.79Z"/><path class="cls-65" d="M526.87,965.25c12.58-14.52,16.4-51.06,10.4-73.33-13-3.2-16.32-20.12-4.77-28.26,9.66-7.21,30.28-11.19,46.41-5.71,15.51,7,17.92,24.2,6.4,32.31-13.55,9-27.38-6-17.21-14.52,3.2-2.66,8-2.44,9.57.41,2,3.21-1.77,4.9-2.74,2.53-1.3-.25-2.48,2-1.19,3.62,2.63,3,9,.84,8.33-5.81-.85-10.37-25.35-16-26.49,11.46-.3,14.92.65,52.23,16.43,57.15,10.6,2.86,15.55-9.77,7.48-13.7a3.93,3.93,0,0,0-5.33,1.57c-.94,2,.83,4.61,1.88,3.78-.11-3.34,4.61-2.75,4.18.84,0,2.68-4.3,6-8.69,2C565,933.08,573.68,923,582,927.72c9.87,6,8.73,18.18-1.62,23.58-11.37,5.27-28.22-4.33-30.76-49.06-8.18,41.25-3.3,76.55,3.94,99.85C569.49,992.23,580.2,946,613,936.59c8.94-1.86,10.36-6.39,7.93-10.36a6.57,6.57,0,0,0-4.69-3.2,4.94,4.94,0,0,0-5.67,5.21,2.85,2.85,0,0,0,5.37,1.1c-4.31.54-3.87-3.92-.66-4.21a3.78,3.78,0,0,1,3.33,2.48c1.76,5.55-7.34,10-11.1,2.95-4-7.92,10.62-16.64,16.7-5.49,4.53-6.38,12.4-4,13.81,1.81a4.37,4.37,0,0,1-3.26,5.58c-2.62.2-3.91-1.53-3.63-3.3a1.23,1.23,0,1,1,2.36.7c1.71.09,2.68-1.8.7-3.77-5.45-3.85-10.82,7.66-.25,10,14.36,2.73,24.27,14.89,43.69,30.6-12.48,29.12-20.73,40.73-36.78,48.07,11.73,5.5,7.15,19.68-3.21,17.59-5.2-1.27-6.38-5.58-5.15-8.4,1.7-3.37,5.61-4.07,7-.67a1.56,1.56,0,0,1-2.56,1.63c-1,1.51,1.13,3.58,3.61,2.12,4.2-2.29.86-10.24-7.63-9.27-30.12,9.16-61.57-5.09-80.95-3.51,1.37,3.34,3,8.16,10.73,16.43-13.36-1.25-28.22,2.88-47.34,11.5l2.25-11.71c-23.66,26.75-47.18,31.41-70.53,34.27-9.45.24-8.64,7.16-5.66,8.5,2.72,1.46,6.28-.38,4.56-3.1-1.24,2.31-4.18,0-3-1.65a3.48,3.48,0,0,1,5.9.24c2.3,3.77.35,7.78-3.57,8.48-8.79,1.57-12.25-6.87-9.77-12.1-20.62-1.23-34.53-7.47-54.86-30.38,15.12-30.06,24.52-41.28,41.15-48.67,9.63-2.71,7.21-11,3.26-12-3.74-.48-5.89,1.44-6.24,4.42.05,3.41,4.12,3.07,4.28.73-4.11-1.35.42-4.11,2.47-1.79,2.73,3.41-3,8.19-7,6.11-8.09-5,.83-16.22,8.82-12.58,7.05-13.85,23.93-4.28,17.43,5.12-3.51,4.17-9.36,1.4-9-2.31.41-3.05,4-2.07,3.35.46,3.58-.42,3-4,0-5.17-6.77-1.8-10.94,10.86-1,12.77,28.42-8.63,54.79-3.09,79.29,27.82-1.76-29.88-15.84-64.36-39.08-94,9.3,18.34,18.44,44.08,4.72,53.38-12.11,7.47-26.22-2.32-22.64-14.86,2.17-6.91,12.51-9.54,17-.34,3.11,6.54-5.22,12.06-9,5.83-1.2-3,2.65-4.51,3.95-1.57,2.4-1.58.43-5.65-3.68-5-4.84.87-5.17,7.65-1,11.34,5.28,4.24,15,3.27,15.82-7.8.94-13.46-20-66-37.19-62.23-12,3.69-7.57,16.73.06,14.69,4.18-1.23,3.2-6.15.28-5.81-.1,3.19-3.13,3.44-4.13,1-.8-2.51.74-4.15,3.48-5.19,9.09-2.37,12.34,6.15,7,13.44-12.52,15.15-33.71-6.36-16-23.37a54.49,54.49,0,0,1,33.11-16.31c13-1.46,28.69,16.3,17.28,29.87C489.37,920.73,507.9,950,526.87,965.25Z"/><path class="cls-66" d="M438.8,1073.68a6.21,6.21,0,0,1-.92-1.14,7.13,7.13,0,0,1-.5-6.62l1.27-2.68-3-.18c-18.71-1.11-32.08-5.9-52.58-28.7,14.61-28.86,23.59-39.39,39.43-46.47,5.07-1.47,8.07-4.76,8-8.82a7.82,7.82,0,0,0-2.62-5.79l.4.18.87-1.7c1.92-3.78,4.82-5.86,8.15-5.86a7.28,7.28,0,0,1,6.41,3.57,4.94,4.94,0,0,1-.5,5.29,3.46,3.46,0,0,1-2.65,1.3,3.23,3.23,0,0,1-.55,0,4.24,4.24,0,0,0,3.64-3.55A5.32,5.32,0,0,0,440,967.1l-.11,0-.11,0a7.09,7.09,0,0,0-1.82-.24c-4.28,0-7.2,3.93-7.56,7.74-.33,3.5,1.44,8,7.51,9.17l.48.09.47-.14a77.48,77.48,0,0,1,22.38-3.58c20.46,0,38.37,10.05,54.76,30.73l3.56-1.36c-1.81-30.72-16.21-65.41-39.5-95.16l-3.36,2.14c6.18,12.19,19.07,41.54,5.38,50.82a14.79,14.79,0,0,1-7.7,2.25,12.73,12.73,0,0,1-10.16-4.91,11.15,11.15,0,0,1-1.73-10,7,7,0,0,1,6.64-4.81c2.78,0,5.14,1.71,6.66,4.81a4,4,0,0,1-.1,4,3.44,3.44,0,0,1-2.78,1.66h-.24l.94-.62a4.25,4.25,0,0,0,1.74-4.86,5.72,5.72,0,0,0-5.67-3.89,7.54,7.54,0,0,0-1.16.09,6.51,6.51,0,0,0-5.28,4.81,10.11,10.11,0,0,0,3.21,10l.08.07a12.75,12.75,0,0,0,7.85,2.77c4.77,0,10.56-3.14,11.22-12,.75-10.67-11-43-24.29-57.27-4.52-4.85-8.92-7.3-13.08-7.3a10.38,10.38,0,0,0-2.23.24l-.16,0c-7.4,2.27-9.34,7.68-8.75,11.62a7.84,7.84,0,0,0,9.91,6.92,5.46,5.46,0,0,0,4.24-5.94,4.26,4.26,0,0,0-4.2-3.82l-.5,0-.69.08a9,9,0,0,1,.87-.39,9.59,9.59,0,0,1,2.32-.31,4.25,4.25,0,0,1,4.11,2.22c1.12,2.21.5,5.5-1.6,8.4-2.38,2.86-5.22,4.37-8.21,4.37-4.2,0-8.24-3-10-7.45-2.33-5.78-.43-12.2,5.21-17.61a52.39,52.39,0,0,1,31.95-15.76,11.73,11.73,0,0,1,1.31-.07c6.24,0,13.21,4.85,16.21,11.29a13.84,13.84,0,0,1-2,15.38l-.54.65.08.84c1.83,18.5,20.54,48.44,40,64.07l1.5,1.2,1.26-1.45c13.35-15.41,16.78-53.06,10.82-75.17l-.31-1.14-1.15-.28a13.35,13.35,0,0,1-10.08-10.56,13.85,13.85,0,0,1,6-14.12c6.46-4.81,17.7-7.9,28.69-7.9a49.61,49.61,0,0,1,15.83,2.42c7.08,3.24,11.66,9,12.27,15.49a14.35,14.35,0,0,1-6.29,13.33,13.45,13.45,0,0,1-7.49,2.43c-4.37,0-8.34-2.54-9.67-6.19-1-2.77-.16-5.47,2.38-7.6a6.05,6.05,0,0,1,3.8-1.4,3.29,3.29,0,0,1,2.51.92l-.39-.08a3,3,0,0,0-.58-.06,3.52,3.52,0,0,0-3.12,2.15,4.44,4.44,0,0,0,.58,4.76,6,6,0,0,0,4.59,2,7.13,7.13,0,0,0,5.27-2.39,8.84,8.84,0,0,0,2-6.95c-.46-5.68-6.57-10.34-13.61-10.34-7.71,0-16.2,5.76-16.87,21.92-.33,16,.76,53.82,17.84,59.14a13.68,13.68,0,0,0,3.6.51,10.32,10.32,0,0,0,10.24-7.86,8.72,8.72,0,0,0-4.89-10.05,5.91,5.91,0,0,0-2.77-.67,5.7,5.7,0,0,0-5.24,3.17,5.25,5.25,0,0,0,.38,5,3.48,3.48,0,0,0,2.87,1.81,2.69,2.69,0,0,0,1.67-.58l.8-.63s0-1.09,0-1.11l.07.06a.92.92,0,0,1,.12.7v.24a1.8,1.8,0,0,1-.65,1.15,2.74,2.74,0,0,1-1.86.73,4.38,4.38,0,0,1-2.84-1.31,5,5,0,0,1-1.25-5.66,6.59,6.59,0,0,1,6-4,7,7,0,0,1,3.44,1c3.78,2.31,5.91,5.85,5.79,9.7-.14,4.17-2.89,8-7.35,10.37a11.64,11.64,0,0,1-4.87,1.08c-9.78,0-20.94-12.73-23-48.48l-4-.28c-9.27,46.74-1.48,83.24,4,100.84l.77,2.47,2.2-1.36c6.44-4,11.78-13,18-23.53,10-16.92,21.29-36.08,40.88-41.73,5.29-1.12,8.64-3.21,9.94-6.23a6.81,6.81,0,0,0,.5-3.55l0,.09,1.85-2.61a6.3,6.3,0,0,1,5.07-3,5.34,5.34,0,0,1,.75.05c-2.89.15-5.39,2.74-5.74,6s1.45,7.32,7.59,8.66c10.1,1.92,18.11,8.91,29.19,18.59,3.69,3.22,7.84,6.84,12.49,10.65-12.35,28.55-20.36,38.88-35.18,45.65l0,3.63c5.12,2.4,6.26,6.34,5.62,9.22a5.94,5.94,0,0,1-6,4.77,8.26,8.26,0,0,1-1.62-.17,5.19,5.19,0,0,1-3.59-2.56,3.32,3.32,0,0,1,1.09-4.45l-.28.42a3.44,3.44,0,0,0-.16,3.58,4.21,4.21,0,0,0,3.76,2.14,5.29,5.29,0,0,0,2.7-.77,5.54,5.54,0,0,0,2.59-6.44c-.81-3.2-4.24-6.64-9.82-6.64a14.37,14.37,0,0,0-1.64.1l-.18,0-.17.05a73.81,73.81,0,0,1-21.74,3c-11.28,0-22.51-2-32.41-3.8-8.37-1.5-16.28-2.93-23-2.93-1.18,0-2.31,0-3.37.13l-2.72.22,1.29,3.16a43.49,43.49,0,0,0,7.7,12.82h-.15c-11,0-23.41,3.21-39.89,10.34l1.53-8-3.46-1.7c-23,26-45.84,30.74-69.18,33.6-7.68.23-9.14,4.54-9.41,5.86A6.12,6.12,0,0,0,438.8,1073.68ZM471,959.34a4.67,4.67,0,0,1-.58-.72.51.51,0,0,1,0-.26h0c.09,0,.22.1.34.38Zm144.68-32-.44,0a2,2,0,0,1-.37,0,.9.9,0,0,1,.58-.23,2.12,2.12,0,0,1,1.24,1.1,2.67,2.67,0,0,1,.13.76Zm-171-23.7a1.27,1.27,0,0,1-.15-.25,1.34,1.34,0,0,1,.29-1.45l0,1.1A1.89,1.89,0,0,1,444.71,903.65Z"/><path class="cls-65" d="M502.4,1193.51a4,4,0,0,1-.52,0l-66.08-8.65a4,4,0,0,1-3.41-3.24L422,1125.29c-8.35-.86-19.79-3.16-22.13-9.28-4.1-10.75-4.12-19.18-.07-25.07,3.92-5.69,11.33-8.58,22-8.58a78.58,78.58,0,0,1,9.46.63,152.37,152.37,0,0,0,17.79.85c41.85,0,114.32-9.57,141-18.62a16.76,16.76,0,0,1,5.4-.88,18.25,18.25,0,0,1,13.1,30.92,4,4,0,0,1-.94.72l-4,2.23c-2.8,11.07.21,38.24,1.68,48.2a4,4,0,0,1-2.35,4.25c-2,.85-4.82,2.41-8.44,4.38A328.26,328.26,0,0,1,562,1170.86l-58.15,22.38A4,4,0,0,1,502.4,1193.51Z"/><path class="cls-52" d="M443.43,1078.82a13.06,13.06,0,0,1-11.29-6.08A14.27,14.27,0,0,1,430,1066c-18.8-2.67-30.12-13.35-49.41-35.09a5,5,0,0,1-.73-5.57c13.11-26.06,19.62-33.7,32.87-40.52a10.62,10.62,0,0,1-1.84-9.68,14.24,14.24,0,0,1,13.3-10q.48,0,1,0a15.32,15.32,0,0,1,12.24-6.28A14.24,14.24,0,0,1,450,966.22a11.5,11.5,0,0,1,1.16,7.55,74.68,74.68,0,0,1,10.15-.72l2,0a18.92,18.92,0,0,1-4.56-4.3,18.24,18.24,0,0,1-2.88-16.14l0-.13a14.09,14.09,0,0,1,13.34-9.77,13.35,13.35,0,0,1,7.62,2.39c-3-10.74-9.2-25.84-16.58-36.11a18.69,18.69,0,0,1-3,6.25l-.18.24c-3.71,4.48-8.55,7-13.65,7h0c-7,0-13.67-4.76-16.52-11.84-3.39-8.42-.85-17.85,6.8-25.22a59.25,59.25,0,0,1,36.08-17.72,18.7,18.7,0,0,1,2.08-.12c8.93,0,18.42,6.45,22.56,15.33a20.62,20.62,0,0,1-1.58,21c2.5,15.51,17.33,39.46,33.18,54,8.27-14,11.63-42,7.1-62.1a20.2,20.2,0,0,1-12.29-15.09,21,21,0,0,1,8.77-21.1c7.66-5.69,20.22-9.22,32.78-9.22a56.52,56.52,0,0,1,18.18,2.82l.46.18c9.44,4.28,15.59,12.22,16.44,21.25a21.45,21.45,0,0,1-9.23,19.71l-.1.07A20.63,20.63,0,0,1,576.67,898c-7.08,0-13.62-4.23-16.08-10.35q0,.19,0,.39c-.35,17.69,1.38,32.2,4.69,41.45a13.58,13.58,0,0,1,12.32-8,13.88,13.88,0,0,1,6.89,1.86l.15.08c6.06,3.69,9.41,9.51,9.2,15.94a17,17,0,0,1-.17,1.93,53.58,53.58,0,0,1,10.53-6.71,13.62,13.62,0,0,1-1.07-1.69l-.06-.12a11.25,11.25,0,0,1,.58-11.16,14.9,14.9,0,0,1,12.46-6.87,13.39,13.39,0,0,1,8.66,3.15,12.3,12.3,0,0,1,18,7.47,9,9,0,0,1-.85,7.49l-.17.28c8.76,3.51,16.38,10.16,25.53,18.15,4,3.45,8.43,7.36,13.47,11.44a5,5,0,0,1,1.45,5.86c-10.26,23.92-18.31,38.08-32.44,47a14.4,14.4,0,0,1,2.66,11.69,12.87,12.87,0,0,1-12.79,10.25h0a15.28,15.28,0,0,1-3-.31l-.2,0a12.17,12.17,0,0,1-8.28-6.27,10.88,10.88,0,0,1-1-6.61,85.9,85.9,0,0,1-16.62,1.53c-11.91,0-23.46-2.08-33.65-3.91-6-1.08-11.8-2.12-16.89-2.58a56,56,0,0,0,6.3,7.91,5,5,0,0,1-3.66,8.41l-.47,0c-1.4-.13-2.85-.2-4.3-.2-10.73,0-23.22,3.48-40.52,11.28a5,5,0,0,1-6.62-2.53c-19,16.19-37.84,19-56.16,21.15a10.34,10.34,0,0,1-.43,7.31,10.48,10.48,0,0,1-7.78,5.92A16.8,16.8,0,0,1,443.43,1078.82ZM480,975.72c10.91,3.23,21.09,9.43,30.71,18.68a163.82,163.82,0,0,0-15.47-43.71c.61,10.24-2.43,17.78-9.14,22.33l-.18.12A22.71,22.71,0,0,1,480,975.72Zm70.61-40.33a196.49,196.49,0,0,0,5.56,57.45c3.36-4.19,6.82-10.05,10.41-16.14,3.72-6.3,7.77-13.17,12.52-19.66a18.34,18.34,0,0,1-4.49.56C570.07,957.6,558.06,955.55,550.6,935.39Z"/><path class="cls-14" d="M485.5,898.19l7,44s-10.91,33.69-51.35,48.39-58.58.81-58.58.81l-4.4-29s22.45,1.68,52-15.18C473,922.79,485.5,898.19,485.5,898.19Z"/><path class="cls-14" d="M544.65,889.53l7.27,38.52s18.81,24.71,56,25,47.86-16.57,47.86-16.57l-5.62-28.61s-18.62,11-47.6,5.72C560.57,905.93,544.65,889.53,544.65,889.53Z"/><path class="cls-41" d="M320,1081.76c8.58,10.39,10,25.76,6.4,28.71s-13.43-3.07-22-13.46-12.63-21.21-9.05-24.16S311.39,1071.37,320,1081.76Z"/><path class="cls-67" d="M680.14,946.81,554.82,965a135,135,0,0,0,7.06,33.67c-13.31,1.14-36.15,3.17-50.75,7.58-1.7-17.24-10.68-33.63-10.68-33.63L377.22,1004s2.52,14,5,21.42c0,0-80.43,17.3-102.71,27.54-11,5.07-18.38,31.18-22.29,45.53-3.21,11.78,8.88,22.13,19.94,17q.65-.3,1.31-.67a14.49,14.49,0,0,0,7.32-13.11c-.18-7.33,1.23-19.09,11.38-23.52,15.21-6.65,96.39-26,96.39-26,12.59,20.57,37.83,39.53,72,29.28,25.72-7.71,40-27.83,44.41-44.72,0,0,26.74-18.26,52.81-11.09,11.18,14.23,45,28.86,70.49,24.52C704.23,1038.2,680.14,946.81,680.14,946.81Z"/><path class="cls-68" d="M644.16,952l-46,6.7,9.49,90.56s21.17,5.86,42.47-4C650.84,1044.95,644.16,952,644.16,952Z"/><path class="cls-68" d="M464.34,981.86l-42.66,10.87,12.95,90.39c9.25,2,25,3.11,44.27-7.12Z"/><path class="cls-19" d="M296.57,1076.22c15.87-5.85,30.91,18.34,27.43,33.42,0,0-20.83,11.7-35-3.66C276.73,1088.82,296.57,1076.22,296.57,1076.22Z"/><path class="cls-20" d="M321,1090.9c3,6.15,4.27,13.09,3,18.74,0,0-20.83,11.7-35-3.66C309.63,1107.64,316.63,1101.64,321,1090.9Z"/><path class="cls-69" d="M502.4,1197.51a8,8,0,0,1-1-.07l-66.08-8.65a8,8,0,0,1-6.83-6.48l-9.86-53.39c-12.65-1.69-20.2-5.54-22.47-11.49-4.6-12.05-4.47-21.73.37-28.76,4.71-6.84,13.23-10.31,25.3-10.31a84.49,84.49,0,0,1,9.94.81,143.9,143.9,0,0,0,17.3,1h0c41.53,0,113.34-9.62,139.7-18.56a20.82,20.82,0,0,1,6.68-1.17,22.2,22.2,0,0,1,16,37.63,8,8,0,0,1-1.87,1.43l-2.44,1.35c-1.78,10.1.23,32.21,2.11,45a8,8,0,0,1-4.71,8.5c-1.8.79-4.59,2.31-8.14,4.23a331.71,331.71,0,0,1-32.86,16L505.28,1197A8,8,0,0,1,502.4,1197.51Z"/><path class="cls-19" d="M605.67,1092.47a14.2,14.2,0,0,0-2.38-21.72,13.78,13.78,0,0,0-12-1.74c-32.49,11-127,22.07-160.55,18-24.74-3-35.66,5.38-27.18,27.62,2.13,5.58,21.77,7,21.77,7l10.95,59.29,53.34,9.43c5.43,7.89,18.88,14.54,34.55,13.48,42-2.85,40.79-33.08,36.25-36.61,20.9-8.66,34.52-17.41,40.85-20.18,0,0-5.66-38.4-1.08-51.49Z"/><path class="cls-21" d="M447.63,1104.51s64,22.7,126-9.19v40.95s-78,59.59-125.21,11.85C448.42,1148.12,434.38,1124,447.63,1104.51Z"/><path class="cls-70" d="M442,1126.66a49.59,49.59,0,0,0,10.56,6.28,11.53,11.53,0,0,1,21.87,6.7c21.77,3.83,54.67,2.32,99.16-19"/><path class="cls-19" d="M611.25,1045.61c-1.35-6.3-10.31-9.72-20-7.64a26.66,26.66,0,0,0-5.81,2c-6.15-13.36-27.06-20.15-49.53-15.33-21,4.51-36.6,17.71-38.65,31.43a27,27,0,0,0-5,.59c-9.69,2.08-16.46,8.87-15.1,15.17s10.31,9.72,20,7.64a25.48,25.48,0,0,0,8.66-3.56c9.5,7.45,25.6,10.44,42.58,6.79,16.28-3.49,29.31-12.21,35.31-22.35a23.92,23.92,0,0,0,12.47.46C605.84,1058.7,612.6,1051.91,611.25,1045.61Z"/><path class="cls-58" d="M480.14,1074.8c-1.35-6.3,5.41-13.09,15.1-15.17a27,27,0,0,1,5-.59c2.05-13.72,17.64-26.92,38.65-31.43,17.5-3.76,34.05-.47,43.42,7.49-8.49-10.08-26.86-14.68-46.42-10.49-21,4.51-36.6,17.71-38.65,31.43a27,27,0,0,0-5,.59c-9.69,2.08-16.46,8.87-15.1,15.17a8.93,8.93,0,0,0,4,5.51A7.83,7.83,0,0,1,480.14,1074.8Z"/><path class="cls-21" d="M274.83,1198.18c22.8-9.54,69.8-13.54,106.8,18.46,0,0,7-10,44.45-22.35l-42.75-48.36-54.63-4.77,5.89,20.51S297.36,1182.67,274.83,1198.18Z"/><path class="cls-71" d="M328.63,1141.64l54,7,41.27,43.19c-30.79-16.32-73.27-33.19-90.27-29.19l-5-21"/><path class="cls-31" d="M485.87,1188.83s22,25,55.71,11.56C568,1189.86,566,1175.25,561,1166.76l-.09-4.07a.49.49,0,0,0-1-.16l-1.82,4.85s10.7,17.88-17.18,29.88C511.15,1210.12,485.87,1188.83,485.87,1188.83Z"/><path class="cls-27" d="M497.68,1226.18l-76.64-.94-5.43-34.17a5.56,5.56,0,0,1,5.49-6.43h76.15a5.56,5.56,0,0,1,5.5,6.35Z"/><path class="cls-47" d="M439.81,1225.47l-18.76-.23-5.43-34.17a5.56,5.56,0,0,1,5.49-6.43h8.53C431.47,1213,439.81,1225.47,439.81,1225.47Z"/><ellipse class="cls-72" cx="459.13" cy="1184.65" rx="44.54" ry="7.19"/><ellipse class="cls-73" cx="459.18" cy="1186.75" rx="38.12" ry="3.46"/><ellipse class="cls-74" cx="459.13" cy="1184.65" rx="44.54" ry="7.19"/><path class="cls-19" d="M307.76,1339c70.21,22.64,146.27,25.67,166.39,20.29s22-30.28,22-30.28a29.66,29.66,0,0,0,14.93-14.14c7.77-16.4-3.1-42.32-3.1-42.32s8.93-9.64,3.1-31.16c-3.07-11.32-5.42-27.41-11-31.24l-1,9s-42.75,10-80-5l-1-7.42c-23.74-1.37-36.64,9.67-36.64,9.67l-36.5-8.75"/><path class="cls-75" d="M625.16,1560.22a18.4,18.4,0,1,1,18.4-18.4A18.42,18.42,0,0,1,625.16,1560.22Zm0-33.38a15,15,0,1,0,15,15A15,15,0,0,0,625.16,1526.84Z"/><path class="cls-75" d="M405.4,1566a18.4,18.4,0,1,1,18.4-18.4A18.42,18.42,0,0,1,405.4,1566Zm0-33.38a15,15,0,1,0,15,15A15,15,0,0,0,405.4,1532.64Z"/><path class="cls-76" d="M611.32,1588.94l2.39,9.65c18.59-.85,37.76-5.81,40.46-11.05l-1.58-11.24C646.26,1582.39,628.45,1586.58,611.32,1588.94Z"/><path class="cls-76" d="M656.79,1598.4s4.3,10.49-5.66,15c-5.75,2.6-16.78,4.32-22.69,4.32-9.14,0-11.9-9-11.9-9S645,1608.55,656.79,1598.4Z"/><path class="cls-76" d="M434.16,1602.3h0l2.37-9.7q-33.62,7.81-58.24-5.46v9.28C394.69,1605.32,409.33,1608.9,434.16,1602.3Z"/><path class="cls-76" d="M431.78,1612c-26.93,4.87-41.66-.3-53.49-6.41v.7a14.59,14.59,0,0,0,8.29,13.21c8.94,4.23,18.73,5.81,33.25,3.51a14.68,14.68,0,0,0,12-11Z"/><path class="cls-75" d="M395.76,1665c-10.53-.87-28.47-6.7-30.18-17.68l-.42,5.26c1.2,9,17,16.8,30.31,17.44,9.26.45,35.85,2.73,56.83-9.92l1.53-6.33C439.73,1665.76,407.89,1666,395.76,1665Z"/><path class="cls-75" d="M413.84,1666.49c0-11.91-8.89-21-21.06-21.56-15-.75-20.52,14.12-20.52,14.12C395.26,1672.35,413.84,1666.49,413.84,1666.49Zm-38.72-6.58c2.89-6.83,8.47-11.65,16.35-11.65,10.5,0,19.09,7.06,18.79,17.31,0,0-6.75,2.1-19.71-.35S375.12,1659.92,375.12,1659.92Z"/><path class="cls-75" d="M640.23,1663c10.53-.87,28.82-8.16,30.53-19.14l1.47,6.91c-2.75,5-8.1,12.69-21.93,16.1-11.82,2.92-31.19,3.71-60.62-6l-2.5-6.58C605.6,1661.39,628.1,1664,640.23,1663Z"/><path class="cls-75" d="M663.73,1657.05s-5.54-14.87-20.52-14.12c-12.17.61-21.06,9.65-21.06,21.56C622.16,1664.49,640.73,1670.35,663.73,1657.05Zm-18.29,6.17c-13,2.46-19.71.35-19.71.35-.3-10.25,8.29-17.31,18.79-17.31,7.88,0,13.46,4.83,16.35,11.65C660.88,1657.92,658.4,1660.76,645.44,1663.22Z"/><path class="cls-31" d="M434.63,1114.64a60,60,0,0,1,24.5-17.92S438.72,1099.05,434.63,1114.64Z"/><path class="cls-31" d="M446.26,1103.76s68.88,26.79,136.61-14a1,1,0,0,0-.11-1.69c-2.39-1-6.49-3.11-7.62-5.81l1.75,6.63S534.47,1120.64,446.26,1103.76Z"/><path class="cls-31" d="M447.63,1104.51c-3.12,0-32.62,57.63,47.88,63.25,34.65,2.42,78.12-31.49,78.12-31.49s-50.87,30.38-76,29.24c-79.28-3.58-50-61-50-61"/><g class="cls-47"><path class="cls-24" d="M610.84,1050.31c-1.77,4.68-7.4,8.91-14.69,10.47a23.92,23.92,0,0,1-12.47-.46c-6,10.13-19,18.85-35.31,22.35-17,3.64-33.08.66-42.58-6.79a25.48,25.48,0,0,1-8.66,3.56c-9,1.93-17.35-.88-19.58-6.33a8.25,8.25,0,0,0-.42,4.7c1.35,6.3,10.31,9.72,20,7.64a25.48,25.48,0,0,0,8.66-3.56c9.5,7.45,25.6,10.44,42.58,6.79,16.28-3.49,29.31-12.21,35.31-22.35a23.92,23.92,0,0,0,12.47.46c9.69-2.08,16.46-8.87,15.1-15.17A7.71,7.71,0,0,0,610.84,1050.31Z"/></g><path class="cls-28" d="M385.63,1418.64l-21,240.31s7.36,17,39.36,17l25-240.34C409.15,1432.67,395.55,1427.46,385.63,1418.64Z"/><path class="cls-28" d="M477.3,1524.79l6.8,4.13,52.39-8,55.8,146.89s5.94,2,14.67,3.95l-60.32-155.85L555.3,1499Z"/><path class="cls-20" d="M237.44,1254.32s23.48,44.8,85.19,68.32c45.28,17.26,117,32,169,20,0,0,2.49,25.57-69.5,19.68C281.63,1350.8,245.47,1308.74,237.44,1254.32Z"/><path class="cls-20" d="M417.51,1213.64c3,19,79.56,22,83.13,5.31C468,1224.12,438.17,1222.81,417.51,1213.64Z"/><path class="cls-14" d="M306.23,1341.87a469.76,469.76,0,0,0,113.54,21.2c13.62.85,27.42,1.22,41,0,9.83-.92,19.59-2.69,26.63-10.26a41.08,41.08,0,0,0,10.2-23.75l-1.1,1.45c22.17-8.54,20.77-34.72,14.65-53.42-.46-1.4-1.15-2.82-1.51-4.25-.15-.61-.06-.62-.22-.11-.34,1.06,1.18-.82,1.45-1.15a36.79,36.79,0,0,0,5.44-10.18,56.07,56.07,0,0,0,3-28.15c-1.81-11.17-8.2-20.23-18.82-24.5-.95-.38-1.87.57-1.9,1.45-.06,1.76-.28,3.5-.5,5.24a10.49,10.49,0,0,1-.36,2.74c-.4.49-.8.08-1.85.14-6.85.41-13.61,2-20.54,2.29a161.68,161.68,0,0,1-33.55-2.31,152.57,152.57,0,0,1-19.11-4.5,14.87,14.87,0,0,1-3.17-1c1.84,1.12.84-.23.59-2l-.57-4a1.51,1.51,0,0,0-1.45-1.1,73.59,73.59,0,0,0-31.08,6c-2.22.93-4.3,2.17-6.5,3.11.43-.19,1.35.25.17-.24a16.89,16.89,0,0,0-2.53-.59l-32.82-7.71c-1.88-.44-2.68,2.45-.8,2.89l32.82,7.71c3.68.86,4.38.56,7.81-1.08a71.09,71.09,0,0,1,32.93-7.08l-1.45-1.1,1,7a1.5,1.5,0,0,0,1,1c25.2,9.2,54.75,10.38,80.8,5a1.45,1.45,0,0,0,1-1,90.1,90.1,0,0,0,1.05-9.4l-1.9,1.45c12.68,5.1,17.53,17.89,17.23,30.79-.23,9.73-2.77,22-10,29.11a1.46,1.46,0,0,0-.39,1.46c7.23,17.44,11.34,46.09-10.79,54.62a1.59,1.59,0,0,0-1.1,1.45,38.47,38.47,0,0,1-8.26,20.43c-7,8.52-17.59,10-27.94,10.79-29.45,2.26-59.7-1.08-88.71-6A460.93,460.93,0,0,1,307,1339c-1.84-.59-2.63,2.31-.8,2.89Z"/><path class="cls-77" d="M509.13,1271.14a22.87,22.87,0,0,1-17,10"/><path class="cls-20" d="M519.63,1246.64c-9.83,12.72-24.81,21.95-43,29,10.69,9.9,14.81,6.38,19.84,4.69C510.19,1273.43,517.54,1261.93,519.63,1246.64Z"/><path class="cls-20" d="M516.63,1297.64c-9.83,12.72-17.81,19.95-36,27,4,6,7.81,8.38,12.84,6.69C507.19,1324.43,514.54,1312.93,516.63,1297.64Z"/><path class="cls-20" d="M637.49,1219.88l-41.85-3.24.47,17.21C613.88,1230.13,626.89,1225.29,637.49,1219.88Z"/><path class="cls-20" d="M274.63,1198.64c43.17-15.28,79.34-6.06,106.5,17.5A172.4,172.4,0,0,0,274.63,1198.64Z"/><circle class="cls-28" cx="529.63" cy="1410.64" r="5"/><path class="cls-30" d="M1201.5,1131.14s2.13,21.5,31,27.92c0,0-.65-7.08-15.71-19.67C1204.13,1128.76,1201.5,1131.14,1201.5,1131.14Z"/><path class="cls-30" d="M1221,1107.39l4.41-5.17c6.06-2.07,34.5,3.89,37.92,29.64A155.46,155.46,0,0,0,1221,1107.39Z"/><path class="cls-30" d="M1199.08,1133.16s-5.27-24.55,26-31.39v3.87s-19.15,2.11-22.71,25.59Z"/><path class="cls-77" d="M1188.29,1144c-7.39-8.6-5.52-24.55,4.85-37.26,10.63-13,26.39-18,36.27-11.79"/><path class="cls-77" d="M1202.79,1131c-5.17,2.91-9.82,5.87-12.14,9.31-2,2.94-7.71,11.35-6.72,19.5,2.84,23.53,46.73,75.78,87,44.18,8.55-6.7,22.95-20.8,35.67-35.67,21.27-24.86,11.54-44.35-9.2-63.77a70.72,70.72,0,0,0-48.56-18.71,28.62,28.62,0,0,0-19.47,9.14,15.32,15.32,0,0,0-4.43,10.67"/><path class="cls-77" d="M1263.3,1130.3c-9.73-15.08-27-22.51-38.24-24.66-5-.95-24,11.37-22.27,25.35.48,3.74,17.08,19.53,29.84,27.15"/><path class="cls-78" d="M1232.55,1159.05"/><path class="cls-30" d="M1195.62,1184.71s47.44,32.42,85.47,10.42c0,0-17.33,22.16-41.9,18.42S1195.62,1184.71,1195.62,1184.71Z"/></g></g></svg>