<?xml version="1.0" encoding="utf-8"?>
<!-- Generator: Adobe Illustrator 18.1.1, SVG Export Plug-In . SVG Version: 6.00 Build 0)  -->
<!DOCTYPE svg PUBLIC "-//W3C//DTD SVG 1.1//EN" "http://www.w3.org/Graphics/SVG/1.1/DTD/svg11.dtd">
<svg version="1.1" id="Layer_1" xmlns="http://www.w3.org/2000/svg" xmlns:xlink="http://www.w3.org/1999/xlink" x="0px" y="0px"
	 viewBox="220.5 0 519 560" enable-background="new 220.5 0 519 560" xml:space="preserve">
<g>
	<circle opacity="0.1" fill="#883E26" enable-background="new    " cx="480" cy="300.5" r="259.5"/>
	<circle fill="#FFFFFF" cx="480" cy="259.5" r="259.5"/>
	<g>
		<path fill="#BA2B32" d="M480.4,491.4L480.4,491.4c-3.2,0-6.5,0.4-9.7,0.4v-3.2c3.2,0,6.1-0.4,9.3-0.4L480.4,491.4z M489.7,492.5
			v-3.6c3.2,0,6.5-0.4,9.3-0.7l0.4,3.6C496.2,492.1,492.9,492.1,489.7,492.5z M461,491.7c-3.2-0.4-6.5-0.7-9.7-1.1l0.4-3.6
			c3.2,0.4,6.1,0.7,9.3,1.1V491.7z M509.1,490.6l-0.4-3.6c3.2-0.4,6.1-0.7,9.3-1.5l0.7,3.6C515.2,489.9,512.4,490.3,509.1,490.6z
			 M441.9,489.5c-3.2-0.4-6.5-1.1-9.3-1.8l0.7-3.6c3.2,0.7,6.1,1.1,9.3,1.8L441.9,489.5z M528.1,487.4l-0.7-3.6
			c3.2-0.7,6.1-1.5,9.3-2.2l0.7,3.6C534.3,486.3,531.1,487.1,528.1,487.4z M422.8,485.6c-3.2-0.7-6.1-1.8-9.3-2.5l1.1-3.6
			c2.8,0.7,6.1,1.8,9,2.5L422.8,485.6z M546.5,482.7l-1.1-3.6c2.8-1.1,6.1-1.8,9-2.8l1.1,3.2C552.9,480.9,549.7,482,546.5,482.7z
			 M404.5,479.8c-2.8-1.1-6.1-2.2-9-3.2l1.5-3.2c2.8,1.1,5.8,2.2,9,3.2L404.5,479.8z M564.8,476.6l-1.5-3.2c2.8-1.1,5.8-2.5,8.6-3.6
			l1.5,3.2C571,474.1,567.7,475.5,564.8,476.6z M386.6,473c-2.8-1.5-5.8-2.5-8.6-3.9l1.5-3.2c2.8,1.5,5.8,2.8,8.6,3.9L386.6,473z
			 M582.5,468.7l-1.5-3.2c2.8-1.5,5.8-2.8,8.2-4.3l1.8,3.2C588.2,465.8,585.3,467.3,582.5,468.7z M369.3,464.4
			c-2.8-1.5-5.8-3.2-8.2-4.7l1.8-3.2c2.8,1.8,5.4,3.2,8.2,4.7L369.3,464.4z M599.3,459.7l-1.8-3.2c2.8-1.8,5.4-3.2,7.9-5l1.8,2.8
			C604.7,456.5,602.2,457.9,599.3,459.7z M352.7,454.7c-2.5-1.8-5.4-3.6-7.9-5.4l2.2-2.8c2.5,1.8,5,3.6,7.9,5.4L352.7,454.7z
			 M615.5,449.3l-2.2-2.8c2.5-1.8,5-3.6,7.5-5.8l2.2,2.8C620.5,445.3,618,447.2,615.5,449.3z M337,443.5c-2.5-1.8-5-3.9-7.5-6.1
			l2.2-2.8c2.5,2.2,5,3.9,7.2,6.1L337,443.5z M630.6,437.5l-2.2-2.8c2.5-2.2,4.7-4.3,7.2-6.1l2.5,2.5
			C635.3,433.1,633.1,435.3,630.6,437.5z M322.2,431c-2.5-2.2-4.7-4.3-6.9-6.9l2.5-2.5c2.2,2.2,4.7,4.3,6.9,6.5L322.2,431z
			 M644.6,424.1l-2.5-2.5c2.2-2.2,4.3-4.7,6.5-6.9l2.5,2.5C649.3,419.8,647.2,422,644.6,424.1z M308.9,417.3
			c-2.2-2.5-4.3-4.7-6.5-7.2l2.8-2.2c2.2,2.5,4.3,4.7,6.1,7.2L308.9,417.3z M657.9,410.1l-2.8-2.2c2.2-2.5,3.9-5,6.1-7.2l2.8,2.2
			C661.9,405.1,659.7,407.6,657.9,410.1z M296.4,402.9c-1.8-2.5-3.9-5-5.8-7.5l2.8-2.2c1.8,2.5,3.6,5,5.8,7.5L296.4,402.9z
			 M669.8,395l-2.8-2.2c1.8-2.5,3.6-5,5.4-7.9l2.8,1.8C673.3,389.6,671.6,392.5,669.8,395z M285.2,387.2c-1.8-2.5-3.6-5.4-5-8.2
			l3.2-1.8c1.8,2.8,3.2,5.4,5,7.9L285.2,387.2z M680.2,378.8L677,377c1.8-2.8,3.2-5.4,4.7-8.2l3.2,1.8
			C683.4,373.4,681.7,376,680.2,378.8z M275.1,370.6c-1.5-2.8-2.8-5.8-4.3-8.6l3.2-1.5c1.5,2.8,2.8,5.8,4.3,8.2L275.1,370.6z
			 M689.2,362l-3.2-1.5c1.5-2.8,2.8-5.8,3.9-8.6l3.2,1.5C692.1,356.2,690.6,359.1,689.2,362z M266.9,353.3c-1.5-2.8-2.5-5.8-3.6-9
			l3.2-1.5c1.1,2.8,2.5,5.8,3.6,8.6L266.9,353.3z M697.1,344.3l-3.2-1.5c1.1-2.8,2.2-5.8,3.2-9l3.2,1.1
			C699.2,338.2,698.1,341.1,697.1,344.3z M259.7,335.4c-1.1-2.8-2.2-6.1-2.8-9l3.6-1.1c1.1,2.8,1.8,6.1,2.8,9L259.7,335.4z
			 M703.2,326l-3.6-1.1c0.7-2.8,1.8-6.1,2.5-9l3.6,0.7C705,319.9,704.3,322.7,703.2,326z M254.3,317.1c-0.7-3.2-1.5-6.1-2.2-9.3
			l3.6-0.7c0.7,3.2,1.5,6.1,2.2,9.3L254.3,317.1z M708.2,307.4l-3.6-0.7c0.7-3.2,1.1-6.1,1.8-9.3l3.6,0.7
			C709.3,301.2,708.6,304.1,708.2,307.4z M250.3,298.3c-0.4-3.2-1.1-6.5-1.5-9.3l3.6-0.4c0.4,3.2,0.7,6.1,1.5,9.3L250.3,298.3z
			 M711.1,288.2l-3.6-0.4c0.4-3.2,0.7-6.1,1.1-9.3l3.6,0.4C711.9,281.8,711.5,285,711.1,288.2z M247.8,279.3
			c-0.4-3.2-0.4-6.5-0.7-9.7h3.6c0,3.2,0.4,6.5,0.7,9.3L247.8,279.3z M713.2,269.2H710c0-3.2,0.4-6.5,0.4-9.3V258h3.6v1.8
			C714,262.7,713.6,266,713.2,269.2z M246.8,259.9L246.8,259.9c0-3.6,0-6.5,0.4-9.7h3.6c0,2.8-0.4,6.1-0.4,9L246.8,259.9z
			 M709.3,249.4c0-3.2-0.4-6.5-0.7-9.3l3.6-0.4c0.4,3.2,0.4,6.5,0.7,9.7H709.3z M251.4,240.8l-3.6-0.4c0.4-3.2,0.7-6.5,1.1-9.7
			l3.6,0.4C252.2,234.7,251.8,237.9,251.4,240.8z M707.5,230.4c-0.4-3.2-0.7-6.1-1.5-9.3l3.6-0.7c0.4,3.2,1.1,6.5,1.5,9.3
			L707.5,230.4z M253.5,222.2l-3.6-0.7c0.4-3.2,1.1-6.5,1.8-9.3l3.6,0.7C254.6,216,254.3,218.9,253.5,222.2z M704.3,211.7
			c-0.7-3.2-1.5-6.1-2.2-9.3l3.6-0.7c0.7,3.2,1.5,6.1,2.2,9.3L704.3,211.7z M257.5,203.4l-3.6-0.7c0.7-3.2,1.8-6.1,2.5-9.3l3.6,1.1
			C259.3,197.4,258.2,200.6,257.5,203.4z M699.6,193.3c-1.1-2.8-1.8-6.1-2.8-9l3.2-1.1c1.1,2.8,2.2,6.1,2.8,9L699.6,193.3z
			 M262.9,185.5l-3.2-1.1c1.1-2.8,2.2-6.1,3.2-9l3.2,1.5C265.1,179.3,264,182.5,262.9,185.5z M693.5,175.4c-1.1-2.8-2.5-5.8-3.6-8.6
			l3.2-1.5c1.5,2.8,2.5,5.8,3.6,9L693.5,175.4z M269.7,167.8l-3.2-1.5c1.5-2.8,2.5-5.8,3.9-8.6l3.2,1.5
			C272.3,162.1,271.2,165,269.7,167.8z M686,158.1c-1.5-2.8-2.8-5.8-4.3-8.2l3.2-1.8c1.5,2.8,2.8,5.8,4.3,8.6L686,158.1z M278,150.6
			l-3.2-1.8c1.5-2.8,3.2-5.8,4.7-8.2l3.2,1.8C281.3,145.2,279.8,147.7,278,150.6z M677,141.6c-1.8-2.8-3.2-5.4-5-7.9l2.8-1.8
			c1.8,2.5,3.6,5.4,5,8.2L677,141.6z M287.7,134.4l-2.8-1.8c1.8-2.5,3.6-5.4,5.4-7.9l2.8,2.2C291.3,129,289.5,131.6,287.7,134.4z
			 M666.6,125.8c-1.8-2.5-3.6-5-5.8-7.5l2.8-2.2c1.8,2.5,3.9,5,5.8,7.5L666.6,125.8z M298.8,119l-2.8-2.2c1.8-2.5,3.9-5,6.1-7.5
			l2.8,2.2C302.8,113.9,300.7,116.5,298.8,119z M654.7,111.1c-2.2-2.5-4.3-4.7-6.5-7.2l2.5-2.5c2.2,2.5,4.3,4.7,6.5,7.2L654.7,111.1
			z M311.1,104.6l-2.5-2.5c2.2-2.5,4.3-4.7,6.9-6.9l2.5,2.5C315.4,99.9,313.2,102.1,311.1,104.6z M641.8,97.1
			c-2.2-2.2-4.7-4.3-6.9-6.5l2.5-2.5c2.5,2.2,4.7,4.3,6.9,6.9L641.8,97.1z M324.4,91l-2.5-2.5c2.5-2.2,4.7-4.3,7.2-6.5l2.2,2.8
			C329,86.7,326.9,88.8,324.4,91z M627.7,84.1c-2.5-2.2-5-3.9-7.5-6.1l2.2-2.8c2.5,1.8,5,3.9,7.5,6.1L627.7,84.1z M338.7,78.7
			l-2.2-2.8c2.5-1.8,5-3.9,7.5-5.8l2.2,2.8C343.8,74.8,341.3,77,338.7,78.7z M613,72.6c-2.5-1.8-5-3.6-7.9-5.4l1.8-2.8
			c2.5,1.8,5.4,3.6,7.9,5.4L613,72.6z M354.2,67.5l-1.8-2.8c2.5-1.8,5.4-3.6,8.2-5l1.8,3.2C359.6,64.3,357.1,66.2,354.2,67.5z
			 M597.2,62.2c-2.8-1.5-5.4-3.2-8.2-4.7l1.8-3.2c2.8,1.5,5.8,3.2,8.2,4.7L597.2,62.2z M370.4,57.8l-1.8-3.2
			c2.8-1.5,5.8-2.8,8.6-4.3l1.5,3.2C376.1,55,373.2,56.5,370.4,57.8z M580.3,53.2c-2.8-1.5-5.8-2.8-8.6-3.9l1.5-3.2
			c2.8,1.5,5.8,2.5,8.6,3.9L580.3,53.2z M387.6,49.6l-1.8-3.2c2.8-1.5,5.8-2.5,9-3.6l1.5,3.2C393.3,47.1,390.5,48.5,387.6,49.6z
			 M563,45.7c-2.8-1.1-5.8-2.2-9-3.2l1.1-3.2c2.8,1.1,6.1,2.2,9,3.2L563,45.7z M405.2,42.7l-1.5-3.6c2.8-1.1,6.1-2.2,9-2.8l1.1,3.6
			C411,40.6,408.1,41.7,405.2,42.7z M545.1,39.5c-2.8-0.7-6.1-1.8-9-2.5l0.7-3.6c3.2,0.7,6.1,1.8,9.3,2.5L545.1,39.5z M423.2,37.4
			l-0.7-3.6c2.8-0.7,6.1-1.5,9.3-2.2l0.7,3.6C429.3,36,426.5,36.7,423.2,37.4z M526.8,34.9c-3.2-0.7-6.1-1.1-9.3-1.8l0.7-3.6
			c3.2,0.4,6.5,1.1,9.3,1.8L526.8,34.9z M441.9,33.4l-0.7-3.6c3.2-0.7,6.5-1.1,9.3-1.5l0.4,3.6C448,32.4,444.8,32.7,441.9,33.4z
			 M508,32c-3.2-0.4-6.1-0.7-9.3-1.1l0.4-3.6c3.2,0.4,6.5,0.7,9.7,1.1L508,32z M460.6,30.9l-0.4-3.6c3.2-0.4,6.5-0.4,9.7-0.7v3.6
			C466.7,30.6,463.8,30.9,460.6,30.9z M489,30.9c-2.8,0-6.1,0.4-9,0.4h0.4v-3.6H480c3.2,0,6.1-0.4,9,0V30.9z"/>
	</g>
	<g>
		<g>
			<path fill="#792323" d="M362.5,184.8V174c0-0.8-0.1-1.4-0.4-1.6c-0.3-0.3-0.8-0.4-1.6-0.4h-5.3c-4.3,0-6.4-2.1-6.4-6.3V154
				c0-4.1,2.2-6.2,6.6-6.2h7c4.4,0,6.6,2.1,6.6,6.2v6.5h-6.4V155c0-0.8-0.2-1.4-0.5-1.6c-0.3-0.3-0.8-0.4-1.7-0.4h-2.9
				c-0.8,0-1.4,0.1-1.7,0.4c-0.3,0.3-0.5,0.8-0.5,1.6v9.8c0,0.8,0.2,1.4,0.5,1.6c0.3,0.3,0.8,0.4,1.7,0.4h5.1c4.3,0,6.5,2.1,6.5,6.2
				v12.7c0,4.1-2.2,6.2-6.7,6.2h-6.9c-4.4,0-6.6-2.1-6.6-6.2v-6.5h6.4v5.5c0,0.8,0.2,1.4,0.5,1.6c0.3,0.3,0.8,0.4,1.7,0.4h2.9
				c0.8,0,1.4-0.1,1.6-0.4C362.4,186.2,362.5,185.7,362.5,184.8z"/>
			<path fill="#792323" d="M389.8,147.8h6.4v38c0,4.1-2.2,6.2-6.7,6.2h-7.8c-4.4,0-6.6-2.1-6.6-6.2v-38h6.4v37
				c0,0.8,0.2,1.4,0.5,1.6c0.3,0.3,0.8,0.4,1.7,0.4h4c0.9,0,1.5-0.1,1.7-0.4c0.3-0.3,0.4-0.8,0.4-1.6L389.8,147.8L389.8,147.8z"/>
			<path fill="#792323" d="M403.3,147.8h15.3c4.4,0,6.6,2.1,6.6,6.2v11.3c0,2.5-0.9,3.9-2.8,4.4c1.9,0.5,2.8,1.8,2.8,4.1v12.1
				c0,4.1-2.2,6.2-6.6,6.2h-15.3V147.8z M418.8,165V155c0-0.8-0.2-1.4-0.5-1.6c-0.3-0.3-0.8-0.4-1.7-0.4h-7v14.2h7
				c0.8,0,1.4-0.1,1.7-0.4C418.7,166.4,418.8,165.8,418.8,165z M418.8,185v-10.9c0-0.8-0.2-1.4-0.5-1.6c-0.3-0.3-0.8-0.4-1.7-0.4h-7
				v15h7c0.8,0,1.4-0.1,1.7-0.4C418.7,186.3,418.8,185.8,418.8,185z"/>
			<path fill="#792323" d="M437.8,192h-5.6v-44.2h7l7.6,27.4l7.6-27.4h7V192h-5.6v-32.3l-6,22.7h-5.8l-6-22.7L437.8,192L437.8,192z"
				/>
			<path fill="#792323" d="M469.1,147.8h6.3V192h-6.3V147.8z"/>
			<path fill="#792323" d="M501.3,147.8v5.1h-7.4V192h-6.3v-39.1h-7.4v-5.1H501.3z"/>
			<path fill="#792323" d="M528,192h-6.4v-14l-9.4-30.2h6.5l6.1,24.3l5.8-24.3h6.5L528,178V192L528,192z"/>
			<path fill="#792323" d="M547.3,147.8h7.9c4.4,0,6.6,2.1,6.6,6.2v31.8c0,4.1-2.2,6.2-6.6,6.2h-7.9c-4.4,0-6.6-2.1-6.6-6.2V154
				C540.6,149.9,542.9,147.8,547.3,147.8z M555.3,184.8V155c0-0.8-0.2-1.4-0.5-1.6c-0.3-0.3-0.8-0.4-1.7-0.4H549
				c-0.8,0-1.4,0.1-1.6,0.4c-0.3,0.3-0.4,0.8-0.4,1.6v29.7c0,0.8,0.1,1.4,0.4,1.6c0.3,0.3,0.8,0.4,1.6,0.4h4.1
				c0.8,0,1.4-0.1,1.7-0.4C555.2,186.2,555.3,185.7,555.3,184.8z"/>
			<path fill="#792323" d="M583.2,147.8h6.4v38c0,4.1-2.2,6.2-6.6,6.2h-7.9c-4.4,0-6.6-2.1-6.6-6.2v-38h6.4v37
				c0,0.8,0.2,1.4,0.5,1.6c0.3,0.3,0.8,0.4,1.7,0.4h4c0.9,0,1.5-0.1,1.7-0.4c0.3-0.3,0.4-0.8,0.4-1.6L583.2,147.8L583.2,147.8z"/>
			<path fill="#792323" d="M603.1,174.2V192h-6.3v-44.2h14.5c4.4,0,6.6,2.1,6.6,6.2v13.8c0,3.6-1.6,5.6-4.8,6.1l7,18h-6.9l-6.6-17.8
				H603.1z M603.1,153v16.1h6.2c0.8,0,1.4-0.1,1.7-0.4c0.3-0.3,0.5-0.8,0.5-1.6V155c0-0.8-0.2-1.4-0.5-1.6c-0.3-0.3-0.8-0.4-1.7-0.4
				H603.1z"/>
		</g>
	</g>
	<g>
		<path fill="#792323" d="M382.5,217.8v21h-26.5v129.9h-27.5V238.9h-26.3v-21H382.5z"/>
		<path fill="#792323" d="M457.2,368.8l-5.8-31.3h-33l-5.3,31.3h-27.5l30.4-151h37.2l31.8,151H457.2z M422,316.7h25.6l-13.2-72.3
			L422,316.7z"/>
		<path fill="#792323" d="M525.8,347.8h40.2v21h-67.7v-151h27.5V347.8z"/>
		<path fill="#792323" d="M578.2,368.8v-151h27.5v151H578.2z M666.7,217.8L635.6,293l30.8,75.9h-29.6L606.8,293l30.2-75.1H666.7z"/>
	</g>
</g>
</svg>
