<?xml version="1.0" encoding="utf-8"?>
<!-- Generator: Adobe Illustrator 18.1.1, SVG Export Plug-In . SVG Version: 6.00 Build 0)  -->
<!DOCTYPE svg PUBLIC "-//W3C//DTD SVG 1.1//EN" "http://www.w3.org/Graphics/SVG/1.1/DTD/svg11.dtd">
<svg version="1.1" id="Layer_1" xmlns="http://www.w3.org/2000/svg" xmlns:xlink="http://www.w3.org/1999/xlink" x="0px" y="0px"
	 viewBox="220.5 0 519 560" enable-background="new 220.5 0 519 560" xml:space="preserve">
<g>
	<circle opacity="0.1" fill="#883E26" enable-background="new    " cx="480" cy="300.5" r="259.5"/>
	<circle fill="#FFFFFF" cx="480" cy="259.5" r="259.5"/>
	<circle fill="#FF6666" cx="480" cy="259.5" r="232.9"/>
	<g>
		<g>
			<path fill="#FFFFFF" d="M362.5,184.8V174c0-0.8-0.1-1.4-0.4-1.6c-0.3-0.3-0.8-0.4-1.6-0.4h-5.3c-4.3,0-6.4-2.1-6.4-6.3V154
				c0-4.1,2.2-6.2,6.6-6.2h7c4.4,0,6.6,2.1,6.6,6.2v6.5h-6.4V155c0-0.8-0.2-1.4-0.5-1.6c-0.3-0.3-0.8-0.4-1.7-0.4h-2.9
				c-0.8,0-1.4,0.1-1.7,0.4c-0.3,0.3-0.5,0.8-0.5,1.6v9.8c0,0.8,0.2,1.4,0.5,1.6c0.3,0.3,0.8,0.4,1.7,0.4h5.1c4.3,0,6.5,2.1,6.5,6.2
				v12.7c0,4.1-2.2,6.2-6.7,6.2h-6.9c-4.4,0-6.6-2.1-6.6-6.2v-6.5h6.4v5.5c0,0.8,0.2,1.4,0.5,1.6c0.3,0.3,0.8,0.4,1.7,0.4h2.9
				c0.8,0,1.4-0.1,1.6-0.4C362.4,186.2,362.5,185.7,362.5,184.8z"/>
			<path fill="#FFFFFF" d="M389.8,147.8h6.4v38c0,4.1-2.2,6.2-6.7,6.2h-7.8c-4.4,0-6.6-2.1-6.6-6.2v-38h6.4v37
				c0,0.8,0.2,1.4,0.5,1.6c0.3,0.3,0.8,0.4,1.7,0.4h4c0.9,0,1.5-0.1,1.7-0.4c0.3-0.3,0.4-0.8,0.4-1.6L389.8,147.8L389.8,147.8z"/>
			<path fill="#FFFFFF" d="M403.3,147.8h15.3c4.4,0,6.6,2.1,6.6,6.2v11.3c0,2.5-0.9,3.9-2.8,4.4c1.9,0.5,2.8,1.8,2.8,4.1v12.1
				c0,4.1-2.2,6.2-6.6,6.2h-15.3V147.8z M418.8,165V155c0-0.8-0.2-1.4-0.5-1.6c-0.3-0.3-0.8-0.4-1.7-0.4h-7v14.2h7
				c0.8,0,1.4-0.1,1.7-0.4C418.7,166.4,418.8,165.8,418.8,165z M418.8,185v-10.9c0-0.8-0.2-1.4-0.5-1.6c-0.3-0.3-0.8-0.4-1.7-0.4h-7
				v15h7c0.8,0,1.4-0.1,1.7-0.4C418.7,186.3,418.8,185.8,418.8,185z"/>
			<path fill="#FFFFFF" d="M437.8,192h-5.6v-44.2h7l7.6,27.4l7.6-27.4h7V192h-5.6v-32.3l-6,22.7h-5.8l-6-22.7L437.8,192L437.8,192z"
				/>
			<path fill="#FFFFFF" d="M469.1,147.8h6.3V192h-6.3V147.8z"/>
			<path fill="#FFFFFF" d="M501.3,147.8v5.1h-7.4V192h-6.3v-39.1h-7.4v-5.1H501.3z"/>
			<path fill="#FFFFFF" d="M528,192h-6.4v-14l-9.4-30.2h6.5l6.1,24.3l5.8-24.3h6.5L528,178V192L528,192z"/>
			<path fill="#FFFFFF" d="M547.3,147.8h7.9c4.4,0,6.6,2.1,6.6,6.2v31.8c0,4.1-2.2,6.2-6.6,6.2h-7.9c-4.4,0-6.6-2.1-6.6-6.2V154
				C540.6,149.9,542.9,147.8,547.3,147.8z M555.3,184.8V155c0-0.8-0.2-1.4-0.5-1.6c-0.3-0.3-0.8-0.4-1.7-0.4H549
				c-0.8,0-1.4,0.1-1.6,0.4c-0.3,0.3-0.4,0.8-0.4,1.6v29.7c0,0.8,0.1,1.4,0.4,1.6c0.3,0.3,0.8,0.4,1.6,0.4h4.1
				c0.8,0,1.4-0.1,1.7-0.4C555.2,186.2,555.3,185.7,555.3,184.8z"/>
			<path fill="#FFFFFF" d="M583.2,147.8h6.4v38c0,4.1-2.2,6.2-6.6,6.2h-7.9c-4.4,0-6.6-2.1-6.6-6.2v-38h6.4v37
				c0,0.8,0.2,1.4,0.5,1.6c0.3,0.3,0.8,0.4,1.7,0.4h4c0.9,0,1.5-0.1,1.7-0.4c0.3-0.3,0.4-0.8,0.4-1.6L583.2,147.8L583.2,147.8z"/>
			<path fill="#FFFFFF" d="M603.1,174.2V192h-6.3v-44.2h14.5c4.4,0,6.6,2.1,6.6,6.2v13.8c0,3.6-1.6,5.6-4.8,6.1l7,18h-6.9l-6.6-17.8
				H603.1z M603.1,153v16.1h6.2c0.8,0,1.4-0.1,1.7-0.4c0.3-0.3,0.5-0.8,0.5-1.6V155c0-0.8-0.2-1.4-0.5-1.6c-0.3-0.3-0.8-0.4-1.7-0.4
				H603.1z"/>
		</g>
	</g>
	<g>
		<path fill="#FFFFFF" d="M382.5,217.8v21h-26.5v129.9h-27.5V238.9h-26.3v-21H382.5z"/>
		<path fill="#FFFFFF" d="M457.2,368.8l-5.8-31.3h-33l-5.3,31.3h-27.5l30.4-151h37.2l31.8,151H457.2z M422,316.7h25.6l-13.2-72.3
			L422,316.7z"/>
		<path fill="#FFFFFF" d="M525.8,347.8h40.2v21h-67.7v-151h27.5V347.8z"/>
		<path fill="#FFFFFF" d="M578.2,368.8v-151h27.5v151H578.2z M666.7,217.8L635.6,293l30.8,75.9h-29.6L606.8,293l30.2-75.1H666.7z"/>
	</g>
</g>
</svg>
