<?xml version="1.0" encoding="utf-8"?>
<!-- Generator: Adobe Illustrator 18.1.1, SVG Export Plug-In . SVG Version: 6.00 Build 0)  -->
<!DOCTYPE svg PUBLIC "-//W3C//DTD SVG 1.1//EN" "http://www.w3.org/Graphics/SVG/1.1/DTD/svg11.dtd">
<svg version="1.1" id="Layer_1" xmlns="http://www.w3.org/2000/svg" xmlns:xlink="http://www.w3.org/1999/xlink" x="0px" y="0px"
	 width="183.622px" height="204.07px" viewBox="0 0 183.622 204.07" enable-background="new 0 0 183.622 204.07"
	 xml:space="preserve">
<g>
	<path fill="#DB565D" d="M157.101,174.491l0.108,14.094L27.565,189.58l-0.108-14.094
		C27.456,175.486,157.576,173.629,157.101,174.491z"/>
	<g>
		<path fill="#DB565D" d="M160.846,117.896l6.186-0.048c0.717-0.006,1.299-0.596,1.293-1.313l-0.024-3.108
			c-0.006-0.782,0.629-1.428,1.412-1.434l3.582-0.028c0.458-0.004,0.827-0.378,0.823-0.836l-0.032-4.166
			c-0.004-0.463-0.382-0.835-0.845-0.832l-4.169,0.032c-0.456,0.004-0.83-0.364-0.833-0.82l-0.028-3.593
			c-0.006-0.778-0.647-1.409-1.425-1.403l-4.178,0.032c-0.492,0.004-0.893-0.392-0.897-0.883l-0.016-2.066
			c-0.004-0.515,0.411-0.936,0.926-0.94l4.135-0.032c0.778-0.006,1.409-0.647,1.403-1.425l-0.019-2.518l-0.021-2.675l-0.02-2.624
			c-0.005-0.628-0.522-1.137-1.15-1.133l-6.051,0.046c-1.429,0.011-1.545-2.096-0.103-2.227c0.604-0.055,1.026-0.628,0.959-1.23
			l-0.463-4.148c-0.069-0.615-0.623-1.058-1.239-0.989l-1.547,0.173c-0.849,0.095-1.611-0.5-1.748-1.343
			c-0.002-0.014-0.005-0.028-0.007-0.042c-0.134-0.823,0.373-1.614,1.182-1.815l6.99-1.733c0.601-0.149,0.967-0.756,0.818-1.357
			l-1.005-4.055c-0.149-0.601-0.757-0.967-1.357-0.818l-6.906,1.712c-0.82,0.203-1.646-0.274-1.9-1.081
			c-0.087-0.276-0.175-0.551-0.266-0.825c-0.194-0.589,0.095-1.226,0.672-1.457c0.575-0.23,0.854-0.882,0.624-1.457l-1.552-3.879
			c-0.23-0.575-0.882-0.854-1.457-0.624c-0.589,0.235-1.252-0.03-1.528-0.601c-0.174-0.359-0.351-0.717-0.531-1.073
			c-0.291-0.574-0.088-1.273,0.471-1.592l6.533-3.724c0.538-0.306,0.725-0.991,0.419-1.529l-2.069-3.63
			c-0.306-0.538-0.991-0.725-1.528-0.419l-6.653,3.792c-0.546,0.311-1.234,0.145-1.589-0.373c-0.221-0.324-0.445-0.645-0.672-0.965
			c-0.375-0.529-0.273-1.257,0.241-1.653l3.91-3.007c0.491-0.377,0.582-1.081,0.205-1.571l-2.547-3.312
			c-0.377-0.491-1.081-0.583-1.572-0.205l-4.096,3.15c-0.494,0.38-1.193,0.315-1.616-0.143c-0.258-0.279-0.519-0.555-0.782-0.83
			c-0.452-0.472-0.454-1.213,0.004-1.679l5.581-5.667c0.434-0.441,0.429-1.15-0.012-1.585l-2.977-2.932
			c-0.441-0.434-1.15-0.429-1.584,0.012l-5.805,5.895c-0.435,0.441-1.129,0.476-1.613,0.088c-11.493-9.224-26.114-14.7-42-14.578
			c-12.131,0.093-23.476,3.437-33.216,9.198c-0.636,0.376-1.454,0.169-1.82-0.473l-4.977-8.732c-0.502-0.88-1.622-1.187-2.502-0.685
			l-2.389,1.362c-0.88,0.502-1.187,1.622-0.685,2.502l5.351,9.388c0.321,0.564,0.183,1.279-0.325,1.682l-0.021,0.017
			c-0.576,0.457-1.413,0.354-1.861-0.229l-8.551-11.12c-0.58-0.755-1.663-0.896-2.418-0.316l-2.355,1.811
			c-0.755,0.581-0.896,1.663-0.316,2.418l9.693,12.605c-0.51,0.442-0.3,0.26-0.81,0.702l-3.699-3.796
			c-0.711-0.73-1.879-0.745-2.608-0.034l-1.955,1.906c-0.73,0.711-0.745,1.878-0.034,2.608l2.861,2.936
			c0.453,0.465-0.191,1.17-0.695,0.761l-10.311-8.364c-0.877-0.711-2.165-0.577-2.876,0.3l-1.467,1.809
			c-0.711,0.877-0.578,2.165,0.3,2.876l11.26,9.134c0.472,0.383,0.582,1.053,0.265,1.573c-1.499,2.458-2.841,5.021-4.015,7.674
			c-0.269,0.609-0.972,0.894-1.584,0.631l-3.01-1.29c-0.829-0.355-1.789,0.029-2.144,0.858l-1.242,2.899
			c-0.355,0.829,0.029,1.789,0.858,2.144l3.453,1.479c0.564,0.242,0.851,0.865,0.679,1.454c-0.77,2.63-1.381,5.328-1.822,8.081
			c-0.104,0.649-0.696,1.101-1.348,1.016l-4.013-0.524c-0.894-0.117-1.714,0.514-1.83,1.408l-0.408,3.128
			c-0.117,0.894,0.514,1.713,1.407,1.829l4.332,0.563c0.618,0.08,1.067,0.616,1.05,1.238c-0.007,0.249-0.012,0.498-0.016,0.747
			c-0.01,0.66-0.538,1.194-1.198,1.199l-7.411,0.057c-0.69,0.005-1.245,0.569-1.239,1.259l0.02,2.64l-0.648,0.005l0.04,5.186
			l-3.799,0.029c-1.482,0.011-2.674,1.222-2.662,2.704l0.01,1.275c0.011,1.389,1.155,2.516,2.544,2.505l2.265-0.017
			c0.931-0.007,1.699,0.749,1.706,1.68l0.008,1.084c0.007,0.861-0.717,1.495-1.577,1.49c-1.227-0.006-2.293,0.992-2.284,2.217
			l0.016,2.035c0.01,1.254,1.067,2.151,2.321,2.167c0.84,0.011,1.591,0.69,1.597,1.533l0.017,2.259
			c0.007,0.95,0.791,1.722,1.741,1.715l5.945-0.046c1.128-0.009,2.057,0.907,2.066,2.035l0.002,0.273
			c0.007,0.865-0.689,1.571-1.553,1.578l-6.328,0.049c-1.007,0.008-1.824,0.837-1.816,1.844l0.024,3.174
			c0.001,0.099-0.078,0.195-0.06,0.289c-0.26,0.537-0.878,0.915-1.503,0.92c-1.214,0.009-2.31,1.002-2.3,2.217l0.016,2.02
			c0.01,1.241,1.045,2.265,2.283,2.185c0.675-0.044,0.944,0.315,1.63,0.843l0.021,2.728l-4.083,0.031
			c-0.967,0.007-1.745,0.797-1.738,1.765l0.023,2.98c0.007,0.963,0.802,1.745,1.765,1.738l4.434-0.034
			c-0.22,0.65-0.346,0.758-0.342,1.184l0.022,2.886c-0.111,0.22,0.004,0.464,0.006,0.728l0.025,3.218
			c0.007,0.941,0.783,1.704,1.723,1.697l3.232-0.025c-0.264,0.65-0.727,0.654-1.248,0.658l-2.394,0.018
			c-0.715,0.005-1.29,0.59-1.285,1.305l0.03,3.891l-4.083,0.031c-0.967,0.007-1.745,0.797-1.738,1.765l0.023,2.98
			c0.007,0.967,0.797,1.745,1.765,1.738l5.912-0.044c0.876-0.007,1.771,0.698,1.771,1.574v0.009c0,0.906-0.902,1.652-1.807,1.659
			l-0.264,0.001c-0.783,0.006-1.456,0.646-1.45,1.429l0.004,3.355c0.007,0.941,0.772,1.704,1.712,1.697l150.499-1.156
			c0.778-0.006,1.407-0.647,1.401-1.425l-0.029-3.654c-0.006-0.781-0.645-1.409-1.426-1.403l-2.039,0.016
			c-0.599,0.005-1.089-0.478-1.094-1.077l-0.008-1.05c-0.005-0.611,0.486-1.11,1.097-1.114l6.297-0.048
			c0.566-0.004,1.021-0.466,1.016-1.032l-0.033-4.289c-0.005-0.643-0.535-1.165-1.178-1.16l-1.893,0.015
			c-0.456,0.004-0.83-0.364-0.833-0.82l-0.026-3.353c-0.004-0.556-0.458-1.003-1.014-0.998l-4.586,0.035
			c-0.455,0.003-0.726-0.643-0.836-0.642l5.009-0.038c0.778-0.006,1.409-0.647,1.403-1.425l-0.022-2.864
			c-0.001-0.155-0.003-0.352-0.005-0.588l-0.032-4.178c-0.002-0.233-0.118-0.679-0.291-0.677l3.151-0.024
			c0.566-0.004,1.021-0.466,1.016-1.032l-0.033-4.289c-0.005-0.643-0.535-1.165-1.178-1.16l-1.893,0.015
			c-0.329,0.003-0.622-0.091-0.829-0.315l-0.016-2.146c-0.006-0.782,0.629-1.428,1.412-1.434l3.582-0.028
			c0.458-0.004,0.827-0.378,0.823-0.836l-0.032-4.166c-0.004-0.463-0.382-0.835-0.845-0.832l-4.169,0.032
			c-0.456,0.004-0.83-0.364-0.833-0.82l-0.028-3.684c-0.001-0.196-0.003-0.368-0.004-0.49l-0.001-0.153
			c-0.006-0.73-0.608-1.323-1.338-1.318l-5.869,0.045c-0.676,0.005-1.234-0.544-1.239-1.221l-0.013-1.722
			C159.911,118.323,160.328,117.9,160.846,117.896z"/>
		<path fill="#DB565D" d="M163.691,78.671c-0.008,0.034-0.008,0.07-0.014,0.104c-0.017,0.096-0.034,0.191-0.038,0.29
			c-0.004,0.12,0.014,0.242,0.03,0.364c0.002,0.015,0.01,0.029,0.01,0.043v0.005c0,0.009-0.024,0.019-0.022,0.028l0.022,0.247v0.244
			c0,0.009,0,0.018,0,0.027v0.005c0,0.015,0.049,0.029,0.052,0.045c0.025,0.12,0.074,0.238,0.118,0.348
			c0.036,0.093,0.094,0.178,0.141,0.263c0.017,0.03,0.034,0.063,0.052,0.092c0.437,0.698,1.269,1.101,2.131,0.95l1.137-0.198
			l1.14-0.187c0.863-0.142,1.513-0.795,1.696-1.599c0.007-0.032,0.008-0.067,0.014-0.099c0.017-0.097,0.035-0.194,0.038-0.295
			c0.004-0.118-0.253-0.238-0.27-0.359c-0.002-0.016-0.25-0.03-0.25-0.046v-0.005c0-0.009,0.246-0.019,0.244-0.028l0.081-0.245
			l-0.179-0.246c-0.001-0.009-0.146-0.018-0.146-0.027v-0.005c0-0.015,0.191-0.029,0.187-0.044c-0.024-0.12,0.046-0.238,0.002-0.349
			c-0.036-0.092-0.033-0.176-0.08-0.26c-0.017-0.031-0.005-0.065-0.024-0.095c-0.438-0.698-1.253-1.101-2.115-0.95l-1.132,0.199
			l-1.134,0.187C164.521,77.215,163.874,77.867,163.691,78.671z"/>
		<path fill="#DB565D" d="M18.834,72.897l2.28,0.487c1.128,0.241,2.238-0.478,2.479-1.606l0.111-0.518
			c0.241-1.128-0.478-2.238-1.606-2.479l-2.28-0.487c-1.128-0.241-2.238,0.478-2.479,1.606l-0.111,0.518
			C16.987,71.546,17.706,72.656,18.834,72.897z"/>
	</g>
	<g>
		<path fill="#FF6666" d="M158.657,174.311l-133.38,1.024c-4.653,0.036-8.454-3.707-8.49-8.361l0,0l150.231-1.154v0
			C167.053,170.475,163.31,174.276,158.657,174.311z"/>
		<polyline opacity="0.2" fill="#DB565D" points="29.017,155.022 16.787,166.975 167.018,165.821 154.606,154.057 		"/>
		<polygon fill="#DB565D" points="52.646,163.457 132.378,162.845 140.544,156.987 144.694,161.005 144.488,156.956 
			149.841,158.834 147.24,154.303 66.842,154.92 		"/>
		<path fill="#FF6666" d="M29.021,155.638L28.5,87.771C28.234,53.09,56.132,24.76,90.813,24.494s63.011,27.632,63.277,62.312
			l0.521,67.867L29.021,155.638z"/>
		<g>
			<path fill="#FF6666" d="M59.865,5.353l0.966,2.24l-2.826,1.219l5.962,13.822l-2.927,1.263l-5.961-13.822l-2.8,1.208l-0.966-2.24
				L59.865,5.353z"/>
			<path fill="#FF6666" d="M62.813,4.456l3.049-0.93l5.102,16.732l-3.049,0.93L62.813,4.456z"/>
			<path fill="#FF6666" d="M80.09,6.431L76.925,7l-0.481-2.674c-0.052-0.291-0.142-0.477-0.269-0.557
				c-0.127-0.08-0.337-0.094-0.627-0.042l-1.282,0.231c-0.291,0.052-0.482,0.138-0.573,0.258c-0.091,0.12-0.111,0.325-0.058,0.616
				l2.013,11.187c0.052,0.291,0.142,0.477,0.269,0.557c0.127,0.081,0.336,0.095,0.627,0.042l1.282-0.231
				c0.29-0.052,0.482-0.138,0.573-0.258c0.091-0.119,0.111-0.325,0.058-0.616l-0.471-2.619l3.165-0.57l0.53,2.947
				c0.324,1.801-0.506,2.879-2.488,3.236L76,19.081c-1.983,0.357-3.136-0.365-3.46-2.166L70.41,5.074
				c-0.324-1.801,0.505-2.88,2.488-3.236l3.192-0.574c1.982-0.357,3.136,0.365,3.46,2.166L80.09,6.431z"/>
			<path fill="#FF6666" d="M83.744,17.803L83.201,0.318l3.186-0.099l0.544,17.485L83.744,17.803z M93.453,0l-3.332,8.812
				l3.848,8.673l-3.436,0.107l-3.737-8.676l3.221-8.809L93.453,0z"/>
			<path fill="#FF6666" d="M98.391,15.555l5.293,0.566l-0.26,2.426l-8.49-0.908l1.86-17.393l8.27,0.884l-0.26,2.426l-5.072-0.543
				l-0.516,4.824l4.273,0.457l-0.262,2.453l-4.273-0.457L98.391,15.555z"/>
			<path fill="#FF6666" d="M116.653,3.745l-0.574,2.371l-2.991-0.725l-3.545,14.63l-3.098-0.751l3.545-14.63l-2.964-0.718
				l0.574-2.371L116.653,3.745z"/>
			<path fill="#FF6666" d="M119.632,20.122l1.393-3.473c0.11-0.274,0.133-0.479,0.067-0.615c-0.065-0.135-0.235-0.259-0.509-0.368
				l-2.084-0.836c-1.767-0.709-2.306-1.92-1.618-3.636l1.599-3.988c0.681-1.698,1.948-2.176,3.801-1.432l2.83,1.135
				c1.853,0.743,2.438,1.964,1.757,3.662l-0.908,2.264l-2.985-1.197l0.743-1.853c0.11-0.274,0.133-0.479,0.067-0.615
				c-0.065-0.135-0.235-0.258-0.509-0.368L122.3,8.408c-0.292-0.117-0.508-0.149-0.649-0.096c-0.141,0.053-0.266,0.217-0.376,0.491
				l-1.311,3.268c-0.11,0.275-0.133,0.48-0.067,0.615c0.065,0.136,0.243,0.262,0.535,0.379l2.033,0.815
				c1.801,0.723,2.364,1.924,1.69,3.605l-1.703,4.246c-0.681,1.698-1.957,2.172-3.826,1.422l-2.779-1.115
				c-1.87-0.75-2.464-1.974-1.783-3.672l0.898-2.238l2.959,1.187l-0.733,1.827c-0.11,0.275-0.133,0.48-0.067,0.615
				c0.065,0.136,0.243,0.262,0.535,0.379l0.978,0.392c0.274,0.11,0.482,0.139,0.623,0.085
				C119.396,20.561,119.522,20.397,119.632,20.122z"/>
		</g>
		<path fill="#EE5C5D" d="M145.282,154.966l-0.525-68.306c-0.226-29.38-24.507-53.012-53.887-52.786
			c-29.38,0.226-53.296,24.228-53.07,53.608l0.525,68.306L145.282,154.966z"/>
		<path fill="#AF414C" d="M41.342,155.543l-0.519-67.622c-0.214-27.876,22.21-50.648,50.086-50.862s50.648,22.21,50.862,50.086
			l0.519,67.622L41.342,155.543z"/>
		<g>
			<polygon fill="#FF6666" points="43.119,17.305 47.233,19.37 51.266,17.152 50.573,21.703 53.929,24.853 49.387,25.6 
				47.428,29.765 45.314,25.677 40.747,25.1 43.982,21.826 			"/>
			<polygon fill="#FF6666" points="138.298,16.574 134.217,18.702 130.15,16.547 130.913,21.086 127.606,24.287 132.159,24.965 
				134.182,29.099 136.233,24.978 140.79,24.332 137.505,21.108 			"/>
		</g>
		<g>
			<path fill="#FF6666" d="M163.429,138.791l-6.806,0.052l-0.053-6.875l6.806-0.052c0.706-0.005,1.283,0.563,1.288,1.269
				l0.033,4.319C164.703,138.209,164.135,138.786,163.429,138.791z"/>
			<path fill="#FF6666" d="M182.353,138.646l-14.99,0.115c-0.706,0.005-1.283-0.562-1.288-1.269l-0.033-4.319
				c-0.005-0.706,0.563-1.283,1.269-1.288l14.99-0.115c0.706-0.005,1.283,0.563,1.288,1.269l0.033,4.319
				C183.627,138.064,183.059,138.641,182.353,138.646z"/>
			<path fill="#FF6666" d="M172.954,146.906l-14.99,0.115c-0.706,0.005-1.283-0.563-1.288-1.269l-0.033-4.319
				c-0.005-0.706,0.563-1.283,1.269-1.288l14.99-0.115c0.706-0.005,1.283,0.563,1.288,1.269l0.033,4.319
				C174.228,146.324,173.66,146.901,172.954,146.906z"/>
			<path fill="#FF6666" d="M172.828,130.531l-14.99,0.115c-0.706,0.005-1.283-0.563-1.288-1.269l-0.033-4.319
				c-0.005-0.706,0.563-1.283,1.269-1.288l14.99-0.115c0.706-0.005,1.283,0.563,1.288,1.269l0.033,4.319
				C174.102,129.949,173.534,130.526,172.828,130.531z"/>
		</g>
		<g>
			<path fill="#FF6666" d="M20.102,101.603l6.775-0.052l0.053,6.844l-6.775,0.052c-0.703,0.005-1.277-0.56-1.282-1.263l-0.033-4.299
				C18.833,102.183,19.399,101.609,20.102,101.603z"/>
			<path fill="#FF6666" d="M1.263,101.748l14.922-0.115c0.703-0.005,1.277,0.56,1.282,1.263l0.033,4.299
				c0.005,0.703-0.56,1.277-1.263,1.282l-14.922,0.115c-0.703,0.005-1.277-0.56-1.282-1.263L0,103.03
				C-0.005,102.327,0.56,101.753,1.263,101.748z"/>
			<path fill="#FF6666" d="M10.62,93.526l14.922-0.115c0.703-0.005,1.277,0.56,1.282,1.263l0.033,4.299
				c0.005,0.703-0.56,1.277-1.263,1.282l-14.922,0.115c-0.703,0.005-1.277-0.56-1.282-1.263l-0.033-4.299
				C9.351,94.105,9.917,93.531,10.62,93.526z"/>
			<path fill="#FF6666" d="M20.227,117.904l6.775-0.052l0.053,6.844l-6.775,0.052c-0.703,0.005-1.277-0.56-1.282-1.263l-0.033-4.299
				C18.959,118.483,19.524,117.909,20.227,117.904z"/>
			<path fill="#FF6666" d="M10.745,109.826l14.922-0.115c0.703-0.005,1.277,0.56,1.282,1.263l0.033,4.299
				c0.005,0.703-0.56,1.277-1.263,1.282l-14.922,0.115c-0.703,0.005-1.277-0.56-1.282-1.263l-0.033-4.299
				C9.477,110.405,10.042,109.831,10.745,109.826z"/>
		</g>
		<g>
			<path fill="#FF6666" d="M34.566,40.457l6.932,4.079l-4.177,5.482l-6.225-3.662c-0.393-0.231-0.524-0.737-0.293-1.129l2.634-4.477
				C33.668,40.357,34.173,40.226,34.566,40.457z"/>
			<path fill="#FF6666" d="M26.301,54.507l6.225,3.662l-2.704,6.314l-6.992-4.077c-0.393-0.231-0.524-0.737-0.293-1.129l2.634-4.477
				C25.402,54.407,25.908,54.276,26.301,54.507z"/>
			<path fill="#FF6666" d="M22.7,42.933l12.862,7.566c0.606,0.356,0.808,1.136,0.452,1.742l-2.18,3.705
				c-0.356,0.606-1.136,0.808-1.742,0.452L19.23,48.832c-0.606-0.356-0.808-1.136-0.452-1.742l2.18-3.705
				C21.314,42.779,22.094,42.576,22.7,42.933z"/>
		</g>
		<path fill="#FF6666" d="M158.088,62.322l-6.398,2.227l-2.25-6.464l6.398-2.227c0.664-0.231,1.389,0.12,1.62,0.784l1.413,4.06
			C159.102,61.365,158.751,62.091,158.088,62.322z"/>
		<path fill="#FF6666" d="M169.663,66.923l-14.093,4.905c-0.664,0.231-1.389-0.12-1.62-0.784l-1.413-4.06
			c-0.231-0.664,0.12-1.389,0.784-1.62l14.093-4.905c0.664-0.231,1.389,0.12,1.62,0.784l1.413,4.06
			C170.678,65.967,170.327,66.692,169.663,66.923z"/>
		<g>
			<path fill="#B6A999" d="M39.679,130.041c9,12.031,22.074,20.783,37.207,24.154l28.809-0.221
				c11.419-2.728,21.628-8.525,29.736-16.46l-0.385-53.465l-95.367,45.636V130.041z"/>
			<g>
				<path fill="#F6C785" d="M145.485,121.891c-0.153-0.756-0.706-4.273-0.953-4.983c-0.037-4.883,0.875-5.214-3.864-18.5
					c-0.001-16.853-13.452-17.635-13.452-17.635l0.718,8.017l-3.262,12.042c0.984,6.628,1.911,8.289,6.151,21.988
					c-1.101,10.124,5.428,27.813,5.428,27.813l5.605,1.116c0,0,4.532-19.703,3.503-26.743
					C145.606,123.922,145.659,122.886,145.485,121.891z"/>
				<path opacity="0.1" fill="#A67C52" d="M137.496,104.268c2.411,4.869,2.282,12.189,2.282,12.189S136.435,108.62,137.496,104.268z
					"/>
			</g>
			<path opacity="0.1" fill="#C99A6F" d="M145.485,121.891c-0.153-0.756-0.706-4.273-0.953-4.983
				c-0.037-4.883,0.875-5.214-3.864-18.5c-0.001-16.853-13.452-17.635-13.452-17.635l0.718,8.017l-3.262,12.042
				c0.984,6.627,1.911,8.289,6.151,21.988c-1.101,10.124,5.428,27.813,5.428,27.813l5.392,0.939c0,0,4.745-19.526,3.716-26.566
				C145.606,123.922,145.659,122.886,145.485,121.891z"/>
			<path fill="#B6A999" d="M122.976,74.996c-16.672-2.707-33.023-3.5-50.12-2.289c0,0,11.457,18.55,29.207,17.117
				S122.976,74.996,122.976,74.996z"/>
			<path fill="#F6C785" d="M129.804,109.059c-0.015-1.945-1.535-26.794-1.535-26.794c-3.969-0.492-12.384-3.708-12.384-3.708
				l-1.736-3.79l-32.389-3.183l-4.377,10.298l3.125,0.439c-7.194,1.581-14.521,3.573-21.956,5.893
				c3.218,11.887,5.738,26.1,7.851,37.539c9.61,10.947,9.905,26.166,9.282,41.254l45.073-9.867
				c-0.233-11.604,0.825-21.19,5.863-40.493C126.621,116.646,129.819,111.003,129.804,109.059z"/>
			<path opacity="0.1" fill="#C99A6F" d="M129.804,109.059c-0.015-1.945-1.535-26.794-1.535-26.794
				c-3.969-0.492-12.384-3.708-12.384-3.708l-1.736-3.79l-32.389-3.183l-4.377,10.298l3.125,0.439
				c-7.194,1.581-14.521,3.573-21.956,5.893c3.218,11.887,5.738,26.1,7.851,37.539c9.61,10.947,9.905,26.166,9.282,41.254
				l45.073-9.867c-0.233-11.604,0.825-21.19,5.863-40.493C126.621,116.646,129.819,111.003,129.804,109.059z"/>
			<g>
				<path opacity="0.1" fill="#C99A6F" d="M66.402,125.752c0.236,0.269,0.461,0.542,0.686,0.815
					c-2.114-11.414-5.339-26.542-8.537-38.354C61.769,100.1,64.289,114.313,66.402,125.752z"/>
				<path opacity="0.1" fill="#C99A6F" d="M75.684,167.006c0.571-13.829,0.477-27.466-6.484-37.551
					C76.059,139.995,76.24,153.551,75.684,167.006z"/>
				<path opacity="0.1" fill="#C99A6F" d="M129.804,109.059c-0.015-1.945-1.536-26.794-1.536-26.794
					c-3.968-0.492-12.384-3.708-12.384-3.708l-1.736-3.79l-32.389-3.183l23.339,10.085c0,0,1.2,8.753,3.702,14.31
					c0.56,1.05,0.971,1.93,1.28,2.787v0c-0.067-0.044-0.138-0.078-0.211-0.103c-1.475-0.505,0.652,10.934,1.18,17.305
					c0.09,1.087-0.438,2.125-1.365,2.701c-7.723,4.798-23.431,7.423-27.506,7.421c-2.925-0.998-2.468-4.977-2.468-4.977
					s-2.76-0.627-2.755,0.021c0.005,0.648,1.511,6.857,3.943,6.939c2.432,0.082,14.153-0.139,30.593-7.798
					c0.099-0.015,0.193-0.032,0.291-0.047c-0.381,6.45-2.643,35.655-2.944,39.521l11.918-2.609
					c-0.233-11.604,0.826-21.19,5.863-40.493C126.621,116.646,129.819,111.003,129.804,109.059z M114.027,117.173
					c0.004,0,0.008,0.001,0.013,0l0,0C114.035,117.174,114.031,117.173,114.027,117.173z M126.236,113.939
					c-0.058-0.026-0.142-0.037-0.25-0.033C126.094,113.902,126.178,113.913,126.236,113.939z M112.047,114.484
					c-0.001-0.027-0.003-0.055-0.004-0.082C112.045,114.429,112.046,114.457,112.047,114.484z M112.021,113.924
					c-0.003-0.065-0.005-0.132-0.008-0.198C112.016,113.792,112.018,113.859,112.021,113.924z M111.998,113.332
					c-0.003-0.072-0.005-0.147-0.008-0.22C111.992,113.185,111.995,113.26,111.998,113.332z M111.977,112.73
					c-0.003-0.097-0.006-0.197-0.009-0.295C111.971,112.534,111.974,112.633,111.977,112.73z M111.958,112.11
					c-0.003-0.116-0.007-0.233-0.01-0.35C111.952,111.877,111.955,111.994,111.958,112.11z M111.941,111.481
					c-0.012-0.438-0.023-0.883-0.035-1.333C111.918,110.598,111.929,111.044,111.941,111.481z M111.902,109.988
					c-0.004-0.168-0.009-0.336-0.013-0.505C111.893,109.652,111.898,109.82,111.902,109.988z M111.883,109.282
					c-0.004-0.151-0.008-0.302-0.013-0.453C111.875,108.98,111.879,109.131,111.883,109.282z M111.862,108.562
					c-0.004-0.132-0.008-0.263-0.013-0.395C111.853,108.299,111.858,108.43,111.862,108.562z M111.84,107.891
					c-0.005-0.134-0.01-0.267-0.015-0.4C111.83,107.624,111.835,107.757,111.84,107.891z M111.815,107.227
					c-0.005-0.133-0.011-0.266-0.017-0.398C111.804,106.961,111.809,107.094,111.815,107.227z M111.785,106.559
					c-0.006-0.128-0.012-0.256-0.019-0.384C111.773,106.302,111.779,106.43,111.785,106.559z M111.752,105.901
					c-0.007-0.123-0.014-0.245-0.021-0.367C111.738,105.656,111.745,105.778,111.752,105.901z M111.713,105.256
					c-0.008-0.12-0.016-0.239-0.024-0.357C111.698,105.017,111.705,105.136,111.713,105.256z M111.669,104.626
					c-0.009-0.114-0.018-0.228-0.027-0.34C111.651,104.399,111.66,104.512,111.669,104.626z M111.618,104.012
					c-0.01-0.11-0.02-0.218-0.031-0.326C111.598,103.794,111.609,103.902,111.618,104.012z M111.561,103.42
					c-0.011-0.107-0.023-0.211-0.035-0.315C111.538,103.209,111.55,103.313,111.561,103.42z M111.496,102.851
					c-0.013-0.103-0.027-0.205-0.04-0.305C111.469,102.646,111.483,102.747,111.496,102.851z M111.423,102.304
					c-0.014-0.098-0.03-0.193-0.045-0.288C111.393,102.112,111.408,102.207,111.423,102.304z M111.34,101.783
					c-0.016-0.092-0.033-0.18-0.05-0.269C111.307,101.603,111.324,101.692,111.34,101.783z M111.247,101.295
					c-0.018-0.086-0.036-0.169-0.055-0.251C111.211,101.126,111.23,101.208,111.247,101.295z M111.144,100.836
					c-0.019-0.079-0.04-0.154-0.061-0.23C111.104,100.682,111.125,100.757,111.144,100.836z M111.031,100.415
					c-0.022-0.073-0.045-0.141-0.067-0.21C110.986,100.273,111.009,100.342,111.031,100.415z M110.905,100.03
					c-0.024-0.066-0.049-0.127-0.075-0.189C110.856,99.903,110.881,99.964,110.905,100.03z M110.768,99.686
					c-0.026-0.059-0.055-0.113-0.083-0.168C110.713,99.573,110.741,99.627,110.768,99.686z M110.617,99.385
					c-0.03-0.052-0.062-0.098-0.093-0.145C110.555,99.287,110.587,99.332,110.617,99.385z M110.453,99.129
					c-0.034-0.046-0.07-0.084-0.106-0.124C110.382,99.046,110.419,99.084,110.453,99.129z M110.274,98.922
					c-0.041-0.04-0.085-0.071-0.128-0.104C110.189,98.85,110.233,98.881,110.274,98.922z"/>
			</g>
			<polygon opacity="0.1" fill="#A67C52" points="115.884,78.557 113.544,84.952 120.624,79.957 			"/>
			<path opacity="0.1" fill="#A67C52" d="M67.093,109.987c10.744,15.426,13.41,49.009,13.426,53.256l-5.267-7.05
				c0,0-3.813-22.746-5.178-25.325c-1.422-2.686-3.5-4.822-3.5-4.822L67.093,109.987z"/>
			<path fill="none" stroke="#FFFFFF" stroke-miterlimit="10" d="M137.074,127.154"/>
			<path fill="#F6C785" d="M65.203,103.18c3.209,8.326,3.319,17.378,1.366,26.676L44.48,160.521
				c-1.305-3.158-3.028-3.717-3.417-7.057c-0.296-2.538-0.063-5.474,0.73-10.452c-2.339-8.895-3.349-18.573-0.236-30.683
				L65.203,103.18z"/>
			<path fill="#F6C785" d="M66.569,129.856c-6.969,2.07-12.517,4.776-16.582,7.196c-5.989,3.565-9.549,10.199-8.869,17.136
				c0.188,1.915,0.6,2.773,0.853,3.504c0.48,1.383,1.326,2.626,2.466,3.546c9.497,7.663,24.317-5.83,30.815-5.045
				c0,0-1.024,5.606-0.803,6.252c0.221,0.647,4.012,15.085,4.012,15.085l4.141,4.285l7.663-43.605l16.207-0.124l4.569-10.407
				c-2.658-1.675-9.947-0.528-13.291,0.102c-3.345,0.63-10.976,5.811-10.976,5.811C79.646,133.862,75.94,129.191,66.569,129.856z"/>
			<path opacity="0.1" fill="#A67C52" d="M137.75,87.149c-2.39-0.476-4.46-0.227-7.115,2.5c-0.039,3.682,0.753,7.728,3.237,14.646
				c-3.166,3.297-4.513,11.109-4.349,15.657l-1.633-5.704c0.926-1.793,1.486-3.207,1.685-4.131
				c0.642-5.437-1.053-12.275-4.876-18.523l-13.613,0.105l19.422-9.852c0,0,2.73,0.73,4.505,2.202
				C136.741,85.48,137.75,87.149,137.75,87.149z"/>
			<path fill="#E6E6E6" d="M126.384,84.853c2.808,4.268,5.816,12.68,3.347,22.04c-0.764-8.395-3.163-11.934-6.126-17.17
				C124.441,87.658,125.179,86.031,126.384,84.853z"/>
			<path fill="#FFFFFF" d="M110.982,91.777c3.794-0.33,12.623-2.054,12.623-2.054c4.276-5.932,11.409-5.674,11.409-5.674
				c-4.921-4.11-11.998-3.786-11.998-3.786L110.982,91.777z"/>
			<path fill="#FFFFFF" d="M110.982,91.777c3.794-0.33,12.623-2.054,12.623-2.054c4.276-5.932,11.409-5.674,11.409-5.674
				c-4.921-4.11-11.998-3.786-11.998-3.786L110.982,91.777z"/>
			<path fill="#F2F2F2" d="M122.976,74.996l0.147,7.891c-1.651,2.083-6.465,7.405-12.14,8.89c0.051-0.269,0.493-7.547,0.493-7.547
				C117.975,81.212,122.976,74.996,122.976,74.996z"/>
			<path opacity="0.1" fill="#C99A6F" d="M66.427,106.928c8.637-3.608,33.726-4.017,44.393-15.15l-45.477,11.811
				c-0.048-0.137-0.09-0.272-0.14-0.409c-15.743,6.508-22.746,16.393-25.581,26.505c3.858-5.305,8.598-9.561,14.098-12.911
				c1.873,5.985,4.307,13.089,2.175,19.431l10.674-6.348c1.527-7.489,1.97-14.984-0.204-23.012L66.427,106.928z"/>
			<path fill="#FFFFFF" d="M110.982,91.777c-12.038,6.424-24.992,10.258-38.976,11.184c-7.152,0.473-14.028,3.125-19.539,7.709
				c-6.945,5.779-11.376,12.961-12.845,19.015c0,0-2.877-32.067,18.918-42.931c8.399-3.659,14.536-6.432,14.536-6.432
				L110.982,91.777z"/>
			<path fill="#A67C52" d="M103.224,80.801l1.854-0.4l-0.177,2.93c2.349,1.239,2.262,3.861,0.218,5.347
				c1.547-1.644,1.013-4.881-1.874-5.158L103.224,80.801z"/>
			<path fill="#F2F2F2" d="M72.692,72.546l0.06,7.779c5.883,6.38,23.63,16.997,38.068,11.453l-4.674-6.973
				C94.884,83.079,79.221,78.491,72.692,72.546z"/>
			<path opacity="0.1" fill="#C99A6F" d="M114.039,117.173c-0.982,0.09-1.851-0.641-1.926-1.625
				c-0.409-5.395,0.113-16.079-2.245-16.887c-1.476-0.506,0.652,10.934,1.18,17.305c0.09,1.087-0.438,2.125-1.365,2.701
				c-7.723,4.798-23.431,7.423-27.506,7.421c-2.925-0.998-2.468-4.977-2.468-4.977s-2.76-0.627-2.755,0.021
				c0.005,0.648,1.511,6.857,3.943,6.939c2.432,0.082,14.153-0.139,30.593-7.798c11.45-1.718,14.84-6.205,14.84-6.205
				C126.264,113.102,118.991,116.719,114.039,117.173z"/>
			<path fill="#F6C785" d="M74.985,164.386c0.059,0.221-0.572,1.736-1.236,3.234c-0.846,1.908-0.414,4.141,1.079,5.6l3.365,3.288
				L74.985,164.386z"/>
			<path opacity="0.1" fill="#A67C52" d="M74.985,164.386c0.059,0.221-0.572,1.736-1.236,3.234c-0.846,1.908-0.414,4.141,1.079,5.6
				l3.365,3.288L74.985,164.386z"/>
			<path opacity="0.1" fill="#A67C52" d="M75.253,156.193c-0.002-0.486,2.704-10.433,2.704-10.433l-8.456,11.773
				C71.618,156.718,73.702,155.966,75.253,156.193z"/>
			
				<ellipse transform="matrix(1 -0.0077 0.0077 1 -0.8451 0.9686)" opacity="0.1" fill="#A67C52" cx="125.713" cy="110.542" rx="0.868" ry="0.817"/>
			
				<ellipse transform="matrix(1 -0.0077 0.0077 1 -0.9432 0.671)" opacity="0.1" fill="#A67C52" cx="86.914" cy="123.157" rx="0.868" ry="0.817"/>
			<path fill="#F4E9CE" d="M134.056,145.329l-41.808,0.321l-13.041,57.795l2.977,0.625l23.352-0.179
				c-0.025-3.241,2.696-6.147,6.079-6.173c3.384-0.026,6.148,2.838,6.173,6.079l24.084-0.185l2.967-0.671L134.056,145.329z"/>
			<g>
				<path fill="#F6C785" d="M144.892,155.747c0.334,2.052-0.024,4.703-0.198,5.258c-1.9,0.33-2.648-2.151-2.138-4.041
					c-0.21-0.514-0.147-0.401-0.375-1.252l-0.827-0.081c-0.406,1.648-0.67,4.642-1.005,5.26c-1.678,0.098-2.921-2.543-2.348-3.388
					c0.06-1.075,0.215-2.104,0.215-2.104l-1.517-0.082c0,0-0.042,4.175-0.799,4.815c0,0-2.373,0.108-1.929-3.727
					c0.18-0.891-0.077-1.109-0.401-1.607c-1.638-0.272-4.103-0.637-4.103-0.637s1.472-2.288,2.464-2.821
					c1.785-0.44,3.41-2.254,4.353-0.682c2.879-0.771,4.207-1.208,4.792,0.434c1.149-0.006,3.046-0.879,3.243,0.478
					c0.88,0.042,2.286-0.377,2.832-0.049c1.523,0.334,1.835,2.459,1.835,2.459l0.856,4.996c-1.055,1.453-3.772-1.44-3.838-3.145
					C146.004,155.83,145.478,155.764,144.892,155.747z"/>
				<path opacity="0.1" fill="#A67C52" d="M138.214,155.398c0,0-1.097-2.54-1.432-2.366l-0.085,2.284L138.214,155.398z"/>
				<polygon opacity="0.1" fill="#A67C52" points="142.18,155.712 141.48,154.065 141.353,155.63 				"/>
				<polygon opacity="0.1" fill="#A67C52" points="146.004,155.83 144.646,153.368 144.892,155.747 				"/>
				<path fill="#F6C785" d="M132.656,148.723c-0.862-0.093-0.974,1.639-2.412,3.107c-2.171,0.277-2.952,1.191-3.368,1.688
					c0,0,4.026,0.873,5.2,1.05c0.535-0.693,0.293-0.959,0.792-1.434C135.21,151.205,133.54,148.819,132.656,148.723z"/>
			</g>
			<path fill="#FFF3CC" d="M136.24,138.181l-45.972,0.353l-11.06,64.911l25.678-0.197c0-0.018,0.002-0.036,0.002-0.054
				c-0.001-0.035-0.006-0.069-0.006-0.104c-0.029-3.722,2.965-6.762,6.687-6.791s6.762,2.965,6.791,6.687
				c0,0.035-0.004,0.069-0.004,0.104c0,0.018,0.003,0.036,0.003,0.054l26.483-0.203L136.24,138.181z"/>
			<path fill="#F4E9CE" d="M111.569,196.299c0.116-0.001,0.23,0.01,0.345,0.015l2.958-57.969l-24.817,0.191l-10.846,64.909
				l25.605-0.197c0.024-0.277,0.057-0.539,0.096-0.795C105.203,199.028,108.062,196.326,111.569,196.299z"/>
			<path fill="#EE5C5D" d="M131.995,141.222l-36.839,0.472l-9.212,52.623l52.506-0.403L131.995,141.222z M96.543,143.879
				l33.806-0.449l4.993,40.785l-45.917,0.353L96.543,143.879z"/>
			<g>
				<path fill="#EE5C5D" d="M123.89,158.489c-0.009,0.017-0.06,0.109-0.153,0.248c-0.094,0.139-0.232,0.324-0.415,0.527
					c-0.184,0.203-0.413,0.423-0.691,0.631c-0.278,0.208-0.604,0.405-0.981,0.561c0.073,0.065,0.151,0.158,0.215,0.27
					c0.064,0.112,0.113,0.241,0.131,0.379c0.018,0.138,0.004,0.284-0.06,0.427c-0.064,0.144-0.178,0.285-0.36,0.415
					c-0.061,0.042-0.124,0.078-0.19,0.11c-0.066,0.031-0.134,0.057-0.203,0.078c-0.069,0.021-0.14,0.037-0.211,0.047
					s-0.142,0.016-0.211,0.017c-0.083,0.001-0.166-0.006-0.245-0.02c-0.079-0.014-0.156-0.034-0.227-0.062
					c-0.072-0.028-0.139-0.062-0.2-0.104c-0.061-0.042-0.115-0.09-0.162-0.145c-0.082-0.105-0.124-0.206-0.136-0.299
					c-0.011-0.093,0.008-0.179,0.051-0.252c0.042-0.074,0.107-0.135,0.186-0.182c0.079-0.046,0.172-0.076,0.271-0.087
					c0.006-0.001,0.012-0.002,0.018-0.003c0.006-0.001,0.013-0.001,0.019-0.002c0.006-0.001,0.013-0.001,0.019-0.001
					c0.006,0,0.013,0,0.02,0c0.028,0,0.057,0.002,0.087,0.006c0.029,0.004,0.059,0.01,0.087,0.018
					c0.029,0.008,0.057,0.018,0.083,0.029c0.026,0.012,0.051,0.025,0.074,0.041c0.06,0.044,0.093,0.089,0.107,0.132
					c0.014,0.043,0.009,0.084-0.006,0.12s-0.042,0.066-0.071,0.087c-0.029,0.021-0.06,0.034-0.086,0.034
					c-0.015-0.016-0.03-0.028-0.044-0.039s-0.027-0.019-0.04-0.026c-0.013-0.006-0.025-0.011-0.037-0.014
					c-0.012-0.003-0.024-0.004-0.036-0.004c-0.013,0-0.026,0.002-0.038,0.005c-0.013,0.003-0.025,0.008-0.036,0.014
					c-0.011,0.006-0.021,0.014-0.03,0.023c-0.009,0.009-0.016,0.019-0.021,0.031c-0.009,0.017-0.009,0.035-0.002,0.053
					s0.021,0.035,0.039,0.05s0.041,0.028,0.065,0.037s0.051,0.014,0.076,0.014c0.089,0,0.164-0.014,0.227-0.038
					c0.063-0.024,0.113-0.058,0.15-0.098c0.037-0.041,0.062-0.088,0.075-0.139s0.013-0.105,0.001-0.16
					c-0.013-0.054-0.038-0.108-0.076-0.159c-0.038-0.051-0.089-0.098-0.153-0.138c-0.064-0.04-0.142-0.073-0.234-0.096
					c-0.092-0.023-0.198-0.036-0.32-0.035c-0.007,0-0.015,0-0.023,0c-0.008,0-0.015,0-0.023,0.001c-0.008,0-0.015,0.001-0.023,0.001
					c-0.008,0-0.016,0.001-0.024,0.001c-0.039,0.002-0.078,0.005-0.12,0.007s-0.084,0.004-0.128,0.006
					c-0.044,0.002-0.089,0.003-0.135,0.005s-0.094,0.002-0.143,0.002c-0.134,0.001-0.276-0.001-0.428-0.009
					c-0.151-0.008-0.311-0.021-0.478-0.042c-0.167-0.021-0.342-0.049-0.524-0.087c-0.182-0.038-0.371-0.085-0.566-0.144
					c-0.264-0.089-0.522-0.197-0.763-0.31c-0.24-0.113-0.463-0.231-0.654-0.338c-0.191-0.108-0.35-0.205-0.465-0.278
					c-0.115-0.073-0.185-0.121-0.198-0.13c0.056,0.243,0.141,0.474,0.241,0.689c0.1,0.215,0.214,0.413,0.33,0.59
					s0.232,0.335,0.335,0.468c0.103,0.133,0.194,0.241,0.257,0.321c-0.019,0.237-0.087,0.433-0.179,0.593
					c-0.092,0.16-0.209,0.285-0.325,0.38c-0.116,0.095-0.23,0.162-0.319,0.205c-0.089,0.043-0.151,0.064-0.163,0.067l2.952-0.023
					l0.033,0.084c0.03-0.024,0.062-0.043,0.096-0.058c0.034-0.015,0.071-0.025,0.109-0.032s0.079-0.011,0.121-0.014
					c0.042-0.003,0.085-0.003,0.13-0.004c0.008,0,0.015,0,0.023,0s0.016,0,0.023,0c0.008,0,0.016,0,0.024,0c0.008,0,0.016,0,0.024,0
					c0.107-0.001,0.209,0.016,0.302,0.046c0.093,0.03,0.176,0.075,0.247,0.13c0.07,0.055,0.127,0.121,0.167,0.193
					c0.04,0.073,0.062,0.153,0.063,0.237c0.001,0.084-0.021,0.165-0.059,0.238c-0.039,0.073-0.095,0.139-0.165,0.195
					s-0.153,0.101-0.246,0.132c-0.093,0.031-0.194,0.049-0.301,0.05l-0.053,0.036c0.117,0.449,0.116,0.853,0.048,1.206
					c-0.068,0.354-0.203,0.658-0.355,0.908s-0.321,0.446-0.457,0.582s-0.238,0.214-0.257,0.228
					c-0.045,0.007-0.291,0.043-0.645,0.113s-0.816,0.172-1.292,0.31c-0.476,0.138-0.967,0.311-1.379,0.523
					c-0.412,0.212-0.746,0.462-0.907,0.754c-0.166-0.289-0.497-0.534-0.903-0.74s-0.888-0.372-1.355-0.502
					c-0.466-0.131-0.918-0.226-1.263-0.29c-0.345-0.064-0.585-0.097-0.629-0.103c-0.019-0.014-0.121-0.09-0.258-0.226
					c-0.137-0.135-0.307-0.329-0.461-0.577c-0.154-0.248-0.292-0.551-0.364-0.904c-0.072-0.353-0.077-0.756,0.034-1.206
					l-0.046-0.042c-0.107,0.001-0.209-0.016-0.302-0.048c-0.093-0.031-0.176-0.077-0.247-0.133c-0.07-0.056-0.127-0.123-0.167-0.197
					s-0.062-0.155-0.062-0.239c-0.001-0.083,0.02-0.165,0.059-0.24c0.039-0.075,0.095-0.143,0.164-0.202s0.152-0.106,0.245-0.14
					c0.092-0.034,0.194-0.053,0.301-0.054c0.054,0,0.108,0.001,0.159,0.005s0.101,0.011,0.148,0.021
					c0.047,0.01,0.092,0.024,0.133,0.043c0.042,0.018,0.08,0.041,0.116,0.069l0.032-0.085l2.952-0.023
					c-0.011-0.004-0.074-0.023-0.164-0.065c-0.089-0.042-0.205-0.106-0.322-0.2c-0.117-0.094-0.236-0.216-0.33-0.375
					c-0.095-0.159-0.166-0.353-0.188-0.59c0.062-0.081,0.151-0.188,0.252-0.318c0.101-0.131,0.215-0.285,0.328-0.459
					c0.113-0.174,0.224-0.369,0.321-0.581c0.097-0.212,0.178-0.441,0.231-0.684c-0.013,0.009-0.082,0.056-0.196,0.129
					c-0.114,0.073-0.272,0.17-0.461,0.278s-0.41,0.227-0.648,0.342c-0.239,0.115-0.496,0.226-0.758,0.32
					c-0.189,0.06-0.373,0.108-0.55,0.147c-0.177,0.039-0.347,0.069-0.511,0.092s-0.319,0.038-0.468,0.048
					c-0.148,0.01-0.289,0.014-0.421,0.015c-0.053,0-0.105,0-0.156,0c-0.05-0.001-0.099-0.002-0.147-0.003s-0.094-0.003-0.138-0.005
					s-0.087-0.004-0.129-0.006c-0.008,0-0.016-0.001-0.024-0.001c-0.008,0-0.016,0-0.023-0.001s-0.015,0-0.023,0s-0.015,0-0.023,0
					c-0.122,0.001-0.229,0.015-0.322,0.04s-0.17,0.059-0.234,0.1s-0.114,0.089-0.151,0.14s-0.061,0.105-0.072,0.16
					c-0.011,0.054-0.01,0.108,0.002,0.158c0.012,0.05,0.036,0.097,0.071,0.137c0.035,0.04,0.081,0.073,0.137,0.096
					c0.056,0.023,0.122,0.036,0.198,0.035c0.04-0.002,0.076-0.008,0.108-0.019c0.032-0.01,0.059-0.024,0.08-0.04
					c0.021-0.016,0.036-0.033,0.043-0.051c0.007-0.018,0.006-0.036-0.004-0.053c-0.005-0.012-0.012-0.022-0.021-0.031
					c-0.009-0.009-0.019-0.016-0.03-0.023c-0.011-0.006-0.023-0.011-0.036-0.014c-0.013-0.003-0.025-0.004-0.038-0.004
					c-0.012,0-0.023,0.002-0.035,0.004c-0.011,0.003-0.022,0.007-0.032,0.012c-0.01,0.006-0.019,0.012-0.026,0.021
					s-0.014,0.018-0.018,0.029c-0.037,0.005-0.077-0.004-0.112-0.022s-0.067-0.046-0.086-0.08c-0.019-0.034-0.027-0.075-0.014-0.118
					s0.044-0.089,0.104-0.135c0.023-0.016,0.049-0.03,0.075-0.042c0.027-0.012,0.055-0.022,0.084-0.031s0.058-0.015,0.088-0.019
					c0.029-0.004,0.059-0.007,0.087-0.007c0.007,0,0.013,0,0.02,0c0.007,0,0.013,0,0.019,0.001c0.006,0,0.013,0.001,0.019,0.002
					c0.006,0.001,0.012,0.001,0.018,0.002c0.099,0.009,0.192,0.038,0.272,0.083c0.08,0.045,0.145,0.106,0.188,0.179
					c0.043,0.073,0.064,0.158,0.053,0.251c-0.011,0.093-0.052,0.195-0.134,0.301c-0.045,0.056-0.099,0.105-0.159,0.148
					c-0.06,0.042-0.126,0.078-0.197,0.107s-0.147,0.051-0.226,0.065c-0.079,0.015-0.161,0.023-0.244,0.023
					c-0.07,0.001-0.14-0.004-0.211-0.014c-0.071-0.01-0.141-0.024-0.211-0.044c-0.069-0.02-0.138-0.045-0.204-0.075
					c-0.066-0.03-0.131-0.066-0.192-0.107c-0.184-0.127-0.3-0.266-0.366-0.409c-0.066-0.143-0.083-0.288-0.067-0.426
					c0.016-0.138,0.063-0.268,0.125-0.381s0.138-0.207,0.211-0.273c-0.379-0.15-0.708-0.342-0.989-0.546
					c-0.281-0.204-0.514-0.421-0.701-0.621c-0.187-0.2-0.327-0.383-0.423-0.52c-0.096-0.137-0.148-0.229-0.157-0.246
					c0.066-0.149,0.145-0.29,0.231-0.421s0.18-0.252,0.274-0.363c0.094-0.11,0.189-0.209,0.278-0.296
					c0.089-0.087,0.173-0.162,0.244-0.223c0.021,0.003,0.041,0.006,0.061,0.008c0.02,0.002,0.04,0.004,0.06,0.006
					c0.02,0.001,0.039,0.003,0.059,0.003c0.019,0.001,0.039,0.001,0.058,0.001c0.206-0.002,0.388-0.049,0.533-0.125
					c0.146-0.076,0.256-0.18,0.32-0.295c0.064-0.115,0.082-0.241,0.043-0.36c-0.039-0.119-0.135-0.231-0.298-0.319
					c-0.019-0.01-0.039-0.018-0.059-0.025c-0.02-0.007-0.041-0.013-0.061-0.017c-0.021-0.004-0.042-0.008-0.063-0.01
					c-0.021-0.002-0.042-0.003-0.063-0.003c-0.038,0-0.076,0.004-0.113,0.012c-0.036,0.007-0.071,0.018-0.104,0.031
					c-0.033,0.014-0.063,0.03-0.089,0.049c-0.027,0.019-0.049,0.041-0.068,0.064c-0.032,0.043-0.048,0.08-0.052,0.112
					c-0.004,0.032,0.004,0.059,0.019,0.08c0.016,0.021,0.039,0.037,0.065,0.047c0.027,0.01,0.057,0.016,0.086,0.015
					c0.023,0,0.046-0.004,0.066-0.01c0.02-0.007,0.038-0.017,0.051-0.03s0.022-0.029,0.025-0.049
					c0.002-0.019-0.001-0.042-0.014-0.068c0.014-0.014,0.026-0.025,0.037-0.034s0.022-0.015,0.031-0.019
					c0.01-0.004,0.019-0.007,0.027-0.008c0.009-0.001,0.017-0.002,0.025-0.002c0.05,0,0.098,0.011,0.141,0.032
					c0.043,0.021,0.081,0.05,0.111,0.085c0.03,0.035,0.052,0.076,0.062,0.12c0.011,0.044,0.01,0.09-0.005,0.136
					c-0.012,0.054-0.039,0.106-0.078,0.152c-0.039,0.047-0.091,0.089-0.154,0.124c-0.063,0.035-0.138,0.064-0.223,0.084
					s-0.181,0.031-0.286,0.032c-0.21-0.021-0.381-0.082-0.513-0.17c-0.132-0.088-0.223-0.203-0.273-0.332
					c-0.05-0.129-0.057-0.273-0.021-0.419c0.036-0.146,0.117-0.294,0.243-0.432c0.046-0.059,0.106-0.113,0.175-0.161
					c0.069-0.048,0.149-0.089,0.235-0.124c0.086-0.034,0.179-0.061,0.276-0.08c0.097-0.019,0.197-0.029,0.297-0.03
					c0.067-0.001,0.135,0.003,0.201,0.012c0.067,0.008,0.132,0.021,0.197,0.039c0.064,0.018,0.127,0.041,0.186,0.069
					c0.06,0.028,0.117,0.061,0.17,0.1c-0.219-0.186-0.333-0.409-0.359-0.64c-0.026-0.231,0.037-0.469,0.169-0.684
					c0.133-0.215,0.336-0.408,0.593-0.547c0.257-0.139,0.567-0.225,0.912-0.228c0.006,0,0.013,0,0.019,0c0.006,0,0.013,0,0.02,0
					c0.007,0,0.013,0,0.02,0c0.007,0,0.013,0,0.02,0c0.277,0.005,0.522,0.065,0.724,0.16c0.202,0.095,0.361,0.225,0.469,0.373
					c0.107,0.147,0.163,0.311,0.157,0.473c-0.006,0.162-0.074,0.322-0.212,0.462c-0.055,0.054-0.113,0.099-0.173,0.138
					s-0.123,0.07-0.188,0.094s-0.13,0.042-0.195,0.054c-0.065,0.012-0.131,0.018-0.195,0.018c-0.12,0.001-0.237-0.017-0.343-0.05
					s-0.199-0.08-0.274-0.138c-0.075-0.058-0.131-0.126-0.161-0.201c-0.03-0.075-0.033-0.155-0.002-0.239
					c0.002-0.007,0.005-0.013,0.009-0.019c0.004-0.006,0.008-0.011,0.014-0.016c0.005-0.005,0.011-0.009,0.018-0.011
					c0.006-0.003,0.014-0.004,0.021-0.004c0.026,0.011,0.049,0.02,0.07,0.028c0.021,0.008,0.04,0.013,0.058,0.018
					s0.033,0.008,0.048,0.009c0.015,0.002,0.029,0.003,0.042,0.003c0.066-0.001,0.12-0.022,0.159-0.055
					c0.039-0.033,0.062-0.076,0.067-0.121c0.004-0.044-0.011-0.09-0.05-0.125c-0.039-0.036-0.101-0.061-0.19-0.067
					c-0.16,0-0.304,0.091-0.401,0.229c-0.097,0.138-0.145,0.324-0.112,0.516s0.148,0.389,0.377,0.55s0.575,0.285,1.068,0.33
					c0.094,0.003,0.201,0.013,0.32,0.029c0.119,0.016,0.25,0.038,0.389,0.068c0.139,0.029,0.288,0.065,0.442,0.109
					s0.315,0.094,0.478,0.151c-0.111-0.078-0.182-0.173-0.217-0.27c-0.035-0.097-0.034-0.197-0.004-0.288s0.092-0.171,0.177-0.23
					c0.086-0.058,0.197-0.095,0.327-0.096c0.1,0.002,0.183,0.018,0.249,0.044c0.066,0.026,0.117,0.062,0.152,0.102
					c0.036,0.04,0.056,0.084,0.064,0.127s0.001,0.084-0.017,0.119c-0.009,0.019-0.021,0.035-0.034,0.048
					c-0.013,0.013-0.027,0.024-0.042,0.033c-0.015,0.009-0.03,0.015-0.045,0.019c-0.015,0.004-0.029,0.006-0.042,0.006
					c-0.01-0.014-0.02-0.026-0.029-0.037s-0.019-0.021-0.029-0.029c-0.01-0.008-0.02-0.014-0.031-0.019
					c-0.01-0.004-0.021-0.007-0.033-0.006c-0.005,0-0.01,0-0.015,0.001c-0.005,0.001-0.01,0.002-0.015,0.004
					c-0.005,0.002-0.01,0.004-0.015,0.007c-0.005,0.003-0.01,0.006-0.015,0.011c-0.015,0.012-0.022,0.028-0.022,0.045
					c0.001,0.018,0.009,0.037,0.024,0.054c0.015,0.018,0.037,0.034,0.066,0.046c0.029,0.012,0.063,0.019,0.104,0.019
					c0.005,0,0.011,0,0.016-0.001c0.005,0,0.011-0.001,0.017-0.001c0.006-0.001,0.011-0.001,0.017-0.002
					c0.006-0.001,0.012-0.002,0.018-0.003c0.028-0.006,0.056-0.015,0.084-0.028c0.028-0.013,0.055-0.03,0.079-0.051
					s0.047-0.047,0.065-0.078c0.018-0.031,0.033-0.066,0.042-0.108c0.048-0.149,0.081-0.357,0.087-0.597
					c0.006-0.241-0.014-0.514-0.072-0.797c-0.058-0.283-0.154-0.574-0.299-0.849c-0.145-0.275-0.339-0.535-0.593-0.754
					c-0.036-0.034-0.073-0.063-0.111-0.087c-0.037-0.024-0.075-0.043-0.112-0.058s-0.074-0.026-0.11-0.032
					c-0.036-0.007-0.072-0.01-0.106-0.01c-0.059,0-0.115,0.011-0.165,0.028c-0.05,0.017-0.094,0.042-0.131,0.071
					s-0.064,0.063-0.082,0.099c-0.018,0.036-0.025,0.074-0.02,0.111c0.003,0.013,0.008,0.025,0.014,0.034s0.015,0.017,0.024,0.023
					c0.009,0.006,0.019,0.01,0.03,0.013s0.022,0.004,0.033,0.004c0.015,0,0.03-0.003,0.043-0.007
					c0.013-0.005,0.025-0.011,0.034-0.019c0.009-0.008,0.015-0.017,0.017-0.028c0.002-0.01-0.001-0.022-0.009-0.034
					c-0.001-0.003-0.004-0.008-0.006-0.014c-0.002-0.006-0.004-0.013-0.003-0.021s0.005-0.016,0.013-0.024
					c0.008-0.008,0.021-0.015,0.04-0.022c0.007-0.002,0.013-0.003,0.02-0.004c0.007-0.001,0.013-0.002,0.02-0.003
					c0.007-0.001,0.013-0.001,0.02-0.002c0.006,0,0.013-0.001,0.019-0.001c0.054,0,0.105,0.012,0.15,0.034
					c0.045,0.022,0.083,0.054,0.111,0.093c0.027,0.038,0.044,0.084,0.046,0.132c0.002,0.049-0.012,0.1-0.044,0.153
					c-0.023,0.029-0.05,0.058-0.081,0.085c-0.031,0.027-0.067,0.052-0.108,0.073c-0.041,0.021-0.087,0.039-0.139,0.051
					c-0.052,0.012-0.11,0.02-0.175,0.02c-0.016,0-0.032,0-0.049-0.001c-0.017-0.001-0.034-0.002-0.052-0.003
					s-0.036-0.004-0.054-0.006c-0.018-0.003-0.037-0.006-0.057-0.009c-0.144-0.018-0.266-0.08-0.355-0.169
					c-0.089-0.089-0.145-0.205-0.157-0.333s0.02-0.267,0.108-0.402c0.088-0.135,0.231-0.265,0.44-0.375
					c0.182-0.087,0.379-0.176,0.593-0.261s0.445-0.165,0.695-0.235s0.52-0.129,0.812-0.172c0.292-0.042,0.605-0.068,0.943-0.071
					c0.104-0.001,0.203,0.015,0.294,0.044c0.091,0.029,0.173,0.072,0.243,0.125c0.069,0.053,0.126,0.116,0.165,0.187
					c0.039,0.071,0.062,0.148,0.062,0.23c0.001,0.079,0.001,0.155-0.009,0.224c-0.01,0.069-0.032,0.132-0.075,0.186
					c-0.044,0.054-0.11,0.098-0.21,0.129s-0.234,0.051-0.412,0.055c0.002,0.271,0.006,0.577,0.032,0.912
					c0.026,0.335,0.076,0.7,0.169,1.089c0.094,0.389,0.231,0.802,0.435,1.233c0.203,0.431,0.472,0.881,0.828,1.344
					c0.349-0.468,0.611-0.922,0.808-1.356c0.197-0.434,0.328-0.849,0.416-1.239c0.088-0.39,0.131-0.755,0.153-1.091
					c0.021-0.335,0.02-0.641,0.018-0.911c0-0.003-0.036-0.022-0.09-0.053s-0.126-0.074-0.199-0.127
					c-0.072-0.053-0.145-0.115-0.199-0.184c-0.054-0.069-0.091-0.145-0.092-0.224c-0.001-0.082,0.029-0.16,0.08-0.231
					c0.051-0.071,0.124-0.136,0.209-0.19c0.086-0.054,0.184-0.098,0.287-0.129s0.211-0.048,0.315-0.049
					c0.338-0.003,0.652,0.018,0.943,0.056c0.292,0.038,0.562,0.093,0.813,0.159c0.251,0.066,0.482,0.143,0.697,0.224
					s0.413,0.168,0.596,0.252c0.21,0.107,0.355,0.235,0.445,0.368s0.124,0.272,0.114,0.4s-0.064,0.245-0.152,0.335
					c-0.088,0.09-0.21,0.154-0.354,0.174c-0.019,0.004-0.038,0.007-0.057,0.01s-0.036,0.005-0.054,0.007
					c-0.018,0.002-0.035,0.003-0.051,0.004c-0.017,0.001-0.033,0.002-0.049,0.002c-0.065,0.001-0.123-0.006-0.175-0.017
					c-0.052-0.012-0.099-0.028-0.14-0.049c-0.041-0.021-0.077-0.045-0.109-0.071c-0.032-0.026-0.059-0.055-0.082-0.084
					c-0.034-0.052-0.049-0.104-0.048-0.152c0.001-0.049,0.017-0.094,0.044-0.133c0.027-0.039,0.065-0.071,0.11-0.094
					s0.096-0.036,0.15-0.037c0.006,0,0.013,0,0.019,0s0.013,0.001,0.02,0.002c0.007,0.001,0.013,0.002,0.02,0.003
					c0.007,0.001,0.013,0.002,0.02,0.004c0.02,0.006,0.032,0.014,0.041,0.021c0.008,0.008,0.012,0.016,0.013,0.023
					c0.001,0.008,0,0.015-0.002,0.021s-0.005,0.011-0.005,0.014c-0.008,0.012-0.011,0.024-0.009,0.034
					c0.002,0.01,0.008,0.02,0.016,0.028c0.009,0.008,0.021,0.014,0.034,0.018c0.013,0.004,0.028,0.007,0.043,0.007
					c0.011,0,0.022-0.001,0.033-0.004c0.011-0.003,0.021-0.007,0.03-0.013s0.017-0.014,0.024-0.023
					c0.007-0.01,0.012-0.021,0.014-0.034c0.005-0.037-0.003-0.075-0.021-0.111s-0.047-0.069-0.084-0.098s-0.081-0.053-0.132-0.069
					c-0.05-0.017-0.106-0.026-0.166-0.026c-0.034,0-0.07,0.004-0.106,0.011s-0.073,0.019-0.11,0.034
					c-0.037,0.015-0.074,0.035-0.111,0.06c-0.037,0.025-0.074,0.054-0.109,0.089c-0.251,0.223-0.441,0.485-0.582,0.763
					c-0.141,0.278-0.232,0.57-0.286,0.854s-0.07,0.558-0.06,0.798c0.01,0.24,0.046,0.447,0.097,0.596
					c0.01,0.041,0.024,0.077,0.043,0.107c0.019,0.03,0.041,0.056,0.066,0.077c0.025,0.021,0.052,0.037,0.08,0.05
					c0.028,0.013,0.056,0.021,0.084,0.027c0.006,0.001,0.012,0.002,0.018,0.003c0.006,0.001,0.012,0.001,0.017,0.002
					s0.011,0.001,0.017,0.001c0.005,0,0.011,0,0.016,0c0.041,0,0.075-0.008,0.104-0.02c0.028-0.012,0.05-0.029,0.065-0.047
					c0.015-0.018,0.023-0.037,0.023-0.055c0-0.018-0.007-0.034-0.023-0.045c-0.005-0.004-0.01-0.007-0.015-0.01
					c-0.005-0.003-0.01-0.005-0.015-0.007c-0.005-0.002-0.01-0.003-0.015-0.004c-0.005-0.001-0.01-0.001-0.015-0.001
					c-0.012,0-0.023,0.003-0.032,0.007c-0.01,0.004-0.018,0.01-0.025,0.017c-0.006,0.007-0.011,0.015-0.013,0.023
					c-0.002,0.008-0.001,0.017,0.004,0.026c-0.027,0.005-0.052,0.008-0.075,0.007c-0.023-0.001-0.044-0.005-0.062-0.012
					c-0.019-0.007-0.035-0.017-0.049-0.03c-0.014-0.013-0.026-0.029-0.036-0.048c-0.019-0.035-0.025-0.076-0.018-0.119
					s0.027-0.087,0.061-0.127s0.083-0.077,0.147-0.104c0.064-0.027,0.143-0.045,0.239-0.048c0.134-0.001,0.248,0.033,0.337,0.09
					c0.089,0.057,0.153,0.137,0.186,0.227c0.033,0.09,0.037,0.19,0.004,0.288s-0.102,0.193-0.212,0.273
					c0.162-0.06,0.321-0.113,0.474-0.159c0.153-0.046,0.3-0.084,0.439-0.115s0.269-0.056,0.389-0.074
					c0.119-0.018,0.228-0.029,0.322-0.034c0.493-0.053,0.836-0.182,1.063-0.346c0.228-0.164,0.341-0.363,0.374-0.556
					s-0.014-0.378-0.106-0.516c-0.092-0.137-0.228-0.226-0.374-0.225c-0.102,0.008-0.173,0.036-0.219,0.073
					c-0.045,0.037-0.065,0.082-0.063,0.127c0.002,0.045,0.024,0.088,0.063,0.12c0.039,0.032,0.093,0.053,0.159,0.053
					c0.013,0,0.027-0.001,0.041-0.003c0.014-0.002,0.029-0.005,0.044-0.009c0.015-0.004,0.031-0.009,0.046-0.015
					c0.016-0.006,0.032-0.014,0.048-0.022c0.017-0.003,0.031-0.004,0.043-0.003c0.012,0.001,0.021,0.004,0.029,0.008
					c0.008,0.004,0.013,0.009,0.018,0.015c0.004,0.006,0.008,0.012,0.01,0.019c0.032,0.083,0.03,0.164,0.001,0.239
					c-0.029,0.075-0.084,0.144-0.158,0.203c-0.074,0.059-0.168,0.108-0.273,0.142c-0.105,0.034-0.222,0.054-0.342,0.055
					c-0.064,0-0.13-0.004-0.196-0.015c-0.066-0.011-0.131-0.028-0.195-0.051c-0.064-0.024-0.128-0.054-0.188-0.091
					c-0.061-0.038-0.12-0.082-0.175-0.135c-0.141-0.137-0.211-0.296-0.22-0.458c-0.009-0.162,0.044-0.327,0.149-0.476
					s0.262-0.282,0.462-0.38c0.2-0.098,0.443-0.161,0.719-0.171c0.007,0,0.013-0.001,0.02-0.001c0.007,0,0.013,0,0.02-0.001
					c0.007,0,0.013,0,0.02,0c0.006,0,0.013,0,0.019,0c0.346-0.003,0.657,0.079,0.916,0.214c0.259,0.135,0.466,0.325,0.603,0.538
					c0.137,0.213,0.203,0.45,0.181,0.682c-0.022,0.231-0.132,0.456-0.348,0.645c0.053-0.04,0.109-0.074,0.169-0.103
					s0.121-0.053,0.185-0.071c0.064-0.019,0.129-0.033,0.196-0.042s0.134-0.014,0.201-0.015c0.1-0.001,0.201,0.008,0.297,0.025
					c0.097,0.017,0.19,0.043,0.277,0.076c0.087,0.033,0.167,0.073,0.237,0.12c0.07,0.047,0.13,0.1,0.178,0.158
					c0.129,0.136,0.211,0.283,0.251,0.428s0.036,0.289-0.009,0.419s-0.129,0.246-0.252,0.336s-0.284,0.153-0.48,0.177
					c-0.118,0.001-0.224-0.008-0.317-0.027c-0.093-0.018-0.173-0.046-0.241-0.08c-0.067-0.034-0.121-0.075-0.162-0.121
					c-0.041-0.046-0.068-0.097-0.081-0.151c-0.015-0.046-0.017-0.092-0.007-0.136c0.01-0.044,0.031-0.085,0.06-0.121
					c0.029-0.036,0.066-0.066,0.109-0.087c0.043-0.021,0.09-0.034,0.141-0.034c0.008,0,0.017,0,0.025,0.001s0.017,0.002,0.025,0.003
					s0.017,0.003,0.026,0.005c0.009,0.002,0.017,0.004,0.026,0.007c-0.007,0.037-0.006,0.068-0.001,0.094s0.017,0.046,0.032,0.062
					c0.015,0.016,0.033,0.027,0.054,0.034c0.021,0.007,0.043,0.01,0.066,0.01c0.029,0,0.059-0.006,0.086-0.017
					c0.026-0.011,0.049-0.027,0.064-0.048s0.022-0.048,0.017-0.08c-0.005-0.032-0.022-0.069-0.055-0.112
					c-0.018-0.023-0.041-0.045-0.067-0.063s-0.056-0.035-0.089-0.048s-0.068-0.023-0.104-0.03c-0.037-0.007-0.075-0.01-0.113-0.01
					c-0.021,0-0.042,0.001-0.063,0.004c-0.021,0.002-0.042,0.006-0.063,0.011c-0.021,0.005-0.042,0.011-0.062,0.018
					c-0.02,0.007-0.04,0.016-0.06,0.026c-0.161,0.09-0.255,0.204-0.291,0.323c-0.037,0.12-0.017,0.245,0.049,0.359
					s0.178,0.217,0.325,0.29c0.147,0.074,0.329,0.118,0.535,0.117c0.019,0,0.038-0.001,0.057-0.002s0.039-0.002,0.059-0.004
					s0.04-0.004,0.06-0.007c0.02-0.003,0.04-0.006,0.061-0.009c0.072,0.06,0.157,0.134,0.247,0.219
					c0.09,0.086,0.187,0.183,0.282,0.292s0.191,0.229,0.279,0.358C123.74,158.201,123.822,158.341,123.89,158.489z M116.719,163.91
					c-0.344,0.003-0.674,0.005-0.977,0.008c-0.304,0.002-0.582,0.004-0.825,0.006c-0.243,0.002-0.449,0.003-0.61,0.005
					c-0.161,0.001-0.276,0.002-0.334,0.003c-0.059,0-0.173,0.001-0.334,0.003s-0.368,0.003-0.61,0.005
					c-0.243,0.002-0.521,0.004-0.825,0.006c-0.304,0.002-0.633,0.005-0.977,0.008c-0.262,0.002-0.483,0.042-0.668,0.11
					c-0.184,0.068-0.332,0.165-0.448,0.282c-0.116,0.116-0.199,0.252-0.255,0.398c-0.056,0.146-0.084,0.302-0.089,0.459
					c-0.005,0.136,0.042,0.271,0.121,0.397c0.079,0.127,0.189,0.246,0.312,0.353c0.122,0.106,0.256,0.199,0.38,0.274
					c0.125,0.074,0.24,0.13,0.327,0.161c0.247,0.11,0.499,0.202,0.752,0.278c0.253,0.076,0.507,0.136,0.761,0.182
					c0.254,0.046,0.506,0.078,0.755,0.098c0.249,0.02,0.495,0.028,0.735,0.026c0.007,0,0.014,0,0.022,0s0.014,0,0.021,0
					c0.007,0,0.014,0,0.021,0s0.014,0,0.021,0c0.007,0,0.015,0,0.022,0s0.015,0,0.022,0c0.007,0,0.015,0,0.022,0
					c0.007,0,0.015,0,0.022,0c0.24-0.002,0.485-0.013,0.734-0.037c0.249-0.023,0.5-0.058,0.752-0.107
					c0.252-0.049,0.505-0.112,0.756-0.191c0.251-0.079,0.5-0.174,0.744-0.288c0.087-0.032,0.203-0.09,0.326-0.167
					c0.124-0.077,0.256-0.173,0.376-0.282c0.12-0.109,0.229-0.231,0.306-0.36s0.123-0.264,0.116-0.399
					c-0.007-0.157-0.038-0.313-0.096-0.458c-0.058-0.145-0.144-0.28-0.261-0.394s-0.266-0.209-0.452-0.275
					C117.203,163.944,116.981,163.907,116.719,163.91 M108.121,160.089c0.44-0.003,0.877-0.072,1.286-0.179
					c0.409-0.107,0.792-0.251,1.123-0.405c0.331-0.154,0.611-0.317,0.816-0.463s0.336-0.272,0.367-0.353
					c-0.13-0.201-0.317-0.4-0.548-0.584c-0.231-0.185-0.507-0.355-0.813-0.5s-0.644-0.265-0.999-0.347s-0.728-0.128-1.106-0.125
					c-0.013,0-0.026,0-0.038,0c-0.013,0-0.026,0-0.038,0.001c-0.013,0-0.026,0.001-0.038,0.001s-0.026,0.001-0.038,0.001
					c-0.252,0.002-0.525,0.036-0.8,0.1c-0.275,0.065-0.553,0.16-0.815,0.286c-0.262,0.126-0.507,0.281-0.718,0.467
					c-0.211,0.185-0.387,0.4-0.509,0.643c0.191,0.276,0.4,0.505,0.624,0.694s0.46,0.337,0.706,0.451
					c0.246,0.114,0.5,0.192,0.759,0.242C107.598,160.07,107.86,160.091,108.121,160.089 M119.764,159.999
					c0.261-0.002,0.522-0.027,0.78-0.081s0.51-0.137,0.754-0.254c0.244-0.117,0.478-0.269,0.698-0.462
					c0.22-0.192,0.426-0.425,0.612-0.704c-0.125-0.241-0.304-0.453-0.517-0.635c-0.213-0.182-0.46-0.334-0.724-0.456
					c-0.263-0.122-0.542-0.213-0.818-0.273s-0.549-0.09-0.801-0.088c-0.013,0-0.026-0.001-0.039-0.001c-0.013,0-0.026,0-0.039-0.001
					c-0.013,0-0.026,0-0.038,0c-0.013,0-0.026,0-0.038,0c-0.378,0.003-0.751,0.054-1.105,0.142c-0.354,0.088-0.69,0.213-0.994,0.362
					c-0.304,0.15-0.577,0.324-0.805,0.512c-0.228,0.188-0.412,0.389-0.539,0.592c0.033,0.08,0.165,0.205,0.373,0.347
					c0.207,0.142,0.49,0.301,0.823,0.45c0.333,0.149,0.718,0.287,1.128,0.387C118.886,159.94,119.324,160.003,119.764,159.999
					 M115.995,161.802c-0.006-0.003-0.038-0.016-0.107-0.035c-0.069-0.019-0.176-0.044-0.331-0.068
					c-0.155-0.024-0.359-0.047-0.622-0.064c-0.263-0.017-0.586-0.027-0.98-0.025c-0.394,0.004-0.716,0.019-0.979,0.04
					c-0.263,0.021-0.466,0.047-0.621,0.074c-0.155,0.026-0.261,0.052-0.33,0.073c-0.069,0.02-0.101,0.034-0.107,0.037
					c-0.028,0.135,0.002,0.281,0.084,0.426c0.082,0.145,0.215,0.288,0.393,0.416s0.403,0.24,0.667,0.324
					c0.264,0.084,0.568,0.138,0.905,0.15c0.336-0.017,0.638-0.076,0.901-0.164c0.263-0.088,0.485-0.204,0.662-0.334
					c0.177-0.131,0.308-0.276,0.388-0.422C115.997,162.083,116.025,161.936,115.995,161.802 M112.333,157.626
					c0.001,0,0.001-0.145-0.011-0.381s-0.036-0.564-0.083-0.93c-0.047-0.366-0.118-0.77-0.223-1.158
					c-0.105-0.389-0.244-0.762-0.429-1.066c0.037,0.151,0.065,0.297,0.086,0.438c0.021,0.141,0.033,0.276,0.039,0.406
					s0.005,0.254-0.002,0.371c-0.007,0.118-0.02,0.23-0.037,0.335c-0.006,0.112-0.037,0.221-0.088,0.322
					c-0.051,0.1-0.121,0.192-0.206,0.271c-0.084,0.078-0.183,0.142-0.289,0.187c-0.106,0.045-0.221,0.07-0.338,0.071
					c-0.005,0-0.009,0-0.014,0s-0.009,0-0.014,0c-0.005,0-0.009,0-0.014,0c-0.005,0-0.009,0-0.014-0.001l-0.111-0.015
					c0.144,0.061,0.289,0.128,0.432,0.202c0.143,0.074,0.285,0.153,0.424,0.239s0.274,0.179,0.405,0.278s0.256,0.205,0.375,0.317
					c0.006,0.006,0.012,0.013,0.019,0.019c0.006,0.007,0.013,0.014,0.022,0.023c0.008,0.009,0.018,0.019,0.03,0.031
					C112.303,157.595,112.317,157.609,112.333,157.626 M115.624,157.484c0.117-0.114,0.241-0.222,0.37-0.323
					c0.129-0.101,0.263-0.196,0.4-0.284c0.137-0.088,0.277-0.17,0.419-0.246c0.141-0.076,0.284-0.145,0.427-0.209l-0.107,0.017
					c-0.005,0-0.009,0.001-0.014,0.001c-0.005,0-0.009,0-0.014,0.001c-0.005,0-0.009,0-0.014,0c-0.005,0-0.009,0-0.014,0
					c-0.118,0.001-0.233-0.023-0.341-0.066c-0.107-0.043-0.206-0.106-0.292-0.183s-0.157-0.168-0.209-0.267
					c-0.052-0.1-0.085-0.208-0.093-0.32c-0.02-0.105-0.035-0.217-0.044-0.334s-0.012-0.242-0.008-0.371s0.015-0.265,0.034-0.406
					s0.045-0.287,0.08-0.439c-0.18,0.307-0.314,0.682-0.413,1.072s-0.163,0.795-0.205,1.162c-0.042,0.367-0.061,0.695-0.069,0.931
					s-0.006,0.382-0.005,0.382c0.015-0.017,0.028-0.031,0.04-0.044s0.021-0.022,0.029-0.031c0.008-0.009,0.016-0.016,0.022-0.023
					S115.618,157.491,115.624,157.484"/>
			</g>
			<path opacity="0.1" fill="#C99A6F" d="M100.589,138.455l2.535,3.137c0,0,1.748,6.731,4.459,9.05
				c5.592,3.526,9.476,1.135,9.476,1.135l-9.57-13.376L100.589,138.455z"/>
			<path fill="#F6C785" d="M120.1,139.818l1.585,9.496c-3.175,3.472-6.801,3.458-11.03-1.212l-4.807-10.011
				c0,0,2.271-10.714,4.432-10.73S120.1,139.818,120.1,139.818z"/>
			<path opacity="0.5" fill="#FCCC92" d="M116.167,151.784c-0.644-2.892-1.041-4.465-1.25-7.421c0.377-3.404,3.026-3.77,4.422-2.167
				c0,0,2.166,6.299,2.346,7.116C121.685,149.313,119.415,152.053,116.167,151.784z"/>
			<path fill="#F6C785" d="M115.061,65.668c0.018-0.249-0.342,3.818-0.342,3.818s2.12-0.332,2.098-2.217
				S115.061,65.668,115.061,65.668z"/>
			<path fill="#A12E2F" d="M115.19,74.832c-13.004,8.469-24.986,7.005-35.157-0.999c0,0,4.875-23.226,6.794-26.986
				c3.435-3.286,14.224-6.773,20.022-5.894c3.701,0.91,6.35,4.021,7.737,6.059C115.318,48.086,115.19,74.832,115.19,74.832z"/>
			<path fill="#792323" d="M115.832,56.803c-0.549-1.414-1.13-1.658-1.912-2.094c-0.528-0.352-0.084-0.86,0.297-0.759
				c-0.446,0.151-0.152,0.731,0.305,0.373c0.371-0.376-0.014-1.155-0.769-0.675c-0.251-0.806-1.157-0.541-1.275,0.001
				c-0.056,0.234,0.111,0.35,0.27,0.347c0.128-0.002,0.433-0.181,0.237-0.447c0.473,0.008,0.305,0.834-0.453,0.834
				c-1.279,0.052-2.728,0.952-4.245,2.451c-0.438-3.351,1.399-7.699,2.376-9.643c0,0-1.735,4.974-0.457,6.545
				c0.587,0.811,2.302,0.775,2.306-0.721c-0.07-0.771-0.605-0.98-1.037-0.816c-0.512,0.251-0.354,1.07,0.366,0.781
				c0.027,0.597-0.833,0.766-1.053,0.12c-0.827-2.561,0.846-5.651,1.37-6.143c0.752-0.61,1.514,0.064,1.087,0.557
				c-0.26-0.615-0.998-0.161-0.915,0.433c0.339,0.872,1.523,0.912,1.806-0.233c0.397-1.129-0.734-3.401-4.193-3.642
				c-1.788,0.014-2.204,2.075-0.977,3.239c0,0-0.604,3.331-1.523,4.624c-0.058-0.035-0.118-0.078-0.179-0.121
				c-0.028-0.165-0.05-0.341-0.083-0.495l-0.849-10.398l-0.008-0.026c-5.887-0.498-16.161,2.766-19.494,5.955
				c-1.919,3.759-6.794,26.986-6.794,26.986c7.725,6.079,16.495,8.38,25.964,5.428l2.072-12.854c0.467-2.111,0.27-3.741-0.463-4.982
				c0.764-0.073,1.371,0.02,1.371,0.02c-0.606-0.926-0.563-2.047-0.563-2.047c1.634,1.159,3.091,1.659,4.374,1.4
				c0.842-0.255,1.24,0.78,0.626,0.917c-0.288-0.006-0.303-0.169-0.269-0.255c0.196,0.05,0.312-0.237,0.052-0.346
				c-0.372-0.147-0.665,0.207-0.634,0.518c0.049,0.444,0.435,0.811,1.123,0.574c1.089-0.376,0.714-1.465,0.443-1.946
				C114.824,59.7,115.33,58.143,115.832,56.803z"/>
			<g>
				<path fill="#FFC200" d="M112.486,67.141c-0.377,2.837-0.04,5.152,0.543,7.289c-2.905,2.209-5.473,4.617-7.648,7.257
					c-3.98-1.917-9.144-2.824-15.349-2.843c1.537-3.832,2.079-7.59,1.623-11.274c-5.351,0.739-4.824-4.286,0.349-2.569
					c3.682,1.047,15.571,1.784,20.334,0.168C114.56,64.584,114.711,67.332,112.486,67.141z"/>
				<path fill="#FBB03B" d="M107.432,65.99c-4.913,0.374-12.383-0.123-15.426-0.989c-5.174-1.717-5.701,3.308-0.349,2.569
					c0.455,3.684-0.086,7.442-1.623,11.274c6.204,0.02,11.369,0.926,15.349,2.843C105.381,81.687,107.391,66.143,107.432,65.99z"/>
				<path fill="#F6C785" d="M94.71,65.455c-4.157-0.927-6.875,4.843-2.004,7.404c-0.044,0.856-0.095,1.843-0.158,3.059
					c-0.05,0.969,0.611,1.835,1.561,2.037l5.069,1.08c3.542,0.321,6.646,0.292,8.622-0.642c0.885-1.709,1.714-2.569,2.691-3.436
					c0.542-0.481,0.81-1.201,0.725-1.921c-0.262-2.235-0.26-4.352,0.29-6.885C104.66,67.147,100.75,66.411,94.71,65.455z"/>
				<path fill="#FFFFFF" d="M108.023,70.528l-0.108,1.011c-7.402,0.925-10.917-0.235-12.534-1.818
					C100.925,71.245,108.023,70.528,108.023,70.528z"/>
				<path fill="#A67C52" d="M108.691,72.205l-0.891,2.42c0.391,3.416-1.442,6.454-5.687,6.656c4.614,1.081,7.631-2.322,6.344-6.705
					L108.691,72.205z"/>
				<path fill="#F6C785" d="M108.691,72.205c0,0-0.8,1.225-0.97,2.98c1.859,8.031-8.97,6.996-9.673,3.611l6.184-4.492
					L108.691,72.205z"/>
				<polygon opacity="0.1" fill="#A67C52" points="109.455,68.667 109.526,70.01 108.023,70.528 107.709,71.807 110.296,69.745 				
					"/>
				<path fill="#A67C52" d="M109.526,70.01c0,0-11.505,1.387-14.893-0.919c2.191,2.81,13.39,1.438,13.39,1.438L109.526,70.01z"/>
			</g>
			<path opacity="0.1" fill="#A67C52" d="M101.07,64.815c-0.202,1.34,1.087,2.222,2.503,1.532c2.242,1.888,7.302,0.157,7.567-1.292
				c0.452,0.022,1.106-0.514,1.054-1.38L101.07,64.815z"/>
			<path fill="#F6C785" d="M110.759,62.63c-1.855-1.731-4.26-0.848-6.807,0.703c-3.346-2.445-4.211,4.177-0.381,2.303
				c2.27,1.706,7.359,0.908,7.478-1.162C113.042,64.161,112.756,61.953,110.759,62.63z"/>
			<path fill="#FFC200" d="M115.832,56.803c-0.549-1.414-1.231-2.298-2.012-2.734c-0.528-0.352-0.084-0.86,0.297-0.759
				c-0.446,0.151-0.152,0.731,0.305,0.373c0.371-0.376-0.014-1.155-0.769-0.675c-0.251-0.806-1.157-0.541-1.275,0.001
				c-0.056,0.234,0.111,0.35,0.27,0.347c0.128-0.002,0.433-0.181,0.237-0.447c0.473,0.008,0.305,0.834-0.453,0.834
				c-1.279,0.052-2.728,0.952-4.245,2.451c-0.438-3.351,1.399-7.699,2.376-9.643c0,0-1.736,4.974-0.457,6.545
				c0.587,0.811,2.302,0.775,2.306-0.721c-0.07-0.771-0.605-0.98-1.037-0.816c-0.512,0.251-0.354,1.07,0.366,0.781
				c0.027,0.597-0.833,0.766-1.053,0.12c-0.827-2.561,0.846-5.651,1.37-6.143c0.752-0.61,1.514,0.064,1.087,0.557
				c-0.26-0.615-0.998-0.161-0.916,0.433c0.339,0.872,1.524,0.912,1.806-0.233c0.397-1.129-0.734-3.401-4.193-3.642
				c-1.789,0.014-2.204,2.075-0.977,3.239c0,0-0.604,3.331-1.523,4.624c-1.21-0.74-3.185-3.261-3.603-4.68
				c1-0.763,0.611-2.624-0.827-2.828c-1.68,0.099-3.144,1.419-3.855,2.792c-0.413,0.678-0.717,2.062,0.439,2.801
				c1.156,0.739,1.9-0.439,1.9-0.439s0.586-0.798-0.33-1.584c-0.653-0.335-1.182,0.322-0.88,1.013
				c-1.059-0.654-0.163-2.435,1.075-1.954c0.456,0.119,3.118,4.113,1.884,6.435c-0.328,0.413-0.738,0.196-0.653-0.263
				c0.45,0.108,0.664-0.445,0.178-0.853c-0.368-0.333-1.232-0.088-1.411,0.684c-0.214,1.777,1.55,1.692,1.55,1.692
				c1.521-0.238,1.963-2.57,0.935-5.034c1.341,1.097,3.219,4.146,3.278,7.229c-3.875,0.766-6.377-2.22-10.449-2.063
				c-1.678-0.41-0.66-2.291,0.263-2.026c0.234,0.086,0.144,0.265-0.018,0.273c-0.174-0.039-0.3,0.182-0.301,0.281
				c-0.003,0.523,0.531,0.674,0.936,0.303c1.467-1.798-1.778-3.834-2.865-0.655c-1.308-0.954-3.027,0.748-2.058,1.799
				c0.306,0.358,0.848,0.224,0.955-0.209c-0.037-0.317-0.204-0.332-0.423-0.215c0.012-0.658,0.78-0.861,1.221-0.289
				c0.279,0.361,0.216,1.006-0.754,1.409c-1.511,0.592-3.232,1.626-5.247,3.299c2.233,3.185,4.176,4.537,6.271,4.915
				c-0.346,0.754-0.041,2.066,1.09,2.046c0.949,0.095,1.116-1.265,0.472-1.433c-0.367-0.11-0.545,0.321-0.316,0.42
				c-0.017,0.25-0.375,0.328-0.468,0.062c-0.144-0.921,0.534-1.396,1.619-0.991c3.494-0.417,6.62-3.108,9.05-4.109
				c-0.229,0.731-0.349,1.558-0.197,2.165c1.308-0.756,3.077-0.481,3.077-0.481c-0.606-0.926-0.563-2.047-0.563-2.047
				c1.634,1.159,3.091,1.659,4.374,1.4c0.842-0.255,1.24,0.78,0.626,0.917c-0.288-0.006-0.303-0.169-0.27-0.255
				c0.196,0.05,0.312-0.237,0.052-0.346c-0.372-0.147-0.665,0.207-0.634,0.518c0.049,0.444,0.435,0.811,1.123,0.574
				c1.089-0.376,0.714-1.465,0.443-1.946C114.724,59.06,115.33,58.143,115.832,56.803z"/>
			<path fill="#FBB03B" d="M107.179,51.316l-0.013-0.143c-1.216-0.858-3.029-3.208-3.428-4.561c1-0.763,0.611-2.624-0.827-2.828
				c-1.679,0.099-3.144,1.419-3.855,2.792c-0.413,0.678-0.717,2.062,0.439,2.801s1.9-0.439,1.9-0.439s0.586-0.798-0.33-1.584
				c-0.653-0.335-1.182,0.322-0.88,1.013c-1.059-0.654-0.163-2.435,1.075-1.954c0.456,0.119,3.118,4.113,1.884,6.435
				c-0.328,0.413-0.739,0.196-0.654-0.263c0.45,0.108,0.664-0.445,0.178-0.853c-0.368-0.333-1.232-0.088-1.411,0.684
				c-0.214,1.777,1.55,1.692,1.55,1.692c1.521-0.238,1.963-2.57,0.935-5.034c1.341,1.097,3.219,4.146,3.278,7.229
				c-3.875,0.766-6.377-2.22-10.449-2.063c-1.678-0.409-0.66-2.291,0.263-2.026c0.234,0.086,0.144,0.265-0.018,0.273
				c-0.175-0.039-0.3,0.182-0.301,0.281c-0.004,0.523,0.531,0.674,0.936,0.303c1.467-1.798-1.778-3.834-2.865-0.655
				c-1.308-0.954-3.027,0.748-2.058,1.799c0.306,0.358,0.848,0.224,0.955-0.209c-0.037-0.317-0.204-0.332-0.423-0.215
				c0.012-0.658,0.78-0.861,1.221-0.289c0.279,0.361,0.216,1.006-0.754,1.409c-1.511,0.592-3.232,1.626-5.247,3.299
				c2.233,3.185,4.176,4.537,6.27,4.915c-0.346,0.754-0.041,2.066,1.09,2.046c0.949,0.095,1.116-1.265,0.472-1.433
				c-0.367-0.11-0.545,0.321-0.316,0.42c-0.017,0.25-0.376,0.328-0.468,0.062c-0.144-0.921,0.534-1.396,1.619-0.991
				c3.494-0.417,6.62-3.107,9.049-4.109c-0.229,0.731-0.349,1.558-0.197,2.165c0.442-0.255,0.935-0.391,1.396-0.462
				C107.45,58.124,107.755,53.932,107.179,51.316z"/>
			<path fill="#F6C785" d="M108.316,57.509c2.696,2.333,4.94,2.521,6.404-1.004C112.626,53.608,111.204,56.401,108.316,57.509z"/>
			<path fill="#F6C785" d="M104.202,57.949c-2.98-0.435-6.663-4.492-12.812,0.244C93.188,62.86,100.27,62.065,104.202,57.949z"/>
			<path opacity="0.2" fill="#473F39" d="M83.877,65.47c2.147,0.522,0.455,7.171-1.707,6.635
				C81.005,71.65,81.827,65.616,83.877,65.47z"/>
			<polygon fill="#736357" points="90.781,53.248 92.045,55.8 101.261,51.371 100.247,45.929 			"/>
			<path fill="#736357" d="M110.193,48.139c0.001,0.208-0.126,5.708-0.126,5.708l6.4,2.041l0.395-2.347L110.193,48.139z"/>
			<polygon opacity="0.1" fill="#A67C52" points="104.488,131.794 100.589,138.455 105.611,138.416 			"/>
			<path fill="#F6C785" d="M83.555,66.639c1.317,1.075,0.866,4.129-0.896,4.405c0,0-3.185-0.085-2.591-2.578
				C80.662,65.974,83.555,66.639,83.555,66.639z"/>
			<path opacity="0.2" fill="#A67C52" d="M108.316,57.509c3.396-0.532,3.881-3.224,6.404-1.004
				C112.626,53.608,111.204,56.401,108.316,57.509z"/>
			<path opacity="0.2" fill="#A67C52" d="M104.202,57.949c-0.378-0.03-0.789-0.159-1.235-0.339
				c-2.772-1.023-6.249-3.521-11.576,0.584C98.851,54.158,100.999,58.457,104.202,57.949z"/>
			<g>
				
					<ellipse transform="matrix(0.9929 0.1191 -0.1191 0.9929 7.6114 -11.0514)" fill="#A67C52" cx="96.273" cy="58.159" rx="1.764" ry="1.796"/>
				<path fill="#A67C52" d="M100.826,57.693c0.285,0.226,0.279,0.917-0.099,0.822c-1.793-1.13-4.346-1.684-6.113-0.733
					c0,0-0.241-0.813,1.157-1.218C97.958,56.07,100.826,57.693,100.826,57.693z"/>
				<circle fill="#F6C785" cx="97.11" cy="57.306" r="0.704"/>
				<circle fill="#736357" cx="96.096" cy="58.103" r="0.959"/>
				<g>
					<path fill="#A67C52" d="M109.393,57.237c0.155-0.189,1.251-1.224,1.949-1.294c0.698-0.069,1.729,0.354,2.107,0.603
						c0.223,0.094-0.036,0.366-0.182,0.305c-0.217-0.108-1.216-0.37-1.886-0.362s-1.953,1.092-1.953,1.092L109.393,57.237z"/>
					
						<ellipse transform="matrix(0.9951 -0.0991 0.0991 0.9951 -5.1833 11.2657)" fill="#A67C52" cx="110.834" cy="57.82" rx="1.252" ry="1.351"/>
					<circle fill="#F6C785" cx="111.159" cy="57.077" r="0.5"/>
					<circle fill="#736357" cx="110.591" cy="57.915" r="0.682"/>
				</g>
			</g>
			<path fill="#FFFFFF" stroke="#000000" stroke-miterlimit="10" d="M117.216,49.745"/>
			<path opacity="0.5" fill="#E6E6E6" d="M39.622,129.685l-0.232-4.212c1.682-10.901,9.928-17.739,20.06-21.757
				c15.576-5.419,22.825-0.882,46.615-10.685l0.082-8.226l4.674,6.973c-25.556,13.895-38.02,8.859-49.04,13.674
				C53.287,108.634,43.267,116.962,39.622,129.685z"/>
			<path fill="#A67C52" d="M94.399,70.271c0.235-1.181,1.309-2.148,1.309-2.148S93.945,68.344,94.399,70.271z"/>
			<g>
				<g enable-background="new    ">
					<g>
						<polygon fill="#EE5C5D" points="109.244,171.97 109.753,173.122 108.739,173.13 						"/>
					</g>
					<g>
						<polygon fill="#EE5C5D" points="122.055,171.872 122.566,173.023 121.552,173.031 						"/>
					</g>
					<g>
						<path fill="#EE5C5D" d="M124.145,173.276l0.462-0.004l0.014,1.551l-1.148,0.009c-0.141,0.001-0.268-0.011-0.383-0.035
							c-0.115-0.025-0.218-0.062-0.309-0.113c-0.091-0.051-0.17-0.114-0.239-0.191s-0.126-0.167-0.174-0.27l-0.093-0.212
							l-0.415,0.003l-0.073,0.208c-0.041,0.106-0.092,0.198-0.154,0.277c-0.062,0.079-0.134,0.144-0.218,0.196
							c-0.084,0.052-0.179,0.091-0.287,0.117c-0.107,0.026-0.227,0.04-0.359,0.041l-1.334,0.01c-0.12,0.001-0.232-0.009-0.335-0.029
							c-0.103-0.02-0.196-0.051-0.278-0.093c-0.083-0.042-0.155-0.094-0.216-0.156c-0.061-0.062-0.11-0.135-0.146-0.218
							l-1.469,0.011c-0.034,0.077-0.081,0.147-0.141,0.209c-0.06,0.062-0.132,0.116-0.215,0.16
							c-0.083,0.044-0.178,0.079-0.283,0.103c-0.105,0.024-0.22,0.037-0.344,0.038l-5.353,0.041
							c-0.141,0.001-0.268-0.011-0.383-0.035c-0.115-0.025-0.217-0.062-0.308-0.113s-0.17-0.114-0.239-0.191
							c-0.068-0.077-0.126-0.167-0.173-0.27l-0.093-0.213l-0.415,0.003c-0.002,0.003-0.011,0.021-0.023,0.046
							c-0.013,0.025-0.029,0.057-0.046,0.09c-0.017,0.033-0.034,0.066-0.047,0.092c-0.013,0.026-0.023,0.046-0.026,0.051
							c-0.051,0.096-0.108,0.179-0.173,0.25s-0.139,0.128-0.222,0.174c-0.083,0.046-0.175,0.08-0.279,0.102
							c-0.103,0.023-0.218,0.034-0.344,0.035l-1.266,0.01c-0.121,0.001-0.233-0.009-0.335-0.029
							c-0.103-0.02-0.196-0.051-0.278-0.093c-0.082-0.042-0.154-0.094-0.215-0.156s-0.109-0.135-0.145-0.218l-1.469,0.011
							c-0.034,0.077-0.081,0.147-0.141,0.209c-0.06,0.062-0.132,0.116-0.215,0.16c-0.083,0.044-0.178,0.079-0.283,0.103
							c-0.105,0.024-0.22,0.037-0.344,0.038l-1.283,0.01l-0.01-1.551l0.322-0.002l0.251-2.623l1.816-0.014l0.597,1.05l0.58-1.059
							l1.816-0.014l0.211,1.921l0.889-1.93l1.699-0.013l0.644,1.339c0.089-0.21,0.217-0.405,0.378-0.579
							c0.161-0.174,0.355-0.328,0.575-0.456c0.22-0.128,0.466-0.229,0.733-0.3c0.266-0.07,0.552-0.109,0.852-0.112
							c0.308-0.002,0.579,0.027,0.813,0.074c0.235,0.047,0.433,0.111,0.595,0.177c0.162,0.066,0.288,0.134,0.377,0.189
							c0.09,0.055,0.143,0.097,0.161,0.111l0.073-0.484l1.816-0.014l0.598,1.05l0.579-1.059l1.816-0.014l0.212,1.921l0.886-1.93
							l1.702-0.013L124.145,173.276z M120.068,174.331l-0.004-0.493l-0.175,0.001c-0.019,0-0.036-0.002-0.051-0.006
							c-0.015-0.004-0.027-0.01-0.037-0.019c-0.01-0.008-0.018-0.018-0.024-0.03c-0.006-0.012-0.01-0.026-0.012-0.041l-0.28-2.561
							l-0.765,0.006l-1.005,1.931l-1.046-1.915l-0.767,0.006l-0.238,2.565c-0.002,0.016-0.005,0.03-0.011,0.042
							s-0.014,0.022-0.024,0.031c-0.01,0.008-0.022,0.015-0.037,0.019c-0.015,0.004-0.032,0.007-0.051,0.007l-0.175,0.001
							l0.004,0.493l0.637-0.005c0.066-0.001,0.121-0.006,0.168-0.018s0.084-0.03,0.114-0.055s0.052-0.056,0.068-0.094
							c0.016-0.038,0.026-0.084,0.03-0.137l0.12-1.897l0.909,1.648l0.599-0.005l0.882-1.659l0.156,1.891
							c0.006,0.053,0.017,0.099,0.033,0.137c0.016,0.038,0.038,0.069,0.068,0.093s0.066,0.042,0.112,0.053s0.101,0.016,0.167,0.016
							L120.068,174.331 M107.253,174.429l-0.003-0.493l-0.175,0.001c-0.019,0-0.036-0.002-0.051-0.006s-0.027-0.01-0.037-0.019
							s-0.018-0.018-0.024-0.03c-0.006-0.012-0.01-0.026-0.012-0.041l-0.276-2.561l-0.765,0.006l-1.008,1.931l-1.043-1.915
							l-0.767,0.006l-0.242,2.565c-0.002,0.016-0.005,0.03-0.011,0.042c-0.006,0.012-0.014,0.022-0.024,0.031
							c-0.01,0.008-0.023,0.015-0.038,0.019c-0.015,0.004-0.032,0.007-0.052,0.007l-0.173,0.001l0.003,0.493l0.637-0.005
							c0.066-0.001,0.121-0.006,0.168-0.018c0.046-0.012,0.084-0.03,0.114-0.055s0.052-0.056,0.068-0.094
							c0.016-0.038,0.026-0.084,0.031-0.137l0.123-1.897l0.909,1.648l0.597-0.005l0.884-1.659l0.153,1.891
							c0.006,0.053,0.017,0.099,0.033,0.137c0.016,0.038,0.038,0.069,0.068,0.093c0.029,0.024,0.066,0.042,0.112,0.053
							c0.046,0.011,0.101,0.016,0.167,0.016L107.253,174.429 M115.017,174.37l-0.011-1.345c0-0.052-0.008-0.097-0.023-0.135
							c-0.015-0.038-0.038-0.068-0.069-0.092c-0.031-0.024-0.071-0.041-0.119-0.052s-0.106-0.016-0.174-0.016l-0.648,0.005
							l0.004,0.492l0.243-0.002c0.02,0,0.037,0.002,0.053,0.006s0.028,0.01,0.039,0.018c0.011,0.008,0.019,0.018,0.024,0.03
							c0.005,0.012,0.008,0.027,0.008,0.043l0.002,0.237c-0.005,0.004-0.03,0.027-0.076,0.059c-0.046,0.032-0.112,0.073-0.198,0.113
							c-0.086,0.041-0.19,0.081-0.314,0.111c-0.123,0.03-0.265,0.051-0.424,0.052c-0.179,0.001-0.351-0.024-0.508-0.073
							s-0.299-0.122-0.419-0.217c-0.12-0.095-0.218-0.211-0.286-0.347c-0.068-0.136-0.107-0.291-0.108-0.463
							c-0.001-0.16,0.035-0.307,0.1-0.438s0.16-0.245,0.277-0.34c0.117-0.095,0.255-0.169,0.407-0.221
							c0.152-0.051,0.319-0.08,0.492-0.081c0.152-0.001,0.291,0.014,0.414,0.038c0.123,0.024,0.231,0.057,0.32,0.09
							c0.089,0.033,0.16,0.067,0.21,0.094c0.05,0.026,0.079,0.045,0.084,0.049l0.414-0.42c-0.006-0.005-0.039-0.032-0.101-0.07
							c-0.062-0.038-0.152-0.087-0.272-0.135c-0.12-0.048-0.27-0.095-0.451-0.129c-0.181-0.035-0.393-0.057-0.638-0.055
							c-0.29,0.002-0.562,0.048-0.807,0.131s-0.462,0.2-0.643,0.347c-0.181,0.146-0.325,0.321-0.424,0.515
							c-0.099,0.195-0.152,0.409-0.15,0.636c0.002,0.254,0.06,0.483,0.162,0.685c0.102,0.201,0.248,0.374,0.427,0.515
							s0.39,0.25,0.622,0.323c0.232,0.073,0.485,0.111,0.747,0.109c0.188-0.001,0.354-0.023,0.497-0.054s0.265-0.073,0.364-0.114
							c0.099-0.042,0.174-0.084,0.227-0.117c0.052-0.033,0.082-0.056,0.087-0.06c0.003,0,0.005,0.004,0.006,0.011
							s0.002,0.018,0.002,0.03c0,0.012,0,0.027,0,0.042c0,0.016,0,0.032,0,0.049l0.001,0.151L115.017,174.37 M111.094,174.4
							l-0.004-0.493L111,173.908c-0.024,0-0.045-0.001-0.063-0.004c-0.018-0.003-0.034-0.007-0.048-0.015s-0.026-0.017-0.036-0.029
							c-0.011-0.013-0.02-0.029-0.029-0.048l-1.201-2.554l-0.772,0.006l-1.171,2.572c-0.009,0.02-0.018,0.036-0.028,0.049
							c-0.01,0.013-0.022,0.023-0.036,0.03c-0.014,0.007-0.029,0.012-0.047,0.015s-0.039,0.004-0.063,0.005l-0.091,0.001
							l0.003,0.493l0.445-0.003c0.071-0.001,0.129-0.005,0.179-0.013c0.05-0.009,0.091-0.023,0.126-0.042s0.064-0.046,0.089-0.08
							c0.026-0.034,0.048-0.075,0.07-0.125l0.246-0.553l1.353-0.01l0.251,0.549c0.023,0.05,0.047,0.091,0.074,0.124
							c0.027,0.033,0.057,0.059,0.093,0.078c0.036,0.019,0.078,0.032,0.129,0.041s0.11,0.011,0.18,0.011L111.094,174.4
							 M123.909,174.301l-0.004-0.493l-0.091,0.001c-0.024,0-0.045-0.001-0.063-0.004c-0.018-0.003-0.034-0.007-0.048-0.015
							c-0.014-0.007-0.026-0.017-0.036-0.029s-0.02-0.029-0.029-0.048l-1.205-2.554l-0.774,0.006l-1.165,2.572
							c-0.009,0.02-0.018,0.036-0.028,0.049c-0.01,0.013-0.022,0.023-0.036,0.03s-0.029,0.012-0.047,0.015
							c-0.018,0.003-0.039,0.004-0.063,0.005l-0.091,0.001l0.004,0.493l0.445-0.003c0.071-0.001,0.129-0.005,0.179-0.013
							c0.05-0.009,0.091-0.023,0.126-0.042c0.035-0.02,0.064-0.046,0.09-0.08c0.026-0.034,0.049-0.075,0.071-0.125l0.242-0.553
							l1.353-0.01l0.252,0.549c0.023,0.05,0.047,0.091,0.074,0.124c0.027,0.033,0.057,0.059,0.093,0.078
							c0.036,0.019,0.078,0.032,0.129,0.041c0.051,0.008,0.11,0.011,0.18,0.011L123.909,174.301"/>
					</g>
					<g>
						<polygon fill="#EE5C5D" points="113.271,175.694 113.486,176.03 113.96,176.082 113.619,176.347 113.703,176.72 
							113.277,176.547 112.857,176.727 112.933,176.353 112.588,176.092 113.061,176.034 						"/>
					</g>
					<g>
						<path fill="#EE5C5D" d="M119.861,175.498l0.011,1.309l-0.238,0.002l-0.009-1.03l-0.177,0.001l-0.001-0.14
							c0.03-0.008,0.057-0.018,0.082-0.028c0.025-0.01,0.047-0.021,0.067-0.033s0.037-0.025,0.052-0.038s0.027-0.027,0.037-0.042
							L119.861,175.498z"/>
					</g>
					<g>
						<path fill="#EE5C5D" d="M116.015,175.515c0.034,0,0.066,0.001,0.095,0.005s0.058,0.009,0.083,0.016
							c0.026,0.007,0.049,0.016,0.071,0.027c0.022,0.011,0.041,0.024,0.059,0.038c0.018,0.015,0.034,0.031,0.048,0.049
							c0.014,0.018,0.025,0.037,0.034,0.058s0.016,0.043,0.02,0.067c0.005,0.024,0.007,0.049,0.007,0.077c0,0.01,0,0.02-0.001,0.03
							s-0.001,0.019-0.002,0.028c-0.001,0.009-0.002,0.018-0.004,0.027c-0.002,0.009-0.004,0.018-0.006,0.027
							c-0.002,0.009-0.005,0.018-0.008,0.026c-0.003,0.009-0.006,0.017-0.009,0.026c-0.003,0.009-0.007,0.017-0.011,0.025
							c-0.004,0.008-0.008,0.016-0.013,0.024c-0.005,0.008-0.009,0.016-0.014,0.024s-0.009,0.014-0.014,0.021
							s-0.009,0.013-0.013,0.019c-0.004,0.006-0.008,0.012-0.013,0.017c-0.004,0.005-0.009,0.011-0.013,0.017
							c-0.005,0.006-0.01,0.012-0.016,0.019c-0.006,0.007-0.012,0.014-0.018,0.021c-0.006,0.007-0.013,0.015-0.02,0.023
							l-0.412,0.424l0.592-0.005l0.002,0.188l-0.833,0.006l-0.001-0.188l0.414-0.47l0.032-0.035l0.032-0.039l0.028-0.035l0.03-0.039
							l0.021-0.039l0.018-0.044l0.009-0.044l0.004-0.053c0-0.013-0.001-0.026-0.003-0.038s-0.005-0.024-0.008-0.035
							c-0.004-0.011-0.008-0.021-0.014-0.031c-0.006-0.01-0.012-0.019-0.02-0.028c-0.008-0.009-0.017-0.017-0.027-0.024
							c-0.009-0.007-0.02-0.012-0.031-0.017c-0.011-0.005-0.023-0.008-0.035-0.01c-0.013-0.002-0.026-0.003-0.041-0.003
							c-0.009,0-0.017,0.001-0.025,0.002c-0.008,0.001-0.015,0.002-0.023,0.004c-0.007,0.002-0.014,0.004-0.02,0.007
							s-0.013,0.005-0.018,0.009c-0.006,0.003-0.012,0.007-0.018,0.011c-0.006,0.004-0.011,0.008-0.015,0.013
							s-0.009,0.01-0.013,0.015s-0.007,0.011-0.01,0.017c-0.003,0.006-0.006,0.011-0.009,0.017
							c-0.003,0.006-0.005,0.012-0.007,0.018c-0.002,0.006-0.004,0.013-0.006,0.019c-0.002,0.006-0.004,0.013-0.005,0.019
							c-0.001,0.006-0.002,0.013-0.003,0.02s-0.001,0.014-0.002,0.021c-0.001,0.007-0.001,0.014-0.001,0.022
							c0,0.007,0,0.015,0,0.023l0,0.048l-0.238,0.002l0-0.048c0-0.031,0.002-0.06,0.005-0.087c0.004-0.027,0.01-0.053,0.018-0.076
							c0.008-0.024,0.018-0.046,0.031-0.066c0.012-0.02,0.027-0.039,0.044-0.056c0.016-0.017,0.035-0.032,0.056-0.045
							s0.045-0.024,0.071-0.032s0.055-0.015,0.086-0.019S115.979,175.515,116.015,175.515z"/>
					</g>
					<g>
						<polygon fill="#EE5C5D" points="109.244,175.594 109.253,176.89 109.085,176.892 108.659,176.032 108.666,176.895 
							108.43,176.897 108.421,175.6 108.575,175.599 109.015,176.443 109.008,175.596 						"/>
					</g>
					<g>
						<polygon fill="#EE5C5D" points="111.066,175.58 111.067,175.718 110.656,175.721 110.659,176.138 110.953,176.136 
							110.954,176.276 110.66,176.278 110.665,176.88 110.429,176.881 110.42,175.585 						"/>
					</g>
					<g>
						<path fill="#EE5C5D" d="M121.785,175.483l0.002,0.186l-0.52,0.004l-0.011,0.318c0.017-0.008,0.034-0.015,0.053-0.021
							c0.018-0.006,0.037-0.011,0.057-0.015c0.02-0.004,0.04-0.007,0.062-0.01c0.021-0.002,0.043-0.003,0.066-0.004
							c0.013,0,0.026,0,0.039,0.001s0.025,0.002,0.037,0.004s0.023,0.004,0.034,0.006c0.011,0.002,0.022,0.005,0.033,0.008
							c0.011,0.003,0.02,0.007,0.03,0.01c0.009,0.004,0.018,0.008,0.027,0.012c0.008,0.004,0.016,0.009,0.024,0.014
							s0.014,0.01,0.021,0.016c0.007,0.005,0.014,0.011,0.02,0.017c0.006,0.006,0.012,0.013,0.018,0.02s0.011,0.014,0.015,0.022
							s0.009,0.015,0.013,0.024c0.005,0.008,0.009,0.017,0.013,0.025c0.004,0.008,0.007,0.017,0.011,0.026s0.006,0.018,0.008,0.026
							c0.002,0.009,0.005,0.018,0.006,0.027c0.002,0.01,0.004,0.019,0.005,0.029c0.002,0.01,0.003,0.02,0.004,0.03
							c0.001,0.01,0.002,0.021,0.003,0.032c0.001,0.011,0.001,0.022,0.001,0.033c0,0.014,0,0.027,0,0.041
							c0,0.013-0.001,0.026-0.002,0.039c-0.001,0.013-0.002,0.025-0.003,0.037c-0.001,0.012-0.003,0.023-0.005,0.034
							c-0.002,0.012-0.004,0.023-0.006,0.034c-0.002,0.011-0.005,0.022-0.009,0.033c-0.003,0.011-0.007,0.022-0.011,0.032
							c-0.004,0.011-0.008,0.021-0.013,0.031c-0.005,0.011-0.01,0.021-0.016,0.03s-0.011,0.019-0.018,0.028s-0.013,0.017-0.02,0.026
							c-0.007,0.008-0.015,0.016-0.023,0.023c-0.008,0.007-0.016,0.014-0.024,0.02s-0.018,0.012-0.028,0.018
							c-0.01,0.006-0.02,0.011-0.031,0.016c-0.011,0.005-0.023,0.009-0.035,0.014c-0.013,0.005-0.026,0.009-0.039,0.012
							c-0.013,0.003-0.027,0.006-0.042,0.008c-0.014,0.002-0.029,0.004-0.045,0.005c-0.016,0.001-0.032,0.002-0.049,0.002
							c-0.037,0-0.071-0.002-0.102-0.005c-0.032-0.004-0.06-0.01-0.087-0.018c-0.026-0.008-0.05-0.018-0.071-0.03
							c-0.021-0.012-0.04-0.026-0.055-0.042c-0.016-0.016-0.03-0.035-0.042-0.055c-0.012-0.02-0.022-0.042-0.031-0.066
							c-0.008-0.024-0.015-0.05-0.019-0.078c-0.004-0.028-0.007-0.058-0.007-0.09l0.238-0.002l0,0.029c0,0.006,0,0.013,0.001,0.019
							c0,0.006,0.001,0.012,0.001,0.017c0,0.006,0.001,0.011,0.001,0.016c0,0.005,0,0.01,0.001,0.014
							c0.001,0.005,0.001,0.009,0.002,0.014s0.002,0.009,0.003,0.014c0.001,0.005,0.003,0.009,0.004,0.014
							c0.001,0.005,0.003,0.009,0.005,0.014c0.002,0.005,0.004,0.01,0.006,0.014c0.002,0.004,0.004,0.009,0.007,0.012
							c0.002,0.004,0.005,0.008,0.008,0.011s0.005,0.007,0.008,0.01l0.047,0.029c0.005,0.002,0.01,0.003,0.015,0.005
							s0.011,0.002,0.017,0.003c0.006,0.001,0.012,0.002,0.018,0.002c0.006,0,0.013,0.001,0.02,0.001l0.058-0.006l0.047-0.017
							l0.032-0.026l0.025-0.033l0.016-0.041l0.009-0.044c0.001-0.003,0.001-0.007,0.001-0.01c0-0.004,0.001-0.008,0.001-0.012
							c0-0.004,0.001-0.009,0.001-0.014c0-0.005,0.001-0.01,0.001-0.016c0-0.006,0-0.011,0-0.016s0-0.009,0.001-0.013
							c0-0.004,0.001-0.008,0.001-0.011c0-0.003,0-0.007,0-0.009c0-0.003,0-0.007,0-0.01c0-0.004,0-0.008,0-0.012
							c0-0.004,0-0.009,0-0.014c0-0.005,0-0.011,0-0.017l0-0.026c0-0.005,0-0.01,0-0.015c0-0.005,0-0.009,0-0.014
							c0-0.004,0-0.009-0.001-0.013s-0.001-0.008-0.001-0.012l-0.005-0.048l-0.012-0.044l-0.021-0.035l-0.03-0.027l-0.047-0.016
							l-0.061-0.005c-0.011,0-0.021,0.001-0.031,0.002c-0.01,0.001-0.019,0.004-0.029,0.006s-0.018,0.006-0.026,0.01
							c-0.008,0.004-0.016,0.008-0.024,0.014c-0.008,0.006-0.015,0.011-0.021,0.017c-0.007,0.006-0.013,0.012-0.018,0.019
							c-0.006,0.006-0.011,0.013-0.015,0.02c-0.005,0.007-0.009,0.014-0.012,0.021l-0.203,0.002l-0.006-0.706L121.785,175.483z"/>
					</g>
					<g>
						<path fill="#EE5C5D" d="M118.243,175.6c0.018,0.017,0.033,0.036,0.046,0.057s0.024,0.042,0.033,0.066
							c0.009,0.023,0.016,0.049,0.02,0.075s0.007,0.055,0.007,0.085l0.005,0.561c0,0.029-0.002,0.057-0.006,0.084
							c-0.004,0.026-0.011,0.052-0.019,0.075c-0.009,0.024-0.019,0.046-0.032,0.067c-0.013,0.021-0.028,0.04-0.045,0.058
							c-0.018,0.018-0.038,0.033-0.06,0.046c-0.022,0.013-0.046,0.024-0.071,0.033c-0.026,0.009-0.053,0.016-0.083,0.02
							s-0.062,0.007-0.095,0.007c-0.023,0-0.045-0.001-0.066-0.003s-0.041-0.005-0.06-0.009c-0.019-0.004-0.038-0.009-0.055-0.015
							s-0.034-0.013-0.05-0.021c-0.016-0.009-0.031-0.018-0.044-0.028c-0.014-0.01-0.027-0.02-0.038-0.031
							c-0.012-0.011-0.022-0.023-0.032-0.036c-0.01-0.013-0.018-0.026-0.026-0.04c-0.008-0.015-0.014-0.03-0.02-0.045
							c-0.006-0.016-0.01-0.032-0.014-0.049c-0.004-0.017-0.007-0.034-0.009-0.052c-0.002-0.018-0.003-0.037-0.003-0.056
							l-0.005-0.561c0-0.03,0.002-0.058,0.006-0.085c0.004-0.027,0.01-0.052,0.019-0.076c0.008-0.024,0.019-0.046,0.032-0.066
							s0.027-0.039,0.044-0.056c0.017-0.018,0.037-0.033,0.059-0.046s0.046-0.024,0.072-0.033c0.026-0.009,0.054-0.015,0.084-0.02
							c0.03-0.004,0.063-0.007,0.097-0.007c0.034,0,0.067,0.002,0.097,0.006c0.03,0.004,0.058,0.01,0.084,0.018
							c0.026,0.008,0.05,0.019,0.071,0.032C118.207,175.568,118.226,175.583,118.243,175.6z M118.117,176.445l-0.005-0.561
							c0-0.006,0-0.013,0-0.019c0-0.006,0-0.012,0-0.018s0-0.012-0.001-0.017c0-0.005-0.001-0.011-0.002-0.016
							c-0.001-0.005-0.002-0.01-0.003-0.015s-0.002-0.01-0.004-0.016c-0.002-0.005-0.003-0.011-0.005-0.016
							c-0.002-0.005-0.004-0.01-0.005-0.015c-0.002-0.005-0.004-0.011-0.006-0.016c-0.002-0.005-0.005-0.009-0.007-0.014
							c-0.003-0.004-0.005-0.008-0.008-0.012c-0.003-0.004-0.006-0.008-0.009-0.011l-0.052-0.035
							c-0.005-0.002-0.011-0.004-0.017-0.006c-0.006-0.002-0.012-0.003-0.018-0.004c-0.006-0.001-0.013-0.002-0.02-0.002
							c-0.007,0-0.014-0.001-0.022-0.001c-0.008,0-0.015,0-0.022,0.001c-0.007,0.001-0.014,0.001-0.02,0.002
							c-0.006,0.001-0.013,0.002-0.018,0.004c-0.006,0.002-0.011,0.004-0.017,0.006l-0.051,0.035
							c-0.003,0.004-0.007,0.008-0.01,0.012c-0.003,0.004-0.006,0.008-0.008,0.013c-0.002,0.004-0.005,0.009-0.007,0.014
							c-0.002,0.005-0.004,0.01-0.006,0.016c-0.002,0.005-0.003,0.01-0.005,0.015c-0.002,0.005-0.003,0.011-0.005,0.016
							c-0.001,0.005-0.003,0.011-0.004,0.016c-0.001,0.005-0.002,0.01-0.002,0.015c-0.001,0.005-0.001,0.01-0.001,0.016
							s0,0.011-0.001,0.017c0,0.006,0,0.012,0,0.018s0,0.012,0,0.019l0.005,0.561c0,0.008,0,0.016,0.001,0.023
							s0.001,0.015,0.001,0.022c0.001,0.007,0.001,0.014,0.002,0.021c0.001,0.007,0.002,0.014,0.003,0.02
							c0.001,0.006,0.003,0.013,0.005,0.019c0.002,0.006,0.004,0.012,0.006,0.018s0.005,0.012,0.008,0.018
							c0.003,0.006,0.006,0.012,0.01,0.018c0.003,0.006,0.006,0.011,0.01,0.016c0.004,0.005,0.008,0.01,0.013,0.014
							s0.009,0.009,0.015,0.013c0.005,0.004,0.011,0.008,0.017,0.012c0.006,0.003,0.013,0.006,0.02,0.008
							c0.007,0.002,0.014,0.005,0.021,0.006c0.007,0.002,0.015,0.003,0.023,0.004c0.008,0.001,0.016,0.001,0.025,0.001
							c0.03,0,0.056-0.005,0.078-0.015s0.04-0.025,0.055-0.045c0.015-0.02,0.025-0.044,0.032-0.074
							C118.114,176.519,118.118,176.484,118.117,176.445"/>
					</g>
					<g>
						<path fill="#EE5C5D" d="M104.747,175.616c0.021,0,0.041,0,0.061,0.001c0.02,0.001,0.038,0.003,0.056,0.005
							c0.018,0.002,0.035,0.005,0.051,0.009c0.016,0.004,0.032,0.008,0.046,0.014c0.015,0.005,0.03,0.01,0.043,0.017
							c0.014,0.006,0.027,0.013,0.039,0.02c0.012,0.007,0.024,0.015,0.035,0.024c0.011,0.008,0.021,0.017,0.03,0.027
							c0.009,0.009,0.018,0.019,0.026,0.029c0.008,0.01,0.016,0.021,0.023,0.032s0.013,0.023,0.019,0.036
							c0.006,0.012,0.01,0.025,0.015,0.038c0.005,0.013,0.009,0.026,0.012,0.04s0.007,0.028,0.009,0.042
							c0.002,0.015,0.004,0.03,0.006,0.045c0.001,0.015,0.002,0.031,0.002,0.047l-0.236,0.002c0-0.012,0-0.023-0.001-0.034
							c-0.001-0.011-0.001-0.022-0.003-0.032c-0.001-0.01-0.002-0.02-0.004-0.029c-0.001-0.009-0.003-0.018-0.005-0.026
							c-0.002-0.009-0.004-0.017-0.007-0.025s-0.006-0.016-0.009-0.023c-0.003-0.007-0.007-0.014-0.011-0.021
							s-0.008-0.013-0.013-0.019c-0.005-0.005-0.01-0.011-0.015-0.016c-0.005-0.005-0.011-0.01-0.017-0.014
							c-0.006-0.004-0.012-0.008-0.019-0.012c-0.007-0.004-0.014-0.007-0.022-0.009c-0.008-0.003-0.016-0.005-0.024-0.007
							s-0.017-0.004-0.027-0.006c-0.009-0.002-0.019-0.003-0.029-0.004c-0.01-0.001-0.021-0.001-0.032-0.001
							c-0.011,0-0.022,0.001-0.032,0.002s-0.02,0.002-0.029,0.004c-0.009,0.002-0.018,0.004-0.026,0.006s-0.016,0.005-0.023,0.008
							c-0.008,0.003-0.015,0.006-0.022,0.01c-0.007,0.004-0.014,0.008-0.02,0.012c-0.006,0.004-0.012,0.009-0.018,0.014
							c-0.005,0.005-0.011,0.01-0.015,0.016c-0.004,0.006-0.008,0.012-0.012,0.019c-0.004,0.007-0.007,0.014-0.01,0.021
							c-0.003,0.007-0.006,0.015-0.008,0.023c-0.002,0.008-0.005,0.016-0.006,0.025c-0.002,0.008-0.004,0.017-0.006,0.026
							c-0.002,0.009-0.003,0.019-0.004,0.029c-0.001,0.01-0.002,0.021-0.002,0.032c-0.001,0.011-0.001,0.023-0.001,0.034
							l0.003,0.463c0,0.009,0,0.017,0.001,0.026c0.001,0.009,0.002,0.017,0.003,0.025c0.001,0.008,0.003,0.017,0.005,0.025
							c0.002,0.008,0.004,0.017,0.006,0.025c0.002,0.008,0.004,0.016,0.007,0.024s0.006,0.015,0.009,0.023s0.007,0.015,0.011,0.022
							c0.004,0.007,0.008,0.014,0.012,0.021c0.005,0.006,0.01,0.012,0.015,0.018c0.006,0.006,0.012,0.011,0.018,0.016
							c0.006,0.005,0.013,0.01,0.02,0.015c0.007,0.005,0.014,0.009,0.022,0.013c0.007,0.004,0.015,0.008,0.023,0.011
							c0.008,0.003,0.017,0.005,0.026,0.007c0.009,0.002,0.019,0.003,0.029,0.004c0.01,0.001,0.021,0.001,0.032,0.001
							c0.011,0,0.022-0.001,0.032-0.002c0.01-0.001,0.02-0.003,0.029-0.005c0.009-0.002,0.018-0.005,0.027-0.008
							c0.008-0.003,0.016-0.007,0.024-0.011c0.008-0.004,0.015-0.009,0.021-0.013c0.007-0.005,0.013-0.01,0.019-0.015
							s0.012-0.011,0.017-0.017c0.005-0.006,0.01-0.012,0.015-0.018c0.005-0.007,0.009-0.014,0.013-0.021s0.008-0.015,0.011-0.022
							c0.003-0.008,0.006-0.015,0.009-0.023c0.003-0.008,0.005-0.016,0.006-0.024c0.002-0.008,0.003-0.017,0.005-0.025
							c0.001-0.008,0.003-0.017,0.004-0.025c0.001-0.008,0.002-0.017,0.002-0.025c0-0.009,0.001-0.017,0.001-0.026l0-0.048
							l0.236-0.002l0,0.048c0,0.014,0,0.028-0.001,0.042c-0.001,0.014-0.003,0.028-0.004,0.042
							c-0.002,0.014-0.004,0.027-0.007,0.041s-0.006,0.026-0.009,0.039c-0.004,0.013-0.009,0.026-0.014,0.039
							c-0.005,0.012-0.011,0.024-0.018,0.036c-0.007,0.012-0.014,0.023-0.022,0.033c-0.008,0.011-0.016,0.021-0.025,0.031
							c-0.009,0.01-0.019,0.019-0.03,0.028c-0.011,0.009-0.022,0.017-0.034,0.025c-0.012,0.008-0.025,0.015-0.038,0.022
							s-0.027,0.014-0.042,0.02c-0.015,0.006-0.031,0.011-0.048,0.015c-0.017,0.004-0.035,0.008-0.053,0.011
							c-0.019,0.003-0.038,0.006-0.059,0.007c-0.02,0.002-0.042,0.003-0.064,0.003c-0.022,0-0.043,0-0.064-0.002
							c-0.02-0.001-0.039-0.004-0.058-0.007s-0.036-0.007-0.053-0.011s-0.033-0.01-0.048-0.015c-0.015-0.006-0.03-0.012-0.043-0.019
							c-0.014-0.007-0.027-0.014-0.039-0.022c-0.012-0.008-0.024-0.016-0.034-0.026c-0.011-0.009-0.02-0.019-0.029-0.029
							c-0.009-0.01-0.018-0.022-0.026-0.033c-0.008-0.012-0.015-0.024-0.022-0.037c-0.007-0.013-0.013-0.026-0.018-0.04
							c-0.005-0.014-0.01-0.028-0.014-0.043c-0.004-0.014-0.008-0.029-0.011-0.044c-0.003-0.015-0.006-0.031-0.008-0.047
							s-0.003-0.032-0.005-0.049c-0.001-0.017-0.002-0.034-0.002-0.051l-0.002-0.37c0-0.017,0-0.035,0.001-0.051
							c0.001-0.017,0.002-0.033,0.004-0.049c0.002-0.016,0.004-0.032,0.007-0.047c0.003-0.015,0.006-0.03,0.01-0.044
							c0.004-0.015,0.009-0.029,0.014-0.043c0.005-0.014,0.011-0.027,0.017-0.04c0.006-0.013,0.014-0.025,0.021-0.036
							s0.016-0.022,0.026-0.033c0.009-0.011,0.018-0.021,0.029-0.03c0.01-0.01,0.022-0.018,0.034-0.027s0.025-0.016,0.039-0.023
							c0.014-0.007,0.028-0.014,0.043-0.02c0.015-0.006,0.031-0.011,0.048-0.016s0.034-0.008,0.052-0.011
							c0.018-0.003,0.038-0.005,0.058-0.007C104.704,175.617,104.725,175.616,104.747,175.616z"/>
					</g>
					<g>
						<path fill="#EE5C5D" d="M107.254,175.861c0.004,0.013,0.008,0.026,0.011,0.039c0.003,0.013,0.006,0.027,0.008,0.041
							c0.002,0.014,0.003,0.028,0.004,0.042c0.001,0.014,0.002,0.029,0.002,0.043l0.003,0.463c0,0.014,0,0.028-0.001,0.042
							c-0.001,0.014-0.002,0.028-0.004,0.042c-0.002,0.014-0.004,0.027-0.007,0.041c-0.003,0.013-0.006,0.026-0.01,0.039
							c-0.003,0.013-0.008,0.026-0.013,0.039c-0.005,0.012-0.011,0.024-0.017,0.036c-0.006,0.012-0.014,0.023-0.021,0.033
							s-0.016,0.021-0.025,0.031c-0.009,0.01-0.019,0.019-0.03,0.028c-0.011,0.009-0.022,0.017-0.034,0.025
							c-0.012,0.008-0.025,0.015-0.038,0.022s-0.028,0.014-0.043,0.02c-0.015,0.006-0.031,0.011-0.048,0.015
							s-0.035,0.008-0.054,0.011c-0.019,0.003-0.039,0.006-0.059,0.007c-0.021,0.002-0.042,0.003-0.065,0.003
							c-0.015,0-0.03,0-0.044-0.001s-0.028-0.002-0.042-0.003c-0.013-0.001-0.026-0.003-0.039-0.005
							c-0.013-0.002-0.025-0.004-0.036-0.007c-0.012-0.003-0.024-0.006-0.035-0.009c-0.011-0.003-0.022-0.006-0.032-0.01
							s-0.02-0.007-0.029-0.012c-0.009-0.004-0.018-0.008-0.027-0.013c-0.009-0.005-0.017-0.009-0.025-0.015
							s-0.016-0.011-0.023-0.016c-0.007-0.006-0.014-0.012-0.021-0.018c-0.007-0.006-0.013-0.012-0.02-0.019
							c-0.006-0.007-0.012-0.014-0.017-0.021s-0.01-0.014-0.015-0.021c-0.005-0.007-0.009-0.015-0.013-0.022
							c-0.004-0.008-0.008-0.016-0.012-0.024c-0.004-0.008-0.007-0.016-0.01-0.024s-0.006-0.017-0.009-0.025
							c-0.003-0.008-0.005-0.017-0.007-0.026c-0.002-0.009-0.004-0.017-0.005-0.026c-0.002-0.009-0.003-0.018-0.005-0.028
							c-0.001-0.009-0.002-0.018-0.003-0.028c-0.001-0.009-0.001-0.019-0.002-0.028c0-0.009-0.001-0.019-0.001-0.029l-0.003-0.463
							c0-0.01,0-0.019,0-0.029s0.001-0.019,0.001-0.029c0.001-0.009,0.002-0.019,0.003-0.028c0.001-0.009,0.003-0.018,0.004-0.027
							c0.001-0.009,0.003-0.018,0.005-0.027c0.002-0.009,0.004-0.018,0.007-0.026c0.003-0.009,0.005-0.017,0.008-0.025
							s0.006-0.016,0.01-0.024c0.003-0.008,0.007-0.016,0.011-0.023c0.004-0.008,0.008-0.015,0.013-0.023
							c0.005-0.007,0.01-0.015,0.015-0.022c0.005-0.007,0.011-0.014,0.017-0.021c0.006-0.006,0.013-0.013,0.02-0.019
							c0.007-0.006,0.014-0.012,0.021-0.018c0.007-0.006,0.015-0.011,0.023-0.017c0.008-0.005,0.016-0.011,0.025-0.016
							c0.009-0.005,0.018-0.009,0.027-0.013s0.019-0.008,0.029-0.012s0.021-0.007,0.032-0.011c0.011-0.003,0.023-0.006,0.035-0.009
							c0.012-0.002,0.024-0.005,0.036-0.006c0.013-0.002,0.025-0.004,0.039-0.005c0.013-0.001,0.027-0.002,0.042-0.003
							c0.014-0.001,0.029-0.001,0.044-0.001c0.023,0,0.044,0,0.065,0.002s0.04,0.003,0.059,0.006
							c0.019,0.003,0.037,0.006,0.054,0.01c0.017,0.004,0.033,0.009,0.048,0.015c0.015,0.005,0.03,0.011,0.043,0.018
							c0.014,0.007,0.026,0.014,0.038,0.021c0.012,0.008,0.023,0.016,0.034,0.024c0.011,0.009,0.021,0.018,0.03,0.027
							c0.009,0.01,0.017,0.02,0.025,0.031c0.008,0.011,0.015,0.022,0.022,0.033c0.007,0.011,0.013,0.023,0.018,0.035
							C107.246,175.836,107.25,175.848,107.254,175.861z M107.046,176.538l-0.004-0.557c0-0.008,0-0.017-0.001-0.025
							s-0.001-0.016-0.003-0.024c-0.001-0.008-0.002-0.016-0.004-0.023c-0.001-0.007-0.003-0.015-0.005-0.022
							c-0.002-0.007-0.004-0.014-0.007-0.021c-0.003-0.007-0.006-0.013-0.009-0.019c-0.003-0.006-0.007-0.012-0.011-0.017
							c-0.004-0.006-0.008-0.011-0.013-0.016c-0.005-0.005-0.01-0.01-0.015-0.014c-0.005-0.004-0.011-0.008-0.017-0.012
							c-0.006-0.004-0.012-0.007-0.019-0.011c-0.007-0.003-0.014-0.007-0.022-0.01c-0.008-0.003-0.016-0.005-0.024-0.007
							s-0.017-0.004-0.027-0.005c-0.009-0.001-0.019-0.002-0.029-0.003c-0.01-0.001-0.021-0.001-0.032-0.001
							c-0.011,0-0.022,0.001-0.032,0.001s-0.02,0.002-0.029,0.003s-0.018,0.003-0.026,0.005s-0.016,0.005-0.023,0.007
							c-0.008,0.003-0.015,0.007-0.022,0.01s-0.013,0.007-0.02,0.011s-0.012,0.008-0.017,0.013c-0.005,0.004-0.01,0.009-0.014,0.014
							c-0.005,0.005-0.009,0.01-0.013,0.016c-0.004,0.006-0.008,0.011-0.011,0.018c-0.003,0.006-0.006,0.013-0.009,0.019
							s-0.005,0.014-0.006,0.021c-0.002,0.007-0.004,0.014-0.006,0.022c-0.002,0.008-0.003,0.015-0.004,0.023
							c-0.001,0.008-0.002,0.016-0.002,0.024c-0.001,0.008-0.001,0.016-0.001,0.025l0.004,0.557c0,0.009,0,0.017,0.001,0.025
							c0.001,0.008,0.002,0.016,0.003,0.024c0.001,0.008,0.003,0.015,0.005,0.023s0.004,0.014,0.006,0.021
							c0.002,0.007,0.004,0.014,0.007,0.021c0.003,0.007,0.006,0.013,0.009,0.019c0.003,0.006,0.007,0.012,0.011,0.017
							c0.004,0.006,0.009,0.011,0.013,0.016c0.004,0.005,0.009,0.01,0.014,0.014c0.005,0.005,0.011,0.009,0.017,0.013
							c0.006,0.004,0.013,0.008,0.02,0.011c0.007,0.003,0.014,0.006,0.022,0.009c0.007,0.003,0.015,0.005,0.023,0.007
							c0.008,0.002,0.017,0.004,0.026,0.005s0.019,0.002,0.029,0.003s0.021,0.001,0.032,0.001c0.011,0,0.022-0.001,0.032-0.001
							c0.01-0.001,0.02-0.002,0.029-0.003s0.018-0.003,0.027-0.005c0.008-0.002,0.016-0.005,0.024-0.007
							c0.008-0.003,0.015-0.006,0.021-0.009c0.007-0.003,0.013-0.007,0.019-0.011c0.006-0.004,0.012-0.008,0.017-0.013
							c0.005-0.005,0.01-0.009,0.015-0.015c0.005-0.005,0.009-0.01,0.013-0.016c0.004-0.006,0.008-0.011,0.011-0.018
							s0.006-0.013,0.009-0.019s0.005-0.014,0.006-0.021c0.002-0.007,0.003-0.014,0.005-0.021c0.001-0.007,0.003-0.015,0.004-0.023
							c0.001-0.008,0.002-0.016,0.002-0.024C107.046,176.555,107.046,176.546,107.046,176.538"/>
					</g>
				</g>
			</g>
			<g>
				<polygon fill="#FFC200" points="117.544,187.078 118.406,188.432 120.316,188.633 118.941,189.706 119.28,191.198 
					117.57,190.503 115.872,191.224 116.182,189.727 114.797,188.676 116.703,188.445 				"/>
			</g>
			<g>
				<polygon fill="#FFC200" points="127.916,186.998 128.778,188.352 130.688,188.553 129.313,189.626 129.651,191.118 
					127.942,190.423 126.244,191.144 126.553,189.647 125.169,188.596 127.074,188.365 				"/>
			</g>
			<polygon opacity="0.1" fill="#A67C52" points="114.918,144.363 114.496,151.173 116.167,151.784 			"/>
			<g>
				<polygon fill="#FBB03B" points="96.801,187.237 97.663,188.591 99.573,188.792 98.198,189.865 98.536,191.357 96.827,190.662 
					95.129,191.383 95.439,189.886 94.054,188.835 95.96,188.604 				"/>
			</g>
			<g>
				<polygon fill="#FBB03B" points="107.173,187.157 108.035,188.511 109.944,188.713 108.57,189.785 108.908,191.277 
					107.199,190.582 105.501,191.303 105.81,189.807 104.425,188.755 106.331,188.524 				"/>
			</g>
		</g>
		<path fill="#EE5C5D" d="M37.602,182.056l-0.969,0.007c-3.699,0.028-6.721-2.947-6.749-6.646v0l7.667-0.059L37.602,182.056z"/>
		<polygon fill="#DB565D" points="39.501,179.764 37.602,182.056 37.551,175.359 39.467,175.344 		"/>
		<path fill="#EE5C5D" d="M147.446,181.213l0.969-0.007c3.699-0.028,6.675-3.05,6.646-6.749l0,0l-7.667,0.059L147.446,181.213z"/>
		<polygon fill="#DB565D" points="145.512,178.95 147.446,181.213 147.395,174.515 145.478,174.53 		"/>
	</g>
</g>
</svg>
