<?xml version="1.0" encoding="utf-8"?>
<!-- Generator: Adobe Illustrator 18.0.0, SVG Export Plug-In . SVG Version: 6.00 Build 0)  -->
<!DOCTYPE svg PUBLIC "-//W3C//DTD SVG 1.0//EN" "http://www.w3.org/TR/2001/REC-SVG-20010904/DTD/svg10.dtd">
<svg version="1.0" id="Layer_1" xmlns="http://www.w3.org/2000/svg" xmlns:xlink="http://www.w3.org/1999/xlink" x="0px" y="0px"
	 viewBox="0 0 53 53" enable-background="new 0 0 53 53" xml:space="preserve">
<g>
	<circle opacity="0.1" fill="#883E26" cx="24.5" cy="27.6" r="20"/>
	<g>
		<circle fill="#FE6665" cx="24.5" cy="24.8" r="20"/>
		<path fill="#FFFFFF" d="M33.5,20.1c-0.6,0.2-1.3,0.5-2.1,0.6c0.7-0.5,1.3-1.2,1.6-2.1c-0.7,0.5-1.5,0.7-2.3,0.9
			c-0.7-0.7-1.6-1.2-2.7-1.2c-2.1,0-3.6,1.7-3.6,3.6c0,0.2,0,0.6,0.1,0.9c-3.2,0-6-1.5-7.8-3.6c-0.2,0.5-0.5,1.1-0.5,1.8
			c0,1.3,0.6,2.4,1.7,3c-0.6,0-1.2-0.2-1.7-0.5l0,0c0,1.8,1.2,3.3,2.9,3.6c-0.2,0.1-0.6,0.2-1,0.2c-0.2,0-0.5,0-0.7-0.1
			c0.5,1.5,1.9,2.6,3.5,2.6c-1.2,1-2.9,1.6-4.6,1.6c-0.2,0-0.6,0-0.9,0c1.6,1,3.5,1.6,5.7,1.6c6.8,0,10.6-5.6,10.6-10.6
			c0-0.1,0-0.4,0-0.5C32.4,21.6,33,20.8,33.5,20.1z"/>
	</g>
</g>
</svg>
