<?xml version="1.0" encoding="utf-8"?>
<!-- Generator: Adobe Illustrator 16.0.0, SVG Export Plug-In . SVG Version: 6.00 Build 0)  -->
<!DOCTYPE svg PUBLIC "-//W3C//DTD SVG 1.1//EN" "http://www.w3.org/Graphics/SVG/1.1/DTD/svg11.dtd">
<svg version="1.1" id="Layer_1" xmlns="http://www.w3.org/2000/svg" xmlns:xlink="http://www.w3.org/1999/xlink" x="0px" y="0px"
	 width="374px" height="390px" viewBox="123.5 217.5 374 390" enable-background="new 123.5 217.5 374 390" xml:space="preserve">
<g id="Layer_1_1_" display="none">
	
		<image display="inline" overflow="visible" enable-background="new    " width="1400" height="12455" xlink:href="E98C40C6482BEE28.jpeg"  transform="matrix(6.9231 0 0 6.9231 -2427.75 -45705.2891)">
	</image>
</g>
<g id="Layer_2">
	<g>
		<polygon fill="#FDFFFF" points="480.184,513.387 150.377,585.497 150.377,593.467 480.184,520.978 		"/>
		<g>
			<g>
				<path fill="#FDFFFF" d="M149.997,379.794l-4.934-3.795l4.934-5.693v-61.104l56.55-12.524l15.181,10.627v40.229l-9.108,13.283
					l9.108,9.488v40.61l-15.181,17.078l-56.55,12.523V379.794z M173.907,357.782l24.29-5.313v-29.223l-24.29,5.313V357.782z
					 M173.907,411.295l24.29-5.313v-29.224l-24.29,5.313V411.295z"/>
				<path fill="#FDFFFF" d="M307.88,392.318l-15.182,17.078l-44.024,9.869l-15.181-10.248v-47.82l-5.313-3.416l4.934-5.693v-47.44
					l15.181-17.079l44.025-9.868l15.181,10.247v47.062l4.934,3.795l-4.934,5.693v47.82H307.88z M283.97,350.191l-4.934-3.795
					l4.934-5.693v-36.814l-26.946,6.073v36.813l4.934,3.795l-4.934,5.693v36.814l26.946-6.073V350.191z"/>
				<path fill="#FDFFFF" d="M393.652,373.342l-15.181,17.079l-44.025,9.868l-15.181-10.248v-47.82l-5.313-3.416l4.934-5.693v-47.44
					l15.182-17.079l44.024-9.868l15.181,10.247v47.062l4.935,3.795l-4.935,5.692v47.82H393.652z M369.742,331.215l-4.935-3.795
					l4.935-5.693v-36.814l-26.946,6.072v36.814l4.934,3.795l-4.934,5.692v36.814l26.946-6.073V331.215z"/>
				<path fill="#FDFFFF" d="M480.563,236.334l-31.881,72.869l31.501,58.826l-26.188,5.693l-25.428-47.82v53.513l-23.53,4.934
					v-61.104l-5.313-3.416l4.934-5.693v-61.104l23.91-5.313v53.513l25.428-59.206L480.563,236.334z"/>
			</g>
		</g>
		<g>
			<g>
				<path fill="#FDFFFF" d="M209.203,511.869l0.759-63.001c0-1.897,0.759-2.657,2.657-3.036l20.874-4.555
					c1.518-0.38,2.656,0.379,2.656,2.277l-0.759,104.748c0,1.898-0.759,2.657-2.657,3.037l-29.603,6.451
					c-1.897,0.38-3.036-0.379-3.416-1.896l-21.253-59.207l-0.38,63.381c0,1.898-0.759,2.657-2.656,3.037l-20.874,4.554
					c-1.898,0.379-2.657-0.38-2.657-2.277l0.759-104.749c0-1.896,0.759-2.656,2.657-3.036l29.982-6.452
					c1.897-0.379,3.036,0.38,3.416,1.898L209.203,511.869z"/>
				<path fill="#FDFFFF" d="M316.608,508.833c0,6.831-2.656,13.283-7.211,18.976c-4.554,5.693-10.626,9.488-17.078,11.006
					l-22.393,4.555c-6.831,1.519-12.524,0.38-17.078-3.795c-4.555-3.795-6.832-9.108-6.832-15.94l0.38-60.344
					c0-6.832,2.657-13.284,7.211-18.977c4.934-5.692,10.627-9.487,17.079-11.006l22.392-4.555c6.831-1.519,12.524-0.38,17.079,3.796
					c4.554,3.795,6.831,9.107,6.831,15.939L316.608,508.833z M271.445,514.525c0,4.555,2.277,6.072,6.452,5.313l6.072-1.139
					c4.175-0.759,6.452-3.415,6.452-7.97l0.379-52.754c0-4.555-2.276-6.072-6.452-5.313l-6.072,1.139
					c-4.175,0.759-6.451,3.415-6.451,7.97L271.445,514.525z"/>
				<path fill="#FDFFFF" d="M385.303,437.861L373.538,518.7c-0.38,1.897-1.519,3.036-3.037,3.416l-28.464,6.072
					c-1.898,0.38-2.656-0.38-3.036-1.897l-12.904-101.713c0-0.379,0-0.379,0-0.759c0-1.139,0.759-1.897,2.277-2.277l20.115-4.175
					c1.896-0.379,2.656,0.379,3.035,1.898l8.729,81.977l11.386-86.152c0.38-1.897,1.139-3.036,3.036-3.416l22.013-4.554
					c1.897-0.38,2.656,0.38,3.036,1.897l9.867,81.598l10.247-85.772c0.38-1.897,1.139-3.036,3.037-3.416l20.115-4.175
					c1.518-0.379,2.276,0,2.276,1.519c0,0.38,0,0.38,0,0.759l-14.802,107.785c-0.379,1.897-1.518,3.036-3.036,3.416l-28.464,6.072
					c-1.897,0.38-2.657-0.379-3.036-1.898L385.303,437.861z"/>
				<path fill="#FDFFFF" d="M455.895,481.887l20.874-4.555c1.897-0.379,2.656,0.38,2.656,2.277v16.699
					c0,1.897-0.759,2.656-2.656,3.035l-20.874,4.555c-1.898,0.38-2.656-0.379-2.656-2.277v-16.699
					C453.238,483.404,453.996,482.266,455.895,481.887z M456.653,393.837l20.874-4.555c1.897-0.379,2.656,0.379,2.656,2.277
					l-1.139,74.387c0,1.897-0.759,2.657-2.656,3.036l-20.874,4.555c-1.897,0.379-2.656-0.379-2.656-2.277l0.759-74.387
					C453.996,395.355,454.756,394.216,456.653,393.837z"/>
			</g>
		</g>
	</g>
</g>
</svg>
