<?xml version="1.0" encoding="utf-8"?>
<!-- Generator: Adobe Illustrator 17.1.0, SVG Export Plug-In . SVG Version: 6.00 Build 0)  -->
<!DOCTYPE svg PUBLIC "-//W3C//DTD SVG 1.1//EN" "http://www.w3.org/Graphics/SVG/1.1/DTD/svg11.dtd">
<svg version="1.1" id="Layer_1" xmlns="http://www.w3.org/2000/svg" xmlns:xlink="http://www.w3.org/1999/xlink" x="0px" y="0px"
	 viewBox="0 0 130.2 26.8" enable-background="new 0 0 130.2 26.8" xml:space="preserve">
<g>
	<g>
		<polygon fill="#E2E1D4" points="0,4.6 9.4,4.6 9.4,7.5 3.4,7.5 3.4,11.3 9.3,11.3 9.3,14.3 3.4,14.3 3.4,18.4 9.4,18.4 9.4,21.3 
			0,21.3 		"/>
		<g>
			<path fill="#E2E1D4" d="M11.5,8.9h2.8c0,0.5,0,1.1,0,1.7c0.5-1,1.7-2.1,3.9-2c4.1,0,4.8,3.1,4.8,5.3v7.5h-3v-6.7
				c0-1.9-0.6-3.3-2.7-3.3c-2.1,0-2.8,1.4-2.8,3.2v6.9h-3V8.9z"/>
			<path fill="#E2E1D4" d="M38.1,19.9c0,2-0.4,3.3-1.2,4.4c-1.1,1.4-3.1,2.6-5.7,2.6c-3.9,0-5.7-2.3-6.2-4.2h3.4
				c0.3,0.6,0.7,1,1.3,1.3c0.6,0.3,1.3,0.4,1.6,0.4c1.8,0,3.7-1.2,3.7-3.7v-1c-0.6,1.1-1.9,2.2-4,2.2c-3.6,0-6.3-2.7-6.3-6.5
				c0-4.1,2.9-6.6,6.3-6.6c1.8,0,3.3,0.8,4,2V8.9h3V19.9z M27.7,15.1c0,2.2,1.6,3.8,3.7,3.8c1.1,0,2-0.4,2.6-1.1
				c0.7-0.7,1-1.6,1.1-2.6c0-1-0.3-1.9-0.9-2.7c-0.6-0.7-1.5-1.2-2.8-1.2C29.4,11.3,27.7,12.9,27.7,15.1L27.7,15.1z"/>
			<rect x="40.5" y="8.9" fill="#E2E1D4" width="3" height="12.4"/>
			<path fill="#E2E1D4" d="M45.9,8.9h2.8c0,0.5,0,1.1,0,1.7c0.5-1,1.7-2.1,3.9-2c4.1,0,4.8,3.1,4.8,5.3v7.5h-3v-6.7
				c0-1.9-0.6-3.3-2.7-3.3c-2.1,0-2.8,1.4-2.8,3.2v6.9h-3V8.9z"/>
			<path fill="#E2E1D4" d="M61.6,16.1c0.1,2,1.9,3.1,3.6,3.1c1.4,0,2.4-0.7,3-1.7h3.1c-0.6,1.4-1.5,2.4-2.5,3.1
				c-1,0.7-2.3,1.1-3.6,1.1c-3.8,0-6.6-3.1-6.6-6.6c0-3.5,2.8-6.6,6.5-6.6c1.9,0,3.5,0.7,4.6,1.9c1.5,1.6,2.1,3.5,1.8,5.7H61.6z
				 M68.7,13.8c-0.1-1.2-1.4-2.8-3.5-2.8c-2.2,0-3.4,1.6-3.5,2.8H68.7z"/>
			<polygon fill="#E2E1D4" points="82.8,15.3 77.6,4.6 81.3,4.6 84.4,12.2 87.6,4.6 91.3,4.6 86.1,15.3 86.1,21.3 82.8,21.3 			"/>
			<path fill="#E2E1D4" d="M103.1,21.3h-3v-1.8c-0.8,1.4-2.4,2.2-4.2,2.2c-4,0-6.3-3.1-6.3-6.6c0-3.9,2.8-6.6,6.3-6.6
				c2.3,0,3.6,1.2,4.2,2.2V8.9h3V21.3z M92.6,15.2c0,1.5,1.1,3.8,3.8,3.8c1.7,0,2.7-0.9,3.3-2c0.3-0.5,0.4-1.1,0.5-1.7
				c0-0.6-0.1-1.2-0.3-1.7c-0.5-1.2-1.7-2.2-3.5-2.2C93.9,11.3,92.6,13.2,92.6,15.2L92.6,15.2z"/>
			<path fill="#E2E1D4" d="M105.5,8.9h2.8v1.6c0.5-1.1,1.6-2,3.4-2v3h-0.1c-2.1,0-3.1,1-3.1,3.1v6.7h-3V8.9z"/>
			<path fill="#E2E1D4" d="M125.3,21.3h-2.8v-1.8c-0.5,0.9-1.7,2.2-4.3,2.2c-3.8,0-6.3-3-6.3-6.6c0-4,2.9-6.6,6.2-6.6
				c2.4,0,3.7,1.3,4.2,2V8.7V4.6h3V21.3z M114.8,15.1c0,2.1,1.5,3.8,3.8,3.8c1.1,0,2.1-0.4,2.8-1.1c0.7-0.7,1.1-1.7,1.1-2.8
				c0-1.1-0.4-2-1.1-2.7c-0.7-0.7-1.6-1.1-2.7-1.1C116.2,11.3,114.8,13.1,114.8,15.1L114.8,15.1z"/>
			<path fill="#E2E1D4" d="M37.5,4.9h2.7l2.3,2.3V2.9c0-0.9-0.7-1.7-1.7-1.7c-0.4,0-0.8,0.1-1.1,0.4C39.4,0.6,38.5,0,37.5,0
				C36.1,0,35,1.1,35,2.4C35,3.8,36.1,4.9,37.5,4.9"/>
			<path fill="#E2E1D4" d="M127,4.9h-0.4V4.6h1.3v0.4h-0.4v1.6H127V4.9z M128.1,4.6h0.6l0.5,1.3l0.5-1.3h0.6v1.9h-0.4V5.1l-0.5,1.4
				H129l-0.5-1.4v1.4h-0.4V4.6z"/>
		</g>
	</g>
</g>
</svg>
