<svg xmlns="http://www.w3.org/2000/svg" width="89.16" viewBox="0 0 89.164 37.521" enable-background="new 0 0 89.164 37.521"><g fill="#e1e0d1"><path d="m28 32.973h1.01v4.464h-1.01z"/><path d="m37.913 33.855h1.367v3.582h1.01v-3.582h1.359v-.882h-3.736z"/><path d="m45.07 35.599h1.69v-.883h-1.69v-.861h1.97v-.882h-2.98v4.464h3.09v-.883h-2.08z"/><path d="m68.43 33.855h1.369v3.582h1.012v-3.582h1.359v-.882h-3.74z"/><path d="m74.77 32.973h1.01v4.464h-1.01z"/><path d="m85.87 35.599h1.69v-.883h-1.69v-.861h1.96v-.882h-2.97v4.464h3.09v-.883h-2.08z"/><path d="m64.08 33.853c.492 0 .947.271 1.188.699l.033.062h1.014l-.054-.158c-.321-.931-1.198-1.556-2.181-1.556-1.273 0-2.309 1.035-2.309 2.312 0 1.271 1.034 2.307 2.309 2.307.982 0 1.859-.624 2.181-1.554l.054-.156h-1.016l-.031.062c-.24.431-.694.694-1.188.694-.748 0-1.357-.605-1.357-1.354s.609-1.358 1.357-1.358"/><path d="m34.907 35.719l-1.907-2.745h-1.014v4.463h1.014v-2.749l1.892 2.749.015-.003v.003h1.013v-4.463h-1.013z"/><path d="m53.23 34.615c0-.902-.728-1.633-1.625-1.641v-.004h-1.707v4.464h1.014v-1.184h.275l.836 1.185h1.222l-.948-1.349c.549-.264.933-.821.933-1.471m-1.634.625h-.684v-1.255h.684v.005c.344.004.621.278.621.625 0 .344-.278.62-.621.625"/><path d="m57.11 32.973l-1.771 4.464h1.1l.406-1.021h1.469l.404 1.021h1.1l-1.771-4.464h-.937m.116 2.483l.354-.896.354.896h-.708"/><path d="m80.31 35.848l-1.14-2.875h-1.1l1.77 4.464h.94l1.77-4.464h-1.1z"/><path d="m22.733 22.19c-.151.286-.341.552-.59.799-.551.571-1.254.857-2.072.857s-1.503-.286-2.074-.857c-.552-.55-.836-1.254-.836-2.055 0-.817.284-1.502.836-2.092.571-.571 1.256-.855 2.074-.855s1.521.284 2.072.855c.249.248.439.531.61.837h5.402c-.247-1.73-1.026-3.215-2.339-4.489-1.371-1.389-3-2.17-4.874-2.354-.269-.021-.544-.035-.833-.042-.003 0-.004 0-.007 0-.014 0-.028 0-.043-.002-2.24.004-4.14.801-5.734 2.396-1.599 1.578-2.378 3.5-2.378 5.744 0 2.246.78 4.167 2.378 5.746.471.469.968.869 1.492 1.197 1.173.703 2.54 1.125 3.998 1.175.069.002.138.005.208.005.021 0 .04 0 .062 0 2.238-.003 4.156-.783 5.732-2.377 1.313-1.274 2.073-2.777 2.339-4.49l-5.423.002"/><path d="m81.8 28.406c.015 0 .032-.006.048-.006.004 0 .004 0 .004 0 1.961-.062 3.676-.785 5.078-2.207 1.506-1.47 2.229-3.255 2.229-5.343 0-2.089-.726-3.854-2.229-5.344-1.414-1.431-3.131-2.157-5.13-2.229h-3.794-1.464-4.058l-1.887 6.146-1.875-6.104.014-.037h-.023-5.499-.024l.013.037-1.871 6.104-1.888-6.144h-5.521l.829 2.704c-.22-.272-.459-.543-.724-.8-1.559-1.597-3.479-2.394-5.736-2.396h-.002-.005-.003c-2.243 0-4.164.8-5.743 2.396-.679.67-1.211 1.402-1.603 2.195-.185-.984-.653-1.847-1.411-2.591-.902-.921-1.98-1.418-3.236-1.505h-8.491c1.947 1.968 3.15 4.672 3.15 7.654 0 2.893-1.128 5.518-2.965 7.465h5.176v-4.086l2.333 4.086h5.571l-2.724-4.826c.196-.146.566-.427 1.079-.865.301-.252.551-.558.765-.9.185 1.869.969 3.495 2.354 4.864 1.579 1.597 3.5 2.377 5.743 2.377 2.266 0 4.187-.78 5.746-2.377 1.494-1.457 2.285-3.205 2.4-5.229l2.137 6.959h.008 5.516.008l1.869-6.092 1.87 6.092h.007 5.516.006l3.185-10.366v10.366l5.252.002m-.408-10.421c.054-.02.144-.02.213-.02.76 0 1.449.283 1.998.85.565.565.851 1.239.851 2.035 0 .795-.284 1.485-.851 2.034-.549.567-1.238.849-1.998.849h-.213v-5.748m-45.3.979c0 .032 0 .032 0 .032 0 .039 0 .039 0 .071v.07c-.036.282-.16.511-.39.741-.213.213-.477.354-.795.354h-1.74c-.003-.001-.008-.001-.008-.001h-.003v-2.561h1.751c.318.017.582.141.795.37.267.249.371.513.39.867v.057m14.261 4.02c-.571.593-1.236.876-2.075.876-.798 0-1.502-.283-2.054-.876-.588-.552-.873-1.255-.873-2.055 0-.817.285-1.502.873-2.092.552-.571 1.256-.855 2.054-.855.839 0 1.504.284 2.075.855.57.59.875 1.272.875 2.092 0 .8-.304 1.505-.875 2.055"/><circle cx="2.858" cy="17.911" r="1.215"/><circle cx="5.801" cy="12.615" r=".558"/><circle cx="3.629" cy="12.886" r=".762"/><circle cx="4.777" cy="9.291" r="1.516"/><path d="m7.394 8.765c.446.291 1.046.169 1.338-.275.293-.444.169-1.048-.277-1.342-.446-.292-1.046-.169-1.339.278-.293.445-.168 1.045.278 1.339"/><circle cx="9.42" cy="4.58" r=".717"/><circle cx="12.946" cy="5.763" r="1.124"/><circle cx="12.899" cy=".986" r=".966"/><path d="m16.459 3.275c.655.434 1.534.248 1.963-.402.348-.53.294-1.207-.085-1.674.164-.017.321-.101.418-.247.169-.26.098-.604-.16-.771-.258-.17-.603-.099-.772.159-.087.133-.111.289-.077.432-.608-.232-1.319-.021-1.693.545-.43.653-.248 1.529.406 1.958"/><circle cx="20.75" cy="4.666" r="1.123"/><circle cx="22.806" cy="1.123" r="1.123"/><circle cx="25.04" cy="3.153" r=".717"/><circle cx="28.954" cy="9.523" r=".967"/><circle cx="3.871" cy="28.661" r=".967"/><circle cx=".716" cy="26.11" r=".716"/><path d="m9.187 20.917c0-6.02 4.877-10.896 10.892-10.896 2.7 0 5.169.984 7.07 2.612.484-.232 1.132-1.01 1.013-1.019.083-.479-.116-.984-.548-1.271-.14-.09-.291-.15-.444-.179h.006c0 0-.321-.025-.302-.349.043-.033.085-.072.117-.124.169-.259.099-.604-.16-.771-.257-.17-.604-.101-.772.16-.169.257-.097.603.16.771.054.032.11.058.169.072.004.012.01.021.022.035.112.106.063.222.027.272-.153.065-.297.157-.418.28-.072-.12-.172-.226-.296-.308-.246-.161-.537-.195-.801-.12.14-.567-.081-1.183-.598-1.521-.169-.108-.354-.182-.544-.214.076-.061.145-.134.201-.221.093-.145.141-.305.151-.463 0 .002.004.004.004.004s.179-.709.757-.434c.518.343 1.216.196 1.557-.32.34-.521.195-1.219-.323-1.559-.519-.343-1.216-.193-1.556.321-.126.19-.185.405-.185.618v.004c0 0 0 .005 0 .012 0 .001 0 .001 0 .001 0 .094-.021.611-.57.566-.002 0-.003 0-.003 0-.036-.029-.07-.062-.109-.088-.424-.277-.983-.182-1.29.211-.085-.193-.225-.367-.415-.491-.521-.343-1.215-.198-1.556.32-.057.089-.099.18-.129.271-.018-.012-.034-.021-.052-.037-.281-.184-.615-.227-.915-.142.058-.062.112-.13.161-.202.43-.654.249-1.533-.407-1.964-.655-.431-1.533-.247-1.963.408-.226.344-.281.752-.188 1.122-.559-.264-1.238-.084-1.585.446-.218.331-.257.729-.143 1.078.01.027.019.06.031.083.012.033.029.064.045.1.234.438.605.336.86.489.001.002.004.005.006.007.242.131.408.384.408.678 0 .425-.344.77-.771.77-.425 0-.77-.345-.77-.77 0-.04.007-.078.012-.115 0-.005 0-.009 0-.013.046-.462-.115-.655-.186-.718-.011-.01-.021-.021-.033-.023-.158-.104-.335-.154-.51-.158v-.002c-.004 0-.006 0-.009 0s-.005 0-.005 0c-.04-.004-.083.001-.13.013-.084.013-.164.031-.243.062-.111.027-.234.053-.367.048-.192-.007-.364-.187-.618-.284-.002-.001-.002 0-.004 0-.49-.208-1.073-.045-1.376.415-.15.229-.203.491-.174.74 0 .004-.001.005-.001.01.002.014.006.024.008.039.027.173.094.337.199.482.018.062-.019.084-.088.081-.006.002-.017.004-.024.006-.04.003-.079.014-.118.021-.034.007-.069.017-.107.023-.077.019-.125.052-.161.077-.02.012-.038.021-.057.035-.045.018-.125.014-.159-.155-.013-.033-.025-.067-.038-.104-.007-.02-.015-.036-.021-.057-.012-.033-.025-.062-.039-.084 0-.002-.001 0-.001-.002-.086-.166-.213-.312-.379-.422-.52-.342-1.216-.195-1.557.321-.341.52-.198 1.217.321 1.558.241.157.521.21.784.17l.031.021c.142-.075.304-.124.476-.124.561 0 1.017.456 1.017 1.02 0 .562-.456 1.018-1.017 1.018-.562 0-1.017-.455-1.017-1.018 0-.005.002-.012.002-.02-.07-.289-.243-.557-.512-.729-.56-.367-1.313-.212-1.681.349-.369.562-.213 1.312.348 1.685.167.106.352.171.539.19-.39.002-.771.189-1 .538-.04-.032-.082-.062-.124-.093-.7-.46-1.64-.265-2.1.436-.458.695-.264 1.639.435 2.099.231.15.491.229.75.246-.043.048-.084.099-.12.149-.37.563-.215 1.313.346 1.683.155.104.323.158.494.186.394.271.439.764.226 1.111-.053.068-.455.562-1.062.15-.093-.113-.205-.217-.334-.302-.699-.459-1.638-.265-2.098.438-.349.526-.321 1.196.02 1.689-.232-.064-.479-.036-.692.071.035-.398-.144-.806-.501-1.039-.519-.34-1.216-.196-1.556.322-.341.52-.198 1.216.322 1.556.376.248.846.239 1.206.02 0 .314.151.625.435.812.446.293 1.045.17 1.338-.275.028-.044.05-.087.07-.132h.001c.045-.098.071-.201.081-.306.142-.336.397-.378.508-.378.013 0 .027.002.042.002.008.001.013.002.013.002l-.004-.001c.138-.003.276-.023.41-.062 0 0 0 .001 0 .002.002-.002.006-.003.008-.006.11-.031.216-.077.316-.139.311-.05.402.234.322.477 0 .001-.001.001-.001.001-.032.05-.055.1-.079.149-.004.004-.006.01-.009.015-.037.044-.047.084-.042.122-.144.466.024.986.451 1.271.212.14.451.192.684.181.082-.025.168-.046.26-.046.058-.018.114-.038.168-.064-.009.025-.015.056-.022.078.363.069.638.39.638.771 0 .434-.352.783-.784.783-.345 0-.634-.227-.739-.532-.025-.045-.049-.1-.069-.169-.007-.11-.031-.215-.069-.317-.001-.005-.001-.009-.002-.014 0-.002-.001-.002-.003-.003-.082-.21-.225-.396-.427-.53-.519-.34-1.215-.195-1.555.321-.341.521-.198 1.217.321 1.557.441.29 1.01.229 1.379-.117.007-.006.014-.013.021-.019.006-.004.011-.009.016-.019.003-.002.007-.004.009-.008.265-.28.344-.092.369.077-.16.575.061 1.214.587 1.562.021.014.045.024.068.04-.128.079-.241.188-.33.324-.34.521-.196 1.214.322 1.558.515.339 1.203.197 1.547-.311-.001.402.195.802.559 1.038.571.375 1.338.217 1.712-.354.137-.285.09-.509.09-.509l.007.004c-.003-.025-.006-.054-.006-.075 0-.264.211-.478.474-.478.262 0 .475.213.475.478 0 .155-.076.29-.192.379v.001h-.003c-.052.039-.113.067-.178.083-.042.022-.085.05-.126.082-.017.016-.033.031-.05.048-.023.021-.048.041-.066.066-.043.049-.083.1-.119.153-.163.246-.236.528-.228.807-.139.76-.672.409-.672.409-.33-.221-.774-.125-.992.203-.217.331-.124.774.206.993.331.219.775.127.992-.204.021-.029.036-.062.051-.098v.003c0 0 .001-.004.004-.012.008-.021.015-.038.022-.061.069-.166.285-.559.733-.361.081.092.174.176.281.245.122.08.253.141.386.178-.023.021-.045.052-.064.08-.17.258-.098.604.159.771.257.17.604.097.773-.16.148-.228.111-.521-.077-.704.299-.092.566-.282.75-.562.066-.101.115-.207.154-.314.113.257.298.479.547.646.7.459 1.639.267 2.098-.438.061-.091.108-.187.146-.284.04-.104.064-.201.082-.297-4.27-1.453-7.34-5.506-7.34-10.276"/></g></svg>