<?xml version="1.0" encoding="utf-8"?>
<!-- Generator: Adobe Illustrator 17.1.0, SVG Export Plug-In . SVG Version: 6.00 Build 0)  -->
<!DOCTYPE svg PUBLIC "-//W3C//DTD SVG 1.1//EN" "http://www.w3.org/Graphics/SVG/1.1/DTD/svg11.dtd">
<svg version="1.1" id="Layer_2" xmlns="http://www.w3.org/2000/svg" xmlns:xlink="http://www.w3.org/1999/xlink" x="0px" y="0px"
	 viewBox="0 0 131.3 146" enable-background="new 0 0 131.3 146" xml:space="preserve">
<g>
	<polygon fill="#534741" points="131.3,114.5 1.7,143 1.7,146 131.3,117.5 	"/>
	<g>
		<path fill="#534741" d="M13.1,60.2c0-0.1,0-0.2,0-0.3c0-0.1,0-0.2-0.1-0.4c-0.1-0.5-0.3-1-0.7-1.3c-0.4-0.3-1-0.4-1.7-0.3
			l-3.9,0.9v21.6c0,0-0.3,0-0.8,0.1c-0.5,0.1-1.1,0.2-1.7,0.4C4,80.9,3.8,81,3.6,81c-0.2,0-0.4,0.1-0.5,0.1V59.5L0,60.2v-3.4
			l3.1-0.7V26l7.6-1.7c1.7-0.4,3.1-0.1,4.2,0.8c1.2,0.9,1.7,2.2,1.7,3.9v21.8c0,0.7-0.1,1.5-0.4,2.2c-0.2,0.7-0.6,1.4-1,2
			c0.4,0.4,0.8,0.9,1,1.5c0.2,0.6,0.4,1.5,0.4,2.7v12.5c0,0.7,0.2,1.2,0.6,1.5c0.4,0.3,0.8,0.5,1.2,0.5c0.4,0.1,0.7,0.1,1,0
			c0.3-0.1,0.6-0.1,0.7-0.1c0,0,0.1,0,0.1,0v3.7c0,0-0.1,0-0.2,0c-0.1,0-0.1,0-0.2,0.1c-1.7,0.2-3.3,0.2-4.7-0.2
			c-1.4-0.4-2.2-1.9-2.2-4.6V60.2z M12.5,28.2c-0.5-0.4-1-0.5-1.7-0.4l-4.2,0.9v26.6l3.9-0.9c0.8-0.2,1.4-0.5,1.9-1
			c0.5-0.5,0.8-1.1,0.8-1.8V29.9C13.2,29.2,12.9,28.6,12.5,28.2z"/>
		<path fill="#534741" d="M24.9,54.8l-3.3,0.7V52l3.2-0.7V21.2l12.6-2.8v3.5l-8.9,2v26.6l9.2-2v3.4l-9.2,2v18.3l9.2-2v3.4l-12.8,2.8
			V54.8z"/>
		<path fill="#534741" d="M46.2,71.8c-1.7,0.3-3.3,0.1-4.6-0.8c-1.3-0.9-2-2.2-2-4V24c0-2,0.7-3.7,2.1-5c1.4-1.3,2.9-2.1,4.5-2.6
			c0,0,0.1,0,0.1,0c0,0,0.1,0,0.1,0c1.9-0.4,3.5-0.2,4.8,0.5c1.3,0.8,2,2.1,2,4v6.5l-3.5,0.8v-6.5c0,0,0-0.1,0-0.2
			c0-0.1,0-0.1-0.1-0.2c-0.1-0.5-0.4-1-1-1.3c-0.6-0.3-1.3-0.4-2.1-0.3c-0.9,0.2-1.7,0.6-2.3,1.2c-0.6,0.6-0.9,1.3-0.9,2.1v43
			c0,0.9,0.3,1.5,0.9,1.9c0.6,0.4,1.3,0.5,2.1,0.3c1-0.2,1.8-0.7,2.5-1.4c0.7-0.7,1-1.5,1-2.4V49.3L46.4,50v-3.4
			c2.2-0.5,4.4-1,6.9-1.5V64c0,1.9-0.7,3.5-2.1,5C49.7,70.4,48.1,71.3,46.2,71.8L46.2,71.8z"/>
		<path fill="#534741" d="M55.8,14.4l3.7-0.8v55.2l-3.7,0.8V14.4z"/>
		<path fill="#534741" d="M71.7,17c0-0.7-0.3-1.3-0.9-1.7c-0.6-0.4-1.4-0.5-2.3-0.3c-0.1,0-0.2,0.1-0.3,0.1c-0.1,0-0.2,0.1-0.3,0.1
			c-0.7,0.2-1.3,0.6-1.9,1.2c-0.6,0.6-0.9,1.2-0.9,2v21.8c0,1.1,0.3,1.7,0.9,2c0.6,0.3,1.2,0.4,2,0.4c0.1,0,0.2,0,0.2-0.1
			s0.1,0,0.2-0.1c0.1,0,0.3-0.1,0.4-0.1c0.1,0,0.2,0,0.3-0.1c1.4-0.2,2.7,0,3.8,0.5c1.1,0.6,1.7,1.8,1.7,3.8v12.6
			c0,1.7-0.7,3.3-2,4.7c-1.3,1.4-2.9,2.4-4.8,2.9c-2,0.4-3.6,0.2-4.8-0.8c-1.2-1-1.8-2.2-1.8-3.6c0,0,0-0.1,0-0.1c0,0,0-0.1,0-0.1
			v-6.5l3.5-0.8v6.5c0,0.8,0.3,1.4,0.9,1.8c0.6,0.4,1.4,0.6,2.3,0.4c0.9-0.2,1.7-0.6,2.3-1.3c0.6-0.7,1-1.5,1-2.4V47.4
			c0-0.8-0.3-1.3-0.8-1.5c-0.5-0.2-1.1-0.3-1.7-0.2c0,0-0.1,0-0.1,0c0,0-0.1,0-0.1,0c-0.4,0.1-0.8,0.1-1.2,0.2c-0.4,0-0.9,0.1-1.3,0
			c-1.1-0.1-2.1-0.4-3-1.1c-0.9-0.7-1.3-2-1.3-3.9V19.2c0-1.6,0.5-3,1.5-4.2c1-1.2,2.1-2.1,3.3-2.6c0.3-0.2,0.6-0.3,0.9-0.4
			c0.3-0.1,0.6-0.2,0.9-0.3c0,0,0.1,0,0.1,0c0,0,0.1,0,0.1,0c1.9-0.4,3.5-0.1,4.7,0.7c1.3,0.8,1.9,2.1,1.9,3.9v6.3l-3.4,0.8V17z"/>
		<path fill="#534741" d="M85.4,63l-3.7,0.8V12.2l-5,1.1V9.7l13.5-3v3.5l-4.8,1.1V63z"/>
		<path fill="#534741" d="M94.8,39.3L91.5,40v-3.4l3.2-0.7V5.8L107.4,3v3.5l-8.9,2v26.6l9.2-2v3.4l-9.2,2v18.3l9.2-2v3.4l-12.8,2.8
			V39.3z"/>
		<path fill="#534741" d="M122.6,36c0-0.1,0-0.2,0-0.3c0-0.1,0-0.2-0.1-0.4c-0.1-0.5-0.3-1-0.7-1.3c-0.4-0.3-1-0.4-1.7-0.3l-3.9,0.9
			v21.6c0,0-0.3,0-0.8,0.1c-0.5,0.1-1.1,0.2-1.7,0.4c-0.2,0-0.4,0.1-0.5,0.1c-0.2,0-0.4,0.1-0.5,0.1V35.3l-3.1,0.7v-3.4l3.1-0.7V1.8
			l7.6-1.7c1.7-0.4,3.1-0.1,4.2,0.8c1.2,0.9,1.7,2.2,1.7,3.9v21.8c0,0.7-0.1,1.5-0.4,2.2c-0.2,0.7-0.6,1.4-1,2
			c0.4,0.4,0.8,0.9,1,1.5c0.2,0.6,0.4,1.5,0.4,2.7v12.5c0,0.7,0.2,1.2,0.6,1.5c0.4,0.3,0.8,0.5,1.2,0.5c0.4,0.1,0.7,0.1,1,0
			c0.3-0.1,0.6-0.1,0.7-0.1c0,0,0.1,0,0.1,0v3.7c0,0-0.1,0-0.2,0c-0.1,0-0.1,0-0.2,0.1c-1.7,0.2-3.3,0.2-4.7-0.2
			c-1.4-0.4-2.2-1.9-2.2-4.6V36z M121.9,4c-0.5-0.4-1-0.5-1.7-0.4L116,4.6v26.6l3.9-0.9c0.8-0.2,1.4-0.5,1.9-1
			c0.5-0.5,0.8-1.1,0.8-1.8V5.7C122.6,5,122.4,4.4,121.9,4z"/>
	</g>
	<g>
		<g>
			<path fill="#534741" d="M27.5,111.5L27.7,84c0-0.8,0.4-1.2,1.1-1.4l9.1-1.9c0.7-0.2,1.1,0.2,1.1,0.9l-0.4,45.7
				c0,0.8-0.4,1.2-1.1,1.4l-13,2.7c-0.8,0.2-1.2-0.1-1.5-0.8l-8.9-25.7l-0.2,27.7c0,0.8-0.4,1.2-1.1,1.4l-9.1,1.9
				c-0.8,0.2-1.1-0.1-1.1-0.9L3,89.2c0-0.8,0.4-1.2,1.1-1.4l13-2.8c0.8-0.2,1.2,0.1,1.5,0.8L27.5,111.5z"/>
			<path fill="#534741" d="M74.3,110.1c0,3-1.1,5.8-3.2,8.3c-2.1,2.6-4.6,4.1-7.5,4.8l-9.7,2.1c-2.9,0.6-5.4,0.1-7.5-1.6
				c-2-1.7-3.1-4-3-7l0.2-26.4c0-3,1.1-5.8,3.2-8.3c2.1-2.6,4.6-4.1,7.5-4.8l9.7-2.1c2.9-0.6,5.4-0.1,7.5,1.6c2,1.7,3.1,4,3,7
				L74.3,110.1z M54.7,112.6c0,1.9,0.9,2.7,2.8,2.3l2.7-0.6c1.9-0.4,2.8-1.6,2.8-3.5l0.2-23.1c0-1.9-0.9-2.7-2.8-2.3l-2.7,0.6
				c-1.9,0.4-2.8,1.6-2.8,3.5L54.7,112.6z"/>
			<path fill="#534741" d="M104.3,79.3l-5.1,35.2c-0.2,0.8-0.6,1.3-1.4,1.4l-12.4,2.6c-0.8,0.2-1.2-0.1-1.3-0.9l-5.7-44.4
				c0-0.1,0-0.2,0-0.3c0-0.5,0.3-0.9,0.9-1l8.8-1.9c0.8-0.2,1.2,0.1,1.3,0.9l3.8,35.7l5-37.6c0.1-0.8,0.6-1.3,1.3-1.4l9.6-2
				c0.8-0.2,1.2,0.1,1.3,0.9l4.4,35.6l4.4-37.4c0.1-0.8,0.6-1.3,1.3-1.4l8.8-1.9c0.6-0.1,0.9,0.1,0.9,0.6c0,0.1,0,0.2,0,0.4l-6.5,47
				c-0.2,0.8-0.6,1.3-1.4,1.4l-12.4,2.6c-0.8,0.2-1.2-0.1-1.3-0.9L104.3,79.3z"/>
		</g>
	</g>
</g>
</svg>
