<svg xmlns="http://www.w3.org/2000/svg" xmlns:xlink="http://www.w3.org/1999/xlink" viewBox="0 0 265.3 265.3" enable-background="new 0 0 265.3 265.3"><defs><circle id="1" cx="132.6" cy="132.6" r="132.6"/><clipPath id="0"><use xlink:href="#1"/></clipPath></defs><g clip-path="url(#0)"><g><g><path fill="#b6a899" d="m354.4 300.3c25.7-37.4 40.7-82.6 40.7-131.4 0-128.3-104-232.3-232.3-232.3-128.3 0-232.3 104-232.3 232.3 0 48.8 15 94.1 40.7 131.4h383.2"/><g><g><path fill="#382f2b" d="m164.5-64.2c-15.7 0-31 1.6-45.8 4.5v359.4h138.5v-344.7c-28.4-12.4-59.8-19.2-92.7-19.2"/><path fill="#b6a899" d="M164.5-64.2c-17,0-33.6,1.8-49.6,5.3v358.7h138.5V-46.6C226-58,196-64.2,164.5-64.2z"/><path fill="#382f2b" d="m211.8-59.4h-89.1l-.4 152.1v199.2h68.3l7.5 3.8h50.2v-344.4c-11.8-4.5-24-8.1-36.5-10.7"/></g><path fill="#e1e0d4" d="m222.6-56.9l-90.5 6.5.9 363.8h3.6l93.4-368.3c-2.5-.7-4.9-1.4-7.4-2"/><path fill="#b6a899" d="m228.5-55.3l-92.6 7.7.7 361 109.7-21.5v-341.3c-5.8-2.2-11.7-4.2-17.8-5.9"/><path fill="#382f2b" d="m155.1 167.1c0 1.3-1 2.3-2.3 2.3h-4.6c-1.3 0-2.3-1-2.3-2.3v-13.2c0-1.3 1-2.3 2.3-2.3h4.6c1.3 0 2.3 1 2.3 2.3v13.2"/><g><path fill="#382f2b" d="m229 2.7c0-2.4-.5-5-3-6.6l-1.8-1.3-2.7.8c-7.9 1.4-37.1 6.5-43.9 7.7-5.3.9-7.8 6.8-7.9 10.3v1.9l59.4-11v-1.8h-.1"/><path fill="#c3b5a8" d="m218.4-6.7c-3.4.6-40.3 7-43.7 7.6-7.6 1.3-7.5 8.2-7.5 12 .5-.1 58.2-10.7 58.8-10.8 0-3.6.1-10.1-7.6-8.8"/><path fill="#382f2b" d="m229 20.7c0-2.4-.5-5-3-6.6l-1.8-1.2-2.7.8c-7.9 1.5-37.1 7.2-43.9 8.5-5.3 1-7.8 6.9-7.9 10.4v1.9l59.4-12v-1.8h-.1"/><path fill="#c3b5a8" d="m218.4 11.2c-3.4.7-40.3 7.7-43.7 8.4-7.6 1.5-7.5 8.3-7.5 12.1.5-.1 58.2-11.7 58.8-11.8 0-3.6.1-10.2-7.6-8.7"/><path fill="#382f2b" d="m229 39.1c0-2.4-.5-5-3-6.5l-1.8-1.2-2.7.9c-7.9 1.7-37.1 7.8-43.9 9.3-5.3 1.1-7.8 7.1-7.9 10.6v1.9l59.3-13.1v-1.9"/><path fill="#c3b5a8" d="m218.4 29.4c-3.4.7-40.3 8.4-43.7 9.1-7.6 1.6-7.5 8.5-7.5 12.2.5-.1 58.2-12.8 58.8-12.9 0-3.5.1-10-7.6-8.4"/></g><g opacity=".7"><path fill="#382f2b" d="M-23.5,31v268.8H115V-59C58.4-46.9,9.5-14.1-23.5,31z"/><path fill="#b6a899" d="M-26.9,36.3v263.4h138.5V-58.2C54.5-44.9,5.4-10.5-26.9,36.3z"/><path fill="#382f2b" d="m104.6-56.4c-49.4 13.1-92.3 42.1-122.9 81.1l-1.5 267.2 1.9 3h124.4v-348.4l-1.9-2.9"/><path fill="#b6a899" d="m-19.8 26.7v265.3h124.4v-348.4c-50.2 13.3-93.7 43-124.4 83.1"/><path fill="#382f2b" d="m79.5 1.7c0-2.4-.6-5-3.3-7l-1.9-1.5-2.9.3c-8.6 0-40.2 0-47.6 0-5.7 0-8.4 5-8.6 8.2v1.8h64.3v-1.8"/><path fill="#c3b5a8" d="m68.8-8.4c-3.8 0-44.5 0-48.3 0-8.4 0-8.3 6.5-8.3 10 .6 0 64.4 0 65 0-.1-3.5 0-10-8.4-10"/><path fill="#382f2b" d="m79.5 19.4c0-2.4-.6-5-3.3-7l-1.9-1.5-2.9.3c-8.6 0-40.2 0-47.6 0-5.7 0-8.4 5-8.6 8.2v1.8h64.3v-1.8"/><path fill="#c3b5a8" d="m68.8 9.3c-3.8 0-44.5 0-48.3 0-8.4 0-8.3 6.5-8.3 10 .6 0 64.4 0 65 0-.1-3.5 0-10-8.4-10"/><path fill="#382f2b" d="m79.5 37.4c0-2.4-.6-5-3.3-7l-1.9-1.5-2.9.3c-8.6 0-40.2 0-47.6 0-5.7 0-8.4 5-8.6 8.3v1.8h64.3v-1.9"/><path fill="#c3b5a8" d="m68.8 27.4c-3.8 0-44.5 0-48.3 0-8.4 0-8.3 6.5-8.3 10 .6 0 64.4 0 65 0-.1-3.5 0-10-8.4-10"/></g><path fill="#382f2b" d="m395.6 145.4v45c.7-7.5 1.1-15 1.1-22.7 0-.5 0-1 0-1.4 0-.5 0-1.1 0-1.6-1.3-92.4-56.6-171.8-135.8-208v.3c73.6 33.5 126.5 104.4 134.7 188.4" opacity=".9"/></g></g><g><path fill="#382f2b" d="m252.2 123.2l-.5-.5c.6-.6 1-.9 1-.9l.4.6c-.1 0-.4.2-.9.8"/><path opacity=".1" fill="#3b342d" d="m299.3 232.7c.7-7.1.5-17.1-3.3-28.7.4-15.4.4-24.6.2-28.2l-.2-6-2.1-1.3c-5.4-3.5-12.6-6-16-7.1l-2.6-5.1c.2-.2 1.1-1.3 2.1-2.5 4.4-1.4 7.1-6.2 6.3-10.9 3.6-8.1 6.1-16.7 7.3-25.6 3.8-26.1-2.8-52.2-18.6-73.3-15.8-21.2-38.9-34.9-65-38.7-26.2-3.9-52.2 2.7-73.4 18.4-21.2 15.8-34.9 38.9-38.7 65-2.1 14.5-1.1 28.8 3.1 42.7-2.5 3.5-2.9 8-1.1 12.6.7 1.9 1.8 3.4 3.1 4.6-1.4 1-2.4 2.2-2.7 4v.1.1c-.1.6-.1 1.3-.1 2.1-.3 4.7-1.4 13.9-1.9 18-3.2 2.3-9 7.2-10.7 12.6l-.1.2-6 25.9c-1.8 3.2-2.9 6-3.4 8.2-.4 1.7-.6 3.1-.8 4l-.1.5v.3c0 1.7 0 3.5.1 5.2l-1.3 5.7.6 39.4-1.3 13.7 73.5 1.9c0 1-.1 1.8-.1 2.3 44.4 25.1 103.2 4.3 112.8.7l35.2.9.2-31v-.3c0 0 .1-2.8.3-7.4.4-.6.9-1.2 1.3-1.8l.7-1 .1-1.2c0-.1 0-.2 0-.2 3.5-1.4 6.3-4.6 6.9-8.6.4-4-1.3-7.8-4.3-10.2"/><path fill="#382f2b" d="m235.2 288.4l-221.4-5.8 1.3-13.7-.6-39.4 1.3-5.7c-.1-1.7-.1-3.5-.1-5.2v-.3l.1-.5c.3-2.2 1-6.6 4.2-12.2l6-25.9.1-.2c1.8-5.4 7.5-10.3 10.7-12.6.5-4.1 1.6-13.2 1.9-18 0-.8 0-1.4.1-2.1v-.1-.1c.3-1.7 1.3-3 2.7-4-1.3-1.2-2.3-2.8-3.1-4.6-1.9-4.7-1.4-9.1 1.1-12.6-4.2-13.9-5.2-28.2-3.1-42.7 3.8-26.1 17.6-49.2 38.7-65 21.3-15.8 47.3-22.4 73.5-18.6 26.1 3.8 49.2 17.6 65 38.7 15.8 21.2 22.4 47.2 18.6 73.4-1.3 8.9-3.8 17.5-7.3 25.6.8 4.7-1.9 9.5-6.3 10.9-1 1.2-1.9 2.3-2.1 2.5l2.6 5.1c3.4 1.1 10.6 3.6 16 7.1l2.1 1.3.2 6c.2 3.6.2 12.9-.2 28.2 3.8 11.7 4 21.6 3.3 28.7 3.1 2.3 4.7 6.2 4.1 10.2-.6 4-3.3 7.2-6.9 8.6 0 .1 0 .2 0 .2l-.1 1.2-.7 1c-.4.6-.8 1.2-1.3 1.8-.2 4.6-.3 7.4-.3 7.4v.3l-.1 31.1m-211.1-13.9l203 3.2-1.2-21.1c0-.9.1-4 .3-8.6l.1-1.5.9-1.2c.4-.5.7-1 1.1-1.5 0-.5 0-1.2-.1-2l-.5-6 6 .9c.7.1 1.4-.5 1.5-1.2.1-.7-.4-1.4-1-1.6l-4.3-1.1.7-4.3c.8-5.1 1.6-15.6-2.7-28.4l-.3-.8v-.8c.4-19.3.4-26 .2-28.3v-.2-1c-5.8-3.2-13.2-5.2-13.3-5.3l-1.9-.5-7-12.5 1.7-2.5c.1-.1.1-.1.2-.2l.8-1.2 1-.5c.5-.2.9-.7 1.4-1.3.5-.7.8-1.4.8-2v-1.3l.6-1.1c5.4-9.6 8.9-20 10.5-31 3.4-23.6-2.5-47.2-16.8-66.3-14.3-19.1-35.1-31.6-58.8-35-23.4-3.2-47 2.7-66.1 17-19.1 14.3-31.6 35.1-35 58.8-2 13.9-.8 27.7 3.6 41l1 3.1-2.5 2.1c-.9.7-1.7 1.7-.7 4.3.6 1.5 1.2 1.6 1.6 1.7.4.1.8 0 1.3 0l3.3-.5 1.6 3c.6 1.1 1.2 2.3 1.9 3.4l3.6 6.2-7.1.9c-2.7.3-4.4.7-5.4 1-.5 6.7-2.1 19.5-2.2 20.1l-.3 2.2-1.8 1.2c-3 2-7.7 6-8.7 8.7l-6.3 27-.4.7c-2.6 4.2-3.1 7.5-3.3 9.2 0 1.6 0 3.2.1 4.8v.7l-1.4 5.9.6 38.7-.3 5"/><path fill="#e2e1d5" d="m49 124.4s-9.6 2.7-6 11.8c3.6 9.1 14.4 2.1 14.4 2.1 2.3-3.3-1.2-14.9-8.4-13.9"/><path fill="#fff" d="m43.6 147.4c1.7-9.4 164.2-2.5 167.2 2.8 3 5.3-96.8 37.1-96.8 37.1l-66.7-20.3c0 0-4.4-14.2-3.7-19.6"/><path fill="#c5c8c0" d="m43.6 147.4c1.7-9.4 164.2-2.5 167.2 2.8 3 5.3-96.8 37.1-96.8 37.1l-66.7-20.3c0 0-4.4-14.2-3.7-19.6"/><path fill="#a9afa2" d="m30.7 181l-11.4 49 .6 39.1-.9 9.5 212.2 4.5-.5-26s2.7-75.8 2-87.1c-2.5-5.4-32.4-4.7-32.4-4.7l-25.4.7c0 0-77.8-1.3-84.7-1.3-6.9-.1-48.7 5-48.7 5l-10.8 11.3"/><path opacity=".2" fill="#3a332c" d="m41.5 178.6c-21.7 17.7-17.9 100.7-17.9 100.7l203.7 3.3c0 0 13.8-108.5-3.5-115.2-7.9-8.1-160.6-6.5-182.3 11.2"/><path fill="#382f2b" d="m93 183.3s-5.6 94-5.8 103.5c48.4 27.3 114.1.1 114.1.1l7.2-131.2-115.5 27.6"/><path fill="#e2e1d5" d="m204.9 174.3c-8.8 53.9-6.7 98.9-7.1 109.1-78.2 24.5-105.1-.2-105.9.6-.8.8 11.9-88.8 3-112.5-2.5-11.5 106.7-10.4 110 2.8"/><g fill="#382f2b"><path opacity=".1" d="m96.9 182.9s-1.6 75.6-5 101.1c13.2 8.9 33.2 9.9 33.2 9.9l-24.1-109.8-4.1-1.2"/><path d="m122.6 189s1.8 5.8 1.3 11c-6 .7-6.6 6.1-1.4 9.5-6.3.8-7.9-9.8-1.2-10.9-.2-4.4-1.4-9.6-1.4-9.6h2.7"/></g><path fill="#fff" d="m162.4 188.5l-72.6 2.9-9.2 9.7 89.4-11.7z"/><g fill="#382f2b"><path opacity=".1" d="m113.1 193.9l1.9-.2 4.9 2.2-5 .6z"/><path d="m140.1 193.4l-28.6 3.7s25.6-1.8 25.6-1.7c0 .1 3-1.5 3-1.5v-.5"/></g><path fill="#fff" d="m96.6 184.9s31.7 14.2 31.9 14.6c.2.3 3.9-2.2 3.9-2.2l-33.1-13-2.7.6"/><g fill="#382f2b"><path d="m94.3 185.8c.2-.1 35.4 14.1 35.4 14.1l-8.8-4.2-24.5-10.9-2.1 1"/><path opacity=".1" d="m186.4 186.1l7 11.8 5-1.7 1.2 12.5 2.5 1.9 2.8-19.4-2.6-12.4z"/></g><circle fill="#b5a899" cx="134" cy="96.3" r="94.1"/><ellipse transform="matrix(.9955.09461-.09461.9955 2.682-13.166)" opacity=".1" fill="#fff" cx="140.2" cy="21.7" rx="43.9" ry="17.5"/><g fill="#3a332c"><path opacity=".2" d="m185.7 17.7c16.4 16.1 25.2 39.5 21.6 64-1.3 9.1-4.3 17.6-8.5 25.3.7 5.2.6 10.6-.2 16-4.7 32.4-34.8 54.9-67.3 50.2-4.1-.6-8.1-1.6-11.9-3-3.8.3-7.6.2-11.5-.4-28-4.1-47.4-30.1-43.3-58.1.4-2.9 1.1-5.7 1.9-8.4-6.2-12.9-8.8-27.8-6.6-43 2.4-16.2 9.8-30.4 20.4-41.2-20.6 14.2-35.6 36.8-39.5 63.7-7.5 51.4 28.2 99.2 79.6 106.7 51.4 7.5 99.2-28.1 106.7-79.6 5.4-37.3-11.9-72.7-41.4-92.2"/><path opacity=".2" d="m93.4 35.4c-.1 8.7 8 8.2 9.3 6.3 2.2-3.7-2.7-4.5-2.7-4.5s.2-3.4 4.1-.8c8.1 6.5 6.3 33.8 6.3 33.8l-7 2.7 4.3-3.1-8.1-1.1-.6 4.2c0 0 4.2 8.6 11.4 6 4.6-1.4 6.1-6.8 5.2-10.8-2-11.1-1.7-23.9-1.3-24.8 4.7 13.5 9.4 40.8 9.1 48.8-.3 8-46.7-18.5-46.7-18.5l-1.5-5.9c0 0 2-2.8 2.4-.6-.9 6.5 9.1 4.5 9-.5.3-3.3-6.8-7.1-6.8-7.1l-7 6.6c0 0-10.6-.4-11.5 3.5-2 5.9 5.4 8 7.9 4.7.1-1.5.8-1.7-.7-1.8-2.3-.1-2.2-2.2-2.2-2.2s4.6-3.5 6.6 1c2.1 3.3.4 4.3.4 4.3l-9.6 6.7-14.6 13.8c0 0 2.8 16.2 22.5 25-2.6 13.6 14.9 14.3 15.1 4.8-6 6-7.3-2-7.3-2s3-5.7 8.3-1.3c20 .1 34-19.3 34-19.3s13.9-5.9 18.5.5c24.3 31.6 50.8 14.6 50.8 14.6l3.9 2.1c0 0-2.2 6.4-4.9 5-2.7-1.4-4.7-.7-4.7-.7s-.5 6.7 8.2 5c10.6-3.8 2.2-13.9 2.2-13.9s17.1-10.1 19.2-29.7c-10.2 3-27.4-13.7-27.4-13.7s.2-.2 0-2.4c-.5-3.2 2.7-5.5 4.9-3.4 1.6 1.8-2.1 2.8-2.1 2.8s.1 1.2 1.8 2.2c1.8.7 5.1-.1 5.1-4 .3-6.8-9.6-4.2-9.6-4.2l-1.6.5-8-2.1c0 0-4.3-.4-4.1 3.3-.7 6.2 8.1 7.3 8.3 2.7-1 .2-4.6-1.6-3.2-3.5 1.3-1.8 5 .1 5.4 2.2.2 1.4.5 5.9.5 5.9l-13.1 3.7-33.2 21.3c0 0 .9-45 9.2-56.4-.2 11.6-1.2 27-.7 31.6.4 2.7 1.9 10.5 11.6 8 6.7-3 2.5-5.3 2.5-5.3s-.1-6.1-.9-6.3c-.7-.1-4.7 1.1-3.8 5 .2.8 1 2 1.8 2.1-5 .3-7.9-10.3-7.9-10.3l2.8-28.8c0 0 1-5.8 4.1-4.1 1.6 1.2-2.2 1-2.1 2.5-.5 3.3 6.6 3.3 5.8-3.5.4-5.6-6.5-5.4-6.5-5.4s-17.8-3.9-19.4 1.4c-1.6 5.3 1.2 7.3 3.2 9.1 2.8 14.2-5.4 49.7-5.4 49.7l-2.3 3.4-8.2-18.4-5.5-36.5-19.6-4c-.2 0-3.6-1.1-3.9 4.1"/></g><g fill="#382f2b"><path d="m188.1 155s23.1-7.3 28.2-11.9c1 3.4-1.6 10.6-1.6 10.6l-26.6 1.3"/><path d="m215.1 86.3c-4.2 12.8-8.8 21.3-21.5 28.5 9.4 3.2 5.7 16.2-4.7 13.9-5.7-1.8-3.3-9.1.7-8.8 1.9.2 2.4 2.2.4 3.2 0 1.8 2.2 1.2 2.7-.2 1.1-3.8-2.8-5.8-5-4.5-22.9 11.3-42.1-9.2-47.1-15.7-.5 5.4 1.5 10.8 1.5 10.8s-4.9-2.3-13-1.4c-8.3.8-14 4.2-14 4.2s6.8-7.6 6.9-14.2c-10.5 13.1-23.4 19.2-34 19.9-.9-2-4.4-3.3-7.1-1.4-2.9 2.1-.9 6 1.3 5.1-1.8-3.5 2.5-5.3 4.3-2.8 1.7 2.1.5 5.6-2.9 7.3-8.2 3.7-13.1-6.1-9.2-10.8-16.2-6-25.6-22.4-25.3-23.4.2-.8 6.5-14.1 22.3-20.7 2.3-1.9 1.7-4.8.1-6.4-1.3-1.3-3.1-1.4-4.5-.4-1.2 1.1-1 2.1 0 2.7 1.3-2.1 3.8-.6 3.1 1.4-1.7 5-8.7 1.8-8.8-2.4-.6-4.1 3.6-10.1 11-6.1 2.7-9.6 13.4-7.2 14.6-1 1 3.2-2 7-5.7 6.7-1.7 0-3.9-2.1-2.2-4.3.2-1.7-2-1.5-2.5-.8-2.1 2-2.7 8.1 7.5 7.6 18.5-1.5 39.4 19.5 39.4 19.5s-1.3-35.2-10.1-53.5c-1 8.9-.3 19.9.6 26.3.5 2.7 1.2 14.4-8.4 13.2-3.6-.8-6.8-3.3-6.7-7.1.3-6.9 8.3-7.3 9.2-2.9.6 2.8-1.9 3.8-3.3 2.9-.7.2-.3 3.4 2.9 2.1 1.8-.6 2.7-3.1 2.4-5.6 0-7.6-2.6-19.9-4-26.1-1.3-5.9-3.9-8.4-6.6-6.9-1.4 1-.5 2.8.6 2.6.3-1 3.5-.8 3.2 1.9-.2 2.5-3.2 2.6-3.9 2.5-8.2-1.3-6.9-11-1.6-12.6 3.2-1.6 18.3-3.7 22.4-3.6 6.9.2 6.1 8.9 3 10.5.1 10.7.1 33.1 8 50.7 6.6-18.2 7.6-39.6 7.1-52.3-4.2-2.7-4.5-8.7.6-9.7 6.1-1.1 14.9-1 18.9 1.5 2 1.3 4.5 3.5 2.9 8.3-.8 1.8-2.6 2.5-3.7 2.1-2.3-.5-2.4-2.7.1-2.5.8-.4.4-1.5-.1-1.8-1.4-.6-2.7-.2-3.3 5.4-1.5 19.8-1.8 21.5-.7 32.5 1 6.1 5.9 6.3 6.7 5.2-3 .5-3.8-5.9.7-6.2 4.5-.3 4.7 4.6 4.7 4.6s-.8 7.9-9.7 7.2c-1.9-.8-5.5.4-6.8-10.7-.7-5.5.8-18 .1-30.9-8.1 14.2-9.8 57.1-9.2 55.6.6 1.2 6.1-1.1 10.8-5.4 7-6.5 16-15.7 30-17.4 4.1-.9 6.2-7 1.3-9.1-3.7-1.2-4.1 3.4-1.1 2.8 3.6-.2 1.8 5.9-3.4 3.7-4.4-2.3-3.5-6.9-.7-9.4 3-2.8 9.4-1.8 10.8 3.3 5.2-5.8 11.8-.2 9.8 5-.6 2-3.8 2.8-5.6 1.8-1.5-.9-1.1-2.7.8-2.7 1.5-.6.5-3.3-2.8-1.9-2.3 1.2-2.8 6 1.9 7.6 7.1 3.2 13.7 10.7 23.9 13.5"/><ellipse transform="matrix(.9039.4277-.4277.9039 78.31-76.85)" cx="210.2" cy="135.9" rx="4.8" ry="10.4"/></g><g fill="#e2e1d5"><path d="m116.7 100.6c-11.6 9.6-23 14.2-30.9 14-16.6-.4-23.3-16.9-23.3-16.9s7.3-16.8 23.2-17.6c5-.2 10.3 4.3 17 8.2 4.1 2.4 9.6 6 13.7 7.3 3.9 1.8 1.2 4.3.3 5"/><path d="m154.7 98.7c8.8-4.7 16.8-17.5 28.9-17.8 5.8-.2 12 7.6 19.8 10.8-3 13.1-14.5 20.4-23.3 21.7-13.6 2-19.6-5.2-23.8-6.5-5.3-.6-6.8-5.9-1.6-8.2"/></g><g fill="#b5a899"><path d="m213.3 88.1l-.3-.1c.1-.2.2-.5.3-.7-.3-.1-.5-.2-.8-.3l.1-.3c.3.1.6.2.9.3h.2l-.1.2c-.1.3-.2.6-.3.9"/><path d="m210.8 86.3c-.6-.2-1.2-.5-1.7-.8l.1-.3c.6.3 1.2.5 1.7.8l-.1.3m-3.5-1.6c-.5-.3-1.1-.6-1.7-.9l.2-.3c.6.3 1.1.6 1.7.9l-.2.3m-3.3-1.9c-.5-.3-1-.7-1.6-1l.2-.3c.6.4 1.1.7 1.6 1l-.2.3m-3.2-2.1c-.5-.3-1-.7-1.5-1l.2-.3h.1c.5.3 1 .7 1.5 1l-.3.3m-3.1-2.1c-.5-.4-1.1-.7-1.6-1l.2-.3c.5.3 1.1.7 1.6 1.1l-.2.2m-3.2-2.1c-.6-.3-1.1-.7-1.7-.9l.1-.3c.5.3 1.1.6 1.7.9l-.1.3m-3.4-1.7c-.1-.1-.3-.1-.4-.2-.5-.2-.9-.3-1.3-.6l.2-.3c.4.2.8.4 1.3.6.2.1.3.1.5.2l-.3.3m-3.3-1.9c-.5-.5-.9-1-1.1-1.6l.3-.1c.3.5.6 1 1.1 1.5l-.3.2m-1.7-3.5v-.1c0-.4 0-.9 0-1.3 0-.2.1-.4.1-.6l.3.1c0 .2-.1.4-.1.5-.1.4-.1.8 0 1.2v.1l-.3.1m7.9-1.9l-.3-.1c0-.1.1-.3.1-.4 0-.2 0-.4 0-.5 0-.3-.1-.5-.2-.8l.3-.1c.1.3.2.6.3.9 0 .2 0 .4 0 .6-.2.1-.2.2-.2.4m-6.7-1.6l-.3-.2c.4-.6.9-1 1.5-1.3l.2.3c-.5.3-1 .7-1.4 1.2m3.2-1.7v-.3c.4 0 .7 0 1 0 .3 0 .6.1.9.3l-.1.3c-.3-.1-.5-.2-.8-.2-.4-.1-.7-.1-1-.1"/><path d="m192.3 69.6c-.2 0-.4-.1-.6-.2-.2-.2-.3-.3-.3-.4v-.1l.1-.1c.1 0 .2-.1.5-.1.1 0 .3 0 .4-.1 0 0 .1 0 .1 0l.1.3c0 0-.1 0-.1 0-.2.1-.3.1-.5.1-.1 0-.1 0-.1 0s.1 0 .1.1c.1.1.3.1.5.2l-.2.3"/><path d="m140.3 96.6v-.3c.5 0 1.1-.2 1.8-.4l.1.3c-.8.3-1.4.4-1.9.4m-1.9-.6c-.2-.1-.3-.3-.4-.5-.1-.2-.2-.3-.2-1.4h.3c0 1 .1 1.2.2 1.3.1.1.2.3.3.4l-.2.2m5.5-.5l-.1-.3c.5-.3 1.1-.6 1.7-.9l.2.3c-.7.3-1.2.6-1.8.9m-6.1-3.2c0-.5 0-1.2.1-1.9h.3c0 .7-.1 1.4-.1 1.9h-.3m9.4 1.3l-.2-.3c.5-.3 1-.7 1.5-1.1l.2.3c-.4.4-1 .7-1.5 1.1m3.1-2.3l-.2-.2c.3-.2.5-.5.8-.7.2-.2.4-.4.6-.6l.2.2c-.2.2-.4.4-.6.6-.3.2-.6.4-.8.7m-12.3-2.8v-.7c0-.4 0-.7.1-1.2h.3c0 .4 0 .8-.1 1.2v.7h-.3m15.1.2l-.2-.2c.5-.4.9-.9 1.4-1.3l.2.2c-.5.5-1 .9-1.4 1.3m-14.9-4c0-.6.1-1.2.1-1.9h.3c-.1.7-.1 1.3-.1 1.9h-.3m17.7 1.4l-.2-.2c.5-.4.9-.8 1.4-1.3l.2.2c-.5.5-1 .9-1.4 1.3m-17.4-5.2c0-.6.1-1.2.2-1.9h.3c-.1.7-.1 1.3-.2 1.9h-.3m20.2 2.8l-.2-.2c.5-.4 1-.8 1.5-1.2l.2.2c-.5.4-1 .8-1.5 1.2m3-2.4l-.2-.3c.5-.4 1-.8 1.6-1.1l.2.3c-.5.4-1.1.8-1.6 1.1m-6.8-1.7c-.2 0-.3-.1-.5-.1-.5-.1-.9-.2-1.4-.4l.1-.3c.4.2.8.3 1.3.4.2 0 .3.1.5.1v.3m2 .2v-.3c.7 0 1.3-.1 1.8-.3l.1.3c-.6.2-1.3.3-1.9.3m-18.1-2.7c.1-.6.1-1.2.2-1.9h.3c-.1.6-.1 1.3-.2 1.9h-.3m12.8.7c-.3-.5-.6-1-.8-1.7l.3-.1c.2.7.5 1.2.8 1.7l-.3.1m8.9.9l-.2-.3c.5-.3 1-.7 1.4-1.2l.2.2c-.3.5-.8 1-1.4 1.3m4.3.5l-.2-.3c.5-.3 1.1-.7 1.6-1l.2.3c-.5.3-1 .7-1.6 1m-7.6-2.1c-.4-.1-.9-.2-1.5-.5l.1-.3c.6.3 1.1.4 1.5.4.1 0 .2 0 .3 0v.3c-.2.1-.3.1-.4.1m2.3-.2l-.1-.3c.4-.2.7-.4.9-.7.1-.2.2-.3.2-.5h.3c0 .2-.1.5-.3.7-.2.3-.6.6-1 .8m-5.5-1.3c-.5-.4-.9-.9-1.3-1.5l.3-.1c.4.5.8 1 1.2 1.4l-.2.2m-14.8-2.3c.1-.5.1-1 .2-1.5v-.4h.3v.4c-.1.5-.1 1-.2 1.5h-.3m28.9 4l-.1-.3c.6-.3 1.1-.6 1.7-.8l.1.3c-.5.3-1.1.5-1.7.8m-17.9-3.1c-.1-.6-.3-1.2-.4-1.9l.3-.1c.1.7.2 1.3.4 1.8l-.3.2m12.8 1.6l-.3-.1c.3-.7.5-1.3.6-1.8l.3.1c0 .4-.2 1.1-.6 1.8m-4-1.7c-.3-.1-.7-.5-.8-1l.3-.1c.1.5.4.8.6.8 0 0 .1 0 .1 0 .2 0 .4 0 .6 0l-.1.3c-.1 0-.3 0-.4 0-.1 0-.2 0-.3 0m12.6 1.7l-.1-.3c.6-.2 1.2-.5 1.8-.6l.1.3c-.6.1-1.2.3-1.8.6m-19.7-3.4c-.2-.6-.4-1.2-.5-1.9l.3-.1c.1.6.3 1.2.5 1.8l-.3.2m-12.2-2.9c.1-.6.2-1.2.2-1.9h.3c-.1.6-.2 1.3-.2 1.9h-.3m35.5 5.1l-.1-.3c.6-.2 1.2-.3 1.9-.5l.1.3c-.7.2-1.3.3-1.9.5m-25.6-4.1v-.4c-.1-.4-.1-.9-.1-1.5h.3c0 .6.1 1.1.1 1.5v.4h-.3m13.4 1.7c-.3-.6-.6-1.1-1.1-1.4l.2-.3c.5.3 1 .8 1.3 1.5l-.4.2m-4.3-.9l-.3-.2c.3-.6.9-.9 1.7-1v.3c-.6.2-1.1.4-1.4.9m20.1 2.5l-.1-.3c.5-.1 1-.1 1.5-.2 0 0 .1 0 .1 0 .1 0 .2 0 .3-.1l.1.3c-.1 0-.2.1-.3.1 0 0-.1 0-.1 0-.5 0-1 .1-1.5.2m-27.6-5.1c-.1-.7-.1-1.3-.2-1.9h.3c.1.6.1 1.2.2 1.9h-.3m31.3 4l-.2-.3c.5-.3 1-.7 1.4-1.2l.2.2c-.4.5-.9.9-1.4 1.3m-42.4-6.9c.1-.4.1-.8.2-1.2l.1-.7h.3l-.1.7c-.1.4-.1.8-.2 1.2h-.3m9.2.9c0-.6 0-1.2 0-1.9h.3c0 .7 0 1.3 0 1.9h-.3m29.3 2.3v-.3.2l.1-.2c.9.1 1.4-.1 1.7-.3l.2.2c-.5.2-1.1.5-2 .4m-27.7-4.1c0-.7-.1-1.3-.1-1.9h.3c0 .6.1 1.2.1 1.9h-.3m34.2 4.9l-.3-.1c.3-.6.5-1.2.6-1.8h.3c-.2.7-.4 1.3-.6 1.9m-8.4-1.6c-.6-.4-1-.9-1.3-1.4l.3-.2c.3.5.7.9 1.2 1.3l-.2.3m-35.7-6.1h-.3c.1-.6.2-1.2.3-1.9l.3.1c-.1.5-.2 1.1-.3 1.8m38.3 5.3c-.3 0-.6-.1-.9-.3l.1-.3c.2.1.5.2.8.2.3 0 .6 0 1 0v.3c-.3.1-.7.1-1 .1m15 2.1l-.1-.3c.6-.2 1.1-.6 1.2-1 0 0 0-.1 0-.1l.3.1c0 0 0 .1 0 .1-.1.4-.7.9-1.4 1.2m-44.9-6.6c0-.6 0-1.2.1-1.9h.3c0 .6 0 1.3-.1 1.9h-.3m27.7 2.8c-.2-.5-.2-1-.2-1.5 0-.2.1-.3.1-.5l.3.1c0 .1-.1.3-.1.4-.1.5 0 .9.1 1.3l-.2.2m-2.1-.8c0-.1 0-.3 0-.4.1-.5.2-1 .5-1.5l.3.1c-.2.5-.4.9-.4 1.4 0 .1 0 .3 0 .4h-.4m-24.3-3.8c0-.6 0-1.3 0-1.9h.3c0 .6 0 1.3 0 1.9h-.3m34.6 5c-.1-.6-.3-1.2-.6-1.7l.3-.2c.3.6.6 1.2.7 1.8l-.4.1m1.5-1.1c0 0-.1 0-.1 0-.5-.1-.9-.5-1-1l.3-.1c.1.4.4.7.8.7.2 0 .3 0 .5 0l.1.3c-.2.1-.4.1-.6.1m8.9 1.2c0-.6-.2-1.1-.5-1.7l.3-.2v.1c.3.6.5 1.2.6 1.8h-.4m-54-7.9l-.3-.1c.1-.6.2-1.2.4-1.9l.3.1c-.2.7-.3 1.3-.4 1.9m7.8.8l.1-1.9h.3l-.1 1.9h-.3m28.9 3.3l-.2-.3c.5-.4 1.2-.6 1.9-.6v.3c-.7 0-1.2.2-1.7.6m5.1.6c-.5-.4-1-.7-1.6-.9l.1-.3c.6.3 1.2.6 1.7 1l-.2.2m5.4.7l-.2-.2c.5-.5 1.1-.8 1.7-1l.1.3c-.6.2-1.1.5-1.6.9m-12.1-2l-.2-.2c.1-.1.2-.2.4-.4.3-.3.7-.6 1.2-.8l.1.3c-.4.2-.8.4-1.1.7-.1.1-.3.2-.4.4m8.1.6c-.4-.5-.8-.9-1.3-1.3l.2-.3c.6.4 1 .8 1.4 1.4l-.3.2m-34.2-5c0-.6 0-1.2.1-1.9h.3c0 .7 0 1.3-.1 1.9h-.3m43.2 5.9c-.5-.3-1.1-.6-1.7-.6v-.3c.6.1 1.3.3 1.8.7l-.1.2m-13.8-3v-.3c.6 0 1.3 0 1.9.2l-.1.3c-.6-.2-1.2-.3-1.8-.2m-37.7-5.6l-.3-.1c.1-.6.3-1.2.4-1.9l.3.1c-.2.7-.3 1.3-.4 1.9m7.3.7c0-.6 0-1.3.1-1.9h.3c0 .6 0 1.3-.1 1.9h-.3m1.1-1.8c0-.6.1-1.2.1-1.9h.3c0 .7-.1 1.3-.1 1.9h-.3m-7.6-2.6l-.3-.1c.2-.6.3-1.2.5-1.8l.3.1c-.2.6-.3 1.2-.5 1.8m6.6.6c0-.6 0-1.3 0-1.9h.3c0 .6 0 1.3 0 1.9h-.3m1.3-1.8c0-.6.1-1.2.1-1.9h.3c0 .7-.1 1.3-.1 1.9h-.3m-6.9-2.5l-.3-.1c.2-.6.4-1.2.6-1.8l.3.1c-.2.6-.4 1.2-.6 1.8m5.6.5c0-.6 0-1.3 0-1.9h.3c0 .6 0 1.3 0 1.9h-.3m1.5-1.8l.1-1.9h.3l-.1 1.9h-.3m-5.9-2.3l-.3-.1c.2-.6.5-1.2.7-1.8l.3.1c-.3.6-.5 1.2-.7 1.8m4.4.3c0-.6 0-1.3 0-1.9h.3c0 .6 0 1.3 0 1.9h-.3m1.8-1.8l.1-1.9h.3l-.1 1.9h-.3m-4.7-1.9l-.3-.1c.2-.5.5-1 .8-1.4.1-.1.1-.2.2-.3l.2.2c-.1.1-.1.1-.2.2-.3.4-.5.9-.7 1.4m2.8-.1c0-.3 0-.6 0-.8 0-.3-.2-.6-.4-.8l.2-.2c.3.3.5.6.5 1 0 .3 0 .6 0 .8h-.3m2.2-1.7l.1-1c0-.3.1-.6.1-.9h.3c0 .3-.1.6-.1.9l-.1 1h-.3m.8-3.8l-.3-.1c.2-.7.4-1.3.6-1.8l.3.1c-.2.6-.4 1.1-.6 1.8m5.6-1.5c0-.6-.3-1.2-.7-1.6l.2-.2c.5.5.8 1.1.8 1.8h-.3m-4-1.7l-.2-.2c.5-.4 1.2-.6 1.8-.6v.3c-.5-.1-1.1.1-1.6.5"/><path d="m157.3 35.5c-.1 0-.1 0-.1 0-.1 0-.1 0-.2-.1-.1 0-.1 0-.2 0l-.9-.3h1c.2 0 .3 0 .5-.1.1-.1.2-.1.3-.2l.2.3c-.1.1-.2.1-.3.2.1 0 .1 0 .2 0l.1.3c-.3-.1-.5-.1-.6-.1"/><path d="m130.7 87.9c-.4-.1-.7-.2-.9-.5l.2-.2c.2.3.5.4.9.4.2 0 .4-.1.6-.2l.2.3c-.2.2-.5.3-.8.3 0 0-.1-.1-.2-.1m-1.7-2.2c-.2-.6-.5-1.2-.7-1.8l.3-.1c.2.6.5 1.2.7 1.8l-.3.1m3.7.2l-.3-.1c.2-.6.4-1.2.6-1.8l.3.1c-.2.6-.4 1.2-.6 1.8m-5.1-3.8c-.2-.6-.4-1.2-.6-1.8l.3-.1c.2.6.4 1.2.6 1.8l-.3.1m6.3.2l-.3-.1c.2-.6.4-1.2.5-1.8l.3.1c-.2.6-.4 1.2-.5 1.8m-7.4-3.8c-.2-.6-.4-1.2-.5-1.8l.3-.1c.2.6.3 1.2.5 1.8l-.3.1m8.4.1l-.3-.1c.2-.6.3-1.2.5-1.8l.3.1c-.2.6-.3 1.2-.5 1.8m-9.5-3.8c-.2-.6-.3-1.2-.5-1.9l.3-.1c.1.6.3 1.2.5 1.9l-.3.1m10.4.1l-.3-.1c.1-.6.3-1.2.4-1.9l.3.1c-.1.6-.2 1.3-.4 1.9m-11.2-3.9c-.1-.6-.3-1.3-.4-1.9l.3-.1c.1.6.2 1.2.4 1.9l-.3.1m12 .2l-.3-.1c.1-.6.2-1.3.4-1.9l.3.1c-.1.6-.2 1.2-.4 1.9m-12.8-3.9c-.1-.6-.2-1.3-.3-1.9l.3-.1c.1.6.2 1.3.3 1.9l-.3.1m13.5.1l-.3-.1c.1-.6.2-1.3.3-1.9h.3c-.1.7-.2 1.4-.3 2m-14.1-3.9c-.1-.6-.2-1.3-.3-1.9h.3c.1.6.2 1.3.3 1.9h-.3m14.4.1c.1-.6.2-1.3.3-1.9h.3c-.1.6-.2 1.3-.3 1.9h-.3m-14.9-3.9c-.1-.6-.1-1.3-.2-1.9h.3c.1.6.1 1.3.2 1.9h-.3m15.4.1c.1-.6.1-1.3.2-1.9h.3c-.1.6-.1 1.3-.2 1.9h-.3m-15.8-3.9c-.1-.6-.1-1.3-.2-1.9h.3c0 .6.1 1.3.2 1.9h-.3m16.2.1c.1-.6.1-1.3.2-1.9h.3c-.1.6-.1 1.3-.2 1.9h-.3m-16.4-3.9c0-.6-.1-1.3-.1-1.9h.3c0 .6.1 1.3.1 1.9h-.3m16.7.1c0-.6.1-1.3.1-1.9h.3c0 .6-.1 1.3-.1 1.9h-.3m-17-3.9c0-.6-.1-1.3-.1-1.9h.3c0 .6.1 1.3.1 1.9h-.3m17.3.1c0-.7.1-1.3.1-1.9h.3c0 .6-.1 1.3-.1 1.9h-.3m-17.4-4c0-.7 0-1.3-.1-1.9h.3c0 .6 0 1.3 0 1.9h-.2m-22.3-4v-.3c.2 0 1.1 0 1.7-.4l.2.3c-.6.4-1.6.5-1.9.4m-1.9-.5c-.6-.3-1.2-.6-1.6-1.1l.2-.2c.4.4.9.8 1.5 1l-.1.3m41.7 4.7c0-.7 0-1.3 0-1.9h.3c0 .6 0 1.3 0 1.9h-.3m-44.4-7.4c-.2-.5-.3-1-.3-1.6 0-.1 0-.2 0-.3h.3c0 .1 0 .2 0 .3 0 .5.1 1 .3 1.5l-.3.1m26.8 3.4c0-.7 0-1.3 0-1.9h.3c0 .6 0 1.3 0 1.9h-.3m17.7.1c0-.7 0-1.3 0-1.9h.3c0 .6 0 1.2 0 1.9h-.3m-44.2-7.3l-.3-.1c.2-.6.5-1.2.9-1.7l.2.2c-.3.5-.6 1-.8 1.6m26.4 3.4v-.9c0-.1 0-.2 0-.2 0-.3.2-.6.4-.8l.2.2c-.2.2-.3.4-.3.6 0 .1 0 .1 0 .2v.9h-.3m17.8.1c0-.7 0-1.3 0-1.9h.3c0 .6 0 1.2 0 1.9h-.3m-41.9-6.3l-.1-.3c.2-.1.5-.2.7-.3.1 0 .1 0 .2-.1.2-.1.5-.2.9-.4l.1.3c-.4.1-.7.2-.9.3-.1 0-.2.1-.2.1-.3.2-.5.3-.7.4m26.1 3.1l-.3-.1c.3-.5.5-1.1.6-1.8h.3c-.1.7-.3 1.4-.6 1.9m-22.5-4.3l-.1-.3c.6-.1 1.2-.3 1.9-.4l.1.3c-.8.1-1.4.3-1.9.4m3.7-.8l-.1-.3c.6-.1 1.2-.2 1.9-.3l.1.3c-.7.1-1.3.2-1.9.3m34.1 4.8c-.1 0-.1-.1 0 0-.6-.4-1.1-.8-1.5-1.3l.2-.2c.4.4.8.8 1.3 1.1 0 0 .1 0 .1.1l-.1.3m-30.3-5.4v-.3c.6-.1 1.3-.2 1.9-.3v.3c-.7.1-1.3.2-1.9.3m15.3 1.9c-.1-.7-.3-1.2-.7-1.7l.3-.2c.4.5.6 1.1.7 1.8l-.3.1m-11.5-2.4v-.3c.7-.1 1.3-.2 1.9-.2v.3c-.7 0-1.3.1-1.9.2m47 6.6l-.3-.1c0 0 0-.1.1-.1.2-.5.3-1 .4-1.5 0-.1 0-.1 0-.2h.3c0 .1 0 .1 0 .2-.1.5-.2 1-.4 1.6-.1 0-.1.1-.1.1m-23-3.7c-.2-.7-.3-1.3-.3-1.9h.3c-.1.6 0 1.2.3 1.8l-.3.1m-20.2-3.4v-.3c.7-.1 1.3-.1 1.9-.2v.3c-.6.1-1.2.2-1.9.2m5.6.1c-.5-.2-1.1-.3-1.7-.3h-.1v-.3h.1c.7 0 1.3.1 1.8.4l-.1.2m37.7 3.3c-.2-.6-.4-1.1-.9-1.6l.2-.2c.4.5.7 1.1.9 1.7l-.2.1m-22.4-3.5l-.2-.2c.4-.5 1-.8 1.7-1l.1.3c-.7.2-1.2.5-1.6.9m3.4-1.2v-.3c.6-.1 1.3-.2 1.9-.2v.3c-.6 0-1.2.1-1.9.2m16.7 1.8c-.1-.1-.2-.2-.4-.3-.4-.2-.8-.4-1.3-.6l.1-.3c.5.2.9.4 1.3.7.1.1.3.2.4.3l-.1.2m-12.9-2.2v-.3c.6 0 1.3-.1 1.9-.1v.3c-.6.1-1.2.1-1.9.1m3.8 0v-.3c.7 0 1.3.1 1.9.1v.3c-.6 0-1.2-.1-1.9-.1m5.7.7c-.6-.1-1.2-.3-1.9-.4l.1-.3c.7.1 1.3.2 1.9.4l-.1.3"/><path d="m100.3 38.5l-.1-.3c.3-.1.5-.2.7-.5v-.1h.1c.1 0 .1 0 .2 0 .5.1.7.3.7.5l-.3.1c-.1-.2-.2-.3-.5-.3 0 0-.1 0-.1 0-.1.4-.4.5-.7.6"/><path d="m52 93.8l-.3-.2c.3-.5.7-1.1 1-1.6l.3.2c-.3.6-.7 1.1-1 1.6m2.1-3.1l-.3-.2c.4-.5.8-1 1.2-1.5l.2.2c-.3.5-.7 1-1.1 1.5m2.4-3l-.2-.2c.4-.5.9-.9 1.3-1.4l.2.2c-.4.5-.8 1-1.3 1.4m2.7-2.7l-.2-.2c.5-.4.9-.9 1.4-1.3l.2.2c-.5.5-.9.9-1.4 1.3m64.6 8.5l-.1-.3c0 0 .1 0 .1 0 .3-.2.6-.5.7-.9 0-.1 0-.1 0-.2v-.2h.3v.2c0 .1 0 .2 0 .3-.1.5-.4.9-.8 1.1-.1 0-.1 0-.2 0m-1.8-.7c-.3-.3-.8-.7-1.4-1.3l.2-.2c.6.6 1.1 1 1.4 1.3l-.2.2m-59.9-10.2l-.2-.2c.5-.4 1-.8 1.5-1.2l.2.3c-.5.3-1 .7-1.5 1.1m57.1 7.6c-.4-.4-.9-.8-1.5-1.2l.2-.2c.5.4 1 .9 1.5 1.2l-.2.2m5.2-.2c0-.5-.1-1.2-.1-1.9h.3c0 .7.1 1.4.1 1.9h-.3m-59.2-9.7l-.2-.2c.5-.3 1.1-.7 1.6-1l.2.3c-.6.3-1.1.6-1.6.9m51 7.5c-.5-.4-1-.8-1.5-1.2l.2-.3c.5.4 1 .8 1.5 1.2l-.2.3m-3-2.4c-.5-.4-1-.7-1.5-1.1l.2-.3c.5.4 1 .8 1.5 1.1l-.2.3m-44.8-7l-.1-.3c.6-.3 1.1-.6 1.7-.9l.1.3c-.5.3-1.1.6-1.7.9m55.8 7.8c0-.6-.1-1.2-.1-1.9h.3c.1.7.1 1.3.1 1.9h-.3m-14.1-3c-.5-.4-1.1-.7-1.6-1.1l.2-.3c.5.3 1.1.7 1.6 1.1l-.2.3m-38.2-6.4l-.1-.3h.1c.1 0 .2-.1.3-.2.4-.3.7-.6 1-1l.3.2c-.3.4-.6.8-1 1.1-.3 0-.4.1-.6.2m35 4.4c-.5-.3-1.1-.7-1.6-1l.2-.3c.5.3 1.1.6 1.6 1l-.2.3m-39.8-7v-.3c.6-.1 1.1-.4 1.4-.9l.3.2c-.5.6-1 .9-1.7 1m-2-.4c-.6-.3-1.1-.7-1.6-1.1l.2-.2c.4.4.9.8 1.5 1.1l-.1.2m58.8 8.6c-.1-.6-.1-1.2-.2-1.9h.3c.1.7.1 1.3.2 1.9h-.3m-20.3-3.1c-.6-.3-1.1-.6-1.7-.9l.1-.3c.6.3 1.1.6 1.7.9l-.1.3m-36.7-6.5v-.3c.4 0 .8-.2 1-.5.1-.2.3-.3.4-.4l.1.3c-.1.1-.2.2-.3.3-.2.4-.7.6-1.2.6m33.3 4.8c-.6-.3-1.2-.5-1.7-.8l.1-.3c.6.2 1.2.5 1.8.8l-.2.3m-26-3.9l-.3-.1c0-.2.1-.4.1-.5 0-.2 0-.3 0-.5 0-.3 0-.5 0-.8h.3c0 .3 0 .6 0 .9 0 .2 0 .3 0 .5 0 .1-.1.3-.1.5m6.1.2c-.2 0-.3 0-.5-.1l.1-.3c.6.1 1.2.2 1.9.2v.3c-.6.1-1.1 0-1.5-.1m-15.1-2.3c-.3-.4-.4-.8-.5-1.3 0-.2 0-.4 0-.6h.2.2c0 .2 0 .4 0 .6 0 .4.2.8.4 1.1l-.3.2m31.5 4.5c-.6-.2-1.2-.4-1.8-.6l.1-.3c.6.2 1.2.4 1.8.6l-.1.3m-18.8-2.7c-.6-.2-1.2-.5-1.7-.9l.2-.3c.5.3 1 .6 1.7.8l-.2.4m5.7.7v-.3c.1 0 .3 0 .4 0 .5 0 1-.1 1.5-.1v.3c-.5 0-1 0-1.4.1h-.1c-.1 0-.2 0-.4 0m-21.1-3.1c-.1-.2-.1-.4-.1-.6 0 0 0-.1 0-.1-.1-.4-.1-.8 0-1.2h.3c0 .4 0 .8 0 1.1 0 0 0 .1 0 .1 0 .2 0 .4.1.5l-.3.2m43.1 6.1c-.6-.1-1.1-.3-1.7-.5l.1-.3c.5.2 1.1.4 1.6.5h.2v.3h-.2m-12.5-2.1c-.6-.2-1.2-.3-1.9-.4l.1-.3c.6.1 1.2.3 1.9.4l-.1.3m14.7 2.1v-.3c.6-.1 1.2-.3 1.8-.6l.2.3c-.7.3-1.4.5-2 .6m-20.4-3v-.3c.6 0 1.3.1 1.9.2v.3c-.6-.1-1.2-.2-1.9-.2m14.9 1.5c-.6-.4-1-.9-1.4-1.3l.3-.2c.4.5.8.9 1.3 1.3l-.2.2m21.2 3c-.1-.6-.1-1.3-.2-1.9h.3c.1.6.1 1.3.2 1.9h-.3m-48.7-7.5c-.3-.5-.6-.9-.8-1.5 0-.1-.1-.2-.1-.3l.3-.1c0 .1.1.2.1.3.2.5.4.9.7 1.4l-.2.2m-1.3-1.1c-.3-.6-.6-1.1-1-1.5l.2-.2c.4.5.8 1 1.1 1.6l-.3.1m32.9 4.8v-.3c.5 0 1-.2 1.5-.4.1 0 .2-.1.2-.1l.1.3c-.1 0-.2.1-.3.1-.4.2-1 .3-1.5.4m-1.9-.5c-.6-.3-1-.8-1.3-1.5l.3-.1c.2.6.7 1 1.2 1.3l-.2.3m6.6.9l-.2-.2c.4-.5.7-1 .9-1.6l.3.1c-.3.7-.6 1.3-1 1.7m-45.2-7l-.2-.2c.1-.1.2-.2.3-.3.1-.1.1-.1.2-.2.4-.2.7-.4 1.1-.6l.1.3c-.4.1-.7.3-1.1.5-.1 0-.1.1-.1.1-.1.1-.2.2-.3.4m-2.7-.9l-.2-.1c.3-.6.7-1.2 1.1-1.6l.2.2c-.4.4-.8 1-1.1 1.5m36.8 5.2c-.1-.5-.2-.9-.1-1.4 0-.2 0-.4 0-.5h.3c0 .2 0 .3 0 .5 0 .5 0 .9.1 1.3l-.3.1m9.9.6l-.2-.2c.4-.4.7-1 .9-1.6l.3.1c-.3.7-.6 1.3-1 1.7m-38.9-5.7c-.6-.3-1.2-.4-1.8-.5v-.3c.7 0 1.3.2 1.9.5l-.1.3m11.2 1.5v-.3c.6-.1 1.2-.3 1.7-.7l.2.3c-.6.4-1.3.6-1.9.7m-1.9-.3c-.3-.2-.6-.5-.7-.8 0-.1-.1-.3-.1-.5 0-.2.1-.3.2-.5l.3.2c-.1.1-.1.3-.1.4 0 .2 0 .3 0 .4.1.2.3.5.6.7l-.2.1m42.8 6.2c-.1-.6-.1-1.3-.2-1.9h.3c.1.6.2 1.3.2 1.9h-.3m-49.3-7.4c0-.1 0-.1 0-.2.1-.6.3-1.2.5-1.7l.3.1c-.3.5-.4 1.1-.5 1.6 0 0 0 .1 0 .1l-.3.1m29.5 3.6l-.3-.1c.2-.7.7-1.2 1.4-1.3 0 0 .1 0 .1 0v.3c0 0-.1 0-.1 0-.4.1-.9.4-1.1 1.1m9.3.7l-.3-.1c.1-.3.1-.6.2-.9 0-.3.1-.6.1-1h.3c0 .3-.1.7-.1 1 0 .4-.1.7-.2 1m-46.8-6.9l-.1-.3c.6-.2 1.2-.4 1.9-.4v.3c-.6.1-1.2.2-1.8.4m5.4.6c-.6-.3-1.2-.5-1.7-.7l.1-.3c.6.2 1.2.4 1.8.7l-.2.3m2 .1l-.2-.3c.2-.1.3-.3.4-.6.1-.4.2-.7.4-1.1l.3.1c-.1.3-.2.7-.3 1-.2.4-.4.7-.6.9m33.2 4.5l-.2-.3c.1 0 .1-.1.2-.1.1-.1.2-.3.2-.5 0-.2 0-.5 0-.7 0-.1 0-.1 0-.2l.3-.1c0 .1 0 .1 0 .2.1.3.1.6.1.9 0 .3-.1.5-.3.7-.2 0-.3.1-.3.1m-21-3.3l-.3-.2c.3-.5.5-1 .5-1.5 0-.1 0-.2 0-.2h.3c0 .1 0 .2 0 .3 0 .6-.2 1.1-.5 1.6m15.3 2.1l-.3-.1c.3-.5.6-1 1.1-1.4.1 0 .1-.1.2-.1l.2.3c-.1 0-.1.1-.2.1-.4.3-.7.7-1 1.2m-20.6-3.7c-.1-.6-.5-1.1-1-1.4l.2-.3c.6.3 1 .9 1.2 1.6l-.4.1m30.9 4.4c.1-.6.1-1.2.1-1.9h.3c0 .6 0 1.3-.1 1.9h-.3m-35.2-5.3l-.3-.2c.4-.4 1.1-.8 1.8-.9v.3c-.6.1-1.2.4-1.5.8m46.8 6.8c-.1-.6-.2-1.3-.3-1.9h.3c.1.6.2 1.3.3 1.9h-.3m-19-4.3v-.3c.4-.1.7-.1 1.1 0 .2 0 .5.1.9.2l-.1.3c-.3-.1-.6-.2-.8-.2-.5-.1-.8-.1-1.1 0m9.1 1.2c0-.8-.1-1.5-.1-1.9h.3c0 .4.1 1.1.1 1.9h-.3m-37.8-5.8l-.3-.2c.4-.6.8-1.1 1.3-1.5l.2.2c-.5.5-.9.9-1.2 1.5m10.4.9c-.2-.6-.5-1.1-.9-1.6l.2-.2c.4.5.8 1.1 1 1.7l-.3.1m25.7 2.7c0-.6-.1-1.2-.1-1.9h.3c0 .7.1 1.3.1 1.9h-.3m11.1 1.5c-.1-.6-.2-1.3-.3-1.9h.3c.1.6.2 1.3.3 1.9h-.3m-44.4-7.5l-.1-.3c.6-.2 1.2-.4 1.9-.4v.3c-.7.1-1.3.2-1.8.4m5.3.6c-.5-.3-1.1-.6-1.7-.7l.1-.3c.6.2 1.2.4 1.8.8l-.2.2m29.3 3.8c-.1-.6-.1-1.2-.2-1.9h.3c.1.7.1 1.3.2 1.9h-.3m-1.6-2.2c-.1-.6-.1-1.3-.2-1.9h.3c.1.6.1 1.3.2 1.9h-.3m10.8 1.6c-.1-.6-.2-1.3-.3-1.9l.3-.1c.1.6.2 1.2.3 1.9l-.3.1m-9.6-3.2c-.1-.6-.1-1.3-.2-1.9h.3c0 .6.1 1.3.2 1.9h-.3m8.9-.6c-.1-.6-.2-1.3-.4-1.9l.3-.1c.1.6.3 1.2.4 1.9l-.3.1m-10.5-1.5c-.1-.6-.2-1.3-.3-1.9h.3c.1.6.2 1.3.3 1.9h-.3m1.3-1.7c0-.6-.1-1.3-.1-1.9h.3c0 .6.1 1.3.1 1.9h-.3m8.4-.5c-.1-.6-.3-1.2-.4-1.9l.3-.1c.1.6.3 1.2.4 1.9l-.3.1m-10.3-1.6c-.1-.6-.2-1.3-.3-1.9l.3-.1c.1.6.2 1.3.3 1.9l-.3.1m1.7-1.7c0-.6 0-1.3-.1-1.9h.3c0 .6 0 1.3.1 1.9h-.3m7.8-.4c-.2-.6-.3-1.2-.5-1.8l.3-.1c.2.6.3 1.2.5 1.8l-.3.1m-10.2-1.7c-.1-.6-.2-1.3-.4-1.9l.3-.1c.1.6.2 1.2.4 1.9l-.3.1m2.3-1.8c0-.6 0-1.3 0-1.9h.3c0 .6 0 1.3 0 1.9h-.3m6.9-.2c-.2-.6-.4-1.2-.6-1.8l.3-.1c.2.6.4 1.2.6 1.8l-.3.1m-9.9-1.7c-.1-.6-.3-1.3-.4-1.9l.3-.1c.1.6.3 1.2.4 1.9l-.3.1m3.1-1.9c0-.6 0-1.3.1-1.9h.3c0 .6-.1 1.3-.1 1.9h-.3m5.6 0c-.2-.6-.4-1.2-.6-1.8l.3-.1c.2.6.4 1.2.6 1.8l-.3.1m-9.5-1.8c-.1-.7-.3-1.3-.4-1.9l.3-.1c.1.6.3 1.2.4 1.9l-.3.1m4.1-2c0-.6.1-1.3.2-1.9h.3c-.1.6-.1 1.3-.2 1.9h-.3m4.1.2c-.2-.6-.5-1.2-.7-1.8l.3-.1c.3.6.5 1.2.7 1.8l-.3.1m-9.1-2c-.2-.6-.4-1.2-.6-1.8l.3-.1c.2.6.4 1.2.6 1.8l-.3.1m-8.2-1.3c-.5-.4-.9-1-1.1-1.6l.3-.1c.1.6.5 1.1 1 1.5l-.2.2m15.7-.1c-.2-.3-.7-.5-1.1-.4-.2 0-.3.1-.4.2l-.2-.3c.2-.1.4-.2.6-.2.5-.1 1 .1 1.4.5l-.3.2m-8.9-2c-.3-.6-.7-1.1-1.1-1.5l.2-.2c.4.4.8 1 1.1 1.6l-.2.1m-7.4-1.4l-.3-.1c.2-.4.6-.8 1-1.1 0 0 .1-.1.1-.1.1-.1.2-.1.3-.2l.1.3c-.1 0-.2.1-.3.2 0 0-.1 0-.1.1-.3.2-.6.5-.8.9m4.8-1.3c-.6-.3-1.2-.4-1.8-.4v-.3c.7 0 1.3.1 1.9.4l-.1.3"/><path d="m79.2 130c-.2 0-.4-.1-.5-.1l.1-.3c.6.1 1.2.2 1.8.1v.3c-.5.1-.9.1-1.4 0m-2.3-.9c-.5-.4-1-.8-1.4-1.3l.3-.2c.4.5.8.9 1.3 1.3l-.2.2m5.5.5l-.1-.3c.2-.1.4-.2.6-.3.3-.2.7-.4 1-.6l.2.3c-.3.2-.7.5-1 .6-.2.1-.5.2-.7.3m-1.3-2.3c-.4-.1-.9-.2-1.3-.5l.2-.3c.5.3 1.1.5 1.7.5v.3c-.2 0-.4 0-.6 0m-6.5-1.2v-.1c-.2-.6-.4-1.2-.4-1.7h.3c.1.6.2 1.1.4 1.7v.1h-.3m10.8 1.2l-.3-.2c.3-.4.5-.9.6-1.3 0-.1 0-.1 0-.2 0 0 0-.1 0-.1h.3c0 0 0 .1 0 .1 0 .1 0 .2 0 .2 0 .6-.2 1.1-.6 1.5m-2-.9l-.3-.1c0 0 0-.1 0-.1 0-.1.1-.2.1-.2 0-.2 0-.5-.1-.7-.1-.2-.2-.5-.2-.7l.3-.1c0 .2.1.4.2.6.1.3.2.6.1.8 0 .1 0 .2-.1.3.1.1 0 .2 0 .2m-4.9-1c-.2-.3-.3-.7-.4-1.1-.1-.2-.1-.5-.1-.8h.3c0 .2.1.5.1.7.1.4.2.7.4 1l-.3.2m-4-3l-.3-.1c.1-.7.4-1.2.7-1.8l.3.2c-.3.6-.5 1.1-.7 1.7m10.9 1.5c-.3-.4-.7-.6-.9-.6-.2 0-.4 0-.5 0l-.1-.3c.2-.1.4-.1.7 0 .3 0 .8.2 1.1.7l-.3.2m-6.8-2.1l-.3-.1c.2-.6.6-1.1 1.1-1.6l.2.2c-.5.4-.8.9-1 1.5m-3.2-2.7c-.1-.3-.3-.5-.6-.6-.3-.1-.6-.2-.8-.3l.1-.3c.3.1.5.2.8.3.4.1.6.4.8.7l-.3.2m5.6.1l-.1-.3c.6-.3 1.2-.5 1.8-.6l.1.3c-.6.2-1.2.4-1.8.6m-8.8-1.8c-.6-.3-1.1-.5-1.7-.8l.1-.3c.6.3 1.1.6 1.7.8l-.1.3m14.1 1.7c-.6-.2-1.1-.4-1.8-.5v-.3c.6.1 1.3.2 1.8.5v.3m-17.4-3.4c-.5-.3-1.1-.6-1.6-1l.2-.3c.5.3 1.1.7 1.6 1l-.2.3m-3.2-2c-.5-.4-1-.7-1.5-1.1l.2-.3c.5.4 1 .7 1.5 1.1l-.2.3m-3-2.3c-.5-.4-1-.8-1.4-1.2l.2-.2c.5.4.9.8 1.4 1.2l-.2.2m-2.8-2.4c-.4-.4-.9-.9-1.3-1.3l.2-.2c.4.4.9.9 1.3 1.3l-.2.2m-2.6-2.7c-.1-.1-.3-.3-.4-.4-.3-.3-.6-.7-.9-1l.2-.2c.3.3.6.6.9 1 .1.1.3.3.4.4l-.2.2m-2.4-2.9c-.4-.5-.8-1-1.1-1.5l.3-.2c.4.5.7 1 1.1 1.5l-.3.2m-2.3-3c-.4-.5-.7-1.1-1-1.6l.3-.2c.3.5.6 1 1 1.6l-.3.2"/><path d="m88.6 120.8c-.2-.3-.4-.5-.7-.7l.2-.2c.2.2.4.4.6.6.3 0 .6-.1.9-.1v.3c-.3.1-.6.1-1 .1"/><path d="m91.5 120.4l-.1-.3c.6-.1 1.2-.2 1.9-.4l.1.3c-.6.2-1.2.3-1.9.4m3.8-.8l-.1-.3c.6-.2 1.2-.4 1.8-.6l.1.3c-.6.2-1.2.4-1.8.6m3.6-1.3l-.1-.3c.6-.2 1.2-.5 1.8-.7l.1.3c-.6.2-1.2.5-1.8.7m3.6-1.5l-.1-.3c.6-.3 1.1-.6 1.7-.9l.2.3c-.7.3-1.3.6-1.8.9m3.3-1.9l-.2-.3c.5-.3 1.1-.7 1.6-1l.2.3c-.5.4-1 .7-1.6 1m3.3-2.1l-.2-.3c.5-.4 1-.7 1.5-1.1l.2.3c-.5.4-1 .8-1.5 1.1m3-2.3l-.2-.2c.5-.4 1-.8 1.5-1.2l.2.2c-.5.4-1 .8-1.5 1.2m8.6.2l-.3-.2c.3-.6.6-1.1.9-1.7l.3.1c-.3.6-.6 1.2-.9 1.8m-5.7-2.7l-.2-.2c.5-.4.9-.9 1.4-1.3l.2.2c-.4.4-.9.8-1.4 1.3m7.3-.8l-.3-.1c.2-.6.4-1.2.6-1.8l.3.1c-.1.5-.3 1.2-.6 1.8m-4.6-1.9l-.2-.2c.4-.5.9-.9 1.3-1.4l.2.2c-.4.4-.8.9-1.3 1.4m5.3-1.9c.1-.4.1-.9.1-1.3 0-.2 0-.3-.1-.5l.3-.1c.1.2.1.4.1.6 0 .4 0 .9-.1 1.3h-.3m-2.7-1l-.2-.2c.3-.3.5-.7.8-1 .2-.2.3-.3.6-.4l.1.3c-.2.1-.3.2-.4.3-.4.3-.6.7-.9 1"/><path d="m118.7 113.4l.3-.4c.2-.3.3-.5.5-.8l.3.2c-.1.1-.2.3-.3.4.1-.1.3-.1.5-.2l.1.3c-.3.1-.6.2-.9.3l-.5.2"/><path d="m121.7 112.4l-.1-.3c.6-.2 1.2-.3 1.7-.5l.1.3c-.6.2-1.1.3-1.7.5m3.5-.8l-.1-.3c.6-.1 1.2-.2 1.8-.3v.3c-.6 0-1.2.1-1.7.3m3.5-.6v-.3h.3c.5-.1 1-.1 1.4-.1v.3c-.5 0-1 .1-1.4.1h-.3m3.5-.3v-.3c.6 0 1.2 0 1.8 0v.3c-.6 0-1.2 0-1.8 0m3.6.2v-.3c.5 0 1.1.1 1.6.2h.2v.3h-.2c-.6-.1-1.1-.2-1.6-.2"/><path d="m140.4 111.7l-.3-.1c-.3-.1-.6-.2-.9-.2l.1-.3c.2.1.5.1.7.2-.1-.2-.1-.4-.2-.7l.3-.1c.1.3.1.6.2.9l.1.3"/><path d="m189.9 127.8c-.2 0-.5-.1-.7-.1-.3-.1-.6-.2-.9-.4l.2-.3c.2.1.5.2.8.3.3.1.6.1 1 .2v.3c-.2 0-.3 0-.4 0m2.2.1v-.3c.6-.1 1.2-.2 1.8-.4l.1.3c-.6.1-1.2.3-1.9.4m-5.2-2c-.4-.8-.3-1.6-.3-1.9h.3c0 .4-.1 1.1.3 1.8l-.3.1m8.8.5l-.2-.2c.5-.4.9-.9 1.2-1.4l.3.2c-.4.5-.8 1-1.3 1.4m-5.1-.8c-.3 0-.6-.1-.8-.3l.2-.3c.5.3 1.1.3 1.7.1l.1.3c-.4.3-.8.3-1.2.2m2.9-1.1l-.2-.2c.3-.3.5-.7.6-1 .1-.2.1-.4.1-.6l.3.1c0 .2-.1.4-.2.6-.1.3-.3.7-.6 1.1m-4.8-.7c0-.2-.1-.4-.1-.6 0-.1 0-.2 0-.2.1-.4.3-.8.6-1l.2.3c-.3.2-.4.5-.5.8 0 .1 0 .1 0 .2 0 .2 0 .4.1.6l-.3-.1m-18.9-3.5c-.5-.1-1.1-.2-1.6-.3l.1-.3c.6.1 1.2.2 1.9.3v.3c-.2 0-.3 0-.4 0m2.2.2v-.3c.6 0 1.3.1 1.9.1v.3c-.6 0-1.3 0-1.9-.1m-5.6-.9c-.6-.2-1.2-.3-1.8-.5l.1-.3c.6.2 1.2.4 1.8.5l-.1.3m21.3 2.7l-.3-.2c.5-.6 1-1 1.7-1.1l.1.3c-.6.2-1.1.5-1.5 1m-11.9-1.8v-.3c.6 0 1.3-.1 1.9-.2v.3c-.6.1-1.2.2-1.9.2m-13.1-2.1c-.6-.2-1.2-.5-1.8-.7l.1-.3c.6.3 1.2.5 1.7.7v.3m35 4.7l-.3-.1v-.1c0-.2.1-.3.1-.5.1-.4.1-.8 0-1.3h.3c0 .4 0 .9 0 1.3 0 .3 0 .5-.1.7m-18.1-3.1l-.1-.3c.6-.1 1.2-.3 1.8-.4l.1.3c-.5.1-1.2.3-1.8.4m-20.4-3.2c-.6-.3-1.1-.6-1.7-.9l.2-.3c.6.3 1.1.6 1.7.9l-.2.3m34.8 4c-.1-.6-.3-1.2-.7-1.7l.3-.2c.4.6.6 1.2.7 1.8l-.3.1m-10.7-1.8l-.1-.3c.6-.2 1.2-.4 1.8-.7l.1.3c-.6.3-1.2.5-1.8.7m-27.4-4c-.5-.3-1.1-.7-1.6-1l.2-.3c.5.4 1.1.7 1.6 1l-.2.3m41.2 4.4c-.2-.6-.6-1.1-1-1.5l.2-.2c.5.5.8 1 1.1 1.6l-.3.1m-44.4-6.6c-.3-.2-.7-.5-1-.7-.2-.1-.4-.3-.5-.4l.2-.2c.2.1.4.3.5.4.3.2.6.5 1 .7l-.2.2m34.2 4.8l-.1-.3c.1-.1.3-.1.4-.2.4-.2.9-.4 1.4-.5l.1.3c-.5.1-.9.2-1.3.5-.3 0-.4.1-.5.2m5.2.2c-.5-.4-1.1-.6-1.7-.8l.1-.3c.6.2 1.2.4 1.8.8l-.2.3m-42.4-7.3c-.5-.4-1-.8-1.4-1.3l.2-.2c.5.4 1 .8 1.4 1.2l-.2.3m44.9 6.3c-.4-.2-.9-.5-1.5-.6-.1 0-.2-.1-.3-.1l.2-.3c.1 0 .1.1.2.1.5.2 1.1.4 1.5.7l-.1.2m-55.1-8.1c-.1-.6-.2-1.3-.2-1.9h.3c.1.6.1 1.2.2 1.9h-.3m7.4-.8c-.5-.4-.9-.9-1.4-1.3l.2-.2c.4.5.9.9 1.3 1.3l-.1.2m45.7 6.4l-.3-.1c.1-.2.3-.5.6-.6.3-.2.7-.4 1-.6l.2.3c-.3.2-.7.4-1 .6-.2.1-.4.2-.5.4m-53.4-9.4c0-.7 0-1.3 0-1.9h.3c0 .6-.1 1.2 0 1.9h-.3m5 .3c-.4-.5-.9-1-1.3-1.4l.2-.2c.4.5.8.9 1.3 1.4l-.2.2m51.5 7.1l-.2-.3c.5-.3 1.1-.7 1.6-1.1l.2.3c-.5.4-1.1.7-1.6 1.1m-53.9-10c-.1-.1-.2-.2-.2-.3-.3-.4-.8-.5-1.2-.4l-.1-.3c.6-.2 1.2 0 1.5.5.1.1.1.2.2.3l-.2.2m57 7.8l-.2-.3c.5-.4 1-.8 1.5-1.2l.2.2c-.5.5-1 .9-1.5 1.3m2.9-2.5l-.2-.2c.5-.4.9-.9 1.4-1.3l.2.2c-.4.4-.9.9-1.4 1.3m2.7-2.7l-.2-.2c.4-.5.8-1 1.2-1.5l.2.2c-.4.5-.8 1-1.2 1.5m2.3-3l-.3-.2c.4-.5.7-1 1-1.6l.3.2c-.2.5-.6 1.1-1 1.6m2.1-3.3l-.3-.2c.3-.5.6-1.1.9-1.7l.3.1c-.3.7-.6 1.3-.9 1.8m1.7-3.4l-.3-.1c.3-.6.5-1.1.8-1.7l.3.1c-.3.6-.5 1.2-.8 1.7m1.5-3.5l-.3-.1c.2-.6.4-1.2.7-1.8l.3.1c-.2.7-.5 1.3-.7 1.8"/><path d="m82.7 115.8c-.5-.1-1-.2-1.4-.3l.1-.3c.6.1 1.2.2 1.9.3v.3c-.3 0-.5 0-.6 0m2.3.2v-.3c.2 0 .5 0 .7 0 .4 0 .8 0 1.2 0v.3c-.4 0-.8 0-1.2 0-.2 0-.4 0-.7 0m-5.6-.9c-.6-.2-1.2-.4-1.8-.6l.1-.3c.6.2 1.2.4 1.8.6l-.1.3m9.5.8v-.3c.6-.1 1.2-.2 1.9-.3l.1.3c-.8.1-1.4.2-2 .3m-13.1-2.2c-.6-.3-1.1-.6-1.7-.9l.2-.3c.6.3 1.1.6 1.7.9l-.2.3m16.8 1.5l-.1-.3c.6-.1 1.2-.3 1.8-.5l.1.3c-.6.2-1.2.4-1.8.5m-20.1-3.4c-.5-.3-1.1-.7-1.6-1.1l.2-.3c.5.4 1 .8 1.5 1.1l-.1.3m23.8 2.4l-.1-.3c.6-.2 1.2-.4 1.8-.6l.1.3c-.6.2-1.2.4-1.8.6m-26.9-4.7c-.5-.4-.9-.9-1.4-1.3l.2-.2c.4.4.9.9 1.4 1.3l-.2.2m30.5 3.3l-.1-.3c.6-.2 1.2-.5 1.7-.8l.1.3c-.6.3-1.2.6-1.7.8m-33.2-6c-.2-.2-.4-.4-.6-.6-.2-.3-.5-.5-.7-.8l.2-.2c.2.3.4.5.7.8.2.2.4.4.6.6l-.2.2m36.6 4.4l-.1-.3c.6-.3 1.1-.6 1.7-.9l.2.3c-.7.3-1.2.6-1.8.9m-39-7.4c-.4-.5-.7-1.1-1.1-1.6l.3-.2c.3.5.7 1.1 1.1 1.6l-.3.2m42.4 5.6l-.2-.3c.5-.3 1.1-.6 1.6-1l.2.3c-.5.3-1.1.6-1.6 1m-44.4-8.8c-.4-.7-.7-1.3-.9-1.7l.3-.1c.2.4.5 1 .9 1.7l-.3.1m47.6 6.8l-.2-.3c.5-.3 1.1-.7 1.6-1.1l.2.3c-.5.4-1.1.7-1.6 1.1m3.1-2.2l-.2-.3c.5-.4 1-.7 1.5-1.1l.2.3c-.4.4-.9.7-1.5 1.1m-51.5-8.1l-.3-.1c.1-.3.4-.9.9-1.7l.3.2c-.5.7-.7 1.3-.9 1.6m54.6 5.8l-.2-.2c.5-.4 1-.8 1.5-1.2l.1.1.1.1c-.5.4-1 .8-1.5 1.2m-52.7-9.1l-.3-.2c.3-.5.7-1.1 1-1.6l.3.2c-.4.5-.7 1-1 1.6m55.5 6.5l-.3-.2c.4-.5.7-1.1.8-1.6l.3.1c0 .5-.3 1.1-.8 1.7m-53.4-9.6l-.3-.2c.4-.5.8-1 1.2-1.5l.2.2c-.3.5-.7 1-1.1 1.5m53.8 6c-.2-.5-.6-1-1.2-1.3l.2-.3c.6.4 1 .9 1.3 1.5l-.3.1m-51.3-8.9l-.2-.2c.4-.5.9-.9 1.3-1.4l.2.2c-.5.5-.9.9-1.3 1.4m48.4 6.8c-.5-.2-1.1-.4-1.8-.7l.1-.3c.6.3 1.2.5 1.8.7l-.1.3m-3.5-1.6c-.5-.3-1.1-.6-1.7-.9l.2-.3c.6.3 1.2.6 1.7.9l-.2.3m-3.3-1.8c-.6-.3-1.1-.6-1.6-1l.2-.3c.5.3 1.1.6 1.6 1l-.2.3m-38.9-6l-.2-.2c.5-.4 1-.8 1.5-1.2l.2.3c-.5.3-1 .7-1.5 1.1m35.6 4.1l-1.6-1 .2-.3 1.6 1-.2.3m-3.3-2c-.6-.3-1.1-.7-1.6-1l.2-.3c.5.3 1.1.7 1.6 1l-.2.3m-29.3-4.4l-.2-.3c.5-.3 1.1-.7 1.6-1l.2.3c-.5.4-1 .7-1.6 1m26.1 2.4c-.4-.3-.8-.5-1.2-.8l-.4-.2.2-.3.4.2c.4.3.8.5 1.2.8l-.2.3m-22.7-4.2l-.1-.3c.6-.3 1.2-.5 1.8-.7l.1.3c-.7.2-1.3.5-1.8.7m19.5 2.2c-.5-.3-1.1-.7-1.6-1l.2-.3c.5.3 1.1.7 1.6 1l-.2.3m-16-3.5l-.1-.3c.6-.2 1.2-.3 1.9-.4l.1.3c-.7.1-1.3.3-1.9.4m12.7 1.5c-.6-.3-1.2-.6-1.7-.9l.1-.3c.5.3 1.1.5 1.7.9l-.1.3m-9-2.2v-.3c.4 0 .8-.1 1.3-.1.2 0 .4 0 .6 0v.3c-.2 0-.4 0-.6 0-.4.1-.9.1-1.3.1m5.6.7c-.6-.2-1.2-.4-1.8-.5l.1-.3c.6.1 1.2.3 1.9.5l-.2.3"/><path d="m171.5 114.8c-.2 0-.5-.1-.7-.1l.1-.3c.2 0 .5.1.7.1.4.1.8.1 1.2.1v.3c-.5 0-.9 0-1.3-.1m-2.6-.5c-.6-.2-1.2-.3-1.8-.5l.1-.3c.6.2 1.2.4 1.8.5l-.1.3m5.7.8v-.3c.6 0 1.3 0 1.9 0v.3c-.6 0-1.3 0-1.9 0m-9.3-2c-.6-.2-1.2-.5-1.7-.8l.1-.3c.6.3 1.2.5 1.7.8l-.1.3m13.1 1.9v-.3c.6-.1 1.2-.1 1.9-.2v.3c-.6 0-1.3.1-1.9.2m-16.5-3.5c-.5-.3-1-.6-1.6-1l.2-.3c.6.4 1.1.7 1.6.9l-.2.4m20.3 2.9l-.1-.3c.6-.1 1.2-.3 1.8-.5l.1.3c-.5.2-1.2.3-1.8.5m-23.6-4.9c-.5-.3-1.1-.7-1.6-.9l.1-.3c.5.3 1.1.6 1.7.9l-.2.3m27.3 3.8l-.1-.3c.6-.2 1.2-.5 1.7-.7l.1.3c-.6.2-1.1.4-1.7.7m-30.7-5.2c-.7-.1-1.3-.3-1.8-.6l.1-.3c.5.3 1.1.5 1.8.6l-.1.3m-3.5-1.7c-.5-.5-.9-1-1.2-1.5l.3-.1c.3.5.6 1 1.1 1.5l-.2.1m37.6 5.3l-.1-.3c.6-.3 1.1-.6 1.6-.9l.2.3c-.5.3-1.1.6-1.7.9m3.3-2l-.2-.3c.5-.4 1-.7 1.5-1.1l.2.2c-.5.5-1 .8-1.5 1.2m-42.5-6.7c0-.3 0-.7 0-1 0-.3.1-.6.2-.9l.3.1c-.1.3-.2.6-.2.9 0 .3-.1.6 0 .9h-.3m45.5 4.3l-.2-.2c.5-.4.9-.9 1.4-1.3l.2.2c-.5.5-.9.9-1.4 1.3m-44-7.7l-.2-.2c.4-.5.9-.9 1.5-1.3l.2.3c-.7.3-1.1.7-1.5 1.2m46.7 5l-.2-.2c.4-.5.8-1 1.2-1.5l.3.2c-.5.5-.9 1-1.3 1.5m-43.7-7.1l-.2-.3c.5-.3 1.1-.6 1.6-1l.2.3c-.5.3-1.1.7-1.6 1m46 4.1l-.3-.2c.3-.5.7-1.1 1-1.6l.3.2c-.3.5-.7 1.1-1 1.6m-42.8-6.3l-.2-.3c.5-.4 1-.7 1.5-1.2l.2.2c-.6.6-1.1 1-1.5 1.3m2.9-2.4l-.2-.2c.5-.4.9-.8 1.4-1.2l.2.2c-.4.4-.9.8-1.4 1.2m41.8 5.4l-.3-.1c.3-.6.5-1.1.8-1.7l.3.1c-.3.5-.5 1.1-.8 1.7m-38.9-7.9l-.2-.2c.5-.4.9-.8 1.4-1.3l.2.2c-.5.5-1 .9-1.4 1.3m40.4 4.4l-.3-.1c.2-.6.4-1.2.5-1.8l.3.1c-.2.5-.3 1.2-.5 1.8m-37.6-6.9l-.2-.2c.5-.4 1-.8 1.5-1.2l.2.2c-.5.4-1 .8-1.5 1.2m37.9 3.2c-.1-.2-.3-.4-.6-.5-.3-.1-.6-.3-.9-.4l.1-.3c.3.1.6.3.9.4.3.1.6.4.7.7l-.2.1m-34.9-5.6l-.2-.3c.5-.4 1-.8 1.5-1.1l.2.3c-.5.4-1 .7-1.5 1.1m31.8 3.8c-.5-.3-1.1-.6-1.6-1l.2-.3c.6.4 1.1.7 1.6 1l-.2.3m-3.3-2c-.5-.4-1-.7-1.6-1.1l.2-.3c.5.4 1 .7 1.6 1.1l-.2.3m-25.4-3.9l-.2-.3c.6-.3 1.1-.7 1.7-1l.1.3c-.5.3-1.1.6-1.6 1m22.3 1.7c-.5-.4-1-.7-1.5-1.1l.2-.3c.5.4 1 .7 1.5 1.1l-.2.3m-19-3.5l-.1-.3c.6-.3 1.2-.5 1.8-.7l.1.3c-.6.2-1.2.4-1.8.7m15.9 1.3c-.6-.4-1.1-.7-1.6-1l.2-.3c.5.3 1 .6 1.6 1l-.2.3m-12.3-2.6l-.1-.3c.6-.2 1.3-.3 1.9-.4v.3c-.6.1-1.2.3-1.8.4m9.1.7c-.6-.3-1.2-.5-1.7-.7l.1-.3c.6.2 1.1.4 1.8.7l-.2.3m-5.4-1.2v-.3c.2 0 .3 0 .5 0 .5 0 1 0 1.4.1v.3c-.5-.1-.9-.1-1.4-.1-.2-.1-.4-.1-.5 0"/></g><path opacity=".2" fill="#3a332c" d="m85.3 132.6s.4 5.8 6.4 7.6c8.6 23.7 7.4 35.5 7.4 35.5l23.9 9.6 3.1.2 15.1 8.2 39.6-32.2-2-20.9 3.5-5.6c0 0 7-2.2 5.9-7.5-10.7 3.9-102.9 5.1-102.9 5.1"/><path fill="#382f2b" d="m96.6 127.4c32.2-.1 49.9-2.1 86.2-8.2 7.4-.3 10.2 9.8 1.6 12.7-3.2 14.4-.3 39.3-.3 39.3s-18 9.7-39.4 21.4c-19-9.5-42.2-18-42.2-18s1.4-9.6-8.4-36.9c-8.7-1-12.4-11.6 2.5-10.3"/><path fill="#e2e1d5" d="m98.5 135.1c27.2-1.8 50.4-6.4 64.7-10.3 11.8-10.2 24.3 4.8 13.8 17.6 0 5.5 0 25.5.9 25.3.9-.2-13.8 7.7-32.8 19-16.7-11.7-35.6-15.8-35.6-15.8s-5-20.5-11-35.8"/><path fill="#382f2b" d="m131.8 164.4c-.4.2 2.1 2.7 1.7 3-.1.1-.2.1-.3.2-8.6 11.2 3.8 21.9 9.7 20.7 1.7-.8-6.2-20.2-6.2-20.2s-4.4-4-4.9-3.7"/><path fill="#e2e1d5" d="m132.5 158.2c.7-.4 20.9.6 35.6-11.9 3 4.7 3.2 20.6-7.9 34.1-18.5 19-33.7-4.6-23.6-12.3-.8-5.8-4.1-9.9-4.1-9.9"/><path fill="#fff" d="m168.7 152c-4.1 8.3-22.5 11-30.6 10.8-3.2-5.9-7.3-12.3-13.1-15.1 16.3 1.4 29.9-3.2 45.4-12.6 2.2 4.9.9 11.8-1.7 16.9"/><g fill="#382f2b"><path opacity=".1" d="m139.2 155.5c4.8.5 10 .2 16.9-3-.6-1.9.5-4.1 2.3-4.8s4.1.2 4.9 2c1.9-1.5 3.9-3 5.8-4.4-.2.1-.5.3-.7.4-1.3 3.1-3.7 5.4-6.9 6.5.4-.9-.5-2-1.4-2-1 0-1.8.7-2.2 1.6-.3.9-.4 1-.2 1.9-4.7 1.7-12.2 3.9-18.5 1.8"/><path opacity=".1" d="m131.8 164.4s6.3.7 7.9 4.2c-4 3.3-9.3 15.1 8 17.3-21.9 3.2-18.1-14.5-13.1-17.3-.7-3-2.8-4.2-2.8-4.2"/></g><path opacity=".5" fill="#fff" d="m163.2 124.9c4.6-4.1 9.2-3.9 12.3-2.3 3.5 1.9 5.4 6.1 5.5 9.5-.9-3.6-2.9-6.2-5.5-7.7-3.3-2.1-7.5-1.8-12.3.5"/><g fill="#382f2b"><path opacity=".1" d="m104.2 124.5c1 7.1 7.9 7.5 7.9 7.5s12.4 15 33.1-.8c5.4-.8 7.6-4.8 7.6-4.8s-49.6-9-48.6-1.9"/><path d="m113.3 115.4c15.1-9.1 28.3-4.3 30.6-2.2 14.2-2.4 15.7 16.3 1.5 16.3-19.5 12.4-31.3 1.7-32.5.2-12 1.3-11.8-14.8.4-14.3"/></g><path fill="#e2e1d5" d="m114.1 118.8c11.8-7.6 27.8-3.2 29.2-2.3 13.5-1.8 8.7 12 1 9-4.2 4.6-12.1 6.6-17.1 6.3-8.2-.5-11.4-3.4-13.1-5.7-7.4 2.4-9.3-9.3 0-7.3"/><path fill="#382f2b" d="m174.3 180s-10.1-2.3-15.1 6c-69 23.6-42.8 43.8-42.8 43.8s-5.4 10.4 2.8 19.8c-4.3 26.4 25.7 27.1 25.7 27.1s61.4 8.5 88.1-31.4c.8-10 12.3-28-14.4-80.8-14.1-7.4-18.1 11-18.1 11l3.6 34c0 0-2.6-1.7-6.1-5.7-2.1-17.5-23.7-23.8-23.7-23.8"/><path fill="#e2e1d5" d="m203.9 178c2-1 4.8 39.7 4.8 39.7s-13.5-9.2-13.3-10.7c.2-1.5-1.8-12.7-16.9-20.9-3.5-3-13.2-7.4-15.4 3.5-12.1 1.6-40.5 20.2-40.5 20.2s-12.1 12.8 3 18c-10.8 13.6-1 20.8-1 20.8s-5.2 11.1 5.9 19c23.5 14 94.8 3.2 104.3-34.9 2.4-10.1 4.4-36.2-20.6-64.4-6.9-5.3-10.3 9.7-10.3 9.7"/><path opacity=".5" fill="#fff" d="m154.5 212.7c4.8-2-5.1 9.8-4.6 13.9.5 4.1 1.9 10.8 1 13.8-6.9 12.1-6.9 21.4-6.9 21.4l-1.3-9.7 3.9-12.4 1.8-4.5-.6-9.8c0 .2 2.9-8.5 6.7-12.7"/><g fill="#382f2b"><path d="m154.5 212.7c-7.5 7-8.3 15.4-8.3 15.4l.4 9c0 0-7.8 12.7-6.4 19.5.8 2.2.6 3.6 3.7 5.2 1.2.6-1.3-4.6-.4-8.7 1.3-6.3 5.7-13 5.5-15.9-.2-4.8-.2-3.1-.5-9.6-.2-6.4 8.3-15.7 6-14.9"/><path d="m163.7 187s5.5-.2 12.7 4.8c-8.5-2.8-15.1-2.2-15.1-2.2l2.4-2.6"/></g><circle fill="#e2e1d5" cx="235.3" cy="235.6" r="6.2"/><path fill="#382f2b" d="m81.8 182.2c-5.7 2.5-9.3 5.9-9.3 5.9s6.5-.3 11.6.6c2.4.4 6.2 1.8 7.3 5.4 4-1 6.2-.9 8 0 7.3 3.5 14.8 8.3 18 13.7 8.6 15.2-3 25.9-3 25.9s.8 8.7-9.8 18c-.7 3.7 5 24.3-35.9 26-8.8.2-55.4-9.2-52.1-63.8 9-27 46.6-37.2 46.6-37.2s20.6-8.7 18.6 5.5"/><path fill="#e2e1d5" d="m63.8 180c-40.5 16.1-42.5 34-43.2 38.8-1.2 43.5 41.4 54.5 49 54.7 15.3-.8 23.9-6.2 26.8-9.4 2.9-3.2 1.9-13.3 1.9-13.3s12.6-8.4 10.6-17.9c6.3-4.8 7.1-10.5 7.1-10.5s2.1-7.7-5.4-15.2c-8.2-6.9-14.3-10.2-19.7-12.1-3.6-2.6-5.6-2.8-10.7-2.7-5.3-.2-17.5 1.8-17.5 1.8s7.1-10.4 16.3-13.2c-2.5-2.7-7.7-4.9-15.2-1"/><path opacity=".5" fill="#fff" d="m81.9 222.2s-10.8 2.8-9.9 13.8c.5 5.9 2.8 9.7 2.3 13-.5 3.3-5.4 10-3.1 13.7.1-3.5 7.9-14.8 7.9-14.8l-2.3-14.4 5.1-11.3"/><g fill="#382f2b"><path d="m81.9 222.2s-4.9 2.3-6 7.9c-1.1 5.6 1 9.1.5 16.3-.4 7.2-5.9 12-5.3 16.3 3.6-4.8 8.8-11.6 8.2-19.9-.8-4-1.1-12.7-1.1-12.7l3.7-7.9"/><path d="m111.4 230.7s-8.7 3-15.8 2.7c-1.1.3-1.8.6-2 1.2-.7 1.3 4.4 3.8 17.1.9.4-1.3.7-4.8.7-4.8"/><path d="m84.8 254.9c8.8-2 13.5-4.1 13.5-4.1s2 2.7 1 4.1c-9.7 4.9-14.7 1.8-14.7 1.8s-1.1-.8.2-1.8"/><path d="m57 197.3c4.7-3.7 10.2-3.8 10.2-3.8l.7-5c0 0-9.3 4.4-10.9 8.8"/></g><g fill="#fff"><path d="m174.2 156.5s27.6-2.4 36.6-6.3c2.1 3.8 5.1 9 5.1 9s10 2.7 16.7 7.1l.1 3.6c-11.7-7.7-22.6 4-33.5 11.1-9.4 5.8-17.3 6.9-17.3 6.9s-3.4-3.3-6.9-4.9c-2.1-1-5.1-.6-4.9-.6.7 0 5.2-3 5.2-3l-1.1-22.9"/><path d="m43.6 147.4c29.9 10.4 51.6 9.6 51.6 9.6 3.2 9.6-.5 22.5-.5 22.5l4.4 4.7c0 0-7 3.6-30.3-7.6-19.7-8.1-34.3 1.3-38.9 9.4l.7-5c1.8-5.6 10.7-11.4 10.7-11.4s2.2-17.1 2.3-22.2"/></g><path opacity=".5" fill="#3a332c" d="m177.4 156.2l.7 23.6-3.6 2.7-4.4-.2 5.2-3-1.1-22.8z"/><g fill="#c5c8c0"><path d="m93 156.9c3.1 12.4-1 23-1 23l4.5 4.9 2.6-.7-4.4-4.7c0 0 3.7-13 .5-22.5h-2.2"/><path d="m30.7 181s8-9.9 23.6-9.5c18.6 1.3 21.1 9.6 41.5 13.3-19.4-1.3-24.6-9.6-40-10.1-17.8-.2-25.8 11.3-25.8 11.3l.7-5"/><path d="m181.9 187.8s9.6-3.7 17.5-9.6c.7-.5 1.5-1.1 2.2-1.7 10.3-7.8 20.9-16.5 30.9-10.3.1 1.7.1 3.6.1 3.6s-6.7-4.4-13.9-1.4c-10.2 4.6-15.1 10.4-21.3 13.6-10.5 5.7-15.5 5.8-15.5 5.8"/><path d="m207.5 159.9c-3.6-1.8-5.3 5-1.2 4.5-.3 1.1-1.2 2.1-2.2 2.5-1.8.7-1-3.8-1-4.6 0-6.5-7.5-7.4-11.9-4.2-2.3 1.6-3.6 4.4-3.1 7.1.1.9.3 1.8.5 2.8-.3-.5-.8-.9-1.5-1-1.5-.2-2.8.7-3.7 1.7-1.9 2.3-1.6 6.9 1.3 8.2 2.3 1 5 .9 6.4-1.4 1.2-2 1-4.6.8-6.8-.2-2-1.2-4.4-.4-6.3 1.2-2.7 5.2-4.1 7.6-2.4 1.6 1.2.5 5 .8 6.7.4 2.9 3.5 4 6 2.8 1.9-.9 3-2.7 3.5-4.7.5-1.6-.3-4.1-1.9-4.9m-20 14.6c-1.2.1-2-.7-2.1-1.8-.1-.7.1-1.4.5-1.9.6 1.1 2.5 1.1 2.9-.3 0 .1 0 .1 0 .2.1 1 .2 3.6-1.3 3.8"/><path d="m75.9 159.6c-2.1-1.7-5.6-1.3-7 1.2-.6 1.2-.4 2.5.5 3.4 1.4 1.3 3.2 1.4 4.7.2.6-.5.7-1.2.5-1.8.5.5.8 1.1 1.1 1.7.9 2.2-1.2 3.1-3 3-4.6-.1-9.5-2.7-11.3-7.1-.9-2.3-2-4.5-4.6-5.2-2-.5-4.1.2-5.7 1.5-2.9 2.1-4.7 7.3-.2 8.7 1.9.6 3.2-2.3 1.3-2.9-.7-.2-1.1-.4-.8-1.1.3-1 1.1-1.7 1.9-2.3.8-.6 1.8-.9 2.8-.7 1.6.3 2.1 2.5 2.6 3.7 2.2 5.3 8.4 8.5 14 8.6 2.3 0 4.8-.7 5.9-2.9 1.4-2.9-.3-6.2-2.7-8"/></g><path fill="#e2e1d5" d="m214.8 129.4c6.1 1.3 8.1 7.2 4.9 11.8-4.8 6.9-11.8 2.2-12.5.2-1.4-4.5 1.6-10.9 7.6-12"/><g fill="#382f2b"><path d="m130.6 86.6s0-.4-.1-1.2l.7-.1c.1.8.1 1.2.1 1.2l-.7.1"/><path d="m130.3 82.8c-.1-.7-.1-1.6-.2-2.5l.7-.1c.1.9.1 1.7.2 2.5l-.7.1m-.4-4.9c-.1-.8-.1-1.6-.2-2.5h.7c.1.9.1 1.7.2 2.5h-.7m-.3-5c0-.8-.1-1.6-.1-2.5h.7c0 .8.1 1.7.1 2.5h-.7m-.3-5c0-.8-.1-1.6-.1-2.5h.7c0 .8.1 1.7.1 2.5h-.7m-.2-4.9c0-.8 0-1.7-.1-2.5h.7c0 .8 0 1.7.1 2.5h-.7m-.1-5c0-.8 0-1.7 0-2.5h.7c0 .8 0 1.7 0 2.5h-.7m.7-5h-.7c0-.8 0-1.7 0-2.5h.7c.1.8 0 1.7 0 2.5m.1-5h-.7c0-.8 0-1.7.1-2.5h.7c0 .9-.1 1.7-.1 2.5m.2-4.9h-.7c0-.8.1-1.7.2-2.5l.7.1c-.1.7-.1 1.5-.2 2.4m.4-5l-.7-.1c.1-.9.2-1.7.3-2.5l.7.1c-.2.8-.3 1.7-.3 2.5m.5-4.9l-.7-.1c.1-.8.2-1.7.4-2.5l.7.1c-.1.8-.2 1.7-.4 2.5m.8-4.9l-.7-.1c.1-.8.3-1.7.5-2.5l.7.1c-.2.9-.4 1.7-.5 2.5m1-4.9l-.7-.2c.2-.8.4-1.6.6-2.4l.7.2c-.3.8-.5 1.6-.6 2.4m1.2-4.8l-.7-.2c.2-.8.5-1.6.7-2.4l.7.2c-.2.8-.5 1.6-.7 2.4m1.5-4.7l-.7-.3c.3-.8.6-1.6 1-2.3l.7.3c-.4.8-.7 1.6-1 2.3m2-4.4l-.7-.3c.4-.8.8-1.5 1.3-2.2l.6.4c-.3.6-.8 1.3-1.2 2.1"/><path d="m140.2 5.4l-.5-.5c.6-.6 1-.9 1-.9l.4.6c-.1 0-.4.3-.9.8"/><path d="m52.7 143.7l4.5 7.1-8.7-5.7 2.8-3.8z"/><path opacity=".1" d="m154.7 98.7c10.1-7.7 20.2-19.1 28.9-17.8 7.4.5 10.5 7 19.8 10.8-12.1-2.2-11.7-9.9-22.7-8-8.7 1.4-20.6 13.8-26 15"/><path opacity=".1" d="m62.5 97.7s9.6-13.9 21.7-15.1c6.7-.7 12.5 4.7 19.5 8.6 7.9 4.5 12.7 4.4 12.7 4.4s-3.3-1.1-9.7-4.9c-5.8-3.4-14.5-9.9-20-10.7-16.3 0-24.2 17.7-24.2 17.7"/></g><path opacity=".5" fill="#fff" d="m114.1 118.8c13.8-8.5 29.2-2.3 29.2-2.3s4.8-1.1 7.5 1.6c-4.7-1.2-7.1.8-7.1.8s-11.7-6.4-29.6-.1"/><g fill="#382f2b"><path opacity=".1" d="m107.8 122.3c2 3.5 5.5 1.4 5.5 1.4l.6.8c0 0 8.8 8.2 23.2 5.5-16.4 5.7-23.1-4-23.1-4s-5.2 2.1-6.2-3.7"/><path d="m111.9 121.6s1.1-1.9 2.7-3.1c1.5-1.2 1-3.4-.9-1.4-1.9 2.4-1.8 4.5-1.8 4.5"/></g><path opacity=".5" fill="#fff" d="m208.9 133.1s1.9-3.1 5.9-3.7c7.9 2.1 6.4 8.2 6.2 8.8-7.1 1.8-12.1-5.1-12.1-5.1"/><g fill="#382f2b"><path opacity=".1" d="m207 137.6s.9 2.2 3.1 3.9c2.2 1.7 5.9 2.6 8.1 1.5-1.6 1.5-3.2 1.9-4.7 1.9-2.9 0-5.1-1.9-5.9-2.7-1.1-1.3-.6-4.6-.6-4.6"/><path d="m174.4 178.8c10.2 5.8 13.9 8.7 13.9 8.7s5.6 9.4-3 2.9c-8.6-6.5-15.3-8-15.3-8s-.8-4.8 4.4-3.6"/><path d="m76.6 198c9.1.9 10.2-2.5 9.3-4.4-.6-1.3-2.4-1.3-2.4-1.3s5.8-1 7.5 2.4c4.3-.3 6.5 1.6 7.9 4-4.6-3-10.1-1.1-11.7 1.1-.2.3.2 1.7.3 1.9.9 2.2-4.5 2.1-4.5 2.1s-11.3-.3-6.4-5.8"/><path d="m89.3 184.1c-14.7-1.9-25.2-13.9-44.7-7.8-10.9 2.9-16.3 11.6-16.3 11.6l-1.2 7.9c0 0 6.1-12.7 19.2-17.2 19.2-6 28.6 5.2 43 5.5"/><path d="m193.6 184s5.9-3.2 11.8-7.4c5.8-4.1 11.9-9 18.5-9.3 2.8-.2 5.9.9 8.8 2.6 1.9 1.7 2.7.4 2.7.4l-2.5 4.5c0 0-1.6-4.5-8.1-5.2-7.7-.1-12.8 5.5-20.1 9.2-7.2 3.7-11.1 5.2-11.1 5.2"/><path opacity=".1" d="m95.6 233.4s16.3-1.6 20.8-13.6c2.2 7.7-4.5 12-4.5 12s-2.4 14-12.8 20.2c5.6 22.9-24.4 21.1-32.3 22.6-27.6.1-43.4-32.1-43.4-32.1s22.7 25 44.3 25.4c23.6.4 27-13.3 27-13.3l-4-1.4c0 0 13.8-4.6 13.9-18.1-5.2 1.7-9-1.7-9-1.7"/></g><path opacity=".5" fill="#fff" d="m122.6 209.5c15.2-11 38.8-19.8 38.8-19.8s10.1.9 15.1 2.2c-9.9.6-12.9 5.2-15.6 10.5-1.5 2.1-3.6 4.1-6.2 5.7-15.7-5.3-37.3 10-32.1 1.4"/><path opacity=".1" fill="#382f2b" d="m168.4 182.5c6.3 1.5 7 8.6 7.5 9 .5.3-12.3-4-12.3-4s.9-4.5 4.8-5"/><path opacity=".5" fill="#fff" d="m124 229.5c11.9 0 16.6-3 16.6-3l-20.2 14.1c.1 0-1.2-5.1 3.6-11.1"/><path fill="#382f2b" d="m125.5 227.5s11.9-.9 15.2-1c-4.6 3-16.6 3-16.6 3l.2-1.3 1.2-.7"/><path opacity=".5" fill="#fff" d="m137.3 249.3c-7.2 1.5-11.8.1-12.7-.1-2.4 3.8-.6 9.7-.6 9.7s13.1-3.2 13.3-9.6"/><g fill="#382f2b"><path d="m124.5 248.2l12.8 1.1c-3.7 2.1-14 2.1-14 2.1l.4-2.4.8-.8"/><path opacity=".1" d="m231.2 242.4c-20.2 19.6-74.9 29.9-86.8 23.4-9.3 3.8-16.3-.2-16.3-.2s19.5 17.6 69.7.9c7.9-3.4 24.1-8.4 33.4-24.1"/><path opacity=".1" d="m210 175.3l7.4 45.3s-10.2-6-9.6-6.6c.6-.6-3.2-35.2-3.2-35.2l5.4-3.5"/><path opacity=".1" d="m50.9 185.2s7-2.9 9.4 1.4c-4 6.4-3.3 10.8-3.3 10.8l10.7-7.8 11-8.4-12.9-4.1-14.9 8.1"/><path opacity=".1" d="m72.3 192.8c11.1-.5 4.2 5.2 4.2 5.2l8.6.1 2.8-4.9-1.6-3c0 .2-19.4.2-14 2.6"/><path opacity=".1" d="m99.9 199.4s-5.9-.6-3 1.4c3 2.1 2.3 2.5.8 5.4-3.1 5.6-21.7-4.2-21.4-4 .2.1 10-5.6 16.2-6.3 5.4-.8 7.4 3.5 7.4 3.5"/></g><path opacity=".5" fill="#fff" d="m195.7 207.6c16.4 15 22.6 14.8 22.6 14.8-2.1 2.8-21-3.2-27.4-11.5 3.1-5.2-.5-15.2-.5-15.2s5 5.7 5.3 11.9"/><path fill="#382f2b" d="m208.4 213.4s11 7.7 9.9 8.9c-1.7 1.8-16.8-9.8-16.8-9.8l6.9.9"/><g fill="#fff"><path opacity=".5" d="m216.8 171.4c20.4 23.5 19 43.8 19 43.8s-5.1-19.8-19-43.8"/><ellipse cx="171" cy="101.1" rx="17" ry="14.7"/><ellipse cx="90.7" cy="102.9" rx="17" ry="14.7"/></g><path fill="#382f2b" d="m178.4 103.7c-4.1-.3-7.2-3.8-7-7.9.1-2.2 1.2-4.2 2.9-5.4-1.2-.5-2.6-.8-4-.9-7.1-.4-13.2 4.9-13.6 12-.4 7.1 4.9 13.2 12 13.6 7.1.4 13.2-4.9 13.6-12 0-.1 0-.2 0-.3-1.1.6-2.4 1-3.9.9"/><circle fill="#fff" cx="178.9" cy="96.2" r="7.4"/><circle fill="#211d1b" cx="167.4" cy="103.7" r="6.9"/><circle fill="#fff" cx="168.2" cy="100.8" r="2.6"/><path fill="#382f2b" d="m98.6 104.4c-3.5-.2-6.1-3.2-5.9-6.7.1-1.9 1.1-3.5 2.4-4.6-1-.4-2.2-.7-3.4-.8-6-.4-11.1 4.2-11.5 10.2-.4 6 4.2 11.1 10.2 11.5 6 .4 11.1-4.2 11.5-10.2 0-.1 0-.2 0-.2-1 .6-2.1.9-3.3.8"/><circle fill="#fff" cx="99" cy="98.1" r="6.3"/><circle fill="#211d1b" cx="91.7" cy="104.7" r="6.6"/><circle fill="#fff" cx="92.4" cy="102" r="2.5"/><path fill="#382f2b" d="m163 106.9c13.4-1.3 17-1.7 19.9-2.3 6.7-1 6 5.1.1 7.7-.2.9-.4 3.7-3.4 5.3-3 1.5-29.9-9.4-16.6-10.7"/><path fill="#e2e1d5" d="m154.8 106.6s9.3.6 17.9.4c7-.2 11.9-2.4 13.4-.4.5 1.2-.6 2.8-2.3 3.8-1.4.8-3.1 1-3.1 1s-1.1 6.9-11.8 6.1c-12.4-2.2-14.1-10.9-14.1-10.9"/><path fill="#382f2b" d="m107.8 105.7c4-.3 5.1 5.1 1.7 6-4.3 10.1-15.2 8.6-15.2 8.6s-22.7-9-23.3-9.9c-.6-.9-.3-2.4.8-2.3 4.9.1 23.5.3 36-2.4"/><path fill="#e2e1d5" d="m108.2 111.4c-1.3 4.6-7.5 7.8-19.4 7.8-11.9.1-16.5-9.9-16.5-9.9s15.1 1.2 35.6-2.5c1.6-.4 3.8 3.3.3 4.6"/><g fill="#fff"><path opacity=".5" d="m179.3 107.9c2.5-.3 3.5 1.7.1 3 .2 1.9-2.1 4.8-2.6 5.2 3.3-1.8 3.8-4.5 3.8-4.8 3.6-.7 5.7-2.4 5.5-4.3-.3-1.7-3.4-1.2-3.4-1.2s-4.9 1.1-10.1 1.1c-4.3.1-11.5-.1-14.9-.2 11.4 2.9 20.2 1.3 21.6 1.2"/><path opacity=".5" d="m72.2 109.3c11.5 4.1 27.7 1 32.8 0 1.9-.7 2.5 1.5 1.3 2.1-2.1 6.1-5.8 7.2-5.8 7.2s6.4-2.6 7.7-7.2c3.7-1.2 1.3-5.1-.3-4.5-1.4.2-5.4 1.1-12.4 1.8-4.2.4-10.5.9-16.6.9-2.7-.2-4.4 0-6.7-.3"/></g><g fill="#382f2b"><path d="m142.5 42.5l55.1 13.1 5.8 16.5s-63-5.2-62.8-7c.1-2 1.9-22.6 1.9-22.6"/><path d="m112.6 46l-46.2 12.6-4.8 14.6 54.7-7c.5-2.3-3.7-20.2-3.7-20.2"/><path d="m165 131.1c3.5 1.7 3.6 3.9 3.6 3.9s-4.4 3.1-22.9 8.9c-13.4 3.8-22.4 1.5-25.7 3.6 29.1 3.7 49.7-11.4 49.7-11.4s2.7 2.1 3.4 4.1c.9-1.3 1.3-10.2-8.1-9.1"/><path d="m170.7 135.9c3 6.5-2 17.5-4.1 18.7-10.1 6.4-26.7 8.3-26.9 8.3s18.6-.9 29.5-8.7c3.3-4.8 4.4-12.4 3.8-16.2-.3-2.1-1.8-1.3-2.3-2.1"/></g></g></g></g></svg>