<svg xmlns="http://www.w3.org/2000/svg" viewBox="0 0 261 27.3" enable-background="new 0 0 261 27.3"><g fill="#706159"><path d="m7.5 5.5l2.4 4.7 5.2.8-3.8 3.6.9 5.2-4.7-2.4-4.6 2.4.9-5.2-3.8-3.6 5.2-.8z"/><path d="m253.5 5.5l2.3 4.7 5.2.8-3.7 3.6.9 5.2-4.7-2.4-4.7 2.4.9-5.2-3.8-3.6 5.3-.8z"/></g><g fill="#382e2b"><path d="M39.3,5h-5v7.6l1,1l-1,1v12.7h-5.1V14.6l-1.1-1l1.1-1V5h-5V0h15.1V5z"/><path d="M57.5,27.3h-5V16.2h-5.7v11.1h-5V14.6l-1.1-1l1.1-1V0h5v11.1h5.7V0h5v12.7l1.1,1l-1.1,1V27.3z"/><path d="m75.7 24.5l-3.3 2.9h-9.2l-3.2-2.9v-9.8l-1.1-1 1.1-1v-12.7h5v12.7l1.1 1-1.1 1v7.6h5.7v-7.6l-1.1-1 1.1-1v-12.7h5v12.7l1 1-1 1v9.8"/><path d="m78.1 14.6l-1-1 1-1v2m16.3 12.7h-5.4l-4.3-11.1h-1.5v11.1h-5.1v-27.3h12.1l3.2 2.9v10l-3.4 3.2 4.4 11.2m-11.2-16.2h5.2v-6.1h-5.2v6.1"/><path d="M112,24.5l-3.2,2.9H100l-3.3-2.9v-4.4h5v2.2h5.1v-6.1H100l-3.3-2.9V2.9L100,0h8.7l3.2,2.9v4.2h-5V5h-5.1
					v6.1h6.9L112,14V24.5z"/><path d="m126.8 0l3.3 2.9v9.8l1.1 1-1.1 1v9.8l-3.3 2.9h-12.4v-12.8l-1-1 1-1v-12.6h12.4m-1.8 14.6l-1.1-1 1.1-1v-7.6h-5.6v7.6l1 1-1 1v7.6h5.6v-7.6"/><path d="m145.4 27.3l-1.2-6.1h-5.3l-1.2 6.1h-5.1l5.4-27.3h7.1l5.5 27.3h-5.2m-2.2-11.1l-1.7-8.2-1.6 8.2h3.3"/><path d="M164.1,17.3v10.1H159V17.2L153,0h5.2l3.4,10.2L165,0h5.4L164.1,17.3z"/><path d="m196.6 24.4l-3.3 2.9h-8.6l-3.2-2.9v-4.4h5v2.2h5v-8h-6.8l-3.2-2.9v-11.3h14.9v5h-9.8v4.2h6.8l3.2 2.8v12.4"/><path d="M214.1,5h-5v7.6l1,1l-1,1v12.7H204V14.6l-1.1-1l1.1-1V5h-5V0h15.1V5z"/><path d="M232.3,27.3h-5V16.2h-5.7v11.1h-5V14.6l-1.1-1l1.1-1V0h5v11.1h5.7V0h5v12.7l1.1,1l-1.1,1V27.3z"/></g></svg>