<svg xmlns="http://www.w3.org/2000/svg" viewBox="0 0 335.3 169.1" enable-background="new 0 0 335.3 169.1"><path fill="#706059" d="M335.3,169.1c0-0.5,0-1,0-1.4C335.3,75.1,260.3,0,167.7,0S0,75.1,0,167.7c0,0.5,0,1,0,1.4H335.3z"/><path fill="#51443f" d="M324,169.1c0-0.5,0-1,0-1.4c0-86.3-70-156.3-156.3-156.3S11.3,81.3,11.3,167.7c0,0.5,0,1,0,1.4H324z"/><path fill="#493d38" d="m300.6 169.1c0-.5 0-1 0-1.4 0-73.5-59.5-133-133-133s-133 59.5-133 133c0 .5 0 1 0 1.4h266"/><path fill="#423632" d="m272.9 169.1c0-.5 0-1 0-1.4 0-58.1-47.1-105.2-105.2-105.2-58.1 0-105.2 47.1-105.2 105.2 0 .5 0 1 0 1.4h210.4"/></svg>