<svg xmlns="http://www.w3.org/2000/svg" viewBox="0 0 281.4 27.3" enable-background="new 0 0 281.4 27.3"><g fill="#706159"><path d="m7.5 5.5l2.4 4.7 5.2.8-3.8 3.6.9 5.2-4.7-2.4-4.6 2.4.9-5.2-3.8-3.6 5.2-.8z"/><path d="m273.8 5.5l2.4 4.7 5.2.8-3.8 3.6.9 5.2-4.7-2.4-4.6 2.4.9-5.2-3.8-3.6 5.2-.8z"/></g><g fill="#382e2b"><path d="m48.4 0l-4.6 27.3h-5.1l-2.4-11.8-2.4 11.8h-5.1l-4.6-27.3h5.2l2.1 14 2.8-14h4.2l2.7 14 2.1-14h5.1"/><path d="M64,27.3H50.8V14.6l-1.1-1l1.1-1V0h13.1v5h-8v6.1h6.9v5.1h-6.9v6.1H64V27.3z"/><path d="M78.8,0l3.3,2.9v9.8l1.1,1l-1.1,1v9.8l-3.3,2.9H66.4V14.6l-1-1l1-1V0H78.8z M77,14.6l-1.1-1l1.1-1V5
					h-5.6v7.6l1,1l-1,1v7.6H77V14.6z"/><path d="M95,27.3L89.5,13v14.3h-5V14.6l-1.1-1l1.1-1V0h5.4l5.5,14.3V0h5v12.7l1.1,1l-1.1,1v12.6l0,0H95z"/><path d="M116,27.3h-13.2V14.6l-1.1-1l1.1-1V0h13.1v5h-8v6.1h6.9v5.1h-6.9v6.1h8.1V27.3z"/><path d="m133.7 24.5l-3.2 2.9h-8.7l-3.3-2.9v-4.4h5v2.2h5.1v-6.1h-6.9l-3.3-2.9v-10.4l3.3-2.9h8.7l3.2 2.9v4.2h-5v-2.1h-5.1v6.1h6.9l3.2 2.9v10.5z"/><path d="m148.5 0l3.3 2.9v9.8l1.1 1-1.1 1v9.8l-3.3 2.9h-12.4v-12.8l-1-1 1-1v-12.6h12.4m-1.8 14.6l-1.1-1 1.1-1v-7.6h-5.6v7.6l1 1-1 1v7.6h5.6v-7.6"/><path d="m167.1 27.3l-1.2-6.1h-5.3l-1.2 6.1h-5.1l5.4-27.3h7.1l5.5 27.3h-5.2m-2.3-11.1l-1.6-8.2-1.6 8.2h3.2"/><path d="M185.8,17.3v10.1h-5.1V17.2L174.6,0h5.2l3.4,10.2L186.7,0h5.4L185.8,17.3z"/><path d="m206.3 21.2l-3.2-2.9 10.5-18.3h5v16.2h1.4v5h-1.4v6.1h-5.1v-.8-5.3h-7.2m3.9-5h3.4v-6l-3.4 6"/><path d="M237.6,5h-5v7.6l1,1l-1,1v12.7h-5.1V14.6l-1.1-1l1.1-1V5h-5V0h15.1V5z"/><path d="M255.8,27.3h-5V16.2H245v11.1h-5V14.6l-1.1-1l1.1-1V0h5v11.1h5.7V0h5v12.7l1.1,1l-1.1,1V27.3z"/></g></svg>