<?xml version="1.0" encoding="utf-8"?>
<!-- Generator: Adobe Illustrator 16.0.0, SVG Export Plug-In . SVG Version: 6.00 Build 0)  -->
<!DOCTYPE svg PUBLIC "-//W3C//DTD SVG 1.1//EN" "http://www.w3.org/Graphics/SVG/1.1/DTD/svg11.dtd">
<svg version="1.1" id="Layer_2" xmlns="http://www.w3.org/2000/svg" xmlns:xlink="http://www.w3.org/1999/xlink" x="0px" y="0px"
	 width="555.425px" height="291.99px" viewBox="28.544 248.535 555.425 291.99"
	 enable-background="new 28.544 248.535 555.425 291.99" xml:space="preserve">
<g>
	<path fill="#FFFFFF" d="M305,321.5c39.765,0,72,32.236,72,72c0,39.765-32.235,72-72,72c-39.765,0-72-32.235-72-72
		C233,353.736,265.235,321.5,305,321.5z"/>
	<path d="M357.7,338.203c1.366-0.513,8.057,6.048,11.02,6.187c0,0-4.51-3.959-4.975-6.384c0,0,1.27-0.517,6.31,0.392
		c0,0-1.305-2.848-5.47-4.001c0,0,2.904-0.54,4.906-0.349c0,0-9.036-3.594-11.326-3.797c-2.291-0.205-1.842-1.624-0.951-2.159
		c-3.459-0.162-11.448,1.614-16.996,9.467c-4.905-15.279-19.336-16.804-26.394-13.708c-0.238-0.824-0.51-1.597-0.822-2.318
		c2.801-5.239,5.597-9.907,8.25-13.791c1.761-0.28,3.162-0.276,3.354,0.085c0.268,0.493-1.392,3.2-0.55,5.644
		c0.354-1.425,4.249-4.799,5.024-4.955c-1.697,1.458-1.147,8.116-1.147,8.116c1.373-2.723,4.626-4.589,4.626-4.589
		c-1.173,2.967-0.553,9.775-0.553,9.775c0.515-2.762,3.823-3.855,3.823-3.855c-0.136,2.875,0.332,7.317,0.332,7.317
		c0.864-2.169,3.658-2.52,3.63-1.847c-0.031,0.669,1.521,6.413,0.791,9.741c3.522-4.881,2.188-22.084-11.459-34.467
		c3.684,0.183,9.272,5.139,9.935,7.488c0.229-0.757,0.371-3.827,1.234-3.784c0.86,0.039,2.633,3.102,2.439,5.207
		c0.929-1.398,1.446-2.238,1.446-2.238c1.854,1.335,3.382,5.538,1.808,8.539c2.51-0.361,3.693-5.303,3.46-8.486
		c0.768,0.036,5.37,4.096,6.434,7.991c1.006-3.029-0.955-10.329-6.258-11.729c0.785-0.446,7.108-0.34,7.108-0.34
		s-3.501-3.047-8.502-2.705c1.183-0.616,2.771-1.792,2.771-1.792c-0.985-0.176-2.7-0.581-4.449-0.884
		c1.688-1.257,3.527-3.077,3.671-5.111c0,0,1.236,0.249,3.048,6.582c0,0,1.628-4.057,1.263-6.477c0,0,3.798,4.889,4.791,8.201
		c0,0,1.942-2.504-0.151-6.926c0,0,6.499,2.419,7.576,4.005c-8.747-20.674-28.316-13.167-35.388-7.314
		c4.589-25.418-9.745-40.31-23.161-40.399c4.768,0.513,13.06,11.855,13.879,14.874c-2.269-0.78-5.784,0.691-5.847,2.032
		c4.188,0.579,6.688,2.523,7.593,3.624c-1.606-0.463-4.533,0.65-5.626,1.464c2.643,0.892,6.651,3.291,7.396,5.824
		c0,0-4.125,0.094-4.839,1.024c2.633,1.083,5.068,4.369,5.658,6.126c-1.296-1.022-3.436-0.353-4.214-0.102
		c0,0,4.188,4.712,3.274,9.955c-0.082,0.47-0.172,0.875-0.269,1.225c-0.273,0.262-0.58,0.467-0.916,0.599l-0.767,0.157
		c-0.229,0.007-0.462-0.02-0.705-0.087c-4.397-28.732-24.665-35.09-34.942-28.155c4.027-0.006,13.402,2.452,15.032,4.546
		c-4.779-0.32-8.525,3.925-8.525,3.925c4.902-0.251,11.664,0.641,15.507,2.551c-0.507,0.554-7.804,0.787-7.804,0.787
		c3.72,2.482,12.468,1.93,12.468,1.93c-0.936,1.451-6.586,2.803-10.444,3.576c-8.677-2.949-14.766-0.532-16.429,5.448
		c0,0,7.938-3.759,9.468-3.688c0,0-1.263,2.438-1.147,4.078c0,0,5.947-2.125,9.099-1.88c0,0-5.418,3.109-6.512,4.02
		c0,0,5.66-0.12,8.909,0.034c0,0-0.579,2.182-3.517,3.485c0,0,7.122-0.627,8.837-0.45c-1.769,0.974-3.677,4.824-3.457,6.374
		c1.112-1.295,8.459-2.584,9.184-1.687c0.591,0.732,0.355,4.155,0.099,6.437c-2.272,3.376-4.821,7.315-7.526,11.678
		c-3.622-4.813-9.364-6.324-14.642-6.292c-0.543-0.856-1.376-1.913-2.534-2.691c0,0,4.057-0.604,7.256,1.637
		c0,0-0.358-3.116-1.673-4.187c0,0,4.584,1.872,6.288,3.896c0,0-0.743-4.142-1.846-5.131c0,0,3.92,0.761,5.673,3.222
		c-1.367-9.289-9.252-8.217-12.03-7.194c-1.462,0.54-4.233,2.338-6.761,4.935c-1.419-0.283-3.012-0.639-3.774-0.958
		c0,0,5.771-1.964,5.862-2.393c0,0-3.844-0.829-4.049-1.055c0,0,5.607-1.539,6.212-2.231c0,0-2.766-0.776-2.819-1.142
		c-0.057-0.361,4.143-2.543,6.912-3.352c-2.986-0.716-8.08,0.632-8.647,0.461c-0.568-0.171,0.577-3.145,1.245-3.617
		c-4.287,1.024-6.068,6.849-6.801,7.175c-0.736,0.326-1.32-2.583-1.32-2.583c-0.602,1.407-1.398,5.243-1.457,9.574
		c-14.479-10.942-29.687,6.54-24.068,15.248c0.071-1.581,1.878-6.327,4.098-9.25c2.233,1.474,4.943,1.889,6.596,1.895
		c-0.391-0.81-0.373-4.271,0.468-5.312c0,0,2.364,1.625,3.126,2.239c0.258-0.854,0.824-2.198,2.939-2.892
		c0,0,1.633,0.511,2.393,2.707c1.02-0.757,2.834-0.248,4.137,2.003c-17.635-2.855-25.569,18.024-15.759,25.753
		c0,0-1.325-4.482-0.433-9.246c0.708,1.282,3.296,3.325,4.827,3.396c-0.927-0.714-2.512-5.786-1.84-7.771
		c0.687,1.57,2.462,2.612,3.972,3.165c0,0-1.603-4.688,0.182-8.062c0.594,1.66,1.807,2.388,2.731,3.104
		c-0.501-1.56,0.335-5.171,0.82-5.245c0.481-0.073,1.853,1.334,1.853,1.334c0.393-1.37,3.076-2.83,6.25-1.177
		c-13.48,4.235-18.072,25.053-9.14,33.427c-1.059-1.925-1.485-11.312,0.306-15.841c0,0,1.033,5.526,2.713,6.612
		c-0.631-1.903,0.086-11.095,0.738-12.793c0.147,3.033,2.486,5.305,3.462,5.929c-0.766-2.056-0.275-9.526-0.275-9.526l2.872,3.16
		c0,0,0.386-4.583,1.386-7.514c3.817,3.703,7.364,11.485,10.354,21.319c-13.244,25.048-24.924,53.88-21.554,71.403l19.912,0.549
		c0.591-7.965,4.414-17.926,9.8-27.836c0.945,10.615,1.122,20.748,0.307,28.885l10.141,0.473c0.354-7.591-1.598-22.443-5.046-38.49
		c6.14-9.596,13.315-18.514,19.938-24.795c2.275,0.363,3.354,3.206,3.321,5.619c0.457-1.612,4.398-3.924,4.398-3.924
		c-1.512,3.675-3.788,11.353-3.788,11.353c2.065-3.17,3.618-3.58,3.618-3.58c1.21,2.844-2.685,10.349-2.685,10.349
		c2.512-0.458,5.781-6.84,5.781-6.84c0.015,1.731-0.647,7.754-0.647,7.754c1.073-0.429,4.51-6.322,4.51-6.322
		c0.94,8.595-3.599,17.609-3.599,17.609c8.288-4.14,11.347-23.608,3.489-33.294c0.892-1.541,1.892-3.202,2.249-3.53
		c0,0,2.728,3.204,3.364,8.037c-0.235-1.068,1.789-5.489,1.789-5.489s0.891,3.598,0.699,7.624c0,0,0.78-4.384,2.778-4.1
		c1.998,0.287,1.068,3.799,1.072,5.816c2.188-1.722,6.162,3.556,6.682,4.733c1.606-20.505-12.335-23.197-20.948-23.101
		c2.544-0.926,5.759-1.473,7.489-0.784c0,0-0.648-2.527-0.275-4.336c0,0,2.553,4.924,4.644,5.212c0,0-0.604-1.469-0.521-3.195
		c0,0,5.59,5.547,7.731,4.877C360.147,343.217,356.334,338.715,357.7,338.203z M344.751,291.088c0,0,0.13,2.123-0.434,4.58
		c-1.316-0.123-2.481-0.096-3.147,0.25c0.412-0.654,2.616-2.666,2.616-2.666c-1.052-0.089-4.009-0.064-6.985-0.011
		C339.502,291.953,342.478,290.902,344.751,291.088z M311.632,287.991c-1.602-0.963-3.149-1.775-4.636-2.442
		c4.414,0.189,9.148,0.258,9.148,0.258L311.632,287.991z M312.987,288.833l4.443,0.207c0,0,0.208,1.49,0.362,3.22
		C316.147,290.97,314.545,289.834,312.987,288.833z M282.828,313.14l0.009-0.032c0.003,0.011,0.009,0.023,0.011,0.036
		C282.84,313.144,282.835,313.14,282.828,313.14z M291.665,311.833c0,0,0.601,0.137,1.44,0.354c-0.602,0.076-1.191,0.169-1.76,0.274
		L291.665,311.833z M285.686,309.032l3.738-0.981c-0.485,0.591-0.941,1.21-1.369,1.857L285.686,309.032z M288.594,319.306
		c2.77-0.72,5.691,1.968,6.973,4.53c0,0,0.404-5.676-0.73-7.529c0.627,0.461,4.646,6.701,5.892,9.284c0,0,0.159-8.064-0.987-9.631
		c0,0,5.174,3.124,6.543,6.143c0,0,0.576-3.07,0.598-3.501c0.602,0.397,1.575,1.259,2.625,2.274
		c-3.343,5.489-6.87,11.554-10.342,17.932C295.886,330.409,292.301,323.462,288.594,319.306z M286.83,409.241
		c-0.447-16.256,5.002-37.61,12.496-57.403c1.887,7.717,3.442,16.176,4.564,24.646C295.157,388.805,289.182,401.559,286.83,409.241z
		 M305.123,349.58c0,0,4.369-5.273,10.478-6.813c0,0-3.869,4.912-3.903,7.697c0,0,6.196-5.477,10.411-7.489
		c0,0-4.96,5.726-4.894,10.436c0,0,4.952-7.551,8.657-8.915c0,0-0.224,2.776,0.381,4.151c3.644-2.698,5.002-1.378,4.751,1.127
		c-8.416,5.129-15.933,12.443-22.312,20.359c-2.005-8.34-4.373-16.731-6.984-24.366c3.238-7.984,6.759-15.583,10.288-22.339
		c0.295,0.317,0.57,0.625,0.831,0.919c-0.818,0.461-1.501,0.992-2.002,1.573c0,0,1.223-0.232,2.995-0.373
		c0.341,0.449,0.564,0.796,0.595,0.971c-0.055-0.342-0.12-0.672-0.189-1.001c2.012-0.135,4.613-0.139,6.952,0.406
		c0,0-4.297,1.722-4.571,3.533c0,0,6.393-1.43,8.886-1.507c0,0-3.08,2.354-3.244,3.884c0,0,3.761-0.591,6.715-0.166
		c0,0-2.372,1.522-2.908,2.748c3.494-0.894,7.958-0.013,9.169,2.735c0,0-4.448-1.17-5.54-0.358c2.915,0.668,5.418,3.71,6.199,7.125
		C322.178,328.83,303.604,338.952,305.123,349.58z M343.285,347.233c0.967,0.463,0.865,1.958,0.572,3.592
		c-1.451-1.483-3.22-2.664-5.321-3.434C339.916,347.061,342.115,346.674,343.285,347.233z"/>
	<g>
		<polygon fill="#CCCCCC" points="412.858,537.025 412.858,445.463 577.599,445.463 548.515,491.244 577.599,537.025 		"/>
		<path d="M571.229,448.963l-26.859,42.281l26.859,42.281H416.359v-84.562H571.229 M583.969,441.963h-12.74H416.359h-7v7v84.562v7h7
			h154.869h12.74l-6.832-10.754l-24.476-38.527l24.476-38.527L583.969,441.963L583.969,441.963z"/>
	</g>
	<g>
		<polygon fill="#CCCCCC" points="34.914,537.025 63.998,491.244 34.914,445.463 199.654,445.463 199.654,537.025 		"/>
		<path d="M196.154,448.963v84.562H41.284l26.86-42.281l-26.86-42.281H196.154 M203.154,441.963h-7H41.284h-12.74l6.832,10.754
			l24.476,38.527l-24.476,38.527l-6.832,10.754h12.74h154.87h7v-7v-84.562V441.963L203.154,441.963z"/>
	</g>
	<polygon fill="#7D7D7D" points="492.333,527 409.358,540.525 409.358,514.667 	"/>
	<polyline fill="#7D7D7D" points="118.333,527 203.154,514.667 203.154,540.525 	"/>
	<g>
		<rect x="121.833" y="397.167" fill="#FFFFFF" width="367" height="126.333"/>
		<path d="M485.333,400.667V520h-360V400.667H485.333 M492.333,393.667h-7h-360h-7v7V520v7h7h360h7v-7V400.667V393.667
			L492.333,393.667z"/>
	</g>
	<g>
		<path d="M191.104,424.354l0.414,0.139l1.349,0.139l0.934-0.208h0.483h0.761l0.657,0.277l0.483-0.14l0.864,0.14l0.554-0.069
			l0.276-0.068l0.519,0.312l0.415-0.104l0.934,0.104l0.622,0.068h0.415l0.276,0.139h0.588l0.414,0.207l1.556,0.346l1.279,0.347
			l0.795,0.381l0.346,0.068l0.83,0.483l0.449,0.208l0.346,0.068l0.415,0.276h0.657l0.276,1.142h0.346l1.002,0.622l1.279,0.173
			l0.208,0.83l0.483,0.587l0.346,0.346l1.21,1.418l0.346,0.346l0.727,1.071l0.553,0.484l-0.138,0.795l0.346,0.898l0.449,0.139
			l0.346,0.588l0.483,0.553l0.208,0.415l0.311,0.657l0.554,1.971l0.415,1.348l0.068,0.796l0.139,0.554l0.069,0.553v1.35l0.173,1.07
			l-0.173,0.347v1.832l-0.554,2.696l0.069,0.587v0.347L218,452.667l-0.276,0.45l-0.069,0.207l0.139,0.415l-0.208,1.002l-0.449,0.83
			l0.069,1.07l-0.139,0.277l-0.346,0.52l-0.069,0.482l-0.483,1.279l-0.208,0.69l0.069,0.589l-0.242,1.105l-0.068,0.38l0.068,0.83
			l0.173,0.346l-0.38,0.52l-0.276,0.482v0.415l0.207,0.312v0.276l0.069,0.482l0.519,0.588v0.276l0.139,0.484l0.553,0.863
			l0.795,0.484h0.276l0.415-0.277l0.934-0.067l0.968,0.067l0.795,0.83l0.069,0.657l-0.069,0.414l-0.276,0.934l-0.588,0.415
			l-1.693,0.554l-1.141,0.139l-0.691,0.104h-0.277h-0.346l-1.486-0.104l-0.864-0.276h-0.553l-0.312-0.208l-0.691-0.207h-0.726
			l-1.037-0.415l-0.657-0.795l-0.415-0.346l-0.069-0.346l-0.483-0.207l-0.381-0.52l-0.76-0.69l-0.139-0.347l-0.657-1.142
			l-0.276-0.656l-0.276-0.761l-0.069-0.346l-0.138-1.35l-0.208-0.241v-0.623l0.069-0.482l-0.207-0.449l0.068-1.971l-0.138-1.072
			l-0.173-0.691l0.069-0.346l0.173-0.38v-0.83l0.068-0.519l0.069-0.276l0.208-0.346l-0.139-0.554v-0.312l0.207-1.313l0.139-0.519
			l0.276-1.556l-0.069-0.415l-0.414-0.795v-0.554l0.483-2.281l0.139-1.244l-0.139-1.142l0.484-0.588l0.173-0.898l0.069-0.414
			l0.068-0.45l0.069-1.97l-0.069-0.864v-0.277l0.069-1.002l-0.207-0.276l0.069-1.036l-0.242-0.382l-0.069-0.761l-0.207-0.275
			l-0.069-0.312l0.069-0.553l-0.208-0.691l-0.207-0.519l-0.208-0.276l-0.276-0.208l-0.069-0.414l-0.38-0.173l-0.276-0.691
			l-1.072-1.003l-0.414-0.275l-0.484-0.069l-0.484-0.069l-0.173-0.207l-0.553-0.139h-0.622l-0.588,0.208h-0.276l-0.554,0.346
			l-0.311,0.414l-0.554,1.35l-0.138,0.656v0.554l-0.069,0.519v0.622l-0.139,1.21v0.484l-0.346,3.181l-0.068,0.588l-0.242,0.691
			l0.069,0.346l0.449,0.795l0.069,0.622l-0.519,0.795l0.449-0.068l0.069,0.969l-0.519,0.726l0.068,0.554l0.657,0.727l0.069,1.141
			l-0.069,0.347l0.207,1.278l-0.276,0.969l-0.069,2.073l0.346,1.279l-0.068,0.276l-0.069,0.968l-0.346,0.449l-0.588,0.69h0.726
			l0.208,0.52v0.277l-0.069,0.553l0.069,0.864l0.069,0.69l0.553,0.864l0.139,0.968l0.104,0.449l-0.173,0.623l0.173,0.414v0.381
			l0.415,1.625l0.207,0.276l0.069,0.275l0.276,0.657l0.276,0.346l0.312,0.276l0.483,0.726l0.761,0.622l0.519,0.415l0.968,0.449
			l0.45,0.277l0.346,0.138l0.414-0.069l0.277,0.347l0.38,0.208l0.207,0.346l0.139,0.588v0.414l-0.276,0.796l-0.276,0.276
			l-0.173,0.275l-0.484,0.207l-0.276,0.277l-0.208,0.068l-0.519,0.068l-0.346,0.069l-0.553,0.104l-0.588,0.069l-0.968-0.069
			l-0.864-0.241h-0.484h-0.414l-0.657-0.276l-0.761-0.069l-0.38-0.067l-0.415-0.069l-1.071-0.139l-0.484-0.207h-0.553h-0.381
			l-0.483-0.208l-0.554,0.068h-0.864l-0.346-0.207l-0.276,0.139h-0.38l-0.554-0.587h-0.415l-0.519,0.207h-0.968l-0.795,0.173
			l-0.346-0.104l-0.864,0.104l-0.207,0.207l-0.484,0.276l-0.139-0.346l-1.002-0.139l-0.415,0.207h-0.207l-0.657,0.346l-0.761,0.623
			l-1.002,1.071l-1.142,0.139l-0.622-0.139l-0.795-0.415l-0.346-0.449l-0.276-0.761v-0.483l0.069-1.003l0.414-0.795l0.208-0.554
			l0.38-0.414l0.554-0.277l0.346-0.241l0.933-0.554l1.279-0.483l0.346-0.068l0.554-0.312l0.864-0.482l0.933-0.83l0.208-0.449
			l0.138-0.276l0.415-1.142l0.069-0.829l0.069-0.519v-0.276v-0.346l0.138-0.277l-0.068-0.449l0.138-1.105l0.069-1.417l-0.276-0.38
			l0.069-0.555l0.38-0.622l-0.104-0.448l0.104-0.276v-0.484v-1.485l-0.104-0.657v-0.276l0.173-0.346l0.069-0.415l-0.139-0.276
			l-0.104-0.38l0.242-1.037l-0.242-0.519v-0.691l0.311-0.519l-0.068-0.623v-1.97l0.068-1.211l0.069-0.588l-0.138-1.037l-0.069-0.727
			l0.069-1.21l-0.069-0.691l-0.242-0.346l0.173-0.933l0.069-0.347v-0.415l-0.173-0.381l0.104-0.414l0.207-0.554l-0.138-0.656
			l-0.173-0.898l0.104-0.38v-0.484v-1.279l-0.242-0.553v-0.449v-0.898l-0.553-0.864l-0.208-0.207l-0.483-0.139l-0.657-0.207
			l-0.346-0.069l-1.486,0.207l-0.276,0.139l-0.449,0.276l-0.484,0.276l-0.553,0.656l-0.727,1.003l-0.346,0.691l-0.207,0.276v0.726
			l-0.864,0.899v0.726l-0.139,0.346l-0.138,0.555l0.207,1.002l-0.207,0.346l-0.346,0.449l0.138,0.415l0.276,0.554l-0.207,0.587
			l0.069,1.901l0.207,0.623l-0.346,0.067l0.069,0.52h0.346l0.207,0.83v0.588l0.277,0.897l0.173,0.864l0.414,0.691l0.139,0.381
			l0.346,0.622l0.276,1.071l0.069,0.346l0.069,0.208v0.449l-0.276,0.968l-0.415,0.795l-0.346,0.622l-0.139,0.934l0.139,0.415
			l0.069,0.415l0.138,0.52l0.139,0.622l-0.139,1.003l0.139,0.69l-0.484,0.52l0.208,0.414l0.553,0.139l-0.069,0.484l-0.276,0.726
			v0.207l-0.069,0.554l-0.069,0.381l-0.138,0.414v1.071l-0.346,0.899v0.726l-0.312,0.415l-0.276,0.346l-0.207,0.727l-0.415,1.694
			l-0.208,0.415l-1.071,1.832l-1.279,1.278l-0.415,0.347l-0.587,0.448l-0.83,0.276l-0.864,0.484l-1.556,0.448h-0.691l-0.519,0.207
			h-1.901l-1.141-0.067l-0.968-0.312l-0.312-0.068l-0.415-0.207l-0.415-0.208l-0.933-0.347l-0.346-0.138l-0.864-0.795l-0.484-0.761
			l-0.207-0.276l-0.208-0.45v-0.482l-0.449-0.276l-0.069-0.277l-0.138-2.074l0.38-1.002l0.207-0.483l0.761-0.691l0.346-0.138
			l0.449-0.242l0.277-0.069h0.276l0.207-0.068h0.519l0.691,0.312l0.484,0.415l0.449,0.414l0.346,0.796l0.069,0.622l-0.069,0.553
			l-0.139,0.52l-0.276,0.761l0.069,0.52l0.415,0.622l1.071,0.139l0.83-0.069l0.656-0.346l0.208-0.415l0.415-0.519l0.414-1.557
			l-0.068-1.692l-0.208-1.557v-0.415l-0.207-0.381l-0.069-0.553v-0.276l-0.207-0.415l-0.139-0.588l-0.139-0.415l-0.068-0.275
			l-0.069-0.656l-0.381-0.415l-0.068-0.208l-0.139-0.864l-0.346-0.829l-0.069-0.275l-0.795-2.421l-0.069-0.276v-0.587l-0.415-1.037
			l-0.068-0.381l-0.139-0.969l-0.069-0.726v-0.415v-0.276l-0.069-0.727v-2.178l0.139-0.864l0.069-0.346v-0.554l0.069-0.863
			l0.414-1.279l0.139-0.554l0.173-0.347l0.415-0.863l-0.069-0.554l0.139-0.449l0.207-0.346l0.346-0.69l0.207-0.796l0.381-0.69
			l0.691-0.728v-1.003l0.276-0.346l0.38-0.276l0.346-0.207l0.069-0.208l0.139-0.448l0.276-0.207l0.484-0.555l1.486-2.005
			l0.588-0.275l0.483-0.622l0.415-0.208l0.934-0.52l0.138-0.275l0.277-0.207l0.311-0.208l1.106-0.347l0.795-0.655l1.003-0.347
			l0.622-0.415l0.761-0.448h0.311l0.277-0.347l0.346,0.069l0.726-0.139l0.484-0.14l0.864-0.346h0.483l1.141-0.068l1.037-0.346
			l0.312,0.068l0.415-0.174l1.625-0.138l0.276-0.069l0.415-0.068L191.104,424.354z"/>
		<path d="M237.394,432.928h0.415l0.934,0.207l1.071,0.484l1.279,0.795l0.898,0.795l0.519,0.208l0.415,0.553l0.484,0.069
			l0.207,0.415l0.519,0.38l1.279,0.415l0.346,0.276l0.484,0.139l0.276-0.069h0.449l0.691,0.14l0.657,0.138h0.553l0.415,0.312
			l0.276,0.482v0.554l-0.207,0.656L248.8,440.5l-0.346,1.071l-0.069,0.346l-0.068,0.484v2.28l-0.173,1.142l0.104,0.483l-0.104,0.622
			l0.173,1.142l-0.069,1.625l0.069,0.449v1.764l-0.242,0.553l0.069,1.417v0.657l0.104,0.346l0.346,0.347l0.069,0.275v0.935
			l-0.069,0.83l0.138,0.448l0.139,0.347v0.863l0.069,0.483l0.069,1.349l0.207,0.347l0.415,0.139h0.311l0.346,0.068h0.346h0.484
			l0.726,0.588v0.968l-0.068,0.277l-0.277,0.519l-0.38,0.622l-0.553,0.727l-0.277-0.069l-0.207,0.346l-0.276,0.346l-0.312,0.347
			l-0.415,0.312l-0.068,0.276l-0.277,0.208l-0.483,0.346l-0.312,0.414l-0.069,0.588l0.069,0.276l0.208,0.277l0.38,0.795v-0.276
			l-0.207,1.313l-0.519,0.588l-0.415,0.138l-0.934,0.069l-0.968-0.276l-0.934-0.276l-0.484-0.241l-0.864-0.415v-0.276l-1.693-1.141
			l-0.346-0.484l-0.449-0.346l-0.691-0.657l-0.727-0.483l-0.346-0.483l-0.415-0.312l-0.622-0.208l-0.519,0.069l-0.829,0.519
			l-0.173,0.415l-0.139,1.486l0.795,0.83l0.208,0.795l-0.277,0.795l-1.141,0.415l-0.829,0.138l-0.727-0.067l-1.279-0.484
			l-0.968-0.38l-0.173-0.277l-0.483-0.553l-0.415-0.449l-0.727-0.483l-0.346-0.347l-0.414-0.138l-0.208-0.346l-0.934-0.588
			l-0.346-0.14h-1.141l-0.276-0.138h-0.415l-0.519-0.415l-0.138-0.242l-0.208-0.484l0.208-0.828l0.414-0.52l0.312-0.208l0.553-0.553
			l0.415-0.657l0.208-0.553v-0.276v-0.449l0.241-0.69v-0.623l-0.173-0.38L227.402,459l0.138-0.381l0.173-0.346v-0.554l-0.173-0.346
			l-0.069-0.864l0.069-0.208l0.104-0.346l0.069-0.519l-0.069-2.179l-0.587-0.934v-0.622l0.346-0.449l0.519-0.415l0.276-0.138
			l1.002-0.139l1.106-0.14l0.312,0.069l0.968-0.139l0.276-0.139l0.381-0.068l0.483-0.069h0.864h0.346l0.276-0.068l1.142-0.519
			l0.346-0.277h0.864l0.691-0.482l0.726-0.52l0.553-0.691l0.208-1.071l0.207-0.554v-0.346v-0.312l0.449-0.898l-0.104-0.934
			l-0.138-0.622l-0.346-0.657l-1.142-1.21l-0.483-0.207l-0.415-0.207h-0.657l-0.968-0.554l-0.726-0.207h-0.554l-1.21,0.207
			l-1.21,0.968l-0.276,0.519v0.691v0.727l0.208,0.483l0.346,0.139l0.864-0.275h0.276l0.276,0.138l0.657,0.069l0.898,0.727
			l0.069,0.276l0.069,0.275l0.068,0.691l-0.068,1.141l-0.346,0.657l-0.623,0.622l-1.002,0.484l-0.761,0.138h-0.864l-0.622-0.138
			l-0.653-0.28l-0.691-0.207l-0.934-0.934l-0.414-0.483v-0.415l-0.069-0.276l-0.312-0.139l-0.069-0.795l-0.207-0.795l0.069-1.037
			l0.069-0.346v-0.52l0.311-0.83l0.069-0.588l1.176-1.692l0.173-0.415l0.553-0.449l1.349-0.761l0.483-0.276l1.21-0.346l0.691-0.45
			l1.21-0.414l0.657-0.728l0.069-0.206l0.138-0.484l0.139-0.622l0.864-0.657L237.394,432.928z M239.883,451.111l-0.795,0.519
			l-0.554,0.346l-0.622,0.14h-0.449l-0.622,0.275l-0.449,0.415l-0.346-0.068h-0.415l-0.415,0.381l0.069,0.482l0.069,0.484
			l0.138,0.656l0.208,2.04l0.068,0.346l-0.207,0.52l0.069,0.83l-0.139,2.073v0.761l-0.656,0.656l0.587,0.069l0.415,0.069h0.864
			l0.415,0.067l0.415-0.067l1.348,0.067l0.727,0.14l0.829,0.207l-0.207-0.483l-0.207-0.276l-0.346-5.463l-0.208-1.141l0.276-0.691
			L239.883,451.111z"/>
		<path d="M269.198,433.343h0.934l1.106,0.449l0.242,0.346l0.484,0.139l0.553,0.208l0.519,0.415l0.415,0.067l0.346,0.14l0.656,0.519
			l0.554,0.484l1.071,0.655l1.141,0.347l2.04,0.208l0.415,0.138l0.069,0.277l0.795,0.275l0.069,0.52l-0.069,0.829l-0.657,0.934
			l-0.415,1.141l-0.207,0.899l-0.069,0.656v0.554v0.864l-0.069,0.415l-0.138,1.141l0.069,0.415l0.068,1.141L279.052,448
			l-0.519,1.349v0.276l-0.069,0.449l0.138,0.346v0.277v0.275l-0.207,1.625l0.207,0.207v1.071l0.173,1.694l0.139,0.656v0.554v0.864
			v0.275l-0.069,0.691v0.657v0.553l0.208,0.657l0.068,0.275l0.415,0.415l0.139,0.276l0.346,0.38l2.144,0.691l0.276,0.727
			l-0.069,0.761l-0.691,0.553l-0.726,0.449l-0.554,0.347l-0.449,0.346l-0.691,0.208l-0.864,1.002l-0.484,1.003l0.069,0.415
			l0.208,0.553v0.38l0.138,0.415l0.139,0.691l-0.139,0.449l-0.415,0.483l-0.691,0.276h-0.795l-0.415-0.207l-0.587-0.346
			l-0.484-0.208l-0.346-0.139l-0.449-0.519l-0.346-0.208l-0.346-0.483l-0.795-0.208l-0.069-0.655l-0.554-0.691l-0.346-0.276
			l-0.276-0.241l-0.449-0.276l-0.622-0.208l-0.415-0.207l-0.657-0.484l-0.207-0.726l0.069-0.554l0.864-0.795l0.346-0.207
			l0.414-0.691v-0.312l0.069-0.897l0.069-0.588l-0.139-0.276v-0.275l-0.068-0.555v-0.726l-0.208-1.557l0.069-0.863l-0.139-0.276
			l0.069-1.279l-0.069-0.208l-0.138-0.414v-0.346l0.138-0.519l0.069-0.277l0.069-0.414l0.069-0.415l0.346-0.242l-0.415-0.068v-1.037
			l0.069-0.449l0.069-0.968l0.068-0.347l-0.068-0.727l0.068-0.346l-0.138-0.52l0.138-0.622l0.069-0.863l-0.069-0.415l0.139-0.554
			l0.449-2.073l0.139-0.622l0.415-0.276l-0.727-0.208l-0.553-0.311l-0.761-0.415l-0.449-0.347l-0.484-0.346h-0.276l-0.588-0.312
			l-0.898-0.622l-0.727-0.206l-1.071-0.14l-0.415,0.207l-0.207,0.484l0.069,0.38l0.346,0.623l0.311,0.414l0.139,0.519l0.069,0.415
			l0.138,0.899l0.069,1.797v0.208l0.069,0.275l-0.069,0.415l0.139,0.52v0.968l-0.069,0.657l-0.276,0.276l-0.45,0.207l0.45,0.275
			l0.068,0.381l0.277,1.486l0.068,0.691l0.069,0.483l0.069,0.52l-0.139,0.482l0.069,0.415l0.069,0.38v0.415l-0.069,0.276
			l-0.069,0.864v0.483l0.069,1.142l-0.346,1.556l-0.207,0.83l-0.381,0.449l-0.138,0.483v0.554l0.38,0.207l0.484,0.104l0.829,0.207
			l0.519,0.069l0.415,0.138l0.657,0.484v0.934l-0.242,0.622l-0.276,0.346l-0.761,0.864l-1.21,0.864l-0.207,0.275l-0.45,0.14
			l-0.346,1.002l-0.414,0.483l0.346,0.622l0.068,0.208l0.277,0.52l-0.069,0.897l-0.415,0.449l-1.349,0.415l-0.483-0.139
			l-0.727-0.276l-0.414-0.207l-0.484-0.657l-0.657-0.414l-0.898-0.588l-0.449-0.69l-0.276-0.208l-0.484-0.207l-0.657-0.52
			l-0.553-0.275h-0.346l-0.657-0.208l-0.276-0.139l-0.346-0.208l-0.346-0.346l-0.138-0.38l0.068-0.83l0.208-0.449l0.622-0.553
			l0.484-0.277l0.587-1.485l0.069-1.002l-0.069-0.484l0.069-0.864l0.208-0.346v-0.415l-0.069-0.346l0.138-0.588l-0.068-0.483v-0.449
			l0.068-0.276l-0.207-0.622v-0.864l0.346-0.898v-1.003c0-0.229-0.023-0.392-0.069-0.482l0.069-0.312v-0.553l-0.207-0.346
			l0.138-0.728l0.069-1.832v-1.141l-0.069-0.347v-0.622l-0.069-0.449l-0.068-0.276l-0.139-0.415v-0.276l0.069-0.275l0.138-0.312
			l-0.068-0.482l0.068-0.347l-0.346-1.349l-1.901-0.069l-0.311-0.067l-0.899-0.657l-0.207-0.83l0.415-1.071l0.415-0.483l0.276-0.068
			l0.449-0.519l0.415-0.484l0.483-0.553l0.657-0.657l-0.069-0.276l0.139-0.208l0.138-0.275v-0.312l-0.068-0.276l-0.069-0.276
			l-0.139-0.761l0.069-0.656l0.83-0.934l0.449-0.14l0.207,0.14l1.279,0.104l0.276,0.069l0.554,0.138l0.519,0.069l1.244,0.483h0.38
			l0.83,0.554l0.415,0.312l0.519,0.553l0.415,0.484l0.346,0.449l0.519,0.483l0.346,0.069l0.933-0.139l1.037-0.935l0.381-0.69
			l0.069-0.276l-0.312-0.727l0.242-0.829L269.198,433.343z"/>
		<path d="M290.563,432.651l0.346,0.067l1.729,0.277l0.276,0.138l0.346-0.068l0.207,0.139l0.415,0.519l0.519-0.38l0.553,0.139
			l2.282,0.381l1.486,0.482l0.484,0.069h0.483l0.449,0.139h0.83h0.864l1.141-0.346l0.623-0.657l0.414-0.483l0.588-0.347l0.968-0.067
			l0.795,0.69l0.139,0.449l0.069,1.486l-0.069,0.275l-0.139,0.484l-0.069,0.415v0.588l0.139,0.276l-0.275,1.07l-0.14,0.347
			l-0.311,0.208l-0.623,1.277l-0.138,0.484l-0.346,1.071l-0.864,1.278l-0.276,0.347l-0.553,1.141l-0.381,0.691l-0.553,0.727
			l-0.657,0.553l-0.346,0.589l-0.415,0.621l-0.415,0.484v0.312l0.277,0.761l0.761-0.138l0.933-0.209l0.623-0.138l0.587-0.139
			l0.969,0.139l0.587,0.347l0.553,1.002v0.898l-0.207,0.52l-0.414,0.622l-0.796,0.415l-0.968,0.206l-0.311,0.174l-0.415,0.068
			h-0.484l-1.21-0.068l-0.415,0.068l-0.519,0.069l-0.483-0.139h-0.623l-0.519-0.069h-0.414h-0.554l-1.417,1.694l-0.139,0.275
			l-0.449,0.553l-0.761,1.143l-0.207,0.414l-0.381,0.657l-0.414,0.483l-0.069,0.276l-0.554,1.071l-0.587,0.795l-0.139,0.623
			l-0.207,0.622l0.483-0.415l0.381-0.14l0.414-0.067h1.21l0.484,0.067l0.207,0.069h0.346l0.864,0.069l0.346,0.068l1.142,0.139
			l0.553,0.139l1.867,0.069l0.691-0.14l0.483-0.068l0.657-0.347l0.276-0.067l0.415-0.208l0.519-0.347l0.553-0.588l0.139-0.346
			l1.141-1.21l1.279-0.553l0.347,0.207l0.346,0.068l0.449,0.554l0.068,0.449v1.244l-0.381,0.864l-0.275,0.622l-0.14,0.45
			l-0.207,0.553l-0.622,0.864l-0.311,0.415l-0.623,0.69l-0.587,0.656l-0.346,0.139l-0.346,0.554l-0.277,0.588l-0.519,0.898
			l-0.068,0.587l0.241,0.14l0.484,0.622l0.139,0.727l-0.208,0.76l-0.795,0.796l-0.553,0.347h-1.003l-0.346-0.14l-1.556-0.068
			l-0.864-0.276l-0.415,0.139l-0.415-0.208l-0.276,0.069l-0.449-0.207l-0.346-0.242l-0.691-0.139l-0.727-0.207l-1.21-0.691
			l-0.483-0.275l-0.346-0.312l-1.003-0.415h-0.207l-0.622-0.346l-1.867-0.276l-0.276,0.207l-0.484,0.277l-0.276,0.414l-0.242,0.519
			l-0.207,0.691l-0.208,0.277l-0.553,0.863l-0.519,0.068l-0.761,0.208l-0.483-0.139l-0.381-0.207l-0.207-0.276l-0.208-0.381
			l-0.276-0.415l-0.069-0.553l0.208-1.417v-0.52l0.276-1.693l0.346-0.969l0.069-0.242l0.588-1.556l0.207-0.275l-0.139-0.347
			l0.139-0.483l0.276-0.242l0.139-0.414l0.276-0.415l0.657-0.795l0.207-0.415l0.691-1.35l1.279-2.038l0.138-0.52l0.242-0.277
			l0.691-0.69l0.484-0.864l0.588-0.553l0.068-0.415l-0.864-0.242l-0.691,0.069l-2.351,0.588l-0.553-0.069l-0.795-0.449l-0.691-0.761
			l-0.139-0.553l0.207-0.935l0.139-0.483l0.276-0.449l0.208-0.138l1.002-0.623l0.484-0.068l0.449-0.139h1.037l0.207-0.069
			l0.588,0.069h0.208h0.553h0.657l0.691,0.139l0.587,0.138l0.415,0.069l1.279,0.139l0.415-0.483l0.138-0.52l0.208-0.275l0.138-0.347
			l0.45-0.208l0.207-0.587l0.276-0.276l0.139-0.483l0.483-0.346l0.519-0.864l0.208-0.415l1.071-1.417l0.554-0.864v-0.346
			l-0.934,0.207h-0.346l-0.346,0.139l-0.415-0.068l-0.864,0.138l-1.071-0.207l-1.349-0.207l-0.691-0.069l-0.726-0.139l-0.83-0.138
			h-0.726l-0.899,0.207l-0.519,0.346l-0.622,0.276l-0.415,0.448l-0.656,0.484l-0.761,0.346l-0.727,0.069l-0.414-0.069l-0.484-0.275
			l-0.207-0.415l-0.173-0.795l0.241-1.35l0.484-0.829l0.622-0.727l0.795-0.829l1.142-1.003l0.483-0.657l0.139-0.346l-0.139-0.553
			l-0.207-0.728v-0.968l0.207-0.38l0.276-0.415l0.796-0.484L290.563,432.651z"/>
		<path d="M322.125,432.928h0.415l0.934,0.207l1.071,0.484l1.279,0.795l0.898,0.795l0.52,0.208l0.414,0.553l0.483,0.069l0.207,0.415
			l0.52,0.38l1.278,0.415l0.347,0.276l0.483,0.139l0.276-0.069h0.449l0.69,0.14l0.657,0.138h0.554l0.414,0.312l0.276,0.482v0.554
			l-0.207,0.656l-0.554,0.623l-0.346,1.071l-0.068,0.346l-0.069,0.484v2.28l-0.173,1.142l0.104,0.483l-0.104,0.622l0.173,1.142
			l-0.068,1.625l0.068,0.449v1.764l-0.242,0.553l0.069,1.417v0.657l0.104,0.346l0.346,0.347l0.069,0.275v0.935l-0.069,0.83
			l0.139,0.448l0.139,0.347v0.863l0.068,0.483l0.069,1.349l0.207,0.347l0.415,0.139h0.312l0.347,0.068h0.346h0.483l0.727,0.588
			v0.968l-0.069,0.277l-0.275,0.519l-0.381,0.622l-0.554,0.727l-0.275-0.069l-0.208,0.346l-0.276,0.346l-0.312,0.347l-0.413,0.312
			l-0.069,0.276l-0.276,0.208l-0.483,0.346l-0.312,0.414l-0.067,0.588l0.067,0.276l0.208,0.277l0.38,0.795v-0.276l-0.207,1.313
			l-0.519,0.588l-0.415,0.138l-0.935,0.069l-0.968-0.276l-0.934-0.276l-0.483-0.241l-0.864-0.415v-0.276l-1.693-1.141l-0.346-0.484
			l-0.449-0.346l-0.691-0.657l-0.727-0.483l-0.347-0.483l-0.414-0.312l-0.622-0.208l-0.52,0.069l-0.829,0.519l-0.173,0.415
			l-0.139,1.486l0.795,0.83l0.208,0.795l-0.276,0.795l-1.142,0.415l-0.829,0.138l-0.728-0.067l-1.277-0.484l-0.97-0.38l-0.173-0.277
			l-0.482-0.553l-0.415-0.449l-0.727-0.483l-0.346-0.347l-0.415-0.138L314,467.643l-0.933-0.588l-0.347-0.14h-1.142l-0.276-0.138
			h-0.415l-0.519-0.415l-0.139-0.242l-0.207-0.484l0.207-0.828l0.415-0.52l0.312-0.208l0.554-0.553l0.414-0.657l0.208-0.553v-0.276
			v-0.449l0.242-0.69v-0.623l-0.173-0.38L312.133,459l0.138-0.381l0.174-0.346v-0.554l-0.174-0.346l-0.067-0.864l0.067-0.208
			l0.104-0.346l0.068-0.519l-0.068-2.179l-0.588-0.934v-0.622l0.346-0.449l0.52-0.415l0.275-0.138l1.003-0.139l1.105-0.14
			l0.312,0.069l0.969-0.139l0.275-0.139l0.381-0.068l0.483-0.069h0.864h0.346l0.277-0.068l1.141-0.519l0.346-0.277h0.864
			l0.691-0.482l0.726-0.52l0.554-0.691l0.207-1.071l0.207-0.554v-0.346v-0.312l0.45-0.898l-0.104-0.934l-0.139-0.622l-0.346-0.657
			l-1.141-1.21l-0.484-0.207l-0.415-0.207h-0.656l-0.969-0.554l-0.726-0.207H318.6l-1.21,0.207l-1.21,0.968l-0.276,0.519v0.691
			v0.727l0.208,0.483l0.346,0.139l0.864-0.275h0.275l0.276,0.138l0.657,0.069l0.897,0.727l0.069,0.276l0.069,0.275l0.068,0.691
			l-0.068,1.141l-0.347,0.657l-0.622,0.622l-1.003,0.484l-0.761,0.138h-0.864l-0.622-0.138l-0.655-0.28l-0.691-0.207l-0.933-0.934
			l-0.415-0.483v-0.415l-0.069-0.276l-0.312-0.139l-0.067-0.795l-0.208-0.795l0.068-1.037l0.069-0.346v-0.52l0.312-0.83l0.068-0.588
			l1.176-1.692l0.174-0.415l0.553-0.449l1.349-0.761l0.483-0.276l1.21-0.346l0.691-0.45l1.21-0.414l0.656-0.728l0.069-0.206
			l0.138-0.484l0.14-0.622l0.863-0.657L322.125,432.928z M324.614,451.111l-0.795,0.519l-0.554,0.346l-0.623,0.14h-0.448
			l-0.622,0.275l-0.449,0.415l-0.346-0.068h-0.415l-0.415,0.381l0.068,0.482l0.069,0.484l0.138,0.656l0.208,2.04l0.069,0.346
			l-0.208,0.52l0.069,0.83l-0.14,2.073v0.761l-0.655,0.656l0.588,0.069l0.414,0.069h0.863l0.415,0.067l0.415-0.067l1.35,0.067
			l0.726,0.14l0.83,0.207l-0.208-0.483l-0.207-0.276l-0.346-5.463l-0.208-1.141l0.276-0.691L324.614,451.111z"/>
		<path d="M353.931,433.343h0.935l1.105,0.449l0.242,0.346l0.483,0.139l0.554,0.208l0.519,0.415l0.414,0.067l0.347,0.14l0.656,0.519
			l0.554,0.484l1.071,0.655l1.142,0.347l2.04,0.208l0.414,0.138l0.068,0.277l0.795,0.275l0.069,0.52l-0.069,0.829l-0.655,0.934
			l-0.415,1.141l-0.207,0.899l-0.069,0.656v0.554v0.864l-0.069,0.415l-0.139,1.141l0.069,0.415l0.068,1.141L363.783,448l-0.52,1.349
			v0.276l-0.068,0.449l0.139,0.346v0.277v0.275l-0.207,1.625l0.207,0.207v1.071l0.173,1.694l0.14,0.656v0.554v0.864v0.275
			l-0.069,0.691v0.657v0.553l0.207,0.657l0.068,0.275l0.415,0.415l0.139,0.276l0.346,0.38l2.145,0.691l0.275,0.727l-0.067,0.761
			l-0.691,0.553l-0.728,0.449l-0.553,0.347l-0.449,0.346l-0.69,0.208l-0.864,1.002l-0.484,1.003l0.069,0.415l0.207,0.553v0.38
			l0.139,0.415l0.139,0.691l-0.139,0.449l-0.415,0.483l-0.69,0.276h-0.795l-0.415-0.207l-0.588-0.346l-0.483-0.208l-0.346-0.139
			l-0.45-0.519l-0.346-0.208l-0.347-0.483l-0.795-0.208l-0.068-0.655l-0.554-0.691l-0.346-0.276l-0.276-0.241l-0.448-0.276
			l-0.623-0.208l-0.414-0.207l-0.66-0.482l-0.207-0.726l0.068-0.554l0.863-0.796l0.347-0.207l0.415-0.69v-0.312l0.068-0.897
			l0.069-0.588l-0.139-0.276v-0.276l-0.069-0.554v-0.726l-0.207-1.557l0.069-0.863l-0.14-0.276l0.069-1.279l-0.069-0.208
			l-0.138-0.414v-0.346l0.138-0.519l0.069-0.277l0.069-0.414l0.068-0.415l0.347-0.242l-0.415-0.068V451.7l0.068-0.449l0.068-0.968
			l0.069-0.347l-0.069-0.727l0.069-0.346l-0.139-0.52l0.139-0.622l0.068-0.864l-0.068-0.415l0.139-0.553l0.449-2.074l0.139-0.621
			l0.414-0.276l-0.726-0.208l-0.554-0.312l-0.761-0.415l-0.449-0.346l-0.483-0.346h-0.276l-0.588-0.312l-0.898-0.622l-0.727-0.207
			l-1.071-0.139l-0.415,0.207l-0.207,0.484l0.068,0.38l0.346,0.623l0.312,0.414l0.139,0.519l0.068,0.415l0.139,0.899l0.069,1.797
			v0.208l0.068,0.275l-0.068,0.415l0.138,0.52v0.968l-0.068,0.657l-0.276,0.275l-0.449,0.207l0.449,0.276l0.068,0.381l0.276,1.486
			l0.069,0.69l0.068,0.484l0.069,0.52l-0.139,0.482l0.068,0.415l0.069,0.38v0.415l-0.069,0.276l-0.068,0.864v0.483l0.068,1.142
			l-0.346,1.556l-0.207,0.83l-0.381,0.449l-0.139,0.483v0.554l0.381,0.206l0.483,0.104l0.829,0.207l0.52,0.069l0.415,0.138
			l0.656,0.484v0.934l-0.241,0.622l-0.276,0.346l-0.761,0.864l-1.21,0.864l-0.208,0.275l-0.449,0.14l-0.346,1.002l-0.415,0.483
			l0.346,0.622l0.069,0.208l0.275,0.52l-0.067,0.897l-0.415,0.449l-1.35,0.415l-0.482-0.139l-0.728-0.276l-0.415-0.207l-0.482-0.657
			l-0.657-0.415l-0.898-0.587l-0.449-0.69l-0.276-0.208l-0.483-0.207l-0.657-0.52l-0.553-0.275h-0.346l-0.657-0.208l-0.276-0.139
			l-0.346-0.208l-0.346-0.346l-0.14-0.38l0.069-0.83l0.208-0.449l0.622-0.553l0.483-0.277l0.588-1.485l0.068-1.002l-0.068-0.484
			l0.068-0.864l0.207-0.346v-0.415l-0.067-0.346l0.138-0.589l-0.069-0.482v-0.449l0.069-0.277l-0.207-0.622v-0.863l0.346-0.898
			v-1.003c0-0.229-0.022-0.392-0.068-0.482l0.068-0.312v-0.553l-0.208-0.347l0.14-0.727l0.068-1.832v-1.141l-0.068-0.347v-0.622
			l-0.069-0.449l-0.069-0.276l-0.138-0.415v-0.276l0.069-0.275l0.138-0.312l-0.069-0.482l0.069-0.347l-0.346-1.349l-1.901-0.069
			l-0.311-0.067l-0.899-0.657l-0.207-0.83l0.415-1.071l0.414-0.483l0.277-0.068l0.449-0.519l0.415-0.484l0.482-0.553l0.657-0.657
			l-0.069-0.276l0.14-0.208l0.138-0.275v-0.312l-0.069-0.276l-0.067-0.276l-0.14-0.761l0.069-0.656l0.829-0.935l0.45-0.139
			l0.207,0.139l1.278,0.104l0.276,0.069l0.553,0.138l0.52,0.069l1.245,0.483h0.38l0.83,0.553l0.415,0.312l0.519,0.553l0.414,0.484
			l0.346,0.449l0.52,0.483l0.346,0.069l0.934-0.139l1.037-0.935l0.381-0.69l0.068-0.276l-0.311-0.727l0.241-0.829L353.931,433.343z"
			/>
		<path d="M373.602,433.204l0.727,0.069l0.622,0.068l0.208,0.276h0.346l0.588,0.38l0.554,0.622l0.346,0.139l0.312,0.14l0.347,0.38
			l0.897,0.554l0.52,0.483l0.622,0.863l0.483,0.347l0.449,0.068l0.761,0.069l0.38,0.138l0.555,0.381l0.482,0.622v0.207l-0.346,0.864
			l-0.553,0.969l-0.381,0.139l-0.414,0.173l-0.208,0.69l-0.207,1.279v0.207v0.415l-0.069,1.141l-0.139,1.694l0.068,1.003V448v0.796
			l-0.068,0.553l-0.068,0.657l-0.242,0.276l-0.275,0.968v0.38l0.38,0.691l0.275,0.139l0.276,0.657v1.037l-0.068,1.07l-0.588,0.347
			l0.656,0.449l-0.068,0.483l-0.068,0.553l0.138,0.52l0.069,2.766l0.139,0.899l0.138,0.346l0.208,0.312l0.588,0.275l0.483,0.14
			l0.484,0.275l0.38,0.347l0.275,0.312l-0.067,0.415l-0.208,0.414l-0.588,0.934l-0.622,0.347l-0.727,0.622l-0.83,0.727l-0.726,1.141
			l-0.139,0.276l-0.069,0.415l0.208,0.588l0.207,0.483v0.554l-0.207,0.519l-0.761,0.622l-1.21-0.139l-0.657-0.276l-0.553-0.207
			l-0.347-0.312l-0.795-0.622l-0.69-0.795l-0.347-0.069l-1.071-0.897l-0.934-0.45l-1.418-0.553l-0.346-0.069l-0.415-0.069
			l-0.449-0.207l-0.138-0.415l-0.277-0.311l-0.138-0.484l0.138-0.863l0.52-0.415l0.622-0.554l0.483-0.588l0.069-0.483l0.312-0.761
			l0.139-0.312l0.068-0.484l-0.068-0.482l0.208-0.796l-0.208-0.829l0.208-0.864v-1.417l0.067-0.864l-0.138-0.623l0.207-0.482
			l0.139-0.589v-0.897v-1.418v-0.727l-0.139-0.415l-0.276-0.795l0.069-0.415l0.275-0.483l-0.068-1.142l0.139-0.69l-0.068-0.38
			l-0.207-0.83l0.067-0.38l-0.067-1.106l-0.208-0.934l-0.242-0.483l-0.207-0.277h-0.554l-0.414-0.173l-0.312-0.275l-0.276-0.207
			l-0.139-0.622l0.139-1.003l0.52-0.484l0.415-0.519l0.275-0.139l0.727-0.622l0.484-0.588l0.139-0.415l0.346-0.415l0.38-0.275
			l0.069-0.312l-0.069-0.968l-0.312-0.934v-0.347l0.312-0.415l0.554-0.449L373.602,433.204z M375.157,420.171l0.795,0.069h0.346
			l0.553,0.449l0.208,0.346l0.242,0.068l0.483,0.484l0.898,1.002l0.312,0.415l0.208,0.276h0.276l0.863,0.727l0.347,0.139
			l0.553,0.621l0.588,0.797l-0.242,1.277l-1.485,1.003l-0.622-0.38l-0.276,0.276l-0.069,0.311v0.347l-0.208,0.276l-0.138,0.414
			l0.138,0.935l-0.067,0.415l-0.312,0.207l-0.275,0.519l-0.83,0.346h-0.727l-0.761-0.482l-0.449-0.14l-0.554-0.448l-0.414-0.554
			l-0.312-0.483l-0.346-0.312l0.069-0.346l-0.208-0.414l-1.142-0.277l-0.275-0.207l-0.415-0.312l-0.656-0.829l-0.139-0.934
			l0.588-1.004l0.968-0.69l1.071-0.622l0.588-0.449v-1.832l0.346-0.554L375.157,420.171z"/>
		<path d="M399.322,420.31l0.275,0.174l0.829-0.104l0.52,0.104l0.623,0.275l0.587,0.554l0.068,0.554l0.069,0.38v0.346l-0.276,0.622
			l-1.003,0.588l-0.346,0.069l-0.519,0.139l-0.762,0.347l-0.346,0.346l-0.311,0.38l-0.555,1.279l-0.138,0.275v0.276l-0.069,0.484
			l-0.068,1.21v0.795l-0.207,4.667l-0.173,2.04l-0.069,0.346l-0.139,0.519l0.312,0.554l-0.104,0.554l0.38,0.312v0.483l0.068,0.553
			l-0.139,0.52v0.761l-0.207,0.449l-0.242,0.83v0.415l0.14,0.38v0.276l-0.14,0.483l0.381,1.142v0.934l0.068,0.691v1.625
			l-0.207,0.206l-0.173,0.381v0.69l0.069,0.796l-0.069,0.554l-0.276,0.69l0.52,0.069l0.138,0.449v0.483v0.934l0.139,0.483
			l-0.068,0.347v1.417l0.068,0.656l-0.139,0.554l-0.207,0.623l0.139,0.519l0.207,0.76v0.588l0.14,0.415l0.067,0.347l0.069,0.657
			l0.208,0.553l0.138,0.483l0.449,0.241l1.556,0.415l0.691,0.622l0.069,0.277v0.726l-0.483,0.761l-1.003,0.864l-0.484,0.347
			l-0.207,0.519l-0.795,0.138l-0.346,0.277l-0.864,1.002l-0.208,0.484l0.415,0.934l0.381,0.346l0.139,0.691l-0.38,0.933
			l-0.555,0.555l-0.482,0.068l-0.657-0.139l-0.276-0.207h-0.346L395,471.304l-0.657-0.347l-0.483-0.588l-0.554-0.346l-0.726-0.415
			l-0.277-0.346l-0.275-0.381l-0.207-0.068l-0.795-0.553l-1.004-0.415l-0.761-0.381l-0.588-0.208l-0.553-0.275l-0.761-0.415
			l-0.242-0.207l-0.139-0.381l-0.139-0.691l0.346-0.726l0.382-0.347l0.275-0.139l0.691-0.346l0.519-1.002v-1.486l0.207-0.415
			l-0.207-0.346l-0.068-0.449l-0.069-0.346l0.208-0.347l0.138-1.142v-0.483l-0.138-0.863l0.346-0.208v-0.483l0.068-0.52l0.069-0.761
			l0.139-0.415l-0.139-0.38l-0.276-0.139v-0.829l-0.346-1.072l0.068-0.864l0.207-0.622l0.14-1.141l-0.069-0.415l0.139-1.556
			l0.068-0.795v-0.347l-0.207-0.622l0.139-0.381l-0.139-0.275l-0.139-1.832l0.068-1.21v-0.83v-0.52l0.069-0.553l0.276-0.657
			l0.414-0.415l-0.414-0.553l-0.347-1.003l-0.068-0.553l0.068-0.312l-0.068-0.275l0.139-0.347l-0.069-1.003l-0.068-1.175
			l-0.068-0.795l-0.139-4.529l-0.207-1.002l-0.104-0.69l-0.067-0.728l-0.97-1.105l-0.449-0.312l-0.415-0.622l-0.138-0.727
			l0.347-0.622l0.588-0.415l1.104-0.069l1.143,0.139l0.587,0.14l0.761,0.207h0.276l1.278,0.795l0.657,0.484l0.415,0.415l0.76,0.795
			l0.381,0.346l0.415-0.139l0.139-0.347l-0.276-0.449l0.691-1.763l0.38-0.415l0.898-1.278l1.002-0.415l0.623-0.312L399.322,420.31z"
			/>
		<path d="M416.676,420.31l0.276,0.174l0.829-0.104l0.519,0.104l0.623,0.275l0.587,0.554l0.069,0.554l0.069,0.38v0.346l-0.276,0.622
			l-1.003,0.588l-0.346,0.069l-0.52,0.139l-0.761,0.347l-0.346,0.346l-0.312,0.38l-0.554,1.279l-0.139,0.275v0.276l-0.068,0.484
			l-0.069,1.21v0.795l-0.207,4.667l-0.173,2.04l-0.069,0.346l-0.139,0.519l0.312,0.554l-0.104,0.554l0.38,0.312v0.483l0.069,0.553
			l-0.14,0.52v0.761l-0.207,0.449l-0.241,0.83v0.415l0.139,0.38v0.276l-0.139,0.483l0.381,1.142v0.934l0.067,0.691v1.625
			l-0.207,0.206l-0.173,0.381v0.69l0.069,0.796l-0.069,0.554l-0.275,0.69l0.519,0.069l0.139,0.449v0.483v0.934l0.139,0.483
			l-0.069,0.347v1.417l0.069,0.656l-0.139,0.554l-0.207,0.623l0.139,0.519l0.207,0.76v0.588l0.139,0.415l0.068,0.347l0.068,0.657
			l0.208,0.553l0.139,0.483l0.449,0.241l1.556,0.415l0.691,0.622l0.068,0.277v0.726l-0.482,0.761l-1.004,0.864l-0.483,0.347
			l-0.207,0.519l-0.795,0.138l-0.347,0.277l-0.863,1.002l-0.208,0.484l0.415,0.934l0.381,0.346l0.138,0.691l-0.38,0.933
			l-0.554,0.555l-0.483,0.068l-0.657-0.139l-0.275-0.207h-0.347l-0.207-0.139l-0.656-0.347l-0.484-0.588l-0.553-0.346l-0.727-0.415
			l-0.276-0.346l-0.276-0.381l-0.207-0.068l-0.795-0.553l-1.003-0.415l-0.761-0.381l-0.588-0.208l-0.554-0.275l-0.761-0.415
			l-0.242-0.207l-0.138-0.381l-0.139-0.691l0.346-0.726l0.381-0.347l0.276-0.139l0.69-0.346l0.52-1.002v-1.486l0.207-0.415
			l-0.207-0.346l-0.069-0.449l-0.069-0.346l0.208-0.347l0.139-1.142v-0.483l-0.139-0.863l0.347-0.208v-0.483l0.067-0.52l0.069-0.761
			l0.139-0.415l-0.139-0.38l-0.276-0.139v-0.829l-0.346-1.072l0.069-0.864l0.207-0.622l0.139-1.141l-0.069-0.415l0.14-1.556
			l0.067-0.795v-0.347l-0.207-0.622l0.14-0.381l-0.14-0.275l-0.139-1.832l0.069-1.21v-0.83v-0.52l0.068-0.553l0.276-0.657
			l0.415-0.415l-0.415-0.553l-0.346-1.003l-0.069-0.553l0.069-0.312l-0.069-0.275l0.139-0.347l-0.068-1.003l-0.069-1.175
			l-0.068-0.795l-0.139-4.529l-0.207-1.002l-0.104-0.69l-0.068-0.728l-0.969-1.105l-0.449-0.312l-0.415-0.622l-0.138-0.727
			l0.346-0.622l0.588-0.415l1.105-0.069l1.142,0.139l0.587,0.14l0.761,0.207h0.276l1.279,0.795l0.656,0.484l0.415,0.415l0.761,0.795
			l0.381,0.346l0.415-0.139l0.138-0.347l-0.275-0.449l0.69-1.763l0.38-0.415l0.899-1.278l1.002-0.415l0.623-0.312L416.676,420.31z"
			/>
		<path d="M433.442,432.928h0.38l0.761,0.069l1.625,0.795l0.346,0.553l0.656,0.208l2.247,1.693l0.588,0.277l1.037,0.587l0.312,0.139
			l0.415,0.139l0.414,0.139l1.003,0.415l0.864,0.241l1.106,0.762l0.138,0.795l-0.068,0.415l-0.208,0.414l-0.207,0.276l-0.208,1.002
			l0.069,0.415v0.449l-0.276,0.968l-0.139,0.935l0.208,1.072l-0.208,0.76v0.346l0.069,0.45l-0.069,0.346v0.934l-0.138,0.346v0.623
			l0.068,0.449l-0.068,0.829v0.554l0.138,0.311l0.069,0.555l-0.069,0.415l-0.138,0.655l0.207,0.762v0.588l-0.069,0.346l-0.207,1.348
			l-0.173,0.277l0.312,0.207l-0.139,0.276l0.276,1.798l0.139,0.968l-0.139,0.208l0.068,0.449l-0.068,0.346l0.208,0.622l0.622,0.207
			l0.588,0.796v0.276l-0.312,0.519l-0.275,0.415l-0.276,0.138l-0.934,0.208l-0.276,0.139l-0.346,0.208h-0.484l-0.519,0.067
			l-0.484,0.208l-0.553,0.174l-1.35,0.621l-0.726,0.207l-1.279,0.484l-0.275,0.173l-1.557,0.691l-0.553,0.483l-0.277,0.449
			l0.069,0.554l0.346,0.656l0.14,0.829l-0.276,0.554l-1.21,0.796l-0.864-0.069l-0.346-0.138l-0.277-0.069l-0.207-0.208l-0.934-0.587
			l-0.761-0.139l-0.139-0.276l-0.588-0.069l-0.275-0.139l-0.276-0.207l-0.52-0.207l-0.276-0.312l-1.142-0.621l-0.897-0.796
			l-1.832-0.829l-0.52-0.207l-0.415-0.208l-0.346-0.174h-0.275l-0.864-0.415l-0.484-0.138l-0.449-0.622l0.207-0.727l0.864-1.002
			l0.139-0.415l0.276-0.622l0.207-0.796l0.104-0.829l0.067-0.208l0.208-1.59l0.069-1.625l0.346-0.276l-0.415-0.415v-1.002v-0.899
			v-0.311l-0.068-0.415l0.139-0.622l-0.069-0.381l-0.068-0.968l0.275-0.935v-0.415l-0.275-0.482l0.068-0.449l0.207-0.691
			l-0.275-0.276l-0.069-0.656v-0.276v-0.657l0.139-0.346l-0.139-0.415l-0.069-0.482l0.069-1.072l-0.069-0.553l-0.067-1.21
			l-0.382-0.935l-0.415-0.275l-0.413-0.484l-0.14-0.588l0.069-0.207l0.207-0.347l0.139-0.275l0.829-0.381l0.728-0.207l0.621-0.069
			l0.935-0.207l0.415-0.069l0.933-0.275l0.935-0.346l1.556-0.449l0.622-0.555l0.864-0.482l0.623-0.588l0.346-0.622l0.138-0.45
			l-0.068-0.761l0.068-0.276l0.312-0.519l0.553-0.415L433.442,432.928z M431.887,440.222l-0.554,0.208v0.415l0.069,0.312
			l0.275,0.554v1.348l0.069,1.279v0.898l0.069,0.312v0.207v0.346v0.691v0.381v0.346l-0.069,0.554l0.139,0.449v1.105l0.069,0.449
			l0.068,0.554l-0.139,0.622l-0.139,0.726l0.484,1.072v0.276l-0.347,0.897l0.069,0.52l-0.069,0.554l-0.208,0.588l0.14,0.276
			l-0.14,0.691l-0.138,1.348l-0.139,0.864l-0.276,0.623l-0.38,0.795l-0.14,0.346l0.312,0.346l1.037,0.415l0.449,0.068h0.275
			l0.898,0.242h0.657l0.346,0.068l1.417,0.276h0.415l0.727-0.069l0.139-0.519v-0.276l-0.795-0.897l-0.415-0.728l-0.207-1.348
			l0.068-0.484l0.139-1.763l0.068-0.728v-0.413l-0.068-0.208l0.068-0.656L436,453.809l0.069-1.21l0.483-0.483l0.069-0.276
			l-0.415-0.795l0.069-0.623l0.346-0.795l-0.484-0.553v-0.347L436,447.862v-1.35l-0.138-0.553l0.138-0.657v-0.761l0.139-0.483
			l-0.068-0.656l0.139-0.554l0.276-0.588v-0.553l-1.037,0.276l-0.449-0.14l-0.484-0.138l-0.553-0.346l-0.519-0.382l-0.415-0.415
			l-0.935-0.275L431.887,440.222z"/>
	</g>
	<g>
		<path d="M214.917,481.959v13.781c0,0.819-0.051,1.521-0.154,2.102c-0.103,0.582-0.297,1.058-0.584,1.426
			c-0.287,0.369-0.687,0.641-1.2,0.812s-1.179,0.256-2,0.256h-1.312v-1.969c0.492,0,0.906-0.015,1.241-0.041
			c0.335-0.027,0.605-0.123,0.81-0.287c0.205-0.164,0.352-0.424,0.441-0.779c0.089-0.354,0.133-0.86,0.133-1.518V481.96
			L214.917,481.959L214.917,481.959z"/>
		<path d="M225.521,500.529c-0.766,0-1.427-0.092-1.984-0.272c-0.557-0.181-1.03-0.431-1.42-0.748
			c-0.39-0.317-0.704-0.693-0.943-1.128c-0.239-0.435-0.426-0.899-0.559-1.399c-0.134-0.498-0.224-1.021-0.272-1.568
			c-0.048-0.547-0.072-1.094-0.072-1.641V481.96h2.625v11.82c0,0.328,0.003,0.67,0.01,1.024c0.007,0.355,0.036,0.703,0.087,1.042
			c0.051,0.338,0.128,0.661,0.23,0.971c0.103,0.308,0.251,0.575,0.446,0.805c0.194,0.229,0.442,0.412,0.743,0.549
			c0.301,0.137,0.67,0.205,1.107,0.205s0.807-0.068,1.107-0.205s0.549-0.319,0.743-0.549c0.195-0.229,0.344-0.497,0.446-0.805
			c0.103-0.31,0.18-0.633,0.23-0.971c0.052-0.339,0.081-0.687,0.087-1.042c0.006-0.354,0.01-0.696,0.01-1.024v-11.82h2.625v11.812
			c0,0.547-0.024,1.094-0.072,1.641c-0.048,0.547-0.138,1.07-0.272,1.568c-0.133,0.5-0.319,0.966-0.559,1.399
			c-0.239,0.435-0.554,0.811-0.943,1.128c-0.39,0.317-0.863,0.567-1.42,0.748C226.948,500.438,226.287,500.529,225.521,500.529z"/>
		<path d="M243.448,500.334l-4.696-12.224v12.224h-2.625v-18.375h1.723l4.84,11.997v-11.997h2.625v18.375H243.448z"/>
		<path d="M256.575,491.803h-3.281v6.562h4.594v1.969h-7.219v-18.375h7.219v1.969h-4.594v5.906h3.281V491.803z"/>
		<path d="M275.424,481.959h2.617l-5.914,18.375h-2.617L275.424,481.959z"/>
		<path d="M298.852,484.584h-5.496l-0.41,4.45c0.205-0.123,0.445-0.232,0.72-0.328c0.233-0.082,0.515-0.157,0.847-0.226
			c0.332-0.068,0.713-0.104,1.144-0.104c0.715,0,1.318,0.131,1.811,0.393c0.491,0.264,0.888,0.633,1.188,1.107
			c0.301,0.477,0.519,1.043,0.652,1.699c0.133,0.656,0.2,1.379,0.2,2.168c0,0.501-0.021,1.016-0.062,1.544s-0.118,1.044-0.23,1.544
			c-0.113,0.501-0.272,0.977-0.479,1.426c-0.205,0.45-0.476,0.841-0.811,1.174c-0.336,0.333-0.742,0.598-1.22,0.793
			c-0.479,0.195-1.049,0.293-1.712,0.293c-0.957,0-1.737-0.144-2.342-0.431s-1.08-0.677-1.425-1.169
			c-0.345-0.492-0.582-1.068-0.712-1.728c-0.13-0.66-0.195-1.362-0.195-2.107h2.625v0.402c0,0.35,0.019,0.694,0.055,1.037
			c0.037,0.342,0.12,0.648,0.249,0.921c0.129,0.271,0.321,0.492,0.576,0.664c0.255,0.171,0.6,0.257,1.035,0.257
			c0.422,0,0.764-0.088,1.025-0.266c0.261-0.177,0.467-0.438,0.613-0.782c0.147-0.348,0.248-0.778,0.302-1.299
			c0.055-0.519,0.082-1.124,0.082-1.815c0-0.517-0.005-1.007-0.015-1.477c-0.01-0.468-0.067-0.878-0.172-1.23
			c-0.105-0.354-0.285-0.632-0.537-0.839c-0.253-0.207-0.621-0.312-1.107-0.312c-0.262,0-0.506,0.05-0.731,0.148
			c-0.226,0.1-0.428,0.225-0.606,0.374c-0.178,0.15-0.331,0.314-0.458,0.492c-0.127,0.179-0.224,0.346-0.29,0.503h-2.235v-9.905
			h8.121V484.584L298.852,484.584z"/>
		<path d="M303.551,493.771h3.938v1.969h-3.938V493.771z"/>
		<path d="M310.874,481.959h7.352v1.262l-3.239,17.113h-2.625l3.362-16.222h-4.85V481.959z"/>
		<path d="M335.763,481.959h2.617l-5.914,18.375h-2.617L335.763,481.959z"/>
		<path d="M350.341,487.865v-0.656c0-0.82,0.086-1.565,0.257-2.235s0.44-1.24,0.811-1.712c0.369-0.473,0.845-0.838,1.426-1.098
			s1.281-0.39,2.102-0.39c0.821,0,1.521,0.127,2.104,0.38s1.056,0.594,1.425,1.024s0.64,0.938,0.812,1.519
			c0.171,0.581,0.256,1.199,0.256,1.854c0,0.492-0.039,0.953-0.117,1.386c-0.079,0.43-0.2,0.853-0.364,1.266
			c-0.164,0.414-0.369,0.831-0.615,1.251c-0.245,0.421-0.536,0.87-0.872,1.349l-4.594,5.906h6.562v2.625h-9.197v-2.625l4.604-6.562
			c0.466-0.663,0.829-1.232,1.094-1.707c0.263-0.477,0.459-0.888,0.589-1.236c0.13-0.348,0.211-0.652,0.241-0.912
			s0.046-0.506,0.046-0.738c0-0.328-0.041-0.648-0.123-0.964c-0.082-0.314-0.205-0.595-0.369-0.841s-0.369-0.444-0.615-0.595
			c-0.246-0.151-0.533-0.227-0.86-0.227c-0.328,0-0.615,0.079-0.861,0.236s-0.451,0.379-0.615,0.666s-0.287,0.633-0.369,1.035
			c-0.082,0.403-0.123,0.852-0.123,1.344v0.656H350.341z"/>
		<path d="M369.149,500.519c-0.589,0-1.158-0.101-1.714-0.303c-0.553-0.201-1.044-0.521-1.471-0.958
			c-0.428-0.438-0.77-1-1.024-1.688c-0.258-0.688-0.386-1.517-0.386-2.486v-7.875c0-0.827,0.084-1.534,0.251-2.123
			c0.168-0.587,0.386-1.083,0.651-1.486c0.266-0.402,0.567-0.725,0.902-0.964c0.335-0.238,0.673-0.424,1.016-0.554
			c0.341-0.13,0.668-0.214,0.979-0.251c0.312-0.038,0.576-0.057,0.796-0.057c0.219,0,0.482,0.019,0.795,0.057
			c0.311,0.037,0.637,0.121,0.979,0.251s0.681,0.314,1.017,0.554c0.335,0.24,0.636,0.562,0.901,0.964
			c0.267,0.403,0.483,0.899,0.651,1.486c0.167,0.589,0.251,1.296,0.251,2.123v7.875c0,0.971-0.128,1.8-0.385,2.486
			c-0.257,0.688-0.599,1.25-1.025,1.688c-0.427,0.438-0.918,0.757-1.471,0.958C370.308,500.418,369.737,500.519,369.149,500.519z
			 M369.149,498.365c0.286,0,0.535-0.056,0.747-0.164c0.213-0.109,0.392-0.253,0.533-0.432c0.146-0.178,0.263-0.383,0.354-0.614
			c0.092-0.232,0.162-0.471,0.21-0.713s0.08-0.481,0.098-0.719c0.018-0.234,0.025-0.448,0.025-0.641v-7.875
			c0-0.198-0.005-0.417-0.017-0.656c-0.01-0.239-0.036-0.479-0.082-0.723c-0.044-0.243-0.106-0.479-0.188-0.708
			c-0.082-0.229-0.196-0.432-0.344-0.61c-0.146-0.177-0.33-0.318-0.55-0.425c-0.219-0.105-0.48-0.159-0.788-0.159
			c-0.309,0-0.571,0.054-0.789,0.159c-0.221,0.105-0.402,0.248-0.55,0.425c-0.146,0.18-0.262,0.382-0.344,0.61
			s-0.146,0.465-0.188,0.708c-0.045,0.242-0.072,0.483-0.082,0.723c-0.012,0.239-0.017,0.458-0.017,0.656v7.875
			c0,0.191,0.009,0.405,0.025,0.641c0.018,0.236,0.05,0.477,0.098,0.719s0.118,0.479,0.21,0.713c0.093,0.231,0.21,0.438,0.354,0.614
			c0.143,0.179,0.319,0.321,0.532,0.432C368.612,498.311,368.862,498.365,369.149,498.365z"/>
		<path d="M378.441,483.928c0.376-0.137,0.73-0.301,1.065-0.492c0.287-0.163,0.577-0.368,0.871-0.614s0.523-0.533,0.688-0.861h1.969
			v18.375h-2.625v-14.438h-1.969V483.928z"/>
		<path d="M392.656,500.519c-0.82,0-1.521-0.127-2.103-0.38c-0.582-0.252-1.057-0.594-1.426-1.024s-0.64-0.937-0.811-1.519
			c-0.171-0.58-0.257-1.198-0.257-1.854v-0.656h2.625c0,0.656,0.041,1.196,0.123,1.62s0.205,0.759,0.369,1.005
			s0.369,0.417,0.615,0.513c0.246,0.097,0.533,0.145,0.861,0.145s0.614-0.048,0.86-0.145c0.246-0.096,0.451-0.267,0.615-0.513
			s0.287-0.581,0.369-1.005s0.123-0.964,0.123-1.62c0-0.492-0.045-0.938-0.133-1.344c-0.091-0.402-0.236-0.748-0.441-1.035
			s-0.476-0.509-0.811-0.666s-0.748-0.236-1.24-0.236v-2.625c0.492,0,0.905-0.044,1.24-0.133s0.604-0.236,0.811-0.44
			c0.206-0.205,0.353-0.476,0.441-0.812c0.088-0.334,0.133-0.748,0.133-1.24c0-0.491-0.041-0.904-0.123-1.239
			s-0.205-0.605-0.369-0.812s-0.369-0.352-0.615-0.44s-0.532-0.134-0.86-0.134s-0.615,0.048-0.861,0.145
			c-0.246,0.096-0.451,0.267-0.615,0.513s-0.287,0.581-0.369,1.005s-0.123,0.964-0.123,1.62h-2.625v-0.656
			c0-0.655,0.086-1.273,0.257-1.854s0.44-1.088,0.811-1.519c0.369-0.432,0.844-0.771,1.426-1.024c0.58-0.253,1.281-0.38,2.103-0.38
			c0.82,0,1.521,0.127,2.102,0.38s1.058,0.594,1.426,1.024c0.369,0.431,0.64,0.938,0.812,1.519c0.17,0.581,0.256,1.199,0.256,1.854
			c0,0.41-0.038,0.781-0.113,1.112c-0.075,0.332-0.174,0.628-0.297,0.888c-0.123,0.261-0.264,0.488-0.42,0.688
			c-0.158,0.198-0.318,0.369-0.481,0.513c-0.384,0.335-0.82,0.581-1.312,0.738c0.492,0.164,0.93,0.438,1.312,0.82
			c0.163,0.163,0.323,0.359,0.481,0.59c0.156,0.229,0.297,0.497,0.42,0.805s0.222,0.658,0.297,1.051
			c0.075,0.395,0.113,0.836,0.113,1.328c0,0.82-0.086,1.565-0.256,2.235c-0.172,0.67-0.441,1.241-0.812,1.712
			c-0.368,0.473-0.845,0.838-1.426,1.098S393.477,500.519,392.656,500.519z"/>
	</g>
	<path d="M190.231,480.512l2.764,5.605l6.317,0.964l-4.631,4.288l1.008,6.139l-5.625-2.956l-5.695,2.83l1.155-6.114l-4.528-4.391
		l6.339-0.822L190.231,480.512z"/>
	<path d="M418.231,480.512l2.765,5.605l6.316,0.964l-4.632,4.288l1.009,6.139l-5.625-2.956l-5.695,2.83l1.154-6.114l-4.527-4.391
		l6.338-0.822L418.231,480.512z"/>
	<line fill="none" x1="203.154" y1="540.525" x2="118.333" y2="527"/>
</g>
</svg>
