<?xml version="1.0" encoding="utf-8"?>
<!-- Generator: Adobe Illustrator 16.0.0, SVG Export Plug-In . SVG Version: 6.00 Build 0)  -->
<!DOCTYPE svg PUBLIC "-//W3C//DTD SVG 1.1//EN" "http://www.w3.org/Graphics/SVG/1.1/DTD/svg11.dtd">
<svg version="1.1" id="Layer_1" xmlns="http://www.w3.org/2000/svg" xmlns:xlink="http://www.w3.org/1999/xlink" x="0px" y="0px"
	 width="597.903px" height="478.73px" viewBox="0 156.269 597.903 478.73" enable-background="new 0 156.269 597.903 478.73"
	 xml:space="preserve">
<polygon fill="#A0CBBB" points="598,532.307 511.395,532.307 564,157.269 598,157.269 "/>
<linearGradient id="SVGID_1_" gradientUnits="userSpaceOnUse" x1="630.9102" y1="437.3438" x2="483.9101" y2="457.3437" gradientTransform="matrix(1 0 0 -1 0 793)">
	<stop  offset="0" style="stop-color:#FFFFFF;stop-opacity:0"/>
	<stop  offset="1" style="stop-color:#224D59"/>
</linearGradient>
<polygon fill="url(#SVGID_1_)" points="598,532.307 511.395,532.307 564,158.266 598,158.266 "/>
<linearGradient id="SVGID_2_" gradientUnits="userSpaceOnUse" x1="443.1387" y1="462.3877" x2="549.8039" y2="435.0544" gradientTransform="matrix(1 0 0 -1 0 793)">
	<stop  offset="0" style="stop-color:#FFFFFF;stop-opacity:0"/>
	<stop  offset="1" style="stop-color:#000000"/>
</linearGradient>
<polygon fill="url(#SVGID_2_)" points="510.433,156.269 481.262,156.269 445.262,288.964 464.662,527.715 518.532,463.782 
	553.348,302.767 556.014,188.332 "/>
<ellipse opacity="0.1" enable-background="new    " cx="371.568" cy="617.499" rx="81.323" ry="17.5"/>
<g>
	<g>
		<path d="M350.438,623.924c-11.255,0-21.348-2.807-21.771-2.927l-1.8-0.508l-0.403-1.826c-0.077-0.351-7.904-35.313-23.12-63.21
			c-2.228-4.085-4.163-10.171-0.728-15.96c4.377-7.376,16.508-11.778,32.448-11.778c15.823,0,34.088,4.627,39.219,14.963
			l0.161,0.321l0.082,0.348c8.434,35.535,6.807,49.153,4.926,64.922l-0.212,1.788l-0.251,0.491
			C374.571,619.299,364.699,623.924,350.438,623.924z"/>
		<path d="M335.064,530.839c15.646,0,32.164,4.654,36.423,13.229c8.523,35.92,6.632,48.935,4.715,65.073
			c-4.674,9.255-15.637,11.658-25.765,11.658c-10.951,0-20.924-2.809-20.924-2.809s-7.81-35.4-23.427-64.034
			C297.421,538.071,315.562,530.839,335.064,530.839 M335.064,524.592c-7.445,0-14.414,0.973-20.15,2.808
			c-7.166,2.292-12.208,5.823-14.983,10.501c-2.311,3.893-4.069,10.355,0.673,19.05c15.018,27.535,22.735,62.042,22.811,62.388
			l0.805,3.652l3.603,1.015c0.439,0.124,10.936,3.043,22.617,3.043c6.584,0,12.356-0.934,17.159-2.771
			c6.549-2.508,11.318-6.652,14.181-12.319l0.497-0.982l0.131-1.097l0.146-1.238c1.918-16.064,3.572-29.938-4.986-66.014
			l-0.166-0.695l-0.317-0.642c-1.506-3.033-3.978-5.742-7.347-8.056c-2.801-1.922-6.229-3.575-10.19-4.913
			C352.428,525.916,343.736,524.592,335.064,524.592L335.064,524.592z"/>
	</g>
	<g>
		<path d="M310.488,565.771c-7.945,0-15.292-0.854-21.839-2.543c-12.102-3.119-22.07-8.794-29.628-16.869
			c-6.046-6.463-10.54-14.433-13.354-23.693c-4.746-15.616-3.085-29.408-3.012-29.986l0.288-2.277l128.452-23.138l0.465,0.057
			c3.651,0.436,89.576,10.718,101.119,13.865l1.349,0.367l0.624,1.248c8.555,17.11,6.857,30.722,3.931,39.127
			c-3.206,9.201-8.517,14.302-8.741,14.515l-1.017,0.964l-49.41-4.205c-3.467,1.834-17.319,8.986-35.513,16.041
			C364.753,556.783,336.177,565.771,310.488,565.771z"/>
		<path d="M371.487,470.422c0,0,89.216,10.653,100.668,13.777c15.618,31.233-4.165,49.977-4.165,49.977l-48.937-4.163
			c0,0-59.771,32.638-108.565,32.638c-7.353,0-14.448-0.74-21.059-2.444c-50.498-13.015-43.677-67.137-43.677-67.137
			L371.487,470.422 M371.3,464.107l-0.919,0.165l-125.735,22.648l-4.517,0.812l-0.575,4.554c-0.076,0.604-1.814,15.04,3.123,31.285
			c4.669,15.359,16.299,35.234,45.193,42.682c6.8,1.752,14.41,2.641,22.618,2.641c11.631,0,24.766-1.775,39.038-5.277
			c11.29-2.772,23.335-6.628,35.802-11.462c17.356-6.731,30.509-13.394,35.035-15.765l47.097,4.009l2.792,0.237l2.034-1.928
			c0.619-0.585,6.146-6.011,9.542-15.753c2.009-5.763,2.851-11.857,2.503-18.116c-0.425-7.659-2.642-15.543-6.588-23.437
			l-1.249-2.497l-2.696-0.734c-11.562-3.153-92.391-12.856-101.57-13.955L371.3,464.107L371.3,464.107z"/>
	</g>
	<g>
		<path fill="#B89656" d="M472.257,384.694c-7.632-0.001-16.824-3.475-27.317-10.326l-0.144-0.093l-0.132-0.109
			c-23.098-18.974-51.22-32.737-83.584-40.906c-27.244-6.876-51.798-8.321-67.6-8.321c-11.003,0-17.733,0.711-17.799,0.718
			l-1.232,0.133l-24.993-18.931l4.884-2.134c0.585-0.255,14.585-6.332,36.73-12.494c20.433-5.685,51.852-12.46,85.506-12.46
			c27.416,0,52.4,4.435,74.328,13.186c1.344-3.608,3.298-6.479,5.834-8.562c3.003-2.466,6.83-3.77,11.067-3.77
			c9.862,0,21.605,7.045,27.317,16.386c3.138,5.133,3.913,10.277,2.238,14.644c1.625,5.312,2.601,13.592,2.572,22.078
			c-0.023,8.056-0.936,20.192-5.126,32.249C489.433,381.446,479.578,384.694,472.257,384.694
			C472.258,384.694,472.258,384.694,472.257,384.694z"/>
		<path fill="#31738B" d="M290.454,294.958v7.808c0,0,120.081-1.813,171.289,47.442c8.968,13.289-5.15,12.683-5.15,12.683
			s-8.403-5.122-23.818-0.318c-70.188-40.751-142.53-37.275-142.53-37.275l-11.866-15.568l7.786-14.087L290.454,294.958z"/>
		<path d="M376.576,282.896c25.189,0,51.601,3.772,76.315,14.259c2.333-9.711,8.236-13.404,14.914-13.404
			c14.19,0,31.877,16.681,26.216,27.743c3.121,8.721,5.041,32.74-2.164,53.464c-3.335,9.594-9.298,16.612-19.601,16.612
			c-6.604,0-14.989-2.883-25.612-9.817c-53.734-44.141-121.349-49.936-153.166-49.936c-11.336,0-18.134,0.735-18.134,0.735
			l-19.755-14.963C255.591,307.589,312.106,282.894,376.576,282.896 M376.576,276.648L376.576,276.648
			c-15.036,0-30.883,1.325-47.096,3.937c-12.938,2.085-26.144,4.991-39.249,8.637c-22.354,6.22-36.549,12.382-37.143,12.641
			l-9.768,4.268l8.497,6.437l19.755,14.964l1.978,1.498l2.467-0.267c0.062-0.007,6.662-0.7,17.461-0.7
			c15.626,0,39.904,1.426,66.837,8.226c31.914,8.056,59.627,21.612,82.363,40.292l0.266,0.216l0.286,0.187
			c11.165,7.292,20.66,10.834,29.025,10.834c6.481,0,12.083-2.143,16.653-6.369c3.742-3.459,6.719-8.318,8.848-14.44
			c4.334-12.465,5.274-24.97,5.3-33.265c0.026-8.396-0.863-16.381-2.418-22.006c1.554-5.04,0.579-10.745-2.852-16.355
			c-2.902-4.746-7.428-9.175-12.74-12.466c-3.984-2.47-10.213-5.414-17.242-5.414c-4.969,0-9.481,1.55-13.051,4.48
			c-2.239,1.838-4.08,4.173-5.508,6.98C427.639,280.789,403.229,276.65,376.576,276.648L376.576,276.648L376.576,276.648z"/>
	</g>
	
		<linearGradient id="SVGID_3_" gradientUnits="userSpaceOnUse" x1="525.0342" y1="450.2539" x2="743.0342" y2="406.2539" gradientTransform="matrix(1 0 0 -1 0 793)">
		<stop  offset="0" style="stop-color:#FFFFFF"/>
		<stop  offset="1" style="stop-color:#000000"/>
	</linearGradient>
	<path fill="url(#SVGID_3_)" d="M512.035,156.269l1.647,35.904l-9.424,11.784l4.712,18.854L498.37,238.13v18.854l-16.492,22.389
		l4.712,20.032l-14.701,30.935l8.922,16.737l-1.287,15.961c0,0,17.67-2.946,29.448,2.356c22.846,13.565,6.408,35.243,6.408,35.243
		s20.108,25.779-6.689,44.635c5.89,29.459-32.341,25.663-32.341,25.663l3.174,15.832l-12.095,45.539l58.475-0.038l72-376
		L512.035,156.269L512.035,156.269z"/>
	<g>
		<path fill="#B89656" d="M270.231,496.762c-14.363,0-24.554-0.568-24.656-0.575l-2.226-0.125l-0.604-2.146
			c-0.226-0.798-22.73-80.262-41.573-107.628c-3.254-4.727-4.218-10.191-2.866-16.244c2.745-12.279,15.139-27.017,36.836-43.8
			c15.881-12.286,31.214-21.263,31.367-21.352l1.856-1.083l1.675,1.347c0.101,0.081,2.523,2.035,6.658,5.853
			c3.946,3.642,29.301,30.955,37.042,41.022c12.153,15.808,23.119,32.699,32.592,50.208c11.661,21.552,21.13,44.188,28.142,67.274
			l0.379,1.249l-0.619,1.146c-2.901,5.368-8.706,9.921-17.258,13.528c-7.066,2.984-16.208,5.421-27.173,7.24
			c-20.344,3.376-43.624,4.085-59.57,4.085C270.233,496.762,270.233,496.762,270.231,496.762z"/>
		<path d="M268.084,307.589c0,0,2.393,1.924,6.498,5.713c3.941,3.639,29.235,30.941,36.686,40.632
			c21.06,27.391,45.056,66.552,60.221,116.488c-10.903,20.172-67.86,23.216-101.256,23.216c-14.441,0-24.479-0.568-24.479-0.568
			s-22.648-80.438-42.006-108.552C184.388,356.402,268.084,307.589,268.084,307.589 M268.65,300.027l-3.713,2.165
			c-0.632,0.368-15.663,9.17-31.705,21.579c-9.523,7.367-17.414,14.481-23.453,21.144c-8.088,8.924-12.838,16.921-14.52,24.446
			c-0.735,3.291-0.862,6.492-0.375,9.515c0.53,3.281,1.78,6.371,3.716,9.183c18.548,26.938,40.914,105.908,41.138,106.703
			l1.208,4.291l4.451,0.254c0.417,0.023,10.381,0.578,24.833,0.578c16.065,0,39.53-0.716,60.085-4.128
			c25.561-4.241,40.824-11.558,46.665-22.364l1.239-2.293l-0.757-2.492c-7.073-23.29-16.622-46.119-28.384-67.855
			c-9.552-17.654-20.606-34.687-32.862-50.625c-7.81-10.158-33.414-37.734-37.399-41.414c-4.213-3.89-6.716-5.908-6.82-5.991
			L268.65,300.027L268.65,300.027z"/>
	</g>
	<path fill="#31738B" d="M212.767,400.613h8.008c0,0,31.906,49.686,74.068,65.357c19.03,31.343,41.418,7.43,41.418,7.43
		l11.655,11.974c0,0,19.617-4.906,23.57-14.952c-24.778-93.254-98.504-158.581-98.504-158.581l-5.926,2.776l3.538,3.547
		c0,0,9.822,1.102,13.864,5.426c4.043,4.324-0.237,16.333-0.237,16.333l20.188,40.734l-54.251-19.352
		c0,0,16.394-25.778,18.783-35.458c0.557-2.946,5.224-6.415,13.173-1.027c-1.708-8.076-11.624-4.717-11.624-4.717l-3.433-5.486
		L209,393.221L212.767,400.613z"/>
	<path d="M267.962,309.995l5.054,4.995c0,0,5.8-2.479,9.851,0c6.752,4.134,12.007,14.969,2.11,22.128
		c1.853,6.401,1.348,17.351,1.348,17.351l-7.58-17.183c0,0,5.727-5.728,3.369-12.466c-2.358-6.739-11.624-4.717-11.624-4.717
		l-4.188-7.75L267.962,309.995z"/>
	<path d="M324.57,437.606c-11.483,0-20.826,9.342-20.826,20.821c0,11.483,9.343,20.824,20.826,20.824
		c11.479,0,20.821-9.341,20.821-20.824C345.393,446.948,336.051,437.606,324.57,437.606z"/>
	<g>
		<path fill="#B89656" d="M401.753,473.4c-29.349,0-55.354-3.329-77.299-9.896c-15.353-4.593-30.661-11.67-45.501-21.031
			c-11.842-7.47-23.415-16.403-34.398-26.558c-18.704-17.288-29.089-31.933-29.521-32.547l-0.811-1.152l0.326-1.369
			c0.058-0.243,1.439-6.013,3.834-11.881c3.671-8.994,7.735-13.365,12.426-13.365c0.186,0,0.374,0.007,0.558,0.021l0.332,0.026
			l0.317,0.095c9.771,2.917,19.081,5.849,28.083,8.685c24.267,7.644,45.224,14.245,63.077,16.722
			c13.633,1.892,26.574,2.852,38.466,2.852c22.452,0,37.487-3.44,46.146-6.327c9.347-3.115,13.461-6.268,13.501-6.299l0.226-0.179
			l0.241-0.125c0.87-0.461,21.455-11.308,34.837-11.308c3.589,0,6.504,0.778,8.667,2.313c1.292,0.917,2.786,2.452,3.633,4.936
			c7.764-1.519,14.653-2.288,20.523-2.288c7.872,0,14.181,1.386,18.751,4.123c4.081,2.443,6.812,5.925,8.111,10.349
			c1.353,4.595,1.075,9.558-0.775,13.973c-1.312,3.13-3.36,5.833-5.937,7.889c6.66,6.518,9.962,13.162,9.823,19.799
			c-0.229,11.023-9.929,18.873-14.985,22.821c1.846,6.668,1.291,12.124-1.659,16.242c-3.61,5.038-10.698,7.701-20.498,7.703
			c-3.689,0-6.724-0.381-7.957-0.562C469.822,467.903,439.008,473.4,401.753,473.4z"/>
		<path fill="#31738B" d="M477.821,429.57c0,0-15.464,30.283-129.045,28.857c-22.678-4.041-64.489-16.336-117.272-75.646
			c9.874-11.554,13.94-22.944,13.94-22.944h-3.388c0,0-18.247,13.342-23.158,23.512c36.952,52.174,91.094,71.721,91.094,71.721
			s17.439,10.387,29.151,12.213c75.393,9.029,133.012,0,133.012,0s10.718,1.116,21.541-4.524c10.826-5.638,8.51-14.229,8.51-14.229
			s14.396-12.33,17.189-22.117c-18.608,16.139-42.186,11.192-42.186,11.192L477.821,429.57z"/>
		<path d="M230.81,358.726c0.104,0,0.208,0.004,0.314,0.012c36.18,10.803,66.831,22.067,91.623,25.509
			c14.822,2.057,27.731,2.88,38.896,2.88c44.854,0,61.579-13.292,61.579-13.292s20.613-10.943,33.372-10.943
			c5.489,0,9.523,2.026,9.836,7.819c9.316-2.001,16.874-2.858,22.987-2.858c15.813,0,21.956,5.737,23.865,12.229
			c2.342,7.967-1.151,16.879-8.852,20.532c25.511,21.635,2.833,36.731-3.644,41.938c6.45,18.99-8.559,21.951-18.54,21.951
			c-4.521,0-8.011-0.606-8.011-0.606s-32.208,6.38-72.483,6.38c-24.298,0-51.524-2.319-76.403-9.765
			c-66.115-19.782-107.762-78.943-107.762-78.943S223.014,358.727,230.81,358.726 M230.81,352.479L230.81,352.479L230.81,352.479
			c-3.852,0-7.336,2.042-10.354,6.07c-1.739,2.321-3.409,5.43-4.964,9.238c-2.485,6.088-3.922,12.086-3.981,12.338l-0.65,2.739
			l1.62,2.302c0.441,0.626,11.012,15.533,29.957,33.045c11.123,10.281,22.848,19.333,34.851,26.904
			c15.081,9.513,30.648,16.707,46.273,21.383c22.232,6.653,48.541,10.025,78.192,10.025c11.655,0,30.157-0.562,52.102-3.235
			c10.571-1.289,17.874-2.569,20.516-3.058c1.553,0.208,4.462,0.521,7.878,0.521c4.334,0,8.234-0.494,11.599-1.466
			c5.052-1.46,8.899-3.996,11.438-7.541c3.211-4.48,4.092-10.138,2.638-16.856c5.663-4.56,14.357-12.603,14.594-23.963
			c0.14-6.709-2.714-13.326-8.499-19.743c1.821-1.966,3.306-4.262,4.37-6.8c2.127-5.077,2.443-10.78,0.892-16.063
			c-1.509-5.127-4.794-9.327-9.504-12.146c-5.062-3.031-11.91-4.567-20.355-4.567c-5.448,0-11.72,0.635-18.705,1.892
			c-1.073-1.828-2.428-3.099-3.644-3.962c-2.702-1.918-6.227-2.89-10.476-2.89c-6.1,0-14.111,1.995-23.818,5.929
			c-6.966,2.825-12.262,5.626-12.481,5.743l-0.566,0.302l-0.367,0.307c-0.369,0.269-4.387,3.118-13.017,5.941
			c-8.393,2.744-22.958,6.013-44.7,6.013c-11.747,0-24.545-0.948-38.035-2.821c-17.594-2.441-38.436-9.006-62.567-16.608
			c-9.013-2.838-18.333-5.774-28.128-8.699l-0.636-0.19l-0.662-0.052C231.346,352.489,231.077,352.479,230.81,352.479
			L230.81,352.479z"/>
	</g>
	<g>
		<g>
			<path d="M248.618,233.942c5.962,5.71,8.486,12.749,5.635,15.722c-2.842,2.963-9.979,0.743-15.945-4.97
				c-5.957-5.719-8.479-12.749-5.634-15.722C235.521,226.002,242.658,228.225,248.618,233.942z"/>
			<path d="M256.112,225.022c-9.109-8.924-19.387,2.65-19.387,2.65l15.831,21.228C252.556,248.9,265.884,235.4,256.112,225.022z"/>
			<path fill="#B59353" d="M237.81,232.688c-0.288,8.499,10.927,12.632,10.927,12.632s11.931-9.867,5.176-16.994
				C247.158,221.202,239.39,227.9,237.81,232.688z"/>
			<path fill="#31738B" d="M244.508,243.296c0,0,5.898,0.694,9.507-4.399c-0.34,2.059-5.218,6.54-5.218,6.54L244.508,243.296z"/>
			<path fill="#B0B4B7" d="M252.632,227.459c-6.091-0.565-12.268,12.042-12.268,12.042s-2.888-3.772-2.554-6.813
				C243.177,221.083,252.188,226.314,252.632,227.459z"/>
		</g>
		<path d="M228.988,203.68c-11.191-11.376-24.324-20.372-39.035-26.736c-14.709-6.364-30.257-9.778-46.211-10.146
			c-16.521-0.382-32.751,2.535-48.242,8.669c-15.489,6.134-29.316,15.121-41.097,26.709c-11.377,11.193-20.372,24.325-26.737,39.036
			c-6.363,14.709-9.777,30.258-10.146,46.212c-0.381,16.521,2.536,32.752,8.669,48.241c6.133,15.49,15.121,29.316,26.709,41.097
			c11.191,11.377,24.326,20.373,39.034,26.737c14.71,6.363,30.258,9.778,46.213,10.146c16.521,0.382,32.751-2.534,48.241-8.671
			c15.49-6.134,29.315-15.12,41.097-26.708c11.377-11.191,20.372-24.324,26.736-39.034c6.364-14.71,9.778-30.258,10.146-46.212
			c0.382-16.521-2.534-32.751-8.668-48.241C249.565,229.287,240.579,215.46,228.988,203.68z"/>
		<path fill="#8D1516" d="M250.317,246.908c-4.769-12.042-11.305-22.855-19.189-32.267c-9.744-11.808-18.603-17.473-27.655-24.069
			c-30.629-19.185-69.662-24.051-105.841-9.725c-25.059,9.924-44.812,27.495-57.641,48.974
			c-11.765,24.447-13.678,53.541-2.902,80.753c18.064,45.617,65.738,70.685,112.221,61.893c7.645-0.397,15.336-1.686,22.939-3.909
			c9.607,9.054,21.078,15.813,33.482,19.877C251.309,358.437,271.2,299.642,250.317,246.908z"/>
		<path fill="#C9A9A9" d="M47.699,218.474c21.798-26.404,54.13-42.753,79.516-45.13c57.541-5.684,92.181,29.284,92.181,29.284
			S122.483,149.978,47.699,218.474z"/>
		<g>
			<path d="M140.327,382.377c7.494,5.214,15.677,6.41,18.276,2.67c2.59-3.73-1.378-10.981-8.877-16.2
				c-7.502-5.205-15.675-6.4-18.274-2.667C128.854,369.917,132.826,377.168,140.327,382.377z"/>
			<path d="M132.297,392.452c-11.667-7.921-1.369-21.595-1.369-21.595l26.476,12.517
				C157.404,383.374,145.685,400.775,132.297,392.452z"/>
			<path fill="#B59353" d="M136.604,370.935c9.149-2.17,16.083,9.083,16.083,9.083s-8.086,15.093-17.291,9.329
				C126.198,383.583,131.76,373.695,136.604,370.935z"/>
			<path fill="#31738B" d="M149.567,375.875c0,0,2.043,6.243-2.689,11.27c2.159-0.82,5.949-7.087,5.949-7.087L149.567,375.875z"/>
			<path fill="#B0B4B7" d="M134.178,388.147c-1.946-6.48,10.371-15.935,10.371-15.935s-4.723-2.304-7.945-1.278
				C125.197,379.293,132.839,387.915,134.178,388.147z"/>
		</g>
	</g>
	<g>
		<path fill="#F6B540" d="M124.251,313.056c-0.511,0-0.998-0.251-1.293-0.686c-6.781-10.003-11.189-19.702-13.121-28.861
			c-1.668,0.657-3.282,0.989-4.818,0.989c-4.549,0-8.149-3.009-9.172-7.665c-0.867-3.942,0.341-9.124,4.709-12.389
			c-4.751-3.116-6.745-8.045-5.505-13.878c1.523-7.166,7.688-13.451,13.196-13.451c4.869,0,7.181,4.442,8.126,7.091
			c0.012,0.032,0.022,0.065,0.032,0.1c0.258,0.916,0.357,1.746,0.35,2.493c4.764-7.17,11.646-13.86,20.522-19.945
			c8.904-6.102,17.951-10.32,23.357-12.84c1.302-0.607,2.631-1.226,3.593-1.711c-11.71-8.712-24.732-10.587-33.773-10.587
			c-1.682,0-3.203,0.067-4.517,0.163c4.336,2.151,9.932,5.323,11.302,7.943c0.047,0.088,0.085,0.182,0.113,0.279
			c1.53,5.144,0.443,8.111-0.738,9.694c-1.29,1.729-3.373,2.72-5.717,2.72c-2.986,0-5.702-1.558-6.757-3.876
			c-0.509-1.116-0.998-3.247,0.705-5.909c-2.562-1.652-7.085-2.58-12.742-2.58c-1.265,0-2.568,0.047-3.885,0.14
			c-1.509,3.531-5.578,5.422-8.974,5.422c-2.691,0-5.04-1.104-6.444-3.03c-1.251-1.715-2.37-4.916-0.6-10.423
			c0.02-0.062,0.043-0.123,0.07-0.181c2.817-6.056,16.05-9.075,29.751-11.097c-3.844-0.618-8.824-0.907-12.594-0.907
			c-0.005,0-0.009,0-0.013,0c-0.544,0-1.05-0.284-1.334-0.749c-0.284-0.466-0.304-1.045-0.054-1.529
			c2.581-5,4.043-5.781,4.819-5.903c0.743-0.29,1.48-0.437,2.194-0.437c2.15,0,3.664,1.308,4.531,2.546
			c2.142-0.442,7.061-1.276,13.716-1.276c2.503,0,5.026,0.12,7.517,0.358c1.438-2,3.068-3.013,4.852-3.013
			c1.494,0,2.936,0.753,4.06,2.122c1.123,1.366,1.689,3.046,1.446,4.28c-0.413,2.089-1.872,3.353-2.655,3.896
			c8.182,2.307,15.196,5.349,20.861,8.173c-0.566-1.29-0.924-2.749-0.695-4.341c-0.523,0.206-1.13,0.314-1.793,0.314
			c-1.775,0-3.911-0.801-4.679-2.592c-0.37-0.862-0.677-2.638,1.417-4.838c0.037-0.039,0.076-0.076,0.117-0.111
			c1.641-1.402,3.348-2.115,5.073-2.115c1.507,0,2.77,0.54,3.732,1.111c0.586-0.257,1.21-0.388,1.846-0.388
			c0.95,0,1.875,0.296,2.587,0.792c3.239-1.112,7.485-1.879,12.641-2.287c0.042-0.003,0.083-0.004,0.124-0.004
			c0.524,0,1.017,0.263,1.306,0.705c1.859,2.838,2.866,5.513,3.007,7.982c0.947,0.065,1.721,0.514,2.147,1.254
			c0.464,0.803,0.431,1.821-0.088,2.722c-0.699,1.208-2.083,1.981-3.77,2.126c-0.653,0.94-1.45,1.758-2.321,2.469l0.513-0.062
			c0.062-0.007,0.124-0.011,0.185-0.011c0.532,0,1.032,0.271,1.321,0.728c0.321,0.509,0.322,1.156,0.002,1.666
			c-3.165,5.036-6.901,18.324-6.938,18.458c-0.188,0.675-0.803,1.141-1.503,1.141h-5.575c1.168,3.425,3.296,10.646,4.1,19.733
			c1.413,15.985-2.032,30.368-9.973,41.725c1.916,1.366,3.125,3.374,3.528,5.896c0.793,4.953-1.73,10.741-3.889,12.71
			c-1.193,1.088-3.813,2.259-6.746,2.259c-2.247,0-6.228-0.734-9.126-5.329c-8.469,5.586-18.99,9.877-31.307,12.763
			C124.488,313.042,124.37,313.056,124.251,313.056z M168.113,228.649c-0.284,0-0.84,0.223-1.549,0.85
			c-0.731,0.647-1.963,0.975-4.929,1.72c-7.151,1.797-20.463,5.142-29.101,16.298c-4.419,5.709-7.358,13.899-7.861,21.91
			c-0.422,6.712,0.617,16.651,7.857,26.154c3.998-0.25,19.311-4.69,28.956-17.266c9.193-11.986,11.185-28.011,5.917-47.628
			c-0.148-0.559,0.022-1.153,0.443-1.546c0.232-0.217,0.279-0.403,0.28-0.492C168.123,228.649,168.118,228.649,168.113,228.649z
			 M187.53,190.037c-8.358,1.264-10.36,3.608-10.8,4.927c-0.558,1.672,0.703,3.536,1.416,4.411c2.664-0.297,7.96-1.453,9.587-4.376
			C188.464,193.684,188.396,192.018,187.53,190.037z"/>
		<path fill="#C9A9A9" d="M103.115,240.607c-9.192,17.936,5.305,22.265,5.305,22.265s-6.642,15.329,5.434,17.179
			c1.046,2.842,5.233,15.258,11.271,22.101c6.038,6.844,16.211,4.346,16.211,4.346l-17.084,6.558c0,0-9.794-15.936-14.414-29.547
			c-22.752,2.542-9.773-19.843-9.773-19.843S86.138,254.336,103.115,240.607z"/>
		<path fill="#C9A9A9" d="M95.712,200.32c0.405,4.931,12.899,2.067,12.899,2.067l20.65,8.569c0,0-3.742,10.442,5.59,8.485
			c-3.595,3.683-9.362,0.929-9.711-1.096c-0.739-4.505,1.864-5.893,1.864-5.893l-18.22-2.951c0,0-6.334,9.11-13.618,3.384
			C92.039,210.284,88.454,205.28,95.712,200.32z"/>
		<path fill="#C9A9A9" d="M166.308,186.123c-1.596,4.72,3.56,3.216,3.56,3.216s0.53,7.116,3.6,13.092
			c-4.932-3.343-7.16-8.694-7.16-8.694S157.192,192.302,166.308,186.123z"/>
		<path d="M145.655,181.631c2.453,0.001,4.247,3.154,3.974,4.538c-0.412,2.087-2.342,3.123-2.342,3.123s-4.446-0.993-9.496-0.993
			c-1.797,0-3.673,0.126-5.45,0.468c17.309,1.952,31.235,8.33,41.126,13.666c-1.042-2.212-4.798-5.666-2.636-9.886
			c0.073-0.144-0.31-1.254-0.964-1.254c-0.319,0-0.703,0.265-1.128,1.032c-0.379,0.423-1.086,0.628-1.861,0.628
			c-2.246,0-5.061-1.715-2.13-4.793c1.502-1.285,2.861-1.74,4.058-1.74c1.48,0,2.715,0.696,3.677,1.38
			c0.636-0.476,1.297-0.658,1.901-0.657c1.035,0,1.904,0.531,2.203,1.034c2.966-1.154,7.199-2.062,13.148-2.532
			c2.39,3.647,3.048,6.611,2.671,9.008c0.56-0.231,1.026-0.329,1.4-0.329c2.079,0,1.324,3.013-2.062,3.013
			c-0.091,0-0.185-0.002-0.279-0.006c-3.026,5.325-11.62,6.795-11.62,6.795s7.312-0.871,10.869-1.294
			c-3.321,5.285-7.119,18.868-7.119,18.868h-7.809c0,0,14.715,35.982-5.921,63.508c7.636,3.428,3.568,14.5,0.868,16.962
			c-0.898,0.819-3.134,1.852-5.693,1.852c-2.951,0-6.332-1.371-8.59-6.018c-8.034,5.595-18.542,10.292-32.2,13.493
			c-7.58-11.182-11.697-21.23-13.256-30.236c-2.226,1.173-4.228,1.678-5.976,1.678c-9.175,0-11.26-13.962-1.311-18.555
			c-14.926-6.643-4.235-25.707,4.539-25.705c2.642,0,5.112,1.731,6.654,6.052c1.552,5.502-3.774,6.898,0.417,7.562
			c14.035-26.994,52.346-38.197,51.489-39.964c-12.595-10.169-26.971-12.174-36.354-12.174c-6.112,0-10.106,0.852-10.106,0.852
			s13.576,5.849,15.508,9.541c2.236,7.517-1.358,10.408-4.958,10.408c-4.048,0-8.106-3.657-3.892-8.499
			c-2.82-2.759-8.653-3.867-14.902-3.867c-1.664,0-3.357,0.079-5.029,0.225c-0.832,3.296-4.45,5.338-7.829,5.338
			c-4.278,0-8.174-3.272-5.557-11.415c3.472-7.462,28.464-10.176,35.01-11.106c-3.243-3.114-19.178-3.119-19.281-3.119l0,0
			c0,0,2.623-5.081,3.794-5.081c0.676-0.293,1.284-0.414,1.831-0.414c2.602,0,3.746,2.763,3.746,2.763s5.729-1.492,14.5-1.492
			c2.533,0,5.32,0.124,8.295,0.445C142.987,182.449,144.406,181.631,145.655,181.631 M177.502,201c0,0,17.18-1.041,10.932-12.667
			C167.264,191.108,177.502,201,177.502,201 M132.199,297.155c5.412,0,51.496-11.807,36.714-66.872
			c1.368-1.278,0.818-3.195-0.8-3.195c-0.689,0-1.573,0.348-2.584,1.242c-1.967,1.74-22.407,2.963-34.229,18.231
			c-8.511,10.995-13.447,32.89,0.39,50.486C131.719,297.117,131.894,297.155,132.199,297.155 M145.656,178.507L145.656,178.507
			c-1.489,0-3.559,0.554-5.56,2.943c-2.26-0.192-4.543-0.289-6.809-0.289c-5.939,0-10.55,0.656-13.095,1.126
			c-1.148-1.271-2.865-2.396-5.152-2.396c-0.882,0-1.782,0.172-2.681,0.513c-1.603,0.382-2.832,1.848-4.126,3.898
			c-0.865,1.369-1.563,2.718-1.592,2.775c-0.5,0.968-0.459,2.127,0.108,3.057c0.567,0.931,1.578,1.499,2.667,1.499
			c0.004,0,0.059,0,0.158,0.001c-0.713,0.163-1.426,0.333-2.133,0.511c-9.483,2.387-14.752,5.333-16.584,9.271
			c-0.055,0.118-0.103,0.239-0.142,0.362c-1.088,3.384-1.828,8.183,0.824,11.821c1.702,2.333,4.51,3.671,7.707,3.671
			c2.299,0,4.63-0.686,6.562-1.93c1.456-0.939,2.618-2.16,3.405-3.552c0.978-0.054,1.945-0.081,2.891-0.081
			c4.459,0,8.21,0.603,10.64,1.663c-0.198,0.47-0.353,0.942-0.46,1.417c-0.349,1.548-0.199,3.102,0.436,4.494
			c1.305,2.865,4.592,4.791,8.179,4.791c2.841,0,5.381-1.22,6.968-3.348c2.527-3.389,1.93-7.893,0.984-11.074
			c-0.058-0.193-0.134-0.38-0.226-0.558c-0.652-1.245-2.043-2.994-6.802-5.805c8.141,0.174,19.12,1.974,29.33,8.757
			c-0.392,0.184-0.79,0.369-1.178,0.55c-5.449,2.54-14.57,6.792-23.58,12.968c-7.808,5.351-14.109,11.176-18.824,17.392
			c-2.567-6.42-6.91-7.404-9.323-7.405c0,0-0.001,0-0.002,0c-3.203,0-6.547,1.668-9.417,4.698c-2.607,2.75-4.541,6.391-5.305,9.987
			c-1.217,5.721,0.465,10.794,4.553,14.285c-1.139,1.135-2.068,2.451-2.757,3.918c-1.28,2.728-1.635,5.827-0.999,8.726
			c0.545,2.481,1.763,4.628,3.52,6.208c1.951,1.755,4.433,2.683,7.179,2.683c1.194,0,2.422-0.174,3.676-0.521
			c2.141,8.851,6.493,18.153,12.971,27.709c0.589,0.869,1.565,1.371,2.584,1.371c0.236,0,0.477-0.028,0.713-0.083
			c11.887-2.785,22.14-6.869,30.534-12.156c3.177,4.072,7.188,4.765,9.543,4.765c3.367,0,6.342-1.34,7.799-2.668
			c2.367-2.159,5.288-8.427,4.378-14.111c-0.379-2.367-1.411-4.391-2.988-5.929c3.981-6.008,6.776-12.763,8.324-20.124
			c1.411-6.711,1.788-13.93,1.123-21.458c-0.68-7.688-2.298-14.081-3.511-18.033h3.43c1.401,0,2.63-0.933,3.008-2.282
			c1.023-3.658,4.232-14.031,6.756-18.046c0.64-1.019,0.638-2.315-0.005-3.332c-0.118-0.188-0.255-0.359-0.406-0.513
			c0.086-0.104,0.17-0.209,0.253-0.314c3.083-0.556,4.881-2.847,4.881-5.07c0-1.745-1.042-3.166-2.599-3.761
			c-0.362-2.401-1.41-4.935-3.136-7.57c-0.581-0.885-1.565-1.412-2.613-1.412c-0.082,0-0.164,0.003-0.246,0.01
			c-4.937,0.389-9.08,1.109-12.349,2.143c-0.833-0.417-1.789-0.654-2.757-0.654c-0.582,0-1.156,0.082-1.71,0.243
			c-0.991-0.496-2.325-0.966-3.868-0.966c-2.107,0-4.155,0.837-6.089,2.49c-0.081,0.069-0.159,0.143-0.233,0.221
			c-2.711,2.849-2.241,5.314-1.72,6.53c0.074,0.172,0.156,0.337,0.247,0.496c-2.959-1.208-6.147-2.373-9.552-3.422
			c0.54-0.758,1.009-1.7,1.233-2.836c0.401-2.032-0.651-4.211-1.771-5.573C149.497,179.464,147.625,178.508,145.656,178.507
			L145.656,178.507L145.656,178.507z M178.848,197.705c-0.468-0.726-0.851-1.611-0.635-2.251c0.38-1.122,2.797-2.671,8.292-3.664
			c0.265,0.99,0.22,1.811-0.138,2.452C185.278,196.195,181.455,197.292,178.848,197.705L178.848,197.705z M133.237,293.915
			c-6.465-8.902-7.399-18.113-7.005-24.389c0.484-7.71,3.303-15.58,7.539-21.051c8.305-10.73,21.277-13.989,28.246-15.74
			c1.797-0.451,3.062-0.769,4.012-1.147c2.674,10.176,3.342,19.449,1.983,27.567c-1.149,6.864-3.761,12.991-7.763,18.21
			C151.078,289.321,137.375,293.227,133.237,293.915L133.237,293.915z"/>
	</g>
	<path fill="#B89656" d="M165.529,228.33c3.384-2.993,5.336,0.13,3.384,1.953c15.618,58.176-36.702,68.066-37.223,66.765
		c-13.837-17.597-8.901-39.492-0.39-50.486C143.122,231.293,163.562,230.07,165.529,228.33z"/>
	<path fill="#B89656" d="M188.435,188.332C194.682,199.958,177.502,201,177.502,201S167.264,191.108,188.435,188.332z"/>
	<path fill="#31738B" d="M177.264,192.688c-0.056,4.653,4.486,4.759,4.486,4.759h2.201c0,0,1.293,0.768,3.273-0.247
		c-3.616,3.468-9.722,3.8-9.722,3.8S173.259,195.872,177.264,192.688z"/>
	<g>
		<g>
			<path d="M126.527,309.73l-0.193-0.756c1.012-0.259,2.023-0.531,3.006-0.811l0.213,0.752
				C128.562,309.196,127.545,309.47,126.527,309.73z M123.744,308.603c-0.569-0.883-1.128-1.777-1.662-2.658l0.669-0.404
				c0.529,0.875,1.083,1.763,1.649,2.639L123.744,308.603z M132.556,308.021l-0.232-0.746c0.996-0.311,1.991-0.638,2.957-0.971
				l0.254,0.738C134.562,307.378,133.559,307.708,132.556,308.021z M138.483,305.976l-0.277-0.73
				c0.979-0.371,1.951-0.759,2.89-1.151l0.301,0.721C140.45,305.211,139.469,305.602,138.483,305.976z M144.27,303.558l-0.325-0.71
				c0.945-0.434,1.887-0.888,2.8-1.35l0.352,0.697C146.175,302.661,145.224,303.12,144.27,303.558z M120.501,303.236
				c-0.517-0.919-1.02-1.847-1.492-2.758l0.693-0.36c0.469,0.903,0.967,1.824,1.48,2.735L120.501,303.236z M165.042,302.848
				c-0.091-0.001-0.18-0.002-0.268-0.005l0.023-0.781c0.965,0.029,1.991-0.127,2.93-0.454l0.257,0.737
				C167.042,302.674,166.024,302.848,165.042,302.848z M161.604,302.049c-0.929-0.475-1.777-1.169-2.521-2.064l0.601-0.5
				c0.675,0.813,1.44,1.441,2.275,1.868L161.604,302.049z M149.869,300.723l-0.38-0.683c0.91-0.506,1.811-1.035,2.68-1.569
				l0.409,0.666C151.7,299.676,150.789,300.211,149.869,300.723z M170.675,300.435l-0.641-0.445
				c0.491-0.708,0.973-1.667,1.358-2.698l0.732,0.273C171.717,298.655,171.203,299.674,170.675,300.435z M132.842,299.078
				l-0.066-0.778c0.56-0.047,1.54-0.176,3.021-0.521l0.177,0.76C134.767,298.82,133.683,299.006,132.842,299.078z M129.807,297.806
				c-0.64-0.836-1.255-1.701-1.826-2.567l0.652-0.429c0.56,0.851,1.164,1.7,1.793,2.522L129.807,297.806z M139.015,297.704
				l-0.233-0.746c0.963-0.302,1.949-0.645,2.927-1.018l0.279,0.73C140.995,297.049,139.994,297.397,139.015,297.704z
				 M117.613,297.668c-0.451-0.953-0.886-1.916-1.289-2.862l0.718-0.307c0.399,0.938,0.829,1.891,1.276,2.835L117.613,297.668z
				 M155.216,297.43l-0.439-0.646c0.188-0.127,0.374-0.256,0.56-0.385c0.466-0.325,1.063-0.43,1.608-0.287
				c0.444,0.115,0.834,0.385,1.1,0.76l-0.637,0.452c-0.159-0.225-0.394-0.386-0.659-0.456c-0.329-0.086-0.686-0.022-0.965,0.171
				C155.595,297.17,155.406,297.301,155.216,297.43z M144.894,295.463l-0.32-0.712c0.18-0.081,0.36-0.164,0.542-0.247
				c0.753-0.348,1.509-0.72,2.249-1.104l0.36,0.693c-0.751,0.391-1.518,0.768-2.282,1.12
				C145.259,295.298,145.076,295.381,144.894,295.463z M172.942,294.472l-0.771-0.12c0.095-0.612,0.143-1.209,0.143-1.776
				c0-0.422-0.028-0.833-0.081-1.224l0.775-0.105c0.058,0.424,0.087,0.871,0.087,1.329
				C173.095,293.183,173.044,293.821,172.942,294.472z M150.473,292.561l-0.4-0.671c0.89-0.53,1.77-1.09,2.616-1.665l0.438,0.647
				C152.269,291.455,151.376,292.023,150.473,292.561z M126.347,292.545c-0.511-0.917-0.993-1.863-1.429-2.81l0.709-0.328
				c0.429,0.93,0.9,1.856,1.402,2.757L126.347,292.545z M115.154,291.893c-0.373-0.989-0.722-1.986-1.039-2.965l0.743-0.24
				c0.313,0.966,0.659,1.953,1.027,2.93L115.154,291.893z M155.678,289.026l-0.477-0.618c0.819-0.632,1.624-1.295,2.392-1.97
				l0.516,0.587C157.327,287.711,156.51,288.384,155.678,289.026z M171.208,288.645c-0.523-0.705-1.223-1.248-2.141-1.66
				c-0.07-0.031-0.138-0.067-0.204-0.106l0.4-0.67c0.04,0.024,0.08,0.045,0.122,0.063c1.03,0.462,1.854,1.104,2.449,1.907
				L171.208,288.645z M123.707,286.824c-0.365-0.979-0.696-1.987-0.985-2.993l0.75-0.216c0.283,0.988,0.608,1.977,0.966,2.938
				L123.707,286.824z M113.224,285.914c-0.275-1.022-0.52-2.051-0.731-3.058l0.765-0.159c0.208,0.992,0.45,2.007,0.72,3.015
				L113.224,285.914z M160.404,284.871l-0.553-0.552c0.73-0.732,1.439-1.494,2.11-2.266l0.59,0.512
				C161.869,283.35,161.146,284.125,160.404,284.871z M169.234,284.09l-0.629-0.461c0.61-0.83,1.2-1.69,1.756-2.553l0.657,0.422
				C170.453,282.375,169.853,283.247,169.234,284.09z M105.02,281.765c-0.824,0-1.603-0.131-2.314-0.389l0.265-0.734
				c0.863,0.312,1.851,0.41,2.903,0.293l0.086,0.775C105.643,281.746,105.326,281.765,105.02,281.765z M109.072,280.871
				l-0.299-0.722c0.428-0.177,0.87-0.385,1.313-0.618c0.542-0.286,1.223-0.295,1.771-0.024c0.062,0.031,0.122,0.065,0.179,0.1
				l-0.416,0.661c-0.035-0.022-0.072-0.042-0.108-0.061c-0.329-0.162-0.737-0.157-1.062,0.015
				C109.985,280.466,109.521,280.685,109.072,280.871z M121.967,280.77c-0.211-1.021-0.387-2.067-0.523-3.109l0.774-0.101
				c0.133,1.022,0.306,2.049,0.514,3.051L121.967,280.77z M164.533,280.117l-0.625-0.47c0.618-0.822,1.214-1.677,1.771-2.539
				l0.656,0.424C165.768,278.41,165.162,279.278,164.533,280.117z M100.031,279.456c-0.665-0.818-1.165-1.832-1.447-2.929
				l0.756-0.194c0.254,0.989,0.703,1.898,1.298,2.631L100.031,279.456z M172.64,278.802l-0.682-0.382
				c0.502-0.895,0.984-1.821,1.433-2.749l0.704,0.339C173.639,276.953,173.149,277.892,172.64,278.802z M167.947,274.826
				l-0.684-0.375c0.493-0.898,0.961-1.829,1.391-2.765l0.709,0.326C168.926,272.964,168.449,273.911,167.947,274.826z
				 M121.15,274.523c-0.047-0.834-0.071-1.684-0.071-2.523c0-0.211,0.001-0.42,0.004-0.628l0.78,0.012
				c-0.003,0.204-0.004,0.408-0.004,0.616c0,0.825,0.024,1.659,0.071,2.478L121.15,274.523z M99.137,273.372l-0.776-0.083
				c0.113-1.049,0.397-2.066,0.847-3.023l0.045-0.094l0.703,0.341l-0.04,0.084C99.503,271.476,99.242,272.409,99.137,273.372z
				 M175.376,273.139l-0.721-0.297c0.39-0.948,0.759-1.924,1.094-2.9l0.738,0.254C176.146,271.187,175.773,272.177,175.376,273.139z
				 M170.579,269.105l-0.731-0.276c0.361-0.956,0.696-1.943,0.995-2.933l0.748,0.226
				C171.286,267.129,170.946,268.133,170.579,269.105z M122.016,268.292l-0.777-0.066c0.087-1.039,0.213-2.091,0.372-3.127
				l0.772,0.118C122.226,266.236,122.103,267.271,122.016,268.292z M101.689,268.095l-0.549-0.555
				c0.75-0.742,1.634-1.376,2.625-1.884l0.356,0.695C103.201,266.822,102.384,267.409,101.689,268.095z M177.426,267.194
				l-0.751-0.212c0.277-0.985,0.533-1.997,0.759-3.007l0.762,0.17C177.967,265.17,177.708,266.196,177.426,267.194z
				 M104.699,263.756c-0.123-0.196-0.301-0.351-0.514-0.445c-0.716-0.319-1.387-0.676-1.992-1.063l0.42-0.658
				c0.572,0.365,1.208,0.705,1.888,1.008c0.354,0.157,0.651,0.414,0.858,0.743L104.699,263.756z M172.402,263.08l-0.761-0.177
				c0.231-0.994,0.435-2.016,0.606-3.039l0.771,0.129C172.844,261.032,172.636,262.071,172.402,263.08z M122.954,262.174
				l-0.762-0.17c0.228-1.022,0.493-2.048,0.788-3.049l0.749,0.221C123.439,260.159,123.178,261.168,122.954,262.174z
				 M178.799,261.061l-0.77-0.129c0.17-1.007,0.318-2.042,0.438-3.073l0.776,0.092C179.12,258.994,178.971,260.041,178.799,261.061z
				 M99.741,260.157c-0.722-0.834-1.283-1.771-1.667-2.781l0.73-0.277c0.35,0.925,0.865,1.782,1.527,2.548L99.741,260.157z
				 M173.309,258.025l-0.774-0.1c0.129-1.009,0.233-2.047,0.307-3.086l0.778,0.056C173.545,255.949,173.44,257.001,173.309,258.025z
				 M124.705,256.235l-0.732-0.271c0.367-0.989,0.771-1.97,1.2-2.915l0.711,0.324C125.462,254.301,125.066,255.263,124.705,256.235z
				 M179.535,254.822l-0.779-0.053c0.07-1.02,0.119-2.063,0.144-3.102l0.781,0.019C179.655,252.736,179.605,253.791,179.535,254.822
				z M115.319,254.243l-0.06-0.001l0.024-0.78h0.036c0.439,0,0.837-0.242,1.04-0.631c0.21-0.404,0.43-0.812,0.655-1.215l0.682,0.38
				c-0.221,0.396-0.438,0.798-0.644,1.196C116.713,253.84,116.05,254.243,115.319,254.243z M97.448,254.201
				c-0.005-0.145-0.008-0.289-0.008-0.43c0-0.862,0.096-1.75,0.286-2.641l0.028-0.13l0.762,0.169l-0.026,0.123
				c-0.179,0.837-0.269,1.671-0.269,2.478c0,0.132,0.002,0.266,0.007,0.4L97.448,254.201z M112.176,252.854
				c-0.077-0.108-0.146-0.225-0.206-0.347c-0.167-0.341-0.252-0.7-0.252-1.069c0-0.722,0.321-1.373,0.622-1.926l0.686,0.373
				c-0.267,0.49-0.527,1.014-0.527,1.553c0,0.252,0.057,0.49,0.172,0.725c0.041,0.085,0.089,0.165,0.142,0.239L112.176,252.854z
				 M173.76,251.754l-0.78-0.014c0.007-0.379,0.011-0.758,0.011-1.141c0-0.646-0.011-1.308-0.031-1.965l0.781-0.023
				c0.02,0.664,0.03,1.334,0.03,1.988C173.771,250.986,173.767,251.372,173.76,251.754z M127.267,250.606l-0.684-0.375
				c0.511-0.933,1.059-1.841,1.628-2.703l0.651,0.431C128.305,248.803,127.768,249.694,127.267,250.606z M119.29,249.34
				l-0.656-0.423c0.558-0.867,1.158-1.738,1.782-2.592l0.63,0.461C120.431,247.627,119.84,248.487,119.29,249.34z M178.906,248.56
				c-0.02-1.022-0.062-2.067-0.125-3.105l0.779-0.047c0.063,1.049,0.106,2.103,0.126,3.136L178.906,248.56z M99.482,248.288
				l-0.712-0.32c0.434-0.967,0.962-1.902,1.569-2.779l0.642,0.444C100.402,246.472,99.897,247.364,99.482,248.288z M114.021,246.766
				l-0.78-0.006v-0.035c0-0.441-0.069-0.914-0.201-1.405c-0.177-0.487-0.371-0.946-0.579-1.366l0.7-0.346
				c0.223,0.451,0.43,0.942,0.618,1.461l0.009,0.029c0.154,0.563,0.233,1.111,0.233,1.627V246.766z M172.793,245.534
				c-0.078-1.016-0.179-2.057-0.303-3.093l0.776-0.093c0.125,1.048,0.228,2.1,0.306,3.126L172.793,245.534z M130.676,245.46
				l-0.611-0.486c0.648-0.816,1.343-1.618,2.064-2.384l0.568,0.536C131.992,243.875,131.312,244.661,130.676,245.46z
				 M122.947,244.334l-0.604-0.494c0.652-0.797,1.344-1.597,2.053-2.379l0.579,0.524
				C124.273,242.758,123.592,243.548,122.947,244.334z M102.941,243.307l-0.543-0.56c0.827-0.803,1.689-1.456,2.564-1.942
				l0.379,0.683C104.526,241.939,103.72,242.552,102.941,243.307z M178.532,242.357c-0.103-1.02-0.227-2.059-0.37-3.088l0.773-0.107
				c0.144,1.038,0.27,2.087,0.374,3.117L178.532,242.357z M110.721,241.578c-0.737-0.63-1.57-0.949-2.474-0.949
				c-0.043,0-0.083,0.001-0.125,0.001l-0.021-0.78c1.153-0.036,2.206,0.348,3.128,1.134L110.721,241.578z M134.903,240.958
				l-0.525-0.578c0.768-0.698,1.579-1.38,2.412-2.029l0.48,0.617C136.452,239.605,135.656,240.275,134.903,240.958z
				 M127.115,239.735l-0.553-0.551c0.726-0.729,1.487-1.461,2.263-2.176l0.529,0.575
				C128.587,238.29,127.833,239.015,127.115,239.735z M172.061,239.36c-0.159-1.007-0.343-2.037-0.543-3.061l0.766-0.151
				c0.203,1.034,0.388,2.073,0.55,3.09L172.061,239.36z M139.775,237.155l-0.435-0.648c0.859-0.576,1.758-1.136,2.672-1.666
				l0.391,0.676C141.505,236.038,140.621,236.589,139.775,237.155z M177.676,236.198c-0.18-1.015-0.381-2.042-0.598-3.052
				l0.763-0.165c0.219,1.019,0.422,2.056,0.604,3.081L177.676,236.198z M131.683,235.523l-0.506-0.594
				c0.783-0.666,1.6-1.335,2.427-1.987l0.484,0.613C133.268,234.202,132.458,234.864,131.683,235.523z M145.134,234.051
				l-0.349-0.699c0.456-0.228,0.922-0.453,1.386-0.667c0.479-0.223,0.973-0.442,1.467-0.655l0.309,0.717
				c-0.487,0.21-0.974,0.427-1.447,0.646C146.042,233.605,145.583,233.826,145.134,234.051z M170.865,233.258
				c-0.191-0.824-0.399-1.666-0.616-2.502l-0.043-0.167l0.095-0.145c0.09-0.137,0.17-0.278,0.238-0.421l0.704,0.337
				c-0.059,0.123-0.125,0.244-0.196,0.363c0.204,0.789,0.398,1.582,0.578,2.358L170.865,233.258z M136.562,231.669l-0.463-0.629
				c0.827-0.607,1.686-1.219,2.555-1.817l0.442,0.643C138.235,230.46,137.382,231.066,136.562,231.669z M150.829,231.592
				l-0.272-0.731c0.951-0.354,1.95-0.701,2.967-1.027l0.24,0.743C152.757,230.901,151.77,231.243,150.829,231.592z M176.371,230.117
				c-0.257-1.015-0.534-2.024-0.821-3l0.749-0.22c0.291,0.985,0.569,2.004,0.828,3.028L176.371,230.117z M156.741,229.68
				l-0.211-0.751c0.922-0.259,1.884-0.517,3.027-0.808l0.192,0.758C158.613,229.167,157.658,229.421,156.741,229.68z
				 M141.686,228.14l-0.424-0.656c0.86-0.556,1.753-1.116,2.655-1.666l0.407,0.667C143.428,227.031,142.541,227.587,141.686,228.14z
				 M162.782,228.104l-0.201-0.754c1.142-0.305,1.57-0.461,1.722-0.542c0.313-0.272,0.633-0.515,0.95-0.722l0.426,0.654
				c-0.297,0.193-0.597,0.423-0.893,0.682l-0.059,0.043C164.47,227.619,163.889,227.81,162.782,228.104z M170.554,227.355
				c-0.422-0.827-1.218-1.347-2.181-1.428l0.064-0.779c1.221,0.102,2.271,0.794,2.812,1.852L170.554,227.355z M147.003,224.897
				l-0.39-0.677c0.889-0.513,1.808-1.028,2.732-1.534l0.375,0.685C148.801,223.875,147.888,224.388,147.003,224.897z
				 M174.609,224.154c-0.382-1.11-0.626-1.712-0.629-1.718c-0.096-0.236-0.145-0.485-0.145-0.74c0-0.277,0.061-0.557,0.175-0.809
				l0.71,0.324c-0.068,0.151-0.105,0.319-0.105,0.485c0,0.153,0.03,0.302,0.087,0.443c0.002,0.005,0.253,0.625,0.644,1.761
				L174.609,224.154z M152.468,221.904l-0.36-0.692c0.903-0.471,1.841-0.95,2.789-1.423l0.349,0.699
				C154.303,220.959,153.369,221.436,152.468,221.904z M180.249,220.525h-3.124v-0.781h3.124V220.525z M130.885,219.78
				c-0.098,0-0.198-0.004-0.297-0.009l0.043-0.78c0.088,0.005,0.177,0.005,0.266,0.007c0.542,0,1.574-0.1,2.395-0.775l0.496,0.603
				c-1.009,0.83-2.244,0.954-2.89,0.954C130.894,219.78,130.89,219.78,130.885,219.78z M183.065,219.332l-0.748-0.224
				c0.298-0.997,0.608-2.003,0.925-2.994l0.744,0.237C183.671,217.338,183.361,218.34,183.065,219.332z M158.047,219.117
				l-0.338-0.704c1.007-0.484,1.954-0.93,2.827-1.338l0.331,0.708C159.997,218.189,159.052,218.634,158.047,219.117z
				 M127.481,218.599c-0.384-0.327-0.671-0.696-0.853-1.095c-0.155-0.341-0.234-0.707-0.234-1.088c0-0.334,0.061-0.687,0.181-1.046
				l0.741,0.247c-0.094,0.28-0.141,0.548-0.141,0.799c0,0.269,0.055,0.526,0.164,0.764c0.134,0.294,0.353,0.571,0.648,0.825
				L127.481,218.599z M163.698,216.459l-0.333-0.707c1.372-0.645,2.177-1.042,2.779-1.369l0.373,0.685
				C165.901,215.404,165.084,215.807,163.698,216.459z M135.308,215.86l-0.773-0.108c0.043-0.306,0.064-0.634,0.064-0.977
				c0-0.611-0.068-1.286-0.205-2.003l0.768-0.145c0.145,0.766,0.218,1.488,0.218,2.148
				C135.38,215.154,135.356,215.52,135.308,215.86z M184.96,213.39l-0.739-0.252c0.352-1.033,0.704-2.026,1.045-2.956l0.733,0.271
				C185.66,211.375,185.31,212.363,184.96,213.39z M99.245,212.978c-0.212,0-0.427-0.01-0.639-0.03l0.073-0.777
				c0.188,0.018,0.378,0.026,0.566,0.026c0.761,0,1.571-0.145,2.341-0.416l0.259,0.737
				C100.993,212.819,100.093,212.978,99.245,212.978z M128.902,212.917l-0.759-0.186c0.022-0.09,0.034-0.185,0.034-0.278
				c0-0.319-0.125-0.616-0.353-0.838c-0.327-0.321-0.701-0.63-1.108-0.919l0.452-0.637c0.441,0.313,0.846,0.649,1.203,0.999
				c0.378,0.37,0.587,0.866,0.587,1.396C128.958,212.609,128.938,212.766,128.902,212.917z M168.765,212.591l-0.777-0.076
				c0.004-0.042,0.006-0.085,0.006-0.127c0-0.199-0.044-0.392-0.132-0.573c-0.075-0.154-0.184-0.292-0.318-0.4
				c-0.387-0.312-0.781-0.622-1.172-0.921l0.473-0.621c0.397,0.302,0.799,0.617,1.19,0.934c0.222,0.179,0.405,0.41,0.53,0.667
				c0.139,0.287,0.21,0.595,0.21,0.913C168.775,212.456,168.771,212.523,168.765,212.591z M95.541,211.673
				c-0.194-0.182-0.374-0.385-0.531-0.602c-0.474-0.65-0.783-1.453-0.92-2.385l0.773-0.113c0.118,0.806,0.38,1.493,0.777,2.039
				c0.13,0.177,0.277,0.343,0.435,0.492L95.541,211.673z M104.629,210.794l-0.558-0.545c0.56-0.573,0.934-1.217,1.109-1.914
				c0.07-0.277,0.197-0.53,0.376-0.752l0.607,0.492c-0.108,0.133-0.184,0.285-0.226,0.452
				C105.728,209.359,105.287,210.122,104.629,210.794z M133.119,210.321c-0.604-0.526-1.44-1.131-2.484-1.798l0.421-0.658
				c1.076,0.688,1.942,1.317,2.576,1.867L133.119,210.321z M124.049,209.265c-0.88-0.358-1.861-0.67-2.917-0.925l0.184-0.759
				c1.094,0.265,2.113,0.588,3.029,0.961L124.049,209.265z M163.853,208.686c-0.853-0.576-1.734-1.134-2.618-1.659l0.398-0.672
				c0.897,0.533,1.792,1.1,2.657,1.685L163.853,208.686z M118.103,207.782c-0.972-0.13-2.007-0.227-3.079-0.287l0.044-0.78
				c1.092,0.062,2.147,0.161,3.138,0.292L118.103,207.782z M187.123,207.55l-0.723-0.296c0.402-0.982,0.798-1.886,1.175-2.688
				l0.127,0.06l-0.031-0.255l0.912-0.109l-0.302,0.639C187.91,205.688,187.52,206.581,187.123,207.55z M108.826,207.511
				l-0.044-0.779c1.059-0.061,2.117-0.093,3.142-0.096l0.003,0.781C110.914,207.419,109.871,207.451,108.826,207.511z
				 M127.968,206.935c-0.854-0.479-1.777-0.973-2.744-1.468l0.356-0.695c0.976,0.5,1.907,0.999,2.77,1.482L127.968,206.935z
				 M179.843,206.075c-0.962,0-1.792-0.719-1.93-1.672c-0.013-0.093-0.02-0.188-0.02-0.281c0-0.202,0.032-0.402,0.093-0.595
				l0.743,0.239c-0.037,0.115-0.056,0.235-0.056,0.356c0,0.055,0.004,0.112,0.012,0.169c0.091,0.618,0.664,1.065,1.299,0.995
				l0.091,0.776C179.997,206.07,179.92,206.075,179.843,206.075z M181.562,205.884l-0.092-0.775l3.102-0.369l0.092,0.775
				L181.562,205.884z M94.972,205.59l-0.768-0.137c0.126-0.71,0.316-1.47,0.566-2.257l0.022-0.056c0.13-0.261,0.297-0.522,0.5-0.778
				l0.613,0.484c-0.162,0.205-0.296,0.411-0.399,0.614C95.271,204.205,95.092,204.921,94.972,205.59z M158.524,205.52
				c-0.912-0.472-1.851-0.926-2.792-1.349l0.32-0.712c0.955,0.428,1.907,0.888,2.832,1.368L158.524,205.52z M122.431,204.091
				c-0.979-0.464-1.934-0.896-2.835-1.285l0.31-0.717c0.91,0.392,1.872,0.828,2.859,1.295L122.431,204.091z M172.392,204.069
				c-0.931-0.501-1.858-0.99-2.757-1.452l0.357-0.694c0.902,0.464,1.834,0.956,2.77,1.458L172.392,204.069z M152.868,202.982
				c-0.959-0.368-1.944-0.714-2.925-1.031l0.239-0.744c0.995,0.322,1.993,0.673,2.965,1.046L152.868,202.982z M178.213,202.898
				l-0.078-0.777c0.682-0.068,1.763-0.209,3.039-0.491l0.036,0.163c0.882-0.247,1.765-0.548,2.571-0.876l0.295,0.723
				c-0.957,0.388-1.969,0.726-3.011,1.002l-0.047-0.18C179.847,202.706,178.857,202.833,178.213,202.898z M175.391,202.77
				l-0.769-0.135c0.012-0.067,0.018-0.136,0.018-0.204c0-0.174-0.038-0.341-0.111-0.499c-0.275-0.581-0.688-1.203-1.086-1.804
				l0.65-0.433c0.415,0.625,0.843,1.271,1.142,1.904c0.123,0.262,0.187,0.542,0.187,0.831
				C175.421,202.544,175.411,202.658,175.391,202.77z M175.281,201.425c-0.487-0.618-1.165-1.601-1.636-2.783l0.726-0.289
				c0.436,1.095,1.069,2.012,1.523,2.588L175.281,201.425z M166.851,201.219c-0.946-0.462-1.892-0.912-2.812-1.336l0.327-0.708
				c0.926,0.426,1.877,0.878,2.829,1.343L166.851,201.219z M146.965,201.079c-0.99-0.263-2.006-0.504-3.02-0.717l0.162-0.765
				c1.026,0.217,2.056,0.46,3.058,0.726L146.965,201.079z M98.2,200.963l-0.404-0.668c0.8-0.484,1.755-0.965,2.838-1.43l0.307,0.718
				C99.892,200.033,98.969,200.497,98.2,200.963z M119.55,200.146l-0.532-0.572c0.258-0.241,0.578-0.407,0.923-0.48
				c0.088-0.02,0.902-0.188,2.281-0.373l0.104,0.773c-1.351,0.181-2.138,0.345-2.223,0.363
				C119.896,199.902,119.705,200.002,119.55,200.146z M140.893,199.797c-1.014-0.162-2.05-0.301-3.078-0.415l0.087-0.776
				c1.039,0.115,2.087,0.255,3.114,0.419L140.893,199.797z M125.411,199.173l-0.06-0.778c1.028-0.08,2.084-0.136,3.138-0.166
				l0.022,0.78C127.47,199.039,126.427,199.095,125.411,199.173z M134.722,199.116c-1.028-0.066-2.072-0.107-3.104-0.125l0.014-0.78
				c1.044,0.018,2.1,0.06,3.14,0.125L134.722,199.116z M161.194,198.615c-0.953-0.41-1.92-0.811-2.876-1.193l0.29-0.725
				c0.962,0.384,1.936,0.788,2.894,1.201L161.194,198.615z M103.835,198.483l-0.252-0.74c0.942-0.318,1.955-0.631,3.008-0.928
				l0.211,0.753C105.763,197.86,104.765,198.168,103.835,198.483z M171.841,197.37c-0.337-0.782-0.502-1.496-0.502-2.181
				c0-0.374,0.05-0.75,0.148-1.116l0.754,0.201c-0.082,0.305-0.121,0.604-0.121,0.915c0,0.577,0.143,1.189,0.438,1.872
				L171.841,197.37z M109.813,196.79l-0.181-0.76c0.974-0.231,2.004-0.459,3.062-0.679l0.159,0.765
				C111.803,196.334,110.78,196.56,109.813,196.79z M155.412,196.309l-0.395-0.146c-0.84-0.306-1.696-0.604-2.542-0.889l0.248-0.74
				c0.852,0.287,1.714,0.587,2.562,0.896l0.396,0.146L155.412,196.309z M115.911,195.521l-0.141-0.768
				c0.992-0.181,2.03-0.36,3.086-0.532l0.126,0.771C117.931,195.163,116.897,195.341,115.911,195.521z M173.868,195.472
				l-0.779-0.051c0.035-0.527,0.137-1.048,0.302-1.549c0.181-0.547,0.435-1.073,0.758-1.562l0.652,0.429
				c-0.284,0.433-0.509,0.896-0.668,1.378C173.987,194.555,173.898,195.01,173.868,195.472z M122.064,194.515l-0.113-0.772
				c1.104-0.163,2.145-0.308,3.098-0.438l0.105,0.774C124.204,194.208,123.166,194.353,122.064,194.515z M149.512,194.327
				c-0.988-0.299-1.994-0.588-2.991-0.858l0.204-0.753c1.005,0.271,2.018,0.562,3.014,0.864L149.512,194.327z M128.25,193.662
				l-0.104-0.773c0.258-0.036,0.498-0.069,0.716-0.101c0.44-0.062,0.813-0.376,0.95-0.799c0.037-0.117,0.057-0.238,0.057-0.36
				c0-0.041-0.003-0.083-0.007-0.123l0.777-0.083c0.007,0.068,0.01,0.137,0.01,0.206c0,0.204-0.031,0.405-0.094,0.599
				c-0.228,0.707-0.849,1.229-1.583,1.334C128.752,193.593,128.511,193.627,128.25,193.662z M143.504,192.703
				c-1.009-0.24-2.031-0.466-3.038-0.672l0.157-0.766c1.014,0.208,2.044,0.435,3.062,0.678L143.504,192.703z M166.879,191.78
				c-0.957,0-1.949-0.429-2.167-0.938c-0.031-0.073-0.047-0.156-0.047-0.247c0-0.277,0.149-0.635,0.433-1.032l0.636,0.453
				c-0.21,0.295-0.267,0.472-0.282,0.544c0.127,0.128,0.674,0.438,1.427,0.438c0.038,0,0.074,0,0.109-0.003l0.035,0.781
				C166.977,191.778,166.929,191.78,166.879,191.78z M137.409,191.457c-1.02-0.174-2.055-0.333-3.074-0.475l0.106-0.773
				c1.028,0.141,2.07,0.302,3.1,0.479L137.409,191.457z M171.698,191.389c-0.039-0.073-0.076-0.135-0.106-0.186
				c-0.421-0.688-1.049-1.083-1.724-1.083c-0.099,0-0.196,0.008-0.292,0.023l-0.124-0.771c0.136-0.021,0.276-0.033,0.416-0.033
				c0.954,0,1.825,0.531,2.39,1.456c0.039,0.062,0.083,0.141,0.13,0.231L171.698,191.389z M176.9,190.659l-0.37-0.534v0.001
				c-0.634-0.019-1.216-0.341-1.566-0.867c-0.068-0.048-0.286-0.167-0.58-0.167c-0.154,0-0.308,0.036-0.457,0.104l-0.326-0.71
				c0.253-0.116,0.517-0.175,0.783-0.175l0,0c0.553,0,0.996,0.251,1.158,0.419l0.051,0.064c0.208,0.334,0.567,0.54,0.96,0.552
				l-0.019,0.616c0.779-0.529,1.703-1.014,2.75-1.442l0.295,0.722C178.552,189.664,177.649,190.14,176.9,190.659z M131.115,190.285
				c-0.438-0.354-0.703-0.88-0.725-1.443c-0.001-0.025-0.001-0.051-0.001-0.076c0-0.745,0.414-1.414,1.08-1.747l0.349,0.699
				c-0.399,0.2-0.647,0.601-0.647,1.048v0.045c0.013,0.338,0.172,0.653,0.435,0.866L131.115,190.285z M127.933,189.748
				c-0.762-0.351-1.733-0.671-2.888-0.951l0.185-0.759c1.204,0.292,2.223,0.629,3.03,1L127.933,189.748z M170.75,188.992
				c-0.983-0.586-1.818-0.749-2.684-0.525l-0.195-0.757c1.068-0.276,2.112-0.084,3.279,0.611L170.75,188.992z M122.014,188.212
				c-0.944-0.145-1.98-0.276-3.078-0.386l0.01-0.102c-0.173,0.015-0.351,0.007-0.521-0.024l0.139-0.768
				c0.167,0.03,0.346,0.023,0.516-0.021c0.008-0.001,0.865-0.221,2.418-0.49l0.133,0.769c-0.195,0.034-0.38,0.067-0.553,0.099
				c0.362,0.048,0.713,0.099,1.054,0.151L122.014,188.212z M147.367,187.785l-0.523-0.58c0.32-0.289,0.726-0.759,0.861-1.371
				c-0.008-0.101-0.094-0.45-0.34-0.883l0.679-0.385c0.306,0.538,0.443,1.036,0.443,1.288l-0.009,0.1
				C148.308,186.791,147.78,187.411,147.367,187.785z M115.837,187.57c-1.008-0.066-2.054-0.119-3.109-0.158l0.029-0.781
				c1.062,0.04,2.116,0.094,3.131,0.16L115.837,187.57z M144.016,187.554c-1.037-0.136-2.074-0.241-3.085-0.313l0.056-0.779
				c1.025,0.073,2.079,0.179,3.132,0.317L144.016,187.554z M134.752,187.254l-0.069-0.778c0.854-0.075,1.752-0.118,2.679-0.128
				c-0.083-0.005-0.167-0.009-0.25-0.014l0.04-0.78c1.045,0.054,2.099,0.128,3.131,0.224l-0.071,0.777
				c-0.784-0.073-1.58-0.133-2.375-0.181v0.751h-0.045C136.735,187.127,135.713,187.169,134.752,187.254z M124.704,186.742
				l-0.094-0.775c1.025-0.123,2.077-0.226,3.127-0.304l0.059,0.779C126.757,186.52,125.717,186.62,124.704,186.742z
				 M130.898,186.276l-0.025-0.78c1.045-0.034,2.104-0.045,3.139-0.035l-0.007,0.781
				C132.971,186.232,131.93,186.244,130.898,186.276z M143.342,185.598l-0.658-0.42c0.796-1.248,1.635-2.039,2.425-2.287
				l0.234,0.745C144.739,183.826,144.029,184.522,143.342,185.598z M116.153,185.421c-0.351-0.301-0.726-0.453-1.113-0.453
				c-0.312,0-0.667,0.085-1.054,0.253c-0.068,0.029-0.138,0.055-0.208,0.076c-0.001,0-0.001,0-0.001,0.001l-0.001-0.001
				c-0.033,0.01-0.066,0.02-0.099,0.028l-0.042-0.174l-0.4-0.415c0.034-0.033,0.066-0.062,0.097-0.089l0.07-0.059l0.09-0.022
				c0.061-0.015,0.124-0.036,0.184-0.062c1.159-0.501,2.13-0.41,2.986,0.324L116.153,185.421z"/>
		</g>
		<g>
			<path d="M189.943,196.793l0.452-1.013c0.084-0.19,0.163-0.388,0.23-0.587l0.31-0.915l0.413,0.873
				c0.061,0.128,0.143,0.244,0.244,0.341l0.612,0.59l-0.846,0.08c-0.149,0.014-0.293,0.056-0.427,0.125L189.943,196.793z"/>
		</g>
	</g>
	<path d="M82.128,308.919l-11,19.539c0,0,5.034,13.101,12.946,5.985C90.172,325.176,82.128,308.919,82.128,308.919z"/>
	<path fill="#FDF8F7" d="M80.135,307.589c0,0,3.278-0.132,1.562,3.904c-1.582,1.684,1.676,7.158,2.273,12.365
		c0.772,6.728-2.776,11.974-8.911,8.717c-6.294-3.517-6.354-12.614-3.756-17.741C74.184,309.15,80.135,307.589,80.135,307.589z"/>
	<path d="M204.194,243.004c-8.875,14.605-18.189,32.315-18.189,32.315s-26.174,8.836-24.762,39.297
		c0.613,22.396,22.756,44.423,51.229,36.694c15.355,10.538,25.596,12.786,25.596,12.786l26.778-43.519
		C264.845,320.578,213.067,228.399,204.194,243.004z"/>
	<path fill="#F6B540" d="M208.477,341.298c11.713,14.056,23.948,17.44,27.071,17.44c8.069-2.082,33.578-37.225,32.536-51.149
		C266.783,290.28,201.97,332.968,208.477,341.298z"/>
	<path d="M216.758,218.236c0,0,10.095-0.971,11.064-1.099c0.97-0.128,2.322,0.665,2.975,3.043c0.653,2.378-0.455,9.26-0.455,9.26
		l13.795,8.52l-1.024,4.76l5.594,5.194c0,0,15.129-15.871,16.138,10.012c15.734,3.46,21.95,13.995,22.501,22.124
		c3.525,27.518-20.29,34.566-20.29,34.566L216.758,218.236z"/>
	<path fill="#B89656" d="M260.434,246.562c4.37,5.978-1.167,10.305,2.968,15.559c33.808,4.865,20.417,47.031,4.663,49.373
		c-9.09,19.133-23.562,32.794-23.562,32.794l-17.57-7.675c0,0-74.725-8.711-51.145-41.188c23.58-32.476,37.734-77.188,37.734-77.188
		s8.059,0.34,12.884,0.609c1.199,0.067,2.891,2.121,2.876,3c-0.092,5.458-1.282,8.567-1.282,8.567l18.485,28.164l1.807-8.046
		C248.292,250.53,256.454,242.537,260.434,246.562z"/>
	<circle fill="#B89656" cx="203.747" cy="311.494" r="37.346"/>
	<path d="M500.787,442.553c0,0-5.727,3.125-9.371,4.165c4.688,3.123,10.502,0,10.502,0L500.787,442.553z"/>
	<path d="M493.759,407.935c1.304,2.604,13.821-4.446,13.821-4.446l-3.149-2.874c0,0-1.926,2.26-4.943,3.948
		C496.946,405.982,493.164,406.743,493.759,407.935z"/>
	<path d="M457.059,372.013c5.467-1.302,9.37-1.302,9.37-1.302l-0.714-3.267C465.715,367.444,457.319,369.15,457.059,372.013z"/>
	<circle fill="#B89656" cx="324.57" cy="458.43" r="14.576"/>
	<path fill="#31738B" d="M220.775,335.224c27.439-11.11,29.923-72.352,29.923-72.352S243.732,313.354,220.775,335.224z"/>
	<path d="M253.66,249.884c-1.019,3.521-11.083,96.359-51.169,90.039c-11.106-9.645,47.634-87.384,47.634-87.384
		S252.422,248.792,253.66,249.884z"/>
	<path fill="#FFFCFC" d="M228,230.413l14.057,9.11v5.206c0,0,7.287,6.511,8.069,7.811c0.781,1.3-11.974,107.24-58.567,84.074
		c-12.612-6.271-14.934-19.883-10.367-31.496c5.427-13.803,20-26.23,30.41-40.369C224.791,246.834,228,230.413,228,230.413z"/>
	<path d="M201.449,320.578c0,0,8.047-5.743,9.892-10.776c-16.659-10.672,2.082-26.235,8.85-22.749
		c16.659-22.022,21.866-42.325,21.866-42.325v-5.206c0,0-9.233,25.063-23.428,43.993c-12.754-0.785-24.727,14.053-11.713,26.286
		C203.863,315.821,201.449,320.578,201.449,320.578z"/>
	<path d="M134.373,209.606c5.205,1.042,11.192,5.526,11.192,5.526s-49.195,56.945-49.977,56.425
		c-0.78-0.521-14.836-17.44-14.836-17.44S100.013,231.211,134.373,209.606z"/>
	<path d="M157.943,173.981c3.284-2.347,10.969-0.87,10.969-0.87l-1.041,18.272l-12.754,1.928
		C155.117,193.312,156.902,178.927,157.943,173.981z"/>
	<path d="M196.396,201.884c3.471-8.155,4.083-12.917,14.74-12.266c3.491,0.686,8.88,1.969,9.12,12.959
		c3.385,15.878-12.54,23.945-12.54,23.945s-4.327,10.104-10.366,11.715c-4.23,1.128-11.453-1.041-10.137-11.715
		c-1.448-2.86-3.062-4.416-2.97-11.057C184.336,208.824,193.556,207.09,196.396,201.884z"/>
	<path fill="#B89656" d="M190.842,209.761c8.85-3.904,7.549-13.274,11.974-16.659c15.096-7.028,15.357,7.809,15.877,8.329
		c0.521,0.521,1.202,20.626-13.926,20.824c-2.472,19.261-20.432,12.234-13.925,1.822
		C188.979,221.409,181.992,213.666,190.842,209.761z"/>
	<path d="M188.435,188.332C194.614,199.969,177.502,201,177.502,201S192.395,200.196,188.435,188.332z"/>
	<path d="M177.502,201c-7.753-10.419,10.932-12.667,10.932-12.667S168.224,190.266,177.502,201z"/>
	<path d="M164.842,228.697c-17.064,5.145-27.47,12.272-33.534,19.996c-16.45,22.413,0.383,48.355,0.383,48.355
		s-18.568-22.125-2.083-48.188C135.273,240.26,145.959,232.753,164.842,228.697z"/>
	<path d="M168.913,230.283c16.746,59.39-37.223,66.765-37.223,66.765S182.014,286.896,168.913,230.283z"/>
	<path fill="#31738B" d="M125.288,261.273c2.73,21.286,14.53,19.989,14.53,19.989l5.351,4.103c0,0,3.137,3.422,12.774-2.382
		c-12.5,12.229-26.252,14.064-26.252,14.064S118.447,279.957,125.288,261.273z"/>
	<path d="M150.308,238.301c14.18-8.322,11.403,1.222,11.403,1.222s4.584,0.239,5.73,7.323c0.343,7.427-18.558,39.82-22.643,39.414
		c-4.085-0.405-4.779-3.702-4.779-3.702s-5.033,3.279-7.548-5.808C129.957,267.665,136.129,246.623,150.308,238.301z"/>
	<path fill="#B89656" d="M158.99,238.655c0.521,5.38-13.535,41.127-20.65,42.167c-7.114,1.042-9.718-11.278-9.718-11.278
		s3.991-26.377,19.609-30.889C156.507,235.965,159.164,235.011,158.99,238.655z"/>
	<path fill="#B89656" d="M168.775,246.846c-4.512-7.114-7.794-3.47-7.794-3.47l-6.266,16.797l-10.871,19.733
		c0,0-1.1,10.322,9.66,6.158C164.263,281.899,173.287,253.961,168.775,246.846z"/>
	<path d="M180.303,195.318c-0.275,2.542,1.447,2.129,1.447,2.129s1.105,1.217,2.862-0.555c1.757-1.771,3.403-4.433,3.403-4.433
		s0.826-1.733-0.086-2.197c-0.541-1.163-3.041-0.394-3.041-0.394S180.578,192.776,180.303,195.318z"/>
	<path fill="#B89656" d="M187.077,190.15c0.671,0.567-1.079,0.752-2.8,2.602c-1.722,1.85-2.301,4.411-3.26,4.118
		c-1.861-0.567-3.478-7.652,5.32-6.957C186.613,189.935,186.913,190.045,187.077,190.15z"/>
	<path fill="#B89656" d="M183.338,196.339c-0.789,2.644,3.57-0.067,4.742-1.672c1.171-1.606,0.49-3.972,0.49-3.972
		S184.127,193.695,183.338,196.339z"/>
	<path fill="#31738B" d="M187.611,212.006c0.108,4.497,3.798,8.565,6.575,10.036c1.342,7.736,9.488,5.021,9.488,5.021
		s-1.377,6.1-6.59,7.113c-4.549,0.938-6.565-2.106-7.11-3.176c-1.688-3.32,0.868-6.923,0.868-6.923S183.468,216.489,187.611,212.006
		z"/>
	<path d="M190.39,224.872c1.689-2.047,3.796-2.83,3.796-2.83c-2.107-2.048-5.542-0.241-5.542-0.241S188.701,226.92,190.39,224.872z"
		/>
	<path fill="#B0B4B7" d="M197.916,202.547c0,0,4.276-6.159,8.848-7.778c4.572-1.619,9.677,0,9.677,0s-3.062-6.677-13.625-1.667
		C199.874,195.624,197.916,202.547,197.916,202.547z"/>
	<path d="M228.534,339.425c-6.04,8.489-12.376,10.783-12.376,10.783l-3.141-2.528C213.017,347.68,222.444,344.812,228.534,339.425z"
		/>
	<path fill="#B0B4B7" d="M229.282,221.846c-5.187,40.583-36.653,60.104-44.606,75.202c4.567-11.014,24.211-31.804,34.734-50.742
		c7.135-12.84,6.997-27.46,6.997-27.46S228.221,218.224,229.282,221.846z"/>
	<path d="M229.81,231.586c0,0-1.238,7.761-8.135,20.386c-8.111,18.056-19.78,24.942-37,45.075
		c14.216-21.144,24.106-24.725,35.896-46.431c6.088-13.823,7.965-22.121,7.965-22.121L229.81,231.586z"/>
	<path fill="#31738B" d="M260.927,312.015c0,0,1.605,7.332-7.268,22.083c9.045-11.107,12.643-19.585,12.643-19.585l2.18-3.147
		c0,0,12.441-2.604,15.739-22.732C276.591,309.331,260.927,312.015,260.927,312.015z"/>
	<path d="M260.927,312.015c4.144,2.647,6.13,2.603,6.13,2.603l3.538-3.842C270.595,310.775,269.323,311.885,260.927,312.015z"/>
	<path fill="#B0B4B7" d="M152.491,237.289c10.325,0.434-9.428,39.542-9.428,39.542s7.716-11.105,13.031-26.541
		c1.891-5.133,3.223-9.529,2.819-12.801C158.414,235.315,154.338,236.573,152.491,237.289z"/>
	<path fill="#31738B" d="M204.768,218.805v3.45c0,0,11.605,1.52,14.131-15.616C215.231,220.531,204.768,218.805,204.768,218.805z"/>
	<path fill="#31738B" d="M166.691,316.166c2.222,16.282,14.248,27.177,23.11,30.915c17.123,7.219,35.069-4.914,35.069-4.914
		S184.01,363.163,166.691,316.166z"/>
	<path fill="#B0B4B7" d="M263.401,262.121c14.415,6.556,20.82,19.854,20.82,19.854S283.25,264.862,263.401,262.121z"/>
	<path fill="#31738B" d="M331.857,454.527l7.14,1.826c0,0,0.444,2.692-0.374,5.884c-1.218,4.744-7.287,12.852-17.654,10.32
		C332.116,467.279,331.857,454.527,331.857,454.527z"/>
	<path fill="#31738B" d="M513.281,380.082c6.857,18.085-19.522,27.853-19.522,27.853S507.256,396.215,513.281,380.082z"/>
	<path fill="#31738B" d="M457.059,372.013c0,0,0.333-8.507,3.207-8.745c2.873-0.238,5.449,4.176,5.449,4.176L457.059,372.013z"/>
	<path fill="#B0B4B7" d="M474.069,398.947c0,0,0.39,19.911-3.515,24.791c7.028,8.396,5.856,24.793,5.856,24.793l1.409-24.793
		L474.069,398.947z"/>
	<path d="M474.069,398.947c7.81,12.494,5.859,23.276,5.859,23.276s5.462,17.718-3.518,26.308
		c1.953-13.273-0.283-24.793-0.283-24.793S479.359,414.225,474.069,398.947z"/>
	<path fill="#B0B4B7" d="M452.893,297.155c-29.15-12.514-53.033-13.71-76.346-14.205c-49.708-1.057-86.093,12.7-86.093,12.7
		l-0.21,1.505C290.244,297.155,365.769,271.154,452.893,297.155z"/>
	<path fill="#B0B4B7" d="M220.775,418.916l65.389,74.722c0,0-33.177-0.021-40.412-0.568
		C237.721,461.362,220.775,418.916,220.775,418.916z"/>
	<path fill="#31738B" d="M288.229,500.067c0,0-4.286,75.403,89.605,48.242c-141.531,48.189-130.99-48.242-130.99-48.242H288.229z"/>
	<polygon fill="#31738B" points="472.155,484.199 476.668,496.098 415.507,475.08 	"/>
	<polygon fill="#31738B" points="334.688,566.828 345.393,620.801 329.304,620.801 313.216,569.173 	"/>
	<path fill="#B0B4B7" d="M243.322,362.451c0,0,72.644,25.217,106.862,25.232c26.858,0.87,55.017-3.175,79.598-17.025
		c-72.184,55.22-191.714,3.329-191.714,3.329L243.322,362.451z"/>
</g>
</svg>
