<?xml version="1.0" encoding="utf-8"?>
<!-- Generator: Adobe Illustrator 16.0.0, SVG Export Plug-In . SVG Version: 6.00 Build 0)  -->
<!DOCTYPE svg PUBLIC "-//W3C//DTD SVG 1.1//EN" "http://www.w3.org/Graphics/SVG/1.1/DTD/svg11.dtd">
<svg version="1.1" id="Layer_1" xmlns="http://www.w3.org/2000/svg" xmlns:xlink="http://www.w3.org/1999/xlink" x="0px" y="0px"
	 width="549.645px" height="342.205px" viewBox="0 0 549.645 342.205" enable-background="new 0 0 549.645 342.205"
	 xml:space="preserve">
<g id="Layer_1_1_" display="none">
	
		<image display="inline" overflow="visible" enable-background="new    " width="1426" height="1840" xlink:href="61512DB2FE8520F7.jpeg"  transform="matrix(1 0 0 1 -1230.3926 -23)">
	</image>
</g>
<g id="Layer_3" display="none">
	<rect x="-1245.394" y="-41" display="inline" opacity="0.6" enable-background="new    " width="1472" height="1878"/>
</g>
<g>
	<g>
		<path fill="#FFFFFF" d="M129.161,214.484v2.932h-4.467v22.088h-3.574v-22.088h-4.469v-2.932H129.161z"/>
		<path fill="#FFFFFF" d="M141.958,227.888h-6.256v11.617h-3.574v-25.021h3.574v10.723h6.256v-10.723h3.574v25.021h-3.574V227.888z"
			/>
		<path fill="#FFFFFF" d="M149.392,214.484h3.573v25.021h-3.573V214.484z"/>
		<path fill="#FFFFFF" d="M163.536,239.756c-0.893,0-1.678-0.104-2.356-0.314c-0.681-0.209-1.271-0.488-1.771-0.838
			c-0.505-0.349-0.927-0.744-1.271-1.187c-0.345-0.442-0.63-0.896-0.853-1.361c-0.521-1.08-0.818-2.313-0.893-3.7l3.561-0.894
			c0.037,1.005,0.188,1.899,0.447,2.681c0.111,0.335,0.254,0.663,0.426,0.985c0.174,0.32,0.385,0.607,0.639,0.858
			c0.252,0.251,0.548,0.454,0.89,0.607c0.34,0.154,0.733,0.231,1.183,0.231c1.791,0,2.686-0.894,2.686-2.681
			c0-0.447-0.055-0.863-0.166-1.249c-0.113-0.386-0.279-0.759-0.504-1.117c-0.223-0.358-0.502-0.708-0.838-1.048
			c-0.334-0.339-0.725-0.69-1.172-1.054l-4.469-3.574c-0.455-0.363-0.854-0.775-1.193-1.236c-0.338-0.46-0.621-0.947-0.844-1.459
			c-0.224-0.512-0.39-1.033-0.496-1.563c-0.107-0.531-0.16-1.057-0.16-1.578c0-0.8,0.135-1.566,0.404-2.297
			c0.27-0.729,0.666-1.373,1.19-1.927c0.524-0.553,1.181-0.994,1.959-1.319c0.78-0.326,1.685-0.489,2.705-0.489
			c0.896,0,1.685,0.093,2.362,0.279c0.681,0.187,1.271,0.433,1.775,0.74c0.504,0.307,0.928,0.656,1.271,1.047
			c0.344,0.391,0.629,0.787,0.854,1.187c0.521,0.958,0.818,2.043,0.893,3.253l-3.573,0.894c-0.037-0.838-0.187-1.583-0.445-2.234
			c-0.112-0.279-0.256-0.551-0.428-0.817c-0.172-0.265-0.388-0.502-0.638-0.711c-0.252-0.21-0.549-0.38-0.889-0.51
			c-0.342-0.13-0.734-0.196-1.184-0.196c-0.465,0-0.869,0.073-1.209,0.216c-0.342,0.145-0.621,0.338-0.84,0.58
			c-0.221,0.242-0.381,0.526-0.482,0.852c-0.104,0.326-0.154,0.67-0.154,1.033c0,0.616,0.146,1.246,0.435,1.89
			c0.291,0.644,0.743,1.208,1.36,1.694l4.467,3.574c0.568,0.456,1.074,0.956,1.519,1.499c0.443,0.544,0.818,1.113,1.127,1.708
			c0.308,0.595,0.541,1.206,0.699,1.834c0.158,0.627,0.235,1.248,0.235,1.861c0,0.773-0.125,1.511-0.375,2.213
			c-0.254,0.703-0.637,1.324-1.153,1.864s-1.168,0.971-1.949,1.291C165.534,239.596,164.606,239.756,163.536,239.756z"/>
		<path fill="#FFFFFF" d="M192.61,214.484v2.932h-4.467v22.088h-3.574v-22.088H180.1v-2.932H192.61z"/>
		<path fill="#FFFFFF" d="M195.579,214.484h3.574v25.021h-3.574V214.484z"/>
		<path fill="#FFFFFF" d="M210.161,239.505l-3.574-19.741v19.741h-3.573v-25.021h4.846l3.56,19.179l3.557-19.179h5.018v25.021
			h-3.574v-19.743l-3.574,19.743H210.161z"/>
		<path fill="#FFFFFF" d="M231.892,227.888h-4.468v8.936h6.257v2.681h-9.83v-25.021h9.83v2.681h-6.257v8.042h4.468V227.888z"/>
		<path fill="#FFFFFF" d="M256.045,214.484l1.654,11.635l1.012,7.13l1.277-7.083l1.42-11.682h3.574l-4.48,25.021h-3.562
			l-1.666-11.668l-1.021-7.151l-1.021,7.151l-1.668,11.668h-3.859l-4.168-25.021h3.588l1.775,11.617l0.906,7.148l1.014-7.13
			l1.654-11.635H256.045L256.045,214.484z"/>
		<path fill="#FFFFFF" d="M275.994,227.888h-4.47v8.936h6.257v2.681h-9.831v-25.021h9.831v2.681h-6.257v8.042h4.47V227.888z"/>
		<path fill="#FFFFFF" d="M279.826,214.484h3.572l-0.896,5.361h-1.787L279.826,214.484z"/>
		<path fill="#FFFFFF" d="M296.395,239.505l-3.746-11.617h-2.681v11.617h-3.573v-25.021h4.467c1.563,0,2.863,0.16,3.895,0.482
			c1.035,0.321,1.857,0.775,2.475,1.361c0.619,0.586,1.047,1.292,1.3,2.115c0.25,0.824,0.379,1.739,0.379,2.744
			c0,0.615-0.048,1.169-0.136,1.662c-0.09,0.494-0.209,0.934-0.354,1.32c-0.149,0.387-0.317,0.727-0.506,1.02
			s-0.377,0.542-0.572,0.747c-0.459,0.494-0.981,0.848-1.569,1.062l4.03,12.507L296.395,239.505L296.395,239.505z M289.968,225.208
			h0.894c0.67,0,1.279-0.063,1.828-0.188c0.551-0.126,1.021-0.342,1.412-0.649c0.391-0.307,0.692-0.719,0.907-1.236
			c0.214-0.516,0.32-1.166,0.32-1.947c0-0.782-0.106-1.432-0.32-1.948c-0.215-0.517-0.518-0.929-0.907-1.236
			c-0.391-0.307-0.861-0.523-1.412-0.649c-0.549-0.125-1.158-0.188-1.828-0.188h-0.894V225.208z"/>
		<path fill="#FFFFFF" d="M310.807,227.888h-4.468v8.936h6.254v2.681h-9.827v-25.021h9.827v2.681h-6.254v8.042h4.468V227.888z"/>
		<path fill="#FFFFFF" d="M337.193,231.462c0,1.117-0.115,2.178-0.351,3.184c-0.231,1.006-0.622,1.885-1.172,2.639
			c-0.549,0.754-1.28,1.354-2.198,1.801c-0.916,0.447-2.06,0.67-3.429,0.67c-0.93,0-1.756-0.102-2.471-0.307
			c-0.718-0.205-1.339-0.488-1.865-0.852c-0.524-0.363-0.969-0.8-1.332-1.312c-0.362-0.512-0.653-1.075-0.873-1.689
			c-0.219-0.614-0.375-1.271-0.469-1.969c-0.093-0.698-0.14-1.419-0.14-2.164v-8.936c0-0.745,0.047-1.466,0.14-2.165
			c0.094-0.698,0.25-1.354,0.469-1.968c0.22-0.615,0.511-1.178,0.873-1.689c0.363-0.512,0.808-0.95,1.332-1.312
			c0.526-0.363,1.147-0.647,1.865-0.852c0.715-0.205,1.54-0.307,2.471-0.307c1.369,0,2.513,0.224,3.429,0.67
			c0.918,0.447,1.649,1.047,2.198,1.801c0.55,0.754,0.938,1.633,1.172,2.639c0.234,1.006,0.351,2.066,0.351,3.184V231.462z
			 M326.473,232.356c0,0.67,0.061,1.28,0.182,1.829c0.121,0.549,0.32,1.02,0.6,1.41c0.279,0.391,0.646,0.693,1.104,0.908
			c0.455,0.214,1.021,0.321,1.688,0.321c0.67,0,1.231-0.107,1.688-0.321c0.455-0.214,0.824-0.517,1.104-0.908
			c0.279-0.391,0.479-0.861,0.602-1.41c0.121-0.549,0.183-1.159,0.183-1.829v-10.723c0-0.67-0.062-1.28-0.183-1.829
			c-0.121-0.549-0.319-1.02-0.602-1.41c-0.277-0.391-0.646-0.694-1.104-0.908c-0.457-0.214-1.021-0.321-1.688-0.321
			s-1.233,0.107-1.688,0.321c-0.457,0.214-0.822,0.517-1.104,0.908c-0.277,0.391-0.479,0.861-0.6,1.41
			c-0.121,0.549-0.182,1.159-0.182,1.829V232.356z"/>
		<path fill="#FFFFFF" d="M350.438,217.165h-6.254v8.042h4.467v2.681h-4.467v11.617h-3.574v-25.021h9.828V217.165z"/>
		<path fill="#FFFFFF" d="M363.232,217.165h-6.254v8.042h4.467v2.681h-4.467v11.617h-3.574v-25.021h9.828V217.165z"/>
		<path fill="#FFFFFF" d="M374.244,227.888h-4.471v8.936h6.258v2.681h-9.83v-25.021h9.83v2.681h-6.258v8.042h4.471V227.888z"/>
		<path fill="#FFFFFF" d="M388.998,239.505l-3.746-11.617h-2.682v11.617h-3.572v-25.021h4.467c1.562,0,2.863,0.16,3.896,0.482
			c1.033,0.321,1.854,0.775,2.473,1.361c0.613,0.586,1.047,1.292,1.299,2.115c0.25,0.824,0.377,1.739,0.377,2.744
			c0,0.615-0.045,1.169-0.133,1.662c-0.09,0.494-0.209,0.934-0.357,1.32c-0.149,0.387-0.317,0.727-0.504,1.02
			c-0.188,0.293-0.379,0.542-0.574,0.747c-0.459,0.494-0.981,0.848-1.569,1.062l4.032,12.507L388.998,239.505L388.998,239.505z
			 M382.57,225.208h0.895c0.674,0,1.279-0.063,1.83-0.188c0.551-0.126,1.021-0.342,1.41-0.649c0.391-0.307,0.691-0.719,0.906-1.236
			c0.215-0.516,0.32-1.166,0.32-1.947c0-0.782-0.105-1.432-0.32-1.948c-0.215-0.517-0.519-0.929-0.906-1.236
			c-0.391-0.307-0.859-0.523-1.41-0.649c-0.551-0.125-1.156-0.188-1.83-0.188h-0.895V225.208z"/>
		<path fill="#FFFFFF" d="M395.367,214.484h3.572v25.021h-3.572V214.484z"/>
		<path fill="#FFFFFF" d="M412.771,239.505l-6.396-16.645v16.645h-3.574v-25.021h2.347l6.59,16.336v-16.336h3.574v25.021H412.771z"
			/>
		<path fill="#FFFFFF" d="M429.449,222.527c0-0.894-0.062-1.676-0.185-2.346c-0.121-0.67-0.319-1.229-0.6-1.676
			c-0.279-0.447-0.648-0.782-1.105-1.005c-0.457-0.224-1.02-0.335-1.688-0.335s-1.234,0.112-1.689,0.335
			c-0.457,0.223-0.821,0.558-1.104,1.005c-0.279,0.447-0.48,1.005-0.603,1.676c-0.12,0.67-0.182,1.452-0.182,2.346v8.042
			c0,1.34,0.104,2.42,0.307,3.239c0.205,0.819,0.478,1.452,0.812,1.899c0.334,0.447,0.717,0.745,1.145,0.894
			c0.431,0.149,0.865,0.224,1.312,0.224s0.885-0.075,1.311-0.224c0.429-0.149,0.812-0.447,1.146-0.894
			c0.336-0.447,0.604-1.08,0.811-1.899c0.203-0.819,0.31-1.899,0.31-3.239v-0.894h-3.574v-2.681h7.148v12.51h-2.685l-0.893-2.681
			c-0.195,0.549-0.457,1.038-0.781,1.466c-0.141,0.186-0.301,0.368-0.482,0.544c-0.18,0.176-0.389,0.333-0.621,0.468
			c-0.231,0.135-0.485,0.245-0.768,0.328c-0.279,0.084-0.588,0.125-0.922,0.125c-0.744,0-1.439-0.063-2.082-0.188
			c-0.641-0.126-1.23-0.338-1.758-0.636c-0.531-0.298-1-0.693-1.41-1.187c-0.41-0.494-0.756-1.112-1.041-1.857
			c-0.283-0.745-0.498-1.62-0.645-2.625c-0.144-1.005-0.215-2.173-0.215-3.504v-6.339c0-1.34,0.121-2.574,0.362-3.7
			c0.24-1.126,0.642-2.094,1.199-2.904c0.559-0.81,1.295-1.442,2.207-1.898c0.912-0.457,2.039-0.685,3.379-0.685
			c1.182,0,2.217,0.184,3.104,0.551c0.89,0.368,1.636,0.904,2.232,1.606c0.6,0.702,1.053,1.57,1.355,2.604
			c0.305,1.033,0.45,2.211,0.45,3.533h-3.567v0.002H429.449L429.449,222.527z"/>
		<path fill="#FFFFFF" d="M121.5,266.577c-0.871,0-1.617-0.135-2.231-0.403c-0.619-0.269-1.123-0.632-1.517-1.09
			c-0.393-0.458-0.68-0.995-0.86-1.613c-0.183-0.616-0.271-1.274-0.271-1.971v-0.698h2.789c0,0.698,0.043,1.271,0.131,1.722
			c0.088,0.45,0.219,0.806,0.393,1.068c0.174,0.261,0.393,0.442,0.652,0.544c0.262,0.102,0.565,0.152,0.916,0.152
			c0.348,0,0.653-0.05,0.916-0.152c0.262-0.102,0.479-0.283,0.651-0.544c0.177-0.262,0.306-0.618,0.394-1.068
			c0.086-0.451,0.131-1.024,0.131-1.722c0-0.522-0.049-0.999-0.141-1.427c-0.097-0.429-0.252-0.795-0.47-1.1
			c-0.219-0.305-0.506-0.541-0.86-0.708c-0.355-0.167-0.797-0.251-1.318-0.251v-2.788c0.521,0,0.963-0.048,1.318-0.143
			c0.354-0.094,0.643-0.25,0.86-0.468c0.217-0.218,0.373-0.505,0.47-0.86c0.092-0.356,0.141-0.795,0.141-1.318
			s-0.045-0.963-0.131-1.318c-0.088-0.356-0.217-0.643-0.394-0.861c-0.174-0.218-0.391-0.375-0.651-0.468
			c-0.263-0.094-0.568-0.143-0.916-0.143c-0.351,0-0.654,0.051-0.916,0.153c-0.26,0.102-0.479,0.283-0.652,0.544
			c-0.174,0.262-0.305,0.617-0.393,1.068c-0.088,0.45-0.131,1.024-0.131,1.721h-2.789v-0.697c0-0.697,0.09-1.355,0.271-1.972
			c0.183-0.617,0.469-1.154,0.86-1.612c0.394-0.458,0.896-0.821,1.517-1.089c0.614-0.269,1.36-0.403,2.231-0.403
			s1.615,0.135,2.232,0.403c0.617,0.268,1.123,0.632,1.514,1.089c0.396,0.458,0.68,0.996,0.861,1.612
			c0.182,0.617,0.273,1.275,0.273,1.972c0,0.436-0.039,0.83-0.121,1.182c-0.08,0.352-0.184,0.666-0.314,0.942
			c-0.13,0.276-0.281,0.519-0.447,0.73c-0.168,0.211-0.338,0.392-0.512,0.544c-0.408,0.355-0.871,0.618-1.395,0.785
			c0.523,0.174,0.986,0.464,1.395,0.871c0.174,0.174,0.344,0.383,0.512,0.627c0.166,0.244,0.316,0.528,0.447,0.855
			c0.131,0.327,0.234,0.698,0.314,1.116c0.082,0.418,0.121,0.888,0.121,1.411c0,0.872-0.092,1.664-0.273,2.375
			c-0.181,0.711-0.467,1.318-0.861,1.819c-0.391,0.502-0.896,0.89-1.514,1.166C123.116,266.437,122.372,266.577,121.5,266.577z"/>
		<path fill="#FFFFFF" d="M145.924,260.106c0,0.872-0.09,1.699-0.271,2.483c-0.182,0.785-0.487,1.471-0.916,2.06
			c-0.428,0.588-1.002,1.057-1.715,1.406c-0.715,0.348-1.606,0.522-2.676,0.522c-0.728,0-1.369-0.08-1.927-0.24
			c-0.561-0.16-1.047-0.381-1.457-0.664c-0.407-0.284-0.756-0.625-1.039-1.024c-0.282-0.399-0.512-0.839-0.682-1.318
			c-0.17-0.48-0.293-0.991-0.365-1.536c-0.071-0.545-0.108-1.108-0.108-1.689v-6.973c0-0.581,0.037-1.144,0.108-1.689
			c0.072-0.544,0.195-1.057,0.365-1.536c0.17-0.479,0.398-0.919,0.682-1.318c0.283-0.399,0.632-0.741,1.039-1.024
			c0.41-0.283,0.896-0.504,1.457-0.664c0.558-0.16,1.199-0.24,1.927-0.24c1.067,0,1.961,0.174,2.676,0.523
			c0.713,0.349,1.287,0.817,1.715,1.406c0.429,0.588,0.734,1.274,0.916,2.059c0.183,0.784,0.271,1.612,0.271,2.484V260.106z
			 M137.558,260.803c0,0.523,0.049,0.999,0.144,1.427c0.096,0.429,0.25,0.795,0.469,1.101c0.219,0.306,0.504,0.541,0.858,0.708
			c0.356,0.167,0.798,0.25,1.318,0.25c0.524,0,0.963-0.083,1.317-0.25c0.355-0.167,0.646-0.403,0.861-0.708
			c0.219-0.305,0.373-0.671,0.469-1.101c0.094-0.429,0.141-0.904,0.141-1.427v-8.367c0-0.523-0.047-0.999-0.141-1.427
			c-0.096-0.429-0.25-0.795-0.469-1.1c-0.217-0.305-0.506-0.541-0.861-0.708c-0.354-0.167-0.793-0.251-1.317-0.251
			c-0.521,0-0.962,0.084-1.318,0.251c-0.354,0.167-0.641,0.403-0.858,0.708c-0.219,0.305-0.373,0.671-0.469,1.1
			c-0.095,0.429-0.144,0.904-0.144,1.427V260.803z"/>
		<path fill="#FFFFFF" d="M153.47,246.858c0.872,0,1.616,0.127,2.233,0.381c0.617,0.254,1.121,0.621,1.514,1.101
			c0.394,0.48,0.681,1.063,0.861,1.754c0.182,0.691,0.271,1.471,0.271,2.342s-0.123,1.616-0.369,2.233
			c-0.248,0.617-0.59,1.122-1.025,1.515c-0.436,0.392-0.953,0.679-1.547,0.86c-0.594,0.181-1.242,0.272-1.938,0.272h-2.093v9.064
			h-2.789v-19.523L153.47,246.858L153.47,246.858z M152.075,255.225c0.697,0,1.271-0.047,1.723-0.142
			c0.449-0.095,0.806-0.251,1.066-0.468c0.262-0.218,0.443-0.505,0.545-0.861c0.104-0.356,0.152-0.795,0.152-1.318
			s-0.016-0.999-0.055-1.427c-0.037-0.429-0.162-0.795-0.381-1.1c-0.219-0.305-0.562-0.541-1.035-0.708
			c-0.473-0.167-1.146-0.251-2.016-0.251h-0.697v6.276L152.075,255.225L152.075,255.225z"/>
		<path fill="#FFFFFF" d="M169.729,246.858v2.288h-3.488v17.235h-2.789v-17.235h-3.484v-2.288H169.729L169.729,246.858z"/>
		<path fill="#FFFFFF" d="M172.045,246.858h2.789v19.523h-2.789V246.858z"/>
		<path fill="#FFFFFF" d="M188.653,260.106c0,0.872-0.092,1.699-0.273,2.483c-0.18,0.785-0.485,1.471-0.916,2.06
			c-0.426,0.588-1,1.057-1.713,1.406c-0.717,0.348-1.608,0.522-2.676,0.522c-0.727,0-1.367-0.08-1.928-0.24
			c-0.559-0.16-1.045-0.381-1.453-0.664c-0.412-0.284-0.76-0.625-1.043-1.024c-0.283-0.399-0.51-0.839-0.68-1.318
			c-0.172-0.48-0.293-0.991-0.367-1.536c-0.07-0.545-0.107-1.108-0.107-1.689v-6.973c0-0.581,0.037-1.144,0.107-1.689
			c0.074-0.544,0.195-1.057,0.367-1.536c0.17-0.479,0.396-0.919,0.68-1.318c0.283-0.399,0.631-0.741,1.043-1.024
			c0.408-0.283,0.895-0.504,1.453-0.664c0.561-0.16,1.201-0.24,1.928-0.24c1.066,0,1.959,0.174,2.676,0.523
			c0.713,0.349,1.287,0.817,1.713,1.406c0.431,0.588,0.736,1.274,0.916,2.059c0.183,0.784,0.273,1.612,0.273,2.484V260.106z
			 M180.286,260.803c0,0.523,0.047,0.999,0.141,1.427c0.097,0.429,0.253,0.795,0.47,1.101c0.22,0.305,0.506,0.541,0.86,0.708
			c0.355,0.167,0.795,0.25,1.318,0.25c0.523,0,0.963-0.083,1.318-0.25s0.643-0.403,0.859-0.708c0.219-0.305,0.377-0.671,0.469-1.101
			c0.096-0.429,0.143-0.904,0.143-1.427v-8.367c0-0.523-0.047-0.999-0.143-1.427c-0.092-0.429-0.25-0.795-0.469-1.1
			c-0.217-0.305-0.504-0.541-0.859-0.708s-0.795-0.251-1.318-0.251c-0.523,0-0.963,0.084-1.318,0.251
			c-0.354,0.167-0.643,0.403-0.86,0.708c-0.217,0.305-0.373,0.671-0.47,1.1c-0.094,0.429-0.141,0.904-0.141,1.427V260.803z"/>
		<path fill="#FFFFFF" d="M199.097,266.381l-4.99-12.987v12.987h-2.791v-19.523h1.83l5.144,12.747v-12.747h2.791v19.523H199.097z"/>
		<path fill="#FFFFFF" d="M209.325,266.577c-0.697,0-1.309-0.082-1.838-0.245c-0.531-0.164-0.992-0.381-1.383-0.654
			c-0.393-0.271-0.723-0.581-0.99-0.926c-0.271-0.344-0.492-0.699-0.666-1.062c-0.406-0.843-0.639-1.805-0.697-2.888l2.779-0.697
			c0.029,0.784,0.146,1.481,0.35,2.092c0.088,0.261,0.197,0.517,0.332,0.768c0.138,0.25,0.302,0.474,0.496,0.67
			c0.199,0.196,0.431,0.354,0.695,0.474c0.264,0.121,0.572,0.179,0.922,0.179c1.398,0,2.096-0.696,2.096-2.091
			c0-0.349-0.043-0.674-0.129-0.976c-0.088-0.301-0.219-0.592-0.393-0.871c-0.174-0.28-0.393-0.552-0.654-0.817
			c-0.262-0.265-0.565-0.539-0.914-0.823l-3.485-2.789c-0.354-0.284-0.669-0.605-0.933-0.964c-0.264-0.36-0.483-0.74-0.658-1.139
			c-0.176-0.399-0.303-0.806-0.389-1.221c-0.084-0.414-0.125-0.824-0.125-1.23c0-0.625,0.105-1.222,0.316-1.792
			c0.209-0.57,0.52-1.071,0.93-1.503c0.41-0.432,0.92-0.775,1.527-1.029c0.609-0.254,1.314-0.382,2.111-0.382
			c0.699,0,1.313,0.072,1.844,0.218c0.531,0.146,0.992,0.338,1.385,0.577c0.393,0.24,0.725,0.513,0.992,0.817
			c0.271,0.305,0.492,0.614,0.668,0.926c0.406,0.749,0.637,1.594,0.697,2.539l-2.791,0.697c-0.029-0.654-0.146-1.235-0.349-1.743
			c-0.088-0.218-0.198-0.431-0.334-0.637c-0.135-0.208-0.301-0.392-0.495-0.556c-0.197-0.164-0.429-0.296-0.693-0.397
			c-0.266-0.102-0.574-0.153-0.924-0.153c-0.363,0-0.679,0.057-0.943,0.169c-0.266,0.113-0.484,0.263-0.654,0.452
			c-0.172,0.189-0.297,0.41-0.379,0.665c-0.08,0.255-0.119,0.523-0.119,0.807c0,0.48,0.113,0.972,0.338,1.475
			c0.227,0.503,0.582,0.942,1.061,1.322l3.486,2.789c0.443,0.356,0.84,0.746,1.187,1.17c0.346,0.424,0.64,0.868,0.879,1.333
			c0.239,0.464,0.422,0.941,0.547,1.431c0.123,0.489,0.187,0.974,0.187,1.452c0,0.603-0.101,1.178-0.295,1.727
			c-0.195,0.548-0.496,1.033-0.9,1.454c-0.402,0.421-0.91,0.757-1.52,1.008C210.885,266.452,210.163,266.577,209.325,266.577z"/>
		<path fill="#FFFFFF" d="M216.874,263.592h2.854c0,1.045-0.011,1.925-0.033,2.636c-0.021,0.712-0.098,1.286-0.229,1.721
			c-0.133,0.437-0.344,0.749-0.631,0.938s-0.697,0.283-1.23,0.283l-0.729-1.394c0.365,0,0.646-0.049,0.844-0.147
			c0.197-0.098,0.344-0.22,0.434-0.365c0.092-0.146,0.145-0.298,0.16-0.458c0.016-0.159,0.021-0.301,0.021-0.425h-1.459
			L216.874,263.592L216.874,263.592z"/>
		<path fill="#FFFFFF" d="M236.418,257.316h-4.881v9.064h-2.789v-19.523h2.789v8.367h4.881v-8.367h2.789v19.523h-2.789V257.316z"/>
		<path fill="#FFFFFF" d="M253.026,260.106c0,0.872-0.09,1.699-0.271,2.483c-0.182,0.785-0.487,1.471-0.916,2.06
			c-0.428,0.588-1,1.057-1.715,1.406c-0.715,0.348-1.606,0.522-2.674,0.522c-0.729,0-1.369-0.08-1.928-0.24
			c-0.561-0.16-1.047-0.381-1.455-0.664c-0.412-0.284-0.76-0.625-1.041-1.024c-0.283-0.399-0.512-0.839-0.682-1.318
			c-0.17-0.48-0.291-0.991-0.365-1.536c-0.072-0.545-0.107-1.108-0.107-1.689v-6.973c0-0.581,0.035-1.144,0.107-1.689
			c0.074-0.544,0.195-1.057,0.365-1.536c0.17-0.479,0.398-0.919,0.682-1.318c0.281-0.399,0.629-0.741,1.041-1.024
			c0.408-0.283,0.895-0.504,1.455-0.664c0.559-0.16,1.199-0.24,1.928-0.24c1.066,0,1.959,0.174,2.674,0.523s1.287,0.817,1.715,1.406
			c0.429,0.588,0.734,1.274,0.916,2.059c0.183,0.784,0.271,1.612,0.271,2.484V260.106z M244.661,260.803
			c0,0.523,0.047,0.999,0.141,1.427c0.095,0.429,0.25,0.795,0.47,1.101s0.504,0.541,0.86,0.708c0.355,0.167,0.795,0.25,1.318,0.25
			c0.523,0,0.961-0.083,1.316-0.25s0.645-0.403,0.861-0.708c0.219-0.305,0.375-0.671,0.469-1.101
			c0.094-0.429,0.141-0.904,0.141-1.427v-8.367c0-0.523-0.047-0.999-0.141-1.427c-0.094-0.428-0.25-0.795-0.469-1.1
			c-0.217-0.305-0.506-0.541-0.861-0.708s-0.793-0.251-1.316-0.251c-0.523,0-0.963,0.084-1.318,0.251
			c-0.356,0.167-0.643,0.403-0.86,0.708c-0.22,0.305-0.375,0.671-0.47,1.1c-0.094,0.429-0.141,0.904-0.141,1.427V260.803z"/>
		<path fill="#FFFFFF" d="M260.571,246.858c0.873,0,1.617,0.127,2.234,0.381c0.617,0.254,1.121,0.621,1.514,1.101
			s0.68,1.063,0.861,1.754c0.181,0.691,0.271,1.471,0.271,2.342s-0.123,1.616-0.371,2.233c-0.246,0.617-0.588,1.122-1.023,1.515
			c-0.436,0.392-0.951,0.679-1.547,0.86c-0.594,0.182-1.242,0.272-1.939,0.272h-2.092v9.064h-2.789v-19.523L260.571,246.858
			L260.571,246.858z M259.176,255.225c0.697,0,1.271-0.047,1.724-0.142c0.451-0.095,0.806-0.251,1.065-0.468
			c0.263-0.218,0.443-0.505,0.546-0.861c0.104-0.356,0.151-0.795,0.151-1.318s-0.016-0.999-0.053-1.427
			c-0.039-0.429-0.166-0.795-0.383-1.1c-0.219-0.305-0.562-0.541-1.035-0.708s-1.145-0.251-2.016-0.251h-0.697v6.276
			L259.176,255.225L259.176,255.225z"/>
		<path fill="#FFFFFF" d="M267.767,246.858h2.787v19.523h-2.787V246.858z"/>
		<path fill="#FFFFFF" d="M281.348,266.381l-4.988-12.987v12.987h-2.792v-19.523h1.833l5.143,12.747v-12.747h2.787v19.523H281.348z"
			/>
		<path fill="#FFFFFF" d="M294.361,253.133c0-0.697-0.049-1.308-0.144-1.83c-0.096-0.523-0.25-0.959-0.469-1.308
			c-0.217-0.349-0.504-0.61-0.858-0.784c-0.355-0.174-0.798-0.262-1.316-0.262c-0.523,0-0.965,0.088-1.32,0.262
			c-0.354,0.174-0.645,0.436-0.857,0.784c-0.221,0.349-0.373,0.785-0.471,1.308c-0.096,0.522-0.143,1.133-0.143,1.83v6.275
			c0,1.045,0.078,1.888,0.238,2.527s0.371,1.133,0.631,1.482c0.264,0.349,0.562,0.581,0.896,0.697
			c0.334,0.116,0.678,0.173,1.025,0.173s0.688-0.058,1.021-0.173c0.334-0.116,0.631-0.349,0.895-0.697
			c0.262-0.348,0.473-0.843,0.631-1.482c0.159-0.639,0.24-1.482,0.24-2.527v-0.698h-2.787v-2.092h5.574v9.762h-2.09l-0.696-2.092
			c-0.153,0.429-0.356,0.811-0.61,1.145c-0.107,0.145-0.232,0.287-0.375,0.424c-0.145,0.138-0.305,0.26-0.482,0.365
			c-0.186,0.105-0.383,0.191-0.602,0.256s-0.459,0.098-0.719,0.098c-0.582,0-1.123-0.049-1.625-0.147
			c-0.5-0.098-0.959-0.263-1.373-0.496c-0.412-0.232-0.779-0.541-1.102-0.925c-0.318-0.385-0.59-0.869-0.812-1.45
			s-0.392-1.263-0.5-2.048c-0.11-0.784-0.17-1.696-0.17-2.734v-4.946c0-1.045,0.096-2.008,0.28-2.887
			c0.188-0.878,0.502-1.634,0.938-2.266c0.438-0.632,1.011-1.126,1.724-1.481c0.711-0.356,1.59-0.534,2.637-0.534
			c0.922,0,1.729,0.144,2.424,0.43c0.693,0.287,1.273,0.705,1.742,1.253c0.471,0.549,0.82,1.226,1.059,2.033
			c0.234,0.806,0.354,1.725,0.354,2.756L294.361,253.133L294.361,253.133z"/>
		<path fill="#FFFFFF" d="M316.693,260.106c0,0.872-0.092,1.699-0.271,2.483c-0.184,0.785-0.484,1.471-0.916,2.06
			c-0.428,0.588-0.998,1.057-1.715,1.406c-0.715,0.348-1.604,0.522-2.674,0.522c-0.729,0-1.371-0.08-1.932-0.24
			c-0.56-0.16-1.043-0.381-1.453-0.664c-0.412-0.284-0.758-0.625-1.041-1.024c-0.281-0.399-0.51-0.839-0.68-1.318
			c-0.173-0.48-0.293-0.991-0.367-1.536c-0.07-0.545-0.107-1.108-0.107-1.689v-6.973c0-0.581,0.037-1.144,0.107-1.689
			c0.074-0.544,0.194-1.057,0.367-1.536c0.17-0.479,0.396-0.919,0.68-1.318c0.283-0.399,0.629-0.741,1.041-1.024
			c0.41-0.283,0.896-0.504,1.453-0.664c0.559-0.16,1.201-0.24,1.932-0.24c1.066,0,1.959,0.174,2.674,0.523
			c0.717,0.349,1.287,0.817,1.715,1.406c0.432,0.588,0.734,1.274,0.916,2.059c0.184,0.784,0.271,1.612,0.271,2.484V260.106z
			 M308.326,260.803c0,0.523,0.047,0.999,0.143,1.427c0.098,0.429,0.25,0.795,0.471,1.101c0.22,0.306,0.504,0.541,0.859,0.708
			c0.354,0.167,0.795,0.25,1.318,0.25c0.521,0,0.961-0.083,1.316-0.25c0.354-0.167,0.645-0.403,0.858-0.708
			c0.219-0.305,0.373-0.671,0.469-1.101c0.097-0.429,0.144-0.904,0.144-1.427v-8.367c0-0.523-0.047-0.999-0.144-1.427
			c-0.096-0.428-0.25-0.795-0.469-1.1c-0.217-0.305-0.504-0.541-0.858-0.708c-0.355-0.167-0.795-0.251-1.316-0.251
			c-0.523,0-0.965,0.084-1.318,0.251c-0.355,0.167-0.645,0.403-0.859,0.708c-0.221,0.305-0.373,0.671-0.471,1.1
			c-0.096,0.429-0.143,0.904-0.143,1.427V260.803z"/>
		<path fill="#FFFFFF" d="M327.136,266.381l-4.987-12.987v12.987h-2.789v-19.523h1.83l5.141,12.747v-12.747h2.791v19.523H327.136z"
			/>
		<path fill="#FFFFFF" d="M338.404,257.316h-3.484v6.972h4.885v2.092h-7.672v-19.523h7.672v2.091h-4.885v6.276h3.484V257.316z"/>
		<path fill="#FFFFFF" d="M358.998,260.106c0,0.872-0.09,1.699-0.271,2.483c-0.185,0.785-0.488,1.471-0.916,2.06
			c-0.429,0.588-1,1.057-1.715,1.406c-0.718,0.348-1.609,0.522-2.677,0.522c-0.728,0-1.369-0.08-1.93-0.24
			c-0.56-0.16-1.044-0.381-1.453-0.664c-0.41-0.284-0.759-0.625-1.041-1.024c-0.281-0.399-0.509-0.839-0.681-1.318
			c-0.172-0.48-0.293-0.991-0.364-1.536c-0.074-0.545-0.109-1.108-0.109-1.689v-6.973c0-0.581,0.035-1.144,0.109-1.689
			c0.071-0.544,0.192-1.057,0.364-1.536s0.396-0.919,0.681-1.318c0.282-0.399,0.631-0.741,1.041-1.024
			c0.409-0.283,0.896-0.504,1.453-0.664c0.561-0.16,1.202-0.24,1.93-0.24c1.065,0,1.959,0.174,2.677,0.523
			c0.715,0.349,1.286,0.817,1.715,1.406c0.43,0.588,0.731,1.274,0.916,2.059c0.184,0.784,0.271,1.612,0.271,2.484V260.106z
			 M350.63,260.803c0,0.523,0.047,0.999,0.144,1.427c0.094,0.429,0.25,0.795,0.469,1.101c0.217,0.305,0.504,0.541,0.859,0.708
			c0.356,0.167,0.795,0.25,1.317,0.25c0.521,0,0.963-0.083,1.315-0.25c0.354-0.167,0.646-0.403,0.861-0.708
			c0.217-0.305,0.373-0.671,0.469-1.101c0.097-0.429,0.144-0.904,0.144-1.427v-8.367c0-0.523-0.047-0.999-0.144-1.427
			c-0.096-0.429-0.252-0.795-0.469-1.1c-0.221-0.305-0.508-0.541-0.861-0.708c-0.353-0.167-0.797-0.251-1.315-0.251
			c-0.522,0-0.961,0.084-1.317,0.251c-0.355,0.167-0.644,0.403-0.859,0.708c-0.219,0.305-0.375,0.671-0.469,1.1
			c-0.097,0.429-0.144,0.904-0.144,1.427V260.803z"/>
		<path fill="#FFFFFF" d="M369.33,248.949h-4.881v6.276h3.484v2.091h-3.484v9.064h-2.789v-19.523h7.67V248.949z"/>
		<path fill="#FFFFFF" d="M386.783,246.858v2.288h-3.484v17.235h-2.791v-17.235h-3.484v-2.288H386.783L386.783,246.858z"/>
		<path fill="#FFFFFF" d="M396.77,257.316h-4.883v9.064h-2.789v-19.523h2.789v8.367h4.883v-8.367h2.787v19.523h-2.787V257.316z"/>
		<path fill="#FFFFFF" d="M408.846,257.316h-3.488v6.972h4.883v2.092h-7.67v-19.523h7.67v2.091h-4.883v6.276h3.488V257.316z"/>
		<path fill="#FFFFFF" d="M417.789,266.577c-0.697,0-1.312-0.082-1.84-0.245c-0.529-0.164-0.99-0.381-1.385-0.654
			c-0.394-0.273-0.724-0.581-0.988-0.926c-0.271-0.344-0.49-0.699-0.664-1.062c-0.406-0.843-0.641-1.805-0.697-2.888l2.779-0.697
			c0.027,0.784,0.146,1.481,0.35,2.092c0.088,0.261,0.197,0.517,0.332,0.768c0.137,0.251,0.303,0.474,0.496,0.67
			c0.197,0.196,0.43,0.354,0.695,0.474c0.266,0.121,0.57,0.179,0.922,0.179c1.396,0,2.096-0.696,2.096-2.091
			c0-0.349-0.043-0.674-0.129-0.976c-0.088-0.301-0.219-0.592-0.396-0.871c-0.174-0.28-0.391-0.552-0.65-0.817
			c-0.262-0.265-0.566-0.539-0.916-0.823l-3.484-2.789c-0.354-0.284-0.666-0.605-0.934-0.964c-0.266-0.36-0.482-0.74-0.658-1.139
			c-0.174-0.399-0.303-0.806-0.387-1.221c-0.084-0.414-0.125-0.824-0.125-1.23c0-0.625,0.104-1.222,0.312-1.792
			c0.213-0.57,0.521-1.071,0.932-1.503c0.41-0.432,0.92-0.775,1.529-1.029c0.606-0.254,1.312-0.382,2.108-0.382
			c0.697,0,1.312,0.072,1.845,0.218c0.528,0.146,0.991,0.338,1.385,0.577c0.395,0.24,0.727,0.513,0.996,0.817
			c0.268,0.305,0.485,0.614,0.661,0.926c0.406,0.749,0.642,1.594,0.697,2.539l-2.789,0.697c-0.028-0.654-0.146-1.235-0.35-1.743
			c-0.087-0.218-0.197-0.431-0.332-0.637c-0.136-0.208-0.302-0.392-0.496-0.556c-0.197-0.164-0.429-0.296-0.692-0.397
			c-0.269-0.102-0.574-0.153-0.925-0.153c-0.362,0-0.678,0.057-0.944,0.169c-0.267,0.113-0.48,0.263-0.652,0.452
			c-0.174,0.189-0.299,0.41-0.379,0.665c-0.078,0.255-0.117,0.523-0.117,0.807c0,0.48,0.111,0.972,0.338,1.475
			c0.229,0.503,0.58,0.942,1.062,1.322l3.483,2.789c0.44,0.356,0.841,0.746,1.187,1.17c0.346,0.424,0.641,0.868,0.881,1.333
			c0.233,0.464,0.422,0.941,0.547,1.431c0.121,0.489,0.184,0.974,0.184,1.452c0,0.603-0.098,1.178-0.293,1.727
			c-0.196,0.548-0.498,1.033-0.899,1.454c-0.402,0.421-0.91,0.757-1.521,1.008C419.348,266.454,418.625,266.577,417.789,266.577z"/>
		<path fill="#FFFFFF" d="M431.613,257.316h-3.486v6.972h4.881v2.092h-7.67v-19.523h7.67v2.091h-4.881v6.276h3.486V257.316z"/>
		<path fill="#FFFFFF" d="M131.297,278.411h-9.34v12.009h6.67v4.003h-6.67v17.346h-5.338V274.41h14.678V278.411z"/>
		<path fill="#FFFFFF" d="M135.729,274.408h5.336v37.358h-5.336V274.408z"/>
		<path fill="#FFFFFF" d="M164.174,274.408v4.378h-6.67v32.98h-5.338v-32.98h-6.672v-4.378H164.174z"/>
		<path fill="#FFFFFF" d="M178.625,312.145c-1.334,0-2.508-0.153-3.521-0.469c-1.015-0.312-1.896-0.729-2.646-1.25
			c-0.75-0.521-1.381-1.109-1.896-1.771s-0.938-1.337-1.271-2.033c-0.778-1.612-1.225-3.453-1.336-5.525l5.318-1.333
			c0.055,1.501,0.279,2.835,0.668,4.002c0.168,0.5,0.381,0.99,0.639,1.471c0.258,0.479,0.572,0.906,0.949,1.281
			c0.377,0.375,0.818,0.679,1.326,0.907c0.51,0.23,1.098,0.346,1.768,0.346c2.674,0,4.013-1.333,4.013-4.003
			c0-0.667-0.084-1.288-0.25-1.864c-0.168-0.577-0.418-1.134-0.75-1.668c-0.336-0.536-0.752-1.058-1.252-1.564
			c-0.503-0.507-1.084-1.031-1.753-1.574l-6.672-5.337c-0.68-0.542-1.274-1.157-1.782-1.845c-0.507-0.688-0.927-1.414-1.261-2.178
			c-0.334-0.764-0.58-1.543-0.741-2.335c-0.158-0.792-0.238-1.577-0.238-2.356c0-1.195,0.201-2.338,0.604-3.43
			c0.4-1.091,0.996-2.05,1.777-2.877c0.785-0.827,1.762-1.483,2.928-1.97c1.164-0.486,2.512-0.73,4.039-0.73
			c1.336,0,2.512,0.139,3.527,0.417c1.016,0.279,1.898,0.646,2.65,1.105s1.385,0.98,1.897,1.564
			c0.517,0.583,0.938,1.175,1.275,1.772c0.778,1.433,1.223,3.052,1.334,4.858l-5.337,1.334c-0.057-1.25-0.278-2.363-0.67-3.335
			c-0.166-0.417-0.379-0.823-0.637-1.22c-0.258-0.395-0.574-0.75-0.949-1.062c-0.379-0.313-0.819-0.566-1.328-0.761
			c-0.508-0.194-1.098-0.292-1.766-0.292c-0.697,0-1.299,0.107-1.807,0.322c-0.508,0.217-0.928,0.505-1.256,0.866
			c-0.326,0.362-0.566,0.786-0.721,1.272c-0.15,0.487-0.229,1.001-0.229,1.543c0,0.92,0.217,1.859,0.647,2.821
			c0.432,0.962,1.111,1.806,2.029,2.53l6.672,5.336c0.851,0.681,1.605,1.427,2.267,2.239c0.662,0.812,1.225,1.662,1.687,2.55
			c0.456,0.889,0.807,1.801,1.043,2.737c0.235,0.938,0.354,1.864,0.354,2.779c0,1.154-0.188,2.255-0.562,3.304
			c-0.375,1.052-0.951,1.979-1.723,2.784c-0.771,0.806-1.742,1.449-2.91,1.928C181.61,311.905,180.226,312.145,178.625,312.145z"/>
		<path fill="#FFFFFF" d="M211.366,311.769v-12.006l-8.008-25.353h5.338l5.346,18.681l5.33-18.681h4.769l-7.438,25.353v12.006
			H211.366z"/>
		<path fill="#FFFFFF" d="M249.821,299.761c0,1.667-0.176,3.252-0.521,4.753c-0.345,1.501-0.932,2.814-1.75,3.94
			c-0.819,1.125-1.916,2.021-3.284,2.688c-1.369,0.667-3.076,1-5.117,1c-1.392,0-2.621-0.15-3.69-0.458
			c-1.07-0.305-1.998-0.729-2.783-1.271c-0.785-0.542-1.449-1.195-1.992-1.959c-0.541-0.767-0.975-1.605-1.303-2.522
			c-0.326-0.918-0.56-1.897-0.699-2.939c-0.137-1.042-0.207-2.119-0.207-3.231v-13.344c0-1.112,0.07-2.189,0.207-3.231
			c0.141-1.043,0.373-2.022,0.699-2.94c0.328-0.918,0.762-1.758,1.303-2.523c0.543-0.764,1.207-1.418,1.992-1.96
			c0.785-0.542,1.713-0.965,2.783-1.271c1.069-0.306,2.301-0.459,3.69-0.459c2.041,0,3.748,0.333,5.117,1.001
			c1.368,0.667,2.465,1.563,3.284,2.689c0.818,1.126,1.404,2.439,1.75,3.94c0.347,1.501,0.521,3.085,0.521,4.753V299.761z
			 M233.81,301.094c0,1.001,0.09,1.912,0.271,2.732c0.18,0.82,0.479,1.521,0.896,2.105c0.416,0.583,0.965,1.035,1.646,1.354
			c0.682,0.321,1.521,0.479,2.522,0.479c1,0,1.84-0.156,2.521-0.479c0.683-0.319,1.23-0.771,1.648-1.354
			c0.418-0.584,0.715-1.286,0.895-2.105c0.183-0.82,0.271-1.731,0.271-2.732v-16.012c0-1.001-0.09-1.91-0.271-2.731
			c-0.18-0.819-0.477-1.521-0.895-2.105s-0.967-1.036-1.648-1.355c-0.682-0.319-1.521-0.479-2.521-0.479
			c-1.002,0-1.842,0.16-2.522,0.479c-0.683,0.32-1.23,0.771-1.646,1.355c-0.418,0.583-0.717,1.286-0.896,2.105
			c-0.182,0.821-0.271,1.73-0.271,2.731V301.094z"/>
		<path fill="#FFFFFF" d="M265.592,312.166c-1.557,0-2.899-0.185-4.032-0.553c-1.134-0.368-2.097-0.875-2.89-1.522
			c-0.793-0.646-1.432-1.41-1.918-2.293c-0.485-0.883-0.862-1.831-1.137-2.845c-0.271-1.016-0.455-2.078-0.551-3.19
			c-0.1-1.111-0.146-2.224-0.146-3.335V274.41h5.338v24.033c0,0.668,0.007,1.362,0.021,2.086c0.013,0.724,0.074,1.429,0.177,2.118
			c0.104,0.688,0.262,1.346,0.471,1.971c0.209,0.626,0.51,1.172,0.906,1.638c0.397,0.467,0.899,0.838,1.512,1.117
			c0.611,0.277,1.363,0.417,2.252,0.417c0.889,0,1.641-0.14,2.252-0.417c0.613-0.279,1.115-0.65,1.512-1.117
			c0.395-0.466,0.697-1.011,0.906-1.638c0.209-0.625,0.365-1.282,0.469-1.971c0.104-0.689,0.164-1.396,0.18-2.118
			c0.012-0.724,0.021-1.418,0.021-2.086V274.41h5.338v24.018c0,1.112-0.049,2.225-0.146,3.335c-0.098,1.112-0.283,2.177-0.553,3.19
			c-0.271,1.015-0.647,1.962-1.137,2.845c-0.485,0.883-1.125,1.648-1.918,2.293c-0.791,0.646-1.756,1.154-2.89,1.522
			C268.495,311.981,267.149,312.166,265.592,312.166z"/>
		<path fill="#FFFFFF" d="M296.968,311.769l-5.596-17.346h-4.002v17.346h-5.341V274.41h6.675c2.336,0,4.272,0.239,5.813,0.719
			c1.543,0.479,2.771,1.158,3.689,2.033c0.916,0.875,1.562,1.929,1.938,3.157c0.375,1.231,0.563,2.597,0.563,4.098
			c0,0.918-0.065,1.746-0.199,2.482c-0.131,0.738-0.312,1.395-0.532,1.972c-0.226,0.577-0.476,1.085-0.752,1.522
			c-0.281,0.438-0.564,0.81-0.857,1.116c-0.686,0.737-1.467,1.266-2.346,1.585l6.021,18.675h-5.078v0.001L296.968,311.769
			L296.968,311.769z M287.371,290.42h1.334c1.002,0,1.912-0.094,2.729-0.281c0.819-0.188,1.522-0.512,2.106-0.97
			c0.582-0.458,1.035-1.073,1.354-1.845c0.316-0.771,0.479-1.74,0.479-2.908c0-1.167-0.16-2.138-0.479-2.908
			c-0.319-0.771-0.772-1.387-1.354-1.846c-0.584-0.458-1.287-0.781-2.106-0.97c-0.816-0.187-1.729-0.281-2.729-0.281h-1.334V290.42z
			"/>
		<path fill="#FFFFFF" d="M332.982,311.769l-9.547-24.854v24.854h-5.338V274.41h3.502l9.842,24.393V274.41h5.336v37.358H332.982
			L332.982,311.769z"/>
		<path fill="#FFFFFF" d="M354.555,294.423h-6.673v13.343h9.341v4.003h-14.679V274.41h14.679v4.003h-9.341v12.009h6.673V294.423z"/>
		<path fill="#FFFFFF" d="M373.66,294.423h-6.674v13.343h9.344v4.003h-14.68V274.41h14.68v4.003h-9.344v12.009h6.674V294.423z"/>
		<path fill="#FFFFFF" d="M380.759,311.769V274.41h8.009c2,0,3.682,0.181,5.043,0.542c1.362,0.361,2.461,0.959,3.295,1.793
			c0.834,0.833,1.432,1.932,1.795,3.293c0.358,1.363,0.541,3.044,0.541,5.045v14.678c0,2.001-0.183,3.752-0.541,5.253
			c-0.363,1.501-0.961,2.75-1.795,3.751c-0.834,1-1.937,1.751-3.306,2.251c-1.368,0.501-3.061,0.75-5.075,0.75h-7.966V311.769
			L380.759,311.769z M388.768,307.766c1.332,0,2.362-0.173,3.084-0.521c0.723-0.347,1.252-0.896,1.584-1.646
			c0.336-0.751,0.528-1.717,0.584-2.898c0.055-1.182,0.084-2.605,0.084-4.273v-12.009c0-1.334-0.029-2.502-0.084-3.502
			c-0.056-1.001-0.252-1.835-0.595-2.502c-0.34-0.667-0.877-1.167-1.614-1.501c-0.738-0.333-1.787-0.5-3.148-0.5H386.1v29.354
			L388.768,307.766L388.768,307.766L388.768,307.766z"/>
		<path fill="#FFFFFF" d="M414.557,312.145c-1.332,0-2.507-0.153-3.521-0.469c-1.012-0.312-1.895-0.729-2.645-1.25
			c-0.75-0.521-1.384-1.109-1.896-1.771c-0.514-0.661-0.938-1.337-1.271-2.033c-0.777-1.612-1.222-3.453-1.33-5.525l5.313-1.333
			c0.058,1.501,0.278,2.835,0.668,4.002c0.168,0.5,0.381,0.99,0.64,1.471c0.258,0.479,0.573,0.906,0.95,1.281
			c0.375,0.375,0.818,0.679,1.326,0.907c0.508,0.23,1.099,0.346,1.767,0.346c2.674,0,4.016-1.333,4.016-4.003
			c0-0.667-0.085-1.288-0.25-1.864c-0.17-0.577-0.42-1.134-0.754-1.668c-0.331-0.536-0.75-1.058-1.25-1.564
			s-1.086-1.031-1.752-1.574l-6.672-5.337c-0.683-0.542-1.273-1.157-1.782-1.845c-0.507-0.688-0.929-1.414-1.263-2.178
			c-0.334-0.764-0.58-1.543-0.74-2.335c-0.158-0.792-0.236-1.577-0.236-2.356c0-1.195,0.199-2.338,0.604-3.43
			c0.401-1.091,0.994-2.05,1.778-2.877c0.787-0.827,1.761-1.483,2.927-1.97s2.513-0.73,4.041-0.73c1.336,0,2.512,0.139,3.526,0.417
			c1.017,0.279,1.897,0.646,2.649,1.105c0.75,0.459,1.384,0.98,1.896,1.564c0.517,0.583,0.939,1.175,1.273,1.772
			c0.776,1.433,1.225,3.052,1.336,4.858l-5.338,1.334c-0.057-1.25-0.279-2.363-0.67-3.335c-0.168-0.417-0.381-0.823-0.637-1.22
			c-0.259-0.395-0.576-0.75-0.951-1.062c-0.377-0.313-0.816-0.566-1.328-0.761c-0.508-0.194-1.096-0.292-1.764-0.292
			c-0.697,0-1.3,0.107-1.81,0.322c-0.509,0.217-0.929,0.505-1.254,0.866c-0.328,0.362-0.568,0.786-0.722,1.272
			c-0.151,0.487-0.229,1.001-0.229,1.543c0,0.92,0.217,1.859,0.647,2.821c0.435,0.962,1.107,1.806,2.029,2.53l6.672,5.336
			c0.853,0.681,1.605,1.427,2.269,2.239c0.664,0.812,1.221,1.662,1.682,2.55c0.459,0.889,0.81,1.801,1.043,2.737
			c0.238,0.938,0.357,1.864,0.357,2.779c0,1.154-0.189,2.255-0.562,3.304c-0.377,1.052-0.951,1.979-1.723,2.784
			c-0.771,0.806-1.742,1.449-2.912,1.928C417.541,311.905,416.154,312.145,414.557,312.145z"/>
		<path fill="#FFFFFF" d="M427.669,274.408h5.338l-1.334,29.354h-2.668L427.669,274.408z M427.669,306.432h5.338v5.335h-5.338
			V306.432z"/>
	</g>
	<g>
		<g>
			<path fill="#FFFFFF" d="M71.636,149.738l-5.248-4.778l-6.662,7.319l-9.611-8.748c-3.4-3.096-4.166-5.82-0.734-9.59
				c3.164-3.475,8.738-3.808,14.283,1.239l3.105,2.827l4.237-4.658l-16.114-14.67l-26.447,29.054l4.215,3.836l2.521-2.029
				c1.643-1.209,4.594-0.146,8.067,3.018l25.58,23.284c3.4,3.095,5.08,5.705,3.76,7.748l-1.782,2.703l4.215,3.836l26.444-29.055
				l-16.707-15.208l-4.239,4.657l3.623,3.297c4.584,4.172,7.209,8.861,2.5,14.036c-3.435,3.771-6.586,2.929-9.543,0.236
				l-12.125-11.036L71.636,149.738z"/>
			<path fill="#FFFFFF" d="M104.896,139.392c2.728,3.703,3.799,6.513,2.164,8.337l-2.281,2.298l3.378,4.59l33.977-25l-12.146-16.506
				l-5.071,3.732l3.258,4.429c2.844,3.864,2.193,7.197-3.441,11.344c-5.879,4.325-8.9,2.578-12.277-2.012L93.495,104.84
				c-2.783-3.784-3.535-6.829-2.162-8.337l2.281-2.298l-3.377-4.59l-19.404,14.278l3.377,4.59l2.873-1.493
				c1.849-0.863,4.531,0.761,7.314,4.545L104.896,139.392z"/>
			<path fill="#FFFFFF" d="M98.606,121.062c-1.59-3.174-1.891-5.436-1.57-7.532c-2.631-1.044-5.647-3.291-10.654-8.915
				c3.88,6.454,5.125,10.004,5.341,12.824c2.096,0.319,4.166,1.278,6.644,3.8L98.606,121.062z"/>
			<path fill="#FFFFFF" d="M191.133,59.703c-4.571-12.377-12.84-15.022-24.34-10.675l-26.367,9.968l2.015,5.33l3.17-0.664
				c2.013-0.332,4.158,1.955,5.82,6.35l12.229,32.352c1.625,4.302,1.902,7.295-0.164,8.612l-2.815,1.599l2.017,5.329l22.627-8.555
				l-2.017-5.329l-3.168,0.663c-2.515,0.417-4.287-2.013-5.914-6.313l-4.701-12.436l8.789-3.323
				C189.067,78.544,195.176,70.678,191.133,59.703z M165.084,79.276l-4.596-12.155c-2.121-5.609-0.197-8.154,3.637-9.604
				l4.861-1.838c4.676-1.768,9.596,0.22,12.068,6.766c2.051,5.422,0.393,10.646-4.564,12.519L165.084,79.276z"/>
			<path fill="#FFFFFF" d="M263.116,75.228l-0.686-4.547l-5.734,0.864l0.686,4.548c0.328,2.175,0.425,5.497-1.059,5.721
				c-1.582,0.238-2.379-2.371-3.723-7.932c-1.316-5.361-3.166-8.925-6.9-10.889l-0.029-0.198c3.443-2.643,6.232-7.613,5.037-15.521
				c-1.535-10.184-8.422-15.615-21.074-13.707l-27.877,4.206l0.851,5.636l3.238,0.016c2.036,0.098,3.655,2.785,4.354,7.432
				l5.16,34.204c0.686,4.547,0.328,7.534-1.971,8.386l-3.088,0.971l0.85,5.635l24.418-3.683l-0.85-5.635l-2.32,0.046
				c-3.617,0.142-5.182-2.857-5.867-7.404l-1.969-13.049l9.293-1.402c4.545-0.686,7.066,5.304,8.525,10.947
				c3.203,11.852,6.637,15.176,13.754,14.102C261.967,93.095,265.188,88.969,263.116,75.228z M233.696,61.164l-12.061,1.82
				l-1.969-13.049c-0.791-5.24,0.037-7.791,4.09-8.402l6.625-1c5.338-0.805,9.379,2.529,10.379,9.152
				C241.819,56.704,237.354,60.613,233.696,61.164z"/>
			<path fill="#FFFFFF" d="M279.289,79.448c-0.221,4.593-1.162,7.45-3.582,7.833l-3.219,0.345l-0.276,5.691l24.167,1.173
				l0.273-5.691l-3.17-0.654c-2.474-0.621-3.131-3.555-2.906-8.148l1.676-34.549c0.227-4.693,1.564-7.531,3.584-7.834l3.219-0.344
				l0.275-5.692l-24.065-1.167l-0.275,5.691l3.171,0.654c1.979,0.496,3.036,3.45,2.809,8.143L279.289,79.448z"/>
			<path fill="#FFFFFF" d="M354.748,71.65l6.59-28.951l-6.629-1.509c-0.576,2.534-1.295,2.986-2.27,2.765
				c-1.17-0.267-2.941-1.49-4.304-2.723c-2.245-1.844-4.646-3.006-7.473-3.649c-12.283-2.796-22.888,7.3-25.218,17.535L311.764,71.3
				c-2.707,11.893,0.301,25.702,15.702,29.207c14.134,3.218,22.063-5.948,24.438-16.379l-10.04-2.285
				c-2.464,10.82-6.839,13.823-12.688,12.491c-5.75-1.309-7.096-7.562-5.342-15.262l5.9-25.93c1.24-5.46,3.635-10.555,9.479-9.224
				c7.604,1.731,7.685,15.796,5.486,25.446L354.748,71.65z"/>
			<path fill="#FFFFFF" d="M368.05,97.632c-1.778,4.24-3.639,6.604-6.045,6.137l-3.144-0.777l-2.205,5.254l22.308,9.363l2.205-5.254
				l-2.756-1.699c-2.111-1.428-1.728-4.41,0.053-8.65l13.39-31.894c1.817-4.332,4.047-6.541,6.045-6.136l3.145,0.777l2.205-5.254
				l-22.215-9.326l-2.207,5.254l2.758,1.699c1.689,1.143,1.672,4.281-0.146,8.613L368.05,97.632z"/>
			<path fill="#FFFFFF" d="M423.505,86.236l0.168,0.109l-11.709,50.482l9.748,6.279l26.416-41.01
				c2.545-3.95,5.121-5.737,7.104-4.938l2.875,1.258l3.088-4.789l-16.138-10.395l-3.084,4.791l2.416,2.152
				c1.468,1.419,0.904,4.506-1.641,8.455l-11.746,18.236l-0.084-0.055l8.342-37.314l-18.825-12.125l-3.084,4.789l2.418,2.152
				c1.465,1.42,0.901,4.506-1.644,8.455l-18.729,29.077c-2.488,3.866-4.73,5.87-7.021,4.991l-2.961-1.312l-3.084,4.791l15.379,9.906
				l3.084-4.791l-1.578-1.611c-1.774-1.857-0.932-4.643,1.56-8.509L423.505,86.236z"/>
			<path fill="#FFFFFF" d="M473.814,170.074c2.055-2.044,4.108-3.238,5.801-1.537l2.396,2.411l5.39-5.356l-14.445-14.536
				l-5.391,5.356l1.129,1.134c1.407,1.419,1.473,3.61-1.222,6.288c-5.887,5.85-10.334,3.644-13.364,0.594
				c-4.511-4.538-0.668-12.16,3.303-16.107l18.863-18.745c3.971-3.946,8.717-6.972,12.944-2.717
				c5.496,5.53-2.032,17.384-8.983,24.432l7.26,7.304l21.061-20.93l-4.793-4.822c-0.922,0.916-2.551,1.971-3.395,1.121
				c-1.06-1.064-1.545-2.975-2.176-4.603c-0.912-2.618-2.318-5.026-4.363-7.083c-9.23-9.289-22.602-6.715-30.611,1.248
				l-11.844,11.77c-8.65,8.598-13.5,21.873-2.93,32.51c2.258,2.269,4.651,4.256,6.274,4.896c1.625,0.643,3.107,1.141,3.884,1.921
				c0.776,0.78,0.631,1.911,0.272,2.829l3.734,3.758L473.814,170.074z"/>
		</g>
	</g>
	<g>
		<g>
			<path d="M39.68,144.443l-2.627,1.922l-6.706-6.294l29.074-30.98l12.771,1.292l17.203,16.146l-7.185,7.654l-10.998-1.137
				l-2.552-2.395c-1.53-1.437-2.747-1.893-3.842-0.727c-1.163,1.239-0.544,2.917,0.909,4.144l1.891,1.637l14.549,1.59l3.281,3.079
				l3.422-3.645l12.916,1.429l17.641,16.557l-30.033,32l-10.502-1.082l-6.706-6.294l2.229-3.253c1.01-1.658-0.554-4.084-3.104-6.479
				l-24.857-23.33C43.104,143.132,41.125,143.195,39.68,144.443z M76.045,142.654l-5.176-4.857l-6.771,7.216l-9.478-8.894
				c-3.354-3.147-4.076-5.883-0.587-9.601c3.216-3.425,8.794-3.673,14.262,1.458l3.062,2.874l4.311-4.593l-15.892-14.915
				L32.89,139.99l4.154,3.9l2.555-1.991c1.659-1.185,4.595-0.075,8.021,3.141l25.223,23.671c3.353,3.147,4.992,5.782,3.643,7.806
				l-1.824,2.675l4.154,3.899l26.887-28.647l-16.475-15.461l-4.311,4.592l3.571,3.353c4.519,4.242,7.074,8.97,2.284,14.073
				c-3.488,3.718-6.629,2.827-9.544,0.09l-11.955-11.22L76.045,142.654z M59.853,113.745l13.412,12.589l-1.915,2.041l-1.822-1.71
				c-7.581-7.115-13.654-4.589-16.732-1.309c-4.584,4.884-2.54,9.133,0.596,12.075l10.788,10.126l6.842-7.29l1.749,1.642
				c-2.156,1.13-3.862,3.093-4.647,5.098c-2.021,0.983-3.733,2.665-4.725,4.888c1.357,0.452,3.641,1.087,5.761,1.02
				c1.379,3.351,3.98,7.299,9.697,13.625c-6.675-5.305-10.78-7.65-14.213-8.814c-0.066-2.12-0.846-4.358-1.45-5.612
				c-1.541,0.473-2.499,1.494-2.532,2.697l-11.809-11.083c-5.54-5.199-8.361-4.969-9.886-3.93l-2.069,1.622l-1.604-1.506
				L59.853,113.745z M63.323,151.827c-2.141-2.832-2.846-5.002-2.982-7.049c-2.707-0.621-6.084-2.283-12.028-6.903
				c4.987,5.641,6.858,8.906,7.583,11.642c2.12-0.068,4.33,0.499,7.224,2.529L63.323,151.827z M87.891,154.867
				c1.166,1.095,2.533,1.829,3.217,1.1c0.821-0.875,0.372-3.902-3.929-7.938l-1.167-1.095l-3.078,3.28L87.891,154.867z"/>
			<path d="M126.241,121.229c1.566,2.198,3.602,1.607,4.902,0.679c1.547-1.102,1.62-4.1-0.525-7.112l-3.248-4.559l7.896-5.626
				l11.964,3.872l12.937,18.154l-38.019,27.089l-10.083-3.126l-5.336-7.489l2.826-2.75c1.314-1.428,0.261-4.113-1.77-6.963
				l-19.781-27.76c-2.668-3.745-4.619-4.072-6.282-3.133l-2.953,1.368l-5.336-7.49l22.55-16.068L107.692,84l4.582,6.431
				l-2.232,2.205c-1.351,1.207-1.435,3.845,1.697,8.241L126.241,121.229z M109.459,132.818c2.67,3.745,3.699,6.57,2.035,8.368
				l-2.313,2.264l3.307,4.64l34.354-24.479l-11.893-16.689l-5.128,3.655l3.19,4.478c2.783,3.907,2.083,7.229-3.615,11.291
				c-5.943,4.234-8.939,2.441-12.246-2.199L98.588,98.095c-2.727-3.825-3.432-6.882-2.034-8.368l2.313-2.263l-3.307-4.64
				L75.942,96.803l3.307,4.641l2.896-1.449c1.859-0.834,4.52,0.83,7.245,4.656L109.459,132.818z M90.855,103.606
				c-4.409-6.187-7.222-6.516-8.918-5.797l-2.349,1.183l-1.276-1.791l16.853-12.008l1.275,1.791l-1.885,1.834
				c-1.233,1.37-1.842,4.135,2.568,10.321l9.396,13.188c-1.278-0.071-2.418,0.741-3.013,2.146c1.242,0.71,3.355,1.782,5.447,2.133
				c0.692,3.557,2.467,7.939,6.826,15.266c-5.5-6.514-9.064-9.621-12.199-11.437c0.352-2.092,0.028-4.439-0.317-5.788
				c-1.604,0.161-2.662,0.915-3.013,2.146L90.855,103.606z M103.45,114.393c-1.541-3.197-1.806-5.463-1.455-7.555
				c-2.613-1.083-5.597-3.376-10.518-9.075c3.779,6.512,4.975,10.08,5.145,12.904c2.092,0.352,4.147,1.342,6.586,3.9L103.45,114.393
				z"/>
			<path d="M199.773,103.357l2.579,7.146l-26.986,9.739l-8.869-5.727l-3.121-8.651l3.465-1.887c1.65-1.021,1.357-3.892,0.171-7.183
				L155.439,64.73c-1.562-4.325-3.353-5.167-5.206-4.71l-3.213,0.522l-3.122-8.65l29.056-10.486
				c14.95-5.396,31.092,5.465,35.197,16.843c4.684,12.976-2.574,22.61-13.518,26.452l-7.557,2.621l3.699,10.25L199.773,103.357z
				 M183.73,77.158c10.812-3.902,17.041-11.676,13.165-22.711C192.511,42,184.284,39.23,172.719,43.403l-26.518,9.569l1.936,5.36
				l3.179-0.616c2.017-0.302,4.128,2.018,5.724,6.437l11.74,32.534c1.561,4.325,1.793,7.324-0.295,8.608l-2.839,1.556l1.935,5.359
				l22.754-8.21l-1.935-5.36l-3.179,0.616c-2.521,0.378-4.258-2.077-5.817-6.403l-4.514-12.506L183.73,77.158z M158.73,63.542
				c-2.579-7.146-5.198-8.221-7.024-7.985l-2.582,0.506l-0.746-2.068l24.824-8.958c9.778-3.529,17.657-2.015,22.034,10.114
				c1.833,5.078,0.993,9.525-0.952,12.672c-1.683-0.243-2.307,0.088-4.291,1.654c-2.06-0.107-3.752,0.503-5.267,1.9
				c-2.246-0.04-4.127,0.639-5.735,2.07c-2.059-0.108-4.127,0.639-5.736,2.07c-2.151-0.074-3.75,0.503-5.359,1.934
				c1.006,1.019,2.752,2.62,4.672,3.521c-0.291,3.612,0.236,8.311,2.462,16.541c-3.542-7.755-6.044-11.741-8.573-14.335
				c0.901-1.919,1.129-4.233,1.158-5.625c-1.588-0.277-2.716,0.13-3.385,1.222L158.73,63.542z M167.861,77.358
				c-0.718-3.46-0.269-5.749,0.445-7.6c-2.036-1.816-4.388-4.793-7.591-11.608c1.888,7.29,2.074,11.048,1.666,13.746
				c1.731,0.969,3.445,2.476,5.103,5.598L167.861,77.358z M170.551,73.624l11.473-4.14c4.982-1.799,6.723-6.995,4.754-12.449
				c-2.375-6.582-7.265-8.644-11.966-6.947l-4.89,1.765c-3.855,1.391-5.816,3.906-3.781,9.547L170.551,73.624z M167.833,60.79
				c-1.595-4.42-0.248-6.287,2.479-7.271l5.359-1.934c3.104-1.12,7.276,0.137,9.414,6.061c1.629,4.514-0.476,8.992-3.578,10.112
				l-9.873,3.563L167.833,60.79z M180.072,60.836c-1.129,0.408-1.884,1.849-1.204,3.729l0.881,2.445l1.224-0.441
				c2.257-0.814,3.383-3.878,2.874-5.288c-0.373-1.035-1.141-1.396-2.081-1.056L180.072,60.836z M190.146,69.316
				c1.604-2.917,3.2-6.149,4.582-9.093c-1.06-3.231-3.802-6.705-8.06-11.439c3.631,6.235,4.09,10.746,2.793,13.339
				c1.09,1.838,1.365,4.077,0.309,7.329L190.146,69.316z"/>
			<path d="M214.418,46.127c-0.617-4.557-2.191-5.757-4.102-5.7l-3.251-0.166l-1.233-9.115l30.614-4.141
				c18.03-2.439,29.032,12.517,30.589,24.009c0.869,6.44-1.656,11.624-5.496,14.564l6.836-0.925l8.929,8.579l0.789,5.845
				c1.744,12.879-2.071,18.238-10.097,19.323c-5.549,0.751-12.088-2.097-16.687-9.243c-3.815-5.839-5.319-14.716-6.281-16.603
				l-4.655,0.63l1.567,11.591l7.976,7.496l1.14,8.421l-28.83,3.9l-7.468-7.464l-1.231-9.114l3.783-1.118
				c1.829-0.65,2.146-3.518,1.678-6.985L214.418,46.127z M239.478,64.326c4.558-0.616,6.985,5.411,8.358,11.077
				c3.021,11.899,6.404,15.275,13.537,14.311c5.846-0.791,9.129-4.867,7.266-18.638l-0.616-4.557l-5.746,0.777l0.616,4.557
				c0.295,2.18,0.34,5.503-1.146,5.704c-1.586,0.214-2.344-2.407-3.603-7.987c-1.233-5.382-3.028-8.972-6.733-10.994l-0.025-0.198
				c3.482-2.589,6.348-7.517,5.273-15.442c-1.38-10.205-8.183-15.741-20.863-14.025l-27.938,3.779l0.766,5.647l3.236,0.066
				c2.035,0.128,3.612,2.841,4.242,7.497l4.637,34.279c0.617,4.557,0.213,7.538-2.098,8.355l-3.104,0.924l0.764,5.646l24.472-3.31
				l-0.765-5.647l-2.318,0.01c-3.62,0.086-5.141-2.936-5.756-7.493l-1.77-13.078L239.478,64.326z M235.924,30.607
				c10.304-1.394,17.537,1.36,19.052,12.556c0.965,7.132-1.433,11.795-5.297,14.538c-0.9-0.685-2.287-0.498-3.964,0.537
				c2.494,1.276,3.844,2.305,5.709,4.17c1.633,3.109,2.744,7.6,3.686,16.047c-2.453-8.445-6.466-12.745-10.124-15.175
				c0.679-1.707,0.859-3.345,0.334-4.989c-1.493-0.605-2.881-0.417-4.655,0.629c-1.892-0.551-3.773-0.296-5.449,0.737
				c-1.989-0.538-3.971-0.27-5.746,0.777c-1.989-0.538-3.772-0.296-5.549,0.75c0.67,1.221,2.24,3.127,3.828,4.426
				c-1.045,3.47-1.518,8.175-1.172,16.703c-1.832-8.327-3.537-12.737-5.269-15.832c1.087-1.66,1.896-3.888,2.216-5.243
				c-1.691-0.579-2.684-0.444-3.468,0.469l-2.171-16.05c-1.02-7.529-3.354-9.13-5.19-9.285l-2.63-0.047l-0.295-2.18L235.924,30.607z
				 M223.907,61.086c0.025-3.534,0.946-5.677,2.231-7.364c-1.808-2.176-3.479-5.583-5.179-12.919
				c0.511,7.498-0.098,11.211-1.262,13.79c1.489,1.312,2.848,3.146,3.811,6.547L223.907,61.086z M229.799,36.783
				c-4.062,0.549-4.93,3.087-4.219,8.338l1.77,13.078l12.087-1.635c3.666-0.496,8.19-4.336,7.239-11.37
				c-0.898-6.638-4.889-10.033-10.238-9.309L229.799,36.783z M236.963,37.529c3.269-0.442,7.084,1.665,7.93,7.906
				c0.725,5.35-2.329,8.89-5.6,9.333l-10.401,1.407l-1.528-11.294c-0.643-4.755,0.484-6.118,2.564-6.4L236.963,37.529z
				 M238.825,47.567c-1.091,0.147-1.734,1.345-1.468,3.326l0.336,2.477l1.685-0.228c1.685-0.228,3.807-2.432,3.553-4.314
				c-0.135-0.991-1.034-1.676-1.826-1.569L238.825,47.567z M245.704,58.138c2.973-2.622,5.492-4.879,7.978-8.142
				c-0.401-2.972-1.812-7.422-5.376-12.892c3.117,6.64,1.4,11.11-0.127,13.233c0.051,2.616-1.231,5.816-2.872,7.854L245.704,58.138z
				"/>
			<path d="M285.253,40.913c0.293-4.589-1.015-6.076-2.896-6.396l-3.156-0.803l0.588-9.178l27.635,1.764l6.762,10.249l-0.502,7.881
				l-3.125,0.302c-1.812,0.085-3.541,2.078-3.887,7.465l-2.1,32.924l5.943,8.894l-0.484,7.582l-28.633-1.827l-5.853-8.788
				l0.586-9.179l3.931-0.35c1.922-0.278,2.797-3.027,3.021-6.519L285.253,40.913z M284.748,75.541
				c-0.293,4.589-1.275,7.431-3.703,7.777l-3.225,0.295l-0.363,5.687l24.146,1.541l0.361-5.687l-3.158-0.702
				c-2.465-0.658-3.076-3.603-2.783-8.191l2.203-34.52c0.299-4.689,1.683-7.506,3.699-7.778l3.229-0.295l0.361-5.687l-24.045-1.535
				l-0.361,5.687l3.16,0.703c1.969,0.527,2.98,3.497,2.685,8.185L284.748,75.541z M295.398,57.788
				c-0.949-0.862-2.347-0.951-3.693-0.235c0.518,1.335,1.48,3.5,2.881,5.093c-1.707,3.196-3.098,7.716-4.338,16.152
				c-0.156-8.525-0.961-13.185-2.246-16.572c1.594-1.401,2.822-3.427,3.404-4.692c-1.346-0.887-2.643-0.97-3.691-0.235l1.031-16.163
				c0.484-7.583-1.49-9.612-3.26-10.125l-2.568-0.565l0.141-2.194l20.65,1.318l-0.139,2.195l-2.621,0.233
				c-1.82,0.284-4.037,2.046-4.521,9.628L295.398,57.788z M291.712,57.453c0.82-3.454,2.045-5.379,3.64-6.78
				c-1.347-2.49-2.213-6.151-2.435-13.679c-1.176,7.438-2.504,10.959-4.151,13.259c1.399,1.592,2.371,3.657,2.646,7.181
				L291.712,57.453z"/>
			<path d="M319.546,51.241c3.197-13.112,15.563-21.211,27.024-18.417c3.304,0.805,5.662,2.1,7.757,3.639
				c1.633,1.324,3.19,2.527,3.772,2.669c0.584,0.142,0.965-1,1.392-2.748l8.936,2.178l5.91,11.216l-7.601,31.179l-13.209-3.219
				l-5.295-9.935c2.384-11.047,1.737-17.687-0.205-18.16c-2.139-0.521-3.601,2.519-4.545,6.404l-6.604,27.099
				c-0.687,2.817-0.26,5.287,1.488,5.714c2.524,0.616,5.192-3.571,7.663-12.024l12.918,3.149l5.935,11.119
				c-6.848,18.808-19.157,19.923-30.426,17.177c-13.892-3.385-23.856-20.324-18.863-40.818L319.546,51.241z M360.314,68.896
				l7.031-28.848l-6.605-1.609c-0.615,2.525-1.34,2.966-2.311,2.729c-1.166-0.284-2.919-1.535-4.261-2.788
				c-2.217-1.878-4.603-3.076-7.418-3.763c-12.237-2.983-22.994,6.949-25.479,17.148l-3.931,16.124
				c-2.887,11.85-0.09,25.703,15.257,29.443c14.084,3.433,22.153-5.61,24.688-16.004l-10.004-2.438
				c-2.629,10.782-7.049,13.718-12.877,12.297c-5.73-1.397-6.98-7.669-5.109-15.343l6.297-25.836
				c1.326-5.44,3.793-10.498,9.621-9.077c7.578,1.847,7.441,15.911,5.1,25.526L360.314,68.896z M331.05,61.043
				c-1-0.965-2.846-1.415-4.661-1.137c0.178,1.382,0.868,3.608,1.85,5.494c-2.164,2.971-4.396,7.058-5.705,15.382
				c-1.326-7.218-1.111-11.899-0.607-16.921c1.738-1.222,3.279-2.904,4.174-4.025c-1.684-1.129-3.432-1.556-4.764-1.16l1.307-5.342
				c2.627-10.781,12.928-19.692,23.709-17.064c2.914,0.71,5.129,2.176,6.785,3.403c2.047,1.734,3.801,2.985,5.646,3.435
				c1.358,0.331,2.762-0.356,3.28-2.493l3.109,0.758l-6.203,25.448l-6.508-1.586c2.279-12.307,1.143-24.109-6.82-26.051
				c-7.383-1.799-10.281,4.183-11.797,10.399L331.05,61.043z M326.529,59.323c0.818-1.241,2.143-2.874,4.172-4.025
				c-0.631-4.167,0.242-8.173,2.225-13.349c-3.832,3.902-6.764,8.333-8.537,11.81c1.078,1.91,1.795,4.04,1.852,5.493L326.529,59.323
				z"/>
			<path d="M385.539,62.711c1.844-4.212,1.123-6.056-0.537-7.001l-2.688-1.832l3.688-8.425l25.365,11.106l2.848,11.942l-3.166,7.234
				l-3.041-0.785c-1.729-0.538-4.035,0.744-6.199,5.688l-13.231,30.221l2.545,10.39l-3.047,6.959L361.791,116.7l-2.492-10.258
				l3.689-8.425l3.811,1.014c1.9,0.396,3.662-1.888,5.066-5.093L385.539,62.711z M373.221,95.078
				c-1.845,4.212-3.738,6.547-6.138,6.043l-3.131-0.825l-2.285,5.22l22.16,9.703l2.286-5.22l-2.729-1.741
				c-2.09-1.46-1.657-4.437,0.187-8.649l13.873-31.685c1.885-4.305,4.146-6.479,6.139-6.043l3.131,0.825l2.285-5.22l-22.07-9.663
				l-2.283,5.22l2.729,1.741c1.67,1.168,1.605,4.306-0.275,8.609L373.221,95.078z M389.298,82.037
				c-0.596-1.133-1.877-1.695-3.387-1.484c0.026,1.432,0.19,3.795,0.965,5.771c-2.696,2.421-5.549,6.192-9.599,13.695
				c2.769-8.064,3.604-12.718,3.554-16.341c1.976-0.772,3.823-2.254,4.805-3.244c-0.963-1.294-2.151-1.815-3.389-1.483l6.496-14.836
				c3.047-6.96,1.885-9.542,0.396-10.63l-2.22-1.408l0.881-2.015l18.957,8.3l-0.883,2.015l-2.541-0.676
				c-1.81-0.356-4.494,0.542-7.541,7.502L389.298,82.037z M385.951,80.462c1.953-2.964,3.762-4.354,5.738-5.127
				c-0.414-2.799,0.022-6.537,2.391-13.686c-3.646,6.588-6.1,9.444-8.436,11.04c0.771,1.975,0.977,4.248,0.03,7.653L385.951,80.462z
				"/>
			<path d="M415.037,146.194l-0.643-11.478l4.703-18.965l-6.148,9.235l0.531,9.121l-5.101,7.655l-19.053-12.688l-0.671-10.535
				l5.099-7.654l3.578,1.662c1.801,0.72,3.937-1.222,5.875-4.134l18.895-28.372c2.55-3.827,2.16-5.768,0.689-6.987l-2.33-2.272
				l5.098-7.654l21.3,14.184l0.362,6.127l2.715-4.077l18.972,12.633l0.727,12.254l-4.377,6.572l-2.854-1.302
				c-1.609-0.831-4.021,0.085-7.017,4.578l-27.205,40.852L415.037,146.194z M428.841,84.529l0.166,0.111l-12.479,50.298l9.651,6.428
				l27.039-40.603c2.605-3.91,5.209-5.658,7.179-4.828l2.856,1.302l3.156-4.743l-15.974-10.639l-3.159,4.743l2.387,2.189
				c1.44,1.441,0.834,4.519-1.771,8.429l-12.022,18.055l-0.084-0.056l8.908-37.183l-18.636-12.41l-3.157,4.742l2.387,2.188
				c1.44,1.441,0.832,4.519-1.771,8.429l-19.171,28.788c-2.55,3.827-4.82,5.796-7.097,4.883l-2.938-1.357l-3.158,4.743l15.226,10.14
				l3.158-4.743l-1.554-1.635c-1.748-1.885-0.86-4.657,1.688-8.484L428.841,84.529z M442.507,78.617l-7.166,29.696
				c-1.139-1.718-2.553-2.66-4.326-2.881c0.111,1.636,0.418,3.881,1.111,6.626c-1.773,3.022-3.656,6.933-7.008,15.03
				c1.438-9.011,1.824-14.279,1.85-18.465c1.664-1.055,3.076-2.275,3.797-3.357c-1.305-1.829-2.635-2.716-4.075-2.715l4.149-17.053
				c0.498-1.83,0.607-3.078-0.475-3.798c-0.998-0.665-1.996,0.472-2.826,1.72l-9.088,13.646c-0.306-1.165-1.304-1.829-2.412-1.607
				l8.977-13.479c4.209-6.323,3.517-9.067,2.24-10.398l-1.94-1.773l1.219-1.83L442.507,78.617z M431.07,105.348
				c1.938-2.912,3.049-4.576,4.295-6.267c-0.476-4.159-0.31-8.733,0.52-16.108c-2.133,6.627-3.819,10.426-6.262,13.006
				c1.084,2.522,1.307,5.073,1.197,9.204L431.07,105.348z M464.056,92.967l-1.219,1.83l-2.385-1.107
				c-1.719-0.665-4.521-0.248-8.73,6.076l-8.977,13.478c-0.055-0.998-1.303-1.829-2.33-1.551l8.977-13.479
				c4.212-6.324,3.519-9.068,2.242-10.398l-1.94-1.773l1.219-1.83L464.056,92.967z"/>
			<path d="M461.371,189.469c0.236-1.338,0.262-2.752-0.641-3.688c-0.832-0.864-2.093-1.594-3.986-2.407
				c-2.453-1.105-5.033-3.062-6.906-5.005c-10.963-11.373-9.744-31.572,4.867-45.657l12.021-11.586
				c10.148-9.783,24.431-9.663,32.687-1.098c2.566,2.664,3.938,4.952,4.885,7.373c0.535,1.707,0.924,3.553,1.48,4.128
				c0.418,0.432,1.637-0.465,2.715-1.506l6.312,6.551l-1.01,12.637l-20.371,19.635l-0.488,7.416l-7.987,7.701l-2.431-2.519
				c-1.18-1.224-2.801-1.465-4.457,0.131l-12.598,12.142L461.371,189.469z M477.865,169.126c2.086-2.012,4.158-3.176,5.824-1.448
				l2.358,2.447l5.469-5.273l-14.223-14.755l-5.471,5.272l1.108,1.152c1.39,1.44,1.416,3.632-1.315,6.269
				c-5.978,5.759-10.39,3.485-13.371,0.391c-4.439-4.607-0.482-12.17,3.547-16.055l19.148-18.456
				c4.026-3.885,8.817-6.838,12.983-2.519c5.41,5.614-2.301,17.351-9.354,24.292l7.145,7.413l21.379-20.606l-4.719-4.894
				c-0.937,0.902-2.58,1.932-3.414,1.068c-1.041-1.08-1.5-2.997-2.104-4.634c-0.869-2.632-2.238-5.062-4.252-7.149
				c-9.091-9.429-22.494-7.06-30.632,0.781l-12.02,11.587c-8.781,8.464-13.832,21.665-3.424,32.461
				c2.219,2.303,4.586,4.327,6.198,4.993c1.615,0.666,3.091,1.188,3.854,1.979s0.6,1.92,0.229,2.833l3.679,3.814L477.865,169.126z
				 M468.218,124.547c8.494-8.188,21.113-10.076,29.162-1.727c2.082,2.159,3.168,4.583,3.84,6.575
				c0.595,2.203,1.269,4.054,2.795,5.637c1.039,1.08,3.234,0.909,4.314-0.132l2.221,2.303l-18.858,18.178l-4.648-4.823
				c8.512-9.176,13.867-19.754,8.178-25.657c-5.27-5.47-10.922-1.968-15.526,2.472l-9.72,9.367c-0.465-1.635-1.571-2.786-3.33-3.456
				c-0.659,1.332-1.268,3.583-1.442,5.559c-3.574,2.197-7.951,5.582-13.058,10.083c3.289-5.808,6.354-10.843,8.613-14.69
				c2.053-0.033,4.254-0.629,5.678-1.168c-0.739-1.923-1.852-3.074-3.396-3.527L468.218,124.547z M482.886,149.705
				c9.521-10.148,10.074-13.32,8.547-14.903c-1.733-1.8-3.819,0.071-7.059,3.193l-20.082,19.358
				c-1.871,1.804-2.627,4.476-0.963,6.204c1.733,1.8,4.373,0.646,7.104-1.99c1.802-1.735,1.273-3.865,0.097-5.089l-1.183-1.223
				l7.918-7.632l5.273,5.47L482.886,149.705z M466.716,133.216c2.938-2.138,5.14-2.593,7.121-2.697
				c1.697-3.999,4.648-6.844,9.09-10.015c-5.321,1.104-9.821,3.637-13.53,5.408c-0.109,2.048-0.714,4.158-2.89,7.088
				L466.716,133.216z"/>
		</g>
		<g>
			<polygon opacity="0.8" enable-background="new    " points="29.89,187.318 35.743,199.802 49.345,202.058 39.28,211.484 
				41.34,225.119 29.263,218.458 16.935,224.632 19.536,211.089 9.856,201.267 23.54,199.558 			"/>
			<polygon fill="#FFFFFF" points="28.151,183.205 33.239,196.021 46.679,199.097 36.06,207.896 37.29,221.632 25.64,214.251 
				12.956,219.664 16.375,206.304 7.31,195.914 21.071,195.037 			"/>
		</g>
		<g>
			<polygon opacity="0.8" enable-background="new    " points="522.876,187.318 528.732,199.802 542.333,202.058 532.267,211.484 
				534.328,225.119 522.251,218.458 509.921,224.632 512.525,211.089 502.845,201.267 516.527,199.558 			"/>
			<polygon fill="#FFFFFF" points="521.138,183.205 526.226,196.021 539.666,199.097 529.048,207.896 530.277,221.632 
				518.626,214.251 505.945,219.664 509.363,206.304 500.296,195.914 514.06,195.037 			"/>
		</g>
	</g>
</g>
</svg>
