<?xml version="1.0" encoding="utf-8"?>
<!-- Generator: Adobe Illustrator 15.1.0, SVG Export Plug-In . SVG Version: 6.00 Build 0)  -->
<!DOCTYPE svg PUBLIC "-//W3C//DTD SVG 1.1//EN" "http://www.w3.org/Graphics/SVG/1.1/DTD/svg11.dtd">
<svg version="1.1" id="Layer_1" xmlns="http://www.w3.org/2000/svg" xmlns:xlink="http://www.w3.org/1999/xlink" x="0px" y="0px"
	 width="407.146px" height="394.915px" viewBox="0 0 407.146 394.915" enable-background="new 0 0 407.146 394.915"
	 xml:space="preserve">
<g id="Capa_2">
</g>
<g id="Layer_2">
	<g>
		<path opacity="0.1" enable-background="new    " d="M232.953,357.107c-20.453,0-37.192,5.473-38.64,12.405
			c-2.068,0.175-4.018,0.451-5.799,0.814c-6.97-2.323-16.454-3.756-26.91-3.756c-21.403,0-38.754,5.989-38.754,13.38
			c0,7.39,17.351,13.382,38.754,13.382c17.428,0,32.166-3.973,37.041-9.438c0.216,0.003,0.432,0.007,0.649,0.007
			c5.419,0,10.36-0.706,14.1-1.863c5.742,1.162,12.423,1.83,19.56,1.83c21.403,0,38.754-5.99,38.754-13.38
			C271.708,363.098,254.356,357.107,232.953,357.107z"/>
		<g>
			<path d="M406.721,91.854c-2.211-10.898-9.361-14.186-13.67-15.173c-0.661-2.641-1.422-5.282-2.256-7.858
				c-3.059-9.448-9.528-15.238-18.221-16.301c-5.4-0.668-8.699,0.449-9.563,0.67c-1.197-0.299-3.064-0.7-5.373-0.982
				c-7.123-0.87-17.635-0.561-27.366,5.817c0,0-2.003,1.345-3.739,2.797c-8.857,1.179-15.82,4.255-20.691,9.146
				c-4.625,4.64-7.106,10.665-7.178,17.42c-0.131,12.261,7.777,23.6,17.271,24.759c0.143,0.019,0.286,0.033,0.43,0.046
				c4.137,10.595,4.133,21.827-0.012,33.389c-2.425,6.766-6.125,13.382-11.311,20.213c-2.269-0.792-4.498-1.326-6.64-1.588
				c-9.029-1.104-16.824,2.363-22.546,10.023c-1.542,2.062-2.882,4.368-3.99,6.855c-2.293-0.178-4.584-0.405-6.816-0.678
				c-0.274-0.033-0.547-0.067-0.819-0.101l-0.557-1.553l-2.157-6.009l-1.51-4.206c-0.073-0.205-0.256-0.342-0.46-0.367
				c-0.062-0.008-0.127-0.006-0.191,0.009l-4.36,0.979l-16.304,3.656c-0.701-0.167-1.354-0.286-1.993-0.364
				c-3.403-0.415-6.274,0.517-8.11,2.631l-0.639,0.143c-0.109,0.024-0.208,0.081-0.286,0.163l-1.062,1.129l-7.171,7.614
				l-2.879,1.691c-2.665-1.537-6.288-2.149-9.507-2.542c-7.974-0.975-18.046-0.771-18.471-0.762l-0.204,0.004
				c-0.015,0.001-0.03,0.002-0.045,0.003l-0.203,0.021l-7.513,0.768l-1.43-0.97l-1.291-0.875l-1.119-1.242
				c-0.082-0.092-0.192-0.154-0.313-0.177l-1.68-0.317l-15.521-2.814l-18.992-2.027l2.646,5.55c-0.208-0.058-6.005-1.146-6.197-1.21
				c-3.958-6.098-9.838-9.783-17.015-10.661c-4.112-0.503-7.856,0.014-10.372,0.572c-2.924-3.377-8.194-10.01-12.234-18.112
				c-5.063-10.151-6.643-19.39-4.696-27.457c2.65-10.974,6.013-16.435,8.982-21.253c4-6.494,7.454-12.101,6.555-25.299l-0.013-0.205
				c-0.001-0.016-0.003-0.03-0.005-0.046l-0.03-0.205c-1.503-9.928-10.524-14.329-13.614-15.698
				c0.947-3.528,0.769-7.251-0.521-10.797c-3.091-8.5-12.239-15.29-22.244-16.514c-5.878-0.719-11.529,0.52-16.362,3.583
				c-1.919-0.589-3.839-1.004-5.711-1.233c-10.228-1.249-17.491,2.967-21.782,6.724c-3.306,2.896-6.038,6.593-7.537,10.188
				c-6.986,1.186-12.29,4.441-15.77,9.682c-3.832,5.771-5.14,13.569-3.887,23.183c0.739,5.66,2.197,10.321,2.648,11.678
				c0.536,3.05,3.497,18.683,10.955,38.021c4.791,12.42,10.456,23.786,16.835,33.778c7.253,11.359,15.484,21.004,24.473,28.67
				c-0.036,0.215-0.067,0.431-0.094,0.644c-1.042,8.534,5.052,16.325,13.586,17.369c3.898,0.477,7.793-0.531,11-2.841
				c6.793,2.234,13.634,3.782,20.339,4.603c21.851,2.67,39.069-2.713,49.914-7.901l-6.484,81.323l-0.454,5.701
				c-0.013,0.16,0.044,0.318,0.156,0.435c0.09,0.094,0.209,0.151,0.336,0.168c0.031,0.003,0.062,0.005,0.092,0.004l4.112-0.174
				l-2.157,69.666l-0.124,3.988c-0.008,0.26,0.163,0.489,0.414,0.56c0,0,27.406,10.372,44.605-2.957l0.777-1.023
				c0.057-0.075,0.093-0.162,0.107-0.256l0.194-1.271l4.534-29.805l14.205,1.28c1.722,8.183,4.572,27.33,5.025,29.349l0.518,2.299
				c0.037,0.162,0.143,0.299,0.29,0.375l2.09,1.084c23.291,9.312,34.254-2.291,34.5-2.564l1.432-1.594
				c0.103-0.113,0.152-0.263,0.142-0.414l-0.146-2.139l-4.703-73.854l1.21-0.08c0.296-0.019,0.526-0.265,0.526-0.561l0.001-4.743
				l0.017-77.337c11.954,6.332,23.982,10.27,35.765,11.71c9.956,1.216,19.649,0.593,28.814-1.853
				c1.726,1.445,3.826,2.354,6.093,2.633c6.41,0.783,12.264-3.795,13.047-10.206c0.026-0.214,0.047-0.431,0.063-0.646
				c14.202-8.544,28.404-22.099,39.004-37.234c12.818-18.303,20.432-38.817,22.029-59.345c1.547-0.738,2.971-1.616,4.236-2.61
				C405.913,105.268,408.163,98.961,406.721,91.854z"/>
			<path fill="#232323" d="M153.851,290.643c4.641,29.36-2.344,75.713-2.344,75.713s27.59,7.524,34.796-1.98
				c1.185-7.789,5.331-35.033,5.331-35.033l23.614,2.129c0,0,5.253,30.621,5.866,33.34c18.111,9.39,27.729-1.33,27.729-1.33
				l-5.17-80.648C243.671,282.831,193.98,290.73,153.851,290.643z"/>
			<polygon fill="#B79556" points="173.904,184.616 230.865,179.73 197.327,214.827 			"/>
			<polygon fill="#FFFFFF" points="176.193,186.355 192.65,197.514 197.776,211.15 202.3,200.171 232.068,182.688 196.795,219.178 
				173.496,187.965 			"/>
			<polygon fill="#B79556" points="226.058,240.947 220.374,287.466 186.335,290.708 189.379,257.307 198.515,252.391 			"/>
			<path fill="#B79556" d="M385.614,69.914c-5.756-17.793-22.383-11.517-22.383-11.517s-19.592-6.549-34.107,7.16
				c-38.998,3.921-23.588,44.7-9.049,40.058c16.272,33.71-10.705,62.89-13.021,66.383c-24.255-11.65-31.204,14.314-31.204,14.314
				s-26.608-0.978-36.898-8.282c-13.676-4.319-1.551,12.688-1.551,12.688s47.947,40.172,94.08,13.154
				C362.374,185.779,406.463,134.157,385.614,69.914z"/>
			<circle fill="#B79556" cx="323.592" cy="207.38" r="6.091"/>
			<path fill="#31738A" d="M376.107,65.825c0,0-0.394-5.667,1.998-6.325c-5.069-2.925-8.562-2.064-8.562-2.064L376.107,65.825z"/>
			<path fill="#31738A" d="M354.317,56.898c-12.861,4.313-7.299,15.19-7.299,15.19l-15.824-8.024
				C331.194,64.065,339.697,55.899,354.317,56.898z"/>
			<path d="M332.081,63.087c0,0,8.846,0.138,14.938,9.002c-8.523-5.952-17.895-6.531-17.895-6.531l0.979-2.131L332.081,63.087z"/>
			<path d="M363.231,58.397c0,0,6.814,1.4,12.876,7.427c-0.644-5.554-7.237-8.757-7.237-8.757l-6.664-1.677L363.231,58.397z"/>
			<path fill="#AFB3B6" d="M380.825,72.8c0,0-6.779,1.686-10.877,2.091c-4.097,0.406-12.324,0.029-15.625,1.549
				s-7.164,8.285-7.164,8.285l10.059-4.167l9.766-2.161l8.503-0.138L380.825,72.8z"/>
			<path d="M381.568,73.667c0.573-3.139-4.892,3.98-9.521,3.294c-11.717,0.078-20.984,3.741-20.984,3.741l-4.752,4.896
				c0,0,20.473-9.492,30.997-5.939C380.015,78.22,380.995,76.807,381.568,73.667z"/>
			<path fill="#B79556" d="M388.661,81.235l2.262,26.378c0,0,12.934-3.088,10.457-15.287
				C398.905,80.127,388.661,81.235,388.661,81.235z"/>
			<path fill="#B79556" d="M85.739,64.203c7.283-1.659,16.163,6.791,16.944,11.985c1.418,20.848-9.083,18.715-15.394,44.85
				c-6.31,26.136,20.587,53.257,20.587,53.257s17.062-6.738,25.298,8.146c8.556,4.682,28.269,0.055,28.269,0.055l-0.232,12.717
				c0,0-31.133,27.635-80.348,10.855C22.87,180.008,8.933,94.753,8.933,94.753s-13.107-36.439,15.97-37.984
				c0.057-5.091,11.271-22.696,31.519-14.559C72.528,28.602,99.75,49.205,85.739,64.203z"/>
			<path fill="#31738A" d="M36.405,85.423c0,0-3.314,63.292,38.178,99.212c28.071,27.78,79.876,15.784,79.876,15.784
				s-31.217,21.765-75.054,5.642c-8.818,7.314-15.212,2.467-17.46-2.006c-2.305-4.502,0.043-8.861,0.043-8.861
				S20.691,166.742,6.919,88.539c-3.445-19.632,3.962-25.685,3.962-25.685s5.15,7.588,30.268,12.32
				C44.904,82.184,36.405,85.423,36.405,85.423z"/>
			<path fill="#31738A" d="M24.714,57.342c15.131-0.983,33.233,15.45,33.233,15.45s6.54,4.247,9.817-1.537
				c-11.77-26.519-35.438-25.706-35.438-25.706S25.812,50.678,24.714,57.342z"/>
			<path fill="#31738A" d="M56.233,42.783c6.498,4.76,10.13,8.242,10.13,8.242l11.124,12.806c0,0,4.546,1.446,6.304,1.196
				c0.388-16.846-20.19-26.08-20.19-26.08S58.561,39.953,56.233,42.783z"/>
			<path fill="#31738A" d="M53.639,80.229c0,0,15.326,15.496,27.319,7.979c-6.236-4.363-7.606-15.444-7.606-15.444l-19.203,3.281
				L53.639,80.229z"/>
			<path d="M29.527,57.363c16.164,6.79,22.228,15.105,22.305,19.116c0.175,14.786-33.117,6.781-33.117,6.781
				s35.23,15.322,36.631-5.477c20.616,0.549,20.551-10.506,21.491-11.241c0.938-0.734,8.712-1.767,8.712-1.767
				s-5.057,1.017-8.759-2.487c-1.864-5.609-6.986-12.259-14.06-14.746c8.527,6.707,8.166,14.31,8.451,16.609
				c-0.324,9.591-13.86,6.804-13.86,6.804S47.489,58.708,29.527,57.363z"/>
			<path d="M67.964,76.115c0,0,5.208,18.87,21.766,8.148c-15.583,18.204-28.666-6.656-28.666-6.656l1.932-2.1L67.964,76.115z"/>
			<polygon points="170.476,294.572 197.542,296.712 200.129,274.357 199.015,268.811 			"/>
			<polygon fill="#FFFFFF" points="199.106,268.189 195.352,293.918 153.851,290.643 190.878,253.532 215.243,243.439 
				229.943,265.292 243.528,284.004 202.742,290.102 			"/>
			<path fill="#31738A" d="M288.353,170.456c-5.361,9.932-5.623,19.025-5.623,19.025l-27.481-1.385l-4.813,2.545l4.036,3.821
				l-3.618,4.786l-2.806-1.156l-8.101-5.405l0.401-3.278l5.197-7.497l3.864,0.085l8.653,1.444l17.786,2.871
				C275.849,186.312,279.767,174.329,288.353,170.456z"/>
			<polygon points="258.062,183.441 257.582,187.375 240.348,189.408 246.537,184.456 251.306,181.05 			"/>
			<path fill="#232323" d="M256.396,174.004l2.157,6.008l-5.456,0.877l1.999,5.53c0,0-12.264,4.309-11.025,3.445
				c1.238-0.865,6.103,4.073,6.103,4.073l-2.126,4.155l1.362,2.106l-3.527-0.431l-0.019,84.086l-40.411,2.614l-10.132-29.183
				l3.688-43.732l31.856-33.822L256.396,174.004z"/>
			<polygon points="146.916,180.933 150.678,185.176 157.138,196.664 144.135,191.818 146.333,186.475 145.328,182.052 			"/>
			<path fill="#232323" d="M145.641,179.496l5.036,5.68l-3.347,4.312l8.193,6.979l-3.266,2.309l4.235,3.162l-7.087,88.894
				l42.032-1.774l4.11-33.631c0,0,3.208-38.863,3.46-41.871c-17.412-13.08-25.104-28.938-25.104-28.938L145.641,179.496z"/>
			<polygon points="181.25,323.824 191.633,329.341 215.247,331.47 226.853,331.521 			"/>
			<polygon opacity="0.25" fill="#FFFFFF" enable-background="new    " points="173.904,184.616 197.776,211.15 196.378,232.914 
				177.913,214.666 179.792,206.732 171.329,205.697 161.306,182.242 			"/>
			<polygon opacity="0.25" fill="#FFFFFF" enable-background="new    " points="234.448,178.99 199.498,207.382 196.378,232.914 
				215.524,213.32 215.817,205.84 223.685,206.801 243.436,181.921 			"/>
			<polygon points="204.513,203.309 205.856,207.971 206.431,216.348 204.379,218.773 205.84,240.27 195.957,261.031 186.6,243.355 
				190.696,216.404 188.912,215.287 189.268,208.773 193.909,201.904 			"/>
			<polygon fill="#8C1516" points="195.322,204.038 192.377,208.046 191.585,214.533 195.584,215.021 202.971,215.924 
				203.895,208.365 202.321,204.893 			"/>
			<polygon fill="#8C1516" points="188.561,239.275 196.603,255.741 202.56,239.926 200.413,215.611 194.004,214.829 			"/>
			<path fill="#31738A" d="M178.411,188.565l10.453-1.067c0,0,33.835-0.725,24.667,6.298c-9.168,7.022-12.915,4.718-17.475,4.244
				c-4.559-0.474-14.057-7.93-14.057-7.93L178.411,188.565z"/>
			<g>
				<g>
					<path fill="#8C1516" d="M171.406,175.731c-46.507-16.363-71.03-67.513-54.664-114.021
						c16.365-46.508,67.516-71.03,114.023-54.665c46.508,16.365,71.03,67.515,54.665,114.022
						C269.065,167.577,217.916,192.098,171.406,175.731z"/>
					<path d="M230.111,8.902c45.557,16.029,69.491,65.956,53.462,111.513c-16.03,45.556-65.957,69.491-111.513,53.46
						s-69.492-65.955-53.462-111.513C134.629,16.807,184.555-7.129,230.111,8.902 M231.42,5.187
						c-47.533-16.725-99.81,8.336-116.534,55.869c-16.726,47.532,8.336,99.809,55.868,116.534
						c47.532,16.728,99.808-8.337,116.534-55.867C304.013,74.189,278.95,21.913,231.42,5.187L231.42,5.187z"/>
					<path fill="#C8A8A8" d="M133.712,94.665c-9.9,10.287-10.419,24.863-8.861,29.629c-26.156-46.506,2.348-105.61,56.421-117.927
						C162.688,12.857,123.013,43.889,133.712,94.665z"/>
					<path d="M230.111,8.902c-1.563-0.553-3.133-1.049-4.706-1.507c42.534,15.213,64.745,62.207,49.619,105.192
						c-2.457,6.983-5.76,13.424-9.734,19.264c0.375,4.646-0.205,9.521-1.888,14.303c-5.862,16.662-22.815,25.875-37.865,20.579
						c-1.674-0.589-3.247-1.341-4.726-2.221c-16.074,4.864-33.74,4.871-50.749-1.115c-41.789-14.705-64.103-60.021-51.003-102.293
						c-0.155,0.419-0.314,0.835-0.462,1.258c-16.03,45.558,7.906,95.482,53.462,111.513c45.557,16.031,95.483-7.904,111.513-53.46
						C299.603,74.858,275.668,24.931,230.111,8.902z"/>
					<path d="M278.13,137.532c-2.749,5.354-7.141,8.584-9.814,7.212c-2.663-1.368-2.599-6.82,0.152-12.179
						c2.756-5.357,7.146-8.583,9.815-7.215C280.95,126.725,280.885,132.174,278.13,137.532z"/>
					<path d="M289.249,142.093c4.4-10.387-5.618-15.271-5.618-15.271l-17.359,4.688l1.015,12.002
						C267.287,143.513,283.821,154.071,289.249,142.093z"/>
					<path fill="#B49253" d="M277.528,128.521c-7.343,1.921-8.02,12.57-8.02,12.57s11.485,7.691,15.859,0.093
						C289.739,133.588,282.028,128.65,277.528,128.521z"/>
					<path fill="#31738A" d="M271.146,134.597c7.377,5.787,14.712,4.769,15.196,4.371c-3.08,11.117-16.833,2.124-16.833,2.124
						S269.889,136.817,271.146,134.597z"/>
					<path d="M130.753,145.027c3.215,4.841,7.781,7.467,10.197,5.86c2.407-1.603,1.756-6.826-1.462-11.672
						c-3.225-4.842-7.787-7.463-10.198-5.862C126.877,134.959,127.528,140.184,130.753,145.027z"/>
					<path d="M120.575,150.605c-5.346-9.49,3.739-15.262,3.739-15.262l4.975-1.99l12.515,16.24
						C141.804,149.594,127.079,161.514,120.575,150.605z"/>
					<path fill="#B49253" d="M130.354,136.314c7.255,1.051,9.056,11.195,9.056,11.195s-10.189,8.623-15.208,1.804
						C119.185,142.498,126.05,136.925,130.354,136.314z"/>
					<path fill="#31738A" d="M137.138,141.456c1.345,5.995-1.96,8.067-4.727,9.942c3.73-1.183,7-3.889,7-3.889
						S138.584,143.448,137.138,141.456z"/>
					<path fill="#AFB3B6" d="M130.354,136.314c0,0-5.7,0.716-7.439,6.529c-0.383,2.753,12.479-3.772,11.217-4.919
						C132.709,136.684,130.354,136.314,130.354,136.314z"/>
				</g>
				<g>
					<path d="M267.81,147.943c0,0,1.761,9.028,3.28,16.854c1.144,5.896-1.278,12.081-6.075,13.007
						c-10.945,2.111-25.382,3.732-28.917,5.376c-8.021,13.897-23.399,10.883-23.399,10.883l-18.984-5.259
						c0,0-13.08,1.886-23.473,3.115c-11.957-1.095-12.102-9.23-12.102-9.23s2.039-14.62,1.509-23.988
						c-0.528-9.369-1.2-21.293-1.2-21.293l95.885-21.566c0,0,14.035,5.521,14.063,17.882
						C268.424,146.086,267.81,147.943,267.81,147.943z"/>
					<path fill="#F5B440" d="M250.839,120.567c8.355,11.973,14.255,44.037,14.032,47.409c-0.223,3.372-3.218,4.705-3.218,4.705
						s-60.864,15.975-94.111,14.556c-4.769-1.149-6.288-4.167-6.288-4.167s1.926-26.577-4.023-51.285
						c-0.053-1.894,1.921-2.03,1.921-2.03l85.611-17.483C244.763,112.272,247.5,115.438,250.839,120.567z"/>
					<path fill="#B79556" d="M159.152,129.755c28.452-12.017,85.34-17.516,85.34-17.516l8.23,42.357c0,0,2.371,8.409,1.852,14.199
						c-22.393,14.824-80.671,15.821-80.671,15.821l-3.149-2.041C170.754,182.575,164.395,143.046,159.152,129.755z"/>
					<path d="M263.959,147.473c-8.363,9.506-17.656,8.046-17.656,8.046l15.991-12.989
						C262.294,142.529,265.372,143.685,263.959,147.473z"/>
					<circle fill="#B79556" cx="242.106" cy="134.015" r="21.906"/>
					<path fill="#D4D4D4" d="M233.753,121.312c17.371,18.55-3.978,32.556-3.978,32.556s-19.29,1.798-39.012,7.129
						c-0.575-2.784-1.206-7.133-4.365-12.326c-0.206-0.849,2.217,1.394,1.93,0.474c-1.15-3.695-3.05-8.032-6.51-13.41
						C187.745,135.628,219.244,136.532,233.753,121.312z"/>
					<path d="M231.421,143.496c-5.375-10.098-14.232-3.357-12.225,1.149c-2.266,0.408-30.503,5.482-30.503,5.482l-2.295-1.457
						c0,0,26.596-5.548,30.169-6.334C216.639,136.215,229.926,132.551,231.421,143.496z"/>
					<path fill="#31738A" d="M173.744,135.194l4.731,2.906l5.39,9.616l-0.836,1.762l2.526,9.851l-0.697,1.949l-5.104,23.133
						l7.531-0.423c0,0,4.486-13.146,4.089-13.112c-0.398,0.035-5.265-10.795-5.265-10.795l4.912-2.367l-4.939-9.364l0.757-3.271
						l-5.129-8.448L173.744,135.194z"/>
					<path d="M171.068,133.667c44.086,3.877,59.387-11.625,59.387-11.625l-1.538-1.32c0,0,7.964-1.812,11.974,5.546
						c-2.195-0.575-3.797-1.759-8.394-2.088c-15.473,16.272-46.655,13.747-46.655,13.747l8.467,18.784l-0.748,3.326l-2.721,3.425
						l4.345,7.705c0,0-12.617,19.777,4.63,22.366c-17.476-2.22-13.208-20.157-11.234-22.393c-0.634-4.73-4.329-10.937-4.329-10.937
						s1.24-0.976,3.459-2.033c-0.91-4.539-4.444-9.984-4.444-9.984l2.087-1.632l-5.651-9.377
						C179.702,137.176,173.467,135.659,171.068,133.667z"/>
					<path fill="#B79556" d="M223.594,154.591c-16.548,1.409-36.315,7.113-36.315,7.113s4.083,5.22,4.976,8.727
						c-16.23,32.381,37.093,30.213,41.497,6.529C236.109,166.537,231.632,153.906,223.594,154.591z"/>
					<path d="M228.867,153.962c-13.852,1.669-41.589,7.742-41.589,7.742l3.051-2.857
						C190.329,158.847,209.708,153.522,228.867,153.962z"/>
				</g>
				<path d="M262.742,79.837c-4.346-6.977-9.27-12.568-14.649-16.636c-0.514-3.965-3.276-6.747-7.358-7.246
					c-0.375-0.046-0.751-0.071-1.126-0.075c-0.042-1.409-0.438-2.534-0.893-3.375c-1.28-2.369-3.844-3.951-7.036-4.341
					c-4.825-0.59-10.697,1.689-13.13,6.992c-13.704,1.537-25.871,8.919-33.115,14.284c0.573-1.901,1.25-4.009,2.021-6.198
					c0.793-2.251,1.606-4.357,2.43-6.308c-0.006,0.052-0.01,0.086-0.013,0.104l-0.229,1.874l1.647,0.921
					c0.303,0.169,1.163,0.581,2.618,0.759c2.138,0.261,4.557-0.09,7.192-1.042c5.17-1.731,6.75-5.003,6.5-7.493
					c-0.234-2.34-2.036-4.136-4.518-4.536c0.893-3.583,2.739-8.953,7.14-14.922c3.341,0.082,6.082-0.457,8.16-1.604
					c2.422-1.338,3.897-3.483,4.15-6.037c0.488-4.914-3.625-9.778-8.801-10.412l0,0c-0.518-0.063-1.044-0.083-1.565-0.061
					l-0.22,0.01l-0.216,0.044l-6.971,1.414l-0.732,0.147l-0.561,0.493c-0.695,0.609-14.648,12.953-24.681,30.381
					c-0.601-12.931-2.098-24.352-6.394-28.898l-0.266-0.281l-0.332-0.2c-1.125-0.675-2.647-1.133-4.522-1.363
					c-2.796-0.341-6.952-0.181-9.576,0.965c-2.452,0.87-4.386,2.333-5.597,4.237c-1.095,1.719-1.58,3.789-1.364,5.828
					c0.384,3.646,2.801,6.453,5.877,6.83l3.14,0.383c0.024,5.291-0.177,10.912-0.595,13.919c-4.197-0.141-6.238,1.658-7.113,2.82
					c-1.379,1.831-1.621,4.293-0.646,6.587c1.207,2.839,4.011,4.854,7.318,5.258c0.17,0.02,0.342,0.037,0.516,0.049
					c3.716,0.31,6.004-1.032,7.297-2.595c0.094,3.297,0.291,6.704,0.644,9.993c-3.807-3.505-9.269-7.305-16.398-8.483
					c0.073-0.376,0.086-0.77,0.037-1.173c-0.312-2.521-3.118-4.664-6.673-5.1c-0.752-0.092-1.521-0.103-2.286-0.033l-0.107,0.01
					l-0.106,0.018c-2.279,0.386-4.418,1.768-5.724,3.696c-0.614,0.906-1.231,2.212-1.457,3.959
					c-2.511-0.042-4.944,0.947-6.651,2.743c-1.75,1.84-2.586,4.353-2.417,7.181c-3.244,3.604-6.446,8.102-9.532,13.388l-0.918,1.574
					l1.062,1.481c4.319,6.023,8.764,10.673,13.249,13.863c-1.623,3.04-1.166,5.542-0.644,6.925c1.16,3.07,4.353,5.353,8.135,5.815
					c2.958,0.361,5.785-0.472,7.753-2.287c1.097-1.01,2.333-2.695,2.778-5.347c6.278-0.856,12.472-4.475,18.06-10.584
					c0.646-0.706,1.252-1.411,1.818-2.102l-0.035,1.339l3.013-0.131l13.668-0.596l2.163-0.095
					c6.7,6.062,18.064,14.045,32.846,15.852c0.789,0.097,1.584,0.174,2.379,0.233c0.968,5.542,5.275,6.542,6.728,6.718
					c4.326,0.529,9.642-2.138,11.852-5.945c0.771-1.33,1.103-2.709,0.995-4.028c8.938-4.566,16.39-13.62,22.175-26.957l0.586-1.353
					L262.742,79.837z M242.247,85.432C238.199,89.035,226.62,98,213.202,96.36c-7.334-0.896-14.271-4.839-20.651-11.73
					c10.616-9.766,20.588-14.152,29.668-13.042C232.931,72.896,239.745,81.615,242.247,85.432z M158.819,86.266
					c-6.576,6.688-12.946,9.703-18.964,8.967c-4.857-0.593-8.362-3.498-10.071-5.248c2.204-3.39,8.171-10.975,16.865-9.914
					C150.511,80.543,154.595,82.624,158.819,86.266z"/>
				<path fill="#F5B440" d="M260.356,81.324c-4.697-7.54-9.764-12.927-14.989-16.635c0.093-6.711-7.068-6.831-9.529-4.966
					c5.226-10.589-12.516-12.19-15.258-1.932c-21.616,1.569-40.16,19.428-40.16,19.428s6.177-27.378,16.381-36.706
					c-3.023,7.75-4.138,16.867-4.138,16.867s2.434,1.361,7.513-0.484c7.478-2.485,4.923-8.57-0.673-6.044
					c0.535-2.362,1.55-11.14,9.38-21.135c16.463,1.256,11.379-12.771,3.407-12.424c-2.207,0.448-6.97,1.415-6.97,1.415
					s-19.667,17.233-28.998,39.506c-0.209-7.207-0.228-32.127-5.973-38.208c-2.575-1.544-9.015-1.387-11.614-0.194
					c-7.688,2.647-5.689,11.012-1.782,11.488c3.906,0.478,5.58,0.683,5.58,0.683s0.301,16.087-1.247,19.485
					c-10.699-2.063-9.138,8.324-1.836,8.838c5.046,0.428,5.664-3.084,5.664-3.084l4.742-17.169c0,0-2.071,24.67,1.642,39.097
					c-1.825-1.209-10.247-15.036-25.868-14.68c-1.633-0.329-1.474-3.013,1.658-2.26c2.215-0.853-0.836-4.09-5.18-3.693
					c-2.103,0.357-5.974,2.528-4.666,8.585c-3.645-2.377-10.358,0.011-9.114,7.182c-3.268,3.459-6.627,7.996-10.042,13.846
					c5.237,7.305,10.243,11.981,14.937,14.731c-9.115,10.244,11.929,16.498,11.397,3.262c15.57-0.21,25.594-19.577,25.594-19.577
					l-0.209,7.904l13.667-0.595l-2.272-6.131c0,0,16.611,21.667,42.403,22.241c-0.274,13.117,17.856,3.816,13.475-2.059
					C245.704,104.457,253.784,96.476,260.356,81.324z M126.332,90.294c0,0,13.439-26.539,36.48-4.18
					C140.997,110.496,126.332,90.294,126.332,90.294z M188.647,84.456c37.455-36.49,57.174,1.464,57.174,1.464
					S216.232,117.141,188.647,84.456z"/>
				<path fill="#C8A8A8" d="M142.11,58.518c-3.683,2.134-2.746,7.979-3.391,10.438c-3.919-0.464-7.592,3.016-8.173,4.945
					c-0.582,1.929-12.258,14.229-12.258,14.229s6.167-10.791,10.042-13.846c-0.141-4.245,1.106-6.315,2.719-7.246
					c3.412-2.294,6.395,0.064,6.395,0.064S135.705,59.643,142.11,58.518z"/>
				<path fill="#C8A8A8" d="M227.345,51.256c-3.483,3.754-4.587,9.029-4.587,9.029s-23.192,2.627-38.865,13.926
					c20.776-16.448,36.688-16.42,36.688-16.42S222.855,52.511,227.345,51.256z"/>
				<path fill="#C8A8A8" d="M205.32,18.708l6.97-1.415c0,0-27.053,22.721-35.712,40.327C187.14,34.484,205.32,18.708,205.32,18.708z
					"/>
				<path fill="#C8A8A8" d="M156.562,20.869c-0.528,2.995-0.318,6.136,0.999,7.391c5.246,1.491,8.512,1.04,8.512,1.04l-4.276,20.292
					l0.738-17.608l-6.404-0.914C156.13,31.069,149.829,26.796,156.562,20.869z"/>
				<path fill="none" stroke="#000000" stroke-width="0.75" stroke-linejoin="round" stroke-dasharray="3.1213,3.1213" d="
					M244.065,66.522c-0.604-0.428-0.958-1.126-0.948-1.864c0.03-2.195-0.977-3.434-2.997-3.681
					c-1.238-0.151-2.431,0.165-2.923,0.538c-0.479,0.363-1.066,0.51-1.632,0.44c-0.415-0.051-0.818-0.217-1.158-0.499
					c-0.804-0.663-1.046-1.793-0.584-2.729c0.544-1.104,1.064-2.664,0.44-3.818c-0.482-0.894-1.678-1.538-3.197-1.723
					c-3.252-0.398-7.269,1.283-8.312,5.184c-0.247,0.926-1.054,1.594-2.01,1.663c-20.568,1.492-38.584,18.631-38.763,18.806
					c-0.499,0.479-1.176,0.692-1.834,0.611c-0.285-0.034-0.567-0.125-0.831-0.272c-0.864-0.487-1.308-1.485-1.09-2.455
					c0.259-1.146,6.457-28.179,17.059-37.87c0.498-0.455,1.155-0.651,1.791-0.573c0.35,0.043,0.693,0.168,0.999,0.377
					c0.863,0.592,1.204,1.699,0.824,2.672c-2.05,5.252-3.201,11.226-3.699,14.283c0.959,0.014,2.348-0.155,4.209-0.834
					c0.02-0.006,0.04-0.013,0.06-0.02c2.29-0.76,3.05-1.805,3.098-2.155c-0.047-0.026-0.148-0.072-0.333-0.094
					c-0.275-0.033-0.877-0.028-1.802,0.39c-0.383,0.174-0.797,0.231-1.199,0.183c-0.414-0.051-0.813-0.217-1.148-0.49
					c-0.662-0.539-0.96-1.406-0.773-2.239c0.052-0.225,0.107-0.514,0.173-0.86c0.623-3.219,2.274-11.774,9.63-21.165
					c0.464-0.591,1.193-0.913,1.942-0.855c4.985,0.381,8.222-0.775,8.443-3.016c0.193-1.948-1.717-4.562-4.379-4.889
					c-0.189-0.023-0.38-0.034-0.572-0.031l-6.176,1.252c-2.91,2.663-19.717,18.585-27.973,38.293
					c-0.391,0.933-1.354,1.485-2.346,1.365c-0.046-0.006-0.093-0.013-0.14-0.022c-1.042-0.194-1.806-1.087-1.835-2.146
					c-0.02-0.627-0.036-1.388-0.055-2.258c-0.159-7.188-0.636-28.827-5.083-34.218c-0.369-0.166-1.071-0.4-2.28-0.549
					c-2.769-0.338-5.781,0.049-6.985,0.601c-0.066,0.031-0.135,0.059-0.205,0.083c-3.663,1.26-3.808,3.771-3.701,4.792
					c0.139,1.309,0.866,2.265,1.459,2.337l5.58,0.683c1.113,0.136,1.956,1.07,1.977,2.19c0.052,2.771,0.225,16.782-1.451,20.459
					c-0.409,0.897-1.351,1.418-2.318,1.3c-0.051-0.006-0.103-0.015-0.154-0.023c-0.325-0.063-0.644-0.114-0.947-0.15
					c-1.878-0.23-3.309,0.044-3.826,0.731c-0.402,0.533-0.156,1.271-0.032,1.563c0.394,0.925,1.46,1.994,3.275,2.215
					c0.092,0.012,0.185,0.02,0.278,0.027c0.012,0,0.022,0.001,0.032,0.003c2.577,0.218,3.144-0.865,3.263-1.267
					c0.01-0.086,0.014-0.066,0.044-0.176l4.741-17.17c0.298-1.078,1.34-1.768,2.438-1.633c0.042,0.005,0.083,0.011,0.124,0.019
					c1.144,0.204,1.943,1.245,1.846,2.402c-0.021,0.243-1.995,24.463,1.58,38.349c0.232,0.901-0.116,1.852-0.874,2.393
					c-0.468,0.333-1.032,0.468-1.579,0.4c-0.339-0.041-0.671-0.16-0.968-0.357c-0.589-0.39-1.16-1.051-2.104-2.145
					c-3.029-3.505-9.333-10.799-19.137-11.998c-1.091-0.133-2.213-0.189-3.332-0.162c-0.109,0.002-0.217-0.004-0.325-0.017
					c-0.059-0.007-0.117-0.016-0.173-0.028c-1.854-0.375-3.077-2.088-2.784-3.901c0.118-0.73,0.493-1.453,1.119-2.001
					c-0.365-0.044-0.739-0.052-1.113-0.024c-0.693,0.14-1.681,0.614-2.301,1.53c-0.706,1.042-0.861,2.505-0.464,4.349
					c0.193,0.892-0.172,1.811-0.923,2.328c-0.462,0.318-1.014,0.444-1.548,0.379c-0.334-0.041-0.662-0.156-0.956-0.349
					c-0.397-0.259-0.887-0.43-1.415-0.495c-1.238-0.151-2.513,0.286-3.326,1.142c-0.923,0.971-1.244,2.446-0.928,4.268
					c0.12,0.699-0.094,1.414-0.582,1.929c-3.027,3.203-6.046,7.294-8.985,12.173c4.441,5.972,8.938,10.315,13.382,12.919
					c0.581,0.34,0.979,0.924,1.084,1.59c0.105,0.665-0.093,1.342-0.541,1.845c-1.035,1.162-2.145,2.871-1.563,4.413
					c0.487,1.29,2.138,2.351,4.014,2.58c1.482,0.182,2.835-0.177,3.71-0.984c0.943-0.869,1.384-2.266,1.309-4.151
					c-0.024-0.606,0.197-1.196,0.615-1.637c0.417-0.44,0.994-0.693,1.602-0.702c14.02-0.188,23.534-18.182,23.628-18.363
					c0.437-0.841,1.348-1.309,2.268-1.196c0.097,0.012,0.195,0.03,0.291,0.055c1.015,0.263,1.713,1.189,1.686,2.236l-0.146,5.493
					l8.174-0.356l-1.2-3.237c-0.387-1.043,0.048-2.213,1.021-2.75c0.429-0.237,0.904-0.319,1.359-0.263
					c0.583,0.07,1.133,0.367,1.514,0.863c0.14,0.181,14.367,18.369,36.232,21.041c1.469,0.18,2.962,0.287,4.436,0.32
					c0.076,0.001,0.151,0.007,0.225,0.016c1.133,0.139,1.998,1.116,1.973,2.28c-0.084,4.022,1.773,4.25,2.473,4.335
					c2.287,0.279,5.685-1.436,6.861-3.462c0.573-0.987,0.247-1.426,0.09-1.637c-0.416-0.557-0.55-1.275-0.364-1.945
					c0.186-0.67,0.671-1.217,1.315-1.48c8.512-3.486,15.703-11.663,21.385-24.311C253.688,75.112,249.067,70.072,244.065,66.522z
					 M164.488,87.613c-8.417,9.407-16.911,13.661-25.247,12.642c-9.175-1.121-14.507-8.333-14.73-8.64
					c-0.495-0.684-0.567-1.585-0.185-2.338c0.082-0.162,2.062-4.028,5.79-7.699c5.097-5.02,11.027-7.277,17.148-6.53
					c5.599,0.684,11.357,3.863,17.115,9.451C165.244,85.34,165.292,86.714,164.488,87.613z M247.453,87.467
					c-0.629,0.666-15.659,16.264-34.865,13.917c-9.321-1.138-17.954-6.347-25.66-15.478c-0.761-0.901-0.696-2.238,0.149-3.063
					c12.497-12.175,24.527-17.652,35.755-16.28c16.329,1.996,24.64,17.653,24.985,18.319
					C248.259,85.734,248.113,86.771,247.453,87.467z"/>
				<path d="M193.847,101.646c0,0-10.003-7.401-22.891-4.991c-5.231,0.356-8.039,3.22-9.139,7.337
					c-7.973,2.178-7.781,6.841-6.495,10.034c3.465,6.224,7.985,4.318,9.504,3.242c16.586,15.457,29.296-1.357,29.296-1.357
					s16.04,7.023,16.587-5.71C211.256,97.468,193.847,101.646,193.847,101.646z"/>
				<path fill="#B79556" d="M163.628,105.731c0,0-7.769,0.964-6.523,6.214c1.719,7.574,8.444,2.489,8.444,2.489L163.628,105.731z"/>
				<path d="M161.409,106.257c0.224,4.631,3.211,4.951,3.211,4.951l-0.475-8C164.146,103.208,161.24,104.787,161.409,106.257z"/>
				<path fill="#B79556" d="M186.623,101.013c-10.567-5.067-21.831-0.969-22.358,1.8c-4.978,16.007,16.156,25.387,29.251,10.938
					c19.497,5.781,15.211-14.624,2.164-8.288C193.215,104.293,190.395,102.985,186.623,101.013z"/>
				<polygon points="213.234,35.063 210.915,54.04 257.571,66.256 256.82,53.855 				"/>
				<polygon points="166.758,30.517 171.316,42.828 124.197,56.776 126.861,48.866 				"/>
				<path fill="none" stroke="#000000" stroke-miterlimit="10" stroke-dasharray="5,4" d="M203.754,3.962
					c0,0-8.483,4.266-16.845,19.387c-8.363,15.121-10.632,32.972-10.632,32.972"/>
				<path fill="#B79556" d="M188.647,84.456c27.585,32.686,57.174,1.464,57.174,1.464S226.102,47.966,188.647,84.456z"/>
				<path fill="#B79556" d="M162.812,86.114c-21.814,24.382-36.48,4.18-36.48,4.18S139.771,63.755,162.812,86.114z"/>
				<path fill="#31738A" d="M136.389,80.468c-3.271,4.942-4.549,8.762-4.549,8.762s2.005,5.92,0.556,5.671
					c-1.451-0.249-6.063-4.606-6.063-4.606S130.416,82.858,136.389,80.468z"/>
				<g>
					<path fill="#E7D0D0" d="M201.75,83.857c17.034,21.753,32.814,4.274,33.212,0.351C229.395,77.233,209.22,74.153,201.75,83.857z"
						/>
					<path d="M225.276,87.631c-3.765-1.23-5.822-5.278-4.596-9.041c0.452-1.386,1.287-2.538,2.346-3.381
						c-0.358-0.156-0.727-0.298-1.107-0.422c-6.237-2.033-12.942,1.375-14.977,7.612c-2.033,6.235,1.375,12.943,7.614,14.977
						c6.238,2.034,12.943-1.376,14.976-7.613c0.243-0.743,0.403-1.497,0.494-2.244C228.554,88.076,226.891,88.156,225.276,87.631z"
						/>
					<path fill="#31738A" d="M225.276,87.631c-3.728-1.213-5.776-5.193-4.627-8.925c-3.849-0.582-7.666,1.675-8.914,5.498
						c-1.388,4.257,0.939,8.835,5.198,10.224c4.257,1.388,8.835-0.941,10.223-5.198c0.135-0.412,0.225-0.83,0.291-1.247
						C226.728,87.979,225.997,87.866,225.276,87.631z"/>
					<circle fill="#E7D0D0" cx="227.462" cy="80.927" r="7.171"/>
					<circle cx="217.556" cy="88.175" r="7.171"/>
					<circle fill="#C8A8A8" cx="218.107" cy="86.076" r="3.525"/>
				</g>
				<path d="M162.812,86.114c-21.544-19.605-36.48,4.18-36.48,4.18S139.784,63.59,162.812,86.114z"/>
				<path d="M126.332,90.294c17.669,19.701,36.48-4.18,36.48-4.18S143.42,107.718,126.332,90.294z"/>
				<g>
					<path fill="#E7D0D0" d="M134.303,87.688c15.081,13.912,24.561-0.782,24.386-3.706
						C153.775,79.535,138.621,79.684,134.303,87.688z"/>
					<path d="M151.997,87.646c-2.906-0.451-4.897-3.173-4.447-6.077c0.166-1.068,0.64-2.013,1.316-2.758
						c-0.282-0.072-0.568-0.131-0.862-0.177c-4.812-0.747-9.322,2.55-10.068,7.366c-0.746,4.812,2.552,9.322,7.367,10.067
						c4.814,0.746,9.323-2.552,10.068-7.366c0.09-0.573,0.117-1.145,0.096-1.704C154.453,87.582,153.242,87.84,151.997,87.646z"/>
					<path fill="#31738A" d="M151.997,87.646c-2.877-0.445-4.852-3.117-4.457-5.989c-2.89,0.033-5.418,2.143-5.876,5.093
						c-0.509,3.286,1.741,6.363,5.03,6.873c3.285,0.51,6.362-1.743,6.872-5.029c0.05-0.318,0.066-0.635,0.064-0.949
						C153.103,87.729,152.552,87.733,151.997,87.646z"/>
					<circle fill="#E7D0D0" cx="152.799" cy="82.473" r="5.325"/>
					<circle cx="146.403" cy="88.967" r="5.325"/>
					<circle fill="#C8A8A8" cx="146.556" cy="87.362" r="2.617"/>
				</g>
				<path fill="#AFB3B6" d="M248.985,113.215c0,0,13.277,3.908,14.771,17.433c1.494,13.524-6.911,19.57-6.911,19.57
					s5.349-9.644,3.651-19.147C258.659,118.165,248.985,113.215,248.985,113.215z"/>
				<path fill="#31738A" d="M202.472,73.683c0,0-4.604,7.5-5.56,9.627c-0.955,2.127,4.711,12.129,4.711,12.129
					s-7.656-4.157-12.976-10.984C194.381,78.405,202.472,73.683,202.472,73.683z"/>
			</g>
			<polygon points="173.289,292.177 163.918,368.861 151.506,366.355 153.851,290.643 			"/>
			<polygon points="215.247,331.47 225.179,331.316 229.818,368.052 223.751,368.117 221.112,364.81 			"/>
			<polygon points="156.493,201.938 164.769,265.129 170.528,269.623 163.849,272.656 166,290.13 149.406,290.831 			"/>
			<polygon points="192.947,214.699 198.854,215.421 192.643,217.184 			"/>
			<path opacity="0.25" fill="#FFFFFF" enable-background="new    " d="M182.629,263.098l-0.41,3.35l-15.818,4.298l-3.514-5.244
				C162.887,265.5,179.348,262.131,182.629,263.098z"/>
			<path fill="#AFB3B6" d="M163.054,110.429c0,0-1.739-1.661-5.974-0.73c0.12-2.105,4.328-3.442,4.328-3.442L163.054,110.429z"/>
			<path d="M188.647,84.456c37.292-32.073,57.174,1.464,57.174,1.464S226.765,47.952,188.647,84.456z"/>
			<path d="M188.647,84.456c27.684,32.65,57.174,1.464,57.174,1.464S216.949,113.594,188.647,84.456z"/>
			<path fill="#31738A" d="M194.411,110.29c-12.869,9.126-23.456,7.69-28.862,4.145c3.415,6.1,11.126,6.994,15.894,6.213
				c7.26-1.188,12.074-6.896,12.074-6.896s9.307,3.026,12.502-1.456C199.468,114.102,195.889,112.105,194.411,110.29z"/>
			<path fill="#AFB3B6" d="M167.28,100.267c5.12-2.126,10.297-1.999,14.805-0.983c3.643,0.82,6.175,2.353,8.557,3.613
				c2.719,1.44,5.039,2.567,5.039,2.567s4.742-2.646,8.611-0.12c-4.337-1.592-9.333,1.63-9.333,1.63S180.489,97.903,167.28,100.267z
				"/>
			<path fill="#31738A" d="M228.867,153.962c1.471,0.172-36.543,9.131-36.543,9.131l3.692,6.878c0,0-11.13,23.497,14.197,24.584
				c-2.055,0.316-13.528,1.428-18.751-5.679c-2.586-3.519-3.588-9.747,0.667-18.193c-1.459-4.466-4.851-8.979-4.851-8.979
				l20.844-4.272C208.122,157.432,227.396,153.79,228.867,153.962z"/>
			<path fill="#31738A" d="M309.454,73.859c18.164-6.476,17.325,6.129,14.705,15.342c-1.328,4.669-0.959,10.373,0.725,11.044
				c13.429,50.042-17.83,71.752-17.83,71.752s30.531-35.071,13.021-66.383C312.646,109.239,296.586,90,309.454,73.859z"/>
			<polygon points="320.075,105.615 324.883,100.246 322.856,112.573 319.523,110.123 			"/>
			<path fill="#31738A" d="M322.084,208.475c-0.979,2.91,2.086,4.969,2.086,4.969s-4.021,0.641-6.264-3.465
				c-31.977,10.317-59.39-6.226-59.39-6.226s17.328,5.755,33.826,5.944c16.498,0.188,27.751-3.817,27.751-3.817
				S323.062,205.563,322.084,208.475z"/>
			<path fill="#31738A" d="M389.649,92.775c1.928,7.193,1.273,14.838,1.273,14.838s8.102-2.217,10.092-8.322
				C402.729,91.917,388.515,87.022,389.649,92.775z"/>
			<path d="M389.487,90.873c4.891,7.772,6.363,17.343,6.363,17.343l-4.84,1.348C391.01,109.563,391.276,104.632,389.487,90.873z"/>
			<path fill="#AFB3B6" d="M389.487,90.873c11.893,71.425-59.427,113.807-59.427,113.807S386.86,157.28,389.487,90.873z"/>
			<path fill="#AFB3B6" d="M78.338,40.036C93.752,50.073,88.64,59.858,88.64,59.858S87.639,49.225,78.338,40.036z"/>
			<path fill="#AFB3B6" d="M92.743,105.557c-20.081,35.66,15.133,68.738,15.133,68.738s11.77-4.965,21.343,3.204
				c-12.47-3.441-22.14,2.349-22.14,2.349S66.596,140.946,92.743,105.557z"/>
			<polygon points="245.863,283.854 247.048,289.62 203.871,289.934 			"/>
			<polygon fill="#C8A8A8" points="197.219,204.27 197.277,215.229 191.585,214.533 192.245,209.137 195.322,204.038 			"/>
			<polygon points="247.95,180.641 227.209,209.65 215.817,205.84 223.685,206.801 243.876,181.32 			"/>
		</g>
		<g>
			<path d="M228.275,213.486h-44.606h-67.251c-0.845-10.264,0.91-18.405,5.229-24.233c3.011-4.062,6.842-6.393,10.144-7.729
				c2.823,3.34,7.166,5.197,12.375,5.197c6.928,0,14.556-3.303,18.979-8.22c2.953-3.283,4.303-7.008,3.903-10.774l-0.008-0.084
				l-0.014-0.084c-0.6-4.005-2.78-7.251-6.302-9.388c-2.857-1.732-6.5-2.648-10.532-2.649c-7.184,0-14.376,2.918-18.324,7.437
				c-1.903,2.177-3.052,4.649-3.406,7.285c-9.593,2.568-16.821,7.58-21.509,14.928c-6.411,10.041-6.331,21.837-5.636,28.314h-50.72
				h-4.41l0.499,4.383l3.374,29.611l0.408,3.59l3.613-0.102l3.862-0.107l34.91,140.792l0.697,3.262l3.334-0.152l73.095-3.375
				l0.104-0.004l0.102-0.01l37.861-3.75l3.387-0.334l0.157-3.4l7.338-136.922l9.704-0.885l3.579-0.326v-3.593v-24.74v-3.936h-3.936
				V213.486z"/>
			<path fill="#232323" d="M163.134,168.143c1.316,12.422-26.349,22.208-30.489,6.588
				C128.504,159.109,160.875,153.087,163.134,168.143z"/>
			<polygon fill="#E2A358" points="50.597,217.422 228.275,217.422 228.275,242.162 53.97,247.035 			"/>
			<polygon fill="#988575" points="164.364,217.422 166.343,243.762 228.275,242.162 228.275,217.422 			"/>
			<polygon fill="#E2A358" points="61.108,246.835 96.703,390.829 169.799,387.455 164.548,243.943 			"/>
			<polygon fill="#FFFFFF" points="80.21,285.643 97.015,363.207 156.195,363.464 153.842,283.371 			"/>
			<path fill="#CBCBCB" d="M138.479,172.472c3.011,1.882,0,3.388,0,3.388s-30.865,1.506-25.596,41.562c-3.011,0-6.964,0-6.964,0
				S96.134,176.424,138.479,172.472z"/>
			<polygon points="114.054,217.422 104.303,217.422 101.316,213.486 112.474,213.518 			"/>
			<path fill="#989898" d="M139.436,173.994c-30.916,2.503-31.75,39.492-31.75,39.492s2.944,0.152,4.788,0.029
				c-2.504-35.438,24.409-37.472,24.409-37.472S140.392,175.517,139.436,173.994z"/>
			<ellipse fill="#333333" cx="150.783" cy="164.465" rx="9.21" ry="4.083"/>
			<polygon points="164.548,243.943 215.155,247.035 215.155,243.357 			"/>
			<polygon points="59.219,247.035 186.389,243.427 59.219,251.533 			"/>
		</g>
	</g>
</g>
</svg>
