<?xml version="1.0" encoding="utf-8"?>
<!-- Generator: Adobe Illustrator 16.0.0, SVG Export Plug-In . SVG Version: 6.00 Build 0)  -->
<!DOCTYPE svg PUBLIC "-//W3C//DTD SVG 1.1//EN" "http://www.w3.org/Graphics/SVG/1.1/DTD/svg11.dtd">
<svg version="1.1" id="Layer_1" xmlns="http://www.w3.org/2000/svg" xmlns:xlink="http://www.w3.org/1999/xlink" x="0px" y="0px"
	 width="180.031px" height="48px" viewBox="0 0 180.031 48" enable-background="new 0 0 180.031 48" xml:space="preserve">
<g>
	<path d="M38.176,11.707l0.247,0.141l0.142,0.105l0.141,0.229l0.088,0.388l-0.193,0.985v-0.158l-0.142,0.334l-0.176,0.071v0.176
		l-0.44,0.439l-0.211,0.388l-0.176,0.44l-0.035,0.246v0.246l-0.141,0.265l0.07,0.316l-0.07,0.827l0.035,0.3v0.387l0.07,0.37
		l0.07,0.246l0.035,0.37v0.211l-0.07,0.141l-0.035,0.247l0.105,0.651l0.105,0.439v0.388l-0.07,0.299l-0.07,0.423l-0.07,0.229
		l-0.193,0.317l-0.247,0.176l-0.211,0.141l-0.37,0.123l-0.423,0.07l-0.299-0.158l-0.354-0.281l-0.141-0.282l-0.142-0.264
		l-0.053-0.599l0.053-0.229l0.07-0.317l0.07-0.404l-0.105-0.528l-0.035-0.193l-0.053-0.177l-0.141-0.352l0.141-0.37l-0.036-0.176
		l-0.104-0.176l-0.07-0.265l0.105-0.176l-0.177-0.316v-0.37l-0.105-0.211l-0.246-0.176v-0.265l-0.071-0.316l-0.229-0.37
		l-0.282-0.563l-0.405-0.545l-0.141-0.104L32.91,14.26l-0.264-0.211h-0.247l-0.211-0.176l-0.37-0.142l-0.563-0.229h-0.687
		l-0.264-0.035l-0.651,0.193l-0.141,0.105l-0.212,0.036l-1.003,0.65l-0.439,0.528l-0.211,0.3l-0.142,0.246l-0.123,0.176
		l-0.105,0.123l-0.07,0.212l-0.035,0.316l-0.104,0.3l-0.176,0.316l-0.035,0.105l-0.105,0.229v0.211l-0.159,0.458l-0.034,0.158
		l-0.142,0.422l-0.069,0.722l-0.177,0.44l0.035,0.246l-0.035,0.142l-0.035,0.229v0.211l-0.104,0.353l0.176,0.439l-0.035,0.212
		l-0.176,0.545l0.07,0.282l-0.123,0.264l-0.071,0.247l0.071,0.176v0.176L25.907,23.5v0.142l0.088,0.316l0.176,0.07l0.142,0.123
		l0.035,0.142l-0.035,0.281l-0.071,0.334l-0.035,0.246l0.035,0.105l0.176,0.035v0.141l-0.035,0.371l0.035,0.352l-0.035,0.404
		l0.177,0.512l-0.035,0.176l-0.07,0.246v0.65l0.07,0.142l0.176,0.177l-0.07,0.334l-0.141,0.581l0.035,0.142l0.105,0.211l0.158,0.545
		v0.389l0.142,0.511v0.177l0.141,0.403v0.282l0.211,0.105l0.106,0.334l0.299,0.457L27.79,33.2l0.476,0.388l0.141,0.141l0.352,0.266
		l0.177,0.07l0.299-0.035l0.211,0.035l0.651,0.176h0.176l0.229-0.105h0.211h0.353l0.141-0.105l0.229-0.069l0.141-0.071l0.317-0.035
		l0.404-0.299l0.282-0.141l0.476-0.477l0.211-0.246l0.069-0.176l0.37-0.615v-0.143l0.211-0.404l0.246-1.039l0.088-0.246
		l-0.053-0.229l0.053-0.105l0.176-0.211l0.07-0.334l-0.035-0.354l0.035-0.369l0.106-0.212l0.069-0.353l-0.034-0.229l0.069-0.316
		l0.247-0.246v-0.264l-0.141-0.177l0.069-1.038l0.071-0.158l0.123-0.211l0.105-0.142l0.316-0.317l0.37-0.229l0.387,0.07l0.177-0.035
		l0.404,0.299l0.211,0.458l0.07,0.405v0.65v0.141v0.353l-0.07,0.265v0.387v0.178l-0.176,0.475l-0.035,0.213l0.142,0.438
		l-0.035,0.176l-0.035,0.335l0.247-0.07l-0.247,0.246l0.176,0.424l-0.035,0.158v0.28l0.035,0.177l-0.247,0.142v0.334l0.177,0.177
		v0.334l0.07,0.282l-0.105,0.245l0.211,0.177v0.264l0.035,0.247l0.053,0.723l0.07,0.176l-0.123,0.229v0.143l0.053,0.246v0.176
		l0.105-0.141l0.105,0.034l0.104,0.44l0.142,0.546l0.104,0.387l0.142,0.246l0.053,0.159l0.071,0.141l0.069,0.211l0.142,0.282
		l0.141,0.229l0.176,0.141l0.07,0.105L39,37.307l0.422-0.105l0.44-0.246h0.352l0.265-0.07l0.176,0.07l0.211,0.141l0.193,0.105
		l0.316,0.581v0.722l-0.069,0.246L41.2,38.962l-0.106,0.158l-0.192,0.28l-0.142,0.07l-0.176-0.035l0.105,0.213l-0.105,0.141
		l-0.37,0.193h-0.211l-0.176,0.104H39.69h-0.299H39.18l-0.247-0.104l-0.44-0.105l-0.511-0.299L37.7,39.436l-0.545-0.58l-0.141-0.07
		l-0.246-0.246l-0.106-0.299l-0.264-0.6l-0.176-0.265V37.23l-0.353-0.582l-0.07-0.176l-0.088-0.281l-0.069-0.439L35.5,35.206
		l-0.352-1.144l-0.265,0.176l-0.316,0.246l-0.176,0.123l-0.07,0.105l-0.194,0.07l-0.141,0.105l-0.211,0.141L33.6,34.995
		l-0.035,0.176l-0.44,0.335L32.983,35.4l-0.211,0.104v0.177l-0.265,0.034l-0.211,0.104l-0.141,0.035l-0.51,0.229l-0.317-0.159
		l-0.51,0.229l-0.317-0.034l-0.264,0.034l-0.282,0.142l-0.51-0.176l-0.387,0.069l-0.265,0.07h-0.792l-0.546-0.07l-0.493-0.157
		l-0.211-0.142l-0.581-0.07l-0.687-0.281l-0.3-0.139h-0.211l-0.211-0.159l-0.247-0.212l-0.3-0.069l-0.387-0.246l-0.757-0.687
		l-0.123-0.301l-0.035-0.281l-0.387-0.246l-0.211-0.229l-0.229-0.281l-0.176-0.178l-0.176-0.404l-0.105-0.141l-0.034-0.439
		l-0.158-0.035l-0.282-0.246l-0.247-0.389l-0.141-0.334l-0.3-0.615l-0.069-0.213l-0.142-0.211v-0.174l-0.069-0.371l0.035-0.211
		l0.034-0.511l-0.104-0.315l-0.141-0.301l-0.547-0.457l0.142-0.58l-0.07-0.371l0.035-0.245l-0.211-0.246v-0.194l0.07-0.246V25.05
		l-0.105-0.3l-0.071-0.457l-0.088-0.106l-0.069-0.299l-0.177-0.423l-0.104-0.229l0.176-0.211l0.176-0.176l0.123-0.142l0.211-0.334
		l0.035-0.211l0.176-0.353l0.035-0.158l0.142-0.599l0.158-0.37v-0.246l0.035-0.105l0.142-0.476l0.034-0.281l0.142-0.229l0.035-0.352
		l0.141-0.299l0.105-0.353l0.158-0.211l0.105-0.158l0.07-0.142l0.035-0.246l0.07-0.405l0.105-0.492v-0.142l0.176-0.439l0.123-0.141
		l0.458-0.035l0.176-0.265l0.229-0.387l0.211-0.142l0.65-0.545l0.282-0.476l0.176-0.246l0.405-0.177l0.176-0.035l0.105-0.158
		l0.615-0.281v-0.177l0.265-0.141l0.176-0.105l0.581-0.299l0.141-0.07l0.898-0.247l0.247-0.035l0.264-0.105l0.142-0.088h0.211
		l0.247-0.105l0.757-0.035l0.37-0.035h0.933l0.687-0.035l0.142,0.07h0.37h0.316l0.265,0.105l0.827,0.193l0.281,0.035l0.106,0.035
		l0.299,0.141l0.458,0.142l0.581,0.211l0.141,0.07l0.3,0.158l0.387,0.212l0.176,0.105H35.8l0.353-0.282l0.07-0.141l0.757-0.687
		l0.546-0.369l0.545-0.035h0.105V11.707z"/>
	<path d="M47.171,16.143h0.194l0.387,0.035l0.827,0.405l0.176,0.281l0.334,0.104l1.145,0.862l0.299,0.142l0.528,0.299l0.158,0.07
		l0.212,0.07l0.211,0.07l0.51,0.212l0.439,0.123l0.563,0.387l0.071,0.405l-0.036,0.211l-0.105,0.211l-0.104,0.142l-0.105,0.51
		l0.035,0.212v0.229l-0.141,0.493l-0.07,0.475l0.105,0.546l-0.105,0.388v0.176l0.035,0.229l-0.035,0.177v0.475l-0.07,0.177v0.316
		l0.035,0.229l-0.035,0.424v0.28l0.07,0.159l0.035,0.281l-0.035,0.211l-0.07,0.335l0.105,0.387v0.3l-0.035,0.176l-0.105,0.688
		l-0.088,0.141l0.159,0.105l-0.07,0.143l0.142,0.914l0.07,0.493l-0.07,0.104l0.035,0.229l-0.035,0.177l0.104,0.316l0.317,0.105
		l0.299,0.404v0.141l-0.158,0.265l-0.141,0.211l-0.141,0.071l-0.476,0.105L52.4,32.04l-0.176,0.104h-0.247l-0.265,0.035
		l-0.247,0.105l-0.28,0.088l-0.688,0.316l-0.37,0.105l-0.65,0.246l-0.142,0.088l-0.792,0.354l-0.281,0.246l-0.142,0.229l0.035,0.281
		l0.176,0.334l0.071,0.423l-0.141,0.28l-0.616,0.406l-0.44-0.035l-0.176-0.07l-0.141-0.035l-0.105-0.105l-0.475-0.3l-0.388-0.069
		l-0.07-0.142l-0.3-0.034l-0.141-0.07l-0.141-0.105l-0.265-0.105l-0.141-0.158l-0.581-0.316l-0.458-0.404l-0.933-0.422l-0.265-0.106
		l-0.211-0.104l-0.176-0.089h-0.141l-0.44-0.211l-0.246-0.069l-0.229-0.317l0.104-0.369l0.44-0.511l0.071-0.211l0.141-0.317
		l0.104-0.403l0.054-0.424l0.035-0.105l0.104-0.81l0.035-0.827l0.176-0.142l-0.211-0.211V27.57v-0.457V26.95l-0.035-0.211
		l0.07-0.316l-0.035-0.194l-0.035-0.492l0.142-0.476V25.05l-0.142-0.247l0.035-0.229l0.105-0.352l-0.142-0.142l-0.035-0.334v-0.141
		V23.27l0.07-0.176l-0.07-0.211l-0.035-0.247l0.035-0.546l-0.035-0.281L42.1,21.193l-0.194-0.476l-0.211-0.141l-0.211-0.246
		l-0.07-0.3l0.035-0.105l0.105-0.176l0.069-0.141l0.422-0.193l0.37-0.106l0.317-0.035l0.476-0.105l0.211-0.035l0.477-0.141
		l0.475-0.176l0.792-0.229l0.317-0.281l0.439-0.246l0.316-0.3l0.176-0.316l0.07-0.229l-0.035-0.387l0.035-0.141l0.159-0.265
		l0.28-0.211L47.171,16.143z M46.379,19.856l-0.281,0.105v0.212l0.034,0.158l0.142,0.281V21.3l0.035,0.651v0.458l0.034,0.158v0.105
		v0.177v0.352v0.193v0.177l-0.034,0.281l0.069,0.229v0.563l0.035,0.229l0.035,0.281l-0.07,0.316l-0.069,0.37l0.246,0.546v0.141
		l-0.177,0.457l0.035,0.266l-0.035,0.281l-0.104,0.3l0.069,0.142l-0.069,0.352l-0.071,0.687l-0.07,0.44l-0.141,0.316l-0.194,0.404
		l-0.069,0.176l0.157,0.178l0.528,0.211l0.229,0.035h0.141l0.458,0.123h0.334l0.176,0.035l0.723,0.141h0.211l0.37-0.035l0.069-0.264
		V30.63l-0.405-0.458l-0.211-0.369l-0.104-0.687l0.035-0.247l0.069-0.896l0.035-0.371v-0.211l-0.035-0.104l0.035-0.335l-0.069-0.176
		l0.034-0.616l0.247-0.246l0.035-0.142l-0.211-0.404l0.035-0.316l0.176-0.404l-0.247-0.281v-0.177l-0.069-0.439v-0.687l-0.07-0.282
		l0.07-0.334v-0.388l0.069-0.246l-0.035-0.334l0.07-0.282l0.141-0.299v-0.282l-0.527,0.142l-0.229-0.071l-0.246-0.07l-0.281-0.176
		l-0.265-0.193l-0.211-0.212l-0.476-0.141L46.379,19.856z"/>
	<path d="M63.982,16.248l0.423,0.035h0.334l0.211,0.035l0.247,0.105l0.334,0.035l0.211,0.035l0.282,0.229l0.439,0.281l0.211,0.105
		l0.229,0.335l0.141,0.176l0.177,0.246l0.439,0.476l0.282,0.07l0.141-0.07l0.142-0.035l0.404-0.299l0.317-0.282l0.193-0.352
		l-0.089-0.265l0.194-0.457l0.211-0.159l0.317-0.105l0.722,0.194h0.159l0.422,0.211l0.07,0.141l0.141,0.07l0.299,0.105l0.317,0.265
		l0.141,0.035l0.299,0.035l0.177,0.105l0.546,0.211l0.352,0.176l0.142,0.071l0.229,0.123l0.353,0.035l0.299,0.07l0.211,0.035
		l0.247,0.176l0.299,0.07l0.141,0.212l0.105,0.193v0.211l-0.37,0.687l-0.246,0.105l-0.141,0.581l-0.177,0.176l-0.07,0.247
		l0.036,0.193l-0.124,0.388v0.141l-0.035,0.369l-0.035,1.303L74.104,23.5l0.176,0.247l-0.105,0.687l-0.034,0.369l-0.035,0.247
		l-0.106,0.177l0.035,0.615l0.141,0.581v0.246l0.142,0.405l-0.035,0.352v0.246l-0.141,0.688l0.034,0.3l0.035,0.211l-0.035,0.141
		l0.105,0.476l-0.141,0.212l0.104,0.142l0.07,0.105l0.035,0.475l0.124,0.282l0.757,0.438l0.316,0.317l-0.034,0.369l-0.212,0.353
		l-0.369,0.44l-0.282,0.034l-0.211,0.353l-0.405,0.405l-0.141,0.141l-0.105,0.581l0.07,0.281l0.176,0.335l0.106,0.211l-0.142,0.405
		l-0.246,0.28h-0.159l-0.458-0.035l-0.211-0.069L72.59,35.4l-0.316-0.266l-0.229-0.141l-0.247-0.316l-0.281-0.158l0.104-0.177
		l-0.211-0.423l-0.299,0.247l-0.247-0.317l-0.211-0.192l-0.916-0.353l-0.141-0.07l-0.142-0.035l-0.07-0.229l-0.141-0.105
		l-0.071-0.389l0.106-0.334l0.422-0.246l0.141-0.07l0.265-0.51l0.069-0.547v-0.933l0.177-0.035l-0.247-0.106v-0.475l0.069-0.316
		v-0.246l-0.104-0.193l-0.105-0.458l-0.034-0.141v-0.194l-0.089-0.141v-0.316l0.124-0.193V26.74l-0.07-0.176l-0.054-0.142v-0.405
		l0.194-0.315l0.035-0.229l-0.141-0.211V25.12l0.104-0.317l-0.07-0.229l-0.034-0.388l0.104-0.299v-0.105l0.035-0.211l0.035-0.616
		l0.035-0.177l0.247-0.615l0.176-0.651l0.299-0.282l-0.247-0.264l-0.158-0.141l-0.493-0.247l-0.264-0.141l-0.562-0.264l-0.158-0.142
		l-0.757-0.141l-0.389,0.177l-0.211,0.299v0.211l0.176,0.651l-0.104,0.282v0.176v0.229L67.5,22.268l-0.105,0.299l0.035,0.353
		l0.229,0.439l0.035,0.353l0.035,0.211l0.035,0.476l-0.07,0.404l0.035,0.563v0.229v0.422v0.44l-0.07,0.315l0.07,0.301v0.246v0.826
		l-0.07,0.317l0.035,0.193l-0.07,0.211l0.105,0.862v0.177l0.069,0.368l-0.034,0.547h0.141l0.211-0.053l0.405,0.157l0.282,0.282
		l0.034,0.211l-0.069,0.334l-0.177,0.247l-0.211,0.281l-0.65,0.511l-0.193,0.211l-0.105,0.123l-0.281,0.389l-0.106,0.476
		l-0.035,0.141l0.177,0.476l0.104,0.388L67.186,35.4l-0.211,0.211l-0.405,0.07l-0.317-0.035l-0.722-0.371l-0.405-0.28l-0.141-0.104
		l-0.07-0.177l-0.334-0.265l-0.387-0.352l-0.317-0.336l-0.439-0.316l-0.317-0.211l-0.405-0.105l-0.176-0.334l-0.07-0.423
		l0.282-0.229l0.282-0.316l0.088-0.211l0.105-0.299l0.069-0.178l0.106-0.51l0.035-0.177l0.069-0.246v-0.142l0.035-0.439
		l-0.069-0.141l0.034-0.582l0.07-0.245v-0.476v-0.246v-0.229l-0.104-0.177l0.141-0.281l-0.035-0.141l-0.104-0.758l0.034-0.369
		l0.07-1.181l-0.035-0.439l-0.035-0.546l0.177-0.581l-0.036-0.211V22.6l-0.105-0.439l-0.035-0.722l-0.034-0.282l-0.07-0.158
		l-0.106-0.282l-0.404-0.211l-0.317-0.141l-0.757-0.37l-0.211,0.035h-0.265l-0.176,0.142l-0.176,0.264l-0.035,0.281v0.177
		L60.884,21.3v0.177l-0.053,0.141v0.229l0.053,0.722l-0.053,0.141l0.124,0.493v0.335v0.141l0.07,0.281l-0.229,0.757l0.088,0.301
		l-0.088,0.211l0.035,0.211v0.58l0.053,0.211l-0.053,0.758l-0.035,0.229v0.211l-0.034,0.246l0.034,0.229l0.035,0.212v0.245v0.178
		v0.688v0.791l0.124,0.439L61.13,30.7l0.177,0.034l0.475,0.035l0.141,0.193l0.211,0.105l0.07,0.177l0.035,0.176l-0.105,0.404
		l-0.176,0.247l-0.282,0.334l-0.193,0.104l-0.176,0.177l-0.177,0.07l-0.334,0.246l-0.422,0.477l-0.104,0.511l0.211,0.387l0.07,0.581
		l-0.211,0.405l-0.334,0.245l-0.247,0.035l-0.176-0.069l-0.105-0.035l-0.405-0.104l-0.282-0.266l-0.299-0.176l-0.211-0.176
		l-0.247-0.301l-0.334-0.246l-0.141-0.069l-0.211-0.211l-0.792-0.546l-0.229-0.105l-0.528-0.3l-0.264-0.035l-0.211-0.246
		l-0.07-0.388l0.035-0.193l0.142-0.176l0.264-0.177l0.352-0.211l0.142-0.158l0.229-0.493l0.176-0.475l0.07-0.178l-0.104-0.141
		v-0.581l0.034-0.211l0.035-0.37v-0.316l0.07-0.404v-0.211l0.036-0.723l0.035-0.369l0.034,0.123l-0.176-0.476l-0.035-0.245
		l0.211-0.195l0.212,0.07v-0.387l-0.281-0.211l-0.071-0.229l-0.07-0.388l0.142-0.546l-0.036-0.388l0.071-0.722l-0.035-0.264
		l-0.036-0.281l-0.105-0.476l0.07-0.211l-0.104-0.212V21.37l-0.142-0.141l-0.124-0.176L56.008,21l-0.51-0.035l-0.316-0.176
		l-0.247-0.317l0.07-0.651l0.177-0.141l0.104-0.229l0.757-0.634l0.176-0.265l0.159-0.246l0.105-0.299l0.104-0.423l-0.104-0.281
		l-0.035-0.44l0.035-0.176l0.176-0.229l0.317-0.141h0.687l0.651,0.07l0.511,0.158l0.616,0.247l0.105,0.07l0.211,0.246l0.37,0.265
		l0.177,0.316L60.48,17.9l0.07,0.106l0.212,0.299l0.158,0.07l0.317,0.211l0.176,0.071h0.405l0.581-0.142l0.316-0.176l0.142-0.105
		l0.299-0.264l0.035-0.142l0.247-0.316v-0.141l-0.035-0.405l0.035-0.141l0.211-0.37L63.982,16.248z"/>
	<path d="M84.084,16.248l0.265,0.141l0.352,0.405l0.035,0.281l-0.105,0.476l0.07,0.316l0.229,0.265l0.141,0.281l0.141,0.105
		l0.177,0.212l0.546,0.193l0.722,0.281h0.352l0.3,0.105l0.826,0.142h1.181l0.158,0.035l0.492,0.035l0.3,0.158l0.141,0.246
		l-0.035,0.247l0.035,0.193l-0.141,0.211l-0.158,0.141L90,20.823l-0.211,0.439l-0.141,0.687l-0.07,0.317v0.211v1.127l-0.104,0.211
		l-0.035,0.176l0.104,0.229l-0.104,0.422l-0.054,0.299v0.211l0.089,0.512v0.141l0.069,0.105l-0.035,0.316l-0.034,0.687l0.069,0.405
		l-0.035,0.933v0.687l0.07,1.269l0.035,0.282v0.334l0.211,0.826l0.141,0.177l0.142,0.177l0.229,0.035l0.142,0.211l0.141,0.264v0.178
		l-0.07,0.281l-0.176,0.192l-0.176,0.212h-0.229l-0.422,0.105l-0.264,0.104l-0.211,0.104l-0.142,0.158l-0.861,0.459l-0.265,0.176
		l-0.141,0.193l-0.282,0.281l-0.404,0.246L86.725,35.4l-0.405,0.176l-0.422,0.105l-0.265,0.034l-0.211-0.034l-0.352-0.07
		l-0.229-0.282l-0.105-0.3l0.035-0.545l0.159-0.211l0.247-0.246l0.034-0.37l-0.069-0.246L85,33.234l-0.069-0.105l-0.758-0.334
		l-0.369,0.035l-0.282,0.07l-0.265,0.192l-0.247,0.423l-0.176,0.035l-0.069,0.334l-0.071,0.282v0.246v0.229l-0.088,0.422v0.404
		v0.281l-0.035,0.581l0.07,0.827l0.088,0.141v0.335l0.141,0.687l0.141,0.316l0.071,0.317l0.211,0.299l0.44,0.353l0.282,0.334
		l0.105,0.317l-0.105,0.476l-0.458,0.246l-0.194,0.142l-0.528-0.035h-0.229l-0.353-0.142l-0.246-0.034l-0.404-0.282l-0.281-0.193
		l-0.141-0.141l-0.193-0.07L80.424,39.5l-0.334-0.141l-0.104,0.035l-0.106,0.353l-0.069,0.192l-0.37,0.897l-0.422,0.581
		l-0.194,0.141l-0.105,0.143l-0.176,0.105l-0.141,0.104l-0.545,0.141l-0.176,0.054h-0.405l-0.211-0.088l-0.211-0.035l-0.142-0.07
		l-0.404-0.458l-0.035-0.545l0.176-0.511l0.299-0.389l0.176-0.07l0.105-0.104l0.247-0.192l0.405-0.105l0.246-0.247l0.142-0.334
		l0.229-0.792l0.07-0.458l0.035-0.915l0.104-0.634l0.071-0.951l-0.071-0.353l-0.034-0.369l0.034-0.142l-0.069-0.352l0.105-0.37
		l0.035-0.316l0.07-0.334V32.83l-0.07-0.246l-0.035-0.969v-0.193L78.434,30.7l-0.035-0.247l0.035-0.352l0.035-0.193l0.07-0.143
		l0.035-0.686l0.035-0.212l-0.106-0.897l0.036-0.229l0.211-0.035l-0.141-0.071l-0.176-0.422v-0.403l0.035-0.177l0.034-0.176
		l-0.034-0.722l0.034-0.37l-0.034-0.827l0.07-0.211l-0.036-0.247v-0.193l0.071-0.316l-0.035-0.758l-0.036-0.722l0.036-0.334
		l-0.07-0.704l-0.177-0.722l-0.104-0.158L78.1,20.032l-0.142-0.105l-0.458-0.316L77.342,19.1l0.089-0.246l0.211-0.265l0.104-0.07
		l0.616-0.105l0.546-0.07l0.633-0.176l0.688-0.335l0.476-0.281l0.142-0.035l0.404-0.3l0.176-0.141l0.546-0.246l0.246-0.176
		l0.616-0.265l0.142-0.07h0.176l0.334-0.07L84.084,16.248L84.084,16.248z M85.211,20.068h-0.247l-0.229,0.07l-0.246,0.035
		l-0.141,0.158l-0.229,0.07l-0.176,0.035l-0.142,0.07l-0.316,0.07h-0.229l-0.176,0.105l-0.176,0.035l-0.37,0.106l0.105,0.475v0.142
		l0.088,1.918v0.423l0.035,0.476l0.104,0.176l-0.035,0.281l-0.141,0.229l0.036,0.281l0.069,0.105l0.07,0.229l-0.104,0.282v0.315
		l0.069,0.195v0.315l0.035,0.211l0.035,0.194l0.104,1.725v0.354l-0.069,0.615l-0.105,0.476l-0.035,0.211l-0.069,0.142l-0.088,0.176
		l0.193,0.369h0.493l0.229-0.035l0.176-0.069l0.476-0.105l0.282-0.034l0.211-0.035h0.176h0.193l0.211-0.088l0.405,0.088l0.141,0.035
		l0.281,0.211h0.211v-0.142L86.285,30.7l-0.387-0.563l-0.176-0.193l-0.3-0.633l-0.069-0.266l0.035-0.141l-0.105-0.211l-0.07-0.299
		l0.07-0.898l0.105-0.035l0.176-0.07l-0.282-0.369l-0.07-0.142l0.07-0.862l-0.07-0.141l-0.035-1.408l0.105-0.651v-0.176v-0.317
		l0.035-0.264l-0.035-0.176l0.07-1.69l0.104-0.404l0.071-0.247l-0.035-0.141L85.211,20.068z"/>
	<path d="M98.466,16.143h0.211l0.477,0.105l0.545,0.246l0.651,0.405l0.458,0.405l0.264,0.105l0.211,0.281l0.247,0.035l0.104,0.211
		l0.265,0.194l0.65,0.211l0.177,0.141l0.247,0.07l0.141-0.035h0.229l0.353,0.07l0.334,0.071h0.282l0.211,0.158l0.141,0.246v0.281
		l-0.105,0.335l-0.281,0.316l-0.176,0.546l-0.035,0.176l-0.035,0.247v1.161l-0.088,0.581l0.053,0.247l-0.053,0.316l0.088,0.581
		l-0.035,0.827l0.035,0.229v0.898l-0.124,0.281l0.036,0.723v0.334l0.053,0.176l0.176,0.177l0.035,0.141v0.476l-0.035,0.424
		l0.07,0.229l0.071,0.176v0.44l0.035,0.246l0.034,0.687l0.105,0.178l0.211,0.07h0.158l0.176,0.034h0.176h0.247l0.37,0.3v0.492
		l-0.035,0.141l-0.141,0.265l-0.193,0.317l-0.282,0.369l-0.141-0.035l-0.106,0.177l-0.141,0.176l-0.158,0.177l-0.211,0.157
		l-0.035,0.142l-0.141,0.105l-0.246,0.176l-0.159,0.211l-0.035,0.301l0.035,0.141l0.106,0.141l0.192,0.405v-0.142l-0.104,0.668
		l-0.264,0.301l-0.211,0.07l-0.476,0.035l-0.493-0.142l-0.476-0.142l-0.246-0.123l-0.44-0.211v-0.142l-0.861-0.581l-0.176-0.246
		l-0.229-0.177l-0.352-0.334l-0.37-0.246l-0.177-0.247l-0.211-0.158L98.73,32.83l-0.265,0.035l-0.422,0.264l-0.088,0.212
		l-0.069,0.757l0.404,0.422l0.106,0.405l-0.142,0.404l-0.581,0.212l-0.423,0.07l-0.37-0.035l-0.65-0.247l-0.493-0.193l-0.088-0.141
		l-0.247-0.281l-0.211-0.229l-0.37-0.245l-0.176-0.177l-0.211-0.069l-0.105-0.177l-0.475-0.299l-0.176-0.07h-0.581l-0.142-0.07
		h-0.211l-0.264-0.212l-0.071-0.123l-0.104-0.246l0.104-0.423l0.211-0.264l0.158-0.105l0.282-0.281l0.211-0.334l0.104-0.283v-0.141
		v-0.229l0.124-0.354v-0.316l-0.088-0.192l-0.035-0.458l0.07-0.193l0.088-0.177v-0.28l-0.088-0.177l-0.035-0.44l0.035-0.104
		l0.053-0.176l0.035-0.265l-0.035-1.108l-0.299-0.476v-0.316l0.176-0.229l0.265-0.211l0.141-0.07l0.511-0.07l0.563-0.07l0.159,0.035
		l0.492-0.07l0.142-0.069l0.193-0.036l0.246-0.035h0.44h0.176l0.142-0.035l0.581-0.264l0.176-0.141h0.439l0.353-0.247l0.37-0.264
		l0.28-0.352l0.106-0.546l0.104-0.282V22.57v-0.158l0.229-0.458l-0.053-0.475l-0.071-0.317l-0.176-0.334l-0.581-0.616l-0.246-0.105
		l-0.211-0.106h-0.334l-0.493-0.281l-0.37-0.105H96.67l-0.615,0.105l-0.616,0.493l-0.142,0.264v0.353v0.369l0.105,0.247l0.176,0.07
		l0.44-0.142h0.141l0.141,0.071l0.334,0.035l0.458,0.369l0.035,0.141l0.035,0.141l0.035,0.353l-0.035,0.581l-0.176,0.334
		l-0.317,0.317l-0.511,0.246l-0.387,0.07h-0.44l-0.316-0.07l-0.334-0.141l-0.353-0.105l-0.475-0.476l-0.211-0.246v-0.212
		l-0.035-0.141l-0.159-0.07l-0.035-0.404l-0.104-0.405l0.034-0.528l0.035-0.176V20.79l0.159-0.423l0.035-0.299l0.598-0.863
		l0.088-0.211l0.282-0.229l0.687-0.388l0.247-0.141l0.615-0.176l0.353-0.229l0.616-0.211l0.334-0.37l0.034-0.105l0.07-0.246
		l0.07-0.316l0.439-0.335L98.466,16.143z M99.733,25.4l-0.405,0.266l-0.282,0.176l-0.315,0.07h-0.229l-0.316,0.141l-0.229,0.211
		l-0.176-0.035h-0.211l-0.211,0.194l0.035,0.246l0.035,0.246l0.069,0.335l0.105,1.038l0.035,0.177l-0.105,0.264l0.035,0.424
		l-0.07,1.056v0.388l-0.334,0.334l0.299,0.035L97.673,31h0.44l0.211,0.035L98.535,31l0.688,0.035l0.369,0.07l0.423,0.105
		l-0.105-0.247l-0.104-0.141l-0.177-2.781l-0.104-0.581l0.141-0.352L99.733,25.4z"/>
	<path d="M114.661,16.354h0.476l0.562,0.229l0.123,0.176l0.247,0.07l0.282,0.105l0.264,0.211l0.211,0.035l0.176,0.07l0.334,0.265
		l0.281,0.246l0.546,0.335l0.581,0.176l1.039,0.105l0.211,0.07l0.035,0.141l0.405,0.142l0.035,0.264l-0.035,0.423l-0.334,0.475
		l-0.211,0.581l-0.105,0.458l-0.035,0.334v0.282v0.439l-0.036,0.212l-0.069,0.58l0.035,0.212l0.034,0.581l-0.034,0.246l-0.265,0.687
		v0.141l-0.035,0.229l0.07,0.177v0.141v0.142l-0.106,0.827l0.106,0.105v0.545l0.088,0.862l0.07,0.335v0.281v0.439v0.142
		l-0.035,0.353v0.334v0.282l0.104,0.334l0.035,0.142l0.211,0.211l0.07,0.142l0.176,0.192l1.091,0.354l0.142,0.369l-0.035,0.389
		l-0.352,0.28l-0.37,0.229l-0.282,0.177l-0.229,0.176l-0.352,0.104l-0.44,0.512l-0.245,0.511l0.034,0.211l0.105,0.281v0.194
		l0.07,0.211l0.07,0.352l-0.07,0.229l-0.211,0.246l-0.353,0.142h-0.405l-0.211-0.104l-0.299-0.177l-0.247-0.104l-0.176-0.07
		l-0.229-0.266l-0.176-0.104l-0.176-0.246l-0.405-0.104l-0.035-0.336l-0.281-0.352l-0.177-0.143l-0.141-0.123l-0.229-0.141
		l-0.317-0.104l-0.211-0.104l-0.334-0.248l-0.105-0.369l0.035-0.281l0.44-0.404l0.176-0.105l0.211-0.353v-0.158l0.035-0.458
		l0.035-0.299l-0.07-0.141v-0.143l-0.035-0.281v-0.369l-0.104-0.793l0.035-0.438l-0.07-0.142l0.035-0.65l-0.035-0.105l-0.07-0.211
		v-0.176l0.07-0.266l0.035-0.141l0.035-0.211l0.034-0.211l0.177-0.125l-0.211-0.035v-0.526l0.034-0.229l0.035-0.492l0.035-0.176
		l-0.035-0.37l0.035-0.176l-0.07-0.265l0.07-0.316l0.035-0.44l-0.035-0.211l0.07-0.282l0.229-1.056l0.07-0.317l0.211-0.141
		l-0.37-0.105l-0.282-0.158l-0.387-0.211l-0.229-0.177l-0.246-0.176h-0.142l-0.299-0.158l-0.458-0.317l-0.37-0.105l-0.546-0.07
		l-0.211,0.105l-0.105,0.247l0.035,0.193l0.177,0.316l0.157,0.212l0.071,0.264l0.035,0.211l0.07,0.458l0.034,0.915v0.105
		l0.035,0.142l-0.035,0.211l0.07,0.264v0.493l-0.035,0.335l-0.141,0.141l-0.229,0.105l0.229,0.141l0.035,0.192l0.141,0.758
		l0.035,0.353l0.036,0.246l0.035,0.265l-0.071,0.246l0.036,0.211l0.035,0.194v0.211l-0.035,0.142l-0.036,0.439v0.246l0.036,0.581
		l-0.176,0.792l-0.105,0.423l-0.194,0.229l-0.069,0.246v0.281l0.192,0.105l0.247,0.053l0.422,0.105l0.265,0.035l0.211,0.069
		l0.334,0.247v0.475l-0.124,0.317l-0.141,0.176l-0.388,0.44l-0.616,0.438l-0.104,0.142l-0.229,0.07l-0.176,0.51l-0.211,0.248
		l0.176,0.315l0.035,0.104l0.142,0.266l-0.035,0.457l-0.211,0.229l-0.688,0.211l-0.246-0.069l-0.37-0.142l-0.211-0.104l-0.247-0.335
		l-0.334-0.211l-0.458-0.301l-0.229-0.352l-0.141-0.105l-0.247-0.104l-0.334-0.265l-0.282-0.141h-0.176l-0.334-0.105l-0.142-0.07
		l-0.176-0.105l-0.176-0.176l-0.071-0.193l0.035-0.424l0.105-0.229l0.317-0.281l0.246-0.142l0.299-0.757l0.035-0.51l-0.035-0.248
		l0.035-0.438l0.106-0.177V29.49l-0.035-0.176l0.069-0.301l-0.034-0.246v-0.229l0.034-0.141l-0.105-0.317v-0.44l0.176-0.457v-0.511
		c0-0.116-0.012-0.198-0.035-0.246l0.035-0.159v-0.281l-0.104-0.176l0.069-0.369l0.035-0.934v-0.581l-0.035-0.176V23.43
		l-0.035-0.229l-0.034-0.141l-0.071-0.211v-0.142l0.036-0.141l0.069-0.158l-0.034-0.246l0.034-0.177L108.5,21.3l-0.968-0.035
		l-0.158-0.035l-0.458-0.334l-0.105-0.423l0.211-0.546l0.211-0.246l0.141-0.035l0.229-0.264l0.211-0.247l0.247-0.281l0.334-0.335
		l-0.035-0.141l0.07-0.105l0.069-0.141v-0.158l-0.035-0.142l-0.034-0.141l-0.07-0.387l0.035-0.335l0.422-0.476l0.229-0.07
		l0.105,0.07l0.65,0.053l0.142,0.036l0.282,0.07l0.264,0.035l0.634,0.246h0.193l0.423,0.281l0.211,0.159l0.264,0.281l0.211,0.246
		l0.177,0.229l0.264,0.246l0.176,0.035l0.477-0.07l0.527-0.476l0.194-0.352l0.035-0.141l-0.159-0.37l0.124-0.422L114.661,16.354z"/>
	<path d="M124.642,16.459l0.176-0.035l0.475,0.159l0.211,0.035l0.512,0.176l0.211,0.246l0.404,0.265l0.071,0.176l0.458,0.422
		l0.334,0.229l0.282,0.316l0.51,0.282l0.211,0.088l0.176,0.035l0.3,0.316l-0.035,0.44l-0.229,0.387l-0.211,0.212l-0.211,0.193
		l-0.07,0.105l-0.069,0.247v0.211V21.3l0.035,0.458l0.069,0.687l0.035,1.813v0.141l-0.141,0.439l0.035,0.389l0.176,0.334v0.211
		l-0.105,0.246l0.035,0.142l0.07,0.722v0.194l-0.07,0.526l0.035,0.229l-0.035,0.28l0.035,0.828l-0.105,0.687l-0.069,0.317
		l-0.299,0.687l0.475,0.07l0.352,0.034l0.477,0.158l0.51,0.07l0.387,0.105h0.211l0.193,0.035l0.458-0.035v-0.334l-0.071-0.424
		l-0.246-0.58l-0.069-0.688v-0.281v-0.476l0.069-0.687l-0.034-0.353v-0.335l0.245-0.246l0.071-0.176l-0.105-0.301l-0.142-0.791
		v-0.457l0.142-0.037l-0.105-0.474l0.035-0.511l-0.141-0.176v-0.546l0.176-0.352v-0.106l-0.07-0.58l0.035-0.212l-0.07-0.105
		l-0.247-0.193l-0.264-0.176l-0.211-0.106l-0.317-0.316L129.5,20.86l0.054-0.687l0.211-0.177l0.211-0.211l0.176-0.299l0.159-0.105
		l0.599-0.563l0.158-0.194l0.07-0.211v-0.281l-0.035-0.335l-0.123-0.352l-0.035-0.229l0.158-0.281l0.387-0.281l0.247-0.07
		l0.229,0.07l0.317,0.07l0.176,0.07l0.194,0.211v0.105l0.141,0.035l0.458,0.3l0.477,0.387l0.211,0.177l0.193,0.193l0.388,0.211
		l0.51,0.282l0.211,0.07l0.176,0.088l0.476,0.211l0.069,0.141l0.105,0.282l-0.035,0.369l-0.281,0.282l-0.405,0.334l-0.069,0.141
		l-0.105,0.282l-0.069,0.862l0.104,0.193v0.317l-0.07,0.211l-0.034,0.37l-0.142,0.51l0.07,0.669l-0.211,0.335l-0.194,0.211
		l0.194,0.069l0.069,0.301v0.527l0.07,0.229l0.035,0.141v0.211l-0.035,0.335v0.212l-0.07,0.58l0.035,0.211l0.035,0.389l-0.035,0.264
		v1.039l0.035,0.141v0.616l-0.192,0.177l-0.106,0.334l0.405,0.142l0.141,0.51l0.07,0.142l0.405,0.387l0.141,0.158l0.246,0.424
		l0.211,0.438l0.088,0.247l0.071,0.176l-0.106,1.197l0.07,0.141l-0.035,0.299l-0.193,0.67l-0.247,0.476l-0.034,0.282l-0.247,0.404
		l-0.07,0.141l-0.405,0.404l-0.281,0.177l-0.193,0.176l-0.142,0.035l-0.65,0.511l-0.353,0.035l-0.687,0.405l-0.405,0.176
		l-0.634,0.317l-0.264,0.069l-0.282,0.07l-0.299,0.123l-0.422,0.211l-0.3,0.104l-0.703,0.317l-0.334,0.192l-0.212,0.142
		l-0.369,0.317l-0.105,0.176l-0.07,0.264l0.07,0.424v0.229l-0.211,0.423l-0.475,0.334h-0.458l-0.159-0.069l-0.528-0.123
		l-0.722-0.316l-0.334-0.178l-0.142-0.104l-0.211-0.123l-0.176-0.141l-0.439-0.246l-0.212-0.282l-0.369-0.193l-0.353-0.353
		l-0.546-0.369l-0.176-0.141l-0.211-0.106l-0.334-0.105l-0.317-0.104l-0.334-0.264l-0.316-0.07l-0.142-0.069l-0.334-0.071
		l-0.757-0.212l-0.176-0.034l-0.37,0.034l-0.316,0.105l-0.247,0.178l-0.193,0.334v0.315l0.264,0.282l0.493-0.105h0.159l0.211-0.07
		l0.246,0.035h0.141l0.229,0.105l0.282,0.546v0.476l-0.069,0.353l-0.142,0.142l-0.105,0.192l-0.334,0.247l-0.105,0.141l-0.176,0.035
		l-0.142,0.07l-0.404,0.07l-0.282-0.035l-0.299-0.105l-0.422-0.176l-0.862-0.616l-0.159-0.353l-0.104-0.299l-0.106-0.248
		l-0.035-0.352l-0.035-0.264v-0.178l-0.034-0.211l0.141-0.791l0.176-0.301l0.265-0.545l0.141-0.105l0.211-0.211l0.264-0.142
		l0.388-0.245l0.176-0.125l0.546-0.176l0.246-0.035l0.159-0.035h0.492l0.194-0.035l0.176,0.07h0.211l0.547,0.035l0.176,0.105
		l0.404,0.07l0.106-0.142l0.07-0.492l0.246-0.476l0.07-0.141l0.616-0.371l0.898,0.035l0.985,0.512l-0.158,0.035l0.369,0.211
		l0.142,0.104l0.247,0.124l0.157,0.246l0.212,0.035l0.387,0.353l0.65,0.615l0.3,0.142l0.246,0.123l0.316,0.176l0.405,0.105
		l0.387,0.07h0.334h0.423l0.37-0.211l0.281-0.07l0.299-0.229l0.353-0.178l0.211-0.246l0.334-0.439l0.475-0.651l0.07-0.634
		l0.036-0.158l-0.071-0.527l-0.088-0.334l-0.105-0.105l-0.141-0.316l-0.141-0.123l-0.177-0.035l-0.193-0.177l0.053-0.141
		l-0.158-0.035l-0.282-0.142l-0.581-0.193l-0.247-0.035l-0.211,0.088l-0.511-0.053l-0.37,0.404l-0.28,0.246l-0.212,0.688
		l0.212,0.405l-0.071,0.387l-0.405,0.44l-0.211,0.07l-0.247-0.07l-0.299-0.07h-0.141l-0.493-0.3l-0.581-0.316l-0.37-0.28
		l-0.422-0.405l-0.229-0.105l-0.247-0.212l-0.422-0.264l-0.193-0.105l-0.247-0.07l-0.37-0.141h-0.176l-0.353-0.246l-0.035-0.652
		l0.07-0.192l0.211-0.28l0.511-0.354l0.176-0.439l0.106-1.654l-0.106-0.477l0.071-0.861l-0.035-0.439l0.035-0.669l-0.071-0.229
		l-0.069-0.211v-0.104l0.035-0.142l0.141-0.3V25.88v-0.282l-0.035-0.229l-0.176-0.352l0.035-0.213v-0.369l0.141-0.282l0.035-0.264
		l0.035-0.176l-0.035-0.353v-0.51l-0.141-0.37v-0.246l-0.142-0.353l-0.581-0.546l-0.316-0.141l-0.229-0.07l-0.141-0.334V20.21
		l0.282-0.353l0.511-0.439l0.439-0.423l0.142-0.141l0.211-0.193l0.141-0.071l0.035-0.141l0.088-0.281l-0.193-0.37l-0.07-0.387
		l0.035-0.229l0.069-0.211L124.642,16.459z"/>
	<path d="M141.153,16.354h0.141h0.299l0.353,0.265l0.105,0.176l0.3,0.422l0.104,0.335l0.247,0.141l0.035,0.176l0.141,0.106
		l0.194,0.264l0.422,0.352l0.105,0.142l0.193,0.088l0.176,0.141l0.282,0.458v0.334l-0.352,0.423l-0.476,0.299l-0.247,0.246
		l-0.264,0.212l-0.07,0.158l-0.069,0.281l0.035,0.212l-0.035,0.299l-0.07,0.176l-0.282,0.317l-0.37,0.141l-0.141,0.053l-0.176-0.053
		l-0.142-0.035l-0.757-0.669l-0.141-0.44l-0.688-0.51l-0.264-0.142l-0.247-0.246l-0.334-0.105l-0.352-0.511l-0.07-0.439l0.141-0.247
		l0.177-0.246l0.229-0.264l0.141-0.071l0.317-0.246l0.299-0.246l0.247-0.37l-0.071-0.352l0.036-0.194l0.07-0.141l0.07-0.246
		l0.176-0.211L141.153,16.354z M141.153,29.484h0.141h0.299l0.353,0.246l0.105,0.178l0.3,0.439l0.104,0.316l0.247,0.158l0.035,0.211
		l0.141,0.07l0.194,0.246l0.422,0.369l0.105,0.143l0.193,0.07l0.176,0.141l0.282,0.475v0.317l-0.352,0.44l-0.476,0.28l-0.247,0.299
		l-0.264,0.212l-0.07,0.105l-0.069,0.281l0.035,0.229l-0.035,0.281l-0.07,0.176l-0.282,0.335l-0.37,0.142l-0.141,0.035l-0.176-0.035
		l-0.142-0.035l-0.757-0.688l-0.141-0.439l-0.688-0.492l-0.264-0.143l-0.247-0.264l-0.334-0.105l-0.352-0.511l-0.07-0.423
		l0.141-0.264l0.177-0.246l0.229-0.247l0.141-0.07l0.317-0.264l0.299-0.246l0.247-0.353l-0.071-0.369l0.036-0.178l0.07-0.141
		l0.07-0.264l0.176-0.213L141.153,29.484z"/>
</g>
<path fill="#077A81" d="M170.837,13.534l2.799,5.738l6.395,0.985l-4.688,4.391l1.021,6.285l-5.695-3.027l-5.762,2.896l1.166-6.26
	l-4.582-4.495l6.416-0.842L170.837,13.534z"/>
</svg>
