<?xml version="1.0" encoding="utf-8"?>
<!-- Generator: Adobe Illustrator 16.0.0, SVG Export Plug-In . SVG Version: 6.00 Build 0)  -->
<!DOCTYPE svg PUBLIC "-//W3C//DTD SVG 1.1//EN" "http://www.w3.org/Graphics/SVG/1.1/DTD/svg11.dtd">
<svg version="1.1" id="Layer_1" xmlns="http://www.w3.org/2000/svg" xmlns:xlink="http://www.w3.org/1999/xlink" x="0px" y="0px"
	 width="180.088px" height="48px" viewBox="0 0 180.088 48" enable-background="new 0 0 180.088 48" xml:space="preserve">
<g>
	<path d="M81.582,12.091l0.511,0.07l0.177,0.035l0.157,0.105l0.142,0.317L82.532,13.2l-0.334,0.581l-0.422,0.316l0.104,0.299
		l-0.334,0.616l-0.069,0.282L81.3,15.77l-0.069,0.142l-0.07,0.211l-0.035,0.176l-0.035,0.193l-0.07,0.793l-0.035,0.968l-0.158,0.281
		l0.158,0.229v0.792l-0.334,0.687l-0.246,0.211l-0.176,0.07l-0.229,0.035l-0.246-0.035l-0.176-0.035l-0.193-0.07l-0.105-0.176
		L79.1,20.048l-0.105-0.353v-0.141l-0.036-0.193v-0.177l-0.069-0.176l-0.07-0.176l-0.07-0.229l-0.035-0.281v-0.211l-0.088-0.265
		l-0.105-0.141l-0.035-0.387l0.07-0.335l-0.353-0.141l-0.035-0.581l-0.299-0.352l-0.104-0.265l-0.212-0.281l-0.176-0.07L77.11,15.26
		l-0.353-0.142l-0.104-0.193l-0.141-0.07l-0.3-0.141l-0.352-0.141h-0.176h-0.37l-0.757-0.07l-0.177,0.211l-0.369-0.141l-0.212,0.035
		l-0.246,0.035l-0.3,0.105l-0.211,0.105l-0.51,0.193l-0.317,0.177l-0.247,0.141l-0.122,0.141L71.6,15.769l-0.105,0.177l-0.282,0.141
		l-0.123,0.281l-0.069,0.158l-0.282,0.458l-0.141,0.335l-0.035,0.211l-0.07,0.176l-0.334,1.092l-0.141,0.035l0.104,0.352
		l-0.211,0.722v0.105l-0.141,0.265l0.211,0.246l-0.035,0.317l-0.036,0.193l0.036,0.388l-0.282,0.141l-0.194,0.404l0.229,0.212
		l0.141-0.035h0.282l0.247-0.035h1.848h0.282l0.44-0.036l0.247,0.036l0.722-0.036l0.07,0.177l0.193-0.141h0.758l0.387-0.247
		l-0.211,0.282l0.316-0.071l0.37-0.404l0.176-0.176l0.212-0.282l0.264-0.369l0.528-0.388l0.141-0.035l0.334-0.035l0.352,0.176
		l0.229,0.405v0.422l-0.035,0.106l-0.035,0.229l-0.088,0.211l-0.07,0.212l-0.034,0.246l-0.07,0.123l-0.142,0.141v0.247l0.071,0.545
		l0.142,1.145l-0.247,0.193l0.141,0.599l0.07,0.512l0.37,0.334l-0.035,0.527l-0.035,0.229l-0.194,0.705l-0.352,0.475l-0.545,0.212
		l-0.458-0.247l-0.193-0.176l-0.211-0.211l0.035-0.194l-0.07-0.246l-0.035-0.546l-0.247-0.211l-0.157-0.141l-0.211-0.143
		l-0.423-0.229l-0.687-0.141l-0.986-0.07l-0.247,0.035l-0.757-0.07l-0.104,0.035h-0.37l-0.422,0.07l-0.3-0.035h-0.176h-0.28h-0.142
		l-0.158,0.069l-0.316-0.034l-0.106-0.211l-0.069,0.315v0.3l-0.035,0.176l0.035,0.547l0.176,0.211l-0.035,0.968v0.44l0.176,0.176
		l-0.176,0.934h0.176l0.035,0.229l0.106,0.388l0.157,0.177l0.035,0.299l0.07,0.317l0.071,0.245l0.104,0.334l0.141,0.424l0.035,0.193
		l0.106,0.281l0.158,0.404l0.176,0.212l0.281,0.422l0.247,0.335l0.299,0.141l0.247,0.211l1.267,0.547l0.211-0.035l0.141,0.07h0.265
		l0.247-0.035l0.141-0.035l0.229-0.035l0.422-0.176l0.211-0.229h0.192l0.247-0.035l0.247-0.211l0.193-0.035l0.317-0.317l0.211-0.229
		l0.299-0.315l0.035-0.282l0.176-0.264l0.476-0.424l0.105-0.299l0.141-0.65l0.142-0.141l0.141-0.106l0.334-0.827l0.211-1.003
		l0.07-0.3L79.35,28.2l0.229-0.104l0.176-0.142l0.282-0.07l0.299-0.069l0.142,0.104l0.281,0.07L80.9,28.13l0.193,0.405l0.07,0.176
		l0.035,0.246l0.07,0.177l0.03,0.296v0.354l0.035,0.229L81.3,30.257l0.035,0.282l-0.069,0.193L81.3,31.26l0.07,0.229l0.106,0.599
		l-0.07,0.158l-0.071,0.934l0.035,0.176l0.071,0.246l0.07,0.477l0.034,0.211l0.035,0.264l0.035,0.424l0.194,0.51l0.069,0.758
		l0.211-0.07l0.142,0.141l0.104,0.617l0.159,0.28l0.211,0.247h0.616l1.25,0.475l0.123,0.105l0.247,0.615v0.582l-0.211,0.511
		l-0.264,0.28l-0.281,0.07l-0.247-0.211l0.035,0.141v0.178l-0.194,0.141l-0.246,0.105l-0.176-0.07l-0.334,0.035l-0.422,0.035
		l-0.229-0.141l-0.722-0.354l-0.211-0.211l-0.176-0.088l-0.405-0.635L80.754,38.9l-0.105-0.178l-0.211-0.352l-0.37-0.95
		l-0.071-0.458l-0.104-0.141V36.7l-0.142-0.282l-0.069-0.352l-0.106-0.651l-0.105-0.476l-0.58-0.035h-0.142l-0.123,0.141
		l-0.634,0.581l-0.722,0.44l-0.334,0.141l-0.177,0.105l-0.51,0.141l-0.141,0.07l-0.211,0.141l-0.211-0.035l-0.3,0.035l-0.211,0.124
		l-0.933,0.069l-0.299-0.034h-0.247l-0.211,0.034h-0.229l-0.897-0.104L71.777,36.7l-0.599-0.142l-0.193-0.07l-0.317-0.07
		l-0.141-0.105l-0.229,0.07l-0.757-0.281l-0.316-0.158l-0.281-0.105l-0.159-0.105l-0.211-0.104l-0.211-0.142l-1.232-0.861
		l-0.352-0.143l-0.07-0.65l-0.334,0.177l-0.352-0.44l-0.299-0.28l-0.07-0.212l0.07-0.264l-0.142-0.389l-0.387-0.176l0.07-0.264
		l-0.035-0.213h-0.123l-0.211-0.141l-0.458-0.949l-0.229-0.635l-0.176-0.229l-0.071-0.213l-0.035-0.403l0.035-0.247l-0.069-0.176
		l-0.035-0.211l-0.035-0.229l-0.141-0.315l-0.054-0.281v-0.194l-0.035-0.211l-0.034-0.176l0.034-0.142l0.035-0.193l-0.069-0.141
		l-0.317-0.688l-0.035-0.246l-0.069-0.335l-0.035-0.142l-0.07-0.387l-0.229-0.193l-0.104-0.246l-0.211-0.353l0.035-0.264
		l0.282-0.388l0.122-0.141l0.142-0.264l0.282-0.616l0.246-0.827l0.158-0.282l0.282-0.475v-0.282l0.035-0.316l0.141-0.405l0.07-0.176
		l0.159-0.299v-0.212l0.493-1.038l-0.07-0.194l0.334-0.211l0.141-0.07l0.142-0.423V17.09l0.281-0.457l0.158-0.405l0.422-0.141
		l0.142-0.141l0.141-0.37l0.194-0.246l0.176-0.212l0.211-0.264l0.37-0.246l0.141-0.07l0.317-0.247l0.299-0.264l0.211-0.035
		l0.511-0.317l0.352-0.105l0.176-0.07l0.299-0.229l0.424-0.07l0.157-0.142l1.145-0.246l1.039-0.229l0.229-0.035h0.142l0.316-0.035
		l0.792-0.035l0.688,0.035l0.404,0.035l0.282,0.035h0.229l0.176,0.035l0.246,0.035l0.37,0.158l0.316,0.105l0.142-0.035h0.104
		l0.159,0.035l0.07,0.177l0.615,0.176l0.212,0.07l0.141,0.123l0.211,0.07l0.581,0.388h0.104l0.37-0.035l0.493-0.353l0.229-0.299
		l0.176-0.317l0.352-0.404l0.229-0.105l0.176-0.177L81.582,12.091z"/>
	<path d="M92.917,16.914l0.423,0.035h0.334l0.211,0.035l0.247,0.105l0.334,0.035l0.211,0.035l0.282,0.229l0.44,0.281l0.211,0.105
		l0.229,0.335l0.142,0.176l0.176,0.246l0.44,0.476l0.281,0.07l0.142-0.07l0.141-0.035l0.405-0.299l0.316-0.282l0.193-0.352
		l-0.088-0.265l0.194-0.457l0.211-0.159l0.316-0.105l0.723,0.194h0.158l0.423,0.211l0.069,0.141l0.142,0.07l0.299,0.105l0.316,0.265
		l0.142,0.035l0.299,0.035l0.176,0.105l0.546,0.211l0.353,0.176l0.141,0.071l0.229,0.123l0.352,0.035l0.299,0.07l0.211,0.035
		l0.247,0.176l0.299,0.07l0.142,0.212l0.104,0.193v0.211l-0.37,0.687l-0.246,0.105l-0.141,0.581l-0.176,0.176l-0.071,0.247
		l0.036,0.193l-0.124,0.388v0.141l-0.035,0.369l-0.035,1.303l-0.176,0.176l0.176,0.247L103.11,25.1l-0.035,0.369l-0.035,0.247
		l-0.105,0.177l0.034,0.615l0.142,0.581v0.246l0.141,0.405l-0.035,0.352v0.246l-0.141,0.688l0.035,0.3l0.035,0.211l-0.035,0.141
		l0.104,0.476l-0.141,0.212l0.105,0.142l0.069,0.105l0.035,0.475l0.124,0.282l0.757,0.438l0.317,0.317l-0.035,0.369l-0.211,0.353
		l-0.37,0.44l-0.282,0.034l-0.211,0.353l-0.405,0.405l-0.141,0.141l-0.104,0.581l0.069,0.281l0.176,0.335l0.106,0.211l-0.141,0.405
		l-0.246,0.28h-0.159l-0.458-0.035l-0.211-0.069l-0.334-0.142l-0.317-0.265l-0.229-0.141l-0.247-0.315l-0.282-0.16l0.105-0.176
		l-0.211-0.423l-0.3,0.247L99.8,34.518l-0.211-0.193l-0.916-0.352l-0.14-0.072l-0.141-0.035l-0.07-0.229l-0.141-0.104l-0.071-0.389
		l0.105-0.334l0.423-0.246l0.141-0.07l0.264-0.51l0.07-0.547v-0.933l0.176-0.035l-0.247-0.106v-0.475l0.07-0.316v-0.246
		l-0.105-0.193l-0.104-0.458l-0.035-0.141v-0.194l-0.088-0.141v-0.316l0.124-0.193v-0.281l-0.071-0.176l-0.053-0.142v-0.405
		l0.194-0.315l0.034-0.229l-0.141-0.211v-0.141l0.105-0.316l-0.07-0.229l-0.035-0.388l0.105-0.299v-0.105l0.034-0.211l0.035-0.616
		l0.035-0.177l0.247-0.615l0.176-0.651l0.299-0.282l-0.246-0.264l-0.158-0.141l-0.493-0.247l-0.264-0.141l-0.563-0.264l-0.158-0.142
		l-0.757-0.141l-0.388,0.177l-0.211,0.299v0.211l0.176,0.651l-0.105,0.282v0.176v0.229l-0.192,0.353l-0.106,0.299l0.035,0.353
		l0.229,0.439l0.034,0.353l0.035,0.211l0.035,0.477l-0.07,0.404l0.035,0.562v0.229v0.424v0.439l-0.069,0.316l0.069,0.3v0.245v0.828
		l-0.069,0.316l0.034,0.193l-0.069,0.211l0.104,0.861v0.178l0.07,0.369l-0.035,0.545h0.141l0.212-0.053l0.404,0.158l0.282,0.282
		l0.035,0.211l-0.07,0.334l-0.176,0.247l-0.211,0.281l-0.651,0.511l-0.192,0.211l-0.106,0.123l-0.281,0.388l-0.105,0.477
		l-0.035,0.141l0.176,0.475l0.105,0.389l-0.105,0.404l-0.211,0.211l-0.405,0.07l-0.316-0.035l-0.723-0.369l-0.404-0.281
		l-0.142-0.105l-0.069-0.176l-0.334-0.265l-0.388-0.353l-0.316-0.334l-0.44-0.316L92.055,33.9l-0.405-0.105l-0.176-0.334
		l-0.07-0.423l0.282-0.229l0.281-0.316l0.089-0.211l0.104-0.299l0.07-0.178l0.105-0.51l0.035-0.177l0.07-0.246V30.73l0.035-0.439
		l-0.07-0.141l0.035-0.582l0.07-0.245v-0.476v-0.246v-0.229l-0.105-0.177l0.141-0.281l-0.034-0.141l-0.105-0.758l0.035-0.369
		l0.07-1.181l-0.035-0.438l-0.035-0.546l0.176-0.581l-0.036-0.211v-0.423l-0.104-0.439l-0.035-0.722l-0.035-0.282l-0.07-0.158
		l-0.105-0.282l-0.405-0.211l-0.317-0.141l-0.757-0.37l-0.211,0.035h-0.264l-0.176,0.142l-0.177,0.264l-0.034,0.281v0.177
		l-0.071,0.404v0.177l-0.053,0.141v0.229l0.053,0.722l-0.053,0.141l0.124,0.493v0.335v0.141l0.069,0.281l-0.229,0.757l0.088,0.301
		l-0.088,0.211l0.035,0.211v0.58l0.053,0.211l-0.053,0.758l-0.035,0.229v0.211l-0.035,0.246l0.035,0.229l0.035,0.211v0.246v0.178
		v0.688v0.791l0.124,0.439l0.176,0.247l0.176,0.034l0.475,0.035l0.142,0.193l0.211,0.105l0.07,0.177l0.034,0.176l-0.104,0.404
		l-0.176,0.247l-0.282,0.334l-0.194,0.104l-0.176,0.177l-0.176,0.07l-0.334,0.246l-0.422,0.477l-0.105,0.511l0.211,0.387
		l0.071,0.581l-0.211,0.404l-0.334,0.246l-0.247,0.035l-0.176-0.069l-0.106-0.035l-0.405-0.104l-0.281-0.266l-0.3-0.176
		l-0.211-0.176l-0.247-0.301l-0.334-0.246l-0.141-0.069l-0.211-0.211l-0.792-0.546l-0.229-0.105l-0.528-0.3l-0.265-0.035
		l-0.211-0.246l-0.069-0.388l0.035-0.193l0.141-0.176l0.264-0.177l0.353-0.212l0.141-0.157l0.229-0.493l0.176-0.475l0.07-0.178
		l-0.105-0.141v-0.581l0.035-0.211l0.035-0.37v-0.316l0.069-0.404v-0.211l0.036-0.723l0.035-0.369l0.035,0.123L85.56,27.3
		l-0.035-0.245l0.211-0.195l0.211,0.07v-0.387l-0.281-0.211l-0.07-0.229l-0.07-0.388l0.141-0.546l-0.036-0.388l0.071-0.722
		l-0.035-0.264l-0.036-0.281l-0.104-0.476l0.07-0.211l-0.105-0.212v-0.581l-0.141-0.141l-0.124-0.176l-0.282-0.053l-0.51-0.035
		l-0.317-0.176l-0.247-0.317l0.071-0.651l0.176-0.141l0.105-0.229l0.757-0.634l0.176-0.265l0.159-0.246l0.104-0.299l0.105-0.423
		l-0.105-0.281l-0.035-0.44l0.035-0.176l0.176-0.229l0.317-0.141h0.688l0.65,0.07l0.511,0.158l0.616,0.247l0.106,0.07l0.211,0.246
		l0.37,0.265l0.176,0.316l0.176,0.211l0.071,0.106l0.211,0.299l0.159,0.07l0.316,0.211l0.177,0.071h0.404l0.581-0.142l0.317-0.176
		l0.141-0.105l0.299-0.264l0.035-0.142l0.247-0.316v-0.141l-0.035-0.405l0.035-0.141l0.211-0.37L92.917,16.914z"/>
	<path d="M112.087,16.809h0.211l0.477,0.105l0.545,0.246l0.651,0.405l0.458,0.405l0.264,0.105l0.211,0.281l0.247,0.035l0.104,0.211
		l0.265,0.194l0.65,0.211l0.177,0.141l0.246,0.07l0.142-0.035h0.229l0.353,0.07l0.334,0.071h0.282l0.211,0.158l0.141,0.246v0.281
		l-0.106,0.335l-0.28,0.316l-0.176,0.546l-0.035,0.176l-0.035,0.247v1.161l-0.088,0.581l0.053,0.247l-0.053,0.316l0.088,0.582
		l-0.035,0.826l0.035,0.229v0.898l-0.124,0.281l0.036,0.723v0.334l0.053,0.176l0.176,0.177l0.035,0.141v0.476l-0.035,0.424
		l0.07,0.229l0.071,0.176v0.44l0.034,0.246l0.035,0.687l0.105,0.178l0.211,0.07h0.158l0.176,0.034h0.176h0.247l0.37,0.3v0.492
		l-0.035,0.141l-0.141,0.265l-0.193,0.317l-0.282,0.369l-0.141-0.035l-0.106,0.177l-0.141,0.176l-0.158,0.176l-0.211,0.158
		l-0.035,0.142l-0.141,0.105l-0.246,0.176l-0.159,0.211l-0.035,0.301l0.035,0.141l0.106,0.141l0.192,0.405v-0.142l-0.104,0.668
		l-0.264,0.301l-0.212,0.07l-0.475,0.035l-0.493-0.142l-0.476-0.142l-0.246-0.123l-0.44-0.211v-0.142l-0.861-0.581l-0.177-0.246
		l-0.229-0.177l-0.353-0.334l-0.369-0.246l-0.177-0.247l-0.211-0.158l-0.315-0.104l-0.265,0.034l-0.422,0.265l-0.088,0.212
		l-0.07,0.758l0.405,0.422l0.106,0.404l-0.142,0.404l-0.581,0.212l-0.423,0.069l-0.37-0.034l-0.65-0.247l-0.493-0.193l-0.088-0.141
		l-0.247-0.281l-0.211-0.229l-0.37-0.246l-0.176-0.176l-0.211-0.07l-0.105-0.178l-0.475-0.299l-0.176-0.07h-0.581l-0.142-0.069
		h-0.211l-0.264-0.212l-0.071-0.123l-0.104-0.246l0.104-0.423l0.211-0.265l0.158-0.104l0.282-0.282l0.211-0.334L107,31.771V31.63
		V31.4l0.124-0.353v-0.315l-0.088-0.193L107,30.081l0.07-0.192l0.088-0.178V29.43l-0.088-0.176l-0.035-0.439l0.035-0.105
		l0.053-0.176l0.035-0.266l-0.035-1.107l-0.299-0.477v-0.315L107,26.139l0.265-0.212l0.141-0.069l0.511-0.07l0.563-0.07l0.159,0.035
		l0.492-0.07l0.142-0.07l0.192-0.035l0.247-0.035h0.44h0.176l0.142-0.035l0.58-0.264l0.177-0.141h0.439l0.353-0.248l0.37-0.264
		l0.28-0.352l0.106-0.546l0.104-0.282v-0.176v-0.158l0.229-0.458l-0.053-0.475l-0.071-0.317l-0.176-0.334l-0.581-0.616l-0.246-0.105
		l-0.211-0.106h-0.334l-0.493-0.281l-0.37-0.105h-0.281l-0.615,0.105l-0.616,0.493l-0.142,0.264v0.353v0.369l0.105,0.247l0.176,0.07
		l0.44-0.142h0.141l0.141,0.071l0.334,0.035l0.458,0.369l0.035,0.141l0.035,0.141l0.035,0.353l-0.035,0.581l-0.176,0.334
		l-0.317,0.317l-0.511,0.246l-0.387,0.069h-0.44l-0.316-0.069l-0.334-0.141l-0.353-0.105l-0.475-0.476l-0.211-0.246v-0.212
		l-0.035-0.141l-0.159-0.07l-0.035-0.404l-0.104-0.405l0.034-0.528L107,21.72v-0.264l0.159-0.423l0.035-0.299l0.598-0.863
		l0.088-0.211l0.282-0.229l0.687-0.388l0.247-0.141l0.615-0.176l0.353-0.229l0.616-0.211l0.334-0.37l0.034-0.105l0.07-0.246
		l0.07-0.316l0.439-0.335L112.087,16.809z M113.354,26.066l-0.405,0.266l-0.282,0.176l-0.315,0.07h-0.229l-0.316,0.141l-0.229,0.211
		l-0.176-0.035h-0.211l-0.211,0.194l0.035,0.246l0.034,0.246l0.07,0.335l0.105,1.038l0.034,0.177l-0.104,0.264l0.035,0.424
		l-0.07,1.056v0.388l-0.334,0.334l0.299,0.035l0.211,0.035h0.44l0.211,0.035l0.211-0.035l0.687,0.035l0.37,0.07l0.423,0.105
		l-0.105-0.247l-0.105-0.141l-0.176-2.781l-0.104-0.581l0.141-0.352L113.354,26.066z"/>
	<path d="M122.983,16.949l0.37,0.035l0.316,0.035l0.105,0.141h0.176l0.299,0.194l0.282,0.316l0.176,0.07l0.158,0.07l0.176,0.194
		l0.458,0.281l0.265,0.246l0.316,0.44l0.246,0.176l0.229,0.035l0.387,0.035l0.194,0.07l0.28,0.194l0.247,0.316v0.105l-0.176,0.44
		l-0.282,0.493l-0.193,0.07l-0.211,0.088l-0.106,0.352l-0.105,0.651v0.106v0.211l-0.034,0.581l-0.07,0.862l0.035,0.511v0.211v0.405
		l-0.035,0.281l-0.035,0.334l-0.124,0.143l-0.141,0.491v0.194l0.192,0.352l0.142,0.07l0.141,0.335v0.526l-0.035,0.547l-0.299,0.176
		l0.334,0.229l-0.035,0.246l-0.035,0.282l0.07,0.265l0.035,1.407l0.071,0.458l0.069,0.176l0.105,0.158l0.299,0.141l0.247,0.07
		l0.246,0.143l0.194,0.176l0.141,0.158l-0.035,0.211l-0.104,0.212l-0.3,0.476l-0.316,0.176l-0.37,0.316l-0.422,0.37l-0.37,0.58
		l-0.07,0.142l-0.035,0.211l0.105,0.299l0.104,0.248v0.28l-0.104,0.265l-0.387,0.316l-0.616-0.07l-0.334-0.141l-0.282-0.105
		l-0.176-0.158l-0.405-0.316l-0.352-0.404l-0.177-0.035l-0.546-0.457l-0.475-0.229l-0.722-0.28l-0.177-0.035l-0.211-0.035
		l-0.229-0.105l-0.07-0.212l-0.141-0.157l-0.071-0.246l0.071-0.44l0.264-0.211l0.317-0.282l0.247-0.299l0.034-0.246l0.159-0.389
		l0.07-0.157l0.035-0.247l-0.035-0.246l0.104-0.404l-0.104-0.423l0.104-0.44v-0.721l0.035-0.439l-0.069-0.317l0.104-0.245
		l0.07-0.301v-0.457v-0.722v-0.37l-0.07-0.211l-0.141-0.405l0.035-0.211l0.141-0.246l-0.035-0.581l0.07-0.353l-0.035-0.193
		l-0.105-0.423l0.035-0.193l-0.035-0.563l-0.104-0.475l-0.124-0.247l-0.105-0.141h-0.281l-0.211-0.088l-0.159-0.141l-0.142-0.105
		l-0.069-0.317l0.069-0.511l0.265-0.246l0.211-0.264l0.141-0.071l0.37-0.316l0.246-0.299l0.071-0.212l0.176-0.211l0.194-0.141
		l0.034-0.158l-0.034-0.493l-0.159-0.476V17.53l0.159-0.211l0.28-0.229L122.983,16.949z M123.775,10.313l0.405,0.035h0.176
		l0.281,0.229l0.105,0.176l0.123,0.035l0.247,0.247l0.458,0.51l0.159,0.212l0.104,0.141h0.142l0.439,0.369l0.176,0.07l0.282,0.317
		l0.299,0.404l-0.124,0.651l-0.757,0.511l-0.316-0.193l-0.142,0.141l-0.035,0.158v0.177l-0.104,0.141l-0.071,0.211l0.071,0.476
		l-0.036,0.211l-0.158,0.105l-0.141,0.265l-0.423,0.176h-0.37l-0.387-0.247l-0.229-0.07l-0.281-0.229l-0.211-0.281l-0.158-0.247
		l-0.176-0.158l0.035-0.176l-0.104-0.211l-0.581-0.142l-0.142-0.105l-0.211-0.158l-0.334-0.423l-0.07-0.475l0.3-0.511l0.492-0.353
		l0.547-0.316l0.299-0.229v-0.934l0.176-0.281L123.775,10.313z"/>
	<path d="M136.08,10.384l0.142,0.088l0.423-0.053l0.264,0.053l0.317,0.141l0.299,0.281l0.035,0.282l0.035,0.193v0.176l-0.142,0.317
		l-0.511,0.299l-0.176,0.035l-0.265,0.07l-0.387,0.177l-0.176,0.176l-0.159,0.193l-0.282,0.651l-0.069,0.141v0.141l-0.035,0.247
		l-0.035,0.616v0.404l-0.105,2.377l-0.088,1.038l-0.035,0.176l-0.069,0.265l0.157,0.281l-0.053,0.282l0.194,0.158v0.246l0.035,0.282
		l-0.07,0.264v0.388l-0.106,0.229l-0.122,0.423v0.211l0.069,0.193v0.141l-0.069,0.247l0.193,0.58v0.476l0.035,0.353v0.827
		l-0.106,0.105l-0.088,0.192V25.1l0.035,0.404l-0.035,0.282l-0.141,0.353l0.264,0.034l0.07,0.229v0.246v0.476l0.07,0.246
		l-0.035,0.176v0.722l0.035,0.336l-0.07,0.28l-0.106,0.317l0.071,0.264l0.105,0.389v0.299l0.069,0.211l0.035,0.177l0.035,0.334
		l0.106,0.282l0.069,0.246l0.229,0.123l0.792,0.211l0.352,0.316l0.035,0.141v0.371l-0.247,0.387l-0.51,0.439l-0.247,0.176
		l-0.104,0.265l-0.405,0.069l-0.176,0.143l-0.44,0.51l-0.104,0.247l0.211,0.476l0.193,0.177l0.07,0.353l-0.194,0.475l-0.28,0.281
		l-0.247,0.035l-0.334-0.07l-0.142-0.104h-0.176l-0.105-0.069l-0.334-0.177l-0.246-0.3l-0.282-0.176l-0.37-0.211l-0.142-0.176
		l-0.141-0.194l-0.104-0.035l-0.405-0.281l-0.511-0.212l-0.388-0.193l-0.299-0.104l-0.281-0.142l-0.388-0.211l-0.123-0.105
		l-0.07-0.193l-0.069-0.352l0.176-0.37l0.194-0.176l0.141-0.07l0.352-0.177l0.265-0.51v-0.758l0.104-0.211l-0.104-0.177
		l-0.035-0.229l-0.035-0.176l0.105-0.177l0.069-0.581V29.43l-0.069-0.439l0.176-0.105v-0.246l0.035-0.264l0.035-0.389l0.069-0.211
		l-0.069-0.193l-0.142-0.07V27.09l-0.176-0.546l0.035-0.44l0.104-0.315l0.07-0.581l-0.035-0.211l0.071-0.792l0.035-0.405v-0.176
		l-0.106-0.317l0.071-0.193l-0.071-0.141l-0.07-0.934l0.035-0.615V21v-0.264l0.035-0.282l0.142-0.334l0.211-0.212l-0.211-0.281
		l-0.177-0.511l-0.035-0.281l0.035-0.158l-0.035-0.142l0.07-0.176l-0.035-0.511l-0.035-0.598l-0.034-0.405l-0.07-2.306l-0.105-0.511
		l-0.053-0.353l-0.035-0.369l-0.493-0.563l-0.229-0.158l-0.211-0.317l-0.071-0.369l0.176-0.317l0.3-0.211l0.562-0.035l0.581,0.07
		l0.299,0.07l0.388,0.105h0.141l0.651,0.405l0.334,0.246l0.211,0.212l0.387,0.404l0.194,0.176l0.211-0.07l0.069-0.176l-0.141-0.229
		l0.352-0.898l0.194-0.211l0.458-0.651l0.51-0.211l0.317-0.158L136.08,10.384z"/>
	<path d="M141.484,17.02h0.141h0.299l0.353,0.265l0.105,0.176l0.3,0.422l0.104,0.335l0.247,0.141l0.035,0.176l0.141,0.106
		l0.194,0.264l0.422,0.352l0.105,0.142l0.193,0.088l0.176,0.141l0.282,0.458v0.334l-0.352,0.423l-0.476,0.299l-0.247,0.246
		l-0.264,0.212l-0.07,0.158l-0.069,0.281l0.035,0.212l-0.035,0.299l-0.07,0.176l-0.282,0.317l-0.37,0.141l-0.141,0.053l-0.176-0.053
		l-0.142-0.035l-0.757-0.669l-0.141-0.44l-0.688-0.51l-0.264-0.142l-0.247-0.246l-0.334-0.105l-0.352-0.511l-0.07-0.439l0.141-0.247
		l0.177-0.246l0.229-0.264l0.141-0.071l0.317-0.246l0.299-0.246l0.247-0.37l-0.071-0.352l0.036-0.194l0.07-0.141l0.07-0.246
		l0.176-0.211L141.484,17.02z M141.484,30.15h0.141h0.299l0.353,0.246l0.105,0.178l0.3,0.439l0.104,0.316l0.247,0.158l0.035,0.211
		l0.141,0.07l0.194,0.246l0.422,0.369l0.105,0.143l0.193,0.07l0.176,0.141l0.282,0.475v0.316l-0.352,0.441l-0.476,0.28l-0.247,0.299
		l-0.264,0.212l-0.07,0.105l-0.069,0.281l0.035,0.229l-0.035,0.281l-0.07,0.176l-0.282,0.335l-0.37,0.142l-0.141,0.034l-0.176-0.034
		l-0.142-0.035l-0.757-0.688l-0.141-0.439l-0.688-0.492l-0.264-0.143l-0.247-0.264l-0.334-0.105l-0.352-0.511l-0.07-0.423
		l0.141-0.264l0.177-0.246l0.229-0.247l0.141-0.07l0.317-0.264l0.299-0.246l0.247-0.353l-0.071-0.369l0.036-0.178l0.07-0.141
		l0.07-0.264l0.176-0.213L141.484,30.15z"/>
</g>
<path fill="#077A81" d="M170.894,13.968l2.799,5.738l6.395,0.985l-4.688,4.391l1.021,6.285l-5.695-3.027l-5.762,2.896l1.166-6.26
	l-4.582-4.494l6.416-0.842L170.894,13.968z"/>
</svg>
