<?xml version="1.0" encoding="utf-8"?>
<!-- Generator: Adobe Illustrator 16.0.0, SVG Export Plug-In . SVG Version: 6.00 Build 0)  -->
<!DOCTYPE svg PUBLIC "-//W3C//DTD SVG 1.1//EN" "http://www.w3.org/Graphics/SVG/1.1/DTD/svg11.dtd">
<svg version="1.1" id="Layer_1" xmlns="http://www.w3.org/2000/svg" xmlns:xlink="http://www.w3.org/1999/xlink" x="0px" y="0px"
	 width="179.24px" height="48px" viewBox="0 0 179.24 48" enable-background="new 0 0 179.24 48" xml:space="preserve">
<g>
	<path d="M65.387,11.565l0.51-0.035l0.247,0.035l0.299,0.142l0.247,0.211l0.211,0.299l0.211,0.353l0.158,0.035l0.035,0.141
		l0.387,0.193l0.65,0.035h0.142h0.439l0.211-0.07h0.246l0.405-0.07l0.211-0.088l0.194-0.281l0.035,0.211l0.176-0.07h0.176
		l0.44,0.035l0.247-0.035l0.316-0.105h0.37l0.141-0.07l0.547-0.106h0.211l0.334-0.105l0.493-0.035l0.896-0.07l0.476-0.07l0.969,0.07
		l1.268,0.035l0.176-0.035l0.511,0.105l0.104,0.282h0.247l-0.07-0.282l0.334,0.176l0.211,0.036l0.212,0.07l0.264,0.07l0.247,0.035
		l0.352,0.299l0.51,0.212l0.212,0.176l0.439,0.176l0.282,0.193h0.334l0.035,0.247l0.246,0.035l0.264,0.176l0.211,0.193l0.141,0.282
		l0.282,0.316l0.476,0.546l0.211,0.246l0.157,0.194l0.142,0.176v0.176l0.211,0.141l0.071,0.476l0.104,0.141l0.141,0.176l0.089,0.3
		l0.141,0.528l0.07,0.299l0.069,0.458L84.609,19.1l0.176,0.282l0.105,0.141l0.034,0.158l-0.141,0.281l-0.035,0.177l-0.036,0.299
		l0.282,0.07v0.282l0.07,1.126l-0.035,0.211l0.035,0.353l0.071,0.229l-0.035,0.317l-0.177,0.439l-0.104,0.458l0.035,0.405
		l0.035,0.281l-0.105,0.192l-0.105,0.317l-0.37,0.387l-0.07,0.301l0.035,0.28l-0.105,0.3l-0.069,0.387l-0.106,0.371l-0.176,0.246
		l-0.07,0.756l-0.035,0.211l-0.158,0.178l-0.142,0.264l-0.282,0.282l-0.104,0.229v0.28l-0.124,0.142l-0.282,0.439l-0.141,0.354
		l-0.105,0.299l-0.229,0.211l-0.105,0.281l-0.176,0.897l-0.317,0.334v0.581l-0.192,0.316l-0.035,0.281l-0.247,0.405L81,34.449
		l-0.069,0.439L80.894,35.1l-0.035,0.176l-0.07,0.266v0.211l-0.035,0.246l-0.069,0.758l0.034,0.158l0.035,0.211v0.176l0.105,0.335
		L81,37.848l0.211,0.281l0.512,0.404l0.281,0.035l0.229-0.035l0.247-0.404l-0.142-0.212l-0.141-0.403l0.07-0.793l0.176-0.246
		l0.352-0.316l0.44-0.123l0.439-0.105h0.177l0.176,0.069l0.247,0.036l0.194,0.193l0.245,0.176l0.036,0.141l0.246,0.65v0.212
		l-0.035,0.229v0.142l-0.176,0.65l-0.176,0.458l-0.299,0.439l-0.388,0.388l-0.334,0.299l-0.599,0.176v0.143l-0.193,0.141
		l-0.211,0.035l-0.176,0.035h-0.687h-0.142l-0.229-0.035l-0.493-0.07l-0.176-0.069l-0.229-0.07l-0.247-0.142l-0.211-0.035
		l-0.159-0.211l-0.387-0.299l-0.07-0.248l-0.211-0.069l-0.299-0.403l-0.105-0.143l-0.142-0.316l-0.069-0.264l-0.194-0.282
		l-0.07-0.334l-0.104-0.458l-0.177-0.688v-0.211L77.905,36v-0.246l-0.07-0.423l0.07-0.229v-0.246l0.07-0.176l-0.035-0.369
		L77.764,34.1l-0.035-0.283v-0.157l0.105-0.177l0.07-0.615L77.8,32.656v-0.37l0.07-0.177l0.105-0.245l-0.035-0.247l0.104-0.881
		l-0.176-0.245V30.35l-0.105-0.439l0.07-0.282l0.105-0.28l0.141-0.371l-0.141-0.176V28.59l0.069-0.193v-0.388l-0.141-0.141
		l-0.229-0.335l-0.035-0.581l0.158-0.722l0.07-0.211l0.035-0.142l0.141-0.722l0.177-0.141V24.68v-0.211l0.104-0.581l0.07-0.246
		l0.159-0.07v-0.177l-0.071-0.369l0.141-0.616l0.105-0.757v-0.934v-0.545l-0.035-0.651l0.07-0.247v-0.352l-0.105-0.193l-0.035-0.282
		l-0.141-0.581l-0.158-0.722L78.255,16.9l-0.141-0.105l-0.176-0.581l0.069-0.353l-0.211-0.158h-0.158l-0.105-0.246l-0.282-0.282
		l-0.176-0.229l-0.545-0.352l-0.176-0.035l-0.405-0.177l-0.317-0.035l-0.176,0.035l-0.334-0.035l-0.247,0.035l-0.51,0.142
		l-0.317,0.246l-0.193,0.105l-0.353,0.37l-0.104,0.176l-0.176,0.316l-0.123,0.3l-0.035,0.105l-0.035,0.404l-0.07,0.317l-0.141,0.352
		l0.035-0.105l0.035,0.37l-0.105,0.281l0.07,0.476l-0.035,0.528v0.404l-0.105,0.282v0.651l0.105,0.229L72.78,20.79l0.07,0.176
		l-0.035-0.141l0.069,0.651l-0.034,0.141l-0.035,0.651v0.299l0.176,0.07v0.423l-0.035,0.264l-0.105,0.317l-0.07,0.176l-0.07,0.176
		l0.176,0.651l-0.034,0.264v0.281l-0.142,0.142l0.142,0.405l0.141,0.176l0.035,0.477v0.315l0.193,0.142v0.176l-0.035,0.334
		l0.105,0.246l-0.036,0.229l-0.069,0.211v0.211V28.5l0.105,0.264l-0.07,0.211l0.07,0.248v0.264l-0.229,0.353l0.192,0.265
		l0.423,0.422l-0.105,0.246l0.141,0.582l0.07,0.264l0.035,0.281l0.194,0.388l0.28,0.264v0.142l0.142,0.142l0.404,0.369l0.105,0.142
		l0.316,0.141l0.106,0.177h0.193l0.352,0.069l0.211-0.035l0.193,0.035l0.527,0.266l0.193,0.352v0.301l-0.035,0.176l-0.035,0.141
		l-0.157,0.211l-0.035,0.158l-0.142,0.143l-0.211,0.176l-0.476,0.211L75.7,35.898l-0.37,0.069l-0.176,0.035H74.98l-0.246-0.211
		l-0.299,0.176l-0.177,0.071l-0.28-0.071l-0.159,0.035l-0.176-0.069l-0.389-0.07l-0.157-0.141l-0.458-0.035l-0.405,0.035h-0.176
		l-0.247-0.035l-0.37-0.105h-0.246l-0.44-0.176h-0.246l-0.211-0.071l-0.439,0.036l-0.142-0.089l-0.176-0.035l-0.193-0.035
		l-0.212-0.035l-0.141-0.034h-1.126l-0.458,0.034l-0.141,0.07l-0.44,0.035l-0.422,0.159l-0.159,0.141h-0.211l-0.476,0.387
		l-0.281,0.44l-0.141,0.104l-0.177,0.035l-0.229,0.105h-0.247l-0.282-0.035l-0.299-0.105l-0.317-0.246l-0.176-0.334l-0.192-0.723
		l0.069-0.281l0.158-0.439l0.211-0.246l0.105-0.211l0.281-0.178l0.616-0.475l0.405,0.035l0.104,0.141l-0.034-0.211l0.176-0.246
		l0.281-0.265l0.158-0.035l0.6-0.581l0.439-0.722l0.176-0.669v-0.334l0.035-0.212l-0.035-0.404l0.071-0.212l0.035-0.439l0.158-0.211
		l0.035-0.177v-0.246v-0.581l-0.105-0.404V27.15l0.037-0.2l0.035-0.177l0.247-0.387l-0.07-0.3l-0.072-0.526v-0.334l0.036-0.281
		L67.34,24.68l0.036-0.176l0.035-0.546l-0.035-0.352l0.035-0.177l0.141-0.229l0.07-0.316l-0.282-0.247l0.071-0.369v-0.423
		l-0.105-0.229l0.034-0.176l0.071-0.282v-1.091v-0.282v-0.651l0.035-0.404l-0.07-1.18v-0.37l-0.07-0.387l-0.035-0.176l-0.193-0.687
		l-0.035-0.828l-0.388-0.193l-0.141-0.176l-0.265-0.07h-0.176l-0.828-0.405l-0.439-0.387l-0.177-0.177l-0.141-0.193l-0.176-0.563
		l0.069-0.404v-0.177l0.177-0.176l0.511-0.511L65.387,11.565z"/>
	<path d="M93.463,16.143h0.211l0.477,0.105l0.545,0.246l0.651,0.405l0.458,0.405l0.264,0.105l0.211,0.281l0.247,0.035l0.104,0.211
		l0.265,0.194l0.65,0.211l0.177,0.141l0.247,0.07l0.141-0.035h0.229l0.353,0.07l0.334,0.071h0.282l0.211,0.158l0.141,0.246v0.281
		l-0.105,0.335l-0.281,0.316l-0.176,0.546l-0.035,0.176l-0.035,0.247v1.161l-0.088,0.581l0.053,0.247l-0.053,0.316l0.088,0.581
		l-0.035,0.827l0.035,0.229v0.898l-0.124,0.281l0.036,0.723v0.334l0.053,0.176l0.176,0.177l0.035,0.141v0.476l-0.035,0.424
		l0.07,0.229l0.071,0.176v0.44l0.034,0.246l0.035,0.687l0.105,0.178l0.211,0.07h0.158l0.176,0.034h0.176h0.247l0.37,0.3v0.492
		l-0.035,0.141l-0.141,0.265l-0.193,0.317l-0.282,0.369l-0.141-0.035l-0.106,0.177l-0.141,0.176l-0.158,0.177l-0.211,0.157
		l-0.035,0.142l-0.141,0.105l-0.246,0.176l-0.159,0.211l-0.035,0.301l0.035,0.141l0.106,0.141l0.192,0.405v-0.142l-0.104,0.668
		l-0.264,0.301l-0.212,0.07l-0.475,0.035l-0.493-0.142l-0.476-0.14l-0.246-0.125l-0.44-0.211v-0.141l-0.861-0.581l-0.177-0.245
		l-0.229-0.178l-0.353-0.334l-0.369-0.246l-0.177-0.247l-0.211-0.157l-0.315-0.105l-0.265,0.035l-0.422,0.264l-0.088,0.212
		l-0.07,0.757l0.405,0.422l0.106,0.405l-0.142,0.404l-0.581,0.212l-0.423,0.07l-0.37-0.035l-0.65-0.247l-0.493-0.192l-0.088-0.142
		L90.4,34.714l-0.211-0.229l-0.37-0.245l-0.176-0.177l-0.211-0.069l-0.105-0.177l-0.475-0.299l-0.177-0.07h-0.58l-0.142-0.07h-0.211
		l-0.264-0.212l-0.071-0.123l-0.104-0.246l0.104-0.423l0.211-0.264l0.158-0.105l0.282-0.281l0.211-0.334l0.104-0.283v-0.141v-0.229
		l0.124-0.354v-0.316l-0.088-0.192l-0.035-0.458l0.07-0.193l0.088-0.177v-0.28l-0.088-0.177l-0.035-0.44l0.035-0.104l0.053-0.176
		l0.035-0.265l-0.034-1.11l-0.3-0.476v-0.315l0.176-0.229l0.265-0.211l0.141-0.07l0.511-0.069l0.563-0.07l0.159,0.035l0.492-0.069
		l0.142-0.07l0.192-0.036l0.247-0.035h0.44h0.176l0.142-0.035l0.58-0.264l0.177-0.141h0.439l0.353-0.247l0.37-0.264l0.28-0.352
		l0.106-0.546l0.104-0.282v-0.176v-0.158l0.229-0.458l-0.053-0.475l-0.071-0.317l-0.176-0.334l-0.581-0.616l-0.246-0.105L93.147,20
		h-0.334l-0.493-0.281l-0.37-0.104h-0.281l-0.615,0.104l-0.616,0.493l-0.142,0.264v0.353v0.369l0.105,0.247l0.176,0.07l0.44-0.142
		h0.141l0.141,0.071l0.334,0.035l0.458,0.369l0.035,0.141l0.035,0.141l0.035,0.353l-0.035,0.581l-0.176,0.334l-0.317,0.317
		l-0.511,0.246l-0.387,0.07h-0.44l-0.316-0.07l-0.334-0.141l-0.353-0.105l-0.475-0.476L88.64,22.99v-0.212l-0.035-0.141l-0.159-0.07
		l-0.035-0.404l-0.104-0.405l0.034-0.528l0.035-0.176V20.79l0.159-0.423l0.035-0.299l0.598-0.863l0.088-0.211l0.282-0.229
		l0.687-0.388l0.247-0.141l0.615-0.176l0.353-0.229l0.616-0.211l0.334-0.37l0.034-0.105l0.07-0.246l0.07-0.316l0.439-0.335
		L93.463,16.143z M94.73,25.4l-0.405,0.266l-0.282,0.176l-0.315,0.07h-0.229l-0.316,0.141l-0.229,0.211l-0.176-0.035h-0.211
		l-0.211,0.194l0.035,0.246l0.034,0.246l0.07,0.335l0.105,1.038l0.034,0.177l-0.104,0.264l0.035,0.424l-0.07,1.056v0.388
		L92.16,30.93l0.299,0.035L92.67,31h0.44l0.211,0.035L93.532,31l0.688,0.035l0.369,0.07l0.423,0.105l-0.105-0.247l-0.105-0.141
		l-0.176-2.781l-0.104-0.581l0.141-0.352L94.73,25.4z"/>
	<path d="M110.854,16.248l0.423,0.035h0.334l0.211,0.035l0.247,0.105l0.334,0.035l0.211,0.035l0.282,0.229l0.439,0.281l0.211,0.105
		l0.229,0.335l0.141,0.176l0.176,0.246l0.44,0.476l0.282,0.07l0.141-0.07l0.142-0.035l0.404-0.299l0.317-0.282l0.193-0.352
		l-0.089-0.265l0.194-0.457l0.211-0.159l0.317-0.105l0.722,0.194h0.159l0.422,0.211l0.07,0.141l0.141,0.07l0.299,0.105l0.317,0.265
		l0.141,0.035l0.299,0.035l0.177,0.105l0.546,0.211l0.352,0.176l0.142,0.071l0.229,0.123l0.353,0.035l0.299,0.07l0.211,0.035
		l0.247,0.176l0.299,0.07l0.141,0.212l0.105,0.193v0.211l-0.37,0.687l-0.246,0.105l-0.141,0.581l-0.177,0.176l-0.07,0.247
		l0.036,0.193l-0.124,0.388v0.141l-0.035,0.369l-0.035,1.303l-0.176,0.176l0.176,0.247l-0.105,0.687l-0.034,0.369l-0.035,0.247
		l-0.106,0.176l0.035,0.616l0.141,0.581v0.246l0.142,0.404l-0.035,0.353v0.246l-0.142,0.687l0.035,0.301l0.035,0.211l-0.035,0.141
		l0.105,0.477l-0.142,0.211l0.105,0.142l0.07,0.104l0.035,0.476l0.124,0.282l0.757,0.439l0.316,0.316l-0.035,0.369l-0.211,0.353
		l-0.37,0.44l-0.281,0.035l-0.211,0.352l-0.405,0.405l-0.141,0.141l-0.105,0.581l0.07,0.281l0.176,0.335l0.105,0.211l-0.141,0.405
		l-0.246,0.281h-0.159l-0.458-0.035l-0.211-0.07l-0.334-0.141l-0.316-0.266l-0.229-0.141l-0.247-0.316l-0.281-0.158l0.104-0.177
		l-0.211-0.423l-0.299,0.247l-0.247-0.317l-0.211-0.193l-0.916-0.352l-0.142-0.07l-0.141-0.035l-0.07-0.229l-0.141-0.104
		l-0.071-0.389l0.106-0.334l0.422-0.246l0.141-0.07l0.265-0.51l0.069-0.547v-0.933l0.177-0.035l-0.247-0.106v-0.475l0.069-0.316
		v-0.246l-0.104-0.193l-0.105-0.458l-0.035-0.142V27.67l-0.088-0.141v-0.316l0.124-0.193v-0.281l-0.07-0.176l-0.054-0.142v-0.405
		l0.194-0.315l0.035-0.229l-0.142-0.211v-0.14l0.105-0.317l-0.07-0.229l-0.035-0.388l0.105-0.299v-0.105l0.035-0.211l0.035-0.616
		l0.035-0.177l0.246-0.615l0.177-0.651l0.299-0.282l-0.247-0.264l-0.158-0.141l-0.493-0.247l-0.264-0.141l-0.563-0.264l-0.157-0.142
		l-0.758-0.141l-0.388,0.177l-0.211,0.299v0.211l0.176,0.651l-0.104,0.282v0.176v0.229l-0.193,0.353l-0.105,0.299l0.034,0.353
		l0.229,0.439l0.035,0.353l0.035,0.211l0.035,0.476l-0.07,0.404l0.035,0.563v0.229v0.422v0.44l-0.07,0.315l0.07,0.301v0.246v0.826
		l-0.07,0.317l0.035,0.193l-0.07,0.211l0.105,0.862v0.177l0.069,0.368l-0.034,0.547h0.141l0.211-0.053l0.405,0.157l0.281,0.282
		l0.035,0.211l-0.069,0.334l-0.177,0.247l-0.211,0.281l-0.65,0.511l-0.193,0.211l-0.105,0.123l-0.281,0.389l-0.106,0.476
		l-0.035,0.141l0.177,0.476l0.104,0.388l-0.104,0.405l-0.211,0.211l-0.405,0.07l-0.317-0.035l-0.722-0.371l-0.405-0.28l-0.141-0.104
		l-0.07-0.177l-0.334-0.265l-0.387-0.352l-0.317-0.336l-0.439-0.316l-0.317-0.211l-0.405-0.105l-0.176-0.334l-0.07-0.423
		l0.282-0.229l0.282-0.316l0.088-0.211l0.105-0.299l0.069-0.178l0.106-0.51l0.035-0.177l0.069-0.246v-0.142l0.035-0.439l-0.07-0.141
		l0.035-0.582l0.07-0.245v-0.476v-0.246v-0.229l-0.105-0.177l0.142-0.281l-0.035-0.141l-0.105-0.758l0.035-0.369l0.07-1.181
		l-0.035-0.439l-0.035-0.546l0.177-0.581l-0.036-0.211V22.6l-0.105-0.439l-0.035-0.722l-0.035-0.282l-0.069-0.158l-0.106-0.282
		l-0.404-0.211l-0.317-0.141l-0.757-0.37l-0.211,0.035h-0.265l-0.176,0.142l-0.176,0.264l-0.035,0.281v0.177l-0.071,0.404v0.177
		l-0.053,0.141v0.229l0.053,0.722l-0.053,0.141l0.124,0.493v0.335v0.141l0.07,0.281l-0.229,0.757l0.088,0.301l-0.088,0.211
		l0.035,0.211v0.58l0.053,0.211l-0.053,0.758l-0.035,0.229v0.211l-0.035,0.246l0.035,0.229l0.035,0.211v0.246v0.178v0.688v0.791
		l0.124,0.439l0.176,0.247l0.177,0.034l0.475,0.035l0.141,0.193l0.211,0.105l0.07,0.177l0.035,0.176l-0.105,0.404l-0.176,0.247
		l-0.282,0.334l-0.193,0.104l-0.177,0.177l-0.176,0.07l-0.334,0.246l-0.422,0.477l-0.104,0.511l0.211,0.387l0.07,0.581l-0.211,0.405
		l-0.334,0.245l-0.247,0.035l-0.176-0.069l-0.105-0.035l-0.405-0.104l-0.282-0.266l-0.299-0.176l-0.211-0.176l-0.247-0.301
		l-0.334-0.246l-0.141-0.069l-0.212-0.211l-0.792-0.546l-0.229-0.105l-0.528-0.3l-0.264-0.035l-0.211-0.246l-0.07-0.388l0.035-0.193
		l0.141-0.176l0.265-0.177l0.352-0.211l0.142-0.158l0.229-0.493l0.176-0.475l0.07-0.178l-0.105-0.141v-0.581l0.035-0.211l0.035-0.37
		v-0.316l0.07-0.404v-0.211l0.036-0.723l0.035-0.369l0.034,0.123l-0.176-0.476l-0.035-0.246l0.211-0.194l0.211,0.07v-0.387
		l-0.28-0.211l-0.071-0.229l-0.07-0.388l0.142-0.546l-0.036-0.388l0.071-0.722l-0.035-0.264l-0.036-0.281l-0.105-0.476l0.07-0.211
		l-0.105-0.212V21.37l-0.141-0.141l-0.124-0.176L102.88,21l-0.51-0.035l-0.317-0.176l-0.246-0.317l0.07-0.651l0.176-0.141
		l0.105-0.229l0.757-0.634l0.176-0.265l0.159-0.246l0.105-0.299l0.104-0.423l-0.104-0.281l-0.035-0.44l0.035-0.176l0.176-0.229
		l0.317-0.141h0.687l0.651,0.07l0.511,0.158l0.616,0.247l0.105,0.07l0.211,0.246l0.37,0.265l0.176,0.316l0.177,0.211l0.07,0.106
		l0.211,0.299l0.159,0.07l0.317,0.211l0.176,0.071h0.405l0.581-0.142l0.316-0.176l0.142-0.105l0.299-0.264l0.035-0.142l0.247-0.316
		v-0.141l-0.035-0.405l0.035-0.141l0.211-0.37L110.854,16.248z"/>
	<path d="M131.433,16.107h0.51l0.316,0.211l0.07,0.229l0.477,0.758l0.352,0.598l0.158,0.405l0.247,0.388l0.141,0.334l0.071,0.211
		l-0.036,0.142l0.036,0.299l0.07,0.176l0.069,0.282l0.265,0.334l0.422,0.353l0.141,0.264l0.088,0.353l0.105,0.369l0.176,0.281
		l0.176,0.546l0.476,0.388l0.105,0.369l-0.071,0.317l-0.299,0.316l-0.141,0.265l-0.862,0.51l-0.581,0.354l-0.422,0.176l-0.176,0.141
		l-0.229,0.229l-0.176,0.069l-0.439,0.105l-0.282,0.211l-0.211,0.07l-0.616,0.369h-0.141l-0.265,0.212l-0.141,0.034l-0.493,0.477
		l-0.194,0.316l-0.034,0.142v0.158l-0.035,0.211l-0.282,0.28l-0.51-0.034l0.035,0.405l-0.035,0.281l-0.142,0.211l-0.104,0.334
		l-0.176,0.211l-0.089,0.213l0.054,0.334l0.141,0.246l0.176,0.035l0.177,0.07h0.211h0.439l0.334,0.158l0.493,0.035l0.405,0.035
		l0.211,0.035h0.141l0.477,0.069l0.492,0.035l0.476-0.07l0.211-0.141l0.07-0.158l0.088-0.176l-0.035-0.142v-0.142l-0.123-0.192
		l-0.141-0.248l-0.142-0.457l0.105-0.439l0.105-0.176l0.142-0.229l0.369-0.177l0.212-0.035h0.229l0.352,0.143l0.212,0.069l0.264,0.3
		l0.141,0.316l0.07,0.934l-0.07,0.157l-0.069,0.423l-0.07,0.439l-0.105,0.281l-0.193,0.142l-0.142,0.229l-0.036,0.211l-0.315,0.353
		l-0.264,0.265l-1.55,1.25l-0.141,0.229l-0.07,0.457l0.105,0.193l0.035,0.316l-0.07,0.281l-0.211,0.3l-0.193,0.035l-0.562,0.104
		l-0.265-0.07l-0.458-0.069l-0.229-0.069l-0.316-0.143l-0.211-0.123l-0.229-0.035l-0.211-0.035l-0.282-0.211l-0.334-0.07
		l-0.599-0.369l-0.193-0.07l-0.317-0.176l-0.37-0.211l-0.316-0.143l-0.511-0.334l-0.493-0.176l-0.44-0.212l-0.211-0.035h-0.546
		l-0.211-0.123l-0.264-0.246l-0.105-0.247l0.035-0.104l0.07-0.265l0.157-0.246l0.424-0.404l0.211-0.316l0.034-0.316l0.089-0.264
		l0.069-0.494v-0.229l-0.035-0.389v-0.229l-0.124-0.105l-0.034-0.316l0.193-0.105l-0.104-0.229l0.069-0.354l-0.034-0.211
		l-0.159-0.404l0.159-0.176l0.034-0.142v-0.141l-0.034-0.581l0.034-0.141v-1.162l-0.034-0.246v-0.334l-0.035-0.493l0.035-0.334
		l-0.035-0.388l0.035-0.264l0.034-0.176l-0.069-0.142l-0.088-0.65l-0.035-0.405l0.035-0.281l-0.142-0.423l-0.104-0.158l-0.389-0.282
		l-0.123-0.141l-0.034-0.176l0.034-0.335l0.229-0.316l0.493-0.193l0.757-0.106l0.405-0.105l0.141-0.07l0.211-0.035l1.514-0.439
		l0.229-0.106h0.176l0.105-0.105l0.141-0.176l0.264,0.07l0.353-0.176l0.246-0.193l0.546-0.317l0.141-0.07l0.688-0.651l0.104-0.246
		l0.036-0.265l0.229-0.246L131.433,16.107z M129.056,19.646l-0.105,0.281v0.282l0.07,0.193l0.069,0.281l0.07,0.476l0.035,0.176
		l0.071,0.142l0.035,0.757l0.034,0.141l0.07,0.229l0.07,0.353l-0.105,0.246l0.105,0.335v0.211l-0.07,0.211l-0.104,0.37l0.034,0.141
		l0.035,0.14l-0.035,0.3l0.035,0.177v0.246l0.035,0.176l-0.07,0.336l0.105,0.176l0.476-0.617l0.511-0.176l0.069-0.176l0.142-0.07
		l0.141-0.105l0.211-0.07l0.299-0.51l0.071-0.142l-0.071-0.193l-0.176-0.316l-0.07-0.177l-0.053-0.229l-0.247-0.528l-0.511-1.303
		l-0.141-0.105l-0.353-0.687l-0.07-0.246l-0.439-0.757L129.056,19.646z"/>
	<path d="M140.234,16.354h0.141h0.299l0.353,0.265l0.105,0.176l0.3,0.422l0.104,0.335l0.247,0.141l0.035,0.176l0.141,0.106
		l0.194,0.264l0.422,0.352l0.105,0.142l0.193,0.088l0.176,0.141l0.282,0.458v0.334l-0.352,0.423l-0.476,0.299l-0.247,0.246
		l-0.264,0.212l-0.07,0.158l-0.069,0.281l0.035,0.212l-0.035,0.299l-0.07,0.176l-0.282,0.317l-0.37,0.141l-0.141,0.053l-0.176-0.053
		l-0.142-0.035l-0.757-0.669l-0.141-0.44l-0.688-0.51l-0.264-0.142l-0.247-0.246l-0.334-0.105l-0.352-0.511l-0.07-0.439l0.141-0.247
		l0.177-0.246l0.229-0.264l0.141-0.071l0.317-0.246l0.299-0.246l0.247-0.37l-0.071-0.352l0.036-0.194l0.07-0.141l0.07-0.246
		l0.176-0.211L140.234,16.354z M140.234,29.484h0.141h0.299l0.353,0.246l0.105,0.178l0.3,0.439l0.104,0.316l0.247,0.158l0.035,0.211
		l0.141,0.07l0.194,0.246l0.422,0.369l0.105,0.143l0.193,0.07l0.176,0.141l0.282,0.475v0.317l-0.352,0.44l-0.476,0.28l-0.247,0.299
		l-0.264,0.212l-0.07,0.105l-0.069,0.281l0.035,0.229l-0.035,0.281l-0.07,0.176l-0.282,0.335l-0.37,0.142l-0.141,0.035l-0.176-0.035
		l-0.142-0.035l-0.757-0.688l-0.141-0.439l-0.688-0.492l-0.264-0.143l-0.247-0.264l-0.334-0.105l-0.352-0.511l-0.07-0.423
		l0.141-0.264l0.177-0.246l0.229-0.247l0.141-0.07l0.317-0.264l0.299-0.246l0.247-0.353l-0.071-0.369l0.036-0.178l0.07-0.141
		l0.07-0.264l0.176-0.213L140.234,29.484z"/>
</g>
<path fill="#077A81" d="M170.047,13.494l2.799,5.738l6.395,0.985l-4.688,4.391l1.021,6.285l-5.695-3.027l-5.762,2.896l1.166-6.26
	l-4.582-4.494l6.416-0.842L170.047,13.494z"/>
</svg>
