<?xml version="1.0" encoding="utf-8"?>
<!-- Generator: Adobe Illustrator 16.0.0, SVG Export Plug-In . SVG Version: 6.00 Build 0)  -->
<!DOCTYPE svg PUBLIC "-//W3C//DTD SVG 1.1//EN" "http://www.w3.org/Graphics/SVG/1.1/DTD/svg11.dtd">
<svg version="1.1" id="Layer_2" xmlns="http://www.w3.org/2000/svg" xmlns:xlink="http://www.w3.org/1999/xlink" x="0px" y="0px"
	 width="633.002px" height="139.149px" viewBox="-10.447 323.334 633.002 139.149"
	 enable-background="new -10.447 323.334 633.002 139.149" xml:space="preserve">
<g>
	<g>
		<polygon fill="#CCCCCC" points="427.109,458.482 427.109,353.843 615.277,353.843 582.06,406.163 615.277,458.482 		"/>
		<path fill="#480E0F" d="M608,357.843l-30.679,48.32L608,454.482H431.109v-96.641L608,357.843 M622.556,349.843H608H431.109h-8v8
			v96.641v8h8H608h14.556l-7.802-12.288l-27.956-44.031l27.956-44.032L622.556,349.843L622.556,349.843z"/>
	</g>
	<g>
		<polygon fill="#CCCCCC" points="-3.168,458.482 30.05,406.163 -3.168,353.843 185,353.843 185,458.482 		"/>
		<path fill="#480E0F" d="M181,357.843v96.641H4.109l30.679-48.319l-30.679-48.32L181,357.843 M189,349.843h-8H4.109h-14.556
			l7.802,12.288l27.956,44.032l-27.956,44.031l-7.802,12.288H4.109H181h8v-8v-96.641V349.843L189,349.843z"/>
	</g>
	<g>
		<polygon fill="#7D7D7D" points="527.555,449.334 423.109,462.482 423.109,386.334 		"/>
		<polygon fill="#7D7D7D" points="189,462.482 189,411.5 88.667,449.334 		"/>
		<rect x="92.667" y="327.334" fill="#FFFFFF" width="430.888" height="118"/>
		<path fill="#480E0F" d="M519.555,331.334v110H96.667v-110H519.555 M527.555,323.334h-8H96.667h-8v8v110v8h8h422.888h8v-8v-110
			V323.334L527.555,323.334z"/>
	</g>
</g>
<g>
	<path d="M196.152,382.402c-1.953,1.427-3.417,2.12-4.39,2.081c-0.867-0.076-1.543-0.544-2.026-1.406
		c-0.338-0.565-0.507-0.996-0.507-1.296c0-0.562,0.391-0.957,1.183-1.182c3.039-0.975,5.138-2.718,6.3-5.234
		c0.714-1.462,1.071-2.776,1.071-3.939c0-1.651-0.713-2.478-2.136-2.478c-2.22,0-5.294,2.498-9.234,7.489
		c-1.839,2.364-3.427,4.652-4.756,6.865c-1.331,2.217-2.433,4.391-3.293,6.531c-0.71,1.799-1.304,3.302-1.77,4.501
		c-0.472,1.202-0.798,2.12-0.987,2.757c-0.9,2.815-1.351,5.33-1.351,7.543c0,2.479,0.748,4.186,2.25,5.122
		c0.375,0.262,0.845,0.396,1.41,0.396c1.575,0,3.564-0.979,5.965-2.929c2.175-1.765,3.732-3.452,4.673-5.065
		c0.786-1.313,1.403-1.969,1.858-1.969c0.448,0,0.87,0.279,1.263,0.844c0.396,0.562,0.595,1.09,0.595,1.575
		c0,0.562-0.193,1.089-0.565,1.574c-5.292,7.395-10.396,11.092-15.309,11.092c-1.578,0-3.116-0.436-4.619-1.298
		c-2.85-1.726-4.276-4.876-4.276-9.454c0-4.427,1.22-9.287,3.66-14.58c4.128-8.815,8.95-15.591,14.464-20.319
		c3.677-3.112,7.223-4.67,10.64-4.67c1.913,0,3.394,0.638,4.444,1.913c1.052,1.275,1.576,2.891,1.576,4.842
		c0,1.764-0.414,3.471-1.238,5.121C200.034,378.931,198.4,380.789,196.152,382.402z"/>
	<path d="M227.615,400.075c-1.58,1.575-3.417,2.532-5.515,2.87c-0.454,0.076-0.92,0.132-1.409,0.169
		c-0.489,0.038-0.996,0.056-1.52,0.056c-2.626,0-4.42-0.347-5.374-1.04c-0.958-0.695-1.436-1.604-1.436-2.729
		c0-0.523,0.148-1.352,0.451-2.479c0.035-0.147,0.035-0.263,0-0.338c-0.074-0.035-0.179,0-0.311,0.114
		c-0.131,0.111-0.236,0.244-0.308,0.393c-0.562,1.127-1.575,2.347-3.041,3.66c-2.102,1.877-4.107,2.815-6.023,2.815
		c-1.838,0-3.263-0.621-4.277-1.858c-1.051-1.165-1.575-2.685-1.575-4.56c0-2.44,0.75-5.083,2.25-7.938
		c1.499-2.888,3.601-5.084,6.303-6.586c2.027-1.126,4.069-1.707,6.138-1.744c1.538-0.038,2.943,0.28,4.221,0.955
		c0.6,0.337,1.013,0.303,1.237-0.111c0.263-0.413,0.487-0.714,0.673-0.902c0.302-0.301,0.6-0.505,0.902-0.618
		c0.373-0.114,1.089-0.056,2.137,0.169c1.054,0.187,1.709,0.393,1.974,0.618c0.372,0.413,0.43,0.978,0.17,1.688
		c-0.532,1.126-1.579,3.453-3.157,6.981c-0.6,1.389-1.095,2.618-1.491,3.686c-0.394,1.068-0.722,1.998-0.984,2.787
		c-0.262,0.786-0.393,1.444-0.393,1.968c0,0.489,0.13,0.865,0.393,1.127c0.6,0.601,1.857,0.9,3.773,0.9
		c0.71,0,1.629-0.338,2.754-1.015c0.641-0.372,1.223-0.776,1.747-1.208c0.524-0.432,0.975-0.911,1.351-1.437
		c0.186-0.227,0.338-0.168,0.447,0.169c0.263,0.639,0.359,1.369,0.283,2.196C227.932,399.476,227.802,399.89,227.615,400.075z
		 M215.456,386.06c0-0.639-0.637-0.976-1.913-1.014c-1.127-0.073-2.495,0.396-4.109,1.409c-1.54,1.013-2.777,2.233-3.714,3.657
		c-1.688,2.667-2.533,4.917-2.533,6.756c0,1.765,0.676,2.646,2.026,2.646c0.71,0,1.555-0.488,2.533-1.464
		c0.187-0.187,0.477-0.516,0.873-0.983c0.392-0.47,0.908-1.082,1.547-1.83c1.726-2.102,3.471-5.049,5.234-8.84
		C215.438,386.324,215.456,386.209,215.456,386.06z"/>
	<path d="M242.303,400.075c-1.576,1.575-3.417,2.532-5.517,2.87c-1.2,0.225-2.324,0.338-3.377,0.338
		c-1.689,0-3.092-0.262-4.219-0.789c-1.503-0.824-2.25-2.229-2.25-4.222c0-0.263,0.008-0.562,0.026-0.898
		c0.021-0.338,0.049-0.732,0.084-1.183c0.302-3.002,1.313-7.542,3.04-13.621c1.388-4.877,2.685-8.837,3.885-11.876
		c1.275-3.377,3.074-4.973,5.403-4.787c0.787,0.076,1.436,0.443,1.943,1.098c0.506,0.658,0.759,1.494,0.759,2.506
		c0,0.639-0.113,1.314-0.338,2.027c-0.789,2.326-2.085,4.69-3.883,7.093c-0.229,0.299-0.617,1.085-1.182,2.361
		c-2.103,6.306-3.564,11.313-4.391,15.029c-0.263,1.051-0.396,1.781-0.396,2.194c0,0.489,0.133,0.864,0.396,1.126
		c0.524,0.524,1.799,0.787,3.826,0.787c0.716,0,1.635-0.338,2.76-1.015c0.637-0.372,1.216-0.776,1.743-1.208
		c0.528-0.432,0.975-0.911,1.351-1.437c0.19-0.227,0.338-0.168,0.451,0.169c0.264,0.639,0.356,1.369,0.279,2.196
		C242.621,399.476,242.493,399.89,242.303,400.075z"/>
	<path d="M256.991,400.075c-1.572,1.575-3.413,2.532-5.514,2.87c-1.199,0.225-2.327,0.338-3.377,0.338
		c-1.689,0-3.096-0.262-4.222-0.789c-1.501-0.824-2.25-2.229-2.25-4.222c0-0.263,0.008-0.562,0.027-0.898
		c0.023-0.338,0.049-0.732,0.086-1.183c0.3-3.002,1.311-7.542,3.04-13.621c1.386-4.877,2.681-8.837,3.884-11.876
		c1.275-3.377,3.073-4.973,5.403-4.787c0.787,0.076,1.433,0.443,1.94,1.098c0.506,0.658,0.762,1.494,0.762,2.506
		c0,0.639-0.117,1.314-0.338,2.027c-0.792,2.326-2.085,4.69-3.883,7.093c-0.228,0.299-0.62,1.085-1.182,2.361
		c-2.103,6.306-3.568,11.313-4.391,15.029c-0.265,1.051-0.396,1.781-0.396,2.194c0,0.489,0.131,0.864,0.396,1.126
		c0.524,0.524,1.799,0.787,3.826,0.787c0.713,0,1.633-0.338,2.76-1.015c0.633-0.372,1.216-0.776,1.74-1.208
		c0.527-0.432,0.979-0.911,1.351-1.437c0.19-0.227,0.338-0.168,0.455,0.169c0.263,0.639,0.356,1.369,0.279,2.196
		C257.313,399.476,257.181,399.89,256.991,400.075z"/>
</g>
<g>
	<path d="M307.699,394.898c-1.235,0-2.271-0.169-3.093-0.507c-0.337-0.151-0.623-0.189-0.844-0.113
		c-0.117,0.038-0.262,0.337-0.454,0.899c-0.938,3.603-2.399,6.905-4.39,9.908c-2.551,3.826-5.195,5.738-7.932,5.738
		c-2.102,0-3.681-0.861-4.729-2.588c-0.792-1.391-1.181-3.208-1.181-5.46c0-4.614,1.519-10.47,4.558-17.562
		c2.813-6.49,6.562-11.574,11.256-15.254c4.199-3.377,8.328-5.008,12.381-4.894c3.342,0.073,5.856,1.237,7.546,3.488
		c1.386,1.84,2.079,4.297,2.079,7.375c0,3.377-0.921,6.827-2.756,10.356c-1.99,3.825-4.373,6.323-7.149,7.484
		C311.269,394.522,309.505,394.898,307.699,394.898z M315.944,377.898c0.058-0.639,0.088-1.275,0.088-1.914
		c0-4.238-1.394-6.396-4.165-6.472c-3.452-0.038-7.354,2.74-11.709,8.33c-3.599,4.69-6.038,9.12-7.313,13.283
		c-1.73,5.742-2.592,9.478-2.592,11.2c0,1.54,0.489,2.309,1.462,2.309c1.84,0,3.884-3.997,6.137-11.989
		c0.601-2.289,1.218-6.114,1.859-11.482c0.074-0.639,0.384-1.125,0.925-1.462c0.547-0.338,1.078-0.675,1.607-1.014
		c0.71-0.561,1.386-0.844,2.027-0.844c0.71,0,1.105,0.431,1.182,1.295c0.076,1.013,0.064,2.353-0.029,4.024
		c-0.093,1.669-0.291,3.686-0.594,6.05c-0.111,0.751,0.093,1.165,0.623,1.237c2.551,0.19,4.82-0.975,6.808-3.487
		c1.729-2.065,2.854-4.449,3.377-7.149C315.788,379.176,315.894,378.539,315.944,377.898z"/>
	<path d="M350.195,400.075c-1.578,1.575-3.412,2.532-5.515,2.87c-0.453,0.076-0.92,0.132-1.408,0.169
		c-0.489,0.038-0.997,0.056-1.521,0.056c-2.624,0-4.418-0.347-5.373-1.04c-0.956-0.695-1.433-1.604-1.433-2.729
		c0-0.523,0.145-1.352,0.446-2.479c0.035-0.147,0.035-0.263,0-0.338c-0.073-0.035-0.18,0-0.308,0.114
		c-0.134,0.111-0.239,0.244-0.309,0.393c-0.565,1.127-1.578,2.347-3.04,3.66c-2.104,1.877-4.11,2.815-6.027,2.815
		c-1.834,0-3.261-0.621-4.273-1.858c-1.054-1.165-1.577-2.685-1.577-4.56c0-2.44,0.751-5.083,2.254-7.938
		c1.496-2.888,3.598-5.084,6.3-6.586c2.025-1.126,4.069-1.707,6.138-1.744c1.537-0.038,2.947,0.28,4.222,0.955
		c0.602,0.337,1.014,0.303,1.241-0.111c0.261-0.413,0.481-0.714,0.668-0.902c0.304-0.301,0.603-0.505,0.903-0.618
		c0.373-0.114,1.088-0.056,2.137,0.169c1.057,0.187,1.712,0.393,1.976,0.618c0.373,0.413,0.431,0.978,0.169,1.688
		c-0.53,1.126-1.577,3.453-3.157,6.981c-0.598,1.389-1.095,2.618-1.49,3.686c-0.39,1.068-0.723,1.998-0.982,2.787
		c-0.264,0.786-0.392,1.444-0.392,1.968c0,0.489,0.128,0.865,0.392,1.127c0.599,0.601,1.856,0.9,3.772,0.9
		c0.711,0,1.63-0.338,2.754-1.015c0.642-0.372,1.224-0.776,1.747-1.208s0.979-0.911,1.352-1.437
		c0.188-0.227,0.338-0.168,0.448,0.169c0.263,0.639,0.36,1.369,0.285,2.196C350.517,399.476,350.383,399.89,350.195,400.075z
		 M338.038,386.06c0-0.639-0.635-0.976-1.911-1.014c-1.13-0.073-2.498,0.396-4.111,1.409c-1.535,1.013-2.777,2.233-3.714,3.657
		c-1.688,2.667-2.534,4.917-2.534,6.756c0,1.765,0.677,2.646,2.026,2.646c0.71,0,1.556-0.488,2.534-1.464
		c0.187-0.187,0.477-0.516,0.872-0.983c0.391-0.47,0.909-1.082,1.549-1.83c1.725-2.102,3.471-5.049,5.235-8.84
		C338.02,386.324,338.038,386.209,338.038,386.06z"/>
	<path d="M377.325,400.075c-1.572,1.575-3.411,2.532-5.516,2.87c-0.861,0.187-1.688,0.309-2.475,0.367
		c-0.791,0.056-1.52,0.062-2.195,0.025c-2.438-0.109-4.129-0.338-5.065-0.676c-0.338-0.148-0.658-0.187-0.961-0.11
		c-0.413,0.148-0.938,0.279-1.572,0.394c-0.641,0.113-1.391,0.245-2.252,0.394c0.107,0-0.136-0.025-0.734-0.085
		c-0.601-0.055-1.556-0.16-2.871-0.309c-0.297-0.037-0.541,0.056-0.728,0.283c-0.53,1.8-1.054,3.64-1.579,5.513
		c-0.523,1.879-1.07,3.83-1.63,5.855c-0.303,0.711-0.826,1.146-1.578,1.293c-1.764,0.451-3.056,0.451-3.883,0
		c-0.676-0.338-0.896-0.823-0.676-1.462c0.599-1.577,1.391-3.931,2.362-7.062c0.979-3.135,2.179-7.065,3.604-11.795
		c0.751-2.812,1.525-5.653,2.335-8.524c0.804-2.871,1.642-5.789,2.503-8.751c0.264-0.565,0.66-0.958,1.184-1.183
		c0.228-0.075,0.785-0.151,1.689-0.227c0.937,0,1.554,0.076,1.855,0.227c0.827,0.375,1.071,0.975,0.734,1.8
		c-0.152,0.412-0.408,1.202-0.763,2.363c-0.356,1.165-0.799,2.74-1.323,4.729c-0.074,0.299-0.074,0.469,0,0.506
		c0.077,0.076,0.171,0.038,0.279-0.114c3.231-3.788,6.005-5.683,8.333-5.683c0.861,0,1.672,0.186,2.422,0.562
		c2.213,1.089,3.319,2.758,3.319,5.012c0,0.675-0.109,1.874-0.338,3.601c-0.187,1.54-1.029,3.454-2.531,5.741
		c-1.057,1.577-1.898,2.682-2.533,3.319c-0.448,0.452-0.507,0.733-0.169,0.846c1.123,0.451,2.684,0.545,4.67,0.282
		c0.75-0.113,1.671-0.452,2.761-1.013c1.309-0.753,2.305-1.613,2.98-2.591c0.187-0.227,0.338-0.168,0.447,0.169
		c0.263,0.639,0.361,1.369,0.286,2.196C377.646,399.476,377.512,399.89,377.325,400.075z M366.209,386.088
		c-0.471-0.506-1.061-0.76-1.77-0.76c-0.489,0-0.996,0.151-1.521,0.452c-1.089,0.637-2.685,2.532-4.787,5.683
		c-1.992,3.04-3.173,5.179-3.545,6.417c-0.077,0.3-0.019,0.469,0.167,0.507c0.188,0.037,0.45-0.009,0.788-0.14
		c0.338-0.132,0.843-0.198,1.519-0.198c1.767,0,3.134,0.282,4.111,0.845c0.151,0.075,0.472-0.169,0.955-0.73
		c1.164-1.353,2.236-3.04,3.209-5.065c0.979-2.027,1.484-3.678,1.521-4.954C366.896,387.279,366.681,386.594,366.209,386.088z"/>
	<path d="M399.05,400.075c-1.576,1.575-3.411,2.553-5.513,2.926c-1.654,0.338-3.512,0.507-5.572,0.507
		c-4.316,0-7.354-0.711-9.119-2.138c-2.026-1.688-3.041-4.015-3.041-6.979c0-2.591,0.752-5.366,2.254-8.332
		c1.084-2.137,2.604-3.733,4.556-4.785c1.611-0.899,3.283-1.351,5.014-1.351c0.972,0,1.74,0.132,2.306,0.396
		c2.179,0.938,3.268,2.758,3.268,5.46c0,0.6-0.06,1.237-0.169,1.913c-0.304,1.802-1.654,3.997-4.052,6.586
		c-0.754,0.824-1.491,1.565-2.226,2.222c-0.733,0.658-1.456,1.249-2.167,1.771c-0.193,0.19-0.286,0.304-0.286,0.339
		c0,0.15,0.229,0.337,0.675,0.564c1.654,0.938,4.265,1.237,7.827,0.899c2.33-0.226,4.298-1.428,5.909-3.604
		c0.188-0.227,0.338-0.168,0.45,0.169c0.261,0.639,0.354,1.369,0.284,2.196C399.372,399.476,399.236,399.89,399.05,400.075z
		 M385.512,385.357c-0.92,0.693-1.642,1.605-2.166,2.728c-1.197,2.516-1.799,4.618-1.799,6.307c0,1.2,0.373,1.537,1.123,1.013
		c2.516-1.578,4.426-3.49,5.742-5.742c0.827-1.388,1.24-2.533,1.24-3.435c0-1.275-0.547-1.914-1.637-1.914
		C387.266,384.314,386.432,384.662,385.512,385.357z"/>
	<path d="M422.354,400.075c-1.652,1.65-3.486,2.607-5.514,2.87c-3.418,0.562-5.938,0.47-7.57-0.282
		c-1.636-0.749-2.45-1.875-2.45-3.378c0-0.373,0.058-0.822,0.168-1.352c0.188-0.86,0.426-1.761,0.705-2.699
		c0.279-0.937,0.629-1.951,1.043-3.04c0.6-1.689,1.048-2.778,1.351-3.267c0.262-0.449,0.262-0.955,0-1.52
		c-0.262-0.524-1.014-1.123-2.254-1.798c-0.303-0.19-0.542-0.021-0.733,0.507c-0.938,2.326-1.647,4.079-2.137,5.261
		c-0.49,1.182-0.752,1.811-0.787,1.887c-1.577,3.115-3.545,5.647-5.909,7.599c-1.468,1.124-3.022,1.818-4.677,2.081
		c-0.221,0.075-0.39-0.037-0.506-0.338c-0.263-0.562-0.391-1.183-0.391-1.856c0-0.338,0.074-0.524,0.222-0.562
		c1.351-0.299,2.438-0.751,3.267-1.351c0.601-0.451,1.443-1.295,2.531-2.533c0.753-0.938,1.689-2.55,2.815-4.842
		c1.237-2.512,2.192-4.99,2.869-7.43c0.039-0.149,0.069-0.254,0.087-0.309c0.018-0.056,0.028-0.103,0.028-0.14
		c-0.041-0.227-0.169-0.564-0.396-1.013c-0.229-0.452-0.339-0.92-0.339-1.409c0-0.149,0.013-0.318,0.028-0.507
		c0.02-0.187,0.047-0.373,0.082-0.562c0.413-2.136,1.485-3.188,3.209-3.149c1.469,0.037,2.271,0.955,2.423,2.757
		c0.034,0.337-0.059,0.823-0.279,1.462c-0.075,0.227-0.075,0.396,0,0.506c0.076,0.113,0.245,0.235,0.507,0.367
		c0.262,0.131,0.617,0.3,1.066,0.507c0.452,0.207,1.013,0.497,1.688,0.874c1.351,0.751,2.253,1.312,2.701,1.689
		c0.75,0.637,1.054,1.443,0.901,2.419c-0.109,0.6-0.769,2.364-1.969,5.291c-0.598,1.426-1.06,2.58-1.379,3.46
		c-0.321,0.884-0.519,1.49-0.594,1.828c-0.221,1.09,0.21,1.747,1.298,1.973c0.449,0.112,1.351,0.13,2.701,0.056
		c0.711-0.035,1.631-0.373,2.755-1.015c1.351-0.747,2.388-1.63,3.098-2.645c0.188-0.227,0.338-0.168,0.449,0.169
		c0.262,0.639,0.354,1.369,0.285,2.196C422.675,399.476,422.542,399.89,422.354,400.075z"/>
	<path d="M445.652,400.075c-1.572,1.575-3.413,2.532-5.515,2.87c-1.089,0.187-2.322,0.245-3.716,0.169
		c-1.612-0.113-2.66-0.338-3.149-0.676c-0.187-0.113-0.413-0.131-0.675-0.056c-0.903,0.337-1.37,0.524-1.41,0.562
		c-0.675,0.147-1.663,0.262-2.98,0.338c-2.736,0.147-4.879-0.562-6.417-2.141c-0.228-0.187-0.413-0.203-0.565-0.057
		c-1.124,0.901-2.551,1.521-4.271,1.858c-0.338,0-0.524-0.113-0.566-0.338c-0.261-0.562-0.396-1.183-0.396-1.856
		c0-0.377,0.077-0.583,0.229-0.62c1.949-0.338,3.865-1.556,5.74-3.658c0.523-0.599,1.165-1.396,1.916-2.392
		c0.752-0.993,1.613-2.184,2.585-3.573c2.178-3.077,3.436-5.124,3.774-6.137c0.033-0.262-0.048-0.626-0.258-1.098
		c-0.203-0.469-0.31-0.946-0.31-1.435c0-0.149,0.012-0.309,0.03-0.478c0.017-0.169,0.047-0.347,0.087-0.536
		c0.186-0.938,0.787-1.707,1.8-2.307c1.088-0.675,2.102-0.992,3.038-0.957c1.841,0.076,2.738,0.809,2.703,2.194
		c-0.076,0.489-0.32,1.127-0.734,1.914c-0.262,0.526-0.466,0.949-0.616,1.266c-0.151,0.321-0.263,0.557-0.338,0.705
		c-0.187,0.527-0.187,0.866,0,1.014c0.373,0.3,0.733,0.714,1.071,1.238c0.337,0.526,0.693,1.165,1.065,1.915
		c0.938,1.838,1.367,3.733,1.299,5.684c-0.041,0.526-0.146,1.097-0.314,1.718c-0.169,0.617-0.437,1.283-0.814,1.998
		c-0.561,1.013-1.014,1.688-1.353,2.025c-0.262,0.263-0.244,0.497,0.06,0.704c0.297,0.206,1.239,0.271,2.812,0.195
		c0.717-0.035,1.636-0.373,2.761-1.015c1.352-0.747,2.382-1.63,3.092-2.645c0.192-0.227,0.338-0.168,0.454,0.169
		c0.264,0.639,0.355,1.369,0.278,2.196C445.975,399.476,445.847,399.89,445.652,400.075z M433.046,392.59
		c0-1.39-0.204-2.533-0.617-3.434c-0.109-0.262-0.261-0.357-0.446-0.282c-0.193,0-0.339,0.131-0.455,0.393
		c-0.15,0.337-1.031,1.578-2.645,3.715c-1.428,1.802-2.383,2.984-2.87,3.547c-0.188,0.262-0.279,0.449-0.279,0.562
		c0,0.228,0.222,0.413,0.675,0.563c0.636,0.302,1.066,0.938,1.293,1.914c0.076,0.3,0.472,0.338,1.183,0.112
		c1.799-0.6,3.058-2.046,3.772-4.333C432.918,394.561,433.046,393.641,433.046,392.59z"/>
</g>
<path d="M299.058,387.939c0,13.967-11.329,25.292-25.296,25.292c-13.966,0-25.292-11.324-25.292-25.292
	c0-13.97,11.326-25.292,25.292-25.292C287.729,362.647,299.058,373.97,299.058,387.939z"/>
<circle fill="#B2C4DE" cx="273.762" cy="387.939" r="23.19"/>
<g>
	<path d="M265.043,379.894c-0.102-0.396-0.212-0.697-0.326-0.906c-0.113-0.206-0.245-0.385-0.39-0.53
		c-0.25-0.247-0.622-0.372-1.121-0.372c-0.521,0-0.946,0.167-1.281,0.498c-0.312,0.355-0.466,0.905-0.466,1.654v2.71h2.9v1.904h-2.9
		v11.442h2.9v1.903h-4.991v-1.403h-0.031v-11.942h-2.275v-1.904h2.275v-2.399c0-0.643,0.089-1.231,0.267-1.761
		c0.175-0.53,0.451-0.993,0.824-1.389c0.708-0.81,1.642-1.217,2.807-1.217c1.039,0,1.881,0.323,2.526,0.966
		c0.312,0.335,0.566,0.693,0.764,1.077c0.198,0.385,0.338,0.848,0.422,1.39L265.043,379.894z"/>
	<path d="M277.423,396.294c-1.433,1.562-3.243,2.341-5.424,2.341c-2.184,0-3.991-0.779-5.427-2.341
		c-1.456-1.517-2.184-3.419-2.184-5.708c0-2.285,0.728-4.186,2.184-5.706c1.436-1.558,3.243-2.338,5.427-2.338
		c2.182,0,3.991,0.78,5.424,2.338c1.456,1.52,2.184,3.421,2.184,5.706C279.606,392.875,278.878,394.777,277.423,396.294z
		 M275.927,386.223c-1.02-1.144-2.329-1.714-3.928-1.714c-1.602,0-2.91,0.57-3.931,1.714c-1.018,1.145-1.528,2.601-1.528,4.364
		c0,1.769,0.51,3.224,1.528,4.368c1.021,1.144,2.329,1.715,3.931,1.715c1.599,0,2.908-0.571,3.928-1.715
		c1.018-1.144,1.528-2.599,1.528-4.368C277.455,388.823,276.945,387.367,275.927,386.223z"/>
	<path d="M290.458,384.601c-2.056,0-3.576,0.427-4.551,1.278c-0.958,0.854-1.436,2.205-1.436,4.056v6.359h3.025v1.903h-5.146v-1.653
		v-11.692h-2.807v-1.904h4.927v2.029c0.186-0.27,0.417-0.549,0.687-0.844c0.268-0.288,0.571-0.53,0.903-0.716
		c0.291-0.146,0.62-0.28,0.984-0.404c0.363-0.125,0.743-0.225,1.139-0.297c0.393-0.074,0.789-0.128,1.185-0.172
		c0.392-0.041,0.757-0.049,1.089-0.029l0.844,0.029v2.059h-0.843V384.601z"/>
</g>
<g>
	<path fill="#FFFFFF" d="M265.043,379.288c-0.102-0.396-0.212-0.696-0.326-0.906c-0.113-0.207-0.245-0.385-0.39-0.53
		c-0.25-0.247-0.622-0.373-1.121-0.373c-0.521,0-0.946,0.167-1.281,0.499c-0.312,0.355-0.466,0.905-0.466,1.654v2.71h2.9v1.904h-2.9
		v11.442h2.9v1.905h-4.991v-1.403h-0.031v-11.942h-2.275v-1.904h2.275v-2.399c0-0.643,0.089-1.231,0.267-1.761
		c0.175-0.53,0.451-0.993,0.824-1.389c0.708-0.81,1.642-1.217,2.807-1.217c1.039,0,1.881,0.324,2.526,0.967
		c0.312,0.335,0.566,0.693,0.764,1.077c0.198,0.385,0.338,0.848,0.422,1.39L265.043,379.288z"/>
	<path fill="#FFFFFF" d="M277.423,395.688c-1.433,1.561-3.243,2.34-5.424,2.34c-2.184,0-3.991-0.779-5.427-2.34
		c-1.456-1.517-2.184-3.418-2.184-5.707c0-2.285,0.728-4.186,2.184-5.706c1.436-1.559,3.243-2.338,5.427-2.338
		c2.182,0,3.991,0.779,5.424,2.338c1.456,1.52,2.184,3.42,2.184,5.706C279.606,392.27,278.878,394.171,277.423,395.688z
		 M275.927,385.617c-1.02-1.144-2.329-1.715-3.928-1.715c-1.602,0-2.91,0.571-3.931,1.715c-1.018,1.145-1.528,2.601-1.528,4.364
		c0,1.768,0.51,3.224,1.528,4.368c1.021,1.145,2.329,1.714,3.931,1.714c1.599,0,2.908-0.569,3.928-1.714
		c1.018-1.144,1.528-2.6,1.528-4.368C277.455,388.218,276.945,386.762,275.927,385.617z"/>
	<path fill="#FFFFFF" d="M290.458,383.996c-2.056,0-3.576,0.428-4.551,1.277c-0.958,0.854-1.436,2.205-1.436,4.056v6.359h3.025
		v1.905h-5.146v-1.654v-11.692h-2.807v-1.904h4.927v2.029c0.186-0.271,0.417-0.55,0.687-0.844c0.268-0.288,0.571-0.53,0.903-0.717
		c0.291-0.146,0.62-0.279,0.984-0.404c0.363-0.126,0.743-0.224,1.139-0.297c0.393-0.074,0.789-0.128,1.185-0.171
		c0.392-0.042,0.757-0.05,1.089-0.03l0.844,0.03v2.058L290.458,383.996L290.458,383.996z"/>
</g>
</svg>
