<?xml version="1.0" standalone="no"?>
<!DOCTYPE svg PUBLIC "-//W3C//DTD SVG 1.1//EN" "http://www.w3.org/Graphics/SVG/1.1/DTD/svg11.dtd" >
<svg>
<metadata>
Created by FontForge 20120731 at Sun Oct 23 17:01:14 2016
 By ,,,
Copyright (c) 2016 by Clement Nicolle. All rights reserved.
</metadata>
<defs>
<font id="ThinkingOfBettyLight" horiz-adv-x="678" >
  <font-face 
    font-family="Thinking Of Betty Light"
    font-weight="400"
    font-stretch="normal"
    units-per-em="1000"
    panose-1="0 0 0 0 0 0 0 0 0 0"
    ascent="750"
    descent="-250"
    x-height="599.5"
    cap-height="1037"
    bbox="-1388.38 -808 1847 1490"
    underline-thickness="50"
    underline-position="-50"
    unicode-range="U+000D-FB02"
  />
<missing-glyph horiz-adv-x="357" 
 />
    <glyph glyph-name="Ar" unicode="Ar" horiz-adv-x="1369" 
d="M1369 453q4 8 10.5 11t11.5 1.5t7.5 -6.5t-1.5 -14q-10 -21 -30 -62t-47 -90.5t-58.5 -101.5t-64.5 -94.5t-65.5 -69.5t-60.5 -27q-26 0 -47.5 9.5t-36.5 25.5t-23 36t-8 40q0 38 14 83t31 85q20 47 46 93q-10 4 -21 11q-9 5 -20.5 14t-22.5 22q-6 -16 -23.5 -50
t-46 -68.5t-68 -60.5t-91.5 -26q-15 0 -29.5 1t-28.5 3q-15 -42 -23.5 -77t-8.5 -62q0 -61 13.5 -107.5t35.5 -80.5t49.5 -56.5t56.5 -35.5t56.5 -18.5t48.5 -5.5q32 0 55.5 6t40 15t27 19.5t16.5 20.5q5 10 10.5 10.5t10.5 -2.5q5 -4 9 -11q-13 -29 -38 -51
q-21 -19 -57.5 -34.5t-92.5 -15.5t-118 21t-114 67.5t-85.5 119t-33.5 176.5q0 28 7 62.5t20 73.5q-50 21 -94 50t-89 58q-77 -85 -154 -162.5t-146.5 -136.5t-127.5 -94t-97 -35q-79 0 -134 25.5t-87 67t-41 94.5t5.5 108.5t51 109t96 95t140.5 67t185 25.5q44 0 83.5 -9
t75.5 -24t69.5 -34.5t66.5 -40.5q57 63 114 128t109.5 127t100 119t86.5 103.5t68 81.5t45 53v1q0 17 18 15h2q12 -2 28.5 -11t31.5 -22.5t25.5 -30.5t10.5 -33q0 -26 -16 -70t-42.5 -100.5t-60 -121.5t-68 -132.5t-67 -134.5t-56.5 -127q10 -1 20 -1.5t21 -0.5q24 0 46 8.5
t41 22.5t35.5 31.5t29.5 36.5q31 43 54 99q-13 28 -13 63q0 31 7 61.5t18 55t24.5 39.5t27.5 15t32.5 -2.5t35.5 -8.5t28.5 -15.5t11.5 -23.5q0 -15 -11 -35t-24.5 -43.5t-24.5 -49.5t-11 -52q0 -36 15 -56t32.5 -32t32.5 -20.5t15 -22.5q0 -10 -11 -35.5t-26 -58t-30 -68
t-23 -65t-5 -48.5t25 -19q18 0 44 25t54.5 64.5t57.5 88t54 95t44.5 85t28.5 59.5zM-123 -8q35 0 87 32t115 86t134.5 125.5t144.5 151.5q-61 40 -124.5 69t-138.5 29q-78 0 -144 -36.5t-112.5 -91.5t-72 -118.5t-23.5 -118.5t34 -91.5t100 -36.5zM424 389q42 -27 83 -52.5
t87 -44.5q28 78 68.5 167t83 176.5t80 166.5t59.5 138q-24 -30 -70 -88t-107.5 -132.5t-134 -160t-149.5 -170.5z" />
    <glyph glyph-name="As" unicode="As" horiz-adv-x="1394" 
d="M1395 452q4 8 10.5 11t11.5 1.5t7.5 -7t-1.5 -13.5q-9 -19 -26 -55t-42.5 -80t-58 -91.5t-73 -89.5t-88.5 -74.5t-103 -45.5h-3q-32 -8 -63 -8h-6q-51 0 -78.5 18.5t-38 40.5t-8.5 40.5t11 18.5q8 0 11.5 -11.5t9.5 -25t20 -24.5t43 -11q20 0 43 14t42 38t31.5 56.5
t12.5 69.5q0 28 -8.5 51.5t-20.5 46t-25 46t-23 50.5q-33 -55 -73 -98q-17 -18 -38 -36t-44 -31.5t-49 -22t-54 -8.5q-7 0 -13 0.5t-13 0.5q-16 -44 -25.5 -80.5t-9.5 -65.5q0 -61 13.5 -107.5t35.5 -80.5t49.5 -56.5t56.5 -35.5t56.5 -18.5t48.5 -5.5q31 0 55 6t40.5 15
t27 20t15.5 20q6 10 11 11t10 -2q4 -4 9 -11q-13 -29 -38 -51q-21 -19 -57 -34.5t-93 -15.5q-56 0 -117.5 21t-113 67t-85 118.5t-33.5 176.5q0 55 26 135q-51 19 -96 47.5t-88 58.5q-77 -84 -153.5 -161t-145 -135.5t-126.5 -93.5t-97 -35q-79 0 -134 25.5t-86.5 67
t-40.5 94.5t5 108.5t50.5 108.5t95.5 94.5t140.5 67t184.5 25.5q46 0 85.5 -9t75 -24.5t68 -35.5t63.5 -42q87 95 170.5 193t154 182.5t123.5 147.5t77 90v1q0 18 18 16h2q12 -2 28.5 -11t31.5 -22.5t25 -30.5t10 -33q0 -26 -16 -69.5t-41.5 -99t-58.5 -119.5t-67 -130.5
t-66 -133t-57 -126.5h9q26 0 50.5 8.5t47 22t42 31t36.5 35.5q39 43 71 98q-4 17 -4 40q0 42 15.5 77t38 60t46.5 39t42 14q9 0 22.5 -1.5t26 -6.5t22 -14t9.5 -24t-13.5 -28.5t-30 -31t-30 -40t-13.5 -54.5q0 -41 13.5 -73t30 -62t30 -62t13.5 -71q0 -56 -19 -102
q47 40 85 90t66 98t46.5 87t27.5 57zM-122 -9q35 0 86.5 31.5t114.5 85t133.5 124.5t143.5 150q-29 20 -58.5 38.5t-61.5 32t-66.5 21.5t-73.5 8q-78 0 -143.5 -36.5t-112.5 -91t-72.5 -118t-23.5 -118t34 -91t100 -36.5zM421 382q41 -28 82.5 -53t89.5 -42
q28 78 68.5 167.5t82.5 176.5t80 166.5t60 138.5q-24 -30 -70.5 -88.5t-108 -133.5t-134.5 -161t-150 -171z" />
    <glyph glyph-name="tt" unicode="tt" horiz-adv-x="764" 
d="M766 454q4 8 10.5 11t12 1.5t8 -7t-1.5 -14.5q-10 -21 -32.5 -62t-54 -90.5t-70.5 -101.5t-82 -94.5t-88.5 -69.5t-89.5 -27q-17 0 -38 9.5t-40 28.5t-32 45.5t-14 61.5q-20 -30 -42 -56.5t-46 -46t-50 -31t-54 -11.5q-17 0 -38.5 10t-40.5 28.5t-32 46t-13 62.5
q0 19 15 65.5t40 108.5t55.5 135t62.5 145q-20 -1 -38.5 -1h-36.5q-29 0 -45 13t-22 28t-4 28t10 13q7 0 11 -2t8.5 -4t11 -4t17.5 -2q29 0 59 1t61 3q23 52 43 98.5t35 83t24 60t9 29.5q0 17 15 15t33.5 -16t33.5 -36t15 -45q0 -8 -22 -56.5t-55 -121.5q51 5 101 9.5
t99 9.5q28 66 46.5 110.5t18.5 53.5q0 17 15 15t33.5 -16t33.5 -36t15 -45q0 -5 -8 -24t-22 -49q14 1 28.5 1h28.5q28 0 49 -13.5t32.5 -30t12 -30t-12.5 -13.5q-7 0 -11 1t-8.5 2.5t-11 3t-18.5 1.5q-30 0 -62 -1t-64 -3q-25 -54 -54 -118.5t-55.5 -129t-47.5 -125
t-31 -107.5t-6 -75t29 -28q32 0 69 25.5t74.5 64.5t73 87t65 93t50.5 82t30 54zM292 278q14 37 31.5 79t36.5 87t39 90t39 88q-50 -3 -99.5 -7t-98.5 -7q-27 -60 -54.5 -124.5t-52 -127t-43 -118.5t-26 -98t-3 -67t26.5 -25q28 0 56 20.5t54 53t50 73.5t44 83z" />
    <glyph glyph-name="ft" unicode="ft" horiz-adv-x="661" 
d="M622 714q28 0 49.5 -13.5t33 -30t12 -30t-12.5 -13.5q-7 0 -11.5 1t-9 2.5t-10.5 3t-18 1.5q-31 0 -62.5 -1t-64.5 -3l-8 -1q-27 -59 -57 -125.5t-57 -131t-48.5 -123.5t-32 -104t-7 -71.5t27.5 -26.5q21 0 50.5 25.5t61.5 64.5t65 87t60.5 93t48 82t29.5 54q4 8 10.5 11
t12 1.5t8 -7t-1.5 -14.5q-10 -21 -32 -62t-52 -90.5t-65.5 -101.5t-73.5 -94.5t-75.5 -69.5t-71.5 -27q-17 0 -38.5 10t-40.5 28.5t-32 46t-13 62.5q0 16 19 63.5t48 114t65 144t69 153.5l-188 -12q-38 -97 -80 -201t-86 -204.5t-89.5 -190.5t-91.5 -157.5t-91.5 -107.5
t-89.5 -40q-14 0 -22 4t-9.5 9.5t4 9.5t18.5 4q23 0 49.5 37.5t56 102t62.5 150t68.5 181.5t73.5 197t78 197q-17 -1 -33 -1h-32q-29 0 -44.5 13t-22 28t-4.5 28t10 13q7 0 11.5 -2l9 -4t11 -4t17.5 -2q54 0 108 3q2 5 4 9t4 9l26 54q33 67 66.5 124.5t68.5 99t71 65
t73 23.5q28 0 43.5 -11.5t21 -26t1 -26t-14.5 -11.5q-11 0 -13.5 7.5t-4 16.5t-5.5 16.5t-17 7.5q-12 0 -28.5 -21.5t-36 -59.5t-42 -91t-47.5 -116l-23 -56v-1q50 5 98.5 9.5t96.5 9.5q32 76 52.5 135t20.5 86q0 17 15 15t33.5 -16t33.5 -36t15 -45q0 -14 -13 -48t-34 -83
l10 1q14 1 28 1h28z" />
    <glyph glyph-name="li" unicode="ll" horiz-adv-x="704" 
d="M704 450q4 9 10.5 12t12 1.5t8 -7t-1.5 -14.5q-10 -21 -32.5 -62t-54 -90t-68.5 -100t-76 -93t-77.5 -69t-72.5 -27q-44 0 -72 33.5t-28 90.5q0 16 7.5 43.5t20.5 62.5q-30 -43 -62.5 -84.5t-65.5 -73.5t-65.5 -52t-61.5 -20q-44 0 -72 33.5t-28 90.5q0 22 14.5 67
t38.5 104t54.5 127.5t62.5 139.5t62.5 139t54.5 125.5t38.5 100t14.5 62.5q0 17 16 14t35.5 -18.5t35.5 -39t16 -46.5q0 -25 -18 -74t-46 -113t-63 -137t-69 -145.5t-63 -139.5t-46.5 -118.5t-19.5 -82t20 -30.5q19 0 44.5 19.5t53.5 50.5t57.5 70.5t56 79.5t48.5 76.5
t37 62.5q35 76 72.5 156t68.5 150t51 123.5t20 77.5q0 17 16 14t35.5 -18.5t35.5 -39t16 -46.5q0 -25 -17 -71.5t-43.5 -105.5t-60 -126.5t-65.5 -134t-59.5 -127.5t-43.5 -108t-17 -75t21 -28t51 24t61.5 62t64.5 83.5t59.5 89t48 79t29.5 52.5z" />
    <glyph glyph-name="rr" unicode="rr" horiz-adv-x="760" 
d="M762 453q4 8 10.5 11t11.5 1.5t7.5 -6.5t-1.5 -14q-10 -21 -30 -62t-47 -90.5t-58.5 -101.5t-64.5 -94.5t-65.5 -69.5t-60.5 -27q-26 0 -47.5 9.5t-36.5 25.5t-23 36t-8 40q0 38 14 83t31 85q20 47 46 93q-5 1 -9 4q-5 2 -10 4.5t-12 7.5q-15 -30 -37 -70.5t-48.5 -83.5
t-55.5 -85t-58.5 -75t-58 -53.5t-53.5 -20.5q-26 0 -47.5 9.5t-36.5 25.5t-23 36t-8 40q0 38 14 83t31 85q20 47 46 93q-28 6 -50 24q-19 15 -34.5 44t-15.5 80q0 31 7 61.5t18 55t24.5 39.5t27.5 15t32.5 -2.5t35.5 -8.5t28.5 -15.5t11.5 -23.5q0 -15 -11 -35t-24.5 -43.5
t-24.5 -49.5t-11 -52q0 -36 15 -56t32.5 -32t32.5 -20.5t15 -22.5q0 -10 -11 -35.5t-26 -58t-30 -68t-23 -65t-5 -48.5t25 -19q16 0 39 19.5t48.5 51t52.5 72t51.5 81.5t45.5 79t35 66q-23 18 -42 46t-19 69q0 56 18 99.5t46.5 73.5t63 46t68.5 16q24 0 30 -19.5t-0.5 -50.5
t-22 -68.5t-33 -72.5t-34.5 -64t-26 -42q7 -5 25.5 -17.5t38.5 -28t35.5 -32t15.5 -30.5q0 -10 -11 -35.5t-26 -58t-30 -68t-23 -65t-5 -48.5t25 -19q18 0 44 25t54.5 64.5t57.5 88t54 95t44.5 85t28.5 59.5zM518 719q-8 0 -21.5 -18t-29 -46t-29.5 -61t-23.5 -63t-11 -52.5
t8.5 -28.5q10 17 24.5 44t30 57t29.5 60t22.5 54t9 39t-9.5 15z" />
    <glyph glyph-name="ss" unicode="ss" horiz-adv-x="835" 
d="M87 224q0 37 -14.5 68t-31.5 62t-31.5 65.5t-14.5 80.5q0 42 15.5 77t38 60t46.5 39t42 14q9 0 22.5 -1.5t26 -6.5t22 -14t9.5 -24t-13.5 -28.5t-30 -31t-30 -40t-13.5 -54.5q0 -41 13.5 -73t30 -62t30 -62t13.5 -71q0 -56 -19 -102q37 27 72.5 59.5t67.5 67t58.5 67.5
t46.5 60q-14 27 -24.5 57.5t-10.5 68.5q0 42 15.5 77t38 60t46.5 39t42 14h3q31 -1 45.5 -14t16.5 -33.5t-5 -46t-18.5 -50t-24.5 -47t-22 -36.5q5 -34 19 -62.5t28.5 -56t26 -57t11.5 -65.5q0 -56 -19 -102q47 40 85 90t66 98t46.5 87t27.5 57q4 8 10.5 11t11.5 1.5t7.5 -7
t-1.5 -13.5q-9 -19 -26 -55t-42.5 -80t-58 -91.5t-73 -89.5t-88.5 -74.5t-103 -45.5h-3q-32 -8 -63 -8h-6q-51 0 -78.5 18.5t-38 40.5t-8.5 40.5t11 18.5q8 0 11.5 -11.5t9.5 -25t20 -24.5t43 -11q20 0 43 14t42 38t31.5 56.5t12.5 69.5q0 33 -12 61.5t-28 57.5
q-29 -43 -71.5 -95t-94 -100t-111 -86t-123.5 -54h-3q-32 -8 -63 -8h-6q-51 0 -78.5 18.5t-38 40.5t-8.5 40.5t11 18.5q8 0 11.5 -11.5t9.5 -25t20 -24.5t43 -11q20 0 43 14t42 38t31.5 56.5t12.5 69.5zM574 646q-11 0 -21 -16.5t-17 -40.5t-9.5 -50t2.5 -44q23 42 37 75
q6 14 11 28t6.5 24.5t-0.5 17t-9 6.5z" />
    <glyph glyph-name=".notdef" horiz-adv-x="357" 
 />
    <glyph glyph-name=".null" horiz-adv-x="0" 
 />
    <glyph glyph-name="nonmarkingreturn" unicode="&#xd;" horiz-adv-x="357" 
 />
    <glyph glyph-name="NULL" horiz-adv-x="0" 
 />
    <glyph glyph-name="NULL" horiz-adv-x="0" 
 />
    <glyph glyph-name="space" unicode=" " horiz-adv-x="357" 
 />
    <glyph glyph-name="exclam" unicode="!" horiz-adv-x="509" 
d="M331 937q0 14 16.5 11t36 -17t36 -36.5t16.5 -47.5q0 -21 -20.5 -63.5t-52 -96t-67.5 -114t-67.5 -118t-52 -107t-20.5 -81.5q0 -14 -13 -11t-28.5 17.5t-28.5 37t-13 48.5q0 25 19 68.5t48 96.5t62 112t62 114.5t48 104.5t19 82zM36 224q14 0 27 -6t23.5 -15t17 -20
t6.5 -22t-9 -27.5t-20.5 -35.5t-20.5 -38.5t-9 -36.5q0 -20 -15 -20.5t-32.5 10t-32.5 28.5t-15 34t9.5 41.5t22 49.5t26 41t22.5 17z" />
    <glyph glyph-name="quotedbl" unicode="&#x22;" horiz-adv-x="382" 
d="M92 902q0 12 12 10.5t27 -13t27 -30t12 -40.5q0 -12 -12 -37t-27 -53t-27 -55t-12 -45q0 -10 -14.5 -10t-31.5 7.5t-31.5 21.5t-14.5 32q0 11 14.5 37t31.5 57.5t31.5 63t14.5 54.5zM255 876q0 12 13 11t28.5 -12.5t28.5 -32t13 -45.5q0 -9 -14 -30t-30.5 -46t-30 -50
t-13.5 -43q0 -10 -13.5 -10.5t-29 6t-29 19t-13.5 30.5q0 11 14 38t31 58t31 60.5t14 46.5z" />
    <glyph glyph-name="numbersign" unicode="#" horiz-adv-x="833" 
d="M733 515q9 4 9.5 -8.5t-6 -29.5t-19 -32.5t-28.5 -17.5q-14 -2 -58 -0.5t-106 5.5q-24 -51 -50 -103q68 -1 121 3t79 15q9 4 12 -7.5t-0.5 -28.5t-13.5 -34.5t-26 -25.5q-8 -3 -26.5 -4t-46 -0.5t-62.5 2.5t-74 4q-17 -38 -32.5 -73t-27 -66t-18.5 -56t-7 -42
q0 -12 -12 -14t-26 5.5t-26 23t-12 38.5t19.5 73.5t48.5 116.5q-30 2 -61 4l-62 4q-19 -40 -35.5 -77.5t-28.5 -70t-19 -59t-7 -44.5q0 -12 -12 -14t-26.5 5.5t-26.5 23t-12 38.5q0 12 5.5 31.5t15.5 46t23.5 57.5t28.5 65q-57 1 -101 -2t-67 -14q-9 -4 -11 5.5t2.5 23.5
t15.5 29t28 23q17 7 61 7.5t105 -1.5q12 26 24 51t25 51q-66 -1 -116.5 -5.5t-75.5 -15.5q-10 -4 -12 5.5t3 23.5t16 29t28 23t68 8t120 -2q18 38 34 72t28 61t19 45.5t7 26.5q0 13 11 15.5t24 -3.5t24 -21t11 -38q0 -18 -18 -61t-45 -102q31 -1 61.5 -2t60.5 -2
q19 39 35.5 74.5t29.5 64t20.5 48t7.5 27.5q0 13 11.5 12.5t25 -9t25 -23.5t11.5 -31q0 -18 -19 -62t-47 -103q60 0 105.5 3.5t69.5 14.5zM378 331q12 26 25 52.5t26 52.5q-31 2 -61.5 3t-61.5 2q-13 -26 -25.5 -52t-25.5 -52z" />
    <glyph glyph-name="dollar" unicode="$" horiz-adv-x="659" 
d="M600 809q0 -26 -14 -52.5t-31 -53t-31 -51.5t-14 -47q0 -10 4 -20t-7 -10q-8 0 -17.5 4t-17.5 12t-13.5 18.5t-5.5 24.5q0 24 15 51.5t33.5 55t33.5 54.5t15 51q0 12 -12.5 20.5t-30.5 8.5q-2 0 -3.5 -0.5t-3.5 -0.5q-16 -40 -38 -93t-47.5 -115t-54.5 -129.5t-58 -136.5
q28 -12 56.5 -24.5t51.5 -27.5t38 -32.5t15 -39.5q0 -23 -14.5 -53t-39 -62t-57 -62t-68 -54t-72.5 -38.5t-71 -14.5h-9q-19 -46 -30 -75t-11 -35q0 -7 -7.5 -5t-17 8t-17 14t-7.5 13q0 4 9.5 28t26.5 64q-43 17 -70 46t-27 55q0 17 13 48.5t30.5 62t35 53.5t26.5 23
q12 0 22.5 -14t10.5 -25q0 -4 -8 -20t-19 -37.5t-22 -46t-18 -45t-6.5 -34t12.5 -13.5q11 0 22 1t22 4q27 63 62 144t74 169q-25 9 -48.5 21t-42 27.5t-29.5 35.5t-11 47q0 16 13.5 48.5t38 71.5t57.5 81.5t71.5 80t81 65t86.5 37.5q17 44 27 72.5t10 36.5q0 7 6 5.5
t12.5 -8.5t12.5 -17t6 -21q0 -4 -5.5 -21t-15.5 -43q17 -2 33.5 -7.5t29.5 -16t21 -25.5t8 -36zM378 298q0 20 -27.5 32.5t-66.5 26.5q-31 -73 -60 -142.5t-54 -129.5q42 20 79.5 49t66 59t45.5 58.5t17 46.5zM258 421q47 109 91.5 213.5t78.5 187.5q-24 -25 -49.5 -57.5
t-50.5 -68t-46.5 -71.5t-38.5 -66.5t-26.5 -53.5t-9.5 -33q0 -14 14 -27t37 -24z" />
    <glyph glyph-name="percent" unicode="%" horiz-adv-x="480" 
d="M141 555q-9 0 -22 4.5t-24.5 13.5t-20 23t-8.5 34q0 19 13.5 44t34 47.5t44.5 37.5t44 15q18 0 34.5 -6.5t28.5 -17.5t19 -24.5t7 -26.5q0 -23 -11 -48.5t-30.5 -46.5t-47 -35t-61.5 -14zM224 725q-12 0 -30 -14.5t-35.5 -34.5t-29.5 -41t-12 -34q0 -5 1 -9.5t6 -4.5
q21 0 40.5 12t34.5 30t24 38.5t9 38.5q0 19 -8 19zM524 709q0 -20 -31.5 -63.5t-79 -100t-102.5 -121t-102.5 -127t-79 -117.5t-31.5 -93q0 -24 7.5 -43.5t13 -33t3.5 -20.5t-21 -7q-15 0 -32.5 11.5t-33 31t-25.5 44.5t-10 53q0 43 32.5 101t81.5 123t105.5 132.5
t105.5 129.5t81.5 114t32.5 86q0 14 13.5 9.5t29 -20t29 -39.5t13.5 -50zM316 261q18 0 34.5 -6.5t28.5 -17.5t19 -24.5t7 -26.5q0 -23 -11 -48.5t-31 -46.5t-47.5 -35t-61.5 -14q-9 0 -21.5 4.5t-24 13.5t-20 23t-8.5 34q0 19 13.5 44t34 47.5t44.5 37.5t44 15zM238 74
q20 0 39.5 12t34.5 30t24.5 38.5t9.5 38.5t-8 18q-12 0 -30 -14.5t-35.5 -34.5t-29.5 -41t-12 -34q0 -4 1 -8.5t6 -4.5z" />
    <glyph glyph-name="ampersand" unicode="&#x26;" horiz-adv-x="669" 
d="M570 45q0 13 7.5 14t17 -5.5t17 -17.5t7.5 -23q0 -8 -5.5 -26t-22.5 -36.5t-47.5 -32.5t-80.5 -14q-54 0 -114.5 35.5t-109.5 107.5q-44 -22 -84.5 -35t-75.5 -13q-30 0 -58 9t-49 28t-34 46.5t-13 65.5q0 27 18 61t49 72t70.5 79.5t83.5 83.5q6 90 30 162.5t58.5 123
t75.5 78t83 27.5q28 0 53 -9t44 -25.5t29.5 -39.5t10.5 -50q0 -35 -32.5 -80t-83.5 -95.5t-112.5 -104.5t-119.5 -106q8 -63 27.5 -121.5t48.5 -106.5q42 28 81.5 63t70 71t48.5 70.5t18 61.5q0 6 7 5t15 -7.5t15 -16.5t7 -21q0 -27 -20.5 -60t-54 -67.5t-77.5 -68
t-91 -60.5q39 -57 88 -90.5t102 -33.5q37 0 58 14t31 32t12 34.5t2 21.5zM400 806q-36 0 -70.5 -25t-63.5 -68.5t-50.5 -102.5t-30.5 -128q44 42 87 82.5t78.5 76.5t61 66t34.5 52t-1 34.5t-45 12.5zM82 28q31 0 66.5 12.5t72.5 33.5q-26 45 -44.5 100t-26.5 121
q-32 -30 -59.5 -58.5t-48 -54.5t-32 -49.5t-11.5 -43.5q0 -12 8 -23.5t20 -19.5t26.5 -13t28.5 -5z" />
    <glyph glyph-name="quotesingle" unicode="'" horiz-adv-x="224" 
d="M92 902q0 12 12 10.5t27 -13t27 -30t12 -40.5q0 -12 -12 -37t-27 -53t-27 -55t-12 -45q0 -10 -14.5 -10t-31.5 7.5t-31.5 21.5t-14.5 32q0 11 14.5 37t31.5 57.5t31.5 63t14.5 54.5z" />
    <glyph glyph-name="parenleft" unicode="(" horiz-adv-x="404" 
d="M539 897q7 0 9 -4.5t2 -9.5q0 -3 -32 -27.5t-80 -68.5t-104.5 -105t-104.5 -137t-80 -166t-32 -190q0 -51 7 -83t16 -51.5t16 -28t7 -12.5q0 -8 -7.5 -11.5t-17.5 -3.5q-24 0 -49 19t-44.5 52.5t-32 78.5t-12.5 98q0 51 18 106t49 110t71.5 108.5t85 102t91 89.5
t88.5 70.5t77.5 46.5t58.5 17z" />
    <glyph glyph-name="parenright" unicode=")" horiz-adv-x="484" 
d="M340 853q0 6 -2 13t-3 12t0 8.5t7 3.5q4 0 12 -8t16.5 -29.5t14.5 -59.5t6 -99q0 -64 -16 -140.5t-43.5 -154t-65 -149.5t-81 -128t-91 -89.5t-94.5 -33.5q-24 0 -46.5 10t-35.5 22t-11.5 22t25.5 10q42 -1 88.5 36.5t92 100t86.5 144t72.5 169.5t50 176t18.5 164z" />
    <glyph glyph-name="asterisk" unicode="*" horiz-adv-x="453" 
d="M457 796q17 0 25 -6.5t8 -13.5q0 -14 -18 -14q-9 0 -26 -6.5t-40.5 -17t-51 -24.5t-55.5 -29q9 -19 19 -37t19.5 -32.5t18 -23t14.5 -8.5q3 0 4.5 -2t0.5 -5t-5.5 -5t-14.5 -2q-21 0 -42.5 20t-41.5 50q-16 -38 -28.5 -65t-16.5 -27q-8 0 -19.5 9t-11.5 21q0 4 10 23.5
t24 47.5q-45 -24 -80 -41t-44 -17t-17 2.5t-11.5 6t-2.5 6t9 2.5q3 0 16.5 8t34.5 21t47 30t55 34q-11 22 -20.5 42.5t-16 37t-10 27.5t-3.5 14t10.5 2.5t23.5 -4.5t23.5 -10.5t10.5 -13.5q0 -3 6 -20t16 -40q20 38 34.5 68t14.5 39q0 5 9.5 -1t9.5 -16q0 -3 -8 -25.5
t-21 -54.5q41 22 78 36t64 14z" />
    <glyph glyph-name="plus" unicode="+" horiz-adv-x="610" 
d="M525 456q16 0 30 -7.5t21.5 -16t6 -16t-14.5 -7.5q-73 0 -136.5 -3t-118.5 -8q-19 -38 -37.5 -74.5t-33 -66t-23.5 -49.5t-9 -26q0 -15 -6 -18t-15 1.5t-19.5 14.5t-19.5 21t-15 21.5t-6 15.5t5.5 18.5t15 33t22 44t27.5 51.5q-62 -9 -99.5 -15.5t-48.5 -6.5t-23.5 6
t-20 13t-7.5 13t14 6q11 0 65.5 12t148.5 24q21 38 41.5 75t37 67t26.5 50t10 24q0 10 11.5 10t25.5 -6.5t25.5 -17t11.5 -22.5q0 -5 -6.5 -20.5t-17 -38t-24.5 -50.5t-29 -59q42 3 88 5t97 2z" />
    <glyph glyph-name="comma" unicode="," horiz-adv-x="299" 
d="M52 48q0 25 16.5 29t36.5 -4.5t36.5 -24t16.5 -28.5q0 -30 -17 -59.5t-43 -54t-56 -42.5t-56 -25t-43 -1t-17 29q0 7 19.5 21t43.5 36.5t43.5 53t19.5 70.5z" />
    <glyph glyph-name="hyphen" unicode="-" horiz-adv-x="538" 
d="M112 394q25 0 62.5 1t77 2.5t75 3t56.5 1.5q20 0 38 -10.5t29 -22.5t13 -22.5t-9 -10.5h-12t-8.5 0.5t-11 0.5h-17.5q-20 0 -49.5 0.5t-63 0.5t-67 0.5t-61.5 0.5q-27 0 -47.5 8.5t-32.5 19t-14 19t8 8.5h34z" />
    <glyph glyph-name="period" unicode="." horiz-adv-x="168" 
d="M59 -1q-6 0 -16 2.5t-19.5 8t-16.5 14t-7 20.5t4.5 25.5t11.5 25.5t15 20t14 8q21 0 38 -15t17 -31q0 -8 -4.5 -21t-11 -26t-13.5 -22t-12 -9z" />
    <glyph glyph-name="slash" unicode="/" horiz-adv-x="420" 
d="M80 -54q0 -14 -13 -11t-28 17.5t-28 37t-13 47.5q0 19 16 59.5t41.5 96t58.5 121t67.5 135t68 138t59 129t41.5 110t16 79.5q0 14 16.5 11t36 -17t36 -36.5t16.5 -47.5q0 -16 -17 -55t-44.5 -93.5t-62.5 -121t-71.5 -136.5t-71.5 -139.5t-62.5 -131.5t-44.5 -112t-17 -80
z" />
    <glyph glyph-name="zero" unicode="0" horiz-adv-x="722" 
d="M472 851q76 0 122 -36.5t65.5 -96.5t15 -136.5t-29.5 -156t-68.5 -156t-101 -136.5t-127.5 -96.5t-149 -36.5q-68 0 -111 29t-64 77t-22.5 110.5t12.5 129.5t41.5 134t65 124t82 99.5t93.5 60.5q36 33 81 60t95 27zM198 27q48 0 95.5 34.5t91 91t79.5 128.5t61.5 147
t37.5 147t6.5 128.5t-30.5 91t-74 34.5q-26 0 -53.5 -15t-54.5 -39q21 0 36.5 -11.5t23.5 -25t7.5 -25t-12.5 -11.5q-8 0 -12 1.5t-12 1.5q-37 0 -73 -29t-68.5 -77t-59 -108.5t-45 -124.5t-26.5 -124.5t-2.5 -108.5t25.5 -77t59 -29z" />
    <glyph glyph-name="one" unicode="1" horiz-adv-x="540" 
d="M569 783q0 -21 -21.5 -63t-53.5 -97.5t-70 -120t-70 -131.5t-53.5 -132.5t-21.5 -121.5q0 -31 7 -54t11 -38.5t1 -23.5t-22 -8q-23 0 -43 12t-35 32.5t-23.5 46.5t-8.5 54q0 61 25.5 135t63 150.5t79.5 151.5t74 140q-50 -57 -102 -108.5t-100 -92.5t-90.5 -68.5
t-73.5 -35.5t-54 1t-36.5 23t-16 28t8.5 17q6 1 10.5 -0.5t10 -4t13 -3.5t19.5 2q66 16 130 57.5t123.5 96t113.5 118t100 125.5v3q0 10 11 12q10 0 26 -8t31 -22.5t26 -33t11 -38.5z" />
    <glyph glyph-name="two" unicode="2" horiz-adv-x="653" 
d="M654 661q2 -39 -15 -75q-20 -43 -56.5 -87t-83.5 -87t-99.5 -84.5t-103.5 -80.5t-97 -75t-79 -67q37 7 86 13t102.5 6t108 -8.5t102.5 -31.5q15 -7 29.5 -19.5t24 -28.5t12 -33t-4.5 -33q-8 -16 -14.5 -15t-16 10t-22.5 23t-34 24q-45 21 -94.5 29t-97 8t-92 -6
t-80 -12.5t-59.5 -10.5t-32 0q-16 8 -22.5 25.5t-3.5 33.5q-9 20 -11.5 42t5.5 41q9 19 46 49t89 67t113 81t118 92t103.5 98.5t69.5 101.5q10 22 14.5 38t4.5 38q0 18 -7.5 33.5t-19.5 27t-28 18t-34 6.5q-35 0 -77.5 -15t-82.5 -40t-71.5 -56t-44.5 -62q-15 -35 -19.5 -57
t-4.5 -35.5t1.5 -20t-0.5 -11.5t-14 2t-22 28t-10.5 56.5t21.5 87.5q15 36 40 65t57 49.5t69.5 32t77.5 11.5q39 0 84 -10.5t83.5 -33t64 -57t27.5 -81.5v-2v-2v0z" />
    <glyph glyph-name="three" unicode="3" horiz-adv-x="650" 
d="M648 695q0 -35 -17 -64t-44 -54.5t-60.5 -46.5t-67.5 -39q21 -7 41.5 -20t37 -33t26.5 -47.5t10 -63.5q0 -63 -33 -123t-85.5 -107.5t-116.5 -76.5t-126 -29q-47 0 -82 12.5t-60 32t-40.5 42.5t-22.5 43q-10 26 -8 38.5t9.5 11.5t18.5 -14t20 -37q3 -7 9 -15.5t15.5 -16
t23.5 -12.5t32 -5q78 0 144 28t114 73t75 102t27 115q0 34 -10 51t-25.5 22t-35 0.5t-37.5 -12.5q-29 -15 -47.5 -28t-18.5 -25t-8.5 -11.5t-18.5 10t-18.5 26.5t-8.5 39q0 20 22 39t55 39t72 42.5t72 49.5t55 59t22 73q0 18 -7.5 33.5t-19.5 27t-28 18t-34 6.5
q-41 0 -78.5 -10.5t-68.5 -28.5t-53.5 -41t-32.5 -47q-11 -28 -15 -45t-4 -27.5t1 -15.5t0 -9q-2 -4 -13.5 2t-21 22.5t-12 44.5t14.5 69q12 28 37 50t58 38t71.5 24.5t77.5 8.5q40 0 79 -11t70 -33.5t50 -58t19 -83.5v-2z" />
    <glyph glyph-name="four" unicode="4" horiz-adv-x="717" 
d="M555 301q16 -8 30.5 -20.5t24 -28t12 -32.5t-4.5 -33q-8 -16 -14.5 -15t-16 10t-22.5 23t-34 24q-32 15 -71 24q-14 -40 -22.5 -77t-8.5 -71q0 -31 7 -54t11 -38.5t1 -23.5t-22 -8q-23 0 -43 12t-34.5 32.5t-23 46.5t-8.5 54q0 32 7 67t20 73q-56 1 -109 -4.5
t-96.5 -11.5t-73 -10.5t-37.5 -0.5q-39 19 -23 53q3 4 6 5q1 3 11 6q44 11 96 44.5t107 80.5t110.5 104t107 115t95.5 113t77 98v3q0 10 11 12q10 0 26 -8t31 -22.5t26 -33t11 -38.5q0 -23 -24 -68.5t-59.5 -106t-75.5 -131t-72 -141.5q18 -4 34.5 -9.5t32.5 -13.5zM191 323
q42 6 87 10.5t93 3.5q19 46 43 93.5t48.5 94t49 90.5t44.5 84q-43 -50 -90.5 -102.5t-95 -102t-93.5 -93.5t-86 -78z" />
    <glyph glyph-name="five" unicode="5" horiz-adv-x="543" 
d="M239 782q-6 -20 -28 -50.5t-46.5 -68t-44 -80t-19.5 -84.5v-8q29 14 66.5 23t77 10t77.5 -8t67.5 -31t48 -58t18.5 -90q0 -63 -33 -123t-85.5 -107.5t-116.5 -76.5t-126 -29q-47 0 -82 12.5t-60 32t-40.5 42.5t-22.5 43q-10 26 -8 38.5t9.5 11.5t18.5 -14t20 -37
q3 -7 9 -15.5t15.5 -16t23.5 -12.5t32 -5q78 0 144 28t114 73t75 102t27 115q0 38 -16 55.5t-41 21.5t-56 -2.5t-61 -15.5t-55.5 -17t-40.5 -8q-13 0 -27.5 9.5t-27 24t-21 31.5t-8.5 32q0 40 16 76.5t37 70.5t42 67t30 66q-2 5 -3 10t-1 13q0 12 5.5 19t10.5 10t15 0
q14 -2 39.5 -6.5t56.5 -10t65 -9.5t67 -4q43 0 69 6.5t40 15t19.5 15t8.5 6.5q6 0 9.5 -17t-6.5 -37.5t-37.5 -37.5t-83.5 -17q-55 0 -99 5t-77 11z" />
    <glyph glyph-name="six" unicode="6" horiz-adv-x="628" 
d="M527 864q45 0 76 -16t50 -38.5t27.5 -45.5t8.5 -36q0 -9 -4.5 -14.5t-9.5 -6t-9.5 4.5t-4.5 17t-6.5 22.5t-17 18.5t-23 13t-25.5 5q-63 0 -123.5 -28.5t-113.5 -75.5t-97.5 -108t-77.5 -126q38 34 86.5 58.5t109.5 24.5q64 0 104.5 -23t61 -60.5t22 -85t-13 -97.5
t-43 -97.5t-68.5 -85t-89 -60.5t-105 -23q-96 0 -151 37t-76.5 98t-12.5 138.5t41 158t83.5 158t115.5 138.5t137 98t148 37zM384 502q-51 0 -93.5 -21t-76 -52.5t-57.5 -69.5t-39 -71q-11 -51 -11 -96t13.5 -78.5t41.5 -53t72 -19.5q51 0 95 34t76.5 85.5t50.5 111t18 111
t-21.5 85.5t-68.5 34z" />
    <glyph glyph-name="seven" unicode="7" horiz-adv-x="597" 
d="M578 875q12 -3 24 -11t21 -19.5t14 -25t2 -27.5q-2 -12 -39 -46.5t-92 -85t-120 -113.5t-123.5 -132.5t-102.5 -141.5t-57 -140q-6 -31 -2 -57t7 -44t-1.5 -26t-28.5 -3q-24 4 -40.5 21t-26.5 40.5t-12.5 50t2.5 49.5q11 56 43 116.5t77 121t97.5 119t105 110t99 94
t79.5 71.5q-38 -11 -88 -23t-103 -18t-106.5 -4t-98.5 19q-15 6 -29 16.5t-24 24t-14 28.5t2 30t12 15t15 -8t22.5 -19.5t33.5 -18.5q56 -21 121 -21t126 9.5t111.5 22.5t77.5 18q5 9 16 8z" />
    <glyph glyph-name="eight" unicode="8" horiz-adv-x="747" 
d="M749 678q0 -37 -18 -72.5t-51 -66t-79 -53.5t-103 -33q53 -25 78 -68t25 -93.5t-25 -102t-72.5 -94t-117 -69t-158.5 -26.5q-82 0 -134 30.5t-75 78t-17 104t39.5 109t93 93t144.5 56.5q-50 23 -69.5 63t-14 86t33.5 93.5t74 85.5t106.5 62.5t130.5 24.5q37 0 64 -10.5
t44 -25.5t25.5 -31.5t10.5 -28.5q11 -6 22.5 -16t21 -24.5t15.5 -32.5t6 -39zM227 43q80 0 138 29t93 72.5t48 94t5 94t-37.5 72.5t-79.5 29q-60 0 -109.5 -29t-84.5 -72.5t-54.5 -94t-18 -94t25.5 -72.5t74 -29zM385 480q68 0 123.5 23t94.5 56t60.5 70t21.5 65t-7.5 47.5
t-14 32t-9 18t7.5 5.5q1 0 2 -1q-8 16 -27 30.5t-60 14.5q-60 0 -110 -26.5t-86.5 -67t-57.5 -87t-22 -87t19 -67t65 -26.5z" />
    <glyph glyph-name="nine" unicode="9" horiz-adv-x="668" 
d="M448 862q85 0 134 -37t67 -97.5t8.5 -138t-40 -158.5t-79 -158.5t-108.5 -138t-128.5 -97.5t-139.5 -37q-45 0 -76 16t-50 38t-27.5 44.5t-8.5 36.5q0 9 4.5 14.5t9.5 6t9.5 -4.5t4.5 -17q0 -11 6.5 -21.5t17 -18.5t23.5 -13t26 -5q65 0 127 30t117.5 79t101.5 112.5
t79 130.5q-38 -39 -90.5 -68.5t-119.5 -29.5q-64 0 -104.5 23t-61 60.5t-21.5 85t13.5 97.5t43 97.5t68.5 85t89 60.5t105 23zM592 651q0 3 3 0q3 37 -2.5 68.5t-20.5 54.5t-39.5 36t-60.5 13q-51 0 -92 -34t-70.5 -85.5t-45.5 -111.5t-15.5 -111.5t17.5 -85.5t55 -34
q47 0 85.5 17.5t68.5 45.5t52 61.5t36.5 66t21.5 59t7 40.5z" />
    <glyph glyph-name="colon" unicode=":" horiz-adv-x="202" 
d="M91 80q-6 0 -16 2.5t-19.5 8t-16.5 14t-7 20.5t4.5 25.5t11.5 25.5t15 20t14 8q21 0 38 -15t17 -31q0 -8 -4.5 -21t-11 -26t-13.5 -22t-12 -9zM166 310q-6 0 -16 2.5t-19.5 8t-16.5 14t-7 20.5t4.5 25.5t11.5 25.5t15 20t14 8q21 0 38 -15t17 -31q0 -8 -4.5 -21t-11 -26
t-13.5 -22t-12 -9z" />
    <glyph glyph-name="semicolon" unicode=";" horiz-adv-x="168" 
d="M52 48q0 -40 -19.5 -70.5t-43.5 -53t-43.5 -36.5t-19.5 -21q0 -23 16.5 -28.5t41.5 2t54.5 26t54.5 43.5t41.5 55t16.5 60q0 13 -15.5 28t-34 22.5t-34 2.5t-15.5 -30zM171 149q0 -12 -15 -11.5t-32.5 9.5t-32.5 23.5t-15 30.5t6.5 35t15.5 35t19.5 27t19.5 11
q14 0 27 -6t23.5 -15t17 -20t6.5 -21q0 -11 -6.5 -24t-14 -26.5t-13.5 -26t-6 -21.5z" />
    <glyph glyph-name="less" unicode="&#x3c;" horiz-adv-x="470" 
d="M337 580q0 11 12 7t27 -16.5t27 -30t12 -32.5q0 -8 -14 -23.5t-37 -36.5t-52.5 -45t-60.5 -48q-72 -56 -164 -123q55 -28 98 -52q18 -11 36 -21.5t32 -20t22.5 -17t8.5 -12.5q0 -9 -4.5 -13.5t-11.5 -4.5t-14 3t-13 9q-10 10 -32 23t-49 28t-56 32t-53 34t-39.5 34.5
t-15.5 33.5q0 11 25.5 32.5t63 48.5t82 57t82 59t63 54t25.5 41z" />
    <glyph glyph-name="equal" unicode="=" horiz-adv-x="445" 
d="M114 493q25 0 62.5 1t77 2.5t75 3t56.5 1.5q20 0 38 -10.5t29 -22.5t13 -22.5t-9 -10.5h-12t-8.5 0.5t-11 0.5h-17.5q-20 0 -49.5 0.5t-63 0.5t-67 0.5t-61.5 0.5q-27 0 -47.5 8.5t-32.5 19t-14 19t8 8.5h34zM60 311q25 0 62.5 1t77 2.5t75 3t56.5 1.5q20 0 38 -10.5
t29 -22.5t13 -22.5t-9 -10.5h-12t-8.5 0.5t-11 0.5h-17.5q-20 0 -49.5 0.5t-63 0.5t-67 0.5t-61.5 0.5q-27 0 -47.5 8.5t-32.5 19t-14 19t8 8.5h34z" />
    <glyph glyph-name="greater" unicode="&#x3e;" horiz-adv-x="470" 
d="M4 149q0 3 13 14t35 27.5t50 37t57 41.5q69 49 156 110q-8 7 -29 32t-45.5 55t-47 59.5t-34.5 44.5q-5 6 -1.5 12t10 8.5t14.5 1t13 -8.5q3 -5 20 -23.5t40.5 -44t50 -54.5t49 -56t37 -48t14.5 -30q0 -8 -17 -22.5t-44.5 -34.5t-63 -43t-72 -49t-71 -52.5t-60.5 -52.5
q-7 -7 -19.5 1.5t-24.5 22.5t-21 29.5t-9 22.5z" />
    <glyph glyph-name="question" unicode="?" horiz-adv-x="547" 
d="M81 209q14 0 27 -6t23.5 -15t17 -20t6.5 -22t-9 -27.5t-20.5 -35.5t-20.5 -38.5t-9 -36.5q0 -20 -15 -20.5t-32.5 10t-32.5 28.5t-15 34t9.5 41.5t22 49.5t26 41t22.5 17zM409 872q28 0 57.5 -7t54 -23.5t40 -43.5t15.5 -67q0 -32 -25.5 -70.5t-64 -80t-83.5 -84.5
t-83.5 -84t-64 -78t-25.5 -66q0 -19 -15.5 -15t-34.5 19.5t-34.5 36.5t-15.5 36q0 22 24.5 54t61.5 69.5t80 80t80 86.5t61.5 87.5t24.5 84.5q-1 13 -12.5 25t-46.5 12q-32 0 -70.5 -23.5t-73 -56.5t-57.5 -69.5t-23 -62.5q0 -21 10.5 -35.5t27.5 -14.5q7 0 9 -2.5t0.5 -5
t-6 -5t-9.5 -2.5q-7 0 -17.5 2.5t-20.5 11t-17.5 24.5t-7.5 42q0 27 23 65.5t60 74t84 60.5t94 25z" />
    <glyph glyph-name="at" unicode="@" horiz-adv-x="1053" 
d="M689 445q-5 -5 -9 -2.5t-8 7l-8 9t-10 4.5q-4 0 -24 -14.5t-48.5 -38t-60.5 -53t-59 -59t-45 -56.5t-18 -45q0 -10 10 -10t31 11.5t46 29.5t51 40.5t48 43t35.5 37.5t13.5 25q0 12 10 9.5t22.5 -11t22.5 -20t10 -17.5q0 -4 -8 -18.5t-19 -34t-22.5 -41t-17.5 -39.5
t-4.5 -29.5t15.5 -11.5q20 0 44 16t48.5 43t47.5 62t40.5 73.5t28 78t10.5 75.5q0 40 -11 76t-32 63.5t-52.5 44t-72.5 16.5q-40 0 -93 -19.5t-109 -54t-110 -81t-96 -101t-68 -114t-26 -119.5q0 -41 14.5 -85t43.5 -81.5t72.5 -61.5t101.5 -24q60 0 120.5 14.5t109.5 36
t80 47.5t31 49q0 6 4.5 9t9.5 1t9.5 -8.5t4.5 -19.5q0 -12 -15.5 -29.5t-42.5 -36.5t-63 -37.5t-78 -33.5t-87.5 -24t-90.5 -9q-68 0 -130 26.5t-109 70.5t-75.5 102t-28.5 121q0 47 22.5 102.5t61 112t90.5 109.5t111 94t122 65.5t124 24.5q87 0 144.5 -17.5t91 -50
t47.5 -78.5t14 -104q0 -33 -11 -74.5t-30.5 -84.5t-45 -84.5t-55 -73.5t-61.5 -51.5t-63 -19.5q-32 0 -49.5 7.5t-26.5 17.5q-11 11 -13 25q-21 -14 -42 -25q-18 -10 -38.5 -17.5t-37.5 -7.5q-18 0 -42 11t-45.5 28.5t-37 40t-15.5 46.5q0 21 16.5 51t43 63t60.5 65.5
t68 58.5t65 42t53 16q23 0 43 -12.5t33.5 -28.5t19 -31.5t-0.5 -21.5z" />
    <glyph glyph-name="A" unicode="A" horiz-adv-x="916" 
d="M1063 -135q5 9 10.5 10t10.5 -2q5 -4 9 -11q-13 -29 -38 -51q-21 -19 -57.5 -34.5t-92.5 -15.5t-118 21t-114 67t-85.5 119t-33.5 177q0 37 12 84.5t32 102.5q-51 13 -95.5 33t-87.5 43q-79 -88 -158.5 -168.5t-151 -142.5t-132 -99t-100.5 -37q-79 0 -134 25.5t-87 67
t-41 94.5t5.5 108.5t51 108.5t96 94.5t140.5 67t185 25.5q48 0 90 -8t79.5 -20.5t72 -29t68.5 -34.5q84 94 165 189t149.5 177t119 143t74.5 87v2q0 8 5 12t13 3q12 -1 29 -10t32.5 -22.5t26 -30.5t10.5 -34q0 -24 -13.5 -63t-36 -88t-51.5 -106.5t-60 -118.5t-62.5 -123
t-57.5 -120q18 -2 26.5 -8.5t7.5 -14t-12.5 -13t-34.5 -5.5h-5q-27 -63 -43.5 -116.5t-16.5 -91.5q0 -92 29 -151.5t70 -93.5t85.5 -47t76.5 -13q31 0 55 6t40.5 15t27 20t15.5 21zM-123 21q36 0 89.5 33.5t119 89.5t138.5 130.5t148 156.5q-32 16 -63.5 31t-65.5 26.5
t-70.5 18.5t-77.5 7q-78 0 -144 -36.5t-112.5 -91.5t-72 -118.5t-23.5 -118.5t34 -91.5t100 -36.5zM613 371q30 76 68.5 158.5t77 162t72.5 151.5t54 126q-23 -30 -67 -85.5t-102.5 -127t-128.5 -153.5t-145 -165q40 -20 81.5 -38t89.5 -29z" />
    <glyph glyph-name="B" unicode="B" horiz-adv-x="1137" 
d="M1244 868q0 -49 -36 -105t-96 -110.5t-138 -104.5t-161 -87q36 0 75 -14.5t70.5 -41t52 -64t20.5 -84.5q0 -48 -35 -102.5t-94 -108.5t-137 -104t-164 -88t-175.5 -60.5t-170.5 -22.5q-74 0 -121.5 16t-75.5 40.5t-38.5 53t-10.5 53.5q0 33 10 48.5t21.5 14.5t21.5 -17.5
t10 -46.5q0 -9 4.5 -20t15.5 -20t29 -15.5t46 -6.5q101 0 197 23.5t181 61.5t156 87t122.5 100.5t80 101t28.5 89.5q0 18 -6.5 36t-24 32.5t-48 23.5t-78.5 9h-28q-106 -40 -199 -46q-26 -50 -50 -98t-43 -89t-30 -73.5t-11 -51.5q0 -9 3 -19t5 -18t-0.5 -13.5t-12.5 -5.5
q-15 0 -33 8t-33.5 22.5t-26 34.5t-10.5 45q0 19 9 49t24 67t35 80t42 88q-21 13 -34 29t-17 30.5t1 24t19 9.5q7 0 12 -4t11.5 -9t16 -9t24.5 -4l44 90t41 86t33 77t21 63q-30 -15 -79 -58.5t-109.5 -99.5t-128 -117.5t-134.5 -112.5t-128.5 -84t-110.5 -33h-6
q-24 0 -49.5 7t-47 23.5t-35 44.5t-13.5 71q0 59 39.5 130t112 142.5t175 139t228.5 119t272 83t307 31.5q84 0 144 -12t100 -31.5t64 -43.5t36 -48t15.5 -45.5t3.5 -35.5zM607 504q65 17 132 44.5t129.5 60.5t117 70t94.5 73t63.5 69.5t23.5 59.5q0 9 -0.5 24t-7.5 32
t-23.5 34t-47.5 31t-80 23t-122 9q-114 0 -218.5 -22t-197.5 -59.5t-173.5 -86.5t-148 -103t-119.5 -109.5t-88 -106t-55 -92.5t-19 -69q0 -28 11 -39t25 -13h4q33 0 75 21.5t90 57t99.5 81.5t103 93.5t101 94t92.5 83.5t78.5 60.5t58.5 26.5q10 2 28 -5t34.5 -20t29 -29.5
t12.5 -33.5q0 -18 -8 -45.5t-22 -61t-32.5 -72.5t-39.5 -81z" />
    <glyph glyph-name="C" unicode="C" horiz-adv-x="963" 
d="M957 412q6 15 16 22.5t18 7t10.5 -9t-5.5 -24.5q-20 -40 -56 -101t-85 -129.5t-110.5 -137.5t-133.5 -124t-154 -89.5t-172 -34.5t-152 28.5t-100.5 72.5t-55 97.5t-16.5 104.5q0 76 24 159t65.5 166t98 164t122 154t137 134.5t143 106.5t139.5 70.5t127 25.5
q27 0 63.5 -11t69.5 -28t55.5 -38t22.5 -42q0 -52 -17.5 -110.5t-45.5 -116.5t-64 -110.5t-73 -93t-71.5 -64.5t-60.5 -24q-24 0 -38 7.5t-18.5 17t1 17t21.5 7.5q24 0 55.5 22.5t64.5 59.5t64.5 85.5t56.5 100t40.5 103t15.5 95.5h8l-34 4t-31 2q-61 0 -128 -24.5
t-135.5 -68t-136 -103.5t-128 -130.5t-112.5 -148.5t-90 -159t-59.5 -161.5t-21.5 -154.5q0 -42 18 -72t43.5 -49.5t54 -28.5t49.5 -9q94 0 178 32.5t156.5 84.5t132 116t106 126.5t79 117t49.5 86.5z" />
    <glyph glyph-name="D" unicode="D" horiz-adv-x="1208" 
d="M854 1046q138 0 226.5 -37t134 -100t51 -147.5t-23 -179.5t-87 -195.5t-142 -195.5t-188 -179.5t-224 -147.5t-251.5 -100t-269 -37q-39 0 -68 11.5t-48.5 28t-29.5 36.5t-12.5 36.5t2.5 28t17 11.5t17 -8t9 -19.5t8.5 -25.5t15.5 -25.5t31 -19.5t54 -8q114 0 224 34.5
t211 94t191 138.5t163.5 168t128.5 183.5t87.5 183.5t39 168t-17.5 138.5t-80 94t-150 34.5q-114 0 -217.5 -23t-195 -61.5t-170.5 -89t-144.5 -106.5t-116 -113.5t-85 -109t-52.5 -94.5t-18 -70q0 -28 10.5 -39t24.5 -13q2 0 2.5 0.5t1.5 0.5q33 0 76 22t92 58.5t101.5 83
t104.5 95t102 95t93 83t78 58.5t57 22q11 2 28.5 -5.5t34 -20t28.5 -29t12 -32.5q0 -23 -14.5 -65t-39 -95.5t-55 -116t-63 -126.5t-63 -125.5t-55 -114t-39 -93t-14.5 -60.5q0 -9 3 -19t4.5 -18.5t-1 -14t-12.5 -5.5q-15 0 -33 8t-33.5 22.5t-26 35t-10.5 45.5
q0 28 21.5 84.5t54.5 128.5t72.5 153t76.5 158t65.5 143.5t40.5 109.5q-21 -10 -54.5 -36.5t-74.5 -64t-88.5 -82t-98 -89.5t-102 -87.5t-101 -75t-94 -52t-81.5 -19.5h-6q-24 0 -49.5 6.5t-47 23t-35 44.5t-13.5 71q0 59 37 130.5t105.5 143.5t166.5 140t220 120.5
t265.5 84t304.5 31.5z" />
    <glyph glyph-name="E" unicode="E" horiz-adv-x="961" 
d="M1153 1103q0 -30 -12.5 -63t-31.5 -66.5t-41 -67.5t-41 -66.5t-31.5 -63.5t-12.5 -58q0 -9 3 -19t5 -18.5t-0.5 -14t-12.5 -5.5q-15 0 -33 8t-33.5 22.5t-26 35t-10.5 45.5q0 44 26 97.5t58 109.5q-6 9 -22.5 16t-39.5 7q-61 0 -118.5 -18t-108.5 -47t-93 -66.5
t-72 -76.5t-47 -76t-17 -66v-11.5t2 -11.5q41 17 80 26.5t75 9.5q71 0 109.5 -18t56.5 -41.5t21 -45.5t3 -31q0 -17 -6 -27t-14 -15.5t-15.5 -7.5t-10.5 -2q-6 0 -8 3.5t-2 5.5q0 7 5 10t5 8q0 14 -23 28t-61 14q-63 0 -126 -20q22 -11 45 -19.5t45 -13.5t41 -7.5t33 -2.5
t22 1t8 -5q0 -5 -8.5 -12.5t-25.5 -7.5q-55 0 -112.5 10t-106.5 35q-56 -24 -107 -60t-95 -78t-79 -87.5t-60 -88.5t-38.5 -82t-13.5 -68q0 -78 32 -120.5t85 -57.5t120.5 -5.5t137.5 35.5t137.5 65t120.5 83.5t85 90.5t32 86q0 22 16.5 30.5t28.5 8.5q25 0 25 -19
q0 -51 -41.5 -109t-110 -113t-155.5 -102.5t-178.5 -78t-178.5 -38t-155.5 17t-110 86.5t-41.5 171q0 39 17.5 84.5t48.5 94t73 97.5t91 94.5t103.5 85t109.5 69.5q-14 24 -21.5 53.5t-7.5 64.5q0 42 22.5 88t61 91t89 86t106 72t112.5 49.5t108 18.5q37 0 63 -8t43 -20.5
t27.5 -27.5t15.5 -30q26 46 44 88.5t18 79.5q0 16 15.5 16.5t34.5 -12.5t34.5 -39t15.5 -63z" />
    <glyph glyph-name="F" unicode="F" horiz-adv-x="627" 
d="M1014 1106q133 0 221 -23.5t141 -57t75 -70t22 -62.5q0 -20 -11.5 -34.5t-31.5 -14.5q-15 0 -19 6t-3.5 15t4 18.5t3.5 15.5q0 20 -16 39.5t-46 35t-72 25t-93 9.5q-194 0 -361.5 -25.5t-309.5 -64t-258.5 -83.5t-207 -83.5t-156.5 -64t-106 -25.5q-20 0 -40 9t-36 22
t-25.5 28.5t-9.5 28.5t12 22t39 9q15 0 57 14t105 37t144 52t173.5 59.5t193.5 59.5t205 52t207 37t200 14zM608 622q24 0 36.5 -17t14.5 -37t-5 -37t-21 -17q-78 0 -150.5 -9t-138.5 -23q-22 -40 -47.5 -87t-50.5 -95t-48 -95t-41 -87.5t-28.5 -72t-10.5 -47.5q0 -47 9 -78
t16.5 -50.5t8 -27.5t-16.5 -8t-40 14.5t-44 40.5t-35.5 62t-14.5 79q0 21 16.5 67.5t41.5 103.5t54 118t55 111q-65 -21 -104.5 -36.5t-46.5 -15.5q-12 0 -16 6t-4 14q0 13 17.5 29t47.5 33t70.5 35.5t87.5 35.5q31 60 54 102.5t38.5 72t23 47.5t7.5 29q0 20 17 19
t37.5 -14.5t37.5 -35t17 -41.5q0 -11 -0.5 -17.5t-4.5 -17t-14 -29t-29 -54.5q57 14 109.5 22t94.5 8z" />
    <glyph glyph-name="G" unicode="G" horiz-adv-x="857" 
d="M676 469q20 0 37 -8t29 -21.5t19 -31t7 -36.5q0 -54 -15 -121t-43 -139.5t-66.5 -147.5t-86 -145t-102 -131.5t-113.5 -107.5t-121 -72.5t-124 -26.5q-50 0 -81 13t-47 33t-18.5 44t4.5 46q7 23 19 31t22.5 6.5t16.5 -10.5t1 -19q-20 -40 -1.5 -64.5t76.5 -24.5
q66 0 128 43.5t118 113.5t104.5 158t87 177.5t66 172t41.5 141.5q-26 -34 -67 -84.5t-89.5 -107t-101.5 -112.5t-104 -101t-96.5 -73t-79.5 -28q-88 0 -140.5 83.5t-52.5 259.5q0 97 27 199t75.5 198t116 181t148 148.5t172 100.5t188.5 37q92 0 142.5 -41t50.5 -116
q0 -55 -16 -105t-37.5 -88t-42.5 -60.5t-31 -22.5q-8 0 -10.5 4t-2.5 8.5t2.5 8.5t6.5 4q8 0 19 17.5t21.5 44.5t18 61t7.5 67q0 18 -4.5 39t-14.5 40t-27 31.5t-41 12.5q-93 0 -175.5 -45.5t-151.5 -120t-124.5 -170t-95 -195t-62 -195t-26 -170t13.5 -120t56 -45.5
q17 0 45 18.5t63.5 49.5t76.5 72t83 86t83 91.5t77 89t65.5 77.5t47.5 57q-1 8 -3.5 15.5t-1.5 13t8 9t26 3.5z" />
    <glyph glyph-name="H" unicode="H" horiz-adv-x="1035" 
d="M1061 559q14 0 21 -4.5t6 -10t-9 -10t-24 -4.5q-17 0 -35 -0.5t-35 -1.5q-32 -56 -63 -115.5t-55 -118t-39 -114.5t-15 -105q0 -35 8 -61.5t12.5 -44.5t1 -27t-25.5 -9q-27 0 -50 14t-40 37.5t-26.5 53t-9.5 61.5q0 44 12 93.5t31.5 102t45.5 107.5t55 109
q-87 -15 -164 -38t-146 -50q-47 -98 -78.5 -201.5t-31.5 -205.5q0 -44 12.5 -78.5t21 -58.5t4.5 -36.5t-38 -12.5q-33 0 -60 18t-46 46.5t-29.5 63t-11.5 67.5v6q0 19 -2.5 48t-12 57t-28 48t-51.5 20q-6 0 -15.5 8.5t-18.5 21.5t-16 28.5t-7 29.5q0 17 18 37t52 41
t82.5 42.5t109.5 41.5q46 100 98.5 189.5t97.5 158.5t75 111.5t30 48.5v10q-42 -1 -102.5 -18.5t-130 -47.5t-144 -71t-146 -88.5t-135.5 -100.5t-112 -107.5t-76.5 -108t-28.5 -103.5q0 -26 9 -45.5t15 -33t3 -20t-27 -6.5t-46.5 8.5t-40 25t-27.5 40.5t-10 54q0 34 28 80
t77.5 98t116 108t144.5 109t162.5 100.5t170 83t167.5 56.5t154 21q16 0 34.5 -7.5t34 -21t25.5 -31t10 -37.5q0 -14 -21.5 -50.5t-56 -89.5t-77 -120.5t-83.5 -143.5q66 14 138 25.5t150 18.5q33 62 65 120.5t57.5 110t41 94t15.5 71.5q0 16 19 13t41.5 -19t41.5 -42
t19 -55q0 -17 -12 -45t-32 -65t-46.5 -81t-54.5 -93q15 0 29.5 0.5t29.5 0.5zM270 147q8 45 20 89.5t29 89.5q-52 -30 -86.5 -55.5t-49.5 -42.5q21 -3 35.5 -11t25 -19t17 -24.5t9.5 -26.5z" />
    <glyph glyph-name="I" unicode="I" horiz-adv-x="725" 
d="M805 940q0 -16 -29 -71.5t-72.5 -136.5t-94 -181.5t-94 -208t-72.5 -216t-29 -204.5q0 -29 7.5 -54.5t16.5 -46t17 -36.5t9.5 -27t-6.5 -16.5t-31 -5.5q-34 0 -61 19t-46 48t-29.5 65t-10.5 69q0 75 17.5 159t46.5 171t66 173.5t76 165.5t76 148t66 120.5t46.5 83
t17.5 36.5v10q-42 -1 -102.5 -18.5t-130 -48t-144 -71t-146 -88t-135.5 -100.5t-112 -107.5t-76.5 -108t-28.5 -103.5q0 -26 9.5 -46t15.5 -33t3 -19.5t-28 -6.5q-24 0 -46.5 8.5t-39.5 25t-27 40t-10 53.5q0 34 28 80t77.5 98.5t116 108t144 109t162.5 100.5t170 82.5
t167 56.5t154 21q16 0 32.5 -7.5t30 -21t21.5 -31t8 -37.5z" />
    <glyph glyph-name="J" unicode="J" horiz-adv-x="743" 
d="M509 1062q28 0 61.5 -11t62 -41.5t47.5 -84t19 -137.5q0 -82 -17 -177.5t-49 -196t-77.5 -201t-102 -193t-123 -173t-140.5 -139.5t-154 -93t-164 -34q-50 0 -63 25.5t2 69t54 100t92.5 119t117.5 125.5t130 119.5t129 102t114 71.5q54 133 85 260t31 229q0 41 -2 82.5
t-9 74.5t-19 53.5t-32 20.5q-30 0 -73 -33.5t-89.5 -87t-92 -119.5t-82 -131t-59 -121t-22.5 -90q0 -24 3 -38t6.5 -22t6.5 -12.5t3 -11.5q0 -17 -23 -18.5t-50.5 13t-50.5 44.5t-23 77q0 51 25.5 114t68.5 127.5t99 125t117.5 108t124 76t118.5 28.5zM-132 -385q47 0 96 25
t99.5 69t100 104.5t96 132.5t89 152.5t78.5 163.5q-54 -35 -112 -81.5t-115 -98.5t-110.5 -107t-98 -107t-78.5 -98t-52 -80.5t-17.5 -54.5t24.5 -20z" />
    <glyph glyph-name="K" unicode="K" horiz-adv-x="745" 
d="M1130 1020q37 0 60 -16.5t34 -36t9.5 -36t-13.5 -16.5q-8 0 -12 3.5t-9.5 7.5t-13.5 7.5t-23 3.5q-76 0 -155.5 -26t-159 -68.5t-155.5 -95.5t-144 -107t-125.5 -104t-99.5 -85q28 -40 67 -94.5t86 -117t100 -129.5t109 -130.5t113 -120.5t112.5 -100t107.5 -68t98 -25
q28 0 40 7.5t17 16.5t7.5 16.5t13.5 7.5q10 0 10 -21t-16.5 -45.5t-53 -45.5t-98.5 -21q-37 0 -85 23t-102.5 62.5t-113.5 92.5t-117.5 113t-114.5 123.5t-105 124.5t-89 115.5t-66 97.5q-31 -78 -50 -157.5t-19 -157.5q0 -44 12.5 -78.5t21 -58.5t4.5 -36.5t-38 -12.5
t-61.5 19t-46.5 48t-29.5 65t-10.5 69q0 100 30.5 206t76.5 207.5t99 192.5t99 161t76.5 114t30.5 50v10q-42 -1 -102 -18.5t-129.5 -48t-144 -71t-146 -88t-136 -100.5t-112.5 -107.5t-76.5 -108t-28.5 -103.5q0 -26 9.5 -45.5t15.5 -33t3 -20t-28 -6.5q-24 0 -46.5 8.5
t-39.5 25t-27 40t-10 53.5q0 34 28 80t77.5 98.5t116 108.5t144 109t162.5 100.5t170 83t167 56.5t154 21q17 0 35.5 -7.5t34 -21t25.5 -31t10 -37.5q0 -13 -18 -44t-47.5 -76.5t-67 -103.5t-75.5 -124q56 52 124.5 106t142 104.5t147.5 95.5t141.5 78.5t124 53t94.5 19.5z
" />
    <glyph glyph-name="L" unicode="L" horiz-adv-x="615" 
d="M1691 -145q4 -27 -13 -67.5t-66.5 -82.5t-137 -79.5t-223.5 -57.5q-79 -11 -162 -5.5t-166.5 23t-166 44t-160.5 56.5t-150 60.5t-135 56.5q5 -14 8 -24t0.5 -17t-12 -10.5t-27.5 -3.5q-23 0 -43.5 9t-37 25t-29.5 37t-22 44q-26 7 -47 9.5t-37 0.5q-28 -4 -41.5 3.5
t-15.5 21t5.5 30.5t21.5 33t33 28.5t40 15.5q8 1 14.5 1.5t13.5 0.5q7 75 31 157t58 165t75 164.5t82.5 155.5t80.5 137.5t69 111.5t48.5 77t18.5 33v10q-55 -1 -122 -16t-135 -43t-131.5 -68t-112.5 -90t-79 -109t-30 -125q0 -26 9.5 -46t15.5 -33.5t3 -20t-28 -6.5
q-24 0 -46.5 8.5t-40 25t-27.5 40.5t-10 54q0 45 29 97t81 103t123 99t155 84t177 58t189 22q17 0 35.5 -7.5t34 -21t25.5 -31t10 -37.5q0 -12 -17.5 -44.5t-47 -81t-67 -110.5t-77.5 -133t-79 -148t-71.5 -155.5t-54 -156.5t-27.5 -150q64 -23 137.5 -59.5t157 -75
t177.5 -75.5t200 -61.5t224.5 -32t250.5 11.5q53 7 92 25t64.5 40.5t37.5 46.5t9 45q-1 6 -6 15t-7 18t1.5 16t18.5 9q20 3 34.5 -10.5t17.5 -33.5z" />
    <glyph glyph-name="M" unicode="M" horiz-adv-x="1243" 
d="M1428 -136q5 9 10.5 10t10.5 -2q5 -4 9 -11q-13 -29 -38 -51q-22 -19 -58 -34.5t-93 -15.5q-56 0 -117.5 21t-113.5 67t-85.5 119t-33.5 177q0 77 20.5 155t51 152t66 141.5t66 124.5t51 100.5t20.5 70.5q0 20 -15.5 19t-41.5 -18.5t-61 -48.5t-74.5 -70t-81.5 -84
t-81.5 -90t-74.5 -88t-62 -79q-7 -9 -13 -16.5t-11 -14.5q-28 -57 -52.5 -110t-42.5 -97.5t-28.5 -78t-10.5 -52.5q0 -36 6.5 -53t14 -25t14 -12.5t6.5 -16.5q0 -10 -23 -10.5t-51 15.5t-51 52t-23 99q0 33 15 84.5t40 113.5t57 131t65 138t65 134t57 119t40 92.5t15 55.5
q0 27 -16 27.5t-44 -18.5t-64.5 -54t-78 -79.5t-85 -95t-85 -100.5t-78 -96t-63.5 -81q-32 -65 -61.5 -126t-52 -114.5t-36 -98t-13.5 -74.5q0 -31 3.5 -46.5t8 -24.5t8 -15t3.5 -18q0 -20 -21.5 -21.5t-48 17.5t-48 59.5t-21.5 105.5q0 35 23.5 100.5t60.5 148t81.5 176.5
t87 186.5t77.5 177.5t52 150t11 103.5t-45 38.5q-52 0 -112 -31.5t-118.5 -84t-112.5 -119t-95 -136.5t-65.5 -137.5t-24.5 -120.5q0 -75 9.5 -117t20.5 -64t20.5 -31.5t9.5 -19.5q0 -7 -15 -10.5t-38 1.5t-49 21t-49 47.5t-38 81t-15 122.5t28 147.5t77.5 144t117 130
t145.5 105.5t163 71t170 26q34 0 57 -11t38 -28t22.5 -38.5t10.5 -41.5t3.5 -37t0.5 -26q0 -33 -12 -77t-32 -96t-46.5 -110t-56.5 -119q36 48 77.5 98.5t84.5 98t86.5 89.5t85.5 73.5t80 50t70 18.5q43 0 67 -27t24 -88q0 -16 -14.5 -54.5t-39 -91.5t-56.5 -118t-66 -134
q38 48 79 96t83 92t83 82.5t78.5 67t70 44.5t57.5 16q31 0 52 -10t34 -26.5t18.5 -38t5.5 -44.5q0 -31 -21.5 -77t-54 -103.5t-70 -124t-70 -137.5t-54 -145.5t-21.5 -146.5q0 -62 13.5 -108.5t35.5 -80.5t49.5 -56.5t56.5 -35.5t56.5 -18.5t48.5 -5.5q32 0 55.5 6t40 15
t27 20t16.5 21z" />
    <glyph glyph-name="N" unicode="N" horiz-adv-x="888" 
d="M1033 -146q6 10 11 10.5t10 -2.5q4 -4 9 -11q-13 -29 -38 -51q-21 -19 -57.5 -34.5t-92.5 -15.5t-122 21.5t-122.5 68.5t-94 120.5t-37.5 177.5q0 58 18 126.5t47 142.5t66.5 150t76.5 148.5t76.5 139t66.5 121t47 95t18 60.5t-17 15.5t-46.5 -26.5t-68.5 -58.5t-83 -82
t-89.5 -96t-88.5 -100.5t-80 -95.5t-64 -81.5q-13 -17 -23 -30t-18 -22q-32 -61 -65 -121.5t-59.5 -116.5t-43 -105t-16.5 -87q0 -31 3.5 -46.5t8 -24.5t8 -15t3.5 -18q0 -20 -21.5 -21t-47.5 18t-47.5 59.5t-21.5 105.5q0 35 20.5 92t52 126t69.5 145t73.5 150.5t63.5 142
t40 118.5t2.5 81.5t-48.5 30.5q-53 0 -112.5 -32t-118 -84t-112.5 -118.5t-95 -136.5t-65.5 -137.5t-24.5 -120.5q0 -75 9 -117t20.5 -64.5t20.5 -32t9 -19.5q0 -7 -15 -10.5t-37.5 1.5t-49 21t-49 47.5t-37.5 81.5t-15 123t28 147.5t77.5 143.5t116.5 130t145 106t163 71
t170 26q34 0 57.5 -11t38.5 -28.5t22.5 -38.5t10.5 -41.5t3.5 -37.5t0.5 -26q0 -41 -15 -90t-38 -103q41 53 90 111t100.5 114t102.5 107t97.5 89.5t84.5 61t64 22.5q31 0 52 -10t34 -27t18.5 -38.5t5.5 -43.5q0 -31 -32 -96.5t-80.5 -152t-104.5 -187t-104.5 -201
t-80.5 -194t-32 -166.5q0 -92 29 -151t70 -93t85.5 -47t76.5 -13q31 0 55 6t40.5 15t27 19.5t15.5 20.5z" />
    <glyph glyph-name="O" unicode="O" horiz-adv-x="1015" 
d="M782 1056q83 0 135.5 -36t77.5 -97t25.5 -143t-20.5 -174t-61 -189.5t-95 -189.5t-123.5 -174t-146.5 -143t-163 -97t-174 -36q-81 0 -129.5 29.5t-71 80.5t-20.5 119t23 144.5t58 157t85 157t104.5 144.5t116 119t120 80.5t116.5 29.5q31 0 52.5 -17t31.5 -38t7 -38
t-21 -17q-11 0 -17 2t-18 2q-55 0 -115.5 -39.5t-119.5 -103.5t-113 -146.5t-95.5 -168t-66.5 -168t-27.5 -146.5t21.5 -103.5t82 -39.5t119 34t121.5 91.5t117.5 135t107 164t90.5 178.5t67.5 178.5t37.5 164t1 135t-42 91.5t-91.5 34q-68 0 -137.5 -21t-138 -57
t-133.5 -83t-123 -100t-106 -107.5t-82.5 -105t-54 -94t-19.5 -73.5q0 -26 3 -40.5t6 -23.5t6 -15.5t3 -16.5q0 -13 -12 -18t-30.5 -2t-40 14t-40 29.5t-30.5 45.5t-12 62q0 60 36 131t100.5 142t153.5 137t195 117t225.5 81.5t244.5 30.5z" />
    <glyph glyph-name="P" unicode="P" horiz-adv-x="892" 
d="M780 1146q141 0 223.5 -35.5t116 -94t23 -134t-56 -156t-121.5 -159.5t-173 -145t-210 -113t-233 -62q-27 -64 -44 -126t-17 -117q0 -41 11.5 -72.5t19.5 -53t4 -33t-35 -11.5t-56 17t-42.5 44t-27 59.5t-9.5 63.5q0 51 13.5 108.5t36.5 118.5q-50 10 -80 36.5t-42 55
t-8 50.5t22 22q12 0 17.5 -8t9.5 -20t8.5 -26.5t14.5 -27.5t28 -22.5t49 -12.5q24 58 52.5 115.5t57.5 110.5t55.5 98.5t47.5 80t33.5 56t12.5 25.5q0 17 1 28.5t18 11.5q15 0 32 -7t31 -19t23.5 -28.5t9.5 -34.5q0 -15 -21.5 -54.5t-54 -96t-71 -125.5t-72.5 -142
q81 23 162 70t153.5 107t133.5 129.5t102.5 138t60 132t6.5 112t-58.5 77.5t-134.5 29q-97 0 -188 -25.5t-173.5 -68t-155.5 -99t-134 -118.5t-110 -125.5t-82.5 -121t-51.5 -105t-18 -77.5q0 -26 8 -38.5t20.5 -16.5t27 -3.5t27 1.5t20.5 -0.5t8 -11.5t-18 -18t-45.5 -11
t-59 2t-59 22.5t-45.5 49.5t-18 83q0 65 40 144t111.5 159t168.5 155.5t211 134t239.5 93.5t254.5 35z" />
    <glyph glyph-name="Q" unicode="Q" horiz-adv-x="1109" 
d="M1409 -685q37 0 46 -19t-2.5 -42.5t-39.5 -42.5t-65 -19q-47 0 -93 27.5t-94.5 72.5t-101.5 102.5t-114 118t-131.5 118t-155 102.5t-184 72.5t-217.5 27.5q-53 0 -98 -12t-77.5 -30.5t-51 -40.5t-18.5 -43q0 -6 3.5 -15.5t4.5 -18.5t-3.5 -15.5t-19.5 -6.5
q-21 0 -33.5 15t-12.5 35q0 23 15.5 55t47 63t80 56.5t114.5 37.5q-46 38 -59.5 102t-2 142.5t45 166t81.5 173t108 163.5t125 137.5t131 94.5t127 35q31 0 52.5 -17t31 -38t6.5 -38t-20 -17q-11 0 -17.5 2t-17.5 2q-51 0 -107 -34t-111 -90.5t-106.5 -129.5t-93.5 -152
t-72 -158t-42 -146t-3 -117.5t44 -72.5q52 0 102 -9q71 16 145 76.5t143.5 148t130.5 193.5t106.5 214.5t71 210.5t24 181.5t-34 127.5t-103.5 48q-68 0 -137.5 -21t-138 -57t-133.5 -83t-123 -100t-106 -107.5t-82.5 -105t-54 -94t-19.5 -73.5q0 -26 3 -40.5t6 -23.5
t6 -15.5t3 -16.5q0 -13 -12.5 -18t-30.5 -2t-40 14t-40 29.5t-30.5 45.5t-12.5 62q0 60 36 131t100.5 142.5t154 137.5t195.5 117t225.5 81.5t244.5 30.5q95 0 150 -46.5t75.5 -124.5t9 -179.5t-48.5 -211t-96.5 -219t-136.5 -204t-167.5 -166t-188.5 -104.5
q104 -31 199 -85.5t181 -118.5t162 -130.5t142 -120t121.5 -87.5t99.5 -34z" />
    <glyph glyph-name="R" unicode="R" horiz-adv-x="892" 
d="M1460 -121q4 6 16 8t22.5 -2t15 -13t-5.5 -25q-23 -37 -60 -78.5t-92 -76.5t-130.5 -58t-176.5 -23q-84 0 -166.5 26.5t-159.5 74t-145 111.5t-123 139.5t-94.5 158t-57.5 166.5q-32 -73 -53 -143.5t-21 -133.5q0 -41 11.5 -72.5t19.5 -53t4 -33t-35 -11.5t-56 17.5
t-42.5 44.5t-27 59.5t-9.5 62.5q0 38 8 81t22 88t33 92t41 93q-28 9 -47.5 24.5t-32.5 33t-18.5 35.5t-5.5 32q0 26 19 49.5t48.5 35t63.5 5.5t64 -39q26 47 50 87.5t42 71t29 49t11 22.5q0 17 1 28.5t18 11.5q15 0 32 -7t31.5 -19t23.5 -28.5t9 -34.5q0 -12 -14 -40.5
t-37.5 -69t-52.5 -91.5t-59 -107q81 17 159 55.5t147.5 90t126 111.5t93.5 120t51 115.5t-2 98.5t-65.5 68.5t-139.5 25.5q-98 0 -189 -25.5t-173.5 -68t-155 -99t-134 -118.5t-110 -125.5t-82 -121t-51.5 -105t-18 -77.5q0 -26 8 -38.5t20.5 -16.5t27 -3t27 2t20.5 -1
t8 -11q0 -10 -18 -18.5t-45.5 -11.5t-59 2t-59 22.5t-45.5 49.5t-18 83q0 66 40 144.5t111.5 158.5t168.5 155.5t210.5 134t239.5 93.5t254 35q142 0 227.5 -31t124 -82t34 -117.5t-43.5 -136.5t-109 -139.5t-162 -126.5t-202 -97t-229 -52q12 -93 57 -175.5t110 -152
t144.5 -124t160 -93t157 -58.5t135.5 -20q60 0 115 11.5t99.5 30t76 42.5t45.5 48zM218 421q5 9 9.5 18t9.5 18q-10 19 -25.5 33.5t-30 22t-25 5t-10.5 -17.5q0 -21 14.5 -45t57.5 -34z" />
    <glyph glyph-name="S" unicode="S" horiz-adv-x="914" 
d="M632 137q0 22 -37 33.5t-98 18.5t-138.5 13.5t-158.5 18t-158.5 31.5t-138.5 54.5t-98 87.5t-37 130q0 59 37.5 130.5t103 144t155.5 140.5t194.5 120.5t219 84.5t230.5 32q58 0 108.5 -15t87.5 -46t58 -79t21 -113q0 -46 -25.5 -105.5t-67 -122.5t-93 -123.5t-104 -108
t-100.5 -76.5t-82 -29q-9 0 -22 9.5t-26 23.5t-23 30.5t-14.5 30.5t-1 23.5t19.5 9.5q15 0 53 26.5t85.5 69.5t99 97.5t94 111.5t70 111.5t27.5 96.5q0 36 -11 62.5t-30.5 44.5t-46 26.5t-57.5 8.5q-88 0 -168.5 -23t-152.5 -61.5t-134.5 -89.5t-114.5 -107t-92.5 -114
t-68.5 -110t-42.5 -94.5t-14.5 -69.5q0 -51 34.5 -83t91 -52.5t129 -31.5t148 -20t148 -18.5t129 -26t91 -43.5t34.5 -71q0 -46 -27.5 -94t-73.5 -92.5t-105.5 -83.5t-123 -68t-126.5 -46t-115 -17q-59 0 -94.5 26.5t-55 61t-26 67.5t-6.5 46t7 20t16 7t16 -7t7 -20
t2.5 -28.5t13 -28.5t32.5 -21.5t60 -8.5q29 0 76.5 16.5t101.5 42.5t109 59t99 66.5t72 63.5t28 51z" />
    <glyph glyph-name="T" unicode="T" horiz-adv-x="466" 
d="M1052 1137q92 0 162.5 -11.5t123.5 -29.5t89 -42t58.5 -48t32 -47.5t9.5 -41.5q0 -20 -12.5 -35.5t-32.5 -15.5q-15 0 -19.5 6.5t-4 15.5t4 18.5t3.5 16.5q0 20 -14.5 42.5t-43 41t-70 30.5t-94.5 12q-167 0 -316.5 -19.5t-280.5 -51t-244 -70t-207.5 -77t-170 -72.5
t-132.5 -55q60 -6 115 -20.5t99 -37t75 -52t44 -65.5q27 50 51 95.5t42 81.5t28.5 61t10.5 35q0 21 15 18t32.5 -18.5t32.5 -39.5t15 -45q0 -23 -14 -60.5t-36.5 -85t-51.5 -101t-59 -109t-59 -110t-51.5 -102.5t-36.5 -86.5t-14 -62.5q0 -48 6.5 -80.5t11 -52.5t2 -28.5
t-19.5 -8.5q-18 0 -40 13.5t-41.5 38.5t-33 61t-13.5 80q0 27 15.5 72.5t40.5 101.5t57 120t65 127q15 35 3.5 66t-41 57t-73 46.5t-92.5 35t-99.5 22t-94.5 7.5q-21 0 -41.5 9t-37 23t-26.5 29.5t-10 29.5t12.5 23t40.5 9q16 0 59.5 14.5t108.5 38t148.5 53.5t179.5 61.5
t201 62t212 54t214 38t207 14.5z" />
    <glyph glyph-name="U" unicode="U" horiz-adv-x="938" 
d="M665 -4q0 -59 6.5 -98t16.5 -63.5t21 -38t21 -22t16.5 -14.5t6.5 -15q0 -11 -16.5 -16.5t-41.5 -0.5t-53.5 22.5t-53.5 52t-41.5 88.5t-16.5 132q0 42 15.5 96.5t40 115.5t55.5 127t62.5 132t60 130t48.5 121q-25 -45 -60 -105.5t-76 -128.5t-87.5 -140t-95 -141
t-98 -131t-97 -109.5t-91 -78t-80.5 -35.5q-3 -1 -12 -1h-2q-16 2 -36.5 15.5t-38.5 40t-30 66t-12 93.5q0 41 23 108t59 147.5t79.5 170t83.5 176.5t72 166.5t45 139.5t1.5 95.5t-57.5 35.5q-52 0 -109.5 -28.5t-113 -76t-105.5 -108.5t-88 -126.5t-60.5 -129.5t-22.5 -117
q0 -75 9.5 -117t20.5 -64.5t20.5 -32t9.5 -19.5q0 -7 -15 -10.5t-38 1.5t-49 21t-49 47.5t-38 81.5t-15 123t26.5 144.5t73 136.5t111 120.5t139.5 96.5t158 64t168 23q40 0 66.5 -13t42.5 -33t23 -45t9 -49t1.5 -44t-0.5 -30q0 -54 -26.5 -128.5t-66.5 -159.5t-86.5 -174.5
t-86.5 -174t-66.5 -158.5t-26.5 -128q0 -26 2 -42.5t5.5 -27t7 -16.5t6.5 -12q38 14 88.5 63.5t107.5 120.5t116.5 156.5t116.5 172.5q133 204 277 455q0 12 -2 21.5t0 15.5t9.5 9t27.5 3q18 0 35.5 -7.5t31 -21t21.5 -32.5t8 -41q0 -56 -23 -125.5t-57.5 -145t-75 -154.5
t-75 -154t-57.5 -142.5t-23 -121.5z" />
    <glyph glyph-name="V" unicode="V" horiz-adv-x="908" 
d="M862 1215q15 0 42 -13.5t52.5 -46t44.5 -87.5t19 -137q0 -75 -26 -160.5t-70.5 -174.5t-105.5 -178t-130.5 -170.5t-145 -152t-150 -122.5t-144.5 -82.5t-129 -31.5h-4q-15 0 -34.5 11t-37 33.5t-29.5 57t-12 81.5q0 35 20.5 92t52 126t69.5 145t73.5 150.5t63.5 142
t40 118.5t2.5 81.5t-48.5 30.5q-52 0 -112 -32t-118.5 -84t-112.5 -118.5t-95 -136.5t-65.5 -137.5t-24.5 -120.5q0 -75 9 -117t20.5 -64.5t20.5 -32t9 -19.5q0 -7 -15 -10.5t-38 1.5t-49 21t-49 47.5t-38 81t-15 122.5t28 147.5t77.5 144t117 130.5t145.5 106t163 71
t170 26q34 0 57.5 -11t38 -28.5t22.5 -38.5t11 -41.5t3.5 -37.5t0.5 -26q0 -52 -23.5 -118t-59 -138t-77 -147t-77 -145t-59 -131.5t-23.5 -107.5q0 -23 2 -37.5t5 -23.5t6.5 -14t6.5 -11q30 0 77.5 29t105 79t120.5 118.5t124.5 147.5t117.5 165.5t98.5 172.5t67.5 169
t25 155q0 96 -10.5 152t-19 84.5t-7 36.5t25.5 8z" />
    <glyph glyph-name="W" unicode="W" horiz-adv-x="1236" 
d="M1207 1228q13 0 42 -13.5t58 -46t51.5 -87.5t22.5 -137q0 -75 -23.5 -161t-64 -175.5t-95.5 -179t-117.5 -171t-129 -152t-132 -122.5t-125.5 -81.5t-109 -29.5h-1q-15 -2 -35 8t-39 32.5t-32 57.5t-13 85q0 48 23 105t54 119t63 125t50 123q-26 -40 -67 -101t-89.5 -130
t-101.5 -139.5t-103 -130t-94 -100.5t-74 -51q-12 -6 -33.5 1t-42.5 28.5t-36.5 59t-15.5 91.5q0 35 20.5 92t52 126t69.5 145t73.5 150.5t63.5 142t40 118.5t2.5 81.5t-48.5 30.5q-52 0 -112 -32t-118.5 -84t-112.5 -118.5t-95 -136.5t-65.5 -137.5t-24.5 -120.5
q0 -75 9.5 -117t20.5 -64.5t20.5 -32t9.5 -19.5q0 -7 -15 -10.5t-38 1.5t-49 21t-49 47.5t-38 81t-15 122.5t28 147.5t77.5 144t117 130.5t145.5 106t163 71t170 26q34 0 57 -11t38 -28.5t22.5 -38.5t10.5 -41.5t3.5 -37.5t0.5 -26q0 -52 -23.5 -118t-59 -138t-76.5 -147
t-76.5 -145t-59 -131.5t-23.5 -107.5q0 -40 5.5 -55.5t10.5 -24.5q22 15 57 53t77.5 90.5t89.5 114.5t92 124q106 146 226 323q0 11 -1.5 19t0 13t8 7.5t23.5 2.5q15 0 30 -6.5t26.5 -18t18.5 -27.5t7 -35q0 -52 -15 -102.5t-37.5 -100t-49 -97.5t-49 -95t-37.5 -93t-15 -92
q0 -23 2 -37.5t5 -23.5t6.5 -14t5.5 -11h3q25 0 65 29t87.5 79t100.5 118.5t104.5 147.5t98 165.5t81.5 172.5t56 169t21 155q0 96 -9 152t-16 84.5t-6 36.5t21 8z" />
    <glyph glyph-name="X" unicode="X" horiz-adv-x="777" 
d="M1190 -285q15 -14 14 -33.5t-15 -34.5q-18 -20 -60.5 -31.5t-106.5 0.5t-147.5 56.5t-183.5 138.5q-46 43 -85.5 95.5t-72.5 110.5t-61 120.5t-52 126.5q-87 -70 -176.5 -126.5t-169 -93.5t-143.5 -50t-100 4q-4 2 -4 9t4 13.5t11 9.5t18 -2q20 -9 73 14.5t125.5 71
t156.5 115t167 145.5q-31 95 -56 184.5t-47 163.5t-43.5 127.5t-46.5 76.5q-31 29 -23.5 48t34 26t61 1t57.5 -27q35 -33 58.5 -83t41.5 -113t34 -138t37 -157q67 72 121.5 146t89.5 145q28 58 45 100.5t27 72t15 48t8.5 27.5t7.5 10t13 -3q8 -4 21 -27t18.5 -64.5
t-3.5 -100t-45 -132.5q-42 -88 -116.5 -178t-165.5 -173q23 -75 54.5 -153t75.5 -155.5t102 -153.5t135 -148q39 -36 77.5 -55.5t72 -25.5t59.5 0t40 21q4 5 8 14.5t9.5 16.5t13 8.5t18.5 -8.5z" />
    <glyph glyph-name="Y" unicode="Y" horiz-adv-x="884" 
d="M983 751q0 -28 -22.5 -73t-60 -104t-85 -130t-97 -150.5t-96.5 -165t-84.5 -174t-60 -178t-22.5 -175.5q0 -54 10 -88t17 -53.5t4.5 -26.5t-26.5 -7t-51 9.5t-49.5 32t-37.5 61t-15 96.5q0 70 18.5 146t52.5 159t81.5 174.5t105.5 192.5q-72 -86 -127.5 -167t-101.5 -144
t-87 -101t-85 -38h-2h-11q-41 0 -69.5 22.5t-46.5 57.5t-26.5 77t-8.5 82q0 88 22 174.5t55.5 166.5t72 151.5t72 129.5t55.5 100t22 64t1.5 37t23.5 15q20 0 37 -9t30 -25t20 -36.5t7 -44.5q0 -20 -20.5 -59.5t-51.5 -93.5t-66.5 -121.5t-66.5 -143.5t-51.5 -158
t-20.5 -165q0 -44 8.5 -84t19.5 -65q4 1 1 1t2 0q17 0 55.5 36.5t91 97.5t113.5 139.5t122 162.5t118 166.5t100.5 152t70 119t26.5 66.5t3.5 28.5t27.5 11.5q15 0 30 -8.5t27 -26.5t19 -46t7 -68z" />
    <glyph glyph-name="Z" unicode="Z" horiz-adv-x="745" 
d="M958 -108q90 -45 144 -100t82.5 -108.5t35.5 -100t1 -74.5q-4 -20 -15 -32t-25 -5q-10 5 -11.5 13t1 17t6.5 18t6 15q4 21 -0.5 49t-19.5 56.5t-39.5 54.5t-58.5 43q-130 65 -249.5 93.5t-224.5 34t-194.5 -4.5t-160 -21.5t-121.5 -17.5t-78 8q-8 4 -19 15q-23 20 -35 51
t-14 66t4.5 70.5t20.5 65.5q38 81 103.5 156.5t146 144t169.5 129.5t173 114t157 97.5t122 80.5q-73 15 -146 22t-141.5 9t-128.5 0t-105.5 -4.5t-74 -5t-33.5 -0.5q-11 3 -13.5 10t-0.5 16q4 18 41 34t94.5 27.5t128.5 18.5t143.5 8.5t139.5 -4.5t117 -20q8 -2 13 -5
q8 12 22 4q15 -8 27.5 -24.5t20.5 -37t9.5 -42.5t-7.5 -41q-6 -12 -39.5 -36.5t-86.5 -59.5t-120.5 -79.5t-141 -97t-147.5 -111.5t-140.5 -123t-120.5 -132t-86 -138q-5 -10 -8 -19l-6 -18q43 2 106.5 7t138 7.5t158 1.5t167 -10.5t163.5 -29.5t150 -55z" />
    <glyph glyph-name="bracketleft" unicode="[" horiz-adv-x="517" 
d="M442 816l-368 -832q36 0 65 -1q25 -1 45.5 -3t20.5 -6t-4 -14.5t-11 -21t-17 -18.5t-21 -8t-39 0.5t-57 2t-51 4.5t-22 8q0 12 -5.5 18.5t-12 11t-12 8t-5.5 9.5q0 5 18.5 46t48 104.5t68 143t78 162.5t78 162t68 141.5t48 102t18.5 43.5t17.5 6.5t44 3t57 0t57 -2
t44 -3.5t17.5 -4q0 -3 -3.5 -13t-9 -20.5t-12 -19t-13.5 -8.5t-28 -0.5t-44 -0.5q-26 -1 -58 -1z" />
    <glyph glyph-name="backslash" unicode="\" horiz-adv-x="420" 
d="M389 -54q0 30 -17 80t-44.5 112t-62.5 131.5t-71.5 139.5t-71.5 136.5t-62.5 121t-44.5 93.5t-17 55q0 25 16.5 47.5t36 36.5t36 17t16.5 -11q0 -30 16 -79.5t41.5 -110t58.5 -129t67.5 -138t68 -135t59 -121t41.5 -96t16 -59.5q0 -25 -13 -47.5t-28 -37t-28 -17.5
t-13 11z" />
    <glyph glyph-name="bracketright" unicode="]" horiz-adv-x="505" 
d="M14 -8l369 824q-37 0 -66 1q-25 1 -45 2.5t-20 6.5q0 4 4 14t11 20.5t17 18.5t21 8q12 0 39.5 -0.5t56.5 -2t51 -4.5t22 -8q0 -11 5.5 -17.5t12 -11t12 -8t5.5 -9.5q0 -5 -18.5 -46t-48.5 -104t-68 -141.5t-78 -160.5t-78 -160.5t-68 -140t-48.5 -101t-18.5 -42.5
q0 -5 -17.5 -7.5t-43.5 -3t-57 0t-57 2t-43.5 4t-17.5 4.5q0 3 3 12.5t8.5 20t12 19t13.5 8.5h28t44 1q26 0 58 1z" />
    <glyph glyph-name="asciicircum" unicode="^" horiz-adv-x="681" 
d="M167 691q6 0 20 11t32 28t37.5 36.5l36.5 36.5t29.5 28t15.5 11q5 0 16.5 -1.5t23.5 -6t21 -11.5t9 -18q0 -20 12 -42.5t27 -42t27 -33.5t12 -17q0 -5 -5 -8t-10 -3q-15 0 -34 17.5t-36 39.5q-20 26 -40 58q-28 -32 -56 -58q-24 -22 -51 -39.5t-47 -17.5q-12 0 -21.5 5
t-15 11t-7 11t3.5 5z" />
    <glyph glyph-name="underscore" unicode="_" horiz-adv-x="538" 
d="M-33 -15q17 0 53 0.5t82.5 1.5t97 2t96 2t80 1.5t48.5 0.5q20 0 38 -10.5t29 -22.5t13 -22.5t-9 -10.5h-12t-8.5 0.5t-11 0.5h-17.5h-44.5t-73 0.5t-88 0.5t-89.5 0.5t-78.5 0.5h-53.5q-27 0 -47.5 8.5t-32.5 19t-14 19t8 8.5h34z" />
    <glyph glyph-name="grave" unicode="`" horiz-adv-x="833" 
d="M279 854q0 11 14.5 23t32.5 20t32.5 9.5t14.5 -7.5q0 -6 10 -23t27 -38.5t38 -44.5t43.5 -42.5t43.5 -32t37 -12.5q6 0 6.5 -5.5t-4 -11.5t-13.5 -11.5t-24 -5.5q-27 0 -56 10.5t-58 27t-55 37t-46 40.5t-31.5 38t-11.5 29z" />
    <glyph glyph-name="a" unicode="a" 
d="M-42 190q0 44 15 91.5t40.5 93t61 86.5t76 72t85 49.5t89.5 18.5q35 0 60 -9.5t41 -24.5t24.5 -32.5t12 -34.5t2.5 -30t-3 -19q-3 -8 -7.5 -10.5t-7.5 -1t-5 5t-1 6.5t1 16.5t-7.5 28.5t-25 27t-50.5 12q-26 0 -56 -21.5t-59.5 -56t-57.5 -79t-50 -91t-36.5 -91t-18 -79
t5.5 -56t35 -21.5q29 0 59 25t58.5 63.5t53 84t43 87.5t29 73.5t10.5 41.5q0 15 16.5 12.5t36 -14.5t36 -29t16.5 -31q0 -9 -11 -35.5t-26 -60t-30.5 -70.5t-24.5 -68t-8 -51t19 -20q17 0 42.5 25.5t53.5 65.5t57 88.5t54 94t44 82.5t28 54q4 9 10.5 12t12 1.5t8 -7
t-1.5 -14.5q-10 -21 -31 -62.5t-48.5 -91.5t-60 -102.5t-65 -95.5t-63.5 -70.5t-55 -27.5q-41 0 -63.5 19.5t-33.5 42.5q-13 27 -16 63q-26 -36 -54 -63q-24 -23 -53 -42.5t-57 -19.5q-36 0 -64 17t-47 44t-28.5 61t-9.5 68z" />
    <glyph glyph-name="b" unicode="b" horiz-adv-x="742" 
d="M742 455q4 9 10.5 12t12 1.5t8 -7t-1.5 -14.5q-10 -21 -36.5 -62.5t-68 -91t-97.5 -101.5t-123.5 -95t-147 -70t-168.5 -27q-96 0 -138 48.5t-42 136.5q0 20 13 59.5t34 90.5t48.5 110t55.5 119.5t55.5 119t48.5 107.5t34 85.5t13 53.5q0 21 17.5 22t38.5 -10.5t38.5 -31
t17.5 -40.5q0 -17 -8.5 -46t-22 -64.5t-31 -75.5t-35.5 -79q-42 -92 -96 -196q49 53 99 95q21 18 44.5 35t47.5 30.5t47.5 22t44.5 8.5q34 0 54.5 -16t30.5 -39t13 -49t3 -47q0 -49 -18 -100.5t-49 -101t-72.5 -94t-87.5 -77.5q58 22 109 55.5t95 71t79.5 76.5t62.5 73.5
t44 61.5t24 41zM137 48q28 0 60 22.5t64 59.5t62 85t52.5 97.5t36 97.5t13.5 86q0 28 -15.5 34.5t-41 -4t-58 -34t-66 -56t-66 -70t-58 -75.5t-41 -72.5t-15.5 -61.5q0 -17 4 -36.5t12.5 -35.5t22.5 -26.5t34 -10.5z" />
    <glyph glyph-name="c" unicode="c" horiz-adv-x="507" 
d="M75 0q-47 0 -82 20.5t-58 52t-34 68.5t-11 71q0 71 34.5 140.5t91 125t127.5 89.5t144 34q30 0 45.5 -13t21 -33t3 -43.5t-7 -44.5t-10 -36.5t-6.5 -18.5q-3 -9 -8.5 -12.5t-11 -3t-8 5.5t0.5 14q14 44 19 78q2 15 2.5 29t-2 25t-8.5 17.5t-16 6.5q-26 0 -56 -22
t-59.5 -58.5t-56.5 -82.5t-48 -94.5t-33.5 -94.5t-13.5 -82.5t12 -58.5t44 -22q51 0 100 25t92.5 63.5t80.5 85.5t66.5 91t49 80.5t28.5 53.5q4 8 10.5 11t12 1.5t8 -6.5t-1.5 -14q-10 -21 -32.5 -62.5t-55 -91.5t-74 -102t-89.5 -94.5t-101 -70t-109 -27.5z" />
    <glyph glyph-name="d" unicode="d" horiz-adv-x="727" 
d="M727 454q4 8 10.5 11t12 1.5t8 -6.5t-1.5 -14q-10 -21 -33 -62.5t-54.5 -91t-69 -101.5t-75.5 -94.5t-74.5 -69.5t-66.5 -27q-41 0 -63.5 19.5t-33.5 42.5q-13 27 -16 63q-23 -36 -49 -63q-23 -23 -52.5 -42.5t-61.5 -19.5q-36 0 -64 17t-47 44t-28.5 60.5t-9.5 67.5
q0 44 14.5 91.5t40.5 93t61 86.5t75.5 72t85 49t89.5 18q28 0 48 -6.5t33 -17t20 -24t10 -27.5q34 75 63.5 145t51.5 125.5t34.5 91.5t12.5 43q0 15 16.5 12.5t36 -14.5t36 -29t16.5 -31q0 -23 -17 -70.5t-44 -109.5t-60 -133.5t-66 -142.5t-62 -136.5t-47 -116t-22 -80.5
t14 -30q23 0 53.5 25.5t64.5 65t68 87t63 93t50 82t30 53.5zM122 40q24 0 55.5 33t67.5 88.5t74 127.5t75 149q-12 1 -21.5 4.5t-7.5 7.5q1 3 6.5 16.5t7.5 28t-1.5 26.5t-19.5 12q-35 0 -76 -36.5t-78.5 -91.5t-68 -118.5t-45 -118.5t-8.5 -91.5t40 -36.5z" />
    <glyph glyph-name="e" unicode="e" horiz-adv-x="588" 
d="M588 454q4 9 10.5 12t12 1.5t8 -7t-1.5 -14.5q-10 -21 -31.5 -62t-52.5 -91t-71.5 -101.5t-88.5 -94.5t-103.5 -70t-115.5 -27q-47 0 -82 20.5t-58 51.5t-34 68t-11 71q0 71 34.5 140.5t90.5 124.5t127 89t144 34q39 0 56 -16.5t17 -44t-14.5 -63t-39 -73t-56.5 -73.5
t-67.5 -65.5t-72 -49.5t-69.5 -24q-12 -57 -1.5 -95t51.5 -38q50 0 98 24.5t92 63t82 85.5t68 91t50.5 80t28.5 53zM379 563q-32 0 -69 -31.5t-71.5 -80t-63.5 -107t-45 -113.5q35 8 74 35.5t74.5 64.5t65 78t45.5 75t15 56.5t-25 22.5z" />
    <glyph glyph-name="f" unicode="f" horiz-adv-x="339" 
d="M600 782q0 -8 -21 -24t-65.5 -31.5t-113 -28t-162.5 -12.5q-39 -98 -82.5 -208.5t-89.5 -219t-94.5 -208t-97.5 -175.5t-98 -121t-95 -45q-14 0 -22 4t-9.5 9.5t4 9.5t18.5 4q25 0 54 43.5t61.5 117t68.5 170.5t75 203t81 214.5t87 206.5q-75 6 -133.5 18t-98.5 25.5
t-61 26t-21 19.5q0 13 17 11.5t56.5 -10t104.5 -19.5t162 -17q33 67 66.5 124.5t68.5 99t71 65t73 23.5q28 0 43.5 -11.5t21 -26t1 -26t-14.5 -11.5q-11 0 -13.5 7.5t-4 16.5t-5.5 16.5t-17 7.5q-12 0 -28.5 -21.5t-36 -59.5t-42 -91t-47.5 -116q77 0 139.5 9t107 18.5
t68.5 14.5t24 -2z" />
    <glyph glyph-name="g" unicode="g" horiz-adv-x="704" 
d="M705 454q4 8 10.5 11t12 1.5t8 -7t-1.5 -14.5q-18 -42 -53 -86.5t-81.5 -90.5t-101.5 -93t-114 -93q-26 -58 -58 -120t-67 -121.5t-72 -113t-74 -93.5t-73 -63.5t-69 -23.5q-43 0 -71 10.5t-44.5 25.5t-23 32t-6.5 31q0 29 30 65.5t81 79.5t117.5 91t140.5 101
q16 30 30 60.5t28 59.5q-11 -14 -28 -32t-37 -34.5t-41.5 -28t-42.5 -11.5q-36 0 -64 17t-47 44t-29 61t-10 68q0 44 15 92t41 94t61 87t76 72t86 49.5t90 18.5q35 0 60 -9.5t41 -24.5t25 -33t12.5 -34.5t2.5 -30t-3 -18.5q-8 -17 -16 -12t-6 12q1 3 1 16.5t-7.5 28.5
t-25 27t-50.5 12q-26 0 -56 -21.5t-60 -56.5t-57.5 -79.5t-49.5 -91t-37 -91t-18.5 -79.5t5.5 -56.5t35 -21.5q35 0 69 30.5t64 75t53.5 94t37.5 88.5q12 38 15 59v1v6q0 25 8.5 34t21 7.5t27.5 -12t27.5 -25.5t21 -32.5t8.5 -32.5q0 -20 -16 -69.5t-45 -116.5
q96 76 174.5 154t119.5 156zM-109 -370q29 0 61.5 22t66.5 60t68 88.5t66 107.5q-58 -44 -108.5 -83t-88 -72.5t-59.5 -60t-22 -45.5q0 -17 16 -17z" />
    <glyph glyph-name="h" unicode="h" horiz-adv-x="618" 
d="M618 454q4 9 10.5 12t12 1.5t8 -7t-1.5 -14.5q-10 -21 -33.5 -62t-55.5 -91t-69.5 -101.5t-75.5 -94.5t-74.5 -70t-65.5 -27q-44 0 -72.5 33.5t-28.5 90.5q0 20 8.5 50.5t22.5 66.5t31.5 75t35 77t33.5 72.5t28 61.5q-21 -22 -51 -56t-64.5 -74t-70.5 -83.5t-67 -85.5
t-55.5 -79t-35.5 -63q-3 -14 -3 -24t3.5 -21t5 -20t-1 -15t-13.5 -6q-17 0 -35.5 8.5t-33.5 24.5t-24.5 38.5t-9.5 50.5q0 25 14 67.5t36.5 96t51.5 114.5t59.5 124t59.5 124t51.5 114.5t36.5 96t14 67.5q0 17 18 15t39.5 -16t39.5 -36.5t18 -44.5q0 -24 -13 -63t-34 -88
t-48.5 -105.5t-57 -115t-58.5 -116.5t-53 -109q22 28 51.5 65.5t62 76.5t64.5 77t59 67.5t47 48t28 18.5h1q10 1 24.5 -7.5t28 -22.5t23.5 -31.5t10 -35.5q0 -12 -17.5 -50.5t-42.5 -89t-50.5 -106t-42.5 -102t-18.5 -77t22.5 -30.5q18 0 46 25.5t61 65t67 87t63.5 93
t51.5 82t30 53.5z" />
    <glyph glyph-name="i" unicode="i" horiz-adv-x="376" 
d="M180 690q-11 0 -14.5 12t-2 30t8 39.5t15 39.5t19.5 30t23 12q16 0 31 -4.5t27 -13.5t19 -22t7 -29t-10 -33t-27.5 -30.5t-42 -22t-53.5 -8.5zM376 457q4 8 11 11t12 1.5t7.5 -6.5t-1.5 -14q-10 -21 -31.5 -62.5t-51 -91.5t-65.5 -102.5t-74.5 -95t-78.5 -70t-78 -27.5
q-45 0 -73 33.5t-28 90.5q0 25 13 66t33 88t43 96.5t43 92t33 74t13 43.5q0 18 15 16t33.5 -16.5t33.5 -36.5t15 -45q0 -12 -17.5 -50t-42 -88.5t-50.5 -106t-42.5 -102t-18 -77t22.5 -30.5q26 0 57.5 25.5t65 65t66 88t60 94t47.5 82.5t28 54z" />
    <glyph glyph-name="j" unicode="j" horiz-adv-x="203" 
d="M159 847q39 0 58 -18t19 -47q0 -30 -17.5 -48.5t-40 -28.5t-44.5 -13t-32 -3q-18 0 -22 24.5t4.5 54.5t27.5 54.5t47 24.5zM39 583q0 18 15 16t33.5 -16t33.5 -36t15 -45q0 -15 -15 -62.5t-41.5 -115.5t-63 -150t-80 -165t-91.5 -161t-98.5 -138.5t-101 -97t-98.5 -36.5
q-34 0 -59 14.5t-38.5 32.5t-15 32.5t11.5 14.5t20 -7t12 -15.5t10.5 -15.5t16.5 -7q31 0 71 38t83.5 100.5t88.5 143t87 166.5t79 170.5t65 155t44 119.5t16 65z" />
    <glyph glyph-name="k" unicode="k" horiz-adv-x="559" 
d="M559 455q4 8 10.5 11t12 1.5t8 -7t-1.5 -14.5q-10 -21 -30.5 -62t-48.5 -91t-61.5 -101.5t-69.5 -94.5t-72.5 -70t-70.5 -27q-35 0 -62 26t-45.5 63.5t-28 78.5t-9.5 72q-5 0 -15 8t-20 19q-32 -69 -53.5 -123t-21.5 -82q0 -10 3.5 -21t5 -20t-0.5 -15t-14 -6
q-17 0 -35 8.5t-33 24.5t-25 38.5t-10 50.5q0 34 24 97t60 141t78 163.5t78 163.5t60 141t24 97q0 18 18 15.5t39 -16.5t39 -36t18 -44q0 -26 -15 -69.5t-39 -98t-54.5 -116t-61.5 -124.5q30 26 63.5 55t63.5 53t53.5 39.5t32.5 15.5h4h3q13 -2 27 -10t25 -21t18 -30.5
t7 -37.5q0 -38 -24 -76.5t-62.5 -72.5t-86.5 -60t-96 -39q1 -29 2.5 -66.5t8 -71.5t21 -57.5t41.5 -23.5q24 0 53 22.5t60 58.5t62 82t58.5 93t49.5 90.5t36 75.5zM95 338q36 4 72 21t67.5 40t57 50t42 50t22 39.5t-2.5 19.5q-8 -6 -37 -27.5t-68 -52.5t-80.5 -68t-72.5 -72
z" />
    <glyph glyph-name="l" unicode="l" horiz-adv-x="377" 
d="M348 835q0 -25 -17 -71.5t-43.5 -105.5t-60 -126.5t-65.5 -134t-59.5 -127.5t-43.5 -108t-17 -75t21 -28t51 24t61.5 62t64.5 83.5t59.5 89t48 79t29.5 52.5q4 9 10.5 12t12 1.5t8 -7t-1.5 -14.5q-10 -21 -32.5 -62t-54 -90t-68.5 -100t-76 -93t-77.5 -69t-72.5 -27
q-44 0 -72 33.5t-28 90.5q0 22 13.5 64t36 96.5t51.5 117.5t59 128t58.5 127.5t51 115.5t36.5 92.5t14 59.5q0 17 16 14t35.5 -18.5t35.5 -39t16 -46.5z" />
    <glyph glyph-name="m" unicode="m" horiz-adv-x="945" 
d="M945 453q4 8 10.5 11t11.5 1.5t7.5 -6.5t-1.5 -14q-10 -21 -32 -62t-52.5 -90.5t-66 -101.5t-72.5 -94.5t-72 -69.5t-64 -27q-44 0 -72.5 33.5t-28.5 90.5q0 30 18.5 81t44 108.5t52.5 114t44 96.5q-21 -22 -51 -55.5t-64.5 -73.5t-69.5 -83.5t-66.5 -85t-55.5 -78
t-36 -62.5q-1 -7 -1.5 -13t-0.5 -11q0 -10 3.5 -21t5 -20t-1 -15t-13.5 -6q-17 0 -35 8.5t-33 24.5t-24.5 38.5t-9.5 49.5q0 43 20.5 97t48.5 109.5t55 109t41 95.5q-19 -20 -49.5 -54t-65.5 -75t-72 -86t-69.5 -88t-58 -81t-36.5 -65q-1 -5 -1.5 -10.5t-0.5 -10.5
q0 -10 3.5 -21t5 -20t-0.5 -15t-14 -6q-17 0 -35 8.5t-33 24.5t-24.5 38.5t-9.5 49.5q0 33 13 73.5t32.5 83t42 86t42 83.5t32.5 74.5t13 60.5q0 17 17.5 18t38 -12t38 -37t17.5 -56q0 -15 -10 -41.5t-26 -59t-35 -70t-38 -74.5q22 28 51.5 65t61 75.5t63 75.5t58 66t46 47
t27.5 18h1q11 1 27.5 -5t31.5 -19.5t26 -33t11 -44.5q0 -15 -10 -41t-25.5 -58.5t-34.5 -70t-38 -74.5q22 28 51.5 65t60.5 75.5t62.5 75.5t58 66t46 46.5t27.5 17.5h1q5 0 8 -1h1q11 -3 24 -12.5t24.5 -23t19.5 -29t8 -31.5q0 -12 -17.5 -50t-42 -88t-50.5 -105.5
t-42.5 -102t-18 -76.5t22.5 -30q17 0 44.5 25.5t58.5 64.5t63 87t60 93t49 81.5t30 53.5z" />
    <glyph glyph-name="n" unicode="n" horiz-adv-x="625" 
d="M625 453q4 8 10.5 11t12 1.5t8 -6.5t-1.5 -14q-10 -21 -30 -62t-46.5 -90.5t-58 -101.5t-65.5 -94.5t-68 -69.5t-65 -27q-44 0 -72.5 33.5t-28.5 90.5q0 30 18.5 81t44 109t52.5 114t44 97q-21 -22 -51.5 -56.5t-65 -74.5t-70 -84t-67 -86t-55.5 -78.5t-35 -62.5
q-1 -5 -1.5 -10.5t-0.5 -10.5q0 -10 3.5 -21t5 -20t-1 -15t-13.5 -6q-17 0 -35 8.5t-33 24.5t-24.5 38.5t-9.5 49.5q0 33 13 73.5t32.5 83t42 86t42 83.5t32.5 74.5t13 60.5q0 17 17.5 18t38 -12t38 -37t17.5 -56q0 -15 -10 -41.5t-26 -59t-35.5 -70t-38.5 -74.5
q22 28 51.5 65t61 75.5t63 75.5t58.5 66t46 47t27 18h2q5 0 8 -1h2l1 -1q11 -3 24 -12.5t24 -22.5t18.5 -28.5t7.5 -31.5q0 -12 -17.5 -50t-42 -88t-50.5 -105.5t-42.5 -102t-18 -76.5t22.5 -30q17 0 42 23.5t52.5 60.5t56 82.5t53.5 90.5t44.5 84.5t29.5 63.5z" />
    <glyph glyph-name="o" unicode="o" horiz-adv-x="642" 
d="M644 453q4 11 10.5 14t11.5 0t6.5 -10.5t-2.5 -17.5q-7 -15 -21.5 -40.5t-35.5 -55.5t-49 -62t-61 -59t-71.5 -46.5t-81.5 -24.5q-46 -68 -103.5 -109.5t-119.5 -41.5q-32 0 -62 12.5t-53.5 37.5t-37.5 62t-14 86q0 47 17 97.5t40.5 92.5t47 69t36.5 27t27.5 -3t28.5 -9
q18 25 39 48t45 41t50 28.5t53 10.5q34 0 56.5 -7.5t35.5 -21.5t18 -33t5 -42q0 -80 -23.5 -160t-62.5 -148q32 9 63 28.5t59 44.5t52.5 53t44 54.5t33 49t19.5 35.5zM130 42q48 0 90.5 30t77.5 78q-56 6 -104 36t-74 72q-18 -39 -31.5 -77.5t-16 -69t10 -50t47.5 -19.5z
M319 181q23 37 42 79t32 83t20 78.5t7 65.5t-7.5 45t-22.5 17q-12 0 -36 -26.5t-49.5 -67t-46 -87.5t-24 -88t14.5 -69t70 -30z" />
    <glyph glyph-name="p" unicode="p" horiz-adv-x="699" 
d="M700 455q4 8 10.5 11t12 1.5t8 -6.5t-1.5 -14q-10 -21 -35 -62.5t-63.5 -91t-90.5 -101.5t-116.5 -95t-140.5 -70t-163 -27q-46 0 -75 14.5t-46 37.5q-33 -58 -61 -107.5t-47 -84.5q-35 -75 -56.5 -132t-21.5 -84q0 -10 3.5 -21t5 -20t-1 -15t-13.5 -6q-17 0 -35.5 8.5
t-33.5 24.5t-24.5 38.5t-9.5 50.5q0 25 15 71t39.5 104.5t56 126.5t64.5 138t64.5 138.5t56 127t39.5 104t15 70.5q0 18 18 16t39.5 -16t39.5 -36.5t18 -44.5q0 -18 -8.5 -47.5t-23 -67t-34.5 -81.5t-42 -92q42 72 85.5 141t83 123t73 87.5t55.5 33.5q31 0 56 -5t42 -20.5
t26 -44.5t9 -78q0 -33 -12 -81.5t-35.5 -101.5t-58.5 -104.5t-81 -90.5q55 22 104.5 55t91 70.5t75.5 77t59.5 74.5t42 62.5t23.5 41.5zM72 34q31 0 62.5 22t61 58t56.5 82t49 93.5t37.5 93.5t23 82t6 58t-14.5 22q-21 0 -58.5 -42.5t-84 -109.5t-96.5 -148.5t-96 -160.5
q7 -23 20 -36.5t34 -13.5z" />
    <glyph glyph-name="q" unicode="q" horiz-adv-x="623" 
d="M623 453q4 9 10.5 12t12 1.5t8 -7t-1.5 -14.5q-9 -20 -31.5 -52.5t-53.5 -75t-69.5 -91.5t-80 -102t-84 -107t-82.5 -106l-56.5 -113t-48.5 -102.5t-33.5 -85t-12.5 -58.5q0 -10 3.5 -21t5 -20t-1 -15t-13.5 -6q-17 0 -35.5 8.5t-33.5 24.5t-24.5 38.5t-9.5 50.5
q0 21 10.5 55.5t27.5 77.5t40 93t48.5 103t51.5 107t50 105q-21 -24 -45.5 -51.5t-49.5 -50t-47 -37.5t-38 -15q-36 0 -58 22t-33 53t-14.5 62.5t-3.5 51.5q0 44 12.5 91.5t34.5 93t53 86.5t68.5 72t79.5 49t87 18q53 0 82 -20t42.5 -46t14.5 -50.5t-3 -32.5t-8 -10.5
t-7.5 -1t-5.5 5t0 6.5q1 3 1 16.5t-7.5 28.5t-25 26.5t-50.5 11.5q-37 0 -75 -36.5t-71 -91.5t-59 -118.5t-41 -118.5t-16 -91.5t16 -36.5q11 0 38.5 26.5t61.5 66.5t70 87.5t65 89.5q12 33 19.5 60t7.5 45q0 17 18 15t39 -16t39 -36t18 -44q0 -19 -8.5 -48t-22.5 -64.5
t-33 -77t-41 -86.5q21 25 49.5 60.5t59.5 74t62 78.5t57 75.5t45 64t27 43.5z" />
    <glyph glyph-name="r" unicode="r" horiz-adv-x="396" 
d="M396 453q4 8 10.5 11t11.5 1.5t7.5 -6.5t-1.5 -14q-10 -21 -30 -62t-47 -90.5t-58.5 -101.5t-64.5 -94.5t-65.5 -69.5t-60.5 -27q-26 0 -47.5 9.5t-36.5 25.5t-23 36t-8 40q0 38 14 83t31 85q20 47 46 93q-12 4 -24 12q-11 7 -23 17.5t-23 25.5q-7 -15 -12 -26
t-11.5 -23.5t-15.5 -29t-23 -41.5q-5 -8 -11 -10t-11.5 0.5t-7.5 8t3 12.5q16 29 27 49t18.5 35t13 27t11.5 24q0 2 2 4q-13 28 -13 63q0 31 7 61.5t18 55t24.5 39.5t27.5 15t32.5 -2.5t35.5 -8.5t28.5 -15.5t11.5 -23.5q0 -15 -11 -35t-24.5 -43.5t-24.5 -49.5t-11 -52
q0 -36 15 -56t32.5 -32t32.5 -20.5t15 -22.5q0 -10 -11 -35.5t-26 -58t-30 -68t-23 -65t-5 -48.5t25 -19q18 0 44 25t54.5 64.5t57.5 88t54 95t44.5 85t28.5 59.5z" />
    <glyph glyph-name="s" unicode="s" horiz-adv-x="422" 
d="M423 453q4 8 10.5 11t11.5 1.5t7.5 -7t-1.5 -13.5q-9 -19 -26 -55t-42.5 -80t-58 -91.5t-73 -89.5t-88.5 -74.5t-103 -45.5h-3q-32 -8 -63 -8h-6q-51 0 -78.5 18.5t-38 40.5t-8.5 40.5t11 18.5q8 0 11.5 -11.5t9.5 -25t20 -24.5t43 -11q20 0 43 14t42 38t31.5 56.5
t12.5 69.5q0 28 -8.5 51.5t-20.5 46t-25 46t-23 50.5q-7 -15 -11.5 -24.5t-9 -19.5t-12 -23.5t-20.5 -36.5q-5 -8 -11 -10t-11 0.5t-7 8t2 12.5q16 29 26.5 48.5t17.5 34t11.5 25.5t10.5 23q1 2 3 4q-4 17 -4 40q0 42 15.5 77t38 60t46.5 39t42 14q9 0 22.5 -1.5t26 -6.5
t22 -14t9.5 -24t-13.5 -28.5t-30 -31t-30 -40t-13.5 -54.5q0 -41 13.5 -73t30 -62t30 -62t13.5 -71q0 -56 -19 -102q47 40 85 90t66 98t46.5 87t27.5 57z" />
    <glyph glyph-name="t" unicode="t" horiz-adv-x="448" 
d="M259 616q-28 -60 -59.5 -125.5t-60 -128.5t-51 -120t-32.5 -100t-4 -68.5t34 -25.5q32 0 69 25.5t74.5 64.5t73 87t65 93t50.5 82t30 54q4 8 10.5 11t12 1.5t8 -7t-1.5 -14.5q-10 -21 -32.5 -62t-54 -90.5t-70.5 -101.5t-82 -94.5t-88.5 -69.5t-89.5 -27q-17 0 -38.5 10
t-40.5 28.5t-32 46t-13 62.5q0 26 18 77t46 116.5t62.5 139t67.5 144.5q-50 6 -88 15t-64.5 18.5t-40 18t-13.5 13.5q0 10 11 9.5t37.5 -6t69.5 -13.5t107 -14l38 85.5t31 74.5t20.5 59.5t7.5 40.5q0 17 15 15t33.5 -16t33.5 -36t15 -45q0 -25 -17.5 -73t-46.5 -110h11
q60 0 108.5 7t83 14.5t53.5 11.5t19 -2t-16.5 -18.5t-51.5 -25t-89 -22t-129 -9.5h-9z" />
    <glyph glyph-name="u" unicode="u" horiz-adv-x="639" 
d="M641 453q4 8 10.5 11t12 1.5t8 -6.5t-1.5 -14q-10 -21 -29 -62t-45 -90.5t-57 -101.5t-64.5 -94.5t-68.5 -69.5t-68 -27q-18 0 -36 12t-32.5 30.5t-23 40t-8.5 41.5q0 27 15 72t38 97q-31 -44 -69.5 -95t-75.5 -95t-69 -73.5t-51 -29.5q-20 0 -38.5 13.5t-32.5 33
t-22.5 41.5t-8.5 39q0 34 13 73.5t32.5 81.5t42 84.5t42 82t32.5 73.5t13 60q0 17 17.5 18t38 -11.5t38 -36.5t17.5 -56q0 -18 -18.5 -59t-45 -92.5t-55 -106.5t-49 -100.5t-27.5 -74.5t11 -29q9 0 28.5 18t45 47t55 67t58.5 77q69 92 150 210q22 47 37 81.5t15 47.5
q0 17 15 15t33.5 -16t33.5 -36t15 -45q0 -12 -17.5 -50t-42 -88t-50 -105.5t-42 -102t-18.5 -76.5t22 -30q23 0 50 25.5t55 64.5t55.5 87t50.5 93t40.5 81.5t25.5 53.5z" />
    <glyph glyph-name="v" unicode="v" horiz-adv-x="541" 
d="M544 455q4 8 10.5 11t12 1.5t8 -6.5t-1.5 -14q-33 -63 -67 -111q-15 -21 -31 -40.5t-33 -35t-34 -25t-33 -9.5t-30.5 6t-27.5 17q-16 -32 -41 -75t-57.5 -81.5t-71 -65.5t-81.5 -27q-35 0 -64.5 15t-52 38.5t-35 51t-12.5 51.5q0 34 12 71.5t30 76.5t39.5 77.5t39.5 74.5
t30 68t12 58q0 17 17.5 18t38.5 -12t38.5 -37t17.5 -56q0 -18 -18.5 -58.5t-43.5 -91.5t-49.5 -104.5t-36.5 -98.5t-6 -73.5t44 -28.5q41 0 77 27t65.5 64t51 76t33.5 64q-14 17 -22 37t-8 38q0 24 12 51t26.5 57t26.5 62t12 66q0 17 17.5 18t38 -12t38 -37t17.5 -56
q0 -18 -10 -43t-23.5 -51.5t-27.5 -53t-22 -47t-7.5 -33.5t16.5 -13q12 0 25.5 8.5t27.5 22.5t27.5 32t26.5 37q29 44 59 101z" />
    <glyph glyph-name="w" unicode="w" horiz-adv-x="799" 
d="M798 455q4 8 10.5 11t12 1.5t8 -6.5t-1.5 -14q-33 -63 -67 -111q-15 -21 -31 -40.5t-33.5 -35t-34.5 -25t-33 -9.5q-21 0 -40.5 11t-35.5 28q-9 -19 -21.5 -46t-29 -56.5t-35 -58.5t-38.5 -52t-41 -37.5t-41 -14.5q-31 0 -58.5 12.5t-49 32t-35.5 43.5t-19 47
q-15 -26 -32 -50.5t-35 -43.5t-36.5 -30t-36.5 -11q-35 0 -64.5 15t-52 38.5t-35 51t-12.5 51.5q0 34 12 71.5t30 76.5t39.5 77.5t39.5 74.5t30 68t12 58q0 17 17.5 18t38.5 -12t38.5 -37t17.5 -56q0 -14 -10.5 -41t-27 -62t-35.5 -75t-36 -80.5t-29 -77t-14 -65t8.5 -45.5
t38.5 -17q16 0 34.5 17t37.5 43t36.5 57.5t32.5 60.5q9 30 25 59.5t31 59t26.5 59.5t11.5 62q0 18 17.5 18.5t38.5 -12t38.5 -37t17.5 -56.5q0 -18 -14 -49.5t-31 -68.5t-33.5 -74.5t-21.5 -68.5t6 -50.5t49 -19.5q16 0 35 17.5t38 44t36.5 58t32.5 60.5t25 51.5t13 30.5
q-7 14 -11 27t-4 25q0 24 12 51t26.5 57t26.5 62t12 66q0 17 17.5 18t38 -12t38 -37t17.5 -56q0 -18 -10 -43t-23.5 -51.5t-27.5 -53t-22 -47t-7.5 -33.5t16.5 -13q12 0 25.5 8.5t27.5 22.5t28 32t27 37q30 44 59 101z" />
    <glyph glyph-name="x" unicode="x" horiz-adv-x="621" 
d="M621 455q4 8 10.5 11t12 1.5t8 -6.5t-1.5 -14q-10 -21 -29.5 -62.5t-45.5 -91t-58.5 -101.5t-69 -95t-75.5 -70t-78 -27q-26 0 -47 14.5t-37 37.5t-25.5 50.5t-13.5 53.5q-2 5 -2.5 12t-1.5 15q-53 -57 -99 -104t-78 -74q-5 -5 -12 -5t-12.5 2t-7 6.5t3.5 9.5
q45 42 96.5 94.5t103.5 110.5q-4 30 -8 66.5t-8.5 73.5t-9.5 72t-10 62t-9.5 43.5t-8.5 16.5t-10.5 -7t-14.5 -18t-16.5 -25t-17.5 -29q-20 -35 -43 -79q-5 -9 -9.5 -9t-7.5 5t-4 13t3 17q22 48 45 87q10 16 21 32t22.5 28.5t23 20t23.5 7.5q4 0 24.5 -3t44 -15t44 -35
t25.5 -63q3 -21 7 -54.5t10 -73.5q55 66 101.5 127t75.5 108q4 6 10 8t10.5 0.5t7 -6.5t-1.5 -12q-10 -21 -29.5 -50.5t-45.5 -64t-57.5 -73t-65.5 -78.5q7 -48 14.5 -95.5t15.5 -85.5t15.5 -62t14.5 -24q23 0 50 25.5t55 65t55.5 87.5t51 93t41 82t25.5 54z" />
    <glyph glyph-name="y" unicode="y" horiz-adv-x="673" 
d="M672 455q4 8 10.5 11t12 1.5t8 -6.5t-1.5 -14q-19 -43 -55 -89t-84 -93.5t-105 -95.5t-118 -95q-46 -95 -98 -188t-105 -167t-103 -120t-91 -46q-43 0 -71 10t-44.5 25t-23 32t-6.5 31q0 27 27 61.5t73 74t107.5 84.5t129.5 94q42 78 80.5 159.5t70.5 156.5
q-31 -44 -68.5 -93.5t-73.5 -91t-66.5 -69t-48.5 -27.5q-20 0 -38.5 13.5t-32.5 33t-22.5 41.5t-8.5 39q0 34 13 74t32.5 82t42 85t42 82.5t32.5 73.5t13 60q0 15 17.5 15.5t38.5 -11.5t38.5 -35t17.5 -55q0 -14 -11 -41t-28 -62t-38 -75.5t-42 -80.5t-39 -77t-28.5 -65.5
t-11 -45.5t12.5 -17q10 0 32.5 21.5t51.5 55.5t62 77t64.5 86t58.5 81t45 64q23 59 36.5 96t13.5 43q0 25 8.5 34t21 7.5t27 -12t27 -26t21 -33t8.5 -32.5q0 -14 -10 -47t-27.5 -80.5t-42.5 -106.5t-55 -123q99 78 179.5 157t122.5 159zM-138 -365q24 0 51 19.5t56.5 53
t60 79.5t61.5 100q-52 -39 -97 -74t-78 -65t-51.5 -54.5t-18.5 -41.5t16 -17z" />
    <glyph glyph-name="z" unicode="z" horiz-adv-x="524" 
d="M526 455q4 8 10.5 11t12 1.5t8 -6.5t-1.5 -14q-18 -42 -51 -87t-75 -91.5t-92 -93.5t-103 -93q11 -31 11 -82q0 -23 -13 -65.5t-37 -92t-57 -101t-73 -93.5t-86 -68.5t-95 -26.5q-42 0 -70 10t-44.5 25t-23 32t-6.5 31q0 32 33 74t87.5 92t125 106.5t144.5 117.5
q2 6 2 10.5v9.5q0 34 -14.5 34.5t-35 -14.5t-42.5 -37t-37 -35q-9 -9 -11 -9h-4h-1q-5 0 -6 1q-12 2 -25 9t-23.5 16.5t-17 21.5t-6.5 24q0 10 7 28.5t18.5 41.5t26.5 49t31 52q36 60 83 130q-29 13 -51 33q-19 17 -34.5 45.5t-15.5 71.5q0 31 7 61.5t18 55t24.5 39.5
t27.5 15t33 -2.5t36 -8.5t28.5 -15.5t11.5 -24.5q0 -14 -11 -34.5t-24.5 -44t-24.5 -49.5t-11 -52q0 -36 15 -56t33 -32t33 -21t15 -23q0 -15 -9.5 -40t-25.5 -55.5t-35.5 -63t-38.5 -62.5q20 14 39.5 23t35.5 9q17 0 34.5 -5.5t31.5 -23.5q48 41 94 83.5t86.5 85.5t73 86.5
t55.5 86.5zM-196 -365q35 0 69 16.5t64.5 43.5t58 62.5t50 74t40 76.5t28.5 71q-65 -54 -124 -103.5t-104 -92t-71.5 -76t-26.5 -55.5q0 -17 16 -17z" />
    <glyph glyph-name="braceleft" unicode="{" horiz-adv-x="504" 
d="M579 1001q15 0 29 -6.5t20.5 -14t1.5 -14t-28 -6.5q-32 0 -66 -38t-69.5 -95.5t-71.5 -124t-71.5 -124t-70 -95.5t-66.5 -38q11 -6 21 -17q8 -11 15 -29t7 -50q0 -21 -13 -51.5t-32.5 -65.5t-42 -72.5t-42 -73.5t-32.5 -68t-13 -56q0 -14 7 -27t12 -23.5t3.5 -16.5
t-17.5 -6t-32 8.5t-28.5 25t-20.5 41.5t-8 59q0 19 15 50.5t36.5 70t46 81t44 82t29.5 73.5t3 56q-13 0 -27 6.5t-24.5 15t-14.5 15t4 6.5q42 0 81.5 38.5t78 96.5t77.5 126t80 126t85.5 96.5t93.5 38.5z" />
    <glyph glyph-name="bar" unicode="|" horiz-adv-x="289" 
d="M167 -124q0 -14 -13 -11t-28 17.5t-28 37t-13 47.5q0 19 0.5 62.5t1.5 104t2 132.5t2 147.5t2 150.5t2 140.5t1.5 118t0.5 82.5q0 14 16.5 9.5t36 -20t36 -40t16.5 -49.5q0 -16 -1.5 -57.5t-4 -100.5t-5.5 -130.5t-6.5 -147t-6.5 -151t-5.5 -141.5t-4 -118.5t-1.5 -82.5z
" />
    <glyph glyph-name="braceright" unicode="}" horiz-adv-x="583" 
d="M452 986q13 0 32 -6.5t36.5 -21t29.5 -36.5t12 -53q0 -26 -18 -69.5t-45 -95t-58 -106.5t-58 -104t-45 -86.5t-18 -54.5t5 -28t10.5 -19t10.5 -13.5t5 -10.5q0 -11 -9.5 -13.5t-21.5 -2.5q-30 0 -53 -30.5t-44 -76.5t-41.5 -100t-43.5 -100t-51 -76.5t-64 -30.5
q-17 0 -33.5 4t-29.5 9.5t-21.5 12t-8.5 11.5t4 5.5t11 -0.5t15 -3t17 -2q17 0 36.5 31.5t41.5 78.5t46.5 101.5t50.5 101.5t53.5 78.5t56.5 31.5q-8 5 -14 16q-5 9 -9 25t-4 42q0 19 18 57.5t45 86.5t59 102t59 104.5t45 93t18 68.5q0 16 -8 30t-15.5 25t-10.5 17.5t7 6.5z
" />
    <glyph glyph-name="asciitilde" unicode="~" horiz-adv-x="677" 
d="M224 707q-14 0 -21 16.5t-2.5 36t24.5 36t60 16.5q18 0 43 -4.5t51 -10t49 -10t37 -4.5q16 0 24.5 3.5t12.5 8t6 8.5t5 4q7 0 12.5 -18t5.5 -42q0 -23 -17.5 -34t-45.5 -11q-16 0 -40 5t-52 11.5t-58.5 11.5t-58.5 5q-13 0 -20 -4.5t-10 -9.5q-4 -6 -5 -14z" />
    <glyph glyph-name="exclamdown" unicode="&#xa1;" horiz-adv-x="509" 
d="M68 11q0 -14 -16.5 -11t-36 17t-36 36t-16.5 48q0 21 20.5 63.5t52 96t67.5 114t67.5 118t52 107t20.5 81.5q0 14 13 11t28.5 -17.5t28.5 -37.5t13 -48t-19 -68.5t-48 -96.5t-62 -112t-62 -114.5t-48 -104.5t-19 -82zM363 724q-14 0 -27 6t-23.5 15t-17 20t-6.5 22
t9 27.5t20.5 35.5t20.5 38.5t9 36.5q0 20 15 20.5t32.5 -10t32.5 -28.5t15 -34t-9.5 -41.5t-22 -49.5t-26 -41t-22.5 -17z" />
    <glyph glyph-name="cent" unicode="&#xa2;" horiz-adv-x="507" 
d="M428 596q19 -7 28 -22.5t11 -35t-1.5 -40.5t-8 -39t-9 -31t-5.5 -16q-3 -9 -8.5 -12.5t-11 -3t-8 5.5t0.5 14q13 39 18 72q2 14 3 27.5t-0.5 25t-5.5 19.5t-12 11q-17 -45 -43.5 -108t-55.5 -132.5t-58 -140.5t-51 -132q27 2 49.5 14t40.5 29t31.5 37.5t22.5 38.5
q4 9 10.5 12t12 1.5t8 -7t-1.5 -14.5q-11 -23 -28.5 -52t-41.5 -54.5t-55 -43.5t-68 -19q-11 -35 -18 -63t-7 -46q0 -11 -10 -8.5t-22 13.5t-22 29t-10 38q0 8 3.5 21t9.5 31q-29 13 -51 35.5t-36 49.5t-21 56t-7 56q0 66 30 130.5t79 118t112.5 90.5t131.5 47
q12 37 19.5 66t7.5 47q0 11 9.5 9.5t21 -11t21 -26t9.5 -36.5q0 -7 -3.5 -19.5t-9.5 -31.5zM331 539q-30 -24 -60 -60t-55 -79t-45 -88.5t-30.5 -88t-11 -78.5t12.5 -58q19 46 43.5 102.5t50 116.5t50.5 120t45 113z" />
    <glyph glyph-name="sterling" unicode="&#xa3;" horiz-adv-x="675" 
d="M686 106q7 0 10 -9.5t0 -23.5t-13 -30.5t-29.5 -30.5t-50.5 -23.5t-75 -9.5q-35 0 -83.5 17.5t-102.5 42.5t-109 51.5t-103 44.5q-11 -7 -21.5 -11t-21.5 -4q-24 0 -41.5 6t-27.5 14t-13.5 16.5t0.5 13.5v9q0 20 16 37t42 17q17 0 35 -3q29 36 59.5 89t62.5 115l-113 -1
q-5 0 -7.5 -2t-7.5 -2q-7 0 -7.5 13.5t6 30t19.5 29t33 11.5q58 -5 114 -9q36 69 74 136t77.5 120t80.5 86t84 33q49 0 81 -11t50 -27.5t25 -36.5t7 -39v-2q0 -12 -3 -22q-2 -5 -2.5 -9t-2.5 -8q-9 -23 -23.5 -46t-28.5 -45t-24 -43t-10 -40q0 -10 4 -20.5t-7 -10.5
q-9 0 -19 4.5t-18.5 12.5t-14 19t-5.5 25q0 25 16.5 56.5t37 63.5t37 63t16.5 56q-14 12 -33 12q-44 0 -85 -28t-78.5 -74.5t-72.5 -106.5t-68 -124q46 -3 73 -3q13 0 21.5 2t13.5 5t7.5 5t4.5 2q7 0 9.5 -11.5t0 -25t-10.5 -24.5t-22 -11l-129 -1q-34 -68 -66 -129.5
t-64 -106.5q45 -20 93.5 -44.5t95 -47t89 -37.5t75.5 -15q51 0 76.5 8t37.5 17t16.5 17t12.5 8z" />
    <glyph glyph-name="yen" unicode="&#xa5;" horiz-adv-x="605" 
d="M431 358q7 0 10 -11.5t0 -25t-11 -25t-22 -11.5l-97 -1q-5 -14 -10 -27t-10 -27q17 -1 30 -1h23q13 0 21.5 1t13.5 2.5t7.5 3t4.5 1.5q7 0 8.5 -10t-2.5 -22t-13 -22t-22 -10h-86q-5 -23 -7.5 -47t-2.5 -48q0 -29 6.5 -54.5t11.5 -44.5t4.5 -30t-13.5 -11q-23 0 -44 12
t-38 33t-27 48.5t-10 59.5q0 38 9 79q-57 -2 -86.5 -3t-33.5 -1q-17 0 -24.5 -4.5t-12.5 -4.5q-8 0 -8.5 13.5t6 30t20 29.5t33.5 12q32 -3 63.5 -5t60.5 -4q5 13 9.5 25t10.5 25l-140 -2q-5 0 -7.5 -2t-7.5 -2q-7 0 -7.5 13.5t5.5 30t19.5 29.5t33.5 12l70 -6t67 -5
q22 42 47.5 82t52.5 78q-47 -43 -88.5 -71t-69.5 -28h-1h-5q-20 0 -34 10.5t-23 26t-13 35t-4 37.5q0 40 11 79t27 75t35 68.5t35 58.5t27 45t11 29q0 11 0.5 17.5t11.5 6.5q10 0 20.5 -5.5t19.5 -16t14.5 -25t5.5 -31.5q0 -14 -20.5 -42.5t-45 -69t-45 -91t-20.5 -107.5
q0 -19 2.5 -33.5t5.5 -25.5q20 3 55.5 29t77.5 65t85.5 85t81 89t63.5 77.5t32 50.5q0 16 1.5 27t13.5 11q8 0 17.5 -4.5t18 -14.5t14 -25.5t5.5 -36.5q0 -33 -33.5 -79.5t-82.5 -105t-103.5 -128t-97.5 -148.5q13 -1 23.5 -1h18.5q14 0 22.5 2t13.5 5t7.5 5t4.5 2z" />
    <glyph glyph-name="dieresis" unicode="&#xa8;" horiz-adv-x="666" 
d="M243 836q23 0 38 -14t15 -30q0 -14 -6.5 -29.5t-18.5 -28.5t-29 -21t-37 -8q-5 0 -13 2.5t-15 8t-12 13.5t-5 20t8.5 27.5t21 28.5t27 22t26.5 9zM450 841q22 0 37.5 -14t15.5 -30q0 -14 -6.5 -29.5t-18.5 -28.5t-29 -21t-38 -8q-5 0 -12.5 2.5t-14.5 8t-12 13.5t-5 20
t8 27.5t20.5 28.5t27 22t27.5 9z" />
    <glyph glyph-name="copyright" unicode="&#xa9;" horiz-adv-x="900" 
d="M542 627q15 0 44 -11.5t57.5 -39.5t50 -74.5t21.5 -116.5q0 -78 -29.5 -144t-78 -117.5t-110 -86.5t-126 -51t-126 -10.5t-110 35t-78 85t-29.5 140.5q0 60 19 115.5t51 103t72.5 86.5t83.5 66.5t84.5 42.5t75.5 15q21 0 32 -6t14.5 -13.5t1 -13.5t-8.5 -6
q-21 0 -53.5 -13t-69 -38.5t-72.5 -62t-65.5 -83t-47.5 -103.5t-18 -122q0 -60 23.5 -99t62 -58.5t88 -20.5t101 15t101 48.5t88 80t62 109.5t23.5 137q0 49 -14.5 84t-34 57.5t-40 33.5t-31.5 11t-17 -2t-9.5 -4.5t-6.5 -4.5t-9 -2q-5 0 -7 6t0.5 13t10.5 13t24 6zM486 293
q-16 0 -16 11q0 3 10.5 20t20 36.5t11 35.5t-16.5 16q-10 0 -26 -10.5t-34 -28t-35.5 -40t-31.5 -46.5t-23 -47t-9 -42q0 -15 5 -24t16 -9q19 0 35 13t28 28t19.5 28t8.5 13q3 0 14.5 -4.5t11.5 -19.5q0 -7 -11 -25t-29 -36.5t-40.5 -32.5t-44.5 -14q-13 0 -31.5 9t-36 27
t-29.5 45.5t-12 63.5t21.5 73.5t54 68t70.5 50t72 19.5q26 0 42.5 -7.5t26 -19t13 -24t3.5 -22.5t-7.5 -27.5t-17.5 -35t-19.5 -30t-12.5 -12.5z" />
    <glyph glyph-name="guillemotleft" unicode="&#xab;" horiz-adv-x="722" 
d="M337 580q0 11 12 7t27 -16.5t27 -30t12 -32.5q0 -8 -14 -23.5t-37 -36.5t-52.5 -45t-60.5 -48q-72 -56 -164 -123q55 -28 98 -52q18 -11 36 -21.5t32 -20t22.5 -17t8.5 -12.5q0 -9 -4.5 -13.5t-11.5 -4.5t-14 3t-13 9q-10 10 -32 23t-49 28t-56 32t-53 34t-39.5 34.5
t-15.5 33.5q0 11 25.5 32.5t63 48.5t82 57t82 59t63 54t25.5 41zM606 580q0 11 12 7t27 -16.5t27 -30t12 -32.5q0 -8 -16 -25t-42 -40t-59.5 -50t-68.5 -54q-82 -63 -185 -139q40 -18 72 -36q27 -15 50 -30.5t23 -25.5q0 -9 -4.5 -13.5t-11.5 -4.5t-14 3t-13 9
q-10 10 -28 20.5t-39.5 22.5t-43.5 24.5t-40.5 26.5t-30 29t-11.5 31q0 11 28.5 34.5t71 54t92.5 65t92.5 67t71 59.5t28.5 44z" />
    <glyph glyph-name="registered" unicode="&#xae;" horiz-adv-x="900" 
d="M542 627q15 0 44 -11.5t57.5 -39.5t50 -74.5t21.5 -115.5q0 -78 -29.5 -144t-78 -118t-110 -87t-126 -51t-126 -10.5t-110 35t-78 85t-29.5 140.5q0 60 19 115.5t51 103t72.5 86.5t83.5 66.5t84.5 42.5t75.5 15q21 0 32 -6t15 -13t1 -13t-9 -6q-21 0 -53.5 -13t-69 -38.5
t-72.5 -62t-65.5 -83t-47.5 -103.5t-18 -122q0 -60 23.5 -99t62 -58.5t88 -21t101 14.5t101 48.5t88 80t62 109.5t23.5 137q0 49 -14.5 84t-34 57.5t-40 33.5t-31.5 11t-16.5 -2t-9.5 -4.5t-7 -4.5t-9 -2q-5 0 -7 6t0.5 13t11 13t23.5 6zM555 413q0 -23 -22.5 -47.5
t-49.5 -44.5q-32 -24 -72 -47q0 -33 9.5 -59t20.5 -44.5t20.5 -29.5t9.5 -15q0 -9 -15.5 -8.5t-35.5 14.5t-40 43t-30 77q-17 -43 -32 -74t-21 -31q-7 0 -18.5 3.5t-22 9.5t-18.5 13t-8 13q0 4 9 24t22.5 47t29.5 58.5t29.5 59.5t22.5 49t9 28q0 3 5.5 4t13 0.5t16.5 -3
t15 -6.5q11 9 28.5 17t40.5 8q39 0 61.5 -15t22.5 -44zM384 343q20 13 37 28t29.5 29t19.5 25.5t7 16.5t-7 5.5t-17 -2.5t-22.5 -10t-22.5 -17q-3 -12 -9.5 -32t-14.5 -43z" />
    <glyph glyph-name="degree" unicode="&#xb0;" horiz-adv-x="420" 
d="M366 930q19 0 36.5 -7t30 -18.5t20 -25.5t7.5 -29q0 -25 -11.5 -52t-32.5 -49.5t-50.5 -37t-65.5 -14.5q-9 0 -22.5 4.5t-26 14.5t-21.5 24.5t-9 35.5t14.5 47.5t36 50.5t47 40t47.5 16zM283 730q22 0 42.5 13t36.5 32t26 41.5t10 41.5t-9 19q-13 0 -32.5 -15.5
t-37.5 -36.5t-31 -43.5t-13 -36.5q0 -5 1.5 -10t6.5 -5z" />
    <glyph glyph-name="acute" unicode="&#xb4;" horiz-adv-x="669" 
d="M218 703q7 0 26.5 12t44.5 31.5t52.5 42.5t50 44.5t37 39.5t14.5 26q0 9 12.5 5t27.5 -14t27.5 -24.5t12.5 -26.5q0 -9 -15 -24.5t-39.5 -34t-55 -38t-60.5 -35t-57 -25.5t-44 -10q-15 0 -24 5t-13 10.5t-3 10.5t6 5z" />
    <glyph glyph-name="mu" unicode="&#xb5;" horiz-adv-x="653" 
d="M440 48q10 0 11.5 -7.5t-3 -16.5t-13.5 -16.5t-21 -7.5q-18 0 -36 12t-32.5 30.5t-23 40t-8.5 41.5q0 27 15 72t38 97q-31 -44 -69.5 -95t-75.5 -95t-69 -73.5t-51 -29.5q-21 0 -40 14q-28 -56 -53 -109.5t-43.5 -98.5t-29.5 -80.5t-11 -55.5q0 -14 -13 -11t-28 17.5
t-28 37t-13 47.5q0 20 16.5 65t43 105.5t60 131.5t67.5 143q11 23 23 49t25 55q29 63 52 119.5t36 98.5q4 16 6.5 29.5t2.5 24.5q0 6 3 11q1 9 14 7q12 1 28 -6t30.5 -21t25 -33.5t10.5 -43.5q0 -18 -18.5 -58.5t-44.5 -91.5q-26 -55 -58 -120t-65 -133q-10 -27 -10.5 -43
t12.5 -16q9 0 28.5 18t45 47t55 67t58.5 77q69 92 150 210q22 47 37 81.5t15 47.5q0 17 15 15t33.5 -16t33.5 -36t15 -45q0 -12 -17.5 -50t-42 -88t-50 -105.5t-42 -102t-18.5 -76.5t22 -30z" />
    <glyph glyph-name="guillemotright" unicode="&#xbb;" horiz-adv-x="660" 
d="M4 149q0 3 13 14t35 27.5t50 37t57 41.5q69 49 156 110q-8 7 -29 32t-45.5 55t-47 59.5t-34.5 44.5q-5 6 -1.5 12t10 8.5t14.5 1t13 -8.5q3 -5 20 -23.5t40.5 -44t50 -54.5t49 -56t37 -48t14.5 -30q0 -8 -17 -22.5t-44.5 -34.5t-63 -43t-72 -49t-71 -52.5t-60.5 -52.5
q-7 -7 -19.5 1.5t-24.5 22.5t-21 29.5t-9 22.5zM265 149q0 3 10.5 12t27 22.5t38 29.5t44.5 33q53 39 121 87q-5 4 -20 21t-34.5 40.5t-41.5 51t-42.5 53t-36.5 46.5t-24 31q-5 6 -1.5 12t10 8.5t14.5 1t13 -8.5q3 -5 23.5 -27.5t48.5 -53.5t60 -67t59 -68.5t45 -57.5
t18 -34q0 -12 -25.5 -31.5t-64 -45.5t-84 -59t-84.5 -72q-7 -7 -19.5 1.5t-24.5 22.5t-21 29.5t-9 22.5z" />
    <glyph glyph-name="questiondown" unicode="&#xbf;" horiz-adv-x="547" 
d="M496 665q-14 0 -27 6t-23.5 15t-17 20t-6.5 22t9 27.5t20.5 35.5t20.5 38.5t9 36.5q0 20 15 20.5t32.5 -10t32.5 -28.5t15 -34t-9.5 -41.5t-22 -49.5t-26 -41t-22.5 -17zM168 2q-28 0 -57.5 7t-54 23.5t-40 43.5t-15.5 67q0 32 25.5 70.5t64 80t83.5 84.5t83.5 84
t64 77.5t25.5 66.5q0 19 15.5 15t34.5 -19.5t34.5 -36.5t15.5 -36q0 -22 -24.5 -54t-61.5 -69.5t-80 -80t-80 -86.5t-61.5 -87.5t-24.5 -84.5q1 -13 12.5 -25t46.5 -12q21 0 46 11t49.5 28.5t48 40.5t41 46.5t28.5 46t11 39.5q0 21 -10.5 35.5t-27.5 14.5q-8 0 -9.5 2.5t0 5
t6 5t9.5 2.5q7 0 17.5 -2.5t20.5 -11t17.5 -24.5t7.5 -42q0 -27 -23 -65.5t-60 -74t-84 -60.5t-94 -25z" />
    <glyph glyph-name="Agrave" unicode="&#xc0;" horiz-adv-x="916" 
d="M1063 -135q5 9 10.5 10t10.5 -2q5 -4 9 -11q-13 -29 -38 -51q-21 -19 -57.5 -34.5t-92.5 -15.5t-118 21t-114 67t-85.5 119t-33.5 177q0 37 12 84.5t32 102.5q-51 13 -95.5 33t-87.5 43q-79 -88 -158.5 -168.5t-151 -142.5t-132 -99t-100.5 -37q-79 0 -134 25.5t-87 67
t-41 94.5t5.5 108.5t51 108.5t96 94.5t140.5 67t185 25.5q48 0 90 -8t79.5 -20.5t72 -29t68.5 -34.5q84 94 165 189t149.5 177t119 143t74.5 87v2q0 8 5 12t13 3q12 -1 29 -10t32.5 -22.5t26 -30.5t10.5 -34q0 -24 -13.5 -63t-36 -88t-51.5 -106.5t-60 -118.5t-62.5 -123
t-57.5 -120q18 -2 26.5 -8.5t7.5 -14t-12.5 -13t-34.5 -5.5h-5q-27 -63 -43.5 -116.5t-16.5 -91.5q0 -92 29 -151.5t70 -93.5t85.5 -47t76.5 -13q31 0 55 6t40.5 15t27 20t15.5 21zM-123 21q36 0 89.5 33.5t119 89.5t138.5 130.5t148 156.5q-32 16 -63.5 31t-65.5 26.5
t-70.5 18.5t-77.5 7q-78 0 -144 -36.5t-112.5 -91.5t-72 -118.5t-23.5 -118.5t34 -91.5t100 -36.5zM613 371q30 76 68.5 158.5t77 162t72.5 151.5t54 126q-23 -30 -67 -85.5t-102.5 -127t-128.5 -153.5t-145 -165q40 -20 81.5 -38t89.5 -29zM817 1336q0 11 14.5 23t32.5 20
t32.5 9.5t14.5 -7.5q0 -6 10 -23t27 -38.5t38 -44.5t43.5 -42.5t43.5 -32t37 -12.5q6 0 6.5 -5.5t-4 -11.5t-13.5 -11.5t-24 -5.5q-27 0 -56 10.5t-58 27t-55 37t-46 40.5t-31.5 38t-11.5 29z" />
    <glyph glyph-name="Aacute" unicode="&#xc1;" horiz-adv-x="916" 
d="M1063 -135q5 9 10.5 10t10.5 -2q5 -4 9 -11q-13 -29 -38 -51q-21 -19 -57.5 -34.5t-92.5 -15.5t-118 21t-114 67t-85.5 119t-33.5 177q0 37 12 84.5t32 102.5q-51 13 -95.5 33t-87.5 43q-79 -88 -158.5 -168.5t-151 -142.5t-132 -99t-100.5 -37q-79 0 -134 25.5t-87 67
t-41 94.5t5.5 108.5t51 108.5t96 94.5t140.5 67t185 25.5q48 0 90 -8t79.5 -20.5t72 -29t68.5 -34.5q84 94 165 189t149.5 177t119 143t74.5 87v2q0 8 5 12t13 3q12 -1 29 -10t32.5 -22.5t26 -30.5t10.5 -34q0 -24 -13.5 -63t-36 -88t-51.5 -106.5t-60 -118.5t-62.5 -123
t-57.5 -120q18 -2 26.5 -8.5t7.5 -14t-12.5 -13t-34.5 -5.5h-5q-27 -63 -43.5 -116.5t-16.5 -91.5q0 -92 29 -151.5t70 -93.5t85.5 -47t76.5 -13q31 0 55 6t40.5 15t27 20t15.5 21zM-123 21q36 0 89.5 33.5t119 89.5t138.5 130.5t148 156.5q-32 16 -63.5 31t-65.5 26.5
t-70.5 18.5t-77.5 7q-78 0 -144 -36.5t-112.5 -91.5t-72 -118.5t-23.5 -118.5t34 -91.5t100 -36.5zM613 371q30 76 68.5 158.5t77 162t72.5 151.5t54 126q-23 -30 -67 -85.5t-102.5 -127t-128.5 -153.5t-145 -165q40 -20 81.5 -38t89.5 -29zM773 1185q7 0 26.5 12t44.5 31.5
t52.5 42.5t50 44.5t37 39.5t14.5 26q0 9 12.5 5t27.5 -14t27.5 -24.5t12.5 -26.5q0 -9 -15 -24.5t-39.5 -34t-55 -38t-60.5 -35t-57 -25.5t-44 -10q-15 0 -24 5t-13 10.5t-3 10.5t6 5z" />
    <glyph glyph-name="Acircumflex" unicode="&#xc2;" horiz-adv-x="916" 
d="M1063 -135q5 9 10.5 10t10.5 -2q5 -4 9 -11q-13 -29 -38 -51q-21 -19 -57.5 -34.5t-92.5 -15.5t-118 21t-114 67t-85.5 119t-33.5 177q0 37 12 84.5t32 102.5q-51 13 -95.5 33t-87.5 43q-79 -88 -158.5 -168.5t-151 -142.5t-132 -99t-100.5 -37q-79 0 -134 25.5t-87 67
t-41 94.5t5.5 108.5t51 108.5t96 94.5t140.5 67t185 25.5q48 0 90 -8t79.5 -20.5t72 -29t68.5 -34.5q84 94 165 189t149.5 177t119 143t74.5 87v2q0 8 5 12t13 3q12 -1 29 -10t32.5 -22.5t26 -30.5t10.5 -34q0 -24 -13.5 -63t-36 -88t-51.5 -106.5t-60 -118.5t-62.5 -123
t-57.5 -120q18 -2 26.5 -8.5t7.5 -14t-12.5 -13t-34.5 -5.5h-5q-27 -63 -43.5 -116.5t-16.5 -91.5q0 -92 29 -151.5t70 -93.5t85.5 -47t76.5 -13q31 0 55 6t40.5 15t27 20t15.5 21zM-123 21q36 0 89.5 33.5t119 89.5t138.5 130.5t148 156.5q-32 16 -63.5 31t-65.5 26.5
t-70.5 18.5t-77.5 7q-78 0 -144 -36.5t-112.5 -91.5t-72 -118.5t-23.5 -118.5t34 -91.5t100 -36.5zM613 371q30 76 68.5 158.5t77 162t72.5 151.5t54 126q-23 -30 -67 -85.5t-102.5 -127t-128.5 -153.5t-145 -165q40 -20 81.5 -38t89.5 -29zM796 1168q7 0 24.5 13.5t39 34.5
t45.5 44.5t45 44.5t36 34.5t19 13.5q6 0 20.5 -2t29 -7.5t25.5 -14t11 -21.5q0 -24 15 -51.5t32.5 -52t32.5 -42t15 -20.5q0 -6 -6.5 -9.5t-11.5 -3.5q-18 0 -41.5 22t-44.5 48q-25 31 -49 71q-35 -40 -69 -71q-15 -13 -30.5 -25.5t-31 -22.5t-30.5 -16t-27 -6
q-15 0 -26.5 6t-18.5 13.5t-8.5 13.5t4.5 6z" />
    <glyph glyph-name="Atilde" unicode="&#xc3;" horiz-adv-x="916" 
d="M1063 -135q5 9 10.5 10t10.5 -2q5 -4 9 -11q-13 -29 -38 -51q-21 -19 -57.5 -34.5t-92.5 -15.5t-118 21t-114 67t-85.5 119t-33.5 177q0 37 12 84.5t32 102.5q-51 13 -95.5 33t-87.5 43q-79 -88 -158.5 -168.5t-151 -142.5t-132 -99t-100.5 -37q-79 0 -134 25.5t-87 67
t-41 94.5t5.5 108.5t51 108.5t96 94.5t140.5 67t185 25.5q48 0 90 -8t79.5 -20.5t72 -29t68.5 -34.5q84 94 165 189t149.5 177t119 143t74.5 87v2q0 8 5 12t13 3q12 -1 29 -10t32.5 -22.5t26 -30.5t10.5 -34q0 -24 -13.5 -63t-36 -88t-51.5 -106.5t-60 -118.5t-62.5 -123
t-57.5 -120q18 -2 26.5 -8.5t7.5 -14t-12.5 -13t-34.5 -5.5h-5q-27 -63 -43.5 -116.5t-16.5 -91.5q0 -92 29 -151.5t70 -93.5t85.5 -47t76.5 -13q31 0 55 6t40.5 15t27 20t15.5 21zM-123 21q36 0 89.5 33.5t119 89.5t138.5 130.5t148 156.5q-32 16 -63.5 31t-65.5 26.5
t-70.5 18.5t-77.5 7q-78 0 -144 -36.5t-112.5 -91.5t-72 -118.5t-23.5 -118.5t34 -91.5t100 -36.5zM613 371q30 76 68.5 158.5t77 162t72.5 151.5t54 126q-23 -30 -67 -85.5t-102.5 -127t-128.5 -153.5t-145 -165q40 -20 81.5 -38t89.5 -29zM834 1163q-14 0 -21 16.5
t-2.5 36t24.5 36t60 16.5q18 0 43 -4.5t51 -10t49 -10t37 -4.5q16 0 24.5 3.5t12.5 8t6 8.5t5 4q7 0 12.5 -18t5.5 -42q0 -23 -17.5 -34t-45.5 -11q-16 0 -40 5t-52 11.5t-58.5 11.5t-58.5 5q-13 0 -20 -4.5t-10 -9.5q-4 -6 -5 -14z" />
    <glyph glyph-name="Adieresis" unicode="&#xc4;" horiz-adv-x="916" 
d="M1063 -135q5 9 10.5 10t10.5 -2q5 -4 9 -11q-13 -29 -38 -51q-21 -19 -57.5 -34.5t-92.5 -15.5t-118 21t-114 67t-85.5 119t-33.5 177q0 37 12 84.5t32 102.5q-51 13 -95.5 33t-87.5 43q-79 -88 -158.5 -168.5t-151 -142.5t-132 -99t-100.5 -37q-79 0 -134 25.5t-87 67
t-41 94.5t5.5 108.5t51 108.5t96 94.5t140.5 67t185 25.5q48 0 90 -8t79.5 -20.5t72 -29t68.5 -34.5q84 94 165 189t149.5 177t119 143t74.5 87v2q0 8 5 12t13 3q12 -1 29 -10t32.5 -22.5t26 -30.5t10.5 -34q0 -24 -13.5 -63t-36 -88t-51.5 -106.5t-60 -118.5t-62.5 -123
t-57.5 -120q18 -2 26.5 -8.5t7.5 -14t-12.5 -13t-34.5 -5.5h-5q-27 -63 -43.5 -116.5t-16.5 -91.5q0 -92 29 -151.5t70 -93.5t85.5 -47t76.5 -13q31 0 55 6t40.5 15t27 20t15.5 21zM-123 21q36 0 89.5 33.5t119 89.5t138.5 130.5t148 156.5q-32 16 -63.5 31t-65.5 26.5
t-70.5 18.5t-77.5 7q-78 0 -144 -36.5t-112.5 -91.5t-72 -118.5t-23.5 -118.5t34 -91.5t100 -36.5zM613 371q30 76 68.5 158.5t77 162t72.5 151.5t54 126q-23 -30 -67 -85.5t-102.5 -127t-128.5 -153.5t-145 -165q40 -20 81.5 -38t89.5 -29zM888 1299q23 0 38 -14t15 -30
q0 -14 -6.5 -29.5t-18.5 -28.5t-29 -21t-37 -8q-5 0 -13 2.5t-15 8t-12 13.5t-5 20t8.5 27.5t21 28.5t27 22t26.5 9zM1095 1304q22 0 37.5 -14t15.5 -30q0 -14 -6.5 -29.5t-18.5 -28.5t-29 -21t-38 -8q-5 0 -12.5 2.5t-14.5 8t-12 13.5t-5 20t8 27.5t20.5 28.5t27 22t27.5 9
z" />
    <glyph glyph-name="Aring" unicode="&#xc5;" horiz-adv-x="916" 
d="M1063 -135q5 9 10.5 10t10.5 -2q5 -4 9 -11q-13 -29 -38 -51q-21 -19 -57.5 -34.5t-92.5 -15.5t-118 21t-114 67t-85.5 119t-33.5 177q0 37 12 84.5t32 102.5q-51 13 -95.5 33t-87.5 43q-79 -88 -158.5 -168.5t-151 -142.5t-132 -99t-100.5 -37q-79 0 -134 25.5t-87 67
t-41 94.5t5.5 108.5t51 108.5t96 94.5t140.5 67t185 25.5q48 0 90 -8t79.5 -20.5t72 -29t68.5 -34.5q84 94 165 189t149.5 177t119 143t74.5 87v2q0 8 5 12t13 3q12 -1 29 -10t32.5 -22.5t26 -30.5t10.5 -34q0 -24 -13.5 -63t-36 -88t-51.5 -106.5t-60 -118.5t-62.5 -123
t-57.5 -120q18 -2 26.5 -8.5t7.5 -14t-12.5 -13t-34.5 -5.5h-5q-27 -63 -43.5 -116.5t-16.5 -91.5q0 -92 29 -151.5t70 -93.5t85.5 -47t76.5 -13q31 0 55 6t40.5 15t27 20t15.5 21zM-123 21q36 0 89.5 33.5t119 89.5t138.5 130.5t148 156.5q-32 16 -63.5 31t-65.5 26.5
t-70.5 18.5t-77.5 7q-78 0 -144 -36.5t-112.5 -91.5t-72 -118.5t-23.5 -118.5t34 -91.5t100 -36.5zM613 371q30 76 68.5 158.5t77 162t72.5 151.5t54 126q-23 -30 -67 -85.5t-102.5 -127t-128.5 -153.5t-145 -165q40 -20 81.5 -38t89.5 -29zM1000 1385q19 0 36.5 -7
t30 -18.5t20 -25.5t7.5 -29q0 -25 -11.5 -52t-32.5 -49.5t-50.5 -37t-65.5 -14.5q-9 0 -22.5 4.5t-26 14.5t-21.5 24.5t-9 35.5t14.5 47.5t36 50.5t47 40t47.5 16zM917 1185q22 0 42.5 13t36.5 32t26 41.5t10 41.5t-9 19q-13 0 -32.5 -15.5t-37.5 -36.5t-31 -43.5t-13 -36.5
q0 -5 1.5 -10t6.5 -5z" />
    <glyph glyph-name="AE" unicode="&#xc6;" horiz-adv-x="1650" 
d="M1847 1070q0 -30 -12.5 -63t-31.5 -66.5t-41 -67.5t-41 -66.5t-31.5 -63.5t-12.5 -58q0 -9 3 -19t5 -18.5t-0.5 -14t-12.5 -5.5q-15 0 -33 8t-33.5 22.5t-26 35t-10.5 45.5q0 44 26 97.5t58 109.5q-6 9 -22.5 16t-39.5 7q-61 0 -118.5 -18t-108.5 -47t-93 -66.5
t-72 -76.5t-47 -76t-17 -66v-11.5t2 -11.5q41 17 80 26.5t75 9.5q71 0 109.5 -18t56.5 -41.5t21 -45.5t3 -31q0 -17 -6 -27t-14 -15.5t-15.5 -7.5t-10.5 -2q-6 0 -8 3.5t-2 5.5q0 7 5 10t5 8q0 14 -23 28t-61 14q-63 0 -126 -20q22 -11 45 -19.5t45 -13.5t41 -7.5t33 -2.5
t22 1t8 -5q0 -5 -8.5 -12.5t-25.5 -7.5q-55 0 -112.5 10t-106.5 35q-56 -25 -107 -60.5t-95 -77.5t-79 -87.5t-60 -88.5t-38.5 -82t-13.5 -68q0 -78 32 -120.5t85 -57.5t120.5 -5.5t137.5 35.5t137.5 65t120.5 83.5t85 90.5t32 86q0 22 16.5 30.5t28.5 8.5q25 0 25 -19
q0 -45 -32.5 -95t-87 -99.5t-126.5 -94.5t-150.5 -79.5t-159 -54.5t-152.5 -19h-7q-56 0 -114 21t-105 67t-76.5 119t-29.5 177q0 37 12 84.5t32 102.5q-51 13 -95.5 33t-87.5 43q-79 -88 -158.5 -168.5t-151 -142.5t-132 -99t-100.5 -37q-79 0 -134 25.5t-87 67t-41 94.5
t5.5 108.5t51 108.5t96 94.5t140.5 67t185 25.5q48 0 90 -8t79.5 -20.5t72 -29t68.5 -34.5q84 94 165 189t149.5 177t119 143t74.5 87v2q0 8 5 12t13 3q12 -1 29 -10t32.5 -22.5t26 -30.5t10.5 -34q0 -24 -13.5 -63t-36 -88t-51.5 -106.5t-60 -118.5t-62.5 -123t-57.5 -120
q18 -2 26.5 -8.5t7.5 -14t-12.5 -13t-34.5 -5.5h-5q-25 -61 -41 -109q30 49 72.5 99t92.5 96.5t105.5 87.5t112.5 72q-14 24 -21.5 53.5t-7.5 64.5q0 42 22.5 88t61 91t89 86t106 72t112.5 49.5t108 18.5q37 0 63 -8t43 -20.5t27.5 -27.5t15.5 -30q26 46 44 88.5t18 79.5
q0 16 15.5 16.5t34.5 -12.5t34.5 -39t15.5 -63zM-123 22q36 0 89.5 33.5t119 89.5t138.5 130.5t148 156.5q-32 16 -63.5 31t-65.5 26.5t-70.5 18.5t-77.5 7q-78 0 -144 -36.5t-112.5 -91.5t-72 -118.5t-23.5 -118.5t34 -91.5t100 -36.5zM442 439q40 -20 81.5 -38t89.5 -29
q30 76 68.5 158.5t77 162t72.5 151.5t54 126q-23 -30 -67 -85.5t-102.5 -127t-128.5 -153.5t-145 -165z" />
    <glyph glyph-name="Ccedilla" unicode="&#xc7;" horiz-adv-x="963" 
d="M957 412q6 15 16 22.5t18 7t10.5 -9t-5.5 -24.5q-19 -37 -50.5 -91.5t-74.5 -116.5t-96.5 -126t-116.5 -119.5t-134.5 -96.5t-150.5 -57q20 -14 32 -37t12 -58q0 -39 -21 -76.5t-53.5 -67.5t-72.5 -48t-79 -18q-29 0 -51 8t-37.5 20t-25.5 26.5t-14 26.5q-6 16 -5 24
t6 7.5t11.5 -8.5t12.5 -23q4 -9 15.5 -20t34.5 -11q49 0 90 17.5t71 46t47 64t17 71.5q0 26 -11.5 36.5t-29.5 12.5q-6 -1 -12 -1.5t-13 -0.5q-14 -2 -29 -6.5t-29 -9t-26 -7.5t-19 -3q-8 0 -10 4t-1.5 9t4 11t7.5 11q-64 14 -108.5 45.5t-72 72t-40 86.5t-12.5 90
q0 76 24 159t65.5 166t98 164t122 154t137 134.5t143 106.5t139.5 70.5t127 25.5q27 0 63.5 -11t69.5 -28t55.5 -38t22.5 -42q0 -52 -17.5 -110.5t-45.5 -116.5t-64 -110.5t-73 -93t-71.5 -64.5t-60.5 -24q-24 0 -38 7.5t-18.5 17t1 17t21.5 7.5q24 0 55.5 22.5t64.5 59.5
t64.5 85.5t56.5 100t40.5 103t15.5 95.5h8l-34 4t-31 2q-61 0 -128 -24.5t-135.5 -68t-136 -103.5t-128 -130.5t-112.5 -148.5t-90 -159t-59.5 -161.5t-21.5 -154.5q0 -42 18 -72t43.5 -49.5t54 -28.5t49.5 -9q94 0 178 32.5t156.5 84.5t132 116t106 126.5t79 117t49.5 86.5
z" />
    <glyph glyph-name="Egrave" unicode="&#xc8;" horiz-adv-x="961" 
d="M1153 1103q0 -30 -12.5 -63t-31.5 -66.5t-41 -67.5t-41 -66.5t-31.5 -63.5t-12.5 -58q0 -9 3 -19t5 -18.5t-0.5 -14t-12.5 -5.5q-15 0 -33 8t-33.5 22.5t-26 35t-10.5 45.5q0 44 26 97.5t58 109.5q-6 9 -22.5 16t-39.5 7q-61 0 -118.5 -18t-108.5 -47t-93 -66.5
t-72 -76.5t-47 -76t-17 -66v-11.5t2 -11.5q41 17 80 26.5t75 9.5q71 0 109.5 -18t56.5 -41.5t21 -45.5t3 -31q0 -17 -6 -27t-14 -15.5t-15.5 -7.5t-10.5 -2q-6 0 -8 3.5t-2 5.5q0 7 5 10t5 8q0 14 -23 28t-61 14q-63 0 -126 -20q22 -11 45 -19.5t45 -13.5t41 -7.5t33 -2.5
t22 1t8 -5q0 -5 -8.5 -12.5t-25.5 -7.5q-55 0 -112.5 10t-106.5 35q-56 -24 -107 -60t-95 -78t-79 -87.5t-60 -88.5t-38.5 -82t-13.5 -68q0 -78 32 -120.5t85 -57.5t120.5 -5.5t137.5 35.5t137.5 65t120.5 83.5t85 90.5t32 86q0 22 16.5 30.5t28.5 8.5q25 0 25 -19
q0 -51 -41.5 -109t-110 -113t-155.5 -102.5t-178.5 -78t-178.5 -38t-155.5 17t-110 86.5t-41.5 171q0 39 17.5 84.5t48.5 94t73 97.5t91 94.5t103.5 85t109.5 69.5q-14 24 -21.5 53.5t-7.5 64.5q0 42 22.5 88t61 91t89 86t106 72t112.5 49.5t108 18.5q37 0 63 -8t43 -20.5
t27.5 -27.5t15.5 -30q26 46 44 88.5t18 79.5q0 16 15.5 16.5t34.5 -12.5t34.5 -39t15.5 -63zM700 1428q0 11 14.5 23t32.5 20t32.5 9.5t14.5 -7.5q0 -6 10 -23t27 -38.5t38 -44.5t43.5 -42.5t43.5 -32t37 -12.5q6 0 6.5 -5.5t-4 -11.5t-13.5 -11.5t-24 -5.5q-27 0 -56 10.5
t-58 27t-55 37t-46 40.5t-31.5 38t-11.5 29z" />
    <glyph glyph-name="Eacute" unicode="&#xc9;" horiz-adv-x="961" 
d="M1153 1103q0 -30 -12.5 -63t-31.5 -66.5t-41 -67.5t-41 -66.5t-31.5 -63.5t-12.5 -58q0 -9 3 -19t5 -18.5t-0.5 -14t-12.5 -5.5q-15 0 -33 8t-33.5 22.5t-26 35t-10.5 45.5q0 44 26 97.5t58 109.5q-6 9 -22.5 16t-39.5 7q-61 0 -118.5 -18t-108.5 -47t-93 -66.5
t-72 -76.5t-47 -76t-17 -66v-11.5t2 -11.5q41 17 80 26.5t75 9.5q71 0 109.5 -18t56.5 -41.5t21 -45.5t3 -31q0 -17 -6 -27t-14 -15.5t-15.5 -7.5t-10.5 -2q-6 0 -8 3.5t-2 5.5q0 7 5 10t5 8q0 14 -23 28t-61 14q-63 0 -126 -20q22 -11 45 -19.5t45 -13.5t41 -7.5t33 -2.5
t22 1t8 -5q0 -5 -8.5 -12.5t-25.5 -7.5q-55 0 -112.5 10t-106.5 35q-56 -24 -107 -60t-95 -78t-79 -87.5t-60 -88.5t-38.5 -82t-13.5 -68q0 -78 32 -120.5t85 -57.5t120.5 -5.5t137.5 35.5t137.5 65t120.5 83.5t85 90.5t32 86q0 22 16.5 30.5t28.5 8.5q25 0 25 -19
q0 -51 -41.5 -109t-110 -113t-155.5 -102.5t-178.5 -78t-178.5 -38t-155.5 17t-110 86.5t-41.5 171q0 39 17.5 84.5t48.5 94t73 97.5t91 94.5t103.5 85t109.5 69.5q-14 24 -21.5 53.5t-7.5 64.5q0 42 22.5 88t61 91t89 86t106 72t112.5 49.5t108 18.5q37 0 63 -8t43 -20.5
t27.5 -27.5t15.5 -30q26 46 44 88.5t18 79.5q0 16 15.5 16.5t34.5 -12.5t34.5 -39t15.5 -63zM723 1230q7 0 26.5 12t44.5 31.5t52.5 42.5t50 44.5t37 39.5t14.5 26q0 9 12.5 5t27.5 -14t27.5 -24.5t12.5 -26.5q0 -9 -15 -24.5t-39.5 -34t-55 -38t-60.5 -35t-57 -25.5
t-44 -10q-15 0 -24 5t-13 10.5t-3 10.5t6 5z" />
    <glyph glyph-name="Ecircumflex" unicode="&#xca;" horiz-adv-x="961" 
d="M1153 1103q0 -30 -12.5 -63t-31.5 -66.5t-41 -67.5t-41 -66.5t-31.5 -63.5t-12.5 -58q0 -9 3 -19t5 -18.5t-0.5 -14t-12.5 -5.5q-15 0 -33 8t-33.5 22.5t-26 35t-10.5 45.5q0 44 26 97.5t58 109.5q-6 9 -22.5 16t-39.5 7q-61 0 -118.5 -18t-108.5 -47t-93 -66.5
t-72 -76.5t-47 -76t-17 -66v-11.5t2 -11.5q41 17 80 26.5t75 9.5q71 0 109.5 -18t56.5 -41.5t21 -45.5t3 -31q0 -17 -6 -27t-14 -15.5t-15.5 -7.5t-10.5 -2q-6 0 -8 3.5t-2 5.5q0 7 5 10t5 8q0 14 -23 28t-61 14q-63 0 -126 -20q22 -11 45 -19.5t45 -13.5t41 -7.5t33 -2.5
t22 1t8 -5q0 -5 -8.5 -12.5t-25.5 -7.5q-55 0 -112.5 10t-106.5 35q-56 -24 -107 -60t-95 -78t-79 -87.5t-60 -88.5t-38.5 -82t-13.5 -68q0 -78 32 -120.5t85 -57.5t120.5 -5.5t137.5 35.5t137.5 65t120.5 83.5t85 90.5t32 86q0 22 16.5 30.5t28.5 8.5q25 0 25 -19
q0 -51 -41.5 -109t-110 -113t-155.5 -102.5t-178.5 -78t-178.5 -38t-155.5 17t-110 86.5t-41.5 171q0 39 17.5 84.5t48.5 94t73 97.5t91 94.5t103.5 85t109.5 69.5q-14 24 -21.5 53.5t-7.5 64.5q0 42 22.5 88t61 91t89 86t106 72t112.5 49.5t108 18.5q37 0 63 -8t43 -20.5
t27.5 -27.5t15.5 -30q26 46 44 88.5t18 79.5q0 16 15.5 16.5t34.5 -12.5t34.5 -39t15.5 -63zM645 1252q7 0 24.5 13.5t39 34.5t45.5 44.5t45 44.5t36 34.5t19 13.5q6 0 20.5 -2t29 -7.5t25.5 -14t11 -21.5q0 -24 15 -51.5t32.5 -52t32.5 -42t15 -20.5q0 -6 -6.5 -9.5
t-11.5 -3.5q-18 0 -41.5 22t-44.5 48q-25 31 -49 71q-35 -40 -69 -71q-15 -13 -30.5 -25.5t-31 -22.5t-30.5 -16t-27 -6q-15 0 -26.5 6t-18.5 13.5t-8.5 13.5t4.5 6z" />
    <glyph glyph-name="Edieresis" unicode="&#xcb;" horiz-adv-x="961" 
d="M1153 1103q0 -30 -12.5 -63t-31.5 -66.5t-41 -67.5t-41 -66.5t-31.5 -63.5t-12.5 -58q0 -9 3 -19t5 -18.5t-0.5 -14t-12.5 -5.5q-15 0 -33 8t-33.5 22.5t-26 35t-10.5 45.5q0 44 26 97.5t58 109.5q-6 9 -22.5 16t-39.5 7q-61 0 -118.5 -18t-108.5 -47t-93 -66.5
t-72 -76.5t-47 -76t-17 -66v-11.5t2 -11.5q41 17 80 26.5t75 9.5q71 0 109.5 -18t56.5 -41.5t21 -45.5t3 -31q0 -17 -6 -27t-14 -15.5t-15.5 -7.5t-10.5 -2q-6 0 -8 3.5t-2 5.5q0 7 5 10t5 8q0 14 -23 28t-61 14q-63 0 -126 -20q22 -11 45 -19.5t45 -13.5t41 -7.5t33 -2.5
t22 1t8 -5q0 -5 -8.5 -12.5t-25.5 -7.5q-55 0 -112.5 10t-106.5 35q-56 -24 -107 -60t-95 -78t-79 -87.5t-60 -88.5t-38.5 -82t-13.5 -68q0 -78 32 -120.5t85 -57.5t120.5 -5.5t137.5 35.5t137.5 65t120.5 83.5t85 90.5t32 86q0 22 16.5 30.5t28.5 8.5q25 0 25 -19
q0 -51 -41.5 -109t-110 -113t-155.5 -102.5t-178.5 -78t-178.5 -38t-155.5 17t-110 86.5t-41.5 171q0 39 17.5 84.5t48.5 94t73 97.5t91 94.5t103.5 85t109.5 69.5q-14 24 -21.5 53.5t-7.5 64.5q0 42 22.5 88t61 91t89 86t106 72t112.5 49.5t108 18.5q37 0 63 -8t43 -20.5
t27.5 -27.5t15.5 -30q26 46 44 88.5t18 79.5q0 16 15.5 16.5t34.5 -12.5t34.5 -39t15.5 -63zM771 1342q23 0 38 -14t15 -30q0 -14 -6.5 -29.5t-18.5 -28.5t-29 -21t-37 -8q-5 0 -13 2.5t-15 8t-12 13.5t-5 20t8.5 27.5t21 28.5t27 22t26.5 9zM978 1347q22 0 37.5 -14
t15.5 -30q0 -14 -6.5 -29.5t-18.5 -28.5t-29 -21t-38 -8q-5 0 -12.5 2.5t-14.5 8t-12 13.5t-5 20t8 27.5t20.5 28.5t27 22t27.5 9z" />
    <glyph glyph-name="Igrave" unicode="&#xcc;" horiz-adv-x="725" 
d="M805 940q0 -16 -29 -71.5t-72.5 -136.5t-94 -181.5t-94 -208t-72.5 -216t-29 -204.5q0 -29 7.5 -54.5t16.5 -46t17 -36.5t9.5 -27t-6.5 -16.5t-31 -5.5q-34 0 -61 19t-46 48t-29.5 65t-10.5 69q0 75 17.5 159t46.5 171t66 173.5t76 165.5t76 148t66 120.5t46.5 83
t17.5 36.5v10q-42 -1 -102.5 -18.5t-130 -48t-144 -71t-146 -88t-135.5 -100.5t-112 -107.5t-76.5 -108t-28.5 -103.5q0 -26 9.5 -46t15.5 -33t3 -19.5t-28 -6.5q-24 0 -46.5 8.5t-39.5 25t-27 40t-10 53.5q0 34 28 80t77.5 98.5t116 108t144 109t162.5 100.5t170 82.5
t167 56.5t154 21q16 0 32.5 -7.5t30 -21t21.5 -31t8 -37.5zM509 1290q0 11 14.5 23t32.5 20t32.5 9.5t14.5 -7.5q0 -6 10 -23t27 -38.5t38 -44.5t43.5 -42.5t43.5 -32t37 -12.5q6 0 6.5 -5.5t-4 -11.5t-13.5 -11.5t-24 -5.5q-27 0 -56 10.5t-58 27t-55 37t-46 40.5t-31.5 38
t-11.5 29z" />
    <glyph glyph-name="Iacute" unicode="&#xcd;" horiz-adv-x="725" 
d="M805 940q0 -16 -29 -71.5t-72.5 -136.5t-94 -181.5t-94 -208t-72.5 -216t-29 -204.5q0 -29 7.5 -54.5t16.5 -46t17 -36.5t9.5 -27t-6.5 -16.5t-31 -5.5q-34 0 -61 19t-46 48t-29.5 65t-10.5 69q0 75 17.5 159t46.5 171t66 173.5t76 165.5t76 148t66 120.5t46.5 83
t17.5 36.5v10q-42 -1 -102.5 -18.5t-130 -48t-144 -71t-146 -88t-135.5 -100.5t-112 -107.5t-76.5 -108t-28.5 -103.5q0 -26 9.5 -46t15.5 -33t3 -19.5t-28 -6.5q-24 0 -46.5 8.5t-39.5 25t-27 40t-10 53.5q0 34 28 80t77.5 98.5t116 108t144 109t162.5 100.5t170 82.5
t167 56.5t154 21q16 0 32.5 -7.5t30 -21t21.5 -31t8 -37.5zM523 1136q7 0 26.5 12t44.5 31.5t52.5 42.5t50 44.5t37 39.5t14.5 26q0 9 12.5 5t27.5 -14t27.5 -24.5t12.5 -26.5q0 -9 -15 -24.5t-39.5 -34t-55 -38t-60.5 -35t-57 -25.5t-44 -10q-15 0 -24 5t-13 10.5t-3 10.5
t6 5z" />
    <glyph glyph-name="Icircumflex" unicode="&#xce;" horiz-adv-x="725" 
d="M805 940q0 -16 -29 -71.5t-72.5 -136.5t-94 -181.5t-94 -208t-72.5 -216t-29 -204.5q0 -29 7.5 -54.5t16.5 -46t17 -36.5t9.5 -27t-6.5 -16.5t-31 -5.5q-34 0 -61 19t-46 48t-29.5 65t-10.5 69q0 75 17.5 159t46.5 171t66 173.5t76 165.5t76 148t66 120.5t46.5 83
t17.5 36.5v10q-42 -1 -102.5 -18.5t-130 -48t-144 -71t-146 -88t-135.5 -100.5t-112 -107.5t-76.5 -108t-28.5 -103.5q0 -26 9.5 -46t15.5 -33t3 -19.5t-28 -6.5q-24 0 -46.5 8.5t-39.5 25t-27 40t-10 53.5q0 34 28 80t77.5 98.5t116 108t144 109t162.5 100.5t170 82.5
t167 56.5t154 21q16 0 32.5 -7.5t30 -21t21.5 -31t8 -37.5zM546 1127q7 0 24.5 13.5t39 34.5t45.5 44.5t45 44.5t36 34.5t19 13.5q6 0 20.5 -2t29 -7.5t25.5 -14t11 -21.5q0 -24 15 -51.5t32.5 -52t32.5 -42t15 -20.5q0 -6 -6.5 -9.5t-11.5 -3.5q-18 0 -41.5 22t-44.5 48
q-25 31 -49 71q-35 -40 -69 -71q-15 -13 -30.5 -25.5t-31 -22.5t-30.5 -16t-27 -6q-15 0 -26.5 6t-18.5 13.5t-8.5 13.5t4.5 6z" />
    <glyph glyph-name="Idieresis" unicode="&#xcf;" horiz-adv-x="725" 
d="M805 940q0 -16 -29 -71.5t-72.5 -136.5t-94 -181.5t-94 -208t-72.5 -216t-29 -204.5q0 -29 7.5 -54.5t16.5 -46t17 -36.5t9.5 -27t-6.5 -16.5t-31 -5.5q-34 0 -61 19t-46 48t-29.5 65t-10.5 69q0 75 17.5 159t46.5 171t66 173.5t76 165.5t76 148t66 120.5t46.5 83
t17.5 36.5v10q-42 -1 -102.5 -18.5t-130 -48t-144 -71t-146 -88t-135.5 -100.5t-112 -107.5t-76.5 -108t-28.5 -103.5q0 -26 9.5 -46t15.5 -33t3 -19.5t-28 -6.5q-24 0 -46.5 8.5t-39.5 25t-27 40t-10 53.5q0 34 28 80t77.5 98.5t116 108t144 109t162.5 100.5t170 82.5
t167 56.5t154 21q16 0 32.5 -7.5t30 -21t21.5 -31t8 -37.5zM607 1263q23 0 38 -14t15 -30q0 -14 -6.5 -29.5t-18.5 -28.5t-29 -21t-37 -8q-5 0 -13 2.5t-15 8t-12 13.5t-5 20t8.5 27.5t21 28.5t27 22t26.5 9zM814 1268q22 0 37.5 -14t15.5 -30q0 -14 -6.5 -29.5t-18.5 -28.5
t-29 -21t-38 -8q-5 0 -12.5 2.5t-14.5 8t-12 13.5t-5 20t8 27.5t20.5 28.5t27 22t27.5 9z" />
    <glyph glyph-name="Ntilde" unicode="&#xd1;" horiz-adv-x="888" 
d="M1033 -146q6 10 11 10.5t10 -2.5q4 -4 9 -11q-13 -29 -38 -51q-21 -19 -57.5 -34.5t-92.5 -15.5t-122 21.5t-122.5 68.5t-94 120.5t-37.5 177.5q0 58 18 126.5t47 142.5t66.5 150t76.5 148.5t76.5 139t66.5 121t47 95t18 60.5t-17 15.5t-46.5 -26.5t-68.5 -58.5t-83 -82
t-89.5 -96t-88.5 -100.5t-80 -95.5t-64 -81.5q-13 -17 -23 -30t-18 -22q-32 -61 -65 -121.5t-59.5 -116.5t-43 -105t-16.5 -87q0 -31 3.5 -46.5t8 -24.5t8 -15t3.5 -18q0 -20 -21.5 -21t-47.5 18t-47.5 59.5t-21.5 105.5q0 35 20.5 92t52 126t69.5 145t73.5 150.5t63.5 142
t40 118.5t2.5 81.5t-48.5 30.5q-53 0 -112.5 -32t-118 -84t-112.5 -118.5t-95 -136.5t-65.5 -137.5t-24.5 -120.5q0 -75 9 -117t20.5 -64.5t20.5 -32t9 -19.5q0 -7 -15 -10.5t-37.5 1.5t-49 21t-49 47.5t-37.5 81.5t-15 123t28 147.5t77.5 143.5t116.5 130t145 106t163 71
t170 26q34 0 57.5 -11t38.5 -28.5t22.5 -38.5t10.5 -41.5t3.5 -37.5t0.5 -26q0 -41 -15 -90t-38 -103q41 53 90 111t100.5 114t102.5 107t97.5 89.5t84.5 61t64 22.5q31 0 52 -10t34 -27t18.5 -38.5t5.5 -43.5q0 -31 -32 -96.5t-80.5 -152t-104.5 -187t-104.5 -201
t-80.5 -194t-32 -166.5q0 -92 29 -151t70 -93t85.5 -47t76.5 -13q31 0 55 6t40.5 15t27 19.5t15.5 20.5zM585 1257q-14 0 -21 16.5t-2.5 36t24.5 36t60 16.5q18 0 43 -4.5t51 -10t49 -10t37 -4.5q16 0 24.5 3.5t12.5 8t6 8.5t5 4q7 0 12.5 -18t5.5 -42q0 -23 -17.5 -34
t-45.5 -11q-16 0 -40 5t-52 11.5t-58.5 11.5t-58.5 5q-13 0 -20 -4.5t-10 -9.5q-4 -6 -5 -14z" />
    <glyph glyph-name="Ograve" unicode="&#xd2;" horiz-adv-x="1015" 
d="M782 1056q83 0 135.5 -36t77.5 -97t25.5 -143t-20.5 -174t-61 -189.5t-95 -189.5t-123.5 -174t-146.5 -143t-163 -97t-174 -36q-81 0 -129.5 29.5t-71 80.5t-20.5 119t23 144.5t58 157t85 157t104.5 144.5t116 119t120 80.5t116.5 29.5q31 0 52.5 -17t31.5 -38t7 -38
t-21 -17q-11 0 -17 2t-18 2q-55 0 -115.5 -39.5t-119.5 -103.5t-113 -146.5t-95.5 -168t-66.5 -168t-27.5 -146.5t21.5 -103.5t82 -39.5t119 34t121.5 91.5t117.5 135t107 164t90.5 178.5t67.5 178.5t37.5 164t1 135t-42 91.5t-91.5 34q-68 0 -137.5 -21t-138 -57
t-133.5 -83t-123 -100t-106 -107.5t-82.5 -105t-54 -94t-19.5 -73.5q0 -26 3 -40.5t6 -23.5t6 -15.5t3 -16.5q0 -13 -12 -18t-30.5 -2t-40 14t-40 29.5t-30.5 45.5t-12 62q0 60 36 131t100.5 142t153.5 137t195 117t225.5 81.5t244.5 30.5zM630 1295q0 11 14.5 23t32.5 20
t32.5 9.5t14.5 -7.5q0 -6 10 -23t27 -38.5t38 -44.5t43.5 -42.5t43.5 -32t37 -12.5q6 0 6.5 -5.5t-4 -11.5t-13.5 -11.5t-24 -5.5q-27 0 -56 10.5t-58 27t-55 37t-46 40.5t-31.5 38t-11.5 29z" />
    <glyph glyph-name="Oacute" unicode="&#xd3;" horiz-adv-x="1015" 
d="M782 1056q83 0 135.5 -36t77.5 -97t25.5 -143t-20.5 -174t-61 -189.5t-95 -189.5t-123.5 -174t-146.5 -143t-163 -97t-174 -36q-81 0 -129.5 29.5t-71 80.5t-20.5 119t23 144.5t58 157t85 157t104.5 144.5t116 119t120 80.5t116.5 29.5q31 0 52.5 -17t31.5 -38t7 -38
t-21 -17q-11 0 -17 2t-18 2q-55 0 -115.5 -39.5t-119.5 -103.5t-113 -146.5t-95.5 -168t-66.5 -168t-27.5 -146.5t21.5 -103.5t82 -39.5t119 34t121.5 91.5t117.5 135t107 164t90.5 178.5t67.5 178.5t37.5 164t1 135t-42 91.5t-91.5 34q-68 0 -137.5 -21t-138 -57
t-133.5 -83t-123 -100t-106 -107.5t-82.5 -105t-54 -94t-19.5 -73.5q0 -26 3 -40.5t6 -23.5t6 -15.5t3 -16.5q0 -13 -12 -18t-30.5 -2t-40 14t-40 29.5t-30.5 45.5t-12 62q0 60 36 131t100.5 142t153.5 137t195 117t225.5 81.5t244.5 30.5zM595 1132q7 0 26.5 12t44.5 31.5
t52.5 42.5t50 44.5t37 39.5t14.5 26q0 9 12.5 5t27.5 -14t27.5 -24.5t12.5 -26.5q0 -9 -15 -24.5t-39.5 -34t-55 -38t-60.5 -35t-57 -25.5t-44 -10q-15 0 -24 5t-13 10.5t-3 10.5t6 5z" />
    <glyph glyph-name="Ocircumflex" unicode="&#xd4;" horiz-adv-x="1015" 
d="M782 1056q83 0 135.5 -36t77.5 -97t25.5 -143t-20.5 -174t-61 -189.5t-95 -189.5t-123.5 -174t-146.5 -143t-163 -97t-174 -36q-81 0 -129.5 29.5t-71 80.5t-20.5 119t23 144.5t58 157t85 157t104.5 144.5t116 119t120 80.5t116.5 29.5q31 0 52.5 -17t31.5 -38t7 -38
t-21 -17q-11 0 -17 2t-18 2q-55 0 -115.5 -39.5t-119.5 -103.5t-113 -146.5t-95.5 -168t-66.5 -168t-27.5 -146.5t21.5 -103.5t82 -39.5t119 34t121.5 91.5t117.5 135t107 164t90.5 178.5t67.5 178.5t37.5 164t1 135t-42 91.5t-91.5 34q-68 0 -137.5 -21t-138 -57
t-133.5 -83t-123 -100t-106 -107.5t-82.5 -105t-54 -94t-19.5 -73.5q0 -26 3 -40.5t6 -23.5t6 -15.5t3 -16.5q0 -13 -12 -18t-30.5 -2t-40 14t-40 29.5t-30.5 45.5t-12 62q0 60 36 131t100.5 142t153.5 137t195 117t225.5 81.5t244.5 30.5zM638 1161q7 0 24.5 13.5t39 34.5
t45.5 44.5t45 44.5t36 34.5t19 13.5q6 0 20.5 -2t29 -7.5t25.5 -14t11 -21.5q0 -24 15 -51.5t32.5 -52t32.5 -42t15 -20.5q0 -6 -6.5 -9.5t-11.5 -3.5q-18 0 -41.5 22t-44.5 48q-25 31 -49 71q-35 -40 -69 -71q-15 -13 -30.5 -25.5t-31 -22.5t-30.5 -16t-27 -6
q-15 0 -26.5 6t-18.5 13.5t-8.5 13.5t4.5 6z" />
    <glyph glyph-name="Otilde" unicode="&#xd5;" horiz-adv-x="1015" 
d="M782 1056q83 0 135.5 -36t77.5 -97t25.5 -143t-20.5 -174t-61 -189.5t-95 -189.5t-123.5 -174t-146.5 -143t-163 -97t-174 -36q-81 0 -129.5 29.5t-71 80.5t-20.5 119t23 144.5t58 157t85 157t104.5 144.5t116 119t120 80.5t116.5 29.5q31 0 52.5 -17t31.5 -38t7 -38
t-21 -17q-11 0 -17 2t-18 2q-55 0 -115.5 -39.5t-119.5 -103.5t-113 -146.5t-95.5 -168t-66.5 -168t-27.5 -146.5t21.5 -103.5t82 -39.5t119 34t121.5 91.5t117.5 135t107 164t90.5 178.5t67.5 178.5t37.5 164t1 135t-42 91.5t-91.5 34q-68 0 -137.5 -21t-138 -57
t-133.5 -83t-123 -100t-106 -107.5t-82.5 -105t-54 -94t-19.5 -73.5q0 -26 3 -40.5t6 -23.5t6 -15.5t3 -16.5q0 -13 -12 -18t-30.5 -2t-40 14t-40 29.5t-30.5 45.5t-12 62q0 60 36 131t100.5 142t153.5 137t195 117t225.5 81.5t244.5 30.5zM658 1164q-14 0 -21 16.5t-2.5 36
t24.5 36t60 16.5q18 0 43 -4.5t51 -10t49 -10t37 -4.5q16 0 24.5 3.5t12.5 8t6 8.5t5 4q7 0 12.5 -18t5.5 -42q0 -23 -17.5 -34t-45.5 -11q-16 0 -40 5t-52 11.5t-58.5 11.5t-58.5 5q-13 0 -20 -4.5t-10 -9.5q-4 -6 -5 -14z" />
    <glyph glyph-name="Odieresis" unicode="&#xd6;" horiz-adv-x="1015" 
d="M782 1056q83 0 135.5 -36t77.5 -97t25.5 -143t-20.5 -174t-61 -189.5t-95 -189.5t-123.5 -174t-146.5 -143t-163 -97t-174 -36q-81 0 -129.5 29.5t-71 80.5t-20.5 119t23 144.5t58 157t85 157t104.5 144.5t116 119t120 80.5t116.5 29.5q31 0 52.5 -17t31.5 -38t7 -38
t-21 -17q-11 0 -17 2t-18 2q-55 0 -115.5 -39.5t-119.5 -103.5t-113 -146.5t-95.5 -168t-66.5 -168t-27.5 -146.5t21.5 -103.5t82 -39.5t119 34t121.5 91.5t117.5 135t107 164t90.5 178.5t67.5 178.5t37.5 164t1 135t-42 91.5t-91.5 34q-68 0 -137.5 -21t-138 -57
t-133.5 -83t-123 -100t-106 -107.5t-82.5 -105t-54 -94t-19.5 -73.5q0 -26 3 -40.5t6 -23.5t6 -15.5t3 -16.5q0 -13 -12 -18t-30.5 -2t-40 14t-40 29.5t-30.5 45.5t-12 62q0 60 36 131t100.5 142t153.5 137t195 117t225.5 81.5t244.5 30.5zM702 1275q23 0 38 -14t15 -30
q0 -14 -6.5 -29.5t-18.5 -28.5t-29 -21t-37 -8q-5 0 -13 2.5t-15 8t-12 13.5t-5 20t8.5 27.5t21 28.5t27 22t26.5 9zM909 1280q22 0 37.5 -14t15.5 -30q0 -14 -6.5 -29.5t-18.5 -28.5t-29 -21t-38 -8q-5 0 -12.5 2.5t-14.5 8t-12 13.5t-5 20t8 27.5t20.5 28.5t27 22t27.5 9z
" />
    <glyph glyph-name="multiply" unicode="&#xd7;" horiz-adv-x="540" 
d="M460 552q0 -14 -10 -31.5t-26.5 -37.5t-38 -42.5t-45.5 -44.5q12 -26 25 -51t24 -45t18 -33.5t7 -16.5q0 -16 -11 -16q-8 0 -20.5 8.5t-28 24t-33 36.5t-34.5 46q-27 -24 -51.5 -46t-44 -40t-31 -31t-11.5 -20q0 -8 1 -10t1 -7q0 -8 -11 -3.5t-24.5 16t-24.5 28t-11 33.5
q0 13 13.5 31t35 39t50 44.5t58.5 46.5q-19 37 -31 73t-12 67q0 12 16.5 9.5t36.5 -13.5t36.5 -28t16.5 -33q0 -5 1 -10.5t3 -13.5q48 36 81.5 64.5t33.5 41.5q0 10 6.5 12.5t14 -2.5t14 -16.5t6.5 -28.5z" />
    <glyph glyph-name="Oslash" unicode="&#xd8;" horiz-adv-x="1015" 
d="M893 1033q67 -32 97.5 -102t29.5 -163.5t-30.5 -202t-81.5 -217.5t-123.5 -211t-157 -180.5t-181.5 -127.5t-197 -52q-27 -62 -42.5 -106t-15.5 -65q0 -14 -13 -11t-28 17.5t-28 37t-13 47.5q0 10 8.5 34t24.5 60q-69 23 -98.5 80.5t-28 135.5t30.5 170t76.5 184
t109.5 178t130.5 152.5t139.5 106.5t136 40q16 0 31 -5q26 53 48 100.5t40 89.5q-67 -2 -136.5 -24t-137 -58t-132 -83.5t-121 -99.5t-104 -106.5t-81.5 -104.5t-53 -93t-19 -72q0 -26 3 -40.5t6 -23.5t6 -15.5t3 -16.5q0 -13 -12 -18t-30.5 -2t-40 14t-40 29.5t-30.5 45.5
t-12 62q0 60 35.5 130t99 140.5t152 136.5t193.5 117t223 82.5t242 32.5q21 50 32.5 85.5t11.5 53.5q0 14 16.5 11t36 -17t36 -36.5t16.5 -47.5q0 -8 -7 -26t-20 -46zM614 721q-48 -18 -98.5 -59t-99 -98t-93 -125t-80.5 -139t-62 -141.5t-37.5 -131.5t-6.5 -109t30 -74
q24 51 56 114.5t69 136t78 150.5t82.5 158.5t82.5 161t79 156.5zM268 -181q63 10 129.5 56t130 117t122.5 161t107.5 186.5t83.5 193.5t51.5 183t11.5 155t-36 108q-32 -64 -78 -152.5t-100.5 -190.5t-113 -212t-114.5 -217.5t-106.5 -207t-87.5 -180.5z" />
    <glyph glyph-name="Ugrave" unicode="&#xd9;" horiz-adv-x="938" 
d="M665 -4q0 -59 6.5 -98t16.5 -63.5t21 -38t21 -22t16.5 -14.5t6.5 -15q0 -11 -16.5 -16.5t-41.5 -0.5t-53.5 22.5t-53.5 52t-41.5 88.5t-16.5 132q0 42 15.5 96.5t40 115.5t55.5 127t62.5 132t60 130t48.5 121q-25 -45 -60 -105.5t-76 -128.5t-87.5 -140t-95 -141
t-98 -131t-97 -109.5t-91 -78t-80.5 -35.5q-3 -1 -12 -1h-2q-16 2 -36.5 15.5t-38.5 40t-30 66t-12 93.5q0 41 23 108t59 147.5t79.5 170t83.5 176.5t72 166.5t45 139.5t1.5 95.5t-57.5 35.5q-52 0 -109.5 -28.5t-113 -76t-105.5 -108.5t-88 -126.5t-60.5 -129.5t-22.5 -117
q0 -75 9.5 -117t20.5 -64.5t20.5 -32t9.5 -19.5q0 -7 -15 -10.5t-38 1.5t-49 21t-49 47.5t-38 81.5t-15 123t26.5 144.5t73 136.5t111 120.5t139.5 96.5t158 64t168 23q40 0 66.5 -13t42.5 -33t23 -45t9 -49t1.5 -44t-0.5 -30q0 -54 -26.5 -128.5t-66.5 -159.5t-86.5 -174.5
t-86.5 -174t-66.5 -158.5t-26.5 -128q0 -26 2 -42.5t5.5 -27t7 -16.5t6.5 -12q38 14 88.5 63.5t107.5 120.5t116.5 156.5t116.5 172.5q133 204 277 455q0 12 -2 21.5t0 15.5t9.5 9t27.5 3q18 0 35.5 -7.5t31 -21t21.5 -32.5t8 -41q0 -56 -23 -125.5t-57.5 -145t-75 -154.5
t-75 -154t-57.5 -142.5t-23 -121.5zM528 1193q0 11 14.5 23t32.5 20t32.5 9.5t14.5 -7.5q0 -6 10 -23t27 -38.5t38 -44.5t43.5 -42.5t43.5 -32t37 -12.5q6 0 6.5 -5.5t-4 -11.5t-13.5 -11.5t-24 -5.5q-27 0 -56 10.5t-58 27t-55 37t-46 40.5t-31.5 38t-11.5 29z" />
    <glyph glyph-name="Uacute" unicode="&#xda;" horiz-adv-x="938" 
d="M665 -4q0 -59 6.5 -98t16.5 -63.5t21 -38t21 -22t16.5 -14.5t6.5 -15q0 -11 -16.5 -16.5t-41.5 -0.5t-53.5 22.5t-53.5 52t-41.5 88.5t-16.5 132q0 42 15.5 96.5t40 115.5t55.5 127t62.5 132t60 130t48.5 121q-25 -45 -60 -105.5t-76 -128.5t-87.5 -140t-95 -141
t-98 -131t-97 -109.5t-91 -78t-80.5 -35.5q-3 -1 -12 -1h-2q-16 2 -36.5 15.5t-38.5 40t-30 66t-12 93.5q0 41 23 108t59 147.5t79.5 170t83.5 176.5t72 166.5t45 139.5t1.5 95.5t-57.5 35.5q-52 0 -109.5 -28.5t-113 -76t-105.5 -108.5t-88 -126.5t-60.5 -129.5t-22.5 -117
q0 -75 9.5 -117t20.5 -64.5t20.5 -32t9.5 -19.5q0 -7 -15 -10.5t-38 1.5t-49 21t-49 47.5t-38 81.5t-15 123t26.5 144.5t73 136.5t111 120.5t139.5 96.5t158 64t168 23q40 0 66.5 -13t42.5 -33t23 -45t9 -49t1.5 -44t-0.5 -30q0 -54 -26.5 -128.5t-66.5 -159.5t-86.5 -174.5
t-86.5 -174t-66.5 -158.5t-26.5 -128q0 -26 2 -42.5t5.5 -27t7 -16.5t6.5 -12q38 14 88.5 63.5t107.5 120.5t116.5 156.5t116.5 172.5q133 204 277 455q0 12 -2 21.5t0 15.5t9.5 9t27.5 3q18 0 35.5 -7.5t31 -21t21.5 -32.5t8 -41q0 -56 -23 -125.5t-57.5 -145t-75 -154.5
t-75 -154t-57.5 -142.5t-23 -121.5zM564 1039q7 0 26.5 12t44.5 31.5t52.5 42.5t50 44.5t37 39.5t14.5 26q0 9 12.5 5t27.5 -14t27.5 -24.5t12.5 -26.5q0 -9 -15 -24.5t-39.5 -34t-55 -38t-60.5 -35t-57 -25.5t-44 -10q-15 0 -24 5t-13 10.5t-3 10.5t6 5z" />
    <glyph glyph-name="Ucircumflex" unicode="&#xdb;" horiz-adv-x="938" 
d="M665 -4q0 -59 6.5 -98t16.5 -63.5t21 -38t21 -22t16.5 -14.5t6.5 -15q0 -11 -16.5 -16.5t-41.5 -0.5t-53.5 22.5t-53.5 52t-41.5 88.5t-16.5 132q0 42 15.5 96.5t40 115.5t55.5 127t62.5 132t60 130t48.5 121q-25 -45 -60 -105.5t-76 -128.5t-87.5 -140t-95 -141
t-98 -131t-97 -109.5t-91 -78t-80.5 -35.5q-3 -1 -12 -1h-2q-16 2 -36.5 15.5t-38.5 40t-30 66t-12 93.5q0 41 23 108t59 147.5t79.5 170t83.5 176.5t72 166.5t45 139.5t1.5 95.5t-57.5 35.5q-52 0 -109.5 -28.5t-113 -76t-105.5 -108.5t-88 -126.5t-60.5 -129.5t-22.5 -117
q0 -75 9.5 -117t20.5 -64.5t20.5 -32t9.5 -19.5q0 -7 -15 -10.5t-38 1.5t-49 21t-49 47.5t-38 81.5t-15 123t26.5 144.5t73 136.5t111 120.5t139.5 96.5t158 64t168 23q40 0 66.5 -13t42.5 -33t23 -45t9 -49t1.5 -44t-0.5 -30q0 -54 -26.5 -128.5t-66.5 -159.5t-86.5 -174.5
t-86.5 -174t-66.5 -158.5t-26.5 -128q0 -26 2 -42.5t5.5 -27t7 -16.5t6.5 -12q38 14 88.5 63.5t107.5 120.5t116.5 156.5t116.5 172.5q133 204 277 455q0 12 -2 21.5t0 15.5t9.5 9t27.5 3q18 0 35.5 -7.5t31 -21t21.5 -32.5t8 -41q0 -56 -23 -125.5t-57.5 -145t-75 -154.5
t-75 -154t-57.5 -142.5t-23 -121.5zM533 1072q7 0 24.5 13.5t39 34.5t45.5 44.5t45 44.5t36 34.5t19 13.5q6 0 20.5 -2t29 -7.5t25.5 -14t11 -21.5q0 -24 15 -51.5t32.5 -52t32.5 -42t15 -20.5q0 -6 -6.5 -9.5t-11.5 -3.5q-18 0 -41.5 22t-44.5 48q-25 31 -49 71
q-35 -40 -69 -71q-15 -13 -30.5 -25.5t-31 -22.5t-30.5 -16t-27 -6q-15 0 -26.5 6t-18.5 13.5t-8.5 13.5t4.5 6z" />
    <glyph glyph-name="Udieresis" unicode="&#xdc;" horiz-adv-x="938" 
d="M665 -4q0 -59 6.5 -98t16.5 -63.5t21 -38t21 -22t16.5 -14.5t6.5 -15q0 -11 -16.5 -16.5t-41.5 -0.5t-53.5 22.5t-53.5 52t-41.5 88.5t-16.5 132q0 42 15.5 96.5t40 115.5t55.5 127t62.5 132t60 130t48.5 121q-25 -45 -60 -105.5t-76 -128.5t-87.5 -140t-95 -141
t-98 -131t-97 -109.5t-91 -78t-80.5 -35.5q-3 -1 -12 -1h-2q-16 2 -36.5 15.5t-38.5 40t-30 66t-12 93.5q0 41 23 108t59 147.5t79.5 170t83.5 176.5t72 166.5t45 139.5t1.5 95.5t-57.5 35.5q-52 0 -109.5 -28.5t-113 -76t-105.5 -108.5t-88 -126.5t-60.5 -129.5t-22.5 -117
q0 -75 9.5 -117t20.5 -64.5t20.5 -32t9.5 -19.5q0 -7 -15 -10.5t-38 1.5t-49 21t-49 47.5t-38 81.5t-15 123t26.5 144.5t73 136.5t111 120.5t139.5 96.5t158 64t168 23q40 0 66.5 -13t42.5 -33t23 -45t9 -49t1.5 -44t-0.5 -30q0 -54 -26.5 -128.5t-66.5 -159.5t-86.5 -174.5
t-86.5 -174t-66.5 -158.5t-26.5 -128q0 -26 2 -42.5t5.5 -27t7 -16.5t6.5 -12q38 14 88.5 63.5t107.5 120.5t116.5 156.5t116.5 172.5q133 204 277 455q0 12 -2 21.5t0 15.5t9.5 9t27.5 3q18 0 35.5 -7.5t31 -21t21.5 -32.5t8 -41q0 -56 -23 -125.5t-57.5 -145t-75 -154.5
t-75 -154t-57.5 -142.5t-23 -121.5zM618 1146q23 0 38 -14t15 -30q0 -14 -6.5 -29.5t-18.5 -28.5t-29 -21t-37 -8q-5 0 -13 2.5t-15 8t-12 13.5t-5 20t8.5 27.5t21 28.5t27 22t26.5 9zM825 1151q22 0 37.5 -14t15.5 -30q0 -14 -6.5 -29.5t-18.5 -28.5t-29 -21t-38 -8
q-5 0 -12.5 2.5t-14.5 8t-12 13.5t-5 20t8 27.5t20.5 28.5t27 22t27.5 9z" />
    <glyph glyph-name="Yacute" unicode="&#xdd;" horiz-adv-x="884" 
d="M983 751q0 -28 -22.5 -73t-60 -104t-85 -130t-97 -150.5t-96.5 -165t-84.5 -174t-60 -178t-22.5 -175.5q0 -54 10 -88t17 -53.5t4.5 -26.5t-26.5 -7t-51 9.5t-49.5 32t-37.5 61t-15 96.5q0 70 18.5 146t52.5 159t81.5 174.5t105.5 192.5q-72 -86 -127.5 -167t-101.5 -144
t-87 -101t-85 -38h-2h-11q-41 0 -69.5 22.5t-46.5 57.5t-26.5 77t-8.5 82q0 88 22 174.5t55.5 166.5t72 151.5t72 129.5t55.5 100t22 64t1.5 37t23.5 15q20 0 37 -9t30 -25t20 -36.5t7 -44.5q0 -20 -20.5 -59.5t-51.5 -93.5t-66.5 -121.5t-66.5 -143.5t-51.5 -158
t-20.5 -165q0 -44 8.5 -84t19.5 -65q4 1 1 1t2 0q17 0 55.5 36.5t91 97.5t113.5 139.5t122 162.5t118 166.5t100.5 152t70 119t26.5 66.5t3.5 28.5t27.5 11.5q15 0 30 -8.5t27 -26.5t19 -46t7 -68zM505 909q7 0 26.5 12t44.5 31.5t52.5 42.5t50 44.5t37 39.5t14.5 26
q0 9 12.5 5t27.5 -14t27.5 -24.5t12.5 -26.5q0 -9 -15 -24.5t-39.5 -34t-55 -38t-60.5 -35t-57 -25.5t-44 -10q-15 0 -24 5t-13 10.5t-3 10.5t6 5z" />
    <glyph glyph-name="germandbls" unicode="&#xdf;" horiz-adv-x="561" 
d="M389 372q31 -20 55 -55.5t24 -94.5q0 -54 -17.5 -99.5t-48.5 -78.5t-72 -51.5t-88 -18.5t-77.5 15t-48.5 35.5t-25 42t-7 35.5q0 13 6 26t14.5 22t18 11.5t15.5 -3.5q7 -7 8 -12.5t-0.5 -10.5t-4 -10.5t-2.5 -13.5q0 -9 5.5 -24.5t16.5 -30t27 -25.5t38 -11q28 0 53.5 23
t45 56.5t31.5 70t12 63.5q0 40 -18.5 71t-43.5 46q-11 2 -20.5 5.5t-17.5 6.5h-1q-23 12 -29.5 23.5t7.5 11.5q28 0 56 18.5t53.5 49.5t47.5 71t38 83.5t25.5 87.5t9.5 82q0 32 -7.5 42.5t-12.5 10.5q-17 0 -49 -28t-72 -77t-86 -116t-91 -145t-87 -163.5t-73.5 -172
t-50.5 -171t-19 -159.5q0 -35 7.5 -65t13.5 -52.5t5.5 -35.5t-15.5 -13q-27 0 -52 14.5t-45 39.5t-32 58t-12 70q0 65 16.5 145.5t46 168t69 177.5t86 173.5t97.5 157t102 128.5t100.5 86.5t93.5 31.5q71 0 107 -41t36 -142q0 -38 -14.5 -86.5t-37.5 -96.5t-52 -90t-58 -66z
" />
    <glyph glyph-name="agrave" unicode="&#xe0;" 
d="M-42 190q0 44 15 91.5t40.5 93t61 86.5t76 72t85 49.5t89.5 18.5q35 0 60 -9.5t41 -24.5t24.5 -32.5t12 -34.5t2.5 -30t-3 -19q-3 -8 -7.5 -10.5t-7.5 -1t-5 5t-1 6.5t1 16.5t-7.5 28.5t-25 27t-50.5 12q-26 0 -56 -21.5t-59.5 -56t-57.5 -79t-50 -91t-36.5 -91t-18 -79
t5.5 -56t35 -21.5q29 0 59 25t58.5 63.5t53 84t43 87.5t29 73.5t10.5 41.5q0 15 16.5 12.5t36 -14.5t36 -29t16.5 -31q0 -9 -11 -35.5t-26 -60t-30.5 -70.5t-24.5 -68t-8 -51t19 -20q17 0 42.5 25.5t53.5 65.5t57 88.5t54 94t44 82.5t28 54q4 9 10.5 12t12 1.5t8 -7
t-1.5 -14.5q-10 -21 -31 -62.5t-48.5 -91.5t-60 -102.5t-65 -95.5t-63.5 -70.5t-55 -27.5q-41 0 -63.5 19.5t-33.5 42.5q-13 27 -16 63q-26 -36 -54 -63q-24 -23 -53 -42.5t-57 -19.5q-36 0 -64 17t-47 44t-28.5 61t-9.5 68zM198 854q0 11 14.5 23t32.5 20t32.5 9.5
t14.5 -7.5q0 -6 10 -23t27 -38.5t38 -44.5t43.5 -42.5t43.5 -32t37 -12.5q6 0 6.5 -5.5t-4 -11.5t-13.5 -11.5t-24 -5.5q-26 0 -55.5 10.5t-58.5 27t-55 37t-45.5 40.5t-31.5 38t-12 29z" />
    <glyph glyph-name="aacute" unicode="&#xe1;" 
d="M-42 190q0 44 15 91.5t40.5 93t61 86.5t76 72t85 49.5t89.5 18.5q35 0 60 -9.5t41 -24.5t24.5 -32.5t12 -34.5t2.5 -30t-3 -19q-3 -8 -7.5 -10.5t-7.5 -1t-5 5t-1 6.5t1 16.5t-7.5 28.5t-25 27t-50.5 12q-26 0 -56 -21.5t-59.5 -56t-57.5 -79t-50 -91t-36.5 -91t-18 -79
t5.5 -56t35 -21.5q29 0 59 25t58.5 63.5t53 84t43 87.5t29 73.5t10.5 41.5q0 15 16.5 12.5t36 -14.5t36 -29t16.5 -31q0 -9 -11 -35.5t-26 -60t-30.5 -70.5t-24.5 -68t-8 -51t19 -20q17 0 42.5 25.5t53.5 65.5t57 88.5t54 94t44 82.5t28 54q4 9 10.5 12t12 1.5t8 -7
t-1.5 -14.5q-10 -21 -31 -62.5t-48.5 -91.5t-60 -102.5t-65 -95.5t-63.5 -70.5t-55 -27.5q-41 0 -63.5 19.5t-33.5 42.5q-13 27 -16 63q-26 -36 -54 -63q-24 -23 -53 -42.5t-57 -19.5q-36 0 -64 17t-47 44t-28.5 61t-9.5 68zM218 703q7 0 26.5 12t44.5 31.5t52.5 42.5
t50 44.5t37 39.5t14.5 26q0 9 12.5 5t27.5 -14t27.5 -24.5t12.5 -26.5q0 -9 -15 -24.5t-39.5 -34t-55 -38t-60.5 -35t-57 -25.5t-44 -10q-15 0 -24 5t-13 10.5t-3 10.5t6 5z" />
    <glyph glyph-name="acircumflex" unicode="&#xe2;" 
d="M-42 190q0 44 15 91.5t40.5 93t61 86.5t76 72t85 49.5t89.5 18.5q35 0 60 -9.5t41 -24.5t24.5 -32.5t12 -34.5t2.5 -30t-3 -19q-3 -8 -7.5 -10.5t-7.5 -1t-5 5t-1 6.5t1 16.5t-7.5 28.5t-25 27t-50.5 12q-26 0 -56 -21.5t-59.5 -56t-57.5 -79t-50 -91t-36.5 -91t-18 -79
t5.5 -56t35 -21.5q29 0 59 25t58.5 63.5t53 84t43 87.5t29 73.5t10.5 41.5q0 15 16.5 12.5t36 -14.5t36 -29t16.5 -31q0 -9 -11 -35.5t-26 -60t-30.5 -70.5t-24.5 -68t-8 -51t19 -20q17 0 42.5 25.5t53.5 65.5t57 88.5t54 94t44 82.5t28 54q4 9 10.5 12t12 1.5t8 -7
t-1.5 -14.5q-10 -21 -31 -62.5t-48.5 -91.5t-60 -102.5t-65 -95.5t-63.5 -70.5t-55 -27.5q-41 0 -63.5 19.5t-33.5 42.5q-13 27 -16 63q-26 -36 -54 -63q-24 -23 -53 -42.5t-57 -19.5q-36 0 -64 17t-47 44t-28.5 61t-9.5 68zM132 698q7 0 24.5 13.5t39 34.5t45.5 44.5
t45 44.5t36 34.5t19 13.5q6 0 20.5 -2t29 -7.5t25.5 -14t11 -21.5q0 -24 15 -51.5t32.5 -52t32.5 -42t15 -20.5q0 -6 -6.5 -9.5t-11.5 -3.5q-18 0 -41.5 22t-44.5 48q-25 31 -49 71q-35 -40 -69 -71q-15 -13 -30.5 -25.5t-31 -22.5t-30.5 -16t-27 -6q-15 0 -26.5 6
t-18.5 13.5t-8.5 13.5t4.5 6z" />
    <glyph glyph-name="atilde" unicode="&#xe3;" 
d="M-42 190q0 44 15 91.5t40.5 93t61 86.5t76 72t85 49.5t89.5 18.5q35 0 60 -9.5t41 -24.5t24.5 -32.5t12 -34.5t2.5 -30t-3 -19q-3 -8 -7.5 -10.5t-7.5 -1t-5 5t-1 6.5t1 16.5t-7.5 28.5t-25 27t-50.5 12q-26 0 -56 -21.5t-59.5 -56t-57.5 -79t-50 -91t-36.5 -91t-18 -79
t5.5 -56t35 -21.5q29 0 59 25t58.5 63.5t53 84t43 87.5t29 73.5t10.5 41.5q0 15 16.5 12.5t36 -14.5t36 -29t16.5 -31q0 -9 -11 -35.5t-26 -60t-30.5 -70.5t-24.5 -68t-8 -51t19 -20q17 0 42.5 25.5t53.5 65.5t57 88.5t54 94t44 82.5t28 54q4 9 10.5 12t12 1.5t8 -7
t-1.5 -14.5q-10 -21 -31 -62.5t-48.5 -91.5t-60 -102.5t-65 -95.5t-63.5 -70.5t-55 -27.5q-41 0 -63.5 19.5t-33.5 42.5q-13 27 -16 63q-26 -36 -54 -63q-24 -23 -53 -42.5t-57 -19.5q-36 0 -64 17t-47 44t-28.5 61t-9.5 68zM209 707q-14 0 -21 16.5t-2.5 36t24.5 36
t60 16.5q18 0 43 -4.5t51 -10t49 -10t37 -4.5q16 0 24.5 3.5t12.5 8t6 8.5t5 4q7 0 12.5 -18t5.5 -42q0 -23 -17.5 -34t-45.5 -11q-16 0 -40 5t-52 11.5t-58.5 11.5t-58.5 5q-13 0 -20 -4.5t-10 -9.5q-4 -6 -5 -14z" />
    <glyph glyph-name="adieresis" unicode="&#xe4;" 
d="M-42 190q0 44 15 91.5t40.5 93t61 86.5t76 72t85 49.5t89.5 18.5q35 0 60 -9.5t41 -24.5t24.5 -32.5t12 -34.5t2.5 -30t-3 -19q-3 -8 -7.5 -10.5t-7.5 -1t-5 5t-1 6.5t1 16.5t-7.5 28.5t-25 27t-50.5 12q-26 0 -56 -21.5t-59.5 -56t-57.5 -79t-50 -91t-36.5 -91t-18 -79
t5.5 -56t35 -21.5q29 0 59 25t58.5 63.5t53 84t43 87.5t29 73.5t10.5 41.5q0 15 16.5 12.5t36 -14.5t36 -29t16.5 -31q0 -9 -11 -35.5t-26 -60t-30.5 -70.5t-24.5 -68t-8 -51t19 -20q17 0 42.5 25.5t53.5 65.5t57 88.5t54 94t44 82.5t28 54q4 9 10.5 12t12 1.5t8 -7
t-1.5 -14.5q-10 -21 -31 -62.5t-48.5 -91.5t-60 -102.5t-65 -95.5t-63.5 -70.5t-55 -27.5q-41 0 -63.5 19.5t-33.5 42.5q-13 27 -16 63q-26 -36 -54 -63q-24 -23 -53 -42.5t-57 -19.5q-36 0 -64 17t-47 44t-28.5 61t-9.5 68zM246 836q23 0 38 -14t15 -30q0 -14 -6.5 -29.5
t-18.5 -28.5t-29 -21t-37 -8q-5 0 -13 2.5t-15 8t-12 13.5t-5 20t8.5 27.5t21 28.5t27 22t26.5 9zM453 841q22 0 37.5 -14t15.5 -30q0 -14 -6.5 -29.5t-18.5 -28.5t-29 -21t-38 -8q-5 0 -12.5 2.5t-14.5 8t-12 13.5t-5 20t8 27.5t20.5 28.5t27 22t27.5 9z" />
    <glyph glyph-name="aring" unicode="&#xe5;" 
d="M-42 190q0 44 15 91.5t40.5 93t61 86.5t76 72t85 49.5t89.5 18.5q35 0 60 -9.5t41 -24.5t24.5 -32.5t12 -34.5t2.5 -30t-3 -19q-3 -8 -7.5 -10.5t-7.5 -1t-5 5t-1 6.5t1 16.5t-7.5 28.5t-25 27t-50.5 12q-26 0 -56 -21.5t-59.5 -56t-57.5 -79t-50 -91t-36.5 -91t-18 -79
t5.5 -56t35 -21.5q29 0 59 25t58.5 63.5t53 84t43 87.5t29 73.5t10.5 41.5q0 15 16.5 12.5t36 -14.5t36 -29t16.5 -31q0 -9 -11 -35.5t-26 -60t-30.5 -70.5t-24.5 -68t-8 -51t19 -20q17 0 42.5 25.5t53.5 65.5t57 88.5t54 94t44 82.5t28 54q4 9 10.5 12t12 1.5t8 -7
t-1.5 -14.5q-10 -21 -31 -62.5t-48.5 -91.5t-60 -102.5t-65 -95.5t-63.5 -70.5t-55 -27.5q-41 0 -63.5 19.5t-33.5 42.5q-13 27 -16 63q-26 -36 -54 -63q-24 -23 -53 -42.5t-57 -19.5q-36 0 -64 17t-47 44t-28.5 61t-9.5 68zM365 930q19 0 36.5 -7t30 -18.5t20 -25.5
t7.5 -29q0 -25 -11.5 -52t-32.5 -49.5t-50.5 -37t-65.5 -14.5q-9 0 -22.5 4.5t-26 14.5t-21.5 24.5t-9 35.5t14.5 47.5t36 50.5t47 40t47.5 16zM282 730q22 0 42.5 13t36.5 32t26 41.5t10 41.5t-9 19q-13 0 -32.5 -15.5t-37.5 -36.5t-31 -43.5t-13 -36.5q0 -5 1.5 -10
t6.5 -5z" />
    <glyph glyph-name="ae" unicode="&#xe6;" horiz-adv-x="914" 
d="M916 454q4 9 10.5 12t12 1.5t8 -7t-1.5 -14.5q-10 -20 -30 -59t-49 -86t-66.5 -97t-82.5 -92.5t-96.5 -72.5t-108.5 -37q-11 -3 -30 -3q-60 0 -97 25t-56 55q-23 35 -32 81q-25 -46 -56 -81q-26 -30 -61 -55t-73 -25q-36 0 -64 17t-47 44t-28.5 61t-9.5 68q0 44 15 91.5
t40.5 93t61 86.5t76 72t85 49.5t89.5 18.5q33 0 56.5 -8t39.5 -21t25 -29.5t14 -32.5q52 42 112 66t121 24q39 0 56 -16.5t17 -44t-14.5 -63t-39 -73t-56.5 -73.5t-67.5 -65.5t-72 -49.5t-69.5 -24q-11 -54 -2.5 -91t44.5 -42h8q50 0 98 24.5t92 63t82 85.5t68 91t50.5 80
t28.5 53zM707 563q-32 0 -69 -31.5t-71.5 -80t-63.5 -107t-45 -113.5q35 8 74 35.5t74.5 64.5t65 78t45.5 75t15 56.5t-25 22.5zM122 39q22 0 45.5 15.5t46 40.5t44 57.5t39.5 67.5q3 74 41.5 144.5t98.5 125.5q-6 17 -24 30.5t-54 13.5q-26 0 -56 -21.5t-59.5 -56
t-57.5 -79t-50 -91t-36.5 -91t-18 -79t5.5 -56t35 -21.5z" />
    <glyph glyph-name="ccedilla" unicode="&#xe7;" horiz-adv-x="507" 
d="M507 456q4 8 10.5 11t12 1.5t8 -6.5t-1.5 -14q-10 -20 -30.5 -58.5t-50.5 -85.5t-68 -96.5t-82.5 -92.5t-94 -73.5t-101.5 -38.5q27 -5 46.5 -24t19.5 -57q0 -28 -15 -55t-38 -48t-52 -34t-56 -13q-21 0 -36.5 5.5t-26.5 14.5t-18 19t-10 19q-5 12 -4 17t4.5 5t8.5 -6
t9 -16q2 -7 10.5 -14.5t24.5 -7.5q35 0 64.5 12.5t51 32.5t33.5 45t12 51q0 25 -15 31t-35.5 2t-40.5 -11t-30 -7q-11 0 -8 10t9 16q15 8 34 12q-41 5 -71 27t-50 52t-30 64.5t-10 66.5q0 71 34.5 140.5t91 125t127.5 89.5t144 34q30 0 45.5 -13t21 -33t3 -43.5t-7 -44.5
t-10 -36.5t-6.5 -18.5q-3 -9 -8.5 -12.5t-11 -3t-8 5.5t0.5 14q14 44 19 78q2 15 2.5 29t-2 25t-8.5 17.5t-16 6.5q-26 0 -56 -22t-59.5 -58.5t-56.5 -82.5t-48 -94.5t-33.5 -94.5t-13.5 -82.5t12 -58.5t44 -22q51 0 100 25t92.5 63.5t80.5 85.5t66.5 91t49 80.5t28.5 53.5z
" />
    <glyph glyph-name="egrave" unicode="&#xe8;" horiz-adv-x="588" 
d="M588 454q4 9 10.5 12t12 1.5t8 -7t-1.5 -14.5q-10 -21 -31.5 -62t-52.5 -91t-71.5 -101.5t-88.5 -94.5t-103.5 -70t-115.5 -27q-47 0 -82 20.5t-58 51.5t-34 68t-11 71q0 71 34.5 140.5t90.5 124.5t127 89t144 34q39 0 56 -16.5t17 -44t-14.5 -63t-39 -73t-56.5 -73.5
t-67.5 -65.5t-72 -49.5t-69.5 -24q-12 -57 -1.5 -95t51.5 -38q50 0 98 24.5t92 63t82 85.5t68 91t50.5 80t28.5 53zM379 563q-32 0 -69 -31.5t-71.5 -80t-63.5 -107t-45 -113.5q35 8 74 35.5t74.5 64.5t65 78t45.5 75t15 56.5t-25 22.5zM140 854q0 11 14.5 23t32.5 20
t32.5 9.5t14.5 -7.5q0 -6 10 -23t27 -38.5t38 -44.5t43.5 -42.5t43.5 -32t37 -12.5q6 0 6.5 -5.5t-4 -11.5t-13.5 -11.5t-24 -5.5q-27 0 -56 10.5t-58 27t-55 37t-46 40.5t-31.5 38t-11.5 29z" />
    <glyph glyph-name="eacute" unicode="&#xe9;" horiz-adv-x="588" 
d="M588 454q4 9 10.5 12t12 1.5t8 -7t-1.5 -14.5q-10 -21 -31.5 -62t-52.5 -91t-71.5 -101.5t-88.5 -94.5t-103.5 -70t-115.5 -27q-47 0 -82 20.5t-58 51.5t-34 68t-11 71q0 71 34.5 140.5t90.5 124.5t127 89t144 34q39 0 56 -16.5t17 -44t-14.5 -63t-39 -73t-56.5 -73.5
t-67.5 -65.5t-72 -49.5t-69.5 -24q-12 -57 -1.5 -95t51.5 -38q50 0 98 24.5t92 63t82 85.5t68 91t50.5 80t28.5 53zM379 563q-32 0 -69 -31.5t-71.5 -80t-63.5 -107t-45 -113.5q35 8 74 35.5t74.5 64.5t65 78t45.5 75t15 56.5t-25 22.5zM173 703q7 0 26.5 12t44.5 31.5
t52.5 42.5t50 44.5t37 39.5t14.5 26q0 9 12.5 5t27.5 -14t27.5 -24.5t12.5 -26.5q0 -9 -15 -24.5t-39.5 -34t-55 -38t-60.5 -35t-57 -25.5t-44 -10q-15 0 -24 5t-13 10.5t-3 10.5t6 5z" />
    <glyph glyph-name="ecircumflex" unicode="&#xea;" horiz-adv-x="588" 
d="M588 454q4 9 10.5 12t12 1.5t8 -7t-1.5 -14.5q-10 -21 -31.5 -62t-52.5 -91t-71.5 -101.5t-88.5 -94.5t-103.5 -70t-115.5 -27q-47 0 -82 20.5t-58 51.5t-34 68t-11 71q0 71 34.5 140.5t90.5 124.5t127 89t144 34q39 0 56 -16.5t17 -44t-14.5 -63t-39 -73t-56.5 -73.5
t-67.5 -65.5t-72 -49.5t-69.5 -24q-12 -57 -1.5 -95t51.5 -38q50 0 98 24.5t92 63t82 85.5t68 91t50.5 80t28.5 53zM379 563q-32 0 -69 -31.5t-71.5 -80t-63.5 -107t-45 -113.5q35 8 74 35.5t74.5 64.5t65 78t45.5 75t15 56.5t-25 22.5zM140 698q7 0 24.5 13.5t39 34.5
t45.5 44.5t45 44.5t36 34.5t19 13.5q6 0 20.5 -2t29 -7.5t25.5 -14t11 -21.5q0 -24 15 -51.5t32.5 -52t32.5 -42t15 -20.5q0 -6 -6.5 -9.5t-11.5 -3.5q-18 0 -41.5 22t-44.5 48q-25 31 -49 71q-35 -40 -69 -71q-15 -13 -30.5 -25.5t-31 -22.5t-30.5 -16t-27 -6
q-15 0 -26.5 6t-18.5 13.5t-8.5 13.5t4.5 6z" />
    <glyph glyph-name="edieresis" unicode="&#xeb;" horiz-adv-x="588" 
d="M588 454q4 9 10.5 12t12 1.5t8 -7t-1.5 -14.5q-10 -21 -31.5 -62t-52.5 -91t-71.5 -101.5t-88.5 -94.5t-103.5 -70t-115.5 -27q-47 0 -82 20.5t-58 51.5t-34 68t-11 71q0 71 34.5 140.5t90.5 124.5t127 89t144 34q39 0 56 -16.5t17 -44t-14.5 -63t-39 -73t-56.5 -73.5
t-67.5 -65.5t-72 -49.5t-69.5 -24q-12 -57 -1.5 -95t51.5 -38q50 0 98 24.5t92 63t82 85.5t68 91t50.5 80t28.5 53zM379 563q-32 0 -69 -31.5t-71.5 -80t-63.5 -107t-45 -113.5q35 8 74 35.5t74.5 64.5t65 78t45.5 75t15 56.5t-25 22.5zM234 836q23 0 38 -14t15 -30
q0 -14 -6.5 -29.5t-18.5 -28.5t-29 -21t-37 -8q-5 0 -13 2.5t-15 8t-12 13.5t-5 20t8.5 27.5t21 28.5t27 22t26.5 9zM441 841q22 0 37.5 -14t15.5 -30q0 -14 -6.5 -29.5t-18.5 -28.5t-29 -21t-38 -8q-5 0 -12.5 2.5t-14.5 8t-12 13.5t-5 20t8 27.5t20.5 28.5t27 22t27.5 9z
" />
    <glyph glyph-name="igrave" unicode="&#xec;" horiz-adv-x="376" 
d="M376 457q4 8 11 11t12 1.5t7.5 -6.5t-1.5 -14q-10 -21 -31.5 -62.5t-51 -91.5t-65.5 -102.5t-74.5 -95t-78.5 -70t-78 -27.5q-45 0 -73 33.5t-28 90.5q0 25 13 66t33 88t43 96.5t43 92t33 74t13 43.5q0 18 15 16t33.5 -16.5t33.5 -36.5t15 -45q0 -12 -17.5 -50t-42 -88.5
t-50.5 -106t-42.5 -102t-18 -77t22.5 -30.5q26 0 57.5 25.5t65 65t66 88t60 94t47.5 82.5t28 54zM34 854q0 11 14.5 23t32.5 20t32.5 9.5t14.5 -7.5q0 -6 10 -23t27 -38.5t38 -44.5t43.5 -42.5t43.5 -32t37 -12.5q6 0 6.5 -5.5t-4 -11.5t-13.5 -11.5t-24 -5.5
q-27 0 -56 10.5t-58 27t-55 37t-46 40.5t-31.5 38t-11.5 29z" />
    <glyph glyph-name="iacute" unicode="&#xed;" horiz-adv-x="376" 
d="M376 457q4 8 11 11t12 1.5t7.5 -6.5t-1.5 -14q-10 -21 -31.5 -62.5t-51 -91.5t-65.5 -102.5t-74.5 -95t-78.5 -70t-78 -27.5q-45 0 -73 33.5t-28 90.5q0 25 13 66t33 88t43 96.5t43 92t33 74t13 43.5q0 18 15 16t33.5 -16.5t33.5 -36.5t15 -45q0 -12 -17.5 -50t-42 -88.5
t-50.5 -106t-42.5 -102t-18 -77t22.5 -30.5q26 0 57.5 25.5t65 65t66 88t60 94t47.5 82.5t28 54zM43 703q7 0 26.5 12t44.5 31.5t52.5 42.5t50 44.5t37 39.5t14.5 26q0 9 12.5 5t27.5 -14t27.5 -24.5t12.5 -26.5q0 -9 -15 -24.5t-39.5 -34t-55 -38t-60.5 -35t-57 -25.5
t-44 -10q-15 0 -24 5t-13 10.5t-3 10.5t6 5z" />
    <glyph glyph-name="icircumflex" unicode="&#xee;" horiz-adv-x="376" 
d="M376 457q4 8 11 11t12 1.5t7.5 -6.5t-1.5 -14q-10 -21 -31.5 -62.5t-51 -91.5t-65.5 -102.5t-74.5 -95t-78.5 -70t-78 -27.5q-45 0 -73 33.5t-28 90.5q0 25 13 66t33 88t43 96.5t43 92t33 74t13 43.5q0 18 15 16t33.5 -16.5t33.5 -36.5t15 -45q0 -12 -17.5 -50t-42 -88.5
t-50.5 -106t-42.5 -102t-18 -77t22.5 -30.5q26 0 57.5 25.5t65 65t66 88t60 94t47.5 82.5t28 54zM-22 698q7 0 24.5 13.5t39 34.5t45.5 44.5t45 44.5t36 34.5t19 13.5q6 0 20.5 -2t29 -7.5t25.5 -14t11 -21.5q0 -24 15 -51.5t32.5 -52t32.5 -42t15 -20.5q0 -6 -6.5 -9.5
t-11.5 -3.5q-18 0 -41.5 22t-44.5 48q-25 31 -49 71q-35 -40 -69 -71q-15 -13 -30.5 -25.5t-31 -22.5t-30.5 -16t-27 -6q-15 0 -26.5 6t-18.5 13.5t-8.5 13.5t4.5 6z" />
    <glyph glyph-name="idieresis" unicode="&#xef;" horiz-adv-x="376" 
d="M376 457q4 8 11 11t12 1.5t7.5 -6.5t-1.5 -14q-10 -21 -31.5 -62.5t-51 -91.5t-65.5 -102.5t-74.5 -95t-78.5 -70t-78 -27.5q-45 0 -73 33.5t-28 90.5q0 25 13 66t33 88t43 96.5t43 92t33 74t13 43.5q0 18 15 16t33.5 -16.5t33.5 -36.5t15 -45q0 -12 -17.5 -50t-42 -88.5
t-50.5 -106t-42.5 -102t-18 -77t22.5 -30.5q26 0 57.5 25.5t65 65t66 88t60 94t47.5 82.5t28 54zM100 836q23 0 38 -14t15 -30q0 -14 -6.5 -29.5t-18.5 -28.5t-29 -21t-37 -8q-5 0 -13 2.5t-15 8t-12 13.5t-5 20t8.5 27.5t21 28.5t27 22t26.5 9zM307 841q22 0 37.5 -14
t15.5 -30q0 -14 -6.5 -29.5t-18.5 -28.5t-29 -21t-38 -8q-5 0 -12.5 2.5t-14.5 8t-12 13.5t-5 20t8 27.5t20.5 28.5t27 22t27.5 9z" />
    <glyph glyph-name="ntilde" unicode="&#xf1;" horiz-adv-x="625" 
d="M625 453q4 8 10.5 11t12 1.5t8 -6.5t-1.5 -14q-10 -21 -30 -62t-46.5 -90.5t-58 -101.5t-65.5 -94.5t-68 -69.5t-65 -27q-44 0 -72.5 33.5t-28.5 90.5q0 30 18.5 81t44 109t52.5 114t44 97q-21 -22 -51.5 -56.5t-65 -74.5t-70 -84t-67 -86t-55.5 -78.5t-35 -62.5
q-1 -5 -1.5 -10.5t-0.5 -10.5q0 -10 3.5 -21t5 -20t-1 -15t-13.5 -6q-17 0 -35 8.5t-33 24.5t-24.5 38.5t-9.5 49.5q0 33 13 73.5t32.5 83t42 86t42 83.5t32.5 74.5t13 60.5q0 17 17.5 18t38 -12t38 -37t17.5 -56q0 -15 -10 -41.5t-26 -59t-35.5 -70t-38.5 -74.5
q22 28 51.5 65t61 75.5t63 75.5t58.5 66t46 47t27 18h2q5 0 8 -1h2l1 -1q11 -3 24 -12.5t24 -22.5t18.5 -28.5t7.5 -31.5q0 -12 -17.5 -50t-42 -88t-50.5 -105.5t-42.5 -102t-18 -76.5t22.5 -30q17 0 42 23.5t52.5 60.5t56 82.5t53.5 90.5t44.5 84.5t29.5 63.5zM182 707
q-14 0 -21 16.5t-2.5 36t24.5 36t60 16.5q18 0 43 -4.5t51 -10t49 -10t37 -4.5q16 0 24.5 3.5t12.5 8t6 8.5t5 4q7 0 12.5 -18t5.5 -42q0 -23 -17.5 -34t-45.5 -11q-16 0 -40 5t-52 11.5t-58.5 11.5t-58.5 5q-13 0 -20 -4.5t-10 -9.5q-4 -6 -5 -14z" />
    <glyph glyph-name="ograve" unicode="&#xf2;" horiz-adv-x="642" 
d="M644 453q4 11 10.5 14t11.5 0t6.5 -10.5t-2.5 -17.5q-7 -15 -21.5 -40.5t-35.5 -55.5t-49 -62t-61 -59t-71.5 -46.5t-81.5 -24.5q-46 -68 -103.5 -109.5t-119.5 -41.5q-32 0 -62 12.5t-53.5 37.5t-37.5 62t-14 86q0 47 17 97.5t40.5 92.5t47 69t36.5 27t27.5 -3t28.5 -9
q18 25 39 48t45 41t50 28.5t53 10.5q34 0 56.5 -7.5t35.5 -21.5t18 -33t5 -42q0 -80 -23.5 -160t-62.5 -148q32 9 63 28.5t59 44.5t52.5 53t44 54.5t33 49t19.5 35.5zM130 42q48 0 90.5 30t77.5 78q-56 6 -104 36t-74 72q-18 -39 -31.5 -77.5t-16 -69t10 -50t47.5 -19.5z
M319 181q23 37 42 79t32 83t20 78.5t7 65.5t-7.5 45t-22.5 17q-12 0 -36 -26.5t-49.5 -67t-46 -87.5t-24 -88t14.5 -69t70 -30zM167 854q0 11 14.5 23t32.5 20t32.5 9.5t14.5 -7.5q0 -6 10 -23t27 -38.5t38 -44.5t43.5 -42.5t43.5 -32t37 -12.5q6 0 6.5 -5.5t-4 -11.5
t-13.5 -11.5t-24 -5.5q-27 0 -56 10.5t-58 27t-55 37t-46 40.5t-31.5 38t-11.5 29z" />
    <glyph glyph-name="oacute" unicode="&#xf3;" horiz-adv-x="642" 
d="M644 453q4 11 10.5 14t11.5 0t6.5 -10.5t-2.5 -17.5q-7 -15 -21.5 -40.5t-35.5 -55.5t-49 -62t-61 -59t-71.5 -46.5t-81.5 -24.5q-46 -68 -103.5 -109.5t-119.5 -41.5q-32 0 -62 12.5t-53.5 37.5t-37.5 62t-14 86q0 47 17 97.5t40.5 92.5t47 69t36.5 27t27.5 -3t28.5 -9
q18 25 39 48t45 41t50 28.5t53 10.5q34 0 56.5 -7.5t35.5 -21.5t18 -33t5 -42q0 -80 -23.5 -160t-62.5 -148q32 9 63 28.5t59 44.5t52.5 53t44 54.5t33 49t19.5 35.5zM130 42q48 0 90.5 30t77.5 78q-56 6 -104 36t-74 72q-18 -39 -31.5 -77.5t-16 -69t10 -50t47.5 -19.5z
M319 181q23 37 42 79t32 83t20 78.5t7 65.5t-7.5 45t-22.5 17q-12 0 -36 -26.5t-49.5 -67t-46 -87.5t-24 -88t14.5 -69t70 -30zM184 703q7 0 26.5 12t44.5 31.5t52.5 42.5t50 44.5t37 39.5t14.5 26q0 9 12.5 5t27.5 -14t27.5 -24.5t12.5 -26.5q0 -9 -15 -24.5t-39.5 -34
t-55 -38t-60.5 -35t-57 -25.5t-44 -10q-15 0 -24 5t-13 10.5t-3 10.5t6 5z" />
    <glyph glyph-name="ocircumflex" unicode="&#xf4;" horiz-adv-x="642" 
d="M644 453q4 11 10.5 14t11.5 0t6.5 -10.5t-2.5 -17.5q-7 -15 -21.5 -40.5t-35.5 -55.5t-49 -62t-61 -59t-71.5 -46.5t-81.5 -24.5q-46 -68 -103.5 -109.5t-119.5 -41.5q-32 0 -62 12.5t-53.5 37.5t-37.5 62t-14 86q0 47 17 97.5t40.5 92.5t47 69t36.5 27t27.5 -3t28.5 -9
q18 25 39 48t45 41t50 28.5t53 10.5q34 0 56.5 -7.5t35.5 -21.5t18 -33t5 -42q0 -80 -23.5 -160t-62.5 -148q32 9 63 28.5t59 44.5t52.5 53t44 54.5t33 49t19.5 35.5zM130 42q48 0 90.5 30t77.5 78q-56 6 -104 36t-74 72q-18 -39 -31.5 -77.5t-16 -69t10 -50t47.5 -19.5z
M319 181q23 37 42 79t32 83t20 78.5t7 65.5t-7.5 45t-22.5 17q-12 0 -36 -26.5t-49.5 -67t-46 -87.5t-24 -88t14.5 -69t70 -30zM162 698q7 0 24.5 13.5t39 34.5t45.5 44.5t45 44.5t36 34.5t19 13.5q6 0 20.5 -2t29 -7.5t25.5 -14t11 -21.5q0 -24 15 -51.5t32.5 -52t32.5 -42
t15 -20.5q0 -6 -6.5 -9.5t-11.5 -3.5q-18 0 -41.5 22t-44.5 48q-25 31 -49 71q-35 -40 -69 -71q-15 -13 -30.5 -25.5t-31 -22.5t-30.5 -16t-27 -6q-15 0 -26.5 6t-18.5 13.5t-8.5 13.5t4.5 6z" />
    <glyph glyph-name="otilde" unicode="&#xf5;" horiz-adv-x="642" 
d="M644 453q4 11 10.5 14t11.5 0t6.5 -10.5t-2.5 -17.5q-7 -15 -21.5 -40.5t-35.5 -55.5t-49 -62t-61 -59t-71.5 -46.5t-81.5 -24.5q-46 -68 -103.5 -109.5t-119.5 -41.5q-32 0 -62 12.5t-53.5 37.5t-37.5 62t-14 86q0 47 17 97.5t40.5 92.5t47 69t36.5 27t27.5 -3t28.5 -9
q18 25 39 48t45 41t50 28.5t53 10.5q34 0 56.5 -7.5t35.5 -21.5t18 -33t5 -42q0 -80 -23.5 -160t-62.5 -148q32 9 63 28.5t59 44.5t52.5 53t44 54.5t33 49t19.5 35.5zM130 42q48 0 90.5 30t77.5 78q-56 6 -104 36t-74 72q-18 -39 -31.5 -77.5t-16 -69t10 -50t47.5 -19.5z
M319 181q23 37 42 79t32 83t20 78.5t7 65.5t-7.5 45t-22.5 17q-12 0 -36 -26.5t-49.5 -67t-46 -87.5t-24 -88t14.5 -69t70 -30zM191 707q-14 0 -21 16.5t-2.5 36t24.5 36t60 16.5q18 0 43 -4.5t51 -10t49 -10t37 -4.5q16 0 24.5 3.5t12.5 8t6 8.5t5 4q7 0 12.5 -18t5.5 -42
q0 -23 -17.5 -34t-45.5 -11q-16 0 -40 5t-52 11.5t-58.5 11.5t-58.5 5q-13 0 -20 -4.5t-10 -9.5q-4 -6 -5 -14z" />
    <glyph glyph-name="odieresis" unicode="&#xf6;" horiz-adv-x="642" 
d="M644 453q4 11 10.5 14t11.5 0t6.5 -10.5t-2.5 -17.5q-7 -15 -21.5 -40.5t-35.5 -55.5t-49 -62t-61 -59t-71.5 -46.5t-81.5 -24.5q-46 -68 -103.5 -109.5t-119.5 -41.5q-32 0 -62 12.5t-53.5 37.5t-37.5 62t-14 86q0 47 17 97.5t40.5 92.5t47 69t36.5 27t27.5 -3t28.5 -9
q18 25 39 48t45 41t50 28.5t53 10.5q34 0 56.5 -7.5t35.5 -21.5t18 -33t5 -42q0 -80 -23.5 -160t-62.5 -148q32 9 63 28.5t59 44.5t52.5 53t44 54.5t33 49t19.5 35.5zM130 42q48 0 90.5 30t77.5 78q-56 6 -104 36t-74 72q-18 -39 -31.5 -77.5t-16 -69t10 -50t47.5 -19.5z
M319 181q23 37 42 79t32 83t20 78.5t7 65.5t-7.5 45t-22.5 17q-12 0 -36 -26.5t-49.5 -67t-46 -87.5t-24 -88t14.5 -69t70 -30zM280 836q23 0 38 -14t15 -30q0 -14 -6.5 -29.5t-18.5 -28.5t-29 -21t-37 -8q-5 0 -13 2.5t-15 8t-12 13.5t-5 20t8.5 27.5t21 28.5t27 22t26.5 9
zM487 841q22 0 37.5 -14t15.5 -30q0 -14 -6.5 -29.5t-18.5 -28.5t-29 -21t-38 -8q-5 0 -12.5 2.5t-14.5 8t-12 13.5t-5 20t8 27.5t20.5 28.5t27 22t27.5 9z" />
    <glyph glyph-name="divide" unicode="&#xf7;" horiz-adv-x="538" 
d="M112 394q25 0 62.5 1t77 2.5t75 3t56.5 1.5q20 0 38 -10.5t29 -22.5t13 -22.5t-9 -10.5h-12t-8.5 0.5t-11 0.5h-17.5q-20 0 -49.5 0.5t-63 0.5t-67 0.5t-61.5 0.5q-27 0 -47.5 8.5t-32.5 19t-14 19t8 8.5h34zM292 553q17 0 27.5 -6t10.5 -14q3 -5 6 -9q2 -4 4 -9t2 -10
t-4.5 -12.5t-12 -14t-16.5 -11t-17 -4.5q-16 0 -30 12t-14 26q0 7 3 16t9 17t14 13.5t18 5.5zM218 263q17 0 27.5 -6t10.5 -14q3 -5 6 -9q2 -4 4 -9t2 -10t-4.5 -12.5t-12 -14t-16.5 -11t-17 -4.5q-16 0 -30 12t-14 26q0 7 3 16t9 17t14 13.5t18 5.5z" />
    <glyph glyph-name="oslash" unicode="&#xf8;" horiz-adv-x="642" 
d="M645 453q4 11 10.5 14t11.5 0t6.5 -10.5t-2.5 -17.5q-7 -15 -21.5 -40.5t-35.5 -55.5t-49 -62t-61 -59t-71.5 -46.5t-81.5 -24.5q-42 -60 -92 -100t-105 -49q-16 -38 -25 -69.5t-9 -51.5q0 -12 -11 -9.5t-24 14.5t-24 31.5t-11 41.5q0 18 15 54q-45 20 -74.5 66
t-29.5 119q0 47 17 97.5t40.5 92.5t47 69t36.5 27t27.5 -3t28.5 -9q17 25 38 47.5t44 40t48.5 28.5t51.5 12q25 67 25 102q0 12 14 9.5t31 -14.5t31 -31t14 -41q0 -8 -5 -21.5t-13 -32.5q13 -14 18 -33t5 -42q0 -80 -23.5 -160t-62.5 -148q32 9 63 28.5t59 44.5t52.5 53
t44 54.5t33 49t19.5 35.5zM121 258q-14 -29 -25.5 -59t-17.5 -56.5t-5.5 -48t11.5 -34.5q15 32 34 71t40 82q-21 20 -37 45zM174 49q35 11 67 38t58 63q-35 5 -68 18q-16 -32 -30 -61.5t-27 -57.5zM320 181q28 45 49 96t34 98.5t16.5 87t-3.5 62.5q-30 -63 -74.5 -146
t-89.5 -170q10 -12 26.5 -19.5t41.5 -8.5z" />
    <glyph glyph-name="ugrave" unicode="&#xf9;" horiz-adv-x="639" 
d="M641 453q4 8 10.5 11t12 1.5t8 -6.5t-1.5 -14q-10 -21 -29 -62t-45 -90.5t-57 -101.5t-64.5 -94.5t-68.5 -69.5t-68 -27q-18 0 -36 12t-32.5 30.5t-23 40t-8.5 41.5q0 27 15 72t38 97q-31 -44 -69.5 -95t-75.5 -95t-69 -73.5t-51 -29.5q-20 0 -38.5 13.5t-32.5 33
t-22.5 41.5t-8.5 39q0 34 13 73.5t32.5 81.5t42 84.5t42 82t32.5 73.5t13 60q0 17 17.5 18t38 -11.5t38 -36.5t17.5 -56q0 -18 -18.5 -59t-45 -92.5t-55 -106.5t-49 -100.5t-27.5 -74.5t11 -29q9 0 28.5 18t45 47t55 67t58.5 77q69 92 150 210q22 47 37 81.5t15 47.5
q0 17 15 15t33.5 -16t33.5 -36t15 -45q0 -12 -17.5 -50t-42 -88t-50 -105.5t-42 -102t-18.5 -76.5t22 -30q23 0 50 25.5t55 64.5t55.5 87t50.5 93t40.5 81.5t25.5 53.5zM166 854q0 11 14.5 23t32.5 20t32.5 9.5t14.5 -7.5q0 -6 10 -23t27 -38.5t38 -44.5t43.5 -42.5
t43.5 -32t37 -12.5q6 0 6.5 -5.5t-4 -11.5t-13.5 -11.5t-24 -5.5q-27 0 -56 10.5t-58 27t-55 37t-46 40.5t-31.5 38t-11.5 29z" />
    <glyph glyph-name="uacute" unicode="&#xfa;" horiz-adv-x="639" 
d="M641 453q4 8 10.5 11t12 1.5t8 -6.5t-1.5 -14q-10 -21 -29 -62t-45 -90.5t-57 -101.5t-64.5 -94.5t-68.5 -69.5t-68 -27q-18 0 -36 12t-32.5 30.5t-23 40t-8.5 41.5q0 27 15 72t38 97q-31 -44 -69.5 -95t-75.5 -95t-69 -73.5t-51 -29.5q-20 0 -38.5 13.5t-32.5 33
t-22.5 41.5t-8.5 39q0 34 13 73.5t32.5 81.5t42 84.5t42 82t32.5 73.5t13 60q0 17 17.5 18t38 -11.5t38 -36.5t17.5 -56q0 -18 -18.5 -59t-45 -92.5t-55 -106.5t-49 -100.5t-27.5 -74.5t11 -29q9 0 28.5 18t45 47t55 67t58.5 77q69 92 150 210q22 47 37 81.5t15 47.5
q0 17 15 15t33.5 -16t33.5 -36t15 -45q0 -12 -17.5 -50t-42 -88t-50 -105.5t-42 -102t-18.5 -76.5t22 -30q23 0 50 25.5t55 64.5t55.5 87t50.5 93t40.5 81.5t25.5 53.5zM174 703q7 0 26.5 12t44.5 31.5t52.5 42.5t50 44.5t37 39.5t14.5 26q0 9 12.5 5t27.5 -14t27.5 -24.5
t12.5 -26.5q0 -9 -15 -24.5t-39.5 -34t-55 -38t-60.5 -35t-57 -25.5t-44 -10q-15 0 -24 5t-13 10.5t-3 10.5t6 5z" />
    <glyph glyph-name="ucircumflex" unicode="&#xfb;" horiz-adv-x="639" 
d="M641 453q4 8 10.5 11t12 1.5t8 -6.5t-1.5 -14q-10 -21 -29 -62t-45 -90.5t-57 -101.5t-64.5 -94.5t-68.5 -69.5t-68 -27q-18 0 -36 12t-32.5 30.5t-23 40t-8.5 41.5q0 27 15 72t38 97q-31 -44 -69.5 -95t-75.5 -95t-69 -73.5t-51 -29.5q-20 0 -38.5 13.5t-32.5 33
t-22.5 41.5t-8.5 39q0 34 13 73.5t32.5 81.5t42 84.5t42 82t32.5 73.5t13 60q0 17 17.5 18t38 -11.5t38 -36.5t17.5 -56q0 -18 -18.5 -59t-45 -92.5t-55 -106.5t-49 -100.5t-27.5 -74.5t11 -29q9 0 28.5 18t45 47t55 67t58.5 77q69 92 150 210q22 47 37 81.5t15 47.5
q0 17 15 15t33.5 -16t33.5 -36t15 -45q0 -12 -17.5 -50t-42 -88t-50 -105.5t-42 -102t-18.5 -76.5t22 -30q23 0 50 25.5t55 64.5t55.5 87t50.5 93t40.5 81.5t25.5 53.5zM137 698q7 0 24.5 13.5t39 34.5t45.5 44.5t45 44.5t36 34.5t19 13.5q6 0 20.5 -2t29 -7.5t25.5 -14
t11 -21.5q0 -24 15 -51.5t32.5 -52t32.5 -42t15 -20.5q0 -6 -6.5 -9.5t-11.5 -3.5q-18 0 -41.5 22t-44.5 48q-25 31 -49 71q-35 -40 -69 -71q-15 -13 -30.5 -25.5t-31 -22.5t-30.5 -16t-27 -6q-15 0 -26.5 6t-18.5 13.5t-8.5 13.5t4.5 6z" />
    <glyph glyph-name="udieresis" unicode="&#xfc;" horiz-adv-x="639" 
d="M641 453q4 8 10.5 11t12 1.5t8 -6.5t-1.5 -14q-10 -21 -29 -62t-45 -90.5t-57 -101.5t-64.5 -94.5t-68.5 -69.5t-68 -27q-18 0 -36 12t-32.5 30.5t-23 40t-8.5 41.5q0 27 15 72t38 97q-31 -44 -69.5 -95t-75.5 -95t-69 -73.5t-51 -29.5q-20 0 -38.5 13.5t-32.5 33
t-22.5 41.5t-8.5 39q0 34 13 73.5t32.5 81.5t42 84.5t42 82t32.5 73.5t13 60q0 17 17.5 18t38 -11.5t38 -36.5t17.5 -56q0 -18 -18.5 -59t-45 -92.5t-55 -106.5t-49 -100.5t-27.5 -74.5t11 -29q9 0 28.5 18t45 47t55 67t58.5 77q69 92 150 210q22 47 37 81.5t15 47.5
q0 17 15 15t33.5 -16t33.5 -36t15 -45q0 -12 -17.5 -50t-42 -88t-50 -105.5t-42 -102t-18.5 -76.5t22 -30q23 0 50 25.5t55 64.5t55.5 87t50.5 93t40.5 81.5t25.5 53.5zM231 836q23 0 38 -14t15 -30q0 -14 -6.5 -29.5t-18.5 -28.5t-29 -21t-37 -8q-5 0 -13 2.5t-15 8
t-12 13.5t-5 20t8.5 27.5t21 28.5t27 22t26.5 9zM438 841q22 0 37.5 -14t15.5 -30q0 -14 -6.5 -29.5t-18.5 -28.5t-29 -21t-38 -8q-5 0 -12.5 2.5t-14.5 8t-12 13.5t-5 20t8 27.5t20.5 28.5t27 22t27.5 9z" />
    <glyph glyph-name="yacute" unicode="&#xfd;" horiz-adv-x="673" 
d="M672 455q4 8 10.5 11t12 1.5t8 -6.5t-1.5 -14q-19 -43 -55 -89t-84 -93.5t-105 -95.5t-118 -95q-46 -95 -98 -188t-105 -167t-103 -120t-91 -46q-43 0 -71 10t-44.5 25t-23 32t-6.5 31q0 27 27 61.5t73 74t107.5 84.5t129.5 94q42 78 80.5 159.5t70.5 156.5
q-31 -44 -68.5 -93.5t-73.5 -91t-66.5 -69t-48.5 -27.5q-20 0 -38.5 13.5t-32.5 33t-22.5 41.5t-8.5 39q0 34 13 74t32.5 82t42 85t42 82.5t32.5 73.5t13 60q0 15 17.5 15.5t38.5 -11.5t38.5 -35t17.5 -55q0 -14 -11 -41t-28 -62t-38 -75.5t-42 -80.5t-39 -77t-28.5 -65.5
t-11 -45.5t12.5 -17q10 0 32.5 21.5t51.5 55.5t62 77t64.5 86t58.5 81t45 64q23 59 36.5 96t13.5 43q0 25 8.5 34t21 7.5t27 -12t27 -26t21 -33t8.5 -32.5q0 -14 -10 -47t-27.5 -80.5t-42.5 -106.5t-55 -123q99 78 179.5 157t122.5 159zM-138 -365q24 0 51 19.5t56.5 53
t60 79.5t61.5 100q-52 -39 -97 -74t-78 -65t-51.5 -54.5t-18.5 -41.5t16 -17zM191 703q7 0 26.5 12t44.5 31.5t52.5 42.5t50 44.5t37 39.5t14.5 26q0 9 12.5 5t27.5 -14t27.5 -24.5t12.5 -26.5q0 -9 -15 -24.5t-39.5 -34t-55 -38t-60.5 -35t-57 -25.5t-44 -10q-15 0 -24 5
t-13 10.5t-3 10.5t6 5z" />
    <glyph glyph-name="ydieresis" unicode="&#xff;" horiz-adv-x="673" 
d="M672 455q4 8 10.5 11t12 1.5t8 -6.5t-1.5 -14q-19 -43 -55 -89t-84 -93.5t-105 -95.5t-118 -95q-46 -95 -98 -188t-105 -167t-103 -120t-91 -46q-43 0 -71 10t-44.5 25t-23 32t-6.5 31q0 27 27 61.5t73 74t107.5 84.5t129.5 94q42 78 80.5 159.5t70.5 156.5
q-31 -44 -68.5 -93.5t-73.5 -91t-66.5 -69t-48.5 -27.5q-20 0 -38.5 13.5t-32.5 33t-22.5 41.5t-8.5 39q0 34 13 74t32.5 82t42 85t42 82.5t32.5 73.5t13 60q0 15 17.5 15.5t38.5 -11.5t38.5 -35t17.5 -55q0 -14 -11 -41t-28 -62t-38 -75.5t-42 -80.5t-39 -77t-28.5 -65.5
t-11 -45.5t12.5 -17q10 0 32.5 21.5t51.5 55.5t62 77t64.5 86t58.5 81t45 64q23 59 36.5 96t13.5 43q0 25 8.5 34t21 7.5t27 -12t27 -26t21 -33t8.5 -32.5q0 -14 -10 -47t-27.5 -80.5t-42.5 -106.5t-55 -123q99 78 179.5 157t122.5 159zM-138 -365q24 0 51 19.5t56.5 53
t60 79.5t61.5 100q-52 -39 -97 -74t-78 -65t-51.5 -54.5t-18.5 -41.5t16 -17zM248 836q23 0 38 -14t15 -30q0 -14 -6.5 -29.5t-18.5 -28.5t-29 -21t-37 -8q-5 0 -13 2.5t-15 8t-12 13.5t-5 20t8.5 27.5t21 28.5t27 22t26.5 9zM455 841q22 0 37.5 -14t15.5 -30
q0 -14 -6.5 -29.5t-18.5 -28.5t-29 -21t-38 -8q-5 0 -12.5 2.5t-14.5 8t-12 13.5t-5 20t8 27.5t20.5 28.5t27 22t27.5 9z" />
    <glyph glyph-name="dotlessi" unicode="&#x131;" horiz-adv-x="376" 
d="M376 457q4 8 11 11t12 1.5t7.5 -6.5t-1.5 -14q-10 -21 -31.5 -62.5t-51 -91.5t-65.5 -102.5t-74.5 -95t-78.5 -70t-78 -27.5q-45 0 -73 33.5t-28 90.5q0 25 13 66t33 88t43 96.5t43 92t33 74t13 43.5q0 18 15 16t33.5 -16.5t33.5 -36.5t15 -45q0 -12 -17.5 -50t-42 -88.5
t-50.5 -106t-42.5 -102t-18 -77t22.5 -30.5q26 0 57.5 25.5t65 65t66 88t60 94t47.5 82.5t28 54z" />
    <glyph glyph-name="OE" unicode="&#x152;" horiz-adv-x="1647" 
d="M1838 1051q0 -30 -12.5 -63t-31.5 -66.5t-41 -67.5t-41 -66.5t-31.5 -63.5t-12.5 -58q0 -9 3 -19t5 -18.5t-0.5 -14t-12.5 -5.5q-15 0 -33 8t-33.5 22.5t-26 35t-10.5 45.5q0 44 26 97.5t58 109.5q-6 9 -22.5 16t-39.5 7q-61 0 -118.5 -18t-108.5 -47t-93 -66.5
t-72 -76.5t-47 -76t-17 -66v-11.5t2 -11.5q41 17 80 26.5t75 9.5q71 0 109.5 -18t56.5 -41.5t21 -45.5t3 -31q0 -17 -6 -27t-14 -15.5t-15.5 -7.5t-10.5 -2q-6 0 -8 3.5t-2 5.5q0 7 5 10t5 8q0 14 -23 28t-61 14q-63 0 -126 -20q22 -11 45 -19.5t45 -13.5t41 -7.5t33 -2.5
t22 1t8 -5q0 -5 -8.5 -12.5t-25.5 -7.5q-55 0 -112.5 10t-106.5 35q-56 -24 -107 -60t-95 -78t-79 -87.5t-60 -88.5t-38.5 -82t-13.5 -68q0 -78 32 -120.5t85 -57.5t120.5 -5.5t137.5 35.5t137.5 65t120.5 83.5t85 90.5t32 86q0 22 16.5 30.5t28.5 8.5q25 0 25 -19
q0 -49 -38.5 -104t-102 -108.5t-145.5 -100.5t-169.5 -78.5t-173 -44t-156 3t-119 64t-62.5 137.5q-87 -79 -184 -126t-200 -47q-81 0 -129.5 29.5t-71 80.5t-20.5 119t23 144.5t58 157t85 157t104.5 144.5t116 119t120 80.5t116.5 29.5q31 0 52.5 -17t31.5 -38t7 -38
t-21 -17q-11 0 -17 2t-18 2q-55 0 -115.5 -39.5t-119.5 -103.5t-113 -146.5t-95.5 -168t-66.5 -168t-27.5 -146.5t21.5 -103.5t82 -39.5t119 34t121.5 91.5t117.5 135t107 164t90.5 178.5t67.5 178.5t37.5 164t1 135t-42 91.5t-91.5 34q-68 0 -137.5 -21t-138 -57
t-133.5 -83t-123 -100t-106 -107.5t-82.5 -105t-54 -94t-19.5 -73.5q0 -26 3 -40.5t6 -23.5t6 -15.5t3 -16.5q0 -13 -12 -18t-30.5 -2t-40 14t-40 29.5t-30.5 45.5t-12 62q0 60 36 131t100.5 142t153.5 137t195 117t225.5 81.5t244.5 30.5q65 0 111 -22t75 -61t41.5 -93
t11.5 -118t-16 -135.5t-41 -145.5q24 17 47.5 31.5t47.5 27.5q-14 24 -21.5 53.5t-7.5 64.5q0 42 22.5 88t61 91t89 86t106 72t112.5 49.5t108 18.5q37 0 63 -8t43 -20.5t27.5 -27.5t15.5 -30q26 46 44 88.5t18 79.5q0 16 15.5 16.5t34.5 -12.5t34.5 -39t15.5 -63z" />
    <glyph glyph-name="oe" unicode="&#x153;" horiz-adv-x="938" 
d="M939 454q4 9 10.5 12t12 1.5t8 -7t-1.5 -14.5q-10 -21 -31.5 -62t-52.5 -91t-71.5 -101.5t-88.5 -94.5t-103.5 -70t-115.5 -27q-33 0 -60.5 10.5t-48.5 28.5t-36.5 41t-24.5 49q-45 -59 -97.5 -94t-109.5 -35q-32 0 -62 12.5t-53.5 37.5t-37.5 62t-14 86q0 47 17 97.5
t40.5 92.5t47 69t36.5 27t27.5 -3t28.5 -9q18 25 39 48t45 41t50 28.5t53 10.5q34 0 56.5 -7.5t35.5 -21.5t18 -33t5 -42v-6q55 50 121 79.5t135 29.5q39 0 56 -16.5t17 -44t-14.5 -63t-39 -73t-56.5 -73.5t-67.5 -65.5t-72 -49.5t-69.5 -24q-12 -57 -1.5 -95t51.5 -38
q50 0 98 24.5t92 63t82 85.5t68 91t50.5 80t28.5 53zM730 563q-32 0 -69 -31.5t-71.5 -80t-63.5 -107t-45 -113.5q35 8 74 35.5t74.5 64.5t65 78t45.5 75t15 56.5t-25 22.5zM131 42q48 0 90.5 30t77.5 78q-56 6 -104 36t-74 72q-18 -39 -31.5 -77.5t-16 -69t10 -50
t47.5 -19.5zM320 181q1 1 1 1.5t1 1.5q-1 7 -1.5 13.5t-0.5 13.5q0 63 26.5 123.5t71.5 112.5q5 45 -1 73.5t-26 28.5q-12 0 -36 -26.5t-49.5 -67t-46 -87.5t-24 -88t14.5 -69t70 -30z" />
    <glyph glyph-name="Scaron" unicode="&#x160;" horiz-adv-x="914" 
d="M632 137q0 22 -37 33.5t-98 18.5t-138.5 13.5t-158.5 18t-158.5 31.5t-138.5 54.5t-98 87.5t-37 130q0 59 37.5 130.5t103 144t155.5 140.5t194.5 120.5t219 84.5t230.5 32q58 0 108.5 -15t87.5 -46t58 -79t21 -113q0 -46 -25.5 -105.5t-67 -122.5t-93 -123.5t-104 -108
t-100.5 -76.5t-82 -29q-9 0 -22 9.5t-26 23.5t-23 30.5t-14.5 30.5t-1 23.5t19.5 9.5q15 0 53 26.5t85.5 69.5t99 97.5t94 111.5t70 111.5t27.5 96.5q0 36 -11 62.5t-30.5 44.5t-46 26.5t-57.5 8.5q-88 0 -168.5 -23t-152.5 -61.5t-134.5 -89.5t-114.5 -107t-92.5 -114
t-68.5 -110t-42.5 -94.5t-14.5 -69.5q0 -51 34.5 -83t91 -52.5t129 -31.5t148 -20t148 -18.5t129 -26t91 -43.5t34.5 -71q0 -46 -27.5 -94t-73.5 -92.5t-105.5 -83.5t-123 -68t-126.5 -46t-115 -17q-59 0 -94.5 26.5t-55 61t-26 67.5t-6.5 46t7 20t16 7t16 -7t7 -20
t2.5 -28.5t13 -28.5t32.5 -21.5t60 -8.5q29 0 76.5 16.5t101.5 42.5t109 59t99 66.5t72 63.5t28 51zM897 1450q-7 0 -24.5 -14t-40 -35t-46.5 -45t-45.5 -45t-37 -35t-19.5 -14q-6 0 -20.5 2t-29.5 7.5t-26 14t-11 22.5q0 24 -15 52.5t-33.5 53t-33.5 42t-15 20.5
q0 7 6.5 10.5t12.5 3.5q18 0 41.5 -22.5t44.5 -49.5q25 -32 51 -71q36 39 70 71q29 27 62.5 49.5t59.5 22.5q15 0 26.5 -6.5t18.5 -14t8.5 -13.5t-4.5 -6z" />
    <glyph glyph-name="scaron" unicode="&#x161;" horiz-adv-x="422" 
d="M423 453q4 8 10.5 11t11.5 1.5t7.5 -7t-1.5 -13.5q-9 -19 -26 -55t-42.5 -80t-58 -91.5t-73 -89.5t-88.5 -74.5t-103 -45.5h-3q-32 -8 -63 -8h-6q-51 0 -78.5 18.5t-38 40.5t-8.5 40.5t11 18.5q8 0 11.5 -11.5t9.5 -25t20 -24.5t43 -11q20 0 43 14t42 38t31.5 56.5
t12.5 69.5q0 28 -8.5 51.5t-20.5 46t-25 46t-23 50.5q-7 -15 -11.5 -24.5t-9 -19.5t-12 -23.5t-20.5 -36.5q-5 -8 -11 -10t-11 0.5t-7 8t2 12.5q16 29 26.5 48.5t17.5 34t11.5 25.5t10.5 23q1 2 3 4q-4 17 -4 40q0 42 15.5 77t38 60t46.5 39t42 14q9 0 22.5 -1.5t26 -6.5
t22 -14t9.5 -24t-13.5 -28.5t-30 -31t-30 -40t-13.5 -54.5q0 -41 13.5 -73t30 -62t30 -62t13.5 -71q0 -56 -19 -102q47 40 85 90t66 98t46.5 87t27.5 57zM419 944q-7 0 -24.5 -14t-40 -35t-46.5 -45t-45.5 -45t-37 -35t-19.5 -14q-6 0 -20.5 2t-29.5 7.5t-26 14t-11 22.5
q0 24 -15 52.5t-33.5 53t-33.5 42t-15 20.5q0 7 6.5 10.5t12.5 3.5q18 0 41.5 -22.5t44.5 -49.5q25 -32 51 -71q36 39 70 71q29 27 62.5 49.5t59.5 22.5q15 0 26.5 -6.5t18.5 -14t8.5 -13.5t-4.5 -6z" />
    <glyph glyph-name="Ydieresis" unicode="&#x178;" horiz-adv-x="884" 
d="M983 751q0 -28 -22.5 -73t-60 -104t-85 -130t-97 -150.5t-96.5 -165t-84.5 -174t-60 -178t-22.5 -175.5q0 -54 10 -88t17 -53.5t4.5 -26.5t-26.5 -7t-51 9.5t-49.5 32t-37.5 61t-15 96.5q0 70 18.5 146t52.5 159t81.5 174.5t105.5 192.5q-72 -86 -127.5 -167t-101.5 -144
t-87 -101t-85 -38h-2h-11q-41 0 -69.5 22.5t-46.5 57.5t-26.5 77t-8.5 82q0 88 22 174.5t55.5 166.5t72 151.5t72 129.5t55.5 100t22 64t1.5 37t23.5 15q20 0 37 -9t30 -25t20 -36.5t7 -44.5q0 -20 -20.5 -59.5t-51.5 -93.5t-66.5 -121.5t-66.5 -143.5t-51.5 -158
t-20.5 -165q0 -44 8.5 -84t19.5 -65q4 1 1 1t2 0q17 0 55.5 36.5t91 97.5t113.5 139.5t122 162.5t118 166.5t100.5 152t70 119t26.5 66.5t3.5 28.5t27.5 11.5q15 0 30 -8.5t27 -26.5t19 -46t7 -68zM556 1034q23 0 38 -14t15 -30q0 -14 -6.5 -29.5t-18.5 -28.5t-29 -21
t-37 -8q-5 0 -13 2.5t-15 8t-12 13.5t-5 20t8.5 27.5t21 28.5t27 22t26.5 9zM763 1039q22 0 37.5 -14t15.5 -30q0 -14 -6.5 -29.5t-18.5 -28.5t-29 -21t-38 -8q-5 0 -12.5 2.5t-14.5 8t-12 13.5t-5 20t8 27.5t20.5 28.5t27 22t27.5 9z" />
    <glyph glyph-name="Zcaron" unicode="&#x17d;" horiz-adv-x="745" 
d="M958 -108q90 -45 144 -100t82.5 -108.5t35.5 -100t1 -74.5q-4 -20 -15 -32t-25 -5q-10 5 -11.5 13t1 17t6.5 18t6 15q4 21 -0.5 49t-19.5 56.5t-39.5 54.5t-58.5 43q-130 65 -249.5 93.5t-224.5 34t-194.5 -4.5t-160 -21.5t-121.5 -17.5t-78 8q-8 4 -19 15q-23 20 -35 51
t-14 66t4.5 70.5t20.5 65.5q38 81 103.5 156.5t146 144t169.5 129.5t173 114t157 97.5t122 80.5q-73 15 -146 22t-141.5 9t-128.5 0t-105.5 -4.5t-74 -5t-33.5 -0.5q-11 3 -13.5 10t-0.5 16q4 18 41 34t94.5 27.5t128.5 18.5t143.5 8.5t139.5 -4.5t117 -20q8 -2 13 -5
q8 12 22 4q15 -8 27.5 -24.5t20.5 -37t9.5 -42.5t-7.5 -41q-6 -12 -39.5 -36.5t-86.5 -59.5t-120.5 -79.5t-141 -97t-147.5 -111.5t-140.5 -123t-120.5 -132t-86 -138q-5 -10 -8 -19l-6 -18q43 2 106.5 7t138 7.5t158 1.5t167 -10.5t163.5 -29.5t150 -55zM902 1215
q-7 0 -24.5 -14t-40 -35t-46.5 -45t-45.5 -45t-37 -35t-19.5 -14q-6 0 -20.5 2t-29.5 7.5t-26 14t-11 22.5q0 24 -15 52.5t-33.5 53t-33.5 42t-15 20.5q0 7 6.5 10.5t12.5 3.5q18 0 41.5 -22.5t44.5 -49.5q25 -32 51 -71q36 39 70 71q29 27 62.5 49.5t59.5 22.5
q15 0 26.5 -6.5t18.5 -14t8.5 -13.5t-4.5 -6z" />
    <glyph glyph-name="zcaron" unicode="&#x17e;" horiz-adv-x="524" 
d="M526 455q4 8 10.5 11t12 1.5t8 -6.5t-1.5 -14q-18 -42 -51 -87t-75 -91.5t-92 -93.5t-103 -93q11 -31 11 -82q0 -23 -13 -65.5t-37 -92t-57 -101t-73 -93.5t-86 -68.5t-95 -26.5q-42 0 -70 10t-44.5 25t-23 32t-6.5 31q0 32 33 74t87.5 92t125 106.5t144.5 117.5
q2 6 2 10.5v9.5q0 34 -14.5 34.5t-35 -14.5t-42.5 -37t-37 -35q-9 -9 -11 -9h-4h-1q-5 0 -6 1q-12 2 -25 9t-23.5 16.5t-17 21.5t-6.5 24q0 10 7 28.5t18.5 41.5t26.5 49t31 52q36 60 83 130q-29 13 -51 33q-19 17 -34.5 45.5t-15.5 71.5q0 31 7 61.5t18 55t24.5 39.5
t27.5 15t33 -2.5t36 -8.5t28.5 -15.5t11.5 -24.5q0 -14 -11 -34.5t-24.5 -44t-24.5 -49.5t-11 -52q0 -36 15 -56t33 -32t33 -21t15 -23q0 -15 -9.5 -40t-25.5 -55.5t-35.5 -63t-38.5 -62.5q20 14 39.5 23t35.5 9q17 0 34.5 -5.5t31.5 -23.5q48 41 94 83.5t86.5 85.5t73 86.5
t55.5 86.5zM-196 -365q35 0 69 16.5t64.5 43.5t58 62.5t50 74t40 76.5t28.5 71q-65 -54 -124 -103.5t-104 -92t-71.5 -76t-26.5 -55.5q0 -17 16 -17zM372 956q-7 0 -24.5 -14t-40 -35t-46.5 -45t-45.5 -45t-37 -35t-19.5 -14q-6 0 -20.5 2t-29.5 7.5t-26 14t-11 22.5
q0 24 -15 52.5t-33.5 53t-33.5 42t-15 20.5q0 7 6.5 10.5t12.5 3.5q18 0 41.5 -22.5t44.5 -49.5q25 -32 51 -71q36 39 70 71q29 27 62.5 49.5t59.5 22.5q15 0 26.5 -6.5t18.5 -14t8.5 -13.5t-4.5 -6z" />
    <glyph glyph-name="circumflex" unicode="&#x2c6;" horiz-adv-x="681" 
d="M170 698q7 0 24.5 13.5t39 34.5t45.5 44.5t45 44.5t36 34.5t19 13.5q6 0 20.5 -2t29 -7.5t25.5 -14t11 -21.5q0 -24 15 -51.5t32.5 -52t32.5 -42t15 -20.5q0 -6 -6.5 -9.5t-11.5 -3.5q-18 0 -41.5 22t-44.5 48q-25 31 -49 71q-35 -40 -69 -71q-15 -13 -30.5 -25.5
t-31 -22.5t-30.5 -16t-27 -6q-15 0 -26.5 6t-18.5 13.5t-8.5 13.5t4.5 6z" />
    <glyph glyph-name="caron" unicode="&#x2c7;" horiz-adv-x="587" 
d="M529 802q-7 0 -24.5 -14t-40 -35t-46.5 -45t-45.5 -45t-37 -35t-19.5 -14q-6 0 -20.5 2t-29.5 7.5t-26 14t-11 22.5q0 24 -15 52.5t-33.5 53t-33.5 42t-15 20.5q0 7 6.5 10.5t12.5 3.5q18 0 41.5 -22.5t44.5 -49.5q25 -32 51 -71q36 39 70 71q29 27 62.5 49.5t59.5 22.5
q15 0 26.5 -6.5t18.5 -14t8.5 -13.5t-4.5 -6z" />
    <glyph glyph-name="ring" unicode="&#x2da;" horiz-adv-x="637" 
d="M366 930q19 0 36.5 -7t30 -18.5t20 -25.5t7.5 -29q0 -25 -11.5 -52t-32.5 -49.5t-50.5 -37t-65.5 -14.5q-9 0 -22.5 4.5t-26 14.5t-21.5 24.5t-9 35.5t14.5 47.5t36 50.5t47 40t47.5 16zM283 730q22 0 42.5 13t36.5 32t26 41.5t10 41.5t-9 19q-13 0 -32.5 -15.5
t-37.5 -36.5t-31 -43.5t-13 -36.5q0 -5 1.5 -10t6.5 -5z" />
    <glyph glyph-name="tilde" unicode="&#x2dc;" horiz-adv-x="677" 
d="M224 707q-14 0 -21 16.5t-2.5 36t24.5 36t60 16.5q18 0 43 -4.5t51 -10t49 -10t37 -4.5q16 0 24.5 3.5t12.5 8t6 8.5t5 4q7 0 12.5 -18t5.5 -42q0 -23 -17.5 -34t-45.5 -11q-16 0 -40 5t-52 11.5t-58.5 11.5t-58.5 5q-13 0 -20 -4.5t-10 -9.5q-4 -6 -5 -14z" />
    <glyph glyph-name="endash" unicode="&#x2013;" horiz-adv-x="538" 
d="M112 394q25 0 62.5 1t77 2.5t75 3t56.5 1.5q20 0 38 -10.5t29 -22.5t13 -22.5t-9 -10.5h-12t-8.5 0.5t-11 0.5h-17.5q-20 0 -49.5 0.5t-63 0.5t-67 0.5t-61.5 0.5q-27 0 -47.5 8.5t-32.5 19t-14 19t8 8.5h34z" />
    <glyph glyph-name="emdash" unicode="&#x2014;" horiz-adv-x="722" 
d="M112 394q16 0 54 0.5t85.5 1.5t100.5 2t100 2t82.5 1.5t49.5 0.5q20 0 38 -10.5t29 -22.5t13 -22.5t-9 -10.5h-12t-8.5 0.5t-11 0.5h-17.5h-45.5t-75.5 0.5t-91.5 0.5t-93.5 0.5t-81.5 0.5h-54.5q-27 0 -47.5 8.5t-32.5 19t-14 19t8 8.5h34z" />
    <glyph glyph-name="quoteleft" unicode="&#x2018;" horiz-adv-x="224" 
d="M92 902q0 12 12 10.5t27 -13t27 -30t12 -40.5q0 -12 -12 -37t-27 -53t-27 -55t-12 -45q0 -10 -14.5 -10t-31.5 7.5t-31.5 21.5t-14.5 32q0 11 14.5 37t31.5 57.5t31.5 63t14.5 54.5z" />
    <glyph glyph-name="quoteright" unicode="&#x2019;" horiz-adv-x="224" 
d="M88 646q0 -12 -12 -10.5t-27 13t-27 30t-12 40.5q0 12 12 37t27 53t27 55t12 45q0 10 14.5 10t31.5 -7.5t31.5 -21.5t14.5 -32q0 -11 -14.5 -37t-31.5 -57.5t-31.5 -63.5t-14.5 -54z" />
    <glyph glyph-name="quotesinglbase" unicode="&#x201a;" horiz-adv-x="299" 
d="M52 48q0 25 16.5 29t36.5 -4.5t36.5 -24t16.5 -28.5q0 -30 -17 -59.5t-43 -54t-56 -42.5t-56 -25t-43 -1t-17 29q0 7 19.5 21t43.5 36.5t43.5 53t19.5 70.5z" />
    <glyph glyph-name="quotedblleft" unicode="&#x201c;" horiz-adv-x="382" 
d="M92 902q0 12 12 10.5t27 -13t27 -30t12 -40.5q0 -12 -12 -37t-27 -53t-27 -55t-12 -45q0 -10 -14.5 -10t-31.5 7.5t-31.5 21.5t-14.5 32q0 11 14.5 37t31.5 57.5t31.5 63t14.5 54.5zM255 876q0 12 13 11t28.5 -12.5t28.5 -32t13 -45.5q0 -9 -14 -30t-30.5 -46t-30 -50
t-13.5 -43q0 -10 -13.5 -10.5t-29 6t-29 19t-13.5 30.5q0 11 14 38t31 58t31 60.5t14 46.5z" />
    <glyph glyph-name="quotedblright" unicode="&#x201d;" horiz-adv-x="382" 
d="M246 616q0 -12 -12 -10.5t-27 13t-27 30t-12 40.5q0 12 12 37t27 53t27 55t12 45q0 10 14.5 10t31.5 -7.5t31.5 -21.5t14.5 -32q0 -11 -14.5 -37t-31.5 -57.5t-31.5 -63.5t-14.5 -54zM83 642q0 -12 -13 -11t-28.5 12.5t-28.5 31.5t-13 46q0 9 13.5 30t30 46t30.5 50
t14 43q0 10 13.5 10.5t29 -6t29 -19t13.5 -30.5q0 -11 -14 -38t-31 -58t-31 -61t-14 -46z" />
    <glyph glyph-name="quotedblbase" unicode="&#x201e;" horiz-adv-x="439" 
d="M52 48q0 25 16.5 29t36.5 -4.5t36.5 -24t16.5 -28.5q0 -30 -17 -59.5t-43 -54t-56 -42.5t-56 -25t-43 -1t-17 29q0 7 19.5 21t43.5 36.5t43.5 53t19.5 70.5zM269 48q0 25 16.5 29t36.5 -4.5t36.5 -24t16.5 -28.5q0 -30 -17 -59.5t-43 -54t-56 -42.5t-56 -25t-43 -1
t-17 29q0 7 19.5 21t43.5 36.5t43.5 53t19.5 70.5z" />
    <glyph glyph-name="bullet" unicode="&#x2022;" horiz-adv-x="389" 
d="M137 490q45 0 71.5 -15.5t26.5 -37.5q9 -11 16 -22q6 -10 11 -23t5 -27t-12 -33.5t-31 -36.5t-42 -29t-45 -12q-21 0 -42 9t-37.5 23t-26.5 31.5t-10 35.5t8.5 41.5t24 45t36.5 36t47 14.5z" />
    <glyph glyph-name="ellipsis" unicode="&#x2026;" horiz-adv-x="570" 
d="M59 -1q-6 0 -16 2.5t-19.5 8t-16.5 14t-7 20.5t4.5 25.5t11.5 25.5t15 20t14 8q21 0 38 -15t17 -31q0 -8 -4.5 -21t-11 -26t-13.5 -22t-12 -9zM246 -1q-6 0 -16 2.5t-19.5 8t-16.5 14t-7 20.5t4.5 25.5t11.5 25.5t15 20t14 8q21 0 38 -15t17 -31q0 -8 -4.5 -21t-11 -26
t-13.5 -22t-12 -9zM434 -1q-6 0 -16 2.5t-19.5 8t-16.5 14t-7 20.5t4.5 25.5t11.5 25.5t15 20t14 8q21 0 38 -15t17 -31q0 -8 -4.5 -21t-11 -26t-13.5 -22t-12 -9z" />
    <glyph glyph-name="perthousand" unicode="&#x2030;" horiz-adv-x="762" 
d="M141 555q-9 0 -22 4.5t-24.5 13.5t-20 23t-8.5 34q0 19 13.5 44t34 47.5t44.5 37.5t44 15q18 0 34.5 -6.5t28.5 -17.5t19 -24.5t7 -26.5q0 -23 -11 -48.5t-30.5 -46.5t-47 -35t-61.5 -14zM224 725q-12 0 -30 -14.5t-35.5 -34.5t-29.5 -41t-12 -34q0 -5 1 -9.5t6 -4.5
q21 0 40.5 12t34.5 30t24 38.5t9 38.5q0 19 -8 19zM524 709q0 -20 -31.5 -63.5t-79 -100t-102.5 -121t-102.5 -127t-79 -117.5t-31.5 -93q0 -24 7.5 -43.5t13 -33t3.5 -20.5t-21 -7q-15 0 -32.5 11.5t-33 31t-25.5 44.5t-10 53q0 43 32.5 101t81.5 123t105.5 132.5
t105.5 129.5t81.5 114t32.5 86q0 14 13.5 9.5t29 -20t29 -39.5t13.5 -50zM316 261q18 0 34.5 -6.5t28.5 -17.5t19 -24.5t7 -26.5q0 -23 -11 -48.5t-31 -46.5t-47.5 -35t-61.5 -14q-9 0 -21.5 4.5t-24 13.5t-20 23t-8.5 34q0 19 13.5 44t34 47.5t44.5 37.5t44 15zM238 74
q20 0 39.5 12t34.5 30t24.5 38.5t9.5 38.5t-8 18q-12 0 -30 -14.5t-35.5 -34.5t-29.5 -41t-12 -34q0 -4 1 -8.5t6 -4.5zM600 261q18 0 34.5 -6.5t28.5 -17.5t19 -24.5t7 -26.5q0 -23 -11 -48.5t-31 -46.5t-47.5 -35t-61.5 -14q-9 0 -21.5 4.5t-24 13.5t-20 23t-8.5 34
q0 19 13.5 44t34 47.5t44.5 37.5t44 15zM522 74q20 0 39.5 12t34.5 30t24.5 38.5t9.5 38.5t-8 18q-12 0 -30 -14.5t-35.5 -34.5t-29.5 -41t-12 -34q0 -4 1 -8.5t6 -4.5z" />
    <glyph glyph-name="guilsinglleft" unicode="&#x2039;" horiz-adv-x="470" 
d="M337 580q0 11 12 7t27 -16.5t27 -30t12 -32.5q0 -8 -14 -23.5t-37 -36.5t-52.5 -45t-60.5 -48q-72 -56 -164 -123q55 -28 98 -52q18 -11 36 -21.5t32 -20t22.5 -17t8.5 -12.5q0 -9 -4.5 -13.5t-11.5 -4.5t-14 3t-13 9q-10 10 -32 23t-49 28t-56 32t-53 34t-39.5 34.5
t-15.5 33.5q0 11 25.5 32.5t63 48.5t82 57t82 59t63 54t25.5 41z" />
    <glyph glyph-name="guilsinglright" unicode="&#x203a;" horiz-adv-x="470" 
d="M4 149q0 3 13 14t35 27.5t50 37t57 41.5q69 49 156 110q-8 7 -29 32t-45.5 55t-47 59.5t-34.5 44.5q-5 6 -1.5 12t10 8.5t14.5 1t13 -8.5q3 -5 20 -23.5t40.5 -44t50 -54.5t49 -56t37 -48t14.5 -30q0 -8 -17 -22.5t-44.5 -34.5t-63 -43t-72 -49t-71 -52.5t-60.5 -52.5
q-7 -7 -19.5 1.5t-24.5 22.5t-21 29.5t-9 22.5z" />
    <glyph glyph-name="fraction" unicode="&#x2044;" horiz-adv-x="420" 
d="M80 -54q0 -14 -13 -11t-28 17.5t-28 37t-13 47.5q0 19 16 59.5t41.5 96t58.5 121t67.5 135t68 138t59 129t41.5 110t16 79.5q0 14 16.5 11t36 -17t36 -36.5t16.5 -47.5q0 -16 -17 -55t-44.5 -93.5t-62.5 -121t-71.5 -136.5t-71.5 -139.5t-62.5 -131.5t-44.5 -112t-17 -80
z" />
    <glyph glyph-name="Euro" unicode="&#x20ac;" horiz-adv-x="758" 
d="M784 763q0 -11 -3 -23q-2 -5 -2.5 -9t-2.5 -8q-9 -23 -23.5 -46t-28.5 -45.5t-24 -43.5t-10 -39q0 -10 4 -21t-7 -11q-9 0 -19 4.5t-18.5 12.5t-14.5 19.5t-6 25.5q0 25 17 56.5t37 63.5t37 63t17 57q-15 13 -34 13q-30 0 -72.5 -21.5t-90.5 -59t-98.5 -88t-96.5 -109.5
q17 -1 31 -1.5t25 -0.5q13 0 21.5 2t13.5 5t7.5 5t4.5 2q7 0 9.5 -11.5t0 -25t-10.5 -25t-22 -11.5l-125 -1q-9 -13 -17.5 -26t-16.5 -27q22 -1 40 -1h30q13 0 21.5 1t13.5 2.5t7.5 3t4.5 1.5q7 0 8.5 -10t-2.5 -22t-13 -22t-22 -10h-64t-56 -1q-30 -60 -48 -120.5
t-18 -117.5q0 -17 3.5 -35t12.5 -33t25.5 -24.5t42.5 -9.5q40 0 77 16.5t69.5 41.5t59.5 54t46.5 54t31 41.5t12.5 16.5q4 0 10 -6.5t6 -14.5t-12.5 -29t-34 -48.5t-50.5 -56.5t-63.5 -53.5t-72 -40.5t-75.5 -16q-10 0 -28 1t-39.5 6.5t-43 18.5t-39.5 36t-29.5 58.5
t-11.5 87.5q-1 35 11 78.5t33 91.5q-65 -3 -71 -3q-17 0 -24.5 -4.5t-12.5 -4.5q-7 0 -7.5 13.5t5.5 30t19.5 29t33.5 11.5q23 -2 45.5 -3t44.5 -3q6 11 12.5 23t14.5 23l-88 -1q-5 0 -7.5 -2t-7.5 -2q-7 0 -7.5 13.5t5.5 30t19.5 29.5t33.5 12q25 -2 49.5 -4t48.5 -4
q44 63 95 120.5t104.5 101.5t106 70t99.5 26q50 0 82 -11t50.5 -28t25 -37t6.5 -39v-2z" />
    <glyph glyph-name="trademark" unicode="&#x2122;" horiz-adv-x="582" 
d="M208 827q22 0 38.5 -8.5t26 -18t10.5 -18t-9 -8.5t-25 1.5t-29.5 2.5t-24.5 0.5t-10 -4.5q-29 -50 -52 -92q-10 -18 -19 -36t-16 -33t-11.5 -26.5t-4.5 -15.5q0 -9 -6.5 -7t-15 9t-15 16.5t-6.5 15.5q0 3 3.5 11.5t9.5 21t14 27.5l16 30q18 35 43 79q-5 -1 -11 -1h-23
q-13 0 -28 6.5t-26.5 14.5t-16 14.5t3.5 6.5q3 0 24 2t49.5 4t59 4t51.5 2zM476 826q11 0 24.5 -7.5t13.5 -14.5q0 -3 -7.5 -20.5t-19.5 -42.5t-25 -54.5t-25 -55.5t-19.5 -45.5t-7.5 -24.5q0 -8 -6 -5.5t-13.5 10t-13.5 17.5t-6 16t5.5 21t13.5 31q8 18 19 41
q-13 -10 -24 -17q-9 -7 -17.5 -12t-11.5 -5q-4 0 -9 5.5t-10 12.5q-6 8 -13 19q-18 -32 -31 -58q-11 -23 -20.5 -44t-9.5 -29t-6.5 -5t-14.5 11t-14.5 17t-6.5 12t8 20.5t19.5 42t25.5 52.5t26.5 52t21.5 40t11 18q3 3 8 2t10 -3.5t10 -6t8 -6.5t3.5 -16.5t0.5 -28
t0.5 -26.5t3.5 -12t17 15.5t30.5 34t31.5 34t20 15.5z" />
    <glyph glyph-name="minus" unicode="&#x2212;" horiz-adv-x="538" 
d="M112 394q25 0 62.5 1t77 2.5t75 3t56.5 1.5q20 0 38 -10.5t29 -22.5t13 -22.5t-9 -10.5h-12t-8.5 0.5t-11 0.5h-17.5q-20 0 -49.5 0.5t-63 0.5t-67 0.5t-61.5 0.5q-27 0 -47.5 8.5t-32.5 19t-14 19t8 8.5h34z" />
    <glyph glyph-name="fi" unicode="&#xfb01;" horiz-adv-x="707" 
d="M616 749q-4 -26 -30 -48t-75 -38.5t-122.5 -26t-172.5 -9.5q-39 -98 -80.5 -204t-85.5 -208t-90 -193.5t-92.5 -161t-93.5 -110t-93 -40.5q-14 0 -22 4t-9.5 9.5t4 9.5t18.5 4q25 0 52 39t57.5 106t63.5 156t70 188.5t77 203.5t85 202q-75 6 -133.5 18t-98.5 25.5t-61 26
t-21 19.5q0 13 17 11.5t56.5 -10t104.5 -19.5t162 -17q33 67 70 134t76 119.5t78.5 85.5t76.5 33q28 0 43.5 -11.5t21 -26t1 -26t-14.5 -11.5q-11 0 -13.5 7.5t-4 16.5t-5.5 16.5t-17 7.5q-12 0 -32 -31t-43.5 -80.5t-49.5 -111.5t-51 -125q84 0 144.5 8.5t103.5 20.5
q-8 8 -7.5 27t7 38.5t19 34.5t27.5 15q16 0 31 -4.5t27 -13.5t19 -22t7 -29q0 -1 -0.5 -1.5t-0.5 -1.5v-6zM709 460q4 8 11 11t12 1.5t7.5 -6.5t-1.5 -14q-10 -21 -31.5 -62.5t-51 -91.5t-65.5 -102.5t-74.5 -95t-78.5 -70t-78 -27.5q-45 0 -73 33.5t-28 90.5q0 25 13 66
t33 88t43 96.5t43 92t33 74t13 43.5q0 18 15 16t33.5 -16.5t33.5 -36.5t15 -45q0 -12 -17.5 -50t-42 -88.5t-50.5 -106t-42.5 -102t-18 -77t22.5 -30.5q26 0 57.5 25.5t65 65t66 88t60 94t47.5 82.5t28 54z" />
    <glyph glyph-name="fl" unicode="&#xfb02;" horiz-adv-x="717" 
d="M546 899q0 15 -4.5 33t-13.5 34.5t-23 27.5t-33 11q-20 0 -40.5 -15t-41.5 -40t-41 -56t-38 -64q-42 -77 -84 -175q39 0 72.5 4t58.5 7.5t39 3.5t14 -7q0 -8 -14 -19t-40.5 -21t-65 -17t-87.5 -7q-39 -98 -79.5 -202t-83 -202.5t-86.5 -187t-89.5 -154.5t-91.5 -104.5
t-92 -38.5q-14 0 -22 4t-9.5 9.5t4 9.5t18.5 4q25 0 51 37t55 101t60.5 149t67 181.5t74.5 198.5t84 200q-75 6 -133.5 18t-98.5 25.5t-61 26t-21 19.5q0 13 17 11.5t56.5 -10t104.5 -19.5t162 -17q47 105 106 189q25 35 54.5 69t63.5 60.5t72 43t79 16.5q57 0 94 -20
t59 -48.5t30 -60t8 -53.5q0 -28 -15.5 -76.5t-40 -110t-55 -130t-59.5 -136.5t-53.5 -130t-38.5 -109.5t-13.5 -75.5t22.5 -28t51 24t61.5 62t64.5 83.5t59.5 89t48 79t29.5 52.5q4 9 10.5 12t12 1.5t8 -7t-1.5 -14.5q-10 -21 -32.5 -62t-54 -90t-68.5 -100t-76 -93
t-77.5 -69t-72.5 -27q-44 0 -72 33.5t-28 90.5q0 30 20.5 88.5t52 132t67.5 155t67.5 158t52 140.5t20.5 102z" />
    <glyph glyph-name="e.001" horiz-adv-x="588" 
d="M637 423q35 0 58 -23.5t32.5 -62.5t4.5 -88.5t-25.5 -101t-57.5 -101t-91.5 -88.5t-126.5 -62.5t-164 -23.5q-65 0 -119.5 30.5t-93.5 79.5t-61 109.5t-22 120.5q0 71 31 140.5t83 124.5t119.5 89t140.5 34v-1q50 0 64.5 -27t3.5 -68.5t-42.5 -91t-73.5 -94.5t-89.5 -79
t-91.5 -45q-9 -55 -7 -106t19 -90.5t51 -63t88 -23.5q81 0 145 35t111.5 87.5t78.5 113.5t45.5 113.5t12.5 87.5t-20 35q-9 0 -15 6t-6.5 13.5t3.5 14t15 6.5zM358 563q-34 0 -69.5 -28t-67 -74t-56.5 -105t-40 -120q35 12 72 41t71 65t61 75.5t41.5 71.5t13 53t-25.5 21z
" />
    <glyph glyph-name="R.001" horiz-adv-x="892" 
d="M1281 -407q10 0 10 -20.5t-16.5 -45.5t-53 -45.5t-98.5 -20.5q-38 0 -88.5 24.5t-107 66.5t-118 98t-121.5 118.5t-117 128.5t-106 127.5t-87.5 116t-60.5 94.5q-37 -80 -62.5 -158.5t-25.5 -146.5q0 -41 11.5 -72.5t19.5 -53.5t4 -33t-35 -11t-56 17t-42.5 44t-27 59.5
t-9.5 63.5q0 38 8 80.5t22 87.5t33 92t41 93q-27 10 -47 25.5t-33 33t-18.5 35.5t-5.5 32q0 28 16.5 51.5t44 34t62.5 4t72 -37.5q27 47 51 87t42 70.5t29 49t11 22.5q0 17 1 28.5t18 11.5q15 0 32 -7t31 -19.5t23.5 -28.5t9.5 -34q0 -11 -13 -37.5t-35 -64.5l-49.5 -85.5
t-55.5 -100.5q2 -3 5 -6.5t6 -8.5q79 20 155.5 59.5t143.5 91t121.5 111t89.5 118t47 113t-5 96t-66.5 66.5t-137.5 25q-97 0 -188 -25.5t-173.5 -68t-155.5 -99t-134 -118.5t-110 -126t-82.5 -121.5t-51.5 -105t-18 -76.5q0 -26 8 -38.5t20.5 -17t27 -3.5t27 2t20.5 -1
t8 -11q0 -10 -18 -18t-45.5 -11t-59 2t-59 22t-45.5 49t-18 83q0 66 40 145t111.5 159t168.5 155.5t211 134t239.5 93.5t254.5 35q136 0 221 -29t125.5 -77t40 -110.5t-33.5 -129.5t-95 -134.5t-146 -125.5t-186 -102t-215 -64q41 -57 97.5 -135.5t123 -162.5t139 -166
t144.5 -146.5t140.5 -104.5t126.5 -40q28 0 40 7.5t17 16.5t7.5 16.5t13.5 7.5zM234 371q-14 13 -29 27t-28 23t-21.5 10t-8.5 -11q0 -11 3 -22.5t11 -22.5t22 -20t36 -14z" />
    <glyph glyph-name="d.001" horiz-adv-x="727" 
d="M361 -65q9 -10 9 -16.5t-5 -10.5t-12.5 -5t-11.5 1q-21 6 -35.5 19t-23.5 30t-13.5 36.5t-5.5 38.5q-3 45 8 97q-24 -36 -50 -63q-23 -23 -52 -42.5t-61 -19.5q-36 0 -64 17t-47 44t-28.5 60.5t-9.5 67.5q0 44 14.5 91t40.5 92.5t61 86.5t75.5 72t85 49t89.5 18
q28 0 48 -6.5t33 -17t19.5 -23.5t9.5 -27q34 74 63.5 144t51.5 126t34.5 92t12.5 43q0 15 16.5 12t36 -14.5t36 -28.5t16.5 -31q0 -22 -17 -71t-44.5 -114.5t-62 -142.5t-69 -156t-66.5 -153.5t-54 -136t-30.5 -103.5t2.5 -55zM123 40q24 0 55.5 33t67.5 88.5t74 127.5
t75 149q-12 1 -22 4.5t-8 6.5q1 3 6.5 16.5t8 28.5t-1.5 27t-20 12q-35 0 -75.5 -36.5t-78 -91.5t-68 -118.5t-45 -118.5t-8.5 -91.5t40 -36.5zM536 1037q70 0 112.5 -21.5t63 -47.5t21 -47.5t-12.5 -21.5q-7 0 -15 13t-26 28.5t-51 28.5t-90 13q-49 0 -122.5 -26.5
t-171 -58.5t-217 -58.5t-260.5 -26.5q-61 0 -105.5 14.5t-74.5 35.5t-46 46.5t-20.5 46.5t1 35.5t19.5 14.5q13 0 18.5 -6t11.5 -15t15.5 -19t31.5 -19t59.5 -15t98.5 -6q118 0 228.5 17.5t208 38.5t179.5 38.5t144 17.5z" />
    <glyph glyph-name="k.001" horiz-adv-x="559" 
d="M758 -162q0 -1 -0.5 -1t-0.5 -1t0.5 -1t0.5 -1q0 -17 -18 -37t-50.5 -37.5t-77 -29.5t-97.5 -12q-48 0 -98 23.5t-99 64.5q-68 -31 -144.5 -67.5t-172.5 -67.5t-216.5 -52t-274.5 -21q-82 0 -146 20t-111.5 49.5t-78.5 64t-46 64t-15 49.5t15 20t27 -10.5t28.5 -26
t40 -34t60 -34t89 -26t126.5 -10.5q136 0 246 14t200.5 35.5t164.5 47.5t139 50q-41 45 -76.5 96.5t-61.5 104t-40.5 102.5t-14.5 92q-33 -69 -54 -122.5t-21 -81.5q0 -10 3.5 -21t5 -20t-1 -15t-13.5 -6q-17 0 -35.5 8.5t-33.5 24.5t-24.5 38.5t-9.5 49.5q0 34 24 97
t60 141t77.5 163.5t77.5 163.5t60 141t24 96q0 18 18 16t39 -16t39 -36.5t18 -44.5q0 -26 -15 -69t-39 -97.5t-54.5 -116t-61.5 -124.5q30 26 63.5 55t64 53t54 40t32.5 16q5 0 11 -2q13 -3 26 -11.5t23 -21t16.5 -29t6.5 -35.5q0 -44 -31 -88t-78.5 -80.5t-104.5 -61
t-109 -29.5q4 -47 25 -94t52 -90.5t70.5 -82t81.5 -69.5q57 19 111 31t113 12q53 0 90 -11.5t59.5 -28.5t32.5 -36t10 -34zM96 338q36 3 71.5 20t67 40.5t57 50t42 49.5t22 39.5t-2.5 19.5q-8 -5 -37 -27t-67.5 -53t-80 -67.5t-72.5 -71.5zM427 -150q37 -20 69.5 -30.5
t57.5 -10.5q53 0 96 5t66 21q-5 7 -14.5 14t-25.5 13t-41 10t-62 4q-38 0 -74 -7t-72 -19z" />
    <glyph glyph-name="hyphen.001" horiz-adv-x="618" 
d="M578 426q1 -1 0 -5q-2 -9 -7 -22q-2 -8 -5.5 -16.5t-7.5 -17.5q-8 -20 -18 -38q-5 -10 -10.5 -19.5t-11.5 -17.5t-12.5 -15t-13.5 -13q-14 -12 -28 -14q-7 -2 -14 1q-4 1 -7.5 3t-7.5 4q-8 5 -14 14q-3 4 -4.5 9t-3.5 11v11q-6 -17 -14 -31q-8 -15 -20 -27
q-9 -11 -21 -13q-5 -1 -13 2q-3 2 -6 3.5t-6 4.5t-5.5 6t-4.5 6q-5 8 -6 14q-1 5 -0.5 11t1.5 14q2 8 3.5 16.5t4.5 18.5q-9 -17 -18 -36q-5 -10 -10 -19l-10 -18q-5 -8 -9.5 -15.5t-9.5 -12.5q-11 -13 -16 -13q-6 -1 -14 2q-3 2 -6.5 4.5t-6.5 4.5q-2 3 -4.5 6t-4.5 7
q-5 8 -6 13q-2 12 1 25q1 5 1.5 10.5t2.5 11.5q-3 -5 -6 -8.5t-6 -7.5q-9 -10 -21 -19q-14 -10 -27 -13q-11 -26 -28 -43q-16 -18 -38 -21q-11 -2 -22 1q-5 1 -10 3.5t-10 5.5q-9 7 -16 19q-3 6 -5.5 13t-4.5 15q-2 18 1 34q1 16 8 33q5 14 12 26q6 11 11 11q2 1 9 1
q2 0 5 -0.5t5 -0.5q2 5 5 9t5 9q3 5 6.5 8.5t6.5 7.5l7.5 7.5t7.5 5.5q9 4 18 6q10 3 19 1q10 -2 13 -5q5 -4 8 -10q4 -8 4 -14q5 -29 2 -55q-5 -31 -13 -54q11 6 20 14q10 9 17 18l15 21q3 5 6 10.5t5 10.5q2 3 3.5 6.5t3.5 6.5q1 5 2 8.5t3 7.5q2 8 3.5 14.5t2.5 12.5
q3 11 1 21q0 6 5 7t14 -2q9 -4 14 -10q7 -7 10 -18q0 -6 -3 -21q-2 -8 -4.5 -16t-5.5 -17q-3 -10 -6 -19.5t-7 -19.5q-3 -11 -5.5 -20t-4.5 -17q-5 -18 -5 -27q-2 -9 5 -9q4 2 9 8q2 4 5.5 8.5t6.5 9.5q4 6 7.5 12t7.5 14t7.5 14.5t7.5 14.5q9 18 18.5 37.5t20.5 42.5
q2 8 3.5 15.5t3.5 13.5q3 13 3 17q-2 6 4 6q5 0 12 -4q7 -3 13 -10q6 -5 8 -14q0 -2 -0.5 -6.5t-2.5 -11.5q-3 -15 -9 -32q-3 -9 -5.5 -18.5t-5.5 -19.5q-2 -11 -4 -20t-4 -17q-3 -18 -2 -27q1 -11 9 -9q7 1 15 12q9 11 15 25q8 15 14 32q3 9 6 17.5t6 16.5q4 16 9 30
q2 7 3 11.5t2 8.5l3 9q2 7 6 22t8 32q-40 -3 -86.5 -4t-91.5 -2t-85 -3t-68 -6q-29 -5 -44.5 -12t-22.5 -13.5t-8.5 -11.5t-4.5 -5q-5 -1 -3.5 7t10 18.5t24.5 20.5t39 14q26 4 68 8t90.5 7t99 6.5t92.5 7.5q3 9 3 13q4 13 6 26q2 7 2.5 12t1.5 10q1 8 0 14q-2 6 4 6t13 -4
q6 -3 13 -10t7 -14q2 -10 -1 -26q-2 -7 -5 -22q6 2 11.5 2.5t10.5 1.5q26 5 37 10.5t12 -2.5t-12.5 -23t-36.5 -19q-8 -2 -15.5 -2.5t-15.5 -1.5q-5 -15 -8 -27.5t-5 -17.5l-6 -24t-6 -23l-6 -22t-5 -21q-2 -11 -3 -19.5t-2 -16.5q-2 -15 3 -23q3 -8 13 -7q9 1 21 13
q10 9 22 26q5 8 9.5 16t9.5 17t9 18t8 17q8 20 12 31q2 7 4 12t3 8q1 2 3 4q1 1 4 1q1 0 3 -2zM117 214q13 11 22 30q-19 0 -37 6q-18 8 -29 20q-5 -14 -6 -27q-2 -8 -2 -14v-11q1 -11 7 -16q4 -6 17 -4q17 3 28 16zM154 285q4 15 6 30q1 7 1.5 14t0.5 13v12.5t-1 10.5
q-1 7 -5 15q-5 5 -9 4q-5 -2 -10 -11q-7 -10 -13 -25l-6 -16t-5 -17q-4 -16 -3 -31q1 -13 9 -22t25 -6q3 7 5.5 14t4.5 15zM537 211q5 1 3 -6.5t-10.5 -18t-24 -21t-38.5 -14.5q-21 -4 -53.5 -6.5t-70 -5.5t-78.5 -5.5t-80.5 -5.5t-74 -6.5t-59.5 -7.5q-26 -5 -37 -11t-13 2
q-1 4 2.5 10.5t10 13t16 11.5t21.5 7q36 6 91 8.5t113 3.5t112 2.5t89 7.5q30 5 45 12t22 13.5t9 11.5t5 5z" />
    <glyph glyph-name="g.001" horiz-adv-x="704" 
d="M358 391q0 24 8.5 33.5t21 8t27 -12.5t27 -26t21 -32.5t8.5 -32.5q0 -17 -12 -57t-33 -93t-50.5 -115t-64 -124t-73 -119.5t-78 -102t-79.5 -71t-77 -26.5q-42 0 -70 10.5t-44.5 25.5t-23.5 32t-7 31t7.5 20.5t17 6.5t17 -7t7.5 -19q0 -17 16 -17q40 0 83.5 35.5
t86.5 92.5t83.5 128t74.5 142q-11 -14 -27.5 -32t-36.5 -34t-41.5 -27.5t-42.5 -11.5q-37 0 -65 17t-47 44t-28.5 61t-9.5 68q0 44 15 91.5t40.5 93.5t61 87.5t76.5 72.5t86 49.5t90 18.5q53 0 82.5 -20.5t43 -46.5t14.5 -50.5t-3 -32.5q-4 -9 -8 -11t-7.5 -1t-5.5 5t0 7
q1 3 1 16.5t-7.5 28.5t-25 27t-51.5 12q-26 0 -56 -21.5t-60 -56.5t-57.5 -79.5t-49.5 -91t-36.5 -91t-18.5 -79.5t5.5 -56.5t35.5 -21.5q25 0 49 16t47 41.5t44 58.5t38 67t30 66t21 56q5 17 7.5 29t2.5 20z" />
    <glyph glyph-name="a.001" 
d="M737 559q0 15 15 25.5t37.5 14t49 -1t49 -20t37.5 -43t15 -70.5q0 -71 -23.5 -144.5t-62.5 -143t-89.5 -130t-104 -106t-106 -72t-96.5 -26.5q-55 0 -95.5 19.5t-65.5 56.5t-32 89t6 118q-26 -36 -54 -63q-24 -23 -53 -42.5t-57 -19.5q-36 0 -64 17t-47 44t-28.5 61
t-9.5 68q0 44 15 91.5t40.5 93t61 86.5t76 72t85 49.5t89.5 18.5q35 0 60 -9.5t41 -24.5t24.5 -32.5t12 -34.5t2.5 -30t-3 -19q-3 -8 -7.5 -10.5t-7.5 -1t-5 5t-1 6.5t1 16.5t-7.5 28.5t-25 27t-50.5 12q-26 0 -56 -21.5t-59.5 -56t-57.5 -79t-50 -91t-36.5 -91t-18 -79
t5.5 -56t35 -21.5q29 0 59 25t58.5 63.5t53 84t43 87.5t29 73.5t10.5 41.5q0 15 16.5 12.5t36 -14.5t36 -29t16.5 -31q0 -11 -9.5 -36t-23.5 -57.5t-30.5 -69t-30.5 -72t-23.5 -65.5t-9.5 -49q0 -22 5 -43.5t15 -39t26 -28t39 -10.5q40 0 84.5 21.5t87.5 60.5t82 93
t68.5 118.5t47 138t17.5 150.5q0 29 -9 46t-20 26q-12 11 -28 14q-9 -6 -16 -7q-6 -2 -10.5 1t-4.5 14z" />
    <glyph glyph-name="b.001" horiz-adv-x="742" 
d="M947 484q42 -10 65.5 -31t33.5 -46.5t8 -52.5t-11 -48t-23 -33t-28 -9q-11 2 -11.5 8t1.5 11q3 6 10 13q0 16 -7 31q-6 13 -20.5 25.5t-42.5 19.5q-84 20 -184.5 11.5t-202.5 -36.5q-22 -60 -64.5 -121.5t-97 -112t-117 -82t-125.5 -31.5q-96 0 -138 48.5t-42 136.5
q0 20 13 59.5t34 90.5t48.5 110t55.5 119.5t55.5 119t48.5 107.5t34 85.5t13 53.5q0 21 17.5 22t38.5 -10.5t38.5 -31t17.5 -40.5q0 -17 -8.5 -46t-22 -64.5t-31 -75.5t-35.5 -79q-42 -92 -96 -196q49 53 99 95q21 18 44.5 35t47.5 30.5t47.5 22t44.5 8.5q34 0 54.5 -16
t30.5 -39t13 -49t3 -47v-5v-4q108 35 210.5 49t180.5 -5zM426 496q0 28 -15.5 34.5t-41 -4t-58 -34t-66 -56t-66 -70t-58 -75.5t-41 -72.5t-15.5 -61.5q0 -15 3 -31q20 34 54 68t77.5 66t95.5 62.5t108 56.5q23 66 23 117zM138 48q27 0 57 20t60.5 54t59 77t51.5 90
q-51 -22 -96.5 -46.5t-83 -50t-65 -51.5t-42.5 -51q8 -18 22.5 -30t36.5 -12z" />
    <glyph glyph-name="c.001" horiz-adv-x="507" 
d="M481 717q0 15 15 25.5t37.5 14t49 -1t49 -20t37.5 -43t15 -70.5q0 -71 -26.5 -144.5t-71 -143t-102.5 -130t-121 -106t-127 -72t-120 -26.5q-47 0 -88.5 20.5t-72 52t-48 68.5t-17.5 71q0 71 34.5 140.5t91 125t127.5 89.5t144 34q30 0 45.5 -13t21 -33t3 -43.5t-7 -44.5
t-10 -36.5t-6.5 -18.5q-3 -9 -8.5 -12.5t-11 -3t-8 5.5t0.5 14q14 44 19 78q2 15 2.5 29t-2 25t-8.5 17.5t-16 6.5q-31 0 -61.5 -22t-58 -58.5t-50.5 -82.5t-39 -94.5t-23.5 -94.5t-4 -82.5t19.5 -58.5t47 -22q40 0 88 20.5t97 57.5t94.5 89t80.5 115t56.5 135t21.5 149
q0 29 -9 46t-20 26q-12 11 -28 14q-9 -6 -16 -7q-6 -2 -10.5 1t-4.5 14z" />
    <glyph glyph-name="e.002" horiz-adv-x="588" 
d="M544 383q51 1 88.5 -10t63 -28.5t40 -37.5t19 -37t0.5 -28.5t-15 -11.5t-15 5t-8.5 12.5t-12 15.5t-26 15.5t-51.5 12t-87 4.5q-76 0 -134 -9.5t-105.5 -21.5t-89 -24.5t-84.5 -18.5q-5 -27 -5.5 -56t4 -53t15 -39.5t29.5 -15.5q60 0 117 35t108 86q13 12 24 14.5
t17.5 -1.5t7 -12t-6.5 -17q-29 -33 -61.5 -62.5t-67.5 -51.5t-73.5 -35t-79.5 -13q-47 0 -82 20.5t-58 51.5t-34 68t-11 71q0 8 0.5 15.5t1.5 15.5q-24 14 -38.5 31.5t-20.5 33.5t-4 27t10 11q4 0 8 -6.5t10.5 -16t16 -21t24.5 -21.5q15 62 53.5 119.5t91.5 102t116 71
t127 26.5q54 0 67.5 -27t-1 -67.5t-51 -87.5t-83.5 -87q52 21 112.5 37t133.5 16zM380 563q-32 0 -67 -23t-67.5 -61.5t-60 -88.5t-43.5 -105q35 8 73 31.5t72.5 54.5t62.5 65t43 62t13 46.5t-26 18.5z" />
    <glyph glyph-name="g.002" horiz-adv-x="704" 
d="M358 391q0 24 8.5 33.5t21 8t27 -12.5t27 -26t21 -32.5t8.5 -32.5q0 -17 -12 -57t-33 -93t-50.5 -115t-64 -124t-73 -119.5t-78 -102t-79.5 -71t-77 -26.5q-42 0 -70 10.5t-44.5 25.5t-23.5 32t-7 31q0 2 0.5 4.5t0.5 4.5q-8 9 -18.5 18t-27 16.5t-40 13t-57.5 6.5
q-32 1 -77 -12t-101 -33t-122 -43.5t-140.5 -42.5t-157.5 -31t-173 -8q-61 0 -105 14.5t-73.5 36t-45.5 46.5t-20.5 46.5t0.5 35.5t18 14q13 -1 19 -6t11.5 -13.5t15.5 -18t32 -18t59 -15.5t98 -9q79 -3 154.5 4t146.5 19.5t136 28t123 29t108.5 22.5t91.5 9
q57 0 95.5 -15.5t62 -36t32.5 -42t6 -33.5q3 -7 13 -7q40 0 83.5 35.5t86.5 92.5t83.5 128t74.5 142q-11 -14 -27.5 -32t-36.5 -34t-41.5 -27.5t-42.5 -11.5q-37 0 -65 17t-47 44t-28.5 61t-9.5 68q0 44 15 91.5t40.5 93.5t61 87.5t76.5 72.5t86 49.5t90 18.5
q53 0 82.5 -20.5t43 -46.5t14.5 -50.5t-3 -32.5q-4 -9 -8 -11t-7.5 -1t-5.5 5t0 7q1 3 1 16.5t-7.5 28.5t-25 27t-51.5 12q-26 0 -56 -21.5t-60 -56.5t-57.5 -79.5t-49.5 -91t-36.5 -91t-18.5 -79.5t5.5 -56.5t35.5 -21.5q25 0 49 16t47 41.5t44 58.5t38 67t30 66t21 56
q5 17 7.5 29t2.5 20z" />
    <glyph glyph-name="h.001" horiz-adv-x="618" 
d="M618 454q4 9 10.5 12t12 1.5t8 -7t-1.5 -14.5q-10 -21 -33.5 -62t-55.5 -91t-69.5 -101.5t-75.5 -94.5t-74.5 -70t-65.5 -27q-44 0 -72.5 33.5t-28.5 90.5q0 20 8.5 50.5t22.5 66.5t31.5 75t35 77t33.5 72.5t28 61.5q-21 -22 -51 -56t-64.5 -74t-70.5 -83.5t-67 -85.5
t-55.5 -79t-35.5 -63q-3 -14 -3 -24t3.5 -21t5 -20t-1 -15t-13.5 -6q-17 0 -35.5 8.5t-33.5 24.5t-24.5 38.5t-9.5 50.5q0 25 14 67.5t36.5 96t51.5 114.5t59.5 124t59.5 124t51.5 114.5t36.5 96t14 67.5q0 17 18 15t39.5 -16t39.5 -36.5t18 -44.5q0 -24 -13 -63t-34 -88
t-48.5 -105.5t-57 -115t-58.5 -116.5t-53 -109q22 28 51.5 65.5t62 76.5t64.5 77t59 67.5t47 48t28 18.5h1q10 1 24.5 -7.5t28 -22.5t23.5 -31.5t10 -35.5q0 -12 -17.5 -50.5t-42.5 -89t-50.5 -106t-42.5 -102t-18.5 -77t22.5 -30.5q18 0 46 25.5t61 65t67 87t63.5 93
t51.5 82t30 53.5zM140 1033q70 0 112.5 -21.5t63 -47.5t21 -47.5t-12.5 -21.5q-7 0 -15 13t-26 28.5t-51 28.5t-90 13q-49 0 -122.5 -26.5t-171 -58.5t-217 -58.5t-260.5 -26.5q-61 0 -105.5 14.5t-74.5 35.5t-46 46.5t-20.5 46.5t1 35.5t19.5 14.5q13 0 18.5 -6t11.5 -15
t15.5 -19t31.5 -19t59.5 -15t98.5 -6q118 0 228.5 17.5t208 38.5t179.5 38.5t144 17.5z" />
    <glyph glyph-name="i.001" horiz-adv-x="376" 
d="M180 690q-11 0 -14.5 12t-2 30t8 39.5t15 39.5t19.5 30t23 12q16 0 31 -4.5t27 -13.5t19 -22t7 -29t-10 -33t-27.5 -30.5t-42 -22t-53.5 -8.5zM213 -170q15 0 22 -5t7 -11.5t-7.5 -11.5t-21.5 -5q-19 0 -47.5 7t-60.5 22.5t-64 39.5t-58 58.5t-42 80t-16 103.5
q0 31 13 75.5t33 93.5t43 98.5t43 92t33 73.5t13 43q0 18 15 16t33.5 -16.5t33.5 -36.5t15 -45q0 -10 -12.5 -36t-31.5 -62t-41 -79.5t-41 -87.5t-31.5 -85.5t-12.5 -74.5q0 -74 20.5 -122t49 -75.5t60 -38.5t53.5 -11z" />
    <glyph glyph-name="j.001" horiz-adv-x="203" 
d="M102 688q-18 0 -22 24.5t4.5 54.5t27.5 54.5t47 24.5q39 0 58 -18t19 -47q0 -30 -17.5 -48.5t-40 -28.5t-44.5 -13t-32 -3zM721 -123q14 0 19.5 -14.5t1 -35.5t-20.5 -46.5t-46 -46.5t-74.5 -35.5t-105.5 -14.5q-108 0 -204 16.5t-179 39.5t-152.5 48.5t-124.5 42.5
q-35 -54 -71.5 -101t-73 -81.5t-73 -54t-70.5 -19.5q-56 0 -83 24.5t-29 62t18 80.5t58.5 80.5t93 62t121.5 24.5h11t13 -1q37 66 72.5 138t67.5 142.5t59.5 136t47.5 118.5t31 89.5t11 49.5q0 18 15 16t33.5 -16t33.5 -36t15 -45q0 -12 -9.5 -44.5t-26.5 -79.5
t-40.5 -105.5t-53 -122t-63.5 -130t-71 -128.5q61 -12 131 -28t148 -31t162 -25t173 -10q61 0 98.5 6t59.5 15t31.5 19t15.5 19t11.5 15t18.5 6zM-495 -376q21 0 46 17t52 48t56 73t59 92q-49 -1 -88.5 -18.5t-68.5 -43t-47.5 -55t-26 -54.5t-3.5 -42t21 -17z" />
    <glyph glyph-name="l.001" horiz-adv-x="377" 
d="M377 450q4 9 10.5 12t12 1.5t8 -7t-1.5 -14.5q-10 -21 -32.5 -62t-54 -90t-68.5 -100t-76 -93t-77.5 -69t-72.5 -27q-44 0 -72 33.5t-28 90.5q0 22 16 69t41.5 109t58.5 135t67.5 148t67.5 147.5t58.5 133t41.5 105t16 64.5q0 17 16 14t35.5 -18.5t35.5 -39t16 -46.5
q0 -25 -19 -76t-49 -118t-67.5 -144.5t-74 -154t-68 -148t-51 -126t-22.5 -87t19 -32.5t51 24t61.5 62t64.5 83.5t59.5 89t48 79t29.5 52.5zM392 1011q-7 0 -15 13t-26 28.5t-51 28.5t-90 13q-49 0 -122.5 -26.5t-171 -58.5t-217 -58.5t-260.5 -26.5q-61 0 -105.5 14.5
t-74.5 35.5t-46 46.5t-20.5 46.5t1 35.5t19.5 14.5q13 0 18.5 -6t11.5 -15t15.5 -19t31.5 -19t59.5 -15t98.5 -6q118 0 228.5 17.5t208 38.5t179.5 38.5t144 17.5q70 0 112.5 -21.5t63 -47.5t21 -47.5t-12.5 -21.5z" />
    <glyph glyph-name="l.002" horiz-adv-x="377" 
d="M377 450q4 9 10.5 12t12 1.5t8 -7t-1.5 -14.5q-10 -21 -32.5 -62t-54 -90t-68.5 -100t-76 -93t-77.5 -69t-72.5 -27q-44 0 -72 33.5t-28 90.5q0 29 14 81t37.5 117t55 138.5t67 146t72.5 139t71.5 117.5t64.5 81t51 30q44 0 63.5 -23.5t20 -64.5t-15.5 -95t-43.5 -114.5
t-64.5 -124t-78 -123.5t-83 -112.5t-81 -91.5q-16 -46 -24.5 -81.5t-8.5 -57.5q0 -27 20 -27q22 0 51 24t61.5 62t64.5 83.5t59.5 89t48 79t29.5 52.5zM400 900q-8 0 -27 -28t-44.5 -75t-56 -108.5t-61.5 -129.5t-60 -137t-52 -131q93 121 157.5 231t101.5 194t47.5 134
t-5.5 50z" />
    <glyph glyph-name="m.001" horiz-adv-x="945" 
d="M801 -156q27 0 36 -7.5t5.5 -16t-15.5 -16t-26 -7.5q-19 0 -47.5 7t-60.5 22.5t-64 40.5t-58 59.5t-42 80.5t-16 104q0 36 18.5 90t44 112.5t52.5 114.5t44 96q-21 -22 -51 -55.5t-64.5 -73.5t-69.5 -83.5t-66.5 -85t-55.5 -78t-36 -62.5q-1 -7 -1.5 -13t-0.5 -11
q0 -10 3.5 -21t5 -20t-1 -15t-13.5 -6q-17 0 -35 8.5t-33 24.5t-24.5 38.5t-9.5 49.5q0 43 20.5 97t48.5 109.5t55 109t41 95.5q-19 -20 -49.5 -54t-65.5 -75t-72 -86t-69.5 -88t-58 -81t-36.5 -65q-1 -5 -1.5 -10.5t-0.5 -10.5q0 -10 3.5 -21t5 -20t-0.5 -15t-14 -6
q-17 0 -35 8.5t-33 24.5t-24.5 38.5t-9.5 49.5q0 33 13 73.5t32.5 83t42 86t42 83.5t32.5 74.5t13 60.5q0 17 17.5 18t38 -12t38 -37t17.5 -56q0 -15 -10 -41.5t-26 -59t-35 -70t-38 -74.5q22 28 51.5 65t61 75.5t63 75.5t58 66t46 47t27.5 18h1q11 1 27.5 -5t31.5 -19.5
t26 -33t11 -44.5q0 -15 -10 -41t-25.5 -58.5t-34.5 -70t-38 -74.5q22 28 51.5 65t60.5 75.5t62.5 75.5t58 66t46 46.5t27.5 17.5h1q5 0 8 -1h1q11 -3 24 -12.5t24.5 -23t19.5 -29t8 -31.5q0 -10 -12.5 -37t-31.5 -64.5t-41 -82t-41 -88.5t-31.5 -84t-12.5 -69
q0 -59 20.5 -102.5t49 -72t60 -42.5t53.5 -14z" />
    <glyph glyph-name="n.001" horiz-adv-x="625" 
d="M220 124q0 34 18.5 86t44 108.5t52.5 111t44 95.5q-21 -22 -51.5 -56.5t-65 -74.5t-70 -84t-67 -86t-55.5 -78.5t-35 -62.5q-1 -5 -1.5 -10.5t-0.5 -10.5q0 -10 3.5 -21t5 -20t-1 -15t-13.5 -6q-17 0 -35 8.5t-33 24.5t-24.5 38.5t-9.5 49.5q0 33 13 73.5t32.5 83t42 86
t42 83.5t32.5 74.5t13 60.5q0 17 17.5 18t38 -12t38 -37t17.5 -56q0 -15 -10 -41.5t-26 -59t-35.5 -70t-38.5 -74.5q22 28 51.5 65t61 75.5t63 75.5t58.5 66t46 47t27 18h2q5 0 8 -1h2l1 -1q11 -3 24 -12.5t24 -22.5t18.5 -28.5t7.5 -31.5q0 -10 -12.5 -37.5t-31.5 -65.5
t-41 -83t-41 -88.5t-31.5 -82.5t-12.5 -66q0 -59 20.5 -101t49.5 -68.5t60.5 -38.5t53.5 -12q27 0 36 -7t5.5 -16t-15.5 -16t-26 -7q-19 0 -47.5 7t-60.5 22.5t-64.5 40t-58.5 59.5t-42 80.5t-16 103.5z" />
    <glyph glyph-name="o.001" horiz-adv-x="642" 
d="M875 305q43 0 74.5 -10t52.5 -25t32.5 -33t14.5 -33t-1 -25t-14 -10q-9 0 -13 4t-8 10.5t-11 13.5t-22 13.5t-41.5 10.5t-69.5 4q-78 0 -152.5 -10.5t-141 -23t-123.5 -24.5t-102 -15q-46 -68 -103.5 -109.5t-119.5 -41.5q-32 0 -62 12.5t-53.5 37.5t-37.5 62t-14 86
q0 47 17 97.5t40.5 92.5t47 69t36.5 27t27.5 -3t28.5 -9q18 25 39 48t45 41t50 28.5t53 10.5q34 0 56.5 -7.5t35.5 -21.5t18 -33t5 -42q0 -80 -23 -160t-62 -147q39 10 90.5 29.5t114.5 38.5t137.5 33t158.5 14zM390 550q-12 0 -36 -26.5t-49.5 -67t-46 -87.5t-24 -88
t14.5 -69t70 -30q23 37 42 79t32 83t20 78.5t7 65.5t-7.5 45t-22.5 17zM130 43q48 0 90.5 30t77.5 78q-56 6 -104 36t-74 72q-18 -39 -31.5 -77.5t-16 -69t10 -50t47.5 -19.5z" />
    <glyph glyph-name="p.001" horiz-adv-x="699" 
d="M1209 218q14 0 19.5 -14.5t1 -35.5t-20.5 -46.5t-46 -46.5t-74.5 -35.5t-105.5 -14.5q-95 0 -180 14t-160.5 34.5t-140.5 44.5t-120 44q-27 -38 -56 -67q-43 -42 -91 -67t-98 -28h-18q-46 0 -75 14.5t-46 37.5q-33 -58 -61 -107.5t-47 -84.5q-35 -75 -56.5 -132
t-21.5 -84q0 -10 3.5 -21t5 -20t-1 -15t-13.5 -6q-17 0 -35.5 8.5t-33.5 24.5t-24.5 38.5t-9.5 50.5q0 25 15 71t39.5 104.5t56 126.5t64.5 138t64.5 138.5t56 127t39.5 104t15 70.5q0 18 18 16t39.5 -16t39.5 -36.5t18 -44.5q0 -18 -8.5 -47.5t-23 -67t-34.5 -81.5t-42 -92
q42 72 85.5 141t83 123t73 87.5t55.5 33.5q31 0 56 -5t42 -20.5t26 -44.5t9 -78q0 -21 -5 -48t-14.5 -58t-23.5 -64.5t-32 -66.5q58 -12 123 -25.5t135.5 -25t146 -19t154.5 -7.5q61 0 98.5 6t59.5 15t31.5 19t15.5 19t11.5 15t18.5 6zM352 545q-16 0 -43.5 -27t-61 -72
t-72 -103.5t-77.5 -121.5q23 10 51 15.5t65 5.5q14 0 29 -1t32 -3q28 54 49 108.5t32 98.5t11 72t-15 28zM71 34q24 0 48 13.5t47.5 36.5t46 53.5t42.5 65.5q-12 2 -22.5 3.5t-20.5 1.5q-37 0 -63.5 -5.5t-45 -14.5t-30 -19.5t-18.5 -20.5l-6 -10l-6 -10q-2 -4 -4 -7.5
t-4 -5.5q-5 -8 -9 -15.5t-9 -15.5q7 -23 20 -36.5t34 -13.5z" />
    <glyph glyph-name="q.001" horiz-adv-x="623" 
d="M251 -89l-56.5 -113t-48.5 -102.5t-33.5 -85t-12.5 -58.5q0 -10 3.5 -21t5 -20t-1 -15t-13.5 -6q-17 0 -35.5 8.5t-33.5 24.5t-24.5 38.5t-9.5 50.5q0 21 10.5 55.5t27.5 77.5t40 93t48.5 103t51.5 107t50 105q-21 -24 -45.5 -51.5t-49.5 -50t-47 -37.5t-38 -15
q-36 0 -58 22t-33 53t-14.5 62.5t-3.5 51.5q0 44 12.5 91.5t34.5 93t53 86.5t68.5 72t79.5 49t87 18q53 0 82 -20t42.5 -46t14.5 -50.5t-3 -32.5t-8 -10.5t-7.5 -1t-5.5 5t0 6.5q1 3 1 16.5t-7.5 28.5t-25 26.5t-50.5 11.5q-37 0 -75 -36.5t-71 -91.5t-59 -118.5t-41 -118.5
t-16 -91.5t16 -36.5q11 0 38.5 26.5t61.5 66.5t70 87.5t65 89.5q12 33 19.5 60t7.5 45q0 17 18 15t39 -16t39 -36t18 -44q0 -19 -8.5 -48t-22.5 -64.5t-33 -77t-41 -86.5z" />
    <glyph glyph-name="r.001" horiz-adv-x="396" 
d="M460 618q0 15 15 25.5t37.5 14t49 -1t49 -20t37.5 -43t15 -70.5q0 -71 -23.5 -144.5t-62.5 -143t-89.5 -130t-104 -106t-106 -72t-96.5 -26.5q-93 0 -145.5 56.5t-52.5 153.5q0 38 14 83t31 85q20 47 46 93q-12 4 -24 12q-11 7 -23 17.5t-23 25.5q-7 -15 -12 -26
t-11.5 -23.5t-15.5 -29t-23 -41.5q-5 -8 -11 -10t-11.5 0.5t-7.5 8t3 12.5q16 29 27 49t18.5 35t13 27t11.5 24q0 2 2 4q-13 28 -13 63q0 31 7 61.5t18 55t24.5 39.5t27.5 15t32.5 -2.5t35.5 -8.5t28.5 -15.5t11.5 -23.5q0 -15 -11 -35t-24.5 -43.5t-24.5 -49.5t-11 -52
q0 -36 15 -56t32.5 -32t32.5 -20.5t15 -22.5q0 -8 -7.5 -26t-18 -42.5t-23.5 -53.5t-23.5 -57.5t-18 -55t-7.5 -46.5q0 -22 3.5 -41.5t12 -34t23 -23t37.5 -8.5q40 0 84.5 21.5t87.5 60.5t82 93t68.5 118.5t47 138t17.5 150.5q0 29 -9 46t-20 26q-12 11 -28 14q-9 -6 -16 -7
q-6 -2 -10.5 1t-4.5 14z" />
    <glyph glyph-name="s.001" horiz-adv-x="422" 
d="M1054 226q14 0 19.5 -14.5t1 -35.5t-20.5 -46.5t-46 -46.5t-74.5 -35.5t-105.5 -14.5q-99 0 -186.5 11.5t-164 29t-142.5 38t-121 39.5q-11 -37 -33 -65.5t-51 -47.5t-62 -28.5t-65 -9.5q-44 0 -70.5 18t-37 45t-4 58t28 58t58 45t87.5 18h11t13 -1q-5 21 -14.5 43
t-21.5 44t-24 44.5t-20 45.5q-2 6 -3.5 13t-3.5 14t-4 15q-4 17 -4 40q0 42 15.5 77t38 60t46.5 39t42 14q9 0 22.5 -1.5t26 -6.5t22 -14t9.5 -24t-13.5 -28.5t-30 -31t-30 -40t-13.5 -54.5q0 -38 13.5 -71.5t30 -65t31.5 -63.5t18 -68q60 -12 128.5 -25.5t143.5 -24.5
t156.5 -18.5t168.5 -7.5q61 0 98.5 6t59.5 15t31.5 19t15.5 19t11.5 15t18.5 6zM-33 46q19 0 39 9.5t37.5 27t30.5 43.5t17 59q-8 1 -15 1.5t-13 0.5q-64 0 -99 -22t-45.5 -48.5t2.5 -48.5t46 -22z" />
    <glyph glyph-name="n.002" horiz-adv-x="625" 
d="M738 -128q68 0 111 -17t61.5 -42.5t13 -55.5t-34 -55.5t-79.5 -42.5t-123 -17q-62 0 -128.5 14.5t-128.5 46.5q-63 -30 -135 -62t-161 -58.5t-200 -43.5t-252 -17q-82 0 -146 20t-111.5 49.5t-78.5 64t-46 64t-15 49.5t15 20t27 -10.5t28.5 -26t40 -34t60 -34t89 -26
t126.5 -10.5q112 0 207.5 10.5t176.5 27t150.5 37.5t130.5 42q-60 51 -97 124t-37 172q0 33 10 72.5t25.5 82.5t35.5 86t39.5 84t37 76.5t29.5 62.5q-21 -22 -51.5 -56.5t-65 -74.5t-70 -84t-67 -86t-55.5 -78.5t-35 -62.5q-1 -5 -1.5 -10.5t-0.5 -10.5q0 -10 3.5 -21t5 -20
t-1 -15t-13.5 -6q-17 0 -35 8.5t-33 24.5t-24.5 38.5t-9.5 49.5q0 33 13 73.5t32.5 83t42 86t42 83.5t32.5 74.5t13 60.5q0 17 17.5 18t38 -12t38 -37t17.5 -56q0 -15 -10 -41.5t-26 -59t-35.5 -70t-38.5 -74.5q22 28 51.5 65t61 75.5t63 75.5t58.5 66t46 47t27 18h2
q5 0 8 -1h2l1 -1q11 -3 24 -12.5t24 -22.5t18.5 -28.5t7.5 -31.5q0 -10 -14 -37.5t-34.5 -65.5t-45 -82.5t-45 -89.5t-34.5 -86.5t-14 -73.5q0 -85 38 -150t104 -108q77 28 146 46.5t142 18.5zM726 -267q84 0 123 10.5t39 23t-35 23t-99 10.5q-54 0 -103 -11.5t-97 -30.5
q40 -12 83 -18.5t89 -6.5z" />
    <glyph glyph-name="t.002" horiz-adv-x="448" 
d="M-112 -170q0 49 12 113.5t31.5 137t44.5 148.5t52 148t53.5 135.5t48.5 111.5q-50 6 -88 15t-64.5 18.5t-40 18t-13.5 13.5q0 10 11 9.5t37.5 -6t69.5 -13.5t107 -14l38 85.5t31 74.5t20.5 59.5t7.5 40.5q0 17 15 15t33.5 -16t33.5 -36t15 -45q0 -25 -17.5 -73
t-46.5 -110h11q60 0 108.5 7t83 14.5t53.5 11.5t19 -2t-16.5 -18.5t-51.5 -25t-89 -22t-129 -9.5h-9q-22 -47 -50.5 -113t-59 -143t-60 -160.5t-52.5 -164.5t-37.5 -155t-14.5 -133q0 -17 -15 -15t-33.5 16.5t-33.5 36.5t-15 45z" />
    <glyph glyph-name="u.001" horiz-adv-x="639" 
d="M329 4q0 -22 5 -43.5t15.5 -39t26.5 -28t39 -10.5q40 0 84 21.5t87 60.5t82.5 93t69 118.5t47 138t17.5 150.5q0 29 -9 46t-20 26q-12 11 -28 14q-9 -6 -16 -7q-6 -2 -10.5 1t-4.5 14q0 15 15 25.5t37.5 14t49 -1t49 -20t37.5 -43t15 -70.5q0 -71 -23.5 -144.5
t-62.5 -143t-89.5 -130t-104 -106t-106 -72t-96.5 -26.5q-93 0 -144.5 54.5t-51.5 151.5q0 74 14.5 133.5t37.5 111.5q-31 -44 -69.5 -95t-75.5 -95t-69 -73.5t-51 -29.5q-20 0 -38.5 13.5t-32.5 33t-22.5 41.5t-8.5 39q0 34 13 73.5t32.5 81.5t42 84.5t42 82t32.5 73.5
t13 60q0 17 17.5 18t38 -11.5t38 -36.5t17.5 -56q0 -18 -18.5 -59t-45 -92.5t-55 -106.5t-49 -100.5t-27.5 -74.5t11 -29q9 0 28.5 18t45 47t55 67t58.5 77q69 92 150 210q22 47 37 81.5t15 47.5q0 17 15 15t33.5 -16t33.5 -36t15 -45q0 -10 -13.5 -40.5t-34 -73.5t-44 -95
t-44 -103.5t-34 -99.5t-13.5 -84z" />
    <glyph glyph-name="v.001" horiz-adv-x="541" 
d="M351 717q0 15 15 25.5t37.5 14t49 -1t49 -20t37.5 -43t15 -70.5q0 -71 -24 -144.5t-63.5 -143t-90.5 -130t-105.5 -106t-107.5 -72t-97 -26.5q-35 0 -64.5 15t-52 38.5t-35 51t-12.5 51.5q0 34 12 71.5t30 76.5t39.5 77.5t39.5 74.5t30 68t12 58q0 17 17.5 18t38.5 -12
t38.5 -37t17.5 -56q0 -18 -18.5 -58.5t-43.5 -91.5t-49.5 -104.5t-36.5 -98.5t-6 -73.5t44 -28.5q40 0 83.5 21.5t84.5 61t78 93.5t65 118.5t44.5 138t16.5 150.5q0 29 -9 46t-20 26q-12 11 -28 14q-9 -6 -16 -7q-6 -2 -10.5 1t-4.5 14z" />
    <glyph glyph-name="w.001" horiz-adv-x="799" 
d="M346 0q-31 0 -58.5 12.5t-49 32t-35.5 43.5t-19 47q-15 -26 -32 -50.5t-35 -43.5t-36.5 -30t-36.5 -11q-35 0 -64.5 15t-52 38.5t-35 51t-12.5 51.5q0 34 12 71.5t30 76.5t39.5 77.5t39.5 74.5t30 68t12 58q0 17 17.5 18t38.5 -12t38.5 -37t17.5 -56q0 -14 -10.5 -41
t-27 -62t-35.5 -75t-36 -80.5t-29 -77t-14 -65t8.5 -45.5t38.5 -17q16 0 34.5 17t37.5 43t36.5 57.5t32.5 60.5q9 30 25 59.5t31 59t26.5 59.5t11.5 62q0 18 17.5 18.5t38.5 -12t38.5 -37t17.5 -56.5q0 -18 -14 -49.5t-31 -68.5t-33.5 -74.5t-21.5 -68.5t6 -50.5t49 -19.5
q26 0 56.5 22.5t61.5 62t60.5 95t52 121t36 139.5t13.5 151q0 29 -9 46t-20 26q-12 11 -28 14q-9 -6 -16 -7q-6 -2 -10.5 1t-4.5 14q0 15 15 25.5t37.5 14t49 -1t49 -20t37.5 -43t15 -70.5q0 -71 -20.5 -144.5t-54 -143t-76 -130t-87 -106t-87.5 -72t-76 -26.5z" />
    <glyph glyph-name="x.001" horiz-adv-x="621" 
d="M462 -59q8 1 9 -6t-5.5 -16.5t-19.5 -17.5t-33 -8q-33 0 -61 22t-51 59t-42 86t-35 102q-44 -35 -85.5 -65.5t-76.5 -55t-62 -42.5l-42 -28q-6 -5 -13.5 -3t-12.5 8q-5 7 -3 14.5t9 12.5q15 10 43.5 29.5t65 47.5t78.5 63t84 76q-17 63 -30 123.5t-25 108.5t-23 77
t-23 29q-4 0 -10.5 -7t-14.5 -18t-16.5 -25t-17.5 -29q-20 -35 -43 -79q-5 -9 -9.5 -9t-7.5 5t-4 13t3 17q22 48 45 87q10 16 21 32t22.5 28.5t23 20t23.5 7.5q4 0 24.5 -3t44 -15t44 -35t25.5 -63q1 -8 10.5 -56.5t25.5 -115.5q34 40 63.5 82.5t51.5 87t34.5 90.5t12.5 93
q0 22 -8 36.5t-18 23.5q-11 11 -25 16q-11 -3 -20 -2q-8 1 -13 4.5t-2 14.5q3 14 21 20.5t42.5 5.5t52.5 -10t52 -27t39.5 -44.5t15.5 -62.5q0 -46 -23 -96.5t-62 -102.5t-90 -103.5t-106 -99.5q14 -54 31 -107t36 -95.5t39 -68.5t41 -26z" />
    <glyph glyph-name="y.001" horiz-adv-x="673" 
d="M-120 -289q0 -17 16 -17q29 0 61.5 25t65 66.5t65 94t61.5 107.5q69 129 136 294q-31 -44 -68.5 -93.5t-73.5 -91t-66.5 -69t-48.5 -27.5q-20 0 -38.5 13.5t-32.5 33t-22.5 41.5t-8.5 39q0 34 13 74t32.5 82t42 85t42 82.5t32.5 73.5t13 60q0 15 17.5 15.5t38.5 -11.5
t38.5 -35t17.5 -55q0 -14 -11 -41t-28 -62t-38 -75.5t-42 -80.5t-39 -77t-28.5 -65.5t-11 -45.5t12.5 -17q10 0 32.5 21.5t51.5 55.5t62 77t64.5 86t58.5 81t45 64q23 59 36.5 96t13.5 43q0 25 8.5 34t21 7.5t27 -12t27 -26t21 -33t8.5 -32.5q0 -23 -15 -73t-41.5 -116.5
t-62.5 -143.5t-77 -154.5t-85.5 -149t-88 -126.5t-84.5 -88t-75 -33q-42 0 -70 10.5t-44.5 26.5t-23 33t-6.5 31q0 2 0.5 4.5t0.5 4.5q-8 8 -18.5 17t-27 17t-40.5 13.5t-57 6.5t-78 -12t-100.5 -33t-121.5 -43.5t-141 -43t-158 -31t-173 -8.5q-60 0 -104 14.5t-73.5 36
t-45.5 47t-21 47t0.5 35.5t18.5 14t19 -6t11.5 -14t15.5 -18t32 -18.5t59 -15.5t98 -9q118 -4 228.5 13t208 39.5t179 41.5t143.5 19q57 0 95.5 -14t61 -33.5t31 -40t5.5 -32.5z" />
    <glyph glyph-name="z.001" horiz-adv-x="524" 
d="M245 0q0 -23 -10.5 -61t-31 -81t-49.5 -87t-65.5 -79.5t-80 -58t-92.5 -22.5q-42 0 -70 10.5t-44.5 26.5t-23 33t-6.5 31q0 6 1 9q-8 9 -18.5 18t-27 16.5t-40.5 13t-57 6.5t-78 -12t-100.5 -33t-121.5 -43.5t-141 -42.5t-158 -31t-173 -8q-60 0 -104 14.5t-73.5 36
t-45.5 46.5t-21 46.5t0.5 35.5t18.5 14t19 -5.5t11.5 -14t15.5 -18t32 -18t59 -15.5t98 -9q79 -3 154.5 4t146 19.5t136 28t123.5 29t108 22.5t91 9q57 0 95.5 -14t61 -33.5t31 -39.5t5.5 -32q0 -17 16 -17h4h2h1q52 2 94 27t74.5 63t56.5 86t41 96q2 3 2.5 6.5t2.5 6.5
q6 18 10 34t6 28q2 5 2 9.5v8.5v2q0 34 -14.5 34.5t-35 -14.5t-42.5 -37t-37 -35q-9 -9 -11 -9h-4h-1q-5 0 -6 1q-12 2 -25 9t-23.5 16.5t-17 21.5t-6.5 24q0 10 7 28.5t18.5 41.5t26.5 49t31 52q36 60 83 130q-29 13 -51 33q-19 17 -34.5 45.5t-15.5 71.5q0 31 7 61.5
t18 55t24.5 39.5t27.5 15t33 -2.5t36 -8.5t28.5 -15.5t11.5 -24.5q0 -14 -11 -34.5t-24.5 -44t-24.5 -49.5t-11 -52q0 -36 15 -56t33 -32t33 -21t15 -23q0 -15 -9.5 -40t-25.5 -55.5t-35.5 -63t-38.5 -62.5q20 14 39.5 23t35.5 9q40 0 66.5 -33.5t27.5 -104.5v-4z" />
    </font>
</defs>
</svg>
