<?xml version="1.0" encoding="utf-8"?>
<!-- Generator: Adobe Illustrator 16.2.1, SVG Export Plug-In . SVG Version: 6.00 Build 0)  -->
<!DOCTYPE svg PUBLIC "-//W3C//DTD SVG 1.1//EN" "http://www.w3.org/Graphics/SVG/1.1/DTD/svg11.dtd">
<svg version="1.1" xmlns="http://www.w3.org/2000/svg" xmlns:xlink="http://www.w3.org/1999/xlink" x="0px" y="0px"
	 width="242.942px" height="269.291px" viewBox="0 0 242.942 269.291" enable-background="new 0 0 242.942 269.291"
	 xml:space="preserve">
<g id="Capa_1">
	<path fill="#FFFFFF" d="M121.544,0.069l0.539,111.275l17.4-109.82l-16.332,109.996L156.983,5.859l-32.806,106.004l49.432-98.893
		l-48.469,99.397l63.812-89.697l-62.939,90.351l76.622-78.288l-75.859,79.079l87.549-64.957l-86.914,65.857l96.313-50.021
		l-95.821,51.014l102.707-33.856l-102.376,34.916L234.811,99.91l-106.408,17.957l107.818,0.558l-107.818,0.556l106.408,17.954
		l-106.577-16.852l102.376,34.914l-102.707-33.855l95.821,51.012l-96.313-50.019l86.911,65.854l-87.546-64.954l75.859,79.077
		l-76.622-78.287l62.939,90.348l-63.812-89.692l48.469,99.395l-49.432-98.89l32.806,105.999l-33.832-105.658l16.332,109.994
		l-17.4-109.819l-0.539,111.273L121.005,125.5l-17.4,109.819l16.336-109.994L86.106,230.983l32.804-106.004l-49.428,98.895
		l48.468-99.396l-63.809,89.694l62.935-90.348l-76.621,78.287l75.858-79.077L28.77,187.988l86.908-65.854l-96.312,50.019
		l95.823-51.012L12.481,154.994l102.373-34.913L8.279,136.935l106.405-17.954L6.869,118.425l107.815-0.558L8.279,99.91
		l106.575,16.854L12.481,81.849l102.708,33.856L19.366,64.691l96.312,50.021L28.77,48.855l87.544,64.957L40.455,34.733
		l76.621,78.288L54.14,22.671l63.811,89.697L69.482,12.969l49.428,98.895L86.106,5.859l33.834,105.661L103.606,1.524l17.398,109.82
		L121.544,0.069z"/>
</g>
<g id="Capa_16">
	<g>
		<g>
			<polygon fill="#D9DADB" points="198.146,231.808 198.146,224.773 43.758,224.773 43.758,231.808 4.436,231.808 19.727,212.543 
				4.436,193.279 24.552,193.279 24.552,186.246 217.169,186.246 217.169,193.279 236.948,193.279 224.717,212.543 236.948,231.808 
							"/>
			<path d="M215.12,188.296v7.033h18.1l-10.931,17.214l10.931,17.214h-33.024v-7.032H41.708v7.032H8.68l13.666-17.214L8.68,195.329
				h17.922v-7.033H215.12 M219.218,184.196h-4.098H26.6h-4.098v4.1v2.935H8.68H0.191l5.277,6.65l11.643,14.664L5.469,227.208
				l-5.277,6.649H8.68h33.028h4.101v-4.101v-2.934h150.288v2.934v4.101h4.099h33.024h7.46l-3.997-6.3l-9.536-15.015l9.536-15.016
				l3.997-6.297h-7.46h-14.002v-2.935V184.196L219.218,184.196z"/>
		</g>
		<polygon fill="#B0B4B7" points="41.708,229.757 41.708,195.329 8.68,195.329 22.346,212.543 8.68,229.757 		"/>
		<polygon fill="#B0B4B7" points="233.22,195.329 200.195,195.329 200.195,229.757 233.22,229.757 222.289,212.543 		"/>
		<polygon points="22.455,193.78 22.455,225.245 32.049,231.942 43.238,231.1 29.473,193.78 		"/>
		<polygon points="219.23,193.644 219.23,225.105 209.638,231.808 198.449,230.959 212.21,193.644 		"/>
		<polygon fill="#8B8B8B" points="215.12,188.296 215.12,222.725 200.195,229.757 200.058,195.329 		"/>
		<polygon fill="#8B8B8B" points="26.6,188.296 26.6,222.725 41.528,229.757 41.664,195.329 		"/>
		<g>
			<rect x="40.42" y="219.769" fill="#FFFFFF" width="160.758" height="40.697"/>
			<path d="M199.178,221.769v36.697H42.42v-36.697H199.178 M203.178,217.769h-4H42.42h-4v4v36.697v4h4h156.758h4v-4v-36.697V217.769
				L203.178,217.769z"/>
		</g>
		<rect x="26.6" y="188.296" fill="#D9DADB" width="188.521" height="34.429"/>
	</g>
	<path d="M59.209,233.035c0.652,0,1.223,0.059,1.71,0.175c0.489,0.116,0.909,0.272,1.262,0.466c0.352,0.195,0.644,0.424,0.876,0.686
		c0.233,0.262,0.416,0.536,0.55,0.824s0.229,0.583,0.284,0.886c0.054,0.303,0.082,0.593,0.082,0.872
		c0,0.419-0.036,0.803-0.108,1.151c-0.073,0.349-0.205,0.663-0.397,0.942c-0.192,0.278-0.45,0.522-0.776,0.732
		c-0.326,0.209-0.741,0.384-1.247,0.523c0.418,0.139,0.8,0.308,1.143,0.506c0.343,0.197,0.637,0.446,0.881,0.746
		c0.244,0.299,0.434,0.664,0.567,1.095c0.134,0.43,0.2,0.95,0.2,1.562c0,0.656-0.102,1.259-0.305,1.805
		c-0.204,0.548-0.498,1.018-0.881,1.409c-0.385,0.393-0.853,0.699-1.405,0.921c-0.553,0.221-1.177,0.331-1.875,0.331H55.86v-15.632
		H59.209z M58.093,239.735h1.116c0.188,0,0.385-0.013,0.594-0.035c0.209-0.023,0.417-0.068,0.623-0.136
		c0.208-0.066,0.407-0.162,0.598-0.288c0.192-0.125,0.36-0.291,0.502-0.497c0.143-0.206,0.258-0.459,0.346-0.759
		c0.086-0.299,0.13-0.658,0.13-1.077c0-0.559-0.099-0.989-0.296-1.291c-0.198-0.303-0.471-0.523-0.82-0.663
		c-0.349-0.14-0.762-0.221-1.239-0.244c-0.477-0.022-0.993-0.035-1.553-0.035V239.735z M58.093,246.992h1.116
		c0.42,0,0.801-0.041,1.144-0.122c0.344-0.081,0.637-0.227,0.882-0.437c0.244-0.209,0.434-0.494,0.565-0.854
		c0.135-0.36,0.201-0.82,0.201-1.378c0-0.559-0.066-1.019-0.201-1.378c-0.132-0.361-0.321-0.646-0.565-0.855
		c-0.245-0.209-0.538-0.354-0.882-0.437c-0.343-0.081-0.724-0.121-1.144-0.121h-1.116V246.992z"/>
	<path d="M66.546,248.667v-15.632h2.233v13.957h3.907v1.675H66.546z"/>
	<path d="M77.175,244.759l-0.783,3.908h-2.23l3.273-15.632h2.307l3.353,15.632h-2.15l-0.839-3.908H77.175z M79.743,243.084
		l-1.116-6.699l-1.116,6.699H79.743z"/>
	<path d="M94.058,248.667h-2.792l-2.791-7.257l-1.117,2.232v5.024h-2.232v-15.632h2.232v6.7l3.351-6.7h2.791l-3.358,6.142
		L94.058,248.667z"/>
	<path d="M101.114,241.41h-2.792v5.582h3.908v1.675H96.09v-15.632h6.141v1.675h-3.908v5.025h2.792V241.41z"/>
	<path d="M113.771,248.667l-2.233-12.332v12.332h-2.232v-15.632h3.026l2.223,11.983l2.224-11.983h3.135v15.632h-2.233v-12.335
		l-2.233,12.335H113.771z"/>
	<path d="M122.502,233.035h2.232v15.632h-2.232V233.035z"/>
	<path d="M128.992,246.992h5.023v1.675h-7.248v-1.675l5.024-12.282h-4.467v-1.675h6.692v1.672L128.992,246.992z"/>
	<path d="M141.082,241.41h-2.792v5.582h3.909v1.675h-6.142v-15.632h6.142v1.675h-3.909v5.025h2.792V241.41z"/>
	<path d="M150.479,248.667l-2.341-7.257h-1.674v7.257h-2.234v-15.632h2.792c0.977,0,1.788,0.101,2.435,0.301
		c0.645,0.2,1.159,0.484,1.544,0.852c0.383,0.366,0.653,0.807,0.811,1.321c0.156,0.514,0.236,1.085,0.236,1.714
		c0,0.383-0.028,0.729-0.084,1.038c-0.055,0.31-0.131,0.584-0.224,0.825c-0.093,0.242-0.197,0.454-0.315,0.637
		c-0.116,0.184-0.236,0.339-0.357,0.467c-0.287,0.308-0.614,0.529-0.981,0.665l2.519,7.812H150.479z M146.465,239.735h0.558
		c0.419,0,0.8-0.039,1.143-0.118s0.637-0.214,0.882-0.406c0.244-0.192,0.433-0.448,0.566-0.771c0.134-0.322,0.2-0.729,0.2-1.217
		c0-0.489-0.066-0.895-0.2-1.217c-0.134-0.323-0.322-0.581-0.566-0.772c-0.245-0.191-0.539-0.327-0.882-0.405
		c-0.343-0.079-0.724-0.118-1.143-0.118h-0.558V239.735z"/>
	<path d="M157.092,244.759l-0.783,3.908h-2.23l3.271-15.632h2.308l3.354,15.632h-2.15l-0.839-3.908H157.092z M159.661,243.084
		l-1.117-6.699l-1.116,6.699H159.661z"/>
	<path d="M171.271,248.667l-3.995-10.399v10.399h-2.234v-15.632h1.467l4.117,10.206v-10.206h2.233v15.632H171.271z"/>
	<path d="M178.241,248.667v-5.024l-3.351-10.607h2.233l2.237,7.816l2.229-7.816h1.994l-3.11,10.607v5.024H178.241z"/>
	<path d="M169.383,201.453l1.483,3.04l3.393,0.523l-2.488,2.329l0.544,3.336l-3.022-1.605l-3.057,1.537l0.618-3.322l-2.431-2.385
		l3.402-0.446L169.383,201.453z"/>
	<path d="M68.448,200.969l1.483,3.045l3.392,0.525l-2.483,2.328l0.538,3.336l-3.02-1.605l-3.061,1.537l0.622-3.321l-2.432-2.388
		l3.401-0.443L68.448,200.969z"/>
	<g>
		<path d="M84.806,199.316h0.392l0.242,0.161l0.055,0.176l0.362,0.581l0.271,0.458l0.121,0.31l0.188,0.296l0.108,0.254l0.055,0.162
			l-0.03,0.109l0.03,0.229l0.055,0.133l0.054,0.219l0.2,0.254l0.323,0.271l0.106,0.199l0.069,0.273l0.08,0.281l0.133,0.214
			l0.139,0.416l0.362,0.298l0.081,0.283l-0.055,0.243l-0.23,0.245l-0.109,0.2l-0.657,0.392l-0.442,0.266l-0.326,0.14l-0.133,0.103
			l-0.176,0.176l-0.137,0.055l-0.334,0.083l-0.218,0.162l-0.162,0.052l-0.472,0.282h-0.109l-0.199,0.164l-0.109,0.024l-0.375,0.366
			l-0.149,0.243l-0.023,0.107v0.122l-0.031,0.158l-0.212,0.217l-0.393-0.026l0.025,0.31l-0.025,0.217l-0.107,0.161l-0.08,0.258
			l-0.139,0.16l-0.066,0.16l0.043,0.258l0.107,0.188l0.135,0.023l0.133,0.055h0.162h0.339l0.254,0.121l0.38,0.031l0.309,0.023
			l0.163,0.03h0.105l0.365,0.052l0.375,0.027l0.363-0.055l0.163-0.109l0.055-0.121l0.066-0.133l-0.025-0.109v-0.106l-0.096-0.147
			l-0.109-0.188l-0.107-0.349l0.084-0.339l0.078-0.135l0.109-0.174l0.282-0.138l0.164-0.023h0.176l0.266,0.106l0.164,0.055
			l0.2,0.227l0.108,0.245l0.052,0.713l-0.052,0.121l-0.055,0.32l-0.054,0.34l-0.081,0.216l-0.147,0.108l-0.107,0.176l-0.028,0.157
			l-0.242,0.272l-0.199,0.2l-1.189,0.959l-0.104,0.175l-0.054,0.352l0.078,0.145l0.028,0.242l-0.053,0.219l-0.163,0.228
			l-0.149,0.027l-0.43,0.082l-0.201-0.055l-0.352-0.055l-0.176-0.053l-0.245-0.108l-0.157-0.094l-0.176-0.027l-0.162-0.027
			l-0.217-0.16l-0.254-0.055l-0.46-0.285l-0.146-0.052l-0.245-0.136l-0.28-0.161l-0.245-0.109l-0.389-0.254l-0.38-0.133
			l-0.334-0.164l-0.162-0.027h-0.415l-0.164-0.093l-0.204-0.188l-0.08-0.191l0.028-0.079l0.052-0.2l0.124-0.193l0.322-0.309
			l0.162-0.24l0.025-0.241l0.066-0.207l0.055-0.375v-0.173l-0.025-0.297v-0.176l-0.096-0.08l-0.025-0.245l0.146-0.08l-0.078-0.174
			l0.053-0.272l-0.029-0.158l-0.121-0.312l0.121-0.133l0.029-0.109v-0.108l-0.029-0.441l0.029-0.109v-0.888l-0.029-0.188v-0.258
			l-0.023-0.375l0.023-0.261l-0.023-0.295l0.023-0.201l0.029-0.134l-0.053-0.106l-0.068-0.501l-0.029-0.309l0.029-0.218l-0.107-0.32
			l-0.082-0.122l-0.295-0.217l-0.096-0.107l-0.028-0.133l0.028-0.26l0.176-0.243l0.375-0.146l0.579-0.083l0.31-0.08l0.108-0.053
			l0.164-0.026l1.158-0.337l0.176-0.082h0.133l0.083-0.081l0.104-0.133l0.206,0.054l0.266-0.137l0.191-0.147l0.419-0.242
			l0.105-0.053l0.527-0.501l0.079-0.189l0.025-0.199l0.174-0.191L84.806,199.316z M82.987,202.022l-0.08,0.218v0.216l0.055,0.147
			l0.053,0.216l0.054,0.363l0.028,0.133l0.053,0.109l0.025,0.579l0.028,0.109l0.055,0.176l0.054,0.27l-0.082,0.188l0.082,0.254
			v0.163l-0.054,0.163l-0.083,0.279l0.028,0.108l0.026,0.109l-0.026,0.229l0.026,0.135v0.191l0.028,0.134l-0.055,0.254l0.081,0.137
			l0.36-0.474l0.395-0.136l0.055-0.133l0.106-0.055l0.109-0.079l0.158-0.054l0.229-0.392l0.055-0.109l-0.055-0.146l-0.133-0.242
			l-0.055-0.137l-0.041-0.176l-0.187-0.405l-0.392-0.997l-0.104-0.078l-0.273-0.526l-0.055-0.188l-0.337-0.58L82.987,202.022z"/>
		<path d="M94.171,194.427l0.109,0.067l0.32-0.041l0.204,0.041l0.242,0.107l0.229,0.213l0.024,0.218l0.03,0.149v0.134l-0.108,0.241
			l-0.393,0.23l-0.135,0.024l-0.201,0.054l-0.3,0.14l-0.133,0.134l-0.121,0.145l-0.216,0.501l-0.054,0.109v0.107l-0.026,0.188
			l-0.026,0.471v0.309l-0.081,1.817l-0.066,0.798l-0.028,0.133l-0.053,0.202l0.122,0.216l-0.041,0.218l0.147,0.121v0.188
			l0.026,0.216l-0.053,0.2v0.296l-0.08,0.176l-0.096,0.325v0.163l0.055,0.146v0.109l-0.055,0.188l0.148,0.446v0.363l0.027,0.27v0.63
			l-0.08,0.085l-0.069,0.145v0.271l0.028,0.309l-0.028,0.218l-0.106,0.266l0.201,0.031l0.055,0.176v0.188v0.36l0.053,0.19
			l-0.026,0.137v0.551l0.026,0.258l-0.053,0.213l-0.08,0.242l0.053,0.204l0.08,0.296v0.23l0.054,0.16l0.026,0.137l0.028,0.254
			l0.081,0.216l0.052,0.188l0.176,0.098l0.608,0.16l0.268,0.243l0.03,0.108v0.278l-0.191,0.297l-0.391,0.339l-0.191,0.134
			l-0.078,0.203l-0.309,0.055l-0.137,0.109l-0.335,0.387l-0.084,0.191l0.164,0.364l0.148,0.133l0.054,0.27l-0.147,0.364
			l-0.219,0.218l-0.188,0.024l-0.254-0.055l-0.108-0.078h-0.134l-0.083-0.055l-0.254-0.134l-0.188-0.23l-0.218-0.137l-0.283-0.16
			l-0.108-0.137l-0.109-0.145l-0.078-0.028l-0.309-0.215l-0.392-0.162l-0.297-0.15l-0.23-0.078l-0.213-0.109l-0.3-0.163
			l-0.092-0.079l-0.055-0.149l-0.053-0.268l0.133-0.283l0.149-0.134l0.108-0.054l0.267-0.137l0.207-0.39v-0.579l0.078-0.164
			l-0.078-0.133l-0.031-0.176l-0.023-0.134l0.078-0.137l0.055-0.442v-0.19l-0.055-0.336l0.133-0.082v-0.188l0.031-0.201l0.023-0.296
			l0.055-0.163l-0.055-0.149l-0.106-0.055v-0.32l-0.136-0.418l0.031-0.337l0.078-0.242l0.055-0.446l-0.028-0.163l0.052-0.605
			l0.031-0.309v-0.134l-0.083-0.246l0.052-0.145l-0.052-0.109l-0.053-0.712l0.026-0.473v-0.325v-0.199l0.026-0.219l0.106-0.254
			l0.164-0.163l-0.164-0.217l-0.133-0.387l-0.026-0.218l0.026-0.121l-0.026-0.107l0.053-0.135l-0.026-0.392l-0.026-0.458
			l-0.028-0.309l-0.055-1.766l-0.078-0.392l-0.043-0.268l-0.023-0.283l-0.38-0.434l-0.176-0.122l-0.16-0.242l-0.054-0.282
			l0.134-0.242l0.229-0.159l0.43-0.028l0.446,0.055l0.23,0.055l0.297,0.078h0.104l0.5,0.312l0.254,0.188l0.162,0.163l0.297,0.307
			l0.149,0.136l0.161-0.055l0.052-0.133l-0.104-0.176l0.267-0.688l0.151-0.164l0.35-0.496l0.389-0.161l0.245-0.121L94.171,194.427z"
			/>
		<path d="M112.226,196.005l0.161,0.049l0.526,0.054l0.361-0.078h0.189h0.295l0.259,0.109l0.188-0.055l0.339,0.055l0.212-0.031
			l0.108-0.023l0.204,0.121l0.159-0.043l0.367,0.043l0.243,0.024h0.158l0.107,0.054h0.23l0.161,0.083l0.605,0.135l0.501,0.134
			l0.308,0.149l0.135,0.025l0.324,0.191l0.176,0.08l0.133,0.023l0.163,0.109h0.254l0.109,0.446h0.136l0.389,0.242l0.501,0.066
			l0.08,0.324l0.188,0.229l0.138,0.135l0.473,0.55l0.133,0.137l0.283,0.419l0.214,0.188l-0.053,0.309l0.135,0.351l0.176,0.055
			l0.133,0.229l0.188,0.218l0.083,0.158l0.121,0.258l0.215,0.769l0.16,0.524l0.031,0.309l0.054,0.219l0.024,0.215v0.526l0.066,0.416
			l-0.066,0.136v0.712l-0.216,1.052l0.028,0.23v0.133l-0.109,0.271l-0.106,0.176l-0.026,0.078l0.054,0.164l-0.082,0.391
			l-0.176,0.321l0.028,0.418l-0.054,0.108l-0.137,0.203l-0.025,0.188l-0.188,0.496l-0.082,0.273l0.027,0.228l-0.097,0.43
			l-0.024,0.151l0.024,0.321l0.069,0.137l-0.148,0.2l-0.108,0.188v0.163l0.081,0.121v0.109l0.027,0.188l0.2,0.229v0.108l0.054,0.188
			l0.219,0.338l0.309,0.188h0.106l0.164-0.107l0.363-0.026l0.378,0.026l0.311,0.325l0.025,0.254l-0.025,0.164l-0.107,0.362
			l-0.23,0.162l-0.659,0.216l-0.446,0.05l-0.269,0.043h-0.106h-0.137l-0.578-0.043l-0.337-0.103h-0.218l-0.121-0.085l-0.27-0.078
			h-0.282l-0.402-0.162l-0.259-0.308l-0.16-0.14l-0.027-0.134l-0.188-0.078l-0.152-0.204l-0.294-0.269l-0.055-0.138l-0.254-0.441
			l-0.109-0.258l-0.109-0.297l-0.023-0.134l-0.055-0.526l-0.079-0.091v-0.246l0.024-0.188l-0.078-0.176l0.023-0.767l-0.054-0.418
			l-0.066-0.271l0.029-0.133l0.067-0.147v-0.325l0.023-0.2l0.03-0.107l0.079-0.139l-0.055-0.213v-0.122l0.08-0.512l0.053-0.201
			l0.109-0.608l-0.025-0.161l-0.162-0.309v-0.219l0.188-0.888l0.055-0.483l-0.055-0.446l0.188-0.229l0.07-0.352l0.025-0.157
			l0.028-0.176l0.026-0.768l-0.026-0.338v-0.109l0.026-0.392l-0.08-0.106l0.025-0.402l-0.096-0.149l-0.025-0.296l-0.08-0.109
			l-0.027-0.121l0.027-0.215l-0.082-0.27l-0.078-0.204l-0.084-0.105l-0.104-0.082l-0.03-0.163l-0.146-0.067l-0.108-0.267
			l-0.418-0.391l-0.161-0.109l-0.188-0.023l-0.191-0.031l-0.069-0.078l-0.212-0.055h-0.245l-0.228,0.079h-0.105l-0.219,0.137
			l-0.121,0.159l-0.216,0.525l-0.055,0.261v0.211l-0.025,0.204v0.242l-0.053,0.473v0.188l-0.135,1.238l-0.029,0.229l-0.09,0.272
			l0.023,0.133l0.176,0.312l0.026,0.243l-0.202,0.31l0.176-0.03l0.026,0.381l-0.202,0.283l0.027,0.214l0.256,0.282l0.025,0.446
			l-0.025,0.133l0.08,0.5l-0.108,0.378l-0.024,0.81l0.133,0.495l-0.025,0.107l-0.029,0.379l-0.133,0.176l-0.23,0.269h0.285
			l0.078,0.204v0.108l-0.025,0.212l0.025,0.338l0.029,0.271l0.216,0.333l0.053,0.38l0.039,0.176l-0.066,0.242l0.066,0.163v0.146
			l0.164,0.634l0.078,0.109l0.031,0.107l0.105,0.255l0.105,0.133l0.122,0.109l0.191,0.283l0.297,0.241l0.199,0.164l0.379,0.176
			l0.176,0.106l0.134,0.054l0.163-0.027l0.108,0.136l0.146,0.08l0.08,0.133l0.053,0.23v0.164l-0.105,0.309l-0.105,0.106
			l-0.067,0.109l-0.191,0.078l-0.107,0.109l-0.08,0.028l-0.202,0.026l-0.137,0.023l-0.212,0.043l-0.229,0.029l-0.38-0.029
			l-0.336-0.093h-0.191h-0.157l-0.258-0.107l-0.297-0.03l-0.145-0.023l-0.164-0.029l-0.417-0.054l-0.189-0.081h-0.215h-0.151
			l-0.188-0.079l-0.217,0.026h-0.334l-0.138-0.081l-0.106,0.055h-0.147l-0.216-0.23h-0.16l-0.203,0.082h-0.375l-0.313,0.066
			l-0.135-0.039l-0.338,0.039l-0.078,0.082l-0.188,0.106l-0.055-0.134l-0.392-0.055l-0.163,0.082h-0.079l-0.254,0.134l-0.297,0.242
			l-0.394,0.418l-0.446,0.054l-0.241-0.054l-0.309-0.164l-0.135-0.176l-0.105-0.294v-0.188l0.023-0.394l0.164-0.31l0.078-0.213
			l0.149-0.162l0.218-0.106l0.134-0.098l0.363-0.212l0.5-0.191l0.134-0.026l0.215-0.12l0.335-0.188l0.366-0.325l0.08-0.175
			l0.055-0.109l0.161-0.441l0.026-0.325l0.027-0.199v-0.109v-0.134l0.052-0.108l-0.024-0.176l0.055-0.434l0.023-0.551l-0.105-0.149
			l0.027-0.212l0.148-0.243l-0.039-0.176l0.039-0.107V207.9v-0.578l-0.039-0.259v-0.106l0.066-0.136l0.023-0.164l-0.051-0.105
			l-0.039-0.148l0.09-0.405l-0.09-0.2v-0.271l0.119-0.2l-0.029-0.242v-0.772l0.029-0.47l0.025-0.229l-0.055-0.4l-0.023-0.284
			l0.023-0.473l-0.023-0.271l-0.098-0.133l0.07-0.364l0.027-0.137v-0.159l-0.066-0.149l0.039-0.163l0.08-0.213l-0.053-0.258
			l-0.066-0.351l0.039-0.145v-0.191v-0.497l-0.094-0.219v-0.176v-0.349l-0.218-0.335l-0.079-0.083l-0.188-0.055l-0.258-0.078
			l-0.133-0.03l-0.581,0.085l-0.109,0.055l-0.173,0.106l-0.188,0.104l-0.219,0.259l-0.279,0.388l-0.138,0.272l-0.079,0.106v0.285
			l-0.337,0.352v0.28l-0.055,0.135l-0.055,0.217l0.082,0.389l-0.082,0.134l-0.133,0.176l0.055,0.162l0.107,0.217l-0.084,0.229
			l0.031,0.739l0.078,0.245l-0.133,0.024l0.023,0.2h0.137l0.082,0.327v0.228l0.106,0.352l0.067,0.336l0.163,0.269l0.055,0.15
			l0.133,0.241l0.109,0.418l0.023,0.133l0.031,0.083v0.176l-0.109,0.375l-0.164,0.309l-0.133,0.246l-0.055,0.364l0.055,0.159
			l0.026,0.161l0.053,0.204l0.054,0.242l-0.054,0.393l0.054,0.267l-0.188,0.203l0.081,0.16l0.216,0.055l-0.025,0.19l-0.107,0.279
			v0.084l-0.03,0.213l-0.024,0.149l-0.055,0.163v0.419l-0.135,0.349v0.284l-0.123,0.157l-0.106,0.139l-0.082,0.282l-0.162,0.661
			l-0.08,0.161l-0.417,0.715l-0.5,0.496l-0.158,0.137l-0.229,0.176l-0.325,0.105l-0.337,0.191l-0.605,0.175h-0.27l-0.203,0.08
			h-0.742l-0.442-0.03l-0.379-0.122l-0.121-0.023l-0.16-0.079l-0.161-0.085l-0.362-0.133l-0.138-0.055l-0.336-0.31l-0.191-0.294
			l-0.078-0.108l-0.079-0.176v-0.188l-0.176-0.108l-0.03-0.106l-0.054-0.81l0.151-0.394l0.078-0.188l0.297-0.267l0.136-0.054
			l0.176-0.098l0.106-0.024h0.106l0.085-0.028h0.2l0.27,0.121l0.188,0.162l0.176,0.163l0.133,0.309l0.029,0.242l-0.029,0.217
			l-0.055,0.199l-0.107,0.296l0.029,0.205l0.162,0.241l0.417,0.055l0.322-0.028l0.258-0.133l0.079-0.164l0.164-0.199l0.157-0.606
			l-0.024-0.663l-0.078-0.604v-0.163l-0.085-0.146l-0.024-0.218v-0.109l-0.082-0.161l-0.053-0.229l-0.054-0.159l-0.029-0.107
			l-0.024-0.256l-0.149-0.162l-0.026-0.083l-0.054-0.335l-0.138-0.324l-0.024-0.109l-0.309-0.942l-0.03-0.109v-0.228l-0.159-0.403
			l-0.028-0.147l-0.055-0.376l-0.024-0.284v-0.161v-0.109l-0.03-0.284v-0.846l0.055-0.339l0.029-0.133v-0.217l0.025-0.339
			l0.163-0.496l0.055-0.216l0.066-0.133l0.161-0.34l-0.028-0.216l0.055-0.176l0.079-0.133l0.138-0.269l0.08-0.312l0.149-0.267
			l0.267-0.284v-0.392l0.108-0.133l0.149-0.109l0.136-0.079l0.023-0.082l0.055-0.176l0.109-0.081l0.188-0.216l0.579-0.78
			l0.229-0.107l0.188-0.242l0.162-0.084l0.363-0.2l0.055-0.109l0.108-0.078l0.121-0.083l0.434-0.134l0.31-0.254l0.39-0.139
			l0.244-0.157l0.297-0.176h0.121l0.105-0.137l0.134,0.027l0.285-0.055l0.188-0.053l0.337-0.135h0.189l0.444-0.028l0.401-0.133
			l0.124,0.024l0.16-0.067l0.634-0.055l0.109-0.023l0.16-0.03L112.226,196.005z"/>
		<path d="M130.266,199.344h0.164l0.362,0.082l0.416,0.188l0.5,0.31l0.351,0.312l0.2,0.079l0.164,0.216l0.188,0.026l0.078,0.161
			l0.207,0.15l0.495,0.158l0.139,0.109l0.188,0.055l0.106-0.025h0.176l0.268,0.052l0.258,0.053h0.213l0.163,0.124l0.109,0.188v0.213
			l-0.081,0.259l-0.216,0.242l-0.134,0.418l-0.029,0.133l-0.025,0.191v0.889l-0.067,0.441l0.038,0.191l-0.038,0.243l0.067,0.441
			l-0.029,0.636l0.029,0.174v0.688l-0.096,0.217l0.028,0.553v0.254l0.038,0.137l0.136,0.134l0.027,0.109v0.362l-0.027,0.321
			l0.052,0.176l0.055,0.137v0.334l0.03,0.191l0.024,0.525l0.082,0.134l0.159,0.055h0.122l0.137,0.023h0.134h0.188l0.284,0.23v0.38
			l-0.026,0.108l-0.106,0.2l-0.151,0.242l-0.213,0.284l-0.108-0.027l-0.083,0.135l-0.106,0.135l-0.12,0.133l-0.16,0.122l-0.03,0.106
			l-0.109,0.085l-0.188,0.133l-0.121,0.162l-0.023,0.229l0.023,0.108l0.083,0.106l0.147,0.312v-0.108l-0.08,0.512l-0.203,0.228
			l-0.16,0.054l-0.366,0.028l-0.375-0.109l-0.364-0.106l-0.191-0.094l-0.333-0.16v-0.109l-0.664-0.446l-0.133-0.188l-0.176-0.135
			l-0.268-0.258l-0.283-0.188l-0.137-0.188l-0.16-0.121l-0.245-0.08l-0.2,0.025l-0.322,0.202l-0.069,0.161l-0.055,0.581l0.313,0.324
			l0.078,0.31l-0.107,0.309l-0.444,0.161l-0.324,0.055l-0.282-0.027l-0.496-0.188l-0.38-0.148l-0.068-0.105l-0.188-0.219
			l-0.162-0.176l-0.284-0.188l-0.133-0.134l-0.162-0.054l-0.08-0.138l-0.363-0.226l-0.137-0.053h-0.442l-0.109-0.054h-0.161
			l-0.202-0.164l-0.052-0.095l-0.083-0.188l0.083-0.323l0.161-0.203l0.121-0.079l0.215-0.218l0.16-0.254l0.084-0.216v-0.109v-0.176
			l0.092-0.267V210l-0.066-0.146l-0.025-0.352l0.05-0.148l0.069-0.136v-0.216l-0.069-0.134l-0.024-0.339l0.024-0.079l0.042-0.133
			l0.027-0.204l-0.027-0.847l-0.23-0.364v-0.246l0.139-0.176l0.201-0.156l0.106-0.055l0.392-0.055l0.432-0.055l0.121,0.026
			l0.375-0.054l0.107-0.052l0.151-0.029l0.188-0.025h0.337h0.136l0.106-0.029l0.441-0.2l0.141-0.108h0.335l0.268-0.188l0.285-0.203
			l0.215-0.268l0.081-0.42l0.079-0.213v-0.139v-0.119l0.175-0.351l-0.038-0.364l-0.054-0.242l-0.137-0.254l-0.442-0.473
			l-0.188-0.083l-0.163-0.078h-0.256l-0.378-0.218l-0.282-0.079h-0.216l-0.472,0.079l-0.473,0.379l-0.105,0.202v0.271v0.284
			l0.079,0.188l0.135,0.051l0.337-0.105h0.109l0.109,0.055l0.254,0.023l0.349,0.284l0.029,0.107l0.025,0.109l0.027,0.266
			l-0.027,0.448l-0.133,0.254l-0.244,0.243l-0.39,0.19l-0.297,0.055h-0.337l-0.242-0.055l-0.255-0.108l-0.271-0.082l-0.363-0.364
			l-0.161-0.188v-0.163l-0.028-0.109l-0.123-0.054l-0.024-0.308l-0.08-0.309l0.025-0.405l0.029-0.133V202.9l0.119-0.322l0.027-0.229
			l0.458-0.661l0.066-0.162l0.218-0.174l0.525-0.297l0.188-0.108l0.472-0.134l0.27-0.176l0.473-0.161l0.255-0.284l0.023-0.078
			l0.055-0.191l0.055-0.243l0.339-0.254L130.266,199.344z M131.237,206.43l-0.312,0.204l-0.214,0.133l-0.245,0.055h-0.173
			l-0.243,0.106l-0.176,0.164l-0.133-0.028h-0.164l-0.157,0.149l0.024,0.188l0.023,0.188l0.055,0.258l0.086,0.793l0.023,0.138
			l-0.078,0.2l0.023,0.325l-0.055,0.807v0.294l-0.254,0.261l0.23,0.024l0.16,0.027h0.336l0.161,0.027l0.164-0.027l0.526,0.027
			l0.283,0.055l0.32,0.078l-0.079-0.188l-0.08-0.109l-0.136-2.127l-0.08-0.446l0.107-0.268L131.237,206.43z"/>
		<path d="M142.163,199.344h0.23l0.458,0.16l0.176,0.109l0.901,0.781l0.107,0.106l0.176,0.108l0.445,0.258l0.136,0.025l0.188,0.109
			l0.188,0.023h0.173l0.273,0.19l0.362,0.027l0.188,0.025h0.205l0.32,0.258l0.055,0.108v0.079l-0.268,0.502l-0.029,0.079
			l-0.055,0.133l-0.145,0.312l-0.029,0.298l-0.107,0.552l-0.053,0.254l-0.054,0.216v0.164l-0.055,0.524l-0.027,0.176v0.32v0.363
			l-0.026,0.138l-0.055,0.188l0.081,0.15l0.082,0.399l-0.108,0.176l-0.028,0.271l0.082,0.256v0.107l-0.108,0.272v0.337l0.108,0.188
			v0.362l-0.082,0.271l0.055,0.335v0.392l0.082,0.164l0.079,0.388l0.242,0.215l0.446,0.582l0.496,0.634l0.055,0.107l0.108,0.552
			l0.024,0.133l0.03,0.283l-0.03,0.325v0.146l-0.05,0.19v0.365l-0.028-0.122l-0.025,0.091l-0.404,0.985l-0.176,0.2l-0.138,0.19
			l-0.496,0.474l-0.162,0.107l-0.229,0.334l-0.32,0.191l-0.137,0.159l-0.082,0.029l-0.524,0.201l-0.472,0.161l-0.176,0.055
			l-0.162,0.109l-0.417,0.106l-0.109,0.093h-0.108l-0.157,0.055l-0.207,0.079l-0.133,0.03l-0.271,0.133l-0.133,0.028l-0.23,0.026
			l-0.133,0.161l-0.134,0.097l-0.123,0.296l0.177,0.389l0.05,0.19l-0.133,0.471l-0.147,0.188l-0.161,0.025l-0.271,0.15l-0.254,0.025
			l-0.392-0.093l-0.483-0.191l-0.257-0.079l-0.42-0.308l-0.32-0.219h-0.109l-0.23-0.161l-0.241-0.254l-0.135-0.055L138,217.61
			l-0.337-0.227l-0.189,0.027l-0.188-0.161l-0.149-0.188l-0.133-0.082l-0.109-0.054l-0.133-0.121l-0.164-0.053l-0.146-0.03
			l-0.082-0.078l-0.134-0.109l-0.218-0.055l-0.121-0.024l-0.242-0.082l-0.255,0.027h-0.324l-0.418,0.213l-0.188,0.339v0.242
			l0.108,0.109l0.243,0.027h0.176l0.157-0.082l0.108-0.081h0.204l0.266,0.055l0.109,0.133l0.203,0.176l0.027,0.164l-0.027,0.242
			l-0.067,0.228l-0.081,0.163l-0.133,0.134l-0.055,0.078l-0.134,0.151l-0.229,0.055l-0.216,0.079h-0.445l-0.606-0.188l-0.218-0.098
			l-0.078-0.023l-0.23-0.243l-0.579-0.837l0.284-0.105l-0.202-0.055v-0.524l0.027-0.218l0.066-0.161l0.082-0.256l0.054-0.107
			l0.135-0.218l0.216-0.228l0.226-0.214l0.501-0.259l0.217-0.054l0.419-0.161l0.24-0.052h0.446l0.135-0.03l0.335,0.163l0.216-0.026
			l0.309,0.081l0.379-0.326l0.024-0.172l0.151-0.19l0.107-0.107l0.08-0.052l0.217-0.055l0.199-0.055l0.188,0.027h0.217l0.257,0.082
			l0.161,0.079l0.228,0.055l0.188,0.055l0.055,0.108l0.243,0.175l0.148,0.08l0.164,0.054l0.078,0.106l0.136,0.081l0.204,0.255
			l0.215,0.054l0.442,0.325l0.326,0.2l0.122,0.03l0.188,0.106l0.188-0.083l0.361,0.109h0.218h0.254l0.38-0.055l0.66-0.254
			l0.175-0.055l0.082-0.079l0.16-0.139l0.055-0.107l0.174-0.175l0.188-0.352l0.03-0.278l-0.108-0.108l-0.025-0.109v-0.107
			l0.213-0.339v-0.133l-0.109-0.579l-0.279-0.309l-0.137-0.164l-0.055-0.108l-0.053-0.134l-0.135-0.149l-0.526-0.297l-0.254,0.055
			l-0.216,0.055l-0.271,0.162l-0.124,0.025l-0.375,0.283l-0.175,0.218l-0.053,0.145l-0.08,0.406l0.025,0.106l0.107,0.31v0.3
			l-0.026,0.176l-0.216,0.134l-0.416,0.055l-0.137-0.055l-0.418-0.162l-0.551-0.394l-0.352-0.387l-0.203-0.138l-0.161-0.188h-0.19
			l-0.2-0.201l-0.079-0.029l-0.163-0.107l-0.134-0.052l-0.258-0.106h-0.296l-0.2-0.191l-0.351-0.228l-0.083-0.191l-0.024-0.188
			l0.107-0.308l0.268-0.271l0.107-0.121v-0.188l0.066-0.272l-0.024-0.121l-0.042-0.242V210l0.042-0.2l0.055-0.135l0.024-0.525
			l-0.121-0.189l-0.024-0.202l-0.028-0.163l0.028-0.108l0.066-0.104l0.079-0.205v-0.524l0.03-0.109v-0.106l0.024-0.214l-0.024-0.121
			l-0.03-0.188v-0.108l0.055-0.216l-0.055-0.254v-0.191l0.055-0.106l-0.024-0.176l-0.03-0.107v-0.188v-0.419l0.055-0.243
			l-0.024-0.363v-0.241l-0.085-0.201l0.03-0.191v-0.39l-0.121-0.47l-0.054-0.108l-0.243-0.216l-0.054-0.164l0.025-0.333l0.271-0.367
			h0.12l0.134-0.135h0.134l0.139-0.053l0.174-0.026l0.214-0.083l0.137,0.029h0.284l0.604-0.162l0.081-0.066l0.294-0.03l0.176-0.079
			l0.272-0.133l0.162-0.138l0.121-0.054l0.188-0.052l0.108,0.052l0.161,0.028l0.026-0.338l0.149-0.133l0.159-0.284l0.055-0.109
			l0.029-0.133l0.08-0.164l0.148-0.282L142.163,199.344z M141.112,202.053l-0.109,0.024l-0.159,0.054l-0.054,0.135v0.107
			l0.135,0.366l0.023,0.213l0.03,0.176l0.055,0.297l-0.03,0.364l0.03,0.434v0.175l-0.03,0.441l0.084,0.137l-0.029,0.161l0.055,0.445
			v0.133l0.054,0.312v0.243l-0.188,0.496l0.282,0.109l-0.052,0.282v0.188l-0.069,0.242l0.026,0.501l0.043,0.229l-0.043,0.158
			l-0.026,0.271l-0.082,0.392l-0.109,0.133l-0.078,0.473l-0.471,0.47l0.254,0.055l0.325,0.164l0.161,0.023l0.202,0.055l0.35,0.066
			l0.254,0.055l0.193,0.03l0.134,0.024h0.176l0.215,0.055l0.255,0.027l0.133-0.191l-0.023-0.145l-0.109-0.297l-0.121-0.337v-0.188
			v-0.139l-0.028-0.255l0.028-0.9l-0.028-0.204v-0.135l-0.026-0.188l0.133-0.259l-0.052-0.242l-0.081-0.282l0.055-0.527l0.078-0.294
			l0.043-0.363l0.026-0.188l-0.069-0.31l0.069-0.242l-0.147-0.217v-0.15l0.078-0.188l0.098-0.108l0.32-0.888l0.085-0.272
			l0.146-0.104l-0.418-0.176l-0.309-0.03l-0.403-0.267l-0.152-0.082l-0.266-0.23l-0.109-0.055l-0.228-0.133l-0.135-0.078
			l-0.107-0.03L141.112,202.053z"/>
		<path d="M152.955,199.344h0.149l0.297,0.027l0.633,0.309l0.136,0.216l0.254,0.08l0.876,0.662l0.229,0.108l0.405,0.227l0.121,0.053
			l0.163,0.055l0.161,0.055l0.388,0.163l0.34,0.095l0.43,0.296l0.054,0.31l-0.025,0.163l-0.081,0.157l-0.081,0.109l-0.08,0.392
			l0.025,0.163v0.176l-0.108,0.376l-0.054,0.362l0.082,0.416l-0.082,0.298v0.137l0.029,0.176l-0.029,0.133v0.362l-0.053,0.138v0.242
			l0.027,0.176l-0.027,0.32v0.219l0.053,0.121l0.029,0.215l-0.029,0.16l-0.053,0.259l0.082,0.296v0.229l-0.029,0.135l-0.079,0.524
			l-0.067,0.109l0.121,0.078l-0.054,0.109l0.108,0.7l0.053,0.376l-0.053,0.082l0.024,0.176l-0.024,0.133l0.079,0.242l0.242,0.085
			l0.228,0.309v0.107l-0.119,0.201l-0.108,0.162l-0.105,0.055l-0.367,0.078l-0.106,0.055l-0.136,0.084h-0.188l-0.2,0.025
			l-0.191,0.078l-0.215,0.07l-0.523,0.243l-0.284,0.08l-0.501,0.188l-0.104,0.067l-0.609,0.27l-0.215,0.188l-0.106,0.176
			l0.025,0.216l0.133,0.255l0.055,0.327l-0.106,0.215l-0.471,0.31l-0.337-0.028l-0.138-0.054l-0.104-0.027l-0.084-0.079l-0.363-0.23
			l-0.294-0.051l-0.055-0.109l-0.23-0.03l-0.108-0.052l-0.106-0.082l-0.202-0.078l-0.107-0.121l-0.445-0.243l-0.349-0.312
			l-0.718-0.32l-0.199-0.083l-0.164-0.08l-0.133-0.066h-0.106l-0.34-0.162l-0.188-0.055l-0.176-0.242l0.084-0.284l0.334-0.388
			l0.055-0.163l0.109-0.243l0.078-0.312l0.043-0.32l0.026-0.082l0.08-0.618l0.026-0.634l0.137-0.109l-0.163-0.162v-0.388v-0.352
			v-0.119l-0.028-0.163l0.055-0.242l-0.026-0.149l-0.028-0.375l0.108-0.363v-0.164l-0.108-0.188l0.028-0.176l0.08-0.271
			l-0.108-0.109l-0.026-0.254v-0.108v-0.254l0.055-0.138l-0.055-0.16l-0.025-0.191l0.025-0.416l-0.025-0.214l-0.026-0.47
			l-0.149-0.367l-0.159-0.106l-0.164-0.19l-0.055-0.23l0.027-0.078l0.082-0.133l0.055-0.109l0.32-0.149l0.282-0.08l0.242-0.026
			l0.366-0.081l0.16-0.026l0.366-0.108l0.365-0.134l0.604-0.177l0.241-0.214l0.34-0.188l0.242-0.229l0.133-0.243l0.055-0.174
			l-0.026-0.296l0.026-0.108l0.118-0.204l0.219-0.163L152.955,199.344z M152.35,202.186l-0.216,0.08v0.162l0.027,0.121l0.108,0.217
			v0.526l0.025,0.497v0.351l0.027,0.119v0.084v0.134v0.271v0.146v0.137l-0.027,0.213l0.055,0.175v0.434l0.026,0.176l0.028,0.212
			l-0.055,0.242l-0.055,0.285l0.188,0.417v0.107l-0.133,0.352l0.026,0.203l-0.026,0.214l-0.08,0.229l0.053,0.109l-0.053,0.27
			l-0.054,0.526l-0.055,0.334l-0.107,0.245l-0.15,0.31l-0.055,0.133l0.122,0.137l0.405,0.16l0.173,0.03h0.109l0.352,0.091h0.257
			l0.135,0.03l0.551,0.106h0.163l0.283-0.027l0.055-0.2v-0.108l-0.311-0.352l-0.162-0.282l-0.083-0.527l0.03-0.188l0.053-0.688
			l0.025-0.283v-0.159l-0.025-0.083l0.025-0.254l-0.054-0.139l0.028-0.471l0.189-0.188l0.023-0.109l-0.159-0.309l0.026-0.242
			l0.133-0.31l-0.188-0.215v-0.136l-0.054-0.337v-0.524l-0.055-0.218l0.055-0.254v-0.297l0.054-0.188l-0.025-0.258l0.054-0.212
			l0.108-0.23v-0.217l-0.403,0.108l-0.176-0.055l-0.191-0.054l-0.213-0.135l-0.204-0.148l-0.161-0.164l-0.363-0.103L152.35,202.186z
			"/>
	</g>
</g>
<g id="Capa_15">
	<g>
		<path d="M220.517,82.23c-0.354-0.289-0.746-0.521-1.171-0.69c-1.645-0.653-3.317-1.297-4.971-1.912
			c-0.204-0.074-0.41-0.15-0.61-0.226l-0.153-0.053c-0.043-0.017-0.086-0.034-0.126-0.047c-4.28-1.595-8.583-3.14-12.824-4.61
			c-1.413-13.721-2.95-31.002-2.911-40.968c0.002-0.762-0.19-1.514-0.564-2.174c-3.802-6.805-13.796-14.045-27.428-19.87
			c-14.9-6.372-32.284-10.146-48.942-10.627c-3.304-0.096-6.625-0.063-9.873,0.09c-7.936,0.376-30.27-1.583-36.592,13.68
			c-6.632,11.614-15.427,30.405-19.737,39.812c-15.889,3.202-23.286,8.048-25.518,9.767c-3.315,2.281-4.178,4.972-4.324,6.826
			c-0.049,0.631,0.039,1.257,0.245,1.833c0.654,3.838,3.99,8.103,10.535,13.536c4.762,3.96,9.496,7.05,9.694,7.184
			c0.636,0.413,1.37,0.657,2.13,0.709l150.223,9.895c0.051,0.004,0.106,0.007,0.163,0.007c0.325,0.01,0.653-0.016,0.981-0.081
			c0.218-0.043,5.433-1.073,10.639-2.781c3.229-1.063,5.821-2.177,7.707-3.328c1.76-1.069,2.931-2.191,3.683-3.293
			c0.67-0.528,1.31-1.329,1.762-2.54C223.508,89.758,223.775,84.901,220.517,82.23z"/>
		<path fill="#777777" d="M30.301,69.497c-5.965,5.372,17.36,20.57,17.36,20.57l150.226,9.896c0,0,25.785-5.063,18.301-11.089
			C204.267,71.895,92.77,64.438,92.77,64.438S36.268,64.124,30.301,69.497z"/>
		<g>
			<g>
				<g>
					<g>
						<path fill-rule="evenodd" clip-rule="evenodd" d="M53.082,142.086c1.337,4.646,4.299,7.873,6.617,7.202
							c2.31-0.664,3.102-4.97,1.763-9.618c-1.339-4.647-4.301-7.867-6.608-7.204C52.533,133.136,51.744,137.439,53.082,142.086z"/>
						<path d="M43.616,143.96c-1.856-8.868,6.796-11.165,6.796-11.165l4.441-0.329l5.844,16.01
							C60.697,148.476,46.04,154.233,43.616,143.96z"/>
						<path fill-rule="evenodd" clip-rule="evenodd" fill="#D1AB6F" d="M54.956,135.077c5.482,2.653,4.368,11.151,4.368,11.151
							s-10.235,4.275-12.508-2.386C44.549,137.18,51.389,134.484,54.956,135.077z"/>
						<path fill="#31738B" d="M59.038,140.858c-0.436,5.086-3.573,5.902-6.236,6.695c3.254-0.002,6.522-1.325,6.522-1.325
							S59.685,142.797,59.038,140.858z"/>
					</g>
					<path fill-rule="evenodd" clip-rule="evenodd" fill="#D7DADD" d="M54.956,135.077c0,0-4.702-0.857-7.541,3.314
						c-0.988,2.085,10.843,0.14,10.126-1.086C56.727,135.962,54.956,135.077,54.956,135.077z"/>
					<path fill="#29264D" d="M102.757,179.011c-39.741-10.03-63.916-50.522-53.887-90.267
						c10.033-39.742,50.527-63.914,90.271-53.886c39.748,10.032,63.921,50.524,53.886,90.268
						C183.002,164.867,142.503,189.039,102.757,179.011z"/>
					<path d="M138.742,36.446c38.935,9.821,62.525,49.348,52.699,88.281c-9.823,38.929-49.351,62.522-88.28,52.699
						c-38.934-9.825-62.528-49.35-52.705-88.284C60.286,50.215,99.811,26.621,138.742,36.446 M139.547,33.271
						C98.924,23.02,57.534,47.724,47.285,88.345c-10.252,40.619,14.457,82.002,55.073,92.254
						c40.619,10.252,82.004-14.453,92.257-55.071C204.868,84.908,180.163,43.522,139.547,33.271L139.547,33.271z"/>
					<path fill="#C9C3E6" d="M65.416,114.745c-7.418,9.265-6.746,21.372-5.097,25.196C35.146,103.421,54.275,52.33,98.112,38.038
						C83.215,44.822,52.715,73.514,65.416,114.745z"/>
					<path d="M138.742,36.446c-1.336-0.338-2.673-0.632-4.008-0.894c36.365,9.376,58.309,46.606,49.039,83.342
						c-1.508,5.968-3.752,11.545-6.6,16.68c0.66,3.823,0.547,7.901-0.485,11.991c-3.593,14.235-16.932,23.146-29.792,19.898
						c-1.435-0.357-2.791-0.862-4.085-1.479c-12.936,5.243-27.56,6.582-42.098,2.915C65,159.887,43.097,124.057,50.744,88.064
						c-0.099,0.362-0.193,0.719-0.288,1.078c-9.823,38.935,13.771,78.459,52.705,88.284c38.93,9.823,78.457-13.771,88.28-52.699
						C201.268,85.794,177.677,46.268,138.742,36.446z"/>
					<g>
						<path fill-rule="evenodd" clip-rule="evenodd" d="M188.228,139.306c-1.866,4.646-5.261,7.649-7.575,6.715
							c-2.311-0.928-2.669-5.448-0.799-10.093c1.881-4.644,5.268-7.645,7.583-6.712
							C189.746,130.148,190.105,134.666,188.228,139.306z"/>
						<path d="M197.778,142.245c2.862-8.934-5.804-12.218-5.804-12.218l-14.017,5.194l1.747,9.864
							C179.705,145.086,194.194,152.571,197.778,142.245z"/>
						<path fill-rule="evenodd" clip-rule="evenodd" fill="#D1AB6F" d="M187.052,131.893c-5.935,2.148-5.688,11.015-5.688,11.015
							s10.086,5.498,13.138-1.125C197.544,135.167,190.787,131.659,187.052,131.893z"/>
						<path fill="#31738B" d="M182.223,137.406c6.548,4.233,12.546,2.837,12.917,2.468c-1.708,9.439-13.776,3.033-13.776,3.033
							S181.354,139.342,182.223,137.406z"/>
					</g>
				</g>
			</g>
			<polygon points="176.408,79.453 175.61,80.694 173.487,79.39 170.64,82.953 172.789,82.618 177.967,86.774 177.767,82.702 
				179.096,80.304 			"/>
			<polygon fill="#C9C3E6" points="184.134,86.436 182.238,87.038 183.85,85.257 176.801,81.581 177.218,85.038 173.222,80.765 
				170.64,82.953 170.823,83.386 172.789,82.618 178.023,91.693 184.505,88.159 			"/>
			<g>
				<g>
					<path d="M97.176,39.542l-0.958-0.681c0.88-1.243,1.448-1.886,1.472-1.912l0.878,0.78
						C98.563,37.737,98.014,38.354,97.176,39.542z"/>
				</g>
				<g>
					<path d="M89.429,95.696l-1.174-0.063c0.006-0.178,0.015-0.357,0.017-0.538c0.021-0.894-0.027-1.78-0.149-2.633
						c-0.121-0.509-0.233-1.012-0.342-1.514l1.151-0.249c0.105,0.503,0.22,1.009,0.343,1.518l0.008,0.055
						c0.131,0.921,0.188,1.887,0.169,2.853C89.443,95.315,89.439,95.507,89.429,95.696z M86.878,86.108
						c-0.256-1.628-0.46-3.271-0.612-4.885l1.172-0.111c0.147,1.59,0.354,3.207,0.607,4.812L86.878,86.108z M85.96,76.309
						c-0.041-1.263-0.043-2.535-0.018-3.783c0.01-0.384,0.022-0.764,0.036-1.138l1.174,0.042c-0.016,0.37-0.026,0.744-0.033,1.12
						c-0.026,1.228-0.02,2.482,0.014,3.728L85.96,76.309z M87.503,66.6l-1.166-0.128c0.175-1.635,0.416-3.277,0.71-4.879
						l1.157,0.212C87.916,63.38,87.682,64.99,87.503,66.6z M89.262,57.079l-1.138-0.296c0.42-1.595,0.903-3.184,1.444-4.721
						l1.106,0.389C90.15,53.96,89.673,55.52,89.262,57.079z M92.46,47.956l-1.074-0.478c0.679-1.525,1.422-3.014,2.205-4.42
						l1.03,0.572C93.849,45.009,93.125,46.465,92.46,47.956z"/>
				</g>
				<g>
					<path d="M87.653,102.929l-1.048-0.529c0.004-0.006,0.4-0.806,0.808-2.104l1.12,0.349
						C88.101,102.044,87.673,102.897,87.653,102.929z"/>
				</g>
			</g>
			<path d="M162.82,113.219c-1.948-8.517-5.938-15.949-11.544-21.502c-5.598-5.557-12.607-8.867-19.73-9.331
				c-0.452-0.026-0.914-0.044-1.371-0.056c-15.12-0.335-27.551,10.126-34.973,16.37c-1.262,1.063-2.41,2.028-3.38,2.782
				c-0.783-0.129-1.609-0.202-2.471-0.222c-1.946-0.042-3.792,0.202-5.188,0.471c-1.486-1.302-3.798-3.246-6.479-5.205
				c-6.693-4.891-12.072-7.318-16.442-7.411c-0.986-0.024-1.933,0.076-2.816,0.289l-0.276,0.069l-0.264,0.103
				c-7.122,2.776-11.827,8.494-13.616,16.547c-1.279,5.731-0.582,10.718-0.55,10.928l0.077,0.523l0.198,0.486
				c0.197,0.486,5.011,11.95,17.051,12.215c1.639,0.033,3.322-0.147,5.044-0.546c1.754,3.913,5.731,7.232,14.126,7.413
				c1.942,0.049,4.097-0.065,6.584-0.332c11.757,0.049,19.281-1.923,22.894-6c4.343,3.18,10.971,6.745,19.071,6.918
				c5.587,0.123,11.093-1.387,16.372-4.485c5.947-3.488,11.667-9.065,16.994-16.567l1.118-1.571L162.82,113.219z"/>
			<path fill="#C9C3E6" d="M92.736,106.14c6.36-4.096,20.604-20.608,38.535-19.451c12.435,0.808,23.708,11.603,27.339,27.49
				c-26.514,37.348-51.239,8.839-51.239,8.839s4.819,9.643-20.802,9.478c-10.741,1.201-16.978-0.505-17.387-8.364
				c-15.258,6.854-21.197-7.694-21.197-7.694s-2.509-17.394,11.466-22.838c7.883-1.922,23.507,12.854,23.507,12.854
				S88.583,104.691,92.736,106.14z"/>
			<g>
				<path d="M80.334,131.806l-0.284-0.007l0.011-0.294l0.277,0.007c0.31,0.006,0.622,0.006,0.943,0.006l0.002,0.295
					C80.96,131.814,80.644,131.812,80.334,131.806z M78.826,131.733c-0.427-0.036-0.836-0.08-1.227-0.136l0.038-0.288
					c0.384,0.055,0.791,0.095,1.207,0.131L78.826,131.733z M82.51,131.779l-0.011-0.289c0.394-0.019,0.8-0.04,1.218-0.062
					l0.02,0.288C83.316,131.747,82.906,131.767,82.51,131.779z M84.961,131.623l-0.029-0.295c0.397-0.032,0.8-0.073,1.219-0.122
					l0.03,0.297C85.765,131.548,85.355,131.585,84.961,131.623z M76.383,131.385c-0.417-0.089-0.823-0.202-1.195-0.324l0.096-0.278
					c0.361,0.117,0.754,0.224,1.163,0.316L76.383,131.385z M128.599,132.384c-0.412-0.015-0.821-0.042-1.233-0.075l0.029-0.294
					c0.4,0.035,0.811,0.059,1.213,0.071L128.599,132.384z M87.385,131.465v-0.288c0.396-0.003,0.805-0.008,1.226-0.02l0.008,0.295
					C88.193,131.459,87.78,131.463,87.385,131.465z M129.827,132.395l-0.006-0.298c0.403-0.009,0.812-0.023,1.215-0.056l0.023,0.298
					C130.648,132.366,130.236,132.386,129.827,132.395z M89.842,131.428l-0.01-0.298c0.4-0.011,0.811-0.026,1.222-0.05l0.013,0.297
					C90.653,131.396,90.243,131.408,89.842,131.428z M126.146,132.167c-0.404-0.055-0.812-0.126-1.213-0.2l0.056-0.287
					c0.396,0.073,0.798,0.141,1.198,0.198L126.146,132.167z M132.28,132.217l-0.034-0.29c0.4-0.049,0.803-0.11,1.199-0.18
					l0.053,0.287C133.098,132.104,132.686,132.167,132.28,132.217z M92.296,131.307l-0.02-0.296c0.403-0.024,0.808-0.057,1.218-0.09
					l0.023,0.29C93.11,131.248,92.698,131.275,92.296,131.307z M94.742,131.094l-0.032-0.29c0.402-0.046,0.812-0.097,1.212-0.145
					l0.04,0.286C95.555,131.001,95.149,131.052,94.742,131.094z M123.729,131.708c-0.393-0.098-0.799-0.203-1.19-0.32l0.083-0.282
					c0.387,0.112,0.789,0.219,1.177,0.316L123.729,131.708z M74.037,130.601c-0.388-0.189-0.747-0.404-1.074-0.639l0.175-0.236
					c0.312,0.222,0.655,0.431,1.028,0.605L74.037,130.601z M134.703,131.793l-0.067-0.288c0.392-0.092,0.79-0.191,1.181-0.303
					l0.078,0.282C135.5,131.594,135.1,131.699,134.703,131.793z M97.176,130.767l-0.049-0.285c0.41-0.07,0.809-0.14,1.203-0.22
					l0.056,0.289C97.991,130.629,97.584,130.701,97.176,130.767z M121.363,131.013c-0.383-0.131-0.771-0.271-1.154-0.428l0.109-0.27
					c0.381,0.147,0.765,0.293,1.142,0.421L121.363,131.013z M137.072,131.121l-0.097-0.28c0.382-0.129,0.767-0.267,1.144-0.414
					l0.106,0.274C137.845,130.851,137.455,130.991,137.072,131.121z M99.589,130.29L99.52,130c0.407-0.098,0.805-0.202,1.178-0.314
					l0.084,0.282C100.402,130.078,100.004,130.187,99.589,130.29z M72.029,129.13c-0.277-0.297-0.527-0.64-0.741-1l0.253-0.152
					c0.202,0.346,0.442,0.67,0.707,0.956L72.029,129.13z M119.076,130.114c-0.375-0.167-0.749-0.338-1.114-0.518l0.131-0.265
					c0.355,0.176,0.727,0.348,1.101,0.518L119.076,130.114z M101.951,129.58l-0.101-0.275c0.396-0.146,0.773-0.304,1.122-0.462
					l0.122,0.264C102.741,129.274,102.358,129.431,101.951,129.58z M139.363,130.23l-0.12-0.269c0.366-0.162,0.738-0.338,1.1-0.518
					l0.134,0.265C140.107,129.89,139.733,130.065,139.363,130.23z M116.864,129.033c-0.362-0.198-0.72-0.399-1.068-0.606
					l0.152-0.255c0.342,0.205,0.697,0.408,1.058,0.602L116.864,129.033z M104.186,128.517l-0.159-0.249
					c0.362-0.225,0.687-0.459,0.966-0.708l0.198,0.218C104.896,128.037,104.562,128.285,104.186,128.517z M141.567,129.143
					l-0.141-0.258c0.35-0.193,0.704-0.396,1.057-0.604l0.151,0.252C142.278,128.742,141.92,128.951,141.567,129.143z
					 M128.246,128.63c-0.284-0.007-0.582-0.021-0.889-0.037l0.017-0.297c0.425,0.027,0.821,0.041,1.22,0.043l-0.002,0.297
					C128.475,128.636,128.361,128.634,128.246,128.63z M129.818,128.609l-0.01-0.298c0.4-0.018,0.812-0.046,1.209-0.089l0.028,0.294
					C130.645,128.556,130.231,128.59,129.818,128.609z M126.133,128.481c-0.403-0.049-0.812-0.104-1.222-0.175l0.048-0.285
					c0.404,0.063,0.811,0.123,1.205,0.169L126.133,128.481z M132.268,128.351l-0.048-0.292c0.394-0.066,0.799-0.145,1.192-0.23
					l0.065,0.284C133.079,128.204,132.669,128.283,132.268,128.351z M70.754,127.003c-0.133-0.374-0.246-0.776-0.331-1.197
					l0.289-0.059c0.081,0.402,0.193,0.79,0.321,1.152L70.754,127.003z M123.703,128.081c-0.396-0.089-0.796-0.182-1.197-0.287
					l0.075-0.282c0.396,0.098,0.792,0.196,1.183,0.278L123.703,128.081z M114.75,127.783c-0.355-0.224-0.695-0.452-1.025-0.682
					l0.163-0.237c0.325,0.223,0.668,0.449,1.018,0.674L114.75,127.783z M134.671,127.809l-0.088-0.284
					c0.392-0.11,0.779-0.235,1.161-0.37l0.096,0.278C135.453,127.57,135.061,127.697,134.671,127.809z M121.325,127.462
					c-0.382-0.118-0.773-0.244-1.171-0.384l0.099-0.275c0.393,0.137,0.777,0.263,1.157,0.379L121.325,127.462z M143.677,127.887
					l-0.159-0.249c0.338-0.22,0.674-0.443,1.013-0.682l0.166,0.244C144.358,127.437,144.02,127.664,143.677,127.887z
					 M106.026,126.843l-0.241-0.161c0.031-0.048,0.063-0.094,0.092-0.145c0.188-0.286,0.327-0.597,0.413-0.911l0.285,0.075
					c-0.098,0.352-0.245,0.683-0.451,0.998C106.094,126.749,106.061,126.799,106.026,126.843z M119.001,126.653
					c-0.373-0.144-0.752-0.297-1.136-0.462l0.118-0.27c0.381,0.16,0.756,0.318,1.126,0.46L119.001,126.653z M136.99,126.991
					l-0.108-0.274c0.364-0.153,0.737-0.322,1.103-0.5l0.129,0.266C137.742,126.66,137.365,126.832,136.99,126.991z M112.723,126.39
					c-0.345-0.253-0.672-0.501-0.979-0.747l0.184-0.226c0.305,0.237,0.629,0.484,0.97,0.736L112.723,126.39z M60.646,124.913
					c-0.414-0.026-0.831-0.068-1.231-0.137l0.049-0.291c0.393,0.065,0.795,0.112,1.203,0.136L60.646,124.913z M61.884,124.93
					l-0.012-0.296c0.395-0.009,0.802-0.036,1.209-0.087l0.034,0.291C62.7,124.887,62.284,124.919,61.884,124.93z M145.692,126.479
					l-0.175-0.233c0.32-0.242,0.643-0.49,0.963-0.745l0.183,0.231C146.341,125.989,146.016,126.24,145.692,126.479z M58.206,124.514
					c-0.397-0.102-0.796-0.232-1.18-0.383l0.107-0.274c0.375,0.144,0.76,0.27,1.146,0.376L58.206,124.514z M64.337,124.643
					l-0.06-0.287c0.39-0.076,0.784-0.172,1.183-0.275l0.076,0.281C65.131,124.471,64.73,124.563,64.337,124.643z M116.742,125.687
					c-0.359-0.173-0.727-0.352-1.1-0.541l0.131-0.264c0.373,0.19,0.738,0.368,1.094,0.539L116.742,125.687z M70.244,124.574
					c-0.011-0.158-0.023-0.329-0.029-0.492l-0.04-0.731l0.294-0.015l0.037,0.728c0.009,0.167,0.02,0.325,0.034,0.487L70.244,124.574
					z M139.204,125.917l-0.143-0.256c0.354-0.197,0.702-0.404,1.052-0.62l0.151,0.251
					C139.918,125.508,139.562,125.717,139.204,125.917z M66.712,124l-0.091-0.276c0.372-0.127,0.756-0.268,1.14-0.425l0.109,0.278
					C67.483,123.729,67.092,123.873,66.712,124z M110.793,124.864c-0.34-0.292-0.646-0.562-0.92-0.813l0.195-0.217
					c0.272,0.25,0.579,0.519,0.912,0.804L110.793,124.864z M55.894,123.627c-0.355-0.184-0.721-0.392-1.074-0.612l0.165-0.247
					c0.336,0.215,0.694,0.415,1.046,0.599L55.894,123.627z M106.394,124.467c-0.051-0.516-0.21-0.859-0.214-0.874l-0.122-0.24
					l0.268-0.131l0.119,0.242c0.021,0.046,0.188,0.416,0.24,0.974L106.394,124.467z M114.556,124.57
					c-0.353-0.192-0.709-0.393-1.066-0.602l0.146-0.252c0.359,0.209,0.709,0.405,1.061,0.596L114.556,124.57z M147.613,124.95
					l-0.189-0.223c0.31-0.259,0.616-0.528,0.921-0.802l0.196,0.222C148.232,124.421,147.922,124.688,147.613,124.95z
					 M68.999,123.089l-0.118-0.267l1.112-0.502l0.12,0.268L68.999,123.089z M141.291,124.612l-0.163-0.24
					c0.327-0.229,0.657-0.471,0.979-0.718l0.18,0.232C141.96,124.133,141.629,124.381,141.291,124.612z M63.594,122.902
					l-0.007-0.295c0.239-0.005,0.481-0.013,0.714-0.03c0.163-0.008,0.325-0.03,0.492-0.048l0.035,0.293
					c-0.172,0.019-0.34,0.031-0.504,0.044C64.082,122.89,63.837,122.9,63.594,122.902z M62.354,122.864
					c-0.408-0.027-0.822-0.078-1.227-0.147l0.049-0.289c0.396,0.067,0.801,0.117,1.201,0.147L62.354,122.864z M66.047,122.614
					l-0.062-0.285c0.381-0.081,0.775-0.185,1.173-0.303l0.086,0.282C66.834,122.428,66.436,122.531,66.047,122.614z M59.92,122.455
					c-0.392-0.104-0.79-0.23-1.181-0.372l0.103-0.277c0.382,0.141,0.769,0.265,1.154,0.364L59.92,122.455z M53.813,122.296
					c-0.319-0.248-0.639-0.517-0.941-0.797l0.204-0.218c0.298,0.279,0.602,0.543,0.916,0.789L53.813,122.296z M112.434,123.338
					c-0.34-0.216-0.688-0.434-1.032-0.663l0.159-0.241c0.347,0.222,0.688,0.443,1.031,0.653L112.434,123.338z M108.976,123.203
					c-0.543-0.539-0.828-0.858-0.828-0.858l-0.031-0.036l0.223-0.192l0.03,0.032c0.002,0.004,0.284,0.323,0.813,0.843
					L108.976,123.203z M68.411,121.917l-0.097-0.274c0.371-0.135,0.753-0.284,1.129-0.448l0.114,0.27
					C69.174,121.628,68.789,121.781,68.411,121.917z M57.598,121.612c-0.366-0.172-0.733-0.361-1.096-0.564l0.142-0.255
					c0.357,0.199,0.717,0.383,1.078,0.551L57.598,121.612z M149.445,123.319l-0.2-0.217c0.294-0.274,0.583-0.558,0.878-0.844
					l0.205,0.209C150.035,122.759,149.739,123.039,149.445,123.319z M143.245,123.115l-0.191-0.222
					c0.307-0.255,0.616-0.529,0.919-0.802l0.198,0.217C143.866,122.586,143.554,122.855,143.245,123.115z M105.514,122.262
					l-0.55-1.096l0.264-0.136l0.547,1.099L105.514,122.262z M110.382,121.992c-0.331-0.228-0.667-0.465-1.002-0.709l0.174-0.235
					c0.334,0.237,0.665,0.478,0.994,0.704L110.382,121.992z M52.002,120.625l-0.125-0.135c-0.232-0.254-0.464-0.523-0.684-0.802
					l0.232-0.184c0.214,0.272,0.44,0.537,0.664,0.787l0.125,0.135L52.002,120.625z M70.678,120.952l-0.128-0.264
					c0.363-0.179,0.726-0.366,1.082-0.56l0.142,0.259C71.414,120.582,71.046,120.771,70.678,120.952z M55.447,120.398
					c-0.336-0.222-0.671-0.466-1.001-0.718l0.178-0.234c0.322,0.249,0.656,0.486,0.989,0.71L55.447,120.398z M107.313,121.383
					l-0.799-0.928l0.223-0.193l0.802,0.929L107.313,121.383z M145.06,121.462l-0.202-0.206c0.283-0.289,0.569-0.576,0.848-0.877
					l0.214,0.203C145.638,120.885,145.351,121.179,145.06,121.462z M151.192,121.593l-0.208-0.202
					c0.277-0.29,0.554-0.584,0.835-0.885l0.217,0.198C151.757,121.007,151.473,121.308,151.192,121.593z M108.393,120.554
					c-0.228-0.177-0.464-0.355-0.699-0.541l-0.268-0.209l0.182-0.23l0.27,0.211c0.233,0.183,0.462,0.359,0.694,0.534
					L108.393,120.554z M72.841,119.777l-0.149-0.253c0.346-0.211,0.692-0.426,1.027-0.65l0.166,0.243
					C73.542,119.348,73.194,119.562,72.841,119.777z M104.416,120.071l-0.546-1.095l0.264-0.131l0.549,1.093L104.416,120.071z
					 M53.491,118.897c-0.304-0.271-0.605-0.553-0.902-0.843l0.207-0.209c0.291,0.287,0.591,0.566,0.886,0.828L53.491,118.897z
					 M50.454,118.7c-0.23-0.337-0.455-0.683-0.667-1.038l0.254-0.149c0.206,0.346,0.43,0.689,0.657,1.021L50.454,118.7z
					 M105.711,119.534l-0.802-0.926l0.225-0.194l0.8,0.926L105.711,119.534z M74.896,118.421l-0.172-0.239
					c0.329-0.236,0.654-0.485,0.969-0.734l0.184,0.228C75.558,117.926,75.229,118.177,74.896,118.421z M106.47,119.033
					c-0.32-0.267-0.632-0.532-0.939-0.794l0.191-0.22c0.305,0.26,0.617,0.521,0.938,0.787L106.47,119.033z M146.748,119.675
					l-0.222-0.194c0.264-0.304,0.53-0.613,0.789-0.93l0.229,0.188C147.28,119.057,147.015,119.368,146.748,119.675z
					 M152.861,119.798l-0.221-0.196c0.269-0.303,0.536-0.61,0.803-0.922l0.224,0.192C153.4,119.183,153.13,119.495,152.861,119.798z
					 M51.74,117.162c-0.277-0.309-0.545-0.623-0.801-0.942l0.232-0.186c0.252,0.316,0.516,0.628,0.785,0.932L51.74,117.162z
					 M103.321,117.884l-0.546-1.1l0.266-0.131l0.544,1.097L103.321,117.884z M49.19,116.58c-0.085-0.175-0.15-0.312-0.191-0.402
					c-0.007-0.017-0.009-0.031-0.013-0.044c-0.016-0.152-0.045-0.424-0.074-0.783l0.299-0.025c0.023,0.344,0.051,0.598,0.069,0.752
					c0.034,0.086,0.095,0.213,0.179,0.372L49.19,116.58z M104.108,117.68l-0.8-0.921l0.217-0.193l0.807,0.922L104.108,117.68z
					 M76.824,116.892l-0.194-0.228c0.311-0.266,0.614-0.54,0.897-0.821l0.206,0.216C77.444,116.336,77.137,116.616,76.824,116.892z
					 M104.605,117.435c-0.312-0.281-0.612-0.555-0.905-0.823l0.195-0.22c0.292,0.269,0.597,0.545,0.908,0.821L104.605,117.435z
					 M154.457,117.931l-0.228-0.186c0.257-0.311,0.512-0.626,0.767-0.95l0.23,0.182
					C154.972,117.301,154.715,117.616,154.457,117.931z M148.308,117.778l-0.23-0.179c0.248-0.318,0.488-0.643,0.729-0.976
					l0.24,0.171C148.8,117.131,148.555,117.458,148.308,117.778z M50.199,115.233c-0.193-0.279-0.304-0.459-0.33-0.501l-0.233-0.377
					c-0.018-0.033-0.024-0.066-0.018-0.104l0.034-0.19l0.286,0.051l-0.022,0.135l0.202,0.331c0.03,0.044,0.136,0.221,0.321,0.486
					L50.199,115.233z M102.504,115.832l-0.166-0.196l-0.11,0.056l-0.22-0.442c-0.035-0.065-0.012-0.141,0.05-0.188
					c0.004-0.002,0.008-0.004,0.017-0.006c-0.047-0.051-0.095-0.102-0.146-0.145l0.206-0.211c0.277,0.276,0.565,0.56,0.874,0.855
					l-0.202,0.211c-0.036-0.032-0.071-0.067-0.108-0.1L102.504,115.832z M78.592,115.178l-0.213-0.198
					c0.278-0.306,0.549-0.615,0.791-0.923l0.23,0.186C79.152,114.554,78.883,114.867,78.592,115.178z M48.854,114.118
					c-0.011-0.403-0.014-0.821-0.007-1.227l0.29,0.005c-0.004,0.402,0,0.812,0.011,1.215L48.854,114.118z M155.982,116.014
					l-0.234-0.182c0.249-0.32,0.491-0.642,0.738-0.973l0.232,0.175C156.472,115.364,156.229,115.691,155.982,116.014z
					 M149.755,115.801l-0.242-0.173c0.229-0.329,0.459-0.67,0.683-1.012l0.245,0.158
					C150.213,115.125,149.988,115.462,149.755,115.801z M101.072,114.036c-0.316-0.328-0.601-0.626-0.848-0.895l0.222-0.201
					c0.243,0.27,0.521,0.562,0.836,0.89L101.072,114.036z M50.178,112.913l-0.285-0.065c0.091-0.39,0.192-0.794,0.3-1.195
					l0.286,0.075C50.369,112.132,50.264,112.528,50.178,112.913z M80.137,113.246l-0.246-0.162c0.231-0.352,0.445-0.697,0.625-1.038
					c0.099-0.195,0.194-0.39,0.273-0.575l0.27,0.118c-0.083,0.193-0.181,0.39-0.285,0.597
					C80.591,112.532,80.375,112.892,80.137,113.246z M49.181,111.674l-0.291-0.014c0.022-0.406,0.052-0.821,0.095-1.226l0.292,0.025
					C49.236,110.864,49.206,111.272,49.181,111.674z M157.467,114.015l-0.157-0.078l-0.012,0.002l-0.093-0.067l0.093,0.067
					l-0.095,0.027c-0.091-0.387-0.188-0.768-0.294-1.152l0.287-0.074c0.099,0.38,0.198,0.767,0.289,1.158
					C157.499,113.935,157.492,113.98,157.467,114.015z M151.1,113.744l-0.249-0.155c0.19-0.307,0.38-0.617,0.565-0.933l0.065-0.111
					l0.031-0.095c0.087-0.287,0.152-0.596,0.188-0.921l0.294,0.034c-0.037,0.342-0.104,0.669-0.207,0.976l-0.035,0.124l-0.084,0.144
					C151.481,113.122,151.289,113.436,151.1,113.744z M99.401,112.227c-0.163-0.19-0.282-0.331-0.356-0.414
					c-0.1-0.089-0.281-0.252-0.478-0.477l0.219-0.194c0.185,0.207,0.359,0.369,0.468,0.462c0.084,0.104,0.204,0.24,0.375,0.433
					L99.401,112.227z M50.82,110.559l-0.279-0.09c0.114-0.369,0.246-0.765,0.391-1.168l0.274,0.097
					C51.066,109.803,50.936,110.189,50.82,110.559z M81.46,110.409l-0.286-0.071c0.083-0.357,0.133-0.71,0.139-1.046
					c0.003-0.045,0.003-0.089,0-0.128l0.298-0.002c0,0.041,0,0.089,0,0.135C81.602,109.658,81.551,110.026,81.46,110.409z
					 M156.575,111.642c-0.117-0.391-0.236-0.777-0.365-1.162l0.28-0.096c0.129,0.388,0.253,0.778,0.369,1.177L156.575,111.642z
					 M49.422,109.251l-0.294-0.038c0.061-0.408,0.132-0.816,0.207-1.215l0.287,0.055C49.548,108.442,49.48,108.851,49.422,109.251z
					 M97.847,110.308c-0.212-0.41-0.336-0.819-0.366-1.219l0.289-0.027c0.031,0.366,0.147,0.739,0.338,1.111L97.847,110.308z
					 M51.64,108.258l-0.271-0.108c0.153-0.382,0.317-0.767,0.481-1.133l0.272,0.12C51.953,107.5,51.796,107.877,51.64,108.258z
					 M151.698,110.336c-0.038-0.377-0.105-0.773-0.198-1.184l0.285-0.065c0.103,0.419,0.17,0.836,0.205,1.225L151.698,110.336z
					 M81.133,108.002c-0.078-0.249-0.188-0.482-0.316-0.71l-0.091-0.155l-0.137-0.114l0.187-0.229l0.157,0.131
					c0.013,0.015,0.027,0.026,0.034,0.041l0.103,0.181c0.146,0.242,0.259,0.501,0.347,0.765L81.133,108.002z M155.813,109.323
					c-0.14-0.384-0.283-0.763-0.432-1.142l0.271-0.103c0.151,0.378,0.295,0.763,0.435,1.146L155.813,109.323z M83.31,107.722
					c-0.061-0.002-0.118-0.043-0.138-0.104c-0.026-0.076,0.02-0.159,0.096-0.186c0.051-0.013,0.497-0.147,1.199-0.305l0.062,0.286
					c-0.69,0.155-1.128,0.288-1.173,0.302C83.339,107.72,83.324,107.722,83.31,107.722z M97.955,107.937l-0.266-0.112
					c0.166-0.382,0.428-0.724,0.773-1.017l0.189,0.224C98.339,107.295,98.107,107.604,97.955,107.937z M49.879,106.863l-0.282-0.069
					c0.095-0.4,0.207-0.801,0.321-1.187l0.278,0.085C50.085,106.07,49.978,106.467,49.879,106.863z M82.166,107.521l-0.114-0.108
					c-0.011-0.009-0.294-0.274-0.79-0.718l0.198-0.222c0.498,0.451,0.784,0.719,0.79,0.729l0.116,0.101L82.166,107.521z
					 M93.013,107.533l-0.157-0.247l0.438-0.276c0.187-0.122,0.378-0.253,0.58-0.396l0.165,0.241c-0.202,0.146-0.396,0.28-0.588,0.4
					L93.013,107.533z M85.726,107.175l-0.051-0.285c0.412-0.069,0.819-0.129,1.223-0.174l0.03,0.294
					C86.536,107.048,86.128,107.106,85.726,107.175z M91.74,107.221c-0.368-0.097-0.767-0.177-1.186-0.23l0.041-0.288
					c0.431,0.055,0.838,0.133,1.216,0.231L91.74,107.221z M88.139,106.909l-0.013-0.288c0.379-0.023,0.752-0.027,1.105-0.021
					l0.127,0.002l-0.009,0.297l-0.124-0.002C88.878,106.89,88.512,106.894,88.139,106.909z M52.647,106.036l-0.261-0.133
					c0.189-0.371,0.386-0.733,0.588-1.083l0.253,0.146C53.029,105.312,52.836,105.673,52.647,106.036z M151.16,107.989
					c-0.131-0.376-0.278-0.754-0.449-1.126l0.273-0.116c0.167,0.377,0.324,0.765,0.457,1.149L151.16,107.989z M79.646,106.25
					c-0.325-0.263-0.642-0.521-0.954-0.769l0.186-0.23c0.31,0.249,0.628,0.507,0.951,0.767L79.646,106.25z M99.646,106.454
					l-0.07-0.288c0.364-0.083,0.746-0.209,1.145-0.366l0.108,0.269C100.417,106.231,100.021,106.364,99.646,106.454z
					 M80.349,105.883c-0.281-0.245-0.588-0.512-0.928-0.801l0.19-0.221c0.341,0.283,0.649,0.555,0.929,0.797L80.349,105.883z
					 M95.029,106.128l-0.181-0.233c0.31-0.24,0.63-0.491,0.961-0.757l0.183,0.231C95.662,105.638,95.342,105.89,95.029,106.128z
					 M154.916,107.057c-0.164-0.376-0.328-0.743-0.499-1.11l0.263-0.127c0.178,0.371,0.344,0.746,0.504,1.122L154.916,107.057z
					 M50.578,104.539l-0.274-0.103c0.142-0.391,0.297-0.772,0.456-1.145l0.271,0.118C50.872,103.773,50.722,104.155,50.578,104.539z
					 M101.951,105.547l-0.14-0.262c0.335-0.173,0.688-0.38,1.057-0.6l0.151,0.249C102.65,105.166,102.291,105.369,101.951,105.547z
					 M77.731,104.724c-0.333-0.253-0.655-0.501-0.973-0.743l0.18-0.234c0.316,0.242,0.642,0.492,0.969,0.747L77.731,104.724z
					 M53.867,103.934l-0.246-0.166c0.231-0.347,0.474-0.685,0.716-1.002l0.229,0.172C54.335,103.254,54.098,103.589,53.867,103.934z
					 M78.486,104.297c-0.302-0.248-0.616-0.507-0.947-0.771l0.183-0.23c0.334,0.266,0.648,0.524,0.952,0.775L78.486,104.297z
					 M96.941,104.594l-0.187-0.227c0.305-0.254,0.621-0.512,0.94-0.78l0.188,0.222C97.562,104.077,97.25,104.343,96.941,104.594z
					 M150.201,105.754c-0.157-0.353-0.337-0.722-0.533-1.092l0.262-0.142c0.198,0.382,0.378,0.754,0.543,1.112L150.201,105.754z
					 M104.059,104.269l-0.167-0.24c0.341-0.229,0.678-0.466,1.007-0.697l0.17,0.237
					C104.736,103.805,104.397,104.042,104.059,104.269z M75.782,103.251c-0.341-0.246-0.67-0.479-0.995-0.71l0.172-0.241
					c0.326,0.232,0.657,0.471,0.996,0.718L75.782,103.251z M153.882,104.847c-0.186-0.361-0.373-0.724-0.569-1.082l0.262-0.142
					c0.195,0.363,0.387,0.726,0.571,1.09L153.882,104.847z M51.551,102.31l-0.259-0.133c0.188-0.363,0.394-0.728,0.602-1.076
					l0.249,0.158C51.938,101.596,51.738,101.956,51.551,102.31z M76.581,102.764c-0.312-0.246-0.638-0.497-0.965-0.747l0.177-0.236
					c0.331,0.253,0.653,0.504,0.972,0.752L76.581,102.764z M98.827,103.018l-0.198-0.218l0.943-0.789l0.189,0.224L98.827,103.018z
					 M55.339,102.005l-0.225-0.199c0.273-0.312,0.564-0.61,0.854-0.894l0.205,0.216C55.886,101.4,55.607,101.696,55.339,102.005z
					 M106.064,102.857l-0.173-0.237c0.34-0.249,0.671-0.482,0.998-0.711l0.168,0.24C106.735,102.376,106.404,102.61,106.064,102.857
					z M149.072,103.599c-0.204-0.352-0.417-0.695-0.642-1.038l0.247-0.157c0.226,0.34,0.441,0.694,0.647,1.042L149.072,103.599z
					 M73.782,101.851c-0.346-0.234-0.688-0.453-1.02-0.661l0.157-0.249c0.335,0.209,0.675,0.433,1.027,0.664L73.782,101.851z
					 M74.642,101.282l-0.304-0.22c-0.231-0.171-0.458-0.338-0.688-0.497l0.173-0.239c0.226,0.162,0.456,0.326,0.69,0.496
					l0.298,0.223L74.642,101.282z M152.713,102.709c-0.208-0.353-0.421-0.696-0.636-1.043l0.249-0.153
					c0.215,0.342,0.432,0.692,0.642,1.044L152.713,102.709z M100.7,101.449l-0.187-0.227c0.308-0.259,0.624-0.519,0.941-0.779
					l0.188,0.225C101.325,100.933,101.006,101.193,100.7,101.449z M108.065,101.459l-0.164-0.242
					c0.344-0.237,0.679-0.46,1.019-0.685l0.161,0.247C108.746,101.004,108.408,101.228,108.065,101.459z M52.816,100.25
					l-0.238-0.178c0.242-0.331,0.498-0.657,0.758-0.969l0.226,0.19C53.302,99.6,53.052,99.92,52.816,100.25z M57.079,100.328
					l-0.185-0.23c0.323-0.263,0.666-0.506,1.006-0.72l0.159,0.247C57.725,99.835,57.397,100.072,57.079,100.328z M71.721,100.554
					c-0.361-0.216-0.719-0.414-1.062-0.596l0.14-0.26c0.344,0.185,0.706,0.385,1.074,0.604L71.721,100.554z M147.742,101.562
					c-0.234-0.333-0.481-0.66-0.732-0.976l0.229-0.181c0.25,0.318,0.504,0.651,0.743,0.982L147.742,101.562z M72.646,99.866
					c-0.339-0.237-0.677-0.467-1.012-0.683l0.165-0.245c0.333,0.219,0.669,0.448,1.016,0.684L72.646,99.866z M69.572,99.415
					c-0.373-0.179-0.753-0.344-1.114-0.488l0.111-0.273c0.366,0.147,0.745,0.314,1.13,0.491L69.572,99.415z M59.105,99.031
					l-0.129-0.268c0.37-0.186,0.752-0.347,1.138-0.483l0.097,0.274C59.843,98.689,59.467,98.851,59.105,99.031z M110.103,100.112
					l-0.156-0.248c0.344-0.227,0.692-0.444,1.03-0.663l0.158,0.251C110.793,99.667,110.451,99.885,110.103,100.112z M102.593,99.896
					l-0.185-0.227c0.313-0.252,0.633-0.511,0.956-0.768l0.184,0.229C103.225,99.389,102.904,99.642,102.593,99.896z M151.403,100.65
					c-0.227-0.335-0.461-0.667-0.701-0.998l0.235-0.169c0.241,0.328,0.479,0.661,0.71,1.003L151.403,100.65z M54.378,98.404
					l-0.207-0.212c0.29-0.289,0.595-0.573,0.905-0.837l0.193,0.225C54.964,97.84,54.664,98.117,54.378,98.404z M67.318,98.515
					c-0.392-0.117-0.784-0.224-1.167-0.307l0.063-0.289c0.392,0.082,0.79,0.19,1.191,0.319L67.318,98.515z M70.607,98.526
					c-0.355-0.223-0.698-0.432-1.045-0.633l0.152-0.252c0.344,0.201,0.695,0.412,1.049,0.637L70.607,98.526z M61.367,98.217
					l-0.067-0.29c0.396-0.089,0.808-0.16,1.217-0.208l0.036,0.288C62.149,98.056,61.753,98.123,61.367,98.217z M64.96,98.005
					c-0.404-0.043-0.805-0.069-1.203-0.069v-0.289c0.409,0,0.825,0.021,1.234,0.07L64.96,98.005z M146.233,99.652l-0.107-0.116
					c-0.235-0.27-0.476-0.526-0.72-0.779l0.214-0.204c0.248,0.257,0.488,0.519,0.725,0.786l0.107,0.119L146.233,99.652z
					 M112.17,98.806l-0.15-0.251c0.349-0.213,0.703-0.43,1.047-0.634l0.151,0.252C112.874,98.377,112.525,98.592,112.17,98.806z
					 M104.509,98.377l-0.181-0.229c0.321-0.248,0.646-0.495,0.975-0.744l0.177,0.237C105.151,97.884,104.829,98.13,104.509,98.377z
					 M68.507,97.286c-0.365-0.2-0.727-0.389-1.077-0.568l0.133-0.262c0.353,0.182,0.714,0.371,1.085,0.574L68.507,97.286z
					 M56.222,96.83l-0.173-0.238c0.331-0.242,0.678-0.47,1.028-0.687l0.154,0.253C56.885,96.368,56.548,96.594,56.222,96.83z
					 M149.96,98.688c-0.253-0.32-0.51-0.634-0.773-0.941l0.227-0.192c0.266,0.312,0.524,0.629,0.777,0.95L149.96,98.688z
					 M114.268,97.556l-0.146-0.256c0.361-0.204,0.715-0.407,1.07-0.599l0.142,0.257C114.984,97.151,114.628,97.35,114.268,97.556z
					 M144.542,97.905c-0.3-0.277-0.604-0.55-0.912-0.808l0.189-0.225c0.311,0.263,0.621,0.537,0.923,0.815L144.542,97.905z
					 M66.329,96.192c-0.382-0.174-0.758-0.34-1.117-0.479l0.106-0.27c0.366,0.142,0.747,0.306,1.134,0.477L66.329,96.192z
					 M106.465,96.91l-0.177-0.238c0.327-0.238,0.663-0.475,0.998-0.714l0.166,0.241C107.12,96.434,106.79,96.669,106.465,96.91z
					 M58.286,95.567l-0.133-0.261c0.361-0.185,0.739-0.364,1.12-0.527l0.114,0.275C59.015,95.21,58.644,95.386,58.286,95.567z
					 M64.07,95.309c-0.405-0.128-0.795-0.239-1.17-0.323l0.064-0.287c0.382,0.086,0.783,0.193,1.194,0.326L64.07,95.309z
					 M116.405,96.373l-0.138-0.264c0.368-0.193,0.73-0.383,1.09-0.56l0.133,0.265C117.133,95.988,116.772,96.181,116.405,96.373z
					 M148.379,96.834c-0.273-0.302-0.553-0.598-0.838-0.883l0.21-0.205c0.287,0.287,0.57,0.586,0.847,0.89L148.379,96.834z
					 M60.516,94.764l-0.021-0.294c0.39-0.028,0.809-0.02,1.249,0.026l-0.033,0.292C61.293,94.744,60.89,94.74,60.516,94.764z
					 M142.676,96.342c-0.321-0.243-0.652-0.481-0.986-0.702l0.161-0.246c0.342,0.231,0.678,0.464,1.005,0.712L142.676,96.342z
					 M108.458,95.502l-0.162-0.243c0.335-0.229,0.676-0.455,1.02-0.683l0.157,0.246C109.134,95.049,108.796,95.273,108.458,95.502z
					 M118.581,95.271l-0.125-0.264c0.376-0.182,0.749-0.355,1.115-0.515l0.12,0.268C119.324,94.926,118.956,95.092,118.581,95.271z
					 M147.311,95.718c-0.292-0.285-0.586-0.568-0.879-0.841l0.197-0.215c0.298,0.276,0.594,0.555,0.891,0.847L147.311,95.718z
					 M140.657,94.997c-0.344-0.205-0.703-0.405-1.062-0.588l0.136-0.265c0.363,0.189,0.723,0.391,1.078,0.598L140.657,94.997z
					 M110.504,94.168l-0.159-0.251c0.352-0.221,0.697-0.432,1.053-0.642l0.147,0.252C111.196,93.737,110.848,93.946,110.504,94.168z
					 M120.815,94.275l-0.116-0.269c0.386-0.159,0.768-0.311,1.144-0.452l0.104,0.274C121.572,93.973,121.197,94.121,120.815,94.275z
					 M145.518,94.072c-0.312-0.263-0.63-0.521-0.948-0.769l0.182-0.232c0.32,0.25,0.642,0.509,0.954,0.776L145.518,94.072z
					 M138.498,93.886c-0.37-0.161-0.75-0.313-1.128-0.455l0.104-0.272c0.384,0.14,0.767,0.294,1.145,0.46L138.498,93.886z
					 M123.094,93.422l-0.097-0.279c0.396-0.135,0.794-0.259,1.175-0.368l0.08,0.281C123.874,93.167,123.483,93.291,123.094,93.422z
					 M112.603,92.914l-0.146-0.254c0.354-0.2,0.714-0.399,1.076-0.598l0.141,0.264C113.312,92.517,112.955,92.714,112.603,92.914z
					 M136.222,93.043c-0.386-0.12-0.778-0.227-1.169-0.319l0.069-0.289c0.396,0.097,0.795,0.209,1.188,0.325L136.222,93.043z
					 M125.429,92.74l-0.068-0.284c0.404-0.1,0.808-0.185,1.202-0.259l0.054,0.285C126.226,92.557,125.828,92.646,125.429,92.74z
					 M133.862,92.47c-0.395-0.071-0.802-0.135-1.202-0.186l0.037-0.294c0.404,0.053,0.813,0.115,1.22,0.186L133.862,92.47z
					 M127.814,92.289l-0.034-0.294c0.406-0.051,0.823-0.091,1.222-0.123l0.023,0.295C128.628,92.197,128.223,92.234,127.814,92.289z
					 M143.597,92.578c-0.332-0.236-0.674-0.468-1.01-0.686l0.158-0.248c0.343,0.222,0.685,0.454,1.021,0.692L143.597,92.578z
					 M131.451,92.167l-0.243-0.013c-0.319-0.019-0.642-0.033-0.972-0.033v-0.29c0.334,0,0.661,0.01,0.988,0.026l0.243,0.015
					L131.451,92.167z M114.758,91.761l-0.133-0.263c0.366-0.182,0.736-0.361,1.107-0.535l0.121,0.266
					C115.484,91.4,115.123,91.581,114.758,91.761z M116.97,90.727l-0.115-0.271c0.375-0.162,0.754-0.317,1.135-0.469l0.109,0.271
					C117.72,90.409,117.345,90.568,116.97,90.727z M141.551,91.254c-0.349-0.207-0.708-0.405-1.062-0.593l0.136-0.259
					c0.36,0.189,0.722,0.39,1.077,0.599L141.551,91.254z M119.24,89.827l-0.101-0.274c0.383-0.144,0.771-0.271,1.165-0.398
					l0.09,0.282C120.007,89.562,119.624,89.692,119.24,89.827z M139.393,90.129c-0.363-0.171-0.741-0.335-1.112-0.485l0.11-0.271
					c0.374,0.15,0.753,0.318,1.127,0.49L139.393,90.129z M121.562,89.082l-0.081-0.281c0.394-0.113,0.793-0.215,1.191-0.309
					l0.067,0.28C122.347,88.873,121.952,88.978,121.562,89.082z M137.141,89.218c-0.383-0.134-0.772-0.259-1.16-0.367l0.083-0.282
					c0.391,0.112,0.785,0.237,1.174,0.37L137.141,89.218z M123.933,88.512l-0.059-0.285c0.405-0.083,0.816-0.158,1.213-0.219
					l0.046,0.293C124.741,88.363,124.333,88.436,123.933,88.512z M134.804,88.546c-0.394-0.094-0.796-0.174-1.191-0.243l0.052-0.29
					c0.4,0.074,0.81,0.157,1.207,0.243L134.804,88.546z M126.34,88.134l-0.032-0.289c0.407-0.046,0.817-0.085,1.225-0.113
					l0.019,0.296C127.15,88.052,126.74,88.091,126.34,88.134z M132.409,88.123c-0.399-0.048-0.807-0.082-1.207-0.11l0.016-0.292
					c0.411,0.024,0.821,0.065,1.23,0.115L132.409,88.123z M128.765,87.968l-0.007-0.295c0.413-0.012,0.824-0.012,1.234-0.005
					l-0.007,0.294C129.579,87.956,129.173,87.956,128.765,87.968z"/>
			</g>
			<path fill="#D1AB6F" d="M79.928,107.812c2.473,4.234-8.393,13.201-15.7,13.741c-8.246,0.604-13.229-7.511-13.229-7.511
				s2.519-14.504,12.255-15.061C67.411,98.742,72.269,101.476,79.928,107.812z"/>
			<path fill-rule="evenodd" clip-rule="evenodd" fill="#31738B" d="M58.35,101.964c-3.099,6.628-1.496,10.102-1.496,10.102
				s-1.744,3.032-0.112,6.229c-2.282-0.45-5.742-4.252-5.742-4.252S53.703,105.939,58.35,101.964z"/>
			<path d="M50.999,114.042c8.875-23.146,26.138-7.963,26.138-7.963S58.145,86.137,50.999,114.042z"/>
			<path d="M76.46,115.432c-16.276,10.476-25.461-1.39-25.461-1.39S60.209,130.088,76.46,115.432z"/>
			<g>
				<path fill="#D1AB6F" d="M99.877,107.458c2.917-0.692,5.814-3.14,8.261-4.804c9.78-6.666,16.993-9.819,23.013-9.475
					c13.445,0.771,18.33,13.494,18.33,13.494s1.762,3.274,1.049,5.46c-20.729,34.865-50.531-1.248-50.531-1.248
					S97.37,108.725,99.877,107.458z"/>
			</g>
			<path fill="#31738B" d="M121.881,96.403c-8.464,5.826-10.993,12.29-10.993,12.29s-2.71,4.211-2.188,9.466
				c-5.446-2.86-9.395-8.015-9.395-8.015s-1.599-1.819,0.571-2.687C105.156,107.735,117.593,95.694,121.881,96.403z"/>
			<path d="M150.529,112.134c-20.39,34.885-50.056-0.692-50.056-0.692S127.521,140.48,150.529,112.134z"/>
			<path fill-rule="evenodd" clip-rule="evenodd" d="M153.312,138.2c8.213,1.169,8.648,7.988,9.786,9.4
				c3.622,5.333-0.756,8.854-0.756,8.854s0.854,3.412-0.458,6.891c0.403,5.155-1.754,7.564-1.754,7.564s-4.15,4.543-3.549,7.405
				c-1.306,2.276-2.188,4.317-4.884,4.128c-1.09,7.081-8.586,7.504-8.586,7.504s-1.786,1.594-1.839,4.672
				c-1.095,0.734-2.784,1.283-5.368,1.364c-3.846,2.256-5.659,1.843-7.807,2.011c-5.35,0.41-7.911-1.687-7.911-1.687
				S144.806,140.06,153.312,138.2z"/>
			<path d="M93.056,134.815c-13.153-3.509-16.624,3.64-16.624,3.64s-5.656,0.45-8.229,3.954c-2.228,3.032-2.011,8.884,4.563,12.271
				c1.693,2.768,2.736,4.478,2.736,4.478l6.186,2.58C81.688,161.737,106.21,138.331,93.056,134.815z"/>
			<path fill="#3A2005" d="M160.367,147.571c-0.59-8.905-7.055-9.371-7.055-9.371s3.59-2.665,2.848-4.646
				c-0.483-1.3-9.666-9.684-20.253-9.914c-5.486-0.117-11.35,1.947-16.576,8.324c-1.778-0.126-4.708-0.744-7.951-0.814
				c-1.745-0.037-3.582,0.085-5.376,0.523c-5.124,1.262-6.546,3.387-12.075,5.226c-2.208-1.098-4.095-1.555-5.725-1.59
				c-5.663-0.125-8.236,4.839-10.636,5.549c-0.364-0.045-0.712-0.068-1.055-0.075c-9.03-0.199-11.27,11.416-1.285,11.637
				c0.354,0.008,0.719,0,1.1-0.022c-1.018,0.106-0.895,4.695,1.795,4.756c0.073,0.003,0.146,0,0.221-0.005
				c-0.639,1.009-0.929,11.562,10.987,11.821c0.245,0.004,0.501,0.006,0.76,0.004c1.048,3.651,3.575,5.774,5.802,6.981
				c0.767,1.806,1.61,2.34,2.321,2.356c0.965,0.02,1.689-0.885,1.689-0.885s-0.472,3.165,2.329,3.227
				c0.178,0.004,0.37-0.002,0.574-0.025c-0.554,5.931,6.456,8.179,6.456,8.179s2.461,5.633,6.792,5.724
				c0.544,0.018,1.118-0.062,1.719-0.246c0.78,1.736,2.603,2.299,4.525,2.34c2.988,0.062,6.234-1.12,6.234-1.12
				s0.414,0.103,1.103,0.121c1.295,0.027,3.544-0.262,5.804-2.127c0.573,0.215,1.027,0.322,1.396,0.328
				c2.553,0.058,0.92-4.416,4.617-6.275c6.306-1.433,7.999-5.021,8.617-8.64c0.323,0.266,0.824,0.424,1.367,0.435
				c1.047,0.025,2.241-0.512,2.548-1.957c0.204-4.591,5.863-6.168,4.438-12.8c2.805-2.621,0.803-9.595,0.812-10.182
				C159.248,153.822,164.95,153.028,160.367,147.571z"/>
			<path fill="#D1AB6F" d="M91.626,156.748c0.956,1.657,6.318,5.668,5.452,9.439c7.136,2.377,8.351,6.701,8.351,6.701
				s1.2,4.878,5.507,5.237c2.219,0.18,3.814,1.54,5.023,2.593c0.355,2.487,4.292,1.921,4.317,0.619
				c-1.39-2.125-1.474-4.219-1.474-4.219l8.121-0.87c0,0-1.368,2.977-3.329,2.938c-1.063,0.764-0.229,4.44,3.202,2.946
				c0.957-2.071,6.203-2.741,6.203-2.741s5.633-6.575,11.89-5.638c1.935-0.996,3.469-2.954,4.658-5.126
				c0.013-5.217,3.375-9.587,3.375-9.587s0.252-5.483-1.467-6.229c-1.386-2.414,0.506-9.607,0.506-9.607l-14.66-11.042
				C137.302,132.162,90.668,155.09,91.626,156.748z"/>
			<path fill="#3F0306" d="M134.886,126.737c35.676,8.897,8.21,51.439-24.743,45.879c-2.316-7.893-10.581-16.972-10.581-16.972
				S130.775,127.152,134.886,126.737z"/>
			<path d="M144.024,131.434c-2.548-1.153-3.896-0.082-3.896-0.082s1.95,2.005,0.998,3.692c-0.952,1.676-1.834,0.627-1.834,0.627
				l-2.017-2.216c0,0-2.004,1.783-3.089,4.326c-1.512,4.344,0.793,6.871,0.793,6.871l14.381-5.992
				C149.36,138.66,146.567,132.586,144.024,131.434z"/>
			<path d="M150.116,137.641c-8.43,0.924-15.79,7.558-15.79,7.558s-17.562,2.236-20.937,22.805
				c31.091-1.134,34.796-23.889,34.796-23.889l2.911-5.246C151.097,138.868,150.86,138.097,150.116,137.641z"/>
			<path fill="#8D1516" d="M151.097,138.868c-17.123,2.112-20.169,15.771-20.169,15.771s-0.823-4.202,1.648-7.549
				c-15.845,5.018-16.295,18.883-16.295,18.883s24.857,0.002,34.596-16.887C152.543,146.484,151.925,141.644,151.097,138.868z"/>
			<path fill="#31738B" d="M94.799,157.86l6.151-1.14c0,0,7.077,7.875,8.61,12.658C103.077,162.308,94.799,157.86,94.799,157.86z"/>
			<path d="M83.451,152.843l1.571,5.958c0,0,25.04-0.488,38.443-12.249c-16.855,6.734-38.218,5.711-38.218,5.711L83.451,152.843z"/>
			<path fill="#D7DADD" d="M134.688,126.222c0,0,2.651,4.376,2.614,5.94c-0.936,7.039-21.193,24.505-51.654,24.887
				c-0.385-1.798-2.494-11.69-2.494-11.69s28.98-4.202,47.997-18.821C131.571,125.372,134.688,126.222,134.688,126.222z"/>
			<path d="M114.131,173.062c0,0,38.085-20.161,27.324-9.146c-10.763,11.016-25.384,11.831-25.384,11.831L114.131,173.062z"/>
			<path fill="#D7DADD" d="M111.428,168.257c1.494,3.16,3.442,5.899,3.442,5.899s29.655-1.574,36.007-25.07
				C150.238,151,139.357,164.966,111.428,168.257z"/>
			<path d="M79.889,147.53c0,0-0.687,3.94-0.719,5.051c10.575,1.534,23.824-3.979,23.824-3.979L79.889,147.53z"/>
			<path fill="#D1AB6F" d="M80.821,144.411c0,0,0.443,3.669-0.15,6.849c-0.27,1.674,22.175-1.799,28.938-4.618
				c22.596-9.394,25.276-19.904,25.276-19.904l-0.198-0.516l-2.565-0.712l-0.972,1.027c0,0-8.96,10.81-27.478,14.627
				C93.699,143.552,80.821,144.411,80.821,144.411z"/>
			<path d="M78.312,145.169c0,0,2.026,7.376,12.265,0.845c2.774,2.072,7.415-0.411,7.415-0.411s6.221,5.152,15.702-2.536
				c14.477,1.841,13.453-9.209,13.453-9.209s5.439-2.784,4.866-7.181c-10.658,10.778-24.25,12.184-24.25,12.184L78.312,145.169z"/>
			<path fill="#3A2005" d="M98.145,143.204c8.129,6.398,15.032-1.833,15.032-1.833s13.494,3.067,12.802-8.64
				c6.936-3.146,6.1-6.951,6.1-6.951l-0.854-0.29l-11.715,7.331l-27.498,6.326l-10.727,2.117l-2.665,3.34
				c0,0,0.571,3.328,5.014,3.011c4.445-0.318,6.004-3.498,6.004-3.498S95.635,146.546,98.145,143.204z"/>
			<g>
				<path fill-rule="evenodd" clip-rule="evenodd" fill="#D7DADD" d="M55.615,110.055c12.244,12.967,21.427,2.049,21.448-0.496
					C73.067,105.405,60.525,101.474,55.615,110.055z"/>
				<path fill="#095371" d="M73.51,111.387c-2.495-0.566-4.056-3.044-3.492-5.541c0.207-0.913,0.676-1.706,1.305-2.309
					c-0.241-0.079-0.48-0.149-0.731-0.203c-4.133-0.937-8.242,1.651-9.171,5.782c-0.939,4.126,1.65,8.234,5.779,9.169
					c4.13,0.939,8.236-1.65,9.174-5.782c0.111-0.491,0.169-0.986,0.183-1.474C75.645,111.475,74.58,111.629,73.51,111.387z"/>
				<path fill="#31738B" d="M73.51,111.387c-2.468-0.561-4.023-2.995-3.507-5.459c-2.508-0.147-4.826,1.532-5.401,4.064
					c-0.638,2.814,1.131,5.623,3.952,6.259c2.817,0.641,5.621-1.128,6.257-3.95c0.062-0.272,0.098-0.545,0.113-0.819
					C74.464,111.521,73.984,111.495,73.51,111.387z"/>
				<path fill="#D7DADD" d="M79.028,107.971c0.566-2.495-1.001-4.975-3.489-5.538c-2.495-0.563-4.975,0.999-5.539,3.493
					c-0.566,2.49,0.998,4.971,3.494,5.536C75.984,112.026,78.464,110.46,79.028,107.971z"/>
				<path d="M75.752,112.516c0.563-2.496-0.998-4.975-3.492-5.542c-2.49-0.565-4.971,1.001-5.534,3.493
					c-0.567,2.494,0.993,4.976,3.491,5.54C72.708,116.569,75.186,115.003,75.752,112.516z"/>
				<path fill="#D7DADD" d="M73.737,109.994c-0.063-1.253-1.128-2.22-2.382-2.156c-1.255,0.062-2.222,1.131-2.156,2.386
					c0.062,1.251,1.126,2.22,2.381,2.158C72.834,112.321,73.8,111.251,73.737,109.994z"/>
			</g>
			<path d="M92.427,78.017c-3.831,5.343-3.09,9.129-0.273,12.49c4.223,3.627,30.344-14.66,44.064-15.3
				c8.057-0.379,15.689,6.226,20.668,9.602c3.498,2.365,5.713,1.816,5.713,1.816s-7.206-17.837-24.095-21.271
				C129.459,64.214,96.253,72.68,92.427,78.017z"/>
			<path d="M75.547,77.473c4.048,2.7,3.418,9.91,1.174,10.638c-2.246,0.726-18.062-5.059-25.373-2.723
				c-4.419,2.934-7.092,8.877-7.092,8.877s-1.3-1.205-1.394-4.263c-0.087-3.063,5.894-12.048,11.571-13.573
				C60.116,74.901,73.424,75.906,75.547,77.473z"/>
			<path d="M85.42,109.75c-5.106,0.421-7.681,3.2-10.407,6.918c-6.11,1.691-8.459,10.911,0.014,12.662
				c7.528,4.447,16.158,2.196,19.99-0.949c14.793,4.605,14.89-15.158,2.726-14.604C96.23,112.835,92.567,108.979,85.42,109.75z"/>
			<path fill="#D1AB6F" d="M76.968,118.598c-3.327,0.682-4.739,2.333-4.95,3.99c-0.287,2.323,1.789,4.655,4.287,4.319
				c0.395,1.265,8.144,5.475,16.886-0.572c2.265-0.967,2.724,0.053,3.491,0.182c12.084,2.058,7.286-11.646,0.241-9.941
				C93.676,112.585,81.298,107.968,76.968,118.598z"/>
			<path d="M96.923,116.575l-0.621-2.632c0,0-2.237,1.399-2.868,4.265c-0.068,0.293,0.08,1.326,0.798,0.705
				C96.06,116.488,96.923,116.575,96.923,116.575z"/>
			<path d="M99.877,107.458c6.31,0.956,18.679-14.059,32.231-12.793c6.163,0.578,13,3.489,18.428,14.897
				c-2.947-11.354-11.01-15.604-17.83-16.292c-12.328-1.413-25.555,10.828-29.326,12.648
				C101.929,106.77,101.242,107.014,99.877,107.458z"/>
			<path d="M96.668,141.603c0.571,0.83,1.906,1.924,1.906,1.924l-1.344,0.867C97.23,144.394,96.344,143.066,96.668,141.603z"/>
			<path fill-rule="evenodd" clip-rule="evenodd" d="M114.87,174.156l5.406,7.182c0,0-1.281,6.162,2.789,9.784
				c-5.69-2.918-5.065-8.864-5.065-8.864L114.87,174.156z"/>
			<path fill="#C9A9A9" d="M132.576,147.09l-1.74,6.811c0,0,3.092-8.084,9.345-11.346c-5.025,4.176-7.979,13.077-7.979,13.077
				s-2.737,8.442-15.921,10.341C118.332,150.235,132.576,147.09,132.576,147.09z"/>
			<polygon fill-rule="evenodd" clip-rule="evenodd" fill="#31738B" points="151.209,152.283 148.732,154.711 150.877,149.086 			
				"/>
			<path d="M128.586,125.834c3.492-0.054,8.48,1.353,10.811,2.538c13.746,7.009,11.48,20.714,11.48,20.714s0.074,3.307,0.579,3.726
				c0.076-2.209,0.969-4.612,0.969-4.612s1.702-14.426-11.924-20.282C137.096,126.111,132.132,124.855,128.586,125.834z"/>
			<path d="M102.291,155.773c0,0,7.744,10.777,7.852,16.843c-2.447-7.818-9.656-15.908-9.656-15.908L102.291,155.773z"/>
			<path fill-rule="evenodd" clip-rule="evenodd" fill="#D7DADD" d="M95.101,115.005c0,0-6.726-4.428-12.293-2.376
				c-2.776,1.025-6.178,4.035-6.49,9.263c1.689-4.482,5.719-6.172,8.564-6.621c4.742-0.752,8.794,2.09,8.794,2.09L95.101,115.005z"
				/>
			<g>
				<path fill-rule="evenodd" clip-rule="evenodd" fill="#D7DADD" d="M108.089,110.1c18.304,19.384,35.13,3.254,35.16-0.55
					C137.28,103.345,117.177,96.278,108.089,110.1z"/>
				<path fill="#095371" d="M136.004,112.232c-3.729-0.842-6.064-4.548-5.223-8.274c0.311-1.366,1.009-2.55,1.953-3.455
					c-0.358-0.118-0.725-0.224-1.098-0.306c-6.175-1.4-12.316,2.468-13.715,8.645c-1.396,6.171,2.473,12.311,8.65,13.709
					c6.172,1.4,12.308-2.473,13.705-8.644c0.171-0.737,0.255-1.477,0.281-2.2C139.188,112.371,137.599,112.598,136.004,112.232z"/>
				<path fill="#31738B" d="M136.004,112.232c-3.695-0.831-6.012-4.47-5.241-8.16c-3.75-0.215-7.216,2.292-8.076,6.076
					c-0.956,4.216,1.69,8.405,5.907,9.359c4.21,0.954,8.403-1.689,9.359-5.901c0.09-0.405,0.14-0.817,0.164-1.225
					C137.427,112.439,136.714,112.399,136.004,112.232z"/>
				<path fill="#D7DADD" d="M144.252,107.131c0.846-3.725-1.49-7.435-5.219-8.276c-3.729-0.848-7.433,1.49-8.275,5.216
					c-0.85,3.728,1.491,7.438,5.217,8.278C139.698,113.189,143.408,110.858,144.252,107.131z"/>
				<path d="M138.746,113.273c0.846-3.724-1.49-7.434-5.215-8.277c-3.729-0.841-7.438,1.495-8.28,5.22
					c-0.845,3.728,1.491,7.437,5.22,8.278C134.195,119.337,137.904,116.999,138.746,113.273z"/>
				<path fill="#D7DADD" d="M135.737,109.509c-0.096-1.873-1.689-3.32-3.565-3.228c-1.874,0.097-3.32,1.693-3.228,3.567
					c0.098,1.875,1.691,3.319,3.569,3.229C134.385,112.982,135.831,111.389,135.737,109.509z"/>
			</g>
		</g>
		<path fill="#D7DADD" d="M78.196,17.02C69.079,32.99,55.822,62.678,55.822,62.678s17.989-10.036,68.888,0.902
			c18.013,3.868,32.454,8.481,43.6,12.827c20.768,3.793,23.849,4.621,28.803,6.81c-1.297-11.815-3.839-36.571-3.788-49.509
			C186.46,21.432,150.78,3.675,111.151,5.564C99.534,6.122,87.082,4.663,78.196,17.02z"/>
		<path fill="#777777" d="M181.27,22.625l-10.967,30.419l25.796,20.415c0,0-2.206-35.862-2.774-39.751
			C192.753,29.819,181.27,22.625,181.27,22.625z"/>
		<path d="M66.229,37.392c0,0,44.191-14.325,97.694,12.693c-43.29-4.43-101.417-7.21-101.417-7.21L66.229,37.392z"/>
		<path fill="#232323" d="M65.734,41.344c40.141-9.765,84.049,2.433,84.049,2.433s33.312,12.589,46.315,29.683
			c0.3,2.545,0.686,5.842,1.046,8.913c-6.081-1.519-9.269-2.991-34.761-7.997c-8.058-2.78-17.827-5.797-29.64-8.963
			c-54.429-14.587-76.922-2.734-76.922-2.734S59.985,53.033,65.734,41.344z"/>
		<path fill="none" stroke="#3A2005" stroke-miterlimit="10" d="M197.164,77.756"/>
		<path d="M163.924,50.085c-0.339,2.788-6.873,21.788-6.873,21.788l25.467,6.728l3.259-15.192
			C185.776,63.408,167.684,50.485,163.924,50.085z"/>
		<polygon points="171.189,77.809 185.708,80.276 190.461,83.806 184.799,82.104 		"/>
		<path fill="#D7DADD" d="M217.512,90.748c0.229-1.573,0.172-4.282-0.229-5.266c-1.632-0.646-2.83-1.102-4.454-1.705
			C155.81,62.606,105.272,70.345,86.544,69.803c-12.937,0.175-39.466-8.292-54.938-1.75c-1.723,1.184-2.332,2.423-2.418,3.512
			c14.992-7.313,44.082,4.832,58.488,4.333C109.21,77.42,158.822,66.646,217.512,90.748z"/>
		<path fill="#FFFFFF" d="M211.94,83.451c-53.136-16.723-95.246-14.288-116.722-12.078c-18.846,3.152-36.949-10.05-64.918-1.876
			C31.464,65.833,80.192,34.477,211.94,83.451z"/>
		<path fill="#CACBCC" d="M135.642,11.585c-3.144,20.854,17.245,33.015,25.245,32.82c8.007-0.194,10.146-7.892,10.053-14.235
			C170.849,23.826,147.431,11.283,135.642,11.585z"/>
		<path d="M135.642,11.585c0.745,25.801,25.245,32.82,25.245,32.82S129.519,46.448,135.642,11.585z"/>
		<path d="M33.041,65.146c24.985-4.983,37.271,2.1,53.92,2.864c16.646,0.768,35.961-2.831,62.413,2.874
			c-33.646-1.949-53.739,0.744-62.525,0.932c-8.783,0.19-43.303-9.923-56.548-2.319C26.089,72.408,27.619,66.137,33.041,65.146z"/>
		<path d="M187.231,80.95c0,0,5.863,1.384,12.236,3.343c6.323,4.633-8.597,8.791-8.597,8.791L187.231,80.95z"/>
		<path fill="#D7DADD" d="M94.512,118.551c1.165-1.632,2.291-1.965,2.291-1.965s1.892-0.579,3.281,0.234
			C102.247,118.345,93.344,120.184,94.512,118.551z"/>
		<path fill="#31738B" d="M75.957,124.396c-0.25,0.684,0.576,2.701-0.861,2.418c-3.522-0.9-3.078-4.227-3.078-4.227
			S73.032,124.967,75.957,124.396z"/>
		<path d="M75.947,124.283c0.026,1.229,0.49,2.86,0.49,2.86l-1.383-0.027C75.055,127.116,74.597,125.808,75.947,124.283z"/>
		<path fill="#31738B" d="M87.916,128.9c-7.642,1.992-11.479-1.757-11.479-1.757l-0.466-2.46
			C75.972,124.684,81.296,130.503,87.916,128.9z"/>
		<polygon fill="#29264D" points="184.136,86.433 184.508,88.157 188.707,85.859 188.465,85.061 		"/>
		<polygon fill="#29264D" points="178.121,79.998 184.799,82.104 184.854,84.147 183.85,85.257 176.801,81.581 		"/>
	</g>
</g>
</svg>
