<?xml version="1.0" encoding="utf-8"?>
<!-- Generator: Adobe Illustrator 16.2.1, SVG Export Plug-In . SVG Version: 6.00 Build 0)  -->
<!DOCTYPE svg PUBLIC "-//W3C//DTD SVG 1.1//EN" "http://www.w3.org/Graphics/SVG/1.1/DTD/svg11.dtd">
<svg version="1.1" xmlns="http://www.w3.org/2000/svg" xmlns:xlink="http://www.w3.org/1999/xlink" x="0px" y="0px"
	 width="242.942px" height="269.291px" viewBox="0 0 242.942 269.291" enable-background="new 0 0 242.942 269.291"
	 xml:space="preserve">
<g id="Capa_1">
	<path fill="#FFFFFF" d="M121.933,0l0.539,111.274l17.4-109.816L123.54,111.45L157.372,5.794l-32.806,106L173.998,12.9
		L125.529,112.3l63.812-89.694l-62.939,90.351l76.62-78.29l-75.857,79.078l87.546-64.957l-86.911,65.857l96.313-50.021
		l-95.821,51.013l102.707-33.854l-102.376,34.915l106.575-16.857l-106.406,17.958l107.818,0.557l-107.818,0.557l106.406,17.955
		l-106.575-16.854l102.376,34.913l-102.707-33.853l95.821,51.011l-96.313-50.018l86.911,65.85l-87.546-64.95l75.857,79.073
		l-76.62-78.285l62.939,90.345l-63.812-89.689l48.469,99.395l-49.432-98.889l32.806,105.994L123.54,125.26l16.332,109.987
		l-17.4-109.811l-0.539,111.268l-0.539-111.268l-17.398,109.811l16.334-109.987L86.495,230.91l32.804-105.996l-49.428,98.891
		l48.468-99.395L54.53,214.1l62.935-90.345l-76.621,78.285l75.858-79.073l-87.544,64.95l86.908-65.85l-96.312,50.018l95.823-51.011
		L12.87,154.924l102.373-34.912L8.668,136.867l106.405-17.955L7.258,118.355l107.815-0.557L8.668,99.841l106.575,16.857
		L12.87,81.783l102.708,33.854L19.755,64.624l96.312,50.021L29.158,48.787l87.544,64.957L40.844,34.666l76.621,78.29L54.53,22.605
		l63.809,89.694l-48.468-99.4l49.428,98.895l-32.804-106l33.834,105.656L103.995,1.458l17.398,109.816L121.933,0z"/>
</g>
<g id="Capa_4">
	<g>
		<g>
			<rect x="69.852" y="192.318" fill="#FFFFFF" width="113.767" height="30.518"/>
			<path d="M182.12,193.818v27.518H71.353v-27.518H182.12 M185.119,190.816h-2.999H71.353h-3.001v3.002v27.518v3h3.001H182.12h2.999
				v-3v-27.518V190.816L185.119,190.816z"/>
		</g>
		<g>
			<path d="M104.176,202.059v8.791c0,0.523-0.032,0.969-0.099,1.34c-0.063,0.371-0.189,0.674-0.373,0.91
				c-0.183,0.234-0.438,0.408-0.764,0.516c-0.329,0.109-0.753,0.164-1.275,0.164h-0.838v-1.258c0.314,0,0.577-0.008,0.791-0.025
				c0.214-0.016,0.387-0.078,0.518-0.184c0.131-0.104,0.224-0.27,0.281-0.498c0.058-0.225,0.085-0.547,0.085-0.965v-8.791H104.176z"
				/>
			<path d="M112.607,210.012c0,0.523-0.054,1.02-0.163,1.492c-0.109,0.469-0.291,0.883-0.55,1.236
				c-0.257,0.352-0.601,0.633-1.03,0.842c-0.43,0.211-0.964,0.314-1.605,0.314c-0.437,0-0.821-0.047-1.157-0.143
				c-0.337-0.098-0.627-0.23-0.874-0.4c-0.244-0.17-0.455-0.375-0.624-0.613c-0.17-0.242-0.309-0.504-0.409-0.793
				c-0.104-0.287-0.175-0.596-0.219-0.922s-0.066-0.666-0.066-1.014v-4.188c0-0.348,0.022-0.686,0.066-1.014
				c0.044-0.326,0.115-0.633,0.219-0.922c0.101-0.289,0.239-0.551,0.409-0.791c0.169-0.24,0.38-0.445,0.624-0.615
				c0.247-0.17,0.537-0.303,0.874-0.4c0.336-0.096,0.721-0.143,1.157-0.143c0.642,0,1.176,0.104,1.605,0.314
				c0.43,0.209,0.773,0.49,1.03,0.844c0.259,0.352,0.44,0.766,0.55,1.236c0.109,0.469,0.163,0.967,0.163,1.49V210.012z
				 M107.585,210.43c0,0.314,0.028,0.6,0.084,0.855c0.057,0.258,0.151,0.479,0.281,0.662c0.131,0.184,0.304,0.326,0.517,0.424
				c0.215,0.102,0.478,0.15,0.792,0.15s0.578-0.049,0.792-0.15c0.214-0.098,0.386-0.24,0.517-0.424
				c0.132-0.184,0.227-0.404,0.281-0.662c0.056-0.256,0.085-0.541,0.085-0.855v-5.023c0-0.314-0.029-0.602-0.085-0.857
				c-0.055-0.256-0.149-0.477-0.281-0.66c-0.131-0.184-0.303-0.326-0.517-0.424c-0.214-0.102-0.478-0.152-0.792-0.152
				s-0.577,0.051-0.792,0.152c-0.213,0.098-0.386,0.24-0.517,0.424c-0.13,0.184-0.225,0.404-0.281,0.66
				c-0.056,0.256-0.084,0.543-0.084,0.857V210.43z"/>
			<path d="M119.013,213.779l-2.997-7.799v7.799h-1.674v-11.721h1.099l3.088,7.652v-7.652h1.674v11.721H119.013z"/>
			<path d="M125.925,213.779v-11.721h2.513c0.628,0,1.156,0.055,1.584,0.17c0.425,0.111,0.771,0.299,1.032,0.561
				s0.45,0.605,0.562,1.033c0.113,0.428,0.172,0.955,0.172,1.584v4.605c0,0.627-0.059,1.176-0.172,1.648
				c-0.111,0.471-0.3,0.861-0.562,1.178c-0.262,0.312-0.607,0.549-1.036,0.705c-0.429,0.158-0.961,0.236-1.595,0.236H125.925z
				 M128.438,212.521c0.418,0,0.74-0.053,0.967-0.162c0.227-0.111,0.394-0.281,0.498-0.516c0.103-0.236,0.166-0.539,0.184-0.91
				c0.017-0.369,0.025-0.816,0.025-1.342v-3.768c0-0.418-0.009-0.785-0.025-1.098c-0.018-0.314-0.081-0.576-0.187-0.785
				c-0.107-0.211-0.276-0.367-0.508-0.473c-0.23-0.104-0.561-0.156-0.986-0.156h-0.805v9.209H128.438z"/>
			<path d="M137.288,208.336h-2.094v4.186h2.931v1.258h-4.604v-11.721h4.604v1.254h-2.931v3.768h2.094V208.336z"/>
			<path d="M141.49,210.85l-0.588,2.93h-1.672l2.455-11.721h1.729l2.514,11.721h-1.612l-0.629-2.93H141.49z M143.417,209.592
				l-0.837-5.021l-0.837,5.021H143.417z"/>
			<path d="M152.121,213.779l-2.994-7.799v7.799h-1.674v-11.721h1.098l3.088,7.652v-7.652h1.674v11.721H152.121z"/>
		</g>
	</g>
</g>
<g id="Capa_16">
	<g>
		<g>
			<polygon fill="#D9DADB" points="168.62,267.597 168.62,260.562 75.222,260.562 75.222,267.597 5.897,267.597 21.189,248.332 
				5.897,229.066 36.016,229.066 36.016,222.035 207.646,222.035 207.646,229.066 237.429,229.066 225.2,248.332 237.429,267.597 
							"/>
			<path d="M205.598,224.083v7.035h28.104l-10.933,17.214l10.933,17.214H170.67v-7.034H73.172v7.034h-63.03l13.664-17.214
				l-13.664-17.214h27.924v-7.035H205.598 M209.696,219.985h-4.099H38.063h-4.099v4.1v2.935H10.142h-8.49l5.277,6.648l11.644,14.664
				L6.929,262.995l-5.277,6.649h8.49h63.03h4.1v-4.099v-2.934h89.3v2.934v4.099h4.099h63.031h7.459l-3.997-6.298l-9.537-15.015
				l9.537-15.016l3.997-6.297h-7.459h-24.005v-2.935V219.985L209.696,219.985z"/>
		</g>
		<polygon fill="#B0B4B7" points="73.172,265.546 73.172,231.118 10.142,231.118 23.806,248.332 10.142,265.546 		"/>
		<polygon fill="#B0B4B7" points="233.701,231.118 170.67,231.118 170.67,265.546 233.701,265.546 222.769,248.332 		"/>
		<polygon points="33.917,229.569 33.917,261.034 63.512,267.731 74.701,266.889 40.938,229.569 		"/>
		<polygon points="209.709,229.431 209.709,260.895 180.113,267.597 168.924,266.749 202.688,229.431 		"/>
		<polygon fill="#8B8B8B" points="205.598,224.083 205.598,258.514 170.67,265.546 170.534,231.118 		"/>
		<polygon fill="#8B8B8B" points="38.063,224.083 38.063,258.514 72.992,265.546 73.127,231.118 		"/>
		<rect x="38.063" y="224.083" fill="#D9DADB" width="167.534" height="34.429"/>
	</g>
	<g>
		<polygon fill="#D9DADB" points="169.093,267.635 169.093,260.602 75.696,260.602 75.696,267.635 6.371,267.635 21.663,248.369 
			6.371,229.106 36.488,229.106 36.488,222.072 208.121,222.072 208.121,229.106 237.904,229.106 225.673,248.369 237.904,267.635 
					"/>
		<path d="M206.072,224.123v7.033h28.103l-10.932,17.213l10.932,17.215h-63.031v-7.033H73.646v7.033H10.616l13.664-17.215
			l-13.664-17.213h27.923v-7.033H206.072 M210.17,220.025h-4.098H38.537h-4.099v4.098v2.934H10.616H2.128l5.277,6.651l11.642,14.663
			L7.405,263.035l-5.277,6.648h8.488h63.029h4.101v-4.1v-2.932h89.299v2.932v4.1h4.099h63.031h7.459l-3.998-6.299l-9.536-15.016
			l9.536-15.013l3.998-6.3h-7.459H210.17v-2.934V220.025L210.17,220.025z"/>
	</g>
	<polygon fill="#B0B4B7" points="73.646,265.584 73.646,231.158 10.616,231.158 24.28,248.369 10.616,265.584 	"/>
	<polygon fill="#B0B4B7" points="234.175,231.158 171.144,231.158 171.144,265.584 234.175,265.584 223.243,248.369 	"/>
	<polygon points="34.392,229.609 34.392,261.072 63.986,267.77 75.176,266.928 41.41,229.609 	"/>
	<polygon points="210.183,229.471 210.183,260.934 180.589,267.635 169.399,266.789 203.164,229.471 	"/>
	<polygon fill="#8B8B8B" points="206.072,224.123 206.072,258.551 171.144,265.584 171.007,231.158 	"/>
	<polygon fill="#8B8B8B" points="38.537,224.123 38.537,258.551 73.466,265.584 73.603,231.158 	"/>
	<rect x="38.537" y="224.123" fill="#D9DADB" width="167.535" height="34.428"/>
	<path d="M173.654,236.384l1.483,3.043l3.392,0.525l-2.484,2.328l0.542,3.335l-3.023-1.607l-3.058,1.535l0.622-3.316l-2.434-2.388
		l3.402-0.448L173.654,236.384z"/>
	<path d="M73.831,235.905l1.484,3.044l3.389,0.524l-2.483,2.324l0.54,3.335l-3.018-1.604l-3.062,1.535l0.621-3.319l-2.43-2.385
		l3.404-0.448L73.831,235.905z"/>
	<g>
		<path d="M90.188,234.25h0.392l0.242,0.159l0.055,0.175l0.36,0.582l0.273,0.457l0.121,0.31l0.188,0.296l0.108,0.259l0.053,0.157
			l-0.025,0.108l0.025,0.23l0.055,0.136l0.055,0.215l0.199,0.259l0.327,0.266l0.106,0.205l0.067,0.268l0.08,0.282l0.133,0.219
			l0.139,0.415l0.362,0.297l0.079,0.285l-0.055,0.241l-0.226,0.242l-0.107,0.201l-0.664,0.391l-0.441,0.271l-0.325,0.135
			l-0.133,0.107l-0.176,0.176l-0.133,0.054l-0.34,0.079l-0.216,0.163l-0.161,0.055l-0.47,0.283h-0.108l-0.203,0.159l-0.109,0.027
			l-0.375,0.363l-0.149,0.242l-0.025,0.109v0.121l-0.028,0.161l-0.214,0.219l-0.392-0.031l0.027,0.31l-0.027,0.218l-0.109,0.163
			l-0.078,0.253l-0.134,0.162l-0.071,0.164l0.041,0.254l0.109,0.188l0.133,0.029l0.137,0.055h0.16h0.337l0.254,0.121l0.382,0.025
			l0.309,0.027l0.161,0.027h0.109l0.363,0.053l0.375,0.029l0.368-0.055l0.156-0.107l0.055-0.121l0.066-0.139l-0.023-0.104v-0.107
			l-0.098-0.152l-0.104-0.188l-0.107-0.349l0.078-0.339l0.078-0.133l0.109-0.176l0.284-0.133l0.162-0.029h0.176l0.267,0.107
			l0.163,0.055l0.204,0.229l0.107,0.242l0.051,0.712l-0.051,0.121l-0.054,0.326l-0.054,0.338l-0.083,0.213l-0.146,0.107
			l-0.109,0.176l-0.029,0.162l-0.241,0.268l-0.201,0.205l-1.185,0.953l-0.108,0.176l-0.053,0.352l0.078,0.15l0.028,0.242
			l-0.054,0.217l-0.162,0.226l-0.148,0.029l-0.431,0.078l-0.201-0.054l-0.35-0.054l-0.176-0.05l-0.243-0.108l-0.162-0.098
			l-0.176-0.023l-0.161-0.03l-0.219-0.162l-0.254-0.054l-0.458-0.28l-0.145-0.053l-0.243-0.141l-0.284-0.156l-0.243-0.109
			l-0.391-0.26l-0.377-0.133l-0.337-0.162l-0.162-0.025h-0.417l-0.164-0.096l-0.199-0.188l-0.083-0.188l0.028-0.08l0.055-0.203
			l0.121-0.189l0.32-0.309l0.164-0.244l0.023-0.242l0.07-0.201l0.054-0.381v-0.174l-0.026-0.297v-0.175l-0.098-0.078l-0.023-0.242
			l0.147-0.084l-0.081-0.174l0.055-0.269l-0.027-0.162l-0.119-0.308l0.119-0.134l0.027-0.108v-0.109l-0.027-0.446l0.027-0.109V241.2
			l-0.027-0.188v-0.254l-0.027-0.38l0.027-0.256l-0.027-0.294l0.027-0.207l0.027-0.133l-0.055-0.107l-0.066-0.495l-0.025-0.313
			l0.025-0.214l-0.109-0.325l-0.078-0.121l-0.297-0.217l-0.096-0.104l-0.025-0.138l0.025-0.256l0.174-0.242l0.381-0.149l0.575-0.079
			l0.313-0.084l0.108-0.049l0.157-0.03l1.161-0.337l0.176-0.081h0.133l0.083-0.077l0.108-0.138l0.2,0.054l0.27-0.133l0.188-0.151
			l0.418-0.242l0.108-0.052l0.525-0.496l0.08-0.19l0.029-0.203l0.174-0.188L90.188,234.25z M88.368,236.957l-0.078,0.216v0.214
			l0.055,0.151l0.054,0.212l0.055,0.365l0.024,0.136l0.055,0.108l0.027,0.58l0.026,0.104l0.055,0.176l0.053,0.27l-0.08,0.188
			l0.08,0.259v0.159l-0.053,0.163l-0.081,0.283l0.026,0.108l0.027,0.109l-0.027,0.228l0.027,0.136v0.188l0.027,0.133l-0.055,0.259
			l0.079,0.133l0.366-0.472l0.389-0.133l0.055-0.138l0.108-0.054l0.109-0.079l0.162-0.055l0.229-0.391l0.054-0.105l-0.054-0.15
			l-0.137-0.242l-0.055-0.133l-0.037-0.175l-0.192-0.406l-0.388-0.996l-0.108-0.084l-0.271-0.525l-0.054-0.188l-0.336-0.579
			L88.368,236.957z"/>
		<path d="M99.552,229.357l0.109,0.066l0.324-0.036l0.202,0.036l0.242,0.109l0.228,0.216l0.029,0.216l0.025,0.148v0.133
			l-0.108,0.242l-0.391,0.23l-0.135,0.027l-0.199,0.055l-0.297,0.136l-0.138,0.133l-0.121,0.149l-0.214,0.496l-0.054,0.109v0.109
			l-0.028,0.188l-0.024,0.47v0.313l-0.085,1.817l-0.066,0.792l-0.024,0.137l-0.054,0.203l0.121,0.217l-0.043,0.213l0.151,0.12v0.192
			l0.024,0.212l-0.055,0.204v0.297l-0.078,0.175l-0.098,0.321v0.163l0.055,0.147v0.106l-0.055,0.192l0.151,0.441v0.364l0.024,0.27
			v0.634l-0.078,0.081l-0.067,0.149v0.266l0.024,0.313l-0.024,0.213l-0.108,0.271l0.199,0.025l0.055,0.176v0.192v0.361l0.055,0.188
			l-0.024,0.135v0.555l0.024,0.254l-0.055,0.217l-0.078,0.242l0.054,0.199l0.079,0.298v0.228l0.055,0.162l0.027,0.135l0.026,0.26
			l0.08,0.211l0.053,0.191l0.176,0.094l0.608,0.16l0.268,0.242l0.029,0.109v0.283l-0.188,0.297l-0.392,0.338l-0.188,0.135
			l-0.083,0.199l-0.309,0.055l-0.135,0.107l-0.337,0.393l-0.08,0.188l0.158,0.363l0.151,0.137l0.055,0.268l-0.151,0.363
			l-0.213,0.218l-0.19,0.024l-0.255-0.053l-0.108-0.081h-0.133l-0.085-0.055l-0.255-0.133l-0.188-0.23l-0.216-0.133l-0.285-0.163
			l-0.105-0.133l-0.105-0.15l-0.085-0.023l-0.309-0.219l-0.392-0.164l-0.297-0.145l-0.229-0.084l-0.213-0.104l-0.298-0.164
			l-0.094-0.082l-0.055-0.145l-0.055-0.273l0.136-0.283l0.148-0.133l0.107-0.055l0.269-0.133l0.204-0.393v-0.58l0.078-0.158
			l-0.078-0.139l-0.027-0.176l-0.027-0.133l0.078-0.133l0.055-0.445v-0.188l-0.055-0.339l0.14-0.078v-0.189l0.024-0.202l0.027-0.297
			l0.054-0.164l-0.054-0.145l-0.106-0.055v-0.325l-0.136-0.417l0.027-0.338l0.078-0.242l0.055-0.441l-0.024-0.163l0.055-0.605
			l0.024-0.313v-0.133l-0.079-0.242l0.055-0.149l-0.055-0.107l-0.054-0.714l0.023-0.472v-0.321v-0.204l0.03-0.213l0.106-0.259
			l0.16-0.163l-0.16-0.212l-0.137-0.391l-0.023-0.219l0.023-0.121l-0.023-0.103l0.054-0.14l-0.03-0.387l-0.023-0.459l-0.031-0.31
			l-0.051-1.768l-0.082-0.389l-0.041-0.27l-0.025-0.285L95,231.164l-0.176-0.12l-0.159-0.243l-0.055-0.283l0.133-0.242l0.229-0.162
			l0.43-0.024l0.446,0.05l0.229,0.055l0.297,0.082h0.108l0.496,0.309l0.259,0.188l0.159,0.165l0.3,0.307l0.146,0.14l0.161-0.055
			l0.055-0.137l-0.106-0.176l0.267-0.686l0.148-0.162l0.352-0.501l0.391-0.158l0.243-0.121L99.552,229.357z"/>
		<path d="M109.819,230.584l0.5,0.027l0.079,0.027l0.204,0.107l0.268,0.081l0.191,0.217l0.47,0.55l0.31,0.121l0.272,0.031
			l0.361,0.023l0.551,0.055l0.272-0.109l0.229,0.191h0.297h0.283h0.401h0.338l0.161,0.027l0.134-0.055l0.229,0.027h0.608
			l0.297-0.055l0.122,0.055l0.482-0.055h0.393h0.228h0.324l0.445-0.105l0.134-0.068l0.336-0.053l0.27-0.086l0.161-0.078l0.309-0.392
			l0.446-0.188l0.446,0.028l0.295,0.079l0.336,0.254l0.084,0.296v0.395l-0.109,0.391l-0.149,0.243l-0.134,0.023l-0.133,0.138
			l-0.163,0.026l-0.418,0.149l-0.47,0.242l-0.364,0.363l-0.137,0.296l-0.055,0.161v0.146v0.163l-0.026,0.133l-0.054,0.284
			l-0.026,0.271l-0.054,0.389l-0.027,0.904l0.027,0.309l-0.055,0.218v0.229l-0.174,0.107l0.174,0.105l-0.053,0.769l0.053,0.366
			l-0.027,0.363l0.027,0.188l0.027,0.446l0.107,0.375l-0.026,0.176l-0.054,0.163l0.027,0.361l0.106,0.136l-0.106,0.688v0.338
			l0.053,0.296l-0.026,0.338l0.026,0.928l-0.053,0.337l0.078,0.106l0.083,0.055l0.055,0.176l0.024,0.163l0.054,0.215v0.175v0.135
			l0.03,0.109l0.176,0.188l0.049,0.199l-0.104,0.273v0.254l0.055,0.189l0.103,0.213l0.14,0.309l0.334,0.219l0.162,0.055l0.217,0.174
			l0.176,0.135l0.023,0.35l0.03,0.176l-0.085,0.215l-0.254,0.256l-0.634,0.193h-0.163l-0.134,0.102l-0.121,0.086h-0.106
			l-0.135-0.055l-0.217,0.229l-0.199-0.066l-0.242,0.066l-0.367,0.242l-0.105,0.025h-0.161l-0.151,0.109l-0.297,0.083l-0.106,0.023
			l-0.202,0.098l-0.133,0.055l-0.446,0.211l-0.109-0.023l-0.105,0.078l-0.243-0.023l-0.147,0.053l-0.294,0.052l-0.206,0.028
			l-0.511,0.078h-0.202l-0.163,0.069l-0.213,0.027l-0.067-0.175l-0.106,0.055l-0.055,0.173l-0.525,0.055l-0.163-0.029l-0.66-0.025
			l-0.204,0.025l-0.792-0.025l-0.107-0.027l-0.109-0.053l-0.229-0.041l-0.162-0.028l-0.16-0.054l-0.784-0.104l-0.133-0.107
			l-0.471-0.188l-0.552-0.122l-0.029-0.137l-0.133-0.055l-0.325-0.108l0.028-0.104l-0.121,0.053v-0.107l-0.245-0.15l-0.134-0.133
			l-0.363-0.418l-0.337-0.555l-0.055-0.188l-0.213-0.393l-0.054-0.104l-0.163-0.744l0.055-0.688l-0.029-0.309l0.107-0.242
			l0.055-0.417l-0.024-0.162v-0.133l0.158-0.229l0.205-0.244l0.055-0.147l0.053-0.188l0.213-0.352l0.191-0.31l0.176-0.137
			l0.188-0.23l0.133-0.078l0.121-0.163l0.164-0.162l0.349-0.228l0.339-0.106l0.267-0.217l0.121-0.08l0.216-0.204l0.164-0.242
			l-0.271-0.499h-0.338l-0.431-0.213l-0.176-0.256l-0.052-0.299v-0.2l0.082-0.377l0.054-0.096l0.364-0.325l0.309-0.133h0.134
			l0.325-0.055l0.362,0.029l0.188,0.052l0.176,0.136l0.325,0.133l0.16,0.189l0.258,0.095l0.188,0.297v0.161l0.055,0.121l0.053,0.164
			l0.025,0.188l0.176,0.389l0.028,0.107l-0.028,0.419l-0.282,0.445l0.147,0.163l0.029,0.295l-0.029,0.146l0.029,0.247l-0.203,0.156
			l-0.164,0.393l-0.078,0.581l-0.081,0.188l-0.258,0.095l0.055,0.242l0.029,0.297l-0.217,0.284l-0.081,0.213l-0.028,0.312
			l-0.133,0.242l-0.041,0.199l0.066,0.164l-0.066,0.5v0.418l0.041,0.156l0.025,0.326l0.029,0.201l0.078,0.191l0.055,0.158
			l0.188,0.15l0.03,0.135l0.105,0.027l0.148,0.242l0.133,0.055l0.084,0.121l0.188,0.055l0.526,0.133h0.418l0.308-0.078l0.19-0.031
			l0.39-0.229l0.271-0.375l0.162-0.283l0.146-0.025l0.163-0.297l-0.03-0.258v-0.135l0.085-0.445l0.078-0.107l-0.108-0.16
			l0.055-0.283l0.241-0.502v-0.242l-0.211-0.36v-0.108l0.052-0.164l0.026-0.254l-0.026-0.188l0.081-0.446l-0.055-0.266l0.027-0.164
			l0.027-0.23v-0.603v-0.14l0.025-0.107v-0.418v-0.159l0.053-0.312l-0.078-0.387l0.025-0.164l-0.053-0.579l-0.082-0.162
			l-0.054-0.362v-0.109v-0.218l0.163-0.119v-0.189v-0.107l0.055-0.133l-0.029-0.109l0.029-0.121l0.023-0.241l-0.105-0.338v-0.109
			l-0.054-0.158l-0.028-0.138l0.135-0.309l0.029-0.133l-0.136-0.259v-0.214l0.054-0.364l-0.054-0.35l-0.082-0.135l-0.024-0.121
			l0.024-0.242v-0.109l-0.024-0.254l-0.03-0.189l-0.309-0.499l-0.078-0.026l-0.139-0.27l-0.08-0.043l-0.255-0.133l-0.137-0.023
			l-0.133-0.055l-0.109,0.023l-0.176-0.078h-0.213l-0.19,0.055l-0.199-0.084l-0.273,0.029l-0.389-0.084l-0.136,0.055h-0.496
			l-0.163-0.025h-0.162l-0.066-0.135h-0.135l-0.38-0.123l-0.023,0.123l-0.393-0.176l-0.284-0.244l-0.133-0.134l-0.188-0.417
			l-0.031-0.24l0.031-0.448l0.108-0.161l0.079-0.147l0.133-0.107L109.819,230.584z"/>
		<path d="M126.62,234.276h0.152l0.294,0.028l0.635,0.31l0.134,0.212l0.254,0.086l0.876,0.657l0.23,0.109l0.403,0.23l0.121,0.052
			l0.164,0.054l0.16,0.056l0.39,0.158l0.338,0.095l0.43,0.297l0.054,0.309l-0.025,0.163l-0.082,0.162l-0.08,0.108l-0.078,0.388
			l0.024,0.163v0.176l-0.109,0.378l-0.055,0.365l0.085,0.415l-0.085,0.297v0.133l0.03,0.176l-0.03,0.135v0.366l-0.051,0.133v0.242
			l0.027,0.176l-0.027,0.325v0.213l0.051,0.121l0.03,0.216l-0.03,0.164l-0.051,0.254l0.081,0.297v0.228l-0.03,0.14l-0.078,0.522
			l-0.066,0.107l0.121,0.083l-0.055,0.107l0.108,0.699l0.055,0.377l-0.055,0.078l0.024,0.176l-0.024,0.139l0.079,0.242l0.242,0.08
			l0.229,0.309v0.107l-0.121,0.205l-0.108,0.156l-0.106,0.055l-0.366,0.084l-0.106,0.055l-0.134,0.08h-0.189l-0.201,0.025
			l-0.19,0.082l-0.212,0.066l-0.527,0.242l-0.281,0.084l-0.501,0.188l-0.108,0.066l-0.605,0.271l-0.216,0.188l-0.105,0.176
			l0.024,0.211l0.135,0.26l0.053,0.322l-0.106,0.216l-0.473,0.309l-0.332-0.023l-0.139-0.055l-0.105-0.029l-0.084-0.08l-0.36-0.229
			l-0.297-0.053l-0.055-0.109l-0.229-0.025l-0.107-0.055l-0.109-0.078l-0.199-0.084l-0.109-0.121l-0.445-0.242l-0.349-0.309
			l-0.716-0.324l-0.201-0.08l-0.161-0.084l-0.134-0.066h-0.108l-0.34-0.158l-0.188-0.055l-0.175-0.242l0.08-0.283l0.337-0.393
			l0.055-0.162l0.109-0.242l0.078-0.309l0.043-0.326l0.023-0.078l0.085-0.622l0.024-0.63l0.137-0.107l-0.161-0.164v-0.392v-0.352
			v-0.118l-0.03-0.163l0.055-0.243l-0.024-0.145l-0.03-0.38l0.109-0.363v-0.163l-0.109-0.188l0.03-0.176l0.079-0.266l-0.109-0.109
			l-0.023-0.259v-0.107v-0.256l0.054-0.133l-0.054-0.164l-0.031-0.188l0.031-0.415l-0.031-0.219l-0.023-0.47l-0.152-0.363
			l-0.156-0.108l-0.164-0.188l-0.055-0.229l0.027-0.081l0.082-0.136l0.055-0.108l0.32-0.146l0.285-0.085l0.241-0.023l0.361-0.079
			l0.164-0.03l0.363-0.109l0.366-0.133l0.606-0.176l0.24-0.215l0.339-0.188l0.242-0.23l0.133-0.24l0.055-0.175l-0.026-0.296
			l0.026-0.109l0.121-0.2l0.216-0.163L126.62,234.276z M126.016,237.119l-0.217,0.08v0.163l0.028,0.121l0.105,0.213v0.525
			l0.03,0.501v0.352l0.023,0.119v0.08v0.138v0.266v0.152v0.133l-0.023,0.216l0.053,0.176v0.43l0.025,0.176l0.028,0.216l-0.054,0.242
			l-0.053,0.284l0.188,0.418v0.107l-0.135,0.351l0.025,0.199l-0.025,0.219l-0.083,0.228l0.054,0.107l-0.054,0.268l-0.053,0.527
			l-0.053,0.337l-0.106,0.241l-0.152,0.309l-0.054,0.139l0.121,0.135l0.405,0.16l0.176,0.027h0.106l0.352,0.094h0.255l0.137,0.027
			l0.551,0.105h0.163l0.283-0.023l0.055-0.203v-0.109l-0.313-0.352l-0.157-0.281l-0.085-0.524l0.03-0.19l0.055-0.686l0.024-0.281
			v-0.163l-0.024-0.078l0.024-0.259l-0.055-0.136l0.03-0.47l0.188-0.188l0.024-0.109l-0.158-0.311l0.025-0.244l0.133-0.309
			l-0.188-0.216v-0.136l-0.055-0.337v-0.523l-0.055-0.215l0.055-0.259v-0.297l0.055-0.188l-0.024-0.254l0.054-0.216l0.104-0.23
			v-0.217l-0.4,0.108l-0.176-0.055l-0.19-0.054l-0.213-0.134l-0.205-0.146l-0.16-0.163l-0.364-0.107L126.016,237.119z"/>
		<path d="M138.572,234.439h0.363l0.435,0.175l0.09,0.133l0.19,0.056l0.216,0.077l0.203,0.165l0.157,0.028l0.141,0.054l0.254,0.2
			l0.216,0.187l0.418,0.258l0.444,0.138l0.794,0.077l0.162,0.056l0.025,0.105l0.312,0.109l0.025,0.199l-0.025,0.327l-0.258,0.363
			l-0.164,0.446l-0.078,0.35l-0.026,0.254v0.218v0.332l-0.028,0.164l-0.055,0.446l0.031,0.162l0.023,0.443l-0.023,0.188
			l-0.206,0.524v0.109l-0.024,0.176l0.055,0.133v0.108v0.109l-0.085,0.634l0.085,0.078v0.418l0.066,0.662l0.055,0.256v0.217v0.333
			v0.108l-0.03,0.272v0.253v0.217l0.085,0.254l0.023,0.109l0.164,0.164l0.053,0.107l0.135,0.146l0.833,0.27l0.109,0.285
			l-0.026,0.295l-0.271,0.213l-0.282,0.176l-0.215,0.139l-0.176,0.133l-0.27,0.078l-0.339,0.393l-0.188,0.393l0.029,0.158
			l0.08,0.217v0.15l0.054,0.159l0.055,0.27l-0.055,0.176l-0.163,0.188l-0.268,0.109h-0.312l-0.164-0.078l-0.225-0.139l-0.19-0.08
			l-0.134-0.055l-0.175-0.199l-0.133-0.083l-0.141-0.188l-0.308-0.08l-0.025-0.26l-0.215-0.266l-0.135-0.109l-0.107-0.096
			l-0.176-0.109l-0.242-0.078l-0.163-0.08l-0.255-0.191l-0.083-0.279l0.028-0.217l0.336-0.309l0.137-0.084l0.162-0.266v-0.121
			l0.025-0.352l0.024-0.229l-0.05-0.107v-0.109l-0.029-0.219v-0.279l-0.079-0.607l0.024-0.337l-0.054-0.104l0.029-0.501
			l-0.029-0.079l-0.055-0.163v-0.133l0.055-0.204l0.029-0.109l0.024-0.159l0.03-0.161l0.134-0.098l-0.164-0.023v-0.405l0.03-0.176
			l0.024-0.379l0.029-0.134l-0.029-0.285l0.029-0.133l-0.054-0.199l0.054-0.247l0.025-0.332l-0.025-0.164l0.05-0.216l0.175-0.809
			l0.055-0.243l0.164-0.108l-0.285-0.079l-0.212-0.121l-0.298-0.163l-0.176-0.133l-0.19-0.134h-0.107l-0.226-0.121l-0.351-0.244
			l-0.284-0.081l-0.416-0.055l-0.163,0.082l-0.08,0.189l0.025,0.146l0.133,0.241l0.121,0.162l0.055,0.205l0.03,0.158l0.052,0.352
			l0.027,0.7v0.083l0.026,0.109l-0.026,0.156l0.055,0.207v0.375l-0.028,0.259l-0.105,0.104l-0.175,0.082l0.175,0.109l0.024,0.146
			l0.109,0.579l0.024,0.272l0.029,0.188l0.024,0.199l-0.054,0.191l0.029,0.16l0.024,0.149v0.164l-0.024,0.102l-0.029,0.34v0.188
			l0.029,0.446l-0.136,0.604l-0.082,0.326l-0.145,0.176l-0.055,0.188v0.217l0.145,0.08l0.19,0.041l0.324,0.08l0.202,0.027
			l0.159,0.055l0.26,0.188v0.363l-0.096,0.242l-0.109,0.133l-0.295,0.338l-0.472,0.338l-0.079,0.107l-0.175,0.055l-0.138,0.389
			l-0.16,0.193l0.134,0.242l0.026,0.078l0.106,0.203l-0.023,0.352l-0.164,0.176l-0.524,0.157l-0.188-0.054l-0.285-0.104
			l-0.161-0.085l-0.188-0.254l-0.255-0.163l-0.352-0.229l-0.174-0.271l-0.109-0.08l-0.188-0.078l-0.258-0.205l-0.213-0.109h-0.137
			l-0.256-0.078l-0.106-0.055l-0.136-0.08l-0.137-0.137l-0.053-0.145l0.028-0.326l0.078-0.176l0.245-0.213l0.189-0.107l0.23-0.582
			l0.023-0.391l-0.023-0.188l0.023-0.338l0.083-0.135v-0.162l-0.028-0.132l0.055-0.229l-0.026-0.188v-0.175l0.026-0.109l-0.08-0.242
			v-0.337l0.135-0.352v-0.388c0-0.09-0.009-0.152-0.031-0.191l0.031-0.121v-0.211l-0.081-0.14l0.05-0.283l0.031-0.714v-0.441
			l-0.031-0.138v-0.242l-0.023-0.176l-0.026-0.105l-0.054-0.16v-0.109l0.025-0.108l0.055-0.119l-0.026-0.188l0.026-0.141
			l-0.133-0.524l-0.743-0.025l-0.121-0.028l-0.352-0.255l-0.079-0.32l0.16-0.42l0.161-0.189l0.109-0.026l0.176-0.204l0.161-0.188
			l0.188-0.217l0.256-0.253l-0.025-0.109l0.055-0.077l0.055-0.109v-0.121l-0.031-0.109l-0.023-0.109l-0.055-0.294l0.025-0.254
			l0.325-0.363l0.176-0.056l0.078,0.056l0.5,0.035l0.108,0.03l0.213,0.056l0.204,0.023l0.484,0.187h0.148l0.324,0.219l0.161,0.119
			l0.202,0.219l0.161,0.187l0.133,0.177l0.206,0.187l0.134,0.028l0.362-0.054l0.404-0.361l0.15-0.272l0.025-0.109l-0.121-0.282
			l0.096-0.321L138.572,234.439z"/>
		<path d="M149.271,234.276h0.146l0.296,0.028l0.634,0.31l0.137,0.212l0.258,0.086l0.876,0.657l0.227,0.109l0.405,0.23l0.121,0.052
			l0.16,0.054l0.162,0.056l0.392,0.158l0.337,0.095l0.432,0.297l0.055,0.309l-0.031,0.163l-0.078,0.162l-0.079,0.108l-0.085,0.388
			l0.031,0.163v0.176l-0.109,0.378l-0.055,0.365l0.079,0.415l-0.079,0.297v0.133l0.026,0.176l-0.026,0.135v0.366l-0.055,0.133v0.242
			l0.028,0.176l-0.028,0.325v0.213l0.055,0.121l0.026,0.216l-0.026,0.164l-0.055,0.254l0.081,0.297v0.228l-0.026,0.14l-0.08,0.522
			l-0.069,0.107l0.123,0.083l-0.054,0.107l0.106,0.699l0.053,0.377l-0.053,0.078l0.028,0.176l-0.028,0.139l0.083,0.242l0.242,0.08
			l0.229,0.309v0.107l-0.119,0.205l-0.109,0.156l-0.109,0.055l-0.363,0.084l-0.108,0.055l-0.133,0.08h-0.189l-0.203,0.025
			l-0.188,0.082l-0.218,0.066l-0.524,0.242l-0.285,0.084l-0.496,0.188l-0.106,0.066l-0.606,0.271l-0.217,0.188l-0.107,0.176
			l0.027,0.211l0.134,0.26l0.055,0.322l-0.108,0.216l-0.471,0.309l-0.339-0.023l-0.133-0.055l-0.107-0.029l-0.081-0.08l-0.366-0.229
			l-0.296-0.053l-0.052-0.109l-0.229-0.025l-0.108-0.055l-0.107-0.078l-0.206-0.084l-0.103-0.121l-0.448-0.242l-0.349-0.309
			l-0.714-0.324l-0.205-0.08l-0.159-0.084l-0.137-0.066h-0.104l-0.337-0.158l-0.189-0.055l-0.176-0.242l0.082-0.283l0.337-0.393
			l0.054-0.162l0.106-0.242l0.082-0.309l0.041-0.326l0.025-0.078l0.079-0.622l0.03-0.63l0.133-0.107l-0.163-0.164v-0.392v-0.352
			v-0.118l-0.024-0.163l0.055-0.243l-0.03-0.145l-0.024-0.38l0.109-0.363v-0.163l-0.109-0.188l0.024-0.176l0.085-0.266l-0.109-0.109
			l-0.03-0.259v-0.107v-0.256l0.055-0.133l-0.055-0.164l-0.024-0.188l0.024-0.415l-0.024-0.219l-0.025-0.47l-0.149-0.363
			l-0.162-0.108l-0.162-0.188l-0.053-0.229l0.025-0.081l0.08-0.136l0.055-0.108l0.325-0.146l0.282-0.085l0.243-0.023l0.362-0.079
			l0.164-0.03l0.363-0.109l0.363-0.133l0.605-0.176l0.243-0.215l0.335-0.188l0.246-0.23l0.134-0.24l0.055-0.175l-0.03-0.296
			l0.03-0.109l0.119-0.2l0.216-0.163L149.271,234.276z M148.662,237.119l-0.212,0.08v0.163l0.024,0.121l0.109,0.213v0.525
			l0.024,0.501v0.352l0.029,0.119v0.08v0.138v0.266v0.152v0.133l-0.029,0.216l0.054,0.176v0.43l0.03,0.176l0.024,0.216l-0.055,0.242
			l-0.054,0.284l0.19,0.418v0.107l-0.137,0.351l0.03,0.199l-0.03,0.219l-0.078,0.228l0.054,0.107l-0.054,0.268l-0.055,0.527
			l-0.055,0.337l-0.109,0.241l-0.145,0.309l-0.055,0.139l0.121,0.135l0.405,0.16l0.174,0.027h0.108l0.351,0.094h0.255l0.133,0.027
			l0.556,0.105h0.162l0.279-0.023l0.055-0.203v-0.109l-0.309-0.352l-0.163-0.281l-0.079-0.524l0.026-0.19l0.053-0.686l0.029-0.281
			v-0.163l-0.029-0.078l0.029-0.259l-0.054-0.136l0.024-0.47l0.19-0.188l0.027-0.109l-0.164-0.311l0.03-0.244l0.134-0.309
			l-0.188-0.216v-0.136l-0.054-0.337v-0.523l-0.055-0.215l0.055-0.259v-0.297l0.054-0.188l-0.029-0.254l0.054-0.216l0.109-0.23
			v-0.217l-0.403,0.108l-0.176-0.055l-0.188-0.054l-0.218-0.134l-0.2-0.146l-0.163-0.163l-0.361-0.107L148.662,237.119z"/>
	</g>
</g>
<g id="Capa_15">
	<g>
		<path d="M74.86,157.574l0.919,20.48l4.893,0.356c0,0,3.571,6.985,7.812,4.236c2.772,4.627,6.77,5.33,6.77,5.33
			s2.098,1.102,3.664-1.252c2.161,0.702,13.654,4.396,15.502,5.453c1.848,1.059,3.617-1.393,3.617-1.393s4.198,1.962,5.534,1.137
			c1.333-0.832,7.109-4.415,7.109-4.415s10.024,0.739,11.883,0.663c1.854-0.075,3.71-2.372,3.71-2.372s6.389-3.955,8.454-4.415
			c2.062-0.463,8.149-0.433,9.085-2.035c0.934-1.6,4.409-7.549,4.409-7.549s5.257-4.475,5.37-6.086
			c0.119-1.61,0.379-5.175,0.379-5.175l8.191-9.05L74.86,157.574z"/>
		<g>
			<path fill-rule="evenodd" clip-rule="evenodd" d="M55.11,145.831c2.141,4.935,5.869,8.077,8.336,7.007
				c2.455-1.068,2.715-5.933,0.577-10.874c-2.147-4.937-5.873-8.074-8.337-7.006C53.225,136.023,52.964,140.889,55.11,145.831z"/>
			<path d="M44.927,149.247c-3.32-9.52,5.902-13.293,5.902-13.293l4.857-0.996l8.748,16.841
				C64.435,151.799,49.07,160.252,44.927,149.247z"/>
			<path fill-rule="evenodd" clip-rule="evenodd" fill="#D1AB6F" d="M56.172,137.826c6.445,2.144,6.425,11.682,6.425,11.682
				s-10.695,6.193-14.154-0.842C44.986,141.634,52.149,137.681,56.172,137.826z"/>
			<path fill="#31738B" d="M61.513,143.619c0.246,5.683-3.104,7.031-5.931,8.288c3.591-0.472,7.015-2.399,7.015-2.399
				S62.504,145.675,61.513,143.619z"/>
		</g>
		<path fill-rule="evenodd" clip-rule="evenodd" fill="#D7DADD" d="M56.172,137.826c0,0-5.308-0.278-7.844,4.734
			c-0.8,2.445,11.984-1.397,11.025-2.648C58.262,138.55,56.172,137.826,56.172,137.826z"/>
		<path fill="#D7DADD" d="M95.859,173.304C52.536,158.938,28.976,112.011,43.338,68.69C57.7,25.365,104.632,1.803,147.957,16.167
			c43.323,14.366,66.885,61.3,52.521,104.621C186.114,164.11,139.183,187.668,95.859,173.304z"/>
		<path d="M148.479,17.413c42.44,14.068,65.432,59.876,51.366,102.319c-14.072,42.432-59.877,65.427-102.318,51.359
			C55.09,157.018,32.093,111.214,46.16,68.775C60.235,26.339,106.042,3.34,148.479,17.413 M149.629,13.951
			C105.349-0.73,57.387,23.349,42.704,67.63c-6.328,19.087-18.418,83.016,53.677,106.917c43.391,14.386,91.921-8.419,106.926-53.672
			C217.982,76.598,193.906,28.633,149.629,13.951L149.629,13.951z"/>
		<path fill="#FCFCFC" d="M60.696,98.419c-8.993,9.687-9.225,23.189-7.7,27.573C27.999,83.389,53.388,28.2,103.229,15.889
			C86.137,22.209,49.938,51.599,60.696,98.419z"/>
		<path d="M148.479,17.413c-1.475-0.427-2.915-0.917-4.378-1.319c39.624,13.367,60.976,56.492,47.698,96.536
			c-4.157,13.815-14.676,30.042-32.022,39.274c-3.286,1.477-10.802,6.889-17.281,9.696c-14.799,4.774-31.149,5.076-46.993-0.178
			c-38.928-12.907-60.345-54.474-48.933-93.817c-0.138,0.387-0.276,0.775-0.41,1.17c-14.067,42.438,8.93,88.242,51.367,102.315
			c42.441,14.067,88.246-8.928,102.318-51.359C217.203,67.379,183.706,27.601,148.479,17.413z"/>
		<path fill-rule="evenodd" clip-rule="evenodd" d="M186.502,136.167c-2.776,5.648-7.31,9.11-10.123,7.726
			c-2.812-1.382-2.845-7.078-0.073-12.731c2.779-5.65,7.307-9.105,10.122-7.723C189.242,124.822,189.271,130.518,186.502,136.167z"
			/>
		<path d="M198.202,140.725c4.402-10.936-6.157-15.853-6.157-15.853l-14.73,6.686l-2.035,11.07
			C175.279,142.627,192.76,153.346,198.202,140.725z"/>
		<path fill-rule="evenodd" clip-rule="evenodd" fill="#D1AB6F" d="M185.697,126.763c-7.64,2.149-8.141,13.291-8.141,13.291
			s12.147,7.818,16.575-0.203C198.554,131.827,190.4,126.812,185.697,126.763z"/>
		<path fill="#31738B" d="M179.144,133.235c7.819,5.905,15.463,4.702,15.964,4.28c-3.007,11.679-17.551,2.539-17.551,2.539
			S177.872,135.58,179.144,133.235z"/>
		<path d="M203.981,86.519c-0.56-0.179-13.854-4.428-33.906-5.891c-2.361-0.174-4.741-0.301-7.104-0.381
			c-3.547-4.825-8.544-8.913-14.53-11.874c-5.371-2.657-11.379-4.342-16.917-4.748c-0.854-0.062-1.691-0.092-2.491-0.088
			l-0.028-0.002l-0.023,0.002c-12.42,0.253-21.079,5.575-26.15,9.992c-1.278,1.113-2.396,2.224-3.365,3.276
			c-0.011-1.129,0-2.364,0.048-3.69c0.222-6.085,1.297-15.384,5.169-25.131c2.758-6.948,7.414-14.361,12.77-20.341
			c5.953-6.64,12.235-11.051,18.171-12.759l11.916-0.871c0,0-28.599-4.426-33.043-3.419l-0.398,0.09l-0.354,0.198
			c-9.344,5.192-17.12,12.325-23.101,21.203c-4.767,7.065-8.403,15.234-10.812,24.28c-2.472,9.271-3.143,17.488-3.279,22.653
			c-2.56-1.389-5.994-2.745-10.011-3.038c-1.331-0.097-2.675-0.074-3.993,0.069l-0.027,0.003l-0.023,0.004
			c-7.945,1.007-16.15,6.036-20.904,12.814c-3.495,4.984-4.798,10.517-3.66,15.578l0.012,0.049l0.012,0.046
			c2.187,8.363,9.404,13.783,19.312,14.51c4.112,0.3,8.32-0.247,12.164-1.582c0.771-0.267,1.512-0.565,2.221-0.89
			c-2.074,4.266-1.412,7.659-0.858,9.261c1.237,3.573,4.4,6.054,8.061,6.321c0.932,0.068,1.856-0.008,2.762-0.223
			c2.669,1.399,5.441,2.212,8.255,2.418c7.198,0.523,14.001-2.91,19.261-9.693c4.09-1.017,6.954-2.935,8.523-5.707
			c0.649-1.147,0.99-2.295,1.146-3.349c1.511,0.305,3.387,0.6,5.527,0.755c5.913,0.43,11.553-0.309,16.774-2.197
			c6.757-2.449,12.604-6.773,17.386-12.868c6.907-1.23,16.386-1.449,27.516-0.636c8.45,0.616,14.888,1.62,14.952,1.631l2.79,0.438
			l0.463-2.786l1.705-10.25l0.4-2.42L203.981,86.519z"/>
		<path fill="#666666" d="M97.157,84.626c0,0,9.491-17.781,31.885-18.24c9.348-0.03,24.52,4.838,32.419,16.665
			c24.523,0.636,41.639,6.179,41.639,6.179l-1.698,10.249c0,0-27.114-4.265-44.513-0.775
			c-16.464,22.031-41.162,13.166-41.162,13.166s2.859,8.02-8.244,10.247c-6.977,9.618-16.789,11.936-25.553,6.737
			c-6.679,2.739-14.375-6.586-3.156-16.811c2.896-5.763,2.438-6.765,2.438-6.765s-4.645,6.699-12.714,9.502
			c-10.232,3.554-24.622,1.141-27.783-10.956c-2.588-11.51,10.096-23.416,22.14-24.943c9.621-1.048,16.606,5.594,16.606,5.594
			s-3.564-49.308,35.667-71.104c7.772-1.197,13.204-0.409,16.779,0.26c0.789,0.149-17.241,4.614-29.875,33.3
			C94.199,66.656,97.157,84.626,97.157,84.626z"/>
		<path fill="#999999" d="M97.581,83.917c0,0,8.684-18.996,35.63-17.257C109.387,68.872,97.581,83.917,97.581,83.917z"/>
		<path fill="#999999" d="M40.321,100.976c5.329-15.16,23.484-22.174,23.484-22.174S42.324,82.145,40.321,100.976z"/>
		<path fill="#999999" d="M115.127,13.372l7.609-0.619c0,0-39.938,12.105-43.276,71.722
			C76.638,32.625,115.127,13.372,115.127,13.372z"/>
		<path fill="#D1AB6F" d="M78.796,93.569c3.13,9.274-9.092,18.211-20.494,18.038c-6.839-0.104-13.723-5.585-13.645-11.58
			C44.873,84.044,73.789,78.729,78.796,93.569z"/>
		<path fill="#31738B" d="M51.416,89.767c-3.043,6.63,0.636,18.387,1.927,19.726c-5.4-1.201-8.516-7.728-8.516-7.728
			S42.704,95.886,51.416,89.767z"/>
		<path fill="#D1AB6F" d="M101.897,94.688c-2.481-8.283,14.303-22.439,30.174-22.931c12.496-0.387,23.858,8.858,23.006,17.863
			c-0.246,6.816-10.674,15.848-21.672,17.653C119.582,109.545,104.372,102.93,101.897,94.688z"/>
		<g>
			<path fill="#FFFFFF" d="M90.943,130.344l0.007-0.426c0.564,0.013,1.127-0.008,1.687-0.059l0.038,0.426
				C92.104,130.338,91.521,130.358,90.943,130.344z M89.213,130.208c-0.563-0.075-1.137-0.187-1.697-0.327l0.1-0.413
				c0.551,0.136,1.107,0.242,1.657,0.316L89.213,130.208z M94.388,130.027l-0.086-0.419c0.544-0.112,1.089-0.258,1.626-0.434
				l0.134,0.405C95.509,129.761,94.943,129.911,94.388,130.027z M85.856,129.382c-0.531-0.192-1.069-0.415-1.598-0.662l0.185-0.385
				c0.516,0.238,1.035,0.456,1.558,0.643L85.856,129.382z M79.154,128.113c-0.43-0.029-0.851-0.118-1.254-0.258l0.14-0.405
				c0.518,0.179,1.065,0.263,1.603,0.248l0.011,0.428C79.491,128.13,79.321,128.126,79.154,128.113z M82.729,127.919l-0.698-0.417
				l-0.64,0.263l-0.156-0.397l0.828-0.34l0.878,0.523L82.729,127.919z M97.675,128.958l-0.175-0.392
				c0.506-0.227,1.014-0.483,1.507-0.766l0.211,0.374C98.714,128.462,98.195,128.725,97.675,128.958z M76.352,126.987
				c-0.458-0.372-0.853-0.821-1.174-1.33l0.366-0.227c0.291,0.471,0.651,0.883,1.078,1.229L76.352,126.987z M100.678,127.251
				l-0.246-0.352c0.455-0.313,0.91-0.66,1.351-1.021l0.272,0.327C101.606,126.576,101.143,126.927,100.678,127.251z M74.49,124.027
				c-0.135-0.549-0.201-1.14-0.192-1.748l0.425,0.008c-0.007,0.571,0.055,1.12,0.182,1.639L74.49,124.027z M103.34,125.061
				l-0.293-0.309c0.4-0.384,0.797-0.793,1.178-1.213l0.317,0.284C104.15,124.253,103.749,124.669,103.34,125.061z M74.932,120.637
				l-0.416-0.096c0.127-0.545,0.312-1.102,0.546-1.657l0.395,0.17C75.231,119.583,75.053,120.119,74.932,120.637z M105.659,122.513
				l-0.332-0.267c0.282-0.354,0.56-0.722,0.828-1.092l0.194-0.265l0.342,0.25l-0.19,0.267
				C106.229,121.781,105.944,122.153,105.659,122.513z M108.153,120.726l-0.104-0.416c0.572-0.143,1.115-0.305,1.615-0.487
				l0.146,0.399C109.299,120.41,108.742,120.582,108.153,120.726z M76.225,117.559l-0.369-0.219c0.288-0.474,0.611-0.957,0.976-1.43
				l0.341,0.257C76.822,116.629,76.499,117.099,76.225,117.559z M111.4,119.509l-0.208-0.374c0.513-0.283,0.974-0.601,1.366-0.945
				l0.28,0.322C112.423,118.877,111.939,119.211,111.4,119.509z M57.561,115.002c-0.197-0.016-0.393-0.032-0.589-0.052l0.045-0.425
				c0.548,0.053,1.117,0.09,1.688,0.106l-0.013,0.427C58.311,115.047,57.935,115.027,57.561,115.002z M55.268,114.724
				c-0.575-0.097-1.141-0.216-1.692-0.352l0.103-0.416c0.538,0.135,1.095,0.253,1.661,0.348L55.268,114.724z M60.419,115.05
				l-0.016-0.428c0.559-0.019,1.131-0.059,1.69-0.115l0.045,0.424C61.563,114.989,60.985,115.028,60.419,115.05z M51.922,113.883
				c-0.555-0.186-1.095-0.397-1.61-0.628l0.171-0.39c0.509,0.224,1.036,0.432,1.575,0.615L51.922,113.883z M63.844,114.708
				l-0.068-0.423c0.56-0.092,1.119-0.202,1.664-0.329l0.096,0.418C64.979,114.502,64.415,114.613,63.844,114.708z M78.254,114.872
				l-0.318-0.289c0.376-0.409,0.78-0.826,1.211-1.232l0.293,0.31C79.021,114.061,78.624,114.468,78.254,114.872z M67.202,113.928
				l-0.123-0.411c0.296-0.089,0.592-0.184,0.881-0.286c0.241-0.083,0.481-0.173,0.72-0.263l0.153,0.396
				c-0.244,0.095-0.485,0.184-0.733,0.272C67.805,113.738,67.503,113.837,67.202,113.928z M57.01,113.173
				c-0.568-0.058-1.141-0.149-1.713-0.268l0.091-0.42c0.555,0.119,1.111,0.205,1.663,0.261L57.01,113.173z M58.738,113.248v-0.428
				c0.554-0.003,1.125-0.026,1.689-0.069l0.036,0.426C59.886,113.22,59.304,113.245,58.738,113.248z M48.763,112.474
				c-0.352-0.201-0.695-0.419-1.025-0.638c-0.145-0.099-0.284-0.199-0.426-0.3l0.247-0.346c0.137,0.098,0.276,0.196,0.42,0.291
				c0.315,0.218,0.652,0.427,0.999,0.623L48.763,112.474z M113.995,117.177l-0.365-0.227c0.035-0.058,0.071-0.117,0.105-0.174
				c0.234-0.411,0.412-0.859,0.528-1.332l0.414,0.1c-0.123,0.513-0.317,1.001-0.572,1.444
				C114.071,117.052,114.029,117.115,113.995,117.177z M53.625,112.457c-0.545-0.175-1.087-0.381-1.618-0.612l0.171-0.392
				c0.517,0.225,1.047,0.426,1.579,0.597L53.625,112.457z M62.174,112.984l-0.063-0.423c0.559-0.08,1.12-0.183,1.669-0.299
				l0.095,0.417C63.311,112.8,62.74,112.902,62.174,112.984z M70.417,112.678l-0.187-0.385c0.498-0.241,1.007-0.506,1.498-0.787
				l0.216,0.372C71.439,112.164,70.925,112.435,70.417,112.678z M65.545,112.266l-0.114-0.413c0.537-0.15,1.08-0.322,1.615-0.509
				l0.141,0.402C66.645,111.937,66.093,112.112,65.545,112.266z M50.46,111.078c-0.508-0.281-1-0.59-1.47-0.915l0.241-0.353
				c0.458,0.319,0.939,0.619,1.436,0.894L50.46,111.078z M45.97,110.437c-0.427-0.394-0.832-0.817-1.199-1.255l0.325-0.274
				c0.361,0.425,0.753,0.832,1.163,1.214L45.97,110.437z M80.498,112.257l-0.384-0.188c0.264-0.537,0.513-1.057,0.73-1.538
				l0.391,0.177C81.011,111.195,80.765,111.715,80.498,112.257z M68.793,111.128l-0.163-0.393c0.521-0.22,1.037-0.458,1.54-0.708
				l0.191,0.382C69.849,110.665,69.322,110.906,68.793,111.128z M47.617,109.104l-0.096-0.086c-0.404-0.356-0.793-0.731-1.151-1.113
				l0.31-0.292c0.347,0.372,0.727,0.735,1.125,1.083l0.093,0.083L47.617,109.104z M73.411,110.972l-0.238-0.356
				c0.468-0.31,0.932-0.64,1.384-0.983l0.26,0.34C74.357,110.32,73.886,110.656,73.411,110.972z M114.409,113.807
				c-0.042-0.819-0.225-1.378-0.232-1.402l-0.076-0.212l0.402-0.144l0.078,0.217c0.012,0.03,0.213,0.644,0.254,1.52L114.409,113.807
				z M43.739,107.787c-0.314-0.481-0.598-0.99-0.85-1.513l0.386-0.185c0.246,0.508,0.521,1,0.821,1.467L43.739,107.787z
				 M71.878,109.589l-0.218-0.368c0.495-0.287,0.976-0.59,1.438-0.904l0.236,0.355C72.87,108.991,72.377,109.3,71.878,109.589z
				 M76.158,108.889l-0.28-0.324c0.427-0.368,0.847-0.754,1.251-1.146l0.3,0.31C77.019,108.125,76.59,108.515,76.158,108.889z
				 M45.263,106.573c-0.348-0.476-0.663-0.969-0.932-1.468l0.376-0.204c0.255,0.481,0.562,0.958,0.899,1.417L45.263,106.573z
				 M123.904,112.254c-0.564-0.05-1.141-0.115-1.708-0.191l0.057-0.424c0.563,0.075,1.128,0.139,1.691,0.19L123.904,112.254z
				 M125.621,112.375l0.019-0.426c0.561,0.028,1.135,0.042,1.701,0.047l-0.005,0.427
				C126.768,112.418,126.186,112.404,125.621,112.375z M81.914,109.129l-0.398-0.159c0.235-0.583,0.428-1.118,0.576-1.591
				l0.409,0.128C82.35,107.991,82.154,108.537,81.914,109.129z M120.496,111.798c-0.569-0.103-1.136-0.216-1.682-0.34l0.091-0.416
				c0.541,0.122,1.107,0.234,1.667,0.334L120.496,111.798z M129.056,112.396l-0.016-0.427c0.57-0.023,1.14-0.057,1.695-0.104
				l0.038,0.425C130.209,112.339,129.633,112.374,129.056,112.396z M117.146,111.039c-0.591-0.166-0.94-0.286-1.005-0.307
				l-0.64-0.231l0.145-0.4l0.636,0.228c0.062,0.021,0.401,0.137,0.975,0.299L117.146,111.039z M132.484,112.109l-0.056-0.423
				c0.559-0.074,1.126-0.163,1.68-0.261l0.073,0.421C133.623,111.946,133.052,112.036,132.484,112.109z M113.53,110.583
				l-0.515-1.437l1.023,0.369l-0.145,0.402l-0.175-0.062l0.213,0.586L113.53,110.583z M74.725,107.649l-0.265-0.334
				c0.446-0.354,0.877-0.725,1.284-1.103l0.291,0.312C75.624,106.909,75.18,107.289,74.725,107.649z M42.236,104.669
				c-0.126-0.366-0.244-0.745-0.348-1.129c-0.038-0.19-0.075-0.371-0.105-0.552l0.419-0.075c0.034,0.175,0.066,0.352,0.108,0.527
				c0.094,0.365,0.206,0.733,0.329,1.091L42.236,104.669z M135.865,111.5l-0.095-0.417c0.55-0.127,1.104-0.271,1.642-0.423
				l0.12,0.409C136.984,111.227,136.427,111.372,135.865,111.5z M78.634,106.494l-0.315-0.289c0.397-0.434,0.772-0.867,1.108-1.286
				l0.336,0.267C79.419,105.613,79.038,106.055,78.634,106.494z M139.176,110.553l-0.138-0.404c0.535-0.181,1.071-0.381,1.589-0.591
				l0.16,0.397C140.261,110.168,139.718,110.369,139.176,110.553z M43.618,103.517c-0.2-0.554-0.35-1.122-0.446-1.685l0.418-0.075
				c0.095,0.542,0.24,1.083,0.43,1.615L43.618,103.517z M125.357,109.289l0.022-0.426c0.569,0.035,1.138,0.057,1.703,0.068
				l-0.013,0.427C126.507,109.347,125.927,109.325,125.357,109.289z M123.642,109.146c-0.564-0.059-1.141-0.13-1.702-0.213
				l0.062-0.423c0.558,0.082,1.123,0.154,1.688,0.212L123.642,109.146z M128.79,109.349l-0.011-0.427
				c0.569-0.015,1.138-0.044,1.696-0.083l0.032,0.426C129.942,109.306,129.365,109.333,128.79,109.349z M120.241,108.644
				c-0.556-0.105-1.124-0.228-1.681-0.358l0.098-0.415c0.553,0.129,1.111,0.248,1.663,0.354L120.241,108.644z M82.872,105.798
				l-0.425-0.04l0.002-0.042c0.044-0.556-0.064-0.79-0.136-0.945l-0.248-0.536l0.391-0.177l0.246,0.535
				c0.083,0.181,0.224,0.485,0.172,1.153L82.872,105.798z M77.245,105.291l-0.32-0.287c0.385-0.428,0.74-0.868,1.062-1.31
				l0.345,0.25C78,104.4,77.638,104.852,77.245,105.291z M132.221,109.098l-0.051-0.425c0.475-0.058,0.957-0.127,1.433-0.205
				l0.247-0.041l0.073,0.42l-0.252,0.043C133.189,108.969,132.702,109.039,132.221,109.098z M116.896,107.856
				c-0.551-0.156-1.106-0.325-1.646-0.504l0.133-0.404c0.534,0.178,1.083,0.342,1.631,0.497L116.896,107.856z M142.366,109.271
				l-0.182-0.386c0.515-0.24,1.023-0.493,1.521-0.756l0.199,0.377C143.402,108.773,142.883,109.031,142.366,109.271z
				 M135.607,108.501l-0.096-0.417c0.541-0.128,1.091-0.276,1.638-0.441l0.12,0.41C136.719,108.219,136.161,108.371,135.607,108.501
				z M113.63,106.777c-0.541-0.205-1.076-0.424-1.594-0.65l0.173-0.393c0.509,0.225,1.039,0.441,1.572,0.644L113.63,106.777z
				 M41.593,101.262c-0.02-0.493-0.012-0.997,0.022-1.497c0.005-0.079,0.015-0.16,0.022-0.24l0.424,0.039
				c-0.005,0.076-0.011,0.155-0.016,0.231c-0.038,0.486-0.047,0.971-0.027,1.449L41.593,101.262z M80.773,103.79l-0.347-0.246
				l1.08-1.55l0.231,0.51l-0.1,0.049L80.773,103.79z M138.909,107.516l-0.144-0.4c0.527-0.188,1.062-0.396,1.582-0.613l0.166,0.394
				C139.985,107.117,139.444,107.326,138.909,107.516z M110.48,105.396c-0.41-0.205-0.819-0.421-1.214-0.64
				c-0.104-0.058-0.202-0.116-0.307-0.172l0.212-0.372c0.102,0.057,0.2,0.115,0.302,0.169c0.392,0.218,0.793,0.43,1.2,0.632
				L110.48,105.396z M79,102.956l-0.36-0.226c0.302-0.487,0.573-0.986,0.803-1.48l0.389,0.18
				C79.591,101.94,79.315,102.454,79,102.956z M145.403,107.662l-0.219-0.366c0.481-0.291,0.961-0.597,1.43-0.912l0.242,0.354
				C146.381,107.059,145.891,107.368,145.403,107.662z M43.015,100.093l0.003-0.089c0.002-0.286,0.018-0.581,0.04-0.873
				c0.018-0.255,0.044-0.512,0.075-0.77l0.423,0.055c-0.026,0.249-0.055,0.5-0.073,0.748c-0.018,0.283-0.03,0.568-0.035,0.845v0.086
				L43.015,100.093z M107.492,103.685c-0.487-0.322-0.959-0.655-1.408-0.994l0.259-0.342c0.439,0.333,0.905,0.662,1.386,0.978
				L107.492,103.685z M142.083,106.195l-0.179-0.388c0.506-0.24,1.019-0.5,1.513-0.768l0.201,0.378
				C143.118,105.688,142.599,105.949,142.083,106.195z M148.257,105.742l-0.256-0.341c0.448-0.335,0.896-0.69,1.334-1.052
				l0.271,0.329C149.161,105.045,148.711,105.403,148.257,105.742z M42.319,97.901l-0.418-0.091
				c0.117-0.551,0.278-1.113,0.464-1.668l0.406,0.137C42.588,96.821,42.438,97.364,42.319,97.901z M145.116,104.567l-0.221-0.367
				c0.485-0.291,0.967-0.598,1.435-0.911l0.236,0.353C146.091,103.961,145.604,104.27,145.116,104.567z M104.749,101.596
				c-0.436-0.392-0.855-0.796-1.239-1.203l0.311-0.293c0.377,0.397,0.784,0.794,1.212,1.175L104.749,101.596z M80.451,99.807
				l-0.408-0.124c0.16-0.541,0.285-1.091,0.362-1.635l0.426,0.059C80.748,98.675,80.621,99.247,80.451,99.807z M43.87,96.764
				l-0.41-0.105c0.141-0.557,0.319-1.112,0.528-1.651l0.399,0.156C44.185,95.686,44.009,96.225,43.87,96.764z M150.9,103.55
				l-0.288-0.317c0.416-0.379,0.832-0.774,1.228-1.173l0.304,0.3C151.741,102.767,151.323,103.166,150.9,103.55z M147.973,102.649
				l-0.257-0.342c0.453-0.34,0.901-0.692,1.334-1.05c0.392-0.328,0.771-0.662,1.141-0.996l0.287,0.315
				c-0.37,0.339-0.757,0.678-1.154,1.009C148.883,101.946,148.43,102.304,147.973,102.649z M102.391,99.072
				c-0.361-0.47-0.688-0.954-0.971-1.438l0.373-0.215c0.272,0.469,0.59,0.938,0.936,1.397L102.391,99.072z M43.391,94.709
				l-0.392-0.178c0.232-0.511,0.494-1.031,0.785-1.54l0.369,0.21C43.873,93.701,43.616,94.209,43.391,94.709z M80.509,96.379
				c-0.009-0.556-0.066-1.116-0.168-1.665l0.424-0.077c0.101,0.574,0.16,1.155,0.172,1.733L80.509,96.379z M45.089,93.634
				l-0.372-0.202c0.27-0.501,0.572-0.996,0.903-1.476l0.352,0.243C45.65,92.664,45.352,93.148,45.089,93.634z M153.33,101.119
				l-0.317-0.291c0.38-0.411,0.751-0.841,1.119-1.278l0.327,0.275C154.089,100.265,153.709,100.7,153.33,101.119z M100.655,96.073
				c-0.122-0.302-0.232-0.612-0.323-0.916c-0.073-0.246-0.138-0.501-0.186-0.756l0.419-0.079c0.048,0.24,0.105,0.48,0.174,0.713
				c0.087,0.292,0.194,0.589,0.313,0.881L100.655,96.073z M45.051,91.761l-0.359-0.236c0.077-0.111,0.151-0.218,0.226-0.323
				c0.248-0.359,0.52-0.72,0.798-1.069l0.336,0.263c-0.274,0.346-0.536,0.697-0.784,1.051C45.195,91.55,45.122,91.654,45.051,91.761
				z M151.714,99.375l-0.311-0.296c0.4-0.414,0.784-0.835,1.138-1.258l0.327,0.276C152.508,98.526,152.117,98.956,151.714,99.375z
				 M47.007,90.871l-0.325-0.282c0.376-0.429,0.778-0.847,1.198-1.247l0.295,0.308C47.76,90.043,47.37,90.451,47.007,90.871z
				 M79.914,93.092c-0.185-0.532-0.4-1.055-0.646-1.55l0.384-0.189c0.254,0.512,0.477,1.051,0.666,1.601L79.914,93.092z
				 M155.535,98.486l-0.338-0.261c0.129-0.167,0.255-0.333,0.379-0.503l0.375-0.5l0.602-0.124l0.083,0.421l-0.438,0.086
				l-0.277,0.374C155.792,98.151,155.664,98.318,155.535,98.486z M47.145,89.104l-0.32-0.287c0.383-0.419,0.787-0.837,1.2-1.238
				l0.3,0.307C47.917,88.281,47.52,88.69,47.145,89.104z M158.31,97.213l-0.07-0.423c0.548-0.09,1.116-0.176,1.698-0.259l0.06,0.424
				C159.418,97.035,158.854,97.122,158.31,97.213z M153.933,96.739l-0.346-0.25c0.336-0.47,0.645-0.945,0.926-1.413l0.367,0.217
				C154.598,95.774,154.276,96.259,153.933,96.739z M100.018,92.652c0.005-0.111,0.009-0.225,0.021-0.337
				c0.032-0.455,0.101-0.925,0.205-1.396l0.418,0.095c-0.103,0.449-0.168,0.898-0.198,1.332c-0.007,0.108-0.011,0.214-0.017,0.322
				L100.018,92.652z M49.455,88.546l-0.265-0.335c0.44-0.35,0.91-0.691,1.401-1.01l0.233,0.354
				C50.349,87.872,49.887,88.206,49.455,88.546z M161.687,96.741l-0.05-0.425c0.541-0.063,1.112-0.122,1.705-0.177l0.037,0.424
				C162.792,96.619,162.228,96.679,161.687,96.741z M165.082,96.422l-0.034-0.427c0.554-0.04,1.121-0.078,1.711-0.11l0.022,0.425
				C166.199,96.345,165.629,96.38,165.082,96.422z M78.431,90.086c-0.311-0.463-0.653-0.911-1.021-1.333l0.318-0.28
				c0.383,0.434,0.736,0.898,1.056,1.376L78.431,90.086z M168.487,96.226L168.47,95.8c0.555-0.022,1.126-0.043,1.711-0.057
				l0.01,0.424C169.607,96.185,169.038,96.204,168.487,96.226z M171.898,96.134l-0.004-0.426c0.556-0.009,1.127-0.013,1.712-0.013
				v0.427C173.023,96.124,172.452,96.127,171.898,96.134z M200.401,98.107l-0.207-0.026c-0.309-0.045-0.658-0.092-1.056-0.145
				l0.06-0.424c0.31,0.042,0.593,0.08,0.852,0.116l0.07-0.431l0.421,0.069L200.401,98.107z M175.312,96.132l0.005-0.429
				c0.561,0.007,1.129,0.017,1.713,0.029l-0.009,0.427C176.438,96.149,175.869,96.139,175.312,96.132z M197.447,97.717
				c-0.525-0.064-1.093-0.133-1.7-0.204l0.054-0.425c0.604,0.07,1.174,0.139,1.698,0.204L197.447,97.717z M178.724,96.207
				l0.017-0.425c0.559,0.018,1.126,0.039,1.711,0.064l-0.02,0.427C179.85,96.248,179.285,96.226,178.724,96.207z M194.054,97.322
				c-0.545-0.06-1.113-0.121-1.701-0.18l0.044-0.425c0.588,0.059,1.153,0.118,1.702,0.178L194.054,97.322z M49.581,86.745
				l-0.28-0.325c0.436-0.37,0.888-0.733,1.347-1.077l0.253,0.341C50.456,86.024,50.006,86.381,49.581,86.745z M190.652,96.978
				c-0.552-0.052-1.121-0.104-1.699-0.152l0.035-0.428c0.582,0.052,1.149,0.101,1.704,0.154L190.652,96.978z M182.135,96.353
				l0.026-0.428c0.558,0.03,1.128,0.063,1.705,0.098l-0.024,0.427C183.262,96.415,182.697,96.382,182.135,96.353z M187.248,96.686
				c-0.312-0.025-0.626-0.049-0.944-0.072l-0.762-0.055l0.033-0.426l0.758,0.054c0.32,0.024,0.638,0.046,0.951,0.071L187.248,96.686
				z M52.271,86.68l-0.207-0.373c0.496-0.275,1.014-0.537,1.537-0.778l0.181,0.386C53.27,86.152,52.759,86.41,52.271,86.68z
				 M155.682,93.758l-0.392-0.176c0.243-0.527,0.439-1.056,0.595-1.571l0.408,0.122C156.135,92.667,155.93,93.215,155.682,93.758z
				 M101.146,89.409l-0.397-0.153c0.195-0.518,0.439-1.048,0.713-1.579l0.379,0.197C101.569,88.389,101.34,88.906,101.146,89.409z
				 M76.225,87.564c-0.421-0.365-0.864-0.713-1.332-1.031l0.238-0.354c0.483,0.328,0.943,0.688,1.373,1.064L76.225,87.564z
				 M96.645,89.049l-0.376-0.203l0.807-1.505l0.379,0.202L96.645,89.049z M55.343,85.259l-0.149-0.4
				c0.533-0.201,1.08-0.388,1.627-0.555l0.125,0.408C56.407,84.876,55.869,85.06,55.343,85.259z M200.819,95.58l-0.421-0.069
				l0.28-1.688l0.419,0.07L200.819,95.58z M52.287,84.703l-0.235-0.357c0.282-0.186,0.569-0.37,0.857-0.549
				c0.202-0.124,0.399-0.246,0.604-0.361l0.216,0.369c-0.197,0.114-0.395,0.235-0.593,0.357
				C52.849,84.337,52.565,84.516,52.287,84.703z M95.95,87.374l-0.274-1.688l0.42-0.069l0.279,1.688L95.95,87.374z M78.879,86.075
				l-0.116-0.008l-0.429-0.399c-0.002-0.003-0.305-0.291-0.878-0.73l0.262-0.34c0.586,0.453,0.911,0.752,0.913,0.756l0.367,0.351
				L78.9,85.812L78.879,86.075z M81.231,86.247l-0.649-0.046l0.033-0.427l0.156,0.011l-0.075-1.058l0.425-0.031L81.231,86.247z
				 M73.446,85.667c-0.487-0.256-1.002-0.492-1.533-0.701l0.159-0.398c0.544,0.215,1.073,0.458,1.572,0.72L73.446,85.667z
				 M58.585,84.274l-0.098-0.416c0.554-0.13,1.125-0.243,1.688-0.335l0.069,0.421C59.689,84.038,59.132,84.146,58.585,84.274z
				 M70.315,84.42c-0.529-0.152-1.081-0.285-1.639-0.395l0.08-0.42c0.57,0.111,1.139,0.249,1.678,0.405L70.315,84.42z
				 M61.927,83.727l-0.04-0.424c0.571-0.055,1.149-0.091,1.721-0.106l0.011,0.424C63.059,83.64,62.49,83.674,61.927,83.727z
				 M156.655,90.427l-0.427-0.051c0.02-0.138,0.033-0.276,0.042-0.412c0.007-0.086,0.011-0.173,0.014-0.26
				c0.006-0.076,0.011-0.141,0.016-0.205c0.023-0.267,0.033-0.538,0.033-0.804l0.425,0.004c0,0.274-0.009,0.553-0.028,0.829
				c-0.005,0.068-0.01,0.136-0.018,0.203c-0.004,0.082-0.01,0.174-0.017,0.264C156.687,90.139,156.673,90.283,156.655,90.427z
				 M55.219,82.992l-0.196-0.381c0.518-0.26,1.043-0.505,1.562-0.731l0.167,0.394C56.238,82.495,55.727,82.736,55.219,82.992z
				 M102.688,86.415l-0.355-0.233c0.2-0.312,0.416-0.629,0.638-0.938c0.113-0.159,0.233-0.317,0.354-0.474l0.341,0.258
				c-0.12,0.155-0.236,0.31-0.343,0.465C103.099,85.797,102.887,86.107,102.688,86.415z M67,83.767
				c-0.552-0.063-1.119-0.108-1.688-0.132l0.021-0.427c0.572,0.025,1.157,0.07,1.715,0.134L67,83.767z M98.262,86.037l-0.378-0.202
				l0.343-0.637c0-0.004,0.17-0.315,0.518-0.86l0.361,0.229c-0.335,0.531-0.5,0.83-0.502,0.833L98.262,86.037z M76.074,83.957
				c-0.471-0.31-0.959-0.605-1.448-0.879l0.207-0.372c0.498,0.277,0.998,0.579,1.477,0.895L76.074,83.957z M201.381,92.208
				l-0.424-0.07l0.28-1.688l0.423,0.071L201.381,92.208z M58.331,81.653l-0.145-0.402c0.548-0.194,1.099-0.371,1.644-0.521
				l0.114,0.411C59.409,81.291,58.866,81.463,58.331,81.653z M80.61,83.008c-0.013-0.546-0.019-1.124-0.019-1.715h0.429
				c0,0.587,0.008,1.162,0.02,1.705L80.61,83.008z M95.415,83.986c-0.064-0.534-0.127-1.109-0.175-1.708l0.423-0.038
				c0.054,0.595,0.116,1.164,0.179,1.694L95.415,83.986z M73.115,82.307c-0.512-0.239-1.037-0.461-1.56-0.656l0.148-0.401
				c0.533,0.201,1.069,0.426,1.594,0.668L73.115,82.307z M61.591,80.746l-0.085-0.417c0.502-0.1,1-0.183,1.491-0.244l0.22-0.023
				l0.041,0.425l-0.214,0.021C62.57,80.569,62.081,80.649,61.591,80.746z M104.735,83.714l-0.322-0.281
				c0.366-0.422,0.76-0.848,1.168-1.264l0.306,0.297C105.484,82.879,105.096,83.299,104.735,83.714z M69.947,81.123
				c-0.544-0.155-1.102-0.287-1.646-0.39l0.08-0.42c0.56,0.108,1.124,0.242,1.678,0.398L69.947,81.123z M100.062,83.164
				l-0.348-0.252c0.33-0.456,0.681-0.917,1.039-1.37l0.334,0.267C100.733,82.255,100.388,82.71,100.062,83.164z M64.945,80.407
				v-0.428c0.576,0,1.161,0.03,1.729,0.085l-0.045,0.426C66.081,80.437,65.509,80.409,64.945,80.407z M156.213,87.021
				c-0.078-0.544-0.196-1.098-0.348-1.643l0.412-0.114c0.155,0.564,0.278,1.135,0.355,1.699L156.213,87.021z M200.034,90.05
				c-0.488-0.13-1.038-0.275-1.651-0.431l0.101-0.415c0.619,0.156,1.172,0.303,1.659,0.434L200.034,90.05z M196.723,89.211
				c-0.522-0.127-1.075-0.256-1.662-0.388l0.092-0.416c0.588,0.132,1.146,0.263,1.666,0.386L196.723,89.211z M193.391,88.455
				c-0.535-0.115-1.093-0.231-1.671-0.348l0.085-0.419c0.579,0.119,1.138,0.235,1.676,0.351L193.391,88.455z M190.047,87.775
				c-0.547-0.105-1.106-0.21-1.678-0.316l0.075-0.419c0.575,0.104,1.135,0.208,1.68,0.314L190.047,87.775z M80.61,79.578
				c0.017-0.534,0.032-1.105,0.055-1.713l0.431,0.02c-0.028,0.604-0.044,1.174-0.056,1.704L80.61,79.578z M95.112,80.568
				c-0.038-0.564-0.064-1.14-0.088-1.715l0.431-0.015c0.021,0.569,0.048,1.142,0.082,1.703L95.112,80.568z M186.684,87.164
				c-0.55-0.093-1.11-0.188-1.686-0.28l0.068-0.422c0.578,0.093,1.139,0.186,1.691,0.282L186.684,87.164z M107.103,81.282
				l-0.287-0.313c0.414-0.382,0.849-0.765,1.287-1.137l0.277,0.327C107.944,80.525,107.516,80.905,107.103,81.282z M183.312,86.62
				c-0.555-0.083-1.119-0.167-1.69-0.247l0.062-0.424c0.57,0.083,1.138,0.165,1.692,0.248L183.312,86.62z M102.181,80.505
				l-0.321-0.281c0.37-0.427,0.763-0.854,1.159-1.269l0.312,0.295C102.935,79.661,102.549,80.082,102.181,80.505z M179.929,86.143
				c-0.556-0.072-1.119-0.144-1.692-0.215l0.052-0.423c0.571,0.069,1.143,0.14,1.695,0.213L179.929,86.143z M161.221,84.685
				l0.009-0.427l0.2,0.006c0.504,0.012,1.007,0.028,1.513,0.044l-0.016,0.428c-0.505-0.019-1.008-0.033-1.51-0.046L161.221,84.685z
				 M176.538,85.729c-0.559-0.06-1.123-0.122-1.697-0.182l0.044-0.425c0.571,0.06,1.143,0.119,1.701,0.184L176.538,85.729z
				 M164.631,84.803l0.02-0.427c0.569,0.026,1.143,0.052,1.71,0.083l-0.021,0.427C165.77,84.854,165.201,84.827,164.631,84.803z
				 M173.142,85.382c-0.563-0.05-1.125-0.101-1.702-0.147l0.037-0.426c0.571,0.046,1.142,0.098,1.705,0.148L173.142,85.382z
				 M168.04,84.986l0.03-0.426c0.568,0.035,1.142,0.075,1.707,0.117l-0.03,0.426C169.179,85.06,168.613,85.021,168.04,84.986z
				 M155.318,83.787c-0.213-0.51-0.457-1.02-0.728-1.521l0.371-0.203c0.281,0.511,0.531,1.038,0.75,1.561L155.318,83.787z
				 M159.858,83.608c-0.317-0.462-0.654-0.922-1.002-1.368l0.336-0.264c0.352,0.456,0.694,0.921,1.019,1.389L159.858,83.608z
				 M109.702,79.089l-0.261-0.337c0.448-0.346,0.912-0.689,1.384-1.023l0.248,0.347C110.606,78.407,110.147,78.748,109.702,79.089z
				 M104.533,78.051l-0.3-0.31c0.42-0.396,0.847-0.784,1.271-1.157l0.285,0.321C105.362,77.272,104.941,77.66,104.533,78.051z
				 M80.754,76.156c0.024-0.405,0.049-0.819,0.085-1.244c0.009-0.153,0.02-0.311,0.03-0.469l0.429,0.033
				c-0.01,0.157-0.025,0.314-0.038,0.467c-0.026,0.424-0.057,0.834-0.08,1.236L80.754,76.156z M94.983,77.139
				c-0.008-0.546-0.01-1.117-0.008-1.714l0.426,0.002c-0.002,0.594,0,1.162,0.007,1.706L94.983,77.139z M153.703,80.829
				c-0.309-0.456-0.65-0.911-1.015-1.35l0.329-0.272c0.375,0.452,0.722,0.915,1.041,1.381L153.703,80.829z M157.771,80.933
				c-0.363-0.418-0.752-0.837-1.149-1.247l0.311-0.299c0.402,0.415,0.795,0.841,1.162,1.265L157.771,80.933z M112.479,77.121
				l-0.235-0.359c0.479-0.312,0.971-0.618,1.458-0.911l0.22,0.367C113.437,76.507,112.952,76.811,112.479,77.121z M107.094,75.819
				l-0.264-0.335c0.448-0.354,0.91-0.703,1.373-1.037l0.25,0.347C107.996,75.124,107.54,75.468,107.094,75.819z M151.558,78.22
				c-0.384-0.396-0.801-0.79-1.225-1.165l0.281-0.322c0.438,0.385,0.857,0.786,1.252,1.191L151.558,78.22z M155.408,78.5
				c-0.407-0.376-0.837-0.756-1.273-1.124l0.275-0.327c0.443,0.372,0.876,0.754,1.287,1.137L155.408,78.5z M115.402,75.372
				l-0.205-0.373c0.502-0.275,1.017-0.542,1.52-0.796l0.19,0.384C116.409,74.835,115.898,75.1,115.402,75.372z M81.444,72.777
				l-0.424-0.042c0.052-0.552,0.111-1.12,0.176-1.703l0.427,0.049C81.561,71.66,81.5,72.227,81.444,72.777z M95.003,73.712
				c0.005-0.195,0.01-0.392,0.018-0.593c0.014-0.363,0.029-0.736,0.048-1.12l0.425,0.021c-0.016,0.38-0.031,0.752-0.044,1.113
				c-0.008,0.197-0.012,0.396-0.02,0.591L95.003,73.712z M109.853,73.833l-0.234-0.359c0.48-0.312,0.975-0.616,1.463-0.905
				l0.216,0.37C110.813,73.223,110.328,73.523,109.853,73.833z M118.446,73.86l-0.176-0.391c0.519-0.232,1.049-0.459,1.579-0.671
				l0.163,0.396C119.487,73.403,118.961,73.628,118.446,73.86z M152.809,76.316c-0.446-0.339-0.908-0.675-1.378-0.995l0.246-0.354
				c0.472,0.328,0.94,0.666,1.392,1.009L152.809,76.316z M149.021,75.978c-0.442-0.339-0.905-0.671-1.38-0.982l0.234-0.356
				c0.48,0.319,0.954,0.655,1.405,0.999L149.021,75.978z M112.781,72.113l-0.2-0.379c0.51-0.266,1.031-0.522,1.547-0.762
				l0.175,0.388C113.797,71.597,113.285,71.851,112.781,72.113z M121.602,72.594l-0.146-0.403c0.546-0.192,1.095-0.373,1.635-0.539
				l0.127,0.408C122.682,72.226,122.137,72.403,121.602,72.594z M146.196,74.106c-0.437-0.247-0.882-0.486-1.335-0.713l-0.164-0.081
				l0.188-0.384l0.168,0.082c0.461,0.228,0.917,0.474,1.354,0.726L146.196,74.106z M150.015,74.387
				c-0.478-0.301-0.965-0.594-1.46-0.872l0.215-0.373c0.494,0.283,0.988,0.58,1.475,0.883L150.015,74.387z M81.831,69.387
				l-0.429-0.055c0.073-0.554,0.158-1.121,0.242-1.699l0.421,0.063C81.979,68.271,81.902,68.834,81.831,69.387z M95.171,70.288
				l0.021-0.313c0.029-0.455,0.069-0.919,0.113-1.395l0.424,0.039c-0.043,0.472-0.08,0.936-0.114,1.387l-0.021,0.313L95.171,70.288z
				 M124.851,71.599l-0.106-0.412c0.555-0.144,1.116-0.275,1.677-0.391l0.086,0.419C125.957,71.329,125.397,71.458,124.851,71.599z
				 M115.866,70.683l-0.163-0.396c0.529-0.217,1.069-0.422,1.606-0.608l0.141,0.402C116.92,70.267,116.386,70.469,115.866,70.683z
				 M143.15,72.614c-0.513-0.215-1.05-0.417-1.582-0.601l0.139-0.404c0.542,0.188,1.085,0.392,1.611,0.611L143.15,72.614z
				 M147.063,72.705c-0.203-0.105-0.407-0.208-0.611-0.311c-0.307-0.15-0.608-0.295-0.916-0.438l0.182-0.388
				c0.306,0.146,0.616,0.292,0.924,0.443c0.208,0.103,0.412,0.208,0.617,0.313L147.063,72.705z M128.178,70.91l-0.064-0.421
				c0.571-0.091,1.143-0.165,1.707-0.223l0.042,0.425C129.309,70.75,128.74,70.822,128.178,70.91z M139.945,71.512
				c-0.544-0.151-1.097-0.286-1.647-0.403l0.09-0.417c0.555,0.118,1.121,0.255,1.673,0.408L139.945,71.512z M131.557,70.565
				l-0.022-0.428c0.166-0.008,0.326-0.013,0.49-0.018c0.406-0.014,0.822-0.017,1.233-0.01l-0.007,0.428
				c-0.406-0.007-0.813-0.003-1.214,0.01C131.874,70.55,131.716,70.556,131.557,70.565z M119.07,69.558l-0.123-0.41
				c0.547-0.163,1.101-0.316,1.659-0.454l0.102,0.417C120.161,69.247,119.609,69.395,119.07,69.558z M136.63,70.812
				c-0.563-0.083-1.127-0.147-1.687-0.192l0.036-0.428c0.563,0.046,1.141,0.113,1.712,0.197L136.63,70.812z M143.98,71.267
				c-0.522-0.216-1.055-0.429-1.582-0.627l0.146-0.4c0.534,0.2,1.071,0.414,1.599,0.633L143.98,71.267z M82.331,66.014l-0.42-0.07
				c0.092-0.556,0.193-1.119,0.297-1.689l0.423,0.078C82.522,64.899,82.426,65.459,82.331,66.014z M95.901,66.92l-0.426-0.046
				c0.062-0.556,0.129-1.124,0.204-1.701l0.428,0.052C96.027,65.804,95.96,66.367,95.901,66.92z M122.368,68.742l-0.083-0.421
				c0.557-0.109,1.126-0.208,1.692-0.295l0.064,0.423C123.483,68.533,122.917,68.632,122.368,68.742z M140.794,70.075
				c-0.533-0.178-1.08-0.348-1.626-0.505l0.116-0.411c0.554,0.16,1.104,0.332,1.644,0.509L140.794,70.075z M137.525,69.128
				c-0.555-0.137-1.116-0.264-1.662-0.374l0.088-0.418c0.554,0.113,1.113,0.24,1.677,0.377L137.525,69.128z M125.727,68.233
				l-0.041-0.424c0.562-0.06,1.141-0.11,1.708-0.145l0.029,0.427C126.855,68.126,126.288,68.173,125.727,68.233z M134.188,68.452
				c-0.562-0.091-1.13-0.166-1.682-0.229l0.048-0.423c0.558,0.061,1.131,0.141,1.7,0.23L134.188,68.452z M129.117,68.024v-0.428
				c0.56,0.001,1.137,0.02,1.723,0.055l-0.026,0.427C130.238,68.043,129.665,68.024,129.117,68.024z M82.959,62.657l-0.423-0.083
				c0.115-0.555,0.234-1.114,0.361-1.676l0.416,0.093C83.187,61.551,83.068,62.108,82.959,62.657z M96.344,63.54l-0.42-0.064
				c0.082-0.557,0.172-1.121,0.273-1.693l0.418,0.073C96.521,62.424,96.427,62.986,96.344,63.54z M83.702,59.33l-0.412-0.102
				c0.133-0.549,0.274-1.103,0.421-1.66l0.412,0.108C83.978,58.234,83.838,58.782,83.702,59.33z M96.926,60.178l-0.419-0.082
				c0.106-0.553,0.224-1.113,0.346-1.679l0.416,0.092C97.146,59.072,97.031,59.628,96.926,60.178z M84.575,56.034l-0.41-0.118
				c0.155-0.551,0.317-1.101,0.487-1.643l0.406,0.125C84.895,54.94,84.73,55.484,84.575,56.034z M97.647,56.844l-0.419-0.098
				c0.131-0.55,0.271-1.104,0.419-1.663l0.414,0.11C97.917,55.747,97.778,56.3,97.647,56.844z M85.575,52.773l-0.403-0.135
				c0.176-0.543,0.36-1.083,0.551-1.62l0.402,0.142C85.937,51.694,85.756,52.232,85.575,52.773z M98.514,53.547l-0.415-0.116
				c0.158-0.545,0.319-1.094,0.489-1.644l0.409,0.125C98.826,52.461,98.666,53.005,98.514,53.547z M86.712,49.558l-0.402-0.151
				c0.204-0.536,0.408-1.068,0.62-1.596l0.396,0.157C87.116,48.495,86.912,49.025,86.712,49.558z M99.52,50.29l-0.406-0.134
				c0.178-0.537,0.368-1.083,0.562-1.622l0.403,0.146C99.884,49.214,99.695,49.757,99.52,50.29z M87.979,46.393l-0.394-0.167
				c0.223-0.529,0.456-1.051,0.689-1.569l0.391,0.176C88.433,45.349,88.201,45.87,87.979,46.393z M100.675,47.083l-0.4-0.156
				c0.079-0.2,0.155-0.4,0.239-0.602l0.013-0.032c0.146-0.333,0.284-0.641,0.423-0.951l0.391,0.178
				c-0.139,0.304-0.276,0.611-0.411,0.922l-0.018,0.041C100.826,46.685,100.751,46.884,100.675,47.083z M89.388,43.29l-0.387-0.186
				c0.248-0.512,0.507-1.027,0.764-1.536l0.377,0.194C89.884,42.266,89.633,42.782,89.388,43.29z M102.057,43.972l-0.388-0.182
				c0.247-0.52,0.491-1.033,0.746-1.542l0.385,0.189C102.547,42.945,102.299,43.456,102.057,43.972z M90.935,40.255l-0.374-0.203
				c0.274-0.504,0.554-1.008,0.834-1.499l0.37,0.21C91.483,39.254,91.206,39.754,90.935,40.255z M103.566,40.916l-0.376-0.196
				c0.265-0.511,0.533-1.017,0.805-1.513l0.371,0.204C104.099,39.906,103.831,40.408,103.566,40.916z M92.632,37.299l-0.366-0.221
				c0.292-0.487,0.601-0.976,0.907-1.456l0.359,0.231C93.226,36.331,92.923,36.817,92.632,37.299z M105.197,37.918l-0.372-0.21
				c0.284-0.5,0.573-0.993,0.862-1.481l0.369,0.218C105.763,36.931,105.48,37.422,105.197,37.918z M94.471,34.431l-0.352-0.239
				c0.32-0.476,0.651-0.949,0.979-1.408l0.349,0.25C95.119,33.49,94.792,33.958,94.471,34.431z M106.944,34.99l-0.362-0.227
				c0.303-0.487,0.614-0.969,0.921-1.444l0.361,0.235C107.552,34.025,107.244,34.505,106.944,34.99z M96.456,31.664l-0.337-0.258
				c0.348-0.458,0.697-0.914,1.054-1.352l0.333,0.268C97.155,30.756,96.804,31.209,96.456,31.664z M108.813,32.14l-0.35-0.243
				c0.324-0.471,0.655-0.944,0.987-1.399l0.35,0.249C109.469,31.203,109.141,31.671,108.813,32.14z M98.588,29.007l-0.323-0.276
				c0.364-0.436,0.746-0.869,1.126-1.294l0.319,0.285C99.33,28.142,98.953,28.575,98.588,29.007z M110.813,29.378l-0.34-0.258
				c0.347-0.456,0.701-0.911,1.057-1.351l0.333,0.267C111.511,28.474,111.159,28.927,110.813,29.378z M100.862,26.468l-0.313-0.295
				c0.392-0.412,0.793-0.825,1.197-1.229l0.303,0.302C101.649,25.647,101.249,26.06,100.862,26.468z M112.946,26.72l-0.325-0.275
				c0.368-0.437,0.746-0.871,1.123-1.294l0.321,0.285C113.689,25.855,113.31,26.287,112.946,26.72z M103.269,24.058l-0.295-0.31
				c0.42-0.393,0.842-0.784,1.263-1.162l0.287,0.318C104.101,23.279,103.683,23.667,103.269,24.058z M115.216,24.18l-0.312-0.292
				c0.396-0.42,0.798-0.834,1.195-1.232l0.303,0.303C116.007,23.352,115.609,23.764,115.216,24.18z M105.809,21.787l-0.276-0.328
				c0.434-0.369,0.882-0.734,1.324-1.09l0.267,0.333C106.682,21.055,106.238,21.42,105.809,21.787z M117.623,21.769l-0.294-0.311
				c0.406-0.384,0.821-0.762,1.229-1.127l0.037-0.032l0.283,0.32l-0.04,0.034C118.435,21.014,118.025,21.389,117.623,21.769z
				 M108.469,19.657l-0.26-0.341c0.455-0.343,0.918-0.686,1.383-1.017l0.246,0.35C109.376,18.977,108.917,19.316,108.469,19.657z
				 M120.168,19.508l-0.271-0.328c0.436-0.364,0.885-0.727,1.335-1.078l0.263,0.336C121.046,18.789,120.604,19.148,120.168,19.508z
				 M111.236,17.678l-0.234-0.355c0.474-0.322,0.957-0.637,1.432-0.94l0.233,0.361C112.191,17.043,111.709,17.358,111.236,17.678z
				 M122.853,17.419l-0.246-0.348c0.467-0.337,0.941-0.666,1.41-0.981l0.233,0.357C123.786,16.755,123.316,17.084,122.853,17.419z
				 M114.112,15.849l-0.218-0.367c0.488-0.295,0.992-0.586,1.481-0.862l0.211,0.371C115.099,15.268,114.604,15.555,114.112,15.849z
				 M125.686,15.526l-0.229-0.365c0.492-0.303,0.989-0.597,1.479-0.873l0.213,0.373C126.66,14.937,126.168,15.226,125.686,15.526z
				 M117.186,14.744l-0.048-0.425c0.57-0.069,1.148-0.129,1.705-0.176l0.038,0.424C118.324,14.616,117.756,14.675,117.186,14.744z
				 M120.576,14.45l-0.02-0.427c0.567-0.031,1.146-0.047,1.717-0.056l0.008,0.427C121.715,14.401,121.146,14.419,120.576,14.45z
				 M123.978,14.4l0.011-0.425c0.575,0.012,1.153,0.038,1.718,0.073l-0.026,0.427C125.117,14.441,124.551,14.415,123.978,14.4z"/>
		</g>
		<path fill="#31738B" d="M118.89,77.874c-8.878,10.521-5.108,27.204-5.108,27.204s-13.737-5.512-11.329-15.653
			C104.552,85.326,110.525,81.042,118.89,77.874z"/>
		<path d="M147.68,111.021c7.703,4.427,11.441,10.208,11.441,10.208l-21.94-5.877C137.181,115.352,144.001,110.174,147.68,111.021z"
			/>
		<path d="M166.571,128.375c0,0,7.508,6.37,9.035,9.755c1.527,3.379-0.511,7.006-0.511,7.006L166.571,128.375z"/>
		<path fill="#666666" d="M146.153,114.524c0,0,22.998,5.019,32.249,36.692c-3.267,4.438-9.368,9.408-9.368,9.408
			s-45.608,27.562-90.436,13.808c-1.721-17.324-5.9-30.941-5.9-30.941L146.153,114.524z"/>
		<path fill="#D7DADD" d="M71.707,92.488c7.58,3.748,1.974,8.681,1.974,8.681s-16.746,4.286-22.474,3.421
			c-6.403-2.935-0.524-9.397-0.524-9.397S67.356,90.482,71.707,92.488z"/>
		<path fill="#31738B" d="M146.782,86.229c6.075,5.132-1.77,6.866-1.77,6.866S142.427,83.699,146.782,86.229z"/>
		<path fill="#D7DADD" d="M143.356,83.673c8.031,4.056-1.31,13.229-1.31,13.229s-22.392,6.847-29.697,3.279
			c-6.498-6.27-0.645-13.689-0.645-13.689S135.324,79.614,143.356,83.673z"/>
		<path fill="#D1AB6F" d="M146.153,114.524c0,0,16.934,6.414,22.881,46.1c-37.27,30.742-83.188,16.456-85.116,16.316
			c-1.926-0.141-0.99-9.281-11.538-29.123c0.407-7.091,51.241-24.319,52.644-24.216
			C126.424,123.703,146.153,114.524,146.153,114.524z"/>
		<path fill="#D1AB6F" d="M94.082,147.736c0.476-6.519-4.421-12.189-10.943-12.666c-6.515-0.477-12.187,4.42-12.663,10.943
			c-0.479,6.518,4.422,12.188,10.942,12.665C87.937,159.156,93.606,154.255,94.082,147.736z"/>
		<path fill="#D1AB6F" d="M159.166,128.55c0.714-9.738-6.609-18.213-16.352-18.926c-9.74-0.711-18.216,6.609-18.925,16.349
			c-0.712,9.743,6.609,18.216,16.35,18.926C149.982,145.612,158.458,138.292,159.166,128.55z"/>
		<path fill="#31738B" d="M139.599,126.467c0,0-48.157,43.582-22.359,32.188c11.438-5.048,17.025-11.904,19.702-17.975
			c0.968-8.844,3.508-12.491,3.508-12.491L139.599,126.467z"/>
		<path d="M140.007,126.894c0,0-4.482,7.972-4.887,10.769c-1.185-4.067,1.695-8.551,1.695-8.551l2.48-2.667L140.007,126.894z"/>
		<path d="M111.705,86.492c0,0,28.342-8.386,34.094-0.829c-5.127-10.236-33.972-0.821-33.972-0.821L111.705,86.492z"/>
		<path fill="#31738B" d="M143.313,88.825c-0.17,5.723-4.94,10.227-10.662,10.059c-5.723-0.164-10.226-4.938-10.063-10.662
			c0.172-5.723,4.941-10.226,10.665-10.06C138.976,78.329,143.479,83.103,143.313,88.825z"/>
		<path fill="#2792AF" d="M140.153,88.732c-0.093,3.161-2.729,5.649-5.887,5.556c-3.16-0.093-5.646-2.731-5.554-5.888
			c0.091-3.158,2.727-5.646,5.885-5.555C137.761,82.937,140.244,85.574,140.153,88.732z"/>
		<path fill="#D7DADD" d="M144.831,81.983c-0.095,3.159-2.728,5.647-5.889,5.556c-3.157-0.094-5.645-2.728-5.556-5.889
			c0.096-3.157,2.731-5.647,5.888-5.553C142.438,76.189,144.925,78.826,144.831,81.983z"/>
		<path d="M137.642,88.123c0.219,2.591-1.703,4.869-4.291,5.09c-2.589,0.219-4.866-1.701-5.089-4.292
			c-0.223-2.589,1.705-4.866,4.293-5.086C135.144,83.615,137.419,85.536,137.642,88.123z"/>
		<path fill="#D7DADD" d="M135.858,86.621c-0.031,1.131-0.975,2.024-2.108,1.99c-1.127-0.034-2.023-0.978-1.983-2.107
			c0.029-1.131,0.972-2.022,2.103-1.989C135.001,84.549,135.892,85.49,135.858,86.621z"/>
		<path d="M50.683,95.193c0,0,20.694-5.657,23.537-1.376c-2.237-6.156-23.425-0.776-23.425-0.776L50.683,95.193z"/>
		<path fill="#31738B" d="M73.511,98.245c-0.809,4.292-4.945,7.114-9.233,6.3c-4.296-0.807-7.114-4.945-6.306-9.232
			c0.814-4.292,4.945-7.113,9.238-6.301C71.502,89.819,74.32,93.955,73.511,98.245z"/>
		<path fill="#D7DADD" d="M75.362,92.947c-0.178,2.397-2.261,4.195-4.658,4.021c-2.396-0.175-4.197-2.26-4.021-4.656
			c0.171-2.397,2.262-4.198,4.657-4.023C73.734,88.465,75.534,90.55,75.362,92.947z"/>
		<path fill="#2792AF" d="M71.143,97.796c-0.447,2.369-2.73,3.929-5.102,3.479c-2.367-0.446-3.926-2.727-3.479-5.094
			c0.45-2.371,2.733-3.928,5.097-3.483C70.033,93.146,71.586,95.428,71.143,97.796z"/>
		<path d="M69.32,97.038c-0.143,1.979-1.862,3.466-3.837,3.322c-1.979-0.145-3.465-1.865-3.322-3.843
			c0.143-1.977,1.866-3.462,3.844-3.319C67.978,93.343,69.464,95.062,69.32,97.038z"/>
		<path fill="#D7DADD" d="M68.162,95.694c-0.164,0.851-0.982,1.404-1.83,1.247c-0.845-0.161-1.402-0.979-1.242-1.826
			c0.156-0.848,0.975-1.405,1.82-1.247C67.762,94.03,68.317,94.845,68.162,95.694z"/>
		<g>
			<path d="M89.383,109.88c-0.37-0.027-0.662-0.336-0.66-0.711c0-0.018,0.003-1.669-0.162-4.228
				c-0.026-0.393,0.272-0.73,0.666-0.754c0.391-0.026,0.729,0.273,0.757,0.664c0.165,2.609,0.162,4.253,0.162,4.322
				c0,0.393-0.318,0.711-0.71,0.709C89.415,109.882,89.398,109.881,89.383,109.88z M88.848,101.348
				c-0.336-0.023-0.617-0.284-0.657-0.629c-0.147-1.329-0.359-2.796-0.567-4.213c-0.057-0.388,0.213-0.75,0.602-0.808
				c0.386-0.057,0.752,0.214,0.808,0.603c0.21,1.428,0.424,2.906,0.573,4.259c0.047,0.392-0.233,0.742-0.624,0.787
				C88.933,101.352,88.891,101.353,88.848,101.348z M87.682,92.881c-0.331-0.024-0.612-0.278-0.65-0.62
				c-0.197-1.521-0.354-2.92-0.474-4.275c-0.034-0.392,0.253-0.738,0.646-0.772c0.391-0.034,0.737,0.254,0.775,0.646
				c0.118,1.334,0.271,2.716,0.464,4.221c0.049,0.391-0.23,0.747-0.617,0.798C87.778,92.884,87.729,92.885,87.682,92.881z
				 M86.938,84.37c-0.356-0.027-0.642-0.317-0.66-0.684c-0.054-1.436-0.075-2.886-0.054-4.312c0.003-0.39,0.327-0.705,0.719-0.702
				c0.402,0.002,0.711,0.329,0.706,0.723c-0.019,1.399,0,2.823,0.058,4.235c0.014,0.392-0.295,0.723-0.686,0.74
				C86.992,84.372,86.97,84.372,86.938,84.37z M87.055,75.828c-0.393-0.03-0.684-0.366-0.66-0.758
				c0.011-0.186,0.023-0.375,0.041-0.565c0.088-1.232,0.209-2.485,0.356-3.727c0.046-0.392,0.398-0.678,0.791-0.625
				c0.392,0.046,0.669,0.401,0.62,0.791c-0.142,1.22-0.26,2.453-0.347,3.665c-0.014,0.187-0.025,0.371-0.042,0.555
				c-0.022,0.394-0.363,0.691-0.756,0.665C87.059,75.828,87.057,75.828,87.055,75.828z M88.052,67.34
				c-0.021-0.001-0.046-0.004-0.066-0.008c-0.392-0.064-0.653-0.432-0.586-0.819c0.233-1.394,0.506-2.815,0.804-4.23
				c0.084-0.385,0.458-0.631,0.85-0.549c0.386,0.083,0.626,0.46,0.546,0.846c-0.297,1.394-0.564,2.797-0.796,4.167
				C88.741,67.114,88.413,67.367,88.052,67.34z M89.835,58.983c-0.043-0.003-0.087-0.009-0.125-0.019
				c-0.385-0.098-0.613-0.488-0.516-0.87c0.092-0.354,0.188-0.713,0.283-1.073c0.272-1.026,0.575-2.059,0.889-3.071
				c0.112-0.375,0.511-0.583,0.89-0.471c0.375,0.117,0.587,0.516,0.47,0.892c-0.308,0.995-0.601,2.009-0.871,3.02
				c-0.099,0.355-0.188,0.709-0.278,1.06C90.486,58.788,90.172,59.009,89.835,58.983z M92.354,50.825
				c-0.064-0.006-0.128-0.02-0.19-0.043c-0.37-0.135-0.56-0.543-0.426-0.914c0.495-1.348,1.027-2.699,1.586-4.007
				c0.153-0.362,0.572-0.53,0.934-0.375c0.36,0.154,0.53,0.571,0.377,0.935c-0.55,1.285-1.073,2.609-1.559,3.937
				C92.965,50.664,92.666,50.846,92.354,50.825z M95.706,42.967c-0.091-0.006-0.178-0.029-0.261-0.071
				c-0.356-0.173-0.502-0.602-0.326-0.953c0.634-1.292,1.311-2.574,2.012-3.815c0.192-0.343,0.625-0.465,0.968-0.272
				c0.346,0.195,0.464,0.629,0.273,0.97c-0.688,1.22-1.353,2.479-1.975,3.745C96.267,42.841,95.988,42.989,95.706,42.967z
				 M99.897,35.527c-0.109-0.008-0.225-0.044-0.329-0.111c-0.329-0.211-0.427-0.652-0.215-0.983c0.776-1.21,1.593-2.407,2.437-3.562
				c0.23-0.32,0.677-0.39,0.994-0.158c0.316,0.232,0.387,0.677,0.158,0.995c-0.824,1.134-1.626,2.308-2.39,3.495
				C100.408,35.428,100.153,35.546,99.897,35.527z M104.929,28.619c-0.142-0.011-0.283-0.063-0.399-0.159
				c-0.308-0.252-0.35-0.699-0.103-1.005c0.916-1.109,1.869-2.204,2.845-3.249c0.266-0.289,0.719-0.304,1.007-0.038
				c0.287,0.268,0.303,0.72,0.035,1.007c-0.953,1.026-1.889,2.098-2.783,3.188C105.375,28.546,105.148,28.635,104.929,28.619z
				 M110.745,22.36c-0.171-0.013-0.336-0.087-0.465-0.22c-0.269-0.284-0.26-0.736,0.025-1.007c1.048-0.996,2.13-1.964,3.228-2.875
				c0.301-0.253,0.752-0.212,1.001,0.091c0.253,0.301,0.213,0.748-0.091,1.002c-1.069,0.893-2.133,1.84-3.154,2.814
				C111.138,22.31,110.94,22.373,110.745,22.36z M117.308,16.887c-0.202-0.016-0.395-0.116-0.526-0.294
				c-0.227-0.318-0.156-0.763,0.164-0.995c1.207-0.876,2.421-1.686,3.604-2.408c0.336-0.204,0.772-0.098,0.978,0.238
				c0.206,0.336,0.101,0.775-0.237,0.98c-1.15,0.702-2.331,1.49-3.513,2.344C117.637,16.854,117.474,16.896,117.308,16.887z"/>
		</g>
		<path fill="#3A2005" d="M108.219,45.419c-1.059,2.067,0.595,9.471,1.052,9.078c0.457-0.397,25.577-2.703,25.577-2.703
			s9.036,1.422,12.912,1.32c2.565,1.001,9.061,3.569,9.63,3.611c0.567,0.042,9.542,3.588,7.097-1.339
			c-4.324-3.47-15.214-12.063-17.617-15c-2.404-2.936-8.705-2.064-8.705-2.064s-16.261,4.074-24.517,6.401
			C111.301,45.384,108.453,44.96,108.219,45.419z"/>
		<path fill="#3A2005" d="M71.843,61.083c2.395,3.427,5.689,6.16,5.174,7.394c-0.52,1.233-18.211,1.512-20.645,2.906
			c-4.669,1.372-10.734,6.215-10.704,5.788c0.028-0.426,3.688-9.444,7.003-11.774c3.313-2.327,16.106-5.393,16.106-5.393
			S70.502,59.171,71.843,61.083z"/>
		<path fill="#D7DADD" d="M82.378,148.55c0.296,0.021,14.548-2.456,22.047-4.724c14.661-5.358,30.227-14.87,30.227-14.87
			l1.024,1.079l-6.225,12.306c0,0-19.56,11.936-20.084,12.198c-0.52,0.262-16.833,0.747-21.716-0.632
			C86.289,151.045,82.378,148.55,82.378,148.55z"/>
		<path fill="#B89656" d="M139.296,126.444C135.5,133,135.01,139.13,135.01,139.13s-2.007,15.125-23.794,21.772
			c-21.695,2.149-25.646-6.821-25.646-6.821s-0.18-0.899,1.231-1.544c3.78,1.312,16.283,1.477,22.347-0.427
			c8.807-2.762,19.306-10.531,21.012-12.532c1.701-1.997,4.492-10.622,4.492-10.622S137.704,127.592,139.296,126.444z"/>
		<g>
			<path opacity="0.4" fill="#DD9F9F" d="M139.363,126.554c-3.825,6.537-4.332,12.669-4.332,12.669s-2.073,15.119-23.887,21.678
				c-21.702,2.062-25.621-6.926-25.621-6.926s-0.176-0.897,1.24-1.54c3.771,1.329,16.28,1.54,22.344-0.336
				c8.822-2.729,19.351-10.455,21.066-12.448c1.711-1.99,4.535-10.605,4.535-10.605S137.769,127.693,139.363,126.554z"/>
		</g>
		<path d="M80.562,147.596c0,0-0.016,0.977,2.338,2.342c1.594,1.562,1.792,2.397,1.792,2.397s-0.898,2.047,0.729,3.767
			c1.287,1.364,4.321,2.68,7.322,3.326c-3.728-2.074-5.509-3.386-6.188-4.583c-0.495-0.865-0.509-1.799,0.245-2.308
			c-0.934-1.568-2.226-3.142-2.226-3.142l13.095-3.863l-15.292,3.018L80.562,147.596z"/>
		<path fill="#EAC798" d="M139.296,126.444c-10.782,5.671-21.617,6.552-37.292,14.413c-13.635,2.615-21.441,6.738-21.441,6.738
			l1.815,0.954c10.297-1.852,10.268-1.766,20.738-4.341C118.482,139.508,137.745,127.868,139.296,126.444z"/>
		<path fill="#E0C1A0" d="M139.296,126.444c-10.782,5.671-21.617,6.552-37.292,14.413c-13.635,2.615-21.441,6.738-21.441,6.738
			l1.815,0.954c10.297-1.852,10.268-1.766,20.738-4.341C118.482,139.508,137.745,127.868,139.296,126.444z"/>
		<path fill="#D1AB6F" d="M109.929,96.712c0.392,0.027,9.776-4.66,35.084-3.617c1.535,1.384-6.304,14.01-15.674,14.593
			C110.07,108.89,109.929,96.712,109.929,96.712z"/>
		<path fill="#D1AB6F" d="M50,103.898c0,0,18.535-5.338,24.779-4.037c1.049,7.16-10.422,12.209-15.103,11.868
			C50.719,111.075,50,103.898,50,103.898z"/>
		<path d="M136.521,124.384c5.097-1.636,4.197,4.425,4.197,4.425S139.677,125.726,136.521,124.384z"/>
		<path fill="#B89656" d="M79.111,149.269c0,0-1.939,0.406-0.847,1.894c1.1,1.486-0.864,0.842-1.131,1.727
			c-1.841,1.874-2.689,0.245-2.689,0.245l-2.064-5.316c0,0-2.017-1.252-1.871-3.253c0.683-3.869,5.574-6.123,5.885-6.3
			c0.317-0.181,10.534-5.398,10.935-5.369c0.399,0.028,11.676,3.707,21.414-5.833c6.705-3.957,15.984-8.074,15.984-8.074
			l14.955-5.258c0,0,4.768-0.055,6.472,0.793c1.707,0.853-0.196,2.699-0.196,2.699l4.773,7.582l-0.132,1.8
			c0,0-0.129,1.539-2.898-0.211c-3.632-1.17-6.822-4.317-6.822-4.317s-2.673,2.217-4.791,2.363
			c-2.121,0.146-4.853,1.755-4.853,1.755s0.005,1.074-0.588,1.162c-0.591,0.083-3.251,0.467-3.251,0.467s-2.342,1.837-3.776,2.235
			c-1.438,0.396-3.092-0.327-3.748,0.429c-0.662,0.755-2.192,2.508-2.192,2.508l-5.2,3.08l-3.402,2.565l-6.728,3.325
			c0,0-7.437,2.418-10.131,2.122C82.692,145.203,79.111,149.269,79.111,149.269z"/>
		<path d="M78.735,112.621c8.77-8.307,17.408-6.791,18.471-6.518c6.561-1.425,14.221,1.926,14.855,8.951
			c0.402,8.841-8.074,11.054-8.074,11.054s-9.775,11.534-20.324,4.919C76.758,131.733,69.971,120.929,78.735,112.621z"/>
		<path fill="#D1AB6F" d="M80.632,114.284c3.747-5.047,14.698-6.747,16.65-5.982c14.134-1.826,15.598,14.04,6.317,15.932
			c-7.001,9.773-17.401,6.66-18.412,4.874c-2.062,0.596-4.761-0.53-6.541-2.621C76.191,123.601,75.492,118.877,80.632,114.284z"/>
		<path d="M163.902,139.241c8.087,10.345,10.118,20.647,10.09,20.975c-0.022,0.323-6.895,2.082-6.895,2.082
			S161.401,137.89,163.902,139.241z"/>
		<path fill="#B89656" d="M150.472,128.327c0,0-0.22,1.271,1.069,1.864c-0.285,3.905-4.086,6.424-4.086,6.424l-1.776,6.025
			c0,0-0.383,2.657-0.34,4.65c0.047,1.994-2.587,4.087-2.587,4.087s-2.029,1.759-1.145,5.25c-0.46,2.588-4.186,5.216-4.186,5.216
			s-0.144,1.518-1.54,3.887c-1.396,2.378-5.711,1.491-5.711,1.491s-0.718-0.626-1.607-1.451c-0.894-0.829-2.562,1.146-2.562,1.146
			l-1.971-1.669c0,0-0.384-2.641-1.913-1.923c-1.528,0.72-6.55,3.017-8.161,4.238c-1.611,1.212,0.683,3.667,0.683,3.667
			l-1.278,4.477c0,0-2.382,2.108-3.827,0.671c-3.262-0.048-18.85-5.754-18.85-5.754s0.124-3.992-0.924-5.401
			c-1.05-1.411-2.761,0.66-4.206,0.073c-1.325-2.078-8.418-7.573-8.418-7.573s0.847,0.506,2.166,7.116
			c-0.535,4.723,3.415,10.034,4.616,12.104c1.093,1.878,2.798,2.454,5.81,1.606c2.092,1.987,3.92,3.717,3.92,3.717
			s2.623,0.57,4.995-0.589c1.877,2.993,5.911,2.717,5.911,2.717s6.601,0.675,8.265,1.363c1.665,0.696,2.895-0.547,2.895-0.547
			s2.518,2.275,4.726,1.107c2.21-1.174,6.741-3.838,9.164-3.521c2.428,0.318,9.244,1.249,10.963,1.184
			c1.716-0.066,3.13-3.773,3.674-3.353c0.541,0.423,11.183-4.514,11.183-4.514s4.19,0.027,5.731-2.819
			c1.54-2.85,5.944-10.994,5.944-10.994s1.228,1.603,1.937-1.674c1.066-5.532-3.238-24.776-13.384-31.921
			C153.828,127.928,150.472,128.327,150.472,128.327z"/>
		<path d="M102.452,89.425c7.94-8.077,23.879-17.579,36.537-15.664c7.007,1.062,13.729,5.969,16.088,15.858
			c0.068-10.749-8.556-16.946-15.903-18.372C124.013,68.3,103.938,81.769,102.452,89.425z"/>
		<path fill="#B0B4B7" d="M79.213,115.72l0.82,2.393c0,0-3.402,1.906-2.738,6.145C75.436,119.747,79.213,115.72,79.213,115.72z"/>
		<path fill="#B0B4B7" d="M97.282,108.302c-13.431,0.871-17.318,8.801-17.318,8.801s-0.213-1.893,0.776-2.964
			C82.35,111.383,91.13,107.182,97.282,108.302z"/>
		<path fill="#31738B" d="M82.603,126.128c7.576,4.587,17.892-0.472,19.962-2.43c2.943-0.504,4.91-1.575,4.91-1.575
			s-1.279,1.802-3.875,2.11c-8.672,11.15-18.103,5.759-18.412,4.874c-3.736,1.081-6.541-2.621-6.541-2.621
			S80.872,127.748,82.603,126.128z"/>
		<path d="M155.077,89.619c0,0-6.098,15.098-26.528,16.729c-29.06-1.288-26.097-16.923-26.097-16.923s-2.537,3.991,0.771,8.67
			c3.945,5.577,14.499,11.141,27.522,9.966C152.941,106.06,155.077,89.619,155.077,89.619z"/>
		<path d="M44.657,100.027c-0.237-5.39,6.361-11.442,14.823-13.323c7.136-1.59,16.428-0.073,19.564,7.728
			C74.451,77.131,43.231,85.361,44.657,100.027z"/>
		<path d="M79.045,94.432c2.166,10.846-12.168,18.479-21.362,17.151c-11.721-1.137-12.855-9.818-12.855-9.818
			s4.511,8.223,12.92,8.648C65.869,110.827,78.385,106.411,79.045,94.432z"/>
		<path d="M109.929,96.712c0,0,0.696,3.497,2.989,6.502c-4.555-2.166-5.326-7.009-5.326-7.009s6.861-1.315,10.774-1.725
			C113.999,95.748,109.929,96.712,109.929,96.712z"/>
		<path d="M47.983,103.697c0,0,1.942-0.87,6.849-1.083c-3.382,0.891-4.878,1.912-4.878,1.912s1.016,1.817,3.165,4.254
			C49.158,106.85,47.983,103.697,47.983,103.697z"/>
		<path fill="#B0B4B7" d="M109.929,96.712c0,0,11.164-3.564,23.194-3.586c-13.313,2.043-23.018,4.892-23.018,4.892L109.929,96.712z"
			/>
		<path fill="#B0B4B7" d="M49.954,104.525c0,0,5.465-2.742,15.396-4.158c-9.018,1.876-14.817,5.076-14.817,5.076L49.954,104.525z"/>
		<path d="M81.764,112.958c0,0-1.957,2.407-1.446,6.295c-1.321-1.287-1.206-3.527-1.206-3.527l1.952-2.818L81.764,112.958z"/>
		<path d="M102.175,124.031c-0.271-1.064,0.153-3.572,1.914-3.042c1.609,0.937-0.911,1.831-0.839,2.789
			C103.144,124.8,102.269,124.4,102.175,124.031z"/>
		<path d="M83.023,126.6c1.401-1.065,2.91,1.31,3.051,1.722c0.147,0.409-0.303,0.917-0.894,0.05
			c-0.288-0.431-1.224-0.061-1.864-0.259C82.661,127.91,82.313,127.136,83.023,126.6z"/>
		<path d="M95.503,153.521c0,0,17.611,1.586,30.354-10.383C112.146,152.466,95.503,153.521,95.503,153.521z"/>
		<path d="M130.209,130.307c0.125-0.043,8.735-4.65,8.735-4.65l0.654,0.81L130.209,130.307z"/>
		<path fill="#B0B4B7" d="M96.781,114.328c-0.391-1.969-4.058-2.902-8.189-2.084c-4.131,0.817-7.163,3.074-6.774,5.043
			c0.386,1.97,4.052,2.903,8.184,2.086C94.135,118.555,97.165,116.296,96.781,114.328z"/>
		<path fill="#B0B4B7" d="M127.362,116.674c13.898-15.978,28.002-0.425,28.002-0.425S140.833,104.962,127.362,116.674z"/>
		<path d="M193.203,145.337c-0.232,3.22-3.032,5.636-6.253,5.404c-3.222-0.235-5.64-3.039-5.404-6.257
			c0.233-3.22,3.036-5.64,6.254-5.402C191.022,139.316,193.442,142.115,193.203,145.337z"/>
		<circle cx="54.267" cy="153" r="3.498"/>
		<path d="M77.04,157.491c0,0,7.41,5.884,8.514,7.803c-4.472-3.829-9.627-6.034-9.627-6.034l0.018-2.383L77.04,157.491z"/>
		<path fill="#B0B4B7" d="M102.316,153.34c0,0,22.956-1.418,28.579-14.78C117.221,153.498,102.316,153.34,102.316,153.34z"/>
	</g>
</g>
</svg>
