<?xml version="1.0" encoding="utf-8"?>
<!-- Generator: Adobe Illustrator 16.2.1, SVG Export Plug-In . SVG Version: 6.00 Build 0)  -->
<!DOCTYPE svg PUBLIC "-//W3C//DTD SVG 1.1//EN" "http://www.w3.org/Graphics/SVG/1.1/DTD/svg11.dtd">
<svg version="1.1" xmlns="http://www.w3.org/2000/svg" xmlns:xlink="http://www.w3.org/1999/xlink" x="0px" y="0px"
	 width="242.942px" height="269.291px" viewBox="0 0 242.942 269.291" enable-background="new 0 0 242.942 269.291"
	 xml:space="preserve">
<g id="Capa_1">
	<path fill="#FFFFFF" d="M123.157,0.067l0.539,111.275l17.4-109.815l-16.331,109.988L158.597,5.86l-32.806,106.001l49.432-98.895
		l-48.472,99.399l63.816-89.696l-62.942,90.351l76.621-78.29l-75.858,79.079l87.546-64.956l-86.91,65.855l96.314-50.019
		l-95.821,51.012l102.706-33.855l-102.376,34.916l106.575-16.854l-106.405,17.956l107.818,0.559l-107.818,0.555l106.405,17.958
		l-106.575-16.855l102.376,34.913l-102.706-33.855l95.821,51.015l-96.314-50.022l86.91,65.855l-87.546-64.955l75.858,79.079
		l-76.621-78.289l62.942,90.349l-63.816-89.692l48.472,99.396l-49.432-98.89l32.806,106l-33.831-105.659l16.331,109.994
		l-17.4-109.821l-0.539,111.276l-0.538-111.276l-17.398,109.821l16.333-109.994L87.721,230.981l32.804-106.001l-49.427,98.893
		l48.467-99.397l-63.81,89.694l62.936-90.349L42.069,202.11l75.858-79.079l-87.544,64.955l86.908-65.855l-96.312,50.022
		l95.824-51.015L14.095,154.994l102.374-34.915L9.894,136.937l106.405-17.958L8.482,118.424l107.816-0.559L9.894,99.909
		l106.575,16.854L14.095,81.847l102.709,33.855L20.979,64.69l96.312,50.019L30.384,48.854l87.544,64.956L42.069,34.73l76.621,78.29
		L55.755,22.67l63.81,89.696L71.098,12.967l49.427,98.895L87.721,5.86l33.833,105.655L105.221,1.527l17.398,109.815L123.157,0.067z"
		/>
</g>
<g id="Capa_16">
	<g>
		<g>
			<polygon fill="#D9DADB" points="199.408,232.663 199.408,225.629 45.021,225.629 45.021,232.663 5.698,232.663 20.989,213.398 
				5.698,194.135 25.814,194.135 25.814,187.102 218.432,187.102 218.432,194.135 238.211,194.135 225.979,213.398 238.211,232.663 
							"/>
			<path d="M216.383,189.151v7.033h18.1l-10.931,17.214l10.931,17.214h-33.024v-7.032H42.971v7.032H9.942l13.666-17.214
				L9.942,196.185h17.922v-7.033H216.383 M220.48,185.052h-4.098H27.862h-4.098v4.1v2.935H9.942H1.454l5.277,6.65L18.374,213.4
				L6.731,228.063l-5.277,6.649h8.488h33.028h4.101v-4.101v-2.934h150.288v2.934v4.101h4.099h33.024h7.46l-3.997-6.3l-9.536-15.015
				l9.536-15.016l3.997-6.297h-7.46H220.48v-2.935V185.052L220.48,185.052z"/>
		</g>
		<polygon fill="#B0B4B7" points="42.971,230.612 42.971,196.185 9.942,196.185 23.608,213.398 9.942,230.612 		"/>
		<polygon fill="#B0B4B7" points="234.482,196.185 201.458,196.185 201.458,230.612 234.482,230.612 223.552,213.398 		"/>
		<polygon points="23.718,194.636 23.718,226.101 33.312,232.798 44.501,231.955 30.735,194.636 		"/>
		<polygon points="220.493,194.499 220.493,225.961 210.9,232.663 199.712,231.814 213.473,194.499 		"/>
		<polygon fill="#8B8B8B" points="216.383,189.151 216.383,223.58 201.458,230.612 201.32,196.185 		"/>
		<polygon fill="#8B8B8B" points="27.862,189.151 27.862,223.58 42.791,230.612 42.927,196.185 		"/>
		<g>
			<rect x="41.683" y="220.624" fill="#FFFFFF" width="160.758" height="40.697"/>
			<path d="M200.44,222.624v36.697H43.683v-36.697H200.44 M204.44,218.624h-4H43.683h-4v4v36.697v4h4H200.44h4v-4v-36.697V218.624
				L204.44,218.624z"/>
		</g>
		<rect x="27.862" y="189.151" fill="#D9DADB" width="188.521" height="34.429"/>
	</g>
	<path d="M170.997,201.451l1.483,3.043l3.392,0.524l-2.488,2.325l0.544,3.336l-3.021-1.604l-3.058,1.536l0.617-3.322l-2.429-2.381
		l3.402-0.449L170.997,201.451z"/>
	<path d="M80.605,200.972l1.483,3.041l3.392,0.524l-2.485,2.329l0.541,3.336l-3.021-1.605l-3.059,1.535l0.621-3.32l-2.432-2.385
		l3.402-0.447L80.605,200.972z"/>
	<g>
		<path d="M96.963,199.314h0.392l0.242,0.164l0.055,0.176l0.361,0.579l0.272,0.457l0.121,0.31l0.188,0.297l0.109,0.254l0.052,0.163
			l-0.028,0.107l0.028,0.23l0.055,0.133l0.05,0.218l0.204,0.254l0.322,0.27l0.107,0.203l0.066,0.271l0.086,0.281l0.133,0.215
			l0.133,0.42l0.368,0.296l0.078,0.281l-0.055,0.245l-0.229,0.242l-0.108,0.2l-0.66,0.392l-0.446,0.269l-0.32,0.137l-0.133,0.109
			l-0.176,0.171l-0.138,0.054l-0.334,0.085l-0.217,0.16l-0.163,0.053l-0.471,0.283H96.8l-0.2,0.161l-0.108,0.029l-0.375,0.361
			l-0.15,0.243l-0.025,0.108v0.121l-0.028,0.163l-0.219,0.213l-0.387-0.025l0.023,0.31l-0.023,0.216l-0.109,0.162l-0.078,0.256
			l-0.138,0.161l-0.066,0.159l0.04,0.258l0.109,0.188l0.133,0.028l0.133,0.053h0.164h0.337l0.254,0.118l0.381,0.031l0.31,0.023
			l0.162,0.031h0.104l0.368,0.054l0.375,0.024l0.363-0.055l0.161-0.109l0.055-0.118l0.066-0.136l-0.023-0.106v-0.109l-0.098-0.145
			l-0.106-0.19l-0.109-0.35l0.083-0.338l0.079-0.134l0.108-0.176l0.285-0.137l0.161-0.024h0.175l0.267,0.108l0.164,0.053l0.199,0.23
			l0.109,0.241l0.055,0.716l-0.055,0.119l-0.055,0.324l-0.055,0.335l-0.078,0.218l-0.15,0.106l-0.104,0.176l-0.031,0.162
			l-0.24,0.269l-0.201,0.202l-1.188,0.958l-0.109,0.176l-0.048,0.348l0.078,0.148l0.024,0.242l-0.055,0.216l-0.157,0.23
			l-0.151,0.026l-0.428,0.08l-0.206-0.053l-0.35-0.054l-0.175-0.055l-0.242-0.109l-0.16-0.091l-0.179-0.03l-0.157-0.024
			l-0.219-0.163l-0.254-0.055l-0.458-0.282l-0.149-0.055l-0.242-0.133l-0.285-0.164l-0.241-0.107l-0.388-0.255l-0.379-0.135
			l-0.34-0.162l-0.156-0.025h-0.42l-0.161-0.096l-0.205-0.188l-0.078-0.188l0.023-0.081l0.055-0.2l0.121-0.189l0.325-0.311
			l0.164-0.242l0.023-0.242l0.066-0.202l0.055-0.377v-0.176l-0.023-0.297v-0.175l-0.098-0.08l-0.023-0.245l0.145-0.079l-0.078-0.176
			l0.055-0.269l-0.031-0.161l-0.118-0.312l0.118-0.134l0.031-0.109v-0.108l-0.031-0.442l0.031-0.109v-0.888l-0.031-0.188v-0.258
			l-0.023-0.375l0.023-0.257l-0.023-0.298l0.023-0.2l0.031-0.134l-0.055-0.107l-0.066-0.501l-0.028-0.309l0.028-0.219l-0.109-0.321
			l-0.083-0.121l-0.297-0.215l-0.09-0.109l-0.031-0.133l0.031-0.255l0.174-0.245l0.377-0.147l0.579-0.08l0.309-0.082l0.108-0.055
			l0.162-0.026l1.16-0.336l0.176-0.08h0.133l0.078-0.084L94.806,201l0.204,0.055l0.266-0.134l0.188-0.149l0.422-0.241l0.108-0.055
			l0.521-0.499l0.085-0.189l0.024-0.202l0.176-0.188L96.963,199.314z M95.143,202.023l-0.078,0.216v0.217l0.055,0.146l0.051,0.219
			l0.054,0.36l0.028,0.139l0.055,0.104l0.023,0.582l0.031,0.106l0.055,0.176l0.048,0.271l-0.079,0.188l0.079,0.254v0.162
			l-0.048,0.162l-0.086,0.283l0.031,0.106l0.023,0.107l-0.023,0.23l0.023,0.135v0.189l0.031,0.134l-0.055,0.254l0.078,0.137
			l0.363-0.47l0.392-0.137l0.055-0.135l0.108-0.055l0.108-0.08l0.158-0.054l0.229-0.392l0.055-0.108l-0.055-0.146l-0.133-0.241
			l-0.055-0.138l-0.042-0.175l-0.188-0.406l-0.392-0.997l-0.104-0.078l-0.271-0.524l-0.055-0.188l-0.34-0.581L95.143,202.023z"/>
		<path d="M106.326,194.425l0.109,0.067l0.32-0.041l0.206,0.041l0.242,0.108l0.229,0.214l0.025,0.217l0.029,0.15v0.134l-0.109,0.242
			l-0.392,0.228l-0.133,0.027l-0.205,0.054l-0.296,0.137l-0.133,0.134l-0.121,0.146l-0.219,0.5l-0.055,0.108V197l-0.023,0.188
			l-0.028,0.47v0.309l-0.081,1.82l-0.066,0.797l-0.028,0.134l-0.051,0.203l0.122,0.212l-0.043,0.219l0.147,0.12v0.188l0.028,0.217
			l-0.055,0.201v0.295l-0.078,0.175l-0.098,0.326v0.162l0.055,0.146v0.109l-0.055,0.188l0.152,0.446v0.363l0.023,0.271v0.632
			l-0.078,0.082l-0.071,0.145v0.272l0.028,0.309l-0.028,0.216l-0.104,0.272l0.199,0.024l0.055,0.176v0.188v0.364l0.055,0.19
			l-0.028,0.134v0.55l0.028,0.259l-0.055,0.212l-0.078,0.245l0.055,0.203l0.078,0.295v0.229l0.055,0.163l0.023,0.134l0.031,0.254
			l0.078,0.216l0.055,0.188l0.176,0.098l0.603,0.162l0.272,0.24l0.024,0.109v0.283l-0.188,0.298l-0.388,0.334l-0.191,0.137
			l-0.079,0.2l-0.309,0.055l-0.14,0.107l-0.332,0.39l-0.083,0.19l0.161,0.363l0.152,0.133l0.05,0.272l-0.147,0.363l-0.216,0.216
			l-0.188,0.024l-0.254-0.053l-0.109-0.081h-0.138l-0.08-0.054l-0.254-0.134l-0.188-0.228l-0.217-0.14l-0.284-0.157l-0.109-0.137
			l-0.107-0.148l-0.08-0.027l-0.309-0.214l-0.392-0.161l-0.297-0.151l-0.228-0.079l-0.219-0.108l-0.297-0.162l-0.09-0.08
			l-0.055-0.146l-0.055-0.27l0.133-0.284l0.152-0.134l0.105-0.054l0.27-0.134l0.204-0.392v-0.581l0.078-0.161l-0.078-0.135
			l-0.029-0.174l-0.025-0.136l0.078-0.137l0.055-0.442v-0.188l-0.055-0.338l0.136-0.084v-0.188l0.028-0.2l0.023-0.297l0.055-0.16
			l-0.055-0.152l-0.106-0.054v-0.321l-0.134-0.415l0.029-0.34l0.078-0.242l0.055-0.446l-0.028-0.159l0.055-0.607l0.028-0.309v-0.134
			l-0.083-0.243l0.055-0.149l-0.055-0.109l-0.054-0.712l0.027-0.472v-0.326v-0.199l0.026-0.218l0.106-0.254l0.164-0.162
			l-0.164-0.217l-0.133-0.389l-0.027-0.216l0.027-0.121l-0.027-0.108l0.054-0.133l-0.026-0.395l-0.027-0.458l-0.027-0.309
			l-0.053-1.764l-0.08-0.394l-0.04-0.267l-0.026-0.284l-0.38-0.432l-0.176-0.121l-0.161-0.242l-0.054-0.282l0.137-0.245l0.23-0.157
			l0.43-0.03l0.446,0.055l0.223,0.055l0.302,0.078h0.104l0.501,0.312l0.254,0.188l0.163,0.163l0.297,0.31l0.149,0.133l0.157-0.055
			l0.055-0.133l-0.107-0.176l0.271-0.688l0.15-0.16l0.351-0.499l0.387-0.162l0.242-0.121L106.326,194.425z"/>
		<path d="M124.018,195.866l0.551,0.053h0.137l0.227,0.163l0.108,0.078l0.137,0.23l0.08,0.297v0.176l-0.08,0.216l-0.162,0.242
			l-0.137,0.203l-0.364,0.297l-0.242,0.121l-0.145,0.134l-0.219-0.025l-0.078,0.08h-0.177l-0.379,0.078h-0.199l-0.192-0.133h-0.242
			l-0.524,0.242l-0.363,0.029l-0.821,0.024l-0.201,0.055l-0.161,0.149l-0.136,0.104l-0.259,0.271l-0.106,0.393l-0.026,0.188
			l-0.024,0.173v0.271v0.159v0.121l-0.084,0.189l-0.053,0.325l0.028,0.309v0.137v0.471l-0.028,0.134v0.309l0.028,0.163l0.024,0.163
			l0.084,0.2l-0.108,0.109l0.024,0.242l-0.053,0.173l0.106,0.434l-0.023,0.148l-0.083,0.294v0.109l0.053,0.199l0.054,0.246
			l-0.054,0.281l-0.053,0.245l0.083,0.105l-0.083,0.229l0.028,0.163l-0.028,0.161v0.202l0.083,0.162l0.023,0.271l-0.054,0.333
			l0.054,0.244l0.03,0.177v0.377l0.079,0.078v0.258l-0.028,0.188l0.052,0.229l0.031,0.163l-0.083,0.104v0.084l0.228,0.08
			l-0.023,0.499l-0.121,0.23l-0.083,0.134l0.052,0.161l0.086,0.026l0.09,0.283v0.162l0.031,0.188l-0.031,0.254l0.055,0.297
			l0.031,0.203l0.078,0.243l0.133,0.271l0.055,0.226l0.055,0.136l0.417,0.364l0.192,0.08v0.137l0.199,0.055l0.188,0.079l0.363,0.024
			l0.35-0.158l0.339-0.297l0.188-0.339l0.055-0.24v-0.364v-0.162l0.083-0.176l0.093-0.137l0.028-0.105l0.024-0.106l0.054-0.206
			l-0.106-0.158v-0.108l0.028-0.243l0.133-0.093l0.03-0.327l0.134-0.133v-0.255l-0.086-0.242l0.109-0.283l-0.078-0.135v-0.137
			l0.078-0.174l0.055-0.135l0.121-0.107v-0.218l0.055-0.229l0.242-0.442l0.028-0.188l0.109-0.19l0.023-0.279l0.082-0.297
			l0.172-0.284l0.086-0.216v-0.134l0.054-0.205l0.267-0.023l0.042-0.217l0.162-0.081l0.133-0.176l0.135-0.106l0.083-0.163
			l0.254-0.078v-0.109l0.188-0.055l0.285-0.121l0.137,0.026h0.105l0.053-0.136h0.108l0.23,0.055l0.133-0.055l0.418,0.164l0.271,0.23
			l0.055,0.133l0.145,0.391v0.163l-0.023,0.105l-0.121,0.337l-0.109,0.164l-0.109,0.106l-0.106,0.055l-0.133-0.028l-0.069,0.121
			l-0.106,0.107l-0.271,0.055l-0.136-0.025l-0.199,0.053l-0.188,0.244l-0.109,0.442l-0.054,0.109l-0.029,0.445l-0.146,0.157
			l-0.029,0.23v0.109l-0.023,0.688l-0.109,0.134l0.133,0.148l-0.054,0.323l0.054,0.258l-0.054,0.712l0.054,0.163v0.188l0.285,0.618
			v0.108l-0.055,0.188l0.028,0.419l0.055,0.134l0.108,0.218l0.134,0.309v0.188l0.024,0.109l0.206,0.309l0.266,0.162l-0.055,0.417
			l-0.055,0.242l-0.133,0.027l-0.309,0.229l-0.216,0.053l-0.109,0.054l-0.229,0.027l-0.079,0.055l-0.188-0.027l-0.175,0.054
			l-0.109,0.028l-0.162,0.055l-0.417,0.091l-0.133,0.03l-0.188-0.03l-0.259,0.055l-0.188-0.31v0.109l-0.285,0.282l-0.403-0.082
			l-0.23-0.024h-0.659l-0.217-0.067l-0.334,0.067l-0.138-0.097h-0.157l-0.121,0.029l-0.301-0.054l-0.255-0.055h-0.163l-0.188-0.163
			l-0.363,0.081l-0.271-0.188l-0.23,0.079l-0.32-0.053l-0.579-0.136l-0.363-0.027h0.055l-0.14-0.027c-0.07,0-0.148-0.02-0.24-0.066
			h-0.496h-0.609h-0.176h-0.188l-0.338,0.094l-0.268,0.055l-0.216,0.161l-0.176,0.19l-0.266,0.176l-0.394,0.402l-0.162,0.106
			l-0.135,0.042l-0.204,0.081h-0.212l-0.309-0.081l-0.191-0.095l-0.339-0.432l-0.024-0.146l-0.026-0.218l0.051-0.501l0.097-0.157
			l0.242-0.338l0.66-0.555l0.311-0.159l0.109-0.055l0.158-0.162l0.162-0.121l0.229-0.35l0.079-0.339l-0.024-0.107l0.109-0.159
			l0.023-0.23l0.164-0.215l-0.08-0.219v-0.145v-0.135l-0.084-0.108l0.029-0.162l-0.029-0.203v-0.377l-0.023-0.146l0.078-0.19
			l0.055-0.242l0.028-0.175v-0.459v-0.121v-0.685l0.147-0.029l0.053-0.109l0.028-0.281l-0.081-0.243l-0.08-0.188l-0.067-0.472
			l0.067-0.188l0.08-0.337v-0.188l0.161-0.122l0.079-0.162l-0.24-0.079v-0.109l0.028-0.176l-0.028-0.215l-0.026-0.297l-0.028-0.176
			l0.028-0.134v-0.135l-0.149-0.39v-0.134l0.096-0.284l0.054-0.162v-0.821l0.026-0.256l-0.08-0.903l0.08-0.417v-0.242l-0.026-0.364
			l0.026-0.215l-0.026-0.205l-0.149-0.577l-0.269-0.324l-0.161-0.147l-0.417-0.107h-0.164l-0.174-0.108l-0.472-0.392l-0.055-0.351
			l0.055-0.23l0.199-0.267l0.164-0.108l0.108-0.027l0.199-0.095l0.38,0.067h0.337l0.473,0.081h0.159l0.161,0.027l0.23-0.054
			l0.297,0.026h0.203l0.079,0.027l0.268-0.054l0.393,0.054l0.296,0.055l0.15-0.028l0.375,0.053l0.308,0.03l0.247,0.157h0.133
			l0.309-0.023l-0.108-0.079L119.33,197l0.133-0.055h0.203l0.105-0.055l0.524-0.027l0.61,0.054l0.297-0.026h0.199l0.38-0.027h0.104
			l0.476-0.121l0.256-0.027l0.496-0.215l0.271-0.218l0.27-0.255l0.228-0.108L124.018,195.866z"/>
		<path d="M133.449,199.345h0.146l0.296,0.024l0.634,0.309l0.135,0.216l0.26,0.083l0.875,0.659l0.229,0.109l0.405,0.229l0.121,0.051
			l0.159,0.055l0.161,0.053l0.393,0.164l0.339,0.096l0.43,0.295l0.055,0.31l-0.031,0.162l-0.078,0.162l-0.078,0.105l-0.086,0.394
			l0.031,0.16v0.176l-0.109,0.376l-0.055,0.363l0.078,0.42l-0.078,0.296v0.136l0.026,0.174l-0.026,0.135v0.361l-0.055,0.139v0.24
			l0.027,0.176l-0.027,0.323v0.216l0.055,0.121l0.026,0.215l-0.026,0.162l-0.055,0.257l0.081,0.297v0.229l-0.026,0.134l-0.078,0.524
			l-0.071,0.109l0.122,0.078l-0.051,0.109l0.104,0.7l0.052,0.379l-0.052,0.081l0.028,0.174l-0.028,0.135l0.083,0.242l0.242,0.082
			l0.228,0.31v0.108l-0.119,0.2l-0.108,0.161l-0.109,0.055l-0.363,0.08l-0.108,0.053l-0.134,0.085h-0.188l-0.203,0.024l-0.188,0.084
			l-0.218,0.066l-0.524,0.24l-0.285,0.081l-0.496,0.188l-0.106,0.07l-0.605,0.268l-0.219,0.188l-0.106,0.175l0.028,0.219
			l0.133,0.255l0.055,0.324l-0.109,0.215l-0.47,0.31l-0.339-0.027l-0.133-0.053l-0.107-0.026l-0.08-0.082l-0.368-0.228l-0.295-0.054
			l-0.051-0.109l-0.229-0.024l-0.109-0.055l-0.107-0.084l-0.206-0.079l-0.103-0.122l-0.448-0.241l-0.349-0.312l-0.715-0.32
			l-0.204-0.082l-0.158-0.082l-0.138-0.066h-0.104l-0.338-0.162l-0.188-0.054l-0.176-0.242l0.08-0.285l0.337-0.388l0.055-0.161
			l0.104-0.242l0.083-0.311l0.042-0.324l0.024-0.081l0.079-0.619l0.03-0.634l0.133-0.109l-0.163-0.158v-0.393v-0.349v-0.121
			l-0.024-0.164l0.055-0.242l-0.03-0.148l-0.024-0.376l0.109-0.364v-0.162l-0.109-0.188l0.024-0.176l0.085-0.27l-0.109-0.109
			l-0.03-0.254v-0.107v-0.257l0.055-0.135l-0.055-0.16l-0.024-0.188l0.024-0.42l-0.024-0.215l-0.024-0.47l-0.15-0.366l-0.162-0.106
			l-0.164-0.191l-0.049-0.226l0.023-0.082l0.08-0.135l0.055-0.107l0.325-0.149l0.283-0.079l0.242-0.026l0.362-0.083l0.164-0.026
			l0.363-0.106l0.362-0.134l0.604-0.176l0.247-0.217l0.334-0.188l0.247-0.228l0.133-0.242l0.055-0.176l-0.03-0.297l0.03-0.109
			l0.119-0.203l0.216-0.159L133.449,199.345z M132.84,202.185l-0.212,0.084v0.158l0.024,0.12l0.108,0.219v0.524l0.024,0.499v0.352
			l0.03,0.122v0.079v0.133v0.272v0.146v0.137l-0.03,0.214l0.055,0.174v0.434l0.03,0.175l0.024,0.215l-0.055,0.246l-0.055,0.278
			l0.192,0.421v0.106l-0.138,0.349l0.03,0.203l-0.03,0.216l-0.079,0.229l0.055,0.107l-0.055,0.271l-0.054,0.525l-0.055,0.338
			l-0.109,0.241l-0.145,0.31l-0.055,0.135l0.121,0.136l0.405,0.158l0.174,0.03h0.109l0.351,0.091h0.254l0.133,0.031l0.556,0.107
			h0.163l0.278-0.029l0.055-0.2v-0.108l-0.309-0.351l-0.164-0.283l-0.078-0.526l0.026-0.188l0.052-0.688l0.031-0.283v-0.159
			l-0.031-0.082l0.031-0.254l-0.055-0.135l0.023-0.474l0.189-0.189l0.029-0.108l-0.164-0.31l0.031-0.241l0.133-0.31l-0.188-0.216
			v-0.134l-0.055-0.338v-0.524l-0.055-0.219l0.055-0.254v-0.297l0.055-0.188l-0.031-0.258l0.055-0.212l0.109-0.23v-0.215
			l-0.403,0.107l-0.176-0.053l-0.188-0.055l-0.219-0.136l-0.199-0.149l-0.163-0.159l-0.361-0.107L132.84,202.185z"/>
		<path d="M145.348,199.345h0.078l0.392,0.024l0.418,0.363l0.163,0.403l0.053,0.121l0.08,0.189l0.217,0.029l0.229,0.499l0.079,0.134
			l0.163,0.243l0.055,0.146l0.078,0.245l0.043,0.255l0.053,0.133l0.104,0.109l0.273,0.362l0.078,0.555l0.176,0.024l0.247,0.03
			l0.102,0.134l0.122,0.108l0.085,0.282l-0.152,0.297l-0.297,0.31l-0.36,0.217l-0.581,0.24l-0.109,0.069l-0.32,0.35l-0.096,0.254
			l-0.055,0.163l-0.133,0.161l-0.272,0.109h-0.277l-0.084-0.083l-0.109-0.133l-0.175-0.272l-0.079-0.254l-0.163-0.392l-0.164-0.213
			l-0.078-0.193l-0.055-0.103l-0.121-0.258l-0.078-0.297l-0.028-0.094l-0.242-0.215l-0.201-0.474l-0.107-0.27l-0.133-0.254
			l-0.086-0.188l-0.078-0.109l-0.176-0.175l-0.134,0.094l-0.162,0.245l0.055,0.604l0.08,0.162l0.133,0.364l0.028,0.108l0.026,0.281
			l0.028,0.188l0.024,0.188l-0.024,0.23l0.121,0.162l-0.03,0.105l0.03,0.176l0.024,0.161l-0.121,0.242l0.066,0.082l0.03,0.419
			l0.024,0.161l0.03,0.309l-0.03,0.218l-0.121,0.226l-0.024,0.217v0.161l0.121,0.097l0.024,0.212l0.03,0.139l-0.085,0.025
			l-0.024,0.254l0.055,0.821l-0.121,0.501l-0.083,0.162l-0.025,0.135l-0.107,0.12l-0.055,0.134l-0.242,0.137l0.024,0.19l0.138,0.227
			l0.162,0.134l0.188,0.109l0.146,0.055l0.984,0.283l0.151,0.025h0.134l0.106,0.027h0.256l0.459-0.027v0.215l0.145-0.082
			l0.192-0.188l0.188-0.055l0.055-0.146v-0.108l0.08-0.161l-0.055-0.309l-0.055-0.109l-0.025-0.109l-0.083-0.242v-0.12l0.108-0.271
			l0.15-0.133l0.133-0.081l0.188-0.028l0.109-0.066l0.581,0.283l0.078,0.162l0.204,0.473v0.335l-0.055,0.486l-0.149,0.364
			l-0.104,0.254l-0.138,0.271l-0.188,0.242l-0.176,0.096l-0.054,0.106l-0.109,0.134l-0.32,0.269l-0.755,0.393l-0.375,0.308
			l-0.071,0.109l-0.055,0.242l0.126,0.258v0.376l-0.23,0.284l-0.556,0.053l-0.188-0.027l-0.308-0.053l-0.192-0.054l-0.604-0.203
			l-0.188-0.055l-0.23-0.161l-0.375-0.16l-0.313-0.203l-0.213-0.055l-0.366-0.214l-0.158-0.106l-0.392-0.137l-0.081-0.228
			l-0.367,0.055l-0.157-0.191h-0.164l-0.337-0.025l-0.188,0.025l-0.163-0.025l-0.121-0.082l-0.107-0.256v-0.163l0.083-0.279
			l0.146-0.163l0.188-0.218l0.054-0.134l0.031-0.228l0.078-0.242l0.055-0.785l0.055-0.296v-0.188v-0.283l0.053-0.214l0.175-0.176
			l-0.175-0.403v-0.339l0.068-1.076l-0.043-0.215v-0.23l-0.025-0.216v-0.135l0.025-0.135l-0.055-0.148v-0.109l0.029-0.133
			l0.025-0.218l-0.025-0.145l0.121-0.298l-0.029-0.106v-0.151l0.055-0.105l-0.055-0.296l-0.023-0.498l-0.043-0.203v-0.458
			l-0.242-0.096l0.029-0.322h-0.247l-0.119-0.16l-0.052-0.23l0.025-0.163l0.146-0.255l0.327-0.161h0.107l0.121,0.027l0.188,0.025
			l0.5-0.162h0.081l0.106-0.054l0.285-0.079l0.133-0.029l0.109-0.053l0.215-0.052l0.148-0.041l0.376-0.109l0.472-0.242l0.311-0.107
			l0.268-0.147l0.162-0.137l0.121-0.024l0.434-0.242l0.147-0.108l0.242-0.204l0.028-0.215l0.133-0.229l0.199-0.188L145.348,199.345z
			"/>
		<path d="M154.224,199.345h0.149l0.297,0.024l0.634,0.309l0.133,0.216l0.254,0.083l0.876,0.659l0.23,0.109l0.403,0.229l0.121,0.051
			l0.164,0.055l0.163,0.053l0.387,0.164l0.338,0.096l0.429,0.295l0.055,0.31l-0.023,0.162l-0.08,0.162l-0.084,0.105l-0.078,0.394
			l0.023,0.16v0.176l-0.108,0.376l-0.048,0.363l0.078,0.42l-0.078,0.296v0.136l0.023,0.174l-0.023,0.135v0.361l-0.055,0.139v0.24
			l0.023,0.176l-0.023,0.323v0.216l0.055,0.121l0.023,0.215l-0.023,0.162l-0.055,0.257l0.078,0.297v0.229l-0.023,0.134l-0.085,0.524
			l-0.067,0.109l0.121,0.078l-0.054,0.109l0.108,0.7l0.055,0.379l-0.055,0.081l0.024,0.174l-0.024,0.135l0.079,0.242l0.241,0.082
			l0.23,0.31v0.108l-0.121,0.2l-0.109,0.161l-0.102,0.055l-0.368,0.08l-0.104,0.053l-0.138,0.085h-0.188l-0.201,0.024l-0.192,0.084
			l-0.211,0.066l-0.525,0.24l-0.284,0.081l-0.501,0.188l-0.104,0.07l-0.609,0.268l-0.212,0.188l-0.109,0.175l0.026,0.219
			l0.135,0.255l0.053,0.324l-0.104,0.215l-0.474,0.31l-0.336-0.027l-0.138-0.053l-0.104-0.026l-0.083-0.082l-0.362-0.228
			l-0.297-0.054l-0.055-0.109l-0.229-0.024l-0.108-0.055l-0.109-0.084l-0.199-0.079l-0.109-0.122l-0.441-0.241l-0.352-0.312
			l-0.717-0.32l-0.199-0.082l-0.164-0.082l-0.133-0.066h-0.108l-0.338-0.162l-0.188-0.054l-0.176-0.242l0.082-0.285l0.334-0.388
			l0.055-0.161l0.109-0.242l0.078-0.311l0.043-0.324l0.028-0.081l0.08-0.619l0.024-0.634l0.138-0.109l-0.162-0.158v-0.393v-0.349
			v-0.121l-0.03-0.164l0.055-0.242l-0.024-0.148l-0.03-0.376l0.109-0.364v-0.162l-0.109-0.188l0.03-0.176l0.079-0.27l-0.109-0.109
			l-0.024-0.254v-0.107v-0.257l0.055-0.135l-0.055-0.16l-0.025-0.188l0.025-0.42l-0.025-0.215l-0.028-0.47l-0.146-0.366
			l-0.163-0.106l-0.164-0.191l-0.053-0.226l0.029-0.082l0.078-0.135l0.055-0.107l0.32-0.149l0.284-0.079l0.242-0.026l0.368-0.083
			l0.157-0.026l0.366-0.106l0.364-0.134l0.605-0.176L152.93,201l0.338-0.188l0.242-0.228l0.133-0.242l0.055-0.176l-0.024-0.297
			l0.024-0.109l0.121-0.203l0.216-0.159L154.224,199.345z M153.618,202.185l-0.218,0.084v0.158l0.03,0.12l0.107,0.219v0.524
			l0.026,0.499v0.352l0.025,0.122v0.079v0.133v0.272v0.146v0.137l-0.025,0.214l0.054,0.174v0.434l0.024,0.175l0.03,0.215
			l-0.055,0.246l-0.054,0.278l0.187,0.421v0.106l-0.133,0.349l0.024,0.203l-0.024,0.216l-0.08,0.229l0.052,0.107l-0.052,0.271
			l-0.053,0.525l-0.055,0.338l-0.108,0.241l-0.15,0.31l-0.055,0.135l0.125,0.136l0.4,0.158l0.176,0.03h0.108l0.35,0.091h0.259
			l0.135,0.031l0.551,0.107h0.161l0.285-0.029l0.055-0.2v-0.108l-0.309-0.351l-0.164-0.283l-0.083-0.526l0.028-0.188l0.055-0.688
			l0.024-0.283v-0.159l-0.024-0.082l0.024-0.254l-0.053-0.135l0.028-0.474l0.188-0.189l0.024-0.108l-0.157-0.31l0.023-0.241
			l0.134-0.31l-0.188-0.216v-0.134l-0.053-0.338v-0.524l-0.055-0.219l0.055-0.254v-0.297l0.053-0.188l-0.024-0.258l0.055-0.212
			l0.109-0.23v-0.215l-0.406,0.107l-0.175-0.053l-0.192-0.055l-0.212-0.136l-0.204-0.149l-0.159-0.159l-0.367-0.107L153.618,202.185
			z"/>
	</g>
	<g>
		<path d="M78.255,241.867h-2.792v5.582h3.908v1.675H73.23v-15.632h6.141v1.675h-3.908v5.024h2.792V241.867z"/>
		<path d="M81.404,249.124v-15.632h3.349c0.838,0,1.541,0.076,2.111,0.227c0.569,0.151,1.029,0.401,1.378,0.751
			c0.35,0.349,0.6,0.809,0.751,1.378c0.15,0.569,0.227,1.272,0.227,2.11v6.142c0,0.837-0.076,1.57-0.227,2.197
			c-0.151,0.629-0.401,1.152-0.751,1.571c-0.349,0.419-0.81,0.732-1.382,0.941c-0.573,0.209-1.281,0.314-2.124,0.314H81.404z
			 M84.753,247.449c0.559,0,0.989-0.072,1.292-0.219c0.302-0.145,0.522-0.374,0.663-0.688c0.139-0.314,0.221-0.719,0.244-1.212
			c0.023-0.495,0.034-1.091,0.034-1.789v-5.024c0-0.559-0.011-1.047-0.034-1.466c-0.023-0.418-0.106-0.767-0.248-1.047
			c-0.144-0.278-0.368-0.487-0.678-0.628c-0.308-0.14-0.747-0.209-1.316-0.209h-1.073v12.282H84.753z"/>
		<path d="M98.789,233.492l1.032,7.27l0.634,4.454l0.796-4.425l0.888-7.299h2.232l-2.798,15.632h-2.226l-1.041-7.289l-0.639-4.468
			l-0.638,4.468l-1.043,7.289h-2.412l-2.602-15.632h2.241l1.107,7.257l0.567,4.467l0.634-4.454l1.033-7.27H98.789z"/>
		<path d="M106.403,233.492h2.232v15.632h-2.232V233.492z"/>
		<path d="M117.455,249.124l-3.995-10.398v10.398h-2.233v-15.632h1.466l4.116,10.206v-10.206h2.234v15.632H117.455z"/>
		<path d="M135.328,243.541v0.559c0,0.698-0.075,1.361-0.226,1.988c-0.152,0.629-0.401,1.178-0.751,1.648
			c-0.349,0.472-0.809,0.847-1.378,1.126c-0.57,0.279-1.273,0.419-2.111,0.419c-0.837,0-1.541-0.143-2.11-0.427
			c-0.57-0.286-1.03-0.683-1.378-1.191c-0.351-0.509-0.6-1.115-0.751-1.819c-0.151-0.703-0.227-1.474-0.227-2.312v-4.457
			c0-0.837,0.075-1.607,0.227-2.312s0.4-1.309,0.751-1.814c0.348-0.506,0.808-0.901,1.378-1.188c0.569-0.284,1.273-0.427,2.11-0.427
			c0.791,0,1.47,0.127,2.037,0.38s1.029,0.605,1.387,1.061c0.357,0.452,0.621,0.998,0.79,1.635c0.168,0.637,0.252,1.339,0.252,2.106
			h-2.232c0-0.559-0.038-1.047-0.113-1.466c-0.076-0.418-0.2-0.767-0.376-1.047c-0.174-0.278-0.404-0.487-0.688-0.628
			c-0.284-0.14-0.637-0.209-1.056-0.209s-0.771,0.069-1.056,0.209c-0.284,0.141-0.514,0.35-0.688,0.628
			c-0.176,0.28-0.3,0.629-0.375,1.047c-0.076,0.419-0.114,0.907-0.114,1.466v5.583c0,0.419,0.038,0.829,0.114,1.23
			c0.075,0.401,0.199,0.758,0.375,1.072c0.175,0.314,0.404,0.566,0.688,0.759c0.285,0.192,0.637,0.288,1.056,0.288
			s0.771-0.096,1.056-0.288s0.515-0.444,0.688-0.759c0.176-0.314,0.3-0.671,0.376-1.072c0.075-0.401,0.113-0.812,0.113-1.23v-0.559
			H135.328z"/>
		<path d="M143.888,249.124l-2.34-7.257h-1.676v7.257h-2.233v-15.632h2.791c0.978,0,1.788,0.1,2.435,0.301
			c0.646,0.2,1.159,0.484,1.544,0.851c0.384,0.367,0.654,0.808,0.812,1.321c0.156,0.515,0.235,1.086,0.235,1.715
			c0,0.383-0.027,0.73-0.084,1.038c-0.054,0.309-0.131,0.583-0.223,0.825c-0.093,0.242-0.198,0.454-0.316,0.637
			c-0.115,0.184-0.235,0.34-0.356,0.467c-0.287,0.31-0.614,0.53-0.982,0.664l2.52,7.813H143.888z M139.872,240.191h0.558
			c0.42,0,0.8-0.039,1.144-0.118c0.344-0.078,0.636-0.213,0.881-0.405c0.244-0.192,0.433-0.449,0.566-0.772
			c0.134-0.321,0.201-0.728,0.201-1.216c0-0.489-0.067-0.895-0.201-1.217c-0.134-0.323-0.322-0.58-0.566-0.772
			c-0.245-0.192-0.537-0.327-0.881-0.405c-0.344-0.079-0.724-0.118-1.144-0.118h-0.558V240.191z"/>
		<path d="M152.512,249.289c-0.651,0-1.214-0.076-1.688-0.23c-0.474-0.154-0.876-0.366-1.207-0.637
			c-0.332-0.271-0.6-0.591-0.803-0.96s-0.362-0.767-0.477-1.19c-0.113-0.425-0.189-0.869-0.229-1.335
			c-0.042-0.465-0.062-0.931-0.062-1.396v-10.049h2.232v10.056c0,0.279,0.003,0.57,0.01,0.873c0.006,0.303,0.029,0.597,0.074,0.886
			c0.043,0.288,0.108,0.563,0.195,0.825c0.087,0.261,0.214,0.489,0.38,0.685s0.376,0.351,0.633,0.467
			c0.255,0.116,0.569,0.175,0.941,0.175s0.687-0.059,0.942-0.175c0.255-0.116,0.467-0.271,0.633-0.467s0.291-0.424,0.379-0.685
			c0.088-0.262,0.152-0.537,0.196-0.825c0.043-0.289,0.068-0.583,0.074-0.886s0.009-0.594,0.009-0.873v-10.056h2.233v10.049
			c0,0.465-0.021,0.931-0.062,1.396c-0.04,0.466-0.118,0.91-0.231,1.335c-0.114,0.424-0.271,0.821-0.476,1.19
			c-0.203,0.369-0.471,0.689-0.802,0.96c-0.332,0.271-0.734,0.482-1.208,0.637C153.726,249.213,153.163,249.289,152.512,249.289z"/>
		<path d="M161.234,247.449h5.025v1.675h-7.25v-1.675l5.025-12.282h-4.466v-1.675h6.691v1.672L161.234,247.449z"/>
	</g>
	<path d="M41.598,43.237"/>
</g>
<g id="Capa_15">
	<g>
		<g>
			<g>
				<g>
					<g>
						<g>
							<path fill-rule="evenodd" clip-rule="evenodd" d="M61.901,152.752c2.414,4.61,6.229,7.378,8.531,6.169
								c2.287-1.2,2.196-5.911-0.211-10.524c-2.421-4.607-6.232-7.364-8.532-6.166C59.397,143.431,59.488,148.145,61.901,152.752z"
								/>
							<path d="M52.329,156.767c-3.872-8.941,4.754-13.23,4.754-13.23l4.606-1.306l9.622,15.618
								C71.312,157.849,57.097,167.083,52.329,156.767z"/>
							<path fill-rule="evenodd" clip-rule="evenodd" fill="#B28646" d="M62.362,144.962c6.361,1.617,7.013,10.81,7.013,10.81
								s-9.873,6.721-13.701,0.183C51.848,149.421,58.478,145.105,62.362,144.962z"/>
							<path fill="#31738B" d="M67.919,150.169c0.632,5.467-2.499,7-5.138,8.412c3.434-0.704,6.594-2.81,6.594-2.81
								S69.019,152.081,67.919,150.169z"/>
						</g>
						<path fill-rule="evenodd" clip-rule="evenodd" fill="#D7DADD" d="M62.362,144.962c0,0-5.137,0.103-7.23,5.117
							c-0.598,2.415,11.458-2.19,10.439-3.329C64.424,145.515,62.362,144.962,62.362,144.962z"/>
					</g>
					<path fill="#8D1516" d="M103.114,176.365c-42.77-10.792-68.79-54.374-57.993-97.143c10.795-42.771,54.376-68.783,97.146-57.991
						c42.77,10.797,68.784,54.377,57.993,97.144C189.461,161.149,145.882,187.163,103.114,176.365z"/>
					<path d="M142.86,22.393c41.896,10.575,67.283,53.113,56.715,95.008c-10.582,41.893-53.111,67.287-95.01,56.713
						c-41.896-10.574-67.286-53.106-56.713-95.003C58.423,37.213,100.96,11.821,142.86,22.393 M143.72,18.977
						C100.005,7.945,55.467,34.534,44.437,78.247c-4.758,18.845-11.907,81.316,59.271,99.281
						c43.71,11.033,88.248-15.554,99.281-59.264C214.021,74.547,187.43,30.01,143.72,18.977L143.72,18.977z"/>
					<path fill="#C9A9A9" d="M63.949,106.657c-7.987,9.976-7.261,23.002-5.485,27.124c-27.091-39.311-6.51-94.289,40.669-109.669
						C83.104,31.412,50.282,62.286,63.949,106.657z"/>
					<path fill="#333333" d="M113.577,20.282c-4.325,0.98-10.432,14.002-11.426,32.232c-1.429,12.627,1.743,22.483,4.484,35.8
						c3.28,15.971,10.381,43.251,31.864,83.735c70.465-24.505,54.775-86.147,54.775-86.147s-3.33-41.808-39.16-58.771
						C140.506,20.527,130.359,19.323,113.577,20.282z"/>
					<path d="M142.86,22.393c-1.457-0.304-2.882-0.68-4.322-0.959c39.139,10.094,62.756,50.158,52.782,89.691
						c-3.04,13.612-12.032,29.986-28.104,40.112c-5.121,21.159-9.927,7.403-15.975,10.562c-13.927,5.644-29.67,7.085-45.305,3.137
						c-38.436-9.696-62.007-48.259-53.775-86.989c-0.106,0.388-0.211,0.773-0.31,1.163c-10.573,41.896,14.816,84.429,56.713,95.003
						c41.898,10.574,84.428-14.82,95.01-56.713C212.612,65.719,177.527,29.735,142.86,22.393z"/>
					<g>
						<path fill-rule="evenodd" clip-rule="evenodd" d="M196.114,133.09c-2.014,5-5.664,8.233-8.156,7.232
							c-2.485-1.006-2.872-5.868-0.855-10.866c2.016-4.995,5.669-8.231,8.154-7.227C197.748,123.237,198.136,128.096,196.114,133.09
							z"/>
						<path d="M206.393,136.254c3.076-9.613-6.251-13.148-6.251-13.148l-15.08,5.59l1.879,10.613
							C186.94,139.309,202.531,147.367,206.393,136.254z"/>
						<path fill-rule="evenodd" clip-rule="evenodd" fill="#B28646" d="M194.844,125.111c-6.384,2.312-6.124,11.854-6.124,11.854
							s10.862,5.92,14.142-1.203C206.138,128.638,198.862,124.864,194.844,125.111z"/>
						<path fill="#31738B" d="M189.652,131.046c7.042,4.554,13.495,3.054,13.896,2.656c-1.84,10.162-14.828,3.263-14.828,3.263
							S188.712,133.127,189.652,131.046z"/>
					</g>
				</g>
				<polygon points="72.504,142.249 69.981,153.195 73.154,159.202 				"/>
			</g>
		</g>
		<g>
			<path d="M107.14,91.135c-0.324,0-0.615-0.218-0.694-0.549c-0.337-1.368-0.675-2.784-1.003-4.211
				c-0.09-0.382,0.149-0.768,0.539-0.856c0.385-0.091,0.768,0.152,0.861,0.537c0.322,1.415,0.657,2.826,0.992,4.188
				c0.1,0.384-0.139,0.771-0.521,0.87C107.254,91.128,107.198,91.135,107.14,91.135z M105.207,82.722
				c-0.33,0-0.633-0.231-0.705-0.568c-0.305-1.448-0.6-2.877-0.86-4.236c-0.083-0.392,0.174-0.765,0.565-0.841
				c0.392-0.077,0.764,0.175,0.841,0.566c0.263,1.354,0.551,2.771,0.86,4.214c0.084,0.387-0.166,0.768-0.55,0.848
				C105.307,82.718,105.254,82.722,105.207,82.722z M103.559,74.252c-0.343,0-0.642-0.241-0.702-0.598
				c-0.256-1.497-0.483-2.938-0.672-4.277c-0.056-0.394,0.216-0.759,0.613-0.81c0.392-0.056,0.752,0.219,0.809,0.611
				c0.188,1.325,0.41,2.75,0.666,4.237c0.065,0.391-0.197,0.762-0.589,0.829C103.646,74.25,103.604,74.252,103.559,74.252z
				 M102.387,65.714c-0.365,0-0.677-0.279-0.71-0.654c-0.155-1.62-0.235-3.085-0.246-4.365c-0.003-0.398,0.316-0.722,0.716-0.725
				c0.002,0,0.002,0,0.005,0c0.395,0,0.712,0.319,0.714,0.713c0.01,1.238,0.095,2.666,0.24,4.243
				c0.033,0.396-0.255,0.746-0.65,0.783C102.435,65.711,102.413,65.714,102.387,65.714z M102.273,57.103
				c-0.016,0-0.025-0.002-0.034-0.002c-0.398-0.017-0.702-0.352-0.684-0.751c0.065-1.461,0.154-2.918,0.267-4.316
				c0.028-0.396,0.38-0.688,0.771-0.66c0.394,0.034,0.688,0.379,0.659,0.769c-0.114,1.39-0.2,2.828-0.266,4.273
				C102.972,56.803,102.652,57.103,102.273,57.103z M102.958,48.522c-0.03,0-0.055-0.003-0.088-0.005
				c-0.396-0.047-0.676-0.404-0.629-0.798c0.178-1.465,0.375-2.91,0.599-4.293c0.065-0.39,0.431-0.654,0.822-0.591
				c0.395,0.063,0.659,0.43,0.599,0.823c-0.228,1.361-0.425,2.784-0.594,4.229C103.622,48.252,103.316,48.522,102.958,48.522z
				 M104.348,40.031c-0.053,0-0.104-0.006-0.152-0.016c-0.388-0.084-0.637-0.468-0.549-0.854c0.312-1.465,0.673-2.884,1.053-4.218
				c0.11-0.384,0.508-0.604,0.886-0.499c0.385,0.113,0.605,0.51,0.491,0.89c-0.369,1.312-0.716,2.698-1.028,4.132
				C104.973,39.801,104.68,40.031,104.348,40.031z M106.731,31.769c-0.084,0-0.167-0.015-0.253-0.048
				c-0.37-0.141-0.559-0.554-0.42-0.921c0.536-1.43,1.125-2.779,1.747-4.016c0.173-0.354,0.607-0.499,0.961-0.322
				c0.354,0.182,0.495,0.613,0.321,0.965c-0.601,1.191-1.171,2.494-1.687,3.875C107.294,31.588,107.02,31.769,106.731,31.769z
				 M110.64,24.131c-0.141,0-0.288-0.046-0.415-0.134c-0.318-0.232-0.393-0.68-0.163-1.002c1.742-2.438,3.078-3.285,3.134-3.322
				c0.338-0.209,0.778-0.105,0.988,0.234c0.213,0.333,0.108,0.772-0.227,0.983l0,0c-0.01,0.007-1.174,0.767-2.729,2.938
				C111.088,24.024,110.87,24.131,110.64,24.131z"/>
		</g>
		<path d="M192.396,90.942l-0.005-0.06c-0.241-4.979-4.175-7.581-7.929-7.581c-2.083,0-3.939,0.72-5.313,1.961
			c-10.053-9.954-20.331-13.096-27.801-13.838c-2.792-3.838-9.263-11.379-21.555-19.374c0.427-1.473,0.35-3.093-0.274-4.657
			c-1.164-2.923-3.952-4.887-6.93-4.887c-1.482,0-2.976,0.475-4.312,1.381l-0.018,0.011l-0.014,0.007
			c-3.001,2.084-4.243,5.652-3.164,9.098c0.916,2.938,3.28,4.898,6.091,5.101c4.491,6.459,7.728,14.909,9.244,19.343
			c-4.201,2.806-9.271,6.894-13.297,12.275c-2.538-1.407-5.12-2.122-7.708-2.122c-3.973,0-7.024,1.699-8.803,3.03
			c-1.548-0.822-4.019-2.119-7.064-3.663c-0.395-0.202-0.8-0.41-1.216-0.624c-2.064-1.066-4.378-2.258-6.982-3.188
			c-4.369-6.385-5.477-17.558-5.754-22.175c0.989-0.481,2.05-1.249,2.795-2.458c1.272-2.064,1.354-4.932,0.208-7.139
			c-1.052-2.029-3.014-3.267-5.385-3.405l-0.019-0.002h-0.019c-0.149-0.005-0.303-0.01-0.452-0.01c-4.353,0-7.026,2.847-7.752,5.666
			c-0.469,1.834-0.19,3.656,0.68,5.13c-6.527,9.031-9.531,22.143-10.578,27.786c-5.567,3.154-10.866,7.761-15.78,13.709
			c-1.863,0-3.608,0.728-4.775,1.988c-0.816,0.886-1.749,2.448-1.555,4.864l0.002,0.02v0.019c0.327,3.399,2.845,5.772,6.129,5.772
			c0.866,0,1.732-0.17,2.536-0.487c2.079,3.18,7.161,9.637,16.524,14.177c1.67,4.612,4.936,11.075,6.668,14.407
			c-0.586,0.649-1.122,1.489-1.399,2.532c-0.604,2.25-0.134,4.751,1.226,6.523c1.31,1.705,3.317,2.644,5.667,2.644
			c0.087,0,0.175-0.002,0.27-0.004c2.502-0.073,4.526-1.107,5.711-2.906c1.201-1.829,1.393-4.249,0.507-6.48
			c-0.43-1.085-1.153-1.96-1.866-2.621l3.381-10.256c2.818-0.815,5.169-2.366,6.998-3.905c1.397,2.421,3.751,3.229,4.025,3.313
			l0.624,0.199l0.651-0.093l39.736-5.657l0.291-0.038l0.274-0.102c0.455-0.162,4.364-1.662,5.252-5.308
			c2.658,0.973,5.371,1.461,8.106,1.461c1.772,0,3.573-0.208,5.364-0.617l4.881,6.67c-0.153,1.136-0.205,2.76,0.312,4.373
			c0.916,2.821,3.179,4.579,5.903,4.579c0.603,0,1.229-0.083,1.855-0.248c2.081-0.541,3.795-1.82,4.83-3.603
			c0.937-1.61,1.223-3.455,0.786-5.066c-0.487-1.81-1.744-3.053-2.854-3.835l0.796-12.503c4.805-4.564,8.309-9.511,10.055-12.215
			c1.207,0.751,2.643,1.155,4.175,1.155c2.192,0,4.305-0.86,5.794-2.358c1.467-1.48,2.241-3.428,2.223-5.647V90.942z"/>
		<polygon fill="#333333" points="176.384,150.77 177.527,138.705 171.103,135.319 		"/>
		<path d="M176.695,151.892c0,0,3.239,5.113,3.684,7.311c-8.341,7.874-16.688,11.67-16.688,11.67s-30.799,14.159-75.708,9.153
			c-3.309-1.813-6.584-12.7-6.584-12.7v-15.658L176.695,151.892z"/>
		<path fill="#D7DADD" d="M95.159,126.286c0,0-13.29,10.202-14.061,15.086c-0.187,27.705,6.931,35.459,7.034,35.888
			c0.06,0.248,29.578,4.517,54.793-1.306c18.671-4.311,35.028-19.147,35.028-19.147s-6.891-29.936-15.357-33.378
			c-6.903-0.781-15.92-3.694-22.252-5.169c-6.478-1.514-10.194-1.582-10.194-1.582L95.159,126.286z"/>
		<path d="M89.214,131.273c-4.102,2.05-8.412,12.052-8.412,12.052l12.177,27.394L86.876,140.5l34.766-7.885
			c0,0,5.703-4.533-4.067-3.59C112.896,129.477,90.538,130.611,89.214,131.273z"/>
		<path fill="#B28646" d="M90.958,132.454c1.463-0.27,13.755-1.062,26.616-3.429c15.139-2.781,31.065-7.178,31.065-7.178
			s4.775-0.453,8.069,0.617c6.745,1.395,9.157,11.44,9.157,11.44s3.13,7.129,3.669,13.355c0.326,3.78-1.078,6.094-2.492,9.546
			c-3.734,9.116-19.071,18.444-19.071,18.444l-28.872,4.021c0,0-4.268-2.636-10.623-4.329c-6.047-1.604-14.163-2.213-15.498-4.224
			c-2.735-4.118-9.196-27.912-9.196-27.912S87.783,133.039,90.958,132.454z"/>
		<path fill="#D7DADD" d="M179.645,89.956c-10.839-12.144-22.247-15.293-29.871-15.783c-2.037-3.026-8.833-11.903-23.827-21.159
			c3.562-3.372-1.179-10.047-6.062-6.747c-4.447,3.085-1.863,9.907,2.694,8.877c6.016,7.992,9.959,19.393,11.26,23.517
			c-4.939,3.062-11.464,8.013-15.951,14.981c-9.877-7.39-16.89,0.453-16.89,0.453s-3.483-1.901-8.75-4.567
			c-2.522-1.278-5.408-2.889-8.686-3.948c-6.723-8.771-6.924-26.646-6.924-26.646s2.288-0.264,3.311-1.919
			c1.222-1.987,0.646-5.963-2.9-6.169c-5.517-0.244-7.028,5.841-3.599,7.72c-7.896,9.268-11.054,25.461-11.793,29.842
			c-5.631,2.952-11.458,7.731-17.134,14.897c-2.17-0.625-4.956,0.419-4.698,3.575c0.336,3.551,3.994,3.88,5.946,2.161
			c0.735,0.196,1.313,0.209,1.313,0.209s4.733,9.566,17.389,15.278c1.912,5.996,8.016,17.275,8.016,17.275s-1.854,0.842-2.298,2.489
			c-0.619,2.315,0.508,5.661,4.312,5.549c3.8-0.109,4.524-3.206,3.632-5.456c-0.631-1.594-2.583-2.582-2.583-2.582l4.546-13.789
			c6.613-1.086,10.776-7.455,11.548-7.785c-1.836,5.494,2.565,6.894,2.565,6.894l39.739-5.657c0,0,7.638-2.741,0.42-9.025
			c7.307,5.413,14.271,5.912,20.422,3.979l6.79,9.271c0,0-0.659,2.176-0.014,4.169c0.486,1.501,1.762,3.111,4.299,2.44
			c2.936-0.76,4.021-3.481,3.568-5.142c-0.549-2.026-3.062-2.964-3.062-2.964l0.981-15.443c7.182-6.532,11.609-14.354,11.609-14.354
			s0.78,0.105,1.516-0.13c2.499,3.417,9.083,2.046,9.046-3.24C189.224,84.896,180.709,84.61,179.645,89.956z"/>
		<path fill-rule="evenodd" clip-rule="evenodd" fill="#FFFFFF" d="M73.759,51.631c-0.889,3.001,0.244,5.93,0.244,5.93l0.578,0.799
			c0,0-8.582,16.379-8.948,30.129c-10.468,5.517-22.585,17.894-22.585,17.894s-1.433-1.13-3.239,0
			c0.646-4.268,4.714-3.078,4.714-3.078s5.061-7.181,17.424-16.108c1.27-15.854,11.503-28.631,11.503-28.631
			S69.117,55.111,73.759,51.631z"/>
		<g>
			<path d="M74.314,148.911c-0.166,0-0.324-0.007-0.474-0.022l0.042-0.43c0.18,0.021,0.375,0.026,0.575,0.021
				c0.396-0.015,0.747-0.061,1.052-0.15l0.118,0.411c-0.341,0.103-0.732,0.157-1.156,0.171
				C74.415,148.911,74.366,148.911,74.314,148.911z M72.141,148.241c-0.178-0.14-0.337-0.303-0.475-0.484
				c-0.229-0.297-0.406-0.65-0.528-1.037l0.41-0.129c0.108,0.346,0.261,0.646,0.457,0.902c0.122,0.152,0.259,0.291,0.404,0.411
				L72.141,148.241z M77.132,147.691l-0.363-0.231c0.228-0.357,0.35-0.809,0.35-1.306c0-0.074-0.004-0.145-0.007-0.218l0.427-0.028
				c0.007,0.083,0.009,0.165,0.009,0.246C77.547,146.737,77.402,147.268,77.132,147.691z M71.44,144.985l-0.43-0.068
				c0.024-0.13,0.05-0.26,0.084-0.383c0.111-0.424,0.38-0.831,0.8-1.213l0.296,0.317c-0.359,0.324-0.591,0.669-0.679,1.004
				C71.478,144.758,71.457,144.871,71.44,144.985z M76.614,144.433c-0.366-0.508-0.907-0.918-1.197-1.12l0.243-0.357
				c0.312,0.219,0.902,0.664,1.304,1.226L76.614,144.433z M73.599,142.595l-0.352-0.252c0.055-0.075,0.1-0.157,0.125-0.241
				c0.029-0.097,0.052-0.197,0.052-0.299c0-0.155-0.043-0.308-0.115-0.441l-0.209-0.397l0.374-0.201l0.217,0.395
				c0.104,0.197,0.163,0.42,0.163,0.646c0,0.148-0.022,0.296-0.071,0.438C73.737,142.363,73.676,142.482,73.599,142.595z
				 M74.194,141.963c-0.002-0.054-0.007-0.11-0.007-0.16c0-0.146,0.021-0.29,0.068-0.428l0.387-1.163l0.408,0.136l-0.384,1.163
				c-0.032,0.095-0.051,0.194-0.051,0.292c0,0.034,0,0.071,0.007,0.106L74.194,141.963z M72.291,139.436
				c-0.231-0.452-0.502-0.97-0.796-1.535l0.386-0.197c0.288,0.566,0.558,1.084,0.795,1.535L72.291,139.436z M75.588,138.712
				l-0.408-0.134l0.536-1.636l0.408,0.132L75.588,138.712z M70.716,136.363c-0.252-0.498-0.512-1.015-0.77-1.549l0.383-0.189
				c0.262,0.531,0.523,1.045,0.773,1.544L70.716,136.363z M76.663,135.44l-0.41-0.136l0.542-1.636l0.407,0.136L76.663,135.44z
				 M69.192,133.26c-0.251-0.516-0.503-1.034-0.743-1.559l0.386-0.185c0.247,0.525,0.496,1.047,0.74,1.559L69.192,133.26z
				 M77.742,132.169l-0.408-0.137l0.539-1.635l0.41,0.134L77.742,132.169z M164.795,131.519l-0.009-0.429
				c0.225-0.005,0.469-0.044,0.729-0.112c0.297-0.078,0.575-0.18,0.829-0.306l0.192,0.38c-0.279,0.145-0.584,0.258-0.915,0.347
				C165.332,131.474,165.055,131.514,164.795,131.519z M163.104,130.781c-0.274-0.313-0.49-0.721-0.646-1.21
				c-0.05-0.138-0.09-0.285-0.12-0.438l0.422-0.089c0.024,0.134,0.063,0.268,0.105,0.393c0.143,0.433,0.328,0.79,0.562,1.059
				L163.104,130.781z M67.724,130.133c-0.243-0.534-0.473-1.065-0.695-1.583l0.394-0.171c0.223,0.519,0.454,1.045,0.696,1.573
				L67.724,130.133z M167.92,129.888l-0.347-0.253c0.073-0.102,0.136-0.197,0.187-0.291c0.219-0.369,0.359-0.792,0.397-1.187
				l0.431,0.044c-0.049,0.455-0.208,0.935-0.455,1.361C168.067,129.674,167.994,129.784,167.92,129.888z M107.024,128.899
				c-0.154,0-0.309-0.002-0.46-0.002l0.003-0.431c0.559,0.005,1.138,0,1.711-0.02l0.012,0.434
				C107.874,128.896,107.442,128.899,107.024,128.899z M78.822,128.896l-0.409-0.134l0.389-1.176
				c0.062-0.182,0.157-0.351,0.288-0.496l0.319,0.292c-0.094,0.1-0.16,0.213-0.198,0.341L78.822,128.896z M104.827,128.836
				c-0.577-0.029-1.16-0.08-1.722-0.141l0.04-0.426c0.564,0.058,1.134,0.103,1.708,0.139L104.827,128.836z M110.021,128.792
				l-0.029-0.429c0.562-0.042,1.139-0.09,1.708-0.147l0.047,0.424C111.165,128.702,110.589,128.754,110.021,128.792z
				 M101.381,128.467c-0.573-0.095-1.146-0.204-1.704-0.329l0.1-0.419c0.543,0.119,1.108,0.231,1.676,0.32L101.381,128.467z
				 M113.461,128.429l-0.06-0.428l0.284-0.042c0.489-0.072,0.954-0.145,1.411-0.226l0.072,0.424
				c-0.459,0.081-0.926,0.154-1.402,0.225L113.461,128.429z M116.869,127.833l-0.087-0.419c0.561-0.121,1.12-0.244,1.672-0.377
				l0.103,0.417C118.001,127.588,117.432,127.717,116.869,127.833z M98.001,127.702c-0.579-0.171-1.133-0.361-1.646-0.563l0.154-0.4
				c0.504,0.196,1.047,0.384,1.607,0.548L98.001,127.702z M162.669,127.395l-0.433-0.033c0.062-0.808,0.235-1.396,0.237-1.4
				c0.023-0.089,0.037-0.179,0.037-0.27l0.433-0.012v0.012c0,0.134-0.022,0.266-0.057,0.394
				C162.882,126.091,162.728,126.637,162.669,127.395z M120.229,127.017l-0.116-0.412c0.558-0.154,1.111-0.323,1.647-0.492
				l0.13,0.41C121.35,126.696,120.793,126.862,120.229,127.017z M66.356,126.954c-0.227-0.569-0.436-1.114-0.618-1.615l0.406-0.149
				c0.175,0.5,0.381,1.04,0.614,1.603L66.356,126.954z M80.901,126.892l-0.109-0.419c0.534-0.136,1.077-0.312,1.606-0.536l0.161,0.4
				C82.012,126.566,81.454,126.75,80.901,126.892z M167.685,126.729c-0.407-0.496-0.975-0.848-1.276-1.016l0.209-0.375
				c0.402,0.221,0.973,0.591,1.401,1.113L167.685,126.729z M94.758,126.421c-0.293-0.156-0.464-0.26-0.508-0.295
				c-0.251-0.118-0.62-0.326-0.985-0.666l0.295-0.312c0.326,0.304,0.662,0.494,0.88,0.599l0.032,0.016
				c0.003,0,0.162,0.106,0.488,0.278L94.758,126.421z M123.53,125.97l-0.146-0.405c0.543-0.195,1.077-0.399,1.601-0.61l0.161,0.401
				C124.62,125.566,124.076,125.773,123.53,125.97z M84.13,125.568l-0.212-0.373c0.478-0.275,0.959-0.578,1.432-0.919l0.251,0.35
				C85.11,124.973,84.62,125.292,84.13,125.568z M126.739,124.681l-0.179-0.397c0.525-0.23,1.048-0.478,1.552-0.731l0.193,0.386
				C127.791,124.193,127.27,124.441,126.739,124.681z M165.048,124.506c-0.028-0.1-0.037-0.209-0.037-0.312
				c0-0.029,0-0.058,0.002-0.09l0.086-1.379l0.435,0.029l-0.092,1.382c-0.002,0.02-0.002,0.036-0.002,0.058
				c0,0.074,0.013,0.145,0.028,0.215L165.048,124.506z M161.737,124.327l-1.02-1.392l0.347-0.256l1.018,1.391L161.737,124.327z
				 M92.302,123.927c-0.116-0.373-0.175-0.779-0.175-1.207c0-0.192,0.018-0.386,0.036-0.585l0.429,0.044
				c-0.02,0.185-0.03,0.37-0.03,0.541c0,0.39,0.055,0.75,0.151,1.079L92.302,123.927z M65.118,123.849
				c-0.075-0.07-0.166-0.127-0.259-0.173c-0.411-0.187-0.82-0.375-1.219-0.572l0.191-0.386c0.396,0.195,0.8,0.383,1.201,0.565
				c0.145,0.062,0.267,0.151,0.377,0.252L65.118,123.849z M86.973,123.552l-0.279-0.323c0.415-0.359,0.837-0.743,1.256-1.156
				l0.307,0.305C87.823,122.797,87.395,123.193,86.973,123.552z M129.836,123.131l-0.209-0.375c0.51-0.282,1.005-0.577,1.478-0.868
				l0.225,0.363C130.852,122.553,130.353,122.845,129.836,123.131z M62.103,122.307c-0.504-0.275-1.008-0.567-1.504-0.864
				l0.229-0.365c0.483,0.29,0.982,0.582,1.48,0.852L62.103,122.307z M71.791,121.591c-0.25,0-0.503-0.007-0.752-0.019l0.016-0.425
				c0.565,0.018,1.143,0.014,1.703-0.013l0.019,0.429C72.451,121.579,72.12,121.591,71.791,121.591z M159.702,121.546l-1.02-1.393
				l0.347-0.252l1.018,1.388L159.702,121.546z M69.305,121.438c-0.567-0.07-1.151-0.16-1.717-0.279l0.084-0.422
				c0.559,0.113,1.129,0.207,1.684,0.277L69.305,121.438z M74.513,121.409l-0.058-0.428c0.558-0.078,1.12-0.177,1.678-0.3
				l0.093,0.424C75.66,121.227,75.081,121.331,74.513,121.409z M132.781,121.289l-0.251-0.349c0.433-0.315,0.727-0.544,0.872-0.663
				l-0.024-0.056l0.197-0.076c0.126-0.048,0.263-0.113,0.403-0.182l0.195,0.379c-0.137,0.072-0.274,0.135-0.404,0.189
				C133.64,120.664,133.357,120.877,132.781,121.289z M89.455,121.129l-0.313-0.29c0.17-0.188,0.334-0.363,0.48-0.525
				c0.278-0.309,0.499-0.551,0.691-0.748l0.305,0.306c-0.183,0.188-0.406,0.429-0.68,0.731
				C89.793,120.762,89.633,120.94,89.455,121.129z M165.636,121.031l-0.427-0.024l0.111-1.721l0.429,0.027L165.636,121.031z
				 M65.897,120.743c-0.546-0.157-1.1-0.34-1.647-0.541l0.147-0.404c0.539,0.198,1.083,0.377,1.622,0.53L65.897,120.743z
				 M77.909,120.664l-0.125-0.413c0.534-0.159,1.079-0.35,1.608-0.556l0.159,0.402C79.009,120.309,78.455,120.501,77.909,120.664z
				 M92.975,120.53l-0.418-0.099c0.016-0.067,0.021-0.14,0.021-0.208c0-0.258-0.107-0.51-0.301-0.688
				c-0.105-0.092-0.226-0.162-0.36-0.204l0.126-0.413c0.197,0.062,0.373,0.163,0.525,0.302c0.279,0.257,0.438,0.625,0.438,1.003
				C93.006,120.328,92.995,120.428,92.975,120.53z M59.139,120.518c-0.48-0.32-0.959-0.653-1.423-0.991l0.258-0.349
				c0.459,0.335,0.926,0.666,1.402,0.981L59.139,120.518z M62.639,119.552c-0.518-0.235-1.043-0.494-1.562-0.761l0.199-0.382
				c0.512,0.266,1.024,0.518,1.54,0.746L62.639,119.552z M81.146,119.409l-0.187-0.39c0.51-0.239,1.018-0.5,1.525-0.78l0.208,0.378
				C82.18,118.9,81.662,119.169,81.146,119.409z M135.638,119.32l-0.308-0.305c0.416-0.409,0.668-0.837,0.747-1.265
				c0.005-0.025,0.01-0.06,0.014-0.088l0.427,0.058c-0.006,0.035-0.012,0.072-0.021,0.105
				C136.407,118.347,136.115,118.847,135.638,119.32z M157.665,118.765l-1.018-1.391l0.35-0.255l1.017,1.391L157.665,118.765z
				 M56.342,118.476c-0.453-0.362-0.896-0.737-1.33-1.114l0.284-0.322c0.428,0.371,0.868,0.745,1.315,1.103L56.342,118.476z
				 M59.562,117.944c-0.485-0.289-0.975-0.603-1.46-0.93l0.238-0.355c0.477,0.32,0.963,0.626,1.442,0.915L59.562,117.944z
				 M84.185,117.731l-0.232-0.364c0.471-0.302,0.945-0.626,1.416-0.961l0.252,0.354C85.146,117.098,84.663,117.424,84.185,117.731z
				 M165.859,117.595l-0.433-0.029l0.111-1.718l0.429,0.03L165.859,117.595z M148.277,116.517c-0.257,0-0.515-0.005-0.773-0.016
				l0.017-0.433c0.562,0.025,1.131,0.023,1.702-0.01l0.022,0.434C148.923,116.507,148.597,116.517,148.277,116.517z
				 M145.765,116.352c-0.565-0.078-1.142-0.18-1.712-0.309l0.1-0.418c0.553,0.124,1.115,0.221,1.67,0.295L145.765,116.352z
				 M150.979,116.326l-0.062-0.424c0.555-0.075,1.118-0.181,1.682-0.306l0.091,0.422
				C152.123,116.146,151.543,116.249,150.979,116.326z M53.738,116.19c-0.419-0.4-0.832-0.813-1.22-1.229l0.306-0.297
				c0.393,0.412,0.8,0.819,1.211,1.216L53.738,116.19z M135.746,116.129c-0.218-0.427-0.541-0.889-0.956-1.361l0.326-0.281
				c0.436,0.499,0.777,0.988,1.016,1.451L135.746,116.129z M56.685,116.023c-0.455-0.338-0.918-0.695-1.367-1.064l0.27-0.335
				c0.447,0.368,0.904,0.72,1.355,1.052L56.685,116.023z M155.63,115.983l-0.084-0.117c-0.229-0.317-0.661-0.455-1.033-0.341
				l-0.142,0.047l-0.127-0.411l0.141-0.047c0.539-0.169,1.17,0.035,1.508,0.498l0.084,0.117L155.63,115.983z M87.001,115.71
				l-0.268-0.336c0.44-0.349,0.879-0.718,1.318-1.099l0.281,0.325C87.892,114.985,87.449,115.358,87.001,115.71z M142.378,115.591
				c-0.545-0.171-1.103-0.368-1.638-0.587l0.159-0.398c0.533,0.213,1.072,0.408,1.601,0.571L142.378,115.591z M139.153,114.291
				c-0.509-0.251-1.026-0.529-1.53-0.822l0.218-0.371c0.494,0.287,1,0.559,1.502,0.811L139.153,114.291z M166.077,114.154
				l-0.435-0.022l0.113-1.721l0.429,0.028L166.077,114.154z M53.99,113.848c-0.427-0.377-0.855-0.764-1.282-1.161l0.298-0.315
				c0.419,0.394,0.843,0.783,1.266,1.154L53.99,113.848z M51.348,113.675c-0.375-0.441-0.75-0.891-1.096-1.339l0.339-0.263
				c0.345,0.437,0.713,0.886,1.086,1.322L51.348,113.675z M133.595,113.575l-0.122-0.109c-0.301-0.257-0.469-0.633-0.469-1.026
				c0-0.23,0.059-0.462,0.168-0.66l0.378,0.21c-0.075,0.136-0.117,0.292-0.117,0.45c0,0.27,0.117,0.527,0.323,0.704l0.125,0.109
				L133.595,113.575z M89.604,113.43l-0.295-0.311c0.406-0.39,0.813-0.795,1.215-1.212l0.308,0.302
				C90.429,112.628,90.013,113.039,89.604,113.43z M136.147,112.552c-0.408-0.272-0.82-0.562-1.224-0.862
				c-0.055-0.038-0.104-0.07-0.161-0.096l0.175-0.393c0.089,0.041,0.168,0.087,0.242,0.141c0.4,0.295,0.807,0.582,1.21,0.852
				L136.147,112.552z M146.199,112.457c-0.575-0.002-1.154-0.018-1.736-0.049l0.026-0.431c0.569,0.035,1.145,0.047,1.712,0.049
				L146.199,112.457z M147.931,112.421l-0.021-0.432c0.569-0.031,1.146-0.077,1.704-0.137l0.05,0.429
				C149.091,112.345,148.513,112.387,147.931,112.421z M142.737,112.272c-0.562-0.062-1.144-0.134-1.715-0.225l0.063-0.427
				c0.566,0.086,1.136,0.163,1.699,0.221L142.737,112.272z M151.38,112.043l-0.07-0.424c0.561-0.092,1.122-0.209,1.671-0.336
				l0.099,0.417C152.526,111.832,151.951,111.949,151.38,112.043z M139.315,111.751c-0.566-0.114-1.134-0.238-1.692-0.373l0.1-0.423
				c0.554,0.139,1.121,0.26,1.675,0.372L139.315,111.751z M51.468,111.479c-0.401-0.399-0.807-0.816-1.198-1.239l0.312-0.299
				c0.395,0.424,0.798,0.838,1.194,1.237L51.468,111.479z M154.756,111.257l-0.122-0.413c0.547-0.165,1.093-0.346,1.614-0.546
				l0.153,0.402C155.864,110.9,155.312,111.087,154.756,111.257z M92.014,110.939l-0.322-0.286c0.379-0.421,0.753-0.861,1.124-1.3
				l0.322,0.277C92.771,110.071,92.388,110.515,92.014,110.939z M49.221,110.939c-0.352-0.507-0.67-1.004-0.944-1.462l0.375-0.22
				c0.271,0.453,0.576,0.935,0.922,1.433L49.221,110.939z M135.946,110.935c-0.549-0.158-1.103-0.331-1.65-0.515l0.133-0.411
				c0.545,0.182,1.093,0.355,1.64,0.511L135.946,110.935z M166.295,110.719l-0.429-0.028l0.105-1.719l0.435,0.029L166.295,110.719z
				 M158.005,110.041l-0.173-0.392c0.515-0.232,1.033-0.485,1.533-0.752l0.201,0.381
				C159.061,109.548,158.533,109.802,158.005,110.041z M132.661,109.842c-0.105-0.043-0.206-0.078-0.312-0.122
				c-0.43-0.162-0.862-0.345-1.297-0.53l0.175-0.393c0.422,0.182,0.852,0.36,1.281,0.524c0.102,0.04,0.204,0.076,0.305,0.117
				L132.661,109.842z M43.093,109.115c-0.239,0-0.477-0.032-0.696-0.092l0.118-0.415c0.227,0.065,0.438,0.078,0.578,0.078
				c0.321,0,0.659-0.066,0.971-0.191l0.16,0.404C43.854,109.04,43.469,109.115,43.093,109.115z M49.1,108.963
				c-0.16-0.187-0.318-0.366-0.483-0.552c-0.216-0.25-0.336-0.565-0.336-0.896c0-0.067,0.006-0.134,0.021-0.201l0.426,0.063
				c-0.009,0.046-0.012,0.092-0.012,0.138c0,0.227,0.08,0.441,0.228,0.614c0.157,0.184,0.322,0.364,0.48,0.548L49.1,108.963z
				 M129.476,108.478c-0.547-0.268-1.07-0.534-1.543-0.798l0.214-0.376c0.461,0.258,0.977,0.519,1.516,0.782L129.476,108.478z
				 M161.069,108.411l-0.223-0.364c0.206-0.131,0.413-0.262,0.622-0.396c0.269-0.181,0.539-0.362,0.801-0.549l0.248,0.351
				c-0.264,0.191-0.536,0.374-0.81,0.558C161.493,108.147,161.282,108.282,161.069,108.411z M47.299,108.344
				c-0.065-0.015-0.129-0.024-0.195-0.024l0,0c0,0-0.481-0.018-1.091-0.178c-0.113-0.033-0.226-0.042-0.343-0.029l-0.048-0.428
				c0.169-0.019,0.336-0.005,0.505,0.037c0.552,0.15,0.983,0.164,0.986,0.164c0.102,0.003,0.192,0.016,0.283,0.04L47.299,108.344z
				 M94.226,108.282l-0.34-0.265c0.354-0.449,0.702-0.911,1.035-1.369l0.351,0.255C94.933,107.367,94.577,107.827,94.226,108.282z
				 M40.999,107.812c-0.12-0.291-0.209-0.635-0.243-1.014c-0.007-0.107-0.014-0.216-0.014-0.314c0-0.168,0.012-0.329,0.032-0.479
				l0.424,0.064c-0.016,0.127-0.024,0.266-0.024,0.414c0,0.088,0.002,0.181,0.011,0.279c0.033,0.33,0.105,0.624,0.211,0.875
				L40.999,107.812z M167.117,107.7l-0.292-0.315c0.413-0.385,0.828-0.786,1.237-1.188l0.3,0.305
				C167.952,106.911,167.533,107.313,167.117,107.7z M126.447,106.771c-0.473-0.326-0.803-0.612-0.981-0.852
				c-0.094-0.123-0.192-0.267-0.286-0.425l0.365-0.22c0.093,0.143,0.18,0.274,0.266,0.392c0.104,0.136,0.341,0.378,0.879,0.752
				L126.447,106.771z M163.904,106.403l-0.272-0.334c0.438-0.357,0.877-0.73,1.3-1.114l0.288,0.319
				C164.793,105.666,164.347,106.044,163.904,106.403z M49.555,105.992l-0.354-0.241c0.331-0.475,0.666-0.947,1.001-1.411
				l0.35,0.257C50.216,105.056,49.88,105.526,49.555,105.992z M96.266,105.487l-0.354-0.246c0.32-0.469,0.635-0.954,0.944-1.432
				l0.361,0.231C96.91,104.526,96.589,105.013,96.266,105.487z M169.573,105.262l-0.309-0.297c0.383-0.412,0.776-0.834,1.161-1.262
				l0.316,0.287C170.361,104.419,169.967,104.848,169.573,105.262z M42.001,104.819l-0.223-0.366
				c0.427-0.257,0.956-0.384,1.523-0.391c0.092,0,0.176,0.005,0.263,0.009l-0.03,0.43c-0.085-0.004-0.159-0.012-0.24-0.01
				C42.805,104.491,42.354,104.606,42.001,104.819z M45.334,104.4l-0.255-0.347c0.065-0.05,0.127-0.109,0.178-0.175
				c0.295-0.372,0.596-0.742,0.893-1.104l0.332,0.272c-0.295,0.362-0.594,0.729-0.887,1.1
				C45.522,104.244,45.433,104.33,45.334,104.4z M166.471,104.067l-0.312-0.299c0.396-0.403,0.786-0.824,1.165-1.258l0.324,0.284
				C167.263,103.233,166.864,103.658,166.471,104.067z M124.407,103.92c-0.214-0.513-0.406-1.068-0.582-1.641l0.41-0.127
				c0.174,0.562,0.357,1.104,0.567,1.604L124.407,103.92z M51.577,103.22l-0.341-0.259c0.356-0.464,0.711-0.923,1.072-1.36
				l0.331,0.274C52.285,102.309,51.93,102.764,51.577,103.22z M171.88,102.687l-0.328-0.28c0.368-0.436,0.733-0.88,1.09-1.329
				l0.335,0.271C172.618,101.797,172.247,102.245,171.88,102.687z M98.125,102.564l-0.373-0.215c0.534-0.915,0.82-1.476,0.832-1.497
				l0.386,0.194C98.943,101.11,98.654,101.658,98.125,102.564z M47.587,101.734l-0.325-0.28c0.38-0.44,0.767-0.872,1.146-1.293
				l0.319,0.291C48.347,100.866,47.965,101.304,47.587,101.734z M168.757,101.468l-0.338-0.271c0.352-0.438,0.696-0.9,1.031-1.364
				l0.352,0.251C169.462,100.556,169.111,101.017,168.757,101.468z M99.076,100.766l-0.422-0.106
				c0.027-0.073,0.034-0.153,0.034-0.229c0-0.222-0.077-0.435-0.216-0.602c-0.029-0.029-0.167-0.194-0.417-0.469l0.312-0.289
				c0.264,0.282,0.406,0.45,0.43,0.481c0.208,0.243,0.319,0.556,0.319,0.878C99.117,100.541,99.103,100.656,99.076,100.766z
				 M123.398,100.586c-0.127-0.617-0.211-1.201-0.249-1.729l0.434-0.034c0.033,0.515,0.112,1.078,0.237,1.679L123.398,100.586z
				 M53.747,100.559l-0.327-0.282c0.376-0.437,0.765-0.87,1.152-1.286l0.312,0.289C54.506,99.694,54.119,100.123,53.747,100.559z
				 M174.044,99.987l-0.343-0.26c0.343-0.448,0.687-0.912,1.027-1.381l0.347,0.256C174.733,99.07,174.388,99.539,174.044,99.987z
				 M49.896,99.197l-0.307-0.302c0.401-0.42,0.811-0.835,1.209-1.23l0.306,0.311C50.705,98.362,50.3,98.773,49.896,99.197z
				 M170.78,98.655l-0.358-0.236c0.307-0.473,0.614-0.961,0.905-1.454l0.367,0.221C171.401,97.681,171.086,98.18,170.78,98.655z
				 M96.859,98.133c-0.402-0.391-0.82-0.78-1.252-1.165l0.286-0.323c0.434,0.388,0.859,0.787,1.265,1.18L96.859,98.133z
				 M56.074,98.041l-0.31-0.304c0.408-0.413,0.827-0.818,1.245-1.208l0.291,0.317C56.891,97.23,56.478,97.633,56.074,98.041z
				 M176.074,97.186l-0.358-0.245c0.332-0.481,0.653-0.962,0.953-1.426l0.364,0.234C176.728,96.221,176.402,96.701,176.074,97.186z
				 M123.654,97.169l-0.428-0.096c0.06-0.254,0.137-0.485,0.24-0.676c0.098-0.186,0.309-0.53,0.567-0.92l0.358,0.233
				c-0.293,0.45-0.476,0.75-0.55,0.884C123.764,96.756,123.698,96.944,123.654,97.169z M52.343,96.785l-0.293-0.316
				c0.424-0.391,0.854-0.78,1.286-1.158l0.281,0.325C53.188,96.008,52.761,96.395,52.343,96.785z M94.299,95.857
				c-0.437-0.36-0.894-0.711-1.355-1.053l0.26-0.348c0.465,0.348,0.928,0.703,1.365,1.066L94.299,95.857z M58.579,95.699
				l-0.282-0.324c0.441-0.381,0.892-0.752,1.336-1.101l0.266,0.337C59.461,94.959,59.012,95.326,58.579,95.699z M172.552,95.684
				l-0.38-0.206c0.271-0.494,0.538-1.007,0.796-1.521l0.387,0.188C173.095,94.668,172.822,95.186,172.552,95.684z M100.915,95.458
				c-0.199-0.015-0.392-0.07-0.572-0.166c-0.012-0.01-0.395-0.213-1.076-0.577l0.203-0.383c0.688,0.369,1.07,0.577,1.079,0.581
				c0.122,0.068,0.254,0.103,0.39,0.111L100.915,95.458z M184.376,95.205c-0.258,0-0.517-0.02-0.765-0.063l0.072-0.425
				c0.229,0.035,0.457,0.058,0.692,0.058c0.002,0,0.004,0,0.004,0c0.314,0,0.629-0.036,0.931-0.104l0.099,0.417
				C185.072,95.165,184.721,95.2,184.376,95.205z M118.213,94.963l-0.106-0.417c0.236-0.055,0.432-0.199,0.565-0.4
				c0.157-0.236,0.312-0.479,0.471-0.713l0.359,0.239c-0.162,0.237-0.314,0.469-0.464,0.708
				C118.843,94.675,118.553,94.884,118.213,94.963z M102.496,94.546l-0.284-0.322c0.428-0.376,0.902-0.73,1.401-1.053l0.237,0.36
				C103.362,93.846,102.907,94.185,102.496,94.546z M54.928,94.529l-0.274-0.334c0.453-0.367,0.905-0.729,1.36-1.072l0.26,0.343
				C55.825,93.805,55.376,94.166,54.928,94.529z M181.946,94.438c-0.271-0.204-0.516-0.446-0.715-0.724
				c-0.119-0.164-0.3-0.289-0.501-0.345l0.117-0.414c0.292,0.079,0.556,0.261,0.733,0.506c0.176,0.241,0.385,0.453,0.627,0.634
				L181.946,94.438z M187.047,94.343l-0.259-0.345c0.136-0.1,0.263-0.214,0.382-0.332c0.378-0.38,0.651-0.843,0.819-1.375
				l0.412,0.124c-0.188,0.604-0.5,1.129-0.928,1.558C187.344,94.102,187.198,94.229,187.047,94.343z M116.495,94.323
				c-0.471-0.332-0.961-0.633-1.44-0.9l0.21-0.377c0.496,0.272,0.992,0.583,1.479,0.927L116.495,94.323z M125.377,94.309
				l-0.347-0.254c0.333-0.456,0.685-0.919,1.048-1.374l0.335,0.267C126.057,93.397,125.708,93.856,125.377,94.309z M177.949,94.276
				l-0.367-0.22c0.111-0.193,0.175-0.301,0.195-0.329c0.264-0.473,0.779-0.748,1.331-0.688l-0.048,0.427
				c-0.37-0.033-0.727,0.151-0.911,0.469C178.135,93.968,178.067,94.087,177.949,94.276z M97.75,93.907
				c-0.46-0.243-0.968-0.512-1.524-0.803l0.2-0.383c0.559,0.293,1.063,0.562,1.523,0.802L97.75,93.907z M91.552,93.811
				c-0.473-0.317-0.958-0.631-1.44-0.922l0.223-0.372c0.488,0.302,0.981,0.615,1.462,0.938L91.552,93.811z M61.27,93.587
				l-0.25-0.349c0.474-0.338,0.964-0.663,1.441-0.967l0.23,0.363C62.217,92.939,61.739,93.257,61.27,93.587z M105.331,92.731
				l-0.173-0.394c0.539-0.244,1.096-0.443,1.652-0.591l0.113,0.415C106.388,92.305,105.852,92.492,105.331,92.731z M113.531,92.685
				c-0.537-0.219-1.077-0.396-1.609-0.529l0.107-0.418c0.552,0.139,1.11,0.326,1.663,0.55L113.531,92.685z M174.1,92.585
				l-0.392-0.177c0.229-0.514,0.465-1.037,0.688-1.571c0.049-0.115,0.072-0.238,0.072-0.364l-0.003-0.032l0.429-0.017l0.003,0.049
				c0,0.184-0.034,0.361-0.103,0.528C174.563,91.538,174.335,92.071,174.1,92.585z M57.657,92.456l-0.249-0.355
				c0.471-0.33,0.953-0.657,1.436-0.966l0.233,0.36C58.604,91.804,58.123,92.126,57.657,92.456z M94.694,92.311
				c-0.484-0.25-0.993-0.512-1.527-0.786l0.196-0.387c0.529,0.274,1.043,0.538,1.528,0.793L94.694,92.311z M120.491,92.282
				l-0.345-0.261c0.343-0.452,0.698-0.909,1.069-1.363l0.333,0.272C121.183,91.378,120.828,91.828,120.491,92.282z M88.628,92.032
				c-0.504-0.274-1.021-0.53-1.524-0.772l0.18-0.393c0.519,0.247,1.043,0.511,1.551,0.787L88.628,92.032z M110.262,91.874
				c-0.559-0.053-1.132-0.053-1.684,0l-0.034-0.433c0.577-0.049,1.17-0.049,1.753,0.002L110.262,91.874z M64.164,91.763
				l-0.209-0.375c0.504-0.281,1.024-0.548,1.537-0.796l0.188,0.392C65.169,91.223,64.659,91.484,64.164,91.763z M127.503,91.618
				l-0.327-0.279c0.375-0.435,0.754-0.874,1.146-1.297l0.32,0.289C128.253,90.757,127.877,91.188,127.503,91.618z M179.91,91.294
				l-0.083-0.427c0.02-0.002,0.04-0.007,0.065-0.014c0.343-0.092,0.598-0.366,0.671-0.719c0.023-0.125,0.051-0.252,0.09-0.376
				l0.412,0.124c-0.035,0.105-0.059,0.221-0.082,0.337c-0.104,0.509-0.476,0.913-0.98,1.052
				C179.973,91.275,179.939,91.285,179.91,91.294z M91.631,90.741c-0.406-0.206-0.818-0.417-1.24-0.635l-0.293-0.15l0.194-0.387
				l0.295,0.152c0.42,0.22,0.835,0.431,1.235,0.636L91.631,90.741z M188.127,90.679c-0.075-0.57-0.256-1.087-0.532-1.524
				l0.363-0.229c0.312,0.491,0.512,1.06,0.596,1.7L188.127,90.679z M60.533,90.594l-0.218-0.367
				c0.497-0.302,1.011-0.587,1.508-0.854l0.204,0.382C61.532,90.019,61.031,90.304,60.533,90.594z M85.54,90.567
				c-0.533-0.217-1.071-0.418-1.604-0.598l0.138-0.407c0.539,0.184,1.086,0.388,1.625,0.607L85.54,90.567z M178.272,90.467
				c-0.384-0.422-0.778-0.842-1.169-1.249l0.307-0.296c0.396,0.407,0.795,0.832,1.185,1.257L178.272,90.467z M67.244,90.299
				l-0.16-0.401c0.541-0.216,1.091-0.415,1.635-0.589l0.132,0.408C68.317,89.891,67.776,90.087,67.244,90.299z M122.66,89.63
				l-0.321-0.285c0.378-0.421,0.771-0.853,1.18-1.274l0.307,0.299C123.422,88.787,123.029,89.213,122.66,89.63z M82.303,89.47
				c-0.55-0.153-1.11-0.286-1.66-0.396l0.084-0.423c0.561,0.111,1.131,0.246,1.69,0.404L82.303,89.47z M70.493,89.252l-0.106-0.419
				c0.562-0.136,1.138-0.252,1.703-0.35l0.07,0.426C71.604,89.004,71.044,89.119,70.493,89.252z M173.574,89.225
				c-0.414-0.394-0.838-0.779-1.271-1.158l0.286-0.324c0.435,0.383,0.861,0.773,1.277,1.167L173.574,89.225z M88.562,89.172
				c-0.558-0.278-1.063-0.521-1.545-0.747l0.183-0.39c0.485,0.229,0.997,0.476,1.555,0.752L88.562,89.172z M129.82,89.088
				l-0.306-0.301c0.409-0.412,0.824-0.82,1.236-1.211l0.292,0.311C130.636,88.274,130.223,88.678,129.82,89.088z M78.959,88.792
				c-0.565-0.072-1.14-0.128-1.7-0.163l0.023-0.427c0.575,0.03,1.153,0.084,1.733,0.162L78.959,88.792z M73.854,88.69l-0.044-0.43
				c0.578-0.054,1.159-0.082,1.738-0.092l0.007,0.429C74.99,88.608,74.415,88.637,73.854,88.69z M181.881,88.516l-0.3-0.312
				c0.427-0.413,0.957-0.716,1.569-0.901l0.12,0.411C182.725,87.879,182.254,88.147,181.881,88.516z M63.065,88.272L62.639,88.2
				c0.077-0.458,0.183-1.027,0.316-1.7l0.42,0.082C63.246,87.25,63.144,87.818,63.065,88.272z M186.437,88.048
				c-0.455-0.264-0.992-0.434-1.548-0.489l0.048-0.431c0.616,0.063,1.209,0.254,1.715,0.544L186.437,88.048z M175.892,87.998
				c-0.411-0.403-0.83-0.8-1.242-1.178l0.288-0.317c0.417,0.383,0.838,0.787,1.253,1.189L175.892,87.998z M85.447,87.733
				c-0.546-0.225-1.081-0.435-1.591-0.615L84,86.711c0.521,0.186,1.063,0.395,1.617,0.623L85.447,87.733z M125.037,87.158
				l-0.299-0.311c0.412-0.399,0.839-0.796,1.265-1.181l0.283,0.32C125.865,86.366,125.445,86.763,125.037,87.158z M171.005,86.952
				c-0.44-0.368-0.894-0.727-1.339-1.071l0.261-0.339c0.453,0.346,0.91,0.706,1.351,1.076L171.005,86.952z M132.317,86.737
				l-0.281-0.321c0.434-0.383,0.884-0.754,1.326-1.107l0.269,0.332C133.191,85.995,132.745,86.362,132.317,86.737z M82.312,86.191
				c-0.336-0.451-0.658-0.935-0.976-1.443l0.363-0.225c0.311,0.493,0.636,0.968,0.956,1.411L82.312,86.191z M173.363,85.685
				c-0.438-0.373-0.882-0.743-1.321-1.095l0.267-0.336c0.448,0.354,0.891,0.726,1.334,1.102L173.363,85.685z M63.72,84.9
				l-0.42-0.093c0.115-0.529,0.241-1.093,0.377-1.685l0.421,0.097C63.959,83.812,63.835,84.374,63.72,84.9z M168.287,84.86
				c-0.473-0.334-0.949-0.663-1.418-0.963l0.239-0.364c0.47,0.309,0.952,0.639,1.429,0.977L168.287,84.86z M127.58,84.858
				l-0.276-0.328c0.435-0.366,0.884-0.736,1.345-1.095l0.267,0.338C128.457,84.13,128.015,84.5,127.58,84.858z M134.994,84.604
				l-0.256-0.35c0.471-0.34,0.95-0.673,1.426-0.982l0.239,0.361C135.935,83.938,135.458,84.263,134.994,84.604z M170.682,83.546
				c-0.454-0.341-0.926-0.677-1.393-0.999l0.246-0.354c0.467,0.325,0.939,0.66,1.403,1.004L170.682,83.546z M80.474,83.243
				c-0.264-0.496-0.516-1.021-0.763-1.562l0.395-0.176c0.238,0.529,0.491,1.046,0.75,1.534L80.474,83.243z M165.416,82.994
				c-0.491-0.295-0.999-0.574-1.496-0.836l0.202-0.38c0.501,0.267,1.012,0.551,1.509,0.844L165.416,82.994z M130.275,82.729
				l-0.259-0.344c0.463-0.346,0.934-0.683,1.402-1.015l0.246,0.354C131.195,82.052,130.734,82.388,130.275,82.729z M137.854,82.729
				l-0.216-0.374c0.499-0.293,1.013-0.574,1.517-0.836l0.196,0.381C138.856,82.158,138.356,82.434,137.854,82.729z M167.858,81.603
				c-0.484-0.301-0.975-0.601-1.47-0.884l0.221-0.371c0.492,0.284,0.989,0.584,1.478,0.894L167.858,81.603z M64.503,81.548
				l-0.418-0.104c0.131-0.54,0.282-1.097,0.435-1.674l0.414,0.116C64.782,80.454,64.637,81.01,64.503,81.548z M162.39,81.4
				c-0.525-0.239-1.055-0.469-1.571-0.675l0.157-0.401c0.528,0.21,1.059,0.441,1.591,0.686L162.39,81.4z M140.895,81.158
				l-0.178-0.393c0.532-0.239,1.072-0.463,1.606-0.663l0.152,0.402C141.948,80.705,141.413,80.923,140.895,81.158z M133.086,80.758
				l-0.234-0.363c0.478-0.312,0.968-0.628,1.454-0.927l0.225,0.364C134.047,80.133,133.562,80.443,133.086,80.758z M159.208,80.144
				c-0.547-0.18-1.095-0.34-1.639-0.48l0.107-0.421c0.548,0.146,1.114,0.311,1.665,0.493L159.208,80.144z M79.04,80.089
				c-0.208-0.531-0.404-1.077-0.59-1.628l0.408-0.141c0.182,0.549,0.38,1.088,0.581,1.608L79.04,80.089z M144.094,79.95l-0.13-0.408
				c0.559-0.176,1.117-0.328,1.68-0.46l0.098,0.418C145.192,79.63,144.639,79.78,144.094,79.95z M164.888,79.894
				c-0.501-0.266-1.02-0.525-1.53-0.766l0.184-0.391c0.518,0.247,1.041,0.505,1.549,0.771L164.888,79.894z M155.902,79.282
				c-0.559-0.108-1.123-0.197-1.683-0.266l0.049-0.425c0.571,0.068,1.148,0.157,1.717,0.269L155.902,79.282z M147.418,79.162
				l-0.07-0.425c0.569-0.094,1.149-0.167,1.721-0.221l0.041,0.425C148.546,78.996,147.976,79.073,147.418,79.162z M152.52,78.871
				c-0.565-0.026-1.138-0.039-1.706-0.023l-0.014-0.434c0.582-0.012,1.163-0.002,1.74,0.027L152.52,78.871z M161.794,78.431
				c-0.527-0.226-1.065-0.437-1.598-0.634l0.155-0.405c0.537,0.2,1.074,0.412,1.608,0.639L161.794,78.431z M65.401,78.232
				l-0.415-0.12c0.156-0.545,0.324-1.096,0.499-1.655l0.41,0.126C65.725,77.143,65.558,77.691,65.401,78.232z M134.678,78.21
				c-0.154-0.479-0.328-1.027-0.535-1.637l0.409-0.138c0.204,0.613,0.381,1.165,0.534,1.643L134.678,78.21z M158.584,77.237
				c-0.543-0.174-1.095-0.338-1.644-0.485l0.11-0.419c0.556,0.153,1.117,0.315,1.667,0.496L158.584,77.237z M77.925,76.81
				c-0.166-0.545-0.318-1.103-0.464-1.671l0.414-0.104c0.146,0.559,0.303,1.114,0.463,1.651L77.925,76.81z M155.275,76.338
				c-0.557-0.123-1.119-0.238-1.681-0.334l0.075-0.423c0.567,0.097,1.138,0.214,1.696,0.338L155.275,76.338z M151.907,75.745
				c-0.567-0.072-1.139-0.13-1.702-0.175l0.031-0.432c0.568,0.05,1.15,0.107,1.72,0.182L151.907,75.745z M66.425,74.949
				l-0.407-0.137c0.185-0.549,0.372-1.097,0.567-1.63l0.402,0.147C66.795,73.858,66.611,74.404,66.425,74.949z M133.575,74.946
				c-0.178-0.508-0.372-1.05-0.58-1.613l0.402-0.15c0.209,0.564,0.408,1.109,0.586,1.621L133.575,74.946z M148.555,74.809
				c-0.302-0.446-0.638-0.917-0.994-1.393l0.345-0.259c0.358,0.481,0.698,0.954,1.011,1.408L148.555,74.809z M77.053,73.459
				c-0.125-0.542-0.246-1.112-0.358-1.688l0.422-0.088c0.115,0.577,0.229,1.141,0.354,1.684L77.053,73.459z M146.503,72.064
				c-0.352-0.435-0.719-0.879-1.102-1.315l0.328-0.28c0.377,0.438,0.756,0.888,1.108,1.325L146.503,72.064z M132.38,71.724
				c-0.201-0.523-0.414-1.053-0.64-1.597l0.397-0.164c0.229,0.548,0.441,1.082,0.644,1.607L132.38,71.724z M67.593,71.721
				l-0.401-0.156c0.212-0.541,0.428-1.082,0.648-1.602l0.399,0.167C68.017,70.645,67.801,71.181,67.593,71.721z M76.38,70.071
				c-0.055-0.297-0.098-0.592-0.147-0.889c-0.048-0.274-0.086-0.545-0.13-0.817l0.43-0.062c0.038,0.268,0.082,0.537,0.124,0.809
				c0.049,0.299,0.099,0.592,0.146,0.887L76.38,70.071z M144.259,69.468c-0.377-0.416-0.772-0.835-1.174-1.249l0.312-0.301
				c0.396,0.414,0.797,0.836,1.185,1.261L144.259,69.468z M68.925,68.554l-0.395-0.177c0.238-0.527,0.488-1.057,0.741-1.561
				l0.384,0.188C69.41,67.51,69.159,68.031,68.925,68.554z M131.079,68.536c-0.226-0.514-0.452-1.04-0.694-1.572l0.395-0.177
				c0.243,0.53,0.471,1.061,0.69,1.582L131.079,68.536z M141.875,66.998c-0.408-0.4-0.824-0.802-1.24-1.19l0.295-0.317
				c0.419,0.395,0.84,0.796,1.248,1.199L141.875,66.998z M75.871,66.656c-0.074-0.599-0.141-1.172-0.199-1.719l0.427-0.044
				c0.059,0.543,0.125,1.113,0.199,1.706L75.871,66.656z M70.443,65.479l-0.38-0.204c0.277-0.514,0.568-1.022,0.854-1.508
				l0.367,0.218C71.002,64.467,70.718,64.972,70.443,65.479z M129.667,65.402c-0.244-0.514-0.489-1.029-0.748-1.551l0.389-0.189
				c0.254,0.519,0.505,1.042,0.752,1.556L129.667,65.402z M139.369,64.643c-0.411-0.372-0.842-0.75-1.282-1.137l0.281-0.323
				c0.442,0.387,0.877,0.767,1.295,1.139L139.369,64.643z M75.507,63.218c-0.049-0.586-0.09-1.163-0.129-1.725l0.435-0.027
				c0.033,0.559,0.075,1.134,0.127,1.717L75.507,63.218z M72.195,62.535L71.831,62.3c0.321-0.494,0.655-0.975,0.987-1.426
				l0.347,0.251C72.838,61.575,72.509,62.05,72.195,62.535z M136.771,62.397c-0.431-0.354-0.877-0.72-1.331-1.082l0.269-0.34
				c0.456,0.368,0.904,0.731,1.335,1.09L136.771,62.397z M128.134,62.324c-0.264-0.516-0.544-1.022-0.815-1.514l0.378-0.206
				c0.273,0.491,0.55,0.999,0.822,1.521L128.134,62.324z M134.087,60.257c-0.45-0.343-0.907-0.689-1.374-1.035l0.25-0.347
				c0.475,0.347,0.934,0.694,1.387,1.039L134.087,60.257z M74.214,59.778l-0.334-0.276c0.097-0.11,0.187-0.224,0.283-0.329
				c0.143-0.172,0.222-0.384,0.222-0.608c0-0.053-0.004-0.111-0.014-0.17c-0.02-0.07-0.04-0.144-0.067-0.209l0.388-0.174
				c0.048,0.097,0.083,0.201,0.102,0.306c0.015,0.081,0.019,0.162,0.019,0.247c0,0.323-0.115,0.639-0.324,0.887
				C74.396,59.555,74.308,59.667,74.214,59.778z M75.294,59.766c-0.016-0.487-0.019-0.771-0.019-0.817
				c0-0.37,0.142-0.715,0.396-0.977l0.305,0.302c-0.173,0.18-0.274,0.42-0.274,0.672c0,0.042,0.005,0.323,0.021,0.805L75.294,59.766
				z M126.468,59.321c-0.293-0.502-0.599-0.995-0.896-1.469l0.363-0.227c0.304,0.478,0.604,0.973,0.899,1.477L126.468,59.321z
				 M131.32,58.213c-0.462-0.328-0.926-0.657-1.408-0.988l0.245-0.354c0.48,0.335,0.952,0.662,1.414,0.987L131.32,58.213z
				 M77.503,57.754l-0.157-0.404c0.406-0.146,0.958-0.424,1.322-0.882l0.339,0.268C78.668,57.163,78.159,57.506,77.503,57.754z
				 M73.093,57.064c-0.445-0.581-0.534-1.229-0.534-1.676v-0.077l0.429,0.007v0.07c0,0.381,0.078,0.933,0.446,1.414L73.093,57.064z
				 M124.632,56.418c-0.326-0.48-0.659-0.952-0.99-1.398l0.345-0.256c0.336,0.451,0.67,0.93,1.002,1.415L124.632,56.418z
				 M128.49,56.264c-0.469-0.314-0.948-0.627-1.438-0.943l0.23-0.361c0.49,0.312,0.973,0.629,1.444,0.944L128.49,56.264z
				 M79.592,54.999l-0.427-0.02c0.002-0.064,0.002-0.132,0.002-0.198c0-0.49-0.1-0.978-0.29-1.374l0.387-0.187
				c0.221,0.459,0.335,1,0.335,1.561C79.599,54.854,79.597,54.929,79.592,54.999z M125.598,54.4l-0.363-0.226
				c-0.356-0.221-0.599-0.604-0.644-1.022c-0.005-0.044-0.007-0.089-0.007-0.139c0-0.052,0.002-0.096,0.007-0.145l0.433,0.046
				c-0.005,0.031-0.005,0.064-0.005,0.099s0,0.063,0.005,0.098c0.028,0.287,0.193,0.547,0.436,0.698l0.364,0.227L125.598,54.4z
				 M121.663,54.315c-0.34,0-0.672-0.062-0.976-0.175l0.15-0.401c0.441,0.165,0.927,0.192,1.438,0.077
				c0.054-0.01,0.107-0.02,0.164-0.025l0.04,0.43c-0.035,0.003-0.073,0.007-0.108,0.016
				C122.13,54.289,121.896,54.315,121.663,54.315z M73.454,53.802l-0.363-0.233c0.329-0.519,0.767-0.935,1.312-1.241l0.211,0.375
				C74.131,52.972,73.742,53.342,73.454,53.802z M119.268,52.996c-0.238-0.341-0.432-0.732-0.557-1.134
				c-0.055-0.169-0.1-0.352-0.13-0.537l0.421-0.074c0.031,0.168,0.068,0.33,0.118,0.482c0.114,0.362,0.285,0.711,0.499,1.013
				L119.268,52.996z M77.77,52.368c-0.236-0.091-0.506-0.143-0.796-0.163c-0.271-0.009-0.549-0.005-0.805,0.024l-0.05-0.431
				c0.278-0.025,0.572-0.037,0.877-0.022c0.338,0.018,0.649,0.084,0.927,0.189L77.77,52.368z M125.909,51.567l-0.38-0.207
				c0.195-0.361,0.294-0.762,0.294-1.197c0-0.11-0.008-0.228-0.02-0.343l0.428-0.052c0.019,0.133,0.025,0.265,0.025,0.395
				C126.257,50.669,126.136,51.142,125.909,51.567z M119.052,49.633l-0.42-0.104c0.147-0.593,0.42-1.135,0.813-1.612l0.334,0.276
				C119.422,48.622,119.181,49.105,119.052,49.633z M125.248,48.309c-0.309-0.472-0.7-0.865-1.148-1.136l0.223-0.365
				c0.505,0.304,0.947,0.743,1.284,1.269L125.248,48.309z M121.037,47.159l-0.209-0.375c0.582-0.315,1.168-0.474,1.75-0.476
				l0.002,0.429C122.068,46.739,121.554,46.88,121.037,47.159z"/>
		</g>
		<path d="M108.413,96.271c-6.583,2.127-9.92,15.475-9.854,17.438c-6.373,2.102-5.63,11.511,1.963,11.379
			c9.354,6.682,22.499,0.602,25.838-3.336c8.491-1.199,9.266-14.272-0.98-13.155C124.038,104.361,115.765,93.596,108.413,96.271z"/>
		<path fill="#B28646" d="M108.991,97.976c-7.352,2.671-8.913,16.928-8.913,16.928s-2.671,0.622-3.433,3.103
			c-0.8,2.597,0.647,5.823,4.551,5.365c9.354,6.68,20.938,0.222,24.278-2.9c6.02-0.67,9.137-10.913-1.11-9.799
			C123.025,106.439,116.341,95.299,108.991,97.976z"/>
		<path fill="#A7D3C3" d="M164.459,82.083"/>
		<g>
			<path fill="#B28646" d="M173.532,90.473c-27.818-26.916-48.185,5.281-48.859,6.563c-0.677,1.282,0.526,6.259,1.883,8.064
				C127.914,106.914,159.433,124.104,173.532,90.473z"/>
		</g>
		<path fill="#31738B" d="M129.527,93.211c0.173-1.523,7.497,14.848,7.497,14.848h-5.27c0,0-4.417-1.61-5.675-4.451
			c-2.445-2.935-1.407-6.571-1.407-6.571l4.854-6.028C130.92,89.946,129.527,93.211,129.527,93.211z"/>
		<path d="M124.673,97.036c7.54-11.654,17.431-16.166,24.81-16.956c14.152-1.525,24.05,10.393,24.05,10.393
			S149.349,69.6,124.673,97.036z"/>
		<path fill="#31738B" d="M139.533,107.715c0.752-0.097,1.502-0.191,2.254-0.302c3.537-0.52,7.038-1.207,10.526-2.033
			c3.731-0.879,7.434-1.908,11.123-2.949c1.829-2.773,2.901-6.089,2.901-9.659c0-3.585-1.076-6.915-2.919-9.693
			c-2.209,0.555-4.41,1.097-6.603,1.697c-3.622,0.995-7.092,2.282-10.6,3.633c-3.925,1.512-7.894,3.015-11.497,5.123
			c-0.894,0.756-1.829,1.448-2.893,1.908c-0.125,0.094-0.252,0.189-0.375,0.287C132.312,100.787,135.33,105.105,139.533,107.715z"/>
		<path fill="#D7DADD" d="M138.636,109.186c0.743-0.087,1.479-0.182,2.217-0.291c3.486-0.518,6.941-1.194,10.375-2.001
			c3.681-0.868,7.319-1.881,10.96-2.908c1.801-2.732,2.856-6.001,2.856-9.52c0-3.53-1.062-6.815-2.88-9.55
			c-2.172,0.551-4.341,1.082-6.501,1.673c-3.573,0.982-6.989,2.25-10.443,3.581c-3.864,1.49-7.776,2.971-11.325,5.05
			c-0.882,0.741-1.8,1.423-2.854,1.879c-0.124,0.087-0.247,0.186-0.365,0.282C131.518,102.363,134.497,106.624,138.636,109.186z"/>
		<path fill="#B28646" d="M49.646,107.515c28.049,32.272,48.108-7.087,48.108-7.087S73.628,71.7,49.646,107.515z"/>
		<path fill="#31738B" d="M49.646,107.515c2.53-3.614,7.866-8.979,7.866-8.979l6.447,11.728l0.073,6.415l-0.92,0.971
			C63.112,117.648,52.586,111.691,49.646,107.515z"/>
		<path d="M49.646,107.515c27.82,31.994,48.108-7.087,48.108-7.087S76.415,133.954,49.646,107.515z"/>
		<path d="M97.754,100.428c-29.477-16.622-48.108,7.087-48.108,7.087s8.722-14.729,22.291-17.483
			C79.341,88.524,88.691,90.19,97.754,100.428z"/>
		<path fill="#D7DADD" d="M57.539,98.338c-0.15,0.963-0.234,1.954-0.234,2.966c0,10.451,8.474,18.925,18.93,18.925
			c10.454,0,18.925-8.474,18.925-18.925c0-2.748-0.591-5.35-1.639-7.71C91.271,92.527,75.153,81.606,57.539,98.338z"/>
		<polygon fill="#31738B" points="127.138,166.208 128.726,173.757 132.893,172.839 131.946,167.647 		"/>
		<path d="M126.995,164.843c3.155,0,10.909-2.321,11.122-2.096c0.215,0.228,0.79,1.882,0.498,2.812
			c-0.283,0.935-2.583,2.228-2.583,2.228l0.077,2.083c0,0,3.372,1.866,5.812,3.369c1.935,1.437,5.456-2.511,5.456-2.511
			s5.095-1.794,5.31-1.794c0.216,0,1.233,0.07,1.55,0.144c0.188,0.044,5.355-2.832,8.931-6.33c2.543-2.489,3.875-5.94,3.875-5.94
			s-2.155,14.641-5.756,18.589c-2.64,2.942-15.775,8.465-15.775,8.465s-7.681,2.587-13.996,3.093
			c-1.365,1.072-3.229-0.722-3.229-0.722s-4.884-0.859-6.103-2.511c-3.236-0.499-5.812-2.657-5.812-2.657s-4.021-1.937-5.099-4.09
			c-2.654-1.365-5.815-5.098-5.815-5.098s8.973,3.806,10.693,4.452c1.727,0.646,8.544,0.573,8.544,0.573s2.551-2.752,5.882-4.041
			c0.437-1.197-0.07-3.927-0.07-3.927l-3.369-2.726C127.138,166.208,125.823,165.119,126.995,164.843z"/>
		<path fill="#B0B4B7" d="M110.499,97.61c-5.739,4.789-4.277,18.93-3.906,20.62c-1.783,5.407-5.371,1.42-5.371,1.42l-1.144-4.747
			C100.078,114.903,101.96,98.728,110.499,97.61z"/>
		<g>
			<g>
				<path d="M85.073,101.964c-0.349,3.053-3.106,5.242-6.159,4.896c-3.047-0.35-5.242-3.105-4.896-6.157
					c0.353-3.049,3.106-5.24,6.162-4.895C83.23,96.154,85.42,98.909,85.073,101.964z"/>
				<path fill="#31738B" d="M83.385,101.77c-0.189,1.687-1.711,2.897-3.397,2.706c-1.686-0.195-2.892-1.717-2.703-3.4
					c0.192-1.688,1.718-2.894,3.398-2.705C82.37,98.564,83.58,100.088,83.385,101.77z"/>
				<path fill="#D7DADD" d="M86.191,98.374c-0.191,1.684-1.714,2.896-3.4,2.701c-1.68-0.191-2.892-1.713-2.694-3.396
					c0.185-1.686,1.711-2.894,3.397-2.699C85.174,95.165,86.384,96.691,86.191,98.374z"/>
				<path d="M82.072,101.334c0,1.394-1.13,2.524-2.524,2.524c-1.396,0-2.524-1.131-2.524-2.524c0-1.393,1.126-2.525,2.524-2.525
					C80.939,98.809,82.072,99.938,82.072,101.334z"/>
				<path fill="#D7DADD" d="M81.188,100.45c-0.067,0.603-0.614,1.033-1.219,0.966c-0.603-0.07-1.034-0.614-0.966-1.218
					c0.07-0.604,0.614-1.036,1.219-0.968C80.819,99.301,81.256,99.846,81.188,100.45z"/>
			</g>
		</g>
		<g>
			<g>
				<path d="M158.936,95.986c-0.516,4.486-4.562,7.71-9.052,7.194c-4.484-0.509-7.706-4.562-7.195-9.049
					c0.514-4.487,4.564-7.706,9.052-7.197C156.226,87.45,159.444,91.502,158.936,95.986z"/>
				<path fill="#31738B" d="M156.455,95.704c-0.282,2.48-2.521,4.257-4.994,3.976c-2.475-0.287-4.254-2.522-3.971-5
					c0.281-2.476,2.52-4.256,4.996-3.972C154.964,90.99,156.742,93.229,156.455,95.704z"/>
				<path fill="#D7DADD" d="M160.583,90.713c-0.28,2.476-2.52,4.254-4.995,3.971c-2.48-0.283-4.258-2.52-3.977-4.995
					c0.281-2.479,2.521-4.258,5.001-3.97C159.086,85.998,160.865,88.235,160.583,90.713z"/>
				<path d="M154.525,95.059c0,2.05-1.662,3.712-3.712,3.712c-2.054,0-3.712-1.659-3.715-3.712c0-2.047,1.661-3.713,3.715-3.713
					C152.863,91.346,154.523,93.01,154.525,95.059z"/>
				<path fill="#D7DADD" d="M153.223,93.761c-0.101,0.886-0.9,1.521-1.786,1.423c-0.887-0.103-1.527-0.907-1.423-1.793
					c0.1-0.886,0.902-1.52,1.786-1.421C152.688,92.071,153.323,92.874,153.223,93.761z"/>
			</g>
		</g>
		<path d="M134.821,85.856c0,0-12,8.586-5.335,15.548c0.296,0.283,1.044,0.632,1.555,0.484c1.161-1.873,6.912-6.112,10.28-7.748
			C145.382,92.169,134.821,85.856,134.821,85.856z"/>
		<path d="M157.491,78.114c12.089,0.832,12.942,7.438,12.089,9.651c-0.312,0.827-2.263,0.354-5.121,0.723
			c-4.786,0.618-11.265,1.729-10.558,1.55C155.04,89.759,148.964,77.523,157.491,78.114z"/>
		<path fill="#B28646" d="M167.785,86.964c0,0-3.586,0.641-12.745,2.795c-7.65,1.831-15.284,4.875-19.787,7.219
			c-3.188,1.655-4.505,3.049-4.505,3.049s-2.509-2.078-1.868-6.528c0.262-2.075,13.782-22.181,34.886-12.993
			C167.064,83.663,167.785,86.964,167.785,86.964z"/>
		<path d="M64.978,83.681c0,0-13.703,7.77-10.568,19.21c0.2,0.682,0.84,0.839,1.757,0.633c5.479-7.026,16.118-10.769,16.118-10.769
			L64.978,83.681z"/>
		<path d="M88.36,85.4c5.744,2.299,9.394,10.446,6.799,11.778c-3.704,1.899-5.829-3.748-15.201-5.209
			C79.85,90.29,82.619,83.098,88.36,85.4z"/>
		<path fill="#B28646" d="M55.631,101.581c0,0-0.844-3.62,0.98-7.887c1.555-3.639,5.853-9.427,10.808-11.611
			c18.369-6.318,29.337,11.058,26.838,14.282c-1.573,0.936-7.14-5.589-18.529-4.229C64.334,93.493,55.631,101.581,55.631,101.581z"
			/>
		<path d="M81.399,109.862c0,0,8.968,8.767,0,11.875c-11.418,3.952-19.265-0.671-19.265-2.662
			C63.207,112.995,81.399,109.862,81.399,109.862z"/>
		<path fill="#B28646" d="M92.97,108.597c-15.392,0.371-23.438,5.122-26.891,7.951c-1.487,1.219-2.12,2.083-2.12,2.083
			s13.412,11.017,30.161-4.295C96.319,110.223,94.597,109.168,92.97,108.597z"/>
		<path d="M127.991,75.694c-2.263,1.81-2.038,8.674-2.038,8.674s0.833,1.73,2.038,2.11c1.885,0.529,8.479,0.069,12.895-1.586
			c6.82-2.552,15.542-7.277,17.422-7.688c1.838-0.403,6.057,0.92,9.166,0.77c2.115-0.108,3.724-1.752,3.724-1.752
			s1.282-1.733-4.372-2.938c-3.923-6.334-7.737-6.103-8.676-5.806c-9.421,1.658-16.433,4.976-20.356,5.879
			C133.874,74.262,130.255,73.886,127.991,75.694z"/>
		<path d="M89.863,71.055c5.833-1.172,5.976,9.308,2.529,10.312c-6.451,1.998-15.151,0.826-20.663-0.302
			c-3.194-0.652-3.658-0.657-6.467-0.848c-1.905-0.129-6.34,2.99-8.617,4.309c-1.072,0.62-1.208,0-1.208,0s5.202-9.803,8.521-10.429
			c3.312-0.627,15.598,0.524,15.598,0.524S85.035,71.943,89.863,71.055z"/>
		<path d="M124.829,100.768c0,0,0.781,3.146,1.727,4.333c1.146,0.863,15.127,12.853,29.936,5.213
			c5.793-2.992,12.791-8.638,17.041-19.841c-19.268,35.394-45.436,14.902-46.432,14.403
			C126.109,104.38,124.829,100.768,124.829,100.768z"/>
		<path d="M143.716,105.984c0,0-6.37-0.002-10.243-0.732c-1.01-0.179-1.688,0.678-1.718,1.161
			c-0.257,10.265,18.594,6.246,18.594,6.246L143.716,105.984z"/>
		<path fill="#B28646" d="M133.69,106.367c23.189,0.206,32.143-6.598,32.143-6.598s0.488,1.733-2.569,5.484
			c-5.075,5.258-10.337,7.271-14.99,7.705c-12.507,0.456-14.583-3.468-14.583-3.468S132.375,106.637,133.69,106.367z"/>
		<path fill="#B0B4B7" d="M134.525,86.157c-4.267,3.73-5.803,6.455-5.8,8.63c0.002,3.395,1.968,5.239,1.968,5.239
			s0.495-0.627,2.838-2.027C132.598,96.756,130.08,92.019,134.525,86.157z"/>
		<path fill="#31738B" d="M83.782,142.807c0,0,8.036,26.583,9.196,27.912c1.161,1.331,5.312,2.12,5.312,2.12L83.782,142.807z"/>
		<path d="M117.574,129.025"/>
		<g>
			<path fill="#B28646" d="M170.911,131.046c0-6.927-5.619-12.549-12.551-12.549c-6.924,0-12.547,5.622-12.547,12.549
				c0,6.932,5.623,12.551,12.547,12.551C165.292,143.597,170.911,137.978,170.911,131.046z"/>
			<path fill="#31738B" d="M157.147,142.249c0,0-6.019,20.557-32.318,20.498c-6.707,3.637-12.828-1.098-12.828-1.098
				L157.147,142.249z"/>
			<path fill="#997342" d="M161.287,128.17c-3.692,22.334-26.598,23.446-40.325,23.826c-1.917,0.053-6.248,1.949-8.768,2.44
				c-3.205,0.62-4.438-0.144-4.438-0.144s-1.72,5.025,5.983,8.18c3.004,1.194,9.143-1.895,10.74-2.007
				C128.474,160.175,156.685,161.336,161.287,128.17z"/>
			<path fill="#3F0306" d="M106.604,149.269c2.729,3.012,3.009,5.407,3.009,5.407s26.567,1.624,37.622-5.407
				c14.497-7.753,14.346-23.579,14.346-23.579s-10.188,11.048-24.255,16.402C123.632,147.3,106.043,146.79,106.604,149.269z"/>
			<path d="M159.466,135.319c-4.159,14.745-22.988,17.652-22.988,17.652s0.849-10.88,14.134-14.328
				C154.566,136.864,158.391,135.285,159.466,135.319z"/>
			<path fill="#8D1516" d="M138.56,151.683c1.351-7.727,9.285-10.304,10.08-10.311c-0.5,1.408,0,1.693,0,1.693
				s8.221-7.33,9.721-5.085c-1.14,3.612-5.485,8.395-11.89,11.748c-2.614,1.45-4.954,2.145-7.946,2.94
				C138.44,152.375,138.471,152.163,138.56,151.683z"/>
			<path fill="#C9A9A9" d="M138.524,152.669c0.599-8.766,10.115-11.297,10.115-11.297s-0.594,1.243,0,1.693
				c1.321-1.382,4.468-3.515,4.935-3.812c-5.24,4.536-6.625,10.217-10.083,11.876C143.491,151.129,140.583,152.198,138.524,152.669z
				"/>
			<path d="M101.203,145.459c1.113,3.239,2.881,6.114,2.881,6.114s28.848,2.167,44.556-10.26
				c-25.141,9.716-42.902,6.469-42.902,6.469l-2.623-4.241l-3.54-2.656C99.574,140.885,98.511,143.458,101.203,145.459z"/>
			<path fill="#D7DADD" d="M161.581,125.689c-0.014,4.169-1.568,7.93-1.568,7.93s-2.589,2.998-5.775,4.882
				c-0.97-3.733-6.065-1.007-5.598,2.871c-19.639,11.77-43.347,8.797-43.347,8.797l-2.977-6.373
				C102.316,143.796,147.07,138.146,161.581,125.689z"/>
			<path fill="#D1AB6F" d="M99.574,140.942c-0.05,1.864,2.574,3.156,2.574,3.156s14.936-0.429,30.013-4.447
				c21.819-6.318,28.562-13.365,28.562-13.365s-10.171,5.134-20.238,7.333c-5.916,1.292-13.274-0.031-14.539,0.286
				c-3.405,0.862-7.088,4.988-8.372,4.452c-1.282-0.534-5.882-2.583-7.378-2.154C108.703,136.635,99.615,139.072,99.574,140.942z"/>
			<path d="M102.148,144.099c0.168-0.303,4.444-0.162,13.454-1.22c-9.01,1.541-12.275,3.084-12.275,3.084l-1.536-0.504
				L102.148,144.099z"/>
		</g>
		<path d="M157.147,124.492c8.507-1.954,7.589,6.813,7.589,6.813S162.678,126.024,157.147,124.492z"/>
		<path d="M161.581,125.689c0,0-1.394,8.596-4.708,17.354c5.041-10.382,5.528-15.285,5.528-15.285L161.581,125.689z"/>
		<path fill="#B0B4B7" d="M151.62,121.066c6.421-5.773,14.824-1.354,17.796,4.035c2.604,4.735,0.164,10.218,0.164,10.218
			s1.354-5.74-3.208-11.126C163.342,120.039,157.322,118.335,151.62,121.066z"/>
		<polygon points="100.078,114.903 100.748,117.686 98.638,115.528 98.638,113.993 		"/>
		<path fill="#B0B4B7" d="M63.316,84.76c-4.878,7.853-4.114,14.041-4.114,14.041l-3.571,2.78
			C55.631,101.581,53.341,93.592,63.316,84.76z"/>
		<path fill="#31738B" d="M96.646,118.006c0.497,3.781,4.103,3.061,4.103,3.061s2.79,5.178,17.422,3.698
			c-10.811,3.916-16.974-1.394-16.974-1.394S95.573,124.017,96.646,118.006z"/>
		<path fill="#B0B4B7" d="M124.364,110.672v2.766c0,0,1.595-2.051,4.887-2.103C127.09,110.169,124.364,110.672,124.364,110.672z"/>
		<path d="M116.273,131.046c-0.236,1.236,1.301,5.109,1.301,5.109l-0.347-5.109C117.228,131.046,116.513,129.814,116.273,131.046z"
			/>
	</g>
</g>
</svg>
