<?xml version="1.0" encoding="utf-8"?>
<!-- Generator: Adobe Illustrator 16.2.1, SVG Export Plug-In . SVG Version: 6.00 Build 0)  -->
<!DOCTYPE svg PUBLIC "-//W3C//DTD SVG 1.1//EN" "http://www.w3.org/Graphics/SVG/1.1/DTD/svg11.dtd">
<svg version="1.1" xmlns="http://www.w3.org/2000/svg" xmlns:xlink="http://www.w3.org/1999/xlink" x="0px" y="0px"
	 width="242.929px" height="269.291px" viewBox="0 0 242.929 269.291" enable-background="new 0 0 242.929 269.291"
	 xml:space="preserve">
<g id="Capa_1">
	<path fill="#FFFFFF" d="M121.518,0.04l0.54,111.273l17.4-109.815l-16.334,109.991L156.956,5.833l-32.805,106l49.43-98.894
		l-48.467,99.399l63.811-89.695l-62.938,90.352l76.619-78.291l-75.856,79.078l87.544-64.956l-86.909,65.857l96.312-50.021
		l-95.824,51.013l102.709-33.854l-102.375,34.916l106.574-16.857l-106.405,17.958l107.819,0.557l-107.819,0.557l106.405,17.956
		l-106.574-16.854l102.375,34.912l-102.709-33.853l95.824,51.01l-96.312-50.018l86.909,65.85l-87.544-64.949l75.856,79.072
		l-76.619-78.284l62.938,90.344l-63.811-89.688l48.467,99.393l-49.43-98.887l32.805,105.995l-33.832-105.651l16.334,109.985
		l-17.4-109.81l-0.54,111.267l-0.541-111.267l-17.397,109.81l16.332-109.985L86.082,230.95l32.802-105.996l-49.429,98.888
		l48.466-99.394l-63.809,89.689l62.937-90.344l-76.619,78.284l75.856-79.072l-87.545,64.949l86.909-65.85l-96.311,50.018
		l95.821-51.01L12.453,154.965l102.375-34.913L8.254,136.907l106.405-17.956L6.843,118.394l107.816-0.557L8.254,99.879
		l106.574,16.857L12.453,81.821l102.708,33.854L19.341,64.663l96.311,50.021L28.742,48.826l87.545,64.956L40.431,34.705
		l76.619,78.291L54.112,22.644l63.81,89.695l-48.466-99.4l49.429,98.895l-32.802-106l33.83,105.656L103.581,1.498l17.396,109.815
		L121.518,0.04z"/>
</g>
<g id="Capa_16">
	<g>
		<g>
			<polygon fill="#D9DADB" points="168.204,232.632 168.204,225.599 74.806,225.599 74.806,232.632 5.481,232.632 20.773,213.366 
				5.481,194.104 35.599,194.104 35.599,187.069 207.231,187.069 207.231,194.104 237.015,194.104 224.783,213.366 237.015,232.632 
							"/>
			<path d="M205.183,189.12v7.033h28.102l-10.931,17.213l10.931,17.215h-63.031v-7.033H72.756v7.033H9.727l13.664-17.215
				L9.727,196.153h27.922v-7.033H205.183 M209.28,185.022h-4.098H37.647h-4.099v4.098v2.934H9.727H1.239l5.276,6.651l11.642,14.663
				L6.515,228.032l-5.276,6.648h8.488h63.029h4.101v-4.1v-2.932h89.299v2.932v4.1h4.099h63.031h7.459l-3.998-6.299l-9.536-15.016
				l9.536-15.013l3.998-6.3h-7.459H209.28v-2.934V185.022L209.28,185.022z"/>
		</g>
		<polygon fill="#B0B4B7" points="72.756,230.581 72.756,196.155 9.727,196.155 23.391,213.366 9.727,230.581 		"/>
		<polygon fill="#B0B4B7" points="233.285,196.155 170.254,196.155 170.254,230.581 233.285,230.581 222.354,213.366 		"/>
		<polygon points="33.502,194.606 33.502,226.069 63.097,232.767 74.286,231.925 40.521,194.606 		"/>
		<polygon points="209.293,194.468 209.293,225.931 179.699,232.632 168.509,231.786 202.274,194.468 		"/>
		<polygon fill="#8B8B8B" points="205.183,189.12 205.183,223.548 170.254,230.581 170.118,196.155 		"/>
		<polygon fill="#8B8B8B" points="37.647,189.12 37.647,223.548 72.576,230.581 72.712,196.155 		"/>
		<g>
			<rect x="59.367" y="220.593" fill="#FFFFFF" width="125.038" height="40.697"/>
			<path d="M182.405,222.593v36.697H61.367v-36.697H182.405 M186.405,218.593h-4H61.367h-4v4v36.697v4h4h121.038h4v-4v-36.697
				V218.593L186.405,218.593z"/>
		</g>
		<g>
			<path d="M83.385,241.871h-2.792v5.582h3.908v1.675h-6.141v-15.631h6.141v1.675h-3.908v5.023h2.792V241.871z"/>
			<path d="M92.784,249.128l-2.342-7.257h-1.675v7.257h-2.232v-15.631h2.791c0.978,0,1.788,0.1,2.434,0.301
				c0.646,0.2,1.16,0.483,1.544,0.85c0.384,0.367,0.654,0.808,0.812,1.321c0.156,0.516,0.234,1.087,0.234,1.715
				c0,0.384-0.027,0.73-0.083,1.038c-0.056,0.309-0.131,0.584-0.224,0.826c-0.094,0.241-0.197,0.453-0.315,0.637
				c-0.116,0.183-0.235,0.339-0.357,0.467c-0.287,0.309-0.613,0.529-0.981,0.663l2.52,7.813H92.784z M88.767,240.195h0.559
				c0.418,0,0.8-0.039,1.143-0.117c0.343-0.079,0.637-0.214,0.881-0.405c0.244-0.192,0.434-0.45,0.567-0.772s0.2-0.729,0.2-1.217
				s-0.066-0.894-0.2-1.217c-0.134-0.322-0.323-0.58-0.567-0.772s-0.538-0.327-0.881-0.405s-0.725-0.117-1.143-0.117h-0.559V240.195
				z"/>
			<path d="M96.942,233.497h2.232v15.631h-2.232V233.497z"/>
			<path d="M110.417,243.546v0.558c0,0.698-0.076,1.361-0.227,1.989c-0.151,0.628-0.401,1.178-0.751,1.648
				c-0.348,0.472-0.809,0.847-1.378,1.125c-0.57,0.279-1.273,0.42-2.11,0.42c-0.838,0-1.541-0.144-2.111-0.428
				c-0.569-0.286-1.029-0.682-1.378-1.191c-0.35-0.509-0.6-1.115-0.75-1.819c-0.151-0.703-0.228-1.474-0.228-2.311v-4.458
				c0-0.837,0.076-1.607,0.228-2.312c0.15-0.704,0.4-1.309,0.75-1.814c0.349-0.506,0.809-0.901,1.378-1.187
				c0.57-0.285,1.273-0.428,2.111-0.428c0.791,0,1.469,0.127,2.036,0.38s1.03,0.606,1.387,1.06c0.358,0.454,0.621,1,0.79,1.637
				s0.253,1.338,0.253,2.105h-2.232c0-0.558-0.038-1.047-0.113-1.465c-0.076-0.419-0.201-0.768-0.375-1.047
				c-0.176-0.279-0.404-0.488-0.69-0.628c-0.284-0.14-0.636-0.209-1.055-0.209s-0.771,0.069-1.056,0.209s-0.515,0.349-0.689,0.628
				c-0.174,0.279-0.299,0.628-0.375,1.047c-0.076,0.418-0.113,0.907-0.113,1.465v5.583c0,0.419,0.037,0.829,0.113,1.23
				s0.201,0.759,0.375,1.072c0.175,0.314,0.404,0.567,0.689,0.76c0.285,0.191,0.637,0.287,1.056,0.287s0.771-0.096,1.055-0.287
				c0.286-0.192,0.515-0.445,0.69-0.76c0.174-0.313,0.299-0.671,0.375-1.072c0.075-0.401,0.113-0.812,0.113-1.23v-0.558H110.417z"/>
			<path d="M121.961,249.286c-0.557,0-1.048-0.066-1.473-0.197c-0.424-0.131-0.792-0.305-1.106-0.523
				c-0.313-0.218-0.578-0.466-0.793-0.741c-0.216-0.276-0.394-0.561-0.531-0.851c-0.326-0.675-0.512-1.445-0.559-2.312l2.226-0.559
				c0.022,0.628,0.115,1.187,0.278,1.675c0.069,0.209,0.159,0.415,0.268,0.615c0.107,0.201,0.24,0.38,0.397,0.537
				c0.157,0.156,0.343,0.283,0.555,0.379c0.213,0.096,0.46,0.144,0.738,0.144c1.119,0,1.68-0.559,1.68-1.675
				c0-0.278-0.035-0.539-0.104-0.78c-0.07-0.241-0.175-0.474-0.313-0.698c-0.141-0.224-0.315-0.441-0.524-0.654
				s-0.454-0.432-0.733-0.658l-2.791-2.233c-0.284-0.227-0.533-0.484-0.745-0.771c-0.212-0.288-0.389-0.592-0.528-0.911
				c-0.14-0.32-0.242-0.646-0.31-0.978c-0.066-0.331-0.1-0.66-0.1-0.986c0-0.5,0.083-0.979,0.253-1.435
				c0.168-0.456,0.415-0.857,0.744-1.203c0.328-0.347,0.735-0.622,1.224-0.825c0.489-0.203,1.051-0.306,1.69-0.306
				c0.559,0,1.051,0.059,1.476,0.175c0.425,0.117,0.795,0.271,1.109,0.463c0.315,0.191,0.579,0.409,0.794,0.654
				c0.215,0.244,0.394,0.491,0.534,0.741c0.325,0.599,0.512,1.276,0.558,2.032l-2.232,0.559c-0.023-0.523-0.117-0.989-0.279-1.396
				c-0.07-0.174-0.16-0.344-0.268-0.51s-0.239-0.313-0.398-0.444c-0.157-0.131-0.342-0.237-0.554-0.319
				c-0.214-0.081-0.459-0.121-0.739-0.121c-0.291,0-0.544,0.045-0.757,0.135c-0.212,0.09-0.387,0.211-0.523,0.361
				c-0.139,0.151-0.238,0.329-0.303,0.532c-0.063,0.204-0.095,0.419-0.095,0.646c0,0.386,0.089,0.779,0.271,1.182
				c0.18,0.402,0.463,0.755,0.849,1.058l2.792,2.233c0.354,0.285,0.671,0.597,0.947,0.936c0.277,0.341,0.512,0.696,0.704,1.067
				c0.191,0.372,0.338,0.755,0.437,1.146c0.1,0.393,0.148,0.78,0.148,1.164c0,0.482-0.078,0.943-0.234,1.382
				c-0.157,0.439-0.397,0.828-0.722,1.165c-0.323,0.337-0.729,0.606-1.217,0.807C123.21,249.186,122.631,249.286,121.961,249.286z"
				/>
			<path d="M130.641,245.221l-0.783,3.907h-2.23l3.272-15.631h2.308l3.352,15.631h-2.15l-0.838-3.907H130.641z M133.21,243.546
				l-1.116-6.7l-1.117,6.7H133.21z"/>
			<path d="M142.496,242.442l-2.205,6.686h-2.24l2.773-8.104l-2.791-7.527h2.223l2.237,6.159l2.24-6.159h2.177l-2.795,7.501
				l2.754,8.13h-2.154L142.496,242.442z"/>
			<path d="M152.347,233.497c0.651,0,1.222,0.057,1.71,0.174c0.488,0.116,0.908,0.271,1.26,0.467
				c0.353,0.195,0.645,0.423,0.878,0.685c0.232,0.262,0.415,0.536,0.549,0.824s0.229,0.583,0.283,0.886
				c0.056,0.302,0.083,0.594,0.083,0.872c0,0.419-0.036,0.803-0.108,1.151c-0.073,0.35-0.206,0.663-0.397,0.941
				c-0.192,0.28-0.451,0.524-0.776,0.733s-0.741,0.385-1.247,0.523c0.419,0.14,0.799,0.309,1.143,0.506
				c0.343,0.198,0.637,0.446,0.881,0.746s0.434,0.665,0.567,1.095s0.2,0.951,0.2,1.562c0,0.657-0.102,1.259-0.305,1.806
				c-0.205,0.547-0.498,1.017-0.882,1.409c-0.384,0.392-0.852,0.698-1.404,0.92s-1.177,0.331-1.875,0.331h-3.909v-15.631H152.347z
				 M151.231,240.195h1.116c0.187,0,0.384-0.011,0.593-0.034c0.21-0.023,0.418-0.068,0.624-0.136
				c0.206-0.066,0.405-0.163,0.598-0.288c0.192-0.124,0.359-0.29,0.502-0.496c0.142-0.207,0.257-0.46,0.344-0.76
				c0.088-0.3,0.131-0.658,0.131-1.077c0-0.559-0.099-0.988-0.297-1.291c-0.196-0.302-0.471-0.523-0.819-0.663
				c-0.349-0.139-0.763-0.221-1.239-0.244s-0.993-0.034-1.552-0.034V240.195z M151.231,247.453h1.116c0.419,0,0.8-0.04,1.143-0.122
				c0.343-0.081,0.637-0.227,0.881-0.437c0.245-0.209,0.434-0.493,0.567-0.854c0.134-0.36,0.2-0.819,0.2-1.378
				s-0.066-1.018-0.2-1.378c-0.134-0.361-0.322-0.646-0.567-0.854c-0.244-0.211-0.538-0.355-0.881-0.437
				c-0.343-0.082-0.724-0.122-1.143-0.122h-1.116V247.453z"/>
			<path d="M162.475,249.128v-5.024l-3.35-10.606h2.232l2.237,7.814l2.229-7.814h1.995l-3.111,10.606v5.024H162.475z"/>
		</g>
		<rect x="37.647" y="189.12" fill="#D9DADB" width="167.535" height="34.428"/>
	</g>
	<g>
		<path d="M79.231,199.285h0.391l0.242,0.161l0.054,0.174l0.364,0.58l0.268,0.459l0.122,0.309l0.188,0.295l0.109,0.26l0.054,0.158
			l-0.029,0.109l0.029,0.227l0.054,0.139l0.053,0.213l0.203,0.26l0.323,0.268l0.108,0.205l0.068,0.266l0.08,0.283l0.135,0.217
			l0.135,0.418l0.363,0.297l0.081,0.283l-0.053,0.24l-0.229,0.242l-0.109,0.201l-0.659,0.393l-0.445,0.271l-0.323,0.133
			l-0.135,0.109l-0.176,0.176l-0.134,0.051l-0.336,0.082l-0.217,0.16l-0.161,0.055l-0.472,0.285h-0.109l-0.201,0.158l-0.109,0.029
			l-0.377,0.363l-0.147,0.242l-0.028,0.107v0.121l-0.026,0.162l-0.216,0.217l-0.391-0.029l0.028,0.311l-0.028,0.215l-0.107,0.164
			l-0.082,0.253l-0.134,0.164l-0.066,0.161l0.04,0.254l0.107,0.188l0.136,0.031l0.135,0.055h0.16H78.1l0.257,0.121l0.376,0.023
			l0.31,0.03l0.162,0.024h0.107l0.363,0.055l0.377,0.027l0.364-0.054l0.163-0.106l0.053-0.121l0.068-0.138l-0.028-0.104v-0.109
			l-0.093-0.149l-0.108-0.188l-0.108-0.351l0.082-0.338l0.081-0.135l0.107-0.174l0.283-0.133l0.163-0.031h0.174l0.271,0.109
			l0.161,0.055l0.203,0.229l0.107,0.242l0.054,0.714l-0.054,0.121l-0.055,0.325l-0.052,0.336l-0.083,0.215l-0.146,0.108
			l-0.108,0.174l-0.026,0.163l-0.243,0.267l-0.202,0.206l-1.187,0.954l-0.107,0.176l-0.055,0.349l0.081,0.152l0.028,0.242
			l-0.055,0.215l-0.162,0.229l-0.148,0.027l-0.431,0.08l-0.202-0.055l-0.35-0.053l-0.176-0.055l-0.244-0.105l-0.16-0.096
			l-0.175-0.025l-0.163-0.029l-0.214-0.164l-0.256-0.053l-0.46-0.279l-0.147-0.055l-0.243-0.138l-0.282-0.159l-0.244-0.109
			l-0.39-0.259L74.96,212.5l-0.336-0.161l-0.162-0.026h-0.417l-0.161-0.095l-0.203-0.188l-0.081-0.188l0.028-0.084l0.052-0.2
			l0.122-0.188l0.324-0.309l0.16-0.246l0.029-0.242l0.066-0.199l0.054-0.38v-0.176l-0.027-0.297v-0.175l-0.093-0.078l-0.029-0.242
			l0.149-0.082l-0.081-0.176l0.054-0.268l-0.026-0.164l-0.121-0.307l0.121-0.137l0.026-0.105v-0.107l-0.026-0.449l0.026-0.107
			v-0.889l-0.026-0.188v-0.254l-0.027-0.381l0.027-0.254l-0.027-0.295l0.027-0.205l0.026-0.133l-0.054-0.109l-0.068-0.496
			l-0.026-0.312l0.026-0.213l-0.108-0.326l-0.081-0.121l-0.296-0.215l-0.094-0.105l-0.027-0.139l0.027-0.254l0.176-0.242
			l0.377-0.148l0.579-0.082l0.309-0.082l0.108-0.053l0.162-0.025l1.159-0.34l0.176-0.078h0.134l0.082-0.078l0.106-0.139l0.203,0.053
			l0.27-0.133l0.189-0.148l0.417-0.242l0.107-0.055l0.526-0.496l0.081-0.188l0.026-0.203l0.175-0.189L79.231,199.285z
			 M77.414,201.993l-0.083,0.213v0.217l0.054,0.15l0.055,0.213l0.054,0.365l0.027,0.137l0.053,0.107l0.028,0.58l0.026,0.105
			l0.055,0.172l0.054,0.273l-0.082,0.188l0.082,0.258v0.16l-0.054,0.16l-0.081,0.285l0.026,0.107l0.027,0.109l-0.027,0.229
			l0.027,0.135v0.188l0.028,0.133l-0.055,0.258l0.081,0.135l0.363-0.471l0.391-0.133l0.055-0.139l0.107-0.053l0.108-0.082
			l0.161-0.053l0.229-0.393l0.055-0.104l-0.055-0.152l-0.134-0.242l-0.054-0.133l-0.041-0.174l-0.188-0.404l-0.391-0.996
			l-0.108-0.086l-0.27-0.523l-0.054-0.189l-0.336-0.578L77.414,201.993z"/>
		<path d="M88.596,194.395l0.108,0.066l0.323-0.038l0.203,0.038l0.242,0.107l0.229,0.218l0.026,0.213l0.028,0.15v0.133l-0.108,0.242
			l-0.391,0.23l-0.135,0.027l-0.202,0.055l-0.297,0.135l-0.134,0.133l-0.122,0.15l-0.214,0.496l-0.054,0.107v0.109l-0.028,0.188
			l-0.025,0.473v0.312l-0.082,1.818l-0.066,0.791l-0.027,0.137l-0.055,0.201l0.122,0.219l-0.04,0.211l0.148,0.121v0.189l0.025,0.217
			l-0.053,0.203v0.297l-0.081,0.174l-0.093,0.322v0.162l0.053,0.148v0.105l-0.053,0.191l0.147,0.443v0.361l0.027,0.273v0.633
			l-0.081,0.08l-0.067,0.15v0.266l0.027,0.314l-0.027,0.211l-0.108,0.273l0.202,0.023l0.055,0.176v0.189v0.365l0.053,0.188
			l-0.025,0.133v0.555l0.025,0.254l-0.053,0.219l-0.081,0.242l0.054,0.199l0.08,0.299v0.226l0.054,0.164l0.028,0.133l0.026,0.259
			l0.081,0.214l0.053,0.191l0.176,0.091l0.607,0.163l0.269,0.242l0.027,0.107v0.284l-0.189,0.297l-0.391,0.337l-0.189,0.134
			l-0.08,0.201l-0.31,0.053l-0.135,0.108l-0.338,0.392l-0.081,0.19l0.163,0.36l0.147,0.139l0.055,0.268l-0.148,0.363l-0.216,0.217
			l-0.188,0.025l-0.255-0.053l-0.109-0.082h-0.134l-0.08-0.053l-0.257-0.135l-0.189-0.229l-0.216-0.133l-0.283-0.164l-0.107-0.133
			l-0.108-0.152l-0.08-0.023l-0.311-0.216l-0.391-0.164l-0.295-0.145l-0.23-0.086l-0.215-0.103l-0.296-0.163l-0.095-0.083
			l-0.054-0.146l-0.052-0.271l0.135-0.284l0.147-0.133l0.108-0.055l0.269-0.133l0.202-0.392v-0.582l0.082-0.156l-0.082-0.138
			l-0.026-0.176l-0.028-0.133l0.082-0.134l0.054-0.447v-0.188l-0.054-0.338l0.134-0.078v-0.189l0.027-0.203l0.027-0.295l0.054-0.164
			l-0.054-0.145l-0.108-0.055v-0.326l-0.134-0.416l0.026-0.34l0.082-0.242l0.053-0.441l-0.026-0.162l0.054-0.605l0.027-0.312v-0.133
			l-0.081-0.242l0.054-0.152l-0.054-0.105l-0.055-0.715l0.028-0.471v-0.322v-0.205l0.026-0.211l0.108-0.258l0.161-0.164
			l-0.161-0.211l-0.134-0.393l-0.028-0.217l0.028-0.121l-0.028-0.105l0.055-0.137l-0.026-0.387l-0.028-0.461l-0.026-0.312
			l-0.054-1.764l-0.081-0.388l-0.041-0.272l-0.027-0.283l-0.377-0.43l-0.174-0.119l-0.164-0.244l-0.054-0.284l0.134-0.243l0.23-0.16
			l0.431-0.029l0.445,0.053l0.229,0.055l0.296,0.082h0.107l0.499,0.31l0.255,0.188l0.162,0.165l0.297,0.309l0.147,0.137l0.163-0.055
			l0.054-0.137l-0.108-0.176l0.269-0.686l0.15-0.16l0.349-0.5l0.392-0.16l0.242-0.121L88.596,194.395z"/>
		<path d="M106.65,195.972l0.162,0.055l0.525,0.055l0.363-0.085h0.19h0.295l0.256,0.108l0.188-0.055l0.338,0.055l0.214-0.023
			l0.108-0.031l0.202,0.122l0.163-0.038l0.364,0.038l0.242,0.028h0.161l0.108,0.055h0.229l0.162,0.08l0.606,0.136l0.499,0.134
			l0.31,0.146l0.134,0.029l0.324,0.188l0.176,0.079l0.134,0.03l0.163,0.108h0.255l0.108,0.442h0.135l0.389,0.243l0.499,0.069
			l0.081,0.32l0.19,0.23l0.134,0.133l0.472,0.556l0.135,0.134l0.282,0.416l0.216,0.188l-0.053,0.314l0.134,0.35l0.176,0.053
			l0.134,0.227l0.188,0.217l0.081,0.162l0.121,0.254l0.217,0.766l0.161,0.527l0.028,0.314l0.053,0.211l0.027,0.217v0.525
			l0.068,0.418l-0.068,0.133v0.719l-0.216,1.045l0.028,0.23v0.137l-0.109,0.268l-0.108,0.176l-0.026,0.084l0.054,0.158l-0.082,0.393
			l-0.174,0.324l0.026,0.418l-0.055,0.107l-0.135,0.201l-0.025,0.188l-0.188,0.501l-0.082,0.266l0.027,0.23l-0.096,0.434
			l-0.025,0.146l0.025,0.325l0.069,0.133l-0.149,0.201l-0.108,0.192v0.157l0.081,0.122v0.107l0.027,0.191l0.201,0.228v0.106
			l0.055,0.193l0.215,0.333l0.31,0.189h0.107l0.164-0.106l0.364-0.028l0.376,0.028l0.311,0.32l0.026,0.26l-0.026,0.158l-0.109,0.365
			l-0.227,0.162l-0.661,0.217l-0.444,0.053l-0.271,0.041h-0.107h-0.134l-0.58-0.041l-0.335-0.107h-0.217l-0.121-0.078l-0.269-0.084
			h-0.284l-0.403-0.162l-0.256-0.311l-0.162-0.133l-0.026-0.133l-0.189-0.086l-0.149-0.199l-0.296-0.271l-0.054-0.133l-0.255-0.448
			l-0.107-0.254l-0.109-0.295l-0.026-0.137l-0.053-0.522l-0.082-0.098v-0.24l0.027-0.189l-0.081-0.174l0.027-0.771l-0.054-0.415
			l-0.068-0.27l0.028-0.135l0.066-0.148v-0.326l0.027-0.199l0.027-0.109l0.082-0.133l-0.055-0.217v-0.121l0.08-0.514l0.055-0.201
			l0.109-0.604l-0.029-0.162l-0.16-0.311v-0.215l0.189-0.889l0.053-0.49l-0.053-0.441l0.188-0.229l0.068-0.35l0.025-0.164
			l0.029-0.174l0.025-0.77l-0.025-0.336v-0.109l0.025-0.387l-0.08-0.109l0.025-0.406l-0.093-0.145l-0.028-0.299l-0.08-0.104
			l-0.027-0.121l0.027-0.219l-0.08-0.271l-0.082-0.199l-0.082-0.107l-0.106-0.08l-0.027-0.162l-0.148-0.068l-0.107-0.271
			l-0.418-0.392l-0.161-0.104l-0.189-0.029l-0.188-0.023l-0.068-0.086l-0.215-0.053h-0.243l-0.229,0.084h-0.107l-0.216,0.133
			l-0.121,0.162l-0.215,0.527l-0.054,0.254v0.217l-0.028,0.199v0.242l-0.052,0.473v0.189l-0.137,1.238l-0.025,0.23l-0.095,0.266
			l0.027,0.139l0.175,0.309l0.026,0.242l-0.202,0.309l0.175-0.023l0.026,0.375l-0.202,0.283l0.026,0.217l0.255,0.285l0.028,0.441
			l-0.028,0.137l0.082,0.496l-0.108,0.379l-0.026,0.807l0.134,0.5l-0.027,0.109l-0.026,0.375l-0.134,0.176l-0.23,0.27h0.284
			l0.081,0.201v0.107l-0.028,0.219l0.028,0.334l0.026,0.27l0.216,0.339l0.054,0.375l0.04,0.175l-0.067,0.24l0.067,0.164v0.149
			l0.163,0.631l0.08,0.107l0.027,0.109l0.107,0.255l0.108,0.137l0.122,0.108l0.189,0.281l0.296,0.246l0.202,0.156l0.377,0.176
			l0.175,0.109l0.134,0.055l0.164-0.026l0.107,0.133l0.147,0.081l0.08,0.138l0.055,0.229v0.158l-0.108,0.314l-0.107,0.105
			l-0.066,0.107l-0.189,0.084l-0.108,0.104l-0.081,0.029l-0.203,0.025l-0.135,0.027l-0.215,0.041l-0.229,0.025l-0.377-0.025
			l-0.337-0.094h-0.189h-0.16l-0.257-0.109l-0.296-0.023l-0.148-0.031l-0.161-0.023l-0.418-0.055l-0.188-0.082h-0.215h-0.149
			l-0.188-0.08l-0.215,0.025h-0.337l-0.134-0.08l-0.108,0.055h-0.147l-0.216-0.23h-0.161l-0.203,0.082h-0.377l-0.31,0.068
			l-0.135-0.041l-0.336,0.041l-0.08,0.08l-0.189,0.107l-0.053-0.133l-0.392-0.055l-0.162,0.08h-0.081l-0.256,0.133l-0.296,0.242
			l-0.392,0.42l-0.444,0.053l-0.243-0.053l-0.31-0.162l-0.134-0.176l-0.107-0.295v-0.188l0.028-0.393l0.161-0.309l0.082-0.219
			l0.147-0.161l0.215-0.109l0.135-0.09l0.363-0.219l0.5-0.188l0.134-0.028l0.215-0.121l0.337-0.188l0.364-0.324l0.081-0.172
			l0.055-0.109l0.16-0.446l0.028-0.322l0.026-0.204v-0.109v-0.133l0.053-0.107l-0.025-0.175l0.053-0.429l0.026-0.555l-0.108-0.146
			l0.028-0.219l0.146-0.242l-0.04-0.174l0.04-0.107v-0.188v-0.582l-0.04-0.254v-0.109l0.067-0.133l0.027-0.16l-0.054-0.109
			l-0.04-0.152l0.094-0.398l-0.094-0.205v-0.27l0.121-0.203l-0.026-0.242v-0.766l0.026-0.473l0.028-0.229l-0.055-0.404l-0.027-0.283
			l0.027-0.473l-0.027-0.268l-0.094-0.139l0.067-0.359l0.027-0.135v-0.162l-0.067-0.15l0.04-0.158l0.081-0.217l-0.053-0.254
			l-0.067-0.35l0.04-0.152v-0.188v-0.501l-0.093-0.211v-0.177v-0.351l-0.216-0.337l-0.08-0.08l-0.189-0.053l-0.256-0.086
			l-0.134-0.023l-0.58,0.078l-0.108,0.055l-0.175,0.109l-0.189,0.107l-0.215,0.256l-0.284,0.393l-0.135,0.266l-0.079,0.109v0.283
			l-0.337,0.35v0.285l-0.053,0.133l-0.054,0.217l0.08,0.393l-0.08,0.133l-0.134,0.176l0.052,0.162l0.107,0.213l-0.08,0.227
			l0.027,0.744l0.082,0.242l-0.136,0.027l0.027,0.203h0.134l0.081,0.32v0.229l0.108,0.35l0.067,0.34l0.163,0.271l0.054,0.146
			l0.135,0.242l0.107,0.416l0.027,0.137l0.027,0.08v0.176l-0.108,0.379l-0.162,0.311l-0.134,0.24l-0.055,0.361l0.055,0.164
			l0.026,0.164l0.053,0.199l0.055,0.242l-0.055,0.391l0.055,0.271l-0.188,0.201l0.081,0.162l0.216,0.055l-0.028,0.188l-0.106,0.284
			v0.078l-0.029,0.216l-0.025,0.147l-0.054,0.161v0.418l-0.134,0.352v0.282l-0.122,0.163l-0.108,0.134l-0.08,0.284l-0.164,0.658
			l-0.08,0.163l-0.418,0.712l-0.498,0.502l-0.162,0.135l-0.229,0.174l-0.323,0.109l-0.337,0.188l-0.607,0.174h-0.269l-0.202,0.078
			h-0.742l-0.444-0.023l-0.377-0.121l-0.122-0.027l-0.162-0.08l-0.162-0.078l-0.364-0.139l-0.135-0.053l-0.336-0.311l-0.189-0.297
			l-0.08-0.109l-0.082-0.174v-0.187l-0.174-0.109l-0.028-0.109l-0.054-0.806l0.15-0.391l0.08-0.188l0.298-0.272l0.134-0.053
			l0.175-0.093l0.107-0.028h0.107l0.082-0.025h0.203l0.269,0.121l0.189,0.158l0.175,0.162l0.134,0.31l0.028,0.245l-0.028,0.214
			l-0.053,0.204l-0.108,0.297l0.027,0.199l0.163,0.242l0.416,0.055l0.325-0.026l0.256-0.135l0.08-0.162l0.161-0.204l0.161-0.604
			l-0.025-0.658l-0.082-0.609v-0.159l-0.081-0.149l-0.025-0.216v-0.104l-0.082-0.164l-0.055-0.228l-0.053-0.164l-0.029-0.109
			l-0.026-0.253l-0.148-0.162l-0.027-0.08l-0.054-0.338l-0.135-0.322l-0.026-0.107l-0.31-0.941l-0.028-0.109v-0.23l-0.162-0.402
			l-0.026-0.152l-0.055-0.375l-0.026-0.283v-0.164v-0.105l-0.027-0.281v-0.852l0.053-0.336l0.028-0.135v-0.215l0.026-0.334
			l0.163-0.502l0.053-0.213l0.067-0.139l0.161-0.334l-0.026-0.217l0.055-0.176l0.08-0.135l0.135-0.268l0.081-0.309l0.148-0.273
			l0.269-0.281v-0.387l0.108-0.141l0.147-0.107l0.136-0.08l0.027-0.078l0.055-0.176l0.106-0.082l0.188-0.213l0.58-0.785l0.229-0.108
			l0.188-0.243l0.162-0.078l0.363-0.201l0.055-0.107l0.108-0.082l0.121-0.08l0.431-0.134l0.309-0.259l0.392-0.133l0.242-0.164
			l0.296-0.174h0.121l0.107-0.135l0.134,0.025l0.284-0.052l0.188-0.053l0.337-0.136h0.189l0.444-0.027l0.403-0.136l0.122,0.028
			l0.164-0.066l0.632-0.053l0.107-0.031l0.162-0.023L106.65,195.972z"/>
		<path d="M126.901,199.499l0.499-0.053l0.16,0.082l0.285,0.092l0.243,0.271l0.134,0.188l0.08,0.152l0.176,0.104l0.108,0.082
			l0.081,0.164l0.109,0.133l0.201,0.146l0.162,0.084l0.107,0.076l0.633,0.139l0.337,0.08l0.215,0.338l-0.026,0.24l-0.055,0.254
			l-0.269,0.242l-0.256,0.176l-0.162,0.109l-0.081,0.135l-0.083,0.391v1.793l-0.093,0.322l-0.028,0.309v0.162l0.028,0.162
			l0.054,0.727l0.039,0.191v0.133v0.201v0.107l0.028,0.109l0.026,0.109l-0.055,0.162v0.146l0.109,0.271l-0.109,0.16v0.176
			l0.189,0.268l-0.106,0.205l-0.028,0.268l0.109,0.217l-0.081,0.229v0.188l0.026,0.282l0.108,0.551l0.135,0.055l0.255,0.028
			l0.217,0.08l0.134,0.134l0.109,0.163v0.229l-0.163,0.405l-0.134,0.121l-0.339,0.35l-0.348,0.229l-0.176,0.188l-0.108,0.309
			l-0.08,0.164l0.16,0.133l0.083,0.259l0.039,0.109l-0.093,0.35l-0.134,0.227l-0.297,0.107l-0.148,0.029h-0.162h-0.189l-0.284-0.082
			l-0.188-0.08l-0.134-0.025l-0.364-0.23l-0.269-0.107l-0.176-0.164l-0.16-0.176l-0.217-0.242l-0.121-0.133l-0.026-0.138
			l-0.109-0.145l-0.107-0.086l-0.162-0.048l-0.148-0.03l-0.055-0.108l-0.106-0.107l-0.137-0.054l-0.498-0.093l-0.39,0.146
			l-0.134,0.138l-0.134,0.363v0.214l0.108,0.161l0.188,0.313l0.092,0.188l-0.025,0.188l-0.067,0.15l-0.163,0.188l-0.323,0.133
			l-0.364-0.023l-0.162-0.031l-0.31-0.078l-0.107-0.055l-0.391-0.229l-0.161-0.109l-0.162-0.078l-0.109-0.086l-0.335-0.242
			l-0.135-0.174l-0.606-0.377l-0.201-0.173h-0.109l-0.108-0.055l-0.31-0.109l-0.297-0.078l-0.16-0.164l-0.067-0.203l0.04-0.243
			l0.054-0.107l0.134-0.225l0.446-0.526l0.08-0.192l0.026-0.159l0.055-0.337v-0.392l-0.026-0.511l-0.08-0.174l0.025-0.162
			l0.026-0.217l-0.051-0.23l0.134-0.107v-0.389l0.055-0.217l-0.029-0.133l-0.026-0.15l0.055-0.164l-0.029-0.375l0.029-0.176v-0.133
			l-0.109-0.16v-0.152l0.055-0.211l-0.028-0.557l-0.026-0.297l-0.188-0.309l0.081-0.27l0.08-0.176v-0.188l0.028-0.473l-0.028-0.188
			L121,203.583l-0.028-0.188l-0.147-0.107h-0.134l-0.083-0.137h-0.296l-0.31-0.311l-0.026-0.188l0.134-0.473l0.108-0.133l0.7-0.73
			L121,201.21l0.134-0.158l0.16-0.244v-0.174l-0.105-0.162l-0.083-0.271l0.028-0.176l0.214-0.469l0.285-0.057h0.268l0.176,0.029
			l0.351,0.121l0.081,0.08l0.228,0.188l0.163,0.107l0.526,0.447l0.107,0.109l0.188,0.078l0.176,0.08l0.135,0.121l0.31,0.107
			l0.027,0.139h0.161l0.297,0.156l0.029,0.207v0.266l-0.109,0.203l-0.134,0.133l-0.189,0.273l-0.028,0.107v0.121l-0.053,0.188
			l0.027,0.188l0.054,0.809v0.164l-0.082,0.387l0.053,0.381v1.105v0.199l-0.026,0.375l0.026,0.447l0.055,0.338l0.026,0.217
			l0.028,0.189l-0.054,0.145l0.026,0.486l-0.026,0.227l-0.026,0.5l-0.121,0.527l-0.083,0.162l-0.134,0.212l-0.08,0.368l0.108,0.188
			l0.336,0.023l0.109,0.031l0.108,0.054l0.415,0.024l0.109,0.066l0.213,0.03l0.31,0.053l0.243,0.054l0.419,0.081l0.215-0.135
			l-0.027-0.365l-0.188-0.159l-0.188-0.313l-0.109-0.659l0.028-0.633v-0.135l0.054-0.201v-0.082l0.027-0.295l-0.027-0.309
			l0.027-0.109l0.025-0.363l0.028-0.135l0.081-0.352l0.162-0.227l-0.189-0.053l-0.053-0.164l-0.054-0.309l0.025-0.217v-0.393
			l0.054-0.496v-0.137l0.027-0.135v-0.133l-0.027-0.176l-0.054-0.432l-0.08-0.201l-0.23-0.109l-0.159-0.109l-0.311-0.156
			l-0.163-0.26l-0.026-0.16l0.055-0.422l0.175-0.293l0.135-0.203l0.135-0.082l0.08-0.104l0.163-0.162l0.093-0.176l0.216-0.162
			l0.215-0.057l0.201-0.053l-0.12-0.189l-0.162-0.281l-0.053-0.242l0.028-0.145l0.051-0.193l0.256-0.297L126.901,199.499z
			 M124.112,193.88l0.294-0.066l0.15,0.066l0.767,0.029l0.268-0.066l0.122,0.066l0.217,0.025l0.297,0.029l0.121-0.055l0.403-0.029
			l0.229-0.066h0.189l0.418,0.258l0.106,0.242v0.255l-0.106,0.296l-0.108,0.109l-0.121,0.121l-0.189,0.055l-0.134,0.023
			l-0.163,0.164l-0.202,0.135l-0.134,0.445l-0.028,0.109l-0.161,0.444l-0.055,0.243l-0.392,0.646l-0.188,0.214l-0.31,0.367
			l-0.389,0.188h-0.109l-0.269,0.023l-0.121-0.055l-0.188-0.226l-0.109-0.136l-0.053-0.188v-0.217l0.191-0.284l0.202-0.158
			l0.079-0.175l0.029-0.324l-0.055-0.363l-0.096-0.189l-0.108-0.218l-0.47-0.2l-0.296-0.16l-0.135-0.086l-0.256-0.277l-0.027-0.191
			v-0.136l0.055-0.2l0.175-0.216l0.163-0.134L124.112,193.88z"/>
		<path d="M136.883,199.18l0.163,0.024l0.473,0.162l0.107,0.08l0.12,0.082l0.352,0.148l0.134,0.082l0.23,0.104l0.134,0.084
			l0.444,0.213l0.821,0.475l0.311,0.025l0.376-0.188l0.337-0.137l0.269,0.029h0.122l0.163,0.107l0.16,0.307l-0.026,0.299
			l-0.025,0.133l-0.298,0.418l-0.392,0.27l-0.134,0.068l-0.202,0.137l-0.189,0.104l-0.214,0.162l-0.229,0.084l-0.028,0.201
			l-0.106,0.107l-0.028,0.219l0.028,0.145l0.026,0.242l-0.081,0.283l-0.108,0.133l-0.176,0.084l-0.297,0.025l-0.189-0.025
			l-0.524-0.162l-0.121-0.15l-0.108-0.025l-0.161-0.133l-0.632-0.447l-0.392-0.295l-0.243-0.23l-0.256-0.188l-0.108-0.133
			l-0.106-0.031l-0.363-0.336l0.146,0.367l0.055,0.266v0.121v0.381l-0.026,0.199l-0.028,0.188v0.326v0.174l0.028,0.297l0.106,0.254
			l0.325,0.219l0.147,0.025l0.135,0.029l0.079,0.055h0.217l0.499,0.174l0.202,0.025l0.633,0.137h0.217l0.364,0.188l0.403,0.109
			l0.204,0.145l0.215,0.055l0.135,0.027l0.202,0.053l0.242,0.137l0.31,0.391l0.082,0.402l-0.055,0.176l0.081,0.189l-0.055,0.281
			l-0.026,0.35l0.026,0.109l0.028,0.5l-0.082,0.254v0.242v0.109l-0.081,0.525l0.027,0.133l-0.027,0.121v0.108v0.446l0.027,0.133
			v0.297l0.054,0.176l0.216,0.163l0.055,0.162v0.108l-0.137,0.28l-0.24,0.242h-0.149l-0.432,0.053l-0.336,0.151l-0.217,0.024h-0.281
			l-0.364,0.138l-0.268,0.159l-0.31-0.079l-0.108,0.216l-0.217,0.121l-0.579,0.188l-0.134,0.109l-0.284,0.418l0.108,0.392v0.107
			l-0.081,0.322l-0.243,0.256l-0.337,0.107l-0.214-0.025l-0.176,0.025l-0.659-0.242l-0.216-0.176l-0.282-0.133l-0.082-0.084
			l-0.215-0.158l-0.082-0.055l-0.282-0.259l-0.108-0.106l-0.161-0.136l-0.163-0.121l-0.418-0.242l-0.31-0.108h-0.471l-0.405,0.296
			l-0.108,0.312l-0.067,0.215l0.042,0.312l0.054,0.104l0.108,0.109l0.215,0.109l0.134-0.025l0.256-0.084l0.109-0.078h0.255
			l0.242,0.078l0.163,0.164l0.107,0.121l0.067,0.107l0.028,0.35l-0.028,0.09l-0.067,0.195l-0.161,0.266l-0.242,0.258l-0.499,0.107
			h-0.202h-0.296l-0.163-0.082l-0.122-0.025l-0.106,0.025l-0.136-0.107l-0.214-0.146l-0.418-0.381l-0.08-0.109l-0.081-0.143
			l-0.176-0.43v-0.15l-0.082-0.461l-0.026-0.309v-0.188l0.108-0.361l0.094-0.3l0.082-0.176l0.051-0.105l0.217-0.445l0.109-0.079
			l0.173-0.085l0.352-0.266l0.39-0.259l0.217-0.16l0.107-0.082l0.148-0.23l0.108-0.211l0.026-0.164l-0.026-0.228l0.081-0.273
			l0.364-0.362l0.269-0.053l0.581,0.053l0.201,0.109l0.348,0.176l0.364,0.215l0.298,0.214l0.108,0.121l0.282,0.192l0.243-0.084
			l0.23,0.24l0.661,0.394l0.361,0.134l0.325,0.028l0.188-0.028l0.093-0.108l0.083-0.188l-0.418-0.496l-0.188-0.418l-0.028-0.138
			l-0.026-0.253l0.054-0.689l-0.054-0.416l-0.147-0.08l-0.352-0.137l-0.201-0.053l-0.188-0.105l-0.217-0.055l-0.23-0.053
			l-0.079-0.121l-0.608-0.109h-0.188l-0.31-0.133l-0.499-0.193l-0.16-0.092l-0.217-0.055l-0.524-0.297l-0.163-0.203l-0.31-0.375
			l-0.081-0.23l-0.054-0.58l-0.027-0.295v-0.361v-0.352l0.081-0.285l0.026-0.133l0.028-0.162l-0.028-0.229l0.054-0.219l-0.081-0.133
			l0.026-0.199l0.109-0.219l-0.109-0.188l-0.08-0.393l-0.336-0.254l-0.055-0.137l0.026-0.297l0.109-0.176l0.175-0.133l0.242-0.078
			h0.106l0.137,0.025l0.281-0.057l0.108-0.023l0.419-0.109l0.323,0.08l0.176-0.055l0.16-0.078l0.338-0.096h0.214l0.336-0.053
			l0.137-0.053l0.106-0.027l0.217-0.082l0.08-0.107l0.067-0.186l-0.067-0.285l0.041-0.133l0.054-0.164l0.295-0.312l0.23-0.104
			L136.883,199.18z"/>
		<path d="M144.388,199.421l0.284,0.025l0.243,0.027l0.081,0.109h0.134l0.23,0.146l0.214,0.24l0.134,0.055l0.121,0.055l0.137,0.152
			l0.349,0.211l0.201,0.191l0.243,0.334l0.189,0.139l0.176,0.023l0.297,0.029l0.147,0.051l0.217,0.15l0.188,0.242v0.078
			l-0.134,0.336l-0.216,0.381l-0.147,0.055l-0.163,0.066l-0.079,0.268l-0.082,0.502v0.078v0.162l-0.027,0.447l-0.055,0.66
			l0.028,0.389v0.16v0.311l-0.028,0.215l-0.026,0.26l-0.095,0.105l-0.106,0.379v0.145l0.147,0.271l0.108,0.053l0.108,0.256v0.404
			l-0.028,0.418l-0.23,0.137l0.258,0.176l-0.028,0.188l-0.027,0.213l0.055,0.203l0.027,1.077l0.053,0.349l0.054,0.14l0.081,0.121
			l0.229,0.106l0.188,0.052l0.189,0.108l0.147,0.138l0.108,0.121l-0.028,0.158l-0.081,0.162l-0.229,0.363l-0.241,0.138l-0.284,0.242
			l-0.323,0.284l-0.284,0.441l-0.055,0.109l-0.025,0.161l0.08,0.23l0.082,0.188v0.217l-0.082,0.201l-0.298,0.242l-0.47-0.055
			l-0.256-0.107l-0.216-0.08l-0.135-0.121l-0.309-0.242l-0.269-0.309l-0.134-0.031l-0.419-0.349l-0.363-0.176l-0.553-0.212
			l-0.134-0.03l-0.164-0.023l-0.173-0.085l-0.054-0.161l-0.108-0.122l-0.054-0.188l0.054-0.339l0.202-0.157l0.243-0.218l0.188-0.229
			l0.028-0.188l0.122-0.296l0.052-0.121l0.028-0.189l-0.028-0.19l0.083-0.309l-0.083-0.323l0.083-0.336v-0.555l0.025-0.336
			l-0.054-0.244l0.082-0.188l0.053-0.23v-0.35v-0.549v-0.285l-0.053-0.164l-0.108-0.309l0.026-0.162l0.108-0.188l-0.026-0.445
			l0.053-0.268l-0.026-0.15l-0.08-0.32l0.025-0.152l-0.025-0.43l-0.083-0.361l-0.093-0.191l-0.081-0.104h-0.216l-0.164-0.07
			l-0.119-0.105l-0.108-0.084l-0.055-0.242l0.055-0.393l0.202-0.189l0.162-0.199l0.106-0.055l0.284-0.24l0.188-0.229l0.054-0.164
			l0.135-0.162l0.146-0.107l0.028-0.121l-0.028-0.375l-0.121-0.363v-0.139l0.121-0.158l0.217-0.176L144.388,199.421z
			 M144.995,194.34l0.31,0.028h0.133l0.218,0.176l0.079,0.133l0.093,0.027l0.188,0.191l0.352,0.387l0.121,0.163l0.08,0.107h0.109
			l0.335,0.284l0.136,0.056l0.215,0.241l0.229,0.309l-0.095,0.5l-0.579,0.389l-0.242-0.146l-0.109,0.105l-0.025,0.123v0.134
			l-0.081,0.108l-0.053,0.161l0.053,0.365l-0.028,0.157l-0.122,0.083l-0.108,0.201l-0.323,0.138h-0.282l-0.297-0.191l-0.176-0.055
			l-0.215-0.176l-0.162-0.212l-0.122-0.188l-0.133-0.123l0.025-0.135l-0.08-0.163l-0.444-0.105l-0.108-0.083l-0.161-0.121
			l-0.257-0.321l-0.053-0.365l0.229-0.39l0.377-0.271l0.418-0.243l0.229-0.174v-0.714l0.134-0.216L144.995,194.34z"/>
		<path d="M155.155,199.313h0.08l0.39,0.023l0.418,0.367l0.164,0.406l0.051,0.121l0.083,0.186l0.215,0.025l0.23,0.502l0.079,0.133
			l0.164,0.24l0.054,0.152l0.08,0.24l0.041,0.256l0.052,0.137l0.108,0.104l0.271,0.367l0.08,0.551l0.176,0.027l0.243,0.027
			l0.106,0.133l0.121,0.109l0.082,0.283l-0.148,0.295l-0.298,0.309l-0.361,0.219l-0.581,0.242l-0.109,0.066l-0.322,0.35l-0.093,0.26
			l-0.054,0.156l-0.134,0.164l-0.271,0.107h-0.281l-0.081-0.078l-0.108-0.139l-0.176-0.266l-0.081-0.258l-0.162-0.389l-0.163-0.217
			l-0.081-0.188l-0.054-0.109l-0.121-0.254l-0.081-0.299l-0.026-0.094l-0.242-0.217l-0.203-0.471l-0.107-0.268l-0.134-0.26
			l-0.083-0.188l-0.08-0.109l-0.176-0.174l-0.134,0.096l-0.163,0.242l0.054,0.605l0.082,0.162l0.135,0.363l0.026,0.109l0.027,0.281
			l0.027,0.188l0.025,0.188l-0.025,0.23l0.121,0.164l-0.029,0.109l0.029,0.174l0.025,0.162l-0.121,0.242l0.067,0.078l0.029,0.418
			l0.025,0.162l0.028,0.309l-0.028,0.219l-0.121,0.23l-0.025,0.213v0.16l0.121,0.096l0.025,0.219l0.028,0.133l-0.083,0.023
			l-0.025,0.26l0.054,0.822l-0.121,0.496l-0.081,0.162l-0.028,0.133l-0.107,0.121l-0.054,0.139l-0.242,0.134l0.026,0.188
			l0.134,0.228l0.163,0.136l0.189,0.106l0.146,0.055l0.984,0.284l0.15,0.025h0.134l0.107,0.029h0.258l0.457-0.029v0.217l0.147-0.08
			l0.188-0.188l0.188-0.054l0.054-0.149v-0.109l0.082-0.158l-0.054-0.312l-0.054-0.109l-0.028-0.107l-0.08-0.243v-0.121l0.108-0.266
			l0.147-0.137l0.134-0.08l0.188-0.025l0.109-0.07l0.581,0.283l0.08,0.162l0.202,0.472v0.337l-0.054,0.484l-0.148,0.363
			l-0.107,0.259l-0.135,0.266l-0.188,0.242l-0.176,0.097l-0.055,0.109l-0.109,0.133l-0.322,0.271l-0.755,0.387l-0.377,0.313
			l-0.066,0.107l-0.055,0.244l0.121,0.254v0.379l-0.229,0.281l-0.553,0.055l-0.189-0.025l-0.309-0.055l-0.189-0.055l-0.605-0.201
			l-0.188-0.053l-0.23-0.162l-0.376-0.164l-0.311-0.199l-0.216-0.055l-0.361-0.216l-0.163-0.109l-0.391-0.133l-0.081-0.23
			l-0.365,0.055l-0.16-0.188h-0.162l-0.335-0.03l-0.189,0.03l-0.163-0.03l-0.122-0.079l-0.106-0.258v-0.159l0.082-0.283l0.147-0.163
			l0.188-0.217l0.054-0.133l0.028-0.229l0.081-0.242l0.053-0.781l0.054-0.295v-0.189v-0.281l0.053-0.219l0.176-0.174l-0.176-0.406
			v-0.336l0.069-1.078l-0.041-0.215v-0.23l-0.028-0.211v-0.139l0.028-0.135l-0.054-0.146v-0.107l0.025-0.139l0.028-0.211
			l-0.028-0.15l0.121-0.297l-0.025-0.107v-0.146l0.054-0.107l-0.054-0.297l-0.027-0.502l-0.041-0.199v-0.459l-0.243-0.094
			l0.026-0.324h-0.243l-0.119-0.162l-0.054-0.23l0.026-0.158l0.147-0.258l0.325-0.162h0.106l0.121,0.027l0.189,0.027l0.499-0.162
			h0.082l0.107-0.051l0.284-0.084l0.134-0.023l0.108-0.055l0.215-0.055l0.149-0.043l0.377-0.107l0.47-0.242l0.31-0.107l0.272-0.146
			l0.16-0.133l0.121-0.031l0.432-0.24l0.149-0.109l0.242-0.199l0.026-0.219l0.135-0.227l0.202-0.189L155.155,199.313z"/>
		<path d="M164.034,199.313h0.147l0.297,0.023l0.632,0.312l0.135,0.213l0.256,0.084l0.875,0.66l0.229,0.107l0.403,0.23l0.121,0.053
			l0.163,0.055l0.163,0.055l0.391,0.156l0.335,0.098l0.431,0.297l0.055,0.309l-0.027,0.16l-0.081,0.164l-0.081,0.107l-0.081,0.389
			l0.026,0.162v0.176l-0.108,0.377l-0.052,0.365l0.081,0.418l-0.081,0.297v0.133l0.026,0.176l-0.026,0.135v0.365l-0.054,0.133v0.242
			l0.026,0.176l-0.026,0.326v0.211l0.054,0.121l0.026,0.217l-0.026,0.162l-0.054,0.254l0.08,0.297v0.23l-0.026,0.135l-0.082,0.523
			l-0.068,0.109l0.122,0.084l-0.054,0.104l0.108,0.703l0.055,0.378l-0.055,0.078l0.026,0.176l-0.026,0.138l0.08,0.242l0.243,0.078
			l0.229,0.309v0.109l-0.121,0.204l-0.108,0.158l-0.106,0.055l-0.365,0.083l-0.107,0.055l-0.135,0.079h-0.188l-0.205,0.025
			l-0.188,0.083l-0.214,0.066l-0.524,0.242l-0.285,0.082l-0.498,0.188l-0.107,0.066l-0.608,0.272l-0.213,0.188l-0.109,0.173
			l0.027,0.214l0.135,0.259l0.054,0.32l-0.107,0.219l-0.474,0.309l-0.335-0.025l-0.134-0.055l-0.108-0.027l-0.081-0.08l-0.364-0.23
			l-0.297-0.055l-0.053-0.109l-0.228-0.023l-0.109-0.055l-0.108-0.078l-0.202-0.086l-0.108-0.121l-0.444-0.239l-0.351-0.309
			l-0.713-0.327l-0.202-0.079l-0.163-0.082l-0.134-0.067h-0.108l-0.335-0.16l-0.189-0.054l-0.176-0.245l0.08-0.279l0.336-0.394
			l0.054-0.161l0.108-0.242l0.081-0.309l0.042-0.325l0.025-0.081l0.083-0.621l0.026-0.633l0.134-0.104l-0.161-0.164v-0.391v-0.352
			v-0.121l-0.028-0.162l0.055-0.242l-0.026-0.146l-0.028-0.379l0.108-0.363v-0.162l-0.108-0.188l0.028-0.176l0.08-0.27l-0.108-0.105
			l-0.026-0.258v-0.107v-0.256l0.054-0.133l-0.054-0.164l-0.028-0.188l0.028-0.418l-0.028-0.217l-0.025-0.471l-0.147-0.363
			l-0.164-0.109l-0.163-0.188l-0.051-0.229l0.026-0.084l0.08-0.135l0.054-0.105l0.323-0.148l0.284-0.082l0.244-0.025l0.363-0.082
			l0.16-0.025l0.364-0.109l0.364-0.133l0.607-0.176l0.242-0.217l0.335-0.189l0.244-0.229l0.134-0.24l0.054-0.176l-0.025-0.297
			l0.025-0.107l0.122-0.201l0.214-0.162L164.034,199.313z M163.427,202.155l-0.216,0.08v0.162l0.028,0.121l0.106,0.215v0.523
			l0.028,0.5v0.352l0.026,0.121v0.078v0.139v0.268v0.15v0.133l-0.026,0.217l0.054,0.176v0.43l0.026,0.174l0.028,0.219l-0.055,0.242
			l-0.054,0.281l0.188,0.418v0.109l-0.134,0.35l0.026,0.201l-0.026,0.217l-0.082,0.229l0.054,0.107l-0.054,0.268l-0.051,0.525
			l-0.055,0.34l-0.109,0.241l-0.146,0.309l-0.055,0.138l0.121,0.133l0.403,0.163l0.176,0.024h0.108l0.349,0.097h0.256l0.137,0.024
			l0.552,0.108h0.162l0.283-0.026l0.055-0.203v-0.109l-0.31-0.349l-0.163-0.285l-0.081-0.521l0.026-0.191l0.054-0.686l0.025-0.283
			v-0.162l-0.025-0.078l0.025-0.26l-0.052-0.133l0.027-0.473l0.188-0.188l0.026-0.109l-0.161-0.312l0.026-0.24l0.134-0.309
			l-0.189-0.219v-0.133l-0.052-0.336v-0.527l-0.054-0.211l0.054-0.262v-0.295l0.052-0.188l-0.025-0.254l0.054-0.217l0.109-0.23
			v-0.215l-0.405,0.107l-0.176-0.055l-0.188-0.053l-0.214-0.135l-0.202-0.146l-0.162-0.162l-0.365-0.109L163.427,202.155z"/>
	</g>
	<path d="M184.336,201.179l1.486,3.045l3.389,0.523l-2.485,2.326l0.542,3.335l-3.023-1.606l-3.057,1.537l0.619-3.32l-2.429-2.383
		l3.402-0.449L184.336,201.179z"/>
	<path d="M62.319,200.702l1.484,3.043l3.392,0.523l-2.487,2.326l0.541,3.333l-3.02-1.603l-3.06,1.536l0.62-3.323l-2.43-2.381
		l3.403-0.449L62.319,200.702z"/>
</g>
<g id="Capa_15">
	<g>
		<g>
			<g>
				<path fill-rule="evenodd" clip-rule="evenodd" d="M56.989,147.339c2.501,4.784,6.464,7.652,8.853,6.403
					c2.377-1.251,2.283-6.136-0.22-10.922c-2.511-4.788-6.467-7.652-8.853-6.404C54.384,137.666,54.478,142.553,56.989,147.339z"/>
				<path d="M47.045,151.505c-4.016-9.285,4.935-13.734,4.935-13.734l4.789-1.354l9.983,16.208
					C66.752,152.625,51.997,162.209,47.045,151.505z"/>
				<path fill-rule="evenodd" clip-rule="evenodd" fill="#D1AB6F" d="M57.468,139.253c6.599,1.675,7.278,11.217,7.278,11.217
					s-10.247,6.976-14.224,0.192C46.549,143.883,53.429,139.401,57.468,139.253z"/>
				<path fill="#31738B" d="M63.233,144.659c0.66,5.668-2.592,7.263-5.331,8.728c3.558-0.732,6.843-2.917,6.843-2.917
					S64.376,146.642,63.233,144.659z"/>
			</g>
			<path fill-rule="evenodd" clip-rule="evenodd" fill="#D7DADD" d="M57.468,139.253c0,0-5.335,0.109-7.508,5.313
				c-0.619,2.5,11.896-2.277,10.84-3.459C59.605,139.825,57.468,139.253,57.468,139.253z"/>
			<path fill="#FBC52F" d="M99.77,171.847C55.368,160.642,28.365,115.408,39.568,71.01c11.206-44.402,56.443-71.406,100.844-60.2
				c44.402,11.205,71.41,56.448,60.2,100.843C189.408,156.057,144.168,183.054,99.77,171.847z"/>
			<path d="M141.027,12.016c43.493,10.976,69.85,55.13,58.875,98.625c-10.98,43.488-55.132,69.844-98.625,58.867
				c-43.495-10.977-69.854-55.125-58.879-98.619C53.38,27.398,97.534,1.038,141.027,12.016 M141.923,8.468
				C96.545-2.986,50.309,24.615,38.854,69.996c-4.935,19.563-12.36,84.414,61.527,103.056
				c44.468,11.225,91.359-15.143,103.068-61.519C214.9,66.156,187.299,19.924,141.923,8.468L141.923,8.468z"/>
			<path fill="#FCFCFC" d="M59.113,99.489c-8.292,10.352-7.539,23.877-5.695,28.154C25.296,86.84,46.664,29.76,95.637,13.799
				C78.997,21.373,44.922,53.428,59.113,99.489z"/>
			<path d="M141.027,12.016c-1.506-0.321-2.987-0.706-4.481-0.999c40.63,10.478,65.145,52.067,54.787,93.106
				c-3.154,14.13-12.488,31.133-29.171,41.644c-3.178,1.717-10.307,7.684-16.584,10.963c-14.459,5.858-30.797,7.357-47.034,3.253
				c-39.894-10.063-64.365-50.095-55.822-90.295c-0.108,0.399-0.218,0.797-0.323,1.202c-10.975,43.494,15.384,87.642,58.879,98.619
				c43.493,10.977,87.645-15.379,98.625-58.867C213.442,56.989,177.017,19.634,141.027,12.016z"/>
			<path fill-rule="evenodd" clip-rule="evenodd" d="M191.161,124.037c-2.361,5.855-6.644,9.647-9.562,8.47
				c-2.913-1.177-3.366-6.872-1.006-12.73c2.369-5.858,6.646-9.648,9.562-8.471C193.074,112.486,193.521,118.182,191.161,124.037z"
				/>
			<path d="M203.205,127.744c3.604-11.268-7.324-15.414-7.324-15.414l-14.249,7.766l-1.226,11.225
				C180.405,131.321,198.682,140.771,203.205,127.744z"/>
			<path fill-rule="evenodd" clip-rule="evenodd" fill="#D1AB6F" d="M189.669,114.687c-7.486,2.708-7.175,13.892-7.175,13.892
				s12.728,6.937,16.571-1.415C202.907,118.814,194.382,114.392,189.669,114.687z"/>
			<path fill="#31738B" d="M183.584,121.641c8.255,5.338,15.821,3.575,16.289,3.114c-2.157,11.905-17.379,3.824-17.379,3.824
				S182.486,124.079,183.584,121.641z"/>
			<path d="M79.782,157.402c0,0,7.841,5.34,9.087,7.185c-4.752-3.503-10.069-5.336-10.069-5.336l-0.161-2.382L79.782,157.402z"/>
		</g>
		<path d="M178.577,36.824c-24.793-2.279-54.674-22.282-54.971-22.483l-4.083-2.755l-0.434,4.901
			c-0.005,0.058-0.54,5.749-2.943,13.257c-1.934,6.04-5.468,14.396-11.614,21.695c-1.099-1.524-2.335-2.768-3.698-3.717
			c-2.125-1.485-4.5-2.236-7.064-2.236c-4.557,0-8.544,2.428-10.577,4.508c-4.06,4.158-5.315,10.818-3.049,16.195
			c2.206,5.241,7.128,8.247,13.505,8.247c1.429,0,2.944-0.151,4.505-0.452l0.675-0.129l0.545-0.417
			c10.615-8.139,17.977-19.417,22.285-27.446c2.65-4.937,4.486-9.241,5.59-12.078c2.115,1.333,5.217,3.197,9.072,5.243
			c6.373,3.385,16.009,7.881,26.709,10.717c-0.698,9.392-4.642,17.449-7.42,22.07c-8.667-5.917-17.286-8.914-25.667-8.915
			c-8.793,0-17.38,3.379-24.843,9.774c-3.029,2.592-5.294,5.187-6.754,7.045c-0.183-0.14-0.371-0.279-0.564-0.42
			c-2.646-1.929-4.84-2.867-6.713-2.867c-0.621,0-1.214,0.103-1.762,0.303l-0.027,0.013l-0.026,0.009
			c-2.587,1.01-5.276,3.766-7.043,5.851c-3.728-2.713-11.286-7.368-19.25-7.368c-0.324,0-0.651,0.008-0.971,0.023
			c-5.228,0.221-10.402,6.25-16.623,14.104c-1.595,2.014-3.402,4.296-4.146,4.87l-1.235,0.948l0.109,1.554
			c0.41,5.869,5.268,8.456,9.17,10.536c0.984,0.523,1.911,1.017,2.772,1.548c1.409,0.871,2.697,1.881,3.941,2.858
			c2.545,1.995,4.951,3.881,7.78,3.881c0.175,0,0.354-0.008,0.529-0.023c3.088-0.265,7.032-2.439,12.05-6.646
			c0.276-0.229,0.544-0.458,0.808-0.686c-0.933,1.512-1.307,3.361-0.96,5.262c0.498,2.731,2.382,4.719,4.716,5.093
			c3.738,2.769,7.615,4.171,11.541,4.171c5.593,0,10.21-2.702,14.291-5.173c5.39-0.121,8.403-2.157,9.994-3.874
			c1.704-1.837,2.581-4.224,2.403-6.546c-0.03-0.403-0.089-0.799-0.174-1.182c2.946,0.701,6.456,1.244,10.26,1.244
			c10.134,0,24.098-3.942,33.188-22.665c1.48-2.056,11.235-16.296,18.709-44.201l0.889-3.326L178.577,36.824z"/>
		<path fill="#0071BC" d="M161.294,80.053c-38.764-33.979-62.423,4.028-62.423,4.028s-5.802-5.507-8.56-4.493
			c-3.339,1.307-7.615,7.216-7.615,7.216s-10.255-9.015-20.575-8.512c-6.292,0.25-15.857,15.856-19.13,18.374
			c0.378,5.411,6.138,7.079,10.572,9.817c4.432,2.736,7.533,6.543,10.478,6.293c5.883-0.505,16.457-11.579,16.457-11.579
			s1.971,3.511,1.42,6.796c-4.614,1.742-3.212,8.188,0.037,7.846c9.787,7.772,17.497,2.868,23.963-1.05
			c7.62,0.113,10.566-4.068,10.32-7.3c-0.298-3.922-4.782-7.048-4.782-7.048S145.689,117.81,161.294,80.053z"/>
		<path fill="#65C8D0" d="M98.872,84.082c13.494-19.027,28.596-18.152,28.596-18.152s-13.354,1.873-27.931,21.314
			c-7.042-7.294-10.894-6.705-10.894-6.705s0.771-1.013,2.318-1.072C92.658,79.403,95.29,80.442,98.872,84.082z"/>
		<path fill="#0071BC" d="M155.105,77.884c0,0,10.668-13.345,10.934-30.247c-21.93-5.223-40.263-18.171-40.263-18.171
			s-8.41,26.52-28.169,41.667C81.69,74.185,78.498,58.953,85.27,52.021c3.354-3.433,13.1-7.682,18.754,4.288
			c15.881-16.132,17.956-39.562,17.956-39.562s30.511,20.595,56.333,22.967c-7.91,29.534-18.408,43.452-18.408,43.452
			L155.105,77.884z"/>
		<path fill="#65C8D0" d="M43.431,98.685c0,0,12.89-16.526,18.691-20.393c-3.51-1.321-19.13,18.374-19.13,18.374L43.431,98.685z"/>
		<path fill="#65C8D0" d="M91.047,48.749c-6.577,6.867-7.001,18.475-7.001,18.475S76.569,54.444,91.047,48.749z"/>
		<path fill="#D1AB6F" d="M103.52,88.223c0-0.419,21.726-33.082,51.585-5.888C133.237,115.277,103.52,88.223,103.52,88.223z"/>
		<path fill="#31738B" d="M111.795,81.072c0,0-3.521,0.739-8.275,7.151c1.13,1.295,8.794,5.662,8.794,5.662
			s-3.465-6.007-3.349-7.689C109.079,84.514,111.795,81.072,111.795,81.072z"/>
		<path d="M103.52,88.223c0,0,21.672-33.792,51.585-5.888C126.722,60.842,103.52,88.223,103.52,88.223z"/>
		<path d="M155.105,82.335c-22.799,29.5-51.585,5.888-51.585,5.888S133.549,115.297,155.105,82.335z"/>
		<path fill="#D1AB6F" d="M47.448,96.353c7.288-5.045,13.317-26.492,31.959-5.186C68.194,118.922,52.073,99.158,47.448,96.353z"/>
		<path fill="#31738B" d="M51.491,93.587c0,0,2.398,7.861,10.978,10.853c-4.766,0.389-15.021-8.087-15.021-8.087L51.491,93.587z"/>
		<g>
			<path fill="#FFFFFF" d="M92.674,118.743l-0.007-0.43c0.553-0.01,1.118-0.057,1.679-0.139l0.064,0.425
				C93.829,118.683,93.247,118.731,92.674,118.743z M90.934,118.654c-0.57-0.069-1.145-0.176-1.712-0.324l0.108-0.415
				c0.547,0.142,1.104,0.248,1.655,0.312L90.934,118.654z M96.113,118.247l-0.111-0.415c0.524-0.141,1.069-0.314,1.614-0.516
				l0.149,0.402C97.206,117.925,96.65,118.104,96.113,118.247z M87.569,117.788c-0.523-0.208-1.054-0.451-1.577-0.728l0.2-0.38
				c0.51,0.268,1.026,0.507,1.536,0.71L87.569,117.788z M99.364,117.055l-0.179-0.388c0.494-0.227,0.994-0.472,1.529-0.754
				l0.199,0.381C100.372,116.577,99.864,116.825,99.364,117.055z M84.498,116.178c-0.469-0.304-0.944-0.64-1.414-0.999l0.261-0.339
				c0.461,0.353,0.927,0.681,1.386,0.98L84.498,116.178z M102.422,115.461l-0.215-0.372c0.497-0.285,0.988-0.576,1.477-0.867
				l0.22,0.367C103.413,114.884,102.919,115.177,102.422,115.461z M81.706,114.638c-0.551,0-1.049-0.473-1.332-1.266l0.404-0.144
				c0.17,0.473,0.501,0.979,0.927,0.979l0.032,0.429L81.706,114.638z M105.372,113.7l-0.223-0.366l0.322-0.195l0.471,0.007
				c0.324,0.004,0.644,0.001,0.981-0.012l0.017,0.429c-0.347,0.014-0.673,0.015-1.003,0.011l-0.349-0.005L105.372,113.7z
				 M108.671,113.398l-0.065-0.423c0.58-0.09,1.131-0.216,1.638-0.375l0.13,0.411C109.846,113.175,109.271,113.305,108.671,113.398z
				 M111.994,112.335l-0.206-0.376c0.503-0.275,0.957-0.601,1.343-0.968l0.294,0.313
				C113.012,111.694,112.529,112.044,111.994,112.335z M80.661,111.647l-0.421-0.079c0.117-0.621,0.402-1.181,0.823-1.617
				l0.31,0.299C81.008,110.626,80.763,111.11,80.661,111.647z M63.954,111.563l-0.04-0.426c0.47-0.043,1.01-0.177,1.604-0.398
				l0.149,0.402C65.038,111.376,64.46,111.519,63.954,111.563z M62.195,111.136c-0.432-0.214-0.919-0.512-1.489-0.912l0.244-0.351
				c0.554,0.386,1.023,0.674,1.435,0.876L62.195,111.136z M67.255,110.416l-0.201-0.378c0.463-0.244,0.957-0.532,1.47-0.855
				l0.229,0.363C68.23,109.874,67.726,110.167,67.255,110.416z M114.511,109.896l-0.382-0.199c0.271-0.505,0.427-1.026,0.469-1.55
				l0.428,0.035C114.976,108.763,114.803,109.34,114.511,109.896z M82.752,109.437l-0.151-0.401l0.401-0.153l0.117-0.688
				c0.018-0.11,0.033-0.219,0.047-0.329l0.426,0.053c-0.015,0.116-0.031,0.23-0.049,0.347l-0.157,0.933L82.752,109.437z
				 M59.322,109.195c-0.263-0.202-0.53-0.413-0.801-0.626l-0.551-0.433l0.263-0.338l0.553,0.433c0.27,0.212,0.538,0.42,0.798,0.624
				L59.322,109.195z M70.189,108.585l-0.247-0.35c0.444-0.312,0.909-0.654,1.378-1.011l0.258,0.34
				C71.106,107.926,70.638,108.27,70.189,108.585z M64.542,107.434c-0.571-0.002-1.155-0.043-1.738-0.124l0.056-0.424
				c0.565,0.077,1.131,0.116,1.683,0.12L64.542,107.434z M66.279,107.319l-0.059-0.425c0.553-0.077,1.105-0.198,1.642-0.356
				l0.12,0.413C67.427,107.114,66.854,107.237,66.279,107.319z M56.611,107.098c-0.49-0.364-0.947-0.687-1.389-0.988l0.239-0.355
				c0.45,0.304,0.91,0.632,1.404,1.001L56.611,107.098z M61.097,106.972c-0.545-0.141-1.103-0.318-1.655-0.522l0.148-0.402
				c0.541,0.201,1.083,0.371,1.617,0.51L61.097,106.972z M114.375,106.547c-0.162-0.479-0.409-0.981-0.734-1.49l0.362-0.231
				c0.344,0.539,0.606,1.07,0.779,1.582L114.375,106.547z M72.935,106.497l-0.271-0.333c0.432-0.351,0.874-0.718,1.315-1.096
				l0.277,0.326C73.814,105.772,73.37,106.145,72.935,106.497z M69.616,106.334l-0.18-0.388c0.499-0.23,0.997-0.5,1.479-0.805
				l0.229,0.361C70.645,105.819,70.13,106.098,69.616,106.334z M83.211,106.194c-0.033-0.538-0.11-1.099-0.229-1.669l0.421-0.086
				c0.123,0.588,0.203,1.17,0.236,1.728L83.211,106.194z M57.844,105.774c-0.506-0.239-1.022-0.508-1.537-0.795l0.21-0.375
				c0.505,0.285,1.015,0.548,1.511,0.782L57.844,105.774z M53.783,105.195c-0.43-0.253-0.902-0.521-1.485-0.839l0.205-0.376
				c0.587,0.32,1.066,0.589,1.5,0.848L53.783,105.195z M72.559,104.491l-0.271-0.333c0.427-0.344,0.852-0.722,1.264-1.126
				l0.302,0.306C73.432,103.751,72.998,104.141,72.559,104.491z M75.554,104.259l-0.286-0.317c0.441-0.395,0.865-0.783,1.266-1.157
				l0.293,0.315C76.422,103.476,75.996,103.864,75.554,104.259z M54.827,104.085c-0.465-0.298-0.946-0.625-1.427-0.969l0.248-0.348
				c0.478,0.339,0.952,0.662,1.412,0.956L54.827,104.085z M112.623,103.719c-0.367-0.413-0.768-0.817-1.195-1.197l0.286-0.318
				c0.438,0.39,0.852,0.805,1.23,1.233L112.623,103.719z M50.787,103.548c-0.485-0.26-1.005-0.54-1.511-0.827l0.213-0.374
				c0.5,0.287,1.016,0.562,1.499,0.822L50.787,103.548z M129.813,103.209l-0.008-0.429c0.57-0.009,1.142-0.034,1.705-0.071
				l0.03,0.429C130.971,103.175,130.391,103.2,129.813,103.209z M128.09,103.196c-0.571-0.018-1.149-0.05-1.725-0.095l0.035-0.427
				c0.566,0.043,1.139,0.075,1.702,0.093L128.09,103.196z M133.259,102.976l-0.052-0.427c0.564-0.067,1.131-0.151,1.686-0.249
				l0.075,0.421C134.405,102.822,133.831,102.907,133.259,102.976z M124.651,102.93c-0.565-0.069-1.14-0.152-1.709-0.246
				l0.069-0.422c0.563,0.092,1.132,0.174,1.689,0.244L124.651,102.93z M82.539,102.895c-0.181-0.537-0.392-1.066-0.625-1.574
				l0.392-0.18c0.238,0.523,0.454,1.067,0.639,1.617L82.539,102.895z M136.66,102.373l-0.099-0.416
				c0.551-0.13,1.105-0.28,1.645-0.44l0.124,0.412C137.78,102.091,137.217,102.242,136.66,102.373z M121.248,102.371
				c-0.558-0.116-1.123-0.242-1.682-0.382l0.1-0.416c0.558,0.137,1.119,0.264,1.668,0.377L121.248,102.371z M52.013,102.09
				c-0.426-0.328-0.867-0.68-1.347-1.069l0.27-0.331c0.478,0.385,0.915,0.736,1.341,1.06L52.013,102.09z M75.035,102.071
				l-0.326-0.279c0.358-0.417,0.716-0.863,1.062-1.329l0.345,0.256C75.763,101.193,75.399,101.646,75.035,102.071z M78.073,101.912
				l-0.298-0.307c0.433-0.422,0.841-0.831,1.213-1.209l0.305,0.3C78.922,101.075,78.511,101.487,78.073,101.912z M47.8,101.821
				c-0.537-0.354-0.992-0.699-1.389-1.052l0.283-0.322c0.383,0.34,0.822,0.673,1.343,1.018L47.8,101.821z M117.899,101.543
				c-0.554-0.159-1.105-0.331-1.647-0.509l0.133-0.406c0.539,0.175,1.085,0.345,1.633,0.502L117.899,101.543z M139.969,101.383
				l-0.146-0.402c0.528-0.193,1.061-0.407,1.578-0.632l0.174,0.393C141.046,100.971,140.507,101.188,139.969,101.383z
				 M111.088,101.279l-0.367-0.22l0.88-1.471l0.368,0.22L111.088,101.279z M114.625,100.461c-0.561-0.21-1.101-0.427-1.603-0.64
				l0.167-0.395c0.498,0.211,1.031,0.426,1.585,0.634L114.625,100.461z M128.275,100.312c-0.57-0.013-1.151-0.043-1.725-0.089
				l0.035-0.428c0.566,0.045,1.138,0.075,1.7,0.089L128.275,100.312z M130.003,100.302l-0.014-0.429
				c0.568-0.02,1.138-0.058,1.696-0.11l0.04,0.426C131.161,100.242,130.578,100.281,130.003,100.302z M124.835,100.038
				c-0.562-0.075-1.135-0.168-1.705-0.274l0.079-0.423c0.562,0.107,1.128,0.199,1.682,0.273L124.835,100.038z M143.135,100.003
				l-0.193-0.382c0.502-0.257,1.005-0.533,1.491-0.819l0.218,0.368C144.158,99.461,143.647,99.742,143.135,100.003z M133.44,99.972
				l-0.067-0.425c0.56-0.087,1.12-0.194,1.67-0.318l0.093,0.42C134.58,99.772,134.008,99.882,133.44,99.972z M49.341,99.926
				l-0.266-0.223c-0.382-0.316-0.73-0.608-1.053-0.873l0.272-0.332c0.322,0.264,0.672,0.557,1.04,0.864l0.28,0.233L49.341,99.926z
				 M81.116,99.821l-0.365-0.651l-0.268,0.284l-0.312-0.296l0.671-0.702l0.649,1.153L81.116,99.821z M45.225,99.468
				c-0.35-0.498-0.614-1.034-0.783-1.59l0.408-0.126c0.16,0.521,0.397,1.003,0.726,1.47L45.225,99.468z M121.443,99.403
				c-0.553-0.132-1.112-0.28-1.669-0.44l0.119-0.412c0.549,0.159,1.105,0.305,1.648,0.435L121.443,99.403z M77.104,99.303
				l-0.359-0.235c0.303-0.461,0.604-0.949,0.895-1.449l0.37,0.216C77.713,98.341,77.41,98.833,77.104,99.303z M136.809,99.219
				l-0.119-0.412c0.545-0.158,1.088-0.336,1.616-0.526l0.147,0.405C137.916,98.88,137.363,99.059,136.809,99.219z M118.129,98.451
				c-0.536-0.181-1.079-0.375-1.622-0.584l0.153-0.401c0.537,0.205,1.077,0.4,1.605,0.577L118.129,98.451z M146.11,98.25
				l-0.241-0.356c0.465-0.312,0.93-0.647,1.382-0.991l0.261,0.34C147.053,97.593,146.581,97.932,146.11,98.25z M140.061,98.05
				l-0.171-0.394c0.518-0.224,1.036-0.466,1.542-0.721l0.193,0.382C141.111,97.578,140.586,97.823,140.061,98.05z M46.675,97.811
				l-0.079-0.052l-1.384-0.836l0.224-0.367l1.469,0.893L46.675,97.811z M114.908,97.221c-0.526-0.226-1.055-0.463-1.57-0.708
				l0.183-0.389c0.513,0.243,1.035,0.479,1.557,0.701L114.908,97.221z M143.142,96.495l-0.216-0.37
				c0.486-0.281,0.975-0.583,1.449-0.894l0.235,0.356C144.128,95.904,143.636,96.21,143.142,96.495z M78.845,96.326l-0.381-0.199
				c0.258-0.488,0.515-1.001,0.766-1.526l0.387,0.185C79.363,95.314,79.102,95.834,78.845,96.326z M148.854,96.156l-0.28-0.323
				c0.428-0.367,0.852-0.752,1.266-1.144l0.295,0.31C149.719,95.398,149.288,95.786,148.854,96.156z M111.792,95.748
				c-0.505-0.263-1.016-0.537-1.516-0.819l0.21-0.374c0.497,0.279,1.001,0.552,1.502,0.812L111.792,95.748z M46.867,95.276
				l-0.144-0.2c-0.023,0.03-0.048,0.059-0.072,0.088l-0.33-0.273c0.342-0.415,0.7-0.858,1.078-1.331l0.334,0.269
				c-0.156,0.197-0.31,0.386-0.46,0.574c0.197-0.172,0.401-0.364,0.613-0.575l0.303,0.304
				C47.717,94.602,47.285,94.975,46.867,95.276z M146.029,94.602l-0.256-0.346c0.452-0.331,0.904-0.683,1.348-1.043l0.271,0.332
				C146.942,93.909,146.484,94.266,146.029,94.602z M108.791,94.058c-0.488-0.297-0.978-0.607-1.458-0.921l0.234-0.359
				c0.476,0.312,0.961,0.619,1.444,0.914L108.791,94.058z M151.354,93.775l-0.313-0.295c0.387-0.41,0.77-0.836,1.14-1.266
				l0.327,0.28C152.134,92.93,151.745,93.362,151.354,93.775z M80.329,93.219l-0.392-0.173c0.201-0.457,0.4-0.938,0.598-1.423
				l0.062-0.154l0.396,0.162l-0.061,0.153C80.734,92.273,80.532,92.756,80.329,93.219z M49.363,92.861l-0.325-0.283
				c0.324-0.373,0.681-0.801,1.09-1.313l0.335,0.268C50.049,92.05,49.69,92.484,49.363,92.861z M48.801,92.487l-0.336-0.268
				l1.067-1.344l0.336,0.268L48.801,92.487z M148.701,92.423l-0.287-0.319c0.419-0.374,0.836-0.767,1.243-1.168l0.3,0.307
				C149.546,91.649,149.122,92.044,148.701,92.423z M105.907,92.168c-0.473-0.333-0.941-0.676-1.391-1.015l0.261-0.342
				c0.443,0.338,0.908,0.677,1.379,1.008L105.907,92.168z M153.602,91.16l-0.338-0.264c0.347-0.445,0.689-0.905,1.021-1.367
				l0.35,0.25C154.299,90.247,153.953,90.712,153.602,91.16z M80.242,90.277c-0.386-0.438-0.771-0.866-1.146-1.269l0.315-0.292
				c0.376,0.404,0.763,0.835,1.152,1.277L80.242,90.277z M51.53,90.189l-0.337-0.266l0.061-0.075
				c0.329-0.421,0.663-0.845,1.004-1.271l0.335,0.268c-0.338,0.426-0.673,0.849-1.003,1.269L51.53,90.189z M103.162,90.083
				c-0.5-0.411-0.749-0.643-0.751-0.645l-0.536-0.489v-0.201h0.311l0.048-0.052l0.468,0.425c0.004,0.003,0.252,0.232,0.734,0.631
				L103.162,90.083z M151.163,90.013l-0.311-0.295c0.386-0.409,0.77-0.836,1.145-1.266l0.323,0.283
				C151.941,89.167,151.552,89.597,151.163,90.013z M50.938,89.803l-0.334-0.268c0.36-0.444,0.721-0.889,1.087-1.332l0.33,0.273
				C51.655,88.917,51.295,89.36,50.938,89.803z M82.97,89.232l-0.839-0.737l0.284-0.322l0.485,0.428l0.35-0.486l0.347,0.252
				L82.97,89.232z M155.605,88.355l-0.357-0.235c0.307-0.469,0.612-0.953,0.906-1.445l0.366,0.223
				C156.224,87.392,155.917,87.881,155.605,88.355z M77.914,87.775c-0.408-0.412-0.821-0.812-1.224-1.188l0.293-0.314
				c0.407,0.381,0.823,0.784,1.236,1.2L77.914,87.775z M53.673,87.519l-0.33-0.274c0.398-0.476,0.768-0.902,1.129-1.303l0.319,0.288
				C54.433,86.626,54.067,87.046,53.673,87.519z M153.425,87.412l-0.331-0.269c0.349-0.432,0.703-0.885,1.049-1.346l0.342,0.26
				C154.136,86.521,153.778,86.977,153.425,87.412z M80.824,87.396c-0.432-0.34-0.89-0.687-1.367-1.029l0.251-0.35
				c0.482,0.35,0.945,0.698,1.38,1.041L80.824,87.396z M102.68,87.237l-0.369-0.222c0.231-0.381,0.557-0.847,0.992-1.423l0.342,0.26
				C103.225,86.406,102.9,86.872,102.68,87.237z M53.125,87.168l-0.327-0.281c0.398-0.462,0.768-0.887,1.135-1.293l0.319,0.288
				C53.888,86.286,53.519,86.706,53.125,87.168z M84.615,86.994l-0.34-0.264c0.349-0.444,0.716-0.896,1.093-1.337l0.327,0.277
				C85.32,86.107,84.957,86.554,84.615,86.994z M98.984,86.454l-1.245-1.182l0.299-0.307l1.241,1.175L98.984,86.454z M75.416,85.452
				c-0.442-0.377-0.888-0.738-1.324-1.07l0.26-0.34c0.443,0.335,0.895,0.699,1.344,1.083L75.416,85.452z M157.383,85.406
				l-0.374-0.208c0.272-0.494,0.544-1.002,0.801-1.507l0.382,0.196C157.933,84.396,157.66,84.907,157.383,85.406z M78.053,85.392
				c-0.473-0.313-0.957-0.624-1.44-0.92l0.223-0.367c0.489,0.3,0.978,0.613,1.455,0.929L78.053,85.392z M100.227,85.014
				l-0.365-0.225l0.04-0.066c0.003-0.005,0.318-0.509,0.947-1.362l0.345,0.255c-0.606,0.823-0.925,1.328-0.929,1.335L100.227,85.014
				z M55.968,84.997l-0.302-0.305c0.428-0.425,0.858-0.818,1.276-1.173l0.277,0.328C56.81,84.193,56.388,84.58,55.968,84.997z
				 M155.5,84.665l-0.349-0.246c0.325-0.46,0.648-0.935,0.964-1.41l0.36,0.237C156.154,83.725,155.828,84.202,155.5,84.665z
				 M55.412,84.627l-0.31-0.296c0.214-0.22,0.426-0.439,0.64-0.653c0.196-0.197,0.389-0.388,0.578-0.568l0.296,0.309
				c-0.186,0.178-0.376,0.366-0.571,0.563C55.833,84.192,55.622,84.407,55.412,84.627z M104.707,84.514l-0.332-0.273
				c0.358-0.435,0.734-0.876,1.122-1.309l0.319,0.286C105.435,83.649,105.061,84.085,104.707,84.514z M86.832,84.396l-0.315-0.292
				c0.42-0.447,0.83-0.859,1.219-1.228l0.295,0.312C87.646,83.549,87.243,83.955,86.832,84.396z M96.461,84.15
				c-0.445-0.366-0.897-0.718-1.348-1.042l0.251-0.349c0.458,0.333,0.918,0.688,1.37,1.06L96.461,84.15z M75.135,83.61
				c-0.502-0.281-1.01-0.549-1.509-0.797l0.193-0.384c0.502,0.252,1.017,0.523,1.525,0.807L75.135,83.61z M72.707,83.394
				c-0.486-0.322-0.971-0.618-1.449-0.882l0.208-0.375c0.486,0.27,0.983,0.572,1.479,0.902L72.707,83.394z M58.563,82.812
				l-0.246-0.354c0.492-0.339,0.993-0.642,1.488-0.903l0.199,0.381C59.524,82.187,59.04,82.482,58.563,82.812z M158.849,82.549
				l-0.341-0.26l0.086-0.113c0.058-0.076,0.367-0.498,0.885-1.284l0.359,0.236c-0.528,0.795-0.843,1.224-0.898,1.301L158.849,82.549
				z M57.877,82.277L57.6,81.949c0.472-0.402,0.934-0.761,1.368-1.065l0.246,0.353C58.791,81.534,58.339,81.883,57.877,82.277z
				 M102.236,82.263l-0.334-0.269c0.353-0.44,0.724-0.884,1.105-1.321l0.325,0.279C102.955,81.388,102.585,81.828,102.236,82.263z
				 M93.703,82.162c-0.553-0.334-1.056-0.594-1.493-0.772l0.162-0.399c0.458,0.187,0.98,0.458,1.551,0.806L93.703,82.162z
				 M72.083,82.085c-0.527-0.233-1.058-0.449-1.576-0.646l0.151-0.4c0.526,0.198,1.064,0.418,1.598,0.654L72.083,82.085z
				 M89.315,82.081l-0.262-0.339c0.542-0.417,1.045-0.731,1.495-0.934l0.177,0.391C90.307,81.388,89.832,81.685,89.315,82.081z
				 M156.583,82.042l-0.662-0.604c-0.204-0.185-0.406-0.367-0.61-0.547l0.285-0.32c0.206,0.18,0.41,0.364,0.615,0.549l0.661,0.602
				L156.583,82.042z M106.975,81.962l-0.311-0.297c0.395-0.411,0.804-0.824,1.213-1.223l0.299,0.307
				C107.77,81.146,107.365,81.554,106.975,81.962z M69.741,81.762c-0.53-0.23-1.063-0.422-1.585-0.579l0.121-0.411
				c0.539,0.16,1.089,0.361,1.634,0.598L69.741,81.762z M61.545,81.268l-0.142-0.407c0.554-0.191,1.125-0.34,1.692-0.439
				l0.075,0.422C62.625,80.94,62.079,81.081,61.545,81.268z M68.896,80.885c-0.554-0.17-1.104-0.319-1.641-0.445l0.098-0.417
				c0.545,0.127,1.106,0.281,1.669,0.453L68.896,80.885z M66.513,80.813c-0.529-0.078-1.063-0.12-1.584-0.12l-0.09,0.001
				l-0.005-0.429h0.093c0.544,0,1.099,0.042,1.648,0.124L66.513,80.813z M60.655,80.377l-0.185-0.386
				c0.633-0.302,1.211-0.465,1.712-0.485l0.018,0.212v0.217C61.755,79.951,61.237,80.102,60.655,80.377z M65.587,80.118
				c-0.569-0.084-1.137-0.145-1.687-0.175l0.025-0.429c0.563,0.031,1.143,0.093,1.727,0.181L65.587,80.118z M154.02,79.774
				c-0.438-0.367-0.885-0.73-1.326-1.076l0.266-0.336c0.446,0.35,0.894,0.715,1.334,1.084L154.02,79.774z M104.475,79.686
				l-0.312-0.292c0.395-0.421,0.798-0.836,1.201-1.236l0.301,0.304C105.266,78.859,104.866,79.271,104.475,79.686z M160.768,79.678
				l-0.365-0.225c0.271-0.436,0.568-0.924,0.887-1.462l0.369,0.217C161.337,78.751,161.04,79.241,160.768,79.678z M109.423,79.583
				l-0.287-0.316c0.275-0.25,0.559-0.499,0.85-0.749c0.147-0.125,0.298-0.254,0.451-0.382l0.275,0.329
				c-0.151,0.128-0.302,0.254-0.447,0.378C109.976,79.092,109.697,79.338,109.423,79.583z M156.796,78.43l-0.419-0.312l0.257-0.344
				l0.06,0.046l0.673-0.989l0.352,0.242L156.796,78.43z M151.334,77.664c-0.461-0.339-0.929-0.672-1.393-0.987l0.241-0.355
				c0.469,0.319,0.941,0.653,1.407,0.998L151.334,77.664z M112.045,77.398l-0.26-0.339c0.46-0.353,0.927-0.697,1.39-1.022
				l0.246,0.351C112.963,76.71,112.501,77.051,112.045,77.398z M106.902,77.283l-0.292-0.317c0.381-0.35,0.776-0.701,1.169-1.038
				l0.123-0.104l0.277,0.328l-0.12,0.102C107.669,76.589,107.279,76.934,106.902,77.283z M155.005,77.091
				c-0.458-0.336-0.924-0.67-1.39-0.997l0.248-0.35c0.465,0.324,0.937,0.664,1.397,1.002L155.005,77.091z M162.521,76.722
				l-0.375-0.213c0.268-0.469,0.546-0.966,0.834-1.494l0.375,0.205C163.068,75.75,162.789,76.25,162.521,76.722z M148.515,75.739
				c-0.487-0.309-0.98-0.604-1.462-0.883l0.214-0.372c0.488,0.281,0.983,0.581,1.477,0.892L148.515,75.739z M158.672,75.633
				l-0.365-0.229c0.303-0.474,0.605-0.962,0.9-1.456l0.37,0.222C159.278,74.666,158.973,75.157,158.672,75.633z M114.837,75.438
				l-0.23-0.361c0.483-0.311,0.981-0.612,1.474-0.896l0.213,0.37C115.807,74.833,115.316,75.13,114.837,75.438z M152.203,75.135
				c-0.478-0.316-0.963-0.625-1.438-0.921l0.226-0.364c0.479,0.297,0.968,0.609,1.448,0.928L152.203,75.135z M109.501,75.073
				l-0.266-0.339c0.456-0.355,0.918-0.704,1.377-1.034l0.254,0.347C110.41,74.375,109.95,74.72,109.501,75.073z M145.558,74.037
				c-0.502-0.263-1.018-0.518-1.529-0.756l0.182-0.389c0.515,0.243,1.037,0.498,1.545,0.763L145.558,74.037z M117.791,73.734
				l-0.198-0.381c0.517-0.265,1.038-0.517,1.556-0.751l0.177,0.391C118.815,73.224,118.299,73.473,117.791,73.734z M164.166,73.704
				l-0.379-0.198c0.255-0.487,0.518-0.995,0.786-1.523l0.381,0.193C164.686,72.706,164.423,73.214,164.166,73.704z M149.298,73.334
				c-0.498-0.29-1.001-0.568-1.491-0.832l0.202-0.379c0.496,0.267,1.001,0.548,1.504,0.841L149.298,73.334z M112.271,73.081
				l-0.236-0.358c0.483-0.316,0.974-0.623,1.464-0.913l0.218,0.367C113.235,72.466,112.747,72.77,112.271,73.081z M160.437,72.677
				l-0.374-0.208c0.277-0.496,0.553-1,0.815-1.503l0.381,0.199C160.995,71.67,160.718,72.177,160.437,72.677z M142.467,72.601
				c-0.528-0.217-1.063-0.419-1.593-0.603l0.141-0.405c0.537,0.188,1.08,0.394,1.615,0.611L142.467,72.601z M120.895,72.329
				l-0.156-0.399c0.538-0.211,1.085-0.409,1.625-0.586l0.134,0.409C121.963,71.928,121.425,72.121,120.895,72.329z M146.291,71.718
				c-0.512-0.252-1.033-0.5-1.546-0.729l0.179-0.391c0.515,0.232,1.04,0.48,1.554,0.735L146.291,71.718z M139.251,71.478
				c-0.545-0.157-1.098-0.302-1.648-0.429l0.097-0.417c0.558,0.128,1.119,0.273,1.672,0.436L139.251,71.478z M115.203,71.344
				L115,70.965c0.511-0.27,1.03-0.531,1.544-0.771l0.184,0.389C116.219,70.82,115.706,71.077,115.203,71.344z M124.129,71.266
				l-0.109-0.415c0.556-0.149,1.122-0.282,1.683-0.395l0.083,0.419C125.235,70.989,124.677,71.119,124.129,71.266z M135.935,70.714
				c-0.557-0.094-1.125-0.175-1.685-0.235l0.047-0.425c0.567,0.062,1.141,0.142,1.709,0.238L135.935,70.714z M165.718,70.637
				l-0.384-0.187c0.241-0.494,0.488-1.007,0.741-1.545l0.387,0.184C166.209,69.627,165.959,70.143,165.718,70.637z M127.463,70.586
				l-0.06-0.425c0.567-0.082,1.145-0.144,1.717-0.189l0.034,0.427C128.59,70.443,128.022,70.505,127.463,70.586z M132.553,70.348
				c-0.438-0.021-0.885-0.026-1.327-0.03c-0.125,0-0.248,0.001-0.372,0.003l-0.007-0.43c0.141-0.002,0.283-0.001,0.421-0.002
				c0.437,0,0.874,0.009,1.308,0.031L132.553,70.348z M143.177,70.318c-0.53-0.217-1.067-0.422-1.596-0.612l0.147-0.403
				c0.532,0.192,1.073,0.398,1.61,0.618L143.177,70.318z M94.315,70.303l-0.017-0.428c0.543-0.021,1.112-0.07,1.689-0.145
				l0.054,0.425C95.454,70.232,94.872,70.283,94.315,70.303z M92.578,70.283c-0.597-0.042-1.176-0.117-1.726-0.228l0.085-0.423
				c0.531,0.108,1.092,0.183,1.67,0.222L92.578,70.283z M118.288,69.896l-0.164-0.397c0.533-0.216,1.076-0.422,1.615-0.609
				l0.142,0.403C119.348,69.479,118.812,69.683,118.288,69.896z M162.041,69.629l-0.388-0.19c0.254-0.516,0.501-1.035,0.734-1.546
				l0.389,0.179C162.543,68.586,162.293,69.109,162.041,69.629z M89.173,69.583c-0.558-0.21-1.088-0.463-1.581-0.757l0.22-0.368
				c0.469,0.279,0.977,0.524,1.509,0.722L89.173,69.583z M97.701,69.519l-0.268-0.334c0.441-0.354,0.886-0.718,1.323-1.086
				l0.277,0.326C98.592,68.795,98.146,69.163,97.701,69.519z M139.967,69.163c-0.542-0.168-1.095-0.327-1.641-0.47l0.109-0.413
				c0.553,0.143,1.11,0.304,1.66,0.475L139.967,69.163z M121.503,68.776l-0.119-0.413c0.552-0.16,1.114-0.305,1.668-0.434
				l0.097,0.419C122.603,68.476,122.047,68.619,121.503,68.776z M136.669,68.299c-0.554-0.118-1.119-0.222-1.674-0.313l0.067-0.422
				c0.562,0.09,1.135,0.197,1.697,0.317L136.669,68.299z M124.82,68.014l-0.073-0.423c0.565-0.098,1.14-0.179,1.709-0.245
				l0.051,0.425C125.944,67.836,125.376,67.918,124.82,68.014z M86.182,67.781c-0.431-0.393-0.824-0.831-1.174-1.304l0.346-0.253
				c0.33,0.45,0.707,0.867,1.115,1.239L86.182,67.781z M133.304,67.758c-0.565-0.062-1.135-0.107-1.697-0.138l0.023-0.428
				c0.57,0.03,1.149,0.078,1.72,0.139L133.304,67.758z M128.203,67.625l-0.024-0.427c0.569-0.034,1.148-0.051,1.726-0.053v0.429
				C129.338,67.577,128.763,67.593,128.203,67.625z M167.188,67.531l-0.392-0.179c0.231-0.504,0.466-1.024,0.704-1.562l0.392,0.174
				C167.653,66.504,167.417,67.024,167.188,67.531z M100.331,67.293l-0.285-0.319c0.418-0.373,0.843-0.764,1.259-1.159l0.294,0.313
				C101.18,66.524,100.752,66.917,100.331,67.293z M163.469,66.497l-0.394-0.167c0.221-0.521,0.436-1.053,0.644-1.584l0.398,0.156
				C163.91,65.436,163.692,65.973,163.469,66.497z M84.109,64.971c-0.062-0.131-0.12-0.258-0.171-0.379
				c-0.171-0.407-0.316-0.831-0.436-1.264l0.414-0.113c0.113,0.414,0.255,0.821,0.418,1.209c0.049,0.116,0.102,0.238,0.162,0.362
				L84.109,64.971z M102.838,64.93l-0.303-0.305c0.402-0.401,0.805-0.813,1.197-1.224l0.312,0.296
				C103.648,64.111,103.242,64.527,102.838,64.93z M168.577,64.389l-0.393-0.168c0.221-0.513,0.442-1.037,0.668-1.579l0.394,0.165
				C169.02,63.349,168.8,63.875,168.577,64.389z M164.721,63.289l-0.404-0.146c0.188-0.532,0.374-1.076,0.548-1.617l0.408,0.131
				C165.097,62.201,164.911,62.751,164.721,63.289z M105.216,62.44l-0.316-0.288c0.383-0.419,0.765-0.849,1.138-1.277l0.322,0.281
				C105.987,61.588,105.601,62.021,105.216,62.44z M83.183,61.609c-0.037-0.37-0.057-0.749-0.057-1.124
				c0.001-0.208,0.008-0.414,0.019-0.624l0.427,0.023c-0.01,0.2-0.015,0.399-0.016,0.6c0,0.362,0.018,0.726,0.055,1.079
				L83.183,61.609z M169.9,61.219l-0.398-0.16c0.209-0.521,0.421-1.049,0.634-1.592l0.397,0.154
				C170.32,60.166,170.108,60.698,169.9,61.219z M165.775,60.009l-0.411-0.119c0.156-0.547,0.307-1.102,0.445-1.649l0.414,0.104
				C166.086,58.897,165.934,59.456,165.775,60.009z M107.478,59.847l-0.33-0.274c0.367-0.441,0.728-0.883,1.08-1.327l0.336,0.268
				C108.208,58.959,107.847,59.405,107.478,59.847z M103.542,59.141l-0.538-1.145l0.387-0.183l0.278,0.589l0.316-0.321l0.305,0.301
				L103.542,59.141z M83.794,58.219l-0.419-0.087c0.123-0.571,0.288-1.135,0.494-1.674l0.401,0.151
				C84.071,57.128,83.912,57.671,83.794,58.219z M171.154,58.02l-0.402-0.152c0.199-0.525,0.399-1.061,0.602-1.604l0.402,0.147
				C171.554,56.958,171.354,57.495,171.154,58.02z M109.623,57.159l-0.341-0.26c0.351-0.458,0.693-0.915,1.026-1.37l0.347,0.256
				C110.319,56.24,109.975,56.7,109.623,57.159z M105.494,57.158l-0.309-0.298c0.392-0.401,0.783-0.822,1.168-1.248l0.317,0.29
				C106.283,56.329,105.886,56.752,105.494,57.158z M166.621,56.669l-0.422-0.09c0.123-0.559,0.236-1.123,0.335-1.677l0.422,0.077
				C166.853,55.536,166.742,56.104,166.621,56.669z M102.267,56.456c-0.266-0.523-0.544-1.021-0.83-1.481l0.364-0.225
				c0.292,0.47,0.578,0.978,0.848,1.511L102.267,56.456z M84.991,55.093l-0.371-0.213c0.295-0.511,0.631-0.994,1-1.436l0.329,0.274
				C85.596,54.141,85.274,54.604,84.991,55.093z M172.342,54.799l-0.403-0.145c0.19-0.531,0.381-1.069,0.569-1.615l0.406,0.141
				C172.723,53.728,172.534,54.268,172.342,54.799z M107.809,54.607l-0.328-0.278c0.367-0.432,0.731-0.874,1.088-1.318l0.335,0.269
				C108.545,53.726,108.18,54.174,107.809,54.607z M111.66,54.388l-0.351-0.248c0.334-0.472,0.658-0.942,0.974-1.409l0.355,0.243
				C112.319,53.442,111.994,53.914,111.66,54.388z M100.47,53.59c-0.361-0.458-0.742-0.876-1.132-1.246l0.296-0.311
				c0.405,0.384,0.799,0.818,1.172,1.291L100.47,53.59z M167.229,53.279l-0.422-0.062c0.082-0.564,0.151-1.134,0.21-1.695
				l0.426,0.045C167.384,52.135,167.312,52.709,167.229,53.279z M87.135,52.538l-0.271-0.331c0.435-0.36,0.916-0.696,1.431-1.001
				l0.219,0.369C88.019,51.869,87.554,52.193,87.135,52.538z M109.96,51.918l-0.344-0.256c0.34-0.454,0.678-0.917,1.008-1.383
				l0.349,0.25C110.643,50.997,110.302,51.463,109.96,51.918z M173.473,51.553l-0.41-0.136c0.181-0.535,0.363-1.076,0.544-1.625
				l0.405,0.134C173.833,50.476,173.653,51.019,173.473,51.553z M113.589,51.542l-0.357-0.236c0.316-0.484,0.622-0.965,0.922-1.441
				l0.364,0.228C114.216,50.572,113.908,51.055,113.589,51.542z M98.03,51.302c-0.473-0.311-0.972-0.567-1.48-0.764l0.154-0.4
				c0.537,0.207,1.062,0.477,1.561,0.804L98.03,51.302z M90.02,50.821l-0.164-0.396c0.547-0.226,1.107-0.41,1.661-0.543l0.1,0.417
				C91.084,50.427,90.547,50.604,90.02,50.821z M94.938,50.116c-0.536-0.079-1.105-0.103-1.666-0.069l-0.024-0.428
				c0.588-0.035,1.187-0.01,1.754,0.075L94.938,50.116z M167.591,49.851l-0.429-0.028c0.038-0.565,0.065-1.14,0.081-1.705
				l0.428,0.012C167.656,48.699,167.629,49.279,167.591,49.851z M111.947,49.109l-0.357-0.238c0.314-0.471,0.626-0.953,0.928-1.436
				l0.365,0.227C112.578,48.15,112.263,48.636,111.947,49.109z M115.419,48.63l-0.365-0.224c0.298-0.497,0.59-0.988,0.872-1.472
				l0.371,0.216C116.014,47.634,115.722,48.129,115.419,48.63z M174.54,48.292l-0.409-0.132c0.17-0.537,0.342-1.082,0.51-1.636
				l0.411,0.127C174.881,47.205,174.71,47.752,174.54,48.292z M167.334,46.697l-1.015-0.241c-0.219-0.051-0.437-0.104-0.655-0.158
				l0.101-0.417c0.219,0.054,0.434,0.106,0.655,0.158l1.012,0.242L167.334,46.697z M113.777,46.193l-0.369-0.219
				c0.284-0.48,0.57-0.979,0.851-1.483l0.375,0.21C114.351,45.208,114.062,45.711,113.777,46.193z M164,45.87
				c-0.557-0.148-1.109-0.298-1.657-0.455l0.117-0.414c0.547,0.157,1.097,0.309,1.65,0.456L164,45.87z M117.147,45.657l-0.374-0.209
				c0.286-0.512,0.561-1.012,0.823-1.502l0.377,0.203C117.71,44.64,117.435,45.143,117.147,45.657z M175.551,45.009l-0.412-0.124
				c0.162-0.541,0.325-1.087,0.484-1.643l0.411,0.12C175.874,43.917,175.714,44.467,175.551,45.009z M160.693,44.929
				c-0.553-0.167-1.1-0.339-1.644-0.514l0.131-0.407c0.544,0.173,1.087,0.344,1.636,0.51L160.693,44.929z M157.419,43.875
				c-0.546-0.186-1.085-0.373-1.624-0.566l0.144-0.404c0.536,0.192,1.073,0.379,1.618,0.564L157.419,43.875z M115.452,43.186
				l-0.381-0.199c0.263-0.498,0.524-1.013,0.777-1.523l0.386,0.19C115.979,42.168,115.714,42.683,115.452,43.186z M154.18,42.719
				c-0.54-0.201-1.078-0.406-1.607-0.613l0.156-0.398c0.53,0.205,1.062,0.41,1.6,0.61L154.18,42.719z M118.775,42.629l-0.382-0.196
				c0.271-0.52,0.528-1.029,0.775-1.528l0.384,0.191C119.302,41.598,119.046,42.108,118.775,42.629z M176.504,41.709l-0.414-0.114
				l0.127-0.455c-0.246-0.032-0.494-0.063-0.741-0.097l0.057-0.424c0.33,0.043,0.657,0.086,0.984,0.125l0.247,0.03L176.504,41.709z
				 M150.975,41.469c-0.533-0.216-1.062-0.436-1.588-0.658l0.168-0.393c0.521,0.219,1.049,0.439,1.583,0.655L150.975,41.469z
				 M173.774,40.788c-0.555-0.091-1.125-0.192-1.691-0.296l0.079-0.422c0.564,0.107,1.129,0.205,1.681,0.295L173.774,40.788z
				 M170.395,40.155c-0.556-0.118-1.117-0.241-1.676-0.371l0.096-0.419c0.557,0.129,1.115,0.254,1.669,0.371L170.395,40.155z
				 M147.81,40.135c-0.532-0.233-1.055-0.466-1.57-0.701l0.176-0.39c0.515,0.234,1.036,0.465,1.565,0.697L147.81,40.135z
				 M116.978,40.103l-0.39-0.181c0.242-0.518,0.478-1.042,0.703-1.56l0.393,0.17C117.458,39.054,117.22,39.582,116.978,40.103z
				 M120.308,39.551l-0.386-0.186c0.252-0.53,0.496-1.048,0.726-1.549l0.389,0.178C120.804,38.497,120.562,39.018,120.308,39.551z
				 M167.049,39.379c-0.555-0.14-1.109-0.287-1.662-0.438l0.112-0.415c0.553,0.152,1.105,0.296,1.654,0.435L167.049,39.379z
				 M144.676,38.715c-0.524-0.247-1.042-0.493-1.551-0.739l0.186-0.387c0.508,0.247,1.024,0.492,1.549,0.737L144.676,38.715z
				 M163.731,38.476c-0.552-0.162-1.099-0.325-1.647-0.495l0.127-0.408c0.545,0.167,1.092,0.332,1.641,0.49L163.731,38.476z
				 M160.445,37.462c-0.547-0.179-1.093-0.36-1.633-0.544l0.14-0.408c0.539,0.185,1.08,0.367,1.624,0.544L160.445,37.462z
				 M141.581,37.219c-0.522-0.26-1.032-0.519-1.536-0.775l0.199-0.381c0.498,0.254,1.008,0.513,1.528,0.773L141.581,37.219z
				 M118.354,36.949l-0.397-0.163c0.219-0.531,0.428-1.064,0.632-1.589l0.399,0.152C118.788,35.878,118.572,36.417,118.354,36.949z
				 M121.742,36.427l-0.393-0.175c0.243-0.548,0.469-1.073,0.678-1.573l0.396,0.167C122.211,35.347,121.986,35.876,121.742,36.427z
				 M157.187,36.35c-0.541-0.193-1.079-0.39-1.614-0.588l0.148-0.401c0.536,0.198,1.07,0.394,1.61,0.586L157.187,36.35z
				 M138.522,35.649c-0.517-0.274-1.025-0.545-1.516-0.812l0.206-0.376c0.49,0.267,0.994,0.537,1.511,0.81L138.522,35.649z
				 M153.965,35.152c-0.538-0.208-1.07-0.418-1.598-0.629l0.159-0.398c0.527,0.21,1.058,0.42,1.595,0.628L153.965,35.152z
				 M135.5,34.006c-0.518-0.287-1.016-0.571-1.495-0.847l0.212-0.371c0.48,0.274,0.976,0.556,1.493,0.845L135.5,34.006z
				 M150.775,33.875c-0.533-0.22-1.061-0.444-1.583-0.666l0.167-0.394c0.521,0.22,1.049,0.444,1.581,0.662L150.775,33.875z
				 M119.587,33.738l-0.402-0.145c0.199-0.552,0.385-1.092,0.561-1.615l0.406,0.137C119.977,32.641,119.789,33.184,119.587,33.738z
				 M123.079,33.257l-0.4-0.16c0.236-0.585,0.441-1.119,0.621-1.593l0.402,0.15C123.521,32.13,123.314,32.668,123.079,33.257z
				 M147.616,32.525c-0.529-0.233-1.052-0.466-1.57-0.7l0.179-0.392c0.513,0.232,1.035,0.466,1.562,0.699L147.616,32.525z
				 M132.518,32.293c-0.52-0.308-1.013-0.603-1.473-0.884l0.223-0.366c0.458,0.279,0.948,0.574,1.469,0.88L132.518,32.293z
				 M144.486,31.109c-0.529-0.247-1.047-0.49-1.557-0.732l0.185-0.387c0.51,0.243,1.025,0.486,1.551,0.73L144.486,31.109z
				 M129.581,30.505c-0.554-0.348-1.041-0.658-1.451-0.927l0.231-0.359c0.411,0.266,0.895,0.577,1.447,0.923L129.581,30.505z
				 M120.683,30.476l-0.411-0.128c0.173-0.558,0.339-1.104,0.493-1.638l0.411,0.119C121.02,29.367,120.856,29.916,120.683,30.476z
				 M124.297,30.04l-0.403-0.145c0.195-0.558,0.299-0.879,0.313-0.923l0.223-0.7l0.409,0.131l-0.223,0.695
				C124.601,29.149,124.496,29.475,124.297,30.04z M141.381,29.631c-0.523-0.256-1.038-0.512-1.538-0.763l0.193-0.385
				c0.499,0.252,1.01,0.505,1.533,0.761L141.381,29.631z M126.693,28.624c-0.134-0.09-0.206-0.144-0.219-0.15l-1.191-0.84
				l0.247-0.351l1.191,0.842c0.012,0.009,0.082,0.056,0.211,0.146L126.693,28.624z M138.312,28.093
				c-0.518-0.265-1.025-0.529-1.526-0.792l0.199-0.379c0.5,0.262,1.005,0.524,1.52,0.787L138.312,28.093z M121.634,27.17
				l-0.414-0.109c0.151-0.57,0.292-1.124,0.423-1.659l0.417,0.103C121.928,26.041,121.787,26.599,121.634,27.17z M135.268,26.498
				c-0.513-0.273-1.018-0.545-1.512-0.813l0.207-0.378c0.493,0.268,0.995,0.541,1.508,0.815L135.268,26.498z M132.253,24.854
				c-0.514-0.287-1.014-0.566-1.496-0.842l0.21-0.372c0.482,0.274,0.983,0.554,1.492,0.839L132.253,24.854z M122.449,23.829
				l-0.419-0.093c0.125-0.561,0.243-1.125,0.352-1.674l0.422,0.084C122.694,22.698,122.575,23.263,122.449,23.829z M129.265,23.156
				c-0.512-0.297-1.008-0.585-1.481-0.867l0.219-0.369c0.472,0.279,0.966,0.568,1.478,0.865L129.265,23.156z M126.308,21.41
				c-0.523-0.317-1.013-0.615-1.467-0.895l0.226-0.365c0.45,0.279,0.941,0.577,1.463,0.892L126.308,21.41z M123.118,20.455
				l-0.424-0.074c0.079-0.451,0.144-0.861,0.201-1.232l0.049-0.325l0.669,0.422l-0.23,0.363l-0.115-0.072
				C123.224,19.822,123.172,20.128,123.118,20.455z"/>
		</g>
		<path d="M79.407,91.167C60.04,72.61,53.479,95.911,47.448,96.353C52.121,93.632,61.211,69.142,79.407,91.167z"/>
		<path fill="#D7DADD" d="M71.979,87.535c3.504,5.595,0.842,8.259,0.842,8.259s-17.375,6.729-19.767-0.841
			c0.105-2.207,3.941-5.304,10.987-6.308C66.388,88.311,70.433,87.35,71.979,87.535z"/>
		<g>
			<path fill="#1B9679" d="M75.177,92.393c0.169,3.897-2.851,7.2-6.752,7.368c-3.896,0.173-7.196-2.848-7.37-6.749
				c-0.171-3.9,2.853-7.199,6.752-7.37C71.707,85.47,75.005,88.495,75.177,92.393z"/>
			<path fill="#33C191" d="M73.023,92.488c0.095,2.153-1.576,3.974-3.726,4.068c-2.154,0.095-3.976-1.575-4.071-3.728
				c-0.093-2.149,1.575-3.974,3.728-4.069C71.107,88.666,72.928,90.333,73.023,92.488z"/>
			<path fill="#D7DADD" d="M75.868,87.666c0.095,2.153-1.575,3.974-3.726,4.069c-2.155,0.094-3.977-1.574-4.072-3.727
				c-0.092-2.152,1.577-3.976,3.729-4.069C73.95,83.843,75.774,85.514,75.868,87.666z"/>
			<path d="M71.285,92.198c0.278,1.75-0.914,3.394-2.665,3.673c-1.749,0.278-3.393-0.917-3.672-2.665
				c-0.282-1.75,0.916-3.392,2.664-3.67C69.362,89.256,71.004,90.449,71.285,92.198z"/>
			<circle fill="#D7DADD" cx="68.603" cy="91.326" r="1.396"/>
		</g>
		<path d="M90.526,82.871c9.647-2.731,15.108,17.652,15.108,17.652s9.238,0.77,10.501,8.426c0.552,4.203-1.957,6.68-10.501,8.237
			c-8.824,6.03-14.418,5.753-17.938,3.402c-11.137,2.511-12.001-9.576-6.639-11.64c-0.038-1.171,0.797-1.982,0.861-3.975
			C82.17,97.472,82.908,85.032,90.526,82.871z"/>
		<path fill="#D1AB6F" d="M90.708,85.469c-6.292,0.254-6.268,21.635-6.268,21.635l-1.283,4.292c-3.02,1.762-3.272,6.292,2.517,7.55
			c5.789,1.258,13.088,2.771,19.38-4.781c11.58,2.266,9.407-11.784-1.007-11.327C102.286,97.05,97,85.22,90.708,85.469z"/>
		<path fill="#B0B4B7" d="M89.88,85.635c-5.114,0.822-5.092,20.307-5.439,21.469c-0.592,1.981-1.283,4.292-1.283,4.292
			s-0.208,2.266,1.364,3.545c2.431,1.565,2.716-7.348,2.716-7.348S89.236,88.399,89.88,85.635z"/>
		<path fill="#B89656" d="M140.757,51.361c5.596,6.392,12.385,7.725,12.519,8.123c0.134,0.4-1.464,3.728-1.865,3.464
			c-0.399-0.267-7.191,0.666-14.249-1.864c-5.194,0.132-21.577,10.243-23.173,10.448c-1.597,0.205-3.494-1.26-3.494-1.26
			s-2.653-1.816-3.032-3.861c-0.134-2.132,1.33-2.826,1.372-3.11C110.259,61.482,136.764,52.027,140.757,51.361z"/>
		<path fill="#B89656" d="M74.654,70.938c2.177,1.199,2.177,5.728,2.177,5.728s-0.271,1.9-1.089,1.732
			c-3.826,0.738-9.965-1.866-12.23-2.532c-2.264-0.665-9.321,3.197-10.921,3.996c-1.596,0.799-3.327-0.198-2.462-1.964
			c3.129-4.828,11.388-7.625,11.388-7.625S72.48,69.739,74.654,70.938z"/>
		<path fill="#D1AB6F" d="M54.83,97.332c0,0,6.22,4.036,18.96-2.511c2.589-1.649,2.175,5.663-3.618,9.36
			C64.379,107.879,54.83,97.332,54.83,97.332z"/>
		<path fill="#D1AB6F" d="M61.476,80.14c11.55-4.229,15.355,8.617,15.355,8.617s-12.65-4.262-22.885,4.275
			C57.605,88.14,54.892,82.553,61.476,80.14z"/>
		<path d="M98.642,104.975c6.391,2.302,3.536,6.715,3.536,6.715S102.558,108.269,98.642,104.975z"/>
		<g>
			<path d="M91.07,77.276c-0.361,0-0.672-0.275-0.711-0.642c0-0.015-0.163-1.614-0.39-4.293c-0.034-0.394,0.259-0.739,0.651-0.772
				c0.391-0.034,0.739,0.259,0.771,0.651c0.226,2.667,0.39,4.254,0.392,4.269c0.04,0.395-0.247,0.743-0.638,0.784
				C91.12,77.276,91.094,77.276,91.07,77.276z M90.34,68.718c-0.37,0-0.685-0.288-0.711-0.664c-0.107-1.418-0.207-2.86-0.3-4.287
				c-0.025-0.394,0.274-0.733,0.666-0.76c0.39-0.018,0.736,0.272,0.761,0.667c0.092,1.421,0.193,2.86,0.299,4.275
				c0.028,0.394-0.267,0.736-0.662,0.766C90.375,68.717,90.358,68.718,90.34,68.718z M89.782,60.153
				c-0.376,0-0.691-0.295-0.713-0.675c-0.08-1.449-0.154-2.894-0.217-4.292c-0.018-0.395,0.286-0.729,0.681-0.747
				c0.397-0.02,0.729,0.287,0.747,0.683c0.064,1.392,0.136,2.832,0.217,4.278c0.022,0.393-0.281,0.729-0.674,0.752
				C89.809,60.153,89.795,60.153,89.782,60.153z M89.391,51.58c-0.384,0-0.7-0.303-0.714-0.69c-0.05-1.444-0.094-2.889-0.127-4.296
				c-0.009-0.394,0.303-0.722,0.698-0.731c0.006,0,0.011,0,0.018,0c0.387,0,0.704,0.31,0.714,0.698
				c0.031,1.401,0.074,2.841,0.126,4.281c0.013,0.396-0.296,0.726-0.691,0.739C89.408,51.58,89.399,51.58,89.391,51.58z
				 M89.189,43.004c-0.392,0-0.71-0.316-0.714-0.707c-0.006-0.55-0.01-1.1-0.014-1.648v-0.357c0-0.774,0.014-1.553,0.042-2.314
				c0.015-0.396,0.346-0.703,0.742-0.689c0.394,0.016,0.7,0.347,0.687,0.74c-0.026,0.746-0.041,1.506-0.041,2.264v0.348
				c0.004,0.55,0.009,1.096,0.016,1.642c0.003,0.394-0.314,0.718-0.709,0.723C89.195,43.004,89.192,43.004,89.189,43.004z
				 M89.532,34.444c-0.027,0-0.054-0.001-0.082-0.004c-0.393-0.043-0.674-0.397-0.629-0.788c0.162-1.462,0.383-2.906,0.658-4.296
				c0.077-0.387,0.454-0.637,0.838-0.562c0.388,0.077,0.641,0.452,0.564,0.84c-0.267,1.35-0.483,2.755-0.642,4.175
				C90.2,34.175,89.891,34.444,89.532,34.444z M91.201,26.049c-0.067,0-0.136-0.011-0.204-0.029
				c-0.379-0.114-0.594-0.51-0.482-0.889c0.417-1.411,0.904-2.792,1.446-4.113c0.151-0.365,0.568-0.538,0.934-0.386
				c0.366,0.149,0.54,0.569,0.389,0.933c-0.525,1.273-0.996,2.61-1.398,3.972C91.793,25.847,91.509,26.049,91.201,26.049z
				 M94.476,18.144c-0.117,0-0.236-0.03-0.346-0.09c-0.346-0.193-0.469-0.626-0.278-0.972c0.717-1.298,1.508-2.54,2.352-3.69
				c0.233-0.319,0.679-0.387,0.999-0.154c0.316,0.233,0.386,0.68,0.154,0.999c-0.808,1.102-1.566,2.291-2.255,3.537
				C94.971,18.01,94.728,18.144,94.476,18.144z M99.553,11.26c-0.182,0-0.364-0.069-0.502-0.206c-0.281-0.277-0.282-0.73-0.004-1.01
				c1.505-1.523,2.587-2.243,2.705-2.321l0.39,0.597h0.001l0.686-0.202c0.09,0.301-0.03,0.629-0.294,0.802
				c-0.043,0.027-1.048,0.688-2.474,2.128C99.921,11.19,99.738,11.26,99.553,11.26z"/>
		</g>
		<path d="M47.448,96.353c6.923,5.433,12.442,10.352,18.898,9.26c9.331-1.677,13.061-14.446,13.061-14.446
			c0,0.001-3.765,11.545-13.182,13.124C59.891,105.195,55.364,100.671,47.448,96.353z"/>
		<path d="M159.499,110.931c21.709,14.587,21.8,25.09,21.8,25.09l-4.136,12.502C177.163,148.523,153.474,109.774,159.499,110.931z"
			/>
		<path d="M165.262,158.959c0,0-9.38,15.834-10.157,19.954c-1.044,3.579-6.398,1.711-6.398,1.711s-4.816,4.927-8.108,5.722
			c-0.998,0.556-2.502-0.895-2.502-0.895s-4.104,4.986-6.766,5.779c-2.666,0.791-5.416-2.88-5.416-2.88s-4.803,3.3-5.824,3.699
			c-1.019,0.399-3.883-3.313-3.883-3.313s-5.499,2.71-9.026,2.51c-3.527-0.201-11.543-10.622-11.543-10.622s-7.839,1.84-8.93-1.711
			c-1.089-3.55-5.382-7.754-5.382-7.754s-6.577,3.354-8.296,0.841c-3.879-8.989,1.77-29.378,1.77-29.378L165.262,158.959z"/>
		<g>
			<path fill="#0071BC" d="M153.448,106.219c14.455,10.015,25.536,31.499,25.772,33.764
				c-43.452,32.148-103.747,21.896-103.747,21.896l1.667-24.161C77.141,137.718,147.264,102.432,153.448,106.219z"/>
			<path fill="#D1AB6F" d="M157.822,110.931c11.747,18.748,13.188,29.052,13.188,29.052s-11.251,6.637-11.955,7.418
				c-34.979,38.944-73.159,10.303-73.778,10.098c-0.619-0.208-6.388-6.698-7.212-6.236c-0.825,0.467-0.924-13.544-0.924-13.544
				s62.199-28.795,62.29-28.751c0.085,0.042,7.72-4.619,7.72-4.619S152.05,102.694,157.822,110.931z"/>
			<circle fill="#D1AB6F" cx="150.027" cy="111.895" r="9.251"/>
			<path d="M159.278,127.146c0,0,6.84,5.518,8.684,6.847c1.842,1.332-0.796,5.26-0.796,5.26s1.019,2.822,2.254,4.62
				c1.232,1.799-2.254,8.111-2.254,8.111l-4.392-0.722L159.278,127.146z"/>
			<path fill="#B89656" d="M152.191,115.516c6.059,13.047,13.981,18.639,13.981,18.639l-1.863,4.817c0,0,3.341,4.22,2.796,6.058
				c-0.545,1.837-2.174,4.816-1.865,10.252c-1.088,1.55-4.038-1.4-4.038-1.4s-0.621,5.438-0.155,8.699
				c0.19,1.337-2.403,3.126-4.35,5.748c-2.801,3.771-5.333,8.387-5.333,8.387s-1.811,2.177-3.985,0
				c0.153,3.105-5.905,6.213-5.905,6.213s-2.02,0.621-3.416-1.71c-2.488,3.262-8.545,5.128-8.545,5.128s-2.175-1.086-3.965-2.642
				c-2.093,2.178-6.131,2.642-6.131,2.642s-2.33-1.246-3.262-2.331c-0.933-1.087-6.255,2.331-6.255,2.331s-5.086,0-6.483-2.949
				c-1.398-2.953-7.612-6.216-7.612-6.216s-5.748-0.153-6.679-3.263c-0.932-3.105-6.833-7.921-6.833-7.921s-5.128,3.884-6.216,0.467
				c-1.087-3.42-1.087-22.591-1.087-22.591l-0.535-3.504l4.884-1.243l1.709,8.235l1.087,1.864c0,0,0.312-3.418,1.4-3.418
				c1.087,0,1.087,3.572,1.087,3.572l4.97,5.587l9.051,2.534l7.739,3.224c0,0-5.451-9.173-4.363-10.568
				c1.088-1.397,11.03-1.556,11.03-1.556s2.795-1.708,3.883-2.95c1.086-1.241,2.017,1.553,2.017,1.553s4.962-6.367,6.6-6.523
				c1.634-0.155-0.05,5.902-0.05,5.902l2.36-1.709v3.106l12.48-7.61v3.504l3.775-2.574c0,0,2.021-7.144,2.643-8.075
				c0.623-0.934-1.709-4.969-1.709-4.969s0.931,0.154,1.709-0.158c0.775-0.311,0-1.398,0.153-4.969
				c0.156-3.573-1.583-7.338-1.966-7.457c-0.386-0.12,2.122-2.485,2.122-2.485S150.254,112.929,152.191,115.516z"/>
			<path fill="#D7DADD" d="M91.333,138.604c1.196,2.456,1.562,3.205,1.562,3.205s39.774-7.208,56.45-26.867
				C150.137,115.922,119.399,133.719,91.333,138.604z"/>
			<path d="M92.526,143.331c0,0-7.575,6.343,1.143,10.056c1.788,0.074,11.128-2.653,13.785-4.33
				c7.16,0.193,13.454-5.572,14.849-6.435C118.34,139.599,92.526,143.331,92.526,143.331z"/>
			<path fill="#31738B" d="M147.628,119.362c0,0-25.582,21.357-17.781,19.779c9.747-4.987,16.941-15.273,16.941-15.273
				L147.628,119.362z"/>
			<path fill="#EAC798" d="M92.895,141.809c0,0-1.922,1.886-2.613,4.725c-0.69,2.847,2.288,4.599,4.605,4.729
				c2.891,0,9.922-2.684,12.567-3.848c24.417,0.186,41.299-30.643,41.891-32.474C133.365,133.911,92.895,141.809,92.895,141.809z"/>
			<path d="M155.097,113.517c0,0.314-3.681-2.946-7.468-5.155C155.307,107.836,155.097,113.201,155.097,113.517z"/>
			<path d="M64.182,146.441c1.091,2.283,7.338,0.177,12.649-2.134c2.832,2.212,6.532-1.869,7.833-3.788
				c2.539,1.211,5.255,1.013,7.658,0.29c0.908-0.274,0.699-1.184,1.49-1.557c3.86,0.121,4.135-0.718,5.65-2.31
				c6.058-1.027,6.129-4.289,6.129-4.289s-19.21-1.738-20.354-1.795c-1.144-0.061-11.087,1.861-11.087,1.861
				S63.653,143.697,64.182,146.441z"/>
			<path d="M145.768,117.37c0,0,1.055,3.777,1.258,10.494c1.895-5.001-0.25-11.137-0.25-11.137L145.768,117.37z"/>
			<path d="M151.364,112.979c2.647,1.713-2.187,2.816-2.101,3.069c0.084,0.255,2.896,3.339-10.099,6.096
				c0.679,6.629-8.926,2.227-8.926,2.227l13.339-10.834C143.578,113.537,149.817,112.88,151.364,112.979z"/>
			<path fill="#B89656" d="M79.701,126.235c-3.313,2.069-12.632,17.19-12.632,17.19s5.646,2.07,10.072-2.691
				c0.697,1.239,1.732,1.032,1.732,1.032s3.728-1.447,5.385-3.726c4.558,1.447,4.558,1.447,4.558,1.447l4.706-1.655
				c0,0,3.841-0.002,5.265-3.002c3.077,1.141,4.656,0,4.656,0l2.148-2.176c0,0,1.521,2.278,3.144,2.176
				c1.621-0.104,2.657-4.869,2.657-4.869s0,1.451,1.657,1.657c1.657,0.209,3.727-3.727,3.727-3.727s-0.268,3.69,1.243,3.107
				c1.51-0.586,7.48-2.9,7.48-2.9l7.018-1.862l-2.277-1.864c0,0,5.591,0.829,7.04,0.205c1.452-0.622,1.036-3.314,1.036-3.314
				l6.423-1.821c0,0,2.277-1.448,3.107-2.298c0.828-0.849-2.9-1.471-2.9-1.471s6.007,0,6.42-2.693
				c-8.078-1.45-14.499-5.385-14.499-5.385l-7.87,1.45l-2.708,3.414l-15.311,4.686c0,0-7.043,6.194-21.125,8.367
				C85.708,126.235,83.017,124.163,79.701,126.235z"/>
		</g>
		<path d="M106.117,147.71"/>
		<path d="M90.953,139.253l1.217,3.369c0,0,24.614-3.48,39.613-14.248c-13.317,8.761-38.685,12.857-38.685,12.857l-0.87-2.09
			L90.953,139.253z"/>
		<path fill="#31738B" d="M56.38,98.068c0,0,3.126,5.839,8.526,6.333c-3.969-2.761-4.97-5.852-4.97-5.852L56.38,98.068z"/>
		<path fill="#B0B4B7" d="M58.545,81.909c-1.754,5.581-1.002,8.664-1.002,8.664l-3.597,2.459
			C53.946,93.032,55.613,83.677,58.545,81.909z"/>
		<g>
			<path fill="#D7DADD" d="M117.814,84.213c11.214-3.504,28.403-4.968,30.927-2.304c0.4,1.335-0.748,4.947-1.817,6.017
				c-5.677,5.671-27.625,5.343-27.625,5.343S116.357,88.504,117.814,84.213z"/>
			<g>
				<path fill="#1B9679" d="M146.561,85.732c0.198,4.53-3.309,8.362-7.84,8.559c-4.526,0.201-8.36-3.31-8.558-7.838
					c-0.198-4.532,3.312-8.361,7.84-8.56C142.532,77.694,146.363,81.205,146.561,85.732z"/>
				<path fill="#33C191" d="M144.062,85.842c0.109,2.502-1.83,4.617-4.327,4.726c-2.503,0.113-4.618-1.828-4.729-4.329
					c-0.106-2.499,1.831-4.617,4.33-4.726C141.837,81.404,143.95,83.344,144.062,85.842z"/>
				<path fill="#D7DADD" d="M147.366,80.243c0.109,2.5-1.831,4.617-4.327,4.728c-2.501,0.109-4.62-1.827-4.729-4.331
					c-0.105-2.499,1.831-4.618,4.33-4.724C145.139,75.802,147.256,77.741,147.366,80.243z"/>
				<path d="M142.043,85.506c0.324,2.033-1.064,3.944-3.095,4.268c-2.034,0.321-3.944-1.064-4.266-3.095
					c-0.327-2.032,1.063-3.941,3.095-4.264C139.811,82.09,141.718,83.475,142.043,85.506z"/>
				<path fill="#D7DADD" d="M140.549,84.423c0.041,0.895-0.654,1.652-1.55,1.69c-0.895,0.042-1.653-0.654-1.69-1.549
					c-0.042-0.895,0.651-1.651,1.548-1.69C139.751,82.835,140.51,83.527,140.549,84.423z"/>
			</g>
			<path fill="#D1AB6F" d="M115.89,86.196c0,0,13.862-8.165,34.451-4.287c-0.507-2.109-0.661-2.595-3.292-6.292
				c-3.453-4.85-6.733-10.338-14.714-8.84C118.271,69.416,115.89,86.196,115.89,86.196z"/>
			<path fill="#D1AB6F" d="M119.3,93.269c1.184-0.042,27.625-5.343,27.625-5.343s0.377,4.17-2.647,7.568
				c-3.451,3.874-9.262,7.153-16.513,5.986C119.746,98.079,119.3,93.269,119.3,93.269z"/>
			<path d="M117.408,87.244c0,0-0.441,2.868,0.687,6.148c3.138,8.597,10.651,8.342,11.317,8.327
				c-6.807-1.487-9.704-7.984-9.704-7.984s9.34-1.635,14.929-3.367c-8.848,1.525-15.336,2.077-15.336,2.077L117.408,87.244z"/>
			<path fill="#B0B4B7" d="M116.966,85.793c0,0,0-12.103,12.248-18.57c-6.706,8.355-7.863,16.712-7.863,16.712L116.966,85.793z"/>
			<path fill="#31738B" d="M119.708,93.735c0,0,2.818,6.723,9.704,7.984c-5.419-4.701-5.531-8.775-5.531-8.775L119.708,93.735z"/>
			<path d="M114.933,86.196c9.686-3.184,24.601-5.332,24.601-5.332S123.736,80.653,114.933,86.196z"/>
		</g>
		<path d="M52.556,94.299c9.566-8.833,24.275-5.543,24.275-5.543S62.122,82.871,52.556,94.299z"/>
		<path d="M54.83,97.332c0,0,1.947,6.594,9.353,7.108c-5.729-1.608-7.504-6.372-7.504-6.372L54.83,97.332z"/>
		<path d="M62.469,98.396c9.042-0.805,13.797-5.123,13.797-5.123S71.367,96.186,62.469,98.396z"/>
		<path fill="#B0B4B7" d="M92.17,142.622l-1.217,2.037c0,0,26.167-2.391,40.83-16.285C118.466,138.37,92.17,142.622,92.17,142.622z"
			/>
		<path fill="#31738B" d="M104.048,102.838l0.691,2.129c0,0,4.477-1.226,7.887,3.359
			C110.638,101.613,104.048,102.838,104.048,102.838z"/>
		<path d="M84.441,107.104c-1.635,4.532,0.256,8.598,0.256,8.598s-1.834-1.833-2.522-4.297
			C81.89,110.489,83.443,107.156,84.441,107.104z"/>
		<path d="M101.877,150.828l2.17,6.041l2.069,3.408l6.509,2.588c0,0-0.178,3.605,1.591,4.978c0.136-2.176,0-7.118,0-7.118
			l-7.082-2.55l-3.717-7.347H101.877z"/>
		<g>
			<g>
				<path opacity="0.4" fill="#D7DADD" d="M106.752,81.298c-1.073,0-1.479,1.46-1.479,1.46l1.41,12.344c0,0,0.629,2.418,2.35,2.321
					c1.31-0.079,39.186-2.321,39.186-2.321s7.073-1.75,6.116-9.094c-0.535-7.178-5.636-8.303-5.636-8.303
					S107.824,81.298,106.752,81.298z"/>
				<path opacity="0.4" fill="#D7DADD" d="M52.298,101.937c0,0-5.65-0.832-6.008-6.085c-0.08-1.954,1.156-5.121,4.324-5.675
					c7.952-1.174,27.669-3.909,27.585-3.836c-0.096,0.088,2.056-0.185,2.363,1.563c0,1.119,0.753,6.979,0.763,7.949
					c-0.029,1.638-2.143,2.063-2.143,2.063L52.298,101.937z"/>
				<path opacity="0.4" fill="#D7DADD" d="M131.194,79.36c-2.968,5.71-5.983,11.397-8.439,17.334
					c3.874-0.229,8.188-0.484,12.209-0.723c3.448-6.288,7.57-12.169,11.812-17.971C143.239,78.309,137.334,78.828,131.194,79.36z"/>
				<path opacity="0.4" fill="#D7DADD" d="M129.427,79.389c-1.306,0.114-2.62,0.228-3.923,0.342
					c-3.583,5.693-7.149,11.401-10.327,17.328c1.719-0.103,3.708-0.219,5.833-0.345C123.458,90.78,126.462,85.094,129.427,79.389z"
					/>
				<path opacity="0.4" fill="#D7DADD" d="M70.277,87.633c-2.361,4.326-4.699,8.665-7.146,12.939l5.424-0.81
					c2.349-4.362,4.87-8.632,7.382-12.906C74.353,87.071,72.399,87.338,70.277,87.633z"/>
				<path opacity="0.4" fill="#D7DADD" d="M68.208,87.681c-2.714,0.376-5.687,0.794-8.518,1.193c-2.593,4.32-5.153,8.661-7.717,13
					c0.203,0.044,0.324,0.063,0.324,0.063l8.757-1.309C63.508,96.35,65.848,92.012,68.208,87.681z"/>
				<path d="M156.608,83.914c0,0,38.31,27.14,38.706,28.218c0.395,1.081-0.989,2.81-0.989,2.81l-2.155-3.251l-35.329-25.002
					L156.608,83.914z"/>
				<path d="M156.608,83.914c-0.778-6.853-7.912-7.755-7.912-7.755l-44.035,3.471c0,0-1.378,0.598-1.568,1.429
					c-0.228,0.997-0.064,2.417-0.387,3.833c-12.935-4.312-20.221,4.461-20.883,4.143v-2.519c0,0-0.974-1.475-4.199-1.326
					c-2.385,0.109-18.244,2.494-27.159,3.845c-5.837,0.682-5.511,7.065-5.511,7.065s0.618,7.212,8.041,7.35
					c5,0,25.203-3.533,25.203-3.533s3.989-0.75,4.286-2.833c0.297-2.082-0.662-5.798-0.662-5.798s7.502-7.583,20.735-3.947
					c0.743,1.406,2.554,9.825,2.554,9.825s1.273,2.882,4.456,2.882c3.185,0,37.242-2.165,37.242-2.165s6.583,0.213,9.797-6.793
					C157.582,88.37,156.682,84.922,156.608,83.914z M79.182,97.916l-26.884,4.021c0,0-5.65-0.832-6.008-6.085
					c-0.08-1.954,1.156-5.121,4.324-5.675c7.952-1.174,27.669-3.909,27.585-3.836c-0.096,0.088,2.056-0.185,2.363,1.563
					c0,1.119,0.753,6.979,0.763,7.949C81.295,97.491,79.182,97.916,79.182,97.916z M148.219,95.103c0,0-37.876,2.242-39.186,2.321
					c-1.721,0.098-2.35-2.321-2.35-2.321l-1.41-12.344c0,0,0.407-1.46,1.479-1.46c1.071,0,41.946-3.592,41.946-3.592
					s5.101,1.125,5.636,8.303C155.292,93.353,148.219,95.103,148.219,95.103z"/>
			</g>
			<polygon points="45.245,96.691 40.876,105.539 41.574,107.104 46.286,99.02 			"/>
		</g>
	</g>
</g>
</svg>
