<?xml version="1.0" encoding="utf-8"?>
<!-- Generator: Adobe Illustrator 16.2.1, SVG Export Plug-In . SVG Version: 6.00 Build 0)  -->
<!DOCTYPE svg PUBLIC "-//W3C//DTD SVG 1.1//EN" "http://www.w3.org/Graphics/SVG/1.1/DTD/svg11.dtd">
<svg version="1.1" xmlns="http://www.w3.org/2000/svg" xmlns:xlink="http://www.w3.org/1999/xlink" x="0px" y="0px"
	 width="242.942px" height="269.291px" viewBox="0 0 242.942 269.291" enable-background="new 0 0 242.942 269.291"
	 xml:space="preserve">
<g id="Capa_1">
	<path fill="#FFFFFF" d="M121.996-0.051l0.538,111.275L139.936,1.409L123.6,111.397L157.435,5.742L124.63,111.743l49.426-98.895
		l-48.466,99.399L189.4,22.552l-62.937,90.351l76.621-78.29l-75.858,79.079l87.544-64.956l-86.908,65.855l96.313-50.019
		l-95.826,51.012l102.709-33.855l-102.373,34.916l106.575-16.854l-106.406,17.956l107.818,0.559l-107.818,0.555l106.406,17.958
		l-106.575-16.855l102.373,34.913L128.35,121.021l95.826,51.015l-96.313-50.022l86.908,65.855l-87.544-64.955l75.858,79.079
		l-76.621-78.289l62.937,90.349l-63.811-89.692l48.466,99.396l-49.426-98.89l32.805,106L123.6,125.206L139.936,235.2
		l-17.401-109.821l-0.538,111.276l-0.541-111.276L104.059,235.2l16.329-109.994L86.56,230.863l32.803-106.001l-49.43,98.893
		l48.466-99.397l-63.806,89.694l62.933-90.349L40.91,201.992l75.852-79.079l-87.541,64.955l86.909-65.855l-96.309,50.022
		l95.815-51.015L12.934,154.876l102.373-34.915L8.733,136.818l106.403-17.958L7.323,118.306l107.814-0.559L8.733,99.791
		l106.573,16.854L12.934,81.729l102.703,33.855L19.821,64.572l96.309,50.019L29.221,48.735l87.541,64.956L40.91,34.612l76.615,78.29
		L54.593,22.552l63.806,89.696L69.933,12.849l49.43,98.895L86.56,5.742l33.828,105.655L104.059,1.409l17.396,109.815L121.996-0.051z
		"/>
</g>
<g id="Capa_4">
	<g>
		<g>
			<rect x="52.819" y="192.185" fill="#FFFFFF" width="140.554" height="30.52"/>
			<path d="M191.872,193.683v27.52H54.32v-27.52H191.872 M194.873,190.685h-3.001H54.32h-2.999v2.998v27.52v3h2.999h137.552h3.001
				v-3v-27.52V190.685L194.873,190.685z"/>
		</g>
		<path d="M78.377,208.208h-2.932v5.443h-1.675v-11.723h1.675v5.025h2.932v-5.025h1.675v11.723h-1.675V208.208z"/>
		<path d="M85.762,208.208h-2.094v4.188h2.933v1.256h-4.606v-11.723h4.606v1.258h-2.933v3.768h2.094V208.208z"/>
		<path d="M92.808,213.651l-1.755-5.443H89.8v5.443h-1.677v-11.723h2.094c0.73,0,1.342,0.074,1.825,0.227
			c0.484,0.15,0.869,0.363,1.158,0.637c0.287,0.275,0.489,0.605,0.607,0.992c0.117,0.385,0.179,0.812,0.179,1.285
			c0,0.287-0.023,0.549-0.064,0.777c-0.04,0.234-0.098,0.439-0.168,0.619c-0.069,0.182-0.146,0.342-0.235,0.479
			c-0.088,0.139-0.179,0.254-0.271,0.35c-0.215,0.232-0.46,0.398-0.734,0.498l1.889,5.859H92.808z M89.8,206.954h0.417
			c0.313,0,0.601-0.031,0.855-0.09c0.258-0.059,0.479-0.158,0.661-0.305c0.184-0.143,0.326-0.336,0.425-0.578
			c0.101-0.242,0.151-0.547,0.151-0.912c0-0.367-0.051-0.67-0.151-0.912c-0.099-0.242-0.241-0.436-0.425-0.58
			c-0.183-0.143-0.403-0.244-0.661-0.305c-0.255-0.059-0.542-0.086-0.855-0.086H89.8V206.954z"/>
		<path d="M99.276,213.651l-1.676-9.248v9.248h-1.674v-11.723h2.271l1.666,8.986l1.666-8.986h2.352v11.723h-1.674v-9.248
			l-1.675,9.248H99.276z"/>
		<path d="M107.666,210.722l-0.589,2.93h-1.674l2.455-11.723h1.731l2.512,11.723h-1.612l-0.626-2.93H107.666z M109.591,209.464
			l-0.837-5.023l-0.839,5.023H109.591z"/>
		<path d="M118.298,213.651l-2.997-7.797v7.797h-1.675v-11.723h1.101l3.086,7.654v-7.654h1.676v11.723H118.298z"/>
		<path d="M128.561,213.651l-1.676-9.248v9.248h-1.674v-11.723h2.271l1.666,8.986l1.666-8.986h2.351v11.723h-1.676v-9.248
			l-1.673,9.248H128.561z"/>
		<path d="M141.598,209.884c0,0.521-0.057,1.02-0.163,1.49c-0.11,0.473-0.295,0.885-0.55,1.236
			c-0.258,0.355-0.602,0.635-1.031,0.846c-0.428,0.207-0.966,0.314-1.604,0.314c-0.436,0-0.824-0.051-1.159-0.146
			c-0.334-0.094-0.627-0.227-0.873-0.398c-0.247-0.168-0.454-0.375-0.625-0.615c-0.168-0.238-0.307-0.504-0.41-0.789
			c-0.101-0.289-0.175-0.596-0.219-0.924c-0.043-0.326-0.063-0.664-0.063-1.014v-4.186c0-0.35,0.021-0.689,0.063-1.016
			c0.044-0.326,0.118-0.635,0.219-0.922c0.104-0.287,0.242-0.553,0.41-0.793c0.171-0.238,0.378-0.443,0.625-0.613
			c0.246-0.17,0.539-0.303,0.873-0.398c0.335-0.096,0.724-0.146,1.159-0.146c0.639,0,1.177,0.107,1.604,0.316
			c0.43,0.207,0.773,0.488,1.031,0.842c0.255,0.355,0.439,0.766,0.55,1.238c0.106,0.471,0.163,0.969,0.163,1.492V209.884z
			 M136.574,210.304c0,0.312,0.029,0.598,0.084,0.855c0.057,0.258,0.15,0.477,0.282,0.662c0.13,0.182,0.302,0.322,0.517,0.424
			c0.212,0.102,0.479,0.15,0.792,0.15c0.312,0,0.576-0.049,0.79-0.15c0.213-0.102,0.388-0.242,0.517-0.424
			c0.13-0.186,0.224-0.404,0.28-0.662c0.059-0.258,0.087-0.543,0.087-0.855v-5.025c0-0.312-0.028-0.6-0.087-0.857
			c-0.057-0.258-0.15-0.477-0.28-0.66c-0.129-0.184-0.304-0.324-0.517-0.426c-0.214-0.1-0.479-0.148-0.79-0.148
			c-0.313,0-0.58,0.049-0.792,0.148c-0.215,0.102-0.387,0.242-0.517,0.426c-0.132,0.184-0.226,0.402-0.282,0.66
			c-0.055,0.258-0.084,0.545-0.084,0.857V210.304z"/>
		<path d="M148.018,213.651l-1.759-5.443h-1.253v5.443h-1.674v-11.723h2.091c0.735,0,1.342,0.074,1.825,0.227
			c0.484,0.15,0.87,0.363,1.158,0.637c0.289,0.275,0.49,0.605,0.608,0.992c0.119,0.385,0.178,0.812,0.178,1.285
			c0,0.287-0.022,0.549-0.062,0.777c-0.043,0.234-0.099,0.439-0.17,0.619c-0.069,0.182-0.147,0.342-0.235,0.479
			c-0.085,0.139-0.176,0.254-0.269,0.35c-0.216,0.232-0.461,0.398-0.736,0.498l1.89,5.859H148.018z M145.006,206.954h0.417
			c0.313,0,0.601-0.031,0.858-0.09c0.256-0.059,0.477-0.158,0.658-0.305c0.183-0.143,0.327-0.336,0.429-0.578
			c0.098-0.242,0.149-0.547,0.149-0.912c0-0.367-0.052-0.67-0.149-0.912c-0.102-0.242-0.246-0.436-0.429-0.58
			c-0.182-0.143-0.402-0.244-0.658-0.305c-0.258-0.059-0.545-0.086-0.858-0.086h-0.417V206.954z"/>
		<path d="M154.903,208.208h-2.095v4.188h2.932v1.256h-4.606v-11.723h4.606v1.258h-2.932v3.768h2.095V208.208z"/>
		<path d="M161.933,213.651l-2.994-7.797v7.797h-1.674v-11.723h1.096l3.091,7.654v-7.654h1.674v11.723H161.933z"/>
		<path d="M171.556,209.884c0,0.521-0.053,1.02-0.164,1.49c-0.107,0.473-0.292,0.885-0.549,1.236
			c-0.259,0.355-0.603,0.635-1.03,0.846c-0.43,0.207-0.967,0.314-1.605,0.314c-0.437,0-0.824-0.051-1.158-0.146
			c-0.336-0.094-0.629-0.227-0.874-0.398c-0.247-0.168-0.455-0.375-0.625-0.615c-0.169-0.238-0.307-0.504-0.407-0.789
			c-0.103-0.289-0.178-0.596-0.22-0.924c-0.044-0.326-0.065-0.664-0.065-1.014v-4.186c0-0.35,0.021-0.689,0.065-1.016
			c0.042-0.326,0.117-0.635,0.22-0.922c0.101-0.287,0.238-0.553,0.407-0.793c0.17-0.238,0.378-0.443,0.625-0.613
			c0.245-0.17,0.538-0.303,0.874-0.398c0.334-0.096,0.722-0.146,1.158-0.146c0.639,0,1.176,0.107,1.605,0.316
			c0.428,0.207,0.771,0.488,1.03,0.842c0.257,0.355,0.441,0.766,0.549,1.238c0.111,0.471,0.164,0.969,0.164,1.492V209.884z
			 M166.532,210.304c0,0.312,0.028,0.598,0.085,0.855c0.056,0.258,0.149,0.477,0.281,0.662c0.132,0.182,0.303,0.322,0.516,0.424
			s0.478,0.15,0.793,0.15c0.314,0,0.577-0.049,0.789-0.15c0.214-0.102,0.388-0.242,0.521-0.424c0.127-0.186,0.222-0.404,0.28-0.662
			c0.057-0.258,0.084-0.543,0.084-0.855v-5.025c0-0.312-0.027-0.6-0.084-0.857c-0.059-0.258-0.153-0.477-0.28-0.66
			c-0.133-0.184-0.307-0.324-0.521-0.426c-0.212-0.1-0.475-0.148-0.789-0.148c-0.315,0-0.58,0.049-0.793,0.148
			c-0.213,0.102-0.384,0.242-0.516,0.426s-0.226,0.402-0.281,0.66c-0.057,0.258-0.085,0.545-0.085,0.857V210.304z"/>
	</g>
</g>
<g id="Capa_16">
	<g>
		<polygon fill="#D9DADB" points="198.954,267.548 198.954,260.514 44.566,260.514 44.566,267.548 5.244,267.548 20.535,248.283 
			5.244,229.02 25.36,229.02 25.36,221.986 217.978,221.986 217.978,229.02 237.757,229.02 225.525,248.283 237.757,267.548 		"/>
		<path d="M215.929,224.036v7.033h18.1l-10.931,17.214l10.931,17.214h-33.024v-7.032H42.517v7.032H9.488l13.666-17.214
			L9.488,231.069H27.41v-7.033H215.929 M220.026,219.937h-4.098H27.408h-4.098v4.1v2.935H9.488H1l5.277,6.65l11.643,14.664
			L6.277,262.948L1,269.598h8.488h33.028h4.101v-4.101v-2.934h150.288v2.934v4.101h4.099h33.024h7.46l-3.997-6.3l-9.536-15.015
			l9.536-15.016l3.997-6.297h-7.46h-14.002v-2.935V219.937L220.026,219.937z"/>
	</g>
	<polygon fill="#B0B4B7" points="42.517,265.497 42.517,231.069 9.488,231.069 23.154,248.283 9.488,265.497 	"/>
	<polygon fill="#B0B4B7" points="234.028,231.069 201.004,231.069 201.004,265.497 234.028,265.497 223.098,248.283 	"/>
	<polygon points="23.264,229.521 23.264,260.985 32.857,267.683 44.047,266.84 30.281,229.521 	"/>
	<polygon points="220.039,229.384 220.039,260.846 210.446,267.548 199.258,266.699 213.019,229.384 	"/>
	<polygon fill="#8B8B8B" points="215.929,224.036 215.929,258.465 201.004,265.497 200.866,231.069 	"/>
	<polygon fill="#8B8B8B" points="27.408,224.036 27.408,258.465 42.337,265.497 42.473,231.069 	"/>
	<rect x="27.408" y="224.036" fill="#D9DADB" width="188.521" height="34.429"/>
	<path d="M186.477,236.336l1.487,3.043l3.387,0.524l-2.484,2.325l0.54,3.336l-3.019-1.604l-3.057,1.536l0.617-3.322l-2.427-2.381
		l3.401-0.449L186.477,236.336z"/>
	<path d="M61.689,235.856l1.483,3.041l3.392,0.524l-2.486,2.329l0.541,3.336l-3.021-1.605l-3.058,1.535l0.617-3.32l-2.428-2.385
		l3.402-0.447L61.689,235.856z"/>
	<g>
		<path d="M75.186,235.105h0.321l0.202,0.134l0.042,0.141l0.302,0.481l0.22,0.377l0.101,0.254l0.156,0.245l0.086,0.211l0.047,0.133
			l-0.021,0.091l0.021,0.188l0.045,0.111l0.046,0.178l0.165,0.213l0.268,0.22l0.089,0.166l0.055,0.225l0.067,0.234l0.112,0.177
			l0.109,0.346l0.3,0.244l0.068,0.231l-0.045,0.204l-0.188,0.198l-0.09,0.167l-0.545,0.318l-0.366,0.225l-0.269,0.111l-0.111,0.089
			l-0.143,0.145l-0.111,0.046l-0.279,0.065l-0.178,0.133l-0.131,0.045l-0.393,0.234h-0.088l-0.166,0.133l-0.092,0.023l-0.309,0.299
			l-0.123,0.2l-0.022,0.09v0.098l-0.021,0.135l-0.178,0.178l-0.322-0.023l0.021,0.258l-0.021,0.177l-0.09,0.135l-0.066,0.21
			l-0.111,0.135l-0.057,0.131l0.036,0.214l0.087,0.151l0.111,0.025l0.111,0.043h0.133h0.279l0.213,0.1l0.309,0.025l0.254,0.021
			l0.135,0.021h0.09l0.299,0.046l0.312,0.022l0.302-0.045l0.133-0.09l0.045-0.1l0.057-0.109l-0.025-0.09v-0.088l-0.076-0.122
			l-0.09-0.155l-0.088-0.291l0.064-0.278l0.066-0.111l0.092-0.144l0.232-0.11l0.133-0.021h0.143l0.225,0.088l0.132,0.044
			l0.167,0.188l0.09,0.2l0.046,0.591l-0.046,0.099l-0.043,0.268l-0.047,0.277l-0.066,0.179l-0.121,0.088l-0.088,0.145l-0.023,0.133
			l-0.2,0.225l-0.167,0.163l-0.979,0.792l-0.087,0.143l-0.044,0.289l0.064,0.121l0.022,0.203l-0.043,0.179l-0.135,0.188l-0.124,0.02
			l-0.355,0.07l-0.168-0.047l-0.286-0.043l-0.146-0.047l-0.197-0.087l-0.137-0.081l-0.141-0.02l-0.135-0.021l-0.18-0.137
			l-0.209-0.041l-0.38-0.234l-0.121-0.044l-0.202-0.112l-0.23-0.132l-0.201-0.091l-0.322-0.21l-0.311-0.111l-0.278-0.134
			l-0.134-0.022h-0.344l-0.133-0.078l-0.166-0.154l-0.068-0.158l0.021-0.066l0.047-0.166l0.098-0.155l0.268-0.258l0.133-0.197
			l0.023-0.198l0.057-0.168l0.041-0.314v-0.143l-0.021-0.243v-0.146l-0.077-0.066l-0.023-0.198l0.121-0.066l-0.066-0.147
			l0.046-0.222l-0.021-0.133l-0.103-0.255l0.103-0.11l0.021-0.091v-0.088l-0.021-0.365l0.021-0.09v-0.735l-0.021-0.152v-0.214
			l-0.025-0.311l0.025-0.213l-0.025-0.244l0.025-0.167l0.021-0.111l-0.046-0.086l-0.055-0.412l-0.022-0.256l0.022-0.179
			l-0.088-0.266l-0.066-0.102l-0.246-0.177l-0.078-0.088l-0.02-0.111l0.02-0.213l0.146-0.198l0.31-0.123l0.478-0.065l0.255-0.069
			l0.091-0.043l0.133-0.023l0.957-0.277l0.143-0.068h0.113l0.064-0.066l0.088-0.11l0.166,0.046l0.225-0.112l0.158-0.121l0.344-0.199
			l0.088-0.045l0.436-0.412l0.064-0.155l0.021-0.167l0.145-0.154L75.186,235.105z M73.684,237.339l-0.066,0.178v0.179l0.045,0.12
			l0.046,0.178l0.041,0.301l0.026,0.111l0.043,0.088l0.021,0.48l0.021,0.087l0.045,0.145l0.047,0.221l-0.067,0.157l0.067,0.212
			v0.134l-0.047,0.131l-0.066,0.234l0.021,0.09l0.024,0.088l-0.024,0.189l0.024,0.11v0.156l0.021,0.113l-0.045,0.21l0.066,0.108
			l0.303-0.387l0.32-0.109l0.045-0.113l0.086-0.045l0.092-0.066l0.133-0.047l0.188-0.318l0.045-0.091l-0.045-0.123l-0.109-0.198
			l-0.043-0.11l-0.035-0.146l-0.156-0.332l-0.322-0.821l-0.089-0.067l-0.22-0.435l-0.045-0.155l-0.279-0.479L73.684,237.339z"/>
		<path d="M82.91,231.069l0.086,0.057l0.268-0.034l0.168,0.034l0.198,0.087l0.189,0.178l0.024,0.178l0.021,0.123v0.11l-0.091,0.202
			l-0.321,0.188l-0.111,0.021l-0.167,0.045l-0.244,0.11l-0.111,0.113l-0.1,0.121l-0.178,0.412l-0.043,0.088v0.089l-0.023,0.157
			l-0.021,0.386v0.258l-0.066,1.5l-0.057,0.654l-0.023,0.11l-0.041,0.168l0.098,0.177l-0.033,0.178l0.123,0.104v0.154l0.021,0.178
			l-0.041,0.167v0.245l-0.07,0.144l-0.077,0.268v0.132l0.044,0.123v0.09l-0.044,0.154l0.121,0.368v0.299l0.026,0.221v0.522
			l-0.07,0.068l-0.057,0.123v0.221l0.023,0.258l-0.023,0.178l-0.087,0.221l0.167,0.024l0.047,0.141v0.157v0.301l0.041,0.154
			l-0.021,0.113v0.454l0.021,0.211l-0.041,0.178l-0.07,0.203l0.044,0.163l0.067,0.245v0.19l0.045,0.132l0.021,0.111l0.023,0.213
			l0.066,0.178l0.045,0.154l0.143,0.08l0.502,0.132l0.223,0.199l0.022,0.091v0.231l-0.157,0.245l-0.322,0.278l-0.156,0.112
			l-0.064,0.165l-0.254,0.044l-0.113,0.09l-0.278,0.321l-0.067,0.158l0.134,0.298l0.121,0.111l0.046,0.224l-0.123,0.298
			l-0.178,0.178l-0.155,0.023l-0.21-0.046l-0.091-0.067h-0.11l-0.066-0.041l-0.212-0.111l-0.153-0.193l-0.178-0.106l-0.234-0.135
			l-0.09-0.113l-0.088-0.121l-0.068-0.021l-0.256-0.177l-0.319-0.134l-0.245-0.122l-0.193-0.069l-0.176-0.087l-0.242-0.134
			l-0.076-0.067l-0.047-0.124l-0.045-0.218l0.111-0.234l0.121-0.111l0.09-0.046l0.223-0.11l0.164-0.322v-0.481l0.07-0.131
			l-0.07-0.111l-0.02-0.144l-0.021-0.11l0.066-0.113l0.045-0.366v-0.156l-0.045-0.278l0.11-0.066v-0.154l0.022-0.166l0.021-0.245
			l0.044-0.136l-0.044-0.12l-0.087-0.047v-0.265l-0.111-0.345l0.02-0.278l0.07-0.198l0.041-0.366l-0.02-0.136l0.044-0.499
			l0.022-0.258v-0.111l-0.066-0.197l0.044-0.123l-0.044-0.091l-0.047-0.59l0.025-0.386v-0.268v-0.168l0.021-0.178l0.087-0.21
			l0.137-0.135l-0.137-0.178l-0.108-0.32l-0.025-0.179l0.025-0.1l-0.025-0.088l0.047-0.111l-0.021-0.324l-0.025-0.376l-0.02-0.258
			l-0.045-1.453l-0.066-0.324l-0.037-0.224l-0.02-0.232l-0.309-0.355l-0.146-0.101l-0.133-0.199l-0.045-0.234l0.111-0.198
			l0.188-0.135l0.354-0.022l0.37,0.046l0.19,0.044l0.244,0.067h0.088l0.412,0.255l0.209,0.156l0.133,0.132l0.244,0.254l0.126,0.113
			l0.131-0.046l0.046-0.107l-0.09-0.147l0.222-0.566l0.123-0.134l0.289-0.411l0.321-0.131l0.201-0.102L82.91,231.069z"/>
		<path d="M99.258,232.024l0.111,0.035l0.32-0.035l0.092,0.057l0.197,0.224l0.047,0.087l0.076,0.278l-0.02,0.346l-0.104,0.288
			l-0.178,0.391l-0.633,0.778l-0.121,0.086l-0.066,0.023l0.02,0.479l-0.217,0.344v0.199l-0.047,0.364l0.111,0.225l0.086,0.322v0.153
			v0.092l-0.111,0.254l-0.039,0.09l-0.092,0.111l-0.254,0.144l-0.326,0.023l-0.244-0.067l-0.234-0.211l-0.221-0.389l-0.02-0.178
			l-0.047-0.458v-0.254l-0.277-0.745l-0.201-0.133l-0.045-0.143l0.066-0.247l-0.021-0.066l-0.144-0.208l-0.247-0.091l-0.086-0.022
			l-0.146-0.091l-0.422-0.208l-0.074-0.09l-0.181-0.023h-0.133l-0.257-0.064l-0.133-0.07h-0.324l-0.309,0.024l-0.255,0.087
			l-0.178,0.023l-0.068,0.066l-0.321,0.168l-0.234,0.178l-0.133,0.134l-0.134,0.168l-0.188,0.333l-0.244,0.3l-0.021,0.243
			l0.088,0.256l-0.155,0.257l0.022,0.154l0.02,0.223v0.188l0.067,0.157l0.11,0.234l0.047,0.109l0.043,0.111L93,237.172l0.066,0.121
			l0.199,0.199l0.111,0.045l0.1,0.178l0.023,0.123l0.201,0.045l0.178-0.133l0.387,0.223l0.256,0.021l0.225,0.066l0.167-0.222
			l0.178-0.167l0.109-0.043l0.39,0.021l0.346,0.047h0.131l0.136,0.02l0.575,0.168l0.137,0.02l0.154,0.07l0.09,0.043l0.168,0.065
			l0.385,0.213l0.314,0.223l0.086,0.021l0.148,0.09l0.432,0.346l0.131,0.111l0.066,0.144v-0.102l0.07,0.213l0.021,0.086l0.166,0.07
			h0.131l0.113,0.164l0.09,0.091l0.021,0.244l0.066,0.145l0.102,0.066l0.041,0.111l0.248,0.388l0.066,0.201l0.02,0.211l0.123,0.288
			l0.066,0.168l0.068,0.68l0.043,0.132l-0.021,0.254l-0.156,0.268l-0.066,0.276l0.023,0.09l0.088,0.213l-0.02,0.178l-0.346,0.366
			v0.223l0.066,0.3l-0.178,0.244v0.1l-0.133,0.088l-0.123,0.178l-0.111,0.258l-0.135,0.153l-0.066,0.092l-0.045,0.133l-0.123,0.1
			l-0.086,0.132l-0.025,0.113l-0.176,0.212l-0.211,0.134l-0.346,0.242l-0.477,0.254l-0.156-0.021l-0.131,0.133l-0.258,0.111
			l-0.088,0.102l-0.225,0.109l-0.277,0.067h-0.11l-0.155,0.11L96,247.553l-0.088,0.043l-0.11,0.047h-0.189l-0.155,0.077
			l-0.168-0.036l-0.066-0.041l-0.435,0.077h-0.454h-0.156l-0.111-0.057l-0.412-0.067l-0.73-0.064l-0.334,0.088l-0.121-0.113v-0.178
			l-0.134-0.02l-0.222,0.109h-0.124h-0.091l-0.13-0.043h-0.091l-0.134,0.066l-0.144,0.023l-0.246-0.047l-0.143,0.067l-0.158,0.067
			l-0.178,0.188l-0.232,0.11l-0.132,0.158v0.109l-0.2,0.302l-0.055,0.178l-0.026,0.234l0.047,0.409l0.212,0.311l0.344,0.102h0.111
			l0.246-0.168l0.041-0.066l0.057-0.222l0.091-0.121l0.222-0.225l0.164-0.066l0.157,0.021l0.157-0.021l0.365,0.133l0.157,0.135
			l0.041,0.098l0.026,0.636l-0.047,0.244l-0.066,0.146l-0.09,0.178l-0.61,0.478l-0.299,0.111l-0.113,0.066l-0.155,0.034h-0.344
			l-0.154-0.034l-0.188-0.021l-0.091-0.026l-0.392-0.064l-0.087-0.066l-0.325-0.2l-0.178-0.145l-0.365-0.499l-0.02-0.09
			l-0.023-0.088l-0.113-0.324l0.025-0.222l-0.066-0.167v-0.154l0.021-0.178l-0.044-0.214l0.044-0.131l0.021-0.111l0.046-0.367
			l0.044-0.201l0.066-0.145l-0.02-0.11l0.041-0.11l0.09-0.134l0.066-0.188l0.057-0.135l0.158-0.389l0.241-0.502l0.144-0.345
			l0.137-0.223l0.151-0.364l0.192-0.255l0.153-0.568l0.113-0.225l0.021-0.163l-0.021-0.155l-0.021-0.113l0.041-0.11l-0.021-0.168
			l-0.046-0.088l-0.154-0.221l-0.066-0.077l-0.166-0.291l-0.046-0.258l-0.021-0.265l0.066-0.232l0.188-0.203l0.198-0.151h0.09
			l0.279-0.036h0.178l0.366,0.213l0.131,0.132l0.077,0.111l0.137,0.123l0.021,0.131l0.134,0.369l0.023,0.179v0.179l0.02,0.142
			l0.047,0.156v0.11l0.101,0.369l-0.057,0.11l0.124,0.208v0.137v0.088l0.064,0.121l0.113,0.313l0.086,0.164l0.146,0.269l0.111,0.254
			l0.152,0.225l0.258,0.277l0.113,0.021l0.242,0.11l0.1,0.091l0.268,0.087l0.188,0.047l0.223,0.057l0.178,0.086l0.232,0.024
			l0.111-0.024h0.168l0.244,0.024l0.301-0.024l0.242-0.086l0.192-0.026L96,246.231l0.134-0.136l0.089-0.111l0.102-0.043l0.043-0.111
			l0.067-0.1l0.18-0.066l0.253-0.158v-0.345l0.021-0.111l0.18-0.299l0.109-0.133l-0.02-0.178v-0.101l-0.023-0.133l0.068-0.199
			l0.076-0.277l-0.02-0.204l-0.082-0.188l-0.02-0.088l-0.023-0.298l-0.088-0.07l-0.021-0.133l-0.158-0.299l-0.111-0.198
			l-0.168-0.225l-0.131-0.121h-0.09l-0.256-0.223l-0.265-0.168l-0.126-0.087l-0.108-0.024l-0.267-0.11l-0.433-0.113l-0.147,0.025
			h-0.244l-0.09,0.111l-0.041,0.234l-0.166,0.151l-0.111,0.09l-0.346,0.047l-0.113-0.023H93.5h-0.123l-0.133-0.066l-0.086-0.066
			l-0.137-0.045l-0.188-0.144l-0.135,0.021l-0.277-0.066l-0.045-0.155l-0.199-0.067l-0.021-0.187l-0.414-0.203l-0.319-0.177
			l-0.157-0.21l-0.133-0.178l-0.121-0.046l-0.09-0.188l-0.135-0.158l-0.154-0.087l-0.1-0.258l0.1-0.178l-0.1-0.131l-0.178,0.044
			l-0.066-0.067l-0.091-0.145v-0.087l-0.064-0.091l-0.022-0.112l-0.101-0.168l-0.021-0.151v-0.137l-0.047-0.321l-0.064-0.298
			l-0.046-0.179v-0.091l0.11-0.11l0.134-0.056l-0.066-0.155l-0.091-0.023l-0.021-0.133l-0.089-0.211l0.133-0.177l0.067-0.455
			l0.066-0.156l0.057-0.278l0.198-0.457l-0.021-0.088h0.091l0.087-0.255l0.144-0.135l0.023-0.154l0.266-0.344l0.344-0.3v-0.09
			l0.299-0.2l0.592-0.412l0.199-0.11l0.212-0.11l0.089-0.078l0.198-0.11l0.212-0.091l0.131,0.024l0.279-0.111l0.091-0.026
			l0.112,0.026l0.256-0.091h0.131l0.244-0.022l0.168-0.054h0.242l0.301-0.047l0.344,0.047h0.289h0.113l0.435,0.054l0.255,0.047
			l0.197,0.066l0.102,0.021l0.59,0.178l0.156,0.045l0.154,0.066l0.258,0.057l0.523-0.102l0.131-0.224l0.102-0.154l0.152-0.167
			l0.225-0.222L99.258,232.024z"/>
		<path d="M107.424,235.282l0.412-0.043l0.134,0.064l0.232,0.076l0.203,0.225l0.111,0.157l0.066,0.121l0.141,0.086l0.091,0.07
			l0.066,0.131l0.09,0.113l0.164,0.121l0.139,0.067l0.086,0.066l0.522,0.111l0.279,0.066l0.178,0.279l-0.024,0.197l-0.043,0.214
			l-0.222,0.197l-0.214,0.146l-0.132,0.088l-0.066,0.111l-0.066,0.324v1.478l-0.08,0.266l-0.021,0.257v0.131l0.021,0.134
			l0.046,0.603l0.034,0.154v0.11v0.168v0.09l0.021,0.088l0.025,0.09l-0.046,0.132v0.123l0.087,0.222l-0.087,0.134v0.145l0.154,0.221
			l-0.088,0.167l-0.021,0.225l0.087,0.178l-0.066,0.188v0.157l0.021,0.231l0.091,0.458l0.113,0.041l0.207,0.023l0.178,0.067
			l0.111,0.112l0.091,0.132v0.188l-0.135,0.335l-0.109,0.101l-0.278,0.29l-0.289,0.188l-0.146,0.156l-0.087,0.257l-0.064,0.131
			l0.131,0.111l0.066,0.213l0.034,0.087l-0.08,0.289l-0.108,0.188l-0.248,0.09l-0.12,0.023h-0.134h-0.157l-0.232-0.066l-0.152-0.066
			l-0.111-0.022l-0.301-0.19l-0.222-0.087l-0.146-0.134l-0.135-0.146l-0.177-0.199l-0.102-0.11l-0.02-0.11l-0.091-0.124
			l-0.087-0.066l-0.132-0.044l-0.121-0.022l-0.047-0.089l-0.092-0.09l-0.109-0.044l-0.412-0.08l-0.32,0.124l-0.111,0.11
			l-0.111,0.299v0.179l0.09,0.135l0.154,0.255l0.08,0.157l-0.023,0.151l-0.057,0.126l-0.133,0.155l-0.27,0.111l-0.297-0.021
			l-0.135-0.025l-0.254-0.064l-0.092-0.047l-0.318-0.188l-0.137-0.087l-0.133-0.066l-0.088-0.07l-0.277-0.198l-0.111-0.145
			l-0.502-0.312l-0.164-0.144h-0.092l-0.088-0.044l-0.256-0.089l-0.244-0.068l-0.131-0.133l-0.057-0.168l0.031-0.198l0.045-0.091
			l0.111-0.188l0.367-0.432l0.064-0.157l0.025-0.134l0.043-0.277v-0.321l-0.023-0.424l-0.066-0.144l0.021-0.136l0.025-0.177
			l-0.047-0.189l0.111-0.088v-0.324l0.047-0.178l-0.025-0.11l-0.021-0.121l0.047-0.134l-0.025-0.309l0.025-0.147v-0.11l-0.092-0.134
			v-0.12l0.045-0.178l-0.021-0.459l-0.023-0.243l-0.154-0.253l0.068-0.225l0.066-0.146v-0.154l0.02-0.389l-0.02-0.157l-0.047-0.188
			l-0.02-0.156l-0.125-0.088h-0.109l-0.068-0.111h-0.244l-0.254-0.255l-0.021-0.156l0.111-0.391l0.088-0.109l0.576-0.603
			l0.066-0.087l0.111-0.133l0.133-0.199v-0.145l-0.086-0.137l-0.068-0.219l0.021-0.146l0.178-0.389l0.234-0.044h0.225l0.141,0.021
			l0.291,0.102l0.066,0.065l0.189,0.156l0.133,0.088l0.432,0.365l0.092,0.09l0.154,0.068l0.146,0.066l0.111,0.1l0.254,0.088
			l0.02,0.11h0.137l0.244,0.135l0.021,0.166v0.223l-0.088,0.167l-0.109,0.113l-0.158,0.222l-0.02,0.087v0.101l-0.047,0.157
			l0.02,0.153l0.047,0.67v0.132l-0.066,0.32l0.047,0.314v0.909v0.167l-0.027,0.311l0.027,0.369l0.043,0.274l0.021,0.179l0.021,0.157
			l-0.043,0.12l0.021,0.402l-0.021,0.188l-0.023,0.411l-0.098,0.436l-0.07,0.132l-0.109,0.178l-0.066,0.301l0.09,0.156l0.277,0.021
			l0.088,0.021l0.09,0.045l0.344,0.023l0.088,0.057l0.178,0.021l0.256,0.044l0.201,0.045l0.345,0.068l0.177-0.113l-0.024-0.299
			l-0.152-0.137l-0.155-0.254l-0.086-0.544l0.02-0.522v-0.11l0.045-0.167v-0.066l0.021-0.245l-0.021-0.258l0.021-0.088l0.02-0.298
			l0.025-0.111l0.065-0.29l0.131-0.188l-0.15-0.043l-0.046-0.134l-0.045-0.258l0.02-0.178v-0.321l0.044-0.41v-0.113l0.027-0.109
			v-0.111l-0.027-0.144l-0.044-0.357l-0.066-0.166l-0.188-0.09l-0.133-0.088l-0.258-0.137l-0.133-0.208l-0.02-0.137l0.043-0.343
			l0.145-0.244l0.111-0.165l0.111-0.069l0.066-0.086l0.133-0.135l0.082-0.145l0.177-0.133l0.177-0.045l0.164-0.046l-0.1-0.154
			l-0.135-0.232l-0.042-0.203l0.021-0.121l0.045-0.154l0.21-0.247L107.424,235.282z"/>
		<path d="M115.841,235.192l0.168,0.09l0.219,0.255l0.023,0.178l-0.064,0.301l0.041,0.201l0.146,0.165l0.086,0.179l0.092,0.068
			l0.111,0.132l0.345,0.123l0.452,0.178h0.224l0.188,0.064l0.521,0.09h0.747l0.101,0.022l0.311,0.021l0.188,0.1l0.092,0.157
			l-0.024,0.154l0.024,0.123l-0.092,0.134l-0.096,0.088l-0.069,0.065l-0.136,0.279l-0.086,0.436l-0.045,0.198v0.133v0.712
			l-0.066,0.134l-0.023,0.112l0.065,0.143l-0.065,0.268l-0.033,0.19v0.131l0.057,0.324v0.087l0.042,0.067l-0.021,0.201l-0.021,0.433
			l0.042,0.256l-0.021,0.59v0.434l0.046,0.8l0.021,0.178v0.209l0.138,0.522l0.086,0.113l0.092,0.11l0.141,0.021l0.089,0.137
			l0.089,0.163v0.111l-0.045,0.178l-0.11,0.124l-0.109,0.134h-0.146l-0.269,0.067l-0.163,0.066l-0.137,0.064l-0.087,0.104
			l-0.543,0.287l-0.167,0.111l-0.092,0.123l-0.178,0.178l-0.254,0.151l-0.157,0.126l-0.254,0.108l-0.269,0.07l-0.167,0.021
			l-0.134-0.021l-0.223-0.047l-0.143-0.177l-0.066-0.188l0.021-0.346l0.102-0.135l0.153-0.153l0.024-0.234l-0.047-0.157l-0.086-0.11
			l-0.045-0.066l-0.479-0.212l-0.231,0.024l-0.178,0.045l-0.168,0.121l-0.157,0.266l-0.111,0.023l-0.046,0.21l-0.04,0.178v0.157
			v0.142l-0.057,0.269v0.254v0.178l-0.024,0.371l0.044,0.521l0.057,0.088v0.212l0.091,0.432l0.087,0.198l0.044,0.204l0.134,0.188
			l0.278,0.224l0.178,0.21l0.066,0.2l-0.066,0.301l-0.289,0.156l-0.123,0.087l-0.333-0.022h-0.143l-0.225-0.09l-0.154-0.021
			l-0.255-0.177l-0.18-0.122l-0.09-0.091l-0.122-0.045l-0.355-0.454l-0.209-0.09l-0.065,0.023l-0.071,0.221l-0.041,0.123
			l-0.232,0.567l-0.269,0.364l-0.123,0.092l-0.066,0.087l-0.111,0.069l-0.09,0.064l-0.344,0.088l-0.109,0.035h-0.259l-0.133-0.056
			l-0.131-0.022l-0.091-0.045l-0.254-0.288l-0.021-0.345l0.108-0.325l0.191-0.244l0.108-0.042l0.069-0.068l0.152-0.121l0.259-0.066
			l0.153-0.157l0.091-0.208l0.142-0.503l0.046-0.289l0.021-0.576l0.07-0.4l0.039-0.604l-0.039-0.218l-0.025-0.234l0.025-0.09
			l-0.047-0.223l0.066-0.233l0.02-0.198l0.047-0.214v-0.086l-0.047-0.158l-0.02-0.61v-0.12l-0.066-0.456l-0.023-0.157l0.023-0.225
			l0.021-0.121l0.045-0.086l0.02-0.436l0.027-0.134l-0.066-0.565l0.02-0.145l0.133-0.021l-0.086-0.045l-0.113-0.269v-0.255
			l0.021-0.11l0.025-0.111l-0.025-0.458l0.025-0.232l-0.025-0.52l0.045-0.136l-0.02-0.154v-0.123l0.039-0.201l-0.02-0.476
			l-0.02-0.457l0.02-0.211l-0.045-0.444l-0.112-0.456l-0.064-0.101l-0.057-0.087l-0.087-0.067l-0.288-0.201l-0.104-0.32l0.057-0.158
			l0.133-0.168l0.065-0.04l0.391-0.068l0.346-0.045l0.401-0.111l0.432-0.211l0.299-0.178l0.091-0.022l0.254-0.188l0.111-0.091
			l0.345-0.157l0.158-0.109l0.387-0.166l0.091-0.043h0.111l0.207-0.047H115.841z M116.552,237.604h-0.158l-0.143,0.045l-0.155,0.022
			l-0.087,0.101l-0.147,0.044l-0.111,0.022l-0.086,0.045l-0.205,0.045h-0.141l-0.113,0.065l-0.11,0.022l-0.234,0.065l0.066,0.303
			v0.088l0.057,1.212v0.265l0.021,0.303l0.07,0.109l-0.024,0.178l-0.086,0.147l0.02,0.178l0.045,0.064l0.046,0.145l-0.07,0.179
			v0.199l0.046,0.123v0.198l0.024,0.136l0.021,0.121l0.066,1.088v0.223l-0.047,0.392l-0.064,0.299l-0.021,0.133l-0.045,0.09
			l-0.057,0.111l0.123,0.234h0.312l0.145-0.026l0.111-0.042l0.301-0.068l0.178-0.021l0.132-0.021h0.109h0.123l0.136-0.057
			l0.254,0.057l0.09,0.021l0.178,0.131h0.135v-0.087l-0.024-0.165l-0.244-0.357l-0.111-0.121l-0.189-0.401l-0.045-0.167l0.025-0.09
			l-0.067-0.133l-0.044-0.188l0.044-0.569l0.067-0.02l0.11-0.047l-0.178-0.231l-0.044-0.088l0.044-0.548l-0.044-0.087l-0.024-0.889
			l0.068-0.411v-0.111v-0.201l0.022-0.164l-0.022-0.113l0.042-1.068l0.069-0.255l0.042-0.157l-0.02-0.087L116.552,237.604z"/>
		<path d="M124.963,231.025l0.411,0.02l0.157-0.02l0.121,0.044l0.111,0.022l0.177,0.034l0.104,0.067l0.086,0.02l0.092,0.111
			l0.131,0.024l0.134,0.108l0.123,0.091l0.286,0.345l0.103,0.167l0.023,0.133l0.021,0.087l0.046,0.391l-0.046,0.091v0.108
			l-0.021,0.189l-0.08,0.088l-0.086,0.157l-0.178,0.112l-0.138,0.1l-0.553,0.022l-0.224-0.325l-0.065-0.254l0.091-0.336v-0.208
			l-0.069-0.09l-0.111-0.111l-0.164-0.021l-0.112-0.021l-0.135,0.066l-0.145,0.042l-0.178,0.203l-0.131,0.254l-0.193,0.5
			l-0.021,0.134v0.121l-0.045,0.268v0.154l-0.042,0.214l0.067,0.131l-0.025,0.215l-0.066,0.197l0.024,0.278l-0.024,0.334
			l-0.02,0.188l0.086,0.723l0.111,0.258l0.325,0.021l0.275-0.302l0.043-0.109l-0.043-0.366l0.023-0.111l0.047-0.135l0.131-0.209
			l0.133-0.067l0.409-0.046l0.148,0.021l0.133,0.092l0.131,0.02l0.257,0.168l0.332,0.268l0.121,0.067l0.047,0.1l0.244,0.107
			l0.259,0.179l0.409,0.091l0.153,0.123h0.067l0.299,0.177l0.092,0.045l0.222,0.046l0.101,0.087l0.222,0.102l0.109,0.131v0.312
			l-0.042,0.1l-0.202,0.225l0.092-0.113l-0.179,0.133l-0.069,0.092l-0.075,0.188l-0.087,0.478l-0.026,0.456v0.157v0.319l0.026,0.244
			l-0.046,0.548l-0.045,0.255l0.021,0.198v0.3l0.07,0.111v0.168l-0.07,0.09l-0.067,0.198l0.158,0.212l0.044,0.499v0.11l-0.044,0.369
			l0.044,0.331l-0.024,0.123v0.178l0.047,0.091l0.044,0.498l0.031,0.191l0.09,0.244v0.168l0.066,0.178l0.225,0.244l-0.047,0.277
			l-0.334,0.232l-0.275,0.023l-0.202,0.131l-0.098,0.047l-0.454,0.197l-0.136,0.146l-0.089,0.045l-0.111,0.087l-0.143,0.134
			l-0.069,0.069l-0.179,0.342l-0.041,0.135l-0.026,0.346v0.153l0.047,0.211l0.312,0.412l0.1,0.047l0.131,0.108l0.047,0.09
			l0.092,0.145l0.066,0.378l-0.113,0.455l-0.269,0.255l-0.144,0.046l-0.155,0.045h-0.087l-0.167,0.021l-0.382-0.132l-0.343-0.369
			l-0.067-0.178l-0.086-0.21l-0.077-0.268v-0.168l-0.026-0.309v-0.123l0.047-0.422l0.121-0.41v-0.066l0.047-0.191l0.066-0.178
			v-0.367l0.044-0.198l0.021-0.1l0.022-0.178l0.023-0.255l-0.023-0.248l-0.067-0.365v-0.29l-0.02-0.41l0.02-0.234l-0.044-0.11
			v-0.545l-0.042-0.433l-0.025-0.111l-0.066-0.258l-0.057-0.343l0.037-0.133l-0.057-0.178v-0.412l-0.047-0.133v-0.188l0.026-0.268
			l-0.069-0.167l0.043-0.198l0.047-0.412l0.02-0.134l0.123-0.576l0.092-0.355l0.11-0.279l0.067-0.223l-0.113-0.102l-0.346-0.153
			l-0.177-0.046l-0.523-0.322l-0.11-0.154l-0.345,0.233l0.023,0.088l-0.064-0.044l-0.167,0.434l-0.026,0.197l-0.021,0.225
			l-0.02,0.668l0.02,0.132l0.066,0.113l-0.046,0.319v0.091l0.026,0.345l0.02,0.321l0.035,0.066v0.223l0.021,0.213l-0.021,0.767
			l-0.035,0.168v0.109l0.035,0.089v0.477v0.09l-0.055,0.19l0.055,0.086v0.223l0.066,0.234l0.046,0.222l0.109,0.254l0.088,0.113
			l0.045,0.064l0.022,0.168l0.298,0.025l0.325,0.151l0.088,0.18l-0.021,0.121l0.021,0.111l-0.067,0.157l-0.087,0.066l-0.08,0.168
			l-0.153,0.11l-0.111,0.067l-0.212,0.178l-0.178,0.043l-0.087,0.078l-0.167,0.045l-0.203,0.132l-0.088,0.203v0.143l0.066,0.156
			l0.047,0.11l0.02,0.124v0.154l-0.045,0.288l-0.199,0.188l-0.278,0.047h-0.086l-0.326-0.113l-0.154-0.064l-0.21-0.144l-0.244-0.201
			l0.086,0.023l-0.178-0.137l-0.096-0.021l-0.113-0.121v-0.091l-0.333-0.22l-0.234-0.122l-0.133-0.025l-0.121-0.021l-0.091-0.09
			l-0.432-0.067l-0.111-0.11l-0.066-0.145l-0.024-0.312l0.044-0.163l0.198-0.201l0.214-0.113l0.111-0.088l0.11-0.08l0.022-0.107
			l0.121-0.389l0.046-0.244v-0.113l0.021-0.121l-0.021-0.157l-0.086-0.322l0.02-0.134l0.088-0.222l0.023-0.189l-0.023-0.244
			l0.07-0.232v-0.113l-0.07-0.151v-0.146l-0.021-0.067v-0.244l-0.086-0.299l-0.057-0.111l0.057-0.213l0.02-0.111l0.131-0.178v-0.233
			l-0.02-0.111l0.02-0.301l0.027-0.111l0.02-0.178l-0.133-0.478l0.066-0.208l0.02-0.091l-0.02-0.244l-0.023-0.167v-0.158
			l0.023-0.131l-0.045-0.144l0.021-0.091l-0.088-0.132v-0.112l-0.02-0.145l0.02-0.265l0.088-0.234l0.023-0.834l-0.023-0.1
			l-0.043-0.133l-0.024-0.244v-0.08v-0.198l0.067-0.234l0.023-0.223l0.047-0.111v-0.234v-0.198l-0.027-0.066v-0.1l-0.02-0.132
			l-0.045-0.271l0.021-0.345l-0.021-0.111v-0.142v-0.093l-0.086-0.265l-0.026-0.166l-0.121-0.132l-0.087-0.091l-0.392-0.365
			l0.021-0.134l-0.021-0.146l0.021-0.111l0.102-0.044l0.089-0.11l0.18-0.023l0.299-0.044l0.133,0.044l0.234,0.111l0.155,0.022
			l0.133,0.11l0.279,0.234l0.22,0.244h0.167l0.269-0.521l0.156-0.246l0.32-0.301l0.392-0.197l0.432-0.168H124.963z"/>
		<path d="M135.322,235.105h0.325l0.197,0.134l0.045,0.141l0.3,0.481l0.223,0.377l0.103,0.254l0.151,0.245l0.091,0.211l0.044,0.133
			l-0.021,0.091l0.021,0.188l0.043,0.111l0.047,0.178l0.167,0.213l0.264,0.22l0.092,0.166l0.057,0.225l0.064,0.234l0.113,0.177
			l0.11,0.346l0.299,0.244l0.066,0.231l-0.045,0.204l-0.188,0.198l-0.087,0.167l-0.549,0.318l-0.364,0.225l-0.269,0.111
			l-0.107,0.089l-0.147,0.145l-0.11,0.046l-0.28,0.065l-0.179,0.133l-0.131,0.045l-0.39,0.234h-0.088l-0.168,0.133l-0.086,0.023
			l-0.313,0.299l-0.123,0.2l-0.021,0.09v0.098l-0.023,0.135l-0.178,0.178l-0.321-0.023l0.02,0.258l-0.02,0.177l-0.09,0.135
			l-0.067,0.21l-0.11,0.135l-0.057,0.131l0.035,0.214l0.091,0.151l0.108,0.025l0.109,0.043h0.139h0.273l0.214,0.1l0.309,0.025
			l0.259,0.021l0.133,0.021h0.088l0.3,0.046l0.312,0.022l0.299-0.045l0.133-0.09l0.045-0.1l0.057-0.109l-0.021-0.09v-0.088
			l-0.081-0.122l-0.086-0.155l-0.091-0.291l0.063-0.278l0.068-0.111l0.09-0.144l0.234-0.11l0.131-0.021h0.147l0.224,0.088
			l0.132,0.044l0.167,0.188l0.087,0.2l0.047,0.591l-0.047,0.099l-0.045,0.268l-0.042,0.277l-0.07,0.179l-0.122,0.088l-0.086,0.145
			l-0.021,0.133l-0.204,0.225l-0.167,0.163l-0.977,0.792l-0.089,0.143l-0.045,0.289l0.064,0.121l0.027,0.203l-0.047,0.179
			l-0.131,0.188l-0.123,0.02l-0.355,0.07l-0.167-0.047l-0.289-0.043l-0.147-0.047l-0.197-0.087l-0.133-0.081l-0.146-0.02
			l-0.133-0.021l-0.178-0.137l-0.212-0.041l-0.377-0.234l-0.121-0.044l-0.204-0.112l-0.232-0.132l-0.199-0.091l-0.322-0.21
			l-0.312-0.111l-0.278-0.134l-0.134-0.022h-0.345l-0.131-0.078l-0.168-0.154l-0.066-0.158l0.021-0.066l0.046-0.166l0.102-0.155
			l0.264-0.258l0.138-0.197l0.021-0.198l0.056-0.168l0.045-0.314v-0.143l-0.024-0.243v-0.146l-0.076-0.066l-0.021-0.198l0.121-0.066
			l-0.067-0.147l0.043-0.222l-0.021-0.133l-0.103-0.255l0.103-0.11l0.021-0.091v-0.088l-0.021-0.365l0.021-0.09v-0.735l-0.021-0.152
			v-0.214l-0.022-0.311l0.022-0.213l-0.022-0.244l0.022-0.167l0.021-0.111l-0.043-0.086l-0.054-0.412l-0.026-0.256l0.026-0.179
			l-0.091-0.266l-0.066-0.102l-0.244-0.177l-0.08-0.088l-0.021-0.111l0.021-0.213l0.146-0.198l0.309-0.123l0.479-0.065l0.258-0.069
			l0.087-0.043l0.138-0.023l0.954-0.277l0.141-0.068h0.113l0.065-0.066l0.091-0.11l0.167,0.046l0.225-0.112l0.152-0.121l0.346-0.199
			l0.091-0.045l0.432-0.412l0.064-0.155l0.025-0.167l0.143-0.154L135.322,235.105z M133.825,237.339l-0.067,0.178v0.179l0.041,0.12
			l0.046,0.178l0.045,0.301l0.021,0.111l0.045,0.088l0.02,0.48l0.027,0.087l0.04,0.145l0.046,0.221l-0.066,0.157l0.066,0.212v0.134
			l-0.046,0.131l-0.067,0.234l0.027,0.09l0.02,0.088l-0.02,0.189l0.02,0.11v0.156l0.021,0.113l-0.04,0.21l0.064,0.108l0.301-0.387
			l0.321-0.109l0.043-0.113l0.092-0.045l0.086-0.066l0.137-0.047l0.188-0.318l0.042-0.091l-0.042-0.123l-0.11-0.198l-0.047-0.11
			l-0.031-0.146l-0.156-0.332l-0.325-0.821l-0.087-0.067l-0.222-0.435l-0.047-0.155l-0.273-0.479L133.825,237.339z"/>
		<path d="M140.059,235.259h0.323l0.133,0.023l0.076,0.021l0.178,0.022l0.111,0.022l0.255,0.057l0.203,0.065l0.208,0.066
			l0.201,0.134l0.39,0.322l0.069,0.134l0.298,0.456l0.087,0.154l0.11,0.1h0.178l0.215-0.057l0.222-0.22l0.209-0.223l0.068-0.299
			l-0.023-0.11v-0.123l0.047-0.135l0.152-0.244l0.168-0.101h0.155l0.087-0.022l0.259,0.045l0.086,0.031l0.092,0.091l0.199,0.156
			l0.168,0.067l0.201,0.208l0.106,0.047l0.37,0.156l0.089,0.021l0.165,0.043h0.113l0.223,0.191l0.123,0.199l0.044,0.155v0.102
			l-0.024,0.086l-0.188,0.289l-0.133,0.19l-0.136,0.109l-0.087,0.179l-0.345,0.257l-0.066,0.132l-0.255,0.412v0.09l-0.024,0.145
			l0.024,0.11l-0.024,0.178l-0.021,0.254l-0.223,0.289l-0.101,0.067l-0.133,0.056l-0.158-0.033l-0.207-0.022l-0.178-0.179
			l-0.157-0.299l-0.066-0.356v0.09l-0.055-0.258l-0.133-0.288l-0.045-0.087l-0.133-0.146l-0.234-0.132h-0.155l-0.158,0.023
			l-0.143,0.108l-0.045,0.146l-0.021,0.11l-0.025,0.155l0.025,0.567v0.066l0.021,0.166l0.023,0.133l0.021,0.325l0.02,0.197
			l0.148,0.213l-0.045,0.156l-0.076,0.154l-0.027,0.167l-0.041,0.111v0.156v0.11l0.021,0.124l0.101,0.11v0.722l-0.034,0.103
			l-0.047,0.329l0.123,0.392l-0.042,0.157l-0.054,0.121l-0.092,0.244l-0.066,0.188l-0.111,0.02l-0.087,0.091l-0.025,0.157
			l-0.077,0.111l-0.064,0.23l0.167,0.069h0.108l0.156,0.041l0.111,0.025l0.102,0.021l0.288,0.021l0.143,0.024l0.178,0.044
			l0.325,0.031l0.244,0.066l0.278,0.091l0.153,0.389l-0.046,0.246l-0.198,0.274l-0.345,0.203l-0.646,0.232l-0.151,0.067
			l-0.137,0.044l-0.111,0.111l-0.042,0.164v0.112l0.087,0.223l0.022,0.233v0.178l-0.022,0.131l-0.188,0.148l-0.335,0.156
			l-0.209-0.023l-0.41-0.178l-0.111-0.076l-0.137-0.113l-0.142-0.065l-0.133-0.178l-0.111-0.046l-0.158-0.121l-0.188-0.134
			l-0.112-0.043h-0.252l-0.248-0.281l-0.234-0.064l-0.178-0.089h-0.153l-0.213-0.111l-0.264-0.145l-0.127-0.133l-0.021-0.179
			l0.057-0.134l0.155-0.232l0.244-0.089l0.123-0.09l0.111-0.145l0.111-0.178v-0.323l0.02-0.109l0.026-0.09l-0.046-0.433l0.066-0.137
			l0.044-0.121l0.022-0.543l-0.047-0.244v-0.188l-0.086-0.177l-0.024-0.113l0.044-0.322l0.091-0.225l-0.044-0.32l0.066-0.178
			l0.054-0.167l-0.054-0.198l-0.087-0.369l0.188-0.109l-0.123-0.211l-0.024-0.092l0.024-0.066l-0.024-0.255l-0.02-0.11l0.02-0.39
			l-0.02-0.153v-0.224l-0.047-0.167l-0.111-0.111l-0.086-0.066l-0.121-0.067l-0.092-0.044l-0.391-0.047l-0.087-0.055l-0.091-0.086
			l-0.067-0.204v-0.087l0.027-0.145l0.086-0.179l0.064-0.109l0.168-0.19l0.134-0.131l0.07-0.09l0.086-0.088l0.121-0.123l0.092-0.2
			l0.11-0.303l-0.091-0.242l-0.02-0.087l-0.066-0.147v-0.177l0.177-0.322L140.059,235.259z"/>
		<path d="M152.194,235.192l0.269,0.021h0.207l0.138,0.025l0.153,0.064l0.212,0.022l0.133,0.022l0.178,0.145l0.278,0.178
			l0.133,0.065l0.146,0.213l0.086,0.111l0.113,0.156l0.278,0.299l0.178,0.045l0.088-0.045l0.09-0.023l0.254-0.188l0.202-0.178
			l0.123-0.225l-0.057-0.166l0.121-0.288l0.133-0.1l0.202-0.066l0.453,0.123h0.102l0.269,0.132l0.04,0.09l0.092,0.044l0.188,0.065
			l0.203,0.166l0.087,0.026l0.188,0.021l0.111,0.066l0.345,0.132l0.225,0.11l0.086,0.047l0.146,0.077l0.224,0.022l0.188,0.047
			l0.133,0.021l0.158,0.111l0.188,0.046l0.091,0.132l0.064,0.123v0.131l-0.232,0.436l-0.157,0.066l-0.088,0.366l-0.109,0.11
			l-0.047,0.157l0.02,0.123l-0.074,0.243v0.086l-0.023,0.234l-0.023,0.823l-0.11,0.11l0.11,0.158l-0.066,0.432l-0.02,0.231
			l-0.024,0.158l-0.066,0.113l0.022,0.388l0.088,0.366v0.154l0.09,0.257l-0.023,0.225v0.151l-0.086,0.436l0.02,0.19l0.021,0.131
			l-0.021,0.09l0.066,0.301l-0.086,0.132l0.066,0.091l0.043,0.066l0.023,0.3l0.074,0.179l0.479,0.278l0.201,0.198l-0.023,0.234
			l-0.134,0.221l-0.232,0.281l-0.178,0.021l-0.133,0.221l-0.256,0.255l-0.089,0.091l-0.066,0.368l0.046,0.177l0.109,0.211
			l0.068,0.134l-0.091,0.255l-0.157,0.178h-0.097l-0.289-0.023l-0.133-0.043l-0.212-0.089l-0.201-0.166l-0.145-0.091l-0.157-0.198
			l-0.178-0.102l0.069-0.111l-0.136-0.265l-0.188,0.153l-0.158-0.197l-0.131-0.124l-0.579-0.222l-0.086-0.046l-0.092-0.021
			l-0.046-0.146l-0.087-0.066l-0.044-0.244l0.066-0.211l0.269-0.155l0.087-0.043l0.167-0.322l0.045-0.345v-0.589l0.11-0.024
			l-0.155-0.066v-0.298l0.045-0.203v-0.152l-0.067-0.124l-0.064-0.288l-0.026-0.091v-0.123l-0.054-0.087v-0.201l0.08-0.121v-0.178
			l-0.046-0.113l-0.034-0.087v-0.258l0.121-0.198l0.023-0.145l-0.091-0.134v-0.087l0.067-0.204l-0.041-0.141l-0.026-0.245
			l0.067-0.189v-0.068l0.023-0.133l0.022-0.39l0.024-0.108l0.153-0.39l0.11-0.411l0.188-0.179l-0.152-0.167l-0.102-0.09
			l-0.309-0.153l-0.167-0.09l-0.355-0.167l-0.103-0.087l-0.477-0.092l-0.244,0.111l-0.137,0.19v0.134l0.113,0.41l-0.067,0.179v0.111
			v0.143l-0.121,0.224l-0.066,0.188l0.021,0.225l0.146,0.277l0.021,0.225l0.024,0.132l0.02,0.3l-0.044,0.252l0.024,0.357v0.146
			v0.265v0.28l-0.045,0.201l0.045,0.188v0.156v0.521l-0.045,0.201l0.021,0.124l-0.046,0.131l0.07,0.544v0.111l0.043,0.232
			l-0.023,0.346h0.093l0.132-0.031l0.254,0.098l0.178,0.177l0.022,0.138l-0.043,0.208l-0.11,0.157l-0.133,0.178l-0.412,0.321
			l-0.122,0.134l-0.069,0.078l-0.179,0.244l-0.066,0.3l-0.02,0.092l0.111,0.298l0.066,0.244l-0.066,0.257l-0.135,0.132l-0.256,0.047
			l-0.199-0.023l-0.456-0.234l-0.255-0.178l-0.09-0.066l-0.045-0.111l-0.209-0.167l-0.248-0.223l-0.198-0.209l-0.279-0.2
			l-0.197-0.135l-0.254-0.066l-0.113-0.212l-0.045-0.265l0.178-0.146l0.178-0.198l0.057-0.135l0.064-0.188l0.047-0.11l0.066-0.324
			l0.02-0.111l0.045-0.154v-0.09l0.022-0.278l-0.043-0.088l0.021-0.369l0.047-0.152v-0.302v-0.156v-0.143l-0.067-0.112l0.087-0.178
			l-0.02-0.091l-0.067-0.476l0.021-0.234l0.047-0.747l-0.024-0.274l-0.022-0.345l0.113-0.368l-0.023-0.132v-0.268l-0.067-0.277
			l-0.022-0.456l-0.021-0.178l-0.044-0.102l-0.066-0.177l-0.258-0.133l-0.198-0.089l-0.479-0.234l-0.131,0.024h-0.168l-0.113,0.087
			l-0.11,0.167l-0.021,0.178v0.11l-0.045,0.258v0.109l-0.035,0.09v0.145l0.035,0.454l-0.035,0.091l0.08,0.311v0.212v0.087
			l0.041,0.178l-0.141,0.479l0.055,0.191l-0.055,0.134l0.02,0.131v0.365l0.035,0.137l-0.035,0.477l-0.02,0.144v0.137l-0.026,0.151
			l0.026,0.146l0.02,0.135v0.154v0.113v0.433v0.5l0.08,0.276l0.108,0.157l0.11,0.021l0.304,0.023l0.088,0.121l0.131,0.067
			l0.047,0.112l0.021,0.111l-0.067,0.255l-0.11,0.156l-0.178,0.208l-0.121,0.066l-0.113,0.111l-0.11,0.047l-0.208,0.154
			l-0.269,0.302l-0.067,0.32l0.133,0.245l0.045,0.368l-0.133,0.255l-0.212,0.154l-0.153,0.023l-0.11-0.047l-0.066-0.02l-0.259-0.066
			l-0.178-0.168l-0.188-0.111l-0.133-0.11l-0.158-0.189l-0.211-0.156l-0.088-0.043l-0.133-0.135l-0.501-0.343l-0.143-0.068
			l-0.335-0.188l-0.168-0.023l-0.131-0.154l-0.047-0.244l0.021-0.124l0.09-0.11l0.168-0.11l0.224-0.135l0.087-0.1l0.147-0.312
			l0.109-0.299l0.041-0.11l-0.064-0.091v-0.367l0.023-0.132l0.021-0.234v-0.201l0.047-0.254v-0.134l0.02-0.455l0.021-0.234
			l0.024,0.076l-0.111-0.298l-0.021-0.158l0.133-0.121l0.133,0.045v-0.244l-0.178-0.132l-0.047-0.146l-0.041-0.244l0.088-0.346
			l-0.02-0.243l0.04-0.457l-0.021-0.167l-0.02-0.178l-0.068-0.299l0.041-0.133l-0.064-0.132v-0.371l-0.086-0.087l-0.081-0.11
			l-0.178-0.035l-0.32-0.021l-0.201-0.111l-0.154-0.198l0.041-0.411l0.113-0.091l0.064-0.144l0.481-0.398l0.109-0.168l0.099-0.157
			l0.066-0.188l0.069-0.266l-0.069-0.178l-0.021-0.278l0.021-0.112l0.11-0.145l0.205-0.087h0.431l0.412,0.043l0.323,0.098
			l0.387,0.157l0.065,0.046l0.137,0.153l0.234,0.166l0.111,0.203l0.107,0.133l0.045,0.066l0.132,0.188l0.103,0.046l0.202,0.131
			l0.109,0.047h0.256l0.365-0.087l0.204-0.113l0.086-0.064l0.188-0.168l0.025-0.09l0.152-0.2v-0.091l-0.02-0.254l0.02-0.091
			l0.135-0.231L152.194,235.192z"/>
		<path d="M164.3,235.126h0.131l0.301,0.066l0.345,0.156l0.412,0.256l0.288,0.257l0.168,0.067l0.131,0.177l0.158,0.021l0.066,0.131
			l0.167,0.124l0.412,0.134l0.111,0.087l0.152,0.047l0.092-0.021h0.141l0.224,0.04l0.213,0.047h0.177l0.134,0.102l0.089,0.154v0.179
			l-0.069,0.209l-0.178,0.2l-0.11,0.343l-0.021,0.113l-0.021,0.155v0.735l-0.055,0.366l0.029,0.153l-0.029,0.201l0.055,0.368
			l-0.025,0.522l0.025,0.144v0.566l-0.08,0.178l0.025,0.456v0.214l0.029,0.109l0.111,0.108l0.026,0.092v0.301l-0.026,0.268
			l0.047,0.142l0.044,0.113v0.277l0.022,0.154l0.022,0.436l0.068,0.11l0.131,0.041h0.102l0.111,0.025h0.108h0.157l0.234,0.188v0.311
			l-0.022,0.091l-0.091,0.165l-0.121,0.2l-0.178,0.232l-0.088-0.021l-0.069,0.113l-0.087,0.107l-0.101,0.11l-0.134,0.102
			l-0.021,0.09l-0.089,0.066l-0.158,0.111l-0.096,0.134l-0.025,0.188l0.025,0.09l0.066,0.088l0.121,0.257v-0.09l-0.066,0.422
			l-0.166,0.188l-0.133,0.047l-0.303,0.023l-0.312-0.09l-0.301-0.089l-0.155-0.079l-0.275-0.133v-0.091l-0.548-0.365l-0.11-0.156
			l-0.144-0.108l-0.223-0.212l-0.233-0.157l-0.111-0.154l-0.133-0.1l-0.197-0.066l-0.168,0.02l-0.269,0.168l-0.057,0.133
			l-0.041,0.478l0.255,0.268l0.064,0.254l-0.09,0.258l-0.366,0.134l-0.264,0.043l-0.234-0.023l-0.409-0.153l-0.314-0.121
			l-0.057-0.091l-0.154-0.178l-0.134-0.144l-0.234-0.156l-0.107-0.111l-0.138-0.045l-0.064-0.112l-0.301-0.188l-0.111-0.043h-0.365
			l-0.09-0.045h-0.134l-0.168-0.134l-0.041-0.077l-0.069-0.157l0.069-0.265l0.133-0.168l0.098-0.066l0.18-0.177l0.134-0.213
			l0.066-0.18v-0.087v-0.145l0.077-0.224v-0.198l-0.057-0.123l-0.021-0.288l0.045-0.121l0.057-0.113v-0.178l-0.057-0.111
			l-0.024-0.278l0.024-0.066l0.032-0.111l0.024-0.166l-0.024-0.698l-0.19-0.304v-0.198l0.113-0.145l0.168-0.134l0.086-0.045
			l0.323-0.042l0.357-0.046l0.102,0.021l0.309-0.042l0.087-0.044l0.126-0.024l0.153-0.022h0.279h0.111l0.086-0.021l0.37-0.167
			l0.109-0.091h0.277l0.222-0.154l0.234-0.166l0.178-0.225l0.066-0.343l0.066-0.18v-0.111v-0.097l0.146-0.289l-0.034-0.303
			l-0.047-0.199l-0.108-0.213l-0.368-0.386l-0.152-0.067l-0.135-0.068h-0.21l-0.312-0.177l-0.234-0.067h-0.179l-0.387,0.067
			l-0.39,0.312l-0.087,0.166v0.22v0.233l0.064,0.157l0.113,0.045l0.275-0.092h0.09l0.086,0.047l0.213,0.021l0.29,0.234l0.021,0.089
			l0.024,0.09l0.021,0.221l-0.021,0.369l-0.111,0.208l-0.202,0.204l-0.32,0.151l-0.244,0.047h-0.278l-0.197-0.047l-0.215-0.087
			l-0.222-0.064l-0.301-0.304l-0.131-0.155v-0.132l-0.025-0.089l-0.098-0.047l-0.024-0.254l-0.066-0.256l0.024-0.334l0.021-0.11
			v-0.168l0.102-0.266l0.02-0.19l0.38-0.542l0.052-0.135l0.179-0.146l0.436-0.242l0.156-0.087l0.388-0.113l0.223-0.145l0.392-0.133
			l0.207-0.234l0.025-0.064l0.041-0.157l0.045-0.199l0.28-0.213L164.3,235.126z M165.097,240.973l-0.254,0.168l-0.178,0.11
			l-0.197,0.044h-0.148l-0.197,0.09l-0.147,0.132l-0.11-0.021h-0.134l-0.131,0.121l0.02,0.154l0.025,0.157l0.041,0.211l0.068,0.656
			l0.023,0.11l-0.066,0.168l0.02,0.265l-0.045,0.669v0.244l-0.209,0.209l0.189,0.023l0.131,0.022h0.279l0.133,0.022l0.135-0.022
			l0.433,0.022l0.233,0.042l0.266,0.066l-0.067-0.153l-0.065-0.09l-0.112-1.756l-0.064-0.365l0.091-0.225L165.097,240.973z"/>
		<path d="M174.522,235.259h0.299l0.355,0.146l0.08,0.111l0.154,0.041l0.179,0.069l0.165,0.135l0.138,0.02l0.109,0.045l0.21,0.167
			l0.177,0.154l0.346,0.214l0.367,0.11l0.654,0.066l0.137,0.045l0.02,0.086l0.256,0.092l0.023,0.166l-0.023,0.266l-0.209,0.3
			l-0.133,0.369l-0.07,0.289l-0.021,0.21v0.178v0.278l-0.021,0.131l-0.046,0.37l0.02,0.132l0.026,0.366l-0.026,0.157l-0.163,0.432
			v0.091l-0.024,0.144l0.047,0.111v0.088v0.09l-0.066,0.522l0.066,0.066v0.345l0.055,0.543l0.046,0.214v0.178v0.278v0.087
			l-0.024,0.225v0.21v0.179l0.064,0.21l0.026,0.091l0.131,0.132l0.047,0.088l0.111,0.125l0.687,0.218l0.09,0.234l-0.02,0.247
			l-0.225,0.179l-0.231,0.142l-0.178,0.113l-0.147,0.111l-0.224,0.066l-0.274,0.322l-0.158,0.321l0.024,0.133l0.066,0.178v0.121
			l0.042,0.137l0.045,0.218l-0.045,0.148l-0.133,0.156l-0.222,0.088h-0.254l-0.134-0.067l-0.191-0.11l-0.153-0.066l-0.111-0.045
			l-0.147-0.168l-0.108-0.066l-0.109-0.154l-0.259-0.069l-0.021-0.209l-0.178-0.223l-0.11-0.091l-0.091-0.077l-0.144-0.087
			l-0.199-0.066l-0.135-0.068l-0.209-0.154l-0.068-0.233l0.023-0.178l0.279-0.258l0.109-0.064l0.135-0.225v-0.097l0.02-0.291
			l0.024-0.189l-0.044-0.088v-0.091l-0.026-0.179v-0.232l-0.065-0.497l0.025-0.281l-0.047-0.087l0.021-0.41l-0.021-0.068
			l-0.045-0.135v-0.11l0.045-0.166l0.021-0.089l0.025-0.132l0.02-0.137l0.111-0.076l-0.131-0.021v-0.335l0.02-0.145l0.021-0.312
			l0.026-0.113l-0.026-0.231l0.026-0.109l-0.047-0.166l0.047-0.203l0.02-0.277l-0.02-0.132l0.044-0.18l0.144-0.665l0.044-0.203
			l0.134-0.087l-0.234-0.064l-0.178-0.103l-0.244-0.132l-0.146-0.111l-0.153-0.112h-0.091l-0.188-0.101l-0.291-0.198l-0.231-0.066
			l-0.346-0.044l-0.133,0.064l-0.066,0.157l0.021,0.122l0.111,0.199l0.102,0.132l0.047,0.166l0.02,0.137l0.045,0.288l0.021,0.576
			v0.069l0.021,0.089l-0.021,0.131l0.045,0.167v0.312l-0.024,0.211l-0.087,0.09l-0.146,0.066l0.146,0.088l0.02,0.12l0.092,0.48
			l0.02,0.223l0.026,0.155l0.021,0.167l-0.047,0.154l0.026,0.136l0.021,0.121v0.134l-0.021,0.091l-0.026,0.274v0.158l0.026,0.364
			l-0.112,0.502l-0.064,0.265l-0.127,0.146l-0.041,0.154v0.179l0.121,0.068l0.153,0.031l0.268,0.066l0.168,0.023l0.131,0.045
			l0.215,0.155v0.299l-0.082,0.203l-0.086,0.111l-0.244,0.274l-0.39,0.279l-0.066,0.09l-0.146,0.043l-0.107,0.325l-0.138,0.152
			l0.112,0.202l0.025,0.065l0.086,0.167l-0.02,0.291l-0.138,0.141l-0.432,0.137l-0.158-0.047l-0.23-0.09l-0.134-0.064l-0.157-0.21
			l-0.208-0.135l-0.291-0.189l-0.145-0.223l-0.087-0.066l-0.158-0.066l-0.209-0.168l-0.178-0.087h-0.111l-0.212-0.066l-0.086-0.045
			l-0.113-0.066l-0.111-0.111L170,245.709l0.021-0.27l0.07-0.142l0.197-0.179l0.157-0.089l0.188-0.479l0.021-0.325l-0.021-0.151
			l0.021-0.28l0.067-0.111v-0.132l-0.021-0.112l0.045-0.188l-0.023-0.156v-0.142l0.023-0.091l-0.066-0.2v-0.277l0.113-0.289v-0.324
			c0-0.073-0.012-0.126-0.027-0.154l0.027-0.101v-0.178l-0.07-0.111l0.043-0.233l0.027-0.59v-0.364l-0.027-0.111v-0.201l-0.02-0.145
			l-0.023-0.087l-0.043-0.137v-0.087l0.021-0.091l0.045-0.097l-0.023-0.157l0.023-0.111l-0.111-0.433l-0.612-0.023l-0.098-0.022
			l-0.291-0.212l-0.064-0.265l0.131-0.345l0.134-0.157l0.091-0.021l0.141-0.167l0.135-0.157l0.156-0.178l0.212-0.208l-0.023-0.091
			l0.044-0.066l0.046-0.09v-0.099l-0.021-0.09l-0.025-0.088l-0.044-0.244l0.023-0.213l0.264-0.3l0.148-0.045l0.066,0.045
			l0.409,0.031l0.087,0.025l0.181,0.043l0.164,0.022l0.402,0.156h0.12l0.271,0.179l0.131,0.097l0.167,0.178l0.133,0.158l0.111,0.144
			l0.168,0.156l0.111,0.022l0.3-0.045l0.334-0.299l0.123-0.224l0.02-0.091l-0.102-0.231l0.082-0.266L174.522,235.259z"/>
	</g>
	<path d="M10.197,78.24"/>
</g>
<g id="Capa_15">
	<g>
		<g>
			<g>
				<g>
					<g>
						<g>
							<path fill-rule="evenodd" clip-rule="evenodd" d="M54.477,148.348c2.501,4.783,6.462,7.651,8.851,6.403
								c2.381-1.248,2.285-6.137-0.22-10.926c-2.509-4.787-6.469-7.647-8.848-6.405C51.872,138.67,51.968,143.557,54.477,148.348z"
								/>
							<path d="M44.532,152.514c-4.016-9.285,4.938-13.734,4.938-13.734l4.79-1.359l9.983,16.219
								C64.243,153.639,49.483,163.226,44.532,152.514z"/>
							<path fill-rule="evenodd" clip-rule="evenodd" fill="#B28646" d="M54.955,140.262c6.598,1.67,7.279,11.216,7.279,11.216
								s-10.245,6.978-14.228,0.194C44.035,144.888,50.917,140.407,54.955,140.262z"/>
							<path fill="#31738B" d="M60.72,145.669c0.659,5.664-2.595,7.262-5.33,8.726c3.561-0.735,6.845-2.917,6.845-2.917
								S61.863,147.649,60.72,145.669z"/>
						</g>
						<path fill-rule="evenodd" clip-rule="evenodd" fill="#D7DADD" d="M54.955,140.262c0,0-5.338,0.105-7.508,5.308
							c-0.618,2.505,11.896-2.275,10.841-3.455C57.093,140.831,54.955,140.262,54.955,140.262z"/>
					</g>
					<path fill="#0071BC" d="M100.792,178.813c-44.396-11.2-71.402-56.446-60.2-100.847C51.802,33.565,97.037,6.56,141.443,17.764
						c44.402,11.209,71.408,56.449,60.2,100.851C190.44,163.019,145.199,190.024,100.792,178.813z"/>
					<path d="M141.495,18.977c43.498,10.979,69.857,55.136,58.877,98.628c-10.979,43.498-55.137,69.856-98.626,58.879
						c-43.498-10.979-69.852-55.135-58.874-98.627C53.849,34.359,98.005,8,141.495,18.977 M142.394,15.43
						C97.014,3.976,50.775,31.581,39.324,76.959c-4.936,19.565-12.358,84.421,61.525,103.067
						c45.378,11.453,91.614-16.146,103.067-61.524C215.376,73.122,187.771,26.885,142.394,15.43L142.394,15.43z"/>
					<path fill="#65C8D0" d="M59.578,106.453c-8.286,10.352-7.537,23.878-5.693,28.156C25.767,93.804,47.134,36.729,96.109,20.762
						C79.466,28.338,45.388,60.394,59.578,106.453z"/>
					<path d="M141.495,18.977c-1.508-0.316-2.984-0.704-4.476-0.998c40.629,10.479,65.146,52.071,54.784,93.113
						c-3.156,14.131-12.491,31.133-29.177,41.644c-5.312,21.964-10.304,7.685-16.577,10.965c-14.461,5.858-30.8,7.354-47.038,3.257
						c-39.896-10.069-64.365-50.101-55.823-90.304c-0.105,0.398-0.217,0.798-0.316,1.203
						c-10.978,43.492,15.376,87.647,58.874,98.627c43.489,10.978,87.647-15.381,98.626-58.879
						C213.913,63.952,177.485,26.597,141.495,18.977z"/>
					<path fill="#0071BC" d="M183.774,130.904c-0.174,0.292,1.326,12.368,1.326,12.368l-5.536-6.143L183.774,130.904z"/>
				</g>
			</g>
		</g>
		<g>
			<path d="M96.562,88.345c-0.215,0-0.401-0.157-0.438-0.376c-0.035-0.242-3.797-24.152,3.409-43.183
				c4.228-11.166,10.526-18.263,15.071-22.246c4.874-4.279,8.937-6.12,9.251-6.12c0.245,0,0.447,0.2,0.447,0.45
				c0,0.203-0.136,0.376-0.329,0.431c-0.428,0.171-15.649,6.791-23.605,27.805c-7.12,18.803-3.4,42.482-3.36,42.721
				c0.035,0.241-0.128,0.472-0.373,0.512C96.613,88.343,96.587,88.345,96.562,88.345z"/>
		</g>
		<g>
			<path d="M99.131,86.363c-0.056-0.494-0.117-1.094-0.184-1.785l0.445-0.042c0.062,0.694,0.125,1.287,0.182,1.775L99.131,86.363z
				 M98.797,82.788c-0.039-0.556-0.08-1.153-0.118-1.787l0.448-0.024c0.035,0.63,0.077,1.225,0.115,1.779L98.797,82.788z
				 M98.583,79.215c-0.023-0.578-0.05-1.178-0.071-1.793l0.445-0.013c0.025,0.615,0.048,1.209,0.071,1.784L98.583,79.215z
				 M98.469,75.633c-0.009-0.585-0.016-1.184-0.016-1.793l0.445-0.003c0,0.607,0.009,1.205,0.021,1.788L98.469,75.633z
				 M98.907,72.05l-0.447-0.006c0.007-0.583,0.021-1.181,0.037-1.79l0.445,0.013C98.926,70.875,98.917,71.465,98.907,72.05z
				 M99.007,68.484l-0.442-0.021c0.021-0.592,0.051-1.187,0.086-1.794l0.445,0.031C99.065,67.302,99.03,67.896,99.007,68.484z
				 M99.219,64.922l-0.442-0.035c0.04-0.592,0.091-1.191,0.149-1.785l0.443,0.037C99.312,63.738,99.266,64.332,99.219,64.922z
				 M99.558,61.365l-0.447-0.047c0.065-0.595,0.14-1.184,0.217-1.784l0.445,0.059C99.695,60.188,99.623,60.779,99.558,61.365z
				 M100.02,57.828l-0.44-0.07c0.091-0.584,0.188-1.177,0.289-1.77l0.438,0.075C100.208,56.657,100.108,57.244,100.02,57.828z
				 M100.633,54.312l-0.434-0.086c0.109-0.591,0.237-1.183,0.361-1.758l0.438,0.1C100.875,53.136,100.752,53.726,100.633,54.312z
				 M101.407,50.831l-0.434-0.105c0.144-0.585,0.296-1.167,0.454-1.739l0.43,0.122C101.701,49.676,101.551,50.252,101.407,50.831z
				 M102.356,47.396l-0.429-0.129c0.182-0.578,0.363-1.152,0.557-1.713l0.422,0.146C102.72,46.255,102.533,46.824,102.356,47.396z
				 M103.511,44.025l-0.422-0.159c0.21-0.553,0.434-1.115,0.662-1.669l0.411,0.173C103.936,42.916,103.718,43.473,103.511,44.025z
				 M104.875,40.737l-0.407-0.185c0.253-0.545,0.513-1.093,0.777-1.617l0.4,0.2C105.383,39.657,105.127,40.198,104.875,40.737z
				 M106.477,37.557l-0.395-0.214c0.285-0.519,0.584-1.043,0.896-1.559l0.378,0.233C107.055,36.523,106.759,37.044,106.477,37.557z
				 M108.298,34.506l-0.374-0.243c0.324-0.499,0.663-1.001,1.007-1.487l0.365,0.253C108.96,33.514,108.62,34.01,108.298,34.506z
				 M110.348,31.593l-0.36-0.27c0.364-0.469,0.741-0.944,1.118-1.407l0.346,0.28C111.074,30.658,110.702,31.126,110.348,31.593z
				 M112.605,28.845l-0.329-0.294c0.394-0.447,0.806-0.896,1.214-1.321l0.322,0.308C113.41,27.964,113,28.403,112.605,28.845z
				 M115.067,26.275l-0.308-0.323c0.428-0.416,0.868-0.826,1.31-1.225l0.302,0.332C115.93,25.452,115.49,25.861,115.067,26.275z
				 M117.719,23.893l-0.287-0.343c0.452-0.378,0.924-0.759,1.397-1.125l0.275,0.352C118.636,23.141,118.164,23.517,117.719,23.893z
				 M120.533,21.712l-0.259-0.359c0.486-0.352,0.985-0.694,1.479-1.019l0.246,0.371C121.507,21.031,121.015,21.366,120.533,21.712z
				 M123.507,19.745l-0.237-0.379c0.513-0.308,1.035-0.617,1.554-0.908l0.215,0.391C124.526,19.139,124.011,19.44,123.507,19.745z
				 M126.614,18.002l-0.207-0.398l0.49-0.255c0.415-0.218,0.813-0.417,0.879-0.481c-0.012,0.01-0.044,0.052-0.044,0.118
				c0,0.119,0.1,0.189,0.151,0.196l-0.023-0.448c0.306,0,0.322,0.211,0.322,0.252c0,0.204-0.125,0.268-1.087,0.762L126.614,18.002z"
				/>
		</g>
		<g>
			<path d="M93.188,86.673c-0.061-0.473-0.134-1.073-0.212-1.782l0.442-0.046c0.079,0.704,0.149,1.301,0.21,1.774L93.188,86.673z
				 M92.797,83.106c-0.053-0.554-0.1-1.151-0.146-1.783l0.443-0.038c0.047,0.633,0.101,1.228,0.148,1.779L92.797,83.106z
				 M92.531,79.531c-0.031-0.574-0.066-1.171-0.09-1.791l0.445-0.019c0.027,0.614,0.056,1.213,0.094,1.784L92.531,79.531z
				 M92.378,75.95c-0.015-0.586-0.026-1.179-0.03-1.792l0.44-0.005c0.009,0.61,0.021,1.204,0.037,1.78L92.378,75.95z M92.783,72.369
				l-0.45-0.003c0.007-0.588,0.015-1.185,0.026-1.789l0.445,0.007C92.79,71.187,92.785,71.78,92.783,72.369z M92.854,68.795
				l-0.447-0.015c0.023-0.586,0.049-1.187,0.086-1.788l0.441,0.022C92.9,67.617,92.872,68.212,92.854,68.795z M93.049,65.235
				L92.6,65.201c0.047-0.59,0.094-1.186,0.145-1.787l0.45,0.044C93.139,64.052,93.087,64.647,93.049,65.235z M93.371,61.68
				l-0.445-0.048c0.067-0.588,0.138-1.187,0.217-1.78l0.441,0.058C93.506,60.501,93.435,61.09,93.371,61.68z M93.838,58.145
				l-0.443-0.068c0.093-0.599,0.189-1.189,0.296-1.772l0.437,0.082C94.024,56.957,93.928,57.549,93.838,58.145z M94.46,54.634
				l-0.44-0.091c0.119-0.599,0.252-1.186,0.377-1.755l0.436,0.097C94.703,53.452,94.577,54.038,94.46,54.634z M95.254,51.158
				l-0.434-0.116c0.148-0.58,0.305-1.164,0.469-1.728l0.429,0.119C95.556,49.996,95.4,50.576,95.254,51.158z M96.239,47.728
				l-0.427-0.137c0.18-0.571,0.374-1.142,0.574-1.7l0.42,0.148C96.61,46.591,96.415,47.16,96.239,47.728z M97.431,44.374
				l-0.417-0.162c0.217-0.557,0.443-1.116,0.674-1.664l0.412,0.17C97.871,43.267,97.647,43.822,97.431,44.374z M98.813,41.09
				l-0.403-0.185c0.248-0.545,0.507-1.09,0.766-1.621l0.403,0.197C99.317,40.01,99.065,40.55,98.813,41.09z M100.385,37.89
				l-0.394-0.207c0.278-0.524,0.565-1.056,0.858-1.57l0.39,0.216C100.945,36.844,100.66,37.368,100.385,37.89z M102.135,34.789
				l-0.379-0.229c0.307-0.509,0.629-1.023,0.947-1.527l0.381,0.246C102.76,33.776,102.446,34.286,102.135,34.789z M104.074,31.798
				l-0.37-0.253c0.337-0.494,0.687-0.989,1.038-1.461l0.358,0.261C104.755,30.822,104.404,31.312,104.074,31.798z M106.18,28.927
				l-0.349-0.276c0.368-0.465,0.744-0.934,1.128-1.392l0.344,0.285C106.924,27.998,106.547,28.464,106.18,28.927z M108.47,26.2
				l-0.336-0.305c0.401-0.443,0.81-0.886,1.218-1.314l0.323,0.307C109.268,25.314,108.861,25.755,108.47,26.2z M110.925,23.617
				l-0.313-0.316c0.424-0.419,0.861-0.834,1.305-1.241l0.302,0.328C111.781,22.791,111.346,23.201,110.925,23.617z M113.55,21.208
				l-0.29-0.344c0.454-0.389,0.922-0.775,1.381-1.144l0.279,0.351C114.465,20.437,114.002,20.819,113.55,21.208z M116.336,18.987
				l-0.267-0.358c0.493-0.363,0.988-0.713,1.471-1.035l0.251,0.37C117.312,18.284,116.823,18.632,116.336,18.987z M119.291,17.009
				l-0.229-0.387c0.311-0.188,1.513-0.887,1.688-0.887v0.224l0.068,0.212C120.771,16.187,120.238,16.435,119.291,17.009z"/>
		</g>
		<path d="M186.614,151.154c-1.974-11.726-9.222-21.774-20.537-27.458c-4.135-2.073-8.117-3.316-11.122-4.047
			c0.551-0.306,1.099-0.628,1.644-0.963c7.628-4.719,14.083-12.395,19.198-22.808c0.516-1.049,0.369-2.307-0.379-3.212
			c-9.436-11.442-19.784-17.244-30.746-17.244h-0.005c-7.656,0-15.339,2.812-22.838,8.356c-3.065,2.274-6.015,4.945-8.628,7.823
			c-2.821-2.142-7.948-5.575-13.992-5.575c-4.42,0-8.449,1.787-12.012,5.311c-5.212-4.547-10.599-6.851-16.054-6.851
			c-6.557,0-13.077,3.341-19.383,9.929c-4.271,4.468-8.068,9.94-8.227,10.17c-0.346,0.499-0.532,1.088-0.532,1.697v3.903
			c0,0.867,0.381,1.688,1.033,2.257c0.545,0.469,13.334,11.395,24.726,11.462c-0.741,2.267-1.007,4.728-0.154,7.123
			c0.963,2.701,3.181,4.876,6.727,6.596c-0.234,0.129-2.731,2.874-2.731,2.874c0.729,1.325,3.258,8.736,4.299,14.238
			c1.937,10.217,2.821,25.417,2.826,25.55c2.797,1.09,16.38,0.572,16.38,0.572c3.545,2.317,18.036,11.076,34.303,11.076
			c2.515,0,4.981-0.21,7.336-0.635c8.531-1.525,15.852-9.155,22.939-16.532c3.264-3.398,6.353-6.616,9.328-8.979
			C180.343,160.014,186.684,151.546,186.614,151.154z M129.726,123.463c1.303,0.258,2.771,0.479,4.361,0.609
			c-1.361,0.33-2.816,0.646-4.361,0.937C129.759,124.466,129.759,123.952,129.726,123.463z"/>
		<path fill="#FBC52F" d="M75.335,140.926c0.425-0.102,3.334,5.864,4.687,13.018c2.003,10.556,2.544,23.697,2.544,23.697h14.64
			c0,0,20.069,14.084,40.209,10.486c11.365-2.034,21.55-17.552,31.131-25.069c4.688-2.611,14.058-8.07,15.105-12.5
			c-4.431-26.296-34.11-29.157-34.11-29.157s-8.443,5.015-23.692,7.027c3.123-6.507-1.308-9.891-1.308-9.891
			s30.107,13.797,48.772-24.213c-30.281-36.712-58.921,0.521-59.445,1.039c-0.518,0.523-14.314-15.098-26.295,0
			c-14.1-14.268-25.921-7.014-33.461,0.873c-4.16,4.346-7.936,9.804-7.936,9.804v3.907c0,0,17.183,14.837,28.119,9.631
			c-4.949,7.811-4.423,13.017,5.727,16.402C84.969,136.5,74.295,141.188,75.335,140.926z"/>
		<path fill="#C9A9A9" d="M46.39,105.736c22.946-34.232,41.183-10.373,41.183-10.373s4.876-7.607,13.684-6.464
			C94.145,89.364,87.479,97.4,87.479,97.4S72.471,75.481,46.39,105.736z"/>
		<path fill="#C9A9A9" d="M138.239,78.939c-14.614,9.435-24.372,16.424-24.372,16.424S122.406,82.872,138.239,78.939z"/>
		<path fill="#B28646" d="M50.672,108.105c21.609-31.766,34.106-5.728,34.106-5.728S75.926,125.545,50.672,108.105z"/>
		<path fill="#31738B" d="M60.662,97.969c0.021,0.147-2.589,5.614-1.729,8.459c0.857,2.846,5.294,6.949,5.294,6.949
			s-2.837,1.43-13.555-5.271C54.405,103.051,60.662,97.969,60.662,97.969z"/>
		<path d="M50.672,108.105c20.98-27.132,34.106-5.728,34.106-5.728S72.248,76.309,50.672,108.105z"/>
		<path d="M51.065,108.105c9.977,7.556,18.978,7.46,24.411,4.689c6.568-3.35,9.302-10.417,9.302-10.417s-2.764,6.126-9.12,9.288
			C69.906,114.524,61.513,114.845,51.065,108.105z"/>
		<path fill="#B28646" d="M117.843,106.854c6.752-19.81,20.427-26.327,29.421-25.513C159.426,82.43,166.27,95.66,166.27,95.66
			S147.003,131.067,117.843,106.854z"/>
		<path fill="#31738B" d="M126.49,93.381c0,0,2.127,9.024,2.703,13.514c0.49,3.805,2.022,6.192,2.022,6.192
			s-2.233,1.113-13.373-6.286C118.791,104.396,126.49,93.381,126.49,93.381z"/>
		<g>
			<path d="M85.575,135.558l-0.011-0.449h0.011c0.574,0,1.168-0.004,1.771-0.025l0.012,0.452
				C86.753,135.551,86.151,135.558,85.575,135.558z M83.771,135.527c-0.601-0.021-1.207-0.051-1.794-0.093l0.029-0.441
				c0.588,0.041,1.185,0.067,1.783,0.088L83.771,135.527z M89.151,135.457l-0.024-0.45c0.584-0.029,1.185-0.07,1.777-0.115
				l0.037,0.447C90.342,135.387,89.741,135.423,89.151,135.457z M80.191,135.284l-0.181-0.021c-0.554-0.19-1.079-0.384-1.57-0.579
				l0.165-0.415c0.477,0.192,0.986,0.378,1.527,0.562l0.099,0.012L80.191,135.284z M92.729,135.179l-0.045-0.446
				c0.585-0.055,1.173-0.12,1.771-0.19l0.052,0.442C93.908,135.056,93.312,135.122,92.729,135.179z M96.286,134.757l-0.059-0.445
				c0.581-0.078,1.168-0.164,1.769-0.254l0.068,0.443C97.461,134.592,96.869,134.678,96.286,134.757z M99.833,134.214l-0.077-0.439
				c0.579-0.1,1.164-0.203,1.754-0.312l0.088,0.442C100.999,134.01,100.411,134.116,99.833,134.214z M76.794,133.946
				c-0.576-0.287-1.108-0.59-1.578-0.9l0.252-0.376c0.448,0.306,0.969,0.599,1.524,0.882L76.794,133.946z M103.353,133.569
				l-0.089-0.439c0.58-0.115,1.163-0.234,1.753-0.355l0.091,0.438C104.516,133.335,103.934,133.452,103.353,133.569z
				 M106.856,132.831l-0.095-0.438c0.576-0.122,1.155-0.256,1.74-0.396l0.104,0.438C108.018,132.57,107.433,132.703,106.856,132.831
				z M110.345,132.018l-0.106-0.434c0.575-0.14,1.15-0.284,1.732-0.433l0.112,0.435C111.5,131.731,110.922,131.878,110.345,132.018z
				 M73.787,131.903c-0.465-0.457-0.846-0.947-1.127-1.457l0.396-0.215c0.253,0.468,0.606,0.925,1.049,1.357L73.787,131.903z
				 M113.812,131.132l-0.11-0.433c0.569-0.151,1.146-0.303,1.723-0.461l0.12,0.433C114.963,130.828,114.389,130.979,113.812,131.132
				z M117.268,130.187l-0.119-0.429c0.57-0.159,1.142-0.323,1.716-0.489l0.129,0.425
				C118.413,129.864,117.838,130.03,117.268,130.187z M120.708,129.188l-0.13-0.426c0.564-0.173,1.137-0.343,1.71-0.519l0.132,0.429
				C121.844,128.845,121.274,129.018,120.708,129.188z M72.078,128.681c-0.038-0.265-0.056-0.539-0.056-0.817
				c0-0.326,0.024-0.674,0.077-1.028l0.443,0.066c-0.047,0.33-0.074,0.656-0.074,0.962c0,0.259,0.02,0.513,0.051,0.758
				L72.078,128.681z M124.128,128.14l-0.132-0.429l0.624-0.198c0.119-0.283,0.229-0.569,0.317-0.848l0.427,0.138
				c-0.108,0.324-0.229,0.653-0.371,0.98l-0.042,0.092L124.128,128.14z M72.959,125.208l-0.422-0.145
				c0.18-0.529,0.408-1.094,0.684-1.678l0.403,0.19C73.357,124.146,73.136,124.692,72.959,125.208z M125.752,125.015l-0.444-0.05
				c0.027-0.248,0.041-0.501,0.041-0.743c0-0.332-0.029-0.665-0.076-0.981l0.443-0.067c0.053,0.344,0.078,0.694,0.078,1.049
				C125.794,124.479,125.782,124.746,125.752,125.015z M74.441,122.003l-0.389-0.225c0.264-0.458,0.556-0.941,0.866-1.441l0.062-0.1
				l0.375,0.243l-0.055,0.096C74.987,121.066,74.697,121.548,74.441,122.003z M124.763,121.603
				c-0.316-0.664-0.701-1.134-0.967-1.412l0.322-0.311c0.287,0.302,0.703,0.812,1.048,1.528L124.763,121.603z M137.237,120.248
				c-0.154,0-0.311,0-0.468-0.002l0.006-0.449c0.587,0.01,1.188,0.003,1.785-0.017l0.014,0.443
				C138.134,120.24,137.681,120.248,137.237,120.248z M134.976,120.172c-0.599-0.035-1.199-0.091-1.791-0.163l0.047-0.443
				c0.594,0.071,1.186,0.127,1.772,0.164L134.976,120.172z M140.367,120.105l-0.035-0.444c0.586-0.055,1.178-0.129,1.764-0.213
				l0.067,0.441C141.565,119.982,140.97,120.054,140.367,120.105z M68.866,119.955c-0.424,0-0.863-0.017-1.307-0.05l0.035-0.45
				c0.608,0.053,1.196,0.067,1.759,0.048l0.021,0.445C69.204,119.953,69.037,119.955,68.866,119.955z M131.399,119.753
				c-0.589-0.102-1.184-0.219-1.768-0.346l0.104-0.439c0.568,0.129,1.155,0.246,1.74,0.343L131.399,119.753z M71.181,119.75
				l-0.082-0.439c0.584-0.107,1.153-0.271,1.685-0.465l0.158,0.412C72.385,119.468,71.794,119.637,71.181,119.75z M65.765,119.656
				c-0.568-0.105-1.161-0.239-1.758-0.404l0.113-0.431c0.59,0.158,1.169,0.293,1.729,0.398L65.765,119.656z M143.934,119.575
				l-0.092-0.437c0.574-0.12,1.155-0.257,1.728-0.409l0.112,0.432C145.102,119.315,144.516,119.455,143.934,119.575z
				 M122.429,119.092l-1.42-1.085l0.27-0.354l1.422,1.084L122.429,119.092z M127.891,118.968c-0.601-0.163-1.177-0.345-1.728-0.531
				l0.145-0.42c0.545,0.18,1.115,0.36,1.695,0.523L127.891,118.968z M76.316,118.968l-0.379-0.238l0.956-1.509l0.379,0.238
				L76.316,118.968z M62.278,118.725c-0.544-0.188-1.111-0.401-1.685-0.633l0.168-0.415c0.564,0.227,1.125,0.438,1.663,0.625
				L62.278,118.725z M147.409,118.651l-0.136-0.425c0.559-0.184,1.12-0.388,1.667-0.603l0.166,0.416
				C148.546,118.26,147.979,118.462,147.409,118.651z M74.585,118.518l-0.188-0.407l1.611-0.769l0.189,0.406L74.585,118.518z
				 M124.478,117.769l-1.625-0.743l0.187-0.405l1.626,0.745L124.478,117.769z M58.943,117.372c-0.527-0.245-1.072-0.509-1.617-0.785
				l0.205-0.398c0.54,0.278,1.074,0.539,1.603,0.778L58.943,117.372z M150.761,117.34l-0.183-0.404
				c0.529-0.246,1.068-0.509,1.591-0.781l0.208,0.396C151.85,116.828,151.304,117.097,150.761,117.34z M119.588,116.915l-1.422-1.08
				l0.275-0.354l1.418,1.082L119.588,116.915z M138.05,116.685c-0.598,0-1.206-0.021-1.803-0.062l0.03-0.445
				c0.69,0.047,1.389,0.07,2.075,0.062l0.005,0.445C138.253,116.685,138.152,116.685,138.05,116.685z M140.159,116.594l-0.039-0.446
				c0.584-0.048,1.173-0.123,1.76-0.22l0.073,0.445C141.353,116.469,140.755,116.541,140.159,116.594z M134.459,116.424
				c-0.592-0.083-1.188-0.19-1.778-0.316l0.097-0.436c0.576,0.123,1.162,0.229,1.745,0.314L134.459,116.424z M121.225,116.277
				l-1.622-0.74l0.188-0.408l1.623,0.747L121.225,116.277z M68.193,116.022l-0.004-0.45c0.583-0.01,1.18-0.047,1.76-0.112
				l0.049,0.444C69.404,115.972,68.8,116.011,68.193,116.022z M143.722,116.022l-0.107-0.439c0.566-0.13,1.145-0.291,1.711-0.461
				l0.134,0.426C144.884,115.725,144.299,115.885,143.722,116.022z M66.382,115.97c-0.586-0.047-1.191-0.115-1.788-0.208
				l0.066-0.441c0.586,0.092,1.182,0.163,1.76,0.203L66.382,115.97z M55.744,115.735c-0.516-0.286-1.04-0.595-1.556-0.906
				l0.231-0.384c0.511,0.313,1.034,0.613,1.541,0.898L55.744,115.735z M153.948,115.677l-0.228-0.39
				c0.19-0.107,0.38-0.224,0.563-0.34c0.318-0.193,0.629-0.395,0.938-0.601l0.249,0.371c-0.316,0.206-0.631,0.411-0.954,0.612
				C154.333,115.449,154.14,115.561,153.948,115.677z M130.935,115.674c-0.569-0.161-1.15-0.342-1.72-0.545l0.149-0.422
				c0.559,0.198,1.131,0.375,1.69,0.538L130.935,115.674z M71.787,115.607l-0.102-0.435c0.578-0.126,1.151-0.282,1.703-0.466
				l0.141,0.425C72.955,115.32,72.373,115.483,71.787,115.607z M62.82,115.416c-0.572-0.133-1.161-0.289-1.741-0.469l0.13-0.429
				c0.572,0.177,1.148,0.331,1.714,0.463L62.82,115.416z M147.161,114.961l-0.156-0.419c0.544-0.206,1.094-0.436,1.634-0.683
				l0.188,0.405C148.272,114.514,147.714,114.752,147.161,114.961z M117.974,114.789l-1.091-0.496l0.137,0.101l-0.271,0.356
				l-1.42-1.088l0.271-0.358l0.807,0.621l0.132-0.285l1.626,0.743L117.974,114.789z M127.536,114.487
				c-0.545-0.228-1.099-0.474-1.647-0.735l0.194-0.405c0.541,0.262,1.089,0.505,1.621,0.727L127.536,114.487z M75.216,114.484
				l-0.179-0.411c0.532-0.234,1.065-0.504,1.573-0.797l0.222,0.388C76.309,113.968,75.764,114.235,75.216,114.484z M59.373,114.37
				c-0.544-0.202-1.108-0.427-1.672-0.671l0.18-0.407c0.559,0.235,1.109,0.46,1.648,0.659L59.373,114.37z M52.663,113.877
				c-0.499-0.324-1.003-0.655-1.494-0.996l0.254-0.367c0.487,0.336,0.99,0.667,1.485,0.988L52.663,113.877z M156.946,113.688
				l-0.269-0.363c0.474-0.344,0.943-0.717,1.405-1.091l0.281,0.349C157.896,112.961,157.422,113.334,156.946,113.688z
				 M150.445,113.474l-0.21-0.398c0.516-0.273,1.041-0.563,1.547-0.868l0.229,0.379
				C151.498,112.896,150.967,113.197,150.445,113.474z M56.07,112.946c-0.525-0.262-1.066-0.534-1.594-0.826l0.211-0.394
				c0.524,0.288,1.059,0.563,1.579,0.816L56.07,112.946z M124.29,112.932c-0.523-0.281-1.044-0.58-1.561-0.896l0.229-0.379
				c0.512,0.306,1.029,0.604,1.546,0.881L124.29,112.932z M78.361,112.695l-0.261-0.37c0.475-0.328,0.943-0.7,1.397-1.081
				l0.289,0.339C79.324,111.977,78.844,112.352,78.361,112.695z M49.698,111.851c-0.489-0.36-0.974-0.726-1.438-1.081l0.275-0.354
				c0.457,0.354,0.939,0.715,1.429,1.068L49.698,111.851z M153.53,111.617l-0.25-0.368c0.486-0.324,0.977-0.67,1.448-1.026
				l0.267,0.358C154.513,110.939,154.019,111.291,153.53,111.617z M159.729,111.413l-0.296-0.331
				c0.438-0.392,0.872-0.805,1.299-1.213l0.315,0.317C160.618,110.608,160.173,111.021,159.729,111.413z M52.915,111.23
				c-0.502-0.3-1.021-0.62-1.528-0.947l0.244-0.377c0.504,0.326,1.014,0.64,1.512,0.938L52.915,111.23z M121.208,111.079
				c-0.493-0.328-0.99-0.671-1.479-1.025l0.266-0.358c0.481,0.345,0.974,0.689,1.463,1.01L121.208,111.079z M81.11,110.352
				l-0.32-0.312c0.287-0.29,0.572-0.595,0.847-0.908c0.12-0.135,0.234-0.268,0.347-0.403l0.342,0.292
				c-0.112,0.136-0.23,0.271-0.352,0.405C81.693,109.746,81.403,110.054,81.11,110.352z M156.411,109.472l-0.284-0.347
				c0.453-0.367,0.903-0.76,1.353-1.157l0.301,0.329C157.324,108.704,156.868,109.1,156.411,109.472z M47.401,109.393h-0.449v-1.788
				h0.449V109.393z M49.896,109.285l-1.188-0.812l0.447-0.66l0.368,0.254l-0.196,0.287l0.792,0.547L49.896,109.285z
				 M118.295,108.981c-0.447-0.348-0.903-0.714-1.355-1.089l-0.046-0.035l0.283-0.347l0.048,0.039
				c0.45,0.37,0.904,0.735,1.344,1.079L118.295,108.981z M162.31,108.905l-0.328-0.307c0.405-0.423,0.809-0.871,1.197-1.316
				l0.338,0.292C163.12,108.027,162.712,108.476,162.31,108.905z M83.438,107.596l-0.362-0.263c0.341-0.474,0.672-0.968,0.982-1.472
				l0.383,0.234C84.121,106.608,83.789,107.116,83.438,107.596z M159.089,107.072l-0.308-0.322c0.214-0.205,0.425-0.414,0.638-0.63
				c0.208-0.212,0.416-0.421,0.61-0.632l0.327,0.311c-0.203,0.209-0.41,0.423-0.623,0.634
				C159.521,106.649,159.306,106.864,159.089,107.072z M50.537,106.594l-0.367-0.254c0.349-0.499,0.702-0.987,1.046-1.459
				l0.36,0.264C51.23,105.61,50.882,106.098,50.537,106.594z M116.992,106.299l-0.425-0.146c0.197-0.568,0.401-1.139,0.609-1.688
				l0.417,0.158C117.387,105.167,117.182,105.734,116.992,106.299z M164.672,106.203l-0.347-0.282
				c0.364-0.455,0.739-0.923,1.101-1.4l0.354,0.269C165.419,105.272,165.041,105.745,164.672,106.203z M47.85,106.103l-0.36-0.262
				c0.282-0.392,0.644-0.88,1.065-1.442l0.354,0.269C48.488,105.229,48.133,105.715,47.85,106.103z M85.336,104.527l-0.398-0.207
				c0.497-0.949,0.732-1.568,0.743-1.599l0.158-0.407l0.419,0.158l-0.16,0.408C86.074,102.949,85.834,103.568,85.336,104.527z
				 M161.572,104.474l-0.331-0.297c0.387-0.437,0.777-0.896,1.155-1.35l0.347,0.283C162.357,103.568,161.968,104.03,161.572,104.474
				z M52.648,103.724l-0.354-0.276c0.37-0.478,0.749-0.953,1.117-1.403l0.348,0.284C53.391,102.775,53.016,103.245,52.648,103.724z
				 M166.843,103.339l-0.363-0.255c0.334-0.477,0.671-0.975,1.005-1.47l0.369,0.243
				C167.523,102.359,167.183,102.857,166.843,103.339z M49.993,103.25l-0.348-0.274c0.346-0.448,0.723-0.92,1.11-1.408l0.352,0.283
				C50.719,102.332,50.345,102.806,49.993,103.25z M118.248,102.97l-0.412-0.173c0.232-0.556,0.471-1.112,0.713-1.646l0.408,0.186
				C118.719,101.865,118.481,102.414,118.248,102.97z M163.866,101.707l-0.354-0.273c0.363-0.468,0.72-0.949,1.066-1.425l0.36,0.261
				C164.59,100.75,164.229,101.235,163.866,101.707z M54.907,100.966l-0.339-0.295c0.398-0.456,0.803-0.901,1.202-1.33l0.329,0.305
				C55.703,100.068,55.303,100.512,54.907,100.966z M85.085,100.91c-0.286-0.5-0.61-1.004-0.945-1.499l0.37-0.256
				c0.344,0.507,0.667,1.021,0.961,1.532L85.085,100.91z M52.242,100.475l-0.341-0.288c0.394-0.471,0.79-0.928,1.172-1.361
				l0.336,0.301C53.025,99.555,52.637,100.009,52.242,100.475z M168.825,100.351l-0.379-0.237c0.311-0.508,0.619-1.018,0.919-1.527
				l0.385,0.224C169.451,99.324,169.137,99.841,168.825,100.351z M119.721,99.725l-0.4-0.199c0.268-0.539,0.545-1.075,0.824-1.592
				l0.395,0.214C120.265,98.657,119.987,99.188,119.721,99.725z M165.96,98.793l-0.37-0.252c0.345-0.51,0.665-1.014,0.962-1.497
				l0.38,0.234C166.638,97.764,166.308,98.275,165.96,98.793z M57.336,98.37l-0.312-0.322c0.435-0.429,0.873-0.841,1.308-1.23
				l0.301,0.332C58.203,97.535,57.768,97.945,57.336,98.37z M83.087,97.978c-0.372-0.465-0.759-0.92-1.154-1.349l0.329-0.301
				c0.406,0.436,0.796,0.899,1.176,1.372L83.087,97.978z M54.61,97.808l-0.329-0.305c0.115-0.122,0.222-0.24,0.336-0.354
				c0.302-0.322,0.611-0.633,0.917-0.938l0.313,0.322c-0.303,0.299-0.605,0.605-0.909,0.924
				C54.83,97.573,54.717,97.686,54.61,97.808z M170.632,97.25l-0.391-0.213c0.285-0.518,0.568-1.048,0.84-1.574l0.399,0.207
				C171.206,96.199,170.919,96.733,170.632,97.25z M113.639,97.037c0,0,0,0-0.002,0c-0.38,0-0.691-0.119-1.139-0.427l0.25-0.369
				c0.38,0.257,0.604,0.349,0.889,0.349c0.002,0,0.002,0,0.002,0c0.192,0,0.373-0.05,0.531-0.146l0.233,0.381
				C114.177,96.963,113.911,97.037,113.639,97.037z M88.135,96.932l-0.351-0.275l0.353-0.448c0.263-0.325,0.528-0.647,0.79-0.944
				l0.334,0.292c-0.258,0.295-0.519,0.61-0.772,0.927L88.135,96.932z M86.609,96.839l-0.238-0.235
				c-0.348-0.352-0.693-0.691-1.03-1.008l0.306-0.33c0.345,0.326,0.695,0.667,1.044,1.02l0.233,0.242L86.609,96.839z
				 M121.416,96.598l-0.382-0.227c0.301-0.518,0.618-1.032,0.94-1.528l0.375,0.24C122.033,95.578,121.715,96.089,121.416,96.598z
				 M59.981,95.989l-0.28-0.346c0.476-0.385,0.954-0.75,1.431-1.09l0.261,0.363C60.926,95.251,60.45,95.613,59.981,95.989z
				 M167.413,95.707l-0.282-0.549c-0.005-0.004-0.197-0.379-0.573-1.007l0.381-0.229c0.395,0.651,0.59,1.03,0.593,1.032l0.279,0.545
				L167.413,95.707z M111.071,95.511c-0.334-0.258-0.838-0.649-1.431-1.066l0.263-0.365c0.599,0.425,1.107,0.821,1.438,1.075
				L111.071,95.511z M115.657,95.463l-0.339-0.294c0.387-0.45,0.791-0.897,1.201-1.336l0.323,0.302
				C116.443,94.57,116.04,95.013,115.657,95.463z M80.679,95.386c-0.442-0.405-0.898-0.785-1.361-1.13l0.27-0.357
				c0.472,0.353,0.938,0.739,1.392,1.154L80.679,95.386z M57.141,95.31l-0.301-0.332c0.452-0.41,0.91-0.805,1.363-1.179l0.283,0.346
				C58.037,94.513,57.587,94.907,57.141,95.31z M171.533,94.875c-0.384-0.459-0.778-0.914-1.162-1.348l0.328-0.296
				c0.394,0.437,0.792,0.892,1.179,1.354L171.533,94.875z M84.018,94.406c-0.459-0.393-0.924-0.768-1.383-1.117l0.273-0.356
				c0.466,0.356,0.935,0.735,1.401,1.132L84.018,94.406z M90.484,94.279l-0.308-0.326c0.443-0.426,0.905-0.822,1.366-1.182
				l0.273,0.353C91.369,93.475,90.92,93.862,90.484,94.279z M62.87,93.938l-0.238-0.38c0.527-0.323,1.058-0.618,1.585-0.88
				l0.195,0.399C63.901,93.336,63.383,93.625,62.87,93.938z M123.345,93.616l-0.362-0.261c0.346-0.49,0.707-0.975,1.069-1.447
				l0.354,0.274C124.046,92.648,123.691,93.129,123.345,93.616z M108.175,93.448c-0.521-0.327-1.031-0.634-1.53-0.897l0.214-0.394
				c0.507,0.274,1.031,0.58,1.552,0.917L108.175,93.448z M77.857,93.271c-0.514-0.305-1.04-0.575-1.567-0.811l0.18-0.408
				c0.544,0.242,1.089,0.521,1.613,0.833L77.857,93.271z M59.888,93.06l-0.262-0.361c0.495-0.363,0.991-0.705,1.486-1.021
				l0.237,0.376C60.865,92.364,60.37,92.703,59.888,93.06z M118.078,92.85l-0.321-0.316c0.419-0.424,0.85-0.846,1.281-1.255
				l0.312,0.319C118.921,92.011,118.495,92.428,118.078,92.85z M165.597,92.657c-0.327-0.486-0.676-0.976-1.03-1.447l0.356-0.267
				c0.358,0.478,0.711,0.969,1.043,1.463L165.597,92.657z M66.024,92.359l-0.16-0.414c0.574-0.222,1.151-0.409,1.723-0.562
				l0.114,0.432C67.147,91.961,66.585,92.147,66.024,92.359z M81.193,92.256c-0.498-0.331-1.004-0.647-1.506-0.932l0.222-0.386
				c0.509,0.287,1.021,0.604,1.532,0.944L81.193,92.256z M169.169,92.213c-0.414-0.435-0.831-0.869-1.242-1.277l0.319-0.32
				c0.413,0.419,0.831,0.851,1.242,1.289L169.169,92.213z M93.269,92.123l-0.233-0.381c0.529-0.317,1.078-0.598,1.618-0.831
				l0.176,0.413C94.302,91.548,93.779,91.817,93.269,92.123z M74.639,91.864c-0.559-0.162-1.137-0.288-1.712-0.37l0.063-0.445
				c0.596,0.088,1.194,0.212,1.775,0.385L74.639,91.864z M105.06,91.768c-0.553-0.242-1.109-0.453-1.649-0.631l0.136-0.424
				c0.556,0.18,1.124,0.396,1.692,0.648L105.06,91.768z M69.424,91.475l-0.055-0.44c0.585-0.078,1.173-0.12,1.746-0.12
				c0.002,0,0.006,0,0.01,0h0.054v0.447h-0.054C70.552,91.369,69.992,91.398,69.424,91.475z M62.877,91.152l-0.215-0.394
				c0.537-0.294,1.084-0.564,1.622-0.798l0.179,0.41C63.938,90.604,63.402,90.865,62.877,91.152z M125.526,90.806l-0.341-0.289
				c0.397-0.464,0.802-0.911,1.2-1.339l0.328,0.304C126.313,89.904,125.916,90.35,125.526,90.806z M96.488,90.762l-0.108-0.431
				c0.587-0.148,1.194-0.253,1.795-0.305l0.042,0.443C97.636,90.519,97.051,90.618,96.488,90.762z M101.703,90.686
				c-0.583-0.12-1.17-0.199-1.735-0.237l0.028-0.445c0.586,0.038,1.194,0.121,1.8,0.245L101.703,90.686z M78.113,90.514
				c-0.539-0.254-1.091-0.478-1.633-0.672l0.152-0.421c0.553,0.199,1.114,0.428,1.672,0.688L78.113,90.514z M120.659,90.395
				l-0.298-0.335c0.446-0.396,0.905-0.79,1.361-1.171l0.285,0.346C121.557,89.608,121.106,90,120.659,90.395z M163.46,89.814
				c-0.377-0.461-0.771-0.91-1.167-1.341l0.327-0.301c0.405,0.439,0.801,0.89,1.188,1.355L163.46,89.814z M66.109,89.733
				l-0.145-0.424c0.582-0.193,1.168-0.356,1.746-0.485l0.099,0.434C67.247,89.386,66.675,89.544,66.109,89.733z M166.646,89.692
				c-0.436-0.409-0.875-0.806-1.32-1.194l0.299-0.336c0.441,0.387,0.887,0.796,1.329,1.206L166.646,89.692z M74.788,89.333
				c-0.572-0.141-1.153-0.251-1.728-0.327l0.058-0.441c0.589,0.074,1.188,0.191,1.78,0.335L74.788,89.333z M69.546,88.973
				l-0.047-0.446c0.544-0.059,1.097-0.093,1.645-0.093l0.164,0.003l-0.005,0.45h-0.159C70.612,88.887,70.076,88.914,69.546,88.973z
				 M127.966,88.219l-0.314-0.32c0.434-0.42,0.884-0.826,1.331-1.209l0.29,0.332C128.834,87.404,128.394,87.805,127.966,88.219z
				 M123.394,88.115l-0.275-0.353c0.374-0.293,0.729-0.562,1.06-0.812c0.127-0.089,0.253-0.183,0.376-0.27l0.262,0.362
				c-0.123,0.089-0.246,0.179-0.369,0.27C124.113,87.559,123.765,87.826,123.394,88.115z M163.964,87.354
				c-0.459-0.374-0.934-0.743-1.404-1.09l0.268-0.358c0.475,0.352,0.947,0.722,1.42,1.1L163.964,87.354z M161.06,87.199
				c-0.427-0.418-0.865-0.825-1.303-1.206l0.292-0.337c0.444,0.387,0.888,0.797,1.322,1.221L161.06,87.199z M126.276,86.02
				l-0.254-0.367c0.505-0.34,1.016-0.667,1.514-0.976l0.233,0.38C127.276,85.363,126.774,85.685,126.276,86.02z M130.65,85.896
				l-0.273-0.353c0.475-0.365,0.962-0.723,1.451-1.062l0.255,0.372C131.599,85.185,131.114,85.536,130.65,85.896z M161.113,85.234
				c-0.492-0.336-0.996-0.658-1.493-0.965l0.23-0.379c0.503,0.304,1.011,0.635,1.51,0.973L161.113,85.234z M158.379,84.871
				c-0.468-0.361-0.954-0.707-1.438-1.033l0.242-0.37c0.493,0.329,0.988,0.683,1.468,1.051L158.379,84.871z M129.306,84.155
				l-0.221-0.392c0.522-0.294,1.056-0.578,1.584-0.846l0.205,0.4C130.347,83.582,129.819,83.866,129.306,84.155z M133.576,83.896
				l-0.229-0.384c0.516-0.311,1.049-0.607,1.571-0.88l0.208,0.399C134.61,83.298,134.084,83.59,133.576,83.896z M158.08,83.386
				c-0.526-0.284-1.057-0.56-1.584-0.81l0.192-0.402c0.536,0.253,1.073,0.527,1.605,0.815L158.08,83.386z M155.426,82.911
				c-0.516-0.288-1.048-0.562-1.575-0.806l0.193-0.405c0.536,0.249,1.076,0.526,1.603,0.826L155.426,82.911z M132.48,82.555
				l-0.185-0.412c0.552-0.244,1.114-0.477,1.656-0.689l0.166,0.415C133.574,82.078,133.022,82.313,132.48,82.555z M136.728,82.266
				l-0.184-0.409c0.557-0.243,1.117-0.464,1.678-0.665l0.147,0.418C137.819,81.809,137.268,82.028,136.728,82.266z M154.875,81.861
				c-0.552-0.222-1.11-0.432-1.665-0.618l0.143-0.424c0.565,0.187,1.13,0.4,1.69,0.628L154.875,81.861z M152.219,81.428
				c-0.555-0.205-1.123-0.384-1.685-0.533l0.103-0.387c-0.282-0.066-0.565-0.129-0.848-0.181l0.086-0.443
				c0.585,0.12,1.173,0.256,1.758,0.411l-0.115,0.42c0.285,0.089,0.572,0.188,0.856,0.291L152.219,81.428z M135.788,81.273
				l-0.135-0.423c0.572-0.189,1.155-0.357,1.726-0.512l0.112,0.431C136.931,80.921,136.354,81.088,135.788,81.273z M140.06,81.07
				l-0.122-0.428c0.586-0.164,1.178-0.307,1.758-0.422l0.084,0.436C141.21,80.77,140.634,80.909,140.06,81.07z M148.812,80.51
				c-0.484-0.08-0.977-0.146-1.463-0.188c-0.092-0.01-0.196-0.019-0.29-0.026l0.024-0.364c-0.272-0.025-0.535-0.049-0.807-0.063
				l0.023-0.446c0.604,0.035,1.204,0.094,1.799,0.171l-0.05,0.356c0.28,0.035,0.562,0.077,0.838,0.126L148.812,80.51z
				 M143.53,80.381l-0.055-0.443c0.609-0.067,1.213-0.113,1.807-0.129l0.01,0.45C144.715,80.273,144.118,80.312,143.53,80.381z
				 M139.222,80.365l-0.087-0.435c0.586-0.122,1.188-0.222,1.772-0.301l0.064,0.444C140.394,80.15,139.8,80.253,139.222,80.365z
				 M142.733,79.887l-0.034-0.445c0.601-0.044,1.2-0.068,1.803-0.07l0.005,0.445C143.912,79.822,143.318,79.847,142.733,79.887z"/>
		</g>
		<path d="M112.896,71.654c0.779,0,6.511,9.565,6.511,9.565s7.565-0.673,12.385-1.757c7.896-1.773,10.787-4.685,20.205-4.615
			c4.429-0.244,14.778,4.847,18.959,4.615c3.387-0.185,3.905-3.809,1.113-5.716c-2.797-1.909-18.298-12.767-22.983-13.293
			C136.847,74.257,112.896,71.654,112.896,71.654z"/>
		<path d="M88.423,70.837c3.12,2.378-6.046,12.01-6.046,12.01s-5.084,2.319-11.14,2.607c-6.245,0.294-13.519-1.436-16.158-1.301
			c-5.188,0.258-14.04,5.467-14.04,5.467s-2.484-2.868-1.373-2.868s7.103-10.673,11.006-13.275
			c3.903-2.602,21.084,3.385,21.867,3.125C73.322,76.34,83.999,75.56,88.423,70.837z"/>
		<path d="M95.337,98.246c13.395-1.857,16.503,18.374,16.552,18.11c0.03-0.115,5.873-1.56,8.478,3.648
			c3.387,6.506-1.73,14.508-11.963,11.646c-3.645,1.826-12.549,8.354-26.026-0.239c-5.674,1.564-8.976-3.191-8.243-7.761
			c0.496-2.575,2.679-5.005,4.164-5.707c1.272-0.604,2.376-1.244,2.376-1.244s0.881-2.287,5.828-5.154
			C87.562,108.838,88.162,100.292,95.337,98.246z"/>
		<path fill="#B28646" d="M107.981,120.829c6.652-4.368,10.3-1.754,11.498,1.409c0.882,2.337-0.335,6.513-2.753,7.484
			c-4.521,2.414-8.692-0.251-8.692-0.251s-4.345,3.648-10.759,4.27c-6.264,0.614-14.589-1.739-15.831-6.532
			c-0.779,0.282-0.314,2.734-0.314,2.734s-3.805,0.685-5.312-3.738c-1.109-5.026,3.869-7.187,3.869-7.187
			c-0.012,0.057,0.049,1.271,0.926,2.704c2.438-8.332,7.687-8.921,7.687-8.921s0.333-9.163,7.037-12.419
			c5.088-1.867,10.53,4.011,12.592,9.691c1.763,4.086,2.296,7.128,2.296,7.128S107.963,119.015,107.981,120.829z"/>
		<path fill="#31738B" d="M104.891,129.062c0,0,5.066-4.297,8.513-4.612c1.809-0.214,8.133-0.489,4.661,4.305
			c-4.591,4.248-10.03,0.63-10.03,0.63s-4.043,3.645-9.372,4.456c-6.704,1.02-15.838-0.967-17.218-6.718
			C86.488,134.18,104.891,129.062,104.891,129.062z"/>
		<path fill="#B28646" d="M82.432,140.649c61.709-9.116,65.873-19.271,66.912-19.008c1.044,0.263,28.119,2.084,23.173,28.381
			c-4.429,20.046-39.576,36.71-39.576,36.71s-30.461-7.29-31.503-7.551c-1.038-0.26-12.493-10.933-12.493-10.933
			S81.649,144.032,82.432,140.649z"/>
		<path d="M105.568,128.947c0,0,3.212-1.867,5.191-1.841c1.976,0.026,3.874,0.84,3.543,1.471c-0.327,0.633-2.279,0.663-4.614,0
			C108.559,128.112,105.568,128.947,105.568,128.947z"/>
		<path d="M119.768,175.483c1.156,0,10.317,0,10.317,0l-3.18,2.55l0.844,2.414c0,0,10.097,1.09,10.56,0.931
			c0.469-0.153,1.665-2.447,2.231-2.621c0.565-0.172,4.754-2.188,4.754-2.188l4.495-6.053h1.562l2.014-1.705l8.692-7.3h1.705
			l2.508-4.056c0,0,2.065-0.079,2.62,0c0.552,0.075,3.627-7.433,3.627-7.433l-0.681,14.749l-1.241,3.416
			c0,0-1.553,1.239-2.174,2.173c-0.623,0.934-7.01,11.036-7.01,11.036l-2.305-0.79l-2.791,3.724h-3.104l-3.423,5.587h-3.647
			l-1.158,2.328l-2.929-0.624l-2.349-0.153l-1.86,0.777l-3.725,0.776l-3.576,1.705l-3.64-0.929l-9.062-1.24v1.088
			c0,0-15.387-8.387-15.854-8.694c-0.462-0.308-6.849-6.795-6.295-6.194c0.554,0.607-4.269-8.215-4.269-8.215l5.138,2.764
			l2.477,1.71l2.018-0.463l3.546,3.987l4.041,0.167l2.074,2.705l3.623-0.341l0.375-0.465l2.174-0.159l1.704,1.553l1.173-1.238
			l1.224,1.394h2.571l-1.079-3.738L119.768,175.483z"/>
		<path d="M186.422,129.981c7.269,1.992,11.016-17.753,3.204-18.639C181.817,110.464,179.159,127.988,186.422,129.981z"/>
		<path fill="#31738B" d="M126.515,97.366c0,0-0.339,4.14,1.47,7.558c5.595,11.133,20.921,6.158,20.921,6.158
			s6.09-16.481,2.2-19.488C147.22,88.586,126.515,97.366,126.515,97.366z"/>
		<path fill="#D7DADD" d="M158.953,96.014c2.174,9.78-10.283,17.229-19.4,15.365c-6.568-1.344-10.617-7.842-10.695-7.91
			c-0.173-0.159-1.108-5.342-1.108-5.342s7.333-9.611,16.615-10.189C148.967,87.656,154.169,88.549,158.953,96.014z"/>
		<path d="M125.739,96.478c2.31,3.262,3.569-0.31,4.031,0c0.272,0.183,5.95-6.529,14.439-7.76c2.594-0.639,9.328,1.447,11.882,3.61
			c2.755,1.096,5.319,1.358,5.319,1.358s-7.574-7.019-15.961-7.605C137.302,85.503,126.982,89.897,125.739,96.478z"/>
		<path d="M60.857,101.603c8.227-10.557,17.539-8.229,19.866-7.453s3.104,4.097,3.104,4.097s-8.114-1.583-14.586-0.383
			C65.521,98.547,59.502,103.636,60.857,101.603z"/>
		<path fill="#D7DADD" d="M60.857,101.603c-3.565,3.103-2.171,4.811-0.933,6.05c11.953,9.935,20.175,1.703,20.175,1.703
			s4.851-4.65,4.679-6.978c-0.175-2.329-2.401-4.648-2.401-4.648S71.729,92.35,60.857,101.603z"/>
		<g>
			<g>
				<path d="M80.069,103.996c-0.528,4.673-4.752,8.027-9.423,7.494c-4.675-0.533-8.028-4.758-7.494-9.428
					c0.529-4.672,4.754-8.027,9.426-7.495C77.249,95.102,80.608,99.322,80.069,103.996z"/>
				<path fill="#31738B" d="M77.489,103.7c-0.294,2.579-2.626,4.435-5.203,4.14c-2.582-0.299-4.434-2.625-4.14-5.206
					c0.296-2.581,2.625-4.433,5.206-4.138C75.931,98.791,77.787,101.121,77.489,103.7z"/>
				<path fill="#D7DADD" d="M81.789,98.5c-0.296,2.578-2.627,4.432-5.202,4.139c-2.585-0.297-4.434-2.625-4.142-5.205
					c0.293-2.581,2.623-4.431,5.204-4.138C80.228,93.589,82.08,95.921,81.789,98.5z"/>
				<path d="M75.477,103.029c0,2.136-1.729,3.865-3.867,3.865c-2.134,0.006-3.862-1.729-3.865-3.865
					c0-2.135,1.729-3.865,3.865-3.865C73.746,99.164,75.477,100.895,75.477,103.029z"/>
				<circle fill="#D7DADD" cx="72.45" cy="101.485" r="1.683"/>
			</g>
		</g>
		<g>
			<g>
				<path d="M154.669,97.413c-0.65,5.632-5.729,9.673-11.357,9.032c-5.634-0.645-9.676-5.729-9.032-11.362
					c0.642-5.625,5.729-9.665,11.361-9.022C151.265,86.701,155.312,91.785,154.669,97.413z"/>
				<path fill="#31738B" d="M151.562,97.058c-0.355,3.11-3.163,5.345-6.274,4.989c-3.105-0.354-5.343-3.163-4.986-6.272
					c0.354-3.11,3.163-5.338,6.274-4.981C149.681,91.145,151.915,93.949,151.562,97.058z"/>
				<path fill="#D7DADD" d="M156.736,90.798c-0.354,3.107-3.164,5.338-6.272,4.981c-3.108-0.352-5.339-3.16-4.982-6.27
					c0.356-3.11,3.159-5.339,6.268-4.984C154.854,84.879,157.089,87.687,156.736,90.798z"/>
				<path d="M149.13,96.252c0,2.569-2.08,4.658-4.656,4.658c-2.571,0-4.659-2.085-4.659-4.658c0-2.571,2.086-4.658,4.657-4.658
					C147.047,91.594,149.127,93.681,149.13,96.252z"/>
				<path fill="#D7DADD" d="M147.499,94.621c-0.13,1.112-1.132,1.912-2.246,1.784c-1.107-0.129-1.911-1.131-1.785-2.247
					c0.131-1.11,1.133-1.91,2.248-1.779C146.83,92.504,147.628,93.506,147.499,94.621z"/>
			</g>
		</g>
		<g>
			<path d="M94.37,148.939c0.106,0.118,0.241,3.206,3.845,6.423c2.46,9.538,11.401,12.798,11.401,12.798l-9.165-13.857l-2.637-3.697
				l-2.172-1.368L94.37,148.939z"/>
			<path fill="#3F0306" d="M99.28,153.674c0,0,3.493,20.75,29.759,13.162c34.022-13.858,26.604-32.791,26.604-32.791L99.28,153.674z
				"/>
			<path d="M154.538,146.666c0,0-6.088-2.174-14.229,4.83c-13.444,0.294-14.791,12.722-14.791,12.722s6.142,3.938,16.36-2.844
				C148.018,157.612,154.538,146.666,154.538,146.666z"/>
			<path fill="#8D1516" d="M127.671,163.67c-0.656-0.744,1.282-7.948,9.998-10.491c-1.332,1.326-1.072,3.074-1.072,3.074
				s6.947-9.27,16.955-7.672c-3.822,7.07-10.25,10.853-15.529,13.784C132.739,165.302,127.671,163.67,127.671,163.67z"/>
			<path fill="#C9A9A9" d="M137.669,153.179c0,0-9.589,2.562-10.101,10.323c2.707,0.612,6.439-1.541,8.169-3.1
				c3.825-2.8,5.52-8.464,13.168-11.899c-3.446,0.614-7.523,2.431-12.309,7.75C136.817,154.771,137.669,153.179,137.669,153.179z"/>
			<path fill="#D7DADD" d="M155.624,135.021c-7.514,17.705-26.741,21.993-39.216,22.317c-6.367,0.173-11.337-1.291-11.337-1.291
				l-1.895-3.197l-0.126,3.183c0,0-5.38-0.19-7.408-6.795c1.098-1.704,7.744-3.419,8.336-3.445
				c0.598-0.037,18.043-3.091,18.645-2.976c0.826,0.159,11.804-1.111,20.996-3.548C149.836,137.619,155.518,134.223,155.624,135.021
				z"/>
			<path d="M147.972,131.565c0,0,9.193-3.791,12.019,6.798C156.391,132.229,147.972,131.565,147.972,131.565z"/>
			<path d="M94.863,146.138l0.04,2.145l2.614,0.729l-3.406,0.404c0,0-0.391,1.175-1.609,1.972
				C92.615,147.658,94.863,146.138,94.863,146.138z"/>
			<path d="M121.545,143.087l-26.275,6.169c0,0,0.771,1.937,2.59,1.597c0.645-0.12,3.713-1.621,6.414-1.877
				c2.699-0.258,5.727,1.302,9.281,0.48c3.55-0.822,7.992-4.912,10.937-5.251C127.435,143.871,121.545,143.087,121.545,143.087z"/>
			<path fill="#D1AB6F" d="M95.598,148.417c1.91-0.929,5.133-4.688,8.812-5.639c3.68-0.95,6.325,0.993,13.17-2.069
				c3.215-1.222,11.854,0.188,16.667-0.922c11.227-2.114,21.324-5.737,21.324-5.737s0.799-0.662,0.053,0.971
				c-13.41,8.504-26.992,8.51-31.133,9.185c-4.142,0.681-7.48,3.252-10.728,3.876c-3.252,0.629-5.773,0.063-8.328-0.26
				c-2.555-0.33-7.195,2.467-8.492,1.938c-1.301-0.521-1.301-0.521-1.301-0.521S93.692,149.344,95.598,148.417z"/>
			<path fill="#31738B" d="M110.606,168.669c11.506,6.814,22.176,4.756,32.469-2.803c9.835-7.219,11.882-19.221,11.882-19.221
				S141.038,177.053,110.606,168.669z"/>
			<path fill="#997342" d="M155.571,134.05c0.527,0.338,2.778,8.658-3.164,18.316c-4.078,6.628-10.382,14.189-25.43,18.539
				c-24.249,2.582-27.437-16.135-27.437-16.135s3.58,9.488,15.192,10.903c3.458,0.421,8.918-0.965,12.938-2.004
				c12.442-2.929,20.24-7.567,24.328-12.802C156.927,144.559,156.415,134.592,155.571,134.05z"/>
		</g>
		<path d="M117.843,106.801c9.772-19.406,21.484-23.983,29.668-23.428c11.1,0.756,18.759,12.234,18.759,12.234
			s-6.751-13.563-19.006-14.322C137.009,80.654,124.86,87.896,117.843,106.801z"/>
		<path d="M117.843,106.801c29.067,24.29,48.427-11.193,48.427-11.193S146.602,127.413,117.843,106.801z"/>
		<path d="M201.074,113.957c-1.522-1.484-4.264-3.258-8.681-3.258v1.193l0,0v2.386l0,0v1.192c2.226,0,4.072,0.654,5.349,1.899
			c1.056,1.027,1.665,2.434,1.665,3.854c0,2.294-1.549,4.74-5.896,4.74v1.192v2.387v1.192c4.073,0,6.541-1.562,7.893-2.871
			c1.785-1.726,2.771-4.089,2.771-6.641C204.175,118.528,203.046,115.881,201.074,113.957z"/>
		<path fill="#B28646" d="M191.454,113.118c14.669-0.958,14.189,20.576-4.426,13.972
			C184.166,124.577,183.648,115.465,191.454,113.118z"/>
		<path fill="#B0B4B7" d="M198.156,120.498c-7.817,1.747-12.718-1.352-12.718-1.352s0.723-3.596,4.219-5.366
			C190.188,113.511,198.558,114.939,198.156,120.498z"/>
		<path fill="#31738B" d="M185.438,123.831c6.707,4.102,13.604,2.424,14.818,1.77c-3.967,5.184-13.229,1.489-13.229,1.489
			S185.283,125.212,185.438,123.831z"/>
		<path fill="#31738B" d="M83.665,148.764c-0.091,4.409,5.279,19.485,5.279,19.485l2.481,2.293l2.186,1.178
			C93.611,171.72,86.166,159.107,83.665,148.764z"/>
		<path fill="#B0B4B7" d="M95.379,100.367c-5.284,7.921-4.352,12.943-3.985,13.382c1.465,2.748-9.261,16.522-10.78,7.886
			c1.764-7.886,7.687-8.92,7.687-8.92s-0.056-6.061,4.188-10.284C93.285,101.641,94.127,100.942,95.379,100.367z"/>
		<path fill="#31738B" d="M75.904,123.118c1.556,4.19,5.214,4.482,5.214,4.482s-0.183,1.101,0.012,2.343
			C80.343,130.487,74.492,129.269,75.904,123.118z"/>
		<path fill="#B0B4B7" d="M149.344,121.642c10.255,1.383,16.682,5.5,20.034,9.968c5.934,7.917,3.327,17.33,3.327,17.33
			s0.978-10.178-5.661-18.035C165.75,129.38,159.988,122.99,149.344,121.642z"/>
		<path fill="#31738B" d="M101.256,101.277c7.205,7.451,7.156,18.045,7.149,18.063c-0.009,0.017,1.819-2.139,1.819-2.139
			S108.21,105.105,101.256,101.277z"/>
		<path fill="#C9A9A9" d="M78.41,139.191L78.41,139.191c3.943,6.895,4.307,25.58,3.943,32.528
			c-2.208-25.041-7.019-30.794-7.019-30.794L78.41,139.191z"/>
		<path d="M82.432,140.649c6.775-0.702,31.91-5.748,31.91-5.748l-30.672,6.971l-0.005,6.892
			C83.665,148.764,81.961,142.546,82.432,140.649z"/>
		<path fill="#0071BC" d="M116.858,36.018l-5.248,0.754l-1.108,0.166l-0.587,0.957l-0.749,1.238
			c-2.096-1.386-5.332-2.156-9.405-2.156c-7.044,0-17.093,2.559-22.26,9.768c-3.15,4.398-2.614,7.635-1.618,9.585
			c0.914,1.776,2.61,3.203,4.902,4.136c0.957,0.387,1.992,0.681,3.088,0.879c-0.232,0.123-0.465,0.253-0.691,0.395l-0.133,0.084
			l-0.122,0.097c-2.497,2.04-2.09,4.159-1.799,4.968c0.933,2.631,4.481,3.831,7.383,3.831c0.866,0,1.659-0.106,2.37-0.314
			c0.557,0.034,1.411,0.064,2.46,0.064c5.121,0,14.532-0.723,20.002-5.584l0.123-0.108l0.105-0.128
			c2.293-2.684,2.889-6.169,1.562-9.089c-0.704-1.547-2.363-3.824-6.248-5.112l5.455-0.69l1.463-0.188l0.486-1.39l3.159-9.014
			l1.303-3.711L116.858,36.018z M96.767,49.334c-0.792,0.01-1.611,0.021-2.411,0.021c-1.771,0-3.996-0.054-5.514-0.493
			c-1.058-0.304-1.204-0.599-1.228-0.739c0.097-0.243,0.746-1.101,2.755-1.99c1.957-0.871,4.324-1.37,6.481-1.37
			c1.821,0,3.364,0.352,4.465,1.024c1.097,0.664,1.735,1.66,1.948,3.039l0.111,0.68c-0.274-0.014-0.555-0.021-0.84-0.025
			c-0.897-0.123-1.981-0.173-3.486-0.173C98.312,49.308,97.558,49.322,96.767,49.334z"/>
		<path fill="#FFFFFF" d="M109.428,43.291l2.525-4.158l5.242-0.759l-3.154,9.015c0,0-3.598,0.459-8.416,1.071
			c-1.629-10.442-20.77-5.332-20.394-0.214c0.37,5.113,12.062,2.875,17.12,3.619c11.422,0.144,12.947,7.083,9.403,11.238
			c-6.451,5.738-19.937,5.002-21.175,4.892c-3.166,1.228-10-1.084-6.145-4.231c5.414-3.338,9.976,1.335,9.976,1.335
			s11.509,0.691,10.938-3.802c-0.34-2.678-10.127-1.56-18.139-2.045c-6.391-0.002-13.123-3.646-7.774-11.115
			C87.127,37.406,108.499,37.443,109.428,43.291z"/>
		<g>
			<path d="M88.5,70.939c-0.282,0-0.572-0.01-0.867-0.037l0.039-0.443c0.285,0.021,0.568,0.029,0.839,0.031
				c0.31,0,0.614-0.013,0.903-0.037l0.045,0.44c-0.303,0.032-0.623,0.046-0.948,0.046C88.508,70.939,88.502,70.939,88.5,70.939z
				 M92.984,70.688c-0.776-0.005-1.406-0.026-1.799-0.041l0.026-0.45c0.381,0.02,1.005,0.045,1.777,0.047L92.984,70.688z
				 M94.785,70.674l-0.015-0.445c0.599-0.02,1.199-0.043,1.779-0.078l0.03,0.446C95.989,70.63,95.389,70.656,94.785,70.674z
				 M85.836,70.618c-0.616-0.146-1.197-0.34-1.732-0.575l0.183-0.413c0.507,0.227,1.063,0.415,1.651,0.556L85.836,70.618z
				 M98.373,70.459l-0.045-0.447c0.596-0.055,1.189-0.125,1.769-0.201l0.06,0.443C99.574,70.331,98.969,70.398,98.373,70.459z
				 M101.932,69.976l-0.077-0.437c0.592-0.11,1.178-0.223,1.746-0.354l0.097,0.437C103.121,69.75,102.531,69.87,101.932,69.976z
				 M105.44,69.174l-0.123-0.43c0.584-0.169,1.152-0.348,1.691-0.539l0.148,0.423C106.616,68.821,106.03,69.004,105.44,69.174z
				 M82.521,69.109c-0.523-0.411-0.945-0.879-1.247-1.387l0.382-0.227c0.279,0.461,0.662,0.884,1.138,1.261L82.521,69.109z
				 M108.837,67.963l-0.177-0.41c0.547-0.246,1.085-0.506,1.585-0.779l0.215,0.387C109.946,67.442,109.401,67.713,108.837,67.963z
				 M112.003,66.213l-0.255-0.364c0.494-0.341,0.964-0.706,1.392-1.087l0.294,0.337C112.993,65.49,112.512,65.863,112.003,66.213z
				 M80.697,65.941c-0.007-0.105-0.012-0.217-0.012-0.332c0-0.516,0.098-1.024,0.287-1.518l0.42,0.16
				c-0.175,0.441-0.263,0.9-0.263,1.357c0,0.105,0.006,0.201,0.013,0.301L80.697,65.941z M114.584,63.654l-0.379-0.24
				c0.321-0.496,0.588-1.017,0.797-1.554l0.416,0.169C115.196,62.587,114.918,63.132,114.584,63.654z M82.305,62.82l-0.333-0.3
				c0.235-0.264,0.512-0.527,0.813-0.771l0.123-0.104l0.154-0.095c0.115-0.07,0.224-0.137,0.336-0.201l0.222,0.39
				c-0.105,0.058-0.214,0.122-0.319,0.187l-0.133,0.085l-0.101,0.084C82.78,62.326,82.528,62.567,82.305,62.82z M82.472,61.26
				c-0.599-0.161-1.178-0.35-1.72-0.57l0.162-0.412c0.527,0.211,1.092,0.395,1.675,0.552L82.472,61.26z M115.92,60.268l-0.438-0.077
				c0.082-0.464,0.125-0.937,0.128-1.397c0-0.113-0.003-0.223-0.008-0.334l0.441-0.021c0.004,0.117,0.007,0.237,0.007,0.354
				C116.05,59.285,116.01,59.78,115.92,60.268z M79.112,59.895c-0.542-0.316-1.043-0.671-1.493-1.049l0.289-0.344
				c0.43,0.363,0.907,0.707,1.43,1.009L79.112,59.895z M76.36,57.508c-0.255-0.341-0.482-0.703-0.677-1.079
				c-0.084-0.165-0.163-0.334-0.237-0.512l0.408-0.173c0.071,0.161,0.144,0.324,0.229,0.483c0.178,0.354,0.392,0.691,0.639,1.015
				L76.36,57.508z M115.33,56.748c-0.104-0.374-0.235-0.744-0.4-1.099c-0.079-0.169-0.163-0.342-0.254-0.511l0.39-0.215
				c0.101,0.179,0.189,0.359,0.27,0.539c0.171,0.377,0.312,0.771,0.424,1.162L115.33,56.748z M74.957,54.142
				c-0.047-0.341-0.068-0.689-0.068-1.041c0-0.258,0.012-0.529,0.035-0.797l0.445,0.046c-0.023,0.251-0.039,0.506-0.039,0.751
				c0,0.331,0.022,0.66,0.07,0.979L74.957,54.142z M113.678,53.719c-0.375-0.43-0.801-0.834-1.265-1.195l0.273-0.354
				c0.488,0.384,0.938,0.808,1.327,1.258L113.678,53.719z M110.945,51.57c-0.497-0.268-1.037-0.514-1.603-0.726l0.157-0.415
				c0.588,0.221,1.146,0.471,1.656,0.747L110.945,51.57z M75.728,50.648l-0.427-0.134c0.172-0.557,0.397-1.124,0.678-1.692
				l0.403,0.203C76.112,49.565,75.891,50.112,75.728,50.648z M110.117,50.521l-0.059-0.45l1.774-0.225l0.056,0.447L110.117,50.521z
				 M113.662,50.064l-0.05-0.443l1.775-0.224l0.053,0.44L113.662,50.064z M103.636,49.746l-0.271-0.014
				c-0.271-0.015-0.549-0.023-0.831-0.03c-0.312-0.036-0.608-0.069-0.936-0.093l0.031-0.443c0.341,0.021,0.646,0.051,0.938,0.096
				c0.261,0.002,0.541,0.01,0.817,0.021l-0.007,0.212l0.216-0.042L103.636,49.746z M94.979,49.576l-0.003-0.444
				c0.587-0.005,1.189-0.015,1.765-0.021l0.026,0.224l-0.019,0.225C96.17,49.565,95.572,49.572,94.979,49.576z M93.183,49.57
				c-0.662-0.012-1.25-0.038-1.799-0.08l0.036-0.445c0.533,0.037,1.116,0.068,1.774,0.077L93.183,49.57z M98.035,49.539
				l-0.004-0.446c0.624-0.011,1.249-0.014,1.8-0.002l-0.012,0.446C99.277,49.532,98.655,49.532,98.035,49.539z M89.588,49.267
				c-0.296-0.058-0.567-0.12-0.811-0.19c-0.417-0.115-0.734-0.248-0.959-0.391l0.236-0.38c0.189,0.118,0.475,0.235,0.846,0.342
				c0.229,0.065,0.49,0.127,0.768,0.181L89.588,49.267z M116.472,48.33l-0.422-0.152l0.597-1.686l0.417,0.146L116.472,48.33z
				 M102.773,47.828c-0.215-0.543-0.521-0.994-0.942-1.381l0.302-0.327c0.466,0.422,0.822,0.943,1.056,1.542L102.773,47.828z
				 M77.258,47.497l-0.373-0.244c0.136-0.207,0.278-0.422,0.432-0.634c0.202-0.279,0.414-0.559,0.631-0.83l0.351,0.281
				c-0.215,0.266-0.421,0.532-0.619,0.806C77.53,47.086,77.39,47.292,77.258,47.497z M88.625,47.376l-0.273-0.354
				c0.431-0.322,0.964-0.642,1.578-0.932l0.191,0.404C89.537,46.772,89.029,47.07,88.625,47.376z M91.751,45.838l-0.141-0.427
				c0.562-0.188,1.154-0.347,1.747-0.48l0.098,0.437C92.872,45.495,92.301,45.652,91.751,45.838z M100.376,45.575
				c-0.498-0.2-1.063-0.352-1.676-0.45l0.071-0.441c0.646,0.103,1.243,0.262,1.773,0.472L100.376,45.575z M95.192,45.082
				l-0.049-0.444c0.583-0.064,1.161-0.099,1.707-0.099h0.106l-0.004,0.447h-0.103C96.318,44.986,95.759,45.019,95.192,45.082z
				 M117.657,44.951l-0.423-0.148l0.591-1.689l0.421,0.148L117.657,44.951z M79.471,44.749l-0.318-0.31
				c0.413-0.424,0.858-0.837,1.324-1.234l0.29,0.342C80.31,43.935,79.875,44.338,79.471,44.749z M82.161,42.46l-0.264-0.362
				c0.481-0.346,0.991-0.681,1.506-0.994l0.232,0.382C83.127,41.791,82.63,42.123,82.161,42.46z M118.841,41.572l-0.418-0.146
				l0.587-1.69l0.422,0.149L118.841,41.572z M85.184,40.623l-0.203-0.401c0.526-0.271,1.075-0.526,1.632-0.77l0.178,0.412
				C86.238,40.1,85.703,40.355,85.184,40.623z M88.435,39.208l-0.151-0.419c0.559-0.203,1.131-0.397,1.711-0.568l0.127,0.428
				C89.551,38.816,88.987,39.01,88.435,39.208z M109.385,39.206l-0.384-0.235l0.929-1.527l0.383,0.229L109.385,39.206z
				 M107.55,38.521c-0.51-0.22-1.066-0.414-1.664-0.578l0.123-0.43c0.614,0.167,1.189,0.37,1.715,0.597L107.55,38.521z
				 M120.021,38.198l-0.422-0.147l0.597-1.688l0.42,0.148L120.021,38.198z M91.833,38.181l-0.104-0.434
				c0.58-0.142,1.171-0.271,1.761-0.381l0.082,0.439C92.993,37.911,92.406,38.041,91.833,38.181z M104.167,37.553
				c-0.56-0.097-1.148-0.174-1.755-0.232l0.044-0.443c0.618,0.058,1.22,0.138,1.788,0.237L104.167,37.553z M95.327,37.519
				l-0.062-0.446c0.594-0.086,1.197-0.151,1.785-0.197l0.043,0.443C96.505,37.368,95.913,37.434,95.327,37.519z M98.867,37.217
				l-0.014-0.449c0.625-0.017,1.22-0.017,1.8-0.003l-0.014,0.452C100.071,37.196,99.482,37.196,98.867,37.217z M111.58,37.008
				l-0.063-0.448l1.77-0.253l0.063,0.441L111.58,37.008z M115.118,36.49l-0.065-0.44l1.772-0.259l0.065,0.445L115.118,36.49z
				 M118.281,36.036l-0.066-0.442l1.771-0.258l0.065,0.441L118.281,36.036z"/>
		</g>
	</g>
</g>
</svg>
