<?xml version="1.0" encoding="utf-8"?>
<!-- Generator: Adobe Illustrator 16.2.1, SVG Export Plug-In . SVG Version: 6.00 Build 0)  -->
<!DOCTYPE svg PUBLIC "-//W3C//DTD SVG 1.1//EN" "http://www.w3.org/Graphics/SVG/1.1/DTD/svg11.dtd">
<svg version="1.1" xmlns="http://www.w3.org/2000/svg" xmlns:xlink="http://www.w3.org/1999/xlink" x="0px" y="0px"
	 width="242.942px" height="269.291px" viewBox="0 0 242.942 269.291" enable-background="new 0 0 242.942 269.291"
	 xml:space="preserve">
<g id="Capa_1">
	<path fill="#FFFFFF" d="M121.549,0.095l0.54,111.275l17.4-109.82l-16.335,109.996L156.987,5.885l-32.805,106.004l49.428-98.893
		l-48.467,99.397l63.811-89.697l-62.937,90.351l76.62-78.288l-75.857,79.079l87.544-64.957l-86.908,65.857l96.313-50.021
		l-95.825,51.014l102.708-33.856L128.239,116.79l106.574-16.854l-106.405,17.957l107.818,0.558l-107.818,0.556l106.405,17.954
		l-106.574-16.852l102.373,34.914l-102.708-33.855l95.825,51.012l-96.313-50.019l86.908,65.854L126.78,123.06l75.857,79.077
		l-76.62-78.287l62.937,90.348l-63.811-89.692l48.467,99.395l-49.428-98.89l32.805,105.999l-33.833-105.658l16.335,109.994
		l-17.4-109.819l-0.54,111.273l-0.539-111.273L103.61,235.345l16.331-109.994L86.113,231.009l32.803-106.004l-49.431,98.895
		l48.466-99.396l-63.809,89.694l62.938-90.348l-76.619,78.287l75.854-79.077l-87.544,64.954l86.911-65.854l-96.311,50.019
		l95.819-51.012L12.482,155.02l102.376-34.913L8.284,136.96l106.406-17.954L6.874,118.45l107.816-0.558L8.284,99.936l106.574,16.854
		L12.482,81.874l102.709,33.856L19.372,64.717l96.311,50.021L28.771,48.881l87.544,64.957L40.461,34.759l76.619,78.288
		L54.143,22.696l63.809,89.697L69.485,12.994l49.431,98.895L86.113,5.885l33.828,105.661L103.61,1.55l17.399,109.82L121.549,0.095z"
		/>
</g>
<g id="Capa_4">
	<g>
		<g>
			<rect x="63.088" y="192.622" fill="#FFFFFF" width="113.767" height="30.518"/>
			<path d="M175.355,194.12v27.52H64.587v-27.52H175.355 M178.354,191.122h-2.999H64.587h-3v2.998v27.52v3h3h110.769h2.999v-3
				v-27.52V191.122L178.354,191.122z"/>
		</g>
		<path d="M83.486,202.3h1.674v11.723h-1.674V202.3z"/>
		<path d="M90.371,208.56l1.338-6.26h1.673l-2.51,11.723H89.09L86.685,202.3h1.674l1.238,6.279l0.38,2.932L90.371,208.56z"/>
		<path d="M95.912,211.093l-0.588,2.93h-1.672l2.453-11.723h1.73l2.515,11.723h-1.613l-0.629-2.93H95.912z M97.838,209.835
			l-0.837-5.021l-0.837,5.021H97.838z"/>
		<path d="M106.544,214.022l-2.996-7.797v7.797h-1.675V202.3h1.099l3.088,7.654V202.3h1.676v11.723H106.544z"/>
		<path d="M115.3,211.093l-0.588,2.93h-1.674l2.456-11.723h1.729l2.515,11.723h-1.612l-0.629-2.93H115.3z M117.227,209.835
			l-0.838-5.021l-0.837,5.021H117.227z"/>
		<path d="M127.751,209.835v0.42c0,0.523-0.057,1.02-0.171,1.492c-0.113,0.471-0.301,0.883-0.562,1.234
			c-0.261,0.354-0.605,0.635-1.034,0.846c-0.426,0.209-0.954,0.312-1.582,0.312c-0.627,0-1.154-0.105-1.582-0.32
			c-0.429-0.213-0.771-0.51-1.034-0.891c-0.262-0.385-0.448-0.838-0.562-1.367c-0.113-0.527-0.171-1.104-0.171-1.732v-3.342
			c0-0.629,0.058-1.205,0.171-1.734c0.114-0.527,0.301-0.98,0.562-1.361c0.263-0.377,0.605-0.674,1.034-0.889
			c0.428-0.215,0.955-0.322,1.582-0.322c0.594,0,1.102,0.096,1.528,0.285c0.424,0.191,0.771,0.455,1.039,0.795
			c0.27,0.342,0.468,0.75,0.593,1.229c0.126,0.477,0.189,1.004,0.189,1.58h-1.676c0-0.418-0.027-0.785-0.085-1.1
			c-0.056-0.312-0.149-0.576-0.28-0.785c-0.131-0.207-0.303-0.365-0.516-0.473c-0.215-0.104-0.479-0.154-0.793-0.154
			c-0.312,0-0.577,0.051-0.791,0.154c-0.215,0.107-0.387,0.266-0.518,0.473c-0.131,0.209-0.225,0.473-0.281,0.785
			c-0.057,0.314-0.084,0.682-0.084,1.1v4.186c0,0.312,0.027,0.621,0.084,0.922s0.15,0.57,0.281,0.807
			c0.131,0.234,0.303,0.424,0.518,0.568c0.214,0.143,0.479,0.215,0.791,0.215c0.314,0,0.578-0.072,0.793-0.215
			c0.213-0.145,0.385-0.334,0.516-0.568c0.131-0.236,0.225-0.506,0.28-0.807c0.058-0.301,0.085-0.609,0.085-0.922v-0.42H127.751z"/>
		<path d="M135.972,210.255c0,0.523-0.054,1.02-0.162,1.492c-0.109,0.471-0.292,0.883-0.551,1.234
			c-0.258,0.354-0.6,0.635-1.03,0.846c-0.429,0.209-0.965,0.312-1.606,0.312c-0.436,0-0.821-0.047-1.157-0.143
			c-0.334-0.096-0.625-0.23-0.873-0.4c-0.247-0.17-0.454-0.373-0.624-0.615c-0.169-0.238-0.307-0.502-0.41-0.791
			c-0.103-0.287-0.175-0.594-0.219-0.922c-0.044-0.326-0.064-0.666-0.064-1.014v-4.186c0-0.352,0.021-0.688,0.064-1.016
			c0.044-0.326,0.116-0.635,0.219-0.92c0.104-0.289,0.241-0.555,0.41-0.793c0.17-0.24,0.377-0.447,0.624-0.615
			c0.248-0.17,0.539-0.303,0.873-0.398c0.336-0.096,0.722-0.146,1.157-0.146c0.642,0,1.178,0.105,1.606,0.316
			c0.431,0.209,0.772,0.49,1.03,0.844c0.259,0.354,0.441,0.764,0.551,1.236c0.108,0.471,0.162,0.969,0.162,1.492V210.255z
			 M130.948,210.673c0,0.316,0.028,0.6,0.086,0.857c0.057,0.258,0.149,0.477,0.281,0.66c0.131,0.186,0.303,0.326,0.517,0.426
			c0.214,0.102,0.478,0.15,0.79,0.15c0.314,0,0.578-0.049,0.793-0.15c0.212-0.1,0.385-0.24,0.516-0.426
			c0.131-0.184,0.225-0.402,0.284-0.66c0.055-0.258,0.083-0.541,0.083-0.857v-5.021c0-0.314-0.028-0.602-0.083-0.859
			c-0.06-0.258-0.153-0.477-0.284-0.658c-0.131-0.186-0.304-0.326-0.516-0.428c-0.215-0.1-0.479-0.148-0.793-0.148
			c-0.312,0-0.576,0.049-0.79,0.148c-0.214,0.102-0.386,0.242-0.517,0.428c-0.132,0.182-0.225,0.4-0.281,0.658
			c-0.058,0.258-0.086,0.545-0.086,0.859V210.673z"/>
		<path d="M140.849,214.14c-0.418,0-0.785-0.047-1.104-0.146c-0.318-0.098-0.595-0.229-0.829-0.393
			c-0.235-0.164-0.433-0.348-0.595-0.557c-0.163-0.207-0.294-0.418-0.397-0.637c-0.244-0.506-0.385-1.084-0.421-1.734l1.669-0.418
			c0.018,0.471,0.088,0.889,0.211,1.256c0.051,0.156,0.118,0.311,0.199,0.463c0.081,0.148,0.181,0.283,0.297,0.402
			c0.12,0.117,0.258,0.209,0.418,0.283c0.158,0.07,0.344,0.107,0.553,0.107c0.841,0,1.261-0.418,1.261-1.256
			c0-0.209-0.027-0.404-0.079-0.584c-0.054-0.184-0.133-0.357-0.236-0.525c-0.103-0.166-0.235-0.332-0.393-0.492
			c-0.156-0.158-0.34-0.32-0.549-0.492l-2.094-1.674c-0.213-0.17-0.399-0.363-0.558-0.578c-0.161-0.217-0.293-0.445-0.397-0.686
			c-0.104-0.238-0.182-0.482-0.231-0.732c-0.051-0.248-0.074-0.496-0.074-0.738c0-0.375,0.062-0.734,0.188-1.076
			c0.126-0.344,0.312-0.643,0.557-0.902c0.248-0.26,0.553-0.467,0.919-0.619s0.788-0.23,1.268-0.23c0.419,0,0.787,0.047,1.106,0.133
			s0.596,0.205,0.832,0.348c0.235,0.143,0.435,0.307,0.595,0.488c0.162,0.186,0.296,0.369,0.4,0.557
			c0.244,0.451,0.385,0.957,0.42,1.523l-1.674,0.422c-0.018-0.395-0.089-0.742-0.212-1.049c-0.053-0.131-0.119-0.258-0.2-0.383
			c-0.079-0.123-0.179-0.236-0.298-0.334c-0.118-0.096-0.257-0.178-0.415-0.238c-0.161-0.061-0.345-0.09-0.555-0.09
			c-0.218,0-0.407,0.031-0.567,0.1s-0.289,0.158-0.393,0.271c-0.104,0.115-0.18,0.248-0.227,0.4
			c-0.048,0.15-0.072,0.312-0.072,0.484c0,0.287,0.068,0.584,0.204,0.885c0.135,0.301,0.349,0.566,0.638,0.793l2.094,1.674
			c0.265,0.215,0.503,0.449,0.709,0.703c0.209,0.254,0.384,0.521,0.529,0.799c0.144,0.281,0.252,0.566,0.328,0.859
			c0.072,0.295,0.11,0.586,0.11,0.873c0,0.363-0.059,0.707-0.177,1.037c-0.116,0.328-0.299,0.619-0.54,0.873
			c-0.243,0.254-0.548,0.455-0.913,0.605C141.785,214.065,141.353,214.14,140.849,214.14z"/>
		<path d="M150.958,202.3v1.373h-2.092v10.35h-1.675v-10.35h-2.095V202.3H150.958z"/>
		<path d="M153.487,211.093l-0.588,2.93h-1.672l2.453-11.723h1.731l2.512,11.723h-1.61l-0.631-2.93H153.487z M155.413,209.835
			l-0.837-5.021l-0.838,5.021H155.413z"/>
	</g>
</g>
<g id="Capa_16">
	<g>
		<polygon fill="#D9DADB" points="168.529,267.635 168.529,260.602 75.133,260.602 75.133,267.635 5.808,267.635 21.1,248.369 
			5.808,229.106 35.925,229.106 35.925,222.072 207.558,222.072 207.558,229.106 237.341,229.106 225.109,248.369 237.341,267.635 
					"/>
		<path d="M205.509,224.123v7.033h28.103l-10.932,17.213l10.932,17.215H170.58v-7.033H73.082v7.033H10.053l13.664-17.215
			l-13.664-17.213h27.923v-7.033H205.509 M209.606,220.025h-4.098H37.974h-4.099v4.098v2.934H10.053H1.564l5.277,6.651
			l11.642,14.663L6.842,263.035l-5.277,6.648h8.488h63.029h4.101v-4.1v-2.932h89.299v2.932v4.1h4.099h63.031h7.459l-3.998-6.299
			l-9.536-15.016l9.536-15.013l3.998-6.3h-7.459h-24.005v-2.934V220.025L209.606,220.025z"/>
	</g>
	<polygon fill="#B0B4B7" points="73.082,265.584 73.082,231.158 10.053,231.158 23.717,248.369 10.053,265.584 	"/>
	<polygon fill="#B0B4B7" points="233.611,231.158 170.58,231.158 170.58,265.584 233.611,265.584 222.68,248.369 	"/>
	<polygon points="33.828,229.609 33.828,261.072 63.423,267.77 74.612,266.928 40.847,229.609 	"/>
	<polygon points="209.619,229.471 209.619,260.934 180.025,267.635 168.836,266.789 202.601,229.471 	"/>
	<polygon fill="#8B8B8B" points="205.509,224.123 205.509,258.551 170.58,265.584 170.443,231.158 	"/>
	<polygon fill="#8B8B8B" points="37.974,224.123 37.974,258.551 72.902,265.584 73.039,231.158 	"/>
	<rect x="37.974" y="224.123" fill="#D9DADB" width="167.535" height="34.428"/>
	<path d="M109.664,48.973"/>
	<path d="M165.501,236.481l1.484,3.04l3.391,0.523l-2.485,2.329l0.542,3.336l-3.023-1.605l-3.057,1.537l0.62-3.322l-2.431-2.385
		l3.402-0.446L165.501,236.481z"/>
	<path d="M74.001,235.997l1.484,3.045l3.39,0.525l-2.484,2.328l0.54,3.336l-3.019-1.605l-3.059,1.537l0.619-3.321l-2.43-2.388
		l3.403-0.443L74.001,235.997z"/>
	<g>
		<path d="M89.806,234.345h0.391l0.242,0.161l0.055,0.176l0.362,0.581l0.271,0.458l0.121,0.31l0.188,0.296l0.109,0.254l0.051,0.162
			l-0.026,0.109l0.026,0.229l0.053,0.133l0.054,0.219l0.203,0.254l0.323,0.271l0.107,0.199l0.066,0.273l0.084,0.281l0.135,0.214
			l0.133,0.416l0.365,0.298l0.081,0.283l-0.055,0.243l-0.229,0.245l-0.108,0.2l-0.66,0.392l-0.446,0.266l-0.32,0.14l-0.135,0.103
			l-0.176,0.176l-0.136,0.055l-0.336,0.083l-0.215,0.162l-0.163,0.052l-0.471,0.282h-0.109l-0.2,0.164l-0.107,0.024l-0.378,0.366
			l-0.147,0.243l-0.028,0.107v0.122l-0.026,0.158l-0.218,0.217l-0.388-0.026l0.024,0.31l-0.024,0.217l-0.108,0.161l-0.081,0.258
			l-0.135,0.16l-0.066,0.16l0.039,0.258l0.108,0.188l0.135,0.023l0.133,0.055h0.164h0.336l0.255,0.121l0.379,0.031l0.311,0.023
			l0.161,0.03h0.105l0.366,0.052l0.377,0.027l0.363-0.055l0.161-0.109l0.055-0.121l0.066-0.133l-0.025-0.109v-0.106l-0.096-0.147
			l-0.106-0.188l-0.109-0.349l0.082-0.339l0.079-0.135l0.109-0.174l0.284-0.138l0.158-0.023h0.176l0.27,0.106l0.163,0.055l0.2,0.227
			l0.109,0.245l0.055,0.713l-0.055,0.121l-0.055,0.32l-0.055,0.34l-0.078,0.216l-0.15,0.108l-0.105,0.176l-0.029,0.157l-0.24,0.272
			l-0.205,0.2l-1.186,0.959l-0.108,0.175l-0.051,0.352l0.081,0.145l0.024,0.242l-0.055,0.219l-0.158,0.228l-0.15,0.027l-0.429,0.082
			l-0.205-0.055l-0.35-0.055l-0.175-0.053l-0.242-0.108l-0.164-0.094l-0.176-0.027l-0.157-0.027l-0.218-0.16l-0.255-0.055
			l-0.458-0.285l-0.148-0.052l-0.242-0.136l-0.285-0.161l-0.241-0.109l-0.39-0.254l-0.378-0.133l-0.339-0.164l-0.158-0.027h-0.42
			l-0.161-0.093l-0.203-0.188l-0.078-0.191l0.023-0.079l0.055-0.2l0.121-0.193l0.324-0.309l0.164-0.24l0.024-0.241l0.066-0.207
			l0.055-0.375v-0.173l-0.024-0.297v-0.176l-0.097-0.08l-0.024-0.245l0.146-0.08l-0.079-0.174l0.055-0.272l-0.03-0.158l-0.119-0.312
			l0.119-0.133l0.03-0.109v-0.108l-0.03-0.441l0.03-0.109v-0.888l-0.03-0.188v-0.258l-0.024-0.375l0.024-0.261l-0.024-0.295
			l0.024-0.201l0.03-0.134l-0.055-0.106l-0.066-0.501l-0.028-0.309l0.028-0.218l-0.109-0.32l-0.082-0.122l-0.297-0.217l-0.091-0.107
			l-0.03-0.133l0.03-0.26l0.173-0.243l0.378-0.146l0.58-0.083l0.308-0.08l0.109-0.053l0.162-0.026l1.159-0.337l0.176-0.082h0.134
			l0.078-0.081l0.109-0.133l0.203,0.054l0.267-0.137l0.188-0.147l0.421-0.242l0.106-0.053l0.524-0.501l0.084-0.189l0.025-0.199
			l0.175-0.191L89.806,234.345z M87.985,237.051l-0.08,0.218v0.216l0.054,0.147l0.053,0.216l0.055,0.363l0.027,0.133l0.055,0.109
			l0.024,0.579l0.03,0.109l0.054,0.176l0.049,0.27l-0.078,0.188l0.078,0.254v0.163l-0.049,0.163l-0.084,0.279l0.03,0.108
			l0.024,0.109l-0.024,0.229l0.024,0.135v0.191l0.029,0.134l-0.054,0.254l0.079,0.137l0.363-0.474l0.392-0.136l0.054-0.133
			l0.108-0.055l0.107-0.079l0.16-0.054l0.229-0.392l0.055-0.109l-0.055-0.146l-0.133-0.242l-0.055-0.137l-0.042-0.176l-0.188-0.405
			l-0.392-0.997l-0.107-0.078l-0.268-0.526l-0.055-0.188l-0.34-0.58L87.985,237.051z"/>
		<path d="M99.168,229.455l0.109,0.067l0.321-0.041l0.205,0.041l0.242,0.107l0.229,0.213l0.026,0.218l0.026,0.149v0.134
			l-0.107,0.241l-0.391,0.23l-0.135,0.024l-0.203,0.054l-0.296,0.14l-0.134,0.134l-0.12,0.145l-0.219,0.501l-0.055,0.109v0.107
			l-0.024,0.188l-0.028,0.471v0.309l-0.08,1.817l-0.067,0.798l-0.027,0.133l-0.054,0.202l0.123,0.216l-0.042,0.218l0.147,0.121
			v0.188l0.028,0.216l-0.054,0.2v0.296l-0.08,0.176l-0.096,0.325v0.163l0.054,0.146v0.109l-0.054,0.188l0.148,0.446v0.363
			l0.027,0.27v0.63l-0.08,0.085l-0.069,0.145v0.271l0.027,0.309l-0.027,0.218l-0.106,0.266l0.201,0.031l0.055,0.176v0.188v0.36
			l0.054,0.19l-0.028,0.137v0.551l0.028,0.258l-0.054,0.213l-0.08,0.242l0.053,0.204l0.081,0.296v0.23l0.055,0.16l0.024,0.137
			l0.03,0.254l0.079,0.216l0.055,0.188l0.175,0.098l0.604,0.16l0.272,0.243l0.024,0.108v0.278l-0.188,0.297l-0.39,0.339
			l-0.189,0.134l-0.079,0.203l-0.311,0.055l-0.138,0.109l-0.334,0.387l-0.081,0.191l0.161,0.364l0.148,0.133l0.053,0.27
			l-0.147,0.364l-0.215,0.218l-0.188,0.024l-0.256-0.055l-0.108-0.078h-0.136l-0.081-0.055l-0.256-0.134l-0.19-0.23l-0.213-0.137
			l-0.283-0.16l-0.109-0.137l-0.107-0.145l-0.08-0.028l-0.311-0.215l-0.39-0.162l-0.297-0.15l-0.228-0.078l-0.219-0.109
			l-0.297-0.163l-0.091-0.079l-0.055-0.149l-0.055-0.268l0.134-0.283l0.151-0.134l0.104-0.054l0.272-0.137l0.201-0.39v-0.579
			l0.081-0.164l-0.081-0.133l-0.026-0.176l-0.027-0.134l0.08-0.137l0.055-0.442v-0.19l-0.055-0.336l0.135-0.082v-0.188l0.028-0.201
			l0.024-0.296l0.055-0.163l-0.055-0.149l-0.106-0.055v-0.32l-0.134-0.418l0.026-0.337l0.081-0.242l0.054-0.446l-0.027-0.163
			l0.054-0.605l0.028-0.309v-0.134l-0.082-0.246l0.054-0.145l-0.054-0.109l-0.054-0.712l0.027-0.473v-0.325v-0.199l0.026-0.219
			l0.106-0.254l0.164-0.163l-0.164-0.217l-0.133-0.387l-0.027-0.218l0.027-0.121l-0.027-0.107l0.054-0.135l-0.026-0.392
			l-0.027-0.458l-0.027-0.309l-0.053-1.766l-0.081-0.392l-0.039-0.268l-0.029-0.283l-0.377-0.434l-0.176-0.122l-0.161-0.242
			l-0.055-0.282l0.137-0.242l0.23-0.159l0.431-0.028l0.444,0.055l0.226,0.055l0.299,0.078h0.106l0.5,0.312l0.255,0.188l0.163,0.163
			l0.297,0.307l0.147,0.136l0.159-0.055l0.055-0.133l-0.106-0.176l0.27-0.688l0.147-0.164l0.352-0.496l0.389-0.161l0.242-0.121
			L99.168,229.455z"/>
		<path d="M108.358,230.948h0.39l0.392,0.242l0.215,0.098l0.106,0.16l0.081,0.108l0.122,0.106l0.163,0.204l0.685,0.162h0.137
			l0.497-0.107l0.257-0.055l0.105,0.055l0.527-0.031l0.106-0.023l0.164-0.029l0.309-0.092l0.349-0.029l0.206-0.025l0.321-0.109
			l0.136,0.027h0.121l0.739-0.08l0.473-0.026l0.107-0.055l0.31-0.054h0.107l0.297,0.108h0.137l0.146-0.027l0.432,0.027l0.15,0.026
			l0.27,0.027l0.159,0.025l0.229,0.081l0.297,0.083l-0.054-0.083l0.229,0.083l0.216,0.121l0.526,0.242l0.133,0.078l0.136,0.03
			l0.122,0.079l0.188,0.054l0.339,0.176l0.052,0.188l0.215,0.107l0.109,0.229l0.133,0.109l0.069,0.133l0.106,0.028l0.106,0.105
			l0.164,0.366l0.23,0.188l0.053,0.199l0.08,0.086l0.134,0.188l0.054,0.133l0.203,0.149l0.026,0.163l0.053,0.388l0.164,0.405
			l0.107,0.446l0.161,0.363l0.069,0.161l0.053,0.134l0.081,0.135l0.026,0.119l-0.257,0.46l-0.079,0.283l-0.108,0.271v0.255
			l-0.08,0.391l-0.054,0.243l-0.084,0.108l-0.053,0.333l-0.121,0.163l-0.135,0.58l-0.053,0.241l-0.136,0.098h-0.16l-0.202,0.211
			l-0.271,0.61l-0.31,0.281l-0.137,0.188l-0.108,0.188l-0.2,0.136l-0.323,0.363l-0.189,0.028l-0.199,0.163l-0.109,0.091
			l-0.108,0.108l-0.23,0.162l-0.16,0.08l-0.216-0.025l-0.148,0.109l-0.162,0.107l-0.135,0.037l-0.242,0.139l-0.255-0.029
			l-0.27,0.133l-0.363,0.055l-0.164-0.134h-0.282l-0.161,0.055l-0.243,0.024l-0.146-0.133l-0.243-0.055l-0.391-0.176l-0.526-0.458
			l-0.055-0.229l-0.024-0.497l0.024-0.134l0.164-0.419l0.121-0.104l0.078-0.086l0.137-0.105l0.214-0.081l0.525,0.029l0.339,0.321
			l0.055,0.176v0.109l0.055,0.294l0.254-0.055l0.216-0.216l0.297-0.387l0.445-1.052l0.024-0.163l-0.053-0.309l0.028-0.271
			l0.079-0.218l0.121-0.333v-0.163l0.028-0.134l-0.095-0.336l-0.08-0.34l0.228-0.294l-0.081-0.285l0.081-0.267l-0.053-0.108
			l-0.095-0.259l-0.055-0.35l0.121-0.389l-0.066-0.163l-0.271-0.471l0.027-0.284l-0.081-0.162l-0.134-0.55l-0.34-0.606l-0.133-0.217
			l-0.161-0.121l-0.835-0.459l-0.323,0.025h-0.257l-0.108,0.029l-0.363,0.242l-0.134,0.23l-0.134,0.376v0.258l-0.027,0.212
			l-0.176,0.163v0.228l-0.027,0.137l0.027,0.191l-0.054,0.362l0.026,0.24l-0.026,0.23v0.269l0.054,0.229l-0.027,0.27v0.135
			l-0.026,0.864v0.27v0.146l-0.055,0.188l0.081,0.246l0.027,0.2l-0.134,0.605l0.161,0.435v0.146l-0.081,0.188l0.121,0.419
			l-0.067,0.323v0.148l0.067,0.16v0.106l-0.095,0.312v0.161l0.095,0.242l-0.04,0.446l0.121,0.188l-0.027,0.203v0.214l0.027,0.229
			l0.105,0.539l0.029,0.229l0.025,0.191l0.055,0.364l0.136,0.32l0.081,0.312l0.146,0.157v0.109l-0.051,0.176l0.159,0.66l0.137,0.349
			h0.255l0.08,0.124l0.055,0.135v0.322l0.082,0.282l0.388,0.393l0.138,0.054l0.159-0.028l0.312,0.109l0.108-0.055l0.322-0.23
			l0.094-0.242l0.082-0.391l0.241-0.321l0.445-0.203h0.214l0.229,0.027h0.108l0.295,0.2l-0.025,0.218h0.122l0.134,0.027l0.108,0.281
			l0.025,0.191l-0.053,0.333l-0.136,0.352l-0.146,0.259l-0.242,0.297l-0.108,0.105l-0.312,0.148l-0.134,0.106l-0.242,0.164
			l-0.392,0.054l-0.188,0.079l-0.34,0.078l-0.188,0.072h-0.106l-0.094-0.029l-0.16,0.055l-0.473,0.024l-0.526-0.05h-0.162
			l-0.188-0.029h-0.284l-0.107,0.029l-0.188-0.096l-0.781-0.055l-0.108-0.079l-0.188-0.03l-0.688-0.133l-0.31-0.31l-0.242,0.23
			h-0.108l-0.203-0.055h-0.214l-0.176-0.027l-0.107,0.027l-0.108-0.055l-0.188,0.027l-0.082-0.027l-0.497-0.027l-0.555,0.027
			l-0.229,0.027l-0.549,0.216l-0.188,0.133l-0.218,0.23l-0.079,0.133l-0.029,0.109l-0.174,0.027l-0.108,0.081l-0.497,0.2
			l-0.296,0.028l-0.176-0.028l-0.162-0.067l-0.241-0.133l-0.23-0.218l-0.025-0.133l-0.029-0.147l-0.055-0.216l0.03-0.216l0.134-0.34
			l0.229-0.333l0.32-0.379l0.123-0.026l0.16-0.138l0.351-0.278l0.176-0.054h0.107l0.271-0.191l0.334-0.202l0.365-0.35l0.216-0.2
			l0.053-0.193l0.108-0.188l0.055-0.199l0.024-0.403l0.071-0.23l0.025-0.164l0.055-0.133l0.055-0.282v-0.272l-0.109-0.226v-0.299
			l0.188-0.364l-0.024-0.296l0.052-0.416l-0.137-0.135l0.085-0.282l0.16-0.352l0.134-0.121l-0.242-0.579l0.055-0.133l-0.027-0.219
			l-0.027-0.47l0.027-0.109l-0.027-0.2v-0.163l0.27-0.712l-0.079-0.229l-0.218-0.406l0.082-0.174l0.027-0.272l-0.109-0.388
			l0.082-0.633l-0.055-0.134l-0.027-0.163v-0.259l-0.055-0.268l-0.108-0.082l-0.024-0.229l0.055-0.105l0.078-0.163l-0.108-0.392
			l0.085-0.188l-0.109-0.176l-0.025-0.078v-0.139l0.104-0.213l-0.104-0.337v-0.109l-0.071-0.133l-0.05-0.152l-0.029-0.188
			l-0.108-0.106l-0.025-0.215l-0.108-0.175l-0.282-0.216l-0.271-0.134l-0.188-0.096l-0.254-0.188l-0.217-0.217l-0.026-0.135
			l-0.082-0.174l-0.092-0.327l0.024-0.121v-0.106l0.473-0.527l0.174-0.133L108.358,230.948z"/>
		<path d="M127.598,234.372h0.162l0.364,0.082l0.416,0.188l0.499,0.31l0.351,0.312l0.201,0.079l0.163,0.216l0.188,0.026l0.078,0.161
			l0.205,0.15l0.497,0.158l0.137,0.109l0.188,0.055l0.106-0.025h0.176l0.269,0.052l0.258,0.053h0.213l0.163,0.124l0.109,0.188v0.213
			l-0.082,0.259l-0.215,0.242l-0.135,0.418l-0.028,0.133l-0.025,0.191v0.889l-0.068,0.441l0.039,0.191l-0.039,0.243l0.068,0.441
			l-0.029,0.636l0.029,0.174v0.688l-0.096,0.217l0.027,0.553v0.254l0.039,0.137l0.134,0.134l0.029,0.109v0.362l-0.029,0.321
			l0.054,0.176l0.055,0.137v0.334l0.029,0.191l0.025,0.525l0.082,0.134l0.159,0.055h0.122l0.136,0.023h0.135h0.187l0.285,0.23v0.38
			l-0.026,0.108l-0.107,0.2l-0.151,0.242l-0.213,0.284l-0.108-0.027l-0.082,0.135l-0.106,0.135l-0.123,0.133l-0.158,0.122
			l-0.029,0.106l-0.109,0.085l-0.188,0.133l-0.121,0.162l-0.025,0.229l0.025,0.108l0.082,0.106l0.148,0.312v-0.108l-0.08,0.512
			l-0.203,0.228l-0.163,0.054l-0.363,0.028l-0.376-0.109l-0.364-0.106l-0.19-0.094l-0.333-0.16v-0.109l-0.664-0.446l-0.133-0.188
			l-0.176-0.135l-0.27-0.258l-0.281-0.188l-0.138-0.188l-0.16-0.121l-0.244-0.08l-0.2,0.025l-0.324,0.202l-0.067,0.161l-0.055,0.581
			l0.312,0.324l0.079,0.31l-0.107,0.309l-0.444,0.161l-0.324,0.055l-0.282-0.027l-0.497-0.188l-0.379-0.148l-0.068-0.105
			l-0.188-0.219l-0.162-0.176l-0.284-0.188l-0.133-0.134l-0.162-0.054l-0.08-0.138l-0.364-0.226l-0.136-0.053h-0.442l-0.109-0.054
			h-0.161l-0.203-0.164l-0.051-0.095l-0.084-0.188l0.084-0.323l0.16-0.203l0.121-0.079l0.214-0.218l0.162-0.254l0.083-0.216v-0.109
			v-0.176l0.093-0.267v-0.245l-0.066-0.146l-0.026-0.352l0.051-0.148l0.068-0.136v-0.216l-0.068-0.134l-0.024-0.339l0.024-0.079
			l0.042-0.133l0.026-0.204l-0.026-0.847l-0.23-0.364v-0.246l0.138-0.176l0.202-0.156l0.105-0.055l0.392-0.055l0.433-0.055
			l0.121,0.026l0.375-0.054l0.107-0.052l0.15-0.029l0.188-0.025h0.336h0.137l0.105-0.029l0.442-0.2l0.139-0.108h0.335l0.27-0.188
			l0.285-0.203l0.214-0.268l0.082-0.42l0.078-0.213v-0.139v-0.119l0.176-0.351l-0.038-0.364l-0.055-0.242l-0.136-0.254l-0.443-0.473
			l-0.188-0.083l-0.164-0.078h-0.257l-0.376-0.218l-0.282-0.079h-0.216l-0.474,0.079l-0.471,0.379l-0.105,0.202v0.271v0.284
			l0.079,0.188l0.135,0.051l0.337-0.105h0.109l0.108,0.055l0.255,0.023l0.349,0.284l0.029,0.107l0.025,0.109l0.027,0.266
			l-0.027,0.448l-0.134,0.254l-0.243,0.243l-0.39,0.19l-0.298,0.055H125.2l-0.242-0.055l-0.256-0.108l-0.271-0.082l-0.364-0.364
			l-0.16-0.188v-0.163l-0.028-0.109l-0.123-0.054l-0.024-0.308l-0.08-0.309l0.025-0.405l0.028-0.133v-0.204l0.119-0.322l0.028-0.229
			l0.458-0.661l0.066-0.162l0.217-0.174l0.525-0.297l0.188-0.108l0.472-0.134l0.269-0.176l0.473-0.161l0.256-0.284l0.023-0.078
			l0.055-0.191l0.055-0.243l0.339-0.254L127.598,234.372z M128.568,241.458l-0.312,0.204l-0.215,0.133l-0.244,0.055h-0.174
			l-0.243,0.106l-0.175,0.164l-0.133-0.028h-0.164l-0.16,0.149l0.027,0.188l0.023,0.188l0.055,0.258l0.084,0.793l0.025,0.138
			l-0.079,0.2l0.024,0.325l-0.055,0.807v0.294l-0.254,0.261l0.23,0.024l0.16,0.027h0.336l0.161,0.027l0.164-0.027l0.526,0.027
			l0.282,0.055l0.321,0.078l-0.08-0.188l-0.081-0.109l-0.134-2.127l-0.081-0.446l0.108-0.268L128.568,241.458z"/>
		<path d="M139.994,234.532h0.364l0.431,0.176l0.094,0.137l0.188,0.055l0.217,0.079l0.201,0.164l0.16,0.023l0.136,0.055l0.256,0.202
			l0.215,0.189l0.417,0.254l0.446,0.135l0.794,0.083l0.161,0.055l0.029,0.105l0.31,0.106l0.023,0.204l-0.023,0.322l-0.255,0.367
			l-0.164,0.442l-0.081,0.349l-0.026,0.255v0.218v0.337l-0.026,0.163l-0.054,0.442l0.027,0.163l0.026,0.445l-0.026,0.188
			l-0.202,0.525v0.107l-0.028,0.176l0.055,0.134v0.109v0.108l-0.081,0.63l0.081,0.083v0.418l0.066,0.657l0.055,0.26v0.212v0.338
			v0.108l-0.027,0.27v0.258v0.212l0.082,0.258l0.026,0.108l0.161,0.161l0.053,0.105l0.138,0.152l0.834,0.266l0.109,0.284
			l-0.03,0.295l-0.268,0.218l-0.282,0.176l-0.217,0.133l-0.176,0.137l-0.27,0.08l-0.336,0.393l-0.19,0.388l0.029,0.162l0.078,0.218
			v0.145l0.055,0.164l0.055,0.27l-0.055,0.176l-0.162,0.188l-0.268,0.108h-0.31l-0.163-0.083l-0.228-0.135l-0.188-0.079
			l-0.136-0.055l-0.176-0.203l-0.134-0.078l-0.136-0.188l-0.31-0.085l-0.026-0.254l-0.217-0.271l-0.135-0.109l-0.106-0.09
			l-0.176-0.109l-0.242-0.079l-0.164-0.084l-0.254-0.188l-0.079-0.283l0.025-0.215l0.338-0.312l0.134-0.078l0.164-0.271v-0.121
			l0.023-0.351l0.027-0.23l-0.051-0.105v-0.106l-0.03-0.218v-0.282l-0.079-0.605l0.025-0.337l-0.054-0.109l0.028-0.497l-0.028-0.082
			l-0.053-0.159v-0.138l0.053-0.199l0.028-0.108l0.025-0.164l0.029-0.162l0.133-0.092l-0.162-0.028v-0.406l0.029-0.176l0.024-0.375
			l0.03-0.133l-0.03-0.284l0.03-0.134l-0.055-0.204l0.055-0.241l0.023-0.338l-0.023-0.162l0.051-0.213l0.176-0.809l0.055-0.242
			l0.162-0.109l-0.283-0.079l-0.215-0.121l-0.297-0.163l-0.176-0.135l-0.188-0.136h-0.107l-0.229-0.121l-0.352-0.242l-0.284-0.079
			l-0.416-0.054l-0.163,0.078l-0.079,0.188l0.024,0.152l0.137,0.24l0.121,0.163l0.055,0.199l0.026,0.164l0.053,0.351l0.027,0.7
			v0.079l0.027,0.108l-0.027,0.162l0.053,0.201v0.38l-0.025,0.254l-0.107,0.109l-0.176,0.078l0.176,0.109l0.027,0.149l0.105,0.578
			l0.028,0.27l0.026,0.188l0.028,0.204l-0.055,0.188l0.026,0.163l0.028,0.146v0.163l-0.028,0.107l-0.026,0.339v0.188l0.026,0.444
			l-0.135,0.607l-0.079,0.32l-0.149,0.176l-0.054,0.191v0.212l0.148,0.085l0.188,0.036l0.323,0.085l0.203,0.024l0.161,0.055
			l0.257,0.188v0.366l-0.098,0.242l-0.105,0.134l-0.295,0.338l-0.474,0.335l-0.08,0.106l-0.176,0.055l-0.134,0.394l-0.162,0.188
			l0.133,0.242l0.029,0.082l0.107,0.2l-0.027,0.352l-0.164,0.175l-0.523,0.162l-0.188-0.055l-0.285-0.107l-0.157-0.081l-0.19-0.258
			l-0.255-0.16l-0.352-0.228l-0.176-0.271l-0.108-0.08l-0.188-0.082l-0.255-0.199l-0.216-0.109h-0.134l-0.26-0.079l-0.106-0.054
			l-0.136-0.085l-0.133-0.133l-0.055-0.149l0.027-0.321l0.081-0.176l0.243-0.218l0.188-0.106l0.229-0.578l0.026-0.391l-0.026-0.188
			l0.026-0.336l0.083-0.137v-0.16l-0.029-0.134l0.054-0.23l-0.024-0.19v-0.176l0.024-0.105l-0.079-0.245v-0.333l0.133-0.352v-0.392
			c0-0.088-0.008-0.153-0.026-0.188l0.026-0.121v-0.216l-0.078-0.136l0.052-0.282l0.026-0.714v-0.446l-0.026-0.134v-0.241
			l-0.027-0.176l-0.024-0.107l-0.055-0.163v-0.109l0.025-0.108l0.054-0.119l-0.024-0.188l0.024-0.135l-0.134-0.524l-0.741-0.03
			l-0.122-0.024l-0.352-0.255l-0.078-0.324l0.162-0.418l0.16-0.188l0.107-0.03l0.176-0.199l0.161-0.188l0.188-0.216l0.26-0.255
			l-0.029-0.108l0.055-0.083l0.054-0.105v-0.121l-0.027-0.108l-0.026-0.108l-0.055-0.295l0.029-0.259l0.321-0.362l0.176-0.055
			l0.081,0.055l0.498,0.04l0.109,0.026l0.214,0.055l0.201,0.028l0.484,0.188h0.151l0.321,0.217l0.161,0.119l0.204,0.215l0.159,0.191
			l0.137,0.175l0.202,0.188l0.133,0.024l0.367-0.055l0.4-0.361l0.151-0.27l0.024-0.108l-0.122-0.281l0.098-0.325L139.994,234.532z"
			/>
		<path d="M150.611,234.372h0.158l0.366,0.082l0.418,0.188l0.497,0.31l0.351,0.312l0.203,0.079l0.16,0.216l0.189,0.026l0.081,0.161
			l0.202,0.15l0.498,0.158l0.133,0.109l0.19,0.055l0.107-0.025h0.176l0.27,0.052l0.254,0.053h0.219l0.16,0.124l0.109,0.188v0.213
			l-0.082,0.259l-0.215,0.242l-0.137,0.418l-0.023,0.133l-0.031,0.191v0.889l-0.066,0.441l0.043,0.191l-0.043,0.243l0.066,0.441
			l-0.023,0.636l0.023,0.174v0.688l-0.091,0.217l0.024,0.553v0.254l0.043,0.137l0.133,0.134l0.027,0.109v0.362l-0.027,0.321
			l0.055,0.176l0.055,0.137v0.334l0.026,0.191l0.028,0.525l0.078,0.134l0.163,0.055h0.119l0.138,0.023h0.135h0.188l0.281,0.23v0.38
			l-0.027,0.108l-0.106,0.2l-0.147,0.242l-0.219,0.284l-0.104-0.027l-0.083,0.135l-0.107,0.135l-0.12,0.133l-0.163,0.122
			l-0.024,0.106l-0.109,0.085l-0.188,0.133l-0.121,0.162l-0.031,0.229l0.031,0.108l0.078,0.106l0.151,0.312v-0.108l-0.085,0.512
			l-0.199,0.228l-0.163,0.054l-0.361,0.028l-0.379-0.109l-0.364-0.106l-0.188-0.094l-0.339-0.16v-0.109l-0.658-0.446l-0.136-0.188
			l-0.174-0.135l-0.271-0.258l-0.282-0.188l-0.135-0.188l-0.162-0.121l-0.242-0.08l-0.2,0.025l-0.326,0.202l-0.066,0.161
			l-0.053,0.581l0.31,0.324l0.081,0.31l-0.108,0.309l-0.446,0.161l-0.32,0.055l-0.284-0.027l-0.498-0.188l-0.378-0.148l-0.066-0.105
			l-0.188-0.219l-0.163-0.176l-0.282-0.188l-0.133-0.134l-0.164-0.054l-0.079-0.138l-0.365-0.226l-0.135-0.053h-0.442l-0.109-0.054
			h-0.162l-0.202-0.164l-0.053-0.095l-0.083-0.188l0.083-0.323l0.159-0.203l0.122-0.079l0.215-0.218l0.164-0.254l0.078-0.216v-0.109
			v-0.176l0.098-0.267v-0.245l-0.069-0.146l-0.028-0.352l0.055-0.148l0.066-0.136v-0.216l-0.066-0.134l-0.026-0.339l0.026-0.079
			l0.043-0.133l0.023-0.204l-0.023-0.847l-0.23-0.364v-0.246l0.133-0.176l0.204-0.156l0.107-0.055l0.389-0.055l0.433-0.055
			l0.122,0.026l0.376-0.054l0.109-0.052l0.146-0.029l0.19-0.025h0.336h0.137l0.107-0.029l0.443-0.2l0.134-0.108h0.337l0.271-0.188
			l0.283-0.203l0.214-0.268l0.082-0.42l0.08-0.213v-0.139v-0.119l0.175-0.351l-0.04-0.364l-0.054-0.242l-0.134-0.254l-0.445-0.473
			l-0.19-0.083l-0.158-0.078h-0.258l-0.376-0.218l-0.283-0.079h-0.217l-0.472,0.079l-0.473,0.379l-0.106,0.202v0.271v0.284
			l0.082,0.188l0.134,0.051l0.338-0.105h0.107l0.106,0.055l0.257,0.023l0.351,0.284l0.025,0.107l0.029,0.109l0.025,0.266
			l-0.025,0.448l-0.139,0.254l-0.24,0.243l-0.39,0.19l-0.296,0.055h-0.338l-0.242-0.055l-0.258-0.108l-0.267-0.082l-0.365-0.364
			l-0.161-0.188v-0.163l-0.028-0.109l-0.121-0.054l-0.026-0.308l-0.083-0.309l0.03-0.405l0.024-0.133v-0.204l0.121-0.322
			l0.028-0.229l0.46-0.661l0.066-0.162l0.213-0.174l0.527-0.297l0.19-0.108l0.47-0.134l0.269-0.176l0.471-0.161l0.258-0.284
			l0.026-0.078l0.055-0.191l0.055-0.243l0.336-0.254L150.611,234.372z M151.578,241.458l-0.309,0.204l-0.216,0.133l-0.242,0.055
			h-0.176l-0.242,0.106l-0.175,0.164l-0.134-0.028h-0.161l-0.164,0.149l0.028,0.188l0.026,0.188l0.055,0.258l0.079,0.793l0.03,0.138
			l-0.082,0.2l0.027,0.325l-0.055,0.807v0.294l-0.255,0.261l0.229,0.024l0.159,0.027h0.338l0.163,0.027l0.163-0.027l0.524,0.027
			l0.282,0.055l0.324,0.078l-0.083-0.188l-0.081-0.109l-0.133-2.127l-0.08-0.446l0.104-0.268L151.578,241.458z"/>
	</g>
</g>
<g id="Capa_15">
	<g>
		<path fill="#1A1A1A" d="M208.321,67.083c-0.281-2.4-0.701-4.539-0.723-4.629c-0.014-0.081-0.034-0.159-0.059-0.238l-2.178-7.497
			c-0.066-0.232-0.163-0.461-0.288-0.669l-2.573-4.291c-0.064-0.109-0.138-0.22-0.217-0.315l-27.092-33.907
			c-0.529-2.585-1.554-4.623-3.057-6.068c-0.035-0.04-0.076-0.075-0.117-0.111c-0.379-0.327-0.852-0.599-1.441-0.82
			c-5.139-1.953-28.046-2.672-44.324-1.986c-0.144,0.005-0.29,0.026-0.432,0.054c-4.937,0.982-8.235,2.771-9.858,5.342
			c-1.857,0.059-4.077,0.369-5.535,0.602c-1.53,0.244-4.95,0.854-7.672,1.795c-0.123-0.058-0.251-0.113-0.386-0.159l0,0
			c-2.176-0.832-6.438-1.337-20.18,2.097c-8.097,2.024-16.66,4.715-21.773,6.325c-1.79,0.558-3.481,1.091-4.012,1.228
			c-0.343,0.047-0.677,0.147-0.988,0.314c-0.67,0.356-1.167,0.969-1.381,1.699l-1.5,5.064c-0.53,1.793,0.323,3.562,2.024,4.213
			c0.028,0.009,0.052,0.016,0.08,0.026c-2.695,7.856-0.893,13.594-0.798,13.881c0.082,0.251,0.199,0.493,0.345,0.711
			c0.212,0.312,1.366,1.904,3.33,2.654c0.633,0.235,1.281,0.365,1.938,0.379c6.182,0.147,23.691-0.809,30.349-3.998
			c0.139-0.067,0.273-0.146,0.4-0.237c4.678-3.27,6.691-10.37,8.154-15.554c0.355-1.251,0.783-2.755,1.087-3.512
			c5.768-3.95,9.843-3.778,11.861-3.263c-0.034,1.536-0.029,3.789,0.159,6.216c0.498,6.398,1.951,10.588,4.447,12.816
			c0.621,0.561,1.462,1.032,2.562,1.452c5.021,1.905,16.134,2.815,24.863,3.025c4.866,0.116,9.475,0.03,12.968-0.231
			c5.665-0.436,7.419-1.21,8.412-2.323c0.913-1.021,2.153-3.184,3.773-10.756l28.328,23.137l2.159,16.464
			c0.111,0.822,0.57,1.557,1.271,2.012c0.167,0.107,0.346,0.2,0.531,0.272c0.576,0.218,1.217,0.243,1.819,0.064
			c0.345-0.104,3.411-1.071,5.094-3.658C208.826,72.97,208.665,70.017,208.321,67.083z"/>
		<g>
			<g>
				<g>
					<g>
						<g>
							<path fill-rule="evenodd" clip-rule="evenodd" d="M56.334,132.511c1.712,4.849,5.058,8.085,7.479,7.226
								c2.408-0.858,2.977-5.47,1.262-10.32c-1.722-4.849-5.067-8.085-7.479-7.23C55.181,123.043,54.612,127.667,56.334,132.511z"/>
							<path d="M46.401,135.1c-2.539-9.29,6.5-12.277,6.5-12.277l4.695-0.637l7.227,16.623
								C64.823,138.809,49.626,145.857,46.401,135.1z"/>
							<path fill-rule="evenodd" clip-rule="evenodd" fill="#D1AB6F" d="M57.871,124.954c5.995,2.468,5.35,11.554,5.35,11.554
								s-10.595,5.195-13.431-1.734C46.956,127.846,54.049,124.549,57.871,124.954z"/>
							<path fill="#31738B" d="M62.579,130.827c-0.144,5.429-3.421,6.495-6.202,7.505c3.457-0.208,6.844-1.824,6.844-1.824
								S63.388,132.851,62.579,130.827z"/>
						</g>
						<path fill-rule="evenodd" clip-rule="evenodd" fill="#D7DADD" d="M57.871,124.954c0,0-5.045-0.616-7.79,3.997
							c-0.922,2.277,11.517-0.542,10.68-1.8C59.808,125.783,57.871,124.954,57.871,124.954z"/>
					</g>
					<path fill="#FBB03B" d="M93.349,161.37C53.014,144.836,33.652,98.572,50.185,58.234c16.534-40.336,62.804-59.697,103.14-43.164
						c40.336,16.537,59.697,62.808,43.163,103.137C179.951,158.546,133.683,177.902,93.349,161.37z"/>
					<path d="M153.74,16.293c39.51,16.194,58.408,61.353,42.211,100.86c-16.2,39.515-61.357,58.413-100.865,42.216
						c-39.512-16.2-58.41-61.355-42.216-100.865C69.067,18.99,114.228,0.093,153.74,16.293 M155.061,13.068
						c-41.225-16.9-88.512,2.889-105.413,44.115c-7.284,17.772-23.004,77.892,44.115,105.406
						c41.227,16.899,88.512-2.889,105.412-44.113C216.074,77.254,196.283,29.967,155.061,13.068L155.061,13.068z"/>
					<path fill="#FCEE21" d="M64.772,87.705c-9.208,8.638-10.315,21.487-9.156,25.767c-21.011-42.238,6.807-93.154,55.106-101.609
						C94.022,16.764,57.597,42.386,64.772,87.705z"/>
					<path d="M153.74,16.293c-1.376-0.504-2.723-1.071-4.091-1.546c36.882,15.34,54.387,57.837,39.105,95.117
						c-4.873,12.891-15.962,27.656-33.099,35.316c-7.964,19.982-10.745,5.857-17.101,8.1c-14.414,3.579-30.014,2.792-44.764-3.255
						C57.547,135.167,39.873,94.152,53.336,57.41c-0.153,0.367-0.312,0.726-0.466,1.094c-16.194,39.51,2.704,84.665,42.216,100.865
						c39.508,16.197,84.665-2.701,100.865-42.216C215.933,68.418,186.632,28.315,153.74,16.293z"/>
					<g>
						<path fill-rule="evenodd" clip-rule="evenodd" d="M190.377,132.023c-2.662,4.61-6.692,7.263-8.987,5.933
							c-2.293-1.327-1.99-6.14,0.679-10.747c2.673-4.611,6.693-7.259,8.987-5.931C193.354,122.608,193.048,127.419,190.377,132.023z
							"/>
						<path d="M199.993,136.553c4.35-8.979-4.277-13.735-4.277-13.735l-15.536,3.36l0.355,10.648
							C180.535,136.826,194.666,146.885,199.993,136.553z"/>
						<path fill-rule="evenodd" clip-rule="evenodd" fill="#D1AB6F" d="M190.25,124.045c-6.569,1.366-7.645,10.737-7.645,10.737
							s9.796,7.308,14.001,0.795C200.805,129.064,194.219,124.361,190.25,124.045z"/>
						<path fill="#31738B" d="M184.342,129.12c6.255,5.442,12.775,4.875,13.226,4.546c-3.222,9.677-14.962,1.116-14.962,1.116
							S183.133,131.026,184.342,129.12z"/>
					</g>
				</g>
			</g>
		</g>
		<path d="M166.685,114.963c11.965,16.252,9.19,36.866,9.19,36.866l-10.222,5.112c-17.005,18.419-33.866,19.746-38.355,20.884
			c-16.454,2.836-31.373-3.169-31.373-3.169l-5.067-7.67l-15.094-4.832c0,0,0.202-15.674-0.3-20.604
			C74.965,136.618,160.478,111.014,166.685,114.963z"/>
		<g>
			<path d="M96.448,71.856c-0.279-0.109-0.475-0.393-0.456-0.705c0.002-0.062,0.1-1.63,0.408-4.285
				c0.048-0.39,0.397-0.667,0.79-0.623c0.392,0.043,0.665,0.398,0.618,0.784c-0.302,2.611-0.4,4.193-0.4,4.208
				c-0.023,0.395-0.356,0.688-0.752,0.667C96.585,71.896,96.513,71.879,96.448,71.856z M97.418,63.386
				c-0.302-0.117-0.497-0.429-0.446-0.767c0.212-1.397,0.446-2.819,0.702-4.222c0.071-0.387,0.441-0.645,0.828-0.571
				c0.384,0.072,0.642,0.441,0.57,0.827c-0.256,1.385-0.488,2.793-0.696,4.179c-0.059,0.39-0.424,0.654-0.809,0.597
				C97.519,63.419,97.465,63.403,97.418,63.386z M98.951,55.01c-0.322-0.122-0.511-0.463-0.438-0.812
				c0.301-1.402,0.631-2.805,0.971-4.17c0.099-0.381,0.479-0.612,0.862-0.516c0.38,0.092,0.612,0.48,0.518,0.862
				c-0.341,1.348-0.665,2.73-0.965,4.121c-0.081,0.387-0.459,0.625-0.843,0.544C99.021,55.033,98.986,55.022,98.951,55.01z
				 M101.029,46.753c-0.343-0.132-0.533-0.506-0.427-0.862c0.4-1.381,0.825-2.764,1.269-4.094c0.123-0.368,0.521-0.569,0.898-0.448
				c0.363,0.129,0.569,0.525,0.451,0.898c-0.439,1.311-0.859,2.673-1.259,4.037c-0.108,0.381-0.502,0.597-0.875,0.484
				C101.067,46.765,101.045,46.76,101.029,46.753z M103.72,38.677L103.72,38.677c-0.365-0.139-0.548-0.549-0.408-0.918
				c0.516-1.355,1.062-2.692,1.621-3.97c0.158-0.36,0.578-0.52,0.937-0.365c0.356,0.157,0.522,0.574,0.365,0.937
				c-0.553,1.255-1.091,2.572-1.599,3.906C104.499,38.63,104.088,38.814,103.72,38.677z M107.213,30.92
				c-0.036-0.015-0.067-0.029-0.1-0.045c-0.341-0.192-0.46-0.624-0.268-0.965c0.696-1.24,1.479-2.468,2.325-3.655
				c0.228-0.322,0.672-0.392,0.991-0.161c0.318,0.226,0.392,0.669,0.162,0.984c-0.816,1.143-1.57,2.328-2.242,3.525
				C107.902,30.912,107.536,31.039,107.213,30.92z M112.141,24c-0.076-0.031-0.147-0.074-0.213-0.13
				c-0.292-0.258-0.325-0.708-0.064-1.001c0.936-1.069,1.946-2.116,3.001-3.111c0.286-0.27,0.734-0.254,1.004,0.031
				c0.271,0.282,0.256,0.73-0.029,1c-1.024,0.966-2.003,1.979-2.911,3.018C112.728,24.031,112.409,24.1,112.141,24z M118.324,18.158
				c-0.117-0.047-0.222-0.121-0.304-0.227c-0.245-0.307-0.189-0.754,0.117-0.992c1.163-0.918,2.347-1.762,3.521-2.52
				c0.33-0.213,0.767-0.113,0.978,0.211c0.215,0.33,0.119,0.771-0.209,0.983c-1.139,0.732-2.283,1.55-3.414,2.437
				C118.812,18.215,118.55,18.243,118.324,18.158z"/>
		</g>
		<path d="M192.517,83.809c-0.09-0.304-2.253-7.43-7.152-15.782c-2.893-4.93-6.152-9.281-9.682-12.919
			c-4.482-4.625-9.425-8.121-14.689-10.384c-0.487-0.212-0.986-0.417-1.486-0.604c-8.55-3.256-18.336-3.36-28.304-0.313
			c-11.264,3.445-22.563,10.765-33.595,21.762c-0.207,0.091-0.386,0.184-0.526,0.254c-0.02,0.018-0.041,0.027-0.067,0.039
			c-2.213-3.411-7.614-8.119-14.629-10.786c-5.359-2.041-13.508-3.584-21.923,0.638c-9.496,4.767-16.713,15.593-21.441,32.183
			l-0.524,1.851l1.413,1.299c4.673,4.3,9.565,7.447,14.55,9.343c7.286,2.771,13.604,2.497,18.267,1.417
			c-0.969,2.491-1.3,4.469-1.027,6.092l0.006,0.039l0.009,0.044c0.772,3.945,3.016,6.886,6.154,8.082
			c0.956,0.365,1.982,0.567,3.076,0.606c2.101,2.225,4.427,3.832,6.93,4.782c10.558,4.02,20.521-4.652,23.102-7.157
			c0.874-0.274,2.303-0.778,3.824-1.495c3.618-1.721,5.938-3.834,6.896-6.287c0.038-0.081,0.067-0.164,0.1-0.257
			c0.34,0.133,0.68,0.264,1.018,0.394c10.063,3.83,19.983,5.16,29.478,3.95c7.615-0.973,14.95-3.568,21.802-7.718
			c11.606-7.026,17.766-16.05,18.022-16.431l0.825-1.226L192.517,83.809z"/>
		<path fill="#F4C85B" d="M98.951,68.596c24.099-24.343,46.02-27.067,60.551-20.806c21.417,9.234,29.769,37.12,29.769,37.12
			s-25.734,38.189-71.305,16.593c4.268,6.74-8.899,10.231-8.899,10.231s-15.138,16.246-27.013,1.974
			c-5.38,0.577-7.063-3.725-7.532-6.121c-0.603-3.609,4.624-11.631,4.624-11.631s-16.866,11.889-37.376-7.002
			c14.308-50.216,47.253-29.707,52.536-20.928C96.539,70.786,98.533,68.256,98.951,68.596z"/>
		<path fill="#FFFFFF" d="M98.951,68.596c0,0,19.206-21.655,46.075-24.792C120.348,50.575,98.951,68.596,98.951,68.596z"/>
		<path fill="#FFFFFF" d="M53.755,64.716c-3.996,7.244-8.79,22.59-9.044,26.765c-1.095-0.751-2.941-2.526-2.941-2.526
			S45.533,73.921,53.755,64.716z"/>
		<g>
			<path d="M89.523,117.145l0.144-0.401c0.523,0.192,1.062,0.339,1.604,0.445l-0.079,0.414
				C90.628,117.495,90.065,117.341,89.523,117.145z M87.947,116.433c-0.496-0.27-0.983-0.581-1.461-0.929l0.252-0.343
				c0.462,0.339,0.936,0.637,1.41,0.896L87.947,116.433z M92.912,117.796l0.019-0.425c0.542,0.019,1.104,0,1.666-0.06l0.045,0.422
				C94.056,117.796,93.479,117.813,92.912,117.796z M85.154,114.41c-0.411-0.377-0.815-0.79-1.21-1.229l0.313-0.284
				c0.385,0.427,0.783,0.83,1.181,1.2L85.154,114.41z M79.354,111.693c-0.471-0.178-0.901-0.446-1.281-0.802l0.287-0.309
				c0.406,0.37,0.86,0.635,1.38,0.79l-0.124,0.414C79.524,111.755,79.438,111.728,79.354,111.693z M81.373,111.983l-0.018-0.428
				c0.152-0.002,0.305-0.014,0.467-0.03l1.172-0.124l0.172,0.203l-0.243,0.204l0.002,0.022l-0.038,0.006l-0.048,0.041l-0.029-0.029
				l-0.943,0.099C81.698,111.963,81.532,111.972,81.373,111.983z M96.343,117.443l-0.093-0.414c0.525-0.121,1.069-0.284,1.612-0.469
				l0.137,0.401C97.443,117.153,96.887,117.315,96.343,117.443z M77.018,109.476c-0.256-0.484-0.465-1.033-0.619-1.633l0.412-0.11
				c0.148,0.571,0.346,1.091,0.586,1.545L77.018,109.476z M99.603,116.326l-0.18-0.394c0.5-0.22,1.006-0.476,1.513-0.748
				l0.204,0.372C100.621,115.841,100.104,116.096,99.603,116.326z M76.335,106.068c0.091-0.472,0.253-1.037,0.476-1.667l0.4,0.144
				c-0.215,0.612-0.366,1.151-0.458,1.605L76.335,106.068z M102.619,114.681l-0.23-0.36c0.464-0.292,0.934-0.612,1.397-0.95
				l0.252,0.347C103.569,114.056,103.091,114.381,102.619,114.681z M56.72,96.299l0.141-0.4c0.537,0.19,1.081,0.364,1.608,0.517
				l-0.114,0.408C57.813,96.671,57.265,96.489,56.72,96.299z M55.122,95.689c-0.525-0.215-1.051-0.446-1.571-0.695l0.184-0.385
				c0.514,0.245,1.028,0.474,1.548,0.691L55.122,95.689z M52.026,94.226c-0.497-0.27-0.997-0.559-1.488-0.851l0.219-0.362
				c0.485,0.291,0.978,0.569,1.471,0.834L52.026,94.226z M60.016,97.246l0.092-0.414c0.552,0.12,1.108,0.229,1.663,0.315
				l-0.067,0.419C61.14,97.479,60.575,97.371,60.016,97.246z M49.087,92.465c-0.473-0.309-0.945-0.633-1.411-0.967l0.25-0.344
				c0.46,0.328,0.928,0.652,1.394,0.956L49.087,92.465z M63.407,97.777l0.035-0.422c0.562,0.052,1.126,0.081,1.686,0.099
				l-0.011,0.423C64.553,97.864,63.973,97.831,63.407,97.777z M77.835,102.978l-0.389-0.173c0.215-0.491,0.455-1.015,0.723-1.552
				l0.382,0.189C78.289,101.974,78.048,102.485,77.835,102.978z M46.309,90.477c-0.447-0.34-0.896-0.704-1.334-1.069l0.271-0.33
				c0.435,0.365,0.882,0.724,1.32,1.064L46.309,90.477z M105.399,112.673l-0.268-0.332c0.446-0.362,0.876-0.732,1.286-1.107
				l0.287,0.318C106.288,111.93,105.85,112.304,105.399,112.673z M66.835,97.86l-0.017-0.429c0.559-0.022,1.123-0.069,1.68-0.134
				l0.048,0.426C67.981,97.785,67.401,97.833,66.835,97.86z M58.44,94.17c-0.219-0.088-0.438-0.171-0.658-0.259l0.166-0.393
				c0.521,0.213,1.047,0.41,1.579,0.589l-0.135,0.403C59.078,94.403,58.755,94.287,58.44,94.17z M56.221,93.201
				c-0.503-0.249-1.013-0.517-1.515-0.806l0.212-0.365c0.492,0.28,0.996,0.543,1.493,0.792L56.221,93.201z M61.044,94.99l0.1-0.409
				c0.548,0.134,1.104,0.247,1.654,0.339l-0.072,0.42C62.163,95.25,61.601,95.129,61.044,94.99z M43.901,87.989
				c0.163-0.548,0.334-1.093,0.502-1.626l0.407,0.128c-0.169,0.53-0.34,1.071-0.501,1.623L43.901,87.989z M53.24,91.507
				c-0.466-0.3-0.945-0.622-1.413-0.958l0.243-0.348c0.466,0.334,0.937,0.65,1.399,0.953L53.24,91.507z M64.429,95.551l0.039-0.422
				c0.557,0.047,1.122,0.067,1.679,0.065v0.426C65.58,95.62,65.005,95.6,64.429,95.551z M70.24,97.473l-0.075-0.419
				c0.518-0.096,1.043-0.212,1.561-0.342l0.09-0.023l0.102,0.415l-0.09,0.023C71.301,97.258,70.769,97.371,70.24,97.473z
				 M50.456,89.52c-0.44-0.353-0.885-0.716-1.32-1.091l0.277-0.316c0.429,0.365,0.873,0.726,1.305,1.07L50.456,89.52z
				 M79.336,99.938l-0.378-0.199c0.273-0.503,0.559-1.002,0.85-1.491l0.364,0.222C79.887,98.952,79.604,99.443,79.336,99.938z
				 M67.865,95.542l-0.037-0.424c0.554-0.049,1.114-0.124,1.668-0.219l0.072,0.42C69.005,95.414,68.433,95.49,67.865,95.542z
				 M107.939,110.342l-0.314-0.287l0.265-0.28l0.614-0.167c0.239-0.065,0.495-0.137,0.765-0.222l0.125,0.406
				c-0.274,0.085-0.533,0.161-0.779,0.229l-0.5,0.131L107.939,110.342z M47.856,87.297c-0.113-0.107-0.231-0.22-0.341-0.322
				l-0.9-0.85l0.293-0.308l0.897,0.844c0.115,0.111,0.225,0.216,0.341,0.319L47.856,87.297z M73.569,96.619l-0.135-0.406
				c0.536-0.177,1.067-0.371,1.578-0.589l0.167,0.396C74.656,96.234,74.114,96.436,73.569,96.619z M71.248,94.95l-0.107-0.412
				c0.541-0.142,1.083-0.303,1.612-0.491l0.143,0.403C72.352,94.642,71.798,94.805,71.248,94.95z M44.939,84.739
				c0.188-0.548,0.376-1.083,0.567-1.609l0.4,0.145c-0.191,0.526-0.379,1.062-0.565,1.604L44.939,84.739z M111.016,109.213
				l-0.158-0.398c0.532-0.213,1.054-0.437,1.545-0.681l0.188,0.385C112.091,108.763,111.559,108.993,111.016,109.213z
				 M47.066,84.318c0.088-0.24,0.183-0.483,0.273-0.725c0.112-0.295,0.22-0.582,0.336-0.868l0.395,0.157
				c-0.112,0.285-0.225,0.569-0.332,0.861c-0.092,0.238-0.185,0.481-0.271,0.721L47.066,84.318z M81.07,97.029L80.715,96.8
				l0.929-1.426L82,95.604L81.07,97.029z M76.741,95.305l-0.197-0.381c0.759-0.391,1.217-0.682,1.34-0.764l0.107-0.081l0.245,0.353
				l-0.104,0.075C77.994,94.597,77.521,94.907,76.741,95.305z M74.495,93.826l-0.172-0.391c0.509-0.222,1.017-0.465,1.523-0.729
				l0.196,0.379C75.529,93.352,75.006,93.598,74.495,93.826z M114.102,107.695l-0.223-0.366c0.523-0.315,0.981-0.643,1.356-0.966
				l0.277,0.323C115.119,107.024,114.642,107.365,114.102,107.695z M46.502,81.682l-0.396-0.15c0.207-0.539,0.419-1.072,0.632-1.587
				l0.394,0.164C46.922,80.618,46.711,81.147,46.502,81.682z M79.629,93.447l-0.247-0.346l1.393-0.984l0.245,0.346L79.629,93.447z
				 M48.705,81.309l-0.393-0.166c0.22-0.533,0.445-1.06,0.668-1.568l0.392,0.168C49.147,80.257,48.927,80.779,48.705,81.309z
				 M77.536,92.24l-0.222-0.36c0.476-0.293,0.95-0.602,1.416-0.926l0.242,0.348C78.499,91.631,78.018,91.948,77.536,92.24z
				 M82.932,94.182l-0.357-0.239l0.932-1.423l0.355,0.235L82.932,94.182z M116.681,105.358l-0.372-0.214
				c0.071-0.122,0.132-0.247,0.184-0.371c0.09-0.239,0.188-0.599,0.064-1.104l0.412-0.104c0.152,0.628,0.034,1.062-0.071,1.341
				C116.832,105.073,116.761,105.217,116.681,105.358z M47.796,78.544l-0.389-0.17c0.234-0.529,0.47-1.053,0.714-1.553l0.382,0.186
				C48.267,77.503,48.027,78.022,47.796,78.544z M82.408,91.487l-0.241-0.348l1.386-0.982l0.25,0.346L82.408,91.487z M80.353,90.285
				l-0.265-0.334l0.228-0.187c0.362-0.283,0.724-0.584,1.075-0.894l0.28,0.325c-0.358,0.305-0.724,0.613-1.086,0.902L80.353,90.285z
				 M50.076,78.197l-0.387-0.175c0.244-0.525,0.491-1.044,0.743-1.54l0.383,0.189C50.565,77.169,50.314,77.683,50.076,78.197z
				 M84.792,91.325l-0.357-0.231l0.928-1.423l0.36,0.229L84.792,91.325z M115.817,102.224l-0.909-1.439l0.36-0.224l0.908,1.434
				L115.817,102.224z M85.194,89.527l-0.247-0.354l1.392-0.978l0.245,0.348L85.194,89.527z M49.246,75.48l-0.375-0.195
				c0.259-0.513,0.53-1.02,0.799-1.512l0.369,0.209C49.772,74.468,49.509,74.971,49.246,75.48z M82.937,88.039l-0.295-0.311
				c0.398-0.385,0.802-0.789,1.191-1.202l0.311,0.293C83.747,87.241,83.34,87.65,82.937,88.039z M113.999,99.348l-0.915-1.44
				l0.363-0.229l0.908,1.438L113.999,99.348z M51.591,75.164l-0.373-0.2c0.273-0.507,0.555-1.013,0.833-1.495l0.365,0.213
				C52.138,74.158,51.862,74.662,51.591,75.164z M123.834,102.105c-0.529-0.206-1.063-0.422-1.584-0.642l0.161-0.393
				c0.522,0.218,1.053,0.432,1.575,0.638L123.834,102.105z M125.434,102.703l0.144-0.399c0.53,0.187,1.069,0.373,1.605,0.555
				l-0.135,0.403C126.508,103.081,125.965,102.893,125.434,102.703z M120.678,100.791c-0.516-0.224-1.036-0.463-1.552-0.7
				l0.18-0.391c0.514,0.243,1.032,0.476,1.549,0.702L120.678,100.791z M128.674,103.78l0.123-0.406
				c0.543,0.163,1.091,0.32,1.632,0.473l-0.116,0.411C129.768,104.103,129.216,103.947,128.674,103.78z M117.586,99.36l-1.54-0.729
				l0.185-0.389l1.54,0.732L117.586,99.36z M131.967,104.687l0.101-0.413c0.546,0.135,1.104,0.265,1.653,0.385l-0.089,0.415
				C133.074,104.953,132.515,104.823,131.967,104.687z M114.507,97.9l-1.533-0.728l0.18-0.386l1.538,0.726L114.507,97.9z
				 M135.307,105.412l0.076-0.419c0.56,0.104,1.117,0.2,1.673,0.286l-0.064,0.417C136.433,105.613,135.866,105.513,135.307,105.412z
				 M138.682,105.937l0.053-0.426c0.559,0.067,1.12,0.132,1.688,0.186l-0.04,0.422C139.815,106.068,139.243,106.007,138.682,105.937
				z M50.882,72.51l-0.367-0.217c0.298-0.499,0.598-0.988,0.899-1.456l0.358,0.229C51.477,71.529,51.175,72.014,50.882,72.51z
				 M85.293,85.556l-0.325-0.278c0.373-0.428,0.734-0.863,1.088-1.306l0.333,0.266C86.034,84.683,85.667,85.125,85.293,85.556z
				 M142.081,106.25l0.03-0.424c0.565,0.03,1.135,0.059,1.692,0.072l-0.011,0.424C143.226,106.308,142.656,106.285,142.081,106.25z
				 M53.288,72.233l-0.359-0.229c0.312-0.494,0.624-0.974,0.938-1.43l0.35,0.239C53.909,71.264,53.598,71.74,53.288,72.233z
				 M145.501,106.344l-0.004-0.43c0.564-0.002,1.138-0.016,1.696-0.037l0.02,0.424C146.644,106.322,146.07,106.338,145.501,106.344z
				 M133.969,100.78l0.146-0.4c0.532,0.189,1.071,0.369,1.604,0.534l-0.124,0.406C135.057,101.154,134.51,100.973,133.969,100.78z
				 M132.371,100.167c-0.523-0.214-1.054-0.443-1.568-0.68l0.176-0.387c0.515,0.234,1.035,0.461,1.551,0.671L132.371,100.167z
				 M87.425,82.87l-0.347-0.247c0.436-0.607,0.761-1.094,0.955-1.399l0.021-0.033l0.038-0.025c0.342-0.235,0.673-0.505,0.979-0.787
				l0.294,0.31c-0.317,0.295-0.65,0.561-0.995,0.804C88.168,81.801,87.849,82.282,87.425,82.87z M52.72,69.659l-0.349-0.24
				c0.332-0.475,0.675-0.938,1.016-1.381l0.337,0.262C53.387,68.738,53.049,69.194,52.72,69.659z M137.238,101.786l0.11-0.413
				c0.546,0.139,1.1,0.27,1.646,0.378l-0.087,0.424C138.356,102.057,137.797,101.927,137.238,101.786z M129.263,98.741
				c-0.503-0.257-1.011-0.527-1.511-0.806l0.21-0.376c0.493,0.278,0.994,0.546,1.494,0.802L129.263,98.741z M148.916,106.203
				l-0.03-0.426c0.564-0.039,1.128-0.092,1.688-0.155l0.046,0.422C150.057,106.104,149.483,106.159,148.916,106.203z
				 M126.278,97.066c-0.479-0.297-0.962-0.604-1.438-0.925l0.236-0.353c0.473,0.311,0.953,0.621,1.426,0.911L126.278,97.066z
				 M140.593,102.477l0.066-0.417c0.549,0.085,1.116,0.159,1.676,0.222l-0.046,0.426
				C141.723,102.646,141.149,102.57,140.593,102.477z M55.203,69.439l-0.341-0.257c0.351-0.463,0.707-0.913,1.067-1.343l0.326,0.271
				C55.903,68.539,55.549,68.979,55.203,69.439z M123.436,95.168c-0.464-0.336-0.923-0.683-1.37-1.03l0.262-0.336
				c0.443,0.345,0.899,0.687,1.359,1.017L123.436,95.168z M143.997,102.852l0.024-0.426c0.557,0.034,1.128,0.053,1.688,0.06
				l-0.005,0.43C145.137,102.909,144.561,102.881,143.997,102.852z M152.313,105.826l-0.058-0.419
				c0.555-0.082,1.116-0.176,1.67-0.277l0.076,0.421C153.444,105.647,152.878,105.748,152.313,105.826z M120.734,93.064
				c-0.433-0.358-0.871-0.738-1.294-1.113l0.283-0.32c0.42,0.379,0.854,0.748,1.282,1.104L120.734,93.064z M147.42,102.89
				l-0.019-0.424c0.562-0.018,1.128-0.052,1.695-0.095l0.03,0.423C148.561,102.842,147.984,102.872,147.42,102.89z M54.79,66.989
				l-0.323-0.277c0.376-0.437,0.757-0.865,1.147-1.271l0.309,0.292C55.54,66.136,55.16,66.556,54.79,66.989z M155.678,105.215
				l-0.091-0.416c0.545-0.121,1.099-0.254,1.651-0.393l0.104,0.412C156.79,104.96,156.23,105.092,155.678,105.215z M118.181,90.789
				c-0.41-0.394-0.824-0.793-1.219-1.2l0.306-0.301c0.39,0.4,0.795,0.802,1.206,1.193L118.181,90.789z M150.831,102.612
				l-0.054-0.421c0.557-0.069,1.118-0.152,1.674-0.251l0.075,0.415C151.961,102.457,151.392,102.544,150.831,102.612z
				 M57.379,66.854l-0.307-0.292c0.398-0.422,0.807-0.828,1.223-1.21l0.284,0.312C58.174,66.043,57.771,66.443,57.379,66.854z
				 M90.522,79.386l-0.349-0.25c0.316-0.441,0.57-0.91,0.751-1.386l0.021-0.06l0.4,0.146l-0.023,0.065
				C91.131,78.405,90.86,78.909,90.522,79.386z M115.781,88.348c-0.381-0.417-0.768-0.845-1.136-1.274l0.322-0.277
				c0.367,0.426,0.743,0.853,1.128,1.267L115.781,88.348z M158.992,104.364l-0.12-0.408c0.54-0.156,1.082-0.329,1.62-0.502
				l0.132,0.403C160.086,104.03,159.537,104.206,158.992,104.364z M154.204,102.03l-0.091-0.418
				c0.542-0.117,1.098-0.252,1.649-0.399l0.104,0.417C155.313,101.776,154.755,101.911,154.204,102.03z M57.121,64.539l-0.291-0.307
				c0.423-0.397,0.861-0.779,1.29-1.132l0.269,0.33C57.968,63.777,57.54,64.155,57.121,64.539z M113.547,85.762
				c-0.362-0.454-0.719-0.91-1.048-1.35l0.341-0.258c0.328,0.438,0.677,0.889,1.039,1.342L113.547,85.762z M59.857,64.569
				l-0.263-0.333c0.454-0.364,0.924-0.705,1.39-1.012l0.233,0.354C60.763,63.881,60.304,64.216,59.857,64.569z M162.236,103.289
				l-0.148-0.399c0.52-0.189,1.052-0.399,1.58-0.613l0.161,0.396C163.299,102.888,162.764,103.094,162.236,103.289z M91.271,76.094
				c0.018-0.539-0.047-1.082-0.195-1.617l0.41-0.118c0.162,0.582,0.233,1.169,0.206,1.749L91.271,76.094z M157.312,101.222
				l-0.122-0.41c0.538-0.159,1.075-0.337,1.613-0.519l0.136,0.404C158.399,100.883,157.854,101.058,157.312,101.222z
				 M111.434,83.241c-0.514-0.282-1.003-0.596-1.461-0.926l0.251-0.347c0.44,0.325,0.917,0.629,1.414,0.901L111.434,83.241z
				 M108.642,81.202c-0.434-0.423-0.812-0.873-1.122-1.33l0.351-0.238c0.295,0.432,0.657,0.855,1.071,1.26L108.642,81.202z
				 M59.731,62.404l-0.248-0.351c0.471-0.337,0.955-0.648,1.438-0.943l0.218,0.367C60.666,61.762,60.191,62.077,59.731,62.404z
				 M165.4,101.999l-0.176-0.39c0.515-0.224,1.03-0.471,1.536-0.713l0.188,0.379C166.437,101.525,165.92,101.77,165.4,101.999z
				 M160.545,100.108l-0.152-0.396c0.519-0.204,1.047-0.417,1.567-0.641l0.164,0.389C161.604,99.689,161.069,99.906,160.545,100.108
				z M62.663,62.714l-0.202-0.373c0.309-0.167,0.627-0.322,0.941-0.463c0.207-0.101,0.413-0.186,0.622-0.27l0.157,0.396
				c-0.202,0.08-0.404,0.165-0.604,0.256C63.273,62.399,62.963,62.555,62.663,62.714z M90.415,72.976
				c-0.269-0.452-0.604-0.897-0.992-1.325l0.312-0.285c0.41,0.446,0.765,0.915,1.048,1.387L90.415,72.976z M106.723,78.312
				c-0.092-0.258-0.161-0.517-0.208-0.771c-0.062-0.316-0.099-0.644-0.104-0.965l0.425-0.007c0.007,0.295,0.036,0.595,0.097,0.887
				c0.044,0.241,0.11,0.477,0.192,0.717L106.723,78.312z M88.134,70.595c-0.258-0.226-0.553-0.494-0.815-0.738l-0.446-0.407
				l0.288-0.313l0.446,0.409c0.259,0.239,0.554,0.509,0.812,0.735L88.134,70.595z M62.612,60.662l-0.189-0.381
				c0.515-0.257,1.042-0.491,1.569-0.702l0.159,0.392C63.632,60.178,63.116,60.411,62.612,60.662z M163.687,98.764l-0.18-0.389
				c0.501-0.233,1.013-0.484,1.521-0.743l0.192,0.38C164.71,98.276,164.194,98.524,163.687,98.764z M65.771,61.452l-0.119-0.406
				c0.558-0.157,1.122-0.283,1.684-0.372l0.067,0.418C66.855,61.18,66.309,61.303,65.771,61.452z M168.473,100.504l-0.199-0.378
				c0.494-0.261,0.997-0.534,1.484-0.812l0.211,0.373C169.478,99.967,168.972,100.243,168.473,100.504z M85.608,68.315
				c-0.454-0.395-0.874-0.754-1.294-1.098l0.273-0.329c0.42,0.345,0.844,0.712,1.301,1.106L85.608,68.315z M95.443,71.384
				l0.107-0.412c0.518,0.141,1.062,0.168,1.602,0.092l0.059,0.424C96.615,71.574,96.019,71.536,95.443,71.384z M93.847,70.616
				c-0.438-0.319-0.856-0.724-1.248-1.204l0.151-0.149l0.169-0.138c0.374,0.466,0.768,0.848,1.178,1.142L93.847,70.616z
				 M69.074,60.916l-0.019-0.422c0.563-0.024,1.147-0.021,1.723,0.014l-0.029,0.429C70.191,60.897,69.624,60.894,69.074,60.916z
				 M82.987,66.161c-0.458-0.348-0.92-0.681-1.371-0.988l0.24-0.355c0.46,0.317,0.925,0.656,1.387,1.006L82.987,66.161z
				 M65.738,59.416l-0.123-0.409c0.546-0.163,1.105-0.312,1.665-0.424l0.091,0.412C66.821,59.112,66.271,59.253,65.738,59.416z
				 M106.658,74.833c0.038-0.132,0.084-0.267,0.137-0.403c0.151-0.4,0.354-0.802,0.596-1.188l0.361,0.224
				c-0.228,0.365-0.414,0.743-0.559,1.12c-0.048,0.124-0.093,0.248-0.126,0.371L106.658,74.833z M99.111,71.562l-0.477-0.39
				l0.267-0.331l0.177,0.142l0.768-0.771l0.3,0.297L99.111,71.562z M166.735,97.215l-0.207-0.376c0.49-0.27,0.987-0.547,1.476-0.834
				l0.216,0.363C167.724,96.66,167.225,96.943,166.735,97.215z M80.2,64.241c-0.486-0.3-0.976-0.584-1.463-0.845l0.201-0.372
				c0.49,0.267,0.993,0.552,1.486,0.856L80.2,64.241z M171.443,98.82l-0.223-0.367c0.481-0.291,0.964-0.595,1.434-0.902l0.233,0.354
				C172.412,98.218,171.925,98.521,171.443,98.82z M72.419,61.133l0.073-0.421c0.554,0.097,1.12,0.223,1.681,0.373l-0.112,0.41
				C73.514,61.348,72.963,61.224,72.419,61.133z M77.226,62.646c-0.516-0.233-1.044-0.454-1.562-0.643l0.146-0.396
				c0.528,0.191,1.064,0.413,1.592,0.648L77.226,62.646z M91.606,68.009c-0.332-0.406-0.71-0.827-1.129-1.253l0.303-0.296
				c0.43,0.431,0.817,0.861,1.155,1.281L91.606,68.009z M69.026,58.72l-0.048-0.418c0.562-0.075,1.138-0.117,1.712-0.146
				l0.016,0.432C70.143,58.608,69.581,58.655,69.026,58.72z M89.248,65.605c-0.412-0.354-0.856-0.718-1.312-1.066l0.258-0.336
				c0.461,0.356,0.909,0.719,1.33,1.082L89.248,65.605z M72.39,58.588l0.021-0.429c0.563,0.022,1.143,0.067,1.711,0.132l-0.05,0.429
				C73.509,58.653,72.946,58.608,72.39,58.588z M169.681,95.483l-0.228-0.356c0.476-0.295,0.955-0.604,1.429-0.92l0.237,0.359
				C170.642,94.879,170.159,95.191,169.681,95.483z M108.765,72.153l-0.307-0.29c0.046-0.054,0.099-0.104,0.151-0.157
				c0.359-0.366,0.707-0.714,1.059-1.057l0.296,0.305c-0.347,0.342-0.692,0.689-1.043,1.037
				C108.862,72.053,108.816,72.104,108.765,72.153z M101.352,69.306l-0.307-0.299c0.408-0.406,0.814-0.802,1.223-1.193l0.296,0.304
				C102.157,68.509,101.755,68.904,101.352,69.306z M174.302,96.95l-0.238-0.349c0.457-0.321,0.915-0.652,1.375-0.99l0.254,0.341
				C175.231,96.292,174.766,96.628,174.302,96.95z M86.562,63.554c-0.463-0.313-0.943-0.622-1.424-0.909l0.217-0.363
				c0.488,0.291,0.977,0.604,1.448,0.918L86.562,63.554z M75.74,58.973l0.078-0.421c0.559,0.107,1.12,0.233,1.675,0.379L77.39,59.34
				C76.841,59.199,76.285,59.074,75.74,58.973z M83.664,61.812c-0.496-0.264-1.004-0.52-1.514-0.751l0.179-0.386
				c0.52,0.23,1.033,0.492,1.536,0.759L83.664,61.812z M79.011,59.815l0.132-0.401c0.54,0.178,1.086,0.376,1.612,0.584l-0.159,0.397
				C80.077,60.188,79.541,59.991,79.011,59.815z M172.533,93.604l-0.247-0.35c0.46-0.32,0.925-0.649,1.386-0.986l0.25,0.347
				C173.46,92.95,172.992,93.287,172.533,93.604z M177.051,94.916l-0.265-0.333c0.441-0.348,0.889-0.71,1.319-1.068l0.274,0.327
				C177.943,94.203,177.497,94.568,177.051,94.916z M111.182,69.769l-0.293-0.307c0.412-0.396,0.824-0.786,1.235-1.173l0.289,0.314
				C112.004,68.98,111.592,69.373,111.182,69.769z M103.793,66.946l-0.287-0.312c0.414-0.388,0.831-0.773,1.252-1.153l0.288,0.314
				C104.628,66.174,104.207,66.558,103.793,66.946z M175.285,91.587l-0.26-0.336c0.448-0.344,0.892-0.691,1.339-1.048l0.267,0.334
				C176.179,90.894,175.733,91.244,175.285,91.587z M179.675,92.727l-0.28-0.315c0.422-0.377,0.847-0.761,1.259-1.141l0.29,0.307
				C180.528,91.967,180.102,92.354,179.675,92.727z M106.31,64.663l-0.284-0.321c0.434-0.377,0.86-0.75,1.292-1.115l0.277,0.325
				C107.164,63.914,106.737,64.282,106.31,64.663z M113.668,67.453l-0.286-0.315c0.425-0.389,0.848-0.765,1.274-1.137l0.277,0.322
				C114.514,66.689,114.09,67.067,113.668,67.453z M177.948,89.458l-0.273-0.326c0.434-0.365,0.862-0.73,1.295-1.105l0.278,0.321
				C178.815,88.726,178.384,89.094,177.948,89.458z M182.171,90.397l-0.295-0.305c0.398-0.392,0.801-0.8,1.192-1.208l0.305,0.296
				C182.981,89.595,182.576,90.005,182.171,90.397z M108.897,62.456l-0.273-0.331c0.442-0.358,0.882-0.715,1.326-1.066l0.267,0.327
				C109.775,61.741,109.333,62.095,108.897,62.456z M116.224,65.211l-0.273-0.323c0.433-0.368,0.873-0.73,1.308-1.092l0.27,0.331
				C117.097,64.479,116.657,64.848,116.224,65.211z M180.525,87.217l-0.284-0.314c0.418-0.378,0.836-0.763,1.25-1.15l0.292,0.311
				C181.364,86.455,180.945,86.842,180.525,87.217z M111.556,60.346l-0.259-0.341c0.454-0.344,0.909-0.685,1.363-1.021l0.251,0.341
				C112.458,59.661,112.007,59.996,111.556,60.346z M118.854,63.066l-0.263-0.337c0.454-0.354,0.904-0.699,1.354-1.037l0.255,0.34
				C119.753,62.369,119.306,62.712,118.854,63.066z M184.537,87.929l-0.314-0.285c0.382-0.425,0.759-0.854,1.117-1.273l0.325,0.272
				C185.303,87.068,184.923,87.503,184.537,87.929z M183.02,84.889l-0.292-0.306c0.376-0.366,0.759-0.741,1.138-1.119l0.07-0.069
				l0.302,0.299l-0.069,0.072C183.786,84.146,183.403,84.518,183.02,84.889z M114.288,58.33l-0.244-0.345
				c0.468-0.331,0.934-0.655,1.401-0.974l0.243,0.357C115.22,57.679,114.755,58.001,114.288,58.33z M121.567,61.022l-0.248-0.343
				c0.471-0.338,0.938-0.67,1.394-0.985l0.243,0.352C122.492,60.361,122.029,60.689,121.567,61.022z M186.749,85.319l-0.336-0.264
				c0.159-0.197,0.296-0.371,0.417-0.533c-0.165-0.475-0.346-0.973-0.535-1.489l0.395-0.15c0.211,0.555,0.402,1.098,0.581,1.61
				l0.035,0.106l-0.067,0.093C187.098,84.874,186.938,85.086,186.749,85.319z M184.502,82.266l-0.197-0.606
				c-0.071-0.228-0.206-0.584-0.369-0.985l0.392-0.157c0.172,0.415,0.305,0.771,0.38,1.011l0.2,0.608L184.502,82.266z
				 M117.104,56.433l-0.229-0.362c0.48-0.307,0.966-0.613,1.443-0.904l0.221,0.361C118.062,55.821,117.581,56.122,117.104,56.433z
				 M124.364,59.097l-0.234-0.354c0.481-0.312,0.964-0.618,1.447-0.916l0.217,0.365C125.321,58.482,124.84,58.792,124.364,59.097z
				 M185.676,81.45c-0.196-0.491-0.412-1.013-0.646-1.571l0.39-0.164c0.239,0.557,0.454,1.087,0.655,1.578L185.676,81.45z
				 M183.268,79.12c-0.229-0.499-0.471-1.018-0.724-1.538l0.381-0.188c0.256,0.525,0.502,1.047,0.727,1.547L183.268,79.12z
				 M119.997,54.655l-0.215-0.365c0.493-0.285,0.996-0.573,1.486-0.844l0.204,0.375C120.985,54.093,120.486,54.373,119.997,54.655z
				 M127.252,57.317l-0.214-0.371c0.492-0.282,0.991-0.565,1.489-0.835l0.202,0.376C128.236,56.757,127.74,57.035,127.252,57.317z
				 M184.344,78.327c-0.226-0.498-0.462-1.013-0.715-1.54l0.386-0.182c0.25,0.532,0.494,1.048,0.716,1.547L184.344,78.327z
				 M181.774,76.071c-0.261-0.499-0.531-1.001-0.807-1.497l0.374-0.207c0.276,0.501,0.549,1.003,0.811,1.505L181.774,76.071z
				 M122.97,53.022l-0.195-0.379c0.511-0.26,1.021-0.516,1.529-0.761l0.186,0.385C123.984,52.505,123.477,52.763,122.97,53.022z
				 M130.231,55.698l-0.193-0.38c0.515-0.26,1.032-0.51,1.538-0.746l0.182,0.388C131.252,55.19,130.742,55.441,130.231,55.698z
				 M182.881,75.265c-0.249-0.496-0.512-0.999-0.779-1.514l0.374-0.199c0.272,0.517,0.535,1.022,0.783,1.519L182.881,75.265z
				 M180.121,73.104c-0.283-0.484-0.583-0.97-0.882-1.447l0.359-0.227c0.304,0.483,0.603,0.972,0.888,1.454L180.121,73.104z
				 M126.027,51.549l-0.177-0.39c0.52-0.231,1.048-0.459,1.567-0.679l0.166,0.393C127.065,51.09,126.54,51.317,126.027,51.549z
				 M133.306,54.27l-0.17-0.39c0.53-0.229,1.064-0.443,1.59-0.643l0.148,0.399C134.358,53.835,133.828,54.046,133.306,54.27z
				 M181.287,72.264c-0.263-0.472-0.536-0.943-0.814-1.42l-0.031-0.056l0.368-0.211l0.027,0.047c0.286,0.483,0.56,0.959,0.823,1.431
				L181.287,72.264z M178.317,70.229c-0.259-0.387-0.523-0.778-0.797-1.172l-0.163-0.228l0.348-0.247l0.165,0.236
				c0.274,0.396,0.54,0.789,0.802,1.174L178.317,70.229z M136.473,53.067l-0.137-0.404l0.262-0.087
				c0.455-0.151,0.916-0.293,1.369-0.426l0.121,0.406c-0.452,0.133-0.906,0.273-1.359,0.423L136.473,53.067z M129.158,50.249
				l-0.15-0.397c0.53-0.202,1.07-0.399,1.605-0.586l0.139,0.401C130.22,49.854,129.684,50.05,129.158,50.249z M179.564,69.337
				c-0.3-0.478-0.604-0.963-0.913-1.434l0.354-0.229c0.312,0.473,0.62,0.956,0.919,1.438L179.564,69.337z M176.358,67.461
				c-0.337-0.451-0.685-0.905-1.038-1.341l0.333-0.265c0.356,0.438,0.705,0.894,1.047,1.352L176.358,67.461z M139.721,52.126
				l-0.099-0.413c0.556-0.138,1.116-0.261,1.673-0.373l0.079,0.417C140.83,51.868,140.271,51.991,139.721,52.126z M177.704,66.495
				c-0.325-0.472-0.656-0.934-0.985-1.378l0.345-0.256c0.332,0.455,0.664,0.923,0.99,1.396L177.704,66.495z M132.364,49.142
				l-0.126-0.408l0.144-0.038c0.491-0.156,0.998-0.303,1.499-0.437l0.11,0.409c-0.496,0.135-0.996,0.285-1.485,0.435L132.364,49.142
				z M174.243,64.809c-0.367-0.429-0.742-0.854-1.118-1.272l0.312-0.285c0.384,0.417,0.764,0.852,1.13,1.284L174.243,64.809z
				 M143.044,51.475l-0.062-0.419c0.565-0.082,1.14-0.149,1.701-0.204l0.042,0.421C144.165,51.327,143.602,51.396,143.044,51.475z
				 M175.701,63.756c-0.346-0.446-0.699-0.896-1.058-1.326l0.33-0.27c0.357,0.433,0.717,0.885,1.062,1.338L175.701,63.756z
				 M171.966,62.302c-0.398-0.404-0.801-0.807-1.207-1.193l0.295-0.306c0.408,0.386,0.816,0.796,1.215,1.204L171.966,62.302z
				 M135.633,48.255l-0.096-0.413c0.554-0.13,1.117-0.253,1.675-0.356l0.078,0.417C136.742,48.01,136.185,48.124,135.633,48.255z
				 M169.514,59.961c-0.423-0.369-0.858-0.745-1.288-1.098l0.269-0.331c0.437,0.358,0.876,0.734,1.3,1.107L169.514,59.961z
				 M146.411,51.157l-0.019-0.424c0.573-0.023,1.146-0.031,1.716-0.025l-0.006,0.428C147.542,51.127,146.974,51.136,146.411,51.157z
				 M173.552,61.133c-0.371-0.433-0.753-0.852-1.133-1.261l0.311-0.288c0.387,0.41,0.767,0.838,1.145,1.268L173.552,61.133z
				 M138.961,47.613l-0.067-0.425c0.562-0.085,1.135-0.162,1.696-0.227l0.051,0.422C140.084,47.447,139.517,47.521,138.961,47.613z
				 M166.891,57.815c-0.45-0.34-0.91-0.672-1.374-0.983l0.238-0.354c0.469,0.321,0.937,0.655,1.394,0.998L166.891,57.815z
				 M149.792,51.199l0.028-0.422c0.567,0.037,1.14,0.091,1.706,0.16l-0.049,0.421C150.918,51.291,150.349,51.238,149.792,51.199z
				 M171.246,58.648c-0.4-0.406-0.811-0.804-1.215-1.189l0.291-0.311c0.407,0.389,0.82,0.79,1.223,1.196L171.246,58.648z
				 M164.102,55.904c-0.485-0.3-0.976-0.588-1.463-0.857l0.209-0.37c0.491,0.271,0.989,0.563,1.477,0.866L164.102,55.904z
				 M153.146,51.614l0.075-0.418c0.558,0.099,1.127,0.22,1.677,0.353l-0.103,0.415C154.252,51.831,153.698,51.718,153.146,51.614z
				 M142.324,47.228l-0.03-0.424c0.566-0.042,1.143-0.069,1.709-0.091l0.014,0.43C143.455,47.158,142.883,47.186,142.324,47.228z
				 M161.143,54.266c-0.51-0.251-1.025-0.49-1.536-0.705l0.162-0.395c0.521,0.224,1.044,0.462,1.558,0.718L161.143,54.266z
				 M156.429,52.406l0.123-0.408c0.539,0.162,1.09,0.346,1.629,0.543l-0.148,0.398C157.504,52.746,156.964,52.565,156.429,52.406z
				 M168.776,56.322c-0.427-0.371-0.864-0.739-1.298-1.094l0.269-0.332c0.438,0.354,0.88,0.73,1.308,1.103L168.776,56.322z
				 M145.707,47.127l0.005-0.426c0.572,0.007,1.145,0.033,1.714,0.065l-0.027,0.422C146.841,47.158,146.272,47.139,145.707,47.127z
				 M166.143,54.187c-0.457-0.339-0.922-0.671-1.382-0.98l0.244-0.349c0.463,0.311,0.932,0.646,1.392,0.987L166.143,54.187z
				 M149.085,47.332l0.047-0.424c0.566,0.062,1.138,0.137,1.694,0.227l-0.065,0.42C150.209,47.467,149.646,47.39,149.085,47.332z
				 M163.341,52.278c-0.479-0.295-0.968-0.586-1.455-0.859l0.206-0.37c0.492,0.278,0.989,0.567,1.476,0.873L163.341,52.278z
				 M152.425,47.857l0.085-0.417c0.561,0.117,1.121,0.249,1.669,0.393l-0.106,0.409C153.532,48.101,152.976,47.972,152.425,47.857z
				 M160.386,50.627c-0.504-0.25-1.021-0.492-1.528-0.717l0.173-0.391c0.517,0.224,1.037,0.472,1.547,0.729L160.386,50.627z
				 M155.695,48.716l0.129-0.406c0.54,0.174,1.084,0.358,1.618,0.561l-0.151,0.399C156.768,49.072,156.23,48.886,155.695,48.716z"/>
		</g>
		<path fill="#1A1A1A" d="M82.876,117.758c0,0-5.682,2.109-9.832,3.08c-1.102,0.259-2.025,3.314-2.259,5.93
			c-0.232,2.616,2.019,5.175,2.019,5.175l11.527-11.663l-0.155-1.625L82.876,117.758z"/>
		<path fill="#F4C85B" d="M158.216,101.262c19.169,24.839,13.929,46.208,12.765,48.475c-51.074,29.715-93.052,9.189-93.052,9.189
			s0.221-11.749-6.356-30.691C73.476,123.238,150.714,96.401,158.216,101.262z"/>
		<path d="M126.637,106.745c0,0,23.368-6.452,28.996-6.053c4.084,7.26,4.543,14.169,4.543,14.169L126.637,106.745z"/>
		<path fill="#D1AB6F" d="M73.926,122.044l-1.63,4.293l9.03,27.91l6.315,2.4l11.712,14.487c0,0,22.653,7.175,41.998-2.405
			c3.512-1.821,7.607-3.995,7.607-3.995s8.069-4.552,11.715-8.233c3.646-3.686,4.719-8.375,4.719-8.375s2.995-23.484-11.627-45.341
			C149.42,100.021,73.926,122.044,73.926,122.044z"/>
		<path fill="#D1AB6F" d="M110.184,73.241c48.613-49.092,71.376,5.697,72.435,8.964c-42.125,41.929-69.329-0.486-69.329-0.486
			S105.312,78.242,110.184,73.241z"/>
		<path fill="#31738B" d="M131.163,58.101c0,0-5.751,21.211,1.439,38.245c-10.903-4.15-19.313-14.627-19.313-14.627
			s-8.35-4.015-2.476-8.743C117.308,65.685,131.163,58.101,131.163,58.101z"/>
		<path fill="#D1AB6F" d="M49.022,85.373c15.222-41.4,36.473-13.709,38.96-12.662c4.022,4.188-1.221,7.206-1.221,7.206
			S71.173,106.265,49.022,85.373z"/>
		<path fill="#31738B" d="M59.078,68.369l4.169,23.794c0,0-7.891-1.538-14.225-6.79C53.324,74.006,59.078,68.369,59.078,68.369z"/>
		<path fill="#333333" d="M171.418,15.356l30.386,38.033c0,0,5.037,11.521,3.51,19.762c-0.62,2.978-5.244,3.021-5.244,3.021
			s-1.842-11.266-2.467-15.474c-0.63-4.202-33.077-27.784-33.709-28.259c-0.631-0.479,1.953-16.2,1.953-16.2L171.418,15.356z"/>
		<path fill="#4D4D4D" d="M172.53,16.746l27.536,34.466l2.57,4.296l2.183,7.497c0,0,1.66,8.369,0.494,10.146
			c-1.158,1.789-3.521,2.488-3.521,2.488l-2.307-17.578l-32.179-26.28L172.53,16.746z"/>
		<path fill="#1A1A1A" d="M98.893,29.759c6.931-6.025,16.208-2.271,16.208-2.271s10.872,0.912,1.343-4.321
			c-9.53-5.229-19.318,3.081-19.318,3.081S58.729,44.631,60.038,48.689c5.058,7.292,27.273,2.646,29.395,0.398
			C95.918,44.732,97.79,31.093,98.893,29.759z"/>
		<path fill="#1A1A1A" d="M172.634,17.5c0,0,1.367,5.866,0.207,8.121c-0.791,1.037-3.393,1.285-3.393,1.285
			s-1.566,14.221-3.487,17.872c-12.499,8.437-42.581-0.199-42.581-0.199s42.633-21.8,42.64-21.701
			C166.028,22.983,172.634,17.5,172.634,17.5z"/>
		<path fill="#333333" d="M56.757,26.649c0.624,0.195,41.649-14.281,45.636-9.115c3.909-1.8,13.577-3.128,15.39-2.676
			c0.675-2.861,3.96-4.552,8.588-5.473c18.062-0.762,41.661,0.278,43.796,2.12c3.593,3.473,2.423,11.354,2.423,11.354l-4.908,1.893
			c0,0-2.515,17.659-5.075,20.522c-2.563,2.862-40.228,1.939-44.804-2.146c-4.573-4.084-3.583-18.78-3.583-18.78
			s-6.439-4.352-16.977,3.201c-1.641,2.508-3.062,14.746-8.664,18.667c-5.774,2.77-22.342,3.881-29.058,3.722
			c-1.797-0.037-2.98-1.789-2.98-1.789s-2.304-7.05,2.581-16.189c-0.819,0.222-4.336,1.355-3.862-0.246
			C55.73,30.12,56.757,26.649,56.757,26.649z"/>
		<path stroke="#1A1A1A" stroke-miterlimit="10" d="M124.086,17.031c-1.211,0-1.029,3.315-1.029,3.315s-0.19,10.858,0.089,15.567
			c0.322,6.766,35.227,6.627,36.488,3.533c1.266-3.095,3.283-20.754,2.269-21.197C160.888,17.811,152.064,12.844,124.086,17.031z"/>
		<path stroke="#1A1A1A" stroke-miterlimit="10" d="M63.228,30.934c5.529-2.677,26.085-6.857,27.481-6.724
			c1.401,0.132,0.607,1.477,0.607,1.477s-2.462,11.567-3.815,13.238c-5.709,3.731-24.853,6.077-26.33,5.467s-1.12-3.227-1.12-3.227
			S61.003,33.958,63.228,30.934z"/>
		<path stroke="#000000" stroke-miterlimit="10" d="M117.407,37.133c0,0-1.535,6.917,2.371,13.28
			c7.023,2.021,8.525,0.972,18.596-0.088c12.778-1.339,29.088-2.772,37.735,7.21c1.129-2.3,2.323-4.251,2.667-7.006
			c-8.161-18.808-31.59-15.384-47.057-13.081C124.094,38.58,117.407,37.133,117.407,37.133z"/>
		<path stroke="#000000" stroke-miterlimit="10" d="M85.179,38.895c6.127,3.5,8.168,11.303,8.253,13.46
			c-22.029-0.336-42.788,8.389-42.788,8.389s-1.882-4.284,2.475-8.545C57.473,47.932,79.049,35.393,85.179,38.895z"/>
		<path fill="#B28646" d="M145.933,137.839c1.019-0.396,4.588,7.264,7.381,7.293c5.832,0.069,12.174-7.011,12.174-7.011
			l-0.095,10.005c0,0,0.21,4.62-7.512,11.033c-3.276,2.722-8.745,5.483-15.035,8.817c-21.102,11.168-43.492,3.158-43.492,3.158
			l-11.712-14.487l-6.315-2.4l-4.012-12.405c0,0,3.753,8.32,5.222,9.038c1.466,0.711,5.953-0.4,7.243,0.16
			c2.737,1.198,7.482,10.039,10.205,11.907c2.723,1.872,23.211,4.405,38.357-4.969C140.427,154.294,142.796,139.056,145.933,137.839
			z"/>
		<path d="M123.99,66.859c0,0-4.012,3.561-3.669,9.643c0.424,0.539,1.011,0.658,1.65,0.532c0.27,1.605,1.034,3.865,3.997,7.907
			L123.99,66.859z"/>
		<path fill="#D7DADD" d="M167.133,70.033c1.698,9.889-4.952,18.527-4.952,18.527l-18.955,5.328c0,0-8.085,0.242-12.899-4.305
			c-8.983-7.496-7.365-15.035-7.365-15.035l35.528-12.304C158.489,62.245,165.593,64.878,167.133,70.033z"/>
		<path d="M59.054,67.182c-5.079,5.156-4.646,9.239-4.664,10.696c-0.02,1.457,0.937,0.357,0.937,0.357s0.236,2.36,1.715,3.983
			c1.476,1.623,1.937-9.003,1.937-9.003S61.528,63.664,59.054,67.182z"/>
		<path fill="#D7DADD" d="M57.035,73.761c-2.384,10.802,3.831,13.225,3.831,13.225l21.97-4.67c0,0,4.438-8.522-2.759-13.62
			C74.291,64.861,58.124,69.825,57.035,73.761z"/>
		<g>
			<g>
				<path d="M162.669,80.667c-1.41,6.173-7.559,10.032-13.735,8.619c-6.175-1.411-10.035-7.56-8.622-13.736
					c1.411-6.177,7.563-10.035,13.736-8.623C160.226,68.342,164.082,74.488,162.669,80.667z"/>
				<path fill="#31738B" d="M159.263,79.881c-0.78,3.413-4.175,5.546-7.585,4.765c-3.413-0.779-5.54-4.178-4.763-7.589
					c0.782-3.405,4.177-5.539,7.587-4.753C157.912,73.08,160.04,76.479,159.263,79.881z"/>
				<path fill="#D7DADD" d="M165.792,73.563c-0.78,3.413-4.176,5.545-7.585,4.764c-3.411-0.779-5.54-4.178-4.761-7.587
					c0.78-3.407,4.172-5.54,7.585-4.755C164.441,66.76,166.571,70.16,165.792,73.563z"/>
				<path d="M156.669,78.686c-0.321,2.855-2.896,4.917-5.754,4.598c-2.858-0.319-4.915-2.894-4.6-5.756
					c0.319-2.856,2.895-4.916,5.754-4.596C154.924,73.254,156.986,75.824,156.669,78.686z"/>
				<path fill="#D7DADD" d="M155.054,76.672c-0.275,1.223-1.492,1.979-2.714,1.702c-1.218-0.277-1.985-1.494-1.701-2.714
					c0.276-1.226,1.493-1.985,2.711-1.707C154.572,74.232,155.332,75.446,155.054,76.672z"/>
			</g>
		</g>
		<g>
			<g>
				<path d="M82.037,76.777c-0.262,3.999-3.715,7.026-7.712,6.764s-7.023-3.713-6.763-7.717c0.264-3.994,3.719-7.019,7.712-6.759
					C79.273,69.323,82.302,72.782,82.037,76.777z"/>
				<path fill="#31738B" d="M79.829,76.634c-0.145,2.206-2.051,3.881-4.256,3.734c-2.208-0.148-3.879-2.052-3.735-4.261
					c0.144-2.208,2.054-3.876,4.259-3.731C78.302,72.521,79.975,74.426,79.829,76.634z"/>
				<path fill="#D7DADD" d="M83.274,72.035c-0.146,2.204-2.051,3.876-4.258,3.732c-2.208-0.146-3.879-2.051-3.735-4.259
					c0.147-2.205,2.053-3.878,4.26-3.735C81.748,67.921,83.416,69.827,83.274,72.035z"/>
				<path d="M78.09,76.146c0.086,1.818-1.313,3.361-3.133,3.446c-1.811,0.089-3.355-1.312-3.447-3.134
					c-0.088-1.812,1.316-3.355,3.133-3.445C76.459,72.926,78,74.329,78.09,76.146z"/>
				<path fill="#D7DADD" d="M76.88,75.045c-0.054,0.792-0.731,1.39-1.524,1.338c-0.788-0.049-1.385-0.736-1.333-1.521
					c0.049-0.79,0.734-1.393,1.521-1.336C76.335,73.576,76.935,74.26,76.88,75.045z"/>
			</g>
		</g>
		<path d="M166.559,64.64c4.422,3.642,3.929,8.215,3.79,9.029c-0.847,2.383-18.894-9.729-38.263-2.331
			C146.565,61.372,163.702,63.104,166.559,64.64z"/>
		<path fill="#D1AB6F" d="M121.536,75.04c0.064-0.062-0.284,1.059,1.326,0.506c5.218-1.795,11.916-6.913,22.306-7.496
			c11.396-0.825,24.361,6.317,24.084,4.049c-0.275-2.267,0.461-5.596-6.606-11.167c-3.933-3.013-29.548-4.713-34.814-0.041
			C122.56,65.562,121.536,75.04,121.536,75.04z"/>
		<path d="M164.363,85.11c0,0,1.378,0.445,0.747,1.336c-0.636,0.887-2.651,1.381-2.651,1.381L164.363,85.11z"/>
		<path d="M49.022,85.373C63.93,44.99,85.466,70.57,85.466,70.57S64.246,50.868,49.022,85.373z"/>
		<path d="M78.643,64.138c0,0,6.077,1.951,7.792,6.61c0,0,0.01,1.971-1.643,1.592c-4.812-1.908-13.623-1-13.623-1L78.643,64.138z"/>
		<path fill="#D1AB6F" d="M58.548,67.79c-0.689,1.087-3.416,5.186-2.71,8.705c13.226-5.474,21.779-6.635,27.286-5.842
			c0.971,0.14,1.823-1.096,1.229-1.886C79.353,62.113,66.077,58.275,58.548,67.79z"/>
		<path d="M49.022,85.373c22.599,20.921,37.809-5.503,37.809-5.503S69.265,102.393,49.022,85.373z"/>
		<path fill="#D1AB6F" d="M58.236,84.687c1.295-1.121,21.641,0.77,27.003-5.075c0.955,5.736-8.765,17.953-24.234,11.166
			C59.559,89.745,56.938,85.804,58.236,84.687z"/>
		<path d="M136.654,118.935c-2.873,8.302-1.727,12.071-4.508,17.197c-2.275,4.187,1.455-15.771,1.455-15.771
			S132.404,119.794,136.654,118.935z"/>
		<polygon fill="#3F0306" points="93.965,136.759 96.904,143.765 125.838,139.586 131.746,132.588 134.255,120.243 		"/>
		<path fill="#31738B" d="M93.916,135.573c0,0,2.18,5.006,2.329,7.583c-3.814-5.499-7.416-7.567-7.416-7.567L93.916,135.573z"/>
		<path fill="#B28646" d="M86.782,130.566c0,0,8.381,7.544,9.463,12.59c0.499,1.1,0.443,0.062,1.091-0.528
			c-1.091-6.17-8.528-12.142-8.528-12.142L86.782,130.566z"/>
		<path d="M80.774,131.365c0.601-1.573,1.251-1.903,1.251-1.903s-1.205-1.152-0.936-3.242
			C79.203,129.099,80.305,130.48,80.774,131.365z"/>
		<path d="M138.547,119.834c-1.122-0.51-2.908-0.132-2.908-0.132l-0.028-1.61c0,0-0.996-1.067-2.011-1.629
			C136.426,115.259,138.265,118.499,138.547,119.834z"/>
		<path fill="#B89656" d="M77.314,141.842L73.1,128.818l1.804-4.953l15.875-4.807c0,0,6.793,0.979,9.652-0.44
			c2.872-1.424,5.837-3.79,9.492-4.711c3.663-0.919,27.613-7.409,32.124-3.165c3.088,5.182,3.605,14.561,1.796,12.451
			c-2.831-1.077-1.731-1.978-2.938-5.117c-1.207-3.141-5.312-4.597-5.312-4.597s-5.496,6.294-8.107,6.021
			c-11.201,0.614-16.688-5.273-25.756,0.017c-2.011,1.562-3.147,0.828-3.147,0.828s-2.019-0.027-2.256,0.071
			c-6.779-0.506-9.579,2.751-10.287,3.555c-3.616,2.786-6.011,4.477-6.011,4.477l-1.043,9.663L77.314,141.842z"/>
		<path d="M120.396,135.434c6.001-4.564,10.366-4.217,10.937-2.711c1.092,2.593-4.134,6.987-4.134,6.987s-9.691,5.139-10.526,5.515
			c-0.84,0.373-4.655,0.413-4.655,0.413s-0.825-2.565-0.613-2.591C111.619,143.021,113.787,135.597,120.396,135.434z"/>
		<path fill="#8D1516" d="M113.469,142.765c-0.106-4.233,5.695-6.446,5.848-6.057c-0.828,0.875-0.739,2.387-0.739,2.387
			s4.389-5.462,8.98-5.809c1.317,0.009,2.707-0.589,2.846,1.917C130.54,137.707,113.573,147.002,113.469,142.765z"/>
		<path fill="#C9A9A9" d="M118.707,138.937c0,0,3.774-4.898,8.53-5.612c-3.269,1.222-7.438,6.542-8.016,7.216
			c-2.974,1.814-5.52,0.697-5.292,0.072c0.22-0.626,2.468-3.812,5.387-3.904C118.376,137.987,118.707,138.937,118.707,138.937z"/>
		<path d="M81.375,129.792c0,0,0,0,2.417,0.09c3.984,0.139,3.859,7.708,15.599,8.563C88.766,140.282,81.375,129.792,81.375,129.792z
			"/>
		<path fill="#D7DADD" d="M83.515,130.604c8.036,9.421,16.312,7.674,16.312,7.674s12.095,2.32,26.271-6.71
			c-0.064-6.246,2.579-2.63,2.579-2.63s3.934-1.765,4.639-3.62c0.707-1.86,2.285-6.007,2.285-6.007s-4.333,3.716-15.521,6.126
			C100.254,130.969,83.515,130.604,83.515,130.604z"/>
		<path fill="#B28646" d="M81.375,129.792c0,0,2.001-0.896,3.317-2.29c2.838-3.002,7.074-7.581,13.541-5.334
			c1.117,0.558,1.864-0.337,2.254-0.589c7.465-6.462,15.198-0.188,23.577-0.155c7.006,0.027,12.404-3.346,12.404-3.346
			s-0.769,2.08-5.813,4.298c-23.512,8.637-42.11,8.613-47.141,8.229C81.968,130.589,81.375,129.792,81.375,129.792z"/>
		<path fill="#31738B" d="M107.159,149.638c9.185,1.525,16.339-2.558,19.784-5.187c5.236-3.989,5.291-8.586,5.255-8.487
			c-0.025,0.077-7.558,4.069-15.297,6.516C108.114,145.253,98.884,146.476,107.159,149.638z"/>
		<path fill="#B28646" d="M96.245,143.156c0,0,1.165-0.815,3.306-1.035c0.345-0.036,3.03,0.101,5.941-0.228
			c4.539-0.504,9.717-0.654,11.804-1.958c5.821-3.649,10.934-4.295,14.221-8.323c1.406-6.922,4.37-12.969,4.37-12.969
			s-2.86,8.424-2.938,12.406c-0.079,4.146-1.267,9.347-7.261,12.081c-11.944,8.581-20.062,7.234-24.843,4.471
			C97.208,145.503,96.245,143.156,96.245,143.156z"/>
		<path fill="#B0B4B7" d="M97.336,142.628c0,0,11.334,2.01,17.151-1.566c-2.195,0.873-9.386,0.758-13.642,0.929
			C98.07,142.1,97.334,142.628,97.336,142.628z"/>
		<path d="M96.939,133.578c1.182,2.38,2.887,4.7,2.887,4.7l-0.936,0.354C98.891,138.633,95.822,134.022,96.939,133.578z"/>
		<path d="M136.469,118.078c-1.485,5.993-25.218,9.916-25.218,9.916S132.251,123.335,136.469,118.078z"/>
		<path d="M81.525,129.951c0.25,0.187,3.892,1.022,9.181,0.71c-3.196,1.062-7.249,0.716-7.249,0.716L81.525,129.951z"/>
		<path d="M109.476,74.075c49.938-51.84,73.143,8.13,73.143,8.13S162.682,29.579,109.476,74.075z"/>
		<path d="M182.618,82.205c-42.051,41.755-69.329-0.486-69.329-0.486S140.904,118.076,182.618,82.205z"/>
		<path d="M94.743,75.957c8.231-0.108,13.27,13.468,13.832,14.735c7.931-2.696,19.02,10.55,1.321,18.064
			c-8.692,14.789-24.043,6.222-25.547,3.41c-10.175,0.966-9.039-9.946-4.064-13.146C80.285,99.021,81.259,75.778,94.743,75.957z"/>
		<path fill="#D1AB6F" d="M92.693,78.526c-5.342-0.084-10.619,15.035-9.764,21.878c-7.266,5.457-0.865,10.656,2.546,9.192
			c2.206,3.693,13.829,10.064,23.417-2.988c13.653-5.072,5.598-15.423-1.777-12.625C105.768,91.024,100.724,77.903,92.693,78.526z"
			/>
		<path d="M106.97,104.604c0.202-0.128,2.982-5.971,5.948-2.558c0.778,1.354-1.912,1.617-3.934,1.92
			C107.923,104.13,106.97,104.604,106.97,104.604z"/>
		<path d="M81.897,108.206c0.617,1.71,1.962-0.221,3.214-0.45C84.739,107.004,81.276,106.498,81.897,108.206z"/>
		<path fill="#31738B" d="M81.802,101.353l1.841,1.576c0,0-3.322,0.263-4.017,3.001C79.351,103.528,81.802,101.353,81.802,101.353z"
			/>
		<polygon points="82.93,100.404 83.643,102.929 81.802,101.353 82.26,100.155 		"/>
		<path fill="#B0B4B7" d="M92.693,78.526c8.278-1.053,14.422,15.457,14.422,15.457s3.44-1.459,6.603,0.785
			c-4.17-1.25-8.284,1.353-8.284,1.353C105.949,97.724,100.901,81.042,92.693,78.526z"/>
		<path fill="#31738B" d="M108.893,106.608c0,0-6.309,4.129-13.68,4.775c-4.825,0.631-9.737-1.787-9.737-1.787
			s4.106,5.566,11.425,4.788C104.213,113.609,108.893,106.608,108.893,106.608z"/>
		<polygon fill="#31738B" points="76.412,139.06 84.833,155.583 81.326,154.247 		"/>
		<path fill="#B0B4B7" d="M83.564,128.49c0,0,6.591-9.872,15.894-6.166c8.689-7.843,18.099-1.484,21.353-1.191
			c3.254,0.291-17.17-4.13-21.545,3.72C92.074,120.625,83.564,128.49,83.564,128.49z"/>
		<path fill="#B0B4B7" d="M125.467,63.881c0,0-0.854,4.817,1.753,7.098c2.877-0.764,3.652,0.829,2.599,1.399
			c-3.021,1.373-6.956,3.168-6.956,3.168s-1.77,1.002-1.118-1.873C122.896,66.899,125.467,63.881,125.467,63.881z"/>
		<path fill="#31738B" d="M165.074,63.043c4.808,4.471,4.14,8.623,4.14,8.623c0.23,1.516-1.382,0.783-1.382,0.783l-3.555-1.003
			c0,0,2.904-0.111,2.855-1.413C167.084,68.72,167.504,67.755,165.074,63.043z"/>
		<path fill="#D1AB6F" d="M124.954,85.6c21.445,29.406,40.156,0.847,40.156,0.847S153.833,95.069,124.954,85.6z"/>
		<path d="M124.954,85.6c0,0,10.093,5.221,21.819,4.345C134.524,88.91,124.954,85.6,124.954,85.6z"/>
		<path fill="#4D4D4D" d="M124.601,18.226c19.421-2.675,27.768-1.323,27.768-1.323l-28.859,13.991l0.026-11.132
			C123.535,19.762,123.282,18.677,124.601,18.226z"/>
		<path fill="#4D4D4D" d="M63.777,32.355c-1.089,1.229-2.6,7.026-2.6,7.026l19.69-11.846C80.868,27.536,67.304,30.199,63.777,32.355
			z"/>
		<path fill="#4D4D4D" d="M117.782,14.858c1.948-1.55,4.996-4.335,9.738-4.302c10.953,0.062,27.59-0.995,36.335-0.394
			c-3.697-1.407-37.485-0.777-37.485-0.777S118.413,11.029,117.782,14.858z"/>
		<path fill="#4D4D4D" d="M102.393,17.534c-5.185-4.571-45.636,9.115-45.636,9.115l-0.527,1.777
			C56.229,28.427,94.951,14.136,102.393,17.534z"/>
		<path fill="#B0B4B7" d="M60.641,65.598c-2.988,7.116-1.225,9.477-1.225,9.477l-3.578,1.421
			C55.838,76.495,54.566,70.779,60.641,65.598z"/>
		<path fill="#31738B" d="M79.776,64.766c0,0,3.717,3.074,3.536,4.421c-0.284,1.011-3.931,1.247-3.931,1.247
			s2.537-0.097,4.111,0.346c0.224-0.144,0.442-0.325,0.655-0.543c0.496-0.495,0.478-1.084,0.17-1.687
			C82.202,66.23,79.776,64.766,79.776,64.766z"/>
		<path d="M187.462,71.833c0,0,5.293,2.406,12.66,7.229c2.265,2.971-1.118,19.042-6.179,16.233
			c-5.059-2.805-8.896-2.313-8.896-2.313l7.892-7.759L187.462,71.833z"/>
		<polygon points="49.394,101.412 53.544,99.354 48.048,95.792 		"/>
		<path d="M97.336,142.628c2.971-1.232,13.682,0.477,17.83-1.897C110.162,141.963,99.292,140.753,97.336,142.628z"/>
	</g>
</g>
</svg>
