<?xml version="1.0" encoding="utf-8"?>
<!-- Generator: Adobe Illustrator 16.2.1, SVG Export Plug-In . SVG Version: 6.00 Build 0)  -->
<!DOCTYPE svg PUBLIC "-//W3C//DTD SVG 1.1//EN" "http://www.w3.org/Graphics/SVG/1.1/DTD/svg11.dtd">
<svg version="1.1" xmlns="http://www.w3.org/2000/svg" xmlns:xlink="http://www.w3.org/1999/xlink" x="0px" y="0px"
	 width="242.942px" height="269.291px" viewBox="0 0 242.942 269.291" enable-background="new 0 0 242.942 269.291"
	 xml:space="preserve">
<g id="Capa_1">
	<path fill="#FFFFFF" d="M121.873,0.152l0.539,111.274l17.4-109.816l-16.335,109.992l33.83-105.656l-32.806,106l49.432-98.894
		l-48.467,99.399l63.812-89.694l-62.938,90.351l76.616-78.29l-75.854,79.078l87.544-64.957l-86.908,65.857l96.31-50.021
		l-95.821,51.013l102.709-33.854L128.562,116.85l106.575-16.857L128.732,117.95l107.818,0.557l-107.818,0.557l106.405,17.956
		l-106.575-16.854l102.374,34.913l-102.709-33.853l95.821,51.011l-96.31-50.018l86.908,65.85l-87.544-64.951l75.854,79.074
		l-76.616-78.286l62.938,90.346l-63.812-89.689l48.467,99.394l-49.432-98.888l32.806,105.994l-33.83-105.651l16.335,109.987
		l-17.4-109.811l-0.539,111.268l-0.543-111.268l-17.398,109.811l16.333-109.987L86.437,231.062l32.804-105.996l-49.432,98.89
		l48.467-99.395l-63.81,89.69l62.936-90.346l-76.616,78.286l75.854-79.074l-87.544,64.951l86.908-65.85l-96.308,50.018
		l95.819-51.011L12.806,155.076l102.374-34.912L8.604,137.02l106.405-17.956L7.193,118.507l107.816-0.557L8.604,99.993
		L115.18,116.85L12.806,81.935l102.709,33.854L19.695,64.775l96.308,50.021L29.095,48.939l87.544,64.957L40.785,34.818l76.616,78.29
		L54.466,22.757l63.81,89.694l-48.467-99.4l49.432,98.895l-32.804-106l33.828,105.656L103.932,1.61l17.398,109.816L121.873,0.152z"
		/>
</g>
<g id="Capa_16">
	<g>
		<g>
			<polygon fill="#D9DADB" points="199.251,232.632 199.251,225.598 44.863,225.598 44.863,232.632 5.541,232.632 20.832,213.367 
				5.541,194.104 25.657,194.104 25.657,187.07 218.274,187.07 218.274,194.104 238.054,194.104 225.822,213.367 238.054,232.632 
							"/>
			<path d="M216.226,189.12v7.033h18.1l-10.931,17.214l10.931,17.214h-33.024v-7.032H42.813v7.032H9.785l13.666-17.214
				L9.785,196.153h17.922v-7.033H216.226 M220.323,185.021h-4.098H27.705h-4.098v4.1v2.935H9.785H1.297l5.277,6.65l11.643,14.664
				L6.574,228.032l-5.277,6.649h8.488h33.028h4.101v-4.101v-2.934h150.288v2.934v4.101h4.099h33.024h7.46l-3.997-6.3l-9.536-15.015
				l9.536-15.016l3.997-6.297h-7.46h-14.002v-2.935V185.021L220.323,185.021z"/>
		</g>
		<polygon fill="#B0B4B7" points="42.813,230.581 42.813,196.153 9.785,196.153 23.451,213.367 9.785,230.581 		"/>
		<polygon fill="#B0B4B7" points="234.325,196.153 201.301,196.153 201.301,230.581 234.325,230.581 223.395,213.367 		"/>
		<polygon points="23.561,194.604 23.561,226.069 33.154,232.767 44.344,231.924 30.578,194.604 		"/>
		<polygon points="220.336,194.468 220.336,225.93 210.743,232.632 199.555,231.783 213.315,194.468 		"/>
		<polygon fill="#8B8B8B" points="216.226,189.12 216.226,223.549 201.301,230.581 201.163,196.153 		"/>
		<polygon fill="#8B8B8B" points="27.705,189.12 27.705,223.549 42.634,230.581 42.77,196.153 		"/>
		<g>
			<rect x="41.525" y="220.593" fill="#FFFFFF" width="160.758" height="40.697"/>
			<path d="M200.283,222.593v36.697H43.525v-36.697H200.283 M204.283,218.593h-4H43.525h-4v4v36.697v4h4h156.758h4v-4v-36.697
				V218.593L204.283,218.593z"/>
		</g>
		<rect x="27.705" y="189.12" fill="#D9DADB" width="188.521" height="34.429"/>
	</g>
	<path d="M55.394,233.496v11.725c0,0.697-0.043,1.294-0.131,1.788c-0.086,0.494-0.252,0.898-0.496,1.213
		c-0.245,0.313-0.585,0.544-1.021,0.689c-0.437,0.145-1.003,0.218-1.701,0.218h-1.116v-1.675c0.418,0,0.77-0.012,1.056-0.035
		c0.284-0.023,0.514-0.104,0.688-0.243c0.174-0.141,0.299-0.361,0.375-0.664c0.076-0.302,0.113-0.732,0.113-1.291v-11.725H55.394z"
		/>
	<path d="M60.44,245.221l-0.783,3.908h-2.229l3.271-15.633h2.308l3.353,15.633h-2.15l-0.839-3.908H60.44z M63.01,243.547l-1.116-6.7
		l-1.117,6.7H63.01z"/>
	<path d="M71.632,241.843l1.785-8.347h2.229L72.3,249.129h-2.375l-3.208-15.633h2.231l1.651,8.375l0.509,3.908L71.632,241.843z"/>
	<path d="M77.681,233.496h2.233v15.633h-2.233V233.496z"/>
	<path d="M87.528,241.871h-2.791v5.583h3.908v1.675h-6.142v-15.633h6.142v1.676h-3.908v5.024h2.791V241.871z"/>
	<path d="M96.927,249.129l-2.342-7.258h-1.674v7.258h-2.233v-15.633h2.791c0.978,0,1.788,0.101,2.435,0.302
		c0.646,0.2,1.16,0.484,1.544,0.851c0.384,0.367,0.654,0.808,0.812,1.321c0.156,0.515,0.235,1.086,0.235,1.715
		c0,0.384-0.028,0.73-0.083,1.038s-0.131,0.583-0.224,0.825c-0.094,0.241-0.198,0.454-0.316,0.638
		c-0.115,0.183-0.235,0.338-0.356,0.466c-0.287,0.31-0.614,0.529-0.982,0.664l2.52,7.813H96.927z M92.911,240.196h0.558
		c0.42,0,0.801-0.039,1.143-0.118c0.345-0.078,0.638-0.213,0.882-0.405c0.244-0.191,0.433-0.449,0.566-0.772
		c0.134-0.322,0.201-0.728,0.201-1.216s-0.067-0.896-0.201-1.217c-0.134-0.324-0.322-0.58-0.566-0.772s-0.537-0.328-0.882-0.406
		c-0.342-0.079-0.723-0.117-1.143-0.117h-0.558V240.196z"/>
	<path d="M114.778,243.547v0.557c0,0.698-0.075,1.362-0.227,1.989c-0.151,0.628-0.401,1.178-0.75,1.648
		c-0.35,0.472-0.809,0.847-1.379,1.126s-1.273,0.418-2.111,0.418c-0.836,0-1.54-0.143-2.109-0.426
		c-0.57-0.286-1.03-0.683-1.379-1.191c-0.35-0.509-0.599-1.115-0.751-1.819c-0.15-0.703-0.226-1.474-0.226-2.312v-4.457
		c0-0.838,0.075-1.608,0.226-2.312c0.152-0.703,0.401-1.308,0.751-1.813c0.349-0.506,0.809-0.902,1.379-1.187
		c0.569-0.285,1.273-0.428,2.109-0.428c0.792,0,1.471,0.127,2.038,0.38c0.566,0.253,1.029,0.605,1.386,1.061
		c0.358,0.452,0.622,0.997,0.79,1.635c0.169,0.636,0.253,1.339,0.253,2.106h-2.233c0-0.559-0.037-1.047-0.112-1.466
		c-0.076-0.419-0.201-0.767-0.376-1.047c-0.174-0.279-0.404-0.488-0.688-0.627c-0.286-0.141-0.638-0.21-1.057-0.21
		c-0.418,0-0.77,0.069-1.055,0.21c-0.284,0.139-0.515,0.348-0.689,0.627c-0.175,0.28-0.299,0.628-0.375,1.047
		c-0.075,0.419-0.113,0.907-0.113,1.466v5.582c0,0.42,0.038,0.829,0.113,1.231c0.076,0.4,0.2,0.758,0.375,1.072
		c0.175,0.313,0.405,0.567,0.689,0.759c0.285,0.192,0.637,0.288,1.055,0.288c0.419,0,0.771-0.096,1.057-0.288
		c0.284-0.191,0.515-0.445,0.688-0.759c0.175-0.314,0.3-0.672,0.376-1.072c0.075-0.402,0.112-0.812,0.112-1.231v-0.557H114.778z"/>
	<path d="M122.115,241.871h-2.791v5.583h3.907v1.675h-6.142v-15.633h6.142v1.676h-3.907v5.024h2.791V241.871z"/>
	<path d="M131.512,249.129l-2.34-7.258h-1.675v7.258h-2.233v-15.633h2.791c0.978,0,1.789,0.101,2.435,0.302
		c0.645,0.2,1.159,0.484,1.544,0.851c0.384,0.367,0.653,0.808,0.811,1.321c0.157,0.515,0.235,1.086,0.235,1.715
		c0,0.384-0.027,0.73-0.083,1.038c-0.055,0.308-0.13,0.583-0.223,0.825c-0.094,0.241-0.198,0.454-0.316,0.638
		c-0.116,0.183-0.235,0.338-0.357,0.466c-0.286,0.31-0.614,0.529-0.981,0.664l2.52,7.813H131.512z M127.497,240.196h0.558
		c0.419,0,0.8-0.039,1.143-0.118c0.344-0.078,0.637-0.213,0.882-0.405c0.244-0.191,0.434-0.449,0.566-0.772
		c0.135-0.322,0.201-0.728,0.201-1.216s-0.066-0.896-0.201-1.217c-0.133-0.324-0.322-0.58-0.566-0.772
		c-0.245-0.192-0.538-0.328-0.882-0.406c-0.343-0.079-0.724-0.117-1.143-0.117h-0.558V240.196z"/>
	<path d="M140.026,241.843l1.785-8.347h2.23l-3.348,15.633h-2.375l-3.208-15.633h2.231l1.651,8.375l0.509,3.908L140.026,241.843z"/>
	<path d="M147.415,245.221l-0.784,3.908h-2.23l3.272-15.633h2.308l3.354,15.633h-2.15l-0.839-3.908H147.415z M149.983,243.547
		l-1.116-6.7l-1.117,6.7H149.983z"/>
	<path d="M161.594,249.129l-3.995-10.398v10.398h-2.233v-15.633h1.467l4.116,10.207v-10.207h2.233v15.633H161.594z"/>
	<path d="M173.03,233.496v1.833h-2.791v13.8h-2.233v-13.8h-2.792v-1.833H173.03z"/>
	<path d="M180.088,241.871h-2.792v5.583h3.908v1.675h-6.142v-15.633h6.142v1.676h-3.908v5.024h2.792V241.871z"/>
	<path d="M187.426,249.285c-0.558,0-1.048-0.064-1.473-0.196c-0.425-0.13-0.792-0.305-1.106-0.522
		c-0.313-0.219-0.579-0.466-0.793-0.741c-0.216-0.276-0.394-0.561-0.531-0.851c-0.326-0.675-0.512-1.445-0.559-2.312l2.225-0.56
		c0.023,0.629,0.116,1.187,0.279,1.676c0.069,0.209,0.16,0.414,0.268,0.614c0.107,0.201,0.24,0.38,0.396,0.536
		c0.158,0.158,0.344,0.284,0.556,0.381c0.213,0.096,0.46,0.144,0.738,0.144c1.119,0,1.68-0.559,1.68-1.675
		c0-0.279-0.035-0.539-0.104-0.78c-0.07-0.241-0.175-0.475-0.314-0.698c-0.14-0.225-0.314-0.442-0.523-0.653
		c-0.209-0.214-0.454-0.433-0.733-0.66l-2.791-2.233c-0.284-0.226-0.533-0.483-0.745-0.772c-0.213-0.287-0.389-0.591-0.528-0.911
		c-0.14-0.319-0.242-0.646-0.31-0.977s-0.101-0.659-0.101-0.985c0-0.5,0.085-0.979,0.253-1.436c0.168-0.456,0.416-0.856,0.745-1.203
		c0.328-0.346,0.735-0.621,1.224-0.824c0.489-0.203,1.051-0.306,1.69-0.306c0.559,0,1.051,0.059,1.476,0.175
		c0.425,0.117,0.795,0.27,1.109,0.463c0.315,0.19,0.578,0.409,0.794,0.653c0.215,0.244,0.394,0.491,0.534,0.741
		c0.326,0.599,0.512,1.276,0.558,2.033l-2.232,0.558c-0.024-0.523-0.116-0.988-0.279-1.396c-0.071-0.174-0.16-0.345-0.268-0.51
		c-0.108-0.166-0.239-0.314-0.398-0.445c-0.157-0.13-0.342-0.237-0.554-0.318c-0.214-0.081-0.459-0.122-0.739-0.122
		c-0.292,0-0.544,0.045-0.757,0.135c-0.213,0.091-0.387,0.212-0.523,0.362c-0.139,0.151-0.239,0.328-0.303,0.532
		s-0.096,0.418-0.096,0.646c0,0.386,0.09,0.778,0.271,1.18c0.181,0.403,0.464,0.757,0.85,1.06l2.792,2.232
		c0.354,0.285,0.671,0.597,0.947,0.937c0.277,0.34,0.512,0.696,0.704,1.067c0.191,0.372,0.338,0.753,0.437,1.146
		c0.1,0.393,0.148,0.78,0.148,1.163c0,0.482-0.078,0.943-0.235,1.383c-0.156,0.439-0.396,0.827-0.721,1.164
		c-0.323,0.337-0.729,0.606-1.217,0.807C188.675,249.185,188.096,249.285,187.426,249.285z"/>
	<path d="M55.097,259.013"/>
	<g>
		<path d="M94.012,199.399h0.392l0.242,0.159l0.055,0.174l0.36,0.582l0.273,0.457l0.121,0.311l0.188,0.295l0.108,0.26l0.053,0.156
			l-0.028,0.109l0.028,0.23l0.054,0.135l0.051,0.215l0.204,0.26l0.322,0.266l0.107,0.205l0.066,0.268l0.085,0.281l0.133,0.219
			l0.133,0.416l0.368,0.297l0.079,0.285l-0.055,0.24l-0.229,0.242l-0.109,0.201l-0.659,0.391l-0.446,0.271l-0.32,0.135l-0.133,0.107
			l-0.176,0.176l-0.138,0.053l-0.336,0.08l-0.215,0.162l-0.164,0.055l-0.47,0.283h-0.109l-0.199,0.16l-0.109,0.027l-0.377,0.363
			l-0.147,0.242l-0.026,0.109v0.121l-0.028,0.16l-0.218,0.219l-0.387-0.031l0.023,0.311l-0.023,0.217l-0.109,0.164l-0.083,0.253
			l-0.134,0.162l-0.066,0.163l0.041,0.254l0.109,0.188l0.133,0.029l0.133,0.055h0.164h0.337l0.254,0.121l0.38,0.025l0.311,0.028
			l0.161,0.026h0.104l0.368,0.053l0.375,0.03l0.363-0.055l0.161-0.108l0.055-0.121l0.066-0.138l-0.023-0.104v-0.107l-0.098-0.151
			l-0.107-0.188l-0.108-0.349l0.083-0.34l0.078-0.133l0.109-0.176l0.284-0.133l0.161-0.029h0.173l0.27,0.107l0.164,0.055l0.199,0.23
			l0.109,0.242l0.054,0.712l-0.054,0.121l-0.055,0.325l-0.055,0.339l-0.078,0.212l-0.15,0.108l-0.105,0.176l-0.029,0.161
			l-0.24,0.269l-0.202,0.204l-1.188,0.954l-0.108,0.176l-0.049,0.351l0.079,0.15l0.023,0.242l-0.054,0.217l-0.157,0.227
			l-0.151,0.029l-0.428,0.078l-0.206-0.055l-0.35-0.053l-0.176-0.051l-0.241-0.107l-0.164-0.098l-0.176-0.023l-0.156-0.031
			l-0.219-0.162l-0.254-0.053l-0.458-0.281l-0.149-0.053l-0.242-0.14l-0.285-0.157l-0.242-0.108l-0.388-0.26l-0.379-0.133
			l-0.339-0.163l-0.157-0.024h-0.422l-0.159-0.097l-0.204-0.188l-0.078-0.188l0.023-0.08l0.055-0.202l0.121-0.19l0.325-0.309
			l0.164-0.243l0.023-0.243l0.066-0.201l0.055-0.38v-0.174l-0.023-0.297v-0.175l-0.098-0.078l-0.023-0.242l0.145-0.084l-0.078-0.174
			l0.055-0.27l-0.031-0.162l-0.119-0.307l0.119-0.135l0.031-0.107v-0.109l-0.031-0.447l0.031-0.109v-0.887l-0.031-0.188v-0.254
			l-0.023-0.381l0.023-0.256l-0.023-0.293l0.023-0.207l0.031-0.133l-0.055-0.107l-0.066-0.496l-0.029-0.312l0.029-0.215
			l-0.109-0.324l-0.083-0.121l-0.297-0.217l-0.091-0.104l-0.03-0.139l0.03-0.256l0.174-0.242l0.377-0.148l0.579-0.08l0.309-0.084
			l0.109-0.049l0.162-0.029l1.16-0.338l0.176-0.08h0.133l0.078-0.078l0.109-0.137l0.204,0.053l0.266-0.133l0.188-0.15l0.423-0.242
			l0.104-0.053l0.525-0.496l0.085-0.189l0.023-0.203l0.176-0.189L94.012,199.399z M92.191,202.105l-0.078,0.217v0.213l0.05,0.152
			l0.055,0.211l0.054,0.365l0.029,0.137l0.055,0.107l0.023,0.58l0.03,0.105l0.055,0.176l0.048,0.27l-0.078,0.188l0.078,0.258v0.16
			l-0.048,0.162l-0.085,0.283l0.03,0.109l0.024,0.109l-0.024,0.227l0.024,0.137v0.188l0.03,0.133l-0.055,0.258l0.079,0.133
			l0.363-0.471l0.392-0.133l0.055-0.139l0.108-0.053l0.107-0.08l0.158-0.055l0.23-0.391l0.055-0.105l-0.055-0.15l-0.133-0.242
			l-0.055-0.133l-0.043-0.174l-0.187-0.406l-0.393-0.996l-0.104-0.084l-0.271-0.525l-0.055-0.189l-0.339-0.578L92.191,202.105z"/>
		<path d="M103.375,194.507l0.109,0.066l0.32-0.036l0.206,0.036l0.242,0.109l0.228,0.216l0.026,0.215l0.028,0.148v0.133
			l-0.108,0.242l-0.393,0.23l-0.133,0.027l-0.204,0.055l-0.297,0.137l-0.133,0.133l-0.121,0.148l-0.218,0.496l-0.055,0.109v0.109
			l-0.023,0.188l-0.029,0.471v0.312l-0.08,1.818l-0.066,0.791l-0.029,0.137l-0.053,0.203l0.125,0.217l-0.043,0.213l0.146,0.121
			v0.191l0.029,0.213l-0.055,0.203v0.297l-0.078,0.176l-0.098,0.32v0.164l0.055,0.146v0.107l-0.055,0.191l0.146,0.441v0.365
			l0.029,0.27v0.633l-0.078,0.082l-0.072,0.148v0.266l0.029,0.314l-0.029,0.213l-0.104,0.271l0.199,0.025l0.055,0.176v0.191v0.361
			l0.055,0.188l-0.029,0.135v0.555l0.029,0.254l-0.055,0.217l-0.078,0.242l0.049,0.199l0.084,0.299v0.228l0.054,0.162l0.024,0.135
			l0.03,0.259l0.079,0.212l0.055,0.191l0.175,0.093l0.604,0.161l0.272,0.242l0.024,0.109v0.282l-0.188,0.297l-0.389,0.339
			l-0.191,0.134l-0.078,0.199l-0.309,0.055l-0.14,0.108l-0.332,0.393l-0.083,0.188l0.161,0.362l0.146,0.137l0.055,0.268
			l-0.146,0.363l-0.216,0.219l-0.188,0.023l-0.254-0.053l-0.108-0.08h-0.138l-0.081-0.055l-0.254-0.133l-0.192-0.23l-0.211-0.133
			l-0.285-0.164l-0.108-0.133l-0.107-0.15l-0.08-0.023l-0.309-0.218l-0.392-0.164l-0.297-0.145l-0.229-0.084l-0.218-0.104
			l-0.297-0.163l-0.09-0.083l-0.055-0.145l-0.055-0.273l0.133-0.282l0.152-0.133l0.102-0.055l0.273-0.133l0.204-0.394v-0.58
			l0.078-0.158l-0.078-0.138l-0.029-0.176l-0.025-0.133l0.078-0.134l0.055-0.445v-0.188l-0.055-0.34l0.135-0.078v-0.189l0.029-0.201
			l0.023-0.297l0.055-0.164l-0.055-0.145l-0.107-0.055v-0.326l-0.133-0.416l0.029-0.338l0.078-0.242l0.055-0.441l-0.029-0.164
			l0.055-0.605l0.029-0.312v-0.133l-0.084-0.242l0.055-0.15l-0.055-0.107l-0.054-0.713l0.028-0.473v-0.32v-0.205l0.025-0.213
			l0.107-0.258l0.164-0.164l-0.164-0.211l-0.133-0.391l-0.028-0.219l0.028-0.121l-0.028-0.104l0.054-0.139l-0.025-0.387
			l-0.028-0.459l-0.026-0.311l-0.053-1.768l-0.08-0.388l-0.041-0.271l-0.026-0.285l-0.379-0.43l-0.176-0.119l-0.161-0.244
			l-0.055-0.282l0.138-0.243l0.23-0.162l0.429-0.023l0.446,0.049l0.224,0.055l0.301,0.082h0.104l0.501,0.31l0.254,0.188l0.164,0.165
			l0.297,0.307l0.149,0.139l0.156-0.055l0.055-0.137l-0.106-0.176l0.271-0.686l0.149-0.162l0.352-0.5l0.387-0.158l0.242-0.121
			L103.375,194.507z"/>
		<path d="M113.642,195.733l0.5,0.026l0.08,0.028l0.199,0.106l0.272,0.082l0.188,0.217l0.47,0.549l0.312,0.121l0.271,0.031
			l0.36,0.023l0.556,0.055l0.268-0.109l0.229,0.191h0.297h0.284h0.404h0.339l0.16,0.027l0.135-0.055l0.229,0.027h0.605l0.296-0.054
			l0.121,0.054l0.485-0.054h0.391h0.229h0.327l0.441-0.106l0.136-0.068l0.334-0.053l0.273-0.086l0.161-0.078l0.309-0.391
			l0.442-0.188l0.447,0.027l0.295,0.08l0.339,0.254l0.079,0.295v0.395l-0.109,0.392l-0.146,0.243l-0.133,0.023l-0.138,0.137
			l-0.159,0.027l-0.422,0.148l-0.47,0.242l-0.363,0.363l-0.133,0.297l-0.055,0.16v0.146v0.164l-0.031,0.133l-0.05,0.283
			l-0.028,0.271l-0.055,0.389l-0.023,0.904l0.023,0.309l-0.055,0.217v0.229l-0.175,0.107l0.175,0.105l-0.054,0.77l0.054,0.365
			l-0.023,0.363l0.023,0.188l0.031,0.447l0.106,0.375l-0.028,0.176l-0.055,0.162l0.031,0.361l0.102,0.137l-0.102,0.688v0.338
			l0.052,0.295l-0.028,0.338l0.028,0.928l-0.052,0.338l0.078,0.105l0.078,0.055l0.055,0.176l0.029,0.164l0.054,0.215v0.174v0.136
			l0.026,0.108l0.176,0.188l0.052,0.2l-0.106,0.272v0.254l0.055,0.19l0.106,0.213l0.135,0.309l0.338,0.219l0.163,0.055l0.213,0.173
			l0.175,0.135l0.028,0.35l0.025,0.176l-0.08,0.216l-0.254,0.256l-0.634,0.192h-0.164l-0.133,0.103l-0.121,0.085h-0.106
			l-0.136-0.055l-0.216,0.229l-0.204-0.066l-0.242,0.066l-0.363,0.242l-0.108,0.025h-0.158l-0.15,0.109l-0.297,0.084l-0.107,0.023
			l-0.201,0.098l-0.138,0.055l-0.441,0.211l-0.109-0.023l-0.106,0.078l-0.242-0.023l-0.152,0.053l-0.294,0.051l-0.201,0.029
			l-0.514,0.078h-0.199l-0.163,0.068l-0.217,0.027l-0.066-0.174l-0.109,0.055l-0.054,0.172l-0.525,0.055l-0.158-0.029l-0.665-0.025
			l-0.199,0.025l-0.797-0.025l-0.104-0.027l-0.108-0.053l-0.229-0.041l-0.162-0.027l-0.164-0.055l-0.78-0.104l-0.133-0.107
			l-0.472-0.188l-0.554-0.123l-0.026-0.137l-0.138-0.055l-0.32-0.107l0.023-0.105l-0.12,0.053v-0.107l-0.242-0.15l-0.133-0.133
			l-0.363-0.417l-0.337-0.556l-0.055-0.188l-0.217-0.392l-0.055-0.104l-0.159-0.743l0.051-0.688l-0.024-0.308l0.107-0.242
			l0.055-0.417l-0.029-0.162v-0.133l0.162-0.23l0.204-0.244l0.052-0.146l0.053-0.188l0.218-0.352l0.188-0.311l0.176-0.137
			l0.188-0.23l0.138-0.078l0.121-0.162l0.164-0.162l0.348-0.229l0.336-0.105l0.271-0.217l0.121-0.08l0.216-0.205l0.159-0.242
			l-0.267-0.498h-0.339l-0.43-0.213l-0.176-0.256l-0.052-0.299v-0.201l0.078-0.377l0.055-0.096l0.363-0.324l0.312-0.133h0.134
			l0.32-0.055l0.367,0.029l0.188,0.051l0.176,0.137l0.32,0.133l0.162,0.189l0.26,0.094l0.188,0.297v0.162l0.055,0.121l0.052,0.164
			l0.026,0.188l0.176,0.389l0.023,0.107l-0.023,0.418l-0.285,0.445l0.15,0.164l0.025,0.295l-0.025,0.146l0.025,0.246l-0.199,0.156
			l-0.164,0.393l-0.078,0.582l-0.085,0.188l-0.254,0.094l0.055,0.242l0.025,0.297l-0.218,0.285l-0.079,0.213l-0.025,0.311
			l-0.138,0.242l-0.036,0.2l0.066,0.163l-0.066,0.501v0.418l0.036,0.156l0.03,0.325l0.024,0.202l0.083,0.191l0.055,0.157
			l0.188,0.151l0.025,0.134l0.107,0.028l0.151,0.242l0.133,0.055l0.079,0.121l0.191,0.054l0.525,0.134h0.419l0.309-0.079l0.188-0.03
			l0.393-0.229l0.266-0.375l0.163-0.284l0.15-0.024l0.158-0.298l-0.025-0.257v-0.136l0.08-0.445l0.083-0.106l-0.108-0.16
			l0.055-0.284l0.241-0.501v-0.242l-0.216-0.36v-0.109l0.053-0.164l0.03-0.254l-0.03-0.188l0.085-0.445l-0.055-0.266l0.024-0.164
			l0.03-0.23v-0.604v-0.139l0.024-0.107v-0.418v-0.16l0.054-0.312l-0.078-0.387l0.024-0.164l-0.055-0.578l-0.079-0.162l-0.054-0.363
			v-0.109v-0.217l0.163-0.119v-0.189v-0.107l0.055-0.133l-0.03-0.109l0.03-0.121l0.023-0.242l-0.108-0.338v-0.109l-0.055-0.158
			l-0.024-0.137l0.134-0.309l0.03-0.133l-0.14-0.26v-0.213l0.055-0.365l-0.055-0.35l-0.078-0.135l-0.029-0.121l0.029-0.242v-0.109
			l-0.029-0.254l-0.025-0.188l-0.309-0.499l-0.084-0.026l-0.133-0.271l-0.08-0.043l-0.259-0.133l-0.133-0.023l-0.133-0.055
			l-0.109,0.023l-0.176-0.078h-0.216l-0.188,0.055l-0.204-0.084l-0.269,0.029l-0.392-0.084l-0.133,0.055h-0.501l-0.158-0.025h-0.162
			l-0.066-0.134h-0.14l-0.375-0.123l-0.027,0.123l-0.389-0.177l-0.284-0.244l-0.133-0.133l-0.191-0.418l-0.027-0.24l0.027-0.447
			l0.108-0.161l0.083-0.147l0.133-0.107L113.642,195.733z"/>
		<path d="M130.36,199.426h0.163l0.361,0.081l0.419,0.19l0.5,0.309l0.351,0.309l0.199,0.082l0.164,0.213l0.188,0.029l0.083,0.16
			l0.199,0.15l0.501,0.16l0.133,0.109l0.188,0.053l0.109-0.027h0.176l0.271,0.053l0.256,0.055h0.217l0.161,0.121l0.104,0.188v0.217
			l-0.078,0.256l-0.217,0.24l-0.135,0.422l-0.023,0.135l-0.029,0.188v0.887l-0.068,0.447l0.043,0.188l-0.043,0.242l0.068,0.445
			l-0.025,0.637l0.025,0.172v0.686l-0.097,0.217l0.028,0.551v0.26l0.043,0.133l0.133,0.133l0.025,0.109v0.363l-0.025,0.324
			l0.055,0.176l0.055,0.133v0.338l0.023,0.187l0.03,0.526l0.079,0.134l0.163,0.054h0.121l0.133,0.029h0.133h0.192l0.284,0.229v0.375
			l-0.029,0.109l-0.109,0.199l-0.146,0.247l-0.216,0.28l-0.109-0.026l-0.078,0.133l-0.109,0.14l-0.121,0.134l-0.163,0.12
			l-0.024,0.107l-0.108,0.08l-0.188,0.133l-0.122,0.162l-0.028,0.23l0.028,0.108l0.079,0.109l0.147,0.309v-0.109l-0.079,0.514
			l-0.201,0.23l-0.162,0.055l-0.362,0.023l-0.38-0.107l-0.363-0.104l-0.188-0.098l-0.339-0.162v-0.109l-0.658-0.441l-0.137-0.188
			l-0.177-0.14l-0.268-0.254l-0.282-0.188l-0.134-0.191l-0.163-0.122l-0.242-0.078l-0.204,0.024l-0.32,0.205l-0.066,0.162
			l-0.055,0.581l0.309,0.32l0.079,0.309l-0.105,0.314l-0.446,0.158l-0.321,0.053l-0.283-0.023l-0.501-0.188l-0.375-0.152
			l-0.066-0.107l-0.192-0.213l-0.157-0.176l-0.284-0.192l-0.138-0.133l-0.159-0.055l-0.083-0.133l-0.363-0.23l-0.133-0.053h-0.446
			l-0.109-0.055h-0.158l-0.205-0.163l-0.054-0.091l-0.079-0.188l0.079-0.327l0.163-0.199l0.121-0.083l0.216-0.217l0.164-0.256
			l0.078-0.213v-0.107v-0.176l0.098-0.271v-0.242l-0.071-0.149l-0.026-0.351l0.055-0.145l0.066-0.135v-0.217l-0.066-0.133
			l-0.028-0.34l0.028-0.08l0.043-0.135l0.023-0.201l-0.023-0.852l-0.23-0.363v-0.24l0.133-0.176l0.201-0.162l0.107-0.055
			l0.394-0.055l0.428-0.055l0.121,0.031l0.382-0.055l0.107-0.055l0.146-0.027l0.188-0.027h0.337h0.134l0.108-0.025l0.446-0.205
			l0.133-0.109h0.34l0.267-0.188l0.283-0.199l0.217-0.27l0.078-0.418l0.085-0.217v-0.135v-0.119l0.176-0.352l-0.042-0.363
			l-0.055-0.244l-0.133-0.256l-0.446-0.473l-0.188-0.078l-0.164-0.084h-0.254l-0.38-0.213l-0.279-0.082h-0.217l-0.472,0.082
			l-0.471,0.375l-0.109,0.207v0.266v0.285l0.079,0.188l0.138,0.053l0.334-0.107h0.109l0.107,0.055l0.254,0.027l0.351,0.283
			l0.029,0.104l0.025,0.109l0.029,0.271l-0.029,0.445l-0.133,0.258l-0.242,0.24l-0.392,0.188l-0.297,0.055h-0.339l-0.242-0.055
			l-0.254-0.107l-0.271-0.08l-0.363-0.361l-0.162-0.189v-0.162l-0.025-0.109l-0.121-0.055l-0.028-0.307l-0.081-0.312l0.03-0.406
			l0.024-0.133v-0.199l0.121-0.328l0.027-0.229l0.457-0.658l0.066-0.164l0.218-0.174l0.525-0.297l0.188-0.109l0.472-0.133
			l0.271-0.174l0.473-0.162l0.254-0.281l0.028-0.082l0.055-0.188l0.055-0.242l0.332-0.257L130.36,199.426z M131.333,206.512
			l-0.309,0.201l-0.218,0.137l-0.242,0.055h-0.176l-0.242,0.105l-0.173,0.16l-0.14-0.023h-0.157l-0.164,0.145l0.026,0.191
			l0.028,0.189l0.055,0.254l0.078,0.797l0.031,0.133l-0.085,0.201l0.03,0.326l-0.055,0.809v0.295l-0.259,0.256l0.23,0.028
			l0.161,0.024h0.34l0.161,0.03l0.159-0.03l0.524,0.03l0.285,0.053l0.325,0.08l-0.084-0.188l-0.08-0.108l-0.133-2.129l-0.083-0.443
			l0.108-0.273L131.333,206.512z"/>
		<path d="M138.648,199.318h0.217l0.122,0.027h0.103l0.247,0.161l0.158,0.052l0.58,0.502l0.259,0.283l0.104,0.213l0.219,0.162
			l0.173,0.109l0.136,0.023l0.192,0.041l0.223,0.027l0.14,0.029l0.212,0.023l0.126,0.162l0.104,0.162v0.201l-0.054,0.193
			l-0.176,0.266l-0.242,0.311l-0.159,0.553l-0.071,0.188v0.135v0.229v0.27l0.071,0.15l0.026,0.08l0.078,0.242l-0.078,0.256
			l-0.026,0.215l0.214,0.137l-0.024,0.227l-0.055,0.324v0.135l0.024,0.311l-0.024,0.445v0.078l0.024,0.109v0.109l-0.055,0.336v0.133
			l0.03,0.473l0.055,0.135l0.024,0.863l-0.079,0.607l-0.163,0.432l-0.23,0.336l-0.211,0.212l0.023,0.121l0.055,0.108l0.242,0.164
			l0.23,0.024l0.216-0.079l0.389-0.078l0.325,0.157l0.254,0.312l0.525,0.109l0.351,0.053l0.176-0.107l0.079-0.176v-0.138
			l-0.051-0.188l-0.149-0.254l-0.109-0.108l-0.133-0.403l-0.078-1.307l0.023-0.139v-0.309l0.026-0.162l-0.026-0.213l-0.108-0.338
			l0.085-0.688l0.157-0.418l-0.134-0.375l0.134-0.338l-0.055-0.338v-0.133v-0.164v-0.391l-0.024-0.189v-0.471l-0.108-0.35
			l-0.229-0.066l-0.214-0.133l-0.138-0.055l-0.133-0.055l-0.151-0.164l-0.078-0.176l0.023-0.295l0.14-0.229l0.121-0.08l0.162-0.162
			l0.054-0.078l-0.054-0.219l0.188-0.148l0.339-0.053l0.387-0.379l0.109-0.197v-0.139l-0.176-0.242l-0.025-0.146l-0.029-0.297
			l0.176-0.312l0.242-0.159h0.337l0.32,0.159l0.206,0.205l0.242,0.188l0.361,0.416l0.38,0.189l0.146,0.105l0.139,0.086l0.524,0.311
			l0.455,0.051l0.313,0.215l0.055,0.229l-0.031,0.217l-0.106,0.217l-0.109,0.146l-0.176,0.135l-0.188,0.135l-0.213,0.527v0.133
			l-0.053,0.23l-0.03,0.375l-0.041,0.203v0.268v0.107l-0.135,0.205v0.109l0.055,0.16v0.105l-0.079,0.311l0.079,0.217v0.809
			l0.03,0.27l-0.03,0.135l-0.109,0.201l-0.053,0.107v0.24l0.029,0.582h0.133l0.121,0.338l-0.041,0.297l0.071,0.254l-0.03,0.5
			l0.03,0.133l0.023,0.393l0.109,0.215l0.024,0.189l0.054,0.199l0.139,0.271l0.025,0.256l0.027,0.106l-0.053,0.188l-0.326,0.339
			l-0.284,0.055l-0.416,0.161l-0.163,0.026l-0.266,0.106l-0.363,0.026l-0.109,0.176l-0.138,0.106l-0.254,0.085l-0.164,0.134
			l-0.228,0.055l-0.214,0.145l-0.271-0.024l-0.284,0.188l-0.242,0.162l-0.174,0.284l0.028,0.159l0.121,0.216l0.024,0.311
			l-0.079,0.324l-0.259,0.23l-0.158,0.055h-0.107l-0.151,0.023h-0.158l-0.246-0.055l-0.175-0.023h-0.188l-0.134-0.133l-0.206-0.031
			l-0.349-0.199l-0.104-0.055l-0.083-0.109l-0.147-0.055l-0.106-0.053l-0.297-0.201l-0.097-0.053l-0.514-0.272v-0.23l-0.308-0.053
			l-0.055-0.159l-0.212-0.054l-0.176,0.078l-0.163-0.107l-0.471-0.163l-0.218-0.024l-0.176,0.024h-0.188l-0.188-0.091l-0.173-0.188
			l-0.055-0.14l-0.031-0.158l0.055-0.283l0.149-0.161l0.109-0.135l0.32-0.338l0.23-0.337l0.163-0.605l0.024-0.633l-0.055-0.135
			l0.055-0.471l0.03-0.137l-0.03-0.242l-0.024-0.176l0.024-0.109l0.109-0.387l-0.055-0.271l-0.055-0.393v-0.525l-0.024-0.213
			l0.055-1.213l-0.055-0.363l-0.03-0.297l-0.156-0.525l-0.055-0.363l-0.152-0.324l-0.216-0.146l-0.242-0.107l-0.282-0.219
			l-0.104-0.393l0.023-0.158l0.109-0.229l0.164-0.162l0.145-0.133l0.242-0.219l0.446-0.391l0.133-0.189l0.133-0.145v-0.162
			l-0.157-0.447l-0.054-0.268l0.161-0.364L138.648,199.318z"/>
		<path d="M153.266,199.426h0.15l0.296,0.027l0.634,0.311l0.133,0.211l0.254,0.086l0.878,0.658l0.229,0.109l0.405,0.23l0.121,0.051
			l0.162,0.055l0.163,0.055l0.388,0.158l0.339,0.096l0.433,0.297l0.049,0.309l-0.023,0.162l-0.078,0.162l-0.085,0.109l-0.079,0.387
			l0.024,0.164v0.176l-0.107,0.377l-0.052,0.365l0.08,0.416l-0.08,0.297v0.133l0.026,0.176l-0.026,0.135v0.365l-0.053,0.133v0.242
			l0.024,0.176l-0.024,0.326v0.213l0.053,0.121l0.026,0.215l-0.026,0.164l-0.053,0.254l0.079,0.297v0.229l-0.026,0.139l-0.081,0.523
			l-0.068,0.107l0.121,0.082l-0.053,0.107l0.107,0.699l0.054,0.378l-0.054,0.078l0.025,0.176l-0.025,0.138l0.08,0.242l0.245,0.08
			l0.225,0.31v0.106l-0.121,0.206l-0.104,0.156l-0.107,0.055l-0.368,0.083l-0.104,0.055l-0.138,0.081h-0.188l-0.199,0.025
			l-0.192,0.081l-0.213,0.066l-0.524,0.242l-0.285,0.085l-0.501,0.188l-0.104,0.066l-0.607,0.271l-0.214,0.188l-0.108,0.175
			l0.025,0.212l0.133,0.259l0.055,0.322l-0.104,0.217l-0.47,0.309l-0.339-0.023l-0.138-0.055l-0.104-0.029l-0.084-0.08l-0.362-0.23
			l-0.297-0.053l-0.055-0.109l-0.228-0.025l-0.109-0.055l-0.109-0.078l-0.199-0.084l-0.109-0.121l-0.441-0.241l-0.349-0.309
			l-0.72-0.325l-0.199-0.079l-0.163-0.084l-0.133-0.067h-0.109l-0.338-0.157l-0.187-0.055l-0.176-0.243l0.079-0.283l0.338-0.392
			l0.055-0.163l0.107-0.242l0.08-0.309l0.041-0.325l0.03-0.079l0.079-0.621l0.023-0.631l0.14-0.107l-0.163-0.164v-0.391v-0.352
			v-0.119l-0.029-0.162l0.053-0.244l-0.023-0.145l-0.029-0.379l0.107-0.363v-0.164l-0.107-0.188l0.029-0.176l0.078-0.266
			l-0.107-0.109l-0.025-0.258v-0.107v-0.256l0.055-0.133l-0.055-0.164l-0.024-0.188l0.024-0.416l-0.024-0.219l-0.03-0.469
			l-0.146-0.363l-0.163-0.109l-0.162-0.188l-0.054-0.23l0.028-0.08l0.08-0.137l0.053-0.107l0.322-0.146l0.283-0.084l0.242-0.023
			l0.367-0.08l0.159-0.029l0.365-0.109l0.363-0.133l0.605-0.176l0.242-0.215l0.337-0.189l0.242-0.23l0.133-0.24l0.055-0.174
			l-0.024-0.297l0.024-0.109l0.121-0.199l0.218-0.164L153.266,199.426z M152.661,202.268l-0.217,0.08v0.164l0.029,0.121l0.108,0.213
			v0.525l0.024,0.5v0.352l0.028,0.119v0.08v0.139v0.266v0.152v0.133l-0.028,0.215l0.055,0.176v0.43l0.023,0.176l0.03,0.217
			l-0.054,0.242l-0.055,0.283l0.188,0.418v0.107l-0.133,0.352l0.023,0.199l-0.023,0.219l-0.079,0.227l0.053,0.107l-0.053,0.268
			l-0.055,0.527l-0.054,0.338l-0.109,0.241l-0.149,0.309l-0.055,0.138l0.125,0.135l0.399,0.161l0.176,0.026h0.108l0.352,0.095h0.259
			l0.133,0.026l0.551,0.106h0.162l0.284-0.023l0.055-0.204v-0.109l-0.309-0.351l-0.164-0.282l-0.083-0.523l0.029-0.191l0.054-0.686
			l0.026-0.281v-0.162l-0.026-0.078l0.026-0.26l-0.055-0.135l0.028-0.471l0.188-0.188l0.026-0.109l-0.159-0.311l0.026-0.244
			l0.133-0.309l-0.188-0.215v-0.137l-0.055-0.336v-0.523l-0.055-0.215l0.055-0.26v-0.297l0.055-0.188l-0.026-0.254l0.055-0.215
			l0.109-0.23v-0.217l-0.405,0.107l-0.174-0.055l-0.194-0.053l-0.212-0.135l-0.204-0.145l-0.158-0.164l-0.368-0.107L152.661,202.268
			z"/>
	</g>
	<path d="M169.15,201.293l1.488,3.043l3.393,0.525l-2.489,2.324l0.539,3.335l-3.017-1.604l-3.057,1.535l0.617-3.316l-2.43-2.385
		l3.402-0.451L169.15,201.293z"/>
	<path d="M75.987,200.816l1.485,3.041l3.393,0.525l-2.488,2.324l0.54,3.335l-3.019-1.604l-3.057,1.536l0.617-3.321l-2.43-2.381
		l3.404-0.451L75.987,200.816z"/>
</g>
<g id="Capa_15">
	<g>
		<path d="M59.762,145.039l-2.952,14.905l21.749,10.548c0,0,10.527,12.089,16.832,10.538c7.127,6.487,14.638,0,14.638,0
			s8.012,4.406,11.942,0c3.517,5.667,13.06,0,13.06,0s7.879-0.186,9.083-5.507c15.504-2.771,26.128-15.579,26.128-15.579
			l-1.43-17.362L59.762,145.039z"/>
		<g>
			<g>
				<g>
					<g>
						<g>
							<path fill-rule="evenodd" clip-rule="evenodd" d="M58.721,145.868c2.457,4.696,6.346,7.514,8.689,6.285
								c2.335-1.224,2.24-6.021-0.215-10.72c-2.463-4.696-6.351-7.507-8.688-6.284C56.167,136.376,56.259,141.174,58.721,145.868z"
								/>
							<path d="M48.965,149.96c-3.944-9.113,4.84-13.479,4.84-13.479l4.702-1.331l9.8,15.911
								C68.307,151.061,53.824,160.464,48.965,149.96z"/>
							<path fill-rule="evenodd" clip-rule="evenodd" fill="#D1AB6F" d="M59.19,137.934c6.474,1.642,7.141,11.011,7.141,11.011
								s-10.057,6.847-13.959,0.189C48.476,142.478,55.229,138.08,59.19,137.934z"/>
							<path fill="#31738B" d="M64.848,143.239c0.648,5.562-2.545,7.129-5.229,8.566c3.494-0.722,6.713-2.86,6.713-2.86
								S65.974,145.184,64.848,143.239z"/>
						</g>
						<path fill-rule="evenodd" clip-rule="evenodd" fill="#D7DADD" d="M59.19,137.934c0,0-5.235,0.106-7.371,5.211
							c-0.605,2.458,11.678-2.23,10.643-3.393C61.29,138.497,59.19,137.934,59.19,137.934z"/>
					</g>
					<path fill="#D7DADD" d="M100.705,169.923c-43.572-10.992-70.077-55.387-59.078-98.962
						c10.995-43.572,55.393-70.076,98.967-59.08c43.575,10.999,70.073,55.396,59.078,98.97
						C188.676,154.423,144.281,180.925,100.705,169.923z"/>
					<path fill="#333333" d="M118.33,7.113c-39.581,35.391-3.538,158.442-3.538,158.442s66.785,10.914,81.185-62.875
						C210.375,28.885,130.87,1.998,118.33,7.113z"/>
					<path d="M141.196,13.065c42.68,10.771,68.55,54.107,57.78,96.791c-10.773,42.681-54.111,68.546-96.795,57.775
						c-42.683-10.772-68.548-54.102-57.776-96.786C55.176,28.161,98.514,2.292,141.196,13.065 M142.071,9.584
						C97.544-1.655,52.162,25.431,40.924,69.965c-4.843,19.201-12.131,82.846,60.386,101.147
						c44.528,11.24,89.907-15.851,101.148-60.379C213.696,66.199,186.604,20.825,142.071,9.584L142.071,9.584z"/>
					<path fill="#FCFCFC" d="M60.802,98.911c-8.132,10.161-7.393,23.434-5.583,27.63C27.616,86.498,48.586,30.483,96.654,14.817
						C80.319,22.25,46.878,53.708,60.802,98.911z"/>
					<path d="M141.196,13.065c-1.48-0.313-2.932-0.691-4.399-0.978c39.872,10.281,63.93,51.099,53.768,91.374
						c-3.094,13.871-12.258,30.552-28.631,40.866c-5.216,21.551-10.11,7.54-16.271,10.761c-14.187,5.75-30.223,7.217-46.161,3.196
						C60.35,148.4,36.334,109.122,44.722,69.663c-0.109,0.393-0.215,0.784-0.316,1.182c-10.771,42.684,15.094,86.014,57.776,96.786
						c42.684,10.771,86.021-15.094,96.795-57.775C212.265,57.202,176.516,20.544,141.196,13.065z"/>
					<g>
						<g>
							<path fill="#D7DADD" d="M194.721,125.073c1.089-2.57,1.694-5.13,1.864-7.428c-2.043,5.628-4.675,10.904-7.809,15.781
								C191.029,131.619,193.19,128.686,194.721,125.073z"/>
							<path fill="#D7DADD" d="M181.119,119.327c-1.308,3.094-1.93,6.175-1.914,8.805c4.339-5.903,7.497-12.228,9.562-18.3
								C185.938,111.35,183.031,114.807,181.119,119.327z"/>
							<path fill="#333333" d="M193.371,109.301c-1.374-0.581-2.973-0.345-4.604,0.53c-2.065,6.072-5.224,12.397-9.562,18.3
								c0.03,3.419,1.144,6.067,3.265,6.964c1.85,0.78,4.12,0.087,6.307-1.67c3.134-4.877,5.766-10.153,7.809-15.781
								C196.88,113.569,195.771,110.316,193.371,109.301z"/>
						</g>
						<path fill-rule="evenodd" clip-rule="evenodd" d="M195.449,125.845c-2.051,5.086-5.77,8.381-8.309,7.359
							c-2.53-1.023-2.927-5.975-0.873-11.066c2.058-5.091,5.779-8.384,8.314-7.362C197.119,115.8,197.506,120.754,195.449,125.845z"
							/>
						<path d="M205.922,129.06c3.136-9.793-6.365-13.395-6.365-13.395l-13.289,6.472l-0.163,10.035
							C186.104,132.172,201.991,140.385,205.922,129.06z"/>
						<path fill-rule="evenodd" clip-rule="evenodd" fill="#D1AB6F" d="M194.16,117.715c-6.504,2.354-6.241,12.072-6.241,12.072
							s11.066,6.03,14.408-1.23C205.661,121.304,198.254,117.46,194.16,117.715z"/>
						<path fill="#31738B" d="M188.865,123.758c7.18,4.641,13.755,3.109,14.16,2.707c-1.871,10.348-15.106,3.323-15.106,3.323
							S187.912,125.876,188.865,123.758z"/>
					</g>
				</g>
			</g>
		</g>
		<path d="M185.345,74.482c-0.584-0.706-14.229-17.333-16.385-19.731l-0.551-0.609l-0.808-0.151c-0.38-0.07-0.793-0.131-1.227-0.178
			l-0.133,1.202l0,0l0.133-1.202c-12.334-1.363-47.713,6.758-49.214,7.104l-0.759,0.176l-0.518,0.588l-8.98,10.251l-9.77,1.52
			c-0.979-0.727-2.71-1.985-4.698-3.279c-4.317-2.81-7.522-4.297-9.8-4.55l-0.055-0.006l-0.092-0.009l-0.091-0.002
			c-13.993-0.352-26.266,5.472-26.776,5.719l-0.846,0.407l-0.354,0.865l-7.218,17.818l-0.444,1.096l0.591,1.025l9.583,16.554
			l0.574,0.991l1.133,0.185c0.395,0.064,0.803,0.121,1.212,0.164c6.526,0.723,13.529-1.149,17.56-2.517l0.031,5.891l0.009,1.875
			l1.822,0.458l18.68,4.684l0.596,0.149l0.6-0.156l26.969-7.041l2.146-0.561l-0.376-2.186c-0.148-0.881-1.017-3.713-1.948-6.606
			l7.82,5.659l0.609,0.44l0.748,0.019c0.673,0.018,16.672,0.338,36.037-7.583l0.892-0.365l0.399-0.877
			c0.861-1.914,9.781-18.361,13.152-24.536l0.778-1.434L185.345,74.482z"/>
		<path fill="#D7DADD" d="M167.155,56.369c2.15,2.386,16.32,19.649,16.32,19.649s-12.147,22.281-13.24,24.699
			c-19.106,7.818-35.053,7.403-35.053,7.403l-13.88-10.042c0,0,3.913,11.65,4.206,13.353l-26.968,7.042l-18.674-4.685l-0.053-9.371
			c0,0-11.363,4.999-20.781,3.46c-2.002-3.454-9.585-16.554-9.585-16.554l7.22-17.817c0,0,12.104-5.824,25.67-5.481
			c4.481,0.46,14.149,7.974,14.149,7.974l11.656-1.813l9.562-10.911C117.706,63.275,156.334,54.355,167.155,56.369z"/>
		<path fill="#FFFFFF" d="M56.668,73.506c14.678-5.753,25.67-5.481,25.67-5.481l-23.601,9.783l-9.289,13.515
			C49.448,91.323,55.054,76.825,56.668,73.506z"/>
		<path fill="#FFFFFF" d="M117.706,63.275l-9.562,10.911c0,0,16.979-10.792,45.546-17.456
			C141.124,57.371,117.706,63.275,117.706,63.275z"/>
		<path fill="#D7DADD" d="M170.241,146.104c-59.714,46.831-107.888,10.221-107.888,10.221s4.913-18.568,6.874-29.428
			c7.896-2.478,85.564-19.385,89.345-20.549C168.949,119.304,168.354,136.765,170.241,146.104z"/>
		<path fill="#D1AB6F" d="M119.537,111.093c0,0,9.573,0.311,28.474-2.815c3.245-0.535,12.214,6.985,12.812,10.789
			c3.362,21.427,2.211,29.335,2.074,29.632c-0.161,0.348-15.586,12.154-15.586,12.154s-13.212,8.304-31.742,9.639
			c-31.843-0.482-46.529-10.747-46.529-10.747l0.188-32.848L119.537,111.093z"/>
		<path fill="#D1AB6F" d="M163.59,122.231c-0.866,7.86-7.948,13.532-15.81,12.661c-7.865-0.869-13.537-7.951-12.666-15.811
			c0.874-7.865,7.95-13.534,15.817-12.666C158.791,107.286,164.461,114.365,163.59,122.231z"/>
		<path fill="#31738B" d="M149.826,123.399c-14.012,33.503-36.847,26.477-43.757,24.51c-5.352,1.135-9.246-1.298-9.246-1.298
			S144.58,114.298,149.826,123.399z"/>
		<path d="M90.097,136.412c0,0,33.839,5.87,50.404-5.106C157.071,120.326,90.097,136.412,90.097,136.412z"/>
		<path fill="#D7DADD" d="M150.11,119.046c0.48,3.338-8.056,12.255-13.29,14.475c-0.828-2.405-7.415-2.279-7.937,2.408
			c-1.931,0.534-14.412,4.858-38.439,0.863c-3.399-3.42-3.201-10.945-3.896-11.021C85.854,125.694,106.141,132.44,150.11,119.046z"
			/>
		<path fill="#B89656" d="M145.935,126.347c-15.72,29.45-34.323,19.683-38.759,19.842c-4.43,0.158-14.53,1.08-16.935-0.418
			c-4.359-2.714-0.145-9.36-0.145-9.36S130.715,144.354,145.935,126.347z"/>
		<path fill="#B89656" d="M149.732,116.934l0.378,2.112c0,0-34.79,12.949-63.562,6.726
			C84.208,121.618,149.732,116.934,149.732,116.934z"/>
		<path fill="#D1AB6F" d="M82.873,74.735c1.397,0.127,7.127,3.552,7.783,7.412c0.149,1.465-5.607,13.113-20.211,16.51
			c-7.717,2.351-16.438-5.418-16.048-8.935C55.702,75.891,81.476,74.604,82.873,74.735z"/>
		<path fill="#31738B" d="M61.183,80.643c2.616,12.141,7.136,17.561,7.136,17.561s-12.886-0.195-13.893-7.787
			C54.529,85.203,59.469,81.062,61.183,80.643z"/>
		<path d="M54.426,90.417c-0.263-10.724,16.013-15.419,25.661-15.302c7.001,0.083,8.62,3.688,8.62,3.688s-2.514-3.704-13.898-2.33
			C66.854,77.481,55.34,82.191,54.426,90.417z"/>
		<path fill="#D1AB6F" d="M114.609,79.438c19.729-15.481,43.837-11.216,47.658-11.233c3.824-0.019,5.979,4.222,6.544,7.773
			c-4.455,29.486-44.123,23.428-52.065,13.241C115.476,87.68,110.819,82.359,114.609,79.438z"/>
		<g>
			<path d="M98.536,117.449l-0.271-0.069l0.109-0.425l0.162,0.041l1.426-0.373l0.105,0.425L98.536,117.449z M96.561,116.955
				l-1.704-0.427l0.109-0.426l1.704,0.427L96.561,116.955z M101.768,116.605l-0.106-0.425l1.693-0.444l0.112,0.427L101.768,116.605z
				 M93.16,116.1l-1.704-0.428l0.104-0.424l1.704,0.425L93.16,116.1z M105.166,115.72l-0.112-0.428l1.7-0.442l0.111,0.426
				L105.166,115.72z M89.752,115.246l-1.701-0.427l0.109-0.425l1.696,0.426L89.752,115.246z M108.56,114.833l-0.108-0.426
				l1.699-0.443l0.108,0.425L108.56,114.833z M86.347,114.393l-1.704-0.428l0.111-0.426l1.702,0.427L86.347,114.393z
				 M111.958,113.946l-0.111-0.425l1.696-0.444l0.114,0.425L111.958,113.946z M82.946,113.538l-1.704-0.426l0.104-0.427l1.704,0.43
				L82.946,113.538z M115.354,113.058l-0.111-0.424l1.699-0.443l0.108,0.423L115.354,113.058z M118.75,112.171l-0.114-0.423
				l1.7-0.445l0.112,0.424L118.75,112.171z M80.844,111.318l-0.009-1.754l0.436-0.002l0.01,1.755L80.844,111.318z M122.148,111.283
				l-0.113-0.423l1.699-0.444l0.107,0.424L122.148,111.283z M123.409,109.194c-0.156-0.512-0.334-1.074-0.524-1.675l0.423-0.132
				c0.186,0.602,0.365,1.17,0.519,1.68L123.409,109.194z M80.824,107.81l-0.013-1.756l0.44-0.002l0.009,1.757L80.824,107.81z
				 M62.315,107.173c-0.604-0.012-1.199-0.045-1.768-0.101l0.039-0.435c0.557,0.051,1.143,0.084,1.737,0.097L62.315,107.173z
				 M64.082,107.154l-0.019-0.438c0.562-0.025,1.149-0.066,1.738-0.125l0.046,0.437C65.246,107.087,64.656,107.128,64.082,107.154z
				 M135.509,107.131l-0.381-0.274l0.258-0.354l0.265,0.188c0.28-0.001,0.712-0.005,1.277-0.025l0.021,0.438
				c-0.624,0.022-1.091,0.026-1.369,0.026H135.509z M138.703,107.025l-0.023-0.439c0.571-0.034,1.162-0.075,1.744-0.122l0.038,0.436
				C139.871,106.948,139.284,106.99,138.703,107.025z M67.603,106.814l-0.064-0.436c0.563-0.082,1.141-0.179,1.723-0.288l0.08,0.432
				C68.759,106.631,68.172,106.729,67.603,106.814z M142.217,106.739l-0.047-0.436c0.556-0.057,1.134-0.122,1.74-0.195l0.055,0.435
				C143.353,106.617,142.772,106.682,142.217,106.739z M145.705,106.314l-0.056-0.434c0.56-0.079,1.135-0.164,1.732-0.26
				l0.068,0.434C146.853,106.148,146.272,106.235,145.705,106.314z M71.066,106.162l-0.095-0.43c0.55-0.125,1.12-0.265,1.699-0.417
				l0.108,0.424C72.201,105.893,71.622,106.035,71.066,106.162z M59.113,106.038l-0.881-1.519l0.377-0.221l0.881,1.521
				L59.113,106.038z M122.358,105.846c-0.18-0.544-0.36-1.106-0.543-1.67l0.418-0.135c0.187,0.565,0.363,1.126,0.541,1.672
				L122.358,105.846z M133.705,105.828l-1.417-1.029l0.251-0.354l1.423,1.029L133.705,105.828z M149.184,105.763l-0.075-0.433
				c0.56-0.098,1.139-0.204,1.721-0.32l0.085,0.432C150.327,105.556,149.746,105.663,149.184,105.763z M74.479,105.258l-0.128-0.42
				c0.555-0.165,1.114-0.343,1.67-0.528l0.141,0.417C75.6,104.912,75.035,105.092,74.479,105.258z M152.643,105.092l-0.095-0.43
				c0.559-0.118,1.133-0.245,1.711-0.379l0.099,0.427C153.774,104.844,153.204,104.972,152.643,105.092z M156.068,104.3
				l-0.108-0.426c0.559-0.138,1.124-0.283,1.699-0.438l0.107,0.426C157.197,104.014,156.631,104.161,156.068,104.3z M80.803,104.299
				l-0.012-1.729l0.208-0.002l-0.096-0.191l0.329-0.143l0.013,2.062L80.803,104.299z M77.825,104.139l-0.153-0.41
				c0.983-0.367,1.56-0.619,1.563-0.622l0.058-0.023l0.179,0.402l-0.056,0.022C79.41,103.511,78.838,103.763,77.825,104.139z
				 M130.863,103.771l-1.423-1.029l0.258-0.356l1.423,1.028L130.863,103.771z M159.467,103.393l-0.118-0.423
				c0.556-0.158,1.115-0.323,1.678-0.496l0.128,0.419C160.588,103.066,160.021,103.233,159.467,103.393z M57.352,102.999
				l-0.881-1.518l0.383-0.22l0.881,1.52L57.352,102.999z M121.271,102.506c-0.187-0.562-0.371-1.124-0.55-1.668l0.418-0.138
				c0.181,0.546,0.363,1.106,0.549,1.669L121.271,102.506z M162.83,102.368l-0.135-0.417c0.549-0.177,1.107-0.362,1.666-0.554
				l0.142,0.416C163.944,102.002,163.382,102.19,162.83,102.368z M128.018,101.713l-1.418-1.028l0.252-0.357l1.423,1.03
				L128.018,101.713z M166.16,101.228l-0.146-0.412c0.543-0.198,1.091-0.402,1.641-0.612l0.155,0.41
				C167.258,100.823,166.707,101.029,166.16,101.228z M67.465,100.52c-0.168,0-0.329-0.002-0.499-0.008l0.021-0.438
				c0.581,0.023,1.164,0.002,1.722-0.058l0.048,0.436C68.331,100.497,67.899,100.52,67.465,100.52z M65.199,100.321
				c-0.571-0.099-1.151-0.239-1.735-0.411l0.125-0.42c0.564,0.169,1.134,0.303,1.686,0.4L65.199,100.321z M70.509,100.128
				l-0.113-0.427c0.104-0.026,0.2-0.055,0.303-0.083c0.477-0.113,0.943-0.231,1.394-0.359l0.119,0.424
				c-0.461,0.127-0.934,0.249-1.398,0.357C70.719,100.068,70.617,100.098,70.509,100.128z M55.591,99.962l-0.875-1.519l0.377-0.221
				l0.881,1.519L55.591,99.962z M169.551,99.856l-0.389-0.196c0.186-0.385,0.46-0.92,0.799-1.572l0.394,0.202
				C170.014,98.94,169.742,99.471,169.551,99.856z M125.176,99.656l-1.423-1.029l0.258-0.355l1.423,1.028L125.176,99.656z
				 M61.793,99.311c-0.54-0.227-1.078-0.482-1.605-0.766l0.211-0.387c0.512,0.275,1.039,0.527,1.562,0.748L61.793,99.311z
				 M120.166,99.174l-0.557-1.666l0.415-0.14l0.557,1.666L120.166,99.174z M73.898,99.163l-0.143-0.416
				c0.558-0.185,1.107-0.386,1.638-0.597l0.166,0.408C75.017,98.771,74.459,98.976,73.898,99.163z M141.182,99.027l-0.003-0.438
				c0.589-0.004,1.179-0.022,1.748-0.051l0.021,0.438C142.371,99.006,141.776,99.022,141.182,99.027z M139.424,99.007
				c-0.586-0.018-1.173-0.048-1.764-0.09l0.029-0.437c0.585,0.041,1.172,0.071,1.745,0.088L139.424,99.007z M144.708,98.853
				l-0.043-0.435c0.581-0.054,1.163-0.121,1.734-0.199l0.056,0.435C145.88,98.734,145.291,98.801,144.708,98.853z M135.902,98.762
				l-0.117-0.015c-0.538-0.058-1.087-0.128-1.629-0.209l0.063-0.432c0.538,0.078,1.081,0.147,1.612,0.206l0.119,0.014
				L135.902,98.762z M148.2,98.375l-0.077-0.43c0.571-0.105,1.144-0.227,1.709-0.358l0.098,0.428
				C149.364,98.147,148.781,98.269,148.2,98.375z M132.414,98.252c-0.573-0.105-1.153-0.225-1.728-0.352l0.1-0.43
				c0.563,0.127,1.138,0.245,1.711,0.35L132.414,98.252z M77.18,97.861l-0.181-0.397c0.523-0.242,1.05-0.504,1.562-0.775
				l0.208,0.391C78.248,97.353,77.713,97.615,77.18,97.861z M58.666,97.632c-0.488-0.329-0.97-0.682-1.43-1.053l0.282-0.341
				c0.444,0.363,0.915,0.71,1.394,1.028L58.666,97.632z M122.33,97.598l-1.418-1.029l0.254-0.355l1.421,1.029L122.33,97.598z
				 M151.639,97.565l-0.125-0.42c0.563-0.165,1.126-0.344,1.658-0.534l0.15,0.416C152.777,97.219,152.207,97.399,151.639,97.565z
				 M128.974,97.48c-0.571-0.151-1.141-0.316-1.691-0.489l0.124-0.419c0.547,0.171,1.117,0.335,1.68,0.483L128.974,97.48z
				 M53.836,96.924l-0.88-1.518l0.377-0.222l0.88,1.521L53.836,96.924z M171.171,96.734l-0.391-0.204
				c0.26-0.488,0.534-1.007,0.823-1.556l0.391,0.207C171.704,95.729,171.428,96.248,171.171,96.734z M125.603,96.431
				c-0.556-0.202-1.111-0.417-1.645-0.639l0.168-0.405c0.525,0.22,1.074,0.431,1.625,0.631L125.603,96.431z M154.971,96.39
				l-0.172-0.403c0.54-0.227,1.077-0.47,1.584-0.723l0.195,0.392C156.06,95.915,155.521,96.161,154.971,96.39z M80.304,96.208
				l-0.228-0.377c0.498-0.298,0.989-0.615,1.466-0.94l0.251,0.361C81.311,95.582,80.805,95.904,80.304,96.208z M119.047,95.846
				l-0.514-1.541l1.215,0.878l-0.259,0.357l-0.109-0.078l0.087,0.243L119.047,95.846z M55.915,95.396
				c-0.437-0.434-0.838-0.879-1.189-1.324L55.07,93.8c0.34,0.43,0.724,0.862,1.156,1.282L55.915,95.396z M122.345,95.071
				c-0.54-0.262-1.069-0.536-1.567-0.814l0.213-0.383c0.489,0.275,1.008,0.544,1.543,0.802L122.345,95.071z M158.138,94.819
				l-0.219-0.378c0.5-0.294,0.996-0.604,1.47-0.925l0.249,0.36C159.153,94.206,158.647,94.521,158.138,94.819z M83.225,94.217
				l-0.27-0.348c0.456-0.35,0.912-0.721,1.351-1.1l0.291,0.333C84.147,93.486,83.685,93.862,83.225,94.217z M52.075,93.886
				l-0.881-1.518l0.383-0.219l0.881,1.519L52.075,93.886z M172.822,93.63l-0.389-0.207c0.268-0.504,0.546-1.022,0.835-1.551
				l0.382,0.208C173.367,92.608,173.092,93.126,172.822,93.63z M119.258,93.338c-0.508-0.337-0.992-0.688-1.431-1.044l0.274-0.342
				c0.432,0.347,0.903,0.69,1.401,1.021L119.258,93.338z M161.064,92.834l-0.271-0.345c0.449-0.358,0.896-0.738,1.321-1.127
				l0.294,0.323C161.978,92.083,161.522,92.469,161.064,92.834z M53.727,92.585c-0.311-0.579-0.538-1.147-0.655-1.687l0.427-0.097
				c0.107,0.5,0.32,1.027,0.618,1.572L53.727,92.585z M85.901,91.912l-0.308-0.315c0.418-0.406,0.828-0.826,1.219-1.247l0.325,0.297
				C86.741,91.074,86.326,91.5,85.901,91.912z M116.5,91.104c-0.314-0.323-0.613-0.657-0.871-0.993l-0.29-0.347l0.338-0.279
				l0.291,0.352c0.256,0.327,0.537,0.648,0.849,0.959L116.5,91.104z M51.206,90.787l-0.409-0.166l0.661-1.626l0.409,0.165
				L51.206,90.787z M174.48,90.531l-0.382-0.208l0.833-1.548l0.389,0.207L174.48,90.531z M163.673,90.441l-0.321-0.3
				c0.396-0.422,0.775-0.864,1.139-1.312l0.344,0.274C164.463,89.559,164.071,90.01,163.673,90.441z M87.824,89.874l-0.335-0.286
				c0.375-0.44,0.746-0.896,1.092-1.356l0.35,0.265C88.579,88.964,88.203,89.426,87.824,89.874z M53.468,89.138l-0.435-0.059
				c0.08-0.593,0.205-1.18,0.365-1.748l0.426,0.123C53.663,88,53.546,88.564,53.468,89.138z M114.245,88.375
				c-0.368-0.504-0.704-1-0.989-1.473l0.372-0.228c0.281,0.462,0.606,0.947,0.968,1.439L114.245,88.375z M165.889,87.68
				l-0.361-0.249c0.321-0.471,0.635-0.965,0.926-1.469l0.382,0.22C166.532,86.696,166.22,87.199,165.889,87.68z M52.528,87.533
				l-0.408-0.165l0.655-1.626l0.409,0.167L52.528,87.533z M176.155,87.435l-0.39-0.208l0.835-1.546l0.39,0.208L176.155,87.435z
				 M89.953,87.052l-0.364-0.242c0.329-0.504,0.634-1.003,0.9-1.486l0.381,0.212C90.6,86.027,90.294,86.539,89.953,87.052z
				 M54.42,85.842l-0.394-0.185c0.24-0.532,0.528-1.059,0.857-1.562l0.365,0.237C54.938,84.82,54.66,85.326,54.42,85.842z
				 M112.43,85.32c-0.255-0.586-0.446-1.159-0.56-1.706l0.43-0.092c0.11,0.517,0.288,1.063,0.534,1.622L112.43,85.32z
				 M167.666,84.621l-0.395-0.193c0.253-0.513,0.487-1.047,0.712-1.588l0.401,0.165C168.163,83.555,167.924,84.1,167.666,84.621z
				 M177.823,84.343l-0.384-0.209l0.84-1.546l0.381,0.209L177.823,84.343z M53.846,84.28l-0.409-0.165l0.664-1.625l0.405,0.165
				L53.846,84.28z M91.648,83.932l-0.407-0.165c0.267-0.662,0.409-1.213,0.409-1.593l0.437-0.019v0.019
				C92.087,82.617,91.938,83.208,91.648,83.932z M56.285,82.949l-0.335-0.284c0.37-0.439,0.783-0.873,1.228-1.285l0.3,0.32
				C57.048,82.103,56.647,82.523,56.285,82.949z M112.182,81.843l-0.434-0.039l0.009-0.092c0.064-0.592,0.229-1.155,0.491-1.666
				l0.395,0.199c-0.241,0.464-0.392,0.975-0.454,1.516L112.182,81.843z M168.998,81.344l-0.414-0.138
				c0.182-0.543,0.346-1.105,0.502-1.667l0.423,0.112C169.358,80.223,169.184,80.792,168.998,81.344z M179.504,81.252l-0.388-0.21
				l0.837-1.546l0.389,0.21L179.504,81.252z M55.161,81.027l-0.405-0.165l0.661-1.625l0.405,0.165L55.161,81.027z M58.801,80.583
				l-0.267-0.348c0.455-0.347,0.944-0.688,1.457-1.014l0.235,0.368C59.727,79.91,59.248,80.244,58.801,80.583z M91.204,80.558
				c-0.213-0.492-0.496-0.992-0.84-1.485l0.357-0.251c0.361,0.517,0.661,1.043,0.886,1.564L91.204,80.558z M113.667,78.933
				l-0.295-0.327c0.112-0.103,0.233-0.205,0.361-0.301c0.341-0.269,0.686-0.534,1.035-0.792l0.262,0.352
				c-0.344,0.256-0.687,0.519-1.026,0.786C113.884,78.741,113.77,78.836,113.667,78.933z M61.725,78.71l-0.208-0.387
				c0.501-0.273,1.034-0.539,1.58-0.792l0.187,0.399C62.745,78.179,62.219,78.443,61.725,78.71z M181.179,78.161l-0.387-0.21
				l0.845-1.547l0.382,0.209L181.179,78.161z M169.916,77.93l-0.436-0.089c0.115-0.557,0.223-1.135,0.31-1.716l0.021-0.151
				l-0.022-0.152c-0.056-0.345-0.124-0.692-0.201-1.031l0.427-0.099c0.08,0.348,0.148,0.706,0.206,1.061l0.037,0.22l-0.035,0.219
				C170.135,76.78,170.027,77.364,169.916,77.93z M56.479,77.773l-0.406-0.165l0.661-1.625l0.406,0.166L56.479,77.773z
				 M89.271,77.741c-0.383-0.399-0.806-0.8-1.262-1.184l0.287-0.335c0.464,0.396,0.903,0.805,1.296,1.219L89.271,77.741z
				 M96.759,77.404l-0.068-0.432l1.735-0.27l0.065,0.433L96.759,77.404z M64.883,77.237l-0.162-0.405
				c0.527-0.215,1.084-0.423,1.651-0.619l0.144,0.415C65.959,76.821,65.409,77.027,64.883,77.237z M100.229,76.865l-0.066-0.433
				l1.733-0.271l0.067,0.435L100.229,76.865z M116.446,76.844l-0.247-0.361c0.481-0.332,0.972-0.663,1.463-0.98l0.241,0.369
				C117.416,76.187,116.923,76.513,116.446,76.844z M95.092,76.73c-0.44-0.333-0.917-0.682-1.415-1.044l0.26-0.354
				c0.498,0.362,0.977,0.714,1.419,1.046L95.092,76.73z M103.695,76.326l-0.068-0.435l1.736-0.27l0.069,0.434L103.695,76.326z
				 M68.175,76.087l-0.127-0.419l0.142-0.045c0.501-0.149,1.021-0.295,1.556-0.436l0.11,0.424c-0.526,0.138-1.046,0.285-1.539,0.435
				L68.175,76.087z M107.165,75.786l-0.066-0.434l1.569-0.258l0.011,0.011l0.056-0.008l0.009,0.064l0.256,0.221l-0.119,0.136
				L107.165,75.786z M86.63,75.503c-0.491-0.341-0.986-0.648-1.468-0.913l0.21-0.385c0.496,0.273,1.006,0.587,1.51,0.937
				L86.63,75.503z M180.987,75.245l-1.116-1.357l0.341-0.278l1.115,1.356L180.987,75.245z M71.552,75.193l-0.094-0.428
				c0.564-0.128,1.145-0.252,1.723-0.365l0.082,0.429C72.689,74.943,72.117,75.064,71.552,75.193z M119.382,74.947l-0.224-0.376
				c0.498-0.301,1.016-0.598,1.524-0.883l0.213,0.384C120.388,74.354,119.883,74.648,119.382,74.947z M92.244,74.679
				c-0.459-0.322-0.953-0.651-1.451-0.982l0.244-0.366c0.503,0.332,0.99,0.664,1.457,0.985L92.244,74.679z M57.699,74.607
				l-0.068-0.155l-0.235-0.095l0.041-0.115l0.084-0.037c0.331-0.146,0.876-0.383,1.595-0.67l0.162,0.406
				C58.572,74.226,58.026,74.46,57.699,74.607z M74.983,74.516l-0.07-0.432c0.575-0.095,1.158-0.187,1.744-0.267l0.062,0.434
				C76.137,74.333,75.557,74.42,74.983,74.516z M110.157,74.063l-0.332-0.287l1.157-1.321l0.326,0.289L110.157,74.063z
				 M78.452,74.031l-0.049-0.437c0.602-0.067,1.192-0.124,1.756-0.171l0.032,0.438C79.632,73.907,79.05,73.964,78.452,74.031z
				 M83.6,73.889c-0.227-0.073-0.427-0.12-0.6-0.138l-0.038-0.003c-0.15-0.015-0.517-0.015-1.022,0.004l-0.018-0.439
				c0.546-0.022,0.914-0.019,1.083-0.002l0.046,0.003c0.197,0.022,0.426,0.075,0.684,0.158L83.6,73.889z M60.913,73.315l-0.151-0.41
				c0.546-0.2,1.103-0.398,1.662-0.585l0.14,0.415C62.008,72.924,61.454,73.117,60.913,73.315z M122.438,73.248l-0.202-0.389
				c0.522-0.269,1.052-0.532,1.58-0.781l0.189,0.397C123.479,72.723,122.952,72.981,122.438,73.248z M169.099,73.133
				c-0.201-0.553-0.431-1.085-0.689-1.581l0.386-0.203c0.268,0.515,0.511,1.065,0.717,1.634L169.099,73.133z M89.324,72.752
				c-0.521-0.325-1.022-0.629-1.5-0.908l0.22-0.378c0.481,0.28,0.986,0.587,1.509,0.914L89.324,72.752z M178.756,72.529
				l-1.122-1.357l0.341-0.279l1.121,1.358L178.756,72.529z M64.229,72.196L64.1,71.777c0.566-0.174,1.133-0.342,1.688-0.498
				l0.121,0.422C65.354,71.858,64.791,72.023,64.229,72.196z M125.594,71.751l-0.175-0.402c0.533-0.232,1.08-0.459,1.626-0.677
				l0.161,0.407C126.669,71.295,126.125,71.522,125.594,71.751z M112.465,71.424l-0.325-0.288l1.151-1.32l0.33,0.288L112.465,71.424
				z M67.603,71.249l-0.112-0.425c0.571-0.145,1.15-0.283,1.713-0.411l0.095,0.429C68.738,70.969,68.168,71.105,67.603,71.249z
				 M86.293,70.998c-0.558-0.293-1.081-0.55-1.562-0.762l0.175-0.401c0.487,0.216,1.026,0.476,1.592,0.774L86.293,70.998z
				 M71.012,70.481l-0.083-0.43c0.578-0.113,1.161-0.221,1.736-0.314l0.072,0.432C72.165,70.264,71.588,70.369,71.012,70.481z
				 M128.841,70.458l-0.148-0.411c0.547-0.2,1.106-0.395,1.66-0.577l0.14,0.418C129.938,70.067,129.383,70.262,128.841,70.458z
				 M167.508,70.089c-0.357-0.476-0.738-0.902-1.146-1.266l0.289-0.328c0.43,0.385,0.836,0.833,1.209,1.333L167.508,70.089z
				 M74.464,69.91l-0.059-0.436c0.584-0.079,1.176-0.149,1.752-0.208l0.042,0.438C75.632,69.76,75.044,69.83,74.464,69.91z
				 M176.518,69.817l-1.115-1.357l0.337-0.279l1.119,1.356L176.518,69.817z M83.112,69.636c-0.327-0.093-0.622-0.156-0.883-0.186
				c-0.254-0.004-0.528-0.008-0.791-0.009v-0.439c0.276,0.001,0.55,0.005,0.824,0.011c0.301,0.036,0.622,0.103,0.969,0.201
				L83.112,69.636z M77.946,69.552l-0.034-0.437c0.588-0.04,1.178-0.071,1.764-0.089l0.011,0.438
				C79.113,69.481,78.523,69.513,77.946,69.552z M132.164,69.366l-0.125-0.422c0.557-0.164,1.126-0.326,1.694-0.475l0.111,0.423
				C133.282,69.042,132.719,69.201,132.164,69.366z M114.78,68.784l-0.333-0.29l1.159-1.319l0.331,0.289L114.78,68.784z
				 M135.542,68.471l-0.1-0.429c0.568-0.132,1.145-0.259,1.719-0.377l0.087,0.432C136.684,68.21,136.104,68.338,135.542,68.471z
				 M164.972,67.858c-0.511-0.26-1.049-0.442-1.6-0.545l0.08-0.433c0.593,0.11,1.17,0.307,1.713,0.588L164.972,67.858z
				 M138.966,67.766l-0.075-0.432c0.57-0.103,1.159-0.197,1.733-0.285l0.066,0.434C140.118,67.569,139.532,67.665,138.966,67.766z
				 M142.429,67.246l-0.058-0.437c0.576-0.072,1.166-0.138,1.749-0.196l0.044,0.438C143.581,67.107,143,67.173,142.429,67.246z
				 M161.652,67.192c-0.409-0.023-0.925-0.066-1.527-0.114l-0.224-0.017l0.031-0.438l0.213,0.016c0.61,0.05,1.132,0.092,1.533,0.115
				L161.652,67.192z M174.278,67.105l-1.119-1.356l0.338-0.28l1.118,1.357L174.278,67.105z M158.149,66.929
				c-0.545-0.04-1.125-0.076-1.747-0.11l0.025-0.437c0.621,0.034,1.202,0.072,1.75,0.109L158.149,66.929z M145.904,66.899
				l-0.029-0.438c0.578-0.042,1.171-0.08,1.758-0.11l0.02,0.438C147.07,66.818,146.485,66.855,145.904,66.899z M154.652,66.74
				c-0.559-0.02-1.146-0.035-1.754-0.043l0.014-0.44c0.603,0.01,1.191,0.026,1.754,0.045L154.652,66.74z M149.401,66.719
				l-0.014-0.439c0.586-0.017,1.173-0.027,1.763-0.031l0.003,0.439C150.567,66.692,149.982,66.702,149.401,66.719z M117.093,66.145
				l-0.33-0.29l1.158-1.319l0.331,0.288L117.093,66.145z M172.039,64.397c-0.383-0.461-0.755-0.914-1.124-1.354l0.336-0.281
				c0.371,0.44,0.743,0.893,1.128,1.354L172.039,64.397z M119.718,64.288l-0.093-0.43c0.482-0.107,1.058-0.234,1.719-0.377
				l0.092,0.429C120.78,64.054,120.198,64.18,119.718,64.288z M123.153,63.538l-0.089-0.43c0.54-0.114,1.113-0.237,1.72-0.364
				l0.089,0.428C124.272,63.301,123.693,63.422,123.153,63.538z M126.6,62.813l-0.094-0.429c0.556-0.115,1.135-0.234,1.724-0.355
				l0.091,0.431C127.728,62.58,127.154,62.698,126.6,62.813z M130.042,62.111l-0.084-0.429c0.562-0.114,1.134-0.226,1.722-0.343
				l0.086,0.431C131.178,61.886,130.604,62,130.042,62.111z M169.792,61.692c-0.396-0.476-0.771-0.926-1.131-1.35l0.337-0.282
				c0.36,0.424,0.734,0.877,1.131,1.351L169.792,61.692z M133.49,61.435l-0.082-0.429c0.565-0.111,1.145-0.221,1.725-0.331
				l0.08,0.432C134.635,61.216,134.055,61.325,133.49,61.435z M136.946,60.782l-0.087-0.429c0.577-0.106,1.152-0.211,1.736-0.315
				l0.077,0.431C138.09,60.574,137.514,60.678,136.946,60.782z M140.4,60.163l-0.076-0.431c0.574-0.102,1.155-0.201,1.733-0.3
				l0.072,0.433C141.553,59.963,140.974,60.062,140.4,60.163z M143.867,59.576l-0.071-0.433c0.579-0.094,1.154-0.188,1.735-0.279
				l0.068,0.434C145.021,59.388,144.443,59.48,143.867,59.576z M147.334,59.029l-0.066-0.434c0.586-0.088,1.164-0.175,1.745-0.256
				l0.062,0.435C148.495,58.855,147.917,58.94,147.334,59.029z M167.533,58.997c-0.451-0.529-0.826-0.972-1.109-1.3
				c-0.151-0.021-0.312-0.042-0.472-0.06c-0.358-0.039-0.755-0.071-1.173-0.093l0.021-0.438c0.425,0.022,0.832,0.055,1.203,0.096
				c0.191,0.021,0.384,0.045,0.565,0.073l-0.043,0.269l0.198-0.17c0.285,0.331,0.678,0.788,1.147,1.34L167.533,58.997z
				 M150.811,58.533l-0.06-0.435c0.591-0.081,1.168-0.157,1.75-0.229l0.049,0.436C151.979,58.377,151.393,58.452,150.811,58.533z
				 M154.296,58.1l-0.051-0.437c0.595-0.067,1.177-0.13,1.753-0.187l0.04,0.436C155.469,57.969,154.883,58.032,154.296,58.1z
				 M157.79,57.752l-0.041-0.438c0.602-0.051,1.188-0.094,1.759-0.13l0.024,0.438C158.97,57.659,158.382,57.702,157.79,57.752z
				 M161.287,57.536l-0.017-0.438c0.62-0.024,1.21-0.034,1.763-0.034V57.5C162.485,57.5,161.9,57.513,161.287,57.536z"/>
		</g>
		<path fill="#31738B" d="M123.554,74.764c-0.702,6.656,2.526,16.986,4.811,19.972c-2.209,1.257-16.277-6.173-15.095-13.372
			C114.609,79.438,120.062,76.254,123.554,74.764z"/>
		<path fill="#D1AB6F" d="M123.748,80.726c-2.522,3.619-0.554,8.458,3.222,11.303c3.778,2.845,17.334-4.877,17.334-4.877
			S122.732,80.943,123.748,80.726z"/>
		<path d="M123.666,80.853c0,0-1.491,1.87,0.443,4.933c5.273,5.186,15.137,2.367,15.137,2.367L123.666,80.853z"/>
		<path fill="#D7DADD" d="M150.284,72.321c5.242,4.352,2.148,12.531,2.148,12.531s-14.455,7.41-27.195,0.146
			c-1.854-1.654-2.294-6.204,0.5-7.847C133.209,72.761,147.69,71.546,150.284,72.321z"/>
		<path d="M124.454,78.095c13.9-6.18,29.849-6.44,29.849-6.44S131.334,69.18,124.454,78.095z"/>
		<path d="M60.562,86.256c0,0-1.681,3.001-0.529,4.78c4.697,3.472,13.144-0.055,13.144-0.055L60.562,86.256z"/>
		<path fill="#D7DADD" d="M82.243,80.418c1.491,2.124,2.014,5.578,2.014,5.578s-10.368,8.959-23.449,3.66
			c-0.586-1.684-0.6-6.474,2.332-7.559C69.904,79.593,80.136,79.09,82.243,80.418z"/>
		<path d="M61.754,83.089c14.65-5.602,24.859-2.774,24.859-2.774S71.007,74.711,61.754,83.089z"/>
		<g>
			<path d="M153.669,81.127c-1.088,4.787-5.854,7.782-10.642,6.692c-4.781-1.089-7.78-5.852-6.69-10.638
				c1.093-4.787,5.853-7.781,10.639-6.693C151.762,71.578,154.762,76.34,153.669,81.127z"/>
			<path fill="#31738B" d="M151.025,80.525c-0.603,2.643-3.231,4.298-5.876,3.695c-2.639-0.6-4.294-3.231-3.696-5.874
				c0.604-2.642,3.235-4.296,5.876-3.696C149.976,75.254,151.627,77.882,151.025,80.525z"/>
			<path fill="#D7DADD" d="M156.08,75.625c-0.602,2.642-3.229,4.297-5.874,3.694c-2.641-0.602-4.3-3.231-3.695-5.874
				c0.602-2.642,3.23-4.297,5.873-3.696C155.022,70.352,156.686,72.981,156.08,75.625z"/>
			<path d="M149.015,79.597c-0.245,2.216-2.239,3.814-4.453,3.569c-2.219-0.246-3.816-2.239-3.568-4.455
				c0.243-2.215,2.234-3.814,4.454-3.569C147.66,75.387,149.255,77.383,149.015,79.597z"/>
			<path fill="#D7DADD" d="M147.761,78.037c-0.215,0.947-1.153,1.54-2.099,1.324c-0.947-0.215-1.542-1.156-1.324-2.103
				c0.217-0.946,1.155-1.538,2.102-1.323C147.387,76.151,147.981,77.09,147.761,78.037z"/>
		</g>
		<g>
			<path d="M84.61,84.889c-0.903,3.979-4.864,6.47-8.843,5.562c-3.979-0.904-6.472-4.865-5.562-8.843
				c0.903-3.979,4.866-6.468,8.842-5.562C83.026,76.951,85.514,80.911,84.61,84.889z"/>
			<circle fill="#31738B" cx="78.436" cy="83.483" r="4.079"/>
			<circle fill="#D7DADD" cx="82.637" cy="79.41" r="4.078"/>
			<path d="M80.738,83.618c-0.204,1.841-1.859,3.168-3.702,2.964c-1.838-0.204-3.17-1.86-2.964-3.703
				c0.203-1.839,1.859-3.169,3.7-2.965C79.616,80.119,80.939,81.775,80.738,83.618z"/>
			<path fill="#D7DADD" d="M79.698,82.32c-0.174,0.787-0.961,1.279-1.743,1.101c-0.789-0.179-1.282-0.962-1.1-1.749
				c0.176-0.786,0.963-1.277,1.745-1.098C79.39,80.752,79.881,81.534,79.698,82.32z"/>
		</g>
		<path d="M120.256,40.712c-0.192,0.517-6.415,6.873-2.237,10.499c4.179,3.626,37.729-8.86,41.248-8.601
			c3.523,0.257,13.772,5.418,14.084,6.259c0.309,0.84-0.474-4.216-0.474-4.216s-6.097-9.258-13.9-11.336
			C154.787,31.883,120.256,40.712,120.256,40.712z"/>
		<path d="M86.676,59.909c2.003,1.297,0.934,6.145-1.295,6.84c-12.062-2.678-24.593-1.107-24.593-1.107S72.312,57.379,86.676,59.909
			z"/>
		<path d="M100.624,89.762c7.494-0.431,13.608,6.748,13.608,6.748s9.171,0.76,7.545,10.128c-0.146,4.448-4.243,6.184-10.301,6.066
			c-14.523,10.295-26.079,0.812-26.079,0.812s-8.743,0.167-7.74-8.258c0.127-2.144,2.965-5.776,7.409-6.787
			C85.98,97.526,93.125,90.197,100.624,89.762z"/>
		<path fill="#D1AB6F" d="M113.291,98.862c-9.723-11.337-20.985-6.618-27.636,1.716c-10.997,2.363-5.261,13.022,0.388,11.6
			c12.354,9.139,24.426-0.739,25.92-1.291C120.532,113.267,125.344,99.958,113.291,98.862z"/>
		<path fill="#31738B" d="M81.563,110.302c0.495-1.48,4.333-1.254,4.333-1.254s9.689,8.349,23.324,3.446
			c-13.682,8.592-23.178-0.316-23.178-0.316S82.927,112.917,81.563,110.302z"/>
		<path d="M86.973,115.57c0.978,0.244-0.323,2.966-0.323,2.966l3.457,0.383l2.126-2.03l1.994,1.104l6.75,0.625
			c0,0,8.114-1.836,10.646-2.735c2.537-0.896,4.574,0.505,4.574,0.505s0.753-0.523,2.169-1.464c1.423-0.938,2.464,0.272,2.464,0.272
			s0.998,0.154,2.671-1.042c1.676-1.195,3.971,0.439,3.971,0.439s1.43-0.086,2.578-1.297c1.15-1.212,4.639-0.097,4.639-0.097
			s6.168-0.372,7.695,0.851c3.124-0.709,4.448,0.493,4.448,0.493s5.4-0.376,6.856,0.758c2.685,2.123,4.318,7.174,4.709,9.164
			c0.386,1.989-3.826,1.578-3.826,1.578s-0.695-2.506-2.311-4.448c-1.609-1.942-4.135-3.319-4.972-3.47
			c-0.483,1.771-1.595,2.298-4.129,1.617c-3.15-0.03-4.125,1.186-5.862,1.779c-2.866,0.982-5.278-1.364-5.278-1.364
			s-1.485,1.225-2.288,2.23c-0.797,1.01-3.394-0.843-3.394-0.843s-0.896,0.774-1.8,1.973c-0.906,1.199-4.846-1.33-4.846-1.33
			s-1.854,3.43-3.431,3.904c-1.58,0.474-5.151-1.137-5.151-1.137s-2.008,0.876-2.63,1.17c-0.621,0.295-1.122-1.747-1.917-1.916
			c-0.788-0.168-1.19,0.6-2.402,1.923c-1.212,1.325-2.046-0.228-2.046-0.228s-2.299,1.376-3.22,1.598
			c-0.915,0.217-0.481-1.233-1.419-1.135c-0.947,0.098-1.538,0.722-2.774,1.639c-1.236,0.919-2.822-0.149-3.801-0.095
			c-0.982,0.054-0.814-1.465-1.668-1.478c-0.849-0.014-1.188,1.061-2.151,1.25c-0.966,0.187-1.012-1.473-1.339-1.154
			c-0.317,0.323-1.693,1.029-2.438,1.111c-0.745,0.08-0.517-2.003-1.486-2.03c-0.97-0.025-1.922,1.976-1.922,1.976
			s-1.9,1.009-3.49-0.384c-1.298,1.447-4.241,4.969-5.243,4.532c-1.011-0.435-4.351-5.835,2.033-10.729
			c1.511-1.401,2.71-2.832,3.682-3.552c0.973-0.721,6.162-0.68,6.646-0.644C84.006,116.845,86,115.326,86.973,115.57z"/>
		<path d="M152.835,143.893c2.041,2.457-0.292,13.645-0.292,13.645s-4.118,7.901-5.31,10.61c-1.194,2.709-2.568,0.69-2.568,0.69
			l-2.228-0.245c0,0-3.968,5.402-5.756,5.813c-1.789,0.411,0.905-3.429-0.416-3.942c-2.191,4.427-5.614,7.454-7.173,7.604
			c-1.562,0.154-3.572-1.449-4.194-2.776c-0.626-1.327-5.48,0.005-5.48,0.005s-1.534,1.373-2.712,1.404
			c-1.18,0.032-2.049-2.417-2.049-2.417s-9.112,2.806-11.943,2.171c-2.83-0.642-6.845-6.199-6.845-6.199s-0.271,3.187-1.562,3.115
			c-1.284-0.066-6.359,0.311-10.444-5.566c-1.381-0.967-4.738-15.589-4.738-15.589l2.012-1.726l4.787,5.155l8.059-1.301l2.004,2.781
			c0,0,1.711-0.055,2.058,0.103c0.347,0.158,1.613,1.887,1.613,1.887l3.789-2.284c0,0-2.341-4.133-2.307-4.493
			c0.044-0.36-0.786-3.862-0.24-4.412c0.551-0.547,7.158,0.202,7.158,0.202s5.121,1.035,4.923,1.748
			c-0.2,0.704-0.39,3.485-0.456,4.084c-0.066,0.602-1.588,2.259-1.588,2.259l4.343,2.554l2.96-0.305l1.29,1.503
			c0,0,1.597-1.2,1.711-1.169c0.121,0.035,5.824,1.273,5.824,1.273s16.857-9.336,17.193-9.055
			C144.592,151.304,151.596,142.984,152.835,143.893z"/>
		<path d="M112.828,108.227c-0.792-0.253-2.055,1.072-2.584,1.966c-0.434,0.651-0.085,0.77-0.085,0.77s0.909-0.819,1.809-1.016
			C112.853,110.669,114.488,108.95,112.828,108.227z"/>
		<path d="M85.069,111.081c0.25,0.24,0.376,0.504,0.551,0.551c0.318,0.128,0.533-0.041,0.43-0.175
			c0.035-0.016-0.436-0.338-0.728-1.553c-0.355-0.307-0.771,0.015-0.948,0.211C84.002,110.535,84.264,111.317,85.069,111.081z"/>
		<path fill="#B89656" d="M69.105,148.19c-0.004,0.748-0.06,10.325-0.064,10.941c-0.002,0.613,9.909,7.076,13.027,6.368
			c-1.859-4.181-3.319-9.943-3.319-9.943L69.105,148.19z"/>
		<path fill="#B89656" d="M155.414,142.594c1.046,5.474-0.325,12.277-0.325,12.277l7.808-6.172l0.097-10.917
			C162.993,137.782,158.917,141.275,155.414,142.594z"/>
		<path d="M113.291,98.862c0,0,0.675,0.959,0.951,2.837c0.918-1.204,0.412-2.65,0.412-2.65l-1.536-1.205L113.291,98.862z"/>
		<g>
			<path d="M97.1,75.447c0-0.006-0.087-0.636-0.206-1.753l0.436-0.044c0.114,1.105,0.202,1.73,0.202,1.735L97.1,75.447z
				 M96.729,71.942c-0.048-0.533-0.096-1.118-0.135-1.753l0.434-0.031c0.047,0.632,0.089,1.216,0.138,1.748L96.729,71.942z
				 M96.485,68.432c-0.028-0.559-0.059-1.145-0.083-1.757l0.437-0.016c0.03,0.609,0.055,1.192,0.085,1.75L96.485,68.432z
				 M96.346,64.918c-0.014-0.571-0.023-1.158-0.027-1.758l0.437-0.005c0.004,0.601,0.016,1.185,0.031,1.753L96.346,64.918z
				 M96.748,61.401L96.312,61.4c0.002-0.574,0.007-1.161,0.018-1.757l0.437,0.009C96.755,60.247,96.75,60.83,96.748,61.401z
				 M96.813,57.898l-0.444-0.013c0.024-0.579,0.045-1.163,0.079-1.758l0.437,0.021C96.856,56.739,96.83,57.323,96.813,57.898z
				 M96.98,54.4l-0.437-0.028c0.041-0.579,0.078-1.165,0.128-1.755l0.437,0.036C97.063,53.24,97.02,53.822,96.98,54.4z
				 M97.268,50.908l-0.44-0.042c0.058-0.58,0.121-1.162,0.188-1.749l0.433,0.049C97.382,49.75,97.318,50.331,97.268,50.908z
				 M97.665,47.429l-0.435-0.058c0.077-0.578,0.161-1.159,0.254-1.741l0.432,0.067C97.828,46.277,97.74,46.855,97.665,47.429z
				 M98.197,43.97l-0.43-0.075c0.096-0.574,0.204-1.151,0.312-1.729l0.436,0.083C98.401,42.824,98.301,43.397,98.197,43.97z
				 M98.869,40.536l-0.427-0.093c0.073-0.333,0.148-0.665,0.224-0.998c0.058-0.241,0.113-0.479,0.167-0.717l0.431,0.103
				c-0.057,0.236-0.114,0.473-0.17,0.712C99.016,39.874,98.942,40.206,98.869,40.536z M99.687,37.131l-0.423-0.11
				c0.148-0.576,0.299-1.142,0.452-1.699l0.42,0.12C99.985,35.995,99.835,36.556,99.687,37.131z M100.627,33.758l-0.425-0.125
				c0.173-0.572,0.342-1.132,0.52-1.68l0.417,0.133C100.97,32.633,100.795,33.189,100.627,33.758z M101.689,30.423l-0.416-0.142
				c0.196-0.564,0.392-1.118,0.589-1.658l0.413,0.15C102.079,29.311,101.883,29.861,101.689,30.423z M102.894,27.135l-0.411-0.158
				c0.215-0.552,0.434-1.104,0.653-1.634l0.406,0.168C103.325,26.04,103.105,26.586,102.894,27.135z M104.23,23.903l-0.4-0.177
				c0.24-0.542,0.482-1.082,0.731-1.601l0.399,0.186C104.715,22.828,104.472,23.363,104.23,23.903z M105.725,20.738l-0.395-0.197
				c0.266-0.529,0.538-1.054,0.812-1.562l0.39,0.207C106.262,19.691,105.989,20.214,105.725,20.738z M107.377,17.657L107,17.437
				c0.289-0.51,0.59-1.02,0.896-1.515l0.373,0.23C107.97,16.643,107.665,17.15,107.377,17.657z M109.208,14.678l-0.37-0.243
				c0.332-0.499,0.667-0.987,1.001-1.455l0.355,0.255C109.863,13.697,109.537,14.182,109.208,14.678z M111.238,11.837l-0.348-0.271
				c0.387-0.496,0.771-0.954,1.13-1.364l0.332,0.29C111.99,10.896,111.62,11.349,111.238,11.837z"/>
		</g>
		<g>
			<path fill="#FFFDFD" d="M104.242,75.447c-0.002-0.006-0.089-0.636-0.208-1.753l0.442-0.044c0.11,1.105,0.203,1.73,0.203,1.735
				L104.242,75.447z M103.872,71.942c-0.047-0.533-0.089-1.118-0.137-1.753l0.436-0.031c0.049,0.632,0.097,1.216,0.135,1.748
				L103.872,71.942z M103.627,68.432c-0.028-0.559-0.056-1.145-0.08-1.757l0.441-0.016c0.021,0.609,0.046,1.192,0.08,1.75
				L103.627,68.432z M103.487,64.917c-0.012-0.569-0.021-1.156-0.027-1.757l0.437-0.005c0.007,0.599,0.021,1.185,0.032,1.753
				L103.487,64.917z M103.892,61.401l-0.437-0.001c0-0.574,0.007-1.161,0.016-1.757l0.437,0.009
				C103.898,60.247,103.894,60.83,103.892,61.401z M103.954,57.898l-0.435-0.014c0.018-0.578,0.038-1.163,0.071-1.757l0.435,0.021
				C104,56.739,103.976,57.323,103.954,57.898z M104.128,54.4l-0.442-0.028c0.04-0.579,0.08-1.165,0.131-1.755l0.438,0.036
				C104.208,53.24,104.162,53.822,104.128,54.4z M104.411,50.907l-0.439-0.042c0.056-0.58,0.117-1.162,0.186-1.749l0.436,0.049
				C104.527,49.75,104.467,50.331,104.411,50.907z M104.812,47.429l-0.438-0.058c0.075-0.577,0.163-1.159,0.25-1.74l0.432,0.065
				C104.97,46.278,104.89,46.856,104.812,47.429z M105.34,43.972l-0.43-0.077c0.103-0.574,0.206-1.151,0.32-1.729l0.428,0.083
				C105.545,42.824,105.442,43.399,105.34,43.972z M106.013,40.536l-0.428-0.093c0.073-0.333,0.146-0.665,0.224-0.998
				c0.058-0.241,0.114-0.479,0.174-0.717l0.425,0.103c-0.06,0.236-0.116,0.473-0.173,0.712
				C106.158,39.874,106.086,40.206,106.013,40.536z M106.829,37.131l-0.424-0.11c0.15-0.576,0.302-1.142,0.46-1.699l0.42,0.12
				C107.132,35.995,106.978,36.556,106.829,37.131z M107.769,33.758l-0.42-0.125c0.17-0.572,0.345-1.132,0.517-1.68l0.418,0.133
				C108.111,32.633,107.936,33.189,107.769,33.758z M108.832,30.423l-0.414-0.142c0.192-0.562,0.392-1.118,0.588-1.657l0.412,0.149
				C109.223,29.311,109.026,29.861,108.832,30.423z M110.035,27.135l-0.409-0.158c0.215-0.552,0.434-1.104,0.658-1.634l0.4,0.168
				C110.469,26.04,110.25,26.586,110.035,27.135z M111.376,23.903l-0.397-0.177c0.236-0.542,0.484-1.082,0.727-1.601l0.399,0.186
				C111.856,22.828,111.615,23.363,111.376,23.903z M112.866,20.738l-0.386-0.197c0.258-0.529,0.532-1.054,0.806-1.562l0.388,0.207
				C113.401,19.691,113.131,20.214,112.866,20.738z M114.52,17.657l-0.377-0.22c0.291-0.51,0.59-1.02,0.897-1.515l0.372,0.23
				C115.11,16.643,114.813,17.15,114.52,17.657z M116.352,14.678l-0.365-0.243c0.331-0.499,0.66-0.987,0.996-1.455l0.356,0.255
				C117.013,13.697,116.681,14.182,116.352,14.678z M118.387,11.837l-0.347-0.271c0.381-0.496,0.764-0.954,1.122-1.364l0.332,0.29
				C119.14,10.896,118.762,11.349,118.387,11.837z"/>
		</g>
		<path d="M163.382,68.328c-32.391-2.569-49.887,12.424-49.887,12.424S128.512,64.215,163.382,68.328z"/>
		<path d="M168.812,75.978c-3.386,19.24-21.003,23.376-32.888,21.349c-20.907-2.048-22.823-14.981-22.806-14.937
			c0.022,0.049,3.67,12.542,23.709,13.684C155.807,96.749,164.228,87.344,168.812,75.978z"/>
		<path d="M90.656,82.146c-1.13,4.71-5.433,8.852-8.82,11.561c-5.655,4.538-12.077,6.007-16.83,5.125
			c-9.42-1.714-10.62-8.598-10.58-8.414c0.067,0.296,9.766,12.846,23.939,4.068C82.17,92.128,87.641,87.833,90.656,82.146z"/>
		<path d="M150.11,119.046c0,0-1.912,7.58-13.411,14.212c10.534-4.061,14.826-12.45,14.826-12.45L150.11,119.046z"/>
		<path d="M85.742,126.531c0,0,0.163,4.922,2.537,9.812c-3.035,3.5,0.541,7.984,0.541,7.984s-1.746-4.374,1.218-7.379
			c7.465,2.572,22.068,1.585,24.076,1.128c-14.554,0.445-22.893-2.584-24.31-3.632c-1.426-1.046-2.724-6.758-2.724-6.758
			L85.742,126.531z"/>
		<path fill="#B0B4B7" d="M114.654,99.05l-0.412,2.65c0,0,6.142,1.882,5.087-0.214C117.603,99.389,114.654,99.05,114.654,99.05z"/>
		<path fill="#B0B4B7" d="M85.007,103.299c10.684-9.089,22.903-9.535,25.003-7.634c-12.167-9.484-23.002,3.344-23.002,3.344
			S84.464,103.411,85.007,103.299z"/>
		<path fill="#B0B4B7" d="M84.234,100.958l0.772,2.341c0,0-2.8-0.51-5.189,1.616C80.225,101.96,84.234,100.958,84.234,100.958z"/>
		<path d="M85.007,103.299c0.66-2.272,2.001-4.29,2.001-4.29l-2.773,1.949C84.234,100.958,84.154,102.16,85.007,103.299z"/>
		<path d="M101.807,127.443c17.185,2.234,33.812-4.141,33.812-4.141S116.458,127.558,101.807,127.443z"/>
		<path fill="#B0B4B7" d="M88.464,139.888c0.203-0.838,0.318-2.303,1.853-3.175c22.415,3.131,34.477,0.282,34.477,0.282
			S113.896,141.15,88.464,139.888z"/>
		<polygon points="41.96,80.145 64.791,77.041 41.28,84.821 		"/>
		<g>
			<g opacity="0.5">
				<path fill="#895B3D" d="M79.403,93.961c-1.297,2.409-16.595,9.491-25.19,5.072c-2.079-2.967-3.377-7.106-4.13-10.273
					c-0.635-2.672-0.246-4.816,0.84-5.082c4.695-1.151,17.731-4.254,23.479-4.651c2.246,0.479,7.113,0.754,8.396,4.25
					C84.211,85.748,81.907,90.169,79.403,93.961z M165.454,90.692c-12.535,6.659-41.925,6.243-45.648,5.423
					c-9.055-9.023-9.946-16.209-9.946-16.209s7.506-7.554,28.294-9.914c20.795-2.358,31.741,0.374,33.926,1.047
					C174.154,73.68,168.228,88.12,165.454,90.692z"/>
			</g>
			<g opacity="0.5">
				<path fill="#895B3D" d="M69.013,99.213c-4.219,1.202-8.999,1.776-12.889,0.589l6.821-18.875
					c4.345-0.909,8.723-1.711,11.456-1.899L69.013,99.213z M142.628,95.952c-7.669,0.686-15.035,0.706-19.34,0.492l14.865-26.451
					c6.73-0.762,12.436-0.993,17.137-0.932L142.628,95.952z"/>
			</g>
			<g>
				<path d="M82.062,96.348c0,0,3.559-2.441,5.726-10.693c9.626-4.75,18.557-1.828,18.557-1.828s5.489,14.183,14.297,15.728
					c18.75,3.811,42.147-2.585,46.201-4.841c7.1-5.226,9.466-17.095,9.466-17.095l0.869-3.649c0,0,2.282-1.431,1.539-2.984
					c-0.746-1.553-0.746-1.553-0.746-1.553s-3.627,1.448-3.773,1.725c-0.146,0.278-3.123,17.355-8.118,20.896
					c-10.1,7.279-40.754,5.861-44.81,5.575c-5.831-0.561-12.927-14.475-14.318-17.563c-10.164-1.884-20.301,2.644-20.301,2.644
					s-4.486,9.956-7.312,12.412C76.513,97.579,82.062,96.348,82.062,96.348z"/>
				<path d="M174.378,77.618c0,0,20.05,22.953,20.297,22.873c0.247-0.078,1.021,0.059,1.021,0.059l-20.669-25.256L174.378,77.618z"
					/>
				<path d="M109.763,81.623c0,0-1.444,2.849-1.456-1.142c4.509-7.822,30.1-12.247,30.1-12.247s33.698-1.765,34.407,1.95
					c-0.734,0.855-1.162-0.825-0.734,0.855C127.111,66.674,109.763,81.623,109.763,81.623z"/>
				<path d="M51.077,86.859c-0.095,5.179,3.136,12.175,3.136,12.175s-7.142-6.599-5.871-16.019c0.633-1.488,4.771-1.271,4.771-1.271
					s19.135-6.22,26.159-1.61c-8.369-0.272-21.371,2.729-26.314,4.373C51.575,84.842,50.991,85.703,51.077,86.859z"/>
				<path fill="#7C0612" d="M175.018,67.907c-44.918-6.371-66.48,8.637-69.473,10.121c-8.3-1.549-18.434,3.058-18.434,3.058
					s-5.614-4.514-10.249-5.383c-4.641-0.873-30.553,5.206-33.08,5.787c-3.985,2.839,0.49,4.201,0.49,4.201l2.421,0.246
					c0,0,1.739,11.713,5.3,15.617c1.69,1.854,17.397,4.932,30.068-5.206c2.149-3.088,4.226-11.606,4.226-11.606
					s10.876-6.788,20.761-2.711c1.5,4.002,8.453,15.797,12.402,16.762c3.961,0.965,43.051,0.608,48.864-7.059
					c4.328-5.823,7.272-18.666,7.272-18.666S181.199,69.861,175.018,67.907z M79.403,93.961c-1.297,2.409-16.595,9.491-25.19,5.072
					c-2.079-2.967-3.377-7.106-4.13-10.273c-0.635-2.672-0.246-4.816,0.84-5.082c4.695-1.151,17.731-4.254,23.479-4.651
					c2.246,0.479,7.113,0.754,8.396,4.25C84.211,85.748,81.907,90.169,79.403,93.961z M165.454,90.692
					c-12.535,6.659-41.925,6.243-45.648,5.423c-9.055-9.023-9.946-16.209-9.946-16.209s7.506-7.554,28.294-9.914
					c20.795-2.358,31.741,0.374,33.926,1.047C174.154,73.68,168.228,88.12,165.454,90.692z"/>
				<polygon fill="#7C0612" points="176.152,72.698 198.695,100.72 198.591,102.533 195.695,100.55 174.861,75.908 175.048,72.636 
									"/>
			</g>
		</g>
		<g>
			<path d="M100.366,76.149c-0.357,0-0.673-0.265-0.726-0.63c-0.022-0.184-2.541-18.48,1.574-36.191
				c4.886-21.028,13.811-29.871,14.186-30.237c0.29-0.282,0.753-0.274,1.034,0.015c0.28,0.291,0.273,0.753-0.015,1.034
				c-0.021,0.022-2.266,2.233-5.074,6.957c-2.594,4.361-6.209,11.815-8.702,22.564c-4.055,17.447-1.58,35.474-1.556,35.654
				c0.058,0.399-0.22,0.77-0.622,0.827C100.435,76.146,100.397,76.149,100.366,76.149z"/>
		</g>
		<polygon points="63.899,136.981 69.102,128.131 65.649,143.239 62.955,139.368 		"/>
		<polygon fill="#31738B" points="69.102,133.425 72.543,162.622 69.039,160.401 		"/>
		<path d="M39.135,80.536l2.995,3.809l-4.046,2.258c0,0-1.292-0.499-1.585-3.035C36.201,81.034,39.135,80.536,39.135,80.536z"/>
		<path d="M47.709,91.083l-3.286,8.705l-0.326-1.875c0,0,3.123-8.209,3.192-8.142C47.357,89.839,47.709,91.083,47.709,91.083z"/>
		<polygon fill="#7C0612" points="45.653,85.088 43.701,95.334 44.136,98.204 47.612,89.411 47.168,86.256 		"/>
	</g>
</g>
</svg>
