<?xml version="1.0" encoding="utf-8"?>
<!-- Generator: Adobe Illustrator 16.0.0, SVG Export Plug-In . SVG Version: 6.00 Build 0)  -->
<!DOCTYPE svg PUBLIC "-//W3C//DTD SVG 1.1//EN" "http://www.w3.org/Graphics/SVG/1.1/DTD/svg11.dtd">
<svg version="1.1" id="Capa_2" xmlns="http://www.w3.org/2000/svg" xmlns:xlink="http://www.w3.org/1999/xlink" x="0px" y="0px"
	 width="464px" height="160px" viewBox="0 0 464 160" enable-background="new 0 0 464 160" xml:space="preserve">
<g>
	<path fill="#FFFFFF" d="M72.251,99.624c2.076,3.062,2.853,5.354,1.479,6.771l-1.904,1.776l2.573,3.794l16.11-10.923l-2.572-3.795
		l-2.357,1.113c-1.889,0.794-3.731-0.776-5.807-3.838l-2.256-3.328l0.334-5.67l10.859,4.979c1.276,0.594,2.351,1.321,2.804,1.986
		c0.496,0.731,0.458,1.536,0.016,2.03L90.2,95.714l2.573,3.793l17.043-11.554l-2.573-3.795l-2.622,1.293
		c-1.912,0.906-5.178-0.186-8.737-1.853l-17.284-8.006l1.1-16.293c0.239-3.661,0.443-6.229,1.283-6.994l1.972-1.822l-2.573-3.793
		L64.338,57.566l2.573,3.795l1.666-0.84c0.955-0.453,2.092-0.641,2.363-0.241c0.226,0.333,0.275,0.979,0.19,1.426l-1.031,16.538
		c0.024,0.47-0.149,1.072-0.482,1.299l-5.461-8.056c-2.12-3.128-2.631-5.602-1.479-6.77l1.904-1.778l-2.573-3.795L45.964,70.025
		l2.573,3.793l2.356-1.11c1.511-0.637,3.62,0.751,5.74,3.882L72.251,99.624z"/>
	<path fill="#FFFFFF" d="M125.996,54.488l-2.322-5.22l-7.276,3.238l-4.25-9.553c-1.503-3.38-1.187-5.635,2.562-7.303
		c3.452-1.536,7.667,0.022,10.12,5.534l1.373,3.087l4.629-2.06l-7.128-16.021L94.826,39.04l1.863,4.188l2.515-0.678
		c1.601-0.36,3.43,1.378,4.967,4.833l11.313,25.426c1.504,3.381,1.896,5.847,0.263,6.925l-2.187,1.414l1.863,4.188l28.881-12.848
		l-7.389-16.61l-4.631,2.06l1.603,3.602c2.027,4.555,2.446,8.86-2.698,11.148c-3.748,1.668-5.8,0.028-7.107-2.912l-5.362-12.052
		L125.996,54.488z"/>
	<path fill="#FFFFFF" d="M137.537,25.829l2.104-0.223c1.694-0.196,3.161,1.579,5.418,4.145l13.199,14.401l2.976,11.277
		c0.944,3.578,0.916,5.998-0.924,6.899l-2.387,1.045l1.17,4.433l18.821-4.965l-1.17-4.432l-2.59,0.267
		c-2.047,0.125-3.264-1.966-4.208-5.545l-3.859-14.619l4.508-17.91c0.467-1.704,0.76-3.112,1.73-3.535l2.541-1.086l-1.17-4.433
		L158.22,15.63l1.17,4.433l2.513-0.248c1.56-0.079,2.262,1.318,1.665,3.471l-2.504,10.061l-7.357-7.708
		c-1.483-1.522-1.365-2.968,0.264-3.73l2.309-1.026l-1.17-4.433l-18.743,4.945L137.537,25.829z"/>
	<path fill="#FFFFFF" d="M199.748,19.625l0.16-0.011l17.061,38.049l9.302-0.72l-3.026-39.133c-0.292-3.77,0.49-6.169,2.15-6.62
		l2.455-0.594l-0.354-4.571l-15.396,1.191l0.354,4.57l2.597,0.203c1.629,0.197,2.771,2.449,3.063,6.217l1.345,17.402l-0.081,0.005
		L206.563,7.645l-17.962,1.389l0.354,4.57l2.596,0.203c1.63,0.197,2.771,2.448,3.063,6.217l2.145,27.747
		c0.285,3.689-0.175,6.063-2.07,6.613l-2.535,0.6l0.354,4.571l14.674-1.135l-0.352-4.571l-1.796-0.264
		c-2.042-0.326-2.858-2.521-3.144-6.212L199.748,19.625z"/>
	<path fill="#FFFFFF" d="M261.018,7.515c-10.007-0.981-17.421,7.02-18.348,16.464l-1.581,15.282
		c-1.149,10.879,4.868,18.742,14.874,19.726c10.088,0.989,17.492-6.932,18.401-17.026l1.446-14.728
		C276.715,17.218,271.022,8.498,261.018,7.515z M265.316,22.163l-2.09,21.292c-0.535,5.444-2.037,10.872-6.76,10.408
		c-4.805-0.471-5.182-5.681-4.607-11.524l2.09-21.292c0.439-4.483,1.754-8.799,6.557-8.327
		C265.228,13.182,265.758,17.679,265.316,22.163z"/>
	<path fill="#FFFFFF" d="M288.987,32.261l4.578,1.25l1.186-4.344c1.253-4.578,3.796-9.302,7.132-8.391
		c2.948,0.806,2.006,5.468,1.201,8.416l-6.787,24.828c-0.976,3.569-2.211,5.65-4.257,5.508l-2.59-0.292l-1.207,4.422l18.774,5.133
		l1.21-4.422l-2.299-1.044c-1.913-0.94-1.917-3.361-0.942-6.93l6.787-24.827c0.807-2.948,2.368-7.441,5.315-6.635
		c3.338,0.911,3.122,6.272,1.87,10.851l-1.188,4.344l4.578,1.251l5.321-19.475l-33.36-9.119L288.987,32.261z"/>
	<path fill="#FFFFFF" d="M350.594,60.744l2.392-5.185l-7.23-3.337l4.379-9.494c1.549-3.361,3.454-4.607,7.178-2.89
		c3.434,1.583,5.042,5.78,2.515,11.257l-1.414,3.067l4.602,2.125l7.342-15.924l-28.703-13.239l-1.92,4.164l2.168,1.443
		c1.325,0.965,1.226,3.487-0.356,6.92l-11.657,25.273c-1.549,3.36-3.145,5.282-5.032,4.767l-2.505-0.713l-1.92,4.162l28.704,13.238
		l7.613-16.507l-4.602-2.123l-1.648,3.581c-2.09,4.527-5.049,7.68-10.162,5.322c-3.726-1.718-3.845-4.343-2.497-7.265l5.526-11.979
		L350.594,60.744z"/>
	<path fill="#FFFFFF" d="M386.545,62.826c1.757-2.599,5.427-4.292,9.158-1.769c2.863,1.937,4.644,6.343,4.806,8.687
		c0.145,1.941-0.317,4.349-1.203,6.662l3.266,2.208l8.469-12.528l-3.264-2.207c-0.781,0.151-1.678,0.324-2.477-0.216
		c-0.999-0.676-1.772-1.684-2.615-2.738c-0.994-1.257-2.923-3.143-4.989-4.539c-6.597-4.46-14.967-3.712-19.742,3.351
		c-4.505,6.665-4.629,12.018-0.345,18.604l3.756,5.647c1.568,2.419,4.02,6.407,1.449,10.205c-1.8,2.665-5.487,3.666-8.287,1.774
		c-4.53-3.062-6.375-7.515-6.24-11.307c0.061-2.385,0.386-4.304,1.27-6.327l-3.331-2.252l-9.688,14.326l3.331,2.253
		c1.412-0.795,3.046-1.631,4.112-0.91c1.067,0.72,1.859,2.132,2.897,3.899c0.971,1.725,2.649,4.123,5.184,5.835
		c6.796,4.595,15.417,3.046,20.507-4.485c5.407-7.996,3.975-14.207-2.997-22.708C385.497,69.401,383.908,66.578,386.545,62.826z"/>
</g>
<g>
	<path d="M52.097,79.421c-2.113-3.099-3.698-3.398-5.07-2.661l-2.431,1.065l-4.224-6.197l37.247-25.392l9.484,3.202l3.628,5.321
		l-2.397,2.128c-1.77,1.601-3.15,3.627-3.423,7.858l-0.726,10.657l22.252,9.198l6.414,1.449l4.73,6.937l-18.186,12.397l-2.471-0.584
		l1.057,1.549l-18.859,12.857l-8.168-2.719l-4.224-6.196l2.352-2.195c1.096-1.142,0.281-3.35-1.326-5.707L52.097,79.421z
		 M69.129,101.944c2.112,3.1,2.905,5.42,1.518,6.858l-1.925,1.806l2.617,3.839l16.299-11.112l-2.617-3.838l-2.385,1.132
		c-1.913,0.812-3.784-0.774-5.896-3.873l-2.296-3.367l0.324-5.746l11.018,5.018c1.295,0.598,2.389,1.332,2.847,2.006
		c0.505,0.74,0.469,1.555,0.022,2.058l-1.344,1.212l2.617,3.839l17.243-11.755l-2.617-3.839l-2.655,1.315
		c-1.934,0.925-5.247-0.171-8.859-1.853l-17.539-8.07l1.073-16.516c0.232-3.71,0.432-6.312,1.283-7.09l1.993-1.852l-2.618-3.839
		L61,59.342l2.618,3.84l1.686-0.855c0.968-0.462,2.119-0.654,2.395-0.25c0.229,0.337,0.281,0.991,0.196,1.445l-1.003,16.764
		c0.027,0.475-0.146,1.088-0.483,1.316l-5.556-8.15c-2.158-3.166-2.682-5.669-1.518-6.858l1.926-1.806l-2.618-3.839L42.411,72.015
		l2.617,3.839l2.385-1.133c1.531-0.649,3.671,0.753,5.829,3.919L69.129,101.944z M54.454,77.814
		c-3.49-5.119-5.776-5.435-7.173-4.877l-1.935,0.924l-1.011-1.481l13.942-9.506l1.01,1.482l-1.567,1.463
		c-1.029,1.096-1.57,3.34,1.918,8.458l6.521,9.564c1.548-1.057,2.015-1.966,2.088-3.594l1.091-16.924
		c-0.007-0.588-0.153-1.671-0.658-2.413c-0.689-1.01-1.822-1.224-3.261-0.44l-1.417,0.67l-1.011-1.481l13.874-9.459l1.011,1.482
		l-1.567,1.463c-1.007,0.983-1.065,4.081-1.384,8.245L73.68,80.69c-1.041-0.081-1.984,0.562-2.762,1.882
		c3.12-0.055,5.379-0.214,7.611-0.848c2.967,2.614,6.585,4.884,12.34,8.261c-5.446-1.911-10.259-3.76-14.22-4.217
		c-1.619-1.362-3.505-2.247-6-3.012c-0.906-0.173-2.052,0.608-2.695,1.836c-1.512,0.242-2.589,0.977-3.367,2.296
		c1,0.6,2.706,1.509,4.405,1.831c0.504,2.912,1.876,6.515,5.307,12.561c-4.375-5.402-7.227-7.996-9.752-9.53
		c0.321-1.698,0.098-3.618-0.163-4.724c-1.31,0.104-2.186,0.701-2.492,1.698L54.454,77.814z M64.542,86.821
		c-1.204-2.632-1.381-4.485-1.127-6.138c-2.045-0.974-4.438-2.894-8.354-7.624c2.973,5.373,3.885,8.304,3.977,10.608
		c1.699,0.321,3.358,1.163,5.302,3.291L64.542,86.821z M70.872,82.505c0.852-2.948,1.546-5.691,2.578-8.664
		c-0.992-1.889-1.372-7.944-1.618-12.215c-0.39,6.086-0.92,11.676-2.423,14.97c0.542,2.098,0.763,3.722,1.194,6.092L70.872,82.505z"
		/>
	<path d="M95.717,45.889l-2.581,0.618l-3.062-6.846l31.625-14.146l9.199,4.994l7.855,17.562l-7.813,3.495l-7.915-4.318l-1.165-2.605
		c-0.699-1.562-1.471-2.289-2.661-1.756c-1.265,0.565-1.328,2.022-0.621,3.403l0.906,1.827l10.443,5.777l1.498,3.348l3.721-1.664
		l9.266,5.142l8.055,18.007l-32.667,14.612l-7.557-4.121l-3.062-6.845l2.702-1.745c1.28-0.93,0.87-3.246-0.295-5.851l-11.351-25.375
		C98.706,45.98,97.197,45.405,95.717,45.889z M123.633,55.994l-2.363-5.284l-7.367,3.296l-4.326-9.674
		c-1.531-3.422-1.214-5.708,2.581-7.405c3.497-1.565,7.771,0.006,10.268,5.587l1.397,3.125l4.688-2.097l-7.256-16.222L92.013,40.401
		l1.896,4.241l2.548-0.692c1.622-0.369,3.479,1.39,5.044,4.887l11.516,25.747c1.531,3.422,1.935,5.921,0.283,7.018l-2.216,1.438
		l1.898,4.241l29.243-13.081l-7.522-16.817l-4.688,2.097l1.631,3.646c2.063,4.614,2.496,8.975-2.712,11.304
		c-3.795,1.699-5.876,0.039-7.208-2.937l-5.458-12.203L123.633,55.994z M120.557,29.151l6.125,13.691l-2.083,0.932l-0.833-1.86
		c-3.461-7.739-8.824-7.75-12.173-6.253c-4.986,2.229-4.786,6.07-3.355,9.269l4.926,11.013l7.441-3.329l0.799,1.786
		c-1.978,0.17-3.879,1.11-5.101,2.371c-1.829,0.104-3.648,0.828-5.094,2.188c0.879,0.768,2.397,1.965,4.013,2.581
		c-0.018,2.955,0.695,6.744,3.003,13.302c-3.349-6.092-5.7-9.149-7.914-11.105c0.617-1.615,0.737-3.544,0.676-4.678
		c-1.308-0.129-2.35,0.336-2.753,1.231l-5.392-12.054c-2.53-5.655-4.725-6.37-6.197-6.068l-2.068,0.567l-0.732-1.636L120.557,29.151
		z M111.176,58.887c-0.719-2.804-0.566-4.658-0.024-6.241c-1.84-1.32-3.857-3.632-6.874-8.98c1.975,5.815,2.355,8.859,2.037,11.144
		c1.616,0.617,3.1,1.739,4.637,4.177L111.176,58.887z M128.696,68.91c0.533,1.191,1.33,2.173,2.074,1.84
		c0.893-0.399,1.508-2.817-0.455-7.208l-0.533-1.19l-3.349,1.498L128.696,68.91z"/>
	<path d="M141.724,31.19c-1.909-2.107-3.289-3.175-4.67-2.977l-2.683,0.375l-1.924-7.249l39.788-10.558l8.274,6.069l1.547,5.83
		l-2.574,1.105c-1.729,0.796-3.846,2.032-4.669,5.287l-2.754,10.598l5.165,19.461l6.898,5.338l1.589,5.988l-22.612,6.001
		l-6.72-5.302l-1.923-7.248l2.868-1.267c1.493-0.734,1.38-3.065,0.648-5.822l-2.928-11.031L141.724,31.19z M135.433,26.873
		l2.132-0.229c1.718-0.203,3.207,1.594,5.499,4.191l13.398,14.577l3.032,11.424c0.961,3.625,0.938,6.076-0.927,6.993l-2.417,1.063
		l1.191,4.491l19.067-5.06l-1.191-4.491l-2.626,0.274c-2.075,0.129-3.311-1.988-4.273-5.612l-3.93-14.812l4.542-18.158
		c0.469-1.727,0.765-3.155,1.748-3.583l2.574-1.105l-1.192-4.491l-15.678,4.161l1.191,4.491l2.547-0.254
		c1.58-0.081,2.293,1.332,1.692,3.515l-2.523,10.199l-7.468-7.801c-1.504-1.54-1.388-3.005,0.262-3.78l2.338-1.042l-1.191-4.491
		l-18.988,5.039L135.433,26.873z M152.167,19.058l0.46,1.733l-2.044,0.88c-1.807,0.816-2.445,3.178-0.216,5.539l8.49,8.794
		c0.583,0.605,1.291,0.417,1.497-0.397l2.991-11.926c0.75-2.898-0.66-4.716-2.95-4.446l-1.896,0.166l-0.502-1.891l13.079-3.471
		l0.46,1.734l-1.65,0.775c-1.255,0.67-1.924,2.281-2.484,4.623l-4.9,19.348c-0.955-0.421-1.901-0.17-2.6,0.69
		c0.787,1.057,1.83,2.129,3.545,3.192c-0.032,4.647,0.394,9.426,1.05,13.806c-1.682-4.108-3.682-8.469-6.092-12.468
		c1-1.952,1.201-3.103,1.024-4.405c-1.491-0.532-3.082,0.144-3.703,0.983l-11.149-12.137c-2.69-2.828-4.803-5.388-6.935-5.16
		l-1.324,0.099l-0.459-1.733L152.167,19.058z M159.801,41.153c-1.353-1.919-2.37-3.841-2.75-5.596
		c-3.369-1.889-7.351-5.134-10.597-8.151c2.38,3.248,5.273,7.792,6.236,10.151c2.725,1.049,4.597,2.069,6.795,3.679L159.801,41.153z
		"/>
	<path d="M220.848,66.982l-6.19-7.039l-6.532-14.535l0.705,9.021l4.933,5.583l0.584,7.477l-18.61,1.454l-5.734-6.419l-0.584-7.477
		l3.132-0.735c1.519-0.446,1.909-2.767,1.688-5.611l-2.165-27.712c-0.292-3.738-1.518-4.787-3.075-4.829l-2.638-0.284l-0.585-7.477
		l20.805-1.625l3.318,3.747l-0.311-3.982l18.529-1.448l6.637,7.494l0.5,6.42l-2.487,0.603c-1.449,0.277-2.536,2.079-2.193,6.467
		l3.117,39.903L220.848,66.982z M198.655,20.475l0.163-0.012l17.319,38.547l9.427-0.736l-3.098-39.659
		c-0.298-3.819,0.493-6.252,2.173-6.71l2.488-0.603l-0.362-4.633l-15.604,1.219l0.362,4.632l2.633,0.204
		c1.651,0.197,2.81,2.479,3.108,6.298l1.377,17.635l-0.082,0.006L205.556,8.325l-18.205,1.422l0.362,4.633l2.633,0.203
		c1.651,0.198,2.81,2.479,3.108,6.299L195.65,49c0.292,3.739-0.174,6.146-2.093,6.705l-2.568,0.609l0.361,4.632l14.873-1.162
		l-0.363-4.632l-1.819-0.267c-2.07-0.328-2.898-2.553-3.19-6.292L198.655,20.475z M204.444,9.803L214.8,32.459
		c-1.595-0.529-2.977-0.421-4.226,0.33c0.895,0.994,2.222,2.28,4.049,3.69c0.385,2.832,1.146,6.288,3.073,13.169
		c-3.614-6.504-6.02-10.077-8.111-12.775c0.536-1.514,0.828-3.009,0.746-4.065c-1.757-0.517-3.058-0.415-3.982,0.311l-5.924-13.028
		c-0.602-1.425-1.159-2.28-2.215-2.198c-0.975,0.076-1.043,1.308-0.947,2.527l1.041,13.328c-0.783-0.593-1.758-0.517-2.357,0.184
		l-1.028-13.165c-0.483-6.176-2.31-7.587-3.798-7.797l-2.138-0.161l-0.141-1.788L204.444,9.803z M210.567,32.708
		c-0.222-2.844-0.348-4.469-0.401-6.182c-2.397-2.43-4.595-5.446-7.777-10.595c1.969,5.325,2.798,8.612,2.533,11.494
		c1.965,1.074,3.392,2.597,5.401,5.302L210.567,32.708z M225.493,8.159l0.14,1.788l-2.088,0.49
		c-1.437,0.439-3.023,2.117-2.541,8.293l1.029,13.166c-0.539-0.613-1.758-0.517-2.276,0.178l-1.029-13.165
		c-0.482-6.176-2.309-7.588-3.797-7.798l-2.138-0.16l-0.141-1.788L225.493,8.159z"/>
	<path d="M281.46,47.695c-1.525,15.577-10.718,22.456-21.995,21.352c-11.601-1.137-21.873-10.825-20.132-28.592l1.526-15.577
		c1.192-12.169,10.708-19.017,20.201-18.088c15.494,1.519,22.823,16.161,21.861,25.977L281.46,47.695z M275.921,28.15
		c0.913-10.149-4.855-18.987-14.997-19.98c-10.14-0.993-17.651,7.116-18.589,16.689l-1.6,15.487
		c-1.161,11.025,4.938,18.994,15.078,19.988c10.223,1.002,17.725-7.027,18.646-17.257L275.921,28.15z M251.151,32.686
		c-0.586-0.713-2.208-0.872-3.894-0.382c0.302,1.095,1.116,2.812,2.125,4.222c-1.398,2.565-3.278,7.541-2.765,13.161
		c-1.544-5.967-2.212-10.865-2.509-13.678c1.263-1.187,2.233-2.73,2.904-3.729c-1.478-0.8-3.181-0.967-3.975-0.39l0.675-6.895
		c0.811-8.275,7.179-16.415,17.075-15.446c9.816,0.962,14.483,10.182,13.673,18.458l-0.676,6.896
		c-0.667-0.721-2.29-0.879-3.976-0.39c0.464,1.11,1.117,2.812,2.126,4.221c-0.781,2.954-1.867,7.354-5.036,12.939
		c1.141-5.785,0.717-10.659-0.237-13.455c1.344-1.179,2.396-2.714,2.903-3.729c-1.558-0.808-3.181-0.967-3.894-0.382l1.073-10.952
		c0.771-7.869-2.057-10.767-6.195-11.173c-4.218-0.413-7.555,1.88-8.326,9.75L251.151,32.686z M247.272,32.142
		c0.685-2.8,1.81-4.246,3.072-5.433c-1.15-3.307-0.825-6.633,0.254-10.951c-2.654,3.672-4.181,6.716-5.527,10.434
		c1.008,1.41,1.75,3.038,1.959,5.925L247.272,32.142z M253.766,21.884c0.445-4.542,1.774-8.917,6.643-8.44
		c4.786,0.469,5.323,5.026,4.877,9.57l-2.114,21.579c-0.539,5.517-2.062,11.02-6.848,10.55c-4.868-0.478-5.252-5.756-4.672-11.679
		L253.766,21.884z M263.629,25.717c0.317-3.244,0.378-5.532-0.758-5.644c-0.974-0.096-1.701,1.472-2.122,5.771l-1.876,19.146
		c-0.31,3.165-0.424,6.838,0.388,6.918c1.217,0.12,2.118-3.233,2.548-7.613L263.629,25.717z M269.826,34.351
		c0.766-2.792,1.809-4.245,3.072-5.432c-0.689-3.835-1.41-7.346-3.397-11.309c0.299,3.634-0.106,7.771-1.877,10.792
		c1.09,1.417,1.832,3.046,1.959,5.926L269.826,34.351z"/>
	<path d="M334.162,31.07l-5.877,21.464l-7.548-2.067l-3.145-7.96l-6.501,23.744l3.202,8.061l-1.637,5.976l-22.485-6.157
		l-3.225-7.982l1.981-7.233l3.116,0.346c1.658,0.117,2.733-1.956,3.486-4.708l2.799-10.221l-5.189-1.42l-5.503-8.606l6.178-22.565
		l36.638,10.031L334.162,31.07z M289.44,33.278l4.639,1.27l1.205-4.403c1.271-4.639,3.849-9.426,7.229-8.501
		c2.987,0.818,2.032,5.543,1.214,8.531l-6.889,25.159c-0.989,3.618-2.243,5.725-4.316,5.581l-2.624-0.296l-1.227,4.48l19.026,5.21
		l1.228-4.481l-2.33-1.061c-1.937-0.952-1.941-3.405-0.951-7.021l6.889-25.16c0.818-2.987,2.403-7.54,5.391-6.722
		c3.381,0.925,3.161,6.359,1.891,10.998l-1.205,4.403l4.638,1.27L328.65,22.8l-33.807-9.257L289.44,33.278z M326.948,23.77
		l-4.671,17.061l-1.966-0.538l0.754-2.752c1.355-4.953,2.099-11.68-2.776-13.015c-3.381-0.926-5.413,1.561-6.705,6.277
		l-3.315,12.109c-0.534-0.823-1.635-1.125-2.909-0.797c0.192,1.151,0.606,3.04,1.383,4.52c-1.811,2.293-3.666,5.673-6.124,12.184
		c1.279-6.833,1.404-10.688,1.014-13.583c1.424-0.878,2.741-2.292,3.492-3.185c-0.85-0.909-1.95-1.21-2.987-0.818l3.314-12.107
		c1.292-4.718,0.809-7.892-2.572-8.819c-4.874-1.334-7.661,4.833-9.018,9.786l-0.753,2.752l-1.966-0.539l4.671-17.062L326.948,23.77
		z M305.382,42.037c1.225-2.622,2.521-3.958,3.865-4.858c-0.506-2.167-0.596-5.233,0.391-11.303
		c-2.165,5.746-3.806,8.339-5.423,9.925c0.778,1.481,1.213,3.29,0.932,6.17L305.382,42.037z"/>
	<path d="M341.272,34.556l-2.163-1.539l3.147-6.807l31.446,14.539l2.281,10.216l-8.072,17.462l-7.77-3.593l-1.947-8.803l1.197-2.589
		c0.719-1.554,0.759-2.613-0.425-3.16c-1.258-0.582-2.397,0.328-2.974,1.769l-0.78,1.884l2.508,11.667l-1.539,3.33l3.7,1.71
		l2.213,10.364l-8.278,17.906l-32.481-15.019l-1.863-8.404l3.148-6.807l3.091,0.89c1.542,0.354,3.019-1.479,4.215-4.068
		l11.666-25.23C343.166,36.868,342.609,35.354,341.272,34.556z M352.003,62.239l2.429-5.254l-7.325-3.387l4.447-9.619
		c1.573-3.404,3.505-4.666,7.278-2.921c3.478,1.607,5.103,5.861,2.538,11.411l-1.438,3.107l4.661,2.156l7.458-16.131l-29.079-13.445
		l-1.95,4.219l2.197,1.464c1.343,0.98,1.238,3.536-0.369,7.014l-11.836,25.601c-1.574,3.404-3.192,5.351-5.104,4.825l-2.539-0.725
		l-1.95,4.218l29.078,13.443l7.731-16.721l-4.661-2.156l-1.677,3.626c-2.12,4.587-5.123,7.779-10.303,5.385
		c-3.773-1.745-3.891-4.403-2.522-7.363l5.61-12.134L352.003,62.239z M370.212,42.278l-6.295,13.615l-2.071-0.958l0.855-1.85
		c3.558-7.695,0.042-11.746-3.287-13.286c-4.959-2.291-7.722,0.383-9.192,3.564l-5.063,10.951l7.399,3.421l-0.821,1.776
		c-1.428-1.379-3.386-2.194-5.14-2.286c-1.279-1.311-3.021-2.206-4.996-2.401c-0.001,1.167,0.094,3.098,0.69,4.721
		c-2.238,1.928-4.626,4.956-8.052,11.005c2.391-6.529,3.149-10.309,3.169-13.264c1.623-0.596,3.155-1.773,3.971-2.565
		c-0.764-1.071-1.799-1.549-2.738-1.266l5.542-11.986c2.6-5.623,1.695-7.748,0.501-8.66l-1.787-1.185l0.753-1.628L370.212,42.278z
		 M341.634,54.75c1.642-2.385,3.14-3.488,4.688-4.119c-0.215-2.255,0.203-5.295,2.251-11.084c-3.084,5.31-5.129,7.598-7.06,8.86
		c0.596,1.623,0.726,3.479-0.102,6.24L341.634,54.75z M345.595,74.543c-0.547,1.184-0.765,2.431-0.024,2.772
		c0.888,0.411,3.115-0.716,5.133-5.081l0.548-1.184l-3.33-1.54L345.595,74.543z"/>
	<path d="M378.41,60.73c5.582-8.23,15.105-8.764,22.594-3.684c1.956,1.326,3.662,2.877,4.783,4.13
		c1.119,1.252,1.835,2.23,2.51,2.688c0.743,0.503,1.581,0.284,2.238,0.04l4.992,3.387l0.416,10.133l-9.609,14.167l-4.452-3.02
		l-2.229-9.786c1.474-3.334,2.341-7.081-0.426-8.957c-2.428-1.647-4.536-1.009-5.908,1.015c-1.19,1.754-1.36,3.312,2.106,7.931
		c7.271,9.758,8.546,19.783,1.637,29.971c-5.767,8.5-16.086,9.773-22.833,5.197c-2.833-1.922-5.074-4.427-5.782-6.286
		c-0.576-1.475-1.311-2.859-2.188-3.455c-0.944-0.64-2.786,0.77-3.694,1.236l-5.869-3.98l-0.539-8.936l11.303-16.663l5.937,4.027
		c-0.501,3.208-0.647,7.343-0.437,9.358c0.184,2.487,1.176,5.525,3.739,7.265c1.417,0.961,3.923,1.479,5.112-0.275
		c1.693-2.496-3.082-7.508-4.774-10.823C374.099,79.574,372.187,69.905,378.41,60.73z M388.576,64.475
		c1.785-2.631,5.507-4.342,9.285-1.78c2.9,1.968,4.695,6.437,4.857,8.812c0.143,1.968-0.329,4.406-1.229,6.75l3.306,2.242
		l8.603-12.683l-3.305-2.242c-0.793,0.152-1.699,0.326-2.508-0.224c-1.013-0.687-1.796-1.71-2.646-2.779
		c-1.007-1.275-2.959-3.189-5.051-4.608c-6.679-4.53-15.163-3.785-20.014,3.367c-4.575,6.746-4.711,12.171-0.377,18.853l3.797,5.728
		c1.586,2.455,4.062,6.499,1.455,10.345c-1.831,2.698-5.569,3.709-8.402,1.786c-4.588-3.111-6.451-7.626-6.307-11.468
		c0.064-2.419,0.396-4.36,1.295-6.411l-3.374-2.287l-9.838,14.504l3.373,2.288c1.431-0.803,3.088-1.648,4.168-0.917
		c1.079,0.732,1.881,2.164,2.93,3.958c0.98,1.749,2.68,4.182,5.243,5.92c6.881,4.668,15.621,3.11,20.792-4.513
		c5.491-8.096,4.049-14.393-3.003-23.018C387.507,71.136,385.9,68.274,388.576,64.475z M395.709,85.763
		c-1.792-2.004-3.075-2.873-4.654-3.157c-1.051-1.501-2.535-2.508-4.588-3.112c3.297,3.418,5.966,6.018,7.419,8.087
		c-0.062,4.882-1.993,8.892-7.384,12.918c3.343-5.219,3.611-10.553,1.641-12.874c0.534-1.806,0.733-4.132-1.946-8.313
		c-0.982-1.455-2.534-2.507-4.25-2.884c-1.051-1.5-2.062-2.187-3.305-2.242c-1.343-4.555-0.344-7.915,2.447-12.031
		c4.348-6.409,12.153-7.024,17.888-3.134c1.754,1.189,3.146,2.331,4.199,3.538c1.074,1.319,2.417,3.117,3.766,4.032
		c1.012,0.687,2.054,0.604,2.777,0.407l1.755,1.189l-7.048,10.389l-1.281-0.869c2.234-5.182,0.757-12.587-4.505-16.157
		c-4.858-3.295-9.06-1.022-11.072,1.945c-2.426,3.576-2.494,6.583,0.794,10.882C391.673,78.789,394.785,82.477,395.709,85.763z
		 M386.559,79.358c-2.854-5.087-3.461-8.257-1.562-10.91c-0.931-2.405-0.368-4.978,2.262-8.709
		c-2.683,1.922-5.484,4.456-7.155,7.064c0.128,3.731,1.817,7.34,6.186,12.372L386.559,79.358z"/>
</g>
<polygon points="24.208,115.842 30.307,128.2 43.946,130.183 34.077,139.803 36.407,153.387 24.208,146.973 12.008,153.387 
	14.338,139.803 4.469,130.183 18.108,128.2 "/>
<polygon fill="#FFFFFF" points="23.419,111.965 28.229,124.88 41.595,128.241 30.797,136.806 31.732,150.557 20.249,142.934 
	7.46,148.072 11.161,134.796 2.323,124.221 16.093,123.638 "/>
<polygon points="438.346,120.427 432.246,132.785 418.607,134.768 428.477,144.388 426.146,157.972 438.346,151.558 
	450.545,157.972 448.216,144.388 458.085,134.768 444.445,132.785 "/>
<polygon fill="#FFFFFF" points="439.135,116.55 434.324,129.465 420.959,132.826 431.756,141.391 430.821,155.142 442.305,147.519 
	455.094,152.657 451.393,139.381 460.23,128.806 446.461,128.223 "/>
</svg>
