<?xml version="1.0" encoding="utf-8"?>
<!-- Generator: Adobe Illustrator 16.2.1, SVG Export Plug-In . SVG Version: 6.00 Build 0)  -->
<!DOCTYPE svg PUBLIC "-//W3C//DTD SVG 1.1//EN" "http://www.w3.org/Graphics/SVG/1.1/DTD/svg11.dtd">
<svg version="1.1" xmlns="http://www.w3.org/2000/svg" xmlns:xlink="http://www.w3.org/1999/xlink" x="0px" y="0px"
	 width="242.942px" height="269.291px" viewBox="0 0 242.942 269.291" enable-background="new 0 0 242.942 269.291"
	 xml:space="preserve">
<g id="Capa_1">
	<path fill="#FFFFFF" d="M122.734,0.041l0.539,111.274l17.4-109.816l-16.332,109.991L158.173,5.834l-32.806,106l49.431-98.895
		l-48.468,99.4l63.808-89.694l-62.936,90.35l76.619-78.29l-75.854,79.078l87.54-64.956l-86.906,65.856l96.311-50.021l-95.82,51.013
		l102.703-33.853l-102.37,34.914l106.571-16.855l-106.401,17.958l107.813,0.557l-107.813,0.557l106.401,17.956l-106.571-16.855
		l102.37,34.912l-102.703-33.853l95.82,51.011l-96.311-50.018l86.906,65.849l-87.54-64.949l75.854,79.072l-76.619-78.284
		l62.936,90.344l-63.808-89.686l48.468,99.392l-49.431-98.886l32.806,105.993l-33.832-105.651l16.332,109.986l-17.4-109.813
		l-0.539,111.27l-0.539-111.27l-17.399,109.813l16.332-109.986l-33.83,105.649l32.802-105.993l-49.429,98.888l48.467-99.394
		l-63.809,89.688l62.936-90.344l-76.62,78.284l75.857-79.072l-87.544,64.949l86.909-65.849l-96.311,50.018l95.821-51.011
		L13.669,154.965l102.375-34.913L9.47,136.908l106.405-17.956L8.059,118.395l107.816-0.557L9.47,99.881l106.574,16.855
		L13.669,81.823l102.708,33.853L20.557,64.663l96.311,50.021L29.958,48.827l87.544,64.956L41.646,34.705l76.62,78.29l-62.936-90.35
		l63.809,89.694l-48.467-99.4l49.429,98.895l-32.802-106l33.83,105.655L104.796,1.499l17.399,109.816L122.734,0.041z"/>
</g>
<g id="Capa_16">
	<g>
		<g>
			<polygon fill="#D9DADB" points="199.408,232.632 199.408,225.598 45.021,225.598 45.021,232.632 5.698,232.632 20.99,213.367 
				5.698,194.104 25.814,194.104 25.814,187.07 218.432,187.07 218.432,194.104 238.211,194.104 225.979,213.367 238.211,232.632 
							"/>
			<path d="M216.383,189.12v7.033h18.1l-10.931,17.214l10.931,17.214h-33.024v-7.032H42.971v7.032H9.942l13.666-17.214
				L9.942,196.153h17.922v-7.033H216.383 M220.48,185.021h-4.098H27.862h-4.098v4.1v2.935H9.942H1.455l5.277,6.65l11.642,14.664
				L6.732,228.032l-5.277,6.649h8.488h33.028h4.101v-4.101v-2.934h150.288v2.934v4.101h4.099h33.024h7.46l-3.997-6.3l-9.536-15.015
				l9.536-15.016l3.997-6.297h-7.46H220.48v-2.935V185.021L220.48,185.021z"/>
		</g>
		<polygon fill="#B0B4B7" points="42.971,230.581 42.971,196.153 9.942,196.153 23.608,213.367 9.942,230.581 		"/>
		<polygon fill="#B0B4B7" points="234.482,196.153 201.458,196.153 201.458,230.581 234.482,230.581 223.552,213.367 		"/>
		<polygon points="23.717,194.604 23.717,226.069 33.312,232.767 44.501,231.924 30.736,194.604 		"/>
		<polygon points="220.493,194.468 220.493,225.93 210.9,232.632 199.712,231.783 213.473,194.468 		"/>
		<polygon fill="#8B8B8B" points="216.383,189.12 216.383,223.549 201.458,230.581 201.32,196.153 		"/>
		<polygon fill="#8B8B8B" points="27.862,189.12 27.862,223.549 42.791,230.581 42.927,196.153 		"/>
		<g>
			<rect x="41.683" y="220.593" fill="#FFFFFF" width="160.757" height="40.697"/>
			<path d="M200.44,222.593v36.697H43.683v-36.697H200.44 M204.44,218.593h-4H43.683h-4v4v36.697v4h4H200.44h4v-4v-36.697V218.593
				L204.44,218.593z"/>
		</g>
		<g>
			<path d="M73.694,249.128h-2.792l-2.792-7.257l-1.116,2.233v5.023h-2.232v-15.631h2.232v6.698l3.351-6.698h2.791l-3.358,6.141
				L73.694,249.128z"/>
			<path d="M84.38,244.104c0,0.698-0.073,1.359-0.218,1.988c-0.146,0.629-0.391,1.178-0.733,1.648s-0.801,0.847-1.374,1.126
				c-0.572,0.278-1.286,0.419-2.142,0.419c-0.581,0-1.096-0.064-1.543-0.193c-0.448-0.127-0.836-0.305-1.165-0.531
				c-0.328-0.227-0.606-0.5-0.833-0.82c-0.228-0.319-0.408-0.672-0.545-1.055c-0.137-0.385-0.234-0.794-0.293-1.23
				c-0.057-0.437-0.087-0.887-0.087-1.352v-5.583c0-0.466,0.03-0.917,0.087-1.353c0.059-0.437,0.156-0.846,0.293-1.229
				c0.137-0.385,0.317-0.736,0.545-1.057c0.227-0.319,0.505-0.593,0.833-0.819c0.329-0.227,0.717-0.404,1.165-0.532
				c0.447-0.128,0.962-0.192,1.543-0.192c0.855,0,1.569,0.141,2.142,0.42c0.573,0.278,1.031,0.653,1.374,1.124
				c0.343,0.472,0.588,1.021,0.733,1.65c0.145,0.627,0.218,1.29,0.218,1.988V244.104z M77.681,244.662
				c0,0.419,0.037,0.8,0.113,1.143c0.076,0.344,0.2,0.637,0.375,0.882c0.175,0.244,0.404,0.434,0.689,0.565
				c0.285,0.135,0.637,0.201,1.055,0.201c0.419,0,0.771-0.066,1.056-0.201c0.285-0.132,0.515-0.321,0.69-0.565
				c0.174-0.245,0.299-0.538,0.374-0.882c0.076-0.343,0.113-0.724,0.113-1.143v-6.699c0-0.418-0.037-0.8-0.113-1.143
				c-0.075-0.344-0.2-0.638-0.374-0.881c-0.176-0.244-0.405-0.434-0.69-0.567c-0.284-0.134-0.637-0.201-1.056-0.201
				c-0.418,0-0.77,0.067-1.055,0.201s-0.515,0.323-0.689,0.567c-0.175,0.243-0.299,0.537-0.375,0.881
				c-0.076,0.343-0.113,0.725-0.113,1.143V244.662z"/>
			<path d="M92.919,249.128l-3.994-10.398v10.398h-2.233v-15.631h1.466l4.116,10.206v-10.206h2.234v15.631H92.919z"/>
			<path d="M101.288,249.286c-0.557,0-1.049-0.066-1.473-0.197c-0.425-0.131-0.793-0.306-1.106-0.522
				c-0.313-0.219-0.578-0.466-0.794-0.743c-0.215-0.275-0.393-0.559-0.53-0.85c-0.325-0.675-0.513-1.445-0.559-2.312l2.225-0.558
				c0.023,0.627,0.116,1.186,0.279,1.675c0.069,0.209,0.159,0.414,0.268,0.614c0.106,0.201,0.239,0.38,0.396,0.537
				c0.159,0.157,0.343,0.283,0.556,0.379c0.214,0.096,0.459,0.144,0.738,0.144c1.12,0,1.68-0.558,1.68-1.674
				c0-0.28-0.035-0.54-0.105-0.782c-0.07-0.241-0.175-0.473-0.313-0.696c-0.14-0.225-0.313-0.442-0.522-0.655
				c-0.211-0.212-0.455-0.432-0.733-0.657l-2.791-2.234c-0.286-0.227-0.534-0.483-0.747-0.771c-0.212-0.287-0.388-0.591-0.527-0.911
				c-0.141-0.319-0.242-0.646-0.309-0.978c-0.068-0.332-0.102-0.66-0.102-0.985c0-0.5,0.085-0.979,0.253-1.436
				c0.169-0.456,0.415-0.858,0.744-1.204s0.736-0.62,1.225-0.823c0.488-0.204,1.052-0.307,1.691-0.307
				c0.558,0,1.049,0.059,1.476,0.176c0.424,0.115,0.793,0.271,1.109,0.461c0.313,0.192,0.578,0.411,0.793,0.655
				c0.216,0.244,0.393,0.492,0.533,0.741c0.326,0.6,0.513,1.276,0.559,2.032l-2.232,0.559c-0.023-0.523-0.117-0.988-0.28-1.396
				c-0.07-0.175-0.159-0.345-0.268-0.511c-0.106-0.166-0.239-0.314-0.398-0.445c-0.156-0.131-0.341-0.236-0.553-0.317
				c-0.214-0.082-0.46-0.123-0.738-0.123c-0.293,0-0.544,0.046-0.759,0.136c-0.212,0.09-0.386,0.21-0.522,0.362
				c-0.138,0.15-0.238,0.329-0.303,0.532c-0.063,0.203-0.096,0.418-0.096,0.646c0,0.385,0.091,0.778,0.271,1.181
				s0.464,0.754,0.849,1.058l2.792,2.233c0.354,0.285,0.672,0.598,0.948,0.937c0.277,0.34,0.512,0.694,0.703,1.067
				c0.191,0.372,0.339,0.754,0.438,1.146c0.1,0.392,0.148,0.779,0.148,1.163c0,0.482-0.078,0.943-0.235,1.382
				s-0.396,0.827-0.722,1.165c-0.322,0.337-0.728,0.605-1.217,0.807S101.958,249.286,101.288,249.286z"/>
			<path d="M114.77,233.497v1.832h-2.791v13.799h-2.233v-13.799h-2.791v-1.832H114.77z"/>
			<path d="M118.141,245.221l-0.782,3.907h-2.231l3.273-15.631h2.307l3.353,15.631h-2.15l-0.839-3.907H118.141z M120.71,243.545
				l-1.117-6.698l-1.116,6.698H120.71z"/>
			<path d="M132.32,249.128l-3.995-10.398v10.398h-2.232v-15.631h1.465l4.117,10.206v-10.206h2.233v15.631H132.32z"/>
			<path d="M143.756,233.497v1.832h-2.791v13.799h-2.232v-13.799h-2.793v-1.832H143.756z"/>
			<path d="M145.789,233.497h2.232v15.631h-2.232V233.497z"/>
			<path d="M156.841,249.128l-3.995-10.398v10.398h-2.233v-15.631h1.466l4.118,10.206v-10.206h2.233v15.631H156.841z"/>
			<path d="M172.481,238.521c0-0.559-0.038-1.047-0.113-1.466c-0.076-0.418-0.201-0.768-0.376-1.047
				c-0.175-0.278-0.404-0.488-0.688-0.628c-0.286-0.14-0.637-0.21-1.057-0.21c-0.418,0-0.77,0.07-1.055,0.21
				s-0.515,0.35-0.689,0.628c-0.175,0.279-0.299,0.629-0.375,1.047c-0.076,0.419-0.113,0.907-0.113,1.466v5.023
				c0,0.838,0.063,1.513,0.192,2.024c0.128,0.513,0.296,0.906,0.506,1.187c0.209,0.279,0.447,0.466,0.715,0.558
				c0.268,0.094,0.541,0.14,0.819,0.14c0.28,0,0.553-0.046,0.82-0.14c0.268-0.092,0.507-0.278,0.716-0.558
				c0.209-0.28,0.378-0.674,0.506-1.187c0.128-0.512,0.192-1.187,0.192-2.024v-0.557h-2.234v-1.676h4.467v7.815h-1.676l-0.557-1.675
				c-0.123,0.344-0.286,0.649-0.489,0.917c-0.087,0.115-0.188,0.229-0.302,0.34c-0.112,0.11-0.242,0.208-0.387,0.293
				c-0.146,0.084-0.306,0.151-0.48,0.204s-0.365,0.079-0.576,0.079c-0.464,0-0.897-0.04-1.299-0.119
				c-0.401-0.078-0.768-0.211-1.1-0.396c-0.331-0.188-0.625-0.434-0.881-0.742s-0.473-0.694-0.65-1.16
				c-0.177-0.466-0.311-1.012-0.4-1.641c-0.09-0.627-0.135-1.357-0.135-2.188v-3.961c0-0.837,0.075-1.607,0.226-2.312
				c0.151-0.703,0.401-1.308,0.751-1.813c0.349-0.507,0.809-0.901,1.378-1.188c0.569-0.284,1.274-0.428,2.11-0.428
				c0.739,0,1.387,0.116,1.941,0.346c0.556,0.229,1.021,0.564,1.396,1.003c0.375,0.439,0.656,0.981,0.846,1.627
				c0.189,0.645,0.283,1.381,0.283,2.207H172.481z"/>
			<rect x="177.025" y="246.895" width="2.233" height="2.233"/>
		</g>
		<rect x="27.862" y="189.12" fill="#D9DADB" width="188.521" height="34.429"/>
	</g>
	<path d="M168.353,201.419l1.483,3.043l3.393,0.525l-2.487,2.328l0.541,3.333l-3.021-1.605l-3.057,1.535l0.619-3.317l-2.432-2.385
		l3.402-0.45L168.353,201.419z"/>
	<path d="M70.75,200.942l1.482,3.042l3.392,0.524l-2.486,2.324l0.542,3.335l-3.021-1.604l-3.058,1.535l0.619-3.319l-2.432-2.383
		l3.406-0.45L70.75,200.942z"/>
	<g>
		<path d="M88.77,199.285h0.392l0.242,0.161l0.052,0.175l0.364,0.58l0.271,0.457l0.121,0.31l0.188,0.296l0.107,0.259l0.054,0.159
			l-0.026,0.106l0.026,0.229l0.055,0.137l0.054,0.215l0.202,0.259l0.322,0.266l0.108,0.207l0.067,0.266l0.08,0.282l0.137,0.219
			l0.134,0.417l0.364,0.295l0.08,0.285l-0.054,0.241l-0.23,0.242l-0.107,0.2l-0.66,0.391l-0.445,0.273l-0.323,0.133l-0.134,0.109
			l-0.175,0.173l-0.135,0.055l-0.337,0.081l-0.214,0.161l-0.163,0.055l-0.472,0.285h-0.107l-0.204,0.157L88.3,207.45l-0.377,0.361
			l-0.149,0.242l-0.026,0.109v0.121l-0.028,0.163l-0.215,0.217l-0.39-0.029l0.026,0.31l-0.026,0.216l-0.107,0.163l-0.081,0.253
			l-0.137,0.162l-0.067,0.164l0.041,0.254l0.108,0.188l0.135,0.031l0.133,0.055h0.163h0.336l0.256,0.119l0.377,0.025l0.309,0.027
			l0.164,0.027h0.108l0.362,0.055l0.379,0.027l0.361-0.055l0.163-0.107l0.054-0.119l0.067-0.141l-0.026-0.102v-0.109l-0.095-0.15
			l-0.108-0.189l-0.107-0.349l0.081-0.339l0.08-0.133l0.109-0.176l0.281-0.133l0.163-0.029h0.175l0.269,0.109l0.162,0.053
			l0.202,0.229l0.109,0.242l0.054,0.714l-0.054,0.119l-0.055,0.328l-0.055,0.336l-0.08,0.215l-0.149,0.105l-0.106,0.176
			l-0.028,0.164l-0.243,0.266l-0.201,0.205l-1.187,0.955l-0.107,0.176l-0.054,0.35l0.083,0.152l0.025,0.24l-0.054,0.216
			l-0.161,0.229l-0.15,0.027l-0.432,0.078l-0.202-0.052l-0.351-0.054l-0.173-0.054l-0.243-0.106l-0.162-0.096l-0.176-0.025
			l-0.161-0.028l-0.216-0.164l-0.256-0.054l-0.457-0.278l-0.151-0.055l-0.242-0.139l-0.282-0.158l-0.243-0.109l-0.39-0.26
			L84.5,212.5l-0.337-0.162l-0.161-0.025h-0.417l-0.163-0.096l-0.202-0.188l-0.08-0.188l0.025-0.082l0.055-0.201l0.121-0.188
			l0.323-0.309l0.163-0.246l0.026-0.242l0.067-0.199l0.054-0.381v-0.176l-0.026-0.297v-0.175l-0.095-0.078l-0.026-0.242l0.147-0.082
			l-0.081-0.176l0.054-0.267l-0.028-0.164l-0.122-0.308l0.122-0.136l0.028-0.106v-0.109l-0.028-0.446l0.028-0.109v-0.888
			l-0.028-0.188v-0.254l-0.026-0.38l0.026-0.254l-0.026-0.296l0.026-0.205l0.028-0.133l-0.054-0.109l-0.067-0.495l-0.028-0.313
			l0.028-0.214l-0.108-0.325l-0.081-0.121l-0.297-0.215l-0.095-0.105l-0.026-0.138l0.026-0.254l0.175-0.242l0.377-0.151l0.581-0.079
			l0.309-0.082l0.107-0.053l0.163-0.028l1.16-0.337l0.173-0.079h0.137l0.08-0.079l0.108-0.138l0.202,0.054l0.268-0.133l0.189-0.149
			l0.418-0.242l0.109-0.054l0.523-0.496l0.081-0.188l0.028-0.205l0.175-0.188L88.77,199.285z M86.952,201.994l-0.081,0.212v0.218
			l0.055,0.149l0.051,0.214l0.054,0.362l0.028,0.139l0.055,0.106l0.026,0.582l0.026,0.102l0.054,0.176l0.054,0.272l-0.08,0.188
			l0.08,0.259v0.157l-0.054,0.163l-0.081,0.283l0.026,0.108l0.028,0.109l-0.028,0.229l0.028,0.134v0.188l0.026,0.133l-0.054,0.259
			l0.083,0.133l0.364-0.47l0.39-0.133l0.054-0.14l0.109-0.054l0.107-0.08l0.162-0.055l0.229-0.391l0.053-0.104l-0.053-0.15
			l-0.136-0.242l-0.051-0.133l-0.042-0.175l-0.188-0.406l-0.391-0.997l-0.108-0.083l-0.271-0.523l-0.052-0.188l-0.339-0.581
			L86.952,201.994z"/>
		<path d="M98.134,194.393l0.108,0.066l0.323-0.036l0.202,0.036l0.242,0.109l0.23,0.218L99.266,195l0.028,0.15v0.133l-0.108,0.242
			l-0.39,0.227l-0.135,0.031l-0.204,0.055l-0.295,0.134l-0.135,0.133l-0.12,0.149l-0.217,0.496l-0.055,0.109v0.109l-0.026,0.188
			l-0.027,0.47v0.313l-0.08,1.819l-0.067,0.792l-0.029,0.137l-0.051,0.201l0.121,0.217l-0.041,0.213l0.146,0.12v0.19l0.027,0.214
			l-0.054,0.206v0.295l-0.08,0.175l-0.095,0.321v0.163l0.055,0.146v0.107l-0.055,0.192l0.146,0.441v0.363l0.028,0.272v0.634
			l-0.08,0.079l-0.07,0.149v0.268l0.029,0.313l-0.029,0.211l-0.106,0.273l0.202,0.023l0.053,0.176v0.19v0.365l0.054,0.188
			l-0.027,0.133v0.555l0.027,0.254l-0.054,0.217l-0.08,0.242l0.051,0.201l0.082,0.295v0.229l0.055,0.164l0.026,0.133l0.026,0.26
			l0.083,0.211l0.055,0.191l0.173,0.094l0.605,0.162l0.272,0.24l0.025,0.109v0.285l-0.188,0.297l-0.39,0.336l-0.189,0.135
			l-0.081,0.199l-0.311,0.055l-0.135,0.107l-0.335,0.393l-0.082,0.188l0.163,0.363l0.146,0.136l0.055,0.271l-0.146,0.363
			l-0.217,0.216l-0.189,0.023l-0.255-0.05l-0.107-0.083h-0.136l-0.081-0.055l-0.256-0.133l-0.188-0.229l-0.217-0.135l-0.281-0.161
			l-0.109-0.133l-0.108-0.152l-0.08-0.023l-0.31-0.219l-0.39-0.162l-0.296-0.146l-0.23-0.084l-0.215-0.105l-0.297-0.16l-0.093-0.084
			l-0.054-0.145l-0.055-0.271l0.135-0.285l0.147-0.133l0.108-0.055l0.271-0.133l0.202-0.391v-0.582l0.081-0.156l-0.081-0.141
			l-0.028-0.174l-0.026-0.135l0.081-0.133l0.054-0.445v-0.188l-0.054-0.337l0.133-0.08v-0.189l0.028-0.202l0.026-0.297l0.055-0.162
			l-0.055-0.146l-0.109-0.055v-0.325l-0.133-0.415l0.028-0.34l0.081-0.242l0.053-0.441l-0.028-0.163l0.055-0.604l0.028-0.313v-0.133
			l-0.083-0.242l0.055-0.151l-0.055-0.108l-0.05-0.713l0.026-0.472v-0.321v-0.204l0.024-0.213l0.109-0.259l0.163-0.161l-0.163-0.214
			l-0.133-0.391l-0.026-0.217l0.026-0.121l-0.026-0.104l0.05-0.138l-0.024-0.392l-0.026-0.456l-0.028-0.312l-0.055-1.764
			l-0.08-0.391l-0.041-0.27l-0.026-0.285l-0.377-0.43l-0.176-0.121l-0.163-0.24l-0.051-0.285l0.134-0.242l0.228-0.16l0.432-0.03
			l0.446,0.054l0.229,0.055l0.296,0.082h0.108l0.499,0.309l0.255,0.188l0.161,0.165l0.297,0.309l0.149,0.138l0.16-0.055l0.054-0.137
			l-0.107-0.176l0.271-0.686l0.147-0.162l0.351-0.501l0.39-0.158l0.242-0.121L98.134,194.393z"/>
		<path d="M107.269,195.943l0.783,0.256l0.16,0.136l0.272,0.325l0.079,0.145l0.365,0.188h0.16h0.176l0.189,0.031l0.215-0.055h0.122
			l0.848-0.135l0.137-0.053l0.256-0.031h0.105l0.137-0.035l0.16-0.031l0.943-0.188l0.419-0.055l0.134-0.023h0.499h0.135h0.162
			l0.148-0.031l0.404,0.031l0.445-0.055l0.162,0.078l0.31,0.135l0.106-0.053l0.284-0.053l0.216,0.135l0.551,0.109l0.242,0.119
			l0.15,0.055l0.106,0.051l0.189,0.107l0.175,0.082l0.486,0.31l0.674,0.473l0.269,0.241l0.311,0.271l0.242,0.308v0.109l0.135,0.198
			l0.634,1.12l0.052,0.203l0.204,0.272l0.107,0.104l0.188,0.259l0.082,0.107l-0.216,0.278l-0.161,0.298l-0.109,0.336l-0.201,0.473
			l-0.188,0.61l-0.392,0.683l-0.081,0.193l-0.109,0.156l-0.105,0.151l-0.149,0.216l-0.161,0.267l-0.243,0.258l-0.23,0.105
			l-0.163,0.138l-0.105,0.146l-0.137,0.188l-0.335,0.029l-0.136,0.08l-0.229,0.162l-0.08,0.065l-0.163,0.164l0.271,0.109
			l0.256,0.104l0.16,0.053l0.109,0.085l0.39,0.173l0.244,0.136l0.472,0.028l0.107,0.363l0.228,0.188l0.325,0.079l0.229,0.137
			l0.082,0.23l0.053,0.078l0.446,0.605l0.107,0.243l0.161,0.476v0.309l0.122,0.294l0.026,0.201l-0.067,0.217l0.067,0.188
			l0.054,0.109l0.055,0.176l-0.055,0.27v0.309v0.188l-0.121,0.338v0.164l0.067,0.295l-0.093,0.146l-0.028,0.084l-0.106,0.416
			l-0.028,0.109l-0.025,0.211l-0.217,0.23l-0.055,0.136v0.106l0.055,0.218l-0.176,0.58l0.028,0.144l-0.08,0.326l-0.054,0.109v0.363
			l0.054,0.133v0.229l-0.081,0.557h0.188l0.095,0.107l0.108,0.049l0.16,0.141l0.028,0.105l0.052,0.121l0.284,0.105l0.269-0.023
			l0.256-0.082l0.137-0.148l-0.189-0.352l-0.121-0.199v-0.326l0.055-0.176l0.173-0.457l0.053-0.121l0.297-0.213l0.122-0.055
			l0.432-0.055l0.121,0.055l0.16,0.107l0.137,0.025l0.214,0.201l0.066,0.137l0.135,0.213l0.083,0.258v0.16l0.051,0.162v0.139
			l-0.105,0.363l-0.028,0.16l-0.081,0.148l-0.12,0.293l-0.214,0.189l-0.271,0.284l-0.094,0.109l-0.43,0.282l-0.202,0.135
			l-0.137,0.053l-0.322,0.135l-0.31,0.053l-0.189,0.031l-0.147,0.023h-0.351h-0.175h-0.106l-0.378-0.078l-0.391-0.055l-0.108-0.028
			l-0.255-0.081h-0.323l-0.081-0.161l-0.149-0.147l-0.189-0.053l-0.133-0.085l-0.311-0.133l-0.296-0.109l-0.081-0.228l-0.054-0.242
			l-0.039-0.188l-0.271-0.098l-0.08-0.156l-0.23-0.449l-0.053-0.107l-0.052-0.162l-0.163-0.135l-0.055-0.441l-0.053-0.084v-0.199
			l-0.08-0.135v-0.246l-0.054-0.495v-0.109l-0.042-0.199l0.042-0.163l0.026-0.338l0.108-0.459l0.028-0.254l-0.526-0.381
			l-0.026-0.174v-0.605v-0.188l0.133-0.418l0.054-0.297v-0.094l0.055-0.133l0.026-0.164l0.054-0.338v-0.135v-0.188v-0.136
			l0.093-0.255l-0.093-0.079l-0.054-0.189l0.147-0.312l-0.067-0.108l-0.08-0.333l-0.269-0.296l-0.135-0.368l-0.149-0.024
			l-0.243-0.108l-0.054-0.188l-0.189-0.055l-0.227-0.149l-0.189-0.053l-0.255-0.028l-0.053-0.216l-0.135,0.028l-0.137-0.028h-0.16
			l-0.175-0.107h-0.109l-0.335-0.229l-0.163-0.136l-0.081-0.157l-0.107-0.339l-0.026-0.392l-0.028-0.078l0.028-0.14l0.106-0.211
			l0.136-0.23l0.337-0.242l0.242-0.083l0.202-0.024l0.296,0.079l0.39,0.501l0.054,0.187v0.445l0.164,0.027l0.134-0.055l0.417-0.394
			l0.081-0.157l0.054-0.108l0.256-0.525v-0.121l0.081-0.272v-0.634l0.081-0.309l0.052-0.351l-0.106-0.174l-0.027-0.109l-0.026-0.32
			v-0.526l0.159-0.084l0.055-0.386l-0.107-0.189l-0.054-0.258l-0.053-0.135l-0.028-0.161l-0.055-0.284l-0.08-0.58l-0.23-0.266
			l-0.106-0.151l-0.217-0.375l-0.093-0.108l-0.323-0.254l-0.216-0.084l-0.552-0.133h-0.147l-0.164,0.055l-0.133,0.023l-0.337,0.193
			l-0.242,0.254l-0.083,0.187l-0.093,0.219l-0.055,0.254v0.161l-0.026,0.109l-0.136,0.2l-0.051,0.107l0.134,0.419l-0.028,0.93
			l0.028,0.809l-0.028,0.133l-0.026,0.109l-0.079,0.188l0.051,0.282l0.054,0.498l0.055,0.139l-0.055,0.239l0.082,0.309l-0.027,0.527
			l-0.188,0.351l-0.055,0.259l0.028,0.767l0.026,0.527l-0.055,0.211v0.259l0.055,0.297v0.23v0.187l0.053,0.188l0.026,0.174
			l0.028,0.109l0.055,0.297v0.254l-0.028,0.108l-0.16,0.188v0.258l0.294,0.055v0.212l-0.053,0.229l0.081,0.189l0.147,0.191v0.121
			l-0.055,0.32l0.028,0.137l0.026,0.121l0.082,0.406l0.052,0.199v0.164l0.027,0.16l0.081,0.229l0.081,0.215l0.109,0.135l0.176,0.137
			l0.133,0.23l0.189,0.133l0.338,0.229l0.579,0.109l0.109,0.025l0.134,0.029l0.282,0.158l0.162,0.283l0.026,0.242l-0.08,0.192
			l-0.08,0.145l-0.081,0.164l-0.083,0.026l-0.281,0.189l-0.445,0.135l-0.405,0.039l-0.311,0.137l-0.242-0.086l-0.282,0.086h-0.083
			l-0.134-0.086l-0.161,0.031h-0.23l-0.188-0.151l-0.256-0.023l-0.527-0.109l-0.134,0.055l-0.189,0.023l-0.255-0.078l-0.163-0.078
			l-0.16-0.055h-0.134l-0.121,0.023l-0.189-0.052l-0.297-0.026l-0.175-0.027l-0.553-0.082l-0.323-0.078h-0.632l-0.447,0.078
			l-0.105,0.028l-0.256,0.026l-0.163,0.081l-0.08,0.161l-0.23,0.133l-0.214,0.259l-0.661,0.352l-0.39-0.084l-0.325-0.213
			l-0.122-0.162l-0.08-0.229v-0.473l0.149-0.43l0.052-0.149l0.107-0.188l0.163-0.055l0.106-0.109l0.15-0.133l0.214-0.205
			l0.162-0.158h0.284l0.135-0.137l0.658-0.389l0.135-0.082l0.122-0.109l0.083-0.105l0.213-0.367l0.055-0.188l0.028-0.254
			l0.081-0.215l-0.055-0.254l0.108-0.242l-0.053-0.285l0.092-0.164l0.055-0.323h0.188l-0.08-0.176l-0.108-0.049l-0.175-0.246
			l0.204-0.473l0.105-0.134l-0.105-0.392l-0.028-0.188l0.028-0.146v-0.109l-0.028-0.294l0.08-0.285l-0.026-0.109l-0.148-0.133
			l0.067-0.136l0.055-0.123v-0.35l0.026-0.226l-0.148-0.054l-0.134-0.218l0.106-0.416l0.028-0.218l-0.028-0.229l0.095-0.242v-0.309
			l0.026-0.108v-0.634l0.054-0.219l0.026-0.223v-0.743l-0.026-0.109v-0.109l-0.054-0.175l0.108-0.214l0.025-0.444l-0.255-0.187
			l0.028-0.109l0.122-0.201l0.105-0.216l-0.053-0.109l-0.026-0.161l0.134-0.286l-0.026-0.156l-0.162-0.138l-0.055-0.336l-0.039-0.16
			l-0.028-0.175l-0.215-0.526l-0.134-0.133l-0.204-0.164l-0.189-0.107l-0.243-0.15l-0.106-0.104l-0.121-0.085l-0.134-0.133
			l-0.083-0.109l-0.054-0.174l-0.052-0.218l-0.028-0.133l0.028-0.109l-0.055-0.121l0.161-0.32l0.364-0.285L107.269,195.943z"/>
		<path d="M130.093,199.5l0.499-0.054l0.161,0.082l0.283,0.093l0.244,0.271l0.133,0.188l0.081,0.149l0.175,0.106l0.109,0.08
			l0.08,0.165l0.107,0.133l0.201,0.146l0.164,0.084l0.107,0.077l0.633,0.137l0.336,0.081l0.217,0.338l-0.027,0.241l-0.055,0.254
			l-0.268,0.242l-0.257,0.176l-0.163,0.107l-0.079,0.136l-0.081,0.391v1.794l-0.095,0.321l-0.026,0.309v0.163l0.026,0.162
			l0.055,0.726l0.04,0.192v0.133v0.199v0.109l0.026,0.109l0.028,0.108l-0.055,0.162v0.146l0.106,0.271l-0.106,0.161v0.174
			l0.189,0.27l-0.108,0.204l-0.026,0.267l0.105,0.218l-0.079,0.228v0.188l0.025,0.285l0.108,0.551l0.135,0.055l0.256,0.027
			l0.217,0.08l0.135,0.135l0.106,0.16v0.23l-0.161,0.406l-0.135,0.119l-0.336,0.352l-0.351,0.229l-0.176,0.188l-0.109,0.309
			l-0.08,0.162l0.163,0.135l0.081,0.26l0.04,0.106l-0.095,0.352l-0.135,0.228l-0.298,0.107l-0.146,0.028h-0.162h-0.189l-0.281-0.082
			l-0.188-0.082l-0.137-0.023l-0.362-0.23l-0.27-0.108l-0.176-0.162l-0.162-0.176l-0.215-0.242l-0.121-0.133l-0.026-0.139
			l-0.109-0.146l-0.108-0.084l-0.16-0.051l-0.149-0.027l-0.053-0.107l-0.108-0.109l-0.133-0.055l-0.498-0.09l-0.395,0.145
			l-0.133,0.139l-0.135,0.361v0.217l0.108,0.158l0.188,0.313l0.094,0.188l-0.026,0.188l-0.067,0.15l-0.162,0.188l-0.322,0.133
			l-0.365-0.023l-0.16-0.031l-0.311-0.078l-0.107-0.055l-0.391-0.23l-0.162-0.106l-0.163-0.081l-0.106-0.083l-0.338-0.242
			l-0.135-0.176l-0.605-0.375l-0.202-0.176h-0.108l-0.107-0.053l-0.309-0.109l-0.297-0.078l-0.163-0.164l-0.067-0.203l0.041-0.242
			l0.055-0.107l0.135-0.229l0.443-0.523l0.082-0.191l0.027-0.16l0.053-0.336v-0.393l-0.027-0.513l-0.08-0.176l0.027-0.158
			l0.027-0.218l-0.055-0.229l0.134-0.108v-0.388l0.055-0.218l-0.028-0.133l-0.026-0.15l0.055-0.163l-0.028-0.375l0.028-0.176v-0.133
			l-0.108-0.164v-0.149l0.054-0.211l-0.026-0.556l-0.027-0.297l-0.188-0.309l0.081-0.271l0.082-0.176v-0.188l0.025-0.472
			l-0.025-0.188l-0.055-0.23l-0.027-0.188l-0.148-0.106h-0.135l-0.082-0.139h-0.295l-0.309-0.31l-0.028-0.188l0.134-0.47
			l0.108-0.133l0.7-0.73l0.082-0.108l0.134-0.158l0.163-0.243v-0.174l-0.108-0.163l-0.081-0.271l0.026-0.177l0.216-0.471
			l0.283-0.054h0.27l0.176,0.028l0.35,0.121l0.08,0.079l0.23,0.187l0.161,0.109l0.526,0.447l0.107,0.109l0.189,0.077l0.174,0.081
			l0.135,0.121l0.311,0.107l0.027,0.138h0.161l0.294,0.158l0.029,0.204v0.268l-0.107,0.204l-0.136,0.133l-0.188,0.271l-0.028,0.108
			v0.121l-0.053,0.188l0.027,0.188l0.054,0.81v0.164l-0.081,0.387l0.053,0.38v1.105v0.199l-0.025,0.376l0.025,0.445l0.053,0.34
			l0.029,0.214l0.025,0.189l-0.055,0.146l0.029,0.487l-0.029,0.226l-0.024,0.501l-0.122,0.526l-0.08,0.161l-0.137,0.213l-0.08,0.369
			l0.107,0.188l0.336,0.023l0.109,0.031l0.108,0.051l0.416,0.027l0.108,0.066l0.217,0.027l0.311,0.055l0.241,0.055l0.417,0.078
			l0.217-0.133l-0.027-0.367l-0.189-0.156l-0.188-0.314l-0.106-0.658l0.026-0.634v-0.134l0.054-0.201v-0.083l0.026-0.297
			l-0.026-0.309l0.026-0.106l0.028-0.363l0.026-0.136l0.079-0.352l0.163-0.229l-0.188-0.05l-0.054-0.164l-0.055-0.309l0.028-0.218
			v-0.392l0.054-0.496v-0.137l0.026-0.135v-0.133l-0.026-0.175l-0.054-0.432l-0.083-0.202l-0.228-0.109l-0.162-0.109l-0.311-0.156
			l-0.159-0.261l-0.028-0.159l0.055-0.421l0.176-0.296l0.133-0.2l0.135-0.082l0.079-0.104l0.163-0.164l0.096-0.174l0.215-0.162
			l0.215-0.056l0.203-0.054l-0.121-0.188l-0.163-0.282l-0.054-0.242l0.028-0.149l0.054-0.19l0.256-0.294L130.093,199.5z"/>
		<path d="M140.075,199.178l0.162,0.026l0.474,0.161l0.105,0.081l0.121,0.082l0.351,0.146l0.136,0.084l0.229,0.103l0.133,0.086
			l0.445,0.212l0.822,0.476l0.309,0.023l0.377-0.187l0.34-0.136l0.269,0.026h0.121l0.161,0.109l0.162,0.308l-0.026,0.298
			l-0.026,0.133l-0.297,0.419l-0.392,0.269l-0.136,0.066l-0.201,0.138l-0.188,0.104l-0.217,0.163l-0.229,0.083l-0.027,0.199
			l-0.106,0.109l-0.028,0.219l0.028,0.145l0.026,0.242l-0.081,0.282l-0.108,0.135l-0.176,0.084l-0.297,0.023l-0.188-0.023
			l-0.525-0.164l-0.12-0.149l-0.109-0.026l-0.16-0.133l-0.634-0.446l-0.391-0.297l-0.244-0.228l-0.255-0.188l-0.108-0.135
			l-0.106-0.029l-0.364-0.337l0.147,0.366l0.055,0.268v0.121v0.38l-0.026,0.199l-0.028,0.188v0.325v0.176l0.028,0.297l0.105,0.254
			l0.327,0.218l0.146,0.025l0.134,0.027l0.08,0.055h0.217l0.498,0.176l0.202,0.025l0.634,0.138h0.215l0.365,0.188l0.402,0.107
			l0.204,0.146l0.216,0.055l0.133,0.027l0.201,0.052l0.244,0.137l0.309,0.389l0.083,0.404l-0.055,0.176l0.081,0.19l-0.055,0.279
			l-0.026,0.352l0.026,0.109l0.028,0.5l-0.083,0.254v0.242v0.109l-0.08,0.524l0.026,0.133l-0.026,0.121v0.108v0.447l0.026,0.133
			v0.297l0.054,0.176l0.219,0.16l0.053,0.164v0.109l-0.136,0.277l-0.242,0.244h-0.149l-0.43,0.053l-0.337,0.15l-0.216,0.025h-0.282
			l-0.364,0.139l-0.27,0.158l-0.309-0.08l-0.109,0.217l-0.216,0.121l-0.579,0.188l-0.135,0.109l-0.283,0.416l0.107,0.395v0.104
			l-0.078,0.324l-0.244,0.256l-0.338,0.105l-0.214-0.023l-0.176,0.023l-0.659-0.242l-0.217-0.173l-0.281-0.135l-0.082-0.083
			l-0.215-0.157l-0.082-0.055l-0.283-0.26l-0.107-0.105l-0.161-0.137l-0.161-0.121l-0.418-0.242l-0.311-0.107h-0.471l-0.405,0.295
			l-0.106,0.312l-0.068,0.213l0.041,0.312l0.053,0.106l0.109,0.109l0.214,0.108l0.135-0.025l0.257-0.083l0.107-0.08h0.256
			l0.244,0.08l0.16,0.161l0.107,0.121l0.066,0.109l0.029,0.351l-0.029,0.09l-0.066,0.193l-0.16,0.268l-0.242,0.258l-0.499,0.104
			h-0.202h-0.297l-0.163-0.078l-0.12-0.025l-0.105,0.025l-0.137-0.109l-0.215-0.145l-0.419-0.381l-0.081-0.109l-0.079-0.144
			l-0.176-0.43v-0.15l-0.083-0.46l-0.025-0.309v-0.188l0.108-0.365l0.093-0.299l0.083-0.174l0.052-0.105l0.217-0.445l0.108-0.08
			l0.173-0.084l0.352-0.266l0.391-0.258l0.216-0.16l0.108-0.082l0.147-0.23l0.109-0.211l0.024-0.164l-0.024-0.23l0.079-0.271
			l0.365-0.361l0.268-0.055l0.581,0.055l0.202,0.108l0.349,0.176l0.364,0.216l0.296,0.213l0.108,0.121l0.283,0.193l0.241-0.086
			l0.23,0.242l0.659,0.393l0.363,0.135l0.325,0.027l0.188-0.027l0.094-0.109l0.082-0.188l-0.418-0.496l-0.188-0.418l-0.029-0.139
			l-0.025-0.253l0.055-0.688l-0.055-0.417l-0.146-0.079l-0.352-0.138l-0.2-0.052l-0.189-0.106l-0.217-0.055l-0.229-0.055
			l-0.081-0.121l-0.604-0.107h-0.189l-0.311-0.135l-0.498-0.192l-0.161-0.09l-0.216-0.055l-0.523-0.297l-0.164-0.204l-0.311-0.375
			l-0.079-0.229l-0.055-0.58l-0.025-0.296v-0.363v-0.35l0.08-0.284l0.026-0.133l0.028-0.164l-0.028-0.228l0.053-0.219l-0.079-0.133
			l0.026-0.199l0.107-0.219l-0.107-0.188l-0.081-0.392l-0.335-0.254l-0.055-0.138l0.025-0.297l0.108-0.175l0.176-0.133l0.243-0.079
			h0.105l0.137,0.025l0.283-0.056l0.107-0.023l0.417-0.109l0.323,0.079l0.176-0.056l0.161-0.077l0.339-0.096h0.213l0.336-0.052
			l0.137-0.053l0.107-0.03l0.215-0.079l0.081-0.109l0.066-0.187l-0.066-0.282l0.04-0.133l0.055-0.165l0.295-0.312l0.23-0.105
			L140.075,199.178z"/>
		<path d="M150.613,199.313h0.146l0.297,0.024l0.632,0.312l0.138,0.212l0.256,0.086l0.876,0.657l0.229,0.109l0.404,0.23l0.121,0.054
			l0.162,0.054l0.16,0.054l0.391,0.158l0.338,0.097l0.431,0.295l0.055,0.309l-0.028,0.163l-0.08,0.164l-0.08,0.106l-0.082,0.39
			l0.029,0.161v0.176l-0.109,0.377l-0.055,0.366l0.08,0.417l-0.08,0.295v0.135l0.027,0.174l-0.027,0.137v0.364l-0.055,0.135v0.24
			l0.028,0.175l-0.028,0.328v0.211l0.055,0.121l0.027,0.216l-0.027,0.164l-0.055,0.254l0.082,0.297v0.229l-0.027,0.136l-0.08,0.522
			l-0.067,0.109l0.121,0.083l-0.054,0.105l0.107,0.7l0.053,0.378l-0.053,0.08l0.027,0.174l-0.027,0.141l0.082,0.242l0.241,0.078
			l0.229,0.309v0.109l-0.119,0.203l-0.109,0.156l-0.108,0.055l-0.363,0.086l-0.109,0.053l-0.133,0.08h-0.19l-0.2,0.025l-0.188,0.084
			l-0.216,0.066l-0.525,0.24l-0.284,0.084l-0.498,0.188l-0.106,0.066l-0.605,0.27l-0.219,0.189l-0.105,0.176l0.025,0.213l0.135,0.26
			l0.055,0.32l-0.109,0.216l-0.47,0.309l-0.339-0.023l-0.134-0.055l-0.106-0.027l-0.082-0.082l-0.364-0.228l-0.295-0.055
			l-0.055-0.109l-0.229-0.023l-0.106-0.055l-0.107-0.081l-0.204-0.083l-0.106-0.121l-0.446-0.242l-0.348-0.309l-0.716-0.324
			l-0.202-0.08l-0.163-0.084l-0.134-0.066h-0.105l-0.338-0.158l-0.189-0.055l-0.175-0.244l0.082-0.281l0.335-0.393l0.055-0.16
			l0.109-0.242l0.08-0.309l0.041-0.328l0.025-0.078l0.08-0.622l0.029-0.632l0.133-0.105l-0.162-0.162v-0.394v-0.35v-0.12
			l-0.025-0.163l0.055-0.243l-0.029-0.145l-0.025-0.38l0.109-0.363v-0.163l-0.109-0.188l0.025-0.175l0.084-0.268l-0.109-0.107
			l-0.029-0.259v-0.105v-0.258l0.055-0.133l-0.055-0.162l-0.025-0.188l0.025-0.417l-0.025-0.219l-0.025-0.47l-0.15-0.363
			l-0.159-0.109l-0.163-0.188l-0.055-0.228l0.026-0.085l0.083-0.134l0.055-0.108l0.322-0.146l0.28-0.083l0.244-0.025l0.363-0.081
			l0.164-0.028l0.362-0.107l0.365-0.133l0.605-0.176l0.242-0.217l0.337-0.188l0.243-0.229l0.135-0.24l0.055-0.177l-0.029-0.296
			l0.029-0.109l0.119-0.2l0.217-0.163L150.613,199.313z M150.005,202.154l-0.213,0.082v0.161l0.025,0.121l0.107,0.215v0.523
			l0.026,0.501v0.352l0.028,0.121v0.078v0.138v0.268v0.15v0.133l-0.028,0.218l0.054,0.174v0.43l0.029,0.175l0.025,0.219
			l-0.055,0.242l-0.054,0.282l0.188,0.418v0.109l-0.135,0.349l0.029,0.199l-0.029,0.219l-0.08,0.229l0.055,0.105l-0.055,0.27
			l-0.055,0.525l-0.053,0.339l-0.108,0.239l-0.147,0.309l-0.055,0.141l0.121,0.133l0.406,0.16l0.174,0.027h0.107l0.352,0.094h0.256
			l0.134,0.027l0.554,0.107h0.162l0.281-0.025l0.055-0.203v-0.109l-0.311-0.352l-0.162-0.283l-0.08-0.524l0.027-0.188l0.053-0.686
			l0.029-0.281v-0.163l-0.029-0.078l0.029-0.259l-0.055-0.134l0.025-0.472l0.19-0.188l0.026-0.109l-0.164-0.312l0.029-0.242
			l0.135-0.309l-0.188-0.217v-0.133l-0.055-0.339v-0.524l-0.055-0.214l0.055-0.259v-0.297l0.055-0.188l-0.029-0.254l0.053-0.216
			l0.109-0.23v-0.215l-0.404,0.106l-0.174-0.053l-0.188-0.054l-0.218-0.136l-0.2-0.146l-0.164-0.161l-0.36-0.109L150.005,202.154z"
			/>
	</g>
</g>
<g id="Capa_15">
	<g>
		<g>
			<g>
				<g>
					<g>
						<g>
							<g>
								<path fill-rule="evenodd" clip-rule="evenodd" d="M58.195,153.35c2.502,4.78,6.465,7.648,8.855,6.399
									c2.377-1.244,2.282-6.132-0.221-10.917c-2.509-4.789-6.469-7.654-8.852-6.409C55.593,143.675,55.69,148.565,58.195,153.35z"
									/>
								<path d="M48.253,157.514c-4.017-9.282,4.937-13.731,4.937-13.731l4.787-1.359l9.985,16.216
									C67.962,158.639,53.203,168.219,48.253,157.514z"/>
								<path fill-rule="evenodd" clip-rule="evenodd" fill="#D1AB6F" d="M58.673,145.265c6.601,1.673,7.279,11.217,7.279,11.217
									s-10.247,6.978-14.223,0.191C47.754,149.889,54.637,145.412,58.673,145.265z"/>
								<path fill="#31738B" d="M64.442,150.671c0.659,5.666-2.596,7.26-5.333,8.725c3.562-0.733,6.843-2.914,6.843-2.914
									S65.583,152.647,64.442,150.671z"/>
							</g>
							<path fill-rule="evenodd" clip-rule="evenodd" fill="#D7DADD" d="M58.673,145.265c0,0-5.335,0.104-7.507,5.309
								c-0.619,2.507,11.895-2.273,10.841-3.454C60.812,145.833,58.673,145.265,58.673,145.265z"/>
						</g>
						<path fill="#D7DADD" d="M100.976,177.86c-44.402-11.203-71.407-56.443-60.202-100.844
							C51.979,32.618,97.219,5.609,141.623,16.815c44.399,11.208,71.403,56.449,60.198,100.848
							C190.616,162.063,145.378,189.063,100.976,177.86z"/>
						<path d="M142.235,18.023c43.493,10.974,69.85,55.133,58.874,98.627c-10.979,43.488-55.134,69.848-98.626,58.871
							c-43.493-10.979-69.852-55.129-58.875-98.623C54.585,33.405,98.741,7.044,142.235,18.023 M143.131,14.476
							C97.751,3.023,51.517,30.624,40.062,76.003c-4.937,19.563-12.361,84.417,61.528,103.061
							c44.469,11.225,91.359-15.141,103.066-61.521C216.108,72.166,188.509,25.93,143.131,14.476L143.131,14.476z"/>
						<path fill="#FCFCFC" d="M60.315,105.498c-8.288,10.353-7.533,23.876-5.689,28.154C26.501,92.848,47.871,35.771,96.847,19.804
							C80.206,27.38,46.127,59.437,60.315,105.498z"/>
						<path d="M142.235,18.023c-1.506-0.318-2.987-0.704-4.478-0.997c40.625,10.476,65.14,52.068,54.781,93.108
							c-3.151,14.129-12.488,31.133-29.17,41.643c-3.176,1.714-10.305,7.683-16.583,10.963c-14.46,5.858-30.799,7.357-47.036,3.258
							c-39.896-10.068-64.367-50.097-55.822-90.302c-0.11,0.399-0.218,0.797-0.32,1.203c-10.977,43.494,15.382,87.644,58.875,98.623
							c43.493,10.977,87.647-15.383,98.626-58.871C214.649,62.997,178.229,25.642,142.235,18.023z"/>
						<g>
							<path fill-rule="evenodd" clip-rule="evenodd" d="M188.956,134.075c-2.357,5.858-6.64,9.648-9.561,8.471
								c-2.914-1.173-3.364-6.873-1.004-12.734c2.37-5.856,6.646-9.646,9.563-8.468C190.872,122.523,191.322,128.22,188.956,134.075
								z"/>
							<path d="M201.004,137.779c3.604-11.264-7.324-15.409-7.324-15.409l-14.249,7.766l-1.229,11.228
								C178.201,141.363,196.478,150.812,201.004,137.779z"/>
							<path fill-rule="evenodd" clip-rule="evenodd" fill="#D1AB6F" d="M187.467,124.726c-7.485,2.707-7.173,13.892-7.173,13.892
								s12.726,6.937,16.571-1.417C200.705,128.853,192.18,124.432,187.467,124.726z"/>
							<path fill="#31738B" d="M181.381,131.679c8.254,5.338,15.82,3.577,16.288,3.113c-2.153,11.908-17.375,3.825-17.375,3.825
								S180.283,134.116,181.381,131.679z"/>
						</g>
					</g>
				</g>
			</g>
			<g>
				<path d="M85.329,98.931c-0.399,0-0.72-0.316-0.734-0.71c-0.002-0.047-0.013-0.16-0.027-0.334
					c-0.059-0.658-0.184-2.029-0.308-4.022c-0.025-0.404,0.282-0.75,0.685-0.777c0.405-0.023,0.75,0.281,0.776,0.685
					c0.123,1.974,0.244,3.33,0.302,3.981c0.031,0.332,0.036,0.388,0.036,0.446C86.059,98.604,85.732,98.931,85.329,98.931z
					 M84.773,90.163c-0.394,0-0.717-0.31-0.731-0.706c-0.054-1.46-0.089-2.943-0.107-4.409c-0.004-0.403,0.319-0.736,0.723-0.74
					c0.002,0,0.007,0,0.01,0c0.401,0,0.729,0.321,0.731,0.723c0.017,1.454,0.053,2.924,0.106,4.374
					c0.015,0.404-0.302,0.743-0.706,0.759C84.79,90.163,84.781,90.163,84.773,90.163z M84.67,81.379c-0.002,0-0.005,0-0.01,0
					c-0.402-0.007-0.725-0.337-0.72-0.743c0.021-1.478,0.059-2.962,0.115-4.411c0.015-0.403,0.36-0.718,0.762-0.702
					c0.403,0.016,0.718,0.355,0.702,0.76c-0.058,1.437-0.096,2.908-0.113,4.374C85.399,81.056,85.072,81.379,84.67,81.379z
					 M85.019,72.6c-0.018,0-0.032,0-0.051-0.001c-0.403-0.026-0.708-0.376-0.683-0.779c0.1-1.483,0.22-2.964,0.359-4.401
					c0.038-0.402,0.395-0.698,0.796-0.659c0.404,0.038,0.697,0.396,0.659,0.798c-0.137,1.423-0.255,2.889-0.352,4.358
					C85.721,72.303,85.399,72.6,85.019,72.6z M85.858,63.854c-0.031,0-0.064-0.001-0.095-0.005
					c-0.399-0.051-0.684-0.417-0.633-0.819c0.187-1.472,0.401-2.942,0.633-4.368c0.066-0.399,0.442-0.668,0.841-0.606
					c0.398,0.064,0.669,0.441,0.603,0.841c-0.228,1.408-0.438,2.861-0.626,4.318C86.536,63.586,86.222,63.854,85.858,63.854z
					 M87.273,55.192c-0.047,0-0.096-0.003-0.145-0.014c-0.396-0.082-0.651-0.468-0.572-0.863c0.296-1.465,0.625-2.917,0.969-4.316
					c0.095-0.393,0.491-0.631,0.885-0.534c0.393,0.097,0.631,0.494,0.534,0.886c-0.34,1.378-0.662,2.811-0.954,4.255
					C87.921,54.952,87.615,55.192,87.273,55.192z M89.392,46.668c-0.072,0-0.139-0.01-0.21-0.032
					c-0.388-0.115-0.607-0.523-0.489-0.91c0.428-1.439,0.895-2.854,1.382-4.212c0.136-0.38,0.555-0.578,0.935-0.44
					c0.381,0.136,0.579,0.555,0.442,0.938c-0.48,1.329-0.936,2.721-1.359,4.134C89.999,46.462,89.706,46.668,89.392,46.668z
					 M92.373,38.411c-0.094,0-0.189-0.021-0.283-0.06c-0.374-0.158-0.546-0.587-0.388-0.959c0.594-1.404,1.182-2.765,1.75-4.04
					c0.164-0.37,0.596-0.536,0.967-0.372c0.371,0.165,0.534,0.599,0.371,0.967c-0.564,1.269-1.15,2.62-1.741,4.015
					C92.931,38.242,92.66,38.411,92.373,38.411z M95.95,30.394c-0.104,0-0.211-0.023-0.312-0.071
					c-0.365-0.174-0.52-0.611-0.347-0.977c0.666-1.401,1.323-2.732,1.951-3.957c0.188-0.359,0.626-0.501,0.987-0.314
					c0.36,0.184,0.502,0.625,0.317,0.985c-0.624,1.21-1.274,2.527-1.933,3.915C96.488,30.238,96.224,30.394,95.95,30.394z
					 M99.994,22.605c-0.125,0-0.253-0.033-0.367-0.1c-0.35-0.203-0.47-0.651-0.267-1c0.855-1.47,1.663-2.733,2.405-3.756
					c0.236-0.326,0.695-0.399,1.022-0.163c0.324,0.237,0.397,0.695,0.162,1.022c-0.709,0.982-1.495,2.205-2.323,3.632
					C100.492,22.474,100.246,22.605,99.994,22.605z"/>
			</g>
			<path fill="#0071BC" d="M131.904,16.106c-2.382-0.378-5.348-0.561-8.278-0.561c-6.71,3.907-22.782,27.643-25.08,63.074
				c-2.131,54.382,8.982,92.748,8.982,93.279c0,0.529,10.851-7.409,10.851-7.409s-14.07-41.895-9.792-90.239
				C111.687,39.242,124.867,22.472,131.904,16.106z"/>
			<path fill="#DE3A36" d="M115.471,75.045c3.576-30.29,17.342-49.748,24.048-57.543c-5.35-1.396-6.544-1.181-7.614-1.396
				c-7.188,6.593-21.166,24.236-23.674,60.791c-4.24,46.362,9.886,87.591,9.886,87.591l6.086,0.532
				C124.202,165.021,114.748,126.672,115.471,75.045z"/>
			<g>
				<path d="M171.564,99.1c-4.453-9.202-9.782-16.119-15.843-20.553c-5.518-4.036-11.674-6.081-18.305-6.082h-0.007
					c-5.288,0-10.89,1.313-16.644,3.904c-4.469,2.011-9.051,4.798-13.62,8.286c-4.247,3.244-7.674,6.476-9.8,8.618L97.01,93.61
					l-0.369-0.297c-0.216-0.171-0.432-0.34-0.644-0.502c-3.519-2.669-6.896-4.021-10.032-4.021c-2.112,0-4.049,0.603-5.762,1.797
					c-0.588,0.411-1.153,0.899-1.682,1.449l-0.276,0.293l-0.357-0.194c-4.597-2.488-9.033-3.75-13.181-3.751
					c-6.697,0-12.624,3.233-17.139,9.349c-3.214,4.354-4.607,8.735-4.662,8.919l-0.545,1.74l0.981,1.537
					c0.084,0.132,2.104,3.269,5.394,6.379c4.642,4.387,9.683,6.71,14.575,6.71c0.364,0,0.727-0.014,1.08-0.036l0.742-0.051
					l-0.193,0.713c-0.312,1.173-0.457,2.322-0.432,3.415c0.084,3.469,1.852,6.525,4.978,8.607l0.104,0.068l0.108,0.063
					c1.53,0.879,3.347,1.375,5.396,1.463l0.17,0.007l0.132,0.105c3.098,2.42,6.482,3.648,10.065,3.648
					c4.774,0,9.548-2.208,14.186-6.566l0.175-0.168l0.241,0.026c0.504,0.053,1.002,0.078,1.485,0.078
					c2.754,0,5.164-0.818,7.161-2.432c1.586-1.281,2.501-2.769,2.941-3.483l0.013-0.023c0.036-0.055,0.071-0.109,0.101-0.161
					l0.165-0.258l0.123-0.283c0.347-0.804,0.595-1.644,0.737-2.5l0.115-0.681l0.629,0.288c6.278,2.876,12.585,4.337,18.748,4.337
					c7.006,0,13.68-1.909,19.826-5.677c7.169-4.392,13.655-11.352,19.284-20.691l1.097-1.818L171.564,99.1z"/>
				<path fill="#FFFFFF" d="M79.499,97.701c-24.467-16.397-32.778,10.176-32.778,10.176s14.866,23.294,29.972,2.927
					c-1.565,1.955-2.657,5.15-3.866,7.491c-2.065,1.521-7.96,9.599-1.096,14.163c2.033,1.171,4.498,0.936,4.962,0.936
					c0.464,0,9.033,10.356,21.884-3.274c6.907,1.754,9.135-2.575,9.953-3.864c2.225-5.15-2.809-10.652-2.809-10.652
					s35.586,29.733,62.392-14.74c-26.104-53.973-70.839-1.647-70.839-1.647S85.232,85.77,79.499,97.701z"/>
				<path fill="#D1AB6F" d="M101.43,106.417c35.82-52.326,58.763-6.094,58.763-6.094s-5.153,11.479-18.963,17.385
					C126.802,123.222,107.241,119.333,101.43,106.417z"/>
				<path fill="#D1AB6F" d="M50.155,107.119c4.473,5.997,9.047,8.106,12.761,7.961c8.542-0.336,14.047-12.995,14.047-12.995
					s-6.327-7.217-14.047-6.086C58.81,96.599,54.304,100.127,50.155,107.119z"/>
				<g>
					<path fill="#6D6D6D" d="M85.537,136.323c-0.312,0-0.625-0.017-0.931-0.045l0.038-0.436c0.562,0.051,1.139,0.053,1.717,0.007
						l0.036,0.437C86.11,136.309,85.82,136.323,85.537,136.323z M88.161,136l-0.104-0.428c0.543-0.128,1.097-0.305,1.645-0.52
						l0.163,0.412C89.293,135.685,88.723,135.868,88.161,136z M82.839,135.963c-0.565-0.15-1.133-0.354-1.684-0.602l0.18-0.404
						c0.531,0.24,1.076,0.436,1.619,0.583L82.839,135.963z M91.48,134.717l-0.206-0.388c0.496-0.262,0.995-0.561,1.493-0.886
						l0.241,0.369C92.5,134.144,91.987,134.45,91.48,134.717z M79.582,134.512c-0.482-0.307-0.957-0.647-1.446-1.045l0.279-0.339
						c0.475,0.384,0.934,0.716,1.401,1.013L79.582,134.512z M94.448,132.777l-0.268-0.348c0.441-0.341,0.893-0.718,1.337-1.113
						l0.291,0.329C95.356,132.047,94.898,132.426,94.448,132.777z M75.86,132.574c-0.277,0-0.545-0.01-0.802-0.027l0.033-0.438
						c0.245,0.016,0.505,0.026,0.769,0.026c0.208,0,0.39-0.006,0.53-0.011l0.048-0.002c0.21-0.007,0.31-0.009,0.417,0.002
						l-0.051,0.437c-0.086-0.009-0.175-0.004-0.35,0l-0.048,0.003C76.261,132.569,76.076,132.574,75.86,132.574z M73.285,132.221
						c-0.398-0.123-0.771-0.284-1.106-0.472c-0.187-0.125-0.354-0.247-0.513-0.368l0.272-0.347c0.147,0.114,0.305,0.23,0.472,0.339
						c0.294,0.168,0.637,0.315,1.005,0.429L73.285,132.221z M97.098,130.433l-0.308-0.309c0.284-0.284,0.573-0.582,0.858-0.885
						l0.354-0.378l0.32,0.302l-0.355,0.379C97.681,129.847,97.388,130.146,97.098,130.433z M70.389,130.101
						c-0.371-0.499-0.651-1.047-0.823-1.625l0.421-0.128c0.161,0.531,0.413,1.032,0.753,1.493L70.389,130.101z M101.59,129.692
						c-0.561-0.002-1.159-0.057-1.784-0.167l0.076-0.434c0.6,0.104,1.174,0.159,1.71,0.162L101.59,129.692z M103.383,129.491
						l-0.103-0.425c0.561-0.138,1.086-0.348,1.563-0.629l0.223,0.38C104.55,129.121,103.986,129.343,103.383,129.491z
						 M106.476,127.676l-0.318-0.3c0.446-0.476,0.768-0.96,1.022-1.372l0.373,0.232
						C107.285,126.666,106.948,127.171,106.476,127.676z M69.779,126.681l-0.438-0.013c0.015-0.567,0.106-1.168,0.271-1.783
						L70.036,125C69.88,125.581,69.795,126.146,69.779,126.681z M108.171,124.517l-0.435-0.073c0.054-0.319,0.082-0.654,0.082-0.992
						c0-0.227-0.013-0.463-0.04-0.697l0.439-0.043c0.026,0.247,0.038,0.498,0.038,0.741
						C108.256,123.814,108.226,124.171,108.171,124.517z M132.353,124.496c-0.177,0-0.356,0-0.536-0.002l0.006-0.442
						c0.581,0.009,1.173,0.004,1.744-0.02l0.019,0.44C133.181,124.488,132.767,124.496,132.353,124.496z M130.053,124.416
						c-0.581-0.039-1.172-0.094-1.761-0.164l0.053-0.438c0.578,0.071,1.164,0.125,1.737,0.164L130.053,124.416z M135.348,124.361
						l-0.039-0.44c0.579-0.05,1.162-0.121,1.733-0.205l0.066,0.435C136.525,124.235,135.935,124.306,135.348,124.361z
						 M126.543,124.002c-0.577-0.092-1.161-0.206-1.737-0.327l0.092-0.432c0.57,0.123,1.146,0.231,1.717,0.329L126.543,124.002z
						 M138.849,123.845l-0.087-0.431c0.564-0.114,1.136-0.25,1.696-0.394l0.112,0.423
						C140.002,123.594,139.422,123.728,138.849,123.845z M70.622,123.382l-0.399-0.182c0.241-0.525,0.525-1.053,0.851-1.572
						l0.373,0.238C71.132,122.367,70.855,122.876,70.622,123.382z M123.088,123.267c-0.569-0.144-1.139-0.308-1.701-0.477
						l0.128-0.42c0.556,0.169,1.121,0.327,1.682,0.473L123.088,123.267z M142.267,122.95l-0.135-0.416
						c0.551-0.178,1.104-0.373,1.646-0.579l0.155,0.412C143.387,122.575,142.824,122.773,142.267,122.95z M119.709,122.242
						c-0.551-0.19-1.108-0.398-1.657-0.613l0.163-0.407c0.539,0.211,1.092,0.417,1.638,0.606L119.709,122.242z M145.566,121.69
						l-0.177-0.4c0.524-0.233,1.054-0.485,1.575-0.748l0.201,0.393C146.636,121.203,146.099,121.455,145.566,121.69z
						 M127.576,121.43v-0.439h0.089c0.552-0.002,1.107-0.016,1.656-0.038l0.021,0.436c-0.556,0.026-1.118,0.039-1.675,0.041H127.576
						z M125.811,121.393c-0.589-0.021-1.183-0.059-1.763-0.108l0.035-0.438c0.576,0.048,1.164,0.087,1.746,0.109L125.811,121.393z
						 M131.103,121.275l-0.039-0.438c0.578-0.046,1.162-0.11,1.738-0.186l0.058,0.435
						C132.277,121.165,131.686,121.228,131.103,121.275z M122.289,121.098c-0.579-0.074-1.168-0.162-1.748-0.265l0.076-0.434
						c0.573,0.103,1.154,0.189,1.727,0.263L122.289,121.098z M107.425,121.08c-0.165-0.52-0.383-1.059-0.647-1.596l0.395-0.192
						c0.273,0.553,0.5,1.114,0.671,1.655L107.425,121.08z M116.42,120.956c-0.534-0.232-1.075-0.479-1.604-0.734l0.189-0.395
						c0.524,0.251,1.06,0.496,1.59,0.728L116.42,120.956z M134.604,120.824l-0.075-0.435c0.574-0.1,1.152-0.213,1.713-0.338
						l0.097,0.431C135.769,120.607,135.186,120.724,134.604,120.824z M118.808,120.487c-0.578-0.13-1.155-0.272-1.715-0.426
						l0.116-0.424c0.553,0.153,1.125,0.296,1.696,0.424L118.808,120.487z M72.455,120.46l-0.336-0.279
						c0.43-0.523,0.872-0.966,1.206-1.211l0.078-0.059l0.261,0.353l-0.081,0.06C73.277,119.547,72.866,119.964,72.455,120.46z
						 M148.719,120.096l-0.215-0.38c0.319-0.186,0.645-0.376,0.962-0.569c0.178-0.11,0.355-0.22,0.53-0.332l0.236,0.37
						c-0.18,0.112-0.357,0.223-0.534,0.336C149.372,119.719,149.045,119.91,148.719,120.096z M138.054,120.062l-0.112-0.424
						c0.562-0.149,1.124-0.314,1.675-0.491l0.135,0.417C139.191,119.743,138.622,119.91,138.054,120.062z M115.402,119.545
						c-0.562-0.186-1.12-0.385-1.666-0.598l0.161-0.412c0.536,0.21,1.088,0.412,1.642,0.592L115.402,119.545z M113.24,119.431
						c-0.518-0.271-1.038-0.555-1.551-0.844l0.219-0.383c0.507,0.291,1.021,0.571,1.535,0.84L113.24,119.431z M141.419,118.987
						l-0.154-0.41c0.107-0.042,0.213-0.08,0.319-0.121l0.03-0.014c0.413-0.178,0.833-0.363,1.244-0.56l0.188,0.399
						c-0.416,0.193-0.84,0.385-1.259,0.565l-0.124-0.184l0.08,0.206C141.636,118.907,141.525,118.947,141.419,118.987z
						 M63.967,118.3l-0.023-0.439c0.569-0.031,1.138-0.11,1.703-0.229l0.093,0.426C65.153,118.186,64.558,118.267,63.967,118.3z
						 M112.108,118.256c-0.253-0.115-0.502-0.233-0.748-0.354c-0.285-0.141-0.564-0.283-0.841-0.43l0.206-0.386
						c0.271,0.144,0.548,0.286,0.827,0.423c0.245,0.119,0.49,0.233,0.739,0.348L112.108,118.256z M62.179,118.25
						c-0.581-0.064-1.173-0.169-1.755-0.325l0.107-0.423c0.564,0.146,1.135,0.249,1.695,0.311L62.179,118.25z M151.698,118.204
						l-0.25-0.36c0.471-0.333,0.946-0.68,1.408-1.035l0.266,0.348C152.655,117.516,152.179,117.867,151.698,118.204z
						 M105.916,117.985c-0.442-0.678-0.834-1.164-1.03-1.394l0.335-0.283c0.201,0.236,0.605,0.741,1.063,1.436L105.916,117.985z
						 M110.172,117.683c-0.505-0.311-1.004-0.633-1.483-0.954l0.149-0.224c-0.452-0.285-0.898-0.583-1.329-0.889l0.256-0.358
						c0.467,0.333,0.955,0.66,1.448,0.963l-0.142,0.234c0.432,0.288,0.879,0.574,1.333,0.855L110.172,117.683z M74.562,117.65
						l-0.399-0.185c0.193-0.418,0.387-0.852,0.586-1.296l0.137-0.303l0.401,0.179l-0.137,0.302
						C74.952,116.795,74.756,117.23,74.562,117.65z M67.449,117.541l-0.156-0.411c0.522-0.201,1.046-0.446,1.564-0.728l0.211,0.385
						C68.537,117.079,67.993,117.334,67.449,117.541z M144.625,117.488l-0.206-0.389c0.512-0.27,1.025-0.555,1.526-0.848l0.224,0.38
						C145.661,116.927,145.143,117.216,144.625,117.488z M58.731,117.367c-0.536-0.215-1.078-0.469-1.614-0.754l0.206-0.387
						c0.522,0.278,1.05,0.523,1.57,0.732L58.731,117.367z M62.56,116.365c-0.416,0-0.841-0.024-1.262-0.073l0.051-0.437
						c0.536,0.063,1.071,0.081,1.601,0.064l0.117-0.008l0.02,0.438l-0.118,0.007C62.831,116.361,62.694,116.365,62.56,116.365z
						 M64.86,116.104l-0.096-0.428c0.545-0.126,1.095-0.298,1.636-0.516l0.165,0.405C66.001,115.794,65.428,115.975,64.86,116.104z
						 M154.501,116.053l-0.281-0.337c0.438-0.37,0.885-0.755,1.317-1.149l0.294,0.327
						C155.394,115.29,154.946,115.681,154.501,116.053z M59.543,115.953c-0.561-0.155-1.127-0.351-1.685-0.588l0.169-0.404
						c0.54,0.229,1.088,0.42,1.631,0.566L59.543,115.953z M70.577,115.839l-0.254-0.357c0.456-0.321,0.916-0.683,1.365-1.069
						l0.287,0.331C71.515,115.141,71.042,115.511,70.577,115.839z M107.243,115.716c-0.381-0.281-0.658-0.495-0.828-0.629
						l-0.226,0.238l-0.316-0.304l0.503-0.528l0.158,0.125c0.097,0.078,0.426,0.346,0.967,0.742L107.243,115.716z M147.674,115.705
						l-0.238-0.367c0.486-0.316,0.973-0.645,1.445-0.98l0.253,0.359C148.656,115.056,148.165,115.388,147.674,115.705z
						 M55.591,115.704c-0.478-0.313-0.963-0.661-1.441-1.032l0.268-0.347c0.47,0.364,0.947,0.705,1.413,1.012L55.591,115.704z
						 M68.168,114.785l-0.218-0.381c0.484-0.279,0.971-0.598,1.448-0.949l0.26,0.353C69.168,114.17,68.668,114.497,68.168,114.785z
						 M56.262,114.571c-0.499-0.287-1.002-0.609-1.494-0.963l0.256-0.355c0.479,0.344,0.971,0.658,1.456,0.937L56.262,114.571z
						 M106.104,114.534c-0.458-0.379-0.901-0.774-1.323-1.181l0.308-0.316c0.411,0.397,0.848,0.788,1.297,1.159L106.104,114.534z
						 M76.015,114.455l-0.396-0.19c0.294-0.612,0.561-1.127,0.816-1.573l0.384,0.218C76.568,113.347,76.305,113.85,76.015,114.455z
						 M157.117,113.687l-0.304-0.315c0.409-0.398,0.82-0.814,1.229-1.241l0.317,0.304
						C157.95,112.865,157.531,113.285,157.117,113.687z M150.552,113.663l-0.268-0.347c0.458-0.358,0.914-0.727,1.356-1.101
						l0.283,0.335C151.479,112.928,151.019,113.303,150.552,113.663z M52.785,113.539c-0.432-0.381-0.865-0.79-1.29-1.213l0.31-0.31
						c0.418,0.417,0.845,0.819,1.271,1.196L52.785,113.539z M73.271,113.534l-0.313-0.31c0.394-0.396,0.792-0.828,1.184-1.278
						l0.332,0.288C74.077,112.692,73.672,113.129,73.271,113.534z M71.035,112.68l-0.295-0.325c0.417-0.375,0.836-0.784,1.244-1.218
						l0.319,0.302C71.888,111.88,71.461,112.296,71.035,112.68z M53.373,112.512c-0.435-0.373-0.874-0.778-1.299-1.203l0.31-0.312
						c0.42,0.417,0.85,0.816,1.275,1.183L53.373,112.512z M103.556,112.07c-0.39-0.444-0.766-0.908-1.115-1.379l0.352-0.261
						c0.343,0.459,0.712,0.914,1.094,1.35L103.556,112.07z M76.657,111.641l-1.061-0.783l-0.005,0.004l-0.347-0.267l0.265-0.348
						l1.408,1.042L76.657,111.641z M153.246,111.38l-0.296-0.323c0.426-0.396,0.851-0.804,1.254-1.214l0.312,0.309
						C154.107,110.568,153.679,110.979,153.246,111.38z M159.561,111.142l-0.324-0.292c0.38-0.424,0.768-0.867,1.151-1.319
						l0.335,0.286C160.338,110.269,159.946,110.717,159.561,111.142z M50.275,111.043c-0.39-0.433-0.778-0.884-1.152-1.343
						l0.34-0.277c0.368,0.454,0.751,0.9,1.137,1.327L50.275,111.043z M73.475,110.11l-0.337-0.28
						c0.359-0.435,0.718-0.899,1.068-1.379l0.356,0.259C74.206,109.197,73.841,109.667,73.475,110.11z M50.862,110.02
						c-0.383-0.432-0.765-0.888-1.134-1.359l0.346-0.271c0.364,0.463,0.74,0.915,1.117,1.339L50.862,110.02z M101.443,109.219
						c-0.31-0.502-0.6-1.024-0.861-1.553l0.394-0.195c0.256,0.515,0.539,1.026,0.842,1.52L101.443,109.219z M155.734,108.872
						l-0.327-0.294c0.396-0.434,0.779-0.878,1.148-1.321l0.336,0.281C156.521,107.985,156.131,108.435,155.734,108.872z
						 M161.842,108.455l-0.342-0.275c0.355-0.448,0.72-0.914,1.073-1.38l0.353,0.265
						C162.566,107.534,162.203,108.002,161.842,108.455z M48.037,108.298c-0.126-0.173-0.232-0.324-0.322-0.452l-0.065-0.09
						l0.04-0.108c0.13-0.362,0.281-0.743,0.447-1.135l0.403,0.171c-0.144,0.347-0.278,0.684-0.398,1.007
						c0.075,0.102,0.158,0.218,0.251,0.349L48.037,108.298z M75.568,107.252l-0.368-0.24c0.315-0.482,0.625-0.984,0.919-1.487
						l0.38,0.221C76.201,106.257,75.885,106.765,75.568,107.252z M49.114,107.232l-0.378-0.223l0.321-0.542
						c0.196-0.329,0.391-0.651,0.588-0.968l0.373,0.234c-0.196,0.312-0.39,0.631-0.583,0.959L49.114,107.232z M157.982,106.164
						l-0.351-0.265c0.355-0.467,0.698-0.943,1.025-1.415l0.361,0.249C158.689,105.209,158.342,105.692,157.982,106.164z
						 M100.685,106.139l-0.366-0.249l0.069-0.102c0.312-0.453,0.621-0.903,0.931-1.346l0.36,0.251
						c-0.31,0.441-0.616,0.889-0.927,1.346L100.685,106.139z M163.969,105.643l-0.356-0.255c0.333-0.466,0.669-0.949,1.003-1.436
						l0.363,0.248C164.646,104.689,164.307,105.174,163.969,105.643z M49.268,105.098l-0.393-0.194
						c0.26-0.529,0.541-1.054,0.83-1.564l0.382,0.217C49.801,104.06,49.524,104.579,49.268,105.098z M50.975,104.271l-0.363-0.247
						c0.34-0.497,0.685-0.981,1.031-1.437l0.35,0.266C51.653,103.304,51.311,103.781,50.975,104.271z M77.356,104.197l-0.39-0.205
						c0.475-0.901,0.737-1.506,0.766-1.572l0.403,0.175C78.088,102.704,77.827,103.3,77.356,104.197z M102.691,103.263l-0.355-0.257
						c0.346-0.48,0.693-0.953,1.038-1.419l0.355,0.262C103.383,102.312,103.039,102.785,102.691,103.263z M159.985,103.251
						l-0.374-0.228c0.319-0.52,0.614-1.026,0.873-1.51l0.389,0.207C160.607,102.211,160.309,102.727,159.985,103.251z
						 M165.953,102.733l-0.371-0.24c0.315-0.486,0.629-0.979,0.937-1.48l0.374,0.233
						C166.583,101.749,166.269,102.245,165.953,102.733z M78.306,102.206l-0.404-0.175l0.04-0.098l-0.349-0.4
						c-0.036-0.042-0.232-0.265-0.57-0.601l0.311-0.31c0.349,0.346,0.554,0.578,0.591,0.623l0.532,0.608L78.306,102.206z
						 M50.996,102.071l-0.368-0.241c0.271-0.415,0.555-0.824,0.845-1.214c0.058-0.08,0.117-0.158,0.175-0.235l0.351,0.265
						c-0.06,0.077-0.115,0.153-0.173,0.231C51.541,101.259,51.262,101.662,50.996,102.071z M53.078,101.487l-0.334-0.283
						c0.39-0.464,0.786-0.908,1.179-1.32l0.317,0.303C53.855,100.594,53.463,101.032,53.078,101.487z M97.662,100.726l-0.334-0.286
						l0.584-0.679c0.036-0.043,0.229-0.269,0.578-0.65l0.324,0.293c-0.342,0.377-0.539,0.604-0.569,0.637L97.662,100.726z
						 M104.784,100.45l-0.35-0.268c0.362-0.471,0.725-0.932,1.085-1.387l0.343,0.273C105.504,99.521,105.145,99.98,104.784,100.45z
						 M161.078,100.134l-0.137-0.278c-0.063-0.122-0.295-0.575-0.69-1.259l0.382-0.221c0.398,0.697,0.634,1.157,0.698,1.281
						l0.139,0.28L161.078,100.134z M96.163,99.9c-0.204-0.219-0.642-0.668-1.246-1.224l0.297-0.322
						c0.614,0.563,1.058,1.02,1.268,1.244L96.163,99.9z M75.744,99.748c-0.442-0.379-0.901-0.742-1.363-1.085l0.261-0.355
						c0.47,0.349,0.936,0.721,1.389,1.106L75.744,99.748z M166.093,99.675c-0.266-0.516-0.542-1.037-0.817-1.548l0.385-0.208
						c0.28,0.514,0.556,1.037,0.823,1.556L166.093,99.675z M79.62,99.322l-0.834-0.56c-0.208-0.141-0.418-0.278-0.626-0.412
						l0.237-0.369c0.211,0.137,0.422,0.275,0.631,0.416l0.835,0.557L79.62,99.322z M53.096,99.296l-0.33-0.288
						c0.396-0.456,0.81-0.886,1.224-1.287l0.305,0.316C53.888,98.43,53.484,98.852,53.096,99.296z M55.487,98.971l-0.295-0.325
						c0.446-0.408,0.905-0.79,1.363-1.135l0.266,0.348C56.374,98.199,55.924,98.574,55.487,98.971z M100.01,98.125l-0.314-0.303
						c0.359-0.378,0.771-0.8,1.23-1.262l0.312,0.31C100.78,97.329,100.369,97.749,100.01,98.125z M80.787,97.976l-0.39-0.2
						c0.289-0.568,0.598-1.084,0.921-1.532l0.357,0.257C81.366,96.931,81.065,97.427,80.787,97.976z M106.966,97.709l-0.338-0.281
						c0.378-0.458,0.756-0.907,1.134-1.346l0.333,0.287C107.72,96.805,107.345,97.251,106.966,97.709z M72.943,97.682
						c-0.502-0.312-1.012-0.603-1.512-0.859l0.2-0.391c0.513,0.262,1.03,0.559,1.543,0.877L72.943,97.682z M93.599,97.534
						c-0.467-0.379-0.934-0.734-1.391-1.053l0.255-0.361c0.464,0.328,0.941,0.688,1.413,1.073L93.599,97.534z M76.672,97.431
						c-0.507-0.298-1.02-0.586-1.524-0.851l0.206-0.391c0.511,0.27,1.03,0.561,1.543,0.864L76.672,97.431z M159.344,97.101
						c-0.309-0.488-0.63-0.98-0.96-1.462l0.36-0.247c0.336,0.484,0.662,0.982,0.973,1.473L159.344,97.101z M55.598,96.895
						l-0.274-0.343c0.471-0.375,0.959-0.722,1.448-1.032l0.236,0.37C56.531,96.193,56.057,96.529,55.598,96.895z M58.249,96.88
						l-0.229-0.373c0.521-0.319,1.051-0.601,1.575-0.838l0.181,0.402C59.267,96.301,58.754,96.573,58.249,96.88z M164.419,96.598
						c-0.295-0.51-0.595-1.015-0.896-1.503l0.377-0.23c0.302,0.491,0.604,1.001,0.9,1.516L164.419,96.598z M69.85,96.103
						c-0.544-0.217-1.099-0.404-1.641-0.554l0.117-0.424c0.56,0.155,1.127,0.347,1.687,0.569L69.85,96.103z M73.586,95.803
						c-0.534-0.245-1.073-0.476-1.605-0.683l0.162-0.409c0.539,0.209,1.087,0.444,1.627,0.695L73.586,95.803z M102.485,95.64
						l-0.304-0.317c0.401-0.386,0.829-0.792,1.278-1.21l0.3,0.322C103.31,94.85,102.886,95.255,102.485,95.64z M90.744,95.544
						c-0.527-0.305-1.047-0.567-1.548-0.778l0.174-0.405c0.515,0.218,1.052,0.488,1.595,0.801L90.744,95.544z M61.393,95.472
						l-0.123-0.421c0.484-0.139,0.978-0.246,1.462-0.317c0.096-0.014,0.194-0.028,0.291-0.039l0.054,0.436
						c-0.094,0.012-0.188,0.024-0.281,0.038C62.33,95.237,61.856,95.34,61.393,95.472z M82.813,95.24l-0.283-0.334
						c0.479-0.412,1.003-0.73,1.554-0.947l0.161,0.409C83.74,94.566,83.258,94.86,82.813,95.24z M66.519,95.186
						c-0.574-0.085-1.151-0.135-1.72-0.145l0.007-0.439c0.586,0.01,1.186,0.062,1.779,0.151L66.519,95.186z M109.251,95.052
						l-0.326-0.294c0.395-0.438,0.794-0.875,1.191-1.296l0.32,0.302C110.042,94.183,109.643,94.616,109.251,95.052z M58.52,95.047
						l-0.19-0.393c0.533-0.26,1.088-0.489,1.646-0.677l0.143,0.415C59.576,94.575,59.038,94.796,58.52,95.047z M70.34,94.542
						c-0.564-0.175-1.129-0.327-1.677-0.452l0.096-0.427c0.561,0.126,1.137,0.282,1.711,0.46L70.34,94.542z M87.568,94.226
						c-0.527-0.121-1.042-0.183-1.524-0.183c-0.002,0-0.002,0-0.002,0c-0.054,0-0.107,0-0.157,0.001l-0.013-0.438
						c0.056-0.001,0.106-0.004,0.172-0.002c0.519,0,1.063,0.066,1.624,0.196L87.568,94.226z M157.37,94.216
						c-0.348-0.471-0.707-0.935-1.068-1.389l0.344-0.274c0.363,0.458,0.727,0.929,1.078,1.4L157.37,94.216z M61.785,93.938
						l-0.089-0.432c0.575-0.118,1.171-0.205,1.763-0.253l0.038,0.437C62.919,93.738,62.343,93.821,61.785,93.938z M66.953,93.782
						c-0.581-0.077-1.163-0.124-1.726-0.141l0.011-0.439c0.581,0.018,1.177,0.065,1.774,0.145L66.953,93.782z M162.587,93.615
						c-0.317-0.489-0.646-0.975-0.98-1.449l0.363-0.25c0.332,0.477,0.663,0.967,0.985,1.459L162.587,93.615z M105.056,93.253
						l-0.295-0.329c0.427-0.379,0.868-0.768,1.325-1.162l0.286,0.333C105.916,92.489,105.477,92.875,105.056,93.253z M111.651,92.5
						l-0.312-0.308c0.414-0.417,0.835-0.834,1.254-1.236l0.305,0.315C112.48,91.673,112.062,92.086,111.651,92.5z M155.188,91.481
						c-0.36-0.418-0.732-0.832-1.098-1.229l-0.068-0.072l0.318-0.301l0.068,0.074c0.374,0.402,0.749,0.819,1.112,1.243
						L155.188,91.481z M107.711,90.964l-0.282-0.337c0.445-0.367,0.901-0.738,1.368-1.111l0.273,0.345
						C108.607,90.23,108.152,90.598,107.711,90.964z M160.583,90.751c-0.353-0.472-0.714-0.934-1.074-1.378l0.342-0.278
						c0.361,0.45,0.727,0.917,1.084,1.392L160.583,90.751z M114.176,90.077l-0.295-0.323c0.444-0.403,0.888-0.792,1.325-1.165
						l0.284,0.334C115.059,89.29,114.615,89.681,114.176,90.077z M152.802,88.929c-0.421-0.415-0.85-0.817-1.27-1.197l0.292-0.328
						c0.428,0.385,0.858,0.792,1.285,1.21L152.802,88.929z M110.454,88.786l-0.264-0.352c0.469-0.358,0.941-0.708,1.412-1.051
						l0.258,0.354C111.394,88.079,110.923,88.427,110.454,88.786z M158.382,88.039c-0.386-0.441-0.784-0.876-1.179-1.289
						l0.316-0.305c0.399,0.42,0.801,0.856,1.192,1.302L158.382,88.039z M116.842,87.812l-0.271-0.343
						c0.463-0.367,0.935-0.727,1.4-1.07l0.261,0.354C117.771,87.091,117.304,87.449,116.842,87.812z M113.288,86.723l-0.251-0.359
						c0.488-0.338,0.976-0.671,1.458-0.988l0.241,0.368C114.256,86.059,113.77,86.389,113.288,86.723z M150.204,86.598
						c-0.456-0.371-0.919-0.729-1.383-1.065l0.261-0.355c0.465,0.34,0.938,0.704,1.399,1.08L150.204,86.598z M119.661,85.748
						l-0.243-0.365c0.494-0.332,0.997-0.653,1.485-0.951l0.229,0.376C120.647,85.102,120.153,85.418,119.661,85.748z
						 M155.964,85.517c-0.424-0.403-0.857-0.797-1.294-1.17l0.285-0.333c0.442,0.378,0.882,0.777,1.31,1.186L155.964,85.517z
						 M116.212,84.799l-0.234-0.374c0.506-0.313,1.013-0.62,1.511-0.91l0.223,0.379C117.218,84.182,116.715,84.487,116.212,84.799z
						 M147.383,84.547c-0.491-0.316-0.992-0.62-1.49-0.897l0.215-0.385c0.505,0.285,1.015,0.592,1.515,0.913L147.383,84.547z
						 M122.645,83.936l-0.208-0.384c0.52-0.283,1.049-0.554,1.573-0.802l0.187,0.396C123.681,83.39,123.159,83.657,122.645,83.936z
						 M153.317,83.246c-0.463-0.357-0.938-0.701-1.411-1.022l0.246-0.364c0.48,0.326,0.962,0.675,1.432,1.039L153.317,83.246z
						 M119.234,83.033l-0.21-0.386c0.517-0.286,1.044-0.562,1.558-0.823l0.201,0.392C120.269,82.475,119.749,82.75,119.234,83.033z
						 M144.345,82.847c-0.526-0.249-1.063-0.483-1.596-0.69l0.16-0.41c0.541,0.213,1.09,0.449,1.625,0.705L144.345,82.847z
						 M125.793,82.446l-0.164-0.408c0.552-0.225,1.109-0.431,1.659-0.613l0.138,0.417C126.889,82.021,126.338,82.224,125.793,82.446
						z M141.107,81.583c-0.555-0.17-1.12-0.32-1.682-0.446l0.097-0.429c0.573,0.129,1.15,0.282,1.715,0.456L141.107,81.583z
						 M122.354,81.449l-0.185-0.398c0.215-0.102,0.435-0.201,0.65-0.3c0.322-0.143,0.642-0.283,0.962-0.418l0.171,0.406
						c-0.315,0.133-0.635,0.272-0.951,0.414C122.786,81.249,122.571,81.349,122.354,81.449z M129.096,81.351l-0.108-0.427
						c0.576-0.148,1.157-0.276,1.729-0.38l0.079,0.434C130.231,81.079,129.659,81.204,129.096,81.351z M150.438,81.288
						c-0.499-0.297-1.012-0.58-1.522-0.841l0.196-0.391c0.522,0.266,1.043,0.553,1.551,0.854L150.438,81.288z M137.718,80.825
						c-0.573-0.081-1.154-0.139-1.729-0.173l0.026-0.436c0.586,0.033,1.179,0.091,1.765,0.175L137.718,80.825z M132.517,80.733
						l-0.047-0.437c0.589-0.061,1.184-0.1,1.771-0.113l0.01,0.438C133.676,80.636,133.091,80.673,132.517,80.733z M125.574,80.086
						l-0.153-0.41c0.554-0.211,1.114-0.411,1.659-0.592l0.14,0.416C126.677,79.68,126.125,79.877,125.574,80.086z M147.338,79.709
						c-0.533-0.228-1.081-0.439-1.627-0.627l0.146-0.417c0.556,0.192,1.109,0.407,1.653,0.639L147.338,79.709z M128.89,78.986
						l-0.119-0.422c0.571-0.163,1.147-0.314,1.71-0.443l0.1,0.427C130.023,78.678,129.456,78.825,128.89,78.986z M144.05,78.571
						c-0.556-0.151-1.126-0.284-1.694-0.392l0.084-0.431c0.579,0.112,1.16,0.247,1.725,0.398L144.05,78.571z M132.289,78.196
						l-0.078-0.434c0.584-0.104,1.173-0.193,1.748-0.264l0.055,0.435C133.443,78.005,132.864,78.093,132.289,78.196z
						 M140.639,77.905c-0.57-0.069-1.155-0.119-1.733-0.149l0.024-0.44c0.589,0.032,1.182,0.085,1.762,0.156L140.639,77.905z
						 M135.75,77.771l-0.028-0.436c0.591-0.04,1.186-0.057,1.769-0.057v0.439C136.916,77.718,136.331,77.736,135.75,77.771z"/>
				</g>
				<path fill="#31738B" d="M55.347,102.453c0.714,4.486,1.935,9.435,7.326,11.009c-6.84,1.32-12.518-6.344-12.518-6.344
					S53.106,102.585,55.347,102.453z"/>
				<path d="M52.104,106.417c-0.688-6.18,6.532-10.619,6.532-10.619l-3.734,12.315C54.902,108.113,53.042,107.334,52.104,106.417z"
					/>
				<path fill="#D7DADD" d="M53.8,107.464c13.85,8.635,20.12-4.207,20.12-4.207s-1.226-2.029-4.887-2.451
					c-2.989-0.347-11.106-0.181-15.235,2.451C52.543,104.058,52.813,106.403,53.8,107.464z"/>
				<path fill="#31738B" d="M120.533,89.07c-3.291,5.645-3.397,9.616-3.397,9.616v7.731c0,0,1.807,8.763,5.579,11.766
					c-15.975-1.264-21.285-11.766-21.285-11.766S112.587,92.601,120.533,89.07z"/>
				<path fill="#D7DADD" d="M145.11,100.323c-3.265,5.916-12.141,8.828-18.597,8.33c-7.817-0.606-13.058-5.396-13.058-5.396
					s4.765-8.177,13.354-10.235C132.536,91.647,142.184,93.566,145.11,100.323z"/>
				<path d="M150.632,88.444c1.558,1.699,2.405,5.144,2.195,5.867c-0.211,0.723-4.353-0.462-4.353-0.462l-0.867-4.835
					C147.607,89.014,149.07,86.743,150.632,88.444z"/>
				<g>
					<g>
						<circle cx="134.963" cy="98.687" r="11.547"/>
						<path fill="#31738B" d="M142.937,99.598c-0.398,3.499-3.558,6.01-7.057,5.611c-3.498-0.4-6.01-3.56-5.61-7.056
							c0.399-3.499,3.558-6.012,7.056-5.612C140.826,92.939,143.334,96.099,142.937,99.598z"/>
						<circle fill="#D7DADD" cx="142.429" cy="91.823" r="6.376"/>
						<circle cx="134.962" cy="98.687" r="5.243"/>
						<circle fill="#D7DADD" cx="136.101" cy="96.592" r="2.282"/>
					</g>
				</g>
				<g>
					<g>
						<path d="M72.46,104.115c-0.413,3.623-3.686,6.224-7.31,5.81c-3.619-0.413-6.22-3.684-5.807-7.307
							c0.414-3.622,3.685-6.223,7.307-5.808C70.275,97.223,72.875,100.494,72.46,104.115z"/>
						<circle fill="#31738B" cx="66.839" cy="103.474" r="3.644"/>
						<path fill="#D7DADD" d="M73.095,101.62c-0.167,0.225-0.363,0.428-0.576,0.609c-0.741,0.625-1.724,0.954-2.761,0.835
							c-2-0.229-3.436-2.036-3.208-4.036c0.115-1,0.621-1.858,1.353-2.438C68.632,96.009,73.466,101.12,73.095,101.62z"/>
						<path d="M68.898,103.366c0,1.655-1.339,2.997-2.996,2.997c-1.654,0-2.999-1.34-2.999-2.997c0-1.654,1.344-2.996,2.996-2.998
							C67.558,100.369,68.898,101.711,68.898,103.366z"/>
						<path fill="#D7DADD" d="M67.848,102.316c-0.08,0.716-0.728,1.231-1.443,1.149s-1.231-0.729-1.147-1.446
							c0.079-0.713,0.727-1.228,1.44-1.146C67.417,100.955,67.932,101.601,67.848,102.316z"/>
					</g>
				</g>
				<path fill="#3A2005" d="M100.923,75.312c-3.925,5.501-3.458,12.76-3.458,12.76s0.82,1.87,2.672,0.343
					c3.161-1.64,20.975-17.788,27.415-19.425c4.329-1.172,18.93,0.697,19.781,0c0.853-0.697,2.928-1.99,1.64-3.396
					c-1.29-1.404-10.067-3.86-15.337-4.213c-9.479-0.586-30.318,11.708-30.318,11.708S101.175,74.472,100.923,75.312z"/>
				<path fill="#3A2005" d="M73.711,85.231l-1.169-1.404c0,0-6.599-3.63-7.727-3.745c-1.126-0.12-1.875-0.305-2.576,0.021
					c-0.702,0.328-5.853,1.499-7.958,3.373c-2.108,2.691-0.586,3.395-0.586,3.395s4.594-0.667,6.746-0.931
					c1.826-0.48,4.448,1.139,6.598,2.102c2.588,1.157,4.565,1.755,4.565,1.755h2.107V85.231z"/>
				<path d="M101.43,106.417c36.507-52.751,58.763-6.094,58.763-6.094S138.992,60.789,101.43,106.417z"/>
				<path d="M118.121,89.014c0,0-6.409,10.244-5.45,16.237c1.04,0.305,1.504,0.951,5.714,1.166
					c-1.612-0.848-2.875-1.193-4.047-2.488c2.006-4.169,7.757-8.942,7.757-8.942l-4.28,0.236l3.593-8.084L118.121,89.014z"/>
				<path fill="#D1AB6F" d="M113.456,103.257c0.043-0.35,14.667-21.211,38.388-9.77c0.112-3.7-8.167-17.295-22.575-11.351
					C118.162,86.714,113.456,103.257,113.456,103.257z"/>
				<path d="M50.155,107.119c12.457-21.132,26.809-5.034,26.809-5.034S62.477,90.868,50.155,107.119z"/>
				<path d="M101.43,106.417c6.694,14.265,27.165,16.115,39.8,11.291c13.043-4.987,18.963-17.385,18.963-17.385
					s-8.847,12.516-22.051,16.633C126.186,120.685,108.651,117.708,101.43,106.417z"/>
				<path d="M50.155,107.119c15.357,20.555,26.809-5.034,26.809-5.034S64.064,124.112,50.155,107.119z"/>
				<path fill="#D1AB6F" d="M74.556,101.43c0,0-4.796-1.195-9.873-0.624c-5.705,0.641-11.756,3.065-11.728,3.295
					c0.054,0.434,2.006-7.825,8.808-9.847C71.654,91.313,74.556,101.43,74.556,101.43z"/>
			</g>
			<path d="M68.513,165.021c1.25,3.935,5.617,8.778,5.617,8.778l11.738,3.966c0,0,5.721,7.313,14.215,9
				c25.816,3.613,36.521-10.283,36.521-10.283l8.507-24.267l-74.134-11.332C70.977,140.883,64.128,148.594,68.513,165.021z"/>
			<path d="M150.232,144.452c6.909,6.708,6.342,15.017,6.342,15.017l-9.628,7.074l-1.836-1.338
				C145.11,165.205,143.327,137.747,150.232,144.452z"/>
			<g>
				<path fill="#FFFFFF" d="M77.151,135.284c14.66-0.04,51.699-8.341,56.372-9.457c11.024,0.36,23.562,25.649,19.034,35.902
					c-43.534,21.918-74.32,9.732-76.167,8.164C71.061,163.448,65.141,137.507,77.151,135.284z"/>
				<path fill="#D1AB6F" d="M139.116,127.927c18.141,24.378-0.661,39.872-3.622,42.487c-10.516,12.097-29.079,13.459-39.878,10.291
					c-5.505-2.434-11.84-9.423-11.84-9.423s-10.391-13.23-12.018-18.279c-4.178-13.06,1.229-15.343,4.632-15.853
					c1.068-0.157,8.386,1.165,16.092,0c16.846-2.542,35.343-7.499,41.042-9.229C136.922,126.958,137.798,127.045,139.116,127.927z"
					/>
			</g>
			<path fill="#31738B" d="M138.93,166.543c3.524-4.717,6.242-9.744,7.437-13.052c1.128-3.858,0.27-8.904,0.27-8.904
				s-0.535,4.858-2.396,10.111C142.809,158.749,140.177,162.798,138.93,166.543z"/>
			<path d="M145.11,125.827c4.212,5.104,3.274,11.001,3.274,11.001l-7.85-8.898C140.535,127.929,142.418,123.067,145.11,125.827z"/>
			<path fill="#D1AB6F" d="M148.608,139.116c0,6.454-5.23,11.499-11.655,11.264c-6.386-0.232-11.532-5.595-11.532-11.977
				c0-6.381,5.146-11.429,11.532-11.264C143.378,127.301,148.608,132.665,148.608,139.116z"/>
			<path fill="#31738B" d="M124.847,145.518c-7.22,5.975-12.525,10.743-17.738,12.527c-13.586,4.652-20.697-2.193-20.697-2.193
				S127.153,143.608,124.847,145.518z"/>
			<path d="M79.671,153.29c0,0,2.124-0.631,3.747,0.753c3.737,1.646,5.424,5.506,14.592,3.38
				c-3.772-2.103-14.666-4.806-14.666-4.806l-3.087-0.568L79.671,153.29z"/>
			<g>
				<path fill="#EAC798" d="M83.345,152.617c2.388,0.962,4.852,4.064,7.814,4.632c7.235,1.376,17.185-1.605,24.907-5.862
					c9.489-5.231,13.438-9.372,16.099-12.141c-4.116,3.992-11.735,5.62-11.735,5.62l-26.105,3.46c0,0-3.354,0.011-5.237,0.553
					c-3.353,0.973-6.303,2.798-7.709,3.326C82.22,152.23,83.009,152.25,83.345,152.617z"/>
				<path fill="#B89656" d="M92.617,146.995c6.784-8.7,17.69-2.274,29.479-3.45c6.688-0.52,11.009-5.168,11.009-5.168
					s-2.914,4.347-12.809,7.514c-9.894,3.166-17.36,2.292-19.382,2.505c-2.024,0.218-4.696,1.955-6.579,2.356
					c-1.881,0.4-3.921-0.697-5.253-0.758c-1.33-0.062-2.006,1.028-4.025,1.735c-2.18,0.764-4.968,0.426-4.793,0.305
					c0.125-0.09,1.769,0.49,3.432-1.774C86.008,147.831,88.73,144.725,92.617,146.995z"/>
				<path d="M80.023,149.837c0.284,1.313,0.201,1.897,0.201,1.897l-0.82,2.309C79.404,154.043,78.424,150.816,80.023,149.837z"/>
				<path d="M130.915,135.881c4.591,1.33,4.771,3.029,4.63,3.952c-1.102-1.292-2.439-1.457-2.439-1.457s-0.615-1.249-2.141-1.997
					C130.315,135.984,130.915,135.881,130.915,135.881z"/>
				<path d="M87.779,141.045c3.324,2.984,5.355-0.566,5.355-0.566S90.526,140.854,87.779,141.045z"/>
			</g>
			<path d="M146.366,153.491C143.181,162.079,134.705,172,134.705,172l8.992-5.572C143.697,166.428,145.821,161.383,146.366,153.491
				z"/>
			<path d="M133.885,138.611c0,0-3.244,3.473-12.919,9.875c5.178-3.668,12.14-10.11,12.14-10.11L133.885,138.611z"/>
			<path d="M89.083,149.994c2.44-0.157,3.374,0.997,5.253,0.758c2.345-0.451,3.413-1.984,6.044-2.266
				c3.235-0.633,12.922,0.166,21.029-2.969c-8.095,4.146-18.926,2.993-21.202,3.714c-2.628,0.94-4.104,2.206-5.828,2.222
				C92.502,151.472,91.558,150.253,89.083,149.994z"/>
			<path d="M73.92,118.967c0.065-0.446,1.273-3.881,1.273-3.881c-0.05-5.75,2.853-15.851,7.996-17.062
				C93.712,96,97.832,111.398,97.832,111.398s8.038,1.184,8.94,9.632c1.009,6.29-3.193,9.865-9.325,11.081
				c-9.687,9.508-20.225,1.696-20.225,1.696s-4.259,0.199-6.149-2.7C69.604,128.855,68.513,123.104,73.92,118.967z"/>
			<path fill="#D1AB6F" d="M77.043,116.484c0,0-0.116-14.415,7.57-16.162c6.984,0.006,10.515,8.967,11.431,12.064
				c4.927,0.668,8.603,6.761,7.882,11.175c-0.29,1.769-1.677,3.84-5.026,5.075c-2.14,1.14-4.857,2.425-4.857,2.425
				s-5.392,6.529-14.386,2.957c-0.978-1.131-2.153-1.62-3.082-1.559c-5.238,0-7.18-7.722-1.382-12.382
				C75.81,118.025,77.043,116.484,77.043,116.484z"/>
			<path d="M95.555,128.177c0.437,0.463,2.984-0.562,3.35-1.394c0.124-0.838,2.646-1.086,2.107-1.292
				c-0.063-0.026-1.174-0.389-2.272,0.04C97.438,126.041,95.664,127.283,95.555,128.177z"/>
			<path d="M75.193,120.079c0,0-1.114,3.327-0.495,6.314c-1.197-2.476-0.657-5.244-0.657-5.244L75.193,120.079z"/>
			<path fill="#31738B" d="M71.732,127.929c1.931,2.467,4.881,2.782,4.881,2.782l0.35,1.853
				C76.964,132.564,72.544,132.825,71.732,127.929z"/>
			<path fill="#D7DADD" d="M74.699,126.393c-0.919-6.242,2.344-9.908,2.344-9.908s-0.204-13.403,7.157-16.052
				c-5.119,7.241-5.473,16.904-5.473,16.904S74.087,121.211,74.699,126.393z"/>
			<path d="M76.616,131.107c1.125,1.585,3.041,2.912,3.041,2.912l-2.693-1.455C76.964,132.564,76.578,131.8,76.616,131.107z"/>
			<path fill="#31738B" d="M76.614,130.711c0.35,1.853,2.826,4.377,8.654,4.377c5.655-0.341,8.775-4.026,8.775-4.026
				S83.812,136.549,76.614,130.711z"/>
			<path d="M95.052,129.253c-0.616,1.49-1.182,2.206-1.182,2.206l4.691-2.643C98.562,128.817,96.134,129.92,95.052,129.253z"/>
			<path fill="#D7DADD" d="M138.842,80.874c11.326,2.875,13.002,12.613,13.002,12.613l-3.167-1.361
				C148.677,92.126,148.279,86.109,138.842,80.874z"/>
			<path fill="#B89656" d="M101.291,164.373c4.653,0.523,8.504-2.335,11.48-2.654c3.148,1.604-1.779,4.062-2.605,6.534
				c-0.827,2.477,0.784,3.205-0.756,3.377c-1.245,0.142-2.064-2.533-5.25-3.377C98.767,167.172,98.517,164.061,101.291,164.373z"/>
			<path fill="#31738B" d="M93.134,179.36c-2.384-1.704-8.479-6.573-8.479-6.573s-6.573-8.096-10.573-15.202
				C80.994,167.577,88.147,174.406,93.134,179.36z"/>
			<path fill="#D7DADD" d="M130.811,128.817c11.006-5.956,16.608,4.531,17.091,6.269
				C142.554,127.262,136.283,127.05,130.811,128.817z"/>
			<path fill="#31738B" d="M59.803,95.067c-3.173,3.175-4.456,8.161-4.456,8.161l-2.392,0.874
				C52.955,104.101,54.689,97.774,59.803,95.067z"/>
			<path fill="#31738B" d="M127.206,83.161c-4.491,4.02-7.174,13.057-7.174,13.057s-4.757,4.657-6.352,6.676
				C113.564,102.312,117.882,88.64,127.206,83.161z"/>
			<path d="M52.955,104.101c2.392-1.648,9.304-2.925,9.304-2.925s-8.537,2.48-9.76,4.386
				C52.104,106.417,52.112,104.946,52.955,104.101z"/>
		</g>
		<g>
			<g>
				<path opacity="0.4" fill="#D7DADD" d="M102.606,91.787c-1.174,0.026-1.584,1.637-1.584,1.637l1.844,13.488
					c0,0,0.749,2.636,2.634,2.485c1.431-0.118,42.873-3.5,42.873-3.5s7.707-2.091,6.479-10.113c-0.766-7.85-6.378-8.958-6.378-8.958
					S103.78,91.759,102.606,91.787z"/>
				<path opacity="0.4" fill="#D7DADD" d="M46.396,115.227c0,0-6.211-0.774-6.733-6.521c-0.134-2.139,1.141-5.639,4.6-6.324
					c8.684-1.481,27.275-4.455,27.186-4.373c-0.104,0.098,2.248-0.254,2.626,1.655c0.024,1.226,0.997,7.627,1.03,8.689
					c0.007,1.796-2.296,2.312-2.296,2.312L46.396,115.227z"/>
				<path opacity="0.4" fill="#D7DADD" d="M129.337,89.068c-3.114,6.328-6.277,12.632-8.82,19.197
					c4.235-0.348,8.958-0.733,13.357-1.091c3.621-6.974,7.993-13.516,12.501-19.979C142.508,87.622,136.052,88.331,129.337,89.068z"
					/>
				<path opacity="0.4" fill="#D7DADD" d="M127.403,89.142c-1.429,0.157-2.867,0.312-4.293,0.469
					c-3.785,6.326-7.552,12.667-10.891,19.237c1.883-0.152,4.057-0.33,6.383-0.521C121.137,101.766,124.294,95.464,127.403,89.142z"
					/>
				<path opacity="0.4" fill="#D7DADD" d="M63.478,99.22c-2.966,0.479-6.21,1.006-9.303,1.514
					c-2.734,4.797-5.431,9.615-8.135,14.432c0.222,0.043,0.357,0.061,0.357,0.061l9.562-1.651
					C58.541,108.833,60.999,104.02,63.478,99.22z"/>
				<path d="M154.386,87.811c0,0,45.537,34.421,45.998,35.592c0.459,1.175-2.016,4.889-2.016,4.889l-10.413-6.948l-30.515-21.257
					L154.386,87.811z"/>
				<path d="M157.291,93.434c-1.021-7.488-8.858-8.302-8.858-8.302l-48.157,4.875c0,0-1.497,0.689-1.685,1.607
					c-0.225,1.099-0.01,2.649-0.329,4.21c-14.278-4.411-21.456,4.591-22.306,4.838l-0.534-2.552c0,0-1.101-1.59-4.632-1.35
					c-2.611,0.179-16.983,2.677-26.72,4.373c-6.375,0.892-5.863,7.876-5.863,7.876s0.853,7.887,8.989,7.857
					c5.48-0.121,24.585-3.985,24.585-3.985s4.815-1.079,5.092-3.367c0.273-2.289-0.454-6.971-0.454-6.971s7.151-7.697,21.739-4.035
					c0.85,1.521,3.038,10.702,3.038,10.702s1.467,3.127,4.956,3.048c3.489-0.076,40.747-3.285,40.747-3.285s7.216,0.075,10.569-7.68
					C158.465,98.292,157.396,94.536,157.291,93.434z M72.808,110.667l-26.412,4.56c0,0-6.211-0.774-6.733-6.521
					c-0.134-2.139,1.141-5.639,4.6-6.324c8.684-1.481,27.275-4.455,27.186-4.373c-0.104,0.098,2.248-0.254,2.626,1.655
					c0.024,1.226,0.997,7.627,1.03,8.689C75.112,110.15,72.808,110.667,72.808,110.667z M148.373,105.897
					c0,0-41.442,3.382-42.873,3.5c-1.885,0.151-2.634-2.485-2.634-2.485l-1.844-13.488c0,0,0.411-1.611,1.584-1.637
					c1.174-0.028,45.869-4.96,45.869-4.96s5.612,1.107,6.378,8.958C156.08,103.807,148.373,105.897,148.373,105.897z"/>
			</g>
		</g>
	</g>
</g>
</svg>
