<?xml version="1.0" encoding="utf-8"?>
<!-- Generator: Adobe Illustrator 16.2.1, SVG Export Plug-In . SVG Version: 6.00 Build 0)  -->
<!DOCTYPE svg PUBLIC "-//W3C//DTD SVG 1.1//EN" "http://www.w3.org/Graphics/SVG/1.1/DTD/svg11.dtd">
<svg version="1.1" xmlns="http://www.w3.org/2000/svg" xmlns:xlink="http://www.w3.org/1999/xlink" x="0px" y="0px"
	 width="242.942px" height="269.291px" viewBox="0 0 242.942 269.291" enable-background="new 0 0 242.942 269.291"
	 xml:space="preserve">
<g id="Capa_1">
	<path fill="#FFFFFF" d="M121.549,0.094l0.54,111.279l17.4-109.82l-16.335,109.996L156.987,5.888l-32.805,105.999l49.428-98.888
		l-48.467,99.396l63.811-89.697l-62.937,90.352l76.62-78.288l-75.857,79.079l87.544-64.957l-86.908,65.856l96.313-50.022
		l-95.825,51.016l102.708-33.856l-102.373,34.916l106.574-16.858l-106.405,17.96l107.818,0.555l-107.818,0.56l106.405,17.953
		L128.239,120.11l102.373,34.915L127.904,121.17l95.825,51.009l-96.313-50.016l86.908,65.853l-87.544-64.953l75.857,79.077
		l-76.62-78.288l62.937,90.346l-63.811-89.689l48.467,99.395l-49.428-98.893l32.805,105.998l-33.833-105.655l16.335,109.991
		l-17.4-109.815l-0.54,111.272l-0.539-111.272L103.61,235.344l16.331-109.991L86.113,231.008l32.803-106l-49.431,98.895
		l48.466-99.396l-63.809,89.691l62.938-90.346L40.461,202.14l75.854-79.077l-87.544,64.953l86.911-65.853l-96.311,50.016
		l95.819-51.009L12.482,155.023l102.376-34.915L8.284,136.962l106.406-17.953l-107.816-0.56l107.816-0.555L8.284,99.935
		l106.574,16.858L12.482,81.877l102.709,33.856L19.372,64.718l96.311,50.022L28.771,48.884l87.544,64.957L40.461,34.762
		l76.619,78.288L54.143,22.698l63.809,89.697L69.485,12.997l49.431,98.89L86.113,5.888l33.828,105.661L103.61,1.553l17.399,109.82
		L121.549,0.094z"/>
</g>
<g id="Capa_4">
	<g>
		<g>
			<rect x="52.131" y="192.522" fill="#FFFFFF" width="140.553" height="30.518"/>
			<path d="M191.183,194.021v27.52H53.63v-27.52H191.183 M194.183,191.022h-3H53.63h-2.999v2.998v27.52v2.998h2.999h137.553h3
				v-2.998v-27.52V191.022L194.183,191.022z"/>
		</g>
		<path d="M71.716,214.216l-1.675-9.25v9.25h-1.675v-11.723h2.271l1.667,8.984l1.666-8.984h2.351v11.723h-1.676v-9.252l-1.675,9.252
			H71.716z"/>
		<path d="M80.104,211.282l-0.588,2.934h-1.672l2.455-11.723h1.73l2.512,11.723h-1.612l-0.628-2.934H80.104z M82.03,210.028
			l-0.837-5.023l-0.837,5.023H82.03z"/>
		<path d="M90.738,214.216l-2.998-7.801v7.801h-1.674v-11.723h1.1l3.087,7.652v-7.652h1.676v11.723H90.738z"/>
		<path d="M97.219,214.341c-0.488,0-0.911-0.059-1.266-0.176c-0.354-0.115-0.657-0.273-0.906-0.477
			c-0.248-0.203-0.448-0.443-0.601-0.721c-0.153-0.277-0.272-0.572-0.358-0.893c-0.085-0.318-0.141-0.65-0.172-1
			c-0.031-0.352-0.047-0.697-0.047-1.047v-7.535h1.675v7.541c0,0.209,0.003,0.428,0.007,0.656c0.003,0.223,0.022,0.445,0.056,0.66
			c0.032,0.215,0.082,0.424,0.147,0.619c0.064,0.197,0.16,0.367,0.284,0.516c0.124,0.146,0.282,0.262,0.475,0.348
			c0.191,0.09,0.427,0.131,0.706,0.131c0.28,0,0.515-0.041,0.706-0.131c0.192-0.086,0.352-0.201,0.475-0.348
			c0.124-0.148,0.219-0.318,0.284-0.516c0.065-0.195,0.115-0.404,0.147-0.619c0.033-0.215,0.053-0.438,0.056-0.66
			c0.004-0.229,0.007-0.447,0.007-0.656v-7.541h1.674v7.535c0,0.35-0.015,0.695-0.045,1.047c-0.031,0.35-0.088,0.682-0.174,1
			c-0.086,0.32-0.204,0.615-0.356,0.893s-0.353,0.518-0.602,0.721c-0.248,0.203-0.551,0.361-0.907,0.477
			C98.129,214.282,97.707,214.341,97.219,214.341z"/>
		<path d="M106.279,208.771h-2.093v4.188h2.93v1.258h-4.605v-11.723h4.605v1.254h-2.93v3.77h2.093V208.771z"/>
		<path d="M108.64,214.216v-11.723h1.674v10.465h2.932v1.258H108.64z"/>
		<path d="M121.815,208.751l1.34-6.258h1.672l-2.509,11.723h-1.782l-2.406-11.723h1.674l1.238,6.277l0.381,2.932L121.815,208.751z"
			/>
		<path d="M126.353,202.493h1.675v11.723h-1.675V202.493z"/>
		<path d="M129.971,214.216v-11.723h2.512c0.629,0,1.155,0.057,1.582,0.168c0.428,0.115,0.773,0.305,1.036,0.562
			c0.26,0.264,0.447,0.609,0.561,1.035c0.113,0.428,0.171,0.955,0.171,1.584v4.602c0,0.631-0.058,1.18-0.171,1.65
			s-0.301,0.863-0.561,1.178c-0.263,0.314-0.608,0.551-1.039,0.707c-0.43,0.156-0.961,0.236-1.593,0.236H129.971z M132.482,212.958
			c0.417,0,0.741-0.055,0.969-0.162c0.226-0.111,0.393-0.281,0.497-0.518c0.104-0.234,0.166-0.537,0.183-0.908
			c0.018-0.369,0.026-0.818,0.026-1.342v-3.77c0-0.416-0.009-0.781-0.026-1.096c-0.017-0.314-0.079-0.578-0.186-0.787
			c-0.107-0.209-0.276-0.365-0.508-0.471c-0.232-0.102-0.561-0.158-0.987-0.158h-0.806v9.211H132.482z"/>
		<path d="M139.406,211.282l-0.588,2.934h-1.671l2.453-11.723h1.73l2.515,11.723h-1.613l-0.63-2.934H139.406z M141.334,210.028
			l-0.837-5.023l-0.84,5.023H141.334z"/>
		<path d="M148.718,214.341c-0.489,0-0.912-0.059-1.267-0.176c-0.355-0.115-0.656-0.273-0.905-0.477s-0.449-0.443-0.604-0.721
			c-0.152-0.277-0.271-0.572-0.354-0.893c-0.086-0.318-0.145-0.65-0.175-1c-0.029-0.352-0.045-0.697-0.045-1.047v-7.535h1.674v7.541
			c0,0.209,0.002,0.428,0.007,0.656c0.005,0.223,0.022,0.445,0.057,0.66c0.032,0.215,0.079,0.424,0.146,0.619
			c0.064,0.197,0.16,0.367,0.284,0.516c0.124,0.146,0.281,0.262,0.474,0.348c0.194,0.09,0.429,0.131,0.708,0.131
			c0.278,0,0.513-0.041,0.706-0.131c0.191-0.086,0.349-0.201,0.473-0.348c0.126-0.148,0.22-0.318,0.285-0.516
			c0.066-0.195,0.116-0.404,0.147-0.619c0.032-0.215,0.052-0.438,0.056-0.66c0.004-0.229,0.007-0.447,0.007-0.656v-7.541h1.675
			v7.535c0,0.35-0.017,0.695-0.046,1.047c-0.031,0.35-0.09,0.682-0.174,1c-0.085,0.32-0.203,0.615-0.357,0.893
			c-0.15,0.277-0.352,0.518-0.6,0.721s-0.553,0.361-0.907,0.477C149.627,214.282,149.204,214.341,148.718,214.341z"/>
		<path d="M158.694,214.216l-1.756-5.445h-1.256v5.445h-1.673v-11.723h2.093c0.732,0,1.341,0.074,1.824,0.227
			c0.485,0.152,0.871,0.363,1.157,0.637c0.29,0.273,0.492,0.604,0.61,0.99c0.116,0.389,0.176,0.816,0.176,1.287
			c0,0.285-0.021,0.547-0.062,0.777c-0.041,0.23-0.1,0.438-0.168,0.621c-0.068,0.182-0.148,0.34-0.236,0.475
			c-0.088,0.139-0.176,0.256-0.269,0.352c-0.214,0.229-0.459,0.396-0.735,0.498l1.889,5.859H158.694z M155.683,207.517h0.42
			c0.312,0,0.599-0.029,0.856-0.088c0.259-0.057,0.478-0.16,0.661-0.305c0.182-0.145,0.323-0.338,0.424-0.58
			c0.101-0.24,0.15-0.545,0.15-0.91c0-0.369-0.05-0.672-0.15-0.914s-0.242-0.436-0.424-0.576c-0.184-0.146-0.402-0.246-0.661-0.307
			c-0.258-0.061-0.544-0.09-0.856-0.09h-0.42V207.517z"/>
		<path d="M166.498,214.216l-1.755-5.445h-1.257v5.445h-1.673v-11.723h2.092c0.734,0,1.342,0.074,1.826,0.227
			c0.482,0.152,0.869,0.363,1.158,0.637c0.287,0.273,0.49,0.604,0.608,0.99c0.117,0.389,0.175,0.816,0.175,1.287
			c0,0.285-0.021,0.547-0.061,0.777c-0.042,0.23-0.099,0.438-0.168,0.621c-0.071,0.182-0.148,0.34-0.237,0.475
			c-0.087,0.139-0.177,0.256-0.268,0.352c-0.216,0.229-0.461,0.396-0.736,0.498l1.89,5.859H166.498z M163.486,207.517h0.419
			c0.313,0,0.601-0.029,0.857-0.088c0.258-0.057,0.478-0.16,0.66-0.305c0.184-0.145,0.325-0.338,0.426-0.58
			c0.102-0.24,0.15-0.545,0.15-0.91c0-0.369-0.049-0.672-0.15-0.914c-0.101-0.242-0.242-0.436-0.426-0.576
			c-0.183-0.146-0.402-0.246-0.66-0.307c-0.257-0.061-0.544-0.09-0.857-0.09h-0.419V207.517z"/>
		<path d="M173.385,208.771h-2.094v4.188h2.932v1.258h-4.605v-11.723h4.605v1.254h-2.932v3.77h2.094V208.771z"/>
	</g>
</g>
<g id="Capa_16">
	<g>
		<polygon fill="#D9DADB" points="199.187,267.718 199.187,260.684 44.799,260.684 44.799,267.718 5.477,267.718 20.768,248.453 
			5.477,229.189 25.593,229.189 25.593,222.156 218.21,222.156 218.21,229.189 237.989,229.189 225.758,248.453 237.989,267.718 		
			"/>
		<path d="M216.161,224.206v7.033h18.1l-10.931,17.214l10.931,17.214h-33.024v-7.032H42.749v7.032H9.721l13.666-17.214
			L9.721,231.239h17.922v-7.033H216.161 M220.259,220.106h-4.098H27.641h-4.098v4.1v2.935H9.721H1.232l5.277,6.65l11.643,14.664
			L6.51,263.118l-5.277,6.649h8.488h33.028h4.101v-4.101v-2.934h150.288v2.934v4.101h4.099h33.024h7.46l-3.997-6.3l-9.536-15.015
			l9.536-15.016l3.997-6.297h-7.46h-14.002v-2.935V220.106L220.259,220.106z"/>
	</g>
	<polygon fill="#B0B4B7" points="42.749,265.667 42.749,231.239 9.721,231.239 23.387,248.453 9.721,265.667 	"/>
	<polygon fill="#B0B4B7" points="234.261,231.239 201.236,231.239 201.236,265.667 234.261,265.667 223.33,248.453 	"/>
	<polygon points="23.496,229.69 23.496,261.155 33.09,267.853 44.279,267.01 30.514,229.69 	"/>
	<polygon points="220.271,229.554 220.271,261.016 210.679,267.718 199.49,266.869 213.251,229.554 	"/>
	<polygon fill="#8B8B8B" points="216.161,224.206 216.161,258.635 201.236,265.667 201.099,231.239 	"/>
	<polygon fill="#8B8B8B" points="27.641,224.206 27.641,258.635 42.569,265.667 42.705,231.239 	"/>
	<rect x="27.641" y="224.206" fill="#D9DADB" width="188.521" height="34.429"/>
	<g>
		<path d="M79.262,234.348h0.391l0.243,0.161l0.054,0.176l0.364,0.581l0.269,0.453l0.122,0.313l0.188,0.297l0.108,0.254l0.055,0.162
			l-0.03,0.108l0.03,0.23l0.053,0.133l0.054,0.219l0.203,0.254l0.321,0.271l0.107,0.199l0.066,0.272l0.083,0.278l0.134,0.218
			l0.135,0.416l0.365,0.296l0.081,0.285l-0.055,0.242l-0.229,0.242l-0.109,0.204l-0.658,0.392l-0.444,0.266l-0.324,0.135
			l-0.134,0.107l-0.176,0.176l-0.137,0.055l-0.333,0.083l-0.218,0.159l-0.161,0.054l-0.473,0.283h-0.108l-0.199,0.163l-0.109,0.024
			l-0.377,0.368l-0.147,0.241l-0.026,0.108v0.122l-0.028,0.157l-0.216,0.218l-0.391-0.025l0.026,0.308l-0.026,0.219l-0.106,0.158
			l-0.082,0.26L77.28,244.8l-0.066,0.164l0.042,0.259l0.105,0.188l0.137,0.023l0.133,0.055h0.162h0.338l0.255,0.121l0.378,0.03
			l0.31,0.024l0.163,0.03h0.104l0.366,0.05l0.376,0.028l0.363-0.054l0.164-0.109l0.054-0.121l0.067-0.133l-0.027-0.109v-0.107
			l-0.094-0.146l-0.109-0.192l-0.109-0.349l0.084-0.335l0.08-0.138l0.108-0.176l0.282-0.133l0.162-0.023h0.176l0.269,0.102
			l0.163,0.055l0.199,0.23l0.109,0.242l0.053,0.717l-0.053,0.121l-0.055,0.32l-0.055,0.339l-0.08,0.217l-0.148,0.106l-0.106,0.173
			l-0.027,0.162l-0.242,0.272l-0.202,0.199l-1.187,0.959l-0.107,0.176l-0.054,0.352l0.08,0.145l0.026,0.242l-0.053,0.218
			l-0.162,0.229l-0.148,0.025l-0.431,0.084l-0.203-0.055l-0.351-0.055l-0.176-0.053l-0.242-0.109l-0.159-0.097l-0.175-0.023
			l-0.163-0.026l-0.215-0.161l-0.255-0.055l-0.46-0.285l-0.149-0.053l-0.242-0.135l-0.282-0.161l-0.242-0.109l-0.391-0.254
			l-0.378-0.133l-0.338-0.164l-0.159-0.028h-0.417l-0.162-0.093l-0.204-0.191l-0.08-0.188l0.026-0.078l0.054-0.204l0.121-0.189
			l0.326-0.309l0.16-0.24l0.026-0.242l0.067-0.206l0.054-0.375v-0.174l-0.026-0.296v-0.176l-0.095-0.083l-0.026-0.242l0.147-0.081
			l-0.079-0.173l0.053-0.273l-0.027-0.157l-0.121-0.312l0.121-0.133l0.027-0.109v-0.109l-0.027-0.441l0.027-0.108v-0.888
			l-0.027-0.192v-0.254l-0.025-0.375l0.025-0.261l-0.025-0.295l0.025-0.201l0.027-0.138l-0.053-0.103l-0.068-0.501l-0.027-0.309
			l0.027-0.218l-0.107-0.32l-0.084-0.121l-0.295-0.219l-0.093-0.106l-0.028-0.134l0.028-0.261l0.176-0.241l0.376-0.146l0.579-0.083
			l0.309-0.08l0.108-0.053l0.164-0.027l1.157-0.336l0.176-0.085h0.134l0.08-0.079l0.107-0.133l0.205,0.055l0.268-0.138l0.19-0.146
			l0.418-0.242l0.104-0.053l0.526-0.501l0.083-0.189l0.025-0.199l0.174-0.192L79.262,234.348z M77.444,237.054l-0.083,0.218v0.216
			l0.055,0.147l0.053,0.216l0.054,0.363l0.03,0.133l0.052,0.109l0.026,0.579l0.028,0.109l0.054,0.175l0.055,0.267l-0.082,0.192
			l0.082,0.254v0.163l-0.055,0.164l-0.082,0.277l0.028,0.109l0.026,0.109l-0.026,0.228l0.026,0.135v0.188l0.027,0.139l-0.054,0.254
			l0.081,0.133l0.361-0.473l0.394-0.133l0.055-0.133l0.106-0.055l0.107-0.081l0.161-0.052l0.229-0.392l0.054-0.109l-0.054-0.145
			l-0.134-0.247l-0.054-0.133l-0.041-0.176l-0.188-0.405l-0.394-0.997l-0.104-0.078l-0.271-0.527l-0.055-0.188l-0.337-0.579
			L77.444,237.054z"/>
		<path d="M88.627,229.455l0.108,0.069l0.321-0.04l0.203,0.04l0.242,0.105l0.23,0.215l0.024,0.219l0.03,0.145v0.138l-0.109,0.242
			l-0.391,0.23l-0.136,0.023l-0.203,0.055l-0.297,0.135l-0.133,0.138l-0.121,0.146l-0.217,0.501l-0.054,0.108v0.104l-0.026,0.192
			l-0.027,0.47v0.309l-0.08,1.818l-0.066,0.798l-0.029,0.133l-0.053,0.201l0.121,0.216l-0.039,0.219l0.146,0.121v0.188l0.027,0.216
			l-0.053,0.199v0.297l-0.082,0.176l-0.094,0.325v0.159l0.055,0.149v0.109l-0.055,0.188l0.148,0.446v0.362l0.027,0.267v0.634
			l-0.082,0.085l-0.068,0.145v0.271l0.029,0.309l-0.029,0.219l-0.107,0.266l0.203,0.031l0.055,0.175v0.188v0.361l0.053,0.188
			l-0.027,0.14v0.551l0.027,0.258l-0.053,0.212l-0.082,0.242l0.055,0.204l0.08,0.297v0.23l0.054,0.156l0.026,0.14l0.028,0.254
			l0.081,0.217l0.053,0.188l0.176,0.097l0.604,0.157l0.271,0.247l0.026,0.104v0.283l-0.188,0.297l-0.391,0.339l-0.19,0.133
			l-0.078,0.204l-0.31,0.055l-0.137,0.109l-0.337,0.387l-0.081,0.188l0.163,0.368l0.148,0.133l0.053,0.271l-0.146,0.363
			l-0.218,0.213l-0.188,0.029l-0.255-0.055l-0.109-0.078h-0.135l-0.08-0.055l-0.255-0.138l-0.188-0.23l-0.217-0.133L86,248.666
			l-0.109-0.133l-0.109-0.145l-0.078-0.029l-0.31-0.218l-0.391-0.159l-0.297-0.149l-0.229-0.078l-0.217-0.109l-0.296-0.163
			l-0.094-0.079l-0.055-0.149l-0.052-0.268l0.134-0.283l0.148-0.133l0.108-0.055l0.268-0.138l0.205-0.389v-0.579l0.079-0.164
			l-0.079-0.133l-0.029-0.176l-0.025-0.138l0.08-0.133l0.054-0.441v-0.192l-0.054-0.334l0.133-0.084v-0.188l0.029-0.2l0.025-0.301
			l0.054-0.158l-0.054-0.149l-0.109-0.055v-0.32l-0.133-0.418l0.029-0.337l0.079-0.242l0.055-0.446l-0.03-0.164l0.055-0.604
			l0.029-0.309v-0.138l-0.084-0.242l0.055-0.146l-0.055-0.108l-0.053-0.713l0.028-0.472v-0.325v-0.199l0.024-0.219l0.109-0.254
			l0.163-0.163l-0.163-0.217l-0.134-0.387l-0.028-0.218l0.028-0.121l-0.028-0.107l0.053-0.135l-0.024-0.392l-0.028-0.459
			l-0.025-0.308l-0.055-1.766l-0.08-0.393l-0.041-0.267l-0.026-0.283l-0.378-0.435l-0.175-0.121l-0.164-0.242l-0.054-0.282
			l0.136-0.242l0.23-0.164l0.431-0.023l0.445,0.055l0.229,0.055l0.297,0.078h0.104l0.503,0.309l0.254,0.192l0.161,0.158l0.297,0.312
			l0.148,0.135l0.16-0.055l0.055-0.133l-0.107-0.175l0.269-0.688l0.151-0.164l0.348-0.496l0.391-0.161l0.242-0.121L88.627,229.455z"
			/>
		<path d="M97.152,230.873l0.392-0.031l0.188,0.031l0.23,0.105l0.188,0.16l0.163,0.23l0.161,0.271l0.121,0.025l0.028,0.107
			l0.297,0.151l0.498,0.024h0.107h0.338l0.158-0.055h0.19l0.311-0.053l0.162-0.068l0.146-0.216l0.03,0.163l0.134-0.055h0.133
			l0.34,0.029l0.188-0.029l0.241-0.08h0.283l0.109-0.053l0.417-0.08h0.162l0.254-0.083l0.379-0.026l0.686-0.053l0.365-0.055
			l0.739,0.055l0.973,0.024l0.134-0.024l0.391,0.079l0.081,0.216h0.188l-0.053-0.216l0.256,0.133l0.161,0.03l0.159,0.053
			l0.203,0.055l0.188,0.025l0.272,0.229l0.388,0.163l0.163,0.134l0.338,0.133l0.216,0.151h0.256l0.024,0.188l0.19,0.028l0.201,0.134
			l0.162,0.151l0.109,0.211l0.213,0.242l0.365,0.418l0.161,0.192l0.121,0.145l0.106,0.134v0.139l0.164,0.107l0.055,0.363
			l0.078,0.109l0.109,0.133l0.066,0.229l0.109,0.404l0.055,0.229l0.052,0.352l-0.08,0.254l0.134,0.216l0.081,0.109l0.028,0.121
			l-0.109,0.211l-0.027,0.141l-0.026,0.228l0.217,0.05v0.218l0.055,0.862l-0.029,0.164l0.029,0.266l0.052,0.176l-0.026,0.241
			l-0.134,0.34l-0.082,0.349l0.027,0.309l0.026,0.219l-0.081,0.149l-0.081,0.242l-0.283,0.297l-0.051,0.228l0.024,0.214
			l-0.079,0.229l-0.054,0.295l-0.084,0.284l-0.135,0.188l-0.054,0.579l-0.025,0.164l-0.121,0.133l-0.107,0.204l-0.217,0.214
			l-0.078,0.176v0.216l-0.098,0.109l-0.213,0.337l-0.108,0.268l-0.082,0.229l-0.176,0.163l-0.08,0.217l-0.134,0.684l-0.244,0.261
			v0.441l-0.146,0.244l-0.026,0.214l-0.192,0.309l-0.053,0.247l-0.052,0.332l-0.028,0.164l-0.025,0.133l-0.054,0.204v0.164
			l-0.028,0.188l-0.054,0.579l0.027,0.121l0.026,0.163v0.133l0.082,0.254l0.105,0.164l0.162,0.216l0.391,0.309l0.217,0.026
			l0.175-0.026l0.189-0.309l-0.107-0.161l-0.109-0.309l0.055-0.61l0.133-0.188l0.272-0.242l0.335-0.097l0.337-0.078h0.137
			l0.134,0.055l0.188,0.023l0.148,0.151l0.188,0.133l0.026,0.109l0.19,0.496v0.162l-0.029,0.175v0.109l-0.134,0.501l-0.134,0.352
			l-0.23,0.332l-0.294,0.297l-0.259,0.228l-0.459,0.14v0.103l-0.145,0.109l-0.163,0.03l-0.135,0.024h-0.526h-0.106l-0.175-0.024
			l-0.377-0.055l-0.136-0.055l-0.176-0.054l-0.188-0.109l-0.164-0.024l-0.121-0.163l-0.294-0.229l-0.055-0.189l-0.163-0.053
			l-0.228-0.308l-0.082-0.109l-0.108-0.242l-0.055-0.204l-0.146-0.219l-0.054-0.254l-0.081-0.351l-0.136-0.525v-0.163l-0.08-0.145
			v-0.188l-0.053-0.326l0.053-0.175v-0.188l0.054-0.133l-0.028-0.285l-0.133-0.161l-0.026-0.219v-0.121l0.081-0.133l0.053-0.472
			l-0.08-0.162v-0.284l0.052-0.134l0.082-0.188l-0.028-0.188l0.083-0.676l-0.137-0.188v-0.109l-0.079-0.337l0.055-0.214l0.078-0.216
			l0.109-0.285l-0.109-0.133V243.9l0.055-0.152v-0.294l-0.108-0.104l-0.175-0.259l-0.025-0.441l0.121-0.556l0.055-0.163l0.024-0.104
			l0.108-0.556l0.136-0.106v-0.254v-0.164l0.081-0.441l0.054-0.192l0.121-0.055v-0.133l-0.055-0.285l0.109-0.47l0.078-0.581v-0.712
			v-0.418l-0.024-0.496l0.055-0.192v-0.266l-0.084-0.152l-0.024-0.211l-0.109-0.446l-0.12-0.551l-0.026-0.192l-0.108-0.08
			l-0.137-0.446l0.055-0.266l-0.16-0.121h-0.123l-0.08-0.192l-0.218-0.214l-0.133-0.173l-0.418-0.273l-0.134-0.023l-0.312-0.138
			l-0.242-0.026l-0.133,0.026l-0.256-0.026l-0.19,0.026l-0.388,0.106l-0.243,0.19l-0.147,0.083l-0.271,0.282l-0.08,0.133
			l-0.134,0.242l-0.096,0.23l-0.025,0.078l-0.029,0.313l-0.055,0.242l-0.106,0.268l0.028-0.08l0.025,0.284l-0.08,0.217l0.055,0.362
			l-0.028,0.406v0.309l-0.081,0.216v0.496l0.081,0.176l-0.026,0.351l0.055,0.134l-0.028-0.104l0.054,0.496l-0.025,0.108
			l-0.028,0.496v0.229l0.136,0.055v0.327l-0.029,0.199l-0.078,0.242l-0.055,0.138l-0.055,0.133l0.135,0.497l-0.025,0.203v0.219
			l-0.109,0.104l0.109,0.313l0.107,0.133l0.025,0.363v0.24l0.15,0.109v0.138l-0.029,0.256l0.084,0.188l-0.029,0.174l-0.055,0.163
			v0.164v0.188l0.084,0.199l-0.055,0.161l0.055,0.189v0.205l-0.176,0.266l0.146,0.204l0.324,0.322l-0.083,0.192l0.109,0.441
			l0.055,0.204l0.026,0.212l0.147,0.297l0.217,0.206v0.106l0.109,0.104l0.31,0.285l0.078,0.106l0.243,0.109l0.081,0.133h0.148
			l0.271,0.055l0.162-0.023l0.146,0.023l0.403,0.204l0.15,0.269v0.228l-0.029,0.133l-0.024,0.109l-0.121,0.164l-0.028,0.12
			l-0.108,0.109l-0.161,0.133l-0.366,0.162l-0.188,0.025l-0.282,0.055l-0.133,0.029h-0.137l-0.188-0.164l-0.227,0.135l-0.137,0.053
			l-0.215-0.053l-0.122,0.029l-0.136-0.055l-0.296-0.055l-0.121-0.107l-0.35-0.025l-0.309,0.025h-0.137l-0.19-0.025l-0.279-0.084
			h-0.19l-0.337-0.133h-0.19l-0.158-0.055l-0.339,0.029l-0.105-0.071l-0.136-0.024l-0.149-0.03l-0.163-0.023l-0.104-0.026h-0.862
			l-0.351,0.026l-0.109,0.054l-0.337,0.024l-0.321,0.121l-0.121,0.108h-0.163l-0.364,0.297l-0.215,0.337l-0.109,0.079l-0.133,0.03
			l-0.176,0.078h-0.188l-0.215-0.023l-0.23-0.085l-0.241-0.188l-0.135-0.254l-0.15-0.556l0.055-0.211l0.121-0.34l0.163-0.188
			l0.079-0.161l0.218-0.133l0.471-0.363l0.308,0.023l0.085,0.109l-0.03-0.164l0.135-0.188l0.217-0.204l0.121-0.023l0.458-0.448
			l0.338-0.551l0.135-0.513v-0.254l0.026-0.162l-0.026-0.309l0.054-0.163l0.026-0.338l0.122-0.158l0.025-0.138V243.9v-0.446
			l-0.079-0.309v-0.352l0.026-0.145l0.027-0.14l0.188-0.295l-0.054-0.229l-0.055-0.406v-0.254l0.025-0.216l-0.025-0.199l0.025-0.136
			l0.029-0.415l-0.029-0.273l0.029-0.133l0.108-0.175l0.054-0.245l-0.217-0.189l0.055-0.283v-0.32l-0.081-0.176l0.026-0.133
			l0.055-0.218v-0.833v-0.219v-0.497l0.025-0.312l-0.055-0.899v-0.284l-0.052-0.297l-0.028-0.133l-0.147-0.524l-0.026-0.634
			l-0.296-0.152l-0.109-0.133l-0.2-0.055H97.68l-0.633-0.309l-0.337-0.296l-0.134-0.139l-0.108-0.145l-0.137-0.43l0.055-0.313
			v-0.133l0.137-0.135l0.388-0.392L97.152,230.873z"/>
		<path d="M118.729,234.371h0.146l0.297,0.031l0.634,0.308l0.133,0.217l0.258,0.08l0.875,0.662l0.229,0.104l0.402,0.23l0.122,0.053
			l0.162,0.055l0.164,0.054l0.391,0.164l0.333,0.09l0.434,0.297l0.055,0.313l-0.028,0.163l-0.081,0.157l-0.081,0.109l-0.079,0.392
			l0.026,0.164v0.174l-0.108,0.376l-0.053,0.363l0.08,0.416l-0.08,0.296v0.139l0.025,0.175l-0.025,0.133v0.363l-0.053,0.133v0.247
			l0.023,0.176l-0.023,0.32v0.219l0.053,0.12l0.025,0.216l-0.025,0.159l-0.053,0.259l0.078,0.297v0.229l-0.025,0.135l-0.084,0.524
			l-0.066,0.109l0.121,0.078l-0.055,0.109l0.109,0.7l0.055,0.375l-0.055,0.083l0.027,0.176l-0.027,0.133l0.082,0.242l0.242,0.085
			l0.23,0.309v0.107l-0.121,0.201l-0.109,0.162l-0.106,0.054l-0.363,0.079l-0.108,0.055l-0.135,0.08h-0.19l-0.201,0.028
			l-0.188,0.079l-0.216,0.066l-0.524,0.246l-0.285,0.081l-0.497,0.188l-0.107,0.066l-0.608,0.271l-0.214,0.188l-0.108,0.176
			l0.027,0.216l0.136,0.254l0.054,0.327l-0.108,0.212l-0.473,0.313l-0.336-0.029l-0.134-0.055l-0.108-0.025l-0.08-0.083
			l-0.366-0.226l-0.297-0.053l-0.054-0.108l-0.228-0.031l-0.107-0.055l-0.107-0.078l-0.204-0.078l-0.107-0.121l-0.442-0.247
			l-0.352-0.309l-0.713-0.32l-0.203-0.083l-0.162-0.081l-0.135-0.066h-0.109l-0.333-0.161l-0.191-0.055l-0.176-0.242l0.082-0.284
			l0.336-0.393l0.053-0.158l0.108-0.245l0.083-0.311l0.038-0.32l0.028-0.083l0.081-0.617l0.027-0.634l0.134-0.109l-0.161-0.163
			v-0.388v-0.351v-0.119l-0.027-0.164l0.055-0.241l-0.027-0.15l-0.027-0.375l0.108-0.362v-0.164l-0.108-0.188l0.027-0.176
			l0.081-0.271l-0.108-0.109l-0.027-0.254v-0.109v-0.254l0.055-0.138l-0.055-0.161l-0.026-0.189l0.026-0.416l-0.026-0.218
			l-0.028-0.471l-0.146-0.362l-0.163-0.109l-0.163-0.188l-0.053-0.23l0.027-0.078l0.08-0.133l0.054-0.109l0.325-0.149l0.282-0.081
			l0.244-0.028l0.364-0.078l0.159-0.027l0.364-0.107l0.364-0.139l0.604-0.175l0.245-0.212l0.334-0.191l0.242-0.226l0.137-0.247
			l0.054-0.174l-0.026-0.297l0.026-0.104l0.122-0.204l0.213-0.164L118.729,234.371z M118.119,237.217l-0.215,0.078v0.164
			l0.027,0.121l0.106,0.216v0.527l0.026,0.495v0.352l0.028,0.119v0.085v0.133v0.271v0.146v0.133l-0.028,0.216l0.055,0.176v0.431
			l0.027,0.177l0.027,0.214l-0.055,0.242l-0.055,0.285l0.19,0.417v0.107l-0.136,0.351l0.027,0.205l-0.027,0.213l-0.081,0.229
			l0.055,0.108l-0.055,0.271l-0.052,0.526l-0.055,0.332l-0.109,0.242l-0.146,0.313l-0.055,0.133l0.121,0.135l0.403,0.162l0.176,0.03
			h0.108l0.347,0.091h0.257l0.137,0.03l0.553,0.103h0.159l0.284-0.024l0.055-0.199v-0.108l-0.31-0.352l-0.162-0.282l-0.08-0.527
			l0.025-0.188l0.055-0.688l0.025-0.282v-0.164l-0.025-0.078l0.025-0.254l-0.052-0.14l0.026-0.471l0.188-0.188l0.027-0.108
			l-0.16-0.309l0.024-0.242l0.136-0.312l-0.189-0.212v-0.136l-0.052-0.337v-0.524l-0.054-0.219l0.054-0.254v-0.296l0.052-0.192
			l-0.025-0.254l0.055-0.217l0.107-0.225v-0.219l-0.404,0.109l-0.176-0.055l-0.188-0.055l-0.215-0.133l-0.2-0.149l-0.164-0.164
			l-0.364-0.106L118.119,237.217z"/>
		<path d="M126.258,234.535h0.391l0.162,0.028l0.093,0.026l0.217,0.028l0.134,0.025l0.31,0.066l0.244,0.084l0.256,0.078l0.242,0.164
			l0.471,0.387l0.082,0.163l0.365,0.556l0.105,0.188l0.134,0.121h0.218l0.256-0.066l0.267-0.272l0.26-0.271l0.078-0.363
			l-0.026-0.134v-0.149l0.055-0.158l0.188-0.297l0.201-0.121h0.191l0.104-0.028l0.312,0.054l0.107,0.041l0.106,0.109l0.245,0.188
			l0.201,0.078l0.242,0.258l0.134,0.051l0.445,0.192l0.109,0.025l0.199,0.055h0.136l0.27,0.229l0.149,0.242l0.055,0.188v0.12
			l-0.03,0.109l-0.228,0.352l-0.162,0.228l-0.16,0.136l-0.107,0.216l-0.419,0.309l-0.081,0.163l-0.31,0.501v0.103l-0.027,0.176
			l0.027,0.138l-0.027,0.213l-0.027,0.313l-0.267,0.35l-0.122,0.08l-0.163,0.066l-0.188-0.038l-0.257-0.028l-0.216-0.218
			l-0.189-0.363l-0.078-0.43v0.109l-0.067-0.313l-0.163-0.35l-0.053-0.104l-0.163-0.176l-0.284-0.164h-0.188l-0.188,0.026
			l-0.174,0.138l-0.054,0.176l-0.027,0.133l-0.027,0.188l0.027,0.688v0.078l0.027,0.206l0.027,0.157l0.026,0.394l0.027,0.24
			l0.176,0.261l-0.055,0.188l-0.096,0.188l-0.025,0.201l-0.054,0.136v0.188v0.133l0.026,0.151l0.119,0.134v0.875l-0.039,0.121
			l-0.053,0.404l0.146,0.472l-0.055,0.188l-0.066,0.149l-0.106,0.297l-0.082,0.23l-0.136,0.023l-0.106,0.109l-0.027,0.188
			l-0.095,0.138l-0.081,0.28l0.203,0.083h0.137l0.188,0.055l0.134,0.023l0.123,0.031l0.347,0.023l0.176,0.03l0.217,0.055
			l0.392,0.036l0.297,0.085l0.337,0.103l0.187,0.472l-0.053,0.302l-0.243,0.332l-0.416,0.242l-0.784,0.285l-0.188,0.083
			l-0.164,0.055l-0.133,0.133l-0.055,0.199v0.138l0.109,0.269l0.026,0.282v0.218l-0.026,0.157l-0.229,0.176l-0.405,0.192
			l-0.255-0.029l-0.5-0.213l-0.133-0.096l-0.164-0.133l-0.175-0.085l-0.16-0.211l-0.137-0.055l-0.188-0.15l-0.229-0.163
			l-0.134-0.055h-0.312l-0.296-0.332l-0.283-0.086l-0.214-0.104h-0.188l-0.258-0.137l-0.323-0.174l-0.149-0.164l-0.024-0.211
			l0.067-0.164l0.188-0.284l0.297-0.107l0.148-0.109l0.134-0.173l0.133-0.214v-0.394l0.03-0.133l0.024-0.109l-0.055-0.524
			l0.084-0.164l0.053-0.145l0.027-0.665l-0.055-0.294v-0.227l-0.109-0.217l-0.023-0.133l0.054-0.393l0.106-0.271l-0.053-0.389
			l0.08-0.216l0.066-0.205l-0.066-0.241l-0.109-0.444l0.23-0.138l-0.148-0.254l-0.027-0.108l0.027-0.079l-0.027-0.309l-0.025-0.138
			l0.025-0.472l-0.025-0.188v-0.271l-0.054-0.2l-0.138-0.133l-0.104-0.085l-0.151-0.078l-0.106-0.055l-0.473-0.055l-0.107-0.066
			l-0.104-0.109l-0.084-0.24v-0.108l0.029-0.176l0.105-0.216l0.083-0.136l0.199-0.228l0.164-0.164l0.079-0.104l0.108-0.107
			l0.148-0.152l0.109-0.241l0.134-0.363l-0.109-0.295l-0.024-0.109l-0.085-0.175v-0.217l0.219-0.389L126.258,234.535z"/>
		<path d="M139.004,230.153h0.364l0.188-0.023l0.499,0.458l0.107,0.496l-0.298,0.501l-0.309,0.164l-0.606,0.574l-0.296,0.609
			l0.026,0.23l-0.026,0.109l-0.053,0.211v0.098l-0.121,0.32v0.996v0.109v0.283v0.271l0.442,0.025h0.416l0.394-0.025l0.377-0.138
			l0.28-0.199l0.243-0.484l0.19-0.501l0.255-0.254l0.393-0.109l0.268,0.055l0.242,0.176l0.176,0.212l0.028,0.326l-0.028,0.15
			l-0.026,0.266l-0.053,0.135l-0.068,0.174l-0.107,0.163l-0.351,0.338l-0.121,0.163l-0.109,0.109l-0.107,0.023l-0.296,0.285
			l-0.027,0.349l0.055,0.136l0.163,0.282l0.052,0.271l-0.026,0.176l-0.08,0.159l-0.136,0.108l-0.284,0.134h-0.104h-0.162
			l-0.176-0.05l-0.325-0.38l-0.309-0.285h-0.498h-0.19l-0.267,0.055l-0.042,0.176v0.38l0.042,0.199l-0.097,0.188l0.097,1.187
			l0.024,0.392l0.028,0.295l0.054,0.14v0.277l-0.027,0.192l-0.026,0.176l0.026,0.213v0.662l-0.121,0.026l0.066,0.107l0.082,0.864
			v0.104l-0.027,1.268l0.027,0.164v0.121l-0.082,0.211l-0.2,0.219l-0.136,0.121l-0.161,0.108l-0.027,0.188l0.162,0.053l0.078,0.085
			h0.109l0.472,0.176l0.66-0.055l0.337,0.157l0.189,0.03l0.107-0.03h0.173h0.164l0.297,0.109l0.228,0.312l-0.025,0.242l-0.027,0.212
			l-0.202,0.339l-0.295,0.297l-0.19,0.149l-0.147,0.109l-0.243,0.332l-0.16,0.164l-0.055,0.106v0.242l0.16,0.23l0.027,0.188v0.259
			l-0.162,0.297l-0.311,0.133h-0.133l-0.134-0.029l-0.312-0.08l-0.16-0.053l-0.257-0.109l-0.188-0.108l-0.188-0.146l-0.257-0.08
			l-0.054-0.107l-0.322-0.191l-0.285-0.081l-0.363-0.228l-0.052-0.164l-0.188-0.051l-0.188-0.082l-0.15-0.147l-0.109-0.052
			l-0.375-0.141l-0.095-0.023l-0.164-0.055l-0.157-0.023l-0.205-0.085l-0.431-0.755l0.136-0.321l0.162-0.138v-0.199l0.025-0.135
			l0.082-0.216v-0.473l0.067-0.216l0.024-0.285l0.055-0.156l0.029-0.138l-0.055-0.648l0.025-0.133l0.136-0.023v-0.164l-0.082-0.229
			l-0.079-0.217l0.055-0.213l-0.029-0.283l0.084-0.351v-0.338l-0.03-0.163l0.03-0.176l0.157-0.484l-0.023-0.228l0.055-0.133v-0.188
			l-0.164-0.176l0.055-0.61l-0.055-0.405v-0.119l0.055-0.242l-0.079-0.363l0.052-0.272l-0.027-0.228l0.08-0.188l-0.053-0.363
			l-0.282-0.109l-0.633,0.031l-0.378,0.052l-0.148-0.216v-0.133v-0.204l-0.026-0.377l0.026-0.229l-0.026-0.188l-0.054-0.164
			l0.054-0.337l0.093-0.109l0.164-0.054l0.55,0.054l0.109,0.084l0.295-0.055l0.284-0.138v-0.577v-0.282l-0.027-0.138v-0.133v-0.285
			l-0.106-0.657l-0.176-0.446l-0.136-0.159l-0.243-0.192l-0.175-0.417l0.148-0.416l0.351-0.163l0.419,0.054h0.161l0.283,0.162
			l0.213,0.23l0.527,0.392l0.134,0.188l0.203,0.268l-0.08-0.213l0.053-0.107l0.27-0.757l0.255-0.458l0.108-0.146l0.296-0.38
			l0.338-0.308l0.217-0.136l0.176-0.052l0.106-0.055L139.004,230.153z"/>
		<path d="M148.058,234.348h0.391l0.243,0.161l0.054,0.176l0.363,0.581l0.27,0.453l0.121,0.313l0.188,0.297l0.108,0.254l0.055,0.162
			l-0.03,0.108l0.03,0.23l0.055,0.133l0.052,0.219l0.203,0.254l0.323,0.271l0.107,0.199l0.068,0.272l0.08,0.278l0.133,0.218
			l0.135,0.416l0.365,0.296l0.079,0.285l-0.053,0.242l-0.229,0.242l-0.108,0.204l-0.658,0.392l-0.445,0.266l-0.324,0.135
			l-0.134,0.107l-0.175,0.176l-0.137,0.055l-0.334,0.083l-0.217,0.159l-0.162,0.054l-0.472,0.283h-0.109l-0.199,0.163l-0.109,0.024
			l-0.376,0.368l-0.148,0.241l-0.027,0.108v0.122l-0.027,0.157l-0.216,0.218l-0.39-0.025l0.026,0.308l-0.026,0.219l-0.108,0.158
			l-0.08,0.26l-0.137,0.156l-0.066,0.164l0.041,0.259l0.107,0.188l0.135,0.023l0.135,0.055h0.161h0.34l0.254,0.121l0.379,0.03
			l0.31,0.024l0.16,0.03h0.108l0.364,0.05l0.376,0.028l0.362-0.054l0.164-0.109l0.053-0.121l0.066-0.133l-0.025-0.109v-0.107
			l-0.094-0.146l-0.109-0.192l-0.108-0.349l0.083-0.335l0.08-0.138l0.107-0.176l0.284-0.133l0.163-0.023h0.174l0.269,0.102
			l0.161,0.055l0.204,0.23l0.104,0.242l0.055,0.717l-0.055,0.121l-0.055,0.32l-0.05,0.339l-0.083,0.217l-0.146,0.106l-0.108,0.173
			l-0.027,0.162l-0.242,0.272l-0.2,0.199l-1.189,0.959l-0.104,0.176l-0.055,0.352l0.08,0.145l0.028,0.242l-0.054,0.218l-0.163,0.229
			l-0.149,0.025l-0.429,0.084l-0.202-0.055l-0.351-0.055l-0.176-0.053l-0.245-0.109l-0.157-0.097l-0.176-0.023l-0.163-0.026
			l-0.216-0.161l-0.254-0.055l-0.46-0.285l-0.148-0.053l-0.244-0.135l-0.282-0.161l-0.244-0.109l-0.388-0.254l-0.379-0.133
			l-0.334-0.164l-0.163-0.028h-0.418l-0.16-0.093l-0.205-0.191l-0.08-0.188l0.029-0.078l0.051-0.204l0.122-0.189l0.325-0.309
			l0.16-0.24l0.027-0.242l0.066-0.206l0.055-0.375v-0.174l-0.027-0.296v-0.176l-0.094-0.083l-0.027-0.242l0.148-0.081l-0.081-0.173
			l0.054-0.273l-0.027-0.157l-0.121-0.312l0.121-0.133l0.027-0.109v-0.109l-0.027-0.441l0.027-0.108v-0.888l-0.027-0.192v-0.254
			l-0.026-0.375l0.026-0.261l-0.026-0.295l0.026-0.201l0.027-0.138l-0.054-0.103l-0.067-0.501l-0.027-0.309l0.027-0.218l-0.107-0.32
			l-0.081-0.121l-0.297-0.219l-0.093-0.106l-0.029-0.134l0.029-0.261l0.176-0.241l0.375-0.146l0.579-0.083l0.311-0.08l0.107-0.053
			l0.161-0.027l1.161-0.336l0.175-0.085h0.133l0.082-0.079l0.105-0.133l0.204,0.055l0.27-0.138l0.19-0.146l0.415-0.242l0.109-0.053
			l0.526-0.501l0.08-0.189l0.023-0.199l0.176-0.192L148.058,234.348z M146.239,237.054l-0.082,0.218v0.216l0.055,0.147l0.054,0.216
			l0.054,0.363l0.026,0.133l0.055,0.109l0.026,0.579l0.027,0.109l0.055,0.175l0.055,0.267l-0.084,0.192l0.084,0.254v0.163
			l-0.055,0.164l-0.082,0.277l0.027,0.109l0.025,0.109l-0.025,0.228l0.025,0.135v0.188l0.029,0.139l-0.055,0.254l0.079,0.133
			l0.363-0.473l0.392-0.133l0.055-0.133l0.108-0.055l0.109-0.081l0.157-0.052l0.23-0.392l0.055-0.109l-0.055-0.145l-0.133-0.247
			l-0.055-0.133l-0.043-0.176l-0.188-0.405l-0.389-0.997l-0.108-0.078l-0.27-0.527l-0.055-0.188l-0.336-0.579L146.239,237.054z"/>
		<path d="M158.216,234.535h0.364l0.431,0.175l0.096,0.136l0.188,0.052l0.216,0.084l0.202,0.163l0.16,0.024l0.135,0.055l0.256,0.199
			l0.216,0.192l0.418,0.254l0.446,0.135l0.793,0.083l0.161,0.055l0.029,0.103l0.31,0.108l0.025,0.205l-0.025,0.322l-0.255,0.363
			l-0.163,0.446l-0.082,0.349l-0.026,0.254v0.219v0.337l-0.026,0.163l-0.053,0.441l0.024,0.164l0.028,0.441l-0.028,0.192l-0.2,0.524
			v0.105l-0.028,0.177l0.055,0.136v0.109v0.104l-0.081,0.634l0.081,0.084v0.417l0.066,0.658l0.053,0.256v0.216v0.337v0.109
			l-0.024,0.268v0.26v0.211l0.079,0.259l0.028,0.109l0.159,0.158l0.055,0.107l0.136,0.151l0.836,0.267l0.109,0.284l-0.03,0.295
			l-0.268,0.218l-0.283,0.176l-0.216,0.133l-0.175,0.133l-0.271,0.083l-0.336,0.392l-0.189,0.39l0.028,0.161l0.079,0.219v0.145
			l0.055,0.164l0.054,0.266l-0.054,0.176l-0.162,0.192l-0.268,0.107h-0.31l-0.164-0.082l-0.227-0.135l-0.188-0.083l-0.14-0.05
			l-0.172-0.204l-0.136-0.079l-0.135-0.191l-0.309-0.081l-0.027-0.254l-0.218-0.271l-0.133-0.109l-0.109-0.09l-0.174-0.109
			l-0.242-0.081l-0.163-0.083l-0.254-0.188l-0.08-0.282l0.025-0.219l0.336-0.308l0.136-0.079l0.162-0.271v-0.121l0.025-0.351
			l0.028-0.23l-0.054-0.107v-0.108l-0.028-0.214v-0.282l-0.079-0.605l0.027-0.337l-0.054-0.109l0.026-0.497l-0.026-0.082
			l-0.055-0.164v-0.133l0.055-0.199l0.026-0.109l0.027-0.163l0.025-0.162l0.135-0.092l-0.16-0.029v-0.405l0.025-0.176l0.026-0.375
			l0.028-0.133l-0.028-0.285l0.028-0.138l-0.055-0.199l0.055-0.242l0.025-0.337l-0.025-0.164l0.054-0.211l0.175-0.81l0.055-0.242
			l0.159-0.108l-0.28-0.08l-0.217-0.124l-0.295-0.159l-0.175-0.138l-0.188-0.133h-0.109l-0.229-0.121l-0.349-0.242l-0.285-0.079
			l-0.417-0.054l-0.162,0.078l-0.078,0.188l0.023,0.151l0.137,0.24l0.121,0.164l0.055,0.199l0.024,0.164l0.055,0.351l0.028,0.7
			v0.078l0.026,0.109l-0.026,0.162l0.054,0.201v0.38l-0.027,0.254l-0.109,0.109l-0.173,0.078l0.173,0.109l0.029,0.149l0.107,0.574
			l0.026,0.272l0.024,0.188l0.03,0.205l-0.055,0.188l0.024,0.163l0.03,0.145v0.164l-0.03,0.107l-0.024,0.339v0.188l0.024,0.441
			l-0.133,0.61l-0.079,0.32l-0.148,0.176l-0.055,0.188v0.216l0.148,0.085l0.188,0.036l0.321,0.085l0.206,0.024l0.16,0.054
			l0.255,0.188v0.363l-0.094,0.247l-0.107,0.133l-0.297,0.337l-0.471,0.335l-0.083,0.107l-0.173,0.054l-0.136,0.395l-0.161,0.188
			l0.133,0.241l0.028,0.083l0.108,0.2l-0.027,0.351l-0.163,0.176l-0.524,0.162l-0.188-0.055l-0.283-0.107l-0.161-0.08l-0.19-0.259
			l-0.255-0.164l-0.35-0.224l-0.175-0.272l-0.109-0.079l-0.188-0.082l-0.255-0.199l-0.218-0.109h-0.134l-0.258-0.081l-0.107-0.052
			l-0.135-0.085l-0.133-0.134l-0.055-0.149l0.027-0.32l0.081-0.176l0.243-0.218l0.188-0.107l0.23-0.581l0.026-0.387l-0.026-0.188
			l0.026-0.338l0.08-0.14v-0.156l-0.027-0.138l0.054-0.226l-0.026-0.192v-0.176l0.026-0.109l-0.081-0.241v-0.333l0.136-0.351v-0.392
			c0-0.092-0.011-0.154-0.027-0.188l0.027-0.121v-0.217l-0.081-0.135l0.054-0.282l0.027-0.715v-0.446l-0.027-0.133v-0.242
			l-0.027-0.175l-0.026-0.107l-0.055-0.164v-0.108l0.027-0.109l0.054-0.119l-0.026-0.188l0.026-0.135l-0.133-0.524l-0.742-0.031
			l-0.122-0.023l-0.352-0.254l-0.078-0.325l0.161-0.418l0.161-0.188l0.107-0.03l0.174-0.2l0.163-0.188l0.188-0.215l0.258-0.258
			l-0.027-0.105l0.055-0.083l0.055-0.109v-0.121l-0.028-0.104l-0.026-0.108l-0.055-0.295l0.027-0.259l0.321-0.363l0.176-0.054
			l0.085,0.054l0.496,0.041l0.107,0.025l0.218,0.055l0.2,0.029l0.483,0.188h0.149l0.321,0.213l0.163,0.123l0.203,0.214l0.16,0.188
			l0.137,0.176l0.2,0.192l0.137,0.024l0.362-0.055l0.406-0.361l0.146-0.272l0.028-0.105l-0.122-0.281l0.094-0.326L158.216,234.535z
			 M156.316,229.106l0.202,0.026l0.188,0.055l0.527,0.242l0.524,0.229l0.321,0.08l0.097,0.216v0.199l0.321-0.023h0.108l0.204-0.098
			l0.134-0.023l0.321,0.121l0.419,0.078l0.337,0.055l0.216-0.023l0.863-0.395l0.431-0.294l0.417-0.176l0.312,0.055l0.241,0.363
			l-0.137,0.392l-0.442,0.47l-0.242,0.188l-0.417,0.297l-0.162,0.097l-0.312,0.162l-0.106,0.08l-0.137,0.133l-0.442,0.313
			l-0.055,0.188l0.025,0.242l-0.133,0.392l-0.149,0.159l-0.188,0.149l-0.242,0.078l-0.255-0.054l-0.391-0.2l-0.378-0.216
			l-0.203,0.028l-0.321-0.138h-0.109l-0.203-0.078l-0.188-0.025l-0.188-0.126l-0.339-0.103h-0.107l-0.107-0.085h-0.229l-0.137-0.055
			l-0.241-0.024l-0.338,0.055l-0.242,0.133l-0.175,0.055l-0.297,0.199l-0.133,0.164l-0.7,0.501l-0.243,0.023l-0.242-0.078
			l-0.176-0.204l-0.054-0.268l0.081-0.242l0.148-0.204l0.188-0.213l1.13-0.862l0.164-0.137l0.107-0.051l0.364-0.247l0.24-0.387
			v-0.109l-0.053-0.392l0.082-0.269l0.229-0.337L156.316,229.106z"/>
		<path d="M168.914,234.371h0.149l0.297,0.031l0.633,0.308l0.134,0.217l0.255,0.08l0.878,0.662l0.228,0.104l0.406,0.23l0.12,0.053
			l0.161,0.055l0.163,0.054l0.389,0.164l0.339,0.09l0.43,0.297l0.053,0.313l-0.025,0.163l-0.082,0.157l-0.08,0.109l-0.079,0.392
			l0.024,0.164v0.174l-0.107,0.376l-0.055,0.363l0.083,0.416l-0.083,0.296v0.139l0.028,0.175l-0.028,0.133v0.363l-0.053,0.133v0.247
			l0.026,0.176l-0.026,0.32v0.219l0.053,0.12l0.028,0.216l-0.028,0.159l-0.053,0.259l0.081,0.297v0.229l-0.028,0.135l-0.078,0.524
			l-0.069,0.109l0.121,0.078l-0.052,0.109l0.106,0.7l0.055,0.375l-0.055,0.083l0.026,0.176l-0.026,0.133l0.081,0.242l0.242,0.085
			l0.229,0.309v0.107l-0.121,0.201l-0.107,0.162l-0.108,0.054l-0.364,0.079l-0.107,0.055l-0.134,0.08h-0.188l-0.204,0.028
			l-0.188,0.079l-0.215,0.066l-0.523,0.246l-0.285,0.081l-0.5,0.188l-0.108,0.066l-0.604,0.271l-0.218,0.188l-0.106,0.176
			l0.027,0.216l0.134,0.254l0.054,0.327l-0.108,0.212l-0.471,0.313l-0.336-0.029l-0.136-0.055l-0.108-0.025l-0.079-0.083
			l-0.364-0.226l-0.297-0.053l-0.055-0.108l-0.227-0.031l-0.109-0.055l-0.109-0.078l-0.2-0.078l-0.107-0.121l-0.445-0.247
			l-0.35-0.309l-0.715-0.32l-0.201-0.083l-0.162-0.081l-0.134-0.066h-0.108l-0.337-0.161l-0.188-0.055l-0.176-0.242l0.078-0.284
			l0.34-0.393l0.054-0.158l0.106-0.245l0.081-0.311l0.041-0.32l0.026-0.083l0.082-0.617l0.024-0.634l0.137-0.109l-0.161-0.163
			v-0.388v-0.351v-0.119l-0.028-0.164l0.053-0.241l-0.024-0.15l-0.028-0.375l0.107-0.362v-0.164l-0.107-0.188l0.028-0.176
			l0.079-0.271l-0.107-0.109l-0.026-0.254v-0.109v-0.254l0.055-0.138l-0.055-0.161l-0.027-0.189l0.027-0.416l-0.027-0.218
			l-0.026-0.471l-0.149-0.362l-0.161-0.109l-0.16-0.188l-0.054-0.23l0.023-0.078l0.085-0.133l0.052-0.109l0.323-0.149l0.283-0.081
			l0.242-0.028l0.363-0.078l0.163-0.027l0.361-0.107l0.366-0.139l0.606-0.175l0.242-0.212l0.336-0.191l0.243-0.226l0.133-0.247
			l0.055-0.174l-0.024-0.297l0.024-0.104l0.121-0.204l0.218-0.164L168.914,234.371z M168.309,237.217l-0.216,0.078v0.164
			l0.027,0.121l0.107,0.216v0.527l0.026,0.495v0.352l0.026,0.119v0.085v0.133v0.271v0.146v0.133l-0.026,0.216l0.055,0.176v0.431
			l0.024,0.177l0.03,0.214l-0.055,0.242l-0.055,0.285l0.188,0.417v0.107l-0.134,0.351l0.024,0.205l-0.024,0.213l-0.081,0.229
			l0.053,0.108l-0.053,0.271l-0.054,0.526l-0.054,0.332l-0.108,0.242l-0.148,0.313l-0.055,0.133l0.121,0.135l0.403,0.162l0.176,0.03
			h0.109l0.351,0.091h0.255l0.137,0.03l0.551,0.103h0.162l0.283-0.024l0.055-0.199v-0.108l-0.312-0.352l-0.159-0.282l-0.083-0.527
			l0.028-0.188l0.055-0.688l0.026-0.282v-0.164l-0.026-0.078l0.026-0.254l-0.055-0.14l0.028-0.471l0.188-0.188l0.026-0.108
			l-0.16-0.309l0.027-0.242l0.133-0.312l-0.188-0.212v-0.136l-0.055-0.337v-0.524l-0.055-0.219l0.055-0.254v-0.296l0.055-0.192
			l-0.026-0.254l0.054-0.217l0.105-0.225v-0.219l-0.404,0.109l-0.173-0.055l-0.191-0.055l-0.213-0.133l-0.203-0.149l-0.163-0.164
			l-0.363-0.106L168.309,237.217z"/>
	</g>
	<path d="M184.367,236.24l1.483,3.043l3.391,0.524l-2.484,2.329l0.54,3.336l-3.022-1.609l-3.057,1.541l0.621-3.322l-2.432-2.386
		l3.402-0.445L184.367,236.24z"/>
	<path d="M62.348,235.762l1.486,3.043l3.393,0.525l-2.487,2.328l0.538,3.336l-3.017-1.608l-3.06,1.535l0.618-3.317l-2.429-2.385
		l3.403-0.45L62.348,235.762z"/>
</g>
<g id="Capa_15">
	<g>
		<g>
			<path d="M214.433,42.811c-2.064-9.676-7.701-17.561-16.752-23.439c-5.437-3.529-11.335-5.318-17.533-5.318
				c-4.773,0-9.787,1.062-14.919,3.165c-13.366-9.732-36.753-14.633-46.925-16.771c-0.946-0.194-1.76-0.363-2.418-0.511
				c-0.332-0.069-0.682-0.109-1.042-0.109c-2.626,0-5.811,1.922-10.792,5.059c-3.496,2.2-7.459,4.695-10.806,5.865
				c-2.35,0.818-4.615,1.221-6.929,1.221c-1.478,0-2.775-0.154-4.029-0.302c-1.075-0.129-2.096-0.248-3.091-0.248
				c-1.765,0-4.358,0.331-6.505,3.23c-1.803,2.436-3.873,7.992-7.521,19.047c-3.456-2.896-9.319-6.833-15.672-6.835
				c-3.009,0-5.811,0.872-8.329,2.595l-0.014,0.008l-0.013,0.007c-5.991,4.187-10.238,9.817-12.621,16.75
				c-2.057,5.984-2.619,12.834-1.629,19.813c0.976,6.822,3.432,13.589,6.922,19.051c3.689,5.777,8.198,9.713,13.044,11.392
				c5.121,1.956,10.491,2.948,15.974,2.948c11.332,0,23.175-4.129,35.205-12.262c6.93-4.688,12.489-9.781,15.979-13.283l0.217-0.12
				c0.047-0.03,5.051-2.783,12.833-5.497c7.13-2.49,18.133-5.45,30.058-5.45c5.428,0,10.653,0.612,15.547,1.815
				c8.289,2.968,14.266,8.286,17.766,15.814c1.851,3.976,2.924,8.371,3.187,13.055c0.027,0.402,0.036,0.604,0.095,0.858
				c0.275,1.235,1.357,2.099,2.632,2.099c1.429,0,2.341-0.919,3.97-3.113c1.167-1.573,2.521-3.642,3.803-5.816
				c2.534-4.292,6.066-11.097,8.502-19.157C215.452,59.019,216.06,50.416,214.433,42.811z"/>
			<path fill="#3A2005" d="M196.304,93.791C196.507,16.039,69.65,82.3,69.027,82.126C68.403,81.96,165.673,133.828,196.304,93.791z"
				/>
			<g>
				<g>
					<g>
						<g>
							<g>
								<path fill-rule="evenodd" clip-rule="evenodd" d="M62.453,157.421c2.025,4.305,5.419,6.993,7.591,5.993
									c2.168-0.994,2.288-5.293,0.268-9.603c-2.024-4.313-5.42-6.995-7.588-5.999C60.552,148.81,60.431,153.107,62.453,157.421z"
									/>
								<path d="M53.448,160.664c-3.172-8.327,4.966-11.861,4.966-11.861l4.31-0.99l8.18,14.665
									C70.903,162.478,57.391,170.281,53.448,160.664z"/>
								<path fill-rule="evenodd" clip-rule="evenodd" fill="#D1AB6F" d="M63.223,150.335c5.788,1.75,5.987,10.163,5.987,10.163
									s-9.396,5.7-12.638-0.429C53.328,153.944,59.631,150.295,63.223,150.335z"/>
								<path fill="#31738B" d="M68.116,155.326c0.344,5.011-2.611,6.273-5.107,7.445c3.192-0.493,6.201-2.273,6.201-2.273
									S69.042,157.116,68.116,155.326z"/>
							</g>
							<path fill-rule="evenodd" clip-rule="evenodd" fill="#D7DADD" d="M63.223,150.335c0,0-4.742-0.126-6.891,4.353
								c-0.658,2.175,10.661-1.498,9.772-2.586C65.097,150.924,63.223,150.335,63.223,150.335z"/>
						</g>
						<path fill="#FBC52F" d="M99.408,180.75c-38.956-11.707-61.023-52.585-49.188-91.123
							c11.834-38.539,53.154-60.367,92.109-48.662c38.958,11.713,61.022,52.589,49.188,91.127
							C179.68,170.631,138.362,192.456,99.408,180.75z"/>
						<path d="M142.824,42.056c38.157,11.465,59.694,51.366,48.101,89.114c-11.592,37.754-51.921,59.06-90.08,47.59
							c-38.16-11.468-59.696-51.365-48.101-89.12C64.333,51.891,104.665,30.585,142.824,42.056 M143.771,38.975
							c-39.812-11.965-82.045,10.344-94.14,49.729c-5.215,16.98-14.555,73.649,50.265,93.134
							c39.816,11.965,82.045-10.346,94.144-49.728C206.13,92.721,183.581,50.942,143.771,38.975L143.771,38.975z"/>
						<path fill="#FCFCFC" d="M66.369,115.47c-7.802,8.749-7.706,20.658-6.251,24.497c-23.246-37.032-1.845-86.279,42.325-98.252
							C87.343,47.673,55.72,74.405,66.369,115.47z"/>
						<path d="M142.824,42.056c-1.325-0.346-2.62-0.745-3.935-1.062c35.634,10.905,55.641,48.477,44.704,84.098
							c-3.403,12.278-12.411,26.824-27.674,35.354c-5.652,19.077-9.479,6.321-15.191,8.943c-13.087,4.539-27.661,5.167-41.908,0.89
							c-35.001-10.523-55.036-46.717-45.743-81.678c-0.114,0.342-0.229,0.691-0.333,1.039c-11.596,37.755,9.94,77.652,48.101,89.12
							c38.159,11.47,78.488-9.836,90.08-47.59C205.225,84.603,174.463,50.26,142.824,42.056z"/>
						<g>
							<path fill-rule="evenodd" clip-rule="evenodd" d="M183.855,140.803c-2.484,5.341-6.68,8.681-9.372,7.454
								c-2.686-1.22-2.855-6.542-0.373-11.89c2.488-5.341,6.68-8.671,9.372-7.453C186.175,130.145,186.337,135.46,183.855,140.803z"
								/>
							<path d="M196.079,145.119c4.317-14.563-10.612-15.805-10.612-15.805l-10.554,6.623l-0.976,11.558
								C173.938,147.495,191.119,157.334,196.079,145.119z"/>
							<path fill-rule="evenodd" clip-rule="evenodd" fill="#D1AB6F" d="M183.531,130.935c-8.372,2.554-8.618,14.734-8.618,14.734
								s13.627,8.204,18.29-0.678C197.865,136.108,188.724,130.857,183.531,130.935z"/>
							<path fill="#31738B" d="M176.476,138.179c8.796,6.238,17.202,4.711,17.741,4.229c-2.993,12.839-19.304,3.261-19.304,3.261
								S175.141,140.773,176.476,138.179z"/>
						</g>
					</g>
				</g>
			</g>
			<g>
				<path d="M99.144,103.215c-0.256,0-0.5-0.15-0.607-0.4c-0.102-0.225-0.398-2.209-0.607-4.078
					c-0.042-0.361,0.222-0.685,0.582-0.728c0.368-0.044,0.692,0.215,0.735,0.577c0.256,2.285,0.501,3.631,0.537,3.791
					c0.087,0.313-0.068,0.649-0.375,0.782C99.32,103.19,99.232,103.215,99.144,103.215z M98.223,95.399
					c-0.346,0-0.635-0.262-0.661-0.608c-0.095-1.304-0.17-2.631-0.218-3.949c-0.015-0.361,0.271-0.666,0.637-0.681
					c0.362-0.018,0.675,0.27,0.688,0.631c0.049,1.304,0.12,2.618,0.213,3.905c0.03,0.356-0.247,0.676-0.612,0.7
					C98.251,95.399,98.239,95.399,98.223,95.399z M97.929,87.538c-0.365,0-0.659-0.29-0.659-0.655v-0.066
					c0-1.299,0.021-2.607,0.071-3.892c0.014-0.358,0.332-0.642,0.684-0.629c0.365,0.012,0.654,0.314,0.64,0.679
					c-0.047,1.263-0.072,2.555-0.072,3.842v0.066C98.592,87.248,98.297,87.538,97.929,87.538z M98.225,79.68
					c-0.018,0-0.035,0-0.05-0.002c-0.367-0.026-0.639-0.34-0.611-0.702c0.101-1.33,0.231-2.654,0.387-3.946
					c0.044-0.361,0.373-0.614,0.736-0.571c0.363,0.044,0.623,0.368,0.58,0.73c-0.151,1.268-0.279,2.575-0.381,3.884
					C98.858,79.419,98.566,79.68,98.225,79.68z M99.168,71.867c-0.038,0-0.072-0.002-0.108-0.006
					c-0.363-0.061-0.607-0.396-0.546-0.753c0.223-1.321,0.474-2.629,0.75-3.892c0.081-0.353,0.431-0.579,0.788-0.507
					c0.36,0.083,0.584,0.43,0.509,0.783c-0.272,1.243-0.521,2.533-0.741,3.832C99.766,71.644,99.486,71.867,99.168,71.867z
					 M100.86,64.192c-0.057,0-0.116-0.007-0.174-0.023c-0.356-0.098-0.562-0.459-0.463-0.806c0.357-1.29,0.757-2.569,1.18-3.794
					c0.12-0.346,0.499-0.526,0.844-0.41c0.344,0.12,0.529,0.49,0.41,0.832c-0.414,1.206-0.803,2.454-1.155,3.719
					C101.417,64.004,101.151,64.192,100.86,64.192z M103.439,56.76c-0.086,0-0.171-0.016-0.252-0.055
					c-0.343-0.137-0.499-0.522-0.358-0.854c0.202-0.478,0.412-0.959,0.631-1.43c0.269-0.761,0.559-1.498,0.851-2.212
					c0.138-0.332,0.526-0.496,0.862-0.359c0.34,0.142,0.5,0.525,0.363,0.857c-0.287,0.697-0.57,1.431-0.835,2.176l-0.024,0.052
					c-0.213,0.47-0.424,0.946-0.625,1.424C103.946,56.607,103.699,56.76,103.439,56.76z M106.593,49.549
					c-0.106,0-0.209-0.021-0.308-0.073c-0.321-0.17-0.447-0.563-0.278-0.883c0.655-1.233,1.358-2.384,2.097-3.432
					c0.209-0.297,0.625-0.368,0.923-0.165c0.297,0.207,0.373,0.619,0.163,0.914c-0.705,1.002-1.381,2.111-2.01,3.292
					C107.061,49.421,106.832,49.549,106.593,49.549z M111.164,43.157c-0.167,0-0.338-0.064-0.465-0.189
					c-0.261-0.248-0.265-0.663-0.011-0.92c0.998-1.019,2.059-1.895,3.151-2.606c0.305-0.197,0.72-0.115,0.919,0.186
					c0.201,0.305,0.118,0.709-0.188,0.907c-1.014,0.664-2.004,1.478-2.935,2.421C111.506,43.089,111.333,43.157,111.164,43.157z
					 M117.776,38.942c-0.287,0-0.548-0.18-0.637-0.462c-0.108-0.343,0.086-0.711,0.437-0.823c1.443-0.445,2.533-0.511,3.054-0.511
					c0.19,0,0.293,0.009,0.293,0.009c0.366,0.029,0.635,0.352,0.601,0.705c-0.03,0.362-0.347,0.626-0.712,0.6
					c-0.01,0-0.071-0.003-0.182-0.003c-0.357,0-1.336,0.045-2.657,0.451C117.905,38.929,117.839,38.942,117.776,38.942z"/>
			</g>
			<path d="M172.323,105.047c-0.105-0.222-2.566-5.54-7.596-10.894c-6.78-7.218-15.016-11.065-23.823-11.119h-0.036l-0.033,0.002
				c-2.975,0.057-8.213,1.092-13.995,3.83c-7.201,3.403-13.697,8.595-19.336,15.437c-1.894-0.872-3.87-1.312-5.904-1.312
				c-4.059,0-7.42,1.782-9.423,3.17c-3.019-2.535-9.572-7.012-18.203-7.012c-2.405,0-4.824,0.356-7.188,1.056
				c-3.491,0.973-7.19,3.657-10.425,7.562c-3.119,3.768-5.624,8.45-7.053,13.176l-0.491,1.62l1.294,1.111
				c7.158,6.135,14.294,9.255,21.225,9.255c5.357,0,9.824-1.826,13.397-3.865c-0.032,0.499-0.049,0.982-0.062,1.463
				c-1.53,0.772-2.835,2.035-3.786,3.676c-1.153,1.996-1.679,4.415-1.448,6.645c0.43,4.115,3.269,6.777,7.236,6.777
				c0.009,0,0.017,0,0.025,0c1.366,0.559,4.125,1.664,8.279,1.664c6.944,0,14.582-3.078,22.722-9.143
				c3.256-0.372,5.808-1.307,7.604-2.782c1.915-1.578,2.915-3.768,2.812-6.159c-0.067-1.563-0.608-3.163-1.537-4.604
				c2.399,0.345,4.818,0.521,7.188,0.521c9.725,0,19.397-2.982,27.977-8.626c6.477-4.258,10.06-8.521,10.209-8.702l1.051-1.259
				L172.323,105.047z"/>
			<path fill="#D7DADD" d="M110.877,112.486c-0.514,0.425-0.108,2.272,0.799,3.98c1.235,2.343,3.376,3.128,3.942,6.242
				c7.611-3.328,17.202,11.551,1.073,12.901c-17.771,13.535-27.541,8.089-29.524,7.374c-7.436,0.55-6.258-11.299,0.086-12.604
				c0.162-2.986-0.108-5.071,1.525-9.077c-6.648,4.549-18.781,13.959-36.932-1.612c2.752-9.118,9.525-17.271,15.676-18.968
				c14.174-4.207,24.529,6.902,24.529,6.902s7.631-7.55,16.131-1.945c13.302-17.252,28.599-19.949,32.706-20.024
				c19.708,0.12,29.021,20.474,29.021,20.474s-16.702,20.044-43.63,15.771C115.708,120.348,111.388,112.061,110.877,112.486z"/>
			<path fill="#FCFCFC" d="M108.183,105.681c-8.855-5.964-16.131,1.945-16.131,1.945s7.669-5.496,18.118,1.312
				c1.167-4.419,7.797-14.196,22.606-21.641C118.341,91.954,109.783,103.691,108.183,105.681z"/>
			<path fill="#FCFCFC" d="M87.384,127.088c0,0,0.929-7.129,3.086-10.169c2.164-3.037,3.878,5.074,3.878,5.074L87.384,127.088z"/>
			<path fill="#FCFCFC" d="M63.979,102.356c-6.904,9.015-5.906,21.884-5.906,21.884l-6.227-4.549
				C51.847,119.691,55.678,107.501,63.979,102.356z"/>
			<path fill="#D1AB6F" d="M159.962,102.556c-24.416,33.972-47.199,4.962-47.199,4.962S132.493,72.898,159.962,102.556z"/>
			<path d="M112.763,107.518c7.211-11.437,15.5-15.865,22.323-16.805c14.329-1.976,24.876,11.843,24.876,11.843
				S137.459,77.268,112.763,107.518z"/>
			<path fill="#D1AB6F" d="M91.091,111.708c-20.516,24.277-35.125,5.945-35.125,6.057C55.966,117.867,61.993,88.411,91.091,111.708z
				"/>
			<g>
				<path d="M95.685,143.803l-0.014-0.397c0.514-0.015,1.046-0.056,1.57-0.115l0.045,0.396
					C96.748,143.745,96.213,143.782,95.685,143.803z M94.079,143.797c-0.538-0.031-1.076-0.08-1.601-0.15l0.056-0.39
					c0.509,0.07,1.039,0.117,1.562,0.141L94.079,143.797z M98.87,143.455l-0.069-0.385c0.504-0.095,1.021-0.199,1.542-0.328
					l0.095,0.382C99.911,143.253,99.383,143.365,98.87,143.455z M90.898,143.35c-0.516-0.122-1.036-0.269-1.543-0.439l0.126-0.374
					c0.495,0.171,1.002,0.312,1.509,0.432L90.898,143.35z M101.98,142.697l-0.118-0.374c0.49-0.156,0.992-0.321,1.494-0.503
					l0.14,0.37C102.989,142.375,102.476,142.541,101.98,142.697z M87.859,142.338c-0.15-0.06-0.282-0.116-0.398-0.151l-0.173-0.064
					l-0.186,0.013c-0.244,0.017-0.467,0.022-0.727,0.006l0.027-0.392c0.237,0.016,0.444,0.012,0.668-0.004l0.271-0.023l0.255,0.092
					c0.119,0.042,0.258,0.097,0.413,0.161L87.859,142.338z M84.774,141.703c-0.495-0.264-0.901-0.656-1.205-1.15l0.341-0.204
					c0.266,0.438,0.622,0.777,1.055,1.009L84.774,141.703z M104.98,141.605l-0.154-0.358c0.473-0.202,0.96-0.413,1.443-0.642
					l0.17,0.358C105.951,141.192,105.461,141.406,104.98,141.605z M107.872,140.262l-0.187-0.352
					c0.463-0.238,0.931-0.49,1.394-0.746l0.195,0.343C108.808,139.768,108.337,140.022,107.872,140.262z M83.008,139.021
					c-0.033-0.17-0.058-0.348-0.078-0.531c-0.022-0.221-0.034-0.451-0.034-0.688c0-0.13,0.003-0.261,0.01-0.394l0.396,0.019
					c-0.004,0.127-0.009,0.253-0.009,0.375c0,0.222,0.012,0.438,0.036,0.649c0.018,0.169,0.038,0.339,0.07,0.499L83.008,139.021z
					 M110.651,138.705l-0.211-0.338c0.441-0.264,0.891-0.548,1.341-0.835l0.218,0.329
					C111.547,138.155,111.094,138.436,110.651,138.705z M113.325,136.983l-0.229-0.322c0.428-0.294,0.865-0.598,1.296-0.91
					l0.232,0.319C114.192,136.38,113.755,136.688,113.325,136.983z M83.546,135.918l-0.386-0.103
					c0.141-0.524,0.331-1.032,0.57-1.507l0.356,0.174C83.862,134.932,83.677,135.415,83.546,135.918z M115.903,135.129l-0.241-0.313
					l0.551-0.42l0.37-0.027c0.211-0.017,0.424-0.041,0.633-0.062l0.043,0.39c-0.213,0.025-0.425,0.046-0.644,0.062l-0.254,0.025
					L115.903,135.129z M118.847,134.451l-0.076-0.385c0.534-0.109,1.046-0.238,1.515-0.388l0.123,0.376
					C119.925,134.205,119.402,134.34,118.847,134.451z M121.906,133.437l-0.185-0.349c0.485-0.253,0.908-0.539,1.262-0.863
					l0.267,0.292C122.876,132.859,122.426,133.169,121.906,133.437z M84.922,133.203l-0.307-0.253
					c0.365-0.431,0.779-0.796,1.227-1.082l0.215,0.329C85.646,132.463,85.26,132.804,84.922,133.203z M87.447,131.613l-0.089-0.389
					l0.721-0.146l0.029-0.549l0.396,0.026l-0.048,0.845L87.447,131.613z M124.24,131.208l-0.358-0.171
					c0.211-0.441,0.322-0.927,0.329-1.437l0.402,0.004C124.603,130.172,124.478,130.714,124.24,131.208z M88.568,128.976
					l-0.396-0.009v-0.1c0.018-0.51,0.029-0.993,0.061-1.476l0.396,0.021c-0.029,0.484-0.044,0.957-0.059,1.464L88.568,128.976z
					 M123.976,128.114c-0.154-0.462-0.373-0.927-0.656-1.373l0.338-0.208c0.298,0.473,0.531,0.965,0.697,1.462L123.976,128.114z
					 M71.336,127.452h-0.249l0.007-0.397h0.244c0.438,0,0.886-0.012,1.328-0.039l0.024,0.389
					C72.242,127.434,71.786,127.452,71.336,127.452z M69.482,127.364c-0.524-0.052-1.062-0.123-1.587-0.212l0.067-0.386
					c0.517,0.09,1.044,0.155,1.56,0.205L69.482,127.364z M74.288,127.233l-0.061-0.391c0.512-0.074,1.031-0.174,1.546-0.29
					l0.092,0.383C75.338,127.055,74.809,127.157,74.288,127.233z M66.324,126.826c-0.508-0.127-1.026-0.275-1.542-0.441l0.121-0.366
					c0.506,0.157,1.017,0.298,1.519,0.422L66.324,126.826z M77.413,126.525l-0.116-0.375c0.487-0.155,0.988-0.328,1.484-0.517
					l0.144,0.365C78.423,126.194,77.909,126.368,77.413,126.525z M88.78,125.862l-0.393-0.055c0.076-0.524,0.181-1.039,0.311-1.561
					l0.386,0.099C88.956,124.854,88.857,125.354,88.78,125.862z M63.278,125.856c-0.487-0.188-0.986-0.396-1.476-0.621l0.168-0.358
					c0.48,0.223,0.972,0.428,1.451,0.613L63.278,125.856z M122.37,125.538c-0.059-0.062-0.12-0.119-0.181-0.181
					c-0.314-0.3-0.649-0.57-1.002-0.811l0.228-0.323c0.369,0.251,0.721,0.534,1.053,0.852c0.062,0.06,0.128,0.124,0.188,0.187
					L122.37,125.538z M70.573,125.534l-0.017-0.397c0.521-0.018,1.048-0.06,1.566-0.122l0.05,0.396
					C71.643,125.472,71.103,125.51,70.573,125.534z M68.967,125.521c-0.532-0.03-1.071-0.082-1.601-0.154l0.058-0.39
					c0.517,0.073,1.043,0.123,1.56,0.15L68.967,125.521z M80.402,125.383l-0.166-0.354c0.464-0.212,0.938-0.448,1.417-0.688
					l0.186,0.344C81.354,124.935,80.872,125.172,80.402,125.383z M73.757,125.15l-0.078-0.388c0.505-0.1,1.017-0.229,1.523-0.377
					l0.112,0.379C74.799,124.914,74.274,125.043,73.757,125.15z M65.786,125.073c-0.516-0.114-1.035-0.259-1.546-0.422l0.124-0.373
					c0.499,0.157,1.008,0.296,1.512,0.413L65.786,125.073z M60.367,124.536c-0.463-0.238-0.933-0.494-1.397-0.77l0.201-0.338
					c0.457,0.266,0.927,0.52,1.381,0.757L60.367,124.536z M76.836,124.266l-0.136-0.37c0.481-0.173,0.973-0.376,1.453-0.589
					l0.165,0.358C77.827,123.883,77.327,124.084,76.836,124.266z M115.381,124.176l-0.161-0.359l0.746-0.327
					c0.247-0.11,0.505-0.194,0.76-0.259l0.102,0.379c-0.237,0.06-0.474,0.141-0.696,0.241L115.381,124.176z M62.735,124.095
					c-0.484-0.206-0.978-0.43-1.453-0.674l0.184-0.352c0.468,0.239,0.947,0.466,1.42,0.662L62.735,124.095z M83.234,123.915
					l-0.201-0.343c0.441-0.256,0.883-0.522,1.348-0.817l0.216,0.329C84.126,123.385,83.679,123.657,83.234,123.915z
					 M119.827,123.833c-0.496-0.188-0.997-0.3-1.489-0.344l0.034-0.39c0.527,0.042,1.064,0.165,1.597,0.371L119.827,123.833z
					 M114.431,123.213l-0.05-0.282c-0.078-0.431-0.193-0.815-0.356-1.184l0.367-0.158c0.172,0.397,0.297,0.812,0.378,1.273
					l0.054,0.281L114.431,123.213z M79.759,122.964l-0.186-0.345c0.454-0.236,0.917-0.495,1.377-0.765l0.201,0.336
					C80.689,122.463,80.221,122.73,79.759,122.964z M57.605,122.941c-0.438-0.277-0.882-0.578-1.321-0.884l0.23-0.321
					c0.433,0.304,0.875,0.595,1.31,0.875L57.605,122.941z M89.536,122.856l-0.375-0.126c0.122-0.359,0.266-0.73,0.418-1.11
					l0.151-0.37l0.369,0.144l-0.153,0.372C89.798,122.139,89.654,122.504,89.536,122.856z M59.89,122.631
					c-0.453-0.274-0.9-0.575-1.336-0.886l0.236-0.317c0.427,0.307,0.865,0.594,1.31,0.871L59.89,122.631z M85.927,122.217
					l-0.222-0.324c0.454-0.304,0.89-0.604,1.306-0.889l0.229,0.318C86.819,121.616,86.383,121.919,85.927,122.217z M133.473,121.646
					c-0.533-0.005-1.067-0.016-1.598-0.037l0.016-0.396c0.525,0.026,1.056,0.04,1.585,0.042L133.473,121.646z M135.068,121.631
					l-0.013-0.394c0.521-0.018,1.055-0.041,1.581-0.078l0.026,0.397C136.131,121.589,135.592,121.616,135.068,121.631z
					 M130.281,121.513c-0.528-0.041-1.062-0.087-1.588-0.145l0.042-0.394c0.522,0.059,1.054,0.108,1.576,0.151L130.281,121.513z
					 M138.259,121.426l-0.044-0.397c0.524-0.045,1.052-0.107,1.571-0.183l0.054,0.392
					C139.318,121.311,138.782,121.371,138.259,121.426z M82.499,121.336l-0.221-0.324c0.427-0.287,0.862-0.588,1.287-0.907
					l0.236,0.319C83.368,120.74,82.932,121.05,82.499,121.336z M127.105,121.162c-0.232-0.029-0.465-0.067-0.701-0.103
					c-0.288-0.043-0.586-0.093-0.876-0.148l0.076-0.385c0.282,0.054,0.574,0.103,0.858,0.146c0.235,0.033,0.472,0.072,0.7,0.104
					L127.105,121.162z M54.996,121.126c-0.415-0.311-0.841-0.639-1.257-0.979l0.251-0.304c0.412,0.337,0.834,0.656,1.244,0.968
					L54.996,121.126z M141.417,120.995l-0.066-0.393c0.514-0.087,1.042-0.188,1.552-0.29l0.084,0.383
					C142.469,120.805,141.94,120.902,141.417,120.995z M57.294,120.764c-0.408-0.338-0.811-0.697-1.191-1.066l0.28-0.282
					c0.373,0.359,0.767,0.716,1.164,1.049L57.294,120.764z M123.964,120.557c-0.51-0.145-1.026-0.302-1.527-0.482l0.134-0.369
					c0.494,0.177,0.997,0.334,1.502,0.474L123.964,120.557z M113.229,120.45c-0.245-0.308-0.518-0.603-0.799-0.915l-0.238-0.262
					l0.297-0.261l0.236,0.261c0.288,0.315,0.562,0.614,0.811,0.932L113.229,120.45z M88.546,120.428l-0.227-0.327l1.309-0.894
					l0.222,0.324L88.546,120.428z M144.544,120.34l-0.101-0.381c0.515-0.123,1.027-0.262,1.534-0.4l0.105,0.377
					C145.577,120.076,145.057,120.214,144.544,120.34z M134.67,120.305c-0.294,0.005-0.59-0.006-0.884-0.021l0.017-0.391
					c0.292,0.011,0.578,0.018,0.867,0.016c0.234,0,0.47-0.005,0.705-0.011l0.015,0.391
					C135.146,120.299,134.91,120.305,134.67,120.305z M136.989,120.184l-0.042-0.395c0.517-0.052,1.046-0.126,1.561-0.213
					l0.068,0.385C138.052,120.057,137.516,120.129,136.989,120.184z M132.186,120.167c-0.521-0.058-1.056-0.135-1.583-0.227
					l0.071-0.386c0.518,0.091,1.041,0.162,1.559,0.22L132.186,120.167z M90.694,119.938l-0.369-0.149l0.575-1.41l0.106,0.037
					l-0.072-0.1l0.583-0.4L90.694,119.938z M140.143,119.632l-0.095-0.381c0.505-0.125,1.013-0.272,1.516-0.429l0.121,0.373
					C141.175,119.354,140.657,119.506,140.143,119.632z M129.036,119.601c-0.511-0.126-1.028-0.267-1.54-0.429l0.119-0.378
					c0.506,0.16,1.018,0.303,1.518,0.426L129.036,119.601z M120.948,119.473c-0.481-0.211-0.966-0.454-1.434-0.708l0.194-0.348
					c0.457,0.253,0.931,0.488,1.405,0.704L120.948,119.473z M147.614,119.473l-0.123-0.374c0.333-0.103,0.668-0.214,1.003-0.331
					c0.163-0.059,0.327-0.117,0.496-0.175l0.135,0.369c-0.169,0.06-0.333,0.119-0.499,0.176
					C148.29,119.255,147.949,119.369,147.614,119.473z M85.062,119.45l-0.25-0.305c0.402-0.323,0.808-0.667,1.208-1.011l0.264,0.293
					C85.878,118.781,85.469,119.126,85.062,119.45z M54.968,119.009h-0.259v-1.711h0.396v1.514h-0.138V119.009z M53.428,118.887
					l-0.375-0.126c0.165-0.492,0.351-0.991,0.548-1.487l0.371,0.145C53.776,117.904,53.593,118.4,53.428,118.887z M143.19,118.659
					l-0.144-0.365c0.481-0.19,0.968-0.396,1.447-0.62l0.167,0.359C144.173,118.257,143.681,118.469,143.19,118.659z
					 M125.985,118.649c-0.494-0.188-0.99-0.39-1.48-0.606l0.162-0.362c0.482,0.218,0.975,0.418,1.458,0.602L125.985,118.649z
					 M150.613,118.4l-0.147-0.366c0.486-0.19,0.978-0.396,1.463-0.607l0.16,0.361C151.6,118.002,151.102,118.206,150.613,118.4z
					 M111.175,118.036c-0.234-0.324-0.436-0.648-0.616-0.99c-0.033-0.064-0.107-0.201-0.198-0.396l0.357-0.168
					c0.09,0.185,0.159,0.319,0.194,0.381c0.168,0.321,0.358,0.64,0.586,0.944L111.175,118.036z M118.143,117.944
					c-0.44-0.291-0.881-0.6-1.307-0.924l0.243-0.309c0.416,0.314,0.848,0.621,1.28,0.9L118.143,117.944z M87.465,117.364
					l-0.274-0.284c0.376-0.352,0.757-0.718,1.133-1.095l0.286,0.281C88.23,116.646,87.843,117.016,87.465,117.364z M123.064,117.355
					c-0.467-0.24-0.94-0.493-1.404-0.758l0.2-0.342c0.457,0.266,0.926,0.518,1.385,0.753L123.064,117.355z M146.093,117.321
					l-0.189-0.347c0.453-0.244,0.914-0.506,1.367-0.776l0.209,0.333C147.017,116.808,146.552,117.075,146.093,117.321z
					 M153.538,117.133l-0.173-0.356c0.472-0.226,0.95-0.464,1.419-0.697l0.182,0.346
					C154.49,116.666,154.014,116.907,153.538,117.133z M55.546,116.046l-0.383-0.116c0.154-0.491,0.328-0.997,0.515-1.498
					l0.369,0.133C55.868,115.059,55.695,115.558,55.546,116.046z M115.599,116.013c-0.392-0.347-0.781-0.712-1.162-1.091
					l0.277-0.275c0.376,0.375,0.762,0.729,1.148,1.072L115.599,116.013z M54.581,115.976l-0.364-0.163
					c0.219-0.476,0.447-0.959,0.687-1.431l0.355,0.178C55.023,115.027,54.799,115.5,54.581,115.976z M120.294,115.774
					c-0.441-0.285-0.887-0.586-1.322-0.893l0.231-0.319c0.427,0.304,0.87,0.6,1.306,0.877L120.294,115.774z M156.371,115.676
					l-0.194-0.339c0.456-0.256,0.921-0.521,1.372-0.789l0.201,0.336C157.3,115.155,156.833,115.421,156.371,115.676z
					 M148.819,115.671l-0.225-0.325c0.431-0.289,0.863-0.595,1.289-0.91l0.237,0.315
					C149.694,115.067,149.257,115.377,148.819,115.671z M109.761,115.164c-0.188-0.578-0.303-1.111-0.345-1.577l0.396-0.034
					c0.039,0.436,0.15,0.938,0.326,1.49L109.761,115.164z M89.715,115.129l-0.288-0.27c0.35-0.368,0.71-0.757,1.068-1.158
					l0.294,0.265C90.43,114.365,90.068,114.755,89.715,115.129z M159.108,114.05l-0.217-0.327c0.232-0.15,0.461-0.297,0.687-0.444
					c0.216-0.146,0.426-0.282,0.632-0.422l0.229,0.322c-0.212,0.14-0.427,0.286-0.639,0.427
					C159.569,113.755,159.339,113.905,159.108,114.05z M117.689,113.939c-0.418-0.32-0.839-0.654-1.242-0.998l0.257-0.298
					c0.398,0.337,0.815,0.668,1.228,0.985L117.689,113.939z M151.379,113.777l-0.253-0.304c0.398-0.326,0.803-0.669,1.204-1.02
					l0.261,0.293C152.19,113.103,151.779,113.444,151.379,113.777z M113.335,113.763c-0.294-0.322-0.553-0.622-0.771-0.879
					l-0.27-0.311l0.296-0.257l0.272,0.308c0.223,0.258,0.477,0.555,0.771,0.881L113.335,113.763z M55.995,113.177l-0.35-0.189
					c0.26-0.458,0.533-0.921,0.81-1.366l0.335,0.201c0.051-0.098,0.101-0.201,0.151-0.304l0.354,0.177
					c-0.229,0.464-0.454,0.936-0.661,1.419l-0.365-0.158c0.161-0.37,0.326-0.73,0.503-1.092
					C56.504,112.295,56.244,112.736,55.995,113.177z M91.834,112.77l-0.304-0.255l0.915-1.076l0.021,0.018l0.124-0.147l0.29,0.233
					L91.834,112.77z M161.741,112.266l-0.237-0.317c0.423-0.306,0.845-0.622,1.265-0.943l0.246,0.311
					C162.593,111.638,162.162,111.957,161.741,112.266z M110.053,112.144l-0.339-0.203c0.097-0.155,0.216-0.297,0.352-0.408
					c0.243-0.2,0.545-0.305,0.857-0.305c0.131,0,0.25,0.013,0.367,0.042l-0.105,0.376c-0.269-0.069-0.622-0.015-0.861,0.183
					C110.215,111.922,110.126,112.022,110.053,112.144z M115.247,111.898c-0.393-0.352-0.782-0.721-1.157-1.089l0.282-0.282
					c0.371,0.365,0.756,0.73,1.144,1.084L115.247,111.898z M153.766,111.679l-0.276-0.287c0.376-0.351,0.754-0.721,1.126-1.096
					l0.286,0.271C154.527,110.945,154.146,111.319,153.766,111.679z M91.101,110.628c-0.415-0.328-0.833-0.653-1.251-0.961
					l0.242-0.316c0.418,0.316,0.839,0.64,1.257,0.969L91.101,110.628z M57.652,110.513l-0.328-0.219
					c0.299-0.435,0.609-0.869,0.931-1.289l0.096,0.071c0.064-0.099,0.132-0.197,0.197-0.296l0.334,0.222
					c-0.092,0.132-0.179,0.265-0.27,0.398c-0.197,0.3-0.388,0.611-0.568,0.922l-0.189-0.105
					C57.788,110.315,57.721,110.416,57.652,110.513z M164.261,110.324l-0.256-0.305c0.412-0.332,0.815-0.679,1.203-1.015
					l0.264,0.296C165.08,109.642,164.672,109.988,164.261,110.324z M112.98,109.671c-0.493-0.533-0.848-0.946-1.054-1.197
					l0.309-0.25c0.202,0.248,0.547,0.655,1.036,1.177L112.98,109.671z M155.999,109.425l-0.294-0.268
					c0.355-0.381,0.712-0.774,1.057-1.171l0.299,0.262C156.714,108.642,156.356,109.035,155.999,109.425z M88.577,108.729
					c-0.431-0.309-0.868-0.607-1.293-0.897l0.222-0.324c0.434,0.289,0.872,0.593,1.308,0.902L88.577,108.729z M92.723,108.718
					l-0.277-0.277l0.212-0.215l0,0c0,0,0.353-0.343,1.007-0.837l0.243,0.313c-0.627,0.466-0.963,0.801-0.963,0.801L92.723,108.718z
					 M91.335,108.692l-0.207-0.223c-0.003-0.005-0.322-0.338-0.919-0.869l0.261-0.288c0.613,0.534,0.943,0.886,0.945,0.89
					l0.212,0.226L91.335,108.692z M166.653,108.234l-0.275-0.285c0.393-0.363,0.772-0.732,1.136-1.096l0.28,0.281
					C167.428,107.501,167.044,107.873,166.653,108.234z M59.55,108.016l-0.306-0.251c0.217-0.253,0.43-0.5,0.646-0.741l0.298,0.258
					c-0.128,0.154-0.255,0.305-0.38,0.466l-0.015-0.019C59.714,107.825,59.631,107.917,59.55,108.016z M108.468,107.371
					l-0.983-0.652c-0.151-0.104-0.31-0.199-0.466-0.295l0.206-0.336c0.161,0.094,0.323,0.199,0.481,0.306l0.829,0.546l-0.095,0.139
					l0.16,0.12L108.468,107.371z M111.982,107.156l-0.348-0.195l0.034-0.056c0.011-0.02,0.281-0.501,0.806-1.296l0.336,0.217
					c-0.517,0.781-0.786,1.252-0.798,1.271L111.982,107.156z M158.09,107.038l-0.307-0.249c0.333-0.397,0.663-0.811,0.991-1.222
					l0.312,0.239C158.757,106.225,158.425,106.638,158.09,107.038z M85.965,106.968c-0.451-0.289-0.904-0.563-1.35-0.825
					l0.201-0.341c0.454,0.269,0.908,0.546,1.361,0.834L85.965,106.968z M95.201,106.821l-0.21-0.337
					c0.465-0.282,0.938-0.538,1.414-0.768l0.174,0.358C96.113,106.293,95.651,106.543,95.201,106.821z M88.999,106.595
					c-0.412-0.319-0.835-0.635-1.267-0.938l0.228-0.319c0.437,0.307,0.87,0.626,1.284,0.949L88.999,106.595z M109.564,105.951
					l-0.312-0.24c0.322-0.415,0.66-0.825,0.993-1.237l0.309,0.248C110.219,105.126,109.886,105.538,109.564,105.951z
					 M168.399,105.916c-0.231-0.438-0.486-0.896-0.762-1.372l0.344-0.194c0.278,0.479,0.538,0.946,0.77,1.386L168.399,105.916z
					 M105.634,105.711c-0.484-0.213-0.979-0.381-1.473-0.514l0.106-0.384c0.51,0.142,1.022,0.321,1.524,0.535L105.634,105.711z
					 M98.024,105.477l-0.13-0.369c0.519-0.181,1.043-0.322,1.556-0.426l0.08,0.388C99.032,105.167,98.526,105.306,98.024,105.477z
					 M83.24,105.362c-0.47-0.253-0.941-0.5-1.401-0.722l0.178-0.353c0.465,0.229,0.942,0.475,1.414,0.731L83.24,105.362z
					 M62.112,105.354l-0.264-0.296c0.245-0.218,0.494-0.435,0.745-0.638l0.253,0.302c-0.095,0.074-0.186,0.153-0.281,0.235
					l0.012,0.013C62.421,105.096,62.263,105.223,62.112,105.354z M102.633,104.91c-0.515-0.056-1.043-0.066-1.556-0.041l-0.02-0.391
					c0.527-0.028,1.08-0.017,1.617,0.042L102.633,104.91z M86.416,104.792c-0.447-0.275-0.907-0.546-1.361-0.795l0.19-0.342
					c0.466,0.253,0.929,0.522,1.382,0.806L86.416,104.792z M160.056,104.553l-0.32-0.236c0.311-0.41,0.623-0.836,0.936-1.267
					l0.4-0.562l-0.019-0.017l0.11-0.113l0.009,0.004l0.175-0.161l0.235,0.255l-0.59,0.825
					C160.681,103.711,160.366,104.132,160.056,104.553z M113.699,104.528l-0.328-0.229c0.304-0.423,0.621-0.853,0.943-1.271
					l0.319,0.232C114.312,103.682,113.994,104.107,113.699,104.528z M63.854,104.066l-0.216-0.329
					c0.104-0.062,0.197-0.122,0.3-0.183l-0.071-0.102c0.451-0.316,0.907-0.601,1.359-0.851l0.194,0.341
					c-0.099,0.058-0.199,0.112-0.295,0.171l0.092,0.19C64.754,103.536,64.296,103.79,63.854,104.066z M80.408,103.977
					c-0.491-0.219-0.981-0.417-1.458-0.6l0.139-0.366c0.484,0.182,0.984,0.391,1.481,0.604L80.408,103.977z M111.569,103.523
					l-0.3-0.263c0.346-0.393,0.7-0.791,1.053-1.184l0.3,0.269C112.265,102.731,111.915,103.122,111.569,103.523z M83.651,103.286
					c-0.478-0.227-0.964-0.436-1.445-0.628l0.147-0.366c0.491,0.194,0.986,0.406,1.47,0.637L83.651,103.286z M166.822,103.207
					c-0.274-0.436-0.565-0.88-0.863-1.315l0.326-0.22c0.3,0.439,0.594,0.886,0.871,1.323L166.822,103.207z M77.457,102.865
					c-0.506-0.156-1.017-0.301-1.517-0.424l0.094-0.381c0.51,0.124,1.027,0.267,1.545,0.431L77.457,102.865z M66.66,102.698
					l-0.135-0.363c0.099-0.037,0.19-0.071,0.287-0.102l-0.134-0.324c0.36-0.148,0.726-0.271,1.076-0.366
					c0.159-0.05,0.309-0.091,0.455-0.129l0.105,0.376c-0.146,0.039-0.288,0.08-0.432,0.125l-0.028,0.008
					c-0.085,0.022-0.176,0.05-0.266,0.078c0.162-0.046,0.319-0.082,0.482-0.122l0.091,0.38
					C67.655,102.379,67.149,102.529,66.66,102.698z M74.401,102.13c-0.527-0.087-1.052-0.148-1.562-0.191l0.031-0.391
					c0.521,0.041,1.059,0.108,1.595,0.194L74.401,102.13z M80.727,102.118c-0.502-0.163-1.009-0.311-1.513-0.438l0.099-0.381
					c0.515,0.13,1.029,0.279,1.535,0.447L80.727,102.118z M115.608,102.031l-0.312-0.249c0.336-0.406,0.682-0.812,1.031-1.21
					l0.301,0.257C116.28,101.226,115.94,101.626,115.608,102.031z M69.71,101.992l-0.052-0.387c0.521-0.064,1.063-0.104,1.605-0.112
					l0.007,0.392C70.74,101.894,70.216,101.933,69.71,101.992z M69.849,101.429l-0.077-0.385c0.522-0.107,1.058-0.189,1.582-0.257
					l0.049,0.389C70.89,101.24,70.363,101.322,69.849,101.429z M77.675,101.351c-0.521-0.097-1.044-0.17-1.561-0.221l0.042-0.392
					c0.527,0.056,1.056,0.131,1.588,0.222L77.675,101.351z M159.977,101.314c-0.364-0.381-0.735-0.759-1.103-1.124l0.282-0.277
					c0.369,0.364,0.739,0.749,1.11,1.133L159.977,101.314z M113.697,101.191l-0.294-0.27c0.367-0.377,0.741-0.756,1.118-1.125
					l0.281,0.275C114.429,100.44,114.058,100.817,113.697,101.191z M72.971,101.044l-0.022-0.396
					c0.534-0.025,1.077-0.031,1.607-0.017l-0.009,0.392C74.025,101.01,73.493,101.014,72.971,101.044z M165.043,100.611
					c-0.307-0.421-0.626-0.844-0.951-1.248l0.312-0.243c0.329,0.41,0.652,0.834,0.963,1.258L165.043,100.611z M117.686,99.668
					l-0.292-0.271c0.369-0.39,0.742-0.771,1.108-1.136l0.285,0.274C118.416,98.898,118.048,99.279,117.686,99.668z M157.74,99.091
					c-0.382-0.355-0.772-0.716-1.165-1.06l0.267-0.292c0.393,0.344,0.787,0.706,1.171,1.072L157.74,99.091z M115.941,98.983
					l-0.273-0.286c0.385-0.359,0.782-0.716,1.177-1.066l0.264,0.297C116.716,98.271,116.322,98.626,115.941,98.983z M163.087,98.147
					c-0.342-0.4-0.693-0.797-1.046-1.173l0.294-0.265c0.355,0.38,0.708,0.78,1.058,1.183L163.087,98.147z M119.925,97.454
					l-0.27-0.294c0.396-0.357,0.799-0.712,1.197-1.049l0.256,0.301C120.715,96.747,120.315,97.093,119.925,97.454z M155.379,97.009
					c-0.407-0.344-0.823-0.673-1.229-0.987l0.246-0.308c0.409,0.317,0.829,0.651,1.239,0.991L155.379,97.009z M118.306,96.9
					l-0.254-0.301c0.408-0.336,0.823-0.675,1.24-0.997l0.245,0.31C119.123,96.231,118.712,96.568,118.306,96.9z M161.824,96.74
					c-0.364-0.386-0.736-0.764-1.105-1.128l0.284-0.276c0.371,0.367,0.744,0.75,1.112,1.136L161.824,96.74z M122.333,95.425
					l-0.245-0.312c0.422-0.321,0.853-0.639,1.285-0.94l0.231,0.321C123.176,94.791,122.75,95.105,122.333,95.425z M152.883,95.087
					c-0.432-0.305-0.866-0.604-1.305-0.883l0.215-0.332c0.44,0.285,0.886,0.589,1.319,0.896L152.883,95.087z M120.796,94.965
					l-0.235-0.317c0.431-0.312,0.867-0.621,1.3-0.919l0.226,0.324C121.658,94.348,121.222,94.654,120.796,94.965z M159.573,94.536
					c-0.389-0.352-0.791-0.693-1.194-1.022l0.254-0.302c0.408,0.33,0.812,0.683,1.208,1.034L159.573,94.536z M124.914,93.624
					l-0.213-0.331c0.451-0.28,0.912-0.558,1.374-0.813l0.194,0.347C125.816,93.079,125.361,93.346,124.914,93.624z M150.235,93.374
					c-0.46-0.269-0.922-0.524-1.376-0.76l0.184-0.347c0.463,0.235,0.93,0.499,1.396,0.771L150.235,93.374z M123.403,93.184
					l-0.216-0.331c0.444-0.284,0.899-0.562,1.357-0.829l0.205,0.336C124.296,92.624,123.841,92.905,123.403,93.184z M157.141,92.539
					c-0.422-0.312-0.854-0.621-1.284-0.91l0.226-0.326c0.435,0.294,0.87,0.606,1.295,0.924L157.141,92.539z M127.666,92.098
					l-0.173-0.354c0.483-0.236,0.977-0.454,1.458-0.648l0.153,0.355C128.629,91.65,128.147,91.867,127.666,92.098z M147.441,91.922
					c-0.485-0.217-0.97-0.426-1.452-0.612l0.145-0.365c0.487,0.188,0.985,0.4,1.476,0.618L147.441,91.922z M126.12,91.574
					l-0.192-0.341c0.464-0.253,0.937-0.5,1.411-0.741l0.181,0.354C127.051,91.079,126.58,91.324,126.12,91.574z M130.578,90.901
					l-0.128-0.372c0.508-0.174,1.024-0.333,1.533-0.467l0.103,0.378C131.587,90.573,131.08,90.73,130.578,90.901z M144.502,90.79
					c-0.496-0.163-1.011-0.307-1.512-0.431l0.096-0.381c0.515,0.126,1.031,0.271,1.54,0.436L144.502,90.79z M154.527,90.787
					c-0.453-0.275-0.915-0.535-1.371-0.776l0.188-0.344c0.459,0.243,0.931,0.507,1.388,0.78L154.527,90.787z M128.942,90.161
					l-0.168-0.358c0.478-0.224,0.966-0.437,1.461-0.64l0.155,0.359C129.904,89.729,129.415,89.938,128.942,90.161z M133.621,90.089
					l-0.076-0.389c0.523-0.098,1.06-0.185,1.584-0.246l0.05,0.393C134.663,89.908,134.135,89.987,133.621,90.089z M141.449,90.032
					c-0.519-0.094-1.042-0.167-1.558-0.221l0.04-0.39c0.526,0.057,1.06,0.129,1.588,0.221L141.449,90.032z M136.745,89.717
					l-0.018-0.393c0.539-0.024,1.073-0.026,1.604-0.012l-0.012,0.392C137.797,89.689,137.272,89.693,136.745,89.717z
					 M151.743,89.314c-0.479-0.218-0.967-0.428-1.451-0.616l0.146-0.366c0.493,0.19,0.985,0.403,1.472,0.623L151.743,89.314z
					 M131.858,88.945l-0.14-0.369c0.501-0.186,1.008-0.366,1.505-0.525l0.127,0.372C132.856,88.583,132.355,88.76,131.858,88.945z
					 M148.809,88.171c-0.5-0.161-1.009-0.307-1.514-0.439l0.099-0.384c0.514,0.138,1.031,0.285,1.537,0.45L148.809,88.171z
					 M134.86,87.957l-0.109-0.376c0.522-0.146,1.042-0.282,1.546-0.399l0.091,0.38C135.889,87.682,135.375,87.814,134.86,87.957z
					 M145.756,87.382c-0.511-0.101-1.036-0.184-1.556-0.253l0.051-0.387c0.53,0.068,1.061,0.153,1.583,0.257L145.756,87.382z
					 M137.937,87.238l-0.073-0.39c0.552-0.099,1.087-0.179,1.588-0.235l0.043,0.39C139.006,87.062,138.479,87.138,137.937,87.238z
					 M142.63,86.969c-0.521-0.036-1.049-0.061-1.576-0.065l0.007-0.393c0.532,0.007,1.071,0.027,1.599,0.066L142.63,86.969z"/>
			</g>
			<g>
				<path d="M160.803,156.945c0,0,6.538,15.79,7.683,18.634c-6.969,5.738-17.455,7.682-17.455,7.682s-2.464,3.555-8.314,5.301
					c-3.236,4.616-8.116,5.439-10.976,5.464c-5.679,4.642-11.989,0.651-11.989,0.651s-3.597,3.799-7.064,1.869
					c-1.245-0.688-1.05-1.749-2.774-2.521c-4.671,0.4-8.456-4.217-8.456-4.217s-7.865-3.242-12.195-7.014l0.304-6.467
					L160.803,156.945z"/>
				<path d="M91.161,167.704c0,0,0.063,6.817-1.597,13.45c5.436,4.995,15.791,5.912,15.791,5.912L91.161,167.704z"/>
				<path d="M138.899,129.484l17.296,20.375c0,0,4.651-6.826-1.614-15.415C147.425,125.858,138.899,129.484,138.899,129.484z"/>
				<path fill="#D7DADD" d="M87.931,154.625c4.194,14.108,4.058,26.519,4.058,26.519s6.188,4.484,12.538,5.898
					c25.633,0.505,57.063-8.247,60.235-13.212c-4.095-8.494-8.666-25.48-8.666-25.48S85.32,152.273,87.931,154.625z"/>
				<path fill="#D1AB6F" d="M125.681,134.955c20.062-15.698,36.041,6.164,29.216,18.393c2.958,13.938,5.906,19.519,5.906,19.519
					s-6.057,4.532-13.539,7.659c-3.247,0.544-15.271,4.874-26.376,5.501c-10.877,0.611-21.941-3.126-23.399-3.778
					c-1.022-5.346-8.952-20.626-8.039-25.303c0.281-1.438,0.431-4.99,1.16-5.474C99.878,145.889,121.305,138.204,125.681,134.955z"
					/>
				<path fill="#D1AB6F" d="M100.206,154.797c0,4.664-3.823,8.44-8.536,8.44c-4.714,0-8.534-3.776-8.534-8.44
					c0-4.67,3.82-8.442,8.534-8.442C96.383,146.354,100.206,150.127,100.206,154.797z"/>
				<path fill="#3F0306" d="M87.859,157.394c0,0,11.277,11.151,23.255,6.188c16.552-3.345,18.794-9.795,23.092-15.1
					c2.436-3.005,5.232-4.531,5.232-4.531s-20.7,5.881-29.65,8.52C100.833,155.116,87.859,157.394,87.859,157.394z"/>
				<path d="M107.009,164.652c-2.926-11.361,14.177-15.299,14.177-15.299s10.375-4.518,12.766-0.556
					C131.561,163.574,108.391,168.48,107.009,164.652z"/>
				<path fill="#8D1516" d="M109.183,163.719c-2.236-7.831,9.189-12.225,10.364-12.005c-2.235,1.407-2.604,3.618-2.019,4.965
					c0.325-2.481,7.959-9.814,15.353-6.46C133.227,156.568,109.672,167.634,109.183,163.719z"/>
				<path fill="#C9A9A9" d="M109.183,163.719c-2.174-8.25,9.353-11.834,9.353-11.834s-2.417,2.319-1.007,4.794
					c2.019-4.965,5.764-6.141,7.584-6.639c-5.182,2.879-7.825,12.68-12.715,14.496C111.007,164.618,109.434,165.004,109.183,163.719
					z"/>
				<path fill="#D7DADD" d="M87.225,157.325c0.541-0.433,5.871-6.116,21.472-8.522c13.763-7.544,23.131-5.893,27.58-4.853
					c1.721,0.404,3.162,0,3.162,0s-10.92,5.412-27.687,10.68C101.177,158.079,87.225,157.325,87.225,157.325z"/>
				<path d="M140.507,144.886c-1.195,0.805-1.449,1.354-5.754,6.893c-0.619-4.949,4.775-8.033,4.775-8.033
					S140.73,143.496,140.507,144.886z"/>
				<path d="M87.859,157.394c7.758,6.871,20.548,4.969,20.548,4.969s11.532-2.661,16.333-4.835
					c-6.002,7.063-15.933,5.943-15.933,5.943S98.136,168.326,87.859,157.394z"/>
				<path fill="#31738B" d="M93.104,164.536c0,0,3.581,12.85,19.294,7.95c13.913-0.655,17.381-11.516,17.381-11.516l-21.438,4.925
					L93.104,164.536z"/>
				<path fill="#B89656" d="M139.438,143.745c0,0-2.941,4.137-4.902,8.514c-3.456,7.688-8.629,17.9-23.422,18.655
					c-13.118,2.706-15.869-2.56-18.55-7.333c-1.802-3.208-4.705-6.188-4.705-6.188s3.163,3.877,9.629,5.537
					c3.376,0.869,6.957,0.217,11.319,0.54c6.865-3.234,16.458-3.774,21.405-10.632C135.029,145.719,139.438,143.745,139.438,143.745
					z"/>
				<path d="M136.439,142.392c0,0,5.485-0.546,4.88,3.954C140.229,143.25,136.439,142.392,136.439,142.392z"/>
				<path fill="#D1AB6F" d="M87.225,157.325c3.1-0.341,5.342-3.655,9.427-4.785c2.794-0.773,7.896-0.581,10.842-1.439
					c4.046-1.177,9.359-4.243,15.442-6.05c7.077-2.105,12.814,0.051,15.723-0.875c1.285-0.174-8.644-5.694-33.559,3.765
					C84.544,153.367,85.987,157.074,87.225,157.325z"/>
				<path fill="#3A2005" d="M120.888,135.751c2.528-0.753,21.498,1.401,22.041,2.73c5.671,7.309,6.598,18.021,7.521,21.215
					c1.308,6.577,0,10.787,0,10.787s0.547,6.256,0.547,7.977c0,1.729-2.292,2.05-2.292,2.05s0.438,2.481-2.614,3.454
					c-1.69,0.351-3.162,0.863-3.162,0.863s-2.397,0.646-3.489,2.152c-3.489,4.102-9.267,4.421-8.832,4.318
					c0.44-0.109-2.809,1.794-4.334,2.006c-1.524,0.219-3.842-1.36-3.842-1.36l-3.896-0.215c0,0-1.662,1.956-2.97,2.279
					c-1.307,0.325-3.926-4.545-3.926-4.545s-1.685,1.953-2.744,1.184c-2.16-0.754-3.796-1.938-5.432-4.201
					c-2.071-1.081-6.648-7.335-7.957-12.187c-4.576-5.18-6.246-14.962-6.246-14.962l2.259,2.68c0,0,3.441,9.047,5.077,11.2
					c3.049,5.395,10.358,7.985,10.358,7.985s1.737-2.41,3.048-2.16c1.316,0.251,3.327,1.187,3.327,1.187l2.249,1.493
					c0,0,1.241,1.277,2.41,1.347c1.173,0.071,2.138-1.655,2.138-1.655s1.983-1.726,1.76-2.48c-0.217-0.754-2.398,0.322-2.398,0.322
					s-0.761-1.289-1.635-1.723c-0.872-0.43-0.542,1.941-0.542,1.941s-5.777-0.541-6.871-3.124c0.437-1.944,4.907-1.619,6.433-1.619
					c1.528,0,2.149-1.727,3.254-2.48c1.108-0.754,2.196-0.11,2.196-0.11s0.548-2.266,1.964-3.021
					c1.417-0.755,3.487-0.434,3.487-0.434s1.199-2.151,1.854-2.479c0.653-0.323,0.765,1.725,0.765,1.725s0.874-0.753,1.415-0.101
					c0.548,0.643-1.636,3.124-1.636,3.124l-3.486,3.127l-2.617,1.295l0.437,1.294l1.889,1.239l1.707,1.998
					c0,0,4.434-0.867,5.777-1.077c1.348-0.217,4.034-0.761,5.561-0.972c5.015-4.102,6.321-8.309,7.416-8.952
					c1.089-0.647,0.977-2.593,0.977-2.593l-1.306-12.831l-3.272-9.492l-2.484-2.831l-3.154,1.276l-6.896-0.174l-3.903,0.812
					l-4.271-0.59c0,0-3.983,2.328-4.009,2.168c-0.025-0.163-6.676,1.39-6.676,1.39l-3.845,2.297l-2.983,0.589l-6.268,2.068
					l-3.654,0.515l-2.688,2.066l-3.044,2.053l-2.809,1.805c0,0,0.982,2.088,0,2.411c-0.982,0.321-1.965-1.632-2.073-2.002
					c-0.109-0.369-0.654-3.402,0.048-4.436c0.701-1.036,2.134-3.148,2.134-3.148s7.851-5.836,9.483-5.514
					c1.636,0.323,3.271-0.755,3.271-0.755s4.686,0.109,6.212,0C107.17,143.844,114.473,136.835,120.888,135.751z"/>
				<path fill="#B0B4B7" d="M89.261,158.622c0,0,3.56,3.05,7.816,4.203c4.496,1.209,8.904,0.089,11.73,0.646
					c6.952-3.356,16.096-3.961,20.098-9.068c-2.193,3.787-5.696,8.407-19.363,11.223C95.866,168.433,89.261,158.622,89.261,158.622z
					"/>
				<path d="M88.505,157.697c0,0,4.785-3.112,10.35-4.236c2.73-0.338,8.217-0.916,11.628-1.956
					c3.414-1.046,7.713-4.424,11.622-6.198c-5.052,1.149-10.552,4.816-13.513,5.439c-3.802,0.801-9.021,0.881-12.892,2.109
					c-5.019,1.595-8.268,4.283-8.268,4.283L88.505,157.697z"/>
				<path fill="#B0B4B7" d="M130.741,131.716c21.568-9.507,26.979,13.049,25.354,15.455
					C154.784,145.148,152.153,126.794,130.741,131.716z"/>
			</g>
			<path d="M84.575,130.543c11.082-15.933,28.623-9.961,30.405-8.55c12.472-1.519,14.57,14.3,0,13.398
				c-0.912,2.802-14.3,12.885-26.919,6.619C77.56,148.368,73.127,134.055,84.575,130.543z"/>
			<path fill="#D1AB6F" d="M85.976,132.083c9.011-13.106,24.379-10.784,28.886-7.667c12.189-0.263,7.683,11.008,0,8.91
				c-7.95,10.224-22.293,9.339-26,6.722C80.38,145.638,76.173,133.853,85.976,132.083z"/>
			<path d="M114.98,132.314c0.011-0.03,0.073-0.154,0.183-0.322c0.339-0.533,1.113-1.521,2.021-1.446
				c1.069,0.346-0.48,1.425-1.031,1.446c-0.223-0.169-0.638,0.21-0.862,0.322C115.033,132.439,114.98,132.314,114.98,132.314z"/>
			<path fill="#31738B" d="M121.136,99.187c-1.018,11.125,8.759,17.721,8.759,17.721s-5.661,0.796-17.132-9.39
				C116.159,102.323,119.81,100.175,121.136,99.187z"/>
			<path fill="#D7DADD" d="M153.342,100.091c-17.328,27.213-34.901,6.433-35.13,6.558
				C117.983,106.772,128.421,86.874,153.342,100.091z"/>
			<path fill="#31738B" d="M61.722,108.938c-0.597,9.647,6.156,14.41,6.156,14.41s-5.881,0.202-11.912-5.583
				C57.604,112.124,60.776,109.227,61.722,108.938z"/>
			<path fill="#D7DADD" d="M58.682,116.451c7.997,9.324,18.138,3.933,23.101-0.646c2.397-2.205,2.657-4.316,2.657-4.316
				S69.313,96.6,58.682,116.451z"/>
			<path d="M86.848,80.236l3.03,12.079l-1.516,0.758c0,0-29.772-2.699-35.113,8.089c1.306-6.821,6.199-11.866,11.771-14.991
				c4.701-2.638,8.983-2.441,13.328-3.183C83.033,82.192,86.848,80.236,86.848,80.236z"/>
			<path d="M113.486,73.851c-3.814,4.318-2.267,14.293-2.267,14.405c0,0.108,26.562-9.549,35.719-9.761
				c3.248-0.267,11.221,4.943,16.496,6.417c3.233,0.902,4.359,0.32,4.359,0.32s-2.488-2.812-4.688-6.792
				c-2.997-5.425-10.585-10.229-16.168-9.9C140.837,68.646,122.752,73.527,113.486,73.851z"/>
			<path d="M52.714,93.834c0,0,25.474,3.676,50.283-13.598c-29.03,27.538-54.18,16.569-54.18,16.569L52.714,93.834z"/>
			<g>
				<path fill="#B28646" d="M66.392,38.46c0,0-12.894-14.236-23.719-6.841C18.363,48.58,30.76,88.174,47.773,94.023
					c35.199,13.465,68.421-26.342,68.421-26.342L66.392,38.46z"/>
				<path fill="#31738B" d="M66.61,37.796c-7.828-5.731-13.361-2.668-14.875-0.303c-7.559,6.376,2.976,40.274,2.976,40.274
					S67.095,51.768,66.61,37.796z"/>
				<path fill="#D1AB6F" d="M53.101,77.768c11.31-31.179,18.02-56.56,21.729-61.565c3.711-5.013,8.468,0.805,19.301-2.978
					c7.844-2.741,17.684-11.491,21.182-10.729c8.323,1.827,40.241,7.615,52.499,20.415c12.259,12.801,16.466,43.754,16.466,43.754
					s-13.146-15.337-30.102-12.051c-13.201,2.442-26.184,7.779-38.516,13.307c-13.392,6.002-26.012,12.241-37.302,15.246
					C65.729,86.534,53.547,82.37,53.101,77.768z"/>
				<path fill="#31738B" d="M114.98,8.762c1.845-5.938,19.632-1.769,19.632-1.769s15.961,3.474,28.19,11.733
					c12.229,8.26-35.958,34.531-35.958,34.531l-19.973,8.027C106.872,61.285,101.225,46.882,114.98,8.762z"/>
				<path d="M162.803,18.727c0,0-17.644,9.377-29.153,26.457c-6.79,14.978,34.145-26.457,34.145-26.457H162.803z"/>
				<path d="M124.183,66.512c0.266-0.096,26.174-12.252,51.456-4.61c6.118,3.405,6.405,7.12,0.411,6.856
					C150.34,57.092,124.183,66.512,124.183,66.512z"/>
				<path fill="#D8B480" d="M196.222,21.562c36.774,23.886,0.456,73.897,0.082,72.229c-0.162-0.708,0.194-23.509-22.859-31.671
					c-30.184-7.512-60.508,9.355-60.508,9.355s3.073-3.475,5.074-6.35C129.004,49.335,165.112,1.353,196.222,21.562z"/>
				<path fill="#3A2005" d="M57.253,66.021c0,0,3.265,3.353,13.518,3.691c10.251,0.332,28.135-4.387,56.074-16.455
					c-3.194,3.956-10.65,14.424-10.65,14.424S101.27,75.81,86.578,80.541c-14.692,4.732-29.156,6.075-33.478-2.773
					C55.725,70.466,57.253,66.021,57.253,66.021z"/>
			</g>
			<path fill="none" stroke="#000000" stroke-miterlimit="10" d="M63.606,151.974c0,0-3.979,1.907-0.945,6.477
				c3.026,4.576,6.333,2.159,6.333,2.159L63.606,151.974z"/>
			<path d="M55.966,117.765c2.3-9.193,7.573-13.463,12.231-14.855c10.826-3.243,22.894,8.799,22.894,8.799
				S67.992,90.858,55.966,117.765z"/>
			<g>
				<g>
					<path d="M83.454,114.733c-0.46,3.974-4.083,6.825-8.102,6.374c-4.01-0.459-6.895-4.048-6.438-8.016
						c0.459-3.971,4.084-6.825,8.099-6.373C81.029,107.173,83.913,110.76,83.454,114.733z"/>
					<path fill="#31738B" d="M81.235,114.483c-0.251,2.189-2.253,3.771-4.471,3.519c-2.216-0.25-3.808-2.231-3.555-4.428
						c0.255-2.193,2.255-3.766,4.471-3.513C79.898,110.309,81.491,112.291,81.235,114.483z"/>
					<path fill="#D7DADD" d="M84.931,110.064c-0.252,2.193-2.259,3.763-4.473,3.513c-2.216-0.25-3.811-2.226-3.557-4.423
						c0.253-2.193,2.256-3.765,4.475-3.514C83.591,105.891,85.182,107.873,84.931,110.064z"/>
					<ellipse cx="76.185" cy="113.913" rx="3.323" ry="3.287"/>
					<path fill="#D7DADD" d="M78.342,112.76c-0.091,0.786-0.81,1.349-1.602,1.264c-0.791-0.092-1.363-0.801-1.271-1.588
						c0.092-0.787,0.807-1.35,1.603-1.258C77.863,111.266,78.434,111.976,78.342,112.76z"/>
				</g>
			</g>
			<g>
				<g>
					<path d="M152.051,105.333c-0.612,5.307-5.454,9.117-10.824,8.515c-5.362-0.608-9.216-5.4-8.604-10.713
						c0.616-5.305,5.461-9.113,10.828-8.506C148.812,95.231,152.665,100.022,152.051,105.333z"/>
					<path fill="#31738B" d="M149.091,104.997c-0.338,2.936-3.016,5.034-5.977,4.701c-2.963-0.332-5.092-2.981-4.752-5.912
						c0.34-2.928,3.015-5.034,5.979-4.702C147.3,99.421,149.43,102.067,149.091,104.997z"/>
					<path fill="#D7DADD" d="M154.026,99.091c-0.339,2.936-3.018,5.033-5.979,4.699c-2.962-0.331-5.089-2.979-4.753-5.91
						s3.017-5.035,5.974-4.701C152.231,93.516,154.361,96.158,154.026,99.091z"/>
					<ellipse cx="142.338" cy="104.234" rx="4.439" ry="4.394"/>
					<path fill="#D7DADD" d="M145.221,102.696c-0.12,1.05-1.078,1.803-2.138,1.683c-1.058-0.122-1.822-1.066-1.701-2.12
						c0.122-1.045,1.08-1.799,2.141-1.681C144.581,100.7,145.344,101.65,145.221,102.696z"/>
				</g>
			</g>
			<path d="M112.763,107.518c26.151,28.546,47.199-4.962,47.199-4.962S138.651,132.015,112.763,107.518z"/>
			<path d="M55.966,117.765c17.179,17.519,35.125-6.057,35.125-6.057S72.484,131.885,55.966,117.765z"/>
			<path d="M87.253,130.381c0,0-2.259,2.787-2.259,4.716c-1.204,0.145-0.919-3.64-0.919-3.64L87.253,130.381z"/>
			<path fill="#31738B" d="M80.672,139.105c1.614,1.624,5.184,1.126,6.334,0.365c-0.368-0.909-0.138-1.497-0.138-1.497
				s6.89,4.407,17.209,2.676c-9.721,2.912-15.216-0.602-15.216-0.602S83.299,143.962,80.672,139.105z"/>
			<path fill="#B0B4B7" d="M84.994,135.097c5.753-15.799,23.656-13.135,25.918-12.358C101.72,122.288,90.08,127.556,84.994,135.097z
				"/>
			<path d="M114.861,124.416c0,0-2.237,1.316-2.023,3.187c0.034,0.313-0.267,0.166-0.465-0.206
				c-1.385-2.621,0.347-4.076,0.407-4.049c0.07,0.025,2.2,0,2.2,0L114.861,124.416z"/>
			<path fill="#B0B4B7" d="M112.838,127.603c0,0-0.163-2.075,2.023-3.187c5.379-0.44,6.968,2.407,6.968,2.407
				s-1.586-0.737-3.62-0.838C116.173,125.887,112.838,127.603,112.838,127.603z"/>
			<polygon points="63.979,36.151 58.682,61.837 66.61,37.796 65.171,33.699 			"/>
			<polygon points="106.872,61.285 110.613,70.544 116.194,67.682 126.845,53.258 			"/>
			<path d="M122.871,113.85c1.312-3.224,8.586-4.393,10.778-4.238c2.188,0.147,5.701,11.012,5.701,11.012
				S123.224,120.623,122.871,113.85z"/>
			<path fill="#D1AB6F" d="M125.93,112.606c9.515-7.243,27.546-3.652,27.546-3.652s-3.691,9.718-12.585,11.515
				C135.178,121.624,121.611,115.834,125.93,112.606z"/>
			<path d="M63.369,120.734c2.303-2.068,8.191-2.97,8.191-2.97l-0.993,8.09C70.567,125.854,60.845,123.917,63.369,120.734z"/>
			<path fill="#D1AB6F" d="M64.629,120.737c7.371-5.237,20.702-4.083,21.356-2.642c-0.259,0.554-2.863,7.025-9.759,8.326
				C71.794,127.254,61.28,123.069,64.629,120.737z"/>
		</g>
		<path fill="#31738B" d="M158.767,153.999c2.757,13.321,5.902,19.521,5.902,19.521l-2.951,2.016
			C161.718,175.535,157.565,160.172,158.767,153.999z"/>
	</g>
</g>
</svg>
