<?xml version="1.0" encoding="utf-8"?>
<!-- Generator: Adobe Illustrator 16.2.1, SVG Export Plug-In . SVG Version: 6.00 Build 0)  -->
<!DOCTYPE svg PUBLIC "-//W3C//DTD SVG 1.1//EN" "http://www.w3.org/Graphics/SVG/1.1/DTD/svg11.dtd">
<svg version="1.1" xmlns="http://www.w3.org/2000/svg" xmlns:xlink="http://www.w3.org/1999/xlink" x="0px" y="0px"
	 width="242.942px" height="269.291px" viewBox="0 0 242.942 269.291" enable-background="new 0 0 242.942 269.291"
	 xml:space="preserve">
<g id="Capa_1">
	<path fill="#FFFFFF" d="M121.904,0l0.538,111.275l17.401-109.82l-16.336,109.994L157.343,5.79l-32.805,106.004l49.426-98.895
		l-48.466,99.399l63.811-89.697l-62.937,90.351l76.621-78.29l-75.858,79.079l87.544-64.955l-86.908,65.855l96.313-50.023
		l-95.826,51.016l102.709-33.854l-102.373,34.916l106.575-16.854l-106.406,17.957l107.818,0.558l-107.818,0.556l106.406,17.954
		l-106.575-16.852l102.373,34.914L128.258,121.07l95.826,51.014l-96.313-50.021l86.908,65.855l-87.544-64.956l75.858,79.079
		l-76.621-78.287l62.937,90.348l-63.811-89.692l48.466,99.395l-49.426-98.89l32.805,106.001l-33.835-105.66l16.336,109.994
		l-17.401-109.821l-0.538,111.275l-0.541-111.275L103.968,235.25l16.328-109.994L86.468,230.914l32.803-106.004l-49.43,98.895
		l48.466-99.396l-63.806,89.694l62.933-90.348l-76.615,78.287l75.852-79.079l-87.541,64.956l86.909-65.855l-96.309,50.021
		l95.815-51.014L12.842,154.928l102.373-34.916L8.642,136.865l106.403-17.954L7.231,118.355l107.814-0.558L8.642,99.841
		l106.573,16.854L12.842,81.779l102.703,33.854L19.729,64.618l96.309,50.023L29.129,48.786l87.541,64.955L40.818,34.662
		l76.615,78.29L54.501,22.602l63.806,89.697L69.841,12.899l49.43,98.895L86.468,5.79l33.828,105.659L103.968,1.455l17.396,109.82
		L121.904,0z"/>
</g>
<g id="Capa_4">
	<g>
		<g>
			<rect x="54.543" y="192.946" fill="#FFFFFF" width="133.799" height="30.52"/>
			<path d="M186.845,194.446v27.52H56.043v-27.52h124.053 M53.043,191.515v30.451v3h7.499h119.554h9.747v-3v-30.451H53.043z"/>
		</g>
		<path d="M81.827,213.95l-2.995-7.799v7.799h-1.674v-11.723h1.097l3.09,7.652v-7.652h1.675v11.723H81.827z"/>
		<path d="M84.96,202.228h1.675v11.723H84.96V202.228z"/>
		<path d="M95.066,209.763v0.418c0,0.525-0.057,1.021-0.168,1.494c-0.113,0.469-0.302,0.881-0.564,1.234
			c-0.26,0.354-0.604,0.635-1.033,0.842c-0.428,0.211-0.955,0.316-1.585,0.316c-0.624,0-1.151-0.107-1.581-0.32
			c-0.427-0.215-0.772-0.512-1.032-0.893c-0.263-0.383-0.449-0.838-0.563-1.365c-0.112-0.527-0.17-1.105-0.17-1.734v-3.342
			c0-0.629,0.058-1.205,0.17-1.732c0.114-0.527,0.301-0.98,0.563-1.361c0.26-0.379,0.605-0.676,1.032-0.891
			c0.43-0.213,0.957-0.318,1.581-0.318c0.595,0,1.106,0.094,1.529,0.283c0.426,0.191,0.771,0.455,1.042,0.795
			c0.268,0.34,0.466,0.75,0.592,1.229c0.126,0.477,0.188,1.002,0.188,1.578h-1.675c0-0.42-0.027-0.785-0.083-1.1
			c-0.058-0.312-0.15-0.574-0.282-0.783c-0.131-0.213-0.303-0.367-0.516-0.473c-0.213-0.104-0.479-0.154-0.795-0.154
			c-0.311,0-0.574,0.051-0.788,0.154c-0.214,0.105-0.388,0.26-0.517,0.473c-0.131,0.209-0.224,0.471-0.282,0.783
			c-0.056,0.314-0.086,0.68-0.086,1.1v4.186c0,0.316,0.03,0.623,0.086,0.922c0.059,0.303,0.151,0.572,0.282,0.807
			c0.129,0.234,0.303,0.424,0.517,0.568s0.478,0.217,0.788,0.217c0.316,0,0.582-0.072,0.795-0.217s0.385-0.334,0.516-0.568
			c0.132-0.234,0.225-0.504,0.282-0.807c0.056-0.299,0.083-0.605,0.083-0.922v-0.418H95.066z"/>
		<path d="M103.499,213.95h-2.095l-2.091-5.443l-0.838,1.674v3.77h-1.675v-11.723h1.675v5.023l2.512-5.023h2.092l-2.519,4.605
			L103.499,213.95z"/>
		<path d="M111.946,214.067c-0.417,0-0.785-0.049-1.104-0.148c-0.318-0.098-0.593-0.227-0.829-0.391s-0.433-0.35-0.594-0.557
			c-0.163-0.209-0.296-0.42-0.398-0.639c-0.245-0.504-0.384-1.084-0.42-1.732l1.667-0.42c0.02,0.471,0.089,0.891,0.211,1.258
			c0.053,0.156,0.121,0.311,0.2,0.459c0.082,0.15,0.18,0.285,0.299,0.402c0.118,0.119,0.256,0.213,0.415,0.285
			c0.161,0.072,0.346,0.109,0.554,0.109c0.839,0,1.261-0.42,1.261-1.256c0-0.211-0.027-0.406-0.08-0.586
			c-0.052-0.182-0.131-0.355-0.234-0.525c-0.105-0.168-0.238-0.328-0.393-0.488c-0.157-0.16-0.34-0.324-0.551-0.494l-2.093-1.674
			c-0.213-0.172-0.399-0.365-0.558-0.58c-0.159-0.217-0.293-0.443-0.398-0.684c-0.103-0.24-0.181-0.484-0.231-0.732
			c-0.049-0.25-0.076-0.494-0.076-0.738c0-0.377,0.063-0.736,0.191-1.078c0.126-0.342,0.312-0.643,0.557-0.9
			c0.247-0.262,0.553-0.467,0.92-0.621c0.366-0.152,0.787-0.227,1.267-0.227c0.419,0,0.787,0.043,1.106,0.129
			c0.32,0.088,0.598,0.203,0.831,0.348c0.238,0.145,0.435,0.309,0.597,0.49c0.162,0.186,0.296,0.369,0.399,0.559
			c0.244,0.445,0.385,0.955,0.422,1.521l-1.676,0.418c-0.02-0.391-0.088-0.74-0.211-1.047c-0.053-0.131-0.121-0.258-0.198-0.383
			c-0.081-0.123-0.181-0.234-0.3-0.332c-0.119-0.1-0.256-0.178-0.415-0.24c-0.162-0.059-0.345-0.088-0.556-0.088
			c-0.218,0-0.406,0.031-0.566,0.098c-0.16,0.068-0.292,0.158-0.393,0.273c-0.104,0.113-0.18,0.246-0.228,0.398
			s-0.073,0.314-0.073,0.484c0,0.289,0.067,0.584,0.206,0.887c0.133,0.301,0.348,0.562,0.636,0.791l2.095,1.676
			c0.265,0.215,0.503,0.447,0.71,0.701c0.207,0.256,0.383,0.523,0.527,0.801c0.144,0.279,0.255,0.564,0.327,0.859
			c0.075,0.295,0.114,0.584,0.114,0.873c0,0.361-0.062,0.707-0.18,1.035c-0.117,0.33-0.297,0.621-0.54,0.875
			c-0.242,0.252-0.547,0.455-0.913,0.605C112.883,213.991,112.449,214.067,111.946,214.067z"/>
		<path d="M119.964,214.073c-0.487,0-0.911-0.057-1.265-0.174c-0.356-0.113-0.659-0.273-0.907-0.477
			c-0.249-0.203-0.452-0.443-0.603-0.721c-0.153-0.277-0.271-0.572-0.355-0.893c-0.085-0.318-0.145-0.65-0.176-1
			c-0.03-0.35-0.043-0.697-0.043-1.047v-7.535h1.674v7.541c0,0.209,0.003,0.426,0.007,0.652c0.003,0.229,0.022,0.449,0.056,0.664
			c0.032,0.217,0.081,0.424,0.146,0.619c0.065,0.197,0.16,0.367,0.285,0.516c0.123,0.145,0.282,0.262,0.475,0.35
			c0.189,0.088,0.427,0.129,0.706,0.129c0.278,0,0.513-0.041,0.706-0.129c0.192-0.088,0.351-0.205,0.475-0.35
			c0.124-0.148,0.219-0.318,0.285-0.516c0.065-0.195,0.113-0.402,0.146-0.619c0.032-0.215,0.051-0.436,0.055-0.664
			c0.006-0.227,0.008-0.443,0.008-0.652v-7.541h1.674v7.535c0,0.35-0.017,0.697-0.047,1.047s-0.088,0.682-0.173,1
			c-0.083,0.32-0.203,0.615-0.357,0.893c-0.152,0.277-0.352,0.518-0.6,0.721s-0.55,0.363-0.907,0.477
			C120.875,214.017,120.452,214.073,119.964,214.073z"/>
		<path d="M130.696,202.228v1.373h-2.093v10.35h-1.675v-10.35h-2.093v-1.373H130.696z"/>
		<path d="M137.663,202.228v1.373h-2.093v10.35h-1.674v-10.35h-2.094v-1.373H137.663z"/>
		<path d="M142.956,208.507h-2.094v4.188h2.932v1.256h-4.607v-11.723h4.607v1.258h-2.932v3.766h2.094V208.507z"/>
		<path d="M150.001,213.95l-1.754-5.443h-1.255v5.443h-1.675v-11.723h2.093c0.731,0,1.341,0.076,1.824,0.227
			c0.485,0.148,0.87,0.361,1.159,0.637c0.288,0.273,0.49,0.605,0.607,0.988c0.116,0.389,0.179,0.816,0.179,1.287
			c0,0.289-0.023,0.549-0.063,0.781c-0.042,0.229-0.099,0.438-0.169,0.617c-0.07,0.182-0.147,0.342-0.235,0.477
			c-0.089,0.139-0.179,0.256-0.27,0.352c-0.216,0.23-0.46,0.396-0.735,0.496l1.889,5.861H150.001z M146.992,207.251h0.418
			c0.313,0,0.6-0.029,0.855-0.088c0.258-0.059,0.479-0.16,0.66-0.305c0.184-0.145,0.327-0.336,0.426-0.58
			c0.101-0.24,0.152-0.545,0.152-0.912c0-0.365-0.052-0.67-0.152-0.912c-0.099-0.242-0.242-0.436-0.426-0.578
			c-0.182-0.145-0.402-0.246-0.66-0.305c-0.256-0.057-0.542-0.086-0.855-0.086h-0.418V207.251z"/>
		<path d="M156.888,208.507h-2.095v4.188h2.932v1.256h-4.605v-11.723h4.605v1.258h-2.932v3.766h2.095V208.507z"/>
		<path d="M163.935,213.95l-1.755-5.443h-1.258v5.443h-1.674v-11.723h2.094c0.732,0,1.342,0.076,1.825,0.227
			c0.484,0.148,0.869,0.361,1.158,0.637c0.286,0.273,0.491,0.605,0.608,0.988c0.117,0.389,0.175,0.816,0.175,1.287
			c0,0.289-0.02,0.549-0.062,0.781c-0.041,0.229-0.097,0.438-0.166,0.617c-0.071,0.182-0.147,0.342-0.239,0.477
			c-0.087,0.139-0.176,0.256-0.266,0.352c-0.215,0.23-0.46,0.396-0.736,0.496l1.889,5.861H163.935z M160.922,207.251h0.42
			c0.315,0,0.602-0.029,0.856-0.088c0.259-0.059,0.479-0.16,0.66-0.305c0.185-0.145,0.326-0.336,0.425-0.58
			c0.102-0.24,0.15-0.545,0.15-0.912c0-0.365-0.049-0.67-0.15-0.912c-0.099-0.242-0.24-0.436-0.425-0.578
			c-0.182-0.145-0.401-0.246-0.66-0.305c-0.255-0.057-0.541-0.086-0.856-0.086h-0.42V207.251z"/>
	</g>
</g>
<g id="Capa_16">
	<g>
		<polygon fill="#D9DADB" points="199.26,268.159 199.26,261.125 44.872,261.125 44.872,268.159 5.55,268.159 20.841,248.895 
			5.55,229.631 25.667,229.631 25.667,222.598 218.283,222.598 218.283,229.631 238.062,229.631 225.832,248.895 238.062,268.159 		
			"/>
		<path d="M216.234,224.647v7.033h18.1l-10.93,17.214l10.93,17.214h-33.023v-7.032H42.823v7.032H9.795l13.665-17.214L9.795,231.681
			h17.921v-7.033H216.234 M220.332,220.548h-4.098H27.714h-4.098v4.1v2.935H9.795H1.307l5.277,6.65l11.642,14.664L6.583,263.56
			l-5.277,6.649h8.488h33.028h4.1v-4.101v-2.934h150.288v2.934v4.101h4.1h33.023h7.461l-3.998-6.3l-9.535-15.015l9.535-15.016
			l3.998-6.297h-7.461h-14.002v-2.935V220.548L220.332,220.548z"/>
	</g>
	<polygon fill="#B0B4B7" points="42.823,266.108 42.823,231.681 9.795,231.681 23.46,248.895 9.795,266.108 	"/>
	<polygon fill="#B0B4B7" points="234.334,231.681 201.311,231.681 201.311,266.108 234.334,266.108 223.404,248.895 	"/>
	<polygon points="23.569,230.132 23.569,261.597 33.163,268.294 44.353,267.451 30.587,230.132 	"/>
	<polygon points="220.346,229.995 220.346,261.457 210.752,268.159 199.564,267.311 213.324,229.995 	"/>
	<polygon fill="#8B8B8B" points="216.234,224.647 216.234,259.076 201.311,266.108 201.172,231.681 	"/>
	<polygon fill="#8B8B8B" points="27.714,224.647 27.714,259.076 42.644,266.108 42.778,231.681 	"/>
	<rect x="27.714" y="224.647" fill="#D9DADB" width="188.521" height="34.429"/>
	<path d="M169.739,236.387l1.485,3.04l3.39,0.523l-2.484,2.329l0.539,3.336l-3.017-1.605l-3.061,1.537l0.621-3.322l-2.43-2.382
		l3.402-0.449L169.739,236.387z"/>
	<path d="M78.243,235.904l1.484,3.043l3.391,0.525l-2.488,2.328l0.544,3.336l-3.021-1.605l-3.061,1.537l0.619-3.321l-2.428-2.386
		l3.402-0.445L78.243,235.904z"/>
	<g>
		<path d="M95.71,234.25h0.388l0.245,0.164l0.052,0.175l0.364,0.579l0.268,0.458l0.121,0.31l0.191,0.296l0.105,0.254l0.053,0.164
			l-0.023,0.107l0.023,0.229l0.055,0.133l0.055,0.219l0.203,0.254l0.324,0.271l0.107,0.201l0.066,0.271l0.082,0.281l0.135,0.214
			l0.133,0.419l0.363,0.295l0.084,0.283l-0.055,0.243l-0.229,0.245l-0.109,0.2l-0.658,0.392l-0.447,0.269l-0.32,0.137l-0.139,0.105
			l-0.174,0.173l-0.135,0.055l-0.338,0.085l-0.212,0.16l-0.163,0.052l-0.471,0.284h-0.109l-0.2,0.162l-0.108,0.026l-0.379,0.364
			l-0.146,0.243l-0.03,0.107v0.122l-0.023,0.162l-0.219,0.213l-0.391-0.023l0.027,0.309l-0.027,0.215l-0.105,0.161l-0.084,0.258
			l-0.133,0.16l-0.066,0.16l0.038,0.258l0.106,0.188l0.139,0.025l0.133,0.055h0.163h0.334l0.258,0.119l0.378,0.031l0.311,0.023
			l0.158,0.03h0.109l0.363,0.054l0.379,0.025l0.363-0.055l0.162-0.109l0.055-0.119l0.066-0.135l-0.029-0.107v-0.108l-0.092-0.146
			l-0.107-0.19l-0.109-0.349l0.08-0.339l0.082-0.135l0.109-0.174l0.281-0.138l0.16-0.023h0.176l0.271,0.108l0.162,0.053l0.199,0.227
			l0.109,0.245l0.055,0.715l-0.055,0.119l-0.055,0.322l-0.055,0.338l-0.078,0.218L98.134,246l-0.109,0.176l-0.025,0.159l-0.24,0.271
			l-0.207,0.2l-1.184,0.961l-0.109,0.176l-0.053,0.349l0.083,0.146l0.024,0.24l-0.055,0.219l-0.161,0.229l-0.147,0.025l-0.43,0.082
			l-0.205-0.053l-0.348-0.055l-0.176-0.055l-0.242-0.108l-0.164-0.092l-0.176-0.029l-0.16-0.024l-0.215-0.163l-0.257-0.055
			l-0.456-0.283l-0.148-0.054l-0.242-0.133l-0.285-0.164l-0.242-0.109l-0.391-0.254l-0.375-0.133l-0.339-0.164l-0.161-0.027H90.52
			l-0.161-0.093l-0.201-0.188l-0.08-0.191l0.025-0.079l0.055-0.2l0.121-0.191l0.324-0.309l0.16-0.242l0.027-0.241l0.067-0.205
			l0.055-0.375v-0.175l-0.028-0.297v-0.176l-0.094-0.08l-0.027-0.245l0.149-0.078l-0.083-0.176l0.055-0.271l-0.026-0.16
			l-0.119-0.312l0.119-0.133l0.026-0.109v-0.108l-0.026-0.441l0.026-0.109v-0.888l-0.026-0.188v-0.258l-0.028-0.375l0.028-0.259
			l-0.028-0.297l0.028-0.199l0.026-0.134l-0.055-0.108l-0.066-0.501l-0.024-0.309l0.024-0.218l-0.107-0.32l-0.081-0.122
			l-0.296-0.215l-0.094-0.109l-0.027-0.133l0.027-0.256l0.174-0.245l0.38-0.147l0.579-0.083l0.309-0.078l0.109-0.055l0.16-0.026
			l1.158-0.337l0.175-0.079h0.136l0.08-0.084l0.107-0.133l0.202,0.054l0.269-0.137l0.188-0.146l0.418-0.242l0.109-0.055l0.523-0.501
			l0.085-0.188l0.024-0.201l0.176-0.191L95.71,234.25z M93.89,236.958l-0.084,0.216v0.219l0.055,0.145l0.055,0.218l0.055,0.361
			l0.027,0.135l0.053,0.107l0.027,0.581l0.025,0.107l0.055,0.176l0.053,0.271l-0.078,0.188l0.078,0.254v0.161l-0.053,0.163
			l-0.08,0.279l0.025,0.108l0.029,0.109l-0.029,0.23l0.029,0.133v0.191l0.025,0.134l-0.055,0.254l0.083,0.137l0.364-0.47
			l0.391-0.138l0.054-0.135l0.107-0.055l0.108-0.079l0.16-0.054l0.23-0.392l0.055-0.109l-0.055-0.146l-0.133-0.242l-0.055-0.137
			l-0.043-0.176l-0.188-0.405l-0.391-0.997l-0.109-0.078l-0.267-0.524l-0.055-0.188l-0.339-0.582L93.89,236.958z"/>
		<path d="M105.073,229.36l0.104,0.067l0.326-0.041l0.201,0.041l0.246,0.107l0.225,0.215l0.031,0.216l0.023,0.151v0.134
			l-0.109,0.242l-0.387,0.228l-0.135,0.026l-0.203,0.054l-0.297,0.138l-0.133,0.134l-0.121,0.145l-0.217,0.501l-0.055,0.109v0.107
			l-0.025,0.188l-0.027,0.471v0.309l-0.08,1.819l-0.068,0.798l-0.027,0.133l-0.055,0.2l0.121,0.216l-0.039,0.218l0.148,0.121v0.188
			l0.027,0.216l-0.055,0.202v0.294l-0.082,0.176l-0.092,0.325v0.163l0.053,0.146v0.109l-0.053,0.188l0.146,0.446v0.363l0.027,0.271
			v0.63l-0.082,0.083l-0.066,0.145v0.273l0.027,0.309l-0.027,0.216l-0.109,0.269l0.205,0.028l0.053,0.176v0.188v0.362l0.055,0.191
			l-0.027,0.134v0.551l0.027,0.258l-0.055,0.213l-0.082,0.242l0.055,0.206l0.082,0.294v0.23l0.053,0.163l0.027,0.134l0.025,0.254
			l0.082,0.216l0.055,0.188l0.176,0.098l0.604,0.162l0.273,0.241l0.023,0.108v0.28l-0.188,0.298l-0.393,0.336l-0.188,0.134
			l-0.078,0.203l-0.312,0.055l-0.135,0.109l-0.338,0.387l-0.078,0.191l0.162,0.364l0.146,0.133l0.055,0.272l-0.148,0.363
			l-0.215,0.216l-0.188,0.024l-0.26-0.053l-0.107-0.08h-0.135l-0.08-0.055l-0.258-0.134l-0.188-0.229l-0.213-0.139l-0.283-0.157
			l-0.109-0.138l-0.107-0.146l-0.08-0.028l-0.314-0.215l-0.387-0.16l-0.295-0.152l-0.229-0.078l-0.219-0.109l-0.297-0.161
			l-0.096-0.081l-0.053-0.149l-0.053-0.266l0.135-0.285l0.146-0.134l0.107-0.054l0.273-0.137l0.199-0.388v-0.581l0.084-0.162
			l-0.084-0.135l-0.023-0.173l-0.031-0.137l0.084-0.137l0.055-0.442v-0.19l-0.055-0.333l0.135-0.085v-0.188l0.023-0.201l0.029-0.296
			l0.055-0.161l-0.055-0.151l-0.107-0.055v-0.32l-0.133-0.416l0.023-0.339l0.084-0.242l0.053-0.446l-0.027-0.163l0.055-0.604
			l0.023-0.309v-0.134l-0.078-0.245l0.055-0.147l-0.055-0.109l-0.055-0.712l0.029-0.473v-0.325v-0.199l0.025-0.219l0.107-0.254
			l0.162-0.161l-0.162-0.219l-0.133-0.387l-0.029-0.216l0.029-0.121l-0.029-0.109l0.055-0.133l-0.025-0.394l-0.029-0.458
			l-0.025-0.309l-0.053-1.764l-0.086-0.394l-0.035-0.268l-0.031-0.283l-0.375-0.434l-0.176-0.122l-0.162-0.24l-0.055-0.284
			l0.135-0.242l0.229-0.157l0.436-0.03l0.441,0.055l0.229,0.055l0.295,0.078h0.109l0.502,0.312l0.254,0.188l0.164,0.163l0.295,0.309
			l0.146,0.134l0.16-0.055l0.055-0.133l-0.107-0.176l0.271-0.688l0.145-0.164l0.352-0.496l0.393-0.161l0.24-0.121L105.073,229.36z"
			/>
		<path d="M113.601,230.775l0.392-0.028l0.188,0.028l0.229,0.108l0.188,0.157l0.162,0.23l0.163,0.272l0.121,0.024l0.024,0.108
			l0.296,0.15l0.501,0.025h0.108h0.333l0.164-0.055h0.188l0.312-0.055l0.16-0.066l0.15-0.215l0.023,0.16l0.138-0.054h0.135
			l0.338,0.028l0.188-0.028l0.242-0.079h0.284l0.107-0.055l0.417-0.081h0.164l0.254-0.082l0.375-0.024l0.688-0.054l0.363-0.055
			l0.742,0.055l0.969,0.023l0.136-0.023l0.39,0.078l0.082,0.218h0.188l-0.055-0.218l0.258,0.137l0.16,0.026l0.164,0.055l0.201,0.055
			l0.19,0.024l0.266,0.229l0.394,0.162l0.162,0.133l0.338,0.139l0.212,0.146h0.257l0.028,0.188l0.188,0.029l0.204,0.135l0.158,0.148
			l0.107,0.213l0.219,0.242l0.363,0.421l0.161,0.188l0.121,0.146l0.109,0.138v0.134l0.159,0.108l0.053,0.361l0.084,0.109
			l0.107,0.133l0.066,0.23l0.109,0.405l0.055,0.229l0.053,0.351l-0.082,0.254l0.134,0.217l0.083,0.108l0.023,0.121l-0.106,0.217
			l-0.026,0.135l-0.025,0.227l0.213,0.055v0.215l0.055,0.863l-0.024,0.162l0.024,0.268l0.055,0.174l-0.024,0.243l-0.14,0.338
			l-0.078,0.35l0.026,0.309l0.028,0.218l-0.083,0.149l-0.081,0.242l-0.282,0.297l-0.055,0.229l0.028,0.215l-0.082,0.227
			l-0.055,0.298l-0.079,0.282l-0.133,0.191l-0.055,0.577l-0.028,0.161l-0.122,0.134l-0.104,0.206l-0.218,0.215l-0.081,0.176v0.212
			l-0.092,0.109l-0.219,0.337l-0.108,0.27l-0.079,0.227l-0.176,0.164l-0.078,0.218l-0.138,0.688l-0.242,0.255v0.442l-0.146,0.245
			l-0.029,0.212l-0.188,0.312l-0.054,0.243l-0.055,0.335l-0.024,0.161l-0.03,0.137l-0.055,0.202v0.162l-0.023,0.188l-0.055,0.581
			l0.026,0.121l0.028,0.16v0.135l0.078,0.254l0.109,0.163l0.163,0.219l0.388,0.309l0.216,0.027l0.175-0.027l0.188-0.309
			l-0.104-0.164l-0.107-0.309l0.055-0.609l0.133-0.188l0.267-0.242l0.339-0.096l0.337-0.08h0.133l0.136,0.055l0.189,0.025
			l0.147,0.15l0.19,0.133l0.025,0.108l0.188,0.5v0.16l-0.023,0.174v0.108l-0.138,0.5l-0.134,0.352l-0.229,0.333l-0.297,0.298
			l-0.254,0.229l-0.458,0.139v0.107l-0.151,0.104l-0.157,0.03l-0.139,0.024h-0.525h-0.104l-0.176-0.024l-0.38-0.054l-0.133-0.055
			l-0.176-0.055l-0.188-0.109l-0.162-0.023l-0.12-0.164l-0.297-0.228l-0.055-0.188l-0.162-0.055l-0.229-0.31l-0.079-0.108
			l-0.108-0.243l-0.055-0.203l-0.146-0.214l-0.053-0.258l-0.086-0.35l-0.133-0.526v-0.159l-0.08-0.149v-0.188l-0.053-0.325
			l0.053-0.176V248.6l0.053-0.133l-0.027-0.285l-0.133-0.161l-0.028-0.219v-0.121l0.083-0.133l0.053-0.47l-0.081-0.164v-0.281
			l0.053-0.136l0.081-0.188l-0.027-0.188l0.082-0.677l-0.136-0.188v-0.107l-0.079-0.339l0.055-0.211l0.078-0.219l0.109-0.282
			l-0.109-0.133v-0.164l0.055-0.146v-0.297l-0.108-0.108l-0.174-0.259l-0.026-0.441l0.121-0.555l0.055-0.16l0.024-0.106l0.108-0.555
			l0.133-0.108v-0.255v-0.164l0.086-0.441l0.053-0.188l0.123-0.055v-0.137l-0.055-0.283l0.105-0.471l0.082-0.578v-0.716v-0.418
			l-0.03-0.496l0.055-0.189v-0.269l-0.079-0.151l-0.027-0.212l-0.105-0.446l-0.121-0.55l-0.031-0.191l-0.106-0.08l-0.136-0.447
			l0.055-0.267l-0.161-0.121h-0.121l-0.08-0.188l-0.217-0.215l-0.133-0.176l-0.418-0.272l-0.138-0.024l-0.309-0.134l-0.241-0.029
			l-0.134,0.029l-0.259-0.029l-0.188,0.029l-0.394,0.106l-0.242,0.19l-0.145,0.079l-0.271,0.283l-0.08,0.135l-0.139,0.242
			l-0.09,0.228l-0.031,0.084l-0.023,0.31l-0.055,0.24l-0.109,0.271l0.031-0.084l0.023,0.285l-0.078,0.218l0.055,0.361l-0.031,0.405
			v0.309l-0.078,0.216v0.496l0.078,0.176l-0.023,0.352l0.055,0.137l-0.031-0.108l0.055,0.496l-0.023,0.109l-0.031,0.5v0.229
			l0.135,0.053v0.324l-0.025,0.199l-0.078,0.246l-0.055,0.134l-0.055,0.133l0.133,0.5l-0.023,0.203v0.216l-0.109,0.108l0.109,0.31
			l0.104,0.133l0.029,0.362v0.246l0.145,0.104v0.14l-0.023,0.254l0.078,0.188l-0.023,0.176l-0.055,0.161v0.164v0.188l0.078,0.2
			l-0.055,0.163l0.055,0.188v0.203l-0.176,0.267l0.152,0.205l0.32,0.322l-0.078,0.19l0.106,0.442l0.055,0.204l0.026,0.213
			l0.149,0.298l0.212,0.203v0.107l0.108,0.107l0.312,0.281l0.079,0.109l0.242,0.106l0.081,0.133h0.149l0.269,0.055l0.161-0.023
			l0.149,0.023l0.405,0.207l0.146,0.266v0.229l-0.024,0.138l-0.029,0.103l-0.122,0.164l-0.024,0.121l-0.108,0.108l-0.162,0.134
			l-0.363,0.163l-0.188,0.028l-0.284,0.053l-0.133,0.026h-0.137l-0.188-0.162l-0.23,0.136l-0.133,0.052l-0.216-0.052l-0.121,0.026
			l-0.136-0.055l-0.294-0.053l-0.121-0.109l-0.352-0.025l-0.312,0.025h-0.135l-0.188-0.025l-0.284-0.082h-0.188l-0.337-0.134h-0.188
			l-0.164-0.055l-0.336,0.027l-0.105-0.066l-0.138-0.027l-0.147-0.025l-0.161-0.029l-0.109-0.024h-0.862l-0.348,0.024l-0.107,0.055
			l-0.339,0.027l-0.324,0.121l-0.122,0.106h-0.157l-0.367,0.298l-0.214,0.335l-0.106,0.084l-0.138,0.024l-0.171,0.08h-0.191
			l-0.215-0.025l-0.229-0.079l-0.24-0.191l-0.14-0.256l-0.146-0.55l0.055-0.217l0.121-0.338l0.16-0.187l0.082-0.164l0.216-0.133
			l0.473-0.363l0.309,0.023l0.078,0.109l-0.023-0.161l0.133-0.189l0.216-0.201l0.121-0.027l0.46-0.442l0.335-0.555l0.136-0.515
			v-0.254l0.025-0.161l-0.025-0.309l0.055-0.164l0.023-0.336l0.121-0.161l0.03-0.137v-0.188v-0.442l-0.083-0.312v-0.351l0.028-0.146
			l0.024-0.137l0.188-0.298l-0.051-0.227l-0.053-0.403v-0.258l0.024-0.214l-0.024-0.203l0.024-0.133l0.028-0.419l-0.028-0.27
			l0.028-0.135l0.104-0.174l0.055-0.243l-0.212-0.19l0.053-0.281v-0.325l-0.083-0.175l0.03-0.133l0.053-0.219v-0.833v-0.219v-0.496
			l0.025-0.312l-0.054-0.9v-0.284l-0.055-0.295l-0.024-0.135l-0.151-0.524l-0.023-0.634l-0.297-0.151l-0.107-0.134l-0.206-0.055
			h-0.133l-0.634-0.308l-0.333-0.295l-0.14-0.136l-0.105-0.149l-0.136-0.429l0.054-0.312v-0.134l0.133-0.134l0.395-0.394
			L113.601,230.775z"/>
		<path d="M132.139,234.383l0.282,0.031l0.243,0.023l0.082,0.109h0.134l0.229,0.149l0.217,0.242l0.133,0.055l0.121,0.055
			l0.136,0.145l0.348,0.218l0.204,0.188l0.242,0.338l0.188,0.133l0.176,0.029l0.297,0.025l0.149,0.054l0.215,0.151l0.19,0.24v0.081
			l-0.138,0.337l-0.213,0.375l-0.149,0.055l-0.163,0.066l-0.079,0.272l-0.078,0.496v0.084v0.16l-0.031,0.444l-0.055,0.658
			l0.031,0.394v0.161v0.309l-0.031,0.219l-0.023,0.254l-0.098,0.106l-0.106,0.378v0.149l0.149,0.27l0.109,0.054l0.108,0.256v0.405
			l-0.03,0.416l-0.23,0.135l0.261,0.174l-0.03,0.189l-0.023,0.216l0.054,0.202l0.024,1.079l0.055,0.35l0.054,0.133l0.079,0.121
			l0.229,0.109l0.188,0.055l0.191,0.108l0.146,0.133l0.108,0.121l-0.029,0.162l-0.079,0.163l-0.23,0.363l-0.24,0.133l-0.284,0.242
			l-0.32,0.285l-0.285,0.446l-0.055,0.105l-0.027,0.16l0.082,0.23l0.08,0.191v0.212l-0.08,0.203l-0.297,0.243l-0.47-0.053
			l-0.258-0.109l-0.214-0.081l-0.138-0.119l-0.309-0.245l-0.269-0.31l-0.136-0.025l-0.418-0.349l-0.362-0.176l-0.555-0.219
			l-0.134-0.024l-0.164-0.03l-0.172-0.078l-0.052-0.163l-0.108-0.119l-0.055-0.189l0.055-0.338l0.199-0.163l0.242-0.213l0.188-0.229
			l0.029-0.191l0.121-0.297l0.053-0.119l0.026-0.188l-0.026-0.189l0.08-0.31l-0.08-0.324l0.08-0.337v-0.551l0.029-0.337
			l-0.055-0.242l0.08-0.188l0.053-0.23v-0.351v-0.556v-0.278l-0.053-0.163l-0.108-0.31l0.028-0.16l0.109-0.188l-0.029-0.447
			l0.053-0.271l-0.023-0.145l-0.084-0.327l0.029-0.145l-0.029-0.434l-0.08-0.364l-0.095-0.188l-0.079-0.107h-0.218l-0.163-0.068
			l-0.118-0.106l-0.105-0.081l-0.055-0.243l0.055-0.391l0.199-0.188l0.164-0.204l0.106-0.055l0.281-0.242l0.191-0.229l0.055-0.158
			l0.133-0.162l0.146-0.107l0.03-0.121l-0.03-0.379l-0.122-0.364v-0.135l0.122-0.161l0.217-0.176L132.139,234.383z M132.746,229.309
			l0.309,0.023h0.134l0.218,0.176l0.079,0.134l0.095,0.027l0.188,0.188l0.351,0.395l0.121,0.16l0.083,0.105h0.108l0.333,0.284
			l0.141,0.053l0.211,0.242l0.23,0.312l-0.093,0.497l-0.579,0.394l-0.243-0.151l-0.108,0.108l-0.028,0.121v0.134l-0.078,0.108
			l-0.055,0.162l0.055,0.362l-0.03,0.164l-0.122,0.078l-0.106,0.205l-0.323,0.135h-0.282l-0.297-0.188l-0.175-0.055l-0.216-0.176
			l-0.159-0.218l-0.121-0.188l-0.138-0.121l0.028-0.133l-0.082-0.162l-0.442-0.109l-0.109-0.078l-0.162-0.121l-0.256-0.325
			l-0.053-0.363l0.229-0.394l0.375-0.266l0.419-0.243l0.229-0.176v-0.716l0.138-0.213L132.746,229.309z"/>
		<path d="M141.827,229.428l0.714,0.025l0.309,0.082l0.243,0.055l0.5,0.297l0.229,0.278l0.322,0.352l0.083,0.149l0.023,0.109
			l0.031,0.133l0.023,0.339l-0.133,0.215l-0.163,0.106v0.108l0.272,0.283l-0.055,0.271l-0.405,0.388l-0.121,0.055l-0.35,0.055
			l-0.229-0.055l-0.217-0.188l-0.215-0.339l-0.053-0.375l0.053-0.283l0.027-0.108l0.053-0.164v-0.363l-0.256-0.053l-0.269,0.029
			l-0.309,0.159l-0.325,0.555l-0.081,0.174l-0.028,0.135l-0.091,0.188l-0.054,0.313v0.188l-0.085,0.549l0.03,0.242l-0.055,0.448
			l-0.025,0.337v0.297l-0.054,0.133v0.095l0.024,0.163l-0.024,0.134l0.024,0.188l-0.024,0.229l0.024,0.216l0.055,0.364l0.417,0.188
			l0.135-0.079l0.336-0.337l0.109-0.352l0.269-0.835l0.203-0.083h0.376l0.282,0.083l0.241,0.147l0.176,0.137l0.138,0.052
			l0.214,0.137l0.337,0.254l0.188,0.108l0.284,0.134l0.217,0.082l0.39,0.108l0.082,0.027l0.216,0.199l0.631,0.217l0.258-0.025
			l0.242,0.055l0.163,0.104l0.146,0.501l-0.338,0.498l-0.242,0.204l-0.229,0.403l-0.213,0.418l-0.108,0.267l-0.392,0.58
			l-0.109,0.096l-0.079,0.163l-0.081,0.108l-0.12,0.104l-0.243,0.229l-0.027,0.352l0.164-0.026l0.188,0.079l0.229,0.12l0.32,0.031
			l0.61,0.211l0.278,0.109l0.191,0.312v0.105l-0.191,0.366l-0.104,0.35v0.229l-0.055,0.51l0.025,0.339l-0.254,0.47v0.188
			l0.109,0.138l-0.031,0.174v0.161l0.031,0.082l0.037,0.836v0.134l0.217,0.415l0.446,0.164h0.266l0.137,0.108l0.094,0.134v0.229
			l-0.042,0.162l-0.079,0.162l-0.109,0.134l-0.108,0.148l-0.104,0.16l-0.139,0.055l-0.309,0.028l0.025,0.255l-0.387,0.326
			l-0.084,0.134l-0.055,0.254l0.108,0.472l-0.188,0.607l-0.109,0.136l-0.229,0.024l-0.405-0.105l-0.332-0.203l-0.191-0.188
			l-0.255-0.188l-0.164-0.108l-0.107-0.121l-0.025-0.109l-0.309-0.239l-0.242-0.23l-0.055-0.188l-0.055,0.106l-0.149-0.052h-0.162
			l-0.104-0.055l-0.219-0.108l-0.309-0.282l0.024-0.406l0.109-0.121l0.15-0.134l-0.042-0.107l0.285-0.338l0.104-0.271l0.029-0.158
			l-0.029-0.312l0.053-0.188l-0.053-0.363l-0.025-0.079l-0.025-0.742l-0.029-0.176l0.029-0.242l0.051-0.134v-0.283l0.053-0.162
			l0.084-0.109l0.055-0.199l0.12-0.351l-0.259-0.23l-0.211-0.055l-0.312-0.134l-0.243-0.106l-0.133-0.108l-0.203-0.031l-0.19-0.023
			l-0.078-0.121l-0.392-0.164l-0.108-0.215l-0.08-0.255v-0.109l0.08-0.163l0.191-0.157l0.121-0.031l0.211,0.031h0.14l0.281,0.054
			l0.243,0.055l0.242-0.055l0.2-0.176l0.241-0.108l0.109-0.108l0.176-0.188l0.107-0.174l0.081-0.164l0.137-0.218l0.109-0.333
			l0.145-0.216l0.08-0.176l0.107-0.081l0.028-0.191l-0.052-0.157h-0.136l-0.173,0.134h-0.109l-0.109-0.055h-0.108l-0.107-0.026
			h-0.23l-0.158-0.053l-0.296-0.151l-0.15-0.133l-0.271-0.137l-0.442-0.243l-0.241-0.145l-0.473-0.083l-0.204,0.138l-0.055,0.227
			v0.106l-0.078,0.474l0.023,0.136v0.133l-0.023,0.362l-0.219,0.138l0.031,0.418l0.023,0.188l0.164-0.055v0.164l-0.055,0.309v0.216
			l0.055,0.108l-0.055,0.225l0.055,0.797v0.23l-0.03,0.323l0.085,0.389l0.023,0.188v0.206l-0.023,0.106l-0.109,0.109v0.363
			l0.109,0.484l0.078,0.282l-0.024,0.217v0.471l0.024,0.19l0.028,0.146l0.121,0.108l0.08,0.188l0.055,0.138l0.162,0.091h0.199
			l0.109,0.109l0.218,0.163l0.133,0.254l-0.108,0.242l-0.079,0.137l-0.417,0.364l-0.164,0.133l-0.107,0.082l-0.201,0.105
			l-0.138,0.055v0.149l-0.32,0.242l-0.083,0.133l-0.038,0.098l-0.055,0.242l0.176,0.337l0.078,0.163v0.079l-0.078,0.417
			l-0.149,0.109l-0.269,0.133l-0.579-0.133l-0.082-0.109l-0.364-0.2l-0.078-0.193l-0.19-0.188l-0.258-0.078l-0.107-0.067
			l-0.389-0.27l-0.162-0.133l-0.163-0.176l-0.161-0.137l-0.202-0.082l-0.188-0.055l-0.337-0.215v-0.122l-0.028-0.188l0.083-0.215
			l0.093-0.148l0.189-0.163l0.08-0.161l0.135-0.105l0.054-0.176l0.028-0.137l0.023-0.108l0.098-0.362l-0.028-0.296l0.052-0.285
			v-0.105v-0.16v-0.188v-0.122l0.086-0.352l-0.031-0.418v-0.214v-0.095l-0.078-0.164v-0.266l0.078-0.176l0.031-0.163l0.054-0.162
			l0.024-0.16l-0.078-0.312v-0.109v-0.158v-0.15l0.054-0.321l-0.085-0.148l-0.055-0.688l0.109-0.215v-0.137v-0.176v-0.133
			l0.03-0.163l-0.054-0.309v-0.271v-0.685l0.054-0.229v-0.137l0.079-0.388l0.242-0.297v-0.083l-0.134-0.093l-0.055-0.243
			l0.079-0.137v-0.309l-0.188-0.108l-0.024-0.216v-1.385v-0.163v-0.418l-0.03-0.106l0.03-1.052l-0.054-0.297l-0.031-0.254
			l-0.055-0.46l-0.199-0.337l-0.162-0.309l-0.339-0.188v-0.218l0.15-0.282l0.163-0.188l0.188-0.031h0.526l0.229,0.109h0.109
			l0.188,0.137l0.108,0.082l0.146,0.147l0.108,0.135l0.297,0.441l0.149-0.078v-0.2l0.079-0.163l0.108-0.311l0.473-0.456l0.107-0.122
			l0.296-0.163l0.418-0.134l0.188-0.107L141.827,229.428z"/>
		<path d="M153.628,234.279h0.151l0.295,0.025l0.636,0.309l0.133,0.216l0.254,0.08l0.876,0.662l0.229,0.108l0.404,0.227l0.121,0.055
			l0.163,0.055l0.162,0.053l0.389,0.163l0.337,0.097l0.43,0.294l0.055,0.31l-0.025,0.163l-0.083,0.16l-0.079,0.106l-0.078,0.394
			l0.023,0.161v0.176l-0.107,0.376l-0.055,0.362l0.084,0.419l-0.084,0.295v0.139l0.029,0.174l-0.029,0.135v0.36l-0.049,0.14v0.24
			l0.023,0.176l-0.023,0.322v0.217l0.049,0.121l0.029,0.215l-0.029,0.16l-0.049,0.259l0.078,0.296v0.23l-0.029,0.133l-0.08,0.524
			l-0.066,0.109l0.121,0.078l-0.055,0.109l0.109,0.7l0.055,0.376l-0.055,0.085l0.025,0.173l-0.025,0.135l0.078,0.242l0.242,0.083
			l0.23,0.309v0.109l-0.121,0.199l-0.109,0.162l-0.105,0.055l-0.365,0.08l-0.104,0.053l-0.138,0.084h-0.189l-0.2,0.025l-0.191,0.081
			l-0.212,0.069l-0.526,0.241l-0.282,0.08l-0.501,0.188l-0.106,0.067l-0.608,0.27l-0.212,0.188l-0.108,0.176l0.024,0.219
			l0.136,0.254l0.052,0.325l-0.104,0.215l-0.475,0.31l-0.334-0.028l-0.138-0.054l-0.105-0.025l-0.084-0.081l-0.361-0.228
			l-0.296-0.054l-0.055-0.109l-0.23-0.028l-0.107-0.051l-0.108-0.085l-0.199-0.078l-0.109-0.121l-0.441-0.243l-0.352-0.312
			l-0.717-0.32l-0.201-0.083l-0.162-0.08l-0.133-0.066h-0.109l-0.339-0.162l-0.188-0.055l-0.176-0.242l0.082-0.284l0.336-0.388
			l0.055-0.161l0.108-0.243l0.079-0.312l0.042-0.322l0.025-0.082l0.084-0.618l0.023-0.634l0.139-0.109l-0.162-0.158v-0.392v-0.35
			v-0.121l-0.029-0.163l0.053-0.242l-0.023-0.149l-0.029-0.375l0.107-0.363v-0.164l-0.107-0.188l0.029-0.176l0.078-0.271
			l-0.107-0.109l-0.025-0.254v-0.106v-0.256l0.055-0.138l-0.055-0.158l-0.029-0.19l0.029-0.419l-0.029-0.214l-0.025-0.47
			l-0.149-0.367l-0.158-0.106l-0.164-0.19l-0.055-0.228l0.029-0.081l0.08-0.133l0.055-0.109l0.32-0.149l0.284-0.078l0.242-0.028
			l0.364-0.081l0.16-0.026l0.365-0.106l0.366-0.134l0.605-0.176l0.239-0.217l0.34-0.188l0.241-0.228l0.135-0.243l0.053-0.176
			l-0.025-0.296l0.025-0.108l0.121-0.204l0.217-0.163L153.628,234.279z M153.022,237.119l-0.216,0.084v0.158l0.028,0.121
			l0.108,0.219v0.524l0.026,0.497v0.351l0.025,0.123v0.08v0.134v0.272v0.145v0.137l-0.025,0.215l0.053,0.173v0.434l0.027,0.176
			l0.027,0.215l-0.055,0.242l-0.053,0.282l0.188,0.417v0.109l-0.135,0.35l0.027,0.203l-0.027,0.214l-0.079,0.23l0.052,0.107
			l-0.052,0.272l-0.054,0.523l-0.055,0.337l-0.106,0.242l-0.152,0.31l-0.054,0.135l0.121,0.135l0.406,0.16l0.174,0.03h0.107
			l0.352,0.091h0.257l0.135,0.03l0.551,0.108h0.163l0.283-0.029l0.054-0.2v-0.108l-0.312-0.352l-0.157-0.282l-0.085-0.527
			l0.03-0.188l0.055-0.688l0.023-0.283v-0.159l-0.023-0.083l0.023-0.254l-0.054-0.137l0.03-0.473l0.188-0.188l0.023-0.109
			l-0.156-0.309l0.023-0.242l0.133-0.31l-0.188-0.215v-0.134l-0.054-0.339v-0.524l-0.055-0.218l0.055-0.254v-0.297l0.054-0.188
			l-0.023-0.258l0.055-0.212l0.103-0.23v-0.215l-0.399,0.106l-0.176-0.053l-0.191-0.054l-0.212-0.137l-0.206-0.148l-0.161-0.161
			l-0.364-0.105L153.022,237.119z"/>
	</g>
	<path d="M10.197,48.973"/>
</g>
<g id="Capa_15">
	<g>
		<g>
			<g>
				<g>
					<g>
						<g>
							<path fill-rule="evenodd" clip-rule="evenodd" d="M61.904,156.709c2.736,4.527,6.783,7.095,9.049,5.729
								c2.252-1.363,1.863-6.14-0.874-10.672c-2.742-4.532-6.789-7.094-9.044-5.731C58.773,147.396,59.165,152.174,61.904,156.709z"
								/>
							<path d="M52.434,161.379c-4.491-8.837,3.994-13.733,3.994-13.733l4.607-1.611l10.742,15.26
								C71.777,161.294,57.922,171.558,52.434,161.379z"/>
							<path fill-rule="evenodd" clip-rule="evenodd" fill="#D1AB6F" d="M61.884,148.767c6.56,1.241,7.801,10.537,7.801,10.537
								s-9.606,7.446-13.904,1.042C51.483,153.951,57.947,149.155,61.884,148.767z"/>
							<path fill="#31738B" d="M67.853,153.709c0.989,5.507-2.097,7.26-4.688,8.855c3.437-0.927,6.521-3.261,6.521-3.261
								S69.088,155.579,67.853,153.709z"/>
						</g>
						<path fill-rule="evenodd" clip-rule="evenodd" fill="#D7DADD" d="M61.884,148.767c0,0-5.209,0.425-7.021,5.65
							c-0.455,2.486,11.501-2.944,10.395-4.036C64.013,149.196,61.884,148.767,61.884,148.767z"/>
					</g>
					<path fill="#666666" d="M105.234,178.111c-44.114-8.29-73.262-50.916-64.973-95.03C48.55,38.969,91.177,9.819,135.29,18.107
						c44.115,8.289,73.26,50.916,64.972,95.032C191.974,157.253,149.348,186.395,105.234,178.111z"/>
					<path d="M135.963,19.249c43.211,8.118,71.658,49.728,63.542,92.938c-8.118,43.209-49.728,71.661-92.94,63.541
						c-43.208-8.119-71.652-49.722-63.536-92.933C51.145,39.584,92.754,11.132,135.963,19.249 M136.623,15.727
						C91.539,7.258,47.973,37.043,39.507,82.13c-3.655,19.44-7.004,83.331,66.399,97.121c45.088,8.474,88.654-21.314,97.125-66.399
						C211.497,67.767,181.709,24.197,136.623,15.727L136.623,15.727z"/>
					<path fill="#B3B3B3" d="M61.097,109.766c-7.481,10.628-5.934,23.812-3.869,27.888C27.252,99.43,44.716,42.302,91.664,23.731
						C75.846,32.147,44.438,65.561,61.097,109.766z"/>
					<path d="M135.963,19.249c-1.494-0.219-2.964-0.508-4.444-0.703c40.378,7.801,66.868,47.012,59.211,87.784
						c-2.233,14.016-10.342,31.211-26.033,42.499c-3.872,21.807-9.612,8.139-15.557,11.725c-13.791,6.605-29.688,9.056-45.82,6.021
						c-39.635-7.442-65.983-45.129-60.052-84.979c-0.083,0.398-0.166,0.797-0.239,1.2c-8.116,43.211,20.328,84.813,63.536,92.933
						c43.213,8.12,84.822-20.332,92.94-63.541C209.52,58.885,171.633,24.539,135.963,19.249z"/>
					<g>
						<path fill-rule="evenodd" clip-rule="evenodd" d="M196.975,128.34c-1.727,5.2-5.236,8.715-7.833,7.854
							c-2.582-0.867-3.279-5.78-1.547-10.983c1.738-5.201,5.243-8.712,7.831-7.846C198.021,118.226,198.711,123.139,196.975,128.34z
							"/>
						<path d="M207.61,130.903c2.521-9.952-7.162-12.96-7.162-12.96l-14.978,6.622l2.58,10.664
							C188.051,135.229,204.388,142.441,207.61,130.903z"/>
						<path fill-rule="evenodd" clip-rule="evenodd" fill="#D1AB6F" d="M195.188,120.318c-6.341,2.744-5.472,12.421-5.472,12.421
							s11.395,5.331,14.281-2.111C206.877,123.188,199.253,119.81,195.188,120.318z"/>
						<path fill="#31738B" d="M190.286,126.668c7.435,4.188,13.899,2.257,14.279,1.831c-1.234,10.431-14.85,4.24-14.85,4.24
							S189.465,128.84,190.286,126.668z"/>
					</g>
				</g>
			</g>
		</g>
		<path d="M147.625,106.609c9.123-9.77,20.565-7.005,25.136-3.762c9.555,6.787,6.688,16.715,6.688,16.715
			S124.275,131.617,147.625,106.609z"/>
		<path d="M178.52,128.659c0,0,5.941,16.713,2.7,29.161c-3.271,1.988-4.658,2.449-4.658,2.449
			c-20.375,38.669-61.904,14.095-61.904,14.095l-19.468-0.883c0,0-4.842-21.489-4.661-21.095
			C90.701,152.782,178.52,128.659,178.52,128.659z"/>
		<path d="M180.796,75.797c-0.06-1.177-0.89-2.149-1.999-2.42c-0.132-0.036-0.268-0.057-0.409-0.065l0,0
			c0,0-0.104-0.017-0.307-0.064c-0.818-0.201-3.135-0.967-6.952-3.758c-1.068-0.788-2.171-1.677-3.342-2.622
			c-4.354-3.521-9.287-7.515-16.443-9.264c-4.65-1.133-9.551-1.156-14.983-0.061c-9.05,1.08-16.114,6.596-20.456,11.047
			c-3.11,3.191-5.595,6.629-6.935,9.013c-3.072-0.361-5.611,0.035-7.206,0.437c-2.118-2.037-6.86-5.877-14.09-7.641
			c-0.889-0.217-1.806-0.401-2.716-0.543c-8.447-1.307-17.312,0.695-24.316,5.492c-4.315,2.955-7.984,6.951-10.9,11.865
			c-3.242,5.459-5.572,12.098-6.924,19.74c-0.191,1.058,0.287,2.121,1.196,2.687c7.374,4.592,14.337,7.707,20.703,9.261
			c10.666,2.608,17.682,0.417,21.688-1.872c0.75,2.223,2.307,4.499,5.233,6.007c0.086,0.042,0.174,0.083,0.264,0.116
			c0.492,0.188,1.005,0.348,1.52,0.475c3.191,0.78,6.077,0.23,7.441-0.139c2.731,0.494,11.451,1.163,23.584-6.821
			c2.229-1.471,4.721-3.387,6.282-6.461c0.147-0.294,0.245-0.608,0.271-0.938c0.136-1.359,0.083-2.557-0.093-3.607
			c5.355,1.007,12.605,1.453,20.239-0.782c10.749-3.15,19.357-10.708,25.593-22.47c0.064-0.059,0.127-0.12,0.194-0.177
			C178.631,80.663,180.936,78.511,180.796,75.797z"/>
		<path fill="#D7DADD" d="M178.172,75.933c-0.498-0.046-3.377-0.509-8.594-4.323c-7.373-5.396-15.357-15.028-32.803-11.467
			c-15.864,1.822-26.009,18.805-26.29,20.382c-5.507-1.227-9.496,0.508-9.496,0.508s-5.666-6.912-16.432-8.58
			c-13.117-2.028-33.648,3.888-39.154,34.957c31.255,19.454,43.139,4.646,43.139,4.646s-1.153,5.83,4.3,8.644
			c3.952,1.513,7.908,0.076,7.908,0.076s8.765,2.569,22.247-6.308c1.703-1.121,4.038-2.795,5.386-5.456
			c0.685-6.932-4.406-8.034-4.406-8.034s32.748,14.116,50.646-20.181C175.894,79.574,178.258,77.635,178.172,75.933z"/>
		<path fill="#F2F2F2" d="M110.485,80.524c0,0,9.766-20.141,30.964-21.053C122.331,66.536,110.485,80.524,110.485,80.524z"/>
		<path fill="#F2F2F2" d="M64.793,75.887c-9.584,10.373-9.841,33.108-9.061,37.082c-3.567-1.764-10.329-5.56-10.329-5.56
			S47.699,85.328,64.793,75.887z"/>
		<path fill="#D1AB6F" d="M96.76,86.784c-7.312,41.479-45.942,17.419-45.942,17.419S61.607,59.68,96.76,86.784z"/>
		<path fill-rule="evenodd" clip-rule="evenodd" fill="#31738B" d="M62.782,84.11c-4.436,8.555-2.026,20.777-0.822,23.771
			c-3.867-0.124-11.143-3.679-11.143-3.679S55.237,89.972,62.782,84.11z"/>
		<path d="M50.817,104.203C64.703,64.011,94.691,85.84,96.76,86.784c-0.037,0.136-7.931-7.369-18.106-8.439
			C69.041,77.335,57.32,82.077,50.817,104.203z"/>
		<path d="M50.817,104.203c41.405,22.937,46.325-17.321,46.325-17.321S89.464,120.931,50.817,104.203z"/>
		<path fill="#D1AB6F" d="M168.84,77.804c-22.205,40.431-55.084,8.825-55.084,8.825S135.905,46.447,168.84,77.804z"/>
		<g>
			<path d="M65.566,115.425c-0.396-0.101-0.799-0.201-1.201-0.315l0.116-0.423c0.565,0.156,1.113,0.295,1.689,0.428l-0.1,0.432
				C65.901,115.506,65.733,115.463,65.566,115.425z M67.803,115.905l0.078-0.431c0.569,0.103,1.146,0.195,1.718,0.275l-0.058,0.436
				C68.96,116.107,68.376,116.009,67.803,115.905z M62.677,114.613c-0.552-0.169-1.119-0.358-1.673-0.551l0.147-0.416
				c0.552,0.194,1.107,0.379,1.652,0.552L62.677,114.613z M71.295,116.381l0.037-0.441c0.586,0.054,1.172,0.088,1.739,0.103
				l-0.018,0.437C72.479,116.465,71.89,116.427,71.295,116.381z M59.355,113.454c-0.543-0.21-1.09-0.43-1.636-0.653l0.17-0.405
				c0.537,0.224,1.084,0.442,1.624,0.651L59.355,113.454z M56.111,112.103c-0.534-0.243-1.071-0.487-1.596-0.743l0.185-0.396
				c0.528,0.251,1.062,0.503,1.584,0.734L56.111,112.103z M74.821,116.479l-0.015-0.438c0.583-0.017,1.168-0.055,1.736-0.109
				l0.042,0.432C76.007,116.419,75.416,116.463,74.821,116.479z M52.937,110.582c-0.515-0.263-1.035-0.532-1.557-0.812l0.206-0.387
				c0.518,0.28,1.032,0.549,1.551,0.807L52.937,110.582z M94.275,120.149c-0.354-0.083-0.699-0.192-1.032-0.312
				c-0.217-0.115-0.408-0.227-0.593-0.337l0.239-0.373c0.167,0.107,0.349,0.207,0.529,0.311c0.293,0.102,0.621,0.206,0.958,0.289
				l0.061,0.011l-0.095,0.428L94.275,120.149z M78.337,116.129l-0.076-0.432c0.576-0.104,1.145-0.223,1.692-0.369l0.113,0.428
				C79.501,115.899,78.922,116.023,78.337,116.129z M96.106,120.422l0.032-0.436c0.557,0.031,1.134,0.021,1.716-0.034l0.041,0.439
				C97.288,120.443,96.692,120.459,96.106,120.422z M49.836,108.929c-0.504-0.284-1.012-0.574-1.524-0.874l0.223-0.376
				c0.51,0.293,1.013,0.581,1.517,0.868L49.836,108.929z M91.258,118.358c-0.416-0.436-0.77-0.93-1.051-1.467l0.393-0.205
				c0.259,0.501,0.587,0.962,0.979,1.371L91.258,118.358z M99.653,120.101l-0.098-0.428c0.46-0.107,0.716-0.203,0.721-0.205
				l0.432-0.152l0.487,0.141c0.032,0.007,0.081,0.019,0.139,0.036l-0.098,0.427c-0.062-0.016-0.108-0.029-0.146-0.038l-0.369-0.103
				l-0.291,0.103C100.427,119.881,100.133,119.988,99.653,120.101z M46.803,107.155l-0.349-0.216l0.026-0.147
				c0.093-0.494,0.193-0.986,0.294-1.47l0.427,0.088c-0.088,0.438-0.173,0.876-0.262,1.314l0.093,0.057L46.803,107.155z
				 M64.758,111.416c-0.302-0.072-0.596-0.146-0.886-0.224l0.109-0.425c0.562,0.149,1.135,0.29,1.698,0.414l-0.099,0.429
				C65.309,111.548,65.035,111.483,64.758,111.416z M62.175,110.709c-0.552-0.172-1.116-0.352-1.674-0.542l0.143-0.415
				c0.553,0.191,1.113,0.369,1.66,0.539L62.175,110.709z M67.308,111.961l0.082-0.431c0.575,0.101,1.15,0.195,1.719,0.275
				l-0.057,0.432C68.478,112.161,67.896,112.062,67.308,111.961z M81.757,115.234l-0.148-0.413c0.286-0.1,0.57-0.211,0.848-0.327
				c0.262-0.105,0.518-0.22,0.756-0.326l0.187,0.391c-0.253,0.121-0.516,0.237-0.771,0.343
				C82.338,115.02,82.048,115.133,81.757,115.234z M58.843,109.57c-0.54-0.205-1.092-0.423-1.633-0.645l0.165-0.407
				c0.542,0.222,1.092,0.443,1.625,0.641L58.843,109.57z M70.801,112.43l0.037-0.44c0.586,0.053,1.168,0.081,1.74,0.104
				l-0.019,0.436C71.987,112.515,71.394,112.477,70.801,112.43z M103.013,120.141l0.022-0.438c0.55,0.032,1.138,0.039,1.73,0.021
				l0.021,0.437C104.173,120.186,103.573,120.172,103.013,120.141z M55.592,108.23c-0.538-0.245-1.076-0.494-1.597-0.747l0.19-0.392
				c0.518,0.248,1.047,0.499,1.585,0.737L55.592,108.23z M74.331,112.528l-0.014-0.438c0.584-0.02,1.166-0.055,1.733-0.11
				l0.041,0.435C75.519,112.472,74.922,112.512,74.331,112.528z M106.549,120.028l-0.051-0.436c0.562-0.062,1.142-0.148,1.72-0.259
				l0.076,0.434C107.709,119.876,107.119,119.962,106.549,120.028z M52.427,106.693c-0.55-0.287-1.07-0.57-1.552-0.845l0.217-0.381
				c0.475,0.269,0.993,0.551,1.533,0.837L52.427,106.693z M89.586,115.199c-0.134-0.579-0.201-1.179-0.203-1.788l0.438-0.002
				c0.004,0.577,0.067,1.144,0.192,1.691L89.586,115.199z M77.845,112.186l-0.073-0.432c0.574-0.098,1.146-0.215,1.7-0.352
				l0.105,0.423C79.011,111.966,78.43,112.09,77.845,112.186z M84.964,113.726l-0.226-0.374c0.502-0.302,0.982-0.63,1.424-0.974
				l0.269,0.347C85.978,113.078,85.483,113.416,84.964,113.726z M49.272,104.695l0.201-0.818c0.009-0.048,0.085-0.36,0.236-0.891
				l0.419,0.121c-0.146,0.514-0.222,0.828-0.23,0.873l-0.199,0.814L49.272,104.695z M110.022,119.392l-0.103-0.424
				c0.549-0.137,1.113-0.293,1.672-0.474l0.131,0.423C111.151,119.094,110.58,119.251,110.022,119.392z M47.157,103.604
				c0.039-0.164,0.08-0.337,0.118-0.501c0.103-0.405,0.2-0.81,0.311-1.201l0.424,0.108c-0.109,0.396-0.206,0.797-0.309,1.196
				c-0.038,0.166-0.08,0.33-0.115,0.502L47.157,103.604z M81.275,111.331l-0.142-0.412c0.549-0.188,1.096-0.394,1.62-0.62
				l0.174,0.401C82.389,110.933,81.833,111.146,81.275,111.331z M113.391,118.349l-0.147-0.407c0.528-0.198,1.075-0.413,1.618-0.64
				l0.171,0.404C114.481,117.937,113.933,118.151,113.391,118.349z M87.759,111.515l-0.329-0.291l0.034-0.036l1.071-1.309
				l0.34,0.276l-1.074,1.307c0.004-0.003,0.004-0.003,0.004-0.003S87.787,111.481,87.759,111.515z M89.596,111.627l0.339-1.721
				l0.433,0.081l-0.342,1.723L89.596,111.627z M84.521,109.933l-0.207-0.389c0.503-0.271,1.009-0.566,1.492-0.885
				c0.271-0.178,0.548-0.367,0.814-0.562l0.259,0.355c-0.277,0.197-0.557,0.391-0.836,0.573
				C85.553,109.349,85.037,109.653,84.521,109.933z M50.644,101.438l-0.415-0.137c0.178-0.553,0.369-1.111,0.57-1.664l0.413,0.147
				C51.014,100.334,50.821,100.888,50.644,101.438z M48.479,100.331l-0.42-0.123c0.168-0.573,0.342-1.139,0.519-1.68l0.421,0.136
				C48.819,99.202,48.645,99.765,48.479,100.331z M116.642,116.984l-0.192-0.393c0.514-0.247,1.039-0.512,1.558-0.784l0.205,0.393
				C117.691,116.474,117.156,116.739,116.642,116.984z M89.983,108.797l-0.337-0.278l1.325-1.619l-0.271,1.372l-0.245-0.048
				L89.983,108.797z M119.76,115.351l-0.219-0.382c0.498-0.284,0.998-0.584,1.492-0.895l0.232,0.375
				C120.764,114.756,120.258,115.063,119.76,115.351z M88.266,107.347l-0.282-0.33c0.43-0.373,0.853-0.776,1.261-1.188l0.317,0.311
				C89.144,106.561,88.709,106.969,88.266,107.347z M51.834,98.154l-0.408-0.165c0.212-0.539,0.438-1.089,0.675-1.62l0.404,0.169
				C52.271,97.076,52.047,97.617,51.834,98.154z M49.565,97.014l-0.412-0.15c0.202-0.554,0.412-1.107,0.631-1.644l0.404,0.16
				C49.976,95.915,49.767,96.462,49.565,97.014z M122.749,113.494l-0.248-0.362c0.536-0.355,0.999-0.689,1.414-1.016l0.269,0.345
				C123.758,112.794,123.293,113.132,122.749,113.494z M90.75,104.828l-0.34-0.283c0.365-0.438,0.726-0.895,1.068-1.37l0.358,0.261
				C91.486,103.915,91.119,104.381,90.75,104.828z M53.223,94.949l-0.399-0.184l0.141-0.3c0.208-0.428,0.428-0.859,0.643-1.28
				l0.387,0.202c-0.215,0.418-0.428,0.847-0.631,1.269L53.223,94.949z M50.87,93.772L50.471,93.6
				c0.237-0.539,0.484-1.076,0.746-1.596l0.393,0.193C51.354,92.714,51.105,93.245,50.87,93.772z M125.523,111.291l-0.315-0.308
				c0.428-0.421,0.807-0.86,1.136-1.299l0.352,0.264C126.354,110.402,125.957,110.858,125.523,111.291z M92.825,101.97l-0.376-0.235
				c0.307-0.483,0.601-0.985,0.882-1.499l0.386,0.21C93.431,100.964,93.128,101.481,92.825,101.97z M54.823,91.848l-0.379-0.217
				c0.286-0.512,0.584-1.023,0.892-1.52l0.37,0.235C55.407,90.832,55.107,91.338,54.823,91.848z M52.408,90.646l-0.386-0.21
				c0.256-0.476,0.521-0.944,0.792-1.398l0.078-0.131l0.379,0.224l-0.076,0.129C52.928,89.716,52.662,90.178,52.408,90.646z
				 M127.047,108.266c0.022-0.597-0.002-1.169-0.078-1.708l0.432-0.062c0.081,0.562,0.113,1.164,0.083,1.792L127.047,108.266z
				 M94.518,98.874l-0.393-0.191c0.24-0.508,0.48-1.045,0.709-1.589l0.406,0.173C95.005,97.813,94.768,98.354,94.518,98.874z
				 M56.647,88.878l-0.365-0.247c0.332-0.492,0.673-0.976,1.02-1.441l0.351,0.263C57.311,87.912,56.975,88.391,56.647,88.878z
				 M54.198,87.657l-0.362-0.243c0.327-0.494,0.668-0.981,1.003-1.444l0.358,0.255C54.857,86.689,54.522,87.171,54.198,87.657z
				 M126.52,104.926c-0.227-0.533-0.531-0.999-0.909-1.396l0.32-0.3c0.411,0.429,0.742,0.941,0.993,1.523L126.52,104.926z
				 M95.878,95.622l-0.411-0.149c0.194-0.535,0.386-1.088,0.562-1.649l0.417,0.132C96.264,94.522,96.076,95.083,95.878,95.622z
				 M124.688,102.402l-0.404-0.177l0.692-1.61l0.403,0.178L124.688,102.402z M58.721,86.075l-0.338-0.278
				c0.379-0.467,0.767-0.912,1.149-1.336l0.326,0.296C59.476,85.173,59.096,85.619,58.721,86.075z M56.257,84.847l-0.341-0.277
				c0.368-0.452,0.759-0.908,1.145-1.338l0.324,0.291C57.005,83.951,56.622,84.396,56.257,84.847z M129.905,101.799l0.101-0.428
				c0.56,0.13,1.135,0.246,1.707,0.354l-0.08,0.432C131.058,102.049,130.473,101.928,129.905,101.799z M128.201,101.374
				c-0.579-0.152-1.147-0.324-1.695-0.493l0.134-0.418c0.544,0.169,1.104,0.336,1.669,0.486L128.201,101.374z M133.371,102.445
				l0.062-0.432c0.578,0.084,1.159,0.161,1.731,0.219l-0.05,0.439C134.538,102.608,133.954,102.534,133.371,102.445z
				 M136.874,102.821l0.027-0.437c0.588,0.036,1.17,0.061,1.742,0.08l-0.011,0.437C138.057,102.889,137.463,102.857,136.874,102.821
				z M140.399,102.903l-0.009-0.434c0.574-0.01,1.157-0.037,1.74-0.072l0.026,0.435
				C141.576,102.869,140.981,102.893,140.399,102.903z M61.061,83.502l-0.303-0.314c0.425-0.419,0.86-0.813,1.3-1.193l0.288,0.331
				C61.918,82.694,61.481,83.094,61.061,83.502z M96.947,92.27l-0.423-0.12c0.136-0.489,0.272-1.003,0.399-1.518l0.044-0.175
				l0.427,0.105l-0.046,0.17C97.222,91.255,97.085,91.768,96.947,92.27z M58.584,82.261l-0.31-0.309
				c0.421-0.417,0.85-0.824,1.282-1.213l0.295,0.329C59.425,81.444,58.997,81.851,58.584,82.261z M143.91,102.682l-0.043-0.436
				c0.575-0.063,1.156-0.144,1.729-0.235l0.068,0.429C145.084,102.539,144.5,102.617,143.91,102.682z M133.08,98.835
				c-0.56-0.136-1.133-0.291-1.703-0.455l0.124-0.42c0.56,0.163,1.129,0.315,1.686,0.45L133.08,98.835z M134.805,99.217l0.083-0.428
				c0.568,0.104,1.151,0.201,1.718,0.274l-0.06,0.436C135.97,99.423,135.385,99.322,134.805,99.217z M129.7,97.839
				c-0.546-0.189-1.101-0.394-1.652-0.61l0.164-0.409c0.544,0.215,1.096,0.418,1.631,0.606L129.7,97.839z M147.398,102.13
				l-0.094-0.43c0.57-0.118,1.142-0.253,1.696-0.396l0.108,0.42C148.545,101.872,147.968,102.009,147.398,102.13z M138.3,99.69
				l0.035-0.442c0.575,0.048,1.165,0.072,1.737,0.086l-0.007,0.438C139.479,99.762,138.89,99.729,138.3,99.69z M63.693,81.237
				l-0.258-0.351c0.478-0.354,0.966-0.693,1.455-0.999l0.234,0.367C64.646,80.562,64.165,80.889,63.693,81.237z M126.423,96.548
				c-0.535-0.236-1.073-0.487-1.599-0.742l0.19-0.396c0.522,0.257,1.057,0.503,1.582,0.738L126.423,96.548z M141.827,99.747
				l-0.019-0.439c0.575-0.023,1.162-0.068,1.732-0.133l0.051,0.438C143.004,99.67,142.417,99.721,141.827,99.747z M61.181,79.943
				l-0.274-0.339c0.463-0.373,0.936-0.729,1.409-1.064l0.256,0.361C62.101,79.229,61.63,79.582,61.181,79.943z M97.347,88.757
				c0.115-0.564,0.226-1.143,0.33-1.716l0.429,0.076c-0.099,0.574-0.214,1.16-0.33,1.728L97.347,88.757z M123.255,95.002
				c-0.508-0.274-1.029-0.559-1.539-0.854l0.219-0.383c0.505,0.294,1.022,0.582,1.526,0.852L123.255,95.002z M150.807,101.237
				l-0.13-0.416c0.555-0.177,1.108-0.363,1.648-0.566l0.152,0.413C151.93,100.87,151.37,101.06,150.807,101.237z M120.206,93.238
				c-0.494-0.312-0.993-0.634-1.475-0.956l0.237-0.366c0.483,0.321,0.978,0.644,1.467,0.948L120.206,93.238z M145.337,99.36
				l-0.076-0.432c0.57-0.103,1.14-0.224,1.697-0.359l0.108,0.425C146.5,99.137,145.914,99.255,145.337,99.36z M66.631,79.389
				L66.425,79c0.518-0.276,1.058-0.534,1.603-0.758l0.167,0.402C67.669,78.869,67.139,79.117,66.631,79.389z M117.281,91.273
				c-0.474-0.34-0.945-0.691-1.409-1.05l0.264-0.349c0.461,0.356,0.936,0.707,1.405,1.043L117.281,91.273z M154.117,100.005
				l-0.179-0.4c0.53-0.23,1.061-0.474,1.58-0.732l0.198,0.395C155.187,99.522,154.648,99.776,154.117,100.005z M64.024,77.944
				l-0.232-0.378c0.497-0.306,1.008-0.603,1.528-0.878l0.208,0.382C65.017,77.348,64.509,77.635,64.024,77.944z M148.764,98.517
				l-0.127-0.42c0.546-0.177,1.094-0.373,1.634-0.586l0.159,0.411C149.887,98.135,149.329,98.334,148.764,98.517z M97.143,85.882
				c-0.464-0.353-0.933-0.704-1.401-1.045L96,84.484c0.467,0.342,0.939,0.693,1.408,1.052L97.143,85.882z M114.494,89.121
				c-0.608-0.497-1.064-0.903-1.339-1.156l0.297-0.32c0.272,0.244,0.721,0.645,1.319,1.139L114.494,89.121z M69.82,78.041
				l-0.133-0.418c0.555-0.181,1.129-0.338,1.704-0.47l0.1,0.427C70.929,77.706,70.365,77.864,69.82,78.041z M94.31,83.835
				c-0.482-0.333-0.972-0.658-1.456-0.963l0.239-0.368c0.487,0.309,0.979,0.635,1.469,0.971L94.31,83.835z M152.055,97.224
				l-0.188-0.399c0.52-0.24,1.039-0.508,1.553-0.786l0.211,0.384C153.108,96.707,152.581,96.973,152.055,97.224z M157.271,98.442
				l-0.215-0.384c0.499-0.282,1.007-0.582,1.497-0.893l0.23,0.374C158.29,97.853,157.779,98.157,157.271,98.442z M67.081,76.292
				l-0.183-0.398c0.531-0.246,1.078-0.481,1.621-0.696l0.159,0.405C68.146,75.817,67.609,76.046,67.081,76.292z M91.371,81.96
				c-0.511-0.303-1.019-0.594-1.515-0.865l0.205-0.381c0.504,0.27,1.021,0.564,1.533,0.867L91.371,81.96z M73.195,77.271
				l-0.06-0.433c0.579-0.079,1.172-0.136,1.761-0.167l0.019,0.441C74.34,77.14,73.763,77.195,73.195,77.271z M112.667,86.632
				l-0.381-0.208l0.25-0.464c0.041-0.073,0.256-0.452,0.638-1.064l0.369,0.229c-0.369,0.605-0.58,0.982-0.621,1.049L112.667,86.632z
				 M88.307,80.296c-0.528-0.26-1.064-0.512-1.581-0.738l0.173-0.402c0.531,0.235,1.069,0.481,1.602,0.744L88.307,80.296z
				 M76.653,77.101l0.017-0.443c0.578,0.021,1.173,0.062,1.762,0.129l-0.051,0.432C77.804,77.155,77.224,77.118,76.653,77.101z
				 M100.579,82.722l-0.668-0.804c-0.004-0.007-0.175-0.22-0.517-0.568l0.312-0.306c0.351,0.361,0.538,0.583,0.545,0.592
				l0.561,0.678l-0.095,0.081l0.095,0.224L100.579,82.722z M85.113,78.901c-0.547-0.209-1.099-0.404-1.642-0.579l0.132-0.417
				c0.55,0.179,1.11,0.374,1.667,0.586L85.113,78.901z M80.099,77.476l0.078-0.431c0.499,0.088,1.007,0.198,1.511,0.318l0.219,0.056
				l-0.104,0.424l-0.22-0.05C81.085,77.669,80.586,77.562,80.099,77.476z M70.315,75.008l-0.136-0.414
				c0.557-0.179,1.127-0.351,1.69-0.503l0.117,0.425C71.429,74.661,70.867,74.83,70.315,75.008z M155.153,95.528l-0.236-0.371
				c0.484-0.305,0.971-0.633,1.446-0.969l0.255,0.355C156.14,94.885,155.646,95.217,155.153,95.528z M160.249,96.557l-0.25-0.359
				c0.466-0.329,0.935-0.683,1.397-1.04l0.271,0.346C161.2,95.868,160.724,96.223,160.249,96.557z M102.426,82.02l-0.115-0.428
				c0.55-0.152,1.134-0.274,1.738-0.363l0.066,0.429C103.524,81.754,102.959,81.867,102.426,82.02z M98.122,80.164
				c-0.427-0.378-0.882-0.742-1.346-1.095l0.263-0.349c0.476,0.358,0.933,0.729,1.374,1.112L98.122,80.164z M73.675,74.111
				l-0.085-0.429c0.57-0.115,1.156-0.222,1.735-0.306l0.064,0.432C74.817,73.892,74.243,73.998,73.675,74.111z M114.492,83.658
				l-0.367-0.242c0.32-0.478,0.66-0.962,1.012-1.446l0.353,0.258C115.144,82.703,114.805,83.188,114.492,83.658z M105.839,81.493
				l-0.025-0.437c0.594-0.029,1.188-0.024,1.779,0.014l-0.025,0.437C106.99,81.475,106.41,81.469,105.839,81.493z M109.284,81.703
				l0.072-0.432c0.311,0.046,0.616,0.109,0.921,0.177l0.808,0.179l-0.098,0.427l-0.807-0.175
				C109.889,81.812,109.586,81.756,109.284,81.703z M158.025,93.487l-0.274-0.344c0.454-0.36,0.901-0.733,1.339-1.118l0.291,0.331
				C158.935,92.743,158.481,93.128,158.025,93.487z M95.349,78.067c-0.479-0.317-0.977-0.621-1.479-0.914l0.217-0.376
				c0.511,0.29,1.021,0.603,1.508,0.922L95.349,78.067z M77.116,73.599l-0.038-0.431c0.588-0.053,1.183-0.094,1.764-0.113
				l0.014,0.443C78.281,73.516,77.695,73.549,77.116,73.599z M163.025,94.387l-0.284-0.335c0.438-0.371,0.872-0.768,1.293-1.167
				l0.301,0.319C163.909,93.609,163.47,94.007,163.025,94.387z M80.593,73.49l0.017-0.439c0.583,0.014,1.175,0.051,1.762,0.097
				l-0.042,0.439C81.757,73.537,81.175,73.507,80.593,73.49z M92.336,76.342c-0.521-0.259-1.053-0.501-1.586-0.726l0.166-0.402
				c0.543,0.229,1.083,0.47,1.611,0.733L92.336,76.342z M111.89,80.677l-0.406-0.164c0.146-0.349,0.466-0.94,0.846-1.577
				l0.376,0.227C112.332,79.779,112.027,80.349,111.89,80.677z M84.059,73.786l0.064-0.44l0.289,0.046
				c0.484,0.076,0.974,0.162,1.447,0.265l-0.085,0.428c-0.473-0.097-0.952-0.188-1.43-0.262L84.059,73.786z M89.124,75.001
				c-0.542-0.184-1.104-0.357-1.66-0.508l0.115-0.424c0.568,0.155,1.137,0.33,1.69,0.518L89.124,75.001z M116.534,80.822
				l-0.349-0.266c0.355-0.46,0.729-0.925,1.099-1.376l0.338,0.277C117.253,79.906,116.885,80.369,116.534,80.822z M160.671,91.16
				l-0.301-0.316c0.413-0.398,0.823-0.813,1.228-1.237l0.316,0.298C161.507,90.341,161.089,90.759,160.671,91.16z M165.587,91.963
				l-0.313-0.301c0.395-0.409,0.794-0.839,1.186-1.281l0.329,0.296C166.395,91.116,165.988,91.551,165.587,91.963z M113.638,77.692
				l-0.36-0.243c0.32-0.474,0.662-0.959,1.016-1.44l0.352,0.258C114.295,76.741,113.955,77.221,113.638,77.692z M118.75,78.124
				l-0.33-0.286c0.39-0.445,0.788-0.885,1.184-1.307l0.318,0.301C119.528,77.251,119.14,77.686,118.75,78.124z M163.098,88.606
				l-0.325-0.293c0.372-0.427,0.753-0.873,1.121-1.333l0.342,0.275C163.859,87.719,163.481,88.169,163.098,88.606z M167.928,89.332
				l-0.341-0.277c0.363-0.443,0.73-0.906,1.081-1.374l0.351,0.267C168.665,88.419,168.295,88.884,167.928,89.332z M115.704,74.881
				l-0.344-0.271c0.358-0.455,0.74-0.912,1.122-1.359l0.333,0.286C116.437,73.983,116.059,74.435,115.704,74.881z M121.136,75.578
				l-0.311-0.313c0.418-0.416,0.845-0.828,1.268-1.225l0.303,0.325C121.977,74.757,121.55,75.165,121.136,75.578z M165.316,85.868
				l-0.352-0.266c0.343-0.452,0.688-0.925,1.025-1.407l0.358,0.253C166.011,84.932,165.662,85.411,165.316,85.868z M170.054,86.525
				l-0.357-0.25c0.325-0.474,0.655-0.961,0.976-1.447l0.364,0.24C170.714,85.56,170.388,86.052,170.054,86.525z M117.979,72.231
				l-0.321-0.293c0.321-0.348,0.655-0.696,0.992-1.038l0.231-0.23l0.306,0.31l-0.228,0.229
				C118.628,71.545,118.3,71.892,117.979,72.231z M123.692,73.2l-0.288-0.332c0.449-0.383,0.903-0.766,1.358-1.125l0.271,0.343
				C124.582,72.442,124.134,72.821,123.692,73.2z M167.345,82.992l-0.371-0.242c0.315-0.475,0.631-0.971,0.942-1.47l0.369,0.227
				C167.976,82.017,167.654,82.517,167.345,82.992z M171.966,83.573l-0.368-0.224c0.297-0.496,0.596-1.005,0.88-1.511l0.378,0.218
				C172.569,82.564,172.271,83.077,171.966,83.573z M120.454,69.772l-0.303-0.321c0.437-0.401,0.88-0.792,1.322-1.17l0.286,0.335
				C121.317,68.989,120.879,69.377,120.454,69.772z M126.423,71.032l-0.26-0.355c0.477-0.343,0.962-0.685,1.449-1.007l0.24,0.369
				C127.375,70.354,126.895,70.689,126.423,71.032z M169.189,79.997l-0.377-0.22c0.289-0.493,0.578-1.003,0.859-1.52l0.438-0.787
				l0.154,0.086l0.155-0.167l0.152,0.146l-0.513,0.933C169.772,78.989,169.486,79.5,169.189,79.997z M173.697,80.513l-0.386-0.205
				l0.21-0.383l0.139-0.134c0.164-0.157,0.349-0.323,0.544-0.504l0.33-0.309l0.303,0.315l-0.337,0.314
				c-0.193,0.176-0.372,0.349-0.539,0.504l-0.108,0.108L173.697,80.513z M129.33,69.111l-0.222-0.376
				c0.504-0.307,1.02-0.595,1.537-0.866l0.202,0.392C130.337,68.528,129.829,68.813,129.33,69.111z M123.113,67.521l-0.27-0.345
				c0.47-0.36,0.947-0.714,1.425-1.045l0.249,0.356C124.049,66.817,123.577,67.165,123.113,67.521z M168.847,76.505
				c-0.435-0.401-0.868-0.796-1.293-1.171l0.288-0.33c0.43,0.38,0.866,0.78,1.306,1.179L168.847,76.505z M132.407,67.49
				l-0.181-0.399c0.535-0.249,1.08-0.481,1.621-0.693l0.162,0.408C133.479,67.015,132.938,67.243,132.407,67.49z M176.085,78.039
				l-0.328-0.294c0.264-0.294,0.479-0.561,0.642-0.805c-0.038-0.011-0.076-0.022-0.111-0.034l0.136-0.416
				c0.134,0.041,0.257,0.081,0.374,0.114l0.271,0.081l-0.141,0.239C176.739,77.249,176.453,77.621,176.085,78.039z M125.97,65.528
				l-0.231-0.369c0.501-0.313,1.016-0.616,1.523-0.895l0.21,0.385C126.971,64.925,126.468,65.221,125.97,65.528z M174.636,76.254
				c-0.513-0.227-1.047-0.492-1.586-0.781l0.208-0.39c0.529,0.294,1.052,0.549,1.554,0.778L174.636,76.254z M166.227,74.2
				c-0.452-0.374-0.913-0.741-1.364-1.095l0.272-0.344c0.452,0.354,0.916,0.723,1.369,1.103L166.227,74.2z M135.646,66.221
				l-0.135-0.419c0.56-0.18,1.129-0.35,1.698-0.498l0.107,0.425C136.758,65.873,136.198,66.039,135.646,66.221z M171.521,74.589
				c-0.481-0.295-0.98-0.618-1.476-0.958l0.242-0.361c0.492,0.337,0.983,0.657,1.461,0.948L171.521,74.589z M129.016,63.852
				l-0.184-0.394c0.528-0.258,1.076-0.499,1.615-0.716l0.161,0.411C130.084,63.365,129.545,63.603,129.016,63.852z M163.47,72.057
				c-0.476-0.345-0.954-0.683-1.431-1.006l0.25-0.361c0.478,0.327,0.959,0.664,1.437,1.016L163.47,72.057z M168.761,72.729
				c-0.427-0.311-0.888-0.659-1.402-1.064l0.271-0.344c0.51,0.398,0.966,0.744,1.391,1.052L168.761,72.729z M139.017,65.353
				l-0.086-0.43c0.576-0.109,1.163-0.199,1.748-0.271l0.05,0.435C140.156,65.154,139.581,65.243,139.017,65.353z M160.576,70.104
				c-0.497-0.31-0.999-0.607-1.501-0.89l0.218-0.384c0.506,0.285,1.013,0.59,1.514,0.899L160.576,70.104z M132.243,62.559
				l-0.136-0.418c0.562-0.185,1.13-0.349,1.697-0.494l0.107,0.428C133.357,62.212,132.796,62.375,132.243,62.559z M142.459,64.933
				l-0.023-0.437c0.587-0.036,1.179-0.048,1.771-0.043L144.2,64.89C143.619,64.885,143.037,64.896,142.459,64.933z M165.983,70.571
				l-1.364-1.103l0.274-0.336l1.364,1.098L165.983,70.571z M157.541,68.388c-0.518-0.268-1.047-0.523-1.565-0.754l0.178-0.404
				c0.529,0.238,1.059,0.496,1.589,0.766L157.541,68.388z M145.938,64.966l0.029-0.437c0.579,0.049,1.173,0.113,1.754,0.194
				l-0.059,0.431C147.088,65.075,146.507,65.012,145.938,64.966z M154.369,66.954c-0.541-0.215-1.088-0.416-1.635-0.595l0.137-0.419
				c0.553,0.185,1.109,0.388,1.66,0.603L154.369,66.954z M149.373,65.452l0.087-0.429c0.577,0.119,1.149,0.255,1.719,0.41
				l-0.111,0.422C150.507,65.703,149.937,65.569,149.373,65.452z M135.61,61.709l-0.077-0.431c0.45-0.076,0.901-0.144,1.354-0.196
				l0.078-0.012l0.295-0.06l0.088,0.433l-0.41,0.077C136.494,61.565,136.051,61.633,135.61,61.709z M163.256,68.381
				c-0.499-0.391-0.95-0.738-1.387-1.07l0.261-0.35c0.443,0.333,0.896,0.682,1.396,1.075L163.256,68.381z M139.062,61.143
				l-0.067-0.433c0.594-0.087,1.182-0.165,1.752-0.222l0.041,0.435C140.228,60.982,139.647,61.055,139.062,61.143z M160.453,66.286
				c-0.488-0.343-0.976-0.668-1.447-0.972l0.241-0.369c0.476,0.309,0.966,0.634,1.46,0.982L160.453,66.286z M142.524,60.791
				l-0.021-0.437c0.597-0.031,1.188-0.04,1.77-0.038l-0.006,0.441C143.695,60.753,143.111,60.766,142.524,60.791z M157.52,64.41
				c-0.516-0.293-1.028-0.572-1.53-0.825l0.197-0.392c0.508,0.254,1.028,0.54,1.551,0.837L157.52,64.41z M146.004,60.827
				l0.029-0.441c0.591,0.043,1.179,0.105,1.756,0.184l-0.057,0.435C147.162,60.925,146.583,60.865,146.004,60.827z M154.41,62.853
				c-0.536-0.227-1.084-0.442-1.617-0.63l0.145-0.412c0.544,0.189,1.102,0.407,1.645,0.639L154.41,62.853z M149.442,61.292
				l0.089-0.43c0.579,0.125,1.156,0.264,1.717,0.416l-0.111,0.422C150.583,61.547,150.014,61.411,149.442,61.292z"/>
		</g>
		<path fill-rule="evenodd" clip-rule="evenodd" fill="#31738B" d="M132.204,70.637c-5.46,7.01-6.902,16.811-4.27,23.484
			c-5.749-1.309-14.179-7.492-14.179-7.492S121.525,74.703,132.204,70.637z"/>
		<path fill="#D7DADD" d="M152.382,100.15c-19.776,10.111-59.9,27.973-72.442,30.981c10.831,19.177,17.771,39.09,17.771,39.09
			s36.002,5.934,79.926-14.377C178.081,153.438,188.388,107.027,152.382,100.15z"/>
		<path d="M84.239,128.402c16.064-7.49,10.18,20.238,3.414,19.479C79.291,146.947,73.425,133.786,84.239,128.402z"/>
		<path fill="#D1AB6F" d="M152.478,104.778c26.402-10.837,33.226,19.096,21.273,30.46c0.425,13.035,0.147,20.936-0.478,23.491
			c-4.731,10.379-17.201,17.254-27.713,18.64c-15.377,2.027-29.08-4.702-29.08-4.702s-22.679-22.232-29.495-25.098
			c-11.835-7.553-7.058-20.337,2.878-21.004C98.388,124.62,149.121,106.215,152.478,104.778z"/>
		<path d="M163.276,113.915c0.048,0.19,1.14,0.276,1.188,0.465c0.568,2.432,1.204,5.723,1.182,7.062
			c0.604,6.386,1.369,12.45-5.272,22.347C158.273,147.571,146.542,133.814,163.276,113.915z"/>
		<path fill="#D7DADD" d="M162.897,81.937c-4.666,6.346-13.44,11.504-18.847,11.928c-9.665,0.749-15.288-7.508-15.288-7.508
			s2.872-11.77,14.263-15.434C156.674,67.077,160.597,79.005,162.897,81.937z"/>
		<path fill="#D7DADD" d="M90.86,90.728c-3.339,6.786-9.044,10.609-13.44,12.089c-10.018,3.363-19.032-3.785-19.032-3.785
			s2.408-12.872,11.436-15.807C74.691,81.639,83.496,80.518,90.86,90.728z"/>
		<path d="M93.204,101.323c-0.723-13.996,6.768-17.416,8.944-18.441c6.293-2.482,13.592,13.485,14.898,16.201
			c13.839,6.449,3.307,17.019-2.662,15.581c-4.551,9.052-13.335,5.316-15.801,1.86C94.021,118.459,82.957,114,93.204,101.323z"/>
		<path fill="#D1AB6F" d="M102.114,84.985c-6.92,4.794-7.479,14.962-6.816,17.267c-5.917,5.155-3.779,10.229-1.574,11.614
			c2.75,1.478,5.691,0.302,5.691,0.302s3.344,4.124,8.655,3.33c4.028-1.332,5.739-5.554,5.739-5.554
			c8.817,0.704,8.989-9.604,2.083-11.292c-1.402-2.771-4.58-7.99-7.433-11.842C106.371,85.987,104.915,84.038,102.114,84.985z"/>
		<path d="M114.23,110.608c0.027,0.336,0.723-0.532,1.145-0.665c1.417-0.451,3.416-0.552,3.299-1.64
			C118.617,107.782,115.22,107.87,114.23,110.608z"/>
		<path fill="#D7DADD" d="M163.149,113.886c0.704,1.45,0.702,4.544,0.484,6.508c-0.434,3.934-2.073,6.996-2.984,8.839
			c-11.344,22.867-39.743,23.381-39.743,23.381l-10.654-6.988l-8.893,0.017c0,0-8.502-5.636-10.787-9.719
			c19.424-0.19,46.475-8.281,61.399-14.711C157.448,118.853,161.869,115.401,163.149,113.886z"/>
		<path d="M121.074,46.666c-1.851,0.84-5.613,6.033-0.833,10.256c4.781,4.221,23.449-6.347,37.519-1.289
			C136.548,39.985,122.922,45.827,121.074,46.666z"/>
		<path d="M84.299,59.442c4.583,2.64,3.405,8.856,1.021,9.362c-12.317-3.857-30.52,6.442-30.52,6.442S65.99,54.968,84.299,59.442z"
			/>
		<g>
			<path d="M104.566,78.554c-0.284-0.07-0.508-0.31-0.551-0.616c-0.179-1.382-0.334-2.867-0.461-4.397
				c-0.034-0.404,0.268-0.757,0.665-0.787c0.403-0.034,0.754,0.267,0.79,0.664c0.123,1.511,0.279,2.969,0.453,4.331
				c0.055,0.4-0.226,0.766-0.63,0.82C104.745,78.578,104.655,78.573,104.566,78.554z M103.837,69.811
				c-0.31-0.073-0.541-0.346-0.557-0.678c-0.061-1.451-0.097-2.937-0.102-4.407c-0.003-0.406,0.325-0.735,0.729-0.737
				c0.405-0.003,0.728,0.328,0.733,0.732c0.007,1.455,0.039,2.92,0.099,4.354c0.017,0.398-0.293,0.739-0.696,0.761
				C103.973,69.838,103.903,69.829,103.837,69.811z M103.8,61.046c-0.326-0.079-0.565-0.384-0.555-0.733
				c0.051-1.473,0.13-2.952,0.233-4.404c0.025-0.401,0.374-0.709,0.779-0.677c0.404,0.03,0.704,0.376,0.676,0.779
				c-0.105,1.434-0.182,2.896-0.232,4.351c-0.012,0.404-0.35,0.721-0.753,0.704C103.901,61.065,103.848,61.057,103.8,61.046z
				 M104.426,52.306c-0.352-0.091-0.592-0.421-0.555-0.794c0.165-1.463,0.353-2.932,0.571-4.373
				c0.058-0.398,0.432-0.676,0.831-0.613c0.395,0.056,0.671,0.43,0.612,0.83c-0.216,1.423-0.4,2.875-0.563,4.316
				c-0.038,0.399-0.405,0.691-0.801,0.649C104.484,52.321,104.457,52.313,104.426,52.306z M105.728,43.635
				c-0.374-0.091-0.617-0.458-0.544-0.845c0.043-0.22,0.088-0.437,0.13-0.656c0.225-1.131,0.47-2.245,0.731-3.315l0.087-0.347
				c0.095-0.391,0.49-0.629,0.882-0.536l0.002,0.002c0.393,0.101,0.633,0.494,0.532,0.888l-0.084,0.342
				c-0.258,1.052-0.497,2.146-0.717,3.251c-0.046,0.215-0.083,0.43-0.129,0.646c-0.074,0.396-0.459,0.659-0.849,0.582
				C105.754,43.644,105.739,43.64,105.728,43.635z M107.865,35.147c-0.017-0.005-0.038-0.01-0.053-0.018
				c-0.381-0.121-0.591-0.533-0.474-0.921c0.465-1.438,0.976-2.846,1.519-4.167c0.154-0.371,0.581-0.557,0.952-0.399
				c0.373,0.156,0.553,0.581,0.4,0.955c-0.532,1.288-1.026,2.655-1.475,4.06C108.617,35.024,108.232,35.235,107.865,35.147z
				 M111.207,27.061c-0.058-0.015-0.109-0.035-0.164-0.065c-0.358-0.191-0.493-0.63-0.31-0.986c0.721-1.366,1.495-2.651,2.309-3.822
				c0.227-0.334,0.681-0.415,1.012-0.188c0.333,0.229,0.414,0.687,0.186,1.02c-0.774,1.121-1.52,2.36-2.212,3.673
				C111.868,26.991,111.525,27.137,111.207,27.061z M116.218,19.906c-0.12-0.034-0.237-0.089-0.332-0.184
				c-0.291-0.279-0.303-0.738-0.023-1.033c2.037-2.127,3.521-2.88,3.583-2.913c0.356-0.179,0.801-0.033,0.979,0.327
				c0.182,0.357,0.038,0.794-0.322,0.978c-0.042,0.019-1.362,0.711-3.184,2.619C116.731,19.896,116.461,19.966,116.218,19.906z"/>
		</g>
		<path d="M118.409,137.073c1.245,3.569,2.073,4.931,3.745,6.89c0,0-0.344,1.031-0.882,0.551c-2.961-2.615-3.877-7.26-3.877-7.26
			S117.834,136.012,118.409,137.073z"/>
		<path d="M110.252,145.625c0,0,24.854-1.33,41.557-13.775c-0.939-6.878,4.578-6.751,5.403-5.144c-1.363-0.907-5.488,0-4.278,5.052
			c-16.68,14.586-41.454,14.666-41.454,14.666l8.417,5.523l-10.798-5.286c0,0-7.172,0.381-8.448-0.112
			c-6.976-3.411-10.078-10.626-10.078-10.626s4.082,5.439,10.787,9.719C103.874,145.637,110.252,145.625,110.252,145.625z"/>
		<path fill="#B0B4B7" d="M102.345,131.351c0,0,10.004-6.233,13.873-5.403c6.081-4.478,20.806-4.237,26.228-5.643
			c-3.535,5.915-26.511,8.902-26.511,8.902L102.345,131.351z"/>
		<path fill="#E0C1A0" d="M163.235,113.653c-8.95,3.704-18.404,6.304-26.549,7.915c-9.069,1.79-17.335,2.106-20.042,6.444
			c-4.062-1.605-9.052,1.272-14.3,3.338c-5.883,2.315-11.713,4.331-11.713,4.331s7.922,0.962,23.887-2.785
			C131.854,129.354,156.299,121.971,163.235,113.653z"/>
		<path d="M159.328,112.061c3.903-1.755,9.108,3.908,9.221,5.945c-1.893-1.987-5.626-4.177-5.626-4.177
			S161.408,112.535,159.328,112.061z"/>
		<path fill="#31738B" d="M120.906,152.613c0.881,5.419,8.925,8.339,13.503,8.074c18.714-0.622,25.964-16.899,25.964-16.899
			S135.239,154.398,120.906,152.613z"/>
		<path fill="#B89656" d="M163.689,119.629c-0.272,3.408-0.12,7.336-0.132,10.314c-0.021,5.771-1.071,8.964-2.409,12.357
			c-2.442,6.01-13.757,12.13-13.757,12.13s-7.88,3.814-15.645,3.378c-12.014-0.683-10.841-5.195-10.841-5.195
			s11.668-0.129,23.057-6.399C152.73,141.398,161.482,132.586,163.689,119.629z"/>
		<g opacity="0.4">
			<path fill="#DD9F9F" d="M163.235,113.653c-8.95,3.704-18.404,6.304-26.549,7.915c-9.069,1.79-17.335,2.106-20.042,6.444
				c-4.062-1.605-9.052,1.272-14.3,3.338c-5.883,2.315-11.713,4.331-11.713,4.331s7.922,0.962,23.887-2.785
				C131.854,129.354,156.299,121.971,163.235,113.653z"/>
			<path fill="#DD9F9F" d="M163.689,119.629c-0.272,3.408-0.12,7.336-0.132,10.314c-0.021,5.771-1.071,8.964-2.409,12.357
				c-2.442,6.01-13.757,12.13-13.757,12.13s-7.88,3.814-15.645,3.378c-12.014-0.683-10.841-5.195-10.841-5.195
				s11.668-0.129,23.057-6.399C152.73,141.398,161.482,132.586,163.689,119.629z"/>
		</g>
		<path d="M87.924,130.605c-1.975,4.251-0.617,8.672-0.617,8.672S83.832,135.225,87.924,130.605z"/>
		<path d="M86.134,135.083c0,0,23.859,0.916,63.436-12.864c-31.16,14.854-62.945,14.688-62.945,14.688L86.134,135.083z"/>
		<path fill="#31738B" d="M96.137,105.431c0,0-4.064,1.525-4.348,5.814c-1.471-4.506,2.001-7.491,2.001-7.491L96.137,105.431z"/>
		<path d="M95.201,101.811c0,0,0.688,2.896,1.413,3.733c-2.136-0.454-2.824-1.79-2.824-1.79L95.201,101.811z"/>
		<g>
			<g>
				<path d="M85.426,98.272c-1.812,4.918-7.269,7.438-12.189,5.62c-4.915-1.812-7.436-7.271-5.62-12.189
					c1.812-4.919,7.271-7.434,12.191-5.624C84.725,87.896,87.24,93.356,85.426,98.272z"/>
				<path fill="#31738B" d="M82.71,97.273c-1.002,2.715-4.014,4.103-6.729,3.105c-2.717-1.007-4.107-4.018-3.103-6.734
					c1-2.718,4.013-4.105,6.729-3.102C82.322,91.541,83.71,94.558,82.71,97.273z"/>
				<path fill="#D7DADD" d="M88.741,92.779c-1.004,2.714-4.017,4.103-6.729,3.106c-2.722-1.006-4.109-4.018-3.109-6.733
					c0.999-2.72,4.018-4.107,6.732-3.105C88.351,87.048,89.74,90.064,88.741,92.779z"/>
				<path d="M80.709,96.013c-0.562,2.312-2.898,3.727-5.21,3.162c-2.313-0.563-3.727-2.899-3.165-5.21
					c0.565-2.31,2.898-3.729,5.208-3.166C79.858,91.368,81.272,93.699,80.709,96.013z"/>
				<path fill="#D7DADD" d="M79.598,94.184c-0.355,0.974-1.437,1.47-2.409,1.112c-0.971-0.355-1.47-1.435-1.112-2.406
					c0.36-0.977,1.438-1.473,2.413-1.115C79.46,92.141,79.958,93.213,79.598,94.184z"/>
			</g>
		</g>
		<g>
			<g>
				<path d="M155.396,88.273c-1.76,4.778-7.066,7.22-11.847,5.46c-4.778-1.767-7.222-7.066-5.463-11.848
					c1.769-4.781,7.07-7.228,11.847-5.46C154.713,78.185,157.162,83.492,155.396,88.273z"/>
				<path fill="#31738B" d="M152.758,87.3c-0.973,2.638-3.899,3.982-6.537,3.012c-2.639-0.976-3.992-3.899-3.016-6.54
					c0.973-2.637,3.899-3.992,6.54-3.019C152.384,81.727,153.731,84.658,152.758,87.3z"/>
				<path fill="#D7DADD" d="M158.622,82.929c-0.975,2.644-3.906,3.989-6.547,3.016c-2.638-0.971-3.984-3.9-3.012-6.539
					c0.971-2.638,3.899-3.988,6.539-3.018C158.238,77.361,159.594,80.292,158.622,82.929z"/>
				<path d="M150.813,86.07c-0.551,2.245-2.816,3.624-5.063,3.072c-2.243-0.544-3.619-2.809-3.074-5.062
					c0.546-2.242,2.813-3.621,5.061-3.072C149.983,81.56,151.361,83.825,150.813,86.07z"/>
				<path fill="#D7DADD" d="M149.734,84.297c-0.35,0.945-1.396,1.429-2.338,1.082c-0.947-0.349-1.433-1.396-1.082-2.343
					c0.347-0.943,1.394-1.423,2.341-1.078C149.598,82.31,150.085,83.354,149.734,84.297z"/>
			</g>
		</g>
		<path fill="#B0B4B7" d="M102.294,84.93c3.484,0.766,10.628,17.637,10.907,17.667c0.279,0.027,2.86-0.91,7.357,2.437
			c-0.865-3.602-4.666-4.381-4.666-4.381C116.222,100.793,106.852,81.285,102.294,84.93z"/>
		<path d="M115.1,98.84c0,0-2.439,1.406-2.668,4.755c0.927-2.111,3.989-2.789,3.989-2.789L115.1,98.84z"/>
		<path d="M113.756,86.629c26.462-41.079,55.084-8.825,55.084-8.825S140.836,50.404,113.756,86.629z"/>
		<path d="M168.84,77.804c-21.63,40.323-54.684,9.19-54.684,9.19S145.905,112.402,168.84,77.804z"/>
		<path fill="#31738B" d="M99.415,114.168c8.056,7.803,13.044,0.038,13.044,0.038s-6.806,4.386-14.729-3.104
			C97.979,112.264,98.919,113.687,99.415,114.168z"/>
		<path fill-rule="evenodd" clip-rule="evenodd" d="M122.326,152.544c0.649-0.056,25.496-4.624,36.228-19.72
			C146.666,151.52,121.67,152.591,122.326,152.544z"/>
		<path fill-rule="evenodd" clip-rule="evenodd" fill="#B0B4B7" d="M153.405,104.413c24.446-8.972,26.376,14.325,25.792,16.198
			C176.541,100.81,162.193,102.407,153.405,104.413z"/>
		<path fill-rule="evenodd" clip-rule="evenodd" fill="#31738B" d="M114.733,170.976l-3.384,0.053c0,0-5.715-7.409-16.836-18.29
			C98.18,155.303,114.733,170.976,114.733,170.976z"/>
		<path stroke="#000000" stroke-miterlimit="10" stroke-dasharray="15,15" d="M119.135,59.256l-5.313-14.474l8.729-10.931
			l1.779-2.226l-2.843-0.143l-4.562-0.232l-0.733-0.04l-0.469,0.562l-4.041,4.859c0.345-1.899,0.568-3.005,0.576-3.022l0.406-1.993
			l-2.019,0.247l-5.064,0.629l-0.996,0.122l-0.244,0.976c-0.086,0.368-1.72,7.116-2.447,16.438
			c-1.697-7.023-2.982-14.953-3.004-15.073l-0.24-1.485l-1.479,0.289l-7.199,1.409l-1.019,0.201l-0.147,1.026
			c-1.82,12.597-1.709,27.348-1.709,27.492l0.019,1.993l1.895-0.616l4.97-1.616l1.118-0.362l-0.116-1.166
			c-0.004-0.059-0.383-4.184-0.161-10.544c2.856,13.598,5.666,21.914,5.703,22.016l0.369,1.09l1.147-0.109
			c0.144-0.012,3.517-0.329,4.668-0.542l1.191-0.215l0.014-1.206c0.04-6.314,0.565-13.529,1.553-21.451l3.002,9.154l0.338,1.031
			l1.09-0.022l3.9-0.103l2.04-0.053L119.135,59.256z"/>
		<path fill="#F2F2F2" d="M113.856,59.861l3.904-0.105l-5.595-15.244l9.245-11.572l-4.56-0.23l-7.524,9.041
			c0.823-5.142,1.501-8.438,1.501-8.438l-5.063,0.635c0,0-2.762,11.263-2.757,24.798c-2.828-6.65-5.556-23.556-5.556-23.556
			l-7.199,1.416c-1.825,12.626-1.694,27.271-1.694,27.271l4.971-1.614c0,0-0.882-9.191,0.697-21.579
			c3.406,19.901,7.678,32.438,7.678,32.438s3.442-0.32,4.547-0.521c0.051-8.244,0.923-16.896,1.87-23.976l1.384-1.418
			L113.856,59.861z"/>
		<path fill="#FFFFFF" d="M98.933,143.927c0,0,14.312,1.076,18.842,0.817c-3.828,1.146-16.415,0.897-16.415,0.897L98.933,143.927z"
			/>
	</g>
</g>
</svg>
