<?xml version="1.0" encoding="utf-8"?>
<!-- Generator: Adobe Illustrator 16.2.1, SVG Export Plug-In . SVG Version: 6.00 Build 0)  -->
<!DOCTYPE svg PUBLIC "-//W3C//DTD SVG 1.1//EN" "http://www.w3.org/Graphics/SVG/1.1/DTD/svg11.dtd">
<svg version="1.1" xmlns="http://www.w3.org/2000/svg" xmlns:xlink="http://www.w3.org/1999/xlink" x="0px" y="0px"
	 width="242.942px" height="269.291px" viewBox="0 0 242.942 269.291" enable-background="new 0 0 242.942 269.291"
	 xml:space="preserve">
<g id="Capa_1">
	<path fill="#FFFFFF" d="M122.141,0.139l0.539,111.275l17.4-109.821l-16.331,109.996L157.58,5.928l-32.806,106l49.432-98.889
		l-48.472,99.397l63.816-89.697l-62.942,90.351l76.623-78.287l-75.86,79.079l87.551-64.958l-86.915,65.857l96.314-50.022
		L128.5,115.774l102.706-33.857L128.83,116.833L235.407,99.98L129,117.936l107.818,0.555L129,119.049l106.407,17.953L128.83,120.151
		l102.376,34.914L128.5,121.211l95.821,51.011l-96.314-50.019l86.91,65.854l-87.546-64.953l75.86,79.076l-76.623-78.287
		l62.942,90.349l-63.816-89.693l48.472,99.396l-49.432-98.894l32.806,106l-33.831-105.656l16.331,109.995l-17.4-109.819
		l-0.539,111.272l-0.538-111.272l-17.4,109.819l16.335-109.995L86.704,231.05l32.804-106.002l-49.427,98.896l48.467-99.397
		l-63.81,89.695l62.936-90.349L41.053,202.18l75.858-79.076l-87.544,64.953l86.908-65.854l-96.312,50.019l95.824-51.011
		L13.078,155.063l102.374-34.914L8.877,137.002l106.405-17.953L7.466,118.49l107.816-0.555L8.877,99.98l106.575,16.853
		L13.078,81.917l102.709,33.857L19.963,64.759l96.312,50.022L29.367,48.924l87.544,64.958L41.053,34.803l76.621,78.287
		L54.736,22.739l63.812,89.697L70.081,13.037l49.427,98.891l-32.804-106l33.833,105.661L104.204,1.593l17.398,109.821L122.141,0.139
		z"/>
</g>
<g id="Capa_4">
	<g>
		<g>
			<rect x="50.371" y="192.527" fill="#FFFFFF" width="140.554" height="30.518"/>
			<path d="M189.425,194.027v27.52H51.872v-27.52H189.425 M192.425,191.025h-3H51.872h-3.001v3.002v27.52v2.998h3.001h137.553h3
				v-2.998v-27.52V191.025L192.425,191.025z"/>
		</g>
		<path d="M69.592,201.664c0.521,0,0.966,0.076,1.335,0.227c0.369,0.152,0.67,0.371,0.906,0.658
			c0.233,0.287,0.405,0.635,0.514,1.047c0.108,0.414,0.162,0.881,0.162,1.4c0,0.521-0.074,0.967-0.223,1.334
			c-0.146,0.369-0.35,0.672-0.61,0.906c-0.262,0.232-0.569,0.406-0.925,0.514c-0.356,0.109-0.741,0.162-1.159,0.162h-1.249v5.416
			h-1.668v-11.664H69.592z M68.759,206.662c0.417,0,0.76-0.027,1.029-0.084c0.269-0.055,0.48-0.148,0.638-0.279
			c0.155-0.131,0.265-0.301,0.325-0.514c0.062-0.213,0.093-0.477,0.093-0.789s-0.013-0.598-0.033-0.852
			c-0.021-0.256-0.099-0.477-0.229-0.658c-0.129-0.182-0.335-0.324-0.617-0.424c-0.283-0.098-0.685-0.148-1.205-0.148h-0.416v3.748
			H68.759z"/>
		<path d="M75.857,210.412l-0.583,2.916h-1.665l2.443-11.664h1.721l2.502,11.664h-1.604l-0.627-2.916H75.857z M77.775,209.164
			l-0.833-5l-0.833,5H77.775z"/>
		<path d="M88.253,209.164v0.414c0,0.523-0.059,1.018-0.172,1.486c-0.111,0.467-0.299,0.879-0.559,1.23
			c-0.262,0.35-0.604,0.631-1.029,0.84c-0.425,0.207-0.95,0.312-1.576,0.312c-0.625,0-1.15-0.107-1.575-0.32
			c-0.425-0.211-0.77-0.51-1.028-0.887c-0.261-0.379-0.447-0.834-0.561-1.359c-0.112-0.525-0.17-1.098-0.17-1.725v-3.328
			c0-0.625,0.058-1.197,0.17-1.723c0.113-0.525,0.3-0.979,0.561-1.354c0.259-0.377,0.604-0.674,1.028-0.887s0.95-0.32,1.575-0.32
			c0.591,0,1.099,0.094,1.52,0.283c0.423,0.189,0.769,0.455,1.037,0.793c0.266,0.338,0.463,0.746,0.589,1.219
			c0.127,0.477,0.19,1,0.19,1.574h-1.67c0-0.418-0.027-0.781-0.083-1.094c-0.057-0.314-0.15-0.574-0.28-0.783
			c-0.131-0.207-0.301-0.363-0.515-0.469c-0.214-0.102-0.476-0.154-0.788-0.154c-0.312,0-0.573,0.053-0.787,0.154
			c-0.213,0.105-0.385,0.262-0.515,0.469c-0.131,0.209-0.224,0.469-0.28,0.783c-0.056,0.312-0.083,0.676-0.083,1.094v4.164
			c0,0.314,0.027,0.619,0.083,0.92c0.057,0.299,0.149,0.566,0.28,0.801c0.13,0.232,0.302,0.422,0.515,0.566
			c0.214,0.143,0.476,0.215,0.787,0.215c0.312,0,0.574-0.072,0.788-0.215c0.214-0.145,0.384-0.334,0.515-0.566
			c0.13-0.234,0.224-0.502,0.28-0.801c0.056-0.301,0.083-0.605,0.083-0.92v-0.414H88.253z"/>
		<path d="M96.434,209.578c0,0.523-0.055,1.018-0.164,1.486c-0.108,0.467-0.29,0.879-0.545,1.23c-0.257,0.35-0.6,0.631-1.026,0.84
			c-0.429,0.207-0.961,0.312-1.599,0.312c-0.435,0-0.818-0.049-1.153-0.145c-0.333-0.096-0.623-0.225-0.868-0.396
			c-0.246-0.168-0.452-0.373-0.622-0.611c-0.169-0.24-0.306-0.502-0.404-0.789c-0.104-0.287-0.178-0.594-0.221-0.916
			c-0.043-0.328-0.064-0.664-0.064-1.012v-4.164c0-0.348,0.021-0.684,0.064-1.01c0.043-0.324,0.117-0.631,0.221-0.918
			c0.099-0.287,0.235-0.551,0.404-0.789c0.17-0.236,0.376-0.441,0.622-0.609c0.245-0.172,0.535-0.301,0.868-0.396
			c0.335-0.098,0.719-0.146,1.153-0.146c0.638,0,1.17,0.105,1.599,0.312c0.427,0.211,0.77,0.488,1.026,0.84
			c0.255,0.354,0.437,0.764,0.545,1.23c0.109,0.469,0.164,0.965,0.164,1.486V209.578z M91.434,209.996
			c0,0.312,0.026,0.598,0.084,0.852c0.056,0.256,0.149,0.477,0.28,0.658c0.13,0.182,0.302,0.326,0.515,0.426
			c0.212,0.098,0.474,0.148,0.787,0.148c0.312,0,0.576-0.051,0.788-0.148c0.212-0.1,0.383-0.244,0.514-0.426
			c0.13-0.182,0.224-0.402,0.279-0.658c0.058-0.254,0.085-0.539,0.085-0.852v-5c0-0.312-0.027-0.598-0.085-0.852
			c-0.056-0.256-0.149-0.477-0.279-0.658c-0.131-0.182-0.302-0.324-0.514-0.424c-0.212-0.098-0.477-0.148-0.788-0.148
			c-0.313,0-0.575,0.051-0.787,0.148c-0.213,0.1-0.385,0.242-0.515,0.424c-0.131,0.182-0.225,0.402-0.28,0.658
			c-0.058,0.254-0.084,0.539-0.084,0.852V209.996z"/>
		<path d="M105.171,207.893l1.333-6.229h1.665l-2.498,11.664h-1.773l-2.394-11.664h1.665l1.232,6.248l0.381,2.918L105.171,207.893z"
			/>
		<path d="M109.688,201.664h1.668v11.664h-1.668V201.664z"/>
		<path d="M117.95,213.328l-1.746-5.416h-1.249v5.416h-1.669v-11.664h2.083c0.73,0,1.335,0.074,1.817,0.223
			c0.48,0.15,0.866,0.363,1.152,0.637s0.488,0.6,0.605,0.984c0.116,0.387,0.175,0.812,0.175,1.281c0,0.287-0.021,0.543-0.062,0.773
			s-0.097,0.438-0.166,0.617c-0.07,0.18-0.149,0.338-0.237,0.477c-0.087,0.135-0.175,0.252-0.267,0.346
			c-0.213,0.23-0.457,0.396-0.731,0.496l1.88,5.83H117.95z M114.955,206.662h0.414c0.312,0,0.597-0.029,0.854-0.088
			c0.256-0.059,0.475-0.16,0.656-0.303c0.184-0.141,0.322-0.334,0.424-0.574c0.1-0.242,0.149-0.545,0.149-0.908
			c0-0.365-0.05-0.668-0.149-0.91c-0.102-0.24-0.24-0.432-0.424-0.574c-0.182-0.145-0.4-0.244-0.656-0.305
			c-0.258-0.059-0.542-0.086-0.854-0.086h-0.414V206.662z"/>
		<path d="M122.886,210.412l-0.584,2.916h-1.666l2.444-11.664h1.722l2.501,11.664h-1.604l-0.627-2.916H122.886z M124.803,209.164
			l-0.833-5l-0.832,5H124.803z"/>
		<path d="M132.152,213.328l-1.665-9.203v9.203h-1.667v-11.664h2.26l1.657,8.941l1.659-8.941h2.34v11.664h-1.667v-9.205
			l-1.667,9.205H132.152z"/>
		<path d="M145.128,209.578c0,0.523-0.054,1.018-0.163,1.486c-0.106,0.467-0.291,0.879-0.546,1.23c-0.258,0.35-0.6,0.631-1.025,0.84
			c-0.428,0.207-0.96,0.312-1.599,0.312c-0.435,0-0.818-0.049-1.153-0.145c-0.334-0.096-0.622-0.225-0.868-0.396
			c-0.245-0.168-0.453-0.373-0.623-0.611c-0.169-0.24-0.304-0.502-0.406-0.789c-0.102-0.287-0.175-0.594-0.217-0.916
			c-0.044-0.328-0.064-0.664-0.064-1.012v-4.164c0-0.348,0.021-0.684,0.064-1.01c0.042-0.324,0.115-0.631,0.217-0.918
			c0.103-0.287,0.237-0.551,0.406-0.789c0.17-0.236,0.378-0.441,0.623-0.609c0.246-0.172,0.534-0.301,0.868-0.396
			c0.335-0.098,0.719-0.146,1.153-0.146c0.639,0,1.171,0.105,1.599,0.312c0.426,0.211,0.768,0.488,1.025,0.84
			c0.255,0.354,0.439,0.764,0.546,1.23c0.109,0.469,0.163,0.965,0.163,1.486V209.578z M140.127,209.996
			c0,0.312,0.03,0.598,0.085,0.852c0.056,0.256,0.15,0.477,0.28,0.658s0.303,0.326,0.516,0.426c0.212,0.098,0.474,0.148,0.787,0.148
			c0.312,0,0.575-0.051,0.787-0.148c0.212-0.1,0.384-0.244,0.515-0.426c0.13-0.182,0.225-0.402,0.279-0.658
			c0.058-0.254,0.086-0.539,0.086-0.852v-5c0-0.312-0.028-0.598-0.086-0.852c-0.055-0.256-0.149-0.477-0.279-0.658
			c-0.131-0.182-0.303-0.324-0.515-0.424c-0.212-0.098-0.476-0.148-0.787-0.148c-0.313,0-0.575,0.051-0.787,0.148
			c-0.213,0.1-0.386,0.242-0.516,0.424s-0.225,0.402-0.28,0.658c-0.055,0.254-0.085,0.539-0.085,0.852V209.996z"/>
		<path d="M151.5,213.328l-2.981-7.76v7.76h-1.667v-11.664h1.094l3.073,7.615v-7.615h1.666v11.664H151.5z"/>
		<path d="M160.035,201.664v1.365h-2.083v10.299h-1.668v-10.299h-2.082v-1.365H160.035z"/>
		<path d="M165.302,207.912h-2.083v4.168h2.917v1.248h-4.584v-11.664h4.584v1.25h-2.917v3.748h2.083V207.912z"/>
		<path d="M170.78,213.447c-0.416,0-0.782-0.049-1.099-0.148c-0.318-0.096-0.594-0.227-0.827-0.389
			c-0.234-0.164-0.431-0.348-0.592-0.553c-0.161-0.209-0.293-0.42-0.396-0.637c-0.243-0.504-0.382-1.078-0.417-1.725l1.66-0.418
			c0.017,0.469,0.087,0.887,0.208,1.252c0.051,0.156,0.119,0.309,0.199,0.459c0.081,0.148,0.18,0.281,0.297,0.398
			c0.118,0.119,0.257,0.213,0.414,0.283c0.16,0.072,0.343,0.109,0.552,0.109c0.835,0,1.252-0.418,1.252-1.25
			c0-0.207-0.025-0.404-0.077-0.582c-0.052-0.18-0.13-0.355-0.234-0.521c-0.104-0.168-0.234-0.332-0.392-0.49
			c-0.155-0.158-0.339-0.32-0.545-0.49l-2.083-1.666c-0.214-0.17-0.399-0.359-0.559-0.576c-0.158-0.217-0.288-0.441-0.392-0.682
			c-0.106-0.238-0.184-0.48-0.232-0.729s-0.075-0.492-0.075-0.734c0-0.373,0.063-0.732,0.188-1.072
			c0.127-0.34,0.311-0.639,0.556-0.898c0.245-0.258,0.55-0.463,0.914-0.615c0.364-0.15,0.784-0.229,1.263-0.229
			c0.416,0,0.783,0.045,1.102,0.131c0.315,0.086,0.592,0.203,0.826,0.346c0.235,0.143,0.433,0.305,0.594,0.488
			c0.159,0.182,0.293,0.365,0.397,0.553c0.243,0.447,0.383,0.955,0.417,1.518l-1.668,0.416c-0.017-0.389-0.086-0.736-0.207-1.041
			c-0.054-0.131-0.12-0.256-0.199-0.381c-0.081-0.125-0.18-0.236-0.298-0.33c-0.117-0.1-0.255-0.18-0.413-0.24
			c-0.159-0.062-0.344-0.09-0.551-0.09c-0.22,0-0.407,0.033-0.566,0.1c-0.157,0.068-0.288,0.158-0.39,0.27
			c-0.104,0.115-0.178,0.246-0.229,0.398c-0.046,0.152-0.069,0.311-0.069,0.482c0,0.287,0.067,0.578,0.203,0.881
			c0.134,0.301,0.346,0.562,0.635,0.789l2.083,1.666c0.263,0.213,0.499,0.447,0.706,0.699c0.207,0.256,0.382,0.52,0.525,0.797
			c0.143,0.277,0.252,0.561,0.327,0.855c0.073,0.291,0.11,0.582,0.11,0.869c0,0.359-0.058,0.703-0.178,1.029
			c-0.115,0.328-0.294,0.617-0.536,0.869c-0.24,0.252-0.544,0.453-0.908,0.604C171.712,213.371,171.28,213.447,170.78,213.447z"/>
	</g>
</g>
<g id="Capa_16">
	<g>
		<polygon fill="#D9DADB" points="198.753,267.284 198.753,260.25 44.365,260.25 44.365,267.284 5.043,267.284 20.334,248.02 
			5.043,228.756 25.159,228.756 25.159,221.723 217.776,221.723 217.776,228.756 237.556,228.756 225.324,248.02 237.556,267.284 		
			"/>
		<path d="M215.728,223.772v7.033h18.1l-10.931,17.214l10.931,17.214h-33.024v-7.032H42.315v7.032H9.287l13.666-17.214
			L9.287,230.806h17.922v-7.033H215.728 M219.825,219.673h-4.098H27.207h-4.098v4.1v2.935H9.287H0.799l5.277,6.65l11.643,14.664
			L6.076,262.685l-5.277,6.649h8.488h33.028h4.101v-4.101V262.3h150.288v2.934v4.101h4.099h33.024h7.46l-3.997-6.3l-9.536-15.015
			l9.536-15.016l3.997-6.297h-7.46h-14.002v-2.935V219.673L219.825,219.673z"/>
	</g>
	<polygon fill="#B0B4B7" points="42.315,265.233 42.315,230.806 9.287,230.806 22.953,248.02 9.287,265.233 	"/>
	<polygon fill="#B0B4B7" points="233.827,230.806 200.803,230.806 200.803,265.233 233.827,265.233 222.896,248.02 	"/>
	<polygon points="23.062,229.257 23.062,260.722 32.656,267.419 43.846,266.576 30.08,229.257 	"/>
	<polygon points="219.838,229.12 219.838,260.582 210.245,267.284 199.057,266.436 212.817,229.12 	"/>
	<polygon fill="#8B8B8B" points="215.728,223.772 215.728,258.201 200.803,265.233 200.665,230.806 	"/>
	<polygon fill="#8B8B8B" points="27.207,223.772 27.207,258.201 42.136,265.233 42.271,230.806 	"/>
	<rect x="27.207" y="223.772" fill="#D9DADB" width="188.521" height="34.429"/>
	<path d="M186.627,236.524l1.482,3.039l3.393,0.524l-2.489,2.329l0.544,3.336l-3.021-1.604l-3.057,1.535l0.62-3.322l-2.433-2.387
		l3.402-0.443L186.627,236.524z"/>
	<path d="M61.833,236.04l1.483,3.046l3.393,0.524l-2.486,2.329l0.541,3.335l-3.021-1.608l-3.059,1.54l0.621-3.321l-2.432-2.388
		l3.402-0.443L61.833,236.04z"/>
	<g>
		<path d="M80.963,234.388h0.392l0.242,0.162l0.055,0.176l0.363,0.581l0.271,0.458l0.121,0.309l0.188,0.297l0.109,0.254l0.055,0.161
			l-0.031,0.109l0.031,0.23l0.054,0.133l0.055,0.218l0.199,0.254L83.392,238l0.108,0.2l0.066,0.272l0.079,0.282l0.133,0.214
			l0.14,0.415l0.361,0.297l0.08,0.285l-0.055,0.241l-0.23,0.247l-0.104,0.199l-0.663,0.393l-0.441,0.266l-0.327,0.14l-0.133,0.103
			l-0.176,0.175l-0.133,0.055l-0.337,0.084l-0.219,0.158l-0.158,0.055l-0.476,0.282h-0.104l-0.205,0.164l-0.108,0.023l-0.375,0.368
			l-0.15,0.242l-0.023,0.109v0.121l-0.031,0.156l-0.211,0.219l-0.394-0.026l0.03,0.309l-0.03,0.219l-0.107,0.158l-0.08,0.259
			l-0.133,0.161l-0.071,0.159l0.042,0.259l0.107,0.188l0.135,0.024l0.138,0.055h0.157h0.339l0.254,0.12l0.38,0.031l0.309,0.023
			l0.164,0.031h0.106l0.363,0.053l0.375,0.025l0.368-0.055l0.158-0.109l0.055-0.12l0.066-0.134l-0.025-0.108v-0.107l-0.096-0.146
			l-0.104-0.188l-0.109-0.35l0.08-0.338l0.079-0.136l0.108-0.177l0.283-0.134l0.163-0.024h0.176l0.266,0.107l0.164,0.051
			l0.204,0.229l0.109,0.246l0.048,0.714l-0.048,0.121l-0.055,0.32l-0.055,0.339l-0.085,0.216l-0.145,0.109l-0.109,0.176
			l-0.029,0.156l-0.241,0.273l-0.2,0.199l-1.184,0.959l-0.109,0.176l-0.055,0.351l0.078,0.146l0.031,0.242l-0.055,0.218
			l-0.164,0.229l-0.149,0.025l-0.43,0.083l-0.199-0.055l-0.352-0.054l-0.175-0.053l-0.242-0.109l-0.162-0.094l-0.175-0.027
			l-0.164-0.025l-0.216-0.162l-0.255-0.055l-0.46-0.284l-0.145-0.053l-0.243-0.135l-0.281-0.162l-0.242-0.108l-0.394-0.255
			l-0.38-0.133l-0.333-0.163l-0.163-0.029h-0.416l-0.164-0.092l-0.199-0.188l-0.085-0.192l0.03-0.078l0.055-0.2l0.121-0.194
			l0.32-0.308l0.162-0.24l0.025-0.242l0.071-0.206l0.05-0.375v-0.174l-0.025-0.297v-0.176l-0.096-0.083l-0.025-0.242l0.146-0.08
			l-0.078-0.174l0.053-0.272l-0.024-0.157l-0.123-0.312l0.123-0.134l0.024-0.108v-0.109l-0.024-0.441l0.024-0.109v-0.888
			l-0.024-0.188v-0.258l-0.028-0.375l0.028-0.261l-0.028-0.294l0.028-0.202l0.024-0.134l-0.053-0.106l-0.068-0.5l-0.026-0.309
			l0.026-0.219l-0.107-0.32l-0.08-0.121l-0.295-0.218l-0.097-0.107l-0.024-0.133l0.024-0.261l0.175-0.242l0.378-0.145l0.577-0.084
			l0.313-0.08l0.107-0.053l0.16-0.025l1.158-0.337l0.176-0.086h0.133l0.085-0.078l0.107-0.133l0.201,0.055l0.271-0.138l0.188-0.147
			l0.417-0.242l0.107-0.052l0.526-0.501l0.078-0.189l0.031-0.199l0.174-0.192L80.963,234.388z M79.145,237.094l-0.08,0.219v0.216
			l0.055,0.146l0.055,0.217l0.055,0.362l0.025,0.134l0.053,0.108l0.03,0.579l0.024,0.109l0.055,0.176l0.055,0.27l-0.084,0.188
			l0.084,0.254v0.164l-0.055,0.163l-0.079,0.278l0.024,0.108l0.025,0.109l-0.025,0.229l0.025,0.135v0.192l0.029,0.133l-0.055,0.254
			l0.08,0.138l0.366-0.477l0.389-0.133l0.055-0.133l0.107-0.055l0.108-0.079l0.164-0.054l0.223-0.393l0.055-0.108l-0.055-0.146
			l-0.133-0.245l-0.055-0.135l-0.035-0.175l-0.192-0.406l-0.389-0.997l-0.107-0.078l-0.272-0.526l-0.055-0.188l-0.333-0.579
			L79.145,237.094z"/>
		<path d="M90.328,229.499l0.109,0.066l0.324-0.041l0.2,0.041l0.242,0.109l0.23,0.211l0.027,0.219l0.027,0.145v0.138l-0.109,0.242
			l-0.39,0.229l-0.137,0.024l-0.2,0.055l-0.296,0.14l-0.138,0.133l-0.121,0.145l-0.212,0.501l-0.055,0.109v0.108l-0.03,0.188
			l-0.024,0.47v0.309l-0.083,1.818l-0.066,0.797l-0.025,0.133l-0.055,0.202l0.121,0.216l-0.041,0.218l0.149,0.121v0.188l0.024,0.217
			l-0.053,0.199v0.297l-0.08,0.175l-0.096,0.326v0.162l0.055,0.146v0.109l-0.055,0.188l0.15,0.446v0.363l0.025,0.27v0.63
			l-0.08,0.085l-0.066,0.146v0.271l0.025,0.309l-0.025,0.218l-0.109,0.267l0.201,0.03l0.055,0.176v0.188v0.361l0.053,0.189
			l-0.024,0.138v0.55l0.024,0.259l-0.053,0.212l-0.08,0.242l0.055,0.204l0.078,0.297v0.229l0.055,0.162l0.03,0.135l0.024,0.254
			l0.08,0.216l0.053,0.188l0.176,0.098l0.609,0.16l0.266,0.243l0.031,0.108v0.278l-0.188,0.297l-0.394,0.339l-0.188,0.134
			l-0.084,0.204l-0.308,0.055l-0.134,0.108l-0.339,0.388l-0.078,0.191l0.158,0.363l0.15,0.133l0.054,0.271l-0.149,0.362
			l-0.213,0.218l-0.192,0.024l-0.254-0.055l-0.109-0.078h-0.133l-0.083-0.055l-0.254-0.138l-0.188-0.227l-0.219-0.137l-0.282-0.161
			l-0.106-0.135l-0.107-0.146l-0.083-0.028l-0.309-0.214l-0.392-0.163l-0.297-0.149l-0.229-0.079l-0.212-0.108l-0.296-0.164
			l-0.098-0.078l-0.055-0.15l-0.053-0.268l0.133-0.282l0.15-0.133l0.108-0.055l0.267-0.138l0.206-0.39v-0.579l0.078-0.163
			l-0.078-0.133l-0.03-0.176l-0.024-0.134l0.078-0.137l0.055-0.441v-0.193l-0.055-0.334l0.138-0.083v-0.188l0.026-0.199l0.028-0.298
			l0.051-0.163l-0.051-0.149l-0.108-0.055v-0.32l-0.138-0.417l0.03-0.338l0.078-0.242l0.055-0.446l-0.025-0.163l0.054-0.605
			l0.026-0.309v-0.134l-0.08-0.246l0.054-0.145l-0.054-0.109l-0.055-0.712l0.025-0.472v-0.326v-0.199l0.029-0.218l0.108-0.254
			l0.159-0.164l-0.159-0.216l-0.138-0.387l-0.025-0.219l0.025-0.121l-0.025-0.106l0.055-0.136l-0.029-0.392l-0.025-0.458
			l-0.029-0.309l-0.054-1.766l-0.079-0.392l-0.042-0.266l-0.024-0.285l-0.38-0.435l-0.176-0.12l-0.158-0.242l-0.055-0.283
			l0.133-0.242l0.23-0.163l0.43-0.024l0.446,0.055l0.229,0.055l0.297,0.078h0.107l0.498,0.313l0.259,0.188l0.156,0.164l0.297,0.307
			l0.149,0.135l0.164-0.055l0.055-0.133l-0.109-0.176l0.266-0.688l0.151-0.163l0.35-0.496l0.394-0.162l0.242-0.121L90.328,229.499z"
			/>
		<path d="M99.519,230.992h0.392l0.387,0.241l0.218,0.098l0.109,0.161l0.078,0.104l0.121,0.109l0.162,0.204l0.69,0.163h0.133
			l0.501-0.108l0.254-0.055l0.108,0.055l0.525-0.031l0.108-0.023l0.157-0.028l0.313-0.093l0.352-0.028l0.199-0.026l0.325-0.108
			l0.135,0.025h0.121l0.743-0.078l0.47-0.027l0.109-0.054l0.309-0.054h0.108l0.295,0.107h0.135l0.148-0.027l0.431,0.027l0.146,0.027
			l0.272,0.023l0.161,0.029l0.23,0.08l0.297,0.083l-0.055-0.083l0.229,0.083l0.213,0.121l0.524,0.242l0.14,0.078l0.134,0.031
			l0.121,0.078l0.187,0.055l0.338,0.175l0.055,0.188l0.216,0.106l0.104,0.23l0.138,0.108l0.066,0.134l0.109,0.028l0.108,0.104
			l0.159,0.368l0.229,0.188l0.054,0.199l0.084,0.085l0.135,0.188l0.053,0.133l0.201,0.149l0.028,0.163l0.055,0.388l0.159,0.406
			l0.106,0.446l0.164,0.362l0.066,0.162l0.055,0.133l0.078,0.135l0.031,0.119l-0.257,0.46l-0.083,0.283l-0.108,0.271v0.255
			l-0.079,0.392l-0.055,0.242l-0.078,0.109l-0.055,0.332l-0.121,0.164l-0.138,0.579l-0.055,0.242l-0.133,0.097h-0.163l-0.2,0.212
			l-0.271,0.609l-0.309,0.282l-0.133,0.188L110.702,242l-0.205,0.135l-0.322,0.363l-0.188,0.028l-0.204,0.164l-0.109,0.09
			l-0.102,0.109l-0.23,0.161l-0.164,0.081l-0.216-0.026l-0.146,0.109l-0.162,0.108l-0.133,0.036l-0.247,0.14l-0.254-0.03
			l-0.269,0.133l-0.367,0.055l-0.158-0.133h-0.283l-0.161,0.055l-0.242,0.023l-0.152-0.133l-0.239-0.055l-0.395-0.176l-0.524-0.458
			l-0.05-0.23l-0.03-0.495l0.03-0.134l0.159-0.422l0.119-0.103l0.085-0.085l0.133-0.107l0.216-0.08l0.527,0.029l0.332,0.321
			l0.055,0.176v0.109l0.055,0.295l0.259-0.055l0.213-0.217l0.295-0.387l0.448-1.052l0.024-0.163l-0.05-0.309l0.025-0.271
			l0.078-0.219l0.121-0.332v-0.164l0.029-0.133l-0.096-0.337l-0.08-0.339l0.229-0.295l-0.083-0.285l0.083-0.266l-0.054-0.108
			l-0.096-0.26l-0.055-0.351l0.121-0.387l-0.066-0.164l-0.268-0.47l0.025-0.285l-0.078-0.161l-0.136-0.551l-0.336-0.605
			l-0.139-0.218l-0.158-0.121l-0.838-0.458l-0.323,0.023h-0.255l-0.105,0.031l-0.368,0.242l-0.133,0.229l-0.135,0.375v0.259
			l-0.029,0.212l-0.175,0.163v0.229l-0.024,0.135l0.024,0.192l-0.05,0.363l0.025,0.239l-0.025,0.23v0.266l0.05,0.23l-0.024,0.271
			v0.135l-0.025,0.864v0.271v0.146l-0.055,0.188l0.08,0.243l0.024,0.203l-0.134,0.604l0.164,0.435v0.146l-0.08,0.188l0.121,0.421
			l-0.071,0.322v0.149l0.071,0.159v0.107l-0.096,0.309v0.163l0.096,0.242l-0.041,0.446l0.121,0.188l-0.031,0.204v0.214l0.031,0.228
			l0.107,0.539l0.025,0.229l0.028,0.191l0.055,0.364l0.133,0.32l0.081,0.313l0.149,0.157v0.108l-0.055,0.176l0.164,0.66l0.133,0.349
			h0.254l0.083,0.121l0.055,0.138v0.322l0.078,0.283l0.394,0.392l0.134,0.055l0.161-0.029l0.309,0.109l0.109-0.055l0.32-0.229
			l0.097-0.242l0.079-0.392l0.247-0.32l0.441-0.207h0.218l0.229,0.031h0.108l0.297,0.199l-0.028,0.218h0.118l0.141,0.029
			l0.102,0.279l0.031,0.192l-0.055,0.333l-0.133,0.351l-0.152,0.259l-0.241,0.297l-0.107,0.105l-0.309,0.148l-0.134,0.107
			l-0.246,0.163l-0.389,0.055l-0.188,0.078l-0.336,0.078l-0.189,0.073h-0.107l-0.096-0.03l-0.163,0.055l-0.473,0.023l-0.524-0.048
			h-0.16l-0.191-0.03h-0.282l-0.104,0.03l-0.192-0.097l-0.78-0.055l-0.107-0.078l-0.188-0.03l-0.688-0.134l-0.308-0.31l-0.242,0.227
			h-0.109l-0.199-0.051h-0.219l-0.175-0.027l-0.107,0.027l-0.109-0.054l-0.188,0.026l-0.078-0.026l-0.501-0.028l-0.551,0.028
			l-0.229,0.026l-0.556,0.216l-0.188,0.133l-0.213,0.23l-0.084,0.133l-0.023,0.109l-0.176,0.028l-0.109,0.081l-0.501,0.199
			l-0.296,0.028l-0.174-0.028l-0.16-0.066l-0.245-0.133l-0.23-0.219l-0.023-0.133l-0.024-0.149l-0.055-0.214l0.024-0.216
			l0.133-0.339l0.229-0.333l0.326-0.38l0.12-0.025l0.164-0.138l0.35-0.278l0.175-0.055h0.104l0.271-0.192l0.34-0.201l0.362-0.349
			l0.217-0.2l0.055-0.194l0.104-0.188l0.055-0.199l0.029-0.403l0.066-0.23l0.025-0.163l0.053-0.133l0.055-0.283v-0.272l-0.107-0.229
			v-0.297l0.192-0.362l-0.03-0.297l0.055-0.416l-0.134-0.135l0.079-0.282l0.163-0.352l0.133-0.121l-0.241-0.579l0.054-0.133
			l-0.026-0.218l-0.027-0.471l0.027-0.108l-0.027-0.2v-0.163l0.271-0.713l-0.084-0.229l-0.211-0.406l0.078-0.173l0.024-0.273
			l-0.103-0.387l0.078-0.634l-0.054-0.133l-0.024-0.163v-0.26l-0.055-0.268l-0.108-0.083l-0.029-0.23l0.053-0.102l0.085-0.164
			l-0.108-0.392l0.078-0.188l-0.107-0.176l-0.025-0.078v-0.138l0.108-0.214l-0.108-0.337v-0.109l-0.066-0.133l-0.055-0.151
			l-0.029-0.188l-0.104-0.107l-0.029-0.214l-0.108-0.176l-0.285-0.216l-0.266-0.134l-0.188-0.096l-0.259-0.188l-0.214-0.217
			l-0.028-0.135l-0.078-0.173l-0.098-0.328l0.029-0.12v-0.107l0.472-0.526l0.176-0.134L99.519,230.992z"/>
		<path d="M118.84,234.417h0.146l0.296,0.025l0.634,0.309l0.135,0.216l0.26,0.081l0.875,0.662l0.229,0.104l0.405,0.23l0.121,0.052
			l0.159,0.055l0.161,0.055l0.393,0.164l0.339,0.09l0.43,0.301l0.055,0.31l-0.031,0.163l-0.078,0.157l-0.078,0.108l-0.086,0.393
			l0.031,0.163v0.176l-0.109,0.375l-0.055,0.363l0.078,0.415l-0.078,0.297v0.138l0.026,0.176l-0.026,0.133v0.363l-0.055,0.138v0.242
			l0.026,0.176l-0.026,0.32v0.218l0.055,0.121l0.026,0.216l-0.026,0.159l-0.055,0.259l0.081,0.297v0.228l-0.026,0.135l-0.078,0.525
			l-0.071,0.108l0.121,0.079l-0.05,0.108l0.104,0.701l0.052,0.375l-0.052,0.083l0.028,0.176l-0.028,0.133l0.083,0.242l0.242,0.085
			l0.228,0.309v0.106l-0.119,0.202l-0.108,0.161l-0.109,0.055l-0.363,0.078l-0.108,0.055l-0.134,0.085h-0.189l-0.202,0.024
			l-0.188,0.078l-0.218,0.071l-0.524,0.242l-0.285,0.08l-0.496,0.188l-0.107,0.066l-0.604,0.271l-0.219,0.188l-0.106,0.175
			l0.028,0.217l0.133,0.254l0.055,0.327l-0.109,0.211l-0.47,0.313l-0.339-0.028l-0.133-0.055l-0.107-0.025l-0.08-0.08l-0.367-0.229
			l-0.296-0.053l-0.052-0.109l-0.228-0.03l-0.109-0.053l-0.107-0.08l-0.206-0.079l-0.103-0.121l-0.448-0.242l-0.349-0.312
			l-0.715-0.32l-0.204-0.084l-0.158-0.08l-0.138-0.066h-0.103l-0.339-0.162l-0.188-0.055l-0.176-0.241l0.08-0.285l0.337-0.388
			l0.055-0.163l0.104-0.241l0.083-0.313l0.043-0.32l0.023-0.084l0.079-0.617l0.03-0.634l0.133-0.108l-0.163-0.164v-0.387v-0.352
			v-0.118l-0.024-0.164l0.055-0.242l-0.03-0.149l-0.024-0.375l0.109-0.363v-0.163l-0.109-0.188l0.024-0.176l0.085-0.271
			l-0.109-0.109l-0.03-0.254v-0.109v-0.254l0.055-0.138l-0.055-0.159l-0.024-0.192l0.024-0.415l-0.024-0.214l-0.023-0.471
			l-0.151-0.367l-0.162-0.109l-0.164-0.188l-0.049-0.229l0.023-0.078l0.08-0.134l0.055-0.108l0.325-0.15l0.283-0.08l0.242-0.028
			l0.362-0.079l0.164-0.025l0.363-0.109l0.362-0.138l0.607-0.176l0.243-0.211l0.334-0.188l0.247-0.23l0.133-0.242l0.055-0.173
			l-0.03-0.298l0.03-0.108l0.119-0.204l0.218-0.163L118.84,234.417z M118.23,237.258l-0.212,0.078v0.163l0.024,0.121l0.108,0.217
			v0.526l0.025,0.496v0.352l0.029,0.118v0.086v0.133v0.271v0.147v0.138l-0.029,0.211l0.054,0.176v0.435l0.03,0.175l0.024,0.212
			l-0.055,0.242l-0.054,0.284l0.191,0.418v0.106l-0.138,0.352l0.03,0.204l-0.03,0.214l-0.079,0.228l0.055,0.109l-0.055,0.271
			l-0.054,0.527l-0.055,0.332l-0.109,0.246l-0.145,0.31l-0.055,0.133l0.121,0.135l0.405,0.161l0.174,0.031h0.109l0.351,0.09h0.254
			l0.133,0.031l0.556,0.105h0.164l0.277-0.027l0.055-0.199v-0.109l-0.309-0.351l-0.164-0.283l-0.078-0.526l0.026-0.188l0.052-0.688
			l0.031-0.283v-0.163l-0.031-0.078l0.031-0.254l-0.055-0.141l0.023-0.47l0.189-0.188l0.029-0.109l-0.164-0.309l0.031-0.241
			l0.133-0.309l-0.188-0.217v-0.135l-0.055-0.337v-0.525l-0.055-0.218l0.055-0.254v-0.297l0.055-0.188l-0.031-0.259l0.055-0.212
			l0.109-0.229v-0.218l-0.403,0.109l-0.176-0.055l-0.188-0.055l-0.219-0.133l-0.199-0.15l-0.163-0.163l-0.361-0.103L118.23,237.258z
			"/>
		<path d="M129.995,229.499l0.106,0.066l0.327-0.041l0.2,0.041l0.242,0.109l0.228,0.211l0.026,0.219l0.028,0.145v0.138l-0.107,0.242
			l-0.394,0.229l-0.133,0.024l-0.199,0.055l-0.297,0.14l-0.138,0.133l-0.121,0.145l-0.211,0.501l-0.055,0.109v0.108l-0.031,0.188
			l-0.023,0.47v0.309l-0.085,1.818l-0.066,0.797l-0.024,0.133l-0.055,0.202l0.121,0.216l-0.042,0.218l0.151,0.121v0.188l0.023,0.217
			l-0.054,0.199v0.297l-0.079,0.175l-0.095,0.326v0.162l0.053,0.146v0.109l-0.053,0.188l0.149,0.446v0.363l0.024,0.27v0.63
			l-0.079,0.085l-0.066,0.146v0.271l0.024,0.309l-0.024,0.218l-0.108,0.267l0.199,0.03l0.055,0.176v0.188v0.361l0.054,0.189
			l-0.023,0.138v0.55l0.023,0.259l-0.054,0.212l-0.079,0.242l0.055,0.204l0.078,0.297v0.229l0.055,0.162l0.031,0.135l0.023,0.254
			l0.078,0.216l0.055,0.188l0.176,0.098l0.61,0.16l0.266,0.243l0.028,0.108v0.278l-0.192,0.297l-0.387,0.339l-0.188,0.134
			l-0.083,0.204l-0.309,0.055l-0.133,0.108l-0.339,0.388l-0.081,0.191l0.161,0.363l0.149,0.133l0.055,0.271l-0.151,0.362
			l-0.214,0.218l-0.19,0.024l-0.254-0.055l-0.108-0.078h-0.134l-0.083-0.055l-0.256-0.138l-0.188-0.227l-0.216-0.137l-0.285-0.161
			l-0.107-0.135l-0.104-0.146l-0.084-0.028l-0.308-0.214l-0.395-0.163l-0.294-0.149l-0.23-0.079l-0.213-0.108l-0.295-0.164
			l-0.097-0.078l-0.055-0.15l-0.055-0.268l0.135-0.282l0.149-0.133l0.109-0.055l0.266-0.138l0.204-0.39v-0.579l0.081-0.163
			l-0.081-0.133l-0.028-0.176l-0.025-0.134l0.08-0.137l0.055-0.441v-0.193l-0.055-0.334l0.138-0.083v-0.188l0.023-0.199l0.031-0.298
			l0.051-0.163l-0.051-0.149l-0.109-0.055v-0.32l-0.138-0.417l0.028-0.338l0.081-0.242l0.053-0.446l-0.024-0.163l0.055-0.605
			l0.023-0.309v-0.134l-0.078-0.246l0.055-0.145l-0.055-0.109l-0.055-0.712l0.026-0.472v-0.326v-0.199l0.028-0.218l0.109-0.254
			l0.156-0.164l-0.156-0.216l-0.138-0.387l-0.026-0.219l0.026-0.121l-0.026-0.106l0.055-0.136l-0.028-0.392l-0.026-0.458
			l-0.028-0.309l-0.055-1.766l-0.078-0.392l-0.043-0.266l-0.025-0.285l-0.38-0.435l-0.174-0.12l-0.159-0.242l-0.055-0.283
			l0.134-0.242l0.229-0.163l0.43-0.024l0.446,0.055l0.23,0.055l0.294,0.078h0.109l0.496,0.313l0.259,0.188l0.159,0.164l0.296,0.307
			l0.15,0.135l0.163-0.055l0.055-0.133l-0.109-0.176l0.267-0.688l0.151-0.163l0.35-0.496l0.394-0.162l0.24-0.121L129.995,229.499z"
			/>
		<path d="M136.762,229.499l0.102,0.066l0.328-0.041l0.199,0.041l0.247,0.109l0.223,0.211l0.031,0.219l0.023,0.145v0.138
			l-0.104,0.242l-0.393,0.229l-0.133,0.024l-0.204,0.055l-0.297,0.14l-0.133,0.133l-0.121,0.145l-0.216,0.501l-0.055,0.109v0.108
			l-0.026,0.188l-0.028,0.47v0.309l-0.08,1.818l-0.066,0.797l-0.029,0.133l-0.055,0.202l0.121,0.216l-0.037,0.218l0.146,0.121v0.188
			l0.028,0.217l-0.054,0.199v0.297l-0.084,0.175l-0.09,0.326v0.162l0.053,0.146v0.109l-0.053,0.188l0.145,0.446v0.363l0.029,0.27
			v0.63l-0.084,0.085l-0.066,0.146v0.271l0.029,0.309l-0.029,0.218l-0.109,0.267l0.205,0.03l0.055,0.176v0.188v0.361l0.054,0.189
			l-0.028,0.138v0.55l0.028,0.259l-0.054,0.212l-0.084,0.242l0.055,0.204l0.083,0.297v0.229l0.054,0.162l0.027,0.135l0.023,0.254
			l0.083,0.216l0.055,0.188l0.176,0.098l0.605,0.16l0.271,0.243l0.023,0.108v0.278l-0.188,0.297l-0.392,0.339l-0.188,0.134
			l-0.078,0.204l-0.313,0.055l-0.133,0.108l-0.34,0.388l-0.078,0.191l0.164,0.363l0.145,0.133l0.055,0.271l-0.146,0.362
			l-0.217,0.218l-0.188,0.024l-0.259-0.055l-0.106-0.078h-0.136l-0.078-0.055l-0.261-0.138l-0.188-0.227l-0.211-0.137l-0.285-0.161
			l-0.107-0.135l-0.108-0.146l-0.078-0.028l-0.313-0.214l-0.39-0.163l-0.294-0.149l-0.23-0.079l-0.218-0.108l-0.295-0.164
			L132,247.444l-0.053-0.15l-0.051-0.268l0.135-0.282l0.145-0.133l0.109-0.055l0.271-0.138l0.199-0.39v-0.579l0.086-0.163
			l-0.086-0.133l-0.023-0.176l-0.03-0.134l0.085-0.137l0.055-0.441v-0.193l-0.055-0.334l0.133-0.083v-0.188l0.027-0.199l0.027-0.298
			l0.055-0.163l-0.055-0.149l-0.109-0.055v-0.32l-0.133-0.417l0.023-0.338l0.086-0.242l0.053-0.446l-0.029-0.163l0.055-0.605
			l0.027-0.309v-0.134l-0.082-0.246l0.055-0.145l-0.055-0.109l-0.055-0.712l0.031-0.472v-0.326v-0.199l0.023-0.218l0.109-0.254
			l0.161-0.164l-0.161-0.216l-0.133-0.387l-0.031-0.219l0.031-0.121l-0.031-0.106l0.055-0.136l-0.023-0.392l-0.031-0.458
			l-0.023-0.309l-0.055-1.766l-0.083-0.392l-0.038-0.266l-0.03-0.285l-0.375-0.435l-0.174-0.12l-0.164-0.242l-0.054-0.283
			l0.134-0.242l0.229-0.163l0.435-0.024l0.441,0.055l0.23,0.055l0.294,0.078h0.109l0.501,0.313l0.254,0.188l0.164,0.164l0.296,0.307
			l0.146,0.135l0.163-0.055l0.055-0.133l-0.109-0.176l0.271-0.688l0.146-0.163l0.349-0.496l0.395-0.162l0.239-0.121L136.762,229.499
			z"/>
		<path d="M144.29,234.388h0.394l0.242,0.162l0.053,0.176l0.363,0.581l0.272,0.458l0.121,0.309l0.188,0.297l0.106,0.254l0.055,0.161
			l-0.028,0.109l0.028,0.23l0.055,0.133l0.055,0.218l0.199,0.254l0.323,0.271l0.106,0.2l0.069,0.272l0.08,0.282l0.135,0.214
			l0.137,0.415l0.364,0.297l0.079,0.285l-0.055,0.241l-0.23,0.247l-0.107,0.199l-0.659,0.393l-0.441,0.266l-0.325,0.14l-0.133,0.103
			l-0.176,0.175l-0.138,0.055l-0.335,0.084l-0.216,0.158l-0.164,0.055l-0.472,0.282h-0.107l-0.201,0.164l-0.109,0.023l-0.375,0.368
			l-0.149,0.242l-0.023,0.109v0.121l-0.031,0.156l-0.211,0.219l-0.394-0.026l0.025,0.309l-0.025,0.219l-0.107,0.158l-0.08,0.259
			l-0.138,0.161l-0.067,0.159l0.043,0.259l0.107,0.188l0.135,0.024l0.133,0.055h0.162h0.339l0.254,0.12l0.38,0.031l0.309,0.023
			l0.163,0.031h0.108l0.362,0.053l0.377,0.025l0.361-0.055l0.163-0.109l0.055-0.12l0.066-0.134l-0.023-0.108v-0.107l-0.098-0.146
			l-0.109-0.188l-0.106-0.35l0.083-0.338l0.078-0.136l0.109-0.177l0.283-0.134l0.163-0.024h0.176l0.266,0.107l0.164,0.051
			l0.199,0.229l0.109,0.246l0.054,0.714l-0.054,0.121l-0.055,0.32l-0.055,0.339l-0.078,0.216l-0.149,0.109l-0.104,0.176
			l-0.031,0.156l-0.242,0.273l-0.199,0.199l-1.189,0.959l-0.104,0.176l-0.055,0.351l0.08,0.146l0.023,0.242l-0.049,0.218
			l-0.162,0.229l-0.151,0.025l-0.43,0.083l-0.204-0.055l-0.352-0.054l-0.176-0.053l-0.241-0.109l-0.157-0.094l-0.176-0.027
			l-0.163-0.025l-0.217-0.162l-0.254-0.055l-0.46-0.284l-0.149-0.053l-0.242-0.135l-0.279-0.162l-0.246-0.108l-0.389-0.255
			l-0.38-0.133l-0.336-0.163l-0.16-0.029h-0.415l-0.164-0.092l-0.204-0.188l-0.08-0.192l0.025-0.078l0.055-0.2l0.121-0.194
			l0.325-0.308l0.162-0.24l0.025-0.242l0.066-0.206l0.055-0.375v-0.174l-0.025-0.297v-0.176l-0.096-0.083l-0.025-0.242l0.146-0.08
			l-0.078-0.174l0.053-0.272l-0.029-0.157l-0.121-0.312l0.121-0.134l0.029-0.108v-0.109l-0.029-0.441l0.029-0.109v-0.888
			l-0.029-0.188v-0.258l-0.023-0.375l0.023-0.261l-0.023-0.294l0.023-0.202l0.029-0.134l-0.053-0.106l-0.068-0.5l-0.029-0.309
			l0.029-0.219l-0.107-0.32l-0.082-0.121l-0.298-0.218l-0.093-0.107l-0.028-0.133l0.028-0.261l0.176-0.242l0.375-0.145l0.579-0.084
			l0.309-0.08l0.109-0.053l0.164-0.025l1.158-0.337l0.176-0.086h0.133l0.083-0.078l0.104-0.133l0.206,0.055l0.266-0.138l0.192-0.147
			l0.418-0.242l0.107-0.052l0.526-0.501l0.078-0.189l0.026-0.199l0.175-0.192L144.29,234.388z M142.472,237.094l-0.08,0.219v0.216
			l0.055,0.146l0.055,0.217l0.049,0.362l0.031,0.134l0.053,0.108l0.025,0.579l0.029,0.109l0.054,0.176l0.055,0.27l-0.083,0.188
			l0.083,0.254v0.164l-0.055,0.163l-0.083,0.278l0.029,0.108l0.025,0.109l-0.025,0.229l0.025,0.135v0.192l0.028,0.133l-0.054,0.254
			l0.08,0.138l0.361-0.477l0.394-0.133l0.055-0.133l0.106-0.055l0.109-0.079l0.159-0.054l0.229-0.393l0.053-0.108l-0.053-0.146
			l-0.135-0.245l-0.053-0.135l-0.042-0.175l-0.188-0.406l-0.395-0.997l-0.102-0.078l-0.273-0.526l-0.054-0.188l-0.338-0.579
			L142.472,237.094z"/>
		<path d="M150.031,234.575h0.392l0.157,0.029l0.097,0.025l0.216,0.029l0.135,0.025l0.309,0.066l0.247,0.083l0.254,0.079
			l0.242,0.163l0.471,0.387l0.078,0.164l0.368,0.556l0.106,0.188l0.135,0.121h0.217l0.256-0.067l0.266-0.272l0.259-0.266l0.08-0.368
			l-0.025-0.133v-0.145l0.055-0.164l0.188-0.297l0.199-0.12h0.192l0.104-0.029l0.313,0.055l0.108,0.041l0.104,0.108l0.244,0.188
			l0.202,0.079l0.242,0.259l0.133,0.054l0.446,0.188l0.109,0.026l0.199,0.055h0.138l0.266,0.228l0.152,0.242l0.055,0.188v0.121
			l-0.031,0.109l-0.228,0.351l-0.16,0.229l-0.163,0.14l-0.106,0.211l-0.418,0.309l-0.083,0.164l-0.309,0.501v0.107l-0.025,0.175
			l0.025,0.133l-0.025,0.219l-0.029,0.309l-0.268,0.349l-0.122,0.081l-0.161,0.066l-0.188-0.038l-0.259-0.028l-0.218-0.215
			l-0.188-0.367l-0.078-0.429v0.108l-0.066-0.312l-0.164-0.347l-0.055-0.108L154.261,238l-0.285-0.163h-0.188l-0.188,0.025
			L153.425,238l-0.055,0.176l-0.023,0.133l-0.028,0.188l0.028,0.688v0.078l0.023,0.207l0.031,0.16l0.023,0.39l0.029,0.24
			l0.176,0.261l-0.053,0.188l-0.098,0.188l-0.025,0.204l-0.053,0.134v0.187v0.134l0.023,0.151l0.121,0.133v0.876l-0.04,0.121
			l-0.052,0.403l0.146,0.473l-0.055,0.188l-0.066,0.149l-0.109,0.297l-0.078,0.229l-0.138,0.024l-0.104,0.109l-0.028,0.188
			l-0.095,0.138l-0.081,0.284l0.204,0.078h0.134l0.187,0.055l0.136,0.024l0.124,0.03l0.346,0.024l0.176,0.03l0.216,0.055
			l0.394,0.035l0.297,0.086l0.337,0.105l0.188,0.474l-0.054,0.297l-0.242,0.332l-0.418,0.247l-0.783,0.279l-0.188,0.084
			l-0.164,0.054l-0.133,0.133l-0.055,0.2v0.138l0.109,0.268l0.023,0.283v0.218l-0.023,0.16l-0.23,0.176l-0.403,0.188l-0.254-0.028
			l-0.501-0.214l-0.135-0.095l-0.162-0.133l-0.175-0.085l-0.164-0.212l-0.133-0.055l-0.188-0.149l-0.229-0.164l-0.135-0.05h-0.313
			l-0.294-0.337l-0.28-0.085l-0.216-0.103h-0.188l-0.261-0.14l-0.32-0.174l-0.15-0.158l-0.025-0.217l0.066-0.163l0.188-0.285
			l0.296-0.106l0.152-0.104l0.133-0.176l0.133-0.216v-0.394l0.029-0.134l0.025-0.108l-0.055-0.525l0.083-0.163l0.055-0.146
			l0.026-0.659l-0.055-0.295v-0.229l-0.109-0.219l-0.023-0.133l0.053-0.392l0.108-0.271l-0.055-0.389l0.081-0.217l0.066-0.199
			l-0.066-0.247l-0.109-0.443l0.23-0.133l-0.147-0.259l-0.028-0.109l0.028-0.078l-0.028-0.309l-0.026-0.138l0.026-0.473
			l-0.026-0.188v-0.27l-0.054-0.2l-0.139-0.133l-0.102-0.085l-0.152-0.079l-0.108-0.055l-0.471-0.054l-0.109-0.067l-0.104-0.108
			l-0.083-0.24v-0.109l0.028-0.176l0.104-0.211l0.083-0.14l0.201-0.229l0.162-0.159l0.08-0.108l0.107-0.107l0.151-0.151l0.109-0.242
			l0.133-0.363l-0.109-0.294l-0.023-0.109l-0.086-0.176v-0.216l0.219-0.389L150.031,234.575z"/>
		<path d="M162.803,234.417h0.151l0.295,0.025l0.633,0.309l0.136,0.216l0.254,0.081l0.876,0.662l0.229,0.104l0.404,0.23l0.121,0.052
			l0.163,0.055l0.157,0.055l0.394,0.164l0.337,0.09l0.43,0.301l0.055,0.31l-0.025,0.163l-0.084,0.157l-0.078,0.108l-0.078,0.393
			l0.023,0.163v0.176l-0.108,0.375l-0.055,0.363l0.085,0.415l-0.085,0.297v0.138l0.03,0.176l-0.03,0.133v0.363l-0.053,0.138v0.242
			l0.028,0.176l-0.028,0.32v0.218l0.053,0.121l0.03,0.216l-0.03,0.159l-0.053,0.259l0.083,0.297v0.228l-0.03,0.135l-0.079,0.525
			l-0.066,0.108l0.121,0.079l-0.055,0.108l0.109,0.701l0.055,0.375l-0.055,0.083l0.024,0.176l-0.024,0.133l0.078,0.242l0.242,0.085
			l0.23,0.309v0.106l-0.121,0.202l-0.109,0.161l-0.109,0.055l-0.362,0.078l-0.107,0.055l-0.133,0.085h-0.189l-0.204,0.024
			l-0.188,0.078l-0.214,0.071l-0.525,0.242l-0.281,0.08l-0.501,0.188l-0.109,0.066l-0.605,0.271l-0.216,0.188l-0.107,0.175
			l0.027,0.217l0.135,0.254l0.053,0.327l-0.107,0.211l-0.473,0.313l-0.332-0.028l-0.138-0.055l-0.109-0.025l-0.08-0.08l-0.361-0.229
			l-0.296-0.053l-0.055-0.109l-0.23-0.03l-0.107-0.053l-0.108-0.08l-0.199-0.079l-0.109-0.121l-0.446-0.242l-0.352-0.312
			l-0.712-0.32l-0.201-0.084l-0.162-0.08l-0.133-0.066h-0.109l-0.339-0.162l-0.188-0.055l-0.176-0.241l0.081-0.285l0.337-0.388
			l0.055-0.163l0.108-0.241l0.079-0.313l0.042-0.32l0.024-0.084l0.085-0.617l0.023-0.634l0.134-0.108l-0.157-0.164v-0.387v-0.352
			v-0.118l-0.03-0.164l0.054-0.242l-0.023-0.149l-0.03-0.375l0.108-0.363v-0.163l-0.108-0.188l0.03-0.176l0.078-0.271l-0.108-0.109
			l-0.024-0.254v-0.109v-0.254l0.055-0.138l-0.055-0.159l-0.03-0.192l0.03-0.415l-0.03-0.214l-0.024-0.471l-0.151-0.367
			l-0.157-0.109l-0.163-0.188l-0.055-0.229l0.025-0.078l0.084-0.134l0.055-0.108l0.32-0.15l0.284-0.08l0.242-0.028l0.361-0.079
			l0.163-0.025l0.363-0.109l0.367-0.138l0.605-0.176l0.24-0.211l0.34-0.188l0.241-0.23l0.134-0.242l0.054-0.173l-0.025-0.298
			l0.025-0.108l0.121-0.204l0.217-0.163L162.803,234.417z M162.197,237.258l-0.216,0.078v0.163l0.025,0.121l0.107,0.217v0.526
			l0.03,0.496v0.352l0.024,0.118v0.086v0.133v0.271v0.147v0.138l-0.024,0.211l0.053,0.176v0.435l0.026,0.175l0.028,0.212
			l-0.055,0.242l-0.053,0.284l0.188,0.418v0.106l-0.135,0.352l0.026,0.204l-0.026,0.214l-0.083,0.228l0.055,0.109l-0.055,0.271
			l-0.055,0.527l-0.053,0.332l-0.104,0.246l-0.151,0.31l-0.055,0.133l0.121,0.135l0.406,0.161l0.175,0.031h0.107l0.352,0.09h0.254
			l0.138,0.031l0.55,0.105h0.164l0.282-0.027l0.055-0.199v-0.109l-0.313-0.351l-0.156-0.283l-0.085-0.526l0.03-0.188l0.055-0.688
			l0.023-0.283v-0.163l-0.023-0.078l0.023-0.254l-0.055-0.141l0.031-0.47l0.188-0.188l0.023-0.109l-0.159-0.309l0.026-0.241
			l0.133-0.309l-0.188-0.217v-0.135l-0.055-0.337v-0.525l-0.054-0.218l0.054-0.254v-0.297l0.055-0.188l-0.023-0.259l0.052-0.212
			l0.104-0.229v-0.218l-0.403,0.109l-0.176-0.055l-0.188-0.055l-0.211-0.133l-0.206-0.15l-0.162-0.163l-0.363-0.103L162.197,237.258
			z"/>
	</g>
</g>
<g id="Capa_15">
	<g>
		<path d="M83.363,171.3l4.151,13.758l16.015,0.89c0,0,8.309,19.123,31.461,9.368c34.664-1.606,36.062-31.494,36.062-31.494
			L83.363,171.3z"/>
		<path d="M145.65,15.201c-4.922-8.992-11.047-10.535-13.45-10.778c-0.219-0.026-0.444-0.036-0.673-0.036
			c-1.938,0-3.557,0.838-4.249,1.264c-0.325-0.059-1.063-0.372-1.615-0.604c-1.779-0.766-4.219-1.815-7.722-1.815
			c-2.715,0-5.572,0.618-8.74,1.904c-4.664,1.89-9.394,6.274-12.848,9.474c-0.887,0.815-1.903,1.762-2.689,2.426
			c-2.607-2.512-6.457-6.021-11.781-6.021c-1.398,0-2.81,0.252-4.205,0.745c-2.526,0.894-6.697,4.346-9.886,9.824
			c-2.809,4.817-5.86,12.97-4.475,24.453l0.009,0.076l0.01,0.073c2.523,14.702,19.036,22.901,19.741,23.245l1.735,0.845l1.464-1.261
			c0.17-0.142,4.089-3.544,6.858-9.07c0.942-1.892,1.874-3.95,2.859-6.126c5.048-11.179,11.331-25.097,27.184-32.582l0.026-0.014
			l0.026-0.018c3.486-1.742,7.56-2.661,11.767-2.661c2.459,0,4.934,0.312,7.354,0.922l6.534,1.652L145.65,15.201z"/>
		<g>
			<g>
				<g>
					<g>
						<path fill-rule="evenodd" clip-rule="evenodd" d="M57.755,150.021c2.247,4.831,6.015,7.845,8.425,6.724
							c2.407-1.117,2.544-5.938,0.295-10.772c-2.247-4.837-6.013-7.846-8.418-6.73C55.647,140.362,55.51,145.182,57.755,150.021z"/>
						<path d="M47.761,153.661c-3.517-9.344,5.512-13.31,5.512-13.31l4.784-1.11l9.077,16.451
							C67.134,155.692,52.14,164.446,47.761,153.661z"/>
						<path fill-rule="evenodd" clip-rule="evenodd" fill="#D1AB6F" d="M58.611,142.072c6.424,1.961,6.642,11.399,6.642,11.399
							s-10.43,6.397-14.026-0.481C47.63,146.121,54.622,142.026,58.611,142.072z"/>
						<path fill="#31738B" d="M64.035,147.672c0.388,5.619-2.894,7.038-5.663,8.351c3.546-0.554,6.881-2.551,6.881-2.551
							S65.067,149.68,64.035,147.672z"/>
					</g>
					<path fill-rule="evenodd" clip-rule="evenodd" fill="#D7DADD" d="M58.611,142.072c0,0-5.267-0.143-7.651,4.882
						c-0.73,2.438,11.834-1.681,10.842-2.898C60.685,142.734,58.611,142.072,58.611,142.072z"/>
				</g>
				<path fill="#FBC52F" d="M98.769,176.191c-43.237-13.131-67.724-58.988-54.587-102.221
					c13.135-43.233,58.992-67.717,102.223-54.587c43.234,13.139,67.722,58.993,54.589,102.225
					C187.857,164.837,141.998,189.323,98.769,176.191z"/>
				<path d="M146.954,20.607c42.347,12.858,66.248,57.621,53.383,99.966c-12.863,42.35-57.627,66.254-99.978,53.385
					c-42.346-12.865-66.25-57.619-53.381-99.974C59.843,31.638,104.603,7.735,146.954,20.607 M148.006,17.148
					C103.818,3.727,56.949,28.755,43.524,72.935c-5.787,19.05-16.151,82.618,55.788,104.477
					c44.188,13.421,91.052-11.604,104.478-55.788C217.212,77.44,192.184,30.575,148.006,17.148L148.006,17.148z"/>
				<path fill="#FCFCFC" d="M62.103,102.962c-8.657,9.813-8.555,23.171-6.938,27.476c-25.799-41.538-2.048-96.784,46.969-110.215
					C85.375,26.904,50.285,56.894,62.103,102.962z"/>
				<path d="M146.954,20.607c-1.476-0.389-2.911-0.84-4.37-1.194c39.551,12.234,61.757,54.383,49.611,94.34
					c-3.772,13.775-13.771,30.091-30.711,39.662c-6.27,21.396-10.516,7.09-16.86,10.028c-14.523,5.094-30.696,5.8-46.508,1.001
					c-38.848-11.804-61.082-52.404-50.766-91.623c-0.128,0.383-0.251,0.774-0.372,1.163c-12.869,42.354,11.035,87.108,53.381,99.974
					c42.351,12.869,87.114-11.035,99.978-53.385C216.205,68.334,182.065,29.812,146.954,20.607z"/>
			</g>
		</g>
		<path fill="#FFD664" d="M118.894,52.945c3.707,3.517-1.629,16.458,0,15.444c1.63-1.014,18.957-19.533,37.152-19.085
			c8.962,10.229,7.06,24.54,7.06,24.54s19.205-2.579,23.145,0.961c4.843,16.885-20.51,35.396-20.51,35.396
			s11.923-2.261,15.048,1.982c-0.394,2.286-8.613,12.56-8.613,12.56s10.656,0.742,13.744,6.268
			c1.918,5.134-5.131,17.098-5.131,17.098l-93.273,20.35c0,0-14.303-1.38-21.268-11.022c-0.912-5.566,3.571-8.892,3.571-8.892
			s-13.453-1.813-15.779-9.656c3.69-8.743,9.308-10.521,9.308-10.521s-12.158-4.451-14.313-9.403c-5.004-7.784,0-21.723,0-21.723
			s-4.108-7.695-1.207-11.055c3.287-4.731,8.817-4,8.817-4s-2.983-8.262,1.312-14.62c15.257,6.358,22.763,23.409,22.763,23.409
			C108.154,28.859,117.749,53.388,118.894,52.945z"/>
		<path d="M145.842,114.547c17.658-3.57,24.938,16.24,25.529,16.229c0.586-0.02,12.153,14.473,12.153,14.473l-4.704,8.868
			C178.82,154.116,132.666,122.041,145.842,114.547z"/>
		<path fill="#8D1516" d="M145.842,114.547c19.708-0.153,20.253,20.758,34.946,33.562c-1.036,2.99-16.05,15.713-16.05,15.713
			s-44.534,25.33-75.342,17.052c-1.952-9.31-7.163-22.585-7.163-22.585s24.817-15.193,43.475-28.171
			C135.556,123.271,137.393,115.039,145.842,114.547z"/>
		<path d="M163.5,136.541c0,0,8.585,13.336,11.111,15.984c2.533,2.65,0.287,6.378,0.134,6.506
			c-0.156,0.131-11.245,5.467-11.245,5.467V136.541z"/>
		<path fill="#D1AB6F" d="M136.442,118.094c22.047-6.417,27.208,18.585,27.208,19.254c0,0.673,7.605,17.112,8.42,16.769
			c0.812-0.342-3.122,5.951-7.332,9.705c-2.808,4.752-2.281,25.323-32.919,27.746c-14.657,8.146-26.63-9.548-26.63-9.548
			s-6.623-3.331-11.649-7.252c-1.27-3.665-10.019-16.427-10.019-16.427s-3.216-3.969,13.593-14.042
			C112.228,137.296,129.065,126.364,136.442,118.094z"/>
		<path fill="#31738B" d="M98.678,159.84c0,0,5.053,0.148,10.984,5.175c-0.737-1.107-3.481-4.637-8.777-7.089
			c-5.292-2.45-1.969,1.678-1.969,1.678"/>
		<path fill="#B0B4B7" d="M128.246,125.538c10.065-11.248,20.083-9.74,26.151-4.628c8.564,6.891,9.253,16.438,9.253,16.438
			S151.382,105.524,128.246,125.538z"/>
		<path d="M118.894,174.768c0,0,0.507,4.497,4.303,6.105c-2.874-3.79-1.831-7.285-1.831-7.285L118.894,174.768z"/>
		<path d="M109.904,170.566c2.846,6.934,9.441,5.958,9.441,5.958l2.02-2.937C121.365,173.588,110.852,171.338,109.904,170.566z"/>
		<path fill="#31738B" d="M141.504,142.319c4.967,32.957-16.016,30.408-16.016,30.408l-4.356,3.849l-0.951-4.437
			C120.181,172.14,140.979,167.044,141.504,142.319z"/>
		<path fill="#B89656" d="M124.611,170.975c1.74-0.792,3.463-0.208,5.987-1.126c7.456-2.884,10.154-11.094,10.299-17.175
			c0.085-3.619,0.606-6.899,0.606-6.899l-30.578,22.321c0,0-1.549,1.286-0.822,2.879c0.577,0.611,4.335,5.214,9.988,3.343
			C121.713,173.788,122.868,171.775,124.611,170.975z"/>
		<path fill="#3F0306" d="M137.393,132.135c4.894,5.615,4.473,11.954,3.505,15.573c-3.866,9.416-24.601,21.637-29.603,20.283
			c-3.146-7.813-12.401-10.505-12.615-11.05S132.873,135.939,137.393,132.135z"/>
		<path d="M118.994,161.626c-1.134-12.796,7.925-15.143,8.868-15.465c5.055-8.741,10.427-11.127,10.427-11.127
			s4.311,4.178,2.198,13.558C138.62,154.267,118.927,169.449,118.994,161.626z"/>
		<path fill="#8D1516" d="M126.217,154.527c2.323-10.21,10.143-17.765,11.744-17.708c3.538,6.642,1.193,11.144,1.193,11.144
			s-3.329,4.918-7.697,8.623c-4.734,4.028-10.556,6.837-11.073,5.906c-1.726-11.079,6.603-15.169,6.603-15.169
			S125.224,152.275,126.217,154.527z"/>
		<path fill="#C9A9A9" d="M126.986,147.323c0,0-1.709,4.188-0.77,7.204c0.745-4.472,3.889-9.451,4.497-9.915
			c3.947-2.75-4.738,8.646-2.112,13.511c0.52,3.37-8.406,2.67-8.406,2.67s-0.455-7.267,3.839-11.186
			C125.881,147.576,126.986,147.323,126.986,147.323z"/>
		<g>
			<path d="M82.233,98.777c-0.354,0-0.662-0.256-0.723-0.612c-0.01-0.067-0.274-1.67-0.459-4.463
				c-0.023-0.405,0.278-0.757,0.685-0.782c0.4-0.032,0.756,0.281,0.783,0.688c0.18,2.713,0.441,4.297,0.443,4.317
				c0.065,0.398-0.205,0.78-0.607,0.846C82.318,98.775,82.276,98.777,82.233,98.777z M81.619,89.983
				c-0.403,0-0.732-0.324-0.737-0.73c-0.002-0.339-0.005-0.679-0.005-1.036c0-1.124,0.019-2.269,0.064-3.414
				c0.015-0.399,0.362-0.716,0.762-0.705c0.408,0.02,0.72,0.354,0.708,0.763c-0.046,1.122-0.064,2.254-0.064,3.356
				c0,0.347,0.002,0.685,0.007,1.02c0.002,0.405-0.32,0.742-0.725,0.747C81.626,89.983,81.623,89.983,81.619,89.983z M81.947,81.165
				c-0.019,0-0.038,0-0.062-0.002c-0.399-0.034-0.705-0.39-0.667-0.795c0.128-1.471,0.291-2.961,0.488-4.422
				c0.055-0.4,0.424-0.679,0.828-0.632c0.397,0.059,0.686,0.43,0.629,0.829c-0.195,1.438-0.355,2.903-0.479,4.353
				C82.646,80.877,82.33,81.165,81.947,81.165z M83.132,72.426c-0.041,0-0.09-0.005-0.137-0.012
				c-0.396-0.072-0.66-0.461-0.586-0.859c0.271-1.452,0.578-2.917,0.921-4.35c0.098-0.398,0.491-0.64,0.887-0.547
				c0.395,0.099,0.639,0.491,0.548,0.889c-0.338,1.404-0.645,2.845-0.907,4.275C83.792,72.176,83.479,72.426,83.132,72.426z
				 M85.183,63.848c-0.069,0-0.139-0.009-0.206-0.033c-0.395-0.11-0.617-0.519-0.501-0.912c0.422-1.424,0.88-2.854,1.367-4.23
				c0.137-0.386,0.555-0.587,0.941-0.45c0.379,0.134,0.584,0.555,0.446,0.941c-0.479,1.354-0.931,2.752-1.345,4.154
				C85.79,63.64,85.497,63.848,85.183,63.848z M88.122,55.535c-0.092,0-0.193-0.022-0.283-0.058
				c-0.378-0.153-0.553-0.59-0.396-0.962c0.185-0.443,0.376-0.888,0.565-1.329c0.349-0.928,0.714-1.861,1.089-2.76
				c0.154-0.372,0.584-0.547,0.962-0.396c0.371,0.153,0.553,0.582,0.393,0.964c-0.362,0.884-0.726,1.802-1.07,2.728l-0.013,0.034
				c-0.196,0.448-0.388,0.885-0.566,1.321C88.681,55.362,88.408,55.535,88.122,55.535z M91.559,47.413
				c-0.104,0-0.212-0.021-0.312-0.069c-0.37-0.173-0.526-0.615-0.348-0.98c0.638-1.347,1.317-2.682,2.018-3.967
				c0.188-0.354,0.638-0.487,0.996-0.291c0.355,0.195,0.486,0.64,0.293,0.995c-0.688,1.257-1.35,2.567-1.979,3.892
				C92.099,47.262,91.834,47.413,91.559,47.413z M95.785,39.678c-0.135,0-0.27-0.032-0.394-0.106
				c-0.345-0.217-0.444-0.673-0.231-1.018c0.792-1.268,1.628-2.511,2.482-3.697c0.239-0.334,0.697-0.406,1.026-0.165
				c0.331,0.234,0.405,0.696,0.17,1.021c-0.836,1.161-1.654,2.383-2.432,3.622C96.268,39.562,96.024,39.678,95.785,39.678z
				 M100.942,32.536c-0.171,0-0.335-0.058-0.473-0.173c-0.314-0.257-0.355-0.723-0.091-1.032c0.954-1.155,1.962-2.271,2.975-3.323
				c0.283-0.291,0.752-0.298,1.042-0.017c0.291,0.283,0.301,0.744,0.019,1.04c-0.996,1.024-1.976,2.115-2.909,3.239
				C101.361,32.448,101.152,32.536,100.942,32.536z M107.079,26.209c-0.205,0-0.407-0.082-0.552-0.244
				c-0.271-0.311-0.244-0.771,0.065-1.04c1.129-0.995,2.304-1.937,3.485-2.808c0.325-0.237,0.787-0.165,1.025,0.161
				c0.245,0.323,0.173,0.784-0.157,1.025c-1.145,0.846-2.288,1.76-3.383,2.729C107.422,26.148,107.249,26.209,107.079,26.209z
				 M114.188,21.009c-0.249,0-0.491-0.129-0.631-0.362c-0.207-0.35-0.097-0.798,0.254-1.005c1.333-0.794,2.679-1.499,3.981-2.085
				c0.375-0.163,0.81-0.003,0.973,0.367c0.171,0.375,0.002,0.81-0.365,0.973c-1.258,0.565-2.544,1.241-3.837,2.008
				C114.445,20.974,114.319,21.009,114.188,21.009z"/>
		</g>
		<path d="M159.606,93.024c-9.188-14.527-20.205-21.896-32.739-21.896c-18.992,0-35.466,17.192-40.918,23.567
			c-0.388-0.03-0.843-0.066-1.372-0.066c-2.018,0-3.953,0.473-5.883,1.432c-3.034-0.358-6.025-2.709-8.919-4.991
			c-3.273-2.572-6.367-4.994-9.933-4.994c-0.394,0-0.791,0.028-1.18,0.089c-3.291,0.297-8.575,3.896-12.15,6.93
			c-3.213,2.736-8.677,8.088-9.147,13.271c-0.25,2.751,1.05,5.767,3.754,8.729c5.398,5.914,15.217,10.542,22.345,10.542
			c0.319,0,0.632-0.007,0.94-0.024l1.392-0.076l0.741-1.174c0.865-1.355,2.66-3.265,4.592-5.13l-3.187,15.325
			c-1.193,5.747,3.389,9.841,3.953,10.322c0.466,0.4,2.862,2.297,6.876,2.297c0.213,0,0.427-0.007,0.641-0.016
			c0.15-0.005,0.312-0.012,0.497-0.012c0.559,0,1.216,0.035,1.906,0.074c0.88,0.049,1.875,0.104,2.97,0.104
			c2.72,0,6.912-0.307,12.258-2.935c3.856-0.362,7.036-1.678,9.217-3.823c2.104-2.079,3.209-4.84,3.109-7.784
			c-0.096-2.646-1.141-5.154-2.944-7.065c-0.044-0.054-0.096-0.098-0.145-0.151c3.092,0.876,6.591,1.465,10.391,1.465
			c7.294,0,14.358-2.186,21-6.5c7.979-5.18,15.373-13.485,21.984-24.675l0.843-1.429L159.606,93.024z"/>
		<path fill="#FBC52F" d="M79.274,98.827c4.53-2.538,7.425-0.91,7.968-1.452c0.543-0.545,39.838-50.694,70.071-2.898
			c-29.514,49.973-63.188,22.09-63.188,22.09s2.354,4.704,2.89,8.868c10.8-2.264,15.031,15.208-0.719,16.297
			c-8.151,4.166-13.398,2.532-17.022,2.718c-3.621,0.175-5.614-1.634-5.614-1.634s-3.981-3.255-3.052-7.705
			c0.922-4.447,4.862-23.434,4.862-23.434s-8.686,7.243-11.22,11.225c-9.598,0.546-23.132-7.807-24.179-16.293
			c3.425-8.566,14.92-17.532,18.926-17.739C64.909,87.779,71.127,98.643,79.274,98.827z"/>
		<path fill="#FCFCFC" d="M114.786,76.218c-16.282,9.889-27.661,22.955-27.661,22.955s-3.033-2.211-7.851-0.346
			c4.256-2.425,7.968-1.452,7.968-1.452S103.562,78.31,114.786,76.218z"/>
		<path fill="#FCFCFC" d="M55.598,90.086c-9.765,9.796-14.325,20.182-14.325,20.182l-1.2-3.659
			C40.072,106.608,44.505,95.938,55.598,90.086z"/>
		<path fill="#D1AB6F" d="M93.059,105.266c1.633-1.602,4.227-4.137,7.2-7.387c6.057-6.609,13.908-15.493,21.494-16.983
			c9.123-1.442,10.866,1.326,16.549,5.615c5.779,4.36,11.615,8.506,12.155,9.056c1.062,1.082-10.165,19.691-29.616,22.089
			c-8.434,1.987-20.923-7.789-27.784-9.648C91.892,107.478,91.93,106.366,93.059,105.266z"/>
		<path fill="#31738B" d="M114.786,84.845c0,0-12.432,11.985-12.087,19.025c0.228,4.742,0.376,4.592,4.043,9.848
			c-2.633-0.562-12.199-5.223-12.199-5.223s-4.287-0.443-1.088-3.571c1.285-1.878,7.874-9.255,13.552-14.382
			C110.979,86.948,114.786,84.845,114.786,84.845z"/>
		<path fill="#D1AB6F" d="M74.934,101.358c0.328,0.797-1.568,2.704-2.901,5.25c-2.294,4.382-5.418,9.958-10.679,9.958
			c-8.336,0-17.205-5.977-17.563-10.139c-0.2-2.268,4.137-4.702,7.965-7.213c3.205-2.106,5.786-4.486,7.603-4.738
			C63.347,93.933,72.032,101.903,74.934,101.358z"/>
		<g>
			<path fill="#CE5234" d="M85.58,143.352l-0.009-0.441c0.603-0.012,1.175-0.055,1.741-0.115l0.049,0.437
				C86.782,143.293,86.197,143.335,85.58,143.352z M83.81,143.347c-0.621-0.017-1.203-0.054-1.768-0.081l0.021-0.439
				c0.565,0.029,1.144,0.06,1.759,0.081L83.81,143.347z M78.771,143.207c-0.091,0-0.172,0-0.251-0.002l0.009-0.439
				c0.212,0.008,0.44,0.006,0.664-0.005c0.339-0.021,0.711-0.024,1.103-0.02l-0.008,0.447c-0.381-0.009-0.744-0.007-1.074,0.012
				C79.065,143.205,78.917,143.207,78.771,143.207z M89.123,142.97l-0.084-0.438c0.564-0.107,1.133-0.242,1.698-0.4l0.119,0.426
				C90.283,142.718,89.698,142.855,89.123,142.97z M76.724,142.95c-0.766-0.201-1.336-0.484-1.683-0.686l0.227-0.382
				c0.318,0.189,0.854,0.456,1.57,0.64L76.724,142.95z M92.55,142.009l-0.148-0.412c0.535-0.197,1.083-0.416,1.62-0.653l0.181,0.401
				C93.649,141.59,93.095,141.812,92.55,142.009z M73.671,141.052c-0.409-0.472-0.762-0.966-1.05-1.468l0.382-0.219
				c0.273,0.483,0.612,0.954,0.996,1.398L73.671,141.052z M95.804,140.577l-0.2-0.391l0.229-0.119l0.344-0.022
				c0.424-0.031,0.836-0.069,1.229-0.127l0.065,0.437c-0.406,0.058-0.831,0.102-1.262,0.13l-0.257,0.017L95.804,140.577z
				 M99.223,140.007l-0.107-0.428c0.579-0.153,1.129-0.343,1.631-0.562l0.175,0.405C100.397,139.651,99.826,139.849,99.223,140.007z
				 M102.501,138.546l-0.252-0.359c0.331-0.229,0.642-0.488,0.918-0.756c0.119-0.124,0.239-0.25,0.355-0.381l0.329,0.286
				c-0.116,0.14-0.245,0.279-0.378,0.411C103.184,138.033,102.853,138.304,102.501,138.546z M71.911,137.908
				c-0.123-0.491-0.192-0.984-0.192-1.468c0-0.118,0.007-0.232,0.012-0.353l0.438,0.028c-0.007,0.111-0.009,0.216-0.009,0.324
				c0,0.441,0.062,0.9,0.185,1.349L71.911,137.908z M104.838,135.805l-0.403-0.187c0.232-0.512,0.391-1.061,0.476-1.624l0.435,0.062
				C105.262,134.658,105.087,135.25,104.838,135.805z M72.482,134.411l-0.438-0.086l0.357-1.729l0.437,0.088L72.482,134.411z
				 M104.908,132.298c-0.083-0.565-0.231-1.114-0.452-1.643l0.405-0.17c0.236,0.564,0.402,1.15,0.483,1.75L104.908,132.298z
				 M73.196,130.955l-0.434-0.089l0.36-1.729l0.432,0.097L73.196,130.955z M103.6,129.186c-0.121-0.148-0.246-0.295-0.38-0.435
				c-0.255-0.276-0.538-0.528-0.847-0.744l0.261-0.354c0.329,0.228,0.631,0.498,0.91,0.793c0.14,0.146,0.276,0.309,0.403,0.467
				L103.6,129.186z M73.912,127.503l-0.432-0.087l0.36-1.729l0.432,0.088L73.912,127.503z M95.581,127.464l-0.039-0.274l0.215-0.025
				l-0.034-0.183l1.691-0.354l0.081,0.434L95.581,127.464z M100.873,127.233c-0.528-0.18-1.088-0.278-1.669-0.302l0.017-0.445
				c0.625,0.031,1.229,0.137,1.792,0.329L100.873,127.233z M95.313,125.444c-0.077-0.53-0.191-1.11-0.341-1.708l0.431-0.107
				c0.148,0.617,0.266,1.208,0.345,1.75L95.313,125.444z M74.628,124.047l-0.43-0.089l0.358-1.728l0.436,0.09L74.628,124.047z
				 M116.759,123.069v-0.439c0.578,0,1.166-0.016,1.749-0.056l0.025,0.443C117.945,123.052,117.347,123.069,116.759,123.069z
				 M114.979,123.029c-0.584-0.034-1.183-0.085-1.768-0.14l0.043-0.445c0.584,0.062,1.169,0.111,1.747,0.14L114.979,123.029z
				 M120.301,122.865l-0.048-0.438c0.579-0.067,1.158-0.148,1.736-0.247l0.072,0.436
				C121.479,122.714,120.891,122.798,120.301,122.865z M111.448,122.646c-0.576-0.088-1.161-0.202-1.747-0.32l0.096-0.438
				c0.574,0.128,1.152,0.238,1.719,0.326L111.448,122.646z M123.805,122.271l-0.102-0.431c0.566-0.129,1.136-0.275,1.695-0.44
				l0.122,0.426C124.954,121.991,124.379,122.138,123.805,122.271z M94.495,122.054c-0.166-0.535-0.36-1.092-0.571-1.659l0.41-0.153
				c0.216,0.574,0.413,1.135,0.583,1.678L94.495,122.054z M107.979,121.912c-0.573-0.154-1.144-0.319-1.708-0.502l0.132-0.418
				c0.56,0.178,1.129,0.341,1.686,0.487L107.979,121.912z M63.347,121.674c-0.231,0-0.459-0.005-0.689-0.012l0.02-0.439
				c0.224,0.007,0.444,0.015,0.67,0.015c0.161-0.221,0.336-0.457,0.528-0.694l0.346,0.276c-0.214,0.267-0.413,0.521-0.584,0.767
				l-0.064,0.088H63.347z M60.88,121.5c-0.573-0.077-1.168-0.188-1.756-0.317l0.097-0.431c0.581,0.127,1.157,0.23,1.72,0.308
				L60.88,121.5z M127.212,121.298l-0.142-0.419c0.547-0.189,1.102-0.394,1.642-0.61l0.164,0.409
				C128.325,120.898,127.767,121.105,127.212,121.298z M104.593,120.836c-0.553-0.204-1.107-0.423-1.652-0.65l0.173-0.408
				c0.541,0.226,1.086,0.441,1.631,0.643L104.593,120.836z M57.399,120.736c-0.557-0.172-1.12-0.355-1.685-0.565l0.153-0.414
				c0.556,0.205,1.112,0.388,1.662,0.554L57.399,120.736z M75.352,120.595l-0.438-0.092l0.364-1.724l0.432,0.088L75.352,120.595z
				 M130.507,119.979l-0.186-0.404c0.529-0.239,1.055-0.496,1.579-0.771l0.203,0.394
				C131.574,119.473,131.034,119.73,130.507,119.979z M118.785,119.6l-0.015-0.438c0.596-0.014,1.172-0.069,1.725-0.166l0.074,0.433
				C119.996,119.531,119.396,119.587,118.785,119.6z M116.999,119.543c-0.567-0.057-1.166-0.14-1.768-0.256l0.081-0.432
				c0.591,0.107,1.173,0.196,1.728,0.244L116.999,119.543z M54.07,119.498c-0.536-0.234-1.079-0.491-1.609-0.763l0.202-0.395
				c0.522,0.267,1.052,0.524,1.583,0.754L54.07,119.498z M65.355,119.484l-0.323-0.293c0.365-0.405,0.771-0.847,1.21-1.302
				l0.317,0.308C66.121,118.648,65.724,119.081,65.355,119.484z M101.319,119.455c-0.531-0.25-1.063-0.518-1.588-0.795l0.207-0.389
				c0.52,0.271,1.043,0.538,1.574,0.79L101.319,119.455z M122.308,119.151l-0.069-0.433c0.573-0.101,1.158-0.205,1.727-0.322
				l0.09,0.429C123.478,118.948,122.887,119.06,122.308,119.151z M113.495,118.884c-0.545-0.145-1.117-0.316-1.705-0.512
				l0.139-0.417c0.582,0.191,1.144,0.359,1.677,0.503L113.495,118.884z M93.266,118.761c-0.345-0.808-0.605-1.339-0.655-1.436
				l-0.077-0.153l0.399-0.196l0.074,0.151c0.052,0.1,0.309,0.638,0.662,1.464L93.266,118.761z M125.783,118.421l-0.116-0.434
				c0.56-0.146,1.124-0.309,1.685-0.489l0.131,0.42C126.921,118.102,126.348,118.267,125.783,118.421z M133.657,118.345l-0.221-0.38
				c0.502-0.289,1.006-0.599,1.498-0.91l0.24,0.369C134.677,117.743,134.161,118.051,133.657,118.345z M61.997,118.235l-0.029-0.438
				c0.572-0.044,1.138-0.142,1.687-0.301l0.122,0.422C63.195,118.086,62.603,118.189,61.997,118.235z M60.21,118.226
				c-0.586-0.038-1.179-0.101-1.777-0.183l0.065-0.438c0.578,0.083,1.168,0.146,1.736,0.174L60.21,118.226z M50.902,117.883
				c-0.507-0.305-1.014-0.618-1.502-0.947l0.241-0.364c0.485,0.325,0.981,0.634,1.486,0.927L50.902,117.883z M98.184,117.797
				c-0.514-0.309-1.021-0.62-1.505-0.94l0.239-0.367c0.478,0.312,0.98,0.624,1.491,0.924L98.184,117.797z M110.12,117.77
				c-0.519-0.201-1.072-0.425-1.636-0.665l0.169-0.405c0.56,0.236,1.106,0.461,1.629,0.66L110.12,117.77z M56.683,117.725
				c-0.569-0.125-1.151-0.273-1.727-0.447l0.13-0.421c0.562,0.164,1.128,0.313,1.689,0.435L56.683,117.725z M129.164,117.345
				l-0.154-0.413c0.549-0.205,1.099-0.421,1.634-0.646l0.17,0.406C130.271,116.92,129.716,117.138,129.164,117.345z M65.453,117.258
				l-0.202-0.394c0.494-0.251,0.984-0.562,1.462-0.917l0.266,0.355C66.481,116.671,65.966,116.994,65.453,117.258z M76.067,117.138
				l-0.431-0.088l0.358-1.729l0.429,0.089L76.067,117.138z M67.796,116.942l-0.307-0.311c0.42-0.415,0.848-0.827,1.271-1.232
				l0.308,0.322C68.646,116.122,68.216,116.531,67.796,116.942z M53.271,116.715c-0.551-0.207-1.105-0.43-1.645-0.675l0.182-0.4
				c0.533,0.237,1.073,0.461,1.616,0.66L53.271,116.715z M136.649,116.442l-0.252-0.358c0.473-0.335,0.953-0.68,1.425-1.033
				l0.261,0.354C137.613,115.759,137.127,116.107,136.649,116.442z M106.865,116.384c-0.536-0.244-1.069-0.502-1.597-0.764
				l0.188-0.392c0.528,0.255,1.062,0.509,1.589,0.757L106.865,116.384z M132.43,115.961l-0.185-0.396
				c0.516-0.252,1.045-0.517,1.561-0.796l0.209,0.392C133.493,115.442,132.961,115.712,132.43,115.961z M47.951,115.911
				c-0.483-0.367-0.949-0.746-1.382-1.126l0.288-0.329c0.428,0.369,0.887,0.739,1.357,1.097L47.951,115.911z M95.218,115.831
				c-0.183-0.137-0.281-0.216-0.296-0.226l-1.08-0.898l0.281-0.336l1.075,0.892c0.018,0.009,0.11,0.092,0.283,0.218L95.218,115.831z
				 M91.748,115.591l-0.787-1.58l0.391-0.19l0.786,1.572L91.748,115.591z M50.025,115.258c-0.451-0.237-0.892-0.495-1.322-0.757
				l-0.22-0.13l0.236-0.377l0.214,0.133c0.421,0.259,0.856,0.503,1.298,0.742L50.025,115.258z M68.332,115.13l-0.305-0.313
				c0.389-0.388,0.787-0.819,1.168-1.288l0.342,0.279C69.146,114.29,68.737,114.737,68.332,115.13z M103.684,114.835
				c-0.534-0.269-1.057-0.538-1.579-0.799l0.205-0.395c0.521,0.267,1.041,0.535,1.57,0.798L103.684,114.835z M70.354,114.521
				l-0.296-0.326c0.449-0.418,0.896-0.819,1.308-1.188l0.297,0.328C71.248,113.704,70.809,114.103,70.354,114.521z M139.479,114.312
				l-0.281-0.34c0.452-0.371,0.902-0.75,1.348-1.135l0.291,0.331C140.386,113.558,139.935,113.941,139.479,114.312z M135.562,114.29
				l-0.224-0.377c0.499-0.295,1.001-0.607,1.49-0.922l0.244,0.367C136.575,113.683,136.065,113.994,135.562,114.29z M76.782,113.688
				l-0.431-0.094l0.36-1.726l0.431,0.088L76.782,113.688z M92.48,113.584l-1.356-1.123l0.277-0.342l1.357,1.123L92.48,113.584z
				 M45.269,113.566c-0.427-0.431-0.831-0.881-1.194-1.324l0.342-0.279c0.358,0.433,0.752,0.867,1.169,1.292L45.269,113.566z
				 M47.009,113.37c-0.491-0.36-0.955-0.734-1.39-1.116l0.299-0.335c0.419,0.378,0.874,0.742,1.354,1.096L47.009,113.37z
				 M100.542,113.22c-0.533-0.274-1.052-0.549-1.566-0.811l0.197-0.391c0.52,0.267,1.04,0.532,1.571,0.806L100.542,113.22z
				 M90.17,112.437l-1.136-2.277l1.006,0.836l-0.054,0.074l0.58,1.168L90.17,112.437z M70.615,112.389l-0.36-0.254
				c0.315-0.453,0.64-0.944,0.951-1.467l0.382,0.234C71.264,111.425,70.934,111.925,70.615,112.389z M138.542,112.366l-0.257-0.359
				c0.473-0.334,0.948-0.682,1.419-1.04l0.261,0.351C139.5,111.677,139.017,112.03,138.542,112.366z M72.986,112.165l-0.291-0.332
				c0.579-0.503,1.048-0.905,1.345-1.159l0.28,0.338C74.028,111.265,73.56,111.663,72.986,112.165z M142.153,111.979l-0.308-0.318
				c0.423-0.395,0.852-0.806,1.273-1.221l0.307,0.317C143.005,111.177,142.576,111.582,142.153,111.979z M97.4,111.617
				c-0.581-0.285-1.104-0.536-1.59-0.757l0.187-0.401c0.486,0.227,1.007,0.474,1.599,0.762L97.4,111.617z M44.349,110.997
				c-0.423-0.473-0.792-0.947-1.103-1.419l0.373-0.245c0.295,0.457,0.653,0.912,1.059,1.369L44.349,110.997z M43.019,110.801
				c-0.339-0.521-0.634-1.049-0.875-1.565l0.399-0.188c0.233,0.5,0.52,1.013,0.843,1.514L43.019,110.801z M77.506,110.229
				l-0.438-0.089l0.358-1.729l0.437,0.089L77.506,110.229z M141.353,110.211l-0.28-0.34c0.452-0.372,0.898-0.761,1.33-1.152
				c0.258-0.226,0.51-0.454,0.754-0.682l0.298,0.318c-0.242,0.234-0.499,0.467-0.757,0.694
				C142.262,109.443,141.811,109.83,141.353,110.211z M94.202,110.176c-0.594-0.232-1.116-0.404-1.59-0.532l-0.064-0.02l0.117-0.426
				l0.064,0.02c0.488,0.127,1.024,0.311,1.629,0.545L94.202,110.176z M75.675,109.881l-0.28-0.339l1.359-1.131l0.281,0.341
				L75.675,109.881z M144.667,109.492l-0.319-0.306c0.399-0.419,0.806-0.85,1.196-1.286l0.33,0.295
				C145.472,108.633,145.071,109.074,144.667,109.492z M72.482,109.367l-0.39-0.216c0.307-0.555,0.598-1.096,0.833-1.555l0.39,0.207
				C73.077,108.261,72.789,108.808,72.482,109.367z M91.038,108.5c-0.254-0.347-0.416-0.732-0.488-1.154
				c-0.029-0.162-0.043-0.323-0.043-0.483c0-0.052,0-0.112,0.005-0.166l0.436,0.026c0,0.047-0.002,0.092-0.002,0.14
				c0,0.138,0.019,0.276,0.039,0.409c0.061,0.354,0.2,0.677,0.41,0.973L91.038,108.5z M42.42,107.968
				c-0.17-0.476-0.28-0.945-0.316-1.394c-0.007-0.105-0.012-0.206-0.012-0.315l0.003-0.039c-0.102,0.195-0.195,0.399-0.279,0.602
				c0.036,0.199,0.081,0.406,0.135,0.61l-0.426,0.113c-0.062-0.238-0.114-0.476-0.159-0.712l-0.012-0.067l0.033-0.055
				c0.132-0.321,0.284-0.648,0.446-0.97l0.396,0.191c-0.04,0.08-0.075,0.154-0.112,0.229l0.414,0.009v0.088
				c0,0.093,0.002,0.187,0.012,0.274c0.039,0.413,0.133,0.841,0.293,1.277L42.42,107.968z M144.732,107.125l-0.317-0.312
				c0.416-0.418,0.824-0.846,1.218-1.271l0.322,0.298C145.563,106.267,145.15,106.703,144.732,107.125z M147.043,106.867
				l-0.336-0.286c0.385-0.443,0.761-0.895,1.131-1.352l0.343,0.28C147.807,105.967,147.422,106.424,147.043,106.867z
				 M74.174,106.278l-0.38-0.232c0.332-0.531,0.675-1.035,0.982-1.477c0.344-0.507,0.663-0.975,0.917-1.412l0.381,0.217
				c-0.263,0.45-0.581,0.928-0.925,1.428C74.837,105.259,74.497,105.759,74.174,106.278z M91.498,105.188l-0.367-0.245
				c0.202-0.304,0.453-0.602,0.745-0.885l0.46-0.459l0.312,0.319l-0.468,0.453C91.91,104.635,91.686,104.907,91.498,105.188z
				 M42.992,104.591l-0.392-0.212c0.036-0.062,0.072-0.127,0.113-0.191l-0.024-0.01c0.303-0.492,0.621-0.995,0.968-1.491l0.36,0.251
				c-0.038,0.061-0.081,0.121-0.12,0.183l0.115,0.116C43.569,103.701,43.232,104.148,42.992,104.591z M147.131,104.514l-0.336-0.286
				c0.387-0.446,0.759-0.905,1.11-1.355l0.35,0.266C147.896,103.6,147.521,104.062,147.131,104.514z M149.285,104.133l-0.351-0.274
				c0.36-0.462,0.714-0.928,1.068-1.397l0.353,0.259C150,103.198,149.644,103.669,149.285,104.133z M93.905,102.678l-0.313-0.316
				c0.39-0.381,0.807-0.801,1.246-1.25l0.317,0.317C94.708,101.87,94.291,102.287,93.905,102.678z M45.306,102.077l-0.274-0.347
				c0.413-0.334,0.883-0.683,1.421-1.062l0.257,0.36C46.169,101.409,45.713,101.744,45.306,102.077z M149.313,101.719l-0.356-0.258
				c0.352-0.492,0.682-0.982,0.979-1.452l0.378,0.237C150.006,100.728,149.677,101.222,149.313,101.719z M76.666,101.609
				l-0.445-0.007v-0.042c0-0.24-0.044-0.461-0.138-0.682l-0.355-0.858l0.409-0.173l0.353,0.862c0.118,0.269,0.177,0.558,0.177,0.851
				V101.609z M45.059,101.523l-0.35-0.271c0.355-0.451,0.735-0.916,1.124-1.371l0.333,0.285
				C45.785,100.618,45.407,101.077,45.059,101.523z M151.4,101.293l-0.357-0.257c0.339-0.469,0.678-0.95,1.015-1.438l0.36,0.247
				C152.08,100.337,151.742,100.818,151.4,101.293z M78.553,100.475c-0.589-0.042-1.182-0.145-1.775-0.289l0.105-0.426
				c0.569,0.139,1.144,0.228,1.705,0.281L78.553,100.475z M80.346,100.167l-0.204-0.392c0.55-0.293,1.105-0.529,1.65-0.716
				l0.14,0.421C81.415,99.65,80.88,99.884,80.346,100.167z M96.388,100.163l-0.314-0.309c0.392-0.403,0.796-0.833,1.215-1.272
				l0.324,0.303C97.191,99.332,96.783,99.757,96.388,100.163z M74.312,100.103c-0.406-0.079-0.962-0.298-1.693-0.673l0.196-0.391
				c0.688,0.349,1.224,0.56,1.58,0.632L74.312,100.103z M48.168,100.048l-0.243-0.365c0.461-0.308,0.938-0.61,1.421-0.917
				l0.063-0.046l0.236,0.371l-0.063,0.041C49.099,99.442,48.626,99.75,48.168,100.048z M75.07,99.65
				c-0.534-0.206-1.083-0.451-1.633-0.729l0.201-0.397c0.535,0.276,1.074,0.52,1.587,0.715L75.07,99.65z M87.125,99.173L87.08,98.73
				c0.425-0.039,0.777-0.206,1.047-0.475c0.061-0.053,0.095-0.104,0.271-0.31l0.344,0.275c-0.178,0.214-0.229,0.274-0.303,0.349
				C88.102,98.914,87.653,99.118,87.125,99.173z M83.607,99.096l-0.056-0.435c0.584-0.069,1.141-0.081,1.806-0.03l-0.03,0.439
				c-0.268-0.018-0.515-0.026-0.75-0.026C84.25,99.044,83.929,99.06,83.607,99.096z M47.342,98.861l-0.323-0.3
				c0.399-0.426,0.814-0.856,1.239-1.269l0.313,0.312C48.151,98.019,47.737,98.44,47.342,98.861z M151.215,98.71l-0.391-0.207
				c0.321-0.599,0.567-1.138,0.718-1.575l0.415,0.146C151.799,97.53,151.54,98.096,151.215,98.71z M71.058,98.575
				c-0.505-0.291-1.018-0.604-1.522-0.907l0.233-0.372c0.497,0.3,1.008,0.606,1.51,0.9L71.058,98.575z M153.404,98.378l-0.365-0.239
				c0.318-0.485,0.636-0.978,0.958-1.482l0.372,0.241C154.047,97.397,153.729,97.891,153.404,98.378z M51.128,98.134l-0.24-0.376
				c0.444-0.29,0.92-0.617,1.448-0.993l0.255,0.36C52.061,97.507,51.58,97.83,51.128,98.134z M71.886,98.044
				c-0.478-0.293-0.964-0.608-1.484-0.978l0.25-0.362c0.52,0.36,1,0.678,1.462,0.966L71.886,98.044z M98.817,97.598l-0.318-0.3
				c0.167-0.185,0.343-0.373,0.514-0.559l0.675-0.74l0.323,0.297l-0.672,0.738C99.163,97.226,98.993,97.411,98.817,97.598z
				 M89.879,96.886l-0.331-0.288c0.39-0.448,0.781-0.887,1.18-1.322l0.329,0.296C90.655,96.006,90.267,96.442,89.879,96.886z
				 M68.034,96.748c-0.51-0.31-1.012-0.614-1.513-0.907l0.223-0.383c0.501,0.294,1.014,0.604,1.519,0.91L68.034,96.748z
				 M49.846,96.399l-0.298-0.326c0.192-0.182,0.391-0.355,0.593-0.533c0.253-0.219,0.495-0.431,0.743-0.638l0.283,0.34
				c-0.246,0.203-0.488,0.412-0.735,0.629C50.231,96.049,50.041,96.222,49.846,96.399z M54.022,96.087l-0.261-0.355
				c0.495-0.36,0.976-0.71,1.439-1.032l0.247,0.365C54.997,95.379,54.514,95.729,54.022,96.087z M68.965,96.024
				c-0.473-0.358-0.936-0.72-1.398-1.077l0.272-0.349c0.459,0.357,0.921,0.718,1.394,1.072L68.965,96.024z M155.303,95.396
				l-0.374-0.23c0.133-0.216,0.267-0.435,0.398-0.652c-0.132-0.202-0.266-0.403-0.396-0.604l0.364-0.239
				c0.159,0.234,0.317,0.472,0.474,0.717l0.074,0.118l-0.072,0.112C155.618,94.882,155.462,95.141,155.303,95.396z M151.713,95.328
				c-0.064-0.244-0.189-0.458-0.364-0.642c-0.113-0.111-0.324-0.29-0.671-0.559l0.272-0.349c0.364,0.283,0.583,0.468,0.713,0.603
				c0.229,0.232,0.395,0.514,0.478,0.836L151.713,95.328z M101.207,94.997l-0.327-0.304c0.393-0.429,0.793-0.861,1.196-1.296
				l0.327,0.298C101.997,94.13,101.599,94.562,101.207,94.997z M64.991,94.973c-0.564-0.303-1.073-0.56-1.562-0.78l0.177-0.404
				c0.497,0.229,1.021,0.488,1.595,0.799L64.991,94.973z M92.252,94.278l-0.313-0.302c0.399-0.426,0.811-0.85,1.227-1.268
				l0.316,0.307C93.069,93.434,92.658,93.855,92.252,94.278z M52.53,94.14l-0.264-0.349c0.476-0.369,0.955-0.722,1.426-1.052
				l0.256,0.36C53.48,93.425,53.006,93.774,52.53,94.14z M56.917,94.118l-0.221-0.381c0.608-0.349,1.146-0.597,1.648-0.752
				l0.13,0.42C58.006,93.551,57.5,93.781,56.917,94.118z M66.178,93.854c-0.555-0.432-0.999-0.769-1.399-1.062l0.262-0.355
				c0.405,0.296,0.849,0.637,1.409,1.069L66.178,93.854z M61.804,93.561c-0.604-0.191-1.165-0.307-1.673-0.345l0.033-0.439
				c0.541,0.037,1.134,0.162,1.775,0.364L61.804,93.561z M149.276,93.071c-0.402-0.295-0.873-0.642-1.427-1.047l0.264-0.354
				c0.553,0.407,1.023,0.752,1.425,1.047L149.276,93.071z M153.94,92.459c-0.345-0.488-0.689-0.966-1.033-1.424l0.353-0.265
				c0.346,0.466,0.696,0.949,1.038,1.438L153.94,92.459z M103.606,92.405l-0.323-0.3c0.404-0.428,0.812-0.85,1.227-1.277
				l0.312,0.307C104.418,91.559,104.01,91.982,103.606,92.405z M55.412,92.146l-0.233-0.381c0.545-0.328,1.074-0.627,1.56-0.866
				l0.199,0.392C56.46,91.526,55.944,91.815,55.412,92.146z M63.334,91.801c-0.555-0.349-1.052-0.621-1.515-0.831l0.178-0.403
				c0.484,0.216,1.004,0.499,1.578,0.859L63.334,91.801z M94.733,91.774l-0.311-0.312c0.422-0.413,0.85-0.818,1.286-1.223
				l0.297,0.325C95.578,90.966,95.153,91.371,94.733,91.774z M146.431,90.981l-1.42-1.045l0.258-0.355l1.423,1.045L146.431,90.981z
				 M58.533,90.65l-0.116-0.425c0.239-0.065,0.455-0.103,0.646-0.109l0.158-0.025c0.331-0.061,0.668-0.07,1.022-0.03l-0.048,0.437
				c-0.307-0.029-0.602-0.022-0.89,0.029l-0.222,0.025C58.928,90.562,58.744,90.593,58.533,90.65z M106.058,89.877l-0.31-0.308
				c0.416-0.419,0.838-0.833,1.261-1.243l0.305,0.313C106.891,89.048,106.474,89.462,106.058,89.877z M151.841,89.64
				c-0.373-0.469-0.744-0.927-1.109-1.364l0.339-0.284c0.364,0.438,0.742,0.901,1.116,1.375L151.841,89.64z M97.308,89.378
				l-0.299-0.332c0.445-0.389,0.887-0.78,1.331-1.159l0.289,0.33C98.187,88.6,97.744,88.984,97.308,89.378z M143.584,88.89
				c-0.458-0.343-0.936-0.693-1.417-1.049l0.266-0.353c0.479,0.354,0.949,0.705,1.416,1.05L143.584,88.89z M108.598,87.435
				l-0.302-0.32c0.449-0.409,0.892-0.808,1.321-1.18l0.287,0.328C109.478,86.638,109.038,87.029,108.598,87.435z M99.975,87.089
				l-0.275-0.341c0.453-0.374,0.919-0.744,1.381-1.109l0.274,0.351C100.893,86.351,100.431,86.717,99.975,87.089z M149.576,86.95
				c-0.391-0.437-0.795-0.867-1.196-1.285l0.317-0.308c0.402,0.418,0.81,0.858,1.208,1.295L149.576,86.95z M140.753,86.786
				c-0.471-0.348-0.943-0.7-1.416-1.056l0.266-0.353c0.473,0.354,0.947,0.708,1.41,1.059L140.753,86.786z M111.255,85.132
				l-0.278-0.343c0.465-0.377,0.938-0.752,1.397-1.088l0.259,0.354C112.185,84.39,111.715,84.755,111.255,85.132z M102.753,84.926
				l-0.264-0.355c0.476-0.354,0.959-0.701,1.431-1.035l0.255,0.357C103.702,84.224,103.222,84.572,102.753,84.926z M137.934,84.649
				c-0.349-0.274-0.685-0.535-1.01-0.8l-0.375-0.293l0.275-0.345l0.373,0.293c0.326,0.264,0.662,0.527,1.009,0.798L137.934,84.649z
				 M147.131,84.429c-0.424-0.408-0.856-0.811-1.289-1.187l0.291-0.331c0.435,0.384,0.871,0.787,1.309,1.195L147.131,84.429z
				 M114.064,83.032l-0.249-0.363c0.508-0.339,1.013-0.664,1.502-0.954l0.223,0.383C115.059,82.383,114.561,82.697,114.064,83.032z
				 M105.629,82.901l-0.249-0.365c0.506-0.334,1.008-0.652,1.494-0.958l0.23,0.377C106.622,82.253,106.125,82.571,105.629,82.901z
				 M135.161,82.474c-0.524-0.394-0.993-0.721-1.428-1.003l0.237-0.375c0.447,0.29,0.924,0.624,1.456,1.027L135.161,82.474z
				 M144.494,82.116c-0.453-0.365-0.927-0.728-1.393-1.063l0.26-0.361c0.475,0.344,0.951,0.71,1.409,1.079L144.494,82.116z
				 M117.075,81.249l-0.199-0.392c0.545-0.273,1.094-0.525,1.627-0.739l0.16,0.41C118.142,80.737,117.611,80.982,117.075,81.249z
				 M108.613,81.05l-0.223-0.387c0.518-0.298,1.036-0.586,1.551-0.86l0.207,0.388C109.638,80.461,109.124,80.747,108.613,81.05z
				 M132.228,80.598c-0.527-0.269-1.054-0.484-1.596-0.664l0.14-0.418c0.566,0.184,1.103,0.407,1.653,0.687L132.228,80.598z
				 M141.658,80.058c-0.489-0.313-0.999-0.624-1.495-0.91l0.216-0.381c0.512,0.29,1.021,0.598,1.521,0.922L141.658,80.058z
				 M120.312,79.962l-0.122-0.425c0.416-0.121,0.833-0.216,1.244-0.298l0.028-0.005c0.18-0.031,0.329-0.053,0.476-0.077l0.064,0.44
				c-0.146,0.019-0.293,0.039-0.445,0.067l-0.086-0.209l0.045,0.216C121.12,79.751,120.713,79.844,120.312,79.962z M128.959,79.5
				c-0.547-0.096-1.13-0.168-1.728-0.208l0.028-0.438c0.617,0.041,1.216,0.113,1.778,0.214L128.959,79.5z M111.708,79.391
				l-0.196-0.398c0.538-0.266,1.08-0.514,1.605-0.752l0.184,0.405C112.774,78.876,112.241,79.129,111.708,79.391z M123.744,79.381
				l-0.046-0.442c0.617-0.061,1.216-0.096,1.782-0.109l0.011,0.438C124.938,79.282,124.346,79.321,123.744,79.381z M138.618,78.327
				c-0.521-0.261-1.059-0.508-1.592-0.73l0.173-0.408c0.537,0.233,1.083,0.478,1.616,0.742L138.618,78.327z M114.919,77.964
				l-0.163-0.407c0.55-0.22,1.112-0.429,1.667-0.613l0.142,0.416C116.017,77.543,115.462,77.75,114.919,77.964z M135.396,76.97
				c-0.552-0.192-1.114-0.362-1.671-0.514l0.118-0.428c0.566,0.153,1.138,0.329,1.697,0.525L135.396,76.97z M118.238,76.826
				l-0.127-0.426c0.572-0.163,1.146-0.322,1.719-0.457l0.099,0.434C119.371,76.506,118.803,76.663,118.238,76.826z M132.019,76.048
				c-0.566-0.116-1.145-0.211-1.722-0.285l0.061-0.438c0.584,0.077,1.17,0.175,1.754,0.293L132.019,76.048z M121.646,76.014
				l-0.078-0.433c0.582-0.103,1.17-0.196,1.755-0.269l0.049,0.442C122.801,75.825,122.222,75.911,121.646,76.014z M125.115,75.592
				l-0.024-0.442c0.593-0.037,1.189-0.056,1.776-0.056c0.567,0.012,1.148,0.017,1.719,0.056l-0.027,0.438
				c-0.554-0.03-1.118-0.049-1.676-0.049C126.301,75.546,125.706,75.558,125.115,75.592z"/>
		</g>
		<path fill="#31738B" d="M53.809,97.791c-0.788,2.552-2.542,6.349-2.481,9.16c0.104,4.694,2.481,8.002,2.481,8.002
			s-7.179-3.127-9.753-7.442c-0.266-1.083,0-2.245,0-2.245S49.247,100.674,53.809,97.791z"/>
		<path d="M93.059,105.266c9.075-13.081,21.011-22.764,29.37-24.173c14.188-0.067,9.158,2.559,25.939,12.865
			c-13.223-3.816-13.403-11.628-23.658-9.694C116.188,85.401,106.767,90.086,93.059,105.266z"/>
		<path d="M44.056,105.266c0,0,10.923-9.195,14.982-9.658c2.434,0.297,6.346,2.783,7.925,3.547c5.835,3.483,7.971,2.204,7.971,2.204
			s-1.973-0.283-4.169-1.511c-3.405-1.89-7.977-5.054-11.407-5.371C56.332,93.675,44.056,105.266,44.056,105.266z"/>
		<path d="M44.197,107.842c0.314,0.581,5.473,8.56,17.728,8.725c0.728,0.009,1.782-0.396,2.554-0.71
			c4.057-1.452,8.81-11.324,8.81-11.324s-3.926,7.899-9.941,9.586C51.924,117.491,44.197,107.842,44.197,107.842z"/>
		<path d="M95.606,108.923c0.167,0.069,18.215,9.159,24.485,7.161c12.669-1.907,27.516-14.893,27.516-14.893
			s-11.724,15.714-28.714,16.725C111.473,118.082,95.606,108.923,95.606,108.923z"/>
		<path fill="#D1AB6F" d="M72.6,105.607"/>
		<path d="M93.402,83.978c-1.634,4.707,3.077,10.499,3.077,10.499s8.682,0.173,17.923-3.437c8.235-3.216,17.027-10.192,18.646-11.05
			c3.445-1.811,16.842,1.996,17.386,1.811c0.538-0.177-8.875-13.397-19.559-11.763c-3.621,0.362-7.963,5.432-22.45,9.952
			C101.073,82.497,94.067,82.044,93.402,83.978z"/>
		<path d="M73.685,78.364c0,0,0.984,8.945,0,11.543c-13.234,7.537-19.642,0.401-22.42,2.117c-4.521,2.473-8.111,4.27-8.111,4.27
			s-5.015,0.673-2.248-2.857c2.192-2.801,6.828-8.715,6.828-8.715s4.051,1.417,9.562,0.473c2.755-0.473,7.283-3.828,10.69-5.42
			C71.393,78.19,73.685,78.364,73.685,78.364z"/>
		<path fill="#D7DADD" d="M105.164,99.215c-4.341,3.226-0.672,6.29-0.672,6.29s8.098,7.251,18.233,3.729
			c8.007-2.896,10.277-8.353,11.958-10.953c0.784-1.226,2.709-1.088,2.709-1.088s-5.639-3.437-11.948-5.008
			C119.471,92.122,109.514,95.987,105.164,99.215z"/>
		<path d="M103.044,97.737c-0.464,1.529-0.464,1.529,0.007,4.701c2.992-3.838,16.09-9.826,21.428-10.011
			c7.858,2.466,15.092,5.31,15.092,5.31s-6.161-6.521-14.669-7.605C120.74,89.403,103.044,97.737,103.044,97.737z"/>
		<path d="M95.479,126.772c0,0,4.951-0.633,5.986,5.362c0.128,6.858-6.083,11.2-13.346,8.729
			c-10.271,6.275-17.396,1.701-17.396,1.701s-5.23-1.316-5.471-6.522c-0.103-2.784,3.856-7.202,6.361-13.104
			c2.447-5.761,3.939-10.125,5.456-17.105c0,0,2.416-3.394,5.821-2.301C95.611,110.06,95.479,126.772,95.479,126.772z"/>
		<path fill="#D1AB6F" d="M84.363,106.793c9.397,6.875,9.463,19.851,8.706,21.573c12.114,0.119,4.696,15.293-4.74,10.828
			c-7.118,4.24-12.403,3.708-15.74,2.527c-4.631-1.646-5.7-5.396-4.54-6.871c2.673-5.129,7.046-13.251,9.232-19.909
			c1.369-4.16,1.223-6.904,1.223-6.904S79.493,103.531,84.363,106.793z"/>
		<path fill="#D7DADD" d="M49.036,105.505c0.295,4.945,6.507,7.282,12.314,6.175c8.326-3.621,9.959-8.508,4.561-10.488
			c-3.646-1.337-10.403-2.2-14.156-0.634C49.503,101.505,48.977,104.495,49.036,105.505z"/>
		<path d="M49.033,103.531c0,0-2.723-0.792,0-2.558c10.324-6.497,17.735-0.446,19.404,1.465
			C56.176,98.196,49.033,103.531,49.033,103.531z"/>
		<path d="M83.853,160.38l0.495,1.693c0,0,4.545,1.766,8.044,0c3.798,0.307,6.286-2.233,6.286-2.233l-15.177-3.159
			c0,0-0.403-1.012-1.806,0.54C80.051,160.421,83.853,160.38,83.853,160.38z"/>
		<path fill="#D7DADD" d="M84.348,158.569l0.722,2.536c0,0,4.118,2.173,7.127,0c4.283,0,6.481-1.266,6.481-1.266
			s3.328,0.904,5.814-1.271c5.561-1.083,7.161-1.63,9.908-3.078c4.707,0,12.53-4.743,13.419-7.077
			c0.886-2.336-12.212-2.253-12.212-2.253L84.348,158.569z"/>
		<path fill="#B89656" d="M82.666,157.805c-1.847,1.657,1.621,1.27,1.819,1.475c0.205,0.213,25.367-5.288,39.866-12.012
			c14.501-6.718-16.121,0.119-16.781-0.305C106.905,146.544,84.51,156.156,82.666,157.805z"/>
		<path fill="#D7DADD" d="M109.309,165.403c0-0.873,2.981-0.326,3.846-1.258c2.321-2.654,7.716-3.366,8.491-3.766
			c0.773-0.394,3.578-2.267,5.832-2.999c3.721-3.381,7.299-5.44,7.299-5.44s4.076-1.804,5.142-2.333
			c-12.237,19.051-28.688,18.851-28.688,18.851S109.307,166.283,109.309,165.403z"/>
		<path fill="#B0B4B7" d="M87.515,131.011c0,0,7.4-4.119,11.865,1.124c-0.702-3.769-4.801-3.757-6.311-3.769
			C90.964,128.353,87.515,131.011,87.515,131.011z"/>
		<path d="M87.515,131.011c3.63-4.022,5.818-4.238,5.818-4.238l1.07,1.681C94.403,128.453,91.112,128.06,87.515,131.011z"/>
		<g>
			<g>
				<path d="M132.828,100.795c-0.657,5.779-5.875,9.924-11.656,9.267c-5.775-0.661-9.925-5.881-9.267-11.659
					c0.66-5.775,5.878-9.925,11.656-9.262C129.342,89.795,133.487,95.017,132.828,100.795z"/>
				<path fill="#31738B" d="M129.638,100.433c-0.363,3.186-3.241,5.477-6.434,5.114c-3.191-0.362-5.483-3.249-5.115-6.434
					c0.362-3.193,3.239-5.485,6.437-5.123C127.716,94.355,130.001,97.24,129.638,100.433z"/>
				<path fill="#D7DADD" d="M134.955,93.997c-0.366,3.192-3.248,5.485-6.437,5.121c-3.192-0.364-5.479-3.25-5.117-6.44
					c0.364-3.185,3.243-5.478,6.435-5.115C133.026,87.927,135.316,90.812,134.955,93.997z"/>
				<path d="M127.152,99.602c0,2.633-2.143,4.775-4.784,4.775c-2.64,0.002-4.781-2.137-4.781-4.775
					c-0.002-2.642,2.14-4.782,4.779-4.785C125.01,94.816,127.15,96.96,127.152,99.602z"/>
				<path fill="#D7DADD" d="M125.476,97.925c-0.131,1.141-1.162,1.961-2.311,1.832c-1.138-0.132-1.959-1.165-1.828-2.306
					c0.131-1.146,1.164-1.962,2.304-1.829C124.786,95.748,125.603,96.781,125.476,97.925z"/>
			</g>
		</g>
		<g>
			<g>
				<path d="M68.349,105.229c-0.449,3.941-4.005,6.767-7.947,6.317c-3.938-0.446-6.767-4.002-6.315-7.945
					c0.446-3.937,4.007-6.768,7.949-6.321C65.971,97.735,68.8,101.293,68.349,105.229z"/>
				<path fill="#31738B" d="M66.173,104.982c-0.245,2.175-2.214,3.736-4.388,3.489c-2.173-0.251-3.733-2.215-3.487-4.388
					c0.251-2.174,2.215-3.736,4.391-3.486C64.859,100.846,66.423,102.812,66.173,104.982z"/>
				<path fill="#D7DADD" d="M69.796,100.6c-0.246,2.173-2.214,3.74-4.387,3.489c-2.176-0.25-3.734-2.214-3.489-4.39
					c0.253-2.174,2.217-3.734,4.388-3.484C68.483,96.463,70.047,98.427,69.796,100.6z"/>
				<path d="M64.479,104.421c0,1.799-1.461,3.253-3.263,3.253c-1.799,0-3.259-1.452-3.261-3.253c0-1.804,1.46-3.263,3.261-3.263
					C63.018,101.158,64.479,102.617,64.479,104.421z"/>
				<path fill="#D7DADD" d="M63.334,103.274c-0.089,0.784-0.792,1.341-1.57,1.249c-0.777-0.089-1.334-0.789-1.248-1.568
					c0.088-0.777,0.789-1.337,1.569-1.25C62.866,101.796,63.427,102.496,63.334,103.274z"/>
			</g>
		</g>
		<path d="M140.838,131.958c-0.729-2.178-6.699-1.811-6.699-1.811s-2.715,4.55-5.688,5.997c-2.963,1.452-10.819,4.77-10.819,4.228
			c0-0.541-8.712-0.32-10.656,0.321c-1.945,0.641-9.013,2.851-13.917,5.566c-4.913,2.717-9.537,0-9.537,0s-5.152,1.99-8.555,6.7
			c-2.752,2.893-2.367,7.42-2.367,7.42h3.24c0,0,4.523,0,6.874-3.078c1.811,0.185,7.065-0.546,14.302-5.612
			c2.354,1.086,10.867,0.543,14.852-1.632c8.69-2.35,10.139,1.271,15.57-1.444c5.436-2.716,8.151-8.331,8.151-8.331
			S141.56,134.129,140.838,131.958z"/>
		<path fill="#31738B" d="M94.915,166.159c0,0,6.553,9.729,10.274,15.86c-0.885-0.408-3.056-1.146-6.512-3.698
			C98.285,175.478,94.915,166.159,94.915,166.159z"/>
		<path d="M126.758,188.344c1.384,4.143,4.715,4.143,4.715,4.143l3.282-1.222C134.755,191.265,128.251,190.187,126.758,188.344z"/>
		<path d="M61.817,42.826c3.93,14.701,15.171,19.118,15.171,19.118l-8.917-23.241C68.071,38.703,64.209,37.426,61.817,42.826z"/>
		<path d="M93.803,51.517c12.126-36.955,37.343-35.68,37.343-35.68l1.671,1.814C132.816,17.651,112.272,17.093,93.803,51.517z"/>
		<path fill="#8D1516" d="M143.07,16.618c-3.726-6.811-8.267-8.973-11.168-9.27c-1.684-0.176-3.24,0.913-3.24,0.913
			c-3.477,1.938-6.521-5.203-18.354-0.402c-7.492,3.041-15.874,13.914-17.228,12.683c-2.923-2.656-7.612-8.417-14.426-6.011
			c-3.234,1.143-14.819,11.214-12.418,31.15c2.293,13.393,18.126,21.101,18.126,21.101s3.607-3.092,6.138-8.154
			c5.79-11.568,11.41-30.6,31.421-40.05C128.202,15.441,135.83,14.782,143.07,16.618z"/>
		<path fill="#B0B4B7" d="M77.11,115.449c-0.314,6.211-3.971,17.173-5.623,19.585c-1.646,2.405,0,6.223,0,6.223
			s-5.269-2.833-3.65-6.054C69.458,131.981,73.185,125.407,77.11,115.449z"/>
		<path fill="#31738B" d="M88.679,136.698c7.418,2.356,9.19,0.283,9.19,0.283s-3.446,4.85-9.54,2.213
			c-4.445,2.679-8.01,3.125-8.01,3.125S87.08,139.474,88.679,136.698z"/>
		<path fill="#C9A9A9" d="M87.515,15.755c0,0-11.661-4.504-17.495,15.115c-5.829,19.617,11.59,34.353,11.59,34.353
			s-5.194-2.539-9.801-8.29c-6.184-7.723-10.981-21.691,2.304-38.958C81.028,10.153,87.515,15.755,87.515,15.755z"/>
		<g>
			<path fill-rule="evenodd" clip-rule="evenodd" d="M192.489,131.378c-2.754,5.992-7.413,9.736-10.403,8.361
				c-2.978-1.367-3.165-7.338-0.408-13.337c2.759-5.991,7.411-9.725,10.399-8.359C195.062,119.422,195.246,125.384,192.489,131.378z
				"/>
			<path d="M206.058,136.22c4.79-16.342-11.779-17.727-11.779-17.727l-11.713,7.427l-1.082,12.963
				C181.483,138.883,200.55,149.925,206.058,136.22z"/>
			<path fill-rule="evenodd" clip-rule="evenodd" fill="#D1AB6F" d="M192.126,120.309c-9.286,2.867-9.561,16.529-9.561,16.529
				s15.122,9.201,20.297-0.763C208.039,126.112,197.895,120.222,192.126,120.309z"/>
			<path fill="#31738B" d="M184.3,128.435c9.76,6.994,19.089,5.285,19.692,4.747c-3.326,14.398-21.427,3.656-21.427,3.656
				S182.819,131.346,184.3,128.435z"/>
		</g>
	</g>
</g>
</svg>
