<?xml version="1.0" encoding="utf-8"?>
<!-- Generator: Adobe Illustrator 16.2.1, SVG Export Plug-In . SVG Version: 6.00 Build 0)  -->
<!DOCTYPE svg PUBLIC "-//W3C//DTD SVG 1.1//EN" "http://www.w3.org/Graphics/SVG/1.1/DTD/svg11.dtd">
<svg version="1.1" xmlns="http://www.w3.org/2000/svg" xmlns:xlink="http://www.w3.org/1999/xlink" x="0px" y="0px"
	 width="242.942px" height="269.291px" viewBox="0 0 242.942 269.291" enable-background="new 0 0 242.942 269.291"
	 xml:space="preserve">
<g id="Capa_1">
	<path fill="#FFFFFF" d="M121.549-0.987l0.54,111.275l17.4-109.815l-16.335,109.99L156.987,4.806l-32.805,106.001l49.428-98.892
		l-48.467,99.396l63.811-89.696l-62.937,90.351l76.62-78.288l-75.857,79.079l87.544-64.958l-86.908,65.857l96.313-50.019
		l-95.825,51.012l102.708-33.857l-102.373,34.916l106.574-16.854l-106.405,17.956l107.818,0.559l-107.818,0.555l106.405,17.958
		l-106.574-16.855l102.373,34.913l-102.708-33.854l95.825,51.013l-96.313-50.021l86.908,65.854l-87.544-64.953l75.857,79.077
		l-76.62-78.289l62.937,90.349l-63.811-89.692l48.467,99.396l-49.428-98.89l32.805,105.998L123.154,124.27l16.335,109.994
		l-17.4-109.818l-0.54,111.273l-0.539-111.273L103.61,234.264l16.331-109.994L86.113,229.927l32.803-106.001l-49.431,98.893
		l48.466-99.397l-63.809,89.694l62.938-90.349l-76.619,78.289l75.854-79.077l-87.544,64.953l86.911-65.854l-96.311,50.021
		l95.819-51.013L12.482,153.938l102.376-34.913L8.284,135.882l106.406-17.958L6.874,117.369l107.816-0.559L8.284,98.854
		l106.574,16.854L12.482,80.792l102.709,33.857L19.372,63.638l96.311,50.019L28.771,47.799l87.544,64.958L40.461,33.678
		l76.619,78.288L54.143,21.615l63.809,89.696L69.485,11.912l49.431,98.895L86.113,4.806l33.828,105.657L103.61,0.473l17.399,109.815
		L121.549-0.987z"/>
</g>
<g id="Capa_16">
	<g>
		<g>
			<polygon fill="#D9DADB" points="168.529,231.093 168.529,224.06 75.133,224.06 75.133,231.093 5.808,231.093 21.1,211.827 
				5.808,192.564 35.925,192.564 35.925,185.53 207.558,185.53 207.558,192.564 237.341,192.564 225.109,211.827 237.341,231.093 
							"/>
			<path d="M205.509,187.581v7.033h28.103l-10.932,17.213l10.932,17.215H170.58v-7.033H73.082v7.033H10.053l13.664-17.215
				l-13.664-17.213h27.923v-7.033H205.509 M209.606,183.483h-4.098H37.974h-4.099v4.098v2.934H10.053H1.564l5.277,6.651
				l11.642,14.663L6.842,226.493l-5.277,6.648h8.488h63.029h4.101v-4.1v-2.932h89.299v2.932v4.1h4.099h63.031h7.459l-3.998-6.299
				l-9.536-15.016l9.536-15.013l3.998-6.3h-7.459h-24.005v-2.934V183.483L209.606,183.483z"/>
		</g>
		<polygon fill="#B0B4B7" points="73.082,229.042 73.082,194.616 10.053,194.616 23.717,211.827 10.053,229.042 		"/>
		<polygon fill="#B0B4B7" points="233.611,194.616 170.58,194.616 170.58,229.042 233.611,229.042 222.68,211.827 		"/>
		<polygon points="33.828,193.067 33.828,224.53 63.423,231.228 74.612,230.386 40.847,193.067 		"/>
		<polygon points="209.619,192.929 209.619,224.392 180.025,231.093 168.836,230.247 202.601,192.929 		"/>
		<polygon fill="#8B8B8B" points="205.509,187.581 205.509,222.009 170.58,229.042 170.443,194.616 		"/>
		<polygon fill="#8B8B8B" points="37.974,187.581 37.974,222.009 72.902,229.042 73.039,194.616 		"/>
		<g>
			<rect x="59.693" y="219.054" fill="#FFFFFF" width="125.038" height="40.697"/>
			<path d="M182.731,221.054v36.697H61.693v-36.697H182.731 M186.731,217.054h-4H61.693h-4v4v36.697v4h4h121.038h4v-4v-36.697
				V217.054L186.731,217.054z"/>
		</g>
		<rect x="37.974" y="187.581" fill="#D9DADB" width="167.535" height="34.428"/>
	</g>
	<path d="M186.03,200.396l1.487,3.043l3.387,0.524l-2.484,2.325l0.541,3.336l-3.02-1.604l-3.06,1.536l0.62-3.322l-2.428-2.383
		l3.402-0.447L186.03,200.396z"/>
	<path d="M61.238,199.912l1.486,3.046l3.392,0.524l-2.487,2.329l0.54,3.336l-3.018-1.605l-3.061,1.535l0.618-3.32l-2.427-2.388
		l3.402-0.444L61.238,199.912z"/>
	<g>
		<path d="M73.16,198.26h0.39l0.243,0.162l0.055,0.176l0.362,0.581l0.268,0.457l0.123,0.31l0.189,0.297l0.107,0.254l0.053,0.161
			l-0.026,0.109l0.026,0.23l0.054,0.133l0.055,0.218l0.203,0.254l0.321,0.27l0.109,0.201l0.066,0.272l0.082,0.281l0.134,0.215
			l0.135,0.417l0.362,0.299l0.084,0.281l-0.054,0.245l-0.23,0.242l-0.109,0.2l-0.657,0.392l-0.446,0.267l-0.323,0.139l-0.135,0.106
			l-0.176,0.174l-0.135,0.054l-0.337,0.082l-0.215,0.163l-0.161,0.053l-0.472,0.28h-0.109l-0.2,0.164l-0.109,0.026l-0.379,0.364
			l-0.145,0.243l-0.027,0.108v0.121l-0.027,0.16l-0.216,0.216l-0.39-0.027l0.026,0.31l-0.026,0.218l-0.107,0.162l-0.084,0.256
			l-0.134,0.161l-0.066,0.159l0.042,0.258l0.104,0.188l0.138,0.025l0.134,0.054h0.16h0.339l0.256,0.12l0.375,0.031l0.312,0.023
			l0.16,0.031h0.106l0.364,0.052l0.379,0.026l0.362-0.055l0.164-0.109l0.054-0.12l0.067-0.134l-0.028-0.108v-0.107l-0.093-0.146
			l-0.109-0.188l-0.108-0.35l0.084-0.338l0.079-0.134l0.108-0.176l0.282-0.137l0.16-0.024h0.176l0.271,0.106l0.163,0.055l0.2,0.23
			l0.108,0.241l0.053,0.714l-0.053,0.121l-0.054,0.321l-0.055,0.338l-0.082,0.216l-0.148,0.108l-0.109,0.176l-0.023,0.158
			l-0.242,0.272l-0.204,0.202l-1.185,0.955l-0.109,0.176l-0.054,0.351l0.082,0.146l0.026,0.244l-0.055,0.216l-0.16,0.229
			l-0.147,0.028l-0.431,0.08l-0.203-0.055l-0.352-0.054l-0.176-0.053l-0.242-0.109l-0.161-0.093l-0.176-0.028l-0.159-0.026
			l-0.216-0.161l-0.256-0.055l-0.459-0.284l-0.149-0.053l-0.241-0.135l-0.283-0.162l-0.242-0.107l-0.394-0.255l-0.375-0.135
			l-0.337-0.162l-0.163-0.025h-0.416l-0.16-0.096l-0.203-0.188l-0.081-0.188l0.026-0.081l0.055-0.2l0.121-0.193l0.324-0.309
			l0.158-0.24l0.03-0.242l0.066-0.205l0.055-0.376v-0.174l-0.028-0.297v-0.175l-0.093-0.08l-0.03-0.245l0.151-0.081l-0.079-0.174
			l0.051-0.271l-0.026-0.159l-0.121-0.312l0.121-0.134l0.026-0.109v-0.108l-0.026-0.442l0.026-0.109v-0.888l-0.026-0.188v-0.258
			l-0.024-0.375l0.024-0.26l-0.024-0.295l0.024-0.202l0.026-0.134l-0.051-0.105l-0.072-0.501l-0.024-0.309l0.024-0.219l-0.104-0.321
			l-0.084-0.121l-0.295-0.217l-0.094-0.107l-0.027-0.133l0.027-0.258l0.176-0.245l0.376-0.145l0.579-0.08l0.309-0.084l0.109-0.053
			l0.162-0.026l1.158-0.336l0.176-0.082h0.135l0.08-0.082l0.107-0.133L71.207,200l0.268-0.134l0.188-0.151l0.421-0.242l0.104-0.052
			l0.527-0.499l0.082-0.191l0.026-0.2l0.174-0.188L73.16,198.26z M71.342,200.966l-0.084,0.219v0.215l0.054,0.147l0.054,0.217
			l0.055,0.362l0.03,0.136l0.053,0.106l0.026,0.579l0.026,0.109l0.053,0.176l0.054,0.27l-0.078,0.188l0.078,0.254v0.164
			l-0.054,0.162l-0.079,0.283l0.026,0.106l0.028,0.107l-0.028,0.229l0.028,0.137v0.189l0.024,0.134l-0.053,0.254l0.083,0.137
			l0.36-0.472l0.394-0.137l0.054-0.133l0.106-0.055l0.106-0.08l0.163-0.054l0.229-0.392l0.055-0.108l-0.055-0.146l-0.134-0.241
			l-0.055-0.138l-0.04-0.175l-0.188-0.406l-0.394-0.997l-0.105-0.078l-0.271-0.526l-0.054-0.188l-0.337-0.579L71.342,200.966z"/>
		<path d="M82.524,193.37l0.108,0.067l0.322-0.041l0.202,0.041l0.243,0.108l0.229,0.212l0.026,0.219l0.027,0.148v0.134l-0.106,0.242
			l-0.392,0.229l-0.136,0.024l-0.203,0.055l-0.297,0.139l-0.133,0.134l-0.122,0.146l-0.215,0.5l-0.055,0.108v0.109l-0.026,0.188
			l-0.028,0.47v0.309l-0.078,1.818l-0.067,0.796l-0.03,0.134l-0.055,0.206l0.121,0.212l-0.036,0.219l0.146,0.12v0.188l0.028,0.217
			l-0.052,0.199v0.297l-0.086,0.175l-0.09,0.326v0.162l0.054,0.146v0.109l-0.054,0.188l0.145,0.446v0.363l0.031,0.27v0.631
			l-0.086,0.085l-0.066,0.145v0.271l0.03,0.309l-0.03,0.218l-0.107,0.27l0.205,0.027l0.055,0.176v0.188v0.361l0.052,0.191
			l-0.028,0.136v0.55l0.028,0.259l-0.052,0.212l-0.086,0.245l0.055,0.201l0.083,0.297v0.229l0.054,0.161l0.027,0.136l0.026,0.254
			l0.083,0.216l0.052,0.188l0.176,0.098l0.605,0.16l0.27,0.242l0.026,0.109v0.279l-0.188,0.298l-0.394,0.338l-0.188,0.137
			l-0.079,0.2l-0.311,0.055l-0.135,0.107l-0.338,0.39l-0.08,0.19l0.164,0.363l0.145,0.133l0.055,0.271l-0.146,0.363l-0.218,0.218
			l-0.188,0.024l-0.257-0.055l-0.106-0.079h-0.137l-0.079-0.054l-0.255-0.134l-0.191-0.229l-0.214-0.138l-0.282-0.159l-0.108-0.137
			L79.68,212.3l-0.079-0.027l-0.31-0.214l-0.39-0.163l-0.298-0.149l-0.229-0.079l-0.216-0.108l-0.297-0.164l-0.094-0.078
			l-0.055-0.146l-0.052-0.271l0.134-0.282l0.147-0.134l0.106-0.054l0.271-0.134l0.203-0.394v-0.579l0.081-0.163l-0.081-0.133
			l-0.027-0.176l-0.025-0.134l0.08-0.137l0.054-0.442v-0.188l-0.054-0.34l0.133-0.082v-0.188l0.03-0.2l0.024-0.297l0.055-0.163
			l-0.055-0.149l-0.109-0.054v-0.321l-0.133-0.418l0.027-0.337l0.081-0.242l0.055-0.446l-0.03-0.159l0.055-0.609l0.03-0.309v-0.134
			l-0.085-0.244l0.055-0.146l-0.055-0.109l-0.055-0.712l0.03-0.472v-0.326v-0.199l0.024-0.218l0.109-0.254l0.164-0.164l-0.164-0.215
			l-0.134-0.389l-0.03-0.218l0.03-0.121l-0.03-0.106l0.055-0.136l-0.024-0.392l-0.03-0.458l-0.023-0.309l-0.055-1.766l-0.08-0.392
			l-0.041-0.267l-0.027-0.284l-0.376-0.432l-0.176-0.121l-0.164-0.244l-0.054-0.28l0.136-0.245l0.229-0.159l0.432-0.028l0.442,0.055
			l0.229,0.055l0.298,0.078h0.105l0.502,0.312l0.255,0.188l0.162,0.163l0.296,0.308l0.147,0.135l0.161-0.055l0.055-0.133
			l-0.108-0.176l0.271-0.688l0.148-0.16l0.349-0.499l0.393-0.162l0.242-0.121L82.524,193.37z"/>
		<path d="M104.403,194.677l0.391,0.054l0.136,0.024l0.121,0.084l0.107,0.243l-0.025,0.444l-0.258,0.443l-0.321,0.242l0.08,0.23
			l-0.255,0.47l-0.055,0.218l-0.135,0.363l-0.054,0.107l-0.054,0.162l-0.028,0.135l-0.026,0.147l-0.055,0.606l-0.027,0.74
			l-0.121,0.217l0.121,0.173v0.608l-0.254,0.525l-0.188,0.16l-0.138,0.055l-0.174,0.029l-0.188-0.029l-0.135-0.025l-0.15-0.055
			l-0.078-0.135l-0.134-0.148l-0.084-0.271v-0.106l-0.024-0.147v-0.134l-0.055-0.14l-0.054-0.133l-0.055-0.176l-0.025-0.215v-0.16
			l-0.067-0.204l-0.083-0.108l-0.025-0.295l0.054-0.256l-0.269-0.107l-0.027-0.442l-0.229-0.271l-0.082-0.202l-0.163-0.215
			l-0.134-0.054l-0.2-0.03l-0.27-0.105l-0.082-0.148l-0.105-0.055l-0.23-0.109l-0.27-0.104H99.89h-0.283l-0.579-0.054l-0.135,0.158
			l-0.283-0.104l-0.161,0.026l-0.189,0.026l-0.229,0.082l-0.159,0.079l-0.392,0.15l-0.242,0.135l-0.188,0.107l-0.096,0.107
			l-0.188,0.202l-0.082,0.133l-0.215,0.107l-0.094,0.218l-0.055,0.121l-0.213,0.35l-0.108,0.256l-0.029,0.161l-0.055,0.134
			l-0.254,0.839l-0.107,0.024l0.079,0.272l-0.16,0.549v0.084l-0.106,0.201l0.16,0.188l-0.027,0.242l-0.026,0.149l0.026,0.297
			l-0.217,0.107l-0.146,0.31l0.176,0.161l0.106-0.028h0.215l0.19-0.023h1.415h0.214l0.337-0.031l0.188,0.031l0.555-0.031
			l0.052,0.138l0.147-0.106h0.579l0.297-0.188l-0.16,0.212l0.242-0.055l0.283-0.308l0.135-0.135l0.163-0.215l0.201-0.284
			l0.403-0.297l0.108-0.025l0.255-0.029l0.271,0.139l0.174,0.31v0.321l-0.027,0.081l-0.027,0.176l-0.066,0.162l-0.053,0.159
			l-0.029,0.191l-0.055,0.094l-0.108,0.106v0.188l0.054,0.418l0.109,0.876l-0.188,0.151l0.108,0.458l0.054,0.388l0.282,0.258
			l-0.027,0.405l-0.026,0.176l-0.148,0.536l-0.269,0.364l-0.419,0.163l-0.352-0.188l-0.146-0.136l-0.164-0.163l0.03-0.146
			l-0.055-0.188l-0.03-0.418l-0.188-0.163l-0.12-0.106l-0.162-0.109l-0.321-0.176l-0.526-0.108l-0.754-0.055l-0.188,0.03
			l-0.58-0.055l-0.084,0.024h-0.279l-0.323,0.055l-0.23-0.024H96.24h-0.218h-0.108l-0.119,0.054l-0.242-0.029l-0.081-0.158
			l-0.055,0.242v0.229l-0.028,0.134l0.028,0.417l0.136,0.163l-0.027,0.74v0.336l0.135,0.135l-0.135,0.716h0.135l0.025,0.176
			l0.082,0.295l0.121,0.136l0.025,0.229l0.055,0.241l0.054,0.188l0.084,0.258l0.104,0.322l0.03,0.15l0.079,0.212l0.121,0.312
			l0.136,0.161l0.216,0.324l0.188,0.254l0.227,0.109l0.19,0.163l0.971,0.416l0.163-0.025l0.106,0.053h0.202l0.188-0.027l0.107-0.025
			l0.175-0.029l0.325-0.134l0.161-0.176h0.147l0.188-0.027l0.188-0.16l0.151-0.027l0.242-0.242l0.161-0.176l0.229-0.242l0.024-0.216
			l0.138-0.2l0.362-0.326l0.081-0.229l0.109-0.496l0.106-0.109l0.108-0.079l0.256-0.636l0.162-0.767l0.055-0.23l0.188-0.605
			l0.174-0.082l0.135-0.106l0.216-0.055l0.229-0.055l0.107,0.082l0.214,0.055l0.109,0.108l0.148,0.31l0.055,0.134l0.024,0.188
			l0.055,0.137l0.028,0.23v0.267l0.026,0.176l-0.026,0.188l0.026,0.218l-0.055,0.147l0.028,0.402l0.052,0.174l0.083,0.461
			l-0.054,0.121l-0.055,0.715l0.025,0.134l0.053,0.188l0.055,0.363l0.03,0.163l0.024,0.201l0.029,0.324l0.146,0.391l0.055,0.58
			l0.16-0.054l0.109,0.106l0.079,0.471l0.121,0.217l0.164,0.188h0.472l0.954,0.367l0.098,0.079l0.188,0.472v0.445l-0.164,0.388
			l-0.199,0.217l-0.218,0.055l-0.188-0.162l0.026,0.107v0.135l-0.147,0.107l-0.188,0.082l-0.137-0.053l-0.255,0.025l-0.323,0.027
			l-0.174-0.107l-0.554-0.27l-0.164-0.164l-0.133-0.066l-0.31-0.483l-0.082-0.096l-0.078-0.135l-0.164-0.271l-0.282-0.727
			l-0.054-0.349l-0.081-0.109v-0.095l-0.107-0.215l-0.055-0.27l-0.08-0.497l-0.081-0.365l-0.444-0.027h-0.108l-0.093,0.109
			l-0.486,0.443l-0.552,0.337l-0.257,0.107l-0.134,0.081l-0.394,0.106l-0.104,0.054l-0.163,0.109l-0.163-0.024l-0.229,0.024
			l-0.163,0.097l-0.713,0.051l-0.23-0.026h-0.187l-0.164,0.026H98.03l-0.687-0.081l-0.445-0.04l-0.458-0.105l-0.146-0.055
			l-0.243-0.055l-0.108-0.081l-0.176,0.054l-0.578-0.215l-0.243-0.121l-0.217-0.082l-0.121-0.078l-0.162-0.083l-0.162-0.107
			l-0.943-0.662l-0.267-0.105l-0.054-0.499l-0.257,0.133l-0.27-0.333l-0.229-0.218l-0.055-0.161l0.055-0.2l-0.109-0.297
			l-0.296-0.137l0.054-0.202l-0.025-0.161h-0.095l-0.164-0.109l-0.35-0.726l-0.175-0.485l-0.134-0.174l-0.054-0.162l-0.026-0.311
			l0.026-0.19l-0.055-0.133l-0.026-0.164l-0.028-0.176l-0.107-0.239l-0.038-0.218v-0.146l-0.03-0.164l-0.024-0.133l0.024-0.109
			l0.03-0.147l-0.055-0.107l-0.243-0.524l-0.027-0.189l-0.054-0.258l-0.027-0.107l-0.055-0.296l-0.173-0.146l-0.085-0.192
			l-0.157-0.267l0.024-0.204l0.218-0.297l0.091-0.107l0.109-0.201l0.216-0.47l0.188-0.636l0.121-0.214l0.218-0.365v-0.213
			l0.024-0.244l0.109-0.311l0.054-0.135l0.121-0.228v-0.164l0.378-0.793l-0.053-0.149l0.255-0.163l0.108-0.051l0.108-0.324v-0.096
			l0.212-0.351l0.123-0.309l0.323-0.109l0.109-0.107l0.108-0.28l0.146-0.191l0.135-0.16l0.162-0.203l0.282-0.188l0.109-0.055
			l0.242-0.188l0.23-0.203l0.16-0.023l0.391-0.243l0.271-0.084l0.133-0.052l0.229-0.176l0.324-0.053l0.121-0.108l0.876-0.19
			l0.794-0.174l0.176-0.026h0.108l0.24-0.027l0.609-0.027L99.219,195l0.31,0.027l0.214,0.026h0.176l0.135,0.028l0.188,0.023
			l0.285,0.122l0.241,0.083l0.107-0.029h0.08l0.121,0.029l0.053,0.135l0.473,0.134l0.163,0.054l0.107,0.095l0.162,0.055l0.443,0.297
			h0.082l0.281-0.029l0.379-0.268l0.176-0.23l0.133-0.241l0.27-0.311l0.176-0.082l0.134-0.133L104.403,194.677z"/>
		<path d="M111.557,198.151l0.164,0.03l0.472,0.161l0.107,0.079l0.121,0.08l0.351,0.149l0.133,0.079l0.23,0.108l0.134,0.083
			l0.445,0.214l0.821,0.473l0.309,0.027l0.379-0.19l0.338-0.134l0.269,0.027h0.121l0.163,0.106l0.161,0.312l-0.028,0.297
			l-0.024,0.134l-0.297,0.417l-0.393,0.271l-0.134,0.067l-0.203,0.133l-0.188,0.109l-0.216,0.163l-0.228,0.078l-0.029,0.204
			l-0.106,0.107l-0.027,0.214l0.027,0.15l0.027,0.243l-0.082,0.281l-0.108,0.134l-0.176,0.081l-0.296,0.028l-0.188-0.028
			l-0.525-0.16l-0.121-0.148l-0.108-0.027l-0.159-0.137l-0.633-0.442l-0.393-0.296l-0.242-0.23l-0.256-0.188l-0.108-0.136
			l-0.105-0.025l-0.364-0.338l0.146,0.363l0.055,0.272v0.121v0.375l-0.024,0.203l-0.03,0.188v0.324v0.175l0.03,0.298l0.105,0.255
			l0.324,0.215l0.148,0.027l0.135,0.027l0.078,0.053h0.219l0.496,0.176l0.204,0.026l0.633,0.133h0.214l0.366,0.188l0.401,0.108
			l0.205,0.151l0.216,0.052l0.134,0.027l0.199,0.054l0.244,0.135l0.311,0.391l0.081,0.405l-0.055,0.176l0.083,0.188l-0.055,0.282
			l-0.028,0.352l0.028,0.109l0.026,0.495l-0.081,0.259v0.242v0.106l-0.081,0.526l0.027,0.135l-0.027,0.12v0.109v0.443l0.027,0.135
			v0.298l0.054,0.176l0.215,0.16l0.054,0.16v0.107l-0.135,0.284l-0.24,0.242h-0.15l-0.431,0.055l-0.337,0.148l-0.215,0.027h-0.282
			l-0.364,0.133l-0.269,0.161l-0.31-0.079l-0.108,0.214l-0.218,0.123l-0.579,0.189l-0.133,0.106l-0.285,0.419l0.109,0.388v0.108
			l-0.08,0.325l-0.243,0.255l-0.338,0.108l-0.215-0.027l-0.176,0.027L110.011,213l-0.218-0.175l-0.282-0.135l-0.081-0.081
			l-0.216-0.163l-0.08-0.055l-0.283-0.254l-0.108-0.107l-0.161-0.135l-0.16-0.122l-0.419-0.24l-0.312-0.107h-0.47l-0.406,0.296
			l-0.108,0.309l-0.067,0.217l0.043,0.308l0.055,0.109l0.108,0.109l0.213,0.106l0.136-0.028l0.255-0.078l0.109-0.083h0.254
			l0.243,0.083l0.162,0.16l0.107,0.121l0.066,0.108l0.03,0.349l-0.03,0.095l-0.066,0.188l-0.162,0.271l-0.241,0.254l-0.497,0.109
			h-0.203h-0.297l-0.164-0.079l-0.121-0.03l-0.104,0.03l-0.138-0.108l-0.214-0.149l-0.42-0.375l-0.079-0.109l-0.079-0.146
			l-0.176-0.434v-0.147l-0.084-0.458l-0.025-0.31v-0.191l0.109-0.362l0.092-0.297l0.084-0.176l0.052-0.106l0.215-0.442l0.109-0.085
			l0.174-0.078l0.351-0.271l0.391-0.256l0.215-0.162l0.109-0.078l0.148-0.23l0.108-0.218l0.025-0.16l-0.025-0.228l0.08-0.271
			l0.363-0.363l0.27-0.054l0.581,0.054l0.2,0.108l0.35,0.174l0.363,0.214l0.296,0.217l0.109,0.121l0.282,0.188l0.242-0.079
			l0.23,0.242l0.659,0.391l0.364,0.135l0.324,0.025l0.188-0.025l0.096-0.107l0.08-0.188l-0.418-0.501l-0.188-0.418l-0.029-0.133
			l-0.024-0.255l0.054-0.688l-0.054-0.418l-0.148-0.083l-0.351-0.135l-0.202-0.052l-0.188-0.109l-0.217-0.055l-0.23-0.054
			l-0.078-0.122l-0.607-0.106h-0.189l-0.309-0.136l-0.499-0.188l-0.16-0.094l-0.217-0.054l-0.525-0.298l-0.163-0.2l-0.309-0.376
			l-0.079-0.229l-0.055-0.58l-0.028-0.296v-0.365v-0.352l0.083-0.28l0.024-0.137l0.029-0.16l-0.029-0.229l0.055-0.216l-0.079-0.134
			l0.024-0.205l0.109-0.213l-0.109-0.191l-0.079-0.388l-0.336-0.258l-0.055-0.135l0.026-0.295l0.106-0.175l0.176-0.134l0.243-0.085
			h0.105l0.139,0.03l0.28-0.054l0.107-0.031l0.419-0.103l0.324,0.079l0.176-0.055l0.161-0.079l0.336-0.097h0.215l0.338-0.055
			l0.135-0.052l0.106-0.027l0.218-0.082l0.079-0.107l0.066-0.189l-0.066-0.28l0.042-0.137l0.055-0.162l0.294-0.309l0.23-0.109
			L111.557,198.151z"/>
		<path d="M122.729,198.369l0.199,0.107l0.272,0.309l0.024,0.218l-0.079,0.363l0.055,0.242l0.176,0.203l0.106,0.212l0.107,0.085
			l0.136,0.158l0.417,0.15l0.552,0.216h0.27l0.23,0.079l0.633,0.109h0.902l0.121,0.025l0.379,0.028l0.228,0.122l0.106,0.188
			l-0.024,0.188l0.024,0.149l-0.106,0.162l-0.122,0.106l-0.081,0.081l-0.163,0.338l-0.104,0.525l-0.054,0.243v0.157v0.864
			l-0.082,0.164l-0.026,0.133l0.079,0.176l-0.079,0.324l-0.04,0.229v0.158l0.066,0.394v0.107l0.053,0.08l-0.025,0.243l-0.027,0.523
			l0.053,0.312l-0.025,0.715v0.525l0.055,0.968l0.025,0.216v0.254l0.162,0.635l0.109,0.139l0.105,0.134l0.177,0.023l0.105,0.164
			l0.109,0.202v0.134l-0.055,0.218l-0.133,0.146l-0.136,0.162h-0.174l-0.326,0.08l-0.2,0.081l-0.161,0.082l-0.109,0.121l-0.66,0.35
			l-0.203,0.133l-0.106,0.15l-0.214,0.215l-0.31,0.189l-0.191,0.147l-0.309,0.136l-0.322,0.08l-0.204,0.026l-0.162-0.026
			l-0.269-0.055l-0.174-0.216l-0.084-0.23l0.03-0.417l0.121-0.16l0.188-0.189l0.026-0.283l-0.053-0.188l-0.109-0.133l-0.052-0.08
			l-0.581-0.258l-0.283,0.028l-0.216,0.055l-0.201,0.146l-0.188,0.324l-0.135,0.027l-0.054,0.255l-0.055,0.215v0.189v0.174
			l-0.067,0.327v0.309v0.215l-0.026,0.442l0.052,0.634l0.066,0.109v0.254l0.109,0.526l0.109,0.245l0.054,0.241l0.16,0.23
			l0.337,0.269l0.216,0.257l0.08,0.243l-0.08,0.361l-0.35,0.188l-0.15,0.109l-0.401-0.025h-0.176l-0.269-0.108l-0.188-0.027
			l-0.312-0.216l-0.216-0.147l-0.107-0.109l-0.15-0.055l-0.429-0.551l-0.256-0.108l-0.082,0.026l-0.08,0.271l-0.055,0.149
			l-0.282,0.686l-0.322,0.446l-0.15,0.108l-0.079,0.106l-0.136,0.081l-0.107,0.079l-0.42,0.108l-0.134,0.04h-0.309l-0.161-0.066
			l-0.164-0.027l-0.105-0.055l-0.312-0.352l-0.025-0.415l0.134-0.393l0.23-0.297l0.133-0.051l0.082-0.083l0.188-0.146l0.309-0.082
			l0.188-0.188l0.109-0.257l0.176-0.607l0.055-0.351l0.026-0.7l0.08-0.484l0.055-0.727l-0.055-0.271l-0.025-0.284l0.025-0.106
			l-0.053-0.27l0.08-0.282l0.027-0.241l0.054-0.256v-0.108l-0.054-0.19l-0.027-0.74v-0.148l-0.08-0.551l-0.027-0.188l0.027-0.271
			l0.027-0.148l0.053-0.106l0.027-0.525l0.026-0.162l-0.081-0.688l0.027-0.176l0.16-0.024l-0.106-0.055l-0.134-0.324v-0.309
			l0.027-0.134l0.025-0.139l-0.025-0.549l0.025-0.285l-0.025-0.634l0.053-0.159l-0.027-0.191v-0.145l0.055-0.243l-0.027-0.578
			l-0.027-0.556l0.027-0.254l-0.053-0.54l-0.136-0.555l-0.079-0.12l-0.069-0.107l-0.105-0.08l-0.352-0.242l-0.122-0.392l0.067-0.188
			l0.163-0.203l0.079-0.052l0.473-0.085l0.415-0.055l0.487-0.133l0.526-0.255l0.364-0.215l0.106-0.027l0.311-0.228l0.133-0.108
			l0.417-0.188l0.189-0.137l0.474-0.201l0.105-0.055h0.138l0.255-0.053H122.729z M123.59,201.293H123.4l-0.176,0.055l-0.188,0.024
			l-0.109,0.12l-0.174,0.055l-0.135,0.028l-0.107,0.055l-0.241,0.054h-0.176l-0.134,0.08l-0.135,0.026l-0.283,0.081l0.079,0.364
			v0.109l0.066,1.467v0.321l0.03,0.366l0.079,0.134l-0.025,0.218l-0.108,0.175l0.024,0.213l0.055,0.084l0.055,0.174l-0.079,0.214
			v0.244l0.054,0.147v0.242l0.025,0.164l0.028,0.146l0.081,1.321v0.271l-0.055,0.471l-0.08,0.363l-0.029,0.163l-0.055,0.104
			l-0.066,0.138l0.15,0.282h0.377l0.175-0.027l0.134-0.055l0.364-0.078l0.215-0.031l0.163-0.023h0.133h0.149l0.162-0.067l0.31,0.067
			l0.109,0.023l0.212,0.164h0.164v-0.109l-0.028-0.199l-0.294-0.433l-0.138-0.148l-0.229-0.483l-0.054-0.205l0.028-0.107
			l-0.081-0.159l-0.055-0.23l0.055-0.688l0.081-0.025l0.133-0.054l-0.214-0.285l-0.055-0.105l0.055-0.661l-0.055-0.108l-0.026-1.078
			l0.081-0.497v-0.134v-0.244l0.026-0.201l-0.026-0.137l0.053-1.291l0.081-0.312l0.055-0.188l-0.027-0.109L123.59,201.293z"/>
		<path d="M133.735,198.288h0.162l0.364,0.081l0.419,0.188l0.496,0.312l0.349,0.31l0.206,0.078l0.16,0.216l0.188,0.026l0.081,0.161
			l0.203,0.151l0.497,0.157l0.134,0.109l0.191,0.055l0.105-0.024h0.176l0.27,0.052l0.254,0.054h0.217l0.162,0.122l0.109,0.188v0.218
			l-0.082,0.256l-0.215,0.241l-0.137,0.418l-0.025,0.134l-0.029,0.19v0.889l-0.066,0.441l0.043,0.191l-0.043,0.242l0.066,0.442
			l-0.023,0.636l0.023,0.174v0.688l-0.093,0.217l0.026,0.552v0.254l0.043,0.137l0.133,0.134l0.027,0.108v0.364l-0.027,0.323
			l0.055,0.177l0.053,0.134v0.336l0.028,0.188l0.026,0.526l0.08,0.134l0.161,0.055h0.121l0.135,0.025h0.138h0.188l0.282,0.229v0.379
			l-0.027,0.109l-0.107,0.2l-0.147,0.242l-0.219,0.285l-0.107-0.027l-0.08,0.134l-0.109,0.135l-0.12,0.137l-0.161,0.121
			l-0.026,0.104l-0.107,0.084l-0.188,0.135l-0.121,0.16l-0.029,0.23l0.029,0.108l0.078,0.106l0.149,0.312v-0.108l-0.083,0.512
			l-0.199,0.229l-0.163,0.053l-0.363,0.027l-0.377-0.108l-0.366-0.107l-0.188-0.094l-0.337-0.16v-0.109l-0.66-0.445l-0.134-0.188
			l-0.176-0.135l-0.27-0.256l-0.284-0.19l-0.133-0.188l-0.162-0.121l-0.242-0.079l-0.202,0.024l-0.324,0.205l-0.066,0.158
			l-0.055,0.581l0.31,0.324l0.083,0.31l-0.108,0.309l-0.446,0.162l-0.322,0.054l-0.282-0.025l-0.498-0.19l-0.378-0.147l-0.066-0.106
			l-0.188-0.218l-0.163-0.176l-0.282-0.188l-0.136-0.134l-0.161-0.055l-0.081-0.134l-0.362-0.229l-0.138-0.053h-0.442l-0.107-0.055
			h-0.162l-0.201-0.162l-0.054-0.096l-0.083-0.188l0.083-0.323l0.157-0.203l0.122-0.078l0.218-0.219l0.161-0.255l0.08-0.215v-0.109
			v-0.176l0.096-0.267v-0.243l-0.067-0.147l-0.028-0.352l0.055-0.146l0.066-0.138v-0.212l-0.066-0.138l-0.026-0.337l0.026-0.08
			l0.041-0.134l0.025-0.204l-0.025-0.847l-0.229-0.364v-0.244l0.133-0.174l0.204-0.161l0.107-0.054l0.389-0.055l0.433-0.054
			l0.122,0.027l0.376-0.053l0.109-0.055l0.146-0.029l0.19-0.025h0.337h0.136l0.105-0.029l0.445-0.2l0.136-0.108h0.335l0.271-0.188
			l0.283-0.203l0.214-0.267l0.082-0.418l0.08-0.215v-0.136v-0.12l0.175-0.352l-0.042-0.366l-0.051-0.242l-0.137-0.255l-0.443-0.472
			l-0.19-0.082l-0.158-0.079h-0.26l-0.376-0.218l-0.281-0.078h-0.219l-0.47,0.078l-0.473,0.379l-0.108,0.202v0.27v0.285l0.084,0.188
			l0.134,0.052l0.336-0.106h0.109l0.106,0.055l0.257,0.023l0.351,0.285l0.025,0.106l0.027,0.109l0.027,0.266l-0.027,0.449
			l-0.136,0.254l-0.243,0.245l-0.388,0.188l-0.298,0.055h-0.336l-0.242-0.055l-0.258-0.107l-0.269-0.08l-0.362-0.366l-0.162-0.188
			v-0.164l-0.028-0.107l-0.121-0.052l-0.026-0.311l-0.082-0.309l0.027-0.406l0.026-0.134v-0.203l0.121-0.322l0.028-0.229l0.46-0.66
			l0.066-0.163l0.213-0.173l0.527-0.297l0.19-0.109l0.47-0.134l0.269-0.176l0.471-0.16l0.258-0.285l0.026-0.079l0.055-0.188
			l0.053-0.246l0.338-0.254L133.735,198.288z M134.704,205.375l-0.309,0.202l-0.216,0.133l-0.242,0.055h-0.176l-0.241,0.107
			l-0.176,0.163l-0.134-0.027h-0.163l-0.161,0.148l0.027,0.188l0.026,0.188l0.055,0.258l0.081,0.794l0.026,0.137l-0.08,0.2
			l0.025,0.326l-0.053,0.806v0.296l-0.257,0.26l0.23,0.023l0.159,0.028h0.338l0.163,0.026l0.161-0.026l0.526,0.026l0.28,0.055
			l0.326,0.08l-0.083-0.189l-0.081-0.109l-0.133-2.126l-0.082-0.443l0.105-0.271L134.704,205.375z"/>
		<path d="M146.13,198.447h0.366l0.432,0.176l0.091,0.137l0.19,0.055l0.215,0.079l0.203,0.163l0.162,0.024l0.135,0.055l0.254,0.203
			l0.217,0.188l0.417,0.255l0.445,0.139l0.794,0.08l0.164,0.054l0.024,0.106l0.312,0.106l0.026,0.203l-0.026,0.323l-0.258,0.366
			l-0.161,0.442l-0.081,0.35l-0.024,0.258v0.214v0.337l-0.03,0.163l-0.055,0.442l0.03,0.164l0.024,0.445l-0.024,0.188l-0.203,0.524
			v0.108l-0.026,0.175l0.054,0.135v0.108v0.108l-0.081,0.632l0.081,0.081v0.418l0.067,0.657l0.055,0.26v0.213v0.337v0.109
			l-0.027,0.271v0.256v0.216l0.081,0.255l0.024,0.107l0.164,0.163l0.055,0.104l0.133,0.151l0.836,0.268l0.106,0.283l-0.024,0.294
			l-0.272,0.219l-0.28,0.176l-0.217,0.133l-0.176,0.137l-0.27,0.079l-0.336,0.393l-0.188,0.388l0.027,0.162l0.079,0.217v0.146
			l0.055,0.163l0.055,0.271l-0.055,0.175l-0.161,0.188l-0.27,0.108h-0.312l-0.159-0.082l-0.229-0.135l-0.19-0.08L148.232,213
			l-0.175-0.203l-0.134-0.078l-0.135-0.188l-0.312-0.084l-0.026-0.254l-0.215-0.271l-0.134-0.105l-0.108-0.094l-0.176-0.108
			l-0.242-0.08l-0.161-0.084l-0.258-0.188l-0.082-0.282l0.031-0.215l0.335-0.312l0.135-0.078l0.163-0.271v-0.121l0.024-0.352
			l0.029-0.229l-0.054-0.104v-0.108l-0.03-0.217v-0.283l-0.079-0.604l0.024-0.338l-0.052-0.108l0.027-0.497l-0.027-0.083
			l-0.054-0.159v-0.137l0.054-0.199l0.027-0.109l0.024-0.164l0.03-0.158l0.134-0.096l-0.164-0.027v-0.405l0.03-0.174l0.024-0.378
			l0.03-0.134l-0.03-0.284l0.03-0.134l-0.055-0.203l0.055-0.242l0.024-0.337l-0.024-0.16l0.054-0.215l0.173-0.81l0.053-0.242
			l0.163-0.109l-0.285-0.079l-0.212-0.121l-0.297-0.162l-0.176-0.135l-0.19-0.137h-0.104l-0.23-0.121l-0.352-0.241l-0.281-0.08
			l-0.419-0.055l-0.162,0.08l-0.079,0.188l0.024,0.151l0.135,0.24l0.122,0.162l0.052,0.201l0.029,0.163l0.055,0.352l0.025,0.7v0.078
			l0.029,0.109l-0.029,0.161l0.054,0.202v0.38l-0.024,0.254l-0.109,0.108l-0.174,0.08l0.174,0.107l0.025,0.149l0.108,0.579
			l0.027,0.269l0.027,0.189l0.027,0.202l-0.055,0.188l0.027,0.164l0.027,0.146v0.163l-0.027,0.106l-0.027,0.339v0.188l0.027,0.445
			l-0.134,0.605l-0.084,0.322l-0.145,0.176l-0.055,0.189v0.213l0.147,0.084l0.19,0.036l0.321,0.086l0.203,0.023l0.161,0.055
			l0.257,0.188v0.367l-0.097,0.242l-0.106,0.134l-0.297,0.336l-0.472,0.339l-0.08,0.104l-0.174,0.055l-0.136,0.394l-0.162,0.188
			l0.134,0.242l0.028,0.082l0.106,0.2l-0.025,0.352l-0.162,0.176l-0.526,0.161l-0.188-0.055l-0.283-0.106L143.206,213l-0.188-0.258
			l-0.255-0.159l-0.352-0.229l-0.176-0.271l-0.105-0.079l-0.188-0.083l-0.26-0.199l-0.213-0.108h-0.136l-0.255-0.08l-0.109-0.055
			l-0.133-0.084l-0.134-0.133l-0.055-0.146l0.025-0.324l0.081-0.176l0.243-0.219l0.188-0.103l0.229-0.582l0.025-0.391l-0.025-0.188
			l0.025-0.336l0.084-0.136v-0.161l-0.029-0.134l0.055-0.229l-0.025-0.188v-0.177l0.025-0.108l-0.08-0.243v-0.336l0.134-0.352
			v-0.391c0-0.087-0.008-0.149-0.025-0.188l0.025-0.121v-0.216l-0.079-0.135l0.054-0.283l0.025-0.714v-0.446l-0.025-0.133v-0.242
			l-0.028-0.176l-0.025-0.106l-0.055-0.164v-0.109l0.025-0.104l0.055-0.12l-0.025-0.19l0.025-0.136l-0.135-0.524l-0.741-0.026
			l-0.121-0.028l-0.35-0.255l-0.081-0.324l0.163-0.417l0.158-0.188l0.109-0.031l0.176-0.199l0.163-0.188l0.188-0.215l0.255-0.255
			L141.308,200l0.055-0.08l0.053-0.108v-0.121l-0.027-0.109l-0.025-0.108l-0.055-0.294l0.026-0.257l0.324-0.365l0.176-0.055
			l0.078,0.055l0.5,0.041l0.109,0.025l0.212,0.055l0.206,0.027l0.482,0.188h0.151l0.321,0.218l0.163,0.119l0.199,0.215l0.162,0.19
			l0.135,0.176l0.203,0.188l0.134,0.023l0.363-0.055l0.404-0.36l0.15-0.27l0.024-0.108l-0.121-0.282l0.097-0.325L146.13,198.447z"/>
		<path d="M153.796,198.395l0.285,0.027l0.242,0.025l0.079,0.109h0.136l0.23,0.148l0.214,0.243l0.137,0.055l0.121,0.054l0.134,0.146
			l0.35,0.219l0.202,0.188l0.245,0.337l0.188,0.133l0.174,0.03l0.296,0.024l0.149,0.055l0.215,0.148l0.188,0.242v0.079l-0.133,0.34
			l-0.216,0.375l-0.148,0.054l-0.16,0.066l-0.082,0.271l-0.082,0.498v0.083v0.16l-0.026,0.442l-0.052,0.662l0.023,0.39v0.164v0.309
			l-0.023,0.216l-0.03,0.254l-0.092,0.109l-0.108,0.378v0.148l0.146,0.27l0.107,0.055l0.109,0.255v0.406l-0.027,0.415l-0.228,0.133
			l0.255,0.176l-0.027,0.189l-0.027,0.217l0.055,0.203l0.027,1.076l0.054,0.351l0.054,0.133l0.08,0.121l0.23,0.109l0.188,0.055
			l0.188,0.107l0.148,0.135l0.108,0.121l-0.026,0.161l-0.082,0.164l-0.228,0.363l-0.242,0.133l-0.285,0.245l-0.324,0.279
			l-0.281,0.446l-0.052,0.108l-0.03,0.161l0.082,0.227l0.082,0.191v0.214L156.223,213l-0.297,0.243l-0.472-0.055l-0.256-0.106
			L154.982,213l-0.135-0.12l-0.31-0.242l-0.27-0.312l-0.133-0.025l-0.419-0.351l-0.364-0.176l-0.553-0.215l-0.135-0.025l-0.16-0.029
			l-0.176-0.078l-0.055-0.164l-0.108-0.121l-0.055-0.188l0.055-0.336l0.203-0.164l0.243-0.212l0.188-0.23l0.028-0.189l0.122-0.299
			l0.054-0.12l0.025-0.188l-0.025-0.188l0.08-0.31l-0.08-0.324l0.08-0.338v-0.55l0.023-0.34l-0.049-0.242l0.08-0.188l0.054-0.227
			v-0.352v-0.554v-0.28l-0.054-0.163l-0.109-0.309l0.029-0.163l0.104-0.188l-0.023-0.445l0.054-0.269l-0.03-0.149l-0.078-0.325
			l0.023-0.145l-0.023-0.432l-0.08-0.366l-0.096-0.188l-0.08-0.108h-0.216l-0.162-0.066l-0.121-0.109l-0.109-0.078l-0.054-0.243
			l0.054-0.391l0.204-0.188l0.16-0.204l0.108-0.052l0.282-0.245l0.188-0.229l0.055-0.158l0.136-0.163l0.149-0.109l0.026-0.121
			l-0.026-0.376l-0.121-0.366v-0.134l0.121-0.161l0.215-0.176L153.796,198.395z M154.402,193.315l0.312,0.027h0.134l0.217,0.175
			l0.08,0.137l0.096,0.025l0.188,0.188l0.35,0.392l0.121,0.163l0.08,0.107h0.107l0.339,0.28l0.133,0.055l0.216,0.241l0.229,0.312
			l-0.094,0.497l-0.582,0.392l-0.241-0.149l-0.107,0.109l-0.026,0.121v0.136l-0.08,0.106l-0.054,0.161l0.054,0.363l-0.028,0.163
			l-0.121,0.081l-0.107,0.202l-0.321,0.133h-0.284l-0.297-0.188l-0.176-0.053l-0.215-0.176l-0.164-0.218l-0.121-0.188l-0.133-0.121
			l0.026-0.133l-0.081-0.164l-0.445-0.106l-0.106-0.081l-0.16-0.122l-0.257-0.324l-0.054-0.362l0.23-0.393l0.377-0.267l0.415-0.242
			l0.23-0.175v-0.715l0.133-0.216L154.402,193.315z"/>
		<path d="M163.591,198.288h0.151l0.294,0.026l0.636,0.309l0.134,0.216l0.255,0.083l0.875,0.659l0.23,0.109l0.403,0.229l0.121,0.049
			l0.164,0.055l0.16,0.055l0.391,0.164l0.337,0.094l0.432,0.297l0.054,0.31l-0.027,0.162l-0.08,0.16l-0.081,0.107l-0.08,0.392
			l0.025,0.162v0.176l-0.108,0.376l-0.054,0.363l0.084,0.417l-0.084,0.299v0.134l0.029,0.176l-0.029,0.133v0.363l-0.052,0.137v0.242
			l0.026,0.176l-0.026,0.321v0.218l0.052,0.121l0.029,0.215l-0.029,0.162l-0.052,0.257l0.081,0.297v0.227l-0.029,0.137l-0.08,0.524
			l-0.066,0.109l0.121,0.078l-0.055,0.109l0.109,0.7l0.055,0.379l-0.055,0.079l0.024,0.176l-0.024,0.133l0.078,0.242l0.244,0.084
			l0.228,0.31v0.106l-0.121,0.202l-0.106,0.161l-0.107,0.055l-0.366,0.078l-0.104,0.055l-0.138,0.085h-0.189l-0.2,0.024l-0.191,0.08
			l-0.212,0.068l-0.526,0.242l-0.282,0.081l-0.5,0.188l-0.105,0.07l-0.609,0.268l-0.213,0.188l-0.108,0.175l0.024,0.217l0.137,0.254
			l0.051,0.327l-0.104,0.215l-0.473,0.31l-0.336-0.027l-0.135-0.053l-0.107-0.028l-0.084-0.08l-0.361-0.229l-0.297-0.052
			l-0.055-0.109l-0.229-0.026l-0.107-0.055l-0.108-0.082l-0.2-0.079l-0.109-0.122l-0.442-0.241l-0.351-0.312l-0.715-0.32
			l-0.203-0.082l-0.161-0.082l-0.133-0.066h-0.109l-0.339-0.162l-0.188-0.054l-0.176-0.242l0.082-0.285l0.335-0.388l0.055-0.163
			l0.109-0.242l0.078-0.312l0.043-0.321l0.026-0.081l0.083-0.619l0.023-0.634l0.137-0.109l-0.16-0.161v-0.39v-0.352v-0.118
			l-0.03-0.164l0.054-0.242l-0.023-0.148l-0.03-0.376l0.108-0.364v-0.162l-0.108-0.188l0.03-0.176l0.078-0.27l-0.108-0.109
			l-0.024-0.254v-0.109v-0.255l0.055-0.135l-0.055-0.162l-0.028-0.189l0.028-0.417l-0.028-0.215l-0.026-0.47l-0.148-0.366
			l-0.161-0.106l-0.163-0.191l-0.054-0.228l0.028-0.08l0.08-0.135l0.054-0.107l0.321-0.149l0.285-0.081l0.242-0.024l0.363-0.083
			l0.161-0.026l0.366-0.108l0.363-0.134l0.606-0.176l0.24-0.215l0.339-0.188l0.242-0.23l0.134-0.241l0.054-0.174l-0.026-0.297
			l0.026-0.109l0.122-0.203l0.215-0.159L163.591,198.288z M162.986,201.13l-0.217,0.081v0.161l0.028,0.12l0.107,0.217v0.526
			l0.028,0.499v0.352l0.025,0.12v0.081v0.133v0.271v0.147v0.137l-0.025,0.212l0.053,0.176v0.434l0.026,0.175l0.027,0.213
			l-0.054,0.245l-0.053,0.281l0.188,0.421v0.104l-0.135,0.352l0.026,0.203l-0.026,0.216l-0.081,0.227l0.054,0.109l-0.054,0.27
			l-0.053,0.527l-0.055,0.335l-0.106,0.244l-0.151,0.31l-0.054,0.133l0.122,0.138l0.404,0.158l0.176,0.03h0.106l0.351,0.091h0.257
			l0.134,0.031l0.552,0.105h0.164l0.282-0.027l0.054-0.2v-0.108l-0.31-0.351l-0.16-0.283l-0.085-0.526l0.03-0.188l0.055-0.688
			l0.024-0.283v-0.159l-0.024-0.082l0.024-0.254l-0.055-0.138l0.03-0.471l0.188-0.189l0.025-0.108l-0.159-0.31l0.025-0.241
			l0.134-0.31l-0.188-0.216v-0.136l-0.055-0.336v-0.524l-0.055-0.219l0.055-0.254v-0.297l0.055-0.188l-0.024-0.258l0.054-0.212
			l0.106-0.23v-0.217l-0.402,0.109l-0.176-0.055l-0.19-0.055l-0.214-0.134l-0.205-0.149l-0.158-0.161l-0.366-0.105L162.986,201.13z"
			/>
		<path d="M174.75,193.37l0.107,0.067l0.323-0.041l0.201,0.041l0.244,0.108l0.229,0.212l0.026,0.219l0.027,0.148v0.134l-0.107,0.242
			l-0.391,0.229l-0.136,0.024l-0.203,0.055l-0.297,0.139l-0.134,0.134l-0.121,0.146l-0.215,0.5l-0.055,0.108v0.109l-0.027,0.188
			l-0.027,0.47v0.309l-0.078,1.818l-0.067,0.796l-0.03,0.134l-0.055,0.206l0.122,0.212l-0.037,0.219l0.146,0.12v0.188l0.027,0.217
			l-0.052,0.199v0.297l-0.084,0.175l-0.092,0.326v0.162l0.055,0.146v0.109l-0.055,0.188l0.146,0.446v0.363l0.03,0.27v0.631
			l-0.084,0.085l-0.067,0.145v0.271l0.03,0.309l-0.03,0.218l-0.107,0.27l0.205,0.027l0.054,0.176v0.188v0.361l0.052,0.191
			l-0.027,0.136v0.55l0.027,0.259l-0.052,0.212l-0.084,0.245l0.054,0.201l0.082,0.297v0.229l0.055,0.161l0.027,0.136l0.026,0.254
			l0.082,0.216l0.052,0.188l0.176,0.098l0.606,0.16l0.27,0.242l0.026,0.109v0.279l-0.188,0.298l-0.394,0.338l-0.188,0.137
			l-0.079,0.2l-0.311,0.055l-0.135,0.107l-0.338,0.39l-0.08,0.19l0.163,0.363l0.146,0.133l0.055,0.271l-0.146,0.363l-0.218,0.218
			l-0.188,0.024l-0.257-0.055l-0.105-0.079h-0.138l-0.078-0.054l-0.256-0.134l-0.19-0.229l-0.214-0.138l-0.283-0.159l-0.108-0.137
			l-0.108-0.146l-0.079-0.027l-0.31-0.214l-0.392-0.163l-0.296-0.149l-0.23-0.079l-0.215-0.108l-0.297-0.164l-0.094-0.078
			l-0.054-0.146l-0.053-0.271l0.134-0.282l0.147-0.134l0.106-0.054l0.271-0.134l0.202-0.394v-0.579l0.082-0.163l-0.082-0.133
			l-0.026-0.176l-0.026-0.134l0.08-0.137l0.055-0.442v-0.188l-0.055-0.34l0.134-0.082v-0.188l0.029-0.2l0.025-0.297l0.055-0.163
			l-0.055-0.149l-0.109-0.054v-0.321l-0.133-0.418l0.026-0.337l0.082-0.242l0.055-0.446l-0.03-0.159l0.055-0.609l0.029-0.309v-0.134
			l-0.084-0.244l0.055-0.146l-0.055-0.109l-0.055-0.712l0.03-0.472v-0.326v-0.199l0.024-0.218l0.109-0.254l0.162-0.164l-0.162-0.215
			l-0.134-0.389l-0.03-0.218l0.03-0.121l-0.03-0.106l0.055-0.136l-0.024-0.392l-0.03-0.458l-0.024-0.309l-0.054-1.766l-0.08-0.392
			l-0.042-0.267l-0.026-0.284l-0.376-0.432l-0.176-0.121l-0.164-0.244l-0.054-0.28l0.137-0.245l0.229-0.159l0.431-0.028l0.443,0.055
			l0.229,0.055l0.297,0.078h0.106l0.502,0.312l0.255,0.188l0.162,0.163l0.296,0.308l0.147,0.135l0.161-0.055l0.055-0.133
			l-0.109-0.176l0.271-0.688l0.147-0.16l0.35-0.499l0.393-0.162l0.242-0.121L174.75,193.37z"/>
	</g>
	<path d="M84.649,248.132l-2.341-7.258h-1.676v7.258H78.4V232.5h2.792c0.977,0,1.788,0.101,2.433,0.302
		c0.646,0.2,1.161,0.482,1.544,0.85c0.385,0.366,0.655,0.807,0.812,1.322c0.157,0.514,0.235,1.085,0.235,1.714
		c0,0.384-0.027,0.73-0.082,1.038c-0.056,0.309-0.131,0.584-0.225,0.825c-0.093,0.241-0.197,0.453-0.315,0.638
		c-0.116,0.183-0.235,0.338-0.357,0.467c-0.286,0.308-0.613,0.529-0.981,0.663l2.52,7.813H84.649z M80.633,239.199h0.56
		c0.418,0,0.799-0.039,1.143-0.117c0.343-0.079,0.637-0.214,0.881-0.406c0.243-0.191,0.433-0.449,0.567-0.771
		c0.133-0.323,0.2-0.729,0.2-1.217s-0.067-0.895-0.2-1.218c-0.135-0.322-0.324-0.58-0.567-0.771
		c-0.244-0.191-0.538-0.327-0.881-0.406c-0.344-0.078-0.725-0.116-1.143-0.116h-0.56V239.199z"/>
	<path d="M97.46,243.107c0,0.697-0.072,1.361-0.218,1.989c-0.146,0.627-0.39,1.177-0.733,1.648c-0.343,0.472-0.8,0.846-1.373,1.125
		c-0.572,0.28-1.287,0.419-2.142,0.419c-0.581,0-1.097-0.064-1.544-0.191c-0.447-0.129-0.836-0.306-1.165-0.533
		c-0.329-0.227-0.606-0.5-0.833-0.819c-0.227-0.32-0.409-0.672-0.545-1.056c-0.137-0.384-0.234-0.794-0.292-1.23
		c-0.059-0.436-0.087-0.887-0.087-1.352v-5.583c0-0.465,0.028-0.916,0.087-1.352c0.058-0.437,0.155-0.847,0.292-1.23
		c0.136-0.384,0.318-0.735,0.545-1.056c0.227-0.319,0.504-0.592,0.833-0.819s0.718-0.404,1.165-0.532s0.963-0.192,1.544-0.192
		c0.854,0,1.569,0.14,2.142,0.419c0.573,0.279,1.03,0.654,1.373,1.125c0.344,0.472,0.588,1.021,0.733,1.648
		c0.146,0.629,0.218,1.292,0.218,1.989V243.107z M90.761,243.666c0,0.419,0.038,0.799,0.113,1.143
		c0.076,0.343,0.201,0.637,0.376,0.881c0.174,0.244,0.403,0.433,0.688,0.567c0.285,0.133,0.637,0.2,1.056,0.2
		c0.418,0,0.771-0.067,1.056-0.2c0.285-0.135,0.515-0.323,0.688-0.567c0.175-0.244,0.3-0.538,0.376-0.881
		c0.075-0.344,0.112-0.724,0.112-1.143v-6.7c0-0.419-0.037-0.799-0.112-1.143c-0.076-0.342-0.201-0.636-0.376-0.881
		c-0.174-0.244-0.403-0.433-0.688-0.566s-0.638-0.2-1.056-0.2c-0.419,0-0.771,0.066-1.056,0.2s-0.515,0.322-0.688,0.566
		c-0.175,0.245-0.3,0.539-0.376,0.881c-0.075,0.344-0.113,0.724-0.113,1.143V243.666z"/>
	<path d="M106,248.132l-3.995-10.398v10.398h-2.232V232.5h1.465l4.118,10.207V232.5h2.232v15.632H106z"/>
	<path d="M120.244,240.874h-2.792v5.583h3.908v1.675h-6.142V232.5h6.142v1.676h-3.908v5.023h2.792V240.874z"/>
	<path d="M127.748,240.845l1.785-8.345h2.231l-3.348,15.632h-2.376l-3.207-15.632h2.23l1.651,8.374l0.51,3.908L127.748,240.845z"/>
	<path d="M135.139,244.224l-0.784,3.908h-2.23l3.273-15.632h2.307l3.353,15.632h-2.15l-0.839-3.908H135.139z M137.707,242.55
		l-1.116-6.7l-1.116,6.7H137.707z"/>
	<path d="M149.316,248.132l-3.995-10.398v10.398h-2.232V232.5h1.464l4.118,10.207V232.5h2.232v15.632H149.316z"/>
	<path d="M157.687,248.289c-0.558,0-1.048-0.065-1.474-0.196c-0.425-0.131-0.792-0.305-1.106-0.524
		c-0.313-0.217-0.578-0.465-0.793-0.74c-0.216-0.276-0.393-0.56-0.531-0.851c-0.325-0.675-0.512-1.445-0.558-2.312l2.224-0.559
		c0.023,0.628,0.117,1.187,0.279,1.675c0.07,0.21,0.16,0.415,0.268,0.615c0.108,0.2,0.24,0.379,0.396,0.536
		c0.159,0.156,0.344,0.283,0.556,0.38c0.214,0.096,0.46,0.144,0.739,0.144c1.119,0,1.679-0.558,1.679-1.675
		c0-0.279-0.035-0.539-0.104-0.78s-0.174-0.475-0.314-0.698c-0.14-0.224-0.313-0.442-0.523-0.654
		c-0.209-0.212-0.453-0.432-0.732-0.659l-2.791-2.232c-0.285-0.228-0.534-0.485-0.746-0.772c-0.213-0.288-0.389-0.592-0.528-0.911
		c-0.139-0.32-0.242-0.646-0.31-0.977c-0.066-0.332-0.1-0.661-0.1-0.986c0-0.499,0.083-0.979,0.252-1.435
		c0.169-0.457,0.417-0.858,0.744-1.204c0.329-0.346,0.736-0.621,1.226-0.824c0.487-0.204,1.05-0.306,1.689-0.306
		c0.56,0,1.05,0.059,1.477,0.175c0.425,0.116,0.794,0.27,1.109,0.462c0.313,0.192,0.578,0.41,0.794,0.655
		c0.215,0.243,0.393,0.49,0.533,0.741c0.325,0.599,0.512,1.276,0.559,2.032l-2.233,0.558c-0.023-0.523-0.116-0.988-0.278-1.396
		c-0.072-0.174-0.16-0.345-0.268-0.51c-0.108-0.166-0.241-0.313-0.398-0.444c-0.157-0.132-0.342-0.237-0.555-0.319
		c-0.214-0.081-0.459-0.121-0.739-0.121c-0.292,0-0.543,0.044-0.756,0.135c-0.214,0.091-0.388,0.211-0.524,0.362
		c-0.138,0.15-0.238,0.327-0.303,0.531c-0.063,0.203-0.096,0.419-0.096,0.646c0,0.386,0.091,0.778,0.271,1.181
		s0.464,0.755,0.851,1.058l2.791,2.234c0.354,0.284,0.672,0.596,0.947,0.937c0.278,0.34,0.512,0.695,0.704,1.066
		c0.191,0.372,0.339,0.754,0.438,1.146c0.099,0.393,0.148,0.78,0.148,1.163c0,0.482-0.078,0.943-0.236,1.383
		c-0.156,0.439-0.396,0.828-0.721,1.164c-0.322,0.338-0.729,0.607-1.217,0.808C158.935,248.188,158.356,248.289,157.687,248.289z"/>
	<path d="M109.664,43.237"/>
</g>
<g id="Capa_15">
	<g>
		<path d="M188.538,140.119L188.538,140.119h-0.002c-0.838,0-1.731,0.121-2.652,0.359c-1.104,0.276-2.204,1.041-5.114,4.439
			c-1.537,1.791-3.501,4.235-5.838,7.259c-3.956,5.122-7.679,10.241-7.712,10.293l-1.812,2.484l2.553,1.713
			c0.395,0.264,2.457,1.566,4.817,1.566c1.397,0,2.644-0.452,3.627-1.291c0.149,0.012,0.306,0.017,0.464,0.017
			c2.696,0,5.848-1.477,7.768-4.072c0.033,0.002,0.069,0.002,0.107,0.002c3.068,0,6.387-2.545,7.232-5.56
			c0.271-0.979,0.296-1.95,0.085-2.882c0.665-0.453,1.271-1.03,1.794-1.731c1.102-1.483,1.734-3.437,1.734-5.358
			C195.59,143.097,192.691,140.119,188.538,140.119z"/>
		<path fill="#3A2005" d="M186.616,143.344c8.962-2.296,6.945,11.223,0.276,9.051c6.403,3.902-2.152,9.71-3.653,6.704
			c-1.069,4.05-6.248,5.801-7.939,4.457c-1.529,3.443-5.689,0.656-5.689,0.656S184.372,143.906,186.616,143.344z"/>
		<g>
			<path d="M62.217,146.612L62.217,146.612L62.217,146.612c0.838,0,1.728,0.122,2.653,0.356c1.099,0.278,2.2,1.042,5.112,4.436
				c1.535,1.796,3.499,4.239,5.839,7.267c3.95,5.121,7.675,10.235,7.713,10.285l1.809,2.488l-2.554,1.709
				c-0.395,0.265-2.46,1.57-4.815,1.57c-1.4,0-2.644-0.456-3.624-1.292c-0.157,0.011-0.313,0.016-0.47,0.016
				c-2.693,0-5.847-1.478-7.767-4.07c-0.032,0-0.071,0-0.104,0c-3.074,0-6.389-2.547-7.232-5.559
				c-0.274-0.979-0.297-1.951-0.085-2.88c-0.667-0.452-1.273-1.035-1.792-1.735c-1.107-1.487-1.74-3.438-1.74-5.359
				C55.159,149.586,58.055,146.612,62.217,146.612z"/>
			<path fill="#3A2005" d="M64.133,149.834c-8.959-2.299-6.945,11.224-0.277,9.055c-6.4,3.898,2.156,9.702,3.654,6.692
				c1.067,4.057,6.25,5.805,7.94,4.462c1.528,3.445,5.691,0.654,5.691,0.654S66.375,150.397,64.133,149.834z"/>
		</g>
		<g>
			<g>
				<g>
					<g>
						<path fill-rule="evenodd" clip-rule="evenodd" d="M57.391,152.507c2.481,4.75,6.414,7.594,8.785,6.356
							c2.361-1.238,2.269-6.093-0.217-10.843c-2.489-4.751-6.419-7.591-8.784-6.358C54.807,142.904,54.9,147.755,57.391,152.507z"/>
						<path d="M47.523,156.644c-3.988-9.217,4.899-13.632,4.899-13.632l4.752-1.35l9.909,16.098
							C67.084,157.76,52.437,167.269,47.523,156.644z"/>
						<path fill-rule="evenodd" clip-rule="evenodd" fill="#D1AB6F" d="M57.865,144.48c6.551,1.661,7.226,11.135,7.226,11.135
							s-10.171,6.925-14.121,0.19C47.028,149.076,53.86,144.628,57.865,144.48z"/>
						<path fill="#31738B" d="M63.589,149.846c0.657,5.627-2.57,7.212-5.289,8.665c3.533-0.729,6.791-2.896,6.791-2.896
							S64.723,151.812,63.589,149.846z"/>
					</g>
					<path fill-rule="evenodd" clip-rule="evenodd" fill="#D7DADD" d="M57.865,144.48c0,0-5.296,0.107-7.452,5.271
						c-0.612,2.487,11.809-2.258,10.76-3.43C59.987,145.049,57.865,144.48,57.865,144.48z"/>
				</g>
				<path fill="#FB9A00" d="M100.902,176.276c-44.066-11.127-70.869-56.023-59.751-100.09
					c11.124-44.065,56.024-70.874,100.092-59.75c44.071,11.122,70.875,56.024,59.749,100.09
					C189.872,160.593,144.974,187.392,100.902,176.276z"/>
				<path d="M140.798,18.196c43.17,10.892,69.333,54.717,58.438,97.89c-10.897,43.162-54.724,69.322-97.888,58.43
					c-43.17-10.898-69.331-54.718-58.434-97.887C53.809,33.463,97.636,7.304,140.798,18.196 M141.688,14.677
					C96.653,3.312,50.761,30.698,39.395,75.741c-11.37,45.038,16.024,90.926,61.065,102.293
					c45.039,11.367,90.925-16.03,102.292-61.066C214.118,71.931,186.724,26.044,141.688,14.677L141.688,14.677z"/>
				<path fill="#FBC100" d="M59.498,105.017c-8.227,10.272-7.482,23.695-5.651,27.939C25.935,92.46,47.144,35.81,95.752,19.964
					C79.235,27.481,45.415,59.299,59.498,105.017z"/>
				<path d="M140.798,18.196c-1.478-0.375-2.962-0.701-4.442-0.988c40.323,10.396,64.653,51.678,54.375,92.406
					c-3.133,14.026-12.397,30.901-28.953,41.331c-5.277,21.798-10.233,7.625-16.459,10.886c-14.349,5.813-30.565,7.299-46.684,3.231
					c-39.599-9.998-63.883-49.723-55.401-89.628c-0.107,0.399-0.218,0.792-0.318,1.194c-10.897,43.169,15.264,86.988,58.434,97.887
					c43.164,10.893,86.99-15.268,97.888-58.43C210.131,72.913,183.968,29.088,140.798,18.196z"/>
				<g>
					<path fill-rule="evenodd" clip-rule="evenodd" d="M195.672,132.249c-2.073,5.148-5.838,8.481-8.4,7.444
						c-2.562-1.028-2.964-6.041-0.884-11.192c2.08-5.146,5.838-8.475,8.402-7.441C197.354,122.092,197.752,127.101,195.672,132.249z
						"/>
					<path d="M206.259,135.507c3.171-9.908-6.433-13.547-6.433-13.547l-15.545,5.762l1.939,10.93
						C186.221,138.651,202.288,146.958,206.259,135.507z"/>
					<path fill-rule="evenodd" clip-rule="evenodd" fill="#D1AB6F" d="M194.364,124.031c-6.581,2.38-6.309,12.211-6.309,12.211
						s11.188,6.097,14.566-1.247C206.001,127.658,198.505,123.771,194.364,124.031z"/>
					<path fill="#31738B" d="M189.017,130.143c7.255,4.693,13.906,3.146,14.315,2.736c-1.894,10.465-15.276,3.363-15.276,3.363
						S188.049,132.287,189.017,130.143z"/>
				</g>
			</g>
			<polygon points="68.316,141.687 65.716,152.959 68.98,159.15 			"/>
		</g>
		<g>
			<path d="M90.438,91.573c-0.321,0-0.618-0.21-0.709-0.534c-0.02-0.065-0.466-1.637-0.96-4.413c-0.072-0.4,0.197-0.788,0.602-0.858
				c0.398-0.072,0.782,0.194,0.854,0.601c0.483,2.69,0.92,4.248,0.925,4.266c0.114,0.392-0.114,0.8-0.506,0.913
				C90.574,91.563,90.507,91.573,90.438,91.573z M88.842,82.847c-0.367,0-0.686-0.276-0.729-0.654
				c-0.179-1.461-0.324-2.963-0.425-4.452c-0.031-0.409,0.278-0.765,0.688-0.789c0.408-0.025,0.759,0.278,0.788,0.685
				c0.099,1.468,0.238,2.94,0.419,4.382c0.048,0.404-0.246,0.772-0.646,0.823C88.905,82.843,88.874,82.847,88.842,82.847z
				 M88.224,73.997c-0.402,0-0.732-0.325-0.739-0.729c-0.013-0.64-0.02-1.283-0.02-1.92c0-0.843,0.009-1.698,0.034-2.552
				c0.009-0.405,0.348-0.732,0.758-0.719c0.409,0.012,0.729,0.354,0.721,0.761c-0.022,0.836-0.035,1.679-0.035,2.51
				c0,0.625,0.008,1.264,0.02,1.892c0.007,0.41-0.315,0.745-0.723,0.758C88.235,73.997,88.229,73.997,88.224,73.997z M88.473,65.126
				c-0.021,0-0.04,0-0.062-0.003c-0.404-0.03-0.709-0.385-0.675-0.792c0.11-1.486,0.265-2.986,0.453-4.454
				c0.055-0.402,0.419-0.691,0.828-0.639c0.407,0.054,0.692,0.423,0.642,0.829c-0.188,1.443-0.339,2.918-0.449,4.374
				C89.178,64.833,88.854,65.126,88.473,65.126z M89.603,56.33c-0.043,0-0.086-0.005-0.136-0.014
				c-0.397-0.071-0.667-0.458-0.593-0.861c0.269-1.47,0.574-2.944,0.913-4.379c0.094-0.398,0.489-0.643,0.887-0.55
				c0.399,0.091,0.646,0.491,0.549,0.891c-0.329,1.413-0.632,2.859-0.893,4.303C90.267,56.074,89.952,56.33,89.603,56.33z
				 M91.635,47.694c-0.068,0-0.139-0.012-0.206-0.031c-0.393-0.111-0.621-0.521-0.505-0.915c0.418-1.44,0.867-2.877,1.341-4.266
				c0.136-0.384,0.556-0.59,0.942-0.456c0.387,0.131,0.591,0.552,0.459,0.937c-0.469,1.364-0.91,2.777-1.322,4.197
				C92.253,47.484,91.957,47.694,91.635,47.694z M94.512,39.306c-0.089,0-0.184-0.015-0.276-0.054
				c-0.38-0.151-0.562-0.582-0.41-0.96c0.565-1.402,1.169-2.786,1.794-4.105c0.17-0.373,0.613-0.529,0.983-0.353
				c0.367,0.174,0.528,0.617,0.354,0.983c-0.614,1.292-1.204,2.649-1.756,4.022C95.081,39.128,94.804,39.306,94.512,39.306z
				 M98.304,31.294c-0.119,0-0.242-0.035-0.355-0.094c-0.357-0.197-0.485-0.648-0.29-1.007c0.734-1.325,1.513-2.617,2.312-3.851
				c0.222-0.34,0.681-0.436,1.021-0.214c0.342,0.221,0.438,0.684,0.217,1.026c-0.779,1.198-1.539,2.464-2.258,3.756
				C98.819,31.155,98.566,31.294,98.304,31.294z M103.151,23.87c-0.156,0-0.313-0.051-0.449-0.151
				c-0.326-0.255-0.386-0.715-0.135-1.039c0.938-1.216,1.918-2.377,2.914-3.438c0.275-0.298,0.743-0.319,1.039-0.042
				c0.302,0.28,0.32,0.752,0.04,1.046c-0.962,1.031-1.907,2.155-2.822,3.337C103.594,23.771,103.375,23.87,103.151,23.87z
				 M109.219,17.41c-0.211,0-0.416-0.085-0.564-0.26c-0.264-0.311-0.226-0.775,0.087-1.044c1.829-1.553,3.005-2.211,3.056-2.239
				c0.359-0.194,0.807-0.07,1.005,0.288c0.199,0.354,0.07,0.809-0.288,1.008c-0.011,0.007-1.11,0.626-2.814,2.071
				C109.56,17.354,109.388,17.41,109.219,17.41z"/>
		</g>
		<path d="M177.211,89.729c-0.627-3.093-3.839-4.102-5.049-4.481c-1.559-0.486-3.516-0.887-5.587-1.312
			c-2.034-0.414-4.141-0.845-6.065-1.388c-4.334-1.228-7.74-3.584-7.776-3.607c-0.395-0.281-0.843-0.487-1.32-0.596l-7.27-1.793
			c0.038-2.43-0.08-5.864-0.778-9.48c-1.852-9.573-6.781-15.751-14.271-17.869c-0.205-0.057-0.414-0.097-0.62-0.122
			c-1.094-0.122-2.206,0.223-3.042,0.971c-0.996,0.894-1.466,2.232-1.241,3.552c0.714,4.246,1.099,10.043-1.141,13.53
			c-0.751,1.165-1.592,1.704-2.073,1.931c-4.939-0.558-20.66-1.729-31.726,4.057c-1.772-0.831-3.72-1.369-5.816-1.612
			c-5.396-0.616-10.696,0.916-13.804,2.093c-1.407-1.855-3.219-5.178-2.84-9.656c0.123-1.455-0.577-2.854-1.821-3.628
			c-0.497-0.313-1.053-0.507-1.618-0.567c-0.835-0.096-1.693,0.079-2.444,0.527c-6.536,3.909-8.431,9.307-8.866,13.14
			c-0.253,2.186-0.058,4.105,0.187,5.452c-1.483,2.095-4.868,6.353-9.608,9.233c-1.218,0.743-1.934,2.095-1.864,3.519
			c0.07,1.461,0.729,3.046,2.242,4.118c-2.478,4.021-5.046,9.824-4.523,16.055c0.102,1.166,0.717,2.225,1.684,2.889
			c5.697,3.9,11.361,6.196,16.834,6.822c5.957,0.68,10.803-0.675,14.467-2.52c0.021,0.688,0.062,1.398,0.14,2.131
			c-2.808,2.685-4.243,5.674-4.285,8.92c-0.066,5.81,4.527,9.688,5.049,10.108c0.567,0.457,1.255,0.744,1.977,0.838
			c0,0,0.056,0.007,0.169,0.019c1.526,0.171,9.57,1.007,18.087,0.243c12.348-1.098,19.912-5.038,22.479-11.713
			c0.017-0.033,0.031-0.073,0.042-0.105c0.444-1.264,0.814-3.216,0.125-5.45c2.108,0.591,4.409,1.062,6.89,1.347
			c6.394,0.732,12.915,0.052,19.387-2.012c7.741-2.475,15.452-6.955,22.92-13.329c0.454-0.392,0.815-0.879,1.051-1.43
			c0.896-2.088,0.599-4.63-0.918-7.748c1.042-0.395,2.173-0.843,3.302-1.326c2.452-1.06,4.33-2.05,5.746-3.035
			c1.054-0.731,1.846-1.46,2.437-2.227C177.477,92.359,177.389,90.606,177.211,89.729z"/>
		<path d="M138.664,129.356c21.021,13.785,18.025,37.867,17.99,41.483c-3.135,5.747-27.634,12.103-27.634,12.103
			s-4.226,2.516-8.221,2.697c-3.993,0.191-24.726,1.173-24.726,1.173l-18.817-8.812l-2.837-4.784l-6.171-2.486l-2.619-12.856
			C65.63,157.874,132.042,126.364,138.664,129.356z"/>
		<path fill="#8D1516" d="M69.544,138.895c-4.017,3.503,0.867,29.339,0.867,29.339s24.027,10.974,34.063,11.129
			c32.298,2.065,47.855-10.88,47.855-10.88l0.349-3.061c0,0,0.698-21.362-12.057-34.847c-7.727-7.157-17.552-3.323-17.552-3.323
			s-13.542,5.047-26.859,7.625C83.728,137.296,71.491,137.2,69.544,138.895z"/>
		<path d="M142.501,157.284c0,0,2.362,4.638,2.521,6.768c-0.079,5.501-15.558,16.276-15.558,16.276l-5.57,0.277L142.501,157.284z"/>
		<path fill="#D1AB6F" d="M130.889,128.539c2.031-0.421,10.129,20.247,13.127,35.234c0.065,1.709-11.114,12.589-19.424,16.087
			c-8.309,3.496-28.779,2.992-28.779,2.992s-12.179-4.401-19.387-10.815c-0.646-2.925-5.613-31.008-5.613-31.008
			S104.155,138.431,130.889,128.539z"/>
		<path d="M140.644,153.443c-7.088,2.675-24.5-20.229-24.5-20.229s2.395-9.995,15.531-9.195
			C150.302,126.136,150.387,147.232,140.644,153.443z"/>
		<path fill="#D1AB6F" d="M144.852,143.775c0.688-8.743-5.854-16.392-14.598-17.079c-8.749-0.684-16.395,5.851-17.083,14.599
			c-0.687,8.75,5.855,16.396,14.6,17.08C136.521,159.061,144.166,152.523,144.852,143.775z"/>
		<path fill="#B89656" d="M144.866,140.166v-0.006c-0.105-2.199-3.248-12.752-14.913-13.702c-0.201-0.007-0.378,0.077-0.529,0.222
			c-1.121-0.046-2.604,0.035-4.556,0.281c-4.18,0.427-8.725,6.021-8.725,6.021s-14.966,3.783-24.995,5.46
			c-10.031,1.678-16.007,1.909-20.336,2.588c2.272,12.953,5.613,31.008,5.613,31.008l19.387,10.815c0,0,22.047-0.12,28.779-2.992
			c2.1-0.732,15.281-8.059,19.424-16.087c0.198-1.145-2.57-10.867-2.57-10.867S146.249,147.06,144.866,140.166z M135.979,155.496
			c-2.834,9.4-21.419,18.961-26.168,14.472l2.302-3.307l-16.596,0.524l3.758,2.37c0,0,1.898,1.259,1.686,2.481
			c-6.585,3.612-12.921-1.304-12.919-1.307c0.428-0.131-5.066-15.234-9.085-21.438c-2.399-3.085-0.576-3.562-0.372-3.519
			c2.593,0.529,7.977-4.088,16.379-2.251c2.654-2.73,21.557,0.654,32.944-7.771c0.243-0.371,1.084-2.127,1.367-2.51
			c0,0,4.188-2.556,7.017,8.759c0.359,1.346,0,0,0,0C137.736,146.278,136.938,154.566,135.979,155.496z"/>
		<path fill="#8D1516" d="M128.035,52.953c14.609,4.138,12.045,26.61,12.045,26.61l10.404,2.556c0,0,3.864,2.732,8.965,4.177
			c6.063,1.719,13.561,2.323,13.943,4.203c0.698,3.456-14.652,8.201-14.652,8.201s4.286,5.697,3.165,8.312
			c-33.732,28.789-59.15,6.413-59.15,6.413l1.849,5.42c0,0,8.785,3.744,6.839,9.283c-4.961,12.863-36.631,8.979-36.631,8.979
			s-8.69-7.015,0.936-14.413c-1.266-7.34,0.774-12.538,0.774-12.538s-12.341,16.247-34.161,1.31
			c-0.815-9.692,7.61-18.604,7.61-18.604s-5.199,1.076-5.321-1.431C52.077,86.908,56.42,79.61,56.42,79.61
			s-3.519-10.004,6.489-15.99c-0.782,9.234,5.733,14.642,5.733,14.642s12.239-6.281,20.648-0.659
			c11.544-7.459,32.064-4.566,32.064-4.566S131.139,71.41,128.035,52.953z"/>
		<path fill="#CB0000" d="M76.379,110.566c0.268,8.479,0.789,12.998,0.789,12.998s-7.557,8.209-2.356,13.543
			c-8.773-8.468,1.233-14.622,1.233-14.622S74.254,116.169,76.379,110.566z"/>
		<path fill="#CB0000" d="M62.909,63.62c-7.301,6.885-4.03,14.073-3.645,16.346c0.104,4.875-8.871,9.917-8.871,9.917l0.373,2.2
			c0,0-3.991,10.605-1.838,23.12c-3.896-1.999-6.568-3.737-6.568-3.737c-1.175-8.267,7.61-18.604,7.61-18.604
			s-5.687,1.084-5.321-1.431c4.613-2.963,12.792-11.466,12.792-11.466S52.131,70.389,62.909,63.62z"/>
		<path fill="#CB0000" d="M128.035,52.953c7.887,12.465,0.442,23.512,0.442,23.512s-22.896-5.329-39.187,1.138
			c9.442-7.757,32.064-4.566,32.064-4.566S130.996,70.35,128.035,52.953z"/>
		<path fill="#D1AB6F" d="M98.115,100.533c-0.323-6.312,37.205-16.674,44.882-12.917c7.681,3.75,10.715,14.47,10.536,17.679
			c-11.447,10.753-22.893,12.835-32.385,11.146c-5.675-1.012-7.521-4.256-11.382-6.917
			C104.538,105.925,98.224,102.653,98.115,100.533z"/>
		<path fill="#31738B" d="M119.519,89.761c0,0-15.116,4.716-19.932,8.247c-1.335,1.198-1.494,2.041-1.472,2.525
			c0.123,2.996,12.653,8.94,12.653,8.94s-3.422-4.665-3.71-6.33C107.381,98.613,119.519,89.761,119.519,89.761z"/>
		<path d="M153.533,105.295c0.312-0.479,0.026-14.099-13.095-18.665c-13.918-2.062-39.376,8.184-41.766,12.397
			c2.983-2.429,28.144-12.234,40.807-10.159C148.688,90.385,152.116,100.086,153.533,105.295z"/>
		<path fill="#D1AB6F" d="M45.938,106.342c0.995-6.425,5.742-11.386,9.423-12.48c3.677-1.098,23.405,2.434,23.97,4.006
			c0.563,1.566-2.71,3.088-2.71,3.088s-4.179,7.974-7.858,9.572C65.089,112.127,45.118,111.214,45.938,106.342z"/>
		<g>
			<path fill="#31738B" d="M51.661,95.733l1.81,14.813c0,0-6.628-0.168-7.562-3.429C44.984,103.85,51.661,95.733,51.661,95.733z"/>
		</g>
		<path d="M63.915,110.547c-7.172,2.273-16.675-1.681-16.675-1.681s12.917,8.917,23.984,0c3.16-3.301,5.396-7.911,5.396-7.911
			S72.592,107.562,63.915,110.547z"/>
		<g>
			<g>
				<g>
					<polygon points="139.185,81.177 138.134,80.916 138.26,79.841 138.697,79.894 138.622,80.58 139.291,80.747 					"/>
				</g>
				<g>
					<path d="M138.852,78.116l-0.442-0.024c0.027-0.564,0.05-1.156,0.058-1.758l0.442,0.005
						C138.901,76.949,138.882,77.546,138.852,78.116z M138.456,74.573c-0.014-0.595-0.042-1.185-0.078-1.763l0.444-0.03
						c0.035,0.587,0.062,1.182,0.077,1.782L138.456,74.573z M138.223,71.057c-0.063-0.594-0.146-1.177-0.229-1.74l0.438-0.072
						c0.09,0.572,0.168,1.166,0.236,1.766L138.223,71.057z M137.678,67.584c-0.127-0.581-0.261-1.157-0.414-1.704l0.427-0.122
						c0.153,0.562,0.294,1.141,0.419,1.735L137.678,67.584z M136.745,64.203c-0.2-0.565-0.413-1.119-0.644-1.632l0.409-0.18
						c0.231,0.528,0.449,1.088,0.651,1.664L136.745,64.203z M135.327,61.004c-0.288-0.514-0.605-1.012-0.934-1.474l0.364-0.256
						c0.337,0.474,0.658,0.983,0.956,1.516L135.327,61.004z M133.295,58.178c-0.397-0.428-0.82-0.831-1.263-1.19l0.282-0.345
						c0.461,0.378,0.898,0.79,1.31,1.236L133.295,58.178z"/>
				</g>
				<g>
					<path d="M129.819,56.268c-0.026-0.291-0.056-0.584-0.092-0.882l-0.046-0.409l0.368,0.187c0.27,0.138,0.533,0.285,0.789,0.438
						l-0.228,0.385c-0.13-0.081-0.264-0.155-0.396-0.231c0.016,0.161,0.033,0.315,0.045,0.47L129.819,56.268z"/>
				</g>
				<g>
					<path d="M91.635,78.285l-0.211-0.393c0.503-0.274,1.042-0.537,1.591-0.784l0.18,0.409
						C92.655,77.754,92.129,78.015,91.635,78.285z M94.809,76.853l-0.157-0.418c0.542-0.195,1.104-0.389,1.677-0.567l0.132,0.422
						C95.896,76.467,95.34,76.659,94.809,76.853z M98.14,75.814l-0.112-0.431c0.56-0.145,1.139-0.278,1.723-0.401l0.092,0.437
						C99.266,75.54,98.694,75.675,98.14,75.814z M101.56,75.088l-0.076-0.436c0.568-0.094,1.153-0.191,1.744-0.269l0.06,0.438
						C102.702,74.905,102.121,74.995,101.56,75.088z M120.763,74.751c-0.094-0.01-0.205-0.021-0.331-0.035
						c-0.337-0.04-0.812-0.089-1.411-0.141l0.04-0.443c0.603,0.052,1.082,0.104,1.421,0.146c0.128,0.013,0.24,0.027,0.335,0.036
						L120.763,74.751z M105.026,74.614l-0.049-0.44c0.574-0.06,1.162-0.109,1.757-0.157l0.036,0.442
						C106.178,74.506,105.591,74.559,105.026,74.614z M122.578,74.531l-0.147-0.417c0.521-0.185,1.04-0.431,1.545-0.732l0.226,0.379
						C123.675,74.08,123.126,74.338,122.578,74.531z M117.275,74.44c-0.539-0.04-1.121-0.07-1.75-0.095l0.021-0.447
						c0.628,0.028,1.215,0.062,1.756,0.099L117.275,74.44z M108.52,74.353l-0.021-0.446c0.58-0.026,1.173-0.047,1.762-0.062
						l0.01,0.446C109.688,74.302,109.098,74.321,108.52,74.353z M113.774,74.287c-0.55-0.012-1.121-0.022-1.711-0.022h-0.043v-0.443
						h0.043c0.594,0,1.168,0.008,1.721,0.02L113.774,74.287z M125.657,72.715l-0.287-0.333c0.427-0.372,0.834-0.786,1.204-1.225
						l0.342,0.284C126.529,71.902,126.104,72.334,125.657,72.715z M127.962,69.989l-0.38-0.233c0.299-0.48,0.569-0.99,0.81-1.526
						l0.406,0.186C128.548,68.967,128.268,69.494,127.962,69.989z M129.433,66.748l-0.42-0.135c0.171-0.528,0.323-1.092,0.448-1.675
						l0.435,0.099C129.766,65.628,129.61,66.207,129.433,66.748z M130.198,63.288l-0.437-0.062c0.071-0.559,0.131-1.14,0.164-1.732
						l0.442,0.032C130.334,62.122,130.275,62.718,130.198,63.288z M130.425,59.758l-0.441-0.006v-0.098
						c0-0.533-0.013-1.086-0.043-1.646l0.446-0.021c0.027,0.562,0.038,1.126,0.038,1.667V59.758z"/>
				</g>
				<g>
					<polygon points="89.27,79.733 88.411,79.157 88.662,78.79 89.274,79.201 89.897,78.801 90.141,79.169 					"/>
				</g>
				<g>
					<path d="M70.985,79.164l-0.171-0.408c0.562-0.229,1.149-0.446,1.733-0.647l0.143,0.421
						C72.113,78.728,71.538,78.941,70.985,79.164z M86.851,78.267c-0.534-0.252-1.099-0.465-1.681-0.644l0.128-0.423
						c0.602,0.183,1.19,0.404,1.744,0.664L86.851,78.267z M74.433,77.995l-0.12-0.434c0.601-0.163,1.203-0.31,1.797-0.437
						l0.09,0.434C75.616,77.684,75.02,77.826,74.433,77.995z M77.991,77.249l-0.059-0.44c0.625-0.087,1.247-0.146,1.841-0.18
						l0.023,0.443C79.216,77.106,78.607,77.164,77.991,77.249z M83.409,77.237c-0.203-0.037-0.408-0.062-0.616-0.088
						c-0.386-0.043-0.781-0.073-1.184-0.091l0.018-0.441c0.41,0.014,0.82,0.046,1.217,0.091c0.215,0.025,0.428,0.054,0.636,0.088
						L83.409,77.237z"/>
				</g>
				<g>
					<polygon points="68.411,80.385 67.615,79.723 67.898,79.379 68.47,79.854 69.125,79.515 69.329,79.908 					"/>
				</g>
				<g>
					<path d="M66.176,78.318c-0.436-0.487-0.861-1.006-1.26-1.552l0.356-0.265c0.392,0.534,0.807,1.044,1.235,1.52L66.176,78.318z
						 M63.812,75.1c-0.337-0.578-0.656-1.168-0.936-1.769l0.403-0.187c0.275,0.586,0.58,1.167,0.916,1.729L63.812,75.1z
						 M62.123,71.48c-0.22-0.634-0.405-1.279-0.558-1.926l0.437-0.101c0.145,0.63,0.326,1.262,0.538,1.879L62.123,71.48z"/>
				</g>
				<g>
					<path d="M61.213,67.584c-0.021-0.147-0.034-0.297-0.05-0.44c-0.104,0.096-0.205,0.198-0.309,0.295l-0.314-0.31
						c0.211-0.209,0.431-0.417,0.655-0.622l0.334-0.293l0.033,0.443c0.026,0.287,0.054,0.582,0.092,0.869L61.213,67.584z"/>
				</g>
				<g>
					<path d="M57.269,77.203c-0.072-0.574-0.107-1.159-0.107-1.734v-0.088l0.44,0.009v0.079c0,0.558,0.036,1.125,0.106,1.681
						L57.269,77.203z M57.739,73.625l-0.441-0.067c0.093-0.606,0.231-1.208,0.41-1.779l0.423,0.133
						C57.959,72.463,57.826,73.038,57.739,73.625z M58.793,70.284l-0.395-0.202c0.272-0.541,0.593-1.063,0.957-1.559l0.357,0.259
						C59.364,69.259,59.057,69.763,58.793,70.284z"/>
				</g>
				<g>
					<path d="M57.865,80.657l-0.378-0.234l0.401-0.667l-0.208-0.592c0,0-0.02-0.054-0.051-0.161l0.425-0.125
						c0.026,0.085,0.041,0.132,0.047,0.139l0.275,0.787L57.865,80.657z"/>
				</g>
				<g>
					<path d="M49.442,90.192l-0.283-0.344c0.396-0.328,0.802-0.674,1.195-1.028l0.296,0.329
						C50.251,89.507,49.842,89.858,49.442,90.192z M51.817,88.057l-0.309-0.314c0.369-0.363,0.746-0.739,1.111-1.121l0.319,0.305
						C52.569,87.311,52.195,87.694,51.817,88.057z M54.022,85.747l-0.335-0.292c0.347-0.397,0.691-0.798,1.024-1.2l0.345,0.279
						C54.719,84.942,54.368,85.352,54.022,85.747z M56.044,83.279l-0.352-0.27c0.319-0.424,0.635-0.852,0.929-1.275l0.364,0.256
						C56.688,82.417,56.369,82.851,56.044,83.279z"/>
				</g>
				<g>
					<path d="M47.654,91.758c-0.112,0-0.222-0.003-0.332-0.011l-0.644-0.031l0.53-0.372c0.237-0.172,0.478-0.345,0.711-0.52
						l0.266,0.357c-0.056,0.039-0.111,0.083-0.167,0.119c0.061-0.003,0.126-0.007,0.188-0.01l0.026,0.446
						C48.037,91.749,47.839,91.758,47.654,91.758z"/>
				</g>
				<g>
					
						<rect x="50.709" y="90.155" transform="matrix(0.2092 0.9779 -0.9779 0.2092 129.3306 22.2136)" width="0.443" height="1.834"/>
				</g>
				<g>
					<polygon points="54.043,91.144 53.721,90.839 53.845,90.704 53.665,90.739 53.574,90.306 55.134,89.99 					"/>
				</g>
				<g>
					<polygon points="51.349,93.993 51.028,93.687 52.371,92.265 52.697,92.566 					"/>
				</g>
				<g>
					<path d="M49.54,96.191l-0.34-0.284c0.192-0.259,0.376-0.495,0.546-0.711l0.086,0.073c0.008-0.009,0.016-0.013,0.021-0.018
						l0.129,0.136l0.111,0.084c-0.003,0.006-0.008,0.013-0.013,0.018l0.08,0.079C49.954,95.768,49.746,95.978,49.54,96.191z"/>
				</g>
				<g>
					<path d="M62.318,113.033c-0.262,0-0.524-0.002-0.789-0.005l0.005-0.442c0.593,0.008,1.184,0.008,1.756-0.003l0.007,0.441
						C62.979,113.031,62.65,113.033,62.318,113.033z M59.757,112.973c-0.585-0.023-1.177-0.059-1.771-0.099l0.037-0.44
						c0.583,0.04,1.175,0.075,1.756,0.1L59.757,112.973z M65.07,112.951l-0.027-0.44c0.629-0.04,1.213-0.099,1.744-0.166
						l0.058,0.442C66.307,112.859,65.711,112.908,65.07,112.951z M56.225,112.719c-0.176-0.02-0.351-0.041-0.52-0.058
						c-0.427-0.051-0.838-0.103-1.241-0.155l0.062-0.444c0.398,0.057,0.808,0.112,1.229,0.159c0.17,0.018,0.34,0.035,0.516,0.052
						L56.225,112.719z M68.605,112.456l-0.115-0.427c0.313-0.083,0.578-0.181,0.81-0.273c0.242-0.107,0.494-0.237,0.746-0.396
						l0.237,0.381c-0.274,0.165-0.544,0.308-0.81,0.422C69.229,112.268,68.935,112.368,68.605,112.456z M52.712,112.228
						c-0.613-0.109-1.195-0.233-1.742-0.358l0.107-0.434c0.533,0.127,1.112,0.248,1.714,0.356L52.712,112.228z M49.259,111.397
						c-0.611-0.194-1.175-0.41-1.675-0.636l0.186-0.404c0.484,0.22,1.027,0.427,1.623,0.615L49.259,111.397z M71.723,110.659
						l-0.292-0.33c0.402-0.354,0.82-0.766,1.24-1.226l0.324,0.3C72.565,109.871,72.138,110.297,71.723,110.659z M46.016,109.873
						c-0.465-0.335-0.845-0.695-1.134-1.077c-0.055-0.075-0.11-0.149-0.16-0.223l0.373-0.247c0.042,0.069,0.091,0.135,0.144,0.202
						c0.256,0.348,0.606,0.68,1.031,0.982L46.016,109.873z M74.153,108.048l-0.349-0.278c0.349-0.434,0.703-0.908,1.054-1.403
						l0.36,0.261C74.863,107.125,74.505,107.604,74.153,108.048z M76.213,105.154l-0.371-0.242c0.314-0.487,0.627-0.99,0.927-1.492
						l0.383,0.224C76.846,104.158,76.533,104.663,76.213,105.154z M77.997,102.242l-0.212-0.381
						c0.306-0.179,0.771-0.457,1.221-0.806c0.07-0.05,0.138-0.105,0.206-0.16l0.281,0.34c-0.072,0.062-0.143,0.118-0.218,0.172
						C78.803,101.775,78.319,102.067,77.997,102.242z M80.703,99.864l-0.379-0.226c0.272-0.457,0.41-0.929,0.41-1.403
						c-0.002-0.047-0.002-0.1-0.007-0.15l0.442-0.026c0.002,0.056,0.005,0.117,0.005,0.177
						C81.175,98.789,81.017,99.337,80.703,99.864z M80.091,96.681c-0.314-0.271-0.8-0.53-1.48-0.794l0.163-0.418
						c0.727,0.289,1.255,0.571,1.608,0.875L80.091,96.681z M76.96,95.337c-0.504-0.146-1.07-0.298-1.695-0.453l0.104-0.434
						c0.63,0.161,1.205,0.311,1.716,0.46L76.96,95.337z M73.549,94.486c-0.559-0.125-1.133-0.248-1.721-0.362l0.088-0.44
						c0.589,0.122,1.171,0.241,1.733,0.366L73.549,94.486z M51.484,94.44l-0.267-0.352c0.486-0.373,0.99-0.709,1.486-0.99
						l0.221,0.382C52.441,93.757,51.956,94.081,51.484,94.44z M70.1,93.788c-0.572-0.108-1.153-0.207-1.737-0.308l0.074-0.438
						c0.587,0.101,1.168,0.202,1.742,0.312L70.1,93.788z M66.626,93.196c-0.59-0.086-1.169-0.17-1.743-0.247l0.063-0.438
						c0.575,0.077,1.157,0.162,1.748,0.249L66.626,93.196z M54.483,92.745l-0.15-0.418c0.176-0.062,0.345-0.123,0.521-0.171
						c0.186-0.058,0.544-0.165,1.25-0.23l0.04,0.444c-0.662,0.06-0.989,0.16-1.164,0.213C54.815,92.626,54.652,92.685,54.483,92.745
						z M63.137,92.726l-0.384-0.046c-0.483-0.059-0.938-0.1-1.364-0.145l0.041-0.441c0.428,0.04,0.887,0.088,1.377,0.146
						l0.383,0.042L63.137,92.726z M59.636,92.39c-0.64-0.041-1.229-0.065-1.751-0.072l0.007-0.441
						c0.527,0.008,1.126,0.031,1.772,0.073L59.636,92.39z"/>
				</g>
				<g>
					<path d="M44.443,106.808l-0.12-0.026l-0.188,0.011c0-0.018,0-0.03-0.002-0.049l-0.122-0.023
						c0.059-0.283,0.126-0.578,0.201-0.876l0.435,0.093l-0.03,0.195c-0.037,0.216-0.049,0.433-0.04,0.641l-0.125,0.007
						C44.448,106.786,44.445,106.797,44.443,106.808z"/>
				</g>
				<g>
					<path d="M44.151,108.745l-0.439-0.042c0.026-0.322,0.069-0.66,0.122-0.998l0.438,0.066
						C44.222,108.102,44.182,108.431,44.151,108.745z"/>
				</g>
				<g>
					<path d="M44.497,111.272c-0.248-0.154-0.498-0.314-0.749-0.486l-0.096-0.062l-0.003-0.111c-0.008-0.298-0.008-0.604,0-0.9
						l0.44,0.012c-0.004,0.254-0.007,0.505-0.002,0.758c0.215,0.144,0.431,0.28,0.646,0.418L44.497,111.272z"/>
				</g>
				<g>
					<path d="M60.017,116.443c-0.187,0-0.379-0.002-0.575-0.007l0.012-0.447c0.199,0.006,0.391,0.009,0.594,0.009
						c0.385,0,0.772-0.011,1.151-0.029l0.027,0.439C60.829,116.434,60.42,116.449,60.017,116.443z M57.663,116.312l-0.074-0.009
						c-0.557-0.062-1.124-0.149-1.684-0.257l0.081-0.435c0.552,0.101,1.106,0.187,1.651,0.25l0.077,0.009L57.663,116.312z
						 M63,116.23l-0.065-0.438c0.572-0.088,1.146-0.194,1.71-0.332l0.105,0.434C64.173,116.032,63.584,116.146,63,116.23z
						 M54.167,115.656c-0.563-0.15-1.137-0.319-1.704-0.51l0.14-0.423c0.561,0.189,1.124,0.355,1.678,0.499L54.167,115.656z
						 M66.461,115.4l-0.14-0.42c0.546-0.187,1.094-0.397,1.629-0.629l0.178,0.406C67.582,114.995,67.021,115.212,66.461,115.4z
						 M50.795,114.538c-0.542-0.213-1.093-0.451-1.634-0.7l0.187-0.403c0.538,0.245,1.077,0.48,1.608,0.689L50.795,114.538z
						 M69.729,113.969l-0.213-0.39c0.509-0.274,1.009-0.577,1.494-0.901l0.25,0.371C70.762,113.377,70.244,113.689,69.729,113.969z
						 M47.571,113.051c-0.516-0.267-1.038-0.557-1.556-0.858l0.221-0.38c0.513,0.299,1.029,0.581,1.537,0.847L47.571,113.051z
						 M72.701,112.005l-0.275-0.35c0.466-0.366,0.905-0.747,1.323-1.142l0.306,0.324C73.63,111.24,73.175,111.629,72.701,112.005z
						 M75.296,109.544l-0.342-0.289c0.088-0.101,0.136-0.161,0.143-0.173l0.926-1.218l0.356,0.265l-0.922,1.218
						C75.453,109.349,75.398,109.421,75.296,109.544z M77.444,106.727l-0.355-0.271l1.069-1.407l0.354,0.271L77.444,106.727z
						 M79.577,103.914l-0.352-0.271l1.065-1.403l0.353,0.269L79.577,103.914z"/>
				</g>
				<g>
					<polygon points="81.953,101.17 81.73,101.086 81.713,101.107 81.633,101.045 81.539,101.01 81.549,100.982 81.36,100.837 
						82.861,98.856 					"/>
				</g>
				<g>
					<path d="M76.829,120.81c-0.063-0.568-0.105-1.146-0.131-1.716l0.441-0.021c0.028,0.56,0.07,1.132,0.129,1.688L76.829,120.81z
						 M77.119,117.376l-0.439-0.009c0.009-0.575,0.041-1.154,0.089-1.721l0.441,0.037C77.163,116.243,77.131,116.81,77.119,117.376z
						 M77.414,114.002l-0.438-0.067c0.086-0.586,0.203-1.152,0.331-1.696l0.433,0.102C77.611,112.872,77.507,113.43,77.414,114.002z
						 M78.21,110.727l-0.412-0.162l0.622-1.592l0.416,0.163L78.21,110.727z M79.458,107.543l-0.412-0.16l0.625-1.594l0.409,0.159
						L79.458,107.543z M80.703,104.354l-0.412-0.16l0.623-1.593l0.416,0.164L80.703,104.354z"/>
				</g>
				<g>
					<polygon points="76.872,124.074 76.602,123.722 77.198,123.259 77.07,122.514 77.51,122.439 77.679,123.449 					"/>
				</g>
				<g>
					<path d="M85.184,136.322c-0.305,0-0.605,0-0.904-0.005l0.002-0.442c0.567,0.005,1.154,0.008,1.747,0.003l0.002,0.441
						C85.745,136.322,85.465,136.322,85.184,136.322z M82.522,136.284c-0.608-0.017-1.195-0.037-1.751-0.062l0.02-0.444
						c0.554,0.028,1.139,0.047,1.743,0.063L82.522,136.284z M87.786,136.284l-0.014-0.443c0.573-0.017,1.159-0.039,1.744-0.073
						l0.021,0.447C88.95,136.245,88.362,136.268,87.786,136.284z M79.02,136.127c-0.649-0.039-1.234-0.083-1.751-0.122l0.039-0.444
						c0.507,0.041,1.089,0.087,1.74,0.123L79.02,136.127z M91.288,136.103l-0.029-0.441c0.275-0.02,0.556-0.045,0.832-0.069
						c0.305-0.027,0.604-0.058,0.904-0.087l0.042,0.44c-0.297,0.028-0.603,0.06-0.91,0.087
						C91.85,136.057,91.569,136.082,91.288,136.103z M75.518,135.844l-0.123-0.015l-0.064-0.052
						c-0.282-0.271-0.708-0.717-1.144-1.292l0.351-0.266c0.417,0.551,0.828,0.977,1.099,1.237l-0.08,0.084L75.518,135.844z
						 M94.781,135.74l-0.057-0.441c0.589-0.083,1.167-0.17,1.721-0.262l0.077,0.434C95.962,135.566,95.381,135.657,94.781,135.74z
						 M98.245,135.144l-0.089-0.434c0.58-0.123,1.152-0.256,1.692-0.396l0.115,0.428C99.415,134.884,98.837,135.022,98.245,135.144z
						 M101.654,134.248l-0.139-0.422c0.568-0.186,1.117-0.386,1.629-0.594l0.168,0.412
						C102.789,133.855,102.231,134.059,101.654,134.248z M73.245,132.964c-0.278-0.567-0.475-1.14-0.585-1.702l0.437-0.087
						c0.1,0.523,0.285,1.062,0.548,1.599L73.245,132.964z M104.923,132.916l-0.199-0.399c0.529-0.272,1.03-0.562,1.488-0.864
						l0.243,0.368C105.988,132.331,105.469,132.635,104.923,132.916z M107.865,130.935l-0.299-0.331
						c0.441-0.393,0.829-0.813,1.163-1.247l0.353,0.269C108.734,130.08,108.323,130.52,107.865,130.935z M73.037,129.506
						l-0.44-0.059c0.077-0.58,0.249-1.16,0.515-1.736l0.402,0.188C73.266,128.432,73.107,128.971,73.037,129.506z M110.007,128.087
						l-0.403-0.187c0.061-0.127,0.119-0.26,0.168-0.389c0.105-0.316,0.164-0.64,0.164-0.963c0-0.078-0.006-0.152-0.011-0.229
						l0.441-0.039c0.005,0.089,0.01,0.178,0.01,0.269c0,0.372-0.063,0.749-0.188,1.112
						C110.129,127.812,110.069,127.949,110.007,128.087z M74.402,126.454l-0.354-0.269c0.344-0.444,0.747-0.886,1.204-1.318
						l0.307,0.321C75.118,125.602,74.729,126.032,74.402,126.454z M109.397,124.768c-0.254-0.435-0.609-0.877-1.052-1.318
						l0.316-0.314c0.467,0.47,0.843,0.944,1.121,1.406L109.397,124.768z M107.044,122.333c-0.437-0.334-0.922-0.654-1.438-0.959
						l0.229-0.38c0.524,0.312,1.022,0.645,1.479,0.983L107.044,122.333z"/>
				</g>
				<g>
					<path d="M104.07,120.56c-0.093-0.042-0.15-0.069-0.165-0.076l-0.73-0.31l-0.32-0.934l0.419-0.143l0.257,0.743l0.547,0.238
						c0.02,0.009,0.083,0.035,0.178,0.079L104.07,120.56z"/>
				</g>
				<g>
					<path d="M102.369,117.815l-0.486-1.418l0.421-0.142l0.485,1.417L102.369,117.815z M101.4,114.98l-0.485-1.421l0.421-0.143
						l0.481,1.419L101.4,114.98z M100.433,112.138l-0.484-1.421l0.42-0.143l0.485,1.418L100.433,112.138z"/>
				</g>
				<g>
					<polygon points="99.462,109.3 98.91,107.67 100.197,108.807 99.905,109.142 99.865,109.104 99.883,109.154 					"/>
				</g>
				<g>
					<path d="M127.469,120.371l-0.002-0.445c0.587-0.002,1.187-0.022,1.775-0.053l0.025,0.443
						C128.67,120.344,128.063,120.366,127.469,120.371z M125.671,120.344c-0.593-0.021-1.201-0.055-1.791-0.104l0.033-0.443
						c0.589,0.049,1.184,0.084,1.777,0.107L125.671,120.344z M131.059,120.178l-0.039-0.439c0.585-0.06,1.178-0.129,1.76-0.215
						l0.065,0.44C132.254,120.046,131.655,120.118,131.059,120.178z M122.089,120.046c-0.584-0.077-1.184-0.168-1.774-0.275
						l0.08-0.438c0.579,0.107,1.173,0.198,1.756,0.273L122.089,120.046z M134.617,119.672l-0.08-0.438
						c0.577-0.11,1.161-0.231,1.741-0.367l0.097,0.438C135.795,119.434,135.203,119.558,134.617,119.672z M118.553,119.412
						c-0.582-0.135-1.171-0.281-1.746-0.439l0.12-0.428c0.567,0.158,1.148,0.303,1.721,0.434L118.553,119.412z M138.116,118.857
						l-0.118-0.426c0.568-0.154,1.138-0.326,1.704-0.504l0.135,0.422C139.267,118.533,138.69,118.703,138.116,118.857z
						 M115.087,118.453c-0.568-0.183-1.138-0.386-1.698-0.596l0.16-0.416c0.552,0.211,1.117,0.412,1.674,0.588L115.087,118.453z
						 M141.541,117.774l-0.15-0.417c0.554-0.201,1.114-0.413,1.663-0.634l0.165,0.41
						C142.667,117.359,142.103,117.572,141.541,117.774z M111.723,117.181c-0.552-0.233-1.103-0.488-1.636-0.744l0.193-0.397
						c0.529,0.257,1.071,0.501,1.619,0.736L111.723,117.181z M144.873,116.438l-0.181-0.406c0.538-0.237,1.082-0.489,1.617-0.75
						l0.193,0.401C145.965,115.945,145.414,116.195,144.873,116.438z M108.484,115.615c-0.523-0.285-1.049-0.588-1.56-0.896
						l0.23-0.38c0.502,0.306,1.022,0.604,1.543,0.884L108.484,115.615z M148.105,114.878l-0.208-0.393
						c0.523-0.272,1.048-0.561,1.567-0.852l0.218,0.385C149.161,114.312,148.631,114.604,148.105,114.878z M105.411,113.743
						c-0.675-0.457-1.165-0.833-1.459-1.065l0.278-0.345c0.285,0.226,0.766,0.597,1.431,1.046L105.411,113.743z M151.232,113.115
						l-0.229-0.377c0.504-0.3,1.013-0.62,1.515-0.939l0.239,0.375C152.25,112.494,151.738,112.813,151.232,113.115z M102.592,111.5
						l-1.344-1.184l0.293-0.329l1.342,1.181L102.592,111.5z M154.255,111.187l-0.251-0.366c0.487-0.331,0.979-0.673,1.464-1.021
						l0.259,0.36C155.238,110.51,154.746,110.854,154.255,111.187z M157.174,109.101l-0.268-0.355
						c0.462-0.35,0.939-0.714,1.411-1.085l0.276,0.348C158.117,108.381,157.637,108.748,157.174,109.101z"/>
				</g>
				<g>
					<path d="M159.989,106.88l-0.286-0.341c0.202-0.168,0.403-0.334,0.605-0.509c0.002-0.154-0.012-0.39-0.084-0.72l0.432-0.097
						c0.08,0.364,0.112,0.683,0.093,0.944l-0.011,0.09l-0.072,0.06C160.441,106.502,160.215,106.693,159.989,106.88z"/>
				</g>
				<g>
					<path d="M159.741,103.891c-0.154-0.366-0.349-0.764-0.57-1.179l-0.101-0.189l0.388-0.212l0.104,0.191
						c0.228,0.427,0.427,0.836,0.587,1.212L159.741,103.891z M158.298,101.209c-0.375-0.594-0.695-1.049-0.859-1.271l0.362-0.259
						c0.161,0.225,0.487,0.691,0.871,1.291L158.298,101.209z"/>
				</g>
				<g>
					<polygon points="156.516,98.707 155.797,97.743 156.944,97.388 157.077,97.812 156.525,97.981 156.874,98.44 					"/>
				</g>
				<g>
					<path d="M158.71,97.306l-0.137-0.422c0.339-0.112,0.907-0.294,1.618-0.543l0.148,0.421
						C159.621,97.01,159.051,97.194,158.71,97.306z M161.955,96.187l-0.152-0.415c0.506-0.189,1.04-0.384,1.593-0.601l0.166,0.409
						C163.004,95.797,162.464,96.001,161.955,96.187z M165.146,94.94l-0.164-0.411l0.028-0.014c0.535-0.22,1.047-0.442,1.533-0.666
						l0.183,0.403c-0.485,0.224-1.006,0.452-1.539,0.674L165.146,94.94z M168.277,93.514l-0.202-0.398
						c0.55-0.278,1.049-0.557,1.482-0.815l0.227,0.38C169.344,92.949,168.835,93.225,168.277,93.514z"/>
				</g>
				<g>
					<path d="M171.224,91.694l-0.282-0.346c0.177-0.144,0.312-0.271,0.413-0.369c-0.148-0.062-0.325-0.13-0.528-0.198l0.138-0.423
						c0.368,0.125,0.651,0.236,0.854,0.351l0.236,0.125l-0.166,0.207C171.736,91.236,171.512,91.459,171.224,91.694z"/>
				</g>
				<g>
					<path d="M169.154,90.311c-0.49-0.118-1.042-0.246-1.697-0.387l0.097-0.438c0.657,0.144,1.216,0.271,1.71,0.395L169.154,90.311z
						 M165.748,89.562l-0.423-0.086c-0.423-0.086-0.854-0.174-1.297-0.264l0.095-0.439c0.438,0.097,0.869,0.185,1.29,0.269
						l0.422,0.084L165.748,89.562z M162.315,88.844c-0.619-0.141-1.181-0.269-1.711-0.399l0.108-0.437
						c0.526,0.133,1.08,0.264,1.697,0.401L162.315,88.844z M158.903,87.993c-0.555-0.156-1.119-0.34-1.68-0.531l0.145-0.421
						c0.557,0.191,1.112,0.373,1.66,0.524L158.903,87.993z M155.578,86.834c-0.537-0.223-1.082-0.461-1.611-0.713l0.187-0.401
						c0.527,0.247,1.065,0.485,1.593,0.7L155.578,86.834z M152.389,85.332c-0.521-0.281-1.038-0.571-1.536-0.865l0.23-0.38
						c0.488,0.292,0.995,0.579,1.513,0.855L152.389,85.332z M149.379,83.684l-1.699-0.414l0.108-0.434l1.699,0.417L149.379,83.684z
						 M145.982,82.849l-1.7-0.417L144.386,82l1.702,0.417L145.982,82.849z M142.584,82.013l-1.701-0.421l0.105-0.429l1.698,0.418
						L142.584,82.013z"/>
				</g>
			</g>
			<g>
				<path d="M126.958,118.747c-0.588-0.005-1.18-0.023-1.769-0.049l0.023-0.443c0.58,0.029,1.168,0.042,1.745,0.045V118.747z
					 M128.724,118.703l-0.021-0.443c0.58-0.032,1.162-0.074,1.738-0.133l0.042,0.438
					C129.902,118.628,129.31,118.673,128.724,118.703z M123.427,118.558c-0.125-0.013-0.25-0.024-0.38-0.042
					c-0.445-0.05-0.911-0.11-1.371-0.184l0.067-0.436c0.456,0.068,0.909,0.127,1.354,0.181c0.124,0.015,0.248,0.024,0.376,0.042
					L123.427,118.558z M132.239,118.346l-0.067-0.438c0.57-0.088,1.15-0.189,1.719-0.309l0.087,0.434
					C133.406,118.152,132.817,118.258,132.239,118.346z M119.935,118.01c-0.592-0.138-1.167-0.302-1.713-0.493l0.146-0.418
					c0.534,0.186,1.091,0.348,1.667,0.479L119.935,118.01z M135.698,117.638l-0.108-0.431c0.558-0.143,1.122-0.307,1.679-0.478
					l0.132,0.425C136.837,117.327,136.266,117.492,135.698,117.638z M116.578,116.83c-0.528-0.256-1.034-0.544-1.547-0.871
					l0.237-0.373c0.5,0.319,0.992,0.598,1.505,0.851L116.578,116.83z M139.073,116.59l-0.151-0.419
					c0.541-0.195,1.088-0.408,1.628-0.635l0.171,0.411C140.173,116.173,139.619,116.391,139.073,116.59z M142.337,115.229
					l-0.191-0.4c0.523-0.249,1.049-0.51,1.567-0.779l0.205,0.394C143.396,114.714,142.864,114.98,142.337,115.229z M113.582,114.927
					c-0.518-0.401-1.001-0.808-1.36-1.123l0.287-0.338c0.36,0.311,0.839,0.719,1.346,1.11L113.582,114.927z M145.463,113.586
					l-0.226-0.382c0.502-0.294,1.005-0.597,1.5-0.906l0.235,0.373C146.475,112.984,145.967,113.296,145.463,113.586z
					 M110.893,112.659c-0.52-0.436-0.945-0.788-1.357-1.103l0.271-0.352c0.415,0.318,0.85,0.673,1.373,1.116L110.893,112.659z
					 M148.445,111.697l-0.25-0.363c0.472-0.328,0.951-0.673,1.421-1.018l0.265,0.361
					C149.408,111.023,148.925,111.367,148.445,111.697z M108.112,110.555c-0.482-0.326-0.97-0.647-1.461-0.969l0.241-0.369
					c0.493,0.319,0.987,0.645,1.472,0.97L108.112,110.555z M151.282,109.599l-0.28-0.346c0.453-0.36,0.907-0.732,1.352-1.116
					l0.286,0.341C152.193,108.858,151.733,109.236,151.282,109.599z M105.174,108.641l-1.481-0.946l0.241-0.373l1.479,0.943
					L105.174,108.641z M153.967,107.314l-0.299-0.329c0.259-0.235,0.521-0.477,0.78-0.716l0.218-0.205l0.105-0.275l0.419,0.149
					l-0.152,0.38l-0.287,0.271C154.489,106.834,154.229,107.074,153.967,107.314z M102.218,106.743
					c-0.562-0.37-1.042-0.688-1.465-0.979l0.253-0.368c0.423,0.291,0.897,0.611,1.455,0.976L102.218,106.743z M99.322,104.726
					c-0.541-0.414-0.983-0.793-1.36-1.154l0.312-0.316c0.361,0.347,0.791,0.713,1.318,1.121L99.322,104.726z M155.487,104.134
					h-0.444v-0.03c0-0.502-0.053-1.066-0.154-1.679l0.437-0.072c0.108,0.635,0.162,1.222,0.162,1.751V104.134z M96.817,102.17
					c-0.295-0.511-0.457-1.018-0.482-1.548c-0.002-0.058-0.005-0.112-0.005-0.172v-0.062l0.442,0.004v0.058
					c0,0.052,0.003,0.1,0.007,0.15c0.023,0.455,0.164,0.898,0.426,1.345L96.817,102.17z M154.51,100.735
					c-0.151-0.539-0.329-1.097-0.534-1.659l0.418-0.149c0.208,0.574,0.389,1.143,0.542,1.688L154.51,100.735z M97.221,98.824
					l-0.394-0.213c0.265-0.482,0.636-0.968,1.104-1.441l0.312,0.31C97.806,97.925,97.463,98.373,97.221,98.824z M153.329,97.46
					c-0.182-0.415-0.379-0.834-0.576-1.229c-0.054-0.111-0.113-0.224-0.174-0.339l0.393-0.204c0.062,0.116,0.117,0.231,0.176,0.344
					c0.202,0.407,0.403,0.829,0.589,1.252L153.329,97.46z M99.555,96.37l-0.266-0.359c0.44-0.32,0.936-0.652,1.478-0.984
					l0.234,0.379C100.468,95.729,99.979,96.055,99.555,96.37z M102.517,94.547l-0.21-0.396c0.492-0.263,1.026-0.532,1.579-0.792
					l0.191,0.398C103.53,94.019,103.002,94.284,102.517,94.547z M151.727,94.368c-0.302-0.497-0.623-0.99-0.95-1.462l0.366-0.251
					c0.332,0.475,0.656,0.98,0.961,1.486L151.727,94.368z M105.666,93.03l-0.177-0.409c0.518-0.224,1.066-0.454,1.623-0.683
					l0.167,0.41C106.722,92.58,106.182,92.805,105.666,93.03z M108.909,91.711l-0.158-0.415c0.538-0.203,1.093-0.404,1.656-0.603
					l0.151,0.418C109.995,91.309,109.444,91.511,108.909,91.711z M149.736,91.511c-0.37-0.456-0.752-0.897-1.144-1.311l0.327-0.306
					c0.396,0.421,0.784,0.874,1.16,1.338L149.736,91.511z M112.214,90.543l-0.141-0.425c0.545-0.18,1.103-0.364,1.671-0.541
					l0.135,0.425C113.313,90.177,112.756,90.358,112.214,90.543z M115.556,89.485l-0.129-0.427c0.556-0.164,1.117-0.326,1.689-0.486
					l0.123,0.427C116.672,89.159,116.108,89.322,115.556,89.485z M147.354,88.981c-0.44-0.39-0.89-0.757-1.347-1.09l0.265-0.36
					c0.468,0.346,0.927,0.724,1.378,1.124L147.354,88.981z M118.93,88.537l-0.111-0.431c0.556-0.145,1.126-0.292,1.705-0.435
					l0.105,0.429C120.051,88.243,119.483,88.39,118.93,88.537z M122.332,87.689l-0.101-0.434c0.567-0.129,1.143-0.26,1.719-0.389
					l0.091,0.436C123.469,87.429,122.901,87.557,122.332,87.689z M125.761,86.942l-0.09-0.435c0.577-0.116,1.156-0.225,1.732-0.331
					l0.077,0.438C126.909,86.718,126.333,86.831,125.761,86.942z M144.563,86.938c-0.323-0.189-0.652-0.364-0.979-0.522
					c-0.176-0.091-0.362-0.168-0.557-0.243l0.154-0.415c0.208,0.081,0.41,0.169,0.601,0.261c0.331,0.159,0.673,0.343,1.003,0.538
					L144.563,86.938z M129.207,86.312l-0.07-0.435c0.584-0.095,1.165-0.188,1.742-0.269l0.064,0.438
					C130.365,86.13,129.79,86.222,129.207,86.312z M132.677,85.821l-0.05-0.436c0.596-0.07,1.188-0.134,1.754-0.186l0.038,0.444
					C133.858,85.691,133.271,85.751,132.677,85.821z M141.368,85.739c-0.278-0.05-0.572-0.092-0.884-0.127
					c-0.271-0.03-0.55-0.058-0.835-0.077l0.031-0.439c0.291,0.019,0.576,0.044,0.852,0.077c0.324,0.033,0.628,0.077,0.911,0.131
					L141.368,85.739z M136.163,85.524l-0.021-0.439c0.61-0.034,1.209-0.048,1.767-0.048v0.441
					C137.356,85.479,136.771,85.498,136.163,85.524z"/>
			</g>
		</g>
		<path d="M89.422,97.263c10.759-0.119,12.425,21.004,12.425,21.004s4.718,0.491,6.803,3.755c2.789,4.375,1.232,12.03-12.83,13.873
			c-10.435,5.422-15.187-0.08-15.461-1.14c-4.87-0.861-6.341-2.772-6.856-4.792c-1.259-6.7,3.845-8.884,3.845-8.884
			S76.406,97.352,89.422,97.263z"/>
		<path fill="#D1AB6F" d="M88.196,98.991c9.611-2.295,11.578,20.945,11.578,20.945s8.893,1.32,7.442,6.805
			c-2.927,6.752-11.753,6.671-11.753,6.671s-8.313,6.243-14.702-1.679c-7.67,1.487-7.255-8.479-1.844-9.044
			C78.746,118.766,80.075,100.837,88.196,98.991z"/>
		<path d="M96.432,132.981c0,0,2.271-3.778,5.265-3.294c1.915,0.571-0.04,2.192-0.854,1.849
			C99.42,130.983,96.432,132.981,96.432,132.981z"/>
		<path d="M79.201,97.69c-26.717-6.701-33.292,9.428-33.292,9.428s-0.504-0.989,0.866-4.43c2.354-5.915,9.662-16.245,30.097-6.245
			C77.715,96.795,78.718,97.247,79.201,97.69z"/>
		<g>
			<path fill="#D7DADD" d="M71.607,104.793c-1.894,5.598-7.967,8.601-13.566,6.707c-5.6-1.895-8.599-7.966-6.705-13.564
				c1.892-5.6,7.965-8.602,13.562-6.708C70.499,93.119,73.502,99.194,71.607,104.793z"/>
			<g>
				<path fill="#32330D" d="M71.715,103.296c-1.202,3.562-5.064,5.472-8.626,4.267c-3.563-1.203-5.469-5.063-4.266-8.624
					c1.206-3.562,5.066-5.472,8.624-4.269C71.01,95.877,72.918,99.739,71.715,103.296z"/>
				<path fill="#6B700A" d="M69.749,102.635c-0.662,1.967-2.794,3.019-4.763,2.352c-1.964-0.661-3.02-2.792-2.354-4.758
					c0.663-1.964,2.799-3.02,4.763-2.354C69.36,98.533,70.414,100.671,69.749,102.635z"/>
				<path fill="#D7DADD" d="M73.981,99.295c-0.664,1.964-2.797,3.02-4.764,2.357c-1.963-0.667-3.016-2.798-2.354-4.762
					c0.663-1.966,2.8-3.021,4.764-2.356S74.647,97.326,73.981,99.295z"/>
				<path d="M68.196,102.105c-0.546,1.617-2.3,2.487-3.916,1.939s-2.482-2.302-1.934-3.919c0.542-1.615,2.293-2.48,3.909-1.932
					C67.872,98.737,68.743,100.489,68.196,102.105z"/>
				<path fill="#D7DADD" d="M67.537,100.523c-0.319,0.941-1.343,1.445-2.283,1.129c-0.941-0.32-1.449-1.339-1.128-2.284
					c0.316-0.937,1.341-1.445,2.277-1.127C67.349,98.562,67.853,99.58,67.537,100.523z"/>
			</g>
		</g>
		<path fill="#3A2005" d="M74.068,105.405c0,0-18.573-1.068-22.977,2.712c0,4.483,7.577,6.305,7.577,6.305L74.068,105.405z"/>
		<path fill="#D1AB6F" d="M52.59,108.588c3.173-1.964,18.135-2.391,21.479-3.183c-1.172,7.382-8.232,10.195-11.781,10.285
			C59.84,115.26,52.562,112.048,52.59,108.588z"/>
		<g>
			<path fill="#D7DADD" d="M145.752,102.81c-0.938,8.183-8.325,14.058-16.508,13.123c-8.179-0.936-14.053-8.322-13.124-16.507
				c0.94-8.181,8.327-14.055,16.509-13.12C140.809,87.238,146.685,94.629,145.752,102.81z"/>
			<g>
				<path fill="#32330D" d="M143.099,102.492c-0.691,6.046-6.15,10.389-12.194,9.698c-6.047-0.693-10.388-6.153-9.697-12.201
					c0.691-6.041,6.149-10.385,12.199-9.693C139.451,90.989,143.79,96.447,143.099,102.492z"/>
				<path fill="#6B700A" d="M139.76,102.109c-0.376,3.34-3.394,5.734-6.732,5.354c-3.336-0.381-5.733-3.395-5.353-6.731
					c0.379-3.34,3.394-5.735,6.732-5.355C137.745,95.76,140.141,98.775,139.76,102.109z"/>
				<path fill="#D7DADD" d="M145.323,95.388c-0.383,3.334-3.402,5.727-6.734,5.351c-3.342-0.384-5.736-3.397-5.356-6.731
					c0.383-3.342,3.397-5.737,6.734-5.354C143.306,89.032,145.702,92.048,145.323,95.388z"/>
				<path d="M137.153,101.24c0,2.766-2.236,5.002-4.999,5.002c-2.764,0-5.005-2.236-5.005-4.999c0-2.759,2.239-5.001,5.003-5.001
					C134.914,96.242,137.153,98.479,137.153,101.24z"/>
				<path fill="#D7DADD" d="M135.401,99.491c-0.138,1.194-1.216,2.051-2.411,1.913c-1.193-0.132-2.053-1.215-1.916-2.408
					c0.138-1.192,1.218-2.052,2.411-1.916C134.683,97.218,135.54,98.296,135.401,99.491z"/>
			</g>
		</g>
		<path d="M98.406,101.338c1.859,2.922,8.264,6.152,11.61,8.499c1.824,1.279,3.83,3.131,5.34,4.194
			c3.384,2.375,5.636,2.441,8.503,3.075c7.145,1.581,13.146-0.948,17.364-2.501c9.1-3.358,12.31-9.311,12.31-9.311
			s-4.653,4.702-14.141,7.276C130.696,114.93,118.067,115.905,98.406,101.338z"/>
		<path d="M120.882,112.127c0,0-5.432-4.263-8.145-5.107c-3.354,4.148,8.775,10.633,10.681,10.468
			C125.322,117.321,120.882,112.127,120.882,112.127z"/>
		<path d="M117.087,107.352l26.023,8.206c0,0,7.542-4.098,5.739-8.538c-0.903-2.009-9.085-1.004-16.73-0.501
			C124.479,107.023,117.087,107.352,117.087,107.352z"/>
		<path fill="#D1AB6F" d="M112.737,107.02c0,0,7.118,1.012,15.041,0.911c8.932-0.11,18.836-1.281,19.955-0.161
			c0.836,0.703-1.693,10.945-17.324,11.849C123.906,119.507,112.686,111.2,112.737,107.02z"/>
		<path fill="#31738B" d="M129.953,149.293c-3.595,4.15-7.769,6.805-11.045,9.129c-19.179,13.615-29.656,1.495-29.656,1.495
			S112.028,162.225,129.953,149.293z"/>
		<polygon fill="#31738B" points="86.966,147.47 89.757,155.288 87.763,155.335 82.037,147.129 		"/>
		<g>
			<path d="M130.316,131.969c4.163,4.204,5.862,8.191,5.862,8.191S136.39,134.297,130.316,131.969z"/>
			<path fill="#3F0306" d="M88.042,150.265l1.901,5.565c0,0,22.971,3.623,36.332-6.802c3.375-2.628,4.333-7.768,5.844-12.277
				C122.228,149.549,88.042,150.265,88.042,150.265z"/>
			<path d="M130.785,140.968c-1.079-0.646-1.741-0.235-1.741-0.235s0.772,1,0.258,1.711c-0.511,0.703-0.854,0.186-0.854,0.186
				l-0.788-1.096c0,0-0.99,0.695-1.609,1.782c-0.896,1.873,0.005,3.121,0.005,3.121l4.15-1.198c0,0,0.723-1.208,1.102-3.794
				C131.139,141.24,130.964,141.076,130.785,140.968z"/>
			<path d="M129.575,144.604c-3.825-0.015-7.469,2.585-7.469,2.585s-7.988,0.105-10.559,9.158
				c14.005,1.084,16.832-8.937,16.832-8.937l1.573-2.202C129.953,145.209,129.888,144.854,129.575,144.604z"/>
			<path fill="#8D1516" d="M129.953,145.209c-7.788,0.07-9.854,6.043-9.854,6.043s-0.153-1.925,1.126-3.302
				c-7.364,1.438-8.276,7.634-8.276,7.634s11.15,1.275,16.384-5.802C130.216,148.698,130.184,146.496,129.953,145.209z"/>
			<path fill="#C9A9A9" d="M121.226,147.95l-1.128,2.962c0,0,1.801-3.464,4.771-4.608c-2.466,1.617-4.25,5.458-4.25,5.458
				s-1.657,3.643-7.669,3.822C114.676,148.628,121.226,147.95,121.226,147.95z"/>
			<path fill="#D7DADD" d="M132.705,135.477c-0.733,3.744-7.362,9.851-12.838,12.428c-14.423,6.798-36.604,3.041-36.604,3.041
				l-1.227-3.816C82.037,147.129,104.315,150.704,132.705,135.477z"/>
			<path fill="#B28646" d="M79.048,146.419c3.655-0.532,11.047-4.594,15.749-2.098c5.708-4.905,13.058,2.839,37.908-8.845
				c-24.942,14.207-43.622,12.784-50.668,11.652C80.805,146.93,79.505,146.493,79.048,146.419z"/>
			<path fill="#B28646" d="M86.053,156.045c0.659-1.753,9.779,0.106,15.135-0.295c1.863-0.271,17.633-2.398,22.905-5.169
				c5.27-2.771,7.56-12.21,7.56-12.21s-0.523,4.521-0.668,8.34c-0.433,2.232-1.291,4.792-10.838,9.39
				c-5.735,2.5-7.426,5.739-17.309,6.964C92.958,164.289,85.395,157.807,86.053,156.045z"/>
		</g>
		<path fill="#31738B" d="M72.106,147.868c0,0,3.536,21.758,4.319,24.169c0.854,0.936,4.834,3.83,8.714,5.925
			c5.274,2.842,10.673,4.891,10.673,4.891L79.858,170.73L72.106,147.868z"/>
		<path fill="#D7DADD" d="M92.192,99.62c4.222,13.114,3.56,25.023,3.56,25.023s0.963-1.415,2.363-1.949
			c2.328-0.893,5.965-0.759,9.149,1.949c-1.246-3.924-7.518-5.025-7.518-5.025S97.847,102.395,92.192,99.62z"/>
		<polygon points="79.048,124.644 77.79,122.963 78.911,122.485 		"/>
		<polygon points="72.177,149.293 74.068,171.205 76.426,172.037 		"/>
		<path fill="#D7DADD" d="M116.144,132.981c14.961-11.465,25.591-0.172,28.129,5.12
			C143.201,130.965,128.355,118.773,116.144,132.981z"/>
		<path fill="#31738B" d="M76.05,124.274c-0.857,2.373,0.115,4.815,3.325,4.26c6.001,8.749,16.089,4.878,16.089,4.878
			s-8.207,6.253-14.702-1.679c-1.604,0.543-3.29,0.276-4.497-0.888C74.499,129.155,74.249,126.726,76.05,124.274z"/>
		<path fill="#D1AB6F" d="M81.178,131.315"/>
		<path d="M79.201,127.898c0.551,2.19,1.561,3.835,1.561,3.835l-1.233,0.786C79.528,132.52,78.508,129.412,79.201,127.898z"/>
		<path fill="#31738B" d="M139.996,107.422c0,0,6.965-0.803,7.737,0.348c0.599,1.142-0.548,3.266-1.57,4.704
			c-0.63,0.896-1.262,1.517-1.262,1.517s1.145-3.797,0.56-5.124C144.875,107.534,139.996,107.422,139.996,107.422z"/>
		<g>
			<path d="M134.969,80.545c0,0,14.668,1.058,14.071,11.637c-0.529,1.701-5.607-0.188-11.86,0.003
				c-9.288,0.407-23.067,2.12-23.067,2.12L134.969,80.545z"/>
			<path fill="#D1AB6F" d="M115.318,86.596c-3.482,2.999-3.583,8.301-3.583,8.301s16.534-3.928,24.757-4.186
				c5.347-0.172,11.684,1.117,10.798-1.468c-0.553-1.514-1.581-4.794-5.19-6.613C136.863,79.988,126.223,78.02,115.318,86.596z"/>
			<path fill="#D7DADD" d="M113.857,88.236c-0.585,2.224-0.705,3.646-0.307,4.537c0.398,0.895,3.536,0.936,3.536,0.936l-5.352,1.188
				C111.735,94.896,112.063,90.133,113.857,88.236z"/>
		</g>
		<path d="M79.396,146.304c0,0,14.765,5.658,43.135-5.699c-21.197,10.698-40.025,7.196-40.025,7.196l0.758,3.145L79.396,146.304z"/>
		<path d="M86.053,156.045c5.204,9.602,20.521,6.386,20.521,6.386S90.778,168.021,86.053,156.045z"/>
		<path fill="#D1AB6F" d="M86.053,156.045c-0.018-1.899,13.094-0.354,15.135-0.295c2.042,0.058,17.721-3.33,17.721-3.33
			s-11.644,3.563-17.947,5.562C91.257,155.57,86.07,157.951,86.053,156.045z"/>
		<path fill="#D7DADD" d="M194.364,124.031c-0.832,0.072-2.284,1.307-2.284,1.307s6.416,0.167,10.291,2.561
			C199.344,123.937,195.196,123.954,194.364,124.031z"/>
		<path fill="#D1AB6F" d="M93.238,138.434c2.504-0.027,1.553,4.34,1.553,4.34s-1.251-1.415-1.821-2.638
			C92.605,139.342,92.521,138.633,93.238,138.434z"/>
		<g>
			<g>
				<path fill="#3A2005" d="M140.633,158.239c0.151,0.391-0.044,0.828-0.438,0.977c-0.39,0.149-0.825-0.045-0.976-0.439
					c-0.149-0.386,0.047-0.823,0.438-0.972C140.046,157.651,140.484,157.847,140.633,158.239z"/>
				<circle fill="#3A2005" cx="141.441" cy="163.217" r="0.758"/>
				<path fill="#3A2005" d="M139.026,166.032c0.121,0.312-0.037,0.665-0.353,0.789c-0.318,0.119-0.668-0.036-0.788-0.354
					c-0.123-0.312,0.035-0.671,0.354-0.787C138.552,165.558,138.904,165.714,139.026,166.032z"/>
			</g>
			<path fill="#3A2005" d="M81.783,169.509c0,0.314-0.256,0.566-0.569,0.566c-0.312,0-0.565-0.252-0.565-0.566
				c0-0.309,0.254-0.567,0.565-0.567C81.527,168.941,81.783,169.2,81.783,169.509z"/>
			<path fill="#3A2005" d="M83.178,171.706c0,0.183-0.149,0.331-0.328,0.331c-0.188,0-0.334-0.148-0.334-0.331
				c0-0.182,0.146-0.329,0.334-0.329C83.028,171.377,83.178,171.524,83.178,171.706z"/>
		</g>
		<g>
			<path d="M62.316,85.309c-15.458,1.849-14.232,14.19-14.011,15.288c5.814-3.528,15.024-4.636,15.024-4.636
				S62.793,84.792,62.316,85.309z"/>
			<path fill="#D1AB6F" d="M49.795,98.318c11.389-5.22,23.512-0.311,25.342-2.47c1.83-2.162-2.807-12.787-13.319-10.442
				C51.302,87.76,49.806,96.279,49.795,98.318z"/>
			<path fill="#D7DADD" d="M66.321,85.071c9.189,2.082,9.323,9.202,9.206,10.253c-0.122,1.051-2.227,1.097-2.227,1.097
				S74.499,91.243,66.321,85.071z"/>
		</g>
		<path fill="#3A2005" d="M81.247,78.205c1.279,3.723,0.002,12.681,0.002,12.681s-1.396,1.146-2.063,1.267
			c-1.48,0.271-3.349-0.448-6.517-1.287c-4.353-1.152-9.482-3.114-11.08-3.033c-3.282,0.166-16.506,5.188-16.506,5.188
			s-1.172-1.756,0.46-4.032c1.632-2.268,7.3-10.316,8.735-10.969c1.432-0.65,5.33,0.82,10.437,0.374
			C72.201,77.745,80.483,75.992,81.247,78.205z"/>
		<path fill="#3A2005" d="M101.011,64.771c-1.792,2.151-0.345,16.959-0.345,16.959l1.289,0.15c0,0,24.104-13.981,43.143-11.286
			c2.616,0.039,11.443,3.538,11.443,3.538s1.419-6.204,0.295-7.303c-1.123-1.092-6.973-7.199-12.935-8.796
			c-5.961-1.597-13.336,2.165-25.013,3.812C109.764,63.135,101.797,63.83,101.011,64.771z"/>
	</g>
</g>
</svg>
