<?xml version="1.0" encoding="utf-8"?>
<!-- Generator: Adobe Illustrator 16.2.1, SVG Export Plug-In . SVG Version: 6.00 Build 0)  -->
<!DOCTYPE svg PUBLIC "-//W3C//DTD SVG 1.1//EN" "http://www.w3.org/Graphics/SVG/1.1/DTD/svg11.dtd">
<svg version="1.1" xmlns="http://www.w3.org/2000/svg" xmlns:xlink="http://www.w3.org/1999/xlink" x="0px" y="0px"
	 width="242.942px" height="269.291px" viewBox="0 0 242.942 269.291" enable-background="new 0 0 242.942 269.291"
	 xml:space="preserve">
<g id="Capa_1">
	<path fill="#FFFFFF" d="M121.998,0l0.54,111.274l17.4-109.817L123.603,111.45L157.435,5.792l-32.805,106L174.06,12.9
		l-48.467,99.399l63.811-89.695l-62.938,90.351l76.619-78.29l-75.856,79.078l87.544-64.955l-86.909,65.856l96.312-50.021
		l-95.824,51.014l102.709-33.855l-102.375,34.916L235.261,99.84l-106.405,17.958l107.819,0.557l-107.819,0.557l106.405,17.957
		l-106.574-16.855l102.375,34.914l-102.709-33.854l95.824,51.011l-96.312-50.018l86.909,65.851l-87.544-64.951l75.856,79.074
		l-76.619-78.286l62.938,90.347l-63.811-89.691l48.467,99.395l-49.43-98.889l32.805,105.998l-33.832-105.654l16.334,109.989
		l-17.4-109.814l-0.54,111.271l-0.541-111.271L104.06,235.248l16.332-109.989l-33.83,105.654l32.802-105.999l-49.429,98.89
		l48.466-99.396l-63.809,89.692l62.937-90.347L40.91,202.04l75.856-79.074l-87.545,64.951l86.909-65.851L19.82,172.083
		l95.821-51.011L12.933,154.926l102.375-34.915L8.733,136.868l106.405-17.957L7.322,118.354l107.816-0.557L8.733,99.84
		l106.574,16.858L12.933,81.782l102.708,33.855L19.82,64.623l96.311,50.021L29.222,48.788l87.545,64.955L40.91,34.665l76.619,78.29
		L54.592,22.604l63.81,89.695l-48.466-99.4l49.429,98.894l-32.802-106l33.83,105.657L104.061,1.457l17.396,109.817L121.998,0z"/>
</g>
<g id="Capa_16">
	<g>
		<g>
			<polygon fill="#D9DADB" points="168.683,232.593 168.683,225.56 75.286,225.56 75.286,232.593 5.961,232.593 21.253,213.33 
				5.961,194.066 36.078,194.066 36.078,187.032 207.711,187.032 207.711,194.066 237.494,194.066 225.262,213.33 237.494,232.593 
							"/>
			<path d="M205.662,189.082v7.033h28.102l-10.931,17.215l10.931,17.213h-63.031v-7.032H73.235v7.032H10.207l13.664-17.213
				l-13.664-17.215h27.922v-7.033H205.662 M209.76,184.984h-4.098H38.127h-4.099v4.098v2.934H10.207H1.718l5.276,6.649
				l11.642,14.666L6.995,227.997l-5.276,6.646h8.488h63.029h4.101v-4.101v-2.932h89.299v2.932v4.101h4.099h63.031h7.459
				l-3.998-6.298l-9.536-15.015l9.536-15.016l3.998-6.298h-7.459H209.76v-2.934V184.984L209.76,184.984z"/>
		</g>
		<polygon fill="#B0B4B7" points="73.235,230.542 73.235,196.117 10.207,196.117 23.871,213.33 10.207,230.542 		"/>
		<polygon fill="#B0B4B7" points="233.764,196.117 170.733,196.117 170.733,230.542 233.764,230.542 222.833,213.33 		"/>
		<polygon points="33.981,194.567 33.981,226.03 63.576,232.729 74.766,231.886 41,194.567 		"/>
		<polygon points="209.773,194.432 209.773,225.897 180.178,232.593 168.989,231.75 202.754,194.432 		"/>
		<polygon fill="#8B8B8B" points="205.662,189.082 205.662,223.51 170.733,230.542 170.597,196.117 		"/>
		<polygon fill="#8B8B8B" points="38.127,189.082 38.127,223.51 73.056,230.542 73.192,196.117 		"/>
		<g>
			<rect x="52.802" y="220.592" fill="#FFFFFF" width="138.139" height="40.698"/>
			<path d="M188.941,222.592v36.698H54.802v-36.698H188.941 M192.941,218.592h-4H54.802h-4v4v36.698v4h4h134.139h4v-4v-36.698
				V218.592L192.941,218.592z"/>
		</g>
		<g>
			<path d="M76.183,249.29c-0.557,0-1.049-0.065-1.473-0.196c-0.425-0.131-0.792-0.306-1.106-0.523s-0.578-0.465-0.794-0.741
				c-0.215-0.276-0.393-0.56-0.531-0.851c-0.325-0.675-0.511-1.445-0.558-2.312l2.225-0.558c0.023,0.629,0.115,1.187,0.278,1.675
				c0.07,0.21,0.161,0.414,0.268,0.615c0.108,0.2,0.24,0.379,0.397,0.536c0.158,0.157,0.343,0.283,0.555,0.38
				c0.215,0.096,0.46,0.145,0.739,0.145c1.119,0,1.679-0.559,1.679-1.676c0-0.279-0.035-0.539-0.104-0.781
				c-0.069-0.241-0.174-0.474-0.313-0.697s-0.314-0.441-0.524-0.654c-0.209-0.212-0.452-0.432-0.731-0.658l-2.793-2.233
				c-0.284-0.228-0.532-0.483-0.745-0.772c-0.212-0.287-0.388-0.591-0.527-0.911c-0.14-0.319-0.243-0.646-0.311-0.977
				c-0.066-0.332-0.1-0.661-0.1-0.985c0-0.501,0.084-0.979,0.253-1.436s0.416-0.857,0.744-1.204c0.329-0.346,0.736-0.62,1.225-0.824
				c0.488-0.203,1.051-0.305,1.69-0.305c0.559,0,1.05,0.058,1.477,0.174c0.424,0.116,0.793,0.271,1.108,0.463
				c0.314,0.191,0.579,0.41,0.794,0.653c0.216,0.244,0.393,0.492,0.533,0.742c0.326,0.599,0.512,1.276,0.559,2.032l-2.233,0.559
				c-0.022-0.523-0.115-0.988-0.278-1.396c-0.071-0.176-0.161-0.346-0.268-0.512c-0.108-0.164-0.24-0.313-0.398-0.444
				c-0.156-0.131-0.342-0.236-0.554-0.317c-0.215-0.082-0.46-0.123-0.739-0.123c-0.292,0-0.543,0.045-0.758,0.136
				c-0.212,0.09-0.386,0.21-0.522,0.362c-0.138,0.15-0.238,0.328-0.303,0.532c-0.063,0.203-0.096,0.418-0.096,0.645
				c0,0.385,0.09,0.778,0.271,1.181c0.18,0.403,0.464,0.757,0.85,1.059l2.791,2.233c0.355,0.284,0.671,0.598,0.947,0.937
				c0.278,0.34,0.513,0.696,0.704,1.067c0.192,0.372,0.339,0.752,0.438,1.146c0.099,0.392,0.148,0.778,0.148,1.162
				c0,0.483-0.079,0.943-0.235,1.383c-0.157,0.439-0.397,0.827-0.722,1.165c-0.322,0.337-0.728,0.605-1.217,0.807
				C77.432,249.189,76.853,249.29,76.183,249.29z"/>
			<path d="M91.06,244.108c0,0.698-0.072,1.36-0.218,1.989c-0.146,0.628-0.39,1.178-0.732,1.648s-0.802,0.846-1.374,1.126
				c-0.573,0.278-1.287,0.418-2.142,0.418c-0.582,0-1.096-0.064-1.544-0.192c-0.448-0.127-0.837-0.305-1.164-0.531
				c-0.329-0.227-0.606-0.5-0.833-0.82c-0.228-0.319-0.409-0.672-0.545-1.056c-0.137-0.384-0.234-0.794-0.293-1.229
				c-0.059-0.437-0.088-0.887-0.088-1.353v-5.582c0-0.466,0.029-0.916,0.088-1.353c0.059-0.436,0.156-0.847,0.293-1.23
				c0.136-0.383,0.317-0.735,0.545-1.055c0.227-0.32,0.504-0.594,0.833-0.82c0.327-0.228,0.716-0.404,1.164-0.532
				s0.962-0.191,1.544-0.191c0.854,0,1.568,0.14,2.142,0.418c0.572,0.279,1.031,0.655,1.374,1.126s0.587,1.021,0.732,1.648
				s0.218,1.291,0.218,1.989V244.108z M84.361,244.666c0,0.42,0.038,0.8,0.113,1.143c0.075,0.345,0.2,0.639,0.375,0.882
				c0.175,0.244,0.404,0.434,0.689,0.567c0.284,0.134,0.637,0.201,1.056,0.201s0.771-0.067,1.056-0.201s0.515-0.323,0.688-0.567
				c0.175-0.243,0.3-0.537,0.375-0.882c0.076-0.343,0.114-0.723,0.114-1.143v-6.698c0-0.419-0.038-0.801-0.114-1.144
				c-0.075-0.343-0.2-0.637-0.375-0.881c-0.174-0.243-0.403-0.433-0.688-0.566s-0.637-0.201-1.056-0.201s-0.771,0.067-1.056,0.201
				c-0.285,0.134-0.515,0.323-0.689,0.566c-0.175,0.244-0.3,0.538-0.375,0.881s-0.113,0.725-0.113,1.144V244.666z"/>
			<path d="M99.6,249.133l-3.995-10.399v10.399h-2.232v-15.632h1.464l4.118,10.206v-10.206h2.232v15.632H99.6z"/>
			<path d="M106.569,249.133v-5.024l-3.35-10.607h2.232l2.237,7.816l2.229-7.816h1.995l-3.111,10.607v5.024H106.569z"/>
			<path d="M115.523,245.225l-0.783,3.908h-2.231l3.273-15.632h2.307l3.354,15.632h-2.15l-0.839-3.908H115.523z M118.091,243.55
				l-1.116-6.699l-1.116,6.699H118.091z"/>
			<path d="M134.936,238.526c0-0.559-0.037-1.047-0.113-1.466s-0.201-0.769-0.375-1.047c-0.175-0.279-0.404-0.488-0.688-0.629
				c-0.286-0.139-0.638-0.209-1.057-0.209c-0.418,0-0.771,0.07-1.055,0.209c-0.285,0.141-0.515,0.35-0.689,0.629
				c-0.175,0.278-0.3,0.628-0.375,1.047s-0.113,0.907-0.113,1.466v5.023c0,0.838,0.064,1.513,0.192,2.024
				c0.127,0.512,0.296,0.906,0.506,1.187c0.209,0.278,0.447,0.465,0.715,0.558s0.54,0.141,0.819,0.141
				c0.28,0,0.554-0.048,0.821-0.141c0.266-0.093,0.505-0.279,0.714-0.558c0.21-0.28,0.378-0.675,0.507-1.187
				c0.128-0.512,0.191-1.187,0.191-2.024v-0.558h-2.233v-1.675h4.467v7.815h-1.675l-0.559-1.674
				c-0.122,0.343-0.285,0.647-0.488,0.915c-0.088,0.116-0.188,0.23-0.301,0.341c-0.113,0.109-0.243,0.207-0.388,0.292
				c-0.146,0.084-0.306,0.152-0.481,0.205c-0.174,0.052-0.366,0.078-0.575,0.078c-0.465,0-0.897-0.039-1.3-0.117
				c-0.4-0.079-0.767-0.212-1.099-0.397c-0.331-0.187-0.625-0.434-0.881-0.741s-0.474-0.695-0.65-1.16
				c-0.177-0.466-0.311-1.013-0.401-1.641c-0.09-0.627-0.135-1.357-0.135-2.189v-3.96c0-0.838,0.076-1.607,0.227-2.312
				c0.152-0.703,0.401-1.309,0.75-1.814c0.35-0.506,0.809-0.901,1.378-1.187c0.57-0.284,1.274-0.427,2.111-0.427
				c0.738,0,1.386,0.114,1.941,0.344c0.556,0.23,1.02,0.564,1.396,1.004c0.375,0.438,0.657,0.981,0.847,1.626
				c0.188,0.646,0.283,1.382,0.283,2.208H134.936z"/>
			<path d="M145.728,249.133l-2.341-7.258h-1.675v7.258h-2.232v-15.632h2.791c0.977,0,1.788,0.101,2.433,0.301
				c0.646,0.201,1.161,0.485,1.545,0.852c0.384,0.365,0.654,0.807,0.811,1.321c0.157,0.514,0.235,1.086,0.235,1.714
				c0,0.384-0.026,0.73-0.082,1.038c-0.056,0.31-0.131,0.584-0.224,0.825c-0.094,0.241-0.198,0.454-0.315,0.637
				c-0.117,0.184-0.235,0.339-0.358,0.467c-0.285,0.309-0.613,0.529-0.981,0.665l2.521,7.812H145.728z M141.712,240.201h0.559
				c0.418,0,0.8-0.039,1.143-0.118c0.343-0.078,0.637-0.214,0.881-0.406c0.244-0.191,0.434-0.448,0.567-0.771s0.2-0.729,0.2-1.217
				c0-0.489-0.066-0.895-0.2-1.217c-0.134-0.323-0.323-0.581-0.567-0.771c-0.244-0.192-0.538-0.328-0.881-0.406
				c-0.343-0.079-0.725-0.118-1.143-0.118h-0.559V240.201z"/>
			<path d="M154.911,241.875h-2.792v5.584h3.908v1.674h-6.142v-15.632h6.142v1.675h-3.908v5.025h2.792V241.875z"/>
			<path d="M163.083,241.875h-2.791v5.584h3.907v1.674h-6.14v-15.632h6.14v1.675h-3.907v5.025h2.791V241.875z"/>
			<path d="M172.461,249.133l-3.995-10.399v10.399h-2.233v-15.632h1.465l4.118,10.206v-10.206h2.232v15.632H172.461z"/>
		</g>
		<rect x="38.127" y="189.082" fill="#D9DADB" width="167.535" height="34.428"/>
	</g>
	<path d="M173.718,201.381l1.484,3.043l3.392,0.524l-2.486,2.33l0.542,3.333l-3.021-1.606l-3.058,1.536l0.619-3.32l-2.432-2.383
		l3.404-0.446L173.718,201.381z"/>
	<path d="M73.896,200.902l1.483,3.046l3.391,0.521l-2.486,2.329l0.542,3.335l-3.021-1.606l-3.057,1.538l0.619-3.322l-2.431-2.384
		l3.404-0.449L73.896,200.902z"/>
	<g>
		<path d="M87.821,194.357l0.108,0.067l0.322-0.042l0.202,0.042l0.243,0.106l0.229,0.217l0.027,0.215l0.027,0.149v0.134
			l-0.108,0.243l-0.39,0.23l-0.135,0.026l-0.203,0.053l-0.296,0.135l-0.135,0.134l-0.121,0.15l-0.215,0.499l-0.055,0.105v0.108
			l-0.027,0.188l-0.027,0.473v0.31l-0.08,1.818l-0.067,0.795l-0.029,0.135l-0.053,0.202l0.121,0.216l-0.04,0.214l0.147,0.123v0.188
			l0.027,0.217l-0.053,0.201v0.298l-0.082,0.172l-0.093,0.325v0.162l0.054,0.148v0.107l-0.054,0.188l0.147,0.446v0.362l0.028,0.271
			v0.632l-0.082,0.08l-0.068,0.15v0.27l0.029,0.309l-0.029,0.214l-0.107,0.272l0.204,0.026l0.054,0.175v0.188v0.364l0.053,0.188
			l-0.027,0.135v0.552l0.027,0.256l-0.053,0.217l-0.082,0.243l0.054,0.201l0.081,0.297v0.228l0.054,0.162l0.027,0.135l0.025,0.255
			l0.083,0.217l0.053,0.188l0.175,0.094l0.606,0.163l0.27,0.242l0.027,0.106v0.284l-0.188,0.298l-0.391,0.335l-0.189,0.135
			l-0.081,0.204l-0.31,0.052l-0.134,0.108l-0.337,0.39l-0.081,0.191l0.164,0.362l0.147,0.136l0.054,0.269l-0.147,0.365l-0.217,0.214
			l-0.188,0.028l-0.256-0.055l-0.107-0.082h-0.135l-0.08-0.052l-0.256-0.136l-0.188-0.228l-0.216-0.134l-0.282-0.163l-0.109-0.135
			l-0.108-0.149l-0.081-0.026l-0.31-0.214l-0.39-0.163l-0.297-0.146l-0.229-0.083l-0.215-0.106l-0.297-0.163l-0.094-0.08
			l-0.054-0.15l-0.053-0.269l0.134-0.283l0.146-0.135l0.109-0.054l0.27-0.134l0.202-0.391v-0.58l0.081-0.161l-0.081-0.135
			l-0.028-0.175l-0.026-0.134l0.081-0.135l0.054-0.446v-0.188l-0.054-0.336l0.134-0.08v-0.189l0.028-0.204l0.026-0.294l0.054-0.164
			l-0.054-0.146l-0.109-0.054v-0.322l-0.134-0.42l0.028-0.337l0.081-0.244l0.054-0.444l-0.028-0.16l0.054-0.607l0.028-0.31v-0.134
			l-0.083-0.243l0.054-0.15l-0.054-0.106l-0.053-0.714l0.027-0.472v-0.325v-0.202l0.026-0.214l0.109-0.255l0.162-0.163l-0.162-0.214
			l-0.135-0.394l-0.027-0.214l0.027-0.121l-0.027-0.109l0.053-0.134l-0.026-0.39l-0.027-0.459l-0.027-0.31l-0.055-1.764l-0.08-0.391
			l-0.041-0.271l-0.026-0.282l-0.377-0.431l-0.176-0.122l-0.163-0.243l-0.054-0.283l0.135-0.243l0.228-0.16l0.432-0.028l0.445,0.055
			l0.229,0.055l0.296,0.079h0.107l0.5,0.31l0.256,0.188l0.161,0.163l0.296,0.31l0.148,0.134l0.161-0.054l0.054-0.134l-0.108-0.175
			l0.271-0.688l0.147-0.16l0.35-0.499l0.392-0.163l0.242-0.122L87.821,194.357z"/>
		<path d="M94.275,199.274h0.162l0.362,0.081l0.418,0.188l0.498,0.311l0.351,0.309l0.202,0.081l0.163,0.216l0.188,0.026l0.08,0.163
			l0.203,0.147l0.498,0.162l0.134,0.109l0.189,0.054l0.107-0.028h0.176l0.27,0.054l0.256,0.055h0.215l0.163,0.121l0.107,0.188v0.214
			l-0.082,0.255l-0.214,0.244l-0.135,0.417l-0.026,0.135l-0.027,0.189v0.89l-0.067,0.444l0.04,0.189l-0.04,0.242l0.067,0.444
			l-0.027,0.633l0.027,0.176v0.687l-0.094,0.215l0.027,0.552v0.255l0.04,0.138l0.135,0.135l0.027,0.105v0.365l-0.027,0.325
			l0.054,0.173l0.054,0.136v0.336l0.027,0.188l0.026,0.525l0.081,0.137l0.162,0.053h0.122l0.133,0.028h0.135h0.188l0.285,0.229
			v0.377l-0.029,0.106l-0.106,0.204l-0.149,0.243l-0.214,0.282l-0.109-0.026l-0.08,0.134l-0.108,0.134l-0.121,0.135l-0.162,0.122
			l-0.027,0.108l-0.108,0.08l-0.188,0.135l-0.121,0.163l-0.026,0.229l0.026,0.106l0.081,0.108l0.148,0.309v-0.108l-0.081,0.514
			l-0.202,0.228l-0.162,0.054l-0.363,0.027l-0.377-0.108l-0.365-0.108l-0.188-0.093l-0.337-0.163v-0.107l-0.661-0.445l-0.134-0.189
			l-0.176-0.134l-0.269-0.255l-0.284-0.189l-0.133-0.188l-0.163-0.121l-0.243-0.083l-0.201,0.028l-0.323,0.202l-0.068,0.162
			l-0.054,0.579l0.31,0.323l0.081,0.311l-0.107,0.309l-0.446,0.163l-0.322,0.055l-0.283-0.028l-0.498-0.189l-0.378-0.147
			l-0.068-0.108l-0.188-0.215l-0.161-0.175l-0.284-0.188l-0.135-0.135l-0.162-0.055l-0.081-0.133l-0.364-0.23l-0.134-0.054h-0.444
			l-0.108-0.055h-0.162l-0.202-0.16l-0.053-0.096l-0.081-0.189l0.081-0.322l0.161-0.202l0.122-0.083l0.216-0.214l0.162-0.256
			l0.081-0.216v-0.108v-0.174l0.095-0.27v-0.243l-0.067-0.147l-0.028-0.351l0.053-0.147l0.067-0.135v-0.216l-0.067-0.135
			l-0.025-0.335l0.025-0.083l0.042-0.135l0.025-0.202l-0.025-0.849l-0.23-0.362v-0.243l0.135-0.175l0.203-0.163l0.106-0.054
			l0.392-0.055l0.43-0.051l0.121,0.026l0.378-0.054l0.106-0.055l0.149-0.026l0.188-0.028h0.336h0.135l0.107-0.026l0.444-0.202
			l0.136-0.107h0.337l0.268-0.189l0.284-0.202l0.215-0.271l0.081-0.416l0.082-0.217v-0.135v-0.121l0.175-0.351l-0.042-0.363
			l-0.053-0.243l-0.135-0.255l-0.444-0.473l-0.189-0.079l-0.162-0.083h-0.255l-0.377-0.216l-0.283-0.079h-0.215l-0.472,0.079
			l-0.472,0.377l-0.108,0.202v0.271v0.282l0.082,0.188l0.135,0.055l0.337-0.107h0.108l0.107,0.053l0.256,0.029l0.349,0.282
			l0.028,0.108l0.027,0.108l0.026,0.269l-0.026,0.445l-0.135,0.255l-0.242,0.244l-0.39,0.188l-0.297,0.055h-0.337l-0.243-0.055
			l-0.255-0.109l-0.27-0.079l-0.364-0.365l-0.16-0.188v-0.16l-0.028-0.108l-0.122-0.055l-0.025-0.311l-0.083-0.309l0.028-0.404
			l0.026-0.137v-0.202l0.12-0.323l0.029-0.229l0.457-0.659l0.067-0.163l0.216-0.176l0.525-0.297l0.189-0.105l0.472-0.138
			l0.269-0.173l0.473-0.162l0.256-0.284l0.025-0.081l0.054-0.188l0.055-0.243l0.337-0.255L94.275,199.274z M95.246,206.361
			l-0.31,0.202l-0.216,0.134l-0.243,0.054h-0.175l-0.242,0.109l-0.175,0.162l-0.136-0.027h-0.161l-0.162,0.15l0.028,0.188
			l0.025,0.189l0.054,0.255l0.082,0.795l0.027,0.135l-0.082,0.202l0.027,0.323l-0.055,0.808v0.297l-0.255,0.255l0.229,0.026
			l0.16,0.028h0.338l0.161,0.026l0.163-0.026l0.525,0.026l0.283,0.054l0.322,0.083l-0.08-0.191l-0.081-0.106l-0.135-2.13
			l-0.081-0.444l0.107-0.27L95.246,206.361z"/>
		<path d="M121.195,195.878l0.188,0.109l0.107,0.08l0.108,0.176l0.068,0.297l-0.149,0.753v-0.122l-0.108,0.256l-0.134,0.055v0.134
			l-0.336,0.338l-0.162,0.294l-0.135,0.338l-0.028,0.189v0.188l-0.107,0.201l0.053,0.243l-0.053,0.633l0.027,0.23v0.297l0.053,0.282
			l0.055,0.188l0.026,0.285v0.16l-0.054,0.108l-0.027,0.189l0.081,0.498l0.083,0.338v0.295l-0.055,0.229l-0.054,0.323l-0.055,0.176
			l-0.147,0.242l-0.191,0.135l-0.16,0.108l-0.285,0.094l-0.322,0.054l-0.229-0.121l-0.27-0.215l-0.108-0.216l-0.105-0.202
			l-0.042-0.458l0.042-0.175l0.052-0.243l0.054-0.31l-0.08-0.403l-0.026-0.15l-0.042-0.134l-0.108-0.269l0.108-0.284l-0.025-0.135
			l-0.083-0.134l-0.054-0.201l0.083-0.138l-0.137-0.242v-0.282l-0.08-0.162l-0.188-0.135v-0.201l-0.054-0.243l-0.176-0.284
			l-0.214-0.431l-0.311-0.416l-0.108-0.082l-0.215-0.174l-0.202-0.163h-0.188l-0.162-0.133l-0.284-0.109l-0.431-0.175h-0.524
			l-0.204-0.026l-0.498,0.147l-0.107,0.082l-0.163,0.026l-0.768,0.499l-0.337,0.402l-0.162,0.23l-0.108,0.189l-0.093,0.134
			l-0.081,0.096l-0.054,0.162l-0.027,0.241l-0.081,0.229l-0.135,0.244l-0.027,0.079l-0.081,0.176v0.163l-0.121,0.349l-0.028,0.121
			l-0.107,0.325l-0.053,0.551l-0.136,0.337l0.028,0.189l-0.028,0.109l-0.026,0.172v0.163l-0.08,0.269l0.134,0.338l-0.028,0.161
			l-0.134,0.418l0.054,0.217l-0.094,0.202l-0.054,0.188l0.054,0.135v0.133l-0.027,0.202v0.108l0.068,0.243l0.134,0.055l0.107,0.095
			l0.028,0.106l-0.028,0.216l-0.053,0.256l-0.027,0.189l0.027,0.08l0.134,0.028v0.107l-0.027,0.284l0.027,0.269l-0.027,0.309
			l0.134,0.393l-0.026,0.134l-0.053,0.189v0.498l0.053,0.107l0.136,0.135l-0.055,0.256l-0.108,0.444l0.027,0.109l0.081,0.16
			l0.121,0.418v0.297l0.108,0.391v0.133l0.108,0.311v0.216l0.162,0.081l0.081,0.256l0.229,0.352l0.081,0.201l0.365,0.297
			l0.106,0.109l0.27,0.2l0.135,0.055l0.227-0.028l0.163,0.028l0.499,0.135h0.134l0.176-0.081h0.161h0.27l0.108-0.083l0.174-0.054
			l0.108-0.054l0.243-0.025l0.309-0.23l0.216-0.106l0.365-0.363l0.161-0.189l0.054-0.134l0.283-0.473v-0.108l0.162-0.311
			l0.188-0.795l0.067-0.188l-0.04-0.174l0.04-0.083l0.134-0.16l0.054-0.256l-0.026-0.271l0.026-0.282l0.082-0.163l0.052-0.269
			l-0.026-0.176l0.055-0.243l0.188-0.189v-0.201l-0.108-0.135l0.054-0.795l0.054-0.121l0.094-0.163l0.082-0.109l0.244-0.241
			l0.281-0.175l0.297,0.055l0.134-0.028l0.31,0.23l0.163,0.349l0.053,0.31v0.501v0.105v0.271l-0.053,0.201v0.297v0.134l-0.135,0.365
			l-0.028,0.16l0.109,0.338l-0.029,0.134l-0.025,0.256l0.189-0.054l-0.189,0.188l0.134,0.323l-0.026,0.122v0.216l0.026,0.135
			l-0.189,0.107v0.256l0.135,0.134v0.255l0.054,0.218l-0.08,0.188l0.162,0.135v0.202l0.027,0.188l0.04,0.553l0.053,0.134
			l-0.092,0.176v0.108l0.04,0.189v0.134l0.081-0.108l0.081,0.027l0.083,0.336l0.106,0.418l0.083,0.295l0.106,0.191l0.041,0.119
			l0.055,0.108l0.054,0.163l0.107,0.215l0.108,0.175l0.135,0.109l0.054,0.08l0.229,0.028l0.322-0.083l0.337-0.189h0.271l0.201-0.053
			l0.134,0.053l0.163,0.108l0.147,0.081l0.243,0.444v0.553l-0.055,0.188l-0.079,0.163l-0.082,0.122l-0.149,0.215l-0.106,0.054
			l-0.136-0.025l0.083,0.16l-0.083,0.109l-0.281,0.149h-0.164l-0.134,0.079h-0.109h-0.227h-0.163l-0.189-0.079l-0.335-0.083
			l-0.392-0.228l-0.215-0.108l-0.417-0.445l-0.109-0.054l-0.188-0.188l-0.081-0.23l-0.201-0.457l-0.135-0.204v-0.106l-0.271-0.444
			l-0.054-0.137l-0.067-0.214l-0.054-0.338l-0.106-0.416l-0.272-0.875l-0.202,0.135l-0.242,0.188l-0.135,0.093l-0.054,0.082
			l-0.147,0.054l-0.109,0.081l-0.162,0.108l-0.135-0.028l-0.025,0.135l-0.338,0.256l-0.107-0.081l-0.162,0.081v0.136l-0.202,0.026
			l-0.163,0.081l-0.107,0.028l-0.39,0.176l-0.243-0.121l-0.391,0.174l-0.243-0.027l-0.202,0.027l-0.217,0.108l-0.39-0.135
			l-0.297,0.055l-0.201,0.054h-0.607l-0.417-0.054l-0.378-0.122l-0.161-0.108l-0.445-0.054l-0.525-0.214l-0.228-0.108h-0.161
			l-0.164-0.122l-0.188-0.16l-0.228-0.054l-0.296-0.189l-0.58-0.526l-0.095-0.227l-0.027-0.217l-0.296-0.188l-0.162-0.176
			l-0.176-0.215l-0.135-0.134l-0.134-0.31l-0.082-0.109l-0.026-0.338l-0.122-0.026l-0.215-0.188l-0.188-0.297l-0.108-0.255
			l-0.23-0.473l-0.054-0.16l-0.107-0.162v-0.134l-0.054-0.283l0.026-0.162l0.028-0.39l-0.081-0.243l-0.107-0.23l-0.418-0.352
			l0.108-0.444l-0.055-0.281l0.026-0.189l-0.162-0.188v-0.149l0.055-0.189v-0.16l-0.082-0.23l-0.054-0.351l-0.067-0.08l-0.053-0.23
			l-0.135-0.323l-0.08-0.176l0.134-0.159l0.134-0.137l0.095-0.106l0.161-0.255l0.028-0.164l0.135-0.268l0.027-0.122l0.107-0.459
			l0.121-0.281v-0.189l0.027-0.083l0.107-0.361l0.028-0.217l0.107-0.176l0.027-0.269l0.107-0.229l0.082-0.27l0.121-0.162l0.08-0.121
			l0.055-0.106l0.026-0.188l0.054-0.311l0.082-0.377v-0.108l0.136-0.338l0.093-0.106l0.352-0.028l0.134-0.201l0.175-0.297
			l0.162-0.108l0.499-0.416l0.216-0.364l0.134-0.188l0.31-0.135l0.134-0.028l0.083-0.121l0.47-0.215v-0.135l0.203-0.108l0.136-0.079
			l0.445-0.23l0.106-0.054l0.688-0.188l0.189-0.026l0.202-0.082l0.108-0.068h0.161l0.189-0.08l0.58-0.028l0.282-0.026h0.715
			l0.524-0.026l0.108,0.053h0.283h0.243l0.202,0.082l0.634,0.147l0.215,0.028l0.082,0.026l0.229,0.108l0.35,0.107l0.445,0.162
			l0.108,0.054l0.23,0.122l0.294,0.161l0.137,0.082h0.173l0.271-0.217l0.053-0.105l0.58-0.527l0.417-0.282l0.417-0.028H121.195z"/>
		<path d="M128.053,194.303l0.498,0.026l0.188-0.026l0.15,0.054l0.135,0.026l0.214,0.042l0.121,0.08l0.109,0.026l0.109,0.137
			l0.159,0.026l0.164,0.134l0.147,0.109l0.352,0.418l0.121,0.202l0.026,0.163l0.028,0.105l0.054,0.472l-0.054,0.109v0.135
			l-0.028,0.227l-0.093,0.108l-0.108,0.188l-0.217,0.134l-0.16,0.121l-0.675,0.028l-0.268-0.392l-0.083-0.308l0.108-0.405v-0.255
			l-0.08-0.109l-0.134-0.133l-0.204-0.026l-0.134-0.028l-0.161,0.08l-0.175,0.054l-0.217,0.243l-0.161,0.31l-0.229,0.607
			l-0.027,0.163v0.147l-0.055,0.323v0.189l-0.054,0.256l0.081,0.163l-0.027,0.256l-0.082,0.242l0.028,0.337l-0.028,0.405
			l-0.026,0.229l0.108,0.876l0.135,0.311l0.39,0.025l0.337-0.364l0.052-0.134l-0.052-0.445l0.026-0.134l0.054-0.163l0.162-0.255
			l0.16-0.08l0.499-0.054l0.175,0.026l0.164,0.108l0.159,0.026l0.311,0.204l0.405,0.323l0.147,0.081l0.055,0.121l0.296,0.135
			l0.31,0.216l0.498,0.109l0.189,0.146h0.081l0.364,0.214l0.108,0.054l0.269,0.055l0.122,0.109l0.268,0.121l0.135,0.16v0.377
			l-0.051,0.122l-0.243,0.272l0.106-0.135l-0.214,0.16l-0.081,0.108l-0.095,0.23l-0.108,0.579l-0.027,0.553v0.188v0.391l0.027,0.297
			l-0.052,0.661l-0.055,0.311l0.026,0.24v0.364l0.081,0.134v0.204l-0.081,0.106l-0.081,0.243l0.188,0.258l0.055,0.604v0.135
			l-0.055,0.446l0.055,0.403l-0.028,0.147v0.216l0.054,0.108l0.054,0.604l0.042,0.23l0.106,0.297v0.201l0.083,0.217l0.268,0.294
			l-0.054,0.338l-0.403,0.282l-0.338,0.028l-0.242,0.161l-0.122,0.053l-0.552,0.244l-0.161,0.176l-0.108,0.054l-0.134,0.108
			l-0.176,0.161l-0.079,0.083l-0.218,0.416l-0.052,0.162l-0.028,0.418v0.188l0.055,0.256l0.377,0.498l0.121,0.054l0.163,0.134
			l0.052,0.109l0.108,0.173l0.08,0.459l-0.135,0.552l-0.323,0.311l-0.176,0.054l-0.188,0.051h-0.106l-0.204,0.029l-0.457-0.163
			l-0.418-0.444l-0.081-0.216l-0.109-0.257l-0.092-0.324v-0.201l-0.028-0.377v-0.147l0.054-0.514l0.148-0.499v-0.08l0.053-0.23
			l0.083-0.215v-0.444l0.051-0.243l0.028-0.121l0.026-0.218l0.027-0.309l-0.027-0.294l-0.081-0.447v-0.35l-0.025-0.499l0.025-0.283
			l-0.054-0.135v-0.66l-0.055-0.524l-0.026-0.135l-0.08-0.309l-0.069-0.419l0.04-0.162l-0.067-0.215v-0.498l-0.054-0.163v-0.228
			l0.028-0.325l-0.083-0.202l0.054-0.243l0.054-0.499l0.027-0.161l0.149-0.701l0.109-0.431l0.133-0.337l0.081-0.269l-0.134-0.121
			l-0.418-0.189l-0.214-0.053l-0.635-0.393l-0.134-0.188l-0.416,0.284l0.026,0.108l-0.081-0.055l-0.204,0.525l-0.025,0.244
			l-0.027,0.271l-0.028,0.808l0.028,0.16l0.081,0.135l-0.054,0.392v0.105l0.025,0.419l0.029,0.39l0.041,0.083v0.268l0.027,0.257
			l-0.027,0.929l-0.041,0.201v0.138l0.041,0.106v0.581v0.105l-0.069,0.23l0.069,0.108v0.269l0.08,0.284l0.054,0.269l0.134,0.309
			l0.109,0.135l0.054,0.081l0.026,0.203l0.364,0.026l0.39,0.188l0.109,0.216l-0.028,0.147l0.028,0.135l-0.081,0.188l-0.108,0.083
			l-0.095,0.202l-0.188,0.135l-0.135,0.079l-0.256,0.218l-0.217,0.053l-0.106,0.094l-0.204,0.054l-0.24,0.162l-0.109,0.244v0.172
			l0.081,0.189l0.054,0.136l0.026,0.148v0.188l-0.051,0.351l-0.244,0.228l-0.338,0.054h-0.106l-0.392-0.135l-0.189-0.081
			l-0.255-0.175l-0.297-0.243l0.108,0.026l-0.214-0.161l-0.122-0.028l-0.136-0.148v-0.107l-0.404-0.269l-0.284-0.146l-0.161-0.029
			l-0.149-0.025l-0.107-0.109l-0.526-0.081l-0.134-0.136l-0.08-0.174l-0.029-0.376l0.055-0.204l0.243-0.243l0.256-0.134l0.134-0.106
			l0.136-0.096l0.026-0.134l0.147-0.473l0.055-0.296v-0.134l0.028-0.147l-0.028-0.188l-0.109-0.39l0.027-0.163l0.109-0.269
			l0.026-0.229l-0.026-0.297l0.08-0.282v-0.136l-0.08-0.189v-0.172l-0.028-0.083v-0.294l-0.109-0.365l-0.067-0.136l0.067-0.255
			l0.027-0.135l0.161-0.214v-0.284l-0.025-0.133l0.025-0.365l0.028-0.134l0.026-0.217l-0.161-0.578l0.081-0.256l0.025-0.109
			l-0.025-0.294l-0.026-0.204v-0.188l0.026-0.162l-0.054-0.175l0.028-0.109l-0.109-0.162v-0.135l-0.027-0.176l0.027-0.323
			l0.109-0.281l0.026-1.013l-0.026-0.118l-0.055-0.164l-0.028-0.297v-0.093v-0.243l0.083-0.284l0.026-0.269l0.054-0.135v-0.283
			v-0.244l-0.028-0.08v-0.121l-0.025-0.164l-0.054-0.322l0.028-0.418l-0.028-0.135v-0.176v-0.106l-0.109-0.325l-0.026-0.201
			l-0.147-0.161l-0.108-0.109l-0.473-0.444l0.028-0.162l-0.028-0.176l0.028-0.135l0.121-0.054l0.106-0.133l0.217-0.026l0.364-0.055
			l0.161,0.055l0.284,0.133l0.189,0.026l0.163,0.135l0.335,0.284l0.269,0.296h0.204l0.323-0.633l0.188-0.297l0.39-0.364l0.473-0.243
			l0.524-0.202H128.053z"/>
		<path d="M136.58,199.383l0.284,0.026l0.243,0.026l0.079,0.108h0.134l0.23,0.149l0.217,0.241l0.133,0.054l0.122,0.055l0.134,0.149
			l0.349,0.215l0.203,0.188l0.244,0.336l0.188,0.137l0.173,0.026l0.297,0.028l0.149,0.052l0.215,0.149l0.188,0.242v0.081
			l-0.134,0.335l-0.214,0.377l-0.15,0.055l-0.161,0.067l-0.083,0.271l-0.08,0.498v0.08v0.163l-0.028,0.444l-0.051,0.662l0.025,0.39
			v0.16v0.31l-0.025,0.217l-0.028,0.255l-0.094,0.109l-0.108,0.377v0.147l0.148,0.271l0.108,0.052l0.109,0.258v0.402l-0.028,0.419
			l-0.228,0.133l0.256,0.176l-0.028,0.189l-0.026,0.214l0.055,0.202l0.025,1.08l0.055,0.349l0.053,0.135l0.081,0.122l0.229,0.106
			l0.189,0.054l0.189,0.108l0.146,0.134l0.109,0.121l-0.026,0.164l-0.083,0.16l-0.227,0.365l-0.243,0.133l-0.284,0.244l-0.323,0.283
			l-0.284,0.445l-0.052,0.108l-0.028,0.161l0.08,0.23l0.083,0.188v0.214l-0.083,0.204l-0.295,0.243l-0.472-0.053l-0.256-0.109
			l-0.214-0.081l-0.138-0.121l-0.31-0.242l-0.268-0.311l-0.134-0.028l-0.419-0.349l-0.364-0.175l-0.552-0.214l-0.135-0.028
			l-0.16-0.026l-0.176-0.083l-0.055-0.16l-0.108-0.121l-0.054-0.189l0.054-0.337l0.201-0.161l0.244-0.216l0.188-0.228l0.028-0.188
			l0.121-0.298l0.055-0.122l0.025-0.188l-0.025-0.189l0.08-0.309l-0.08-0.323l0.08-0.338v-0.553l0.026-0.335l-0.052-0.242
			l0.08-0.189l0.054-0.229v-0.348v-0.553v-0.285l-0.054-0.163l-0.108-0.31l0.028-0.16l0.105-0.189l-0.026-0.444l0.054-0.27
			l-0.028-0.148l-0.08-0.323l0.026-0.149l-0.026-0.431l-0.08-0.363l-0.096-0.188l-0.08-0.109h-0.216l-0.161-0.067l-0.121-0.108
			l-0.108-0.081l-0.055-0.242l0.055-0.392l0.201-0.189l0.163-0.201l0.108-0.054l0.282-0.243l0.188-0.227l0.055-0.163l0.134-0.163
			l0.15-0.106l0.025-0.121l-0.025-0.377l-0.122-0.365v-0.134l0.122-0.163l0.213-0.175L136.58,199.383z M137.187,194.303l0.31,0.026
			h0.134l0.217,0.176l0.081,0.135l0.095,0.028l0.188,0.188l0.35,0.39l0.121,0.163l0.082,0.106h0.107l0.337,0.283l0.134,0.054
			l0.215,0.243l0.229,0.311l-0.092,0.498l-0.581,0.39l-0.243-0.147l-0.107,0.106l-0.027,0.121v0.135l-0.081,0.107l-0.054,0.163
			l0.054,0.363l-0.027,0.161l-0.122,0.08l-0.106,0.204l-0.323,0.134h-0.284l-0.297-0.188l-0.176-0.054l-0.213-0.176l-0.163-0.214
			l-0.122-0.189l-0.134-0.121l0.028-0.135l-0.083-0.162l-0.444-0.108l-0.108-0.081l-0.162-0.122l-0.255-0.323l-0.054-0.364
			l0.229-0.391l0.377-0.271l0.416-0.243l0.23-0.173v-0.715l0.134-0.215L137.187,194.303z"/>
		<path d="M146.08,193.144h0.606l0.081,0.147l0.108-0.068l0.108,0.122l0.093,0.136l0.163,0.241l0.026,0.229v0.323l-0.054,0.256
			l-0.106,0.083l-0.121,0.16l-0.108,0.028l-0.244,0.337l-0.054,0.108l-0.026,0.336l0.08,0.459l0.189,0.417l0.108,0.216l0.147,0.23
			l0.217,0.214l0.08,0.202l0.164,0.108l0.227,0.243l0.108,0.081l0.188,0.256v0.107l-0.08,0.217l0.282,0.309l0.108,0.135l0.242,0.228
			l0.134,0.083l0.256,0.053l0.108,0.161l0.163,0.216l0.228,0.202l0.163,0.189l0.108,0.214l0.107,0.149l0.31,0.214l0.108,0.138
			l0.108,0.052l0.081,0.121l0.229,0.162l0.214,0.163l0.204,0.311l0.026,0.159l0.025,0.217l-0.173,0.227l-0.028,0.163l-0.054,0.08
			l-0.16,1.24v0.31v0.633l0.025,0.163v0.108l0.055,0.336v-0.135l-0.08,0.377v0.256l-0.109,0.055l0.134,0.079v0.393l0.108,0.134
			v0.135l-0.027,0.39l-0.135,0.244v0.122l0.054,0.188l0.082,0.135v0.661l-0.027,0.176v0.161v0.242l0.054,0.23l0.026,0.524
			l-0.053,0.297l0.081,0.444l0.31,0.444l0.106,0.351l-0.189,0.31l-0.08,0.054l-0.364,0.08l-0.255,0.028l-0.323,0.055l-0.283,0.052
			h-0.241l-0.31,0.122l-0.216,0.028l-0.108,0.026l-0.081,0.083h-0.108l-0.524,0.188l-0.149,0.081l-0.215,0.108l-0.364,0.174
			l-0.134,0.136l-0.352-0.028l-0.175,0.189l0.418,0.753l0.027,0.244l-0.054,0.216l-0.284,0.311l-0.188,0.026l-0.134,0.027h-0.135
			l-0.121-0.027l-0.188-0.026l-0.271-0.109l-0.201-0.081l-0.244-0.121l-0.106-0.028l-0.364-0.214l-0.163-0.163l-0.524-0.364
			l-0.108-0.052l-0.122-0.109l-0.135-0.028l-0.188-0.147l-0.31-0.134l-0.216-0.108l-0.31-0.109l-0.188-0.025l-0.295-0.054
			l-0.204-0.054l-0.215-0.147l-0.107-0.109l-0.122-0.242v-0.147l0.147-0.298l0.083-0.214l0.269-0.364l0.081-0.311v-0.983l0.069-0.23
			l-0.069-0.432l0.095-0.363l-0.066-0.445l-0.081-0.269v-0.122l0.026-0.188l0.026-0.163l0.121-0.363l0.028-0.323l-0.028-0.729
			l-0.052-0.767l0.025-0.216l-0.025-0.66l-0.041-0.121l-0.055-0.135v-0.135l0.121-0.081v-0.107l-0.066-0.149l0.041-0.161
			l0.025-0.108l-0.066-0.311l-0.135-0.162l-0.188-0.055l-0.217-0.311v-0.294l0.162-0.204l0.135-0.08l0.108,0.028l0.106-0.054h0.31
			l0.216-0.028l0.176-0.025l0.214-0.081l0.135,0.026l0.149-0.026l0.16-0.054l0.271-0.133l0.202-0.055l0.431-0.256l0.282-0.191
			l0.243-0.134l0.149-0.055l0.27-0.066l0.216,0.121l0.173,0.216l-0.026,0.189l-0.054,0.23l-0.202,0.402l-0.028,0.175l-0.025,0.244
			l0.025,0.996l0.028,0.243l0.134,0.31l-0.08,0.215l0.025,0.284l0.028,0.297l0.026,0.499v0.133v0.147l-0.08,0.406l-0.108,0.256
			l0.025,0.135l0.055,0.418l0.028,0.269v0.661l0.025,0.227l0.028,0.163l-0.028,0.632l-0.025,0.284l-0.217,0.432l-0.08,0.147
			l-0.109,0.134l-0.201,0.163l-0.189,0.228v0.136h0.189l0.174,0.026l0.297,0.244l0.214,0.107l0.202,0.147h0.243l0.175,0.054
			l0.875,0.189l0.188,0.054l0.176-0.054l0.163-0.163l0.051-0.106v-0.204l-0.051-0.106l-0.447-0.325l-0.08-0.282l-0.026-0.134
			l-0.027-0.163v-0.202l-0.081-1.712v-0.417v-0.136v-0.295l0.026-0.499l0.108-0.054l0.026-0.135l-0.08-0.149l-0.055-0.499v-0.214
			l0.055-0.607v-0.163l0.133-0.364l0.029-0.16l-0.083-0.256l0.083-0.243v-0.189l0.108-0.444l0.093-0.137l0.134-0.093l-0.026-0.188
			l-0.418-0.135l-0.444-0.204l-0.08-0.159l-0.137-0.109l-0.39-0.335l-0.161-0.298l-0.31-0.364l-0.108-0.162l-0.163-0.27
			l-0.055-0.121l-0.281-0.377v-0.201l-0.297-0.108l0.054-0.323l-0.31-0.028l-0.134-0.173l-0.243-0.325l-0.109-0.256l-0.093-0.134
			l-0.271-0.188l-0.08-0.122l-0.176-0.08l-0.214-0.081l-0.325-0.028l-0.309,0.163l-0.189,0.093l-0.174,0.083l-0.242,0.026
			l-0.445-0.284l-0.028-0.188l0.08-0.605l0.055-0.136l0.149-0.025l0.106-0.148l0.447-0.188l0.052-0.109l0.498-0.134h0.108
			l0.243-0.096l0.284,0.028l0.16-0.054l0.364,0.026l0.352,0.122l0.16,0.108l0.284,0.109l0.108,0.161l0.336-0.026l-0.473-1.106
			v-0.108l-0.052-0.16l-0.054-0.636l0.134-0.47l0.081-0.135l0.109-0.338l0.174-0.081l0.188-0.188l0.189-0.054L146.08,193.144z"/>
		<path d="M157.585,199.274h0.163l0.364,0.081l0.418,0.188l0.499,0.311l0.349,0.309l0.203,0.081l0.161,0.216l0.189,0.026
			l0.082,0.163l0.202,0.147l0.498,0.162l0.134,0.109l0.189,0.054l0.108-0.028h0.176l0.269,0.054l0.255,0.055h0.214l0.163,0.121
			l0.108,0.188v0.214l-0.079,0.255l-0.218,0.244l-0.133,0.417l-0.028,0.135l-0.026,0.189v0.89l-0.067,0.444l0.041,0.189
			l-0.041,0.242l0.067,0.444l-0.026,0.633l0.026,0.176v0.687l-0.095,0.215l0.028,0.552v0.255l0.041,0.138l0.135,0.135l0.025,0.105
			v0.365l-0.025,0.325l0.054,0.173l0.052,0.136v0.336l0.028,0.188l0.026,0.525l0.083,0.137l0.16,0.053h0.122l0.134,0.028h0.136
			h0.189l0.282,0.229v0.377l-0.026,0.106l-0.108,0.204l-0.147,0.243l-0.216,0.282l-0.109-0.026l-0.08,0.134l-0.108,0.134
			l-0.121,0.135l-0.16,0.122l-0.028,0.108l-0.106,0.08l-0.188,0.135l-0.122,0.163l-0.028,0.229l0.028,0.106l0.081,0.108l0.147,0.309
			v-0.108l-0.08,0.514l-0.202,0.228l-0.163,0.054l-0.364,0.027l-0.377-0.108l-0.364-0.108l-0.189-0.093l-0.335-0.163v-0.107
			l-0.662-0.445l-0.134-0.189l-0.176-0.134l-0.268-0.255l-0.285-0.189l-0.134-0.188l-0.16-0.121l-0.243-0.083l-0.204,0.028
			l-0.323,0.202l-0.067,0.162l-0.055,0.579l0.31,0.323l0.082,0.311l-0.109,0.309l-0.444,0.163l-0.325,0.055l-0.281-0.028
			l-0.499-0.189l-0.377-0.147l-0.067-0.108l-0.188-0.215l-0.164-0.175l-0.281-0.188l-0.137-0.135l-0.16-0.055l-0.083-0.133
			l-0.362-0.23l-0.137-0.054h-0.444l-0.106-0.055h-0.163l-0.201-0.16l-0.055-0.096l-0.08-0.189l0.08-0.322l0.161-0.202l0.122-0.083
			l0.216-0.214l0.16-0.256l0.083-0.216v-0.108v-0.174l0.093-0.27v-0.243l-0.066-0.147l-0.027-0.351l0.055-0.147l0.067-0.135v-0.216
			l-0.067-0.135l-0.028-0.335l0.028-0.083l0.039-0.135l0.028-0.202l-0.028-0.849l-0.228-0.362v-0.243l0.135-0.175l0.202-0.163
			l0.108-0.054l0.391-0.055l0.431-0.051l0.122,0.026l0.377-0.054l0.108-0.055l0.147-0.026l0.188-0.028h0.338h0.134l0.106-0.026
			l0.446-0.202l0.135-0.107h0.337l0.27-0.189l0.282-0.202l0.217-0.271l0.08-0.416l0.08-0.217v-0.135v-0.121l0.176-0.351
			l-0.042-0.363l-0.051-0.243l-0.137-0.255l-0.444-0.473l-0.189-0.079l-0.161-0.083h-0.257l-0.377-0.216l-0.282-0.079h-0.217
			l-0.47,0.079l-0.474,0.377l-0.108,0.202v0.271v0.282l0.083,0.188l0.134,0.055l0.335-0.107h0.108l0.109,0.053l0.255,0.029
			l0.351,0.282l0.027,0.108l0.026,0.108l0.027,0.269l-0.027,0.445l-0.135,0.255l-0.243,0.244l-0.391,0.188l-0.297,0.055h-0.335
			l-0.243-0.055l-0.255-0.109l-0.271-0.079l-0.362-0.365l-0.163-0.188v-0.16l-0.026-0.108l-0.121-0.055l-0.028-0.311l-0.081-0.309
			l0.026-0.404l0.028-0.137v-0.202l0.122-0.323l0.025-0.229l0.46-0.659l0.067-0.163l0.214-0.176l0.527-0.297l0.188-0.105l0.47-0.138
			l0.271-0.173l0.471-0.162l0.256-0.284l0.027-0.081l0.055-0.188l0.052-0.243l0.338-0.255L157.585,199.274z M158.556,206.361
			l-0.31,0.202l-0.214,0.134l-0.243,0.054h-0.176l-0.243,0.109l-0.175,0.162l-0.135-0.027h-0.163l-0.16,0.15l0.027,0.188
			l0.027,0.189l0.055,0.255l0.08,0.795l0.026,0.135l-0.08,0.202l0.025,0.323l-0.052,0.808v0.297l-0.257,0.255l0.229,0.026
			l0.162,0.028h0.336l0.162,0.026l0.161-0.026l0.526,0.026l0.281,0.054l0.327,0.083l-0.084-0.191l-0.079-0.106l-0.135-2.13
			l-0.082-0.444l0.108-0.27L158.556,206.361z"/>
	</g>
</g>
<g id="Capa_15">
	<g>
		<g>
			<g>
				<g>
					<g>
						<g>
							<path fill-rule="evenodd" clip-rule="evenodd" d="M61.79,147.455c2.403,4.596,6.211,7.352,8.508,6.151
								c2.285-1.199,2.194-5.896-0.212-10.498c-2.412-4.602-6.216-7.356-8.51-6.158C59.284,138.15,59.377,142.85,61.79,147.455z"/>
							<path d="M52.229,151.457c-3.859-8.926,4.747-13.204,4.747-13.204l4.601-1.303l9.596,15.584
								C71.173,152.535,56.991,161.747,52.229,151.457z"/>
							<path fill-rule="evenodd" clip-rule="evenodd" fill="#D1AB6F" d="M62.247,139.678c6.346,1.609,6.999,10.784,6.999,10.784
								s-9.852,6.708-13.673,0.184C51.753,144.128,58.368,139.821,62.247,139.678z"/>
							<path fill="#31738B" d="M67.791,144.876c0.635,5.449-2.493,6.98-5.123,8.39c3.42-0.706,6.578-2.803,6.578-2.803
								S68.89,146.781,67.791,144.876z"/>
						</g>
						<path fill-rule="evenodd" clip-rule="evenodd" fill="#D7DADD" d="M62.247,139.678c0,0-5.125,0.103-7.215,5.106
							c-0.595,2.408,11.434-2.187,10.419-3.322C64.304,140.229,62.247,139.678,62.247,139.678z"/>
					</g>
					<path fill="#D30559" d="M102.911,171.013c-42.681-10.771-68.638-54.254-57.868-96.932
						c10.772-42.682,54.256-68.643,96.94-57.871c42.68,10.772,68.641,54.26,57.867,96.938
						C189.077,155.83,145.592,181.784,102.911,171.013z"/>
					<path d="M142.571,17.371c41.806,10.551,67.143,52.996,56.596,94.804c-10.556,41.805-52.999,67.142-94.807,56.59
						c-41.809-10.553-67.146-52.994-56.595-94.804C58.321,32.155,100.763,6.815,142.571,17.371 M143.434,13.958
						C99.811,2.949,55.368,29.481,44.358,73.104c-4.747,18.805-11.883,81.145,59.143,99.069
						c42.746,10.789,87.821-14.558,99.074-59.141C213.584,69.413,187.051,24.971,143.434,13.958L143.434,13.958z"/>
					<path fill="#EFA5C1" d="M63.83,101.454c-7.97,9.951-7.246,22.953-5.473,27.064C31.323,89.295,51.862,34.428,98.94,19.083
						C82.945,26.364,50.191,57.178,63.83,101.454z"/>
					<path d="M142.571,17.371c-1.447-0.309-2.87-0.678-4.307-0.962c39.054,10.073,62.619,50.051,52.664,89.502
						c-3.029,13.582-12.005,29.927-28.04,40.028c-3.058,1.651-9.907,7.387-15.945,10.539c-13.896,5.63-29.603,7.072-45.209,3.131
						c-38.349-9.678-61.874-48.157-53.661-86.803c-0.103,0.385-0.208,0.766-0.308,1.155c-10.551,41.81,14.787,84.25,56.595,94.804
						c41.808,10.552,84.251-14.785,94.807-56.59C212.182,60.601,177.168,24.692,142.571,17.371z"/>
					<g>
						<path fill-rule="evenodd" clip-rule="evenodd" d="M187.483,128.924c-2.268,5.629-6.383,9.275-9.191,8.143
							c-2.799-1.132-3.234-6.608-0.963-12.239c2.275-5.631,6.385-9.272,9.189-8.142
							C189.324,117.819,189.756,123.296,187.483,128.924z"/>
						<path d="M199.064,132.486c3.464-10.83-7.043-14.816-7.043-14.816l-13.695,7.465l-1.18,10.792
							C177.146,135.927,194.714,145.01,199.064,132.486z"/>
						<path fill-rule="evenodd" clip-rule="evenodd" fill="#D1AB6F" d="M186.05,119.938c-7.194,2.601-6.896,13.35-6.896,13.35
							s12.234,6.667,15.929-1.358C198.775,123.904,190.582,119.655,186.05,119.938z"/>
						<path fill="#31738B" d="M180.2,126.621c7.937,5.129,15.211,3.436,15.661,2.993c-2.075,11.446-16.707,3.675-16.707,3.675
							S179.144,128.965,180.2,126.621z"/>
					</g>
				</g>
			</g>
		</g>
		<g>
			<path fill="#FFFFFF" d="M90.433,80.834c-0.262,0-0.516-0.147-0.638-0.4c-0.03-0.058-0.72-1.497-1.555-4.065
				c-0.121-0.374,0.082-0.773,0.454-0.893c0.371-0.121,0.771,0.08,0.894,0.455c0.802,2.468,1.475,3.874,1.482,3.887
				c0.169,0.353,0.023,0.776-0.33,0.945C90.642,80.812,90.537,80.834,90.433,80.834z M87.76,72.763
				c-0.319,0-0.609-0.218-0.688-0.542c-0.332-1.381-0.62-2.801-0.856-4.22c-0.064-0.386,0.198-0.752,0.584-0.815
				c0.388-0.064,0.751,0.197,0.815,0.584c0.23,1.385,0.511,2.771,0.836,4.118c0.091,0.38-0.142,0.764-0.524,0.855
				C87.871,72.755,87.816,72.763,87.76,72.763z M86.365,64.376c-0.361,0-0.671-0.275-0.705-0.641
				c-0.135-1.424-0.222-2.869-0.258-4.295c-0.01-0.39,0.299-0.716,0.69-0.726c0.396-0.017,0.718,0.298,0.728,0.691
				c0.036,1.394,0.12,2.805,0.253,4.194c0.036,0.39-0.25,0.736-0.639,0.774C86.41,64.375,86.388,64.376,86.365,64.376z
				 M86.151,55.879c-0.01,0-0.02,0-0.032-0.001c-0.39-0.016-0.694-0.348-0.675-0.74c0.063-1.427,0.178-2.87,0.341-4.289
				c0.044-0.389,0.393-0.67,0.784-0.624c0.39,0.045,0.668,0.397,0.624,0.786c-0.159,1.386-0.271,2.794-0.334,4.189
				C86.841,55.581,86.53,55.879,86.151,55.879z M87.123,47.434c-0.043,0-0.087-0.003-0.131-0.012
				c-0.383-0.072-0.639-0.442-0.566-0.828c0.101-0.538,0.21-1.087,0.328-1.627c0.194-0.852,0.41-1.714,0.646-2.572
				c0.104-0.378,0.493-0.599,0.871-0.497c0.378,0.104,0.6,0.496,0.496,0.872c-0.231,0.84-0.442,1.682-0.629,2.503
				c-0.111,0.521-0.218,1.056-0.316,1.582C87.755,47.196,87.459,47.434,87.123,47.434z M89.348,39.23
				c-0.078,0-0.157-0.013-0.232-0.04c-0.37-0.127-0.566-0.532-0.438-0.904c0.469-1.348,0.989-2.7,1.545-4.011
				c0.152-0.361,0.567-0.53,0.927-0.378c0.362,0.152,0.53,0.569,0.377,0.929c-0.542,1.285-1.051,2.607-1.509,3.928
				C89.916,39.046,89.64,39.23,89.348,39.23z M92.659,31.4c-0.107,0-0.215-0.026-0.319-0.077c-0.35-0.175-0.489-0.604-0.314-0.952
				c0.654-1.296,1.353-2.566,2.076-3.771c0.202-0.336,0.637-0.447,0.973-0.244c0.334,0.201,0.445,0.637,0.243,0.971
				c-0.708,1.177-1.388,2.415-2.025,3.681C93.168,31.255,92.918,31.4,92.659,31.4z M97.043,24.116c-0.145,0-0.289-0.043-0.413-0.134
				c-0.319-0.228-0.391-0.67-0.163-0.99c0.86-1.196,1.761-2.334,2.684-3.384c0.257-0.295,0.706-0.325,1-0.066
				c0.294,0.259,0.324,0.707,0.066,1c-0.893,1.017-1.768,2.12-2.6,3.279C97.482,24.015,97.263,24.116,97.043,24.116z"/>
		</g>
		<path d="M161.519,43.018c-2.86-6.125-5.858-9.429-5.983-9.566l-1.297-1.416l-1.797,0.679c-0.531,0.201-12.642,4.877-20.253,15.563
			c-5.199,0.719-13.066,3.207-19.576,7.403c-4.046,2.606-7.385,5.723-10.332,8.473c-4.01,3.738-7.471,6.969-11.592,8.118
			c-1.656,0.462-3.201,0.687-4.723,0.687c-2.069,0-3.946-0.418-5.934-0.86c-1.624-0.361-3.303-0.735-5.233-0.932
			c-1.118-0.115-2.371-0.172-3.722-0.172c-3.585,0-7.156,0.398-9.095,0.657c-1.86-1.917-5.934-6.2-8.695-9.723l-2.751-3.513
			L48.521,62.4c-7.609,15.074-8.107,32.698-1.241,43.856c2.06,3.349,4.696,5.972,7.829,7.796c3.332,1.941,7.146,2.924,11.332,2.924
			c1.551,0,3.158-0.137,4.805-0.408c1.104,2.644,2.814,4.663,5.102,6.016c2.479,1.469,5.062,1.778,6.791,1.778
			c0.631,0,1.152-0.04,1.515-0.082c0.821,0.116,2.655,0.323,5.178,0.323c4.356,0,8.726-0.587,12.986-1.743
			c5.829-1.581,11.251-4.193,16.119-7.765c3.77-1.587,6.175-3.94,7.155-6.997c0.506-1.578,0.55-3.11,0.375-4.469
			c1.831,0.23,3.985,0.422,6.099,0.422c2.024,0,3.783-0.179,5.231-0.533c4.835-0.958,9.208-2.671,12.996-5.094
			c3.47-2.219,6.468-5.037,8.907-8.376c4.133-5.656,6.647-12.867,7.075-20.299l0.002-0.04l0.002-0.038
			C166.982,63.085,166.235,53.114,161.519,43.018z"/>
		<path fill="#FFE5B2" d="M133.795,50.95c7.113-10.839,19.649-15.583,19.649-15.583s11.18,12.196,10.5,34.217
			c-0.709,12.282-7.791,27.441-26.762,31.167c-5.42,1.354-14.907-0.678-14.907-0.678s5.421,8.47-4.741,12.535
			c-15.923,11.857-34.251,9.16-34.251,9.16s-7.988,0.263-10.128-8.483C46.731,119.724,38.5,88.546,51.053,63.678
			c3.81,4.861,9.909,10.987,9.909,10.987s7.747-1.271,13.548-0.678c5.801,0.594,9.656,3.049,16.938,1.016
			c8.173-2.28,13.447-10.977,22.698-16.938C121.388,53.398,129.731,51.289,133.795,50.95z"/>
		<path fill="#FFFFFF" d="M51.053,63.678c-4.318,18.424-3.278,27.554-2.495,35.305C43.765,88.656,43.075,78.374,51.053,63.678z"/>
		<path fill="#FFFFFF" d="M153.444,35.367c-8.938,8.703-11.272,15.403-11.177,17.814c-29.394,1.172-33.726,14.528-45.847,19.532
			c8.762-5.449,14.056-18.459,37.699-22.244C137.271,47.288,141.271,40.662,153.444,35.367z"/>
		<g>
			<path fill="#4D4D4D" d="M89.831,120.564c-0.16,0-0.318-0.001-0.471-0.002l0.003-0.426c0.521,0.006,1.082,0.002,1.693-0.015
				l0.013,0.425C90.633,120.558,90.217,120.564,89.831,120.564z M87.648,120.505c-0.592-0.032-1.165-0.078-1.706-0.135l0.044-0.423
				c0.535,0.057,1.1,0.103,1.686,0.134L87.648,120.505z M92.777,120.46l-0.029-0.423c0.559-0.039,1.128-0.087,1.688-0.147
				l0.044,0.424C93.915,120.374,93.342,120.423,92.777,120.46z M83.122,120.323c-0.172,0-0.356-0.003-0.552-0.015l0.023-0.424
				c0.192,0.009,0.373,0.016,0.545,0.015c0.53,0,0.925-0.042,1.114-0.066l0.058,0.421C84.107,120.279,83.678,120.321,83.122,120.323
				z M96.176,120.101l-0.059-0.422c0.557-0.079,1.119-0.171,1.671-0.271l0.077,0.418C97.306,119.928,96.738,120.021,96.176,120.101z
				 M80.851,120.071c-0.579-0.132-1.135-0.318-1.653-0.551l0.175-0.389c0.491,0.222,1.019,0.397,1.572,0.525L80.851,120.071z
				 M99.54,119.491l-0.091-0.415c0.552-0.121,1.106-0.253,1.649-0.394l0.105,0.413C100.655,119.236,100.095,119.371,99.54,119.491z
				 M102.849,118.636l-0.12-0.407c0.537-0.162,1.08-0.335,1.612-0.514l0.137,0.402C103.942,118.3,103.395,118.475,102.849,118.636z
				 M77.696,118.632c-0.459-0.345-0.885-0.751-1.264-1.203l0.326-0.274c0.358,0.428,0.762,0.811,1.194,1.138L77.696,118.632z
				 M106.086,117.536l-0.151-0.396c0.528-0.203,1.057-0.417,1.57-0.636l0.167,0.393
				C107.156,117.117,106.622,117.332,106.086,117.536z M109.23,116.197l-0.181-0.385c0.509-0.239,1.019-0.494,1.517-0.752
				l0.197,0.378C110.259,115.699,109.745,115.954,109.23,116.197z M75.453,115.991c-0.267-0.485-0.505-1.017-0.707-1.582l0.4-0.142
				c0.196,0.542,0.424,1.056,0.679,1.52L75.453,115.991z M112.262,114.617l-0.21-0.368c0.489-0.276,0.977-0.569,1.453-0.867
				l0.227,0.361C113.249,114.043,112.754,114.338,112.262,114.617z M66.973,112.929l-0.01-0.424c0.547-0.013,1.115-0.046,1.684-0.1
				l0.038,0.423C68.107,112.882,67.533,112.917,66.973,112.929z M65.256,112.903c-0.577-0.031-1.152-0.087-1.71-0.165l0.06-0.421
				c0.545,0.076,1.109,0.13,1.672,0.162L65.256,112.903z M115.164,112.814l-0.239-0.352c0.468-0.315,0.934-0.645,1.384-0.976
				l0.253,0.341C116.104,112.162,115.636,112.495,115.164,112.814z M74.267,112.754l-0.224-0.927l-0.312,0.078l-0.1-0.414
				l0.728-0.176l0.321,1.339L74.267,112.754z M70.386,112.615l-0.066-0.42c0.547-0.087,1.107-0.192,1.66-0.312l0.091,0.416
				C71.509,112.42,70.942,112.526,70.386,112.615z M61.856,112.421c-0.562-0.132-1.117-0.291-1.655-0.473l0.136-0.404
				c0.525,0.179,1.068,0.334,1.615,0.463L61.856,112.421z M58.603,111.312c-0.52-0.239-1.034-0.505-1.527-0.795l0.216-0.365
				c0.48,0.28,0.98,0.542,1.489,0.773L58.603,111.312z M118.031,111.073l-0.185-0.381c0.53-0.256,1.019-0.533,1.452-0.825
				l0.239,0.354C119.087,110.523,118.582,110.811,118.031,111.073z M55.638,109.57c-0.457-0.336-0.907-0.703-1.336-1.087
				l0.285-0.315c0.416,0.375,0.855,0.733,1.304,1.06L55.638,109.57z M65.935,109.406c-0.565-0.017-1.141-0.056-1.714-0.117
				l0.044-0.423c0.563,0.059,1.131,0.097,1.684,0.115L65.935,109.406z M67.654,109.388l-0.025-0.425
				c0.266-0.014,0.424-0.03,0.454-0.034l0.055,0.208l-0.026-0.21c0.019-0.003,0.438-0.056,1.159-0.23l0.1,0.414
				c-0.745,0.18-1.188,0.235-1.205,0.237l-0.037,0.006C68.097,109.355,67.932,109.374,67.654,109.388z M120.875,109.106
				l-0.307-0.294c0.396-0.413,0.717-0.859,0.959-1.325l0.378,0.196C121.647,108.184,121.301,108.663,120.875,109.106z
				 M62.521,109.046c-0.571-0.103-1.136-0.229-1.679-0.375l0.11-0.41c0.53,0.141,1.084,0.264,1.644,0.365L62.521,109.046z
				 M71.023,108.632l-0.135-0.403c0.524-0.176,1.053-0.378,1.575-0.6l0.168,0.392C72.1,108.246,71.56,108.453,71.023,108.632z
				 M59.2,108.16c-0.546-0.198-1.081-0.421-1.59-0.662l0.183-0.385c0.497,0.236,1.017,0.453,1.552,0.647L59.2,108.16z
				 M74.185,107.288l-0.197-0.377c0.498-0.258,0.991-0.538,1.466-0.832l0.223,0.361C75.194,106.739,74.691,107.025,74.185,107.288z
				 M53.079,107.273c-0.382-0.418-0.753-0.859-1.104-1.317l0.336-0.257c0.344,0.445,0.707,0.878,1.082,1.285L53.079,107.273z
				 M56.098,106.676c-0.495-0.303-0.97-0.633-1.418-0.984l0.262-0.335c0.435,0.342,0.897,0.664,1.376,0.956L56.098,106.676z
				 M122.446,106.005l-0.42-0.064c0.042-0.277,0.062-0.566,0.062-0.859c0-0.253-0.015-0.516-0.046-0.781l0.422-0.049
				c0.033,0.281,0.051,0.561,0.051,0.83C122.515,105.397,122.49,105.707,122.446,106.005z M77.102,105.48l-0.251-0.343
				c0.181-0.132,0.364-0.271,0.546-0.412c0.264-0.208,0.524-0.42,0.772-0.633l0.278,0.321c-0.254,0.217-0.52,0.437-0.791,0.646
				C77.473,105.205,77.287,105.344,77.102,105.48z M50.984,104.553c-0.088-0.138-0.176-0.276-0.261-0.415
				c-0.211-0.343-0.417-0.7-0.613-1.062l0.373-0.204c0.194,0.357,0.396,0.706,0.602,1.041c0.084,0.138,0.172,0.274,0.258,0.408
				L50.984,104.553z M53.39,104.548c-0.239-0.239-0.47-0.489-0.688-0.741c-0.158-0.181-0.308-0.365-0.456-0.554l0.335-0.261
				c0.144,0.185,0.289,0.361,0.441,0.537c0.211,0.246,0.435,0.488,0.666,0.718L53.39,104.548z M79.704,103.245l-0.301-0.3
				c0.395-0.396,0.777-0.813,1.142-1.24l0.325,0.275C80.498,102.416,80.107,102.842,79.704,103.245z M121.675,102.686
				c-0.233-0.709-0.51-1.262-0.654-1.528l0.374-0.204c0.149,0.28,0.439,0.859,0.685,1.599L121.675,102.686z M51.269,101.833
				c-0.292-0.485-0.563-1-0.803-1.525l0.386-0.177c0.233,0.511,0.496,1.01,0.782,1.481L51.269,101.833z M49.343,101.541
				c-0.231-0.513-0.454-1.045-0.658-1.583l0.396-0.151c0.203,0.529,0.421,1.054,0.649,1.558L49.343,101.541z M81.93,100.631
				l-0.343-0.25c0.326-0.45,0.642-0.92,0.937-1.399l0.363,0.222C82.584,99.691,82.262,100.172,81.93,100.631z M132.475,100.012
				c-0.54-0.002-1.114-0.02-1.712-0.048l0.022-0.425c0.589,0.029,1.16,0.047,1.693,0.049L132.475,100.012z M134.189,99.965
				l-0.026-0.426c0.599-0.037,1.163-0.096,1.67-0.178l0.066,0.42C135.38,99.865,134.805,99.926,134.189,99.965z M129.058,99.845
				c-0.55-0.049-1.121-0.108-1.7-0.178l0.049-0.423c0.575,0.069,1.143,0.13,1.688,0.178L129.058,99.845z M120.122,99.73
				l-0.919-1.433l0.359-0.23l0.918,1.434L120.122,99.73z M125.665,99.44c-0.568-0.083-1.136-0.177-1.688-0.272l0.074-0.419
				c0.55,0.096,1.113,0.187,1.675,0.27L125.665,99.44z M137.579,99.44l-0.088-0.417c0.557-0.119,1.111-0.25,1.646-0.388l0.109,0.411
				C138.701,99.188,138.141,99.32,137.579,99.44z M122.293,98.845l-1.663-0.356l0.091-0.416l1.663,0.356L122.293,98.845z
				 M49.835,98.705c-0.18-0.531-0.339-1.089-0.471-1.653l0.417-0.099c0.127,0.555,0.282,1.098,0.457,1.617L49.835,98.705z
				 M140.889,98.579l-0.126-0.407c0.541-0.167,1.079-0.35,1.603-0.54l0.145,0.399C141.982,98.226,141.434,98.409,140.889,98.579z
				 M48.122,98.339c-0.17-0.538-0.327-1.092-0.473-1.647l0.414-0.105c0.141,0.547,0.296,1.094,0.464,1.624L48.122,98.339z
				 M129.797,98.215c-0.577,0-1.152-0.021-1.715-0.062l0.032-0.423c0.551,0.04,1.119,0.062,1.684,0.062V98.215z M130.652,98.201
				l-0.014-0.426c0.554-0.02,1.12-0.06,1.683-0.119l0.045,0.423C131.792,98.139,131.217,98.179,130.652,98.201z M126.375,97.958
				c-0.571-0.086-1.137-0.199-1.686-0.33l0.099-0.413c0.539,0.127,1.093,0.238,1.651,0.323L126.375,97.958z M134.063,97.844
				l-0.072-0.418c0.548-0.093,1.105-0.208,1.654-0.335l0.098,0.414C135.185,97.635,134.62,97.749,134.063,97.844z M83.734,97.711
				l-0.379-0.195c0.125-0.24,0.248-0.483,0.365-0.727c0.125-0.263,0.247-0.527,0.363-0.795l0.39,0.169
				c-0.119,0.273-0.243,0.543-0.37,0.809C83.984,97.222,83.86,97.468,83.734,97.711z M144.104,97.403l-0.167-0.391
				c0.519-0.221,1.038-0.458,1.537-0.702l0.187,0.38C145.153,96.941,144.63,97.181,144.104,97.403z M123.037,97.156
				c-0.546-0.181-1.087-0.388-1.608-0.614l0.171-0.391c0.509,0.222,1.039,0.424,1.571,0.6L123.037,97.156z M137.4,97.065
				l-0.122-0.408c0.539-0.159,1.079-0.337,1.607-0.524l0.143,0.4C138.493,96.725,137.946,96.904,137.4,97.065z M140.625,95.912
				l-0.164-0.392c0.513-0.216,1.031-0.449,1.54-0.695l0.188,0.382C141.672,95.456,141.146,95.693,140.625,95.912z M147.178,95.896
				l-0.208-0.371c0.491-0.275,0.978-0.568,1.447-0.868l0.23,0.358C148.171,95.32,147.677,95.615,147.178,95.896z M119.883,95.788
				c-0.489-0.267-0.985-0.563-1.474-0.881l0.232-0.357c0.48,0.312,0.967,0.604,1.445,0.863L119.883,95.788z M49.045,95.362
				c-0.083-0.552-0.145-1.126-0.187-1.707l0.423-0.032c0.043,0.571,0.104,1.135,0.185,1.675L49.045,95.362z M47.268,95.023
				c-0.112-0.546-0.215-1.113-0.302-1.684l0.421-0.064c0.086,0.563,0.188,1.123,0.297,1.665L47.268,95.023z M85.108,94.569
				l-0.401-0.144c0.188-0.518,0.363-1.06,0.523-1.604l0.408,0.121C85.475,93.494,85.296,94.042,85.108,94.569z M143.709,94.424
				l-0.205-0.373c0.494-0.271,0.985-0.557,1.463-0.85l0.224,0.361C144.709,93.86,144.21,94.15,143.709,94.424z M150.063,94.048
				l-0.251-0.344c0.452-0.331,0.902-0.677,1.334-1.034l0.273,0.329C150.977,93.361,150.522,93.714,150.063,94.048z M117.009,93.917
				c-0.442-0.335-0.891-0.698-1.334-1.078l0.278-0.321c0.437,0.374,0.876,0.73,1.312,1.061L117.009,93.917z M146.625,92.627
				l-0.243-0.349c0.467-0.323,0.926-0.657,1.368-0.995l0.258,0.335C147.562,91.963,147.095,92.302,146.625,92.627z M48.79,91.94
				v-0.241c0-0.478,0.011-0.972,0.035-1.47l0.425,0.02c-0.023,0.493-0.035,0.979-0.035,1.449v0.24L48.79,91.94z M152.71,91.871
				l-0.29-0.312c0.407-0.381,0.812-0.778,1.2-1.186l0.308,0.297C153.534,91.082,153.125,91.486,152.71,91.871z M114.41,91.687
				c-0.401-0.382-0.806-0.79-1.208-1.212l0.309-0.294c0.397,0.418,0.799,0.823,1.194,1.199L114.41,91.687z M46.741,91.644
				c-0.06-0.558-0.111-1.13-0.15-1.705l0.425-0.028c0.037,0.568,0.088,1.135,0.146,1.686L46.741,91.644z M86.071,91.285
				l-0.412-0.098c0.123-0.537,0.237-1.094,0.335-1.656l0.42,0.074C86.314,90.175,86.198,90.739,86.071,91.285z M149.338,90.541
				l-0.277-0.323c0.43-0.368,0.852-0.75,1.252-1.134l0.295,0.309C150.201,89.782,149.773,90.168,149.338,90.541z M155.073,89.397
				l-0.325-0.275c0.361-0.423,0.718-0.868,1.057-1.317l0.341,0.257C155.801,88.519,155.439,88.968,155.073,89.397z M112.051,89.21
				c-0.366-0.421-0.736-0.86-1.1-1.308l0.331-0.268c0.361,0.445,0.728,0.88,1.09,1.295L112.051,89.21z M49.374,88.564l-0.424-0.043
				c0.054-0.555,0.123-1.124,0.204-1.697l0.421,0.061C49.494,87.45,49.426,88.016,49.374,88.564z M46.512,88.231
				c-0.008-0.364-0.013-0.729-0.013-1.096c0-0.204,0-0.408,0.002-0.613l0.425,0.006c-0.002,0.204-0.002,0.405-0.002,0.607
				c0,0.364,0.005,0.726,0.013,1.086L46.512,88.231z M151.812,88.174l-0.31-0.289c0.383-0.412,0.76-0.838,1.116-1.267l0.327,0.27
				C152.584,87.324,152.204,87.757,151.812,88.174z M86.67,87.913l-0.422-0.053c0.071-0.549,0.128-1.116,0.173-1.683l0.426,0.034
				C86.8,86.785,86.741,87.357,86.67,87.913z M156.439,87.666l-0.344-0.252c0.332-0.451,0.654-0.92,0.958-1.39l0.356,0.23
				C157.1,86.733,156.775,87.207,156.439,87.666z M109.899,86.557c-0.337-0.444-0.676-0.908-1.01-1.378l0.348-0.247
				c0.33,0.466,0.667,0.926,1.003,1.368L109.899,86.557z M154,85.539l-0.345-0.252c0.278-0.377,0.545-0.768,0.798-1.157
				c0.053-0.078,0.101-0.156,0.153-0.234l0.358,0.227c-0.049,0.081-0.103,0.16-0.154,0.241
				C154.554,84.757,154.282,85.152,154,85.539z M50.257,85.477l-0.341-0.256c0.33-0.442,0.73-0.871,1.183-1.274l0.282,0.317
				C50.949,84.649,50.571,85.058,50.257,85.477z M46.984,84.835l-0.423-0.021c0.029-0.568,0.07-1.141,0.119-1.707l0.422,0.038
				C47.053,83.704,47.014,84.272,46.984,84.835z M158.299,84.79l-0.372-0.211c0.277-0.484,0.546-0.987,0.8-1.489l0.377,0.191
				C158.852,83.79,158.58,84.298,158.299,84.79z M86.949,84.505l-0.425-0.017c0.02-0.552,0.032-1.12,0.032-1.692h0.426
				C86.982,83.373,86.97,83.947,86.949,84.505z M107.92,83.775c-0.312-0.466-0.626-0.946-0.934-1.429l0.358-0.229
				c0.305,0.48,0.618,0.958,0.927,1.421L107.92,83.775z M52.712,83.256l-0.234-0.356c0.458-0.299,0.959-0.589,1.494-0.86
				l0.192,0.379C53.644,82.683,53.155,82.965,52.712,83.256z M155.822,82.635l-0.376-0.198c0.258-0.491,0.502-1,0.729-1.521
				l0.389,0.171C156.335,81.615,156.085,82.136,155.822,82.635z M86.457,82.314c-0.196-0.455-0.524-0.849-1.006-1.204l0.25-0.343
				c0.547,0.401,0.92,0.853,1.146,1.378L86.457,82.314z M159.834,81.731l-0.39-0.17c0.224-0.506,0.44-1.034,0.642-1.564l0.397,0.151
				C160.276,80.685,160.061,81.217,159.834,81.731z M55.697,81.72l-0.164-0.394c0.512-0.208,1.054-0.409,1.612-0.593l0.134,0.403
				C56.731,81.32,56.197,81.515,55.697,81.72z M47.279,81.461l-0.421-0.053c0.069-0.564,0.148-1.133,0.236-1.692l0.422,0.066
				C47.428,80.336,47.348,80.902,47.279,81.461z M106.088,80.897l-0.194-0.317l0.301-0.759c0.09-0.226,0.184-0.45,0.276-0.674
				l0.393,0.164c-0.093,0.221-0.183,0.444-0.272,0.669l-0.223,0.56l0.084,0.135L106.088,80.897z M58.897,80.645l-0.114-0.411
				c0.533-0.147,1.09-0.288,1.661-0.418l0.092,0.416C59.976,80.36,59.422,80.498,58.897,80.645z M84,80.343
				c-0.463-0.18-1-0.348-1.595-0.499l0.103-0.413c0.614,0.154,1.169,0.329,1.649,0.518L84,80.343z M62.197,79.886l-0.079-0.418
				c0.55-0.103,1.117-0.2,1.687-0.287l0.062,0.422C63.305,79.688,62.744,79.784,62.197,79.886z M80.754,79.497
				c-0.527-0.092-1.089-0.175-1.671-0.246l0.052-0.422c0.589,0.072,1.159,0.157,1.692,0.249L80.754,79.497z M157.193,79.49
				l-0.403-0.142c0.183-0.52,0.356-1.062,0.511-1.608l0.41,0.116C157.554,78.411,157.38,78.961,157.193,79.49z M65.549,79.371
				l-0.053-0.422c0.561-0.069,1.131-0.128,1.7-0.182l0.039,0.423C66.672,79.242,66.104,79.304,65.549,79.371z M77.398,79.082
				c-0.546-0.043-1.115-0.079-1.691-0.104l0.019-0.426c0.58,0.026,1.155,0.063,1.706,0.106L77.398,79.082z M68.927,79.057
				l-0.028-0.423c0.562-0.037,1.137-0.068,1.708-0.09l0.014,0.424C70.056,78.99,69.485,79.02,68.927,79.057z M74.013,78.926
				c-0.556-0.007-1.122-0.007-1.696-0.002l-0.005-0.425c0.581-0.007,1.15-0.006,1.707,0.002L74.013,78.926z M161.051,78.535
				l-0.406-0.132c0.175-0.534,0.337-1.08,0.484-1.62l0.41,0.112C161.39,77.441,161.228,77.993,161.051,78.535z M47.809,78.114
				l-0.417-0.081c0.106-0.557,0.226-1.12,0.353-1.671l0.413,0.094C48.033,77.003,47.915,77.562,47.809,78.114z M107.541,77.758
				l-0.387-0.178c0.239-0.521,0.488-1.04,0.743-1.541l0.378,0.193C108.025,76.729,107.777,77.24,107.541,77.758z M85.965,77.425
				c-0.156,0-0.312-0.002-0.465-0.006l0.009-0.425c0.552,0.014,1.123,0.002,1.683-0.032l0.026,0.425
				C86.803,77.413,86.382,77.425,85.965,77.425z M83.785,77.31c-0.546-0.057-1.102-0.133-1.699-0.233l0.07-0.419
				c0.589,0.098,1.136,0.174,1.671,0.229L83.785,77.31z M88.926,77.207l-0.061-0.419c0.543-0.08,1.1-0.183,1.658-0.308l0.092,0.414
				C90.048,77.021,89.479,77.128,88.926,77.207z M80.407,76.752c-0.453-0.095-0.901-0.195-1.344-0.294l-0.319-0.07l0.093-0.416
				l0.317,0.07c0.442,0.1,0.889,0.198,1.342,0.294L80.407,76.752z M92.276,76.46l-0.124-0.407c0.527-0.16,1.059-0.352,1.58-0.568
				l0.164,0.394C93.36,76.101,92.814,76.298,92.276,76.46z M158.127,76.192l-0.416-0.092c0.118-0.541,0.225-1.098,0.315-1.66
				l0.42,0.067C158.353,75.078,158.248,75.644,158.127,76.192z M61.909,76.172L61.85,75.75c0.541-0.077,1.109-0.151,1.694-0.221
				l0.049,0.423C63.014,76.021,62.447,76.094,61.909,76.172z M60.125,76.135l-0.317-0.319c-0.054-0.055-0.373-0.377-0.88-0.897
				l0.305-0.296c0.504,0.517,0.823,0.839,0.877,0.894l0.316,0.319L60.125,76.135z M77.085,76.034
				c-0.607-0.12-1.153-0.215-1.666-0.29l0.061-0.42c0.521,0.074,1.071,0.172,1.685,0.293L77.085,76.034z M65.281,75.769
				l-0.039-0.422c0.575-0.056,1.148-0.105,1.7-0.147l0.032,0.425C66.425,75.665,65.855,75.713,65.281,75.769z M73.744,75.555
				c-0.528-0.04-1.096-0.069-1.688-0.082l0.012-0.426c0.598,0.015,1.173,0.044,1.71,0.085L73.744,75.555z M68.667,75.52l-0.02-0.425
				c0.587-0.028,1.162-0.046,1.708-0.055l0.008,0.425C69.821,75.475,69.251,75.493,68.667,75.52z M161.95,75.235l-0.416-0.093
				c0.12-0.546,0.231-1.104,0.327-1.66l0.418,0.073C162.184,74.117,162.073,74.682,161.95,75.235z M95.451,75.154l-0.195-0.377
				c0.482-0.251,0.974-0.53,1.465-0.834l0.224,0.363C96.445,74.614,95.942,74.899,95.451,75.154z M48.561,74.81l-0.412-0.109
				c0.144-0.549,0.301-1.102,0.462-1.645l0.407,0.121C48.859,73.716,48.705,74.266,48.561,74.81z M109.069,74.738l-0.373-0.207
				c0.279-0.5,0.571-0.996,0.866-1.476l0.363,0.223C109.633,73.753,109.344,74.245,109.069,74.738z M57.742,73.692
				c-0.36-0.376-0.753-0.792-1.173-1.237l0.31-0.291c0.418,0.444,0.812,0.859,1.171,1.234L57.742,73.692z M98.375,73.359
				l-0.246-0.348c0.437-0.308,0.893-0.648,1.355-1.01l0.263,0.336C99.28,72.703,98.817,73.046,98.375,73.359z M158.675,72.811
				l-0.423-0.045c0.06-0.553,0.108-1.12,0.141-1.685l0.424,0.024C158.783,71.679,158.736,72.252,158.675,72.811z M162.53,71.862
				l-0.423-0.052c0.072-0.561,0.125-1.125,0.17-1.682l0.422,0.031C162.657,70.725,162.601,71.297,162.53,71.862z M110.846,71.859
				l-0.353-0.239c0.325-0.472,0.659-0.941,1-1.391l0.34,0.256C111.496,70.931,111.164,71.394,110.846,71.859z M49.529,71.562
				l-0.404-0.134c0.181-0.541,0.371-1.083,0.566-1.611l0.4,0.146C49.899,70.487,49.708,71.026,49.529,71.562z M101.076,71.257
				l-0.275-0.326c0.411-0.345,0.83-0.709,1.282-1.11l0.283,0.317C101.911,70.544,101.488,70.909,101.076,71.257z M55.407,71.209
				c-0.375-0.407-0.759-0.829-1.15-1.26l0.315-0.285c0.389,0.431,0.774,0.85,1.147,1.256L55.407,71.209z M158.881,69.396
				l-0.424-0.007c0.002-0.169,0.002-0.338,0.002-0.503c0-0.414-0.008-0.811-0.02-1.189l0.425-0.014
				c0.013,0.384,0.02,0.785,0.02,1.203C158.883,69.052,158.883,69.223,158.881,69.396z M112.883,69.164l-0.326-0.273
				c0.366-0.437,0.749-0.868,1.136-1.285l0.312,0.291C113.622,68.307,113.244,68.734,112.883,69.164z M103.631,68.993l-0.287-0.313
				c0.415-0.381,0.83-0.767,1.247-1.155l0.29,0.312C104.462,68.224,104.045,68.611,103.631,68.993z M53.122,68.679
				c-0.377-0.425-0.752-0.855-1.121-1.287l0.323-0.275c0.369,0.428,0.741,0.857,1.117,1.282L53.122,68.679z M162.766,68.446
				l-0.426-0.004c0.003-0.249,0.006-0.497,0.006-0.745c0-0.319-0.002-0.636-0.011-0.951l0.429-0.006
				c0.004,0.316,0.006,0.635,0.006,0.957C162.77,67.946,162.768,68.197,162.766,68.446z M50.704,68.384l-0.395-0.162
				c0.213-0.527,0.438-1.055,0.67-1.572l0.387,0.171C51.139,67.336,50.916,67.86,50.704,68.384z M115.188,66.693l-0.295-0.308
				c0.413-0.396,0.841-0.784,1.271-1.151l0.277,0.323C116.017,65.919,115.597,66.301,115.188,66.693z M106.124,66.675l-0.288-0.312
				c0.415-0.385,0.83-0.77,1.251-1.156l0.288,0.314C106.953,65.908,106.537,66.29,106.124,66.675z M158.348,66.008
				c-0.045-0.58-0.103-1.146-0.173-1.682l0.424-0.055c0.071,0.543,0.128,1.116,0.173,1.705L158.348,66.008z M162.286,65.053
				c-0.026-0.564-0.06-1.133-0.102-1.693l0.425-0.031c0.041,0.564,0.076,1.138,0.101,1.705L162.286,65.053z M117.753,64.495
				l-0.258-0.339c0.451-0.345,0.921-0.679,1.393-0.998l0.238,0.353C118.66,63.826,118.197,64.156,117.753,64.495z M108.636,64.384
				l-0.283-0.318c0.448-0.396,0.87-0.761,1.29-1.118l0.275,0.323C109.5,63.627,109.081,63.99,108.636,64.384z M158.001,62.693
				l-0.081-0.037l-0.018,0.004l-0.002-0.012l-0.572-0.258c-0.057-0.027-0.322-0.146-0.767-0.327l0.16-0.394
				c0.454,0.183,0.725,0.305,0.783,0.332l0.772,0.35l0.043,0.229l-0.294,0.055L158.001,62.693z M120.554,62.611l-0.216-0.366
				c0.489-0.288,0.993-0.566,1.499-0.827l0.196,0.378C121.533,62.055,121.036,62.327,120.554,62.611z M111.226,62.193l-0.266-0.332
				c0.456-0.365,0.911-0.717,1.35-1.047l0.255,0.34C112.128,61.479,111.678,61.829,111.226,62.193z M162.032,61.672
				c-0.058-0.557-0.126-1.123-0.199-1.682l0.42-0.057c0.076,0.565,0.145,1.134,0.204,1.695L162.032,61.672z M154.977,61.459
				c-0.516-0.187-1.054-0.372-1.604-0.549l0.131-0.406c0.555,0.18,1.098,0.365,1.619,0.554L154.977,61.459z M123.554,61.069
				l-0.172-0.39c0.52-0.229,1.052-0.446,1.585-0.647l0.15,0.398C124.59,60.627,124.065,60.844,123.554,61.069z M151.75,60.413
				c-0.544-0.157-1.095-0.307-1.636-0.448l0.106-0.412c0.544,0.14,1.1,0.293,1.648,0.452L151.75,60.413z M113.938,60.166
				l-0.241-0.351c0.365-0.252,0.736-0.5,1.103-0.737c0.108-0.07,0.215-0.139,0.323-0.206l0.228,0.36
				c-0.107,0.066-0.214,0.135-0.319,0.204C114.667,59.67,114.299,59.915,113.938,60.166z M126.714,59.878l-0.128-0.406
				c0.538-0.17,1.09-0.328,1.645-0.472l0.108,0.413C127.79,59.553,127.244,59.711,126.714,59.878z M148.465,59.568
				c-0.554-0.124-1.112-0.243-1.659-0.347l0.082-0.417c0.551,0.104,1.113,0.223,1.672,0.349L148.465,59.568z M129.982,59.034
				l-0.084-0.417c0.55-0.111,1.116-0.213,1.684-0.301l0.066,0.421C131.084,58.822,130.527,58.924,129.982,59.034z M145.137,58.925
				c-0.559-0.09-1.124-0.173-1.676-0.243l0.053-0.422c0.557,0.07,1.128,0.153,1.691,0.244L145.137,58.925z M133.323,58.519
				l-0.043-0.423c0.56-0.061,1.132-0.107,1.704-0.144l0.026,0.425C134.444,58.411,133.877,58.459,133.323,58.519z M141.775,58.497
				c-0.563-0.05-1.13-0.093-1.691-0.125l0.025-0.423c0.565,0.03,1.137,0.074,1.706,0.125L141.775,58.497z M116.8,58.357
				l-0.211-0.368c0.487-0.282,0.991-0.56,1.496-0.825l0.199,0.377C117.783,57.805,117.283,58.08,116.8,58.357z M161.576,58.314
				c-0.093-0.561-0.193-1.122-0.302-1.668l0.415-0.083c0.111,0.552,0.214,1.117,0.307,1.681L161.576,58.314z M136.698,58.307
				l-0.007-0.425c0.568-0.011,1.144-0.011,1.711,0l-0.007,0.425C137.832,58.295,137.261,58.295,136.698,58.307z M119.797,56.781
				l-0.184-0.384c0.51-0.244,1.036-0.483,1.555-0.71l0.17,0.391C120.825,56.302,120.302,56.538,119.797,56.781z M122.904,55.428
				l-0.158-0.395c0.525-0.208,1.063-0.41,1.602-0.6l0.142,0.402C123.959,55.022,123.423,55.222,122.904,55.428z M160.918,54.99
				c-0.125-0.545-0.263-1.099-0.408-1.645l0.413-0.108c0.145,0.549,0.282,1.108,0.41,1.657L160.918,54.99z M126.095,54.292
				l-0.128-0.405c0.541-0.172,1.093-0.338,1.636-0.491l0.116,0.41C127.178,53.958,126.633,54.122,126.095,54.292z M129.357,53.378
				l-0.101-0.415c0.568-0.136,1.129-0.261,1.671-0.368l0.083,0.417C130.476,53.121,129.92,53.242,129.357,53.378z M132.677,52.724
				l-0.059-0.42c0.465-0.068,0.896-0.12,1.278-0.151l0.427-0.036l0.036,0.425l-0.427,0.034
				C133.556,52.609,133.137,52.657,132.677,52.724z M160.051,51.713c-0.163-0.544-0.335-1.088-0.512-1.615l0.403-0.136
				c0.177,0.534,0.352,1.08,0.517,1.629L160.051,51.713z M135.575,51.23l-0.352-0.242c0.321-0.464,0.663-0.928,1.012-1.381
				l0.335,0.26C136.225,50.315,135.891,50.773,135.575,51.23z M137.64,48.557l-0.324-0.277c0.369-0.427,0.752-0.854,1.148-1.271
				l0.308,0.291C138.383,47.711,138.001,48.135,137.64,48.557z M158.975,48.5c-0.197-0.527-0.406-1.058-0.62-1.577l0.395-0.162
				c0.214,0.523,0.426,1.058,0.623,1.59L158.975,48.5z M139.96,46.098l-0.294-0.307c0.404-0.393,0.827-0.786,1.255-1.163l0.28,0.316
				C140.778,45.32,140.362,45.707,139.96,46.098z M157.684,45.37c-0.054-0.119-0.104-0.234-0.159-0.348
				c-0.189-0.408-0.378-0.803-0.568-1.182l0.379-0.19c0.192,0.385,0.383,0.781,0.574,1.192c0.055,0.116,0.109,0.232,0.162,0.352
				L157.684,45.37z M142.49,43.845l-0.27-0.328c0.435-0.357,0.887-0.714,1.345-1.058l0.255,0.338
				C143.367,43.138,142.92,43.492,142.49,43.845z M156.173,42.339c-0.272-0.499-0.555-0.993-0.84-1.471l0.366-0.218
				c0.288,0.482,0.573,0.981,0.848,1.484L156.173,42.339z M145.188,41.798l-0.244-0.347c0.463-0.327,0.939-0.648,1.416-0.959
				l0.23,0.356C146.12,41.155,145.647,41.476,145.188,41.798z M148.028,39.947l-0.218-0.363c0.484-0.294,0.983-0.583,1.476-0.859
				l0.21,0.372C149.003,39.37,148.51,39.657,148.028,39.947z M154.437,39.432c-0.317-0.483-0.639-0.952-0.959-1.392l0.344-0.251
				c0.323,0.447,0.649,0.921,0.971,1.409L154.437,39.432z M150.99,38.295l-0.195-0.378c0.521-0.268,1.037-0.521,1.537-0.753
				l0.18,0.386C152.017,37.78,151.505,38.032,150.99,38.295z"/>
		</g>
		<path d="M161.029,124.604c6.33,9.212,9.074,19.704,9.074,19.704s-3.93,4.821-3.962,4.381
			C166.113,148.251,158.932,122.253,161.029,124.604z"/>
		<path d="M80.796,141.616c-1.995,12.843,5.254,32.281,8.675,36.833c7.649,1.426,15.955-0.011,19.167-0.211
			c17.815,7.484,33.624-7.405,33.624-7.405S81.116,139.528,80.796,141.616z"/>
		<path fill="#FFE5B2" d="M166.27,150.75c-29.349,24.951-70.887,25.802-73.014,23.818c-8.507-9.783-13.851-32.274-12.738-41.728
			c8.158-6.187,67.854-21.716,67.854-21.716s5.968,3.471,7.108,4.613C159.996,120.613,165.19,130.562,166.27,150.75z"/>
		<path d="M91.161,158.298c0,0,7.057,14.993,12.737,17.857c3.137,2.226,6.135-0.28,6.135-0.28L91.161,158.298z"/>
		<path d="M136.016,102.01c0,0,12.114,4.938,19.003,13.33c3.777,6.473-21.57-8.221-21.57-8.221l-3.661-4.146L136.016,102.01z"/>
		<path d="M156.254,134.458c0,0,3.58,14.613,3.776,16.481c0.193,1.864-9.069,13.069-9.069,13.069l-3.982-0.268L156.254,134.458z"/>
		<path fill="#D1AB6F" d="M157.242,150.61c-0.425,0.563-10.064,12.472-11.766,15.307c-9.36,6.128-20.796,9.77-28.62,10.209
			c-5.449,0.307-9.146-1.89-9.146-1.89s-5.412-1.557-11.212-8.127c-5.931-9.781-15.539-18.526-15.98-33.27
			c0.333-5.671,2.083-9.523,2.767-11.072c25.776,2.836,46.503-18.794,46.503-18.794s23.298,9.073,26.087,13.042
			c1.195,1.704,0.039,9.907,0.188,16.824"/>
		<path fill="#B0B4B7" d="M84.438,131.138c1.147-0.105,6.129-7.491,15.834-5.529c9.236-8.627,22.533-3.009,27.624-4.678
			s-27.213,7.457-27.213,7.457L84.438,131.138z"/>
		<path fill="#31738B" d="M88.393,150.938c0,0,0.906,4.233,7.882,4.174c3.17-0.025,11.767-3.494,13.759-3.536
			c4.537-0.964,11.633,1.165,15.416-0.12c12.827-4.361,13.847-19.826,13.847-19.826L88.393,150.938z"/>
		<path fill="#D1AB6F" d="M81.81,125.625c-2.023,5.703-5.899,8.445-4.954,8.113c0.946-0.332,3.534,3.43,4.924,7.728
			C86.883,143.469,83.692,125.024,81.81,125.625z"/>
		<path fill="#FFFFFF" d="M82.154,133.535c0,0,1.883,1.804,2.906,3.849c0.903,1.729,1.25,3.395,1.25,3.395s3.024,7.347,21.833,0.837
			c31.192,1.43,34.12-25.164,34.12-25.164s-1.846,6.67-26.152,7.558c-7.305,0.325-15.838,4.576-15.838,4.576L82.154,133.535z"/>
		<path fill="#EAC798" d="M142.262,116.452c0.189,11.095-5.691,24.561-14.176,30.944c-6.161,4.633-12.666,0.189-19.471,2.269
			c-4.629,0.893-14.212,5.231-18.145,3.211c-2.969-1.521-3.117-4.838-3.374-7.748c-0.197-2.214-0.786-4.349-0.786-4.349
			s3.304,1.927,8.884,1.702c4.046-0.164,9.899-2.348,13.611-2.915c8.823-1.351,17.011-0.486,22.684-6.508
			C136.591,128.302,140.94,121.803,142.262,116.452z"/>
		<path fill="#EAC798" d="M77.803,133.405c0,0,3.563-0.663,6.635-2.267c2.465-1.287,4.104-3.444,7.163-4.348
			c3.106-0.919,6.311,0.045,8.671-0.189c1.699-0.169,3.75-2.757,7.453-3.59c6.357-1.3,13.582-0.848,20.171-2.08
			c10.035-1.05,14.366-4.479,14.366-4.479s-1.341,3.785-9.784,7.126c-3.374,1.017-17.836,5.691-30.668,6.614
			C89.333,134.541,77.803,133.405,77.803,133.405z"/>
		<path d="M134.417,113.175c-0.074,0.117,6.578,2.721,7.653,3.667c2.912,2.561,2.671,2.455,4.018,4.594c0,0,2.255-3.043-2.16-6.219
			C140.932,113.064,134.665,112.778,134.417,113.175z"/>
		<path d="M77.235,131.468c0.568,1.937,0,4.537,0,4.537S74.965,134.019,77.235,131.468z"/>
		<path d="M152.47,136.005c-2.079,4.964,0.094,7.989-1.796,7.895C148.782,143.804,148.879,139.172,152.47,136.005z"/>
		<path fill="#D1AB6F" d="M107.771,80.424c4.681,7.644,9.229,12.096,13.545,14.239c10.914,5.416,25.781-1.345,32.189-11.19
			c5.541-8.514,3.388-19.987,3.388-19.987S120.982,47.225,107.771,80.424z"/>
		<path fill="#31738B" d="M120.333,65.403c-8.081,14.46-5.104,20.414,0,27.658c-7.43-3.22-12.609-12.67-12.609-12.67
			S110.949,71.337,120.333,65.403z"/>
		<path fill="#D1AB6F" d="M85.351,82.795c-1.692-4.064-30.15-4.065-34.554,4.065c-3.388,23.036,17.162,20.871,17.162,20.871
			S85.351,105.492,85.351,82.795z"/>
		<path fill="#31738B" d="M58.588,82.795c-3.755,6.283,0.88,24.016-0.879,22.888c-9.256-7.01-6.913-18.823-6.913-18.823
			S51.963,84.253,58.588,82.795z"/>
		<path fill="#31738B" d="M76.755,93.061c-10.863,8.636-19.382,3.655-19.382,3.655l-1.263-1.427l2.478-5.129
			C58.588,90.16,87.618,84.422,76.755,93.061z"/>
		<path d="M85.351,82.795c-10.081-4.751-31.033-0.655-34.554,4.065C53.7,80.052,80.372,77.277,85.351,82.795z"/>
		<path d="M50.797,86.861c0,0-1.417,19.742,16.596,18.875c16.629-0.841,17.958-22.94,17.958-22.94s0.483,22.893-18.427,24.986
			C46.271,107.414,50.797,86.861,50.797,86.861z"/>
		<path d="M90.459,82.795c10.212-2.307,17.266,11.16,17.266,11.16s4.592,1.225,7.819,7.108c2.424,5.021,0.39,11.165-6.63,12.112
			c-4.754,4.825-13.052,6.753-20.604,6.014c-14.641,1.23-14.334-10.929-7.3-16.216c0.911-2.393,2.482-5.038,4.341-9.913
			C86.92,88.943,87.978,83.965,90.459,82.795z"/>
		<path fill="#D1AB6F" d="M91.788,85.167c6.776-0.339,14.568,11.418,14.568,11.418s4.89,1.436,6.896,4.669
			c2.054,3.315,1.146,8.451-5.541,10.336c-9.826,7.792-18.294,5.421-18.294,5.421s-7.751,1.795-9.786-1.932
			c-3.037-5.846,2.671-9.924,2.671-9.924s3.591-5.834,5.42-11.2C89.25,89.475,88.704,85.321,91.788,85.167z"/>
		<path fill="#31738B" d="M87.095,115.08c0,0-10.385-0.267-4.716,1.991c4.743,0.987,6.854-0.087,7.037-0.059
			c9.75,1.973,17.711-4.886,18.294-5.421C97.567,117.251,87.095,115.08,87.095,115.08z"/>
		<path fill="#31738B" d="M116.856,85.16c-0.005,2.793,2.607,1.211,2.607,1.211s14.953,7.415,26.002-4.454
			c-14.112-0.17-26.002,1.487-26.002,1.487S116.86,83.503,116.856,85.16z"/>
		<path fill="#D7DADD" d="M116.856,85.16c0.448,1.127,1.059,0.778,2.405-0.452c3.377,1.151,10.168,4.837,20.632,0.452
			c4.956-1.928,7.779-5.271,9.789-7.116c3.403,0.687,2.624-1.347,2.624-1.347s-2.44-3.64-8.347-5.167
			C134.699,69.139,120.045,70.187,116.856,85.16z"/>
		<path fill="#D7DADD" d="M57.102,93.956c-0.425,2.07,1.111,0.489,1.65,0.701c12.859,5.065,19.69-1.788,22.128-4.682
			c2.027,0.616,1.344-0.735,1.034-1.18c-0.311-0.443-2.399-3.336-7.373-4.678C68.287,82.431,59.157,83.562,57.102,93.956z"/>
		<path d="M100.274,111.512c0.028-0.574,0.649-1.755,2.045-2.511c2.152-1.165,5.071-1.862,5.391,0.348
			c0.203,1.644-1.925,2.107-3.886,1.374c-0.891,0.034-2.079,0.516-2.727,1.045C100.725,111.91,100.245,112.086,100.274,111.512z"/>
		<path d="M81.842,113.673c0.462-0.854,2.083-0.504,3.174,0.241c1.375,0.938,2.079,2.233,2.079,2.233s-0.149,0.701-1.035-0.023
			c-0.682-0.521-1.246-0.361-1.246-0.361S81.279,116.446,81.842,113.673z"/>
		<path d="M54.267,90.875c0.946,1.891,3.02,2.247,3.037,2.177c0.009-0.036,1.926-8.085,10.583-9.462
			c5.587-1.388,10.58,2.162,12.631,3.664c-1.015-3.703-4.56-3.561-7.536-5.925c-0.629,0.885,1.039,2.151,1.039,2.151
			s-1.749-0.496-2.834-2.151c-1.041,0.095,0.093,1.702,0.093,1.702l-2.361-0.912c0,0-2.083,0.12-2.899-0.838
			c-0.608,0.374,0,1.564,0,1.564s-1.158-0.3-1.876-0.934c-0.304,1.027-0.069,2.006-0.069,2.006s-1.823,0.776-3.113-0.537
			c-0.086,0.822-0.147,2.344-0.147,2.344s-1.43,0.83-2.645,0.597c0.364,0.769,0.639,1.125,1.224,1.222
			c-0.182,0.292-1.06,0.605-2.53,0.365c0.187,0.567,1.26,1.188,1.26,1.188s-1.095,0.445-2.636,0.258
			c0.233,0.911,1.681,1.446,1.681,1.446S55.591,91.538,54.267,90.875z"/>
		<path d="M117.725,82.119c1.476-7.69,9.322-11.572,9.322-11.572v1.707c0,0,3.213-2.492,3.95-3.673
			c0.442,0.851-0.884,1.411-0.562,1.966c0.324,0.552,2.322-1.468,3.023-2.739c1.117,0.81-2.249,2.501-1.56,2.739
			c0.69,0.237,5.929-3.796,5.921-3.396c-0.009,0.398-2.268,2.741-2.268,2.741s0.922-0.726,2.408-1.171
			c1.487-0.443,3.54-0.609,5.816-1.569c1.038,0.567-3.685,1.229-4.807,2.869c-0.732,1.336,6.445-0.876,7.356-1.451
			c0.501,1.508-2.924,0.993-2.646,1.978c0.279,0.984,4.946-0.349,5.577-0.939c0.236,0.662-1.592,1.575-2.268,1.796
			c-0.146,1.134,2.504,0.131,3.308-0.472c0.533,0.463-2.04,1.891-1.135,1.608c0.907-0.284,1.666-0.154,2.654-0.863
			c0.56,0.472-1.801,1.241-1.141,1.808c1.608,0.851,2.907,0.282,3.497,0.473c0.757,0.566-1.865,0.885-1.865,0.885
			s1.642,2.107,1.772,3.726c-0.293-1.168-1.772-1.871-1.772-1.871S128.557,62.614,117.725,82.119z"/>
		<g>
			<g>
				<path fill="#31738B" d="M143.326,80.83c-0.563,4.922-5.005,8.453-9.927,7.891c-4.919-0.56-8.455-5.005-7.892-9.923
					c0.562-4.923,5.004-8.455,9.926-7.894C140.352,71.465,143.886,75.911,143.326,80.83z"/>
				<path fill="#2792AF" d="M140.608,80.522c-0.313,2.716-2.768,4.667-5.479,4.356c-2.72-0.311-4.668-2.767-4.359-5.48
					c0.311-2.717,2.765-4.667,5.482-4.358C138.969,75.35,140.918,77.805,140.608,80.522z"/>
				<path fill="#D7DADD" d="M145.134,75.046c-0.312,2.715-2.764,4.667-5.481,4.357c-2.716-0.311-4.669-2.764-4.358-5.482
					c0.312-2.714,2.766-4.667,5.481-4.355C143.492,69.874,145.446,72.329,145.134,75.046z"/>
				<circle cx="134.417" cy="79.813" r="4.07"/>
				<path fill="#D7DADD" d="M137.061,78.387c-0.11,0.973-0.988,1.673-1.964,1.559c-0.97-0.11-1.67-0.989-1.558-1.96
					c0.111-0.972,0.991-1.67,1.961-1.56C136.473,76.537,137.171,77.414,137.061,78.387z"/>
			</g>
		</g>
		<g>
			<g>
				<path fill="#31738B" d="M76.705,90.924c-0.493,4.317-4.393,7.417-8.711,6.923c-4.316-0.492-7.415-4.392-6.923-8.707
					c0.496-4.319,4.394-7.419,8.709-6.923C74.097,82.707,77.198,86.607,76.705,90.924z"/>
				<circle fill="#D7DADD" cx="73.826" cy="85.53" r="4.33"/>
				<path fill="#2792AF" d="M74.319,90.651c-0.271,2.385-2.424,4.098-4.809,3.825c-2.382-0.273-4.094-2.425-3.823-4.808
					c0.275-2.384,2.428-4.095,4.808-3.824C72.881,86.115,74.592,88.268,74.319,90.651z"/>
				<circle cx="68.887" cy="90.031" r="3.572"/>
				<path fill="#D7DADD" d="M71.208,88.78c-0.096,0.857-0.868,1.465-1.724,1.37c-0.85-0.098-1.465-0.869-1.364-1.721
					c0.095-0.852,0.866-1.466,1.717-1.37C70.694,87.159,71.306,87.926,71.208,88.78z"/>
			</g>
		</g>
		<path d="M156.832,63.486c-36.895-17.459-49.107,16.905-49.107,16.905S118.212,52.43,156.832,63.486z"/>
		<path d="M156.832,63.486c0,0,5.385,21.872-18.494,31.538c-20.071,7.936-30.613-14.631-30.613-14.631s12.476,20.084,30.762,12.089
			C159.296,84.438,156.832,63.486,156.832,63.486z"/>
		<path d="M151.569,58.164c0,0,9.457-3.13,15.612-1.94c0.742,0.145,2.527,1.581,2.675,2.317c0.497,2.48,0.412,6.416,0.412,6.416
			s20.924,23.711,25.747,29.371c11.408,17.789,4.371,31.006,3.749,33.577c-2.36-6.808-7.601-7.98-7.601-7.98
			s-0.125-4.583-1.493-7.937c-4.01-4.022-28.113-22.013-28.113-22.013l-10.063,2.57l9.09-10.992l5.595-18.352l-3.204-4.661
			L151.569,58.164z"/>
		<path d="M34.986,87.253c19.281-8.934,38.095-8.545,38.095-8.545l-31.3,11.452l5.576,17.746
			C47.356,107.906,39.239,104.958,34.986,87.253z"/>
		<g>
			<path fill="#333333" d="M161.583,86.414l30.635,23.937l2.341,7.716l1.765,1.322l-1.046-12.29c0,0-9.616-10.289-10.281-10.565
				c-0.666-0.277-19.823-16.895-19.823-16.895L161.583,86.414z"/>
			<path fill="#4D4D4D" d="M166.068,63.2c0,0,31.648,33.912,33.857,42.367c1.189,5.996-0.651,17.739-0.651,17.739
				s-2.942-3.263-2.95-3.916c-0.008-0.651-0.9-6.567-2.794-10.269c-7.369-6.857-31.399-24.648-31.395-24.663
				C162.141,84.443,166.068,63.2,166.068,63.2z"/>
			<path opacity="0.2" fill="#CCCCCC" stroke="#CCCCCC" stroke-miterlimit="10" d="M107.639,78.562
				c12.18-15.182,47.586-17.77,49.121-18.046s2.052,1.482,2.052,1.482s1.337,7.661,0.526,16.931c-0.179,1.7-1.792,2.138-1.792,2.138
				s-18.609,10.359-39.884,13.546C116.253,93.175,106.933,84.24,107.639,78.562z"/>
			<path opacity="0.2" fill="#CCCCCC" stroke="#CCCCCC" stroke-miterlimit="10" d="M44.325,90.639
				c0.153,8.13,6.762,14.601,6.762,14.601s10.174,0.609,29.529-7.901c1.094-1.487,4.565-11.748-1.034-15.451
				C78.827,81.063,63.153,81.035,44.325,90.639z"/>
			<path opacity="0.5" fill="#CCCCCC" d="M120.285,93.898c4.821-10.137,9.652-20.303,15.203-30.057
				c-3.461,0.868-7.052,1.938-10.516,3.253c-4.123,7.408-7.965,14.971-11.63,22.619c1.939,2.276,3.76,4.042,4.321,4.617
				C118.544,94.198,119.416,94.053,120.285,93.898z"/>
			<path opacity="0.5" fill="#CCCCCC" d="M133.485,85.188c4.025-7.821,8.048-15.676,12.428-23.31
				c-2.736,0.481-5.769,1.092-8.914,1.871c-5.572,9.769-10.406,19.93-15.236,30.09c2.804-0.51,5.546-1.136,8.189-1.83
				C131.139,89.741,132.316,87.466,133.485,85.188z"/>
			<path opacity="0.5" fill="#CCCCCC" d="M51.086,104.957c0,0,1.261,0.073,3.729-0.198c3.203-7.196,6.198-14.487,9.281-21.739
				c-2.631,0.625-5.509,1.449-8.571,2.526c-2.572,5.266-4.993,10.599-7.186,16.029C49.795,103.69,51.086,104.957,51.086,104.957z"/>
			<path opacity="0.5" fill="#CCCCCC" d="M72.48,81.541c-0.925,0.103-1.929,0.235-3.003,0.406
				c-2.774,7.143-5.388,14.342-7.813,21.609c0.958-0.221,1.984-0.479,3.071-0.775C67.178,95.653,69.766,88.573,72.48,81.541z"/>
			<g>
				<path fill="#333333" d="M45.646,92.036c1.159,6.924,6.713,13.399,6.226,13.389c-0.487-0.009-4.558-1.834-4.558-1.834
					s-3.718-7.69-4.035-8.399c-0.319-0.71-0.514-3.823-0.529-4.318c-0.016-0.494,1.015-2.218,1.015-2.218s14.529-7.108,36.072-7.922
					c1.852,0.528,2.663,2.678,2.997,3.403C83.168,84.864,69.874,78.546,45.646,92.036z"/>
				<path fill="#333333" d="M109.778,79.395c-0.277,5.345,7.885,15.218,7.885,15.218s-10.13-4.985-12.231-15.5
					c0.156-1.339,2.076-2.735,2.074-2.94c-0.003-0.205,15.092-14.106,51.219-16.999c2.208,0.754,0.074,2.362,0.074,2.362
					S121.891,66.276,109.778,79.395z"/>
				<path fill="#333333" d="M48.559,109.529c0,0,2.76,2.176,4.113,1.721c29.45-4.098,31.693-10.615,31.693-10.615
					s2.383-3.562,3.312-11.475c6.179-4.428,16.22-5.891,16.22-5.891s-7.374-3.784-17.874,3.013
					c-1.232,5.893-2.794,9.94-5.273,12.486C78.274,101.315,48.559,109.529,48.559,109.529z"/>
				<path fill="#333333" d="M166.776,57.591l1.321,1.293c0,0,2.838,10.44-4.876,28.691c-19.122,11.293-45.107,10.498-45.107,10.498
					l-1.755-0.421l44.055-15.311L166.776,57.591z"/>
			</g>
			<path fill="#4D4D4D" d="M166.776,57.591c-4.472-2.929-30.12,3.581-43.637,7.619c-5.02,1.501-8.282,3.134-8.282,3.134
				s-5.254,2.218-11.128,9.409c-13.822,1.146-17.891,5.486-17.891,5.486s-5.858-4.78-8.107-5.327
				c-19.515,1.326-39.319,9.643-40.073,10.749c2.068,9.432,10.157,19.868,10.901,20.868c0.743,1,28.387-6.53,28.387-6.53
				s6.122-1.974,8.061-8.158c1.474-4.699,1.799-7.707,1.799-7.707s11.677-6.366,17.092-3.864
				c7.925,12.313,12.46,14.383,12.46,14.383s12.99-0.792,23.561-3.175c12.922-2.969,21.639-7.965,21.639-7.965
				S168.964,70.978,166.776,57.591z M80.615,97.338c-19.354,8.511-29.529,7.901-29.529,7.901s-6.608-6.47-6.762-14.601
				c18.828-9.604,34.502-9.576,35.257-8.751C85.181,85.59,81.709,95.851,80.615,97.338z M159.338,78.93
				c-0.179,1.7-1.792,2.138-1.792,2.138s-17.644,10.432-39.285,13.154c-1.409-1.438-11.328-9.981-10.622-15.659
				c12.18-15.182,47.586-17.77,49.121-18.046s2.052,1.482,2.052,1.482S160.149,69.659,159.338,78.93z"/>
		</g>
		<g>
			<path opacity="0.5" fill="#FB3681" d="M142.262,116.452c0.189,11.095-5.691,24.561-14.176,30.944
				c-6.161,4.633-12.666,0.189-19.471,2.269c-4.629,0.893-14.212,5.231-18.145,3.211c-2.969-1.521-3.117-4.838-3.374-7.748
				c-0.197-2.214-0.786-4.349-0.786-4.349s3.304,1.927,8.884,1.702c4.046-0.164,9.899-2.348,13.611-2.915
				c8.823-1.351,17.011-0.486,22.684-6.508C136.591,128.302,140.94,121.803,142.262,116.452z"/>
			<path opacity="0.5" fill="#FB3681" d="M77.803,133.405c0,0,3.563-0.663,6.635-2.267c2.465-1.287,4.104-3.444,7.163-4.348
				c3.106-0.919,6.311,0.045,8.671-0.189c1.699-0.169,3.75-2.757,7.453-3.59c6.357-1.3,13.582-0.848,20.171-2.08
				c10.035-1.05,14.366-4.479,14.366-4.479s-1.341,3.785-9.784,7.126c-3.374,1.017-17.836,5.691-30.668,6.614
				C89.333,134.541,77.803,133.405,77.803,133.405z"/>
		</g>
		<path fill="#3A2005" d="M75.865,62.217c4.405,1.694,5.439,4.599,4.225,7.249c-1.083,1.799-3.097,1.925-9.015,1.529
			c-9.659-2.042-20.487,4.564-24.364,8.964c2.305-6.179,5.698-11.861,9.399-14.556C64.437,61.936,72.434,61.82,75.865,62.217z"/>
		<path fill="#3A2005" d="M111.99,49.513c-1.433,3.643,2.907,7.047,2.907,7.047s22.424-11.535,35.176-4.707
			c-1.573-2.126-3.59-6.331-11.737-8.503C130.955,41.383,119.362,43.193,111.99,49.513z"/>
		<path d="M82.684,104.515c0,0-1.004,2.313-0.903,5.394c-2.072-1.778-1.409-4.173-1.409-4.173L82.684,104.515z"/>
		<path fill="#B0B4B7" d="M90.567,85.53c-1.143-0.357-2.973,8.855-3.852,11.186c-1.746,3.971-3.556,6.015-4.226,7.798
			c-1.333,3.545-0.955,4.024-0.708,5.395c1.726-5.608,5.076-7.583,6.904-12.011C90.27,93.839,89.421,87.285,90.567,85.53z"/>
		<path fill="#B0B4B7" d="M80.372,107.12c0,0-3.201,2.984-0.741,7.96c-0.405-3.274,1.848-5.457,1.848-5.457L80.372,107.12z"/>
		<path fill="#31738B" d="M106.355,96.585c9.55,3.041,7.673,9.562,7.673,9.562s-3.521-6.799-9.397-5.829
			c-1.6-6.23-7.418-13.332-7.156-13.148C97.738,87.354,101.51,89.245,106.355,96.585z"/>
		<path d="M80.372,133.53c0,0,5.708,2.849,6.724,13.109c-0.119-8.982-4.069-12.176-4.069-12.176c1.412,0.4,3.352-0.352,7.541-1.612
			C84.658,133.694,80.372,133.53,80.372,133.53z"/>
		<path d="M142.262,116.452c0.253,4.665-2.966,15.179-2.966,15.179s4.831-8.732,4.682-14.143
			C143.618,116.027,141.756,114.078,142.262,116.452z"/>
		<path d="M142.262,116.452c0,0-2.392,4.452-11.376,7.614c11.885-3.807,11.885-6.836,11.885-6.836L142.262,116.452z"/>
		<polygon points="77.803,133.405 81.781,133.613 82.684,134.929 77.488,133.737 		"/>
		<path d="M107.71,138.357c4.049-0.659,9.497-0.485,12.623-1.084c11.137-2.135,13.785-6.894,13.785-6.894s-2.135,4.108-8.85,6.864
			c-4.026,1.654-11.441,1.458-17.568,2.522c-2.348,0.584-6.024,1.609-8.758,2.179c-1.418,0.648-9.489,1.55-12.524-0.955
			c-0.23-0.19-0.22-1.014-0.392-1.245C86.771,139.873,92.716,144.671,107.71,138.357z"/>
		<path opacity="0.5" fill="#CCCCCC" d="M168.606,65.951c0,0,7.475,8.047,15.255,17.243c4.244,5.019,8.549,10.411,11.859,14.95
			c-14.237-17.611-27.645-27.134-27.645-27.134L168.606,65.951z"/>
		<path d="M170.268,64.957c0,0-0.515,7.316-3.568,12.592c1.906-8.083,1.906-13.71,1.906-13.71L170.268,64.957z"/>
		<path fill="#31738B" d="M87.67,153.266c10.263,7.548,12.531,19.739,31.812,22.61c-0.592,1.348-9.449,0-9.449,0
			s-9.896-4.867-12.567-8.56C94.796,163.619,89.991,157.079,87.67,153.266z"/>
	</g>
</g>
</svg>
