<?xml version="1.0" encoding="utf-8"?>
<!-- Generator: Adobe Illustrator 16.2.1, SVG Export Plug-In . SVG Version: 6.00 Build 0)  -->
<!DOCTYPE svg PUBLIC "-//W3C//DTD SVG 1.1//EN" "http://www.w3.org/Graphics/SVG/1.1/DTD/svg11.dtd">
<svg version="1.1" id="Capa_1" xmlns="http://www.w3.org/2000/svg" xmlns:xlink="http://www.w3.org/1999/xlink" x="0px" y="0px"
	 width="242.941px" height="269.291px" viewBox="0 0 242.941 269.291" enable-background="new 0 0 242.941 269.291"
	 xml:space="preserve">
<g id="Capa_1_1_">
	<path fill="#FFFFFF" d="M121.998,0l0.54,111.274L139.938,1.457L123.603,111.45L157.435,5.792l-32.805,106L174.06,12.9
		l-48.467,99.399l63.811-89.695l-62.938,90.351l76.619-78.29l-75.856,79.078l87.544-64.955l-86.909,65.856l96.312-50.021
		l-95.824,51.014l102.709-33.854l-102.375,34.916L235.261,99.84l-106.405,17.958l107.819,0.557l-107.819,0.557l106.405,17.957
		l-106.574-16.855l102.375,34.914l-102.709-33.854l95.824,51.011l-96.312-50.018l86.908,65.851l-87.544-64.951l75.856,79.074
		l-76.619-78.286l62.938,90.348l-63.811-89.691l48.467,99.395l-49.43-98.889l32.805,105.998l-33.832-105.654l16.334,109.989
		l-17.399-109.814l-0.54,111.271l-0.541-111.271L104.06,235.248l16.332-109.989l-33.83,105.654l32.802-105.999l-49.429,98.89
		l48.466-99.396l-63.809,89.692l62.937-90.348L40.91,202.04l75.855-79.074l-87.545,64.951l86.909-65.851L19.82,172.083
		l95.821-51.011L12.933,154.926l102.375-34.915L8.733,136.868l106.405-17.957L7.322,118.354l107.816-0.557L8.733,99.84
		l106.574,16.858L12.933,81.782l102.708,33.854L19.82,64.623l96.312,50.021L29.222,48.788l87.545,64.955L40.91,34.665l76.618,78.29
		L54.592,22.604l63.81,89.695l-48.466-99.4l49.43,98.894l-32.803-106l33.83,105.657L104.061,1.457l17.396,109.817L121.998,0z"/>
</g>
<g id="Capa_4">
	<g>
		<g>
			<rect x="61.163" y="192.96" fill="#FFFFFF" width="123.59" height="30.52"/>
			<path d="M183.253,194.46v27.52H62.663v-27.52H183.253 M186.252,191.46h-2.999H62.663h-3v3v27.52v3h3h120.591h2.999v-3v-27.52
				L186.252,191.46L186.252,191.46z"/>
		</g>
		<g>
			<path d="M88.697,214.479c-0.418,0-0.786-0.049-1.104-0.146c-0.319-0.098-0.594-0.23-0.831-0.393
				c-0.235-0.164-0.433-0.349-0.594-0.556s-0.294-0.419-0.399-0.638c-0.243-0.506-0.382-1.084-0.418-1.734l1.669-0.418
				c0.019,0.473,0.086,0.891,0.208,1.256c0.053,0.157,0.12,0.312,0.2,0.463c0.082,0.148,0.181,0.283,0.298,0.401
				c0.119,0.118,0.258,0.212,0.416,0.285c0.162,0.072,0.345,0.108,0.555,0.108c0.839,0,1.259-0.418,1.259-1.256
				c0-0.209-0.026-0.403-0.079-0.586c-0.052-0.182-0.129-0.355-0.234-0.522c-0.104-0.167-0.235-0.332-0.393-0.49
				c-0.157-0.159-0.339-0.324-0.55-0.494l-2.094-1.675c-0.213-0.171-0.398-0.361-0.559-0.579c-0.158-0.216-0.291-0.444-0.396-0.683
				c-0.104-0.24-0.182-0.485-0.232-0.733c-0.05-0.249-0.075-0.496-0.075-0.739c0-0.375,0.062-0.733,0.188-1.076
				c0.128-0.344,0.313-0.644,0.56-0.904c0.248-0.258,0.553-0.465,0.919-0.618c0.366-0.151,0.788-0.228,1.268-0.228
				c0.419,0,0.787,0.043,1.107,0.13c0.318,0.088,0.595,0.202,0.832,0.347c0.235,0.145,0.434,0.309,0.595,0.491
				c0.162,0.183,0.294,0.368,0.399,0.557c0.245,0.449,0.384,0.957,0.418,1.523l-1.674,0.419c-0.018-0.393-0.085-0.741-0.208-1.046
				c-0.056-0.134-0.122-0.261-0.201-0.384c-0.082-0.125-0.183-0.235-0.3-0.334s-0.257-0.178-0.415-0.238
				c-0.162-0.062-0.346-0.092-0.556-0.092c-0.219,0-0.406,0.033-0.568,0.102c-0.159,0.066-0.289,0.158-0.393,0.271
				c-0.103,0.112-0.178,0.246-0.227,0.399c-0.048,0.152-0.071,0.313-0.071,0.483c0,0.289,0.066,0.584,0.204,0.885
				c0.135,0.303,0.348,0.568,0.637,0.794l2.095,1.674c0.266,0.213,0.502,0.448,0.71,0.703c0.208,0.254,0.384,0.521,0.526,0.8
				c0.145,0.278,0.254,0.564,0.328,0.859c0.074,0.294,0.11,0.583,0.11,0.872c0,0.36-0.06,0.707-0.175,1.036
				c-0.119,0.328-0.299,0.621-0.542,0.873c-0.242,0.252-0.546,0.455-0.913,0.605C89.633,214.405,89.199,214.479,88.697,214.479z"/>
			<path d="M99.853,210.594c0,0.524-0.054,1.021-0.163,1.492c-0.108,0.472-0.292,0.883-0.55,1.236
				c-0.256,0.353-0.601,0.635-1.029,0.844c-0.431,0.21-0.966,0.313-1.606,0.313c-0.438,0-0.821-0.047-1.157-0.145
				c-0.337-0.095-0.628-0.229-0.874-0.398c-0.247-0.17-0.456-0.375-0.625-0.614c-0.17-0.24-0.306-0.505-0.408-0.792
				c-0.104-0.289-0.176-0.596-0.219-0.922c-0.044-0.328-0.067-0.666-0.067-1.016v-4.186c0-0.35,0.023-0.688,0.067-1.014
				c0.043-0.328,0.116-0.636,0.219-0.925c0.103-0.286,0.237-0.551,0.408-0.791c0.17-0.239,0.379-0.444,0.625-0.614
				c0.245-0.172,0.537-0.305,0.874-0.399c0.335-0.097,0.72-0.144,1.157-0.144c0.641,0,1.176,0.104,1.606,0.312
				c0.43,0.209,0.773,0.491,1.029,0.844c0.258,0.354,0.441,0.766,0.55,1.237c0.109,0.47,0.163,0.967,0.163,1.491V210.594z
				 M94.829,211.013c0,0.314,0.027,0.601,0.085,0.856c0.056,0.259,0.148,0.479,0.279,0.662c0.132,0.183,0.305,0.325,0.518,0.425
				c0.213,0.102,0.477,0.15,0.792,0.15c0.314,0,0.579-0.049,0.792-0.15c0.213-0.1,0.386-0.242,0.517-0.425
				c0.13-0.183,0.225-0.403,0.281-0.662c0.057-0.256,0.085-0.542,0.085-0.856v-5.022c0-0.313-0.028-0.601-0.085-0.857
				c-0.057-0.258-0.15-0.478-0.281-0.661c-0.131-0.182-0.303-0.324-0.517-0.424c-0.213-0.101-0.478-0.15-0.792-0.15
				s-0.578,0.051-0.792,0.15c-0.213,0.1-0.386,0.242-0.518,0.424c-0.131,0.185-0.225,0.403-0.279,0.661
				c-0.059,0.257-0.085,0.544-0.085,0.857V211.013z"/>
			<path d="M106.256,214.362l-2.996-7.799v7.799h-1.674V202.64h1.099l3.088,7.654v-7.654h1.674v11.724L106.256,214.362
				L106.256,214.362z"/>
			<path d="M111.482,214.362v-3.769l-2.511-7.954h1.673l1.678,5.861l1.672-5.861h1.496l-2.334,7.954v3.769H111.482z"/>
			<path d="M118.196,211.431l-0.586,2.932h-1.674l2.456-11.723h1.729l2.516,11.723h-1.613l-0.628-2.932H118.196z M120.123,210.175
				l-0.837-5.023l-0.837,5.023H120.123z"/>
			<path d="M132.755,206.409c0-0.419-0.028-0.785-0.086-1.1s-0.15-0.576-0.282-0.785c-0.13-0.209-0.302-0.367-0.515-0.473
				c-0.215-0.104-0.479-0.156-0.793-0.156s-0.578,0.053-0.79,0.156c-0.214,0.105-0.387,0.262-0.519,0.473
				c-0.13,0.207-0.224,0.47-0.28,0.785c-0.057,0.314-0.085,0.681-0.085,1.1v3.767c0,0.628,0.049,1.136,0.144,1.519
				c0.096,0.385,0.223,0.681,0.38,0.89c0.157,0.21,0.334,0.349,0.536,0.418c0.2,0.07,0.405,0.104,0.615,0.104
				s0.416-0.034,0.615-0.104c0.199-0.069,0.38-0.208,0.536-0.418c0.156-0.209,0.282-0.505,0.379-0.89
				c0.097-0.383,0.145-0.89,0.145-1.519v-0.418h-1.675v-1.256h3.35v5.861h-1.256l-0.419-1.257c-0.092,0.259-0.214,0.486-0.368,0.688
				c-0.063,0.087-0.14,0.173-0.224,0.256c-0.086,0.082-0.183,0.155-0.291,0.219c-0.11,0.062-0.23,0.113-0.361,0.154
				c-0.131,0.038-0.274,0.059-0.432,0.059c-0.35,0-0.674-0.03-0.975-0.088c-0.301-0.061-0.575-0.16-0.824-0.299
				c-0.247-0.14-0.469-0.324-0.66-0.556s-0.355-0.522-0.487-0.869c-0.133-0.351-0.232-0.76-0.301-1.231
				c-0.067-0.47-0.101-1.017-0.101-1.642v-2.97c0-0.627,0.057-1.205,0.17-1.733s0.301-0.98,0.562-1.36
				c0.263-0.379,0.605-0.676,1.034-0.89c0.427-0.213,0.955-0.319,1.583-0.319c0.554,0,1.04,0.084,1.456,0.257
				c0.417,0.173,0.765,0.424,1.046,0.753c0.28,0.329,0.494,0.734,0.635,1.219c0.141,0.485,0.213,1.036,0.213,1.656H132.755z"/>
			<path d="M140.848,214.362l-1.755-5.443h-1.256v5.443h-1.674V202.64h2.093c0.732,0,1.342,0.076,1.825,0.227
				s0.87,0.363,1.157,0.639c0.287,0.273,0.49,0.605,0.608,0.991c0.118,0.385,0.176,0.813,0.176,1.285
				c0,0.288-0.02,0.548-0.062,0.778c-0.041,0.232-0.099,0.438-0.167,0.619c-0.07,0.182-0.148,0.342-0.237,0.478
				c-0.087,0.138-0.175,0.254-0.268,0.35c-0.215,0.231-0.46,0.397-0.737,0.499l1.89,5.859h-1.594V214.362z M137.836,207.665h0.419
				c0.313,0,0.6-0.03,0.856-0.089c0.258-0.058,0.479-0.16,0.661-0.304c0.184-0.145,0.325-0.336,0.427-0.58
				c0.1-0.241,0.149-0.547,0.149-0.912c0-0.367-0.05-0.672-0.149-0.912c-0.102-0.243-0.243-0.436-0.427-0.579
				c-0.183-0.146-0.402-0.246-0.661-0.306c-0.257-0.06-0.543-0.088-0.856-0.088h-0.419V207.665z"/>
			<path d="M147.734,208.919h-2.094v4.188h2.931v1.256h-4.604V202.64h4.604v1.256h-2.931v3.77h2.094V208.919z"/>
			<path d="M153.863,208.919h-2.093v4.188h2.931v1.256h-4.604V202.64h4.604v1.256h-2.931v3.77h2.093V208.919z"/>
			<path d="M160.895,214.362l-2.995-7.799v7.799h-1.675V202.64h1.1l3.089,7.654v-7.654h1.674v11.724L160.895,214.362
				L160.895,214.362z"/>
		</g>
	</g>
</g>
<g id="Capa_16">
	<g>
		<g>
			<polygon fill="#D9DADB" points="168.683,267.594 168.683,260.562 75.286,260.562 75.286,267.594 5.961,267.594 21.253,248.331 
				5.961,229.067 36.078,229.067 36.078,222.034 207.711,222.034 207.711,229.067 237.494,229.067 225.262,248.331 237.494,267.594 
							"/>
			<path d="M205.662,224.083v7.033h28.102l-10.931,17.215l10.931,17.213h-63.031v-7.032H73.235v7.032H10.207l13.664-17.213
				l-13.664-17.215h27.922v-7.033H205.662 M209.76,219.985h-4.098H38.127h-4.1v4.098v2.934h-23.82H1.718l5.276,6.649l11.642,14.666
				L6.995,262.998l-5.276,6.646h8.488h63.028h4.102v-4.101v-2.933h89.299v2.933v4.101h4.099h63.031h7.459l-3.998-6.298
				l-9.536-15.015l9.536-15.016l3.998-6.299h-7.459H209.76v-2.934V219.985L209.76,219.985z"/>
		</g>
		<polygon fill="#B0B4B7" points="73.235,265.544 73.235,231.118 10.207,231.118 23.871,248.331 10.207,265.544 		"/>
		<polygon fill="#B0B4B7" points="233.764,231.118 170.733,231.118 170.733,265.544 233.764,265.544 222.833,248.331 		"/>
		<polygon points="33.981,229.567 33.981,261.032 63.576,267.731 74.766,266.888 41,229.567 		"/>
		<polygon points="209.773,229.433 209.773,260.897 180.178,267.594 168.989,266.751 202.754,229.433 		"/>
		<polygon fill="#8B8B8B" points="205.662,224.083 205.662,258.512 170.733,265.544 170.597,231.118 		"/>
		<polygon fill="#8B8B8B" points="38.127,224.083 38.127,258.512 73.056,265.544 73.192,231.118 		"/>
		<rect x="38.127" y="224.083" fill="#D9DADB" width="167.535" height="34.428"/>
	</g>
	<path d="M194.72,236.383l1.484,3.043l3.392,0.524l-2.486,2.33l0.542,3.333l-3.021-1.606l-3.059,1.536l0.619-3.319l-2.432-2.384
		l3.404-0.446L194.72,236.383z"/>
	<path d="M49.894,235.903l1.483,3.046l3.391,0.521l-2.485,2.329l0.542,3.335l-3.021-1.605l-3.057,1.537l0.619-3.321l-2.432-2.384
		l3.404-0.449L49.894,235.903z"/>
	<g>
		<path d="M66.811,229.373l0.105,0.065l0.315-0.039l0.197,0.039l0.237,0.105l0.224,0.21l0.026,0.211l0.026,0.145v0.131l-0.105,0.237
			l-0.381,0.223l-0.131,0.026l-0.197,0.053l-0.289,0.132l-0.131,0.131l-0.118,0.145l-0.21,0.487l-0.053,0.104v0.105l-0.026,0.184
			l-0.026,0.46v0.303l-0.079,1.774l-0.066,0.775l-0.026,0.132l-0.052,0.197l0.118,0.21l-0.04,0.211l0.145,0.118v0.184l0.026,0.211
			l-0.052,0.196v0.29l-0.079,0.171l-0.092,0.315v0.157l0.052,0.145v0.105l-0.052,0.184l0.145,0.435v0.354l0.026,0.263v0.618
			l-0.079,0.079l-0.066,0.145v0.263l0.026,0.302l-0.026,0.211l-0.105,0.263l0.197,0.026l0.053,0.171v0.184v0.355l0.052,0.184
			l-0.026,0.132v0.539l0.026,0.249l-0.052,0.211l-0.079,0.236l0.053,0.197l0.079,0.289v0.224l0.053,0.157l0.026,0.132l0.026,0.25
			l0.079,0.21l0.053,0.185l0.171,0.092l0.591,0.157l0.263,0.237l0.026,0.104v0.276l-0.184,0.289l-0.381,0.329l-0.184,0.131
			l-0.079,0.197l-0.303,0.053l-0.131,0.105l-0.329,0.381l-0.079,0.184l0.158,0.355l0.145,0.132l0.052,0.263l-0.145,0.354
			l-0.21,0.211l-0.184,0.025l-0.25-0.052l-0.105-0.079h-0.131l-0.079-0.053l-0.25-0.132l-0.184-0.223l-0.21-0.132l-0.276-0.158
			l-0.105-0.131l-0.105-0.145l-0.079-0.026l-0.302-0.211l-0.381-0.157l-0.29-0.145l-0.223-0.079l-0.21-0.105l-0.289-0.157
			l-0.092-0.079l-0.053-0.145l-0.052-0.263l0.131-0.276l0.145-0.131l0.105-0.053l0.263-0.132l0.197-0.381v-0.565l0.079-0.157
			l-0.079-0.132l-0.026-0.171l-0.026-0.132l0.079-0.131l0.052-0.434v-0.185l-0.052-0.328l0.131-0.079v-0.185l0.026-0.197
			l0.026-0.289l0.053-0.157l-0.053-0.145l-0.105-0.053v-0.315l-0.131-0.407l0.026-0.329l0.079-0.236l0.053-0.434l-0.026-0.158
			l0.053-0.592l0.026-0.302v-0.132l-0.079-0.236l0.053-0.145l-0.053-0.105l-0.053-0.696l0.026-0.46V237.3v-0.197l0.026-0.211
			l0.105-0.249l0.158-0.158l-0.158-0.21l-0.131-0.382l-0.026-0.21l0.026-0.118l-0.026-0.105l0.053-0.132l-0.026-0.381l-0.026-0.447
			l-0.026-0.302l-0.053-1.722l-0.079-0.382l-0.039-0.263l-0.026-0.276l-0.368-0.42l-0.171-0.119l-0.158-0.236l-0.053-0.275
			l0.131-0.237l0.224-0.157l0.421-0.026l0.434,0.053l0.224,0.052l0.289,0.079h0.105l0.486,0.303l0.25,0.184l0.158,0.158l0.289,0.302
			l0.145,0.132l0.158-0.053l0.053-0.131l-0.105-0.171l0.263-0.671l0.145-0.157l0.342-0.486l0.381-0.158l0.236-0.118L66.811,229.373z
			"/>
		<path d="M73.108,234.171h0.158l0.355,0.079l0.407,0.184l0.487,0.303l0.341,0.302l0.197,0.079l0.158,0.21l0.184,0.026l0.079,0.158
			l0.197,0.145l0.486,0.158l0.131,0.104l0.184,0.053l0.105-0.026h0.171l0.263,0.053l0.25,0.053h0.21l0.158,0.118l0.105,0.184v0.211
			l-0.079,0.25l-0.21,0.236l-0.131,0.407l-0.026,0.132l-0.026,0.184v0.868l-0.066,0.434l0.04,0.184l-0.04,0.236l0.066,0.435
			l-0.026,0.617l0.026,0.171v0.671l-0.092,0.21l0.026,0.539v0.25l0.04,0.131l0.131,0.132l0.026,0.105v0.354l-0.026,0.315
			l0.053,0.171l0.053,0.132v0.328l0.026,0.185l0.026,0.513l0.079,0.131l0.158,0.053h0.118l0.131,0.026h0.132h0.184l0.276,0.224
			v0.368l-0.026,0.104l-0.105,0.197l-0.145,0.237l-0.21,0.275l-0.105-0.026l-0.079,0.132l-0.105,0.131l-0.119,0.132l-0.158,0.118
			l-0.026,0.105l-0.105,0.079l-0.184,0.131l-0.118,0.158l-0.026,0.224l0.026,0.104l0.079,0.105l0.145,0.303v-0.105l-0.079,0.499
			l-0.197,0.224l-0.158,0.053l-0.355,0.026l-0.368-0.105l-0.354-0.104l-0.184-0.093l-0.329-0.157v-0.105l-0.644-0.434l-0.132-0.184
			l-0.171-0.132l-0.263-0.25l-0.276-0.184l-0.132-0.185l-0.158-0.118l-0.236-0.079l-0.197,0.026l-0.315,0.197l-0.066,0.158
			l-0.052,0.565l0.302,0.315l0.079,0.302l-0.105,0.303l-0.434,0.157l-0.316,0.053l-0.276-0.026l-0.486-0.184l-0.368-0.145
			l-0.065-0.105l-0.184-0.21l-0.158-0.171l-0.276-0.185l-0.131-0.131l-0.158-0.053l-0.079-0.132l-0.355-0.224l-0.131-0.052h-0.434
			l-0.105-0.053h-0.158l-0.197-0.158l-0.053-0.092l-0.079-0.185l0.079-0.315l0.158-0.196l0.119-0.079l0.21-0.211l0.158-0.249
			l0.079-0.211v-0.104v-0.171l0.092-0.264v-0.236l-0.065-0.145l-0.026-0.342l0.053-0.145l0.065-0.132v-0.21l-0.065-0.132
			l-0.026-0.328l0.026-0.079l0.039-0.131l0.026-0.197l-0.026-0.828l-0.223-0.355v-0.236l0.131-0.171l0.197-0.158l0.105-0.052
			l0.381-0.053l0.42-0.053l0.119,0.026l0.368-0.053l0.105-0.053l0.145-0.026l0.184-0.026h0.329h0.131l0.105-0.026l0.434-0.197
			l0.131-0.104h0.329l0.263-0.185l0.276-0.197l0.21-0.263l0.079-0.407l0.079-0.21v-0.132v-0.118l0.171-0.342l-0.039-0.355
			l-0.053-0.236l-0.131-0.25l-0.434-0.46l-0.184-0.078l-0.158-0.079h-0.25l-0.368-0.211l-0.276-0.078h-0.21l-0.46,0.078l-0.46,0.368
			l-0.105,0.197v0.263v0.276l0.079,0.185l0.131,0.052l0.329-0.104h0.105l0.105,0.053l0.25,0.025l0.342,0.276l0.026,0.105
			l0.026,0.105l0.026,0.263l-0.026,0.434l-0.131,0.25l-0.237,0.236l-0.381,0.184l-0.289,0.053h-0.329l-0.236-0.053l-0.25-0.104
			l-0.263-0.079l-0.355-0.354l-0.158-0.185v-0.157l-0.026-0.105l-0.118-0.053l-0.026-0.303l-0.079-0.302l0.026-0.395l0.026-0.132
			v-0.196l0.118-0.316l0.026-0.223l0.447-0.645l0.066-0.157l0.21-0.171l0.513-0.29l0.184-0.104l0.46-0.132l0.263-0.171l0.46-0.157
			l0.25-0.276l0.026-0.079l0.052-0.184l0.053-0.237l0.329-0.249L73.108,234.171z M74.054,241.085l-0.302,0.197l-0.21,0.132
			l-0.236,0.052h-0.171l-0.237,0.105l-0.171,0.158l-0.131-0.026h-0.158l-0.158,0.145l0.026,0.184l0.026,0.185l0.052,0.249
			l0.079,0.776l0.026,0.131l-0.079,0.197l0.026,0.315l-0.053,0.789v0.289l-0.25,0.25l0.224,0.026l0.158,0.026h0.329l0.158,0.025
			l0.158-0.025l0.513,0.025l0.276,0.053l0.315,0.079l-0.079-0.184l-0.079-0.105l-0.131-2.077l-0.079-0.434l0.105-0.263
			L74.054,241.085z"/>
		<path d="M99.174,230.648l0.381,0.052l0.132,0.026l0.118,0.079l0.105,0.236l-0.026,0.435l-0.25,0.434l-0.315,0.236l0.079,0.224
			l-0.25,0.46l-0.053,0.21l-0.131,0.355l-0.053,0.104l-0.052,0.158l-0.026,0.132l-0.026,0.145l-0.053,0.591l-0.026,0.724
			l-0.118,0.21l0.118,0.171v0.592l-0.25,0.513l-0.184,0.157l-0.131,0.053l-0.171,0.026l-0.184-0.026l-0.131-0.026l-0.145-0.053
			l-0.079-0.131l-0.131-0.145l-0.079-0.264v-0.104l-0.026-0.145v-0.132l-0.053-0.131l-0.053-0.132l-0.052-0.171l-0.026-0.21v-0.158
			l-0.066-0.197l-0.079-0.105l-0.026-0.289l0.052-0.249l-0.263-0.105l-0.026-0.434l-0.223-0.264l-0.079-0.196l-0.158-0.211
			l-0.131-0.053l-0.197-0.026l-0.263-0.104l-0.079-0.145l-0.105-0.053l-0.224-0.105l-0.263-0.104H94.77h-0.276l-0.565-0.053
			l-0.131,0.157l-0.276-0.104l-0.158,0.025l-0.184,0.026l-0.224,0.079l-0.158,0.079l-0.381,0.145l-0.237,0.132l-0.184,0.104
			l-0.092,0.105l-0.184,0.197l-0.079,0.131l-0.21,0.105l-0.092,0.21l-0.053,0.119l-0.21,0.342l-0.105,0.249l-0.026,0.158
			l-0.052,0.131l-0.25,0.815l-0.105,0.026l0.079,0.263l-0.158,0.539v0.079l-0.105,0.197l0.158,0.184l-0.026,0.236l-0.026,0.145
			l0.026,0.29l-0.21,0.104l-0.145,0.303l0.171,0.157l0.105-0.026h0.21l0.184-0.025h1.38h0.21l0.329-0.026l0.184,0.026l0.539-0.026
			l0.053,0.131l0.145-0.104h0.565l0.289-0.185l-0.158,0.21l0.237-0.052l0.276-0.303l0.131-0.132l0.158-0.21l0.197-0.276l0.395-0.289
			l0.105-0.026l0.25-0.026l0.263,0.132l0.171,0.303v0.315l-0.026,0.078l-0.026,0.171l-0.065,0.158l-0.053,0.157l-0.026,0.185
			l-0.053,0.092l-0.105,0.105v0.184l0.053,0.408l0.105,0.854l-0.184,0.146l0.105,0.446l0.053,0.382l0.276,0.249l-0.026,0.395
			l-0.026,0.171l-0.145,0.525l-0.263,0.355l-0.407,0.157l-0.342-0.184l-0.145-0.132l-0.158-0.157l0.026-0.145l-0.052-0.185
			l-0.026-0.407l-0.184-0.157l-0.118-0.105l-0.158-0.105l-0.315-0.171l-0.513-0.104l-0.736-0.053l-0.184,0.026l-0.565-0.053
			l-0.079,0.026h-0.276l-0.315,0.053l-0.224-0.026h-0.131h-0.21h-0.105l-0.119,0.052l-0.236-0.025l-0.079-0.158l-0.052,0.236v0.224
			l-0.026,0.132l0.026,0.407l0.131,0.158l-0.026,0.723v0.328l0.131,0.132l-0.131,0.696h0.131l0.026,0.171l0.079,0.289l0.118,0.132
			l0.026,0.224l0.052,0.236l0.053,0.185l0.079,0.249l0.105,0.315l0.026,0.145l0.079,0.211l0.119,0.302l0.131,0.158l0.21,0.315
			l0.184,0.25l0.224,0.104l0.184,0.158l0.946,0.407l0.158-0.026l0.105,0.053h0.197l0.184-0.026l0.105-0.026l0.171-0.026l0.315-0.131
			l0.158-0.171h0.145l0.184-0.026l0.184-0.158l0.145-0.026l0.236-0.236l0.158-0.171l0.223-0.236l0.026-0.21l0.131-0.197l0.355-0.315
			l0.079-0.224l0.105-0.486l0.105-0.105l0.105-0.079l0.25-0.617l0.158-0.75l0.053-0.223l0.184-0.592l0.171-0.079l0.131-0.105
			l0.21-0.052l0.223-0.053l0.105,0.078l0.21,0.053l0.105,0.105l0.145,0.303l0.053,0.131l0.026,0.185l0.052,0.131l0.026,0.224v0.263
			l0.026,0.171l-0.026,0.185l0.026,0.21l-0.053,0.145l0.026,0.395l0.053,0.171l0.079,0.447l-0.052,0.118l-0.053,0.696l0.026,0.132
			l0.052,0.184l0.053,0.355l0.026,0.157l0.026,0.197l0.026,0.315l0.145,0.381l0.052,0.565l0.158-0.053l0.105,0.105l0.079,0.46
			l0.119,0.211l0.158,0.184h0.46l0.933,0.354l0.092,0.079l0.184,0.46v0.435l-0.158,0.381l-0.197,0.21l-0.21,0.053l-0.184-0.157
			l0.026,0.104v0.132l-0.145,0.105l-0.184,0.078l-0.131-0.053l-0.25,0.026l-0.315,0.026l-0.171-0.104l-0.539-0.264l-0.158-0.157
			l-0.131-0.065l-0.302-0.474l-0.079-0.092l-0.079-0.132l-0.158-0.263l-0.276-0.71l-0.053-0.342l-0.079-0.105v-0.092l-0.105-0.21
			l-0.053-0.263l-0.079-0.486l-0.079-0.355l-0.434-0.026h-0.105l-0.092,0.105l-0.473,0.434l-0.539,0.329l-0.25,0.104l-0.132,0.079
			l-0.381,0.105l-0.105,0.053l-0.158,0.104l-0.158-0.026l-0.223,0.026l-0.158,0.093l-0.697,0.052l-0.224-0.026h-0.184l-0.158,0.026
			h-0.171l-0.67-0.078l-0.434-0.04l-0.447-0.104l-0.145-0.053l-0.236-0.053l-0.105-0.079l-0.171,0.053l-0.565-0.21l-0.237-0.119
			l-0.21-0.078l-0.119-0.079l-0.158-0.079l-0.158-0.105l-0.92-0.644l-0.263-0.105l-0.052-0.486l-0.25,0.132l-0.263-0.329
			l-0.224-0.21l-0.053-0.158l0.053-0.197l-0.105-0.289l-0.289-0.131l0.052-0.197l-0.026-0.158H86.87l-0.158-0.104l-0.342-0.71
			l-0.171-0.474l-0.131-0.171l-0.053-0.157l-0.026-0.303l0.026-0.184l-0.053-0.132l-0.026-0.157l-0.026-0.171l-0.105-0.237
			l-0.039-0.21v-0.145l-0.026-0.158l-0.026-0.131l0.026-0.105l0.026-0.145l-0.053-0.105l-0.237-0.513l-0.026-0.184l-0.053-0.25
			l-0.026-0.105l-0.053-0.289l-0.171-0.145l-0.079-0.184l-0.158-0.263l0.026-0.197l0.21-0.289l0.092-0.105l0.105-0.197l0.21-0.46
			l0.184-0.618l0.118-0.21l0.21-0.355v-0.21l0.026-0.236l0.105-0.303l0.053-0.131l0.118-0.224v-0.158l0.368-0.775l-0.053-0.145
			l0.25-0.158l0.105-0.052l0.105-0.315v-0.093l0.21-0.342l0.118-0.302l0.315-0.105l0.105-0.105l0.105-0.275l0.145-0.185l0.131-0.157
			l0.158-0.197l0.276-0.185l0.105-0.052l0.237-0.185l0.223-0.197l0.158-0.026l0.381-0.236l0.263-0.079l0.131-0.053l0.223-0.171
			l0.316-0.052l0.118-0.105l0.854-0.185l0.775-0.171l0.171-0.025h0.105l0.237-0.026l0.591-0.026l0.513,0.026l0.302,0.026l0.21,0.025
			h0.171l0.131,0.026l0.184,0.026l0.276,0.118l0.236,0.079l0.105-0.026h0.079l0.118,0.026l0.053,0.132l0.46,0.131l0.158,0.053
			l0.105,0.093l0.158,0.052l0.434,0.289h0.079l0.276-0.025l0.368-0.264l0.171-0.223l0.131-0.237l0.263-0.302l0.171-0.079
			l0.132-0.132L99.174,230.648z"/>
		<path d="M106.154,234.039l0.158,0.026l0.46,0.158l0.105,0.079l0.118,0.078l0.342,0.145l0.131,0.079l0.224,0.105l0.131,0.079
			l0.434,0.21l0.802,0.46l0.302,0.026l0.368-0.184l0.329-0.132l0.263,0.026h0.118l0.158,0.105l0.158,0.302l-0.026,0.289
			l-0.026,0.132l-0.29,0.407l-0.381,0.263l-0.131,0.066l-0.197,0.131l-0.184,0.105l-0.21,0.157l-0.224,0.079l-0.026,0.197
			l-0.105,0.105l-0.026,0.21l0.026,0.145l0.026,0.237l-0.079,0.275l-0.105,0.132l-0.171,0.079l-0.289,0.026l-0.184-0.026
			l-0.513-0.158l-0.118-0.145l-0.105-0.026l-0.158-0.132l-0.618-0.434l-0.381-0.289l-0.236-0.224l-0.25-0.184l-0.105-0.132
			l-0.105-0.026l-0.355-0.328l0.145,0.354l0.053,0.263v0.119v0.368l-0.026,0.196l-0.026,0.185v0.315v0.171l0.026,0.289l0.105,0.25
			l0.315,0.21l0.145,0.026l0.132,0.026l0.079,0.053h0.21l0.486,0.171l0.197,0.026l0.618,0.131h0.21l0.355,0.185l0.394,0.104
			l0.197,0.146l0.21,0.052l0.131,0.026l0.197,0.053l0.236,0.132l0.303,0.381l0.079,0.395l-0.053,0.171l0.079,0.184l-0.053,0.276
			l-0.026,0.342l0.026,0.105l0.026,0.486l-0.079,0.249v0.237v0.104l-0.079,0.513l0.026,0.132l-0.026,0.118v0.105v0.434l0.026,0.132
			v0.289l0.053,0.171l0.21,0.157l0.053,0.158v0.104l-0.131,0.276l-0.237,0.236h-0.145l-0.42,0.053l-0.329,0.145l-0.21,0.026h-0.276
			l-0.354,0.132l-0.263,0.157l-0.302-0.078l-0.105,0.21l-0.21,0.118l-0.565,0.185l-0.131,0.104l-0.276,0.407l0.105,0.382v0.105
			l-0.079,0.315l-0.237,0.249l-0.329,0.105l-0.21-0.026l-0.171,0.026l-0.644-0.236l-0.21-0.171l-0.276-0.132l-0.079-0.079
			l-0.21-0.157l-0.079-0.053l-0.276-0.25l-0.105-0.104l-0.158-0.132l-0.158-0.118l-0.408-0.236l-0.302-0.105h-0.46l-0.395,0.289
			l-0.105,0.303l-0.066,0.21l0.04,0.303l0.052,0.104l0.105,0.105l0.21,0.105l0.131-0.026l0.25-0.079l0.105-0.079h0.25l0.237,0.079
			l0.158,0.157l0.105,0.119l0.066,0.104l0.026,0.342l-0.026,0.092l-0.066,0.185l-0.158,0.263l-0.237,0.25l-0.486,0.105h-0.197h-0.29
			l-0.158-0.079l-0.118-0.026l-0.105,0.026l-0.132-0.105l-0.21-0.145l-0.408-0.368l-0.079-0.105l-0.079-0.145l-0.171-0.42v-0.145
			l-0.079-0.447l-0.026-0.303v-0.184l0.105-0.355l0.092-0.289l0.079-0.171l0.053-0.104l0.21-0.435l0.105-0.078l0.171-0.079
			l0.342-0.263l0.381-0.25l0.21-0.158l0.105-0.078l0.145-0.224l0.105-0.21l0.026-0.158l-0.026-0.224l0.079-0.263l0.354-0.354
			l0.263-0.053l0.565,0.053l0.197,0.104l0.342,0.171l0.355,0.211l0.289,0.21l0.105,0.118l0.276,0.185l0.237-0.079l0.223,0.236
			l0.644,0.381l0.355,0.132l0.315,0.026l0.184-0.026l0.092-0.105l0.079-0.184l-0.407-0.486l-0.184-0.407l-0.026-0.132l-0.026-0.25
			l0.053-0.67l-0.053-0.408l-0.145-0.078l-0.342-0.132l-0.197-0.053l-0.184-0.104l-0.21-0.053l-0.224-0.053l-0.079-0.118
			l-0.591-0.105h-0.184l-0.302-0.132l-0.486-0.184l-0.158-0.092l-0.21-0.053l-0.513-0.289l-0.158-0.197l-0.302-0.368l-0.079-0.224
			l-0.052-0.565l-0.026-0.289v-0.354v-0.342l0.079-0.276l0.026-0.131l0.026-0.158l-0.026-0.224l0.053-0.21l-0.079-0.132l0.026-0.197
			l0.105-0.21l-0.105-0.184l-0.079-0.382l-0.329-0.25l-0.053-0.131l0.026-0.289l0.105-0.171l0.171-0.132l0.237-0.079h0.105
			l0.131,0.026l0.276-0.053l0.105-0.025l0.408-0.105l0.315,0.079l0.171-0.053l0.158-0.079l0.329-0.092h0.21l0.329-0.053l0.132-0.053
			l0.105-0.026l0.21-0.079l0.079-0.104l0.066-0.185l-0.066-0.275l0.04-0.132l0.053-0.158l0.289-0.302l0.224-0.105L106.154,234.039z"
			/>
		<path d="M117.052,234.25l0.197,0.104l0.263,0.303l0.026,0.21l-0.079,0.355l0.053,0.236l0.171,0.197l0.105,0.21l0.105,0.079
			l0.131,0.158l0.408,0.145l0.539,0.21h0.263l0.223,0.079l0.618,0.105h0.88l0.119,0.025l0.368,0.026l0.224,0.119l0.105,0.184
			l-0.026,0.184l0.026,0.145l-0.105,0.158l-0.118,0.105l-0.079,0.078l-0.158,0.329l-0.105,0.513l-0.053,0.236v0.158v0.841
			l-0.079,0.158l-0.026,0.131l0.079,0.171l-0.079,0.315l-0.04,0.224v0.158l0.066,0.381v0.105l0.052,0.078l-0.026,0.237l-0.026,0.513
			l0.052,0.302l-0.026,0.697v0.513l0.053,0.946l0.026,0.21v0.25l0.158,0.618l0.105,0.131l0.105,0.132l0.171,0.026l0.105,0.157
			l0.105,0.197v0.132l-0.052,0.21l-0.131,0.145l-0.132,0.158h-0.171l-0.315,0.078l-0.197,0.079l-0.158,0.079l-0.105,0.118
			l-0.644,0.342l-0.197,0.132l-0.105,0.145l-0.21,0.21l-0.302,0.185l-0.184,0.145l-0.302,0.131l-0.315,0.079l-0.197,0.026
			l-0.158-0.026l-0.263-0.053l-0.171-0.21l-0.079-0.224l0.026-0.407l0.118-0.158l0.184-0.184l0.026-0.276l-0.053-0.184l-0.105-0.132
			l-0.053-0.079l-0.565-0.25l-0.276,0.026l-0.21,0.053l-0.197,0.145l-0.184,0.315l-0.132,0.026l-0.052,0.25l-0.053,0.21v0.185v0.171
			l-0.066,0.315v0.302v0.211l-0.026,0.434l0.052,0.618l0.066,0.104v0.25l0.105,0.513l0.105,0.236l0.052,0.237l0.158,0.223
			l0.329,0.264l0.21,0.249l0.079,0.237l-0.079,0.354l-0.342,0.185l-0.145,0.104l-0.395-0.026h-0.171l-0.263-0.104l-0.184-0.026
			l-0.302-0.211l-0.21-0.145l-0.105-0.104l-0.145-0.053l-0.421-0.539l-0.25-0.105l-0.079,0.026l-0.079,0.263l-0.053,0.145
			l-0.276,0.671l-0.315,0.434l-0.145,0.105l-0.079,0.104l-0.131,0.079l-0.105,0.079l-0.407,0.105l-0.131,0.039h-0.303l-0.158-0.065
			l-0.158-0.026l-0.105-0.053l-0.302-0.342l-0.026-0.407l0.131-0.382l0.224-0.289l0.131-0.053l0.079-0.078l0.184-0.145l0.303-0.079
			l0.184-0.185l0.105-0.249l0.171-0.592l0.053-0.342l0.026-0.684l0.079-0.474l0.053-0.709l-0.053-0.264l-0.026-0.275l0.026-0.105
			l-0.053-0.263l0.079-0.276l0.026-0.236l0.052-0.25v-0.105l-0.052-0.184l-0.026-0.723v-0.145l-0.079-0.539l-0.026-0.185
			l0.026-0.263l0.026-0.145l0.053-0.105l0.026-0.513l0.026-0.157l-0.079-0.671l0.026-0.171l0.158-0.026l-0.105-0.052l-0.131-0.315
			v-0.303l0.026-0.132l0.026-0.131l-0.026-0.539l0.026-0.276l-0.026-0.617l0.053-0.158l-0.026-0.184v-0.145l0.053-0.237
			l-0.026-0.565l-0.026-0.538l0.026-0.25l-0.053-0.526l-0.131-0.538l-0.079-0.119l-0.065-0.104l-0.105-0.079l-0.342-0.236
			l-0.118-0.382l0.066-0.184l0.158-0.197l0.079-0.053l0.46-0.079l0.407-0.052l0.473-0.132l0.513-0.25l0.355-0.21l0.105-0.026
			l0.303-0.224l0.131-0.105l0.407-0.184l0.184-0.132l0.46-0.197l0.105-0.052h0.131l0.25-0.053H117.052z M117.893,237.103h-0.184
			l-0.171,0.052l-0.184,0.026l-0.105,0.119l-0.171,0.052l-0.132,0.026l-0.105,0.053l-0.236,0.053h-0.171l-0.132,0.079l-0.131,0.026
			l-0.276,0.078l0.079,0.355v0.105l0.066,1.433v0.315l0.026,0.354l0.079,0.132l-0.026,0.21l-0.105,0.171l0.026,0.211l0.053,0.078
			l0.052,0.171l-0.079,0.211v0.236l0.052,0.145v0.236l0.026,0.158l0.026,0.145l0.079,1.288v0.263l-0.053,0.46l-0.079,0.355
			l-0.026,0.157l-0.053,0.105l-0.066,0.132l0.145,0.275h0.368l0.171-0.026l0.131-0.053l0.355-0.078l0.21-0.026l0.158-0.026h0.131
			h0.145l0.158-0.065l0.303,0.065l0.105,0.026l0.21,0.157h0.158v-0.104l-0.026-0.197l-0.289-0.421l-0.132-0.145l-0.223-0.474
			l-0.053-0.197l0.026-0.104l-0.079-0.158l-0.052-0.224l0.052-0.67l0.079-0.026l0.131-0.053l-0.21-0.276l-0.052-0.104l0.052-0.645
			l-0.052-0.104l-0.026-1.052l0.079-0.486v-0.132v-0.236l0.026-0.197l-0.026-0.132l0.053-1.262l0.079-0.302l0.052-0.185
			l-0.026-0.105L117.893,237.103z"/>
		<path d="M128.842,234.145h0.381l0.236,0.158l0.053,0.171l0.355,0.564l0.263,0.447l0.118,0.303l0.185,0.289l0.104,0.249
			l0.053,0.158l-0.026,0.105l0.026,0.224l0.053,0.131l0.053,0.21l0.197,0.25l0.315,0.263l0.104,0.197l0.066,0.264l0.078,0.275
			l0.132,0.211l0.132,0.407l0.354,0.289l0.079,0.276l-0.053,0.236l-0.224,0.236l-0.104,0.197l-0.645,0.381l-0.434,0.264
			l-0.315,0.131l-0.132,0.105l-0.171,0.171l-0.131,0.053l-0.329,0.079l-0.21,0.157l-0.158,0.053l-0.46,0.276h-0.105l-0.197,0.157
			l-0.104,0.026l-0.368,0.354l-0.145,0.237l-0.026,0.104v0.119l-0.026,0.157l-0.21,0.21l-0.382-0.025l0.026,0.302l-0.026,0.211
			l-0.104,0.157l-0.079,0.25l-0.132,0.157l-0.065,0.158l0.039,0.25l0.105,0.184l0.132,0.026l0.131,0.053h0.158h0.328l0.25,0.118
			l0.368,0.026l0.302,0.026l0.158,0.026h0.105l0.354,0.053l0.368,0.025l0.354-0.052l0.158-0.105l0.053-0.118l0.065-0.132
			l-0.026-0.104v-0.105l-0.092-0.145l-0.105-0.185l-0.104-0.342l0.078-0.328l0.079-0.132l0.105-0.171l0.275-0.131l0.158-0.026h0.171
			l0.263,0.104l0.158,0.053l0.197,0.224l0.104,0.236l0.053,0.697l-0.053,0.118l-0.053,0.315l-0.052,0.328l-0.079,0.211l-0.145,0.105
			l-0.105,0.17l-0.026,0.158l-0.236,0.263l-0.197,0.197l-1.157,0.934l-0.104,0.171l-0.053,0.342l0.079,0.145l0.026,0.236
			l-0.053,0.21l-0.158,0.224l-0.145,0.026l-0.421,0.079l-0.197-0.053l-0.341-0.053l-0.171-0.053l-0.237-0.104l-0.157-0.092
			l-0.171-0.026l-0.158-0.026l-0.21-0.158l-0.25-0.053l-0.447-0.275l-0.145-0.053l-0.236-0.132l-0.276-0.157l-0.236-0.105
			l-0.381-0.25l-0.368-0.131l-0.329-0.158l-0.157-0.026h-0.407l-0.158-0.092l-0.197-0.184l-0.079-0.185l0.026-0.079l0.053-0.197
			l0.118-0.184l0.315-0.303l0.158-0.236l0.026-0.236l0.065-0.197l0.053-0.368v-0.171l-0.026-0.289v-0.171l-0.092-0.079l-0.026-0.236
			l0.145-0.079l-0.079-0.171l0.053-0.263l-0.026-0.158l-0.118-0.302l0.118-0.132l0.026-0.104v-0.105l-0.026-0.434l0.026-0.105
			v-0.867l-0.026-0.185v-0.25l-0.026-0.367l0.026-0.25l-0.026-0.289l0.026-0.197l0.026-0.132l-0.053-0.105l-0.065-0.486
			l-0.026-0.302l0.026-0.211l-0.105-0.315l-0.079-0.118l-0.289-0.21l-0.092-0.105l-0.026-0.131l0.026-0.25l0.171-0.236l0.368-0.145
			l0.565-0.079l0.302-0.079l0.105-0.053l0.158-0.026l1.13-0.328l0.171-0.079h0.132l0.078-0.079l0.105-0.131l0.197,0.052l0.263-0.131
			l0.185-0.145l0.407-0.237l0.105-0.052l0.513-0.486l0.078-0.185l0.026-0.197l0.171-0.184L128.842,234.145z M127.068,236.787
			l-0.079,0.21v0.21l0.053,0.145l0.053,0.211l0.052,0.354l0.026,0.132l0.053,0.104l0.026,0.565l0.026,0.105l0.053,0.171l0.053,0.263
			l-0.079,0.185l0.079,0.249v0.158l-0.053,0.157l-0.079,0.276l0.026,0.105l0.026,0.104l-0.026,0.224l0.026,0.132v0.184l0.026,0.132
			l-0.053,0.25l0.079,0.131l0.354-0.46l0.382-0.131l0.052-0.132l0.105-0.053l0.105-0.079l0.157-0.053l0.224-0.381l0.053-0.105
			l-0.053-0.145l-0.131-0.236l-0.053-0.132l-0.04-0.17l-0.184-0.395l-0.381-0.973l-0.105-0.079l-0.263-0.513l-0.053-0.185
			l-0.329-0.564L127.068,236.787z"/>
		<path d="M134.442,234.328h0.381l0.158,0.026l0.092,0.026l0.21,0.026l0.132,0.026l0.302,0.065l0.237,0.079l0.249,0.079l0.237,0.158
			l0.46,0.381l0.079,0.157l0.354,0.539l0.105,0.185l0.131,0.118h0.211l0.249-0.065l0.264-0.264l0.249-0.263l0.079-0.354
			l-0.026-0.132v-0.145l0.053-0.157l0.185-0.29l0.196-0.118h0.185l0.105-0.026l0.302,0.053l0.105,0.04l0.105,0.104l0.236,0.185
			l0.197,0.078l0.236,0.25l0.132,0.053l0.434,0.184l0.104,0.026l0.197,0.053h0.132l0.263,0.224l0.145,0.236l0.053,0.185v0.118
			l-0.026,0.105l-0.224,0.342l-0.157,0.223l-0.158,0.132l-0.104,0.21l-0.408,0.303l-0.078,0.158l-0.303,0.486v0.104l-0.026,0.171
			l0.026,0.132l-0.026,0.21l-0.026,0.303l-0.263,0.342l-0.118,0.079l-0.158,0.065l-0.184-0.04l-0.25-0.025l-0.21-0.211l-0.185-0.354
			l-0.078-0.421v0.105l-0.066-0.303l-0.157-0.342l-0.053-0.105l-0.158-0.171l-0.275-0.157h-0.185l-0.184,0.026l-0.171,0.131
			l-0.053,0.171l-0.026,0.132l-0.026,0.184l0.026,0.671v0.079l0.026,0.197l0.026,0.157l0.026,0.381l0.026,0.237l0.171,0.25
			l-0.053,0.184l-0.092,0.184l-0.026,0.197l-0.053,0.132v0.184v0.132l0.026,0.145l0.118,0.132v0.854l-0.039,0.118l-0.053,0.395
			l0.145,0.46l-0.053,0.184l-0.065,0.145l-0.105,0.289l-0.079,0.224l-0.131,0.026l-0.105,0.105l-0.026,0.184l-0.092,0.132
			l-0.079,0.275l0.197,0.079h0.131l0.185,0.053l0.132,0.026l0.118,0.026l0.342,0.026l0.171,0.026l0.21,0.053l0.381,0.039
			l0.289,0.079l0.329,0.104l0.184,0.46l-0.052,0.29l-0.237,0.328l-0.407,0.236l-0.763,0.276l-0.184,0.079l-0.158,0.053l-0.131,0.131
			l-0.053,0.197v0.132l0.105,0.263l0.026,0.276v0.21l-0.026,0.158l-0.224,0.171l-0.395,0.184l-0.25-0.026l-0.486-0.21l-0.131-0.093
			l-0.158-0.131l-0.171-0.079l-0.157-0.21l-0.132-0.053l-0.185-0.145l-0.223-0.158l-0.132-0.053h-0.303l-0.289-0.328l-0.275-0.079
			l-0.211-0.104h-0.184l-0.25-0.132l-0.315-0.171l-0.145-0.158l-0.026-0.21l0.065-0.157l0.185-0.276l0.289-0.105l0.145-0.105
			l0.132-0.17l0.131-0.211v-0.381l0.026-0.132l0.026-0.104l-0.053-0.513l0.079-0.158l0.053-0.145l0.026-0.645l-0.053-0.289v-0.224
			l-0.105-0.21l-0.026-0.132l0.053-0.381l0.105-0.263l-0.053-0.381l0.079-0.211l0.065-0.197l-0.065-0.236l-0.105-0.434l0.224-0.132
			l-0.145-0.25l-0.026-0.104l0.026-0.079l-0.026-0.303l-0.026-0.131l0.026-0.46l-0.026-0.185v-0.263l-0.053-0.197l-0.131-0.131
			l-0.105-0.079l-0.145-0.079l-0.105-0.053l-0.46-0.053l-0.105-0.065l-0.104-0.105l-0.079-0.236v-0.105l0.026-0.171l0.104-0.21
			l0.079-0.132l0.197-0.223l0.158-0.158l0.078-0.105l0.105-0.104l0.145-0.145l0.105-0.237l0.131-0.354l-0.104-0.289l-0.026-0.105
			l-0.079-0.171v-0.21l0.21-0.382L134.442,234.328z"/>
		<path d="M146.824,234.171h0.158l0.354,0.079l0.407,0.184l0.486,0.303l0.342,0.302l0.197,0.079l0.158,0.21l0.184,0.026l0.079,0.158
			l0.197,0.145l0.486,0.158l0.131,0.104l0.185,0.053l0.105-0.026h0.171l0.263,0.053l0.249,0.053h0.211l0.157,0.118l0.105,0.184
			v0.211l-0.079,0.25l-0.21,0.236l-0.132,0.407l-0.026,0.132l-0.026,0.184v0.868l-0.065,0.434l0.04,0.184l-0.04,0.236l0.065,0.435
			l-0.025,0.617l0.025,0.171v0.671l-0.092,0.21l0.026,0.539v0.25l0.04,0.131l0.131,0.132l0.026,0.105v0.354l-0.026,0.315
			l0.053,0.171l0.053,0.132v0.328l0.026,0.185l0.026,0.513l0.078,0.131l0.158,0.053h0.118l0.132,0.026h0.131h0.185l0.275,0.224
			v0.368l-0.025,0.104l-0.105,0.197l-0.145,0.237l-0.211,0.275l-0.104-0.026l-0.079,0.132l-0.105,0.131l-0.118,0.132l-0.157,0.118
			l-0.026,0.105l-0.105,0.079l-0.184,0.131l-0.119,0.158l-0.025,0.224l0.025,0.104l0.079,0.105l0.145,0.303v-0.105l-0.079,0.499
			l-0.196,0.224l-0.158,0.053l-0.354,0.026l-0.368-0.105l-0.355-0.104l-0.184-0.093l-0.329-0.157v-0.105l-0.644-0.434l-0.132-0.184
			l-0.171-0.132l-0.263-0.25l-0.276-0.184l-0.131-0.185l-0.158-0.118l-0.236-0.079l-0.197,0.026l-0.315,0.197l-0.065,0.158
			l-0.053,0.565l0.302,0.315l0.079,0.302l-0.105,0.303l-0.434,0.157l-0.315,0.053l-0.275-0.026l-0.486-0.184l-0.368-0.145
			l-0.066-0.105l-0.184-0.21l-0.158-0.171l-0.275-0.185l-0.132-0.131l-0.157-0.053l-0.079-0.132l-0.355-0.224l-0.131-0.052h-0.434
			l-0.105-0.053h-0.158l-0.197-0.158l-0.052-0.092l-0.079-0.185l0.079-0.315l0.157-0.196l0.118-0.079l0.211-0.211l0.157-0.249
			l0.079-0.211v-0.104v-0.171l0.092-0.264v-0.236l-0.065-0.145l-0.026-0.342l0.053-0.145l0.065-0.132v-0.21l-0.065-0.132
			l-0.026-0.328l0.026-0.079l0.039-0.131l0.026-0.197l-0.026-0.828l-0.224-0.355v-0.236l0.132-0.171l0.197-0.158l0.105-0.052
			l0.381-0.053l0.421-0.053l0.118,0.026l0.368-0.053l0.104-0.053l0.145-0.026l0.185-0.026h0.328h0.132l0.105-0.026l0.434-0.197
			l0.131-0.104h0.329l0.263-0.185l0.276-0.197l0.21-0.263l0.079-0.407l0.079-0.21v-0.132v-0.118l0.171-0.342l-0.04-0.355
			l-0.053-0.236l-0.131-0.25l-0.434-0.46l-0.185-0.078l-0.157-0.079h-0.25l-0.368-0.211l-0.276-0.078h-0.21l-0.46,0.078l-0.46,0.368
			l-0.105,0.197v0.263v0.276l0.079,0.185l0.132,0.052l0.328-0.104h0.105l0.104,0.053l0.25,0.025l0.342,0.276l0.026,0.105
			l0.026,0.105l0.026,0.263l-0.026,0.434l-0.132,0.25l-0.236,0.236l-0.381,0.184l-0.289,0.053h-0.329l-0.236-0.053l-0.25-0.104
			l-0.263-0.079l-0.355-0.354l-0.157-0.185v-0.157l-0.026-0.105l-0.118-0.053l-0.026-0.303l-0.079-0.302l0.026-0.395l0.026-0.132
			v-0.196l0.118-0.316l0.026-0.223l0.447-0.645l0.065-0.157l0.21-0.171l0.513-0.29l0.185-0.104l0.46-0.132l0.263-0.171l0.46-0.157
			l0.25-0.276l0.026-0.079l0.053-0.184l0.053-0.237l0.328-0.249L146.824,234.171z M147.771,241.085l-0.302,0.197l-0.211,0.132
			l-0.236,0.052h-0.171l-0.236,0.105l-0.171,0.158l-0.132-0.026h-0.157l-0.158,0.145l0.026,0.184l0.026,0.185l0.053,0.249
			l0.078,0.776l0.026,0.131l-0.078,0.197l0.026,0.315l-0.053,0.789v0.289l-0.25,0.25l0.224,0.026l0.157,0.026h0.329l0.157,0.025
			l0.158-0.025l0.513,0.025l0.275,0.053l0.316,0.079l-0.079-0.184l-0.079-0.105l-0.132-2.077l-0.078-0.434l0.104-0.263
			L147.771,241.085z"/>
		<path d="M158.918,234.328h0.354l0.421,0.171l0.092,0.132l0.185,0.053l0.21,0.079l0.197,0.157l0.157,0.026l0.132,0.053l0.25,0.197
			l0.21,0.184l0.407,0.25l0.435,0.132l0.775,0.078l0.157,0.053l0.026,0.105l0.303,0.105l0.026,0.197l-0.026,0.315l-0.25,0.354
			l-0.158,0.434l-0.078,0.342l-0.026,0.25v0.21v0.329l-0.026,0.157l-0.053,0.435l0.026,0.157l0.026,0.434l-0.026,0.185l-0.197,0.513
			v0.104l-0.026,0.171l0.053,0.132v0.105v0.104l-0.079,0.618l0.079,0.079v0.407l0.065,0.645l0.053,0.249v0.211v0.328v0.105
			l-0.026,0.263v0.25v0.21l0.079,0.25l0.026,0.105l0.157,0.157l0.053,0.105l0.132,0.145l0.814,0.263l0.105,0.276l-0.026,0.289
			l-0.263,0.21l-0.276,0.171l-0.21,0.132l-0.171,0.131l-0.263,0.079l-0.329,0.382l-0.184,0.381l0.026,0.157l0.078,0.211v0.145
			l0.053,0.157l0.053,0.264l-0.053,0.171l-0.157,0.184l-0.263,0.105h-0.303l-0.158-0.079l-0.223-0.132l-0.185-0.078l-0.131-0.053
			l-0.171-0.197l-0.132-0.079l-0.132-0.184l-0.302-0.079l-0.026-0.25l-0.21-0.263l-0.132-0.105l-0.105-0.092l-0.171-0.105
			l-0.236-0.078l-0.158-0.079l-0.249-0.185l-0.079-0.275l0.026-0.211l0.328-0.302l0.132-0.079l0.157-0.263v-0.118l0.026-0.342
			l0.026-0.224l-0.053-0.105v-0.105l-0.025-0.21v-0.276l-0.079-0.591l0.026-0.329l-0.053-0.105l0.026-0.486l-0.026-0.078
			l-0.053-0.158v-0.131l0.053-0.197l0.026-0.105l0.026-0.158l0.026-0.157l0.131-0.092l-0.157-0.026v-0.395l0.026-0.171l0.026-0.368
			l0.025-0.132l-0.025-0.275l0.025-0.132l-0.052-0.197l0.052-0.236l0.026-0.328l-0.026-0.158l0.053-0.21l0.171-0.789l0.053-0.236
			l0.158-0.105l-0.276-0.079l-0.21-0.118l-0.289-0.157l-0.171-0.132l-0.185-0.132h-0.105l-0.223-0.118l-0.342-0.236l-0.276-0.079
			l-0.407-0.053l-0.158,0.079l-0.079,0.185l0.026,0.145l0.132,0.236l0.118,0.157l0.053,0.197l0.026,0.158l0.053,0.342l0.026,0.684
			v0.079l0.025,0.104l-0.025,0.158l0.052,0.197v0.368l-0.026,0.249l-0.104,0.105l-0.171,0.079l0.171,0.104l0.026,0.145l0.104,0.565
			l0.026,0.263l0.026,0.185l0.026,0.197l-0.053,0.184l0.026,0.158l0.026,0.145v0.157l-0.026,0.105l-0.026,0.329v0.184l0.026,0.434
			l-0.131,0.592l-0.079,0.315l-0.145,0.171l-0.053,0.184v0.211l0.145,0.079l0.184,0.039l0.316,0.079l0.196,0.026l0.158,0.052
			l0.25,0.185v0.354l-0.093,0.237l-0.104,0.131l-0.289,0.329l-0.46,0.328l-0.079,0.105l-0.171,0.053l-0.132,0.381l-0.157,0.185
			l0.131,0.236l0.026,0.079l0.105,0.197l-0.026,0.341l-0.158,0.171l-0.513,0.158l-0.184-0.053l-0.276-0.105l-0.157-0.078
			l-0.185-0.25l-0.249-0.158l-0.342-0.223l-0.171-0.264l-0.105-0.078l-0.184-0.079l-0.25-0.197l-0.211-0.105h-0.131l-0.25-0.078
			l-0.105-0.053l-0.131-0.079l-0.132-0.132l-0.053-0.145l0.026-0.315l0.079-0.171l0.236-0.21l0.185-0.105l0.224-0.565l0.026-0.381
			l-0.026-0.184l0.026-0.329l0.078-0.132v-0.157l-0.026-0.132l0.053-0.223l-0.026-0.185v-0.171l0.026-0.105l-0.079-0.236v-0.328
			l0.132-0.342v-0.382c0-0.087-0.009-0.148-0.026-0.184l0.026-0.118v-0.211l-0.079-0.131l0.053-0.276l0.026-0.696v-0.435
			l-0.026-0.131v-0.236l-0.026-0.171l-0.026-0.105l-0.053-0.158v-0.104l0.026-0.105l0.053-0.118l-0.026-0.185l0.026-0.131
			l-0.131-0.513l-0.724-0.026l-0.118-0.026l-0.342-0.25l-0.079-0.315l0.158-0.407l0.157-0.184l0.105-0.026l0.171-0.197l0.158-0.185
			l0.184-0.21l0.25-0.25l-0.026-0.105l0.053-0.078l0.053-0.105v-0.118l-0.026-0.105l-0.026-0.105l-0.053-0.289l0.026-0.249
			l0.315-0.355l0.171-0.053l0.079,0.053l0.486,0.04l0.104,0.025l0.211,0.053l0.197,0.026l0.473,0.185h0.145l0.315,0.21l0.158,0.118
			l0.197,0.211l0.157,0.184l0.132,0.171l0.197,0.184l0.131,0.026l0.355-0.052l0.395-0.355l0.145-0.263l0.026-0.105l-0.119-0.275
			l0.093-0.316L158.918,234.328z"/>
		<path d="M167.041,234.065l0.131,0.026l0.657,0.105l0.105,0.053l0.132-0.026l0.078,0.053l0.158,0.197l0.197-0.146l0.21,0.053
			l0.868,0.145l0.564,0.185l0.185,0.026h0.184l0.171,0.053h0.315h0.329l0.434-0.132l0.236-0.25l0.158-0.184l0.224-0.132l0.368-0.026
			l0.302,0.263l0.053,0.171l0.026,0.565l-0.026,0.105l-0.053,0.184l-0.026,0.158v0.224l0.053,0.104l-0.105,0.408l-0.052,0.131
			l-0.119,0.079l-0.236,0.486l-0.053,0.185l-0.131,0.407l-0.329,0.486l-0.105,0.131l-0.21,0.435l-0.145,0.263l-0.21,0.276
			l-0.25,0.21l-0.132,0.224l-0.157,0.236l-0.158,0.184v0.119l0.105,0.289l0.289-0.053l0.355-0.079l0.236-0.053l0.224-0.053
			l0.368,0.053l0.223,0.132l0.211,0.381v0.342l-0.079,0.197l-0.158,0.236l-0.302,0.158l-0.368,0.079l-0.118,0.065l-0.158,0.026
			h-0.184l-0.46-0.026l-0.158,0.026l-0.197,0.026l-0.184-0.053h-0.236l-0.197-0.026h-0.158h-0.21l-0.539,0.645l-0.053,0.104
			l-0.171,0.211l-0.289,0.434l-0.079,0.157l-0.145,0.25l-0.157,0.185l-0.026,0.104l-0.211,0.408l-0.224,0.302l-0.052,0.236
			l-0.079,0.237l0.184-0.158l0.145-0.053l0.158-0.026h0.46l0.184,0.026l0.079,0.026h0.132l0.328,0.026l0.132,0.026l0.434,0.053
			l0.21,0.053l0.71,0.026l0.264-0.053l0.184-0.026l0.25-0.132l0.104-0.026l0.158-0.078l0.197-0.132l0.21-0.224l0.053-0.131
			l0.434-0.46l0.486-0.211l0.132,0.079l0.132,0.026l0.17,0.21l0.026,0.171v0.474l-0.145,0.328l-0.104,0.237l-0.053,0.171
			l-0.079,0.21l-0.236,0.328l-0.118,0.158l-0.237,0.263l-0.223,0.25l-0.132,0.053l-0.132,0.21l-0.104,0.224l-0.197,0.342
			l-0.026,0.224l0.092,0.053l0.184,0.236l0.053,0.276l-0.078,0.289l-0.303,0.302l-0.21,0.132h-0.382l-0.131-0.053l-0.592-0.026
			l-0.329-0.105l-0.157,0.053l-0.158-0.079l-0.104,0.026l-0.171-0.078l-0.132-0.093l-0.263-0.052l-0.276-0.079l-0.46-0.263
			l-0.184-0.105l-0.132-0.118l-0.381-0.158h-0.079l-0.236-0.131l-0.71-0.105l-0.105,0.079l-0.184,0.104l-0.105,0.158l-0.092,0.197
			l-0.079,0.263l-0.079,0.105l-0.21,0.328l-0.197,0.026l-0.289,0.079l-0.185-0.053l-0.145-0.079l-0.078-0.104l-0.079-0.145
			l-0.105-0.158l-0.026-0.21l0.079-0.539v-0.197l0.105-0.645l0.131-0.368l0.026-0.092l0.224-0.591l0.079-0.105l-0.053-0.132
			l0.053-0.184l0.104-0.092l0.053-0.158l0.105-0.157l0.25-0.303l0.078-0.158l0.264-0.513l0.486-0.775l0.053-0.197l0.092-0.104
			l0.263-0.264l0.184-0.328l0.224-0.21l0.026-0.158l-0.328-0.092l-0.264,0.026l-0.894,0.224l-0.21-0.026l-0.303-0.171l-0.263-0.289
			l-0.053-0.211l0.079-0.354l0.053-0.185l0.104-0.171l0.079-0.053l0.382-0.236l0.184-0.026l0.171-0.053h0.395l0.079-0.025
			l0.223,0.025h0.079h0.211h0.249l0.263,0.053l0.224,0.053l0.158,0.026l0.486,0.053l0.157-0.185l0.053-0.196l0.079-0.105
			l0.053-0.132l0.171-0.079l0.079-0.223l0.104-0.105l0.053-0.184l0.185-0.132l0.196-0.329l0.079-0.157l0.407-0.539l0.211-0.328
			v-0.132l-0.355,0.079h-0.131l-0.132,0.053l-0.157-0.026l-0.329,0.052l-0.407-0.078l-0.513-0.079l-0.263-0.026l-0.276-0.053
			l-0.315-0.053h-0.276l-0.342,0.079l-0.197,0.132l-0.236,0.104l-0.157,0.171l-0.25,0.185l-0.289,0.131l-0.276,0.026l-0.157-0.026
			l-0.185-0.104l-0.079-0.158l-0.065-0.302l0.092-0.513l0.185-0.315l0.236-0.276l0.303-0.315l0.434-0.381l0.184-0.25l0.053-0.132
			l-0.053-0.21l-0.078-0.276v-0.368l0.078-0.145l0.105-0.157l0.303-0.185L167.041,234.065z"/>
		<path d="M179.042,234.171h0.158l0.354,0.079l0.407,0.184l0.486,0.303l0.342,0.302l0.197,0.079l0.158,0.21l0.184,0.026l0.079,0.158
			l0.197,0.145l0.486,0.158l0.131,0.104l0.185,0.053l0.105-0.026h0.171l0.263,0.053l0.249,0.053h0.211l0.157,0.118l0.105,0.184
			v0.211l-0.079,0.25l-0.21,0.236l-0.132,0.407l-0.026,0.132l-0.026,0.184v0.868l-0.065,0.434l0.04,0.184l-0.04,0.236l0.065,0.435
			l-0.025,0.617l0.025,0.171v0.671l-0.092,0.21l0.026,0.539v0.25l0.04,0.131l0.131,0.132l0.026,0.105v0.354l-0.026,0.315
			l0.053,0.171l0.053,0.132v0.328l0.026,0.185l0.026,0.513l0.078,0.131l0.158,0.053h0.118l0.132,0.026h0.131h0.185l0.275,0.224
			v0.368l-0.025,0.104l-0.105,0.197l-0.145,0.237l-0.211,0.275l-0.104-0.026l-0.079,0.132l-0.105,0.131l-0.118,0.132l-0.157,0.118
			l-0.026,0.105l-0.105,0.079l-0.184,0.131l-0.119,0.158l-0.025,0.224l0.025,0.104l0.079,0.105l0.145,0.303v-0.105l-0.079,0.499
			l-0.196,0.224l-0.158,0.053l-0.354,0.026l-0.368-0.105l-0.355-0.104l-0.184-0.093l-0.329-0.157v-0.105l-0.644-0.434l-0.132-0.184
			l-0.171-0.132l-0.263-0.25l-0.276-0.184l-0.131-0.185l-0.158-0.118l-0.236-0.079l-0.197,0.026l-0.315,0.197l-0.065,0.158
			l-0.053,0.565l0.302,0.315l0.079,0.302l-0.105,0.303l-0.434,0.157l-0.315,0.053l-0.275-0.026l-0.486-0.184l-0.368-0.145
			l-0.066-0.105l-0.184-0.21l-0.158-0.171l-0.275-0.185l-0.132-0.131l-0.157-0.053l-0.079-0.132l-0.355-0.224l-0.131-0.052h-0.434
			l-0.105-0.053h-0.158l-0.197-0.158l-0.052-0.092l-0.079-0.185l0.079-0.315l0.157-0.196l0.118-0.079l0.211-0.211l0.157-0.249
			l0.079-0.211v-0.104v-0.171l0.092-0.264v-0.236l-0.065-0.145l-0.026-0.342l0.053-0.145l0.065-0.132v-0.21l-0.065-0.132
			l-0.026-0.328l0.026-0.079l0.039-0.131l0.026-0.197l-0.026-0.828l-0.224-0.355v-0.236l0.132-0.171l0.197-0.158l0.105-0.052
			l0.381-0.053l0.421-0.053l0.118,0.026l0.368-0.053l0.104-0.053l0.145-0.026l0.185-0.026h0.328h0.132l0.105-0.026l0.434-0.197
			l0.131-0.104h0.329l0.263-0.185l0.276-0.197l0.21-0.263l0.079-0.407l0.079-0.21v-0.132v-0.118l0.171-0.342l-0.04-0.355
			l-0.053-0.236l-0.131-0.25l-0.434-0.46l-0.185-0.078l-0.157-0.079h-0.25l-0.368-0.211l-0.276-0.078h-0.21l-0.46,0.078l-0.46,0.368
			l-0.105,0.197v0.263v0.276l0.079,0.185l0.132,0.052l0.328-0.104h0.105l0.104,0.053l0.25,0.025l0.342,0.276l0.026,0.105
			l0.026,0.105l0.026,0.263l-0.026,0.434l-0.132,0.25l-0.236,0.236l-0.381,0.184l-0.289,0.053h-0.329l-0.236-0.053l-0.25-0.104
			l-0.263-0.079l-0.355-0.354l-0.157-0.185v-0.157l-0.026-0.105l-0.118-0.053l-0.026-0.303l-0.079-0.302l0.026-0.395l0.026-0.132
			v-0.196l0.118-0.316l0.026-0.223l0.447-0.645l0.065-0.157l0.21-0.171l0.513-0.29l0.185-0.104l0.46-0.132l0.263-0.171l0.46-0.157
			l0.25-0.276l0.026-0.079l0.053-0.184l0.053-0.237l0.328-0.249L179.042,234.171z M179.989,241.085l-0.302,0.197l-0.211,0.132
			l-0.236,0.052h-0.171l-0.236,0.105l-0.171,0.158l-0.132-0.026h-0.157l-0.158,0.145l0.026,0.184l0.026,0.185l0.053,0.249
			l0.078,0.776l0.026,0.131l-0.078,0.197l0.026,0.315l-0.053,0.789v0.289l-0.25,0.25l0.224,0.026l0.157,0.026h0.329l0.157,0.025
			l0.158-0.025l0.513,0.025l0.275,0.053l0.316,0.079l-0.079-0.184l-0.079-0.105l-0.132-2.077l-0.078-0.434l0.104-0.263
			L179.989,241.085z"/>
	</g>
</g>
<g id="Capa_15">
	<g>
		<g>
			<g>
				<g>
					<g>
						<g>
							<path d="M61.79,147.455c2.402,4.596,6.211,7.353,8.508,6.151c2.285-1.199,2.194-5.896-0.212-10.498
								c-2.412-4.603-6.216-7.356-8.51-6.158C59.284,138.149,59.377,142.851,61.79,147.455z"/>
							<path d="M52.229,151.457c-3.858-8.926,4.747-13.204,4.747-13.204l4.602-1.303l9.596,15.584
								C71.173,152.535,56.991,161.747,52.229,151.457z"/>
							<path fill="#D1AB6F" d="M62.247,139.678c6.346,1.609,6.999,10.784,6.999,10.784s-9.853,6.708-13.674,0.184
								C51.753,144.128,58.368,139.821,62.247,139.678z"/>
							<path fill="#31738B" d="M67.791,144.876c0.635,5.449-2.493,6.98-5.123,8.391c3.42-0.707,6.578-2.804,6.578-2.804
								S68.89,146.781,67.791,144.876z"/>
						</g>
						<path fill="#D7DADD" d="M62.247,139.678c0,0-5.125,0.104-7.215,5.106c-0.596,2.408,11.434-2.188,10.419-3.322
							C64.304,140.229,62.247,139.678,62.247,139.678z"/>
					</g>
					<path fill="#D30559" d="M102.911,171.013c-42.682-10.771-68.639-54.254-57.868-96.932
						C55.815,31.399,99.299,5.438,141.983,16.21c42.681,10.772,68.642,54.26,57.867,96.938
						C189.077,155.83,145.592,181.784,102.911,171.013z"/>
					<path d="M142.571,17.371c41.807,10.551,67.144,52.996,56.597,94.804c-10.557,41.805-52.999,67.143-94.808,56.59
						s-67.146-52.994-56.595-94.804C58.321,32.155,100.763,6.815,142.571,17.371 M143.434,13.958
						C99.811,2.949,55.368,29.481,44.358,73.104c-4.747,18.805-11.883,81.145,59.144,99.069
						c42.746,10.789,87.82-14.558,99.074-59.141C213.584,69.413,187.051,24.971,143.434,13.958L143.434,13.958z"/>
					<path fill="#EFA5C1" d="M63.83,101.454c-7.971,9.951-7.246,22.953-5.474,27.064C31.323,89.295,51.862,34.428,98.94,19.083
						C82.945,26.364,50.191,57.178,63.83,101.454z"/>
					<path d="M142.571,17.371c-1.446-0.309-2.869-0.678-4.307-0.962c39.054,10.073,62.619,50.051,52.664,89.502
						c-3.029,13.582-12.005,29.927-28.04,40.027c-3.058,1.651-9.907,7.388-15.945,10.539c-13.896,5.631-29.603,7.072-45.209,3.131
						c-38.349-9.678-61.874-48.156-53.661-86.802c-0.103,0.385-0.208,0.766-0.308,1.155c-10.551,41.81,14.787,84.25,56.595,94.804
						c41.809,10.553,84.251-14.785,94.808-56.59C212.182,60.601,177.168,24.692,142.571,17.371z"/>
					<g>
						<path d="M187.483,128.924c-2.268,5.629-6.383,9.275-9.19,8.144c-2.799-1.133-3.234-6.608-0.963-12.239
							c2.274-5.631,6.385-9.272,9.188-8.142C189.324,117.819,189.756,123.296,187.483,128.924z"/>
						<path d="M199.064,132.486c3.464-10.83-7.043-14.816-7.043-14.816l-13.694,7.465l-1.181,10.792
							C177.146,135.927,194.714,145.01,199.064,132.486z"/>
						<path fill="#D1AB6F" d="M186.05,119.938c-7.194,2.601-6.896,13.35-6.896,13.35s12.234,6.667,15.93-1.358
							C198.775,123.904,190.582,119.655,186.05,119.938z"/>
						<path fill="#31738B" d="M180.2,126.621c7.937,5.129,15.211,3.436,15.66,2.993c-2.074,11.445-16.707,3.675-16.707,3.675
							S179.144,128.965,180.2,126.621z"/>
					</g>
				</g>
			</g>
		</g>
		<g>
			<path fill="#FFFFFF" d="M90.433,80.834c-0.262,0-0.516-0.147-0.638-0.4c-0.03-0.058-0.72-1.497-1.556-4.065
				c-0.12-0.374,0.082-0.773,0.454-0.893c0.371-0.121,0.771,0.08,0.895,0.455c0.802,2.468,1.475,3.874,1.481,3.887
				c0.169,0.353,0.023,0.776-0.33,0.945C90.642,80.812,90.537,80.834,90.433,80.834z M87.76,72.763
				c-0.319,0-0.609-0.218-0.688-0.542c-0.332-1.381-0.619-2.801-0.855-4.22c-0.064-0.386,0.198-0.752,0.584-0.815
				c0.388-0.064,0.751,0.197,0.814,0.584c0.23,1.385,0.512,2.771,0.837,4.118c0.091,0.38-0.143,0.764-0.524,0.855
				C87.871,72.755,87.816,72.763,87.76,72.763z M86.365,64.376c-0.36,0-0.671-0.275-0.704-0.641
				c-0.136-1.424-0.223-2.869-0.259-4.295c-0.01-0.39,0.3-0.716,0.69-0.726c0.396-0.017,0.718,0.298,0.728,0.691
				c0.036,1.394,0.12,2.805,0.253,4.194c0.036,0.39-0.25,0.736-0.639,0.774C86.41,64.375,86.388,64.376,86.365,64.376z
				 M86.151,55.879c-0.01,0-0.02,0-0.031-0.001c-0.391-0.016-0.694-0.348-0.676-0.74c0.063-1.427,0.179-2.87,0.342-4.289
				c0.044-0.389,0.393-0.67,0.783-0.624c0.391,0.045,0.668,0.397,0.624,0.786c-0.158,1.386-0.271,2.794-0.334,4.189
				C86.841,55.581,86.53,55.879,86.151,55.879z M87.123,47.434c-0.043,0-0.087-0.003-0.131-0.012
				c-0.384-0.072-0.64-0.442-0.566-0.828c0.101-0.538,0.21-1.087,0.328-1.627c0.193-0.852,0.41-1.714,0.646-2.572
				c0.104-0.378,0.493-0.599,0.871-0.497c0.378,0.104,0.601,0.496,0.496,0.872c-0.23,0.84-0.441,1.682-0.629,2.503
				c-0.111,0.521-0.218,1.056-0.316,1.582C87.755,47.196,87.459,47.434,87.123,47.434z M89.348,39.23
				c-0.078,0-0.157-0.013-0.231-0.04c-0.37-0.127-0.566-0.532-0.438-0.904c0.469-1.348,0.989-2.7,1.545-4.011
				c0.152-0.361,0.567-0.53,0.927-0.378c0.362,0.152,0.53,0.569,0.377,0.929c-0.542,1.285-1.051,2.607-1.509,3.928
				C89.916,39.046,89.64,39.23,89.348,39.23z M92.659,31.4c-0.107,0-0.216-0.026-0.319-0.077c-0.351-0.175-0.489-0.604-0.314-0.952
				c0.654-1.296,1.354-2.566,2.076-3.771c0.202-0.336,0.637-0.447,0.974-0.244c0.334,0.201,0.444,0.637,0.242,0.971
				c-0.708,1.177-1.388,2.415-2.024,3.681C93.168,31.255,92.918,31.4,92.659,31.4z M97.043,24.116c-0.146,0-0.289-0.043-0.413-0.134
				c-0.319-0.228-0.392-0.67-0.163-0.99c0.86-1.196,1.761-2.334,2.684-3.384c0.258-0.295,0.706-0.325,1-0.066s0.324,0.707,0.066,1
				c-0.893,1.017-1.768,2.12-2.6,3.279C97.482,24.015,97.263,24.116,97.043,24.116z"/>
		</g>
		<path d="M161.519,43.018c-2.859-6.125-5.857-9.429-5.982-9.566l-1.298-1.416l-1.797,0.679c-0.53,0.201-12.642,4.877-20.253,15.563
			c-5.199,0.719-13.065,3.207-19.576,7.403c-4.046,2.606-7.385,5.723-10.332,8.473c-4.01,3.738-7.471,6.969-11.592,8.118
			c-1.655,0.462-3.201,0.687-4.723,0.687c-2.069,0-3.946-0.418-5.935-0.86c-1.623-0.361-3.303-0.735-5.232-0.932
			c-1.118-0.115-2.371-0.172-3.722-0.172c-3.585,0-7.156,0.398-9.096,0.657c-1.859-1.917-5.934-6.2-8.694-9.723l-2.751-3.513
			L48.521,62.4c-7.608,15.074-8.106,32.698-1.241,43.856c2.061,3.349,4.696,5.972,7.829,7.796c3.332,1.941,7.146,2.924,11.332,2.924
			c1.552,0,3.158-0.137,4.806-0.408c1.104,2.644,2.813,4.663,5.102,6.016c2.479,1.469,5.062,1.778,6.791,1.778
			c0.631,0,1.152-0.04,1.515-0.082c0.821,0.116,2.655,0.323,5.179,0.323c4.355,0,8.726-0.587,12.985-1.743
			c5.829-1.581,11.251-4.193,16.119-7.765c3.771-1.587,6.175-3.939,7.155-6.997c0.506-1.578,0.55-3.11,0.375-4.469
			c1.831,0.23,3.985,0.422,6.099,0.422c2.024,0,3.783-0.179,5.231-0.533c4.835-0.958,9.208-2.671,12.996-5.094
			c3.47-2.219,6.468-5.037,8.907-8.376c4.133-5.656,6.646-12.867,7.074-20.299l0.002-0.04l0.002-0.038
			C166.982,63.085,166.235,53.114,161.519,43.018z"/>
		<path fill="#FFE5B2" d="M133.795,50.95c7.113-10.839,19.648-15.583,19.648-15.583s11.181,12.196,10.5,34.217
			c-0.709,12.282-7.791,27.441-26.762,31.167c-5.42,1.354-14.907-0.678-14.907-0.678s5.421,8.47-4.74,12.535
			c-15.924,11.857-34.251,9.16-34.251,9.16s-7.988,0.263-10.129-8.483C46.731,119.724,38.5,88.546,51.053,63.678
			c3.81,4.861,9.909,10.987,9.909,10.987s7.747-1.271,13.548-0.678c5.801,0.594,9.656,3.049,16.938,1.016
			c8.174-2.28,13.447-10.977,22.698-16.938C121.388,53.398,129.731,51.289,133.795,50.95z"/>
		<path fill="#FFFFFF" d="M51.053,63.678c-4.318,18.424-3.278,27.554-2.495,35.305C43.765,88.656,43.075,78.374,51.053,63.678z"/>
		<path fill="#FFFFFF" d="M153.444,35.367c-8.938,8.703-11.271,15.403-11.177,17.814c-29.394,1.172-33.726,14.528-45.847,19.532
			c8.762-5.449,14.056-18.459,37.699-22.244C137.271,47.288,141.271,40.662,153.444,35.367z"/>
		<g>
			<path fill="#4D4D4D" d="M89.831,120.564c-0.16,0-0.318-0.001-0.472-0.002l0.003-0.426c0.521,0.006,1.082,0.002,1.693-0.015
				l0.013,0.425C90.633,120.558,90.217,120.564,89.831,120.564z M87.648,120.505c-0.592-0.032-1.165-0.078-1.706-0.135l0.044-0.423
				c0.535,0.057,1.101,0.103,1.687,0.134L87.648,120.505z M92.777,120.46l-0.028-0.423c0.559-0.039,1.128-0.087,1.688-0.147
				l0.044,0.424C93.915,120.374,93.342,120.423,92.777,120.46z M83.122,120.323c-0.172,0-0.356-0.003-0.553-0.015l0.023-0.424
				c0.192,0.009,0.373,0.016,0.545,0.015c0.53,0,0.925-0.042,1.114-0.066l0.058,0.421C84.107,120.279,83.678,120.321,83.122,120.323
				z M96.176,120.101l-0.059-0.422c0.557-0.079,1.118-0.171,1.671-0.271l0.077,0.418C97.306,119.928,96.738,120.021,96.176,120.101z
				 M80.851,120.071c-0.579-0.132-1.135-0.318-1.653-0.551l0.176-0.389c0.49,0.222,1.019,0.397,1.571,0.525L80.851,120.071z
				 M99.54,119.491l-0.091-0.415c0.552-0.121,1.105-0.253,1.648-0.394l0.105,0.413C100.655,119.236,100.095,119.371,99.54,119.491z
				 M102.849,118.636l-0.12-0.407c0.537-0.162,1.08-0.335,1.612-0.514l0.137,0.402C103.942,118.3,103.395,118.475,102.849,118.636z
				 M77.696,118.632c-0.459-0.345-0.885-0.751-1.264-1.203l0.326-0.273c0.358,0.428,0.762,0.811,1.194,1.138L77.696,118.632z
				 M106.086,117.536l-0.151-0.396c0.528-0.203,1.058-0.417,1.57-0.636l0.167,0.393
				C107.156,117.117,106.622,117.332,106.086,117.536z M109.23,116.197l-0.181-0.385c0.509-0.239,1.019-0.494,1.517-0.752
				l0.197,0.378C110.259,115.699,109.745,115.954,109.23,116.197z M75.453,115.991c-0.268-0.485-0.506-1.017-0.707-1.582
				l0.399-0.142c0.196,0.542,0.424,1.056,0.68,1.52L75.453,115.991z M112.262,114.617l-0.21-0.368
				c0.489-0.276,0.977-0.569,1.453-0.867l0.227,0.361C113.249,114.043,112.754,114.338,112.262,114.617z M66.973,112.929
				l-0.01-0.424c0.547-0.013,1.115-0.046,1.684-0.1l0.038,0.423C68.107,112.882,67.533,112.917,66.973,112.929z M65.256,112.903
				c-0.577-0.031-1.152-0.087-1.71-0.165l0.06-0.421c0.545,0.076,1.109,0.13,1.672,0.162L65.256,112.903z M115.164,112.814
				l-0.239-0.352c0.468-0.315,0.934-0.645,1.384-0.976l0.253,0.341C116.104,112.162,115.636,112.495,115.164,112.814z
				 M74.267,112.754l-0.224-0.927l-0.312,0.078l-0.1-0.414l0.728-0.176l0.321,1.339L74.267,112.754z M70.386,112.615l-0.066-0.42
				c0.548-0.087,1.107-0.192,1.66-0.312l0.091,0.416C71.509,112.42,70.942,112.526,70.386,112.615z M61.856,112.421
				c-0.562-0.132-1.117-0.291-1.654-0.473l0.136-0.404c0.524,0.179,1.067,0.334,1.615,0.463L61.856,112.421z M58.603,111.312
				c-0.52-0.239-1.034-0.505-1.526-0.795l0.216-0.365c0.479,0.28,0.979,0.542,1.488,0.773L58.603,111.312z M118.031,111.073
				l-0.185-0.381c0.53-0.256,1.019-0.533,1.452-0.825l0.239,0.354C119.087,110.523,118.582,110.811,118.031,111.073z M55.638,109.57
				c-0.457-0.336-0.907-0.703-1.336-1.087l0.285-0.315c0.416,0.375,0.854,0.733,1.304,1.06L55.638,109.57z M65.935,109.406
				c-0.564-0.017-1.141-0.056-1.714-0.117l0.044-0.423c0.563,0.059,1.131,0.097,1.685,0.115L65.935,109.406z M67.654,109.388
				l-0.024-0.425c0.266-0.014,0.424-0.03,0.454-0.034l0.055,0.208l-0.026-0.21c0.02-0.003,0.438-0.056,1.159-0.229l0.101,0.414
				c-0.745,0.18-1.188,0.235-1.205,0.237l-0.037,0.006C68.097,109.355,67.932,109.374,67.654,109.388z M120.875,109.106
				l-0.308-0.294c0.396-0.413,0.718-0.859,0.959-1.325l0.378,0.196C121.647,108.184,121.301,108.663,120.875,109.106z
				 M62.521,109.046c-0.57-0.103-1.136-0.229-1.679-0.375l0.11-0.41c0.529,0.141,1.084,0.264,1.644,0.365L62.521,109.046z
				 M71.023,108.632l-0.135-0.403c0.524-0.176,1.053-0.378,1.575-0.6l0.168,0.392C72.1,108.246,71.56,108.453,71.023,108.632z
				 M59.2,108.16c-0.547-0.198-1.081-0.421-1.591-0.662l0.184-0.385c0.497,0.236,1.017,0.453,1.552,0.646L59.2,108.16z
				 M74.185,107.288l-0.197-0.377c0.498-0.258,0.991-0.538,1.467-0.832l0.223,0.361C75.194,106.739,74.691,107.025,74.185,107.288z
				 M53.079,107.273c-0.383-0.418-0.753-0.859-1.104-1.317l0.336-0.257c0.344,0.445,0.707,0.878,1.082,1.285L53.079,107.273z
				 M56.098,106.676c-0.495-0.303-0.97-0.633-1.418-0.984l0.262-0.335c0.436,0.342,0.897,0.664,1.376,0.956L56.098,106.676z
				 M122.446,106.005l-0.42-0.064c0.042-0.277,0.062-0.566,0.062-0.859c0-0.253-0.016-0.516-0.046-0.781l0.422-0.049
				c0.033,0.281,0.051,0.561,0.051,0.83C122.515,105.397,122.49,105.707,122.446,106.005z M77.102,105.48l-0.251-0.343
				c0.182-0.132,0.364-0.271,0.546-0.412c0.265-0.208,0.524-0.42,0.772-0.633l0.277,0.321c-0.254,0.217-0.52,0.437-0.791,0.646
				C77.473,105.205,77.287,105.344,77.102,105.48z M50.984,104.553c-0.088-0.138-0.176-0.276-0.261-0.415
				c-0.211-0.343-0.417-0.7-0.613-1.062l0.373-0.204c0.194,0.357,0.396,0.706,0.603,1.041c0.084,0.138,0.172,0.274,0.258,0.408
				L50.984,104.553z M53.39,104.548c-0.239-0.239-0.47-0.489-0.688-0.741c-0.158-0.181-0.309-0.365-0.456-0.554l0.335-0.261
				c0.144,0.185,0.289,0.361,0.44,0.537c0.211,0.246,0.436,0.488,0.666,0.718L53.39,104.548z M79.704,103.245l-0.302-0.3
				c0.396-0.396,0.777-0.813,1.143-1.24l0.325,0.275C80.498,102.416,80.107,102.842,79.704,103.245z M121.675,102.686
				c-0.233-0.709-0.51-1.262-0.654-1.528l0.374-0.204c0.149,0.28,0.439,0.859,0.686,1.599L121.675,102.686z M51.269,101.833
				c-0.292-0.485-0.562-1-0.803-1.525l0.386-0.177c0.233,0.511,0.496,1.01,0.782,1.481L51.269,101.833z M49.343,101.541
				c-0.231-0.513-0.454-1.045-0.658-1.583l0.396-0.151c0.203,0.529,0.421,1.054,0.648,1.558L49.343,101.541z M81.93,100.631
				l-0.343-0.25c0.326-0.45,0.642-0.92,0.937-1.399l0.363,0.222C82.584,99.691,82.262,100.172,81.93,100.631z M132.475,100.012
				c-0.54-0.002-1.114-0.02-1.712-0.048l0.022-0.425c0.589,0.029,1.159,0.047,1.692,0.049L132.475,100.012z M134.189,99.965
				l-0.025-0.426c0.599-0.037,1.163-0.096,1.67-0.178l0.065,0.42C135.38,99.865,134.805,99.926,134.189,99.965z M129.058,99.845
				c-0.55-0.049-1.121-0.107-1.7-0.178l0.05-0.423c0.574,0.069,1.143,0.13,1.688,0.178L129.058,99.845z M120.122,99.73l-0.919-1.433
				l0.358-0.23l0.918,1.434L120.122,99.73z M125.665,99.44c-0.568-0.083-1.137-0.177-1.688-0.272l0.074-0.419
				c0.55,0.096,1.113,0.187,1.675,0.27L125.665,99.44z M137.579,99.44l-0.088-0.417c0.557-0.119,1.11-0.25,1.646-0.388l0.109,0.411
				C138.701,99.188,138.141,99.32,137.579,99.44z M122.293,98.845l-1.663-0.355l0.091-0.416l1.663,0.355L122.293,98.845z
				 M49.835,98.705c-0.181-0.531-0.339-1.089-0.472-1.653l0.417-0.099c0.128,0.555,0.282,1.098,0.457,1.617L49.835,98.705z
				 M140.889,98.579l-0.126-0.407c0.541-0.167,1.079-0.35,1.604-0.54l0.145,0.399C141.982,98.226,141.434,98.409,140.889,98.579z
				 M48.122,98.339c-0.17-0.538-0.327-1.092-0.474-1.647l0.414-0.105c0.142,0.547,0.296,1.094,0.464,1.624L48.122,98.339z
				 M129.797,98.215c-0.577,0-1.152-0.021-1.715-0.062l0.031-0.423c0.552,0.04,1.119,0.062,1.685,0.062L129.797,98.215
				L129.797,98.215z M130.652,98.201l-0.014-0.426c0.554-0.02,1.12-0.06,1.683-0.119l0.046,0.423
				C131.792,98.139,131.217,98.179,130.652,98.201z M126.375,97.958c-0.571-0.086-1.138-0.199-1.687-0.33l0.1-0.413
				c0.539,0.127,1.093,0.238,1.65,0.323L126.375,97.958z M134.063,97.844l-0.071-0.418c0.548-0.093,1.104-0.208,1.653-0.335
				l0.099,0.414C135.185,97.635,134.62,97.749,134.063,97.844z M83.734,97.711l-0.379-0.195c0.125-0.24,0.248-0.483,0.365-0.727
				c0.125-0.263,0.247-0.527,0.363-0.795l0.39,0.169c-0.119,0.273-0.243,0.543-0.37,0.809C83.984,97.222,83.86,97.468,83.734,97.711
				z M144.104,97.403l-0.167-0.391c0.52-0.221,1.038-0.458,1.537-0.702l0.188,0.38C145.153,96.941,144.63,97.181,144.104,97.403z
				 M123.037,97.156c-0.546-0.181-1.087-0.388-1.608-0.614l0.171-0.391c0.509,0.222,1.039,0.424,1.571,0.6L123.037,97.156z
				 M137.4,97.065l-0.122-0.408c0.539-0.159,1.079-0.337,1.607-0.524l0.143,0.4C138.493,96.725,137.946,96.904,137.4,97.065z
				 M140.625,95.912l-0.164-0.392c0.513-0.216,1.031-0.449,1.54-0.695l0.188,0.382C141.672,95.456,141.146,95.693,140.625,95.912z
				 M147.178,95.896l-0.208-0.371c0.491-0.275,0.978-0.568,1.447-0.868l0.229,0.358C148.171,95.32,147.677,95.615,147.178,95.896z
				 M119.883,95.788c-0.489-0.267-0.985-0.563-1.474-0.881l0.231-0.357c0.48,0.312,0.967,0.604,1.445,0.863L119.883,95.788z
				 M49.045,95.362c-0.083-0.552-0.146-1.126-0.188-1.707l0.423-0.032c0.044,0.571,0.104,1.135,0.186,1.675L49.045,95.362z
				 M47.268,95.023c-0.112-0.546-0.215-1.113-0.302-1.684l0.421-0.064c0.086,0.563,0.188,1.123,0.297,1.665L47.268,95.023z
				 M85.108,94.569l-0.4-0.144c0.188-0.518,0.362-1.06,0.522-1.604l0.408,0.121C85.475,93.494,85.296,94.042,85.108,94.569z
				 M143.709,94.424l-0.205-0.373c0.494-0.271,0.984-0.557,1.463-0.85l0.224,0.361C144.709,93.86,144.21,94.15,143.709,94.424z
				 M150.063,94.048l-0.251-0.344c0.452-0.331,0.902-0.677,1.334-1.034l0.273,0.329C150.977,93.361,150.522,93.714,150.063,94.048z
				 M117.009,93.917c-0.442-0.335-0.891-0.698-1.334-1.078l0.278-0.321c0.437,0.374,0.876,0.73,1.312,1.061L117.009,93.917z
				 M146.625,92.627l-0.243-0.349c0.467-0.323,0.926-0.657,1.368-0.995l0.258,0.335C147.562,91.963,147.095,92.302,146.625,92.627z
				 M48.79,91.94v-0.241c0-0.479,0.011-0.972,0.035-1.47l0.425,0.02c-0.023,0.493-0.035,0.979-0.035,1.449v0.24L48.79,91.94z
				 M152.71,91.871l-0.29-0.312c0.407-0.381,0.812-0.778,1.2-1.186l0.308,0.297C153.534,91.082,153.125,91.486,152.71,91.871z
				 M114.41,91.687c-0.401-0.382-0.807-0.79-1.208-1.212l0.309-0.294c0.397,0.418,0.799,0.823,1.194,1.199L114.41,91.687z
				 M46.741,91.644c-0.061-0.558-0.111-1.13-0.15-1.705l0.425-0.028c0.037,0.568,0.088,1.135,0.146,1.686L46.741,91.644z
				 M86.071,91.285l-0.411-0.098c0.123-0.537,0.236-1.094,0.335-1.656l0.42,0.074C86.314,90.175,86.198,90.739,86.071,91.285z
				 M149.338,90.541l-0.277-0.323c0.431-0.368,0.853-0.75,1.252-1.134l0.295,0.309C150.201,89.782,149.773,90.168,149.338,90.541z
				 M155.073,89.397l-0.324-0.275c0.36-0.423,0.718-0.868,1.057-1.317l0.341,0.257C155.801,88.519,155.439,88.968,155.073,89.397z
				 M112.051,89.21c-0.366-0.421-0.736-0.86-1.1-1.308l0.331-0.268c0.36,0.445,0.728,0.88,1.09,1.295L112.051,89.21z M49.374,88.564
				l-0.424-0.043c0.054-0.555,0.122-1.124,0.203-1.697l0.422,0.061C49.494,87.45,49.426,88.016,49.374,88.564z M46.512,88.231
				c-0.008-0.364-0.013-0.729-0.013-1.096c0-0.204,0-0.408,0.002-0.613l0.425,0.006c-0.002,0.204-0.002,0.405-0.002,0.607
				c0,0.364,0.005,0.726,0.013,1.086L46.512,88.231z M151.812,88.174l-0.31-0.289c0.383-0.412,0.76-0.838,1.116-1.267l0.326,0.27
				C152.584,87.324,152.204,87.757,151.812,88.174z M86.67,87.913l-0.422-0.053c0.07-0.549,0.128-1.116,0.173-1.683l0.426,0.034
				C86.8,86.785,86.741,87.357,86.67,87.913z M156.439,87.666l-0.344-0.252c0.332-0.451,0.654-0.92,0.958-1.39l0.356,0.23
				C157.1,86.733,156.775,87.207,156.439,87.666z M109.899,86.557c-0.337-0.444-0.676-0.908-1.01-1.378l0.348-0.247
				c0.33,0.466,0.667,0.926,1.003,1.368L109.899,86.557z M154,85.539l-0.346-0.252c0.278-0.377,0.546-0.768,0.799-1.157
				c0.053-0.078,0.101-0.156,0.152-0.234l0.358,0.227c-0.049,0.081-0.104,0.16-0.154,0.241
				C154.554,84.757,154.282,85.152,154,85.539z M50.257,85.477l-0.341-0.256c0.33-0.441,0.729-0.871,1.183-1.273l0.282,0.317
				C50.949,84.649,50.571,85.058,50.257,85.477z M46.984,84.835l-0.423-0.021c0.029-0.568,0.07-1.141,0.119-1.707l0.422,0.038
				C47.053,83.704,47.014,84.272,46.984,84.835z M158.299,84.79l-0.372-0.211c0.277-0.484,0.546-0.987,0.8-1.489l0.377,0.191
				C158.852,83.79,158.58,84.298,158.299,84.79z M86.949,84.505l-0.426-0.017c0.021-0.552,0.032-1.12,0.032-1.692h0.426
				C86.982,83.373,86.97,83.947,86.949,84.505z M107.92,83.775c-0.312-0.466-0.626-0.946-0.935-1.429l0.358-0.229
				c0.305,0.48,0.618,0.958,0.927,1.421L107.92,83.775z M52.712,83.256L52.478,82.9c0.458-0.299,0.959-0.589,1.494-0.86l0.192,0.379
				C53.644,82.683,53.155,82.965,52.712,83.256z M155.822,82.635l-0.376-0.198c0.259-0.491,0.502-1,0.729-1.521l0.389,0.171
				C156.335,81.615,156.085,82.136,155.822,82.635z M86.457,82.314c-0.196-0.455-0.524-0.849-1.006-1.204l0.25-0.343
				c0.547,0.401,0.92,0.853,1.146,1.378L86.457,82.314z M159.834,81.731l-0.391-0.17c0.225-0.506,0.44-1.034,0.643-1.564
				l0.396,0.151C160.276,80.685,160.061,81.217,159.834,81.731z M55.697,81.72l-0.163-0.394c0.512-0.208,1.054-0.409,1.611-0.593
				l0.134,0.403C56.731,81.32,56.197,81.515,55.697,81.72z M47.279,81.461l-0.421-0.053c0.069-0.564,0.148-1.133,0.236-1.692
				l0.422,0.066C47.428,80.336,47.348,80.902,47.279,81.461z M106.088,80.897l-0.194-0.317l0.301-0.759
				c0.091-0.227,0.185-0.45,0.276-0.674l0.393,0.164c-0.093,0.221-0.183,0.444-0.271,0.669l-0.223,0.56l0.084,0.135L106.088,80.897z
				 M58.897,80.645l-0.113-0.411c0.532-0.147,1.09-0.288,1.66-0.418l0.093,0.416C59.976,80.36,59.422,80.498,58.897,80.645z
				 M84,80.343c-0.463-0.18-1-0.348-1.596-0.499l0.104-0.413c0.614,0.154,1.169,0.329,1.649,0.518L84,80.343z M62.197,79.886
				l-0.078-0.418c0.55-0.103,1.116-0.2,1.687-0.287l0.062,0.422C63.305,79.688,62.744,79.784,62.197,79.886z M80.754,79.497
				c-0.527-0.092-1.089-0.175-1.671-0.246l0.052-0.422c0.589,0.072,1.159,0.157,1.692,0.249L80.754,79.497z M157.193,79.49
				l-0.402-0.142c0.183-0.52,0.355-1.062,0.511-1.608l0.41,0.116C157.554,78.411,157.38,78.961,157.193,79.49z M65.549,79.371
				l-0.053-0.422c0.561-0.069,1.131-0.128,1.699-0.182l0.039,0.423C66.672,79.242,66.104,79.304,65.549,79.371z M77.398,79.082
				c-0.546-0.043-1.114-0.079-1.69-0.104l0.019-0.426c0.58,0.026,1.155,0.063,1.706,0.106L77.398,79.082z M68.927,79.057
				l-0.028-0.423c0.562-0.037,1.138-0.068,1.708-0.09l0.015,0.424C70.056,78.99,69.485,79.02,68.927,79.057z M74.013,78.926
				c-0.556-0.007-1.122-0.007-1.696-0.002l-0.005-0.425c0.581-0.007,1.15-0.006,1.707,0.002L74.013,78.926z M161.051,78.535
				l-0.406-0.132c0.175-0.534,0.337-1.08,0.484-1.62l0.41,0.112C161.39,77.441,161.228,77.993,161.051,78.535z M47.809,78.114
				l-0.417-0.081c0.106-0.557,0.227-1.12,0.354-1.671l0.413,0.094C48.033,77.003,47.915,77.562,47.809,78.114z M107.541,77.758
				l-0.388-0.178c0.239-0.521,0.488-1.04,0.743-1.541l0.378,0.193C108.025,76.729,107.777,77.24,107.541,77.758z M85.965,77.425
				c-0.156,0-0.312-0.002-0.465-0.006l0.009-0.425c0.552,0.014,1.123,0.002,1.683-0.032l0.026,0.425
				C86.803,77.413,86.382,77.425,85.965,77.425z M83.785,77.31c-0.547-0.057-1.103-0.133-1.699-0.233l0.069-0.419
				c0.59,0.098,1.137,0.174,1.672,0.229L83.785,77.31z M88.926,77.207l-0.061-0.419c0.543-0.08,1.1-0.183,1.657-0.308l0.093,0.414
				C90.048,77.021,89.479,77.128,88.926,77.207z M80.407,76.752c-0.453-0.095-0.901-0.195-1.345-0.294l-0.318-0.07l0.093-0.416
				l0.316,0.07c0.442,0.1,0.89,0.198,1.343,0.294L80.407,76.752z M92.276,76.46l-0.124-0.407c0.527-0.16,1.06-0.352,1.58-0.568
				l0.164,0.394C93.36,76.101,92.814,76.298,92.276,76.46z M158.127,76.192l-0.416-0.092c0.118-0.541,0.225-1.098,0.314-1.66
				l0.42,0.067C158.353,75.078,158.248,75.644,158.127,76.192z M61.909,76.172l-0.06-0.422c0.541-0.077,1.109-0.151,1.694-0.221
				l0.049,0.423C63.014,76.021,62.447,76.094,61.909,76.172z M60.125,76.135l-0.317-0.319c-0.054-0.055-0.373-0.377-0.88-0.897
				l0.305-0.296c0.504,0.517,0.823,0.839,0.877,0.894l0.316,0.319L60.125,76.135z M77.085,76.034
				c-0.607-0.12-1.153-0.215-1.666-0.29l0.061-0.42c0.521,0.074,1.071,0.172,1.686,0.293L77.085,76.034z M65.281,75.769
				l-0.038-0.422c0.574-0.056,1.147-0.105,1.699-0.147l0.032,0.425C66.425,75.665,65.855,75.713,65.281,75.769z M73.744,75.555
				c-0.528-0.04-1.097-0.069-1.688-0.082l0.012-0.426c0.599,0.015,1.174,0.044,1.71,0.085L73.744,75.555z M68.667,75.52
				l-0.021-0.425c0.587-0.028,1.162-0.046,1.708-0.055l0.008,0.425C69.821,75.475,69.251,75.493,68.667,75.52z M161.95,75.235
				l-0.416-0.093c0.119-0.546,0.23-1.104,0.326-1.66l0.418,0.073C162.184,74.117,162.073,74.682,161.95,75.235z M95.451,75.154
				l-0.195-0.377c0.481-0.251,0.974-0.53,1.465-0.834l0.224,0.363C96.445,74.614,95.942,74.899,95.451,75.154z M48.561,74.81
				l-0.412-0.109c0.145-0.549,0.302-1.102,0.462-1.645l0.407,0.121C48.859,73.716,48.705,74.266,48.561,74.81z M109.069,74.738
				l-0.373-0.207c0.279-0.5,0.571-0.996,0.866-1.476l0.363,0.223C109.633,73.753,109.344,74.245,109.069,74.738z M57.742,73.692
				c-0.36-0.376-0.754-0.792-1.174-1.237l0.311-0.291c0.418,0.444,0.812,0.859,1.171,1.234L57.742,73.692z M98.375,73.359
				l-0.246-0.348c0.437-0.308,0.893-0.647,1.354-1.01l0.264,0.336C99.28,72.703,98.817,73.046,98.375,73.359z M158.675,72.811
				l-0.423-0.045c0.06-0.553,0.107-1.12,0.141-1.685l0.424,0.024C158.783,71.679,158.736,72.252,158.675,72.811z M162.53,71.862
				l-0.423-0.052c0.072-0.561,0.125-1.125,0.17-1.682l0.423,0.031C162.657,70.725,162.601,71.297,162.53,71.862z M110.846,71.859
				l-0.353-0.239c0.324-0.472,0.658-0.941,1-1.391l0.34,0.256C111.496,70.931,111.164,71.394,110.846,71.859z M49.529,71.562
				l-0.403-0.134c0.181-0.541,0.371-1.083,0.565-1.611l0.4,0.146C49.899,70.487,49.708,71.026,49.529,71.562z M101.076,71.257
				l-0.275-0.326c0.411-0.345,0.83-0.709,1.282-1.11l0.283,0.317C101.911,70.544,101.488,70.909,101.076,71.257z M55.407,71.209
				c-0.375-0.407-0.76-0.829-1.15-1.26l0.314-0.285c0.39,0.431,0.774,0.85,1.147,1.256L55.407,71.209z M158.881,69.396l-0.424-0.007
				c0.002-0.169,0.002-0.338,0.002-0.503c0-0.414-0.008-0.811-0.021-1.188l0.425-0.014c0.014,0.384,0.021,0.785,0.021,1.203
				C158.883,69.052,158.883,69.223,158.881,69.396z M112.883,69.164l-0.326-0.273c0.366-0.437,0.749-0.868,1.136-1.285l0.312,0.291
				C113.622,68.307,113.244,68.734,112.883,69.164z M103.631,68.993l-0.287-0.313c0.415-0.381,0.83-0.767,1.247-1.155l0.29,0.312
				C104.462,68.224,104.045,68.611,103.631,68.993z M53.122,68.679c-0.377-0.425-0.752-0.854-1.121-1.287l0.323-0.275
				c0.368,0.428,0.74,0.857,1.116,1.282L53.122,68.679z M162.766,68.446l-0.426-0.004c0.003-0.249,0.006-0.497,0.006-0.745
				c0-0.319-0.002-0.636-0.011-0.951l0.429-0.006c0.004,0.316,0.006,0.635,0.006,0.957C162.77,67.946,162.768,68.197,162.766,68.446
				z M50.704,68.384l-0.396-0.162c0.213-0.527,0.438-1.055,0.67-1.572l0.388,0.171C51.139,67.336,50.916,67.86,50.704,68.384z
				 M115.188,66.693l-0.295-0.308c0.413-0.396,0.841-0.784,1.271-1.151l0.276,0.323C116.017,65.919,115.597,66.301,115.188,66.693z
				 M106.124,66.675l-0.288-0.312c0.415-0.385,0.83-0.771,1.251-1.156l0.288,0.314C106.953,65.908,106.537,66.29,106.124,66.675z
				 M158.348,66.008c-0.045-0.58-0.103-1.146-0.173-1.682l0.424-0.055c0.071,0.543,0.128,1.116,0.173,1.705L158.348,66.008z
				 M162.286,65.053c-0.026-0.563-0.061-1.133-0.103-1.693l0.425-0.031c0.041,0.564,0.076,1.138,0.102,1.705L162.286,65.053z
				 M117.753,64.495l-0.258-0.339c0.45-0.345,0.921-0.679,1.393-0.998l0.238,0.353C118.66,63.826,118.197,64.156,117.753,64.495z
				 M108.636,64.384l-0.283-0.318c0.448-0.396,0.87-0.761,1.29-1.118l0.275,0.323C109.5,63.627,109.081,63.99,108.636,64.384z
				 M158.001,62.693l-0.081-0.037l-0.019,0.004l-0.002-0.012l-0.571-0.258c-0.058-0.027-0.322-0.146-0.768-0.327l0.16-0.394
				c0.454,0.183,0.725,0.305,0.783,0.332l0.771,0.35l0.043,0.229l-0.294,0.055L158.001,62.693z M120.554,62.611l-0.216-0.366
				c0.489-0.288,0.993-0.566,1.499-0.827l0.196,0.378C121.533,62.055,121.036,62.327,120.554,62.611z M111.226,62.193l-0.266-0.332
				c0.456-0.365,0.911-0.717,1.35-1.047l0.255,0.34C112.128,61.479,111.678,61.829,111.226,62.193z M162.032,61.672
				c-0.059-0.557-0.127-1.123-0.199-1.682l0.42-0.057c0.076,0.565,0.145,1.134,0.204,1.695L162.032,61.672z M154.977,61.459
				c-0.516-0.187-1.054-0.372-1.604-0.549l0.131-0.406c0.555,0.18,1.098,0.365,1.619,0.554L154.977,61.459z M123.554,61.069
				l-0.172-0.39c0.52-0.229,1.052-0.446,1.585-0.646l0.15,0.398C124.59,60.627,124.065,60.844,123.554,61.069z M151.75,60.413
				c-0.544-0.157-1.096-0.307-1.637-0.448l0.106-0.412c0.544,0.14,1.1,0.293,1.648,0.452L151.75,60.413z M113.938,60.166
				l-0.241-0.351c0.365-0.252,0.736-0.5,1.104-0.737c0.108-0.07,0.215-0.139,0.323-0.206l0.228,0.36
				c-0.106,0.066-0.214,0.135-0.318,0.204C114.667,59.67,114.299,59.915,113.938,60.166z M126.714,59.878l-0.128-0.406
				c0.538-0.17,1.09-0.328,1.645-0.472l0.108,0.413C127.79,59.553,127.244,59.711,126.714,59.878z M148.465,59.568
				c-0.554-0.124-1.112-0.243-1.659-0.347l0.082-0.417c0.551,0.104,1.113,0.223,1.672,0.349L148.465,59.568z M129.982,59.034
				l-0.084-0.417c0.55-0.111,1.116-0.213,1.685-0.301l0.065,0.421C131.084,58.822,130.527,58.924,129.982,59.034z M145.137,58.925
				c-0.559-0.09-1.124-0.173-1.676-0.243l0.053-0.422c0.557,0.07,1.128,0.153,1.691,0.244L145.137,58.925z M133.323,58.519
				l-0.043-0.423c0.561-0.061,1.133-0.106,1.704-0.144l0.026,0.425C134.444,58.411,133.877,58.459,133.323,58.519z M141.775,58.497
				c-0.562-0.05-1.13-0.093-1.69-0.125l0.024-0.423c0.565,0.03,1.138,0.074,1.706,0.125L141.775,58.497z M116.8,58.357l-0.211-0.368
				c0.487-0.282,0.991-0.561,1.496-0.825l0.199,0.377C117.783,57.805,117.283,58.08,116.8,58.357z M161.576,58.314
				c-0.094-0.561-0.193-1.122-0.303-1.668l0.415-0.083c0.111,0.552,0.214,1.117,0.308,1.681L161.576,58.314z M136.698,58.307
				l-0.007-0.425c0.568-0.011,1.145-0.011,1.711,0l-0.007,0.425C137.832,58.295,137.261,58.295,136.698,58.307z M119.797,56.781
				l-0.185-0.384c0.511-0.244,1.036-0.483,1.556-0.71l0.17,0.391C120.825,56.302,120.302,56.538,119.797,56.781z M122.904,55.428
				l-0.157-0.395c0.524-0.208,1.062-0.41,1.602-0.6l0.142,0.402C123.959,55.022,123.423,55.222,122.904,55.428z M160.918,54.99
				c-0.125-0.545-0.264-1.099-0.408-1.646l0.413-0.107c0.145,0.549,0.282,1.107,0.41,1.657L160.918,54.99z M126.095,54.292
				l-0.128-0.405c0.541-0.172,1.093-0.338,1.636-0.491l0.116,0.41C127.178,53.958,126.633,54.122,126.095,54.292z M129.357,53.378
				l-0.101-0.415c0.568-0.136,1.129-0.261,1.671-0.368l0.083,0.417C130.476,53.121,129.92,53.242,129.357,53.378z M132.677,52.724
				l-0.059-0.42c0.465-0.068,0.896-0.12,1.277-0.151l0.427-0.036l0.036,0.425l-0.427,0.034
				C133.556,52.609,133.137,52.657,132.677,52.724z M160.051,51.713c-0.163-0.544-0.335-1.088-0.512-1.615l0.402-0.136
				c0.178,0.534,0.353,1.08,0.518,1.629L160.051,51.713z M135.575,51.23l-0.353-0.242c0.321-0.464,0.663-0.928,1.012-1.381
				l0.335,0.26C136.225,50.315,135.891,50.773,135.575,51.23z M137.64,48.557l-0.324-0.277c0.369-0.427,0.752-0.854,1.148-1.271
				l0.308,0.291C138.383,47.711,138.001,48.135,137.64,48.557z M158.975,48.5c-0.197-0.527-0.406-1.058-0.62-1.577l0.396-0.162
				c0.214,0.523,0.426,1.058,0.623,1.59L158.975,48.5z M139.96,46.098l-0.294-0.307c0.403-0.393,0.827-0.786,1.255-1.163l0.28,0.316
				C140.778,45.32,140.362,45.707,139.96,46.098z M157.684,45.37c-0.054-0.119-0.104-0.234-0.159-0.348
				c-0.188-0.408-0.378-0.803-0.567-1.182l0.379-0.19c0.191,0.385,0.383,0.781,0.574,1.192c0.055,0.116,0.108,0.232,0.161,0.352
				L157.684,45.37z M142.49,43.845l-0.271-0.328c0.435-0.357,0.887-0.714,1.345-1.058l0.255,0.338
				C143.367,43.138,142.92,43.492,142.49,43.845z M156.173,42.339c-0.272-0.499-0.555-0.993-0.84-1.471l0.366-0.218
				c0.287,0.482,0.572,0.981,0.848,1.484L156.173,42.339z M145.188,41.798l-0.244-0.347c0.464-0.327,0.939-0.648,1.416-0.959
				l0.23,0.356C146.12,41.155,145.647,41.476,145.188,41.798z M148.028,39.947l-0.218-0.363c0.484-0.294,0.983-0.583,1.477-0.859
				l0.21,0.372C149.003,39.37,148.51,39.657,148.028,39.947z M154.437,39.432c-0.316-0.483-0.639-0.952-0.959-1.392l0.344-0.251
				c0.323,0.447,0.649,0.921,0.972,1.409L154.437,39.432z M150.99,38.295l-0.195-0.378c0.521-0.268,1.037-0.521,1.537-0.753
				l0.18,0.386C152.017,37.78,151.505,38.032,150.99,38.295z"/>
		</g>
		<path d="M161.029,124.604c6.33,9.212,9.074,19.704,9.074,19.704s-3.93,4.821-3.962,4.381
			C166.113,148.251,158.932,122.253,161.029,124.604z"/>
		<path d="M80.796,141.616c-1.995,12.843,5.254,32.281,8.675,36.833c7.649,1.426,15.955-0.011,19.167-0.211
			c17.815,7.483,33.624-7.405,33.624-7.405S81.116,139.528,80.796,141.616z"/>
		<path fill="#FFE5B2" d="M166.27,150.75c-29.349,24.951-70.887,25.802-73.014,23.817c-8.507-9.782-13.852-32.273-12.738-41.728
			c8.158-6.187,67.854-21.716,67.854-21.716s5.968,3.471,7.107,4.613C159.996,120.613,165.19,130.562,166.27,150.75z"/>
		<path d="M91.161,158.298c0,0,7.057,14.993,12.736,17.857c3.138,2.226,6.136-0.28,6.136-0.28L91.161,158.298z"/>
		<path d="M136.016,102.01c0,0,12.114,4.938,19.003,13.33c3.777,6.473-21.569-8.221-21.569-8.221l-3.661-4.146L136.016,102.01z"/>
		<path d="M156.254,134.458c0,0,3.58,14.613,3.775,16.48c0.193,1.864-9.068,13.069-9.068,13.069l-3.982-0.268L156.254,134.458z"/>
		<path fill="#D1AB6F" d="M157.242,150.61c-0.426,0.562-10.064,12.472-11.767,15.307c-9.359,6.128-20.796,9.77-28.62,10.209
			c-5.448,0.307-9.146-1.891-9.146-1.891s-5.412-1.557-11.212-8.127c-5.932-9.78-15.539-18.525-15.98-33.27
			c0.333-5.671,2.083-9.523,2.768-11.072c25.775,2.836,46.503-18.794,46.503-18.794s23.298,9.073,26.087,13.042
			c1.194,1.704,0.039,9.907,0.188,16.824"/>
		<path fill="#B0B4B7" d="M84.438,131.138c1.147-0.104,6.129-7.491,15.834-5.529c9.236-8.627,22.533-3.009,27.624-4.678
			c5.091-1.669-27.213,7.457-27.213,7.457L84.438,131.138z"/>
		<path fill="#31738B" d="M88.393,150.938c0,0,0.906,4.232,7.882,4.174c3.17-0.025,11.768-3.494,13.76-3.536
			c4.536-0.964,11.633,1.165,15.416-0.12c12.826-4.361,13.847-19.826,13.847-19.826L88.393,150.938z"/>
		<path fill="#D1AB6F" d="M81.81,125.625c-2.022,5.703-5.898,8.445-4.954,8.113c0.946-0.332,3.534,3.43,4.924,7.728
			C86.883,143.469,83.692,125.024,81.81,125.625z"/>
		<path fill="#FFFFFF" d="M82.154,133.535c0,0,1.884,1.804,2.906,3.849c0.903,1.729,1.25,3.396,1.25,3.396s3.024,7.347,21.833,0.837
			c31.192,1.43,34.12-25.164,34.12-25.164s-1.846,6.67-26.152,7.558c-7.305,0.325-15.838,4.576-15.838,4.576L82.154,133.535z"/>
		<path fill="#EAC798" d="M142.262,116.452c0.189,11.095-5.691,24.561-14.176,30.943c-6.161,4.634-12.666,0.189-19.472,2.27
			c-4.629,0.893-14.212,5.23-18.145,3.211c-2.969-1.521-3.117-4.838-3.374-7.748c-0.197-2.214-0.786-4.349-0.786-4.349
			s3.304,1.927,8.884,1.702c4.046-0.164,9.899-2.349,13.611-2.916c8.823-1.351,17.011-0.485,22.684-6.507
			C136.591,128.302,140.94,121.803,142.262,116.452z"/>
		<path fill="#EAC798" d="M77.803,133.405c0,0,3.563-0.663,6.635-2.268c2.465-1.287,4.104-3.444,7.163-4.348
			c3.106-0.919,6.312,0.045,8.671-0.189c1.699-0.169,3.75-2.757,7.453-3.59c6.357-1.3,13.582-0.848,20.171-2.08
			c10.035-1.05,14.366-4.479,14.366-4.479s-1.341,3.785-9.784,7.126c-3.374,1.017-17.836,5.691-30.668,6.614
			C89.333,134.541,77.803,133.405,77.803,133.405z"/>
		<path d="M134.417,113.175c-0.074,0.117,6.578,2.721,7.652,3.667c2.912,2.561,2.672,2.455,4.019,4.594c0,0,2.255-3.043-2.16-6.219
			C140.932,113.064,134.665,112.778,134.417,113.175z"/>
		<path d="M77.235,131.468c0.568,1.938,0,4.537,0,4.537S74.965,134.019,77.235,131.468z"/>
		<path d="M152.47,136.005c-2.079,4.964,0.094,7.989-1.796,7.895C148.782,143.804,148.879,139.172,152.47,136.005z"/>
		<path fill="#D1AB6F" d="M107.771,80.424c4.682,7.644,9.229,12.096,13.545,14.239c10.914,5.416,25.781-1.345,32.189-11.19
			c5.541-8.514,3.388-19.987,3.388-19.987S120.982,47.225,107.771,80.424z"/>
		<path fill="#31738B" d="M120.333,65.403c-8.081,14.46-5.104,20.414,0,27.658c-7.431-3.22-12.609-12.67-12.609-12.67
			S110.949,71.337,120.333,65.403z"/>
		<path fill="#D1AB6F" d="M85.351,82.795c-1.691-4.064-30.149-4.065-34.554,4.065c-3.388,23.036,17.162,20.871,17.162,20.871
			S85.351,105.492,85.351,82.795z"/>
		<path fill="#31738B" d="M58.588,82.795c-3.755,6.283,0.88,24.016-0.879,22.888c-9.256-7.01-6.913-18.823-6.913-18.823
			S51.963,84.253,58.588,82.795z"/>
		<path fill="#31738B" d="M76.755,93.061c-10.863,8.636-19.382,3.655-19.382,3.655l-1.264-1.427l2.479-5.129
			C58.588,90.16,87.618,84.422,76.755,93.061z"/>
		<path d="M85.351,82.795C75.27,78.044,54.318,82.14,50.797,86.86C53.7,80.052,80.372,77.277,85.351,82.795z"/>
		<path d="M50.797,86.861c0,0-1.417,19.742,16.596,18.875c16.629-0.841,17.958-22.94,17.958-22.94s0.483,22.893-18.427,24.986
			C46.271,107.414,50.797,86.861,50.797,86.861z"/>
		<path d="M90.459,82.795c10.212-2.307,17.266,11.16,17.266,11.16s4.592,1.225,7.819,7.108c2.424,5.021,0.39,11.165-6.63,12.112
			c-4.754,4.825-13.053,6.753-20.604,6.014c-14.641,1.23-14.334-10.929-7.3-16.216c0.911-2.393,2.482-5.038,4.341-9.913
			C86.92,88.943,87.978,83.965,90.459,82.795z"/>
		<path fill="#D1AB6F" d="M91.788,85.167c6.775-0.339,14.567,11.418,14.567,11.418s4.891,1.436,6.896,4.669
			c2.054,3.315,1.146,8.451-5.541,10.336c-9.826,7.792-18.294,5.421-18.294,5.421s-7.751,1.795-9.786-1.932
			c-3.037-5.846,2.671-9.924,2.671-9.924s3.591-5.834,5.42-11.2C89.25,89.475,88.704,85.321,91.788,85.167z"/>
		<path fill="#31738B" d="M87.095,115.08c0,0-10.385-0.267-4.716,1.991c4.743,0.987,6.854-0.087,7.037-0.06
			c9.75,1.973,17.711-4.886,18.294-5.421C97.567,117.251,87.095,115.08,87.095,115.08z"/>
		<path fill="#31738B" d="M116.856,85.16c-0.005,2.793,2.607,1.211,2.607,1.211s14.953,7.415,26.002-4.454
			c-14.112-0.17-26.002,1.487-26.002,1.487S116.86,83.503,116.856,85.16z"/>
		<path fill="#D7DADD" d="M116.856,85.16c0.448,1.127,1.06,0.778,2.405-0.452c3.377,1.151,10.168,4.837,20.632,0.452
			c4.956-1.928,7.779-5.271,9.789-7.116c3.403,0.687,2.624-1.347,2.624-1.347s-2.439-3.64-8.347-5.167
			C134.699,69.139,120.045,70.187,116.856,85.16z"/>
		<path fill="#D7DADD" d="M57.102,93.956c-0.425,2.07,1.111,0.489,1.65,0.701c12.858,5.065,19.689-1.788,22.128-4.682
			c2.027,0.616,1.344-0.735,1.034-1.18c-0.312-0.443-2.399-3.336-7.373-4.678C68.287,82.431,59.157,83.562,57.102,93.956z"/>
		<path d="M100.274,111.512c0.028-0.574,0.649-1.755,2.045-2.511c2.152-1.165,5.071-1.862,5.392,0.348
			c0.203,1.644-1.925,2.107-3.886,1.374c-0.892,0.034-2.079,0.516-2.728,1.045C100.725,111.91,100.245,112.086,100.274,111.512z"/>
		<path d="M81.842,113.673c0.462-0.854,2.083-0.504,3.174,0.241c1.375,0.938,2.079,2.233,2.079,2.233s-0.149,0.701-1.035-0.023
			c-0.682-0.521-1.246-0.361-1.246-0.361S81.279,116.446,81.842,113.673z"/>
		<path d="M54.267,90.875c0.946,1.891,3.021,2.247,3.037,2.177c0.009-0.036,1.926-8.085,10.583-9.462
			c5.587-1.388,10.58,2.162,12.631,3.664c-1.015-3.703-4.56-3.561-7.536-5.925c-0.629,0.885,1.039,2.151,1.039,2.151
			s-1.749-0.496-2.834-2.151c-1.041,0.095,0.093,1.702,0.093,1.702l-2.36-0.912c0,0-2.083,0.12-2.899-0.838
			c-0.607,0.374,0,1.563,0,1.563s-1.158-0.3-1.876-0.934c-0.304,1.027-0.068,2.006-0.068,2.006s-1.823,0.776-3.113-0.537
			c-0.086,0.822-0.147,2.344-0.147,2.344s-1.43,0.83-2.645,0.597c0.364,0.769,0.639,1.125,1.224,1.222
			c-0.182,0.292-1.06,0.605-2.53,0.365c0.188,0.567,1.261,1.188,1.261,1.188s-1.096,0.445-2.637,0.258
			c0.233,0.911,1.682,1.446,1.682,1.446S55.591,91.538,54.267,90.875z"/>
		<path d="M117.725,82.119c1.477-7.69,9.322-11.572,9.322-11.572v1.707c0,0,3.213-2.492,3.95-3.673
			c0.441,0.851-0.885,1.411-0.562,1.966c0.324,0.552,2.322-1.468,3.023-2.739c1.117,0.81-2.249,2.501-1.561,2.739
			c0.69,0.237,5.93-3.796,5.921-3.396c-0.009,0.398-2.268,2.741-2.268,2.741s0.922-0.726,2.408-1.171
			c1.486-0.443,3.54-0.609,5.815-1.569c1.038,0.567-3.685,1.229-4.807,2.869c-0.732,1.336,6.445-0.876,7.356-1.451
			c0.501,1.508-2.925,0.993-2.646,1.978c0.279,0.984,4.946-0.349,5.577-0.939c0.236,0.662-1.592,1.575-2.269,1.796
			c-0.146,1.134,2.505,0.131,3.309-0.472c0.533,0.463-2.04,1.891-1.135,1.608c0.906-0.284,1.666-0.154,2.653-0.863
			c0.561,0.472-1.801,1.241-1.141,1.808c1.607,0.851,2.907,0.282,3.497,0.473c0.757,0.566-1.865,0.885-1.865,0.885
			s1.642,2.107,1.772,3.727c-0.293-1.168-1.772-1.871-1.772-1.871S128.557,62.614,117.725,82.119z"/>
		<g>
			<g>
				<path fill="#31738B" d="M143.326,80.83c-0.563,4.922-5.006,8.453-9.928,7.891c-4.919-0.56-8.455-5.005-7.892-9.923
					c0.562-4.923,5.004-8.455,9.926-7.894C140.352,71.465,143.886,75.911,143.326,80.83z"/>
				<path fill="#2792AF" d="M140.608,80.522c-0.312,2.716-2.768,4.667-5.479,4.356c-2.72-0.311-4.668-2.767-4.359-5.48
					c0.312-2.717,2.766-4.667,5.482-4.358C138.969,75.35,140.918,77.805,140.608,80.522z"/>
				<path fill="#D7DADD" d="M145.134,75.046c-0.312,2.715-2.764,4.667-5.481,4.357c-2.716-0.311-4.669-2.764-4.357-5.482
					c0.312-2.714,2.766-4.667,5.48-4.355C143.492,69.874,145.446,72.329,145.134,75.046z"/>
				<circle cx="134.417" cy="79.813" r="4.07"/>
				<path fill="#D7DADD" d="M137.061,78.387c-0.109,0.973-0.988,1.673-1.964,1.56c-0.97-0.11-1.67-0.989-1.558-1.96
					c0.11-0.972,0.99-1.67,1.961-1.56C136.473,76.537,137.171,77.414,137.061,78.387z"/>
			</g>
		</g>
		<g>
			<g>
				<path fill="#31738B" d="M76.705,90.924c-0.493,4.317-4.394,7.417-8.711,6.923c-4.316-0.492-7.415-4.392-6.924-8.707
					c0.496-4.319,4.395-7.419,8.709-6.923C74.097,82.707,77.198,86.607,76.705,90.924z"/>
				<circle fill="#D7DADD" cx="73.826" cy="85.53" r="4.33"/>
				<path fill="#2792AF" d="M74.319,90.651c-0.271,2.385-2.424,4.098-4.809,3.825c-2.382-0.273-4.094-2.425-3.823-4.808
					c0.275-2.384,2.428-4.095,4.809-3.824C72.881,86.115,74.592,88.268,74.319,90.651z"/>
				<circle cx="68.887" cy="90.031" r="3.572"/>
				<path fill="#D7DADD" d="M71.208,88.78c-0.097,0.856-0.868,1.465-1.725,1.37c-0.85-0.098-1.465-0.869-1.363-1.721
					c0.095-0.852,0.865-1.466,1.717-1.37C70.694,87.159,71.306,87.926,71.208,88.78z"/>
			</g>
		</g>
		<path d="M156.832,63.486c-36.896-17.459-49.107,16.905-49.107,16.905S118.212,52.43,156.832,63.486z"/>
		<path d="M156.832,63.486c0,0,5.385,21.872-18.494,31.538c-20.071,7.936-30.613-14.631-30.613-14.631s12.477,20.084,30.762,12.089
			C159.296,84.438,156.832,63.486,156.832,63.486z"/>
		<path d="M151.569,58.164c0,0,9.457-3.13,15.612-1.94c0.742,0.145,2.527,1.581,2.675,2.317c0.497,2.48,0.412,6.416,0.412,6.416
			s20.924,23.711,25.747,29.371c11.408,17.789,4.371,31.006,3.749,33.577c-2.36-6.808-7.601-7.98-7.601-7.98
			s-0.125-4.583-1.493-7.937c-4.01-4.022-28.113-22.013-28.113-22.013l-10.062,2.57l9.09-10.992l5.595-18.352l-3.204-4.661
			L151.569,58.164z"/>
		<path d="M34.986,87.253c19.281-8.934,38.096-8.545,38.096-8.545L41.781,90.16l5.576,17.746
			C47.356,107.906,39.239,104.958,34.986,87.253z"/>
		<g>
			<path fill="#333333" d="M161.583,86.414l30.635,23.937l2.341,7.716l1.766,1.322l-1.047-12.29c0,0-9.615-10.289-10.28-10.565
				c-0.666-0.277-19.823-16.895-19.823-16.895L161.583,86.414z"/>
			<path fill="#4D4D4D" d="M166.068,63.2c0,0,31.648,33.912,33.857,42.367c1.188,5.996-0.651,17.739-0.651,17.739
				s-2.941-3.263-2.949-3.916c-0.009-0.651-0.9-6.567-2.795-10.269c-7.368-6.857-31.398-24.648-31.395-24.663
				C162.141,84.443,166.068,63.2,166.068,63.2z"/>
			<path opacity="0.2" fill="#CCCCCC" stroke="#CCCCCC" stroke-miterlimit="10" enable-background="new    " d="M107.639,78.562
				c12.18-15.182,47.586-17.77,49.121-18.046s2.052,1.482,2.052,1.482s1.337,7.661,0.526,16.931c-0.179,1.7-1.792,2.138-1.792,2.138
				s-18.609,10.359-39.884,13.546C116.253,93.175,106.933,84.24,107.639,78.562z"/>
			<path opacity="0.2" fill="#CCCCCC" stroke="#CCCCCC" stroke-miterlimit="10" enable-background="new    " d="M44.325,90.639
				c0.152,8.13,6.762,14.601,6.762,14.601s10.174,0.609,29.529-7.901c1.094-1.487,4.564-11.748-1.034-15.451
				C78.827,81.063,63.153,81.035,44.325,90.639z"/>
			<path opacity="0.5" fill="#CCCCCC" enable-background="new    " d="M120.285,93.898c4.82-10.137,9.651-20.303,15.202-30.057
				c-3.461,0.868-7.052,1.938-10.516,3.253c-4.123,7.408-7.965,14.971-11.63,22.619c1.938,2.276,3.76,4.042,4.321,4.617
				C118.544,94.198,119.416,94.053,120.285,93.898z"/>
			<path opacity="0.5" fill="#CCCCCC" enable-background="new    " d="M133.485,85.188c4.025-7.821,8.049-15.676,12.429-23.31
				c-2.736,0.481-5.77,1.092-8.914,1.871c-5.572,9.769-10.406,19.93-15.236,30.09c2.804-0.51,5.546-1.136,8.189-1.83
				C131.139,89.741,132.316,87.466,133.485,85.188z"/>
			<path opacity="0.5" fill="#CCCCCC" enable-background="new    " d="M51.086,104.957c0,0,1.261,0.073,3.729-0.198
				c3.203-7.196,6.198-14.487,9.281-21.739c-2.631,0.625-5.509,1.449-8.571,2.526c-2.571,5.266-4.992,10.599-7.186,16.029
				C49.795,103.69,51.086,104.957,51.086,104.957z"/>
			<path opacity="0.5" fill="#CCCCCC" enable-background="new    " d="M72.48,81.541c-0.925,0.103-1.929,0.235-3.003,0.406
				c-2.773,7.143-5.388,14.342-7.812,21.609c0.958-0.221,1.983-0.479,3.07-0.775C67.178,95.653,69.766,88.573,72.48,81.541z"/>
			<g>
				<path fill="#333333" d="M45.646,92.036c1.159,6.924,6.713,13.399,6.227,13.389c-0.487-0.009-4.559-1.834-4.559-1.834
					s-3.718-7.69-4.035-8.399c-0.318-0.71-0.514-3.823-0.528-4.318c-0.017-0.494,1.015-2.218,1.015-2.218s14.529-7.108,36.072-7.922
					c1.852,0.528,2.663,2.678,2.997,3.403C83.168,84.864,69.874,78.546,45.646,92.036z"/>
				<path fill="#333333" d="M109.778,79.395c-0.276,5.345,7.886,15.218,7.886,15.218s-10.13-4.985-12.231-15.5
					c0.156-1.339,2.076-2.735,2.074-2.94c-0.003-0.205,15.092-14.106,51.219-16.999c2.208,0.754,0.074,2.362,0.074,2.362
					S121.891,66.276,109.778,79.395z"/>
				<path fill="#333333" d="M48.559,109.529c0,0,2.76,2.176,4.113,1.721c29.45-4.098,31.692-10.615,31.692-10.615
					s2.384-3.562,3.312-11.475c6.179-4.428,16.22-5.891,16.22-5.891s-7.374-3.784-17.874,3.013
					c-1.231,5.893-2.794,9.94-5.272,12.486C78.274,101.315,48.559,109.529,48.559,109.529z"/>
				<path fill="#333333" d="M166.776,57.591l1.321,1.293c0,0,2.838,10.44-4.876,28.691c-19.122,11.293-45.107,10.498-45.107,10.498
					l-1.755-0.421l44.056-15.311L166.776,57.591z"/>
			</g>
			<path fill="#4D4D4D" d="M166.776,57.591c-4.472-2.929-30.12,3.581-43.637,7.619c-5.02,1.501-8.282,3.134-8.282,3.134
				s-5.254,2.218-11.128,9.409c-13.821,1.146-17.891,5.486-17.891,5.486s-5.858-4.78-8.107-5.327
				c-19.515,1.326-39.318,9.643-40.072,10.749c2.067,9.432,10.156,19.868,10.9,20.868c0.743,1,28.387-6.53,28.387-6.53
				s6.122-1.974,8.062-8.158c1.474-4.699,1.799-7.707,1.799-7.707s11.677-6.366,17.092-3.864
				c7.925,12.313,12.46,14.383,12.46,14.383s12.99-0.792,23.562-3.175c12.922-2.969,21.639-7.965,21.639-7.965
				S168.964,70.978,166.776,57.591z M80.615,97.338c-19.354,8.511-29.528,7.901-29.528,7.901s-6.608-6.47-6.762-14.602
				c18.827-9.604,34.502-9.576,35.257-8.751C85.181,85.59,81.709,95.851,80.615,97.338z M159.338,78.93
				c-0.179,1.7-1.792,2.138-1.792,2.138S139.902,91.5,118.261,94.222c-1.409-1.438-11.328-9.981-10.622-15.659
				c12.18-15.182,47.586-17.77,49.121-18.046s2.052,1.482,2.052,1.482S160.149,69.659,159.338,78.93z"/>
		</g>
		<g>
			<path opacity="0.5" fill="#FB3681" enable-background="new    " d="M142.262,116.452c0.189,11.095-5.691,24.561-14.176,30.943
				c-6.161,4.634-12.666,0.189-19.472,2.27c-4.629,0.893-14.212,5.23-18.145,3.211c-2.969-1.521-3.117-4.838-3.374-7.748
				c-0.197-2.214-0.786-4.349-0.786-4.349s3.304,1.927,8.884,1.702c4.046-0.164,9.899-2.349,13.611-2.916
				c8.823-1.351,17.011-0.485,22.684-6.507C136.591,128.302,140.94,121.803,142.262,116.452z"/>
			<path opacity="0.5" fill="#FB3681" enable-background="new    " d="M77.803,133.405c0,0,3.563-0.663,6.635-2.268
				c2.465-1.287,4.104-3.444,7.163-4.348c3.106-0.919,6.312,0.045,8.671-0.189c1.699-0.169,3.75-2.757,7.453-3.59
				c6.357-1.3,13.582-0.848,20.171-2.08c10.035-1.05,14.366-4.479,14.366-4.479s-1.341,3.785-9.784,7.126
				c-3.374,1.017-17.836,5.691-30.668,6.614C89.333,134.541,77.803,133.405,77.803,133.405z"/>
		</g>
		<path fill="#3A2005" d="M75.865,62.217c4.405,1.694,5.439,4.599,4.226,7.249c-1.083,1.799-3.097,1.925-9.015,1.529
			c-9.659-2.042-20.487,4.564-24.364,8.964c2.305-6.179,5.698-11.861,9.398-14.556C64.437,61.936,72.434,61.82,75.865,62.217z"/>
		<path fill="#3A2005" d="M111.99,49.513c-1.433,3.644,2.907,7.047,2.907,7.047s22.424-11.535,35.176-4.707
			c-1.572-2.126-3.59-6.331-11.736-8.503C130.955,41.383,119.362,43.193,111.99,49.513z"/>
		<path d="M82.684,104.515c0,0-1.004,2.313-0.903,5.394c-2.071-1.778-1.408-4.173-1.408-4.173L82.684,104.515z"/>
		<path fill="#B0B4B7" d="M90.567,85.53c-1.143-0.357-2.973,8.854-3.852,11.186c-1.746,3.971-3.556,6.015-4.227,7.798
			c-1.333,3.545-0.954,4.024-0.708,5.395c1.727-5.608,5.076-7.583,6.904-12.011C90.27,93.839,89.421,87.285,90.567,85.53z"/>
		<path fill="#B0B4B7" d="M80.372,107.12c0,0-3.201,2.984-0.741,7.96c-0.405-3.274,1.848-5.457,1.848-5.457L80.372,107.12z"/>
		<path fill="#31738B" d="M106.355,96.585c9.55,3.041,7.673,9.562,7.673,9.562s-3.521-6.799-9.396-5.829
			c-1.601-6.23-7.418-13.332-7.156-13.148C97.738,87.354,101.51,89.245,106.355,96.585z"/>
		<path d="M80.372,133.53c0,0,5.708,2.849,6.724,13.109c-0.119-8.982-4.069-12.177-4.069-12.177c1.412,0.4,3.353-0.352,7.541-1.612
			C84.658,133.694,80.372,133.53,80.372,133.53z"/>
		<path d="M142.262,116.452c0.253,4.665-2.966,15.179-2.966,15.179s4.831-8.732,4.682-14.143
			C143.618,116.027,141.756,114.078,142.262,116.452z"/>
		<path d="M142.262,116.452c0,0-2.392,4.452-11.376,7.614c11.885-3.807,11.885-6.836,11.885-6.836L142.262,116.452z"/>
		<polygon points="77.803,133.405 81.781,133.613 82.684,134.929 77.488,133.737 		"/>
		<path d="M107.71,138.356c4.049-0.658,9.497-0.484,12.623-1.084c11.137-2.135,13.785-6.894,13.785-6.894s-2.136,4.108-8.851,6.864
			c-4.025,1.654-11.44,1.458-17.567,2.521c-2.349,0.584-6.024,1.609-8.759,2.18c-1.418,0.647-9.488,1.55-12.523-0.955
			c-0.23-0.19-0.221-1.014-0.393-1.245C86.771,139.873,92.716,144.671,107.71,138.356z"/>
		<path opacity="0.5" fill="#CCCCCC" enable-background="new    " d="M168.606,65.951c0,0,7.476,8.047,15.255,17.243
			c4.244,5.019,8.55,10.411,11.859,14.95c-14.237-17.611-27.645-27.134-27.645-27.134L168.606,65.951z"/>
		<path d="M170.268,64.957c0,0-0.515,7.316-3.567,12.592c1.905-8.083,1.905-13.71,1.905-13.71L170.268,64.957z"/>
		<path fill="#31738B" d="M87.67,153.267c10.263,7.547,12.531,19.738,31.812,22.609c-0.592,1.348-9.448,0-9.448,0
			s-9.896-4.867-12.567-8.561C94.796,163.619,89.991,157.079,87.67,153.267z"/>
	</g>
</g>
</svg>
