<?xml version="1.0" encoding="utf-8"?>
<!-- Generator: Adobe Illustrator 17.1.0, SVG Export Plug-In . SVG Version: 6.00 Build 0)  -->
<!DOCTYPE svg PUBLIC "-//W3C//DTD SVG 1.1//EN" "http://www.w3.org/Graphics/SVG/1.1/DTD/svg11.dtd">
<svg version="1.1" id="Layer_2" xmlns="http://www.w3.org/2000/svg" xmlns:xlink="http://www.w3.org/1999/xlink" x="0px" y="0px"
	 viewBox="0 0 369.1 273.7" enable-background="new 0 0 369.1 273.7" xml:space="preserve">
<g>
	<ellipse fill="#3D312D" cx="186.7" cy="228.4" rx="180.3" ry="45.3"/>
	<path fill="#382F2B" d="M201.3,44.6c0-0.2-0.1-0.4-0.3-0.6c-0.1-0.2-0.3-0.3-0.5-0.4l-6-3.9c-0.2-0.1-0.4-0.2-0.6-0.2
		c-0.2,0-0.4-0.1-0.6,0c0,0-0.1,0-0.1,0c-0.2,0-0.3,0.1-0.5,0.1c-0.2,0.1-0.4,0.2-0.5,0.3l-4.7,4.8c-0.2,0.2-0.3,0.3-0.4,0.6
		c-0.1,0.2-0.1,0.4-0.1,0.5l0,0l0.1,2.2l0.1,2.3c0,0,0,0.1,0,0.1c0,0,0,0,0,0c0,0,0,0,0,0.1c0,0,0,0,0,0c0,0,0,0,0,0c0,0,0,0,0,0
		c0,0,0,0.1,0,0.1c0,0,0,0,0,0c0,0,0,0,0,0c0,0,0,0.1,0.1,0.1c0,0,0,0,0,0c0,0,0,0,0,0c0,0,0,0,0,0c0,0,0,0,0,0c0,0,0,0,0,0
		c0,0,0,0.1,0.1,0.1c0,0,0,0,0,0c0,0,0,0,0,0c0,0,0,0,0,0c0,0,0,0,0.1,0.1c0,0,0,0,0,0l0,0c0,0,0,0,0,0c0,0,0,0,0.1,0.1
		c0,0,0,0,0.1,0l5.5,4l0,0l0,0h0l0,0l0,0l0,0c0,0,0,0,0.1,0c0,0,0,0,0,0c0,0,0,0,0.1,0c0,0,0,0,0.1,0c0,0,0,0,0,0c0,0,0.1,0,0.1,0
		c0,0,0,0,0.1,0l0,0c0,0,0,0,0,0c0,0,0,0,0,0c0,0,0.1,0,0.1,0c0,0,0,0,0,0c0,0,0,0,0,0c0,0,0,0,0,0c0,0,0,0,0,0c0,0,0.1,0,0.1,0
		c0,0,0,0,0,0c0,0,0,0,0,0c0,0,0.1,0,0.1,0l0,0c0.1,0,0.1,0,0.1,0c0,0,0,0,0,0c0,0,0.1,0,0.1,0c0,0,0,0,0,0c0,0,0,0,0,0c0,0,0,0,0,0
		c0,0,0,0,0,0c0,0,0,0,0,0c0,0,0.1,0,0.1,0c0,0,0,0,0,0c0,0,0,0,0,0c0,0,0.1,0,0.1,0l0,0c0,0,0,0,0,0c0,0,0,0,0.1,0c0,0,0,0,0,0
		c0,0,0.1,0,0.1,0c0,0,0,0,0,0c0,0,0,0,0,0c0,0,0.1,0,0.1,0c0,0,0,0,0,0c0,0,0,0,0,0c0,0,0.1,0,0.1-0.1c0,0,0,0,0,0
		c0,0,0.1,0,0.1-0.1c0,0,0,0,0,0c0,0,0.1-0.1,0.1-0.1l4.1-4.8c0,0,0.1-0.1,0.1-0.1c0,0,0.1-0.1,0.1-0.1c0,0,0-0.1,0.1-0.2
		c0-0.1,0-0.1,0-0.2l0.6-2.3l0.5-2.2c0,0,0,0,0,0C201.3,45,201.3,44.8,201.3,44.6z"/>
	<path fill="#382F2B" d="M193.9,47.5l-4.3-6.8c-0.1-0.2-0.3-0.4-0.5-0.5c-0.2-0.1-0.4-0.2-0.6-0.3c-0.2-0.1-0.4-0.1-0.7-0.1
		c-0.1,0-0.2,0-0.2,0c-0.2,0-0.3,0.1-0.5,0.1l-8,3c-0.2,0.1-0.4,0.2-0.6,0.4c-0.2,0.2-0.3,0.3-0.4,0.6c-0.1,0.2-0.1,0.4-0.1,0.6
		c0,0,0,0,0,0l0,2.1l0.1,3.5c0,0.1,0,0.1,0,0.2c0,0.1,0,0.1,0,0.2c0,0.1,0,0.1,0.1,0.2c0,0.1,0,0.1,0.1,0.2l3.6,6.8
		c0,0,0.1,0.1,0.1,0.1c0,0,0,0,0,0c0,0,0.1,0.1,0.1,0.1c0,0,0,0,0,0c0,0,0.1,0.1,0.1,0.1c0,0,0,0,0,0c0,0,0,0,0,0
		c0,0,0.1,0.1,0.1,0.1c0,0,0,0,0,0c0,0,0,0,0,0c0,0,0,0,0,0c0,0,0.1,0.1,0.1,0.1c0,0,0,0,0,0l0,0c0,0,0,0,0.1,0c0,0,0,0,0,0l0,0l0,0
		c0,0,0.1,0,0.1,0.1c0,0,0,0,0,0c0,0,0.1,0,0.1,0c0,0,0,0,0,0c0,0,0,0,0,0c0,0,0,0,0,0c0,0,0.1,0,0.1,0c0,0,0,0,0,0c0,0,0.1,0,0.1,0
		c0,0,0,0,0,0c0,0,0.1,0,0.1,0c0,0,0,0,0,0c0,0,0,0,0,0c0,0,0.1,0,0.1,0c0,0,0,0,0,0c0,0,0,0,0,0c0,0,0,0,0,0c0,0,0,0,0,0
		c0,0,0,0,0,0c0,0,0.1,0,0.1,0c0,0,0,0,0,0c0,0,0,0,0,0l0,0l0,0c0,0,0,0,0.1,0c0,0,0.1,0,0.1,0c0,0,0,0,0,0l0,0c0,0,0.1,0,0.1,0
		c0,0,0,0,0.1,0c0,0,0,0,0,0c0,0,0,0,0,0c0,0,0,0,0,0c0,0,0.1,0,0.1,0l0,0l0,0l0,0c0,0,0,0,0,0l0,0l7.5-3.3c0,0,0.1,0,0.1,0
		c0,0,0.1,0,0.1,0c0,0,0,0,0,0c0,0,0,0,0.1,0c0,0,0.1,0,0.1-0.1c0,0,0,0,0,0c0,0,0,0,0,0c0,0,0,0,0,0c0,0,0.1,0,0.1-0.1c0,0,0,0,0,0
		c0,0,0,0,0,0c0,0,0,0,0,0c0,0,0,0,0,0c0,0,0,0,0,0c0,0,0.1-0.1,0.1-0.1c0,0,0,0,0,0c0,0,0,0,0,0c0,0,0-0.1,0.1-0.1c0,0,0,0,0,0
		c0,0,0,0,0,0c0,0,0,0,0,0c0,0,0,0,0-0.1c0,0,0,0,0,0c0-0.1,0-0.1,0-0.2l1.4-5.3c0,0,0,0,0-0.1c0-0.2,0-0.4,0-0.6
		C194.1,48,194,47.8,193.9,47.5z"/>
	<g>
		<path fill="#C5C8C0" d="M195.9,50.5l4.5-5.2c0,0,0,0,0.1-0.1s0,0,0-0.1c0,0,0-0.1,0-0.1c0,0,0-0.1,0-0.1c-0.4,1.5-0.7,3-1.1,4.6
			c0,0,0,0.1,0,0.1c0,0,0,0,0,0.1c0,0,0,0,0,0.1c0,0,0,0-0.1,0.1l-4.1,4.8L195.9,50.5z"/>
		<path fill="#FFFFFF" d="M200.4,45.4c0.1-0.1,0.1-0.2,0.2-0.3c0-0.1,0-0.2,0-0.3c0-0.1-0.1-0.2-0.1-0.3c-0.1-0.1-0.2-0.2-0.3-0.3
			l-6-3.9c-0.1-0.1-0.2-0.1-0.3-0.1c-0.1,0-0.2,0-0.4,0c-0.1,0-0.2,0-0.4,0.1c-0.1,0-0.2,0.1-0.3,0.2l-4.7,4.8
			c-0.1,0.1-0.2,0.2-0.2,0.3c0,0.1-0.1,0.2,0,0.3c0,0.1,0,0.2,0.1,0.3c0.1,0.1,0.1,0.2,0.3,0.3l6.2,4.3c0.1,0.1,0.2,0.1,0.4,0.2
			c0.1,0,0.3,0,0.4,0c0.1,0,0.3,0,0.4-0.1c0.1-0.1,0.2-0.1,0.3-0.2L200.4,45.4z"/>
		<path opacity="0.1" d="M190.7,42.6l-2.6,2.6c-0.1,0.1-0.2,0.2-0.2,0.3c0,0.1-0.1,0.2,0,0.3c0,0.1,0,0.2,0.1,0.3
			c0.1,0.1,0.1,0.2,0.3,0.3l6.2,4.3l1.7-1.7C194.6,47.2,190.7,42.6,190.7,42.6z"/>
		<path fill="#B6B6B6" d="M188.1,50.3c-0.1-1.5-0.1-3-0.2-4.6c0,0,0,0.1,0,0.1c0,0,0,0,0,0c0,0,0,0,0,0.1c0,0,0,0,0,0c0,0,0,0,0,0.1
			c0,0,0,0,0,0c0,0,0,0.1,0,0.1c0,0,0,0,0,0c0,0,0,0,0,0.1c0,0,0,0,0,0c0,0,0,0,0,0.1c0,0,0,0,0,0c0,0,0,0,0.1,0.1c0,0,0,0,0,0
			c0,0,0.1,0,0.1,0.1l6.2,4.3c0,0,0.1,0,0.1,0.1c0,0,0,0,0,0c0,0,0.1,0,0.1,0l0,0c0,0,0.1,0,0.1,0c0,0,0,0,0,0c0,0,0.1,0,0.1,0
			c0,0,0,0,0,0c0,0,0.1,0,0.1,0c0,0,0,0,0,0c0,0,0,0,0.1,0c0,0,0,0,0,0c0,0,0.1,0,0.1,0c0,0,0,0,0,0c0,0,0.1,0,0.1,0c0,0,0,0,0,0
			c0,0,0.1,0,0.1,0c0,0,0,0,0,0c0,0,0.1,0,0.1,0c0,0,0,0,0,0c0,0,0,0,0.1,0c0,0,0,0,0,0c0,0,0.1,0,0.1,0c0,0,0,0,0,0c0,0,0,0,0.1,0
			c0,0,0,0,0,0c0,0,0,0,0.1,0c0,0,0,0,0,0c0,0,0,0,0.1,0c0,0,0,0,0,0c0,0,0,0,0.1-0.1l-0.7,4.2c0,0,0,0-0.1,0.1c0,0,0,0,0,0
			c0,0,0,0-0.1,0c0,0,0,0,0,0c0,0,0,0-0.1,0c0,0,0,0,0,0c0,0,0,0,0,0c0,0,0,0-0.1,0c0,0,0,0,0,0c0,0,0,0,0,0c0,0,0,0-0.1,0
			c0,0,0,0,0,0c0,0,0,0,0,0c0,0,0,0,0,0c0,0,0,0,0,0c0,0-0.1,0-0.1,0c0,0,0,0,0,0c0,0,0,0-0.1,0c0,0,0,0,0,0c0,0,0,0,0,0
			c0,0,0,0,0,0c0,0,0,0-0.1,0c0,0,0,0,0,0c0,0-0.1,0-0.1,0c0,0,0,0,0,0c0,0,0,0-0.1,0c0,0,0,0,0,0c0,0,0,0,0,0c0,0,0,0-0.1,0
			c0,0,0,0,0,0c0,0,0,0,0,0c0,0,0,0,0,0c0,0,0,0,0,0c0,0,0,0-0.1,0c0,0,0,0,0,0c0,0,0,0,0,0c0,0,0,0,0,0c0,0,0,0,0,0l0,0l0,0
			c0,0,0,0,0,0c0,0,0,0,0,0c0,0,0,0,0,0c0,0,0,0,0,0c0,0,0,0,0,0c0,0,0,0,0,0c0,0,0,0,0,0c0,0,0,0,0,0c0,0,0,0,0,0l-5.5-4
			c0,0,0,0,0,0c0,0,0,0,0,0c0,0,0,0,0,0c0,0,0,0,0,0c0,0,0,0,0,0c0,0,0,0,0,0c0,0,0,0,0,0c0,0,0,0,0,0c0,0,0,0,0,0c0,0,0,0,0,0
			c0,0,0,0,0,0c0,0,0,0,0,0c0,0,0,0,0,0c0,0,0,0,0,0c0,0,0,0,0,0c0,0,0,0,0-0.1c0,0,0,0,0,0c0,0,0,0,0,0c0,0,0,0,0-0.1c0,0,0,0,0,0
			c0,0,0,0,0,0c0,0,0,0,0,0C188.1,50.4,188.1,50.4,188.1,50.3C188.1,50.4,188.1,50.4,188.1,50.3C188.1,50.4,188.1,50.3,188.1,50.3z"
			/>
		
			<ellipse transform="matrix(-0.9969 -7.859001e-02 7.859001e-02 -0.9969 377.3615 105.8712)" fill="#382F2B" cx="190.8" cy="45.5" rx="0.8" ry="0.7"/>
		
			<ellipse transform="matrix(0.6006 0.7995 -0.7995 0.6006 119.9353 -133.0795)" fill="#382F2B" cx="193.2" cy="53.5" rx="0.6" ry="0.3"/>
		
			<ellipse transform="matrix(0.6007 0.7995 -0.7995 0.6007 118.2947 -134.1286)" fill="#382F2B" cx="193.4" cy="51.4" rx="0.7" ry="0.4"/>
		
			<ellipse transform="matrix(0.4243 -0.9055 0.9055 0.4243 67.4223 207.4388)" fill="#382F2B" cx="196.9" cy="50.7" rx="0.6" ry="0.3"/>
		
			<ellipse transform="matrix(0.4243 -0.9055 0.9055 0.4243 69.4958 208.695)" fill="#382F2B" cx="198.9" cy="49.7" rx="0.4" ry="0.2"/>
		
			<ellipse transform="matrix(0.6006 0.7995 -0.7995 0.6006 115.8876 -131.0717)" fill="#382F2B" cx="189.1" cy="50.5" rx="0.4" ry="0.2"/>
		
			<ellipse transform="matrix(0.6006 0.7995 -0.7995 0.6006 114.0019 -132.0422)" fill="#382F2B" cx="189.2" cy="48.1" rx="0.6" ry="0.3"/>
		
			<ellipse transform="matrix(-0.9969 -7.859001e-02 7.859001e-02 -0.9969 384.8227 111.5437)" fill="#382F2B" cx="194.6" cy="48.2" rx="0.8" ry="0.7"/>
		
			<ellipse transform="matrix(-0.9969 -7.858168e-02 7.858168e-02 -0.9969 388.5266 108.2367)" fill="#382F2B" cx="196.4" cy="46.5" rx="0.7" ry="0.6"/>
		
			<ellipse transform="matrix(-0.9969 -7.858620e-02 7.858620e-02 -0.9969 380.669 102.4015)" fill="#382F2B" cx="192.3" cy="43.7" rx="0.7" ry="0.6"/>
		
			<ellipse transform="matrix(-0.9969 -7.859404e-02 7.859404e-02 -0.9969 383.8981 98.9583)" fill="#382F2B" cx="193.9" cy="41.9" rx="0.6" ry="0.5"/>
		
			<ellipse transform="matrix(-0.9969 -7.859214e-02 7.859214e-02 -0.9969 392.2849 104.8373)" fill="#382F2B" cx="198.2" cy="44.7" rx="0.8" ry="0.6"/>
	</g>
	<path opacity="0.1" d="M188.3,46.4C188.2,46.4,188.2,46.3,188.3,46.4C188.2,46.3,188.2,46.3,188.3,46.4c-0.1-0.1-0.1-0.1-0.2-0.1
		c0,0,0,0,0,0c0,0,0,0,0-0.1c0,0,0,0,0,0c0,0,0,0,0-0.1c0,0,0,0,0,0c0,0,0,0,0-0.1c0,0,0,0,0,0c0,0,0,0,0-0.1c0,0,0,0,0,0
		c0,0,0,0,0-0.1c0,0,0,0,0,0c0,0,0-0.1,0-0.1c0.1,1.5,0.1,3,0.2,4.6c0,0,0,0.1,0,0.1c0,0,0,0,0,0c0,0,0,0,0,0c0,0,0,0,0,0
		c0,0,0,0,0,0c0,0,0,0,0,0c0,0,0,0,0,0.1c0,0,0,0,0,0c0,0,0,0,0,0c0,0,0,0,0,0.1c0,0,0,0,0,0c0,0,0,0,0,0c0,0,0,0,0,0c0,0,0,0,0,0
		c0,0,0,0,0,0c0,0,0,0,0,0c0,0,0,0,0,0c0,0,0,0,0,0c0,0,0,0,0,0c0,0,0,0,0,0c0,0,0,0,0,0c0,0,0,0,0,0c0,0,0,0,0,0c0,0,0,0,0,0
		c0,0,0,0,0,0l5.5,4l0.5-4.2L188.3,46.4z"/>
	<g>
		<path fill="#B6B6B6" d="M182.8,52.2l-4-7.3c0,0,0-0.1,0-0.1c0,0,0-0.1,0-0.1c0,0,0-0.1,0-0.1c0,0,0-0.1,0-0.1
			c0,1.9,0.1,3.8,0.1,5.7c0,0,0,0.1,0,0.1c0,0,0,0.1,0,0.1c0,0,0,0.1,0,0.1s0,0.1,0,0.1l3.6,6.8L182.8,52.2z"/>
		<path fill="#FFFFFF" d="M178.8,45c-0.1-0.1-0.1-0.3-0.1-0.4c0-0.1,0-0.3,0.1-0.4c0.1-0.1,0.1-0.2,0.2-0.3c0.1-0.1,0.2-0.2,0.4-0.2
			l8-3c0.1-0.1,0.3-0.1,0.4-0.1c0.2,0,0.3,0,0.4,0.1c0.1,0,0.3,0.1,0.4,0.2c0.1,0.1,0.2,0.2,0.3,0.3l4.3,6.8
			c0.1,0.1,0.1,0.3,0.2,0.4c0,0.1,0,0.3,0,0.4c0,0.1-0.1,0.2-0.2,0.3c-0.1,0.1-0.2,0.2-0.4,0.2l-8.4,3.5c-0.2,0.1-0.3,0.1-0.5,0.1
			c-0.2,0-0.3,0-0.5-0.1c-0.2,0-0.3-0.1-0.4-0.2c-0.1-0.1-0.2-0.2-0.3-0.4L178.8,45z"/>
		<path fill="#C5C8C0" d="M192.1,54c0.5-1.8,0.9-3.6,1.4-5.3c0,0,0,0.1,0,0.1c0,0,0,0,0,0c0,0,0,0,0,0.1c0,0,0,0,0,0c0,0,0,0,0,0.1
			c0,0,0,0,0,0c0,0,0,0.1-0.1,0.1c0,0,0,0,0,0c0,0,0,0-0.1,0.1c0,0,0,0,0,0c0,0,0,0-0.1,0.1c0,0,0,0,0,0c0,0-0.1,0-0.1,0.1
			c0,0,0,0,0,0c0,0-0.1,0-0.1,0.1l-8.4,3.5c0,0-0.1,0-0.1,0c0,0,0,0,0,0c0,0-0.1,0-0.1,0l0,0c0,0-0.1,0-0.1,0c0,0,0,0,0,0
			c0,0-0.1,0-0.1,0c0,0,0,0,0,0c0,0-0.1,0-0.1,0c0,0,0,0,0,0c0,0-0.1,0-0.1,0c0,0,0,0,0,0c0,0-0.1,0-0.1,0c0,0,0,0,0,0
			c0,0-0.1,0-0.1,0c0,0,0,0,0,0c0,0-0.1,0-0.1,0c0,0,0,0,0,0c0,0-0.1,0-0.1,0c0,0,0,0,0,0c0,0-0.1,0-0.1,0c0,0,0,0,0,0
			c0,0-0.1,0-0.1-0.1c0,0,0,0,0,0c0,0,0,0-0.1-0.1c0,0,0,0,0,0c0,0,0,0-0.1-0.1c0,0,0,0,0,0c0,0,0,0-0.1-0.1c0,0,0,0,0,0
			c0,0,0-0.1-0.1-0.1l-0.3,5.1c0,0,0,0.1,0.1,0.1c0,0,0,0,0,0c0,0,0,0,0,0.1c0,0,0,0,0,0c0,0,0,0,0.1,0.1c0,0,0,0,0,0c0,0,0,0,0,0
			c0,0,0,0,0.1,0.1c0,0,0,0,0,0c0,0,0,0,0,0c0,0,0.1,0,0.1,0.1c0,0,0,0,0,0c0,0,0,0,0,0c0,0,0,0,0,0c0,0,0,0,0,0c0,0,0.1,0,0.1,0
			c0,0,0,0,0,0c0,0,0.1,0,0.1,0c0,0,0,0,0,0c0,0,0,0,0,0c0,0,0,0,0,0c0,0,0,0,0.1,0c0,0,0,0,0,0c0,0,0.1,0,0.1,0c0,0,0,0,0,0
			c0,0,0.1,0,0.1,0c0,0,0,0,0,0c0,0,0,0,0,0c0,0,0,0,0.1,0c0,0,0,0,0,0c0,0,0,0,0,0c0,0,0,0,0,0c0,0,0,0,0,0c0,0,0,0,0.1,0
			c0,0,0,0,0,0c0,0,0,0,0,0c0,0,0,0,0,0c0,0,0,0,0.1,0c0,0,0,0,0,0l0,0c0,0,0,0,0.1,0c0,0,0,0,0,0c0,0,0,0,0,0c0,0,0,0,0,0
			c0,0,0,0,0.1,0c0,0,0,0,0,0c0,0,0,0,0,0s0,0,0,0c0,0,0,0,0,0l7.5-3.3c0,0,0,0,0.1,0c0,0,0,0,0,0c0,0,0,0,0,0c0,0,0,0,0,0
			c0,0,0,0,0,0c0,0,0,0,0,0c0,0,0,0,0,0c0,0,0,0,0,0c0,0,0,0,0,0c0,0,0,0,0.1,0c0,0,0,0,0,0c0,0,0,0,0,0c0,0,0,0,0,0c0,0,0,0,0,0
			c0,0,0,0,0,0c0,0,0,0,0.1-0.1l0,0c0,0,0,0,0,0c0,0,0,0,0-0.1c0,0,0,0,0,0c0,0,0,0,0,0c0,0,0,0,0,0c0,0,0,0,0,0
			C192,54.1,192,54.1,192.1,54C192.1,54.1,192.1,54,192.1,54z"/>
		<ellipse transform="matrix(0.9908 0.1353 -0.1353 0.9908 8.2113 -25.2576)" fill="#382F2B" cx="190" cy="47.8" rx="1" ry="0.8"/>
		
			<ellipse transform="matrix(-0.757 0.6535 -0.6535 -0.757 362.3202 -21.6282)" fill="#382F2B" cx="185.2" cy="56.6" rx="0.6" ry="0.3"/>
		
			<ellipse transform="matrix(-0.222 -0.975 0.975 -0.222 170.5339 239.0979)" fill="#382F2B" cx="180.7" cy="51.5" rx="0.8" ry="0.4"/>
		
			<ellipse transform="matrix(-0.757 0.6535 -0.6535 -0.757 366.2146 -28.8962)" fill="#382F2B" cx="188.5" cy="53.7" rx="0.7" ry="0.4"/>
		
			<ellipse transform="matrix(-0.757 0.6535 -0.6535 -0.757 370.1599 -36.1204)" fill="#382F2B" cx="191.8" cy="50.8" rx="0.7" ry="0.4"/>
		
			<ellipse transform="matrix(0.9908 0.1353 -0.1353 0.9908 8.4399 -24.5527)" fill="#382F2B" cx="184.9" cy="49.8" rx="1" ry="0.8"/>
		<ellipse transform="matrix(0.9908 0.1353 -0.1353 0.9908 7.9542 -24.749)" fill="#382F2B" cx="186.1" cy="46.2" rx="1" ry="0.8"/>
		
			<ellipse transform="matrix(0.9908 0.1352 -0.1352 0.9908 7.488 -24.9478)" fill="#382F2B" cx="187.4" cy="42.6" rx="0.7" ry="0.6"/>
		
			<ellipse transform="matrix(0.9908 0.1353 -0.1353 0.9908 7.7274 -24.147)" fill="#382F2B" cx="181.6" cy="44.8" rx="0.9" ry="0.7"/>
	</g>
	<path fill="#382F2B" d="M194.2,39.9c0,0-2.3-16.1-3.2-17.2c-0.5-0.6-1.4-0.2-1.4,0.4c-0.1,0.1-0.2,0.2-0.2,0.4
		c-0.6,2.8-2.3,15.8-2.2,17.3c0,0.9,1.5,0.9,1.4,0c-0.1-1.4,1.9-15.6,1.9-15.6c0.2,0.8,2.7,15.7,2.7,15.7
		C193.8,41.5,194.8,40.5,194.2,39.9z"/>
	<g>
		<path fill="#382F2B" d="M273.9,58.9c13.9,3.2,17.4,18.1,16.2,27.9c-24.3,2.7-61.1-3.2-85.3-6.4c3-9.2,4.9-20.5,17.4-23.1
			C231.2,55.4,269,57.8,273.9,58.9z"/>
		<path fill="#B5A899" d="M271.9,61.8c12.8,2.8,16.1,15.6,15,24.1c-22.5,2.3-56.5-2.7-79-5.6c2.7-8,4.5-17.7,16.1-19.9
			C232.4,58.8,267.4,60.8,271.9,61.8z"/>
		<path fill="#382F2B" d="M326,70.3c-0.6-1.3-1.5-2.5-2.6-3.8c0,0,0-0.1,0-0.1c0-2.6-2.1-4.7-4.7-4.7c-0.4,0-0.8,0.1-1.2,0.2
			c-3.3-2-7.3-3.7-11.6-4.9c-5-1.4-10.3-2.2-15.4-2.2c-0.9,0-1.9,0-2.8,0.1c0-0.1,0.1-0.3,0.1-0.4c0-0.1,0.1-0.3,0.1-0.6
			c3.3-6.4,4.6-13.5,3.9-20.6c-0.4-4.1-1.5-8.1-3.3-11.8c-1.7-3.6-4-6.9-6.7-9.8c-3.5-3.7-7.6-6.5-12.2-8.6c-4.8-2.1-9.8-3.1-15-3.1
			c-1.3,0-2.6,0.1-3.9,0.2C243,1,235.9,4,230.1,9c-6.2,5.2-10.6,12.4-12.3,20.2c-1.2,1.2-1.8,3.1-1.7,5.5c0.1,1.1,0.3,2.3,0.8,3.2
			c0,1,0.1,2,0.2,3c0.3,2.8,0.9,5.5,1.8,8.1c-0.7,1.1-0.8,2.4-0.6,3.4c0.1,0.6,0.4,1.2,0.7,1.7c0.2,0.3,0.5,0.6,0.7,0.9c0,0,0,0,0,0
			c0.7,0.7,1.6,1.2,2.7,1.3c3.1,5,7.3,9.1,12.3,12.2c0.1,0.1,0.2,0.3,0.4,0.4c0.6,5.7,0.5,11.4-0.4,17c-0.1,0.6,0.1,1.3,0.5,1.8
			c0.4,0.5,1.1,0.8,1.7,0.8c0,0,0,0,0,0l0.1,0c13.3,0,26.4,1.9,40.1,5.7c0.2,0.1,0.4,0.1,0.6,0.1c0.5,0,0.9-0.1,1.3-0.4
			c0.6-0.4,0.9-1,0.9-1.7c0.8-10.9,0.3-18-0.7-25.3c0.9-0.1,1.8-0.1,2.7-0.1c6,0,13.8,1.8,18.4,9.9c-0.2,0.4-0.5,0.8-0.7,1.4
			c-0.8,2.3-0.8,5,0.1,8.1c0.1,0.3,0.3,0.6,0.5,0.9c1.6,1.7,4.1,3,7.7,3.8c2.9,0.7,5.9,1,8.3,1.3l0.6,0.1c2.9,0.3,5.4,0.4,6.3,0.4
			c0.3,0,0.5,0,0.5,0c0.7,0,1.3-0.3,1.8-0.9c0.2-0.2,1.8-2.5,2.7-6.3C329.1,82,329.4,76.5,326,70.3z"/>
		<g>
			<path fill="#E2E1D5" d="M275.5,59.6c19.4-7.1,44,2.1,48.5,11.8c6,10.8-0.2,19.1-0.2,19.1s-2.8,0.1-6.5-0.3
				c-4.7-0.5-12.3-1.2-15.2-4.4c-1.9-6.4,1.1-8.6,1.1-8.6c-7.6-15.9-26.8-13.8-37.3-8.6L275.5,59.6z"/>
			<path opacity="0.1" fill="#382F2B" d="M276.8,65.6c-0.4-0.6-0.3-1.4,0-2.1c0.3-0.7,0.8-1.2,1.3-1.7c1.3-1.4,2.8-3.4,4.4-4.4
				c1.6-1,3.3-0.8,5.1-0.3c-2,1.2-3.6,3-4.2,4.9c8.2,2.2,15.4,7.7,19.6,15c-3.9-3.9-8-7.9-13.1-10.1
				C285.8,65.1,281.2,64.7,276.8,65.6z"/>
			<path fill="#E2E1D5" d="M237,65.7c1,6.8,1,13.8,0,20.6c14.1,0,27.3,2,40.8,5.8c0.9-13.2,0.1-20.8-1.5-30.2
				C276.2,62.8,249.7,60.8,237,65.7z"/>
			<path fill="#382F2B" d="M286.6,55.7c-1.1,2.2-4.5,5.6-11.4,9.3c2.9-3.3,6.1-6.6,9-9.9C285.1,55.3,285.8,55.5,286.6,55.7z"/>
			<g>
				<g>
					<path fill="#E2E1D5" d="M222.6,49.3c-1.9,0.3-2.7,2.2-1.7,3.7c1.4,2.2,3.7,0.9,4,0.2C225.4,51.8,224.5,49.7,222.6,49.3z"/>
					<path opacity="0.5" fill="#FFFFFF" d="M224.5,50.5c0,0-0.6-1-1.8-1.2c-2.5,0.6-2.1,2.5-2.1,2.7
						C222.8,52.6,224.5,50.5,224.5,50.5z"/>
					<path opacity="0.1" fill="#382F2B" d="M225,52c0,0-0.3,0.7-1,1.2c-0.7,0.5-1.9,0.7-2.6,0.4c0.5,0.5,1,0.6,1.5,0.7
						c0.9,0.1,1.7-0.5,1.9-0.8C225.1,53,225,52,225,52z"/>
					<path fill="#B5A899" d="M219.6,40.6c2,19.1,19.3,32.9,38.5,31c19.3-2,33.3-19.1,31.2-38.1c-2-19.1-19.3-32.9-38.5-31
						C231.6,4.4,217.6,21.5,219.6,40.6z"/>
					<path opacity="0.2" fill="#3A332C" d="M236.3,7.3c-6.4,5.7-13.2,15.9-12.3,25c0.4,3.4,0.1,4.6,1.5,7.5
						c-0.3,1.9-1.7,26.7,28.7,25.7c1.6-0.2,22.7-6,17.8-22.5c13.5-11.1,7.5-29.4,3.7-33.6c7.5,5.6,12.8,14.1,13.8,24.1
						c2,19.1-12,36.2-31.4,38.1c-19.4,2-36.7-11.9-38.7-30.9C217.9,26.9,224.9,14.1,236.3,7.3z"/>
				</g>
				<path opacity="0.1" fill="#FFFFFF" d="M241.2,8.3c-0.4,3.5,6.5,7.2,15.4,8.2c8.9,1,16.5-1,16.9-4.6c0.4-3.5-6.5-7.2-15.4-8.2
					C249.2,2.7,241.6,4.8,241.2,8.3z"/>
				<g>
					<g>
						<path fill="#382F2B" d="M237.1,43.5c12.8,1.5,22.5,1.2,25.7,0.5c4.2-4.4,10.7,1.3,4.4,4.1c-1.8,9.4,0.8,13.7,0.8,13.7
							s-8.7,4.4-12.8,10.7c-5.8-5.2-15.7-6.1-17.5-6.3c-1-11-3-16.1-3.8-18.4C229.4,48.1,229.4,39.7,237.1,43.5z"/>
						<path fill="#E2E1D5" d="M237.5,45.5c10.9,1.5,20.5,0.3,20.5,0.3s1.7-2.5,4.3-2c3.7,0.3,6.3,5.4,2.4,10.1c-0.5,3.8,0,7.3,0,7.3
							l-9.6,6.6c0,0-14.2-4.6-14.4-4.7c-0.1,0-2.9-5.6-4.7-16.6C235.7,45.5,237.1,45.5,237.5,45.5z"/>
						<path opacity="0.1" fill="#382F2B" d="M240.1,50.8c0.2,1.6,0.3,1.9,0.4,2.3c-2.3,3.6-1.7,5.7-1.7,5.7l3.4-5.2
							C242.3,53.7,240.3,49.7,240.1,50.8z"/>
						<path fill="#382F2B" d="M261.5,46.1c0.4,1,0,1.2,0,1.2s-8.6,4.7-20,2.7c-0.7-0.2-2.2,0-1,1.5c0.4,0.5,0.9,1.1,1.4,2
							c-3.9,2.9-3.5,7.4-2.3,9.5c0.8,1.4,2.4,1.1,2.4,1.1l20.1-16.3c0,0,0.4,0.3,1,1.1C263.2,48,263.4,46.7,261.5,46.1z"/>
						<polygon fill="#382F2B" points="250.9,66.6 253.2,65.4 252.6,67.4 251.4,68.2 						"/>
						<path fill="#E2E1D5" d="M241.4,51c0,0,1.2,1.2,1.5,2.7c-5.5,4.5-2.3,10.9,2.2,12.5c6.6,2.2,8.9-1.7,8.9-1.7s8.7-12.1,8.1-16.8
							C252.3,53.4,241.4,51,241.4,51z"/>
						<path fill="#382F2B" d="M264.7,53.9c0,0-0.9,1-1.9,1.3c2,0,3.4-1.2,3.4-1.2L264.7,53.9z"/>
						<path opacity="0.5" fill="#FFFFFF" d="M258,45.8c1.8-1.6,3.5-1.8,5.7-1c1.8,0.7,2.5,2,2.5,2s-0.3-1.4-1.7-2.3
							C262.9,43.6,259.9,43,258,45.8z"/>
						<polygon opacity="0.1" fill="#382F2B" points="262.9,55.3 264.5,60 264.5,54.5 						"/>
						<path opacity="0.2" fill="#3A332C" d="M230.9,44.9c-0.7,2.9,1.7,4.3,2.9,4.5c2.9,10.9,2.7,17.8,2.7,17.8s9.1,0.7,16.5,3.6
							c-1.9-2.7-14.3-6.5-14.3-6.5l-3.9-18.1C234.9,46.2,231.6,42.7,230.9,44.9z"/>
						<path opacity="0.1" fill="#382F2B" d="M242.9,53.7c-3,4.5-0.6,8.2,1.9,10.2c3,2.4,6.4,2.6,6.4,2.6s-4.2,1.8-8.2-1.5
							C239.1,61.6,238.9,56.8,242.9,53.7z"/>
					</g>
					<g>
						<path opacity="0.2" fill="#3A332C" d="M223,32.8c0,0,0.8,2.9,3.5,4.7c-1.1,2.1,0.1,4.4,1.3,4.9c1.1,0.5,2.2,0.2,2.2,0.2
							s-2-3.7,0.3-3.9c9.5,4.6,16.7-3.8,16.7-3.8l7.8-0.3c0,0,2.7,6,8.1,7.3c4.2,1.1,9.4,1.4,10,1.4c3.5-0.2,2,2.6,2,2.6
							s-2.5-2.1-2.4-1.7c0.1,0.2-1.6,2.5,2.3,3.3c1.1,0.3,3.8-0.3,2.2-4.1c4.6-2.2,5.7-5.4,5.7-5.4l-8.4-11.5l2.9-0.5l-3.6-2.1
							l-3.1-4l-2.7,1.3l3.2,1.4l-0.1-1.6l1.1,3l-2.3,2.7l-4,0.7c0,0-10.2,3.7-10.5,2.5c1.5-4.6,5.6-11.2,5.6-11.2s-0.4,1.4-0.5,2.9
							c-0.1,1.6,0.3,3,1,3.7c1,1.1,3.1,0.6,3.6-1.2c0.2,0.3-0.7,1-1.6,0.8c-2.9-0.7-1.7-6.3-1.7-6.3l1.7-3.4c0,0,0.9-0.9,1.8-0.1
							c1.2,0.7-1.5,0.9-1.5,0.9s-0.1,1.1,0.7,1.2c0.7,0.1,1.8-0.4,2.2-1.8c0-1.4-5.6-4.6-6.5-4.1c-3.1,2.1-0.5,3.9-0.5,3.9
							s-2.5,8.2-2.9,8.4c-0.4,0.2-4,4.6-4,4.6l-2-10.2l0.8-3.8c0,0,0.4-0.1,0.8-0.4c0.5-0.3,1-1,0.9-2c-0.1-0.9-5.9-0.4-5.9-0.4
							s-2-0.3-2.7,0.7c-1,0.8-0.8,3.9,2.1,2.6c0.1-0.1-0.7-1.6-0.6-1.6c0.5-0.1,1.2-0.3,1.5,0.4c1.2,1.7-0.1,7.9-0.4,9
							c-0.3,1.1-1.4,1.6-1.4,1.6l-0.6-1.6l-1.3-0.6c0,0-0.9,1.2-0.2,2.3c0.7,1.1,2.2,1.9,3.6,0.5c1-1,1.7-3.3,2-7.1
							c1.6,7.2,0.9,11.4,0.9,11.4l-1.8-0.4l-10.7-6.4l-1.2-2.2c0,0,0-1,0.9-1.5c-0.3,2.6,2.9,2.9,3.3,0.5c0.2-3.2-2.8-3.1-2.8-3.1
							l-3.1,4.7l-3.6-0.6c0,0-1.6,0.7-1,1.9c1.2,1.7,3.2,0.4,2.6-0.9c1.3,0.7,0.1,4,0.1,4L223,32.8z"/>
						<path fill="#382F2B" d="M259.7,14.8c-0.5,2.2-1.6,4.7-6.5,11.4c-2.4-8.4-1.8-11.9-1.7-12.4c1.9-0.5,2.5-3.7-0.4-4.1
							c-0.5,0-2.7-0.1-5.7,1.7c-2.2,1.4-1.1,3.9,0.8,3.6c1.7-0.6,0.7-2.3-0.1-1.9c1.3-1,2.7,0.4,2,5c-0.5,3.1-0.7,4.4-1.2,5.1
							c-0.3,0.4-1,1-1.5,0.2c0.8-0.1,0.9-1.2,0.3-1.7c-0.5-0.4-1.5-0.4-2.1,0.4c-0.4,0.4-0.5,2.9,2.2,3.2c3.5-0.3,3.2-7,3.4-8.8
							c2.1,9.8,0.8,12.5,0.8,12.5s-2-0.6-3.9-2.3c-2.2-2-4.7-4.8-8.5-5.3c-1.1-0.2-1.6-1.5-1.2-2.5c0.5-1.2,2-1,1.9-0.5
							c-0.8,0-1.3,1.1-0.1,1.9c1.4,0.7,3.1-1,2.1-3.3c-1.3-2.4-7.3-2.6-6.5,2.7c-2.3-1.6-4.2-0.1-4.2,1.5c0.1,1.8,1.9,1.8,2.4,1
							c0.6-0.8-0.5-1.6-1-0.9c0-1.4,3.2-0.1,0.8,1.9c-1.1,0.6-7.1,3.2-8.9,9.5c2,3.2,4.6,4.5,4.6,4.5c-1.9,2.1-0.2,5.6,3,5.2
							c0.9-0.2,1.5-0.9,1.5-1.7c0-1.1-0.6-1.5-1.1-1.6c-0.8-0.2-1.5,0.5-1.1,0.9c0.5,0.6-0.5,0.5-0.8,0.1c-0.7-1.2,0.8-2,1.1-1.9
							c2,0.9,9.5,3.8,17.6-5.1c-0.3,1.3-2,2.9-2,2.9s3.9-0.4,9,2.1c-0.6-1.8,0.2-5.2,0.2-5.2s3.1,11.2,18.7,9.9
							c0.9-0.1,2,0.8,1.5,1.8c-0.3,0.5-0.8,0.5-1.1,0c0.8-1.5-1-1.6-1.4-0.9c-0.7,1.4,0.4,3.4,2.9,3.1c1.9-0.4,2.3-1.8,2-2.9
							c-0.2-0.9-1-1.6-1-1.6s4.2-1.7,6.1-4.5c-2.7-9.1-8.8-11.7-8.8-11.7c-0.5-0.9,0.7-2.1,1.6-1.3c-1.3-0.6-1.3,2,0.6,1.7
							c2.6-0.6,0.8-4.9-2.1-3.4c-0.1-3.7-2.6-5.1-4.3-4.7c-2.2,0.6-2.7,2.3-2.1,3.6c0.8,1.5,2.4,0.8,2.7,0.2
							c0.6-1.3-0.9-1.7-0.9-1.7s1.5-0.6,1.9,1.3c0.2,2.4-2.9,2.5-2.9,2.5s-8.5,0.5-13.5,4.6c0.3-1.6,3.8-7.9,6.4-11.9
							c-1.1,3.6-1.1,6.3-0.1,7.5c2,1.9,4.7-0.8,3.2-2c-1.2-0.7-2.1,0.3-1.2,0.9c0,0-0.7,0.7-1.1-0.5c-0.7-2.4,0.6-6.8,0.9-7.6
							c0.5-1.6,2.1-0.8,2-0.4c-0.4-0.6-2-0.4-1.5,1c0.7,1.3,2.2,0.6,2.7-0.3c0.4-0.8,0.8-2.4-1.4-3.3c-0.7-0.3-3.7-1.4-4.6-1.3
							C257.9,12.2,258.9,14.3,259.7,14.8z"/>
						<g>
							<g>
								<g>
									<path fill="#B5A899" d="M282.1,38.2L282.1,38.2c0-0.1,0.1-0.2,0.1-0.3c0-0.1-0.1-0.2-0.1-0.3l0.1,0c0,0.1,0.1,0.2,0.1,0.4
										l0,0l0,0C282.3,38,282.2,38.1,282.1,38.2z"/>
								</g>
								<g>
									<path fill="#B5A899" d="M281.9,36.8c-0.1-0.2-0.2-0.5-0.3-0.7l0.1,0C281.8,36.3,281.9,36.6,281.9,36.8L281.9,36.8z
										 M281.4,35.4c-0.1-0.2-0.2-0.5-0.3-0.7l0.1,0C281.3,34.9,281.4,35.2,281.4,35.4L281.4,35.4z M280.7,34.1
										c-0.1-0.2-0.2-0.4-0.4-0.7l0.1,0C280.6,33.6,280.7,33.8,280.7,34.1L280.7,34.1z M280,32.8c-0.1-0.2-0.3-0.4-0.4-0.6l0.1,0
										C279.8,32.3,280,32.5,280,32.8L280,32.8z M279.2,31.5c-0.1-0.2-0.3-0.4-0.4-0.6l0.1-0.1C279,31.1,279.1,31.3,279.2,31.5
										L279.2,31.5z M278.3,30.3c-0.2-0.2-0.3-0.4-0.5-0.6l0.1-0.1C278,29.9,278.2,30.1,278.3,30.3L278.3,30.3z M264.7,25.6
										L264.7,25.6c0.2-0.1,0.5-0.2,0.7-0.2l0,0.1C265.2,25.5,265,25.6,264.7,25.6z M277.2,29.2c0,0-0.1-0.1-0.1-0.1
										c-0.1-0.1-0.3-0.3-0.4-0.4l0.1-0.1c0.1,0.1,0.3,0.3,0.4,0.4C277.2,29.1,277.3,29.1,277.2,29.2L277.2,29.2z M266.2,25.3
										L266.2,25.3c0.2-0.1,0.5-0.2,0.7-0.2l0,0.1C266.7,25.3,266.5,25.3,266.2,25.3z M276.1,28.2c-0.2-0.2-0.4-0.3-0.6-0.5
										l0.1-0.1C275.8,27.8,276,28,276.1,28.2L276.1,28.2z M267.7,25.1L267.7,25.1c0.3-0.1,0.6-0.1,0.7-0.2l0,0.1
										C268.3,25.1,268.1,25.1,267.7,25.1z M274.9,27.3c-0.2-0.1-0.4-0.3-0.6-0.4l0-0.1C274.5,27,274.7,27.1,274.9,27.3
										L274.9,27.3z M273.6,26.5c-0.1-0.2-0.2-0.5-0.2-0.7l0.1,0C273.5,26.1,273.6,26.3,273.6,26.5L273.6,26.5z M269.2,25
										L269.2,25c0.2-0.1,0.5-0.2,0.7-0.3l0,0.1C269.7,24.9,269.5,24.9,269.2,25z M275.6,26.3c-0.4-0.1-0.5-0.4-0.5-0.5l0.1,0
										C275.2,25.9,275.3,26.1,275.6,26.3L275.6,26.3L275.6,26.3L275.6,26.3C275.6,26.3,275.6,26.3,275.6,26.3L275.6,26.3z
										 M270.7,24.5L270.7,24.5c0.2-0.2,0.4-0.4,0.5-0.5l0.1,0.1C271.1,24.2,270.9,24.3,270.7,24.5z M276.4,26.3L276.4,26.3
										c0.2-0.2,0.4-0.4,0.5-0.6l0.1,0C276.9,25.9,276.7,26.1,276.4,26.3z M273.7,25.1L273.7,25.1c0-0.1,0-0.2,0.1-0.3
										c0.1-0.1,0.2-0.2,0.4-0.3l0,0.1c-0.1,0.1-0.2,0.2-0.3,0.3C273.8,25,273.7,25,273.7,25.1z M275.5,25.5L275.5,25.5
										c0.2-0.1,0.3-0.1,0.4-0.3c0,0,0-0.1,0-0.1c0,0,0-0.1,0-0.1l0.1,0c0,0,0,0.1,0,0.1c0,0,0,0.1-0.1,0.1
										C275.9,25.4,275.7,25.5,275.5,25.5z M268.7,22.7c-0.2-0.1-0.4-0.3-0.6-0.5l0.1,0C268.4,22.4,268.5,22.5,268.7,22.7
										L268.7,22.7z M269.5,22.7L269.5,22.7c0.3-0.2,0.5-0.4,0.5-0.5l0,0l0.1,0l0,0C270,22.4,269.8,22.6,269.5,22.7z M271.7,23.4
										L271.7,23.4c0-0.1,0-0.2,0.1-0.4c0-0.1,0.1-0.3,0.1-0.4l0.1,0c0,0.1-0.1,0.3-0.1,0.4C271.8,23.2,271.8,23.3,271.7,23.4z
										 M274.9,24.3L274.9,24.3c0.3-0.1,0.5,0,0.7,0.1l0,0.1C275.3,24.4,275.1,24.3,274.9,24.3z M277,25c0-0.2-0.1-0.5-0.3-0.7
										l0.1,0C276.9,24.5,277,24.7,277,25L277,25z M274,23.8L274,23.8c0.1-0.1,0.2-0.1,0.2-0.1c0.2-0.1,0.3-0.1,0.5-0.2l0,0.1
										c-0.2,0-0.3,0.1-0.5,0.2C274.2,23.8,274.1,23.8,274,23.8z M267.9,21.5c0-0.3,0-0.5,0-0.8l0.1,0C268,21,268,21.2,267.9,21.5
										L267.9,21.5z M273.6,23.2c0-0.3,0-0.5-0.1-0.7l0.1,0C273.7,22.7,273.7,22.9,273.6,23.2L273.6,23.2z M276.2,23.8
										c-0.2-0.1-0.4-0.2-0.7-0.3l0-0.1C275.8,23.4,276,23.5,276.2,23.8L276.2,23.8z M270,21.5c-0.2-0.2-0.5-0.3-0.6-0.4
										c0,0,0,0,0,0l0,0l0-0.1l0,0c0,0,0,0,0,0C269.6,21.1,269.9,21.2,270,21.5L270,21.5z M271.9,21.9c-0.1-0.3-0.1-0.5-0.2-0.7
										l0.1,0C271.8,21.4,271.9,21.6,271.9,21.9L271.9,21.9z M269.2,20.5L269.2,20.5c0-0.1,0.1-0.2,0.2-0.3c0,0,0.2-0.1,0.4-0.1
										l0,0.1c-0.2,0-0.4,0.1-0.4,0.1C269.3,20.4,269.2,20.5,269.2,20.5z M273.4,21.7c-0.1-0.2-0.1-0.5-0.2-0.7l0.1,0
										C273.3,21.2,273.4,21.5,273.4,21.7L273.4,21.7z M268.4,20.1L268.4,20.1c0.1-0.2,0.3-0.4,0.5-0.6l0,0.1
										C268.7,19.7,268.5,19.9,268.4,20.1z M271.2,20.6c-0.2-0.1-0.4-0.3-0.6-0.3c0,0-0.1,0-0.1,0l0-0.1
										C270.8,20.3,271.1,20.4,271.2,20.6L271.2,20.6z M272.8,20.4c-0.1-0.2-0.3-0.4-0.5-0.6l0.1-0.1
										C272.5,19.9,272.7,20.1,272.8,20.4L272.8,20.4z M269.6,19.2L269.6,19.2c0.1-0.1,0.2-0.2,0.3-0.2c0.1,0,0.2-0.1,0.4-0.1
										l0,0.1c-0.1,0-0.2,0-0.4,0.1C269.8,19.1,269.7,19.2,269.6,19.2z M271.7,19.4c-0.2-0.1-0.5-0.2-0.7-0.3l0-0.1
										C271.3,19.1,271.5,19.2,271.7,19.4L271.7,19.4z"/>
								</g>
								<g>
									<path fill="#B5A899" d="M263.3,25.9L263.3,25.9l0.1-0.1c0.1,0,0.1-0.1,0.2-0.1l0,0l0,0c0.1,0,0.1,0,0.2,0l0.1,0l0,0.1
										l-0.1,0c-0.1,0-0.2,0-0.2,0c-0.1,0.1-0.1,0.1-0.2,0.1L263.3,25.9z"/>
								</g>
								<g>
									<path fill="#B5A899" d="M255.2,29.7L255.2,29.7c0.1-0.1,0.2-0.1,0.2-0.2c0.1-0.1,0.2-0.2,0.4-0.3l0.1,0.1
										c-0.1,0.1-0.2,0.2-0.4,0.3C255.4,29.6,255.3,29.6,255.2,29.7z M254.7,29.1C254.7,29.1,254.7,29.1,254.7,29.1
										c0-0.2,0.1-0.3,0.1-0.5c0-0.1,0-0.1,0.1-0.2l0.1,0c0,0.1-0.1,0.1-0.1,0.2C254.8,28.8,254.8,29,254.7,29.1
										C254.8,29.1,254.8,29.1,254.7,29.1L254.7,29.1z M256.4,28.8L256.4,28.8c0.1-0.2,0.4-0.3,0.6-0.5l0,0.1
										C256.8,28.5,256.6,28.7,256.4,28.8z M255.2,27.8L255.2,27.8c0-0.2,0.1-0.5,0.2-0.7l0.1,0C255.4,27.3,255.3,27.6,255.2,27.8
										z M257.7,28L257.7,28c0.2-0.2,0.4-0.3,0.6-0.4l0,0.1C258.1,27.8,257.9,27.9,257.7,28z M255.9,26.4L255.9,26.4
										c0-0.3,0.1-0.5,0.3-0.7l0.1,0C256.1,26,256,26.2,255.9,26.4z M259,27.4L259,27.4c0.2-0.2,0.4-0.3,0.6-0.4l0,0.1
										C259.5,27.2,259.3,27.3,259,27.4z M260.4,26.8L260.4,26.8c0.2-0.2,0.4-0.2,0.7-0.3l0,0.1C260.9,26.6,260.6,26.7,260.4,26.8
										z M256.5,25.1L256.5,25.1c0-0.3,0.1-0.5,0.3-0.7l0.1,0C256.8,24.7,256.6,24.9,256.5,25.1z M261.8,26.3L261.8,26.3
										c0.2-0.2,0.4-0.2,0.7-0.3l0,0.1C262.3,26.2,262.1,26.3,261.8,26.3z M257.2,23.8L257.2,23.8c0-0.3,0.2-0.5,0.3-0.7l0.1,0
										C257.5,23.4,257.3,23.6,257.2,23.8z M262.3,24.9c-0.2-0.1-0.4-0.2-0.5-0.4c0,0,0-0.1-0.1-0.1l0.1-0.1c0,0,0,0,0.1,0.1
										C262,24.6,262.2,24.7,262.3,24.9L262.3,24.9z M261.4,23.8c-0.1-0.2-0.1-0.5-0.2-0.7l0.1,0
										C261.3,23.3,261.4,23.5,261.4,23.8L261.4,23.8z M257.9,22.5L257.9,22.5c0-0.3,0.2-0.5,0.3-0.7l0.1,0
										C258.2,22.1,258.1,22.3,257.9,22.5z M261.2,22.3c0-0.2,0-0.5,0-0.7l0.1,0C261.2,21.8,261.2,22.1,261.2,22.3L261.2,22.3z
										 M258.7,21.2L258.7,21.2c0-0.3,0.2-0.5,0.3-0.7l0.1,0C258.9,20.8,258.8,21,258.7,21.2z M261.2,20.8c0-0.2,0.1-0.5,0.1-0.7
										l0.1,0C261.4,20.3,261.4,20.6,261.2,20.8L261.2,20.8z M259.4,19.9L259.4,19.9c0.1-0.3,0.2-0.5,0.3-0.7l0.1,0
										C259.7,19.5,259.6,19.7,259.4,19.9z M261.5,19.4c0-0.2,0.1-0.5,0.2-0.7l0.1,0C261.7,18.9,261.6,19.1,261.5,19.4L261.5,19.4
										z M260.2,18.7L260.2,18.7c0.1-0.3,0.2-0.5,0.3-0.7l0.1,0C260.5,18.3,260.4,18.5,260.2,18.7z M261.8,17.9
										c0-0.2,0.1-0.3,0.1-0.5c0-0.1,0-0.1,0-0.2l0.1,0c0,0.1,0,0.2,0,0.2C262,17.6,262,17.8,261.8,17.9L261.8,17.9z M261,17.4
										L261,17.4c0-0.2,0.1-0.3,0.2-0.4c0.1-0.1,0.2-0.2,0.3-0.2l0,0.1c-0.1,0-0.2,0.1-0.2,0.2C261.2,17.2,261.1,17.3,261,17.4z"
										/>
								</g>
								<g>
									<path fill="#B5A899" d="M263,25.1L263,25.1c0.1-0.1,0.1-0.1,0.2-0.1c0.1,0,0.1,0,0.2,0c0,0,0.1-0.1,0.2-0.1
										c0.1,0,0.1,0,0.2-0.1l0,0.1c-0.1,0-0.1,0-0.2,0.1c-0.1,0-0.1,0.1-0.2,0.1l0,0l0,0c-0.1,0-0.1,0-0.2,0
										C263.2,25.1,263.1,25.1,263,25.1z"/>
								</g>
								<g>
									<path fill="#B5A899" d="M223.9,31.6L223.9,31.6c0-0.3,0.1-0.5,0.2-0.7l0.1,0C224.1,31.2,224,31.4,223.9,31.6z M224.6,30.3
										L224.6,30.3c0-0.3,0.2-0.5,0.3-0.7l0.1,0C224.9,29.8,224.7,30.1,224.6,30.3z M225.4,29L225.4,29c0.1-0.3,0.2-0.5,0.4-0.6
										l0.1,0.1C225.7,28.6,225.6,28.8,225.4,29z M226.4,27.9L226.4,27.9c0.1-0.2,0.3-0.4,0.5-0.6l0.1,0.1
										C226.7,27.5,226.5,27.7,226.4,27.9z M227.5,26.8L227.5,26.8l0-0.1c0.2-0.1,0.3-0.3,0.5-0.4l0.1,0.1
										C227.9,26.5,227.7,26.6,227.5,26.8L227.5,26.8z M228.6,25.9L228.6,25.9c0.1-0.2,0.4-0.4,0.6-0.5l0.1,0.1
										C229,25.6,228.8,25.7,228.6,25.9z M229.9,25L229.9,25c0.2-0.2,0.4-0.3,0.6-0.5l0,0.1C230.3,24.7,230.1,24.9,229.9,25z
										 M231.2,24.3L231.2,24.3c0.2-0.2,0.3-0.3,0.5-0.4l0.1-0.1l0,0.1l-0.1,0.1C231.6,24.1,231.4,24.1,231.2,24.3z M250,29.4
										L250,29.4l0-0.1L250,29.4C250,29.3,250.1,29.3,250,29.4c0.3,0,0.5-0.1,0.6-0.3l0.1,0l0,0C250.5,29.4,250.3,29.5,250,29.4
										C250,29.4,250,29.4,250,29.4z M249.2,29.1c-0.2-0.1-0.5-0.2-0.7-0.3l0-0.1C248.8,28.8,249,28.9,249.2,29.1L249.2,29.1z
										 M232.5,23.5L232.5,23.5c0.1-0.3,0.3-0.4,0.4-0.6l0.1,0C232.8,23.1,232.7,23.3,232.5,23.5z M247.8,28.4
										c-0.2-0.1-0.4-0.3-0.6-0.4l0.1-0.1C247.4,28,247.7,28.2,247.8,28.4L247.8,28.4z M246.6,27.5c-0.2-0.2-0.4-0.3-0.6-0.5
										l0.1-0.1C246.2,27.1,246.4,27.3,246.6,27.5L246.6,27.5z M230.6,22.2c-0.2-0.1-0.3-0.4-0.4-0.7l0.1,0
										C230.3,21.8,230.4,22,230.6,22.2L230.6,22.2z M231.3,22.3L231.3,22.3c0.2-0.1,0.3-0.2,0.4-0.3c0,0,0,0,0,0
										c0,0,0-0.1,0.1-0.1c0,0,0,0,0,0l0.1,0c0,0,0,0,0,0c0,0,0,0.1-0.1,0.1c0,0,0,0,0,0C231.7,22.2,231.5,22.3,231.3,22.3z
										 M250.7,28.4c0-0.2,0.1-0.5,0.1-0.7l0.1,0C250.9,27.9,250.9,28.2,250.7,28.4L250.7,28.4z M231,21.8c-0.1,0-0.2-0.1-0.3-0.2
										l0.1,0C230.8,21.7,230.9,21.7,231,21.8L231,21.8c0.2,0,0.3-0.1,0.4-0.2l0.1,0.1C231.3,21.9,231.2,21.9,231,21.8
										C231,21.9,231,21.8,231,21.8z M245.4,26.5l-0.2-0.2c-0.1-0.1-0.2-0.2-0.4-0.3l0.1-0.1c0.1,0.1,0.2,0.2,0.4,0.3L245.4,26.5
										L245.4,26.5z M233.2,22.2c0-0.2,0-0.4,0-0.6c0-0.1,0-0.1,0-0.2l0.1,0c0,0.1,0,0.1,0,0.2C233.3,21.8,233.3,22,233.2,22.2
										L233.2,22.2z M244.3,25.5c-0.2-0.2-0.4-0.4-0.6-0.5l0.1-0.1C244,25.1,244.2,25.2,244.3,25.5L244.3,25.5z M230.2,20.7
										C230.2,20.7,230.2,20.7,230.2,20.7c0.1-0.3,0.2-0.5,0.4-0.7l0.1,0.1c-0.1,0.2-0.3,0.4-0.3,0.6
										C230.3,20.7,230.3,20.7,230.2,20.7L230.2,20.7z M230.8,20.9L230.8,20.9c0-0.2,0.1-0.3,0.2-0.4c0.1-0.1,0.2-0.1,0.3-0.1
										l0,0.1c-0.1,0-0.2,0.1-0.3,0.1C231,20.7,230.9,20.8,230.8,20.9z M243.2,24.5c-0.2-0.2-0.4-0.3-0.6-0.5l0.1-0.1
										C242.8,24.1,243.1,24.3,243.2,24.5L243.2,24.5z M250.9,26.9c0-0.2,0-0.5,0-0.7l0.1,0C251,26.4,251,26.7,250.9,26.9
										L250.9,26.9z M232.7,20.8c-0.2-0.2-0.4-0.3-0.6-0.3c0,0,0,0,0,0l0-0.1c0,0,0,0,0,0C232.4,20.5,232.6,20.6,232.7,20.8
										L232.7,20.8z M245.6,24.8L245.6,24.8c0.1-0.1,0.3,0,0.4,0c0.1,0,0.2,0,0.3-0.1l0,0.1c-0.1,0-0.2,0.1-0.4,0.1
										C245.9,24.9,245.7,24.9,245.6,24.8z M244.9,24.5c-0.2-0.1-0.4-0.3-0.6-0.5l0.1,0C244.5,24.2,244.7,24.3,244.9,24.5
										L244.9,24.5z M242,23.6c-0.2-0.1-0.4-0.3-0.6-0.4l0-0.1C241.6,23.2,241.8,23.4,242,23.6L242,23.6z M237.4,21.8
										c-0.1,0-0.2-0.1-0.3-0.1l0-0.1c0.2,0.1,0.4,0.2,0.6,0.2c0,0,0.1,0,0.1,0l0,0.1c0,0-0.1,0-0.1,0l0,0
										C237.6,21.8,237.5,21.8,237.4,21.8z M240.7,22.8c-0.2-0.1-0.5-0.2-0.7-0.3l0-0.1C240.3,22.5,240.5,22.6,240.7,22.8
										L240.7,22.8z M231.2,19.7L231.2,19.7c0.2-0.2,0.4-0.2,0.7-0.2l0,0.1C231.7,19.5,231.5,19.6,231.2,19.7z M238.6,22L238.6,22
										c0.2,0,0.5,0,0.7,0.1l0.1,0l0,0.1l-0.1,0C239,22.1,238.8,22.1,238.6,22z M253.1,26.7c-0.2,0-0.3-0.2-0.3-0.3l0,0l0.1,0l0,0
										C252.9,26.5,253,26.6,253.1,26.7c0.2-0.1,0.2-0.1,0.3-0.1l0,0.1C253.3,26.7,253.2,26.7,253.1,26.7
										C253.1,26.7,253.1,26.7,253.1,26.7z M245.6,24.2c-0.2-0.1-0.3-0.3-0.5-0.5c0,0,0-0.1,0-0.1l0.1,0c0,0,0,0.1,0,0.1
										C245.3,23.9,245.4,24,245.6,24.2L245.6,24.2z M236.5,21.1c-0.1-0.1-0.2-0.3-0.3-0.4c0-0.1-0.1-0.1-0.1-0.2l0.1,0
										c0,0.1,0.1,0.1,0.1,0.2C236.4,20.8,236.5,21,236.5,21.1L236.5,21.1z M246.3,24.3L246.3,24.3c0.2-0.1,0.4-0.3,0.6-0.4
										l0.1,0.1C246.8,24.1,246.6,24.2,246.3,24.3z M247.1,24.5L247.1,24.5c0.1-0.2,0.3-0.4,0.5-0.6l0.1,0.1
										C247.4,24.2,247.2,24.3,247.1,24.5z M233.4,20c-0.2-0.1-0.5-0.2-0.7-0.3l0-0.1C232.9,19.6,233.2,19.8,233.4,20L233.4,20z
										 M234.1,20.2L234.1,20.2c0-0.1,0-0.1,0-0.1c0.1,0,0.1-0.1,0.2-0.2c0-0.1,0-0.1,0-0.2c0-0.1,0-0.1,0-0.2l0.1,0
										c0,0.1,0,0.1,0,0.2c0,0.1,0,0.1,0,0.2C234.3,20,234.3,20.1,234.1,20.2C234.1,20.2,234.1,20.2,234.1,20.2z M244,23.3
										c-0.1-0.4,0-0.7,0-0.8l0.1,0C244.1,22.7,244,22.9,244,23.3L244,23.3z M251,25.4c0-0.2,0-0.5,0-0.8l0.1,0
										C251,24.9,251.1,25.2,251,25.4L251,25.4z M253.9,26.1L253.9,26.1c0.1-0.3,0.2-0.5,0.4-0.7l0.1,0.1
										C254.2,25.7,254.1,25.9,253.9,26.1z M252.5,25.6c-0.1-0.2-0.1-0.5-0.2-0.7l0.1,0C252.5,25.1,252.6,25.3,252.5,25.6
										L252.5,25.6z M245.5,23.1L245.5,23.1L245.5,23.1c0-0.1,0.2-0.1,0.2-0.3c0-0.1,0-0.2,0-0.3l0.1,0c0,0.1,0,0.3,0,0.4
										C245.7,22.9,245.6,23,245.5,23.1L245.5,23.1z M236,19.7c0-0.3,0-0.5,0.1-0.8l0.1,0C236.1,19.2,236,19.5,236,19.7L236,19.7z
										 M247.5,23.3L247.5,23.3c0-0.2,0.1-0.5,0.2-0.7l0,0l0.1,0l0,0C247.7,22.9,247.6,23.2,247.5,23.3z M248,23.3L248,23.3
										c0-0.2,0.1-0.5,0.2-0.7l0,0l0.1,0l0,0C248.2,22.8,248.1,23.1,248,23.3z M234.2,18.8c0-0.3,0-0.5,0.1-0.8l0.1,0
										C234.4,18.3,234.3,18.5,234.2,18.8L234.2,18.8z M244.6,22L244.6,22c0.2-0.2,0.5-0.2,0.7-0.2l0,0.1
										C245,21.9,244.8,21.9,244.6,22z M250.9,23.9c0-0.2,0-0.5-0.1-0.7l0.1,0C251,23.4,251,23.7,250.9,23.9L250.9,23.9z
										 M238.4,19.9c-0.3-0.3-0.4-0.5-0.4-0.7l0.1,0C238.2,19.3,238.2,19.5,238.4,19.9L238.4,19.9z M239.2,20.1L239.2,20.1
										c0.2-0.1,0.4-0.2,0.6-0.4l0.1,0.1C239.7,19.9,239.4,20,239.2,20.1z M252.2,24.2c-0.1-0.2-0.1-0.5-0.2-0.7l0.1,0
										C252.1,23.6,252.2,23.9,252.2,24.2L252.2,24.2z M254.8,24.9L254.8,24.9c0.1-0.3,0.2-0.5,0.4-0.7l0.1,0
										C255.1,24.5,254.9,24.7,254.8,24.9z M236.4,18.3L236.4,18.3c0.1-0.3,0.3-0.4,0.5-0.6l0,0.1C236.7,18,236.6,18.1,236.4,18.3
										z M247.9,21.9c0-0.2,0.1-0.5,0.1-0.7l0.1,0C248.1,21.5,248.1,21.7,247.9,21.9L247.9,21.9z M238.7,18.8L238.7,18.8
										c0.1-0.1,0.2-0.2,0.2-0.3c0,0,0-0.1,0-0.1c0-0.1,0-0.1,0-0.2l0.1,0c0,0.1,0,0.2,0,0.3c0,0,0,0.1,0,0.1
										C238.9,18.7,238.8,18.8,238.7,18.8z M248.4,21.8c0.1-0.2,0.1-0.5,0.1-0.7l0.1,0C248.5,21.4,248.5,21.6,248.4,21.8
										L248.4,21.8z M234.6,17.3L234.6,17.3c0-0.3,0.2-0.5,0.3-0.7l0.1,0.1C234.9,16.9,234.8,17.1,234.6,17.3z M240.2,19
										c0.1-0.2,0.1-0.5,0.1-0.7l0.1,0C240.4,18.5,240.3,18.8,240.2,19L240.2,19z M250.8,22.4c0-0.2-0.1-0.5-0.1-0.7l0.1,0
										C250.8,21.9,250.8,22.2,250.8,22.4L250.8,22.4z M251.8,22.7c-0.1-0.3-0.1-0.5-0.2-0.7l0.1,0
										C251.8,22.2,251.8,22.4,251.8,22.7L251.8,22.7z M255.7,23.7L255.7,23.7c0.1-0.3,0.2-0.5,0.4-0.7l0.1,0
										C255.9,23.2,255.8,23.4,255.7,23.7z M237.6,17.6L237.6,17.6c0.2-0.1,0.5-0.1,0.7,0c0,0,0.1,0,0.1,0l0,0.1c0,0,0,0-0.1,0
										C238.1,17.6,237.9,17.6,237.6,17.6z M248.2,20.4c0-0.2,0.1-0.5,0.1-0.7l0.1,0C248.4,20,248.3,20.2,248.2,20.4L248.2,20.4z
										 M235.6,16.2L235.6,16.2c0.2-0.2,0.4-0.3,0.7-0.4l0,0.1C236.1,16,235.8,16.1,235.6,16.2z M248.6,20.3
										c0-0.2,0.1-0.5,0.1-0.7l0.1,0C248.8,19.9,248.7,20.1,248.6,20.3L248.6,20.3z M240.1,17.5c0-0.1-0.1-0.2-0.1-0.3
										c-0.1-0.1-0.1-0.2-0.2-0.3l0.1-0.1c0.1,0.1,0.2,0.2,0.2,0.3C240.1,17.3,240.2,17.4,240.1,17.5L240.1,17.5z M250.6,20.9
										c0-0.2-0.1-0.5-0.1-0.7l0.1,0C250.6,20.4,250.6,20.7,250.6,20.9L250.6,20.9z M251.5,21.2c0-0.3-0.1-0.5-0.1-0.7l0.1,0
										C251.5,20.7,251.5,20.9,251.5,21.2L251.5,21.2z M256.5,22.4L256.5,22.4c0.1-0.3,0.2-0.5,0.3-0.7l0.1,0
										C256.8,22,256.7,22.2,256.5,22.4z M262.7,24.4L262.7,24.4c-0.2-0.1-0.4-0.2-0.6-0.5l0.1,0C262.3,24,262.5,24.2,262.7,24.4
										L262.7,24.4z M237.1,15.9L237.1,15.9c0.2-0.1,0.5-0.1,0.8,0l0,0.1C237.6,15.9,237.3,15.9,237.1,15.9z M263.4,24.3
										L263.4,24.3c0.1-0.2,0.2-0.3,0.3-0.3c0,0,0.1-0.1,0.1-0.2c0,0,0-0.1,0-0.2l0.1,0c0,0.1,0,0.1,0,0.2c0,0.1-0.1,0.1-0.1,0.2
										C263.7,24.1,263.6,24.2,263.4,24.3z M239.2,16.4c-0.2-0.1-0.4-0.2-0.7-0.3l0-0.1C238.8,16.1,239.1,16.2,239.2,16.4
										L239.2,16.4z M264.4,24.4L264.4,24.4c0.1-0.2,0.1-0.4,0.2-0.5c0,0,0-0.1,0-0.1c0,0,0,0,0-0.1l0.1,0c0,0,0,0,0,0.1
										c0,0.1,0,0.1,0,0.2C264.6,24.1,264.5,24.3,264.4,24.4z M248.4,18.9l0.1-0.7l0.1,0L248.4,18.9L248.4,18.9z M250.3,19.4
										c0-0.2-0.1-0.5-0.1-0.7l0.1,0C250.3,18.9,250.4,19.2,250.3,19.4L250.3,19.4z M261.8,23.2c-0.1-0.2-0.1-0.5-0.1-0.7l0.1,0
										C261.8,22.7,261.8,22.9,261.8,23.2L261.8,23.2z M251.2,19.7c0-0.3-0.1-0.5-0.1-0.7l0.1,0C251.2,19.2,251.3,19.5,251.2,19.7
										L251.2,19.7z M248.7,18.9c0-0.3,0-0.5,0-0.8l0.1,0C248.9,18.3,248.8,18.6,248.7,18.9L248.7,18.9z M257.3,21.1L257.3,21.1
										c0.1-0.3,0.2-0.5,0.3-0.7l0.1,0C257.6,20.7,257.5,20.9,257.3,21.1z M263.6,23.1L263.6,23.1c0.1-0.2,0.4-0.2,0.7,0l0,0.1
										c-0.1,0-0.1-0.1-0.2-0.1C263.9,23,263.7,23,263.6,23.1z M250.1,18c0-0.2-0.1-0.5-0.1-0.7l0.1,0
										C250.1,17.5,250.1,17.7,250.1,18L250.1,18z M251,18.2c0-0.3-0.1-0.5-0.1-0.7l0.1,0C251.1,17.7,251.1,18,251,18.2L251,18.2z
										 M248.7,17.4c0-0.3,0-0.5,0.1-0.7l0.1,0C248.8,17,248.8,17.2,248.7,17.4L248.7,17.4z M261.6,21.6c0-0.2,0-0.5,0-0.8l0.1,0
										C261.7,21.2,261.7,21.4,261.6,21.6L261.6,21.6z M248.8,17.4c0-0.3,0-0.5,0-0.8l0.1,0C248.9,16.8,248.9,17.1,248.8,17.4
										L248.8,17.4z M258.1,19.9L258.1,19.9c0.1-0.3,0.2-0.5,0.3-0.7l0.1,0C258.4,19.4,258.2,19.6,258.1,19.9z M249.8,16.5
										L249.8,16.5c-0.1-0.3-0.2-0.4-0.4-0.4c0,0,0,0,0,0l0-0.1c0,0,0,0,0,0c0.1,0,0.1,0,0.2,0c0.2,0.1,0.3,0.2,0.3,0.4
										L249.8,16.5L249.8,16.5z M250.9,16.7c0-0.3,0-0.5,0-0.8l0.1,0C251,16.2,251,16.5,250.9,16.7L250.9,16.7z M248.7,16
										c0-0.3,0-0.5,0-0.7l0.1,0C248.8,15.4,248.8,15.7,248.7,16L248.7,16z M261.7,20.1c0-0.2,0.1-0.5,0.1-0.7l0.1,0
										C261.9,19.7,261.8,19.9,261.7,20.1L261.7,20.1z M245.5,14.6c-0.2-0.1-0.5-0.3-0.6-0.5l0.1,0
										C245.1,14.3,245.3,14.4,245.5,14.6L245.5,14.6z M246.3,14.6L246.3,14.6c0.2-0.2,0.4-0.3,0.4-0.5c0,0,0,0,0-0.1l0.1,0
										c0,0,0,0.1,0,0.1C246.7,14.3,246.6,14.5,246.3,14.6z M258.8,18.5L258.8,18.5c0-0.3,0.1-0.5,0.3-0.7l0.1,0
										C259.1,18.1,258.9,18.3,258.8,18.5z M244.7,13.4c0-0.2,0-0.4,0.1-0.5c0-0.1,0.1-0.1,0.1-0.2l0.1,0c0,0.1-0.1,0.1-0.1,0.2
										C244.8,13.1,244.8,13.2,244.7,13.4L244.7,13.4z M246,13.6c-0.1,0-0.2-0.1-0.3-0.2c0,0,0-0.1-0.1-0.1l0.1,0c0,0,0,0.1,0,0.1
										c0.1,0.2,0.3,0.2,0.5,0.1l0,0.1l0,0C246.3,13.7,246.1,13.7,246,13.6z M250.9,15.2c0-0.3,0-0.5,0-0.8l0.1,0
										C251,14.7,251,15,250.9,15.2L250.9,15.2z M248.6,14.5c-0.1-0.3-0.1-0.5-0.2-0.7l0.1,0C248.6,13.9,248.6,14.2,248.6,14.5
										L248.6,14.5z M261.9,18.6c0-0.2,0.1-0.5,0.1-0.7l0.1,0C262.1,18.2,262.1,18.4,261.9,18.6L261.9,18.6z M259.5,17.2
										L259.5,17.2c0-0.3,0.1-0.5,0.2-0.7l0.1,0C259.7,16.7,259.6,16.9,259.5,17.2z M246.1,12.8L246.1,12.8
										c0.2-0.2,0.4-0.3,0.7-0.3l0,0.1C246.6,12.5,246.3,12.6,246.1,12.8z M248.1,13.1c-0.2-0.2-0.3-0.4-0.6-0.5l0-0.1
										C247.8,12.7,248,12.8,248.1,13.1L248.1,13.1z M245.4,12.1L245.4,12.1c0.1-0.2,0.2-0.3,0.3-0.3c0.1-0.1,0.2-0.1,0.3-0.2
										l0,0.1c-0.1,0-0.2,0.1-0.3,0.1C245.6,11.9,245.5,12,245.4,12.1z M251.1,13.7C251.1,13.7,251.1,13.7,251.1,13.7
										c0.1-0.2,0.2-0.3,0.4-0.3c0.1,0,0.2-0.1,0.3-0.1l0,0.1c-0.1,0-0.2,0.1-0.3,0.1C251.3,13.5,251.2,13.6,251.1,13.7
										C251.1,13.7,251.1,13.7,251.1,13.7L251.1,13.7z M262.3,17.2c0.1-0.2,0.1-0.5,0.2-0.7l0.1,0C262.5,16.7,262.4,17,262.3,17.2
										L262.3,17.2z M259.9,15.7c0.1-0.2,0.1-0.5,0.2-0.7l0.1,0C260.1,15.3,260,15.5,259.9,15.7L259.9,15.7z M246.7,11.3
										L246.7,11.3c0.2-0.2,0.4-0.3,0.7-0.4l0,0.1C247.1,11.1,246.9,11.2,246.7,11.3z M252.3,12.9L252.3,12.9
										c0.1-0.2,0.2-0.4,0.3-0.7l0,0l0.1,0l0,0C252.6,12.5,252.5,12.7,252.3,12.9z M264.7,16.6L264.7,16.6
										c0.2-0.1,0.5-0.2,0.7-0.3l0,0.1C265.2,16.5,265,16.6,264.7,16.6z M264.1,16.2C264.1,16.2,264.1,16.1,264.1,16.2
										c-0.1-0.3-0.1-0.4-0.1-0.6c0,0,0-0.1,0.1-0.1c0,0,0,0,0.1,0l0.1,0.1c0,0,0,0,0,0c0,0,0,0.1-0.1,0.1c0,0.1,0,0.2,0,0.4
										C264.1,16.1,264.1,16.1,264.1,16.2L264.1,16.2z M262.6,15.7c0-0.1,0-0.2,0.1-0.2l0,0c0.1-0.2,0.1-0.3,0.2-0.5l0.1,0
										c-0.1,0.1-0.1,0.3-0.2,0.4l0,0C262.8,15.6,262.7,15.7,262.6,15.7L262.6,15.7z M248.1,10.8L248.1,10.8
										c0.2-0.2,0.5-0.2,0.7-0.3l0,0.1C248.5,10.6,248.3,10.7,248.1,10.8z M259.8,14.4c-0.2-0.1-0.3-0.4-0.4-0.6l0.1,0
										C259.5,14,259.7,14.2,259.8,14.4L259.8,14.4z M265,15.7c-0.1,0-0.2-0.1-0.2-0.1l0.1-0.1c0.1,0.1,0.2,0.2,0.4,0.1
										c0.1,0,0.2-0.1,0.2-0.1l0.1,0.1c-0.1,0.1-0.2,0.1-0.3,0.2C265.2,15.7,265.1,15.7,265,15.7z M252.7,11.5
										c0-0.2-0.1-0.5-0.3-0.7l0.1-0.1C252.6,11,252.7,11.2,252.7,11.5L252.7,11.5z M266,15.8L266,15.8c0-0.1,0-0.3,0.1-0.4
										c0-0.1,0.1-0.2,0.1-0.4l0.1,0c0,0.1-0.1,0.3-0.1,0.4C266.1,15.6,266.1,15.7,266,15.8z M249.5,10.4L249.5,10.4
										c0.2-0.1,0.5-0.2,0.7-0.2l0,0.1C250,10.3,249.8,10.3,249.5,10.4z M263.5,14.5L263.5,14.5c0-0.1,0.1-0.1,0.1-0.2
										c0.2-0.1,0.4-0.1,0.6-0.2l0,0.1c-0.2,0-0.4,0.1-0.5,0.1C263.6,14.4,263.5,14.5,263.5,14.5z M259.2,13c0-0.1,0-0.2,0.1-0.3
										c0.1-0.2,0.1-0.3,0.3-0.4l0.1,0.1c-0.1,0.1-0.2,0.3-0.2,0.4C259.3,12.9,259.3,12.9,259.2,13L259.2,13z M251,10.3L251,10.3
										L251,10.3L251,10.3c0.3-0.1,0.6,0,0.7,0.1l0,0.1C251.6,10.3,251.4,10.3,251,10.3L251,10.3z M265.4,14.9
										c-0.1-0.2-0.3-0.3-0.6-0.5l0-0.1C265.2,14.4,265.4,14.6,265.4,14.9L265.4,14.9z M266.1,14.3c0-0.1,0-0.1-0.1-0.2
										c-0.1-0.2-0.2-0.3-0.3-0.5l0.1-0.1c0.1,0.2,0.3,0.3,0.3,0.5C266.2,14.2,266.2,14.3,266.1,14.3L266.1,14.3z M260.2,11.9
										L260.2,11.9c0.1-0.1,0.2-0.2,0.3-0.2l0,0c0.1,0,0.2,0,0.4,0l0,0.1c-0.2,0-0.3,0-0.3,0C260.4,11.8,260.3,11.9,260.2,11.9z
										 M265.2,13.3c-0.1-0.1-0.2-0.1-0.4-0.2l-0.3-0.1l0-0.1l0.3,0.1C265,13,265.1,13.1,265.2,13.3L265.2,13.3z M261.6,12
										L261.6,12c0.2,0,0.5,0,0.8,0.1l0,0.1C262.1,12.1,261.8,12.1,261.6,12z M263.8,12.7c-0.2-0.1-0.5-0.2-0.7-0.3l0-0.1
										C263.4,12.4,263.6,12.5,263.8,12.7L263.8,12.7z"/>
								</g>
								<g>
									<path fill="#B5A899" d="M223.7,33.1c-0.1-0.1-0.1-0.2-0.2-0.3l0,0l0,0c0-0.1,0.1-0.2,0.1-0.4l0.1,0c0,0.1-0.1,0.2-0.1,0.3
										C223.6,32.9,223.7,33,223.7,33.1L223.7,33.1z"/>
								</g>
								<g>
									<path fill="#B5A899" d="M229.1,42c-0.2-0.1-0.5-0.2-0.7-0.3l0-0.1C228.7,41.8,228.9,41.9,229.1,42L229.1,42z M229.8,42.2
										L229.8,42.2c0.2-0.1,0.5-0.1,0.7-0.1l0,0l0,0.1c0,0,0,0,0,0C230.3,42.2,230.1,42.2,229.8,42.2z M227.9,41.2
										c-0.2-0.2-0.3-0.4-0.4-0.6l0.1,0C227.6,40.8,227.8,41,227.9,41.2L227.9,41.2z M231.3,41.8L231.3,41.8
										c0.2-0.2,0.3-0.4,0.4-0.6l0.1,0C231.6,41.4,231.5,41.6,231.3,41.8z M227.2,39.9c0-0.2,0-0.5,0-0.7l0.1,0
										C227.3,39.4,227.3,39.6,227.2,39.9L227.2,39.9z M231.7,40.5c-0.1-0.3-0.2-0.5-0.3-0.6l0.1-0.1
										C231.6,39.9,231.7,40.2,231.7,40.5L231.7,40.5z M227.5,38.4L227.5,38.4c0-0.3,0.1-0.5,0.3-0.7l0.1,0.1
										C227.7,38,227.6,38.2,227.5,38.4z M227.9,37.2c0-0.1-0.1-0.1-0.1-0.1c0,0-0.2-0.1-0.5-0.3l0-0.1c0.3,0.2,0.4,0.3,0.4,0.3
										C227.9,37,228,37,227.9,37.2L227.9,37.2z M226.7,36.3c-0.2-0.1-0.4-0.3-0.6-0.5l0.1-0.1C226.4,36,226.6,36.1,226.7,36.3
										L226.7,36.3z M225.6,35.4c-0.2-0.2-0.4-0.3-0.5-0.5l0.1-0.1C225.3,34.9,225.5,35.1,225.6,35.4L225.6,35.4z M224.6,34.3
										c-0.2-0.2-0.3-0.4-0.5-0.6l0.1-0.1C224.3,33.8,224.5,34,224.6,34.3L224.6,34.3z"/>
								</g>
								<g>
									<path fill="#B5A899" d="M230.5,40.2c0-0.1-0.1-0.2-0.2-0.3l0,0l0,0c0,0,0.1-0.1,0.2-0.2c0,0,0.1-0.1,0.2-0.1l0,0.1
										c-0.1,0-0.1,0-0.2,0.1c-0.1,0-0.1,0.1-0.1,0.1C230.5,40,230.5,40.1,230.5,40.2L230.5,40.2z"/>
								</g>
								<g>
									<path fill="#B5A899" d="M229.7,41L229.7,41c0.3,0,0.5-0.1,0.7-0.2l0.1,0.1C230.2,41,229.9,41.1,229.7,41z M229,40.7
										c-0.1-0.1-0.1-0.1-0.2-0.2c0,0,0,0,0,0c-0.1-0.1-0.2-0.3-0.2-0.4l0.1,0c0,0.1,0.1,0.3,0.2,0.4c0,0,0,0,0,0
										C228.9,40.6,229,40.6,229,40.7L229,40.7z M228.6,39.3c0,0,0-0.1,0-0.1c0.1-0.2,0.2-0.4,0.3-0.5l0.1,0
										c-0.1,0.2-0.2,0.3-0.3,0.5C228.7,39.3,228.7,39.3,228.6,39.3L228.6,39.3z M229.5,38.2L229.5,38.2c0.2-0.2,0.5-0.3,0.7-0.3
										l0,0.1C230,38,229.7,38.1,229.5,38.2z M231.6,38.5c-0.2-0.1-0.5-0.2-0.7-0.3l0-0.1C231.1,38.2,231.4,38.3,231.6,38.5
										L231.6,38.5z M232.3,38.7L232.3,38.7c0.3,0,0.5,0,0.7,0.1l0,0.1C232.8,38.8,232.5,38.8,232.3,38.7z M233.7,39L233.7,39
										c0.3,0,0.5,0,0.7,0l0,0.1C234.2,39.1,234,39.1,233.7,39z M235.2,39.2L235.2,39.2c0.2-0.1,0.5-0.1,0.7-0.1l0,0.1
										C235.7,39.2,235.5,39.2,235.2,39.2z M236.7,39.2L236.7,39.2c0.2-0.1,0.5-0.1,0.7-0.2l0,0.1C237.2,39.1,237,39.1,236.7,39.2
										z M238.2,38.9L238.2,38.9c0-0.1,0.1-0.1,0.1-0.1c0.2,0,0.4-0.1,0.6-0.1l0,0.1c-0.2,0.1-0.4,0.1-0.6,0.1
										C238.3,38.9,238.2,38.9,238.2,38.9z M239.6,38.6L239.6,38.6c0.2-0.2,0.4-0.2,0.7-0.3l0,0.1
										C240.1,38.4,239.9,38.5,239.6,38.6z M241,38L241,38c0.2-0.2,0.4-0.3,0.6-0.4l0,0.1C241.5,37.8,241.2,37.9,241,38z
										 M242.3,37.4L242.3,37.4c0.2-0.2,0.4-0.3,0.6-0.5l0,0.1C242.8,37.1,242.6,37.2,242.3,37.4z M243.6,36.6L243.6,36.6
										c0.1-0.2,0.4-0.4,0.6-0.5l0.1,0.1C244,36.3,243.8,36.4,243.6,36.6z M244.8,35.7L244.8,35.7c0.1-0.2,0.3-0.4,0.5-0.5
										l0.1,0.1C245.2,35.4,245,35.5,244.8,35.7z M245.9,34.7L245.9,34.7c0.1-0.2,0.3-0.4,0.5-0.6l0.1,0.1
										C246.3,34.4,246.1,34.5,245.9,34.7z M247.7,34.9L247.7,34.9c0.1-0.3,0.2-0.5,0.3-0.7l0.1,0
										C247.9,34.4,247.8,34.6,247.7,34.9z M247,33.7L247,33.7c0.1-0.2,0.3-0.4,0.4-0.6l0.1,0.1C247.3,33.3,247.2,33.5,247,33.7z
										 M248.3,33.5c0,0,0-0.1,0-0.1c0-0.2,0-0.4-0.2-0.4l0-0.1l0,0c0.2,0.1,0.3,0.3,0.2,0.5C248.4,33.4,248.4,33.5,248.3,33.5
										L248.3,33.5z"/>
								</g>
								<g>
									<path fill="#B5A899" d="M246.8,35.8L246.8,35.8c0.1-0.2,0.2-0.3,0.3-0.4l0.1,0.1c-0.1,0.1-0.1,0.1-0.2,0.2
										c0.1,0,0.2,0,0.3,0l0,0.1C247.2,35.8,247.1,35.8,246.8,35.8L246.8,35.8z"/>
								</g>
								<g>
									<path fill="#B5A899" d="M248.1,35.8L248.1,35.8c0.3-0.1,0.5,0,0.8,0l0,0.1C248.6,35.9,248.3,35.9,248.1,35.8z M249.6,36.1
										L249.6,36.1c0.3,0,0.5,0,0.8,0.1l0,0.1C250.1,36.2,249.8,36.1,249.6,36.1z M251,36.4L251,36.4c0.3,0,0.5,0,0.8,0.1l0,0.1
										C251.5,36.5,251.3,36.5,251,36.4z M253.2,37.1c-0.2-0.1-0.5-0.2-0.7-0.3l0-0.1C252.8,36.8,253,36.9,253.2,37.1L253.2,37.1z
										"/>
								</g>
								<g>
									<path fill="#B5A899" d="M254.3,37.5L254.3,37.5c-0.2-0.1-0.3-0.1-0.4-0.2l0-0.1c0.1,0,0.2,0.1,0.3,0.1c0-0.1,0-0.2,0-0.3
										l0.1,0C254.3,37.2,254.3,37.3,254.3,37.5L254.3,37.5z"/>
								</g>
								<g>
									<path fill="#B5A899" d="M274.6,46.5L274.6,46.5c0.3,0,0.5,0,0.8,0l0,0.1C275.1,46.6,274.9,46.6,274.6,46.5z M273.9,46.3
										c-0.2-0.1-0.4-0.3-0.6-0.5l0.1,0C273.5,45.9,273.7,46.1,273.9,46.3L273.9,46.3z M276.1,46.4L276.1,46.4
										c0.2-0.2,0.4-0.3,0.6-0.4l0.1,0.1C276.6,46.2,276.4,46.4,276.1,46.4z M274.5,45.5c-0.2-0.1-0.4-0.2-0.6-0.4l0.1-0.1
										c0.2,0.2,0.4,0.3,0.6,0.4L274.5,45.5C274.5,45.5,274.5,45.5,274.5,45.5z M273,45c0-0.2,0-0.5,0.1-0.7c0,0,0,0,0,0l0.1,0
										c0,0,0,0,0,0C273.1,44.5,273.1,44.8,273,45L273,45z M275.3,45.4L275.3,45.4c0.1-0.2,0.2-0.3,0.3-0.5c0,0,0,0,0,0
										c0,0,0-0.1,0.1-0.1l0.1,0c0,0,0,0.1-0.1,0.1c0,0,0,0,0,0C275.6,45.2,275.5,45.3,275.3,45.4z M264.5,41.6
										c-0.2-0.1-0.5-0.2-0.7-0.3l0-0.1C264.1,41.4,264.3,41.5,264.5,41.6L264.5,41.6z M265.3,41.9L265.3,41.9
										c0.3,0,0.5,0.1,0.8,0.1l0,0.1C265.7,42,265.5,41.9,265.3,41.9z M263.1,41.1c-0.2-0.1-0.5-0.2-0.7-0.3l0-0.1
										C262.7,40.8,262.9,40.9,263.1,41.1L263.1,41.1z M266.7,42.2L266.7,42.2c0.3,0,0.5,0,0.8,0.1l0,0.1
										C267.2,42.3,267,42.3,266.7,42.2z M274,44.4L274,44.4c-0.1-0.1-0.1-0.1-0.1-0.1c0.1-0.2,0-0.3,0-0.3c0,0,0,0-0.1-0.1
										c0,0-0.1,0-0.1,0l0-0.1c0.1,0,0.1,0,0.2,0c0.1,0,0.1,0.1,0.2,0.1C274,44,274.1,44.1,274,44.4C274,44.3,274,44.4,274,44.4z
										 M277.3,45.4L277.3,45.4c-0.1-0.1-0.1-0.1,0-0.1c0.1-0.2,0.1-0.4,0.1-0.6l0.1,0c0,0.2,0,0.4-0.1,0.6
										C277.3,45.4,277.3,45.4,277.3,45.4z M261.7,40.4c-0.2-0.1-0.4-0.3-0.7-0.4l0-0.1C261.3,40,261.6,40.2,261.7,40.4
										L261.7,40.4z M268.3,42.5L268.3,42.5c0.3-0.1,0.5,0,0.8,0l0,0.1C268.8,42.6,268.5,42.5,268.3,42.5z M269.8,42.6L269.8,42.6
										c0.3-0.1,0.5-0.1,0.8-0.1l0,0.1C270.3,42.7,270,42.7,269.8,42.6z M260.5,39.5c-0.2-0.1-0.4-0.3-0.6-0.5l0.1-0.1
										C260.1,39.2,260.3,39.3,260.5,39.5L260.5,39.5z M271.3,42.7L271.3,42.7c0.3-0.1,0.5-0.1,0.8-0.1l0,0.1
										C271.8,42.7,271.6,42.7,271.3,42.7z M275.8,44.1c0-0.1-0.1-0.3-0.1-0.4c0-0.1-0.1-0.2-0.1-0.3l0.1,0
										c0.1,0.1,0.1,0.2,0.2,0.3C275.9,43.8,275.9,43.9,275.8,44.1L275.8,44.1z M259.3,38.6c-0.2-0.2-0.4-0.3-0.6-0.5l0.1-0.1
										C258.9,38.2,259.1,38.4,259.3,38.6L259.3,38.6z M272.9,42.6L272.9,42.6c0.2-0.1,0.5-0.1,0.8-0.1l0,0.1
										C273.4,42.6,273.1,42.6,272.9,42.6z M277.2,44c-0.1-0.2-0.2-0.4-0.4-0.7l0.1-0.1C277.1,43.5,277.2,43.7,277.2,44L277.2,44z
										 M254.2,36.3c0-0.2,0-0.5,0-0.8l0.1,0C254.3,35.9,254.3,36.1,254.2,36.3L254.2,36.3z M258.2,37.5c-0.2-0.2-0.3-0.4-0.5-0.6
										l0.1-0.1C257.9,37.1,258.1,37.3,258.2,37.5L258.2,37.5z M275.1,42.9c-0.2-0.1-0.4-0.2-0.7-0.3l0-0.1
										C274.6,42.6,274.9,42.7,275.1,42.9L275.1,42.9z M276.3,42.7c-0.1-0.1-0.1-0.2-0.1-0.4c0,0,0,0,0-0.1c0-0.1,0.1-0.2,0.2-0.3
										l0,0.1c-0.1,0-0.1,0.1-0.2,0.2c0,0,0,0,0,0.1C276.3,42.5,276.3,42.6,276.3,42.7L276.3,42.7z M257.2,36.3
										c-0.1-0.2-0.3-0.4-0.4-0.6l0.1,0C257,35.8,257.2,36.1,257.2,36.3L257.2,36.3z M254.3,34.8c0-0.2,0.1-0.5,0.1-0.8l0.1,0
										C254.5,34.3,254.4,34.6,254.3,34.8L254.3,34.8z M277.2,41.8L277.2,41.8c0.2-0.2,0.4-0.3,0.6-0.4l0,0.1
										C277.6,41.6,277.4,41.7,277.2,41.8z M256.4,35c-0.1-0.2-0.2-0.5-0.4-0.7l0.1,0C256.2,34.5,256.4,34.8,256.4,35L256.4,35z
										 M254.6,33.3c0-0.2,0.1-0.4,0.1-0.4c0,0,0,0,0,0c0-0.1,0.1-0.2,0.2-0.3l0,0.1c-0.1,0-0.2,0.1-0.2,0.2c0,0,0,0,0,0
										C254.7,33,254.7,33.1,254.6,33.3L254.6,33.3z M278.5,41.1L278.5,41.1c0.2-0.2,0.4-0.3,0.6-0.5l0,0.1
										C279,40.8,278.8,40.9,278.5,41.1z M255.7,33.7c-0.2-0.4-0.2-0.7-0.2-0.7c0,0,0,0,0,0l0.1,0c0,0,0,0,0,0
										C255.6,32.9,255.7,33.2,255.7,33.7L255.7,33.7z M279.8,40.3L279.8,40.3c0.2-0.2,0.4-0.4,0.6-0.5l0.1,0.1
										C280.3,40,280.1,40.1,279.8,40.3z M281,39.3L281,39.3c0.1-0.2,0.3-0.4,0.5-0.6l0.1,0.1C281.4,39,281.2,39.1,281,39.3z"/>
								</g>
							</g>
							<g>
								<path fill="#B5A899" d="M232.6,37c-0.2-0.1-0.5-0.2-0.7-0.3l0-0.1C232.2,36.7,232.4,36.8,232.6,37L232.6,37z M233.4,37.2
									L233.4,37.2c0.3,0,0.5,0,0.8,0.1l0,0.1C233.8,37.4,233.6,37.3,233.4,37.2z M231.2,36.4c-0.2-0.1-0.5-0.2-0.7-0.3l0-0.1
									C230.8,36.1,231,36.2,231.2,36.4L231.2,36.4z M234.9,37.5L234.9,37.5c0.3,0,0.5,0,0.8,0l0,0.1
									C235.4,37.6,235.1,37.6,234.9,37.5z M229.8,35.7c-0.2-0.1-0.4-0.3-0.6-0.4l0-0.1C229.5,35.4,229.7,35.5,229.8,35.7
									L229.8,35.7z M236.4,37.7L236.4,37.7c0.1-0.1,0.2-0.1,0.3-0.1c0,0,0,0,0.1,0c0.1,0,0.3,0,0.4-0.1l0,0.1
									c-0.1,0-0.3,0-0.4,0.1c0,0,0,0-0.1,0C236.6,37.7,236.5,37.7,236.4,37.7z M228.6,34.9c-0.2-0.2-0.4-0.3-0.6-0.5l0.1-0.1
									C228.2,34.5,228.4,34.6,228.6,34.9L228.6,34.9z M237.9,37.5L237.9,37.5c0.2-0.1,0.5-0.2,0.7-0.3l0,0.1
									C238.4,37.3,238.1,37.4,237.9,37.5z M227.4,33.9c-0.2-0.2-0.4-0.3-0.6-0.5l0.1-0.1C227.1,33.5,227.3,33.7,227.4,33.9
									L227.4,33.9z M226.3,32.8c-0.2-0.3-0.4-0.5-0.5-0.6l0.1-0.1C226,32.3,226.1,32.5,226.3,32.8L226.3,32.8z M239.4,37L239.4,37
									c0.2-0.2,0.4-0.3,0.7-0.4l0,0.1C239.8,36.8,239.6,36.9,239.4,37z M225.8,31.6L225.8,31.6c0-0.2,0.1-0.4,0.3-0.7l0.1,0
									C226,31.2,225.9,31.4,225.8,31.6z M240.7,36.3L240.7,36.3c0.2-0.2,0.4-0.3,0.6-0.5l0,0.1C241.2,36.1,241,36.2,240.7,36.3z
									 M242,35.5L242,35.5c0.1-0.2,0.3-0.3,0.6-0.5l0.1,0.1C242.4,35.3,242.2,35.4,242,35.5z M226.6,30.3L226.6,30.3
									c0.1-0.3,0.2-0.5,0.4-0.7l0.1,0.1C226.9,29.9,226.7,30.1,226.6,30.3z M243.3,34.7L243.3,34.7c0.2-0.2,0.4-0.4,0.6-0.5
									l0.1,0.1C243.7,34.4,243.5,34.5,243.3,34.7z M227.5,29.1L227.5,29.1c0.1-0.2,0.3-0.4,0.4-0.6l0.1,0.1
									C227.9,28.7,227.7,28.9,227.5,29.1z M244.5,33.8L244.5,33.8c0.2-0.2,0.4-0.4,0.6-0.5l0,0.1C245,33.5,244.8,33.7,244.5,33.8z
									 M228.6,28L228.6,28c0-0.2,0.1-0.3,0.3-0.4c0.1-0.1,0.2-0.1,0.2-0.2l0.1,0.1c-0.1,0.1-0.2,0.1-0.2,0.2
									C228.8,27.8,228.7,27.9,228.6,28z M245.8,33L245.8,33c0.2-0.2,0.4-0.3,0.6-0.4l0,0.1C246.3,32.8,246.1,32.9,245.8,33z
									 M229.7,27L229.7,27c0.1-0.2,0.4-0.4,0.6-0.5l0.1,0.1C230.1,26.7,229.9,26.8,229.7,27z M247.2,32.4L247.2,32.4
									c0.2-0.2,0.5-0.3,0.7-0.3l0,0.1l0,0C247.7,32.2,247.5,32.3,247.2,32.4z M230.9,26.1L230.9,26.1c0.2-0.2,0.4-0.3,0.6-0.5
									l0,0.1C231.4,25.8,231.2,26,230.9,26.1z M248.5,31.6L248.5,31.6c-0.1-0.1-0.1-0.1-0.1-0.1c0-0.1,0-0.1,0-0.2
									c0-0.1,0-0.3,0-0.4l0.1,0c0,0.1,0.1,0.3,0,0.5C248.6,31.4,248.6,31.4,248.5,31.6C248.5,31.5,248.5,31.6,248.5,31.6z
									 M232.3,25.4L232.3,25.4c0.2-0.2,0.4-0.3,0.7-0.4l0,0.1C232.7,25.2,232.5,25.3,232.3,25.4z M248,30.3
									c-0.2-0.1-0.4-0.2-0.7-0.4l0-0.1C247.6,30,247.8,30.1,248,30.3L248,30.3z M246.6,29.6c-0.2-0.1-0.5-0.2-0.7-0.3l0-0.1
									C246.2,29.3,246.5,29.4,246.6,29.6L246.6,29.6z M245.3,28.9C245.3,28.9,245.3,28.9,245.3,28.9c-0.2-0.2-0.4-0.3-0.6-0.5
									l0.1-0.1c0.2,0.1,0.4,0.3,0.5,0.4C245.3,28.8,245.3,28.8,245.3,28.9L245.3,28.9z M233.7,24.9L233.7,24.9
									c0.2-0.2,0.5-0.2,0.7-0.3l0,0.1C234.2,24.7,233.9,24.8,233.7,24.9z M244.1,27.9c-0.2-0.1-0.3-0.2-0.4-0.4l-0.1-0.1l0.1-0.1
									l0.1,0.1C243.9,27.6,244,27.7,244.1,27.9L244.1,27.9z M235.2,24.6L235.2,24.6c0.2-0.1,0.5-0.1,0.8-0.2l0,0.1
									C235.7,24.5,235.4,24.5,235.2,24.6z M242.9,27c-0.2-0.2-0.4-0.3-0.6-0.5l0.1-0.1C242.6,26.6,242.8,26.7,242.9,27L242.9,27z
									 M236.7,24.5L236.7,24.5c0.3-0.1,0.5-0.1,0.8,0l0,0.1C237.2,24.5,237,24.5,236.7,24.5z M241.7,26.1
									c-0.2-0.1-0.4-0.3-0.6-0.4l0-0.1C241.3,25.7,241.5,25.8,241.7,26.1L241.7,26.1z M238.2,24.6L238.2,24.6L238.2,24.6
									c0.3,0,0.5,0,0.8,0.1l0,0.1C238.7,24.7,238.5,24.7,238.2,24.6L238.2,24.6z M240.4,25.3c-0.2-0.1-0.5-0.2-0.7-0.3l0-0.1
									C240,25,240.2,25.1,240.4,25.3L240.4,25.3z"/>
							</g>
							<g>
								<path fill="#B5A899" d="M264.4,39.5c-0.2-0.1-0.5-0.2-0.7-0.3l0-0.1C264,39.2,264.2,39.3,264.4,39.5L264.4,39.5z
									 M265.2,39.7L265.2,39.7c0.3,0,0.5,0,0.8,0.1l0,0.1C265.7,39.8,265.4,39.8,265.2,39.7z M263,38.9c-0.2-0.1-0.5-0.2-0.7-0.3
									l0-0.1C262.6,38.6,262.8,38.7,263,38.9L263,38.9z M266.7,40L266.7,40c0.3,0,0.5,0,0.8,0l0,0.1
									C267.2,40.1,266.9,40.1,266.7,40z M261.7,38.2c-0.2-0.1-0.4-0.3-0.6-0.4l0.1-0.1C261.3,37.9,261.5,38,261.7,38.2L261.7,38.2
									z M268.2,40.2L268.2,40.2c0.3-0.1,0.5,0,0.8,0l0,0.1C268.7,40.3,268.4,40.2,268.2,40.2z M260.4,37.3
									c-0.2-0.2-0.4-0.3-0.6-0.5l0.1-0.1C260.1,36.9,260.3,37.1,260.4,37.3L260.4,37.3z M269.7,40.3L269.7,40.3
									c0.3-0.1,0.5-0.1,0.8-0.1l0,0.1C270.2,40.3,269.9,40.3,269.7,40.3z M271.2,40.3L271.2,40.3c0.2-0.1,0.5-0.1,0.8-0.1l0,0
									l0,0.1l0,0C271.7,40.3,271.5,40.3,271.2,40.3z M259.3,36.3c-0.1-0.1-0.2-0.2-0.3-0.3c-0.1-0.1-0.2-0.2-0.2-0.3l0.1-0.1
									c0.1,0.1,0.2,0.2,0.2,0.3C259.1,36.1,259.2,36.2,259.3,36.3L259.3,36.3z M272.7,40.2L272.7,40.2c0.2-0.1,0.5-0.2,0.7-0.2
									l0,0.1C273.3,40.1,273,40.1,272.7,40.2z M258.2,35.2c-0.2-0.2-0.3-0.4-0.5-0.6l0.1-0.1C258,34.8,258.1,35,258.2,35.2
									L258.2,35.2z M274.3,39.9L274.3,39.9c0.2-0.1,0.5-0.2,0.7-0.3l0,0.1C274.8,39.8,274.5,39.9,274.3,39.9z M257.3,34
									c-0.1-0.2-0.3-0.4-0.4-0.6l0.1,0C257.1,33.5,257.2,33.8,257.3,34L257.3,34z M275.7,39.5L275.7,39.5c0.2-0.2,0.5-0.2,0.7-0.3
									l0,0.1C276.2,39.4,276,39.4,275.7,39.5z M256.5,32.7c-0.1-0.1-0.1-0.2-0.1-0.3c-0.1-0.1-0.3-0.1-0.4-0.2l0.1-0.1
									c0.1,0.1,0.2,0.2,0.3,0.2l0,0l0,0C256.5,32.5,256.6,32.6,256.5,32.7L256.5,32.7z M277.2,39L277.2,39
									c0.2-0.2,0.4-0.3,0.7-0.4l0,0.1C277.6,38.8,277.4,38.9,277.2,39z M255.8,31.5c0,0,0-0.1,0-0.1c0.1-0.2,0.2-0.4,0.3-0.5
									l0.1,0.1c-0.2,0.2-0.3,0.3-0.3,0.5C255.9,31.4,255.9,31.4,255.8,31.5L255.8,31.5z M278.5,38.3L278.5,38.3
									c0.2-0.2,0.4-0.3,0.6-0.5l0,0.1C279,38,278.7,38.2,278.5,38.3z M256.8,30.4L256.8,30.4c0.1-0.2,0.4-0.4,0.6-0.5l0,0.1
									C257.2,30.1,257,30.2,256.8,30.4z M279.8,37.5L279.8,37.5c0.1-0.1,0.2-0.2,0.3-0.3c0.1,0,0.1-0.1,0.1-0.2c0,0,0-0.1,0-0.1
									l0.1,0c0,0,0,0.1,0,0.1c0,0.1-0.1,0.2-0.2,0.2C280,37.3,279.9,37.4,279.8,37.5z M258.1,29.5L258.1,29.5
									c0.2-0.2,0.4-0.3,0.6-0.5l0,0.1C258.5,29.3,258.3,29.4,258.1,29.5z M279.9,36.2c-0.1-0.2-0.2-0.5-0.3-0.7l0.1,0
									C279.8,35.7,279.9,36,279.9,36.2L279.9,36.2z M259.4,28.8L259.4,28.8c0.2-0.2,0.4-0.3,0.6-0.4l0,0.1
									C259.8,28.6,259.6,28.7,259.4,28.8z M279.2,34.9c-0.1-0.2-0.3-0.4-0.4-0.7l0.1,0C279.1,34.4,279.2,34.6,279.2,34.9
									L279.2,34.9z M260.8,28.1L260.8,28.1l0.1-0.1c0.2-0.1,0.4-0.2,0.6-0.2l0,0.1c-0.2,0.1-0.4,0.1-0.5,0.2L260.8,28.1z
									 M278.5,33.6c-0.1-0.2-0.3-0.4-0.4-0.6l0.1,0C278.2,33.1,278.4,33.3,278.5,33.6L278.5,33.6z M262.2,27.6L262.2,27.6
									c0.2-0.2,0.5-0.2,0.7-0.3l0,0.1C262.7,27.4,262.4,27.5,262.2,27.6z M277.6,32.4c-0.2-0.2-0.3-0.4-0.5-0.6l0.1-0.1
									C277.3,31.9,277.5,32.1,277.6,32.4L277.6,32.4z M263.6,27.1L263.6,27.1c0.2-0.1,0.5-0.2,0.7-0.3l0,0.1
									C264.1,27,263.9,27.1,263.6,27.1z M276.6,31.2c-0.2-0.2-0.3-0.4-0.5-0.6l0.1-0.1C276.4,30.8,276.5,30.9,276.6,31.2
									L276.6,31.2z M265.1,26.9L265.1,26.9c0.2-0.1,0.5-0.2,0.7-0.2l0,0.1C265.6,26.8,265.4,26.8,265.1,26.9z M275.6,30.1
									c-0.2-0.2-0.4-0.3-0.6-0.5l0.1-0.1C275.3,29.7,275.5,29.9,275.6,30.1L275.6,30.1z M266.6,26.7L266.6,26.7
									c0.3-0.1,0.5-0.1,0.8-0.1l0,0.1C267.1,26.7,266.9,26.7,266.6,26.7z M274.4,29.1c-0.2-0.2-0.4-0.3-0.6-0.4l0-0.1
									C274.1,28.8,274.3,28.9,274.4,29.1L274.4,29.1z M268.1,26.7L268.1,26.7c0.3-0.1,0.5,0,0.8,0l0,0.1
									C268.6,26.8,268.4,26.8,268.1,26.7z M273.2,28.3c-0.2-0.1-0.4-0.2-0.7-0.4l0-0.1C272.8,28,273,28.1,273.2,28.3L273.2,28.3z
									 M269.6,26.9L269.6,26.9c0.3,0,0.5,0,0.8,0.1l0,0.1C270.1,27,269.9,27,269.6,26.9z M271.8,27.6c-0.2-0.1-0.5-0.2-0.7-0.3
									l0-0.1C271.4,27.3,271.6,27.4,271.8,27.6L271.8,27.6z"/>
							</g>
						</g>
						<path fill="#E2E1D5" d="M247.7,31.9c-4.4,1.3-6.3,4.9-11.1,5.5c-6.6,0-10.6-5.4-10.6-5.4s4.1-8.1,12.1-6.8
							c3.2,0.7,4,2,6.8,4.1c0.8,0.6,1.9,1,2.9,1.6C248.2,31.2,248,31.8,247.7,31.9z"/>
						<path fill="#E2E1D5" d="M256.6,31.2c0,0,14.7-11.8,23.1,5.9c-4.9,3.8-11.2,3.2-14.6,2.3c-4.8-1.3-7.6-5.2-8.5-7.2
							C255.6,32,256.6,31.2,256.6,31.2z"/>
						<path fill="#382F2B" d="M259.8,32.4c0,0,3-3.3,8.2-2.6c2.1,0.4,4.6,2,6.2,5.6C268.6,26.7,259.8,32.4,259.8,32.4z"/>
						<path fill="#FFFFFF" d="M259.8,32.4c9.3-5.2,12.9,1,14.4,2.9c-1.7,3-11,4.5-13.8-1.2C259.5,33.7,259.4,33.1,259.8,32.4z"/>
						<path fill="#382F2B" d="M243.8,31.1c-9.6-6.8-14.7,0.9-14.7,0.9s1.6-4.4,6.7-4.5C238,27.5,241.3,28.6,243.8,31.1z"/>
						<path fill="#FFFFFF" d="M243.3,30.9c1.4,0.6,0.8,1.2,0.2,1.3c0,0-1.2,2.6-3.8,3.6c-3.7,1.5-9.1,0.8-10.7-3.5
							C229.2,30.8,234.8,25.1,243.3,30.9z"/>
						<path fill="none" stroke="#FFFFFF" stroke-width="10" stroke-miterlimit="10" d="M239,33.1c-0.5,1.5-2.1,2.3-3.7,1.8
							c-1.5-0.5-2.4-2.1-1.9-3.6c0.5-1.5,2.1-2.3,3.7-1.8C238.7,29.9,239.5,31.6,239,33.1z"/>
						<path opacity="0.1" fill="#382F2B" d="M226,32.1c3.3-4.5,6.9-6.2,10.1-6.3c3.6-0.2,5.8,2.1,7.9,3.6c1.5,1.1,3.4,1.4,3.4,1.4
							s-1.5-0.6-3.1-1.8c-1.9-1.4-3.4-3.4-7.1-3.8C233.5,24.7,229.1,26.7,226,32.1z"/>
						<g>
							<path fill="#382F2B" d="M239,34.2c-1.4-0.2-2.3-1.5-2-2.9c0.1-0.7,0.6-1.3,1.2-1.7c-0.4-0.2-0.8-0.4-1.3-0.4
								c-2.4-0.4-4.6,1.1-5,3.5c-0.4,2.3,1.2,4.6,3.5,5c2.4,0.4,4.6-1.1,5-3.5c0,0,0-0.1,0-0.1C239.9,34.2,239.4,34.3,239,34.2z"/>
							<path fill="#FFFFFF" d="M241.9,32.2c-0.2,1.4-1.5,2.3-2.9,2c-1.4-0.2-2.3-1.5-2-2.9c0.2-1.4,1.5-2.3,2.9-2
								C241.2,29.5,242.1,30.8,241.9,32.2z"/>
							<path fill="#211D1B" d="M238.2,34.8c-0.2,1.3-1.4,2.1-2.7,1.9c-1.3-0.2-2.1-1.4-1.9-2.7c0.2-1.3,1.4-2.1,2.7-1.9
								C237.6,32.3,238.4,33.5,238.2,34.8z"/>
							
								<ellipse transform="matrix(0.9851 0.1722 -0.1722 0.9851 9.3045 -40.2353)" fill="#FFFFFF" cx="236.5" cy="33.5" rx="0.9" ry="0.9"/>
						</g>
						<path opacity="0.1" fill="#382F2B" d="M256.4,31.4c16.4-11.9,23.3,5.7,23.3,5.7S272.9,21.4,256.4,31.4z"/>
						<g>
							<path fill="#382F2B" d="M268.4,36.7c-1.4-0.5-2.2-1.9-1.7-3.3c0.2-0.8,0.8-1.3,1.5-1.6c-0.4-0.3-0.8-0.5-1.3-0.7
								c-2.4-0.8-5,0.5-5.8,2.9c-0.8,2.4,0.5,4.9,2.9,5.7c2.4,0.8,5-0.5,5.8-2.9c0,0,0-0.1,0-0.1C269.4,36.9,268.9,36.9,268.4,36.7z
								"/>
							<path fill="#FFFFFF" d="M271.8,35c-0.5,1.4-2,2.1-3.4,1.7c-1.4-0.5-2.2-1.9-1.7-3.3c0.5-1.4,2-2.1,3.4-1.7
								C271.5,32.2,272.2,33.6,271.8,35z"/>
							<path fill="#211D1B" d="M267.6,37.2c-0.4,1.3-1.8,2-3.1,1.6c-1.3-0.4-2-1.8-1.6-3.1c0.4-1.3,1.8-2,3.1-1.6
								C267.3,34.5,268,35.9,267.6,37.2z"/>
							<path fill="#FFFFFF" d="M266.6,35.8c-0.2,0.5-0.7,0.7-1.2,0.6c-0.5-0.2-0.7-0.7-0.6-1.1c0.2-0.5,0.7-0.7,1.2-0.6
								C266.5,34.8,266.8,35.3,266.6,35.8z"/>
						</g>
					</g>
				</g>
				<polygon fill="#382F2B" points="279.3,15.3 259.8,19.6 258.6,27.1 284.2,24.7 				"/>
				<path fill="#382F2B" d="M245.2,19.9l-17.9-3l-3.5,7l22.4,3.1C246.2,25.8,245.2,19.9,245.2,19.9z"/>
				<g>
					<path opacity="0.8" fill="#0C0401" d="M253.5,31.6c0.1-0.8,1.8-2,3-2.5c3.7-1.5,8.9-1.4,14.1-0.8c6.4,1,6.6,4.1,6.7,5.1
						c0.6,3.9-1.3,6.2-4.3,7.6c-4.1,1.7-16.8-1-17.9-2.5C253.1,35.8,252.3,33.1,253.5,31.6z"/>
					<path opacity="0.8" fill="#0C0401" d="M224.3,39c-4.7-2.2-4.4-6.5-3.7-9.4c0.3-1.1,1-2.8,3.6-3.5c16.8-2.1,20.8,2.9,20.8,5.7
						c0,2.1,0.3,2.8-0.7,4.6C242.2,40.3,232.3,41.3,224.3,39z"/>
					<g opacity="0.8">
						<path fill="#0C0401" d="M267.8,28.1c0.9,0.1,1.8,0.2,2.7,0.3c6.4,1,6.6,4.1,6.7,5.1c0.6,3.9-1.3,6.2-4.3,7.6
							c-1.4,0.6-3.7,0.7-6.2,0.5c-5.1-0.4-11-2-11.7-3c-2-2.6-2.8-5.4-1.6-6.9c0.1-0.8,1.8-2,3-2.5
							C259.5,27.8,263.6,27.7,267.8,28.1 M267.8,27.7c-5-0.4-8.7-0.1-11.5,1.1c-1.2,0.5-2.9,1.6-3.2,2.6c-0.6,0.8-0.7,1.9-0.4,3.2
							c0.3,1.2,1,2.6,2,4c0.9,1.2,7.3,2.7,11.9,3.1c2,0.2,4.7,0.2,6.3-0.5c0,0,0,0,0,0c1.7-0.8,2.9-1.8,3.6-3c0.8-1.4,1.1-3,0.8-4.9
							c0,0,0-0.1,0-0.1c-0.2-1.1-0.6-4.2-6.9-5.2c0,0,0,0,0,0C269.6,27.9,268.7,27.8,267.8,27.7L267.8,27.7z"/>
					</g>
					<g opacity="0.8">
						<path fill="#0C0401" d="M234.7,25.6c8.1,0.7,10.4,4,10.3,6.1c0,2.1,0.3,2.8-0.7,4.6c-1.6,3-7.6,4.3-13.8,3.8
							c-2.1-0.2-4.2-0.5-6.2-1.1c-4.7-2.2-4.4-6.5-3.7-9.4c0.3-1.1,1-2.8,3.6-3.5C228.5,25.5,231.9,25.4,234.7,25.6 M234.7,25.3
							l0,0.3L234.7,25.3c-3-0.2-6.5-0.1-10.5,0.4c0,0,0,0,0,0c-2.1,0.6-3.4,1.9-3.9,3.8c-1.2,4.7,0.1,8,3.9,9.8c0,0,0,0,0,0
							c2,0.6,4.1,1,6.3,1.1c3.2,0.3,6.3,0,8.8-0.6c2.7-0.7,4.6-1.9,5.4-3.4c0.8-1.5,0.8-2.3,0.7-3.5c0-0.3,0-0.7,0-1.2
							c0-1.4-0.8-2.8-2.2-3.8C241.2,26.5,238.4,25.6,234.7,25.3L234.7,25.3z"/>
					</g>
					<path opacity="0.5" fill="#C5C8C0" d="M265.4,33.7c1-1.6,2-3.1,3-4.7c0.2-0.3,0.4-0.5,0.5-0.8c-1.2-0.1-2.4-0.2-3.6-0.2
						c-2.6,4-5.3,7.8-8,11.7c1,0.3,2.3,0.7,3.7,1C262.5,38.3,263.9,36,265.4,33.7z"/>
					<path opacity="0.5" fill="#C5C8C0" d="M272.8,28.8c-0.6-0.2-1.3-0.4-2.1-0.5c-0.3,0.4-0.5,0.8-0.8,1.3c-1,1.5-2,3.1-3,4.7
						c-1.4,2.2-2.8,4.4-4.2,6.6c1,0.2,2.1,0.3,3.2,0.5C268,37.1,270.4,33,272.8,28.8z"/>
					<path opacity="0.5" fill="#C5C8C0" d="M233.8,25.6c-2.9,4.5-5.8,9.1-8.8,13.6c0.7,0.2,1.4,0.3,2.1,0.5
						c2.9-4.7,5.9-9.3,8.9-13.9C235.3,25.7,234.6,25.6,233.8,25.6z"/>
					<path opacity="0.5" fill="#C5C8C0" d="M237.6,26c-3,4.6-6,9.2-8.9,13.9c1.2,0.2,2.4,0.3,3.6,0.3c0.2-0.3,0.4-0.6,0.6-0.9
						c1.4-1.9,2.7-3.8,4-5.7c1.4-2.1,2.9-4.3,4.3-6.4C240.3,26.7,239.1,26.3,237.6,26z"/>
					<path fill="#C5C8C0" d="M276.8,37.2c-1.4-0.3-0.9-4.5,0.4-4c0,0,0.6,0.1,0.8,0.4c0.9,1.7,4.5,9,5.5,17.1c0.3,2.2-0.3,5-1.7,5.4
						c-0.4-1.2-0.7-1.7,0.3-4.8C281.5,46,276.8,37.2,276.8,37.2z"/>
					<path fill="#C5C8C0" d="M253,34.5c-2.6-1-5.9-1.3-8.7-0.3c-0.8-0.5-1.1-1.8,0.3-2.6c3.5-1,8.2-0.1,9.2,0.6
						C254.7,32.8,254.7,34.5,253,34.5z"/>
				</g>
				<g>
					<path fill="#382F2B" d="M255.5,37.3c-7.7-4.7-12.9-1.2-13.6-0.2c-5.5-0.1-4.5,5-1.3,4.9c2,1.9,7.3,4.4,13.9,0.8
						C260.5,45.3,261.8,37,255.5,37.3z"/>
					<path fill="#E2E1D5" d="M242.1,37.9c4.8-4.4,12.2-0.6,13.1,0.3c2.5-0.2,3.7,1.6,3.3,2.9c-0.5,1.4-2.6,2.3-3.8,0.9
						c-5.7,3.2-12.4,0.9-13.7-0.6C238.4,41.4,238.1,37.8,242.1,37.9z"/>
					<path fill="#382F2B" d="M255.2,41.7c0,0,0.4-0.6,1-0.3C256.8,41.8,255.2,41.7,255.2,41.7z"/>
					<path fill="#382F2B" d="M241.9,37.5c0,0-0.5,0.5-0.5,1.5c0.3-0.6,0.8-1.1,0.8-1.1l0.4-0.6L241.9,37.5z"/>
					<path opacity="0.5" fill="#FFFFFF" d="M241.4,38.9c5.6-4,13.9-0.8,13.9-0.8S246.2,32.2,241.4,38.9z"/>
					<path opacity="0.1" fill="#382F2B" d="M258.5,40c-1,2.9-3.3,1.8-3.3,1.8l-0.5,0.2c0,0,0.6,1.1,2,0.7
						C258,42.2,258.9,41.4,258.5,40z"/>
					<path opacity="0.5" fill="#FFFFFF" d="M255.3,38.2c0,0,1.7-0.2,2.8,0.9c-1-0.6-2.2-0.6-3.2,0.1
						C254.9,38.5,255.3,38.2,255.3,38.2z"/>
					<path opacity="0.1" fill="#382F2B" d="M239.1,39.9c0.1-1.1,1.7,0.5,1.7,0.8c3.9,2.9,9,2.9,9.7,2.7c-6.8,0.9-9.5-2.1-9.5-2.1
						S239.3,41.5,239.1,39.9z"/>
				</g>
				<g>
					
						<ellipse transform="matrix(0.8936 0.4489 -0.4489 0.8936 53.545 -120.4772)" fill="#382F2B" cx="280.9" cy="52.7" rx="2.1" ry="4.5"/>
					<path fill="#E2E1D5" d="M283,49.9c2.6,0.6,3.5,3.2,2,5.2c-2.2,3-5.2,0.9-5.5-0.1C278.9,53.1,280.3,50.3,283,49.9z"/>
					<path opacity="0.5" fill="#FFFFFF" d="M280.4,51.5c0,0,0.9-1.3,2.6-1.6c3.4,1,2.7,3.6,2.6,3.9
						C282.5,54.5,280.4,51.5,280.4,51.5z"/>
					<path opacity="0.1" fill="#382F2B" d="M279.4,53.4c0,0,0.4,1,1.3,1.7c0.9,0.8,2.6,1.2,3.5,0.7c-0.7,0.6-1.4,0.8-2.1,0.8
						c-1.3,0-2.2-0.9-2.5-1.2C279.2,54.9,279.4,53.4,279.4,53.4z"/>
				</g>
				<path fill="#C5C8C0" d="M219.3,37c-0.1-2.5,0.2-5.1,1.1-5.3c0.5-0.1,1.2,0,1.5-0.4c0.3-0.4,0-0.9-0.4-1.1
					c-0.4-0.2-0.9-0.1-1.3,0.1C217.7,31,218.2,36.9,219.3,37z"/>
				<g>
					<g>
						<path fill="#382F2B" d="M253.2,26.3c0-0.3,0.1-0.6,0.1-0.8l0.5,0.1c0,0.3-0.1,0.5-0.1,0.8L253.2,26.3z"/>
					</g>
					<g>
						<path fill="#382F2B" d="M253.7,23.9c0.1-0.5,0.2-1,0.3-1.5l0.4,0.1c-0.1,0.5-0.2,1-0.3,1.5L253.7,23.9z M254.7,20.9l-0.4-0.1
							c0.1-0.5,0.2-1,0.4-1.5l0.4,0.1C255,19.9,254.9,20.4,254.7,20.9z M255.5,17.9l-0.4-0.1c0.1-0.5,0.3-1,0.4-1.5l0.4,0.1
							C255.8,16.9,255.6,17.4,255.5,17.9z M256.4,14.9l-0.4-0.1c0.2-0.5,0.3-1,0.5-1.5l0.4,0.1C256.7,13.9,256.6,14.4,256.4,14.9z
							 M257.4,12l-0.4-0.2c0.2-0.5,0.4-1,0.5-1.5l0.4,0.2C257.8,11,257.6,11.5,257.4,12z M258.5,9l-0.4-0.2c0.2-0.5,0.4-1,0.7-1.4
							l0.4,0.2C258.9,8,258.7,8.5,258.5,9z M259.9,6.3L259.5,6c0.3-0.5,0.7-0.9,1-1.2l0.5,0.1C260.7,5.3,260.2,5.8,259.9,6.3z"/>
					</g>
					<g>
						<path fill="#382F2B" d="M262.3,4l-0.4-0.2c0.3-0.1,0.6-0.3,0.8-0.4l0.4,0.2C262.8,3.8,262.5,3.8,262.3,4z"/>
					</g>
				</g>
			</g>
			<circle fill="#E2E1D5" cx="318.6" cy="66.4" r="2.5"/>
		</g>
		<g>
			<path fill="#382F2B" d="M235.2,55.5c6.5-1,9.9,4,9.9,4s-7.1,3-7.1,2.3C238,61.3,234.2,56.4,235.2,55.5z"/>
			<path fill="#382F2B" d="M233.4,54.5c3.2,1.2,3.5,3.2,4.6,5c1.2-2.1,2.8-2.5,5-1.7c5,2.9,4.4,10.1,3.4,12.3
				c-2.3,5-6.1,5.6-8.1,6.9c-1.5,1-2.7,3-4.2,4c-1.6,1.1-3,1.7-4.8,2.4c-6,1.3-10.1-0.2-10.4-0.4c-2.5,1.4-6.3,0.5-7.9-1.9
				s-1.7-7.3,3.5-9.2c-0.3-5.7,5.7-9,5.7-9S222.9,51.6,233.4,54.5z"/>
			<path fill="#382F2B" d="M219.1,102.9c-0.1,0.8,0,1.5,0.4,2.2c0.2,0.3,0.4,0.6,0.6,0.9c0.4,0.6,1.1,1.1,1.8,1.3
				c0.6,0.2,1.2,0.5,1.7,1c0.5,0.5,0.7,1.2,0.8,1.8c0.1,0.8,0.5,1.5,1,2c0.1,0.1,0.1,0.1,0.2,0.1c0.6,0.5,1.3,0.8,2.1,0.8
				c0.6,0,1.3,0.2,1.9,0.6c0.6,0.4,1,0.9,1.2,1.5c0.3,0.7,0.8,1.3,1.5,1.7c0,0,0.1,0,0.1,0c0.7,0.3,1.5,0.5,2.2,0.3
				c0.6-0.2,1.3-0.2,2,0.1c0.7,0.2,1.2,0.7,1.6,1.2c0.4,0.6,1.1,1.1,1.9,1.2c0.3,0.1,0.7,0.1,1,0.2c0.8,0.1,1.6,0,2.2-0.4
				c0.6-0.3,1.2-0.5,1.9-0.5c0.7,0,1.3,0.3,1.8,0.7c0.6,0.5,1.4,0.7,2.1,0.7c0.1,0,0.1,0,0.2,0c0.8,0,1.5-0.4,2.1-0.9
				c0.4-0.5,1-0.8,1.7-0.9c0.7-0.1,1.4,0,1.9,0.2c0.7,0.3,1.5,0.3,2.2,0.1c0.1,0,0.1,0,0.2-0.1c0.7-0.2,1.3-0.8,1.7-1.4
				c0.3-0.5,0.8-1,1.4-1.3s1.3-0.4,1.9-0.3c0.8,0.1,1.5,0,2.2-0.4c0.3-0.2,0.6-0.4,0.9-0.6c0.6-0.4,1.1-1.1,1.3-1.8
				c0.2-0.6,0.5-1.2,1-1.7c0.5-0.5,1.2-0.7,1.8-0.8c0.8-0.1,1.5-0.5,2-1c0.1-0.1,0.1-0.1,0.1-0.2c0.5-0.6,0.8-1.3,0.8-2.1
				c0-0.6,0.2-1.3,0.6-1.9c0.4-0.6,0.9-1,1.5-1.2c0.7-0.3,1.3-0.8,1.7-1.5c0,0,0-0.1,0-0.1c0.3-0.7,0.5-1.5,0.3-2.2
				c-0.2-0.6-0.2-1.3,0.1-2c0.2-0.7,0.7-1.2,1.2-1.6c0.6-0.4,1.1-1.1,1.2-1.9c0.1-0.3,0.1-0.7,0.2-1c0.1-0.8,0-1.6-0.4-2.2
				c-0.3-0.6-0.5-1.2-0.5-1.9c0-0.7,0.3-1.3,0.7-1.8c0.5-0.6,0.7-1.4,0.7-2.1c0-0.1,0-0.1,0-0.2c0-0.8-0.4-1.5-0.9-2.1
				c-0.5-0.4-0.8-1-0.9-1.7c-0.1-0.7,0-1.4,0.2-1.9c0.3-0.7,0.3-1.5,0.1-2.2c0-0.1,0-0.1-0.1-0.2c-0.2-0.7-0.8-1.3-1.4-1.7
				c-0.5-0.3-1-0.8-1.3-1.4c-0.3-0.6-0.4-1.3-0.3-1.9c0.1-0.8,0-1.5-0.4-2.2c-0.2-0.3-0.4-0.6-0.6-0.9c-0.4-0.6-1.1-1.1-1.8-1.3
				c-0.6-0.2-1.2-0.5-1.7-1c-0.5-0.5-0.7-1.2-0.8-1.8c-0.1-0.8-0.5-1.5-1-2c-0.1-0.1-0.1-0.1-0.2-0.1c-0.6-0.5-1.3-0.8-2.1-0.8
				c-0.6,0-1.3-0.2-1.9-0.6c-0.6-0.4-1-0.9-1.2-1.5c-0.3-0.7-0.8-1.3-1.5-1.7c0,0-0.1,0-0.1,0c-0.7-0.3-1.5-0.5-2.2-0.3
				c-0.6,0.2-1.3,0.2-2-0.1c-0.7-0.2-1.2-0.7-1.6-1.2c-0.4-0.6-1.1-1.1-1.9-1.2c-0.3-0.1-0.7-0.1-1-0.2c-0.8-0.1-1.6,0-2.2,0.4
				c-0.6,0.3-1.2,0.5-1.9,0.5c-0.7,0-1.3-0.3-1.8-0.7c-0.6-0.5-1.4-0.7-2.1-0.7c-0.1,0-0.1,0-0.2,0c-0.8,0-1.5,0.4-2.1,0.9
				c-0.4,0.5-1,0.8-1.7,0.9c-0.7,0.1-1.4,0-1.9-0.2c-0.7-0.3-1.5-0.3-2.2-0.1c-0.1,0-0.1,0-0.2,0.1c-0.7,0.2-1.3,0.8-1.7,1.4
				c-0.3,0.5-0.8,1-1.4,1.3c-0.6,0.3-1.3,0.4-1.9,0.3c-0.8-0.1-1.5,0-2.2,0.4c-0.3,0.2-0.6,0.4-0.9,0.6c-0.6,0.4-1.1,1.1-1.3,1.8
				c-0.2,0.6-0.5,1.2-1,1.7c-0.5,0.5-1.2,0.7-1.8,0.8c-0.8,0.1-1.5,0.5-2,1c-0.1,0.1-0.1,0.1-0.1,0.2c-0.5,0.6-0.8,1.3-0.8,2.1
				c0,0.6-0.2,1.3-0.6,1.9c-0.4,0.6-0.9,1-1.5,1.2c-0.7,0.3-1.3,0.8-1.7,1.5c0,0,0,0.1,0,0.1c-0.3,0.7-0.5,1.5-0.3,2.2
				c0.2,0.6,0.2,1.3-0.1,2c-0.2,0.7-0.7,1.2-1.2,1.6c-0.6,0.4-1.1,1.1-1.2,1.9c-0.1,0.3-0.1,0.7-0.2,1c-0.1,0.8,0,1.6,0.4,2.2
				c0.3,0.6,0.5,1.2,0.5,1.9c0,0.7-0.3,1.3-0.7,1.8c-0.5,0.6-0.7,1.4-0.7,2.1c0,0.1,0,0.1,0,0.2c0,0.8,0.4,1.5,0.9,2.1
				c0.5,0.4,0.8,1,0.9,1.7c0.1,0.7,0.1,1.4-0.2,1.9c-0.6,0.9-0.4,1.6-0.1,2.2c0,0.1,0,0.1,0.1,0.2c0.2,0.7,0.8,1.3,1.4,1.7
				c0.5,0.3,1,0.8,1.3,1.4S219.2,102.3,219.1,102.9z M222.1,99.8c-6.7-14.1-0.7-30.9,13.5-37.4c13.8-6.3,30.2-0.4,36.8,13.3
				c6.7,14.1,0.7,30.9-13.5,37.4C245.1,119.3,228.6,113.4,222.1,99.8z"/>
			<path fill="#E2E1D5" d="M227.2,82.1c5.8-0.6,8.8-5.7,13.9-8.2c5.2-2.6,4.4-9.8,4.2-10.2c-0.1-1.6-2.8-5.3-4.8-5.7
				c-5.5,2-15.5,4.9-17,7.5c-1.7,3-5.4,8.9-5.2,9.7C214.6,80.8,217.7,82.5,227.2,82.1z"/>
			<path opacity="0.1" fill="#382F2B" d="M220.1,82c2.7-3.8,6.3-6.9,9.8-10c2.3-2,4.6-4,7.4-5.4c1.7-0.8,3.5-1.4,5.3-1.9
				c-0.2,2.1-1.2,4.1-2.7,5.5c-1.5,1.5-3.5,2.4-5.6,2.5c-1.4,4-5.3,7-9.6,7.2c-0.3,0.9-1,1.7-1.8,2C222,82.4,220.9,82.4,220.1,82z"
				/>
			<path fill="#382F2B" d="M234.5,69.7c6.2,1.3,8.7-4.9,8.3-6.8c-0.2-0.4-5.7,3.5-5.7,3.5S232.1,68.4,234.5,69.7z"/>
			<path fill="#E2E1D5" d="M235.1,68.1c-1.1-0.7-1.7-1.9-1.9-3.1c-0.2-1.2,0-2.5,0.3-3.7c0.3-1.3,0.8-2.6,1.8-3.5
				c2.7-1.3,4.4-1,6.6,0.9c0.7,0.7,0.7,1.8,0.8,2.4c0.3,1.8-0.3,3.6-1.3,5.1c-0.7,1-1.7,1.8-2.8,2.2
				C237.4,68.8,236.1,68.7,235.1,68.1z"/>
			<path fill="#382F2B" d="M240.7,90.8c-1.7-3.6-0.2-8,3.5-9.7c3.6-1.6,7.8-0.1,9.5,3.4c1.7,3.6,0.2,8-3.5,9.7
				C246.7,95.9,242.4,94.4,240.7,90.8z"/>
			<path fill="#382F2B" d="M236.7,57c2,2.8,2.4,5.5,1.5,8.2c-1.8,5.1-6.6,5.4-6.5,5.4c0.3,4.9-4,8.5-9,8.8c-0.7,1.8-2.6,3-3.3,3.2
				c-0.7,0.2-1.5-1.5-1.2-2.1c0.4-0.6,1-1.1,1.5-1.6c6.3-5,11.6-11.3,15.6-18.3c0.3-0.5-1.1-2.9-0.6-3.3
				C235.3,56.9,236.2,56.7,236.7,57z"/>
			<path fill="#E2E1D5" d="M221.8,64.1c-4.7,1.4-6.6,6.4-6,8.9c-2.2,0.3-4,2.6-3.7,4.9c0.2,2.2,2.4,4.1,4.6,4.2
				c2.3,0.1,4.4-1.6,5-3.8c2.3,0.3,4.8-0.6,6.4-2.2c1.7-1.7,2.5-4.1,2.3-6.4c2.3,0.2,5.2-1.6,6.3-4.4c1.1-2.7,0.2-5.8-1.9-7.8
				c-2.1-2-5.1-2.2-7.8-1.2C221,58.9,221.8,64.1,221.8,64.1z"/>
			<path fill="#382F2B" d="M220.2,64.5c0.5-0.3,1-1.5,1.6-1.4c-0.3,6.2,5.4,7.1,7.5,7C226.5,71.6,219.5,70.9,220.2,64.5z"/>
			<path fill="#382F2B" d="M214.8,73.2c0.2-0.4,0.7-0.7,0.9-0.3c1,3.2,4.4,4.6,4.4,4.6C218,77.7,215.5,76.4,214.8,73.2z"/>
			<path fill="#382F2B" d="M221,100.3c1.4,3,3.3,5.6,5.5,7.8c3.5-6.2,11.5-13,21.9-17.9c10.4-4.9,20.8-6.7,27.8-5.4
				c-0.3-3.3-1.2-6.6-2.7-9.7c-1.4-3-3.3-5.6-5.5-7.8c-3.5,6.2-11.5,13-21.9,17.9c-10.4,4.9-20.8,6.7-27.8,5.4
				C218.6,93.8,219.5,97.1,221,100.3z M263.6,80c-0.6-1.2-0.1-2.6,1.2-3.2c1.2-0.5,2.6,0,3.1,1.1c0.6,1.2,0.1,2.6-1.2,3.2
				C265.6,81.7,264.2,81.2,263.6,80z M257,83.1c-0.4-0.9,0-1.9,0.8-2.3c0.9-0.4,1.9,0,2.3,0.8c0.4,0.9,0,1.9-0.8,2.3
				C258.5,84.3,257.4,84,257,83.1z M234.3,93.8c-0.4-0.9,0-1.9,0.8-2.3c0.9-0.4,1.9,0,2.3,0.8c0.4,0.9,0,1.9-0.8,2.3
				C235.7,95,234.7,94.7,234.3,93.8z M226.5,97.4c-0.6-1.2-0.1-2.6,1.2-3.2c1.2-0.5,2.6,0,3.1,1.1c0.6,1.2,0.1,2.6-1.2,3.2
				C228.5,99.1,227.1,98.6,226.5,97.4z"/>
			<path fill="none" stroke="#382F2B" stroke-miterlimit="10" d="M228.8,81.6"/>
		</g>
		<path opacity="0.1" fill="#382F2B" d="M222,73.2c-2.5-1.4-4.1-4-4.3-6.8c-1.6,2.4-2.8,5.3-1.6,7.8c0.8,1.6,2.2,2.6,4,3.3
			c0,0.4-0.3,0.7-0.5,0.9c-1.2,1-3.1,1.2-4.5,0.4c-1.4-0.7-2.3-2.3-2.2-3.9c-1.3,1.3-1.4,3.6-0.4,5.1c1,1.6,2.9,2.4,4.8,2.3
			c1.7,0,3.5-0.9,4.3-2.4c0.2-0.4,0.4-0.9,0.3-1.3c0-0.1,0-0.2-0.1-0.3c0.7,0.1,1.4,0.1,2.1,0c2.8-0.4,5.6-2.5,6.1-5.3
			C227.5,74.3,224.4,74.6,222,73.2z"/>
		<path opacity="0.1" fill="#382F2B" d="M223.1,68.1c-3.3-3.9-0.6-8.5-0.2-9.1c0.3-0.6,0.9-1.1,1.6-1.2c0.9,3.7,3,7.1,5.9,9.5
			c0.6,0.5,1.2,1.1,1,1.8C231.2,69.6,227.8,71.3,223.1,68.1z"/>
		<path opacity="0.5" fill="#FFFFFF" d="M245.3,63.5c-1.3-3.9-4.5-6-6.4-6.5C242,58.9,244.1,61.9,245.3,63.5z"/>
		<path opacity="0.1" fill="#382F2B" d="M236,68.7c-0.1-0.2,0-0.4,0.1-0.6c1.5-2.3,2.2-5.1,2-7.9c1.2,1.5,1.8,3.4,1.6,5.3
			c-0.1,0.9-0.4,1.8-1,2.5c-0.6,0.7-1.6,1.1-2.5,0.9C236.2,68.9,236.1,68.8,236,68.7z"/>
		<path opacity="0.1" fill="#382F2B" d="M301.9,85.4c-0.3-0.8-0.3-1.7-0.3-2.5c0-1.1,0-2.2,0.2-3.2s0.7-2.1,1.6-2.8
			c0.4,4.3,2,8.5,4.5,12c-1.2-0.3-2.4-0.5-3.4-1C303.3,87.4,302.3,86.5,301.9,85.4z"/>
		<path opacity="0.5" fill="#FFFFFF" d="M293.4,57.3c5,0.2,9.9,1.1,14.7,2.7c2.6,0.8,7,2.9,9.2,4.4c0.7-0.4,2.2-0.9,3.5,0.7
			c-0.4-0.1-1.7,1-1.1,1.1c2,0.6,7.8,7.8,7,16.6C326.1,83.1,324.3,65.2,293.4,57.3z"/>
	</g>
	<path fill="#382F2B" d="M368.1,132c0.1-0.6,0-1.2-0.3-1.8c-2.4-4.6-5.7-9.5-9.6-14.5c-2.8-3.6-6.1-7.3-9.9-11.4
		c-1.1-1.1-6-4.6-10.9-8c1.4,0.4,3,0.6,4.5,0.6c3.4,0,6.5-1,9-2.9c3.3-2.5,5.6-6.4,6.1-10.9c0.6-4.6-0.6-9.1-3.3-12.4
		c-1.6-1.9-3.6-3.5-6-4.5c-2.2-1-4.8-1.5-7.3-1.5c-3.7,0-7.3,1.1-10.1,3.2c-2.5,1.8-4.5,4.5-5.6,7.4c-0.6,1.5-0.9,2.9-1,4.4
		c-6.5-14.8-17.8-41-23.3-56.6c-0.3-0.8-0.9-1.5-1.7-1.7c-18-6.1-36.5-10.9-54.9-14.1c-19-3.3-38.2-5-56.9-5
		c-31.6,0-62.3,4.7-91,14.1c-0.8,0.3-1.4,0.8-1.7,1.6c0,0.1-4.2,9.8-10.6,22.5C78.1,51.2,70.1,66,61.6,78.2c-1.1-1.1-2.3-2-3.6-2.8
		c0.3-2.3-0.1-4.7-0.9-7c-1.1-3-3.1-5.6-5.6-7.4c-2.8-2.1-6.4-3.2-10.1-3.2c-2.5,0-5,0.5-7.3,1.5c-2.4,1-4.5,2.6-6,4.5
		c-2.7,3.3-3.9,7.9-3.3,12.4c0.6,4.5,2.8,8.4,6.1,10.9c2.5,1.9,5.7,2.9,9,2.9c2.8,0,5.5-0.7,7.9-2c1.5-0.8,2.9-1.8,4-3.1l0.2,0.2
		c-12.6,9.4-37.1,28.7-47.7,38.6l0,0c-0.4,0.3-0.7,0.8-0.9,1.3c-2.8,8.2-3.9,16.8-3.1,25.6c0.8,8.1,3,16.1,6.7,23.7
		c-0.4,4-0.7,10.8,0.4,16.4c0,0.1,0.1,0.2,0.1,0.4c2.4,7,7.2,15.6,14.4,25.4c5.3,7.2,9.8,12.4,10,12.6c0.5,0.6,1.3,1,2.1,1
		c0,0,0,0,0,0c0.1,0,0.9,0,2.4,0l0,0c0.6,1.6,1.5,3.1,2.5,4.6c1.4,2,3.1,3.8,5,5.2c4,3.1,8.8,4.7,13.9,4.7h39c2.6,0,5.2-0.4,7.6-1.3
		c2.4-0.8,4.6-2,6.5-3.6c3.4-2.6,6-6.2,7.5-10.1c56.2-0.4,103-0.7,139-1.1c0.7,1.6,1.5,3.1,2.5,4.5c1.4,2,3.1,3.7,5,5.2
		c4,3,8.8,4.6,13.9,4.6h39c2.7,0,5.3-0.4,7.8-1.3c2.4-0.9,4.6-2.1,6.6-3.7c3.4-2.8,6-6.5,7.4-10.6c0.7-0.1,1-0.1,1.2-0.2
		c3.2-0.8,6.4-3.4,9.7-7.8c2.5-3.3,5.1-7.7,7.6-13c4.3-9,7.6-18.8,8-21.9c0.5-3.4,0.2-7.4,0.1-9c-0.4-4.4-1-6-1.5-6.8
		c1.7-5.4,3-10.6,3.7-15.5C369.5,145.5,369.4,138.4,368.1,132z M309.5,80.7c-0.7,2.3-3.3,4.3-5.6,3.5c1.4-0.4-110.3-12.8-225.2-4
		c-4.1,1.1-7.8,0.3-6.1-3.4C81.9,59,89.6,44.3,99,21c62.9-17,129.2-15.5,190.5,6c7.8,14.4,14.8,31,19.4,46.6
		C309.5,75.9,310.2,78.4,309.5,80.7z"/>
	<path opacity="0.2" fill="#3A332C" d="M327.7,96.9c12.5,8,26.2,27.5,26.2,27.5l-5.5-0.9C348.5,123.5,342.8,110.5,327.7,96.9z"/>
	<g>
		<path fill="#382F2B" d="M198.9,29h-17.6c-2,0-3.5-1.6-3.5-3.5v-1.6c0-2,1.6-3.5,3.5-3.5h17.6c2,0,3.5,1.6,3.5,3.5v1.6
			C202.5,27.4,200.9,29,198.9,29z"/>
		<path fill="#382F2B" d="M187.9,13.4c-0.3,0.8-0.3,1.7-0.2,2.5c0.1,2.1,0.3,4.2,0.4,6.3c1.2-0.1,2.5-0.2,3.7-0.3
			c-0.1-1.3-0.2-2.6-0.3-4c2.1-0.7,3.1-3.6,1.7-5.3S188.7,11.3,187.9,13.4z"/>
		<path fill="#382F2B" d="M157.4,58.8c8.4,3.6,14,13.6,12.8,23.1c-24.1,2.6-48.4,2.3-72.5-0.9c2.9-9,10.4-15.8,18.7-19.5
			C124.7,57.8,152.8,56.9,157.4,58.8z"/>
		<path fill="#B5A899" d="M155.8,60.9c7.9,3.2,13.1,12,12,20.4c-22.5,2.3-45.3,2.1-67.7-0.8c2.7-8,9.7-14,17.4-17.3
			C125.3,60.1,151.6,59.2,155.8,60.9z"/>
		<path opacity="0.5" fill="#97826C" d="M125.3,69.5c1.5-3,3.3-6,5.4-8.7c-5.5,0.5-10.5,1.4-13.2,2.5c-7.8,3.3-14.7,9.3-17.4,17.3
			c7.2,0.9,14.4,1.5,21.6,1.9C121.8,78,123.4,73.5,125.3,69.5z"/>
		<path fill="#C5C8C0" d="M297.8,23.7c-63.4-21.7-134.6-26.5-201-5c0,0-19.3,45.1-39.2,69.1c42.6-2.4,190.6-4.8,268.3,3.6
			C325.3,89.7,305.7,45.9,297.8,23.7z M304,83.7c1.4-0.4-110.3-12.8-225.2-4c-4.1,1.1-7.8,0.3-6.1-3.4C82,58.6,89.8,43.9,99.1,20.6
			c62.9-17,129.2-15.5,190.5,6c7.8,14.4,14.8,31,19.4,46.6c0.7,2.3,1.3,4.8,0.6,7.1C308.9,82.6,306.4,84.5,304,83.7z"/>
		<path opacity="0.3" fill="#C5C8C0" d="M304,83.7c1.4-0.4-110.3-12.8-225.2-4c-4.1,1.1-7.8,0.3-6.1-3.4
			C82,58.6,89.8,43.9,99.1,20.6c62.9-17,129.2-15.5,190.5,6c7.8,14.4,14.8,31,19.4,46.6c0.7,2.3,1.3,4.8,0.6,7.1
			C308.9,82.6,306.4,84.5,304,83.7z"/>
		<path fill="#382F2B" d="M317.9,239.5h-39c-11.2,0-20.2-9.1-20.2-20.2v-23h79.4v23C338.1,230.4,329.1,239.5,317.9,239.5z"/>
		<path fill="#382F2B" d="M97,241.2H58c-11.2,0-20.2-9.1-20.2-20.2v-23h79.4v23C117.2,232.2,108.2,241.2,97,241.2z"/>
		<path fill="#C5C8C0" d="M49.9,62.8c-5.8-4.3-15-3.3-19.6,2.3c-4.6,5.6-3.5,15,2.3,19.3c5.8,4.3,15.3,2.4,18.8-4
			c4.2,3.5,8.3,7,12.5,10.4c0.5-6-3.3-12.2-8.9-14.4C56.4,71.6,54.1,65.9,49.9,62.8z"/>
		<path fill="#C5C8C0" d="M332,69.7c5.8-4.3,15-3.3,19.6,2.3c4.6,5.6,3.5,15-2.3,19.3c-5.8,4.3-15.3,2.4-18.8-4
			c-4.2,3.5-8.3,7-12.5,10.4c-0.5-6,3.3-12.2,8.9-14.4C325.5,78.5,327.9,72.8,332,69.7z"/>
		<path fill="#6D5A53" d="M365.2,131c-4.5-8.5-13.2-19.1-19.1-25.3c-1.7-1.9-21.3-14.9-23.6-16.1S193.6,71,57,84.6
			c-10.7,7.9-39.1,30.1-50.7,40.9c5.1-0.4,12.3-6.4,17.5-6.8c17.1-1.4,30,12.2,47.1,13.8c72.8,6.8,145.7-8.4,218.7-8.2
			C313.9,124.4,345.6,150.2,365.2,131z"/>
		<path opacity="0.5" fill="#97826C" d="M365.4,131.1c-5.3-10.1-13.2-19.1-19.1-25.3c-1.7-1.9-21.3-15-23.6-16.1
			c-2.3-1.1-129-18.6-265.6-5c-12.6,9.6-42.1,32.5-50.8,40.9c5.1-0.4,12.4-6.4,17.5-6.8c17.1-1.4,30,12.2,47.1,13.8
			c72.8,6.8,145.7-8.4,218.7-8.2C314.1,124.5,345.8,150.3,365.4,131.1z"/>
		<path fill="#6D5A53" d="M365.2,131c5,22.2-6.1,45.5-11.7,57c-10.4,14.8-221.3,5.2-328.2,5.7C6.9,176.9-2.3,149.9,6.1,125.6
			c8.9-7,15.4-8.2,17.2-8.5c19.8-2.1,37.9-0.7,59,1.4c1.7,1.5,2.4,2.5,4.1,4c0.7-0.9,1.4-1.9,2.1-2.8c50.9-4.8,96.1-5,153.8-2.5
			c13.2,0.6,27.2,1.3,41.9,2.2c1.2,1.3,3.2,3.6,4.3,4.8c1.7-1.9,3.4-3.7,5.1-5.6c14.8-0.6,43.6,2.7,59.2,4.8
			C354.5,123.9,361.9,127.4,365.2,131z"/>
		<path fill="#382F2B" d="M100.1,85.5c-5.3,12.1-11.6,34.3-11.6,34.3l1.4,4.6l18.3-0.1l-9.9,5.4l-10.5-3.3c0,0-2.5-5.2-2.3-4.7
			C85.6,121.7,90.6,100.5,100.1,85.5z"/>
		<path fill="#382F2B" d="M284.5,151.6c0.2-0.5,0.3-1.1,0.5-1.7c3.6-11.5-4.2-23.5-16.2-24.7c-53.7-5.5-93.7-5.1-157.3-1.7
			c-12.1,0.7-20.5,12.2-17.4,23.9l0.1,0.3c2,7.4,8.1,12.9,15.7,14c61.1,8.8,130.1,5,158,2.9C275.5,164.2,282.1,159,284.5,151.6z"/>
		<path fill="#382F2B" d="M288.6,124.4c-1.7-13.7-15.4-33.2-15.4-33.2l11.1,28.4l-3.7,7.8l-10.2-1.5l1.7,4.6l11.3,2.3L288.6,124.4z"
			/>
		<path opacity="0.2" fill="#0A0807" d="M285,144.5c-0.2,0.6-0.4,1.1-0.5,1.7c-2.4,7.4-9,12.6-16.7,13.2c-27.8,2.1-96.8,5.8-158-2.9
			c-7.6-1.1-13.7-6.6-15.7-14L94,142c-0.2-0.7-0.3-1.4-0.4-2.2c-0.4,2.5-0.2,5.1,0.4,7.7l0.1,0.3c2,7.4,8.1,12.9,15.7,14
			c61.1,8.8,130.1,5,158,2.9c7.7-0.6,14.3-5.8,16.7-13.2c0.2-0.5,0.3-1.1,0.5-1.7c0.9-2.9,1.1-5.8,0.7-8.5
			C285.6,142.5,285.3,143.5,285,144.5z"/>
		<path opacity="0.5" fill="#0A0807" d="M93.4,144.2C93.4,144.2,93.4,144.2,93.4,144.2c0.1,0.9,0.2,1.7,0.4,2.6
			c0.1-0.3,0.1-0.5,0.2-0.8c0-0.1,0-0.2,0.1-0.2c0-0.2,0.1-0.4,0.2-0.5c0-0.1,0.1-0.2,0.1-0.3c0.1-0.2,0.1-0.3,0.2-0.5
			c0-0.1,0.1-0.2,0.1-0.3c0.1-0.2,0.1-0.3,0.2-0.5c0-0.1,0.1-0.2,0.1-0.3c0.1-0.2,0.1-0.3,0.2-0.5c0-0.1,0.1-0.2,0.1-0.2
			c0.1-0.2,0.2-0.3,0.2-0.5c0-0.1,0.1-0.1,0.1-0.2c0.1-0.2,0.2-0.4,0.3-0.5c0-0.1,0.1-0.1,0.1-0.2c0.1-0.2,0.2-0.4,0.4-0.6
			c0,0,0-0.1,0-0.1c1-1.7,2.3-3.1,3.8-4.4c0,0,0,0,0,0c0.2-0.2,0.4-0.4,0.7-0.5c-0.1,6.5,0.3,13.1,1.5,19.2c0,0,0,0,0,0
			c0.2,0,0.4,0,0.7,0c0.2-6.7,0.2-13.7-0.2-20.5l0,0c0.8-0.5,1.7-0.9,2.6-1.3c0,0,0,0,0.1,0c0.3-0.1,0.6-0.2,0.9-0.3l0,0
			c-0.3,7.4,0.1,15,1.4,22c0.2,0,0.5,0,0.7,0c0.2-7.3,0.2-15-0.3-22.5c0.5-0.1,1.1-0.2,1.6-0.3c0,0,0.1,0,0.1,0
			c0.2,0,0.5-0.1,0.7-0.1c0.3,0,0.6,0,0.8-0.1c0.2,0,0.3,0,0.5,0c-0.4,7.8,0,15.8,1.4,23c0.2,0,0.5,0,0.7,0
			c0.2-7.5,0.2-15.5-0.4-23.1c0,0,0,0,0,0c1.3-0.1,2.5-0.1,3.8-0.2c-0.4,7.7-0.1,15.7,1.3,22.9c0.3,0,0.5,0,0.8-0.1
			c0.2-7.5,0.2-15.3-0.4-22.9c0,0,0,0,0,0c1.3-0.1,2.6-0.1,3.8-0.2c-0.4,7.7-0.1,15.6,1.2,22.8c0.3,0,0.6,0,0.9,0
			c0.2-7.4,0.1-15.3-0.4-22.8c0,0,0,0,0,0c1.3-0.1,2.6-0.1,3.9-0.2c0,0,0,0,0,0c-0.4,7.7-0.1,15.6,1.2,22.8c0.3,0,0.6,0,0.9,0
			c0.2-7.5,0.1-15.3-0.5-22.9c0,0,0,0,0,0c1.3-0.1,2.6-0.1,3.9-0.2c-0.4,7.7-0.2,15.7,1.1,23c0.3,0,0.6,0,0.9,0
			c0.2-7.5,0.1-15.5-0.5-23.1c0,0,0,0,0,0c1.3-0.1,2.6-0.1,3.9-0.2c0,0,0,0,0,0c-0.4,7.8-0.2,15.9,1.1,23.2c0.3,0,0.6,0,0.9,0
			c0.2-7.6,0.1-15.6-0.5-23.3c0,0,0,0,0,0c1.3-0.1,2.7-0.1,4-0.2c0,0,0,0,0,0c-0.5,7.9-0.2,16,1.1,23.5c0.3,0,0.6,0,0.9,0
			c0.2-7.7,0.1-15.8-0.5-23.5c1.3-0.1,2.7-0.1,4-0.1c-0.5,7.9-0.2,16.2,1.1,23.7c0.1,0,0.2,0,0.3,0c0.2,0,0.4-0.1,0.6-0.1
			c0.2-7.7,0.1-15.9-0.5-23.7c0,0,0,0,0,0c1.4,0,2.7-0.1,4-0.1c-0.5,7.8-0.3,15.8,1,23.2c0.3,0,0.7-0.1,1-0.1
			c0.2-7.6,0.1-15.5-0.6-23.1h0c1.4,0,2.7-0.1,4.1-0.1c0,0,0,0,0,0c-0.5,7.6-0.3,15.5,0.9,22.8c0.4,0,0.8-0.1,1.2-0.1
			c0.1-7.5,0.1-15.3-0.6-22.8c0,0,0,0,0,0c1.4,0,2.7-0.1,4.1-0.1c0,0,0,0,0,0c-0.5,7.5-0.3,15.3,0.8,22.6c0.4,0,0.8-0.1,1.2-0.1
			c0.1-7.4,0-15.1-0.6-22.5c0,0,0,0,0,0c1.4,0,2.7-0.1,4.1-0.1c-0.5,7.4-0.4,15.2,0.7,22.4c0.4,0,0.9,0,1.3-0.1
			c0.1-7.4,0-15-0.6-22.3c0,0,0,0,0,0c1.4,0,2.7,0,4.1-0.1c-0.5,7.4-0.4,15.1,0.7,22.3c0.4,0,0.9,0,1.3,0c0.1-7.3,0-15-0.6-22.3h0
			c1.4,0,2.8,0,4.1,0c0,0,0,0,0,0c-0.5,7.4-0.4,15.1,0.7,22.2c0.4,0,0.9,0,1.3,0c0.1-7.3,0-14.9-0.6-22.2c0,0,0,0,0,0
			c1.4,0,2.7,0,4.1,0h0c-0.5,7.4-0.4,15.1,0.7,22.3c0.4,0,0.9,0,1.3,0c0.1-7.3,0-15-0.6-22.3h0c1.4,0,2.8,0,4.1,0
			c-0.5,7.4-0.4,15.2,0.7,22.4c0.4,0,0.9,0,1.3,0c0.1-7.4,0-15-0.6-22.4c1.4,0,2.7,0,4.1,0c0,0,0,0,0,0c-0.5,7.5-0.4,15.3,0.7,22.5
			c0.4,0,0.9,0,1.3,0.1c0.1-7.4,0-15.1-0.6-22.5c0,0,0,0,0,0c1.4,0,2.7,0,4.1,0.1c-0.5,7.5-0.3,15.4,0.8,22.6c0.4,0,0.8,0,1.2,0
			c0.1-7.4,0-15.1-0.6-22.6c1.4,0,2.7,0.1,4.1,0.1c0,0,0,0,0,0c-0.5,7.5-0.3,15.3,0.8,22.5c0.4,0,0.7,0,1.1,0c0,0,0.1,0,0.1,0
			c0.1-7.4,0-15.1-0.6-22.4c1.4,0,2.7,0.1,4.1,0.1c-0.5,7.3-0.3,15,0.8,22c0.4,0,0.9-0.1,1.3-0.1c0.1-7.2,0-14.7-0.6-21.9
			c1.3,0.1,2.7,0.1,4,0.2c0,0,0,0,0,0c-0.4,7.2-0.3,14.6,0.7,21.5c0.4,0,0.9,0,1.3-0.1c0.1-7,0-14.3-0.6-21.3c1.3,0.1,2.7,0.1,4,0.2
			c0,0,0,0,0,0c-0.4,7-0.3,14.2,0.7,21c0.5,0,0.9,0,1.4-0.1c0.1-6.9,0-14-0.6-20.8c1.3,0.1,2.6,0.1,4,0.2
			c-0.4,6.8-0.2,13.9,0.7,20.5c0.5,0,0.9,0,1.4,0c0.1-6.7,0-13.7-0.5-20.4c1.3,0.1,2.6,0.2,3.9,0.2c0,0,0,0,0,0
			c-0.4,6.7-0.2,13.6,0.7,20.1c0.5,0,0.9,0,1.4,0c0.1-6.6,0-13.4-0.5-19.9c1.3,0.1,2.6,0.2,3.9,0.3c-0.3,6.6-0.2,13.4,0.7,19.7
			c0.2,0,0.5,0,0.7,0c0.2,0,0.4,0,0.7,0c0.1-6.5,0-13.1-0.5-19.6c1.3,0.1,2.5,0.2,3.8,0.3c-0.3,6.5-0.1,13.2,0.8,19.5
			c0.5,0,0.9,0,1.4,0.1c0.1-6.4,0-13-0.4-19.4c0,0,0,0,0,0c1.2,0.1,2.5,0.2,3.8,0.3c-0.3,6.5-0.1,13.1,0.8,19.3
			c0.4,0,0.9,0.1,1.3,0.1c0.1-6.3,0-12.9-0.4-19.3c1.2,0.1,2.5,0.2,3.7,0.3c-0.3,6.5,0,13.1,0.9,19.3c0.4,0,0.8,0.1,1.2,0.1
			c0.1-6.3,0.1-12.9-0.4-19.3c1.2,0.1,2.4,0.2,3.7,0.4c-0.2,6.6,0,13.3,1.1,19.6c0.4,0.1,0.7,0.1,1.1,0.2c0.1-6.4,0.1-13.1-0.3-19.6
			c0.3,0,0.7,0.1,1,0.1c0.4,0,0.8,0.1,1.2,0.2c0,0,0.1,0,0.1,0c0.4,0.1,0.8,0.2,1.2,0.3c-0.2,6.7,0.2,13.6,1.3,19.9
			c0.3,0.1,0.6,0.1,0.9,0.2c0.1-6.4,0.1-13-0.2-19.5l0,0c0.3,0.1,0.6,0.2,0.9,0.3c0.1,0,0.1,0,0.2,0.1c0.2,0.1,0.4,0.2,0.7,0.3
			c0.1,0,0.1,0.1,0.2,0.1c0.2,0.1,0.4,0.2,0.6,0.3c0.1,0,0.1,0.1,0.2,0.1c0.3,0.1,0.5,0.3,0.8,0.5c-0.1,6.4,0.4,12.8,1.5,18.8
			c0.2,0.1,0.3,0.3,0.5,0.4c0,0,0.1,0,0.1,0c0.2-5.7,0.2-11.7,0-17.6l0,0c1.4,1.2,2.7,2.6,3.7,4.1c0,0,0,0,0,0.1
			c0.1,0.2,0.3,0.4,0.4,0.6c0,0,0.1,0.1,0.1,0.1c0.1,0.2,0.2,0.3,0.3,0.5c0,0.1,0.1,0.1,0.1,0.2c0.1,0.2,0.2,0.3,0.3,0.5
			c0,0.1,0.1,0.1,0.1,0.2c0.1,0.2,0.2,0.3,0.2,0.5c0,0.1,0.1,0.2,0.1,0.2c0.1,0.2,0.1,0.3,0.2,0.5c0,0.1,0.1,0.2,0.1,0.3
			c0.1,0.2,0.1,0.3,0.2,0.5c0,0.1,0.1,0.2,0.1,0.3c0.1,0.2,0.1,0.3,0.2,0.5c0,0.1,0.1,0.2,0.1,0.3c0.1,0.2,0.1,0.3,0.1,0.5
			c0,0.1,0,0.2,0.1,0.2c0.1,0.3,0.1,0.5,0.2,0.8c0.1-0.5,0.2-1,0.2-1.5c0,0,0-0.1,0-0.1l0,0c0-0.3,0.1-0.6,0.1-0.9l0,0
			c0-0.1,0-0.2,0-0.3v0c0.1-1.3,0-2.5-0.2-3.8l0,0c0-0.1,0-0.2,0-0.2v0c-0.1-0.9-0.3-1.7-0.6-2.5c0,0,0-0.1,0-0.1l0,0
			c-0.7-2.2-1.7-4.2-3.1-6l0,0c-1-1.3-2.2-2.5-3.5-3.5l0,0l0,0c-0.8-0.6-1.5-1.1-2.4-1.6c0,0,0,0,0,0l0,0c-0.3-0.2-0.7-0.4-1-0.5v0
			c0,0,0,0,0,0c-1-0.5-2.1-0.9-3.2-1.2c0,0,0,0,0,0l0,0c-0.4-0.1-0.9-0.2-1.3-0.3c0,0,0,0,0,0c0,0-0.1,0-0.1,0
			c-0.3,0-0.5-0.1-0.8-0.1c-0.3,0-0.5-0.1-0.8-0.1c-4.4-0.4-20.6-1.9-24.2-2.1c0,0,0,0,0,0c0,0,0,0,0,0c-1.8-0.1-3.6-0.3-5.4-0.4
			c0,0-0.1,0-0.1,0c0,0,0,0,0,0c-4.8-0.3-9.6-0.6-14.3-0.8c0,0,0,0,0,0l0,0c0,0,0,0,0,0c-6.9-0.3-13.7-0.6-20.5-0.7l0,0c0,0,0,0,0,0
			c-2.9-0.1-5.9-0.1-8.9-0.1c0,0,0,0,0,0c0,0,0,0,0,0c-1,0-1.9,0-2.9,0h0c0,0,0,0,0,0c-1.5,0-3,0-4.4,0c0,0,0,0,0,0
			c-1.5,0-3,0-4.5,0c0,0,0,0,0,0c0,0,0,0,0,0c-1.5,0-3.1,0-4.6,0c-1.5,0-3.1,0-4.6,0.1c0,0-0.1,0-0.1,0c0,0,0,0,0,0c-1,0-2,0-3,0.1
			c0,0,0,0,0,0c-3,0.1-6.1,0.1-9.2,0.2l0,0c0,0,0,0,0,0c-1.7,0-3.3,0.1-5,0.1c0,0,0,0,0,0c-1.6,0-3.1,0.1-4.7,0.2c0,0,0,0,0,0
			c-0.1,0-0.3,0-0.4,0c0,0,0,0,0,0c-3.2,0.1-6.5,0.2-9.9,0.4c-0.1,0-0.1,0-0.2,0c0,0,0,0,0,0c-1,0-2.1,0.1-3.2,0.1
			c-0.1,0-0.2,0-0.3,0c0,0,0,0,0,0c-4.6,0.2-9.3,0.4-14.1,0.7c0,0,0,0,0,0c0,0-0.1,0-0.1,0c-4,0.2-8.1,0.4-12.3,0.6
			c-0.3,0-0.7,0-1,0.1l0,0c-1,0.1-2,0.3-2.9,0.6l0,0c0,0,0,0,0,0c-0.6,0.2-1.1,0.3-1.7,0.5c0,0,0,0,0,0c0,0-0.1,0-0.1,0
			c-0.3,0.1-0.6,0.2-0.9,0.4c0,0,0,0,0,0c-0.3,0.1-0.6,0.3-0.9,0.4c0,0,0,0,0,0c-0.3,0.1-0.6,0.3-0.8,0.4c0,0,0,0,0,0
			c-1.8,1-3.4,2.4-4.8,3.9c0,0,0,0,0,0l0,0c-0.6,0.7-1.1,1.4-1.6,2.1l0,0l0,0c-0.2,0.4-0.5,0.7-0.7,1.1l0,0c0,0,0,0,0,0
			c-0.7,1.1-1.2,2.4-1.6,3.6c0,0.1,0,0.1-0.1,0.2l0,0c-0.2,0.8-0.4,1.6-0.6,2.4c0,0,0,0,0,0c0,0,0,0.1,0,0.1
			c-0.2,1.3-0.3,2.7-0.2,4.1C93.4,144.1,93.4,144.1,93.4,144.2z"/>
		<path fill="#6D5A53" d="M10.3,170.8c0,0-1.6,11,0,19c5.6,16.3,23.8,37,23.8,37c0.2,0,301.1-1.7,306.1-3
			c11.1-2.9,22.6-35.2,23.3-40.4c0.8-5.2-0.3-14.6-1.3-14.1c0,0-7.5,13.8-9.7,18.3c-21.4,9.5-324.3-1.7-324.3-1.7L10.3,170.8z"/>
		<path fill="#B5A899" d="M243.5,189.8l3.8,13.2c0,0,4.8,11.1-3.8,22.3c-5,0-40.4,0-40.4,0c0.3-6.5,0.5-13.9,0-22.3
			c0,0-3-13.2-3.1-13.2S243.5,189.8,243.5,189.8z"/>
		<path fill="#B5A899" d="M175.2,190.1l-4.1,12.8c-0.5,7.8-0.7,15.5-0.5,22.9l-46,0.3c-2.6-5.1-4.9-15.4,0-23.3l6.7-13.2
			L175.2,190.1z"/>
		<path opacity="0.2" fill="#3A332C" d="M18.2,188c0-1,72.9,0.4,72.9,0.4l21.5,14.6h152l8.2-17.8l83.9-3.8l3.1-8.3l-346.1,1.2
			L18.2,188z"/>
		<path opacity="0.2" fill="#3A332C" d="M86.5,122.6c1.6-13.5,12.3-35.5,12.3-35.5s-12.9,19.8-16.3,31.4L86.5,122.6z"/>
		<path opacity="0.2" fill="#3A332C" d="M288.6,124.4c-0.8-8.8-7.6-20.7-15.4-33.2c8.9,8.9,16.9,17.9,20.6,27.6L288.6,124.4z"/>
		<path opacity="0.2" fill="#3A332C" d="M292.1,128.7c4.7,14.8,3.6,23.4-4.5,32.6c-2.6,0.4,24.9,6.4,57.8,4.1
			c16.6-2.7,16.6-30.6-1.3-34.8C325,128.4,292.1,128.7,292.1,128.7z"/>
		<path fill="#382F2B" d="M11.9,171c154.3,8.1,348.5-0.6,348.5-0.6s2.3,2.3-3.1,3.3c-5.4,1-85.6,1.8-85.6,1.8l-5.8,14.3H110.9
			l-13.6-11.5l-83.5-4C13.8,174.2,8.4,173,11.9,171z"/>
		<path opacity="0.2" fill="#3A332C" d="M287.7,161.4l33.8-4.2c0,0,0-16.3,0-19.4l-23.1-9.3c0,0,39.8,1.7,41.1,1.8
			c1.4,0.1,12.6,2.3,16.1,6.4c7,12.1-2.2,24.7-5.2,27.1C340.9,171.2,287.7,161.4,287.7,161.4z"/>
		<path fill="#3A332C" d="M306,167.2"/>
		<path fill="#382F2B" d="M358.6,137.8c4.1,21.2-9.8,26.3-8.2,25.9c0,0,8.9-15.6,2.7-25c-5.1-8.8-61-10-61-10
			S353.3,124.7,358.6,137.8z"/>
		<g>
			<path opacity="0.2" fill="#3A332C" d="M90.6,126.4c-7.5,9-7.5,24.2,0,33.8c2.5,0.5-32.7,5.1-65.4,1.1
				c-16.4-3.6-14.9-31.4,3.2-34.7C47.6,125.4,90.6,126.4,90.6,126.4z"/>
			<path opacity="0.2" fill="#3A332C" d="M90.6,160.2l-39.7-4.9v-19.4l23.2-9c0,0-39.8-0.5-41.2-0.4c-1.4,0.1-12.7,1.6-16.4,5.5
				c-7.6,11.8,0.9,24.7,3.8,27.3C29.4,167.3,90.6,160.2,90.6,160.2z"/>
			<path fill="#382F2B" d="M13.5,133c-5.2,21,8.3,26.8,6.8,26.3c0,0-8-16-1.4-25.1c5.6-8.5,71.6-7.8,71.6-7.8S19.5,120.2,13.5,133z"
				/>
		</g>
		<path fill="#382F2B" d="M178.7,102.7h-48.6l-2.5,3.1l51,0.6c1,0,1.8-0.8,1.8-1.8v0C180.5,103.5,179.7,102.7,178.7,102.7z"/>
		<path fill="#382F2B" d="M191.9,102.7h48.6l1.8,3.7h-50.4c-1,0-1.8-0.8-1.8-1.8v0C190.1,103.5,190.9,102.7,191.9,102.7z"/>
		<path opacity="0.5" fill="#97826C" d="M235.9,81.7l10.7,17.1l-59.9,0.1l-2.5,3.3l-2.4-3.4h-57.2l6.7-18.3
			C131.4,80.5,190.1,77.9,235.9,81.7z"/>
		<polygon opacity="0.2" fill="#3A332C" points="120,102.2 131.3,80.5 124.6,98.9 		"/>
		<polygon opacity="0.2" fill="#3A332C" points="246.6,98.9 249.7,102.7 236.7,81.8 		"/>
		<path opacity="0.2" fill="#3A332C" d="M186.6,82.8c0.4-1.6-1-2.3-2.3-2.3v21.6l2.4-3.2C186.8,98.2,186.6,84.6,186.6,82.8z"/>
		<path opacity="0.2" fill="#3A332C" d="M327.8,96.5c12.5,8,26.2,27.5,26.2,27.5l-5.5-0.9C348.6,123,342.9,110.1,327.8,96.5z"/>
		<polygon opacity="0.2" fill="#3A332C" points="28.1,116.7 55.2,91.3 37.6,116.2 		"/>
		<g>
			<circle fill="#382F2B" cx="29.4" cy="145" r="16.9"/>
			<circle fill="#C5C8C0" cx="28.3" cy="143.7" r="13.7"/>
		</g>
		<polygon fill="#B5A899" points="227.2,81 236.7,98.9 194.3,98.9 192.3,79.7 		"/>
		<polygon fill="#B5A899" points="178.8,79.5 178,98.9 138.1,98.9 144.7,79.5 		"/>
		<polygon fill="#B5A899" points="176.7,109.5 134,109.4 130.9,116.6 131.9,122.9 176,121.5 176.7,115.7 		"/>
		<polygon fill="#B5A899" points="241.6,109.5 246.6,117.3 245.3,123.2 196.6,121.1 196.6,115.9 195.8,109.5 		"/>
		<path opacity="0.2" fill="#3A332C" d="M245.3,123.2l1.3-5.9c-14.9-0.7-34.4-1.2-50-1.5v5.5C212.4,121.6,231.5,122.2,245.3,123.2z"
			/>
		<polygon opacity="0.2" fill="#3A332C" points="122.4,109.5 246.6,109.5 247.3,110.8 186.8,112.1 122.9,110.3 		"/>
		<polygon opacity="0.2" fill="#3A332C" points="130.9,116.6 176.7,115.7 176,121.5 131.9,122.9 		"/>
		<path fill="#B5A899" d="M243.2,166.6c1.1,4.5-1.3,7.2-0.9,7.2l-45.5,0.6c0,0,1.3-3.2,0.8-6.6C199.6,167.8,241.5,166.6,243.2,166.6
			z"/>
		<path fill="#B5A899" d="M175.2,167.7c-1.4,3.8,0,6.6,0,6.6h-45.6c0,0-4.7-4.5,0-9.8L175.2,167.7z"/>
		<path fill="#FFFFFF" d="M170.6,212.2"/>
		<path opacity="0.5" fill="#0A0807" d="M116.2,186.8c0.3,0,0.6,0,0.9,0c0.3-2.2,0.7-4.6,0.1-6.7h4.2c0,2.3-0.3,4.5,0.3,6.7
			c0.3,0,0.6,0,0.9,0c0.3-2.2,0.7-4.5,0.1-6.7h4.2c0,2.2-0.3,4.4,0.3,6.5c0.3,0,0.6,0,1,0c0.3-2.2,0.7-4.4,0.1-6.4h4.2
			c0,2.1-0.3,4.2,0.2,6.2c0.4,0,0.7,0,1.1-0.1c0.2-2,0.6-4.1,0-6.1h4.2c0,2-0.3,3.9,0.1,5.8c0.4,0,0.8-0.1,1.2-0.1
			c0.2-1.9,0.5-3.9,0-5.8h4.2c0,1.8-0.4,3.7,0,5.5c0.4,0,0.9,0,1.3-0.1c0.1-1.8,0.5-3.7,0-5.4h4.2c0,1.8-0.4,3.5,0,5.3
			c0.5,0,0.9,0,1.4,0c0.1-1.8,0.4-3.5,0-5.2h4.2c0,1.7-0.4,3.5,0,5.2c0.1,0,0.2,0,0.4,0c0.3,0,0.7,0,1,0c0.1-1.7,0.4-3.5,0-5.2h4.2
			c0,1.7-0.4,3.5,0,5.2c0.5,0,0.9,0,1.4,0c0.1-1.8,0.4-3.5,0-5.2h4.2c0,1.8-0.4,3.5,0,5.2c0.5,0,0.9,0,1.4,0c0.1-1.8,0.4-3.5,0-5.2
			h4.2c0,1.8-0.4,3.5,0,5.2c0.5,0,0.9,0,1.4,0c0.1-1.8,0.4-3.5,0-5.2h4.2c0,1.8-0.4,3.5,0,5.2c0.5,0,0.9,0,1.4,0
			c0.1-1.8,0.4-3.5,0-5.2h4.2c0,1.7-0.4,3.5,0,5.2c0.5,0,0.9,0,1.4,0c0.1-1.7,0.4-3.5,0-5.2h4.2c0,1.7-0.4,3.4,0,5.1
			c0.5,0,0.9,0,1.4,0c0.1-1.7,0.4-3.4,0-5.1h4.2c0,1.7-0.4,3.4-0.1,5c0.2,0,0.4,0,0.6,0c0.3,0,0.6,0,0.9,0c0.1-1.7,0.4-3.4,0-5h4.2
			c0,1.6-0.4,3.3-0.1,4.9c0.5,0,1,0,1.5,0c0-1.6,0.4-3.3,0-4.9h4.2c0,1.6-0.4,3.2-0.1,4.8c0.5,0,1,0,1.5,0c0-1.6,0.4-3.3,0-4.8h4.2
			c0,1.6-0.4,3.2-0.1,4.8c0.5,0,1,0,1.5,0c0-1.6,0.4-3.2,0-4.8h4.2c0,1.6-0.4,3.2-0.1,4.7c0.5,0,1,0,1.5,0c0-1.6,0.4-3.2,0-4.7h4.2
			c0,1.6-0.4,3.1-0.1,4.7c0.5,0,1,0,1.5,0c0-1.6,0.4-3.1,0-4.7h4.2c0,1.5-0.4,3.1-0.2,4.6c0.5,0,1,0,1.5,0c0-1.5,0.4-3.1,0-4.5h4.2
			c0,1.5-0.4,2.9-0.2,4.4c0.4,0,0.8,0,1.2,0c0.1,0,0.2,0,0.3,0c0-1.5,0.3-2.9,0-4.3h4.2c0,1.4-0.5,2.8-0.2,4.1
			c0.5,0,1.1-0.1,1.6-0.1c0-1.4,0.3-2.7,0-4.1h4.2c0,1.3-0.5,2.6-0.3,3.9c0.5,0,1.1-0.1,1.6-0.1c0-1.3,0.3-2.6,0-3.8h4.2
			c0,1.2-0.5,2.4-0.3,3.6c0.6,0,1.1,0,1.7,0c-0.1-1.2,0.3-2.4,0-3.6h4.2c0,1.2-0.5,2.4-0.3,3.6c0.6,0,1.1,0,1.7,0
			c-0.1-1.2,0.3-2.4,0-3.6h4.2c0,1.2-0.5,2.5-0.3,3.7c0.6,0,1.1,0.1,1.7,0.1c0-1.3,0.3-2.6,0-3.8h4.2l4.6-6.4l-167.5,0.6l6.3,5.7
			h8.1C115.8,182.4,115.5,184.6,116.2,186.8z"/>
		<circle fill="#382F2B" cx="342.1" cy="148.5" r="16.9"/>
		<circle fill="#C5C8C0" cx="343.3" cy="147.4" r="13.7"/>
		<circle opacity="0.2" fill="#3A332C" cx="343.3" cy="146.9" r="7.1"/>
		<circle opacity="0.2" fill="#3A332C" cx="28.3" cy="143.5" r="7.1"/>
		<g>
			<circle opacity="0.5" fill="#0A0807" cx="326.4" cy="204" r="8.8"/>
			<circle fill="#C5C8C0" cx="324.2" cy="201.9" r="8.8"/>
			<circle opacity="0.2" fill="#3A332C" cx="324.2" cy="201.9" r="4.2"/>
		</g>
		<g>
			<circle opacity="0.5" fill="#0A0807" cx="58.2" cy="205.2" r="8.8"/>
			<circle fill="#C5C8C0" cx="55.4" cy="202.8" r="8.8"/>
			<circle opacity="0.2" fill="#3A332C" cx="55.1" cy="202.6" r="4.2"/>
		</g>
		<polygon fill="#382F2B" points="321.5,157.1 319.3,157.8 319.3,137.1 321.5,137.7 		"/>
		<polygon fill="#382F2B" points="50.9,155.3 53.1,156 53.1,135.3 50.9,135.9 		"/>
		<ellipse fill="#C5C8C0" cx="191.1" cy="142.3" rx="11.9" ry="4.8"/>
		<path fill="#382F2B" d="M312.4,76.7c-1.6-5.1-12.1-35.8-21.5-51.8c0,0-35.9-17.2-108.9-17.3c-58.1,1.9-83.6,12.2-83.6,12.2
			c1.3-0.5-26.1,55.8-27.6,57.7c-0.6,0.4-0.3,4.9,3.3,4c15.5-3.9,63.4-5.1,111.5-3.8c57.5,1.5,115.3,6.1,118.9,7.7
			C309.8,86.1,313.4,81.1,312.4,76.7z M76.8,80.1c-3.2,0.4-5.6-0.7-4.1-3.8C82,58.6,89.8,43.9,99.1,20.6c62.9-17,129.2-15.5,190.5,6
			c7.8,14.4,14.8,31,19.4,46.6c0.7,2.3,1.3,4.8,0.6,7.1c-0.7,2.3-3.1,3.7-5.6,3.5c0.9-0.3-62.1-7-129.6-7.9
			C136.1,75,98.1,76.2,76.8,80.1z"/>
	</g>
	<path fill="#382F2B" d="M55.1,91.7c0,0-15.6,19.2-19.7,25l0.8,1.5c0.6,0.1,1.3,0.2,1.9,0.2c16.7-0.3,44.2,0.6,44.2,0.6
		s-12.8-3.1-44.8-2.4L55.1,91.7z"/>
	<path fill="#382F2B" d="M4.4,131.4c4.2-9.5,16.6-13.6,16.6-13.6c-3.7,0.8-10.1,2.1-13.1,4.5C5,124.8,4.1,127.6,4.4,131.4z"/>
	<polygon fill="#382F2B" points="314.4,95.4 296.6,94.3 297.2,95.2 315.1,96.3 	"/>
	<polygon fill="#382F2B" points="316.1,97.6 298.3,96.5 299.3,97.7 317.2,98.8 	"/>
	<polygon fill="#382F2B" points="317.8,100.1 300,99 301.2,100.4 319.1,101.5 	"/>
	<circle opacity="0.5" fill="#FFFFFF" cx="342.8" cy="76.4" r="6.7"/>
	<circle opacity="0.5" fill="#FFFFFF" cx="44.9" cy="70.8" r="6.7"/>
	<path fill="#382F2B" d="M322.2,83.5c0,0,3.7,8,3.6,8.3c-0.1,0.2-0.7-8.7-0.7-8.7L322.2,83.5z"/>
	<path opacity="0.2" fill="#3A332C" d="M332.8,91.6c3.1,2.9,7.9,3.8,11.8,2.1c-8.4-2.7-15-10.1-16.9-18.7c-1.2,2.9-1.5,6.1-0.9,9.1
		c-0.7,0.2-1.3,0.4-2,0.7c0.3,2.6,0.7,5.3,1,7.9c0.8-1.5,1.9-3.3,3.7-3.2C330.9,89.5,331.8,90.7,332.8,91.6z"/>
	<path opacity="0.2" fill="#3A332C" d="M55.5,85c-1-0.9-2.5-1.2-3.8-0.9c-1.3,0.2-2.6,0.8-3.8,1.4c-2.6,1.2-5.3,2.3-8.1,2.6
		c-2.9,0.3-5.9-0.3-8.1-2.2C30,84.3,29,82.2,28.2,80C27.5,78,27,76,27,74c0-2.1,0.6-4.2,2-5.7c-1.3,5.5,1.5,11.7,6.5,14.4
		c5,2.6,11.8,1.4,15.5-2.8c2.1,1.4,4.3,2.8,6.4,4.2c0.4,0.3,0.9,0.6,1.2,1c0.3,0.4,0.3,1.1-0.1,1.5c-0.4,0.4-1.2,0.3-1.7-0.1
		C56.3,86,56,85.4,55.5,85z"/>
</g>
</svg>
