<?xml version="1.0" encoding="utf-8"?>
<!-- Generator: Adobe Illustrator 17.1.0, SVG Export Plug-In . SVG Version: 6.00 Build 0)  -->
<!DOCTYPE svg PUBLIC "-//W3C//DTD SVG 1.1//EN" "http://www.w3.org/Graphics/SVG/1.1/DTD/svg11.dtd">
<svg version="1.1" id="Capa_1" xmlns="http://www.w3.org/2000/svg" xmlns:xlink="http://www.w3.org/1999/xlink" x="0px" y="0px"
	 viewBox="2459.3 1400.6 845.6 180.4" enable-background="new 2459.3 1400.6 845.6 180.4" xml:space="preserve">
<g id="utDLG8.tif">
	<g>
		<path fill="#938D84" d="M2663.6,1491.2c0,7.6,0,15.2,0,22.8c0,7.3-3.1,12.7-9.4,16.3c-27.7,15.9-55.4,31.9-83.1,47.9
			c-6.2,3.6-12.6,3.8-18.8,0.2c-27.9-16-55.7-32-83.5-48c-6.2-3.6-9.5-9.1-9.5-16.3c0-15.4,0-30.7,0.1-46.1
			c0-7.8,3.4-13.4,10.3-17.3c27.4-15.6,54.6-31.3,81.8-47.1c6.8-4,13.3-4,20.1-0.1c27.2,15.8,54.5,31.5,81.8,47.1
			c7,4,10.4,9.8,10.3,17.8C2663.6,1476,2663.7,1483.6,2663.6,1491.2z M2653.3,1491.2c0-7.1-0.2-14.2,0.1-21.3
			c0.2-4.5-1.6-7.2-5.4-9.4c-27.1-15.5-54.3-31.2-81.4-46.8c-3.4-2-6.5-2.1-9.9-0.1c-27.3,15.9-54.7,31.7-82.1,47.4
			c-3.3,1.9-4.8,4.3-4.8,8.2c0.1,14.7,0.1,29.4-0.1,44.1c-0.1,4.1,1.6,6.6,5,8.6c27.4,15.8,54.8,31.5,82.2,47.4
			c3.1,1.8,5.9,1.9,9.1,0.1c27.6-16,55.3-32,83-47.9c3.2-1.8,4.4-4.3,4.4-7.9C2653.2,1506,2653.3,1498.6,2653.3,1491.2z"/>
		<path fill="#938D84" d="M3121.3,1496c6.1-11.3,11.8-22,17.6-32.5c1.2-2.2,3.3-3.9,5-5.8c1,2.3,2.4,4.6,2.8,7
			c2.9,16.2,5.6,32.4,8.3,48.6c0.3,1.6,0.4,3.2,0.6,5.6c-4,0-7.7,0.2-11.3-0.2c-1-0.1-2.2-2.1-2.4-3.3c-1.3-7.6-2.3-15.2-4.5-23.2
			c-1.5,2.9-3,5.7-4.5,8.6c-2.8,5.4-5.6,10.9-8.6,16.3c-0.6,1.1-2.1,2.7-2.9,2.5c-1.3-0.2-2.8-1.4-3.4-2.6
			c-4.4-8.2-8.7-16.5-13.8-26.2c-1.1,7-1.9,12.6-2.8,18.1c-1.8,11.1-2.8,11.7-14.8,9.2c0.9-5.6,1.9-11.3,2.8-16.9
			c2.2-13,4.4-26.1,6.7-39.1c0.3-1.6,1.6-3,2.5-4.5c1.3,1.2,3,2.2,3.8,3.7C3108.7,1472.6,3114.7,1483.8,3121.3,1496z"/>
		<path fill="#938D84" d="M2814.5,1488.6c0.1,17.4-13.5,31.1-30.9,31.2c-17.5,0.1-31.3-13.4-31.4-30.7
			c-0.2-17.5,13.6-31.5,31.2-31.5C2800.7,1457.7,2814.4,1471.3,2814.5,1488.6z M2800.7,1488.8c0-9.5-7.7-17.3-17.1-17.5
			c-9.4-0.1-17.7,8.1-17.6,17.6c0.1,9.4,8.1,17.2,17.5,17.2C2792.9,1506.1,2800.7,1498.2,2800.7,1488.8z"/>
		<path fill="#938D84" d="M2825.1,1488.3c0-8.4,0.1-16.8-0.1-25.2c-0.1-3.6,1.2-4.8,4.8-4.7c6.4,0.2,12.9-0.1,19.3,0.1
			c16.4,0.5,29.1,13.7,29.1,30.1c0,16.4-12.7,29.7-29,30.2c-6.6,0.2-13.2-0.1-19.8,0.1c-3.5,0.1-4.4-1.3-4.3-4.6
			C2825.2,1505.7,2825.1,1497,2825.1,1488.3z M2838.8,1506c9.3,0.8,17.9,0.8,22.9-8.3c3.7-6.8,3.4-13.8-1.3-20
			c-5.5-7.4-13.4-7-21.5-6.1C2838.8,1483.1,2838.8,1494.3,2838.8,1506z"/>
		<path fill="#938D84" d="M2902.7,1471.1c0,3.9,0,7.1,0,10.8c5.7,0,11.1,0.2,16.6-0.1c3.6-0.2,4.8,1,4.7,4.6c-0.3,9.5,0.8,7.9-8,8
			c-4.3,0.1-8.6,0-13.2,0c0,4,0,7.5,0,11.7c6.7,0,13.4,0.4,20.1-0.1c5.3-0.4,5.7,2.2,5.6,6.4c-0.1,3.9,0.1,6.8-5.4,6.5
			c-9.8-0.5-19.7-0.2-29.5-0.1c-3.3,0.1-4.6-0.8-4.5-4.3c0.1-17.3,0.1-34.5,0-51.8c0-3.5,1.2-4.4,4.5-4.4c10.2,0.1,20.3,0.2,30.5,0
			c3.4-0.1,4.7,1.2,4.4,4.5c-0.1,1.4-0.1,2.9,0,4.4c0.2,3-1.2,3.9-4.1,3.9C2917.2,1471.1,2910.1,1471.1,2902.7,1471.1z"/>
		<path fill="#938D84" d="M3279.3,1471.1c0,3.9,0,7.1,0,10.7c7,0,13.7,0,20.8,0c0,4.4,0,8.3,0,12.7c-7,0-13.7,0-20.8,0
			c0,4.1,0,7.7,0,11.8c7.1,0,13.8,0.2,20.6-0.1c3.8-0.1,5.4,1.1,4.9,5c-0.1,0.9-0.1,2,0,2.9c0.6,3.9-1,5-4.8,4.9
			c-9.8-0.2-19.7-0.2-29.5,0c-3.5,0.1-4.9-0.8-4.8-4.6c0.2-17.1,0.2-34.2,0-51.3c0-3.7,1.2-4.7,4.7-4.6c9.8,0.2,19.7,0.2,29.5,0
			c3.7-0.1,5.6,0.9,4.9,4.8c0,0.2,0,0.3,0,0.5c0,7.4,0,7.4-7.2,7.4C3291.6,1471.1,3285.7,1471.1,3279.3,1471.1z"/>
		<path fill="#938D84" d="M2747,1467c-1.1,1.3-2.1,2.3-3,3.4c-2.9,3.8-5.3,5.7-10.5,2.2c-6.7-4.5-15.4-2.1-20.5,3.9
			c-5.4,6.4-5.7,15.6-0.9,22.4c4.7,6.5,13,8.9,20.7,5.6c1.9-0.8,3.7-2,6-3.2c1.2,1.2,2.7,2.4,3.9,3.7c5.3,5.5,5.2,6.4-1.6,10.4
			c-11,6.6-25.6,5.4-35.8-2.8c-9.9-8-13.8-21.8-9.6-34.1c4.3-12.6,15.7-20.9,29-21C2734.3,1457.5,2741.6,1460.5,2747,1467z"/>
		<path fill="#938D84" d="M2999.1,1501.7c0.4,0.1,0.6,0.1,0.7,0.1c2.5,3,5,6,7.4,9c-3.2,2.3-6.2,5.2-9.7,6.8
			c-13.4,5.7-29.7,0.5-37.6-11.6c-8.2-12.5-6.4-29.2,4.2-39.5c10.5-10.2,27.5-11.9,39.2-3.8c5,3.4,4.9,3.8,1,8.3
			c-3,3.5-5.2,4.8-9.9,1.8c-6.8-4.5-15.8-2.2-20.9,4c-5.4,6.6-5.5,16.2-0.3,22.9c4.9,6.3,13.4,8.2,21,4.7
			C2995.9,1503.5,2997.6,1502.5,2999.1,1501.7z"/>
		<path fill="#938D84" d="M3217.7,1518.9c-4.4,0-8,0.4-11.4-0.2c-1.5-0.3-3.4-2.4-4-4c-1.3-3.9-3.7-5.1-7.6-4.7
			c-3.2,0.3-6.5,0.3-9.7,0c-5.4-0.4-10.3-0.3-11.7,6.5c-0.2,1-2,2.2-3.2,2.3c-3.5,0.3-7,0.1-11.3,0.1c0.8-2.3,1.2-3.8,1.8-5.2
			c8.1-17.4,16.2-34.8,24.3-52.2c0.7-1.5,2.1-2.6,3.2-3.8c1.1,1.2,2.6,2.2,3.3,3.7c8.3,17.7,16.5,35.4,24.8,53.1
			C3216.6,1515.6,3216.9,1516.8,3217.7,1518.9z M3194.7,1498.2c-2.2-4.8-4.2-9.1-6.7-14.4c-2.4,5.5-4.3,9.8-6.3,14.4
			C3186.3,1498.2,3190.1,1498.2,3194.7,1498.2z"/>
		<path fill="#938D84" d="M3229.2,1471.1c-3.9,0-7.1-0.1-10.3,0c-3,0.2-4.1-1.2-3.9-4c0.1-1.9-0.3-3.9,0.1-5.8
			c0.2-1.1,1.6-2.7,2.4-2.7c12.9-0.2,25.7-0.1,39.2-0.1c0,3.7,0.3,6.9-0.1,10c-0.1,1-2,2.3-3.2,2.5c-3.3,0.3-6.7,0.1-10.7,0.1
			c0,2.5,0,4.7,0,6.9c0,12.1-0.1,24.2,0.1,36.3c0.1,3.7-1.2,4.7-4.7,4.6c-10.8-0.3-8.8,1.2-8.9-9
			C3229.1,1497.3,3229.2,1484.5,3229.2,1471.1z"/>
		<path fill="#938D84" d="M3031.2,1506.3c6.3,0,12,0.2,17.6-0.1c3.5-0.1,5.2,0.9,4.8,4.6c-0.2,1.6,0.4,3.4-0.2,4.8
			c-0.5,1.3-1.9,3.1-3,3.1c-10,0.2-20,0.2-30,0c-0.9,0-2.7-1.8-2.7-2.8c-0.2-18.1-0.2-36.1,0-54.2c0-1.1,1.8-2.9,3-3.1
			c10.5-1.3,10.5-1.2,10.5,9.3C3031.2,1480.5,3031.2,1493.1,3031.2,1506.3z"/>
		<path fill="#938D84" d="M3075.7,1488.7c0,8.4-0.1,16.8,0.1,25.2c0.1,3.7-0.8,5.2-4.9,5.1c-10.2-0.4-8.8,1.2-8.9-8.7
			c-0.1-15.5,0.1-31-0.1-46.5c0-3.8,0.8-5.5,5.1-5.3c9.7,0.4,8.6-1.1,8.7,8.5C3075.7,1474.2,3075.7,1481.4,3075.7,1488.7z"/>
		<path fill="#938D84" d="M2580.6,1506.5c-4.1,4-8.8,8.4-13.7,13.2c-8.5-8.7-17.4-17.8-26.9-27.5c-9.4,9.8-18.3,19.1-27.1,28.2
			c-5.3-5.2-9.9-9.7-14.2-14c13.8-13.8,27.6-27.6,41.1-41.1C2553.1,1478.8,2566.8,1492.6,2580.6,1506.5z"/>
		<path fill="#938D84" d="M2624,1492c-4.5,4.6-8.9,9-13.6,13.7c-9-9.1-18-18.2-27.9-28.2c-3.2,4.2-5.9,7.6-8.5,11
			c-5.3-5.5-9.8-10.1-13.9-14.3c7.3-7.5,15.2-15.5,22.7-23.1C2596.3,1464.4,2610.1,1478.1,2624,1492z"/>
	</g>
</g>
</svg>
