<?xml version="1.0" encoding="utf-8"?>
<!-- Generator: Adobe Illustrator 17.1.0, SVG Export Plug-In . SVG Version: 6.00 Build 0)  -->
<!DOCTYPE svg PUBLIC "-//W3C//DTD SVG 1.1//EN" "http://www.w3.org/Graphics/SVG/1.1/DTD/svg11.dtd">
<svg version="1.1" xmlns="http://www.w3.org/2000/svg" xmlns:xlink="http://www.w3.org/1999/xlink" x="0px" y="0px"
	 viewBox="0 0 109.9 42.5" enable-background="new 0 0 109.9 42.5" xml:space="preserve">
<g id="Layer_2" display="none">
	
		<image display="inline" overflow="visible" width="1400" height="1407" xlink:href="../MAGMAconf-afterconference.jpg"  transform="matrix(1 0 0 1 -643.4739 -924.7439)">
	</image>
</g>
<g id="Layer_4">
	<g>
		<path fill="#9E9182" d="M100.3,35.1C100.4,35.1,100.4,35.1,100.3,35.1L100.3,35.1C100.4,35.1,100.4,35.1,100.3,35.1
			c2.6-0.1,4.8-1,6.7-2.9c2-1.9,2.9-4.2,2.9-7s-0.9-5-2.9-6.9c-1.8-1.9-4.1-2.8-6.7-2.9h-5.7h-1.1h-6.6l-1.4,10.3l0,0l0,0L83,15.5
			l-1.7,0l-0.6,0h0h-0.1h0l-0.6,0l-1.7,0l-2.5,10.3l0,0l0,0l-1.4-10.3h-7.7l1,4.3c-0.4-0.5-0.8-1-1.2-1.4c-1.9-1.9-4.2-2.9-6.9-2.9
			c0,0,0,0,0,0h0h0c-2.7,0-5,1-6.9,2.9c-0.8,0.8-1.5,1.7-2,2.7c-0.2-1.4-0.8-2.6-1.9-3.7c-1.2-1.2-2.6-1.8-4.2-2H33.1
			c2.7,2.4,4.4,5.9,4.4,9.8c0,0.1,0,0.1,0,0.2c0,0,0,0,0,0c0,0.1,0,0.1,0,0.2c-0.1,3.8-1.8,7.1-4.4,9.4h7.4v-5.3l3,5.3h7.2l-3.5-6.3
			c0.3-0.2,0.7-0.6,1.4-1.1c0.5-0.4,0.8-0.8,1.1-1.4c0.2,2.3,1.2,4.3,2.9,5.9c1.9,1.9,4.2,2.9,6.9,2.9c2.7,0,5.1-0.9,7-2.9
			c1.6-1.5,2.5-3.3,2.8-5.3l1.8,8.2h7.6l1.5-6.8l0.6-2.6l0,0l0,0l0.6,2.6l1.5,6.8h7.6l3.2-14.7l0,0v14.7H100.3z M99.8,21.6
			c0.1,0,0.2,0,0.3,0c1,0,1.9,0.4,2.6,1.1c0.7,0.7,1.1,1.6,1.1,2.6c0,1-0.4,1.9-1.1,2.6c-0.7,0.7-1.6,1.1-2.6,1.1h-0.3V21.6z
			 M44.2,22.9C44.2,22.9,44.2,22.9,44.2,22.9c0,0.1,0,0.1,0,0.1v0.1c0,0.4-0.2,0.7-0.5,1c-0.3,0.3-0.6,0.5-1,0.5h-2.3c0,0,0,0,0,0h0
			v-3.3h2.3c0.4,0,0.8,0.2,1,0.5C44.1,22,44.2,22.3,44.2,22.9L44.2,22.9z M62,27.8c-0.7,0.7-1.5,1.1-2.5,1.1c-1,0-1.8-0.3-2.5-1.1
			c-0.7-0.7-1.1-1.5-1.1-2.5c0-1,0.3-1.8,1.1-2.5c0.7-0.7,1.5-1,2.5-1c1,0,1.8,0.3,2.5,1c0.7,0.7,1.1,1.5,1.1,2.5
			C63.1,26.3,62.7,27.1,62,27.8z"/>
		<rect x="33" y="38.5" fill="#9E9182" width="0.7" height="3.9"/>
		<path fill="#9E9182" d="M41.4,40.3c0,0.2,0,0.6,0,1.1h0c-0.2-0.3-0.4-0.7-0.7-1.1l-1.3-1.8h-0.8v3.9h0.7v-1.8c0-0.3,0-0.6,0-1.1h0
			c0.2,0.4,0.5,0.8,0.7,1.1l1.3,1.8h0.8v-3.9h-0.7V40.3z"/>
		<polygon fill="#9E9182" points="46.7,39.1 48,39.1 48,42.4 48.7,42.4 48.7,39.1 50,39.1 50,38.5 46.7,38.5 		"/>
		<polygon fill="#9E9182" points="55.3,40.7 56.9,40.7 56.9,40.1 55.3,40.1 55.3,39.1 57.1,39.1 57.1,38.5 54.6,38.5 54.6,42.4 
			57.2,42.4 57.2,41.8 55.3,41.8 		"/>
		<path fill="#9E9182" d="M64,40.8c0.3-0.1,0.6-0.2,0.7-0.4c0.2-0.2,0.2-0.4,0.2-0.7c0-0.3-0.1-0.5-0.2-0.7
			c-0.1-0.2-0.3-0.3-0.5-0.4c-0.1,0-0.3-0.1-0.4-0.1c-0.2,0-0.4,0-0.6,0H62v3.9h0.7v-1.5h0.5l1.1,1.5h0.9L64,40.8L64,40.8z
			 M63.5,40.3c-0.1,0-0.3,0-0.4,0h-0.4v-1.2h0.5c0.2,0,0.3,0,0.4,0c0.1,0,0.2,0,0.3,0.1c0.1,0,0.2,0.1,0.2,0.2
			c0,0.1,0.1,0.2,0.1,0.3c0,0.1,0,0.2-0.1,0.3s-0.2,0.2-0.3,0.2C63.7,40.2,63.6,40.2,63.5,40.3z"/>
		<path fill="#9E9182" d="M71,38.5l-1.6,3.9h0.8l0.4-1h1.5l0.4,1h0.8l-1.6-3.9H71z M71.8,40.8h-1l0.1-0.3c0.1-0.3,0.2-0.6,0.4-1h0
			c0.1,0.4,0.3,0.8,0.4,1L71.8,40.8z"/>
		<path fill="#9E9182" d="M79.6,41.9c-0.2,0-0.4,0-0.6-0.1c-0.2-0.1-0.3-0.1-0.4-0.3c-0.1-0.1-0.2-0.3-0.3-0.4
			c-0.1-0.2-0.1-0.4-0.1-0.6c0-0.2,0-0.4,0.1-0.6c0.1-0.2,0.2-0.3,0.3-0.5c0.1-0.1,0.3-0.2,0.4-0.3c0.2-0.1,0.3-0.1,0.5-0.1
			c0.1,0,0.3,0,0.4,0c0.1,0,0.3,0.1,0.4,0.1v-0.6c-0.1,0-0.3-0.1-0.4-0.1c-0.1,0-0.3,0-0.5,0c-0.3,0-0.6,0.1-0.9,0.2
			c-0.3,0.1-0.5,0.3-0.6,0.4c-0.2,0.2-0.3,0.4-0.4,0.7c-0.1,0.3-0.1,0.5-0.1,0.8c0,0.3,0,0.6,0.1,0.8c0.1,0.2,0.2,0.4,0.4,0.6
			c0.2,0.2,0.4,0.3,0.6,0.4c0.3,0.1,0.5,0.1,0.9,0.1c0.2,0,0.3,0,0.5,0s0.3-0.1,0.4-0.1v-0.6c-0.1,0-0.3,0.1-0.4,0.1
			C79.9,41.9,79.8,41.9,79.6,41.9z"/>
		<polygon fill="#9E9182" points="84.9,39.1 86.1,39.1 86.1,42.4 86.9,42.4 86.9,39.1 88.1,39.1 88.1,38.5 84.9,38.5 		"/>
		<rect x="92.7" y="38.5" fill="#9E9182" width="0.7" height="3.9"/>
		<path fill="#9E9182" d="M100.2,40.4c-0.1,0.3-0.2,0.5-0.2,0.6c0,0.1-0.1,0.2-0.2,0.5h0c-0.1-0.2-0.1-0.4-0.2-0.5
			c0-0.1-0.1-0.3-0.2-0.6l-0.7-2H98l1.5,3.9h0.6l1.5-3.9h-0.8L100.2,40.4z"/>
		<polygon fill="#9E9182" points="107,40.7 108.5,40.7 108.5,40.1 107,40.1 107,39.1 108.8,39.1 108.8,38.5 106.2,38.5 106.2,42.4 
			108.9,42.4 108.9,41.8 107,41.8 		"/>
		<path fill="#9E9182" d="M27.5,26.8c-0.2,0.3-0.4,0.7-0.7,1c-0.7,0.7-1.5,1-2.5,1c-1,0-1.8-0.3-2.5-1c-0.7-0.7-1-1.5-1-2.5
			c0-1,0.3-1.8,1-2.5c0.7-0.7,1.5-1,2.5-1c1,0,1.8,0.3,2.5,1c0.3,0.3,0.5,0.6,0.7,1h6.5c-0.3-2.1-1.2-3.9-2.8-5.4
			c-1.7-1.7-3.6-2.6-5.9-2.8c-0.3,0-0.7,0-1-0.1c0,0,0,0,0,0c0,0,0,0-0.1,0c-2.7,0-5,1-6.9,2.9c-1.9,1.9-2.9,4.2-2.9,6.9
			c0,2.7,0.9,5,2.9,6.9c0.6,0.6,1.2,1.1,1.8,1.4c1.4,0.9,3.1,1.4,4.8,1.4c0.1,0,0.2,0,0.3,0c0,0,0,0,0.1,0c2.7,0,5-0.9,6.9-2.9
			c1.6-1.5,2.5-3.4,2.8-5.4H27.5z"/>
		<circle fill="#9E9182" cx="3.5" cy="21.7" r="1.5"/>
		<circle fill="#9E9182" cx="7" cy="15.3" r="0.7"/>
		<circle fill="#9E9182" cx="4.4" cy="15.6" r="0.9"/>
		<circle fill="#9E9182" cx="5.8" cy="11.2" r="1.8"/>
		<circle fill="#9E9182" cx="9.6" cy="9.6" r="1.2"/>
		<circle fill="#9E9182" cx="11.4" cy="5.5" r="0.9"/>
		<circle fill="#9E9182" cx="15.7" cy="7" r="1.4"/>
		<circle fill="#9E9182" cx="15.6" cy="1.2" r="1.2"/>
		<path fill="#9E9182" d="M19.9,4c0.8,0.5,1.9,0.3,2.4-0.5c0.4-0.6,0.4-1.5-0.1-2c0.2,0,0.4-0.1,0.5-0.3c0.2-0.3,0.1-0.7-0.2-0.9
			c-0.3-0.2-0.7-0.1-0.9,0.2c-0.1,0.2-0.1,0.3-0.1,0.5c-0.7-0.3-1.6,0-2,0.7C18.9,2.4,19.1,3.4,19.9,4z"/>
		<circle fill="#9E9182" cx="25.1" cy="5.6" r="1.4"/>
		<circle fill="#9E9182" cx="27.6" cy="1.4" r="1.4"/>
		<circle fill="#9E9182" cx="30.3" cy="3.8" r="0.9"/>
		<circle fill="#9E9182" cx="35" cy="11.5" r="1.2"/>
		<circle fill="#9E9182" cx="4.7" cy="34.7" r="1.2"/>
		<circle fill="#9E9182" cx="0.9" cy="31.6" r="0.9"/>
		<path fill="#9E9182" d="M11.1,25.3c0-7.3,5.9-13.2,13.2-13.2c3.3,0,6.3,1.2,8.6,3.2c0.6-0.3,1.4-1.2,1.2-1.2
			c0.1-0.6-0.1-1.2-0.7-1.5c-0.2-0.1-0.4-0.2-0.5-0.2l0,0c0,0-0.4,0-0.4-0.4c0.1,0,0.1-0.1,0.1-0.2c0.2-0.3,0.1-0.7-0.2-0.9
			c-0.3-0.2-0.7-0.1-0.9,0.2c-0.2,0.3-0.1,0.7,0.2,0.9c0.1,0,0.1,0.1,0.2,0.1c0,0,0,0,0,0c0.1,0.1,0.1,0.3,0,0.3
			c-0.2,0.1-0.4,0.2-0.5,0.3c-0.1-0.1-0.2-0.3-0.4-0.4c-0.3-0.2-0.7-0.2-1-0.1c0.2-0.7-0.1-1.4-0.7-1.8c-0.2-0.1-0.4-0.2-0.7-0.3
			c0.1-0.1,0.2-0.2,0.2-0.3c0.1-0.2,0.2-0.4,0.2-0.6c0,0,0,0,0,0s0.2-0.9,0.9-0.5C30.7,9.2,31.6,9,32,8.4c0.4-0.6,0.2-1.5-0.4-1.9
			c-0.6-0.4-1.5-0.2-1.9,0.4c-0.2,0.2-0.2,0.5-0.2,0.7l0,0c0,0,0,0,0,0c0,0,0,0,0,0c0,0.1,0,0.7-0.7,0.7c0,0,0,0,0,0
			c0,0-0.1-0.1-0.1-0.1c-0.5-0.3-1.2-0.2-1.6,0.3C27,8.2,26.8,8,26.6,7.9c-0.6-0.4-1.5-0.2-1.9,0.4c-0.1,0.1-0.1,0.2-0.2,0.3
			c0,0,0,0-0.1,0c-0.3-0.2-0.7-0.3-1.1-0.2c0.1-0.1,0.1-0.2,0.2-0.2c0.5-0.8,0.3-1.9-0.5-2.4c-0.8-0.5-1.9-0.3-2.4,0.5
			c-0.3,0.4-0.3,0.9-0.2,1.4c-0.7-0.3-1.5-0.1-1.9,0.5c-0.3,0.4-0.3,0.9-0.2,1.3c0,0,0,0.1,0,0.1c0,0,0,0.1,0.1,0.1
			c0.3,0.5,0.7,0.4,1,0.6c0,0,0,0,0,0c0.3,0.2,0.5,0.5,0.5,0.8c0,0.5-0.4,0.9-0.9,0.9c-0.5,0-0.9-0.4-0.9-0.9c0,0,0-0.1,0-0.1
			c0,0,0,0,0,0c0.1-0.6-0.1-0.8-0.2-0.9c0,0,0,0,0,0c-0.2-0.1-0.4-0.2-0.6-0.2c0,0,0,0,0,0c0,0,0,0,0,0c0,0,0,0,0,0c0,0-0.1,0-0.2,0
			c-0.1,0-0.2,0-0.3,0.1c-0.1,0-0.3,0.1-0.4,0.1c-0.2,0-0.4-0.2-0.7-0.3c0,0,0,0,0,0c-0.6-0.3-1.3-0.1-1.7,0.5
			c-0.2,0.3-0.2,0.6-0.2,0.9c0,0,0,0,0,0c0,0,0,0,0,0c0,0.2,0.1,0.4,0.2,0.6c0,0.1,0,0.1-0.1,0.1c0,0,0,0,0,0c0,0-0.1,0-0.1,0
			c0,0-0.1,0-0.1,0c-0.1,0-0.2,0.1-0.2,0.1c0,0,0,0-0.1,0c-0.1,0-0.2,0-0.2-0.2c0,0,0-0.1,0-0.1c0,0,0,0,0-0.1c0,0,0-0.1,0-0.1
			c0,0,0,0,0,0c-0.1-0.2-0.3-0.4-0.5-0.5c-0.6-0.4-1.5-0.2-1.9,0.4c-0.4,0.6-0.2,1.5,0.4,1.9c0.3,0.2,0.6,0.3,0.9,0.2l0,0
			c0.2-0.1,0.4-0.1,0.6-0.1c0.7,0,1.2,0.6,1.2,1.2c0,0.7-0.6,1.2-1.2,1.2c-0.7,0-1.2-0.6-1.2-1.2c0,0,0,0,0,0
			c-0.1-0.4-0.3-0.7-0.6-0.9c-0.7-0.4-1.6-0.3-2,0.4c-0.4,0.7-0.3,1.6,0.4,2c0.2,0.1,0.4,0.2,0.7,0.2c-0.5,0-0.9,0.2-1.2,0.7
			c0,0-0.1-0.1-0.1-0.1c-0.8-0.6-2-0.3-2.5,0.5c-0.6,0.8-0.3,2,0.5,2.5c0.3,0.2,0.6,0.3,0.9,0.3c-0.1,0.1-0.1,0.1-0.1,0.2
			c-0.4,0.7-0.3,1.6,0.4,2c0.2,0.1,0.4,0.2,0.6,0.2c0.5,0.3,0.5,0.9,0.3,1.3c-0.1,0.1-0.5,0.7-1.3,0.2C7.1,24.1,7,24,6.8,23.9
			c-0.8-0.6-2-0.3-2.5,0.5c-0.4,0.6-0.4,1.5,0,2c-0.3-0.1-0.6,0-0.8,0.1c0-0.5-0.2-1-0.6-1.3C2.2,24.9,1.4,25,1,25.7
			c-0.4,0.6-0.2,1.5,0.4,1.9c0.5,0.3,1,0.3,1.5,0c0,0.4,0.2,0.8,0.5,1c0.5,0.4,1.3,0.2,1.6-0.3c0-0.1,0.1-0.1,0.1-0.2v0c0,0,0,0,0,0
			c0.1-0.1,0.1-0.2,0.1-0.4c0.2-0.4,0.5-0.5,0.6-0.5c0,0,0,0,0.1,0c0,0,0,0,0,0l0,0c0.2,0,0.3,0,0.5-0.1c0,0,0,0,0,0c0,0,0,0,0,0
			c0.1,0,0.3-0.1,0.4-0.2c0.4-0.1,0.5,0.3,0.4,0.6c0,0,0,0,0,0c0,0.1-0.1,0.1-0.1,0.2c0,0,0,0,0,0C7,27.8,7,27.9,7,27.9
			c-0.2,0.6,0,1.2,0.5,1.5c0.3,0.2,0.5,0.2,0.8,0.2c0.1,0,0.2-0.1,0.3-0.1c0.1,0,0.1,0,0.2-0.1c0,0,0,0.1,0,0.1
			c0.4,0.1,0.8,0.5,0.8,0.9c0,0.5-0.4,0.9-0.9,0.9c-0.4,0-0.8-0.3-0.9-0.6c0-0.1-0.1-0.1-0.1-0.2c0-0.1,0-0.3-0.1-0.4c0,0,0,0,0,0
			c0,0,0,0,0,0c-0.1-0.3-0.3-0.5-0.5-0.6c-0.6-0.4-1.5-0.2-1.9,0.4c-0.4,0.6-0.2,1.5,0.4,1.9c0.5,0.4,1.2,0.3,1.7-0.1c0,0,0,0,0,0
			c0,0,0,0,0,0c0,0,0,0,0,0c0.3-0.3,0.4-0.1,0.4,0.1c-0.2,0.7,0.1,1.5,0.7,1.9c0,0,0.1,0,0.1,0c-0.2,0.1-0.3,0.2-0.4,0.4
			c-0.4,0.6-0.2,1.5,0.4,1.9c0.6,0.4,1.5,0.2,1.9-0.4c0,0.5,0.2,1,0.7,1.3c0.7,0.5,1.6,0.3,2.1-0.4c0.2-0.3,0.1-0.6,0.1-0.6l0,0
			c0,0,0-0.1,0-0.1c0-0.3,0.3-0.6,0.6-0.6c0.3,0,0.6,0.3,0.6,0.6c0,0.2-0.1,0.4-0.2,0.5l0,0l0,0c-0.1,0-0.1,0.1-0.2,0.1
			c0,0-0.1,0.1-0.2,0.1c0,0,0,0-0.1,0.1c0,0-0.1,0-0.1,0.1c-0.1,0.1-0.1,0.1-0.1,0.2c-0.2,0.3-0.3,0.6-0.3,1
			c-0.2,0.9-0.8,0.5-0.8,0.5c-0.4-0.3-0.9-0.2-1.2,0.2c-0.3,0.4-0.2,0.9,0.2,1.2c0.4,0.3,0.9,0.2,1.2-0.2c0,0,0-0.1,0.1-0.1l0,0
			c0,0,0,0,0,0c0,0,0,0,0-0.1c0.1-0.2,0.3-0.7,0.9-0.4c0.1,0.1,0.2,0.2,0.3,0.3c0.1,0.1,0.3,0.2,0.5,0.2c0,0-0.1,0.1-0.1,0.1
			c-0.2,0.3-0.1,0.7,0.2,0.9c0.3,0.2,0.7,0.1,0.9-0.2c0.2-0.3,0.1-0.6-0.1-0.9c0.4-0.1,0.7-0.3,0.9-0.7c0.1-0.1,0.1-0.3,0.2-0.4
			c0.1,0.3,0.4,0.6,0.7,0.8c0.8,0.6,2,0.3,2.5-0.5c0.1-0.1,0.1-0.2,0.2-0.3c0-0.1,0.1-0.2,0.1-0.4C14.8,36,11.1,31.1,11.1,25.3z"/>
	</g>
</g>
</svg>
