<?xml version="1.0" encoding="utf-8"?>
<!-- Generator: Adobe Illustrator 17.1.0, SVG Export Plug-In . SVG Version: 6.00 Build 0)  -->
<!DOCTYPE svg PUBLIC "-//W3C//DTD SVG 1.1//EN" "http://www.w3.org/Graphics/SVG/1.1/DTD/svg11.dtd">
<svg version="1.1" id="Layer_2" xmlns="http://www.w3.org/2000/svg" xmlns:xlink="http://www.w3.org/1999/xlink" x="0px" y="0px"
	 viewBox="0 0 205.8 341.8" enable-background="new 0 0 205.8 341.8" xml:space="preserve">
<g>
	<g>
		<path fill="#FFFFFF" d="M49.9,221.5l-10.6,11.8l-22.1,4.9v20l32.8-7.2v16.6L1,278.3v-43.8l10.4-11.7l22.4-4.9v-20l-16.4,3.6v6.7
			L1,211.9V198l10.4-11.7l28.2-6.2l10.4,7.1V221.5z"/>
		<path fill="#FFFFFF" d="M107.4,245.4l-10.5,11.7L68,263.5l-10.3-7.1v-32.3l-3.4-2.4l3.4-4v-32.2l10.5-11.7l28.7-6.3l10.5,7.1v32.2
			l3.3,2.5l-3.3,3.9V245.4z M73.9,220.5v25.1l17.3-3.8v-25.1l-3.3-2.5l3.3-4v-25.1L73.9,189v25.1l3.4,2.5L73.9,220.5z"/>
		<path fill="#FFFFFF" d="M135.9,248.5l-16.2,3.6v-41.6l-3.3-2.5l3.3-4v-21.2l-4.6,1v-16.6l10-6l10.8-2.4v41.6l3.4,2.5l-3.4,3.9
			V248.5z"/>
		<path fill="#FFFFFF" d="M154,224.5l-10.3-7.1l33.5-67.7l16.2-3.6v53.2l4.5-1v16.6l-4.5,1v20l-16.2,3.6v-2.7l0.1,0v-17.2L154,224.5
			z M166.3,205.2l10.9-2.4v-19.6L166.3,205.2z"/>
	</g>
	<g>
		<polygon fill="#544842" points="155.8,50 155.8,49.4 150.4,45.8 150.4,46.4 		"/>
		<polygon fill="#544842" points="150.4,40.6 155.8,44.2 155.8,43.6 150.4,40.1 		"/>
		<path fill="#544842" d="M174.4,57.9c0.1,0.3,0.2,0.5,0.3,0.5c0.1,0.1,0.2,0.3,1,0.3L174.4,57.9z"/>
		<polygon fill="#544842" points="155.8,46.1 155.8,45.6 150.4,42 150.4,42.6 		"/>
		<polygon fill="#544842" points="155.8,48.1 155.8,47.5 150.4,43.9 150.4,44.5 		"/>
		<path fill="#544842" d="M174.2,56.5l3.1,2.1l0.7-0.1l-3.8-2.5v0.4C174.2,56.4,174.2,56.4,174.2,56.5z"/>
		<polygon fill="#544842" points="182.4,52.3 183.1,52.2 178.7,49.3 178.1,49.4 		"/>
		<path fill="#544842" d="M180.3,52.9c0.1,0,0.2-0.1,0.3-0.1l0.3-0.1l-4.4-2.9l-0.7,0.1L180.3,52.9z"/>
		<polygon fill="#544842" points="179.4,58 179.5,58 179.5,57.5 174.2,54 174.2,54.5 		"/>
		<polygon fill="#544842" points="179.5,56.2 179.5,55.6 174.2,52 174.2,52.6 		"/>
		<polygon fill="#544842" points="155.8,59.6 155.8,59 150.4,55.5 150.4,56 		"/>
		<polygon fill="#544842" points="187.1,76.1 186.5,76.2 190.9,79.1 191.5,79 		"/>
		<polygon fill="#544842" points="187.7,22.6 183.3,19.7 182.7,19.8 187.1,22.7 		"/>
		<polygon fill="#544842" points="185,76.5 184.3,76.7 188.7,79.6 189.3,79.4 		"/>
		<polygon fill="#544842" points="191.5,75.1 190.8,75.2 195.2,78.2 195.8,78 		"/>
		<polygon fill="#544842" points="189.3,75.6 188.7,75.7 193,78.6 193.7,78.5 		"/>
		<polygon fill="#544842" points="155.8,53.8 155.8,53.3 150.4,49.7 150.4,50.3 		"/>
		<polygon fill="#544842" points="183.1,48.3 182.4,48.5 186.8,51.4 187.4,51.2 		"/>
		<polygon fill="#544842" points="155.8,55.8 155.8,55.2 150.4,51.6 150.4,52.2 		"/>
		<polygon fill="#544842" points="155.8,57.7 155.8,57.1 150.4,53.5 150.4,54.1 		"/>
		<polygon fill="#544842" points="180.6,77.5 180,77.6 184.3,80.6 185,80.4 		"/>
		<polygon fill="#544842" points="150.4,76.6 150.4,77.2 155.8,80.8 155.8,80.2 		"/>
		<polygon fill="#544842" points="150.4,72.8 150.4,73.3 155.8,76.9 155.8,76.3 		"/>
		<polygon fill="#544842" points="150.4,74.7 150.4,75.3 155.8,78.8 155.8,78.3 		"/>
		<polygon fill="#544842" points="150.4,70.8 150.4,71.4 155.8,75 155.8,74.4 		"/>
		<polygon fill="#544842" points="150.4,68.9 150.4,69.5 155.8,73.1 155.8,72.5 		"/>
		<path fill="#544842" d="M154.6,87.1l-5.3-3.5c-0.1,0.1-0.2,0.2-0.3,0.3l5.1,3.4l0.2,0C154.3,87.2,154.4,87.1,154.6,87.1z"/>
		<path fill="#544842" d="M150.1,82.2c-0.1,0.2-0.1,0.3-0.2,0.4l5.6,3.7c0.1-0.1,0.1-0.3,0.2-0.4L150.1,82.2z"/>
		<polygon fill="#544842" points="184.6,51.9 185.3,51.7 180.9,48.8 180.3,49 		"/>
		<polygon fill="#544842" points="150.4,78.5 150.4,79.1 155.8,82.7 155.8,82.1 		"/>
		<path fill="#544842" d="M150.4,80.5c0,0.2,0,0.4,0,0.6l5.4,3.6V84L150.4,80.5z"/>
		<polygon fill="#544842" points="182.8,77 182.2,77.2 186.5,80.1 187.2,79.9 		"/>
		<polygon fill="#544842" points="178.5,78 177.8,78.1 182.2,81 182.8,80.9 		"/>
		<polygon fill="#544842" points="193.7,74.6 193,74.8 197.4,77.7 198,77.5 		"/>
		<path fill="#544842" d="M179.5,54.3v-0.1c0-0.2,0-0.3,0.1-0.4l-5.2-3.5l-0.2,0.1v0.4L179.5,54.3z"/>
		<path fill="#544842" d="M169.7,79.9c-0.2,0-0.5,0.1-0.7,0.1l2.8,1.9c0.4,0.1,0.8,0.2,1.2,0.3L169.7,79.9z"/>
		<path fill="#544842" d="M172,79.4l-0.7,0.1l4,2.7c0.3,0,0.5,0,0.8,0L172,79.4z"/>
		<polygon fill="#544842" points="150.4,67 150.4,67.6 155.8,71.1 155.8,70.6 		"/>
		<path fill="#544842" d="M174.1,78.9l-0.7,0.1l4.3,2.9c0.2,0,0.4-0.1,0.7-0.1L174.1,78.9z"/>
		<polygon fill="#544842" points="176.3,78.5 175.6,78.6 180,81.5 180.7,81.4 		"/>
		<path fill="#544842" d="M193.6,45.7c-0.1,0.1-0.3,0.2-0.5,0.3l4.5,3l0.7-0.1L193.6,45.7z"/>
		<polygon fill="#544842" points="204.7,6.9 202,5.1 201.3,5.2 204.7,7.5 		"/>
		<polygon fill="#544842" points="204.7,8.8 199.8,5.6 199.3,5.7 199.3,5.9 204.7,9.4 		"/>
		<polygon fill="#544842" points="204.7,10.8 199.3,7.2 199.3,7.8 204.7,11.3 		"/>
		<polygon fill="#544842" points="204.7,12.7 199.3,9.1 199.3,9.7 204.7,13.3 		"/>
		<path fill="#544842" d="M203.5,4.8l1.1,0.7C204.4,5,204.1,4.8,203.5,4.8z"/>
		<path fill="#544842" d="M200.9,35.2l-1.4-0.9c-0.1,0-0.2,0-0.2,0l-0.4,0.1l2.1,1.4v-0.1C201,35.5,200.9,35.3,200.9,35.2z"/>
		<polygon fill="#544842" points="195.6,35.5 195.6,36.1 201,39.7 201,39.1 		"/>
		<polygon fill="#544842" points="195.6,37.4 195.6,38 201,41.6 201,41 		"/>
		<polygon fill="#544842" points="197.3,34.7 196.7,34.9 201,37.7 201,37.2 		"/>
		<polygon fill="#544842" points="195.6,39.4 195.6,39.9 201,43.5 201,42.9 		"/>
		<polygon fill="#544842" points="196.4,20.6 192,17.7 191.4,17.9 195.7,20.8 		"/>
		<polygon fill="#544842" points="198.6,20.2 194.2,17.3 193.5,17.4 197.9,20.3 		"/>
		<polygon fill="#544842" points="204.7,14.6 199.3,11 199.3,11.6 204.7,15.2 		"/>
		<polygon fill="#544842" points="192,21.6 187.7,18.7 187,18.8 191.4,21.7 		"/>
		<polygon fill="#544842" points="194.2,21.1 189.9,18.2 189.2,18.4 193.6,21.3 		"/>
		<path fill="#544842" d="M200.7,19.7l-4.4-2.9c-0.2,0.1-0.4,0.1-0.6,0.2l4.4,2.9L200.7,19.7z"/>
		<path fill="#544842" d="M204.4,18.3l-5.6-3.7c-0.1,0.1-0.2,0.3-0.2,0.4l5.5,3.7C204.2,18.5,204.3,18.4,204.4,18.3z"/>
		<path fill="#544842" d="M204.7,17.1v-0.5l-5.4-3.6c0,0.2,0,0.4-0.1,0.5L204.7,17.1C204.7,17.1,204.7,17.1,204.7,17.1z"/>
		<polygon fill="#544842" points="195.8,74.1 195.2,74.3 199.5,77.2 200.2,77.1 		"/>
		<path fill="#544842" d="M202.9,19.2l-5.1-3.4c-0.1,0.1-0.3,0.2-0.4,0.3l4.8,3.2L202.9,19.2z"/>
		<polygon fill="#544842" points="200.5,63.8 200.5,64.4 205.8,67.9 205.8,67.3 		"/>
		<polygon fill="#544842" points="200.5,65.7 200.5,66.3 205.8,69.9 205.8,69.3 		"/>
		<polygon fill="#544842" points="203.6,62 202.9,62.1 205.8,64.1 205.8,63.5 		"/>
		<polygon fill="#544842" points="200.5,67.6 200.5,68.2 205.8,71.8 205.8,71.2 		"/>
		<polygon fill="#544842" points="201.4,62.5 200.8,62.6 205.8,66 205.8,65.4 		"/>
		<path fill="#544842" d="M204.5,76.1l-5.3-3.5c-0.1,0.1-0.2,0.2-0.4,0.3l5,3.3l0.3-0.1C204.3,76.1,204.4,76.1,204.5,76.1z"/>
		<path fill="#544842" d="M195.6,41.3v0.5c0,0,0,0.1,0,0.1l5.4,3.6v-0.6L195.6,41.3z"/>
		<path fill="#544842" d="M200.1,71.2c-0.1,0.2-0.1,0.3-0.2,0.4l5.6,3.7c0.1-0.1,0.2-0.3,0.2-0.4L200.1,71.2z"/>
		<path fill="#544842" d="M200.5,69.5c0,0.2,0,0.4,0,0.5l5.4,3.6v-0.6L200.5,69.5z"/>
		<path fill="#544842" d="M197.8,73.6c-0.2,0.1-0.4,0.2-0.5,0.2l4.4,2.9l0.7-0.1L197.8,73.6z"/>
		<polygon fill="#544842" points="185.2,47.9 184.6,48 189,50.9 189.6,50.8 		"/>
		<polygon fill="#544842" points="189.9,22.1 185.5,19.2 184.9,19.3 189.2,22.2 		"/>
		<path fill="#544842" d="M194.7,44.6c-0.1,0.1-0.2,0.3-0.3,0.4l5.3,3.5c0.2-0.1,0.3-0.2,0.5-0.3L194.7,44.6z"/>
		<path fill="#544842" d="M195.4,43.1c0,0.2-0.1,0.3-0.2,0.5l5.6,3.7c0-0.2,0.1-0.3,0.1-0.5L195.4,43.1z"/>
		<polygon fill="#544842" points="174.2,28.9 174.2,29.5 175.4,30.3 176,30.2 		"/>
		<polygon fill="#544842" points="187.4,47.4 186.8,47.5 191.1,50.4 191.8,50.3 		"/>
		<path fill="#544842" d="M147.9,84.6c-0.2,0.1-0.3,0.2-0.5,0.2l4.4,2.9l0.7-0.1L147.9,84.6z"/>
		<polygon fill="#544842" points="191.8,46.4 191.1,46.6 195.5,49.5 196.1,49.3 		"/>
		<polygon fill="#544842" points="189.6,46.9 188.9,47 193.3,50 193.9,49.8 		"/>
		<polygon fill="#544842" points="155.8,51.9 155.8,51.3 150.4,47.8 150.4,48.3 		"/>
		<path fill="#544842" d="M93.7,91.5c0.1-0.2,0.1-0.3,0.2-0.5l-5.6-3.7c-0.1,0.2-0.1,0.3-0.2,0.5L93.7,91.5z"/>
		<polygon fill="#544842" points="95.3,75.2 95.3,74.6 89.9,71 89.9,71.6 		"/>
		<polygon fill="#544842" points="95.3,71.3 95.3,70.7 89.9,67.2 89.9,67.7 		"/>
		<path fill="#544842" d="M88.9,85.7c-0.1,0.2-0.1,0.3-0.2,0.5l5.6,3.7c0.1-0.2,0.1-0.3,0.1-0.5L88.9,85.7z"/>
		<polygon fill="#544842" points="95.3,77.1 95.3,76.5 89.9,72.9 89.9,73.5 		"/>
		<polygon fill="#544842" points="95.3,73.2 95.3,72.6 89.9,69.1 89.9,69.7 		"/>
		<polygon fill="#544842" points="95.3,63.6 95.3,63 89.9,59.4 89.9,60 		"/>
		<polygon fill="#544842" points="95.3,65.5 95.3,64.9 89.9,61.3 89.9,61.9 		"/>
		<polygon fill="#544842" points="95.3,61.6 95.3,61.1 89.9,57.5 89.9,58.1 		"/>
		<polygon fill="#544842" points="95.3,69.3 95.3,68.8 89.9,65.2 89.9,65.8 		"/>
		<polygon fill="#544842" points="95.3,67.4 95.3,66.8 89.9,63.3 89.9,63.8 		"/>
		<polygon fill="#544842" points="60.7,54.1 66.1,57.7 66.1,57.1 60.7,53.5 		"/>
		<polygon fill="#544842" points="89.9,74.8 89.9,75.4 95.3,79 95.3,78.4 		"/>
		<polygon fill="#544842" points="66.1,59.6 66.1,59 60.7,55.4 60.7,56 		"/>
		<path fill="#544842" d="M89.3,84.1c0,0.2-0.1,0.3-0.1,0.5l5.6,3.7c0-0.2,0.1-0.3,0.1-0.5L89.3,84.1z"/>
		<polygon fill="#544842" points="66.1,61.5 66.1,60.9 60.7,57.4 60.7,57.9 		"/>
		<path fill="#544842" d="M89.7,82.4c0,0.2-0.1,0.3-0.1,0.5l5.5,3.7c0-0.2,0-0.4,0.1-0.5L89.7,82.4z"/>
		<polygon fill="#544842" points="89.9,76.8 89.9,77.4 95.3,80.9 95.3,80.3 		"/>
		<path fill="#544842" d="M89.9,80.6c0,0.2,0,0.4,0,0.6l5.4,3.6c0-0.2,0-0.4,0-0.6L89.9,80.6z"/>
		<polygon fill="#544842" points="89.9,78.7 89.9,79.3 95.3,82.8 95.3,82.3 		"/>
		<polygon fill="#544842" points="113.7,69.5 113.7,70 117.2,72.4 116.9,71.6 		"/>
		<path fill="#544842" d="M76,100.2c-0.2,0.1-0.4,0.2-0.5,0.2l4.7,3.1c0.2-0.1,0.4-0.1,0.6-0.2L76,100.2z"/>
		<path fill="#544842" d="M79.2,98.5c-0.1,0.1-0.3,0.2-0.4,0.3l5.1,3.4c0.2-0.1,0.3-0.2,0.5-0.3L79.2,98.5z"/>
		<path fill="#544842" d="M77.6,99.4c-0.2,0.1-0.3,0.2-0.5,0.3l4.9,3.3c0.2-0.1,0.4-0.1,0.5-0.2L77.6,99.4z"/>
		<polygon fill="#544842" points="114.5,64.8 114.2,64.1 113.7,63.7 113.7,64.3 		"/>
		<polygon fill="#544842" points="95.3,59.7 95.3,59.1 89.9,55.6 89.9,56.2 		"/>
		<path fill="#544842" d="M74.1,100.9c-0.2,0.1-0.4,0.1-0.6,0.2l4.4,2.9l0.7-0.1L74.1,100.9z"/>
		<path fill="#544842" d="M61.2,103.9l-0.7,0.1l4.4,2.9c0.1,0,0.2,0,0.4-0.1l0.3-0.1L61.2,103.9z"/>
		<path fill="#544842" d="M30.5,106.5c-0.1,0.1-0.2,0.2-0.3,0.4l5.4,3.6c0.1-0.1,0.2-0.2,0.4-0.3L30.5,106.5z"/>
		<path fill="#544842" d="M75.8,104.5l0.7-0.1l-4.4-2.9c0,0,0,0,0,0l-0.6,0.1L75.8,104.5z"/>
		<path fill="#544842" d="M80.6,97.5c-0.1,0.1-0.3,0.2-0.4,0.3l5.2,3.5c0.1-0.1,0.3-0.2,0.4-0.3L80.6,97.5z"/>
		<polygon fill="#544842" points="66.1,63.4 66.1,62.9 60.7,59.3 60.7,59.9 		"/>
		<polygon fill="#544842" points="89.9,52.3 95.3,55.9 95.3,55.3 89.9,51.7 		"/>
		<polygon fill="#544842" points="95.3,57.8 95.3,57.2 89.9,53.7 89.9,54.2 		"/>
		<polygon fill="#544842" points="113.7,71.4 113.7,72 118,74.9 117.8,74.1 		"/>
		<polygon fill="#544842" points="119,81.3 119,80.7 113.7,77.2 113.7,77.7 		"/>
		<polygon fill="#544842" points="116.3,69.9 116,69.1 113.7,67.5 113.7,68.1 		"/>
		<polygon fill="#544842" points="113.7,75.2 113.7,75.8 119,79.4 119,78.8 		"/>
		<polygon fill="#544842" points="115.4,67.3 115.1,66.6 113.7,65.6 113.7,66.2 		"/>
		<polygon fill="#544842" points="113.7,73.3 113.7,73.9 118.9,77.4 118.7,76.7 		"/>
		<path fill="#544842" d="M113.3,90.4c-0.1,0.2-0.1,0.3-0.2,0.4l5.6,3.7c0.1-0.1,0.2-0.3,0.2-0.4L113.3,90.4z"/>
		<polygon fill="#544842" points="145.9,85.2 145.3,85.3 149.6,88.2 150.3,88.1 		"/>
		<path fill="#544842" d="M117.7,95.3l-5.3-3.5c-0.1,0.1-0.2,0.2-0.4,0.3l5,3.3l0.4-0.1C117.5,95.3,117.6,95.3,117.7,95.3z"/>
		<path fill="#544842" d="M113.6,88.7c0,0.2,0,0.4-0.1,0.5l5.4,3.6v-0.6L113.6,88.7z"/>
		<polygon fill="#544842" points="113.7,83 113.7,83.5 119,87.1 119,86.5 		"/>
		<polygon fill="#544842" points="113.7,84.9 113.7,85.5 119,89 119,88.5 		"/>
		<polygon fill="#544842" points="113.7,86.8 113.7,87.4 119,91 119,90.4 		"/>
		<polygon fill="#544842" points="106.8,93.8 106.2,94 110.5,96.9 111.2,96.7 		"/>
		<polygon fill="#544842" points="104.6,94.3 104,94.4 108.4,97.3 109,97.2 		"/>
		<polygon fill="#544842" points="102.5,94.8 102.2,94.8 102.2,95.2 106.2,97.8 106.8,97.7 		"/>
		<polygon fill="#544842" points="109,93.3 108.3,93.5 112.7,96.4 113.3,96.2 		"/>
		<path fill="#544842" d="M111,92.8c-0.2,0.1-0.4,0.2-0.5,0.2l4.4,2.9l0.7-0.1L111,92.8z"/>
		<polygon fill="#544842" points="139.4,86.6 138.8,86.8 143.1,89.7 143.8,89.5 		"/>
		<polygon fill="#544842" points="137.2,87.1 136.6,87.2 140.9,90.1 141.6,90 		"/>
		<polygon fill="#544842" points="141.6,86.1 140.9,86.3 145.3,89.2 145.9,89 		"/>
		<polygon fill="#544842" points="113.7,81 113.7,81.6 119,85.2 119,84.6 		"/>
		<polygon fill="#544842" points="143.7,85.7 143.1,85.8 147.5,88.7 148.1,88.6 		"/>
		<path fill="#544842" d="M135.1,91.4l-2.7-1.8l0.2,0.6c0,0.1,0,0.1,0.1,0.1l1.7,1.1c0.1,0,0.3,0,0.5-0.1L135.1,91.4z"/>
		<polygon fill="#544842" points="113.7,79.1 113.7,79.7 119,83.2 119,82.7 		"/>
		<polygon fill="#544842" points="135.1,87.6 134.4,87.7 138.8,90.6 139.4,90.5 		"/>
		<polygon fill="#544842" points="132.9,88.1 132.2,88.2 136.6,91.1 137.3,91 		"/>
		<polygon fill="#544842" points="66.1,73.1 66.1,72.5 60.7,68.9 60.7,69.5 		"/>
		<polygon fill="#544842" points="66.1,75 66.1,74.4 60.7,70.8 60.7,71.4 		"/>
		<polygon fill="#544842" points="66.1,76.9 66.1,76.3 60.7,72.8 60.7,73.3 		"/>
		<polygon fill="#544842" points="66.1,78.8 66.1,78.3 60.7,74.7 60.7,75.3 		"/>
		<polygon fill="#544842" points="66.1,80.8 66.1,80.2 60.7,76.6 60.7,77.2 		"/>
		<polygon fill="#544842" points="66.1,69.2 66.1,68.6 60.7,65.1 60.7,65.6 		"/>
		<polygon fill="#544842" points="66.1,67.3 66.1,66.7 60.7,63.1 60.7,63.7 		"/>
		<polygon fill="#544842" points="66.1,82.7 66.1,82.1 60.7,78.5 60.7,79.1 		"/>
		<polygon fill="#544842" points="66.1,65.4 66.1,64.8 60.7,61.2 60.7,61.8 		"/>
		<polygon fill="#544842" points="66.1,71.1 66.1,70.6 60.7,67 60.7,67.6 		"/>
		<polygon fill="#544842" points="64.4,83.5 65,83.3 60.7,80.5 60.7,81 		"/>
		<path fill="#544842" d="M86.1,91.5c-0.1,0.1-0.2,0.3-0.3,0.4l5.6,3.7c0.1-0.1,0.2-0.3,0.3-0.4L86.1,91.5z"/>
		<path fill="#544842" d="M86.9,90.2c-0.1,0.1-0.2,0.3-0.2,0.4l5.6,3.7c0.1-0.1,0.2-0.3,0.2-0.4L86.9,90.2z"/>
		<path fill="#544842" d="M102.2,96.5V97c0,0.1,0,0.1,0,0.2l1.8,1.2l0.7-0.1L102.2,96.5z"/>
		<path fill="#544842" d="M87.7,88.8c-0.1,0.1-0.1,0.3-0.2,0.4l5.6,3.7c0.1-0.1,0.1-0.3,0.2-0.4L87.7,88.8z"/>
		<path fill="#544842" d="M90.7,96.5l-5.5-3.7c-0.1,0.1-0.2,0.3-0.3,0.4l5.5,3.7C90.4,96.8,90.5,96.7,90.7,96.5
			C90.6,96.5,90.7,96.5,90.7,96.5z"/>
		<polygon fill="#544842" points="62.2,83.9 62.9,83.8 60.7,82.4 60.7,83 		"/>
		<path fill="#544842" d="M81.8,96.4c-0.1,0.1-0.2,0.2-0.4,0.3l5.4,3.6c0.1-0.1,0.3-0.2,0.4-0.3L81.8,96.4z"/>
		<path fill="#544842" d="M84.1,94.1c-0.1,0.1-0.2,0.2-0.3,0.4l5.5,3.6c0.1-0.1,0.2-0.2,0.3-0.4L84.1,94.1z"/>
		<path fill="#544842" d="M83,95.3c-0.1,0.1-0.2,0.2-0.3,0.3l5.4,3.6c0.1-0.1,0.2-0.2,0.4-0.3L83,95.3z"/>
		<polygon fill="#544842" points="128.4,38.8 127.1,38 127.4,38.8 128.4,39.4 		"/>
		<path fill="#544842" d="M36.8,93.4c0,0.2,0,0.4-0.1,0.5l5.5,3.7c0-0.2,0-0.4,0-0.5L36.8,93.4z"/>
		<path fill="#544842" d="M36.6,95.2c0,0.2-0.1,0.3-0.1,0.5l5.5,3.7c0-0.2,0.1-0.3,0.1-0.5L36.6,95.2z"/>
		<path fill="#544842" d="M59.1,104.4l-0.7,0.1l4.1,2.7c0.3,0,0.5,0,0.8-0.1L59.1,104.4z"/>
		<path fill="#544842" d="M36.2,96.8c0,0.2-0.1,0.3-0.1,0.5l5.6,3.7c0-0.2,0.1-0.3,0.1-0.5L36.2,96.8z"/>
		<polygon fill="#544842" points="63.4,103.4 62.8,103.5 67.1,106.5 67.8,106.3 		"/>
		<path fill="#544842" d="M32.6,104c-0.1,0.1-0.2,0.3-0.3,0.4l5.5,3.7c0.1-0.1,0.2-0.3,0.3-0.4L32.6,104z"/>
		<path fill="#544842" d="M34.3,101.3c-0.1,0.1-0.2,0.3-0.2,0.4l5.6,3.7c0.1-0.1,0.2-0.3,0.2-0.4L34.3,101.3z"/>
		<path fill="#544842" d="M35.6,98.4c-0.1,0.2-0.1,0.3-0.2,0.5l5.6,3.7c0.1-0.2,0.1-0.3,0.2-0.5L35.6,98.4z"/>
		<path fill="#544842" d="M33.5,102.7c-0.1,0.1-0.2,0.3-0.3,0.4l5.6,3.7c0.1-0.1,0.2-0.3,0.3-0.4L33.5,102.7z"/>
		<path fill="#544842" d="M35,99.9c-0.1,0.1-0.1,0.3-0.2,0.4l5.6,3.7c0.1-0.1,0.1-0.3,0.2-0.4L35,99.9z"/>
		<path fill="#544842" d="M56.9,104.8c-0.2,0-0.5,0.1-0.7,0.1l3.3,2.2c0.3,0.1,0.7,0.1,1.1,0.1L56.9,104.8z"/>
		<polygon fill="#544842" points="65.6,102.9 64.9,103.1 69.3,106 69.9,105.8 		"/>
		<polygon fill="#544842" points="67.8,102.4 67.1,102.6 71.5,105.5 72.1,105.3 		"/>
		<polygon fill="#544842" points="69.9,102 69.3,102.1 73.6,105 74.3,104.9 		"/>
		<polygon fill="#544842" points="13.5,114.4 12.8,114.6 17.2,117.5 17.9,117.3 		"/>
		<polygon fill="#544842" points="8.6,116.9 8.6,117.5 10.7,118.9 11.4,118.8 		"/>
		<path fill="#544842" d="M42.3,95.1L37,91.6c0,0.2,0,0.4,0,0.6l5.4,3.6V95.1z"/>
		<polygon fill="#544842" points="11.3,114.9 10.7,115.1 15,118 15.7,117.8 		"/>
		<polygon fill="#544842" points="9.2,115.4 8.6,115.5 8.6,115.6 12.9,118.4 13.5,118.3 		"/>
		<path fill="#544842" d="M31.6,105.3c-0.1,0.1-0.2,0.2-0.3,0.4l5.5,3.7c0.1-0.1,0.2-0.2,0.3-0.4L31.6,105.3z"/>
		<polygon fill="#544842" points="42.3,87.4 37,83.9 37,84.5 42.3,88 		"/>
		<polygon fill="#544842" points="42.3,85.5 37,82 37,82.5 42.3,86.1 		"/>
		<polygon fill="#544842" points="42.3,93.2 37,89.6 37,90.2 42.3,93.8 		"/>
		<polygon fill="#544842" points="42.3,89.4 37,85.8 37,86.4 42.3,90 		"/>
		<path fill="#544842" d="M28.1,108.8c-0.1,0.1-0.3,0.2-0.4,0.3l5.3,3.5c0.1-0.1,0.3-0.2,0.4-0.3L28.1,108.8z"/>
		<path fill="#544842" d="M26.8,109.8c-0.1,0.1-0.3,0.2-0.4,0.3l5.2,3.4c0.2-0.1,0.3-0.2,0.5-0.3L26.8,109.8z"/>
		<polygon fill="#544842" points="15.7,113.9 15,114.1 19.4,117 20,116.9 		"/>
		<path fill="#544842" d="M29.4,107.7c-0.1,0.1-0.2,0.2-0.4,0.3l5.4,3.6c0.1-0.1,0.3-0.2,0.4-0.3L29.4,107.7z"/>
		<path fill="#544842" d="M25.3,110.8c-0.2,0.1-0.3,0.2-0.5,0.3l5,3.3c0.2-0.1,0.3-0.2,0.5-0.2L25.3,110.8z"/>
		<path fill="#544842" d="M23.7,111.6c-0.2,0.1-0.3,0.2-0.5,0.2L28,115c0.2-0.1,0.4-0.1,0.6-0.2L23.7,111.6z"/>
		<path fill="#544842" d="M20,113c-0.2,0.1-0.4,0.1-0.6,0.2l4.4,2.9l0.7-0.1L20,113z"/>
		<polygon fill="#544842" points="17.8,113.5 17.2,113.6 21.6,116.5 22.2,116.4 		"/>
		<path fill="#544842" d="M22,112.4c-0.2,0.1-0.4,0.1-0.6,0.2l4.5,3l0.7-0.1L22,112.4z"/>
		<polygon fill="#544842" points="42.3,91.3 37,87.7 37,88.3 42.3,91.9 		"/>
		<polygon fill="#544842" points="185.5,23 181.2,20.1 180.5,20.3 184.9,23.2 		"/>
		<polygon fill="#544842" points="128.4,35 125.3,33 125.6,33.7 128.4,35.6 		"/>
		<polygon fill="#544842" points="128.4,36.9 126.2,35.5 126.5,36.3 128.4,37.5 		"/>
		<polygon fill="#544842" points="128.4,33.1 124.4,30.5 124.7,31.2 128.4,33.7 		"/>
		<polygon fill="#544842" points="155.8,61 150.4,57.4 150.4,58 155.8,61.5 		"/>
		<polygon fill="#544842" points="155.8,62.9 150.4,59.3 150.4,59.9 155.8,63.5 		"/>
		<polygon fill="#544842" points="128.4,40.8 128,40.5 128.3,41.3 128.4,41.3 		"/>
		<polygon fill="#544842" points="128.4,31.6 128.1,31 123.5,28 123.8,28.7 128.4,31.7 		"/>
		<path fill="#544842" d="M125.5,23.7c0-0.1-0.1-0.2-0.1-0.3l-1.5-1c-0.2,0-0.4,0-0.6,0.1l-0.1,0l2.5,1.7L125.5,23.7z"/>
		<polygon fill="#544842" points="126.3,26 121.8,22.9 122,23.7 126.6,26.7 		"/>
		<polygon fill="#544842" points="127.2,28.5 122.7,25.4 122.9,26.2 127.5,29.2 		"/>
		<polygon fill="#544842" points="155.8,41.7 150.4,38.1 150.4,38.7 155.8,42.3 		"/>
		<polygon fill="#544842" points="95.3,36.1 89.9,32.5 89.9,33.1 95.3,36.6 		"/>
		<polygon fill="#544842" points="95.3,38 89.9,34.4 89.9,35 95.3,38.6 		"/>
		<polygon fill="#544842" points="95.3,34.1 89.9,30.6 89.9,31.1 95.3,34.7 		"/>
		<polygon fill="#544842" points="155.8,64.8 150.4,61.2 150.4,61.8 155.8,65.4 		"/>
		<polygon fill="#544842" points="95.3,39.9 89.9,36.3 89.9,36.9 95.3,40.5 		"/>
		<polygon fill="#544842" points="155.8,68.6 150.4,65.1 150.4,65.7 155.8,69.2 		"/>
		<polygon fill="#544842" points="155.8,66.7 150.4,63.2 150.4,63.7 155.8,67.3 		"/>
		<polygon fill="#544842" points="95.3,32.2 91.3,29.6 90.6,29.7 95.3,32.8 		"/>
		<path fill="#544842" d="M95.3,30.4c0,0,0-0.1,0-0.1l-1.8-1.2l-0.7,0.1l2.5,1.6V30.4z"/>
		<polygon fill="#544842" points="155.8,39.8 150.4,36.2 150.4,36.8 155.8,40.4 		"/>
		<path fill="#544842" d="M155.8,17c0-0.1,0-0.2,0-0.3l-1.5-1c0,0,0,0-0.1,0l-0.6,0.1l2.2,1.5V17z"/>
		<polygon fill="#544842" points="178.2,29.7 174.2,27 174.2,27.6 177.5,29.8 		"/>
		<polygon fill="#544842" points="155.8,18.6 152,16.1 151.4,16.3 155.8,19.2 		"/>
		<polygon fill="#544842" points="179.5,28.7 174.2,25.1 174.2,25.7 179.5,29.2 		"/>
		<polygon fill="#544842" points="179.5,26.7 174.2,23.2 174.2,23.7 179.5,27.3 		"/>
		<path fill="#544842" d="M180.6,24.1l0.6-0.1l-4.4-2.9l-0.7,0.1L180.6,24.1C180.6,24.1,180.6,24.1,180.6,24.1z"/>
		<polygon fill="#544842" points="183.4,23.5 179,20.6 178.4,20.8 182.7,23.7 		"/>
		<polygon fill="#544842" points="155.8,20.5 150.4,17 150.4,17.5 155.8,21.1 		"/>
		<path fill="#544842" d="M179.6,24.9l-5-3.3l-0.5,0.1v0.1l5.4,3.6C179.5,25.2,179.6,25,179.6,24.9z"/>
		<polygon fill="#544842" points="95.3,41.8 89.9,38.3 89.9,38.8 95.3,42.4 		"/>
		<polygon fill="#544842" points="155.8,34 150.4,30.4 150.4,31 155.8,34.6 		"/>
		<polygon fill="#544842" points="155.8,35.9 150.4,32.4 150.4,32.9 155.8,36.5 		"/>
		<polygon fill="#544842" points="155.8,37.9 150.4,34.3 150.4,34.9 155.8,38.4 		"/>
		<polygon fill="#544842" points="155.8,32.1 150.4,28.5 150.4,29.1 155.8,32.7 		"/>
		<polygon fill="#544842" points="155.8,30.2 150.4,26.6 150.4,27.2 155.8,30.7 		"/>
		<polygon fill="#544842" points="155.8,24.4 150.4,20.8 150.4,21.4 155.8,25 		"/>
		<polygon fill="#544842" points="155.8,22.5 150.4,18.9 150.4,19.5 155.8,23 		"/>
		<polygon fill="#544842" points="155.8,26.3 150.4,22.7 150.4,23.3 155.8,26.9 		"/>
		<polygon fill="#544842" points="155.8,28.2 150.4,24.7 150.4,25.2 155.8,28.8 		"/>
		<polygon fill="#544842" points="42.3,64.4 37,60.8 37,61.4 42.3,64.9 		"/>
		<polygon fill="#544842" points="42.3,60.5 37,56.9 37,57.5 42.3,61.1 		"/>
		<polygon fill="#544842" points="42.3,58.6 37,55 37,55.6 42.3,59.2 		"/>
		<polygon fill="#544842" points="42.3,56.7 37,53.1 37,53.7 42.3,57.2 		"/>
		<polygon fill="#544842" points="95.3,43.8 89.9,40.2 89.9,40.8 95.3,44.3 		"/>
		<polygon fill="#544842" points="42.3,54.7 37,51.2 37,51.7 42.3,55.3 		"/>
		<polygon fill="#544842" points="42.3,83.6 37,80 37,80.6 42.3,84.2 		"/>
		<polygon fill="#544842" points="42.3,50.9 37,47.3 37,47.9 42.3,51.5 		"/>
		<polygon fill="#544842" points="42.3,49 37,45.4 37,46 42.3,49.5 		"/>
		<polygon fill="#544842" points="42.3,52.8 37,49.2 37,49.8 42.3,53.4 		"/>
		<polygon fill="#544842" points="42.3,68.2 37,64.6 37,65.2 42.3,68.8 		"/>
		<polygon fill="#544842" points="42.3,77.8 37,74.3 37,74.8 42.3,78.4 		"/>
		<polygon fill="#544842" points="42.3,79.8 37,76.2 37,76.8 42.3,80.3 		"/>
		<polygon fill="#544842" points="42.3,75.9 37,72.3 37,72.9 42.3,76.5 		"/>
		<polygon fill="#544842" points="42.3,81.7 37,78.1 37,78.7 42.3,82.3 		"/>
		<polygon fill="#544842" points="42.3,47 37,43.5 37,44 42.3,47.6 		"/>
		<polygon fill="#544842" points="42.3,74 37,70.4 37,71 42.3,74.6 		"/>
		<polygon fill="#544842" points="42.3,70.1 37,66.6 37,67.1 42.3,70.7 		"/>
		<polygon fill="#544842" points="42.3,66.3 37,62.7 37,63.3 42.3,66.9 		"/>
		<polygon fill="#544842" points="42.3,72.1 37,68.5 37,69.1 42.3,72.6 		"/>
		<polygon fill="#544842" points="42.3,62.4 37,58.9 37,59.4 42.3,63 		"/>
		<polygon fill="#544842" points="66.1,37.8 63.1,35.8 62.4,35.9 66.1,38.4 		"/>
		<path fill="#544842" d="M64.6,35.5l1.5,1C66,35.6,65.5,35.3,64.6,35.5z"/>
		<polygon fill="#544842" points="95.3,53.4 89.9,49.8 89.9,50.4 95.3,54 		"/>
		<polygon fill="#544842" points="66.1,39.7 60.9,36.3 60.7,36.3 60.7,36.7 66.1,40.3 		"/>
		<polygon fill="#544842" points="66.1,41.7 60.7,38.1 60.7,38.7 66.1,42.2 		"/>
		<polygon fill="#544842" points="95.3,47.6 89.9,44 89.9,44.6 95.3,48.2 		"/>
		<polygon fill="#544842" points="95.3,45.7 89.9,42.1 89.9,42.7 95.3,46.3 		"/>
		<polygon fill="#544842" points="95.3,51.5 89.9,47.9 89.9,48.5 95.3,52 		"/>
		<polygon fill="#544842" points="95.3,49.5 89.9,46 89.9,46.5 95.3,50.1 		"/>
		<polygon fill="#544842" points="66.1,53.2 60.7,49.7 60.7,50.2 66.1,53.8 		"/>
		<polygon fill="#544842" points="66.1,55.2 60.7,51.6 60.7,52.2 66.1,55.7 		"/>
		<path fill="#544842" d="M42.2,41.2l-0.8-0.5c-0.1,0-0.3,0-0.5,0l-0.2,0l1.7,1.1C42.3,41.6,42.3,41.3,42.2,41.2z"/>
		<polygon fill="#544842" points="42.3,45.1 37,41.6 37,41.6 37,42.1 42.3,45.7 		"/>
		<polygon fill="#544842" points="42.3,43.2 39.2,41.1 38.5,41.2 42.3,43.8 		"/>
		<polygon fill="#544842" points="66.1,49.4 60.7,45.8 60.7,46.4 66.1,49.9 		"/>
		<polygon fill="#544842" points="66.1,45.5 60.7,41.9 60.7,42.5 66.1,46.1 		"/>
		<polygon fill="#544842" points="66.1,51.3 60.7,47.7 60.7,48.3 66.1,51.9 		"/>
		<polygon fill="#544842" points="66.1,47.4 60.7,43.9 60.7,44.4 66.1,48 		"/>
		<polygon fill="#544842" points="66.1,43.6 60.7,40 60.7,40.6 66.1,44.2 		"/>
	</g>
	<g>
		<path fill="#E1E0D4" d="M18.6,110.6l-16.4,3.6c-1.1,0.2-1.7-0.2-1.7-1.3V102c0-1.1,0.6-1.8,1.7-2.1l13.6-3
			c1.1-0.2,1.7-0.9,1.7-2.1V41c0-1.1,0.6-1.8,1.7-2.1l13.6-3c1-0.2,1.4,0.3,1.4,1.4V91c0,4.5-1.5,8.6-4.6,12.4
			C26.6,107.2,22.9,109.6,18.6,110.6z"/>
		<path fill="#E1E0D4" d="M58.1,32v51.2c0,2.9,1.4,4,4.2,3.4l4-0.9c2.8-0.6,4.2-2.4,4.2-5.2V29.3c0-1.1,0.6-1.8,1.7-2.1l13.4-3
			c1.1-0.2,1.7,0.2,1.7,1.3v53.7c0,4.5-1.5,8.6-4.6,12.4c-3.1,3.8-6.8,6.2-11.1,7.2L57.3,102c-4.5,1-8.3,0.3-11.4-2.2
			c-3.1-2.5-4.6-5.9-4.6-10.4V35.7c0-1.1,0.6-1.8,1.7-2.1l13.4-3C57.5,30.4,58.1,30.9,58.1,32z"/>
		<path fill="#E1E0D4" d="M131,56.9V15.9c0-1.1,0.6-1.8,1.7-2.1l13.5-3c1.1-0.2,1.6,0.2,1.6,1.4v68.1c0,1.1-0.5,1.8-1.6,2.1
			l-19.3,4.3c-1.1,0.2-1.9-0.2-2.2-1.2L111,47.2v41.2c0,1.1-0.5,1.8-1.6,2.1l-13.5,3c-1.1,0.2-1.7-0.2-1.7-1.3V24
			c0-1.1,0.6-1.8,1.7-2.1l19.4-4.3c1.1-0.2,1.9,0.2,2.2,1.2L131,56.9z"/>
		<path fill="#E1E0D4" d="M154.7,64.4V10.7c0-1.1,0.6-1.8,1.7-2.1L195,0.1c1.1-0.2,1.7,0.2,1.7,1.3v10.9c0,1.1-0.6,1.8-1.7,2.1
			l-22.4,4.9c-0.7,0.2-1.1,0.6-1.1,1.4v12c0,0.8,0.4,1.1,1.1,0.9l18.6-4.1c1.1-0.2,1.7,0.2,1.7,1.3v10.9c0,1.1-0.6,1.8-1.7,2.1
			l-18.6,4.1c-0.7,0.2-1.1,0.6-1.1,1.4v7c0,4.1,2,5.8,6.1,4.9l18.6-4.1c1.1-0.2,1.7,0.2,1.7,1.3v10.9c0,1.1-0.6,1.8-1.7,2.1
			L170.5,77c-4.3,1-8.1,0.2-11.1-2.3C156.3,72.3,154.7,68.8,154.7,64.4z"/>
	</g>
	<polygon fill="#544842" points="195.7,294.2 0,337.2 0,341.8 195.7,298.8 	"/>
	<g>
		<g>
			<path fill="#B5A899" d="M6.7,164l-5.2-3.6l17.1-34.6l8.3-1.8v27.1l2.3-0.5v8.5l-2.3,0.5v10.2l-8.3,1.8v-1.4l0,0v-8.8L6.7,164z
				 M13,154.2l5.6-1.2v-10L13,154.2z"/>
			<path fill="#B5A899" d="M57.8,125.6l-8.2,1.8v12.8l1.7,1.3l-1.7,2v21.3l-8.3,1.8v-21.3l-1.7-1.2l1.7-2v-12.8l-8.2,1.8v-8.5
				l24.7-5.5V125.6z"/>
			<path fill="#B5A899" d="M87.6,156.4l-8.3,1.8v-18.7l-9.4,2.1v18.7l-8.3,1.8v-21.3l-1.7-1.2l1.7-2v-21.3l8.3-1.8v18.7l9.4-2.1
				v-18.7l8.3-1.8v21.3l1.7,1.3l-1.7,2V156.4z"/>
			<path fill="#B5A899" d="M138.8,140.3l-5.3,6l-14.3,3.2l-5.3-3.6v-16.5l-1.7-1.2l1.7-2v-16.4l5.2-6l14.3-3.2l5.3,3.6v7.1l-8.3,1.8
				v-3.4l-8.3,1.8v10.2l11.4-2.5l5.3,3.6V140.3z M130.4,138.5v-10.2l-8.3,1.8v10.2L130.4,138.5z"/>
			<path fill="#B5A899" d="M167.4,101.4l-8.2,1.8V116l1.7,1.3l-1.7,2v21.3l-8.3,1.8v-21.3l-1.7-1.2l1.7-2V105l-8.2,1.8v-8.5
				l24.7-5.5V101.4z"/>
			<path fill="#B5A899" d="M197.3,132.1L189,134v-18.7l-9.4,2.1V136l-8.3,1.8v-21.3l-1.7-1.2l1.7-2V92l8.3-1.8v18.7l9.4-2.1V88.2
				l8.3-1.8v21.3l1.7,1.3l-1.7,2V132.1z"/>
		</g>
		<polygon fill="#B5A899" points="106.9,133.3 95.8,135.7 95.8,127.4 106.9,124.9 		"/>
	</g>
	<g>
		<g>
			<path fill="#FFFFFF" d="M15.5,299.6l-5.3,25.4l-1.6,0.4l-5-22.5v23.7l-2.4,0.5v-36.9l2.2-0.5l6,28.7l6.3-31.4l2.2-0.5v36.9
				l-2.4,0.5V299.6z"/>
			<path fill="#FFFFFF" d="M25.8,307.2l-2.6,0.6l-1.7,14.8l-2.4,0.5l1.7-14.8l-1.8,0.4v-2.3l2.2-0.5l2.4-20.6l2.1-0.5l4.1,36
				l-2.2,0.5L25.8,307.2z M23.4,305.4l2.1-0.5l-0.9-9.4L23.4,305.4z"/>
			<path fill="#FFFFFF" d="M33.5,297.1v22.8l-2.5,0.5v-36.9l2.3-0.5l4.5,22.7v-23.7l2.4-0.5v36.8l-2.4,0.6L33.5,297.1z"/>
			<path fill="#FFFFFF" d="M50.2,314v2.3l-8.8,1.9v-1.6l6.7-34.4l-6.1,1.3v-2.3l8.9-2l-7,36.1L50.2,314z"/>
			<path fill="#FFFFFF" d="M58.6,299.9l-2.6,0.6l-1.7,14.8l-2.4,0.5l1.7-14.8l-1.8,0.4v-2.3l2.2-0.5l2.4-20.6l2.1-0.5l4.1,36
				l-2.2,0.5L58.6,299.9z M56.3,298.1l2.1-0.5l-0.9-9.4L56.3,298.1z"/>
			<path fill="#FFFFFF" d="M66.4,289.8v22.8l-2.5,0.5v-36.9l2.3-0.5l4.5,22.7v-23.7l2.4-0.5v36.8l-2.4,0.6L66.4,289.8z"/>
			<path fill="#FFFFFF" d="M74.5,274l2.5-0.5v36.9l-2.5,0.5V274z"/>
			<path fill="#FFFFFF" d="M77.9,273.2l2.4-0.5v34.6l5.9-1.3v2.3l-8.3,1.8V273.2z"/>
			<path fill="#FFFFFF" d="M87.4,271.1l2.4-0.5v34.6l5.9-1.3v2.3l-8.3,1.8V271.1z"/>
			<path fill="#FFFFFF" d="M101.7,304.8c-1.2,0.2-2.3,0.2-3.2-0.2c-0.9-0.3-1.4-1.3-1.4-3V273c0-1.2,0.5-2.2,1.4-3.2
				c0.9-1,2-1.6,3.3-1.9c1.2-0.3,2.3-0.1,3.2,0.5c0.9,0.6,1.3,1.4,1.3,2.6v28.7c0,1.6-0.4,2.8-1.3,3.6c-0.9,0.7-1.8,1.2-2.9,1.5
				c0,0-0.1,0-0.1,0C101.8,304.7,101.8,304.7,101.7,304.8C101.7,304.7,101.7,304.7,101.7,304.8L101.7,304.8z M103.3,270.4
				c-0.3-0.2-0.7-0.3-1.1-0.3c-0.1,0-0.1,0-0.2,0c-0.1,0-0.1,0-0.2,0c-0.1,0-0.1,0-0.2,0c0,0-0.1,0-0.2,0.1
				c-0.5,0.2-0.9,0.4-1.3,0.8c-0.4,0.4-0.6,0.8-0.6,1.2v28.7c0,0.6,0.2,1.1,0.6,1.3c0.4,0.3,0.9,0.3,1.6,0.2
				c0.7-0.1,1.2-0.4,1.6-0.9c0.4-0.4,0.6-0.9,0.6-1.5v-28.7C103.8,271,103.6,270.7,103.3,270.4z"/>
			<path fill="#FFFFFF" d="M108.1,306.3l-1.3-0.4c0-0.2,0.1-0.3,0.1-0.4c0-0.1,0.1-0.3,0.2-0.4c0,0,0-0.1,0-0.1c0-0.1,0-0.1,0.1-0.2
				c0.1-0.3,0.1-0.5,0.2-0.7c0.1-0.2,0.1-0.4,0.1-0.6c-0.1-0.1-0.2-0.2-0.2-0.3c-0.1-0.1-0.1-0.2-0.2-0.4c-0.1-0.1-0.1-0.2-0.1-0.3
				c0-0.1,0-0.2,0-0.3c0-0.5,0.2-1,0.5-1.4c0.4-0.4,0.8-0.7,1.3-0.8c0.5-0.1,0.9,0,1.3,0.3c0.4,0.3,0.6,0.7,0.6,1.2
				c0,0.3-0.1,0.8-0.4,1.4C109.8,303.3,109.1,304.5,108.1,306.3L108.1,306.3z"/>
			<path fill="#FFFFFF" d="M122.7,300.2c-1.1,0.2-2.2,0.1-3-0.2c-0.9-0.3-1.3-1.3-1.3-3v-28.7c0-1.3,0.4-2.5,1.3-3.3
				c0.9-0.9,1.9-1.4,3-1.7c0,0,0.1,0,0.1,0c0,0,0,0,0.1,0c1.1-0.2,2.1,0,3,0.6c0.9,0.6,1.3,1.4,1.3,2.5v4.4l-2.2,0.5v-4.4
				c0-0.5-0.2-0.9-0.7-1.1c-0.4-0.2-1-0.3-1.6-0.2c-0.7,0.1-1.1,0.4-1.4,0.7c-0.3,0.3-0.4,0.6-0.5,0.9c0,0.1,0,0.2,0,0.3
				c0,0.1,0,0.2,0,0.3v28.8c0,0.6,0.2,1,0.5,1.2c0.4,0.2,0.7,0.3,1.2,0.3c0.1,0,0.1,0,0.2,0c0,0,0.1,0,0.2,0
				c0.6-0.1,1.1-0.4,1.6-0.8c0.5-0.4,0.7-1,0.7-1.6v-4.3l2.3-0.5v4.3c0,1.1-0.5,2.2-1.4,3.2c-0.9,1-2,1.7-3.1,1.9
				C122.8,300.2,122.8,300.2,122.7,300.2C122.7,300.2,122.7,300.2,122.7,300.2L122.7,300.2z"/>
			<path fill="#FFFFFF" d="M133.3,297.8c-1.2,0.2-2.3,0.2-3.2-0.2c-0.9-0.3-1.4-1.3-1.4-3V266c0-1.2,0.5-2.2,1.4-3.2
				c0.9-1,2-1.6,3.3-1.9c1.2-0.3,2.3-0.1,3.2,0.5c0.9,0.6,1.3,1.4,1.3,2.6v28.7c0,1.6-0.4,2.8-1.3,3.6c-0.9,0.7-1.8,1.2-2.9,1.5
				c0,0-0.1,0-0.1,0C133.4,297.7,133.4,297.7,133.3,297.8C133.3,297.8,133.3,297.8,133.3,297.8L133.3,297.8z M134.9,263.5
				c-0.3-0.2-0.7-0.3-1.1-0.3c-0.1,0-0.1,0-0.2,0c-0.1,0-0.1,0-0.2,0c-0.1,0-0.1,0-0.2,0c0,0-0.1,0-0.2,0.1
				c-0.5,0.2-0.9,0.4-1.3,0.8c-0.4,0.4-0.6,0.8-0.6,1.2v28.7c0,0.6,0.2,1.1,0.6,1.3c0.4,0.3,0.9,0.3,1.6,0.2
				c0.7-0.1,1.2-0.4,1.6-0.9c0.4-0.4,0.6-0.9,0.6-1.5v-28.7C135.4,264,135.2,263.7,134.9,263.5z"/>
			<path fill="#FFFFFF" d="M138.8,259.8l2.4-0.5v34.6l5.9-1.3v2.3l-8.3,1.8V259.8z"/>
			<path fill="#FFFFFF" d="M149.9,294.3c-0.5,0.1-0.9,0-1.3-0.3c-0.4-0.3-0.5-0.7-0.5-1.2c0-0.5,0.2-1,0.5-1.4
				c0.4-0.4,0.8-0.7,1.3-0.8c0.5-0.1,0.9,0,1.3,0.3c0.4,0.3,0.6,0.7,0.6,1.2c0,0.5-0.2,1-0.6,1.4
				C150.8,293.9,150.4,294.1,149.9,294.3L149.9,294.3z"/>
			<path fill="#FFFFFF" d="M174.4,264.5l-5.3,25.4l-1.6,0.4l-5-22.5v23.7L160,292v-36.9l2.2-0.5l6,28.7l6.3-31.4l2.2-0.5v36.9
				l-2.4,0.5V264.5z"/>
			<path fill="#FFFFFF" d="M189.4,285.5L187,286l-3.3-12.2l-3,13.6l-2.6,0.6l4.2-19.2l-4-17.7l2.6-0.6l2.7,12.3l3.4-13.7l2.5-0.6
				l-4.7,19.6L189.4,285.5z"/>
			<path fill="#FFFFFF" d="M191.9,285c-0.5,0.1-0.9,0-1.3-0.3c-0.4-0.3-0.5-0.7-0.5-1.2c0-0.5,0.2-1,0.5-1.4
				c0.4-0.4,0.8-0.7,1.3-0.8c0.5-0.1,0.9,0,1.3,0.3c0.4,0.3,0.6,0.7,0.6,1.2c0,0.5-0.2,1-0.6,1.4C192.9,284.6,192.4,284.8,191.9,285
				L191.9,285z"/>
		</g>
	</g>
</g>
</svg>
