<?xml version="1.0" encoding="utf-8"?>
<!-- Generator: Adobe Illustrator 17.1.0, SVG Export Plug-In . SVG Version: 6.00 Build 0)  -->
<!DOCTYPE svg PUBLIC "-//W3C//DTD SVG 1.1//EN" "http://www.w3.org/Graphics/SVG/1.1/DTD/svg11.dtd">
<svg version="1.1" id="Layer_1" xmlns="http://www.w3.org/2000/svg" xmlns:xlink="http://www.w3.org/1999/xlink" x="0px" y="0px"
	 viewBox="0 0 194.1 40.2" enable-background="new 0 0 194.1 40.2" xml:space="preserve">
<g>
	<g>
		<circle fill="#938D85" cx="15.2" cy="5.1" r="5.1"/>
		<path fill="#938D85" d="M15.3,40.2L15.3,40.2c-2.5,0-4.4-1.9-4.4-4.3V16.2c0-2.4,1.9-4.3,4.3-4.3h0.1c2.4,0,4.3,1.9,4.3,4.3v19.7
			C19.6,38.3,17.7,40.2,15.3,40.2z"/>
		<polygon fill="#938D85" points="28.3,17 28.3,15.3 26.4,15.3 26.4,13.6 24.7,13.6 24.7,11.9 21.1,11.9 21.1,13.6 22.8,13.6 
			22.8,15.3 24.6,15.3 24.6,17 26.4,17 26.4,18.7 24.6,18.7 24.6,20.4 22.8,20.4 22.8,22.1 21.1,22.1 21.1,23.8 24.7,23.8 
			24.7,22.1 26.4,22.1 26.4,20.4 28.3,20.4 28.3,18.7 30.1,18.7 30.1,17 		"/>
		<polygon fill="#938D85" points="1.8,18.7 1.8,20.4 3.6,20.4 3.6,22.1 5.4,22.1 5.4,23.8 9,23.8 9,22.1 7.3,22.1 7.3,20.4 
			5.5,20.4 5.5,18.7 3.6,18.7 3.6,17 5.5,17 5.5,15.3 7.3,15.3 7.3,13.6 9,13.6 9,11.9 5.4,11.9 5.4,13.6 3.6,13.6 3.6,15.3 
			1.8,15.3 1.8,17 0,17 0,18.7 		"/>
		<g>
			<path fill="#938D85" d="M42.9,25.7h8c0.4,0,0.8,0.3,0.8,0.8v0c0,0.4-0.3,0.8-0.8,0.8h-8v6H52c0.4,0,0.8,0.3,0.8,0.8v0
				c0,0.4-0.3,0.8-0.8,0.8H42c-0.4,0-0.7-0.3-0.7-0.7V18.9c0-0.4,0.3-0.7,0.7-0.7h10c0.4,0,0.8,0.3,0.8,0.8v0c0,0.4-0.3,0.8-0.8,0.8
				h-9.1V25.7z"/>
			<path fill="#938D85" d="M115,25.7h8c0.4,0,0.8,0.3,0.8,0.8v0c0,0.4-0.3,0.8-0.8,0.8h-8v6h9.1c0.4,0,0.8,0.3,0.8,0.8v0
				c0,0.4-0.3,0.8-0.8,0.8h-10c-0.4,0-0.7-0.3-0.7-0.7V18.9c0-0.4,0.3-0.7,0.7-0.7h10c0.4,0,0.8,0.3,0.8,0.8v0
				c0,0.4-0.3,0.8-0.8,0.8H115V25.7z"/>
			<path fill="#938D85" d="M58,34.1V19.7c0-0.8,0.7-1.5,1.5-1.5h0c0.5,0,1,0.3,1.3,0.7l5.1,8.8l5.1-8.8c0.3-0.4,0.8-0.7,1.3-0.7h0
				c0.8,0,1.5,0.7,1.5,1.5v14.4c0,0.4-0.3,0.8-0.8,0.8h0c-0.4,0-0.8-0.3-0.8-0.8V20.9c0-0.3-0.3-0.4-0.5-0.1L67,28.9
				c-0.2,0.4-0.7,0.6-1.1,0.6h0c-0.4,0-0.9-0.2-1.1-0.6L60,20.8c-0.1-0.2-0.5-0.1-0.5,0.1v13.2c0,0.4-0.3,0.8-0.8,0.8h0
				C58.4,34.9,58,34.5,58,34.1z"/>
			<path fill="#938D85" d="M80,18.7c0-0.3,0.2-0.5,0.5-0.5h5.7c1,0,1.8,0.1,2.4,0.2c0.6,0.1,1.1,0.3,1.5,0.5c0.7,0.4,1.3,1,1.6,1.7
				c0.4,0.7,0.6,1.5,0.6,2.3c0,0.8-0.2,2.4-0.5,3.1c-0.3,0.7-0.8,1.2-1.4,1.6c-0.4,0.3-0.9,0.5-1.5,0.6c-0.6,0.1-1.4,0.2-2.3,0.2
				h-4.9v5.7c0,0.4-0.4,0.8-0.8,0.8h0c-0.4,0-0.8-0.3-0.8-0.9V18.7z M81.6,19.8v7h5.2c1.3,0,2.3-0.2,2.9-0.7
				c0.6-0.5,0.9-2.1,0.9-3.1c0-1.1-0.3-1.9-0.9-2.4c-0.6-0.5-1.6-0.7-3-0.7H81.6z"/>
			<path fill="#938D85" d="M107.9,34.9H97.8c-0.4,0-0.7-0.3-0.7-0.7V18.7c0-0.4,0.3-0.8,0.8-0.8h0c0.4,0,0.8,0.3,0.8,0.8v14.6h9.1
				c0.4,0,0.8,0.3,0.8,0.8v0C108.6,34.5,108.3,34.9,107.9,34.9z"/>
			<path fill="#938D85" d="M129.7,26.4c0-1.2,0.2-2.3,0.7-3.4c0.5-1.1,1.1-2,2-2.9c0.8-0.8,1.7-1.4,2.7-1.8c1-0.4,2.1-0.6,3.2-0.6
				c1.2,0,2.3,0.2,3.3,0.6c1,0.4,1.9,1,2.8,1.8c0.9,0.8,1.5,1.8,1.9,2.8c0.4,1,0.6,2.2,0.6,3.4c0,1.2-0.2,2.3-0.6,3.3
				c-0.4,1-0.9,1.9-1.7,2.7c-0.9,0.9-1.8,1.7-2.9,2.1c-1.1,0.5-2.3,0.7-3.5,0.7c-2.4,0-4.5-0.9-6.1-2.6
				C130.5,31,129.7,28.9,129.7,26.4z M131.4,26.5c0,2.1,0.7,3.8,2,5.2c1.3,1.4,3,2.1,4.9,2.1c1.9,0,3.5-0.7,4.8-2.1
				c1.3-1.4,2-3.1,2-5.2c0-1.9-0.7-3.6-2-4.9c-1.4-1.4-3-2.1-4.9-2.1c-0.8,0-1.5,0.1-2.3,0.4c-0.7,0.3-1.4,0.7-2,1.2
				c-0.8,0.7-1.4,1.5-1.9,2.5C131.6,24.4,131.4,25.4,131.4,26.5z"/>
			<path fill="#938D85" d="M152.7,31.3c0.2,0.4,0.5,0.8,0.9,1.1c1.8,1.6,5.6,1.2,7.2,0c0.8-0.6,1.2-1.4,1.2-2.4
				c-0.1-1.9-2.1-2.6-5.3-3.3c-0.2-0.1-0.4-0.1-0.6-0.1c-1.7-0.4-2.8-0.9-3.6-1.5c-0.7-0.6-1.1-1.4-1.1-2.4c0-1.3,0.6-2.3,1.7-3.2
				c1.1-0.8,2.6-1.2,4.3-1.2c3.1,0,4.5,1.4,5,1.9c0.7,0.9-0.2,1.8-0.9,1.1c-1.2-1.5-4.6-2.6-7.3-0.7c-0.7,0.5-1.1,1.2-1.1,2
				c0,0.4,0.1,0.8,0.3,1.1c0.2,0.3,0.5,0.6,1,0.8c2.2,1,5.1,1.5,7,2.5c2.5,1.5,2.1,3.8,1.9,4.2c-0.3,0.9-0.8,1.7-1.6,2.3
				c-1.2,1-2.8,1.4-4.7,1.4c-1.8,0-3.3-0.5-4.5-1.4c-0.6-0.5-1-1-1.3-1.6C150.6,30.8,152.5,30.4,152.7,31.3z"/>
			<path fill="#938D85" d="M79.8,34.7"/>
			<rect x="168.7" y="18" fill="#938D85" width="17.2" height="4.2"/>
			<rect x="175.2" y="22.2" fill="#938D85" width="4.2" height="12.8"/>
			<rect x="190" y="18" fill="#938D85" width="4.2" height="16.9"/>
		</g>
	</g>
</g>
</svg>
