<?xml version="1.0" encoding="utf-8"?>
<!-- Generator: Adobe Illustrator 17.1.0, SVG Export Plug-In . SVG Version: 6.00 Build 0)  -->
<!DOCTYPE svg PUBLIC "-//W3C//DTD SVG 1.1//EN" "http://www.w3.org/Graphics/SVG/1.1/DTD/svg11.dtd">
<svg version="1.1" id="Layer_2" xmlns="http://www.w3.org/2000/svg" xmlns:xlink="http://www.w3.org/1999/xlink" x="0px" y="0px"
	 viewBox="-3 66.5 604.3 622.3" enable-background="new -3 66.5 604.3 622.3" xml:space="preserve">
<g>
	<polygon fill="#534741" points="595.5,545.4 5.1,675 5.1,688.8 595.5,559.2 	"/>
	<g>
		<path fill="#534741" d="M20.3,386.4c-6.1,1-11.5,0.7-16.2-1.1c-4.7-1.7-7.1-7.1-7.1-15.9V215.6c0-7.2,2.4-13.2,7.2-17.9
			c4.8-4.7,10.1-7.7,15.9-8.9c0.2,0,0.3-0.1,0.4-0.1c0.1,0,0.2,0,0.4-0.1c5.8-1.1,11.1-0.1,15.9,3c4.8,3.1,7.2,7.6,7.2,13.6v23.7
			l-12,2.7v-23.7c0-2.6-1.2-4.6-3.5-5.9c-2.3-1.3-5.1-1.6-8.3-0.9c-3.5,0.8-6,2-7.3,3.6c-1.4,1.6-2.3,3.2-2.8,4.8
			c0,0.7,0,1.2-0.1,1.8c-0.1,0.5-0.1,1-0.1,1.5v154c0,3.1,1,5.3,2.9,6.5c1.9,1.2,4,1.7,6.3,1.6c0.3-0.1,0.6-0.1,0.8-0.2
			c0.2-0.1,0.5-0.1,0.8-0.2c3-0.7,5.8-2.2,8.3-4.5c2.5-2.4,3.7-5.3,3.7-8.7v-22.9l12.5-2.8v23.2c0,5.9-2.4,11.6-7.3,17
			c-4.9,5.4-10.5,8.8-16.7,10.2c-0.2,0-0.3,0.1-0.4,0.1c-0.1,0-0.2,0-0.4,0.1V386.4z"/>
		<path fill="#534741" d="M76.9,373.4c-6.4,1.3-12.2,1-17.2-0.9c-5.1-1.8-7.6-7.2-7.6-16.1V202.9c0-6.2,2.5-12,7.5-17.2
			c5-5.2,10.8-8.6,17.6-10c6.6-1.5,12.2-0.6,17,2.5c4.7,3.1,7.1,7.8,7.1,13.8v153.8c0,8.7-2.3,15.1-7,19c-4.7,4-9.9,6.6-15.6,7.9
			c-0.2,0-0.4,0.1-0.7,0.2c-0.2,0-0.3,0.1-0.5,0.1c-0.2,0-0.3,0.1-0.5,0.1V373.4z M85.4,189.4c-1.8-1.2-3.9-1.8-6.1-1.6
			c-0.3-0.1-0.7-0.1-1.1,0c-0.4,0.1-0.8,0.2-1.1,0.2c-0.3,0.1-0.6,0.1-0.8,0.2c-0.2,0.1-0.5,0.2-0.8,0.4c-2.6,0.9-4.9,2.4-7,4.5
			c-2.1,2.1-3.1,4.3-3.1,6.6v153.8c0,3.3,1,5.6,3.1,7.1c2.1,1.4,4.9,1.8,8.4,1c3.5-0.8,6.3-2.3,8.3-4.7c2-2.3,3-5.1,3-8.2V195
			C88.2,192.5,87.3,190.7,85.4,189.4z"/>
		<path fill="#534741" d="M121.7,241.5v122.2l-13.2,2.9V169.3l12.3-2.7l24.1,121.3V161.3l13-2.9v197.1l-12.8,3.1L121.7,241.5z"/>
		<path fill="#534741" d="M195,347.6l-13.2,2.9V165.7l-17.8,3.9V157l48.1-10.6V159l-17.1,3.8V347.6z"/>
		<path fill="#534741" d="M243.6,259.5l-13.7,3l-8.9,79.3l-12.8,2.8l8.9-79.3l-9.9,2.2v-12.3l11.5-2.6l13-110.6l11.1-2.4L265,332.1
			l-12,2.7L243.6,259.5z M231.1,249.9l11.1-2.4l-5.1-50.1L231.1,249.9z"/>
		<path fill="#534741" d="M294.1,325.9c-6.1,1-11.5,0.7-16.2-1.1c-4.7-1.7-7.1-7.1-7.1-15.9V155.1c0-7.2,2.4-13.2,7.2-17.9
			c4.8-4.7,10.1-7.7,15.9-8.9c0.2,0,0.3-0.1,0.4-0.1c0.1,0,0.2,0,0.4-0.1c5.8-1.1,11.1-0.1,15.9,3c4.8,3.1,7.2,7.6,7.2,13.6v23.7
			l-12,2.7v-23.7c0-2.6-1.2-4.6-3.5-5.9c-2.3-1.3-5.1-1.6-8.3-0.9c-3.5,0.8-6,2-7.3,3.6c-1.4,1.6-2.3,3.2-2.8,4.8
			c0,0.7,0,1.2-0.1,1.8c-0.1,0.5-0.1,1-0.1,1.5v154c0,3.1,1,5.3,2.9,6.5c1.9,1.2,4,1.7,6.3,1.6c0.3-0.1,0.6-0.1,0.8-0.2
			c0.2-0.1,0.5-0.1,0.8-0.2c3-0.7,5.8-2.2,8.3-4.5c2.5-2.4,3.7-5.3,3.7-8.7v-22.9l12.5-2.8v23.2c0,5.9-2.4,11.6-7.3,17
			c-4.9,5.4-10.5,8.8-16.7,10.2c-0.2,0-0.3,0.1-0.4,0.1c-0.1,0-0.2,0-0.4,0.1V325.9z"/>
		<path fill="#534741" d="M356.7,311.8l-13.2,2.9V130l-17.8,3.9v-12.6l48.1-10.6v12.6l-17.1,3.8V311.8z"/>
		<path fill="#534741" d="M405.3,223.7l-13.7,3l-8.9,79.3l-12.8,2.8l8.9-79.3l-9.9,2.2v-12.3l11.5-2.6l13-110.6l11.1-2.4l22.1,192.5
			l-12,2.7L405.3,223.7z M392.8,214.2l11.1-2.4l-5.1-50.1L392.8,214.2z"/>
		<path fill="#534741" d="M447,169.7v122.2l-13.2,2.9V97.4l12.3-2.7l24.1,121.3V89.4l13-2.9v197.1l-12.8,3.1L447,169.7z"/>
		<path fill="#534741" d="M514.3,276.8c-6.4,1.3-12.2,1-17.2-0.9c-5.1-1.8-7.6-7.2-7.6-16.1V106.3c0-6.2,2.5-12,7.5-17.2
			c5-5.2,10.8-8.6,17.6-10c6.6-1.5,12.2-0.6,17,2.5c4.7,3.1,7.1,7.8,7.1,13.8v153.8c0,8.7-2.3,15.1-7,19c-4.7,4-9.9,6.6-15.6,7.9
			c-0.2,0-0.4,0.1-0.7,0.2c-0.2,0-0.3,0.1-0.5,0.1c-0.2,0-0.3,0.1-0.5,0.1V276.8z M522.9,92.8c-1.8-1.2-3.9-1.8-6.1-1.6
			c-0.3-0.1-0.7-0.1-1.1,0c-0.4,0.1-0.8,0.2-1.1,0.2c-0.3,0.1-0.6,0.1-0.8,0.2c-0.2,0.1-0.5,0.2-0.8,0.4c-2.6,0.9-4.9,2.4-7,4.5
			c-2.1,2.1-3.1,4.3-3.1,6.6v153.8c0,3.3,1,5.6,3.1,7.1c2.1,1.4,4.9,1.8,8.4,1c3.5-0.8,6.3-2.3,8.3-4.7c2-2.3,3-5.1,3-8.2V98.3
			C525.6,95.9,524.7,94,522.9,92.8z"/>
		<path fill="#534741" d="M582.4,86.5c0-2.6-1.1-4.7-3.4-6.2c-2.2-1.5-5-1.9-8.2-1.1c-0.3,0.1-0.7,0.2-1.1,0.4
			c-0.4,0.2-0.8,0.3-1.1,0.4c-2.4,0.9-4.7,2.3-6.7,4.3c-2.1,2-3.1,4.4-3.1,7.2v78.1c0,3.8,1,6.2,3.1,7.3c2.1,1.1,4.4,1.5,7,1.3
			c0.3-0.1,0.6-0.1,0.8-0.2s0.5-0.1,0.8-0.2c0.5-0.1,0.9-0.2,1.3-0.3c0.4-0.1,0.8-0.2,1.1-0.2c5-0.8,9.5-0.1,13.6,1.9
			c4.1,2.1,6.1,6.5,6.1,13.4v45.1c0,6.1-2.3,11.7-7,16.8c-4.7,5.1-10.3,8.6-17.1,10.4c-7.2,1.6-13,0.7-17.2-2.7
			c-4.3-3.4-6.5-7.7-6.6-13c0-0.2,0-0.3,0-0.4c0-0.1,0-0.2,0-0.4v-23.4l12.5-2.8v23.2c0,2.8,1.1,5,3.2,6.6c2.2,1.6,4.8,2,8.1,1.3
			c3.2-0.7,6-2.3,8.3-4.8c2.3-2.5,3.5-5.3,3.5-8.4v-44.8c0-2.8-1-4.6-2.9-5.3c-1.9-0.7-4-0.9-6.3-0.6c-0.2,0-0.3,0.1-0.4,0.1
			c-0.1,0-0.2,0-0.4,0.1c-1.3,0.3-2.7,0.5-4.2,0.7c-1.5,0.2-3.1,0.2-4.7,0.1c-4-0.3-7.6-1.6-10.8-4c-3.2-2.4-4.8-7.1-4.8-14V94.3
			c0-5.7,1.8-10.7,5.4-15c3.6-4.2,7.5-7.4,11.7-9.5c1.1-0.6,2.2-1.1,3.4-1.5c1.1-0.4,2.2-0.7,3.4-1c0.2,0,0.3-0.1,0.5-0.1
			c0.2,0,0.3-0.1,0.5-0.1c6.7-1.3,12.4-0.5,17,2.4c4.6,2.9,6.9,7.6,6.9,14V106l-12.3,2.7V86.5z"/>
	</g>
	<g>
		<g>
			<path fill="#534741" d="M19.4,641.6l-16.8,3.6l0.4-43l-3.5-2.6l3.6-4.1l0.4-43l16.8-3.6l-0.4,43l3.4,2.6l-3.5,4L19.4,641.6z"/>
			<path fill="#534741" d="M62.5,632.4l-17.9-44.7l-0.4,48.6l-16.7,3.5l0.4-43l-3.5-2.6l3.6-4.1l0.4-43l18-3.8l17.9,44.8l0.4-48.6
				l16.6-3.5l-0.4,43l3.5,2.6l-3.6,4.1l-0.4,42.9l0.1,0.1L62.5,632.4z"/>
			<path fill="#534741" d="M132.5,542.1l-26.6,5.6l-0.2,20.7l22.9-4.8l-0.2,17.2l-22.9,4.8l-0.3,37.8l-16.8,3.6l0.4-43l-3.4-2.6
				l3.5-4.1l0.4-43l43.4-9.2L132.5,542.1z"/>
			<path fill="#534741" d="M192.7,595.2l-10.9,12l-31.2,6.6l-10.6-7.4l0.3-33.4l-3.5-2.6l3.6-4.1l0.3-33.3l10.8-12l31.2-6.6
				l10.7,7.5l-0.3,33.3l3.4,2.6l-3.5,4L192.7,595.2z M176.1,565.4l-3.5-2.6l3.6-4.1l0.2-25.9l-19.1,4l-0.2,25.9l3.5,2.6l-3.6,4.1
				l-0.2,25.9l19.1-4L176.1,565.4z"/>
			<path fill="#534741" d="M201,560.2l-3.4-2.6l3.5-4.1L201,560.2z M254.6,591.8l-18,3.8l-13.9-34.8l-5,1.1l-0.3,37.8l-16.8,3.6
				l0.8-92.7l40.3-8.5l10.6,7.5l-0.3,34.1l-11.5,13.3L254.6,591.8z M217.9,544.7l17.4-3.7l0.2-20.7L218,524L217.9,544.7z"/>
			<path fill="#534741" d="M325.4,576.8l-16.8,3.6l0.5-52.2l-14.9,35l-14.3-28.8l-0.5,52.2l-16.7,3.5l0.4-43l-3.5-2.6l3.6-4.1
				l0.4-43l16.7-3.5l14.3,28.8l14.9-35l16.8-3.6l-0.4,43l3.4,2.6l-3.5,4L325.4,576.8z"/>
			<path fill="#534741" d="M376.2,566l-3.9-19.8l-17.6,3.7l-4.2,21.5l-17.1,3.6l18.9-96.6l23.6-5l17.3,88.9L376.2,566z M369.1,529.8
				l-5.2-26.6l-5.7,28.9L369.1,529.8z"/>
			<path fill="#534741" d="M450.9,540.5l-11.1,12l-29.9,6.3l-10.6-7.4l0.3-33.4l-3.5-2.6l3.6-4.1l0.3-33.3l10.8-12l29.9-6.3
				l10.9,7.5l-0.1,14.3l-16.7,3.5l0.1-7l-18,3.8l-0.2,25.9l3.5,2.6l-3.6,4.1l-0.2,25.9l18-3.8l0.1-7.5l16.7-3.5L450.9,540.5z"/>
			<path fill="#534741" d="M475.7,545l-16.8,3.6l0.4-43l-3.5-2.6l3.6-4.1l0.4-43l16.8-3.6l-0.4,43l3.4,2.6l-3.5,4L475.7,545z"/>
			<path fill="#534741" d="M536.5,522.4l-10.9,12l-31.2,6.6l-10.6-7.4l0.3-33.4l-3.5-2.6l3.6-4.1l0.3-33.3l10.8-12l31.2-6.6
				l10.7,7.5l-0.3,33.3l3.4,2.6l-3.5,4L536.5,522.4z M519.9,492.6l-3.5-2.6l3.6-4.1l0.2-25.9l-19.1,4l-0.2,25.9l3.5,2.6l-3.6,4.1
				l-0.2,25.9l19.1-4L519.9,492.6z"/>
			<path fill="#534741" d="M579.4,523l-17.9-44.7l-0.4,48.6l-16.7,3.5l0.4-43l-3.5-2.6l3.6-4.1l0.4-43l18-3.8l17.9,44.8l0.4-48.6
				l16.6-3.5l-0.4,43l3.5,2.6l-3.6,4.1l-0.4,42.9l0.1,0.1L579.4,523z"/>
		</g>
	</g>
	<g>
		<g>
			<path fill="#534741" d="M67.7,451.6c-0.1,6.3-2.3,12.2-6.7,17.6c-4.4,5.4-9.7,8.8-16,10.1l-16.8,3.6c-1.1,0.2-1.6,0.9-1.6,2
				l-0.3,29.9c0,1.6-0.8,2.6-2.4,3l-19.2,4.1c-1.6,0.3-2.4-0.3-2.4-1.9l0.9-97.1c0-1.6,0.8-2.6,2.4-3l40-8.5
				c6.2-1.3,11.5-0.2,15.8,3.4c4.4,3.6,6.5,8.5,6.4,14.9L67.7,451.6z M27,436.3l-0.2,25.6c0,1.1,0.5,1.5,1.6,1.3l10.7-2.3
				c3.1-0.7,4.7-2.6,4.7-5.7l0.2-19.4c0-3.2-1.5-4.4-4.6-3.8l-10.7,2.3C27.6,434.5,27,435.2,27,436.3z"/>
			<path fill="#534741" d="M97.8,478l-3.6,22.4c-0.3,1.7-1.2,2.7-2.8,3l-20,4.2c-1.3,0.3-2-0.1-2-1.3c0-0.2,0-0.5,0.1-0.8
				l19.1-100.9c0.3-1.7,1.3-2.7,2.9-3.1l32.1-6.8c1.6-0.3,2.5,0.3,2.8,1.8l17.4,93.2c0,0.3,0.1,0.5,0.1,0.7c0,1.1-0.7,1.8-2,2.1
				l-20,4.2c-1.6,0.3-2.5-0.3-2.8-1.9l-3.2-21L97.8,478z M107.3,420.2l-6.3,38.5l12-2.5L107.3,420.2z"/>
			<path fill="#534741" d="M211.1,427.2c3.7,3.5,5.5,8.1,5.5,14l-0.3,33.4c0,1.6-0.8,2.6-2.4,3l-19.5,4.1c-1.6,0.3-2.4-0.3-2.4-1.9
				l0.3-32.9c0-3.6-1.7-5.1-5.3-4.3l-9.6,2c-0.9,0.2-1.3,0.8-1.3,1.9l-0.3,36.7c0,1.6-0.8,2.6-2.4,3l-19.2,4.1
				c-1.6,0.3-2.4-0.3-2.4-1.9l0.9-97.1c0-1.6,0.8-2.6,2.4-3l39.3-8.3c6.2-1.3,11.5-0.2,15.8,3.4c4.3,3.6,6.5,8.5,6.4,14.9l-0.1,13.1
				C216.5,416.8,214.7,422.1,211.1,427.2L211.1,427.2z M176.4,405.7l-0.2,17.1c0,1.1,0.5,1.5,1.6,1.3l10-2.1
				c3.1-0.7,4.7-2.6,4.7-5.7l0.1-10.9c0-3.2-1.5-4.4-4.6-3.8l-10,2.1C176.9,403.9,176.4,404.6,176.4,405.7z"/>
			<path fill="#534741" d="M252.7,445.2l-3.6,22.4c-0.3,1.7-1.2,2.7-2.8,3l-20,4.2c-1.3,0.3-2-0.1-2-1.3c0-0.2,0-0.5,0.1-0.8
				l19.1-100.9c0.3-1.7,1.3-2.7,2.9-3.1l32.1-6.8c1.6-0.3,2.5,0.3,2.8,1.8l17.4,93.2c0,0.3,0.1,0.5,0.1,0.7c0,1.1-0.7,1.8-2,2.1
				l-20,4.2c-1.6,0.3-2.5-0.3-2.8-1.9l-3.2-21L252.7,445.2z M262.2,387.4l-6.3,38.5l12-2.5L262.2,387.4z"/>
			<path fill="#534741" d="M383.2,441.7c-1.6,0.3-2.6-0.3-2.9-1.8l-15.2-65l-0.6,68.4c0,1.6-0.8,2.6-2.3,2.9l-19.2,4.1
				c-1.6,0.3-2.4-0.3-2.4-1.9l0.9-97.1c0-1.6,0.8-2.6,2.4-3l29.9-6.3c1.6-0.3,2.6,0.3,2.9,1.8l15.3,65.5l16.5-72.2
				c0.4-1.7,1.4-2.7,2.9-3.1l29.9-6.3c1.6-0.3,2.4,0.3,2.4,1.9l-0.9,97.1c0,1.6-0.8,2.6-2.4,3l-19.2,4.1c-1.6,0.3-2.3-0.3-2.3-2
				l0.6-68.4L403,435.1c-0.4,1.7-1.4,2.7-2.9,3.1L383.2,441.7z"/>
			<path fill="#534741" d="M479.1,397.3l-3.6,22.4c-0.3,1.7-1.2,2.7-2.8,3l-20,4.2c-1.3,0.3-2-0.1-2-1.3c0-0.2,0-0.5,0.1-0.8
				L469.9,324c0.3-1.7,1.3-2.7,2.9-3.1l32.1-6.8c1.6-0.3,2.5,0.3,2.8,1.8l17.4,93.2c0,0.3,0.1,0.5,0.1,0.7c0,1.1-0.7,1.8-2,2.1
				l-20,4.2c-1.6,0.3-2.5-0.3-2.8-1.9l-3.2-21L479.1,397.3z M493.2,309.5c-0.7,0.8-1.4,1.7-2.3,2.5c-0.8,0.9-1.9,1.4-3.1,1.7l-8,1.7
				c-1.5,0.3-2.3,0.1-2.6-0.5c0-0.2-0.1-0.3-0.1-0.5c0-0.7,0.3-1.6,1-2.7l8.1-13.2l19.7-4L493.2,309.5z M488.6,339.4l-6.3,38.5
				l12-2.5L488.6,339.4z"/>
			<path fill="#534741" d="M595.4,345.9c1.6,2.2,2.3,5,2.3,8.3l-0.2,19.2c-0.1,6.3-2.3,12.2-6.7,17.6c-4.4,5.4-9.7,8.8-16,10.1
				l-38.3,8.1c-1.6,0.3-2.4-0.3-2.4-1.9l0.1-15.5c0-1.6,0.8-2.6,2.4-3l31.5-6.7c3.5-0.8,5.3-2.9,5.4-6.6l0.1-8.5
				c0-3.4-1.4-5.1-4.3-5.2l-22.8-0.8c-3.1,0.1-5.9-0.9-8.3-2.8c-0.1-0.1-0.2-0.2-0.3-0.3c-0.8-0.7-1.5-1.5-2-2.3
				c-1.6-2.2-2.3-5-2.3-8.3l0.1-16.5c0.1-6.3,2.3-12.2,6.7-17.6c4.4-5.4,9.7-8.8,16-10.1l36.3-7.7c1.6-0.3,2.4,0.3,2.4,1.9
				l-0.1,15.5c0,1.6-0.8,2.6-2.4,3l-29.5,6.3c-3.5,0.8-5.3,2.9-5.4,6.6l-0.1,5.8c0,3.4,1.4,5.1,4.3,5.2l22.8,0.8
				c3.1-0.1,5.9,0.9,8.3,2.8c0.1,0.1,0.2,0.2,0.3,0.3C594.1,344.3,594.8,345,595.4,345.9z"/>
		</g>
	</g>
	<polygon fill="#534741" points="234.2,132.4 245.4,115.2 262.6,110.1 243.8,130.2 	"/>
	<path fill="#534741" d="M521,432.7c-0.6,0.7-1.3,1.5-2,2.3c-0.8,0.8-1.7,1.3-2.7,1.5L509,438c-1.3,0.3-2.1,0.1-2.3-0.5
		c0-0.2-0.1-0.3-0.1-0.5c0-0.6,0.3-1.4,0.9-2.4l7.3-11.8l17.7-3.5L521,432.7z"/>
</g>
</svg>
