<?xml version="1.0" encoding="utf-8"?>
<!-- Generator: Adobe Illustrator 18.0.0, SVG Export Plug-In . SVG Version: 6.00 Build 0)  -->
<!DOCTYPE svg PUBLIC "-//W3C//DTD SVG 1.1//EN" "http://www.w3.org/Graphics/SVG/1.1/DTD/svg11.dtd">
<svg version="1.1" id="Capa_1" xmlns="http://www.w3.org/2000/svg" xmlns:xlink="http://www.w3.org/1999/xlink" x="0px" y="0px"
	 viewBox="118.4 1665 611.7 222.1" enable-background="new 118.4 1665 611.7 222.1" xml:space="preserve">
<g>
	<path fill="#938D84" d="M726,1739.5c-12.8-7.2-18-9.8-25.6-9.8c-7,0-10.4,3.6-10.4,9.1c0,16.7,40.1,12.1,40.1,50.9
		c0,21.2-11.7,34-31.6,34c-12.2,0-17.9-5.2-26.8-11.1v-23.8c12.8,10.4,18,14.4,27.6,14.4c7.4,0,10.4-3.9,10.4-10.5
		c0-18.3-39.9-11.4-39.9-51.6c0-19.3,8-32,28.6-32c9.9,0,16.1,2.6,27.4,8.8L726,1739.5L726,1739.5L726,1739.5z"/>
	<path fill="#938D84" d="M416.2,1710.1c18.3,0,26.3,15.4,26.3,32c0,12.1-5,21.2-15.2,27.1c-2.9,1.2-4.3,1.6-6.4,2.1l30.7,50.1H430
		l-29-45.4v45.4h-19.5v-111.3L416.2,1710.1L416.2,1710.1z M401.1,1755.8h9.1c6.3,0,12.3-3.3,12.3-12.7c0-8.5-4.4-12.7-12.8-12.7
		h-8.6V1755.8z"/>
	<path fill="#938D84" d="M544.8,1821.4h-21.1l-7.3-22.2h-34.6l-6.5,22.2h-20.8l33.1-111.3H508L544.8,1821.4z M498.1,1736.6
		l-10.4,43.4h22.1L498.1,1736.6z"/>
	<path fill="#938D84" d="M570.8,1821.4h-19.5v-111.3h19.5V1821.4z"/>
	<path fill="#938D84" d="M661.5,1821.4h-16.1l-41.1-71.5v71.5h-19.5v-111.3h17.7L642,1778v-67.9h19.5V1821.4z"/>
	<path fill="#938D84" d="M353.4,1760.1c7.6-4.6,12.3-12.7,12.3-22.2c0-4.9-1-10.3-3.4-15c-7.2,6.4-15.1,13.3-17.5,15.4
		c0.4,1.3,0.6,2.6,0.6,3.9c0,5.9-3.1,12.1-11.2,12.1h-6.4v-5.7v-18.1v-2.7l23.3-15.3c-3.4-1.4-7.4-2.3-12.2-2.3h-30.7v111.3h32.7
		c26.1,0,31.6-19.9,31.6-32.6C372.5,1775.7,366.2,1764.3,353.4,1760.1z M334.9,1800.9h-7.2v-26.1H338c7.8,0,13.6,4.2,13.6,12.4
		C351.7,1797,347.2,1800.9,334.9,1800.9z"/>
	<path fill="#938D84" d="M381.2,1697c-1.2-0.8-15.5,8.1-24.5,14.4l-3.3,2.3l-23,15.4v17.1c4.9-3.4,8.9-6.5,11.7-9.4l17.2-14.7
		c0,0,8.6-7.7,13.1-12.2l1.7-1.6c1.3-1.1,2.1-1.9,2.1-3c0-0.1,0-0.1,0-0.2C376.2,1704.6,381.7,1697.4,381.2,1697z"/>
	<path fill="#938D84" d="M291.1,1769.7l14-9.5v-17.1l-12.5,8.2c0,0-11.2,7.3-15.1,9.8c0.3-2.2,0.6-4.5,0.6-4.5
		c2-14.6,3.8-29.1,3.8-38.8c0-4.7-0.4-8.2-1.5-10.1c-0.7-1.3-1.9-2.1-3.2-2.4c-1.8-0.4-4,0.3-6,1.8c-6.4,4.5-9.6,17.5-9.6,39.7
		c0,7.2,0.3,15.3,1,24.4c-0.7,0.7-4.4,4-4.4,4c0.1,0-6.3,5.6-6.3,5.6s-0.2,0.2-0.3,0.4c-5.9,5.2-9.7,8.2-11.1,8.7
		c-1.8,0.7-3.3,0.9-4.7,0.7c8.1-5.9,14.6-18.6,14.6-26.2c0-0.9-0.1-1.7-0.3-2.4c-1.3-5.2-3.9-8.9-7.5-10.9c-3.6-1.9-7.9-2-12.8-0.2
		l-1.9,0.8c-8.9,4-35.9,19.2-44.2,23.9c1-11.8,5.9-65.8,7.2-94.3c0.9-18.4,0-7,0-10.6c0-13.4-16.8,0-26.1,9.3
		c-3.9,3.9-16.1,15-11.7,23.5c4.8,9.1,9.8,6.1,12.4,21.8c4.6,27.6,1.1,55.9,1.1,57.8c-1.5,0.7-13.1,6.2-13.1,6.2
		c-19.9,9.2-35.1,16.2-35.1,27.8c0,1.8,0.4,3.7,1.1,5.7c16.5,43.3,39.1,66.6,48,64.2c12.9-3.4,13.4-20.4,14.2-46
		c0.4-12.8,0.9-27.3,2.8-43.6c1-0.6,22.7-16.8,26.7-19.4c-1.9,3.9-1.9,7.7-1.9,9.8c0,5.1,0.7,9.3,1.8,11.5c1.8,3.7,3.3,6.4,7.3,8.2
		c5,2.4,9.4,3.1,18.1-0.3c3.9-1.5,10.5-6.1,17.9-12.3c1.5,2.5,7.9,13.5,7.9,13.5l5.9,10c2.6,4.7,6.8,6,11.5,3.7
		c3.5-1.8,5.9-3.3,6.6-5.6c0.1-0.5,0.2-0.9,0.2-1.4c0-1.5-0.7-3-1.3-4.2c-6.7-12-7.2-22.4-7.2-30.3c0-0.5,0-1,0-1.5
		C278.8,1778.1,291.1,1769.7,291.1,1769.7z M159.4,1851.6c-5.3-4.3-7.8-7.9-11.7-17.3c-6.5-15.8,2.5-20.7,19-30.1
		C164.7,1821.2,163.4,1855.6,159.4,1851.6z M224.9,1783.9c-0.2-5.9-1.5-13.6,6.2-17.6c3-1.6,4.7-0.6,5.7,0.4
		C238.8,1768.7,234.3,1778.1,224.9,1783.9z"/>
</g>
</svg>
