<?xml version="1.0" encoding="utf-8"?>
<!-- Generator: Adobe Illustrator 17.1.0, SVG Export Plug-In . SVG Version: 6.00 Build 0)  -->
<!DOCTYPE svg PUBLIC "-//W3C//DTD SVG 1.1//EN" "http://www.w3.org/Graphics/SVG/1.1/DTD/svg11.dtd">
<svg version="1.1" id="Capa_1" xmlns="http://www.w3.org/2000/svg" xmlns:xlink="http://www.w3.org/1999/xlink" x="0px" y="0px"
	 viewBox="118.2 1095.1 5382.1 1952.6" enable-background="new 118.2 1095.1 5382.1 1952.6" xml:space="preserve">
<g>
	<path fill="#938D84" d="M5463.6,1749.2c-112.7-63.2-158.1-86-224.7-86c-61.6,0-91.4,31.6-91.4,80.3c0,146.5,352.9,106.3,352.9,448
		c0,186.6-102.9,298.6-277.5,298.6c-107.1,0-157.5-46-235.7-97.7v-209.6c112.6,91.9,158.1,126.3,243.1,126.3
		c65.4,0,91.3-34.4,91.3-91.9c0-160.8-350.6-100.5-350.6-453.7c0-169.3,70.2-281.4,251.9-281.4c87.3,0,141.9,22.9,240.8,77.5v189.5
		L5463.6,1749.2L5463.6,1749.2z"/>
	<path fill="#938D84" d="M2738.5,1490.9c160.9,0,231.7,135.1,231.7,281.5c0,106.2-43.7,186.7-133.3,238.2
		c-25.1,10.7-37.9,13.9-56.5,18.5l270.2,441h-190.2L2605.7,2071v399.1h-171.8v-979.2L2738.5,1490.9L2738.5,1490.9z M2605.7,1893h80
		c55.1,0,108-28.7,108-112c0-74.7-39.1-111.8-112.7-111.8h-75.3V1893z"/>
	<path fill="#938D84" d="M3869.5,2470.2h-185.7l-64.3-195.2H3315l-57.5,195.2h-183.2l291.3-979.2H3546L3869.5,2470.2z
		 M3459.2,1723.6l-91.4,381.9h194.3L3459.2,1723.6z"/>
	<path fill="#938D84" d="M4098.7,2470.2h-171.8V1491h171.8C4098.7,1491,4098.7,2470.2,4098.7,2470.2z"/>
	<path fill="#938D84" d="M4896.4,2470.2h-142l-361.5-628.8v628.8h-171.8V1491h155.8l347.6,597.4V1491h171.8
		C4896.4,1491,4896.4,2470.2,4896.4,2470.2z"/>
	<path fill="#938D84" d="M2186.8,1930.3c66.7-40.3,108-112,108-195.3c0-43.4-8.5-90.7-30-132.1c-63,55.9-132.7,116.6-153.6,135
		c3.2,11.3,4.9,23.1,4.9,34.5c0,51.7-27.5,106.2-98.9,106.2h-56.3v-50.4v-159.1v-23.7l205.2-134.4c-29.5-12.4-64.8-20-107.4-20
		h-269.6v979.1h287.4c229.9,0,278.2-175.1,278.2-287.1C2354.6,2068.1,2299.4,1967.6,2186.8,1930.3z M2024.1,2289.2h-63.2v-229.7
		h90.7c69,0,119.6,37.3,119.6,109.1C2171.3,2254.9,2132.2,2289.2,2024.1,2289.2z"/>
	<path fill="#938D84" d="M2431.1,1375.9c-10.7-6.7-136.4,71.5-215.4,126.5l-29,20.1l-202.1,135.7v150.4
		c43.3-29.6,78.2-57.3,103.3-82.3l151.2-129.5c0,0,75.6-68,115.3-107.7l14.7-13.8c11.1-10,18.7-16.8,18.7-26.1c0-0.6-0.1-1-0.1-1.6
		C2387.1,1442.4,2435.9,1378.9,2431.1,1375.9z"/>
	<path fill="#938D84" d="M1638.3,2015l123-83.6v-150.6l-110.3,72c0,0-98.3,63.8-132.7,86c2.6-19.3,5.2-39.8,5.2-39.8
		c17.3-128,33.3-255.8,33.3-340.8c0-41.2-3.7-72.3-12.9-88.5c-6.5-11.5-16.3-18.9-28.5-21.4c-16.1-3.3-34.9,2.3-52.9,16
		c-56.4,39.2-84.4,154-84.4,349.1c0,63.1,3,134.8,8.9,214.7c-6.5,5.9-39,35.1-39,35.1c0.5-0.4-55.7,49.1-55.7,49.1
		c-0.1,0.1-1.5,1.9-2.5,3.1c-52.1,46-84.9,71.9-97.4,76.7c-15.6,6.3-29.2,7.6-41.5,6.4c70.8-52.2,128.5-163.9,128.5-230.4
		c0-7.6-0.7-14.6-2.4-20.9c-11.6-45.5-34.5-78.5-66.3-95.5c-31.3-16.8-69.1-17.3-112.4-1.9l-16.9,6.9
		c-78.1,35.3-315.4,168.7-389.1,210.2c8.7-104.1,51.5-578.8,63.4-829.2c7.8-161.8,0-61.5,0-92.8c0-117.7-147.8,0.1-229.6,81.8
		c-34.4,34.4-141.6,132.3-102.8,206.9c41.8,80.2,85.9,53.3,109,191.5c40.6,242.9,9.6,492,9.7,508c-13.3,6.3-115.1,54.2-115.1,54.2
		c-175.4,81.2-308.6,142.8-308.6,244.1c0,15.8,3.2,32.5,10,50.4c145.5,380.5,343.9,585.3,422,564.6
		c113.4-30.2,118-179.2,124.9-404.5c3.5-112.4,7.6-239.7,24.9-383.1c9.1-5.7,199.7-147.6,235.2-170.3c-17,34.5-16.9,68-16.9,86
		c0,44.9,6.4,81.8,15.5,100.8c15.4,32.2,28.9,56,63.9,71.9c44.4,21.2,83.1,27.1,158.9-2.7c34-13.5,92.3-53.8,157.3-108.3
		c12.9,22.1,69.1,118.8,69.1,118.8l51.5,87.7c23.3,41.4,60.1,53,101.2,32.1c31.2-15.6,51.9-29.3,58-49.4c1.3-4.2,1.8-8.3,1.8-12.4
		c0-13.5-6-26.4-11.8-36.6c-59.1-105.2-63-197-63-266.7c0-4.5,0-8.9,0-13.3C1530.9,2089.3,1638.3,2015,1638.3,2015z M480.5,2735.8
		c-46.6-37.7-68.6-69.6-102.7-152c-57.6-139.3,22.2-182.4,166.8-264.4C527.3,2467.8,515.3,2770.7,480.5,2735.8z M1056.3,2140.4
		c-2-52.1-12.9-119.5,54.3-155.1c26.2-14.4,41.5-5.3,50.4,3.7C1178.7,2006.7,1139,2088.8,1056.3,2140.4z"/>
</g>
</svg>
