<?xml version="1.0" encoding="utf-8"?>
<!-- Generator: Adobe Illustrator 17.1.0, SVG Export Plug-In . SVG Version: 6.00 Build 0)  -->
<!DOCTYPE svg PUBLIC "-//W3C//DTD SVG 1.1//EN" "http://www.w3.org/Graphics/SVG/1.1/DTD/svg11.dtd">
<svg version="1.1" id="Layer_1" xmlns="http://www.w3.org/2000/svg" xmlns:xlink="http://www.w3.org/1999/xlink" x="0px" y="0px"
	 viewBox="0 0 174.6 27.3" enable-background="new 0 0 174.6 27.3" xml:space="preserve">
<g>
	<g>
		<path fill="#392E2B" d="M36.9,24.5l-3.3,2.9h-8.2l-3.2-2.9v-4.4h5v2.2h4.6v-7.6l-1.1-1l1.1-1V0h5v12.7l1.1,1l-1.1,1V24.5z"/>
		<path fill="#392E2B" d="M55,24.5l-3.3,2.9h-9.2l-3.2-2.9v-9.8l-1.1-1l1.1-1V0h5v12.7l1.1,1l-1.1,1v7.6H50v-7.6l-1.1-1l1.1-1V0h5
			v12.7l1,1l-1,1V24.5z"/>
		<path fill="#392E2B" d="M70.6,27.3H57.5V14.6l-1.1-1l1.1-1V0h13.1v5h-8v6.1h6.9v5.1h-6.9v6.1h8.1V27.3z"/>
		<path fill="#392E2B" d="M81.8,15.8c0.8-3.4,1.3-6,1.8-8c0.4-2,1-4.6,1.7-7.7h5.2l-6.1,27.3h-5.2L73.1,0h5.2
			C79,3.2,79.5,5.8,80,7.7C80.4,9.7,81,12.4,81.8,15.8z"/>
		<path fill="#392E2B" d="M106,27.3H92.9V14.6l-1.1-1l1.1-1V0h13.1v5h-8v6.1h6.9v5.1h-6.9v6.1h8.1V27.3z"/>
		<path fill="#392E2B" d="M123.7,24.5l-3.2,2.9h-8.7l-3.3-2.9v-4.4h5v2.2h5.1v-6.1h-6.9l-3.3-2.9V2.9l3.3-2.9h8.7l3.2,2.9v4.2h-5V5
			h-5.1v6.1h6.9l3.2,2.9V24.5z"/>
		<path fill="#392E2B" d="M149.9,24.4l-3.3,2.9H138l-3.2-2.9v-4.4h5v2.2h5v-8H138l-3.2-2.9V0h14.9v5h-9.8v4.2h6.8l3.2,2.8V24.4z"/>
	</g>
	<polygon fill="#716259" points="7.5,4.5 9.9,9.2 15.1,9.9 11.3,13.6 12.2,18.8 7.5,16.4 2.9,18.8 3.8,13.6 0,9.9 5.2,9.2 	"/>
	<polygon fill="#716259" points="167,4.5 169.4,9.2 174.6,9.9 170.8,13.6 171.7,18.8 167,16.4 162.4,18.8 163.3,13.6 159.5,9.9 
		164.7,9.2 	"/>
</g>
</svg>
