<?xml version="1.0" encoding="utf-8"?>
<!-- Generator: Adobe Illustrator 18.0.0, SVG Export Plug-In . SVG Version: 6.00 Build 0)  -->
<!DOCTYPE svg PUBLIC "-//W3C//DTD SVG 1.1//EN" "http://www.w3.org/Graphics/SVG/1.1/DTD/svg11.dtd">
<svg version="1.1" id="fonts" xmlns="http://www.w3.org/2000/svg" xmlns:xlink="http://www.w3.org/1999/xlink" x="0px" y="0px"
	 viewBox="0 0 80 87.9" enable-background="new 0 0 80 87.9" xml:space="preserve">
<g>
	<g>
		<path fill="#382F2B" d="M8.3,49.6l-1.6,1.7l-4.5,1l-1.5-1.1v-4.8l-0.5-0.4l0.5-0.6v-4.8l1.5-1.7l4.5-1L8.3,39v4.8l0.5,0.4
			l-0.5,0.6V49.6z M5.8,45.3l-0.5-0.4l0.5-0.6v-3.7l-2.8,0.6v3.7l0.5,0.4l-0.5,0.6v3.7L5.8,49V45.3z"/>
		<path fill="#382F2B" d="M16.9,47.6l-1.6,1.8l-4.4,1l-1.5-1.1v-4.8l-0.5-0.4l0.5-0.6v-6.2l2.4-0.5V43l0.5,0.4L11.8,44v3.7l2.7-0.6
			v-3.7L14,43l0.5-0.6v-6.2l2.4-0.5v6.2l0.5,0.4l-0.5,0.6V47.6z"/>
		<path fill="#382F2B" d="M18.1,42.6l-0.5-0.4l0.5-0.6V42.6z M25.9,47.1l-2.6,0.6l-2.1-5l-0.7,0.2v5.4l-2.4,0.5V35.4l5.8-1.3
			l1.5,1.1v4.9L23.8,42L25.9,47.1z M20.5,40.3l2.5-0.6v-3l-2.5,0.6V40.3z"/>
		<path fill="#382F2B" d="M38.6,42.8L37,44.6l-4.3,0.9l-1.5-1.1v-4.8l-0.5-0.4l0.5-0.6v-4.8l1.5-1.7l4.3-0.9l1.6,1.1v2.1l-2.4,0.5
			v-1l-2.6,0.6v3.7l0.5,0.4l-0.5,0.6v3.7l2.6-0.6v-1.1l2.4-0.5V42.8z"/>
		<path fill="#382F2B" d="M39.8,37.8l-0.5-0.4l0.5-0.6V37.8z M47.5,42.3l-2.6,0.6l-2.1-5L42.2,38v5.4L39.8,44V30.6l5.8-1.3l1.5,1.1
			v4.9l-1.6,1.9L47.5,42.3z M42.2,35.5l2.5-0.6v-3l-2.5,0.6V35.5z"/>
		<path fill="#382F2B" d="M56.3,38.9l-1.6,1.7l-4.5,1l-1.5-1.1v-4.8l-0.5-0.4l0.5-0.6V30l1.5-1.7l4.5-1l1.6,1.1v4.8l0.5,0.4
			l-0.5,0.6V38.9z M53.9,34.7l-0.5-0.4l0.5-0.6V30l-2.8,0.6v3.7l0.5,0.4l-0.5,0.6V39l2.8-0.6V34.7z"/>
		<path fill="#382F2B" d="M69,24.2L66.8,38l-2.5,0.5L63.2,33l-1.1,6l-2.5,0.5l-2.2-12.9l2.5-0.5l1,6.6l1.3-7.1l2-0.4l1.3,6.6l1-7.1
			L69,24.2z"/>
		<path fill="#382F2B" d="M76.1,22.6l1.6,1.1v4.8l0.5,0.4l-0.5,0.6v4.8L76.1,36l-5.9,1.3v-6.2l-0.5-0.4l0.5-0.6v-6.2L76.1,22.6z
			 M75.2,29.9l-0.5-0.4l0.5-0.6v-3.7l-2.7,0.6v3.7l0.5,0.4l-0.5,0.6v3.7l2.7-0.6V29.9z"/>
	</g>
	<g>
		<path fill="#382F2B" d="M0.3,17.5l1.2-0.3v17.9l3.1-0.7v1.2l-4.3,0.9V17.5z"/>
		<path fill="#382F2B" d="M5.4,16.4l1.3-0.3v19l-1.3,0.3V16.4z"/>
		<path fill="#382F2B" d="M9.1,34.6L7.2,15.9l1.2-0.3l1.3,12.7L11.5,15l1.2-0.3l-2.6,19.6L9.1,34.6z"/>
		<path fill="#382F2B" d="M14.3,26l-1.1,0.3V25l1.1-0.2V14.4l4.4-1v1.2l-3.1,0.7v9.2l3.2-0.7V25l-3.2,0.7V32l3.2-0.7v1.2l-4.4,1V26z
			"/>
		<path fill="#382F2B" d="M26.9,30.6l-2.6,0.6v-7.5L23,24v-1.2l1.2-0.3V12.2l2.6-0.6c0.5-0.1,1,0,1.4,0.2c0.4,0.3,0.6,0.7,0.6,1.4
			v7.6c0,0.3-0.1,0.5-0.2,0.8c-0.1,0.2-0.2,0.5-0.4,0.7c0.2,0.1,0.3,0.3,0.5,0.5c0.1,0.2,0.2,0.5,0.2,1V28c0,0.6-0.2,1.1-0.6,1.6
			C27.9,30.2,27.4,30.5,26.9,30.6L26.9,30.6z M27.4,13c-0.1-0.1-0.3-0.2-0.4-0.2c0,0-0.1,0-0.1,0c0,0-0.1,0-0.1,0
			c-0.3,0.1-0.5,0.1-0.8,0.2c-0.1,0-0.2,0-0.3,0.1c-0.1,0-0.2,0-0.3,0.1c0,0.3,0,0.6,0,1c0,0.4,0,0.9,0,1.4c0,0.5,0,1,0,1.6
			c0,0.6,0,1.1,0,1.7c0,0.6,0,1.3,0,1.9c0,0.6,0,1.2,0,1.7l1.4-0.3c0,0,0,0,0,0c0,0,0,0,0,0c0.1,0,0.3-0.2,0.4-0.3
			c0.1-0.2,0.2-0.3,0.2-0.5c0,0,0,0,0-0.1c0,0,0,0,0-0.1v-7.5C27.6,13.3,27.5,13.2,27.4,13z M27.6,23.5c-0.1-0.1-0.2-0.2-0.3-0.2
			c-0.1,0-0.1-0.1-0.2-0.1c-0.1,0-0.1,0-0.2,0l-1.4,0.3v6.3c0.1,0,0.1,0,0.2,0c0.1,0,0.1,0,0.2,0c0.2-0.1,0.6-0.1,1-0.2
			c0.2,0,0.4-0.2,0.5-0.4c0.2-0.2,0.3-0.4,0.3-0.6c0,0,0-0.1,0-0.1c0,0,0-0.1,0-0.1V24C27.7,23.8,27.7,23.6,27.6,23.5z"/>
		<path fill="#382F2B" d="M29.3,11.1l1.2-0.3v17.9l3.1-0.7v1.2l-4.3,0.9V11.1z"/>
		<path fill="#382F2B" d="M36.7,28.5c-0.6,0.1-1.2,0.1-1.7-0.1c-0.5-0.2-0.7-0.7-0.7-1.5V12c0-0.6,0.2-1.2,0.7-1.7
			c0.5-0.5,1-0.8,1.7-1c0.6-0.1,1.2-0.1,1.6,0.2C38.8,9.9,39,10.4,39,11v14.8c0,0.8-0.2,1.5-0.7,1.8c-0.4,0.4-1,0.6-1.5,0.8
			C36.8,28.4,36.8,28.4,36.7,28.5C36.8,28.4,36.7,28.4,36.7,28.5C36.7,28.4,36.7,28.4,36.7,28.5L36.7,28.5z M37.5,10.7
			c-0.2-0.1-0.4-0.2-0.6-0.2c0,0-0.1,0-0.1,0c0,0-0.1,0-0.1,0c0,0-0.1,0-0.1,0c0,0-0.1,0-0.1,0c-0.2,0.1-0.5,0.2-0.7,0.4
			c-0.2,0.2-0.3,0.4-0.3,0.6v14.8c0,0.3,0.1,0.5,0.3,0.7c0.2,0.1,0.5,0.2,0.8,0.1c0.3-0.1,0.6-0.2,0.8-0.5c0.2-0.2,0.3-0.5,0.3-0.8
			V11.2C37.8,11,37.7,10.8,37.5,10.7z"/>
		<path fill="#382F2B" d="M41.9,27.4c-0.6,0.1-1.1,0-1.6-0.3c-0.4-0.3-0.7-0.8-0.7-1.4V10.9c0-0.7,0.2-1.3,0.7-1.7
			c0.5-0.4,1-0.7,1.6-0.9c0,0,0,0,0,0c0,0,0,0,0,0c0.6-0.1,1.2-0.1,1.6,0.2c0.4,0.3,0.7,0.7,0.7,1.4v2.3l-1.2,0.3v-2.3
			c0,0,0,0,0-0.1s0,0,0-0.1c0-0.2-0.2-0.3-0.4-0.5c-0.2-0.1-0.5-0.1-0.7-0.1c-0.3,0.1-0.6,0.2-0.8,0.4c-0.2,0.2-0.3,0.5-0.3,0.7
			v14.8c0,0.3,0.1,0.5,0.3,0.7c0.2,0.1,0.5,0.2,0.7,0.1c0.3-0.1,0.6-0.2,0.9-0.5c0.2-0.2,0.3-0.5,0.3-0.8v-5.3l-1.2,0.3v-1.2
			c0.7-0.2,1.5-0.3,2.4-0.5v6.5c0,0.6-0.2,1.2-0.7,1.7C43.1,26.9,42.5,27.2,41.9,27.4L41.9,27.4z"/>
		<path fill="#382F2B" d="M47.3,26.2c-0.6,0.1-1.1,0-1.6-0.3c-0.4-0.3-0.7-0.8-0.7-1.4V9.7c0-0.7,0.2-1.3,0.7-1.7
			c0.5-0.4,1-0.7,1.6-0.9c0,0,0,0,0,0c0,0,0,0,0,0c0.6-0.1,1.2-0.1,1.6,0.2c0.4,0.3,0.7,0.7,0.7,1.4v2.3l-1.2,0.3V8.9c0,0,0,0,0-0.1
			c0,0,0,0,0-0.1c0-0.2-0.2-0.3-0.4-0.5c-0.2-0.1-0.5-0.1-0.7-0.1c-0.3,0.1-0.6,0.2-0.8,0.4c-0.2,0.2-0.3,0.5-0.3,0.7v14.8
			c0,0.3,0.1,0.5,0.3,0.7c0.2,0.1,0.5,0.2,0.7,0.1c0.3-0.1,0.6-0.2,0.9-0.5c0.2-0.2,0.3-0.5,0.3-0.8v-5.3l-1.2,0.3v-1.2
			c0.7-0.2,1.5-0.3,2.4-0.5v6.5c0,0.6-0.2,1.2-0.7,1.7C48.5,25.7,48,26,47.3,26.2L47.3,26.2z"/>
		<path fill="#382F2B" d="M50.6,6.4l1.3-0.3v19l-1.3,0.3V6.4z"/>
		<path fill="#382F2B" d="M53.9,12.9v11.8L52.6,25v-19l1.2-0.3l2.3,11.7V5.2l1.3-0.3v19l-1.2,0.3L53.9,12.9z"/>
		<path fill="#382F2B" d="M60.2,23.3c-0.6,0.1-1.1,0-1.6-0.3c-0.4-0.3-0.7-0.8-0.7-1.4V6.8c0-0.7,0.2-1.3,0.7-1.7
			c0.5-0.4,1-0.7,1.6-0.9c0,0,0,0,0,0c0,0,0,0,0,0c0.6-0.1,1.2-0.1,1.6,0.2c0.4,0.3,0.7,0.7,0.7,1.4v2.3l-1.2,0.3V6.1c0,0,0,0,0-0.1
			c0,0,0,0,0-0.1c0-0.2-0.2-0.3-0.4-0.5s-0.5-0.1-0.7-0.1c-0.3,0.1-0.6,0.2-0.8,0.4c-0.2,0.2-0.3,0.5-0.3,0.7v14.8
			c0,0.3,0.1,0.5,0.3,0.7c0.2,0.1,0.5,0.2,0.7,0.1c0.3-0.1,0.6-0.2,0.9-0.5c0.2-0.2,0.3-0.5,0.3-0.8v-5.3l-1.2,0.3v-1.2
			c0.7-0.2,1.5-0.3,2.4-0.5v6.5c0,0.6-0.2,1.2-0.7,1.7C61.4,22.8,60.8,23.2,60.2,23.3L60.2,23.3z"/>
		<path fill="#382F2B" d="M69.4,21.2c-0.6,0.1-1.2,0.1-1.7-0.1c-0.5-0.2-0.7-0.7-0.7-1.5V4.8c0-0.6,0.2-1.2,0.7-1.7
			c0.5-0.5,1-0.8,1.7-1c0.6-0.1,1.2-0.1,1.6,0.2c0.5,0.3,0.7,0.7,0.7,1.3v14.8c0,0.8-0.2,1.5-0.7,1.8c-0.4,0.4-1,0.6-1.5,0.8
			C69.6,21.2,69.6,21.2,69.4,21.2C69.5,21.2,69.5,21.2,69.4,21.2C69.5,21.2,69.5,21.2,69.4,21.2L69.4,21.2z M70.3,3.5
			c-0.2-0.1-0.4-0.2-0.6-0.2c0,0-0.1,0-0.1,0c0,0-0.1,0-0.1,0c0,0-0.1,0-0.1,0c0,0-0.1,0-0.1,0c-0.2,0.1-0.5,0.2-0.7,0.4
			c-0.2,0.2-0.3,0.4-0.3,0.6v14.8c0,0.3,0.1,0.5,0.3,0.7c0.2,0.1,0.5,0.2,0.8,0.1c0.3-0.1,0.6-0.2,0.8-0.5c0.2-0.2,0.3-0.5,0.3-0.8
			V4C70.5,3.8,70.4,3.6,70.3,3.5z"/>
		<path fill="#382F2B" d="M73.8,8.5v11.8l-1.3,0.3v-19l1.2-0.3L76,13V0.8l1.3-0.3v19L76,19.8L73.8,8.5z"/>
	</g>
	<g>
		<path fill="#382F2B" d="M11.6,53.1c1.6-0.4,3.1-0.1,4.2,0.9c1.2,0.9,1.7,2.2,1.7,3.9V60c0,1.7-0.6,3.3-1.7,4.7
			c-0.1,0.1-0.2,0.3-0.4,0.4v0c0.3,0.2,0.7,0.3,1,0.6c1.2,0.9,1.7,2.2,1.7,4v3c0,1.7-0.6,3.3-1.7,4.7c-1.2,1.5-2.6,2.4-4.2,2.7
			L1,82.6c-0.4,0.1-0.6-0.1-0.6-0.5V56.3c0-0.4,0.2-0.7,0.6-0.8L11.6,53.1z M6.7,60.1v4.6c0,0.3,0.1,0.4,0.4,0.3l2.8-0.6
			c0.8-0.2,1.2-0.7,1.2-1.5v-2.9c0-0.8-0.4-1.2-1.2-1l-2.8,0.6C6.8,59.6,6.7,59.8,6.7,60.1z M6.7,70.9v4.6c0,0.3,0.1,0.4,0.4,0.3
			l3-0.7c1.1-0.2,1.7-0.9,1.7-1.8v-2.5c0-1-0.5-1.3-1.4-1.1l-3.3,0.7C6.8,70.5,6.7,70.6,6.7,70.9z"/>
		<path fill="#382F2B" d="M22.6,76c-1.2-0.9-1.7-2.2-1.7-3.9V51.7c0-0.4,0.2-0.7,0.5-0.8l5.2-1.1c0.4-0.1,0.6,0.1,0.6,0.5v20.4
			c0,0.4,0.2,0.6,0.6,0.5l11.3-2.5c0.4-0.1,0.6,0.1,0.6,0.5v4.1c0,0.4-0.2,0.7-0.6,0.8l-12.3,2.7C25.1,77.3,23.7,77,22.6,76z"/>
		<path fill="#382F2B" d="M59.2,63.6c0,1.7-0.6,3.3-1.7,4.7c-1.2,1.5-2.6,2.4-4.2,2.7l-5.5,1.2c-1.6,0.4-3.1,0.1-4.2-0.9
			c-1.2-0.9-1.7-2.2-1.7-3.9V52.6c0-1.7,0.6-3.3,1.7-4.7c1.2-1.5,2.6-2.4,4.2-2.7l5.5-1.2c1.6-0.4,3.1-0.1,4.2,0.9
			c1.2,0.9,1.7,2.2,1.7,3.9V63.6z M48.1,65.1c0,1.1,0.5,1.5,1.6,1.3l1.5-0.3c1.1-0.2,1.6-0.9,1.6-2v-13c0-1.1-0.5-1.5-1.6-1.3
			l-1.5,0.3c-1.1,0.2-1.6,0.9-1.6,2V65.1z"/>
		<path fill="#382F2B" d="M67.8,67.8c-1.6,0.4-3.1,0.1-4.2-0.9c-1.2-0.9-1.7-2.2-1.7-3.9V48.1c0-1.7,0.6-3.3,1.7-4.7
			c1.2-1.5,2.6-2.4,4.2-2.7l9.9-2.2c0.4-0.1,0.6,0.1,0.6,0.5v4.1c0,0.4-0.2,0.7-0.6,0.8l-9.1,2c-0.3,0.1-0.4,0.2-0.4,0.5v15.4
			c0,0.3,0.1,0.4,0.4,0.3l3.7-0.8c0.4-0.1,0.5-0.3,0.5-0.6v-8.7c0-0.4,0.2-0.7,0.6-0.8l5.1-1.1c0.4-0.1,0.6,0.1,0.6,0.5v13.9
			c0,0.4-0.2,0.7-0.6,0.8L67.8,67.8z"/>
	</g>
	<polygon fill="#382F2B" points="80,68.5 0,86 0,87.9 80,70.3 	"/>
</g>
</svg>
