<?xml version="1.0" encoding="utf-8"?>
<!-- Generator: Adobe Illustrator 17.1.0, SVG Export Plug-In . SVG Version: 6.00 Build 0)  -->
<!DOCTYPE svg PUBLIC "-//W3C//DTD SVG 1.1//EN" "http://www.w3.org/Graphics/SVG/1.1/DTD/svg11.dtd">
<svg version="1.1" id="Layer_2" xmlns="http://www.w3.org/2000/svg" xmlns:xlink="http://www.w3.org/1999/xlink" x="0px" y="0px"
	 viewBox="0 0 99.8 34.7" enable-background="new 0 0 99.8 34.7" xml:space="preserve">
<g>
	<g>
		<polygon fill="#504540" points="30.1,13.6 34.5,13.6 32.3,7.2 		"/>
		<polygon fill="#504540" points="86.4,13.6 90.9,13.6 88.7,7.2 		"/>
		<path fill="#504540" d="M92.4,0.5h-7.5l-4,10.7L80.1,0.5h-8l-2.6,5.9l-2.6-5.9h-8l-0.2,2.6l0,0.2l-0.1-0.1C58.3,2.8,55.5,0,50.1,0
			c-5.3,0-9.6,3.3-11.2,8l-2.8-7.5h-7.5l-4,10.7L23.8,0.5h-8l-2.6,5.9l-2.6-5.9h-8L1.4,15.1H0v8.7h5.6c2.2,0,3.7-1.1,4.3-2.8h6.5
			c0.6,1.8,2.1,2.8,4.3,2.8h5.6c2.2,0,3.6-0.9,4.5-3.1c0.1-0.1,0.6-1.6,0.6-1.6h1.8l0.4,1.2c0.8,2.3,2.4,3.4,4.8,3.4H62
			c2.2,0,3.7-1.1,4.3-2.8h6.5c0.6,1.8,2.2,2.8,4.3,2.8h5.9c2.3,0,3.8-1.1,4.5-3.5l0.3-1.2h1.8l0.4,1.2c0.8,2.3,2.4,3.4,4.8,3.4h5
			v-8.7h-2L92.4,0.5z M23.5,20.8h-2.8c-1.2,0-1.6-0.5-1.7-1.7L18.4,8.6l-3.9,9.2h-2.6L7.9,8.5L7.3,19.1c-0.1,1.2-0.5,1.7-1.7,1.7
			H2.8V18h0.8c0.3,0,0.5-0.2,0.5-0.5L5.3,3.2h3.4l4.5,10.7h0.1l4.5-10.7h3.4l1.1,14.3c0,0.3,0.2,0.5,0.5,0.5h0.8V20.8z M40.4,20.8
			h-1.9c-1.2,0-1.7-0.3-2.1-1.4l-1.1-3.1h-5.9l-1.1,3.1c-0.4,1.1-0.8,1.4-2.1,1.4h-2V18h0.4c0.4,0,0.6-0.1,0.8-0.5l5.2-14.3H34
			l5.2,14.3C39.4,18,39.6,18,40,18h0.4V20.8z M57.6,20.8h-2.8V20c0-0.4,0-0.7,0-0.7h-0.1c0,0-1.9,1.9-5.2,1.9
			c-4.6,0-8.5-3.5-8.5-9.2c0-5.1,3.8-9,8.9-9c4.3,0,6.4,2.2,6.4,2.2l-1.8,2.3c0,0-1.8-1.6-4.5-1.6c-3,0-5.6,2.4-5.6,6
			c0,3.8,2.6,6.2,5.8,6.2c2.8,0,4.5-1.8,4.5-1.8v-1.3c0-0.4-0.2-0.5-0.5-0.5h-1.1v-2.8H56c1.2,0,1.7,0.5,1.7,1.7V20.8z M79.8,20.8
			H77c-1.2,0-1.6-0.5-1.7-1.7L74.8,8.6l-3.9,9.2h-2.6l-3.9-9.2l-0.6,10.6c-0.1,1.2-0.5,1.7-1.7,1.7h-2.8V18h0.8
			c0.3,0,0.5-0.2,0.5-0.5l1.1-14.3H65l4.5,10.7h0L74,3.2h3.4l1.1,14.3c0,0.3,0.2,0.5,0.5,0.5h0.8V20.8z M96.7,20.8h-1.9
			c-1.2,0-1.7-0.3-2.1-1.4l-1.1-3.1h-5.9l-1.1,3.1c-0.4,1.1-0.8,1.4-2.1,1.4h-2V18H81c0.4,0,0.6-0.1,0.8-0.5L87,3.2h3.4l5.2,14.3
			c0.1,0.4,0.3,0.5,0.8,0.5h0.4V20.8z"/>
		<polygon fill="#504540" points="50.8,30 49.9,28.1 49,30 46.9,30.3 48.4,31.8 48.1,33.8 49.9,32.9 51.8,33.8 51.4,31.8 52.9,30.3 
					"/>
		<path fill="#504540" d="M11.5,29c0-0.2,0.1-0.4,0.2-0.5c0.1-0.1,0.2-0.2,0.3-0.3c0.1-0.1,0.3-0.1,0.5-0.1c0.2,0,0.4,0,0.5,0.1
			c0.1,0.1,0.2,0.2,0.3,0.3c0.1,0.1,0.1,0.3,0.2,0.5c0,0.2,0.1,0.4,0.1,0.7h1c0-0.4,0-0.7-0.1-1c-0.1-0.3-0.2-0.5-0.4-0.8
			c-0.2-0.2-0.4-0.4-0.6-0.5c-0.3-0.1-0.6-0.2-0.9-0.2c-0.4,0-0.7,0.1-1,0.2c-0.3,0.1-0.5,0.3-0.6,0.5c-0.2,0.2-0.3,0.5-0.3,0.8
			c-0.1,0.3-0.1,0.7-0.1,1.1V32c0,0.4,0,0.7,0.1,1.1c0.1,0.3,0.2,0.6,0.3,0.8c0.2,0.2,0.4,0.4,0.6,0.6c0.3,0.1,0.6,0.2,1,0.2
			c0.4,0,0.7-0.1,1-0.2c0.3-0.1,0.5-0.3,0.6-0.5c0.2-0.2,0.3-0.5,0.3-0.8c0.1-0.3,0.1-0.6,0.1-0.9V32h-1v0.3c0,0.2,0,0.4-0.1,0.6
			c0,0.2-0.1,0.4-0.2,0.5c-0.1,0.1-0.2,0.3-0.3,0.4c-0.1,0.1-0.3,0.1-0.5,0.1c-0.2,0-0.4,0-0.5-0.1c-0.1-0.1-0.2-0.2-0.3-0.4
			c-0.1-0.1-0.1-0.3-0.2-0.5c0-0.2-0.1-0.4-0.1-0.6v-2.6C11.4,29.4,11.4,29.2,11.5,29z"/>
		<path fill="#504540" d="M23.1,28c-0.2-0.2-0.4-0.4-0.6-0.5c-0.3-0.1-0.6-0.2-1-0.2c-0.3,0-0.5,0-0.7,0.1c-0.2,0.1-0.4,0.1-0.5,0.2
			c-0.2,0.1-0.3,0.2-0.4,0.4c-0.1,0.1-0.2,0.3-0.3,0.5c-0.1,0.2-0.1,0.4-0.1,0.6c0,0.2,0,0.4,0,0.6v2.6c0,0.2,0,0.4,0,0.6
			c0,0.2,0.1,0.4,0.1,0.6c0.1,0.2,0.1,0.3,0.3,0.5c0.1,0.1,0.2,0.3,0.4,0.4c0.2,0.1,0.3,0.2,0.5,0.2c0.2,0.1,0.4,0.1,0.7,0.1
			c0.4,0,0.7-0.1,1-0.2c0.3-0.1,0.5-0.3,0.6-0.5c0.2-0.2,0.3-0.5,0.3-0.8c0.1-0.3,0.1-0.6,0.1-0.9v-2.6c0-0.3,0-0.6-0.1-0.9
			C23.4,28.5,23.3,28.2,23.1,28z M22.5,32.5c0,0.2,0,0.4-0.1,0.5c0,0.2-0.1,0.3-0.2,0.4c-0.1,0.1-0.2,0.2-0.3,0.3
			c-0.1,0.1-0.3,0.1-0.5,0.1c-0.2,0-0.4,0-0.5-0.1c-0.1-0.1-0.2-0.1-0.3-0.3c-0.1-0.1-0.1-0.2-0.2-0.4c0-0.2-0.1-0.3-0.1-0.5v-3.1
			c0-0.2,0-0.4,0.1-0.5c0-0.2,0.1-0.3,0.2-0.4c0.1-0.1,0.2-0.2,0.3-0.3c0.1-0.1,0.3-0.1,0.5-0.1c0.2,0,0.4,0,0.5,0.1
			c0.1,0.1,0.2,0.1,0.3,0.3c0.1,0.1,0.1,0.2,0.2,0.4c0,0.2,0.1,0.3,0.1,0.5V32.5z"/>
		<polygon fill="#504540" points="31.2,32.1 29.3,27.4 28.6,27.4 28.6,34.6 29.6,34.6 29.6,29.8 31.5,34.6 32.2,34.6 32.2,27.4 
			31.2,27.4 		"/>
		<polygon fill="#504540" points="37.4,34.6 38.4,34.6 38.4,31.3 39.7,31.3 39.7,30.5 38.4,30.5 38.4,28.2 40.2,28.2 40.2,27.4 
			37.4,27.4 		"/>
		<path fill="#504540" d="M63.1,30.7c0.1-0.2,0.2-0.3,0.2-0.5c0.1-0.2,0.1-0.3,0.1-0.5c0-0.2,0-0.4,0-0.5c0-0.3,0-0.5-0.1-0.7
			c-0.1-0.2-0.2-0.4-0.3-0.6c-0.1-0.2-0.3-0.3-0.6-0.4c-0.2-0.1-0.5-0.1-0.8-0.1c-0.3,0-0.6,0.1-0.8,0.2c-0.2,0.1-0.4,0.2-0.6,0.4
			C60.2,28,60,28.3,60,28.5c-0.1,0.3-0.1,0.6-0.1,0.9v0.3h1v-0.3c0-0.2,0-0.4,0-0.5c0-0.2,0.1-0.3,0.1-0.4c0.1-0.1,0.1-0.2,0.2-0.3
			c0.1-0.1,0.2-0.1,0.3-0.1c0.1,0,0.2,0,0.3,0.1c0.1,0.1,0.2,0.1,0.2,0.2c0.1,0.1,0.1,0.2,0.1,0.3c0,0.1,0,0.3,0,0.4
			c0,0.1,0,0.2,0,0.3c0,0.1,0,0.2-0.1,0.4c-0.1,0.1-0.1,0.3-0.2,0.5c-0.1,0.2-0.2,0.4-0.4,0.7l-1.8,2.6v1h3.6v-1h-2.6l1.8-2.3
			C62.9,31,63,30.9,63.1,30.7z"/>
		<path fill="#504540" d="M71.8,28c-0.1-0.2-0.2-0.3-0.4-0.4c-0.1-0.1-0.3-0.2-0.4-0.2c-0.1-0.1-0.3-0.1-0.4-0.1c-0.1,0-0.2,0-0.3,0
			c-0.1,0-0.2,0-0.3,0c-0.1,0-0.3,0-0.4,0.1c-0.1,0.1-0.3,0.1-0.4,0.2c-0.1,0.1-0.3,0.2-0.4,0.4c-0.1,0.2-0.2,0.4-0.3,0.6
			c-0.1,0.2-0.1,0.5-0.1,0.8v3.1c0,0.4,0.1,0.7,0.2,1c0.1,0.3,0.2,0.5,0.4,0.7c0.2,0.2,0.4,0.3,0.6,0.4c0.2,0.1,0.4,0.1,0.7,0.1
			c0.2,0,0.5,0,0.7-0.1c0.2-0.1,0.4-0.2,0.6-0.4c0.2-0.2,0.3-0.4,0.4-0.7c0.1-0.3,0.2-0.6,0.2-1v-3.1c0-0.3,0-0.6-0.1-0.8
			C72,28.3,71.9,28.1,71.8,28z M71.1,32.5c0,0.1,0,0.2,0,0.3c0,0.1,0,0.2,0,0.3c0,0.1,0,0.2-0.1,0.3c0,0.1-0.1,0.2-0.1,0.2
			c-0.1,0.1-0.1,0.1-0.2,0.2c-0.1,0-0.2,0.1-0.3,0.1c-0.1,0-0.2,0-0.3-0.1c-0.1,0-0.2-0.1-0.2-0.2c-0.1-0.1-0.1-0.2-0.1-0.2
			c0-0.1-0.1-0.2-0.1-0.3c0-0.1,0-0.2,0-0.3c0-0.1,0-0.2,0-0.3v-3.1c0-0.1,0-0.2,0-0.3c0-0.1,0-0.2,0-0.3c0-0.1,0-0.2,0.1-0.3
			c0-0.1,0.1-0.2,0.1-0.2c0.1-0.1,0.1-0.1,0.2-0.2c0.1,0,0.2-0.1,0.3-0.1c0.1,0,0.2,0,0.3,0.1c0.1,0,0.2,0.1,0.2,0.2
			c0.1,0.1,0.1,0.1,0.1,0.2c0,0.1,0.1,0.2,0.1,0.3c0,0.1,0,0.2,0,0.3c0,0.1,0,0.2,0,0.3V32.5z"/>
		<path fill="#504540" d="M77.8,27.7c-0.1,0.1-0.2,0.2-0.3,0.2c-0.1,0.1-0.3,0.1-0.4,0.2v0.8h0.8v5.7h1v-7.2h-0.8
			C78,27.5,77.9,27.6,77.8,27.7z"/>
		<path fill="#504540" d="M86,32.8h-2.1v-1.2l1.8-4.2H87v4.4h0.8v1H87v1.8h-1V32.8z M86,31.7l0.1-3.1l-1.2,3.1H86z"/>
	</g>
</g>
</svg>
