<?xml version="1.0" encoding="utf-8"?>
<!-- Generator: Adobe Illustrator 16.0.0, SVG Export Plug-In . SVG Version: 6.00 Build 0)  -->
<!DOCTYPE svg PUBLIC "-//W3C//DTD SVG 1.1//EN" "http://www.w3.org/Graphics/SVG/1.1/DTD/svg11.dtd">
<svg version="1.1" id="Capa_1" xmlns="http://www.w3.org/2000/svg" xmlns:xlink="http://www.w3.org/1999/xlink" x="0px" y="0px"
	 width="127px" height="46px" viewBox="0 0 127 46" enable-background="new 0 0 127 46" xml:space="preserve">
<g>
	<g>
		<polygon fill="#666766" points="39.372,18.694 44.841,18.694 42.138,10.779 		"/>
		<polygon fill="#666766" points="108.456,18.694 113.925,18.694 111.222,10.779 		"/>
		<path fill="#666766" d="M122.417,20.498l-6.625-17.938h-9.173l-4.863,13.163l-1.062-13.163h-9.79l-3.179,7.214l-3.175-7.214
			h-9.793l-0.263,3.191l-0.026,0.266l-0.128-0.148C73.969,5.475,70.508,2,63.868,2c-6.454,0-11.787,4.026-13.74,9.76l-3.419-9.2
			h-9.171l-4.865,13.163L31.612,2.561h-9.791l-3.178,7.213l-3.176-7.213H5.677L4.225,20.498H2.488v10.613h6.919
			c2.676,0,4.577-1.346,5.319-3.438h7.917c0.775,2.266,2.637,3.438,5.238,3.438h6.822c2.733,0,4.403-1.159,5.507-3.778
			c0.065-0.157,0.778-1.901,0.778-1.901h2.237l0.491,1.46c1.005,2.827,2.888,4.22,5.925,4.22h28.844c2.68,0,4.58-1.346,5.321-3.438
			h7.918c0.775,2.266,2.639,3.438,5.238,3.438h7.184c2.863,0,4.613-1.37,5.519-4.265l0.405-1.415h2.236l0.492,1.46
			c1.006,2.827,2.889,4.22,5.926,4.22h6.184V20.498H122.417z M31.314,27.505h-3.433c-1.43,0-1.914-0.608-2.037-2.066l-0.759-12.944
			l-4.832,11.303h-3.22l-4.832-11.333l-0.729,12.975c-0.121,1.458-0.639,2.066-2.065,2.066H5.972v-3.373h0.942
			c0.426,0,0.638-0.242,0.669-0.668L8.982,5.931h4.132l5.498,13.158h0.062l5.501-13.158h4.133l1.398,17.533
			c0.029,0.426,0.241,0.668,0.666,0.668h0.943V27.505z M52.013,27.505h-2.37c-1.52,0-2.066-0.394-2.552-1.763l-1.337-3.767h-7.292
			l-1.338,3.767c-0.487,1.369-1.004,1.763-2.523,1.763h-2.4v-3.373h0.487c0.517,0,0.761-0.12,0.943-0.668l6.41-17.533h4.163
			l6.382,17.533c0.182,0.548,0.426,0.668,0.942,0.668h0.485V27.505z M73.166,27.505h-3.403v-1.033c0-0.455,0.032-0.911,0.032-0.911
			h-0.062c0,0-2.309,2.309-6.35,2.309c-5.652,0-10.483-4.314-10.483-11.272c0-6.2,4.71-11.03,10.969-11.03
			c5.288,0,7.871,2.734,7.871,2.734l-2.25,2.858c0,0-2.249-1.915-5.531-1.915c-3.735,0-6.927,2.947-6.927,7.323
			c0,4.71,3.22,7.596,7.082,7.596c3.433,0,5.468-2.248,5.468-2.248v-1.61c0-0.457-0.242-0.668-0.667-0.668h-1.307v-3.373h3.495
			c1.457,0,2.064,0.606,2.064,2.036V27.505z M100.396,27.505h-3.433c-1.428,0-1.914-0.608-2.037-2.066l-0.758-12.944l-4.832,11.303
			h-3.221l-4.832-11.333l-0.729,12.975c-0.12,1.458-0.639,2.066-2.068,2.066h-3.43v-3.373h0.94c0.426,0,0.638-0.242,0.668-0.668
			l1.398-17.533h4.134l5.5,13.158h0.06l5.5-13.158h4.133l1.398,17.533c0.028,0.426,0.243,0.668,0.665,0.668h0.943V27.505z
			 M121.095,27.505h-2.369c-1.52,0-2.065-0.394-2.552-1.763l-1.339-3.767h-7.29l-1.338,3.767c-0.486,1.369-1.004,1.763-2.523,1.763
			h-2.4v-3.373h0.487c0.518,0,0.761-0.12,0.942-0.668l6.409-17.533h4.164l6.381,17.533c0.183,0.548,0.426,0.668,0.943,0.668h0.484
			V27.505z"/>
	</g>
</g>
<g>
	<g>
		<polygon fill="#666766" points="124.764,18.959 123.489,18.959 123.047,17.763 123.557,17.575 123.866,18.416 124.764,18.416 		
			"/>
	</g>
	<g>
		<path fill="#666766" d="M122.208,15.491l-0.839-2.271l0.51-0.188l0.839,2.271L122.208,15.491z M120.53,10.949l-0.838-2.271
			l0.509-0.188l0.839,2.271L120.53,10.949z M118.854,6.406l-0.839-2.271l0.509-0.188l0.839,2.271L118.854,6.406z"/>
	</g>
	<g>
		<polygon fill="#666766" points="117.175,1.863 116.864,1.022 115.967,1.022 115.967,0.479 117.243,0.479 117.685,1.675 		"/>
	</g>
	<g>
		<path fill="#666766" d="M114.063,1.022h-1.905V0.479h1.905V1.022z M110.254,1.022h-1.904V0.479h1.904V1.022z"/>
	</g>
	<g>
		<polygon fill="#666766" points="105.236,1.863 104.727,1.675 105.169,0.479 106.445,0.479 106.445,1.022 105.548,1.022 		"/>
	</g>
	<g>
		
			<rect x="103.858" y="3.256" transform="matrix(0.938 0.3466 -0.3466 0.938 7.8663 -35.8367)" fill="#666766" width="0.542" height="1.639"/>
	</g>
	<g>
		<polygon fill="#666766" points="102.729,8.648 102.542,6.339 103.023,6.287 103.053,6.298 103.084,6.295 103.086,6.31 
			103.532,6.475 		"/>
	</g>
	<g>
		
			<rect x="101.883" y="3.804" transform="matrix(0.0801 0.9968 -0.9968 0.0801 98.4735 -98.554)" fill="#666766" width="1.499" height="0.544"/>
	</g>
	<g>
		<polygon fill="#666766" points="102.181,1.855 102.114,1.022 101.278,1.022 101.278,0.479 102.616,0.479 102.723,1.812 		"/>
	</g>
	<g>
		<path fill="#666766" d="M99.185,1.022h-2.094V0.479h2.094V1.022z M94.998,1.022h-2.094V0.479h2.094V1.022z"/>
	</g>
	<g>
		<polygon fill="#666766" points="89.534,1.854 89.037,1.635 89.547,0.479 90.811,0.479 90.811,1.022 89.901,1.022 		"/>
	</g>
	<g>
		<polygon fill="#666766" points="87.727,5.957 87.04,4.398 87.538,4.179 87.727,4.609 87.916,4.179 88.413,4.398 		"/>
	</g>
	<g>
		<polygon fill="#666766" points="85.92,1.854 85.554,1.022 84.646,1.022 84.646,0.479 85.908,0.479 86.418,1.635 		"/>
	</g>
	<g>
		<path fill="#666766" d="M82.552,1.022h-2.093V0.479h2.093V1.022z M78.365,1.022h-2.094V0.479h2.094V1.022z"/>
	</g>
	<g>
		<path fill="#666766" d="M73.18,2.99l-0.373-0.22c-0.289-0.17-0.601-0.341-0.936-0.509l0.243-0.486
			c0.206,0.104,0.405,0.208,0.595,0.312l0.133-1.609h1.336v0.543h-0.837L73.18,2.99z"/>
	</g>
	<g>
		<path fill="#666766" d="M52.615,4.963l-0.38-0.389c0.51-0.498,1.056-0.966,1.625-1.391l0.325,0.435
			C53.636,4.03,53.107,4.482,52.615,4.963z M55.919,2.495l-0.265-0.474c0.619-0.346,1.268-0.655,1.932-0.918l0.201,0.505
			C57.145,1.862,56.517,2.161,55.919,2.495z M69.966,1.457c-0.643-0.225-1.312-0.414-1.993-0.563l0.116-0.53
			c0.702,0.153,1.394,0.349,2.056,0.581L69.966,1.457z M59.754,0.97l-0.135-0.526c0.687-0.174,1.394-0.307,2.102-0.395l0.066,0.539
			C61.102,0.673,60.418,0.802,59.754,0.97z M65.927,0.566c-0.669-0.069-1.362-0.104-2.059-0.104l-0.014-0.543
			c0.729,0,1.439,0.036,2.129,0.107L65.927,0.566z"/>
	</g>
	<g>
		<path fill="#666766" d="M50.304,7.815l-0.562-1.513l0.509-0.189l0.198,0.533c0.113-0.157,0.229-0.312,0.349-0.464l0.428,0.335
			c-0.218,0.278-0.427,0.565-0.626,0.861L50.304,7.815z"/>
	</g>
	<g>
		
			<rect x="48.382" y="3.717" transform="matrix(0.3485 0.9373 -0.9373 0.3485 35.7728 -43.4902)" fill="#666766" width="1.579" height="0.543"/>
	</g>
	<g>
		<polygon fill="#666766" points="48.092,1.863 47.779,1.022 46.881,1.022 46.881,0.479 48.157,0.479 48.601,1.674 		"/>
	</g>
	<g>
		<path fill="#666766" d="M44.979,1.022h-1.904V0.479h1.904V1.022z M41.171,1.022h-1.904V0.479h1.904V1.022z"/>
	</g>
	<g>
		<polygon fill="#666766" points="36.155,1.863 35.646,1.675 36.088,0.479 37.363,0.479 37.363,1.022 36.466,1.022 		"/>
	</g>
	<g>
		
			<rect x="34.776" y="3.256" transform="matrix(0.9381 0.3463 -0.3463 0.9381 3.5798 -11.8845)" fill="#666766" width="0.543" height="1.639"/>
	</g>
	<g>
		<polygon fill="#666766" points="33.647,8.649 33.46,6.34 33.941,6.288 33.97,6.299 34.002,6.296 34.003,6.311 34.451,6.477 		"/>
	</g>
	<g>
		
			<rect x="32.801" y="3.804" transform="matrix(0.0801 0.9968 -0.9968 0.0801 34.9268 -29.694)" fill="#666766" width="1.5" height="0.543"/>
	</g>
	<g>
		<polygon fill="#666766" points="33.099,1.855 33.032,1.022 32.197,1.022 32.197,0.479 33.534,0.479 33.641,1.812 		"/>
	</g>
	<g>
		<path fill="#666766" d="M30.103,1.022h-2.094V0.479h2.094V1.022z M25.915,1.022h-2.094V0.479h2.094V1.022z"/>
	</g>
	<g>
		<polygon fill="#666766" points="20.451,1.854 19.954,1.635 20.463,0.479 21.727,0.479 21.727,1.022 20.818,1.022 		"/>
	</g>
	<g>
		<polygon fill="#666766" points="18.644,5.956 17.958,4.398 18.455,4.179 18.644,4.608 18.833,4.179 19.331,4.398 		"/>
	</g>
	<g>
		<polygon fill="#666766" points="16.837,1.854 16.471,1.022 15.562,1.022 15.562,0.479 16.825,0.479 17.334,1.635 		"/>
	</g>
	<g>
		<path fill="#666766" d="M13.468,1.022h-2.094V0.479h2.094V1.022z M9.281,1.022H7.187V0.479h2.094V1.022z"/>
	</g>
	<g>
		<polygon fill="#666766" points="4.19,1.855 3.649,1.811 3.757,0.479 5.093,0.479 5.093,1.022 4.257,1.022 		"/>
	</g>
	<g>
		<path fill="#666766" d="M3.095,15.374L2.554,15.33l0.182-2.253l0.542,0.044L3.095,15.374z M3.46,10.868l-0.542-0.044L3.102,8.57
			l0.541,0.044L3.46,10.868z M3.825,6.361L3.284,6.317l0.183-2.253l0.541,0.044L3.825,6.361z"/>
	</g>
	<g>
		<polygon fill="#666766" points="0.949,19.774 0.406,19.774 0.406,18.416 2.304,18.416 2.372,17.583 2.913,17.627 2.805,18.959 
			0.949,18.959 		"/>
	</g>
	<g>
		<path fill="#666766" d="M0.949,29.423H0.406V27.01h0.543V29.423z M0.949,24.599H0.406v-2.413h0.543V24.599z"/>
	</g>
	<g>
		<polygon fill="#666766" points="1.764,33.193 0.406,33.193 0.406,31.835 0.949,31.835 0.949,32.65 1.764,32.65 		"/>
	</g>
	<g>
		<path fill="#666766" d="M9.407,33.193H7.865V32.65h1.542c0.16,0,0.319-0.004,0.477-0.013l0.028,0.543
			C9.746,33.189,9.578,33.193,9.407,33.193z M5.831,33.193H3.797V32.65h2.034V33.193z M11.977,32.831L11.82,32.31
			c0.641-0.191,1.237-0.466,1.773-0.812l0.295,0.457C13.31,32.329,12.667,32.624,11.977,32.831z"/>
	</g>
	<g>
		<path fill="#666766" d="M15.468,30.546l-0.419-0.345c0.219-0.266,0.419-0.554,0.594-0.855l0.078-0.135h1.243v0.543h-0.932
			C15.861,30.032,15.673,30.297,15.468,30.546z"/>
	</g>
	<g>
		<rect x="18.105" y="29.211" fill="#666766" width="1.142" height="0.543"/>
	</g>
	<g>
		<path fill="#666766" d="M21.867,30.554c-0.199-0.251-0.384-0.518-0.549-0.8h-0.929v-0.543h1.245l0.078,0.139
			c0.171,0.307,0.366,0.597,0.58,0.864L21.867,30.554z"/>
	</g>
	<g>
		<path fill="#666766" d="M33.34,33.193h-2.002V32.65h2.002V33.193z M29.335,33.193h-1.454c-0.191,0-0.378-0.005-0.563-0.016
			l0.029-0.543c0.176,0.01,0.354,0.015,0.534,0.016h1.454V33.193z M35.359,33.173l-0.033-0.542c0.679-0.042,1.32-0.155,1.902-0.337
			l0.162,0.519C36.766,33.008,36.082,33.128,35.359,33.173z M25.285,32.83c-0.682-0.206-1.315-0.499-1.881-0.873l0.299-0.453
			c0.521,0.344,1.107,0.615,1.739,0.806L25.285,32.83z M39.258,31.907l-0.31-0.446c0.512-0.354,0.981-0.796,1.395-1.313l0.424,0.339
			C40.32,31.044,39.813,31.523,39.258,31.907z"/>
	</g>
	<g>
		<path fill="#666766" d="M42.236,28.732c-0.065-0.131-0.127-0.267-0.188-0.404c-0.06,0.136-0.121,0.269-0.185,0.399l-0.489-0.237
			c0.088-0.181,0.173-0.368,0.254-0.561l0.437-1.067l0.242,0.655c0.126,0.341,0.266,0.67,0.416,0.977L42.236,28.732z"/>
	</g>
	<g>
		<path fill="#666766" d="M78.486,33.193h-1.849V32.65h1.849c0.086,0,0.17-0.001,0.254-0.004l0.016,0.543
			C78.667,33.192,78.577,33.193,78.486,33.193z M74.529,33.193h-2.11V32.65h2.11V33.193z M70.31,33.193h-2.11V32.65h2.11V33.193z
			 M66.089,33.193H63.98V32.65h2.109V33.193z M61.87,33.193H59.76V32.65h2.109V33.193z M57.65,33.193h-2.109V32.65h2.109V33.193z
			 M53.431,33.193h-2.11V32.65h2.11V33.193z M49.202,33.185c-0.762-0.029-1.483-0.136-2.145-0.316l0.143-0.524
			c0.622,0.17,1.302,0.271,2.021,0.297L49.202,33.185z M80.903,32.875l-0.146-0.522c0.67-0.187,1.293-0.46,1.854-0.813l0.29,0.46
			C82.296,32.38,81.624,32.675,80.903,32.875z M45.058,31.998c-0.61-0.385-1.164-0.868-1.645-1.437l0.415-0.351
			c0.445,0.526,0.958,0.973,1.521,1.327L45.058,31.998z"/>
	</g>
	<g>
		<path fill="#666766" d="M84.551,30.546l-0.42-0.345c0.219-0.266,0.418-0.554,0.594-0.855l0.078-0.135h1.243v0.543h-0.933
			C84.943,30.032,84.755,30.297,84.551,30.546z"/>
	</g>
	<g>
		<rect x="87.188" y="29.211" fill="#666766" width="1.141" height="0.543"/>
	</g>
	<g>
		<path fill="#666766" d="M90.949,30.554c-0.198-0.251-0.383-0.518-0.549-0.8h-0.929v-0.543h1.244l0.078,0.139
			c0.172,0.307,0.367,0.597,0.58,0.864L90.949,30.554z"/>
	</g>
	<g>
		<path fill="#666766" d="M96.945,33.193c-0.186,0-0.369-0.005-0.55-0.016l0.03-0.543c0.177,0.011,0.345,0.01,0.538,0.016h1.448
			v0.543h-1.448C96.958,33.193,96.952,33.193,96.945,33.193z M102.414,33.193h-2.001V32.65h2.001V33.193z M104.422,33.189
			l-0.014-0.543c0.682-0.018,1.326-0.104,1.916-0.26l0.138,0.525C105.832,33.078,105.145,33.17,104.422,33.189z M94.364,32.829
			c-0.681-0.205-1.313-0.5-1.879-0.873l0.299-0.452c0.521,0.343,1.106,0.615,1.737,0.805L94.364,32.829z M108.37,32.098
			l-0.287-0.462c0.534-0.333,1.019-0.754,1.439-1.252l0.415,0.351C109.479,31.276,108.952,31.735,108.37,32.098z"/>
	</g>
	<g>
		<path fill="#666766" d="M111.059,28.985l-0.489-0.236c0.148-0.307,0.286-0.635,0.407-0.977l0.243-0.677l0.266,0.669
			c0.134,0.338,0.282,0.663,0.439,0.965l-0.48,0.252c-0.068-0.131-0.135-0.266-0.2-0.403
			C111.185,28.716,111.122,28.852,111.059,28.985z"/>
	</g>
	<g>
		<path fill="#666766" d="M118.72,33.193c-0.699,0-1.369-0.062-1.991-0.187l0.106-0.531c0.588,0.115,1.245,0.181,1.891,0.175h0.259
			v0.543h-0.259C118.723,33.193,118.721,33.193,118.72,33.193z M123.414,33.193h-2.215V32.65h2.215V33.193z M114.572,32.249
			c-0.674-0.361-1.286-0.831-1.817-1.396l0.396-0.372c0.491,0.522,1.057,0.956,1.678,1.289L114.572,32.249z"/>
	</g>
	<g>
		<polygon fill="#666766" points="126.991,33.193 125.634,33.193 125.634,32.65 126.448,32.65 126.448,31.835 126.991,31.835 		"/>
	</g>
	<g>
		<path fill="#666766" d="M126.991,29.422h-0.543V27.01h0.543V29.422z M126.991,24.598h-0.543v-2.412h0.543V24.598z"/>
	</g>
	<g>
		<polygon fill="#666766" points="126.991,19.774 126.448,19.774 126.448,18.959 125.634,18.959 125.634,18.416 126.991,18.416 		
			"/>
	</g>
</g>
<polygon fill="#666766" points="63.699,37.668 64.842,39.984 67.396,40.356 65.547,42.157 65.983,44.702 63.699,43.499 
	61.414,44.702 61.85,42.157 60.001,40.356 62.556,39.984 "/>
<g>
	<path fill="#666766" d="M20.294,42.473v0.317c0,0.396-0.042,0.772-0.128,1.129s-0.228,0.669-0.426,0.936
		c-0.198,0.268-0.459,0.479-0.782,0.639c-0.324,0.158-0.723,0.237-1.198,0.237s-0.875-0.081-1.198-0.242
		c-0.324-0.162-0.584-0.388-0.782-0.676c-0.198-0.289-0.34-0.634-0.426-1.032c-0.086-0.399-0.129-0.837-0.129-1.312v-2.529
		c0-0.476,0.043-0.912,0.129-1.312c0.086-0.399,0.228-0.742,0.426-1.029c0.198-0.287,0.458-0.512,0.782-0.673
		c0.323-0.162,0.723-0.243,1.198-0.243c0.449,0,0.834,0.072,1.156,0.215c0.322,0.145,0.584,0.345,0.787,0.603
		c0.203,0.257,0.352,0.566,0.448,0.928s0.144,0.76,0.144,1.195h-1.267c0-0.316-0.022-0.594-0.064-0.831
		c-0.043-0.238-0.114-0.436-0.213-0.595c-0.099-0.158-0.229-0.277-0.391-0.356s-0.361-0.118-0.599-0.118s-0.438,0.039-0.599,0.118
		s-0.292,0.198-0.391,0.356c-0.099,0.159-0.17,0.356-0.213,0.595c-0.042,0.237-0.064,0.515-0.064,0.831v3.169
		c0,0.237,0.021,0.47,0.064,0.698c0.043,0.228,0.114,0.431,0.213,0.608c0.099,0.179,0.229,0.322,0.391,0.432
		c0.162,0.108,0.361,0.162,0.599,0.162s0.438-0.054,0.599-0.162c0.162-0.109,0.292-0.253,0.391-0.432
		c0.099-0.178,0.17-0.381,0.213-0.608c0.042-0.229,0.064-0.461,0.064-0.698v-0.317H20.294z"/>
	<path fill="#666766" d="M31.383,42.791c0,0.396-0.042,0.772-0.124,1.129c-0.083,0.356-0.221,0.669-0.416,0.936
		c-0.195,0.268-0.455,0.479-0.78,0.639c-0.325,0.158-0.73,0.237-1.215,0.237c-0.33,0-0.622-0.037-0.876-0.109
		c-0.254-0.071-0.475-0.172-0.661-0.301s-0.344-0.284-0.473-0.466c-0.129-0.182-0.232-0.382-0.31-0.6s-0.133-0.45-0.166-0.697
		c-0.033-0.248-0.049-0.503-0.049-0.768v-3.169c0-0.264,0.017-0.52,0.049-0.767c0.033-0.248,0.088-0.48,0.166-0.698
		s0.181-0.417,0.31-0.6c0.128-0.182,0.286-0.336,0.473-0.465s0.407-0.229,0.661-0.302c0.254-0.072,0.546-0.109,0.876-0.109
		c0.485,0,0.891,0.079,1.215,0.237c0.325,0.159,0.585,0.372,0.78,0.639c0.195,0.268,0.333,0.58,0.416,0.937
		c0.082,0.356,0.124,0.732,0.124,1.128V42.791z M27.581,43.107c0,0.238,0.022,0.454,0.064,0.648c0.043,0.194,0.114,0.361,0.213,0.5
		c0.099,0.139,0.229,0.246,0.391,0.323c0.162,0.074,0.361,0.112,0.599,0.112s0.438-0.038,0.599-0.112
		c0.162-0.077,0.292-0.185,0.391-0.323s0.17-0.306,0.213-0.5c0.042-0.194,0.064-0.41,0.064-0.648v-3.802
		c0-0.237-0.022-0.454-0.064-0.648c-0.043-0.194-0.114-0.361-0.213-0.5s-0.229-0.246-0.391-0.322
		c-0.162-0.075-0.361-0.113-0.599-0.113s-0.438,0.038-0.599,0.113c-0.162,0.076-0.292,0.184-0.391,0.322
		c-0.099,0.139-0.17,0.306-0.213,0.5c-0.042,0.194-0.064,0.411-0.064,0.648V43.107z"/>
	<path fill="#666766" d="M41.096,45.642l-2.267-5.901v5.901h-1.268V36.77h0.832l2.336,5.793V36.77h1.268v8.872H41.096z"/>
	<path fill="#666766" d="M51.819,37.721h-2.218v2.852h1.584v0.95h-1.584v4.119h-1.268V36.77h3.485V37.721z"/>
</g>
<g>
	<path fill="#666766" d="M75.914,39.577V39.26c0-0.396,0.041-0.756,0.123-1.08c0.083-0.323,0.214-0.598,0.392-0.825
		c0.179-0.229,0.407-0.405,0.688-0.531c0.28-0.125,0.619-0.188,1.016-0.188c0.396,0,0.734,0.062,1.014,0.184
		c0.281,0.122,0.511,0.287,0.689,0.495c0.178,0.208,0.309,0.452,0.391,0.732s0.124,0.579,0.124,0.896
		c0,0.237-0.02,0.461-0.058,0.669c-0.037,0.208-0.097,0.412-0.176,0.611s-0.179,0.401-0.297,0.604
		c-0.119,0.203-0.259,0.421-0.42,0.651l-2.218,2.852h3.168v1.267h-4.441V44.33l2.224-3.169c0.224-0.319,0.4-0.594,0.526-0.823
		c0.127-0.23,0.223-0.429,0.285-0.597s0.102-0.315,0.116-0.441c0.015-0.125,0.022-0.244,0.022-0.356c0-0.158-0.02-0.313-0.06-0.465
		c-0.039-0.151-0.099-0.287-0.178-0.406s-0.179-0.215-0.297-0.287c-0.119-0.072-0.258-0.109-0.416-0.109s-0.297,0.038-0.416,0.115
		c-0.119,0.075-0.218,0.183-0.297,0.32c-0.079,0.139-0.139,0.306-0.179,0.501c-0.039,0.194-0.059,0.41-0.059,0.648v0.316H75.914z"/>
	<path fill="#666766" d="M88.746,45.686c-0.284,0-0.561-0.049-0.828-0.146c-0.267-0.097-0.503-0.251-0.71-0.462
		c-0.206-0.211-0.371-0.482-0.495-0.814c-0.123-0.332-0.185-0.732-0.185-1.201V39.26c0-0.399,0.039-0.741,0.12-1.024
		c0.082-0.284,0.187-0.523,0.315-0.719c0.129-0.194,0.273-0.35,0.436-0.465c0.161-0.115,0.324-0.205,0.489-0.268
		s0.322-0.104,0.473-0.121c0.151-0.018,0.278-0.027,0.385-0.027c0.105,0,0.233,0.01,0.383,0.027c0.15,0.018,0.308,0.059,0.473,0.121
		s0.329,0.152,0.491,0.268c0.161,0.115,0.307,0.271,0.436,0.465c0.128,0.195,0.233,0.435,0.313,0.719
		c0.081,0.283,0.122,0.625,0.122,1.024v3.802c0,0.469-0.062,0.869-0.187,1.201c-0.123,0.332-0.289,0.604-0.495,0.814
		c-0.205,0.211-0.443,0.365-0.71,0.462C89.305,45.637,89.029,45.686,88.746,45.686z M88.746,44.646c0.139,0,0.259-0.025,0.36-0.079
		c0.103-0.053,0.188-0.122,0.258-0.208c0.069-0.085,0.126-0.185,0.171-0.297s0.078-0.227,0.102-0.344
		c0.022-0.117,0.038-0.232,0.047-0.347s0.013-0.217,0.013-0.31V39.26c0-0.096-0.003-0.201-0.008-0.317
		c-0.005-0.115-0.018-0.231-0.04-0.349c-0.021-0.116-0.051-0.231-0.091-0.342c-0.039-0.11-0.095-0.208-0.166-0.294
		s-0.159-0.154-0.266-0.206c-0.105-0.052-0.231-0.077-0.38-0.077s-0.276,0.025-0.382,0.077s-0.194,0.12-0.265,0.206
		c-0.071,0.086-0.126,0.184-0.166,0.294c-0.039,0.11-0.07,0.226-0.092,0.342c-0.021,0.117-0.034,0.233-0.039,0.349
		c-0.005,0.116-0.008,0.222-0.008,0.317v3.802c0,0.093,0.005,0.195,0.013,0.31s0.023,0.229,0.047,0.347
		c0.022,0.117,0.057,0.231,0.102,0.344c0.044,0.112,0.101,0.212,0.17,0.297c0.069,0.086,0.156,0.155,0.258,0.208
		C88.486,44.621,88.607,44.646,88.746,44.646z"/>
	<path fill="#666766" d="M96.983,37.675c0.182-0.065,0.354-0.145,0.515-0.237c0.139-0.079,0.279-0.178,0.421-0.297
		s0.253-0.258,0.332-0.416h0.95v8.871h-1.268v-6.97h-0.95V37.675z"/>
	<path fill="#666766" d="M107.598,45.686c-0.396,0-0.734-0.062-1.016-0.183c-0.28-0.122-0.509-0.287-0.688-0.495
		c-0.178-0.208-0.309-0.453-0.392-0.732c-0.082-0.281-0.123-0.58-0.123-0.897v-0.316h1.268c0,0.316,0.02,0.578,0.06,0.782
		c0.039,0.205,0.099,0.366,0.178,0.485c0.079,0.118,0.178,0.202,0.297,0.247c0.119,0.047,0.258,0.069,0.416,0.069
		s0.297-0.022,0.416-0.069c0.118-0.045,0.218-0.129,0.297-0.247c0.079-0.119,0.139-0.28,0.178-0.485
		c0.04-0.204,0.06-0.466,0.06-0.782c0-0.237-0.021-0.453-0.064-0.647c-0.043-0.195-0.113-0.362-0.213-0.501
		c-0.099-0.139-0.229-0.246-0.392-0.321c-0.161-0.076-0.36-0.114-0.598-0.114V40.21c0.237,0,0.437-0.021,0.598-0.063
		c0.162-0.043,0.293-0.115,0.392-0.214c0.1-0.099,0.17-0.229,0.213-0.391c0.043-0.162,0.064-0.362,0.064-0.6s-0.02-0.437-0.06-0.599
		c-0.039-0.161-0.099-0.292-0.178-0.392c-0.079-0.099-0.179-0.17-0.297-0.212c-0.119-0.043-0.258-0.065-0.416-0.065
		s-0.297,0.023-0.416,0.069c-0.119,0.047-0.218,0.129-0.297,0.248c-0.079,0.118-0.139,0.28-0.178,0.485
		c-0.04,0.205-0.06,0.465-0.06,0.782h-1.268v-0.317c0-0.316,0.041-0.615,0.123-0.896c0.083-0.28,0.214-0.524,0.392-0.732
		c0.179-0.208,0.407-0.373,0.688-0.495c0.281-0.122,0.619-0.184,1.016-0.184s0.734,0.062,1.014,0.184
		c0.281,0.122,0.511,0.287,0.689,0.495c0.178,0.208,0.309,0.452,0.391,0.732s0.124,0.579,0.124,0.896
		c0,0.198-0.019,0.378-0.055,0.538c-0.036,0.159-0.084,0.302-0.144,0.428s-0.127,0.236-0.203,0.331
		c-0.076,0.097-0.153,0.179-0.232,0.248c-0.186,0.162-0.396,0.28-0.634,0.356c0.238,0.079,0.448,0.211,0.634,0.396
		c0.079,0.079,0.156,0.174,0.232,0.285s0.144,0.24,0.203,0.389s0.107,0.318,0.144,0.508s0.055,0.403,0.055,0.641
		c0,0.396-0.042,0.756-0.124,1.079c-0.082,0.324-0.213,0.6-0.391,0.827c-0.179,0.228-0.408,0.405-0.689,0.529
		C108.332,45.624,107.994,45.686,107.598,45.686z"/>
</g>
</svg>
