<?xml version="1.0" encoding="utf-8"?>
<!-- Generator: Adobe Illustrator 16.0.0, SVG Export Plug-In . SVG Version: 6.00 Build 0)  -->
<!DOCTYPE svg PUBLIC "-//W3C//DTD SVG 1.1//EN" "http://www.w3.org/Graphics/SVG/1.1/DTD/svg11.dtd">
<svg version="1.1" id="Layer_1" xmlns="http://www.w3.org/2000/svg" xmlns:xlink="http://www.w3.org/1999/xlink" x="0px" y="0px"
	 width="127.692px" height="46.077px" viewBox="242.736 370.522 127.692 46.077"
	 enable-background="new 242.736 370.522 127.692 46.077" xml:space="preserve">
<g>
	<g>
		<g>
			<polygon fill="#8C191C" points="282.042,389.462 287.56,389.462 284.833,381.478 			"/>
			<polygon fill="#8C191C" points="351.73,389.462 357.246,389.462 354.52,381.478 			"/>
			<path fill="#8C191C" d="M365.812,391.282l-6.683-18.094h-9.253l-4.906,13.277l-1.071-13.277h-9.874l-3.206,7.277l-3.203-7.277
				h-9.878l-0.267,3.219l-0.026,0.268l-0.129-0.149c-0.375-0.398-3.866-3.903-10.564-3.903c-6.509,0-11.889,4.062-13.859,9.846
				l-3.448-9.28h-9.252l-4.907,13.277l-1.07-13.277h-9.877l-3.206,7.276l-3.204-7.276h-9.876l-1.465,18.094h-1.752v10.705h6.979
				c2.7,0,4.617-1.355,5.366-3.469h7.986c0.782,2.285,2.66,3.469,5.283,3.469h6.883c2.756,0,4.441-1.168,5.555-3.812
				c0.066-0.158,0.785-1.918,0.785-1.918h2.256l0.497,1.473c1.013,2.853,2.913,4.257,5.977,4.257h29.095
				c2.703,0,4.621-1.355,5.368-3.469h7.986c0.782,2.285,2.661,3.469,5.284,3.469h7.245c2.891,0,4.654-1.382,5.566-4.302l0.41-1.428
				h2.256l0.496,1.472c1.015,2.854,2.915,4.258,5.978,4.258h6.237v-10.705L365.812,391.282L365.812,391.282z M273.915,398.35h-3.464
				c-1.441,0-1.93-0.613-2.054-2.085l-0.765-13.057l-4.875,11.402h-3.248l-4.874-11.433l-0.736,13.087
				c-0.123,1.472-0.644,2.085-2.084,2.085h-3.465v-3.402h0.95c0.431,0,0.645-0.245,0.676-0.674l1.411-17.687h4.168l5.546,13.272
				h0.062l5.549-13.272h4.168l1.41,17.687c0.029,0.429,0.243,0.674,0.672,0.674h0.952L273.915,398.35L273.915,398.35z
				 M294.793,398.35h-2.391c-1.533,0-2.083-0.396-2.575-1.777l-1.348-3.798h-7.356l-1.349,3.798
				c-0.491,1.382-1.013,1.777-2.545,1.777h-2.421v-3.401h0.491c0.522,0,0.768-0.122,0.951-0.674l6.466-17.687h4.199l6.438,17.687
				c0.184,0.552,0.429,0.674,0.951,0.674h0.489V398.35z M316.132,398.35h-3.433v-1.041c0-0.461,0.033-0.92,0.033-0.92h-0.064
				c0,0-2.328,2.329-6.405,2.329c-5.701,0-10.575-4.352-10.575-11.372c0-6.254,4.752-11.126,11.064-11.126
				c5.334,0,7.94,2.758,7.94,2.758l-2.271,2.882c0,0-2.269-1.932-5.579-1.932c-3.768,0-6.988,2.973-6.988,7.388
				c0,4.751,3.249,7.662,7.144,7.662c3.462,0,5.516-2.267,5.516-2.267v-1.625c0-0.46-0.244-0.674-0.673-0.674h-1.316v-3.402h3.523
				c1.471,0,2.083,0.612,2.083,2.054V398.35L316.132,398.35z M343.6,398.35h-3.462c-1.438,0-1.931-0.613-2.055-2.085l-0.765-13.057
				l-4.874,11.402h-3.25l-4.874-11.433l-0.735,13.087c-0.121,1.472-0.644,2.085-2.087,2.085h-3.459v-3.402h0.948
				c0.43,0,0.645-0.245,0.674-0.674l1.411-17.687h4.17l5.549,13.272h0.058l5.55-13.272h4.169l1.411,17.687
				c0.027,0.429,0.244,0.674,0.671,0.674h0.95V398.35L343.6,398.35z M364.48,398.35h-2.393c-1.532,0-2.083-0.396-2.574-1.777
				l-1.349-3.798h-7.355l-1.35,3.798c-0.49,1.382-1.013,1.777-2.545,1.777h-2.421v-3.401h0.491c0.521,0,0.767-0.122,0.949-0.674
				l6.467-17.687h4.199l6.438,17.687c0.185,0.552,0.43,0.674,0.952,0.674h0.489L364.48,398.35L364.48,398.35z"/>
		</g>
	</g>
	<g>
		<g>
			<polygon fill="#8C191C" points="368.182,389.729 366.894,389.729 366.448,388.522 366.962,388.333 367.276,389.182 
				368.182,389.182 			"/>
		</g>
		<g>
			<path fill="#8C191C" d="M365.602,386.231l-0.846-2.292l0.514-0.19l0.848,2.291L365.602,386.231z M363.91,381.649l-0.846-2.292
				l0.514-0.19l0.845,2.292L363.91,381.649z M362.217,377.066l-0.846-2.291l0.513-0.19l0.849,2.292L362.217,377.066z"/>
		</g>
		<g>
			<polygon fill="#8C191C" points="360.524,372.484 360.212,371.635 359.307,371.635 359.307,371.087 360.594,371.087 
				361.038,372.295 			"/>
		</g>
		<g>
			<path fill="#8C191C" d="M357.386,371.635h-1.923v-0.548h1.923V371.635z M353.543,371.635h-1.92v-0.548h1.92V371.635z"/>
		</g>
		<g>
			<polygon fill="#8C191C" points="348.482,372.484 347.969,372.295 348.414,371.087 349.701,371.087 349.701,371.635 
				348.797,371.635 			"/>
		</g>
		<g>
			
				<rect x="347.098" y="373.869" transform="matrix(-0.9383 -0.3458 0.3458 -0.9383 543.7288 846.4019)" fill="#8C191C" width="0.546" height="1.653"/>
		</g>
		<g>
			<polygon fill="#8C191C" points="345.954,379.328 345.765,377 346.249,376.947 346.279,376.958 346.311,376.955 346.312,376.97 
				346.763,377.137 			"/>
		</g>
		<g>
			
				<rect x="345.12" y="374.431" transform="matrix(-0.0794 -0.9968 0.9968 -0.0794 -0.1887 749.2368)" fill="#8C191C" width="1.513" height="0.549"/>
		</g>
		<g>
			<polygon fill="#8C191C" points="345.4,372.476 345.332,371.635 344.489,371.635 344.489,371.087 345.838,371.087 
				345.946,372.432 			"/>
		</g>
		<g>
			<path fill="#8C191C" d="M342.378,371.635h-2.111v-0.548h2.111V371.635z M338.153,371.635h-2.11v-0.548h2.11V371.635z"/>
		</g>
		<g>
			<polygon fill="#8C191C" points="332.644,372.475 332.142,372.253 332.656,371.087 333.931,371.087 333.931,371.635 
				333.012,371.635 			"/>
		</g>
		<g>
			<polygon fill="#8C191C" points="330.82,376.613 330.128,375.042 330.629,374.82 330.82,375.254 331.012,374.82 331.512,375.042 
							"/>
		</g>
		<g>
			<polygon fill="#8C191C" points="328.996,372.475 328.628,371.635 327.712,371.635 327.712,371.087 328.985,371.087 
				329.499,372.254 			"/>
		</g>
		<g>
			<path fill="#8C191C" d="M325.599,371.635h-2.109v-0.548h2.109V371.635z M321.376,371.635h-2.112v-0.548h2.112V371.635z"/>
		</g>
		<g>
			<path fill="#8C191C" d="M316.146,373.62l-0.378-0.222c-0.292-0.172-0.604-0.344-0.942-0.513l0.245-0.49
				c0.208,0.104,0.406,0.21,0.601,0.316l0.133-1.624h1.35v0.548h-0.844L316.146,373.62z"/>
		</g>
		<g>
			<path fill="#8C191C" d="M295.401,375.611l-0.383-0.392c0.515-0.502,1.065-0.975,1.639-1.403l0.328,0.438
				C296.431,374.669,295.898,375.125,295.401,375.611z M298.734,373.121l-0.268-0.479c0.624-0.349,1.279-0.66,1.948-0.926
				l0.202,0.51C299.97,372.483,299.337,372.783,298.734,373.121z M312.903,372.073c-0.647-0.226-1.324-0.417-2.012-0.567
				l0.117-0.535c0.709,0.155,1.406,0.352,2.074,0.586L312.903,372.073z M302.602,371.583l-0.135-0.531
				c0.693-0.176,1.406-0.31,2.12-0.397l0.066,0.544C303.962,371.283,303.272,371.413,302.602,371.583z M308.83,371.176
				c-0.675-0.07-1.374-0.105-2.078-0.106l-0.013-0.548c0.734,0,1.452,0.037,2.146,0.108L308.83,371.176z"/>
		</g>
		<g>
			<path fill="#8C191C" d="M293.07,378.488l-0.567-1.526l0.514-0.191l0.2,0.538c0.115-0.158,0.232-0.314,0.352-0.467l0.432,0.337
				c-0.219,0.281-0.43,0.57-0.632,0.869L293.07,378.488z"/>
		</g>
		<g>
			
				<rect x="291.11" y="374.35" transform="matrix(-0.3484 -0.9373 0.9373 -0.3484 42.4682 778.7684)" fill="#8C191C" width="1.592" height="0.548"/>
		</g>
		<g>
			<polygon fill="#8C191C" points="290.838,372.484 290.523,371.635 289.618,371.635 289.618,371.087 290.904,371.087 
				291.353,372.294 			"/>
		</g>
		<g>
			<path fill="#8C191C" d="M287.698,371.635h-1.92v-0.548h1.92V371.635z M283.857,371.635h-1.92v-0.548h1.92V371.635z"/>
		</g>
		<g>
			<polygon fill="#8C191C" points="278.798,372.484 278.284,372.295 278.729,371.087 280.017,371.087 280.017,371.635 
				279.111,371.635 			"/>
		</g>
		<g>
			
				<rect x="277.413" y="373.877" transform="matrix(-0.9381 -0.3463 0.3463 -0.9381 408.4185 822.387)" fill="#8C191C" width="0.547" height="1.653"/>
		</g>
		<g>
			<polygon fill="#8C191C" points="276.268,379.329 276.08,377 276.564,376.948 276.594,376.959 276.626,376.956 276.627,376.971 
				277.078,377.138 			"/>
		</g>
		<g>
			
				<rect x="275.411" y="374.443" transform="matrix(-0.08 -0.9968 0.9968 -0.08 -75.2546 679.9778)" fill="#8C191C" width="1.514" height="0.548"/>
		</g>
		<g>
			<polygon fill="#8C191C" points="275.715,372.476 275.647,371.635 274.805,371.635 274.805,371.087 276.153,371.087 
				276.262,372.432 			"/>
		</g>
		<g>
			<path fill="#8C191C" d="M272.692,371.635h-2.112v-0.548h2.112V371.635z M268.468,371.635h-2.113v-0.548h2.113V371.635z"/>
		</g>
		<g>
			<polygon fill="#8C191C" points="262.957,372.475 262.456,372.253 262.969,371.087 264.244,371.087 264.244,371.635 
				263.327,371.635 			"/>
		</g>
		<g>
			<polygon fill="#8C191C" points="261.133,376.612 260.441,375.041 260.943,374.82 261.133,375.253 261.325,374.82 
				261.827,375.041 			"/>
		</g>
		<g>
			<polygon fill="#8C191C" points="259.312,372.475 258.942,371.635 258.025,371.635 258.025,371.087 259.299,371.087 
				259.812,372.254 			"/>
		</g>
		<g>
			<path fill="#8C191C" d="M255.913,371.635h-2.112v-0.548h2.112V371.635z M251.689,371.635h-2.113v-0.548h2.113V371.635z"/>
		</g>
		<g>
			<polygon fill="#8C191C" points="246.554,372.476 246.008,372.432 246.117,371.087 247.465,371.087 247.465,371.635 
				246.622,371.635 			"/>
		</g>
		<g>
			<path fill="#8C191C" d="M245.449,386.112l-0.546-0.044l0.184-2.273l0.546,0.044L245.449,386.112z M245.817,381.567l-0.546-0.044
				l0.184-2.272l0.546,0.044L245.817,381.567z M246.185,377.021l-0.546-0.045l0.185-2.272l0.545,0.044L246.185,377.021z"/>
		</g>
		<g>
			<polygon fill="#8C191C" points="243.284,390.551 242.736,390.551 242.736,389.182 244.651,389.182 244.72,388.341 
				245.266,388.385 245.157,389.729 243.284,389.729 			"/>
		</g>
		<g>
			<path fill="#8C191C" d="M243.284,400.284h-0.548v-2.436h0.548V400.284z M243.284,395.417h-0.548v-2.433h0.548V395.417z"/>
		</g>
		<g>
			<polygon fill="#8C191C" points="244.106,404.087 242.736,404.087 242.736,402.717 243.284,402.717 243.284,403.539 
				244.106,403.539 			"/>
		</g>
		<g>
			<path fill="#8C191C" d="M251.816,404.087h-1.556v-0.548h1.556c0.162,0,0.323-0.004,0.481-0.012l0.029,0.546
				C252.158,404.082,251.988,404.087,251.816,404.087z M248.209,404.087h-2.052v-0.548h2.052V404.087z M254.408,403.721
				l-0.157-0.524c0.646-0.193,1.248-0.47,1.789-0.817l0.297,0.459C255.752,403.215,255.104,403.513,254.408,403.721z"/>
		</g>
		<g>
			<path fill="#8C191C" d="M257.93,401.417l-0.423-0.347c0.221-0.269,0.422-0.559,0.599-0.862l0.079-0.137h1.254v0.548h-0.94
				C258.326,400.9,258.135,401.169,257.93,401.417z"/>
		</g>
		<g>
			<rect x="260.59" y="400.071" fill="#8C191C" width="1.151" height="0.548"/>
		</g>
		<g>
			<path fill="#8C191C" d="M264.385,401.424c-0.201-0.251-0.387-0.521-0.555-0.805h-0.937v-0.548h1.256l0.078,0.14
				c0.173,0.311,0.371,0.604,0.585,0.873L264.385,401.424z"/>
		</g>
		<g>
			<path fill="#8C191C" d="M275.958,404.087h-2.02v-0.548h2.02V404.087z M271.918,404.087h-1.467c-0.191,0-0.381-0.005-0.567-0.016
				l0.03-0.547c0.177,0.01,0.356,0.015,0.538,0.015h1.467L271.918,404.087L271.918,404.087z M277.995,404.066l-0.034-0.547
				c0.686-0.041,1.331-0.155,1.919-0.341l0.164,0.523C279.414,403.9,278.724,404.023,277.995,404.066z M267.833,403.72
				c-0.688-0.207-1.326-0.502-1.897-0.88l0.302-0.457c0.527,0.348,1.117,0.62,1.754,0.812L267.833,403.72z M281.927,402.79
				l-0.312-0.451c0.516-0.356,0.989-0.804,1.407-1.325l0.428,0.343C283,401.919,282.488,402.401,281.927,402.79z"/>
		</g>
		<g>
			<path fill="#8C191C" d="M284.931,399.588c-0.065-0.133-0.128-0.269-0.188-0.409c-0.061,0.14-0.123,0.272-0.187,0.403
				l-0.493-0.239c0.089-0.183,0.175-0.37,0.256-0.563l0.441-1.075l0.244,0.658c0.128,0.345,0.269,0.678,0.419,0.986L284.931,399.588
				z"/>
		</g>
		<g>
			<path fill="#8C191C" d="M321.498,404.087h-1.863v-0.548l2.123-0.003l0.013,0.547L321.498,404.087z M317.507,404.087h-2.129
				v-0.548h2.129V404.087z M313.251,404.087h-2.129v-0.548h2.129V404.087z M308.995,404.087h-2.13v-0.548h2.13V404.087z
				 M304.738,404.087h-2.128v-0.548h2.128V404.087z M300.481,404.087h-2.128v-0.548h2.128V404.087z M296.225,404.087h-2.128v-0.548
				h2.128V404.087z M291.958,404.079c-0.766-0.03-1.494-0.138-2.162-0.32l0.144-0.526c0.628,0.171,1.314,0.271,2.039,0.3
				L291.958,404.079z M323.938,403.767l-0.146-0.526c0.676-0.188,1.304-0.465,1.87-0.82l0.292,0.463
				C325.342,403.267,324.664,403.564,323.938,403.767z M287.778,402.882c-0.616-0.389-1.174-0.876-1.659-1.449l0.418-0.353
				c0.449,0.528,0.964,0.979,1.533,1.338L287.778,402.882z"/>
		</g>
		<g>
			<path fill="#8C191C" d="M327.616,401.417l-0.424-0.347c0.223-0.271,0.425-0.562,0.599-0.862l0.08-0.137h1.253v0.548h-0.94
				C328.013,400.897,327.823,401.166,327.616,401.417z"/>
		</g>
		<g>
			<rect x="330.276" y="400.071" fill="#8C191C" width="1.15" height="0.548"/>
		</g>
		<g>
			<path fill="#8C191C" d="M334.071,401.424c-0.202-0.252-0.39-0.521-0.555-0.805h-0.938v-0.548h1.256l0.078,0.14
				c0.173,0.309,0.369,0.602,0.586,0.873L334.071,401.424z"/>
		</g>
		<g>
			<path fill="#8C191C" d="M345.636,404.087h-2.02v-0.548h2.02V404.087z M341.599,404.087h-1.461c-0.191,0-0.384-0.005-0.571-0.016
				l0.028-0.547c0.18,0.01,0.36,0.015,0.543,0.015h1.461V404.087z M347.661,404.083l-0.015-0.547
				c0.688-0.019,1.337-0.105,1.932-0.263l0.14,0.529C349.082,403.971,348.39,404.064,347.661,404.083z M337.516,403.72
				c-0.687-0.208-1.324-0.503-1.896-0.88l0.302-0.457c0.527,0.346,1.117,0.62,1.753,0.812L337.516,403.72z M351.643,402.982
				l-0.289-0.467c0.539-0.335,1.027-0.761,1.452-1.262l0.417,0.354C352.762,402.154,352.231,402.615,351.643,402.982z"/>
		</g>
		<g>
			<path fill="#8C191C" d="M354.355,399.843l-0.493-0.239c0.148-0.311,0.287-0.642,0.411-0.983l0.243-0.684l0.27,0.676
				c0.136,0.344,0.284,0.67,0.442,0.973l-0.484,0.255c-0.069-0.133-0.137-0.269-0.201-0.407
				C354.481,399.57,354.42,399.708,354.355,399.843z"/>
		</g>
		<g>
			<path fill="#8C191C" d="M366.818,404.087h-2.232v-0.548h2.232V404.087z M362.351,404.087h-0.262
				c-0.709,0-1.387-0.062-2.014-0.187l0.106-0.538c0.594,0.115,1.233,0.177,1.906,0.177h0.262L362.351,404.087L362.351,404.087z
				 M357.899,403.134c-0.682-0.362-1.297-0.839-1.833-1.408l0.398-0.376c0.495,0.528,1.064,0.966,1.692,1.303L357.899,403.134z"/>
		</g>
		<g>
			<polygon fill="#8C191C" points="370.428,404.087 369.058,404.087 369.058,403.539 369.879,403.539 369.879,402.717 
				370.428,402.717 			"/>
		</g>
		<g>
			<path fill="#8C191C" d="M370.428,400.284h-0.549v-2.436h0.549V400.284z M370.428,395.417h-0.549v-2.433h0.549V395.417z"/>
		</g>
		<g>
			<polygon fill="#8C191C" points="370.428,390.551 369.879,390.551 369.879,389.729 369.058,389.729 369.058,389.182 
				370.428,389.182 			"/>
		</g>
	</g>
	<polygon fill="#8C191C" points="306.582,408.603 307.734,410.938 310.312,411.312 308.447,413.129 308.886,415.696 
		306.582,414.484 304.277,415.696 304.717,413.129 302.852,411.312 305.43,410.938 	"/>
	<g>
		<path fill="#8C191C" d="M262.798,413.449v0.317c0,0.399-0.043,0.779-0.13,1.141c-0.086,0.358-0.229,0.674-0.429,0.942
			c-0.2,0.27-0.462,0.485-0.79,0.645c-0.326,0.161-0.729,0.24-1.208,0.24s-0.882-0.081-1.208-0.244
			c-0.326-0.163-0.589-0.392-0.789-0.683c-0.2-0.292-0.343-0.639-0.43-1.042c-0.086-0.401-0.129-0.843-0.129-1.321v-2.554
			c0-0.479,0.043-0.921,0.129-1.321c0.087-0.403,0.23-0.751,0.43-1.04c0.2-0.289,0.463-0.517,0.789-0.681
			c0.326-0.16,0.729-0.242,1.208-0.242c0.453,0,0.841,0.07,1.166,0.218c0.325,0.144,0.589,0.346,0.794,0.604
			c0.205,0.262,0.355,0.572,0.452,0.938c0.097,0.365,0.145,0.767,0.145,1.205h-1.279c0-0.318-0.021-0.6-0.065-0.838
			c-0.043-0.24-0.115-0.44-0.214-0.6c-0.1-0.16-0.231-0.28-0.395-0.359c-0.163-0.079-0.365-0.12-0.604-0.12
			c-0.239,0-0.441,0.041-0.604,0.12c-0.163,0.079-0.294,0.199-0.395,0.359c-0.1,0.158-0.172,0.358-0.215,0.6
			c-0.043,0.238-0.065,0.52-0.065,0.838v3.195c0,0.24,0.022,0.477,0.065,0.705c0.043,0.23,0.115,0.436,0.215,0.614
			c0.1,0.18,0.231,0.325,0.395,0.434c0.163,0.11,0.364,0.165,0.604,0.165c0.24,0,0.441-0.055,0.604-0.165
			c0.163-0.107,0.294-0.254,0.395-0.434c0.1-0.18,0.171-0.384,0.214-0.614c0.043-0.229,0.065-0.465,0.065-0.705v-0.317H262.798
			L262.798,413.449z"/>
		<path fill="#8C191C" d="M273.984,413.768c0,0.399-0.042,0.779-0.125,1.141c-0.083,0.358-0.223,0.674-0.419,0.942
			c-0.196,0.271-0.459,0.485-0.787,0.645c-0.328,0.161-0.737,0.24-1.226,0.24c-0.333,0-0.627-0.036-0.884-0.109
			s-0.479-0.176-0.667-0.305s-0.347-0.287-0.477-0.471c-0.13-0.182-0.234-0.384-0.313-0.604c-0.078-0.219-0.134-0.453-0.167-0.703
			c-0.033-0.251-0.05-0.508-0.05-0.775v-3.195c0-0.266,0.017-0.523,0.05-0.772c0.033-0.25,0.089-0.484,0.167-0.705
			c0.079-0.219,0.183-0.421,0.313-0.604c0.129-0.184,0.289-0.34,0.477-0.469c0.188-0.132,0.41-0.232,0.667-0.306
			c0.256-0.075,0.551-0.109,0.884-0.109c0.489,0,0.898,0.079,1.226,0.237c0.328,0.161,0.59,0.376,0.787,0.646
			c0.197,0.27,0.336,0.584,0.419,0.942c0.083,0.359,0.125,0.738,0.125,1.139V413.768z M270.149,414.088
			c0,0.24,0.021,0.457,0.065,0.653c0.043,0.197,0.115,0.366,0.215,0.505c0.1,0.141,0.231,0.248,0.394,0.325
			c0.163,0.077,0.365,0.114,0.604,0.114c0.24,0,0.441-0.037,0.604-0.114c0.163-0.077,0.295-0.186,0.395-0.325
			c0.1-0.139,0.171-0.308,0.214-0.505c0.043-0.196,0.065-0.413,0.065-0.653v-3.835c0-0.239-0.022-0.457-0.065-0.655
			c-0.043-0.195-0.114-0.362-0.214-0.504c-0.1-0.14-0.232-0.247-0.395-0.324c-0.163-0.075-0.365-0.114-0.604-0.114
			c-0.239,0-0.441,0.039-0.604,0.114c-0.163,0.077-0.294,0.186-0.394,0.324c-0.1,0.142-0.172,0.309-0.215,0.504
			c-0.043,0.198-0.065,0.416-0.065,0.655V414.088z"/>
		<path fill="#8C191C" d="M283.782,416.646l-2.287-5.954v5.954h-1.278v-8.949h0.839l2.357,5.843v-5.843h1.279v8.949H283.782z"/>
		<path fill="#8C191C" d="M294.599,408.654h-2.237v2.877h1.598v0.959h-1.598v4.154h-1.279v-8.948h3.516V408.654z"/>
	</g>
	<g>
		<path fill="#8C191C" d="M318.903,410.527v-0.319c0-0.4,0.042-0.763,0.125-1.089s0.216-0.605,0.395-0.835
			c0.18-0.229,0.411-0.407,0.694-0.534c0.282-0.126,0.624-0.189,1.022-0.189c0.4,0,0.74,0.062,1.023,0.185
			c0.283,0.124,0.515,0.29,0.694,0.5c0.181,0.21,0.312,0.458,0.394,0.74c0.084,0.281,0.126,0.585,0.126,0.902
			c0,0.24-0.021,0.464-0.058,0.673c-0.038,0.212-0.099,0.416-0.178,0.618c-0.081,0.202-0.181,0.404-0.3,0.609
			c-0.12,0.204-0.263,0.423-0.424,0.656l-2.238,2.877h3.196v1.277h-4.479v-1.277l2.242-3.196c0.228-0.322,0.404-0.6,0.531-0.831
			c0.128-0.23,0.225-0.433,0.288-0.603c0.062-0.169,0.103-0.318,0.116-0.443c0.016-0.127,0.022-0.247,0.022-0.36
			c0-0.158-0.021-0.314-0.06-0.469c-0.041-0.153-0.102-0.29-0.18-0.41c-0.079-0.119-0.182-0.216-0.301-0.29
			c-0.119-0.072-0.261-0.108-0.42-0.108c-0.158,0-0.3,0.038-0.42,0.113c-0.119,0.078-0.219,0.187-0.3,0.325
			c-0.079,0.142-0.14,0.31-0.179,0.505c-0.04,0.196-0.062,0.415-0.062,0.654v0.319H318.903L318.903,410.527z"/>
		<path fill="#8C191C" d="M331.848,416.689c-0.287,0-0.564-0.05-0.834-0.146c-0.271-0.098-0.509-0.255-0.718-0.468
			c-0.208-0.213-0.373-0.487-0.499-0.822c-0.125-0.333-0.187-0.737-0.187-1.209v-3.836c0-0.404,0.04-0.747,0.122-1.034
			c0.082-0.286,0.188-0.527,0.317-0.724c0.128-0.197,0.275-0.354,0.438-0.47c0.162-0.117,0.328-0.207,0.494-0.27
			c0.167-0.064,0.324-0.104,0.478-0.124c0.15-0.019,0.279-0.027,0.387-0.027c0.106,0,0.235,0.01,0.388,0.027
			c0.15,0.021,0.311,0.06,0.476,0.124c0.168,0.062,0.333,0.151,0.496,0.27c0.162,0.115,0.31,0.271,0.439,0.47
			c0.129,0.194,0.233,0.438,0.315,0.724c0.081,0.287,0.123,0.63,0.123,1.034v3.836c0,0.472-0.062,0.876-0.188,1.209
			c-0.125,0.335-0.29,0.609-0.499,0.822c-0.206,0.213-0.445,0.37-0.718,0.468C332.411,416.641,332.133,416.689,331.848,416.689z
			 M331.848,415.641c0.142,0,0.262-0.026,0.363-0.079c0.104-0.054,0.189-0.124,0.26-0.21c0.07-0.088,0.128-0.188,0.173-0.301
			s0.079-0.229,0.104-0.347c0.023-0.117,0.038-0.234,0.046-0.351c0.009-0.113,0.013-0.218,0.013-0.311v-3.836
			c0-0.097-0.003-0.203-0.008-0.32c-0.005-0.115-0.018-0.232-0.039-0.352s-0.053-0.233-0.092-0.345
			c-0.04-0.112-0.096-0.21-0.169-0.298c-0.071-0.087-0.159-0.156-0.267-0.207c-0.106-0.053-0.233-0.077-0.385-0.077
			c-0.15,0-0.277,0.024-0.385,0.077c-0.105,0.051-0.196,0.12-0.268,0.207c-0.072,0.088-0.127,0.186-0.166,0.298
			c-0.04,0.11-0.072,0.226-0.096,0.345c-0.02,0.118-0.032,0.234-0.037,0.352c-0.006,0.117-0.009,0.225-0.009,0.32v3.836
			c0,0.093,0.005,0.196,0.014,0.311c0.008,0.115,0.023,0.232,0.047,0.351c0.022,0.118,0.058,0.233,0.102,0.347
			c0.046,0.113,0.104,0.213,0.173,0.301c0.07,0.086,0.156,0.156,0.261,0.21C331.586,415.613,331.708,415.641,331.848,415.641z"/>
		<path fill="#8C191C" d="M340.158,408.609c0.182-0.067,0.354-0.146,0.518-0.239c0.142-0.08,0.281-0.18,0.425-0.3
			c0.145-0.12,0.256-0.26,0.335-0.42h0.959v8.948h-1.277v-7.029h-0.958L340.158,408.609L340.158,408.609z"/>
		<path fill="#8C191C" d="M350.865,416.689c-0.4,0-0.743-0.062-1.025-0.187c-0.282-0.122-0.514-0.289-0.693-0.499
			c-0.181-0.21-0.312-0.456-0.396-0.739c-0.083-0.281-0.124-0.583-0.124-0.902v-0.318h1.277c0,0.318,0.021,0.581,0.062,0.788
			c0.038,0.205,0.101,0.37,0.179,0.489c0.08,0.12,0.181,0.202,0.301,0.25c0.12,0.046,0.26,0.068,0.421,0.068
			c0.158,0,0.299-0.022,0.418-0.068c0.12-0.048,0.221-0.13,0.3-0.25c0.079-0.119,0.141-0.284,0.18-0.489
			c0.04-0.207,0.062-0.47,0.062-0.788c0-0.24-0.022-0.459-0.066-0.656c-0.042-0.195-0.114-0.362-0.214-0.503
			s-0.232-0.249-0.395-0.325c-0.164-0.075-0.365-0.114-0.604-0.114v-1.278c0.238,0,0.439-0.022,0.604-0.064
			c0.161-0.044,0.295-0.113,0.395-0.214c0.1-0.102,0.172-0.231,0.214-0.396c0.044-0.162,0.066-0.363,0.066-0.604
			c0-0.238-0.021-0.439-0.062-0.604c-0.039-0.163-0.101-0.294-0.18-0.395c-0.079-0.1-0.18-0.173-0.3-0.216
			c-0.119-0.043-0.26-0.063-0.418-0.063c-0.161,0-0.301,0.021-0.421,0.069c-0.12,0.046-0.221,0.13-0.301,0.25
			c-0.078,0.119-0.141,0.282-0.179,0.489c-0.041,0.206-0.062,0.469-0.062,0.789h-1.277v-0.32c0-0.317,0.041-0.621,0.124-0.902
			c0.083-0.282,0.215-0.53,0.396-0.74s0.411-0.376,0.693-0.5c0.282-0.122,0.625-0.185,1.025-0.185c0.397,0,0.738,0.062,1.021,0.185
			c0.284,0.124,0.517,0.29,0.695,0.5s0.312,0.458,0.394,0.74c0.083,0.281,0.126,0.585,0.126,0.902c0,0.2-0.019,0.379-0.056,0.542
			c-0.036,0.161-0.085,0.307-0.144,0.433c-0.062,0.127-0.129,0.237-0.206,0.336c-0.076,0.096-0.155,0.179-0.234,0.248
			c-0.187,0.164-0.398,0.282-0.639,0.359c0.238,0.08,0.452,0.212,0.639,0.399c0.079,0.081,0.158,0.176,0.234,0.288
			c0.077,0.109,0.145,0.242,0.206,0.392c0.059,0.149,0.106,0.318,0.144,0.512c0.037,0.191,0.056,0.407,0.056,0.647
			c0,0.399-0.043,0.762-0.126,1.088c-0.082,0.326-0.214,0.604-0.394,0.833c-0.18,0.23-0.411,0.408-0.695,0.535
			C351.604,416.626,351.264,416.689,350.865,416.689z"/>
	</g>
</g>
</svg>
