<?xml version="1.0" encoding="utf-8"?>
<!-- Generator: Adobe Illustrator 17.1.0, SVG Export Plug-In . SVG Version: 6.00 Build 0)  -->
<!DOCTYPE svg PUBLIC "-//W3C//DTD SVG 1.1//EN" "http://www.w3.org/Graphics/SVG/1.1/DTD/svg11.dtd">
<svg version="1.1" id="Layer_1" xmlns="http://www.w3.org/2000/svg" xmlns:xlink="http://www.w3.org/1999/xlink" x="0px" y="0px"
	 viewBox="0 0 224.1 34" enable-background="new 0 0 224.1 34" xml:space="preserve">
<g>
	<g>
		<path fill="#392E2B" d="M44.3,33.4h-5.1V18l-4.4,9.4L30.5,18v15.4h-5V20.7l-1.1-1l1.1-1V6h5l4.4,9.4L39.3,6h5.1v12.7l1,1l-1,1
			V33.4z"/>
		<path fill="#392E2B" d="M51.8,33.4h-5.1V20.7l-1.1-1l1.1-1V6h5.1v12.7l1,1l-1,1V33.4z"/>
		<path fill="#392E2B" d="M58.8,4.1l2.4-4.7h6l-4.8,4.7H58.8z"/>
		<path fill="#392E2B" d="M68.4,33.4H55.3V20.7l-1.1-1l1.1-1V6h13.1v5h-8v6.1h6.9v5.1h-6.9v6.1h8.1V33.4z"/>
		<path fill="#392E2B" d="M70.9,20.7l-1-1l1-1V20.7z M87.1,33.4h-5.4l-4.3-11.1h-1.5v11.1h-5.1V6H83l3.2,2.9v10l-3.4,3.2L87.1,33.4z
			 M75.9,17.2h5.2v-6.1h-5.2V17.2z"/>
		<path fill="#392E2B" d="M105.1,30.5l-3.3,2.9h-9l-3.2-2.9v-9.8l-1.1-1l1.1-1V8.9L92.8,6h9l3.3,2.9v4.2h-5v-2.1h-5.4v7.6l1.1,1
			l-1.1,1v7.6h5.4v-2.2h5V30.5z"/>
		<path fill="#392E2B" d="M123.4,30.5l-3.3,2.9h-9.4l-3.2-2.9v-9.8l-1.1-1l1.1-1V8.9l3.2-2.9h9.4l3.3,2.9v9.8l1,1l-1,1V30.5z
			 M118.3,20.7l-1.1-1l1.1-1v-7.6h-5.8v7.6l1.1,1l-1.1,1v7.6h5.8V20.7z"/>
		<path fill="#392E2B" d="M138.3,33.4h-12.5V20.7l-1-1l1-1V6h5.1v12.7l1.1,1l-1.1,1v7.6h7.4V33.4z"/>
		<path fill="#392E2B" d="M153.9,33.4h-13.2V20.7l-1.1-1l1.1-1V6h13.1v5h-8v6.1h6.9v5.1h-6.9v6.1h8.1V33.4z"/>
		<path fill="#392E2B" d="M171.5,30.5l-3.2,2.9h-8.7l-3.3-2.9v-4.4h5v2.2h5.1v-6.1h-6.9l-3.3-2.9V8.9l3.3-2.9h8.7l3.2,2.9v4.2h-5
			v-2.1h-5.1v6.1h6.9l3.2,2.9V30.5z"/>
		<path fill="#392E2B" d="M185.8,27.3l-3.2-2.9L193.1,6h5v16.2h1.4v5h-1.4v6.1h-5.1v-0.8h0v-5.3H185.8z M189.7,22.2h3.4v-6
			L189.7,22.2z"/>
	</g>
	<polygon fill="#716259" points="7.5,10.5 9.9,15.2 15.1,16 11.3,19.7 12.2,24.9 7.5,22.4 2.9,24.9 3.8,19.7 0,16 5.2,15.2 	"/>
	<polygon fill="#716259" points="216.5,10.5 218.9,15.2 224.1,16 220.3,19.7 221.2,24.9 216.5,22.4 211.9,24.9 212.8,19.7 209,16 
		214.2,15.2 	"/>
</g>
</svg>
