<?xml version="1.0" encoding="utf-8"?>
<!-- Generator: Adobe Illustrator 16.0.0, SVG Export Plug-In . SVG Version: 6.00 Build 0)  -->
<!DOCTYPE svg PUBLIC "-//W3C//DTD SVG 1.1//EN" "http://www.w3.org/Graphics/SVG/1.1/DTD/svg11.dtd">
<svg version="1.1" id="Layer_1" xmlns="http://www.w3.org/2000/svg" xmlns:xlink="http://www.w3.org/1999/xlink" x="0px" y="0px"
	 width="632px" height="237.25px" viewBox="0 0 632 237.25" enable-background="new 0 0 632 237.25" xml:space="preserve">
<g id="Layer_1_1_" display="none">
</g>
<g id="Layer_3" display="none">
	<rect x="-1256" y="-38" display="inline" opacity="0.6" enable-background="new    " width="1472" height="1878"/>
</g>
<g>
	<path fill="#FFFFFF" d="M140.557,99.885c-1.985-2.695-3.05-5.533-4.539-9.576c0.284,4.115,0.496,7.447-0.213,9.576
		c1.915,1.844,2.837,3.332,3.617,4.965h0.213C139.564,103.217,139.777,101.374,140.557,99.885z"/>
	<path fill="#FFFFFF" d="M158.855,117.969V93.43c0-3.332,0.852-5.393,2.27-5.676l2.27-0.354v-4.043h-15.532l-4.185,21.771
		l-4.396-21.771h-15.888V87.4l2.27,0.354c1.418,0.283,2.27,2.344,2.27,5.676v24.539c0,3.264-0.568,5.318-2.27,5.674l-2.27,0.354
		v4.043h12.979v-4.043l-1.561-0.354c-1.773-0.426-2.34-2.41-2.34-5.674V93.43h0.142l6.809,34.609h4.61l6.737-34.609h0.142v24.539
		c0,3.264-0.567,5.248-2.34,5.674l-1.561,0.354v4.043h16.454v-4.043l-2.27-0.354C159.423,123.29,158.855,121.232,158.855,117.969z
		 M141.834,120.025c-1.348-5.886-2.624-9.146-3.972-11.63c0.922-1.275,1.561-2.553,1.561-3.477c-1.206-0.566-2.411-0.566-3.263,0
		l-2.34-11.631c-0.213-1.062-0.639-2.129-1.49-2.129c-0.779,0-1.063,1.062-1.063,2.129v11.631c-0.638-0.566-1.489-0.566-2.057,0
		V93.43c0-5.393-1.489-6.736-2.767-7.021l-1.844-0.283v-1.561h13.476l4.042,20.354c-0.638-0.566-1.631-0.566-2.481,0
		c0.354,0.924,1.206,2.127,2.624,3.477C141.763,110.879,141.621,113.928,141.834,120.025z M157.579,104.92
		c-0.71-0.566-1.702-0.566-2.554,0c0.355,0.924,1.135,2.41,2.199,3.477c-1.064,2.34-1.844,5.605-2.341,11.63
		c-0.496-6.024-1.276-9.292-2.341-11.63c1.064-1.062,1.845-2.553,2.199-3.477c-0.993-0.566-1.915-0.566-2.624,0V93.29
		c0-1.062-0.284-2.129-1.063-2.129c-0.923,0-1.277,1.064-1.561,2.129l-2.199,11.631c-0.639-0.566-1.418-0.566-2.127,0l3.9-20.354
		h13.121v1.561l-1.845,0.283c-1.276,0.283-2.766,1.631-2.766,7.021v11.488H157.579L157.579,104.92z"/>
	<path fill="#FFFFFF" d="M152.543,99.885c1.064,1.062,1.845,2.48,2.199,4.965h0.283c0.355-2.482,1.135-3.902,2.128-4.965
		c-0.993-1.703-1.772-4.258-2.27-9.576C154.387,95.629,153.607,98.182,152.543,99.885z"/>
	<path fill="#FFFFFF" d="M200.127,115.772l-8.368-32.412h-6.596l-8.156,30.143c-1.985,7.306-3.191,9.435-4.965,10l-1.56,0.496v4.043
		h15.035v-4.043l-1.844-0.496c-1.561-0.565-2.625-3.617-1.561-7.803l0.567-2.127h8.581l0.497,2.127
		c1.135,5.393,0.284,7.233-1.561,7.803l-1.844,0.496v4.043h17.446v-4.043l-1.985-0.778
		C202.609,122.793,201.404,120.736,200.127,115.772z M184.311,107.26l2.979-10.854h0.283l2.34,10.854H184.311z M191.688,108.395
		c0.709-1.064,1.49-2.553,1.561-3.477c-1.064-0.566-1.986-0.566-2.553,0l-3.051-14.111h-0.141l-3.83,14.111
		c-0.852-0.566-1.844-0.566-2.908,0l5.461-20.354h4.469l5.318,20.354c-0.851-0.566-1.701-0.566-2.553,0
		c0.426,0.924,1.561,2.41,2.766,3.477c-0.354,2.908-0.496,5.887,0.355,11.63C194.737,114.282,193.602,111.659,191.688,108.395z"/>
	<path fill="#FFFFFF" d="M194.17,99.885c-1.276-1.703-2.34-4.258-4.256-9.576c0.639,5.32,0.568,7.873,0.213,9.576
		c1.064,1.062,2.057,2.48,3.121,4.965h0.213C193.461,102.368,193.744,100.948,194.17,99.885z"/>
	<path fill="#FFFFFF" d="M231.967,99.459c-1.914-2.27-3.617-5.035-6.027-9.717c1.347,4.752,1.844,7.66,1.418,10.143
		c1.631,1.062,2.766,2.482,4.326,4.967h0.213C231.896,102.368,231.896,100.948,231.967,99.459z"/>
	<path fill="#FFFFFF" d="M234.094,87.403l2.27,0.354c1.419,0.283,2.27,2.342,2.27,5.676v15.391h-0.071l-9.361-25.463h-15.888v4.043
		l2.27,0.354c1.418,0.281,2.27,2.34,2.27,5.674v24.539c0,3.261-0.567,5.318-2.27,5.673l-2.27,0.354v4.043h12.979V124l-1.56-0.354
		c-1.773-0.429-2.341-2.41-2.341-5.674v-24.54h0.143l12.411,34.609h8.227V93.432c0-3.334,0.852-5.393,2.341-5.674l2.198-0.355V83.36
		h-13.618L234.094,87.403L234.094,87.403z M230.761,108.395c0.567-1.275,0.922-2.553,0.922-3.477c-1.489-0.566-2.624-0.566-3.475,0
		l-4.256-11.701c-0.426-1.275-0.852-2.059-1.773-2.059c-0.851,0-0.992,1.064-0.992,2.129v11.633c-0.639-0.568-1.49-0.568-2.057,0
		V93.43c0-5.393-1.49-6.736-2.767-7.021l-1.844-0.281v-1.562h13.617l7.446,20.355c-1.348-0.568-2.553-0.568-3.688,0
		c0.709,0.922,1.773,2.127,3.262,3.475c0.143,2.482,0.568,5.533,1.773,11.631C234.236,114.139,232.392,110.879,230.761,108.395z
		 M235.301,84.565h11.205v1.561l-1.844,0.283c-1.276,0.285-2.766,1.631-2.766,7.021v11.488c-0.426-0.564-1.489-0.564-1.986,0V93.43
		c0-5.393-1.488-6.736-2.766-7.021l-1.844-0.283L235.301,84.565L235.301,84.565z"/>
	<path fill="#FFFFFF" d="M256.642,97.829h4.469v-3.83c0-3.477,1.773-5.105,6.738-5.105h3.333c1.205,0,2.127,0.566,2.127,1.488
		c0,0.854-0.213,1.846-0.852,2.979L255.365,124v4.043h29.93v-14.539h-4.469v3.9c0,3.405-1.701,5.038-6.667,5.038h-4.681
		c-1.135,0-2.199-0.567-2.199-1.489c0-1.063,0.284-2.271,0.78-3.049l17.234-30.498V83.36H256.64L256.642,97.829L256.642,97.829z
		 M257.848,84.565h26.241v2.34l-10.213,18.016c-0.709-0.566-1.701-0.566-2.979,0c-0.07,1.205,0.07,2.342,0.355,3.477
		c-3.405,3.898-6.312,7.803-8.938,11.631c1.703-3.828,3.051-7.729,4.327-11.631c1.631-1.135,2.907-2.271,4.042-3.477
		c-0.991-0.566-2.057-0.566-3.19,0l5.958-10.779c0.639-1.062,1.206-2.342,1.206-3.76c0-1.631-1.276-2.695-3.334-2.695h-3.475
		c-5.674,0-8.015,1.773-8.015,6.312v2.623h-1.986L257.848,84.565L257.848,84.565z"/>
	<path fill="#FFFFFF" d="M267.849,96.125c-0.994,0-1.845,1.137-1.845,3.264v2.48l2.554-4.395
		C268.913,96.764,268.771,96.125,267.849,96.125z"/>
	<path fill="#FFFFFF" d="M270.685,104.85h0.214c1.489-1.703,3.05-3.334,4.965-4.965c0.567-3.191,1.418-6.385,2.481-9.576
		c-2.057,3.191-4.185,6.385-7.021,9.576C271.394,101.516,271.183,103.147,270.685,104.85z"/>
	<path fill="#FFFFFF" d="M277.778,120.383c0.993,0,1.844-1.137,1.844-3.264v-2.48l-2.554,4.395
		C276.716,119.743,276.856,120.383,277.778,120.383z"/>
	<path fill="#FFFFFF" d="M323.165,115.772l-8.369-32.412H308.2l-8.156,30.143c-1.984,7.306-3.191,9.435-4.965,10l-1.561,0.496v4.043
		h15.035v-4.043l-1.844-0.496c-1.561-0.565-2.625-3.617-1.561-7.803l0.566-2.127h8.582l0.496,2.127
		c1.135,5.393,0.284,7.233-1.561,7.803l-1.846,0.496v4.043h17.447v-4.043l-1.985-0.778
		C325.646,122.793,324.441,120.736,323.165,115.772z M307.349,107.26l2.979-10.854h0.283l2.34,10.854H307.349z M314.724,108.395
		c0.709-1.064,1.49-2.553,1.562-3.477c-1.063-0.566-1.985-0.566-2.553,0l-3.054-14.111h-0.142l-3.829,14.111
		c-0.853-0.566-1.845-0.566-2.908,0l5.461-20.354h4.471l5.314,20.354c-0.852-0.566-1.701-0.566-2.553,0
		c0.426,0.924,1.561,2.41,2.766,3.477c-0.354,2.908-0.496,5.887,0.354,11.63C317.773,114.282,316.641,111.659,314.724,108.395z"/>
	<path fill="#FFFFFF" d="M317.207,99.885c-1.276-1.703-2.34-4.258-4.256-9.576c0.64,5.32,0.565,7.873,0.213,9.576
		c1.062,1.062,2.058,2.48,3.121,4.965h0.213C316.498,102.368,316.781,100.948,317.207,99.885z"/>
	<path fill="#FFFFFF" d="M355.005,99.459c-1.914-2.27-3.616-5.035-6.028-9.717c1.352,4.752,1.849,7.66,1.423,10.143
		c1.631,1.062,2.766,2.482,4.323,4.967h0.213C354.934,102.368,354.934,100.948,355.005,99.459z"/>
	<path fill="#FFFFFF" d="M357.132,87.403l2.271,0.354c1.42,0.283,2.271,2.342,2.271,5.676v15.391h-0.067l-9.361-25.463h-15.889
		v4.043l2.271,0.354c1.419,0.281,2.271,2.34,2.271,5.674v24.539c0,3.261-0.566,5.318-2.271,5.673L336.355,124v4.043h12.979V124
		l-1.561-0.354c-1.772-0.429-2.343-2.41-2.343-5.674v-24.54h0.145l12.411,34.609h8.228V93.432c0-3.334,0.854-5.393,2.343-5.674
		l2.196-0.355V83.36h-13.618v4.043H357.132L357.132,87.403z M353.8,108.395c0.566-1.275,0.923-2.553,0.923-3.477
		c-1.487-0.566-2.625-0.566-3.478,0l-4.255-11.701c-0.426-1.275-0.854-2.059-1.772-2.059c-0.852,0-0.991,1.064-0.991,2.129v11.633
		c-0.64-0.568-1.487-0.568-2.06,0V93.43c0-5.393-1.487-6.736-2.767-7.021l-1.845-0.281v-1.562h13.615l7.445,20.355
		c-1.351-0.568-2.554-0.568-3.688,0c0.709,0.922,1.771,2.127,3.265,3.475c0.142,2.482,0.565,5.533,1.771,11.631
		C357.273,114.139,355.43,110.879,353.8,108.395z M358.339,84.565h11.205v1.561l-1.845,0.283c-1.276,0.285-2.769,1.631-2.769,7.021
		v11.488c-0.428-0.564-1.487-0.564-1.983,0V93.43c0-5.393-1.489-6.736-2.769-7.021l-1.846-0.283v-1.561H358.339L358.339,84.565z"/>
	<path fill="#FFFFFF" d="M390.814,117.969V93.43c0-3.332,0.852-5.393,2.271-5.676l2.271-0.354v-4.043h-17.095V87.4l2.271,0.354
		c1.419,0.283,2.271,2.344,2.271,5.676v24.539c0,3.264-0.565,5.318-2.271,5.674l-2.271,0.354v4.043h17.161v-4.043l-2.271-0.354
		C391.384,123.29,390.814,121.232,390.814,117.969z M389.539,104.92c-0.71-0.566-1.702-0.566-2.625,0
		c0.427,0.924,1.206,2.41,2.271,3.477c-1.062,2.34-1.846,5.605-2.34,11.63c-0.498-6.024-1.276-9.292-2.344-11.63
		c1.062-1.062,1.846-2.553,2.198-3.477c-0.992-0.566-1.914-0.566-2.624,0V93.432c0-5.393-1.488-6.736-2.769-7.021l-1.845-0.281
		v-1.562h14.683v1.562l-1.846,0.281c-1.272,0.285-2.767,1.633-2.767,7.021L389.539,104.92L389.539,104.92z"/>
	<path fill="#FFFFFF" d="M384.503,99.885c1.063,1.062,1.845,2.48,2.198,4.965h0.213c0.427-2.482,1.206-3.902,2.271-4.965
		c-1.062-1.703-1.846-4.258-2.34-9.576C386.348,95.629,385.566,98.182,384.503,99.885z"/>
	<path fill="#FFFFFF" d="M428.262,117.403c0,3.404-1.772,5.035-6.737,5.035c-5.179,0-6.171-2.271-6.171-6.312V93.432
		c0-3.334,0.853-5.393,2.271-5.676l2.271-0.354V83.36H402.8v4.043l2.271,0.354c1.42,0.283,2.271,2.342,2.271,5.676v24.539
		c0,3.264-0.562,5.318-2.271,5.674L402.8,124v4.043h29.934v-14.539h-4.472V117.403L428.262,117.403z M414.074,104.92
		c-0.709-0.566-1.701-0.566-2.624,0c0.426,0.924,1.206,2.41,2.271,3.477c-1.062,2.34-1.845,5.605-2.341,11.63
		c-0.496-6.024-1.271-9.292-2.341-11.63c1.062-1.062,1.845-2.553,2.199-3.477c-0.993-0.566-1.916-0.566-2.625,0V93.432
		c0-5.393-1.489-6.736-2.769-7.021L404,86.13v-1.562h14.684v1.562l-1.846,0.281c-1.272,0.285-2.768,1.633-2.768,7.021
		L414.074,104.92L414.074,104.92z"/>
	<path fill="#FFFFFF" d="M409.039,99.885c1.062,1.062,1.845,2.48,2.199,4.965h0.212c0.426-2.482,1.206-3.902,2.271-4.965
		c-1.062-1.703-1.845-4.258-2.341-9.576C410.884,95.629,410.104,98.182,409.039,99.885z"/>
	<path fill="#FFFFFF" d="M465.773,117.403c0,3.404-1.773,5.035-6.738,5.035c-5.178,0-6.17-2.271-6.17-6.312V93.432
		c0-3.334,0.851-5.393,2.271-5.676l2.271-0.354V83.36h-17.095v4.043l2.271,0.354c1.419,0.283,2.271,2.342,2.271,5.676v24.539
		c0,3.264-0.565,5.318-2.271,5.674L440.312,124v4.043h29.932v-14.539h-4.469L465.773,117.403L465.773,117.403z M451.589,104.92
		c-0.709-0.566-1.7-0.566-2.625,0c0.427,0.924,1.207,2.41,2.271,3.477c-1.062,2.34-1.847,5.605-2.343,11.63
		c-0.493-6.024-1.272-9.292-2.34-11.63c1.062-1.062,1.847-2.553,2.198-3.477c-0.994-0.566-1.916-0.566-2.625,0V93.432
		c0-5.393-1.489-6.736-2.767-7.021l-1.847-0.281v-1.562h14.683v1.562l-1.845,0.281c-1.274,0.285-2.77,1.633-2.77,7.021v11.488
		H451.589z"/>
	<path fill="#FFFFFF" d="M446.553,99.885c1.063,1.062,1.847,2.48,2.198,4.965h0.213c0.427-2.482,1.205-3.902,2.271-4.965
		c-1.062-1.703-1.845-4.258-2.341-9.576C448.396,95.629,447.617,98.182,446.553,99.885z"/>
	<path fill="#FFFFFF" d="M485.061,90.309c-1.982,3.404-3.049,6.172-3.897,9.504c0.992,1.135,1.771,2.48,2.197,4.965h0.214
		c0.354-2.48,1.206-3.83,2.195-4.965C484.493,97.049,484.493,94.139,485.061,90.309z"/>
	<path fill="#FFFFFF" d="M493.357,82.864c-8.864,0-14.685,7.658-14.685,16.027l-0.067,13.547
		c-0.069,9.646,5.888,16.029,14.752,16.029c8.938,0,14.752-7.59,14.683-16.525V98.891C507.968,90.026,502.225,82.864,493.357,82.864
		z M498.395,114.211c0,4.822-0.854,9.717-5.034,9.717c-4.257,0-5.034-4.539-5.034-9.717V95.346c0-3.973,0.777-7.871,5.034-7.871
		c4.186,0,5.034,3.898,5.034,7.871V114.211z M506.764,104.92c-0.641-0.566-2.06-0.566-3.478,0c0.496,0.924,1.205,2.342,2.198,3.477
		c-0.429,2.625-0.993,6.523-3.265,11.63c0.495-5.104-0.282-9.292-1.35-11.63c1.062-1.135,1.845-2.553,2.197-3.477
		c-1.418-0.566-2.836-0.566-3.403,0v-9.572c0-6.881-2.692-9.15-6.312-9.15c-3.688,0-6.383,2.271-6.383,9.15v9.572
		c-0.565-0.566-1.983-0.566-3.403,0c0.354,0.924,1.206,2.342,2.196,3.477c-0.99,2.34-2.196,6.811-1.274,11.63
		c-1.845-5.032-2.836-9.218-3.332-11.63c0.991-1.135,1.7-2.553,2.196-3.477c-1.351-0.566-2.838-0.566-3.479,0v-6.027
		c0-7.234,4.822-14.822,13.479-14.822c8.582,0,13.401,7.588,13.401,14.822v6.027H506.764z"/>
	<path fill="#FFFFFF" d="M494.706,98.182v16.738c0,2.766,0.213,5.957,0.922,5.957c1.063,0,1.562-2.98,1.562-6.811v-16.24
		c0-2.838-0.146-4.822-1.136-4.822C495.203,93.006,494.706,94.424,494.706,98.182z"/>
	<path fill="#FFFFFF" d="M500.877,99.813c1.062,1.135,1.846,2.48,2.198,4.965h0.213c0.425-2.48,1.205-3.83,2.198-4.965
		c-0.922-3.262-1.847-6.24-3.9-9.504C502.152,93.43,502.152,97.049,500.877,99.813z"/>
</g>
<g enable-background="new    ">
	<path d="M138.812,85.034l4.894,6.524l1.276-6.524h18.015l5.248,6.95v5.604l-2.198,0.354c-1.277,0.142-2.412,1.631-2.412,5.461
		v23.404l4.681,6.102v5.318H143.28l-2.057-2.768v2.768h-16.241l-4.539-5.959v-6.522l2.766-0.427
		c1.348-0.282,1.844-2.271,1.844-4.752V96.382c0-3.263-0.993-4.255-2.34-4.397l-2.27-0.426v-6.524L138.812,85.034L138.812,85.034z
		 M130.797,96.382h0.142l6.809,34.61h4.61l6.738-34.61h0.142v24.539c0,3.263-0.567,5.249-2.34,5.674l-1.561,0.354v4.043h16.454
		v-4.043l-2.27-0.354c-1.773-0.354-2.34-2.412-2.34-5.675V96.382c0-3.333,0.851-5.39,2.27-5.674l2.27-0.354v-4.043h-15.532
		l-4.185,21.773l-4.397-21.773H121.72v4.043l2.27,0.354c1.418,0.284,2.27,2.341,2.27,5.674v24.539c0,3.263-0.567,5.319-2.27,5.674
		l-2.27,0.354v4.043h12.979v-4.043l-1.56-0.354c-1.773-0.426-2.341-2.412-2.341-5.675L130.797,96.382L130.797,96.382z M136.4,87.517
		l4.042,20.354c-0.638-0.567-1.631-0.567-2.482,0c0.355,0.922,1.206,2.128,2.625,3.476c-0.497,2.482-0.638,5.532-0.426,11.631
		c-1.347-5.888-2.624-9.148-3.972-11.631c0.922-1.276,1.561-2.554,1.561-3.476c-1.206-0.567-2.412-0.567-3.263,0l-2.34-11.631
		c-0.213-1.064-0.638-2.128-1.489-2.128c-0.78,0-1.064,1.062-1.064,2.128v11.631c-0.638-0.567-1.489-0.567-2.057,0V96.382
		c0-5.39-1.49-6.737-2.766-7.021l-1.844-0.283v-1.561H136.4L136.4,87.517z M137.96,107.801c-0.071-1.632,0.142-3.476,0.922-4.965
		c-1.986-2.695-3.05-5.532-4.539-9.574c0.284,4.113,0.497,7.446-0.213,9.574c1.915,1.844,2.837,3.333,3.617,4.965H137.96z
		 M160.514,87.517v1.561l-1.844,0.283c-1.277,0.284-2.766,1.632-2.766,7.021v11.489c-0.709-0.567-1.702-0.567-2.553,0
		c0.354,0.922,1.135,2.412,2.198,3.476c-1.063,2.341-1.844,5.604-2.34,11.631c-0.497-6.027-1.276-9.291-2.34-11.631
		c1.064-1.062,1.844-2.554,2.199-3.476c-0.993-0.567-1.915-0.567-2.625,0V96.24c0-1.064-0.283-2.128-1.063-2.128
		c-0.922,0-1.277,1.062-1.561,2.128l-2.198,11.631c-0.639-0.567-1.419-0.567-2.128,0l3.901-20.354H160.514z M153.351,107.801
		c0.354-2.482,1.135-3.901,2.127-4.965c-0.993-1.702-1.773-4.256-2.27-9.574c-0.497,5.318-1.276,7.872-2.34,9.574
		c1.064,1.063,1.844,2.482,2.199,4.965H153.351z"/>
	<path d="M190.58,85.034l7.943,8.298l7.588,29.221c0.638,2.271,2.27,5.531,4.539,6.95v8.724h-18.369l-1.844-2.48v2.48h-18.014
		l-4.894-6.523v-5.814l1.844-0.566c1.773-0.567,3.05-2.908,4.681-8.865l8.44-31.419h8.086V85.034z M189.587,116.523l0.497,2.128
		c1.135,5.391,0.284,7.234-1.561,7.802l-1.844,0.496v4.043h17.447v-4.043l-1.986-0.779c-1.206-0.426-2.411-2.482-3.688-7.447
		l-8.369-32.412h-6.596l-8.156,30.143c-1.986,7.305-3.192,9.433-4.965,10l-1.56,0.496v4.043h15.036v-4.043l-1.844-0.496
		c-1.56-0.567-2.624-3.617-1.56-7.802l0.567-2.128L189.587,116.523L189.587,116.523z M184.551,87.517h4.468l5.319,20.354
		c-0.851-0.567-1.702-0.567-2.553,0c0.425,0.922,1.56,2.412,2.766,3.476c-0.355,2.907-0.497,5.887,0.354,11.631
		c-1.844-5.746-2.979-8.37-4.894-11.631c0.709-1.063,1.489-2.554,1.56-3.476c-1.064-0.567-1.986-0.567-2.553,0l-3.05-14.113h-0.142
		l-3.83,14.113c-0.851-0.567-1.844-0.567-2.908,0L184.551,87.517z M182.637,110.212l2.979-10.852h0.284l2.34,10.852H182.637z
		 M191.786,107.801c0-2.482,0.284-3.901,0.709-4.965c-1.276-1.702-2.34-4.256-4.255-9.574c0.639,5.318,0.567,7.872,0.213,9.574
		c1.064,1.063,2.057,2.482,3.121,4.965H191.786z"/>
	<path d="M236.817,138.227l-4.894-6.523l-4.681-13.05v7.875l3.901,5.177v6.524h-16.241l-4.539-5.957v-6.524l2.766-0.427
		c1.347-0.282,1.844-2.271,1.844-4.752V96.382c0-3.263-0.993-4.255-2.34-4.397l-2.27-0.426v-6.524h18.156l2.624,3.476v-3.476h16.17
		l5.248,6.95v5.604l-2.198,0.354c-1.277,0.142-2.341,1.631-2.341,5.461v34.823H236.817z M220.717,96.382h0.142l12.411,34.61h8.228
		v-34.61c0-3.333,0.851-5.39,2.34-5.674l2.199-0.354v-4.043H232.42v4.043l2.27,0.354c1.418,0.284,2.27,2.341,2.27,5.674v15.391
		h-0.071l-9.362-25.462H211.64v4.043l2.27,0.354c1.418,0.284,2.27,2.341,2.27,5.674v24.539c0,3.263-0.567,5.319-2.27,5.674
		l-2.27,0.354v4.043h12.979v-4.043l-1.561-0.354c-1.773-0.426-2.34-2.412-2.34-5.675L220.717,96.382L220.717,96.382z
		 M226.462,87.517l7.447,20.354c-1.348-0.567-2.553-0.567-3.688,0c0.709,0.922,1.773,2.128,3.262,3.476
		c0.142,2.482,0.567,5.532,1.773,11.631c-2.695-5.888-4.539-9.148-6.17-11.631c0.567-1.276,0.922-2.554,0.922-3.476
		c-1.489-0.567-2.624-0.567-3.475,0l-4.255-11.702c-0.426-1.276-0.851-2.057-1.773-2.057c-0.852,0-0.993,1.062-0.993,2.128v11.631
		c-0.638-0.567-1.489-0.567-2.057,0V96.382c0-5.39-1.489-6.737-2.766-7.021l-1.844-0.283v-1.561H226.462L226.462,87.517z
		 M230.221,107.801c0-2.482,0-3.901,0.071-5.391c-1.915-2.27-3.617-5.035-6.028-9.717c1.348,4.752,1.844,7.66,1.418,10.143
		c1.631,1.063,2.766,2.482,4.326,4.965H230.221z M244.831,87.517v1.561l-1.844,0.283c-1.277,0.284-2.766,1.632-2.766,7.021v11.489
		c-0.425-0.567-1.489-0.567-1.986,0V96.382c0-5.39-1.489-6.737-2.766-7.021l-1.844-0.283v-1.561H244.831L244.831,87.517z"/>
	<path d="M279.224,115.247h4.964l5.532,6.95v16.029h-30.994l-6.241-6.525v-5.248l10.284-18.439h-4.539l-4.539-5.958V85.034h31.206
		l5.248,6.95v4.043L279.224,115.247z M254.968,100.779h4.468v-3.83c0-3.476,1.773-5.106,6.738-5.106h3.333
		c1.206,0,2.128,0.567,2.128,1.489c0,0.852-0.213,1.844-0.851,2.979l-17.092,30.639v4.043h29.929v-14.539h-4.468v3.899
		c0,3.403-1.702,5.037-6.667,5.037h-4.681c-1.135,0-2.198-0.567-2.198-1.49c0-1.063,0.284-2.271,0.78-3.049l17.234-30.499V86.31
		h-28.653L254.968,100.779L254.968,100.779z M272.202,107.871c-0.709-0.567-1.702-0.567-2.979,0
		c-0.071,1.206,0.071,2.341,0.354,3.476c-3.404,3.9-6.312,7.801-8.937,11.631c1.702-3.83,3.05-7.73,4.326-11.631
		c1.631-1.135,2.908-2.27,4.043-3.476c-0.993-0.567-2.057-0.567-3.191,0l5.957-10.78c0.639-1.063,1.206-2.34,1.206-3.759
		c0-1.631-1.277-2.695-3.333-2.695h-3.475c-5.674,0-8.015,1.773-8.015,6.312v2.624h-1.985V87.517h26.241v2.341L272.202,107.871z
		 M266.883,100.425c0.354-0.71,0.213-1.348-0.709-1.348c-0.993,0-1.844,1.135-1.844,3.263v2.481L266.883,100.425z M269.224,107.801
		c1.489-1.702,3.049-3.334,4.964-4.965c0.567-3.191,1.418-6.383,2.482-9.574c-2.057,3.191-4.185,6.383-7.021,9.574
		c0.071,1.631-0.142,3.263-0.638,4.965H269.224z M275.394,121.984c-0.354,0.709-0.213,1.348,0.709,1.348
		c0.993,0,1.844-1.135,1.844-3.262v-2.482L275.394,121.984z"/>
	<path d="M313.616,85.034l7.941,8.298l7.591,29.221c0.639,2.271,2.27,5.531,4.538,6.95v8.724h-18.369l-1.845-2.48v2.48H295.46
		l-4.894-6.523v-5.814l1.844-0.566c1.773-0.567,3.049-2.908,4.681-8.865l8.44-31.419h8.085V85.034L313.616,85.034z M312.624,116.523
		l0.497,2.128c1.135,5.391,0.284,7.234-1.562,7.802l-1.844,0.496v4.043h17.446v-4.043l-1.984-0.779
		c-1.207-0.426-2.412-2.482-3.688-7.447l-8.367-32.412h-6.596l-8.156,30.143c-1.986,7.305-3.191,9.433-4.965,10l-1.56,0.496v4.043
		h15.036v-4.043l-1.844-0.496c-1.56-0.567-2.624-3.617-1.56-7.802l0.567-2.128L312.624,116.523L312.624,116.523z M307.588,87.517
		h4.468l5.319,20.354c-0.852-0.567-1.702-0.567-2.553,0c0.425,0.922,1.56,2.412,2.766,3.476c-0.354,2.907-0.496,5.887,0.355,11.631
		c-1.846-5.746-2.979-8.37-4.896-11.631c0.709-1.063,1.49-2.554,1.562-3.476c-1.064-0.567-1.986-0.567-2.554,0l-3.05-14.113h-0.142
		l-3.83,14.113c-0.851-0.567-1.844-0.567-2.908,0L307.588,87.517z M305.673,110.212l2.979-10.852h0.283l2.341,10.852H305.673z
		 M314.822,107.801c0-2.482,0.284-3.901,0.709-4.965c-1.276-1.702-2.34-4.256-4.255-9.574c0.638,5.318,0.566,7.872,0.213,9.574
		c1.063,1.063,2.057,2.482,3.121,4.965H314.822z"/>
	<path d="M359.854,138.227l-4.894-6.523l-4.681-13.05v7.875l3.899,5.177v6.524h-16.242l-4.538-5.957v-6.524l2.767-0.427
		c1.349-0.282,1.845-2.271,1.845-4.752V96.382c0-3.263-0.992-4.255-2.341-4.397l-2.271-0.426v-6.524h18.155l2.625,3.476v-3.476
		h16.17l5.248,6.95v5.604l-2.196,0.354c-1.277,0.142-2.343,1.631-2.343,5.461v34.823H359.854z M343.754,96.382h0.144l12.411,34.61
		h8.228v-34.61c0-3.333,0.852-5.39,2.341-5.674l2.198-0.354v-4.043h-13.617v4.043l2.27,0.354c1.421,0.284,2.271,2.341,2.271,5.674
		v15.391h-0.071l-9.36-25.462H334.68v4.043l2.271,0.354c1.418,0.284,2.271,2.341,2.271,5.674v24.539
		c0,3.263-0.566,5.319-2.271,5.674l-2.271,0.354v4.043h12.979v-4.043l-1.56-0.354c-1.772-0.426-2.342-2.412-2.342-5.675V96.382
		H343.754z M349.499,87.517l7.446,20.354c-1.349-0.567-2.554-0.567-3.688,0c0.709,0.922,1.772,2.128,3.263,3.476
		c0.144,2.482,0.567,5.532,1.772,11.631c-2.694-5.888-4.539-9.148-6.17-11.631c0.567-1.276,0.922-2.554,0.922-3.476
		c-1.489-0.567-2.624-0.567-3.476,0l-4.257-11.702c-0.426-1.276-0.852-2.057-1.771-2.057c-0.851,0-0.992,1.062-0.992,2.128v11.631
		c-0.639-0.567-1.489-0.567-2.058,0V96.382c0-5.39-1.489-6.737-2.767-7.021l-1.845-0.283v-1.561H349.499L349.499,87.517z
		 M353.258,107.801c0-2.482,0-3.901,0.07-5.391c-1.914-2.27-3.617-5.035-6.027-9.717c1.349,4.752,1.844,7.66,1.418,10.143
		c1.631,1.063,2.767,2.482,4.326,4.965H353.258z M367.867,87.517v1.561l-1.844,0.283c-1.276,0.284-2.768,1.632-2.768,7.021v11.489
		c-0.426-0.567-1.489-0.567-1.984,0V96.382c0-5.39-1.488-6.737-2.768-7.021l-1.844-0.283v-1.561H367.867L367.867,87.517z"/>
	<path d="M379.92,96.382c0-3.263-0.992-4.255-2.341-4.397l-2.271-0.426v-6.524h19.646l5.248,6.95v5.604l-2.198,0.354
		c-1.276,0.142-2.411,1.631-2.411,5.461v23.405l4.609,6.027v5.391H379.85l-4.539-5.957v-6.523l2.767-0.428
		c1.348-0.281,1.845-2.27,1.845-4.752L379.92,96.382L379.92,96.382z M381.125,120.921c0,3.263-0.566,5.319-2.27,5.674l-2.271,0.354
		v4.043h17.164v-4.043l-2.271-0.354c-1.771-0.354-2.34-2.412-2.34-5.675V96.382c0-3.333,0.852-5.39,2.271-5.674l2.27-0.354v-4.043
		h-17.093v4.043l2.271,0.354c1.418,0.284,2.27,2.341,2.27,5.674V120.921z M387.863,107.871c-0.711-0.567-1.703-0.567-2.625,0
		c0.426,0.922,1.205,2.412,2.27,3.476c-1.062,2.341-1.844,5.603-2.34,11.631c-0.496-6.028-1.277-9.292-2.341-11.631
		c1.062-1.063,1.845-2.554,2.198-3.476c-0.992-0.567-1.914-0.567-2.623,0V96.382c0-5.39-1.49-6.737-2.769-7.021l-1.844-0.283v-1.561
		h14.682v1.561l-1.845,0.283c-1.276,0.284-2.767,1.632-2.767,7.021v11.489H387.863z M385.238,107.801
		c0.426-2.482,1.205-3.901,2.27-4.965c-1.062-1.702-1.844-4.256-2.34-9.574c-0.496,5.318-1.277,7.872-2.341,9.574
		c1.062,1.063,1.845,2.482,2.198,4.965H385.238z"/>
	<path d="M420.13,121.134c0,1.915,1.419,2.411,2.554,2.411c1.349,0,2.625-1.702,2.625-4.326v-3.972h6.879l5.318,7.163v15.816
		h-33.121l-4.539-5.959v-6.523l2.769-0.426c1.347-0.283,1.844-2.271,1.844-4.752V96.382c0-3.263-0.993-4.255-2.342-4.397
		l-2.271-0.426v-6.524h19.646l5.248,6.95v5.604l-2.199,0.354c-1.275,0.142-2.411,1.631-2.411,5.461V121.134L420.13,121.134z
		 M405.662,120.921c0,3.263-0.568,5.319-2.271,5.674l-2.271,0.354v4.043h29.929v-14.539h-4.468v3.9c0,3.402-1.772,5.035-6.737,5.035
		c-5.178,0-6.171-2.271-6.171-6.312V96.382c0-3.333,0.854-5.39,2.271-5.674l2.27-0.354v-4.043h-17.092v4.043l2.27,0.354
		c1.418,0.284,2.271,2.341,2.271,5.674L405.662,120.921L405.662,120.921z M406.938,96.382c0-5.39-1.487-6.737-2.767-7.021
		l-1.844-0.283v-1.561h14.682v1.561l-1.844,0.283c-1.276,0.284-2.767,1.632-2.767,7.021v11.489c-0.709-0.567-1.703-0.567-2.625,0
		c0.427,0.922,1.204,2.412,2.271,3.476c-1.062,2.341-1.844,5.603-2.341,11.631c-0.496-6.028-1.275-9.292-2.342-11.631
		c1.063-1.063,1.846-2.554,2.198-3.476c-0.991-0.567-1.913-0.567-2.622,0V96.382L406.938,96.382z M409.775,107.801
		c0.426-2.482,1.205-3.901,2.27-4.965c-1.063-1.702-1.844-4.256-2.341-9.574c-0.496,5.318-1.276,7.872-2.341,9.574
		c1.062,1.063,1.845,2.482,2.198,4.965H409.775z"/>
	<path d="M457.645,121.134c0,1.915,1.418,2.411,2.554,2.411c1.349,0,2.625-1.702,2.625-4.326v-3.972h6.88l5.319,7.163v15.816H441.9
		l-4.539-5.959v-6.523l2.766-0.426c1.348-0.283,1.844-2.271,1.844-4.752V96.382c0-3.263-0.992-4.255-2.34-4.397l-2.27-0.426v-6.524
		h19.646l5.248,6.95v5.604l-2.198,0.354c-1.274,0.142-2.41,1.631-2.41,5.461v17.73H457.645L457.645,121.134z M443.176,120.921
		c0,3.263-0.565,5.319-2.27,5.674l-2.271,0.354v4.043h29.931v-14.539h-4.47v3.9c0,3.402-1.771,5.035-6.737,5.035
		c-5.179,0-6.17-2.271-6.17-6.312V96.382c0-3.333,0.852-5.39,2.271-5.674l2.271-0.354v-4.043h-17.095v4.043l2.271,0.354
		c1.42,0.284,2.271,2.341,2.271,5.674L443.176,120.921L443.176,120.921z M444.452,96.382c0-5.39-1.489-6.737-2.768-7.021
		l-1.844-0.283v-1.561h14.683v1.561l-1.845,0.283c-1.276,0.284-2.768,1.632-2.768,7.021v11.489c-0.709-0.567-1.701-0.567-2.624,0
		c0.426,0.922,1.206,2.412,2.271,3.476c-1.062,2.341-1.845,5.603-2.34,11.631c-0.498-6.028-1.276-9.292-2.342-11.631
		c1.064-1.063,1.844-2.554,2.199-3.476c-0.993-0.567-1.915-0.567-2.625,0L444.452,96.382L444.452,96.382z M447.289,107.801
		c0.426-2.482,1.206-3.901,2.27-4.965c-1.062-1.702-1.844-4.256-2.34-9.574c-0.496,5.318-1.274,7.872-2.341,9.574
		c1.063,1.063,1.845,2.482,2.199,4.965H447.289z"/>
	<path d="M512.816,118.297c0,13.617-7.375,20.355-17.232,20.355c-10.143,0-19.857-7.521-19.857-23.051v-13.617
		c0-10.638,7.658-17.376,15.957-17.376c13.548,0,21.136,12.058,21.136,20.639v13.05H512.816z M506.363,101.843
		c-0.07-8.865-5.815-16.028-14.683-16.028c-8.864,0-14.681,7.659-14.681,16.028l-0.071,13.546
		c-0.069,9.646,5.888,16.029,14.752,16.029c8.938,0,14.752-7.589,14.683-16.525V101.843z M485.3,107.871
		c-0.566-0.567-1.984-0.567-3.403,0c0.354,0.922,1.205,2.341,2.197,3.476c-0.992,2.341-2.197,6.809-1.274,11.631
		c-1.845-5.037-2.839-9.222-3.334-11.631c0.993-1.135,1.702-2.554,2.198-3.476c-1.349-0.567-2.838-0.567-3.476,0v-6.028
		c0-7.234,4.821-14.823,13.476-14.823c8.582,0,13.403,7.589,13.403,14.823v6.028c-0.638-0.567-2.058-0.567-3.476,0
		c0.496,0.922,1.205,2.341,2.198,3.476c-0.427,2.624-0.993,6.524-3.264,11.631c0.497-5.106-0.283-9.292-1.348-11.631
		c1.063-1.135,1.845-2.554,2.198-3.476c-1.42-0.567-2.838-0.567-3.403,0v-9.574c0-6.88-2.695-9.149-6.312-9.149
		c-3.688,0-6.383,2.27-6.383,9.149L485.3,107.871L485.3,107.871z M481.896,107.729c0.354-2.482,1.204-3.83,2.196-4.965
		c-1.274-2.766-1.274-5.674-0.709-9.503c-1.983,3.404-3.05,6.17-3.899,9.503c0.993,1.135,1.771,2.482,2.198,4.965H481.896z
		 M486.646,98.297c0-3.972,0.78-7.873,5.034-7.873c4.187,0,5.037,3.901,5.037,7.873v18.865c0,4.822-0.853,9.717-5.037,9.717
		c-4.254,0-5.034-4.539-5.034-9.717V98.297z M495.514,100.779c0-2.837-0.143-4.823-1.136-4.823c-0.853,0-1.349,1.419-1.349,5.178
		v16.737c0,2.768,0.214,5.958,0.923,5.958c1.062,0,1.562-2.979,1.562-6.809V100.779L495.514,100.779z M501.611,107.729
		c0.427-2.482,1.205-3.83,2.198-4.965c-0.922-3.263-1.845-6.241-3.899-9.503c0.565,3.12,0.565,6.737-0.71,9.503
		c1.062,1.135,1.845,2.482,2.198,4.965H501.611z"/>
</g>
<polygon points="200.132,156.971 202.73,162.239 208.543,163.083 204.338,167.182 205.33,172.971 200.132,170.239 194.933,172.971 
	195.926,167.182 191.72,163.083 197.533,162.239 "/>
<polygon points="427.925,156.971 430.521,162.239 436.335,163.083 432.13,167.182 433.122,172.971 427.925,170.239 422.725,172.971 
	423.718,167.182 419.512,163.083 425.324,162.239 "/>
<g>
	<path d="M226.768,155.691v14.078c0,0.84-0.052,1.556-0.157,2.147c-0.104,0.594-0.304,1.079-0.597,1.456
		c-0.293,0.378-0.702,0.652-1.226,0.828c-0.523,0.175-1.205,0.262-2.042,0.262h-1.341v-2.012c0.503,0,0.925-0.014,1.268-0.041
		c0.342-0.028,0.618-0.126,0.828-0.294c0.209-0.167,0.359-0.433,0.45-0.796c0.091-0.363,0.136-0.881,0.136-1.551v-14.078H226.768
		L226.768,155.691z"/>
	<path d="M237.172,174.663c-0.782,0-1.458-0.093-2.027-0.277c-0.569-0.186-1.053-0.44-1.451-0.765
		c-0.398-0.325-0.72-0.709-0.964-1.152c-0.245-0.443-0.435-0.921-0.571-1.431c-0.136-0.511-0.229-1.044-0.278-1.603
		c-0.049-0.56-0.073-1.117-0.073-1.677v-12.067h2.682v12.076c0,0.334,0.003,0.685,0.011,1.047c0.007,0.363,0.037,0.719,0.089,1.063
		c0.052,0.347,0.131,0.677,0.236,0.991c0.104,0.314,0.256,0.589,0.456,0.822c0.199,0.233,0.452,0.421,0.759,0.562
		c0.307,0.14,0.685,0.209,1.131,0.209c0.446,0,0.824-0.069,1.131-0.209c0.307-0.142,0.561-0.327,0.759-0.562
		c0.199-0.233,0.351-0.508,0.456-0.822c0.104-0.314,0.183-0.645,0.235-0.991c0.053-0.346,0.082-0.7,0.089-1.063
		c0.007-0.362,0.01-0.713,0.01-1.047v-12.076h2.682v12.067c0,0.56-0.024,1.117-0.073,1.677c-0.049,0.559-0.142,1.092-0.277,1.603
		c-0.136,0.51-0.327,0.987-0.571,1.431c-0.244,0.443-0.565,0.827-0.963,1.152c-0.398,0.324-0.882,0.579-1.451,0.765
		C238.63,174.57,237.955,174.663,237.172,174.663z"/>
	<path d="M255.057,174.464l-4.798-12.487v12.487h-2.682v-18.771h1.76l4.944,12.256v-12.256h2.682v18.771H255.057z"/>
	<path d="M268.039,165.748h-3.352v6.704h4.693v2.012h-7.375v-18.771h7.375v2.011h-4.693v6.034h3.352V165.748z"/>
	<path d="M286.436,155.691h2.674l-6.042,18.771h-2.674L286.436,155.691z"/>
	<path d="M309.511,158.374h-5.615l-0.419,4.546c0.209-0.125,0.454-0.236,0.735-0.335c0.238-0.084,0.527-0.16,0.866-0.229
		c0.339-0.069,0.728-0.104,1.168-0.104c0.73,0,1.348,0.134,1.85,0.401s0.907,0.645,1.214,1.131c0.309,0.486,0.53,1.064,0.667,1.734
		c0.137,0.672,0.205,1.409,0.205,2.217c0,0.512-0.021,1.037-0.062,1.576c-0.042,0.541-0.121,1.065-0.236,1.578
		c-0.115,0.512-0.278,0.996-0.488,1.456c-0.21,0.459-0.485,0.858-0.828,1.198s-0.759,0.609-1.246,0.811
		c-0.488,0.199-1.071,0.299-1.75,0.299c-0.977,0-1.775-0.146-2.393-0.438c-0.618-0.294-1.104-0.69-1.456-1.194
		c-0.352-0.502-0.595-1.092-0.728-1.766c-0.133-0.674-0.199-1.393-0.199-2.152h2.682v0.412c0,0.355,0.019,0.709,0.057,1.06
		c0.038,0.35,0.123,0.663,0.254,0.94c0.131,0.276,0.328,0.504,0.588,0.678c0.26,0.176,0.613,0.263,1.058,0.263
		c0.431,0,0.78-0.09,1.047-0.271s0.477-0.447,0.627-0.801c0.149-0.354,0.253-0.795,0.309-1.324c0.055-0.531,0.083-1.148,0.083-1.855
		c0-0.527-0.005-1.029-0.015-1.508c-0.011-0.479-0.068-0.897-0.177-1.258c-0.107-0.361-0.291-0.646-0.548-0.857
		s-0.635-0.316-1.131-0.316c-0.268,0-0.517,0.051-0.748,0.151c-0.23,0.103-0.437,0.229-0.619,0.382
		c-0.182,0.154-0.338,0.321-0.468,0.503c-0.13,0.183-0.229,0.353-0.296,0.515h-2.284v-10.119h8.296L309.511,158.374L309.511,158.374
		z"/>
	<path d="M313.882,167.76h4.022v2.012h-4.022V167.76z"/>
	<path d="M320.936,155.691h7.512v1.289l-3.312,17.482h-2.682l3.436-16.572h-4.954V155.691L320.936,155.691z"/>
	<path d="M345.503,155.691h2.674l-6.042,18.771h-2.674L345.503,155.691z"/>
	<path d="M359.537,161.727v-0.67c0-0.839,0.088-1.601,0.263-2.285c0.174-0.684,0.45-1.267,0.827-1.748s0.862-0.855,1.456-1.121
		s1.31-0.397,2.147-0.397c0.837,0,1.554,0.129,2.146,0.388c0.594,0.258,1.079,0.607,1.456,1.047c0.377,0.44,0.653,0.957,0.827,1.552
		c0.175,0.594,0.263,1.226,0.263,1.896c0,0.504-0.041,0.975-0.121,1.414c-0.08,0.44-0.204,0.872-0.372,1.294
		c-0.167,0.423-0.377,0.849-0.628,1.278c-0.252,0.43-0.549,0.889-0.891,1.377l-4.692,6.034h6.704v2.682h-9.396v-2.682l4.703-6.704
		c0.475-0.678,0.847-1.26,1.114-1.744c0.271-0.484,0.471-0.906,0.604-1.263c0.133-0.355,0.215-0.666,0.246-0.933
		c0.03-0.266,0.048-0.517,0.048-0.755c0-0.335-0.042-0.663-0.126-0.983c-0.084-0.321-0.21-0.607-0.377-0.859
		c-0.168-0.251-0.377-0.453-0.629-0.607c-0.251-0.152-0.545-0.229-0.88-0.229c-0.336,0-0.63,0.081-0.881,0.241
		s-0.461,0.388-0.629,0.681c-0.167,0.294-0.293,0.646-0.377,1.06c-0.084,0.412-0.125,0.869-0.125,1.371v0.67h-2.682V161.727z"/>
	<path d="M378.323,174.652c-0.603,0-1.186-0.104-1.75-0.31c-0.565-0.206-1.066-0.532-1.503-0.979
		c-0.438-0.447-0.786-1.021-1.048-1.724c-0.263-0.703-0.394-1.55-0.394-2.541v-8.045c0-0.845,0.086-1.566,0.257-2.169
		c0.171-0.6,0.394-1.106,0.665-1.519c0.272-0.413,0.579-0.74,0.922-0.984s0.688-0.434,1.037-0.564c0.35-0.133,0.684-0.219,1-0.258
		c0.318-0.037,0.589-0.058,0.812-0.058c0.223,0,0.493,0.021,0.812,0.058c0.317,0.039,0.651,0.125,1,0.258
		c0.351,0.132,0.695,0.32,1.037,0.564s0.649,0.572,0.922,0.984c0.273,0.412,0.494,0.919,0.665,1.519
		c0.171,0.603,0.257,1.324,0.257,2.169v8.045c0,0.991-0.131,1.838-0.393,2.541c-0.262,0.701-0.611,1.275-1.048,1.724
		c-0.438,0.446-0.938,0.772-1.503,0.979S378.923,174.652,378.323,174.652z M378.323,172.452c0.293,0,0.548-0.056,0.765-0.167
		c0.216-0.111,0.397-0.26,0.544-0.44c0.147-0.182,0.269-0.391,0.361-0.628c0.095-0.236,0.166-0.48,0.215-0.729
		c0.049-0.25,0.082-0.492,0.1-0.733c0.019-0.239,0.026-0.459,0.026-0.653v-8.045c0-0.203-0.005-0.427-0.016-0.672
		c-0.012-0.244-0.038-0.49-0.084-0.738c-0.045-0.248-0.109-0.487-0.193-0.723c-0.084-0.234-0.201-0.441-0.352-0.623
		c-0.149-0.182-0.338-0.326-0.561-0.435c-0.224-0.108-0.493-0.163-0.807-0.163c-0.314,0-0.584,0.055-0.808,0.163
		s-0.411,0.253-0.561,0.435c-0.15,0.182-0.269,0.389-0.353,0.623c-0.083,0.234-0.147,0.475-0.192,0.723
		c-0.046,0.248-0.073,0.494-0.084,0.738c-0.011,0.245-0.017,0.469-0.017,0.672v8.045c0,0.194,0.01,0.414,0.026,0.653
		c0.019,0.241,0.051,0.485,0.1,0.733c0.05,0.248,0.12,0.49,0.216,0.729c0.094,0.237,0.215,0.446,0.36,0.628
		c0.146,0.183,0.328,0.329,0.545,0.44C377.774,172.396,378.029,172.452,378.323,172.452z"/>
	<path d="M387.387,157.703c0.385-0.141,0.747-0.307,1.089-0.503c0.293-0.167,0.591-0.377,0.892-0.628
		c0.3-0.252,0.534-0.545,0.702-0.881h2.011v18.771h-2.682v-14.749h-2.012V157.703L387.387,157.703z"/>
	<path d="M401.479,174.652c-0.838,0-1.554-0.129-2.146-0.389c-0.594-0.258-1.079-0.606-1.456-1.047
		c-0.377-0.439-0.652-0.957-0.827-1.551s-0.262-1.227-0.262-1.896v-0.67h2.682c0,0.67,0.042,1.223,0.126,1.655
		c0.083,0.433,0.209,0.775,0.377,1.026c0.167,0.251,0.377,0.426,0.628,0.523c0.252,0.098,0.546,0.146,0.881,0.146
		c0.336,0,0.629-0.048,0.88-0.146c0.252-0.099,0.461-0.272,0.629-0.523s0.293-0.594,0.377-1.026
		c0.084-0.435,0.126-0.985,0.126-1.655c0-0.502-0.046-0.959-0.137-1.371c-0.092-0.412-0.24-0.766-0.45-1.06
		c-0.209-0.293-0.485-0.521-0.827-0.681c-0.343-0.16-0.765-0.241-1.268-0.241v-2.683c0.503,0,0.925-0.045,1.268-0.135
		c0.342-0.092,0.618-0.242,0.827-0.451c0.21-0.209,0.358-0.484,0.45-0.828c0.091-0.342,0.137-0.765,0.137-1.268
		s-0.042-0.925-0.126-1.268c-0.084-0.342-0.209-0.617-0.377-0.827c-0.168-0.209-0.377-0.358-0.629-0.45
		c-0.251-0.091-0.544-0.137-0.88-0.137c-0.335,0-0.629,0.049-0.881,0.146c-0.251,0.099-0.461,0.271-0.628,0.523
		c-0.168,0.251-0.294,0.594-0.377,1.025c-0.084,0.435-0.126,0.984-0.126,1.655h-2.682v-0.671c0-0.67,0.087-1.302,0.262-1.896
		c0.175-0.594,0.45-1.109,0.827-1.551c0.377-0.438,0.862-0.789,1.456-1.047c0.594-0.259,1.31-0.388,2.146-0.388
		c0.838,0,1.555,0.129,2.147,0.388c0.594,0.258,1.079,0.607,1.456,1.047c0.377,0.44,0.653,0.957,0.828,1.551
		c0.174,0.595,0.262,1.227,0.262,1.896c0,0.419-0.039,0.799-0.115,1.137c-0.076,0.34-0.179,0.642-0.304,0.906
		c-0.126,0.266-0.27,0.499-0.43,0.702c-0.161,0.202-0.325,0.377-0.492,0.522c-0.392,0.344-0.838,0.595-1.341,0.754
		c0.503,0.168,0.949,0.447,1.341,0.84c0.167,0.167,0.331,0.367,0.492,0.602c0.16,0.234,0.304,0.51,0.43,0.822
		c0.125,0.314,0.228,0.673,0.304,1.074c0.076,0.4,0.115,0.854,0.115,1.355c0,0.838-0.088,1.601-0.262,2.283
		c-0.175,0.686-0.451,1.268-0.828,1.75c-0.377,0.48-0.862,0.855-1.456,1.12C403.032,174.52,402.316,174.652,401.479,174.652z"/>
</g>
<g>
	<path fill="#FFFFFF" d="M254.568,71.787c-0.779,0-1.466-0.091-2.057-0.274c-0.593-0.182-1.109-0.426-1.547-0.731
		c-0.438-0.304-0.807-0.65-1.108-1.035c-0.3-0.386-0.548-0.782-0.743-1.188c-0.455-0.942-0.714-2.018-0.778-3.229l3.107-0.781
		c0.033,0.878,0.163,1.658,0.391,2.34c0.097,0.292,0.222,0.579,0.373,0.859c0.151,0.28,0.335,0.53,0.555,0.749
		c0.22,0.22,0.479,0.396,0.776,0.53c0.297,0.134,0.641,0.201,1.032,0.201c1.563,0,2.344-0.779,2.344-2.339
		c0-0.39-0.049-0.753-0.146-1.09c-0.097-0.337-0.244-0.662-0.438-0.975c-0.195-0.312-0.438-0.617-0.731-0.914
		c-0.292-0.296-0.633-0.603-1.024-0.919l-3.898-3.12c-0.398-0.317-0.746-0.676-1.042-1.079c-0.296-0.401-0.542-0.826-0.737-1.272
		c-0.195-0.447-0.339-0.902-0.433-1.365c-0.094-0.463-0.14-0.922-0.14-1.377c0-0.698,0.118-1.366,0.353-2.004
		c0.235-0.638,0.582-1.198,1.041-1.682c0.458-0.483,1.028-0.867,1.709-1.151c0.682-0.284,1.468-0.426,2.361-0.426
		c0.781,0,1.468,0.081,2.062,0.244c0.594,0.163,1.11,0.378,1.549,0.646s0.809,0.572,1.11,0.914c0.301,0.341,0.549,0.686,0.744,1.035
		c0.456,0.837,0.716,1.783,0.781,2.839l-3.12,0.78c-0.032-0.731-0.163-1.381-0.391-1.949c-0.098-0.244-0.222-0.481-0.372-0.713
		s-0.336-0.438-0.556-0.621c-0.22-0.183-0.479-0.332-0.775-0.445c-0.297-0.113-0.642-0.17-1.032-0.17
		c-0.407,0-0.759,0.063-1.056,0.189c-0.297,0.125-0.542,0.294-0.732,0.505c-0.192,0.211-0.333,0.459-0.422,0.743
		c-0.089,0.284-0.134,0.584-0.134,0.901c0,0.538,0.126,1.087,0.379,1.649c0.252,0.562,0.648,1.055,1.186,1.479l3.899,3.119
		c0.496,0.397,0.938,0.833,1.325,1.308c0.386,0.475,0.714,0.972,0.982,1.491s0.472,1.052,0.61,1.6
		c0.138,0.548,0.208,1.089,0.208,1.624c0,0.675-0.11,1.318-0.329,1.931c-0.22,0.614-0.556,1.156-1.007,1.627
		c-0.451,0.471-1.018,0.846-1.701,1.126C256.312,71.647,255.503,71.787,254.568,71.787z"/>
	<path fill="#FFFFFF" d="M272.524,61.431h-3.9v7.797h5.458v2.34h-8.577V49.734h8.577v2.339h-5.458v7.018h3.9V61.431z"/>
	<path fill="#FFFFFF" d="M286.186,61.431h-3.9v7.797h5.459v2.34h-8.578V49.734h8.578v2.339h-5.459v7.018h3.9V61.431z"/>
	<path fill="#FFFFFF" d="M306.016,71.568v-7.019l-4.679-14.815h3.119l3.125,10.917l3.114-10.917h2.785l-4.345,14.815v7.019H306.016z
		"/>
	<path fill="#FFFFFF" d="M330.985,64.549c0,0.976-0.104,1.902-0.306,2.779c-0.203,0.877-0.545,1.645-1.023,2.303
		c-0.479,0.658-1.119,1.181-1.919,1.571c-0.8,0.39-1.796,0.584-2.989,0.584c-0.813,0-1.532-0.089-2.157-0.268
		c-0.626-0.178-1.168-0.426-1.627-0.743s-0.847-0.699-1.163-1.145c-0.317-0.447-0.571-0.938-0.762-1.475
		c-0.191-0.536-0.328-1.109-0.409-1.718s-0.121-1.239-0.121-1.889v-7.797c0-0.65,0.04-1.28,0.121-1.889
		c0.081-0.609,0.218-1.182,0.409-1.717c0.189-0.536,0.443-1.028,0.762-1.474c0.316-0.447,0.704-0.829,1.163-1.146
		s1.001-0.564,1.627-0.743c0.625-0.178,1.344-0.268,2.157-0.268c1.193,0,2.189,0.195,2.989,0.584c0.8,0.39,1.438,0.914,1.919,1.573
		c0.479,0.657,0.82,1.425,1.023,2.302c0.202,0.877,0.306,1.804,0.306,2.779V64.549z M321.627,65.33c0,0.585,0.054,1.117,0.158,1.596
		c0.105,0.479,0.281,0.889,0.523,1.23c0.245,0.341,0.565,0.604,0.964,0.792c0.397,0.187,0.891,0.28,1.476,0.28
		c0.584,0,1.076-0.093,1.474-0.28c0.396-0.188,0.72-0.451,0.962-0.792c0.243-0.341,0.42-0.751,0.523-1.23
		c0.106-0.479,0.159-1.011,0.159-1.596v-9.358c0-0.585-0.053-1.117-0.159-1.596c-0.104-0.479-0.28-0.889-0.523-1.23
		c-0.242-0.342-0.564-0.606-0.962-0.792c-0.396-0.187-0.89-0.28-1.474-0.28c-0.585,0-1.077,0.093-1.476,0.28
		c-0.397,0.187-0.719,0.451-0.964,0.792c-0.242,0.341-0.418,0.751-0.523,1.23c-0.104,0.479-0.158,1.011-0.158,1.596V65.33z"/>
	<path fill="#FFFFFF" d="M342.697,71.799c-0.909,0-1.696-0.108-2.356-0.323c-0.662-0.215-1.226-0.512-1.688-0.89
		c-0.462-0.377-0.835-0.825-1.12-1.34c-0.284-0.516-0.505-1.07-0.663-1.664c-0.159-0.592-0.268-1.214-0.323-1.864
		c-0.057-0.649-0.085-1.299-0.085-1.95V49.734h3.12v14.044c0,0.39,0.002,0.797,0.011,1.219c0.009,0.423,0.044,0.836,0.104,1.238
		c0.061,0.402,0.151,0.787,0.273,1.152c0.121,0.366,0.298,0.685,0.529,0.957c0.231,0.272,0.525,0.49,0.883,0.652
		c0.357,0.163,0.795,0.244,1.315,0.244c0.52,0,0.958-0.081,1.315-0.244s0.652-0.38,0.884-0.652c0.231-0.271,0.408-0.591,0.529-0.957
		c0.122-0.366,0.213-0.75,0.274-1.152c0.061-0.402,0.096-0.814,0.104-1.238c0.008-0.422,0.013-0.829,0.013-1.219V49.734h3.119V63.77
		c0,0.65-0.027,1.3-0.085,1.95c-0.058,0.65-0.164,1.271-0.322,1.864c-0.159,0.593-0.38,1.147-0.665,1.664
		c-0.283,0.516-0.657,0.963-1.12,1.34c-0.464,0.377-1.025,0.674-1.688,0.89C344.394,71.691,343.607,71.799,342.697,71.799z"/>
	<path fill="#FFFFFF" d="M364.089,49.734h3.118v21.834h-3.118V49.734z"/>
	<path fill="#FFFFFF" d="M381.771,71.568l-5.58-14.525v14.525h-3.12V49.734h2.047l5.752,14.255V49.734h3.118v21.834H381.771z"/>
</g>
</svg>
