<?xml version="1.0" encoding="utf-8"?>
<!-- Generator: Adobe Illustrator 17.1.0, SVG Export Plug-In . SVG Version: 6.00 Build 0)  -->
<!DOCTYPE svg PUBLIC "-//W3C//DTD SVG 1.1//EN" "http://www.w3.org/Graphics/SVG/1.1/DTD/svg11.dtd">
<svg version="1.1" id="Layer_1" xmlns="http://www.w3.org/2000/svg" xmlns:xlink="http://www.w3.org/1999/xlink" x="0px" y="0px"
	 viewBox="-1.6 151.7 607.8 171.9" enable-background="new -1.6 151.7 607.8 171.9" xml:space="preserve">
<g>
	<g>
		<path fill="#E2E1D4" d="M351.7,288.5c-7.8,0-18.4-2-24.9-7.7c-9-8-13.4-20.9-13.4-39.6c0-11.7,1.2-26.5,10.3-36.4
			c7.3-8,19.7-10.9,28.1-10.9c8.3,0,20.7,2.8,28,10.7c9.2,10,10.4,24.8,10.4,36.5c0,18.7-4.4,31.6-13.5,39.6
			C370.2,286.5,359.5,288.5,351.7,288.5z M351.7,202.4c-7.2,0-16.7,2.5-21.8,8.1c-5.6,6.1-8,15.6-8,30.7c0,16.1,3.5,26.9,10.6,33.2
			c4.4,3.9,12.9,5.6,19.3,5.6c6.4,0,14.9-1.7,19.3-5.6c7.1-6.3,10.6-17.1,10.6-33.2c0-15.2-2.5-24.7-8.1-30.8
			C368.4,204.9,358.9,202.5,351.7,202.4z"/>
	</g>
	<g>
		<rect x="499.8" y="194.5" fill="#E2E1D4" width="8.5" height="93"/>
	</g>
	<g>
		<path fill="#E2E1D4" d="M299.6,286.6c-14,0-18.1-11.4-18.4-17.4l0-117.5h8.5v117.4c0.1,1.3,1,9,9.9,9V286.6z"/>
	</g>
	<path fill="#E2E1D4" d="M480.5,282.7c-6.3-14.4-22.8-14.8-30.6-12.9l-17.3,4L432,274c-0.1,0-7.8,3.1-11.1-1.4
		c-1.3-1.7-1.2-4.7,0.2-7.9c1.8-4.1,6.2-9,12.8-10.1c2.4,0.3,4.8,0.5,6.9,0.5c3.1,0,13.9-0.4,20.7-4.9c7.9-5.3,11.9-14.2,11.9-26.5
		c0-4.8-0.5-11.1-3.2-16.7c5.3-2.8,10.4-8,10.4-16.6h-8.5c0,5.6-3.9,8.4-7,9.7c-0.3-0.3-0.5-0.6-0.9-0.9c-6.1-5.1-16.1-6.9-23.3-6.9
		c-7.3,0-17.3,1.8-23.4,7c-8.1,6.7-9.1,16.6-9.1,24.4c0,12.3,4,21.2,11.8,26.5c0.5,0.3,1,0.6,1.5,0.8c-3.9,3-6.7,6.8-8.2,10.4
		c-2.6,6-2.3,12.1,0.7,16.3c5.7,7.8,15.6,6.5,20.8,4.4l16.9-3.9c0.2,0,15.8-3.6,20.9,8c1.7,4,1.7,7.9,0.1,11.7
		c-2.8,6.2-10,11.9-19,14.9c-10.8,3.6-27.2,4.5-37.7-4.8c-4.4-3.9-3.6-12.2-2.9-15.1l-4.1-1l4.1,1l-8.2-2
		c-0.1,0.6-3.6,15.3,5.6,23.4c7.9,7,17.8,9.5,27.5,9.5c6.6,0,13-1.2,18.5-3c11.3-3.8,20.3-11,24.1-19.5
		C483.2,295.2,483.2,288.8,480.5,282.7z M416.8,223.6c0-9,1.8-14.4,6.1-17.9c3.5-2.9,10.9-5,18-5c5.9,0,13.8,1.5,17.9,4.9
		c4.3,3.6,6.1,8.9,6.1,18c0,9.4-2.6,15.8-8.1,19.4c-3.6,2.4-10.6,3.5-16,3.5c-5.4,0-12.4-1.1-16-3.5
		C419.4,239.4,416.8,233,416.8,223.6z"/>
	<circle fill="#E2E1D4" cx="503.8" cy="158.8" r="7.1"/>
	<path fill="#E2E1D4" d="M95.1,287.2h8.5v-46.1c0-15.1,2.3-24.6,7.6-30.6c4.7-5.5,13.5-8,20.2-8c6.6,0,15.4,2.4,20.1,7.9
		c5.3,6.1,7.6,15.7,7.6,30.9v46h8.5v-46c0-11.7-1.1-26.5-9.7-36.4c-6.9-8-18.6-10.9-26.5-10.9c-8,0-19.7,2.9-26.6,11
		c-0.4,0.5-0.7,1-1.1,1.5v-12h-8.5V241c0,0.1,0,0.2,0,0.2h0V287.2z"/>
	<path fill="#E2E1D4" d="M533.7,287.2h8.5v-46.1c0-15.1,2.3-24.6,7.6-30.6c4.7-5.5,13.5-8,20.2-8c6.6,0,15.4,2.4,20.1,7.9
		c5.3,6.1,7.6,15.7,7.6,30.9v46h8.5v-46c0-11.7-1.1-26.5-9.7-36.4c-6.9-8-18.6-10.9-26.5-10.9c-8,0-19.7,2.9-26.6,11
		c-0.4,0.5-0.7,1-1.1,1.5v-12h-8.5V241c0,0.1,0,0.2,0,0.2h0V287.2z"/>
	<path fill="#E2E1D4" d="M261,243.6v-4.2c0-12.1-1.2-24.7-10-34.6c-7-8-19-10.8-27.1-10.8c-10,0-19.2,4-25.3,10.9
		c-7.6,8.7-11.8,21.6-11.8,36.4c0,17.5,4.8,31.2,13.9,39.5c6.7,6.2,19.5,7.8,26.1,7.8c7.6,0,18.8-2,25.1-7.8c2-1.8,3.8-4,5.3-6.4
		l-7.1-4.6c-1.1,1.8-2.5,3.4-3.9,4.7c-4.2,3.8-12.9,5.5-19.3,5.5c-6.9,0-16.4-1.9-20.3-5.6c-6.8-6.2-10.6-17.2-11-30.9H261z
		 M195.7,235.1c0.9-10.1,4.2-18.7,9.4-24.6c4.5-5.1,11.4-8,18.9-8c6.8,0,15.9,2.5,20.7,7.9c5.1,5.7,7.3,12.8,7.8,24.7H195.7z"/>
	<path fill="#E2E1D4" d="M64.7,204.7c-7.3-7.9-19.6-10.7-28-10.7c-8.4,0-20.8,2.8-28.1,10.9c-9.1,10-10.3,24.7-10.3,36.4
		c0,18.6,4.4,31.6,13.4,39.6c6.5,5.7,17.1,7.7,24.9,7.7c7.8,0,18.4-2,24.9-7.7c9.1-8,13.5-20.9,13.5-39.6
		C75,229.5,73.9,214.7,64.7,204.7z M43.3,270.6h-8.9v-20l-5.8,3.4l-4.7-6.6l12.5-7.9h6.9V270.6z M36.6,225.1
		c-11.3,0-21.6,2.9-29.4,7.8c-0.2,2-0.3,4-0.3,6.2c0.2-13.8,2.7-22.7,8-28.5c5.1-5.6,14.6-8.1,21.8-8.1c7.2,0,16.6,2.5,21.7,8
		c5.3,5.8,7.9,14.7,8.1,28.6c0-2.2-0.2-4.2-0.3-6.1C58.4,228,48,225.1,36.6,225.1z"/>
</g>
</svg>
