<?xml version="1.0" encoding="utf-8"?>
<!-- Generator: Adobe Illustrator 17.1.0, SVG Export Plug-In . SVG Version: 6.00 Build 0)  -->
<!DOCTYPE svg PUBLIC "-//W3C//DTD SVG 1.1//EN" "http://www.w3.org/Graphics/SVG/1.1/DTD/svg11.dtd">
<svg version="1.1" id="Layer_2" xmlns="http://www.w3.org/2000/svg" xmlns:xlink="http://www.w3.org/1999/xlink" x="0px" y="0px"
	 viewBox="837.9 168.1 614.8 483.4" enable-background="new 837.9 168.1 614.8 483.4" xml:space="preserve">
<g>
	<polygon fill="#FDFFFF" points="1446.6,504.4 841.4,637.3 841.4,651.5 1446.6,518.6 	"/>
	<g>
		<path fill="#FDFFFF" d="M865.5,324.5l-24.6,5.4c-2,0.5-3.1-0.4-3.1-2.5v-19.9c0-2.1,1-3.4,3.1-3.8l24.6-5.4c2-0.5,3.1,0.4,3.1,2.5
			v19.9C868.6,322.8,867.6,324.1,865.5,324.5z M865.5,429.3l-24.6,5.4c-2,0.5-3.1-0.4-3.1-2.5v-88.5c0-2.1,1-3.4,3.1-3.8l24.6-5.4
			c2-0.5,3.1,0.4,3.1,2.5v88.5C868.6,427.6,867.6,428.9,865.5,429.3z"/>
		<path fill="#FDFFFF" d="M880.9,362.3l-5.1-3.8l5.1-6.1V362.3z M960.6,408.3l-26.5,5.9L913,362.9l-7.3,1.6v55.9l-24.8,5.5V288.7
			l59.4-13.1l15.8,10.9v50.4l-16.9,19.9L960.6,408.3z M905.7,339.1l25.7-5.7v-30.7l-25.7,5.7V339.1z"/>
		<path fill="#FDFFFF" d="M1037.1,391.4l-64.5,14.3V342l-5.2-3.7l5.2-6.1v-63.7l64-14.1v25.3l-39.3,8.7v30.6l33.9-7.5v25.4
			l-33.9,7.5v30.6l39.8-8.8V391.4z"/>
		<path fill="#FDFFFF" d="M1123.4,358l-15.8,17.8l-42.7,9.4l-15.9-10.8v-22.1l24.7-5.5V358l25-5.5v-30.6l-33.8,7.5l-15.9-10.9V266
			l15.9-17.9l42.7-9.4l15.8,10.8v21.3l-24.7,5.5v-10.3l-25,5.5V302l33.9-7.5l15.8,10.9V358z"/>
		<path fill="#FDFFFF" d="M1200,355.4l-64.5,14.3V306l-5.2-3.7l5.2-6.1v-63.7l64-14.1v25.3l-39.3,8.7v30.6l33.9-7.5v25.4l-33.9,7.5
			v30.6l39.8-8.8V355.4z"/>
		<path fill="#FDFFFF" d="M1211.8,289.2l-5.1-3.8l5.1-6.1V289.2z M1291.5,335.2l-26.5,5.9l-21.1-51.2l-7.3,1.6v55.9l-24.8,5.5V215.6
			l59.4-13.1l15.8,10.9v50.4l-16.9,19.9L1291.5,335.2z M1236.6,266l25.7-5.7v-30.7l-25.7,5.7V266z"/>
		<path fill="#FDFFFF" d="M1333.3,267.6c3.7-17.8,6.6-31.8,8.7-42.2c2.1-10.4,5-23.9,8.5-40.7l25.3-5.6L1346,322.9l-25.4,5.6
			l-29.9-130.6l25.4-5.6c3.5,15.3,6.3,27.7,8.4,37C1326.6,238.8,1329.6,251.5,1333.3,267.6z"/>
		<path fill="#FDFFFF" d="M1427.5,304.9l-6-29.2l-25.9,5.7l-6,31.9l-25.2,5.6l26.8-143.1l34.8-7.7l26.8,131.3L1427.5,304.9z
			 M1416.5,251.4l-8-39.3l-8,42.8L1416.5,251.4z"/>
	</g>
	<g>
		<path fill="#FDFFFF" d="M880.1,563.2l-5.2,32.3c-0.4,2.4-1.8,3.9-4.1,4.4L842,606c-1.9,0.4-2.9-0.2-2.9-1.8c0-0.3,0-0.7,0.1-1.1
			l27.5-145.4c0.5-2.4,1.9-3.9,4.2-4.4l46.2-9.8c2.3-0.5,3.7,0.4,4.1,2.7l25,134.3c0.1,0.4,0.1,0.7,0.1,1.1c0,1.6-1,2.7-2.9,3.1
			l-28.8,6.1c-2.3,0.5-3.6-0.4-4-2.7l-4.6-30.2L880.1,563.2z M893.7,479.9l-9.1,55.5l17.2-3.7L893.7,479.9z"/>
		<path fill="#FDFFFF" d="M995.2,514.9c-1.5,0.3-2.3,1.3-2.3,2.8l-0.5,52.9c0,2.4-1.2,3.8-3.4,4.2l-27.7,5.9
			c-2.3,0.5-3.4-0.4-3.4-2.8l1.2-139.8c0-2.4,1.2-3.8,3.5-4.3l27.7-5.9c2.2-0.5,3.3,0.5,3.3,2.8l-0.5,52.9c0,1.6,0.7,2.2,2.3,1.9
			l30.7-6.5c1.5-0.3,2.3-1.3,2.3-2.8l0.5-52.9c0-2.4,1.2-3.8,3.4-4.2l27.7-5.9c2.3-0.5,3.4,0.4,3.4,2.8l-1.2,139.8
			c0,2.4-1.2,3.8-3.5,4.3L1031,566c-2.2,0.5-3.3-0.5-3.3-2.8l0.5-52.9c0-1.6-0.7-2.2-2.3-1.9L995.2,514.9z"/>
		<path fill="#FDFFFF" d="M1171.2,503.3c-0.1,9.1-3.3,17.6-9.7,25.4c-6.4,7.8-14,12.6-23,14.5l-29.7,6.3c-8.9,1.9-16.5,0.3-22.8-4.8
			c-6.3-5.1-9.4-12.3-9.3-21.4l0.7-80.7c0.1-9.1,3.3-17.6,9.7-25.4c6.4-7.8,14-12.6,23-14.5l29.7-6.3c8.9-1.9,16.5-0.3,22.8,4.8
			c6.3,5.1,9.4,12.3,9.3,21.4L1171.2,503.3z M1111.3,510.9c-0.1,5.9,2.8,8.2,8.5,7l8.2-1.7c5.7-1.2,8.6-4.8,8.7-10.6l0.6-70.5
			c0.1-5.9-2.8-8.2-8.5-7l-8.2,1.7c-5.7,1.2-8.6,4.8-8.7,10.6L1111.3,510.9z"/>
		<path fill="#FDFFFF" d="M1270.8,441.8c5.3,5,7.9,11.7,7.9,20.1l-0.4,48.2c0,2.3-1.2,3.8-3.5,4.3l-28.1,5.9
			c-2.3,0.5-3.4-0.4-3.4-2.8l0.4-47.4c0-5.2-2.5-7.3-7.6-6.2l-13.9,2.9c-1.3,0.3-1.9,1.2-1.9,2.8l-0.5,52.9c0,2.4-1.2,3.8-3.5,4.3
			l-27.6,5.8c-2.3,0.5-3.4-0.4-3.4-2.8l1.2-139.8c0-2.4,1.2-3.8,3.5-4.3l56.6-12c8.9-1.9,16.5-0.3,22.8,4.8
			c6.3,5.1,9.4,12.3,9.3,21.4l-0.2,18.8C1278.5,426.9,1275.9,434.6,1270.8,441.8L1270.8,441.8z M1220.8,410.9l-0.2,24.7
			c0,1.6,0.7,2.2,2.3,1.9l14.5-3.1c4.5-0.9,6.7-3.7,6.8-8.3l0.1-15.7c0-4.6-2.2-6.4-6.6-5.4l-14.5,3.1
			C1221.6,408.3,1220.8,409.3,1220.8,410.9z"/>
		<path fill="#FDFFFF" d="M1330.7,467.8l-5.2,32.3c-0.4,2.4-1.8,3.9-4.1,4.4l-28.8,6.1c-1.9,0.4-2.9-0.2-2.9-1.8
			c0-0.3,0-0.7,0.1-1.1l27.5-145.4c0.5-2.4,1.9-3.9,4.1-4.4l46.2-9.8c2.3-0.5,3.7,0.4,4.1,2.7l25,134.3c0.1,0.4,0.1,0.7,0.1,1.1
			c0,1.6-1,2.7-2.9,3.1l-28.8,6.1c-2.3,0.5-3.6-0.4-4-2.7l-4.6-30.2L1330.7,467.8z M1344.4,384.5l-9.1,55.5l17.2-3.7L1344.4,384.5z"
			/>
		<path fill="#FDFFFF" d="M1412.2,455.9l27.6-5.8c2.3-0.5,3.4,0.4,3.4,2.8l-0.2,22.3c0,2.4-1.2,3.8-3.5,4.3l-27.6,5.8
			c-2.3,0.5-3.4-0.4-3.4-2.8l0.2-22.3C1408.8,457.9,1409.9,456.4,1412.2,455.9z M1413.3,338.4l27.6-5.8c2.3-0.5,3.4,0.4,3.4,2.8
			l-0.9,99.2c0,2.4-1.2,3.8-3.5,4.3l-27.6,5.8c-2.3,0.5-3.4-0.4-3.4-2.8l0.9-99.2C1409.8,340.3,1411,338.9,1413.3,338.4z"/>
	</g>
</g>
</svg>
