<?xml version="1.0" encoding="utf-8"?>
<!-- Generator: Adobe Illustrator 18.0.0, SVG Export Plug-In . SVG Version: 6.00 Build 0)  -->
<!DOCTYPE svg PUBLIC "-//W3C//DTD SVG 1.1//EN" "http://www.w3.org/Graphics/SVG/1.1/DTD/svg11.dtd">
<svg version="1.1" id="Capa_1" xmlns="http://www.w3.org/2000/svg" xmlns:xlink="http://www.w3.org/1999/xlink" x="0px" y="0px"
	 viewBox="68.3 595.3 612 103.3" enable-background="new 68.3 595.3 612 103.3" xml:space="preserve">
<g>
	<g>
		<path fill="#938D84" d="M651.7,675.6c-7.7,0-14.8-3-20.3-8.4c-5.4-5.4-8.4-12.6-8.4-20.3s3-14.8,8.4-20.3
			c5.4-5.4,12.6-8.4,20.3-8.4c7.6,0,14.8,3,20.3,8.4c5.4,5.4,8.4,12.6,8.4,20.3c0,7.7-3,14.8-8.4,20.3
			C666.5,672.6,659.3,675.6,651.7,675.6z M651.7,620.9c-7,0-13.5,2.7-18.4,7.6c-4.9,4.9-7.6,11.5-7.6,18.4s2.7,13.5,7.6,18.4
			c4.9,4.9,11.5,7.6,18.4,7.6c7,0,13.5-2.7,18.4-7.6c4.9-4.9,7.6-11.5,7.6-18.4s-2.7-13.5-7.6-18.4S658.6,620.9,651.7,620.9z"/>
	</g>
	<g>
		<path fill="#938D84" d="M632.6,656.7v-19.5h5.9l3.5,13.3l3.5-13.3h5.9v19.5h-3.7v-15.3l-3.9,15.3h-3.8l-3.9-15.3v15.3H632.6z"/>
		<path fill="#938D84" d="M655.4,656.7v-19.5h8.3c2.1,0,3.6,0.2,4.5,0.5c0.9,0.4,1.7,1,2.3,1.9c0.6,0.9,0.9,1.9,0.9,3.1
			c0,1.5-0.4,2.7-1.3,3.6c-0.9,0.9-2.1,1.6-3.9,1.8c0.9,0.5,1.6,1,2.1,1.6c0.6,0.6,1.3,1.7,2.2,3.2l2.4,3.8h-4.7l-2.8-4.2
			c-1-1.5-1.7-2.5-2.1-2.9c-0.4-0.4-0.8-0.7-1.2-0.8c-0.4-0.1-1.1-0.2-2-0.2h-0.8v8.1L655.4,656.7L655.4,656.7z M659.3,645.5h2.9
			c1.9,0,3.1-0.1,3.5-0.2s0.8-0.4,1.1-0.8c0.3-0.4,0.4-0.9,0.4-1.5c0-0.7-0.2-1.2-0.5-1.6s-0.8-0.7-1.5-0.8c-0.3,0-1.3-0.1-2.9-0.1
			h-3.1V645.5L659.3,645.5z"/>
	</g>
	<path fill="#938D84" d="M538.5,618.4h26l9.1,15.9l10.5-15.9h24.1l-19.5,27.2l20.9,29.9h-25.5l-10.5-18.4l-12.4,18.4h-23.7
		l20.8-29.9L538.5,618.4z M514,641.9c-0.4-4.2-1.6-7.3-3.4-9.1c-1.9-1.8-4.3-2.8-7.3-2.8c-3.5,0-6.3,1.4-8.3,4.1
		c-1.3,1.7-2.2,4.3-2.5,7.7L514,641.9L514,641.9z M536.2,652.4h-43.9c0.4,3.5,1.3,6.1,2.8,7.8c2.1,2.5,4.9,3.7,8.3,3.7
		c2.1,0,4.2-0.5,6.1-1.6c1.2-0.7,2.5-1.9,3.8-3.6l21.6,2c-3.3,5.7-7.3,9.8-11.9,12.4c-4.7,2.5-11.3,3.7-20.1,3.7
		c-7.6,0-13.5-1.1-17.8-3.2c-4.3-2.1-7.9-5.5-10.8-10.2s-4.3-10.1-4.3-16.4c0-8.9,2.9-16.1,8.6-21.6c5.7-5.5,13.6-8.3,23.7-8.3
		c8.2,0,14.6,1.2,19.3,3.7c4.7,2.5,8.3,6.1,10.8,10.7c2.5,4.7,3.7,10.8,3.7,18.3L536.2,652.4L536.2,652.4z M362.9,618.4h20.4v8.3
		c2.9-3.5,5.9-5.9,8.9-7.4c3-1.5,6.6-2.2,10.8-2.2c4.5,0,8.1,0.8,10.8,2.4c2.7,1.6,4.8,4,6.5,7.2c3.4-3.7,6.6-6.3,9.4-7.6
		c2.8-1.3,6.3-2,10.5-2c6.1,0,10.9,1.8,14.3,5.5c3.5,3.6,5.2,9.3,5.2,17.1v35.8h-21.9V643c0-2.6-0.5-4.5-1.5-5.8
		c-1.5-2-3.3-2.9-5.5-2.9c-2.6,0-4.7,0.9-6.2,2.8c-1.6,1.9-2.4,4.9-2.4,9v29.4h-21.9V644c0-2.5-0.1-4.2-0.4-5.1
		c-0.5-1.4-1.3-2.6-2.4-3.5c-1.2-0.9-2.5-1.3-4-1.3c-2.5,0-4.6,1-6.2,2.8c-1.6,1.9-2.4,5-2.4,9.4v29.1h-21.9L362.9,618.4
		L362.9,618.4z M330.5,641.9c-0.4-4.2-1.6-7.3-3.4-9.1c-1.9-1.8-4.3-2.8-7.3-2.8c-3.5,0-6.3,1.4-8.3,4.1c-1.3,1.7-2.2,4.3-2.5,7.7
		L330.5,641.9L330.5,641.9z M352.7,652.4h-43.9c0.4,3.5,1.3,6.1,2.8,7.8c2.1,2.5,4.9,3.7,8.3,3.7c2.1,0,4.2-0.5,6.1-1.6
		c1.2-0.7,2.5-1.9,3.8-3.6l21.6,2c-3.3,5.7-7.3,9.8-11.9,12.4c-4.7,2.5-11.3,3.7-20.1,3.7c-7.6,0-13.5-1.1-17.8-3.2
		c-4.3-2.1-7.9-5.5-10.8-10.2s-4.3-10.1-4.3-16.4c0-8.9,2.9-16.1,8.6-21.6c5.7-5.5,13.6-8.3,23.7-8.3c8.2,0,14.6,1.2,19.3,3.7
		c4.7,2.5,8.3,6.1,10.8,10.7c2.5,4.7,3.7,10.8,3.7,18.3L352.7,652.4L352.7,652.4z M254.1,646.8c0-4.5-0.9-7.8-2.8-10
		c-1.9-2.2-4.3-3.3-7.2-3.3c-2.5,0-4.7,1.1-6.4,3.2c-1.7,2.1-2.6,5.7-2.6,10.6c0,4.7,0.9,8.1,2.7,10.2c1.8,2.2,4,3.2,6.6,3.2
		c2.8,0,5.1-1.1,7-3.3C253.2,655.3,254.1,651.7,254.1,646.8z M276,596.7v78.8h-20.5v-8.4c-2.9,3.6-5.5,6-7.8,7.3
		c-3.2,1.6-6.7,2.5-10.5,2.5c-7.8,0-13.7-2.9-17.8-8.9c-4.1-5.9-6.1-13.1-6.1-21.6c0-9.5,2.3-16.7,6.8-21.7c4.5-5,10.3-7.5,17.3-7.5
		c3.4,0,6.5,0.6,9.3,1.7c2.8,1.2,5.2,2.9,7.4,5.2v-27.3H276z M144.3,618.4h23.1l11.8,38l10.9-38h21.6l-22.6,61
		c-2.6,7-5.2,11.6-7.9,14.1c-3.8,3.5-9.6,5.2-17.4,5.2c-3.2,0-8-0.4-14.6-1.3l-1.7-15.3c3.1,1,6.7,1.5,10.5,1.5
		c2.6,0,4.7-0.6,6.3-1.8c1.6-1.2,2.9-3.3,4.1-6.3L144.3,618.4z M68.3,649.4l23.2-1.4c0.5,3.8,1.5,6.6,3.1,8.6
		c2.5,3.2,6.1,4.8,10.8,4.8c3.5,0,6.1-0.8,8-2.4c1.9-1.6,2.8-3.5,2.8-5.7c0-2-0.9-3.9-2.7-5.5c-1.8-1.6-5.9-3.1-12.5-4.6
		c-10.7-2.4-18.3-5.6-22.8-9.6c-4.6-4-6.9-9-6.9-15.2c0-4.1,1.2-7.9,3.5-11.5c2.3-3.6,5.9-6.4,10.6-8.5c4.7-2.1,11.2-3.1,19.4-3.1
		c10.1,0,17.8,1.9,23,5.6c5.3,3.7,8.4,9.7,9.4,17.9l-22.9,1.3c-0.6-3.5-1.9-6.1-3.9-7.7c-1.9-1.6-4.6-2.4-8.1-2.4
		c-2.8,0-5,0.6-6.4,1.8c-1.4,1.2-2.2,2.7-2.2,4.4c0,1.2,0.6,2.4,1.8,3.4c1.2,1,3.9,2,8.2,2.9c10.6,2.3,18.3,4.6,22.9,7
		c4.6,2.3,8,5.2,10.1,8.7c2.1,3.5,3.2,7.4,3.2,11.7c0,5-1.4,9.7-4.2,14c-2.8,4.3-6.7,7.5-11.7,9.7c-5,2.2-11.3,3.3-19,3.3
		c-13.4,0-22.7-2.6-27.8-7.7C71.9,663.9,69,657.4,68.3,649.4z"/>
</g>
</svg>
