<?xml version="1.0" encoding="utf-8"?>
<!-- Generator: Adobe Illustrator 17.1.0, SVG Export Plug-In . SVG Version: 6.00 Build 0)  -->
<!DOCTYPE svg PUBLIC "-//W3C//DTD SVG 1.1//EN" "http://www.w3.org/Graphics/SVG/1.1/DTD/svg11.dtd">
<svg version="1.1" id="Capa_1" xmlns="http://www.w3.org/2000/svg" xmlns:xlink="http://www.w3.org/1999/xlink" x="0px" y="0px"
	 viewBox="68.3 251 5747.2 970.1" enable-background="new 68.3 251 5747.2 970.1" xml:space="preserve">
<g>
	<g>
		<path fill="#938D84" d="M5546.5,1004.7c-71.9,0-139.4-28-190.2-78.8c-50.8-50.8-78.8-118.4-78.8-190.2c0-71.8,28-139.4,78.8-190.2
			c50.8-50.8,118.4-78.8,190.2-78.8c71.8,0,139.4,28,190.2,78.8c50.8,50.8,78.8,118.4,78.8,190.2c0,71.9-28,139.4-78.8,190.2
			S5618.4,1004.7,5546.5,1004.7z M5546.5,490.7c-65.4,0-127,25.5-173.2,71.8c-46.3,46.3-71.8,107.8-71.8,173.2
			c0,65.4,25.5,127,71.8,173.2s107.8,71.8,173.2,71.8c65.4,0,127-25.5,173.2-71.8c46.3-46.3,71.8-107.8,71.8-173.2
			c0-65.4-25.5-127-71.8-173.2S5612,490.7,5546.5,490.7z"/>
	</g>
	<g>
		<path fill="#938D84" d="M5368,827.2v-183h55.3l33.2,124.8l32.8-124.8h55.4v183h-34.3v-144l-36.3,144h-35.6l-36.2-144v144H5368z"/>
		<path fill="#938D84" d="M5581.6,827.2v-183h77.8c19.6,0,33.8,1.6,42.6,4.9c8.9,3.3,16,9.1,21.3,17.5c5.3,8.4,8,18,8,28.8
			c0,13.7-4,25.1-12.1,34c-8.1,8.9-20.1,14.6-36.2,16.9c8,4.7,14.6,9.8,19.8,15.4c5.2,5.6,12.2,15.5,21,29.7l22.3,35.7h-44.2
			l-26.7-39.8c-9.5-14.2-16-23.2-19.5-26.9c-3.5-3.7-7.2-6.2-11.1-7.6c-3.9-1.4-10.1-2.1-18.6-2.1h-7.5v76.4H5581.6z M5618.5,721.6
			h27.3c17.7,0,28.8-0.7,33.2-2.2c4.4-1.5,7.9-4.1,10.4-7.7c2.5-3.7,3.7-8.2,3.7-13.7c0-6.2-1.6-11.1-4.9-14.9
			c-3.3-3.8-7.9-6.2-13.9-7.2c-3-0.4-12-0.6-27-0.6h-28.8V721.6z"/>
	</g>
	<path fill="#938D84" d="M4483.8,467.6h243.8l85.3,149.4l98.9-149.4h226.7l-182.8,255.3l195.9,280.6h-239.8l-98.9-172.6
		l-116.6,172.6h-222.6l194.9-280.6L4483.8,467.6z M4253.6,688.1c-4.1-39.8-14.8-68.2-32-85.3c-17.4-17.2-40.2-25.9-68.4-25.9
		c-32.7,0-58.8,13.1-78.4,38.9c-12.4,16.2-20.3,40.1-23.6,72.2H4253.6z M4462.4,786.5h-411.8c3.6,33.1,12.6,57.5,26.7,73.7
		c19.8,23.3,45.8,34.8,77.7,34.8c20.1,0,39.4-5,57.5-15.2c11.2-6.4,23.1-17.6,35.8-33.8l202.4,18.6c-31,53.9-68.2,92.5-112,116
		c-43.8,23.2-106.5,35-188.3,35c-71,0-126.8-10-167.6-30c-40.7-20-74.4-51.9-101.1-95.5c-26.7-43.6-40.2-94.7-40.2-153.6
		c0-83.7,26.9-151.6,80.5-203.3c53.8-51.8,127.8-77.9,222.4-77.9c76.7,0,137.3,11.7,181.6,35c44.4,23.1,78.4,56.9,101.5,100.8
		c23.2,44.1,34.8,101.5,34.8,172.1V786.5z M2835.2,467.6H3027v78.2c27.7-32.7,55.5-55.8,83.6-69.7c28.1-13.8,62-20.7,101.8-20.7
		c42.7,0,76.5,7.6,101.3,22.7c25,15.2,45.3,37.7,61.2,67.7c32.2-35,61.7-58.9,88.4-71.5c26.5-12.6,59.3-18.9,98.4-18.9
		c57.5,0,102.5,17.1,134.7,51.3c32.4,34.1,48.4,87.5,48.4,160.2v336.6h-205.9V698.3c0-24.3-4.6-42.4-14.1-54.1
		c-13.8-18.4-31-27.7-51.5-27.7c-24.1,0-43.8,8.8-58.6,26.2c-14.8,17.6-22.1,45.7-22.1,84.4v276.5h-206.1V708.2
		c0-23.6-1.4-39.5-4-47.9c-4.5-13.4-12.1-24.3-22.8-32.5c-10.9-8.3-23.4-12.4-37.9-12.4c-23.6,0-42.9,9-58.1,26.7
		c-15.2,17.9-22.7,47.2-22.7,87.9v273.6h-205.9V467.6z M2530.4,688.1c-4.1-39.8-14.8-68.2-32-85.3c-17.4-17.2-40.2-25.9-68.4-25.9
		c-32.7,0-58.8,13.1-78.4,38.9c-12.4,16.2-20.3,40.1-23.6,72.2H2530.4z M2739.3,786.5h-411.8c3.6,33.1,12.6,57.5,26.7,73.7
		c19.8,23.3,45.8,34.8,77.7,34.8c20.1,0,39.4-5,57.5-15.2c11.2-6.4,23.1-17.6,35.8-33.8l202.4,18.6c-31,53.9-68.2,92.5-112,116
		c-43.8,23.2-106.5,35-188.3,35c-71,0-126.8-10-167.6-30c-40.7-20-74.4-51.9-101.1-95.5c-26.7-43.6-40.2-94.7-40.2-153.6
		c0-83.7,26.9-151.6,80.5-203.3c53.8-51.8,127.8-77.9,222.4-77.9c76.7,0,137.3,11.7,181.6,35c44.4,23.1,78.4,56.9,101.5,100.8
		c23.3,44.1,34.8,101.5,34.8,172.1V786.5z M1813.1,734.1c0-42.2-8.8-73.5-26.7-94.2c-17.7-20.7-40.3-31-67.5-31
		c-23.9,0-43.9,10-60.1,29.8c-16.2,19.8-24.3,53.1-24.3,99.9c0,43.8,8.4,75.8,25,96.1c16.7,20.3,37.4,30.5,61.8,30.5
		c26.4,0,48.2-10.2,65.7-30.7C1804.4,813.8,1813.1,780.4,1813.1,734.1z M2019.1,263.6v740h-192.3v-79.2
		c-27,33.6-51.5,56.3-73.7,68.2c-29.6,15.3-62.5,23.1-98.9,23.1c-73,0-128.8-27.7-167.5-83.2c-38.4-55.5-57.7-123-57.7-202.4
		c0-88.9,21.2-156.8,63.9-203.8c42.6-47.2,96.7-70.8,162.1-70.8c32.1,0,61,5.5,87.2,16.2c26,10.9,49.1,26.9,69.4,48.4V263.6H2019.1z
		 M781.6,467.6h216.9l110.6,356.8l102.5-356.8H1414l-212.6,572.8c-24.1,65.3-48.9,109.4-74.3,132.1c-35.7,32.4-89.9,48.6-163,48.6
		c-29.6,0-75.3-4.1-137.3-12.2l-16-143.3c29.5,9.5,62.6,14.1,98.9,14.1c24.1,0,43.8-5.5,58.8-16.5c15-11.2,27.7-31,38.1-59.6
		L781.6,467.6z M68.3,758.7l217.6-13.6c4.7,35.3,14.3,62.2,28.8,80.8c23.4,30,57.2,44.8,101,44.8c32.6,0,57.7-7.6,75.5-22.9
		c17.6-15.3,26.3-33.1,26.3-53.2c0-19.1-8.3-36.3-25.2-51.5c-16.9-15.2-55.8-29.4-117.1-42.9c-100.3-22.6-171.8-52.4-214.5-89.8
		c-43.1-37.4-64.6-84.9-64.6-142.8c0-38.1,11-74.1,33.1-107.9c22-33.8,55.1-60.3,99.4-79.7c44.3-19.3,104.9-29,181.9-29
		c94.6,0,166.8,17.6,216.4,52.7c49.6,35.2,79.1,91.2,88.6,167.8l-215.5,12.6c-5.7-33.2-17.7-57.5-36.2-72.7
		c-18.3-15-43.6-22.6-75.8-22.6c-26.7,0-46.7,5.5-60.1,16.9c-13.4,11.2-20.2,25-20.2,41.2c0,11.7,5.5,22.2,16.6,31.7
		c10.8,9.8,36.3,18.8,76.8,27.2c100,21.5,171.5,43.4,214.7,65.5c43.2,22,74.8,49.3,94.4,82c19.6,32.6,29.6,69.1,29.6,109.6
		c0,47.4-13.3,91.1-39.4,131.1c-26.2,40.2-62.9,70.5-110.1,91.2c-47.1,20.7-106.5,31-178.1,31c-125.8,0-212.9-24.1-261.4-72.7
		C102.1,895,74.7,833.5,68.3,758.7z"/>
</g>
</svg>
