<?xml version="1.0" encoding="utf-8"?>
<!-- Generator: Adobe Illustrator 17.1.0, SVG Export Plug-In . SVG Version: 6.00 Build 0)  -->
<!DOCTYPE svg PUBLIC "-//W3C//DTD SVG 1.1//EN" "http://www.w3.org/Graphics/SVG/1.1/DTD/svg11.dtd">
<svg version="1.1" id="Layer_1" xmlns="http://www.w3.org/2000/svg" xmlns:xlink="http://www.w3.org/1999/xlink" x="0px" y="0px"
	 viewBox="62.7 291.3 5499 1096.2" enable-background="new 62.7 291.3 5499 1096.2" xml:space="preserve">
<g>
	<path fill="#938D85" d="M3120.8,1363V607.2h378.5c169.9,0,262.8,114.5,262.8,251.6c0,136-92.9,250.4-262.8,250.4h-183.6V1363
		H3120.8z M3563.9,858.8c0-52.2-41.9-81.6-94.1-81.6h-154.1v162.1h154.1C3521.9,939.2,3563.9,909.8,3563.9,858.8z"/>
	<path fill="#938D85" d="M3733,1088.8c0-154.2,111.1-286.7,296.9-286.7c188.1,0,299.2,132.5,299.2,286.7
		c0,154-111,287.8-299.2,287.8C3844.1,1376.6,3733,1242.9,3733,1088.8z M4150,1088.8c0-72.5-43-132.6-120.1-132.6
		c-74.8,0-117.8,60.1-117.8,132.6c0,73.6,43,133.7,117.8,133.7C4107,1222.5,4150,1162.4,4150,1088.8z"/>
	<rect x="4364.4" y="815.7" fill="#938D85" width="174.5" height="547.3"/>
	<path fill="#938D85" d="M4980,1363v-316.1c0-66.9-35.1-90.7-89.5-90.7c-52.1,0-86.1,28.3-106.5,53.2V1363h-174.5V815.7H4784v66.9
		c32.8-38.6,97.5-80.5,190.4-80.5c123.5,0,180.2,72.5,180.2,173.4V1363H4980z"/>
	<path fill="#938D85" d="M5261.3,1215.7V966.4h-90.6V815.7h90.6V666.1h174.5v149.6h111v150.7h-111V1167c0,31.7,18.1,55.5,47.6,55.5
		c19.2,0,38.5-6.8,44.2-13.6l34.1,131.4c-21.6,20.4-64.6,36.3-129.2,36.3C5321.4,1376.6,5261.3,1321.1,5261.3,1215.7z"/>
	<path fill="#938D85" d="M4645.2,514l-52.4,52.4c-38.1-36.7-87.9-56.9-140.7-56.9c-52.9-0.1-102.6,20-140.5,56.5l-52.3-52.3
		C4366.4,409.5,4537.9,409.6,4645.2,514L4645.2,514z"/>
	<path fill="#938D85" d="M4351.9,666.1c0-55.6,44.2-99.7,99.7-99.7c55.5,0,100.9,44.1,100.9,99.7c0,55.6-45.4,100.8-100.9,100.8
		C4396.1,767,4351.9,721.7,4351.9,666.1z M4399,713.4c29.5,28.8,76.9,28.8,106.4,0.1l-14.4-14.4c-10.4,10.1-24.1,15.6-38.7,15.6
		c-14.6,0-28.3-5.6-38.8-15.7L4399,713.4L4399,713.4z"/>
	<path fill="#938D85" d="M4747.2,412l-52.3,52.3c-134.8-131.9-350.9-132.1-485.4-0.6l-52.2-52.3
		C4320.5,251.1,4583.6,251.3,4747.2,412L4747.2,412z"/>
	<g>
		<g>
			<path fill="#938D85" d="M62.7,1265.7l57.5-73.6c49.4,57.5,132.2,110.4,240.2,110.4c136.8,0,180.5-73.6,180.5-133.3
				c0-197.7-454-87.4-454-360.9c0-126.4,112.7-213.8,264.4-213.8c116.1,0,206.9,40.2,271.2,108l-57.5,70.1
				c-57.4-64.3-137.9-91.9-221.8-91.9c-90.8,0-157.5,49.4-157.5,121.8c0,172.4,454,73.6,454,359.8c0,110.3-75.9,225.3-282.7,225.3
				C224.7,1387.5,125.9,1336.9,62.7,1265.7z"/>
			<path fill="#938D85" d="M746.4,1095.6c0-160.9,105.7-290.8,274.7-290.8c168.9,0,274.7,129.9,274.7,290.8
				c0,160.9-105.8,291.9-274.7,291.9C852.1,1387.5,746.4,1256.5,746.4,1095.6z M1205,1095.6c0-112.6-65.5-213.8-183.9-213.8
				c-118.4,0-183.9,101.2-183.9,213.8c0,113.8,65.5,215,183.9,215C1139.5,1310.5,1205,1209.3,1205,1095.6z"/>
			<path fill="#938D85" d="M1403.7,1095.6c0-164.4,111.5-290.8,277-290.8c101.2,0,160.9,41.4,203.4,96.5l-57.4,51.7
				c-36.8-50.6-83.9-71.3-141.4-71.3c-117.3,0-191.9,90.8-191.9,213.8c0,123,74.7,215,191.9,215c57.4,0,104.6-23,141.4-72.4
				l57.4,52.8c-42.5,55.2-102.3,96.6-203.4,96.6C1515.2,1387.5,1403.7,1259.9,1403.7,1095.6z"/>
			<path fill="#938D85" d="M1990.9,681.8c0-32.2,26.4-58.6,58.6-58.6c32.2,0,57.4,26.5,57.4,58.6c0,32.2-25.3,57.5-57.4,57.5
				C2017.4,739.3,1990.9,714,1990.9,681.8z M2005.9,1373.7V818.6h86.2v555.1H2005.9z"/>
			<path fill="#938D85" d="M2611.5,1373.7v-63.2c-44.8,50.5-109.2,77-183.9,77c-93.1,0-193.1-63.2-193.1-183.9
				c0-125.3,98.9-182.7,193.1-182.7c75.9,0,139.1,24.1,183.9,74.7v-100c0-73.6-59.8-116.1-140.2-116.1c-66.7,0-120.7,23-170.1,77
				l-40.2-59.8c59.8-62.1,131-91.9,221.8-91.9c118.4,0,214.9,52.9,214.9,187.3v381.6H2611.5z M2611.5,1256.5v-105.8
				c-33.3-44.8-92-67.8-151.7-67.8c-81.6,0-137.9,50.6-137.9,120.7c0,71.3,56.3,121.8,137.9,121.8
				C2519.6,1325.4,2578.2,1302.4,2611.5,1256.5z"/>
			<path fill="#938D85" d="M2871.2,1373.7V607.1h86.2v766.6H2871.2z"/>
		</g>
	</g>
</g>
</svg>
