<?xml version="1.0" encoding="utf-8"?>
<!-- Generator: Adobe Illustrator 18.0.0, SVG Export Plug-In . SVG Version: 6.00 Build 0)  -->
<!DOCTYPE svg PUBLIC "-//W3C//DTD SVG 1.1//EN" "http://www.w3.org/Graphics/SVG/1.1/DTD/svg11.dtd">
<svg version="1.1" id="Layer_1" xmlns="http://www.w3.org/2000/svg" xmlns:xlink="http://www.w3.org/1999/xlink" x="0px" y="0px"
	 viewBox="62.7 626.3 612 122" enable-background="new 62.7 626.3 612 122" xml:space="preserve">
<g>
	<path fill="#938D85" d="M403,745.6v-84.1h42.1c18.9,0,29.2,12.7,29.2,28c0,15.1-10.3,27.9-29.2,27.9h-20.4v28.2H403z M452.4,689.5
		c0-5.8-4.7-9.1-10.5-9.1h-17.2v18h17.2C447.7,698.4,452.4,695.1,452.4,689.5z"/>
	<path fill="#938D85" d="M471.2,715.1c0-17.2,12.4-31.9,33-31.9c20.9,0,33.3,14.7,33.3,31.9c0,17.1-12.4,32-33.3,32
		C483.5,747.1,471.2,732.2,471.2,715.1z M517.6,715.1c0-8.1-4.8-14.8-13.4-14.8c-8.3,0-13.1,6.7-13.1,14.8c0,8.2,4.8,14.9,13.1,14.9
		C512.8,729.9,517.6,723.2,517.6,715.1z"/>
	<rect x="541.4" y="684.7" fill="#938D85" width="19.4" height="60.9"/>
	<path fill="#938D85" d="M610,745.6v-35.2c0-7.4-3.9-10.1-10-10.1c-5.8,0-9.6,3.1-11.9,5.9v39.4h-19.4v-60.9h19.4v7.4
		c3.7-4.3,10.9-9,21.2-9c13.7,0,20.1,8.1,20.1,19.3v43.1H610z"/>
	<path fill="#938D85" d="M641.3,729.2v-27.7h-10.1v-16.8h10.1V668h19.4v16.6H673v16.8h-12.4v22.3c0,3.5,2,6.2,5.3,6.2
		c2.1,0,4.3-0.8,4.9-1.5l3.8,14.6c-2.4,2.3-7.2,4-14.4,4C648,747.1,641.3,740.9,641.3,729.2z"/>
	<path fill="#938D85" d="M572.7,651.1l-5.8,5.8c-4.2-4.1-9.8-6.3-15.7-6.3c-5.9,0-11.4,2.2-15.6,6.3l-5.8-5.8
		C541.7,639.5,560.8,639.5,572.7,651.1L572.7,651.1z"/>
	<path fill="#938D85" d="M540.1,668c0-6.2,4.9-11.1,11.1-11.1s11.2,4.9,11.2,11.1s-5.1,11.2-11.2,11.2
		C545,679.2,540.1,674.2,540.1,668z M545.3,673.3c3.3,3.2,8.6,3.2,11.8,0l-1.6-1.6c-1.2,1.1-2.7,1.7-4.3,1.7s-3.1-0.6-4.3-1.7
		L545.3,673.3L545.3,673.3z"/>
	<path fill="#938D85" d="M584.1,639.7l-5.8,5.8c-15-14.7-39.1-14.7-54-0.1l-5.8-5.8C536.6,621.8,565.8,621.8,584.1,639.7
		L584.1,639.7z"/>
	<g>
		<g>
			<path fill="#938D85" d="M62.7,734.7l6.4-8.2c5.5,6.4,14.7,12.3,26.7,12.3c15.2,0,20.1-8.2,20.1-14.8c0-22-50.5-9.7-50.5-40.2
				c0-14.1,12.5-23.8,29.4-23.8c12.9,0,23,4.5,30.2,12l-6.4,7.8c-6.4-7.2-15.3-10.2-24.7-10.2c-10.1,0-17.5,5.5-17.5,13.6
				c0,19.2,50.5,8.2,50.5,40c0,12.3-8.4,25.1-31.5,25.1C80.7,748.3,69.7,742.7,62.7,734.7z"/>
			<path fill="#938D85" d="M138.8,715.8c0-17.9,11.8-32.4,30.6-32.4c18.8,0,30.6,14.5,30.6,32.4s-11.8,32.5-30.6,32.5
				C150.6,748.3,138.8,733.7,138.8,715.8z M189.8,715.8c0-12.5-7.3-23.8-20.5-23.8s-20.5,11.3-20.5,23.8c0,12.7,7.3,23.9,20.5,23.9
				C182.5,739.7,189.8,728.5,189.8,715.8z"/>
			<path fill="#938D85" d="M211.9,715.8c0-18.3,12.4-32.4,30.8-32.4c11.3,0,17.9,4.6,22.6,10.7l-6.4,5.8c-4.1-5.6-9.3-7.9-15.7-7.9
				c-13.1,0-21.4,10.1-21.4,23.8s8.3,23.9,21.4,23.9c6.4,0,11.6-2.6,15.7-8.1l6.4,5.9c-4.7,6.1-11.4,10.8-22.6,10.8
				C224.4,748.3,211.9,734.1,211.9,715.8z"/>
			<path fill="#938D85" d="M277.3,669.8c0-3.6,2.9-6.5,6.5-6.5s6.4,2.9,6.4,6.5c0,3.6-2.8,6.4-6.4,6.4
				C280.2,676.2,277.3,673.3,277.3,669.8z M279,746.8V685h9.6v61.8H279z"/>
			<path fill="#938D85" d="M346.4,746.8v-7c-5,5.6-12.2,8.6-20.5,8.6c-10.4,0-21.5-7-21.5-20.5c0-13.9,11-20.3,21.5-20.3
				c8.4,0,15.5,2.7,20.5,8.3v-11.1c0-8.2-6.7-12.9-15.6-12.9c-7.4,0-13.4,2.6-18.9,8.6l-4.5-6.7c6.7-6.9,14.6-10.2,24.7-10.2
				c13.2,0,23.9,5.9,23.9,20.8v42.5H346.4z M346.4,733.7v-11.8c-3.7-5-10.2-7.5-16.9-7.5c-9.1,0-15.3,5.6-15.3,13.4
				c0,7.9,6.3,13.6,15.3,13.6C336.1,741.4,342.7,738.8,346.4,733.7z"/>
			<path fill="#938D85" d="M375.3,746.8v-85.3h9.6v85.3H375.3z"/>
		</g>
	</g>
</g>
</svg>
