<?xml version="1.0" encoding="utf-8"?>
<!-- Generator: Adobe Illustrator 18.0.0, SVG Export Plug-In . SVG Version: 6.00 Build 0)  -->
<!DOCTYPE svg PUBLIC "-//W3C//DTD SVG 1.1//EN" "http://www.w3.org/Graphics/SVG/1.1/DTD/svg11.dtd">
<svg version="1.1" id="Capa_1" xmlns="http://www.w3.org/2000/svg" xmlns:xlink="http://www.w3.org/1999/xlink" x="0px" y="0px"
	 viewBox="779.9 1446.2 612 353" enable-background="new 779.9 1446.2 612 353" xml:space="preserve">
<g>
	<path fill="#938D84" d="M1365.4,1503.8c14.7,0,26.5-11.8,26.5-26.5c0-14.8-11.8-26.6-26.5-26.6c-14.8,0-26.5,11.8-26.5,26.6
		C1338.9,1491.9,1350.6,1503.8,1365.4,1503.8L1365.4,1503.8z M1365.4,1497.5c-11.6,0-20.2-8.4-20.2-20.2c0-11.9,8.6-20.3,20.2-20.3
		c11.4,0,20.2,8.4,20.2,20.3C1385.6,1489.1,1376.8,1497.5,1365.4,1497.5L1365.4,1497.5z M1371.4,1479.1c4.9-0.3,7.5-2.4,7.5-7.5
		c0-7.3-4.4-8.4-10.7-8.4h-13.4v27.6h6.1v-11.6h4.3l6.1,11.6h6.7L1371.4,1479.1L1371.4,1479.1z M1361,1474.9v-7h6
		c2.7,0,6.2,0,6.2,2.8c0,3.5-1.7,4.2-4.8,4.2L1361,1474.9L1361,1474.9z"/>
	<path fill="#938D84" d="M1240.9,1642.5h-59.6v-52h145.5v145.5h-52v-30.6c-24.5,19.2-55.3,30.6-88.8,30.6c-79.6,0-144-64.5-144-144
		s64.5-144,144-144c63.8,0,117.8,41.4,136.8,98.8h-77.6c-13.6-17.8-35.1-29.3-59.2-29.3c-41.2,0-74.5,33.4-74.5,74.5
		s33.4,74.5,74.5,74.5C1207.8,1666.6,1227.3,1657.3,1240.9,1642.5L1240.9,1642.5z"/>
	<path fill="#938D84" d="M858.3,1639.9c1.5,10.7,2.2,17.4,7.6,23.7c9,10,24.8,12.3,44,12.3c28.9,0,46.2-8,46.2-26.6
		c0-10.3-6-19.2-15.8-23.2c-7.9-3.3-17.3-5.6-56.4-13.6c-34.6-6.6-46.6-10.6-60.5-19.2c-23.7-14.6-36.4-36.8-36.4-63.7
		c0-51.1,46.6-83.3,120.6-83.3c47.7,0,84.2,12.9,104.5,37.8c8,9.4,17.1,28.3,18.7,45.6l0,2.1H951v-0.7
		c-4.6-21.3-18.1-30.1-46.5-30.1c-22.9,0-39.8,10.9-39.8,26.2c0,9.3,5.6,16.3,17.7,21.2c7.5,3,7.5,3,51.9,11
		c28.6,5.3,46.6,11,60.9,18.9c27.1,14.9,40.6,37.2,40.6,67.7c0,24.9-9,46.1-26.3,61.1c-21.8,18.6-54.9,28.2-98.9,28.2
		c-31.9,0-63.5-6-83.8-16.3c-18.8-9.3-32.7-23.6-40.6-42.5c-3.6-7.5-5.8-19.1-6.3-36.6L858.3,1639.9L858.3,1639.9z"/>
	<path fill="#938D84" d="M812,1754.2c-4.1-2.3-9.8-3.8-14.4-3.8c-9.2,0-15.9,6.1-15.9,15.5c0,8.9,5,10.9,12.5,13
		c2.6,0.8,7.3,1.9,7.3,5.3c0,3.2-3,4.6-5.8,4.6c-4.1,0-7.6-2.2-10.6-4.8l-5.1,9.7c4.7,3.3,10.4,5.2,16.2,5.2c4.6,0,9.5-1.3,13.1-4.3
		c3.7-3.1,4.8-7.8,4.8-12.4c0-7.4-5-10.7-11.4-12.6l-3.1-0.9c-2.1-0.7-5.3-1.7-5.3-4.4c0-2.6,2.9-3.8,5.1-3.8c2.9,0,5.7,1.2,7.9,3.1
		L812,1754.2L812,1754.2z"/>
	<path fill="#938D84" d="M842.8,1750.1c-13.3,0-25.5,9.8-25.5,23.7c0,14.9,10.7,25.4,25.5,25.4c14.8,0,25.5-10.5,25.5-25.4
		C868.2,1759.8,856,1750.1,842.8,1750.1L842.8,1750.1z M842.8,1761.7c7.2,0,13,5.8,13,12.2c0,7.9-5.9,13.7-13,13.7
		c-7.1,0-13-5.8-13-13.7C829.8,1767.5,835.6,1761.7,842.8,1761.7L842.8,1761.7z"/>
	<polygon fill="#938D84" points="900.3,1761.7 900.3,1751.6 873.8,1751.6 873.8,1797.7 885.8,1797.7 885.8,1779.6 898.9,1779.6 
		898.9,1769.5 885.8,1769.5 885.8,1761.7 	"/>
	<polygon fill="#938D84" points="925.3,1761.7 935.2,1761.7 935.2,1751.6 903.4,1751.6 903.4,1761.7 913.3,1761.7 913.3,1797.7 
		925.3,1797.7 	"/>
	<polygon fill="#938D84" points="947.1,1751.6 934.7,1751.6 948.4,1797.7 960.6,1797.7 969.6,1771 969.7,1771 977.8,1797.7 
		990,1797.7 1004.8,1751.6 992.3,1751.6 983.6,1781.4 983.5,1781.4 974.5,1751.6 964.9,1751.6 955.3,1781.4 955.1,1781.4 	"/>
	<path fill="#938D84" d="M1031.1,1789.7l3,8h12.8l-17.3-46.1h-13.1l-17.7,46.1h12.7l3.2-8H1031.1L1031.1,1789.7z M1027.9,1780.5
		h-9.9l4.9-14.6h0.1L1027.9,1780.5L1027.9,1780.5z"/>
	<path fill="#938D84" d="M1074.4,1778.8c6.5-1.1,10.1-6.7,10.1-13c0-9.8-6.9-14.2-16-14.2h-17.9v46.1h12V1780h0.1l11.3,17.7h14.9
		L1074.4,1778.8L1074.4,1778.8z M1062.6,1760.8h1.1c3.9,0,8.3,0.7,8.3,5.7s-4.4,5.7-8.3,5.7h-1.1V1760.8L1062.6,1760.8z"/>
	<polygon fill="#938D84" points="1118.3,1761.7 1118.3,1751.6 1092.1,1751.6 1092.1,1797.7 1118.3,1797.7 1118.3,1787.5 
		1104.1,1787.5 1104.1,1779.6 1117.6,1779.6 1117.6,1769.5 1104.1,1769.5 1104.1,1761.7 	"/>
	<path fill="#938D84" d="M1168.9,1772v9.4h9.8c-0.5,5.3-4.5,8-9.7,8c-7.9,0-12.2-7.3-12.2-14.4c0-7,4.1-14.5,12-14.5
		c4.9,0,8.3,2.9,10,7.3l11.4-4.8c-4-8.6-11.3-12.9-20.8-12.9c-14.9,0-25,9.8-25,24.8c0,14.5,10.1,24.3,24.6,24.3
		c7.7,0,14.5-2.7,19-9c4.1-5.7,4.6-11.5,4.7-18.2L1168.9,1772L1168.9,1772z"/>
	<path fill="#938D84" d="M1226.1,1751.6v24.3c0,6-0.4,12.5-8.1,12.5s-8.1-6.5-8.1-12.5v-24.3h-12v25.9c0,5.9,0.3,11.8,4.8,16.3
		c3.8,3.8,9.9,5.1,15.3,5.1s11.4-1.3,15.3-5.1c4.6-4.5,4.8-10.3,4.8-16.3v-25.9H1226.1L1226.1,1751.6z"/>
	<path fill="#938D84" d="M1269.5,1778.8c6.5-1.1,10.1-6.7,10.1-13c0-9.8-6.9-14.2-16-14.2h-17.9v46.1h12V1780h0.1l11.3,17.7h14.9
		L1269.5,1778.8L1269.5,1778.8z M1257.6,1760.8h1.1c3.9,0,8.3,0.7,8.3,5.7s-4.4,5.7-8.3,5.7h-1.1V1760.8L1257.6,1760.8z"/>
	<path fill="#938D84" d="M1315.2,1751.6v24.3c0,6-0.4,12.5-8.1,12.5c-7.7,0-8.1-6.5-8.1-12.5v-24.3h-12v25.9
		c0,5.9,0.3,11.8,4.8,16.3c3.8,3.8,9.9,5.1,15.3,5.1s11.4-1.3,15.3-5.1c4.6-4.5,4.8-10.3,4.8-16.3v-25.9H1315.2L1315.2,1751.6z"/>
</g>
</svg>
