<?xml version="1.0" encoding="utf-8"?>
<!-- Generator: Adobe Illustrator 17.1.0, SVG Export Plug-In . SVG Version: 6.00 Build 0)  -->
<!DOCTYPE svg PUBLIC "-//W3C//DTD SVG 1.1//EN" "http://www.w3.org/Graphics/SVG/1.1/DTD/svg11.dtd">
<svg version="1.1" id="Capa_1" xmlns="http://www.w3.org/2000/svg" xmlns:xlink="http://www.w3.org/1999/xlink" x="0px" y="0px"
	 viewBox="779.9 1226.7 3832.3 2210.6" enable-background="new 779.9 1226.7 3832.3 2210.6" xml:space="preserve">
<g>
	<path fill="#938D84" d="M4446.2,1587.3c92.2,0,166-74.2,166-166c0-92.6-73.8-166.8-166-166.8c-92.6,0-166,74.2-166,166.8
		C4280.2,1513.1,4353.6,1587.3,4446.2,1587.3L4446.2,1587.3z M4446.2,1548c-72.5,0-126.5-52.8-126.5-126.6
		c0-74.5,54-127.3,126.5-127.3c71.2,0,126.5,52.8,126.5,127.3C4572.7,1495.1,4517.4,1548,4446.2,1548L4446.2,1548z M4483.9,1432.7
		c30.6-2.1,46.9-15.1,46.9-46.9c0-45.7-27.3-52.8-67.1-52.8H4380v172.7h38.5v-72.9h26.9l38.5,72.9h41.9L4483.9,1432.7L4483.9,1432.7
		z M4418.5,1406.8v-43.6h37.3c16.8,0,39,0,39,17.6c0,21.9-10.9,26.1-30.2,26.1H4418.5L4418.5,1406.8z"/>
	<path fill="#938D84" d="M3666.7,2456.2h-372.9v-325.5h911.4v911.4h-325.5v-191.9c-153.2,120.2-346.5,191.9-556.3,191.9
		c-498.2,0-902-403.8-902-902c0-498.2,403.9-902,902-902c399.2,0,737.7,259.3,856.5,618.6h-485.7
		c-85.2-111.5-219.7-183.3-370.8-183.3c-257.8,0-466.7,208.9-466.7,466.6c0,257.7,208.9,466.7,466.7,466.7
		C3459.2,2606.9,3581.4,2548.8,3666.7,2456.2L3666.7,2456.2z"/>
	<path fill="#938D84" d="M1270.6,2439.8c9.7,67.3,14,108.8,47.3,148.1c56.5,62.4,155.3,77.1,275.3,77.1
		c181.2,0,289.4-50.1,289.4-166.5c0-64.4-37.7-120.5-98.8-145.5c-49.4-20.7-108.2-35.3-353-85.2c-216.5-41.5-291.8-66.5-378.9-120.5
		c-148.2-91.5-228.2-230.6-228.2-399c0-320.1,291.8-521.6,755.3-521.6c298.9,0,527.1,81,654.2,236.9c50.4,58.7,107,177,116.9,285.7
		l0.2,13.2h-498.8v-4.4c-28.8-133.2-113.5-188.6-291.2-188.6c-143.6,0-249.4,68.5-249.4,164.2c0,58.1,35.3,101.9,110.6,133
		c47.1,18.7,47.1,18.7,324.8,68.6c178.9,33.3,291.8,68.6,381.2,118.5c169.4,93.5,254.1,232.8,254.1,424
		c0,155.8-56.5,288.9-164.7,382.3c-136.5,116.4-343.6,176.7-619,176.7c-200,0-397.7-37.4-524.7-101.9
		c-117.7-58.1-204.8-147.6-254.1-266.1c-22.3-47.2-36.5-119.7-39.3-229.2H1270.6L1270.6,2439.8z"/>
	<path fill="#938D84" d="M981.2,3155.3c-25.6-14.5-61.3-23.6-90.2-23.6c-57.8,0-99.6,38.3-99.6,96.8c0,55.8,31,68.1,78,81.4
		c16.1,4.7,45.5,11.9,45.5,33c0,20.2-18.7,29.1-36.2,29.1c-25.7,0-47.9-13.5-66.6-29.9l-32.2,60.5c29.4,20.6,65,32.8,101.3,32.8
		c29.1,0,59.4-7.9,81.9-27c23-19.7,29.9-49.1,29.9-77.9c0-46.5-31-66.9-71.3-78.7l-19.1-5.8c-13-4.2-33.3-10.8-33.3-27.5
		c0-16.1,18.3-24.1,32.2-24.1c18.3,0,36,7.6,49.7,19.1L981.2,3155.3L981.2,3155.3z"/>
	<path fill="#938D84" d="M1173.5,3129.7c-83,0-159.6,61.1-159.6,148.5c0,93.3,67.1,159.1,159.6,159.1c92.7,0,159.6-65.8,159.6-159.1
		C1333.1,3190.8,1256.7,3129.7,1173.5,3129.7L1173.5,3129.7z M1173.5,3202.4c44.9,0,81.5,36.3,81.5,76.1c0,49.7-36.7,86-81.5,86
		c-44.7,0-81.4-36.3-81.4-86C1092.1,3238.8,1128.8,3202.4,1173.5,3202.4L1173.5,3202.4z"/>
	<polygon fill="#938D84" points="1533.7,3202.7 1533.7,3139.2 1368,3139.2 1368,3427.8 1443,3427.8 1443,3314.5 1525.2,3314.5 
		1525.2,3251 1443,3251 1443,3202.7 1533.7,3202.7 	"/>
	<polygon fill="#938D84" points="1690.2,3202.7 1752.2,3202.7 1752.2,3139.2 1553.2,3139.2 1553.2,3202.7 1615.1,3202.7 
		1615.1,3427.8 1690.2,3427.8 1690.2,3202.7 	"/>
	<polygon fill="#938D84" points="1827.2,3139.2 1749.1,3139.2 1835.2,3427.8 1911.3,3427.8 1967.9,3260.5 1968.7,3260.5 
		2019.2,3427.8 2095.8,3427.8 2188,3139.2 2109.9,3139.2 2055.6,3325.6 2054.8,3325.6 1998.2,3139.2 1938.5,3139.2 1878,3325.6 
		1877.3,3325.6 1827.2,3139.2 	"/>
	<path fill="#938D84" d="M2352.9,3377.6l18.8,50.2h79.9L2343,3139.2h-82l-110.9,288.6h79.5l19.9-50.2H2352.9L2352.9,3377.6z
		 M2332.6,3320.2h-62.2l30.9-91.7h0.8L2332.6,3320.2L2332.6,3320.2z"/>
	<path fill="#938D84" d="M2624.1,3309.5c41-7.2,63.2-41.7,63.2-81.5c0-61.6-43.2-88.8-100.2-88.8h-112.1v288.6h75v-111h0.8l70.8,111
		h93.3L2624.1,3309.5L2624.1,3309.5z M2549.9,3196.6h7.2c24.4,0,52.1,4.6,52.1,36c0,31.4-27.7,35.9-52.1,35.9h-7.2V3196.6
		L2549.9,3196.6z"/>
	<polygon fill="#938D84" points="2899.2,3202.7 2899.2,3139.2 2735.1,3139.2 2735.1,3427.8 2899.2,3427.8 2899.2,3364.2 
		2810,3364.2 2810,3314.5 2894.7,3314.5 2894.7,3251 2810,3251 2810,3202.7 2899.2,3202.7 	"/>
	<path fill="#938D84" d="M3215.6,3266.6v59h61.3c-3.2,33.3-28,50-60.5,50c-49.4,0-76.2-45.5-76.2-90.2c0-44.1,25.7-91,75-91
		c30.4,0,52.1,18.3,62.4,45.8l71.3-29.8c-24.9-54-70.8-80.8-130.1-80.8c-93,0-156.5,61.6-156.5,155.2c0,90.7,63.2,152.3,153.8,152.3
		c48.3,0,90.7-17.2,119.1-56.6c25.6-35.9,28.6-71.9,29.4-114H3215.6L3215.6,3266.6z"/>
	<path fill="#938D84" d="M3574.1,3139.2v152c0,37.5-2.7,78.3-51,78.3c-48.3,0-50.8-40.9-50.8-78.3v-152h-75.1v162.3
		c0,37,1.6,73.8,30.3,101.8c24.1,23.6,62.1,32,95.7,32c33.6,0,71.6-8.4,95.7-32c28.6-28,30.2-64.8,30.2-101.8v-162.3H3574.1
		L3574.1,3139.2z"/>
	<path fill="#938D84" d="M3845.7,3309.5c41-7.2,63.2-41.7,63.2-81.5c0-61.6-43.3-88.8-100.4-88.8h-112.1v288.6h75.1v-111h0.8
		l70.8,111h93.3L3845.7,3309.5L3845.7,3309.5z M3771.5,3196.6h7.2c24.5,0,52,4.6,52,36c0,31.4-27.5,35.9-52,35.9h-7.2V3196.6
		L3771.5,3196.6z"/>
	<path fill="#938D84" d="M4131.9,3139.2v152c0,37.5-2.6,78.3-50.8,78.3c-48.3,0-50.9-40.9-50.9-78.3v-152h-75.1v162.3
		c0,37,1.6,73.8,30.3,101.8c24.1,23.6,62.1,32,95.7,32c33.6,0,71.6-8.4,95.7-32c28.6-28,30-64.8,30-101.8v-162.3H4131.9
		L4131.9,3139.2z"/>
</g>
</svg>
