<?xml version="1.0" encoding="utf-8"?>
<!-- Generator: Adobe Illustrator 16.2.1, SVG Export Plug-In . SVG Version: 6.00 Build 0)  -->
<!DOCTYPE svg PUBLIC "-//W3C//DTD SVG 1.1//EN" "http://www.w3.org/Graphics/SVG/1.1/DTD/svg11.dtd">
<svg version="1.1" id="Layer_1" xmlns="http://www.w3.org/2000/svg" xmlns:xlink="http://www.w3.org/1999/xlink" x="0px" y="0px"
	 width="228.763px" height="182.937px" viewBox="10.618 33.532 228.763 182.937"
	 enable-background="new 10.618 33.532 228.763 182.937" xml:space="preserve">
<g>
	<g>
		<path fill="#EE5C5D" d="M104.26,137.979c-0.621,0.248-1.366,0.496-2.111,0.621c0.745-0.498,1.365-1.242,1.614-2.111
			c-0.745,0.373-1.49,0.744-2.36,0.869c-0.744-0.746-1.613-1.242-2.731-1.242c-2.111,0-3.726,1.738-3.726,3.727
			c0,0.248,0,0.621,0.124,0.869c-3.104-0.125-5.837-1.615-7.7-3.975c-0.373,0.496-0.496,1.242-0.496,1.863
			c0,1.365,0.621,2.484,1.738,3.104c-0.621,0-1.242-0.248-1.738-0.496l0,0c0,1.863,1.241,3.354,2.98,3.727
			c-0.373,0.123-0.621,0.123-0.994,0.123c-0.248,0-0.496,0-0.745-0.123c0.497,1.49,1.862,2.607,3.478,2.607
			c-1.242,0.994-2.98,1.615-4.719,1.615c-0.249,0-0.621,0-0.87,0c1.614,1.117,3.602,1.738,5.713,1.738
			c6.831,0,10.681-5.59,10.681-10.682c0-0.123,0-0.371,0-0.496C103.142,139.469,103.763,138.723,104.26,137.979"/>
		<path fill="#EE5C5D" d="M177.285,135.619c0.124,0.123,0.372,0.248,0.621,0.496c0.248,0.248,0.372,0.496,0.62,0.746
			c0.125,0.248,0.373,0.619,0.497,0.992s0.124,0.869,0.124,1.367c0,0.992-0.248,1.738-0.621,2.359
			c-0.248,0.248-0.372,0.496-0.62,0.744c-0.249,0.25-0.497,0.498-0.746,0.746c-0.124,0.123-0.372,0.373-0.496,0.621
			s-0.249,0.496-0.249,0.744s0.125,0.498,0.249,0.746c0.124,0.123,0.248,0.373,0.372,0.496l0.87,0.746
			c0.62,0.496,1.117,0.992,1.49,1.49c0.372,0.621,0.62,1.365,0.62,2.234c0,1.367-0.62,2.484-1.738,3.479
			c-1.242,0.992-2.98,1.613-5.092,1.613c-1.863,0-3.354-0.371-4.223-1.242c-0.993-0.744-1.366-1.613-1.366-2.607
			c0-0.496,0.124-1.117,0.497-1.738c0.248-0.621,0.869-1.117,1.614-1.615c0.869-0.496,1.863-0.869,2.732-0.992
			c0.993-0.125,1.738-0.25,2.359-0.25c-0.248-0.248-0.372-0.496-0.497-0.869c-0.124-0.248-0.248-0.621-0.248-0.992
			c0-0.25,0-0.498,0.124-0.621c0-0.125,0.124-0.373,0.124-0.498c-0.248,0-0.62,0-0.869,0c-1.49,0-2.607-0.496-3.353-1.365
			c-0.746-0.869-1.242-1.738-1.242-2.857c0-1.365,0.621-2.607,1.738-3.602c0.745-0.621,1.614-0.992,2.359-1.242
			c0.87-0.123,1.615-0.248,2.36-0.248h5.34l-1.738,0.994L177.285,135.619 M178.402,151.143c0-0.744-0.248-1.242-0.621-1.863
			c-0.496-0.496-1.241-1.117-2.235-1.738c-0.124,0-0.372,0-0.621,0c-0.124,0-0.496,0-1.117,0c-0.621,0.125-1.118,0.248-1.739,0.373
			c-0.124,0-0.372,0.123-0.621,0.248c-0.248,0.125-0.496,0.248-0.745,0.496c-0.248,0.248-0.496,0.498-0.62,0.869
			c-0.249,0.373-0.249,0.746-0.249,1.242c0,0.994,0.373,1.74,1.242,2.359c0.869,0.621,1.987,0.994,3.354,0.994
			c1.241,0,2.235-0.248,2.98-0.869C178.03,152.633,178.402,152.012,178.402,151.143 M174.553,143.193
			c0.745,0,1.366-0.248,1.738-0.744c0.249-0.373,0.373-0.746,0.497-1.117c0-0.373,0-0.621,0-0.869c0-1.119-0.248-2.111-0.869-3.23
			c-0.249-0.496-0.621-0.992-0.994-1.242c-0.372-0.248-0.869-0.496-1.49-0.496c-0.745,0-1.366,0.373-1.862,0.869
			c-0.373,0.621-0.621,1.242-0.621,1.988c0,0.992,0.248,1.986,0.869,3.104c0.248,0.498,0.621,0.869,1.117,1.242
			C173.559,143.07,174.056,143.193,174.553,143.193"/>
		<path fill="#EE5C5D" d="M187.965,137.605h-2.855v-2.855h-1.366v2.855h-2.856v1.49h2.856v2.857h1.366v-2.857h2.855V137.605
			L187.965,137.605z"/>
		<path fill="#EE5C5D" d="M10.618,139.344h2.359v-1.117v-0.994v-0.248c0-0.994,0-2.607,0.745-3.602
			c0.869-0.994,1.987-1.738,3.85-1.738c3.105,0,4.348,0.496,4.348,0.496l-0.621,3.602c0,0-0.994-0.248-1.987-0.248
			s-1.739,0.373-1.739,1.242v0.373v1.242v1.117h3.851l-0.249,3.354h-3.602v12.047h-4.471v-12.047h-2.359L10.618,139.344"/>
	</g>
	<g>
		<path fill="#FF6666" d="M104.26,88.922c-0.621,0.248-1.366,0.496-2.111,0.621c0.745-0.497,1.365-1.242,1.614-2.111
			c-0.745,0.372-1.49,0.745-2.36,0.869c-0.744-0.745-1.613-1.242-2.731-1.242c-2.111,0-3.726,1.739-3.726,3.726
			c0,0.249,0,0.621,0.124,0.869c-3.104-0.124-5.837-1.614-7.7-3.974c-0.373,0.497-0.496,1.242-0.496,1.863
			c0,1.365,0.621,2.483,1.738,3.104c-0.621,0-1.242-0.248-1.738-0.497l0,0c0,1.863,1.241,3.354,2.98,3.726
			c-0.373,0.125-0.621,0.125-0.994,0.125c-0.248,0-0.496,0-0.745-0.125c0.497,1.49,1.862,2.608,3.478,2.608
			c-1.242,0.993-2.98,1.614-4.719,1.614c-0.249,0-0.621,0-0.87,0c1.614,1.118,3.602,1.739,5.713,1.739
			c6.831,0,10.681-5.589,10.681-10.681c0-0.124,0-0.373,0-0.497C103.142,90.413,103.763,89.667,104.26,88.922"/>
		<path fill="#FF6666" d="M177.285,86.562c0.124,0.125,0.372,0.249,0.621,0.497c0.248,0.248,0.372,0.497,0.62,0.745
			c0.125,0.248,0.373,0.621,0.497,0.994c0.124,0.372,0.124,0.869,0.124,1.365c0,0.994-0.248,1.739-0.621,2.36
			c-0.248,0.248-0.372,0.496-0.62,0.745c-0.249,0.248-0.497,0.496-0.746,0.745c-0.124,0.124-0.372,0.372-0.496,0.621
			c-0.124,0.248-0.249,0.496-0.249,0.745c0,0.248,0.125,0.496,0.249,0.745c0.124,0.124,0.248,0.372,0.372,0.496l0.87,0.745
			c0.62,0.497,1.117,0.994,1.49,1.49c0.372,0.621,0.62,1.366,0.62,2.236c0,1.365-0.62,2.483-1.738,3.477
			c-1.242,0.994-2.98,1.615-5.092,1.615c-1.863,0-3.354-0.373-4.223-1.242c-0.993-0.745-1.366-1.614-1.366-2.608
			c0-0.497,0.124-1.117,0.497-1.738c0.248-0.621,0.869-1.118,1.614-1.614c0.869-0.497,1.863-0.87,2.732-0.994
			c0.993-0.124,1.738-0.248,2.359-0.248c-0.248-0.249-0.372-0.497-0.497-0.869c-0.124-0.249-0.248-0.621-0.248-0.994
			c0-0.248,0-0.496,0.124-0.621c0-0.124,0.124-0.372,0.124-0.496c-0.248,0-0.62,0-0.869,0c-1.49,0-2.607-0.497-3.353-1.366
			c-0.746-0.869-1.242-1.739-1.242-2.856c0-1.366,0.621-2.608,1.738-3.602c0.745-0.621,1.614-0.994,2.359-1.242
			c0.87-0.124,1.615-0.248,2.36-0.248h5.34l-1.738,0.993L177.285,86.562 M178.402,102.21c0-0.745-0.248-1.242-0.621-1.862
			c-0.496-0.497-1.241-1.118-2.235-1.739c-0.124,0-0.372,0-0.621,0c-0.124,0-0.496,0-1.117,0c-0.621,0.124-1.118,0.248-1.739,0.373
			c-0.124,0-0.372,0.124-0.621,0.248c-0.248,0.124-0.496,0.248-0.745,0.497c-0.248,0.248-0.496,0.496-0.62,0.869
			c-0.249,0.372-0.249,0.745-0.249,1.242c0,0.993,0.373,1.738,1.242,2.359s1.987,0.993,3.354,0.993c1.241,0,2.235-0.248,2.98-0.869
			C178.03,103.701,178.402,103.08,178.402,102.21 M174.553,94.262c0.745,0,1.366-0.248,1.738-0.745
			c0.249-0.372,0.373-0.745,0.497-1.117c0-0.373,0-0.621,0-0.87c0-1.117-0.248-2.111-0.869-3.229
			c-0.249-0.497-0.621-0.994-0.994-1.242c-0.372-0.248-0.869-0.497-1.49-0.497c-0.745,0-1.366,0.373-1.862,0.87
			c-0.373,0.62-0.621,1.241-0.621,1.986c0,0.994,0.248,1.987,0.869,3.105c0.248,0.496,0.621,0.869,1.117,1.241
			C173.559,94.138,174.056,94.262,174.553,94.262"/>
		<path fill="#FF6666" d="M187.965,88.549h-2.855v-2.856h-1.366v2.856h-2.856v1.366h2.856v2.856h1.366V90.04h2.855V88.549
			L187.965,88.549z"/>
		<path fill="#FF6666" d="M10.618,90.289h2.359V89.17v-1.118v-0.124c0-0.993,0-2.607,0.745-3.602
			c0.746-0.993,1.863-1.738,3.727-1.738c3.104,0,4.346,0.496,4.346,0.496l-0.621,3.603c0,0-0.992-0.249-1.986-0.249
			s-1.738,0.373-1.738,1.242v0.372v1.242v1.118h3.85l-0.125,3.353h-3.602v12.047h-4.471V93.765h-2.359L10.618,90.289"/>
	</g>
	<g>
		<path fill="#FFFFFF" d="M104.26,39.99c-0.621,0.249-1.366,0.497-2.111,0.621c0.745-0.496,1.365-1.242,1.614-2.111
			c-0.745,0.373-1.49,0.745-2.36,0.869c-0.744-0.744-1.613-1.241-2.731-1.241c-2.111,0-3.726,1.738-3.726,3.726
			c0,0.248,0,0.621,0.124,0.869c-3.104-0.124-5.837-1.614-7.7-3.974c-0.373,0.496-0.496,1.241-0.496,1.862
			c0,1.366,0.621,2.484,1.738,3.105c-0.621,0-1.242-0.249-1.738-0.497l0,0c0,1.862,1.241,3.353,2.98,3.726
			c-0.373,0.124-0.621,0.124-0.994,0.124c-0.248,0-0.496,0-0.745-0.124c0.497,1.49,1.862,2.608,3.478,2.608
			c-1.242,0.993-2.98,1.614-4.719,1.614c-0.249,0-0.621,0-0.87,0c1.614,1.117,3.602,1.738,5.713,1.738
			c6.831,0,10.681-5.588,10.681-10.681c0-0.124,0-0.372,0-0.496C103.142,41.356,103.763,40.735,104.26,39.99"/>
		<path fill="#FFFFFF" d="M177.285,37.63c0.124,0.124,0.372,0.248,0.621,0.497c0.248,0.248,0.372,0.497,0.62,0.745
			c0.125,0.248,0.373,0.621,0.497,0.993c0.124,0.373,0.124,0.869,0.124,1.366c0,0.993-0.248,1.738-0.621,2.359
			c-0.248,0.249-0.372,0.497-0.62,0.745c-0.249,0.249-0.497,0.497-0.746,0.745c-0.124,0.125-0.372,0.373-0.496,0.621
			c-0.124,0.249-0.249,0.497-0.249,0.745c0,0.249,0.125,0.497,0.249,0.745c0.124,0.124,0.248,0.373,0.372,0.497l0.87,0.745
			c0.62,0.497,1.117,0.993,1.49,1.49c0.372,0.621,0.62,1.366,0.62,2.235c0,1.366-0.62,2.484-1.738,3.478
			c-1.242,0.993-2.98,1.614-5.092,1.614c-1.863,0-3.354-0.372-4.223-1.241c-0.993-0.746-1.366-1.615-1.366-2.608
			c0-0.497,0.124-1.118,0.497-1.739c0.248-0.62,0.869-1.117,1.614-1.614c0.869-0.497,1.863-0.869,2.732-0.993
			c0.993-0.124,1.738-0.248,2.359-0.248c-0.248-0.249-0.372-0.497-0.497-0.87c-0.124-0.248-0.248-0.621-0.248-0.993
			c0-0.248,0-0.497,0.124-0.621c0-0.124,0.124-0.373,0.124-0.497c-0.248,0-0.62,0-0.869,0c-1.49,0-2.607-0.496-3.353-1.366
			c-0.746-0.869-1.242-1.738-1.242-2.856c0-1.365,0.621-2.607,1.738-3.602c0.745-0.62,1.614-0.993,2.359-1.241
			c0.87-0.125,1.615-0.249,2.36-0.249h5.34l-1.738,0.994L177.285,37.63 M178.402,53.155c0-0.745-0.248-1.242-0.621-1.863
			c-0.496-0.497-1.241-1.118-2.235-1.738c-0.124,0-0.372,0-0.621,0c-0.124,0-0.496,0-1.117,0c-0.621,0.124-1.118,0.248-1.739,0.372
			c-0.124,0-0.372,0.124-0.621,0.248c-0.248,0.125-0.496,0.249-0.745,0.497c-0.248,0.249-0.496,0.497-0.62,0.869
			c-0.249,0.373-0.249,0.745-0.249,1.242c0,0.994,0.373,1.739,1.242,2.36c0.869,0.62,1.987,0.993,3.354,0.993
			c1.241,0,2.235-0.249,2.98-0.869C178.03,54.645,178.402,54.024,178.402,53.155 M174.553,45.207c0.745,0,1.366-0.249,1.738-0.745
			c0.249-0.373,0.373-0.745,0.497-1.118c0-0.372,0-0.621,0-0.869c0-1.118-0.248-2.111-0.869-3.229
			c-0.249-0.496-0.621-0.993-0.994-1.241c-0.372-0.249-0.869-0.497-1.49-0.497c-0.745,0-1.366,0.372-1.862,0.869
			c-0.373,0.621-0.621,1.242-0.621,1.987c0,0.993,0.248,1.987,0.869,3.104c0.248,0.497,0.621,0.869,1.117,1.242
			C173.559,45.082,174.056,45.207,174.553,45.207"/>
		<path fill="#FFFFFF" d="M187.965,39.618h-2.855v-2.732h-1.366v2.856h-2.856v1.366h2.856v2.856h1.366v-2.732h2.855V39.618
			L187.965,39.618z"/>
		<path fill="#FFFFFF" d="M10.618,41.232h2.359v-1.117v-1.118v-0.124c0-0.994,0-2.608,0.745-3.602
			c0.746-0.994,1.863-1.739,3.727-1.739c3.104,0,4.346,0.497,4.346,0.497l-0.621,3.602c0,0-0.992-0.248-1.986-0.248
			s-1.738,0.372-1.738,1.241v0.373v1.242v1.117h3.85l-0.125,3.354h-3.602v12.047h-4.471V44.709h-2.359L10.618,41.232"/>
	</g>
	<g>
		<path fill="#792323" d="M104.26,199.205c-0.621,0.248-1.366,0.496-2.111,0.621c0.745-0.496,1.365-1.242,1.614-2.111
			c-0.745,0.373-1.49,0.746-2.36,0.869c-0.744-0.744-1.613-1.242-2.731-1.242c-2.111,0-3.726,1.74-3.726,3.727
			c0,0.248,0,0.621,0.124,0.869c-3.104-0.125-5.837-1.615-7.7-3.975c-0.373,0.498-0.496,1.242-0.496,1.863
			c0,1.365,0.621,2.484,1.738,3.105c-0.621,0-1.242-0.248-1.738-0.498l0,0c0,1.863,1.241,3.354,2.98,3.727
			c-0.373,0.123-0.621,0.123-0.994,0.123c-0.248,0-0.496,0-0.745-0.123c0.497,1.49,1.862,2.607,3.478,2.607
			c-1.242,0.994-2.98,1.615-4.719,1.615c-0.249,0-0.621,0-0.87,0c1.614,1.117,3.602,1.738,5.713,1.738
			c6.831,0,10.681-5.588,10.681-10.68c0-0.125,0-0.373,0-0.498C103.142,200.695,103.763,199.951,104.26,199.205"/>
		<path fill="#792323" d="M177.285,196.846c0.124,0.123,0.372,0.248,0.621,0.496c0.248,0.248,0.372,0.498,0.62,0.746
			c0.125,0.248,0.373,0.621,0.497,0.992c0.124,0.373,0.124,0.871,0.124,1.367c0,0.994-0.248,1.738-0.621,2.359
			c-0.248,0.248-0.372,0.496-0.62,0.746c-0.249,0.248-0.497,0.496-0.746,0.744c-0.124,0.125-0.372,0.373-0.496,0.621
			s-0.249,0.496-0.249,0.746c0,0.248,0.125,0.496,0.249,0.744c0.124,0.125,0.248,0.373,0.372,0.496l0.87,0.746
			c0.62,0.496,1.117,0.994,1.49,1.49c0.372,0.621,0.62,1.365,0.62,2.234c0,1.367-0.62,2.484-1.738,3.479
			c-1.242,0.994-2.98,1.615-5.092,1.615c-1.863,0-3.354-0.373-4.223-1.242c-0.993-0.746-1.366-1.615-1.366-2.609
			c0-0.496,0.124-1.117,0.497-1.738c0.248-0.621,0.869-1.117,1.614-1.615c0.869-0.496,1.863-0.869,2.732-0.992
			c0.993-0.125,1.738-0.248,2.359-0.248c-0.248-0.25-0.372-0.498-0.497-0.869c-0.124-0.25-0.248-0.621-0.248-0.994
			c0-0.248,0-0.498,0.124-0.621c0-0.125,0.124-0.373,0.124-0.496c-0.248,0-0.62,0-0.869,0c-1.49,0-2.607-0.498-3.353-1.367
			c-0.746-0.869-1.242-1.738-1.242-2.855c0-1.367,0.621-2.609,1.738-3.602c0.745-0.621,1.614-0.994,2.359-1.242
			c0.87-0.125,1.615-0.248,2.36-0.248h5.34l-1.738,0.992L177.285,196.846 M178.402,212.369c0-0.744-0.248-1.242-0.621-1.863
			c-0.496-0.496-1.241-1.117-2.235-1.738c-0.124,0-0.372,0-0.621,0c-0.124,0-0.496,0-1.117,0c-0.621,0.125-1.118,0.248-1.739,0.373
			c-0.124,0-0.372,0.125-0.621,0.248c-0.248,0.125-0.496,0.248-0.745,0.498c-0.248,0.248-0.496,0.496-0.62,0.869
			c-0.249,0.371-0.249,0.744-0.249,1.24c0,0.994,0.373,1.74,1.242,2.361s1.987,0.992,3.354,0.992c1.241,0,2.235-0.248,2.98-0.869
			C178.03,213.859,178.402,213.115,178.402,212.369 M174.553,204.422c0.745,0,1.366-0.248,1.738-0.746
			c0.249-0.373,0.373-0.744,0.497-1.117c0-0.373,0-0.621,0-0.869c0-1.117-0.248-2.111-0.869-3.229
			c-0.249-0.498-0.621-0.994-0.994-1.242c-0.372-0.248-0.869-0.498-1.49-0.498c-0.745,0-1.366,0.373-1.862,0.869
			c-0.373,0.621-0.621,1.242-0.621,1.988c0,0.994,0.248,1.986,0.869,3.105c0.248,0.496,0.621,0.869,1.117,1.24
			C173.559,204.297,174.056,204.422,174.553,204.422"/>
		<path fill="#792323" d="M187.965,198.957h-2.855V196.1h-1.366v2.857h-2.856v1.365h2.856v2.857h1.366v-2.857h2.855V198.957
			L187.965,198.957z"/>
		<path fill="#792323" d="M10.618,200.572h2.359v-1.119v-1.117v-0.125c0-0.992,0-2.607,0.745-3.602
			c0.746-0.992,1.863-1.738,3.727-1.738c3.104,0,4.346,0.498,4.346,0.498l-0.621,3.602c0,0-0.992-0.25-1.986-0.25
			s-1.738,0.373-1.738,1.242v0.373v1.242v1.117h3.85l-0.125,3.354h-3.602v12.047h-4.471v-12.047h-2.359L10.618,200.572"/>
	</g>
	<polygon fill="#EE5C5D" points="228.949,133.383 232.178,139.965 239.381,141.084 234.165,146.176 235.407,153.502 
		228.949,150.025 222.367,153.502 223.608,146.176 218.393,141.084 225.596,139.965 	"/>
	<polygon fill="#792323" points="227.831,194.609 231.185,201.191 238.388,202.311 233.172,207.402 234.413,214.605 
		227.831,211.252 221.373,214.605 222.615,207.402 217.399,202.311 224.603,201.191 	"/>
</g>
</svg>
