<?xml version="1.0" encoding="utf-8"?>
<!-- Generator: Adobe Illustrator 17.1.0, SVG Export Plug-In . SVG Version: 6.00 Build 0)  -->
<!DOCTYPE svg PUBLIC "-//W3C//DTD SVG 1.1//EN" "http://www.w3.org/Graphics/SVG/1.1/DTD/svg11.dtd">
<svg version="1.1" id="Layer_1" xmlns="http://www.w3.org/2000/svg" xmlns:xlink="http://www.w3.org/1999/xlink" x="0px" y="0px"
	 viewBox="162 670.7 201.3 168.7" enable-background="new 162 670.7 201.3 168.7" xml:space="preserve">
<g>
	<path fill="#B5A898" d="M248.9,769.4c-0.5,0.2-1.1,0.4-1.7,0.5c0.6-0.4,1.1-1,1.3-1.7c-0.6,0.3-1.2,0.6-1.9,0.7
		c-0.6-0.6-1.3-1-2.2-1c-1.7,0-3,1.4-3,3c0,0.2,0,0.5,0.1,0.7c-2.5-0.1-4.7-1.3-6.2-3.2c-0.3,0.4-0.4,1-0.4,1.5c0,1.1,0.5,2,1.4,2.5
		c-0.5,0-1-0.2-1.4-0.4l0,0c0,1.5,1,2.7,2.4,3c-0.3,0.1-0.5,0.1-0.8,0.1c-0.2,0-0.4,0-0.6-0.1c0.4,1.2,1.5,2.1,2.8,2.1
		c-1,0.8-2.4,1.3-3.8,1.3c-0.2,0-0.5,0-0.7,0c1.3,0.9,2.9,1.4,4.6,1.4c5.5,0,8.6-4.5,8.6-8.6c0-0.1,0-0.3,0-0.4
		C248,770.6,248.5,770,248.9,769.4"/>
	<path fill="#B5A898" d="M307.7,767.5c0.1,0.1,0.3,0.2,0.5,0.4s0.3,0.4,0.5,0.6c0.1,0.2,0.3,0.5,0.4,0.8c0.1,0.3,0.1,0.7,0.1,1.1
		c0,0.8-0.2,1.4-0.5,1.9c-0.2,0.2-0.3,0.4-0.5,0.6c-0.2,0.2-0.4,0.4-0.6,0.6c-0.1,0.1-0.3,0.3-0.4,0.5c-0.1,0.2-0.2,0.4-0.2,0.6
		s0.1,0.4,0.2,0.6c0.1,0.1,0.2,0.3,0.3,0.4l0.7,0.6c0.5,0.4,0.9,0.8,1.2,1.2c0.3,0.5,0.5,1.1,0.5,1.8c0,1.1-0.5,2-1.4,2.8
		c-1,0.8-2.4,1.3-4.1,1.3c-1.5,0-2.7-0.3-3.4-1c-0.8-0.6-1.1-1.3-1.1-2.1c0-0.4,0.1-0.9,0.4-1.4c0.2-0.5,0.7-0.9,1.3-1.3
		c0.7-0.4,1.5-0.7,2.2-0.8c0.8-0.1,1.4-0.2,1.9-0.2c-0.2-0.2-0.3-0.4-0.4-0.7c-0.1-0.2-0.2-0.5-0.2-0.8c0-0.2,0-0.4,0.1-0.5
		c0-0.1,0.1-0.3,0.1-0.4c-0.2,0-0.5,0-0.7,0c-1.2,0-2.1-0.4-2.7-1.1s-1-1.4-1-2.3c0-1.1,0.5-2.1,1.4-2.9c0.6-0.5,1.3-0.8,1.9-1
		c0.7-0.1,1.3-0.2,1.9-0.2h4.3l-1.4,0.8L307.7,767.5 M308.6,780c0-0.6-0.2-1-0.5-1.5c-0.4-0.4-1-0.9-1.8-1.4c-0.1,0-0.3,0-0.5,0
		c-0.1,0-0.4,0-0.9,0c-0.5,0.1-0.9,0.2-1.4,0.3c-0.1,0-0.3,0.1-0.5,0.2c-0.2,0.1-0.4,0.2-0.6,0.4c-0.2,0.2-0.4,0.4-0.5,0.7
		c-0.2,0.3-0.2,0.6-0.2,1c0,0.8,0.3,1.4,1,1.9s1.6,0.8,2.7,0.8c1,0,1.8-0.2,2.4-0.7C308.3,781.2,308.6,780.7,308.6,780 M305.5,773.6
		c0.6,0,1.1-0.2,1.4-0.6c0.2-0.3,0.3-0.6,0.4-0.9c0-0.3,0-0.5,0-0.7c0-0.9-0.2-1.7-0.7-2.6c-0.2-0.4-0.5-0.8-0.8-1s-0.7-0.4-1.2-0.4
		c-0.6,0-1.1,0.3-1.5,0.7c-0.3,0.5-0.5,1-0.5,1.6c0,0.8,0.2,1.6,0.7,2.5c0.2,0.4,0.5,0.7,0.9,1C304.7,773.5,305.1,773.6,305.5,773.6
		"/>
	<path fill="#B5A898" d="M316.3,769.1H314v-2.3h-1.1v2.3h-2.3v1.2h2.3v2.3h1.1v-2.3h2.3V769.1L316.3,769.1z"/>
	<path fill="#B5A898" d="M173.5,770.5h1.9v-0.9v-0.8v-0.2c0-0.8,0-2.1,0.6-2.9c0.7-0.8,1.6-1.4,3.1-1.4c2.5,0,3.5,0.4,3.5,0.4
		l-0.5,2.9c0,0-0.8-0.2-1.6-0.2s-1.4,0.3-1.4,1v0.3v1v0.9h3.1l-0.2,2.7h-2.9v9.7h-3.6v-9.7h-1.9L173.5,770.5"/>
</g>
<g>
	<path fill="#E3E2D5" d="M248.9,729.9c-0.5,0.2-1.1,0.4-1.7,0.5c0.6-0.4,1.1-1,1.3-1.7c-0.6,0.3-1.2,0.6-1.9,0.7
		c-0.6-0.6-1.3-1-2.2-1c-1.7,0-3,1.4-3,3c0,0.2,0,0.5,0.1,0.7c-2.5-0.1-4.7-1.3-6.2-3.2c-0.3,0.4-0.4,1-0.4,1.5c0,1.1,0.5,2,1.4,2.5
		c-0.5,0-1-0.2-1.4-0.4l0,0c0,1.5,1,2.7,2.4,3c-0.3,0.1-0.5,0.1-0.8,0.1c-0.2,0-0.4,0-0.6-0.1c0.4,1.2,1.5,2.1,2.8,2.1
		c-1,0.8-2.4,1.3-3.8,1.3c-0.2,0-0.5,0-0.7,0c1.3,0.9,2.9,1.4,4.6,1.4c5.5,0,8.6-4.5,8.6-8.6c0-0.1,0-0.3,0-0.4
		C248,731.1,248.5,730.5,248.9,729.9"/>
	<path fill="#E3E2D5" d="M307.7,728c0.1,0.1,0.3,0.2,0.5,0.4s0.3,0.4,0.5,0.6c0.1,0.2,0.3,0.5,0.4,0.8c0.1,0.3,0.1,0.7,0.1,1.1
		c0,0.8-0.2,1.4-0.5,1.9c-0.2,0.2-0.3,0.4-0.5,0.6c-0.2,0.2-0.4,0.4-0.6,0.6c-0.1,0.1-0.3,0.3-0.4,0.5c-0.1,0.2-0.2,0.4-0.2,0.6
		s0.1,0.4,0.2,0.6c0.1,0.1,0.2,0.3,0.3,0.4l0.7,0.6c0.5,0.4,0.9,0.8,1.2,1.2c0.3,0.5,0.5,1.1,0.5,1.8c0,1.1-0.5,2-1.4,2.8
		c-1,0.8-2.4,1.3-4.1,1.3c-1.5,0-2.7-0.3-3.4-1c-0.8-0.6-1.1-1.3-1.1-2.1c0-0.4,0.1-0.9,0.4-1.4c0.2-0.5,0.7-0.9,1.3-1.3
		c0.7-0.4,1.5-0.7,2.2-0.8c0.8-0.1,1.4-0.2,1.9-0.2c-0.2-0.2-0.3-0.4-0.4-0.7c-0.1-0.2-0.2-0.5-0.2-0.8c0-0.2,0-0.4,0.1-0.5
		c0-0.1,0.1-0.3,0.1-0.4c-0.2,0-0.5,0-0.7,0c-1.2,0-2.1-0.4-2.7-1.1s-1-1.4-1-2.3c0-1.1,0.5-2.1,1.4-2.9c0.6-0.5,1.3-0.8,1.9-1
		c0.7-0.1,1.3-0.2,1.9-0.2h4.3l-1.4,0.8L307.7,728 M308.6,740.6c0-0.6-0.2-1-0.5-1.5c-0.4-0.4-1-0.9-1.8-1.4c-0.1,0-0.3,0-0.5,0
		c-0.1,0-0.4,0-0.9,0c-0.5,0.1-0.9,0.2-1.4,0.3c-0.1,0-0.3,0.1-0.5,0.2c-0.2,0.1-0.4,0.2-0.6,0.4c-0.2,0.2-0.4,0.4-0.5,0.7
		c-0.2,0.3-0.2,0.6-0.2,1c0,0.8,0.3,1.4,1,1.9s1.6,0.8,2.7,0.8c1,0,1.8-0.2,2.4-0.7C308.3,741.8,308.6,741.3,308.6,740.6
		 M305.5,734.2c0.6,0,1.1-0.2,1.4-0.6c0.2-0.3,0.3-0.6,0.4-0.9c0-0.3,0-0.5,0-0.7c0-0.9-0.2-1.7-0.7-2.6c-0.2-0.4-0.5-0.8-0.8-1
		s-0.7-0.4-1.2-0.4c-0.6,0-1.1,0.3-1.5,0.7c-0.3,0.5-0.5,1-0.5,1.6c0,0.8,0.2,1.6,0.7,2.5c0.2,0.4,0.5,0.7,0.9,1
		C304.7,734.1,305.1,734.2,305.5,734.2"/>
	<path fill="#E3E2D5" d="M316.3,729.6H314v-2.3h-1.1v2.3h-2.3v1.1h2.3v2.3h1.1v-2.2h2.3V729.6L316.3,729.6z"/>
	<path fill="#E3E2D5" d="M173.5,731h1.9v-0.9v-0.9v-0.1c0-0.8,0-2.1,0.6-2.9c0.6-0.8,1.5-1.4,3-1.4c2.5,0,3.5,0.4,3.5,0.4l-0.5,2.9
		c0,0-0.8-0.2-1.6-0.2c-0.8,0-1.4,0.3-1.4,1v0.3v1v0.9h3.1l-0.1,2.7h-2.9v9.7h-3.6v-9.7h-1.9L173.5,731"/>
</g>
<g>
	<path fill="#F1F1E9" d="M248.9,690.5c-0.5,0.2-1.1,0.4-1.7,0.5c0.6-0.4,1.1-1,1.3-1.7c-0.6,0.3-1.2,0.6-1.9,0.7
		c-0.6-0.6-1.3-1-2.2-1c-1.7,0-3,1.4-3,3c0,0.2,0,0.5,0.1,0.7c-2.5-0.1-4.7-1.3-6.2-3.2c-0.3,0.4-0.4,1-0.4,1.5c0,1.1,0.5,2,1.4,2.5
		c-0.5,0-1-0.2-1.4-0.4l0,0c0,1.5,1,2.7,2.4,3c-0.3,0.1-0.5,0.1-0.8,0.1c-0.2,0-0.4,0-0.6-0.1c0.4,1.2,1.5,2.1,2.8,2.1
		c-1,0.8-2.4,1.3-3.8,1.3c-0.2,0-0.5,0-0.7,0c1.3,0.9,2.9,1.4,4.6,1.4c5.5,0,8.6-4.5,8.6-8.6c0-0.1,0-0.3,0-0.4
		C248,691.6,248.5,691.1,248.9,690.5"/>
	<path fill="#F1F1E9" d="M307.7,688.6c0.1,0.1,0.3,0.2,0.5,0.4s0.3,0.4,0.5,0.6c0.1,0.2,0.3,0.5,0.4,0.8c0.1,0.3,0.1,0.7,0.1,1.1
		c0,0.8-0.2,1.4-0.5,1.9c-0.2,0.2-0.3,0.4-0.5,0.6c-0.2,0.2-0.4,0.4-0.6,0.6c-0.1,0.1-0.3,0.3-0.4,0.5c-0.1,0.2-0.2,0.4-0.2,0.6
		s0.1,0.4,0.2,0.6c0.1,0.1,0.2,0.3,0.3,0.4l0.7,0.6c0.5,0.4,0.9,0.8,1.2,1.2c0.3,0.5,0.5,1.1,0.5,1.8c0,1.1-0.5,2-1.4,2.8
		c-1,0.8-2.4,1.3-4.1,1.3c-1.5,0-2.7-0.3-3.4-1c-0.8-0.6-1.1-1.3-1.1-2.1c0-0.4,0.1-0.9,0.4-1.4c0.2-0.5,0.7-0.9,1.3-1.3
		c0.7-0.4,1.5-0.7,2.2-0.8c0.8-0.1,1.4-0.2,1.9-0.2c-0.2-0.2-0.3-0.4-0.4-0.7c-0.1-0.2-0.2-0.5-0.2-0.8c0-0.2,0-0.4,0.1-0.5
		c0-0.1,0.1-0.3,0.1-0.4c-0.2,0-0.5,0-0.7,0c-1.2,0-2.1-0.4-2.7-1.1s-1-1.4-1-2.3c0-1.1,0.5-2.1,1.4-2.9c0.6-0.5,1.3-0.8,1.9-1
		c0.7-0.1,1.3-0.2,1.9-0.2h4.3l-1.4,0.8L307.7,688.6 M308.6,701.1c0-0.6-0.2-1-0.5-1.5c-0.4-0.4-1-0.9-1.8-1.4c-0.1,0-0.3,0-0.5,0
		c-0.1,0-0.4,0-0.9,0c-0.5,0.1-0.9,0.2-1.4,0.3c-0.1,0-0.3,0.1-0.5,0.2c-0.2,0.1-0.4,0.2-0.6,0.4c-0.2,0.2-0.4,0.4-0.5,0.7
		c-0.2,0.3-0.2,0.6-0.2,1c0,0.8,0.3,1.4,1,1.9c0.7,0.5,1.6,0.8,2.7,0.8c1,0,1.8-0.2,2.4-0.7C308.3,702.3,308.6,701.8,308.6,701.1
		 M305.5,694.7c0.6,0,1.1-0.2,1.4-0.6c0.2-0.3,0.3-0.6,0.4-0.9c0-0.3,0-0.5,0-0.7c0-0.9-0.2-1.7-0.7-2.6c-0.2-0.4-0.5-0.8-0.8-1
		c-0.3-0.2-0.7-0.4-1.2-0.4c-0.6,0-1.1,0.3-1.5,0.7c-0.3,0.5-0.5,1-0.5,1.6c0,0.8,0.2,1.6,0.7,2.5c0.2,0.4,0.5,0.7,0.9,1
		C304.7,694.6,305.1,694.7,305.5,694.7"/>
	<path fill="#F1F1E9" d="M316.3,690.2H314V688h-1.1v2.3h-2.3v1.1h2.3v2.3h1.1v-2.2h2.3V690.2L316.3,690.2z"/>
	<path fill="#F1F1E9" d="M173.5,691.5h1.9v-0.9v-0.9v-0.1c0-0.8,0-2.1,0.6-2.9c0.6-0.8,1.5-1.4,3-1.4c2.5,0,3.5,0.4,3.5,0.4
		l-0.5,2.9c0,0-0.8-0.2-1.6-0.2c-0.8,0-1.4,0.3-1.4,1v0.3v1v0.9h3.1l-0.1,2.7h-2.9v9.7h-3.6v-9.7h-1.9L173.5,691.5"/>
</g>
<g>
	<path fill="#524640" d="M248.9,818.7c-0.5,0.2-1.1,0.4-1.7,0.5c0.6-0.4,1.1-1,1.3-1.7c-0.6,0.3-1.2,0.6-1.9,0.7
		c-0.6-0.6-1.3-1-2.2-1c-1.7,0-3,1.4-3,3c0,0.2,0,0.5,0.1,0.7c-2.5-0.1-4.7-1.3-6.2-3.2c-0.3,0.4-0.4,1-0.4,1.5c0,1.1,0.5,2,1.4,2.5
		c-0.5,0-1-0.2-1.4-0.4l0,0c0,1.5,1,2.7,2.4,3c-0.3,0.1-0.5,0.1-0.8,0.1c-0.2,0-0.4,0-0.6-0.1c0.4,1.2,1.5,2.1,2.8,2.1
		c-1,0.8-2.4,1.3-3.8,1.3c-0.2,0-0.5,0-0.7,0c1.3,0.9,2.9,1.4,4.6,1.4c5.5,0,8.6-4.5,8.6-8.6c0-0.1,0-0.3,0-0.4
		C248,819.9,248.5,819.3,248.9,818.7"/>
	<path fill="#524640" d="M307.7,816.8c0.1,0.1,0.3,0.2,0.5,0.4c0.2,0.2,0.3,0.4,0.5,0.6c0.1,0.2,0.3,0.5,0.4,0.8
		c0.1,0.3,0.1,0.7,0.1,1.1c0,0.8-0.2,1.4-0.5,1.9c-0.2,0.2-0.3,0.4-0.5,0.6s-0.4,0.4-0.6,0.6c-0.1,0.1-0.3,0.3-0.4,0.5
		s-0.2,0.4-0.2,0.6c0,0.2,0.1,0.4,0.2,0.6c0.1,0.1,0.2,0.3,0.3,0.4l0.7,0.6c0.5,0.4,0.9,0.8,1.2,1.2c0.3,0.5,0.5,1.1,0.5,1.8
		c0,1.1-0.5,2-1.4,2.8c-1,0.8-2.4,1.3-4.1,1.3c-1.5,0-2.7-0.3-3.4-1c-0.8-0.6-1.1-1.3-1.1-2.1c0-0.4,0.1-0.9,0.4-1.4
		c0.2-0.5,0.7-0.9,1.3-1.3c0.7-0.4,1.5-0.7,2.2-0.8c0.8-0.1,1.4-0.2,1.9-0.2c-0.2-0.2-0.3-0.4-0.4-0.7c-0.1-0.2-0.2-0.5-0.2-0.8
		c0-0.2,0-0.4,0.1-0.5c0-0.1,0.1-0.3,0.1-0.4c-0.2,0-0.5,0-0.7,0c-1.2,0-2.1-0.4-2.7-1.1s-1-1.4-1-2.3c0-1.1,0.5-2.1,1.4-2.9
		c0.6-0.5,1.3-0.8,1.9-1c0.7-0.1,1.3-0.2,1.9-0.2h4.3l-1.4,0.8L307.7,816.8 M308.6,829.3c0-0.6-0.2-1-0.5-1.5
		c-0.4-0.4-1-0.9-1.8-1.4c-0.1,0-0.3,0-0.5,0c-0.1,0-0.4,0-0.9,0c-0.5,0.1-0.9,0.2-1.4,0.3c-0.1,0-0.3,0.1-0.5,0.2
		c-0.2,0.1-0.4,0.2-0.6,0.4c-0.2,0.2-0.4,0.4-0.5,0.7c-0.2,0.3-0.2,0.6-0.2,1c0,0.8,0.3,1.4,1,1.9c0.7,0.5,1.6,0.8,2.7,0.8
		c1,0,1.8-0.2,2.4-0.7C308.3,830.5,308.6,829.9,308.6,829.3 M305.5,822.9c0.6,0,1.1-0.2,1.4-0.6c0.2-0.3,0.3-0.6,0.4-0.9
		c0-0.3,0-0.5,0-0.7c0-0.9-0.2-1.7-0.7-2.6c-0.2-0.4-0.5-0.8-0.8-1c-0.3-0.2-0.7-0.4-1.2-0.4c-0.6,0-1.1,0.3-1.5,0.7
		c-0.3,0.5-0.5,1-0.5,1.6c0,0.8,0.2,1.6,0.7,2.5c0.2,0.4,0.5,0.7,0.9,1C304.7,822.8,305.1,822.9,305.5,822.9"/>
	<path fill="#524640" d="M316.3,818.5H314v-2.3h-1.1v2.3h-2.3v1.1h2.3v2.3h1.1v-2.3h2.3V818.5L316.3,818.5z"/>
	<path fill="#524640" d="M173.5,819.8h1.9v-0.9V818v-0.1c0-0.8,0-2.1,0.6-2.9c0.6-0.8,1.5-1.4,3-1.4c2.5,0,3.5,0.4,3.5,0.4l-0.5,2.9
		c0,0-0.8-0.2-1.6-0.2c-0.8,0-1.4,0.3-1.4,1v0.3v1v0.9h3.1l-0.1,2.7h-2.9v9.7h-3.6v-9.7h-1.9L173.5,819.8"/>
</g>
<polygon fill="#B5A898" points="349.3,765.7 351.9,771 357.7,771.9 353.5,776 354.5,781.9 349.3,779.1 344,781.9 345,776 
	340.8,771.9 346.6,771 "/>
<polygon fill="#524640" points="348.4,815 351.1,820.3 356.9,821.2 352.7,825.3 353.7,831.1 348.4,828.4 343.2,831.1 344.2,825.3 
	340,821.2 345.8,820.3 "/>
</svg>
