<svg xmlns="http://www.w3.org/2000/svg" width="67.64" viewBox="510.382 261.43 67.641 7.261" enable-background="new 510.382 261.43 67.641 7.261"><g fill="#524640"><path d="m514.2 261.43l1.18 2.39 2.64.38-1.91 1.86.45 2.63-2.36-1.24-2.36 1.24.45-2.63-1.91-1.86 2.64-.38z"/><path d="m529.2 261.43l1.18 2.39 2.64.38-1.91 1.86.45 2.63-2.36-1.24-2.36 1.24.45-2.63-1.91-1.86 2.64-.38z"/><path d="m544.2 261.43l1.18 2.39 2.64.38-1.91 1.86.45 2.63-2.36-1.24-2.36 1.24.45-2.63-1.91-1.86 2.64-.38z"/><path d="m559.2 261.43l1.18 2.39 2.64.38-1.91 1.86.45 2.63-2.36-1.24-2.36 1.24.45-2.63-1.9-1.86 2.63-.38z"/><path d="m574.21 261.43l1.17 2.39 2.64.38-1.91 1.86.45 2.63-2.35-1.24-2.36 1.24.45-2.63-1.91-1.86 2.63-.38z"/></g></svg>