<svg xmlns="http://www.w3.org/2000/svg" viewBox="237.095 161.795 619.28 80.66" enable-background="new 237.095 161.795 619.28 80.66"><g fill="#39322b"><path d="m543.59 178.24l5.79 11.72 12.92 1.88-9.35 9.12 2.21 12.87-11.57-6.08-11.56 6.08 2.21-12.87-9.36-9.12 12.93-1.88z"/><path d="m332.3 176.59c-4.192-.055-7.606.17-10.24.68-2.635.51-5.143 1.22-7.521 2.125-4.761 1.645-7.14 4.704-7.14 9.18 0 1.699.862 3.329 2.592 4.886 1.729 1.56 3.952 2.367 6.672 2.423 2.267-.17 4.335-.623 6.204-1.36l.341 1.36c-2.664.794-4.986 1.274-6.971 1.445-3.457 0-6.117-1.233-7.988-3.697-1.87-2.465-2.862-5.539-2.976-9.222.171-3.115.708-5.835 1.616-8.16 1.188-2.832 3.2-5.368 6.04-7.606 2.831-2.238 6.06-3.938 9.688-5.1 3.626-1.161 7.194-1.742 10.71-1.742 5.664 0 11.161 1.105 16.487 3.314s9.732 5.609 13.217 10.199c3.484 4.589 5.481 10.284 5.993 17.08.563 9.463-1.956 17.08-7.565 22.863-5.609 5.779-12.323 8.669-20.14 8.669-3.118 0-6.999-1.047-11.645-3.145-.284-.17-1.799-.977-4.548-2.422s-4.93-2.536-6.544-3.272c-1.615-.736-2.961-1.104-4.04-1.104-3.116 0-5.05 2.097-5.78 6.289l-1.359-.51c1.189-5.552 3.442-9.547 6.756-11.984 3.314-2.436 7.098-3.655 11.347-3.655 2.153 0 4.122.298 5.907.893 1.786.594 4.293 1.572 7.522 2.932 1.473-1.076 2.209-2.181 2.209-3.314 0-1.021-.524-1.884-1.572-2.592-1.05-.708-2.592-1.501-4.632-2.38-2.04-.878-3.685-1.657-4.93-2.337-2.946-1.643-4.505-3.853-4.675-6.629.057-1.36.425-2.805 1.105-4.335.68-1.529 1.614-3.215 2.806-5.057 1.189-1.842 2.208-3.414 3.058-4.719m1.701 0c-.851.964-1.36 1.955-1.529 2.976.055 1.19 1.217 2.239 3.483 3.144 2.267.908 4.66 1.886 7.183 2.933 2.521 1.049 4.178 2.337 4.972 3.867.736 1.644 1.104 3.314 1.104 5.01 0 1.87-.481 3.642-1.443 5.312-.966 1.672-2.127 3.229-3.486 4.674-1.36 1.445-2.635 2.819-3.824 4.122 5.04 3.4 9.574 5.185 13.6 5.355 4.078-.056 7.167-1.5 9.263-4.335 2.096-2.833 3.146-6 3.146-9.519.17-2.946-.581-5.78-2.252-8.5-1.673-2.72-3.967-5.127-6.885-7.224-2.919-2.096-6.39-3.838-10.411-5.227-4.03-1.388-8.332-2.253-12.921-2.593"/><path d="m397.24 177.27c1.075 1.587 3.214 3.399 6.416 5.439 3.2 2.041 6.36 3.373 9.478 3.995v1.021c-3.061-.17-4.591 1.105-4.591 3.824v17.934c0 3.514.767 5.269 2.295 5.269.056 0 .098 0 .127 0s.043.058.043.17c.227-.056.496-.141.808-.255.312-.113.596-.241.85-.382.256-.142.566-.311.936-.51.368-.198.608-.298.722-.298l.511.935c-3.399 2.21-7.169 5.384-11.305 9.519-.905-.68-1.869-1.431-2.89-2.252-1.02-.821-2.01-1.841-2.975-3.06-.964-1.218-1.559-2.677-1.784-4.377-3.174 2.098-7.197 5.327-12.07 9.689-3.061-1.7-5.156-3.371-6.29-5.01-1.133-1.643-1.7-3.512-1.7-5.61v-20.484c0-3.059 1.813-5.325 5.439-6.799 7.422-3.115 12.75-6.03 15.979-8.754m-8.67 35.02c0 2.267.68 3.485 2.039 3.655.681-.113 1.389-.453 2.125-1.02l2.975-2.125v-22.608c-1.814-.906-4.193-2.663-7.139-5.27v27.368"/><path d="m415.85 187.89l-.851-.85c1.36-1.021 3.173-2.465 5.439-4.335 2.266-1.869 4.42-3.625 6.46-5.268 4.248 4.363 7.847 7.111 10.794 8.244v1.02c-3.06 0-4.59 1.389-4.59 4.165v19.464c0 2.549.878 3.909 2.636 4.079 1.357-.226 2.464-.708 3.312-1.445l.512.85c-3.117 2.55-5.412 4.462-6.885 5.737-1.475 1.275-3.288 2.791-5.439 4.547-2.38-1.474-4.137-3.201-5.27-5.185-1.135-1.983-1.7-3.684-1.7-5.1v-22.608c0-1.755-.114-2.96-.34-3.612-.228-.651-.653-1.01-1.275-1.062-.85-.001-1.784.453-2.803 1.359m10.112-12.155c-3.569-2.945-5.354-5.75-5.354-8.415 0-1.473.595-2.732 1.784-3.782 1.19-1.047 2.691-1.572 4.506-1.572 1.699 0 3.13.582 4.291 1.742 1.161 1.163 1.743 2.536 1.743 4.123.001 2.55-2.324 5.185-6.97 7.904"/><path d="m445.68 173.1c1.701-7.535 8.527-11.304 20.483-11.304v1.53c-5.214 0-7.818 2.975-7.818 8.924v37.23c0 3.173.934 4.816 2.805 4.929 1.529-.17 3.086-.765 4.674-1.785l.34 1.19c-2.776 1.87-7.225 5.242-13.344 10.114-3.229-4.192-6.94-7.365-11.134-9.519l.339-.935c.453.114 1.021.284 1.701.51 1.189-.113 1.784-.566 1.784-1.36v-32.21c0-1.756-.241-3.513-.722-5.27-.482-1.755-1.119-3.427-1.914-5.01-.792-1.586-1.614-2.805-2.464-3.655l.85-1.02c2.041 2.097 3.456 4.647 4.25 7.649h.17z"/><path d="m472.45 188.06c-3.568-1.19-5.469-3.853-5.694-7.989.113-2.833 1.147-5.354 3.103-7.565 1.956-2.209 4.575-3.342 7.86-3.399h1.872v1.53h-1.021c-3.4.34-5.1 1.332-5.1 2.975 0 .455.213.85.637 1.19.426.34 1.062.694 1.913 1.062.849.369 1.982.836 3.399 1.402 3.854 1.53 5.779 4.901 5.779 10.114l13.939-10.114c2.265 2.495 3.837 4.774 4.717 6.842.876 2.069 1.317 4.321 1.317 6.757v19.633c0 5.27-.822 9.761-2.465 13.472-1.645 3.71-4.28 7.03-7.904 9.943-3.627 2.917-8.414 5.766-14.364 8.542l-.51-1.105c4.532-1.984 7.734-4.704 9.604-8.159 1.869-3.458 2.806-8.556 2.806-15.298v-25.838c0-3.796-.824-5.695-2.466-5.695-.228 0-.595.114-1.105.34-.509.227-1.077.567-1.699 1.021-.624.454-1.247.907-1.87 1.36v21.249c0 2.154.735 3.314 2.211 3.484 1.02-.17 2.179-.623 3.483-1.359v1.189c-4.646 3.06-8.527 6.489-11.644 10.284-3.683-4.533-7.225-7.535-10.624-9.01v-.935c2.549-.34 3.824-1.19 3.824-2.55v-23.374z"/><path d="m597.75 212.79c-.114-1.133-.242-5.17-.384-12.11-.143-6.94-.425-12.734-.851-17.381-.424-4.646-1.231-8.159-2.421-10.539-1.814-3.853-4.419-5.78-7.818-5.78-1.419 0-2.693.413-3.825 1.233-1.134.822-1.786 1.912-1.956 3.272.226 2.833 2.324 4.986 6.29 6.459 2.437.907 4.306 2.409 5.609 4.504 1.303 2.097 1.813 4.392 1.529 6.885-.565 3.797-1.926 6.659-4.078 8.584-2.154 1.927-5.837 3.117-11.05 3.57v-1.53c2.492 0 4.59-.396 6.29-1.19 1.699-.793 2.55-1.643 2.55-2.55 0-1.473-1.22-2.635-3.655-3.485-5.724-2.435-8.385-6.6-7.989-12.494.283-3.456 1.219-6.6 2.805-9.434 1.587-2.833 3.753-5.057 6.502-6.672 2.748-1.615 5.908-2.394 9.477-2.337 2.891.114 5.652.879 8.288 2.294 2.634 1.417 4.743 3.712 6.331 6.885h.086c.339-3.06 1.541-5.368 3.611-6.927 2.068-1.558 4.746-2.309 8.03-2.252 6.119.34 10.539 3.229 13.259 8.669h.17c.736-3 2.21-5.198 4.419-6.587 2.21-1.388 4.73-2.082 7.564-2.082 1.813 0 3.456.327 4.93.978 1.475.652 2.733 1.671 3.782 3.059 1.05 1.39 1.687 3.047 1.912 4.973.113 1.077.171 2.776.171 5.099.113 2.607.48 4.477 1.104 5.609.623 1.135 2.067 1.588 4.335 1.36v1.53c-3.457-.34-5.779.212-6.969 1.657-1.19 1.445-1.842 3.669-1.955 6.672.225 3.287.341 5.809.341 7.564-.228 8.614 1.218 13 4.333 13.174 1.417-.17 2.946-.963 4.59-2.38l.511 1.36-14.958 11.474c-2.721-2.435-4.605-4.334-5.653-5.694-1.049-1.36-1.757-2.705-2.125-4.04-.369-1.331-.581-3.286-.638-5.864-.057-2.579-.113-4.858-.17-6.842-.056-4.703.766-8.202 2.465-10.497 1.7-2.294 3.881-3.852 6.545-4.675 2.662-.82 5.128-1.572 7.394-2.252v-.17c-3.344.17-5.935-.14-7.776-.935-1.843-.793-3.102-1.87-3.782-3.23-.68-1.36-1.118-3.285-1.317-5.779-.199-2.493-.326-3.995-.381-4.504-.397-2.436-1.503-3.598-3.316-3.484-2.55 0-3.993 2.494-4.334 7.479.056 2.324.098 4.449.127 6.375.028 1.926.043 4.279.043 7.05 0 4.307-.51 8.05-1.529 11.219-1.021 3.174-3.061 6.629-6.121 10.37l-12.919 15.468-10.453-9.18-6.459 8.16-.85-1.021 13.429-17.253 10.283 9.01c-.283-9.06-.481-15.09-.595-18.06-.113-2.975-.242-5.666-.382-8.07-.143-2.407-.412-6.275-.809-11.602-.283-2.55-.878-4.674-1.784-6.374-.907-1.7-2.098-2.55-3.569-2.55-1.814 0-2.805 1.445-2.975 4.334.112.398.17 1.105.17 2.125.227 1.587.494 3.272.809 5.058.31 1.785.564 3.541.763 5.269.199 1.729.298 3.33.298 4.803 0 3.286-.411 5.978-1.232 8.07-.822 2.097-2.593 4.874-5.312 8.329l-14.872 18.954-10.455-9.18-5.01 6.03-1.02-1.02 12.834-15.978 9.772 9.01"/><path d="m689.2 177.27c1.076 1.587 3.216 3.399 6.418 5.439 3.199 2.041 6.359 3.373 9.475 3.995v1.021c-3.059-.17-4.588 1.105-4.588 3.824v17.934c0 3.514.764 5.269 2.295 5.269.056 0 .098 0 .127 0 .028 0 .042.058.042.17.227-.056.495-.141.809-.255.31-.113.595-.241.85-.382s.565-.311.935-.51c.367-.198.608-.298.723-.298l.509.935c-3.398 2.21-7.167 5.384-11.303 9.519-.908-.68-1.87-1.431-2.891-2.252-1.02-.821-2.01-1.841-2.975-3.06-.964-1.218-1.559-2.677-1.784-4.377-3.175 2.098-7.196 5.327-12.07 9.689-3.06-1.7-5.158-3.371-6.289-5.01-1.135-1.643-1.7-3.512-1.7-5.61v-20.484c0-3.059 1.812-5.325 5.438-6.799 7.423-3.115 12.749-6.03 15.978-8.754m-8.67 35.02c0 2.267.681 3.485 2.041 3.655.679-.113 1.388-.453 2.124-1.02l2.975-2.125v-22.608c-1.813-.906-4.192-2.663-7.14-5.27v27.368"/><path d="m730.5 177.44c.792.793 1.954 1.799 3.484 3.02 1.53 1.219 3.484 2.422 5.865 3.612 2.38 1.19 4.957 2.07 7.733 2.635v1.19c-1.475 0-2.607.297-3.399.892-.794.595-1.19 1.63-1.19 3.102v24.563c0 .68.495 1.643 1.487 2.89.991 1.247 1.544 1.984 1.658 2.209.85 1.361 1.274 3.145 1.274 5.355 0 2.493-.752 4.942-2.252 7.352-1.502 2.408-3.854 4.378-7.05 5.907-3.203 1.53-7.184 2.295-11.942 2.295-4.93 0-8.613-.765-11.05-2.295-2.438-1.529-3.712-3.514-3.825-5.949 0-1.927.595-3.43 1.784-4.504 1.191-1.077 2.748-1.616 4.675-1.616 2.323 0 4.136.481 5.439 1.445 1.304.963 1.926 2.408 1.869 4.334 0 1.416-.368 2.465-1.104 3.145-.737.68-2.039 1.33-3.908 1.954-.908 1.247.536 1.871 4.334 1.871 2.773 0 5.452-.553 8.03-1.658 2.578-1.104 3.979-2.706 4.207-4.802.339-2.209.239-3.938-.298-5.185-.54-1.246-1.36-2.606-2.466-4.08-1.104-1.473-1.968-3.02-2.593-4.632-.623-1.615-.934-3.697-.934-6.247-5.04 3.854-9.07 7.14-12.07 9.86-2.719-1.643-4.731-3.188-6.03-4.632-1.304-1.445-1.955-3.385-1.955-5.822v-21.927c0-1.416.496-2.521 1.487-3.315.991-.793 3.146-1.969 6.46-3.527 3.313-1.558 5.68-2.72 7.096-3.485 1.418-.765 3.148-2.082 5.187-3.952m-.34 13.258c-1.646-.68-4.02-2.18-7.139-4.504v25.582c0 .85.183 1.743.552 2.678.367.935.978 1.374 1.827 1.317.623-.113 2.211-1.105 4.76-2.975v-22.1"/><path d="m768.41 187.55l11.39-10.113c5.324 2.606 7.989 6.03 7.989 10.284l13.938-10.284c3.114 4.249 6.43 6.998 9.944 8.244v1.02c-3.061 0-4.59 1.389-4.59 4.165v20.229c0 .737.213 1.474.638 2.21.425.737 1.146 1.105 2.167 1.105.792 0 1.84-.481 3.144-1.445l.511.85-12.323 10.285c-4.535-2.89-6.801-6.601-6.801-11.134v-22.778c0-2.436-.709-3.655-2.124-3.655-.454 0-.893.127-1.316.382-.427.255-.979.652-1.658 1.19-.68.539-1.189.921-1.529 1.148v23.2c0 1.53.764 2.294 2.294 2.294v1.19c-1.813.454-3.499 1.417-5.058 2.89-1.559 1.474-2.733 3.23-3.526 5.27-1.416-2.153-3.03-3.965-4.844-5.44-1.815-1.473-3.457-2.38-4.931-2.72v-1.19h.937c1.585 0 2.379-1.473 2.379-4.418v-21.249c0-1.7-.681-2.55-2.04-2.55-.737 0-2.267.85-4.59 2.55v23.2c0 1.645.765 2.465 2.294 2.465v1.19c-3.909 1.19-6.799 3.91-8.669 8.16-3.455-4.42-7.05-7.14-10.793-8.16v-1.19c.565 0 1.02.058 1.359.17 1.021-.113 1.771-.453 2.252-1.019.481-.566.723-1.813.723-3.741v-18.953c0-2.663-.934-3.995-2.805-3.995-1.248 0-2.182.51-2.804 1.53l-.681-1.19 11.304-10.113c2.323 1.189 4.207 2.578 5.651 4.165 1.446 1.584 2.168 3.566 2.168 5.946"/><path d="m838.78 177.27c1.075 1.587 3.214 3.399 6.415 5.439 3.201 2.041 6.36 3.373 9.478 3.995v1.021c-3.059-.17-4.59 1.105-4.59 3.824v17.934c0 3.514.766 5.269 2.296 5.269.056 0 .098 0 .127 0 .027 0 .043.058.043.17.225-.056.495-.141.809-.255.31-.113.594-.241.85-.382.254-.142.565-.311.934-.51.367-.198.607-.298.723-.298l.51.935c-3.398 2.21-7.17 5.384-11.303 9.519-.908-.68-1.872-1.431-2.891-2.252-1.02-.821-2.01-1.841-2.975-3.06-.965-1.218-1.56-2.677-1.786-4.377-3.174 2.098-7.197 5.327-12.07 9.689-3.061-1.7-5.156-3.371-6.29-5.01-1.133-1.643-1.699-3.512-1.699-5.61v-20.484c0-3.059 1.812-5.325 5.439-6.799 7.42-3.115 12.748-6.03 15.978-8.754m-8.67 35.02c0 2.267.68 3.485 2.04 3.655.679-.113 1.387-.453 2.125-1.02l2.975-2.125v-22.608c-1.814-.906-4.194-2.663-7.14-5.27v27.368"/><path d="m244.65 194.5c-.902.402-1.829.639-2.779.713-1.454-.075-2.611-.6-3.475-1.577s-1.296-2.191-1.296-3.643c-.051-1.278.237-2.504.863-3.682.626-1.177 1.415-2.09 2.366-2.741 1.478-.978 3.356-1.466 5.635-1.466 2.128 0 4.069.464 5.823 1.39 1.752.927 3.574 2.104 5.465 3.531 1.89 1.427 3.123 2.154 3.7 2.179.775-.175 1.164-.614 1.164-1.315 0-.701-.351-1.402-1.052-2.104-.701-.7-1.765-1.227-3.192-1.578l.075-.638c3.18.876 4.771 2.441 4.771 4.695 0 1.402-.538 2.561-1.615 3.474-1.077.915-2.355 1.346-3.832 1.296-1.528-.075-3.945-1.014-7.25-2.816-.275.2-.45.45-.525.75.024.401.663.996 1.916 1.784 1.251.789 2.235 1.553 2.948 2.291.714.739.97 1.672.771 2.799-.102.777-.389 1.446-.865 2.01-.476.564-.976 1.04-1.503 1.428-.525.388-1.077.807-1.652 1.258.475.276 1.17.683 2.085 1.221.914.539 1.897 1.027 2.949 1.465 1.052.438 2.01.67 2.892.694.827 0 1.547-.362 2.16-1.089.614-.726.996-1.553 1.146-2.479l.639.113c-.626 2.479-1.817 4.364-3.569 5.653-1.752 1.29-3.568 1.909-5.447 1.86-2.805 0-5.834-1.027-9.09-3.081-2.58-1.577-4.17-2.342-4.771-2.292-.502.051-.958.376-1.371.977-.414.602-.621 1.177-.621 1.728v.601h-.638v-.526c0-1.903.663-3.55 1.991-4.939 1.327-1.39 2.904-2.085 4.732-2.085 1 0 2.06.164 3.174.489 1.114.326 2.048.727 2.8 1.202.074 0 .136.025.187.075.55 0 .827-.225.827-.676 0-.1-.007-.175-.019-.225-.013-.05-.032-.1-.057-.15-.225-.376-.857-.87-1.897-1.484-1.04-.613-1.816-1.132-2.329-1.558-.513-.426-.87-1.027-1.071-1.804 0-.226-.051-.488-.15-.789.025-1.102.395-2.053 1.109-2.854.713-.802 1.646-1.666 2.798-2.592-.902-.626-2.061-1.184-3.474-1.672-1.416-.489-2.749-.733-4-.733-2.605 0-3.982 1.052-4.133 3.156.05.201.094.419.132.657.037.239.069.432.094.582.125.551.538 1.102 1.24 1.653.701.551 1.541.84 2.516.864.976-.1 1.803-.325 2.479-.676l.225.677"/><path d="m271.51 193.89l6.16-4.545c.851 1 1.503 1.929 1.954 2.78.45.852.675 1.903.675 3.155v8.602c0 2.204-.3 4.095-.901 5.672-.601 1.577-1.665 3.035-3.193 4.376-1.527 1.339-3.806 2.748-6.836 4.226l-.226-.488c2.354-.977 3.863-2.398 4.527-4.264.663-1.866.995-3.85.995-5.954v-11.644c0-1.628-.35-2.442-1.051-2.442-.226 0-.426.044-.601.131-.176.088-.371.22-.583.395-.213.176-.521.401-.92.677v9.954c0 .951.288 1.465.864 1.541.4-.076.764-.226 1.089-.451l.15.525c-1.779 1.027-3.406 2.304-4.883 3.832-.751-1-1.559-1.791-2.423-2.367-.864-.576-1.646-.939-2.347-1.089v-.526c.651 0 1.126-.118 1.427-.357.3-.238.451-.757.451-1.559v-13.334c0-1.052-.231-2.241-.695-3.568-.464-1.327-.983-2.191-1.559-2.592l.376-.45c.826.801 1.452 1.928 1.877 3.38h.075c.2-1.903 1.283-3.211 3.249-3.925 1.966-.714 4.163-1.07 6.593-1.07v.676h-.865c-1.277 0-2.16.389-2.648 1.164-.488.777-.732 1.829-.732 3.156v6.383z"/><path d="m293.6 189.42l4.093 6.611-8.301 5.258c1.026 2.806 2.742 4.208 5.147 4.208.726 0 1.853-.514 3.379-1.541l.301.414c-.626.45-1.202.863-1.729 1.24-.526.375-1.227.889-2.103 1.539-.877.652-1.603 1.221-2.179 1.709s-1 .883-1.277 1.183c-2.78-1.051-4.67-2.266-5.672-3.643-1-1.377-1.502-3.055-1.502-5.03v-2.93c.1-1.327.244-2.373.433-3.137.188-.763.606-1.458 1.258-2.084s1.677-1.189 3.081-1.69l5.071-2.103m-4.284 2.479h-.075v8.752l3.606-2.366-3.531-6.386"/></g></svg>