<?xml version="1.0" encoding="utf-8"?>
<!-- Generator: Adobe Illustrator 17.1.0, SVG Export Plug-In . SVG Version: 6.00 Build 0)  -->
<!DOCTYPE svg PUBLIC "-//W3C//DTD SVG 1.1//EN" "http://www.w3.org/Graphics/SVG/1.1/DTD/svg11.dtd">
<svg version="1.1" id="Layer_1" xmlns="http://www.w3.org/2000/svg" xmlns:xlink="http://www.w3.org/1999/xlink" x="0px" y="0px"
	 viewBox="-9 57.5 5669.3 4335.5" enable-background="new -9 57.5 5669.3 4335.5" xml:space="preserve">
<g>
	<g>
		<polyline fill="#E2E1D4" points="317.4,3411 -9,3411 -9,3241.3 843.6,3241.3 843.6,3411 518.7,3411 518.7,4371.4 317.4,4371.4 
			317.4,3411 		"/>
		<path fill="#E2E1D4" d="M824.9,3523.1h163.9l14.4,151h7.2c60.4-110.7,151-171.1,240.1-171.1c43.1,0,70.5,5.8,96.3,17.3
			l-34.5,172.5c-28.8-8.6-51.8-14.4-87.7-14.4c-67.6,0-148.1,46-199.9,174v519H826.4v-848.3"/>
		<path fill="#E2E1D4" d="M1888.9,3829.4c-1.4-89.1-40.3-165.3-153.8-165.3c-84.8,0-163.9,37.4-238.7,83.4l-71.9-133.7
			c93.5-58.9,212.8-110.7,348-110.7c212.8,0,316.3,129.4,316.3,366.6v503.2h-162.5l-15.8-93.5h-5.8
			c-76.2,63.3-162.5,113.6-263.1,113.6c-148.1,0-251.6-100.6-251.6-248.7C1390,3961.7,1542.4,3866.8,1888.9,3829.4 M1704.9,4236.3
			c69,0,122.2-34.5,185.5-93.5V3953c-230,28.8-306.3,89.1-306.3,174C1584.1,4204.6,1634.4,4236.3,1704.9,4236.3z"/>
		<path fill="#E2E1D4" d="M2144.8,3523.1h202.7l135.2,440c23,83.4,48.9,169.7,70.5,255.9h7.2c24.4-86.3,48.9-172.5,71.9-255.9
			l135.2-440h191.2l-289,848.3h-230L2144.8,3523.1"/>
		<path fill="#E2E1D4" d="M3033.4,3262.9c0-67.6,51.8-113.6,122.2-113.6s122.2,46,122.2,113.6c0,66.1-51.8,112.1-122.2,112.1
			C3085.2,3375,3033.4,3327.6,3033.4,3262.9 M3056.4,3523.1h198.4v848.3h-198.4V3523.1z"/>
		<path fill="#E2E1D4" d="M3461.9,4147.1c76.2,59,148.1,94.9,234.4,94.9c92,0,135.2-43.1,135.2-102.1c0-70.5-92-102.1-181.2-136.6
			c-112.1-41.7-238.7-105-238.7-247.3c0-148.1,119.3-254.5,309.1-254.5c117.9,0,212.8,48.9,281.8,102.1l-92,120.8
			c-59-43.1-119.3-71.9-186.9-71.9c-84.8,0-125.1,40.3-125.1,93.5c0,66.1,84.8,93.5,176.9,126.5c116.5,43.1,243,99.2,243,257.4
			c0,145.2-116.5,263.1-330.7,263.1c-116.5,0-238.7-50.3-322.1-117.9L3461.9,4147.1"/>
		<path fill="#E2E1D4" d="M4994.6,3221.2c138,0,250.2,67.6,322.1,143.8l-110.7,125.1c-59-57.5-122.2-93.5-208.5-93.5
			c-185.5,0-317.8,155.3-317.8,409.8c0,257.4,122.2,412.7,310.6,412.7c100.6,0,174-41.7,238.7-112.1l110.7,122.2
			c-92,105-208.5,163.9-352.3,163.9c-286.1,0-513.3-207-513.3-582.3C4472.7,3439.7,4704.2,3221.2,4994.6,3221.2"/>
		<rect x="5460.4" y="3241.3" fill="#E2E1D4" width="199.9" height="1130.1"/>
	</g>
	<g>
		<path fill="#E2E1D4" d="M3011.7,2774c-15.4,2.3-30.7,4.2-45.9,5.4c-9.8,0.5-20.3,1.5-29.7,1.5l-3.5,0.1
			c11.8-26.5,20.8-47,27.7-62.6C2974.2,2733.9,2991.8,2753.2,3011.7,2774"/>
		<path fill="#E2E1D4" d="M3045.1,2808c47.7,47.2,106.7,74.2,171.7,79c-109.2,44.4-212.1,61.5-291.3,66.8
			c-79,5.3-159.1-4-237.6-25.5c6.6-1.2,11.4-2,17.2-2.8c6.4-0.8,147.2-19.2,210.7-113.5l5.9,0.1l15.6-0.1c10.6,0,20.1-0.9,30.2-1.3
			c23.9-2.1,47.4-5.5,70.4-10.1C3040.3,2803.2,3042.7,2805.5,3045.1,2808"/>
		<path fill="#E2E1D4" d="M2248,1991.9c34-18.4,72.4-15.6,132.6-15.6c6.4,0.1,13.1,0.1,20-0.1c5.9-0.1,11.8-0.2,18.1-0.3
			c62-0.6,113.5,5.3,112.6-92c-0.9-97.3-44.2-176-106.1-175.3c-62,0.5-122,80.2-118.2,177.5c1,25.3,4.7,43.6,10.7,56.8
			C2263.7,1956.4,2248.8,1989.8,2248,1991.9 M2993.1,1591.6c-24,19.5-49.4,37.6-75.7,53.5l-87.9,53.1c-55.2,6.7-103,20.4-105.7,21.2
			l-4.6,2c-4.2,2.5-7.5,6.5-9,11.4l-89.6,295.1l-478.7,106.4l-150.8-105.6l-43.9-355.4c85.6-15.7,200.1-33.9,337.7-49.3
			c-14.7,17.7-29.1,36.2-42.6,55.6l-81.9,117.5l119.3-79.5c1.8-1.2,77.7-51.2,201.9-112c123.8-9.3,260.4-15.3,406.6-15.3
			C2923.8,1590.6,2958.7,1591,2993.1,1591.6z"/>
		<path fill="#E2E1D4" d="M3517.3,1952c-0.6-2.3-13.6-41.4-71.3-34.6c6.7-14.5,9.6-34,7.5-60.7c-7.6-97.1-64.1-174.2-126-172.1
			c-61.9,2.2-101.6,82.7-98.1,180c3.4,97.2,55.4,96.6,117.3,94.4C3429.9,1957.4,3475.6,1931.8,3517.3,1952 M3822.8,1672.4
			l-43.2,302.1l-152,106.4l-478.1-54.3l-89.2-293.7c-2-6.5-7.1-11.5-13.6-13.5c-2.9-0.9-62.1-17.7-124.9-23.2l11.5-0.8
			c9.9-0.7,174.8-20.9,371.7-88.8C3523,1623.4,3701.1,1650.2,3822.8,1672.4z"/>
		<path fill="#E2E1D4" d="M1917.6,2171.7c2.9,10.2,5.9,20.3,9,30.3c-30.8,9-93.7,17.7-122.1,12.8c-23.6-23.7-67.5-187-77.1-273.8
			c-7.8-70.3-2.3-85.5,4.8-91.4c8.3-6.9,39.4-24.6,66.3-39l36.3,295c0.7,5.7,3.7,10.7,8.4,13.9L1917.6,2171.7"/>
		<path fill="#E2E1D4" d="M3077.5,2175.8l-2.2,18.8c0,0-66.1,61.3-172.5,75c-106.4,13.7-190-51.7-190-51.7
			c3.5,11.4,8.5,37,32.6,58.9c-28.4-3.4-59-5.7-91.1-5.7c-11.6,0-23.3,0.3-34.6,0.9c-65.5,3.4-157.6,102.4-222.3,202.2
			c-31.8,10.1-131.1,41.6-246.1,75.6c-107.3-148.7-160.1-300.7-165.4-316.4l0.1-0.1c-2.2-6-4.3-12.1-6.4-18.3l27.6,19.3v0l68.2,47.8
			l22.8,15.9c3.4,2.4,7.4,3.7,11.4,3.7l4.4-0.5l626.5-139.5c7-1.5,12.7-6.8,14.8-13.7l89.4-294.1c15.4-2.1,29-3.2,40.6-3.2
			c11.5,0,25.2,1.1,40.6,3.2l92,302.8c2.3,7.7,9,13.3,16.9,14.1L3077.5,2175.8"/>
		<path fill="#E2E1D4" d="M3792.7,2159.6l20.2-14.2c-3.4,14-7,28-10.8,41.8c-28.1,90.1-61.3,169.9-98.2,240.2
			c-8.2,0.6-16.8,0.9-26,0.9c-28.5,0-57.5-2.4-89.6-5.3c-55.8-5.1-144.4-15.3-172.3-18.5c-24.1-19.2-106.5-84.8-175.1-138.7
			c-2.7-2.2-5-4.2-7.3-6.1c-12.1-10.2-25.8-21.8-53.6-21.8c-25.3,0-62.1,9.2-151.3,36.2c46.3-34.6,46.6-79.3,46.6-79.3l2.2-18.8
			l587.8,66.8c4.8,0.6,9.8-0.7,13.8-3.5l59-41.4L3792.7,2159.6"/>
		<path fill="#E2E1D4" d="M3595.6,1400.9l0.4,0.1c-4.8,3.4-9.6,7-14.4,10.4c-193.2,134.8-416.5,191.9-545.3,215
			c91-75.2,161.9-164.1,197.7-212.5c11.2-15.2,18.9-26.4,22.7-32.1c65.8,2.7,131.5,5.9,197.2,9.6
			C3501.2,1394.3,3548.4,1397.4,3595.6,1400.9"/>
		<path fill="#E2E1D4" d="M2872.5,1373.3c33.3,0.1,66.6,0.4,99.9,0.8c-56,12.4-110.3,27-162.2,42.9
			c-173.2,53.3-320.4,122-420.5,174.7c111.7-106.9,230.4-166.7,244-173.4l1.3-0.7l90.4-42.9
			C2774.5,1373.9,2823.4,1373.3,2872.5,1373.3L2872.5,1373.3"/>
		<path fill="#E2E1D4" d="M2542,1380c-58.4,11.3-115.2,24.9-170.4,40.3c-346.8,97.1-627.8,265.5-789,377.6
			c166-198.4,407.6-350.1,470.7-387.9c6.8-0.8,13.5-1.6,20.4-2.3c23.9-2.5,48-4.6,72.2-6.4c48.3-3.7,96.6-6.9,145.1-9.6
			C2374.7,1386.8,2458.4,1382.9,2542,1380"/>
		<path fill="#E2E1D4" d="M3353.8,1777.2c0.3,17.4-13.6,31.9-31.1,32.3c-17.5,0.3-31.9-13.7-32.2-31.1
			c-0.3-17.5,13.6-31.9,31.1-32.2C3339.1,1745.8,3353.5,1759.7,3353.8,1777.2"/>
		<path fill="#E2E1D4" d="M2466.4,1800.5c0.5,17.4-13.3,32-30.8,32.5c-17.5,0.5-32.1-13.3-32.5-30.8c-0.5-17.4,13.3-32,30.8-32.5
			C2451.4,1769.2,2465.9,1783,2466.4,1800.5"/>
		<path fill="#E2E1D4" d="M3900.3,2413.4l-137.6,38.7l-358.4-7.7L3180.2,2270l-271,67.8l-313.4-27.1l-175.5,191.7l-329.3,98.4
			l-164.5-51l34.5,27.6c-6.4-2.9-12.8-5.9-19.2-8.8c34.5,51.2,78.7,114.8,117.7,164.8c68,87.4,153.6,168.3,317.8,168.3
			c20.6,0,42.5-1.2,65-3.8c167.1-18.9,210-26.5,233.2-30.5c7.8-1.4,14-2.5,21.9-3.5c1.4-0.1,138.1-17.8,176.5-103.9
			c39.6-88.5,47.6-109.5,47.8-110.4l13.9-37.3c-18.9,26.1-36.9,49.9-57.6,75.5c-24.4,29.4-48.8,58.9-77.1,85.8
			c-3.6,3.3-7.3,6.7-11.2,9.8c-4,3.2-7.9,6.3-13.4,9.2c-10.2,5-19.4,7.1-28.9,9.8c-18.9,4.8-37.7,8.5-56.6,11.9
			c-37.7,6.5-75.5,11.4-113.3,16c-75.7,8.1-151.5,14.7-228.1,15.1c-9.5,0-19.1-0.2-28.8-0.7c-9.8-0.4-19.9-1.7-29.5-4.1
			c-19.3-4.5-37.4-12.2-54.4-21.7c-33.6-19.5-63-45-86.9-74.8c27.6,26.2,58.4,48.9,92,64.7c16.8,7.9,34.4,14,52.3,17
			c9,1.5,17.8,2.3,27,2.3c9.3,0,18.7-0.3,28.1-0.7c37.5-2,75.2-4.8,112.9-8.5c37.7-3.4,75.3-7.1,112.9-11.7
			c37.6-4,75.2-8.8,112.4-14.5c18.6-2.7,37.2-5.8,55.2-9.8c8.9-2,18.2-4.4,25.3-7.5c6.4-3.1,14.2-9.4,21.1-15.2
			c14-11.9,27.5-25.4,40.9-38.7c13.4-13.4,26.5-27.1,39.6-41c22.1-23.1,41-47.6,62.3-71.4c2.7-3,5.5-6.1,8.4-9.1l0.1,0.1l0.3,0.2
			c4.4,3.2,8.8,6.5,13.2,9.8c25.7,19.2,52.2,39.9,77.8,57.9c33,23.2,66.4,46.3,100.9,65.7c8.6,4.7,17.5,9.3,26.1,12l2.9,0.8l3.1,0.7
			c1.7,0.3,4,0.4,6.2,0.5c4.5,0,9.5-0.1,14.3-0.4c19.4-1.3,39.3-4.2,59-7.2c39.5-6.2,79.1-13.3,118.5-21.2
			c39.5-7.6,78.9-15.7,118.1-24.4c39.4-8.3,78.6-17.5,117.4-27.3c19.4-5.2,38.7-10,56-18.3c17.6-8.2,33.9-19.4,49-32.3
			c30.4-25.9,56-58,77.2-93c-16.7,37.6-40.2,72.1-69.5,101.6c-14.9,14.4-31.5,27.4-50,37.5c-9.1,5.1-19.3,9.3-28.9,12.6
			c-9.6,3.4-19.4,6.6-29.1,9.6c-77.8,23.5-156.7,41-236,56.8c-39.7,7.4-79.5,14.6-119.8,19.9c-20.1,2.5-40.3,4.9-61,5.7
			c-5.3,0.2-10.5,0.3-15.9-0.1c-2.8-0.2-5.6-0.4-8.8-1.1c-2.3-0.4-2.6-0.5-4.3-1l-4.4-1.5c-10.5-4.1-19.4-9.4-28.4-14.6
			c-35.2-21.6-67.2-46.9-98.9-72.4c-25.1-20.5-49.7-41.7-73.8-63.4l23,27.4c0.6,0.6,51.6,61.4,114,123.4
			c41.5,41.1,91.7,61.9,149.2,61.9c19.7,0,40.3-2.5,61.1-7.5c19.4-4.6,40.3-9.7,61.8-14.8c77.6-18.6,165.6-39.6,208.3-51.6
			c8.5-2.4,17.8-4.6,27.8-6.9c56.8-13.2,134.6-31.2,175.8-113.8c29.7-59.4,69.2-135.4,99.7-193.5
			C3889.5,2423.9,3900.3,2413.4,3900.3,2413.4"/>
		<polyline fill="#8E8D8C" points="2113.9,2260.2 2106.7,2255.2 2228.5,2234.7 2113.9,2260.2 		"/>
		<path fill="#B0AEAE" d="M3076.5,2185c-3.2-3.4-5.7-6.8-7.6-10.2l8.7,1L3076.5,2185"/>
		<g>
			<path fill="#E2E1D4" d="M3596,1401.1l-0.4-0.1c-47.2-3.5-94.4-6.7-141.8-9.4c-65.7-3.7-131.4-6.9-197.1-9.6
				c-3.8,5.7-11.6,16.9-22.7,32.1c-35.8,48.4-106.7,137.2-197.7,212.5c128.8-23.1,352.1-80.2,545.3-215
				C3586.5,1408.1,3591.2,1404.5,3596,1401.1z"/>
			<path fill="#E2E1D4" d="M3060.4,1732.8l89.2,293.8l478,54.3l152-106.4l43.2-302.2c-121.7-22.1-299.8-49-517.8-65.7
				c-196.9,67.9-361.7,88.1-371.7,88.8l-11.5,0.8c62.8,5.4,122,22.3,124.9,23.2C3053.3,1721.3,3058.3,1726.3,3060.4,1732.8z
				 M3327.5,1684.6c61.9-2.2,118.4,75,126,172.1c2.1,26.8-0.8,46.3-7.5,60.7c57.6-6.9,70.7,32.3,71.3,34.6
				c-41.7-20.1-87.4,5.4-170.6,7c-61.9,2.2-113.9,2.9-117.3-94.4C3226,1767.3,3265.6,1686.8,3327.5,1684.6z"/>
			<path fill="#E2E1D4" d="M2872.4,1373.3c-48.9,0.1-97.9,0.6-147,1.6l-90.4,42.9l-1.3,0.7c-13.6,6.6-132.3,66.5-244,173.4
				c100.1-52.7,247.3-121.4,420.5-174.8c51.9-15.9,106.2-30.6,162.3-42.9C2939.2,1373.6,2905.8,1373.3,2872.4,1373.3L2872.4,1373.3z
				"/>
			<path fill="#E2E1D4" d="M1843.2,2119.6c-4.7-3.3-7.7-8.3-8.5-14l-36.3-295c-26.9,14.4-58,32.1-66.2,39
				c-7.2,5.9-12.6,21.1-4.9,91.3c9.6,86.7,53.5,250.1,77.2,273.8c28.4,5,91.2-3.7,122.1-12.8c-3.1-10-6.1-20.2-9-30.3L1843.2,2119.6
				z"/>
			<path fill="#E2E1D4" d="M2620.7,1542.9c84.9-4.1,174.2-6.6,267.4-6.6c56.4,0,111.2,1,164.5,2.5c45.8-44.1,84.5-89.2,112.4-124.4
				c5.4-6.8,10.5-13.4,15.1-19.3c-47.4,4.8-94,11.6-139.5,20.3C2884.6,1444.6,2740.6,1493.2,2620.7,1542.9z"/>
			<path fill="#E2E1D4" d="M3322.7,1809.5c17.4-0.4,31.4-14.8,31.1-32.3c-0.3-17.5-14.7-31.5-32.3-31.1
				c-17.5,0.3-31.4,14.7-31.1,32.2C3290.8,1795.8,3305.2,1809.8,3322.7,1809.5z"/>
			<path fill="#E2E1D4" d="M2435.6,1833c17.4-0.4,31.2-15,30.8-32.5c-0.5-17.5-15-31.3-32.5-30.8c-17.5,0.4-31.3,15-30.8,32.5
				C2403.6,1819.7,2418.1,1833.4,2435.6,1833z"/>
			<path fill="#E2E1D4" d="M1769.9,1482.4l11.9,45.1c33.4-26.6,63.9-48.7,89.8-66.3C1829.5,1469.3,1795.2,1476.6,1769.9,1482.4z"/>
			<path fill="#E2E1D4" d="M2478.5,1448.8c-164.7,38.2-316.2,94.4-449,155.4c86.4-13.9,191-28.5,311-40.5
				C2387.3,1517.2,2435.7,1478.9,2478.5,1448.8z"/>
			<path fill="#E2E1D4" d="M1991,2028.9l150.8,105.6l478.7-106.4l89.6-295.2c1.5-4.9,4.8-9,9-11.4l4.6-2
				c2.8-0.7,50.6-14.4,105.8-21.1l87.9-53.1c26.4-15.9,51.7-34.1,75.7-53.6c-34.4-0.6-69.4-1-105-1c-146.2,0-282.8,6-406.6,15.3
				c-124.2,60.7-200.2,110.7-201.9,112l-119.3,79.5l81.9-117.6c13.5-19.5,27.9-38,42.6-55.6c-137.5,15.4-252.1,33.6-337.7,49.4
				L1991,2028.9z M2317.7,1942.9c-6-13.2-9.7-31.5-10.7-56.8c-3.7-97.2,56.3-176.9,118.2-177.5c61.9-0.6,105.1,78,106.1,175.3
				c0.9,97.3-50.6,91.4-112.6,92c-6.3,0.1-12.2,0.2-18.1,0.3c-6.9,0.1-13.6,0.2-20,0.1c-60.1-0.1-98.6-2.8-132.6,15.6
				C2248.8,1989.8,2263.7,1956.4,2317.7,1942.9z"/>
			<path fill="#E2E1D4" d="M3738.1,2197.8l-59.1,41.4c-4,2.8-9,4-13.8,3.5l-587.8-66.8l-42.8-4.9c-7.9-0.9-14.6-6.4-16.9-14.1
				l-92-302.9c-15.4-2.1-29.1-3.2-40.5-3.2c-11.7,0-25.3,1.1-40.6,3.2l-89.3,294.1c-2.1,6.9-7.8,12.1-14.8,13.7L2114,2301.3
				l-4.4,0.4c-4,0-8.1-1.2-11.5-3.7l-22.8-15.9l-68.2-47.7v-0.1l-27.6-19.3c2,6.2,4.2,12.3,6.4,18.3l-0.1,0.1
				c5.3,15.7,58.1,167.6,165.4,316.3c114.9-33.9,214.3-65.4,246-75.5c64.7-99.8,156.9-198.7,222.4-202.2c11.3-0.5,23-0.9,34.7-0.9
				c32,0,62.7,2.3,91,5.7c-24.1-21.9-29-47.6-32.6-58.9c0,0,83.6,65.4,190,51.7c106.4-13.8,172.5-75.1,172.5-75.1
				s-0.3,44.7-46.7,79.4c89.2-27,126.1-36.2,151.3-36.2c27.9,0,41.6,11.6,53.6,21.9c2.3,1.9,4.6,3.9,7.3,6.1
				c68.6,54,151,119.4,175.1,138.7c27.9,3.3,116.5,13.3,172.3,18.5c32.2,2.9,61.2,5.4,89.7,5.4c9.2,0,17.8-0.4,25.9-0.9
				c36.9-70.4,70.1-150.2,98.2-240.2c3.8-13.8,7.5-27.8,10.8-41.8l-20.3,14.2L3738.1,2197.8z"/>
			<path fill="#E2E1D4" d="M3934.6,2052.4c-0.8,5.5-3.8,10.4-8.4,13.6l-57.4,40.1c-4.5,23-6.2,33.8-11.8,56.3
				c32.8,7.6,86.5,13.5,112.2,8.6c23.3-25.2,60.8-181.9,68.8-271.3c6.6-72.9,0.8-88.6-6.6-94.5c-7.4-6.2-32.4-20.4-56.7-33.6
				L3934.6,2052.4z"/>
			<g>
				<polygon fill="#E2E1D4" points="2701.1,534.5 2844.8,534.5 2844.8,970.5 2785.7,970.5 2785.7,1051.4 2985.7,1051.4 
					2985.7,970.5 2926.5,970.5 2926.5,534.5 3070.3,534.5 3070.3,606.3 3139.7,606.3 3139.7,465.1 3063.9,465.1 2631.6,465.1 
					2631.6,606.3 2701.1,606.3 				"/>
				<g>
					<path fill="#E2E1D4" d="M2400.4,922.9c-1.7,52.4-0.4,147.2,23.9,235.8c0.9,3.4,0.8,6.8,0,10c30.9-3.3,61.9-6.1,92.9-8.6
						c-34.7-72.9-42.3-150.4-43.9-177.7C2446.4,963.5,2419.9,940.7,2400.4,922.9z"/>
					<path fill="#E2E1D4" d="M2362.2,906.5l-295.9,84.2c-19.9,129.6-10.6,224.8-8.6,242.3c24.5-6.7,49.2-12.8,74-18.5
						c40.9-9.1,82.1-16.7,123.4-23.6c41.4-6.9,82.9-12.2,124.4-17.2c2.9-0.4,5.8-0.6,8.8-1l-1.4-3.6
						C2358.4,1065.4,2359.7,956.6,2362.2,906.5z"/>
					<path fill="#E2E1D4" d="M4154.5,1208.7c-0.1-19.6-0.9-39.1-2.5-58.5c-0.8-9.7-1.9-19.3-3.1-29c-0.8-6.8-2-14-3.1-20.5
						c-25.9-21.8-55.2-41.2-85.9-58.8c-33.1-19.3-67.8-36.6-103.3-52.8c-35.2-16.6-71.3-31.7-107.6-46.3
						c-18.2-7.3-36.5-14.5-54.8-21.3c-18.3-7.1-36.8-13.8-55.3-20.5c38.9,6.4,77.5,15.3,115.6,25.1c24.9,6.5,49.7,13.7,74.2,21.4
						c-174.7-456.7-592.4-754-1048.5-754c-456.1,0-873.8,297.4-1048.5,754c24.5-7.7,49.3-14.9,74.1-21.4
						c38.2-9.8,76.8-18.7,115.7-25.1c-18.6,6.7-37.1,13.4-55.4,20.5c-18.3,6.8-36.6,14-54.8,21.3c-36.3,14.6-72.4,29.7-107.6,46.3
						c-35.3,16.1-70.1,33.5-103.2,52.8c-30.6,17.6-60,37-85.9,58.8c-1.1,6.6-2.2,13.7-3.1,20.5c-1.1,9.6-2.2,19.2-3,29
						c-1.7,19.4-2.4,39-2.6,58.5c-0.4,39.2,2.3,78.3,7.3,117c5.4,38.9,12.5,77.5,23,114.7c5.2,18.7,11,37.2,17.9,54.9
						c3.4,9,7.1,17.7,11,26.2c1.9,4.2,4,8.4,6,12.4l2.5,4.7c2.9,1.5,5.9,3,8.7,4.3l17.4,8.3c9.7,4.5,23.1,10.8,34.1,15.8l1.8-1.6
						l-32.2-122.8c6.8-1.9,68-17.7,173.6-37.8c-8.5-1.6-17.2-3.4-25.6-5.5c-24-6-47.7-13.3-70.6-22.5c-11.4-4.9-22.7-10.1-33.3-16.1
						c-10.7-6.1-21.2-13.1-29.4-22.3c115.9,37.9,355.4,20.7,568.3-1.2c194.8-20.1,389.9-33.1,586.1-33.5
						c196.2,0.4,391.4,13.4,586.1,33.5c213.1,22,452.6,39.1,568.4,1.2c-8.2,9.3-18.7,16.2-29.4,22.3c-10.6,6.1-22,11.3-33.3,16.1
						c-23,9.3-46.7,16.6-70.7,22.5c-3.5,0.8-7.1,1.6-10.7,2.4c115.7,21.4,183,38.9,190.2,40.9l-30.8,116.9
						c6.2-2.8,12.5-5.4,18.6-8.3l17.4-8.3c2.8-1.4,5.8-2.8,8.7-4.3l2.4-4.7c2.1-4,4.1-8.2,6.1-12.4c3.9-8.6,7.6-17.3,11.1-26.2
						c6.8-17.7,12.7-36.2,17.8-54.9c10.6-37.2,17.7-75.8,23-114.7C4152.3,1286.9,4154.9,1247.8,4154.5,1208.7z M2579.4,412.9h612.6
						v245.6H3018v-71.8h-39.2v331.5h59.3v185.4h-304.5V918.2h59V586.7h-39.1v71.8h-174V412.9z M3806.7,1276.8
						c-20.1-5.1-40.3-9.4-60.6-13.3c-40.7-7.7-81.5-14.2-122.6-19.1c-41-5.3-82.1-9.8-123.3-13.3c-41.2-3.5-82.4-7-123.7-9.4
						c-165.1-10.1-330.7-12.7-496.4-12.9c-165.7,0.1-331.2,3.2-496.4,13c-41.3,2.4-82.4,5.9-123.7,9.4
						c-41.2,3.5-82.4,7.9-123.3,13.3c-41.1,5-81.9,11.5-122.6,19.2c-20.3,3.8-40.5,8.2-60.7,13.2c-20,5-40.1,10.5-59.5,18.2
						c36.2-21.2,76.2-35.1,116-48.1c3.3-1.1,6.7-2,10.1-3.1l-0.6-2.6c-0.7-4.6-15.4-113.4,10.2-268.9c1.2-7.4,6.6-13.5,13.9-15.5
						l42.1-12c9.1-326.4,143.6-479.9,147.8-484.6c-120.1,193.3-119,422.5-116.9,475.8l261.5-74.3l0.6-0.1l3.3-0.4l1.1-0.1l4.3,0.4
						l0.8,0.3l3.2,1.1l1.2,0.7l2.5,1.6l0.7,0.5l0.5,0.5l0.8,0.6c0.2,0.3,7.1,7.1,18.2,17.4c-2.6-86.2,1.5-333.3,119.2-538.2
						c-2.5,7.2-95.9,280.3-63.7,586.3c10.5,8.4,21.4,16.6,32.2,23.8c5.2,3.6,8.4,9.4,8.4,15.7c0.1,1,2.3,98.6,45.4,181.6l1.5,3.9
						c107.2-7.3,214.6-10.2,321.9-10.3c107.2,0,214.6,3.2,321.8,10.6l1.6-4.1c43.1-83,45.3-180.5,45.3-181.6
						c0.1-6.3,3.3-12.2,8.5-15.7c10.7-7.2,21.5-15.4,32.1-23.8c32.2-306-61.2-579.1-63.6-586.3c117.6,204.9,121.8,452,119.2,538.2
						c11-10.3,18-17.2,18.2-17.4l0.8-0.6l0.5-0.5l0.7-0.5l2.6-1.7l1.2-0.6l3.4-1.2l0.7-0.2l4.3-0.4l1,0.1l3.3,0.4l0.6,0.1
						l261.5,74.3c2.1-53.4,3.2-282.6-116.9-475.8c4.2,4.7,138.6,158.2,147.7,484.6l42.1,12c7.2,2,12.6,8.1,13.9,15.5
						c25.6,155.6,10.8,264.4,10.2,268.9l-0.6,2.6c3.4,1,6.7,2,10.2,3.1c39.7,13,79.7,26.8,115.9,48
						C3846.8,1287.3,3826.8,1281.8,3806.7,1276.8z"/>
					<path fill="#E2E1D4" d="M3287.3,982.5c-1.6,27.3-9.2,105-44,177.9c31,2.5,62,5.3,93,8.5c-0.8-3.3-1-6.7,0-10.2
						c24.3-88.7,25.7-183.5,23.9-235.8C3340.6,940.7,3314,963.5,3287.3,982.5z"/>
					<path fill="#E2E1D4" d="M3398.2,906.5c2.6,50.1,3.8,158.9-24.6,262.5l-1.5,3.7c2.9,0.3,5.9,0.5,8.7,0.9
						c83.2,9.5,166,22.9,248,40.8c24.7,5.7,49.4,11.8,73.9,18.5c2-17.4,11.4-112.7-8.5-242.4L3398.2,906.5z"/>
				</g>
			</g>
			<path fill="#E2E1D4" d="M3944.9,1696.6c-21.7-4.7-49.5-10.5-82.7-16.9l-44.1,309c-0.8,5.4-3.8,10.4-8.3,13.6l-165.5,115.7
				c-3.9,2.8-8.9,4.1-13.7,3.5l-498.7-56.7c-8-0.9-14.7-6.4-17-14l-89.8-295.7c-24.1-6.2-85.8-20.6-139.9-20.6
				c-54.3,0-116,14.4-140,20.6l-89.9,295.7c-1.6,5.1-5.1,9.4-9.8,11.9l-4.9,1.8l-498.7,111l-4.4,0.4c-4,0-8.1-1.2-11.4-3.6
				l-165.4-115.8c-4.6-3.2-7.7-8.3-8.4-14l-44.6-361.7c-18.5,3.6-35.2,7-50.2,10.2c-10.6,5.8-21,11.7-31.4,17.5l47.3,383.3
				l240.4,168.4l606.5-134.9l89.5-295c2.3-7.4,8.4-12.9,16-14c22.7-3.7,42.5-5.5,59.4-5.5c16.6,0,36.6,1.9,59.2,5.5
				c7.6,1.2,13.8,6.6,16,14l91.9,302.3l609.9,69.4l233.8-163.8L3944.9,1696.6z"/>
			<path fill="#E2E1D4" d="M4292.5,1202.9c-1.1-22.7-3.4-46.2-6.7-69.8c-1.8-13.2-3.7-25.1-6-36.2c-2.2-11.2-4.8-23.6-8.9-37.9
				l-2.2-7.9c-4.6-16.9-14.6-31.8-28.4-42.6l-5.8-4.5c-33.4-26.2-70.4-48.5-120.1-72.4c-0.1-0.1-0.3-0.1-0.4-0.2
				c-19.4-9.2-40.1-18.1-62.4-27C4007.6,791,3950.6,684.7,3881.8,588c-77.9-109.4-169.1-204.1-271.1-281.6
				c-214.6-162.9-467.2-248.9-730.5-248.9c-263.2,0-515.8,86.1-730.5,248.9c-102,77.4-193.2,172.2-271.1,281.6
				c-68.8,96.7-125.9,202.9-170,316.3c-22,8.8-42.6,17.7-62.3,27c-0.2,0.1-0.3,0.2-0.5,0.2c-49.7,23.8-86.8,46.2-120.2,72.4
				l-5.8,4.6c-13.7,10.8-23.6,25.7-28.3,42.5l-2.2,8.1c-3.9,14-6.3,25.6-8.7,37.3c0,0.1,0,0.2,0,0.2c-2.5,12.6-4.4,24.7-6,36
				c-3.2,23.1-5.5,46.6-6.7,70c0,0.1,0,0.2,0,0.2c-2.3,46.6-0.9,93.3,4.1,138.8c4.8,45.5,13.5,91.4,25.7,136.7
				c0.1,0.2,0.1,0.5,0.2,0.7c6.8,24,14.2,46.3,22.8,68.1c4.7,12.1,9.6,23.6,15.1,35c2.9,6.3,6,12.1,8.7,17.2l0.3,0.6
				c0.4,0.7,0.8,1.5,1.2,2.2l4.2,7.4c0.2,0.4,0.5,0.8,0.7,1.3l0.7,1.2c1.2,2.1,3,5.2,5.7,9.4c-75.4,78.6-141.8,163-198.1,251.9
				l-101,159.3c-21.7,34.3-15,79.3,15.9,105.7c15.3,13.1,34.2,19.6,53,19.6c19.2,0,38.4-6.8,53.8-20.3l141.8-124.4
				c1-0.9,25.5-22,69.9-55.3c4.6,40.2,18.9,116,39.9,190c29.8,105.1,62.3,175.1,128.8,195.9c-18.5,3-35.9,12.3-48.8,27.3
				c-23.6,27.3-26.4,66.9-6.9,97.3l56.2,87.7c0.1,0.2,0.3,0.4,0.4,0.6l1.3,2c31.8,49.3,113.3,173.5,182.9,263
				c81,104.2,203.2,223.8,431.2,223.8c25.6,0,52.9-1.6,80.9-4.7c0.1,0,0.1,0,0.2,0c45-5.1,82.6-9.5,114.4-13.5
				c105.8,36.6,215.1,55.1,325.1,55.1c117.9,0,234.1-21.4,345.3-63.5c55.3-21,109.2-47.2,160.4-77.9l13.7-3.3
				c73.3-17.6,149.1-35.9,190.2-47.4c5.2-1.4,12.2-3.1,19.7-4.8l2.1-0.5c65.1-15,200.1-46.1,271.8-189.4
				c54.7-109.6,184.1-349.1,236.3-586.1c19.9-77,32.9-156.2,36.6-197.2c3.3-36.9,5.7-75.8,0.4-109.7c-6.7-42.8-25.5-77.3-56-102.5
				c-2.5-2.1-7.2-5.9-17.1-12.5c5.5-2.3,10.7-4.4,15.9-6.6c0.5-0.2,1-0.4,1.5-0.7l18.7-8.4c0.3-0.1,0.5-0.2,0.8-0.4
				c8.3-3.8,15-7.1,22.3-10.9l6.7-3.4c12.8-6.6,23.6-16.4,31.3-28.4l4.1-6.4c3.4-5.2,5.5-8.7,7.7-12.6c0.1-0.1,0.1-0.3,0.2-0.4
				l4.1-7.4c3.4-6.2,6.7-12.6,10-19.7c5-10.7,9.9-22,14.8-34.4c0-0.1,0.1-0.2,0.1-0.4c8.5-21.7,16-44,22.8-68.2
				c0.1-0.3,0.2-0.7,0.3-1c12.3-45.8,21-91.7,25.7-136.5C4293.5,1296.5,4294.9,1249.8,4292.5,1202.9z M4207.3,1332.9
				c-4.4,41.7-12.3,83.1-23.3,124.1c-5.8,20.4-12.4,40.6-20.2,60.6c-4,10-8.2,19.9-12.9,29.9c-2.3,4.9-4.8,9.8-7.5,14.8l-4.1,7.4
				c-1.5,2.7-2.7,4.7-5,8.3l-4.2,6.6l-6.6,3.4c-7.1,3.7-12.9,6.4-19.4,9.4l-18.7,8.4c-12.6,5.4-25.2,10.4-37.8,15.4
				c-8.8,3.5-16.6,6.6-24,9.7l-20.8,79.2c-0.5-0.1-6.8-1.7-18.5-4.6l-1.1,8.3c23,12,68.2,36.4,83.6,49.1
				c31,25.6,33.1,66.2,26.3,141.9c-3.5,38.9-16.4,114.6-34.4,184.2c-30.9,119.7-47.4,133.7-68.6,139.2c-10.7,2.8-27.3,5.5-43.4,5.5
				c-32.7,0-77.2,0.9-107.1-6.3c-7.7,27.2-29.7,98.2-73.1,187c2.2-1.1,4.3-1.9,6.3-3c53.6-28.2,156.7-73,161-75l81.4-35.4
				l-41.7,78.4c-1,1.7-90.3,169.8-145.1,279.6c-54.4,108.7-156.3,132.4-217.3,146.5c-9.2,2.2-17.9,4.2-25,6.1
				c-43.8,12.3-132.4,33.5-210.6,52.3l-2.8,0.6c-48.1,29.7-100.6,56.2-158,78c-210.1,79.6-431.6,75.1-632.5,1.3
				c-32.6,4.2-75.5,9.4-132.6,15.8c-24.8,2.8-48.9,4.2-71.9,4.2c-191.3,0-292.8-97.1-366.8-192.3
				c-79.3-101.9-176.1-253.1-180.3-259.4l-56.2-87.7l95,42.7c45.5,20.5,180.6,83,219.3,101c3.1-0.9,6.2-1.8,9.3-2.7
				c-64.3-91.7-117-196.3-154.3-312.1c-31.7,9.5-80.4,16.9-118.4,16.9c-13.9,0-26.3-1-35.8-3.3c-21.2-4.8-45.4-25.3-78.4-141.3
				c-19.1-67.3-33.4-140.8-37.6-178.7c-8.2-73.9-6.7-113.4,24-139c18.5-15.5,80.9-48.2,93.9-55l-2.8-22.8
				c-198.3,116.5-317.2,219.5-319.6,221.6l-141.8,124.5l101-159.3c80-126.3,172.3-228.4,257.3-307c-3.5-1.4-6.8-2.9-10.2-4.3
				l-18.7-8.4c-6.4-3-12.3-5.8-19.3-9.4l-6.6-3.4l-4.3-6.6c-2.4-3.6-3.4-5.6-5-8.3l-4.2-7.4c-2.6-5-5.2-9.9-7.5-14.8
				c-4.7-9.9-9-19.9-12.8-29.9c-7.9-20-14.5-40.1-20.3-60.6c-11.1-41-19-82.4-23.4-124.1c-4.6-41.8-5.8-83.9-3.7-126
				c1.1-21,3.1-42,6-62.8c1.5-10.5,3.1-20.9,5.2-31.3c2.2-10.6,4.3-20.4,7.5-32l2.2-8.1l5.8-4.6c33.1-26,68.8-45.6,105.1-63
				c29.9-14.1,60.3-26.4,91.1-37.7c85.7-237.9,233.1-448.9,426.8-595.9c200.3-152,435.8-232.3,681.1-232.3s480.8,80.4,681.1,232.3
				c193.7,147.1,341.1,358,426.8,595.8c30.8,11.4,61.2,23.7,91.1,37.8c36.3,17.4,72,37,105,63l5.8,4.6l2.2,8.1
				c3.3,11.6,5.4,21.4,7.4,32c2.1,10.4,3.8,20.8,5.2,31.3c2.9,20.8,5,41.8,6.1,62.8C4213.2,1249,4212,1291.1,4207.3,1332.9z"/>
			<path fill="#E2E1D4" d="M3420.5,1562.3c262.5,25.6,455.4,63.6,543.1,82.9l42.9-162.9c-62.3-14.1-177-37.7-333.2-59.8
				C3593.6,1479.9,3506.2,1525.7,3420.5,1562.3z"/>
			<path fill="#E2E1D4" d="M3582.7,2484.7c-67.4-6.2-181.6-19.6-182.7-19.8l-8.7-1l-6.9-5.5c-1-0.7-101-80.4-181.8-144
				c-3.3-2.7-6.2-5.2-9-7.4c-8.5-7.3-8.5-7.3-13.6-7.3c-25.9,0-101.3,23.4-266.3,74.5l-10.2,3.2l-9.9-3.7
				c-1.1-0.4-109.4-40.5-239.2-40.5c-10.6,0-21.2,0.3-31.5,0.8c-13,0.7-85.9,35.3-179.2,182.9l-6.1,9.5l-10.7,3.5
				c-1.5,0.5-162.1,52.4-332.4,101l-11.1,3.1l-10.4-4.9c-1.1-0.4-67.7-31.3-131.2-60.5c34.6,51.1,78.8,114.8,117.7,164.7
				c68,87.5,153.6,168.4,317.9,168.4c20.6,0,42.5-1.3,65-3.8c167.1-18.9,210.1-26.5,233.2-30.6c7.8-1.3,14-2.4,21.9-3.4
				c1.3-0.2,138.1-17.9,176.5-104c39.6-88.5,47.6-109.5,47.8-110.4l14-37.3l-3.8-3.5c2.8-3,5.5-6.1,8.4-9.1l0.1,0.1l0.3,0.2
				c4.4,3.1,8.8,6.5,13.2,9.9l-2.3,3.1l23,27.4c0.5,0.7,51.6,61.5,114,123.4c41.5,41.2,91.7,62,149.2,62c19.6,0,40.3-2.5,61.1-7.5
				c19.3-4.7,40.3-9.7,61.8-14.9c77.6-18.5,165.6-39.6,208.3-51.6c8.4-2.4,17.9-4.6,27.8-6.8c56.8-13.1,134.6-31.2,175.8-113.8
				c31-62,72.8-142.4,103.8-201.4c-26.9,12.4-55.1,25.8-75.1,36.4c-30.8,16.2-71.2,24.1-123.4,24.1
				C3647,2490.3,3616.5,2487.7,3582.7,2484.7z"/>
			<path fill="#E2E1D4" d="M3037.9,2800.7c-23.1,4.6-46.5,8.1-70.4,10.2c-10.1,0.4-19.6,1.2-30.2,1.2l-15.6,0.1l-6-0.1
				c-63.4,94.3-204.3,112.7-210.7,113.5c-5.8,0.7-10.6,1.5-17.2,2.7c78.5,21.5,158.6,30.8,237.6,25.5
				c79.2-5.3,182.1-22.5,291.3-66.7c-65-4.8-124-31.8-171.7-79C3042.7,2805.5,3040.3,2803.1,3037.9,2800.7z"/>
			<path fill="#E2E1D4" d="M3011.7,2774c-19.9-20.8-37.6-40-51.5-55.6c-6.8,15.6-15.8,36.2-27.7,62.6h3.5c9.5,0,19.9-1.1,29.7-1.5
				C2981,2778.3,2996.3,2776.3,3011.7,2774z"/>
			<path fill="#E2E1D4" d="M2542,1379.9c-83.6,3.1-167.3,6.9-250.9,11.7c-48.6,2.7-96.8,6-145.2,9.6c-24.2,1.8-48.2,3.8-72.2,6.4
				c-6.9,0.7-13.6,1.4-20.5,2.3c-63,37.7-304.7,189.5-470.7,387.9c161.2-112.1,442.2-280.5,789-377.6
				C2426.8,1404.8,2483.7,1391.2,2542,1379.9z"/>
		</g>
		<g opacity="0.2">
			<path fill="#51433D" d="M3052.6,1539c45.9-44.1,84.6-89.2,112.4-124.5c5.4-6.8,10.6-13.4,15.1-19.4c-47.4,4.8-94,11.7-139.6,20.3
				c-156,29.2-300,77.8-419.9,127.5c84.9-4.1,174.2-6.6,267.4-6.6C2944.5,1536.4,2999.3,1537.3,3052.6,1539z"/>
			<path fill="#51433D" d="M3673.3,1422.6c-79.8,57.3-167.1,103.2-252.9,139.8c262.5,25.6,455.4,63.5,543.1,82.9l42.9-162.9
				C3944.2,1468.3,3829.6,1444.6,3673.3,1422.6z"/>
			<path fill="#51433D" d="M3694.2,990.7l-296-84.2c2.4,45.7,3.6,140.1-17.8,235c13.4-25.8,28.3-63.8,38.6-110.8
				c14.7-66.5,90.1-43.9,137.4-32.7c47.3,11.3,109.2,27,119.4,51.8c16.6,40.6,26,136.3,28.6,165.1
				C3707.2,1178.1,3710.3,1095.7,3694.2,990.7z"/>
			<g opacity="0.2">
				<path fill="#51433D" d="M3245,410.8c-1.4,68.5-17.5,649.6-161.8,649.6c-16.5,0-31.5,0-45.2,0v43.2h-304.5v-43.2
					c-14.7,0-30.9,0-48.8,0c-153.3,0-165.7-655.9-165.7-655.9l-7.9,23.5c-26.1,104.7-62,296.8-40.2,504.1
					c10.5,8.4,21.4,16.6,32.2,23.8c5.2,3.6,8.4,9.4,8.4,15.7c0.1,1,2.3,98.6,45.4,181.6l1.5,3.9c107.2-7.3,214.6-10.2,321.9-10.3
					c107.2,0,214.6,3.2,321.8,10.6l1.6-4.1c43.1-83,45.3-180.5,45.3-181.6c0.1-6.3,3.3-12.2,8.5-15.7c10.3-7,20.8-14.8,31-22.9
					l1.4-4C3312.2,711,3271.1,510.1,3245,410.8z"/>
			</g>
			<path fill="#51433D" d="M1912.6,1285.7c-0.3,0.2-0.7,0.3-1.1,0.5C1911.9,1286,1912.3,1285.8,1912.6,1285.7z"/>
			<path fill="#51433D" d="M1914.8,1284.6c-0.7,0.4-1.5,0.7-2.2,1.1C1913.4,1285.3,1914.2,1284.9,1914.8,1284.6z"/>
			<path fill="#51433D" d="M1905.6,1289.1c-1.5,0.7-2.9,1.4-4.2,2C1902.8,1290.4,1904.2,1289.8,1905.6,1289.1z"/>
			<path fill="#51433D" d="M1911.6,1286.2c-0.1,0-0.2,0.1-0.3,0.1C1911.4,1286.3,1911.5,1286.2,1911.6,1286.2z"/>
			<path fill="#51433D" d="M1906.6,1288.6c-0.1,0.1-0.2,0.1-0.4,0.2C1906.3,1288.7,1906.4,1288.7,1906.6,1288.6z"/>
			<path fill="#51433D" d="M1906.2,1288.8c-0.2,0.1-0.4,0.2-0.6,0.3C1905.8,1289,1906,1288.9,1906.2,1288.8z"/>
			<path fill="#51433D" d="M1908.8,1287.6c-0.7,0.3-1.4,0.7-2.2,1.1C1907.3,1288.3,1908,1287.9,1908.8,1287.6z"/>
			<path fill="#51433D" d="M1910.6,1286.7c-0.6,0.3-1.2,0.6-1.8,0.9C1909.4,1287.2,1910,1287,1910.6,1286.7z"/>
			<path fill="#51433D" d="M1911.3,1286.3c-0.2,0.1-0.5,0.2-0.7,0.4C1910.8,1286.6,1911.1,1286.4,1911.3,1286.3z"/>
			<path fill="#51433D" d="M1915.8,1284.1c-0.1,0.1-0.3,0.1-0.4,0.2C1915.6,1284.2,1915.7,1284.2,1915.8,1284.1z"/>
			<path fill="#51433D" d="M1917.4,1283.3c0,0-0.1,0-0.1,0.1C1917.3,1283.4,1917.3,1283.4,1917.4,1283.3z"/>
			<path fill="#51433D" d="M1917.5,1283.3C1917.4,1283.3,1917.4,1283.3,1917.5,1283.3C1917.4,1283.3,1917.4,1283.3,1917.5,1283.3z"
				/>
			<g>
				<path fill="#51433D" d="M2010.2,1246.9c3.3-1.1,6.7-2,10.1-3.1l-0.6-2.6c-0.5-3.2-7.9-57.7-3.4-143.7
					c-16.1,65.5-45.2,151.3-90.8,181.2C1952.8,1266.1,1981.6,1256.2,2010.2,1246.9z"/>
				<path fill="#51433D" d="M2344.4,1030.7c9,41,21.5,75.1,33.4,100.2c-19-91.3-17.8-180.4-15.5-224.4l-295.9,84.2
					c-17.7,115-12.3,203-9.5,233.5l1.5-0.9c0,0,9.6-125.4,29.3-173.4c10.1-24.7,72.1-40.5,119.4-51.8
					C2254.2,986.8,2329.7,964.2,2344.4,1030.7z"/>
			</g>
			<path fill="#51433D" d="M1917.5,1283.3c0,0,0.1,0,0.1-0.1C1917.6,1283.2,1917.5,1283.3,1917.5,1283.3z"/>
			<path fill="#51433D" d="M1917.3,1283.4c0,0-0.1,0-0.1,0.1C1917.2,1283.4,1917.2,1283.4,1917.3,1283.4z"/>
			<path fill="#51433D" d="M1916.4,1283.8c-0.1,0.1-0.3,0.1-0.4,0.2C1916.1,1284,1916.2,1283.9,1916.4,1283.8z"/>
			<path fill="#51433D" d="M1916.5,1283.8c0,0-0.1,0-0.1,0.1C1916.4,1283.8,1916.4,1283.8,1916.5,1283.8z"/>
			<path fill="#51433D" d="M1915.9,1284c0,0-0.1,0-0.1,0.1C1915.9,1284.1,1915.9,1284.1,1915.9,1284z"/>
			<path fill="#51433D" d="M1916.9,1283.6c-0.1,0.1-0.3,0.1-0.4,0.2C1916.6,1283.7,1916.8,1283.6,1916.9,1283.6z"/>
			<path fill="#51433D" d="M1917.1,1283.5c-0.1,0-0.2,0.1-0.3,0.1C1917,1283.5,1917,1283.5,1917.1,1283.5z"/>
			<path fill="#51433D" d="M1915.4,1284.3c-0.2,0.1-0.4,0.2-0.6,0.3C1915,1284.5,1915.2,1284.4,1915.4,1284.3z"/>
			<path fill="#51433D" d="M1882.8,1300.2c-0.7,0.3-1.2,0.6-1.6,0.8C1881.6,1300.8,1882.2,1300.5,1882.8,1300.2z"/>
			<path fill="#51433D" d="M1886.5,1298.4c-0.3,0.2-0.6,0.3-0.9,0.4C1885.9,1298.7,1886.2,1298.6,1886.5,1298.4z"/>
			<path fill="#51433D" d="M1885.6,1298.9c-0.6,0.3-1.1,0.5-1.6,0.8C1884.5,1299.4,1885,1299.1,1885.6,1298.9z"/>
			<path fill="#51433D" d="M1884,1299.6c-0.4,0.2-0.8,0.4-1.2,0.6C1883.2,1300,1883.6,1299.9,1884,1299.6z"/>
			<path fill="#51433D" d="M1880.6,1301.3C1880.4,1301.4,1880.4,1301.4,1880.6,1301.3L1880.6,1301.3z"/>
			<path fill="#51433D" d="M1880.9,1301.2c-0.2,0.1-0.3,0.1-0.4,0.2C1880.7,1301.3,1880.8,1301.2,1880.9,1301.2z"/>
			<path fill="#51433D" d="M1901.4,1291.1c-0.3,0.2-0.6,0.3-1,0.5C1900.8,1291.5,1901.1,1291.3,1901.4,1291.1z"/>
			<path fill="#51433D" d="M1881.2,1301c-0.1,0.1-0.2,0.1-0.3,0.2C1881,1301.1,1881.1,1301.1,1881.2,1301z"/>
			<path fill="#51433D" d="M1896.2,1293.7C1896.2,1293.7,1896.2,1293.7,1896.2,1293.7C1896.2,1293.7,1896.2,1293.7,1896.2,1293.7z"
				/>
			<path fill="#51433D" d="M1889.5,1297c-1.1,0.5-2.1,1-2.9,1.4C1887.4,1298,1888.4,1297.5,1889.5,1297z"/>
			<path fill="#51433D" d="M1896.1,1293.7c-0.4,0.2-0.9,0.4-1.3,0.6C1895.3,1294.1,1895.7,1293.9,1896.1,1293.7z"/>
			<path fill="#51433D" d="M1900.5,1291.6c-1.5,0.7-2.9,1.4-4.2,2.1C1897.6,1293,1899,1292.3,1900.5,1291.6z"/>
			<path fill="#51433D" d="M1890.2,1296.6c-0.3,0.1-0.5,0.3-0.8,0.4C1889.7,1296.9,1890,1296.7,1890.2,1296.6z"/>
			<path fill="#51433D" d="M1893.9,1294.8c-1.3,0.6-2.5,1.2-3.6,1.8C1891.4,1296,1892.6,1295.4,1893.9,1294.8z"/>
			<path fill="#51433D" d="M1894.8,1294.4c-0.3,0.2-0.6,0.3-0.9,0.5C1894.2,1294.7,1894.5,1294.5,1894.8,1294.4z"/>
			<path fill="#51433D" d="M1871.6,1461.2c-42,8.1-76.3,15.5-101.7,21.2l11.9,45.1C1815.2,1500.9,1845.7,1478.8,1871.6,1461.2z"/>
			<path fill="#51433D" d="M3818.1,1988.7c-0.8,5.5-3.8,10.5-8.3,13.7l-165.4,115.7c-4,2.8-8.9,4-13.7,3.5l-498.7-56.7
				c-8-0.9-14.7-6.4-17-14.1l-89.8-295.7c-24.1-6.2-85.9-20.6-139.9-20.6c-54.2,0-115.9,14.4-140,20.6l-89.8,295.7
				c-1.6,5.2-5.2,9.4-9.8,11.9l-5,1.8L2142,2175.5l-4.4,0.5c-4.1,0-8.1-1.2-11.5-3.5l-165.4-115.9c-4.6-3.3-7.8-8.3-8.4-13.9
				l-44.6-361.7c-18.5,3.6-35.3,7-50.1,10.2c-10.6,5.8-21.1,11.6-31.4,17.4l47.4,383.3l240.4,168.3l606.5-135l89.6-295
				c2.3-7.3,8.4-12.7,15.9-14c22.7-3.7,42.6-5.5,59.4-5.5c16.7,0,36.6,1.9,59.2,5.5c7.6,1.2,13.8,6.6,16,14l91.8,302.4l610,69.4
				l233.8-163.8l48.8-341.6c-21.8-4.7-49.5-10.5-82.7-16.8L3818.1,1988.7z"/>
			<path fill="#51433D" d="M2371.6,1420.2c55.2-15.5,112.1-29,170.4-40.3c-41.8,1.5-83.6,3.3-125.4,5.2
				c-181.1,38.2-518.1,140.3-825.3,402.4c-2.9,3.4-5.8,6.9-8.7,10.3C1743.8,1685.7,2024.7,1517.3,2371.6,1420.2z"/>
			<path fill="#51433D" d="M2810.2,1417c51.9-15.9,106.2-30.6,162.3-42.9c-24.8-0.4-49.6-0.7-74.3-0.8
				c-253.3,64-416.2,161.3-477.5,202.4C2519.1,1525.7,2654.1,1465.1,2810.2,1417z"/>
			<path fill="#51433D" d="M3036.3,1626.5c128.8-23.1,352.1-80.2,545.3-215c4.9-3.4,9.6-7,14.4-10.4l-0.4-0.1
				c-29.3-2.2-58.6-4.2-87.9-6.1c-134.6,118-400.5,207.2-467.5,228.4C3038.9,1624.3,3037.6,1625.4,3036.3,1626.5z"/>
			<path fill="#51433D" d="M1979.6,2215.1c2,6.2,4.2,12.3,6.4,18.3l-0.1,0.1c2,5.8,10.4,30,25.5,65.8c37.9,22.9,89.2,51.2,116.1,55
				c1.2,0.2,2.7,0.3,4.4,0.3c62.9,0,448.1-114.8,510.3-133.9c39.6-12.1,51.9-34.3,55.6-49.3l-583.8,130l-4.4,0.5
				c-4.1,0-8.1-1.2-11.4-3.7l-22.8-15.9l-68.2-47.8v0L1979.6,2215.1z"/>
			<path fill="#51433D" d="M3634.1,2320.9c2.9,0,5.3-0.2,7.1-0.5c35.2-6.6,110.5-57.2,143.4-80.4c6-17.2,11.9-34.9,17.5-52.9
				c3.8-13.8,7.4-27.7,10.8-41.8l-20.2,14.2l-54.6,38.2l-59,41.4c-3.4,2.3-7.5,3.6-11.5,3.6c-0.8,0-1.5,0-2.2-0.1l-587.8-66.8
				l-1.1,9.2c8.8,9.5,22.7,18.5,44.7,24.2C3183.3,2225.4,3563.5,2320.9,3634.1,2320.9z"/>
			<path fill="#51433D" d="M1917.6,2171.7l-36.8-25.8c-12.3,4.9-24,7-35,7c-36,0-64.4-22.8-83.1-44.2
				c14.6,51.5,30.5,94.8,41.8,106.1c5.7,1,12.9,1.5,20.8,1.5c31.6,0,76.6-7,101.3-14.2C1923.5,2192,1920.5,2181.9,1917.6,2171.7z"/>
			<path fill="#51433D" d="M2870.3,2917.2c-32.3,0-65-2.3-96.8-7.8c-36.8,12.1-65.5,15.8-68.4,16.2c-5.8,0.7-10.6,1.6-17.2,2.8
				c64,17.6,129.2,27,193.9,27c14.6,0,29.2-0.5,43.7-1.5c79.3-5.3,182.2-22.5,291.3-66.8c-24.5-1.8-48.2-6.8-70.7-14.8
				C3084.2,2891.1,2979,2917.1,2870.3,2917.2z"/>
			<g>
				<path fill="#51433D" d="M2377.5,2901.8c20.6,0,42.5-1.3,65-3.8c167.1-18.9,210.1-26.5,233.2-30.6c7.8-1.3,14-2.4,21.9-3.4
					c1.3-0.2,138.1-17.9,176.5-104c39.6-88.5,47.6-109.5,47.8-110.4l14-37.3l-3.8-3.5l0,0c-21.3,23.8-40.2,48.3-62.3,71.4
					c-13.1,13.9-26.2,27.6-39.6,41c-13.4,13.3-26.9,26.7-40.9,38.7c-6.9,5.9-14.6,12.1-21.1,15.2c-7,3.1-16.3,5.5-25.3,7.5
					c-18,4.1-36.6,7.1-55.2,9.8c-37.2,5.7-74.8,10.6-112.4,14.5c-37.6,4.6-75.2,8.3-112.9,11.7c-37.6,3.7-75.4,6.5-112.9,8.5
					c-9.4,0.4-18.8,0.7-28.1,0.7c-9.1,0-18-0.7-27-2.3c-17.9-2.9-35.5-9-52.3-17c-33.6-15.9-64.5-38.6-92-64.7
					c3.7,4.6,7.8,9,11.8,13.4c-4.3-3.9-7.8-7.4-10.2-10c-13.3-14.4-133.2-118.3-195.8-172.3c-4.7-2.2-9.4-4.3-14.1-6.5
					c34.6,51.1,78.8,114.8,117.7,164.7C2127.6,2820.9,2213.2,2901.8,2377.5,2901.8z"/>
				<path fill="#51433D" d="M3299,2818.3c19.3-4.7,40.3-9.7,61.8-14.9c77.6-18.5,165.6-39.6,208.3-51.6c8.4-2.4,17.9-4.6,27.8-6.8
					c56.8-13.1,134.6-31.2,175.8-113.8c31-62,72.8-142.4,103.8-201.4c-24.5,11.3-50,23.4-69.5,33.5c-5,14.5-13.6,36.1-26.7,60.4
					l0.1-0.2c-21.2,35-46.8,67-77.2,93c-15.1,12.9-31.5,24.1-49,32.3c-17.3,8.3-36.7,13.1-56,18.3c-38.8,9.8-78,19.1-117.4,27.3
					c-39.2,8.7-78.5,16.8-118.1,24.4c-39.4,7.9-78.9,15-118.5,21.2c-19.8,3-39.6,5.9-59,7.2c-4.8,0.3-9.7,0.4-14.3,0.4
					c-2.2-0.1-4.5-0.2-6.2-0.5l-3.1-0.7l-2.9-0.8c-8.5-2.7-17.5-7.3-26.1-12c-34.6-19.4-67.9-42.5-100.9-65.7
					c-25.6-18-52.1-38.7-77.8-57.9l0,0c0,0,0,0,0,0l-2.3,3.1l0.1,0.1l4.9,4.3c-1.2-0.9-2.4-1.8-3.5-2.7l21.5,25.6
					c0.5,0.7,51.6,61.5,114,123.4c41.5,41.2,91.7,62,149.2,62C3257.6,2825.9,3278.2,2823.3,3299,2818.3z"/>
			</g>
			<path fill="#51433D" d="M2340.5,1563.8c46-45.7,93.4-83.4,135.5-113.2c-2.8,0.3-5.7,0.5-8.5,0.8
				c-160.4,38.2-308.2,93.1-438,152.8C2115.8,1590.4,2220.5,1575.8,2340.5,1563.8z"/>
			<path fill="#51433D" d="M3889.1,2127.7c-7.3,0-16.5-1.8-23.8-3.3c-2.9,12.9-4.6,23.4-8.3,37.8c24.8,5.8,61.2,10.1,87.4,10.1
				c8.7,0,17.5,0,24.8-1.4c11.6-11.5,24.8-53.2,37.9-102.1C3982.3,2094.7,3937.2,2127.7,3889.1,2127.7z"/>
		</g>
		<g opacity="0.5">
			<path fill="#51433D" d="M3360.1,922.9c1.8,52.3,0.5,147.1-23.9,235.8c-1,3.4-0.8,6.9,0,10.2c-31-3.3-62-6.1-93-8.5
				c34.8-72.9,42.4-150.6,44-177.9C3314,963.5,3340.6,940.7,3360.1,922.9"/>
			<path fill="#51433D" d="M2473.2,982.5c1.6,27.3,9.2,104.8,43.9,177.7c-31,2.5-62,5.3-92.9,8.6c0.8-3.2,0.9-6.6,0-10
				c-24.3-88.5-25.6-183.4-23.9-235.8C2419.9,940.7,2446.4,963.5,2473.2,982.5"/>
		</g>
	</g>
</g>
</svg>
