<?xml version="1.0" encoding="utf-8"?>
<!-- Generator: Adobe Illustrator 18.0.0, SVG Export Plug-In . SVG Version: 6.00 Build 0)  -->
<!DOCTYPE svg PUBLIC "-//W3C//DTD SVG 1.1//EN" "http://www.w3.org/Graphics/SVG/1.1/DTD/svg11.dtd">
<svg version="1.1" id="Layer_1" xmlns="http://www.w3.org/2000/svg" xmlns:xlink="http://www.w3.org/1999/xlink" x="0px" y="0px"
	 viewBox="-9 219.5 612 468" enable-background="new -9 219.5 612 468" xml:space="preserve">
<g>
	<g>
		<polyline fill="#E2E1D4" points="26.2,581.5 -9,581.5 -9,563.2 83,563.2 83,581.5 48,581.5 48,685.2 26.2,685.2 26.2,581.5 		"/>
		<path fill="#E2E1D4" d="M81,593.6h17.7l1.6,16.3h0.8c6.5-12,16.3-18.5,25.9-18.5c4.7,0,7.6,0.6,10.4,1.9l-3.7,18.6
			c-3.1-0.9-5.6-1.6-9.5-1.6c-7.3,0-16,5-21.6,18.8v56H81.2v-91.6"/>
		<path fill="#E2E1D4" d="M195.9,626.7c-0.2-9.6-4.4-17.8-16.6-17.8c-9.2,0-17.7,4-25.8,9l-7.8-14.4c10.1-6.4,23-12,37.6-12
			c23,0,34.1,14,34.1,39.6v54.3h-17.5l-1.7-10.1h-0.6c-8.2,6.8-17.5,12.3-28.4,12.3c-16,0-27.2-10.9-27.2-26.8
			C142,640.9,158.5,630.7,195.9,626.7 M176,670.6c7.4,0,13.2-3.7,20-10.1V640c-24.8,3.1-33.1,9.6-33.1,18.8
			C163,667.2,168.4,670.6,176,670.6z"/>
		<path fill="#E2E1D4" d="M223.5,593.6h21.9l14.6,47.5c2.5,9,5.3,18.3,7.6,27.6h0.8c2.6-9.3,5.3-18.6,7.8-27.6l14.6-47.5h20.6
			l-31.2,91.6h-24.8L223.5,593.6"/>
		<path fill="#E2E1D4" d="M319.4,565.5c0-7.3,5.6-12.3,13.2-12.3s13.2,5,13.2,12.3c0,7.1-5.6,12.1-13.2,12.1
			S319.4,572.5,319.4,565.5 M321.9,593.6h21.4v91.6h-21.4V593.6z"/>
		<path fill="#E2E1D4" d="M365.7,661c8.2,6.4,16,10.2,25.3,10.2c9.9,0,14.6-4.7,14.6-11c0-7.6-9.9-11-19.6-14.7
			c-12.1-4.5-25.8-11.3-25.8-26.7c0-16,12.9-27.5,33.4-27.5c12.7,0,23,5.3,30.4,11l-9.9,13c-6.4-4.7-12.9-7.8-20.2-7.8
			c-9.2,0-13.5,4.4-13.5,10.1c0,7.1,9.2,10.1,19.1,13.7c12.6,4.7,26.2,10.7,26.2,27.8c0,15.7-12.6,28.4-35.7,28.4
			c-12.6,0-25.8-5.4-34.8-12.7L365.7,661"/>
		<path fill="#E2E1D4" d="M531.1,561c14.9,0,27,7.3,34.8,15.5L554,590c-6.4-6.2-13.2-10.1-22.5-10.1c-20,0-34.3,16.8-34.3,44.2
			c0,27.8,13.2,44.6,33.5,44.6c10.9,0,18.8-4.5,25.8-12.1l12,13.2c-9.9,11.3-22.5,17.7-38,17.7c-30.9,0-55.4-22.3-55.4-62.9
			C474.8,584.6,499.8,561,531.1,561"/>
		<rect x="581.4" y="563.2" fill="#E2E1D4" width="21.6" height="122"/>
	</g>
	<g>
		<path fill="#E2E1D4" d="M317.1,512.7c-1.7,0.2-3.3,0.5-5,0.6c-1.1,0.1-2.2,0.2-3.2,0.2l-0.4,0c1.3-2.9,2.2-5.1,3-6.8
			C313,508.4,314.9,510.5,317.1,512.7"/>
		<path fill="#E2E1D4" d="M320.7,516.4c5.1,5.1,11.5,8,18.5,8.5c-11.8,4.8-22.9,6.6-31.4,7.2c-8.5,0.6-17.2-0.4-25.6-2.8
			c0.7-0.1,1.2-0.2,1.9-0.3c0.7-0.1,15.9-2.1,22.7-12.3l0.6,0l1.7,0c1.1,0,2.2-0.1,3.3-0.1c2.6-0.2,5.1-0.6,7.6-1.1
			C320.2,515.9,320.4,516.1,320.7,516.4"/>
		<path fill="#E2E1D4" d="M234.6,428.3c3.7-2,7.8-1.7,14.3-1.7c0.7,0,1.4,0,2.2,0c0.6,0,1.3,0,2,0c6.7-0.1,12.3,0.6,12.2-9.9
			c-0.1-10.5-4.8-19-11.5-18.9c-6.7,0.1-13.2,8.7-12.8,19.2c0.1,2.7,0.5,4.7,1.2,6.1C236.3,424.5,234.7,428.1,234.6,428.3
			 M315.1,385.1c-2.6,2.1-5.3,4.1-8.2,5.8l-9.5,5.7c-6,0.7-11.1,2.2-11.4,2.3l-0.5,0.2c-0.5,0.3-0.8,0.7-1,1.2l-9.7,31.9l-51.7,11.5
			l-16.3-11.4l-4.7-38.4c9.2-1.7,21.6-3.7,36.5-5.3c-1.6,1.9-3.1,3.9-4.6,6l-8.8,12.7l12.9-8.6c0.2-0.1,8.4-5.5,21.8-12.1
			c13.4-1,28.1-1.7,43.9-1.7C307.6,385,311.4,385,315.1,385.1z"/>
		<path fill="#E2E1D4" d="M371.7,424c-0.1-0.2-1.5-4.5-7.7-3.7c0.7-1.6,1-3.7,0.8-6.6c-0.8-10.5-6.9-18.8-13.6-18.6
			c-6.7,0.2-11,8.9-10.6,19.4c0.4,10.5,6,10.4,12.7,10.2C362.2,424.6,367.2,421.8,371.7,424 M404.6,393.8l-4.7,32.6l-16.4,11.5
			l-51.6-5.9l-9.6-31.7c-0.2-0.7-0.8-1.2-1.5-1.5c-0.3-0.1-6.7-1.9-13.5-2.5l1.2-0.1c1.1-0.1,18.9-2.3,40.1-9.6
			C372.3,388.5,391.5,391.4,404.6,393.8z"/>
		<path fill="#E2E1D4" d="M199,447.7c0.3,1.1,0.6,2.2,1,3.3c-3.3,1-10.1,1.9-13.2,1.4c-2.5-2.6-7.3-20.2-8.3-29.6
			c-0.8-7.6-0.2-9.2,0.5-9.9c0.9-0.7,4.3-2.7,7.2-4.2l3.9,31.8c0.1,0.6,0.4,1.2,0.9,1.5L199,447.7"/>
		<path fill="#E2E1D4" d="M324.2,448.2l-0.2,2c0,0-7.1,6.6-18.6,8.1c-11.5,1.5-20.5-5.6-20.5-5.6c0.4,1.2,0.9,4,3.5,6.4
			c-3.1-0.4-6.4-0.6-9.8-0.6c-1.3,0-2.5,0-3.7,0.1c-7.1,0.4-17,11.1-24,21.8c-3.4,1.1-14.2,4.5-26.6,8.2
			c-11.6-16.1-17.3-32.5-17.9-34.2l0,0c-0.2-0.6-0.5-1.3-0.7-2l3,2.1l0,0l7.4,5.2l2.5,1.7c0.4,0.3,0.8,0.4,1.2,0.4l0.5-0.1
			l67.6-15.1c0.8-0.2,1.4-0.7,1.6-1.5l9.7-31.7c1.7-0.2,3.1-0.3,4.4-0.3c1.2,0,2.7,0.1,4.4,0.3l9.9,32.7c0.2,0.8,1,1.4,1.8,1.5
			L324.2,448.2"/>
		<path fill="#E2E1D4" d="M401.4,446.4l2.2-1.5c-0.4,1.5-0.8,3-1.2,4.5c-3,9.7-6.6,18.3-10.6,25.9c-0.9,0.1-1.8,0.1-2.8,0.1
			c-3.1,0-6.2-0.3-9.7-0.6c-6-0.6-15.6-1.7-18.6-2c-2.6-2.1-11.5-9.2-18.9-15c-0.3-0.2-0.5-0.5-0.8-0.7c-1.3-1.1-2.8-2.4-5.8-2.4
			c-2.7,0-6.7,1-16.3,3.9c5-3.7,5-8.6,5-8.6l0.2-2l63.5,7.2c0.5,0.1,1.1-0.1,1.5-0.4l6.4-4.5L401.4,446.4"/>
		<path fill="#E2E1D4" d="M380.1,364.5L380.1,364.5c-0.5,0.4-1,0.8-1.5,1.1c-20.9,14.6-45,20.7-58.9,23.2
			c9.8-8.1,17.5-17.7,21.3-22.9c1.2-1.6,2-2.8,2.5-3.5c7.1,0.3,14.2,0.6,21.3,1C369.9,363.8,375,364.1,380.1,364.5"/>
		<path fill="#E2E1D4" d="M302.1,361.5c3.6,0,7.2,0,10.8,0.1c-6,1.3-11.9,2.9-17.5,4.6c-18.7,5.8-34.6,13.2-45.4,18.9
			c12.1-11.5,24.9-18,26.3-18.7l0.1-0.1l9.8-4.6C291.5,361.6,296.8,361.5,302.1,361.5L302.1,361.5"/>
		<path fill="#E2E1D4" d="M266.4,362.3c-6.3,1.2-12.4,2.7-18.4,4.4c-37.4,10.5-67.8,28.7-85.2,40.8c17.9-21.4,44-37.8,50.8-41.9
			c0.7-0.1,1.5-0.2,2.2-0.2c2.6-0.3,5.2-0.5,7.8-0.7c5.2-0.4,10.4-0.7,15.7-1C248.3,363,257.4,362.6,266.4,362.3"/>
		<path fill="#E2E1D4" d="M354,405.1c0,1.9-1.5,3.4-3.4,3.5c-1.9,0-3.4-1.5-3.5-3.4c0-1.9,1.5-3.4,3.4-3.5
			C352.4,401.7,354,403.2,354,405.1"/>
		<path fill="#E2E1D4" d="M258.2,407.6c0.1,1.9-1.4,3.5-3.3,3.5c-1.9,0.1-3.5-1.4-3.5-3.3c-0.1-1.9,1.4-3.5,3.3-3.5
			S258.2,405.8,258.2,407.6"/>
		<path fill="#E2E1D4" d="M413,473.8l-14.9,4.2l-38.7-0.8l-24.2-18.8l-29.3,7.3l-33.8-2.9l-18.9,20.7L217.7,494l-17.8-5.5l3.7,3
			c-0.7-0.3-1.4-0.6-2.1-0.9c3.7,5.5,8.5,12.4,12.7,17.8c7.3,9.4,16.6,18.2,34.3,18.2c2.2,0,4.6-0.1,7-0.4c18-2,22.7-2.9,25.2-3.3
			c0.8-0.2,1.5-0.3,2.4-0.4c0.2,0,14.9-1.9,19.1-11.2c4.3-9.6,5.1-11.8,5.2-11.9l1.5-4c-2,2.8-4,5.4-6.2,8.2
			c-2.6,3.2-5.3,6.4-8.3,9.3c-0.4,0.4-0.8,0.7-1.2,1.1c-0.4,0.3-0.9,0.7-1.4,1c-1.1,0.5-2.1,0.8-3.1,1.1c-2,0.5-4.1,0.9-6.1,1.3
			c-4.1,0.7-8.2,1.2-12.2,1.7c-8.2,0.9-16.4,1.6-24.6,1.6c-1,0-2.1,0-3.1-0.1c-1.1,0-2.1-0.2-3.2-0.4c-2.1-0.5-4-1.3-5.9-2.3
			c-3.6-2.1-6.8-4.9-9.4-8.1c3,2.8,6.3,5.3,9.9,7c1.8,0.9,3.7,1.5,5.6,1.8c1,0.2,1.9,0.2,2.9,0.2c1,0,2,0,3-0.1
			c4-0.2,8.1-0.5,12.2-0.9c4.1-0.4,8.1-0.8,12.2-1.3c4.1-0.4,8.1-0.9,12.1-1.6c2-0.3,4-0.6,6-1.1c1-0.2,2-0.5,2.7-0.8
			c0.7-0.3,1.5-1,2.3-1.6c1.5-1.3,3-2.7,4.4-4.2c1.4-1.4,2.9-2.9,4.3-4.4c2.4-2.5,4.4-5.1,6.7-7.7c0.3-0.3,0.6-0.7,0.9-1l0,0l0,0
			c0.5,0.3,0.9,0.7,1.4,1.1c2.8,2.1,5.6,4.3,8.4,6.3c3.6,2.5,7.2,5,10.9,7.1c0.9,0.5,1.9,1,2.8,1.3l0.3,0.1l0.3,0.1
			c0.2,0,0.4,0,0.7,0.1c0.5,0,1,0,1.5,0c2.1-0.1,4.2-0.5,6.4-0.8c4.3-0.7,8.5-1.4,12.8-2.3c4.3-0.8,8.5-1.7,12.7-2.6
			c4.3-0.9,8.5-1.9,12.7-2.9c2.1-0.6,4.2-1.1,6-2c1.9-0.9,3.7-2.1,5.3-3.5c3.3-2.8,6-6.3,8.3-10c-1.8,4.1-4.3,7.8-7.5,11
			c-1.6,1.6-3.4,3-5.4,4c-1,0.6-2.1,1-3.1,1.4c-1,0.4-2.1,0.7-3.1,1c-8.4,2.5-16.9,4.4-25.5,6.1c-4.3,0.8-8.6,1.6-12.9,2.1
			c-2.2,0.3-4.4,0.5-6.6,0.6c-0.6,0-1.1,0-1.7,0c-0.3,0-0.6,0-0.9-0.1c-0.2,0-0.3-0.1-0.5-0.1l-0.5-0.2c-1.1-0.4-2.1-1-3.1-1.6
			c-3.8-2.3-7.3-5.1-10.7-7.8c-2.7-2.2-5.4-4.5-8-6.8l2.5,3c0.1,0.1,5.6,6.6,12.3,13.3c4.5,4.4,9.9,6.7,16.1,6.7
			c2.1,0,4.4-0.3,6.6-0.8c2.1-0.5,4.4-1,6.7-1.6c8.4-2,17.9-4.3,22.5-5.6c0.9-0.3,1.9-0.5,3-0.7c6.1-1.4,14.5-3.4,19-12.3
			c3.2-6.4,7.5-14.6,10.8-20.9C411.8,474.9,413,473.8,413,473.8"/>
		<polyline fill="#8E8D8C" points="220.2,457.3 219.4,456.7 232.5,454.5 220.2,457.3 		"/>
		<path fill="#B0AEAE" d="M324.1,449.2c-0.3-0.4-0.6-0.7-0.8-1.1l0.9,0.1L324.1,449.2"/>
		<g>
			<path fill="#E2E1D4" d="M380.2,364.5L380.2,364.5c-5.1-0.4-10.2-0.7-15.4-1c-7.1-0.4-14.2-0.7-21.3-1c-0.4,0.6-1.3,1.8-2.5,3.5
				c-3.9,5.2-11.5,14.8-21.3,22.9c13.9-2.5,38-8.7,58.9-23.2C379.1,365.3,379.6,364.9,380.2,364.5z"/>
			<path fill="#E2E1D4" d="M322.3,400.3l9.6,31.7l51.6,5.9l16.4-11.5l4.7-32.6c-13.1-2.4-32.4-5.3-55.9-7.1
				c-21.3,7.3-39,9.5-40.1,9.6l-1.2,0.1c6.8,0.6,13.2,2.4,13.5,2.5C321.6,399.1,322.1,399.6,322.3,400.3z M351.2,395.1
				c6.7-0.2,12.8,8.1,13.6,18.6c0.2,2.9-0.1,5-0.8,6.6c6.2-0.7,7.6,3.5,7.7,3.7c-4.5-2.2-9.4,0.6-18.4,0.8
				c-6.7,0.2-12.3,0.3-12.7-10.2C340.2,404.1,344.5,395.4,351.2,395.1z"/>
			<path fill="#E2E1D4" d="M302,361.5c-5.3,0-10.6,0.1-15.9,0.2l-9.8,4.6l-0.1,0.1c-1.5,0.7-14.3,7.2-26.3,18.7
				c10.8-5.7,26.7-13.1,45.4-18.9c5.6-1.7,11.5-3.3,17.5-4.6C309.3,361.6,305.7,361.5,302,361.5L302,361.5z"/>
			<path fill="#E2E1D4" d="M190.9,442.1c-0.5-0.4-0.8-0.9-0.9-1.5l-3.9-31.8c-2.9,1.6-6.3,3.5-7.1,4.2c-0.8,0.6-1.4,2.3-0.5,9.9
				c1,9.4,5.8,27,8.3,29.6c3.1,0.5,9.8-0.4,13.2-1.4c-0.3-1.1-0.7-2.2-1-3.3L190.9,442.1z"/>
			<path fill="#E2E1D4" d="M274.9,379.8c9.2-0.4,18.8-0.7,28.9-0.7c6.1,0,12,0.1,17.8,0.3c4.9-4.8,9.1-9.6,12.1-13.4
				c0.6-0.7,1.1-1.4,1.6-2.1c-5.1,0.5-10.1,1.3-15.1,2.2C303.4,369.2,287.8,374.5,274.9,379.8z"/>
			<path fill="#E2E1D4" d="M350.7,408.6c1.9,0,3.4-1.6,3.4-3.5c0-1.9-1.6-3.4-3.5-3.4c-1.9,0-3.4,1.6-3.4,3.5
				C347.2,407.1,348.8,408.7,350.7,408.6z"/>
			<path fill="#E2E1D4" d="M254.9,411.2c1.9,0,3.4-1.6,3.3-3.5c-0.1-1.9-1.6-3.4-3.5-3.3c-1.9,0-3.4,1.6-3.3,3.5
				C251.4,409.7,253,411.2,254.9,411.2z"/>
			<path fill="#E2E1D4" d="M183,373.3l1.3,4.9c3.6-2.9,6.9-5.3,9.7-7.2C189.5,371.9,185.8,372.7,183,373.3z"/>
			<path fill="#E2E1D4" d="M259.5,369.7c-17.8,4.1-34.1,10.2-48.5,16.8c9.3-1.5,20.6-3.1,33.6-4.4
				C249.7,377.1,254.9,372.9,259.5,369.7z"/>
			<path fill="#E2E1D4" d="M206.9,432.3l16.3,11.4l51.7-11.5l9.7-31.9c0.2-0.5,0.5-1,1-1.2l0.5-0.2c0.3-0.1,5.5-1.6,11.4-2.3
				l9.5-5.7c2.8-1.7,5.6-3.7,8.2-5.8c-3.7-0.1-7.5-0.1-11.3-0.1c-15.8,0-30.5,0.6-43.9,1.7c-13.4,6.6-21.6,12-21.8,12.1l-12.9,8.6
				l8.8-12.7c1.5-2.1,3-4.1,4.6-6c-14.8,1.7-27.2,3.6-36.5,5.3L206.9,432.3z M242.2,423c-0.6-1.4-1-3.4-1.2-6.1
				c-0.4-10.5,6.1-19.1,12.8-19.2c6.7-0.1,11.3,8.4,11.5,18.9c0.1,10.5-5.5,9.9-12.2,9.9c-0.7,0-1.3,0-2,0c-0.7,0-1.5,0-2.2,0
				c-6.5,0-10.6-0.3-14.3,1.7C234.7,428.1,236.3,424.5,242.2,423z"/>
			<path fill="#E2E1D4" d="M395.5,450.5l-6.4,4.5c-0.4,0.3-1,0.4-1.5,0.4l-63.5-7.2l-4.6-0.5c-0.9-0.1-1.6-0.7-1.8-1.5l-9.9-32.7
				c-1.7-0.2-3.1-0.3-4.4-0.3c-1.3,0-2.7,0.1-4.4,0.3l-9.6,31.7c-0.2,0.7-0.8,1.3-1.6,1.5l-67.6,15.1l-0.5,0c-0.4,0-0.9-0.1-1.2-0.4
				l-2.5-1.7l-7.4-5.1v0l-3-2.1c0.2,0.7,0.5,1.3,0.7,2l0,0c0.6,1.7,6.3,18.1,17.9,34.1c12.4-3.7,23.1-7.1,26.6-8.2
				c7-10.8,16.9-21.4,24-21.8c1.2-0.1,2.5-0.1,3.7-0.1c3.5,0,6.8,0.2,9.8,0.6c-2.6-2.4-3.1-5.1-3.5-6.4c0,0,9,7.1,20.5,5.6
				c11.5-1.5,18.6-8.1,18.6-8.1s0,4.8-5,8.6c9.6-2.9,13.6-3.9,16.3-3.9c3,0,4.5,1.3,5.8,2.4c0.2,0.2,0.5,0.4,0.8,0.7
				c7.4,5.8,16.3,12.9,18.9,15c3,0.4,12.6,1.4,18.6,2c3.5,0.3,6.6,0.6,9.7,0.6c1,0,1.9,0,2.8-0.1c4-7.6,7.6-16.2,10.6-25.9
				c0.4-1.5,0.8-3,1.2-4.5l-2.2,1.5L395.5,450.5z"/>
			<path fill="#E2E1D4" d="M416.7,434.8c-0.1,0.6-0.4,1.1-0.9,1.5l-6.2,4.3c-0.5,2.5-0.7,3.6-1.3,6.1c3.5,0.8,9.3,1.5,12.1,0.9
				c2.5-2.7,6.6-19.6,7.4-29.3c0.7-7.9,0.1-9.6-0.7-10.2c-0.8-0.7-3.5-2.2-6.1-3.6L416.7,434.8z"/>
			<g>
				<polygon fill="#E2E1D4" points="283.6,271 299.1,271 299.1,318 292.7,318 292.7,326.8 314.3,326.8 314.3,318 307.9,318 
					307.9,271 323.4,271 323.4,278.7 330.9,278.7 330.9,263.5 322.7,263.5 276.1,263.5 276.1,278.7 283.6,278.7 				"/>
				<g>
					<path fill="#E2E1D4" d="M251.1,312.9c-0.2,5.7,0,15.9,2.6,25.5c0.1,0.4,0.1,0.7,0,1.1c3.3-0.4,6.7-0.7,10-0.9
						c-3.7-7.9-4.6-16.2-4.7-19.2C256.1,317.3,253.2,314.8,251.1,312.9z"/>
					<path fill="#E2E1D4" d="M247,311.1l-31.9,9.1c-2.1,14-1.1,24.3-0.9,26.2c2.6-0.7,5.3-1.4,8-2c4.4-1,8.9-1.8,13.3-2.5
						c4.5-0.7,8.9-1.3,13.4-1.9c0.3,0,0.6-0.1,0.9-0.1l-0.2-0.4C246.6,328.3,246.7,316.5,247,311.1z"/>
					<path fill="#E2E1D4" d="M440.4,343.8c0-2.1-0.1-4.2-0.3-6.3c-0.1-1-0.2-2.1-0.3-3.1c-0.1-0.7-0.2-1.5-0.3-2.2
						c-2.8-2.4-6-4.4-9.3-6.3c-3.6-2.1-7.3-4-11.2-5.7c-3.8-1.8-7.7-3.4-11.6-5c-2-0.8-3.9-1.6-5.9-2.3c-2-0.8-4-1.5-6-2.2
						c4.2,0.7,8.4,1.7,12.5,2.7c2.7,0.7,5.4,1.5,8,2.3c-18.9-49.3-63.9-81.4-113.2-81.4s-94.3,32.1-113.2,81.4
						c2.6-0.8,5.3-1.6,8-2.3c4.1-1.1,8.3-2,12.5-2.7c-2,0.7-4,1.4-6,2.2c-2,0.7-4,1.5-5.9,2.3c-3.9,1.6-7.8,3.2-11.6,5
						c-3.8,1.7-7.6,3.6-11.1,5.7c-3.3,1.9-6.5,4-9.3,6.3c-0.1,0.7-0.2,1.5-0.3,2.2c-0.1,1-0.2,2.1-0.3,3.1c-0.2,2.1-0.3,4.2-0.3,6.3
						c0,4.2,0.2,8.5,0.8,12.6c0.6,4.2,1.3,8.4,2.5,12.4c0.6,2,1.2,4,1.9,5.9c0.4,1,0.8,1.9,1.2,2.8c0.2,0.5,0.4,0.9,0.6,1.3l0.3,0.5
						c0.3,0.2,0.6,0.3,0.9,0.5l1.9,0.9c1,0.5,2.5,1.2,3.7,1.7l0.2-0.2l-3.5-13.3c0.7-0.2,7.3-1.9,18.7-4.1c-0.9-0.2-1.9-0.4-2.8-0.6
						c-2.6-0.6-5.1-1.4-7.6-2.4c-1.2-0.5-2.5-1.1-3.6-1.7c-1.2-0.7-2.3-1.4-3.2-2.4c12.5,4.1,38.4,2.2,61.3-0.1
						c21-2.2,42.1-3.6,63.3-3.6c21.2,0,42.3,1.4,63.3,3.6c23,2.4,48.9,4.2,61.4,0.1c-0.9,1-2,1.7-3.2,2.4c-1.1,0.7-2.4,1.2-3.6,1.7
						c-2.5,1-5,1.8-7.6,2.4c-0.4,0.1-0.8,0.2-1.2,0.3c12.5,2.3,19.8,4.2,20.5,4.4l-3.3,12.6c0.7-0.3,1.3-0.6,2-0.9l1.9-0.9
						c0.3-0.2,0.6-0.3,0.9-0.5l0.3-0.5c0.2-0.4,0.4-0.9,0.7-1.3c0.4-0.9,0.8-1.9,1.2-2.8c0.7-1.9,1.4-3.9,1.9-5.9
						c1.1-4,1.9-8.2,2.5-12.4C440.2,352.2,440.5,348,440.4,343.8z M270.4,257.9h66.1v26.5h-18.8v-7.8h-4.2v35.8h6.4v20h-32.9v-20
						h6.4v-35.8h-4.2v7.8h-18.8L270.4,257.9L270.4,257.9z M402.9,351.1c-2.2-0.6-4.4-1-6.5-1.4c-4.4-0.8-8.8-1.5-13.2-2.1
						c-4.4-0.6-8.9-1.1-13.3-1.4c-4.4-0.4-8.9-0.8-13.4-1c-17.8-1.1-35.7-1.4-53.6-1.4c-17.9,0-35.8,0.3-53.6,1.4
						c-4.5,0.3-8.9,0.6-13.4,1c-4.4,0.4-8.9,0.9-13.3,1.4c-4.4,0.5-8.8,1.2-13.2,2.1c-2.2,0.4-4.4,0.9-6.6,1.4
						c-2.2,0.5-4.3,1.1-6.4,2c3.9-2.3,8.2-3.8,12.5-5.2c0.4-0.1,0.7-0.2,1.1-0.3l-0.1-0.3c-0.1-0.5-1.7-12.2,1.1-29
						c0.1-0.8,0.7-1.5,1.5-1.7l4.5-1.3c1-35.2,15.5-51.8,16-52.3c-13,20.9-12.8,45.6-12.6,51.4l28.2-8l0.1,0l0.4,0l0.1,0l0.5,0
						l0.1,0l0.3,0.1l0.1,0.1l0.3,0.2l0.1,0.1l0.1,0.1l0.1,0.1c0,0,0.8,0.8,2,1.9c-0.3-9.3,0.2-36,12.9-58.1
						c-0.3,0.8-10.4,30.3-6.9,63.3c1.1,0.9,2.3,1.8,3.5,2.6c0.6,0.4,0.9,1,0.9,1.7c0,0.1,0.2,10.6,4.9,19.6l0.2,0.4
						c11.6-0.8,23.2-1.1,34.7-1.1c11.6,0,23.2,0.3,34.7,1.1l0.2-0.4c4.7-9,4.9-19.5,4.9-19.6c0-0.7,0.4-1.3,0.9-1.7
						c1.2-0.8,2.3-1.7,3.5-2.6c3.5-33-6.6-62.5-6.9-63.3c12.7,22.1,13.1,48.8,12.9,58.1c1.2-1.1,1.9-1.9,2-1.9l0.1-0.1l0.1-0.1
						l0.1-0.1l0.3-0.2l0.1-0.1l0.4-0.1l0.1,0l0.5,0l0.1,0l0.4,0l0.1,0l28.2,8c0.2-5.8,0.3-30.5-12.6-51.4c0.5,0.5,15,17.1,15.9,52.3
						l4.5,1.3c0.8,0.2,1.4,0.9,1.5,1.7c2.8,16.8,1.2,28.5,1.1,29l-0.1,0.3c0.4,0.1,0.7,0.2,1.1,0.3c4.3,1.4,8.6,2.9,12.5,5.2
						C407.2,352.2,405.1,351.7,402.9,351.1z"/>
					<path fill="#E2E1D4" d="M346.8,319.3c-0.2,2.9-1,11.3-4.7,19.2c3.3,0.3,6.7,0.6,10,0.9c-0.1-0.4-0.1-0.7,0-1.1
						c2.6-9.6,2.8-19.8,2.6-25.5C352.6,314.8,349.7,317.3,346.8,319.3z"/>
					<path fill="#E2E1D4" d="M358.8,311.1c0.3,5.4,0.4,17.2-2.7,28.3l-0.2,0.4c0.3,0,0.6,0.1,0.9,0.1c9,1,17.9,2.5,26.8,4.4
						c2.7,0.6,5.3,1.3,8,2c0.2-1.9,1.2-12.2-0.9-26.2L358.8,311.1z"/>
				</g>
			</g>
			<path fill="#E2E1D4" d="M417.8,396.4c-2.3-0.5-5.3-1.1-8.9-1.8l-4.8,33.4c-0.1,0.6-0.4,1.1-0.9,1.5l-17.9,12.5
				c-0.4,0.3-1,0.4-1.5,0.4l-53.8-6.1c-0.9-0.1-1.6-0.7-1.8-1.5l-9.7-31.9c-2.6-0.7-9.3-2.2-15.1-2.2c-5.9,0-12.5,1.6-15.1,2.2
				l-9.7,31.9c-0.2,0.6-0.6,1-1.1,1.3l-0.5,0.2l-53.8,12l-0.5,0c-0.4,0-0.9-0.1-1.2-0.4l-17.9-12.5c-0.5-0.3-0.8-0.9-0.9-1.5
				l-4.8-39c-2,0.4-3.8,0.8-5.4,1.1c-1.1,0.6-2.3,1.3-3.4,1.9l5.1,41.4l26,18.2l65.5-14.6l9.7-31.8c0.2-0.8,0.9-1.4,1.7-1.5
				c2.5-0.4,4.6-0.6,6.4-0.6c1.8,0,4,0.2,6.4,0.6c0.8,0.1,1.5,0.7,1.7,1.5l9.9,32.6l65.8,7.5l25.2-17.7L417.8,396.4z"/>
			<path fill="#E2E1D4" d="M455.3,343.1c-0.1-2.5-0.4-5-0.7-7.5c-0.2-1.4-0.4-2.7-0.6-3.9c-0.2-1.2-0.5-2.5-1-4.1l-0.2-0.9
				c-0.5-1.8-1.6-3.4-3.1-4.6l-0.6-0.5c-3.6-2.8-7.6-5.2-13-7.8c0,0,0,0,0,0c-2.1-1-4.3-2-6.7-2.9c-4.7-12.2-10.9-23.7-18.3-34.2
				c-8.4-11.8-18.3-22-29.3-30.4c-23.2-17.6-50.4-26.9-78.9-26.9c-28.4,0-55.7,9.3-78.9,26.9c-11,8.4-20.9,18.6-29.3,30.4
				c-7.4,10.4-13.6,21.9-18.4,34.1c-2.4,0.9-4.6,1.9-6.7,2.9c0,0,0,0-0.1,0c-5.4,2.6-9.4,5-13,7.8l-0.6,0.5
				c-1.5,1.2-2.5,2.8-3.1,4.6l-0.2,0.9c-0.4,1.5-0.7,2.8-0.9,4c0,0,0,0,0,0c-0.3,1.4-0.5,2.7-0.6,3.9c-0.3,2.5-0.6,5-0.7,7.6
				c0,0,0,0,0,0c-0.2,5-0.1,10.1,0.4,15c0.5,4.9,1.5,9.9,2.8,14.8c0,0,0,0.1,0,0.1c0.7,2.6,1.5,5,2.5,7.4c0.5,1.3,1,2.5,1.6,3.8
				c0.3,0.7,0.6,1.3,0.9,1.9l0,0.1c0,0.1,0.1,0.2,0.1,0.2l0.5,0.8c0,0,0.1,0.1,0.1,0.1l0.1,0.1c0.1,0.2,0.3,0.6,0.6,1
				c-8.1,8.5-15.3,17.6-21.4,27.2l-10.9,17.2c-2.3,3.7-1.6,8.6,1.7,11.4c1.7,1.4,3.7,2.1,5.7,2.1c2.1,0,4.1-0.7,5.8-2.2l15.3-13.4
				c0.1-0.1,2.8-2.4,7.5-6c0.5,4.3,2,12.5,4.3,20.5c3.2,11.3,6.7,18.9,13.9,21.1c-2,0.3-3.9,1.3-5.3,2.9c-2.5,2.9-2.8,7.2-0.7,10.5
				l6.1,9.5c0,0,0,0,0,0.1l0.1,0.2c3.4,5.3,12.2,18.7,19.7,28.4c8.7,11.2,21.9,24.2,46.5,24.2c2.8,0,5.7-0.2,8.7-0.5c0,0,0,0,0,0
				c4.9-0.6,8.9-1,12.3-1.5c11.4,4,23.2,5.9,35.1,5.9c12.7,0,25.3-2.3,37.3-6.9c6-2.3,11.8-5.1,17.3-8.4l1.5-0.4
				c7.9-1.9,16.1-3.9,20.5-5.1c0.6-0.2,1.3-0.3,2.1-0.5l0.2-0.1c7-1.6,21.6-5,29.3-20.4c5.9-11.8,19.9-37.7,25.5-63.3
				c2.1-8.3,3.6-16.9,4-21.3c0.4-4,0.6-8.2,0-11.8c-0.7-4.6-2.8-8.3-6-11.1c-0.3-0.2-0.8-0.6-1.8-1.3c0.6-0.2,1.2-0.5,1.7-0.7
				c0.1,0,0.1,0,0.2-0.1l2-0.9c0,0,0.1,0,0.1,0c0.9-0.4,1.6-0.8,2.4-1.2l0.7-0.4c1.4-0.7,2.5-1.8,3.4-3.1l0.4-0.7
				c0.4-0.6,0.6-0.9,0.8-1.4c0,0,0,0,0,0l0.4-0.8c0.4-0.7,0.7-1.4,1.1-2.1c0.5-1.2,1.1-2.4,1.6-3.7c0,0,0,0,0,0
				c0.9-2.3,1.7-4.7,2.5-7.4c0,0,0-0.1,0-0.1c1.3-4.9,2.3-9.9,2.8-14.7C455.5,353.2,455.6,348.2,455.3,343.1z M446.1,357.2
				c-0.5,4.5-1.3,9-2.5,13.4c-0.6,2.2-1.3,4.4-2.2,6.5c-0.4,1.1-0.9,2.1-1.4,3.2c-0.2,0.5-0.5,1.1-0.8,1.6l-0.4,0.8
				c-0.2,0.3-0.3,0.5-0.5,0.9l-0.5,0.7l-0.7,0.4c-0.8,0.4-1.4,0.7-2.1,1l-2,0.9c-1.4,0.6-2.7,1.1-4.1,1.7c-0.9,0.4-1.8,0.7-2.6,1
				l-2.2,8.5c-0.1,0-0.7-0.2-2-0.5l-0.1,0.9c2.5,1.3,7.4,3.9,9,5.3c3.3,2.8,3.6,7.1,2.8,15.3c-0.4,4.2-1.8,12.4-3.7,19.9
				c-3.3,12.9-5.1,14.4-7.4,15c-1.2,0.3-2.9,0.6-4.7,0.6c-3.5,0-8.3,0.1-11.6-0.7c-0.8,2.9-3.2,10.6-7.9,20.2
				c0.2-0.1,0.5-0.2,0.7-0.3c5.8-3,16.9-7.9,17.4-8.1l8.8-3.8l-4.5,8.5c-0.1,0.2-9.7,18.3-15.7,30.2c-5.9,11.7-16.9,14.3-23.5,15.8
				c-1,0.2-1.9,0.5-2.7,0.7c-4.7,1.3-14.3,3.6-22.7,5.6l-0.3,0.1c-5.2,3.2-10.9,6.1-17.1,8.4c-22.7,8.6-46.6,8.1-68.3,0.1
				c-3.5,0.5-8.2,1-14.3,1.7c-2.7,0.3-5.3,0.5-7.8,0.5c-20.7,0-31.6-10.5-39.6-20.8c-8.6-11-19-27.3-19.5-28l-6.1-9.5l10.3,4.6
				c4.9,2.2,19.5,9,23.7,10.9c0.3-0.1,0.7-0.2,1-0.3c-6.9-9.9-12.6-21.2-16.7-33.7c-3.4,1-8.7,1.8-12.8,1.8c-1.5,0-2.8-0.1-3.9-0.4
				c-2.3-0.5-4.9-2.7-8.5-15.3c-2.1-7.3-3.6-15.2-4.1-19.3c-0.9-8-0.7-12.2,2.6-15c2-1.7,8.7-5.2,10.1-5.9l-0.3-2.5
				c-21.4,12.6-34.2,23.7-34.5,23.9l-15.3,13.4l10.9-17.2c8.6-13.6,18.6-24.7,27.8-33.1c-0.4-0.2-0.7-0.3-1.1-0.5l-2-0.9
				c-0.7-0.3-1.3-0.6-2.1-1l-0.7-0.4l-0.5-0.7c-0.3-0.4-0.4-0.6-0.5-0.9l-0.5-0.8c-0.3-0.5-0.6-1.1-0.8-1.6c-0.5-1.1-1-2.1-1.4-3.2
				c-0.9-2.2-1.6-4.3-2.2-6.5c-1.2-4.4-2.1-8.9-2.5-13.4c-0.5-4.5-0.6-9.1-0.4-13.6c0.1-2.3,0.3-4.5,0.6-6.8
				c0.2-1.1,0.3-2.3,0.6-3.4c0.2-1.1,0.5-2.2,0.8-3.5l0.2-0.9l0.6-0.5c3.6-2.8,7.4-4.9,11.3-6.8c3.2-1.5,6.5-2.8,9.8-4.1
				c9.3-25.7,25.2-48.5,46.1-64.3c21.6-16.4,47-25.1,73.5-25.1s51.9,8.7,73.5,25.1c20.9,15.9,36.8,38.6,46.1,64.3
				c3.3,1.2,6.6,2.6,9.8,4.1c3.9,1.9,7.8,4,11.3,6.8l0.6,0.5l0.2,0.9c0.4,1.3,0.6,2.3,0.8,3.5c0.2,1.1,0.4,2.2,0.6,3.4
				c0.3,2.2,0.5,4.5,0.7,6.8C446.8,348.1,446.7,352.7,446.1,357.2z"/>
			<path fill="#E2E1D4" d="M361.2,381.9c28.3,2.8,49.2,6.9,58.6,8.9l4.6-17.6c-6.7-1.5-19.1-4.1-36-6.5
				C379.9,373,370.5,378,361.2,381.9z"/>
			<path fill="#E2E1D4" d="M378.7,481.5c-7.3-0.7-19.6-2.1-19.7-2.1l-0.9-0.1l-0.7-0.6c-0.1-0.1-10.9-8.7-19.6-15.5
				c-0.4-0.3-0.7-0.6-1-0.8c-0.9-0.8-0.9-0.8-1.5-0.8c-2.8,0-10.9,2.5-28.7,8l-1.1,0.3l-1.1-0.4c-0.1,0-11.8-4.4-25.8-4.4
				c-1.1,0-2.3,0-3.4,0.1c-1.4,0.1-9.3,3.8-19.3,19.7l-0.7,1l-1.2,0.4c-0.2,0.1-17.5,5.7-35.9,10.9l-1.2,0.3l-1.1-0.5
				c-0.1,0-7.3-3.4-14.2-6.5c3.7,5.5,8.5,12.4,12.7,17.8c7.3,9.4,16.6,18.2,34.3,18.2c2.2,0,4.6-0.1,7-0.4c18-2,22.7-2.9,25.2-3.3
				c0.8-0.1,1.5-0.3,2.4-0.4c0.1,0,14.9-1.9,19.1-11.2c4.3-9.6,5.1-11.8,5.2-11.9l1.5-4l-0.4-0.4c0.3-0.3,0.6-0.7,0.9-1l0,0l0,0
				c0.5,0.3,0.9,0.7,1.4,1.1l-0.2,0.3l2.5,3c0.1,0.1,5.6,6.6,12.3,13.3c4.5,4.4,9.9,6.7,16.1,6.7c2.1,0,4.4-0.3,6.6-0.8
				c2.1-0.5,4.4-1,6.7-1.6c8.4-2,17.9-4.3,22.5-5.6c0.9-0.3,1.9-0.5,3-0.7c6.1-1.4,14.5-3.4,19-12.3c3.3-6.7,7.9-15.4,11.2-21.7
				c-2.9,1.3-5.9,2.8-8.1,3.9c-3.3,1.7-7.7,2.6-13.3,2.6C385.7,482.1,382.4,481.8,378.7,481.5z"/>
			<path fill="#E2E1D4" d="M319.9,515.6c-2.5,0.5-5,0.9-7.6,1.1c-1.1,0-2.1,0.1-3.3,0.1l-1.7,0l-0.6,0
				c-6.8,10.2-22.1,12.2-22.7,12.3c-0.6,0.1-1.1,0.2-1.9,0.3c8.5,2.3,17.1,3.3,25.6,2.8c8.5-0.6,19.7-2.4,31.4-7.2
				c-7-0.5-13.4-3.4-18.5-8.5C320.4,516.1,320.2,515.9,319.9,515.6z"/>
			<path fill="#E2E1D4" d="M317.1,512.7c-2.1-2.2-4.1-4.3-5.6-6c-0.7,1.7-1.7,3.9-3,6.8h0.4c1,0,2.1-0.1,3.2-0.2
				C313.8,513.2,315.4,513,317.1,512.7z"/>
			<path fill="#E2E1D4" d="M266.4,362.2c-9,0.3-18.1,0.7-27.1,1.3c-5.2,0.3-10.4,0.6-15.7,1c-2.6,0.2-5.2,0.4-7.8,0.7
				c-0.7,0.1-1.5,0.2-2.2,0.2c-6.8,4.1-32.9,20.5-50.8,41.9c17.4-12.1,47.7-30.3,85.2-40.8C253.9,364.9,260.1,363.5,266.4,362.2z"/>
		</g>
		<g opacity="0.2">
			<path fill="#51433D" d="M321.5,379.4c5-4.8,9.1-9.6,12.1-13.4c0.6-0.7,1.1-1.4,1.6-2.1c-5.1,0.5-10.1,1.3-15.1,2.2
				c-16.8,3.2-32.4,8.4-45.3,13.8c9.2-0.4,18.8-0.7,28.9-0.7C309.8,379.1,315.7,379.2,321.5,379.4z"/>
			<path fill="#51433D" d="M388.5,366.9c-8.6,6.2-18,11.1-27.3,15.1c28.3,2.8,49.2,6.9,58.6,8.9l4.6-17.6
				C417.7,371.8,405.4,369.2,388.5,366.9z"/>
			<path fill="#51433D" d="M390.8,320.2l-32-9.1c0.3,4.9,0.4,15.1-1.9,25.4c1.4-2.8,3.1-6.9,4.2-12c1.6-7.2,9.7-4.7,14.8-3.5
				c5.1,1.2,11.8,2.9,12.9,5.6c1.8,4.4,2.8,14.7,3.1,17.8C392.2,340.5,392.5,331.6,390.8,320.2z"/>
			<g opacity="0.2">
				<path fill="#51433D" d="M342.3,257.6c-0.2,7.4-1.9,70.1-17.5,70.1c-1.8,0-3.4,0-4.9,0v4.7h-32.9v-4.7c-1.6,0-3.3,0-5.3,0
					c-16.5,0-17.9-70.8-17.9-70.8l-0.9,2.5c-2.8,11.3-6.7,32-4.3,54.4c1.1,0.9,2.3,1.8,3.5,2.6c0.6,0.4,0.9,1,0.9,1.7
					c0,0.1,0.2,10.6,4.9,19.6l0.2,0.4c11.6-0.8,23.2-1.1,34.7-1.1c11.6,0,23.2,0.3,34.7,1.1l0.2-0.4c4.7-9,4.9-19.5,4.9-19.6
					c0-0.7,0.4-1.3,0.9-1.7c1.1-0.8,2.2-1.6,3.3-2.5l0.2-0.4C349.5,290,345.1,268.3,342.3,257.6z"/>
			</g>
			<path fill="#51433D" d="M198.4,352.1c0,0-0.1,0-0.1,0.1C198.4,352.1,198.4,352.1,198.4,352.1z"/>
			<path fill="#51433D" d="M198.7,352c-0.1,0-0.2,0.1-0.2,0.1C198.5,352,198.6,352,198.7,352z"/>
			<path fill="#51433D" d="M197.7,352.4c-0.2,0.1-0.3,0.2-0.5,0.2C197.4,352.6,197.5,352.5,197.7,352.4z"/>
			<path fill="#51433D" d="M198.3,352.1C198.3,352.1,198.3,352.1,198.3,352.1C198.3,352.1,198.3,352.1,198.3,352.1z"/>
			<path fill="#51433D" d="M197.8,352.4C197.8,352.4,197.8,352.4,197.8,352.4C197.8,352.4,197.8,352.4,197.8,352.4z"/>
			<path fill="#51433D" d="M197.7,352.4C197.7,352.4,197.7,352.4,197.7,352.4C197.7,352.4,197.7,352.4,197.7,352.4z"/>
			<path fill="#51433D" d="M198,352.3c-0.1,0-0.2,0.1-0.2,0.1C197.9,352.4,197.9,352.3,198,352.3z"/>
			<path fill="#51433D" d="M198.2,352.2c-0.1,0-0.1,0.1-0.2,0.1C198.1,352.2,198.2,352.2,198.2,352.2z"/>
			<path fill="#51433D" d="M198.3,352.1C198.3,352.2,198.2,352.2,198.3,352.1C198.2,352.2,198.3,352.2,198.3,352.1z"/>
			<path fill="#51433D" d="M198.8,351.9C198.8,351.9,198.7,351.9,198.8,351.9C198.8,351.9,198.8,351.9,198.8,351.9z"/>
			<path fill="#51433D" d="M199,351.8C199,351.8,198.9,351.8,199,351.8C198.9,351.8,198.9,351.8,199,351.8z"/>
			<path fill="#51433D" d="M199,351.8C199,351.8,199,351.8,199,351.8C199,351.8,199,351.8,199,351.8z"/>
			<g>
				<path fill="#51433D" d="M209,347.9c0.4-0.1,0.7-0.2,1.1-0.3l-0.1-0.3c-0.1-0.3-0.9-6.2-0.4-15.5c-1.7,7.1-4.9,16.3-9.8,19.6
					C202.8,350,205.9,348.9,209,347.9z"/>
				<path fill="#51433D" d="M245,324.5c1,4.4,2.3,8.1,3.6,10.8c-2.1-9.9-1.9-19.5-1.7-24.2l-31.9,9.1c-1.9,12.4-1.3,21.9-1,25.2
					l0.2-0.1c0,0,1-13.5,3.2-18.7c1.1-2.7,7.8-4.4,12.9-5.6C235.3,319.8,243.5,317.4,245,324.5z"/>
			</g>
			<path fill="#51433D" d="M199,351.8C199,351.8,199,351.8,199,351.8C199,351.8,199,351.8,199,351.8z"/>
			<path fill="#51433D" d="M198.9,351.8C198.9,351.8,198.9,351.8,198.9,351.8C198.9,351.8,198.9,351.8,198.9,351.8z"/>
			<path fill="#51433D" d="M198.8,351.9C198.8,351.9,198.8,351.9,198.8,351.9C198.8,351.9,198.8,351.9,198.8,351.9z"/>
			<path fill="#51433D" d="M198.9,351.9C198.9,351.9,198.8,351.9,198.9,351.9C198.8,351.9,198.8,351.9,198.9,351.9z"/>
			<path fill="#51433D" d="M198.8,351.9C198.8,351.9,198.8,351.9,198.8,351.9C198.8,351.9,198.8,351.9,198.8,351.9z"/>
			<path fill="#51433D" d="M198.9,351.8C198.9,351.9,198.9,351.9,198.9,351.8C198.9,351.9,198.9,351.8,198.9,351.8z"/>
			<path fill="#51433D" d="M198.9,351.8C198.9,351.8,198.9,351.8,198.9,351.8C198.9,351.8,198.9,351.8,198.9,351.8z"/>
			<path fill="#51433D" d="M198.7,351.9C198.7,351.9,198.7,351.9,198.7,351.9C198.7,351.9,198.7,351.9,198.7,351.9z"/>
			<path fill="#51433D" d="M195.2,353.6c-0.1,0-0.1,0.1-0.2,0.1C195.1,353.7,195.2,353.7,195.2,353.6z"/>
			<path fill="#51433D" d="M195.6,353.4C195.6,353.5,195.6,353.5,195.6,353.4C195.6,353.5,195.6,353.5,195.6,353.4z"/>
			<path fill="#51433D" d="M195.5,353.5c-0.1,0-0.1,0.1-0.2,0.1C195.4,353.6,195.5,353.5,195.5,353.5z"/>
			<path fill="#51433D" d="M195.3,353.6c0,0-0.1,0-0.1,0.1C195.3,353.6,195.3,353.6,195.3,353.6z"/>
			<path fill="#51433D" d="M195,353.8C195,353.8,195,353.8,195,353.8L195,353.8z"/>
			<path fill="#51433D" d="M195,353.7C195,353.8,195,353.8,195,353.7C195,353.8,195,353.7,195,353.7z"/>
			<path fill="#51433D" d="M197.2,352.7c0,0-0.1,0-0.1,0.1C197.2,352.7,197.2,352.7,197.2,352.7z"/>
			<path fill="#51433D" d="M195,353.7C195,353.7,195,353.7,195,353.7C195,353.7,195,353.7,195,353.7z"/>
			<path fill="#51433D" d="M196.7,352.9L196.7,352.9L196.7,352.9z"/>
			<path fill="#51433D" d="M195.9,353.3c-0.1,0.1-0.2,0.1-0.3,0.2C195.7,353.4,195.8,353.3,195.9,353.3z"/>
			<path fill="#51433D" d="M196.7,352.9c0,0-0.1,0-0.1,0.1C196.6,353,196.6,353,196.7,352.9z"/>
			<path fill="#51433D" d="M197.1,352.7c-0.2,0.1-0.3,0.2-0.5,0.2C196.8,352.9,197,352.8,197.1,352.7z"/>
			<path fill="#51433D" d="M196,353.3C196,353.3,196,353.3,196,353.3C196,353.3,196,353.3,196,353.3z"/>
			<path fill="#51433D" d="M196.4,353.1c-0.1,0.1-0.3,0.1-0.4,0.2C196.1,353.2,196.3,353.1,196.4,353.1z"/>
			<path fill="#51433D" d="M196.5,353C196.5,353,196.5,353,196.5,353C196.5,353,196.5,353,196.5,353z"/>
			<path fill="#51433D" d="M194,371c-4.5,0.9-8.2,1.7-11,2.3l1.3,4.9C187.9,375.3,191.2,372.9,194,371z"/>
			<path fill="#51433D" d="M404.1,428c-0.1,0.6-0.4,1.1-0.9,1.5l-17.9,12.5c-0.4,0.3-1,0.4-1.5,0.4l-53.8-6.1
				c-0.9-0.1-1.6-0.7-1.8-1.5l-9.7-31.9c-2.6-0.7-9.3-2.2-15.1-2.2c-5.9,0-12.5,1.6-15.1,2.2l-9.7,31.9c-0.2,0.6-0.6,1-1.1,1.3
				l-0.5,0.2l-53.8,12l-0.5,0.1c-0.4,0-0.9-0.1-1.2-0.4l-17.9-12.5c-0.5-0.4-0.8-0.9-0.9-1.5l-4.8-39c-2,0.4-3.8,0.8-5.4,1.1
				c-1.1,0.6-2.3,1.3-3.4,1.9l5.1,41.4l26,18.2l65.5-14.6l9.7-31.8c0.2-0.8,0.9-1.4,1.7-1.5c2.5-0.4,4.6-0.6,6.4-0.6
				c1.8,0,4,0.2,6.4,0.6c0.8,0.1,1.5,0.7,1.7,1.5l9.9,32.6l65.8,7.5l25.2-17.7l5.3-36.9c-2.4-0.5-5.3-1.1-8.9-1.8L404.1,428z"/>
			<path fill="#51433D" d="M248,366.6c6-1.7,12.1-3.1,18.4-4.4c-4.5,0.2-9,0.4-13.5,0.6c-19.5,4.1-55.9,15.1-89.1,43.4
				c-0.3,0.4-0.6,0.7-0.9,1.1C180.2,395.3,210.5,377.1,248,366.6z"/>
			<path fill="#51433D" d="M295.3,366.2c5.6-1.7,11.5-3.3,17.5-4.6c-2.7,0-5.4-0.1-8-0.1c-27.3,6.9-44.9,17.4-51.5,21.8
				C263.9,378,278.5,371.4,295.3,366.2z"/>
			<path fill="#51433D" d="M319.7,388.9c13.9-2.5,38-8.7,58.9-23.2c0.5-0.4,1-0.8,1.6-1.1l0,0c-3.2-0.2-6.3-0.5-9.5-0.7
				c-14.5,12.7-43.2,22.4-50.5,24.7C320,388.6,319.9,388.7,319.7,388.9z"/>
			<path fill="#51433D" d="M205.7,452.4c0.2,0.7,0.5,1.3,0.7,2l0,0c0.2,0.6,1.1,3.2,2.8,7.1c4.1,2.5,9.6,5.5,12.5,5.9
				c0.1,0,0.3,0,0.5,0c6.8,0,48.4-12.4,55.1-14.5c4.3-1.3,5.6-3.7,6-5.3l-63,14l-0.5,0.1c-0.4,0-0.9-0.1-1.2-0.4l-2.5-1.7l-7.4-5.2
				l0,0L205.7,452.4z"/>
			<path fill="#51433D" d="M384.3,463.8c0.3,0,0.6,0,0.8-0.1c3.8-0.7,11.9-6.2,15.5-8.7c0.6-1.9,1.3-3.8,1.9-5.7
				c0.4-1.5,0.8-3,1.2-4.5l-2.2,1.5l-5.9,4.1l-6.4,4.5c-0.4,0.2-0.8,0.4-1.2,0.4c-0.1,0-0.2,0-0.2,0l-63.5-7.2l-0.1,1
				c0.9,1,2.5,2,4.8,2.6C335.6,453.5,376.7,463.8,384.3,463.8z"/>
			<path fill="#51433D" d="M199,447.7l-4-2.8c-1.3,0.5-2.6,0.8-3.8,0.8c-3.9,0-7-2.5-9-4.8c1.6,5.6,3.3,10.2,4.5,11.5
				c0.6,0.1,1.4,0.2,2.2,0.2c3.4,0,8.3-0.8,10.9-1.5C199.6,449.9,199.3,448.8,199,447.7z"/>
			<path fill="#51433D" d="M301.8,528.2c-3.5,0-7-0.2-10.4-0.8c-4,1.3-7.1,1.7-7.4,1.7c-0.6,0.1-1.1,0.2-1.9,0.3
				c6.9,1.9,13.9,2.9,20.9,2.9c1.6,0,3.2-0.1,4.7-0.2c8.6-0.6,19.7-2.4,31.4-7.2c-2.6-0.2-5.2-0.7-7.6-1.6
				C324.9,525.4,313.6,528.2,301.8,528.2z"/>
			<g>
				<path fill="#51433D" d="M248.6,526.5c2.2,0,4.6-0.1,7-0.4c18-2,22.7-2.9,25.2-3.3c0.8-0.1,1.5-0.3,2.4-0.4
					c0.1,0,14.9-1.9,19.1-11.2c4.3-9.6,5.1-11.8,5.2-11.9l1.5-4l-0.4-0.4l0,0c-2.3,2.6-4.3,5.2-6.7,7.7c-1.4,1.5-2.8,3-4.3,4.4
					c-1.4,1.4-2.9,2.9-4.4,4.2c-0.7,0.6-1.6,1.3-2.3,1.6c-0.8,0.3-1.8,0.6-2.7,0.8c-1.9,0.4-4,0.8-6,1.1c-4,0.6-8.1,1.1-12.1,1.6
					c-4.1,0.5-8.1,0.9-12.2,1.3c-4.1,0.4-8.1,0.7-12.2,0.9c-1,0-2,0.1-3,0.1c-1,0-1.9-0.1-2.9-0.2c-1.9-0.3-3.8-1-5.6-1.8
					c-3.6-1.7-7-4.2-9.9-7c0.4,0.5,0.8,1,1.3,1.4c-0.5-0.4-0.8-0.8-1.1-1.1c-1.4-1.6-14.4-12.8-21.1-18.6c-0.5-0.2-1-0.5-1.5-0.7
					c3.7,5.5,8.5,12.4,12.7,17.8C221.6,517.8,230.9,526.5,248.6,526.5z"/>
				<path fill="#51433D" d="M348.1,517.5c2.1-0.5,4.4-1,6.7-1.6c8.4-2,17.9-4.3,22.5-5.6c0.9-0.3,1.9-0.5,3-0.7
					c6.1-1.4,14.5-3.4,19-12.3c3.3-6.7,7.9-15.4,11.2-21.7c-2.6,1.2-5.4,2.5-7.5,3.6c-0.5,1.6-1.5,3.9-2.9,6.5l0,0
					c-2.3,3.8-5.1,7.2-8.3,10c-1.6,1.4-3.4,2.6-5.3,3.5c-1.9,0.9-4,1.4-6,2c-4.2,1.1-8.4,2.1-12.7,2.9c-4.2,0.9-8.5,1.8-12.7,2.6
					c-4.3,0.9-8.5,1.6-12.8,2.3c-2.1,0.3-4.3,0.6-6.4,0.8c-0.5,0-1,0-1.5,0c-0.2,0-0.5,0-0.7-0.1l-0.3-0.1l-0.3-0.1
					c-0.9-0.3-1.9-0.8-2.8-1.3c-3.7-2.1-7.3-4.6-10.9-7.1c-2.8-1.9-5.6-4.2-8.4-6.3l0,0l0,0l-0.2,0.3l0,0l0.5,0.5
					c-0.1-0.1-0.3-0.2-0.4-0.3l2.3,2.8c0.1,0.1,5.6,6.6,12.3,13.3c4.5,4.4,9.9,6.7,16.1,6.7C343.6,518.3,345.9,518.1,348.1,517.5z"
					/>
			</g>
			<path fill="#51433D" d="M244.6,382.1c5-4.9,10.1-9,14.6-12.2c-0.3,0-0.6,0.1-0.9,0.1c-17.3,4.1-33.3,10.1-47.3,16.5
				C220.4,385,231.7,383.4,244.6,382.1z"/>
			<path fill="#51433D" d="M411.8,443c-0.8,0-1.8-0.2-2.6-0.4c-0.3,1.4-0.5,2.5-0.9,4.1c2.7,0.6,6.6,1.1,9.4,1.1
				c0.9,0,1.9,0,2.7-0.2c1.3-1.2,2.7-5.7,4.1-11C421.9,439.4,417,443,411.8,443z"/>
		</g>
		<g opacity="0.5">
			<path fill="#51433D" d="M354.7,312.9c0.2,5.6,0.1,15.9-2.6,25.5c-0.1,0.4-0.1,0.7,0,1.1c-3.3-0.4-6.7-0.7-10-0.9
				c3.8-7.9,4.6-16.3,4.7-19.2C349.7,317.3,352.6,314.8,354.7,312.9"/>
			<path fill="#51433D" d="M259,319.3c0.2,2.9,1,11.3,4.7,19.2c-3.3,0.3-6.7,0.6-10,0.9c0.1-0.3,0.1-0.7,0-1.1
				c-2.6-9.6-2.8-19.8-2.6-25.5C253.2,314.8,256.1,317.3,259,319.3"/>
		</g>
	</g>
</g>
</svg>
