<?xml version="1.0" encoding="utf-8"?>
<!-- Generator: Adobe Illustrator 17.1.0, SVG Export Plug-In . SVG Version: 6.00 Build 0)  -->
<!DOCTYPE svg PUBLIC "-//W3C//DTD SVG 1.1//EN" "http://www.w3.org/Graphics/SVG/1.1/DTD/svg11.dtd">
<svg version="1.1" id="Capa_2" xmlns="http://www.w3.org/2000/svg" xmlns:xlink="http://www.w3.org/1999/xlink" x="0px" y="0px"
	 viewBox="12.8 327.8 300.6 139.4" enable-background="new 12.8 327.8 300.6 139.4" xml:space="preserve">
<g>
	<path opacity="0.1" fill="#382F2B" enable-background="new    " d="M275.8,465.3c13.7,5.8,22.7-3.7,22.7-3.7s12.4,4.5,14.6-10.8
		h-56.6C256.4,450.9,254.5,468.7,275.8,465.3z"/>
	<path fill="#382F2B" d="M313.1,450.9c0.1-0.8,0.3-1.7,0.3-2.6c0-2.8-0.8-5.5-2.5-7.5c-1.9-2.5-4.6-3.8-7.8-3.8
		c-1.8,0-3.7,0.4-5.8,1.3c-1.5-1.8-4-3.2-7.2-3.2c-2,0-4,0.5-6.2,1.5c-3.4-3.5-7.7-5.3-12.8-5.3c-1.1,0-2.3,0.1-3.6,0.3
		c-5,0.7-9.9,3.5-14.6,8.3c-1,1-1.8,2-2.7,3c-2.3-2.3-5.5-3.7-8.8-3.7c-2.5,0-5,0.8-7.1,2.4c-2.3,1.7-4.2,4.1-5.7,7.5
		c-0.3,0.6-0.6,1.3-0.6,2h85.1V450.9z"/>
	<path fill="#382F2B" d="M255.6,447.9c0,0,0.6,13.2,13.6,14.8c2.4,0,4.9-0.5,7.5-1.5c2.2,1.8,5.1,2.9,8.2,2.9c3,0,7.2-1,11.6-5.3
		c2.1,0.9,4.1,1.3,6.1,1.3c3.3,0,6.2-1.3,8.1-3.9c1.1-1.4,2.1-3.4,2.3-5.5C313.1,450.9,255.6,447.9,255.6,447.9z"/>
	<path fill="#E3E2D5" d="M249,450.9c0,0,7.7-13.8,18.8-15.4c4.6-0.6,10.6-0.3,15.1,5.9c7.7-4.6,12.2-1.5,12.9,2
		c18.6-11.6,18.9,22.4-0.1,11.7c-7.5,9.1-15.8,6.2-18.2,2.5c-15.5,7.5-20.5-6.7-20.5-6.7L249,450.9z"/>
	<path fill="#E3E2D5" d="M231.7,450.9h17.4C252.3,446.2,238.6,435.9,231.7,450.9z"/>
	<path fill="#382F2B" d="M283,441.4c2.9,7.9-2.4,12.7-2.4,12.7s7.9-4.7,4.9-13.9c-0.9-2-4.4-1.3-4.4-1.3S281.9,439.7,283,441.4z"/>
	<path fill="#382F2B" d="M295.7,442.6c1.8,4.5,0.9,8.6,0.9,8.6s3.2-4.7,2-8.9c-0.7-2.1-2.6-1.2-2.6-1.2S295.2,440.2,295.7,442.6z"/>
	<path fill="#382F2B" d="M256.4,447.3c-0.1,2.6,1,4.4,1,4.4l0.1,3C257.5,454.7,254.9,449.5,256.4,447.3z"/>
	<g>
		<g>
			<path fill="#382F2B" d="M222.6,395.6c-0.1-0.6-0.1-1.1-0.3-1.7c0-0.1-0.1-0.2-0.1-0.4c0-0.1,0-0.1,0-0.2v-0.1
				c-0.1-0.4-0.1-0.7-0.2-1.1c0-0.1-0.1-0.3-0.1-0.4c0-0.1,0-0.1-0.1-0.2v-0.1c-0.1-0.3-0.1-0.6-0.2-0.9c0-0.1-0.1-0.3-0.1-0.4
				l-0.1-0.2v-0.1c-0.1-0.3-0.1-0.6-0.2-0.9c-0.1-0.1-0.1-0.3-0.1-0.4l-0.1-0.2v-0.1c-0.1-0.3-0.1-0.6-0.2-0.9
				c-0.1-0.1-0.1-0.3-0.1-0.5l-0.1-0.1c-0.1-0.3-0.2-0.6-0.3-0.9c-0.1-0.1-0.1-0.3-0.1-0.5l-0.1-0.1c-0.1-0.3-0.2-0.6-0.3-0.9
				c-0.1-0.1-0.1-0.4-0.1-0.5l-0.1-0.1c-0.1-0.3-0.2-0.6-0.4-0.9c-0.1-0.1-0.1-0.4-0.2-0.5v-0.1c-0.1-0.4-0.3-0.6-0.4-0.9
				c-0.1-0.2-0.1-0.4-0.2-0.6c-0.1-0.4-0.3-0.6-0.4-0.9c-0.1-0.2-0.1-0.4-0.2-0.6c-0.1-0.4-0.3-0.6-0.4-1c-0.1-0.1-0.1-0.4-0.2-0.5
				c-0.1-0.4-0.3-0.6-0.5-1c-0.1-0.1-0.1-0.3-0.2-0.5c-0.1-0.4-0.4-0.6-0.5-1l0,0c-0.1-0.1-0.1-0.3-0.2-0.4c-0.1-0.4-0.4-0.6-0.6-1
				l-0.1-0.1c-0.1-0.1-0.1-0.2-0.1-0.3c-0.2-0.4-0.4-0.6-0.6-1.1l-0.1-0.1c-0.1-0.1-0.1-0.1-0.1-0.2c-0.2-0.4-0.4-0.7-0.7-1.1
				l-0.1-0.1c0-0.1-0.1-0.1-0.1-0.1c-0.2-0.4-0.5-0.8-0.8-1.2l-0.1-0.1c0-0.1-0.1-0.1-0.1-0.1c-0.3-0.4-0.6-0.8-0.8-1.3V368
				c-4.3-6.1-9.6-11.4-15.8-15.7l0,0l0,0c-4.1-2.9-8.6-5.2-13.2-7h-46.2c-7.9,3.1-15.3,7.7-21.5,13.9l0,0c-1.1,1-2,2.1-3,3.2
				l-0.1,0.1l0,0c-0.7,0.8-1.4,1.6-2,2.4v0.1l-0.1,0.1c-0.2,0.3-0.4,0.6-0.6,0.8l-0.1,0.1l-0.1,0.1c-0.6,0.8-1.2,1.6-1.8,2.5
				c-0.1,0.1-0.1,0.1-0.1,0.3c-0.2,0.3-0.4,0.5-0.6,0.8l-0.1,0.1v0.1c-0.4,0.5-0.7,1.1-1,1.5l-0.1,0.1c-0.1,0.1-0.1,0.1-0.1,0.2
				c-0.1,0.3-0.3,0.5-0.4,0.8c-0.1,0.1-0.1,0.2-0.2,0.4l0,0c-0.5,0.8-0.9,1.6-1.3,2.4c-0.1,0.1-0.1,0.3-0.2,0.4
				c-0.1,0.2-0.2,0.5-0.4,0.7c-0.1,0.1-0.1,0.3-0.2,0.4v0.1c-0.2,0.4-0.4,0.8-0.6,1.1l-0.1,0.1c-0.1,0.1-0.1,0.4-0.2,0.5
				c-0.1,0.2-0.2,0.4-0.3,0.6c-0.1,0.2-0.1,0.4-0.3,0.6c-0.1,0.2-0.2,0.4-0.3,0.6c-0.1,0.3-0.2,0.5-0.3,0.8
				c-0.1,0.3-0.2,0.6-0.4,0.9c-0.1,0.2-0.2,0.5-0.3,0.7c-0.1,0.2-0.1,0.4-0.2,0.6c-0.1,0.2-0.1,0.5-0.3,0.7l-0.1,0.1
				c-0.1,0.1-0.1,0.3-0.1,0.4c-0.1,0.4-0.3,0.8-0.4,1.2c-0.1,0.1-0.1,0.3-0.1,0.4l-0.1,0.1c-0.1,0.3-0.1,0.5-0.2,0.8
				c-0.1,0.2-0.1,0.4-0.1,0.6c-0.1,0.3-0.1,0.6-0.3,0.9v0.1c0,0.1-0.1,0.2-0.1,0.4c-0.1,0.4-0.2,0.8-0.3,1.2c0,0.1-0.1,0.3-0.1,0.4
				v0.1c-0.1,0.3-0.1,0.6-0.2,0.9v0.1c0,0.1-0.1,0.3-0.1,0.4c-0.1,0.5-0.2,0.9-0.3,1.3c0,0.1,0,0.1-0.1,0.2v0.1
				c-0.1,0.4-0.1,0.7-0.2,1.1c0,0.1-0.1,0.4-0.1,0.5c-0.1,0.4-0.1,0.6-0.1,1v0.1c0,0.1,0,0.1,0,0.3c-0.1,0.4-0.1,0.9-0.1,1.3
				c0,0.1,0,0.2,0,0.3v0.1c-0.1,0.4-0.1,0.7-0.1,1.1l0,0c0,0.1,0,0.3-0.1,0.4c0,0.4-0.1,0.8-0.1,1.3v0.1c0,0.1,0,0.1,0,0.1
				c0,0.4-0.1,0.8-0.1,1.4c0,0.1,0,0.2,0,0.4v0.1c0,0.4,0,0.7,0,1.1v0.1c0,0.1,0,0.2,0,0.3c0,0.5,0,1,0,1.4c0,0.1,0,0.1,0,0.1v0.1
				c0,0.4,0,0.8,0.1,1.2c0,0.1,0,0.3,0,0.4c0,0.4,0.1,0.8,0.1,1.2v0.1c0,0.1,0,0.1,0,0.2c0,0.5,0.1,0.9,0.1,1.4c0,0.1,0,0.1,0,0.3
				v0.1c0.1,0.4,0.1,0.8,0.1,1.1v0.1c0,0.1,0,0.2,0.1,0.4c0.1,0.6,0.1,1,0.2,1.5c0.8,5.1,2.1,10.1,4,14.8c-0.5,1.8-0.2,3.3-0.1,3.8
				l0,0c0.2,1,0.7,2,1.3,2.8c0.4,0.6,0.8,1.1,1.3,1.5c0,0,0,0,0.1,0.1c0.1,0.1,0.1,0.1,0.2,0.2c0.2,2.6,1.2,5.3,1.3,5.7
				c0,0.1,0.1,0.1,0.1,0.3l-0.1,0.1c-2.1,0.6-6.9,2.3-10.5,4.6c-0.7,0.5-1.2,1.3-1.2,2.2v0.1c-0.4,0.1-0.8,0.4-1.1,0.8h130.2
				c0,0-1.1-8.9-1.3-12c0-0.5,0-0.9-0.1-1.3c0-0.1,0-0.1,0-0.1c-0.2-1.2-1.1-2-2-2.6c1-0.8,1.8-1.9,2.3-3.2c0.8-2,0.8-3.8,0.6-5.1
				c0.1-0.3,0.3-0.5,0.4-0.8c0.9-1.7,0.9-3.4,0.1-4.8c-0.2-0.4-0.4-0.6-0.8-0.9C223.4,412.2,223.8,403.9,222.6,395.6z"/>
			<g>
				<path fill="#E3E2D5" d="M214.6,423c0,0,6.3,1.8,3.9,7.7c-2.4,5.9-9.4,1.3-9.4,1.3C207.8,429.8,209.9,422.4,214.6,423z"/>
				<path fill="#FFFFFF" d="M134.3,450.9h80.4l1.1-0.4c0,0,2.9-9.2,2.4-12.7c-1.1-6.1-106.5-1.6-108.4,1.8
					C108.9,441.3,120.7,446.1,134.3,450.9z"/>
				<path fill="#C6C9C1" d="M134.3,450.9h80.4l1.1-0.4c0,0,2.9-9.2,2.4-12.7c-1.1-6.1-106.5-1.6-108.4,1.8
					C108.9,441.3,120.7,446.1,134.3,450.9z"/>
				<path fill="#B6A999" d="M173.7,345.4h-28.2c-30.5,7.2-50.9,36.6-46.3,68.1c2.2,15.1,9.8,28.1,20.5,37.3h79.9
					c15.2-13.2,23.6-33.5,20.5-54.9C216.3,370.5,197.3,351.1,173.7,345.4z"/>
				<g>
					<path opacity="0.2" fill="#3A332C" enable-background="new    " d="M203.2,409.3c0.6,1.8,1,3.6,1.3,5.4
						c2.3,16-7.2,31.1-22,36.2h17c15.2-13.2,23.6-33.5,20.5-54.9c-2.5-17.4-12.2-32.1-25.6-41.4c6.9,7,11.7,16.2,13.2,26.7
						C208.9,391.3,207.3,400.9,203.2,409.3z"/>
					<path opacity="0.2" fill="#3A332C" enable-background="new    " d="M119.6,450.9h18.8c-10.8-5.4-19-16-20.9-28.8
						c-0.5-3.5-0.6-7-0.1-10.4c-2.7-4.9-4.6-10.5-5.5-16.4c-2.3-15.9,3.4-31.1,14-41.5c-19.1,12.7-30.3,35.6-26.8,59.8
						C101.3,428.7,108.9,441.7,119.6,450.9z"/>
				</g>
				<path opacity="0.2" fill="#3A332C" enable-background="new    " d="M185.9,365.3c0.1,5.6-5.2,5.3-6,4.1c-1.5-2.4,1.8-3,1.8-3
					s-0.1-2.2-2.7-0.6c-5.2,4.2-4.1,21.9-4.1,21.9l4.6,1.8l-2.7-2l5.3-0.7l0.4,2.8c0,0-2.7,5.6-7.4,3.9c-3-0.8-3.9-4.4-3.4-7
					c1.3-7.2,1.1-15.5,0.8-16.1c-3.1,8.7-6.1,26.4-5.9,31.6s30.2-12,30.2-12l1-3.9c0,0-1.3-1.8-1.5-0.4c0.6,4.2-5.9,2.9-5.8-0.4
					c-0.1-2.2,4.4-4.6,4.4-4.6l4.6,4.3c0,0,6.9-0.3,7.5,2.3c1.3,3.8-3.4,5.2-5.1,3c-0.1-1-0.5-1.1,0.4-1.2c1.5-0.1,1.4-1.4,1.4-1.4
					s-3-2.3-4.3,0.6c-1.3,2.1-0.3,2.8-0.3,2.8l6.3,4.3l9.4,8.9c0,0-1.8,10.5-14.6,16.2c1.7,8.8-9.7,9.3-9.8,3.2
					c3.9,3.9,4.7-1.3,4.7-1.3s-2-3.7-5.4-0.8c-13,0.1-22.1-12.5-22.1-12.5s-9.1-3.9-12,0.4c-15.8,20.5-33,9.5-33,9.5l-2.5,1.3
					c0,0,1.4,4.1,3.2,3.2c1.8-0.9,3-0.4,3-0.4s0.3,4.4-5.3,3.2c-6.9-2.5-1.4-9.1-1.4-9.1s-11.1-6.5-12.4-19.3
					c6.6,2,17.8-8.9,17.8-8.9s-0.1-0.1,0-1.5c0.3-2-1.8-3.5-3.2-2.2c-1,1.1,1.3,1.8,1.3,1.8s-0.1,0.8-1.1,1.4
					c-1.2,0.4-3.3-0.1-3.3-2.6c-0.2-4.4,6.2-2.7,6.2-2.7l1.1,0.3l5.1-1.3c0,0,2.7-0.2,2.7,2.1c0.5,4-5.3,4.7-5.3,1.8
					c0.7,0.1,3-1.1,2.1-2.3c-0.8-1.2-3.3,0.1-3.4,1.4c-0.1,0.9-0.3,3.8-0.3,3.8l8.4,2.4l21.5,13.9c0,0-0.6-29.2-6-36.6
					c0.1,7.5,0.8,17.5,0.4,20.5c-0.3,1.8-1.3,6.8-7.5,5.1c-4.4-2-1.6-3.4-1.6-3.4s0.1-3.9,0.6-4.1c0.4-0.1,3,0.7,2.5,3.2
					c-0.1,0.5-0.6,1.3-1.1,1.3c3.2,0.2,5.1-6.7,5.1-6.7l-1.8-18.7c0,0-0.6-3.8-2.7-2.7c-1.1,0.8,1.4,0.6,1.3,1.6
					c0.3,2.1-4.3,2.2-3.7-2.3c-0.2-3.6,4.2-3.4,4.2-3.4s11.5-2.5,12.6,0.9s-0.8,4.8-2,5.9c-1.8,9.2,3.5,32.3,3.5,32.3l1.5,2.2
					l5.3-12l3.6-23.7l12.7-2.6C183.4,362.6,185.7,362,185.9,365.3z"/>
				<path fill="#382F2B" d="M124.4,442.8c0,0-15-4.8-18.3-7.7c-0.6,2.3,1.1,6.9,1.1,6.9L124.4,442.8z"/>
				<path fill="#382F2B" d="M106.9,398.3c2.7,8.3,5.7,13.8,13.9,18.5c-6.1,2-3.7,10.5,3,9.1c3.7-1.2,2.2-5.9-0.5-5.7
					c-1.2,0.1-1.5,1.4-0.3,2c0,1.2-1.5,0.8-1.8-0.1c-0.7-2.5,1.8-3.8,3.2-3c14.8,7.3,27.4-6,30.6-10.1c0.3,3.5-0.9,7-0.9,7
					s3.2-1.5,8.4-0.9c5.4,0.6,9.1,2.7,9.1,2.7s-4.4-4.9-4.4-9.2c6.8,8.5,15.1,12.4,22,12.9c0.6-1.3,2.9-2.1,4.6-0.9
					c1.9,1.3,0.6,3.9-0.8,3.3c1.1-2.3-1.6-3.4-2.8-1.8c-1.1,1.4-0.4,3.7,1.9,4.8c5.3,2.4,8.5-3.9,6-7c10.5-3.9,16.6-14.5,16.4-15.2
					c-0.1-0.5-4.2-9.1-14.4-13.4c-1.5-1.2-1.1-3.2-0.1-4.1c0.8-0.8,2-0.9,3-0.3c0.8,0.7,0.6,1.3,0,1.8c-0.8-1.3-2.5-0.4-2,0.9
					c1.1,3.2,5.6,1.1,5.7-1.5c0.4-2.7-2.3-6.5-7.1-3.9c-1.8-6.2-8.7-4.7-9.5-0.6c-0.7,2,1.3,4.6,3.7,4.4c1.1,0,2.5-1.4,1.4-2.7
					c-0.1-1.1,1.3-1,1.6-0.5c1.3,1.3,1.8,5.2-4.9,4.9c-12-1-25.6,12.7-25.6,12.7s0.8-22.9,6.5-34.7c0.7,5.8,0.2,12.9-0.4,17.1
					c-0.4,1.8-0.8,9.4,5.5,8.6c2.3-0.6,4.4-2.1,4.4-4.6c-0.1-4.5-5.4-4.7-5.9-1.9c-0.4,1.8,1.3,2.5,2.1,1.8c0.5,0.1,0.2,2.2-1.9,1.3
					c-1.1-0.4-1.8-2-1.5-3.7c0-4.9,1.7-12.9,2.5-16.9c0.8-3.8,2.5-5.4,4.3-4.4c0.9,0.6,0.3,1.8-0.4,1.7c-0.1-0.6-2.3-0.5-2,1.2
					c0.1,1.6,2.1,1.7,2.5,1.6c5.3-0.8,4.4-7.2,1.1-8.2c-2-1-11.9-2.4-14.5-2.3c-4.4,0.1-3.9,5.8-1.9,6.8c-0.1,7-0.1,21.5-5.2,32.8
					c-4.3-11.8-4.9-25.7-4.6-33.9c2.7-1.8,2.9-5.6-0.4-6.3c-3.9-0.7-9.7-0.6-12.2,1c-1.3,0.8-3,2.3-1.8,5.4c0.5,1.2,1.7,1.6,2.4,1.3
					c1.5-0.3,1.5-1.8-0.1-1.7c-0.5-0.3-0.3-1,0.1-1.1c0.9-0.4,1.8-0.1,2.1,3.4c1,12.8,1.1,13.9,0.4,21c-0.7,3.9-3.8,4.1-4.4,3.4
					c1.9,0.4,2.5-3.8-0.5-4c-3-0.2-3,3-3,3s0.6,5.1,6.3,4.6c1.3-0.5,3.5,0.3,4.4-6.9c0.4-3.6-0.6-11.7-0.1-20
					c5.3,9.2,6.3,37.1,6,36.1c-0.4,0.8-4-0.7-7-3.5c-4.6-4.2-10.3-10.2-19.5-11.3c-2.7-0.6-4.1-4.6-0.8-5.8c2.4-0.8,2.7,2.2,0.8,1.8
					c-2.3-0.1-1.2,3.9,2.2,2.4c2.8-1.5,2.3-4.4,0.4-6.1c-2-1.8-6.1-1.2-7,2.2c-3.4-3.8-7.7-0.1-6.3,3.2c0.4,1.3,2.5,1.8,3.6,1.2
					c0.9-0.6,0.7-1.8-0.5-1.8c-1-0.4-0.3-2.2,1.8-1.3c1.5,0.8,1.8,3.9-1.3,4.9C117.8,391.6,113.6,396.5,106.9,398.3z"/>
				
					<ellipse transform="matrix(0.4277 0.9039 -0.9039 0.4277 452.0812 146.8089)" fill="#382F2B" cx="110.1" cy="430.4" rx="6.8" ry="3.2"/>
				<path fill="#E3E2D5" d="M170.8,407.6c7.5,6.2,14.9,9.2,20,9.1c10.8-0.3,15.1-11,15.1-11s-4.8-10.9-15.1-11.4
					c-3.2-0.1-6.7,2.8-11,5.3c-2.7,1.5-6.3,3.9-8.9,4.8C168.4,405.5,170.2,407.1,170.8,407.6z"/>
				<path fill="#E3E2D5" d="M146.1,406.3c-5.7-3.1-10.8-11.3-18.8-11.6c-3.7-0.1-7.8,4.9-12.8,7c2,8.5,9.4,13.2,15.1,14.1
					c8.8,1.3,12.7-3.4,15.4-4.2C148.5,411.3,149.4,407.8,146.1,406.3z"/>
				<g>
					<g>
						<path fill="#B6A999" d="M108.1,399.4l0.2-0.1c-0.1-0.1-0.1-0.4-0.1-0.5c0.1-0.1,0.4-0.1,0.5-0.1l-0.1-0.2
							c-0.2,0.1-0.4,0.1-0.6,0.2H108v0.1C108,399.1,108,399.3,108.1,399.4z"/>
					</g>
					<g>
						<path fill="#B6A999" d="M109.6,398.1c0.4-0.1,0.8-0.4,1.1-0.5l0.1,0.2c-0.4,0.2-0.8,0.4-1.1,0.5L109.6,398.1z M111.9,397.1
							c0.4-0.2,0.7-0.4,1.1-0.6l0.1,0.2c-0.4,0.2-0.7,0.4-1.1,0.6L111.9,397.1z M114,395.9c0.4-0.2,0.7-0.4,1.1-0.6l0.1,0.1
							c-0.4,0.2-0.7,0.5-1.1,0.6L114,395.9z M116.1,394.5c0.4-0.2,0.6-0.4,1-0.7l0,0l0.1,0.2l0,0c-0.4,0.2-0.6,0.4-1,0.7
							L116.1,394.5z M118.2,393.1c0.4-0.2,0.7-0.5,1.1-0.7l0.1,0.1c-0.4,0.2-0.7,0.4-1.1,0.7L118.2,393.1z M120.2,391.8
							c0.4-0.2,0.7-0.4,1.1-0.6l0.1,0.2c-0.4,0.2-0.7,0.4-1.1,0.6L120.2,391.8z M122.4,390.7c0.1-0.1,0.2-0.1,0.3-0.1
							c0.3-0.1,0.6-0.2,0.8-0.4l0.1,0.2c-0.3,0.1-0.6,0.3-0.8,0.4c-0.1,0.1-0.2,0.1-0.3,0.1L122.4,390.7z M124.5,389.5
							c0.3-0.3,0.5-0.6,0.7-1l0.2,0.1c-0.2,0.4-0.4,0.7-0.8,1.1L124.5,389.5z M125.5,387.3L125.5,387.3c0-0.4,0-0.6,0-0.8
							c0-0.1-0.1-0.2-0.1-0.4l0.2-0.1c0,0.1,0.1,0.2,0.1,0.4c0.1,0.3,0.1,0.6,0,0.8v0.1H125.5z M120.5,385.8c0-0.1,0-0.3,0-0.4
							c0-0.2,0.1-0.4,0.1-0.6l0.2,0.1c-0.1,0.1-0.1,0.4-0.1,0.5s0,0.2,0,0.4c0,0.1,0,0.1,0.1,0.3l-0.2,0.1
							C120.6,386,120.6,385.9,120.5,385.8z M124.1,384.3l0.1-0.2c0.4,0.2,0.7,0.5,1,0.8l-0.1,0.1
							C124.7,384.7,124.4,384.5,124.1,384.3z M122.3,384L122.3,384c-0.2,0-0.4,0.1-0.6,0.1l-0.1-0.2c0.2-0.1,0.4-0.1,0.6-0.1l0,0
							c0.2,0,0.4-0.1,0.7,0v0.2C122.7,384,122.5,384,122.3,384z"/>
					</g>
					<g>
						<path fill="#B6A999" d="M121.7,387.5c0.1,0,0.3-0.1,0.4-0.1c0.1-0.1,0.2-0.2,0.2-0.2v-0.1l-0.1-0.1c-0.1,0-0.1-0.1-0.3-0.1
							c-0.1,0-0.1,0-0.2-0.1h-0.1l-0.1,0.2h0.1c0.1,0.1,0.2,0.1,0.3,0.1h0.1c0,0-0.1,0-0.1,0.1c-0.1,0.1-0.2,0.1-0.3,0.1
							L121.7,387.5z"/>
					</g>
					<g>
						<path fill="#B6A999" d="M154.2,404.7l0.1-0.2c0.4,0.1,0.8,0.2,1.2,0.3v0.2C155.1,405,154.7,404.9,154.2,404.7z M156.6,404.4
							c0.1-0.1,0.1-0.1,0.2-0.2c0.1-0.1,0.1-0.2,0.1-0.8h0.2c0,0.7-0.1,0.8-0.1,0.9c-0.1,0.1-0.1,0.2-0.2,0.3L156.6,404.4z
							 M152,403.7l0.1-0.2c0.4,0.2,0.7,0.4,1.1,0.6l-0.1,0.2C152.8,404.1,152.4,403.9,152,403.7z M156.8,402.2c0-0.4,0-0.8-0.1-1.2
							h0.2c0,0.5,0,0.9,0.1,1.3L156.8,402.2z M149.9,402.3l0.1-0.1c0.4,0.3,0.6,0.5,1,0.7l-0.1,0.1
							C150.6,402.8,150.3,402.5,149.9,402.3z M148.5,401.1c-0.1-0.1-0.3-0.2-0.4-0.4l0.1-0.1c0.1,0.1,0.3,0.3,0.4,0.4
							c0.1,0.1,0.4,0.3,0.5,0.4l-0.1,0.1C148.8,401.4,148.6,401.2,148.5,401.1z M156.7,399.7v-0.5c0-0.2,0-0.5-0.1-0.8h0.2
							c0,0.3,0,0.6,0.1,0.8v0.5H156.7z M146.3,399l0.1-0.1c0.3,0.3,0.6,0.6,0.9,0.8l-0.1,0.1C146.8,399.6,146.6,399.3,146.3,399z
							 M156.6,397.3c0-0.4-0.1-0.8-0.1-1.2h0.2c0,0.4,0.1,0.8,0.1,1.2H156.6z M144.5,397.4l0.1-0.1c0.3,0.3,0.6,0.6,0.9,0.8
							l-0.1,0.1C145,398,144.7,397.7,144.5,397.4z M156.4,394.8c0-0.4-0.1-0.8-0.1-1.2h0.2c0.1,0.4,0.1,0.8,0.1,1.2H156.4z
							 M142.6,395.9l0.1-0.1c0.3,0.2,0.6,0.5,1,0.8l-0.1,0.1C143.2,396.4,142.8,396.1,142.6,395.9z M140.5,394.4l0.1-0.1
							c0.4,0.2,0.7,0.5,1,0.7l-0.1,0.1C141.2,394.8,140.9,394.6,140.5,394.4z M145.9,393.8c0.1,0,0.2-0.1,0.4-0.1
							c0.3-0.1,0.6-0.1,0.8-0.3l0.1,0.2c-0.3,0.1-0.6,0.2-0.9,0.3c-0.1,0-0.2,0.1-0.4,0.1V393.8z M143.5,393.9l0.1-0.2
							c0.4,0.1,0.8,0.1,1.2,0.2v0.2C144.2,394,143.8,394,143.5,393.9z M156.2,392.3c-0.1-0.4-0.1-0.8-0.1-1.2h0.2
							c0.1,0.4,0.1,0.8,0.1,1.2H156.2z M147.9,392.7c0.2-0.3,0.4-0.6,0.6-1.1l0.2,0.1c-0.1,0.4-0.4,0.8-0.6,1.1L147.9,392.7z
							 M141.4,392.6l0.1-0.1c0.3,0.3,0.6,0.6,0.9,0.8l-0.1,0.1C142,393.2,141.6,392.9,141.4,392.6z M138.5,393l0.1-0.2
							c0.4,0.2,0.7,0.4,1.1,0.6l-0.1,0.1C139.2,393.5,138.8,393.3,138.5,393z M144.2,392.3v-0.2c0.1,0,0.1,0,0.2,0
							c0.2,0,0.6-0.1,0.9-0.3l0.1,0.2c-0.4,0.2-0.8,0.3-1,0.3C144.4,392.3,144.3,392.3,144.2,392.3z M142.3,391.7
							c-0.1-0.1-0.1-0.3-0.2-0.4h0.2c0,0.1,0.1,0.2,0.1,0.4c0.1,0.2,0.4,0.4,0.6,0.4l-0.1,0.2C142.7,392.1,142.5,391.9,142.3,391.7z
							 M146.4,391.2c0.3-0.3,0.6-0.6,0.8-0.9l0.1,0.1c-0.2,0.4-0.5,0.7-0.8,0.9L146.4,391.2z M155.9,389.9c0-0.4-0.1-0.6-0.1-1v-0.3
							h0.2v0.3c0.1,0.4,0.1,0.6,0.1,1H155.9z M136.3,392l0.1-0.2c0.4,0.1,0.8,0.4,1.1,0.6l-0.1,0.2C137,392.3,136.6,392.1,136.3,392
							z M148.8,390.4c0.1-0.4,0.1-0.8,0.3-1.2l0.2,0.1c-0.1,0.4-0.1,0.8-0.3,1.2L148.8,390.4z M140.3,390.3l0.2-0.1
							c0.1,0.3,0.1,0.7,0.4,1.1l-0.2,0.1C140.4,391,140.4,390.6,140.3,390.3z M143.1,390.4c-0.1,0-0.2,0-0.3,0l-0.1-0.2
							c0.1,0,0.2,0,0.4,0h0.1c0.1,0,0.3-0.2,0.4-0.5l0.2,0.1C143.7,390.2,143.5,390.4,143.1,390.4
							C143.3,390.4,143.2,390.4,143.1,390.4z M134,391.1l0.1-0.2c0.4,0.1,0.8,0.3,1.2,0.4l-0.1,0.2
							C134.7,391.4,134.4,391.2,134,391.1z M147.8,389.2c0.1-0.4,0.2-0.8,0.4-1.2l0.2,0.1c-0.1,0.4-0.2,0.8-0.4,1.2L147.8,389.2z
							 M155.6,387.5c-0.1-0.4-0.1-0.8-0.1-1.2h0.2c0.1,0.4,0.1,0.8,0.1,1.2H155.6z M131.7,390.4l0.1-0.2c0.4,0.1,0.8,0.2,1.2,0.3
							l-0.1,0.2C132.4,390.6,132.1,390.5,131.7,390.4z M149.2,388v-0.3c0-0.3,0.1-0.6,0.1-1h0.2c0,0.4-0.1,0.7-0.1,1v0.3H149.2z
							 M140.5,389c0.2-0.4,0.5-0.8,0.8-1l0.1,0.2c-0.3,0.2-0.6,0.5-0.7,0.9L140.5,389z M142.6,388.1v-0.2c0.5,0.1,0.9,0.3,1.1,0.6
							l-0.1,0.1C143.3,388.3,143,388.1,142.6,388.1z M129.5,390L129.5,390c-0.1,0-0.2,0-0.3-0.1l0.1-0.2c0.1,0,0.1,0,0.2,0.1h0.1
							c0.4,0.1,0.6,0.1,1,0.1v0.2C130.1,390.2,129.8,390.1,129.5,390z M148.2,386.9c0.1-0.4,0.1-0.8,0.1-1.2h0.2
							c0,0.4-0.1,0.8-0.1,1.2H148.2z M127.1,388.7l0.1-0.1c0.3,0.3,0.6,0.6,0.9,0.8l-0.1,0.1C127.7,389.2,127.4,389,127.1,388.7z
							 M155.4,385c-0.1-0.3-0.1-0.6-0.1-0.8l-0.1-0.4h0.2l0.1,0.4c0.1,0.3,0.1,0.6,0.1,0.8H155.4z M149.4,385.6c0-0.4,0-0.8,0-1.2
							h0.2c0,0.4,0,0.8,0,1.3L149.4,385.6z M129.4,386.8l0.1-0.1c0.2,0.1,0.5,0.3,1.1,0.2v0.1v-0.1v0.2l0,0
							C130,387.1,129.6,387,129.4,386.8z M148.4,384.4c0-0.4,0.1-0.8,0.1-1.2h0.2c0,0.4-0.1,0.8-0.1,1.2H148.4z M126,386.4h0.2
							c0.1,0.4,0.2,0.8,0.4,1.1l-0.2,0.1C126.2,387.2,126.1,386.9,126,386.4z M131.7,386.4c0.4-0.3,0.6-0.6,0.8-0.8l0.2,0.1
							c-0.2,0.4-0.5,0.6-0.8,0.9L131.7,386.4z M154.8,381.4h0.2c0.1,0.4,0.1,0.8,0.2,1.2H155C154.9,382.2,154.9,381.8,154.8,381.4z
							 M129.5,386v-0.2c0.2,0,0.4,0.1,0.6,0l0,0c0.2,0,0.4-0.1,0.5-0.1l0.1,0.2c-0.1,0.1-0.4,0.1-0.6,0.1l0,0
							C129.9,386.1,129.7,386.1,129.5,386z M119.5,386.6L119.5,386.6l0.1-0.1v0.1c0.1,0.3,0.4,0.5,0.8,0.6l-0.1,0.2
							C119.9,387.2,119.6,386.9,119.5,386.6z M149.3,383.1c0-0.4,0-0.8-0.1-1.2h0.2c0,0.4,0,0.8,0.1,1.3L149.3,383.1z M131.4,384.8
							c0.1-0.3,0.1-0.6,0.1-0.8c0-0.1-0.1-0.2-0.1-0.3l0.2-0.1c0,0.1,0.1,0.2,0.1,0.3c0.1,0.4,0,0.6-0.1,1L131.4,384.8z
							 M132.8,384.5c0-0.1,0-0.1,0-0.2c-0.1-0.3-0.1-0.6-0.3-0.9l0.2-0.1c0.1,0.3,0.3,0.6,0.3,1c0,0.1,0,0.2,0,0.3L132.8,384.5z
							 M148.5,381.9c0-0.4,0-0.8,0-1.2h0.2c0,0.4,0,0.8,0,1.3L148.5,381.9z M126,385.2c0.1-0.4,0.2-0.8,0.4-1.2l0.1,0.1
							c-0.2,0.4-0.4,0.7-0.4,1.1L126,385.2z M124.9,384.5l0.1-0.2c0.1,0,0.2,0,0.4,0c0.2-0.1,0.4-0.2,0.5-0.5l0.2,0.1
							c-0.1,0.3-0.4,0.6-0.6,0.6h-0.1C125.2,384.5,125,384.5,124.9,384.5z M119.3,385.3c0-0.4,0.1-0.8,0.4-1.2l0,0l0.2,0.1l0,0
							c-0.2,0.4-0.3,0.7-0.4,1.1H119.3z M154.3,379l0.2-0.1c0.1,0.4,0.1,0.8,0.2,1.2l-0.2,0.1C154.5,379.8,154.4,379.3,154.3,379z
							 M149.2,380.7l-0.1-1.2h0.2l0.1,1.2H149.2z M129.6,382.4v-0.2c0.4,0,0.8,0.1,1.2,0.4l-0.1,0.1
							C130.5,382.6,130,382.4,129.6,382.4z M127.3,383.1c0.3-0.3,0.7-0.5,1.1-0.6l0.1,0.2c-0.4,0.1-0.7,0.4-1.1,0.6L127.3,383.1z
							 M122.9,383.1l0.1-0.2c0.4,0.1,0.7,0.4,1.1,0.6l-0.1,0.1C123.6,383.4,123.3,383.2,122.9,383.1z M131.5,382.1
							c-0.2-0.2-0.4-0.4-0.7-0.4l0.1-0.2c0.3,0.1,0.6,0.3,0.8,0.5c0.1,0.1,0.1,0.1,0.3,0.2l-0.1,0.1
							C131.7,382.2,131.6,382.1,131.5,382.1z M126.3,382.6c0.2-0.4,0.6-0.6,0.9-0.9l0.1,0.1c-0.4,0.2-0.6,0.5-0.8,0.8L126.3,382.6z
							 M148.5,379.5c0-0.4,0-0.8-0.1-1.2h0.2c0,0.4,0,0.8,0.1,1.2H148.5z M120.5,383.1c0.4-0.2,0.8-0.4,1.2-0.4v0.2
							c-0.4,0.1-0.8,0.2-1.1,0.4L120.5,383.1z M128.4,381.4l-0.1-0.2c0.4-0.1,0.8-0.1,1.3-0.1v0.2
							C129.3,381.3,128.8,381.4,128.4,381.4z M153.8,376.5l0.2-0.1c0.1,0.4,0.2,0.8,0.3,1.2l-0.2,0.1
							C154,377.4,153.9,376.9,153.8,376.5z M149.2,378.2c0-0.4,0-0.8-0.1-1.3h0.2c0,0.4,0,0.8,0.1,1.2L149.2,378.2z M148.4,377.1
							c0-0.4-0.1-0.8-0.1-1.2h0.2c0,0.4,0.1,0.8,0.1,1.2H148.4z M153.2,374.1l0.2-0.1c0.1,0.4,0.2,0.8,0.3,1.2l-0.2,0.1
							C153.5,375,153.3,374.5,153.2,374.1z M149.1,375.7c0-0.4,0-0.8,0-1.3h0.2c0,0.4,0,0.8,0,1.2L149.1,375.7z M148.3,374.6
							c0-0.4-0.1-0.8-0.1-1.2h0.2c0,0.4,0.1,0.8,0.1,1.2H148.3z M152.5,371.8l0.2-0.1c0.1,0.4,0.2,0.8,0.4,1.2l-0.2,0.1
							C152.8,372.6,152.7,372.2,152.5,371.8z M149,373.3c0-0.4,0-0.8,0-1.3h0.2c0,0.4,0,0.8,0,1.2L149,373.3z M148.1,372.2L148,371
							h0.2l0.1,1.2H148.1z M151.7,369.5l0.2-0.1c0.1,0.4,0.3,0.8,0.4,1.1l-0.2,0.1C152,370.3,151.8,369.8,151.7,369.5z M149,370.8
							c0-0.4,0-0.8,0-1.3h0.2c0,0.4,0,0.8,0,1.2L149,370.8z M147.9,369.7l-0.1-1.2h0.2l0.1,1.2H147.9z M150.7,367.4
							c0-0.1-0.1-0.1-0.1-0.1l0.1-0.1c0.1,0.1,0.1,0.1,0.1,0.1c0.1,0.3,0.4,0.6,0.5,0.9l-0.2,0.1
							C151.1,368.1,150.9,367.7,150.7,367.4z M149.2,368.4c0-0.2,0-0.4,0-0.6c0-0.3,0.1-0.5,0.4-0.6l0.1,0.1
							c-0.1,0.1-0.3,0.4-0.3,0.5c0,0.2,0,0.4,0,0.6H149.2z M147.7,367.2l-0.1-0.6c0-0.2-0.1-0.4-0.1-0.6h0.2c0,0.2,0.1,0.4,0.1,0.6
							l0.1,0.6H147.7z M147,363.6l0.2-0.1c0.1,0.4,0.3,0.7,0.4,1.2l-0.2,0.1C147.3,364.4,147.1,364,147,363.6z M143.5,363.8
							c0-0.4,0.2-0.8,0.5-1.2l0.1,0.1c-0.3,0.3-0.4,0.6-0.5,1.1H143.5z M146.3,362.7c-0.3-0.2-0.6-0.4-1.1-0.4v-0.2
							c0.4,0,0.8,0.1,1.2,0.4l0,0L146.3,362.7L146.3,362.7z"/>
					</g>
					<g>
						<path fill="#B6A999" d="M144.5,365.3C144.5,365.3,144.5,365.3,144.5,365.3c0.1,0,0.1-0.1,0.2-0.1c0.1,0,0.1,0,0.1,0l0.6-0.2
							h-0.6c-0.1,0-0.2,0-0.3-0.1c-0.1-0.1-0.1-0.1-0.2-0.1l-0.1,0.1c0.1,0.1,0.1,0.1,0.2,0.1c-0.1,0-0.1,0-0.1,0l-0.1,0.2
							C144.2,365.3,144.3,365.4,144.5,365.3z"/>
					</g>
					<g>
						<path fill="#B6A999" d="M161.5,399.4c-0.2,0-0.4-0.1-0.5-0.1l0.1-0.1c0.1,0.1,0.3,0.1,0.4,0.1c0.2,0,0.4-0.1,0.6-0.3l0.1,0.1
							c-0.1,0.2-0.4,0.3-0.6,0.4C161.5,399.4,161.5,399.4,161.5,399.4z M162.5,397.8c0.1-0.4,0.3-0.8,0.5-1.1l0.2,0.1
							c-0.1,0.4-0.3,0.8-0.5,1.1L162.5,397.8z M160,396.9l0.2-0.1c0.1,0.4,0.3,0.8,0.4,1.2l-0.2,0.1
							C160.3,397.7,160.1,397.3,160,396.9z M163.4,395.5c0.1-0.4,0.3-0.8,0.4-1.2l0.2,0.1c-0.1,0.4-0.3,0.8-0.4,1.2L163.4,395.5z
							 M159.3,394.5l0.2-0.1c0.1,0.4,0.2,0.8,0.4,1.2l-0.2,0.1C159.5,395.3,159.4,394.9,159.3,394.5z M164.2,393.2
							c0.1-0.4,0.2-0.8,0.4-1.2l0.2,0.1c-0.1,0.4-0.2,0.8-0.4,1.2L164.2,393.2z M158.7,392.1l0.2-0.1c0.1,0.4,0.2,0.8,0.3,1.2
							l-0.2,0.1C158.8,392.9,158.7,392.5,158.7,392.1z M164.9,390.8c0.1-0.4,0.2-0.8,0.3-1.2l0.2,0.1c-0.1,0.4-0.2,0.8-0.3,1.2
							L164.9,390.8z M158.1,389.7h0.1c0.1,0.4,0.2,0.8,0.3,1.2l-0.2,0.1C158.2,390.5,158.2,390.1,158.1,389.7z M165.4,388.3
							c0.1-0.4,0.1-0.8,0.3-1.2l0.2,0.1c-0.1,0.4-0.1,0.8-0.3,1.2L165.4,388.3z M157.6,387.3l0.2-0.1c0.1,0.4,0.1,0.8,0.2,1.2
							l-0.2,0.1C157.7,388.1,157.7,387.7,157.6,387.3z M165.9,385.9c0.1-0.4,0.1-0.8,0.2-1.2h0.2c-0.1,0.4-0.1,0.8-0.2,1.2H165.9z
							 M157.2,384.8h0.2c0.1,0.4,0.1,0.8,0.2,1.2h-0.2C157.3,385.7,157.3,385.2,157.2,384.8z M166.3,383.5c0.1-0.4,0.1-0.8,0.1-1.2
							h0.2c-0.1,0.4-0.1,0.8-0.1,1.2H166.3z M157,383.6c-0.1-0.4-0.1-0.8-0.1-1.2h0.2c0.1,0.4,0.1,0.8,0.1,1.2H157z M166.6,381
							c0.1-0.4,0.1-0.8,0.1-1.3h0.2c-0.1,0.4-0.1,0.8-0.1,1.3H166.6z M156.7,381.2c-0.1-0.4-0.1-0.8-0.1-1.3h0.2
							c0.1,0.4,0.1,0.8,0.1,1.2L156.7,381.2z M166.9,378.6c0.1-0.4,0.1-0.8,0.1-1.3h0.2c0,0.4-0.1,0.8-0.1,1.3H166.9z M156.4,378.7
							c-0.1-0.4-0.1-0.8-0.1-1.3h0.2c0,0.4,0.1,0.8,0.1,1.3H156.4z M167.1,376.1c0-0.4,0.1-0.8,0.1-1.3h0.2c0,0.4-0.1,0.8-0.1,1.3
							H167.1z M156.2,376.2c0-0.4-0.1-0.8-0.1-1.3h0.2c0,0.4,0.1,0.8,0.1,1.3H156.2z M167.2,373.6c0-0.4,0.1-0.8,0.1-1.3h0.2
							c0,0.4,0,0.8-0.1,1.3H167.2z M156.1,373.7c0-0.4-0.1-0.8-0.1-1.3h0.2c0,0.4,0,0.8,0.1,1.3H156.1z M167.3,371.2
							c0-0.4,0-0.8,0-1.3h0.2c0,0.4,0,0.8,0,1.3H167.3z M180.7,368.3l0.1-0.1c0.4,0.2,1,0.3,1.1,0.2l0,0v0.2
							C181.8,368.6,181.2,368.6,180.7,368.3z M183.1,368c0.4-0.1,0.7-0.4,1-0.6l0.1,0.1c-0.3,0.3-0.6,0.5-1.1,0.7L183.1,368z
							 M155.9,371.2c0-0.4,0-0.8,0-1.3h0.2c0,0.4,0,0.8,0,1.3H155.9z M184.8,366.4c0.1-0.3,0.2-0.6,0.2-1c0-0.1,0-0.1,0-0.2h0.2
							c0,0.1,0,0.1,0,0.2c0,0.4-0.1,0.7-0.2,1.1L184.8,366.4z M167.4,368.6c0-0.4,0-0.8,0-1.3h0.2c0,0.4,0,0.8,0,1.3H167.4z
							 M155.9,368.8c0-0.4,0-0.8,0-1.3h0.2c0,0.4,0,0.8,0,1.3H155.9z M184.2,362.9l0.1-0.1c0.3,0.4,0.5,0.7,0.6,1.1l-0.2,0.1
							C184.6,363.6,184.4,363.2,184.2,362.9z M167.4,366.2v-0.6c0-0.1,0-0.1,0-0.1c0-0.1-0.1-0.3-0.2-0.4l0.1-0.1
							c0.1,0.1,0.2,0.3,0.3,0.5c0,0.1,0,0.1,0,0.1v0.6L167.4,366.2z M155.9,366.3c0-0.5,0-0.8,0-1.3h0.2c0,0.4,0,0.8,0,1.3H155.9z
							 M182.9,362c-0.1,0-0.1-0.1-0.1-0.1c-0.1-0.1-0.4-0.1-0.6-0.2l0.1-0.2c0.2,0.1,0.4,0.1,0.6,0.2c0.1,0,0.1,0,0.1,0.1
							c0.1,0.1,0.3,0.1,0.4,0.2l-0.1,0.2C183.1,362.1,183,362,182.9,362z M166,363h0.2c0.1,0.4,0.2,0.8,0.4,1.1l-0.2,0.1
							C166.1,363.9,166,363.4,166,363z M179.8,361.1l0.1-0.2c0.4,0.1,0.8,0.2,1.2,0.3l-0.1,0.2C180.6,361.3,180.2,361.3,179.8,361.1
							z M177.3,360.7v-0.2c0.4,0.1,0.8,0.1,1.2,0.2l-0.1,0.2C178.1,360.8,177.7,360.8,177.3,360.7z M156.3,363.9
							C156.3,363.8,156.3,363.8,156.3,363.9c0.4-0.3,0.7-0.5,0.9-0.8l0.1,0.1c-0.3,0.3-0.6,0.6-0.9,0.8c0,0-0.1,0-0.1,0.1
							L156.3,363.9z M174.8,360.3v-0.2c0.4,0.1,0.8,0.1,1.2,0.2v0.2C175.7,360.4,175.3,360.3,174.8,360.3z M166,361.7
							c0.1-0.5,0.2-0.8,0.5-1.2l0.1,0.1c-0.2,0.3-0.4,0.7-0.4,1.1L166,361.7z M172.4,360v-0.2c0.4,0.1,0.8,0.1,1.3,0.1v0.2
							C173.2,360.1,172.8,360.1,172.4,360z M143,364.4c-0.1-0.4-0.2-0.7-0.3-1c0-0.1,0-0.1,0-0.1h0.2c0,0.1,0,0.1,0,0.1
							c0.1,0.3,0.1,0.6,0.2,1c0,0,0,0.1,0.1,0.1l-0.2,0.1C143.1,364.4,143.1,364.4,143,364.4z M157.9,362c0.1-0.4,0.2-0.8,0.1-1.2
							h0.2c0.1,0.4,0,0.8-0.2,1.3L157.9,362z M169.9,359.8v-0.2c0.4,0,0.8,0.1,1.3,0.1v0.2C170.7,359.9,170.3,359.8,169.9,359.8z
							 M167.5,359.8c0.4-0.1,0.7-0.2,1.2-0.2h0.1v0.2h-0.1c-0.4,0-0.8,0.1-1.1,0.2L167.5,359.8z M142.9,362c0.1-0.4,0.3-0.8,0.6-1.1
							l0.1,0.1c-0.3,0.4-0.4,0.6-0.6,1.1L142.9,362z M156.6,359.2l0.1-0.2c0.5,0.1,0.8,0.4,1.1,0.6l-0.1,0.1
							C157.3,359.5,157,359.4,156.6,359.2z M154.1,358.9v-0.2c0.4,0.1,0.8,0.1,1.3,0.1v0.2C154.9,358.9,154.5,358.9,154.1,358.9z
							 M144.4,360c0.1-0.1,0.1-0.1,0.3-0.2c0.2-0.1,0.6-0.3,0.8-0.4l0.1,0.2c-0.3,0.1-0.6,0.3-0.8,0.4c-0.1,0.1-0.1,0.1-0.2,0.1
							L144.4,360z M151.6,358.7v-0.2c0.4,0,0.8,0,1.3,0.1v0.2C152.5,358.7,152.1,358.7,151.6,358.7z M149.2,358.8v-0.2
							c0.4-0.1,0.8-0.1,1.3-0.1v0.2C150,358.7,149.6,358.8,149.2,358.8z M146.7,359c0.4-0.1,0.8-0.2,1.2-0.3v0.2
							c-0.4,0.1-0.8,0.1-1.2,0.2V359z"/>
					</g>
					<g>
						<path fill="#B6A999" d="M181.4,367.3l0.1-0.2c-0.2-0.1-0.4-0.1-0.4-0.3v-0.1H181c-0.1,0-0.1,0-0.1,0c-0.3,0.1-0.4,0.2-0.5,0.4
							l0.2,0.1c0.1-0.1,0.1-0.2,0.4-0.2c0,0,0,0,0.1,0C181,367.2,181.2,367.3,181.4,367.3z"/>
					</g>
					<g>
						<path fill="#B6A999" d="M212,402.2l0.1-0.1c0.2,0.4,0.5,0.7,0.7,1.1l-0.1,0.1C212.5,402.8,212.3,402.5,212,402.2z
							 M210.6,400.1l0.1-0.1c0.3,0.4,0.5,0.6,0.8,1l-0.1,0.1C211.1,400.9,210.8,400.5,210.6,400.1z M208.9,398.3l0.1-0.1
							c0.3,0.3,0.6,0.6,0.8,0.9l-0.1,0.1C209.5,399,209.2,398.7,208.9,398.3z M207.1,396.6l0.1-0.1c0.3,0.3,0.6,0.6,0.9,0.8
							l-0.1,0.1C207.8,397.2,207.4,396.9,207.1,396.6z M166,403c-0.3-0.1-0.5-0.4-0.6-0.7c0-0.1,0-0.1,0-0.1V402h0.2v0.1
							c0,0.1,0,0.1,0,0.1c0,0.2,0.2,0.5,0.4,0.6h0.1L166,403C166.1,403,166,403,166,403z M167.2,402.3c0.2-0.2,0.5-0.5,0.9-0.8
							l0.1,0.1c-0.4,0.4-0.7,0.6-0.9,0.8L167.2,402.3z M205.1,395.2l0.1-0.1c0.4,0.2,0.7,0.5,1,0.8l-0.1,0.1
							C205.9,395.6,205.5,395.4,205.1,395.2z M169,400.7c0.3-0.3,0.6-0.5,0.9-0.8l0.1,0.1c-0.4,0.3-0.6,0.6-0.9,0.8L169,400.7z
							 M165.6,400.7c0-0.4,0.1-0.8,0.1-1.3h0.2c0,0.5-0.1,0.9-0.1,1.3H165.6z M203.1,393.8l0.1-0.2c0.4,0.2,0.7,0.4,1.1,0.6
							l-0.1,0.1C203.8,394.2,203.5,394,203.1,393.8z M170.9,399.1c0.3-0.3,0.6-0.5,1-0.8l0.1,0.1c-0.4,0.3-0.6,0.5-1,0.8
							L170.9,399.1z M172.9,397.5c0.4-0.2,0.6-0.5,1-0.7l0.1,0.1c-0.4,0.2-0.7,0.5-1,0.7L172.9,397.5z M200.9,392.6l0.1-0.2
							c0.4,0.2,0.8,0.4,1.1,0.6l-0.1,0.2C201.7,393,201.3,392.8,200.9,392.6z M165.7,398.2c0-0.4,0.1-0.8,0.1-1.3h0.2
							c0,0.4-0.1,0.8-0.1,1.3H165.7z M174.9,396.1c0.4-0.2,0.7-0.5,1.1-0.7l0.1,0.1c-0.4,0.2-0.7,0.4-1.1,0.7L174.9,396.1z
							 M199.7,392.1c-0.1,0-0.1-0.1-0.2-0.1c-0.3-0.2-0.5-0.4-0.7-0.7l0.1-0.1c0.2,0.2,0.4,0.5,0.6,0.6c0.1,0.1,0.1,0.1,0.1,0.1h0.1
							L199.7,392.1L199.7,392.1z M177,394.8c0.4-0.2,0.7-0.4,1.1-0.6l0.1,0.2c-0.4,0.2-0.7,0.4-1.1,0.6L177,394.8z M201.8,389.8
							l0.1-0.1c0.2,0.4,0.6,0.6,0.9,0.6v0.2C202.5,390.4,202.1,390.2,201.8,389.8z M204.1,390c0.4-0.1,0.7-0.4,1-0.7l0.1,0.1
							c-0.3,0.3-0.6,0.6-1.1,0.7L204.1,390z M165.9,395.7c0-0.4,0.1-0.8,0.1-1.3h0.2c-0.1,0.4-0.1,0.8-0.1,1.3H165.9z M179.1,393.5
							c0.4-0.2,0.7-0.4,1.1-0.6l0.1,0.2c-0.4,0.2-0.7,0.4-1.1,0.6L179.1,393.5z M202.2,389.1c-0.1-0.1-0.1-0.1-0.2-0.2l0.1-0.2
							c0.1,0.1,0.2,0.1,0.3,0.3c0.1,0.2,0.4,0.4,0.7,0.4v0.2C202.7,389.6,202.4,389.4,202.2,389.1z M181.4,392.5
							c0.4-0.1,0.8-0.4,1.1-0.5l0.1,0.2c-0.4,0.1-0.8,0.4-1.1,0.5L181.4,392.5z M198.3,389.7c0-0.1,0-0.2,0-0.4c0-0.2,0-0.4,0-0.6
							h0.2c0,0.1,0,0.4,0,0.5s0,0.2,0,0.4s0.1,0.2,0.1,0.4l-0.2,0.1C198.3,390,198.3,389.9,198.3,389.7z M193.4,390.4v-0.2
							c0.4,0,0.8-0.1,1.2-0.1l0.1,0.2c-0.1,0-0.2,0-0.3,0.1C194,390.4,193.8,390.4,193.4,390.4z M204,388.7c0.1-0.2,0.3-0.5,0.3-0.7
							c0-0.1,0-0.2,0-0.4h0.1h0.1c0,0.1,0,0.3,0,0.4c0,0.3-0.1,0.6-0.3,0.8L204,388.7z M183.6,391.5c0.4-0.1,0.8-0.3,1.2-0.4
							l0.1,0.2c-0.4,0.1-0.8,0.3-1.2,0.4L183.6,391.5z M195.8,389.7c0.4-0.1,0.8-0.4,1.1-0.6l0.1,0.1c-0.4,0.2-0.7,0.4-1.1,0.6
							L195.8,389.7z M191.9,390.4L191.9,390.4c-0.4,0-0.6-0.1-1-0.1v-0.2c0.4,0,0.6,0,1,0.1l0,0c0.1,0,0.1,0,0.3,0v0.2
							C192.1,390.4,192,390.4,191.9,390.4z M205.7,388.3c0-0.1,0.1-0.2,0.1-0.4v-0.1c0-0.2,0-0.5,0-0.8h0.2c0,0.3,0,0.6,0,0.8v0.1
							c0,0.1,0,0.3-0.1,0.4L205.7,388.3z M177.8,392.3v-0.2h0.1c0.4-0.1,0.7-0.2,1.1-0.4l0.1,0.2
							C178.6,392.1,178.3,392.3,177.8,392.3L177.8,392.3z M186,390.8c0.4-0.1,0.8-0.2,1.2-0.3l0.1,0.2c-0.4,0.1-0.8,0.1-1.2,0.3
							L186,390.8z M175.3,391.9l0.1-0.2c0.4,0.2,0.7,0.3,1.1,0.4v0.2C176.1,392.3,175.7,392.1,175.3,391.9z M188.5,390.5v-0.2
							c0.4-0.1,0.8-0.1,1.3-0.1v0.2C189.3,390.4,188.9,390.4,188.5,390.5z M180,391.2c0.4-0.3,0.6-0.6,0.8-0.8l0.1,0.1
							c-0.2,0.4-0.6,0.6-0.9,0.8L180,391.2z M166.1,393.3c0.1-0.4,0.1-0.8,0.1-1.3h0.2c-0.1,0.4-0.1,0.8-0.1,1.2L166.1,393.3z
							 M197.8,388.3c0.2-0.3,0.4-0.6,0.5-0.9c0-0.1,0.1-0.1,0.1-0.2l0.2,0.1c0,0.1,0,0.1-0.1,0.2c-0.1,0.4-0.3,0.6-0.5,1
							L197.8,388.3z M198.5,387.6c0.2-0.4,0.4-0.8,0.7-1.1l0.1,0.1c-0.3,0.3-0.5,0.6-0.7,1L198.5,387.6z M176.4,390.6
							c-0.1,0-0.1-0.1-0.1-0.1l0.1-0.2c0.1,0,0.1,0.1,0.1,0.1c0.4,0.1,0.7,0.2,1,0.2v0.2C177.1,390.8,176.7,390.7,176.4,390.6z
							 M178.6,390.4c0.4-0.2,0.6-0.5,0.8-0.8l0.2,0.1c-0.2,0.4-0.5,0.8-0.8,1L178.6,390.4z M173.7,390l0.2-0.1
							c0.1,0.4,0.4,0.8,0.6,1.1l-0.1,0.1C174.1,390.8,173.9,390.4,173.7,390z M203.5,386.4L203.5,386.4c-0.3-0.2-0.5-0.4-0.8-0.4
							l0.1-0.2c0.3,0.1,0.5,0.2,0.7,0.4c0.1,0,0.1,0.1,0.1,0.1c0.1,0.1,0.1,0.1,0.2,0.2l-0.1,0.1
							C203.6,386.5,203.5,386.4,203.5,386.4z M204.7,385L204.7,385l0.1-0.1c0.3,0.3,0.6,0.6,0.7,1.1l-0.2,0.1
							C205.2,385.7,205,385.3,204.7,385z M181.4,389.3c0.1-0.3,0.1-0.6,0.1-0.8c0-0.1,0-0.2,0-0.4h0.2c0,0.1,0,0.2,0,0.4
							c0,0.3,0,0.6-0.1,0.9L181.4,389.3z M174.6,388.7l0.2-0.1c0.1,0.4,0.4,0.8,0.6,1.1l-0.1,0.1
							C174.9,389.5,174.7,389.1,174.6,388.7z M200.3,385.9c0.4-0.2,0.8-0.3,1.2-0.4v0.2c-0.4,0-0.8,0.1-1.1,0.3L200.3,385.9z
							 M191.9,386.6l0.1-0.1c0.4,0.2,0.7,0.4,1.1,0.4v0.2C192.7,387,192.3,386.8,191.9,386.6z M194.2,386.6c0.2-0.1,0.3-0.3,0.4-0.4
							c0-0.1,0.1-0.1,0-0.2c0-0.1-0.1-0.1-0.1-0.2l0.1-0.1c0.1,0.1,0.1,0.2,0.1,0.4s0,0.3-0.1,0.4c-0.1,0.2-0.2,0.4-0.4,0.6
							L194.2,386.6z M166.4,390.8c0.1-0.4,0.1-0.8,0.1-1.2h0.2c-0.1,0.4-0.1,0.8-0.1,1.2H166.4z M198.3,386.1L198.3,386.1
							c-0.1-0.4-0.1-0.8-0.4-1.1l0.2-0.1c0.1,0.4,0.3,0.7,0.4,1.1v0.1H198.3z M178.7,387.6L178.7,387.6v-0.2h0.1
							c0.4,0.1,0.8,0.4,0.9,0.8l-0.2,0.1C179.3,387.9,179,387.7,178.7,387.6z M173.3,388.3c0-0.2-0.1-0.4-0.1-0.6h0.2
							c0,0.2,0.1,0.4,0.1,0.6c0,0.2,0.1,0.4,0.1,0.6l-0.2,0.1C173.4,388.6,173.3,388.5,173.3,388.3z M202.5,384.1v-0.2
							c0.4,0,0.8,0.1,1.3,0.2l-0.1,0.2C203.4,384.3,203,384.2,202.5,384.1z M200.2,384.6c0.4-0.2,0.8-0.4,1.2-0.5l0.1,0.2
							c-0.4,0.1-0.8,0.3-1.1,0.4L200.2,384.6z M198.7,384.3c-0.1-0.2-0.1-0.4-0.2-0.6l0.2-0.1c0.1,0.2,0.1,0.4,0.2,0.7
							c0.1,0.1,0.1,0.3,0.3,0.4l-0.1,0.1C198.8,384.7,198.7,384.5,198.7,384.3z M177.3,387.6c-0.1-0.1-0.1-0.3-0.2-0.4
							c0-0.1,0-0.4,0-0.6c0-0.1,0-0.1,0-0.1l0.2,0.1c0,0.1,0,0.1,0,0.1c-0.1,0.2-0.1,0.4,0,0.5c0,0.1,0.1,0.2,0.1,0.3l0.1,0.1
							l-0.1,0.2C177.4,387.7,177.4,387.7,177.3,387.6z M190.7,384.6c0-0.1,0-0.1,0-0.2h0.2c0,0.1,0,0.1,0,0.1c0.1,0.4,0.1,0.6,0.4,1
							l-0.1,0.1C190.9,385.3,190.7,385,190.7,384.6z M180.5,386.2c-0.1,0-0.1-0.1-0.1-0.1l0.1-0.1c0.1,0,0.1,0.1,0.1,0.1
							c0.3,0.2,0.5,0.6,0.7,0.9l-0.2,0.1C181,386.6,180.7,386.4,180.5,386.2z M194.2,384.5c0.1-0.4,0.4-0.8,0.8-1.1l0.1,0.2
							c-0.4,0.2-0.6,0.5-0.6,0.9L194.2,384.5z M174.2,387.4c-0.1-0.4-0.1-0.8-0.1-1.3h0.2c0,0.4,0,0.8,0.1,1.2L174.2,387.4z
							 M196.3,383.5v-0.2c0.4,0.1,0.8,0.3,1.1,0.6l-0.1,0.1C197.1,383.7,196.6,383.6,196.3,383.5z M166.7,388.3
							c0.1-0.4,0.1-0.8,0.1-1.2h0.2c-0.1,0.4-0.1,0.8-0.1,1.2H166.7z M178.6,385.6c-0.1,0-0.3,0.1-0.5,0.1l-0.1-0.2
							c0.2-0.1,0.4-0.1,0.6-0.1c0.2,0,0.5,0,0.7,0v0.2C179.1,385.6,178.8,385.6,178.6,385.6z M173.1,386.4c0-0.6,0.1-1,0.1-1.3h0.2
							c0,0.3-0.1,0.7-0.1,1.2L173.1,386.4z M197.1,381.7l0.1-0.1c0.3,0.3,0.6,0.6,0.8,0.9l-0.1,0.1
							C197.6,382.2,197.4,381.9,197.1,381.7z M190.9,383.2c0.1-0.4,0.4-0.8,0.6-1.1l0.1,0.1c-0.3,0.4-0.5,0.6-0.6,1.1L190.9,383.2z
							 M174.2,385c0-0.4,0.1-0.8,0.1-1.3h0.2c0,0.4-0.1,0.8-0.1,1.3H174.2z M167,385.9c0.1-0.4,0.1-0.8,0.2-1.2h0.2
							c-0.1,0.4-0.1,0.8-0.2,1.2H167z M194.9,380.8v-0.2c0.4,0,0.8,0.1,1.3,0.3l-0.1,0.2C195.7,380.9,195.3,380.9,194.9,380.8z
							 M192.5,381.2c0.4-0.2,0.8-0.4,1.2-0.5l0.1,0.2c-0.4,0.1-0.8,0.3-1.1,0.5L192.5,381.2z M173.4,383.9c0.1-0.4,0.1-0.8,0.1-1.2
							h0.2c-0.1,0.4-0.1,0.8-0.1,1.3L173.4,383.9z M174.4,382.5c0.1-0.4,0.1-0.8,0.1-1.3h0.2c-0.1,0.4-0.1,0.8-0.1,1.2L174.4,382.5z
							 M167.5,383.5c0.1-0.4,0.1-0.8,0.2-1.2l0.2,0.1c-0.1,0.4-0.1,0.8-0.2,1.2L167.5,383.5z M173.6,381.4c0.1-0.4,0.1-0.8,0.1-1.3
							h0.2c0,0.4-0.1,0.8-0.1,1.3H173.6z M167.9,381c0.1-0.4,0.1-0.8,0.2-1.2l0.2,0.1c-0.1,0.4-0.1,0.8-0.2,1.2L167.9,381z
							 M174.7,380c0.1-0.4,0.1-0.8,0.2-1.2h0.2c-0.1,0.4-0.1,0.8-0.2,1.2H174.7z M173.9,379c0-0.4,0.1-0.8,0.1-1.3h0.2
							c0,0.4-0.1,0.8-0.1,1.3H173.9z M168.4,378.6c0.1-0.4,0.2-0.8,0.3-1.2l0.2,0.1c-0.1,0.4-0.2,0.8-0.3,1.2L168.4,378.6z
							 M175,377.6c0.1-0.4,0.1-0.8,0.2-1.2l0.2,0.1c-0.1,0.4-0.1,0.8-0.2,1.2L175,377.6z M174,376.5c0-0.4,0-0.8,0-1.3h0.2
							c0,0.4,0,0.8,0,1.3H174z M168.9,376.2c0.1-0.4,0.2-0.8,0.3-1.2l0.2,0.1c-0.1,0.4-0.2,0.8-0.3,1.2L168.9,376.2z M175.5,375.1
							c0.1-0.4,0.1-0.8,0.2-1.2l0.2,0.1c-0.1,0.4-0.1,0.8-0.2,1.2L175.5,375.1z M174,374c0-0.4,0-0.8,0-1.3h0.2c0,0.4,0,0.8,0,1.3
							H174z M169.6,373.8c0.1-0.4,0.2-0.8,0.4-1.2l0.2,0.1c-0.1,0.4-0.2,0.8-0.4,1.2L169.6,373.8z M176,372.7
							c0.1-0.4,0.1-0.8,0.3-1.2l0.2,0.1c-0.1,0.4-0.1,0.8-0.3,1.2L176,372.7z M174,371.5c0-0.4,0-0.8-0.1-1.3h0.2
							c0,0.4,0.1,0.8,0.1,1.3H174z M170.3,371.5c0.1-0.4,0.3-0.8,0.4-1.2l0.2,0.1c-0.1,0.4-0.3,0.8-0.4,1.2L170.3,371.5z
							 M176.5,370.3c0.1-0.4,0.2-0.8,0.3-1.2l0.2,0.1c-0.1,0.4-0.2,0.8-0.3,1.2L176.5,370.3z M173.9,369.1c0-0.4-0.1-0.8-0.1-1.2
							h0.2c0.1,0.4,0.1,0.8,0.1,1.3L173.9,369.1z M171.2,369.1c0.1-0.4,0.4-0.8,0.5-1.1l0.2,0.1c-0.1,0.4-0.4,0.8-0.5,1.1
							L171.2,369.1z M177.1,367.9c0.1-0.4,0.3-0.8,0.4-1.2l0.2,0.1c-0.1,0.4-0.3,0.8-0.4,1.1H177.1z M182.5,366.9
							c0.3-0.2,0.6-0.6,0.6-1l0.2,0.1c-0.1,0.4-0.4,0.8-0.7,1.1L182.5,366.9z M172.2,366.8c0.2-0.3,0.6-0.4,0.9-0.4
							c0.1,0,0.3,0.1,0.4,0.1l-0.1,0.1c-0.1-0.1-0.2-0.1-0.3-0.1c-0.3-0.1-0.5,0.1-0.7,0.3L172.2,366.8z M178,365.5
							c0.2-0.4,0.5-0.7,0.8-1l0.1,0.1c-0.3,0.3-0.5,0.6-0.7,1L178,365.5z M182.4,364.1C182.4,364.1,182.4,364.1,182.4,364.1
							c-0.1-0.1-0.2-0.1-0.3-0.1l0.1-0.2c0.1,0,0.1,0.1,0.2,0.1c0,0,0.1,0,0.1,0.1c0.3,0.2,0.5,0.4,0.6,0.7l-0.2,0.1
							C182.9,364.5,182.6,364.3,182.4,364.1z M179.8,363.8c0.4-0.2,0.8-0.3,1.3-0.3v0.2c-0.4,0-0.8,0.1-1.1,0.3L179.8,363.8z"/>
					</g>
					<g>
						<path fill="#B6A999" d="M213.5,405.4c0.1-0.2,0.2-0.4,0.3-0.6v-0.1v-0.1c-0.1-0.1-0.1-0.3-0.3-0.6l-0.2,0.1
							c0.1,0.2,0.2,0.4,0.3,0.5c-0.1,0.1-0.1,0.3-0.2,0.5L213.5,405.4z"/>
					</g>
					<g>
						<path fill="#B6A999" d="M194.2,426.7v-0.2c0.4,0.1,0.8,0,1.2-0.1l0.1,0.2c-0.1,0-0.2,0.1-0.4,0.1
							C194.7,426.7,194.5,426.7,194.2,426.7z M196.4,425.9c0.4-0.2,0.6-0.5,0.8-0.8l0.1,0.1c-0.3,0.4-0.6,0.6-0.9,0.8L196.4,425.9z
							 M192.6,426.2c-0.2-0.1-0.5-0.3-0.7-0.4l0.1-0.1c0.2,0.1,0.4,0.3,0.6,0.4c0.1,0.1,0.3,0.1,0.4,0.1l-0.1,0.2
							C192.8,426.3,192.7,426.2,192.6,426.2z M193.4,424.9v-0.2c0.4,0,0.8-0.1,1.1-0.3l0.1,0.1c-0.3,0.1-0.6,0.3-0.8,0.3
							C193.7,424.9,193.5,424.9,193.4,424.9z M197.8,424.1L197.8,424.1c0.1-0.4,0.3-0.8,0.3-1.1h0.2c-0.1,0.4-0.1,0.8-0.3,1.1v0.1
							L197.8,424.1z M190.6,424c0-0.1,0-0.1,0-0.1v-0.1h0.2v0.1c0,0.1,0,0.1,0,0.1c0.1,0.3,0.2,0.6,0.4,0.8L191,425
							C190.8,424.6,190.7,424.3,190.6,424z M192.3,424.2c0-0.1-0.1-0.1-0.1-0.2c0-0.2,0-0.4,0.1-0.6c0.1-0.1,0.1-0.3,0.1-0.4
							l0.2,0.1c0,0.1-0.1,0.3-0.1,0.4c-0.1,0.1-0.1,0.3-0.1,0.4c0,0.1,0,0.1,0.1,0.1v0.1H192.3C192.3,424.3,192.3,424.3,192.3,424.2
							z M195.3,423.6c0.1-0.2,0.2-0.4,0.3-0.6c0.1-0.1,0.1-0.3,0.1-0.4h0.2c0,0.1-0.1,0.4-0.1,0.5c-0.1,0.3-0.1,0.5-0.3,0.7
							L195.3,423.6z M197.6,420.7l0.1-0.1c0.2,0.4,0.4,0.7,0.5,1.1l-0.2,0.1C198,421.3,197.8,421,197.6,420.7z M190.9,422.5
							L190.9,422.5c0.3-0.4,0.6-0.4,0.8-0.5c0.1,0,0.3,0,0.4,0l-0.1,0.2c-0.1,0-0.2,0-0.4,0c-0.1,0-0.4,0.1-0.6,0.4l0,0L190.9,422.5
							z M194.8,420.3l0.1-0.1c0.3,0.3,0.6,0.6,0.7,1.1l-0.2,0.1C195.3,421,195.1,420.6,194.8,420.3z M197.3,419.5
							c0.1-0.2,0.3-0.4,0.5-0.5c0.2-0.1,0.4-0.1,0.6-0.2l0.1,0.2c-0.2,0.1-0.4,0.1-0.6,0.2c-0.2,0.1-0.4,0.2-0.4,0.4L197.3,419.5z
							 M192.8,419.3v-0.2c0.4,0.1,0.8,0.2,1.2,0.4l-0.1,0.2C193.5,419.5,193.1,419.3,192.8,419.3z M199.5,418.3
							c0.4-0.1,0.7-0.4,1.1-0.6l0.1,0.2c-0.4,0.2-0.7,0.4-1.1,0.6V418.3z M190.4,419.4c0.4-0.1,0.8-0.3,1.2-0.4v0.2
							c-0.4,0.1-0.8,0.1-1.1,0.3L190.4,419.4z M201.6,417.2c0.4-0.2,0.7-0.4,1.1-0.6l0.1,0.1c-0.4,0.2-0.7,0.4-1.1,0.6L201.6,417.2z
							 M203.7,415.9c0.4-0.2,0.6-0.5,1-0.7l0.1,0.1c-0.4,0.2-0.6,0.5-1,0.7L203.7,415.9z M205.6,414.4c0.3-0.3,0.6-0.5,0.9-0.8
							l0.1,0.1c-0.3,0.3-0.6,0.6-0.9,0.8L205.6,414.4z M207.4,412.9c0.3-0.3,0.6-0.6,0.8-0.8l0.1,0.1c-0.3,0.3-0.6,0.6-0.8,0.8
							L207.4,412.9z M209.1,411.1c0.1-0.1,0.1-0.2,0.3-0.3c0.2-0.2,0.4-0.4,0.6-0.6l0.1,0.1c-0.2,0.2-0.4,0.4-0.6,0.6
							c-0.1,0.1-0.1,0.2-0.3,0.3L209.1,411.1z M210.7,409.3c0.3-0.3,0.5-0.6,0.7-1l0.1,0.1c-0.2,0.4-0.5,0.6-0.8,1L210.7,409.3z
							 M212.1,407.3c0.2-0.4,0.5-0.7,0.6-1l0.1,0.1c-0.2,0.4-0.4,0.7-0.6,1L212.1,407.3z"/>
					</g>
					<g>
						<path fill="#B6A999" d="M189,420.7L189,420.7c0.1-0.2,0.3-0.4,0.4-0.5l-0.1-0.1c-0.1,0.1-0.3,0.3-0.4,0.4
							c-0.2,0-0.4-0.1-0.6-0.1v0.2C188.5,420.7,188.7,420.7,189,420.7L189,420.7z"/>
					</g>
					<g>
						<path fill="#B6A999" d="M185.8,420.2l0.1-0.2c0.4,0.1,0.8,0.2,1.2,0.3l-0.1,0.2C186.7,420.4,186.2,420.3,185.8,420.2z
							 M183.4,419.5l0.1-0.2c0.4,0.1,0.8,0.3,1.2,0.4l-0.1,0.2C184.3,419.8,183.8,419.6,183.4,419.5z M181.1,418.6l0.1-0.2
							c0.4,0.1,0.8,0.4,1.1,0.5l-0.1,0.2C181.9,418.9,181.5,418.8,181.1,418.6z M178.8,417.5l0.1-0.2c0.4,0.2,0.7,0.4,1.1,0.6
							l-0.1,0.2C179.6,417.9,179.3,417.7,178.8,417.5z M176.7,416.2l0.1-0.1c0.4,0.2,0.7,0.4,1.1,0.6l-0.1,0.2
							C177.4,416.7,177.1,416.5,176.7,416.2z M174.7,414.8l0.1-0.1c0.4,0.3,0.6,0.5,1,0.7l-0.1,0.1
							C175.3,415.3,175,415.1,174.7,414.8z M172.7,413.2l0.1-0.1c0.3,0.3,0.6,0.6,0.9,0.8l-0.1,0.1
							C173.4,413.7,173.1,413.4,172.7,413.2z M167.6,413l0.2-0.1c0.1,0.4,0.4,0.7,0.6,1.1l-0.2,0.1
							C167.9,413.7,167.7,413.4,167.6,413z M170.9,411.5l0.1-0.1c0.3,0.3,0.6,0.6,0.9,0.8l-0.1,0.1
							C171.5,412.1,171.3,411.8,170.9,411.5z M166.7,410.6l0.2-0.1c0.1,0.4,0.2,0.8,0.4,1.2l-0.2,0.1
							C167,411.5,166.8,411.1,166.7,410.6z M169.2,409.7l0.1-0.1c0.3,0.3,0.6,0.6,0.8,0.9l-0.1,0.1
							C169.8,410.3,169.5,410,169.2,409.7z M166.5,409.4c-0.1-0.3-0.1-0.6-0.1-0.8c0-0.1,0-0.3,0.1-0.4l0.2,0.1
							c-0.1,0.1-0.1,0.2-0.1,0.4c0,0.3,0,0.6,0.1,0.8H166.5z M167.9,408.1c-0.1-0.1-0.2-0.1-0.3-0.2l0.1-0.2
							c0.1,0.1,0.3,0.1,0.4,0.3c0.1,0.2,0.4,0.4,0.5,0.6l-0.1,0.1C168.2,408.5,168.1,408.3,167.9,408.1z"/>
					</g>
					<g>
						<path fill="#B6A999" d="M169.5,415.9l-0.1-0.3c-0.1-0.1-0.2-0.4-0.4-0.5l-0.1,0.1c0.1,0.1,0.1,0.2,0.1,0.3
							c-0.1,0-0.2-0.1-0.3-0.1l-0.1,0.2c0.2,0.1,0.4,0.1,0.6,0.2H169.5z"/>
					</g>
					<g>
						<path fill="#B6A999" d="M166.4,414.9l0.1-0.2c0.4,0.1,0.8,0.2,1.1,0.3l-0.1,0.2C167.1,415.1,166.7,415.1,166.4,414.9z
							 M164.1,414.5v-0.2c0.4,0.1,0.8,0.1,1.1,0.2l-0.1,0.2C164.9,414.6,164.5,414.6,164.1,414.5z M162.7,414.3
							c-0.3-0.1-0.6-0.1-0.9-0.1V414c0.3,0,0.6,0.1,0.9,0.1h0.2v0.2H162.7z M159.5,414.1v-0.2c0.4,0,0.8,0,1.2,0v0.2
							C160.3,414.1,159.9,414.1,159.5,414.1z M157.3,414.4h-0.1v-0.2h0.1c0.4-0.1,0.7-0.1,1.1-0.1v0.2
							C158,414.3,157.7,414.3,157.3,414.4z"/>
					</g>
					<g>
						<path fill="#B6A999" d="M155.4,414.8l0.1-0.1c0.2-0.1,0.4-0.1,0.6-0.1l-0.1-0.2c-0.1,0-0.3,0.1-0.4,0.1c0-0.1,0.1-0.3,0.1-0.4
							l-0.2-0.1c-0.1,0.2-0.1,0.4-0.1,0.6L155.4,414.8z"/>
					</g>
					<g>
						<path fill="#B6A999" d="M123.1,425.3V425c0.2,0,0.4-0.1,0.6-0.1c0.2-0.1,0.4-0.1,0.5-0.2l0.1,0.2c-0.1,0.1-0.4,0.1-0.6,0.2
							c-0.1,0-0.3,0.1-0.4,0.1C123.2,425.3,123.1,425.3,123.1,425.3z M120.6,425l0.1-0.2c0.4,0.1,0.8,0.2,1.2,0.3v0.2
							C121.4,425.2,121,425.1,120.6,425z M125,423.9c0.2-0.4,0.2-0.9,0.1-1.1h0.2c0,0.3,0.1,0.8-0.2,1.3L125,423.9z M118.7,423.4
							l0.1-0.1c0.2,0.4,0.5,0.6,0.8,0.9l-0.1,0.1C119.2,424.1,118.9,423.7,118.7,423.4z M122,423.8l0.1-0.2c0.4,0.1,0.8,0.1,1.1-0.1
							l0.1,0.2c-0.1,0.1-0.4,0.1-0.5,0.1C122.6,423.9,122.3,423.9,122,423.8z M120.5,422.3L120.5,422.3c-0.1-0.1-0.1-0.3-0.1-0.4
							l0.2-0.1c0,0.1,0.1,0.3,0.1,0.4l0,0c0.1,0.2,0.2,0.5,0.4,0.7L121,423C120.8,422.9,120.6,422.6,120.5,422.3z M123.8,422.6
							c0-0.1,0.1-0.3,0.1-0.4c0-0.1,0-0.1,0-0.1c0-0.2-0.1-0.4-0.4-0.5l0.1-0.1c0.2,0.1,0.4,0.4,0.4,0.6c0,0.1,0,0.1,0,0.1
							c0,0.1,0,0.3-0.1,0.4L123.8,422.6z M136.1,420.3v-0.2c0.4-0.1,0.8-0.1,1.2-0.2l0.1,0.2c-0.4,0.1-0.7,0.1-1,0.1
							C136.2,420.3,136.2,420.3,136.1,420.3z M133.6,420.5v-0.2c0.4,0,0.8,0,1.2-0.1v0.2C134.5,420.5,134,420.5,133.6,420.5z
							 M138.5,419.7c0.4-0.1,0.8-0.2,1.2-0.4l0.1,0.2c-0.4,0.1-0.8,0.2-1.2,0.4L138.5,419.7z M123.8,421v-0.2
							c0.4,0.1,0.8,0.3,1.1,0.7l-0.1,0.1C124.5,421.3,124.1,421.1,123.8,421z M131.2,420.4v-0.2c0.4,0.1,0.8,0.1,1.2,0.1v0.2
							C132,420.5,131.6,420.4,131.2,420.4z M140.8,418.9c0.4-0.1,0.8-0.3,1.1-0.5l0.1,0.2c-0.4,0.1-0.8,0.4-1.1,0.5L140.8,418.9z
							 M118.2,422.2c0-0.1-0.1-0.2-0.1-0.4c-0.1-0.3-0.1-0.6,0-0.8h0.2c0,0.3,0,0.6,0,0.8c0,0.1,0.1,0.2,0.1,0.4v0.1L118.2,422.2
							L118.2,422.2z M128.7,419.9l0.1-0.2c0.4,0.1,0.8,0.2,1.2,0.3l-0.1,0.2C129.5,420.1,129.1,420,128.7,419.9z M143,417.9
							c0.4-0.2,0.7-0.4,1.1-0.6l0.1,0.2c-0.4,0.2-0.7,0.4-1.1,0.6V417.9z M120.4,420.6c0.1-0.4,0.2-0.8,0.4-1.2l0.1,0.1
							c-0.2,0.4-0.4,0.7-0.4,1.1L120.4,420.6z M126.4,419.1l0.1-0.2c0.4,0.1,0.8,0.3,1.1,0.4l-0.1,0.2
							C127.2,419.4,126.8,419.3,126.4,419.1z M145.2,416.7c0.4-0.2,0.7-0.4,1.1-0.6l0.1,0.1c-0.4,0.2-0.7,0.5-1.1,0.7L145.2,416.7z
							 M118.4,419.7c0.1-0.4,0.4-0.7,0.7-1.1l0.1,0.1c-0.3,0.3-0.5,0.6-0.7,1L118.4,419.7z M147.3,415.3c0.2-0.1,0.4-0.3,0.6-0.5
							c0.1-0.1,0.2-0.2,0.4-0.3l0.1,0.1c-0.1,0.1-0.2,0.2-0.4,0.3c-0.2,0.1-0.4,0.4-0.6,0.5L147.3,415.3z M125,418.4
							c-0.3-0.1-0.6-0.3-0.8-0.3v-0.2c0.4,0.1,0.6,0.1,0.9,0.4c0.1,0.1,0.1,0.1,0.3,0.1l-0.1,0.2C125.2,418.6,125,418.5,125,418.4z
							 M121.7,418.6c0.4-0.3,0.7-0.4,1.1-0.6l0.1,0.2c-0.4,0.1-0.8,0.3-1.1,0.5L121.7,418.6z M149.2,413.9c0.3-0.3,0.6-0.6,0.9-0.8
							l0.1,0.1c-0.3,0.3-0.6,0.6-0.9,0.8L149.2,413.9z M120.1,417.9c0.3-0.1,0.6-0.3,1-0.4c0.1,0,0.1-0.1,0.1-0.1l0.1,0.2
							c-0.1,0.1-0.1,0.1-0.2,0.1c-0.4,0.1-0.6,0.3-0.9,0.4L120.1,417.9z M155.8,412.8c0.1-0.4,0.1-0.8,0.1-1.2h0.2
							c-0.1,0.4-0.1,0.8-0.1,1.3L155.8,412.8z M151,412.2c0.3-0.3,0.6-0.6,0.8-0.8l0.1,0.1c-0.3,0.3-0.6,0.6-0.9,0.8L151,412.2z
							 M121.2,416.2c-0.2-0.1-0.4-0.3-0.6-0.4l0.1-0.2c0.2,0.1,0.4,0.3,0.6,0.4c0.1,0.1,0.3,0.2,0.4,0.4l-0.2,0.1
							C121.5,416.3,121.4,416.3,121.2,416.2z M156,410.3c0-0.4,0-0.8,0-1.2h0.2c0,0.4,0.1,0.8,0,1.3L156,410.3z M152.8,410.4
							c0.3-0.3,0.6-0.6,0.8-0.9l0.1,0.1c-0.3,0.3-0.6,0.6-0.8,0.9L152.8,410.4z M118.5,414.4l0.1-0.1c0.4,0.2,0.7,0.5,1.1,0.7
							l-0.1,0.1C119.2,414.9,118.9,414.7,118.5,414.4z M154.3,408.6c0.1-0.1,0.1-0.1,0.1-0.2c0.2-0.3,0.6-0.4,1-0.4l0,0l-0.1,0.2
							c-0.3-0.1-0.6,0-0.8,0.3c-0.1,0.1-0.1,0.1-0.1,0.2L154.3,408.6z M116.5,412.9l0.1-0.1c0.3,0.3,0.6,0.5,1,0.8l-0.1,0.1
							C117.2,413.5,116.8,413.2,116.5,412.9z M114.7,411.3l0.1-0.1c0.3,0.3,0.6,0.6,0.9,0.8l-0.1,0.1
							C115.3,411.8,115,411.5,114.7,411.3z M113.1,409.4l0.1-0.1c0.3,0.4,0.5,0.6,0.8,0.9l-0.1,0.1
							C113.6,410.1,113.4,409.7,113.1,409.4z M111.7,407.4l0.1-0.1c0.2,0.4,0.4,0.7,0.7,1.1l-0.1,0.1
							C112.1,408.1,111.9,407.7,111.7,407.4z M110.4,405.2l0.2-0.1c0.2,0.4,0.4,0.7,0.6,1.1l-0.2,0.1
							C110.8,406,110.6,405.6,110.4,405.2z M109.4,403l0.2-0.1c0.1,0.4,0.4,0.8,0.5,1.1l-0.2,0.1C109.7,403.7,109.6,403.4,109.4,403
							z M108.5,400.6l0.2-0.1c0.1,0.4,0.3,0.8,0.4,1.1l-0.2,0.1C108.8,401.5,108.7,401.1,108.5,400.6z"/>
					</g>
				</g>
				<g>
					<path fill="#B6A999" d="M192.5,417.5v-0.2c0.4-0.1,0.8-0.1,1.2-0.2l0.1,0.2c-0.3,0.1-0.6,0.1-0.9,0.1
						C192.7,417.5,192.6,417.5,192.5,417.5z M190.8,417.6c-0.3,0-0.5,0-0.8,0v-0.2c0.3,0,0.5,0,0.8,0c0.1,0,0.3,0,0.4,0v0.2
						C191.2,417.6,190.9,417.6,190.8,417.6z M194.9,416.7c0.4-0.1,0.8-0.2,1.2-0.4l0.1,0.2c-0.4,0.1-0.8,0.3-1.2,0.4L194.9,416.7z
						 M187.6,417.3l0.1-0.2c0.4,0.1,0.8,0.1,1.2,0.1v0.2C188.4,417.5,188,417.4,187.6,417.3z M197.2,415.9c0.4-0.1,0.7-0.4,1.1-0.6
						l0.1,0.2c-0.4,0.2-0.7,0.4-1.1,0.6V415.9z M185.2,416.7l0.1-0.2c0.4,0.1,0.8,0.2,1.2,0.3l-0.1,0.3
						C185.9,417,185.5,416.9,185.2,416.7z M199.3,414.7c0.4-0.2,0.7-0.5,1-0.7l0.1,0.1c-0.4,0.3-0.7,0.5-1,0.7L199.3,414.7z
						 M182.8,416l0.1-0.2c0.4,0.1,0.8,0.3,1.1,0.4l-0.1,0.2C183.6,416.3,183.2,416.1,182.8,416z M201.3,413.2
						c0.3-0.3,0.6-0.6,0.9-0.8l0.1,0.1c-0.3,0.3-0.6,0.6-0.9,0.8L201.3,413.2z M180.5,415l0.1-0.2c0.4,0.1,0.8,0.4,1.1,0.5l-0.1,0.2
						C181.3,415.3,180.9,415.1,180.5,415z M203,411.5c0.1-0.1,0.2-0.3,0.4-0.4c0.1-0.2,0.3-0.4,0.4-0.5l0.1,0.1
						c-0.1,0.1-0.3,0.4-0.4,0.6c-0.1,0.1-0.2,0.3-0.4,0.4L203,411.5z M178.4,413.9l0.1-0.2c0.4,0.2,0.7,0.4,1.1,0.6l-0.1,0.2
						C179.1,414.3,178.7,414.1,178.4,413.9z M204.5,409.6c0.2-0.4,0.5-0.7,0.7-1.1l0.1,0.1c-0.2,0.4-0.4,0.7-0.7,1.1L204.5,409.6z
						 M176.2,412.6l0.1-0.1c0.4,0.2,0.7,0.4,1.1,0.6l-0.1,0.2C176.9,413,176.5,412.8,176.2,412.6z M205.9,407.5
						c0.3-0.5,0.4-0.8,0.6-1.1l0.2,0.1c-0.1,0.2-0.3,0.6-0.6,1.1L205.9,407.5z M174.1,411.3l0.1-0.1c0.4,0.2,0.7,0.5,1.1,0.7
						l-0.1,0.1C174.8,411.8,174.5,411.5,174.1,411.3z M172.1,409.9l0.1-0.1c0.4,0.3,0.6,0.5,1,0.7l-0.1,0.1
						C172.8,410.3,172.4,410.1,172.1,409.9z M206,404.2l0.2-0.1c0.3,0.6,0.5,0.9,0.6,1.1l-0.2,0.1
						C206.4,405.1,206.3,404.7,206,404.2z M170.2,408.3L170.2,408.3l0.1-0.1c0.4,0.3,0.6,0.5,1,0.8l-0.1,0.1
						C170.8,408.8,170.5,408.6,170.2,408.3z M204.7,402.1l0.1-0.1c0.2,0.4,0.5,0.7,0.7,1.1l-0.1,0.1
						C205.1,402.8,204.9,402.5,204.7,402.1z M168.7,406.3l0.2-0.1c0.1,0.4,0.2,0.7,0.5,1.1l-0.1,0.1
						C169,407,168.8,406.6,168.7,406.3z M203.2,400.1l0.1-0.1c0.3,0.3,0.5,0.6,0.8,1l-0.1,0.1C203.7,400.8,203.5,400.5,203.2,400.1z
						 M168.9,405c0.1-0.4,0.4-0.7,0.8-1l0.1,0.1c-0.4,0.3-0.6,0.6-0.8,0.8H168.9z M201.5,398.4l0.1-0.1c0.3,0.3,0.6,0.6,0.8,0.8
						l-0.1,0.1C202.1,399,201.8,398.7,201.5,398.4z M170.8,403.5c0.4-0.1,0.7-0.3,1.1-0.4l0.1,0.2c-0.4,0.2-0.8,0.4-1.1,0.5
						L170.8,403.5z M173.1,402.5c0.4-0.1,0.7-0.4,1.1-0.6l0.1,0.2c-0.4,0.2-0.8,0.4-1.1,0.6V402.5z M175.3,401.3
						c0.4-0.2,0.7-0.4,1.1-0.6l0.1,0.2c-0.4,0.2-0.7,0.4-1.1,0.6L175.3,401.3z M199.6,396.8l0.1-0.1c0.4,0.2,0.6,0.5,1,0.8l-0.1,0.1
						C200.2,397.3,199.9,397.1,199.6,396.8z M177.4,400.1l1.1-0.6l0.1,0.2l-1.1,0.6L177.4,400.1z M179.5,398.8
						c0.4-0.2,0.7-0.4,1.1-0.6l0.1,0.1c-0.4,0.2-0.7,0.4-1.1,0.6L179.5,398.8z M197.6,395.5l0.1-0.2c0.4,0.2,0.7,0.4,1.1,0.6
						l-0.1,0.1C198.3,395.9,197.9,395.7,197.6,395.5z M181.6,397.5c0.3-0.1,0.6-0.4,0.8-0.5l0.2-0.1l0.1,0.1l-0.2,0.1
						c-0.3,0.1-0.6,0.4-0.8,0.5L181.6,397.5z M195.3,394.5l0.1-0.2c0.4,0.1,0.8,0.3,1.1,0.5l-0.1,0.2
						C196.1,394.8,195.7,394.6,195.3,394.5z M183.7,396.1c0.4-0.2,0.7-0.4,1.1-0.6l0.1,0.2c-0.4,0.2-0.7,0.4-1.1,0.6L183.7,396.1z
						 M192.9,393.8l0.1-0.2c0.4,0.1,0.8,0.1,1.2,0.3l-0.1,0.2C193.8,394,193.3,393.9,192.9,393.8z M185.8,394.9
						c0.4-0.2,0.8-0.4,1.1-0.6l0.1,0.2c-0.4,0.1-0.7,0.4-1.1,0.6L185.8,394.9z M190.9,393.6c-0.1,0-0.3,0-0.4,0v-0.2
						c0.1,0,0.3,0,0.4,0c0.3,0,0.6,0.1,0.8,0.1v0.2C191.4,393.6,191.2,393.6,190.9,393.6z M188.1,393.9c0.4-0.1,0.8-0.3,1.2-0.4
						l0.1,0.2c-0.4,0.1-0.8,0.2-1.2,0.4L188.1,393.9z"/>
				</g>
				<g>
					<path fill="#B6A999" d="M134.4,416.9v-0.2c0.3,0,0.5-0.1,0.8-0.1c0.1,0,0.3-0.1,0.4-0.1v0.2c-0.1,0-0.3,0.1-0.4,0.1
						C135,416.8,134.7,416.9,134.4,416.9z M136.8,416.3c0.4-0.1,0.8-0.2,1.2-0.4l0.1,0.2c-0.4,0.1-0.8,0.2-1.2,0.4L136.8,416.3z
						 M131.9,417v-0.2c0.4,0,0.8,0,1.2,0v0.2C132.8,417,132.4,417,131.9,417z M139.2,415.6c0.4-0.1,0.8-0.4,1.1-0.5l0.1,0.2
						c-0.4,0.2-0.8,0.4-1.1,0.5L139.2,415.6z M129.5,416.7L129.5,416.7v-0.2l0,0c0.4,0.1,0.8,0.1,1.2,0.1v0.2
						C130.3,416.9,129.9,416.8,129.5,416.7z M141.4,414.4c0.4-0.2,0.6-0.4,1.1-0.6l0.1,0.2c-0.4,0.2-0.7,0.4-1.1,0.6L141.4,414.4z
						 M127.1,416.2l0.1-0.2c0.4,0.1,0.8,0.2,1.2,0.4l-0.1,0.2C127.9,416.5,127.4,416.3,127.1,416.2z M143.5,413.2
						c0.4-0.2,0.7-0.4,1.1-0.6l0.1,0.2c-0.4,0.1-0.7,0.4-1.1,0.6L143.5,413.2z M124.8,415.3l0.1-0.2c0.4,0.1,0.8,0.4,1.1,0.5
						l-0.1,0.2C125.5,415.6,125.1,415.5,124.8,415.3z M145.7,412.2c0.4-0.1,0.8-0.2,1.1-0.4l0.1,0.2c-0.4,0.1-0.8,0.3-1.2,0.4
						L145.7,412.2z M147.9,411.2c0.3-0.3,0.6-0.6,0.7-0.9l0.2,0.1c-0.2,0.4-0.4,0.7-0.8,1L147.9,411.2z M122.6,414.1l0.1-0.1
						c0.4,0.2,0.7,0.4,1.1,0.6l-0.1,0.2C123.3,414.6,122.9,414.4,122.6,414.1z M120.5,412.7l0.1-0.1c0.4,0.3,0.6,0.5,1,0.7l-0.1,0.1
						C121.2,413.2,120.8,413,120.5,412.7z M148.9,409.1c0-0.2,0-0.4,0-0.6c0-0.2-0.1-0.4-0.1-0.6l0.2-0.1c0.1,0.2,0.1,0.4,0.1,0.6
						c0,0.2,0.1,0.4,0,0.6L148.9,409.1z M118.7,411.1l0.1-0.1c0.3,0.3,0.6,0.6,0.9,0.8l-0.1,0.1C119.3,411.7,119,411.4,118.7,411.1z
						 M147.2,406.1l0.1-0.1c0.4,0.2,0.7,0.5,0.9,0.8l-0.1,0.1C147.9,406.6,147.5,406.3,147.2,406.1z M117.1,409.2l0.1-0.1
						c0.2,0.4,0.5,0.6,0.8,0.9l-0.1,0.1C117.6,409.9,117.3,409.6,117.1,409.2z M145.1,404.9l0.1-0.1c0.4,0.2,0.7,0.5,1.1,0.6
						l-0.1,0.2C145.8,405.4,145.4,405.1,145.1,404.9z M115.7,407.2l0.2-0.1c0.2,0.4,0.4,0.7,0.6,1.1l-0.1,0.1
						C116.1,407.9,115.9,407.5,115.7,407.2z M143.1,403.4l0.1-0.1c0.4,0.3,0.6,0.6,1,0.8l-0.1,0.1
						C143.8,403.9,143.5,403.7,143.1,403.4z M141.3,401.8l0.1-0.1c0.3,0.3,0.6,0.6,0.9,0.8l-0.1,0.1
						C141.9,402.3,141.6,402,141.3,401.8z M114.6,404.9l0.2-0.1c0.1,0.4,0.4,0.8,0.5,1.1l-0.2,0.1
						C114.9,405.7,114.8,405.4,114.6,404.9z M139.5,400.1l0.1-0.1c0.3,0.3,0.6,0.6,0.9,0.8l-0.1,0.1
						C140,400.7,139.7,400.4,139.5,400.1z M113.8,402.6l0.2-0.1c0.1,0.4,0.2,0.8,0.4,1.2l-0.2,0.1C114,403.4,113.9,403,113.8,402.6z
						 M137.6,398.5l0.1-0.1c0.3,0.2,0.6,0.5,1,0.8l-0.1,0.1C138.2,399,137.8,398.8,137.6,398.5z M113.7,401.3
						c0.1-0.2,0.3-0.4,0.5-0.4c0.2-0.1,0.4-0.1,0.6-0.3l0.1,0.2c-0.2,0.1-0.4,0.2-0.6,0.3c-0.1,0.1-0.3,0.2-0.4,0.4L113.7,401.3z
						 M135.6,397.1l0.1-0.1c0.4,0.2,0.6,0.5,1,0.7l-0.1,0.1C136.2,397.5,135.9,397.3,135.6,397.1z M115.9,400.1
						c0.4-0.2,0.7-0.4,1.1-0.6l0.1,0.1c-0.4,0.2-0.7,0.4-1.1,0.6L115.9,400.1z M117.9,398.8c0.4-0.2,0.7-0.5,1-0.7l0.1,0.1
						c-0.4,0.2-0.7,0.5-1,0.7L117.9,398.8z M133.5,395.8l0.1-0.2c0.4,0.2,0.7,0.4,1.1,0.6l-0.1,0.1
						C134.2,396.2,133.8,396,133.5,395.8z M120,397.3c0.4-0.2,0.7-0.5,1-0.7l0.1,0.1c-0.4,0.2-0.6,0.5-1,0.7L120,397.3z
						 M131.3,394.8l0.1-0.2c0.4,0.1,0.8,0.3,1.1,0.5l-0.1,0.2C132,395.1,131.7,394.9,131.3,394.8z M121.9,395.9
						c0.4-0.3,0.7-0.5,1.1-0.6l0.1,0.2c-0.4,0.2-0.6,0.4-1.1,0.6L121.9,395.9z M128.9,394.2V394c0.4,0.1,0.8,0.1,1.2,0.3l-0.1,0.2
						C129.7,394.3,129.3,394.2,128.9,394.2z M124.1,394.7c0.4-0.2,0.8-0.4,1.1-0.5l0.1,0.2c-0.4,0.1-0.7,0.3-1.1,0.5L124.1,394.7z
						 M127.4,394c-0.3,0-0.6,0-0.9,0.1v-0.2c0.3-0.1,0.6-0.1,0.9-0.1c0.1,0,0.2,0,0.3,0v0.2C127.6,394,127.5,394,127.4,394z"/>
				</g>
				<path fill="none" stroke="#000000" stroke-miterlimit="10" d="M188.9,422.9"/>
				<path opacity="0.2" fill="#3A332C" enable-background="new    " d="M127.4,429.6l2.3,3.6l-1.3,13.5l5.1,4.2h48
					c0.4-3.8,1.6-9.8,4.6-17.9c3.9-1.1,4.1-4.9,4.1-4.9s-59.8-0.8-66.7-3.3C122.9,428.2,127.4,429.6,127.4,429.6z"/>
				<path fill="#382F2B" d="M126.7,427.8c1.5,7.1,0.8,18.2,0.4,23.1H180c0.5-3.7,1.8-9.8,5.2-19.3c5.6-0.7,8.1-7.5-1.6-6.8
					c-20.9-0.1-32.4-1.4-55.9-5.3C123,419.4,121.2,425.9,126.7,427.8z"/>
				<path fill="#E3E2D5" d="M131.2,450.9H176c1.1-4.3,3.6-13.6,6.5-21c-17.7-1.1-32.6-4.1-42-6.7c-7.7-6.6-15.8,3.2-8.9,11.4
					C131.7,438,131.7,449.3,131.2,450.9z"/>
				<path fill="#382F2B" d="M162.3,447.6c0,0-0.6,1.4-1.3,3.4h6.2c-0.4-1.3-1.1-2.7-2.3-4.1c1.1-2.7,1.9-4.8,4.3-8.2
					c0.2-2.8-6.2-0.6-14.8-3.1c-12-3.7-15.1-6.8-15.1-6.8s0.1-1.4,2.3-2.5c-6.1-0.8-6,5.7-6,5.7l27.6,9L162.3,447.6z"/>
				<path fill="#E3E2D5" d="M164.6,450.9c-0.4-1.3-1.1-2.5-2.3-3.4c0.7-4.7,3.4-8,3.4-8c-0.6-0.4-15.8-0.4-27.9-10.6
					c-2,3.1-3.2,12.7,1.1,22.1L164.6,450.9L164.6,450.9z"/>
				<path opacity="0.1" fill="#382F2B" enable-background="new    " d="M162.8,450.9h2.4c-0.6-1.6-1.5-3-2.4-3.5
					c0.6-2.5,3-7.9,3-7.9s-3.4,3.2-5,7.5C161.6,447.8,162.4,449.2,162.8,450.9z"/>
				<path opacity="0.5" fill="#FFFFFF" enable-background="new    " d="M140.6,423.3c-3-2.7-6-2.5-7.9-1.5c-2.3,1.3-3.5,3.9-3.6,6.1
					c0.6-2.3,1.9-4,3.6-5C134.7,421.6,137.5,421.9,140.6,423.3z"/>
				<path opacity="0.1" fill="#382F2B" enable-background="new    " d="M178.8,423.1c-0.6,4.6-5.1,4.9-5.1,4.9s-8,9.8-21.5-0.5
					c-3.5-0.5-4.9-3.2-4.9-3.2S179.5,418.5,178.8,423.1z"/>
				<path fill="#382F2B" d="M172.9,417.2c-9.8-5.9-18.4-2.7-19.8-1.4c-9.2-1.5-10.2,10.5-1,10.6c12.7,8,20.3,1.1,21,0.1
					C181,427.3,180.8,416.9,172.9,417.2z"/>
				<path fill="#E3E2D5" d="M172.4,419.3c-7.7-4.9-18.1-2.1-18.9-1.5c-8.8-1.1-5.7,7.7-0.6,5.8c2.7,3,7.8,4.3,11.1,4.1
					c5.3-0.3,7.4-2.3,8.5-3.7C177.2,425.7,178.5,418.1,172.4,419.3z"/>
				<path fill="#FFFFFF" d="M99.4,450.9c0.9-0.1,1.8-0.1,2.7,0h31l0.4-7c0,0-17.9-1.6-23.7-4.1c-1.4,2.5-3.3,5.8-3.3,5.8
					s-6.5,1.8-10.8,4.6v0.8L99.4,450.9L99.4,450.9z"/>
				<path fill="#FFFFFF" d="M219.4,450.9c-0.4-3-1.3-10.4-1.3-13c-19.3,6.8-33.5,6.2-33.5,6.2c-0.7,2.2-0.9,4.6-0.8,6.8H219.4z"/>
				<polygon opacity="0.5" fill="#3A332C" enable-background="new    " points="133.1,450.9 133.4,443.8 131.4,443.7 131.2,450.9 
									"/>
				<path fill="#C6C9C1" d="M185.3,450.9c-0.1-2,0.1-4.4,0.8-6.8l-1.5,0.1c-0.7,2.1-0.9,4.6-0.8,6.8L185.3,450.9L185.3,450.9z"/>
				<path fill="#C6C9C1" d="M107.3,450.9c-3.9-2.2-7.8-3.1-11.6-0.8c0,0.3,0,0.5,0,0.8H107.3z"/>
				<g>
					<path fill="#C6C9C1" d="M126.5,450.9c-0.4-0.2-0.8-0.4-1.3-0.3c-0.3,0-0.5,0.1-0.6,0.3H126.5z"/>
					<path fill="#C6C9C1" d="M111.4,450.9h5.3c0.1-0.1,0.1-0.3,0.1-0.4c0.1-1.1-0.6-3.6,0.5-4.4c1.5-1.1,4.2-0.1,4.9,1.5
						c0.4,1,0.1,2.1-0.1,3.2h2.1c0.1-0.5,0.1-1,0.3-1.4c0.3-1.8-0.6-3.6-2-4.6c-2.8-2-7.7-1.5-7.7,2.7c0,0.5,0.5,3.4-0.6,3
						c-0.7-0.3-1.3-0.9-1.4-1.6c2.7,0.3,1.6-4.1-0.8-3c-1.1,0.6-1.5,2.1-1.3,3.2C110.8,449.9,111,450.4,111.4,450.9z"/>
				</g>
				<path fill="#C6C9C1" d="M205.4,450.9c1.3-0.9,2.5-2.2,3-3.7c0.4-0.8,0.7-2.3,1.7-2.5c0.6-0.1,1.3,0.1,1.8,0.5s1,0.8,1.2,1.5
					c0.1,0.5-0.1,0.6-0.6,0.8c-1.3,0.4-0.4,2.3,0.8,1.9c3-0.9,1.8-4.3-0.1-5.6c-1.1-0.8-2.4-1.3-3.7-0.9c-1.7,0.4-2.4,1.9-3,3.4
					c-1.1,2.8-4.4,4.6-7.3,4.6c-1.1,0-2.5-0.6-1.9-2c0.1-0.4,0.4-0.8,0.7-1.1c-0.1,0.4-0.1,0.8,0.4,1.1c1,0.8,2.1,0.7,3-0.1
					c0.6-0.6,0.8-1.5,0.4-2.3c-0.9-1.6-3.2-1.8-4.6-0.8c-1.5,1.2-2.6,3.2-1.8,5.1L205.4,450.9L205.4,450.9z"/>
				<path fill="#E3E2D5" d="M107.1,426.2c-3.9,0.8-5.3,4.6-3.2,7.7c3.1,4.5,7.7,1.5,8.1,0.1C112.9,431.2,111,426.9,107.1,426.2z"/>
				<path fill="#FFFFFF" d="M120.3,404.8c8.2,15.5,22.4,3.2,22.4,3.2S134.4,393.6,120.3,404.8z"/>
				<path fill="#382F2B" d="M120.3,404.8c13.1-11.5,22.4,3.2,22.4,3.2S134,390.8,120.3,404.8z"/>
				<g>
					<path fill="none" stroke="#382F2B" stroke-width="1.5" stroke-miterlimit="10" d="M161.5,398.5c0,0,0.1-0.6,0.1-1.5"/>
					<g>
						<path fill="#382F2B" d="M162.2,394l-0.7-0.1c0.1-0.8,0.1-1.8,0.2-2.8l0.7,0.1C162.3,392.1,162.3,393.1,162.2,394z
							 M162.6,388.3l-0.7-0.1c0.1-0.9,0.1-1.8,0.1-2.8h0.7C162.7,386.5,162.6,387.4,162.6,388.3z M162.8,382.7h-0.7
							c0-0.9,0.1-1.8,0.1-2.8h0.7C162.8,380.8,162.8,381.8,162.8,382.7z M162.2,377.1c0-0.9,0-1.9,0-2.8h0.7c0,0.9,0,1.9,0,2.8
							H162.2z M162,371.5c-0.1-1-0.1-1.9-0.1-2.8l0.7-0.1c0.1,0.9,0.1,1.8,0.1,2.8L162,371.5z M161.6,365.8
							c-0.1-0.6-0.1-1.3-0.2-1.9c-0.1-0.3-0.1-0.6-0.1-0.9l0.7-0.1c0.1,0.3,0.1,0.6,0.1,0.9c0.1,0.6,0.1,1.3,0.2,1.9L161.6,365.8z
							 M160.8,360.3c-0.1-0.9-0.4-1.8-0.6-2.7l0.7-0.1c0.2,0.9,0.4,1.8,0.6,2.7L160.8,360.3z M159.6,354.9c-0.3-0.9-0.5-1.8-0.8-2.7
							l0.6-0.2c0.3,0.8,0.6,1.8,0.8,2.7L159.6,354.9z M157.8,349.6c-0.4-1-0.8-1.8-1.2-2.5l0.6-0.4c0.4,0.7,0.8,1.5,1.3,2.6
							L157.8,349.6z"/>
					</g>
				</g>
				<polygon fill="#382F2B" points="212.3,435.5 209.4,440.2 215,436.4 213.1,434 				"/>
				<path opacity="0.1" fill="#382F2B" enable-background="new    " d="M146.1,406.3c-6.5-5-13.1-12.4-18.8-11.6
					c-4.8,0.3-6.8,4.6-12.8,7c7.9-1.4,7.6-6.5,14.7-5.2C134.9,397.5,142.6,405.6,146.1,406.3z"/>
				<path opacity="0.1" fill="#382F2B" enable-background="new    " d="M205.9,405.7c0,0-6.2-9-14.1-9.8c-4.4-0.4-8.2,3-12.7,5.6
					c-5.1,2.9-8.2,2.9-8.2,2.9s2.1-0.7,6.3-3.2c3.7-2.3,9.4-6.4,12.9-6.9C200.7,394.2,205.9,405.7,205.9,405.7z"/>
				<path fill="#382F2B" d="M150.3,375.5l-34.7,5.7l-2.6,11.1l37.2-4.4C149.9,386.4,150.3,375.5,150.3,375.5z"/>
				<path opacity="0.5" fill="#FFFFFF" enable-background="new    " d="M172.4,419.3c-8.9-5.5-18.9-1.5-18.9-1.5s-3.1-0.7-4.9,1.1
					c3-0.8,4.6,0.5,4.6,0.5S160.8,415.3,172.4,419.3z"/>
				<path opacity="0.1" fill="#382F2B" enable-background="new    " d="M176.5,421.7c-1.3,2.3-3.6,0.9-3.6,0.9l-0.4,0.5
					c0,0-5.7,5.3-15.1,3.6c10.6,3.7,15-2.5,15-2.5S175.9,425.4,176.5,421.7z"/>
				<path fill="#382F2B" d="M173.9,421.2c0,0-0.7-1.3-1.8-2c-1-0.8-0.6-2.2,0.6-0.9C173.9,419.8,173.9,421.2,173.9,421.2z"/>
				<path opacity="0.5" fill="#FFFFFF" enable-background="new    " d="M110.9,428.6c0,0-1.3-2-3.8-2.4c-5.1,1.3-4.1,5.3-4.1,5.7
					C107.7,433.1,110.9,428.6,110.9,428.6z"/>
				<path opacity="0.1" fill="#382F2B" enable-background="new    " d="M112.2,431.6c0,0-0.6,1.4-2,2.5c-1.4,1.1-3.8,1.7-5.2,1
					c1.1,1,2.1,1.2,3,1.2c1.9,0,3.3-1.3,3.8-1.8C112.5,433.8,112.2,431.6,112.2,431.6z"/>
				<path fill="#382F2B" d="M217.9,422.5c0.4-1.5,3.1-0.5,1.7,2c-1.3,2.5-4.3,5-4.3,5S217.5,424.1,217.9,422.5z"/>
				<path fill="#382F2B" d="M199,406.2c-13.8-12.2-22.6,1.7-22.6,1.7S185,396.5,199,406.2z"/>
				<path fill="#FFFFFF" d="M176.4,407.9c14,15.3,22.6-1.7,22.6-1.7S185.7,395.9,176.4,407.9z"/>
				<path fill="#382F2B" d="M178.7,374.2l33.4,5.7l-0.5,6.4l-33.4-2C177.9,382.7,178.7,374.2,178.7,374.2z"/>
				<path opacity="0.1" fill="#FFFFFF" enable-background="new    " d="M169.8,345.4h-18.1c-14.3,1.9-25,7.8-24.5,13.6
					c0.6,6.3,13.8,10.1,29.4,8.6c15.7-1.5,27.9-7.7,27.3-14C183.5,349.7,177.9,346.7,169.8,345.4z"/>
			</g>
		</g>
		<g>
			<path fill="#382F2B" d="M141.6,407.4c-2.5-0.1-4.3-2.3-4.1-4.7c0.1-1.3,0.8-2.5,1.8-3.2c-0.8-0.3-1.5-0.5-2.4-0.6
				c-4.2-0.3-7.9,3-8.2,7.2c-0.3,4.2,3,7.9,7.2,8.2c4.2,0.3,7.9-3,8.2-7.2c0-0.1,0-0.1,0-0.1C143.3,407.3,142.5,407.5,141.6,407.4z"
				/>
			<circle fill="#FFFFFF" cx="141.9" cy="403" r="4.4"/>
			<circle fill="#211D1B" cx="138.7" cy="406.8" r="4.1"/>
			<circle fill="#FFFFFF" cx="139.1" cy="405.1" r="1.5"/>
		</g>
		<g>
			<path fill="#382F2B" d="M197.2,408.6c-2.3-0.1-3.9-2.1-3.8-4.3c0.1-1.2,0.7-2.3,1.6-3c-0.7-0.3-1.4-0.4-2.2-0.5
				c-3.9-0.2-7.2,2.7-7.5,6.6c-0.2,3.9,2.7,7.2,6.6,7.5c3.9,0.2,7.2-2.7,7.5-6.6c0-0.1,0-0.1,0-0.1
				C198.7,408.4,198,408.6,197.2,408.6z"/>
			<circle fill="#FFFFFF" cx="197.5" cy="404.5" r="4.1"/>
			<circle fill="#211D1B" cx="194.9" cy="408.2" r="4.3"/>
			<circle fill="#FFFFFF" cx="195.4" cy="406.5" r="1.6"/>
		</g>
	</g>
	<path fill="#382F2B" d="M80.5,399.2c-0.1-15.3,2.4-28.4,4.6-37.1c0.9-5.1,2.8-12.2,4.8-16.7H13.2c-1.4,7.5,1.9,15.2,3.4,18.1
		c-0.4,3-1.4,11.2-0.3,22.6c0.8,8.4,2.5,16.8,5.1,25.1c3,9.6,7.2,19,12.4,27.9c-0.7,1.2-1.1,2.6-1.1,4c0,3.6,2.3,6.6,5.5,7.7h52.6
		c-0.1-0.3-0.1-0.6-0.2-0.8C83.8,434.3,80.5,417.1,80.5,399.2z"/>
	<path fill="#E3E2D5" d="M45.6,450.9h41.6c-20.6-49.9-3.9-96.7-0.4-105.5H16.6c-2,8.2,3.4,17.5,3.4,17.5S11.5,405.4,45.6,450.9z"/>
	<path fill="#382F2B" d="M95.2,331.8c-2.5-2.6-6-4-9.8-4c-4.1,0-8.2,1.7-11.3,4.6c-2.7,2.5-4.5,5.8-5.3,9.5c-0.6,0-1.2,0.1-1.8,0.2
		l0,0l0,0c-0.6,0.1-1.2,0.2-1.8,0.4c-0.6,0.3-1.1,0.6-1.5,0.8c-3.6,1.5-9.1,4.5-11.4,9.8c0.6,0,1.1-0.1,1.5-0.4
		c-0.3,0.1-0.6,0.1-0.8,0.1c0.3-0.1,0.6-0.1,1-0.2c-0.1,0-0.1,0.1-0.1,0.1c11.9-2.4,23.2,4.1,28.8,8.4c2.4,1.9,0.8,2.8,2.6,3.4
		c0,0,14.1-7.5,14.9-19.1c0,0,0,0,0-0.1C99.9,338.1,97.3,334,95.2,331.8z"/>
	<path fill="#E3E2D5" d="M52,353c0,0,9.3-8.9,19.5-7.7c1.1-17.2,25.2-20.5,25,0c-0.2,8.4-14.9,16.9-14.9,16.9L52,353z"/>
	<circle fill="#E3E2D5" cx="41.8" cy="443.4" r="4.7"/>
	<path opacity="0.1" fill="#382F2B" enable-background="new    " d="M37.3,345.4c5.3,4-0.3,10.4-0.3,10.4s-20.1,35.9,3.7,83.3
		c-2.5,2-3.2,6.9,1.1,9c-1.5,0-2.7-0.6-3.4-1.4c-1-1.1-1.3-2.5-1.3-3.7c0.1-1.5,1.1-2.6,1.3-2.8c-0.3-0.4-24.4-36-18.2-77.2
		c-5.6-10.2-3.4-17.5-3.4-17.5S31.7,345.4,37.3,345.4z"/>
	<path opacity="0.5" fill="#FFFFFF" enable-background="new    " d="M89,331.7c-12.2,2.9-14.7,15.8-14.7,15.8s-11,0.4-21.7,4.4
		c12.4-9.5,18.9-6.6,18.9-6.6S73.1,328.9,89,331.7z"/>
	<path opacity="0.1" fill="#382F2B" enable-background="new    " d="M87.1,450.9c-2-4.6-17.7-43-5.6-88.7
		c-21.5,35.2-4.9,84.1-3.3,88.8L87.1,450.9L87.1,450.9z"/>
	<path opacity="0.1" fill="#382F2B" enable-background="new    " d="M298.5,442.1c7.4,3.8,4.6,15.1,4.6,15.1s-3,0.4-7.2-2.1
		c-10.3,12.4-17.9,3.6-18.2,2.5c3-2.7,5.6-6.7,5.6-6.7s8.7,7.9,13.4-0.4C297.8,449.4,297,446.2,298.5,442.1z"/>
	<path opacity="0.1" fill="#382F2B" enable-background="new    " d="M256.6,447.5c-4.4,0.5-7,2.8-7,2.8s-10.9,0.3-15-4.1
		c-2.8,3.4-2.9,4.8-2.9,4.8h24.8C256.4,450.9,256.9,448.1,256.6,447.5z"/>
	<path opacity="0.5" fill="#FFFFFF" enable-background="new    " d="M251.8,446.8c7.3-9.4,13.7-11.4,18.8-11.5
		c7.5-0.1,12,5.1,12.3,6.1C280.7,439.7,269.9,430,251.8,446.8z"/>
	<path opacity="0.5" fill="#FFFFFF" enable-background="new    " d="M285.5,440.2c0,0,2.8-1.3,5.6-1c2.8,0.4,5.6,2.5,5.6,9.8
		c-1.5-12.5-10.8-7-10.8-7L285.5,440.2z"/>
	<path opacity="0.5" fill="#FFFFFF" enable-background="new    " d="M298.5,442.1c4.6-1.9,7.8-1,9.4,0.9c3.7,4.3,1.4,9.8,1.4,9.8
		S310.5,440.4,298.5,442.1z"/>
</g>
</svg>
