<?xml version="1.0" encoding="utf-8"?>
<!-- Generator: Adobe Illustrator 17.0.2, SVG Export Plug-In . SVG Version: 6.00 Build 0)  -->
<!DOCTYPE svg PUBLIC "-//W3C//DTD SVG 1.1//EN" "http://www.w3.org/Graphics/SVG/1.1/DTD/svg11.dtd">
<svg version="1.1" id="Capa_1" xmlns="http://www.w3.org/2000/svg" xmlns:xlink="http://www.w3.org/1999/xlink" x="0px" y="0px"
	 width="72px" height="60.47px" viewBox="0 0 72 60.47" enable-background="new 0 0 72 60.47" xml:space="preserve">
<g>
	<polygon fill="#544842" points="70.739,43.441 0.656,58.833 0.656,60.47 70.739,45.078 	"/>
	<g>
		<path fill="#544842" d="M3.764,55.009l-2.711,0.599V35.393l2.735-0.604c0.016-0.004,0.029-0.006,0.037-0.008
			c0.008-0.002,0.02-0.004,0.037-0.008c0.542-0.103,1.039,0.006,1.491,0.327c0.452,0.321,0.678,0.801,0.678,1.44v15.698
			c0,0.589-0.172,1.149-0.518,1.679c-0.345,0.53-0.928,0.887-1.75,1.068V55.009z M4.552,36.374
			c-0.115-0.117-0.246-0.202-0.394-0.254c-0.066-0.019-0.132-0.034-0.197-0.045c-0.066-0.011-0.123-0.011-0.173,0l-1.429,0.316
			v17.667l1.38-0.305c0.296-0.065,0.526-0.208,0.69-0.43c0.164-0.221,0.263-0.445,0.296-0.671c0-0.017,0-0.038,0-0.063
			c0-0.025,0-0.046,0-0.063V36.802C4.725,36.634,4.667,36.491,4.552,36.374z"/>
		<path fill="#544842" d="M7.657,46.225l-1.208,0.267v-1.262l1.183-0.261V33.939l4.633-1.024v1.287l-3.278,0.724v9.742l3.376-0.746
			v1.262l-3.376,0.746v6.688l3.376-0.746v1.237l-4.707,1.04V46.225z"/>
		<path fill="#544842" d="M12.98,32.758l1.306-0.289v18.979l3.253-0.719v1.237l-4.559,1.007V32.758z"/>
		<path fill="#544842" d="M21.998,30.765l1.306-0.289v18.979l3.253-0.719v1.237l-4.559,1.007V30.765z"/>
		<path fill="#544842" d="M29.885,49.289c-0.69,0.135-1.286,0.061-1.787-0.224c-0.501-0.284-0.752-0.789-0.752-1.512V29.583
			l1.306-0.289v17.969c0,0.286,0.107,0.498,0.32,0.636c0.213,0.138,0.452,0.195,0.715,0.17c0.033,0.01,0.062,0.012,0.086,0.006
			c0.025-0.005,0.053-0.012,0.086-0.019c0.016-0.004,0.029-0.006,0.037-0.008c0.008-0.002,0.02-0.004,0.037-0.008
			c0.296-0.082,0.567-0.243,0.813-0.483c0.246-0.239,0.37-0.511,0.37-0.814V28.75l1.306-0.289v17.995
			c0,0.539-0.189,1.035-0.567,1.488c-0.378,0.454-0.789,0.805-1.232,1.055c-0.132,0.046-0.259,0.095-0.382,0.148
			c-0.123,0.052-0.243,0.091-0.357,0.117V49.289z"/>
		<path fill="#544842" d="M35.429,48.039c-0.625,0.104-1.179,0.067-1.663-0.112c-0.485-0.179-0.727-0.723-0.727-1.631V30.547
			c0-0.74,0.246-1.35,0.739-1.829c0.493-0.479,1.035-0.784,1.626-0.915c0.016-0.004,0.028-0.006,0.037-0.008
			c0.008-0.002,0.02-0.005,0.037-0.008c0.591-0.114,1.134-0.011,1.626,0.309c0.493,0.32,0.739,0.783,0.739,1.389v2.423l-1.232,0.272
			v-2.423c0-0.269-0.119-0.47-0.357-0.602c-0.238-0.132-0.522-0.162-0.85-0.09c-0.362,0.08-0.612,0.203-0.752,0.368
			c-0.14,0.166-0.234,0.329-0.283,0.492c0,0.067-0.004,0.127-0.012,0.179c-0.008,0.052-0.012,0.104-0.012,0.154v15.774
			c0,0.32,0.099,0.542,0.296,0.667c0.197,0.125,0.41,0.179,0.641,0.161c0.033-0.007,0.062-0.014,0.086-0.019
			c0.025-0.005,0.053-0.012,0.086-0.019c0.312-0.069,0.595-0.224,0.85-0.465c0.255-0.241,0.382-0.539,0.382-0.892v-2.347
			l1.281-0.283v2.372c0,0.606-0.251,1.187-0.752,1.743c-0.501,0.557-1.072,0.906-1.713,1.047c-0.017,0.004-0.029,0.006-0.037,0.008
			c-0.008,0.002-0.021,0.005-0.037,0.008V48.039z"/>
		<path fill="#544842" d="M43.339,38.341l-2.464,0.544v7.925l-1.306,0.289v-7.925l-1.01,0.223v-1.262l0.986-0.218V26.889
			l1.355-0.299v11.029l2.415-0.534V26.056l1.331-0.294v20.216l-1.306,0.289V38.341z"/>
		<path fill="#544842" d="M49.007,37.089l-1.405,0.31l-0.912,8.126l-1.306,0.289l0.912-8.126l-1.01,0.223v-1.262l1.183-0.261
			L47.8,25.065l1.134-0.25L51.2,44.529l-1.232,0.272L49.007,37.089z M47.726,36.11l1.134-0.25l-0.518-5.135L47.726,36.11z"/>
		<path fill="#544842" d="M54.526,43.794l-2.711,0.599V24.178l2.735-0.604c0.016-0.004,0.028-0.006,0.037-0.008
			c0.008-0.002,0.02-0.004,0.037-0.008c0.542-0.103,1.039,0.006,1.491,0.327c0.452,0.321,0.678,0.801,0.678,1.44v15.698
			c0,0.589-0.173,1.149-0.518,1.679c-0.345,0.53-0.928,0.887-1.75,1.068V43.794z M55.315,25.158
			c-0.115-0.117-0.246-0.202-0.394-0.254c-0.066-0.019-0.132-0.034-0.197-0.045c-0.066-0.011-0.123-0.011-0.173,0l-1.429,0.316
			v17.667l1.38-0.305c0.296-0.065,0.526-0.208,0.69-0.43c0.164-0.221,0.263-0.445,0.296-0.671c0-0.017,0-0.038,0-0.063
			c0-0.025,0-0.046,0-0.063V25.587C55.487,25.419,55.429,25.276,55.315,25.158z"/>
		<path fill="#544842" d="M59.925,42.576c-0.657,0.128-1.244,0.098-1.762-0.09c-0.518-0.189-0.776-0.737-0.776-1.646V25.117
			c0-0.639,0.255-1.225,0.764-1.759c0.509-0.533,1.109-0.876,1.799-1.028c0.673-0.149,1.253-0.062,1.737,0.26
			c0.484,0.322,0.727,0.794,0.727,1.417v15.748c0,0.892-0.238,1.542-0.715,1.95c-0.477,0.408-1.01,0.678-1.602,0.808
			c-0.017,0.004-0.041,0.009-0.074,0.016c-0.017,0.004-0.033,0.007-0.049,0.011c-0.017,0.004-0.033,0.007-0.049,0.011V42.576z
			 M60.799,23.732c-0.189-0.126-0.399-0.181-0.628-0.164c-0.033-0.009-0.07-0.01-0.111-0.001c-0.041,0.009-0.078,0.017-0.111,0.024
			c-0.033,0.007-0.062,0.014-0.086,0.019c-0.025,0.005-0.053,0.02-0.086,0.044c-0.263,0.092-0.501,0.246-0.715,0.461
			c-0.214,0.216-0.32,0.441-0.32,0.676v15.748c0,0.337,0.107,0.578,0.32,0.724c0.213,0.146,0.501,0.18,0.863,0.1
			c0.361-0.08,0.645-0.239,0.85-0.478c0.205-0.239,0.308-0.518,0.308-0.838V24.3C61.083,24.048,60.988,23.859,60.799,23.732z"/>
		<path fill="#544842" d="M67.784,33.975c0-0.034,0-0.071,0-0.114c0-0.042-0.008-0.086-0.025-0.133
			c-0.033-0.195-0.123-0.355-0.271-0.483c-0.148-0.127-0.362-0.16-0.641-0.098l-1.429,0.316v7.925c0-0.017-0.095-0.004-0.283,0.037
			c-0.189,0.042-0.399,0.088-0.628,0.139c-0.066,0.015-0.132,0.029-0.197,0.044c-0.066,0.015-0.132,0.029-0.197,0.044v-7.925
			l-1.134,0.25V32.74l1.134-0.25V21.461l2.785-0.615c0.608-0.134,1.125-0.034,1.553,0.301c0.427,0.335,0.641,0.814,0.641,1.436v8
			c0,0.269-0.045,0.54-0.136,0.812c-0.09,0.272-0.218,0.519-0.382,0.741c0.164,0.132,0.291,0.314,0.382,0.547
			c0.09,0.232,0.136,0.567,0.136,1.005v4.593c0,0.252,0.07,0.435,0.209,0.547c0.139,0.112,0.291,0.175,0.456,0.19
			c0.131,0.021,0.259,0.023,0.382,0.004c0.123-0.019,0.209-0.034,0.259-0.045c0.016-0.004,0.033-0.007,0.049-0.011v1.363
			c-0.017-0.013-0.037-0.017-0.062-0.012c-0.025,0.005-0.054,0.012-0.086,0.019c-0.625,0.088-1.199,0.063-1.725-0.073
			c-0.526-0.136-0.789-0.7-0.789-1.693V33.975z M67.55,22.266c-0.172-0.147-0.382-0.193-0.628-0.139l-1.528,0.338v9.742l1.429-0.316
			c0.279-0.062,0.513-0.18,0.702-0.357c0.189-0.176,0.283-0.399,0.283-0.668v-8C67.809,22.613,67.722,22.413,67.55,22.266z"/>
	</g>
	<path fill="#544842" d="M8.366,30.275l-7.742,1.711V24.35L0,23.901l0.624-0.735V15.53l7.681-1.697v3.038L3.59,17.913v3.666
		l4.06-0.897v3.048l-4.06,0.897v3.666l4.776-1.055V30.275z"/>
	<path fill="#544842" d="M17.142,28.336l-7.354,1.625v-7.636l-0.614-0.451l0.614-0.733v-7.636l2.976-0.658v7.636l0.624,0.459
		l-0.624,0.724v4.598l4.377-0.967V28.336z"/>
	<g>
		<path fill="#544842" d="M27.839,9.067c1.022-0.226,1.894-0.048,2.616,0.532c0.722,0.58,1.084,1.393,1.084,2.44v1.278
			c0,1.046-0.361,2.019-1.084,2.918c-0.073,0.091-0.146,0.174-0.219,0.25v0.011c0.212,0.095,0.412,0.215,0.602,0.36
			c0.722,0.573,1.084,1.394,1.084,2.462v1.872c0,1.046-0.361,2.019-1.084,2.918c-0.722,0.899-1.594,1.462-2.616,1.688l-6.961,1.538
			c-0.263,0.058-0.394-0.047-0.394-0.316V11.011c0-0.269,0.131-0.433,0.394-0.491L27.839,9.067z M24.807,13.369v2.825
			c0,0.179,0.088,0.25,0.263,0.211l1.762-0.389c0.511-0.113,0.766-0.431,0.766-0.954v-1.793c0-0.523-0.255-0.728-0.766-0.615
			l-1.762,0.389C24.894,13.08,24.807,13.189,24.807,13.369z M24.807,20.094v2.825c0,0.179,0.088,0.25,0.263,0.211l1.872-0.414
			c0.693-0.153,1.04-0.529,1.04-1.126v-1.569c0-0.598-0.292-0.832-0.876-0.703l-2.036,0.45
			C24.894,19.806,24.807,19.915,24.807,20.094z"/>
		<path fill="#544842" d="M34.648,23.267c-0.722-0.58-1.084-1.393-1.084-2.44V8.206c0-0.269,0.113-0.429,0.339-0.478l3.207-0.709
			c0.263-0.058,0.394,0.047,0.394,0.316v12.644c0,0.269,0.131,0.375,0.394,0.316l6.983-1.543c0.263-0.058,0.394,0.047,0.394,0.316
			v2.556c0,0.269-0.131,0.433-0.394,0.491l-7.618,1.683C36.242,24.024,35.37,23.847,34.648,23.267z"/>
		<path fill="#544842" d="M57.326,15.578c0,1.046-0.361,2.019-1.084,2.918c-0.722,0.899-1.594,1.462-2.616,1.688l-3.393,0.75
			c-1.022,0.226-1.894,0.048-2.616-0.532c-0.722-0.58-1.084-1.393-1.084-2.44V8.725c0-1.046,0.361-2.019,1.084-2.918
			c0.722-0.899,1.594-1.462,2.616-1.688l3.393-0.75c1.022-0.226,1.894-0.048,2.616,0.532c0.722,0.58,1.084,1.393,1.084,2.44V15.578z
			 M50.474,16.508c0,0.673,0.328,0.936,0.985,0.791l0.941-0.208c0.657-0.145,0.985-0.554,0.985-1.226V7.794
			c0-0.673-0.328-0.936-0.985-0.791l-0.941,0.208c-0.657,0.145-0.985,0.554-0.985,1.226V16.508z"/>
		<path fill="#544842" d="M62.667,18.186c-1.022,0.226-1.894,0.048-2.616-0.532c-0.722-0.58-1.084-1.393-1.084-2.44V5.978
			c0-1.046,0.361-2.019,1.084-2.918c0.722-0.899,1.594-1.462,2.616-1.688l6.14-1.357c0.263-0.058,0.394,0.047,0.394,0.316v2.556
			c0,0.269-0.131,0.433-0.394,0.491l-5.637,1.245c-0.175,0.039-0.263,0.148-0.263,0.327v9.55c0,0.179,0.088,0.25,0.263,0.211
			l2.309-0.51c0.219-0.048,0.328-0.162,0.328-0.342V8.48c0-0.269,0.131-0.433,0.394-0.491l3.152-0.696
			c0.263-0.058,0.394,0.047,0.394,0.316v8.609c0,0.269-0.131,0.433-0.394,0.491L62.667,18.186z"/>
	</g>
	<g>
		<path fill="#B6A999" d="M50.668,21.851c0.338,0.225,0.669,0.445,0.993,0.661c0.1,0,0.202-0.004,0.305-0.013
			c-0.344-0.229-0.695-0.463-1.054-0.702L50.668,21.851z"/>
		<path fill="#B6A999" d="M49.99,21.98c0.3,0.217,0.625,0.367,0.975,0.452c-0.241-0.16-0.486-0.323-0.734-0.489
			C50.15,21.957,50.07,21.97,49.99,21.98z"/>
		<path fill="#B6A999" d="M51.344,21.702c0.371,0.247,0.736,0.49,1.091,0.726c0.016-0.003,0.032-0.006,0.049-0.01l0.196-0.043
			c-0.356-0.237-0.72-0.48-1.092-0.727L51.344,21.702z"/>
		<path fill="#B6A999" d="M71.453,1.817C71.453,1.817,71.453,1.817,71.453,1.817c-0.15-0.101-0.301-0.202-0.452-0.304l-0.243,0.054
			c0.233,0.156,0.464,0.312,0.695,0.466V1.817z"/>
		<path fill="#B6A999" d="M71.453,2.421c-0.374-0.251-0.75-0.503-1.129-0.757l-0.243,0.054c0.462,0.31,0.919,0.616,1.372,0.92V2.421
			z"/>
		<path fill="#B6A999" d="M71.611,8.777c0.129,0.086,0.258,0.173,0.387,0.259C71.979,8.812,71.85,8.726,71.611,8.777z"/>
		<path fill="#B6A999" d="M71.177,8.873l-0.243,0.054c0.359,0.24,0.714,0.478,1.066,0.714V9.424
			C71.728,9.242,71.453,9.058,71.177,8.873z"/>
		<path fill="#B6A999" d="M70.739,9.183V9.4c0.425,0.285,0.845,0.566,1.261,0.844v-0.217C71.585,9.749,71.164,9.467,70.739,9.183z"
			/>
		<path fill="#B6A999" d="M62.881,19.153c-0.014,0.003-0.028,0.006-0.042,0.009c0.293,0.196,0.584,0.389,0.869,0.58
			c0.117,0.015,0.238,0.023,0.36,0.024c-0.323-0.215-0.651-0.434-0.985-0.657L62.881,19.153z"/>
		<path fill="#B6A999" d="M38.495,8.909c0.425,0.284,0.846,0.566,1.261,0.844V9.536c-0.414-0.277-0.833-0.558-1.257-0.841
			l-0.004,0.001V8.909z"/>
		<path fill="#B6A999" d="M38.495,9.511c0.425,0.284,0.845,0.566,1.261,0.844v-0.217c-0.415-0.278-0.836-0.559-1.261-0.844V9.511z"
			/>
		<path fill="#B6A999" d="M39.755,8.933c-0.192-0.129-0.385-0.258-0.58-0.388l-0.243,0.054c0.276,0.185,0.551,0.369,0.823,0.551
			V8.933z"/>
		<g>
			<path fill="#B6A999" d="M32.529,12.748c0.015,0.01,0.03,0.02,0.045,0.03v-0.217c-0.015-0.01-0.03-0.02-0.045-0.03V12.748z"/>
			<path fill="#B6A999" d="M32.529,12.038v0.108c0.015,0.01,0.03,0.02,0.045,0.03V11.96c-0.016-0.01-0.031-0.021-0.047-0.031
				C32.528,11.965,32.529,12.002,32.529,12.038z"/>
			<path fill="#B6A999" d="M32.529,13.316c0,0.011-0.001,0.023-0.001,0.034c0.015,0.01,0.031,0.021,0.046,0.031v-0.217
				c-0.015-0.01-0.03-0.02-0.045-0.03V13.316z"/>
			<path fill="#B6A999" d="M32.574,16.773c-0.289-0.193-0.581-0.388-0.876-0.585c-0.013,0.022-0.026,0.044-0.04,0.066
				c0.12,0.109,0.231,0.226,0.334,0.347c0.196,0.131,0.39,0.26,0.582,0.389V16.773z"/>
			<path fill="#B6A999" d="M32.503,11.527c0.024,0.016,0.047,0.032,0.071,0.047v-0.217c-0.034-0.022-0.067-0.045-0.1-0.067
				C32.485,11.368,32.495,11.447,32.503,11.527z"/>
			<path fill="#B6A999" d="M32.264,14.979c0.104,0.069,0.207,0.139,0.31,0.207v-0.217c-0.084-0.056-0.17-0.113-0.255-0.17
				C32.302,14.859,32.283,14.919,32.264,14.979z"/>
			<path fill="#B6A999" d="M32.494,13.929c0.027,0.018,0.054,0.036,0.08,0.054v-0.217c-0.02-0.013-0.041-0.027-0.061-0.041
				C32.508,13.793,32.501,13.861,32.494,13.929z"/>
			<path fill="#B6A999" d="M32.404,14.47c0.057,0.038,0.114,0.076,0.17,0.114v-0.217c-0.044-0.029-0.088-0.059-0.132-0.088
				C32.43,14.344,32.418,14.407,32.404,14.47z"/>
			<path fill="#B6A999" d="M32.93,22.624c-0.041-0.093-0.078-0.188-0.112-0.285c-0.009-0.006-0.018-0.012-0.027-0.018
				c-0.014,0.063-0.028,0.125-0.044,0.187c0.062,0.042,0.125,0.083,0.187,0.124C32.933,22.629,32.931,22.627,32.93,22.624z"/>
			<path fill="#B6A999" d="M26.608,13.991c-0.103-0.069-0.206-0.137-0.309-0.206l-0.244,0.054c0.185,0.124,0.369,0.247,0.552,0.369
				V13.991z"/>
			<path fill="#B6A999" d="M26.446,15.086c-0.215-0.143-0.431-0.288-0.649-0.434v0.217c0.136,0.091,0.271,0.181,0.405,0.271
				L26.446,15.086z"/>
			<path fill="#B6A999" d="M26.608,14.592c-0.268-0.179-0.538-0.359-0.81-0.542v0.217c0.273,0.182,0.543,0.363,0.81,0.542V14.592z"
				/>
			<path fill="#B6A999" d="M32.081,15.458c0.165,0.11,0.33,0.22,0.493,0.329v-0.217c-0.14-0.094-0.281-0.188-0.423-0.282
				C32.129,15.345,32.105,15.402,32.081,15.458z"/>
			<path fill="#B6A999" d="M26.86,20.386c0.044,0.029,0.087,0.058,0.13,0.087v-0.116L26.86,20.386z"/>
			<path fill="#B6A999" d="M25.797,21.26v0.216c0.182,0.121,0.361,0.241,0.539,0.359l0.244-0.054
				C26.323,21.611,26.062,21.437,25.797,21.26z"/>
			<path fill="#B6A999" d="M26.991,21.59v-0.134c-0.389-0.259-0.787-0.524-1.194-0.795v0.216c0.401,0.267,0.794,0.529,1.178,0.784
				c0.004-0.003,0.008-0.005,0.011-0.007C26.988,21.643,26.991,21.623,26.991,21.59z"/>
			<path fill="#B6A999" d="M26.428,20.481l-0.244,0.054c0.273,0.182,0.542,0.361,0.806,0.537v-0.216
				C26.805,20.732,26.617,20.607,26.428,20.481z"/>
			<path fill="#B6A999" d="M25.797,21.86v0.095l0.107-0.024C25.869,21.908,25.833,21.884,25.797,21.86z"/>
			<path fill="#B6A999" d="M39.755,14.57v-0.217c-0.414-0.277-0.835-0.558-1.261-0.843v0.217
				C38.921,14.012,39.342,14.294,39.755,14.57z"/>
			<path fill="#B6A999" d="M39.755,13.968v-0.217c-0.414-0.277-0.835-0.558-1.261-0.843v0.217
				C38.921,13.411,39.341,13.692,39.755,13.968z"/>
			<path fill="#B6A999" d="M39.755,15.172v-0.217c-0.414-0.276-0.834-0.557-1.261-0.842v0.217
				C38.921,14.614,39.342,14.895,39.755,15.172z"/>
			<path fill="#B6A999" d="M39.755,15.773v-0.217c-0.413-0.276-0.834-0.557-1.261-0.842v0.217
				C38.921,15.216,39.342,15.497,39.755,15.773z"/>
			<path fill="#B6A999" d="M39.755,12.548c-0.415-0.277-0.835-0.558-1.261-0.843v0.217c0.426,0.285,0.846,0.566,1.261,0.843V12.548z
				"/>
			<path fill="#B6A999" d="M39.755,11.946c-0.415-0.277-0.835-0.559-1.261-0.843v0.217c0.425,0.285,0.846,0.566,1.261,0.843V11.946z
				"/>
			<path fill="#B6A999" d="M39.755,16.375v-0.217c-0.413-0.276-0.834-0.557-1.261-0.842v0.217
				C38.922,15.818,39.342,16.099,39.755,16.375z"/>
			<path fill="#B6A999" d="M39.755,13.367V13.15c-0.414-0.277-0.835-0.558-1.261-0.843v0.217
				C38.921,12.808,39.341,13.09,39.755,13.367z"/>
			<path fill="#B6A999" d="M32.574,17.374c-0.039-0.026-0.077-0.051-0.116-0.077c0.035,0.067,0.068,0.135,0.099,0.205
				c0.006,0.013,0.011,0.027,0.017,0.04V17.374z"/>
			<path fill="#B6A999" d="M38.495,19.139c0.004,0.003,0.008,0.006,0.012,0.008l0.244-0.054c-0.085-0.057-0.171-0.114-0.256-0.171
				V19.139z"/>
			<path fill="#B6A999" d="M38.495,18.538c0.232,0.155,0.462,0.308,0.689,0.459l0.244-0.054c-0.306-0.204-0.617-0.412-0.933-0.622
				V18.538z"/>
			<path fill="#B6A999" d="M38.495,10.717c0.425,0.285,0.846,0.566,1.261,0.843v-0.217c-0.415-0.278-0.835-0.559-1.261-0.843V10.717
				z"/>
			<path fill="#B6A999" d="M32.574,16.172c-0.209-0.139-0.419-0.28-0.631-0.421c-0.027,0.054-0.055,0.107-0.084,0.16
				c0.24,0.161,0.479,0.32,0.715,0.477V16.172z"/>
			<path fill="#B6A999" d="M39.755,16.976v-0.216c-0.413-0.276-0.834-0.557-1.261-0.842v0.217
				C38.922,16.419,39.343,16.7,39.755,16.976z"/>
			<path fill="#B6A999" d="M39.755,17.577V17.36c-0.413-0.275-0.833-0.556-1.261-0.842v0.217
				C38.922,17.021,39.343,17.302,39.755,17.577z"/>
			<path fill="#B6A999" d="M39.755,17.961c-0.412-0.275-0.833-0.556-1.261-0.841v0.217c0.427,0.285,0.848,0.566,1.261,0.841V17.961z
				"/>
			<path fill="#B6A999" d="M39.755,18.562c-0.412-0.275-0.833-0.556-1.261-0.841v0.216c0.428,0.285,0.849,0.566,1.261,0.841V18.562z
				"/>
			<path fill="#B6A999" d="M24.993,27.524c0.386,0.256,0.751,0.498,1.097,0.726l0.245-0.054c-0.345-0.228-0.711-0.47-1.097-0.726
				L24.993,27.524z"/>
			<path fill="#B6A999" d="M42.557,23.643c0.375,0.249,0.739,0.492,1.093,0.727l0.244-0.054c-0.354-0.235-0.719-0.478-1.094-0.727
				L42.557,23.643z"/>
			<path fill="#B6A999" d="M41.206,23.942c0.375,0.249,0.74,0.492,1.094,0.727l0.244-0.054c-0.354-0.235-0.719-0.478-1.094-0.727
				L41.206,23.942z"/>
			<path fill="#B6A999" d="M40.53,24.091c0.375,0.249,0.74,0.492,1.094,0.727l0.244-0.054c-0.354-0.235-0.718-0.477-1.094-0.727
				L40.53,24.091z"/>
			<path fill="#B6A999" d="M41.881,23.793c0.375,0.249,0.74,0.492,1.094,0.727l0.244-0.054c-0.354-0.235-0.719-0.478-1.094-0.727
				L41.881,23.793z"/>
			<path fill="#B6A999" d="M39.854,24.241c0.376,0.25,0.74,0.492,1.094,0.727l0.244-0.054c-0.354-0.235-0.718-0.477-1.094-0.727
				L39.854,24.241z"/>
			<path fill="#B6A999" d="M32.399,23.474c0.487,0.324,0.958,0.637,1.411,0.938c0.024-0.056,0.048-0.113,0.069-0.17
				c-0.452-0.301-0.921-0.612-1.406-0.935C32.45,23.364,32.425,23.419,32.399,23.474z"/>
			<path fill="#B6A999" d="M39.178,24.39c0.376,0.25,0.741,0.492,1.094,0.727l0.244-0.054c-0.353-0.235-0.718-0.477-1.094-0.727
				L39.178,24.39z"/>
			<path fill="#B6A999" d="M38.503,24.539c0.376,0.25,0.741,0.492,1.094,0.727l0.244-0.054c-0.353-0.235-0.718-0.477-1.094-0.727
				L38.503,24.539z"/>
			<path fill="#B6A999" d="M37.827,24.688c0.354,0.235,0.698,0.464,1.032,0.685c0.095-0.005,0.19-0.012,0.288-0.025
				c-0.347-0.23-0.705-0.468-1.075-0.714L37.827,24.688z"/>
			<path fill="#B6A999" d="M46.072,22.388c0.487,0.324,0.959,0.638,1.416,0.942c0.022-0.056,0.035-0.12,0.037-0.192
				c-0.444-0.295-0.902-0.6-1.374-0.914C46.127,22.284,46.101,22.339,46.072,22.388z"/>
			<path fill="#B6A999" d="M46.243,21.902c0.439,0.292,0.867,0.577,1.284,0.854V22.54c-0.41-0.273-0.831-0.553-1.262-0.84
				C46.261,21.771,46.254,21.839,46.243,21.902z"/>
			<path fill="#B6A999" d="M45.749,22.772c0.439,0.292,0.867,0.577,1.281,0.852l0.103-0.023c0.046-0.01,0.088-0.024,0.127-0.041
				c-0.444-0.295-0.902-0.6-1.376-0.915C45.845,22.687,45.8,22.73,45.749,22.772z"/>
			<path fill="#B6A999" d="M46.266,21.318c0.431,0.287,0.851,0.567,1.261,0.839v-0.216c-0.409-0.273-0.83-0.553-1.261-0.839V21.318z
				"/>
			<path fill="#B6A999" d="M43.233,23.494c0.374,0.249,0.739,0.491,1.093,0.727l0.244-0.054c-0.354-0.236-0.719-0.478-1.093-0.727
				L43.233,23.494z"/>
			<path fill="#B6A999" d="M45.252,23.04c0.377,0.251,0.744,0.495,1.102,0.733l0.244-0.054c-0.37-0.246-0.751-0.5-1.143-0.76
				C45.393,22.989,45.325,23.017,45.252,23.04z"/>
			<path fill="#B6A999" d="M43.909,23.345c0.374,0.249,0.739,0.491,1.093,0.727l0.244-0.054c-0.354-0.236-0.719-0.478-1.093-0.727
				L43.909,23.345z"/>
			<path fill="#B6A999" d="M44.585,23.195c0.374,0.249,0.739,0.491,1.093,0.727l0.244-0.054c-0.354-0.236-0.719-0.478-1.093-0.727
				L44.585,23.195z"/>
			<path fill="#B6A999" d="M28.435,26.763l-0.066,0.015c0.382,0.253,0.748,0.496,1.096,0.726l0.244-0.054
				c-0.349-0.231-0.716-0.475-1.101-0.729C28.552,26.736,28.494,26.75,28.435,26.763z"/>
			<path fill="#B6A999" d="M27.694,26.927c0.383,0.254,0.748,0.496,1.096,0.726l0.244-0.054c-0.347-0.23-0.713-0.472-1.096-0.726
				L27.694,26.927z"/>
			<path fill="#B6A999" d="M27.019,27.076c0.384,0.254,0.749,0.496,1.096,0.726l0.245-0.054c-0.347-0.23-0.712-0.472-1.096-0.726
				L27.019,27.076z"/>
			<path fill="#B6A999" d="M26.344,27.225c0.384,0.255,0.75,0.497,1.096,0.726l0.245-0.054c-0.346-0.229-0.712-0.471-1.097-0.726
				L26.344,27.225z"/>
			<path fill="#B6A999" d="M33.282,23.246c-0.206-0.137-0.416-0.276-0.628-0.418c-0.019,0.059-0.039,0.118-0.06,0.176
				c0.374,0.249,0.738,0.491,1.093,0.727C33.537,23.58,33.403,23.418,33.282,23.246z"/>
			<path fill="#B6A999" d="M32.167,23.918c0.491,0.327,0.965,0.641,1.42,0.944c0.03-0.053,0.059-0.106,0.086-0.159
				c-0.455-0.302-0.928-0.616-1.418-0.943C32.227,23.814,32.197,23.866,32.167,23.918z"/>
			<path fill="#B6A999" d="M29.006,26.603c0.396,0.262,0.774,0.513,1.135,0.752l0.244-0.054c-0.37-0.245-0.76-0.504-1.169-0.775
				C29.147,26.553,29.077,26.579,29.006,26.603z"/>
			<path fill="#B6A999" d="M25.669,27.375c0.385,0.255,0.751,0.497,1.097,0.726l0.245-0.054c-0.346-0.229-0.711-0.471-1.097-0.726
				L25.669,27.375z"/>
			<path fill="#B6A999" d="M24.318,27.673c0.387,0.256,0.752,0.498,1.097,0.726l0.245-0.054c-0.344-0.228-0.71-0.47-1.097-0.726
				L24.318,27.673z"/>
			<path fill="#B6A999" d="M38.495,10.114c0.425,0.285,0.846,0.566,1.261,0.844v-0.217c-0.415-0.278-0.835-0.559-1.261-0.844V10.114
				z"/>
			<path fill="#B6A999" d="M29.567,26.377c0.431,0.286,0.843,0.559,1.234,0.818c0.073-0.022,0.146-0.046,0.218-0.072
				c-0.4-0.265-0.822-0.545-1.265-0.839C29.692,26.317,29.629,26.348,29.567,26.377z"/>
			<path fill="#B6A999" d="M31.272,25.119c0.49,0.325,0.959,0.637,1.406,0.934c0.043-0.043,0.085-0.087,0.127-0.132
				c-0.449-0.298-0.92-0.611-1.412-0.937C31.353,25.029,31.313,25.075,31.272,25.119z"/>
			<path fill="#B6A999" d="M31.9,24.339c0.493,0.327,0.966,0.642,1.421,0.944c0.035-0.05,0.068-0.099,0.1-0.149
				c-0.455-0.302-0.928-0.617-1.421-0.944C31.968,24.24,31.934,24.29,31.9,24.339z"/>
			<path fill="#B6A999" d="M31.61,24.729c-0.003,0.004-0.006,0.007-0.009,0.011c0.492,0.327,0.964,0.641,1.416,0.941
				c0.024-0.029,0.048-0.056,0.071-0.086c0.015-0.018,0.028-0.037,0.042-0.055c-0.453-0.301-0.926-0.615-1.418-0.942
				C31.679,24.641,31.645,24.685,31.61,24.729z"/>
			<path fill="#B6A999" d="M30.062,26.109c0.458,0.304,0.895,0.594,1.31,0.869c0.063-0.029,0.125-0.06,0.187-0.092
				c-0.421-0.279-0.865-0.573-1.33-0.882C30.174,26.04,30.118,26.075,30.062,26.109z"/>
			<path fill="#B6A999" d="M30.909,25.475c0.484,0.321,0.947,0.628,1.388,0.921c0.048-0.039,0.096-0.08,0.143-0.121
				c-0.443-0.294-0.909-0.603-1.396-0.927C30.999,25.392,30.954,25.434,30.909,25.475z"/>
			<path fill="#B6A999" d="M30.507,25.807c0.474,0.315,0.927,0.615,1.358,0.901c0.055-0.035,0.109-0.071,0.163-0.108
				c-0.435-0.288-0.892-0.591-1.371-0.91C30.607,25.73,30.558,25.769,30.507,25.807z"/>
		</g>
		<path fill="#B6A999" d="M46.997,21.174c-0.215-0.172-0.406-0.362-0.575-0.568c-0.052-0.035-0.104-0.069-0.156-0.104v0.216
			c0.43,0.286,0.85,0.567,1.261,0.84v-0.025C47.344,21.43,47.167,21.31,46.997,21.174z"/>
		<path fill="#B6A999" d="M37.138,24.829c0.197,0.131,0.391,0.26,0.581,0.386c0.168,0.06,0.342,0.104,0.523,0.131
			c-0.275-0.183-0.558-0.371-0.848-0.563C37.308,24.801,37.223,24.816,37.138,24.829z"/>
		<path fill="#B6A999" d="M23.117,28.503c0,0.073,0.01,0.133,0.029,0.182c0.077,0.051,0.152,0.101,0.227,0.15
			c0.041,0.001,0.087-0.004,0.138-0.015l0.124-0.027c-0.167-0.11-0.34-0.224-0.518-0.343V28.503z"/>
		<path fill="#B6A999" d="M23.643,27.822c0.388,0.257,0.753,0.499,1.097,0.726l0.245-0.054c-0.343-0.227-0.709-0.469-1.097-0.726
			L23.643,27.822z"/>
		<path fill="#B6A999" d="M23.117,27.938v0.132c0.334,0.221,0.649,0.43,0.948,0.627l0.245-0.054
			c-0.342-0.226-0.708-0.468-1.097-0.726L23.117,27.938z"/>
		<g>
			<path fill="#B6A999" d="M52.395,8.354c-0.125-0.084-0.25-0.168-0.377-0.252l-0.243,0.054c0.208,0.139,0.414,0.278,0.62,0.415
				V8.354z"/>
			<path fill="#B6A999" d="M51.465,14.357v0.217c0.314,0.21,0.624,0.417,0.931,0.622v-0.217
				C52.089,14.774,51.778,14.567,51.465,14.357z"/>
			<path fill="#B6A999" d="M51.465,10.744v0.217c0.313,0.21,0.623,0.417,0.931,0.623v-0.217
				C52.088,11.161,51.778,10.954,51.465,10.744z"/>
			<path fill="#B6A999" d="M51.465,10.142v0.217c0.313,0.21,0.623,0.417,0.931,0.623v-0.217
				C52.088,10.559,51.778,10.351,51.465,10.142z"/>
			<path fill="#B6A999" d="M52.395,11.969c-0.308-0.206-0.617-0.413-0.931-0.623v0.217c0.314,0.21,0.623,0.417,0.931,0.623V11.969z"
				/>
			<path fill="#B6A999" d="M51.465,14.959v0.217c0.314,0.21,0.624,0.417,0.931,0.622V15.58
				C52.089,15.376,51.778,15.168,51.465,14.959z"/>
			<path fill="#B6A999" d="M70.71,4.941c-0.392-0.263-0.789-0.529-1.188-0.796c-0.055,0.034-0.115,0.066-0.18,0.096
				c0.378,0.254,0.754,0.505,1.125,0.754L70.71,4.941z"/>
			<path fill="#B6A999" d="M51.465,16.161v0.123l0.138-0.031C51.557,16.223,51.511,16.192,51.465,16.161z"/>
			<path fill="#B6A999" d="M52.274,16.101c-0.267-0.178-0.537-0.359-0.809-0.541v0.217c0.192,0.128,0.382,0.255,0.571,0.381
				l0.151-0.033C52.222,16.117,52.25,16.109,52.274,16.101z"/>
			<path fill="#B6A999" d="M52.395,13.39v-0.217c-0.307-0.206-0.617-0.413-0.931-0.622v0.217
				C51.778,12.978,52.088,13.185,52.395,13.39z"/>
			<path fill="#B6A999" d="M58.425,17.202c-0.1-0.067-0.201-0.134-0.301-0.201c-0.017,0.06-0.035,0.121-0.054,0.181
				c0.189,0.126,0.377,0.252,0.564,0.376C58.558,17.444,58.488,17.325,58.425,17.202z"/>
			<path fill="#B6A999" d="M52.395,14.594v-0.217c-0.307-0.205-0.617-0.412-0.931-0.622v0.217
				C51.778,14.181,52.088,14.389,52.395,14.594z"/>
			<path fill="#B6A999" d="M71.312,4.741c-0.465-0.311-0.935-0.627-1.409-0.945c-0.009,0.012-0.019,0.024-0.028,0.036
				c-0.026,0.033-0.056,0.067-0.091,0.102c0.455,0.305,0.907,0.608,1.353,0.907C71.208,4.817,71.266,4.784,71.312,4.741z"/>
			<path fill="#B6A999" d="M52.395,13.992v-0.217c-0.307-0.205-0.617-0.413-0.931-0.622v0.217
				C51.778,13.58,52.088,13.787,52.395,13.992z"/>
			<path fill="#B6A999" d="M68.703,4.416c0.365,0.245,0.728,0.488,1.087,0.729l0.243-0.054c-0.359-0.241-0.722-0.484-1.087-0.729
				L68.703,4.416z"/>
			<path fill="#B6A999" d="M52.395,9.56c-0.308-0.206-0.618-0.414-0.931-0.623v0.217c0.313,0.21,0.623,0.417,0.931,0.623V9.56z"/>
			<path fill="#B6A999" d="M52.395,10.379v-0.217c-0.308-0.206-0.618-0.414-0.931-0.623v0.217
				C51.778,9.965,52.088,10.173,52.395,10.379z"/>
			<path fill="#B6A999" d="M52.395,8.957c-0.306-0.205-0.614-0.411-0.925-0.619c-0.003,0.027-0.006,0.06-0.006,0.1V8.55
				c0.313,0.21,0.623,0.417,0.931,0.623V8.957z"/>
			<path fill="#B6A999" d="M52.395,12.788v-0.217c-0.308-0.206-0.617-0.413-0.931-0.623v0.217
				C51.778,12.375,52.088,12.583,52.395,12.788z"/>
			<path fill="#B6A999" d="M63.899,12.052c0.31,0.207,0.616,0.412,0.92,0.615V12.45c-0.304-0.203-0.61-0.408-0.92-0.615V12.052z"/>
			<path fill="#B6A999" d="M65.311,6.15c-0.365-0.244-0.734-0.492-1.105-0.74l-0.243,0.054c0.412,0.276,0.821,0.55,1.225,0.821
				C65.213,6.226,65.253,6.181,65.311,6.15z"/>
			<path fill="#B6A999" d="M65.97,5.988c-0.359-0.24-0.722-0.484-1.087-0.728L64.64,5.313c0.365,0.245,0.728,0.488,1.087,0.728
				L65.97,5.988z"/>
			<path fill="#B6A999" d="M66.647,5.838c-0.359-0.24-0.722-0.484-1.087-0.728l-0.243,0.054c0.365,0.245,0.728,0.488,1.087,0.728
				L66.647,5.838z"/>
			<path fill="#B6A999" d="M65.159,6.651c-0.416-0.279-0.836-0.56-1.261-0.845v0.217c0.424,0.284,0.845,0.566,1.261,0.845V6.651z"/>
			<path fill="#B6A999" d="M68.001,5.539c-0.359-0.241-0.722-0.484-1.087-0.728l-0.243,0.054c0.365,0.245,0.728,0.488,1.087,0.729
				L68.001,5.539z"/>
			<path fill="#B6A999" d="M69.355,5.24c-0.359-0.241-0.722-0.484-1.087-0.729l-0.243,0.054c0.365,0.245,0.728,0.488,1.087,0.729
				L69.355,5.24z"/>
			<path fill="#B6A999" d="M67.324,5.689c-0.359-0.241-0.722-0.484-1.087-0.729l-0.243,0.054c0.365,0.245,0.728,0.488,1.087,0.729
				L67.324,5.689z"/>
			<path fill="#B6A999" d="M68.678,5.39c-0.359-0.241-0.722-0.484-1.087-0.729l-0.243,0.054c0.365,0.245,0.728,0.488,1.087,0.728
				L68.678,5.39z"/>
			<path fill="#B6A999" d="M65.159,7.254c-0.416-0.278-0.836-0.56-1.261-0.845v0.217c0.425,0.284,0.845,0.566,1.261,0.844V7.254z"/>
			<path fill="#B6A999" d="M64.819,13.052c-0.304-0.203-0.61-0.408-0.92-0.615v0.217c0.31,0.207,0.616,0.412,0.92,0.615V13.052z"/>
			<path fill="#B6A999" d="M64.458,13.413c-0.185-0.124-0.372-0.249-0.56-0.374v0.217c0.106,0.071,0.211,0.141,0.316,0.211
				L64.458,13.413z"/>
			<path fill="#B6A999" d="M63.899,11.449c0.309,0.207,0.616,0.412,0.92,0.615v-0.217c-0.304-0.203-0.61-0.408-0.92-0.615V11.449z"
				/>
			<path fill="#B6A999" d="M71.453,4.373V4.232c-0.437-0.293-0.879-0.589-1.324-0.888c-0.018,0.063-0.04,0.121-0.063,0.174
				c0.466,0.312,0.927,0.622,1.384,0.928C71.451,4.423,71.453,4.399,71.453,4.373z"/>
			<path fill="#B6A999" d="M64.819,11.246c-0.304-0.203-0.611-0.409-0.92-0.616v0.217c0.309,0.207,0.616,0.412,0.92,0.616V11.246z"
				/>
			<path fill="#B6A999" d="M64.835,8.243c-0.31-0.207-0.622-0.416-0.936-0.627v0.217c0.309,0.207,0.616,0.413,0.921,0.617
				C64.82,8.377,64.826,8.308,64.835,8.243z"/>
			<path fill="#B6A999" d="M64.819,10.643c-0.304-0.203-0.611-0.409-0.92-0.616v0.217c0.309,0.207,0.616,0.412,0.92,0.616V10.643z"
				/>
			<path fill="#B6A999" d="M64.819,8.835c-0.304-0.204-0.611-0.409-0.92-0.616v0.217c0.309,0.207,0.616,0.412,0.92,0.616V8.835z"/>
			<path fill="#B6A999" d="M64.995,7.748c-0.362-0.243-0.728-0.487-1.096-0.734V7.23c0.343,0.23,0.683,0.458,1.021,0.684
				C64.942,7.853,64.968,7.798,64.995,7.748z"/>
			<path fill="#B6A999" d="M64.819,10.041c-0.304-0.203-0.611-0.409-0.92-0.616v0.217c0.309,0.207,0.616,0.412,0.92,0.616V10.041z"
				/>
			<path fill="#B6A999" d="M64.819,9.438c-0.304-0.204-0.611-0.409-0.92-0.616v0.217c0.309,0.207,0.616,0.412,0.92,0.616V9.438z"/>
			<path fill="#B6A999" d="M69.602,17.667c0.37,0.247,0.733,0.49,1.091,0.728l0.244-0.054c-0.365-0.244-0.737-0.492-1.115-0.744
				C69.755,17.625,69.681,17.648,69.602,17.667z"/>
			<path fill="#B6A999" d="M70.141,17.427c0.416,0.278,0.827,0.552,1.228,0.82l0.236-0.052c0.002-0.001,0.005-0.001,0.007-0.002
				c-0.433-0.289-0.876-0.584-1.326-0.885C70.245,17.348,70.196,17.388,70.141,17.427z"/>
			<path fill="#B6A999" d="M70.739,15.421c0.427,0.285,0.847,0.566,1.261,0.842v-0.217c-0.413-0.276-0.834-0.557-1.261-0.842V15.421
				z"/>
			<path fill="#B6A999" d="M70.697,16.595c0.442,0.295,0.877,0.586,1.303,0.87v-0.216c-0.416-0.278-0.84-0.561-1.27-0.848
				C70.722,16.469,70.711,16.534,70.697,16.595z"/>
			<path fill="#B6A999" d="M70.739,16.022c0.427,0.285,0.848,0.566,1.261,0.842v-0.216c-0.413-0.276-0.834-0.557-1.261-0.842V16.022
				z"/>
			<path fill="#B6A999" d="M66.221,18.415c0.37,0.247,0.733,0.489,1.091,0.728l0.244-0.054c-0.357-0.238-0.721-0.481-1.091-0.728
				L66.221,18.415z"/>
			<path fill="#B6A999" d="M67.574,18.116c0.369,0.247,0.733,0.489,1.091,0.728l0.244-0.054c-0.358-0.238-0.721-0.481-1.091-0.728
				L67.574,18.116z"/>
			<path fill="#B6A999" d="M68.926,17.818c0.369,0.246,0.733,0.489,1.091,0.728l0.244-0.054c-0.358-0.239-0.721-0.481-1.091-0.728
				L68.926,17.818z"/>
			<path fill="#B6A999" d="M66.897,18.266c0.37,0.247,0.733,0.489,1.091,0.728l0.244-0.054c-0.357-0.238-0.721-0.481-1.091-0.728
				L66.897,18.266z"/>
			<path fill="#B6A999" d="M68.25,17.967c0.369,0.247,0.733,0.489,1.091,0.728l0.244-0.054c-0.358-0.239-0.721-0.481-1.091-0.728
				L68.25,17.967z"/>
			<path fill="#B6A999" d="M71.453,3.628c-0.416-0.279-0.836-0.561-1.261-0.845v0.105c0,0.038-0.002,0.074-0.004,0.11
				c0.425,0.285,0.847,0.568,1.264,0.848V3.628z"/>
			<path fill="#B6A999" d="M70.739,11.207c0.425,0.285,0.846,0.566,1.261,0.843v-0.217c-0.415-0.277-0.835-0.559-1.261-0.843V11.207
				z"/>
			<path fill="#B6A999" d="M70.739,10.605c0.425,0.285,0.846,0.566,1.261,0.843v-0.217c-0.415-0.277-0.835-0.559-1.261-0.843V10.605
				z"/>
			<path fill="#B6A999" d="M70.739,11.81c0.426,0.285,0.846,0.566,1.261,0.843v-0.217c-0.415-0.277-0.835-0.558-1.261-0.843V11.81z"
				/>
			<path fill="#B6A999" d="M70.739,9.786v0.217c0.425,0.285,0.846,0.566,1.261,0.844v-0.217
				C71.585,10.351,71.165,10.07,70.739,9.786z"/>
			<path fill="#B6A999" d="M70.739,12.412c0.426,0.285,0.846,0.566,1.261,0.843v-0.217c-0.414-0.277-0.835-0.558-1.261-0.843V12.412
				z"/>
			<path fill="#B6A999" d="M70.739,13.616c0.426,0.285,0.847,0.566,1.261,0.843v-0.217c-0.414-0.277-0.835-0.558-1.261-0.843V13.616
				z"/>
			<path fill="#B6A999" d="M70.739,14.218c0.426,0.285,0.847,0.566,1.261,0.842v-0.217c-0.414-0.276-0.834-0.558-1.261-0.842V14.218
				z"/>
			<path fill="#B6A999" d="M70.739,13.014c0.426,0.285,0.846,0.566,1.261,0.843V13.64c-0.414-0.277-0.835-0.558-1.261-0.843V13.014z
				"/>
			<path fill="#B6A999" d="M70.739,14.82c0.426,0.285,0.847,0.566,1.261,0.842v-0.217c-0.414-0.276-0.834-0.557-1.261-0.842V14.82z"
				/>
			<path fill="#B6A999" d="M70.496,17.062c0.482,0.322,0.956,0.638,1.419,0.947c0.034-0.048,0.058-0.104,0.072-0.169
				c-0.457-0.305-0.925-0.617-1.401-0.935C70.557,16.964,70.527,17.016,70.496,17.062z"/>
			<path fill="#B6A999" d="M65.545,18.565c0.37,0.247,0.733,0.489,1.091,0.728l0.244-0.054c-0.357-0.238-0.721-0.481-1.091-0.728
				L65.545,18.565z"/>
			<path fill="#B6A999" d="M54.043,21.101c0.373,0.249,0.739,0.492,1.097,0.731l0.244-0.054c-0.363-0.242-0.735-0.489-1.114-0.742
				C54.196,21.059,54.12,21.081,54.043,21.101z"/>
			<path fill="#B6A999" d="M54.648,20.904c0.398,0.265,0.788,0.525,1.169,0.779l0.061-0.013c0.06-0.013,0.12-0.028,0.179-0.044
				c-0.393-0.262-0.797-0.531-1.209-0.805C54.781,20.849,54.715,20.877,54.648,20.904z"/>
			<path fill="#B6A999" d="M55.656,20.376c0.454,0.302,0.897,0.598,1.329,0.886c0.059-0.032,0.118-0.065,0.176-0.099
				c-0.437-0.291-0.886-0.59-1.346-0.897C55.763,20.303,55.709,20.34,55.656,20.376z"/>
			<path fill="#B6A999" d="M56.083,20.06c0.468,0.312,0.924,0.616,1.37,0.913c0.052-0.037,0.103-0.075,0.154-0.114
				c-0.449-0.299-0.909-0.606-1.381-0.92C56.179,19.98,56.131,20.021,56.083,20.06z"/>
			<path fill="#B6A999" d="M52.02,21.553c0.372,0.248,0.736,0.49,1.092,0.727l0.244-0.054c-0.356-0.237-0.72-0.48-1.092-0.727
				L52.02,21.553z"/>
			<path fill="#B6A999" d="M71.453,3.025c-0.416-0.279-0.837-0.561-1.261-0.845v0.217c0.424,0.284,0.844,0.566,1.261,0.845V3.025z"
				/>
			<path fill="#B6A999" d="M52.696,21.403c0.372,0.248,0.736,0.49,1.092,0.727l0.244-0.054c-0.356-0.237-0.72-0.48-1.092-0.727
				L52.696,21.403z"/>
			<path fill="#B6A999" d="M53.373,21.254c0.372,0.248,0.736,0.49,1.092,0.727l0.244-0.054c-0.356-0.237-0.72-0.48-1.092-0.727
				L53.373,21.254z"/>
			<path fill="#B6A999" d="M55.181,20.66c0.432,0.288,0.854,0.569,1.265,0.843c0.069-0.025,0.136-0.052,0.203-0.081
				c-0.42-0.28-0.85-0.566-1.291-0.86C55.3,20.595,55.241,20.628,55.181,20.66z"/>
			<path fill="#B6A999" d="M64.192,18.864c0.37,0.247,0.734,0.489,1.091,0.728l0.244-0.054c-0.357-0.238-0.721-0.481-1.091-0.728
				L64.192,18.864z"/>
			<path fill="#B6A999" d="M57.892,17.664c0.478,0.319,0.946,0.631,1.404,0.937c0.022-0.058,0.042-0.117,0.062-0.175
				c-0.456-0.304-0.922-0.615-1.397-0.932C57.939,17.551,57.916,17.607,57.892,17.664z"/>
			<path fill="#B6A999" d="M63.516,19.013c0.365,0.243,0.723,0.482,1.075,0.717c0.085-0.012,0.171-0.027,0.258-0.045
				c-0.357-0.238-0.72-0.48-1.089-0.726L63.516,19.013z"/>
			<path fill="#B6A999" d="M64.868,18.714c0.37,0.247,0.734,0.489,1.091,0.728l0.244-0.054c-0.357-0.238-0.721-0.481-1.091-0.728
				L64.868,18.714z"/>
			<path fill="#B6A999" d="M57.422,18.551c0.484,0.323,0.957,0.638,1.42,0.947c0.033-0.051,0.064-0.102,0.095-0.153
				c-0.462-0.308-0.935-0.624-1.419-0.946C57.486,18.45,57.454,18.501,57.422,18.551z"/>
			<path fill="#B6A999" d="M57.675,18.12c0.482,0.322,0.954,0.637,1.416,0.945c0.028-0.054,0.054-0.109,0.08-0.163
				c-0.461-0.307-0.932-0.622-1.413-0.942C57.731,18.012,57.704,18.066,57.675,18.12z"/>
			<path fill="#B6A999" d="M57.135,18.961c0.483,0.322,0.955,0.637,1.417,0.945c0.037-0.048,0.073-0.096,0.109-0.144
				c-0.462-0.308-0.935-0.623-1.418-0.946C57.207,18.864,57.172,18.913,57.135,18.961z"/>
			<path fill="#B6A999" d="M56.818,19.349c0.481,0.321,0.951,0.634,1.41,0.94c0.041-0.044,0.081-0.089,0.121-0.135
				c-0.46-0.307-0.932-0.621-1.414-0.943C56.896,19.258,56.857,19.304,56.818,19.349z"/>
			<path fill="#B6A999" d="M56.468,19.717c0.476,0.317,0.941,0.627,1.394,0.93c0.046-0.041,0.091-0.083,0.136-0.126
				c-0.456-0.304-0.923-0.615-1.401-0.934C56.555,19.631,56.512,19.674,56.468,19.717z"/>
		</g>
	</g>
</g>
</svg>
