<?xml version="1.0" encoding="utf-8"?>
<!-- Generator: Adobe Illustrator 17.0.2, SVG Export Plug-In . SVG Version: 6.00 Build 0)  -->
<!DOCTYPE svg PUBLIC "-//W3C//DTD SVG 1.1//EN" "http://www.w3.org/Graphics/SVG/1.1/DTD/svg11.dtd">
<svg version="1.1" xmlns="http://www.w3.org/2000/svg" xmlns:xlink="http://www.w3.org/1999/xlink" x="0px" y="0px"
	 width="80.319px" height="90.414px" viewBox="0 0 80.319 90.414" enable-background="new 0 0 80.319 90.414" xml:space="preserve">
<g id="Capa_1">
</g>
<g id="Capa_2">
	<g>
		<g>
			<path fill="#534741" d="M14.333,60.97l-4.167,19.978l-1.271,0.281L4.94,63.516v18.587l-1.907,0.421V53.559l1.765-0.39
				l4.731,22.532l4.979-24.677l1.695-0.375v28.965l-1.871,0.414V60.97z"/>
			<path fill="#534741" d="M21.753,78.388l-1.836,0.369V69.03l-2.825-18.578l1.977-0.437l1.871,12.062l2.224-12.967l2.013-0.445
				l-3.46,19.93L21.753,78.388z"/>
			<path fill="#534741" d="M35.839,75.276l-1.942,0.429V48.584l-2.613,0.577v-1.844l7.062-1.56v1.844l-2.507,0.554V75.276z"/>
			<path fill="#534741" d="M39.404,45.523l1.942-0.429v28.965l-1.942,0.429V45.523z"/>
			<path fill="#534741" d="M45.651,73.144c-0.895,0.149-1.689,0.096-2.383-0.16c-0.695-0.256-1.042-1.035-1.042-2.337V48.082
				c0-1.061,0.353-1.934,1.059-2.621c0.706-0.686,1.483-1.123,2.331-1.31c0.023-0.005,0.041-0.009,0.053-0.012
				c0.012-0.002,0.029-0.007,0.053-0.012c0.847-0.163,1.624-0.015,2.331,0.443c0.706,0.459,1.059,1.122,1.059,1.99v3.471
				l-1.765,0.39V46.95c0-0.385-0.171-0.673-0.512-0.863c-0.342-0.19-0.748-0.233-1.218-0.129c-0.518,0.115-0.877,0.29-1.077,0.527
				c-0.2,0.238-0.335,0.472-0.406,0.705c0,0.096-0.006,0.182-0.018,0.257c-0.012,0.075-0.018,0.149-0.018,0.221v22.601
				c0,0.458,0.141,0.777,0.424,0.955c0.283,0.179,0.588,0.256,0.918,0.231c0.047-0.01,0.088-0.02,0.124-0.027
				c0.035-0.007,0.076-0.017,0.124-0.027c0.447-0.099,0.853-0.321,1.218-0.667c0.365-0.345,0.547-0.772,0.547-1.278v-3.363
				l1.836-0.405v3.399c0,0.868-0.359,1.701-1.077,2.498c-0.718,0.798-1.536,1.298-2.454,1.501c-0.024,0.005-0.041,0.009-0.053,0.012
				c-0.012,0.003-0.03,0.007-0.053,0.012V73.144z"/>
			<path fill="#534741" d="M57.059,60.716c0-0.048,0-0.102,0-0.163c0-0.06-0.012-0.124-0.035-0.191
				c-0.047-0.279-0.177-0.509-0.388-0.692c-0.212-0.182-0.518-0.229-0.918-0.14l-2.048,0.452v11.355
				c0-0.024-0.136-0.006-0.406,0.054c-0.271,0.06-0.571,0.126-0.9,0.199c-0.095,0.021-0.189,0.042-0.283,0.062
				c-0.094,0.021-0.189,0.042-0.283,0.062V60.359l-1.624,0.359v-1.772l1.624-0.359V42.784l1.836-0.405v15.803l2.048-0.453
				c0.4-0.088,0.735-0.258,1.006-0.511c0.27-0.253,0.406-0.572,0.406-0.958V41.614l1.836-0.406v14.646
				c0,0.386-0.065,0.774-0.194,1.164c-0.13,0.391-0.312,0.744-0.547,1.061c0.235,0.189,0.418,0.45,0.547,0.783
				c0.129,0.333,0.194,0.813,0.194,1.44v6.581c0,0.361,0.1,0.623,0.3,0.784c0.2,0.161,0.418,0.251,0.653,0.271
				c0.188,0.031,0.371,0.033,0.547,0.006c0.177-0.027,0.3-0.048,0.371-0.064c0.023-0.005,0.047-0.01,0.071-0.015v1.953
				c-0.024-0.019-0.053-0.025-0.088-0.017s-0.077,0.017-0.124,0.027c-0.895,0.125-1.719,0.091-2.472-0.105
				c-0.754-0.195-1.13-1.003-1.13-2.426V60.716z"/>
			<path fill="#534741" d="M63.272,57.86l-1.73,0.383v-1.808l1.695-0.375V40.258l6.638-1.467v1.844l-4.696,1.037v13.958l4.837-1.069
				v1.808l-4.837,1.069v9.583l4.837-1.069v1.772l-6.744,1.49V57.86z"/>
			<path fill="#534741" d="M75.594,66.493l-1.942,0.429V39.801l-2.613,0.577v-1.844l7.062-1.56v1.844l-2.507,0.554V66.493z"/>
		</g>
		<g>
			<g>
				<path fill="#534741" d="M17.381,13.247c2.02-0.428,3.738-0.063,5.154,1.095c1.416,1.157,2.114,2.769,2.096,4.834l-0.022,2.522
					c-0.018,2.065-0.748,3.978-2.189,5.741c-0.146,0.178-0.291,0.342-0.436,0.49l0,0.022c0.416,0.192,0.81,0.432,1.182,0.721
					c1.416,1.143,2.114,2.769,2.096,4.878l-0.033,3.694c-0.018,2.065-0.748,3.978-2.189,5.741c-1.441,1.763-3.172,2.858-5.192,3.285
					L4.081,49.185c-0.519,0.11-0.777-0.101-0.772-0.631l0.278-31.591c0.005-0.531,0.267-0.851,0.786-0.961L17.381,13.247z
					 M11.206,34.958l-0.049,5.575c-0.003,0.354,0.168,0.494,0.515,0.421l3.701-0.784c1.371-0.29,2.061-1.025,2.072-2.205
					l0.027-3.097c0.01-1.18-0.561-1.648-1.716-1.403l-4.026,0.852C11.384,34.39,11.209,34.604,11.206,34.958z M11.323,21.684
					l-0.049,5.575c-0.003,0.354,0.169,0.494,0.515,0.421l3.484-0.738c1.01-0.214,1.52-0.837,1.529-1.869l0.031-3.54
					c0.009-1.032-0.492-1.441-1.501-1.228l-3.485,0.738C11.501,21.116,11.326,21.33,11.323,21.684z"/>
				<path fill="#534741" d="M36.491,9.996l-0.209,23.76c-0.012,1.327,0.632,1.853,1.93,1.579l1.861-0.394
					c1.299-0.275,1.954-1.076,1.965-2.403l0.209-23.759c0.005-0.531,0.267-0.851,0.786-0.961l6.234-1.32
					c0.52-0.11,0.777,0.101,0.772,0.631l-0.219,24.91c-0.018,2.065-0.748,3.979-2.189,5.741c-1.441,1.762-3.172,2.858-5.192,3.285
					l-6.601,1.397c-2.092,0.443-3.846,0.086-5.262-1.072c-1.416-1.158-2.114-2.769-2.096-4.834l0.219-24.91
					c0.005-0.531,0.267-0.851,0.786-0.961l6.233-1.32C36.238,9.255,36.495,9.465,36.491,9.996z"/>
				<path fill="#534741" d="M70.16,20.444l-0.123,13.981c-0.005,0.531-0.26,0.85-0.764,0.957l-6.255,1.324
					c-0.52,0.11-0.777-0.101-0.772-0.632l0.123-13.981L52.698,6.565c-0.114-0.167-0.17-0.317-0.169-0.45
					c0.002-0.206,0.168-0.345,0.501-0.415l7.229-1.53c0.52-0.11,0.921,0.07,1.205,0.539l4.878,7.844l5.035-9.943
					c0.293-0.592,0.7-0.943,1.219-1.053l7.229-1.531c0.332-0.07,0.497-0.002,0.495,0.204c-0.001,0.133-0.06,0.308-0.177,0.523
					L70.16,20.444z"/>
			</g>
		</g>
		<polygon fill="#534741" points="79.691,70.559 0,88.061 0,90.414 79.691,72.913 		"/>
	</g>
</g>
</svg>
