<?xml version="1.0" encoding="utf-8"?>
<!-- Generator: Adobe Illustrator 17.0.0, SVG Export Plug-In . SVG Version: 6.00 Build 0)  -->
<!DOCTYPE svg PUBLIC "-//W3C//DTD SVG 1.1//EN" "http://www.w3.org/Graphics/SVG/1.1/DTD/svg11.dtd">
<svg version="1.1" id="Capa_1" xmlns="http://www.w3.org/2000/svg" xmlns:xlink="http://www.w3.org/1999/xlink" x="0px" y="0px"
	 width="72.007px" height="80.335px" viewBox="0 0 72.007 80.335" enable-background="new 0 0 72.007 80.335" xml:space="preserve">
<g>
	<g>
		<path fill="#534741" d="M23.562,11.835c-0.089-0.007-0.19,0-0.306,0.025l-0.322,0.071c0.361,0.242,0.723,0.484,1.082,0.724V12.47
			c0-0.156-0.026-0.28-0.072-0.379C23.817,12.006,23.689,11.92,23.562,11.835z"/>
		<path fill="#534741" d="M23.256,37.784l-0.202,0.045c0.322,0.215,0.643,0.429,0.961,0.641v-0.075
			C24.016,37.875,23.763,37.672,23.256,37.784z"/>
		<path fill="#534741" d="M47.146,6.582c0.625,0.419,1.247,0.836,1.865,1.249V7.315c-0.426-0.286-0.854-0.572-1.285-0.86
			L47.146,6.582z"/>
		<path fill="#534741" d="M43.952,20.25c0.636,0.426,1.268,0.848,1.894,1.266V21c-0.435-0.291-0.873-0.584-1.313-0.878L43.952,20.25
			z"/>
		<path fill="#534741" d="M27.686,43.257c-0.152-0.101-0.307-0.205-0.461-0.307C27.297,43.155,27.452,43.254,27.686,43.257z"/>
		<path fill="#534741" d="M27.178,42.005c0.53,0.353,1.055,0.703,1.571,1.046l0.582-0.129c-0.704-0.469-1.422-0.946-2.153-1.433
			V42.005z"/>
		<path fill="#534741" d="M51.815,37.883c-0.091-0.061-0.183-0.122-0.274-0.183C51.604,37.797,51.696,37.857,51.815,37.883z"/>
		<path fill="#534741" d="M51.44,36.717c0.501,0.334,0.998,0.665,1.488,0.992l0.581-0.128c-0.68-0.453-1.37-0.913-2.069-1.38V36.717
			z"/>
		<g>
			<path fill="#534741" d="M59.034,11.669v-0.517c-0.696-0.466-1.399-0.937-2.106-1.41v0.517
				C57.635,10.732,58.338,11.203,59.034,11.669z"/>
			<path fill="#534741" d="M59.034,13.106v-0.517c-0.696-0.466-1.399-0.937-2.106-1.41v0.517
				C57.635,12.169,58.338,12.64,59.034,13.106z"/>
			<path fill="#534741" d="M57.96,8.075c0.859,0.575,1.712,1.146,2.554,1.711l0.58-0.128c-0.843-0.564-1.696-1.136-2.554-1.711
				L57.96,8.075z"/>
			<path fill="#534741" d="M56.928,8.821c0.734,0.492,1.464,0.981,2.187,1.465c0.073-0.13,0.197-0.219,0.37-0.269
				c-0.799-0.535-1.608-1.077-2.421-1.622C56.974,8.501,56.928,8.643,56.928,8.821C56.928,8.821,56.928,8.821,56.928,8.821z"/>
			<path fill="#534741" d="M58.589,17.117c-0.55-0.368-1.103-0.738-1.661-1.111v-0.517c0.708,0.474,1.411,0.944,2.106,1.409v0.12
				L58.589,17.117z"/>
			<path fill="#534741" d="M59.034,14.543v-0.517c-0.696-0.466-1.399-0.936-2.106-1.41v0.517
				C57.635,13.606,58.338,14.077,59.034,14.543z"/>
			<path fill="#534741" d="M57.189,23.735c0.013-0.009,0.027-0.017,0.042-0.024C57.215,23.718,57.202,23.727,57.189,23.735z"/>
			<path fill="#534741" d="M56.551,34.562c0.008-0.005,0.016-0.011,0.023-0.016C56.566,34.551,56.558,34.557,56.551,34.562z"/>
			<path fill="#534741" d="M59.574,7.718c0.858,0.575,1.712,1.146,2.554,1.711l0.178-0.039V9.031
				c-0.712-0.477-1.429-0.957-2.152-1.441"/>
			<path fill="#534741" d="M59.034,15.979v-0.517c-0.696-0.465-1.399-0.936-2.106-1.41v0.517
				C57.635,15.043,58.338,15.514,59.034,15.979z"/>
			<path fill="#534741" d="M61.216,7.387c0.003,0,0.006,0,0.01,0c0.338,0.227,0.675,0.452,1.011,0.677
				c-0.116-0.407-0.378-0.632-0.788-0.673C61.327,7.379,61.161,7.39,61.216,7.387z"/>
			<path fill="#534741" d="M69.549,4.334C69.549,4.334,69.549,4.334,69.549,4.334c0.632,0.423,1.26,0.844,1.884,1.262
				c-0.143-0.303-0.313-0.589-0.509-0.858c-0.557-0.373-1.118-0.749-1.681-1.127c0,0,0,0,0,0
				C69.362,3.842,69.463,4.083,69.549,4.334z"/>
			<path fill="#534741" d="M69.817,5.432c0.027,0.182,0.047,0.369,0.061,0.56c0.692,0.464,1.381,0.926,2.064,1.383
				c-0.026-0.201-0.061-0.396-0.104-0.586c-0.668-0.448-1.343-0.9-2.02-1.354C69.817,5.434,69.817,5.433,69.817,5.432z"/>
			<path fill="#534741" d="M57.288,23.684c0.012-0.005,0.024-0.011,0.037-0.015C57.312,23.673,57.3,23.679,57.288,23.684z"/>
			<path fill="#534741" d="M69.901,6.581c0-0.104-0.003-0.206-0.007-0.307C69.898,6.376,69.901,6.478,69.901,6.581L69.901,6.581z"/>
			<path fill="#534741" d="M57.044,23.866c0.012-0.017,0.027-0.032,0.041-0.047C57.071,23.834,57.057,23.85,57.044,23.866z"/>
			<path fill="#534741" d="M56.943,24.111c0.017-0.093,0.05-0.172,0.098-0.24C56.992,23.939,56.959,24.019,56.943,24.111z"/>
			<path fill="#534741" d="M57.108,23.796c0.013-0.012,0.027-0.023,0.042-0.034C57.135,23.772,57.121,23.784,57.108,23.796z"/>
			<path fill="#534741" d="M56.404,34.641c0.02-0.009,0.04-0.017,0.058-0.027C56.443,34.624,56.424,34.632,56.404,34.641z"/>
			<path fill="#534741" d="M56.928,16.926v0.04c0,0.346,0.169,0.481,0.506,0.407l0.121-0.027
				C57.346,17.206,57.138,17.066,56.928,16.926z"/>
			<path fill="#534741" d="M69.901,10.321c0.707,0.474,1.41,0.944,2.106,1.41v-0.517c-0.696-0.466-1.399-0.937-2.106-1.41V10.321z"
				/>
			<path fill="#534741" d="M66.575,20.506c-0.113,0.1-0.227,0.196-0.343,0.288c0,0,0,0,0,0c0.799,0.535,1.592,1.065,2.374,1.587
				c0.111-0.096,0.22-0.195,0.328-0.297C68.157,21.565,67.369,21.038,66.575,20.506C66.575,20.506,66.575,20.506,66.575,20.506z"/>
			<path fill="#534741" d="M68.404,18.395c0,0,0,0.001-0.001,0.001C68.403,18.395,68.404,18.395,68.404,18.395z"/>
			<path fill="#534741" d="M67.928,19.057c0.776,0.519,1.547,1.035,2.308,1.543c0.085-0.117,0.167-0.234,0.246-0.352
				c-0.757-0.506-1.524-1.019-2.297-1.536C68.102,18.828,68.016,18.942,67.928,19.057z"/>
			<path fill="#534741" d="M56.172,34.717c0.055-0.012,0.107-0.028,0.156-0.045C56.278,34.69,56.227,34.705,56.172,34.717z"/>
			<path fill="#534741" d="M68.824,17.702c-0.069,0.125-0.141,0.25-0.217,0.374c0,0,0,0,0,0c0.765,0.512,1.525,1.02,2.276,1.522
				c0.071-0.126,0.139-0.253,0.203-0.381c-0.746-0.499-1.502-1.005-2.263-1.514C68.823,17.703,68.824,17.702,68.824,17.702z"/>
			<path fill="#534741" d="M65.91,21.041c-0.001,0.001-0.002,0.002-0.004,0.003C65.908,21.042,65.909,21.042,65.91,21.041z"/>
			<path fill="#534741" d="M67.437,19.647c-0.098,0.109-0.196,0.216-0.297,0.319c0.787,0.526,1.567,1.048,2.338,1.563
				c0.096-0.106,0.191-0.215,0.284-0.326C68.996,20.69,68.22,20.171,67.437,19.647C67.437,19.647,67.437,19.647,67.437,19.647z"/>
			<path fill="#534741" d="M67.608,19.451c0.067-0.078,0.133-0.157,0.198-0.238C67.741,19.294,67.675,19.373,67.608,19.451z"/>
			<path fill="#534741" d="M69.003,17.359c0,0,0,0.001-0.001,0.001C69.003,17.36,69.003,17.36,69.003,17.359z"/>
			<path fill="#534741" d="M69.901,13.195c0.707,0.474,1.411,0.944,2.106,1.41v-0.517c-0.696-0.466-1.399-0.936-2.106-1.41V13.195z"
				/>
			<path fill="#534741" d="M69.901,11.758c0.707,0.473,1.411,0.944,2.106,1.41v-0.517c-0.696-0.466-1.399-0.937-2.106-1.41V11.758z"
				/>
			<path fill="#534741" d="M69.586,15.861c0-0.001,0.001-0.002,0.001-0.003c0.738,0.493,1.471,0.984,2.195,1.468
				c0.036-0.15,0.068-0.301,0.096-0.453c-0.719-0.481-1.446-0.967-2.178-1.457C69.666,15.566,69.627,15.714,69.586,15.861z"/>
			<path fill="#534741" d="M72.006,8.339c-0.696-0.466-1.399-0.937-2.105-1.41v0.517c0.707,0.474,1.41,0.944,2.106,1.411V8.391
				C72.007,8.374,72.006,8.357,72.006,8.339z"/>
			<path fill="#534741" d="M69.901,8.883c0.707,0.474,1.41,0.944,2.106,1.411V9.777c-0.696-0.466-1.399-0.937-2.106-1.411V8.883z"/>
			<path fill="#534741" d="M69.782,14.994c-0.001,0.005-0.002,0.011-0.002,0.016C69.78,15.005,69.781,14.999,69.782,14.994z"/>
			<path fill="#534741" d="M69.47,16.235c0,0.001-0.001,0.003-0.001,0.004C69.469,16.238,69.47,16.236,69.47,16.235z"/>
			<path fill="#534741" d="M69.839,14.591C69.839,14.591,69.839,14.591,69.839,14.591c0.72,0.481,1.435,0.96,2.143,1.434
				c0.012-0.166,0.02-0.334,0.022-0.502c-0.701-0.469-1.409-0.943-2.121-1.42C69.873,14.267,69.859,14.43,69.839,14.591z"/>
			<path fill="#534741" d="M69.335,16.609c-0.052,0.136-0.109,0.27-0.169,0.405c0,0,0,0,0,0c0.752,0.503,1.5,1.004,2.239,1.497
				c0.055-0.137,0.106-0.275,0.153-0.414C70.825,17.607,70.082,17.11,69.335,16.609C69.335,16.61,69.335,16.609,69.335,16.609z"/>
			<path fill="#534741" d="M56.928,31.787c0.711,0.474,1.414,0.943,2.106,1.406v-0.516c-0.693-0.462-1.396-0.931-2.106-1.406V31.787
				z"/>
			<path fill="#534741" d="M56.928,33.219c0.711,0.474,1.414,0.943,2.106,1.405v-0.516c-0.692-0.462-1.395-0.931-2.106-1.405V33.219
				z"/>
			<path fill="#534741" d="M56.928,28.92c0.71,0.474,1.413,0.943,2.106,1.406v-0.516c-0.694-0.463-1.396-0.932-2.106-1.407V28.92z"
				/>
			<path fill="#534741" d="M56.916,33.948c0.007-0.052,0.01-0.108,0.011-0.165C56.927,33.841,56.923,33.896,56.916,33.948z"/>
			<path fill="#534741" d="M56.928,30.354c0.71,0.474,1.413,0.943,2.106,1.406v-0.516c-0.693-0.463-1.396-0.932-2.106-1.406V30.354z
				"/>
			<path fill="#534741" d="M51.57,35.734l0.408-0.09c0.869,0.58,1.724,1.149,2.563,1.709l0.581-0.128
				c-0.839-0.559-1.694-1.129-2.563-1.709L51.57,35.734z"/>
			<path fill="#534741" d="M64.797,21.728c-0.007,0.004-0.014,0.007-0.022,0.011C64.782,21.736,64.79,21.732,64.797,21.728z"/>
			<path fill="#534741" d="M55.942,34.768l-2.353,0.52c0.869,0.579,1.724,1.15,2.563,1.709l0.581-0.128
				c-0.84-0.56-1.694-1.129-2.563-1.709l1.031-0.228c0.869,0.579,1.723,1.149,2.563,1.709l0.51-0.113
				c0.024-0.005,0.044-0.013,0.066-0.019c-0.838-0.558-1.69-1.127-2.558-1.706L55.942,34.768z"/>
			<path fill="#534741" d="M56.885,34.103c-0.042,0.15-0.117,0.273-0.222,0.372c0.776,0.518,1.542,1.028,2.295,1.53
				c0.049-0.122,0.076-0.261,0.076-0.422V35.54c-0.706-0.471-1.424-0.949-2.15-1.434C56.884,34.105,56.884,34.104,56.885,34.103z"/>
			<path fill="#534741" d="M62.979,22.407c-0.069,0.017-0.138,0.035-0.209,0.051l-3.594,0.794c0.863,0.577,1.716,1.147,2.558,1.71
				l0.581-0.128c-0.842-0.563-1.695-1.133-2.559-1.71l1.033-0.228c0.863,0.577,1.717,1.147,2.558,1.71l0.581-0.128
				c-0.841-0.562-1.696-1.133-2.558-1.71l1.033-0.228c0.862,0.576,1.716,1.147,2.556,1.709c0.187-0.043,0.371-0.092,0.552-0.147
				c-0.833-0.557-1.68-1.123-2.533-1.693C62.979,22.407,62.979,22.407,62.979,22.407z"/>
			<path fill="#534741" d="M56.928,27.487c0.71,0.474,1.413,0.943,2.106,1.407v-0.516c-0.694-0.463-1.397-0.933-2.106-1.407V27.487z
				"/>
			<path fill="#534741" d="M65.576,21.272c-0.132,0.087-0.266,0.171-0.402,0.25c0,0,0,0,0.001,0c0.815,0.545,1.623,1.085,2.42,1.618
				c0.129-0.083,0.256-0.17,0.382-0.261c-0.791-0.529-1.594-1.065-2.403-1.606C65.576,21.273,65.576,21.273,65.576,21.272z"/>
			<path fill="#534741" d="M64.397,21.92c-0.158,0.071-0.317,0.137-0.479,0.198c0,0,0,0,0,0c0.836,0.559,1.665,1.113,2.481,1.658
				c0.153-0.066,0.305-0.137,0.454-0.213C66.045,23.023,65.224,22.474,64.397,21.92C64.397,21.92,64.397,21.92,64.397,21.92z"/>
			<path fill="#534741" d="M56.928,26.053c0.709,0.474,1.412,0.943,2.106,1.407v-0.516c-0.694-0.464-1.397-0.933-2.106-1.407V26.053
				z"/>
			<path fill="#534741" d="M56.928,24.268v0.351c0.71,0.475,1.414,0.945,2.11,1.41c0.009-0.172,0.063-0.308,0.163-0.408
				c-0.744-0.497-1.497-1-2.257-1.508C56.934,24.161,56.928,24.212,56.928,24.268z"/>
			<path fill="#534741" d="M58.751,23.346l-1.188,0.262c0.863,0.577,1.717,1.147,2.559,1.71l0.581-0.128
				c-0.842-0.562-1.695-1.133-2.559-1.71L58.751,23.346z"/>
		</g>
		<g>
			<path fill="#534741" d="M9.913,19.019"/>
			<path fill="#534741" d="M11.57,22.997v-0.516c-0.694-0.464-1.398-0.935-2.106-1.408v0.516
				C10.172,22.063,10.876,22.533,11.57,22.997z"/>
			<path fill="#534741" d="M11.57,31.6v-0.516c-0.693-0.463-1.396-0.932-2.106-1.406v0.516C10.174,30.668,10.877,31.138,11.57,31.6z
				"/>
			<path fill="#534741" d="M11.57,24.432v-0.516c-0.694-0.464-1.398-0.934-2.106-1.408v0.516
				C10.172,23.498,10.876,23.968,11.57,24.432z"/>
			<path fill="#534741" d="M11.57,33.033v-0.516c-0.693-0.462-1.396-0.931-2.106-1.406v0.516
				C10.174,32.101,10.877,32.57,11.57,33.033z"/>
			<path fill="#534741" d="M11.57,30.167v-0.516c-0.694-0.463-1.396-0.932-2.106-1.407v0.516
				C10.174,29.235,10.877,29.704,11.57,30.167z"/>
			<path fill="#534741" d="M11.57,25.866V25.35c-0.695-0.464-1.397-0.934-2.106-1.408v0.516
				C10.173,24.933,10.876,25.402,11.57,25.866z"/>
			<path fill="#534741" d="M11.57,28.734v-0.516c-0.694-0.463-1.397-0.933-2.106-1.407v0.516
				C10.173,27.801,10.876,28.271,11.57,28.734z"/>
			<path fill="#534741" d="M11.57,27.3v-0.516c-0.694-0.464-1.397-0.933-2.106-1.407v0.516C10.173,26.367,10.876,26.837,11.57,27.3z
				"/>
			<path fill="#534741" d="M21.86,41.865c0-0.001,0-0.001,0.001-0.002C21.86,41.864,21.86,41.865,21.86,41.865z"/>
			<polygon fill="#534741" points="9.464,38.038 9.464,38.038 9.464,38.038 			"/>
			<path fill="#534741" d="M11.399,38.128c-0.636-0.424-1.281-0.854-1.936-1.29v0.516c0.456,0.304,0.907,0.605,1.354,0.903
				L11.399,38.128z"/>
			<path fill="#534741" d="M21.894,41.71c0.001-0.005,0.002-0.009,0.003-0.014C21.897,41.701,21.895,41.705,21.894,41.71z"/>
			<path fill="#534741" d="M11.57,34.465v-0.516c-0.693-0.462-1.396-0.931-2.106-1.405v0.516
				C10.175,33.534,10.878,34.003,11.57,34.465z"/>
			<path fill="#534741" d="M11.57,21.562v-0.121c0.005-0.132,0.034-0.245,0.086-0.338c-0.723-0.483-1.455-0.973-2.193-1.466v0.516
				C10.172,20.627,10.876,21.098,11.57,21.562z"/>
			<path fill="#534741" d="M14.078,20.369l0.581-0.128c-0.842-0.563-1.696-1.134-2.557-1.71l-0.58,0.128
				C12.382,19.235,13.236,19.806,14.078,20.369z"/>
			<path fill="#534741" d="M9.991,18.997c-0.027,0.006-0.052,0.015-0.077,0.022c0.86,0.575,1.711,1.144,2.551,1.706l0.581-0.128
				c-0.842-0.563-1.696-1.134-2.557-1.71L9.991,18.997z"/>
			<path fill="#534741" d="M15.692,20.012l0.581-0.128c-0.842-0.563-1.696-1.134-2.557-1.71l1.033-0.228
				c0.861,0.576,1.715,1.147,2.557,1.71l0.581-0.128c-0.842-0.563-1.696-1.135-2.557-1.71l1.033-0.228
				c0.86,0.576,1.715,1.147,2.557,1.71l0.58-0.128c-0.842-0.563-1.697-1.135-2.557-1.71l1.033-0.228
				c0.86,0.576,1.715,1.147,2.557,1.71l0.58-0.128c-0.842-0.563-1.696-1.135-2.557-1.71l-5.421,1.198
				C13.996,18.878,14.85,19.449,15.692,20.012z"/>
			<path fill="#534741" d="M18.124,43.124c0.876,0.583,1.732,1.153,2.567,1.708l0.582-0.129c-0.835-0.555-1.691-1.125-2.567-1.708
				L18.124,43.124z"/>
			<path fill="#534741" d="M19.736,42.768c0.876,0.583,1.731,1.152,2.567,1.708l0.582-0.129c-0.835-0.556-1.691-1.125-2.567-1.708
				L19.736,42.768z"/>
			<path fill="#534741" d="M16.513,43.48c0.876,0.583,1.732,1.153,2.567,1.708l0.582-0.129c-0.835-0.555-1.691-1.125-2.567-1.708
				L16.513,43.48z"/>
			<path fill="#534741" d="M11.678,44.548c0.877,0.584,1.734,1.154,2.568,1.708l0.582-0.129c-0.834-0.554-1.69-1.124-2.568-1.708
				l1.03-0.227c0.877,0.584,1.733,1.153,2.567,1.708l0.582-0.129c-0.834-0.555-1.69-1.124-2.568-1.708L11.678,44.548z"/>
			<path fill="#534741" d="M10.692,44.766l-0.626,0.138c0.877,0.584,1.735,1.154,2.568,1.708l0.582-0.129
				c-0.833-0.554-1.69-1.124-2.568-1.708L10.692,44.766z"/>
			<path fill="#534741" d="M14.901,43.836c0.876,0.583,1.733,1.153,2.567,1.708l0.582-0.129c-0.834-0.555-1.691-1.125-2.567-1.708
				L14.901,43.836z"/>
			<path fill="#534741" d="M21.333,42.401c0.825,0.549,1.634,1.088,2.424,1.613c0.103-0.099,0.176-0.222,0.217-0.371
				c-0.737-0.491-1.491-0.993-2.259-1.504C21.621,42.254,21.494,42.341,21.333,42.401z"/>
			<path fill="#534741" d="M21.909,38.082v0.414c0.712,0.475,1.417,0.944,2.106,1.404v-0.516c-0.654-0.435-1.319-0.879-1.992-1.327
				L21.909,38.082z"/>
			<path fill="#534741" d="M21.909,14.119c0.708,0.474,1.41,0.944,2.106,1.41v-0.517c-0.696-0.466-1.399-0.936-2.106-1.41V14.119z"
				/>
			<path fill="#534741" d="M21.909,12.682c0.707,0.474,1.411,0.944,2.106,1.41v-0.517c-0.696-0.466-1.399-0.936-2.106-1.41V12.682z"
				/>
			<path fill="#534741" d="M21.909,15.556c0.707,0.473,1.411,0.944,2.106,1.409v-0.517c-0.696-0.465-1.399-0.936-2.106-1.409V15.556
				z"/>
			<path fill="#534741" d="M8.999,45.14c-0.193,0.043-0.382,0.076-0.57,0.103c0.887,0.59,1.751,1.164,2.591,1.723
				c0.028-0.006,0.056-0.01,0.085-0.017l0.499-0.11c-0.833-0.554-1.69-1.123-2.568-1.708L8.999,45.14z"/>
			<path fill="#534741" d="M21.909,41.356c0.715,0.476,1.417,0.943,2.106,1.403v-0.516c-0.689-0.459-1.393-0.927-2.106-1.403V41.356
				z"/>
			<path fill="#534741" d="M21.909,39.926c0.714,0.476,1.416,0.943,2.106,1.403v-0.516c-0.69-0.459-1.393-0.928-2.106-1.403V39.926z
				"/>
			<path fill="#534741" d="M23.934,17.83c-0.757-0.506-1.524-1.02-2.296-1.536c0,0,0,0,0.001-0.001
				c-0.113,0.104-0.262,0.179-0.446,0.226c0.002-0.001,0.004-0.001,0.007-0.002c0.829,0.555,1.653,1.106,2.466,1.65
				C23.787,18.08,23.877,17.968,23.934,17.83z"/>
			<path fill="#534741" d="M11.57,37.328v-0.516c-0.692-0.461-1.394-0.93-2.106-1.404v0.516
				C10.176,36.398,10.878,36.867,11.57,37.328z"/>
			<path fill="#534741" d="M11.57,35.896V35.38c-0.692-0.461-1.395-0.93-2.106-1.405v0.516
				C10.175,34.966,10.878,35.435,11.57,35.896z"/>
			<path fill="#534741" d="M22.727,18.458c-0.842-0.563-1.696-1.135-2.557-1.71l-0.58,0.128c0.861,0.576,1.715,1.147,2.557,1.71
				L22.727,18.458z"/>
			<path fill="#534741" d="M6.215,45.199c0.001,0,0.002,0,0.002,0.001c0.988,0.658,1.951,1.298,2.883,1.917
				c0.254,0.018,0.515,0.019,0.781,0.004c-0.879-0.584-1.783-1.185-2.713-1.804C6.841,45.303,6.523,45.264,6.215,45.199z"/>
		</g>
		<g>
			<path fill="#534741" d="M29.407,40.631c0.873,0.581,1.729,1.151,2.565,1.708l0.582-0.129c-0.837-0.557-1.692-1.127-2.566-1.708
				L29.407,40.631z"/>
			<path fill="#534741" d="M32.734,14.181C32.734,14.181,32.734,14.18,32.734,14.181c0.79,0.529,1.576,1.054,2.351,1.573
				c0.057-0.029,0.121-0.052,0.193-0.068l0.358-0.079c-0.84-0.562-1.692-1.132-2.549-1.706c0.016-0.005,0.032-0.009,0.048-0.014
				C32.942,13.937,32.807,14.034,32.734,14.181z"/>
			<path fill="#534741" d="M34.772,16.981v-0.516c-0.695-0.465-1.399-0.936-2.106-1.41v0.517
				C33.373,16.045,34.076,16.515,34.772,16.981z"/>
			<path fill="#534741" d="M34.114,13.667c0.86,0.575,1.714,1.147,2.556,1.711l0.58-0.128c-0.842-0.564-1.696-1.135-2.556-1.711
				L34.114,13.667z"/>
			<path fill="#534741" d="M45.319,13.467c-0.842-0.564-1.696-1.135-2.555-1.711l0.19-0.042l-0.77,0.17
				c0.859,0.575,1.713,1.147,2.555,1.711L45.319,13.467z"/>
			<path fill="#534741" d="M34.772,19.852v-0.516c-0.695-0.465-1.398-0.935-2.106-1.409v0.516
				C33.374,18.917,34.076,19.387,34.772,19.852z"/>
			<path fill="#534741" d="M34.772,18.417V17.9c-0.695-0.465-1.399-0.936-2.106-1.409v0.517
				C33.373,17.481,34.076,17.951,34.772,18.417z"/>
			<path fill="#534741" d="M33.908,20.194c-0.412-0.275-0.826-0.553-1.243-0.831v0.516c0.221,0.148,0.442,0.296,0.662,0.443
				L33.908,20.194z"/>
			<path fill="#534741" d="M46.649,10.755c-0.002,0.002-0.005,0.005-0.007,0.007C46.644,10.76,46.647,10.758,46.649,10.755z"/>
			<path fill="#534741" d="M38.283,15.021l0.58-0.128c-0.842-0.564-1.696-1.135-2.556-1.711l1.034-0.228
				c0.859,0.575,1.713,1.147,2.556,1.711l0.58-0.128c-0.843-0.564-1.696-1.135-2.556-1.711l-2.194,0.485
				C36.587,13.886,37.441,14.457,38.283,15.021z"/>
			<path fill="#534741" d="M43.125,13.952l0.58-0.128c-0.842-0.564-1.696-1.135-2.556-1.711l-0.58,0.128
				C41.429,12.816,42.283,13.388,43.125,13.952z"/>
			<path fill="#534741" d="M38.956,12.598c0.859,0.575,1.713,1.147,2.556,1.711l0.58-0.128c-0.842-0.564-1.696-1.135-2.556-1.711
				L38.956,12.598z"/>
			<path fill="#534741" d="M43.333,24.534c0.004-0.002,0.007-0.005,0.01-0.007C43.34,24.529,43.337,24.532,43.333,24.534z"/>
			<path fill="#534741" d="M43.169,24.614c0.008-0.003,0.015-0.007,0.023-0.011C43.184,24.607,43.177,24.611,43.169,24.614z"/>
			<path fill="#534741" d="M43.472,24.43C43.471,24.43,43.471,24.43,43.472,24.43C43.471,24.43,43.471,24.43,43.472,24.43z"/>
			<path fill="#534741" d="M27.795,40.987c0.873,0.582,1.729,1.151,2.566,1.708l0.582-0.129c-0.836-0.557-1.692-1.127-2.566-1.708
				L27.795,40.987z"/>
			<path fill="#534741" d="M36.755,26.046l-2.81,0.621l0.217-0.048c0.864,0.577,1.718,1.148,2.56,1.71l0.581-0.128
				c-0.841-0.562-1.695-1.132-2.56-1.71l1.032-0.228c0.864,0.577,1.718,1.148,2.559,1.71l0.581-0.128
				c-0.841-0.562-1.695-1.132-2.56-1.71L36.755,26.046z"/>
			<path fill="#534741" d="M43.74,22.978c0.709,0.474,1.412,0.944,2.106,1.408V23.87c-0.695-0.464-1.397-0.934-2.106-1.408V22.978z"
				/>
			<path fill="#534741" d="M43.74,21.543c0.708,0.474,1.412,0.944,2.106,1.408v-0.516c-0.695-0.464-1.398-0.935-2.106-1.408V21.543z
				"/>
			<path fill="#534741" d="M42.861,24.697l-1.565,0.346l0.931-0.206c0.864,0.577,1.717,1.147,2.559,1.71l0.3-0.066
				c0.092-0.02,0.173-0.05,0.248-0.084c-0.831-0.555-1.674-1.118-2.527-1.688L42.861,24.697z"/>
			<path fill="#534741" d="M38.436,25.674l-1.048,0.231c0.864,0.577,1.718,1.148,2.559,1.71l0.581-0.128
				c-0.841-0.562-1.696-1.133-2.559-1.71L38.436,25.674z"/>
			<path fill="#534741" d="M39.001,25.549c0.864,0.578,1.718,1.148,2.559,1.71l0.581-0.128c-0.842-0.562-1.695-1.132-2.559-1.71
				l1.033-0.228c0.864,0.577,1.717,1.148,2.559,1.71l0.581-0.128c-0.842-0.562-1.695-1.132-2.559-1.71L39.001,25.549z"/>
			<path fill="#534741" d="M43.739,23.736c-0.002,0.231-0.056,0.42-0.16,0.569c0,0,0,0,0,0c0.753,0.503,1.501,1.003,2.238,1.495
				c0.018-0.082,0.029-0.17,0.029-0.266v-0.23c-0.697-0.466-1.405-0.939-2.117-1.415C43.735,23.84,43.739,23.789,43.739,23.736z"/>
			<path fill="#534741" d="M46.904,7.858c0.707,0.474,1.41,0.945,2.106,1.411V8.752c-0.697-0.467-1.4-0.938-2.106-1.411V7.858z"/>
			<path fill="#534741" d="M43.797,11.528c0.859,0.575,1.713,1.147,2.555,1.711l0.58-0.128c-0.843-0.564-1.696-1.136-2.555-1.711
				L43.797,11.528z"/>
			<path fill="#534741" d="M46.904,9.296c0.707,0.474,1.41,0.944,2.106,1.411V10.19c-0.696-0.466-1.399-0.937-2.106-1.411V9.296z"/>
			<path fill="#534741" d="M45.411,11.171c0.859,0.575,1.713,1.147,2.555,1.711l0.285-0.063c0.097-0.021,0.182-0.053,0.26-0.089
				c-0.831-0.556-1.673-1.12-2.52-1.687L45.411,11.171z"/>
			<path fill="#534741" d="M46.752,10.631L46.752,10.631c0.75,0.502,1.495,1.001,2.232,1.495c0.016-0.079,0.026-0.161,0.026-0.253
				v-0.246c-0.699-0.468-1.406-0.941-2.116-1.417C46.877,10.375,46.829,10.515,46.752,10.631z"/>
			<path fill="#534741" d="M32.719,27.179c0.01-0.024,0.021-0.046,0.034-0.068c0.801,0.535,1.593,1.064,2.374,1.585
				c0.047-0.02,0.096-0.037,0.152-0.049l0.411-0.091c-0.84-0.561-1.693-1.131-2.557-1.708
				C32.926,26.903,32.788,27.014,32.719,27.179z"/>
			<path fill="#534741" d="M32.665,35.649c0.712,0.475,1.415,0.943,2.106,1.404v-0.516c-0.692-0.461-1.395-0.93-2.106-1.405V35.649z
				"/>
			<path fill="#534741" d="M32.665,37.081c0.712,0.475,1.415,0.943,2.106,1.404v-0.516c-0.691-0.461-1.394-0.929-2.106-1.404V37.081
				z"/>
			<path fill="#534741" d="M32.665,32.785c0.711,0.474,1.414,0.943,2.106,1.405v-0.516c-0.692-0.462-1.395-0.931-2.106-1.405V32.785
				z"/>
			<path fill="#534741" d="M32.665,34.218c0.712,0.475,1.414,0.943,2.106,1.405v-0.516c-0.692-0.462-1.395-0.93-2.106-1.405V34.218z
				"/>
			<path fill="#534741" d="M32.665,38.511c0.713,0.475,1.416,0.944,2.106,1.404v-0.516c-0.691-0.46-1.394-0.929-2.106-1.404V38.511z
				"/>
			<path fill="#534741" d="M32.442,39.793c0.772,0.514,1.532,1.02,2.276,1.516c0.035-0.108,0.054-0.23,0.054-0.366v-0.114
				c-0.7-0.466-1.413-0.941-2.137-1.423C32.601,39.559,32.537,39.688,32.442,39.793z"/>
			<path fill="#534741" d="M32.665,31.353c0.711,0.474,1.414,0.943,2.106,1.406v-0.516c-0.693-0.463-1.396-0.932-2.106-1.406V31.353
				z"/>
			<path fill="#534741" d="M31.019,40.275c0.873,0.581,1.729,1.151,2.565,1.708l0.428-0.095c0.051-0.011,0.097-0.026,0.142-0.041
				c-0.833-0.555-1.685-1.122-2.554-1.701L31.019,40.275z"/>
			<path fill="#534741" d="M32.712,27.197c-0.008,0.021-0.015,0.042-0.021,0.064C32.697,27.239,32.704,27.218,32.712,27.197z"/>
			<path fill="#534741" d="M32.682,27.304c-0.003,0.017-0.007,0.034-0.009,0.053C32.675,27.339,32.678,27.322,32.682,27.304z"/>
			<path fill="#534741" d="M32.665,29.92c0.71,0.474,1.413,0.943,2.106,1.406V30.81c-0.693-0.463-1.396-0.932-2.106-1.406V29.92z"/>
			<path fill="#534741" d="M32.665,28.487c0.71,0.474,1.413,0.943,2.106,1.407v-0.516c-0.694-0.463-1.396-0.932-2.106-1.407V28.487z
				"/>
		</g>
	</g>
	<g>
		<path fill="#372F2A" d="M7.594,37.365c0.014,0.343,0.19,0.476,0.527,0.402l11.159-2.465c0.506-0.112,0.76,0.091,0.76,0.61v4.926
			c0,0.518-0.253,0.834-0.76,0.946L7.13,44.467c-1.969,0.435-3.649,0.093-5.042-1.025C0.696,42.324,0,40.757,0,38.741V20.94
			c0-2.016,0.696-3.891,2.088-5.625c1.392-1.733,3.073-2.817,5.042-3.253l12.15-2.684c0.506-0.112,0.76,0.091,0.76,0.61v4.926
			c0,0.518-0.253,0.834-0.76,0.946L8.121,18.324c-0.338,0.074-0.514,0.286-0.527,0.635V37.365z"/>
		<path fill="#372F2A" d="M23.202,40.139V9.29c0-0.518,0.253-0.834,0.759-0.946l20.314-4.488c0.506-0.112,0.759,0.091,0.759,0.61
			v4.926c0,0.518-0.253,0.834-0.759,0.946l-12.973,2.866c-0.338,0.074-0.506,0.285-0.506,0.63v5.444
			c0,0.346,0.169,0.481,0.506,0.407l9.809-2.167c0.506-0.112,0.759,0.091,0.759,0.61v4.926c0,0.518-0.253,0.834-0.759,0.946
			l-9.809,2.167c-0.338,0.074-0.506,0.285-0.506,0.63v11.666c0,0.518-0.253,0.834-0.759,0.945l-6.075,1.342
			C23.455,40.861,23.202,40.657,23.202,40.139z"/>
		<path fill="#372F2A" d="M68.031,12.909c0,2.016-0.696,3.891-2.088,5.625c-1.392,1.733-3.073,2.818-5.042,3.253l-5.337,1.179
			c-0.338,0.074-0.506,0.285-0.506,0.63v9.505c0,0.518-0.253,0.834-0.759,0.945l-6.075,1.342c-0.506,0.112-0.759-0.092-0.759-0.61
			V3.929c0-0.518,0.253-0.834,0.759-0.945l12.678-2.801c1.969-0.435,3.649-0.093,5.042,1.025c1.392,1.118,2.088,2.686,2.088,4.702
			V12.909z M55.058,8.149v8.144c0,0.346,0.169,0.481,0.506,0.407l3.396-0.75c0.984-0.217,1.477-0.83,1.477-1.839V7.954
			c0-1.008-0.492-1.403-1.477-1.186l-3.396,0.75C55.227,7.593,55.058,7.803,55.058,8.149z"/>
	</g>
	<g>
		<path fill="#372F2A" d="M1.555,53.632c0.345-0.054,0.642,0.012,0.889,0.201c0.248,0.188,0.372,0.459,0.372,0.812
			c0,0.375-0.124,0.712-0.372,1.01c-0.248,0.297-0.544,0.485-0.889,0.561c-0.366,0.081-0.674,0.027-0.922-0.161
			c-0.248-0.189-0.372-0.47-0.372-0.845c0-0.353,0.124-0.679,0.372-0.977c0.248-0.298,0.555-0.487,0.922-0.568V53.632z
			 M2.492,79.957l-1.714,0.379V57.016l1.714-0.379V79.957z"/>
		<path fill="#372F2A" d="M6.697,68.773v10.401L4.951,79.56V69.159l-1.552,0.343v-1.656l1.552-0.343V53.028l3.461-0.765
			c0.129-0.029,0.259-0.051,0.388-0.069c0.129-0.017,0.259-0.041,0.388-0.069c0.561-0.035,1.078,0.088,1.552,0.369
			c0.474,0.282,0.712,0.952,0.712,2.012v10.467c0,0.773-0.243,1.478-0.728,2.115c-0.485,0.637-1.267,1.075-2.345,1.313L6.697,68.773
			z M9.301,53.988c-0.27-0.095-0.566-0.107-0.889-0.035l-1.714,0.379v12.786l1.65-0.364c0.366-0.081,0.684-0.239,0.954-0.476
			c0.269-0.236,0.404-0.542,0.404-0.917V54.892C9.705,54.385,9.571,54.083,9.301,53.988z"/>
		<path fill="#372F2A" d="M16.335,66.644l-1.844,0.407l-1.197,10.665l-1.714,0.379l1.197-10.665l-1.326,0.293v-1.656l1.552-0.343
			l1.747-14.861l1.488-0.329l2.976,25.875l-1.617,0.357L16.335,66.644z M14.653,65.359l1.488-0.329l-0.679-6.74L14.653,65.359z"/>
		<path fill="#372F2A" d="M26.234,65.815c0-0.044,0-0.094,0-0.149c0-0.055-0.011-0.113-0.032-0.175
			c-0.043-0.255-0.162-0.466-0.356-0.634c-0.194-0.167-0.475-0.21-0.841-0.129l-1.876,0.414v10.401c0-0.022-0.124-0.006-0.372,0.049
			c-0.248,0.055-0.523,0.116-0.825,0.182c-0.086,0.019-0.173,0.038-0.259,0.057c-0.086,0.019-0.173,0.038-0.259,0.057V65.488
			l-1.488,0.329v-1.623l1.488-0.329V49.39l3.655-0.807c0.797-0.176,1.477-0.045,2.038,0.394c0.56,0.439,0.841,1.068,0.841,1.884
			v10.5c0,0.353-0.06,0.709-0.178,1.066c-0.119,0.357-0.286,0.682-0.501,0.972c0.215,0.173,0.383,0.412,0.501,0.717
			c0.118,0.305,0.178,0.745,0.178,1.319v6.028c0,0.331,0.092,0.571,0.275,0.718c0.183,0.147,0.383,0.23,0.598,0.249
			c0.173,0.028,0.34,0.03,0.502,0.005c0.162-0.024,0.275-0.044,0.34-0.058c0.021-0.005,0.043-0.01,0.065-0.014v1.789
			c-0.022-0.017-0.048-0.022-0.081-0.015c-0.032,0.007-0.07,0.015-0.113,0.025c-0.82,0.115-1.574,0.083-2.264-0.096
			c-0.69-0.179-1.035-0.919-1.035-2.222V65.815z M25.927,50.447c-0.226-0.193-0.501-0.254-0.825-0.182l-2.005,0.443v12.786
			l1.876-0.415c0.366-0.081,0.674-0.237,0.922-0.469c0.248-0.231,0.372-0.524,0.372-0.877v-10.5
			C26.266,50.902,26.153,50.64,25.927,50.447z"/>
		<path fill="#372F2A" d="M34.673,72.993l-1.779,0.393V48.544L30.5,49.072v-1.689l6.469-1.429v1.689l-2.296,0.507V72.993z"/>
		<path fill="#372F2A" d="M37.941,45.739l1.779-0.393v26.532l-1.779,0.393V45.739z"/>
		<path fill="#372F2A" d="M43.665,71.039c-0.82,0.137-1.548,0.088-2.183-0.147c-0.636-0.235-0.954-0.948-0.954-2.141V48.082
			c0-0.971,0.323-1.772,0.97-2.401c0.647-0.628,1.358-1.029,2.135-1.2c0.021-0.005,0.037-0.008,0.049-0.011
			c0.011-0.002,0.027-0.006,0.049-0.011c0.776-0.149,1.488-0.014,2.135,0.406c0.647,0.42,0.97,1.028,0.97,1.823v3.18l-1.617,0.357
			v-3.18c0-0.353-0.157-0.617-0.469-0.791c-0.313-0.174-0.685-0.213-1.116-0.118c-0.475,0.105-0.804,0.266-0.986,0.483
			c-0.184,0.218-0.307,0.432-0.372,0.645c0,0.089-0.006,0.167-0.016,0.235c-0.011,0.069-0.016,0.136-0.016,0.202v20.702
			c0,0.42,0.129,0.712,0.388,0.875c0.259,0.164,0.539,0.234,0.841,0.212c0.043-0.009,0.081-0.018,0.113-0.025
			c0.032-0.007,0.07-0.015,0.113-0.025c0.409-0.09,0.781-0.294,1.116-0.611c0.334-0.317,0.501-0.707,0.501-1.171V64.58l1.682-0.372
			v3.114c0,0.795-0.329,1.558-0.987,2.288c-0.658,0.731-1.407,1.189-2.248,1.374c-0.022,0.005-0.038,0.008-0.049,0.011
			c-0.011,0.003-0.027,0.006-0.049,0.011V71.039z"/>
		<path fill="#372F2A" d="M48.029,43.51l1.779-0.393v26.532l-1.779,0.393V43.51z"/>
		<path fill="#372F2A" d="M53.851,58.355v10.401l-1.747,0.386V58.741l-1.552,0.343v-1.656l1.552-0.343V42.61l3.461-0.765
			c0.129-0.029,0.259-0.051,0.388-0.069c0.129-0.017,0.259-0.041,0.388-0.069c0.56-0.035,1.078,0.088,1.553,0.369
			c0.474,0.282,0.712,0.952,0.712,2.012v10.467c0,0.773-0.243,1.478-0.728,2.115c-0.485,0.637-1.267,1.075-2.345,1.313
			L53.851,58.355z M56.455,43.57c-0.27-0.095-0.566-0.107-0.889-0.035l-1.714,0.379v12.786l1.649-0.364
			c0.366-0.081,0.684-0.239,0.954-0.476c0.269-0.236,0.404-0.542,0.404-0.917V44.474C56.859,43.967,56.724,43.665,56.455,43.57z"/>
		<path fill="#372F2A" d="M63.491,56.225l-1.844,0.407l-1.197,10.665l-1.714,0.379l1.197-10.665l-1.326,0.293v-1.656l1.552-0.343
			l1.747-14.861l1.488-0.329l2.976,25.875l-1.617,0.357L63.491,56.225z M61.809,54.941l1.488-0.329l-0.679-6.74L61.809,54.941z"/>
		<path fill="#372F2A" d="M68.211,65.583c-0.345,0.054-0.642-0.012-0.89-0.201c-0.248-0.188-0.372-0.459-0.372-0.812
			c0-0.375,0.124-0.712,0.372-1.01c0.248-0.297,0.544-0.485,0.89-0.561c0.366-0.081,0.674-0.027,0.922,0.161
			c0.248,0.189,0.372,0.47,0.372,0.845c0,0.353-0.124,0.679-0.372,0.977c-0.248,0.298-0.555,0.487-0.922,0.568V65.583z
			 M67.273,39.259l1.714-0.379v23.319l-1.714,0.379V39.259z"/>
	</g>
</g>
</svg>
