<?xml version="1.0" encoding="utf-8"?>
<!-- Generator: Adobe Illustrator 17.0.2, SVG Export Plug-In . SVG Version: 6.00 Build 0)  -->
<!DOCTYPE svg PUBLIC "-//W3C//DTD SVG 1.1//EN" "http://www.w3.org/Graphics/SVG/1.1/DTD/svg11.dtd">
<svg version="1.1" xmlns="http://www.w3.org/2000/svg" xmlns:xlink="http://www.w3.org/1999/xlink" x="0px" y="0px"
	 width="76.095px" height="74.852px" viewBox="0 0 76.095 74.852" enable-background="new 0 0 76.095 74.852" xml:space="preserve">
<g id="Capa_1">
</g>
<g id="Capa_2">
	<g>
		<g>
			<g>
				<path fill="#534741" d="M8.642,48.137c1.041-0.23,1.93-0.049,2.666,0.542c0.736,0.591,1.105,1.42,1.105,2.487v1.302
					c0,1.066-0.368,2.058-1.105,2.975c-0.074,0.093-0.149,0.177-0.223,0.255v0.012c0.216,0.097,0.42,0.22,0.614,0.367
					c0.736,0.584,1.105,1.42,1.105,2.509v1.908c0,1.066-0.368,2.058-1.105,2.975c-0.736,0.917-1.625,1.49-2.666,1.72l-7.095,1.568
					c-0.268,0.059-0.402-0.049-0.402-0.323V50.118c0-0.274,0.134-0.441,0.402-0.5L8.642,48.137z M5.552,52.521v2.879
					c0,0.183,0.089,0.254,0.268,0.215l1.796-0.397c0.521-0.115,0.781-0.439,0.781-0.972v-1.828c0-0.533-0.26-0.742-0.781-0.627
					L5.82,52.188C5.641,52.227,5.552,52.339,5.552,52.521z M5.552,59.377v2.879c0,0.183,0.089,0.254,0.268,0.215l1.908-0.421
					c0.706-0.156,1.06-0.539,1.06-1.148v-1.6c0-0.609-0.297-0.848-0.892-0.717L5.82,59.043C5.641,59.082,5.552,59.194,5.552,59.377z
					"/>
				<path fill="#534741" d="M25.476,57.694c0,1.066-0.368,2.058-1.105,2.974c-0.736,0.917-1.625,1.49-2.666,1.72l-3.458,0.764
					c-1.041,0.23-1.93,0.049-2.666-0.542c-0.736-0.591-1.105-1.42-1.105-2.487v-9.414c0-1.066,0.368-2.058,1.105-2.975
					c0.736-0.917,1.625-1.49,2.666-1.72l3.458-0.764c1.041-0.23,1.93-0.049,2.666,0.542c0.736,0.592,1.105,1.42,1.105,2.487V57.694z
					 M18.493,58.642c0,0.686,0.335,0.954,1.004,0.806l0.96-0.212c0.669-0.148,1.004-0.565,1.004-1.25V49.76
					c0-0.686-0.335-0.954-1.004-0.806l-0.96,0.212c-0.669,0.148-1.004,0.565-1.004,1.25V58.642z"/>
				<path fill="#534741" d="M28.25,59.811c-0.736-0.591-1.105-1.42-1.105-2.487V44.46c0-0.274,0.115-0.437,0.346-0.488l3.269-0.722
					c0.268-0.059,0.402,0.048,0.402,0.322V56.46c0,0.274,0.134,0.382,0.402,0.322l7.118-1.573c0.268-0.059,0.402,0.049,0.402,0.323
					v2.605c0,0.274-0.134,0.441-0.402,0.5l-7.765,1.716C29.875,60.583,28.987,60.402,28.25,59.811z"/>
				<path fill="#534741" d="M40.371,54.403V41.538c0-0.274,0.134-0.441,0.402-0.5l9.237-2.041c0.268-0.059,0.402,0.048,0.402,0.322
					v2.605c0,0.274-0.134,0.441-0.402,0.5l-5.355,1.183c-0.179,0.039-0.268,0.15-0.268,0.333v2.879c0,0.183,0.089,0.255,0.268,0.215
					l4.462-0.986c0.268-0.059,0.402,0.048,0.402,0.322v2.605c0,0.274-0.134,0.441-0.402,0.5l-4.462,0.986
					c-0.179,0.039-0.268,0.15-0.268,0.333v1.668c0,0.99,0.483,1.378,1.45,1.165l4.451-0.983c0.268-0.059,0.402,0.048,0.402,0.322
					v2.605c0,0.274-0.134,0.441-0.402,0.5l-6.147,1.358c-1.041,0.23-1.93,0.049-2.666-0.542
					C40.74,56.298,40.371,55.469,40.371,54.403z"/>
				<path fill="#534741" d="M55.254,41.266l-2.878,0.636c-0.268,0.059-0.402-0.044-0.402-0.311v-2.617
					c0-0.274,0.134-0.441,0.402-0.5l10.286-2.273c0.268-0.059,0.402,0.048,0.402,0.322v2.617c0,0.267-0.134,0.43-0.402,0.489
					l-2.856,0.631c-0.178,0.039-0.268,0.15-0.268,0.333v13.025c0,0.274-0.13,0.44-0.391,0.498l-3.224,0.712
					c-0.268,0.059-0.402-0.048-0.402-0.322V41.481C55.522,41.298,55.433,41.226,55.254,41.266z"/>
				<path fill="#534741" d="M75.343,46.676c0,1.066-0.368,2.058-1.104,2.975c-0.736,0.917-1.625,1.49-2.666,1.72l-3.459,0.764
					c-1.041,0.23-1.93,0.049-2.666-0.542c-0.736-0.591-1.104-1.42-1.104-2.487v-9.414c0-1.066,0.368-2.058,1.104-2.975
					c0.736-0.917,1.625-1.49,2.666-1.72l3.459-0.764c1.041-0.23,1.93-0.049,2.666,0.542c0.736,0.591,1.104,1.42,1.104,2.487V46.676z
					 M68.359,47.625c0,0.686,0.335,0.954,1.004,0.806l0.96-0.212c0.669-0.148,1.004-0.565,1.004-1.25v-8.226
					c0-0.686-0.335-0.954-1.004-0.806l-0.96,0.212c-0.669,0.148-1.004,0.565-1.004,1.25V47.625z"/>
			</g>
		</g>
		<g>
			<g>
				<path fill="#534741" d="M4.559,44.224c-0.935,0.147-1.764,0.085-2.486-0.189c-0.723-0.274-1.077-1.09-1.065-2.449L1.215,18.04
					c0.01-1.107,0.386-2.015,1.129-2.725c0.743-0.709,1.558-1.158,2.444-1.346c0.024-0.005,0.043-0.009,0.056-0.012
					c0.012-0.003,0.03-0.006,0.055-0.012c0.886-0.162,1.695-0.001,2.428,0.484c0.733,0.485,1.095,1.181,1.087,2.086l-0.032,3.622
					l-1.846,0.391l0.032-3.622c0.004-0.402-0.172-0.704-0.526-0.905c-0.354-0.201-0.778-0.25-1.27-0.145
					c-0.542,0.115-0.918,0.295-1.129,0.54c-0.211,0.246-0.354,0.489-0.43,0.731c-0.001,0.101-0.008,0.19-0.021,0.268
					c-0.014,0.078-0.02,0.155-0.021,0.23L2.964,41.209c-0.004,0.478,0.14,0.812,0.433,1c0.293,0.189,0.611,0.273,0.956,0.25
					c0.049-0.01,0.093-0.019,0.129-0.027c0.037-0.008,0.08-0.017,0.129-0.027c0.467-0.099,0.893-0.327,1.277-0.685
					c0.384-0.357,0.578-0.8,0.583-1.329l0.031-3.509l1.92-0.407l-0.031,3.547c-0.008,0.905-0.39,1.772-1.147,2.597
					c-0.757,0.826-1.615,1.34-2.575,1.543c-0.025,0.005-0.043,0.009-0.056,0.011c-0.013,0.003-0.031,0.007-0.055,0.012L4.559,44.224
					z"/>
				<path fill="#534741" d="M13.231,42.312c-0.984,0.183-1.862,0.131-2.634-0.158c-0.771-0.289-1.151-1.112-1.139-2.471
					l0.207-23.508c0.009-0.956,0.397-1.829,1.166-2.619c0.768-0.79,1.67-1.295,2.703-1.514c1.009-0.214,1.874-0.077,2.594,0.411
					c0.72,0.488,1.077,1.198,1.068,2.128l-0.207,23.546c-0.012,1.334-0.377,2.302-1.094,2.906c-0.718,0.604-1.519,1-2.406,1.187
					c-0.025,0.005-0.062,0.013-0.111,0.023c-0.025,0.005-0.05,0.01-0.074,0.016c-0.025,0.005-0.05,0.011-0.074,0.016L13.231,42.312z
					 M14.786,14.149c-0.281-0.191-0.594-0.276-0.937-0.253c-0.049-0.014-0.105-0.016-0.166-0.003
					c-0.062,0.013-0.117,0.025-0.166,0.035c-0.05,0.01-0.092,0.019-0.129,0.027c-0.037,0.008-0.08,0.03-0.13,0.065
					c-0.395,0.134-0.753,0.361-1.075,0.68c-0.322,0.32-0.485,0.655-0.488,1.007l-0.207,23.546c-0.004,0.503,0.152,0.866,0.47,1.087
					c0.317,0.222,0.747,0.275,1.288,0.16c0.541-0.115,0.967-0.349,1.277-0.704c0.31-0.354,0.467-0.77,0.472-1.248l0.207-23.546
					C15.206,14.625,15.067,14.341,14.786,14.149z"/>
				<path fill="#534741" d="M30.056,18.939l-4.531,20.808l-1.329,0.281l-3.964-18.52l-0.171,19.395l-1.993,0.422l0.266-30.225
					l1.846-0.391l4.73,23.556l5.422-25.705l1.772-0.375l-0.266,30.225l-1.957,0.414L30.056,18.939z"/>
				<path fill="#534741" d="M36.596,25.577l-0.104,11.849l-1.993,0.422l0.104-11.848l-1.772,0.375l0.017-1.887l1.772-0.375
					l0.145-16.49l3.95-0.836c0.148-0.031,0.295-0.056,0.443-0.075c0.148-0.018,0.295-0.044,0.443-0.075
					c0.639-0.035,1.227,0.111,1.765,0.436c0.537,0.326,0.801,1.092,0.79,2.3L42.05,21.296c-0.008,0.881-0.291,1.681-0.85,2.402
					c-0.559,0.721-1.454,1.212-2.685,1.472L36.596,25.577z M39.71,8.76c-0.306-0.111-0.644-0.127-1.013-0.049l-1.957,0.414
					L36.612,23.69l1.883-0.398c0.418-0.089,0.782-0.266,1.092-0.532c0.309-0.266,0.466-0.613,0.47-1.041l0.105-11.924
					C40.167,9.215,40.016,8.871,39.71,8.76z"/>
				<path fill="#534741" d="M49.912,24.302c0-0.05,0.001-0.107,0.001-0.17c0-0.063-0.011-0.13-0.035-0.2
					c-0.047-0.291-0.18-0.533-0.399-0.725c-0.219-0.192-0.538-0.244-0.957-0.155l-2.141,0.453l-0.104,11.848
					c0-0.025-0.142-0.008-0.424,0.052c-0.283,0.06-0.597,0.126-0.941,0.199c-0.099,0.021-0.197,0.042-0.295,0.063
					c-0.099,0.021-0.197,0.042-0.295,0.062l0.104-11.848l-1.698,0.36l0.016-1.849l1.698-0.36l0.145-16.49l4.171-0.883
					c0.911-0.193,1.683-0.036,2.318,0.47c0.634,0.506,0.948,1.225,0.939,2.155L51.91,19.246c-0.004,0.403-0.075,0.807-0.214,1.213
					c-0.139,0.406-0.333,0.774-0.581,1.102c0.243,0.2,0.431,0.474,0.564,0.822c0.131,0.349,0.195,0.85,0.189,1.504l-0.06,6.868
					c-0.003,0.377,0.098,0.651,0.306,0.82c0.207,0.17,0.433,0.266,0.679,0.29c0.196,0.034,0.386,0.038,0.571,0.011
					c0.184-0.026,0.313-0.048,0.387-0.063c0.024-0.005,0.049-0.01,0.074-0.016l-0.018,2.038c-0.025-0.02-0.055-0.026-0.092-0.018
					c-0.037,0.008-0.08,0.017-0.129,0.027c-0.935,0.123-1.794,0.079-2.578-0.132c-0.784-0.21-1.17-1.058-1.157-2.542L49.912,24.302z
					 M49.716,6.792c-0.256-0.222-0.569-0.294-0.938-0.216L46.49,7.061l-0.128,14.566l2.141-0.453
					c0.418-0.089,0.77-0.263,1.055-0.525c0.284-0.261,0.429-0.593,0.432-0.996l0.105-11.962C50.098,7.314,49.972,7.015,49.716,6.792
					z"/>
				<path fill="#534741" d="M60.257,20.567l-2.104,0.446l-1.47,12.138l-1.957,0.414l1.47-12.138l-1.514,0.32l0.017-1.887
					l1.772-0.375L58.61,2.574l1.698-0.36l3.13,29.506l-1.845,0.391L60.257,20.567z M58.354,19.087l1.698-0.36l-0.706-7.684
					L58.354,19.087z"/>
				<path fill="#534741" d="M71.543,19.722c0-0.05,0.001-0.107,0.001-0.17c0.001-0.063-0.011-0.13-0.035-0.2
					c-0.047-0.291-0.18-0.533-0.399-0.725c-0.219-0.192-0.538-0.244-0.957-0.155l-2.141,0.453l-0.104,11.849
					c0-0.025-0.142-0.008-0.424,0.052c-0.283,0.06-0.597,0.126-0.941,0.199c-0.099,0.021-0.197,0.042-0.295,0.062
					c-0.099,0.021-0.197,0.042-0.295,0.063l0.104-11.848l-1.698,0.36l0.016-1.849l1.698-0.36l0.145-16.49L70.39,0.08
					c0.91-0.193,1.683-0.036,2.317,0.47c0.634,0.506,0.948,1.225,0.94,2.155l-0.105,11.962c-0.003,0.403-0.075,0.807-0.213,1.213
					c-0.139,0.406-0.333,0.774-0.581,1.102c0.243,0.2,0.432,0.474,0.564,0.822c0.132,0.349,0.195,0.85,0.189,1.504l-0.06,6.868
					c-0.003,0.377,0.098,0.651,0.306,0.82c0.207,0.17,0.434,0.266,0.679,0.289c0.196,0.034,0.386,0.038,0.571,0.011
					c0.184-0.026,0.313-0.048,0.387-0.063c0.024-0.005,0.049-0.01,0.074-0.016l-0.018,2.038c-0.025-0.02-0.055-0.026-0.092-0.018
					c-0.037,0.008-0.08,0.017-0.129,0.027c-0.935,0.122-1.794,0.078-2.578-0.132c-0.785-0.21-1.17-1.058-1.157-2.542L71.543,19.722z
					 M71.347,2.212c-0.256-0.222-0.569-0.294-0.938-0.216l-2.289,0.485l-0.128,14.566l2.141-0.453
					c0.418-0.089,0.77-0.263,1.055-0.525c0.284-0.261,0.429-0.593,0.433-0.996l0.105-11.962C71.73,2.734,71.603,2.434,71.347,2.212z
					"/>
			</g>
		</g>
		<polygon fill="#534741" points="76.095,55.787 0,72.499 0,74.852 76.095,58.141 		"/>
	</g>
</g>
</svg>
