<svg xmlns="http://www.w3.org/2000/svg" width="77.56" viewBox="76.382 169.679 77.558 32.638" enable-background="new 76.382 169.679 77.558 32.638"><g fill="#524640"><path d="m100.74 198.36h.878v3.883h-.878z"/><path d="m109.36 199.13h1.19v3.11h.88v-3.11h1.18v-.77h-3.25z"/><path d="m115.59 200.65h1.47v-.77h-1.47v-.75h1.71v-.77h-2.59v3.88h2.69v-.76h-1.81z"/><path d="m135.91 199.13h1.19v3.11h.88v-3.11h1.18v-.77h-3.25z"/><path d="m141.42 198.36h.878v3.883h-.878z"/><path d="m151.07 200.65h1.47v-.77h-1.47v-.75h1.71v-.77h-2.58v3.88h2.68v-.76h-1.81z"/><path d="m132.12 199.13c.428 0 .824.233 1.032.608l.03.055h.881l-.046-.139c-.28-.807-1.042-1.351-1.897-1.351-1.108 0-2.01.9-2.01 2.01 0 1.107.9 2.01 2.01 2.01.854 0 1.617-.542 1.897-1.351l.046-.136h-.883l-.029.053c-.208.375-.604.606-1.032.606-.65 0-1.181-.529-1.181-1.179.001-.65.531-1.181 1.182-1.181"/><path d="m106.75 200.75l-1.66-2.39h-.88v3.88h.88v-2.39l1.64 2.39h.02.88v-3.88h-.88z"/><path d="m122.68 199.79c0-.785-.632-1.418-1.413-1.425v-.003h-1.484v.001 3.882h.881v-1.03h.241l.727 1.03h1.062l-.824-1.173c.476-.231.81-.716.81-1.282m-1.422.543h-.595v-1.089h.595v.002c.299.003.541.245.541.544 0 .299-.241.541-.541.543"/><path d="m126.06 198.36l-1.54 3.883h.956l.354-.887h1.277l.353.887h.956l-1.54-3.883h-.816m.099 2.159l.309-.776.308.776h-.617"/><path d="m146.24 200.86l-.99-2.5h-.96l1.54 3.88h.82l1.54-3.88h-.96z"/><path d="m96.16 188.98c-.132.249-.297.479-.513.695-.479.498-1.091.746-1.803.746s-1.308-.248-1.804-.746c-.48-.479-.728-1.09-.728-1.787 0-.711.247-1.307.728-1.819.497-.497 1.092-.745 1.804-.745s1.323.248 1.803.745c.216.216.381.462.531.728h4.699c-.215-1.505-.893-2.796-2.035-3.905-1.192-1.208-2.609-1.888-4.239-2.047-.233-.019-.473-.03-.724-.036-.002 0-.003 0-.006 0-.012 0-.024 0-.037-.002-1.949.003-3.601.697-4.988 2.085-1.391 1.373-2.069 3.045-2.069 4.997 0 1.954.678 3.625 2.069 4.999.41.407.842.756 1.297 1.041 1.021.612 2.21.979 3.478 1.022.06.002.12.004.18.004.018 0 .035 0 .054 0 1.947-.002 3.615-.681 4.986-2.067 1.142-1.109 1.804-2.417 2.035-3.906h-4.718z"/><path d="m147.54 194.39c.013 0 .028-.003.041-.003h.001c.002 0 .002 0 .002 0 1.706-.055 3.197-.686 4.418-1.92 1.31-1.279 1.939-2.831 1.939-4.647 0-1.817-.63-3.354-1.939-4.648-1.23-1.244-2.723-1.876-4.462-1.938h-3.3-1.273-3.53l-1.641 5.343-1.63-5.31.012-.033h-.021-4.783-.021l.01.033-1.628 5.309-1.642-5.342h-4.803l.722 2.353c-.191-.24-.399-.472-.629-.696-1.355-1.389-3.03-2.082-4.99-2.084h-.002-.004-.003c-1.951 0-3.622.696-4.996 2.084-.591.583-1.053 1.22-1.394 1.91-.161-.856-.568-1.606-1.227-2.253-.784-.801-1.723-1.233-2.815-1.31h-7.386c1.693 1.712 2.741 4.064 2.741 6.661 0 2.513-.982 4.797-2.58 6.492h4.502v-3.553l2.029 3.553h4.847l-2.369-4.199c.17-.125.492-.369.938-.753.262-.218.479-.483.666-.783.161 1.626.843 3.041 2.047 4.232 1.374 1.389 3.044 2.067 4.996 2.067 1.971 0 3.642-.678 4.999-2.067 1.299-1.268 1.988-2.788 2.088-4.549l1.858 6.05h.007 4.797.006l1.626-5.298 1.626 5.298h.006 4.798.005l2.77-9.02v9.02h4.571zm-.354-9.06c.046-.017.124-.017.184-.017.662 0 1.262.246 1.739.739.491.492.739 1.078.739 1.77 0 .691-.248 1.292-.739 1.77-.478.494-1.078.738-1.739.738h-.184v-5m-39.4.85c0 .028 0 .028 0 .028 0 .034 0 .034 0 .064v.061c-.032.246-.14.444-.34.645-.186.185-.415.308-.691.308h-1.514c-.003-.001-.007-.001-.007-.001h-.003v-2.229h1.523c.276.015.506.123.691.322.232.216.322.446.34.754v.048zm12.405 3.498c-.498.513-1.076.762-1.806.762-.693 0-1.307-.249-1.786-.762-.511-.479-.76-1.091-.76-1.787 0-.711.249-1.307.76-1.819.479-.497 1.093-.745 1.786-.745.73 0 1.308.248 1.806.745.496.513.762 1.108.762 1.819-.001.696-.267 1.307-.762 1.787"/><circle cx="78.868" cy="185.26" r="1.057"/><circle cx="81.43" cy="180.65" r=".485"/><circle cx="79.54" cy="180.89" r=".663"/><circle cx="80.54" cy="177.76" r="1.319"/><circle cx="83.28" cy="176.6" r=".841"/><circle cx="84.58" cy="173.66" r=".623"/><circle cx="87.64" cy="174.69" r=".977"/><circle cx="87.6" cy="170.54" r=".84"/><path d="m90.7 172.53c.57.375 1.334.216 1.708-.352.303-.461.255-1.05-.074-1.457.142-.012.279-.084.363-.215.147-.223.085-.524-.139-.671-.224-.148-.524-.086-.671.138-.076.116-.097.251-.067.376-.529-.205-1.147-.02-1.472.474-.376.571-.217 1.332.352 1.707"/><circle cx="94.43" cy="173.74" r=".977"/><circle cx="96.22" cy="170.66" r=".977"/><circle cx="98.17" cy="172.42" r=".623"/><circle cx="101.57" cy="177.96" r=".842"/><circle cx="79.75" cy="194.61" r=".841"/><circle cx="77.01" cy="192.39" r=".623"/><path d="m84.37 187.87c0-5.233 4.243-9.475 9.474-9.475 2.349 0 4.496.856 6.152 2.272.421-.203.985-.876.882-.885.073-.417-.101-.857-.477-1.105-.122-.078-.253-.13-.387-.155h.005c0 0-.279-.022-.262-.3.038-.031.074-.066.102-.108.147-.225.086-.526-.139-.673-.224-.148-.526-.086-.672.139-.147.224-.084.525.139.673.046.028.096.048.147.062.003.01.009.02.02.031.098.095.055.192.023.24-.133.057-.258.136-.364.244-.062-.104-.15-.196-.258-.268-.214-.141-.467-.17-.697-.104.122-.494-.07-1.028-.52-1.324-.147-.097-.308-.158-.474-.186.067-.053.126-.117.175-.192.081-.124.123-.264.131-.402 0 .001.004.003.004.003s.155-.617.658-.376c.451.297 1.058.172 1.355-.28.296-.451.17-1.059-.281-1.354-.451-.297-1.058-.169-1.354.281-.11.166-.161.352-.161.537 0 0 0 .004 0 .01 0 .08-.018.532-.496.493-.002 0-.002 0-.002 0-.031-.025-.062-.053-.095-.076-.369-.242-.855-.157-1.122.183-.074-.168-.195-.32-.361-.428-.452-.297-1.056-.172-1.353.279-.05.077-.086.156-.113.238-.016-.01-.03-.021-.045-.032-.245-.16-.535-.197-.796-.123.051-.054.098-.113.14-.177.374-.568.216-1.333-.354-1.708-.57-.374-1.334-.214-1.708.355-.197.299-.245.654-.164.977-.486-.229-1.077-.073-1.379.389-.19.289-.224.633-.125.939.008.024.017.049.027.073.011.029.025.056.04.084.204.382.526.292.748.426.001.002.004.005.005.005.21.113.355.333.355.589 0 .37-.299.669-.67.669-.37 0-.669-.3-.669-.669 0-.035.006-.068.01-.101 0-.004 0-.007 0-.011.041-.401-.1-.57-.162-.624-.009-.008-.018-.016-.028-.021-.137-.092-.292-.135-.444-.138l-.001-.001c-.003 0-.005 0-.008 0-.002 0-.005 0-.005 0-.035-.003-.071.001-.113.01-.073.009-.143.028-.211.055-.097.024-.204.046-.319.041-.168-.005-.317-.161-.538-.247-.001 0-.001 0-.003 0-.426-.181-.933-.039-1.197.362-.13.198-.176.427-.151.643 0 .003-.002.005-.001.009.002.011.005.021.007.034.023.15.081.293.173.419.016.055-.017.073-.077.071-.005.001-.015.002-.021.004-.035.003-.068.013-.102.02-.03.005-.061.012-.093.02-.067.017-.108.045-.14.067-.017.01-.033.021-.05.031-.04.015-.109.011-.139-.136-.011-.029-.021-.059-.032-.089-.006-.017-.014-.033-.02-.05-.01-.029-.021-.053-.033-.073 0-.002-.001 0-.001-.002-.075-.145-.186-.271-.33-.367-.452-.297-1.058-.171-1.354.28-.297.45-.171 1.058.28 1.353.209.138.453.183.682.148l.027.019c.124-.066.265-.108.414-.108.488 0 .885.397.885.885s-.396.884-.885.884-.885-.396-.885-.884c0-.004.002-.009.002-.015-.061-.252-.211-.484-.446-.636-.487-.32-1.142-.185-1.462.303-.321.487-.186 1.142.302 1.462.146.095.306.149.469.168-.339.002-.67.165-.873.468-.035-.029-.071-.056-.107-.081-.609-.4-1.426-.23-1.827.377-.399.607-.229 1.426.378 1.826.202.132.427.202.653.214-.038.041-.073.086-.104.132-.322.49-.187 1.142.301 1.462.134.089.281.138.43.161.342.235.382.663.197.966-.046.061-.396.49-.924.132-.081-.1-.178-.187-.291-.262-.607-.399-1.425-.229-1.825.379-.303.461-.279 1.043.018 1.473-.203-.058-.417-.031-.602.062.03-.348-.125-.7-.437-.904-.451-.296-1.057-.171-1.354.28-.296.452-.171 1.058.28 1.353.327.216.736.208 1.049.016 0 .275.131.543.378.705.388.255.909.148 1.165-.24.024-.039.043-.075.061-.114h.001c.04-.085.062-.176.071-.266.124-.292.345-.329.442-.329.012 0 .023.001.036.001.007.001.012.002.012.002l-.003-.001c.12-.002.24-.021.356-.054 0 0 0 0 0 .002.002-.002.005-.003.007-.005.096-.028.188-.067.275-.12.27-.043.35.204.28.414 0 .001-.001.001-.001.001-.028.042-.048.084-.068.13-.004.003-.005.007-.008.012-.032.038-.042.073-.038.106-.125.405.021.859.393 1.104.185.121.392.169.595.157.071-.024.146-.04.226-.04.05-.016.099-.033.146-.057-.008.022-.013.046-.019.068.315.061.555.337.555.67 0 .377-.306.682-.682.682-.3 0-.552-.195-.643-.463-.021-.04-.042-.087-.06-.147-.006-.096-.027-.187-.06-.276-.001-.004-.001-.007-.001-.011 0-.002-.001-.002-.003-.002-.071-.183-.195-.345-.371-.462-.452-.295-1.058-.17-1.353.28-.297.453-.172 1.058.28 1.354.383.252.877.197 1.2-.103.006-.004.012-.011.019-.016.005-.003.009-.008.013-.014.003-.001.006-.003.008-.006.23-.246.299-.08.321.067-.139.5.053 1.056.511 1.357.019.012.039.024.059.035-.111.07-.209.165-.287.283-.296.451-.17 1.056.28 1.353.448.295 1.046.173 1.345-.268-.001.351.17.696.485.904.497.326 1.164.187 1.49-.31.12-.248.079-.442.079-.442l.006.003c-.003-.022-.005-.045-.005-.066 0-.229.184-.414.412-.414.228 0 .413.185.413.414 0 .135-.067.252-.167.33h.001-.002c-.046.035-.098.06-.155.073-.036.019-.074.043-.109.071-.015.013-.029.027-.043.042-.02.019-.042.035-.058.057-.038.042-.072.086-.104.135-.142.215-.206.461-.198.7-.121.662-.585.356-.585.356-.287-.19-.673-.109-.863.178-.188.289-.108.675.179.865.288.188.674.109.863-.179.019-.027.031-.056.044-.083l.001.002c0 0 .001-.004.003-.011.007-.017.013-.033.02-.051.06-.144.248-.485.637-.316.07.08.152.153.245.214.106.07.221.121.336.154-.02.02-.039.044-.056.069-.148.224-.084.525.139.673.224.146.525.083.672-.141.129-.197.096-.454-.067-.613.26-.08.493-.247.652-.49.058-.087.1-.18.133-.274.099.222.26.417.477.56.609.399 1.426.231 1.825-.379.053-.079.094-.161.127-.249.034-.09.056-.174.071-.256-3.711-1.27-6.382-4.796-6.382-8.945"/></g></svg>