<?xml version="1.0" encoding="utf-8"?>
<!-- Generator: Adobe Illustrator 17.1.0, SVG Export Plug-In . SVG Version: 6.00 Build 0)  -->
<!DOCTYPE svg PUBLIC "-//W3C//DTD SVG 1.1//EN" "http://www.w3.org/Graphics/SVG/1.1/DTD/svg11.dtd">
<svg version="1.1" id="Layer_2" xmlns="http://www.w3.org/2000/svg" xmlns:xlink="http://www.w3.org/1999/xlink" x="0px" y="0px"
	 viewBox="-829.2 6.7 479 785.3" enable-background="new -829.2 6.7 479 785.3" xml:space="preserve">
<g>
	<g>
		<g>
			<path fill="#FFFFFF" d="M-710.9,513.2l-24.6,27.3l-51.2,11.4v46.3l76-16.7v38.5l-113.5,24.8V543.4l24.1-27.1l51.9-11.4v-46.3
				l-38,8.3v15.5l-38,8.6v-32.2l24.1-27.1l65.3-14.4l24.1,16.5v79.5H-710.9z"/>
			<path fill="#FFFFFF" d="M-577.7,568.6l-24.3,27.1l-67,14.8l-23.9-16.5v-74.8l-7.9-5.6l7.9-9.3v-74.6l24.3-27.1l66.5-14.6
				l24.3,16.5v74.6l7.6,5.8l-7.6,9V568.6L-577.7,568.6z M-655.3,510.9v58.2l40.1-8.8v-58.2l-7.6-5.8l7.6-9.3v-58.2l-40.1,9v58.2
				l7.9,5.8L-655.3,510.9z"/>
			<path fill="#FFFFFF" d="M-511.6,575.8l-37.5,8.3v-96.4l-7.6-5.8l7.6-9.3v-49.1l-10.7,2.3v-38.5l23.2-13.9l25-5.6v96.4l7.9,5.8
				l-7.9,9V575.8z"/>
			<path fill="#FFFFFF" d="M-469.7,520.2l-23.9-16.5l77.6-156.9l37.5-8.3v123.3l10.4-2.3V498l-10.4,2.3v46.3l-37.5,8.3v-6.3h0.2
				v-39.9L-469.7,520.2z M-441.2,475.5l25.3-5.6v-45.4L-441.2,475.5z"/>
		</g>
		<polygon fill="#544842" points="-373.1,681.7 -826.5,781.3 -826.5,792 -373.1,692.4 		"/>
		<g>
			<g>
				<path fill="#FFFFFF" d="M-790.6,694.2l-12.3,58.9l-3.7,0.9l-11.6-52.1v54.9l-5.6,1.2v-85.5l5.1-1.2l13.9,66.5l14.6-72.8l5.1-1.2
					v85.5l-5.6,1.2V694.2z"/>
				<path fill="#FFFFFF" d="M-766.7,711.8l-6,1.4l-3.9,34.3l-5.6,1.2l3.9-34.3l-4.2,0.9V710l5.1-1.2l5.6-47.7l4.9-1.2l9.5,83.4
					l-5.1,1.2L-766.7,711.8z M-772.3,707.7l4.9-1.2l-2.1-21.8L-772.3,707.7z"/>
				<path fill="#FFFFFF" d="M-748.9,688.4v52.8l-5.8,1.2v-85.5l5.3-1.2l10.4,52.6v-54.9l5.6-1.2v85.3l-5.6,1.4L-748.9,688.4z"/>
				<path fill="#FFFFFF" d="M-710.2,727.6v5.3l-20.4,4.4v-3.7l15.5-79.7l-14.1,3v-5.3l20.6-4.6l-16.2,83.6L-710.2,727.6z"/>
				<path fill="#FFFFFF" d="M-690.7,694.9l-6,1.4l-3.9,34.3l-5.6,1.2l3.9-34.3l-4.2,0.9v-5.3l5.1-1.2l5.6-47.7l4.9-1.2l9.5,83.4
					l-5.1,1.2L-690.7,694.9z M-696.1,690.7l4.9-1.2l-2.1-21.8L-696.1,690.7z"/>
				<path fill="#FFFFFF" d="M-672.7,671.5v52.8l-5.8,1.2V640l5.3-1.2l10.4,52.6v-54.9l5.6-1.2v85.3l-5.6,1.4L-672.7,671.5z"/>
				<path fill="#FFFFFF" d="M-653.9,634.9l5.8-1.2v85.5l-5.8,1.2V634.9z"/>
				<path fill="#FFFFFF" d="M-646,633l5.6-1.2v80.2l13.7-3v5.3l-19.2,4.2V633z"/>
				<path fill="#FFFFFF" d="M-624,628.2l5.6-1.2v80.2l13.7-3v5.3l-19.2,4.2V628.2z"/>
				<path fill="#FFFFFF" d="M-590.9,706.3c-2.8,0.5-5.3,0.5-7.4-0.5c-2.1-0.7-3.2-3-3.2-7v-66.3c0-2.8,1.2-5.1,3.2-7.4
					s4.6-3.7,7.6-4.4c2.8-0.7,5.3-0.2,7.4,1.2c2.1,1.4,3,3.2,3,6v66.5c0,3.7-0.9,6.5-3,8.3c-2.1,1.6-4.2,2.8-6.7,3.5h-0.2
					C-590.6,706-590.6,706-590.9,706.3C-590.9,706-590.9,706-590.9,706.3L-590.9,706.3z M-587.2,626.6c-0.7-0.5-1.6-0.7-2.5-0.7
					c-0.2,0-0.2,0-0.5,0c-0.2,0-0.2,0-0.5,0c-0.2,0-0.2,0-0.5,0c0,0-0.2,0-0.5,0.2c-1.2,0.5-2.1,0.9-3,1.9c-0.9,0.9-1.4,1.9-1.4,2.8
					v66.5c0,1.4,0.5,2.5,1.4,3c0.9,0.7,2.1,0.7,3.7,0.5c1.6-0.2,2.8-0.9,3.7-2.1c0.9-0.9,1.4-2.1,1.4-3.5v-66.5
					C-586,627.9-586.5,627.3-587.2,626.6z"/>
				<path fill="#FFFFFF" d="M-576,709.7l-3-0.9c0-0.5,0.2-0.7,0.2-0.9c0-0.2,0.2-0.7,0.5-0.9v-0.2c0-0.2,0-0.2,0.2-0.5
					c0.2-0.7,0.2-1.2,0.5-1.6c0.2-0.5,0.2-0.9,0.2-1.4c-0.2-0.2-0.5-0.5-0.5-0.7c-0.2-0.2-0.2-0.5-0.5-0.9c-0.2-0.2-0.2-0.5-0.2-0.7
					c0-0.2,0-0.5,0-0.7c0-1.2,0.5-2.3,1.2-3.2c0.9-0.9,1.9-1.6,3-1.9s2.1,0,3,0.7c0.9,0.7,1.4,1.6,1.4,2.8c0,0.7-0.2,1.9-0.9,3.2
					C-572.1,702.8-573.7,705.6-576,709.7L-576,709.7z"/>
				<path fill="#FFFFFF" d="M-542.2,695.6c-2.5,0.5-5.1,0.2-7-0.5c-2.1-0.7-3-3-3-7v-66.5c0-3,0.9-5.8,3-7.6c2.1-2.1,4.4-3.2,7-3.9
					h0.2c0,0,0,0,0.2,0c2.5-0.5,4.9,0,7,1.4s3,3.2,3,5.8v10.2l-5.1,1.2v-10.2c0-1.2-0.5-2.1-1.6-2.5c-0.9-0.5-2.3-0.7-3.7-0.5
					c-1.6,0.2-2.5,0.9-3.2,1.6c-0.7,0.7-0.9,1.4-1.2,2.1c0,0.2,0,0.5,0,0.7c0,0.2,0,0.5,0,0.7v66.7c0,1.4,0.5,2.3,1.2,2.8
					c0.9,0.5,1.6,0.7,2.8,0.7c0.2,0,0.2,0,0.5,0c0,0,0.2,0,0.5,0c1.4-0.2,2.5-0.9,3.7-1.9c1.2-0.9,1.6-2.3,1.6-3.7v-10l5.3-1.2v10
					c0,2.5-1.2,5.1-3.2,7.4c-2.1,2.3-4.6,3.9-7.2,4.4C-542,695.6-542,695.6-542.2,695.6L-542.2,695.6L-542.2,695.6z"/>
				<path fill="#FFFFFF" d="M-517.6,690c-2.8,0.5-5.3,0.5-7.4-0.5c-2.1-0.7-3.2-3-3.2-7v-66.3c0-2.8,1.2-5.1,3.2-7.4
					c2.1-2.3,4.6-3.7,7.6-4.4c2.8-0.7,5.3-0.2,7.4,1.2c2.1,1.4,3,3.2,3,6v66.5c0,3.7-0.9,6.5-3,8.3c-2.1,1.6-4.2,2.8-6.7,3.5h-0.2
					C-517.4,689.8-517.4,689.8-517.6,690L-517.6,690L-517.6,690z M-513.9,610.6c-0.7-0.5-1.6-0.7-2.5-0.7c-0.2,0-0.2,0-0.5,0
					s-0.2,0-0.5,0c-0.2,0-0.2,0-0.5,0c0,0-0.2,0-0.5,0.2c-1.2,0.5-2.1,0.9-3,1.9c-0.9,0.9-1.4,1.9-1.4,2.8v66.5c0,1.4,0.5,2.5,1.4,3
					c0.9,0.7,2.1,0.7,3.7,0.5c1.6-0.2,2.8-0.9,3.7-2.1c0.9-0.9,1.4-2.1,1.4-3.5v-66.5C-512.8,611.7-513.2,611-513.9,610.6z"/>
				<path fill="#FFFFFF" d="M-504.9,602l5.6-1.2V681l13.7-3v5.3l-19.2,4.2L-504.9,602L-504.9,602z"/>
				<path fill="#FFFFFF" d="M-479.2,681.9c-1.2,0.2-2.1,0-3-0.7c-0.9-0.7-1.2-1.6-1.2-2.8s0.5-2.3,1.2-3.2c0.9-0.9,1.9-1.6,3-1.9
					c1.2-0.2,2.1,0,3,0.7c0.9,0.7,1.4,1.6,1.4,2.8s-0.5,2.3-1.4,3.2C-477.1,681-478,681.5-479.2,681.9L-479.2,681.9z"/>
				<path fill="#FFFFFF" d="M-422.4,612.9l-12.3,58.9l-3.7,0.9l-11.6-52.1v54.9l-5.8,1.2v-85.5l5.1-1.2l13.9,66.5l14.6-72.8l5.1-1.2
					V668l-5.6,1.2v-56.3H-422.4z"/>
				<path fill="#FFFFFF" d="M-387.7,661.5l-5.6,1.2l-7.6-28.3l-7,31.5l-6,1.4l9.7-44.5l-9.3-41l6-1.4l6.3,28.5l7.9-31.7l5.8-1.4
					l-10.9,45.4L-387.7,661.5z"/>
				<path fill="#FFFFFF" d="M-381.9,660.4c-1.2,0.2-2.1,0-3-0.7c-0.9-0.7-1.2-1.6-1.2-2.8s0.5-2.3,1.2-3.2c0.9-0.9,1.9-1.6,3-1.9
					s2.1,0,3,0.7c0.9,0.7,1.4,1.6,1.4,2.8c0,1.2-0.5,2.3-1.4,3.2C-379.5,659.5-380.7,659.9-381.9,660.4L-381.9,660.4z"/>
			</g>
		</g>
		<g>
			<path fill="#B5A899" d="M-813.1,384.1l-16.1-11.1l52.6-106.3l25.4-5.6v83.4l7.1-1.6v26l-7.1,1.6v31.4l-25.5,5.6v-4.3l0.1,0V376
				L-813.1,384.1z M-793.7,353.8l17.1-3.8v-30.8L-793.7,353.8z"/>
			<path fill="#B5A899" d="M-713,412.6l-3-12.1c0.2-0.1,0.6-0.1,1.1-0.2c1.3-0.3,2.2-0.5,2.7-0.6c0.5-0.1,0.9-0.5,1.4-1
				c0.5-0.5,0.7-1.2,0.8-1.9c0.1-0.7,0.1-1.9,0.1-3.5l-8.3,1.8v-24.4l24.2-5.4c0,1.5,0,3.8,0,6.8c0,5.9,0,10.2,0,13.1
				c-0.1,2.8-0.4,6.3-1,10.4c-0.6,4.1-1.6,7.1-2.9,9c-1.3,1.9-3.2,3.7-5.7,5.3C-706.1,411.4-709.3,412.4-713,412.6z"/>
			<path fill="#B5A899" d="M-588.3,352.9l-16.4,18.3l-43.4,9.6l-16.2-11.1v-22.5l25.4-5.6v11.4l25.1-5.5v-41l-34.3,7.6l-16.2-11.1
				v-59l74.9-16.5v26l-49.4,10.9v21.8l34.2-7.6l16.3,11V352.9z"/>
			<path fill="#B5A899" d="M-501.7,296.5v51.9l-25.7,5.7V302l-30.4-82l26.1-5.8l17.3,48.6l17.1-56.2l26.9-6L-501.7,296.5z"/>
			<path fill="#B5A899" d="M-367.5,302.9l-16.3,18.3l-44.1,9.7l-16.3-11.1v-50.6l-5.3-3.8l5.3-6.3v-50.5l16.1-18.3l44-9.7l16.3,11.2
				v21.8l-25.5,5.6v-10.6l-25.5,5.6v31.4l35-7.7l16.3,11V302.9z M-393.3,297.3v-31.4l-25.5,5.6v31.4L-393.3,297.3z"/>
		</g>
	</g>
	<g>
		<path fill="#E3E2D5" d="M-788.9,236.3l-32.9,7.3c-2.3,0.5-3.4-0.4-3.4-2.7v-21.9c0-2.3,1.1-3.7,3.4-4.2l27.5-6.1
			c2.3-0.5,3.4-1.9,3.4-4.2V96c0-2.3,1.1-3.7,3.4-4.2l27.5-6.1c1.9-0.4,2.9,0.5,2.9,2.8v108.2c0,9-3.1,17.3-9.3,25
			C-772.7,229.5-780.2,234.3-788.9,236.3z"/>
		<path fill="#E3E2D5" d="M-709.4,78v103.2c0,5.8,2.8,8,8.4,6.8l8.1-1.8c5.6-1.2,8.4-4.8,8.4-10.5V72.5c0-2.3,1.1-3.7,3.4-4.2l27-6
			c2.3-0.5,3.4,0.4,3.4,2.7v108.2c0,9-3.1,17.3-9.3,25c-6.2,7.7-13.7,12.5-22.4,14.5L-711,219c-9.1,2-16.7,0.5-22.9-4.5
			c-6.2-5-9.3-11.9-9.3-20.9V85.5c0-2.3,1.1-3.7,3.4-4.2l27-6C-710.5,74.8-709.4,75.7-709.4,78z"/>
		<path fill="#E3E2D5" d="M-562.5,128V45.5c0-2.3,1.1-3.7,3.4-4.2l27.1-6c2.2-0.5,3.3,0.4,3.3,2.7v137.2c0,2.3-1.1,3.7-3.3,4.2
			l-38.8,8.6c-2.3,0.5-3.8-0.3-4.5-2.5l-27.4-77v83c0,2.3-1.1,3.7-3.3,4.2l-27.1,6c-2.3,0.5-3.4-0.4-3.4-2.7V61.9
			c0-2.3,1.1-3.7,3.4-4.2l39-8.6c2.3-0.5,3.8,0.3,4.5,2.5L-562.5,128z"/>
		<path fill="#E3E2D5" d="M-480.9,164.7c0,2.3-1.1,3.7-3.3,4.2l-27.1,6c-2.3,0.5-3.4-0.4-3.4-2.7V35c0-2.3,1.1-3.7,3.4-4.2l27.1-6
			c2.2-0.5,3.3,0.4,3.3,2.7V164.7z"/>
		<path fill="#E3E2D5" d="M-374.3,112.2c0,9-3.1,17.3-9.3,25c-6.2,7.7-13.7,12.5-22.4,14.5l-29.1,6.4c-8.8,1.9-16.2,0.4-22.4-4.6
			c-6.2-5-9.3-11.9-9.3-20.9V53.4c0-9,3.1-17.3,9.3-25s13.7-12.5,22.4-14.5l29.1-6.4c8.8-1.9,16.2-0.4,22.4,4.6
			c6.2,5,9.3,11.9,9.3,20.9V112.2z M-433,120.1c0,5.8,2.8,8,8.4,6.8l8.1-1.8c5.6-1.2,8.4-4.7,8.4-10.5V45.4c0-5.8-2.8-8-8.4-6.8
			l-8.1,1.8c-5.6,1.2-8.4,4.7-8.4,10.5V120.1z"/>
		<path fill="#534741" d="M-548.9,200.1l-1.8-1.2C-550.2,199.5-549.6,199.9-548.9,200.1z"/>
		<polygon fill="#534741" points="-552.3,194.7 -544.9,199.7 -543.2,199.3 -553,192.8 		"/>
		<path fill="#534741" d="M-609.1,213.9L-609.1,213.9l-3.3-2.2C-612.2,213.6-611.2,214.3-609.1,213.9z"/>
		<polygon fill="#534741" points="-490.6,181.9 -484.1,186.3 -482.5,185.9 -490.6,180.5 		"/>
		<polygon fill="#534741" points="-490.6,177.4 -478.9,185.1 -477.3,184.8 -490.6,175.9 		"/>
		<path fill="#534741" d="M-487.7,187l-2.7-1.8C-490.2,186.6-489.3,187.2-487.7,187z"/>
		<path fill="#534741" d="M-358.5,25l-6-4c-1.4-0.7-2.9-1.2-4.4-1.5l13.9,9.3C-356.1,27.4-357.2,26.1-358.5,25z"/>
		<polygon fill="#534741" points="-801.2,249.4 -793.4,254.6 -791.7,254.2 -801.2,247.9 		"/>
		<polygon fill="#534741" points="-789.2,243.7 -778,251.2 -776.4,250.8 -787.5,243.4 		"/>
		<path fill="#534741" d="M-753.3,213.6l16.6,11.1c0.2-0.4,0.3-0.8,0.5-1.1l-16.6-11.1C-753,212.9-753.2,213.2-753.3,213.6z"/>
		<path fill="#534741" d="M-756.8,220.4l16.2,10.9c0.2-0.3,0.5-0.7,0.7-1l-16.3-10.9C-756.3,219.7-756.6,220.1-756.8,220.4z"/>
		<path fill="#534741" d="M-754.9,217.1l16.5,11c0.2-0.4,0.4-0.7,0.6-1.1l-16.5-11C-754.6,216.4-754.8,216.8-754.9,217.1z"/>
		<path fill="#534741" d="M-758.9,223.6l16,10.7c0.1-0.2,0.3-0.3,0.4-0.5c0.1-0.1,0.2-0.3,0.3-0.5l-16.1-10.7
			C-758.4,222.9-758.6,223.3-758.9,223.6z"/>
		<path fill="#534741" d="M-766.2,232l15.1,10.1c0.3-0.3,0.7-0.5,1.1-0.7l-15.3-10.2C-765.6,231.4-765.9,231.7-766.2,232z"/>
		<path fill="#534741" d="M-784.6,242.6l11.3,7.6l1.6-0.4l-11.5-7.7C-783.6,242.3-784.1,242.4-784.6,242.6z"/>
		<polygon fill="#534741" points="-794.2,244.8 -783,252.3 -781.4,252 -792.6,244.5 		"/>
		<polygon fill="#534741" points="-799.4,246 -788.2,253.5 -786.6,253.1 -797.8,245.6 		"/>
		<path fill="#534741" d="M-780,241l12,8l1.6-0.4l-12.3-8.2C-779.2,240.6-779.6,240.8-780,241z"/>
		<path fill="#534741" d="M-760.9,226.3c-0.1,0.1-0.2,0.2-0.3,0.3l15.8,10.5c0.3-0.3,0.6-0.6,0.8-0.9l-15.9-10.6
			C-760.6,225.9-760.7,226.1-760.9,226.3z"/>
		<path fill="#534741" d="M-776,239.1l13,8.7c0.5-0.1,1-0.3,1.5-0.4l-13.4-8.9C-775.3,238.7-775.6,238.9-776,239.1z"/>
		<path fill="#534741" d="M-763.5,229.3l15.5,10.3c0.3-0.3,0.6-0.5,0.9-0.8l-15.6-10.4C-762.9,228.7-763.2,229-763.5,229.3z"/>
		<path fill="#534741" d="M-769.2,234.6l14.6,9.7c0.4-0.2,0.8-0.4,1.2-0.7l-14.8-9.9C-768.5,234.1-768.8,234.3-769.2,234.6z"/>
		<path fill="#534741" d="M-772.5,237l13.9,9.3c0.4-0.2,0.8-0.4,1.3-0.6l-14.2-9.5C-771.8,236.5-772.1,236.8-772.5,237z"/>
		<path fill="#534741" d="M-749.7,201.3l-0.5-0.4c0,0.4-0.1,0.9-0.2,1.3l1.1,0.7C-749.4,202.5-749.6,201.9-749.7,201.3z"/>
		<path fill="#534741" d="M-748.2,206.5l-2.5-1.7c-0.1,0.4-0.2,0.8-0.3,1.3l3.5,2.4C-747.8,207.8-748,207.1-748.2,206.5z"/>
		<path fill="#534741" d="M-744.7,213.3l-6.9-4.6c-0.1,0.4-0.3,0.8-0.4,1.2l9.7,6.5C-743.2,215.4-744,214.4-744.7,213.3z"/>
		<polygon fill="#534741" points="-691.6,167.8 -702.1,160.8 -702.1,162.2 -691.6,169.2 		"/>
		<polygon fill="#534741" points="-691.6,140.8 -702.1,133.8 -702.1,135.2 -691.6,142.2 		"/>
		<polygon fill="#534741" points="-691.6,149.6 -702.1,142.6 -702.1,144 -691.6,151.1 		"/>
		<polygon fill="#534741" points="-691.6,136.2 -702.1,129.2 -702.1,130.6 -691.6,137.7 		"/>
		<polygon fill="#534741" points="-691.6,145.4 -702.1,138.4 -702.1,139.8 -691.6,146.9 		"/>
		<polygon fill="#534741" points="-691.6,131.7 -702.1,124.7 -702.1,126.1 -691.6,133.2 		"/>
		<polygon fill="#534741" points="-691.6,163.3 -702.1,156.3 -702.1,157.7 -691.6,164.7 		"/>
		<polygon fill="#534741" points="-691.6,158.7 -702.1,151.6 -702.1,153.1 -691.6,160.1 		"/>
		<polygon fill="#534741" points="-691.6,154.1 -702.1,147.1 -702.1,148.5 -691.6,155.6 		"/>
		<path fill="#534741" d="M-643.8,186.1l-1.3-0.9c-0.1,0.4-0.3,0.8-0.4,1.2l1.7,1.1V186.1z"/>
		<path fill="#534741" d="M-643.8,178.6c0,0.1,0,0.2,0,0.2l0,0V178.6z"/>
		<polygon fill="#534741" points="-691.6,127.1 -702.1,120.1 -702.1,121.5 -691.6,128.6 		"/>
		<path fill="#534741" d="M-643.8,190.7l-2.6-1.7c-0.1,0.4-0.3,0.8-0.5,1.1l3,2C-643.8,192.1-643.8,190.7-643.8,190.7z"/>
		<path fill="#534741" d="M-643.8,195.3l-4.1-2.7c-0.2,0.4-0.3,0.7-0.5,1.1l4.6,3.1V195.3z"/>
		<path fill="#534741" d="M-643.8,181.6l-0.4-0.3c-0.1,0.4-0.2,0.9-0.3,1.3l0.7,0.5V181.6z"/>
		<polygon fill="#534741" points="-691.6,113.8 -702.1,106.8 -702.1,108.3 -691.6,115.3 		"/>
		<polygon fill="#534741" points="-691.6,122.5 -702.1,115.5 -702.1,117 -691.6,124 		"/>
		<polygon fill="#534741" points="-691.6,118 -702.1,111 -702.1,112.4 -691.6,119.5 		"/>
		<polygon fill="#534741" points="-691.6,172.4 -702.1,165.3 -702.1,166.8 -691.6,173.8 		"/>
		<path fill="#534741" d="M-669.5,215.6l13,8.7c0.5-0.1,1-0.3,1.5-0.4l-13.4-8.9C-668.7,215.2-669.1,215.4-669.5,215.6z"/>
		<path fill="#534741" d="M-665.9,213.5l13.9,9.3c0.4-0.2,0.9-0.4,1.3-0.6l-14.1-9.5C-665.2,213-665.6,213.3-665.9,213.5z"/>
		<path fill="#534741" d="M-678.1,219l11.3,7.6l1.6-0.4l-11.5-7.7C-677.1,218.8-677.6,218.9-678.1,219z"/>
		<path fill="#534741" d="M-673.5,217.5l11.9,8l1.6-0.4l-12.3-8.2C-672.7,217.1-673.1,217.3-673.5,217.5z"/>
		<path fill="#534741" d="M-662.6,211.1l14.6,9.7c0.4-0.2,0.8-0.4,1.2-0.7l-14.8-9.9C-662,210.5-662.3,210.8-662.6,211.1z"/>
		<path fill="#534741" d="M-659.6,208.5l15.1,10.1c0.3-0.3,0.7-0.5,1.1-0.7l-15.3-10.2C-659.1,207.9-659.3,208.2-659.6,208.5z"/>
		<path fill="#534741" d="M-654.3,202.8c-0.1,0.1-0.2,0.3-0.3,0.4l15.7,10.5c0.3-0.3,0.6-0.6,0.9-0.9l-15.8-10.6
			C-654,202.4-654.1,202.6-654.3,202.8z"/>
		<path fill="#534741" d="M-641.4,205.9l-10.2-6.8c-0.2,0.3-0.4,0.7-0.7,1l16,10.7c0.1-0.2,0.3-0.3,0.5-0.5c0.1-0.1,0.2-0.3,0.3-0.4
			l-1.8-1.2C-639,208.1-640.4,207.2-641.4,205.9z"/>
		<path fill="#534741" d="M-656.9,205.8l15.5,10.3c0.3-0.3,0.6-0.5,0.9-0.8l-15.6-10.4C-656.4,205.2-656.7,205.5-656.9,205.8z"/>
		<polygon fill="#534741" points="-694.6,179.2 -702.1,174.1 -702.1,175.6 -696.2,179.6 		"/>
		<polygon fill="#534741" points="-682.7,220.2 -671.5,227.7 -669.9,227.3 -681,219.8 		"/>
		<path fill="#534741" d="M-643.7,199.8l-5.9-3.9c-0.2,0.3-0.4,0.7-0.6,1.1l6.7,4.5C-643.6,200.9-643.7,200.4-643.7,199.8z"/>
		<polygon fill="#534741" points="-699.7,180.3 -702.1,178.7 -702.1,180.1 -701.3,180.7 		"/>
		<path fill="#534741" d="M-691.7,176.9l-10.4-7v1.4l10,6.7C-691.9,177.8-691.8,177.4-691.7,176.9z"/>
		<polygon fill="#534741" points="-691.6,109.2 -702.1,102.2 -702.1,103.6 -691.6,110.7 		"/>
		<polygon fill="#534741" points="-698.1,223.6 -686.9,231.1 -685.2,230.7 -696.4,223.2 		"/>
		<polygon fill="#534741" points="-687.7,221.3 -676.5,228.8 -674.9,228.4 -686.1,220.9 		"/>
		<polygon fill="#534741" points="-692.9,222.4 -681.7,229.9 -680.1,229.6 -691.3,222.1 		"/>
		<polygon fill="#534741" points="-691.6,104.6 -702.1,97.6 -702.1,99.1 -691.6,106.1 		"/>
		<polygon fill="#534741" points="-691.6,100.1 -702.1,93.1 -702.1,94.6 -691.6,101.6 		"/>
		<polygon fill="#534741" points="-691.6,91 -695,88.7 -696.6,89.1 -691.6,92.4 		"/>
		<path fill="#534741" d="M-703.1,224.7l10.7,7.1c0.6,0,1.3-0.1,1.9-0.2l-11-7.3L-703.1,224.7z"/>
		<polygon fill="#534741" points="-691.6,95.5 -700.1,89.8 -701.8,90.2 -691.6,97 		"/>
		<path fill="#534741" d="M-708.3,225.8l8.1,5.4c0.9,0.2,1.9,0.4,2.9,0.5l-9.4-6.3L-708.3,225.8z"/>
		<polygon fill="#534741" points="-612.5,208.5 -605.5,213.1 -603.9,212.7 -612.5,207 		"/>
		<polygon fill="#534741" points="-612.5,204 -600.5,212 -598.9,211.6 -612.5,202.5 		"/>
		<polygon fill="#534741" points="-593.3,156.7 -595.5,155.2 -595.5,156.6 -592.7,158.6 		"/>
		<polygon fill="#534741" points="-591.2,162.7 -595.5,159.8 -595.5,161.2 -590.5,164.6 		"/>
		<polygon fill="#534741" points="-595.4,150.8 -595.5,150.7 -595.5,152.1 -594.8,152.7 		"/>
		<polygon fill="#534741" points="-586.9,174.6 -595.5,168.9 -595.5,170.3 -586.3,176.5 		"/>
		<polygon fill="#534741" points="-595.5,183.7 -578.7,195 -578.7,193.5 -595.5,182.3 		"/>
		<path fill="#534741" d="M-582.2,188l-0.5-1.4l-12.9-8.6v1.5l13.6,9.1C-582,188.4-582.1,188.2-582.2,188z"/>
		<polygon fill="#534741" points="-589,168.7 -595.5,164.4 -595.5,165.8 -588.4,170.6 		"/>
		<polygon fill="#534741" points="-584.8,180.6 -595.5,173.5 -595.5,174.9 -584.1,182.5 		"/>
		<path fill="#534741" d="M-595.5,191.7c0,0.4-0.1,0.7-0.1,1.1l16.9,11.3c0-0.1,0-0.2,0-0.3v-1.1l-16.9-11.3V191.7z"/>
		<path fill="#534741" d="M-596.6,196.7l16,10.7c0.4-0.2,0.7-0.5,1-0.8l-16.5-11C-596.3,196-596.4,196.3-596.6,196.7z"/>
		<polygon fill="#534741" points="-595.5,188.2 -578.7,199.5 -578.7,198 -595.5,186.8 		"/>
		<polygon fill="#534741" points="-607,203.5 -595.8,210.9 -594.1,210.6 -605.3,203.1 		"/>
		<path fill="#534741" d="M-598.7,199.8l13.3,8.9l1.6-0.4l-14.1-9.4C-598.1,199.2-598.4,199.5-598.7,199.8z"/>
		<path fill="#534741" d="M-600.7,201.4c-0.4,0.3-0.9,0.5-1.4,0.7l11.5,7.7l1.6-0.4l-11.8-7.9L-600.7,201.4L-600.7,201.4z"/>
		<polygon fill="#534741" points="-569.7,73.2 -575.7,69.2 -575,71.1 -569.7,74.7 		"/>
		<polygon fill="#534741" points="-569.7,77.7 -573.6,75.1 -572.9,77 -569.7,79.2 		"/>
		<polygon fill="#534741" points="-569.7,83.7 -569.7,82.3 -571.5,81.1 -570.8,83 		"/>
		<polygon fill="#534741" points="-569.7,70.5 -569.7,69 -577.6,63.7 -577,65.6 		"/>
		<polygon fill="#534741" points="-569.7,64.4 -573.5,61.9 -575.2,62.2 -569.7,65.9 		"/>
		<path fill="#534741" d="M-569.7,61.1c-0.1,0-0.2,0-0.3,0l0.3,0.2V61.1z"/>
		<g>
			<path fill="#534741" d="M-530.5,186.6l-0.3,0.1l11.2,7.5l1.6-0.4l-11.3-7.6C-529.7,186.3-530,186.5-530.5,186.6z"/>
			<polygon fill="#534741" points="-540.7,188.8 -529.5,196.3 -527.9,195.9 -539.1,188.4 			"/>
			<polygon fill="#534741" points="-536,187.8 -524.8,195.3 -523.1,194.9 -534.3,187.4 			"/>
			<polygon fill="#534741" points="-550.9,191.1 -539.7,198.6 -538.1,198.2 -549.3,190.7 			"/>
			<polygon fill="#534741" points="-545.7,189.9 -534.6,197.4 -532.9,197.1 -544.1,189.6 			"/>
			<path fill="#534741" d="M-526.5,184.9l12.1,8.1l1.6-0.4l-12.6-8.5C-525.8,184.4-526.1,184.7-526.5,184.9z"/>
			<path fill="#534741" d="M-509.7,182c-0.2,0-0.4,0.1-0.6,0.1l5.6,3.8v-1.5l-4-2.7L-509.7,182z"/>
			<path fill="#534741" d="M-523.7,182.3l14.3,9.6l1.4-0.3c0.1,0,0.1,0,0.2-0.1l-15.3-10.2C-523.2,181.6-523.5,182-523.7,182.3z"/>
			<polygon fill="#534741" points="-505.2,181 -504.7,181.3 -504.7,180.8 			"/>
			<path fill="#534741" d="M-519.5,179l-2.2-1.5c-0.1,0.4-0.2,0.8-0.3,1.2l16.6,11.1c0.2-0.3,0.4-0.7,0.5-1.1l-10.5-7
				C-517.1,181.3-518.5,180.3-519.5,179z"/>
		</g>
		<g>
			<path fill="#534741" d="M-470.5,148.6l-3.2-2.1v1.4l4.4,2.9C-469.7,150.2-470.1,149.4-470.5,148.6z"/>
			<polygon fill="#534741" points="-485.1,176.5 -473.9,184 -472.2,183.7 -483.4,176.2 			"/>
			<path fill="#534741" d="M-472.7,142.6l-0.9-0.6v1.4l1.4,0.9C-472.4,143.8-472.6,143.2-472.7,142.6z"/>
			<path fill="#534741" d="M-473.7,138.9l0.2,0.1c-0.1-0.3-0.1-0.7-0.2-1V138.9z"/>
			<polygon fill="#534741" points="-473.7,161.7 -456.8,172.9 -456.8,171.5 -473.7,160.2 			"/>
			<path fill="#534741" d="M-480.2,175.2l11.5,7.7l1.6-0.4l-11.9-8C-479.4,174.8-479.8,175-480.2,175.2z"/>
			<polygon fill="#534741" points="-473.7,157.1 -456.8,168.4 -456.8,166.9 -473.7,155.6 			"/>
			<path fill="#534741" d="M-462,159.2c-0.4-0.3-0.8-0.7-1.2-1l-10.4-7v1.4l16.9,11.3v-1.3C-458.6,161.6-460.4,160.5-462,159.2z"/>
			<path fill="#534741" d="M-473.8,166.2l16.9,11.3c0-0.2,0.1-0.4,0.1-0.7v-0.7l-16.9-11.3C-473.7,165.3-473.7,165.8-473.8,166.2z"
				/>
			<path fill="#534741" d="M-476.8,172.9l13.3,8.9l1.6-0.4L-476,172C-476.3,172.3-476.5,172.6-476.8,172.9z"/>
			<path fill="#534741" d="M-474.7,169.8l16,10.7c0.4-0.2,0.7-0.5,1-0.8l-16.5-11C-474.4,169-474.6,169.4-474.7,169.8z"/>
		</g>
		<g>
			<path fill="#534741" d="M-367.9,24.7l16.3,10.9c-0.2-0.7-0.5-1.3-0.7-1.9l-16-10.7C-368.2,23.6-368,24.1-367.9,24.7z"/>
			<path fill="#534741" d="M-416.1,117.3l-9.7-6.5v1.4l8.5,5.7C-416.8,117.7-416.4,117.6-416.1,117.3z"/>
			<path fill="#534741" d="M-415.3,114.6v-1.3l-10.5-7v1.4l10.5,7C-415.3,114.7-415.3,114.7-415.3,114.6z"/>
			<polygon fill="#534741" points="-420.8,118.7 -425.8,115.4 -425.8,116.8 -422.4,119.1 			"/>
			<path fill="#534741" d="M-429.5,164.2l9.9,6.6c0.7,0,1.5,0.1,2.3,0.1l-10.5-7L-429.5,164.2z"/>
			<polygon fill="#534741" points="-415.3,109.1 -425.8,102.1 -425.8,103.5 -415.3,110.6 			"/>
			<path fill="#534741" d="M-399.1,157.1l11.6,7.8l1.6-0.4l-11.9-7.9C-398.2,156.8-398.7,157-399.1,157.1z"/>
			<path fill="#534741" d="M-395.2,155.6l12.5,8.3l0.9-0.2c0.3-0.1,0.5-0.1,0.7-0.2L-394,155C-394.4,155.2-394.8,155.4-395.2,155.6z
				"/>
			<path fill="#534741" d="M-424.3,163.1l11.1,7.4c0.6-0.1,1.1-0.2,1.7-0.3l-11.2-7.5L-424.3,163.1z"/>
			<path fill="#534741" d="M-403.8,158.5l11.2,7.5l1.6-0.4l-11.3-7.6C-402.8,158.3-403.3,158.4-403.8,158.5z"/>
			<polygon fill="#534741" points="-408.9,159.7 -397.7,167.2 -396.1,166.8 -407.3,159.3 			"/>
			<polygon fill="#534741" points="-419.1,162 -407.9,169.4 -406.3,169.1 -417.5,161.6 			"/>
			<polygon fill="#534741" points="-414.1,160.8 -402.9,168.3 -401.3,168 -412.5,160.5 			"/>
			<polygon fill="#534741" points="-415.3,86.3 -425.8,79.2 -425.8,80.7 -415.3,87.7 			"/>
			<polygon fill="#534741" points="-415.3,59.2 -425.8,52.2 -425.8,53.7 -415.3,60.7 			"/>
			<path fill="#534741" d="M-415.3,54.7l-9.7-6.5c-0.3,0.2-0.5,0.6-0.7,1l10.3,6.9V54.7z"/>
			<polygon fill="#534741" points="-415.3,63.9 -425.8,56.8 -425.8,58.3 -415.3,65.3 			"/>
			<polygon fill="#534741" points="-415.3,46 -415.5,45.8 -417.1,46.2 -415.3,47.4 			"/>
			<path fill="#534741" d="M-367.2,29.8l16.7,11.2c-0.1-0.5-0.1-1.1-0.2-1.6l-16.7-11.1C-367.3,28.8-367.2,29.3-367.2,29.8z"/>
			<polygon fill="#534741" points="-415.3,50.2 -420.2,46.9 -421.8,47.2 -415.3,51.6 			"/>
			<polygon fill="#534741" points="-415.3,68.4 -425.8,61.3 -425.8,62.8 -415.3,69.8 			"/>
			<polygon fill="#534741" points="-415.3,99.9 -425.8,92.9 -425.8,94.4 -415.3,101.4 			"/>
			<polygon fill="#534741" points="-415.3,90.8 -425.8,83.8 -425.8,85.2 -415.3,92.3 			"/>
			<polygon fill="#534741" points="-415.3,95.4 -425.8,88.4 -425.8,89.9 -415.3,96.9 			"/>
			<polygon fill="#534741" points="-415.3,104.5 -425.8,97.5 -425.8,98.9 -415.3,106 			"/>
			<polygon fill="#534741" points="-415.3,77.6 -425.8,70.5 -425.8,72 -415.3,79 			"/>
			<path fill="#534741" d="M-391.4,153.5l13.5,9c0.5-0.2,0.9-0.3,1.4-0.5l-13.7-9.2C-390.6,153.1-391,153.3-391.4,153.5z"/>
			<polygon fill="#534741" points="-415.3,72.9 -425.8,65.9 -425.8,67.4 -415.3,74.4 			"/>
			<polygon fill="#534741" points="-415.3,81.7 -425.8,74.7 -425.8,76.2 -415.3,83.2 			"/>
			<path fill="#534741" d="M-368.5,123.5l16.8,11.2c0.1-0.4,0.2-0.8,0.3-1.2l-16.9-11.3C-368.4,122.7-368.4,123.1-368.5,123.5z"/>
			<polygon fill="#534741" points="-367.1,70.5 -350.2,81.7 -350.2,80.3 -367.1,69 			"/>
			<polygon fill="#534741" points="-367.1,75.1 -350.2,86.3 -350.2,84.9 -367.1,73.6 			"/>
			<path fill="#534741" d="M-387.9,151.3l14.3,9.5c0.4-0.2,0.8-0.4,1.3-0.6l-14.5-9.7C-387.2,150.8-387.6,151-387.9,151.3z"/>
			<polygon fill="#534741" points="-367.1,92.9 -350.2,104.2 -350.2,102.8 -367.1,91.5 			"/>
			<polygon fill="#534741" points="-367.1,88.4 -350.2,99.6 -350.2,98.2 -367.1,86.9 			"/>
			<polygon fill="#534741" points="-367.1,79.7 -350.2,90.9 -350.2,89.5 -367.1,78.2 			"/>
			<polygon fill="#534741" points="-367.1,83.9 -350.2,95.1 -350.2,93.7 -367.1,82.4 			"/>
			<polygon fill="#534741" points="-367.1,66 -350.2,77.2 -350.2,75.8 -367.1,64.5 			"/>
			<polygon fill="#534741" points="-367.1,38.9 -350.2,50.2 -350.2,48.7 -367.1,37.5 			"/>
			<path fill="#534741" d="M-350.2,44.2L-367.1,33c0,0,0,0,0,0v1.4l16.9,11.3V45C-350.2,44.7-350.2,44.5-350.2,44.2z"/>
			<polygon fill="#534741" points="-367.1,56.8 -350.2,68.1 -350.2,66.6 -367.1,55.3 			"/>
			<polygon fill="#534741" points="-367.1,43.5 -350.2,54.7 -350.2,53.3 -367.1,42 			"/>
			<polygon fill="#534741" points="-367.1,48.1 -350.2,59.4 -350.2,57.9 -367.1,46.6 			"/>
			<polygon fill="#534741" points="-367.1,52.3 -350.2,63.6 -350.2,62.1 -367.1,50.8 			"/>
			<polygon fill="#534741" points="-367.1,61.4 -350.2,72.6 -350.2,71.2 -367.1,59.9 			"/>
			<path fill="#534741" d="M-371.2,130.9l16.5,11c0.2-0.4,0.4-0.7,0.6-1.1l-16.6-11.1C-370.9,130.1-371,130.5-371.2,130.9z"/>
			<path fill="#534741" d="M-377,140.4l15.9,10.6c0.3-0.3,0.5-0.6,0.8-0.9l-16-10.7C-376.5,139.7-376.7,140.1-377,140.4z"/>
			<path fill="#534741" d="M-372.9,134.3l16.3,10.9c0.2-0.3,0.4-0.7,0.6-1l-16.4-11C-372.6,133.6-372.7,133.9-372.9,134.3z"/>
			<path fill="#534741" d="M-374.9,137.6l16.1,10.8c0.2-0.3,0.5-0.6,0.7-1l-16.2-10.8C-374.5,136.9-374.7,137.2-374.9,137.6z"/>
			<path fill="#534741" d="M-384.8,148.8l14.9,9.9c0.4-0.2,0.7-0.5,1.1-0.7l-15-10C-384.2,148.3-384.5,148.5-384.8,148.8z"/>
			<path fill="#534741" d="M-381.9,146.1l15.3,10.2c0.3-0.3,0.6-0.5,1-0.8l-15.4-10.3C-381.4,145.6-381.7,145.8-381.9,146.1z"/>
			<path fill="#534741" d="M-379.3,143.3l15.6,10.5c0.3-0.3,0.6-0.6,0.9-0.9l-15.7-10.5C-378.8,142.7-379.1,143-379.3,143.3z"/>
			<polygon fill="#534741" points="-367.1,102.1 -350.2,113.3 -350.2,111.9 -367.1,100.6 			"/>
			<polygon fill="#534741" points="-367.1,106.6 -350.2,117.9 -350.2,116.4 -367.1,105.2 			"/>
			<polygon fill="#534741" points="-367.1,97.6 -350.2,108.8 -350.2,107.4 -367.1,96.1 			"/>
			<path fill="#534741" d="M-369.7,127.3l16.7,11.1c0.2-0.4,0.3-0.8,0.5-1.1l-16.8-11.2C-369.5,126.5-369.6,126.9-369.7,127.3z"/>
			<polygon fill="#534741" points="-367.1,111.2 -350.2,122.5 -350.2,121.1 -367.1,109.8 			"/>
			<path fill="#534741" d="M-367.7,119.5l16.9,11.3c0.1-0.4,0.1-0.9,0.2-1.3l-16.9-11.3C-367.6,118.6-367.6,119.1-367.7,119.5z"/>
			<path fill="#534741" d="M-367.2,115.3l16.9,11.3c0-0.5,0.1-0.9,0.1-1.4l-16.9-11.3C-367.2,114.4-367.2,114.9-367.2,115.3z"/>
		</g>
		<path fill="#534741" d="M-433.5,165.1c-0.1,0-0.2,0-0.3,0.1c0.1,0.1,0.3,0.3,0.4,0.4c2.6,2.1,5.4,3.5,8.4,4.4l-7.5-5L-433.5,165.1
			z"/>
	</g>
</g>
</svg>
