<?xml version="1.0" encoding="utf-8"?>
<!-- Generator: Adobe Illustrator 16.2.1, SVG Export Plug-In . SVG Version: 6.00 Build 0)  -->
<!DOCTYPE svg PUBLIC "-//W3C//DTD SVG 1.1//EN" "http://www.w3.org/Graphics/SVG/1.1/DTD/svg11.dtd">
<svg version="1.1" id="Capa_1" xmlns="http://www.w3.org/2000/svg" xmlns:xlink="http://www.w3.org/1999/xlink" x="0px" y="0px"
	 width="58.229px" height="51.172px" viewBox="0 0 58.229 51.172" enable-background="new 0 0 58.229 51.172" xml:space="preserve">
<g>
	<path opacity="0.3" fill="#E1E0D1" enable-background="new    " d="M24.645,45.547c0.161,0.369,0.254,0.812,0.254,1.338v4.074
		c0.288,0.031,0.579,0.061,0.872,0.08v-2.617C25.771,48.424,25.702,46.366,24.645,45.547z"/>
	<path opacity="0.3" fill="#E1E0D1" enable-background="new    " d="M45.685,45.455c0-3.158-7.313-5.721-16.344-5.721
		c-9.026,0-16.344,2.562-16.344,5.721c0,2.254,3.728,4.205,9.144,5.137v-3.635c0,0-0.143-1.744-1.741-2.324
		c0,0-0.941-0.65,0.071-1.018c0,0,2.931-0.242,4.026,1.623c-0.113-0.361-0.129-0.92,0.982-0.666c0,0,3.054,0.434,3.195,3.994
		l0.027,2.604c0.212,0.004,0.424,0.004,0.636,0.004c0.061,0,0.121,0,0.18,0l0.028-2.605c0.146-3.562,3.195-3.994,3.195-3.994
		c1.114-0.252,1.099,0.309,0.982,0.668c1.098-1.865,4.026-1.623,4.026-1.623c1.018,0.363,0.07,1.02,0.07,1.02
		c-1.598,0.58-1.74,2.322-1.74,2.322v3.709C41.747,49.771,45.685,47.772,45.685,45.455z"/>
	<path opacity="0.3" fill="#E1E0D1" enable-background="new    " d="M32.454,48.424v2.648c0.293-0.021,0.585-0.043,0.871-0.068
		v-4.117c0-0.525,0.096-0.971,0.254-1.34C32.527,46.366,32.454,48.424,32.454,48.424z"/>
	<path fill="#E1E0D1" d="M33.618,45.519c0,0,0.062-0.119,0.108-0.275c-0.056,0.096-0.104,0.199-0.146,0.305
		C33.592,45.537,33.603,45.528,33.618,45.519z"/>
	<path opacity="0.5" fill="#E1E0D1" enable-background="new    " d="M32.454,48.424c0,0,0.069-2.059,1.127-2.877
		c0.045-0.104,0.094-0.209,0.146-0.305c0.113-0.361,0.131-0.922-0.982-0.67c0,0-3.05,0.438-3.194,3.996l-0.028,2.604
		c1.002-0.004,1.982-0.037,2.935-0.104L32.454,48.424L32.454,48.424z"/>
	<path opacity="0.5" fill="#E1E0D1" enable-background="new    " d="M24.901,46.887c0-0.525-0.095-0.971-0.254-1.34
		c-0.013-0.01-0.021-0.02-0.037-0.025c0,0-0.062-0.119-0.111-0.277c-1.099-1.865-4.026-1.623-4.026-1.623
		c-1.016,0.361-0.071,1.02-0.071,1.02c1.601,0.576,1.741,2.322,1.741,2.322V50.6c0.88,0.148,1.803,0.273,2.76,0.365L24.901,46.887
		L24.901,46.887z"/>
	<path opacity="0.5" fill="#E1E0D1" enable-background="new    " d="M37.828,44.635c0,0,0.941-0.65-0.072-1.016
		c0,0-2.931-0.244-4.026,1.623c-0.048,0.156-0.111,0.275-0.111,0.275c-0.015,0.01-0.023,0.02-0.037,0.027
		c-0.16,0.369-0.253,0.812-0.253,1.338V51c0.957-0.082,1.88-0.193,2.76-0.334v-3.711C36.086,46.957,36.231,45.215,37.828,44.635z"/>
	<path fill="#E1E0D1" d="M24.645,45.547c-0.044-0.104-0.093-0.209-0.146-0.305c0.048,0.156,0.111,0.275,0.111,0.275
		C24.623,45.528,24.634,45.537,24.645,45.547z"/>
	<path opacity="0.5" fill="#E1E0D1" enable-background="new    " d="M25.771,48.424v2.615c0.949,0.074,1.934,0.121,2.936,0.133
		l-0.027-2.604c-0.144-3.562-3.195-3.994-3.195-3.994c-1.112-0.252-1.098,0.307-0.982,0.668c0.056,0.096,0.104,0.199,0.146,0.307
		C25.702,46.366,25.771,48.424,25.771,48.424z"/>
	<path opacity="0.25" fill="#E1E0D1" enable-background="new    " d="M10.674,28.637l-0.475,1.646c0,0-0.124,0.594,0.438,0.699
		c0.583-0.016,0.535-0.561,0.496-0.734L10.674,28.637L10.674,28.637z"/>
	<path fill="#E1E0D1" d="M58.184,21.744l0.043-0.213c-4.794-0.957-9.715-0.967-12.689-0.844c0.486-1.766,0.635-3.789,0.635-6.053
		c0-3.24-1.217-5.838-3.194-7.809c0.348-1.115,0.81-3.592-0.462-6.764c0,0-2.233-0.711-7.297,2.678C33.24,2.244,31.125,2,29.012,2
		c-2.325,0-4.672,0.295-6.864,0.896c-5.221-3.562-7.525-2.832-7.525-2.832c-1.504,3.762-0.573,6.549-0.29,7.238
		c-1.771,1.908-2.85,4.348-2.85,7.332c0,2.258,0.258,4.277,0.885,6.037C9.365,20.566,4.623,20.605,0,21.529l0.042,0.213
		c4.651-0.93,9.423-0.963,12.406-0.85c0.139,0.363,0.292,0.717,0.465,1.059c-2.949,0.096-7.989,0.473-12.815,1.834l0.062,0.209
		c4.866-1.371,9.944-1.74,12.87-1.828c1.762,3.287,5.236,5.409,11.421,6.075c-0.876,0.59-1.772,1.592-2.135,3.287
		c-1.196,0.574-4.982,1.969-7.256-1.938c0,0-1.271-2.325-3.707-2.508c0,0-2.358-0.037-0.16,1.474c0,0,1.577,0.743,2.669,3.544
		c0,0,1.423,4.77,8.281,3.236v4.93c0,0-0.146,1.742-1.742,2.322c0,0-0.943,0.654,0.07,1.02c0,0,4.434,0.361,4.434-3.27v-5.375
		c0,0-0.178-2.133,0.869-2.871v8.826c0,0-0.07,2.105-1.161,2.906c0,0-0.729,1.305,0.871,0.945c0,0,3.051-0.439,3.193-3.996
		l0.069-8.936h0.733l0.069,8.936c0.146,3.559,3.192,3.996,3.192,3.996c1.6,0.357,0.871-0.945,0.871-0.945
		c-1.091-0.799-1.162-2.906-1.162-2.906v-8.75c1.046,0.814,0.871,2.795,0.871,2.795v5.375c0,3.631,4.431,3.27,4.431,3.27
		c1.019-0.361,0.072-1.02,0.072-1.02c-1.602-0.58-1.743-2.322-1.743-2.322v-7.047c0-2.747-1.158-4.201-2.288-4.971
		c6.592-0.648,9.758-2.786,11.215-6.092c2.89,0.08,8.087,0.43,13.062,1.834l0.058-0.209c-4.944-1.396-10.107-1.756-13.022-1.842
		c0.139-0.332,0.261-0.682,0.364-1.039C48.429,20.782,53.371,20.783,58.184,21.744z M11.933,27.992c-0.26,0-0.472-0.143-0.472-0.324
		c0-0.181,0.211-0.328,0.472-0.328c0.265,0,0.476,0.146,0.476,0.328C12.406,27.851,12.195,27.992,11.933,27.992z M12.769,28.394
		c0-0.18,0.212-0.324,0.475-0.324c0.262,0,0.474,0.145,0.474,0.324c0,0.184-0.212,0.327-0.474,0.327
		C12.981,28.721,12.769,28.576,12.769,28.394z M13.57,29.34c0-0.182,0.215-0.322,0.474-0.322c0.261,0,0.473,0.145,0.473,0.322
		c0,0.181-0.212,0.326-0.473,0.326C13.781,29.666,13.57,29.521,13.57,29.34z M14.767,30.756c-0.261,0-0.473-0.145-0.473-0.322
		c0-0.184,0.212-0.328,0.473-0.328c0.26,0,0.476,0.145,0.476,0.328C15.239,30.612,15.027,30.756,14.767,30.756z M15.566,31.774
		c-0.262,0-0.475-0.146-0.475-0.328c0-0.18,0.212-0.326,0.475-0.326c0.262,0,0.475,0.146,0.475,0.326
		C16.038,31.627,15.825,31.774,15.566,31.774z M16.656,32.646c-0.265,0-0.476-0.146-0.476-0.328c0-0.184,0.211-0.328,0.476-0.328
		c0.26,0,0.473,0.146,0.473,0.328C17.129,32.499,16.916,32.646,16.656,32.646z M18.182,33.228c-0.262,0-0.473-0.146-0.473-0.328
		c0-0.186,0.211-0.328,0.473-0.328c0.259,0,0.472,0.146,0.472,0.328C18.653,33.08,18.441,33.228,18.182,33.228z M19.7,33.228
		c-0.265,0-0.476-0.146-0.476-0.328c0-0.186,0.211-0.328,0.476-0.328c0.26,0,0.472,0.146,0.472,0.328
		C20.172,33.078,19.959,33.228,19.7,33.228z M21.24,32.971c-0.265,0-0.476-0.146-0.476-0.324c0-0.182,0.211-0.324,0.476-0.324
		c0.26,0,0.473,0.145,0.473,0.324C21.712,32.826,21.499,32.971,21.24,32.971z M28.96,27.03c-7.189,0-13.013-1.083-13.013-8.03
		c0-1.664,0.814-3.207,2.22-4.489c2.339-2.136,6.299-1.005,10.792-1.005c4.474,0,8.419-1.143,10.764,0.98
		c1.419,1.287,2.25,2.838,2.25,4.514C41.973,26.817,36.147,27.03,28.96,27.03z"/>
	<g>
		<ellipse fill="#E1E0D1" cx="21.957" cy="19.447" rx="1.803" ry="2.599"/>
		<ellipse fill="#E1E0D1" cx="36.484" cy="19.447" rx="1.806" ry="2.599"/>
		<circle fill="#E1E0D1" cx="28.999" cy="22.863" r="0.677"/>
		<path fill="#E1E0D1" d="M30.431,24.294c-0.112-0.041-0.238,0.021-0.278,0.133c-0.175,0.49-0.641,0.822-1.159,0.822
			c-0.521,0-0.987-0.33-1.162-0.822c-0.04-0.109-0.165-0.174-0.279-0.133c-0.111,0.039-0.171,0.164-0.133,0.277
			c0.237,0.664,0.867,1.111,1.572,1.111c0.702,0,1.335-0.447,1.567-1.111C30.603,24.458,30.544,24.333,30.431,24.294z"/>
	</g>
	<g opacity="0.12">
		<ellipse fill="#E1E0D1" cx="11.933" cy="27.666" rx="0.477" ry="0.326"/>
		<path fill="#E1E0D1" d="M13.714,28.394c0-0.18-0.212-0.324-0.475-0.324c-0.262,0-0.475,0.145-0.475,0.324
			c0,0.184,0.213,0.327,0.475,0.327C13.503,28.721,13.714,28.576,13.714,28.394z"/>
		<ellipse fill="#E1E0D1" cx="14.042" cy="29.34" rx="0.472" ry="0.326"/>
		<ellipse fill="#E1E0D1" cx="14.767" cy="30.429" rx="0.475" ry="0.327"/>
		<ellipse fill="#E1E0D1" cx="15.566" cy="31.447" rx="0.477" ry="0.327"/>
		<ellipse fill="#E1E0D1" cx="16.656" cy="32.317" rx="0.472" ry="0.328"/>
		<ellipse fill="#E1E0D1" cx="18.182" cy="32.899" rx="0.477" ry="0.328"/>
		<ellipse fill="#E1E0D1" cx="19.7" cy="32.899" rx="0.475" ry="0.328"/>
		<path fill="#E1E0D1" d="M21.24,32.321c0.261,0,0.473,0.145,0.473,0.326c0,0.181-0.212,0.326-0.473,0.326
			c-0.265,0-0.476-0.146-0.476-0.326C20.768,32.465,20.979,32.321,21.24,32.321z"/>
	</g>
	<path fill="#E1E0D1" d="M21.923,15.5c1.497,0,2.71,1.746,2.71,3.898c0,2.15-1.213,3.896-2.71,3.896
		c-1.494,0-2.708-1.744-2.708-3.896C19.214,17.246,20.429,15.5,21.923,15.5 M21.923,15.194c-1.662,0-3.015,1.887-3.015,4.205
		s1.354,4.205,3.015,4.205c1.665,0,3.018-1.889,3.018-4.205C24.941,17.081,23.587,15.194,21.923,15.194L21.923,15.194z"/>
	<path fill="#E1E0D1" d="M36.451,15.5c1.496,0,2.708,1.746,2.708,3.898c0,2.15-1.212,3.896-2.708,3.896
		c-1.494,0-2.707-1.744-2.707-3.896C33.744,17.246,34.957,15.5,36.451,15.5 M36.451,15.194c-1.663,0-3.019,1.887-3.019,4.205
		s1.354,4.205,3.019,4.205s3.017-1.889,3.017-4.205C39.468,17.081,38.115,15.194,36.451,15.194L36.451,15.194z"/>
</g>
</svg>
