<?xml version="1.0" encoding="utf-8"?>
<!-- Generator: Adobe Illustrator 16.2.1, SVG Export Plug-In . SVG Version: 6.00 Build 0)  -->
<!DOCTYPE svg PUBLIC "-//W3C//DTD SVG 1.1//EN" "http://www.w3.org/Graphics/SVG/1.1/DTD/svg11.dtd">
<svg version="1.1" id="Capa_1" xmlns="http://www.w3.org/2000/svg" xmlns:xlink="http://www.w3.org/1999/xlink" x="0px" y="0px"
	 width="58.229px" height="51.172px" viewBox="0 0 58.229 51.172" enable-background="new 0 0 58.229 51.172" xml:space="preserve">
<g>
	<path opacity="0.3" fill="#635952" enable-background="new    " d="M24.647,45.546c0.161,0.369,0.254,0.812,0.254,1.338v4.074
		c0.288,0.031,0.579,0.06,0.872,0.08v-2.617C25.773,48.423,25.704,46.365,24.647,45.546z"/>
	<path opacity="0.3" fill="#635952" enable-background="new    " d="M45.687,45.454c0-3.158-7.313-5.722-16.344-5.722
		c-9.026,0-16.344,2.562-16.344,5.722c0,2.254,3.728,4.205,9.144,5.137v-3.635c0,0-0.143-1.744-1.741-2.324
		c0,0-0.941-0.651,0.071-1.018c0,0,2.931-0.242,4.026,1.622c-0.113-0.36-0.129-0.92,0.982-0.666c0,0,3.054,0.435,3.195,3.994
		l0.027,2.604c0.212,0.004,0.424,0.004,0.636,0.004c0.061,0,0.121,0,0.18,0l0.028-2.606c0.146-3.562,3.195-3.993,3.195-3.993
		c1.114-0.253,1.099,0.309,0.982,0.668c1.099-1.865,4.026-1.623,4.026-1.623c1.018,0.362,0.071,1.019,0.071,1.019
		c-1.599,0.58-1.741,2.323-1.741,2.323v3.709C41.749,49.77,45.687,47.771,45.687,45.454z"/>
	<path opacity="0.3" fill="#635952" enable-background="new    " d="M32.456,48.423v2.647c0.293-0.021,0.585-0.043,0.871-0.067
		v-4.117c0-0.526,0.096-0.971,0.254-1.34C32.529,46.365,32.456,48.423,32.456,48.423z"/>
	<path fill="#635952" d="M33.62,45.518c0,0,0.062-0.119,0.108-0.274c-0.056,0.096-0.104,0.198-0.146,0.305
		C33.594,45.536,33.605,45.527,33.62,45.518z"/>
	<path opacity="0.5" fill="#635952" enable-background="new    " d="M32.456,48.423c0,0,0.069-2.059,1.127-2.877
		c0.045-0.104,0.094-0.209,0.146-0.305c0.113-0.361,0.131-0.923-0.982-0.671c0,0-3.051,0.438-3.194,3.996l-0.028,2.604
		c1.002-0.004,1.982-0.037,2.935-0.104L32.456,48.423L32.456,48.423z"/>
	<path opacity="0.5" fill="#635952" enable-background="new    " d="M24.903,46.886c0-0.526-0.095-0.971-0.254-1.34
		c-0.013-0.01-0.021-0.021-0.037-0.026c0,0-0.062-0.119-0.111-0.276c-1.099-1.865-4.026-1.623-4.026-1.623
		c-1.016,0.36-0.071,1.019-0.071,1.019c1.601,0.577,1.741,2.323,1.741,2.323v3.636c0.88,0.149,1.803,0.274,2.76,0.366L24.903,46.886
		L24.903,46.886z"/>
	<path opacity="0.5" fill="#635952" enable-background="new    " d="M37.83,44.634c0,0,0.941-0.651-0.072-1.016
		c0,0-2.931-0.244-4.026,1.623c-0.048,0.155-0.111,0.274-0.111,0.274c-0.015,0.01-0.023,0.021-0.037,0.028
		c-0.16,0.369-0.253,0.812-0.253,1.338V51c0.957-0.082,1.88-0.193,2.76-0.334v-3.711C36.088,46.956,36.233,45.214,37.83,44.634z"/>
	<path fill="#635952" d="M24.647,45.546c-0.044-0.104-0.093-0.209-0.146-0.305c0.048,0.155,0.111,0.274,0.111,0.274
		C24.625,45.527,24.636,45.536,24.647,45.546z"/>
	<path opacity="0.5" fill="#635952" enable-background="new    " d="M25.773,48.423v2.615c0.949,0.073,1.934,0.121,2.936,0.133
		l-0.027-2.604c-0.144-3.562-3.195-3.993-3.195-3.993c-1.112-0.253-1.098,0.307-0.982,0.668c0.056,0.096,0.104,0.198,0.146,0.307
		C25.704,46.365,25.773,48.423,25.773,48.423z"/>
	<path opacity="0.25" fill="#635952" enable-background="new    " d="M10.676,28.636l-0.475,1.646c0,0-0.124,0.594,0.438,0.698
		c0.583-0.015,0.535-0.56,0.496-0.733L10.676,28.636L10.676,28.636z"/>
	<path fill="#635952" d="M58.186,21.743l0.043-0.213c-4.794-0.957-9.715-0.967-12.689-0.844c0.486-1.765,0.635-3.789,0.635-6.052
		c0-3.241-1.217-5.838-3.194-7.809c0.348-1.115,0.81-3.592-0.462-6.764c0,0-2.233-0.711-7.297,2.678C33.24,2.244,31.126,2,29.013,2
		c-2.325,0-4.672,0.295-6.864,0.896c-5.221-3.562-7.525-2.832-7.525-2.832c-1.504,3.762-0.573,6.549-0.29,7.239
		c-1.771,1.908-2.851,4.347-2.851,7.332c0,2.257,0.259,4.277,0.886,6.037C9.365,20.566,4.623,20.605,0,21.53l0.042,0.213
		c4.65-0.93,9.423-0.963,12.406-0.85c0.139,0.364,0.292,0.717,0.465,1.059c-2.949,0.096-7.989,0.473-12.815,1.834l0.062,0.209
		c4.865-1.371,9.944-1.74,12.869-1.828c1.763,3.287,5.237,5.408,11.422,6.074c-0.876,0.59-1.772,1.592-2.136,3.286
		c-1.195,0.574-4.981,1.97-7.255-1.938c0,0-1.271-2.324-3.707-2.508c0,0-2.358-0.037-0.161,1.475c0,0,1.578,0.742,2.669,3.543
		c0,0,1.424,4.77,8.282,3.236v4.93c0,0-0.146,1.742-1.743,2.322c0,0-0.942,0.654,0.071,1.02c0,0,4.433,0.361,4.433-3.27v-5.375
		c0,0-0.177-2.133,0.869-2.871v8.826c0,0-0.069,2.105-1.161,2.906c0,0-0.729,1.305,0.871,0.945c0,0,3.052-0.439,3.194-3.996
		l0.069-8.936h0.733l0.069,8.936c0.146,3.559,3.192,3.996,3.192,3.996c1.6,0.357,0.87-0.945,0.87-0.945
		c-1.09-0.799-1.161-2.906-1.161-2.906v-8.75c1.046,0.814,0.87,2.795,0.87,2.795v5.375c0,3.631,4.432,3.27,4.432,3.27
		c1.019-0.361,0.072-1.02,0.072-1.02c-1.602-0.58-1.743-2.322-1.743-2.322v-7.047c0-2.746-1.158-4.201-2.288-4.971
		c6.592-0.648,9.758-2.785,11.215-6.092c2.89,0.08,8.087,0.43,13.061,1.834l0.059-0.209c-4.944-1.396-10.107-1.756-13.022-1.842
		c0.139-0.332,0.261-0.681,0.364-1.039C48.431,20.781,53.373,20.782,58.186,21.743z M11.935,27.991c-0.26,0-0.472-0.144-0.472-0.324
		s0.211-0.328,0.472-0.328c0.265,0,0.476,0.146,0.476,0.328C12.407,27.85,12.197,27.991,11.935,27.991z M12.771,28.393
		c0-0.179,0.212-0.324,0.475-0.324c0.262,0,0.474,0.146,0.474,0.324c0,0.185-0.212,0.327-0.474,0.327
		C12.983,28.72,12.771,28.575,12.771,28.393z M13.572,29.339c0-0.182,0.215-0.323,0.474-0.323c0.261,0,0.473,0.146,0.473,0.323
		c0,0.181-0.212,0.326-0.473,0.326C13.782,29.665,13.572,29.52,13.572,29.339z M14.769,30.755c-0.261,0-0.473-0.146-0.473-0.323
		c0-0.183,0.212-0.328,0.473-0.328c0.26,0,0.476,0.146,0.476,0.328C15.24,30.611,15.029,30.755,14.769,30.755z M15.568,31.773
		c-0.262,0-0.475-0.146-0.475-0.328c0-0.18,0.212-0.326,0.475-0.326c0.262,0,0.475,0.146,0.475,0.326
		C16.04,31.626,15.827,31.773,15.568,31.773z M16.658,32.645c-0.265,0-0.476-0.146-0.476-0.328s0.211-0.327,0.476-0.327
		c0.26,0,0.473,0.146,0.473,0.327C17.131,32.499,16.918,32.645,16.658,32.645z M18.184,33.227c-0.262,0-0.473-0.146-0.473-0.328
		c0-0.185,0.211-0.328,0.473-0.328c0.259,0,0.472,0.146,0.472,0.328C18.655,33.079,18.443,33.227,18.184,33.227z M19.702,33.227
		c-0.265,0-0.476-0.146-0.476-0.328c0-0.185,0.211-0.328,0.476-0.328c0.26,0,0.472,0.146,0.472,0.328
		C20.174,33.077,19.961,33.227,19.702,33.227z M21.242,32.97c-0.265,0-0.476-0.146-0.476-0.325c0-0.181,0.211-0.324,0.476-0.324
		c0.26,0,0.473,0.146,0.473,0.324C21.714,32.825,21.501,32.97,21.242,32.97z M28.962,27.029c-7.189,0-13.013-1.082-13.013-8.029
		c0-1.664,0.814-3.207,2.22-4.489c2.339-2.136,6.299-1.005,10.792-1.005c4.474,0,8.419-1.143,10.764,0.98
		c1.419,1.287,2.25,2.838,2.25,4.514C41.975,26.816,36.149,27.029,28.962,27.029z"/>
	<g>
		<ellipse fill="#635952" cx="21.959" cy="19.446" rx="1.803" ry="2.599"/>
		<ellipse fill="#635952" cx="36.486" cy="19.446" rx="1.806" ry="2.599"/>
		<circle fill="#635952" cx="29.001" cy="22.862" r="0.677"/>
		<path fill="#635952" d="M30.433,24.294c-0.112-0.041-0.238,0.021-0.278,0.133c-0.175,0.49-0.641,0.822-1.159,0.822
			c-0.521,0-0.987-0.33-1.162-0.822c-0.04-0.11-0.165-0.174-0.279-0.133c-0.111,0.039-0.171,0.164-0.133,0.277
			c0.237,0.664,0.867,1.111,1.572,1.111c0.701,0,1.335-0.447,1.567-1.111C30.605,24.458,30.546,24.333,30.433,24.294z"/>
	</g>
	<g opacity="0.12">
		<ellipse fill="#635952" cx="11.935" cy="27.665" rx="0.477" ry="0.326"/>
		<path fill="#635952" d="M13.716,28.393c0-0.179-0.212-0.324-0.475-0.324c-0.262,0-0.475,0.146-0.475,0.324
			c0,0.185,0.213,0.327,0.475,0.327C13.505,28.72,13.716,28.575,13.716,28.393z"/>
		<ellipse fill="#635952" cx="14.044" cy="29.339" rx="0.472" ry="0.326"/>
		<ellipse fill="#635952" cx="14.769" cy="30.428" rx="0.475" ry="0.327"/>
		<ellipse fill="#635952" cx="15.568" cy="31.446" rx="0.477" ry="0.327"/>
		<ellipse fill="#635952" cx="16.658" cy="32.316" rx="0.472" ry="0.328"/>
		<ellipse fill="#635952" cx="18.184" cy="32.898" rx="0.477" ry="0.328"/>
		<ellipse fill="#635952" cx="19.702" cy="32.898" rx="0.475" ry="0.328"/>
		<path fill="#635952" d="M21.242,32.32c0.261,0,0.473,0.145,0.473,0.326c0,0.181-0.212,0.326-0.473,0.326
			c-0.265,0-0.476-0.146-0.476-0.326C20.77,32.464,20.981,32.32,21.242,32.32z"/>
	</g>
	<path fill="#635952" d="M21.925,15.499c1.497,0,2.71,1.746,2.71,3.898c0,2.151-1.213,3.896-2.71,3.896
		c-1.494,0-2.708-1.744-2.708-3.896C19.216,17.245,20.431,15.499,21.925,15.499 M21.925,15.193c-1.662,0-3.015,1.887-3.015,4.205
		c0,2.319,1.354,4.205,3.015,4.205c1.665,0,3.018-1.888,3.018-4.205C24.943,17.08,23.589,15.193,21.925,15.193L21.925,15.193z"/>
	<path fill="#635952" d="M36.453,15.499c1.496,0,2.708,1.746,2.708,3.898c0,2.151-1.212,3.896-2.708,3.896
		c-1.494,0-2.707-1.744-2.707-3.896S34.959,15.499,36.453,15.499 M36.453,15.193c-1.663,0-3.019,1.887-3.019,4.205
		c0,2.319,1.354,4.205,3.019,4.205s3.017-1.888,3.017-4.205C39.47,17.08,38.116,15.193,36.453,15.193L36.453,15.193z"/>
</g>
</svg>
