<?xml version="1.0" encoding="utf-8"?>
<!-- Generator: Adobe Illustrator 16.2.1, SVG Export Plug-In . SVG Version: 6.00 Build 0)  -->
<!DOCTYPE svg PUBLIC "-//W3C//DTD SVG 1.1//EN" "http://www.w3.org/Graphics/SVG/1.1/DTD/svg11.dtd">
<svg version="1.1" id="Capa_1" xmlns="http://www.w3.org/2000/svg" xmlns:xlink="http://www.w3.org/1999/xlink" x="0px" y="0px"
	 width="73.536px" height="61.896px" viewBox="0 0 73.536 61.896" enable-background="new 0 0 73.536 61.896" xml:space="preserve">
<g>
	<g>
		<path fill="#E1E0D1" d="M8.485,28.621C7.89,30.2,6.823,33.48,6.823,33.48l-1.965-1.964l1.531-4.427l-1.664-1.73l-3.029,2.995
			L0,26.724l8.419-8.419l2.796,2.795c0,0,2.38,1.752,2.495,3.895c0.064,1.189-0.455,2.021-1.031,2.628
			c-0.662,0.699-1.56,1.462-3.062,1.331C9.191,28.917,8.854,28.779,8.485,28.621z M6.289,23.763c0,0,1.272,1.271,1.496,1.497
			c0.483,0.481,1.005,1.181,1.698,1.298c0.872,0.146,1.763-0.695,1.797-1.496c0.032-0.798-0.97-1.599-0.97-1.599L8.451,21.6
			L6.289,23.763z"/>
		<polygon fill="#E1E0D1" points="62.729,20.135 70.581,27.955 69.118,29.453 62.004,22.371 		"/>
		<g>
			<path fill="#E1E0D1" d="M46.588,13.679c-0.201-0.109-1.027,0-1.364,0c-1.44,0-2.963,0.023-4.16-0.033
				C41.073,9.107,41.186,4.494,41.131,0c-2.82,2.467-6.009,5.28-8.953,7.82C31.97,8,30.966,8.726,30.948,8.984
				c-0.007,0.104,0.194,0.396,0.268,0.564c0.597,1.413,1.147,2.788,1.696,4.128c-1.986,0-3.97,0-5.957,0
				c2.983,3.094,6.085,6.117,9.219,9.252c0.163,0.164,0.542,0.637,0.633,0.632c0.059-0.002,0.447-0.48,0.6-0.632
				c2.95-2.952,5.703-5.705,8.65-8.653C46.172,14.163,46.686,13.732,46.588,13.679z M36.803,23.156l-9.236-9.232h5.767l-1.987-4.696
				l9.507-8.391l-0.13,13.062l5.251,0.03L36.803,23.156z"/>
			<path fill="#E1E0D1" d="M40.54,1.521l-8.824,7.787l2.079,4.922h-5.488l8.496,8.491l8.438-8.494l-4.826-0.028L40.54,1.521z
				 M38.969,8.654c-0.111,0.729-0.246,1.504-0.333,2.129c-0.165,1.18-0.591,3.739-1.079,4.547c-0.508,0.842-1.49,1.649-2.314,1.825
				c-1.149,0.243-2.335,0.273-2.719,0.105c-0.246-0.109-0.454-0.407-0.71-0.62c-0.755-0.629-1.613-1.268-2.23-1.896
				c1.612,0.04,3.212,0.094,4.859,0.103c-0.716-1.762-2.363-5.458-2.363-5.458l7.854-7.02C39.934,2.369,39.286,6.566,38.969,8.654z"
				/>
		</g>
		<g>
			<path fill="#E1E0D1" d="M28.268,18.08c-0.716-0.711-1.432-1.422-2.146-2.135c-0.713,0.712-1.427,1.422-2.143,2.132
				c-2.048,2.033-4.164,4.138-6.209,6.245c0.71,0.711,1.417,1.424,2.124,2.136c2.027,2.041,4.123,4.151,6.226,6.188
				c1.402-1.381,2.812-2.796,4.178-4.164c1.364-1.368,2.772-2.78,4.175-4.161C32.431,22.215,30.315,20.112,28.268,18.08z
				 M25.756,23.163c-0.148,0.169-0.301,0.383-0.433,0.498c-1.365,1.19-4.487,1.018-6.622,0.602
				c-0.062-0.125,0.193-0.334,0.332-0.469c2.369-2.208,4.767-4.734,7.122-6.984c0.028-0.009,0.032,0.012,0.034,0.032
				C26.944,18.898,26.966,21.771,25.756,23.163z"/>
			<path fill="#E1E0D1" d="M26.122,14.777c-3.182,3.175-6.392,6.319-9.518,9.551c3.165,3.169,6.298,6.37,9.518,9.484
				c3.192-3.146,6.326-6.343,9.519-9.484C32.515,21.097,29.303,17.952,26.122,14.777z M30.515,28.7
				c-1.4,1.402-2.848,2.854-4.285,4.271l-0.106,0.104l-0.107-0.104c-2.142-2.07-4.274-4.223-6.338-6.298
				c-0.742-0.746-1.485-1.493-2.23-2.239l-0.105-0.107l0.104-0.104c2.078-2.148,4.234-4.288,6.317-6.358
				c0.751-0.746,1.503-1.491,2.251-2.239l0.108-0.104l0.107,0.104c0.75,0.749,1.502,1.495,2.254,2.242
				c2.084,2.069,4.237,4.209,6.315,6.356l0.105,0.106l-0.108,0.106C33.361,25.847,31.914,27.299,30.515,28.7z"/>
		</g>
		<g>
			<path fill="#E1E0D1" d="M51.79,20.169c-1.362-1.363-2.771-2.775-4.17-4.155c-2.799,2.771-5.617,5.593-8.379,8.38
				c1.402,1.385,2.816,2.801,4.186,4.173s2.785,2.792,4.191,4.178c1.215-1.242,2.463-2.479,3.672-3.686
				c1.545-1.536,3.142-3.124,4.68-4.724C54.567,22.954,53.157,21.539,51.79,20.169z M47.254,23.229
				c-0.151,0.176-0.327,0.383-0.467,0.5c-1.424,1.205-4.446,1.022-6.621,0.599c-0.037-0.142,0.222-0.287,0.365-0.433
				c2.305-2.303,4.791-4.717,7.123-7.022C48.45,18.918,48.466,21.827,47.254,23.229z"/>
			<path fill="#E1E0D1" d="M47.62,14.844c-3.196,3.17-6.379,6.354-9.549,9.551c3.201,3.153,6.346,6.365,9.549,9.517
				c3.148-3.22,6.398-6.336,9.52-9.582C53.946,21.185,50.812,17.986,47.62,14.844z M51.506,29.275
				c-1.245,1.235-2.53,2.515-3.778,3.791l-0.106,0.11l-0.109-0.107c-1.441-1.423-2.896-2.879-4.303-4.289
				c-1.401-1.407-2.854-2.861-4.293-4.278l-0.108-0.105l0.106-0.108c2.834-2.856,5.727-5.752,8.596-8.597l0.107-0.106l0.107,0.105
				c1.438,1.414,2.884,2.862,4.281,4.266c1.4,1.404,2.849,2.856,4.285,4.271l0.106,0.104l-0.104,0.108
				C54.722,26.076,53.086,27.702,51.506,29.275z"/>
		</g>
		<g>
			<path fill="#E1E0D1" d="M36.938,25.427c-3.191,3.142-6.325,6.344-9.518,9.482c3.141,3.228,6.326,6.408,9.551,9.549
				c3.138-3.207,6.378-6.312,9.484-9.549C43.263,31.769,40.129,28.567,36.938,25.427z M40.841,39.84
				c-1.24,1.23-2.522,2.507-3.765,3.775l-0.106,0.11l-0.109-0.106c-2.889-2.812-5.782-5.707-8.6-8.6l-0.105-0.108l0.109-0.104
				c1.435-1.414,2.881-2.863,4.279-4.27c1.4-1.401,2.849-2.854,4.286-4.27l0.106-0.105l0.108,0.105
				c1.436,1.413,2.883,2.86,4.283,4.267c1.397,1.405,2.846,2.855,4.282,4.271l0.107,0.104l-0.104,0.108
				C44.047,36.652,42.417,38.271,40.841,39.84z"/>
			<path fill="#E1E0D1" d="M41.11,30.751c-1.361-1.364-2.771-2.776-4.172-4.156c-1.401,1.381-2.812,2.794-4.176,4.161
				c-1.364,1.366-2.773,2.779-4.175,4.16c2.747,2.817,5.564,5.635,8.378,8.376c1.21-1.233,2.455-2.474,3.66-3.671
				c1.539-1.529,3.131-3.111,4.662-4.705C43.887,33.535,42.477,32.12,41.11,30.751z M37.004,33.281
				c-0.23,0.379-0.616,0.813-0.932,1.063c-1.416,1.125-4.409,0.982-6.556,0.564c-0.063-0.135,0.197-0.331,0.333-0.467
				c2.303-2.304,4.835-4.668,7.121-7.021c0.027-0.007,0.031,0.015,0.033,0.032C37.549,29.187,37.909,31.791,37.004,33.281z"/>
		</g>
		<path fill="#E1E0D1" d="M66.189,32.383c-0.153-0.104-0.246-0.267-0.397-0.365c-0.105,1.643-1.612,2.861-3.262,2.692
			c-1.186-0.122-2.381-1.161-2.396-2.562c-0.02-1.584,1.312-2.763,2.464-3.294c-0.195-0.398-0.757-0.749-1.333-0.533
			c-0.803,0.301-1.329,1.428-1.598,2.229c-0.563-0.11-1.041-0.312-1.598-0.437c0.489-1.784,1.693-3.58,3.694-3.826
			c1.015-0.123,1.706,0.41,2.296,0.999c0.975,0.978,1.982,1.985,2.995,2.996c0.142,0.141,0.598,0.569,0.601,0.6
			c0.004,0.091-0.656,0.688-0.732,0.768C66.616,31.955,66.372,32.149,66.189,32.383z M62.063,31.715
			c0.014,0.709,0.798,1.176,1.432,0.935c0.416-0.159,1.272-1.023,1.063-1.832c-0.04-0.154-0.562-0.749-0.831-0.797
			c-0.027-0.006-0.033,0.033-0.033,0.033C63.054,30.062,62.053,31.126,62.063,31.715z"/>
		<path fill="#E1E0D1" d="M16.124,30.207c0,0-2.276,2.192-3.413,3.371c-0.409,0.425-1.041,0.959-0.897,1.796
			c0.126,0.759,1.218,1.533,2.096,1.103c0.82-0.405,2.1-1.92,2.1-1.92l2.227-2.208l1.7,1.652l-6.325,6.302l-1.679-1.675
			c0,0,0.3-0.228,0.413-0.391c-1.562-0.076-3.22-1.495-3.028-3.429c0.168-1.689,2.23-3.36,2.23-3.36l2.896-2.921L16.124,30.207z"/>
		<path fill="#E1E0D1" d="M57.071,30.783c0.299,0.623,0.777,1.242,0.999,1.832c-0.913,0.072-1.688,0.772-1.63,1.53
			c0.039,0.51,0.924,1.321,0.924,1.321l2.844,2.861l-1.496,1.496l-5.633-5.646l1.465-1.468c0,0,0.242,0.246,0.397,0.332
			C55.047,31.687,55.724,30.9,57.071,30.783z"/>
		<path fill="#E1E0D1" d="M23.161,33.978l2.517,0.824c0,0-2.422,2.365-2.85,2.867c1.634,0.175,2.896,1.396,2.763,3.264
			c-0.098,1.354-0.871,2.336-1.797,3.261c-0.99,0.99-2.066,1.92-3.76,1.798c-1.449-0.103-2.538-1.1-2.797-2.728
			c-0.13,0.104-0.363,0.321-0.363,0.321l-1.666-1.653L23.161,33.978z M19.966,40.469c-0.324,0.323-0.844,0.845-1.078,1.159
			c-0.303,0.409,0.345,1.767,1.012,1.937c0.206,0.051,0.41,0.09,0.666,0.032c0.879-0.197,2.027-1.354,2.43-2.229
			c0.571-1.25-0.33-2.25-1.731-2.163c-0.02,0.002-0.039,0.005-0.032,0.033C20.84,39.616,20.459,39.975,19.966,40.469z"/>
		<path fill="#E1E0D1" d="M48.084,34.778l2.197,2.162l1.397-1.33l1.403,1.405l-1.371,1.318c0,0,1.406,1.405,2.131,2.133
			c0.229,0.229,0.502,0.566,0.832,0.563c0.598-0.005,0.917-0.763,0.931-1.531c0.453,0.545,0.854,1.146,1.3,1.698
			c-0.301,1.159-1.238,2.461-2.764,2.062c-0.87-0.229-1.453-0.955-2.098-1.602c-0.658-0.659-1.279-1.329-1.829-1.83
			c-0.146,0.101-0.933,0.935-0.933,0.935l-1.397-1.433l0.932-0.896l-1.44-1.439L48.084,34.778z"/>
		<path fill="#E1E0D1" d="M51.182,47.389c-0.719-0.667-2.737-2.771-3.131-3.127c-0.326-0.301-0.799-0.731-1.329-0.731
			c-0.699,0-1.431,0.731-1.332,1.53c0.056,0.453,0.485,0.92,0.8,1.229c0.973,0.978,3.028,3.062,3.028,3.062l-1.5,1.431l-5.622-5.626
			l1.465-1.463c0,0,0.24,0.246,0.398,0.333c0.097-1.382,1.27-2.562,2.461-2.696c1.714-0.188,2.662,1.031,3.66,2.029
			c0.592,0.591,2.563,2.506,2.564,2.53C52.648,45.979,51.366,47.156,51.182,47.389z"/>
		<polygon fill="#E1E0D1" points="27.541,41.574 29.372,43.407 26.389,49.252 32.233,46.267 34.031,48.065 22.263,53.378 
			20.632,51.715 23.626,50.385 		"/>
		<path fill="#E1E0D1" d="M44.192,49.652c-1.101,1.151-2.259,2.245-3.359,3.395c1.078,0.989,2.871,0.02,2.795-1.464
			c0.646-0.053,1.281-0.114,1.931-0.166c0,1.39-0.36,2.106-0.964,2.794c-0.624,0.715-1.641,1.362-2.996,1.269
			c-2.039-0.146-4.143-2.277-4.16-4.459c-0.015-1.739,1.135-3.177,2.863-3.328C42.252,47.517,43.222,48.739,44.192,49.652z
			 M39.267,50.883c0.019,0.429,0.228,0.693,0.433,0.997c0.702-0.596,1.317-1.273,1.965-1.929
			C40.825,49.108,39.215,49.667,39.267,50.883z"/>
		<path fill="#E1E0D1" d="M34.942,51.649c-0.243,0.678-0.515,1.327-0.733,2.03c-1.666-0.436-2.988,0.793-2.895,2.296
			c0.104,1.653,1.944,3.518,3.527,3.691c1.788,0.199,2.977-1.233,2.464-3.096c0.695-0.146,1.329-0.354,2.029-0.499
			c0.681,1.963-0.137,3.574-1.232,4.593c-0.771,0.721-1.816,1.228-2.929,1.231c-2.695,0.014-5.078-2.363-5.756-4.493
			c-0.492-1.543-0.072-3.121,0.6-4.06C30.885,52.133,32.784,50.792,34.942,51.649z"/>
	</g>
	<polygon fill="#E1E0D1" points="69.064,16.389 65.624,19.821 64.934,19.146 68.375,15.732 	"/>
	<path fill="#E1E0D1" d="M68.002,22.246c0.307-0.332,1.274-1.26,1.438-1.438c0.138-0.15,0.337-0.37,0.337-0.613
		c0-0.322-0.337-0.659-0.703-0.612c-0.209,0.025-0.424,0.227-0.567,0.367c-0.448,0.449-1.409,1.396-1.409,1.396l-0.66-0.689
		l2.59-2.588l0.676,0.673c0,0-0.115,0.111-0.156,0.185c0.64,0.046,1.183,0.584,1.244,1.135c0.088,0.789-0.475,1.227-0.936,1.687
		c-0.271,0.271-1.154,1.182-1.164,1.182C68.652,22.924,68.109,22.331,68.002,22.246z"/>
	<path fill="#E1E0D1" d="M73.508,23.593c-0.307,0-0.568,0-0.922-0.023c0.043-0.211,0.113-0.398-0.08-0.739
		c-0.145-0.271-0.387-0.388-0.61-0.393c-0.328-0.024-0.71,0.224-0.956,0.604c-0.242,0.38-0.162,0.806,0.145,1.072
		c0.209,0.186,0.565,0.203,0.843,0.188c0.024,0.299,0.013,0.545,0.034,0.845c-0.645,0.026-1.125-0.022-1.521-0.372
		c-0.326-0.287-0.627-0.756-0.58-1.379c0.064-0.938,1.064-1.982,2.067-1.912c0.536,0.037,0.948,0.27,1.343,0.791
		C73.532,22.62,73.575,23.127,73.508,23.593z"/>
	<circle fill="#E1E0D1" cx="72.698" cy="26.1" r="0.654"/>
</g>
</svg>
