<?xml version="1.0" encoding="utf-8"?>
<!-- Generator: Adobe Illustrator 16.2.1, SVG Export Plug-In . SVG Version: 6.00 Build 0)  -->
<!DOCTYPE svg PUBLIC "-//W3C//DTD SVG 1.1//EN" "http://www.w3.org/Graphics/SVG/1.1/DTD/svg11.dtd">
<svg version="1.1" id="Capa_1" xmlns="http://www.w3.org/2000/svg" xmlns:xlink="http://www.w3.org/1999/xlink" x="0px" y="0px"
	 width="58.229px" height="51.172px" viewBox="0 0 58.229 51.172" enable-background="new 0 0 58.229 51.172" xml:space="preserve">
<g>
	<path opacity="0.3" fill="#574C44" enable-background="new    " d="M24.647,45.546c0.161,0.369,0.254,0.812,0.254,1.338v4.074
		c0.288,0.031,0.579,0.06,0.872,0.08v-2.617C25.773,48.423,25.704,46.365,24.647,45.546z"/>
	<path opacity="0.3" fill="#574C44" enable-background="new    " d="M45.687,45.454c0-3.158-7.314-5.721-16.344-5.721
		c-9.026,0-16.344,2.562-16.344,5.721c0,2.254,3.728,4.205,9.144,5.137v-3.635c0,0-0.143-1.744-1.741-2.324
		c0,0-0.942-0.651,0.071-1.018c0,0,2.931-0.242,4.026,1.623c-0.113-0.361-0.129-0.92,0.983-0.666c0,0,3.053,0.434,3.195,3.994
		l0.027,2.604c0.212,0.004,0.424,0.004,0.636,0.004c0.061,0,0.121,0,0.18,0l0.028-2.606c0.146-3.562,3.195-3.994,3.195-3.994
		c1.115-0.252,1.099,0.309,0.983,0.668c1.098-1.865,4.026-1.623,4.026-1.623c1.018,0.363,0.071,1.019,0.071,1.019
		c-1.598,0.58-1.741,2.323-1.741,2.323v3.709C41.749,49.77,45.687,47.771,45.687,45.454z"/>
	<path opacity="0.3" fill="#574C44" enable-background="new    " d="M32.456,48.423v2.648c0.293-0.021,0.585-0.043,0.871-0.068
		v-4.117c0-0.526,0.096-0.971,0.254-1.34C32.529,46.365,32.456,48.423,32.456,48.423z"/>
	<path fill="#574C44" d="M33.62,45.518c0,0,0.063-0.119,0.109-0.275c-0.056,0.096-0.104,0.199-0.146,0.305
		C33.594,45.536,33.605,45.527,33.62,45.518z"/>
	<path opacity="0.5" fill="#574C44" enable-background="new    " d="M32.456,48.423c0,0,0.07-2.059,1.127-2.877
		c0.045-0.104,0.094-0.209,0.146-0.305c0.113-0.361,0.131-0.922-0.983-0.67c0,0-3.05,0.438-3.194,3.996l-0.028,2.604
		c1.002-0.004,1.982-0.037,2.934-0.104L32.456,48.423L32.456,48.423z"/>
	<path opacity="0.5" fill="#574C44" enable-background="new    " d="M24.903,46.886c0-0.526-0.095-0.971-0.254-1.34
		c-0.013-0.01-0.021-0.02-0.037-0.026c0,0-0.063-0.119-0.112-0.277c-1.098-1.865-4.026-1.623-4.026-1.623
		c-1.016,0.361-0.071,1.019-0.071,1.019c1.6,0.577,1.741,2.323,1.741,2.323v3.636c0.88,0.149,1.803,0.274,2.76,0.366V46.886
		L24.903,46.886z"/>
	<path opacity="0.5" fill="#574C44" enable-background="new    " d="M37.83,44.634c0,0,0.942-0.651-0.072-1.016
		c0,0-2.931-0.244-4.026,1.623c-0.048,0.156-0.112,0.275-0.112,0.275c-0.014,0.01-0.023,0.02-0.037,0.028
		c-0.16,0.369-0.253,0.812-0.253,1.338V51c0.957-0.082,1.88-0.194,2.76-0.334v-3.711C36.088,46.956,36.233,45.214,37.83,44.634z"/>
	<path fill="#574C44" d="M24.647,45.546c-0.044-0.104-0.093-0.209-0.146-0.305c0.048,0.156,0.112,0.275,0.112,0.275
		C24.625,45.527,24.636,45.536,24.647,45.546z"/>
	<path opacity="0.5" fill="#574C44" enable-background="new    " d="M25.773,48.423v2.615c0.949,0.074,1.933,0.121,2.935,0.133
		l-0.027-2.604c-0.144-3.562-3.195-3.994-3.195-3.994c-1.113-0.252-1.098,0.307-0.983,0.668c0.056,0.096,0.104,0.199,0.146,0.307
		C25.704,46.365,25.773,48.423,25.773,48.423z"/>
	<path opacity="0.25" fill="#574C44" enable-background="new    " d="M10.676,28.636l-0.475,1.646c0,0-0.124,0.594,0.438,0.699
		c0.583-0.015,0.535-0.56,0.496-0.734L10.676,28.636L10.676,28.636z"/>
	<path fill="#574C44" d="M58.186,21.743l0.043-0.213c-4.794-0.957-9.715-0.967-12.69-0.844c0.487-1.765,0.635-3.789,0.635-6.052
		c0-3.241-1.217-5.838-3.194-7.809c0.347-1.115,0.809-3.592-0.462-6.764c0,0-2.234-0.711-7.297,2.678C33.24,2.244,31.126,2,29.013,2
		c-2.325,0-4.672,0.295-6.864,0.896c-5.221-3.562-7.526-2.832-7.526-2.832c-1.504,3.762-0.573,6.549-0.29,7.239
		c-1.771,1.908-2.85,4.347-2.85,7.332c0,2.257,0.258,4.277,0.885,6.037C9.365,20.566,4.623,20.605,0,21.53l0.042,0.213
		c4.651-0.93,9.423-0.963,12.406-0.85c0.139,0.364,0.292,0.717,0.465,1.059c-2.949,0.096-7.989,0.473-12.815,1.834l0.061,0.209
		c4.866-1.371,9.945-1.74,12.87-1.828c1.762,3.287,5.237,5.408,11.421,6.074c-0.876,0.59-1.772,1.592-2.135,3.287
		c-1.196,0.574-4.982,1.969-7.255-1.938c0,0-1.271-2.325-3.707-2.508c0,0-2.359-0.037-0.161,1.474c0,0,1.578,0.743,2.669,3.543
		c0,0,1.423,4.77,8.282,3.237v4.929c0,0-0.146,1.743-1.743,2.323c0,0-0.943,0.654,0.071,1.019c0,0,4.433,0.362,4.433-3.269v-5.375
		c0,0-0.177-2.133,0.869-2.871v8.826c0,0-0.07,2.105-1.161,2.906c0,0-0.729,1.305,0.871,0.945c0,0,3.051-0.439,3.194-3.996
		l0.069-8.935h0.734l0.069,8.935c0.146,3.559,3.192,3.996,3.192,3.996c1.6,0.358,0.871-0.945,0.871-0.945
		c-1.09-0.799-1.162-2.906-1.162-2.906v-8.75c1.046,0.814,0.871,2.795,0.871,2.795v5.375c0,3.631,4.431,3.269,4.431,3.269
		c1.019-0.361,0.072-1.019,0.072-1.019c-1.601-0.58-1.743-2.323-1.743-2.323v-7.046c0-2.747-1.158-4.202-2.288-4.971
		c6.592-0.649,9.758-2.785,11.215-6.092c2.89,0.08,8.087,0.43,13.061,1.834l0.058-0.209c-4.944-1.396-10.107-1.756-13.022-1.842
		c0.138-0.332,0.26-0.681,0.364-1.039C48.431,20.781,53.373,20.782,58.186,21.743z M11.935,27.991c-0.26,0-0.472-0.143-0.472-0.324
		c0-0.181,0.211-0.328,0.472-0.328c0.264,0,0.475,0.146,0.475,0.328C12.407,27.85,12.197,27.991,11.935,27.991z M12.771,28.393
		c0-0.179,0.212-0.324,0.474-0.324s0.474,0.145,0.474,0.324c0,0.184-0.212,0.327-0.474,0.327S12.771,28.575,12.771,28.393z
		 M13.572,29.339c0-0.182,0.214-0.323,0.473-0.323c0.261,0,0.473,0.145,0.473,0.323c0,0.18-0.212,0.326-0.473,0.326
		C13.782,29.665,13.572,29.52,13.572,29.339z M14.769,30.755c-0.261,0-0.473-0.145-0.473-0.323c0-0.183,0.212-0.328,0.473-0.328
		c0.26,0,0.475,0.145,0.475,0.328C15.24,30.611,15.029,30.755,14.769,30.755z M15.568,31.773c-0.262,0-0.475-0.146-0.475-0.328
		c0-0.18,0.212-0.326,0.475-0.326c0.261,0,0.474,0.146,0.474,0.326C16.04,31.626,15.827,31.773,15.568,31.773z M16.658,32.645
		c-0.264,0-0.475-0.146-0.475-0.328c0-0.183,0.211-0.328,0.475-0.328c0.26,0,0.473,0.146,0.473,0.328S16.918,32.645,16.658,32.645z
		 M18.184,33.227c-0.262,0-0.473-0.146-0.473-0.328c0-0.185,0.211-0.328,0.473-0.328c0.259,0,0.472,0.146,0.472,0.328
		C18.655,33.079,18.443,33.227,18.184,33.227z M19.702,33.227c-0.264,0-0.475-0.146-0.475-0.328c0-0.185,0.211-0.328,0.475-0.328
		c0.26,0,0.472,0.146,0.472,0.328C20.174,33.077,19.961,33.227,19.702,33.227z M21.242,32.97c-0.264,0-0.475-0.146-0.475-0.325
		c0-0.181,0.211-0.324,0.475-0.324c0.26,0,0.473,0.145,0.473,0.324C21.714,32.825,21.501,32.97,21.242,32.97z M28.962,27.029
		c-7.189,0-13.013-1.082-13.013-8.029c0-1.664,0.815-3.207,2.22-4.489c2.339-2.136,6.299-1.005,10.792-1.005
		c4.474,0,8.419-1.143,10.764,0.98c1.419,1.287,2.25,2.838,2.25,4.514C41.975,26.816,36.149,27.029,28.962,27.029z"/>
	<g>
		<ellipse fill="#574C44" cx="21.959" cy="19.446" rx="1.803" ry="2.599"/>
		<ellipse fill="#574C44" cx="36.486" cy="19.446" rx="1.805" ry="2.599"/>
		<circle fill="#574C44" cx="29.001" cy="22.862" r="0.677"/>
		<path fill="#574C44" d="M30.433,24.294c-0.112-0.041-0.238,0.021-0.278,0.133c-0.175,0.49-0.641,0.822-1.16,0.822
			c-0.521,0-0.987-0.33-1.162-0.822c-0.04-0.11-0.165-0.174-0.279-0.133c-0.111,0.039-0.171,0.164-0.133,0.277
			c0.237,0.664,0.867,1.111,1.572,1.111c0.702,0,1.335-0.447,1.568-1.111C30.605,24.458,30.546,24.333,30.433,24.294z"/>
	</g>
	<g opacity="0.12">
		<ellipse fill="#574C44" cx="11.935" cy="27.665" rx="0.476" ry="0.326"/>
		<path fill="#574C44" d="M13.716,28.393c0-0.179-0.212-0.324-0.475-0.324c-0.261,0-0.474,0.145-0.474,0.324
			c0,0.184,0.213,0.327,0.474,0.327C13.505,28.72,13.716,28.575,13.716,28.393z"/>
		<ellipse fill="#574C44" cx="14.044" cy="29.339" rx="0.472" ry="0.326"/>
		<ellipse fill="#574C44" cx="14.769" cy="30.428" rx="0.474" ry="0.327"/>
		<ellipse fill="#574C44" cx="15.568" cy="31.446" rx="0.476" ry="0.327"/>
		<ellipse fill="#574C44" cx="16.658" cy="32.316" rx="0.472" ry="0.328"/>
		<ellipse fill="#574C44" cx="18.184" cy="32.898" rx="0.476" ry="0.328"/>
		<ellipse fill="#574C44" cx="19.702" cy="32.898" rx="0.475" ry="0.328"/>
		<path fill="#574C44" d="M21.242,32.32c0.261,0,0.473,0.145,0.473,0.326c0,0.181-0.212,0.326-0.473,0.326
			c-0.264,0-0.475-0.146-0.475-0.326C20.77,32.464,20.981,32.32,21.242,32.32z"/>
	</g>
	<path fill="#574C44" d="M21.925,15.499c1.497,0,2.71,1.746,2.71,3.898c0,2.151-1.213,3.896-2.71,3.896
		c-1.494,0-2.708-1.744-2.708-3.896C19.216,17.245,20.431,15.499,21.925,15.499 M21.925,15.193c-1.662,0-3.015,1.887-3.015,4.205
		c0,2.319,1.354,4.205,3.015,4.205c1.665,0,3.018-1.888,3.018-4.205C24.943,17.08,23.589,15.193,21.925,15.193L21.925,15.193z"/>
	<path fill="#574C44" d="M36.453,15.499c1.496,0,2.708,1.746,2.708,3.898c0,2.151-1.212,3.896-2.708,3.896
		c-1.494,0-2.707-1.744-2.707-3.896C33.746,17.245,34.959,15.499,36.453,15.499 M36.453,15.193c-1.663,0-3.018,1.887-3.018,4.205
		c0,2.319,1.354,4.205,3.018,4.205c1.664,0,3.017-1.888,3.017-4.205C39.47,17.08,38.116,15.193,36.453,15.193L36.453,15.193z"/>
</g>
</svg>
