<?xml version="1.0" encoding="utf-8"?>
<!-- Generator: Adobe Illustrator 16.2.1, SVG Export Plug-In . SVG Version: 6.00 Build 0)  -->
<!DOCTYPE svg PUBLIC "-//W3C//DTD SVG 1.1//EN" "http://www.w3.org/Graphics/SVG/1.1/DTD/svg11.dtd">
<svg version="1.1" id="Capa_1" xmlns="http://www.w3.org/2000/svg" xmlns:xlink="http://www.w3.org/1999/xlink" x="0px" y="0px"
	 width="73.536px" height="61.896px" viewBox="0 0 73.536 61.896" enable-background="new 0 0 73.536 61.896" xml:space="preserve">
<g>
	<g>
		<path fill="#574C44" d="M8.485,28.62c-0.595,1.579-1.662,4.859-1.662,4.859l-1.965-1.964l1.531-4.427l-1.664-1.73l-3.029,2.995
			L0,26.723l8.419-8.419l2.796,2.795c0,0,2.38,1.752,2.495,3.895c0.064,1.189-0.455,2.02-1.031,2.628
			c-0.662,0.699-1.56,1.462-3.062,1.331C9.191,28.917,8.854,28.778,8.485,28.62z M6.289,23.762c0,0,1.272,1.271,1.496,1.497
			c0.483,0.482,1.005,1.181,1.698,1.298c0.872,0.146,1.763-0.695,1.797-1.496c0.032-0.798-0.97-1.598-0.97-1.598l-1.859-1.864
			L6.289,23.762z"/>
		<polygon fill="#574C44" points="62.729,20.135 70.581,27.954 69.118,29.452 62.004,22.371 		"/>
		<g>
			<path fill="#574C44" d="M46.588,13.678c-0.201-0.109-1.027,0-1.364,0c-1.44,0-2.963,0.024-4.16-0.033
				C41.073,9.106,41.186,4.493,41.131,0c-2.82,2.466-6.009,5.28-8.953,7.82C31.97,8,30.966,8.726,30.948,8.984
				c-0.007,0.104,0.194,0.396,0.268,0.565c0.597,1.413,1.147,2.788,1.696,4.127c-1.986,0-3.97,0-5.957,0
				c2.983,3.094,6.085,6.118,9.219,9.252c0.163,0.164,0.542,0.637,0.633,0.632c0.059-0.002,0.447-0.48,0.6-0.632
				c2.95-2.952,5.703-5.705,8.65-8.653C46.172,14.162,46.686,13.731,46.588,13.678z M36.803,23.155l-9.236-9.232h5.767l-1.987-4.697
				l9.507-8.39l-0.13,13.061l5.251,0.03L36.803,23.155z"/>
			<path fill="#574C44" d="M40.54,1.52l-8.824,7.787l2.079,4.922h-5.488l8.496,8.491l8.438-8.494l-4.826-0.028L40.54,1.52z
				 M38.969,8.653c-0.111,0.729-0.246,1.504-0.333,2.129c-0.165,1.18-0.591,3.739-1.079,4.547c-0.508,0.842-1.49,1.649-2.314,1.825
				c-1.149,0.243-2.335,0.273-2.719,0.105c-0.246-0.109-0.454-0.407-0.71-0.62c-0.755-0.629-1.613-1.267-2.23-1.896
				c1.612,0.04,3.212,0.094,4.859,0.102c-0.716-1.761-2.363-5.458-2.363-5.458l7.854-7.019C39.934,2.368,39.286,6.565,38.969,8.653z
				"/>
		</g>
		<g>
			<path fill="#574C44" d="M28.268,18.079c-0.716-0.711-1.432-1.422-2.146-2.135c-0.713,0.712-1.427,1.422-2.143,2.132
				c-2.048,2.033-4.164,4.138-6.209,6.245c0.71,0.711,1.417,1.424,2.124,2.136c2.027,2.041,4.123,4.151,6.226,6.188
				c1.402-1.381,2.812-2.796,4.178-4.164c1.364-1.368,2.772-2.78,4.175-4.161C32.431,22.214,30.315,20.111,28.268,18.079z
				 M25.756,23.163c-0.148,0.169-0.301,0.383-0.433,0.498c-1.365,1.19-4.487,1.017-6.622,0.601
				c-0.062-0.125,0.193-0.334,0.332-0.468c2.369-2.208,4.767-4.735,7.122-6.985c0.028-0.009,0.032,0.012,0.034,0.032
				C26.944,18.897,26.966,21.77,25.756,23.163z"/>
			<path fill="#574C44" d="M26.122,14.776c-3.182,3.175-6.392,6.319-9.518,9.551c3.165,3.169,6.298,6.37,9.518,9.484
				c3.192-3.145,6.326-6.343,9.519-9.484C32.515,21.096,29.303,17.951,26.122,14.776z M30.515,28.699
				c-1.4,1.402-2.848,2.854-4.285,4.271l-0.106,0.104l-0.107-0.104c-2.142-2.07-4.274-4.222-6.338-6.297
				c-0.742-0.747-1.485-1.494-2.23-2.24l-0.105-0.107l0.104-0.105c2.078-2.148,4.234-4.288,6.317-6.358
				c0.751-0.746,1.503-1.491,2.251-2.239l0.108-0.105l0.107,0.105c0.75,0.749,1.502,1.495,2.254,2.242
				c2.084,2.069,4.237,4.209,6.315,6.356l0.105,0.107l-0.108,0.106C33.361,25.846,31.914,27.298,30.515,28.699z"/>
		</g>
		<g>
			<path fill="#574C44" d="M51.79,20.169c-1.362-1.364-2.771-2.776-4.17-4.156c-2.799,2.772-5.617,5.593-8.379,8.38
				c1.402,1.385,2.816,2.801,4.186,4.173s2.785,2.792,4.191,4.178c1.215-1.242,2.463-2.48,3.672-3.686
				c1.545-1.536,3.142-3.124,4.68-4.723C54.567,22.953,53.157,21.539,51.79,20.169z M47.254,23.228
				c-0.151,0.176-0.327,0.383-0.467,0.5c-1.424,1.205-4.446,1.023-6.621,0.599c-0.037-0.142,0.222-0.287,0.365-0.433
				c2.305-2.303,4.791-4.717,7.123-7.022C48.45,18.918,48.466,21.826,47.254,23.228z"/>
			<path fill="#574C44" d="M47.62,14.844c-3.196,3.17-6.379,6.354-9.549,9.551c3.201,3.153,6.346,6.365,9.549,9.517
				c3.148-3.22,6.398-6.336,9.52-9.582C53.946,21.184,50.812,17.985,47.62,14.844z M51.506,29.274
				c-1.245,1.235-2.53,2.515-3.778,3.791l-0.106,0.11l-0.109-0.107c-1.441-1.423-2.896-2.879-4.303-4.289
				c-1.401-1.407-2.854-2.861-4.293-4.278l-0.108-0.106l0.106-0.108c2.834-2.857,5.727-5.752,8.596-8.597l0.107-0.106l0.107,0.105
				c1.438,1.414,2.884,2.862,4.281,4.266c1.4,1.404,2.849,2.856,4.285,4.271l0.106,0.104l-0.104,0.108
				C54.722,26.075,53.086,27.701,51.506,29.274z"/>
		</g>
		<g>
			<path fill="#574C44" d="M36.938,25.426c-3.191,3.142-6.325,6.344-9.518,9.483c3.141,3.227,6.326,6.408,9.551,9.549
				c3.138-3.207,6.378-6.312,9.484-9.549C43.263,31.768,40.129,28.566,36.938,25.426z M40.841,39.839
				c-1.24,1.231-2.522,2.507-3.765,3.776l-0.106,0.11l-0.109-0.106c-2.889-2.812-5.782-5.707-8.6-8.6l-0.105-0.108l0.109-0.104
				c1.435-1.414,2.881-2.863,4.279-4.269c1.4-1.402,2.849-2.854,4.286-4.27l0.106-0.105l0.108,0.105
				c1.436,1.413,2.883,2.861,4.283,4.267c1.397,1.405,2.846,2.855,4.282,4.271l0.107,0.104l-0.104,0.108
				C44.047,36.651,42.417,38.27,40.841,39.839z"/>
			<path fill="#574C44" d="M41.11,30.751c-1.361-1.365-2.771-2.777-4.172-4.157c-1.401,1.381-2.812,2.794-4.176,4.161
				c-1.364,1.367-2.773,2.78-4.175,4.161c2.747,2.817,5.564,5.634,8.378,8.376c1.21-1.234,2.455-2.474,3.66-3.671
				c1.539-1.53,3.131-3.112,4.662-4.705C43.887,33.534,42.477,32.119,41.11,30.751z M37.004,33.28
				c-0.23,0.379-0.616,0.813-0.932,1.063c-1.416,1.125-4.409,0.983-6.556,0.565c-0.063-0.135,0.197-0.331,0.333-0.467
				c2.303-2.304,4.835-4.668,7.121-7.021c0.027-0.007,0.031,0.014,0.033,0.032C37.549,29.186,37.909,31.791,37.004,33.28z"/>
		</g>
		<path fill="#574C44" d="M66.189,32.382c-0.153-0.104-0.246-0.266-0.397-0.365c-0.105,1.643-1.612,2.862-3.262,2.693
			c-1.186-0.122-2.381-1.162-2.396-2.562c-0.02-1.584,1.312-2.763,2.464-3.294c-0.195-0.398-0.757-0.749-1.333-0.533
			c-0.803,0.301-1.329,1.428-1.598,2.229c-0.563-0.11-1.041-0.312-1.598-0.436c0.489-1.784,1.693-3.58,3.694-3.826
			c1.015-0.123,1.706,0.41,2.296,0.999c0.975,0.977,1.982,1.985,2.995,2.996c0.142,0.14,0.598,0.569,0.601,0.599
			c0.004,0.091-0.656,0.688-0.732,0.768C66.616,31.955,66.372,32.148,66.189,32.382z M62.063,31.714
			c0.014,0.709,0.798,1.176,1.432,0.935c0.416-0.159,1.272-1.023,1.063-1.832c-0.04-0.154-0.562-0.749-0.831-0.797
			c-0.027-0.006-0.033,0.033-0.033,0.033C63.054,30.061,62.053,31.126,62.063,31.714z"/>
		<path fill="#574C44" d="M16.124,30.207c0,0-2.276,2.192-3.413,3.371c-0.409,0.425-1.041,0.959-0.897,1.796
			c0.126,0.758,1.218,1.533,2.096,1.102c0.82-0.405,2.1-1.92,2.1-1.92l2.227-2.208l1.7,1.653l-6.325,6.301l-1.679-1.674
			c0,0,0.3-0.228,0.413-0.391c-1.562-0.076-3.22-1.495-3.028-3.429c0.168-1.689,2.23-3.36,2.23-3.36l2.896-2.921L16.124,30.207z"/>
		<path fill="#574C44" d="M57.071,30.782c0.299,0.623,0.777,1.242,0.999,1.832c-0.913,0.072-1.688,0.772-1.63,1.53
			c0.039,0.51,0.924,1.321,0.924,1.321l2.844,2.862l-1.496,1.496l-5.633-5.646l1.465-1.467c0,0,0.242,0.246,0.397,0.332
			C55.047,31.686,55.724,30.899,57.071,30.782z"/>
		<path fill="#574C44" d="M23.161,33.977l2.517,0.824c0,0-2.422,2.366-2.85,2.868c1.634,0.174,2.896,1.396,2.763,3.263
			c-0.098,1.355-0.871,2.336-1.797,3.261c-0.99,0.99-2.066,1.92-3.76,1.798c-1.449-0.103-2.538-1.1-2.797-2.728
			c-0.13,0.105-0.363,0.322-0.363,0.322l-1.666-1.654L23.161,33.977z M19.966,40.468c-0.324,0.324-0.844,0.845-1.078,1.16
			c-0.303,0.409,0.345,1.766,1.012,1.936c0.206,0.051,0.41,0.09,0.666,0.032c0.879-0.197,2.027-1.354,2.43-2.229
			c0.571-1.25-0.33-2.25-1.731-2.163c-0.02,0.002-0.039,0.005-0.032,0.033C20.84,39.615,20.459,39.974,19.966,40.468z"/>
		<path fill="#574C44" d="M48.084,34.777l2.197,2.162l1.397-1.33l1.403,1.405l-1.371,1.319c0,0,1.406,1.405,2.131,2.132
			c0.229,0.229,0.502,0.567,0.832,0.564c0.598-0.005,0.917-0.763,0.931-1.531c0.453,0.545,0.854,1.146,1.3,1.698
			c-0.301,1.159-1.238,2.461-2.764,2.062c-0.87-0.229-1.453-0.955-2.098-1.601c-0.658-0.659-1.279-1.329-1.829-1.83
			c-0.146,0.1-0.933,0.934-0.933,0.934l-1.397-1.432l0.932-0.897l-1.44-1.439L48.084,34.777z"/>
		<path fill="#574C44" d="M51.182,47.388c-0.719-0.667-2.737-2.771-3.131-3.127c-0.326-0.3-0.799-0.731-1.329-0.731
			c-0.699,0-1.431,0.731-1.332,1.53c0.056,0.453,0.485,0.92,0.8,1.229c0.973,0.977,3.028,3.062,3.028,3.062l-1.5,1.431l-5.622-5.626
			l1.465-1.463c0,0,0.24,0.246,0.398,0.333c0.097-1.382,1.27-2.562,2.461-2.696c1.714-0.189,2.662,1.031,3.66,2.029
			c0.592,0.591,2.563,2.506,2.564,2.53C52.648,45.978,51.366,47.155,51.182,47.388z"/>
		<polygon fill="#574C44" points="27.541,41.573 29.372,43.406 26.389,49.252 32.233,46.266 34.031,48.064 22.263,53.378 
			20.632,51.714 23.626,50.385 		"/>
		<path fill="#574C44" d="M44.192,49.651c-1.101,1.151-2.259,2.245-3.359,3.395c1.078,0.989,2.871,0.019,2.795-1.464
			c0.646-0.053,1.281-0.115,1.931-0.166c0,1.389-0.36,2.106-0.964,2.794c-0.624,0.714-1.641,1.362-2.996,1.268
			c-2.039-0.146-4.143-2.277-4.16-4.459c-0.015-1.739,1.135-3.177,2.863-3.328C42.252,47.516,43.222,48.738,44.192,49.651z
			 M39.267,50.882c0.019,0.429,0.228,0.694,0.433,0.998c0.702-0.596,1.317-1.274,1.965-1.929
			C40.825,49.107,39.215,49.667,39.267,50.882z"/>
		<path fill="#574C44" d="M34.942,51.648c-0.243,0.678-0.515,1.327-0.733,2.03c-1.666-0.435-2.988,0.793-2.895,2.296
			c0.104,1.653,1.944,3.518,3.527,3.692c1.788,0.199,2.977-1.234,2.464-3.096c0.695-0.146,1.329-0.354,2.029-0.499
			c0.681,1.963-0.137,3.574-1.232,4.593c-0.771,0.72-1.816,1.227-2.929,1.231c-2.695,0.014-5.078-2.363-5.756-4.493
			c-0.492-1.543-0.072-3.121,0.6-4.06C30.885,52.132,32.784,50.792,34.942,51.648z"/>
	</g>
	<polygon fill="#574C44" points="69.064,16.388 65.624,19.82 64.934,19.145 68.375,15.731 	"/>
	<path fill="#574C44" d="M68.002,22.246c0.307-0.332,1.274-1.26,1.438-1.438c0.138-0.15,0.337-0.37,0.337-0.613
		c0-0.322-0.337-0.659-0.703-0.612c-0.209,0.025-0.424,0.226-0.567,0.367c-0.448,0.449-1.409,1.396-1.409,1.396l-0.66-0.689
		l2.59-2.588l0.676,0.673c0,0-0.115,0.111-0.156,0.184c0.64,0.046,1.183,0.584,1.244,1.135c0.088,0.789-0.475,1.227-0.936,1.687
		c-0.271,0.271-1.154,1.181-1.164,1.181C68.652,22.923,68.109,22.331,68.002,22.246z"/>
	<path fill="#574C44" d="M73.508,23.592c-0.307,0-0.568,0-0.922-0.023c0.043-0.211,0.113-0.398-0.08-0.739
		c-0.145-0.271-0.387-0.388-0.61-0.393c-0.328-0.024-0.71,0.224-0.956,0.604c-0.242,0.38-0.162,0.805,0.145,1.072
		c0.209,0.186,0.565,0.203,0.843,0.188c0.024,0.299,0.013,0.545,0.034,0.845c-0.645,0.027-1.125-0.022-1.521-0.372
		c-0.326-0.287-0.627-0.756-0.58-1.379c0.064-0.938,1.064-1.982,2.067-1.912c0.536,0.037,0.948,0.27,1.343,0.791
		C73.532,22.619,73.575,23.127,73.508,23.592z"/>
	<circle fill="#574C44" cx="72.698" cy="26.099" r="0.654"/>
</g>
</svg>
