<?xml version="1.0" encoding="utf-8"?>
<!-- Generator: Adobe Illustrator 16.2.1, SVG Export Plug-In . SVG Version: 6.00 Build 0)  -->
<!DOCTYPE svg PUBLIC "-//W3C//DTD SVG 1.1//EN" "http://www.w3.org/Graphics/SVG/1.1/DTD/svg11.dtd">
<svg version="1.1" id="Capa_1" xmlns="http://www.w3.org/2000/svg" xmlns:xlink="http://www.w3.org/1999/xlink" x="0px" y="0px"
	 width="89.164px" height="37.521px" viewBox="0 0 89.164 37.521" enable-background="new 0 0 89.164 37.521" xml:space="preserve">
<g>
	<rect x="28.001" y="32.973" fill="#E1E0D1" width="1.009" height="4.464"/>
	<polygon fill="#E1E0D1" points="37.913,33.855 39.278,33.855 39.278,37.437 40.288,37.437 40.288,33.855 41.649,33.855 
		41.649,32.973 37.913,32.973 	"/>
	<polygon fill="#E1E0D1" points="45.073,35.599 46.76,35.599 46.76,34.716 45.073,34.716 45.073,33.855 47.039,33.855 
		47.039,32.973 44.063,32.973 44.063,37.437 47.152,37.437 47.152,36.554 45.073,36.554 	"/>
	<polygon fill="#E1E0D1" points="68.434,33.855 69.799,33.855 69.799,37.437 70.811,37.437 70.811,33.855 72.171,33.855 
		72.171,32.973 68.434,32.973 	"/>
	<rect x="74.768" y="32.973" fill="#E1E0D1" width="1.01" height="4.464"/>
	<polygon fill="#E1E0D1" points="85.867,35.599 87.557,35.599 87.557,34.716 85.867,34.716 85.867,33.855 87.834,33.855 
		87.834,32.973 84.859,32.973 84.859,37.437 87.947,37.437 87.947,36.554 85.867,36.554 	"/>
	<path fill="#E1E0D1" d="M64.082,33.853c0.492,0,0.947,0.271,1.188,0.699l0.033,0.062h1.014l-0.054-0.158
		c-0.321-0.931-1.198-1.556-2.181-1.556c-1.273,0-2.309,1.035-2.309,2.312c0,1.271,1.034,2.307,2.309,2.307
		c0.982,0,1.859-0.624,2.181-1.554l0.054-0.156h-1.016l-0.031,0.062c-0.24,0.431-0.694,0.694-1.188,0.694
		c-0.748,0-1.357-0.605-1.357-1.354S63.334,33.853,64.082,33.853z"/>
	<polygon fill="#E1E0D1" points="34.907,35.719 33,32.974 31.986,32.974 31.986,37.437 33,37.437 33,34.688 34.892,37.437 
		34.907,37.434 34.907,37.437 35.92,37.437 35.92,32.974 34.907,32.974 	"/>
	<path fill="#E1E0D1" d="M53.23,34.615c0-0.902-0.728-1.633-1.625-1.641V32.97h-1.707v0.001v4.463h1.014V36.25h0.275l0.836,1.185
		h1.222l-0.948-1.349C52.846,35.822,53.23,35.265,53.23,34.615z M51.596,35.24h-0.684v-1.255h0.684v0.005
		c0.344,0.004,0.621,0.278,0.621,0.625C52.217,34.959,51.939,35.235,51.596,35.24z"/>
	<path fill="#E1E0D1" d="M57.109,32.973l-1.771,4.464h1.1l0.406-1.021h1.469l0.404,1.021h1.1l-1.771-4.464H57.109z M57.225,35.456
		l0.354-0.896l0.354,0.896H57.225z"/>
	<polygon fill="#E1E0D1" points="80.309,35.848 79.17,32.973 78.07,32.973 79.843,37.437 80.779,37.437 82.55,32.973 81.45,32.973 	
		"/>
	<path fill="#E1E0D1" d="M22.733,22.186c-0.151,0.286-0.341,0.552-0.59,0.799c-0.551,0.571-1.254,0.857-2.072,0.857
		s-1.503-0.286-2.074-0.857c-0.552-0.55-0.836-1.254-0.836-2.055c0-0.817,0.284-1.502,0.836-2.092
		c0.571-0.571,1.256-0.855,2.074-0.855s1.521,0.284,2.072,0.855c0.249,0.248,0.439,0.531,0.61,0.837h5.402
		c-0.247-1.73-1.026-3.215-2.339-4.489c-1.371-1.389-3-2.17-4.874-2.354c-0.269-0.021-0.544-0.035-0.833-0.042
		c-0.003,0-0.004,0-0.007,0c-0.014,0-0.028,0-0.043-0.002c-2.24,0.004-4.14,0.801-5.734,2.396c-1.599,1.578-2.378,3.5-2.378,5.744
		c0,2.246,0.78,4.167,2.378,5.746c0.471,0.469,0.968,0.869,1.492,1.197c1.173,0.703,2.54,1.125,3.998,1.175
		c0.069,0.002,0.138,0.005,0.208,0.005c0.021,0,0.04,0,0.062,0c2.238-0.003,4.156-0.783,5.732-2.377
		c1.313-1.274,2.073-2.777,2.339-4.49L22.733,22.186L22.733,22.186z"/>
	<path fill="#E1E0D1" d="M81.804,28.406c0.015,0,0.032-0.006,0.048-0.006l0,0c0.004,0,0.004,0,0.004,0
		c1.961-0.062,3.676-0.785,5.078-2.207c1.506-1.47,2.229-3.255,2.229-5.343c0-2.089-0.726-3.854-2.229-5.344
		c-1.414-1.431-3.131-2.157-5.13-2.229H78.01h-1.464h-4.058l-1.887,6.146l-1.875-6.104l0.014-0.037h-0.023h-5.499h-0.024
		l0.013,0.037l-1.871,6.104l-1.888-6.144h-5.521l0.829,2.704c-0.22-0.272-0.459-0.543-0.724-0.8
		c-1.559-1.597-3.479-2.394-5.736-2.396h-0.002h-0.005h-0.003c-2.243,0-4.164,0.8-5.743,2.396c-0.679,0.67-1.211,1.402-1.603,2.195
		c-0.185-0.984-0.653-1.847-1.411-2.591c-0.902-0.921-1.98-1.418-3.236-1.505h-8.491c1.947,1.968,3.15,4.672,3.15,7.654
		c0,2.893-1.128,5.518-2.965,7.465h5.176v-4.086l2.333,4.086h5.571l-2.724-4.826c0.196-0.146,0.566-0.427,1.079-0.865
		c0.301-0.252,0.551-0.558,0.765-0.9c0.185,1.869,0.969,3.495,2.354,4.864c1.579,1.597,3.5,2.377,5.743,2.377
		c2.266,0,4.187-0.78,5.746-2.377c1.494-1.457,2.285-3.205,2.4-5.229l2.137,6.959h0.008h5.516h0.008l1.869-6.092l1.87,6.092h0.007
		h5.516h0.006l3.185-10.366v10.366L81.804,28.406L81.804,28.406z M81.396,17.985c0.054-0.02,0.144-0.02,0.213-0.02
		c0.76,0,1.449,0.283,1.998,0.85c0.565,0.565,0.851,1.239,0.851,2.035c0,0.795-0.284,1.485-0.851,2.034
		c-0.549,0.567-1.238,0.849-1.998,0.849h-0.213V17.985z M36.098,18.964c0,0.032,0,0.032,0,0.032c0,0.039,0,0.039,0,0.071v0.07
		c-0.036,0.282-0.16,0.511-0.39,0.741c-0.213,0.213-0.477,0.354-0.795,0.354h-1.74c-0.003-0.001-0.008-0.001-0.008-0.001h-0.003
		V17.67h1.751c0.318,0.017,0.582,0.141,0.795,0.37c0.267,0.249,0.371,0.513,0.39,0.867V18.964z M50.359,22.983
		c-0.571,0.593-1.236,0.876-2.075,0.876c-0.798,0-1.502-0.283-2.054-0.876c-0.588-0.552-0.873-1.255-0.873-2.055
		c0-0.817,0.285-1.502,0.873-2.092c0.552-0.571,1.256-0.855,2.054-0.855c0.839,0,1.504,0.284,2.075,0.855
		c0.57,0.59,0.875,1.272,0.875,2.092C51.234,21.728,50.93,22.433,50.359,22.983z"/>
	<circle fill="#E1E0D1" cx="2.858" cy="17.911" r="1.215"/>
	<circle fill="#E1E0D1" cx="5.801" cy="12.615" r="0.558"/>
	<circle fill="#E1E0D1" cx="3.629" cy="12.886" r="0.762"/>
	<circle fill="#E1E0D1" cx="4.777" cy="9.291" r="1.516"/>
	<path fill="#E1E0D1" d="M7.394,8.765C7.84,9.056,8.44,8.934,8.732,8.49c0.293-0.444,0.169-1.048-0.277-1.342
		C8.009,6.856,7.409,6.979,7.116,7.426C6.823,7.871,6.948,8.471,7.394,8.765z"/>
	<circle fill="#E1E0D1" cx="9.42" cy="4.58" r="0.717"/>
	<circle fill="#E1E0D1" cx="12.946" cy="5.763" r="1.124"/>
	<circle fill="#E1E0D1" cx="12.899" cy="0.986" r="0.966"/>
	<path fill="#E1E0D1" d="M16.459,3.275c0.655,0.434,1.534,0.248,1.963-0.402c0.348-0.53,0.294-1.207-0.085-1.674
		c0.164-0.017,0.321-0.101,0.418-0.247c0.169-0.26,0.098-0.604-0.16-0.771c-0.258-0.17-0.603-0.099-0.772,0.159
		c-0.087,0.133-0.111,0.289-0.077,0.432c-0.608-0.232-1.319-0.021-1.693,0.545C15.623,1.97,15.805,2.846,16.459,3.275z"/>
	<circle fill="#E1E0D1" cx="20.75" cy="4.666" r="1.123"/>
	<circle fill="#E1E0D1" cx="22.806" cy="1.123" r="1.123"/>
	<circle fill="#E1E0D1" cx="25.043" cy="3.153" r="0.717"/>
	<circle fill="#E1E0D1" cx="28.954" cy="9.523" r="0.967"/>
	<circle fill="#E1E0D1" cx="3.871" cy="28.661" r="0.967"/>
	<circle fill="#E1E0D1" cx="0.716" cy="26.106" r="0.716"/>
	<path fill="#E1E0D1" d="M9.187,20.917c0-6.019,4.877-10.896,10.892-10.896c2.7,0,5.169,0.984,7.073,2.612
		c0.484-0.232,1.132-1.008,1.013-1.019c0.083-0.479-0.116-0.984-0.548-1.271c-0.14-0.09-0.291-0.15-0.444-0.179l0.006-0.001
		c0,0-0.321-0.025-0.302-0.349c0.043-0.033,0.085-0.072,0.117-0.124c0.169-0.259,0.099-0.604-0.16-0.771
		c-0.257-0.17-0.604-0.101-0.772,0.16c-0.169,0.257-0.097,0.603,0.16,0.771c0.054,0.032,0.11,0.058,0.169,0.072
		c0.004,0.012,0.01,0.021,0.022,0.035c0.112,0.106,0.063,0.222,0.027,0.272c-0.153,0.065-0.297,0.157-0.418,0.28
		c-0.072-0.12-0.172-0.226-0.296-0.308c-0.246-0.161-0.537-0.195-0.801-0.12c0.14-0.567-0.081-1.183-0.598-1.521
		c-0.169-0.108-0.354-0.182-0.544-0.214c0.076-0.061,0.145-0.134,0.201-0.221c0.093-0.145,0.141-0.305,0.151-0.463
		c0,0.002,0.004,0.004,0.004,0.004s0.179-0.709,0.757-0.434c0.518,0.343,1.216,0.196,1.557-0.32c0.34-0.521,0.195-1.219-0.323-1.559
		c-0.519-0.343-1.216-0.193-1.556,0.321c-0.126,0.19-0.185,0.405-0.185,0.618V6.296c0,0,0,0.005,0,0.012c0,0.001,0,0.001,0,0.001
		c0,0.094-0.021,0.611-0.57,0.566c-0.002,0-0.003,0-0.003,0c-0.036-0.029-0.07-0.062-0.109-0.088
		c-0.424-0.277-0.983-0.182-1.29,0.211c-0.085-0.193-0.225-0.367-0.415-0.491c-0.521-0.343-1.215-0.198-1.556,0.32
		c-0.057,0.089-0.099,0.18-0.129,0.271c-0.018-0.012-0.034-0.021-0.052-0.037c-0.281-0.184-0.615-0.227-0.915-0.142
		c0.058-0.062,0.112-0.13,0.161-0.202c0.43-0.654,0.249-1.533-0.407-1.964c-0.655-0.431-1.533-0.247-1.963,0.408
		c-0.226,0.344-0.281,0.752-0.188,1.122c-0.559-0.264-1.238-0.084-1.585,0.446c-0.218,0.331-0.257,0.729-0.143,1.078
		c0.01,0.027,0.019,0.06,0.031,0.083c0.012,0.033,0.029,0.064,0.045,0.1c0.234,0.438,0.605,0.336,0.86,0.489
		c0.001,0.002,0.004,0.005,0.006,0.007c0.242,0.131,0.408,0.384,0.408,0.678c0,0.425-0.344,0.77-0.771,0.77
		c-0.425,0-0.77-0.345-0.77-0.77c0-0.04,0.007-0.078,0.012-0.115c0-0.005,0-0.009,0-0.013c0.046-0.462-0.115-0.655-0.186-0.718
		c-0.011-0.01-0.021-0.021-0.033-0.023c-0.158-0.104-0.335-0.154-0.51-0.158V8.135c-0.004,0-0.006,0-0.009,0s-0.005,0-0.005,0
		c-0.04-0.004-0.083,0.001-0.13,0.013c-0.084,0.013-0.164,0.031-0.243,0.062c-0.111,0.027-0.234,0.053-0.367,0.048
		c-0.192-0.007-0.364-0.187-0.618-0.284c-0.002-0.001-0.002,0-0.004,0c-0.49-0.208-1.073-0.045-1.376,0.415
		c-0.15,0.229-0.203,0.491-0.174,0.74c0,0.004-0.001,0.005-0.001,0.01c0.002,0.014,0.006,0.024,0.008,0.039
		c0.027,0.173,0.094,0.337,0.199,0.482c0.018,0.062-0.019,0.084-0.088,0.081c-0.006,0.002-0.017,0.004-0.024,0.006
		c-0.04,0.003-0.079,0.014-0.118,0.021c-0.034,0.007-0.069,0.017-0.107,0.023c-0.077,0.019-0.125,0.052-0.161,0.077
		c-0.02,0.012-0.038,0.021-0.057,0.035c-0.045,0.018-0.125,0.014-0.159-0.155c-0.013-0.033-0.025-0.067-0.038-0.104
		c-0.007-0.02-0.015-0.036-0.021-0.057c-0.012-0.033-0.025-0.062-0.039-0.084c0-0.002-0.001,0-0.001-0.002
		c-0.086-0.166-0.213-0.312-0.379-0.422C9.885,8.737,9.189,8.884,8.848,9.4c-0.341,0.52-0.198,1.217,0.321,1.558
		c0.241,0.157,0.521,0.21,0.784,0.17l0.031,0.021c0.142-0.075,0.304-0.124,0.476-0.124c0.561,0,1.017,0.456,1.017,1.02
		c0,0.562-0.456,1.018-1.017,1.018c-0.562,0-1.017-0.455-1.017-1.018c0-0.005,0.002-0.012,0.002-0.02
		c-0.07-0.289-0.243-0.557-0.512-0.729c-0.56-0.367-1.313-0.212-1.681,0.349c-0.369,0.562-0.213,1.312,0.348,1.685
		c0.167,0.106,0.352,0.171,0.539,0.19c-0.39,0.002-0.771,0.189-1.003,0.538c-0.04-0.032-0.082-0.062-0.124-0.093
		c-0.7-0.46-1.64-0.265-2.1,0.436C4.454,15.096,4.648,16.04,5.347,16.5c0.231,0.15,0.491,0.229,0.75,0.246
		c-0.043,0.048-0.084,0.099-0.12,0.149c-0.37,0.563-0.215,1.313,0.346,1.683c0.155,0.104,0.323,0.158,0.494,0.186
		c0.394,0.271,0.439,0.764,0.226,1.111c-0.053,0.068-0.455,0.562-1.062,0.15c-0.093-0.113-0.205-0.217-0.334-0.302
		c-0.699-0.459-1.638-0.265-2.098,0.438c-0.349,0.526-0.321,1.196,0.02,1.689c-0.232-0.064-0.479-0.036-0.692,0.071
		c0.035-0.398-0.144-0.806-0.501-1.039c-0.519-0.34-1.216-0.196-1.556,0.322c-0.341,0.52-0.198,1.216,0.322,1.556
		c0.376,0.248,0.846,0.239,1.206,0.02c0,0.314,0.151,0.625,0.435,0.812c0.446,0.293,1.045,0.17,1.338-0.275
		c0.028-0.044,0.05-0.087,0.07-0.132h0.001c0.045-0.098,0.071-0.201,0.081-0.306c0.142-0.336,0.397-0.378,0.508-0.378
		c0.013,0,0.027,0.002,0.042,0.002c0.008,0.001,0.013,0.002,0.013,0.002l-0.004-0.001c0.138-0.003,0.276-0.023,0.41-0.062
		c0,0,0,0.001,0,0.002c0.002-0.002,0.006-0.003,0.008-0.006c0.11-0.031,0.216-0.077,0.316-0.139c0.311-0.05,0.402,0.234,0.322,0.477
		c0,0.001-0.001,0.001-0.001,0.001c-0.032,0.05-0.055,0.1-0.079,0.149c-0.004,0.004-0.006,0.01-0.009,0.015
		c-0.037,0.044-0.047,0.084-0.042,0.122c-0.144,0.466,0.024,0.986,0.451,1.271c0.212,0.14,0.451,0.192,0.684,0.181
		c0.082-0.025,0.168-0.046,0.26-0.046c0.058-0.018,0.114-0.038,0.168-0.064c-0.009,0.025-0.015,0.056-0.022,0.078
		c0.363,0.069,0.638,0.39,0.638,0.771c0,0.434-0.352,0.783-0.784,0.783c-0.345,0-0.634-0.227-0.739-0.532
		c-0.025-0.045-0.049-0.1-0.069-0.169c-0.007-0.11-0.031-0.215-0.069-0.317c-0.001-0.005-0.001-0.009-0.002-0.014
		c0-0.002-0.001-0.002-0.003-0.003c-0.082-0.21-0.225-0.396-0.427-0.53c-0.519-0.34-1.215-0.195-1.555,0.321
		C3.947,25.314,4.09,26.01,4.609,26.35c0.441,0.29,1.009,0.229,1.379-0.117c0.007-0.006,0.014-0.013,0.021-0.019
		c0.006-0.004,0.011-0.009,0.016-0.019c0.003-0.002,0.007-0.004,0.009-0.008c0.265-0.28,0.344-0.092,0.369,0.077
		c-0.16,0.575,0.061,1.214,0.587,1.562c0.021,0.014,0.045,0.024,0.068,0.04c-0.128,0.079-0.241,0.188-0.33,0.324
		c-0.34,0.521-0.196,1.214,0.322,1.558c0.515,0.339,1.203,0.197,1.547-0.311c-0.001,0.402,0.195,0.802,0.559,1.038
		c0.571,0.375,1.338,0.217,1.712-0.354c0.137-0.285,0.09-0.509,0.09-0.509l0.007,0.004c-0.003-0.025-0.006-0.054-0.006-0.075
		c0-0.264,0.211-0.478,0.474-0.478c0.262,0,0.475,0.213,0.475,0.478c0,0.155-0.076,0.29-0.192,0.379l0.001,0.001h-0.003
		c-0.052,0.039-0.113,0.067-0.178,0.083c-0.042,0.022-0.085,0.05-0.126,0.082c-0.017,0.016-0.033,0.031-0.05,0.048
		c-0.023,0.021-0.048,0.041-0.066,0.066c-0.043,0.049-0.083,0.1-0.119,0.153c-0.163,0.246-0.236,0.528-0.228,0.807
		c-0.139,0.76-0.672,0.409-0.672,0.409c-0.33-0.221-0.774-0.125-0.992,0.203c-0.217,0.331-0.124,0.774,0.206,0.993
		c0.331,0.219,0.775,0.127,0.992-0.204c0.021-0.029,0.036-0.062,0.051-0.098l0.001,0.003c0,0,0.001-0.004,0.004-0.012
		c0.008-0.021,0.015-0.038,0.022-0.061c0.069-0.166,0.285-0.559,0.733-0.361c0.081,0.092,0.174,0.176,0.281,0.245
		c0.122,0.08,0.253,0.141,0.386,0.178c-0.023,0.021-0.045,0.052-0.064,0.08c-0.17,0.258-0.098,0.604,0.159,0.771
		c0.257,0.17,0.604,0.097,0.773-0.16c0.148-0.228,0.111-0.521-0.077-0.704c0.299-0.092,0.566-0.282,0.75-0.562
		c0.066-0.101,0.115-0.207,0.154-0.314c0.113,0.257,0.298,0.479,0.547,0.646c0.7,0.459,1.639,0.267,2.098-0.438
		c0.061-0.091,0.108-0.187,0.146-0.284c0.04-0.104,0.064-0.201,0.082-0.297C12.257,29.74,9.187,25.687,9.187,20.917z"/>
</g>
</svg>
