<?xml version="1.0" encoding="utf-8"?>
<!-- Generator: Adobe Illustrator 17.0.0, SVG Export Plug-In . SVG Version: 6.00 Build 0)  -->
<!DOCTYPE svg PUBLIC "-//W3C//DTD SVG 1.1//EN" "http://www.w3.org/Graphics/SVG/1.1/DTD/svg11.dtd">
<svg version="1.1" id="Capa_1" xmlns="http://www.w3.org/2000/svg" xmlns:xlink="http://www.w3.org/1999/xlink" x="0px" y="0px"
	 width="104.002px" height="36.13px" viewBox="39.647 0 104.002 36.13" enable-background="new 39.647 0 104.002 36.13"
	 xml:space="preserve">
<g>
	<polygon fill="#E2E1D3" points="70.978,14.178 75.623,14.178 73.326,7.455 	"/>
	<polygon fill="#E2E1D3" points="129.666,14.178 134.311,14.178 132.016,7.455 	"/>
	<path fill="#E2E1D3" d="M135.898,0.475h-7.793l-4.131,11.18l-0.903-11.18h-8.317L112.057,6.6l-2.699-6.125h-8.317l-0.226,2.709
		l-0.021,0.225l-0.106-0.123C100.372,2.949,97.433,0,91.791,0c-5.484,0-10.015,3.418-11.674,8.291l-2.904-7.816h-7.791
		l-4.133,11.182L64.386,0.475h-8.317l-2.7,6.127L50.67,0.475h-8.315l-1.233,15.236h-1.475v9.016h5.878
		c2.273,0,3.887-1.143,4.52-2.922h6.726c0.656,1.922,2.239,2.922,4.448,2.922h5.797c2.32,0,3.74-0.982,4.679-3.209
		c0.055-0.135,0.661-1.615,0.661-1.615h1.899l0.418,1.24c0.854,2.4,2.452,3.584,5.033,3.584h24.504c2.275,0,3.892-1.143,4.521-2.922
		h6.729c0.655,1.922,2.239,2.922,4.45,2.922h6.102c2.432,0,3.918-1.164,4.688-3.623l0.349-1.201h1.897l0.416,1.24
		c0.854,2.4,2.453,3.584,5.035,3.584h5.252v-9.016h-2.116L135.898,0.475z M64.133,21.664h-2.917c-1.214,0-1.626-0.518-1.729-1.752
		L58.841,8.91l-4.104,9.604h-2.735l-4.104-9.627l-0.619,11.025c-0.105,1.234-0.543,1.752-1.755,1.752h-2.918v-2.865h0.8
		c0.361,0,0.542-0.205,0.567-0.568l1.188-14.895h3.509l4.671,11.178h0.055l4.671-11.178h3.511l1.188,14.895
		c0.023,0.363,0.206,0.568,0.566,0.568h0.802L64.133,21.664L64.133,21.664z M81.716,21.664h-2.014c-1.292,0-1.755-0.332-2.169-1.5
		l-1.134-3.195h-6.195l-1.136,3.195c-0.415,1.168-0.854,1.5-2.143,1.5h-2.041v-2.865h0.414c0.438,0,0.646-0.104,0.801-0.568
		l5.444-14.895h3.538l5.422,14.895c0.154,0.465,0.362,0.568,0.801,0.568h0.413L81.716,21.664L81.716,21.664z M99.686,21.664h-2.893
		v-0.875c0-0.391,0.027-0.775,0.027-0.775h-0.056c0,0-1.959,1.959-5.394,1.959c-4.802,0-8.906-3.664-8.906-9.576
		c0-5.266,4.002-9.369,9.319-9.369c4.49,0,6.685,2.322,6.685,2.322l-1.907,2.426c0,0-1.911-1.625-4.699-1.625
		c-3.173,0-5.885,2.506-5.885,6.225c0,4,2.732,6.449,6.017,6.449c2.916,0,4.646-1.904,4.646-1.904v-1.369
		c0-0.389-0.207-0.568-0.567-0.568h-1.11v-2.865h2.972c1.235,0,1.752,0.514,1.752,1.73L99.686,21.664L99.686,21.664z
		 M122.818,21.664h-2.913c-1.214,0-1.628-0.518-1.731-1.752L117.529,8.91l-4.105,9.604h-2.735l-4.103-9.627l-0.623,11.025
		c-0.104,1.234-0.541,1.752-1.757,1.752h-2.914v-2.865h0.8c0.362,0,0.541-0.205,0.566-0.568l1.188-14.895h3.513l4.674,11.178h0.05
		l4.673-11.178h3.513l1.188,14.895c0.023,0.363,0.206,0.568,0.564,0.568h0.801v2.865H122.818z M140.401,21.664h-2.013
		c-1.291,0-1.757-0.332-2.168-1.5l-1.137-3.195h-6.193l-1.138,3.195c-0.412,1.168-0.853,1.5-2.144,1.5h-2.039v-2.865h0.414
		c0.438,0,0.646-0.104,0.801-0.568l5.444-14.895h3.535l5.422,14.895c0.153,0.465,0.358,0.568,0.804,0.568h0.409L140.401,21.664
		L140.401,21.664z"/>
	<polygon fill="#E2E1D3" points="92.614,31.25 91.643,29.279 90.674,31.25 88.5,31.564 90.069,33.092 89.702,35.252 91.643,34.234 
		93.585,35.252 93.212,33.092 94.785,31.564 	"/>
	<path fill="#E2E1D3" d="M51.596,30.234c0.033-0.205,0.096-0.371,0.18-0.506c0.084-0.137,0.194-0.238,0.332-0.303
		c0.138-0.068,0.307-0.105,0.508-0.105s0.372,0.033,0.509,0.105c0.138,0.062,0.247,0.166,0.333,0.303
		c0.084,0.135,0.146,0.301,0.181,0.506c0.036,0.199,0.055,0.434,0.055,0.701h1.077c0-0.369-0.04-0.705-0.122-1.014
		s-0.208-0.568-0.382-0.789c-0.173-0.219-0.396-0.389-0.667-0.512c-0.274-0.121-0.602-0.184-0.982-0.184
		c-0.404,0-0.744,0.068-1.018,0.207c-0.273,0.137-0.496,0.326-0.665,0.572c-0.168,0.244-0.288,0.533-0.361,0.873
		c-0.073,0.342-0.109,0.709-0.109,1.113v2.146c0,0.402,0.036,0.775,0.109,1.117s0.193,0.633,0.361,0.877
		c0.169,0.246,0.391,0.438,0.665,0.572c0.273,0.137,0.613,0.205,1.018,0.205s0.743-0.064,1.018-0.203
		c0.274-0.131,0.496-0.311,0.664-0.537c0.168-0.229,0.289-0.492,0.361-0.795c0.074-0.307,0.11-0.627,0.11-0.959v-0.271h-1.077v0.271
		c0,0.201-0.02,0.396-0.055,0.592c-0.035,0.191-0.097,0.367-0.181,0.516c-0.085,0.154-0.194,0.273-0.333,0.367
		c-0.137,0.094-0.308,0.139-0.509,0.139c-0.202,0-0.371-0.045-0.508-0.139c-0.138-0.094-0.248-0.213-0.332-0.367
		c-0.084-0.146-0.146-0.322-0.18-0.516c-0.038-0.193-0.057-0.391-0.057-0.592v-2.695C51.54,30.668,51.558,30.436,51.596,30.234z"/>
	<path fill="#E2E1D3" d="M63.733,29.186c-0.167-0.23-0.387-0.41-0.664-0.541c-0.275-0.137-0.619-0.203-1.032-0.203
		c-0.281,0-0.526,0.033-0.744,0.094c-0.215,0.061-0.402,0.146-0.561,0.254c-0.159,0.111-0.292,0.242-0.402,0.396
		c-0.108,0.156-0.197,0.324-0.262,0.51c-0.067,0.186-0.113,0.383-0.141,0.592c-0.029,0.215-0.042,0.428-0.042,0.648v2.697
		c0,0.225,0.013,0.438,0.042,0.648c0.027,0.207,0.073,0.404,0.141,0.594c0.064,0.184,0.153,0.354,0.262,0.512
		c0.109,0.148,0.243,0.279,0.402,0.393c0.158,0.111,0.346,0.195,0.561,0.258c0.217,0.062,0.463,0.092,0.744,0.092
		c0.414,0,0.757-0.066,1.032-0.203c0.277-0.131,0.498-0.312,0.664-0.539c0.165-0.227,0.283-0.492,0.353-0.793
		c0.069-0.305,0.104-0.627,0.104-0.959v-2.697c0-0.334-0.034-0.654-0.104-0.957C64.016,29.68,63.898,29.414,63.733,29.186z
		 M63.114,33.9c0,0.201-0.019,0.387-0.054,0.549c-0.037,0.168-0.099,0.311-0.181,0.428c-0.085,0.121-0.194,0.209-0.333,0.271
		c-0.137,0.064-0.307,0.098-0.509,0.098s-0.372-0.033-0.508-0.098c-0.137-0.062-0.249-0.15-0.334-0.271
		c-0.083-0.117-0.146-0.26-0.18-0.428c-0.036-0.162-0.054-0.348-0.054-0.549v-3.23c0-0.201,0.018-0.387,0.054-0.555
		c0.034-0.162,0.097-0.305,0.18-0.42c0.085-0.117,0.197-0.209,0.334-0.273c0.137-0.062,0.307-0.098,0.508-0.098
		c0.202,0,0.372,0.033,0.509,0.098c0.139,0.064,0.248,0.156,0.333,0.273c0.083,0.115,0.145,0.258,0.181,0.42
		c0.034,0.168,0.054,0.354,0.054,0.555V33.9z"/>
	<polygon fill="#E2E1D3" points="72.132,33.436 70.145,28.52 69.44,28.52 69.44,36.053 70.515,36.053 70.515,31.043 72.442,36.053 
		73.207,36.053 73.207,28.52 72.132,28.52 	"/>
	<polygon fill="#E2E1D3" points="78.59,36.053 79.667,36.053 79.667,32.553 81.013,32.553 81.013,31.746 79.667,31.746 
		79.667,29.324 81.554,29.324 81.554,28.52 78.59,28.52 	"/>
	<path fill="#E2E1D3" d="M105.337,31.965c0.104-0.178,0.188-0.348,0.253-0.516c0.067-0.172,0.118-0.346,0.151-0.52
		c0.03-0.18,0.047-0.367,0.047-0.568c0-0.268-0.034-0.521-0.105-0.76c-0.067-0.238-0.179-0.445-0.332-0.623
		c-0.148-0.176-0.345-0.312-0.584-0.42c-0.235-0.105-0.521-0.156-0.862-0.156c-0.335,0-0.621,0.055-0.862,0.16
		c-0.235,0.104-0.434,0.254-0.582,0.449c-0.151,0.191-0.264,0.43-0.334,0.701c-0.065,0.273-0.104,0.578-0.104,0.918v0.27h1.078
		v-0.27c0-0.199,0.019-0.385,0.051-0.557c0.033-0.16,0.084-0.305,0.152-0.422c0.063-0.119,0.151-0.209,0.252-0.27
		c0.098-0.064,0.219-0.104,0.352-0.104c0.136,0,0.255,0.033,0.357,0.1c0.098,0.061,0.184,0.141,0.25,0.242
		c0.064,0.102,0.114,0.211,0.15,0.346c0.033,0.129,0.053,0.262,0.053,0.393c0,0.1-0.009,0.197-0.021,0.305
		c-0.013,0.105-0.048,0.229-0.103,0.379c-0.052,0.139-0.132,0.309-0.24,0.502c-0.106,0.197-0.256,0.428-0.448,0.703l-1.888,2.688
		v1.076h3.771v-1.076H103.1l1.885-2.42C105.117,32.318,105.235,32.131,105.337,31.965z"/>
	<path fill="#E2E1D3" d="M114.436,29.15c-0.11-0.164-0.233-0.297-0.373-0.395c-0.135-0.102-0.275-0.176-0.414-0.229
		c-0.142-0.051-0.275-0.088-0.401-0.102c-0.127-0.02-0.234-0.025-0.325-0.025c-0.09,0-0.196,0.008-0.325,0.025
		c-0.13,0.014-0.263,0.051-0.401,0.102c-0.14,0.053-0.279,0.127-0.417,0.229c-0.139,0.098-0.26,0.229-0.37,0.395
		c-0.105,0.166-0.197,0.371-0.267,0.611c-0.067,0.242-0.104,0.531-0.104,0.869v3.23c0,0.396,0.054,0.736,0.155,1.02
		c0.106,0.279,0.244,0.514,0.422,0.691c0.175,0.18,0.375,0.311,0.602,0.396c0.229,0.082,0.464,0.117,0.705,0.117
		c0.24,0,0.476-0.035,0.701-0.117c0.228-0.086,0.431-0.217,0.604-0.396c0.176-0.182,0.312-0.412,0.42-0.691
		c0.104-0.281,0.158-0.621,0.158-1.02v-3.23c0-0.338-0.033-0.629-0.104-0.869C114.635,29.521,114.545,29.316,114.436,29.15z
		 M113.728,33.863c0,0.076-0.006,0.164-0.013,0.262c-0.007,0.096-0.021,0.195-0.039,0.293c-0.019,0.102-0.049,0.197-0.086,0.295
		c-0.036,0.094-0.089,0.18-0.146,0.25c-0.061,0.074-0.132,0.135-0.22,0.18c-0.088,0.043-0.188,0.064-0.309,0.064
		c-0.118,0-0.22-0.021-0.308-0.064c-0.086-0.045-0.159-0.104-0.219-0.18c-0.06-0.07-0.105-0.156-0.145-0.25
		c-0.041-0.098-0.068-0.193-0.088-0.295c-0.021-0.098-0.035-0.197-0.039-0.293c-0.007-0.098-0.012-0.186-0.012-0.262v-3.232
		c0-0.082,0.003-0.17,0.008-0.27c0.004-0.096,0.015-0.197,0.032-0.295c0.019-0.1,0.044-0.193,0.076-0.293
		c0.036-0.092,0.082-0.174,0.143-0.25c0.062-0.072,0.134-0.129,0.227-0.17c0.089-0.047,0.197-0.07,0.322-0.07
		c0.131,0,0.234,0.023,0.325,0.07c0.09,0.041,0.164,0.098,0.226,0.17c0.06,0.076,0.105,0.158,0.144,0.25
		c0.031,0.1,0.059,0.193,0.074,0.293c0.018,0.098,0.028,0.199,0.034,0.295c0.005,0.1,0.007,0.188,0.007,0.27v3.232H113.728z"/>
	<path fill="#E2E1D3" d="M120.715,28.834c-0.12,0.102-0.239,0.182-0.358,0.25c-0.138,0.078-0.278,0.145-0.438,0.201v0.809h0.81v5.92
		h1.076v-7.535h-0.81C120.928,28.611,120.834,28.729,120.715,28.834z"/>
	<path fill="#E2E1D3" d="M129.187,34.115h-2.156v-1.258l1.891-4.414h1.349v4.596h0.83v1.076h-0.83v1.881h-1.08v-1.881H129.187z
		 M129.187,33.039l0.135-3.244l-1.211,3.244H129.187z"/>
</g>
</svg>
