<svg xmlns="http://www.w3.org/2000/svg" width="104" viewBox="39.647 0 104.002 36.13" enable-background="new 39.647 0 104.002 36.13"><g fill="#e2e1d3"><path d="m70.978 14.178h4.642l-2.29-6.723z"/><path d="m129.67 14.178h4.64l-2.29-6.723z"/><path d="m135.9.475h-7.793l-4.131 11.18-.903-11.18h-8.317l-2.697 6.125-2.699-6.125h-8.317l-.226 2.709-.021.225-.106-.123c-.316-.337-3.255-3.286-8.897-3.286-5.484 0-10.02 3.418-11.674 8.291l-2.904-7.816h-7.791l-4.133 11.182-.903-11.182h-8.317l-2.7 6.127-2.699-6.127h-8.315l-1.233 15.236h-1.475v9.02h5.878c2.273 0 3.887-1.143 4.52-2.922h6.726c.656 1.922 2.239 2.922 4.448 2.922h5.797c2.32 0 3.74-.982 4.679-3.209.055-.135.661-1.615.661-1.615h1.899l.418 1.24c.854 2.4 2.452 3.584 5.03 3.584h24.504c2.275 0 3.892-1.143 4.521-2.922h6.729c.655 1.922 2.239 2.922 4.45 2.922h6.102c2.432 0 3.918-1.164 4.688-3.623l.349-1.201h1.897l.416 1.24c.854 2.4 2.453 3.584 5.03 3.584h5.252v-9.02h-2.116l-5.635-15.236m-71.77 21.19h-2.917c-1.214 0-1.626-.518-1.729-1.752l-.646-11-4.104 9.604h-2.735l-4.104-9.627-.619 11.03c-.105 1.234-.543 1.752-1.755 1.752h-2.918v-2.865h.8c.361 0 .542-.205.567-.568l1.188-14.895h3.509l4.671 11.178h.055l4.671-11.178h3.511l1.188 14.895c.023.363.206.568.566.568h.802l-.001 2.865m17.583 0h-2.01c-1.292 0-1.755-.332-2.169-1.5l-1.134-3.195h-6.195l-1.136 3.195c-.415 1.168-.854 1.5-2.143 1.5h-2.041v-2.865h.414c.438 0 .646-.104.801-.568l5.444-14.895h3.538l5.422 14.895c.154.465.362.568.801.568h.413l-.001 2.865m17.97 0h-2.893v-.875c0-.391.027-.775.027-.775h-.056c0 0-1.959 1.959-5.394 1.959-4.802 0-8.906-3.664-8.906-9.576 0-5.266 4-9.369 9.319-9.369 4.49 0 6.685 2.322 6.685 2.322l-1.907 2.426c0 0-1.911-1.625-4.699-1.625-3.173 0-5.885 2.506-5.885 6.225 0 4 2.732 6.449 6.02 6.449 2.916 0 4.646-1.904 4.646-1.904v-1.369c0-.389-.207-.568-.567-.568h-1.11v-2.865h2.972c1.235 0 1.752.514 1.752 1.73v7.815m23.13 0h-2.913c-1.214 0-1.628-.518-1.731-1.752l-.645-11-4.105 9.604h-2.735l-4.103-9.627-.623 11.03c-.104 1.234-.541 1.752-1.757 1.752h-2.914v-2.865h.8c.362 0 .541-.205.566-.568l1.188-14.895h3.513l4.674 11.178h.05l4.673-11.178h3.513l1.188 14.895c.023.363.206.568.564.568h.801v2.865h-.004m17.583 0h-2.01c-1.291 0-1.757-.332-2.168-1.5l-1.137-3.195h-6.193l-1.138 3.195c-.412 1.168-.853 1.5-2.144 1.5h-2.039v-2.865h.414c.438 0 .646-.104.801-.568l5.444-14.895h3.535l5.422 14.895c.153.465.358.568.804.568h.409l.003 2.865"/><path d="m92.61 31.25l-.97-1.97-.97 1.97-2.17.314 1.57 1.526-.37 2.16 1.94-1.02 1.94 1.02-.37-2.16 1.57-1.526z"/><path d="m51.596 30.23c.033-.205.096-.371.18-.506.084-.137.194-.238.332-.303.138-.068.307-.105.508-.105s.372.033.509.105c.138.062.247.166.333.303.084.135.146.301.181.506.036.199.055.434.055.701h1.077c0-.369-.04-.705-.122-1.014s-.208-.568-.382-.789c-.173-.219-.396-.389-.667-.512-.274-.121-.602-.184-.982-.184-.404 0-.744.068-1.018.207-.273.137-.496.326-.665.572-.168.244-.288.533-.361.873-.073.342-.109.709-.109 1.113v2.146c0 .402.036.775.109 1.117s.193.633.361.877c.169.246.391.438.665.572.273.137.613.205 1.018.205s.743-.064 1.018-.203c.274-.131.496-.311.664-.537.168-.229.289-.492.361-.795.074-.307.11-.627.11-.959v-.271h-1.077v.271c0 .201-.02.396-.055.592-.035.191-.097.367-.181.516-.085.154-.194.273-.333.367-.137.094-.308.139-.509.139-.202 0-.371-.045-.508-.139-.138-.094-.248-.213-.332-.367-.084-.146-.146-.322-.18-.516-.038-.193-.057-.391-.057-.592v-2.695c.001-.261.019-.493.057-.695"/><path d="m63.733 29.19c-.167-.23-.387-.41-.664-.541-.275-.137-.619-.203-1.032-.203-.281 0-.526.033-.744.094-.215.061-.402.146-.561.254-.159.111-.292.242-.402.396-.108.156-.197.324-.262.51-.067.186-.113.383-.141.592-.029.215-.042.428-.042.648v2.697c0 .225.013.438.042.648.027.207.073.404.141.594.064.184.153.354.262.512.109.148.243.279.402.393.158.111.346.195.561.258.217.062.463.092.744.092.414 0 .757-.066 1.032-.203.277-.131.498-.312.664-.539.165-.227.283-.492.353-.793.069-.305.104-.627.104-.959v-2.697c0-.334-.034-.654-.104-.957-.07-.302-.188-.568-.353-.796m-.619 4.714c0 .201-.019.387-.054.549-.037.168-.099.311-.181.428-.085.121-.194.209-.333.271-.137.064-.307.098-.509.098s-.372-.033-.508-.098c-.137-.062-.249-.15-.334-.271-.083-.117-.146-.26-.18-.428-.036-.162-.054-.348-.054-.549v-3.23c0-.201.018-.387.054-.555.034-.162.097-.305.18-.42.085-.117.197-.209.334-.273.137-.062.307-.098.508-.098.202 0 .372.033.509.098.139.064.248.156.333.273.083.115.145.258.181.42.034.168.054.354.054.555v3.23"/><path d="m72.13 33.436l-1.99-4.916h-.7v7.53h1.08v-5.01l1.92 5.01h.77v-7.53h-1.08z"/><path d="m78.59 36.05h1.08v-3.497h1.34v-.807h-1.34v-2.422h1.88v-.804h-2.96z"/><path d="m105.34 31.965c.104-.178.188-.348.253-.516.067-.172.118-.346.151-.52.03-.18.047-.367.047-.568 0-.268-.034-.521-.105-.76-.067-.238-.179-.445-.332-.623-.148-.176-.345-.312-.584-.42-.235-.105-.521-.156-.862-.156-.335 0-.621.055-.862.16-.235.104-.434.254-.582.449-.151.191-.264.43-.334.701-.065.273-.104.578-.104.918v.27h1.078v-.27c0-.199.019-.385.051-.557.033-.16.084-.305.152-.422.063-.119.151-.209.252-.27.098-.064.219-.104.352-.104.136 0 .255.033.357.1.098.061.184.141.25.242.064.102.114.211.15.346.033.129.053.262.053.393 0 .1-.009.197-.021.305-.013.105-.048.229-.103.379-.052.139-.132.309-.24.502-.106.197-.256.428-.448.703l-1.888 2.688v1.076h3.771v-1.076h-2.689l1.885-2.42c.132-.197.25-.384.352-.55"/><path d="m114.44 29.15c-.11-.164-.233-.297-.373-.395-.135-.102-.275-.176-.414-.229-.142-.051-.275-.088-.401-.102-.127-.02-.234-.025-.325-.025-.09 0-.196.008-.325.025-.13.014-.263.051-.401.102-.14.053-.279.127-.417.229-.139.098-.26.229-.37.395-.105.166-.197.371-.267.611-.067.242-.104.531-.104.869v3.23c0 .396.054.736.155 1.02.106.279.244.514.422.691.175.18.375.311.602.396.229.082.464.117.705.117.24 0 .476-.035.701-.117.228-.086.431-.217.604-.396.176-.182.312-.412.42-.691.104-.281.158-.621.158-1.02v-3.23c0-.338-.033-.629-.104-.869-.067-.24-.157-.445-.266-.611m-.708 4.713c0 .076-.006.164-.013.262-.007.096-.021.195-.039.293-.019.102-.049.197-.086.295-.036.094-.089.18-.146.25-.061.074-.132.135-.22.18-.088.043-.188.064-.309.064-.118 0-.22-.021-.308-.064-.086-.045-.159-.104-.219-.18-.06-.07-.105-.156-.145-.25-.041-.098-.068-.193-.088-.295-.021-.098-.035-.197-.039-.293-.007-.098-.012-.186-.012-.262v-3.232c0-.082.003-.17.008-.27.004-.096.015-.197.032-.295.019-.1.044-.193.076-.293.036-.092.082-.174.143-.25.062-.072.134-.129.227-.17.089-.047.197-.07.322-.07.131 0 .234.023.325.07.09.041.164.098.226.17.06.076.105.158.144.25.031.1.059.193.074.293.018.098.028.199.034.295.005.1.007.188.007.27v3.232h.006"/><path d="m120.72 28.834c-.12.102-.239.182-.358.25-.138.078-.278.145-.438.201v.809h.81v5.92h1.076v-7.535h-.81c-.067.132-.161.25-.28.355"/><path d="m129.19 34.12h-2.156v-1.258l1.891-4.414h1.349v4.596h.83v1.076h-.83v1.881h-1.08v-1.881h-.004m0-1.076l.135-3.244-1.211 3.244h1.076"/></g></svg>