<svg xmlns="http://www.w3.org/2000/svg" viewBox="934.165 159.386 59.792 65.817" enable-background="new 934.165 159.386 59.792 65.817"><path fill="#3a332c" d="m993.96 186.89c-.801-2.264-2.247-4.01-3.11-4.926-2.926.606-4.658-2.622-2.531-4.099.661-.417 1.521-.193 1.86.371.695 1.16-1.067 1.28-.735.384.007-.031.065-.112-.062-.179-.719-.312-1.433.56-1.221 1.374.164.859 1.049 1.522 2.403 1.469 2.348-.348 3.03-3.085 1.501-5.17-.944-1.499-3.632-2.118-5.227-.615 2.672-2.919.059-8.156-4.235-7.958-3.323.11-5.05 3.506-3.375 5.619 1.895 2.331 5.173.673 4.592-1.271-.035-.136-.145-.25-.297-.141-1.168.755-1.802-1.107-.502-1.222 1.829-.34 3.327 5.446-2.769 6.219-1.126.06-2.932.502-4.882 1.404 1.346-1.229.668-3.41-.934-3.356-1.144.029-1.506.97-1.285 1.505.175.429.593.468.663.319-.069-.19.184-.39.383-.19.207.205-.085.762-.72.615-.328-.092-.698-.376-.816-1-.592-2.271-.467-8.091 2.568-11.453 1.185-1.432 2.616-.462 2.516.438-.078.482-.725.282-.548-.04.011-.06.097-.214-.136-.309-.745-.231-1.465.647-1.01 1.534.339.562.975 1.065 2.146.777 1.728-.298 2.393-3.223-.133-4.877-2.196-1.303-5.079-2.724-9.141-2.724-1.246 0-2.258 1.01-2.258 2.258 0 1.218.967 2.208 2.174 2.253v.004c-.006 4.125-.547 10.399-4.778 17.494v-.001 17.1c4.725.005 6.121.782 6.121.782.349 2.049-2.078 4.852-6.12 5.075v2.816c0 0 .001 0 .002 0 .004 0 .007 0 .007 0 .691 0 4.104 0 8.238 0 3.145 0 4.328 2.401 4.404 4.79.065 2.071-2.354 4.132-3.402 4.614-3.037 1.75-6.297 2.328-9.248 2.297v6.328.004c0 0 .001-.001.001-.002.001.001.001.001.001.002v-.004c1.96-4.419 12.606-6.342 12.606-6.342s4.451-4.265 3.085-11.11c-.012-.092.062-.137.137-.137 1.284 0 2.322-1.041 2.322-2.323 0-1.283-1.038-2.323-2.322-2.323-.651 0-1.241.27-1.664.703-.03-.008-.061-.016-.095-.022h-8.863c0 0 2.735-1.401 2.99-5.02-.759-1.216-2.794-4.35-3.447-8.06 0 0 3.064 2.619 6.215 4.01 3.202 1.248 5.841 1.151 7.572 1.025 3.271-.217 3.291 3.458 1.249 3.267-.314-.001-.649-.344-.53-.597.117-.347.594-.379.711-.03.194.326 1.151-.556.314-1.349-.344-.3-.848-.42-1.234-.354-1.181.149-2.104 1.505-1.123 3.115 1.012 1.549 3.335 1.729 4.939.34 2.195-1.941 1.134-4.679.26-5.675 4.543-2.327 6.775-7.431 6.775-7.431m-24.793-4.063c-.071.09-.135.179-.328.437-.014.019-.039-8.834 2.157-13.493-.433 2.304-.449 4.31-.222 5.905.09 1.786 1.475 3.329 2.955 3.214.112-.02.219-.043.321-.069-1.718.96-3.459 2.278-4.883 4.01m1.564 4.477c1.589-3.187 6.123-6.239 10.831-6.02 3.03 0 7.07 1.922 8.558 5.606-6.09 11.354-18.773 2.362-19.389.415"/><path fill="#534741" d="m940.94 194.32c-.873.997-1.935 3.734.261 5.675 1.604 1.39 3.926 1.209 4.938-.34.98-1.61.059-2.966-1.123-3.115-.387-.066-.89.053-1.234.354-.836.793.121 1.675.314 1.349.117-.349.593-.317.713.03.118.253-.218.596-.532.597-2.042.191-2.02-3.484 1.249-3.267 1.732.126 4.369.223 7.572-1.025 3.151-1.392 6.214-4.01 6.214-4.01-.651 3.709-2.687 6.843-3.444 8.06.253 3.619 2.99 5.02 2.99 5.02h-8.864c-.035.007-.065.015-.095.022-.423-.433-1.013-.703-1.665-.703-1.282 0-2.322 1.04-2.322 2.323 0 1.283 1.04 2.323 2.322 2.323.074 0 .148.044.138.137-1.366 6.844 3.085 11.11 3.085 11.11s10.646 1.923 12.606 6.342v.004c0 0 0-.001.001-.002 0 .001.001.001.001.001v-.003-6.328c-2.953.03-6.212-.547-9.25-2.297-1.048-.482-3.467-2.543-3.402-4.614.077-2.389 1.261-4.79 4.406-4.79 4.133 0 7.546 0 8.236 0 0 0 .004 0 .008 0 0 0 .001 0 .002 0v-2.816c-4.04-.223-6.47-3.03-6.12-5.075 0 0 1.395-.777 6.119-.782v-17.1.001c-4.231-7.095-4.772-13.369-4.778-17.494v-.004c1.207-.045 2.173-1.035 2.173-2.253 0-1.247-1.01-2.258-2.257-2.258-4.062 0-6.944 1.421-9.141 2.724-2.526 1.654-1.86 4.579-.134 4.877 1.173.288 1.809-.215 2.148-.777.455-.887-.265-1.765-1.01-1.534-.232.095-.146.25-.135.309.177.321-.471.521-.55.04-.099-.9 1.333-1.871 2.518-.438 3.035 3.362 3.159 9.183 2.569 11.453-.119.624-.488.909-.817 1-.636.147-.927-.41-.72-.615.199-.2.451 0 .382.19.071.149.489.11.663-.319.221-.535-.142-1.476-1.285-1.505-1.601-.054-2.278 2.127-.933 3.356-1.952-.902-3.756-1.345-4.883-1.404-6.095-.773-4.597-6.56-2.769-6.219 1.301.115.667 1.977-.502 1.222-.151-.11-.261.005-.297.141-.58 1.944 2.698 3.602 4.592 1.271 1.681-2.112-.051-5.509-3.375-5.619-4.293-.199-6.906 5.04-4.235 7.958-1.594-1.503-4.281-.884-5.227.615-1.528 2.085-.848 4.823 1.502 5.17 1.354.054 2.238-.61 2.403-1.469.21-.813-.502-1.685-1.221-1.374-.127.067-.07.148-.062.179.332.896-1.432.776-.735-.384.338-.564 1.199-.789 1.86-.371 2.126 1.477.395 4.706-2.532 4.099-.863.92-2.31 2.662-3.109 4.926.001 0 2.233 5.104 6.774 7.431m13.13-15.501c.104.026.21.049.321.069 1.481.115 2.867-1.428 2.955-3.214.229-1.595.211-3.601-.222-5.905 2.197 4.659 2.171 13.512 2.157 13.493-.192-.258-.256-.347-.329-.437-1.421-1.727-3.162-3.045-4.882-4.01m-16.07 8.07c1.486-3.685 5.53-5.606 8.558-5.606 4.707-.218 9.242 2.834 10.831 6.02-.617 1.946-13.301 10.938-19.389-.415"/></svg>