<?xml version="1.0" encoding="utf-8"?>
<!-- Generator: Adobe Illustrator 17.1.0, SVG Export Plug-In . SVG Version: 6.00 Build 0)  -->
<!DOCTYPE svg PUBLIC "-//W3C//DTD SVG 1.1//EN" "http://www.w3.org/Graphics/SVG/1.1/DTD/svg11.dtd">
<svg version="1.1" id="Layer_2" xmlns="http://www.w3.org/2000/svg" xmlns:xlink="http://www.w3.org/1999/xlink" x="0px" y="0px"
	 viewBox="203.7 149.8 99.3 88.7" enable-background="new 203.7 149.8 99.3 88.7" xml:space="preserve">
<g>
	<polygon fill="#534741" points="303,214.7 205,236.2 205,238.5 303,217 	"/>
	<g>
		<path fill="#534741" d="M210.6,189.2c0,0,0-0.1,0-0.2s0-0.1,0-0.2c0-0.3-0.2-0.5-0.4-0.7s-0.5-0.2-0.9-0.1l-2.1,0.5V200
			c0,0-0.1,0-0.4,0c-0.3,0.1-0.6,0.1-0.9,0.2c-0.1,0-0.2,0-0.3,0.1s-0.2,0-0.3,0.1v-11.5l-1.6,0.4v-1.8l1.6-0.3v-16l4-0.9
			c0.9-0.2,1.6,0,2.3,0.4c0.6,0.5,0.9,1.2,0.9,2.1v11.6c0,0.4-0.1,0.8-0.2,1.2c-0.1,0.4-0.3,0.8-0.6,1.1c0.2,0.2,0.4,0.5,0.6,0.8
			s0.2,0.8,0.2,1.5v6.7c0,0.4,0.1,0.6,0.3,0.8s0.4,0.3,0.7,0.3c0.2,0,0.4,0,0.6,0s0.3,0,0.4-0.1c0,0,0,0,0.1,0v2c0,0,0,0-0.1,0h-0.1
			c-0.9,0.1-1.7,0.1-2.5-0.1c-0.8-0.2-1.2-1-1.2-2.5L210.6,189.2L210.6,189.2z M210.2,172.2c-0.2-0.2-0.6-0.3-0.9-0.2l-2.2,0.5v14.1
			l2.1-0.5c0.4-0.1,0.7-0.3,1-0.5c0.3-0.3,0.4-0.6,0.4-1V173C210.6,172.7,210.5,172.4,210.2,172.2z"/>
		<path fill="#534741" d="M216.8,186.3l-1.8,0.4v-1.8l1.7-0.4v-16l6.7-1.5v1.9l-4.8,1.1v14l4.9-1.1v1.8l-4.9,1.1v9.7l4.9-1.1v1.8
			l-6.8,1.5v-11.4H216.8z"/>
		<path fill="#534741" d="M228.2,195.3c-0.9,0.2-1.7,0-2.4-0.4c-0.7-0.5-1-1.2-1-2.1V170c0-1.1,0.4-2,1.1-2.6
			c0.7-0.7,1.5-1.1,2.4-1.4l0,0l0,0c1-0.2,1.8-0.1,2.5,0.3s1,1.1,1,2.2v3.5l-1.9,0.4v-3.5c0,0,0,0,0-0.1s0-0.1,0-0.1
			c0-0.3-0.2-0.5-0.6-0.7s-0.7-0.2-1.1-0.1c-0.5,0.1-0.9,0.3-1.2,0.7c-0.3,0.3-0.5,0.7-0.5,1.1v22.8c0,0.5,0.2,0.8,0.5,1
			s0.7,0.3,1.1,0.2c0.5-0.1,1-0.4,1.3-0.7s0.5-0.8,0.5-1.2v-8.2l-1.8,0.4v-1.8c1.2-0.3,2.4-0.5,3.6-0.8v10.1c0,1-0.4,1.9-1.1,2.6
			C230,194.6,229.1,195.1,228.2,195.3L228.2,195.3L228.2,195.3z"/>
		<path fill="#534741" d="M233.2,164.8l2-0.4v29.3l-2,0.4V164.8z"/>
		<path fill="#534741" d="M241.7,166.2c0-0.4-0.2-0.7-0.5-0.9s-0.7-0.3-1.2-0.2c0,0-0.1,0-0.2,0c-0.1,0-0.1,0-0.2,0
			c-0.4,0.1-0.7,0.3-1,0.6s-0.5,0.7-0.5,1.1v11.6c0,0.6,0.2,0.9,0.5,1.1c0.3,0.2,0.6,0.2,1,0.2h0.1h0.1c0.1,0,0.1,0,0.2,0
			c0.1,0,0.1,0,0.2,0c0.7-0.1,1.4,0,2,0.3s0.9,1,0.9,2v6.7c0,0.9-0.3,1.7-1,2.5s-1.5,1.3-2.5,1.6c-1.1,0.2-1.9,0.1-2.6-0.4
			s-1-1.2-1-1.9l0,0l0,0V187l1.9-0.4v3.4c0,0.4,0.2,0.7,0.5,1s0.7,0.3,1.2,0.2s0.9-0.3,1.2-0.7s0.5-0.8,0.5-1.2v-6.7
			c0-0.4-0.1-0.7-0.4-0.8c-0.3-0.1-0.6-0.1-0.9-0.1l0,0l0,0c-0.2,0-0.4,0.1-0.6,0.1c-0.2,0-0.5,0-0.7,0c-0.6,0-1.1-0.2-1.6-0.6
			c-0.5-0.4-0.7-1.1-0.7-2.1v-11.6c0-0.9,0.3-1.6,0.8-2.2s1.1-1.1,1.7-1.4c0.2-0.1,0.3-0.2,0.5-0.2s0.3-0.1,0.5-0.1c0,0,0,0,0.1,0
			s0,0,0.1,0c1-0.2,1.8-0.1,2.5,0.4s1,1.1,1,2.1v3.3l-1.8,0.4L241.7,166.2L241.7,166.2z"/>
		<path fill="#534741" d="M249,190.7l-2,0.4v-27.5l-2.6,0.6v-1.9l7.1-1.6v1.9l-2.5,0.6V190.7L249,190.7z"/>
		<path fill="#534741" d="M259.3,178.4c0,0,0-0.1,0-0.2s0-0.1,0-0.2c0-0.3-0.2-0.5-0.4-0.7s-0.5-0.2-0.9-0.1l-2.1,0.5v11.5
			c0,0-0.1,0-0.4,0c-0.3,0.1-0.6,0.1-0.9,0.2c-0.1,0-0.2,0-0.3,0.1c-0.1,0-0.2,0-0.3,0.1V178l-1.6,0.4v-1.8l1.6-0.4v-16l4-0.9
			c0.9-0.2,1.6,0,2.3,0.4s0.9,1.2,0.9,2.1v11.6c0,0.4-0.1,0.8-0.2,1.2s-0.3,0.8-0.6,1.1c0.2,0.2,0.4,0.5,0.6,0.8s0.2,0.8,0.2,1.5
			v6.7c0,0.4,0.1,0.6,0.3,0.8c0.2,0.2,0.4,0.3,0.7,0.3c0.2,0,0.4,0,0.6,0s0.3,0,0.4-0.1c0,0,0,0,0.1,0v2c0,0,0,0-0.1,0h-0.1
			c-0.9,0.1-1.7,0.1-2.5-0.1c-0.8-0.2-1.2-1-1.2-2.5L259.3,178.4L259.3,178.4z M259,161.4c-0.2-0.2-0.6-0.3-0.9-0.2l-2.2,0.5v14.1
			l2.1-0.5c0.4-0.1,0.7-0.3,1-0.5s0.4-0.6,0.4-1v-11.6C259.4,161.9,259.2,161.6,259,161.4z"/>
		<path fill="#534741" d="M269.3,174.7l-2,0.5L266,187l-1.9,0.4l1.3-11.8l-1.5,0.3V174l1.7-0.4l1.9-16.4l1.6-0.4l3.3,28.6l-1.8,0.4
			L269.3,174.7z M267.5,173.2l1.6-0.4l-0.7-7.5L267.5,173.2z"/>
		<path fill="#534741" d="M280.3,173.8c0,0,0-0.1,0-0.2s0-0.1,0-0.2c0-0.3-0.2-0.5-0.4-0.7c-0.2-0.2-0.5-0.2-0.9-0.1l-2.1,0.5v11.5
			c0,0-0.1,0-0.4,0c-0.3,0.1-0.6,0.1-0.9,0.2c-0.1,0-0.2,0-0.3,0.1s-0.2,0-0.3,0.1v-11.5l-1.6,0.4v-1.8l1.6-0.4v-16l4-0.9
			c0.9-0.2,1.6,0,2.3,0.4c0.6,0.5,0.9,1.2,0.9,2.1v11.6c0,0.4-0.1,0.8-0.2,1.2s-0.3,0.8-0.6,1.1c0.2,0.2,0.4,0.5,0.6,0.8
			c0.1,0.3,0.2,0.8,0.2,1.5v6.7c0,0.4,0.1,0.6,0.3,0.8c0.2,0.2,0.4,0.3,0.7,0.3c0.2,0,0.4,0,0.6,0s0.3,0,0.4-0.1c0,0,0,0,0.1,0v2
			c0,0,0,0-0.1,0h-0.1c-0.9,0.1-1.7,0.1-2.5-0.1c-0.8-0.2-1.2-1-1.2-2.5L280.3,173.8L280.3,173.8z M279.9,156.8
			c-0.2-0.2-0.6-0.3-0.9-0.2l-2.2,0.5v14.1l2.1-0.5c0.4-0.1,0.7-0.3,1-0.5c0.3-0.3,0.4-0.6,0.4-1v-11.6
			C280.3,157.3,280.2,157,279.9,156.8z"/>
		<path fill="#534741" d="M290.6,155.4c0-0.4-0.2-0.7-0.5-0.9s-0.7-0.3-1.2-0.2c0,0-0.1,0-0.2,0s-0.1,0-0.2,0
			c-0.4,0.1-0.7,0.3-1,0.6s-0.5,0.7-0.5,1.1v11.6c0,0.6,0.2,0.9,0.5,1.1s0.6,0.2,1,0.2h0.1h0.1c0.1,0,0.1,0,0.2,0s0.1,0,0.2,0
			c0.7-0.1,1.4,0,2,0.3s0.9,1,0.9,2v6.7c0,0.9-0.3,1.7-1,2.5s-1.5,1.3-2.5,1.6c-1.1,0.2-1.9,0.1-2.6-0.4s-1-1.2-1-1.9l0,0l0,0V176
			l1.9-0.4v3.4c0,0.4,0.2,0.7,0.5,1s0.7,0.3,1.2,0.2s0.9-0.3,1.2-0.7c0.3-0.4,0.5-0.8,0.5-1.2v-6.7c0-0.4-0.1-0.7-0.4-0.8
			s-0.6-0.1-0.9-0.1l0,0l0,0c-0.2,0-0.4,0.1-0.6,0.1s-0.5,0-0.7,0c-0.6,0-1.1-0.2-1.6-0.6s-0.7-1.1-0.7-2.1v-11.6
			c0-0.9,0.3-1.6,0.8-2.2s1.1-1.1,1.7-1.4c0.2-0.1,0.3-0.2,0.5-0.2c0.2-0.1,0.3-0.1,0.5-0.1c0,0,0,0,0.1,0s0,0,0.1,0
			c1-0.2,1.8-0.1,2.5,0.4c0.7,0.4,1,1.1,1,2.1v3.3l-1.8,0.4L290.6,155.4L290.6,155.4z"/>
		<path fill="#534741" d="M294.8,169.1l-1.8,0.4v-1.8l1.7-0.4v-16l6.7-1.5v1.9l-4.7,1.1v14.1l4.9-1.1v1.8l-4.9,1.1v9.7l4.9-1.1v1.8
			l-6.8,1.5L294.8,169.1L294.8,169.1z"/>
	</g>
	<g>
		<g>
			<path fill="#534741" d="M211.9,223.6l-0.9,5.7c-0.1,0.4-0.3,0.7-0.7,0.8l-5.1,1.1c-0.3,0.1-0.5,0-0.5-0.3c0-0.1,0-0.1,0-0.2
				l4.8-25.5c0.1-0.4,0.3-0.7,0.7-0.8l8.1-1.7c0.4-0.1,0.6,0.1,0.7,0.5l4.4,23.5c0,0.1,0,0.1,0,0.2c0,0.3-0.2,0.5-0.5,0.5l-5.1,1.1
				c-0.4,0.1-0.6-0.1-0.7-0.5l-0.8-5.3L211.9,223.6z M214.3,209l-1.6,9.7l3-0.6L214.3,209z"/>
			<path fill="#534741" d="M232.1,215.1c-0.3,0.1-0.4,0.2-0.4,0.5l-0.1,9.3c0,0.4-0.2,0.7-0.6,0.7l-4.9,1c-0.4,0.1-0.6-0.1-0.6-0.5
				l0.2-24.5c0-0.4,0.2-0.7,0.6-0.7l4.9-1c0.4-0.1,0.6,0.1,0.6,0.5l-0.1,9.3c0,0.3,0.1,0.4,0.4,0.3l5.4-1.1c0.3-0.1,0.4-0.2,0.4-0.5
				l0.1-9.3c0-0.4,0.2-0.7,0.6-0.7l4.9-1c0.4-0.1,0.6,0.1,0.6,0.5l-0.2,24.5c0,0.4-0.2,0.7-0.6,0.7l-4.9,1c-0.4,0.1-0.6-0.1-0.6-0.5
				l0.1-9.3c0-0.3-0.1-0.4-0.4-0.3L232.1,215.1z"/>
			<path fill="#534741" d="M262.9,213.1c0,1.6-0.6,3.1-1.7,4.5s-2.5,2.2-4,2.5l-5.2,1.1c-1.6,0.3-2.9,0-4-0.8
				c-1.1-0.9-1.6-2.2-1.6-3.8l0.1-14.1c0-1.6,0.6-3.1,1.7-4.5c1.1-1.4,2.5-2.2,4-2.5l5.2-1.1c1.6-0.3,2.9,0,4,0.8s1.6,2.2,1.6,3.8
				L262.9,213.1z M252.4,214.4c0,1,0.5,1.4,1.5,1.2l1.4-0.3c1-0.2,1.5-0.8,1.5-1.9l0.1-12.4c0-1-0.5-1.4-1.5-1.2l-1.4,0.3
				c-1,0.2-1.5,0.8-1.5,1.9L252.4,214.4z"/>
			<path fill="#534741" d="M280.4,202.3c0.9,0.9,1.4,2.1,1.4,3.5l-0.1,8.4c0,0.4-0.2,0.7-0.6,0.7l-4.9,1c-0.4,0.1-0.6-0.1-0.6-0.5
				l0.1-8.3c0-0.9-0.4-1.3-1.3-1.1l-2.4,0.5c-0.2,0-0.3,0.2-0.3,0.5l-0.1,9.3c0,0.4-0.2,0.7-0.6,0.7l-4.8,1
				c-0.4,0.1-0.6-0.1-0.6-0.5l0.2-24.5c0-0.4,0.2-0.7,0.6-0.7l9.9-2.1c1.6-0.3,2.9,0,4,0.8s1.6,2.2,1.6,3.8v3.3
				C281.7,199.7,281.3,201,280.4,202.3L280.4,202.3z M271.6,196.9v4.3c0,0.3,0.1,0.4,0.4,0.3l2.5-0.5c0.8-0.2,1.2-0.6,1.2-1.5v-2.8
				c0-0.8-0.4-1.1-1.2-1l-2.5,0.5C271.8,196.4,271.6,196.6,271.6,196.9z"/>
			<path fill="#534741" d="M290.9,206.9l-0.9,5.7c-0.1,0.4-0.3,0.7-0.7,0.8l-5.1,1.1c-0.3,0.1-0.5,0-0.5-0.3c0-0.1,0-0.1,0-0.2
				l4.8-25.5c0.1-0.4,0.3-0.7,0.7-0.8l8.1-1.7c0.4-0.1,0.6,0.1,0.7,0.5l4.4,23.5c0,0.1,0,0.1,0,0.2c0,0.3-0.2,0.5-0.5,0.5l-5.1,1.1
				c-0.4,0.1-0.6-0.1-0.7-0.5l-0.8-5.3L290.9,206.9z M293.3,192.2l-1.6,9.7l3-0.6L293.3,192.2z"/>
		</g>
	</g>
</g>
</svg>
