<?xml version="1.0" encoding="utf-8"?>
<!-- Generator: Adobe Illustrator 17.1.0, SVG Export Plug-In . SVG Version: 6.00 Build 0)  -->
<!DOCTYPE svg PUBLIC "-//W3C//DTD SVG 1.1//EN" "http://www.w3.org/Graphics/SVG/1.1/DTD/svg11.dtd">
<svg version="1.1" id="Layer_1" xmlns="http://www.w3.org/2000/svg" xmlns:xlink="http://www.w3.org/1999/xlink" x="0px" y="0px"
	 viewBox="0 0 12.4 12.4" enable-background="new 0 0 12.4 12.4" xml:space="preserve">
<path fill="#B7A999" d="M6.2,0C2.8,0,0,2.8,0,6.2c0,1.6,0.6,3,1.5,4.1l-1.1,2.1l3-0.6c0.8,0.4,1.7,0.6,2.7,0.6
	c3.4,0,6.2-2.8,6.2-6.2S9.6,0,6.2,0z"/>
<g>
	<path fill="#E2E1D5" d="M4.6,9.5C4.1,9.5,3.7,9.3,3.4,9C3.2,8.7,3,8.3,3,7.8l0.8-0.2c0,0.8,0.3,1.2,0.8,1.2c0.4,0,0.6-0.2,0.6-0.6
		c0-0.1,0-0.2,0-0.3S5.1,7.7,5,7.6C4.9,7.5,4.9,7.4,4.8,7.4C4.8,7.3,4.7,7.3,4.6,7.2l-1-0.8C3.4,6.3,3.3,6.1,3.2,5.9
		C3,5.6,3,5.4,3,5.1c0-0.4,0.1-0.7,0.4-1c0.3-0.2,0.6-0.4,1-0.4c0.5,0,0.8,0.1,1.1,0.3S5.9,4.6,6,5c0,0,0,0.1,0,0.2L5.2,5.4
		c0,0,0-0.1,0-0.2c0-0.3-0.1-0.5-0.2-0.6C4.8,4.5,4.6,4.4,4.4,4.4c-0.2,0-0.3,0.1-0.4,0.2C3.8,4.7,3.8,4.8,3.8,5
		c0,0.3,0.1,0.6,0.4,0.8l1,0.8C5.7,7,6,7.6,6,8.2c0,0.4-0.1,0.7-0.4,1C5.4,9.4,5,9.5,4.6,9.5z"/>
	<path fill="#E2E1D5" d="M6.6,9.4V3.8H8c0.9,0,1.4,0.5,1.4,1.6c0,0.5-0.1,0.8-0.4,1S8.5,6.8,8,6.8H7.4v2.6H6.6z M7.4,6.2h0.2
		c0.2,0,0.3,0,0.4,0s0.2-0.1,0.3-0.1s0.2-0.1,0.2-0.2c0-0.1,0.1-0.2,0.1-0.4c0-0.2,0-0.4,0-0.5c0-0.1-0.1-0.2-0.2-0.3
		C8.3,4.5,8.2,4.5,8.1,4.4s-0.3,0-0.5,0H7.4V6.2z"/>
</g>
</svg>
