<?xml version="1.0" encoding="utf-8"?>
<!-- Generator: Adobe Illustrator 17.1.0, SVG Export Plug-In . SVG Version: 6.00 Build 0)  -->
<!DOCTYPE svg PUBLIC "-//W3C//DTD SVG 1.1//EN" "http://www.w3.org/Graphics/SVG/1.1/DTD/svg11.dtd">
<svg version="1.1" id="Layer_1" xmlns="http://www.w3.org/2000/svg" xmlns:xlink="http://www.w3.org/1999/xlink" x="0px" y="0px"
	 viewBox="26 215.5 714 447.6" enable-background="new 26 215.5 714 447.6" xml:space="preserve">
<g>
	<path fill="#B5A898" d="M255.2,471.2c-1.5,0.6-3.3,1.2-5.2,1.5c1.8-1.2,3.3-3,4-5.2c-1.8,0.9-3.6,1.8-5.8,2.1c-1.8-1.8-4-3-6.7-3
		c-5.2,0-9.1,4.3-9.1,9.1c0,0.6,0,1.5,0.3,2.1c-7.6-0.3-14.3-4-18.8-9.7c-0.9,1.2-1.2,3-1.2,4.6c0,3.3,1.5,6.1,4.3,7.6
		c-1.5,0-3-0.6-4.3-1.2l0,0c0,4.6,3,8.2,7.3,9.1c-0.9,0.3-1.5,0.3-2.4,0.3c-0.6,0-1.2,0-1.8-0.3c1.2,3.6,4.6,6.4,8.5,6.4
		c-3,2.4-7.3,4-11.6,4c-0.6,0-1.5,0-2.1,0c4,2.7,8.8,4.3,14,4.3c16.7,0,26.1-13.7,26.1-26.1c0-0.3,0-0.9,0-1.2
		C252.5,474.9,254,473.1,255.2,471.2"/>
	<path fill="#B5A898" d="M434,465.5c0.3,0.3,0.9,0.6,1.5,1.2c0.6,0.6,0.9,1.2,1.5,1.8c0.3,0.6,0.9,1.5,1.2,2.4s0.3,2.1,0.3,3.3
		c0,2.4-0.6,4.3-1.5,5.8c-0.6,0.6-0.9,1.2-1.5,1.8s-1.2,1.2-1.8,1.8c-0.3,0.3-0.9,0.9-1.2,1.5c-0.3,0.6-0.6,1.2-0.6,1.8
		s0.3,1.2,0.6,1.8c0.3,0.3,0.6,0.9,0.9,1.2l2.1,1.8c1.5,1.2,2.7,2.4,3.6,3.6c0.9,1.5,1.5,3.3,1.5,5.5c0,3.3-1.5,6.1-4.3,8.5
		c-3,2.4-7.3,4-12.5,4c-4.6,0-8.2-0.9-10.3-3c-2.4-1.8-3.3-4-3.3-6.4c0-1.2,0.3-2.7,1.2-4.3c0.6-1.5,2.1-2.7,4-4
		c2.1-1.2,4.6-2.1,6.7-2.4c2.4-0.3,4.3-0.6,5.8-0.6c-0.6-0.6-0.9-1.2-1.2-2.1c-0.3-0.6-0.6-1.5-0.6-2.4c0-0.6,0-1.2,0.3-1.5
		c0-0.3,0.3-0.9,0.3-1.2c-0.6,0-1.5,0-2.1,0c-3.6,0-6.4-1.2-8.2-3.3c-1.8-2.1-3-4.3-3-7c0-3.3,1.5-6.4,4.3-8.8c1.8-1.5,4-2.4,5.8-3
		c2.1-0.3,4-0.6,5.8-0.6h13.1l-4.3,2.4L434,465.5 M436.7,503.5c0-1.8-0.6-3-1.5-4.6c-1.2-1.2-3-2.7-5.5-4.3c-0.3,0-0.9,0-1.5,0
		c-0.3,0-1.2,0-2.7,0c-1.5,0.3-2.7,0.6-4.3,0.9c-0.3,0-0.9,0.3-1.5,0.6s-1.2,0.6-1.8,1.2s-1.2,1.2-1.5,2.1c-0.6,0.9-0.6,1.8-0.6,3
		c0,2.4,0.9,4.3,3,5.8s4.9,2.4,8.2,2.4c3,0,5.5-0.6,7.3-2.1C435.8,507.1,436.7,505.6,436.7,503.5 M427.3,484c1.8,0,3.3-0.6,4.3-1.8
		c0.6-0.9,0.9-1.8,1.2-2.7c0-0.9,0-1.5,0-2.1c0-2.7-0.6-5.2-2.1-7.9c-0.6-1.2-1.5-2.4-2.4-3s-2.1-1.2-3.6-1.2
		c-1.8,0-3.3,0.9-4.6,2.1c-0.9,1.5-1.5,3-1.5,4.9c0,2.4,0.6,4.9,2.1,7.6c0.6,1.2,1.5,2.1,2.7,3C424.9,483.7,426.1,484,427.3,484"/>
	<path fill="#B5A898" d="M460.1,470.3h-7v-7h-3.3v7h-7v3.6h7v7h3.3v-7h7V470.3L460.1,470.3z"/>
	<path fill="#B5A898" d="M26,474.6h5.8v-2.7v-2.4v-0.6c0-2.4,0-6.4,1.8-8.8c2.1-2.4,4.9-4.3,9.4-4.3c7.6,0,10.6,1.2,10.6,1.2
		l-1.5,8.8c0,0-2.4-0.6-4.9-0.6s-4.3,0.9-4.3,3v0.9v3v2.7h9.4l-0.6,8.2h-8.8v29.5H32.1V483h-5.8L26,474.6"/>
</g>
<g>
	<path fill="#E3E2D5" d="M255.2,351.1c-1.5,0.6-3.3,1.2-5.2,1.5c1.8-1.2,3.3-3,4-5.2c-1.8,0.9-3.6,1.8-5.8,2.1c-1.8-1.8-4-3-6.7-3
		c-5.2,0-9.1,4.3-9.1,9.1c0,0.6,0,1.5,0.3,2.1c-7.6-0.3-14.3-4-18.8-9.7c-0.9,1.2-1.2,3-1.2,4.6c0,3.3,1.5,6.1,4.3,7.6
		c-1.5,0-3-0.6-4.3-1.2l0,0c0,4.6,3,8.2,7.3,9.1c-0.9,0.3-1.5,0.3-2.4,0.3c-0.6,0-1.2,0-1.8-0.3c1.2,3.6,4.6,6.4,8.5,6.4
		c-3,2.4-7.3,4-11.6,4c-0.6,0-1.5,0-2.1,0c4,2.7,8.8,4.3,14,4.3c16.7,0,26.1-13.7,26.1-26.1c0-0.3,0-0.9,0-1.2
		C252.5,354.8,254,353,255.2,351.1"/>
	<path fill="#E3E2D5" d="M434,345.4c0.3,0.3,0.9,0.6,1.5,1.2s0.9,1.2,1.5,1.8c0.3,0.6,0.9,1.5,1.2,2.4c0.3,0.9,0.3,2.1,0.3,3.3
		c0,2.4-0.6,4.3-1.5,5.8c-0.6,0.6-0.9,1.2-1.5,1.8c-0.6,0.6-1.2,1.2-1.8,1.8c-0.3,0.3-0.9,0.9-1.2,1.5s-0.6,1.2-0.6,1.8
		c0,0.6,0.3,1.2,0.6,1.8c0.3,0.3,0.6,0.9,0.9,1.2l2.1,1.8c1.5,1.2,2.7,2.4,3.6,3.6c0.9,1.5,1.5,3.3,1.5,5.5c0,3.3-1.5,6.1-4.3,8.5
		c-3,2.4-7.3,4-12.5,4c-4.6,0-8.2-0.9-10.3-3c-2.4-1.8-3.3-4-3.3-6.4c0-1.2,0.3-2.7,1.2-4.3c0.6-1.5,2.1-2.7,4-4
		c2.1-1.2,4.6-2.1,6.7-2.4c2.4-0.3,4.3-0.6,5.8-0.6c-0.6-0.6-0.9-1.2-1.2-2.1c-0.3-0.6-0.6-1.5-0.6-2.4c0-0.6,0-1.2,0.3-1.5
		c0-0.3,0.3-0.9,0.3-1.2c-0.6,0-1.5,0-2.1,0c-3.6,0-6.4-1.2-8.2-3.3c-1.8-2.1-3-4.3-3-7c0-3.3,1.5-6.4,4.3-8.8c1.8-1.5,4-2.4,5.8-3
		c2.1-0.3,4-0.6,5.8-0.6h13.1l-4.3,2.4L434,345.4 M436.7,383.7c0-1.8-0.6-3-1.5-4.6c-1.2-1.2-3-2.7-5.5-4.3c-0.3,0-0.9,0-1.5,0
		c-0.3,0-1.2,0-2.7,0c-1.5,0.3-2.7,0.6-4.3,0.9c-0.3,0-0.9,0.3-1.5,0.6c-0.6,0.3-1.2,0.6-1.8,1.2s-1.2,1.2-1.5,2.1
		c-0.6,0.9-0.6,1.8-0.6,3c0,2.4,0.9,4.3,3,5.8s4.9,2.4,8.2,2.4c3,0,5.5-0.6,7.3-2.1C435.8,387.3,436.7,385.8,436.7,383.7
		 M427.3,364.2c1.8,0,3.3-0.6,4.3-1.8c0.6-0.9,0.9-1.8,1.2-2.7c0-0.9,0-1.5,0-2.1c0-2.7-0.6-5.2-2.1-7.9c-0.6-1.2-1.5-2.4-2.4-3
		s-2.1-1.2-3.6-1.2c-1.8,0-3.3,0.9-4.6,2.1c-0.9,1.5-1.5,3-1.5,4.9c0,2.4,0.6,4.9,2.1,7.6c0.6,1.2,1.5,2.1,2.7,3
		C424.9,363.9,426.1,364.2,427.3,364.2"/>
	<path fill="#E3E2D5" d="M460.1,350.2h-7v-7h-3.3v7h-7v3.3h7v7h3.3v-6.6h7V350.2L460.1,350.2z"/>
	<path fill="#E3E2D5" d="M26,354.5h5.8v-2.7v-2.7v-0.3c0-2.4,0-6.4,1.8-8.8c1.8-2.4,4.6-4.3,9.1-4.3c7.6,0,10.6,1.2,10.6,1.2
		l-1.5,8.8c0,0-2.4-0.6-4.9-0.6c-2.4,0-4.3,0.9-4.3,3v0.9v3v2.7H52l-0.3,8.2h-8.8v29.5H32.1v-29.5h-5.8L26,354.5"/>
</g>
<g>
	<path fill="#F1F1E9" d="M255.2,231.4c-1.5,0.6-3.3,1.2-5.2,1.5c1.8-1.2,3.3-3,4-5.2c-1.8,0.9-3.6,1.8-5.8,2.1c-1.8-1.8-4-3-6.7-3
		c-5.2,0-9.1,4.3-9.1,9.1c0,0.6,0,1.5,0.3,2.1c-7.6-0.3-14.3-4-18.8-9.7c-0.9,1.2-1.2,3-1.2,4.6c0,3.3,1.5,6.1,4.3,7.6
		c-1.5,0-3-0.6-4.3-1.2l0,0c0,4.6,3,8.2,7.3,9.1c-0.9,0.3-1.5,0.3-2.4,0.3c-0.6,0-1.2,0-1.8-0.3c1.2,3.6,4.6,6.4,8.5,6.4
		c-3,2.4-7.3,4-11.6,4c-0.6,0-1.5,0-2.1,0c4,2.7,8.8,4.3,14,4.3c16.7,0,26.1-13.7,26.1-26.1c0-0.3,0-0.9,0-1.2
		C252.5,234.7,254,233.2,255.2,231.4"/>
	<path fill="#F1F1E9" d="M434,225.6c0.3,0.3,0.9,0.6,1.5,1.2s0.9,1.2,1.5,1.8c0.3,0.6,0.9,1.5,1.2,2.4c0.3,0.9,0.3,2.1,0.3,3.3
		c0,2.4-0.6,4.3-1.5,5.8c-0.6,0.6-0.9,1.2-1.5,1.8c-0.6,0.6-1.2,1.2-1.8,1.8c-0.3,0.3-0.9,0.9-1.2,1.5s-0.6,1.2-0.6,1.8
		s0.3,1.2,0.6,1.8c0.3,0.3,0.6,0.9,0.9,1.2l2.1,1.8c1.5,1.2,2.7,2.4,3.6,3.6c0.9,1.5,1.5,3.3,1.5,5.5c0,3.3-1.5,6.1-4.3,8.5
		c-3,2.4-7.3,4-12.5,4c-4.6,0-8.2-0.9-10.3-3c-2.4-1.8-3.3-4-3.3-6.4c0-1.2,0.3-2.7,1.2-4.3c0.6-1.5,2.1-2.7,4-4
		c2.1-1.2,4.6-2.1,6.7-2.4c2.4-0.3,4.3-0.6,5.8-0.6c-0.6-0.6-0.9-1.2-1.2-2.1c-0.3-0.6-0.6-1.5-0.6-2.4c0-0.6,0-1.2,0.3-1.5
		c0-0.3,0.3-0.9,0.3-1.2c-0.6,0-1.5,0-2.1,0c-3.6,0-6.4-1.2-8.2-3.3c-1.8-2.1-3-4.3-3-7c0-3.3,1.5-6.4,4.3-8.8c1.8-1.5,4-2.4,5.8-3
		c2.1-0.3,4-0.6,5.8-0.6h13.1l-4.3,2.4L434,225.6 M436.7,263.6c0-1.8-0.6-3-1.5-4.6c-1.2-1.2-3-2.7-5.5-4.3c-0.3,0-0.9,0-1.5,0
		c-0.3,0-1.2,0-2.7,0c-1.5,0.3-2.7,0.6-4.3,0.9c-0.3,0-0.9,0.3-1.5,0.6c-0.6,0.3-1.2,0.6-1.8,1.2s-1.2,1.2-1.5,2.1
		c-0.6,0.9-0.6,1.8-0.6,3c0,2.4,0.9,4.3,3,5.8s4.9,2.4,8.2,2.4c3,0,5.5-0.6,7.3-2.1C435.8,267.2,436.7,265.7,436.7,263.6
		 M427.3,244.1c1.8,0,3.3-0.6,4.3-1.8c0.6-0.9,0.9-1.8,1.2-2.7c0-0.9,0-1.5,0-2.1c0-2.7-0.6-5.2-2.1-7.9c-0.6-1.2-1.5-2.4-2.4-3
		s-2.1-1.2-3.6-1.2c-1.8,0-3.3,0.9-4.6,2.1c-0.9,1.5-1.5,3-1.5,4.9c0,2.4,0.6,4.9,2.1,7.6c0.6,1.2,1.5,2.1,2.7,3
		C424.9,243.8,426.1,244.1,427.3,244.1"/>
	<path fill="#F1F1E9" d="M460.1,230.4h-7v-6.7h-3.3v7h-7v3.3h7v7h3.3v-6.7h7V230.4L460.1,230.4z"/>
	<path fill="#F1F1E9" d="M26,234.4h5.8v-2.7v-2.8v-0.3c0-2.4,0-6.4,1.8-8.8c1.8-2.4,4.6-4.3,9.1-4.3c7.6,0,10.6,1.2,10.6,1.2
		l-1.5,8.8c0,0-2.4-0.6-4.9-0.6c-2.4,0-4.3,0.9-4.3,3v0.9v3v2.7H52l-0.2,8.4H43v29.5H32.1v-29.5h-5.8L26,234.4"/>
</g>
<g>
	<path fill="#524640" d="M255.2,621.1c-1.5,0.6-3.3,1.2-5.2,1.5c1.8-1.2,3.3-3,4-5.2c-1.8,0.9-3.6,1.8-5.8,2.1c-1.8-1.8-4-3-6.7-3
		c-5.2,0-9.1,4.3-9.1,9.1c0,0.6,0,1.5,0.3,2.1c-7.6-0.3-14.3-4-18.8-9.7c-0.9,1.2-1.2,3-1.2,4.6c0,3.3,1.5,6.1,4.3,7.6
		c-1.5,0-3-0.6-4.3-1.2l0,0c0,4.6,3,8.2,7.3,9.1c-0.9,0.3-1.5,0.3-2.4,0.3c-0.6,0-1.2,0-1.8-0.3c1.2,3.6,4.6,6.4,8.5,6.4
		c-3,2.4-7.3,4-11.6,4c-0.6,0-1.5,0-2.1,0c4,2.7,8.8,4.3,14,4.3c16.7,0,26.1-13.7,26.1-26.1c0-0.3,0-0.9,0-1.2
		C252.5,624.8,254,622.9,255.2,621.1"/>
	<path fill="#524640" d="M434,615.3c0.3,0.3,0.9,0.6,1.5,1.2c0.6,0.6,0.9,1.2,1.5,1.8c0.3,0.6,0.9,1.5,1.2,2.4s0.3,2.1,0.3,3.3
		c0,2.4-0.6,4.3-1.5,5.8c-0.6,0.6-0.9,1.2-1.5,1.8s-1.2,1.2-1.8,1.8c-0.3,0.3-0.9,0.9-1.2,1.5s-0.6,1.2-0.6,1.8s0.3,1.2,0.6,1.8
		c0.3,0.3,0.6,0.9,0.9,1.2l2.1,1.8c1.5,1.2,2.7,2.4,3.6,3.6c0.9,1.5,1.5,3.3,1.5,5.5c0,3.3-1.5,6.1-4.3,8.5c-3,2.4-7.3,4-12.5,4
		c-4.6,0-8.2-0.9-10.3-3c-2.4-1.8-3.3-4-3.3-6.4c0-1.2,0.3-2.7,1.2-4.3c0.6-1.5,2.1-2.7,4-4c2.1-1.2,4.6-2.1,6.7-2.4
		c2.4-0.3,4.3-0.6,5.8-0.6c-0.6-0.6-0.9-1.2-1.2-2.1c-0.3-0.6-0.6-1.5-0.6-2.4c0-0.6,0-1.2,0.3-1.5c0-0.3,0.3-0.9,0.3-1.2
		c-0.6,0-1.5,0-2.1,0c-3.6,0-6.4-1.2-8.2-3.3c-1.8-2.1-3-4.3-3-7c0-3.3,1.5-6.4,4.3-8.8c1.8-1.5,4-2.4,5.8-3c2.1-0.3,4-0.6,5.8-0.6
		h13.1l-4.3,2.4L434,615.3 M436.7,653.3c0-1.8-0.6-3-1.5-4.6c-1.2-1.2-3-2.7-5.5-4.3c-0.3,0-0.9,0-1.5,0c-0.3,0-1.2,0-2.7,0
		c-1.5,0.3-2.7,0.6-4.3,0.9c-0.3,0-0.9,0.3-1.5,0.6s-1.2,0.6-1.8,1.2c-0.6,0.6-1.2,1.2-1.5,2.1c-0.6,0.9-0.6,1.8-0.6,3
		c0,2.4,0.9,4.3,3,5.8s4.9,2.4,8.2,2.4c3,0,5.5-0.6,7.3-2.1C435.8,657,436.7,655.2,436.7,653.3 M427.3,633.9c1.8,0,3.3-0.6,4.3-1.8
		c0.6-0.9,0.9-1.8,1.2-2.7c0-0.9,0-1.5,0-2.1c0-2.7-0.6-5.2-2.1-7.9c-0.6-1.2-1.5-2.4-2.4-3s-2.1-1.2-3.6-1.2
		c-1.8,0-3.3,0.9-4.6,2.1c-0.9,1.5-1.5,3-1.5,4.9c0,2.4,0.6,4.9,2.1,7.6c0.6,1.2,1.5,2.1,2.7,3C424.9,633.6,426.1,633.9,427.3,633.9
		"/>
	<path fill="#524640" d="M460.1,620.5h-7v-7h-3.3v7h-7v3.3h7v7h3.3v-7h7V620.5L460.1,620.5z"/>
	<path fill="#524640" d="M26,624.5h5.8v-2.7v-2.7v-0.3c0-2.4,0-6.4,1.8-8.8c1.8-2.4,4.6-4.3,9.1-4.3c7.6,0,10.6,1.2,10.6,1.2
		l-1.5,8.8c0,0-2.4-0.6-4.9-0.6c-2.4,0-4.3,0.9-4.3,3v0.9v3v2.7H52l-0.3,8.2h-8.8v29.5H32.1v-29.5h-5.8L26,624.5"/>
</g>
<polygon fill="#B5A898" points="560.5,460 568.4,476.1 586,478.8 573.2,491.3 576.3,509.2 560.5,500.7 544.4,509.2 547.4,491.3 
	534.6,478.8 552.3,476.1 "/>
<polygon fill="#E3E2D5" points="560.5,335.9 568.4,352 586,354.8 573.2,367.3 576.3,385.2 560.5,376.7 544.4,385.2 547.4,367.3 
	534.6,354.8 552.3,352 "/>
<polygon fill="#524640" points="557.7,609.9 565.9,626 583.6,628.7 570.8,641.2 573.8,658.8 557.7,650.6 541.9,658.8 545,641.2 
	532.2,628.7 549.8,626 "/>
<polygon fill="#382E2B" points="659.1,330.1 654.4,335 684.1,364.9 654.4,394.5 659.1,399.2 693.6,364.9 "/>
<polygon fill="#F1F1E9" points="708.4,474 703.8,468.9 674.1,498.8 644.2,468.9 639.6,474 674.1,508.1 "/>
<polygon fill="#F1F1E9" points="639.5,645.9 644.3,650.4 674,620.7 703.6,650.4 708.5,645.9 674,611.2 "/>
<polygon fill="#382E2B" points="688.9,297.6 693.6,293 663.9,263.3 693.6,233.5 688.9,228.6 654.4,263.3 "/>
</svg>
