<?xml version="1.0" encoding="utf-8"?>
<!-- Generator: Adobe Illustrator 17.1.0, SVG Export Plug-In . SVG Version: 6.00 Build 0)  -->
<!DOCTYPE svg PUBLIC "-//W3C//DTD SVG 1.1//EN" "http://www.w3.org/Graphics/SVG/1.1/DTD/svg11.dtd">
<svg version="1.1" id="Layer_1" xmlns="http://www.w3.org/2000/svg" xmlns:xlink="http://www.w3.org/1999/xlink" x="0px" y="0px"
	 viewBox="144 401 174 180" enable-background="new 144 401 174 180" xml:space="preserve">
<g>
	<path fill="#B5A898" d="M237.7,506.4c-0.5,0.2-1.1,0.4-1.7,0.5c0.6-0.4,1.1-1,1.3-1.7c-0.6,0.3-1.2,0.6-1.9,0.7
		c-0.6-0.6-1.3-1-2.2-1c-1.7,0-3,1.4-3,3c0,0.2,0,0.5,0.1,0.7c-2.5-0.1-4.8-1.3-6.3-3.2c-0.3,0.4-0.4,1-0.4,1.5c0,1.1,0.5,2,1.4,2.5
		c-0.5,0-1-0.2-1.4-0.4l0,0c0,1.5,1,2.7,2.4,3c-0.3,0.1-0.5,0.1-0.8,0.1c-0.2,0-0.4,0-0.6-0.1c0.4,1.2,1.5,2.1,2.8,2.1
		c-1,0.8-2.4,1.3-3.8,1.3c-0.2,0-0.5,0-0.7,0c1.3,0.9,2.9,1.4,4.7,1.4c5.6,0,8.7-4.6,8.7-8.7c0-0.1,0-0.3,0-0.4
		C236.8,507.6,237.3,507,237.7,506.4"/>
	<path fill="#B5A898" d="M297.3,504.5c0.1,0.1,0.3,0.2,0.5,0.4c0.2,0.2,0.3,0.4,0.5,0.6c0.1,0.2,0.3,0.5,0.4,0.8
		c0.1,0.3,0.1,0.7,0.1,1.1c0,0.8-0.2,1.4-0.5,1.9c-0.2,0.2-0.3,0.4-0.5,0.6c-0.2,0.2-0.4,0.4-0.6,0.6c-0.1,0.1-0.3,0.3-0.4,0.5
		s-0.2,0.4-0.2,0.6s0.1,0.4,0.2,0.6c0.1,0.1,0.2,0.3,0.3,0.4l0.7,0.6c0.5,0.4,0.9,0.8,1.2,1.2c0.3,0.5,0.5,1.1,0.5,1.8
		c0,1.1-0.5,2-1.4,2.8c-1,0.8-2.4,1.3-4.2,1.3c-1.5,0-2.7-0.3-3.4-1c-0.8-0.6-1.1-1.3-1.1-2.1c0-0.4,0.1-0.9,0.4-1.4
		c0.2-0.5,0.7-0.9,1.3-1.3c0.7-0.4,1.5-0.7,2.2-0.8c0.8-0.1,1.4-0.2,1.9-0.2c-0.2-0.2-0.3-0.4-0.4-0.7c-0.1-0.2-0.2-0.5-0.2-0.8
		c0-0.2,0-0.4,0.1-0.5c0-0.1,0.1-0.3,0.1-0.4c-0.2,0-0.5,0-0.7,0c-1.2,0-2.1-0.4-2.7-1.1s-1-1.4-1-2.3c0-1.1,0.5-2.1,1.4-2.9
		c0.6-0.5,1.3-0.8,1.9-1c0.7-0.1,1.3-0.2,1.9-0.2h4.4l-1.4,0.8L297.3,504.5 M298.2,517.1c0-0.6-0.2-1-0.5-1.5
		c-0.4-0.4-1-0.9-1.8-1.4c-0.1,0-0.3,0-0.5,0c-0.1,0-0.4,0-0.9,0c-0.5,0.1-0.9,0.2-1.4,0.3c-0.1,0-0.3,0.1-0.5,0.2
		c-0.2,0.1-0.4,0.2-0.6,0.4c-0.2,0.2-0.4,0.4-0.5,0.7c-0.2,0.3-0.2,0.6-0.2,1c0,0.8,0.3,1.4,1,1.9c0.7,0.5,1.6,0.8,2.7,0.8
		c1,0,1.8-0.2,2.4-0.7C297.9,518.3,298.2,517.8,298.2,517.1 M295.1,510.7c0.6,0,1.1-0.2,1.4-0.6c0.2-0.3,0.3-0.6,0.4-0.9
		c0-0.3,0-0.5,0-0.7c0-0.9-0.2-1.7-0.7-2.6c-0.2-0.4-0.5-0.8-0.8-1c-0.3-0.2-0.7-0.4-1.2-0.4c-0.6,0-1.1,0.3-1.5,0.7
		c-0.3,0.5-0.5,1-0.5,1.6c0,0.8,0.2,1.6,0.7,2.5c0.2,0.4,0.5,0.7,0.9,1C294.3,510.6,294.7,510.7,295.1,510.7"/>
	<path fill="#B5A898" d="M306,506.1h-2.3v-2.3h-1.1v2.3h-2.3v1.2h2.3v2.3h1.1v-2.3h2.3L306,506.1L306,506.1z"/>
	<path fill="#B5A898" d="M161.4,507.5h1.9v-0.9v-0.8v-0.2c0-0.8,0-2.1,0.6-2.9c0.7-0.8,1.6-1.4,3.1-1.4c2.5,0,3.5,0.4,3.5,0.4
		l-0.5,2.9c0,0-0.8-0.2-1.6-0.2c-0.8,0-1.4,0.3-1.4,1v0.3v1v0.9h3.1l-0.2,2.7H167v9.8h-3.6v-9.8h-1.9L161.4,507.5"/>
</g>
<g>
	<path fill="#E3E2D5" d="M237.7,466.4c-0.5,0.2-1.1,0.4-1.7,0.5c0.6-0.4,1.1-1,1.3-1.7c-0.6,0.3-1.2,0.6-1.9,0.7
		c-0.6-0.6-1.3-1-2.2-1c-1.7,0-3,1.4-3,3c0,0.2,0,0.5,0.1,0.7c-2.5-0.1-4.8-1.3-6.3-3.2c-0.3,0.4-0.4,1-0.4,1.5c0,1.1,0.5,2,1.4,2.5
		c-0.5,0-1-0.2-1.4-0.4l0,0c0,1.5,1,2.7,2.4,3c-0.3,0.1-0.5,0.1-0.8,0.1c-0.2,0-0.4,0-0.6-0.1c0.4,1.2,1.5,2.1,2.8,2.1
		c-1,0.8-2.4,1.3-3.8,1.3c-0.2,0-0.5,0-0.7,0c1.3,0.9,2.9,1.4,4.7,1.4c5.6,0,8.7-4.6,8.7-8.7c0-0.1,0-0.3,0-0.4
		C236.8,467.6,237.3,467,237.7,466.4"/>
	<path fill="#E3E2D5" d="M297.3,464.5c0.1,0.1,0.3,0.2,0.5,0.4c0.2,0.2,0.3,0.4,0.5,0.6c0.1,0.2,0.3,0.5,0.4,0.8
		c0.1,0.3,0.1,0.7,0.1,1.1c0,0.8-0.2,1.4-0.5,1.9c-0.2,0.2-0.3,0.4-0.5,0.6s-0.4,0.4-0.6,0.6c-0.1,0.1-0.3,0.3-0.4,0.5
		c-0.1,0.2-0.2,0.4-0.2,0.6c0,0.2,0.1,0.4,0.2,0.6c0.1,0.1,0.2,0.3,0.3,0.4l0.7,0.6c0.5,0.4,0.9,0.8,1.2,1.2
		c0.3,0.5,0.5,1.1,0.5,1.8c0,1.1-0.5,2-1.4,2.8c-1,0.8-2.4,1.3-4.2,1.3c-1.5,0-2.7-0.3-3.4-1c-0.8-0.6-1.1-1.3-1.1-2.1
		c0-0.4,0.1-0.9,0.4-1.4c0.2-0.5,0.7-0.9,1.3-1.3c0.7-0.4,1.5-0.7,2.2-0.8c0.8-0.1,1.4-0.2,1.9-0.2c-0.2-0.2-0.3-0.4-0.4-0.7
		c-0.1-0.2-0.2-0.5-0.2-0.8c0-0.2,0-0.4,0.1-0.5c0-0.1,0.1-0.3,0.1-0.4c-0.2,0-0.5,0-0.7,0c-1.2,0-2.1-0.4-2.7-1.1s-1-1.4-1-2.3
		c0-1.1,0.5-2.1,1.4-2.9c0.6-0.5,1.3-0.8,1.9-1c0.7-0.1,1.3-0.2,1.9-0.2h4.4l-1.4,0.8L297.3,464.5 M298.2,477.2c0-0.6-0.2-1-0.5-1.5
		c-0.4-0.4-1-0.9-1.8-1.4c-0.1,0-0.3,0-0.5,0c-0.1,0-0.4,0-0.9,0c-0.5,0.1-0.9,0.2-1.4,0.3c-0.1,0-0.3,0.1-0.5,0.2s-0.4,0.2-0.6,0.4
		c-0.2,0.2-0.4,0.4-0.5,0.7c-0.2,0.3-0.2,0.6-0.2,1c0,0.8,0.3,1.4,1,1.9c0.7,0.5,1.6,0.8,2.7,0.8c1,0,1.8-0.2,2.4-0.7
		C297.9,478.4,298.2,477.9,298.2,477.2 M295.1,470.7c0.6,0,1.1-0.2,1.4-0.6c0.2-0.3,0.3-0.6,0.4-0.9c0-0.3,0-0.5,0-0.7
		c0-0.9-0.2-1.7-0.7-2.6c-0.2-0.4-0.5-0.8-0.8-1c-0.3-0.2-0.7-0.4-1.2-0.4c-0.6,0-1.1,0.3-1.5,0.7c-0.3,0.5-0.5,1-0.5,1.6
		c0,0.8,0.2,1.6,0.7,2.5c0.2,0.4,0.5,0.7,0.9,1C294.3,470.6,294.7,470.7,295.1,470.7"/>
	<path fill="#E3E2D5" d="M306,466.1h-2.3v-2.3h-1.1v2.3h-2.3v1.1h2.3v2.3h1.1v-2.2h2.3L306,466.1L306,466.1z"/>
	<path fill="#E3E2D5" d="M161.4,467.5h1.9v-0.9v-0.9v-0.1c0-0.8,0-2.1,0.6-2.9c0.6-0.8,1.5-1.4,3-1.4c2.5,0,3.5,0.4,3.5,0.4
		l-0.5,2.9c0,0-0.8-0.2-1.6-0.2s-1.4,0.3-1.4,1v0.3v1v0.9h3.1l-0.1,2.7H167v9.8h-3.6v-9.8h-1.9L161.4,467.5"/>
</g>
<g>
	<path fill="#F1F1E9" d="M237.7,426.5c-0.5,0.2-1.1,0.4-1.7,0.5c0.6-0.4,1.1-1,1.3-1.7c-0.6,0.3-1.2,0.6-1.9,0.7
		c-0.6-0.6-1.3-1-2.2-1c-1.7,0-3,1.4-3,3c0,0.2,0,0.5,0.1,0.7c-2.5-0.1-4.8-1.3-6.3-3.2c-0.3,0.4-0.4,1-0.4,1.5c0,1.1,0.5,2,1.4,2.5
		c-0.5,0-1-0.2-1.4-0.4l0,0c0,1.5,1,2.7,2.4,3c-0.3,0.1-0.5,0.1-0.8,0.1c-0.2,0-0.4,0-0.6-0.1c0.4,1.2,1.5,2.1,2.8,2.1
		c-1,0.8-2.4,1.3-3.8,1.3c-0.2,0-0.5,0-0.7,0c1.3,0.9,2.9,1.4,4.7,1.4c5.6,0,8.7-4.6,8.7-8.7c0-0.1,0-0.3,0-0.4
		C236.8,427.6,237.3,427.1,237.7,426.5"/>
	<path fill="#F1F1E9" d="M297.3,424.6c0.1,0.1,0.3,0.2,0.5,0.4c0.2,0.2,0.3,0.4,0.5,0.6c0.1,0.2,0.3,0.5,0.4,0.8
		c0.1,0.3,0.1,0.7,0.1,1.1c0,0.8-0.2,1.4-0.5,1.9c-0.2,0.2-0.3,0.4-0.5,0.6c-0.2,0.2-0.4,0.4-0.6,0.6c-0.1,0.1-0.3,0.3-0.4,0.5
		s-0.2,0.4-0.2,0.6s0.1,0.4,0.2,0.6c0.1,0.1,0.2,0.3,0.3,0.4l0.7,0.6c0.5,0.4,0.9,0.8,1.2,1.2c0.3,0.5,0.5,1.1,0.5,1.8
		c0,1.1-0.5,2-1.4,2.8c-1,0.8-2.4,1.3-4.2,1.3c-1.5,0-2.7-0.3-3.4-1c-0.8-0.6-1.1-1.3-1.1-2.1c0-0.4,0.1-0.9,0.4-1.4
		c0.2-0.5,0.7-0.9,1.3-1.3c0.7-0.4,1.5-0.7,2.2-0.8c0.8-0.1,1.4-0.2,1.9-0.2c-0.2-0.2-0.3-0.4-0.4-0.7c-0.1-0.2-0.2-0.5-0.2-0.8
		c0-0.2,0-0.4,0.1-0.5c0-0.1,0.1-0.3,0.1-0.4c-0.2,0-0.5,0-0.7,0c-1.2,0-2.1-0.4-2.7-1.1c-0.6-0.7-1-1.4-1-2.3
		c0-1.1,0.5-2.1,1.4-2.9c0.6-0.5,1.3-0.8,1.9-1c0.7-0.1,1.3-0.2,1.9-0.2h4.4l-1.4,0.8L297.3,424.6 M298.2,437.2c0-0.6-0.2-1-0.5-1.5
		c-0.4-0.4-1-0.9-1.8-1.4c-0.1,0-0.3,0-0.5,0c-0.1,0-0.4,0-0.9,0c-0.5,0.1-0.9,0.2-1.4,0.3c-0.1,0-0.3,0.1-0.5,0.2
		c-0.2,0.1-0.4,0.2-0.6,0.4c-0.2,0.2-0.4,0.4-0.5,0.7c-0.2,0.3-0.2,0.6-0.2,1c0,0.8,0.3,1.4,1,1.9c0.7,0.5,1.6,0.8,2.7,0.8
		c1,0,1.8-0.2,2.4-0.7C297.9,438.4,298.2,437.9,298.2,437.2 M295.1,430.7c0.6,0,1.1-0.2,1.4-0.6c0.2-0.3,0.3-0.6,0.4-0.9
		c0-0.3,0-0.5,0-0.7c0-0.9-0.2-1.7-0.7-2.6c-0.2-0.4-0.5-0.8-0.8-1c-0.3-0.2-0.7-0.4-1.2-0.4c-0.6,0-1.1,0.3-1.5,0.7
		c-0.3,0.5-0.5,1-0.5,1.6c0,0.8,0.2,1.6,0.7,2.5c0.2,0.4,0.5,0.7,0.9,1C294.3,430.6,294.7,430.7,295.1,430.7"/>
	<path fill="#F1F1E9" d="M306,426.2h-2.3v-2.3h-1.1v2.3h-2.3v1.1h2.3v2.3h1.1v-2.2h2.3L306,426.2L306,426.2z"/>
	<path fill="#F1F1E9" d="M161.4,427.5h1.9v-0.9v-0.9v-0.1c0-0.8,0-2.1,0.6-2.9c0.6-0.8,1.5-1.4,3-1.4c2.5,0,3.5,0.4,3.5,0.4
		l-0.5,2.9c0,0-0.8-0.2-1.6-0.2s-1.4,0.3-1.4,1v0.3v1v0.9h3.1l-0.1,2.7H167v9.8h-3.6v-9.8h-1.9L161.4,427.5"/>
</g>
<g>
	<path fill="#524640" d="M237.7,556.3c-0.5,0.2-1.1,0.4-1.7,0.5c0.6-0.4,1.1-1,1.3-1.7c-0.6,0.3-1.2,0.6-1.9,0.7
		c-0.6-0.6-1.3-1-2.2-1c-1.7,0-3,1.4-3,3c0,0.2,0,0.5,0.1,0.7c-2.5-0.1-4.8-1.3-6.3-3.2c-0.3,0.4-0.4,1-0.4,1.5c0,1.1,0.5,2,1.4,2.5
		c-0.5,0-1-0.2-1.4-0.4l0,0c0,1.5,1,2.7,2.4,3c-0.3,0.1-0.5,0.1-0.8,0.1c-0.2,0-0.4,0-0.6-0.1c0.4,1.2,1.5,2.1,2.8,2.1
		c-1,0.8-2.4,1.3-3.8,1.3c-0.2,0-0.5,0-0.7,0c1.3,0.9,2.9,1.4,4.7,1.4c5.6,0,8.7-4.6,8.7-8.7c0-0.1,0-0.3,0-0.4
		C236.8,557.5,237.3,556.9,237.7,556.3"/>
	<path fill="#524640" d="M297.3,554.4c0.1,0.1,0.3,0.2,0.5,0.4s0.3,0.4,0.5,0.6c0.1,0.2,0.3,0.5,0.4,0.8c0.1,0.3,0.1,0.7,0.1,1.1
		c0,0.8-0.2,1.4-0.5,1.9c-0.2,0.2-0.3,0.4-0.5,0.6s-0.4,0.4-0.6,0.6c-0.1,0.1-0.3,0.3-0.4,0.5c-0.1,0.2-0.2,0.4-0.2,0.6
		s0.1,0.4,0.2,0.6c0.1,0.1,0.2,0.3,0.3,0.4l0.7,0.6c0.5,0.4,0.9,0.8,1.2,1.2c0.3,0.5,0.5,1.1,0.5,1.8c0,1.1-0.5,2-1.4,2.8
		c-1,0.8-2.4,1.3-4.2,1.3c-1.5,0-2.7-0.3-3.4-1c-0.8-0.6-1.1-1.3-1.1-2.1c0-0.4,0.1-0.9,0.4-1.4c0.2-0.5,0.7-0.9,1.3-1.3
		c0.7-0.4,1.5-0.7,2.2-0.8c0.8-0.1,1.4-0.2,1.9-0.2c-0.2-0.2-0.3-0.4-0.4-0.7c-0.1-0.2-0.2-0.5-0.2-0.8c0-0.2,0-0.4,0.1-0.5
		c0-0.1,0.1-0.3,0.1-0.4c-0.2,0-0.5,0-0.7,0c-1.2,0-2.1-0.4-2.7-1.1s-1-1.4-1-2.3c0-1.1,0.5-2.1,1.4-2.9c0.6-0.5,1.3-0.8,1.9-1
		c0.7-0.1,1.3-0.2,1.9-0.2h4.4l-1.4,0.8L297.3,554.4 M298.2,567.1c0-0.6-0.2-1-0.5-1.5c-0.4-0.4-1-0.9-1.8-1.4c-0.1,0-0.3,0-0.5,0
		c-0.1,0-0.4,0-0.9,0c-0.5,0.1-0.9,0.2-1.4,0.3c-0.1,0-0.3,0.1-0.5,0.2c-0.2,0.1-0.4,0.2-0.6,0.4c-0.2,0.2-0.4,0.4-0.5,0.7
		c-0.2,0.3-0.2,0.6-0.2,1c0,0.8,0.3,1.4,1,1.9c0.7,0.5,1.6,0.8,2.7,0.8c1,0,1.8-0.2,2.4-0.7C297.9,568.3,298.2,567.7,298.2,567.1
		 M295.1,560.6c0.6,0,1.1-0.2,1.4-0.6c0.2-0.3,0.3-0.6,0.4-0.9c0-0.3,0-0.5,0-0.7c0-0.9-0.2-1.7-0.7-2.6c-0.2-0.4-0.5-0.8-0.8-1
		c-0.3-0.2-0.7-0.4-1.2-0.4c-0.6,0-1.1,0.3-1.5,0.7c-0.3,0.5-0.5,1-0.5,1.6c0,0.8,0.2,1.6,0.7,2.5c0.2,0.4,0.5,0.7,0.9,1
		C294.3,560.5,294.7,560.6,295.1,560.6"/>
	<path fill="#524640" d="M306,556.1h-2.3v-2.3h-1.1v2.3h-2.3v1.1h2.3v2.3h1.1v-2.3h2.3L306,556.1L306,556.1z"/>
	<path fill="#524640" d="M161.4,557.4h1.9v-0.9v-0.9v-0.1c0-0.8,0-2.1,0.6-2.9c0.6-0.8,1.5-1.4,3-1.4c2.5,0,3.5,0.4,3.5,0.4
		l-0.5,2.9c0,0-0.8-0.2-1.6-0.2s-1.4,0.3-1.4,1v0.3v1v0.9h3.1l-0.1,2.7H167v9.8h-3.6v-9.8h-1.9L161.4,557.4"/>
</g>
</svg>
