<svg xmlns="http://www.w3.org/2000/svg" width="231.68" height="76.65" viewBox="0 0 231.676 76.654" enable-background="new 0 0 231.676 76.654"><g fill="#b5a898"><path d="m163.34 5.135c-.545.241-1.131.405-1.746.479.629-.378 1.109-.974 1.338-1.685-.588.35-1.238.604-1.934.737-.555-.591-1.346-.96-2.221-.96-1.68 0-3.042 1.36-3.042 3.042 0 .238.026.471.079.693-2.528-.127-4.771-1.34-6.271-3.18-.262.448-.412.973-.412 1.528 0 1.056.537 1.986 1.354 2.531-.499-.017-.969-.152-1.379-.381 0 .014 0 .024 0 .039 0 1.474 1.05 2.703 2.441 2.981-.257.068-.525.105-.803.105-.195 0-.387-.02-.572-.055.387 1.209 1.512 2.09 2.842 2.112-1.041.816-2.353 1.303-3.777 1.303-.246 0-.487-.016-.727-.042 1.346.862 2.945 1.365 4.664 1.365 5.596 0 8.656-4.636 8.656-8.654 0-.133-.002-.265-.01-.395.598-.416 1.114-.952 1.52-1.563"/><path d="m223.03 3.246c.14.086.293.21.465.374.166.171.328.382.485.631.15.234.285.515.402.834.096.32.146.695.146 1.122-.015.784-.187 1.412-.521 1.883-.164.229-.338.438-.52.632-.203.19-.418.388-.646.589-.131.135-.252.287-.361.459-.131.178-.196.385-.196.619 0 .229.067.418.201.565.112.146.225.271.331.375l.744.609c.461.377.867.793 1.216 1.25.327.463.499 1.068.512 1.816 0 1.062-.469 2-1.405 2.823-.974.849-2.375 1.286-4.209 1.314-1.535-.016-2.683-.343-3.439-.981-.764-.599-1.146-1.312-1.146-2.146 0-.406.125-.857.373-1.355.24-.498.68-.936 1.311-1.312.711-.404 1.457-.677 2.236-.812.773-.113 1.416-.177 1.93-.189-.157-.209-.299-.432-.424-.668-.145-.229-.217-.506-.217-.826 0-.194.027-.355.082-.483.049-.138.094-.263.135-.377-.248.028-.481.043-.703.043-1.168-.015-2.059-.381-2.668-1.103-.643-.668-.961-1.449-.961-2.342 0-1.074.453-2.053 1.359-2.929.623-.514 1.271-.848 1.941-1 .666-.136 1.289-.203 1.871-.203h4.383l-1.354.79-1.353.003m.845 12.618c0-.557-.18-1.041-.543-1.454-.385-.394-.984-.874-1.801-1.444-.141-.015-.305-.021-.492-.021-.111-.014-.396 0-.857.044-.455.062-.918.167-1.395.311-.109.043-.27.106-.471.192-.201.092-.408.226-.617.396-.203.178-.373.396-.514.661-.16.277-.24.612-.24 1.01 0 .77.35 1.402 1.047 1.901.662.499 1.57.756 2.723.771 1.031-.017 1.82-.243 2.365-.688.532-.434.795-.992.795-1.676m-3.054-6.426c.576-.021 1.06-.229 1.442-.621.187-.278.306-.563.355-.856.033-.293.049-.539.049-.738 0-.863-.221-1.734-.662-2.613-.207-.422-.479-.767-.818-1.028-.346-.25-.743-.382-1.19-.396-.594.015-1.088.254-1.481.717-.332.485-.49 1.029-.478 1.629 0 .794.231 1.617.695 2.476.226.4.516.739.87 1.02.354.274.761.41 1.218.41"/><path d="m231.68 4.85h-2.3v-2.3h-1.12v2.3h-2.3v1.114h2.3v2.3h1.12v-2.3h2.3z"/><path d="m86.91 6.225h1.946v-.884-.864-.145c0-.833.021-2.119.626-2.916.638-.843 1.514-1.416 3.02-1.416 2.454 0 3.488.353 3.488.353l-.487 2.881c0 0-.811-.232-1.567-.232-.757 0-1.434.271-1.434 1.025v.308 1.01.883h3.102l-.216 2.812h-2.886v9.778h-3.646v-9.779h-1.946v-2.814"/></g><g fill="#524640"><path d="m163.34 55.14c-.545.241-1.131.405-1.746.479.629-.378 1.109-.974 1.338-1.685-.588.35-1.238.604-1.934.737-.555-.591-1.346-.96-2.221-.96-1.68 0-3.042 1.36-3.042 3.042 0 .238.026.471.079.693-2.528-.127-4.771-1.34-6.271-3.18-.262.448-.412.973-.412 1.528 0 1.056.537 1.986 1.354 2.531-.499-.017-.969-.152-1.379-.381 0 .014 0 .025 0 .039 0 1.474 1.05 2.703 2.441 2.982-.257.067-.525.104-.803.104-.195 0-.387-.019-.572-.055.387 1.209 1.512 2.09 2.842 2.112-1.041.816-2.353 1.303-3.777 1.303-.246 0-.487-.016-.727-.042 1.346.862 2.945 1.365 4.664 1.365 5.596 0 8.656-4.636 8.656-8.654 0-.132-.002-.265-.01-.395.598-.416 1.114-.952 1.52-1.563"/><path d="m223.03 53.25c.14.086.293.21.465.374.166.171.328.382.485.631.15.234.285.515.402.834.096.32.146.695.146 1.122-.015.784-.187 1.412-.521 1.884-.164.228-.338.438-.52.631-.203.19-.418.388-.646.589-.131.135-.252.287-.361.459-.131.178-.196.385-.196.619 0 .229.067.418.201.565.112.146.225.271.331.375l.744.609c.461.377.867.793 1.216 1.25.327.463.499 1.069.512 1.817 0 1.062-.469 2-1.405 2.822-.974.849-2.375 1.286-4.209 1.314-1.535-.016-2.683-.343-3.439-.981-.764-.599-1.146-1.312-1.146-2.146 0-.406.125-.857.373-1.355.24-.498.68-.936 1.311-1.312.711-.404 1.457-.676 2.236-.812.773-.112 1.416-.177 1.93-.189-.157-.209-.299-.432-.424-.668-.145-.229-.217-.505-.217-.826 0-.194.027-.355.082-.483.049-.138.094-.263.135-.377-.248.028-.481.043-.703.043-1.168-.015-2.059-.381-2.668-1.103-.643-.668-.961-1.449-.961-2.341 0-1.075.453-2.054 1.359-2.93.623-.514 1.271-.848 1.941-1.01.666-.136 1.289-.203 1.871-.203h4.383l-1.354.79-1.353.003m.845 12.618c0-.557-.18-1.041-.543-1.454-.385-.394-.984-.874-1.801-1.443-.141-.016-.305-.021-.492-.021-.111-.014-.396 0-.857.044-.455.062-.918.167-1.395.312-.109.042-.27.105-.471.191-.201.092-.408.226-.617.396-.203.178-.373.396-.514.662-.16.276-.24.611-.24 1.01 0 .77.35 1.402 1.047 1.901.662.499 1.57.757 2.723.771 1.031-.017 1.82-.243 2.365-.688.532-.435.795-.994.795-1.677m-3.054-6.426c.576-.021 1.06-.229 1.442-.621.187-.278.306-.563.355-.856.033-.293.049-.538.049-.738 0-.863-.221-1.734-.662-2.613-.207-.422-.479-.766-.818-1.028-.346-.25-.743-.382-1.19-.396-.594.015-1.088.254-1.481.717-.332.485-.49 1.029-.478 1.629 0 .794.231 1.617.695 2.477.226.399.516.738.87 1.019.354.274.761.41 1.218.41"/><path d="m231.68 54.855h-2.3v-2.305h-1.12v2.305h-2.3v1.113h2.3v2.302h1.12v-2.302h2.3z"/><path d="m86.91 56.23h1.946v-.884-.864-.146c0-.833.021-2.118.626-2.916.638-.843 1.514-1.416 3.02-1.416 2.454 0 3.488.353 3.488.353l-.487 2.881c0 0-.811-.232-1.567-.232-.757 0-1.434.271-1.434 1.025v.308 1.01.883h3.102l-.216 2.812h-2.886v9.778h-3.646v-9.778h-1.946v-2.814"/></g><g fill-rule="evenodd"><path fill="#635952" d="m6.083 51.35c-1.06-1.07-2.77-1.07-3.83 0-1.06 1.06-1.06 2.79 0 3.86l17.56 17.66c1.94 1.959 5.1 1.959 7.04 0l17.56-17.66c1.06-1.07 1.06-2.801 0-3.86-1.06-1.07-2.77-1.07-3.83 0l-17.25 17.36-17.25-17.36"/><path fill="#b5a898" d="m6.083 2.01c-1.06-1.07-2.77-1.07-3.83 0-1.06 1.06-1.06 2.79 0 3.86l17.56 17.661c1.94 1.959 5.1 1.959 7.04 0l17.56-17.661c1.06-1.07 1.06-2.8 0-3.86-1.06-1.07-2.77-1.07-3.83 0l-17.25 17.36-17.25-17.36"/></g></svg>