<?xml version="1.0" encoding="utf-8"?>
<!-- Generator: Adobe Illustrator 17.1.0, SVG Export Plug-In . SVG Version: 6.00 Build 0)  -->
<!DOCTYPE svg PUBLIC "-//W3C//DTD SVG 1.1//EN" "http://www.w3.org/Graphics/SVG/1.1/DTD/svg11.dtd">
<svg version="1.1" id="Layer_1" xmlns="http://www.w3.org/2000/svg" xmlns:xlink="http://www.w3.org/1999/xlink" x="0px" y="0px"
	 viewBox="217.5 310.9 394.3 295.2" enable-background="new 217.5 310.9 394.3 295.2" xml:space="preserve">
<g>
	<g opacity="0.2">
		<path fill="#E2E1D4" d="M443.6,381.2c2.1,0.2,4.3,0.4,6.4,0.6c-0.1-0.2-0.1-0.5,0-0.7c1.7-6.1,1.8-12.6,1.6-16.2
			c-1.3,1.2-3.2,2.8-5,4.1C446.5,370.8,446,376.2,443.6,381.2z"/>
		<path fill="#E2E1D4" d="M387.3,381.7c2.1-0.2,4.3-0.4,6.4-0.6c-2.4-5-2.9-10.3-3-12.2c-1.8-1.3-3.7-2.9-5-4.1
			c-0.1,3.6,0,10.1,1.6,16.2C387.3,381.3,387.3,381.5,387.3,381.7z"/>
		<path fill="#E2E1D4" d="M392.4,368.4l1.7,9l2.3,5.3l45.1,0.1l2.1-3.8l1.8-6.3l0.3-4l5-14.2l-6.9-25.3c0,0-0.6,45.1-11.1,45.1
			c-10.5,0-12.7,0-12.7,0h-2.1c0,0-2.1,0-12.7,0c-10.5,0-11.4-45.1-11.4-45.1l-5.2,15.3l0.1,21L392.4,368.4z"/>
		<path fill="#E2E1D4" d="M487.3,390.8C487.3,390.8,487.3,390.8,487.3,390.8C487.3,390.8,487.3,390.8,487.3,390.8z"/>
		<path fill="#E2E1D4" d="M487.1,390.7c0.1,0,0.1,0,0.1,0.1C487.2,390.8,487.2,390.8,487.1,390.7z"/>
		<path fill="#E2E1D4" d="M487.4,390.9C487.4,390.9,487.4,390.9,487.4,390.9L487.4,390.9z"/>
		<path fill="#E2E1D4" d="M486.9,390.6c0.1,0,0.1,0.1,0.2,0.1C487.1,390.7,487,390.7,486.9,390.6z"/>
		<path fill="#E2E1D4" d="M487.3,390.8C487.4,390.8,487.4,390.9,487.3,390.8C487.4,390.9,487.4,390.8,487.3,390.8z"/>
		<path fill="#E2E1D4" d="M486,390.2c0.3,0.2,0.6,0.3,0.8,0.4C486.6,390.5,486.3,390.3,486,390.2z"/>
		<path fill="#E2E1D4" d="M485.2,389.8c0.1,0,0.2,0.1,0.3,0.2C485.4,389.9,485.3,389.8,485.2,389.8z"/>
		<path fill="#E2E1D4" d="M484.9,389.6C484.9,389.6,484.9,389.6,484.9,389.6C484.9,389.6,484.9,389.6,484.9,389.6z"/>
		<path fill="#E2E1D4" d="M484.9,389.6c0.1,0,0.2,0.1,0.3,0.1C485.1,389.7,485,389.7,484.9,389.6z"/>
		<path fill="#E2E1D4" d="M477,371.2l-0.1,16l8,2.4C479.1,386.8,477,371.2,477,371.2z"/>
		<path fill="#E2E1D4" d="M486.8,390.6C486.9,390.6,486.9,390.6,486.8,390.6C486.9,390.6,486.9,390.6,486.8,390.6z"/>
		<path fill="#E2E1D4" d="M485.5,389.9c0.2,0.1,0.4,0.2,0.5,0.3C485.8,390.1,485.7,390,485.5,389.9z"/>
		<path fill="#E2E1D4" d="M486,390.2C486,390.2,486,390.2,486,390.2C486,390.2,486,390.2,486,390.2z"/>
		<path fill="#E2E1D4" d="M352.4,389.6C352.4,389.6,352.4,389.6,352.4,389.6C352.4,389.6,352.4,389.6,352.4,389.6z"/>
		<path fill="#E2E1D4" d="M350.5,390.6c-0.1,0-0.1,0.1-0.2,0.1C350.3,390.6,350.4,390.6,350.5,390.6z"/>
		<path fill="#E2E1D4" d="M351.7,390c-0.1,0.1-0.3,0.1-0.4,0.2C351.4,390.1,351.6,390,351.7,390z"/>
		<path fill="#E2E1D4" d="M352,389.8c-0.1,0-0.2,0.1-0.3,0.1C351.8,389.9,351.9,389.9,352,389.8z"/>
		<path fill="#E2E1D4" d="M351.3,390.2C351.3,390.2,351.3,390.2,351.3,390.2C351.3,390.2,351.3,390.2,351.3,390.2z"/>
		<path fill="#E2E1D4" d="M350.3,390.7C350.3,390.7,350.3,390.7,350.3,390.7C350.3,390.7,350.3,390.7,350.3,390.7z"/>
		<path fill="#E2E1D4" d="M360.3,371.2c0,0-2.2,15.6-7.9,18.4l8-2.4L360.3,371.2z"/>
		<path fill="#E2E1D4" d="M351.3,390.2c-0.3,0.1-0.5,0.3-0.8,0.4C350.7,390.5,350.9,390.3,351.3,390.2z"/>
		<path fill="#E2E1D4" d="M350.3,390.7c-0.1,0-0.2,0.1-0.2,0.1C350.1,390.8,350.2,390.7,350.3,390.7z"/>
		<path fill="#E2E1D4" d="M352.3,389.7C352.3,389.7,352.3,389.7,352.3,389.7C352.3,389.7,352.3,389.7,352.3,389.7z"/>
		<path fill="#E2E1D4" d="M350,390.8C350,390.8,350,390.8,350,390.8C350,390.8,350,390.8,350,390.8z"/>
		<path fill="#E2E1D4" d="M352.4,389.6C352.4,389.7,352.3,389.7,352.4,389.6C352.3,389.7,352.4,389.7,352.4,389.6z"/>
		<path fill="#E2E1D4" d="M352.3,389.7c-0.1,0-0.2,0.1-0.3,0.1C352.1,389.8,352.2,389.7,352.3,389.7z"/>
		<path fill="#E2E1D4" d="M350,390.8C349.8,390.9,349.9,390.9,350,390.8L350,390.8z"/>
		<path fill="#E2E1D4" d="M395.9,395.1c0,0-37.1,3.1-68.4,31.4l1.5-0.1c0,0,37-24.5,66.3-27.5L395.9,395.1z"/>
		<path fill="#E2E1D4" d="M436.3,392.8c-33.1,4.1-51.1,18.3-51.1,18.3c13-6.1,42.2-12.8,42.2-12.8L436.3,392.8z"/>
		<path fill="#E2E1D4" d="M471.5,397.7l-8.4-1.6c-10,10-34.5,17.3-34.5,17.3C445.9,413.3,471.5,397.7,471.5,397.7z"/>
		<path fill="#E2E1D4" d="M358.9,459.5c2.6,1.6,6.1,3.5,8,3.8c0.1,0,0.2,0,0.3,0c4.3,0,30.8-7.9,35.1-9.2c2.7-0.8,3.6-2.4,3.8-3.4
			l-40.2,8.9l-0.3,0c-0.3,0-0.6-0.1-0.8-0.3l-1.6-1.1l-4.7-3.3v0l-1.9-1.3c0.1,0.4,0.3,0.8,0.4,1.3l0,0
			C357.3,455.4,357.8,457.1,358.9,459.5z"/>
		<path fill="#E2E1D4" d="M432.1,451.7c0.6,0.7,1.6,1.3,3.1,1.7c4.3,1.1,30.4,7.7,35.3,7.7c0.2,0,0.4,0,0.5,0
			c2.4-0.5,7.6-3.9,9.9-5.5c0.4-1.2,0.8-2.4,1.2-3.6c0.3-0.9,0.5-1.9,0.7-2.9l-1.4,1l-3.8,2.6l-4.1,2.8c-0.2,0.2-0.5,0.2-0.8,0.2
			c-0.1,0-0.1,0-0.2,0l-40.4-4.6L432.1,451.7z"/>
		<path fill="#E2E1D4" d="M352.4,450.7l-2.5-1.8c-0.8,0.3-1.7,0.5-2.4,0.5c-2.5,0-4.4-1.6-5.7-3c1,3.5,2.1,6.5,2.9,7.3
			c0.4,0.1,0.9,0.1,1.4,0.1c2.2,0,5.3-0.5,7-1C352.8,452.1,352.6,451.4,352.4,450.7z"/>
		<path fill="#E2E1D4" d="M488,447.6c-0.5,0-1.1-0.1-1.6-0.2c-0.2,0.9-0.3,1.6-0.6,2.6c1.7,0.4,4.2,0.7,6,0.7c0.6,0,1.2,0,1.7-0.1
			c0.8-0.8,1.7-3.7,2.6-7.1C494.4,445.3,491.3,447.6,488,447.6z"/>
		<path fill="#E2E1D4" d="M418,502c-2.2,0-4.5-0.2-6.7-0.5c-2.5,0.8-4.5,1.1-4.7,1.1c-0.4,0.1-0.7,0.1-1.2,0.2
			c4.4,1.2,8.9,1.9,13.3,1.9c1,0,2,0,3-0.1c5.5-0.4,12.5-1.5,20-4.6c-1.7-0.1-3.3-0.5-4.9-1C432.7,500.2,425.4,502,418,502z"/>
		<path fill="#E2E1D4" d="M480.6,475L480.6,475c-1.5,2.4-3.2,4.6-5.3,6.4c-1,0.9-2.2,1.7-3.4,2.2c-1.2,0.6-2.5,0.9-3.9,1.3
			c-2.7,0.7-5.4,1.3-8.1,1.9c-2.7,0.6-5.4,1.2-8.1,1.7c-2.7,0.5-5.4,1-8.1,1.5c-1.4,0.2-2.7,0.4-4.1,0.5c-0.3,0-0.7,0-1,0
			c-0.1,0-0.3,0-0.4,0l-0.2,0l-0.2-0.1c-0.6-0.2-1.2-0.5-1.8-0.8c-2.4-1.3-4.7-2.9-6.9-4.5c-1.8-1.2-3.6-2.7-5.4-4l-0.2,0.2l0.3,0.3
			c-0.7-0.6-1.2-0.9-1.2-0.9s-0.1,0.2-0.3,0.5l-0.2-0.1c-1.5,1.6-2.8,3.3-4.3,4.9c-0.9,1-1.8,1.9-2.7,2.8c-0.9,0.9-1.8,1.8-2.8,2.7
			c-0.5,0.4-1,0.8-1.4,1c-0.5,0.2-1.1,0.4-1.7,0.5c-1.2,0.3-2.5,0.5-3.8,0.7c-2.6,0.4-5.1,0.7-7.7,1c-2.6,0.3-5.2,0.6-7.8,0.8
			c-2.6,0.3-5.2,0.4-7.8,0.6c-0.6,0-1.3,0.1-1.9,0.1c-0.6,0-1.2-0.1-1.9-0.2c-1.2-0.2-2.4-0.6-3.6-1.2c-2.3-1.1-4.4-2.7-6.3-4.5
			c0.3,0.3,0.5,0.6,0.8,0.9c-0.3-0.3-0.5-0.5-0.7-0.7c-1.2-1.3-16.1-14.1-16.1-14.1l5.1,12.4c0,0,11.5,12.3,17.9,13.8
			c6.4,1.4,18-0.1,26.7-1.5c8.7-1.3,15.6-4.5,18.4-9.5c2.8-5.1,3.2-6.5,3.2-6.5s8.3,11.7,15.4,13.1c7.1,1.3,28.4-5.9,28.4-5.9
			s12.9-3.5,15.2-8c2.3-4.5,8.3-19.1,8.3-19.1l-8.4,4.5C482.8,469.5,482.2,472,480.6,475z"/>
	</g>
	<path fill="#B4B2B2" d="M365.6,459.7c-0.3,0-0.6-0.1-0.8-0.3l-1.6-1.1l-4.7-3.3v0l-1.9-1.3c0.1,0.4,0.3,0.8,0.4,1.3l0,0
		c0.1,0.4,0.7,2.1,1.8,4.5c-1.9-1.1-3.2-2-3.2-2l-1.4-4.9l0.2-1.6l10.4,5.6l0.5-0.1l0.5,0.3l7.9-1.8l32.4-5.5c0,0,0.1,0.5-0.1,1.1
		l-40.2,8.9L365.6,459.7"/>
	<polyline fill="#8E8D8C" points="365.9,456.8 365.4,456.5 373.8,455.1 365.9,456.8 	"/>
	<path fill="#B4B2B2" d="M472.8,455.6c-0.1,0-0.1,0-0.2,0l-40.4-4.6l-0.1,0.6l0.1-0.6l-0.6-0.1c-0.6-1-0.5-1.9-0.5-1.9l41.5,5.2
		l11-6.5l-0.2,0.7l-0.1,0l0,0.2l-1.4,6.1c0,0-0.4,0.3-1.1,0.8c0.4-1.2,0.8-2.4,1.2-3.6c0.3-0.9,0.5-1.9,0.7-2.9l-1.4,1l-3.8,2.6
		l-4.1,2.8C473.4,455.5,473.1,455.6,472.8,455.6"/>
	<path fill="#B0AEAE" d="M432.1,451.7c-0.2-0.2-0.4-0.5-0.5-0.7l0.6,0.1L432.1,451.7"/>
	<path fill="#B4B2B2" d="M344.8,455l-2.5-1.5l-2.2-9.6c0,0,0.6,1.2,1.8,2.6c1,3.5,2.1,6.5,2.9,7.3c0.4,0.1,0.9,0.1,1.4,0.1
		c2.2,0,5.3-0.5,7-1c-0.2-0.7-0.4-1.4-0.6-2.1l-2.5-1.8c0.1,0,0.1-0.1,0.2-0.1l4.5,1.6l-0.1,0.4l-0.8-0.4l0.6,2l-0.2,1.2L344.8,455"
		/>
	<polyline fill="#898686" points="354.3,452.6 353.7,450.5 354.5,450.9 354.3,452.6 	"/>
	<path fill="#B4B2B2" d="M493.2,452.8l-9.3-1.2l-0.4-3.1l0-0.2l1.9-1.2c0.3,0.1,0.7,0.3,1,0.4c-0.2,0.9-0.3,1.6-0.6,2.6
		c1.7,0.4,4.2,0.7,6,0.7c0.6,0,1.2,0,1.7-0.1c0.8-0.8,1.7-3.7,2.6-7.1c1.1-1,1.7-1.9,1.7-1.9l-2.2,9.6L493.2,452.8"/>
	<polyline fill="#898686" points="483.4,448.6 483.4,448.4 483.4,448.4 483.4,448.6 	"/>
	<path fill="#B4B2B2" d="M420.5,506.4c-12,0-20.1-4.1-20.1-4.1l7.9-1.5c1,0.3,2,0.5,3,0.7c-2.5,0.8-4.5,1.1-4.7,1.1
		c-0.4,0.1-0.7,0.1-1.2,0.2c4.4,1.2,8.9,1.9,13.3,1.9c1,0,2,0,3-0.1c5.5-0.4,12.5-1.5,20-4.6c-1.7-0.1-3.3-0.5-4.9-1
		c2.4-0.7,3.9-1.3,3.9-1.3l8.3,0.6C438.7,504.5,428.7,506.4,420.5,506.4"/>
	<g>
		<path fill="#E2E1D4" d="M450.7,436.1c5.7-0.1,8.9-1.9,11.7-0.5c0-0.2-0.9-2.9-4.9-2.4c0.5-1,0.7-2.3,0.5-4.2
			c-0.5-6.7-4.4-12-8.7-11.8c-4.3,0.1-7,5.7-6.8,12.4C442.9,436.3,446.5,436.3,450.7,436.1z M449,421.5c1.2,0,2.2,0.9,2.2,2.1
			c0,1.2-0.9,2.2-2.1,2.2c-1.2,0-2.2-0.9-2.2-2.1C446.9,422.5,447.8,421.5,449,421.5z"/>
		<path fill="#E2E1D4" d="M384.3,437.3c0.4,0,0.9,0,1.4,0c0.4,0,0.8,0,1.2,0c4.3,0,7.8,0.4,7.7-6.3c-0.1-6.7-3-12.1-7.3-12.1
			c-4.3,0-8.4,5.5-8.1,12.2c0.1,1.7,0.3,3,0.7,3.9c-3.7,0.9-4.7,3.2-4.8,3.4C377.5,437.1,380.1,437.3,384.3,437.3z M388,423.1
			c1.2,0,2.2,0.9,2.2,2.1c0,1.2-0.9,2.2-2.1,2.2c-1.2,0-2.2-0.9-2.2-2.1C385.8,424.1,386.7,423.1,388,423.1z"/>
		<path fill="#E2E1D4" d="M477.8,386.9l0-0.2c0-0.3,1.1-7.8-0.7-18.5c-0.1-0.5-0.5-0.9-1-1.1l-2.9-0.8c-0.6-22.5-9.9-33-10.2-33.3
			c8.3,13.3,8.2,29.1,8,32.7l-18-5.1l0,0l-0.2,0l-0.1,0l-0.3,0l0,0l-0.2,0.1l-0.1,0l-0.2,0.1l0,0l0,0l-0.1,0c0,0-0.5,0.5-1.3,1.2
			c0.2-5.9-0.1-22.9-8.2-37c0.2,0.5,6.6,19.3,4.4,40.3c-0.7,0.6-1.5,1.1-2.2,1.6c-0.4,0.2-0.6,0.6-0.6,1.1c0,0.1-0.2,6.8-3.1,12.5
			l-0.1,0.3c-7.4-0.5-14.8-0.7-22.1-0.7c-7.4,0-14.8,0.2-22.1,0.7l-0.1-0.3c-3-5.7-3.1-12.4-3.1-12.5c0-0.4-0.2-0.8-0.6-1.1
			c-0.7-0.5-1.5-1.1-2.2-1.6c-2.2-21.1,4.2-39.8,4.4-40.3c-8.1,14.1-8.4,31.1-8.2,37c-0.8-0.7-1.2-1.2-1.3-1.2l-0.1,0l0,0l0,0
			l-0.2-0.1l-0.1,0l-0.2-0.1l-0.1,0l-0.3,0l-0.1,0l-0.2,0l0,0l-18,5.1c-0.1-3.7-0.2-19.4,8-32.7c-0.3,0.3-9.5,10.9-10.2,33.3
			l-2.9,0.8c-0.5,0.1-0.9,0.6-1,1.1c-1.8,10.7-0.8,18.2-0.7,18.5l0,0.2c-0.2,0.1-0.5,0.1-0.7,0.2c-2.7,0.9-5.5,1.8-8,3.3
			c1.3-0.5,2.7-0.9,4.1-1.2c1.4-0.3,2.8-0.6,4.2-0.9c2.8-0.5,5.6-1,8.4-1.3c2.8-0.4,5.6-0.7,8.5-0.9c2.8-0.2,5.7-0.5,8.5-0.6
			c11.4-0.7,22.7-0.9,34.1-0.9c11.4,0,22.8,0.2,34.1,0.9c2.8,0.2,5.7,0.4,8.5,0.6c2.8,0.2,5.7,0.5,8.5,0.9c2.8,0.3,5.6,0.8,8.4,1.3
			c1.4,0.3,2.8,0.6,4.2,0.9c1.4,0.3,2.8,0.7,4.1,1.2c-2.5-1.5-5.2-2.4-8-3.3C478.3,387.1,478,387,477.8,386.9z M384.2,382.1
			c-2.9,0.3-5.7,0.7-8.6,1.2c-2.8,0.5-5.7,1-8.5,1.6c-1.7,0.4-3.4,0.8-5.1,1.3c-0.1-1.2-0.8-7.8,0.6-16.7l20.4-5.8
			c-0.2,3.4-0.3,10.9,1.7,18.1l0.1,0.2C384.6,382,384.4,382.1,384.2,382.1z M387.3,381.7c0.1-0.2,0.1-0.5,0-0.7
			c-1.7-6.1-1.8-12.6-1.6-16.2c1.3,1.2,3.2,2.8,5,4.1c0.1,1.9,0.6,7.2,3,12.2C391.5,381.3,389.4,381.5,387.3,381.7z M450,381.1
			c-0.1,0.2-0.1,0.5,0,0.7c-2.1-0.2-4.3-0.4-6.4-0.6c2.4-5,2.9-10.4,3-12.2c1.8-1.3,3.7-2.9,5-4.1C451.8,368.4,451.7,375,450,381.1z
			 M475.2,386.2c-1.7-0.5-3.4-0.9-5.1-1.3c-5.6-1.2-11.3-2.2-17.1-2.8c-0.2,0-0.4,0-0.6-0.1l0.1-0.3c2-7.1,1.9-14.6,1.7-18.1
			l20.4,5.8C476,378.4,475.4,385,475.2,386.2z"/>
		<path fill="#E2E1D4" d="M409.9,341.7h2.7v22.8h-4.1v12.8h20.9v-12.8h-4.1v-22.8h2.7v4.9h12v-16.9H398v16.9h12V341.7z M406.3,343.1
			h-4.8v-9.7h29.7h5.2v9.7h-4.8v-4.9h-9.9v30h4.1v5.6h-13.8v-5.6h4.1v-30h-9.9V343.1z"/>
		<path fill="#E2E1D4" d="M510.2,384.4c-0.1-1.4-0.2-2.9-0.4-4.3c-0.1-0.7-0.2-1.4-0.4-2.2c-0.1-0.7-0.3-1.4-0.5-2.2l-0.2-0.6
			l-0.4-0.3c-2.3-1.8-4.7-3.1-7.2-4.3c-2.1-1-4.2-1.8-6.3-2.6c-5.9-16.4-16-30.9-29.4-41c-13.8-10.5-30-16-46.9-16
			s-33.1,5.5-46.9,16c-13.3,10.1-23.5,24.6-29.4,41c-2.1,0.8-4.2,1.6-6.3,2.6c-2.5,1.2-5,2.5-7.2,4.3l-0.4,0.3l-0.2,0.6
			c-0.2,0.8-0.4,1.5-0.5,2.2c-0.1,0.7-0.3,1.4-0.4,2.2c-0.2,1.4-0.3,2.9-0.4,4.3c-0.1,2.9-0.1,5.8,0.3,8.7c0.3,2.9,0.8,5.7,1.6,8.5
			c0.4,1.4,0.9,2.8,1.4,4.2c0.3,0.7,0.6,1.4,0.9,2.1c0.2,0.3,0.3,0.7,0.5,1l0.3,0.5c0.1,0.2,0.2,0.3,0.3,0.6l0.3,0.5l0.5,0.2
			c0.5,0.3,0.9,0.4,1.3,0.6l1.3,0.6c0.2,0.1,0.5,0.2,0.7,0.3c-5.8,5.4-12.2,12.4-17.7,21.1l-7,11l9.8-8.6c0.2-0.1,8.3-7.2,22-15.2
			l0.2,1.6c-0.9,0.5-5.2,2.7-6.5,3.8c-2.1,1.8-2.2,4.5-1.6,9.6c0.3,2.6,1.3,7.7,2.6,12.3c2.3,8,3.9,9.4,5.4,9.7
			c0.7,0.2,1.5,0.2,2.5,0.2c2.6,0,6-0.5,8.1-1.2c2.6,8,6.2,15.2,10.6,21.5c-0.2,0.1-0.4,0.1-0.6,0.2c-2.7-1.2-12-5.5-15.1-6.9
			l-6.5-2.9l3.9,6c0.3,0.4,6.9,10.8,12.4,17.8c5.1,6.5,12.1,13.2,25.2,13.2c1.6,0,3.2-0.1,4.9-0.3c3.9-0.4,6.9-0.8,9.1-1.1
			c13.8,5.1,29.1,5.4,43.5-0.1c4-1.5,7.6-3.3,10.9-5.4l0.2,0c5.4-1.3,11.5-2.7,14.5-3.6c0.5-0.1,1.1-0.3,1.7-0.4
			c4.2-1,11.2-2.6,15-10.1c3.8-7.6,9.9-19.1,10-19.2l2.9-5.4l-5.6,2.4c-0.3,0.1-7.4,3.2-11.1,5.2c-0.1,0.1-0.3,0.1-0.4,0.2
			c3-6.1,4.5-11,5-12.9c2.1,0.5,5.1,0.4,7.4,0.4c1.1,0,2.2-0.2,3-0.4c1.5-0.4,2.6-1.3,4.7-9.6c1.2-4.8,2.1-10,2.4-12.7
			c0.5-5.2,0.3-8-1.8-9.8c-1.1-0.9-4.2-2.5-5.7-3.4l0.1-0.6c0.8,0.2,1.2,0.3,1.3,0.3l1.4-5.4c0.5-0.2,1-0.4,1.6-0.7
			c0.9-0.3,1.7-0.7,2.6-1.1l1.3-0.6c0.4-0.2,0.8-0.4,1.3-0.6l0.5-0.2l0.3-0.5c0.2-0.2,0.2-0.4,0.3-0.6l0.3-0.5
			c0.2-0.3,0.4-0.7,0.5-1c0.3-0.7,0.6-1.4,0.9-2.1c0.5-1.4,1-2.8,1.4-4.2c0.8-2.8,1.3-5.7,1.6-8.5
			C510.3,390.2,510.3,387.3,510.2,384.4z M329.4,425c11.4-13.7,28-24.1,32.4-26.7c0.5-0.1,0.9-0.1,1.4-0.2c1.6-0.2,3.3-0.3,5-0.4
			c3.3-0.3,6.6-0.5,10-0.7c5.7-0.3,11.5-0.6,17.3-0.8c-4,0.8-7.9,1.7-11.7,2.8C359.8,405.7,340.5,417.3,329.4,425z M342.3,403.3
			c1.7-0.4,4.1-0.9,7-1.5c-1.8,1.2-3.9,2.7-6.2,4.6L342.3,403.3z M377.7,413.1c-1,1.2-2,2.5-2.9,3.8l-5.6,8.1l8.2-5.5
			c0.1-0.1,5.3-3.5,13.9-7.7c8.5-0.6,17.9-1.1,28-1.1c2.5,0,4.9,0,7.2,0.1c-1.7,1.3-3.4,2.6-5.2,3.7l-6,3.7
			c-3.8,0.5-7.1,1.4-7.3,1.5l-0.3,0.1c-0.3,0.2-0.5,0.5-0.6,0.8l-6.2,20.3l-32.9,7.3l-10.4-7.3l-3-24.4
			C360.4,415.4,368.2,414.1,377.7,413.1z M360.1,411.7c9.1-4.2,19.6-8.1,30.9-10.7c-2.9,2.1-6.3,4.7-9.5,7.9
			C373.3,409.7,366.1,410.7,360.1,411.7z M422.3,418c0.7,0,12-1.4,25.6-6.1c15,1.2,27.2,3,35.6,4.5l-3,20.8l-10.5,7.3l-32.9-3.7
			l-6.1-20.2c-0.1-0.4-0.5-0.8-0.9-0.9c-0.2-0.1-4.3-1.2-8.6-1.6L422.3,418z M429.4,413.2c6.3-5.2,11.1-11.3,13.6-14.6
			c0.8-1,1.3-1.8,1.6-2.2c4.5,0.2,9,0.4,13.6,0.7c3.3,0.2,6.5,0.4,9.8,0.6l0,0c-0.3,0.2-0.7,0.5-1,0.7
			C453.6,407.7,438.2,411.6,429.4,413.2z M438.2,398.6c-1.9,2.4-4.6,5.5-7.7,8.6c-3.7-0.1-7.4-0.2-11.3-0.2
			c-6.4,0-12.6,0.2-18.4,0.5c8.2-3.4,18.2-6.8,28.9-8.8c3.1-0.6,6.3-1.1,9.6-1.4C439,397.7,438.6,398.2,438.2,398.6z M413.8,398.8
			c-11.9,3.7-22,8.4-28.9,12c7.7-7.4,15.9-11.5,16.8-11.9l0.1,0l6.2-2.9c3.4-0.1,6.7-0.1,10.1-0.1h0c2.3,0,4.6,0,6.9,0.1
			C421.1,396.7,417.4,397.7,413.8,398.8z M344.7,453.7c-1.6-1.6-4.6-12.9-5.3-18.8c-0.5-4.8-0.2-5.9,0.3-6.3
			c0.6-0.5,2.7-1.7,4.6-2.7l2.5,20.3c0.1,0.4,0.3,0.7,0.6,1l5.1,3.6c0.2,0.7,0.4,1.4,0.6,2.1C350.9,453.4,346.6,454,344.7,453.7z
			 M421.8,504.5c-5.4,0.4-10.9-0.3-16.3-1.8c0.5-0.1,0.8-0.1,1.2-0.2c0.4-0.1,10.1-1.3,14.5-7.8l0.4,0l1.1,0c0.7,0,1.4-0.1,2.1-0.1
			c1.6-0.1,3.3-0.4,4.8-0.7c0.2,0.2,0.3,0.3,0.5,0.5c3.3,3.2,7.3,5.1,11.8,5.4C434.3,503,427.2,504.2,421.8,504.5z M422.3,492.6
			c0.8-1.8,1.4-3.2,1.9-4.3c1,1.1,2.2,2.4,3.5,3.8c-1.1,0.2-2.1,0.3-3.2,0.4c-0.7,0-1.4,0.1-2,0.1H422.3z M482,471
			c1.4-0.7,3.3-1.6,5.2-2.5c-2.1,4.1-5,9.6-7.1,13.9c-2.8,5.7-8.2,6.9-12.1,7.8c-0.7,0.2-1.3,0.3-1.9,0.5c-2.9,0.8-9,2.3-14.3,3.5
			c-1.5,0.4-2.9,0.7-4.3,1c-1.4,0.3-2.9,0.5-4.2,0.5c-4,0-7.4-1.4-10.3-4.3c-4.3-4.3-7.8-8.4-7.8-8.5l-1.6-1.9l0.2-0.2
			c-0.3-0.2-0.6-0.5-0.9-0.7l0,0l0,0c-0.2,0.2-0.4,0.4-0.6,0.6l0.3,0.2l-1,2.6c0,0.1-0.6,1.5-3.3,7.6c-2.6,5.9-12.1,7.1-12.1,7.2
			c-0.5,0.1-1,0.1-1.5,0.2c-1.6,0.3-4.6,0.8-16,2.1c-1.5,0.2-3.1,0.3-4.5,0.3c-11.3,0-17.2-5.6-21.9-11.6c-2.7-3.4-5.7-7.8-8.1-11.3
			c4.4,2,8.9,4.1,9,4.2l0.7,0.3l0.8-0.2c11.7-3.3,22.8-6.9,22.9-7l0.7-0.2l0.4-0.7c6.4-10.1,11.4-12.5,12.3-12.6
			c0.7,0,1.4-0.1,2.2-0.1c8.9,0,16.4,2.8,16.5,2.8l0.7,0.3l0.7-0.2c11.4-3.5,16.5-5.1,18.3-5.1c0.4,0,0.4,0,0.9,0.5
			c0.2,0.2,0.4,0.3,0.6,0.5c5.6,4.4,12.4,9.9,12.5,9.9l0.5,0.4l0.6,0.1c0.1,0,7.9,0.9,12.6,1.4c2.3,0.2,4.4,0.4,6.6,0.4
			C477.1,472.7,479.9,472.1,482,471z M482.1,451.8c-1.9,6.2-4.2,11.7-6.8,16.5c-0.6,0-1.2,0.1-1.8,0.1c-2,0-4-0.2-6.2-0.4
			c-3.8-0.4-9.9-1-11.9-1.3c-1.7-1.3-7.3-5.8-12-9.5c-0.2-0.2-0.3-0.3-0.5-0.4c-0.8-0.7-1.8-1.5-3.7-1.5c-1.7,0-4.3,0.6-10.4,2.5
			c3.2-2.4,3.2-5.5,3.2-5.5s-4.5,4.2-11.9,5.2c-7.3,0.9-13.1-3.6-13.1-3.6c0.2,0.8,0.6,2.5,2.2,4.1c-2-0.2-4.1-0.4-6.3-0.4
			c-0.8,0-1.6,0-2.4,0.1c-4.5,0.2-10.8,7-15.3,13.9c-2.2,0.7-9,2.9-16.9,5.2c-7.4-10.2-11-20.7-11.4-21.8l0,0
			c-0.2-0.4-0.3-0.8-0.4-1.3l1.9,1.3v0l4.7,3.3l1.6,1.1c0.2,0.2,0.5,0.3,0.8,0.3l0.3,0l43.1-9.6c0.5-0.1,0.9-0.5,1-0.9l6.1-20.2
			c1.1-0.1,2-0.2,2.8-0.2c0.8,0,1.7,0.1,2.8,0.2l6.3,20.8c0.2,0.5,0.6,0.9,1.2,1l2.9,0.3l40.4,4.6c0.3,0,0.7-0.1,0.9-0.2l4.1-2.8
			l3.8-2.6l1.4-1C482.6,449.9,482.3,450.9,482.1,451.8z M472.4,452.8l-42-4.8l-6.3-20.8c-0.1-0.5-0.6-0.9-1.1-1
			c-1.6-0.3-2.9-0.4-4.1-0.4c-1.2,0-2.5,0.1-4.1,0.4c-0.5,0.1-0.9,0.5-1.1,1l-6.2,20.3l-41.7,9.3l-16.5-11.6l-3.3-26.4
			c0.7-0.4,1.4-0.8,2.2-1.2c1-0.2,2.2-0.5,3.5-0.7l3.1,24.9c0.1,0.4,0.3,0.7,0.6,1l11.4,8c0.2,0.2,0.5,0.2,0.8,0.2l0.3,0l34.3-7.6
			l0.3-0.1c0.3-0.2,0.6-0.5,0.7-0.8l6.2-20.3c1.7-0.4,5.9-1.4,9.6-1.4c3.7,0,8,1,9.6,1.4l6.2,20.3c0.2,0.5,0.6,0.9,1.2,1l34.3,3.9
			c0.3,0,0.7-0.1,0.9-0.2l11.4-8c0.3-0.2,0.5-0.6,0.6-0.9l3-21.3c2.3,0.4,4.2,0.8,5.7,1.2l-3.4,23.5L472.4,452.8z M497.8,425.5
			c0.5,0.4,0.9,1.5,0.5,6.5c-0.5,6.1-3.1,16.9-4.7,18.7c-1.8,0.3-5.5-0.1-7.7-0.6c0.4-1.5,0.5-2.3,0.8-3.9l3.9-2.8
			c0.3-0.2,0.5-0.6,0.6-0.9l2.8-19.3C495.6,424.1,497.3,425.1,497.8,425.5z M493.2,414.5c-6-1.3-19.3-3.9-37.4-5.7
			c5.9-2.5,11.9-5.7,17.4-9.6c10.7,1.5,18.6,3.1,22.9,4.1L493.2,414.5z M505.8,392.5c-0.4,2.7-0.9,5.3-1.6,7.9
			c-0.4,1.3-0.8,2.6-1.2,3.8c-0.2,0.6-0.5,1.2-0.8,1.8c-0.1,0.3-0.3,0.6-0.4,0.9l-0.2,0.3c-0.2,0.1-0.4,0.2-0.6,0.3l-1.2,0.6
			c-0.4,0.2-0.9,0.4-1.3,0.6l2.1-8c-0.5-0.1-5.1-1.3-13.1-2.8c0.2-0.1,0.5-0.1,0.7-0.2c1.7-0.4,3.3-0.9,4.9-1.6
			c0.8-0.3,1.6-0.7,2.3-1.1c0.7-0.4,1.5-0.9,2-1.5c-8,2.6-24.4,1.4-39.1-0.1c-13.4-1.4-26.8-2.3-40.3-2.3c-13.5,0-26.9,0.9-40.3,2.3
			c-14.6,1.5-31.1,2.7-39.1,0.1c0.6,0.6,1.3,1.1,2,1.5c0.7,0.4,1.5,0.8,2.3,1.1c1.6,0.6,3.2,1.1,4.9,1.6c0.6,0.1,1.2,0.3,1.8,0.4
			c-7.3,1.4-11.5,2.5-11.9,2.6l2.2,8.4l-0.1,0.1c-0.8-0.3-1.7-0.8-2.3-1.1l-1.2-0.6c-0.2-0.1-0.4-0.2-0.6-0.3l-0.2-0.3
			c-0.1-0.3-0.3-0.6-0.4-0.9c-0.3-0.6-0.5-1.2-0.8-1.8c-0.5-1.2-0.9-2.5-1.2-3.8c-0.7-2.6-1.2-5.2-1.6-7.9c-0.3-2.7-0.5-5.4-0.5-8
			c0-1.3,0.1-2.7,0.2-4c0.1-0.7,0.1-1.3,0.2-2c0.1-0.5,0.1-1,0.2-1.4c1.8-1.5,3.8-2.8,5.9-4c2.3-1.3,4.7-2.5,7.1-3.6
			c2.4-1.1,4.9-2.2,7.4-3.2c1.3-0.5,2.5-1,3.8-1.5c1.3-0.5,2.5-0.9,3.8-1.4c-2.7,0.4-5.3,1.1-8,1.7c-1.7,0.4-3.4,0.9-5.1,1.5
			c12-31.4,40.7-51.9,72.1-51.9c31.4,0,60.1,20.5,72.1,51.9c-1.7-0.5-3.4-1-5.1-1.5c-2.6-0.7-5.3-1.3-8-1.7c1.3,0.5,2.5,0.9,3.8,1.4
			c1.3,0.5,2.5,1,3.8,1.5c2.5,1,5,2,7.4,3.2c2.4,1.1,4.8,2.3,7.1,3.6c2.1,1.2,4.1,2.5,5.9,4c0.1,0.5,0.2,0.9,0.2,1.4
			c0.1,0.7,0.2,1.3,0.2,2c0.1,1.3,0.2,2.7,0.2,4C506.3,387.2,506.2,389.9,505.8,392.5z"/>
	</g>
	<g>
		<polyline fill="#E2E1D4" points="240.2,537.9 217.5,537.9 217.5,526.1 276.8,526.1 276.8,537.9 254.2,537.9 254.2,604.7 
			240.2,604.7 240.2,537.9 		"/>
		<path fill="#E2E1D4" d="M275.5,545.7h11.4l1,10.5h0.5c4.2-7.7,10.5-11.9,16.7-11.9c3,0,4.9,0.4,6.7,1.2l-2.4,12
			c-2-0.6-3.6-1-6.1-1c-4.7,0-10.3,3.2-13.9,12.1v36.1h-13.8V545.7"/>
		<path fill="#E2E1D4" d="M349.5,567c-0.1-6.2-2.8-11.5-10.7-11.5c-5.9,0-11.4,2.6-16.6,5.8l-5-9.3c6.5-4.1,14.8-7.7,24.2-7.7
			c14.8,0,22,9,22,25.5v35h-11.3l-1.1-6.5h-0.4c-5.3,4.4-11.3,7.9-18.3,7.9c-10.3,0-17.5-7-17.5-17.3
			C314.8,576.2,325.4,569.6,349.5,567 M336.7,595.3c4.8,0,8.5-2.4,12.9-6.5v-13.2c-16,2-21.3,6.2-21.3,12.1
			C328.3,593.1,331.8,595.3,336.7,595.3z"/>
		<path fill="#E2E1D4" d="M367.3,545.7h14.1l9.4,30.6c1.6,5.8,3.4,11.8,4.9,17.8h0.5c1.7-6,3.4-12,5-17.8l9.4-30.6h13.3l-20.1,59
			h-16L367.3,545.7"/>
		<path fill="#E2E1D4" d="M429.1,527.6c0-4.7,3.6-7.9,8.5-7.9c4.9,0,8.5,3.2,8.5,7.9c0,4.6-3.6,7.8-8.5,7.8
			C432.7,535.4,429.1,532.1,429.1,527.6 M430.7,545.7h13.8v59h-13.8V545.7z"/>
		<path fill="#E2E1D4" d="M458.9,589.1c5.3,4.1,10.3,6.6,16.3,6.6c6.4,0,9.4-3,9.4-7.1c0-4.9-6.4-7.1-12.6-9.5
			c-7.8-2.9-16.6-7.3-16.6-17.2c0-10.3,8.3-17.7,21.5-17.7c8.2,0,14.8,3.4,19.6,7.1l-6.4,8.4c-4.1-3-8.3-5-13-5
			c-5.9,0-8.7,2.8-8.7,6.5c0,4.6,5.9,6.5,12.3,8.8c8.1,3,16.9,6.9,16.9,17.9c0,10.1-8.1,18.3-23,18.3c-8.1,0-16.6-3.5-22.4-8.2
			L458.9,589.1"/>
		<path fill="#E2E1D4" d="M565.5,524.7c9.6,0,17.4,4.7,22.4,10l-7.7,8.7c-4.1-4-8.5-6.5-14.5-6.5c-12.9,0-22.1,10.8-22.1,28.5
			c0,17.9,8.5,28.7,21.6,28.7c7,0,12.1-2.9,16.6-7.8l7.7,8.5c-6.4,7.3-14.5,11.4-24.5,11.4c-19.9,0-35.7-14.4-35.7-40.5
			C529.2,539.9,545.3,524.7,565.5,524.7"/>
		<rect x="597.9" y="526.1" fill="#E2E1D4" width="13.9" height="78.6"/>
	</g>
</g>
</svg>
