<?xml version="1.0" encoding="utf-8"?>
<!-- Generator: Adobe Illustrator 17.1.0, SVG Export Plug-In . SVG Version: 6.00 Build 0)  -->
<!DOCTYPE svg PUBLIC "-//W3C//DTD SVG 1.1//EN" "http://www.w3.org/Graphics/SVG/1.1/DTD/svg11.dtd">
<svg version="1.1" id="Layer_1" xmlns="http://www.w3.org/2000/svg" xmlns:xlink="http://www.w3.org/1999/xlink" x="0px" y="0px"
	 viewBox="0 0 182.1 27.3" enable-background="new 0 0 182.1 27.3" xml:space="preserve">
<g>
	<g>
		<path fill="#392E2B" d="M30,15.8c0.8-3.4,1.3-6,1.8-8s1-4.6,1.7-7.7h5.2l-6.1,27.3h-5.2L21.3,0h5.2c0.7,3.2,1.3,5.8,1.7,7.7
			S29.2,12.4,30,15.8z"/>
		<path fill="#392E2B" d="M46.2,27.3h-5.1V14.6l-1.1-1l1.1-1V0h5.1v12.7l1,1l-1,1V27.3z"/>
		<path fill="#392E2B" d="M61.8,27.3H48.6V14.6l-1.1-1l1.1-1V0h13.1v5h-8v6.1h6.9v5.1h-6.9v6.1h8.1V27.3z"/>
		<path fill="#392E2B" d="M64.2,14.6l-1-1l1-1V14.6z M80.4,27.3H75l-4.3-11.1h-1.5v11.1h-5.1V0h12.1l3.2,2.9v10l-3.4,3.2L80.4,27.3z
			 M69.2,11.1h5.2V5h-5.2V11.1z"/>
		<path fill="#392E2B" d="M93.4,27.3L87.9,13v14.3h-5V14.6l-1.1-1l1.1-1V0h5.4l5.5,14.3V0h5v12.7l1.1,1l-1.1,1v12.6l0,0H93.4z"/>
		<path fill="#392E2B" d="M114.4,27.3h-13.2V14.6l-1.1-1l1.1-1V0h13.1v5h-8v6.1h6.9v5.1h-6.9v6.1h8.1V27.3z"/>
		<path fill="#392E2B" d="M132.1,24.5l-3.2,2.9h-8.7l-3.3-2.9v-4.4h5v2.2h5.1v-6.1h-6.9l-3.3-2.9V2.9l3.3-2.9h8.7l3.2,2.9v4.2h-5V5
			h-5.1v6.1h6.9l3.2,2.9V24.5z"/>
		<path fill="#392E2B" d="M158.4,24.5l-3.2,2.9h-8.8l-3.2-2.9v-9.8l-1.1-1l1.1-1V2.9l3.2-2.9h8.7l3.2,2.9v4.2h-5.1V5h-5.1v6.1h7
			l3.2,2.8V24.5z M153.3,22.3v-6.1h-5.1v6.1H153.3z"/>
	</g>
	<polygon fill="#716259" points="7.5,4.5 9.9,9.2 15.1,9.9 11.3,13.6 12.2,18.8 7.5,16.4 2.9,18.8 3.8,13.6 0,9.9 5.2,9.2 	"/>
	<polygon fill="#716259" points="174.5,4.5 176.9,9.2 182.1,9.9 178.3,13.6 179.2,18.8 174.5,16.4 169.9,18.8 170.8,13.6 167,9.9 
		172.2,9.2 	"/>
</g>
</svg>
