<?xml version="1.0" encoding="utf-8"?>
<!-- Generator: Adobe Illustrator 17.1.0, SVG Export Plug-In . SVG Version: 6.00 Build 0)  -->
<!DOCTYPE svg PUBLIC "-//W3C//DTD SVG 1.1//EN" "http://www.w3.org/Graphics/SVG/1.1/DTD/svg11.dtd">
<svg version="1.1" id="Capa_1" xmlns="http://www.w3.org/2000/svg" xmlns:xlink="http://www.w3.org/1999/xlink" x="0px" y="0px"
	 viewBox="131.5 846.7 5406.2 2622.1" enable-background="new 131.5 846.7 5406.2 2622.1" xml:space="preserve">
<g>
	<g>
		<defs>
			<path id="SVGID_1_" d="M777.6,2169.4c-58.5,88.6-87.8,211.1-87.8,367.4c0,75.7,7.3,143.4,22,203c14.6,59.6,35.5,110,62.8,151.1
				c27.2,41.1,60.8,72.5,100.6,94.3c39.8,21.8,85.3,32.6,136.5,32.6c87.8,0,175.9-40.6,264.5-121.9l-29.3,510.1
				c-113,41.9-214.1,62.8-303.5,62.8c-210.5,0-387.6-74.6-531.5-223.6C251,3078,170.6,2841.4,170.6,2535.4
				c0-286.4,75.6-516.3,226.7-689.8c151.2-172.6,353.1-258.9,605.8-258.9c82.1,0,165.8,14.8,251.1,44.4v520
				c-75.6-75.6-153.2-113.4-232.8-113.4C917.4,2037.7,836.1,2081.6,777.6,2169.4L777.6,2169.4z M2662.2,3209.8
				c-130,172.6-299.5,259-508.3,259c-185.3,0-344.2-66.3-476.6-198.9c-166.6-167.9-249.9-419.8-249.9-755.7
				c0-321.7,87-567.7,260.9-738c129.2-126.3,282.4-189.5,459.6-189.5c217,0,389.6,85.5,518.1,256.6
				c128.4,171.1,192.6,401.4,192.6,690.9C2858.4,2811.2,2793,3036.4,2662.2,3209.8L2662.2,3209.8z M2150.2,2037.7
				c-60.1,0-108.1,43.8-143.8,131.5c-35,81.3-52.4,200.8-52.4,358.6c0,155.4,16.5,275.9,49.4,361.5
				c32.9,85.7,78.6,128.5,137.1,128.5c60.1,0,106.5-42.2,139-126.7c34.1-84.4,51.2-202,51.2-352.6
				C2330.6,2204.6,2270.5,2037.7,2150.2,2037.7L2150.2,2037.7z M4143.2,3251.8c-132.5,144.7-329.9,217-592.4,217h-475.4V1586.7
				h438.8c251.1,0,446.5,67.5,586.3,202.4c183.6,176.3,275.5,423,275.5,739.9C4376.1,2841,4298.5,3081.9,4143.2,3251.8
				L4143.2,3251.8z M3787.3,2191.3c-46.3-87.8-108.9-131.6-187.7-131.6h-15.9v958.1c182-8.9,273-165.8,273-470.5
				C3856.8,2396.9,3833.6,2278.2,3787.3,2191.3L3787.3,2191.3z M5537.8,3017.7v451h-944.7V1586.7h944.7v451h-436.4v240.1h391.3v451
				h-391.3v288.9H5537.8L5537.8,3017.7z"/>
		</defs>
		<use xlink:href="#SVGID_1_"  overflow="visible" fill="#938D84"/>
		<clipPath id="SVGID_2_">
			<use xlink:href="#SVGID_1_"  overflow="visible"/>
		</clipPath>
	</g>
	<path fill="#938D84" d="M664.9,1485.8l-144.3-397.7L370,1486.2L131.5,888.9h92l146.1,375.2l152.7-402.5l146.2,402.5l155.2-375.2h92
		L664.9,1485.8L664.9,1485.8z M1432.3,1375.7c-57.9,56.5-127.8,84.7-209.8,84.7c-72.5,0-137.6-25.1-195.2-75.3
		c-63.5-55.5-95.3-128.2-95.3-218.1c0-79,29-146.9,86.9-203.6c57.7-56.7,127-85.1,208-85.1c80,0,148.6,28.6,205.8,85.8
		c57.5,57.2,86.2,125.9,86.2,206.1C1518.8,1251,1490,1319.5,1432.3,1375.7L1432.3,1375.7z M1373.4,1019c-39.7-40.7-88.9-61-147.6-61
		c-58.4,0-107.7,20.3-148,61c-40.2,40.2-60.4,89.8-60.4,148.9c0,62,20.8,113,62.5,152.9c41.5,40,89.3,59.9,143.6,59.9
		c58.9,0,108.6-20.3,149.1-61c40.5-41.2,60.7-91.3,60.7-150.4C1433.4,1109.6,1413.4,1059.4,1373.4,1019L1373.4,1019z M2135.4,1450.2
		l-54.2-338.8L1915.1,1476l-161.4-365l-60.3,339.2h-87.6l118.2-603.5l192.7,436.3l199.6-436.3l106.2,603.5H2135.4L2135.4,1450.2z
		 M2651,1370.6v79.6h-309.7V888.9H2651v79.6h-225v134.9h218.5v79.6h-218.5v187.6H2651L2651,1370.6z M2846.9,1057.2v393h-84.7V850.7
		l409.4,428.3V888.9h84.7v595.5L2846.9,1057.2L2846.9,1057.2z M4089.6,1485.8l-144.3-397.7l-150.5,398.1l-238.5-597.3h92
		l146.2,375.2l152.7-402.5l146.1,402.5l155.2-375.2h92L4089.6,1485.8L4089.6,1485.8z M4751.9,1450.2v-262.1h-242.1v262.1h-84.7
		V888.9h84.7v219.6h242.1V888.9h84.7v561.3H4751.9L4751.9,1450.2z M5443.4,1375.7c-57.9,56.5-127.8,84.7-209.8,84.7
		c-72.5,0-137.5-25.1-195.2-75.3c-63.5-55.5-95.3-128.2-95.3-218.1c0-79,29-146.9,86.9-203.6c57.7-56.7,127-85.1,207.9-85.1
		c80,0,148.6,28.6,205.8,85.8c57.4,57.2,86.2,125.9,86.2,206.1C5530,1251,5501.1,1319.5,5443.4,1375.7L5443.4,1375.7z M5384.5,1019
		c-39.8-40.7-89-61-147.6-61c-58.4,0-107.7,20.3-148,61c-40.2,40.2-60.3,89.8-60.3,148.9c0,62,20.8,113,62.5,152.9
		c41.4,40,89.3,59.9,143.6,59.9c58.9,0,108.6-20.3,149.1-61c40.5-41.2,60.7-91.3,60.7-150.4
		C5444.5,1109.6,5424.5,1059.4,5384.5,1019L5384.5,1019z"/>
</g>
</svg>
