<?xml version="1.0" encoding="utf-8"?>
<!-- Generator: Adobe Illustrator 16.0.0, SVG Export Plug-In . SVG Version: 6.00 Build 0)  -->
<!DOCTYPE svg PUBLIC "-//W3C//DTD SVG 1.1//EN" "http://www.w3.org/Graphics/SVG/1.1/DTD/svg11.dtd">
<svg version="1.1" id="Capa_1" xmlns="http://www.w3.org/2000/svg" xmlns:xlink="http://www.w3.org/1999/xlink" x="0px" y="0px"
	 width="332px" height="114.36px" viewBox="0 0 332 114.36" enable-background="new 0 0 332 114.36" xml:space="preserve">
<rect x="104.534" y="52.258" width="124.668" height="62.103"/>
<rect x="109.365" y="52.664" fill="#F6B540" width="115.006" height="57.289"/>
<g>
	<g>
		<polygon fill="#D9DADB" points="245.871,74.651 245.871,67.356 86.63,67.356 86.63,74.651 14.723,74.651 30.584,48.354 
			14.723,22.055 45.961,22.055 45.961,2.126 286.35,2.126 286.35,22.055 317.245,22.055 304.556,48.354 317.245,74.651 		"/>
		<path d="M284.224,4.252v19.929h29.151l-11.34,24.172l11.34,24.173h-65.377v-7.294H84.503v7.294H19.125l14.174-24.173
			L19.125,24.181h28.962V4.252H284.224 M288.477,0H43.836v19.927H10.322L27.87,48.353L10.322,76.776h78.434v-7.294h154.987v7.294
			h77.367l-14.036-28.424l14.036-28.424h-32.636V0H288.477L288.477,0z"/>
	</g>
	<polygon fill="#B0B4B7" points="84.503,72.525 84.503,24.182 19.125,24.182 33.299,48.354 19.125,72.525 	"/>
	<polygon fill="#B0B4B7" points="313.376,24.182 247.998,24.182 247.998,72.525 313.376,72.525 302.036,48.354 	"/>
	<polygon points="43.786,22.574 43.786,67.846 74.483,74.793 86.091,73.918 51.066,22.574 	"/>
	<polygon points="288.488,22.434 288.488,67.705 257.791,74.651 246.186,73.776 281.209,22.434 	"/>
	<polygon fill="#8B8B8B" points="284.224,4.252 284.224,65.231 247.998,72.525 247.853,24.182 	"/>
	<polygon fill="#8B8B8B" points="48.086,4.252 48.086,65.231 84.458,72.525 84.458,24.182 	"/>
	<rect x="48.086" y="4.252" fill="#FFFFFF" width="236.137" height="60.979"/>
</g>
<g>
	<path d="M131.249,80.953c0.729,0,1.367,0.064,1.914,0.195s1.017,0.305,1.411,0.521c0.394,0.217,0.721,0.475,0.981,0.768
		c0.26,0.293,0.465,0.601,0.615,0.923c0.15,0.321,0.255,0.651,0.317,0.991c0.062,0.339,0.093,0.664,0.093,0.977
		c0,0.469-0.041,0.898-0.122,1.289s-0.229,0.742-0.444,1.055c-0.215,0.313-0.504,0.586-0.869,0.82
		c-0.365,0.234-0.83,0.43-1.396,0.586c0.469,0.156,0.895,0.345,1.279,0.566c0.384,0.221,0.713,0.5,0.986,0.834
		c0.273,0.336,0.485,0.744,0.635,1.227s0.225,1.064,0.225,1.748c0,0.734-0.114,1.409-0.342,2.021
		c-0.228,0.611-0.557,1.138-0.986,1.576c-0.429,0.439-0.954,0.783-1.572,1.03c-0.618,0.247-1.318,0.371-2.1,0.371h-4.375V80.953
		H131.249z M129.999,88.453h1.25c0.208,0,0.43-0.013,0.664-0.039c0.234-0.025,0.467-0.076,0.698-0.15
		c0.231-0.076,0.454-0.184,0.669-0.322c0.215-0.139,0.402-0.325,0.562-0.557c0.16-0.232,0.288-0.516,0.386-0.851
		s0.146-0.737,0.146-1.206c0-0.625-0.111-1.105-0.332-1.445c-0.221-0.339-0.527-0.586-0.918-0.742
		c-0.391-0.155-0.853-0.246-1.387-0.272c-0.534-0.026-1.113-0.039-1.738-0.039V88.453z M129.999,96.578h1.25
		c0.469,0,0.895-0.046,1.279-0.137c0.384-0.092,0.713-0.254,0.986-0.488s0.485-0.554,0.635-0.957
		c0.15-0.402,0.225-0.918,0.225-1.543s-0.075-1.141-0.225-1.543c-0.15-0.403-0.361-0.723-0.635-0.957s-0.602-0.396-0.986-0.488
		c-0.384-0.091-0.811-0.137-1.279-0.137h-1.25V96.578z"/>
	<path d="M144.062,98.639c-0.729,0-1.359-0.086-1.89-0.259c-0.531-0.173-0.981-0.409-1.353-0.713
		c-0.372-0.303-0.67-0.661-0.898-1.073c-0.228-0.414-0.405-0.857-0.532-1.334c-0.127-0.476-0.213-0.974-0.259-1.494
		c-0.046-0.52-0.068-1.041-0.068-1.562V80.953h2.5V92.21c0,0.313,0.003,0.64,0.01,0.978c0.007,0.34,0.034,0.67,0.083,0.992
		c0.049,0.322,0.122,0.631,0.22,0.924s0.239,0.549,0.425,0.768c0.186,0.218,0.421,0.393,0.708,0.521
		c0.287,0.131,0.638,0.195,1.055,0.195s0.768-0.064,1.055-0.195c0.287-0.131,0.522-0.305,0.708-0.521
		c0.186-0.219,0.327-0.475,0.425-0.768s0.171-0.602,0.22-0.924c0.049-0.322,0.077-0.652,0.083-0.992
		c0.006-0.338,0.01-0.663,0.01-0.978V80.953h2.5v11.25c0,0.521-0.023,1.042-0.068,1.562c-0.045,0.52-0.132,1.019-0.259,1.494
		c-0.127,0.475-0.304,0.92-0.532,1.332c-0.228,0.413-0.527,0.771-0.898,1.074c-0.371,0.303-0.822,0.54-1.353,0.713
		C145.423,98.553,144.791,98.639,144.062,98.639z"/>
	<path d="M154.687,98.453v-5.625l-3.75-11.875h2.5l2.504,8.75l2.496-8.75h2.232l-3.482,11.875v5.625H154.687z"/>
	<path d="M175.027,98.453l-4.473-11.643v11.643h-2.5v-17.5h1.641l4.609,11.426V80.953h2.5v17.5H175.027z"/>
	<path d="M188.993,92.828c0,0.781-0.081,1.523-0.244,2.227c-0.163,0.705-0.437,1.318-0.819,1.847
		c-0.384,0.528-0.897,0.946-1.539,1.26c-0.641,0.313-1.439,0.469-2.396,0.469c-0.651,0-1.229-0.071-1.729-0.215
		c-0.502-0.144-0.938-0.342-1.305-0.596s-0.679-0.56-0.934-0.918c-0.254-0.358-0.457-0.752-0.609-1.183
		c-0.152-0.43-0.262-0.889-0.327-1.377s-0.098-0.992-0.098-1.514v-6.25c0-0.521,0.032-1.025,0.098-1.514
		c0.066-0.489,0.175-0.947,0.327-1.377c0.152-0.431,0.355-0.823,0.609-1.183c0.255-0.358,0.565-0.663,0.934-0.918
		c0.368-0.254,0.803-0.452,1.305-0.596c0.5-0.144,1.076-0.215,1.729-0.215c0.957,0,1.757,0.155,2.396,0.469
		c0.641,0.313,1.154,0.731,1.539,1.26c0.383,0.528,0.656,1.144,0.819,1.847s0.244,1.444,0.244,2.227V92.828z M181.493,93.453
		c0,0.469,0.042,0.896,0.127,1.279s0.226,0.713,0.42,0.986c0.194,0.272,0.452,0.484,0.771,0.635
		c0.319,0.149,0.713,0.225,1.183,0.225c0.469,0,0.862-0.075,1.182-0.225c0.32-0.15,0.576-0.361,0.771-0.635
		c0.195-0.274,0.336-0.604,0.421-0.986s0.127-0.812,0.127-1.279v-7.5c0-0.469-0.042-0.896-0.127-1.279s-0.226-0.713-0.421-0.986
		c-0.194-0.272-0.451-0.484-0.771-0.635c-0.319-0.149-0.713-0.225-1.182-0.225c-0.47,0-0.862,0.075-1.183,0.225
		c-0.319,0.15-0.576,0.361-0.771,0.635c-0.194,0.274-0.335,0.604-0.42,0.986s-0.127,0.812-0.127,1.279V93.453z"/>
	<path d="M199.305,80.953l1.156,8.138l0.709,4.987l0.893-4.954l0.994-8.171h2.5l-3.135,17.5h-2.49l-1.166-8.161l-0.715-5.001
		l-0.715,5.001l-1.166,8.161h-2.699l-2.914-17.5h2.51l1.24,8.125l0.635,5l0.709-4.987l1.156-8.138H199.305z"/>
</g>
<g>
	<path d="M95.951,16.75h1.5v1.418c0.164,0.031,0.324,0.066,0.48,0.105c0.57,0.156,1.066,0.363,1.488,0.621
		c0.422,0.258,0.777,0.551,1.066,0.879s0.527,0.66,0.715,0.996c0.438,0.805,0.688,1.715,0.75,2.73l-3,0.75
		c-0.031-0.703-0.156-1.328-0.375-1.875c-0.094-0.234-0.213-0.463-0.357-0.686c-0.144-0.223-0.322-0.42-0.533-0.592
		c-0.078-0.062-0.156-0.121-0.234-0.176v6.633l1.5,1.195c0.477,0.383,0.9,0.803,1.271,1.26c0.371,0.457,0.686,0.936,0.943,1.436
		s0.453,1.014,0.586,1.541s0.199,1.049,0.199,1.564c0,0.648-0.105,1.268-0.316,1.857c-0.211,0.589-0.533,1.111-0.967,1.563
		c-0.434,0.453-0.979,0.816-1.635,1.09c-0.469,0.188-0.996,0.309-1.582,0.363v1.324h-1.5v-1.324
		c-0.453-0.039-0.863-0.113-1.23-0.223c-0.57-0.18-1.066-0.416-1.488-0.709s-0.778-0.625-1.067-0.996s-0.527-0.752-0.715-1.143
		c-0.438-0.906-0.687-1.941-0.75-3.105l2.988-0.75c0.031,0.844,0.157,1.594,0.377,2.25c0.094,0.281,0.214,0.557,0.359,0.826
		s0.324,0.51,0.536,0.721s0.459,0.383,0.742,0.516c0.079,0.031,0.161,0.062,0.248,0.094V30.4l-3-2.402
		c-0.383-0.305-0.717-0.65-1.002-1.037c-0.285-0.387-0.521-0.795-0.709-1.225c-0.188-0.43-0.326-0.867-0.416-1.312
		c-0.09-0.445-0.135-0.887-0.135-1.324c0-0.672,0.113-1.314,0.34-1.928c0.227-0.614,0.561-1.152,1.002-1.617
		c0.441-0.465,0.99-0.834,1.646-1.107c0.656-0.273,1.414-0.41,2.273-0.41V16.75H95.951z M94.926,20.688
		c-0.283,0.117-0.516,0.277-0.701,0.48s-0.32,0.441-0.407,0.715c-0.087,0.274-0.129,0.562-0.129,0.867
		c0,0.516,0.122,1.043,0.365,1.582c0.243,0.539,0.624,1.012,1.143,1.418l0.754,0.598V20.5C95.559,20.5,95.217,20.562,94.926,20.688z
		 M98.951,34.75c0-0.375-0.047-0.725-0.141-1.049c-0.094-0.324-0.234-0.637-0.422-0.938c-0.188-0.301-0.422-0.592-0.703-0.873
		c-0.078-0.078-0.156-0.156-0.234-0.234v5.272C98.451,36.703,98.951,35.977,98.951,34.75z"/>
	<path d="M104.801,20.5c0.43-0.156,0.836-0.344,1.219-0.562c0.328-0.188,0.66-0.422,0.996-0.703
		c0.336-0.281,0.598-0.609,0.785-0.984h2.25v21h-3v-16.5h-2.25V20.5L104.801,20.5z"/>
	<path d="M113.651,36.25h3.07c0,1.125-0.012,2.07-0.035,2.836s-0.107,1.383-0.25,1.852s-0.369,0.805-0.679,1.008
		c-0.31,0.203-0.75,0.305-1.322,0.305l-0.785-1.5c0.393,0,0.695-0.053,0.908-0.158c0.213-0.104,0.368-0.236,0.466-0.393
		c0.098-0.157,0.155-0.32,0.172-0.492c0.016-0.172,0.024-0.324,0.024-0.457h-1.57L113.651,36.25L113.651,36.25z"/>
	<path d="M138.851,39.461c-0.672,0-1.324-0.115-1.957-0.346c-0.633-0.231-1.193-0.596-1.682-1.096
		c-0.489-0.5-0.879-1.143-1.172-1.928c-0.293-0.785-0.439-1.732-0.439-2.842v-9c0-0.945,0.096-1.754,0.287-2.426
		c0.191-0.672,0.439-1.238,0.744-1.699c0.305-0.461,0.648-0.828,1.031-1.102c0.383-0.274,0.77-0.484,1.16-0.633
		c0.39-0.149,0.764-0.244,1.119-0.287s0.658-0.064,0.908-0.064s0.553,0.021,0.908,0.064c0.355,0.043,0.729,0.139,1.119,0.287
		s0.777,0.359,1.16,0.633c0.383,0.274,0.727,0.641,1.031,1.102c0.304,0.461,0.553,1.027,0.744,1.699
		c0.191,0.672,0.287,1.479,0.287,2.426v9c0,1.109-0.146,2.057-0.439,2.842c-0.293,0.785-0.684,1.428-1.172,1.928
		c-0.488,0.5-1.049,0.865-1.682,1.096C140.173,39.346,139.523,39.461,138.851,39.461z M138.851,37c0.328,0,0.613-0.062,0.855-0.188
		c0.242-0.126,0.445-0.289,0.609-0.492c0.164-0.203,0.299-0.438,0.404-0.703c0.105-0.265,0.186-0.537,0.24-0.814
		c0.054-0.277,0.092-0.551,0.111-0.82s0.029-0.514,0.029-0.732v-9c0-0.227-0.006-0.477-0.018-0.75
		c-0.012-0.273-0.043-0.549-0.094-0.826c-0.051-0.277-0.123-0.547-0.217-0.809c-0.094-0.262-0.225-0.494-0.393-0.697
		s-0.377-0.365-0.627-0.486c-0.25-0.121-0.551-0.182-0.902-0.182s-0.652,0.061-0.902,0.182c-0.25,0.121-0.459,0.283-0.627,0.486
		s-0.299,0.436-0.393,0.697c-0.094,0.261-0.166,0.531-0.217,0.809c-0.051,0.278-0.082,0.553-0.094,0.826
		c-0.012,0.273-0.018,0.523-0.018,0.75v9c0,0.219,0.01,0.463,0.029,0.732s0.057,0.543,0.111,0.82
		c0.054,0.277,0.135,0.549,0.24,0.814c0.105,0.265,0.24,0.5,0.404,0.703c0.164,0.203,0.367,0.367,0.609,0.492
		C138.232,36.937,138.523,37,138.851,37z"/>
	<path d="M125.126,39.461c-0.672,0-1.324-0.115-1.957-0.346c-0.633-0.231-1.193-0.596-1.682-1.096
		c-0.489-0.5-0.879-1.143-1.172-1.928c-0.293-0.785-0.439-1.732-0.439-2.842v-9c0-0.945,0.096-1.754,0.287-2.426
		c0.191-0.672,0.439-1.238,0.744-1.699c0.305-0.461,0.648-0.828,1.031-1.102s0.77-0.484,1.16-0.633
		c0.39-0.149,0.764-0.244,1.119-0.287c0.355-0.043,0.658-0.064,0.908-0.064s0.553,0.021,0.908,0.064s0.729,0.139,1.119,0.287
		c0.39,0.148,0.777,0.359,1.16,0.633s0.727,0.641,1.031,1.102c0.304,0.461,0.553,1.027,0.744,1.699
		c0.191,0.672,0.287,1.479,0.287,2.426v9c0,1.109-0.146,2.057-0.439,2.842c-0.293,0.785-0.684,1.428-1.172,1.928
		c-0.488,0.5-1.049,0.865-1.682,1.096C126.448,39.346,125.798,39.461,125.126,39.461z M125.126,37c0.328,0,0.613-0.062,0.855-0.188
		s0.445-0.289,0.609-0.492c0.164-0.203,0.299-0.438,0.404-0.703c0.105-0.265,0.186-0.537,0.24-0.814
		c0.054-0.277,0.092-0.551,0.111-0.82c0.019-0.269,0.029-0.514,0.029-0.732v-9c0-0.227-0.006-0.477-0.018-0.75
		s-0.043-0.549-0.094-0.826c-0.051-0.277-0.123-0.547-0.217-0.809c-0.094-0.262-0.225-0.494-0.393-0.697s-0.377-0.365-0.627-0.486
		c-0.25-0.121-0.551-0.182-0.902-0.182s-0.652,0.061-0.902,0.182c-0.25,0.121-0.459,0.283-0.627,0.486
		c-0.168,0.203-0.299,0.436-0.393,0.697c-0.094,0.261-0.166,0.531-0.217,0.809c-0.051,0.278-0.082,0.553-0.094,0.826
		c-0.012,0.273-0.018,0.523-0.018,0.75v9c0,0.219,0.01,0.463,0.029,0.732s0.057,0.543,0.111,0.82
		c0.054,0.277,0.135,0.549,0.24,0.814c0.105,0.265,0.24,0.5,0.404,0.703c0.164,0.203,0.367,0.367,0.609,0.492
		C124.507,36.937,124.798,37,125.126,37z"/>
	<path d="M152.951,39.461c-0.672,0-1.324-0.115-1.957-0.346c-0.633-0.231-1.193-0.596-1.682-1.096
		c-0.489-0.5-0.879-1.143-1.172-1.928c-0.293-0.785-0.439-1.732-0.439-2.842v-9c0-0.945,0.096-1.754,0.287-2.426
		c0.191-0.672,0.439-1.238,0.744-1.699s0.648-0.828,1.031-1.102c0.383-0.274,0.77-0.484,1.16-0.633
		c0.39-0.149,0.764-0.244,1.119-0.287s0.658-0.064,0.908-0.064s0.553,0.021,0.908,0.064s0.729,0.139,1.119,0.287
		s0.777,0.359,1.16,0.633c0.383,0.274,0.727,0.641,1.031,1.102c0.304,0.461,0.553,1.027,0.744,1.699
		c0.191,0.672,0.287,1.479,0.287,2.426v9c0,1.109-0.146,2.057-0.439,2.842c-0.293,0.785-0.684,1.428-1.172,1.928
		c-0.488,0.5-1.049,0.865-1.682,1.096C154.273,39.346,153.623,39.461,152.951,39.461z M152.951,37c0.328,0,0.613-0.062,0.855-0.188
		c0.242-0.126,0.445-0.289,0.609-0.492c0.164-0.203,0.299-0.438,0.404-0.703c0.105-0.265,0.186-0.537,0.24-0.814
		c0.054-0.277,0.092-0.551,0.111-0.82s0.029-0.514,0.029-0.732v-9c0-0.227-0.006-0.477-0.018-0.75
		c-0.012-0.273-0.043-0.549-0.094-0.826c-0.051-0.277-0.123-0.547-0.217-0.809c-0.094-0.262-0.225-0.494-0.393-0.697
		s-0.377-0.365-0.627-0.486c-0.25-0.121-0.551-0.182-0.902-0.182c-0.351,0-0.652,0.061-0.902,0.182
		c-0.25,0.121-0.459,0.283-0.627,0.486s-0.299,0.436-0.393,0.697c-0.094,0.261-0.166,0.531-0.217,0.809
		c-0.051,0.278-0.082,0.553-0.094,0.826c-0.012,0.273-0.018,0.523-0.018,0.75v9c0,0.219,0.01,0.463,0.029,0.732
		s0.057,0.543,0.111,0.82c0.054,0.277,0.135,0.549,0.24,0.814c0.105,0.265,0.24,0.5,0.404,0.703
		c0.164,0.203,0.367,0.367,0.609,0.492C152.332,36.937,152.623,37,152.951,37z"/>
	<path d="M161.051,36.25h3v3h-3V36.25z"/>
	<path d="M172.15,39.461c-0.672,0-1.324-0.115-1.957-0.346c-0.633-0.231-1.193-0.595-1.68-1.095c-0.488-0.5-0.88-1.143-1.173-1.928
		c-0.293-0.785-0.438-1.732-0.438-2.842v-9c0-0.945,0.096-1.754,0.287-2.426c0.19-0.672,0.438-1.238,0.744-1.699
		c0.305-0.461,0.647-0.828,1.029-1.102c0.383-0.273,0.77-0.484,1.16-0.633s0.764-0.244,1.119-0.287s0.658-0.064,0.908-0.064
		s0.553,0.021,0.908,0.064c0.354,0.043,0.729,0.139,1.119,0.287c0.389,0.148,0.776,0.359,1.159,0.633
		c0.384,0.274,0.728,0.641,1.031,1.102s0.553,1.027,0.743,1.699c0.191,0.672,0.287,1.479,0.287,2.426v9
		c0,1.109-0.146,2.057-0.438,2.842c-0.293,0.785-0.685,1.428-1.172,1.928s-1.049,0.865-1.683,1.096
		C173.473,39.347,172.822,39.461,172.15,39.461z M172.15,37c0.328,0,0.613-0.062,0.854-0.188c0.242-0.126,0.445-0.289,0.608-0.492
		c0.164-0.203,0.3-0.438,0.404-0.703c0.105-0.265,0.187-0.537,0.24-0.814c0.055-0.277,0.092-0.551,0.111-0.82
		s0.029-0.514,0.029-0.732v-9c0-0.227-0.006-0.477-0.019-0.75c-0.012-0.273-0.043-0.549-0.094-0.826
		c-0.052-0.277-0.123-0.547-0.218-0.809c-0.094-0.262-0.225-0.494-0.393-0.697s-0.377-0.365-0.627-0.486
		c-0.25-0.121-0.551-0.182-0.902-0.182c-0.351,0-0.651,0.061-0.901,0.182c-0.25,0.121-0.459,0.283-0.627,0.486
		s-0.3,0.436-0.394,0.697c-0.094,0.261-0.166,0.531-0.217,0.809c-0.051,0.278-0.082,0.553-0.094,0.826s-0.018,0.523-0.018,0.75v9
		c0,0.219,0.01,0.463,0.028,0.732s0.058,0.543,0.111,0.82c0.054,0.277,0.135,0.549,0.239,0.814c0.105,0.265,0.24,0.5,0.404,0.703
		c0.164,0.203,0.367,0.367,0.609,0.492S171.822,37,172.15,37z"/>
	<path d="M186.25,39.461c-0.672,0-1.324-0.115-1.957-0.346c-0.633-0.231-1.193-0.596-1.682-1.096
		c-0.489-0.5-0.879-1.143-1.172-1.928C181.146,35.306,181,34.359,181,33.25v-9c0-0.945,0.096-1.754,0.287-2.426
		c0.191-0.672,0.439-1.238,0.744-1.699s0.648-0.828,1.031-1.102s0.77-0.484,1.16-0.633c0.389-0.149,0.764-0.244,1.118-0.287
		s0.658-0.064,0.908-0.064s0.554,0.021,0.908,0.064s0.729,0.139,1.118,0.287c0.391,0.148,0.777,0.359,1.16,0.633
		s0.728,0.641,1.031,1.102c0.305,0.461,0.553,1.027,0.744,1.699c0.191,0.672,0.287,1.479,0.287,2.426v9
		c0,1.109-0.146,2.057-0.439,2.842c-0.293,0.785-0.684,1.428-1.172,1.928s-1.049,0.865-1.682,1.096
		C187.572,39.347,186.922,39.461,186.25,39.461z M186.25,37c0.328,0,0.613-0.062,0.855-0.188s0.444-0.289,0.608-0.492
		c0.164-0.203,0.3-0.438,0.404-0.703c0.104-0.265,0.187-0.537,0.239-0.814c0.055-0.277,0.093-0.551,0.111-0.82
		c0.02-0.269,0.029-0.514,0.029-0.732v-9c0-0.227-0.006-0.477-0.018-0.75c-0.013-0.273-0.043-0.549-0.094-0.826
		c-0.052-0.277-0.123-0.547-0.218-0.809c-0.094-0.262-0.226-0.494-0.394-0.697s-0.377-0.365-0.627-0.486
		c-0.25-0.121-0.551-0.182-0.901-0.182s-0.651,0.061-0.901,0.182c-0.25,0.121-0.459,0.283-0.628,0.486
		c-0.168,0.203-0.299,0.436-0.393,0.697c-0.095,0.261-0.166,0.531-0.218,0.809c-0.051,0.278-0.082,0.553-0.094,0.826
		S184,24.023,184,24.25v9c0,0.219,0.01,0.463,0.029,0.732c0.019,0.269,0.057,0.543,0.111,0.82c0.053,0.277,0.135,0.549,0.239,0.814
		c0.104,0.265,0.24,0.5,0.404,0.703c0.164,0.203,0.366,0.367,0.608,0.492S185.922,37,186.25,37z"/>
	<path d="M207.994,39.25l-3-16.569V39.25h-3v-21h4.066l2.985,16.097l2.986-16.097h4.211v21h-3V22.68l-3,16.57H207.994z"/>
	<path d="M225.09,30.269l-2.963,8.981h-3.01l3.727-10.887l-3.75-10.113h2.988l3.004,8.275l3.008-8.275h2.928l-3.754,10.078
		l3.699,10.922h-2.896L225.09,30.269z"/>
	<path d="M242.311,39.25l-5.367-13.97v13.97h-3v-21h1.97l5.53,13.711V18.25h3v21H242.311z"/>
</g>
<g>
	<path d="M91.352,54.82c0-0.05,0.015-0.119,0.045-0.209l3.524-9.769c0.05-0.158,0.248-0.238,0.595-0.238h0.431
		c0.347,0,0.545,0.08,0.595,0.238l3.524,9.785c0.03,0.069,0.044,0.134,0.044,0.193c0,0.168-0.213,0.252-0.639,0.252h-0.119
		c-0.347,0-0.545-0.079-0.595-0.237l-0.877-2.438h-4.372l-0.848,2.438c-0.05,0.158-0.248,0.237-0.595,0.237h-0.074
		C91.565,55.072,91.352,54.988,91.352,54.82z M93.925,51.266h3.554l-1.561-4.431l-0.193-0.862l-0.238,0.862L93.925,51.266z"/>
	<path d="M102.772,54.745V45.08c0-0.297,0.148-0.446,0.446-0.446h2.498c1.189,0,2.084,0.21,2.684,0.632c0.6,0.421,0.9,1.088,0.9,2
		c0,1.22-0.57,2.058-1.71,2.514v0.06c0.287,0.099,0.528,0.292,0.721,0.58c0.193,0.287,0.399,0.713,0.617,1.278l1.16,2.93
		c0.03,0.089,0.044,0.158,0.044,0.208c0,0.158-0.208,0.237-0.625,0.237h-0.148c-0.337,0-0.536-0.079-0.595-0.237l-1.13-2.915
		c-0.218-0.564-0.491-0.948-0.818-1.152c-0.327-0.203-0.793-0.305-1.397-0.305h-1.338v4.282c0,0.219-0.199,0.327-0.595,0.327h-0.119
		C102.97,55.072,102.772,54.964,102.772,54.745z M104.081,49.333h1.963c0.525,0,0.974-0.181,1.346-0.543
		c0.372-0.361,0.558-0.812,0.558-1.353c0-0.541-0.179-0.955-0.536-1.242c-0.357-0.287-0.847-0.431-1.472-0.431h-1.858V49.333z"/>
	<path d="M113.463,53.771c-0.783-0.907-1.175-2.228-1.175-3.963c0-1.734,0.389-3.045,1.167-3.933s1.916-1.331,3.413-1.331
		c1.497,0,2.637,0.444,3.42,1.331c0.783,0.887,1.174,2.198,1.174,3.933c0,1.735-0.392,3.056-1.174,3.963
		c-0.783,0.907-1.921,1.36-3.413,1.36C115.384,55.132,114.246,54.679,113.463,53.771z M114.467,52.932
		c0.55,0.714,1.351,1.07,2.401,1.07s1.854-0.356,2.409-1.07s0.833-1.752,0.833-3.115s-0.277-2.395-0.833-3.093
		s-1.358-1.048-2.409-1.048s-1.851,0.35-2.401,1.048s-0.825,1.73-0.825,3.093S113.917,52.218,114.467,52.932z"/>
	<path d="M124.586,51.712v-6.78c0-0.218,0.198-0.327,0.595-0.327h0.119c0.396,0,0.595,0.109,0.595,0.327v6.825
		c0,0.654,0.26,1.192,0.781,1.613c0.521,0.422,1.177,0.632,1.97,0.632s1.45-0.21,1.97-0.632c0.521-0.421,0.781-0.959,0.781-1.613
		v-6.825c0-0.218,0.198-0.327,0.595-0.327h0.119c0.396,0,0.595,0.109,0.595,0.327v6.78c0,1.081-0.352,1.921-1.056,2.521
		c-0.704,0.6-1.708,0.899-3.011,0.899s-2.305-0.3-3.003-0.899C124.935,53.633,124.586,52.793,124.586,51.712z"/>
	<path d="M136.318,54.745v-9.813c0-0.218,0.198-0.327,0.595-0.327h0.312c0.278,0,0.486,0.094,0.625,0.282l4.744,7.167l0.446,0.833
		v-7.955c0-0.218,0.198-0.327,0.595-0.327h0.104c0.396,0,0.595,0.109,0.595,0.327v9.813c0,0.219-0.198,0.327-0.595,0.327h-0.297
		c-0.258,0-0.431-0.068-0.521-0.208l-4.907-7.405l-0.401-0.758v8.044c0,0.219-0.198,0.327-0.595,0.327h-0.104
		C136.516,55.072,136.318,54.964,136.318,54.745z"/>
	<path d="M148.154,54.597V45.08c0-0.297,0.148-0.446,0.446-0.446h3.003c1.388,0,2.5,0.414,3.338,1.242
		c0.837,0.828,1.256,2.151,1.256,3.97c0,1.819-0.419,3.141-1.256,3.963c-0.838,0.823-1.951,1.234-3.338,1.234H148.6
		C148.302,55.043,148.154,54.895,148.154,54.597z M149.462,53.913h2.037c1.001,0,1.809-0.327,2.424-0.981
		c0.614-0.654,0.922-1.683,0.922-3.086c0-1.402-0.308-2.434-0.922-3.093c-0.615-0.659-1.423-0.989-2.424-0.989h-2.037V53.913z"/>
	<path d="M163.217,54.047c0-0.119,0.067-0.282,0.201-0.491c0.134-0.208,0.24-0.312,0.32-0.312c0.03,0,0.148,0.064,0.357,0.193
		c0.208,0.129,0.498,0.263,0.87,0.401s0.771,0.213,1.197,0.223v-3.836c-0.377-0.149-0.647-0.258-0.811-0.327
		s-0.396-0.193-0.699-0.372c-0.303-0.179-0.528-0.357-0.677-0.535c-0.377-0.476-0.565-1.061-0.565-1.755
		c0-0.694,0.248-1.279,0.743-1.754c0.496-0.476,1.165-0.759,2.008-0.848V44.01c0-0.159,0.099-0.238,0.297-0.238
		c0.198,0,0.297,0.08,0.297,0.238v0.595c0.495,0.01,1.011,0.097,1.546,0.26c0.536,0.164,0.804,0.359,0.804,0.587
		c0,0.109-0.062,0.268-0.187,0.476c-0.124,0.208-0.215,0.312-0.274,0.312s-0.169-0.045-0.327-0.134
		c-0.486-0.268-1.007-0.412-1.562-0.432v3.465c0.456,0.159,0.8,0.293,1.033,0.401c0.233,0.109,0.518,0.282,0.855,0.521
		c0.634,0.456,0.951,1.138,0.951,2.045s-0.253,1.615-0.758,2.126c-0.506,0.511-1.2,0.806-2.082,0.885v0.743
		c0,0.159-0.1,0.238-0.297,0.238c-0.199,0-0.297-0.079-0.297-0.238v-0.729c-0.783-0.02-1.47-0.15-2.06-0.394
		C163.512,54.495,163.217,54.265,163.217,54.047z M165.135,46.248c-0.248,0.273-0.372,0.62-0.372,1.041
		c0,0.422,0.119,0.751,0.357,0.989s0.585,0.451,1.041,0.64V45.72C165.725,45.799,165.383,45.975,165.135,46.248z M167.834,53.407
		c0.272-0.327,0.409-0.716,0.409-1.167s-0.13-0.808-0.387-1.071c-0.258-0.262-0.625-0.498-1.101-0.706v3.554
		C167.202,53.938,167.561,53.734,167.834,53.407z"/>
	<path d="M171.871,52.039c0-0.724,0.144-1.283,0.431-1.68s0.694-0.719,1.22-0.967c-0.823-0.485-1.234-1.244-1.234-2.275
		c0-0.812,0.265-1.444,0.796-1.896c0.529-0.451,1.206-0.677,2.029-0.677c0.822,0,1.504,0.226,2.045,0.677
		c0.54,0.451,0.81,1.083,0.81,1.896c0,1.062-0.48,1.814-1.442,2.261c0.565,0.258,1.004,0.58,1.316,0.966
		c0.312,0.387,0.469,0.952,0.469,1.695c0,1.012-0.3,1.779-0.9,2.305c-0.6,0.526-1.373,0.788-2.319,0.788s-1.72-0.262-2.319-0.788
		C172.17,53.818,171.871,53.051,171.871,52.039z M173.149,52.039c0,0.645,0.184,1.143,0.55,1.495
		c0.367,0.352,0.828,0.527,1.384,0.527c0.555,0,1.019-0.176,1.39-0.527c0.372-0.353,0.558-0.851,0.558-1.495
		c0-0.436-0.099-0.773-0.297-1.011c-0.109-0.139-0.211-0.253-0.305-0.342c-0.095-0.09-0.236-0.179-0.424-0.268
		c-0.188-0.09-0.34-0.156-0.454-0.201s-0.29-0.109-0.527-0.193c-0.238-0.084-0.407-0.146-0.506-0.186
		C173.605,50.374,173.149,51.107,173.149,52.039z M176.718,47.117c0-0.505-0.148-0.882-0.445-1.13
		c-0.298-0.248-0.682-0.372-1.152-0.372c-0.472,0-0.854,0.124-1.146,0.372c-0.292,0.248-0.438,0.625-0.438,1.13
		c0,0.565,0.198,0.986,0.595,1.264c0.298,0.199,0.733,0.397,1.309,0.596C176.292,48.48,176.718,47.861,176.718,47.117z"/>
	<path d="M180.808,54.24c0-0.139,0.064-0.298,0.193-0.476c0.128-0.179,0.237-0.269,0.327-0.269c0.01,0,0.257,0.095,0.743,0.283
		c0.485,0.188,1.019,0.282,1.599,0.282s1.093-0.19,1.539-0.572s0.669-0.912,0.669-1.591c0-0.68-0.229-1.192-0.685-1.539
		c-0.456-0.348-1.12-0.521-1.992-0.521h-1.264c-0.159,0-0.268-0.035-0.327-0.104s-0.089-0.184-0.089-0.342l0.252-4.312
		c0.01-0.297,0.169-0.446,0.477-0.446h3.955c0.198,0,0.297,0.148,0.297,0.446v0.179c0,0.297-0.099,0.446-0.297,0.446h-3.227
		l-0.193,3.063h0.773c0.882,0,1.68,0.219,2.394,0.654c0.366,0.219,0.659,0.538,0.877,0.959c0.219,0.422,0.327,0.93,0.327,1.524
		s-0.104,1.115-0.312,1.562c-0.209,0.446-0.491,0.783-0.848,1.011c-0.675,0.437-1.438,0.654-2.29,0.654s-1.549-0.097-2.09-0.29
		C181.077,54.648,180.808,54.448,180.808,54.24z"/>
	<path d="M189.863,54.745v-0.98c0-0.219,0.197-0.327,0.595-0.327h0.252c0.396,0,0.596,0.108,0.596,0.327v0.98
		c0,0.219-0.199,0.327-0.596,0.327h-0.252C190.061,55.072,189.863,54.964,189.863,54.745z"/>
	<path d="M200.449,49.839c0,1.744-0.324,3.062-0.974,3.955s-1.457,1.338-2.424,1.338s-1.772-0.445-2.416-1.338
		c-0.645-0.893-0.967-2.211-0.967-3.955c0-1.745,0.322-3.063,0.967-3.956c0.644-0.892,1.449-1.338,2.416-1.338
		s1.774,0.446,2.424,1.338S200.449,48.094,200.449,49.839z M194.933,49.839c0,1.447,0.203,2.513,0.609,3.196
		c0.407,0.685,0.91,1.026,1.51,1.026s1.105-0.342,1.517-1.026c0.411-0.684,0.617-1.749,0.617-3.196s-0.206-2.514-0.617-3.197
		c-0.411-0.684-0.917-1.026-1.517-1.026s-1.103,0.342-1.51,1.026C195.136,47.325,194.933,48.392,194.933,49.839z"/>
	<path d="M209.445,49.839c0,1.744-0.324,3.062-0.974,3.955s-1.457,1.338-2.424,1.338s-1.772-0.445-2.416-1.338
		c-0.645-0.893-0.967-2.211-0.967-3.955c0-1.745,0.322-3.063,0.967-3.956c0.644-0.892,1.449-1.338,2.416-1.338
		s1.774,0.446,2.424,1.338S209.445,48.094,209.445,49.839z M203.929,49.839c0,1.447,0.203,2.513,0.609,3.196
		c0.407,0.685,0.91,1.026,1.51,1.026s1.105-0.342,1.517-1.026c0.411-0.684,0.617-1.749,0.617-3.196s-0.206-2.514-0.617-3.197
		c-0.411-0.684-0.917-1.026-1.517-1.026s-1.103,0.342-1.51,1.026C204.132,47.325,203.929,48.392,203.929,49.839z"/>
	<path d="M216.925,51.712v-6.78c0-0.218,0.198-0.327,0.595-0.327h0.119c0.396,0,0.595,0.109,0.595,0.327v6.825
		c0,0.654,0.26,1.192,0.78,1.613c0.521,0.422,1.177,0.632,1.971,0.632c0.793,0,1.449-0.21,1.97-0.632
		c0.521-0.421,0.781-0.959,0.781-1.613v-6.825c0-0.218,0.198-0.327,0.595-0.327h0.118c0.396,0,0.596,0.109,0.596,0.327v6.78
		c0,1.081-0.353,1.921-1.057,2.521c-0.703,0.6-1.707,0.899-3.011,0.899s-2.305-0.3-3.004-0.899
		C217.274,53.633,216.925,52.793,216.925,51.712z"/>
	<path d="M227.868,54.047c0-0.119,0.067-0.282,0.201-0.491c0.134-0.208,0.24-0.312,0.319-0.312c0.03,0,0.154,0.062,0.372,0.186
		s0.525,0.25,0.922,0.379s0.85,0.193,1.36,0.193s0.947-0.163,1.309-0.49c0.362-0.327,0.543-0.744,0.543-1.249
		c0-0.506-0.166-0.907-0.498-1.205c-0.332-0.297-0.733-0.532-1.204-0.706c-0.472-0.173-0.944-0.359-1.421-0.558
		c-0.476-0.198-0.88-0.506-1.212-0.922s-0.498-0.946-0.498-1.591c0-0.823,0.303-1.485,0.907-1.985s1.402-0.751,2.395-0.751
		c0.485,0,1.006,0.089,1.561,0.268c0.556,0.179,0.833,0.392,0.833,0.64c0,0.109-0.062,0.268-0.186,0.476
		c-0.124,0.208-0.221,0.312-0.29,0.312c-0.04,0-0.144-0.05-0.312-0.149c-0.506-0.277-1.051-0.417-1.636-0.417
		s-1.051,0.142-1.397,0.424c-0.348,0.283-0.521,0.697-0.521,1.242c0,0.545,0.322,0.972,0.967,1.278
		c0.277,0.129,0.59,0.256,0.937,0.379c0.347,0.124,0.691,0.268,1.033,0.432c0.342,0.163,0.654,0.354,0.937,0.572
		c0.283,0.219,0.514,0.516,0.692,0.893c0.178,0.377,0.268,0.812,0.268,1.309c0,0.912-0.298,1.628-0.893,2.148s-1.349,0.78-2.26,0.78
		c-0.913,0-1.679-0.123-2.298-0.371S227.868,54.274,227.868,54.047z"/>
	<path d="M237.236,54.597V45.08c0-0.297,0.148-0.446,0.446-0.446h3.004c1.388,0,2.5,0.414,3.338,1.242s1.257,2.151,1.257,3.97
		c0,1.819-0.419,3.141-1.257,3.963c-0.838,0.823-1.95,1.234-3.338,1.234h-3.004C237.385,55.043,237.236,54.895,237.236,54.597z
		 M238.545,53.913h2.037c1.001,0,1.809-0.327,2.424-0.981c0.614-0.654,0.922-1.683,0.922-3.086c0-1.402-0.308-2.434-0.922-3.093
		c-0.615-0.659-1.423-0.989-2.424-0.989h-2.037V53.913z"/>
</g>
</svg>
