<?xml version="1.0" encoding="utf-8"?>
<!-- Generator: Adobe Illustrator 16.0.0, SVG Export Plug-In . SVG Version: 6.00 Build 0)  -->
<!DOCTYPE svg PUBLIC "-//W3C//DTD SVG 1.1//EN" "http://www.w3.org/Graphics/SVG/1.1/DTD/svg11.dtd">
<svg version="1.1" id="Capa_1" xmlns="http://www.w3.org/2000/svg" xmlns:xlink="http://www.w3.org/1999/xlink" x="0px" y="0px"
	 width="333px" height="114.36px" viewBox="0 -22.953 333 114.36" enable-background="new 0 -22.953 333 114.36"
	 xml:space="preserve">
<g>
	<rect x="104.534" y="29.305" width="124.668" height="62.102"/>
	<rect x="109.365" y="29.711" fill="#F6B540" width="115.006" height="57.289"/>
	<g>
		<g>
			<polygon fill="#D9DADB" points="245.871,51.698 245.871,44.403 86.63,44.403 86.63,51.698 14.723,51.698 30.584,25.401 
				14.723,-0.898 45.961,-0.898 45.961,-20.827 286.35,-20.827 286.35,-0.898 317.245,-0.898 304.556,25.401 317.245,51.698 			"/>
			<path d="M284.224-18.701V1.228h29.151L302.035,25.4l11.34,24.173h-65.377v-7.294H84.503v7.294H19.125L33.299,25.4L19.125,1.228
				h28.962v-19.929H284.224 M288.477-22.953H43.836v19.927H10.322L27.87,25.399L10.322,53.823h78.434v-7.294h154.987v7.294h77.367
				l-14.036-28.424L321.11-3.025h-32.636v-19.928H288.477L288.477-22.953z"/>
		</g>
		<polygon fill="#B0B4B7" points="84.503,49.572 84.503,1.229 19.125,1.229 33.299,25.401 19.125,49.572 		"/>
		<polygon fill="#B0B4B7" points="313.376,1.229 247.998,1.229 247.998,49.572 313.376,49.572 302.036,25.401 		"/>
		<polygon points="43.786,-0.379 43.786,44.893 74.483,51.84 86.091,50.965 51.066,-0.379 		"/>
		<polygon points="288.488,-0.52 288.488,44.751 257.791,51.698 246.186,50.823 281.209,-0.52 		"/>
		<polygon fill="#8B8B8B" points="284.224,-18.701 284.224,42.278 247.998,49.572 247.853,1.229 		"/>
		<polygon fill="#8B8B8B" points="48.086,-18.701 48.086,42.278 84.458,49.572 84.458,1.229 		"/>
		<rect x="48.086" y="-18.701" fill="#FFFFFF" width="236.137" height="60.979"/>
	</g>
	<g>
		<path d="M94.265-7.25h1.5v1.418c0.164,0.031,0.324,0.066,0.48,0.105c0.57,0.156,1.066,0.363,1.488,0.621
			c0.422,0.258,0.777,0.551,1.066,0.879s0.527,0.66,0.715,0.996c0.438,0.805,0.688,1.715,0.75,2.73l-3,0.75
			c-0.031-0.703-0.156-1.328-0.375-1.875c-0.094-0.234-0.213-0.463-0.357-0.686C96.388-2.535,96.21-2.73,96-2.902
			c-0.078-0.062-0.156-0.121-0.234-0.176v6.633l1.5,1.195c0.477,0.383,0.9,0.803,1.271,1.26s0.686,0.937,0.943,1.437
			s0.453,1.014,0.586,1.541c0.133,0.527,0.199,1.049,0.199,1.563c0,0.648-0.105,1.268-0.316,1.857
			c-0.211,0.589-0.533,1.111-0.967,1.564c-0.434,0.453-0.979,0.816-1.635,1.09c-0.469,0.188-0.996,0.309-1.582,0.363v1.324h-1.5
			v-1.324c-0.453-0.039-0.863-0.113-1.23-0.223c-0.57-0.18-1.066-0.416-1.488-0.709s-0.778-0.625-1.067-0.996
			s-0.527-0.752-0.715-1.143c-0.438-0.906-0.687-1.941-0.75-3.105l2.988-0.75c0.031,0.844,0.157,1.594,0.377,2.25
			c0.094,0.281,0.214,0.557,0.359,0.826c0.145,0.27,0.324,0.51,0.536,0.721s0.459,0.383,0.742,0.516
			c0.079,0.031,0.161,0.062,0.248,0.094V6.402l-3-2.402c-0.383-0.305-0.717-0.65-1.002-1.037c-0.285-0.387-0.521-0.795-0.709-1.225
			c-0.188-0.43-0.326-0.867-0.416-1.312c-0.09-0.445-0.135-0.887-0.135-1.324c0-0.672,0.113-1.314,0.34-1.928
			c0.227-0.614,0.561-1.152,1.002-1.617c0.441-0.465,0.99-0.834,1.646-1.107c0.656-0.273,1.414-0.41,2.273-0.41L94.265-7.25
			L94.265-7.25z M93.24-3.312c-0.283,0.117-0.516,0.277-0.701,0.48s-0.32,0.441-0.407,0.715c-0.087,0.274-0.129,0.562-0.129,0.867
			c0,0.516,0.122,1.043,0.365,1.582c0.243,0.539,0.624,1.012,1.143,1.418l0.754,0.598V-3.5C93.873-3.5,93.531-3.438,93.24-3.312z
			 M97.265,10.75c0-0.375-0.047-0.725-0.141-1.049c-0.094-0.324-0.234-0.637-0.422-0.938C96.514,8.462,96.281,8.172,96,7.891
			c-0.078-0.078-0.156-0.156-0.234-0.234v5.273C96.765,12.703,97.265,11.977,97.265,10.75z"/>
		<path d="M103.115-3.5c0.43-0.156,0.836-0.344,1.219-0.562c0.328-0.188,0.66-0.422,0.996-0.703
			c0.336-0.281,0.598-0.609,0.785-0.984h2.25v21h-3v-16.5h-2.25V-3.5L103.115-3.5z"/>
		<path d="M111.965,12.25h3.07c0,1.125-0.012,2.07-0.035,2.836s-0.107,1.383-0.25,1.852s-0.369,0.805-0.679,1.008
			c-0.31,0.203-0.75,0.305-1.322,0.305l-0.785-1.5c0.393,0,0.695-0.053,0.908-0.158c0.213-0.104,0.368-0.236,0.466-0.393
			c0.098-0.157,0.155-0.32,0.172-0.492c0.016-0.172,0.024-0.324,0.024-0.457h-1.57L111.965,12.25L111.965,12.25z"/>
		<path d="M123.44,15.461c-0.938,0-1.738-0.145-2.402-0.434c-0.664-0.289-1.207-0.68-1.629-1.172
			c-0.422-0.492-0.73-1.07-0.926-1.734c-0.196-0.664-0.293-1.371-0.293-2.121V9.25h3c0,0.75,0.047,1.367,0.141,1.852
			c0.094,0.485,0.234,0.867,0.422,1.148s0.422,0.477,0.703,0.586c0.281,0.109,0.609,0.164,0.984,0.164s0.703-0.055,0.984-0.164
			c0.281-0.109,0.516-0.305,0.703-0.586s0.328-0.664,0.422-1.148c0.094-0.484,0.141-1.102,0.141-1.852
			c0-0.562-0.051-1.074-0.152-1.535s-0.27-0.855-0.504-1.184c-0.234-0.329-0.543-0.582-0.926-0.762
			c-0.383-0.18-0.855-0.27-1.418-0.27v-3c0.562,0,1.035-0.051,1.418-0.152c0.383-0.101,0.691-0.27,0.926-0.504
			c0.235-0.234,0.402-0.543,0.504-0.926s0.152-0.855,0.152-1.418s-0.047-1.035-0.141-1.418c-0.094-0.383-0.234-0.691-0.422-0.926
			c-0.188-0.235-0.422-0.402-0.703-0.504c-0.281-0.102-0.609-0.152-0.984-0.152s-0.703,0.055-0.984,0.164
			c-0.281,0.109-0.516,0.305-0.703,0.586s-0.328,0.664-0.422,1.148c-0.094,0.484-0.141,1.102-0.141,1.852h-3V-0.5
			c0-0.75,0.098-1.457,0.293-2.121c0.195-0.664,0.504-1.242,0.926-1.734c0.422-0.492,0.965-0.883,1.629-1.172
			c0.664-0.289,1.465-0.434,2.402-0.434s1.738,0.145,2.402,0.434c0.664,0.289,1.207,0.68,1.629,1.172
			c0.422,0.492,0.73,1.07,0.926,1.734S128.69-1.25,128.69-0.5c0,0.469-0.043,0.893-0.129,1.271s-0.199,0.717-0.34,1.014
			c-0.141,0.297-0.301,0.559-0.48,0.785c-0.179,0.226-0.363,0.422-0.551,0.586c-0.438,0.383-0.938,0.664-1.5,0.844
			c0.562,0.188,1.062,0.5,1.5,0.938c0.188,0.188,0.371,0.412,0.551,0.674c0.18,0.262,0.34,0.568,0.48,0.92
			c0.14,0.352,0.254,0.752,0.34,1.201c0.086,0.449,0.129,0.955,0.129,1.518c0,0.938-0.098,1.789-0.293,2.555
			s-0.504,1.418-0.926,1.957c-0.422,0.539-0.965,0.957-1.629,1.254C125.178,15.314,124.377,15.461,123.44,15.461z"/>
		<path d="M137.165,15.461c-0.672,0-1.324-0.115-1.957-0.346c-0.633-0.231-1.193-0.596-1.682-1.096
			c-0.489-0.5-0.879-1.143-1.172-1.928c-0.293-0.785-0.439-1.732-0.439-2.842v-9c0-0.945,0.096-1.754,0.287-2.426
			c0.191-0.672,0.439-1.238,0.744-1.699c0.305-0.461,0.648-0.828,1.031-1.102c0.383-0.274,0.77-0.484,1.16-0.633
			c0.39-0.149,0.764-0.244,1.119-0.287s0.658-0.064,0.908-0.064s0.553,0.021,0.908,0.064c0.355,0.043,0.729,0.139,1.119,0.287
			s0.777,0.359,1.16,0.633c0.383,0.274,0.727,0.641,1.031,1.102c0.304,0.461,0.553,1.027,0.744,1.699
			c0.191,0.672,0.287,1.479,0.287,2.426v9c0,1.109-0.146,2.057-0.439,2.842c-0.293,0.785-0.684,1.428-1.172,1.928
			c-0.488,0.5-1.049,0.865-1.682,1.096C138.487,15.346,137.837,15.461,137.165,15.461z M137.165,13c0.328,0,0.613-0.062,0.855-0.188
			s0.445-0.289,0.609-0.492c0.164-0.203,0.299-0.438,0.404-0.703c0.105-0.265,0.186-0.537,0.24-0.814
			c0.054-0.277,0.092-0.551,0.111-0.82c0.019-0.269,0.029-0.514,0.029-0.732v-9c0-0.227-0.006-0.477-0.018-0.75
			s-0.043-0.549-0.094-0.826c-0.051-0.277-0.123-0.547-0.217-0.809c-0.094-0.262-0.225-0.494-0.393-0.697s-0.377-0.365-0.627-0.486
			c-0.25-0.121-0.551-0.182-0.902-0.182s-0.652,0.061-0.902,0.182c-0.25,0.121-0.459,0.283-0.627,0.486s-0.299,0.436-0.393,0.697
			c-0.094,0.261-0.166,0.531-0.217,0.809c-0.051,0.278-0.082,0.553-0.094,0.826c-0.012,0.273-0.018,0.523-0.018,0.75v9
			c0,0.219,0.01,0.463,0.029,0.732s0.057,0.543,0.111,0.82c0.054,0.277,0.135,0.549,0.24,0.814c0.105,0.265,0.24,0.5,0.404,0.703
			c0.164,0.203,0.367,0.367,0.609,0.492C136.546,12.937,136.837,13,137.165,13z"/>
		<path d="M151.265,15.461c-0.672,0-1.324-0.115-1.957-0.346c-0.633-0.231-1.193-0.596-1.682-1.096
			c-0.489-0.5-0.879-1.143-1.172-1.928c-0.293-0.785-0.439-1.732-0.439-2.842v-9c0-0.945,0.096-1.754,0.287-2.426
			c0.191-0.672,0.439-1.238,0.744-1.699c0.305-0.461,0.648-0.828,1.031-1.102c0.383-0.274,0.77-0.484,1.16-0.633
			c0.39-0.149,0.764-0.244,1.119-0.287s0.658-0.064,0.908-0.064s0.553,0.021,0.908,0.064s0.729,0.139,1.119,0.287
			s0.777,0.359,1.16,0.633c0.383,0.274,0.727,0.641,1.031,1.102c0.304,0.461,0.553,1.027,0.744,1.699
			c0.191,0.672,0.287,1.479,0.287,2.426v9c0,1.109-0.146,2.057-0.439,2.842c-0.293,0.785-0.684,1.428-1.172,1.928
			c-0.488,0.5-1.049,0.865-1.682,1.096C152.587,15.346,151.937,15.461,151.265,15.461z M151.265,13c0.328,0,0.613-0.062,0.855-0.188
			c0.242-0.126,0.445-0.289,0.609-0.492c0.164-0.203,0.299-0.438,0.404-0.703c0.105-0.265,0.186-0.537,0.24-0.814
			c0.054-0.277,0.092-0.551,0.111-0.82s0.029-0.514,0.029-0.732v-9c0-0.227-0.006-0.477-0.018-0.75
			c-0.012-0.273-0.043-0.549-0.094-0.826c-0.051-0.277-0.123-0.547-0.217-0.809c-0.094-0.262-0.225-0.494-0.393-0.697
			s-0.377-0.365-0.627-0.486c-0.25-0.121-0.551-0.182-0.902-0.182c-0.351,0-0.652,0.061-0.902,0.182
			c-0.25,0.121-0.459,0.283-0.627,0.486s-0.299,0.436-0.393,0.697c-0.094,0.261-0.166,0.531-0.217,0.809
			c-0.051,0.278-0.082,0.553-0.094,0.826c-0.012,0.273-0.018,0.523-0.018,0.75v9c0,0.219,0.01,0.463,0.029,0.732
			s0.057,0.543,0.111,0.82c0.054,0.277,0.135,0.549,0.24,0.814c0.105,0.265,0.24,0.5,0.404,0.703
			c0.164,0.203,0.367,0.367,0.609,0.492C150.646,12.937,150.937,13,151.265,13z"/>
		<path d="M159.365,12.25h3v3h-3V12.25z"/>
		<path d="M170.465,15.461c-0.672,0-1.324-0.115-1.957-0.346c-0.633-0.231-1.193-0.596-1.681-1.096
			c-0.488-0.5-0.879-1.143-1.172-1.928c-0.293-0.785-0.439-1.732-0.439-2.842v-9c0-0.945,0.096-1.754,0.287-2.426
			c0.191-0.672,0.439-1.238,0.744-1.699s0.648-0.828,1.03-1.102c0.384-0.273,0.771-0.484,1.16-0.633
			c0.391-0.149,0.765-0.244,1.119-0.287c0.355-0.043,0.658-0.064,0.908-0.064s0.553,0.021,0.908,0.064s0.729,0.139,1.119,0.287
			c0.39,0.148,0.777,0.359,1.16,0.633s0.727,0.641,1.031,1.102c0.303,0.461,0.553,1.027,0.744,1.699
			c0.19,0.672,0.286,1.479,0.286,2.426v9c0,1.109-0.146,2.057-0.438,2.842c-0.293,0.785-0.685,1.428-1.172,1.928
			c-0.488,0.5-1.049,0.865-1.683,1.096C171.788,15.346,171.137,15.461,170.465,15.461z M170.465,13c0.328,0,0.613-0.062,0.855-0.188
			s0.445-0.289,0.609-0.492c0.163-0.203,0.299-0.438,0.403-0.703c0.104-0.265,0.187-0.537,0.24-0.814
			c0.054-0.277,0.092-0.551,0.11-0.82c0.02-0.269,0.029-0.514,0.029-0.732v-9c0-0.227-0.006-0.477-0.018-0.75
			s-0.043-0.549-0.094-0.826c-0.052-0.277-0.123-0.547-0.218-0.809c-0.094-0.262-0.225-0.494-0.393-0.697s-0.378-0.365-0.628-0.486
			c-0.25-0.121-0.551-0.182-0.901-0.182s-0.651,0.061-0.901,0.182c-0.25,0.121-0.459,0.283-0.627,0.486s-0.3,0.436-0.394,0.697
			c-0.095,0.261-0.166,0.531-0.217,0.809c-0.052,0.278-0.082,0.553-0.095,0.826c-0.012,0.273-0.018,0.523-0.018,0.75v9
			c0,0.219,0.01,0.463,0.029,0.732c0.019,0.269,0.057,0.543,0.111,0.82c0.053,0.277,0.135,0.549,0.239,0.814
			c0.104,0.265,0.24,0.5,0.404,0.703c0.164,0.203,0.366,0.367,0.608,0.492S170.137,13,170.465,13z"/>
		<path d="M184.564,15.461c-0.672,0-1.324-0.115-1.957-0.346c-0.633-0.231-1.193-0.596-1.683-1.096s-0.879-1.143-1.172-1.928
			c-0.293-0.785-0.438-1.732-0.438-2.842v-9c0-0.945,0.096-1.754,0.287-2.426c0.19-0.672,0.438-1.238,0.744-1.699
			c0.305-0.461,0.647-0.828,1.03-1.102s0.771-0.484,1.16-0.633s0.764-0.244,1.118-0.287c0.355-0.043,0.658-0.064,0.908-0.064
			s0.554,0.021,0.908,0.064c0.355,0.043,0.729,0.139,1.119,0.287c0.391,0.148,0.777,0.359,1.16,0.633s0.727,0.641,1.031,1.102
			c0.304,0.461,0.553,1.027,0.744,1.699c0.19,0.672,0.287,1.479,0.287,2.426v9c0,1.109-0.146,2.057-0.439,2.842
			c-0.293,0.785-0.684,1.428-1.172,1.928s-1.049,0.865-1.682,1.096C185.887,15.346,185.236,15.461,184.564,15.461z M184.564,13
			c0.328,0,0.612-0.062,0.854-0.188s0.444-0.289,0.608-0.492c0.164-0.203,0.3-0.438,0.404-0.703c0.105-0.265,0.187-0.537,0.24-0.814
			c0.055-0.277,0.092-0.551,0.111-0.82c0.019-0.269,0.029-0.514,0.029-0.732v-9c0-0.227-0.006-0.477-0.019-0.75
			c-0.012-0.273-0.043-0.549-0.094-0.826c-0.052-0.277-0.123-0.547-0.218-0.809c-0.094-0.262-0.225-0.494-0.393-0.697
			s-0.377-0.365-0.627-0.486c-0.25-0.121-0.551-0.182-0.902-0.182c-0.351,0-0.651,0.061-0.901,0.182
			c-0.25,0.121-0.459,0.283-0.627,0.486s-0.3,0.436-0.394,0.697c-0.094,0.261-0.166,0.531-0.217,0.809
			c-0.051,0.278-0.082,0.553-0.094,0.826s-0.018,0.523-0.018,0.75v9c0,0.219,0.01,0.463,0.028,0.732s0.058,0.543,0.111,0.82
			c0.054,0.277,0.135,0.549,0.239,0.814c0.105,0.265,0.24,0.5,0.404,0.703c0.164,0.203,0.367,0.367,0.609,0.492
			S184.236,13,184.564,13z"/>
		<path d="M206.309,15.25l-3-16.569V15.25h-3v-21h4.066l2.986,16.097l2.986-16.097h4.211v21h-3V-1.32l-3,16.57H206.309z"/>
		<path d="M223.404,6.269l-2.963,8.981h-3.01l3.727-10.887l-3.75-10.113h2.986l3.006,8.275l3.008-8.275h2.927l-3.754,10.078
			l3.699,10.922h-2.896L223.404,6.269z"/>
		<path d="M240.625,15.25l-5.367-13.97v13.97h-3v-21h1.969l5.531,13.711V-5.75h3v21H240.625z"/>
	</g>
	<g>
		<path d="M131.249,58c0.729,0,1.367,0.064,1.914,0.195s1.017,0.305,1.411,0.521c0.394,0.217,0.721,0.475,0.981,0.768
			c0.26,0.293,0.465,0.601,0.615,0.923c0.15,0.321,0.255,0.651,0.317,0.991c0.062,0.339,0.093,0.664,0.093,0.977
			c0,0.469-0.041,0.898-0.122,1.289s-0.229,0.742-0.444,1.055c-0.215,0.313-0.504,0.586-0.869,0.82
			c-0.365,0.234-0.83,0.43-1.396,0.586c0.469,0.156,0.895,0.345,1.279,0.566c0.384,0.221,0.713,0.5,0.986,0.834
			c0.273,0.336,0.485,0.744,0.635,1.227s0.225,1.064,0.225,1.748c0,0.734-0.114,1.409-0.342,2.021
			c-0.228,0.611-0.557,1.138-0.986,1.576c-0.429,0.439-0.954,0.783-1.572,1.03c-0.618,0.247-1.318,0.371-2.1,0.371h-4.375V58
			H131.249z M129.999,65.5h1.25c0.208,0,0.43-0.013,0.664-0.039c0.234-0.025,0.467-0.076,0.698-0.15
			c0.231-0.076,0.454-0.184,0.669-0.322c0.215-0.139,0.402-0.325,0.562-0.557c0.16-0.232,0.288-0.516,0.386-0.851
			s0.146-0.737,0.146-1.206c0-0.625-0.111-1.105-0.332-1.445c-0.221-0.339-0.527-0.586-0.918-0.742
			c-0.391-0.155-0.853-0.246-1.387-0.272c-0.534-0.026-1.113-0.039-1.738-0.039V65.5z M129.999,73.625h1.25
			c0.469,0,0.895-0.046,1.279-0.137c0.384-0.092,0.713-0.254,0.986-0.488s0.485-0.554,0.635-0.957
			c0.15-0.402,0.225-0.918,0.225-1.543s-0.075-1.141-0.225-1.543c-0.15-0.403-0.361-0.723-0.635-0.957s-0.602-0.396-0.986-0.488
			c-0.384-0.091-0.811-0.137-1.279-0.137h-1.25V73.625z"/>
		<path d="M144.062,75.686c-0.729,0-1.359-0.086-1.89-0.259c-0.531-0.173-0.981-0.409-1.353-0.713
			c-0.372-0.303-0.67-0.661-0.898-1.073c-0.228-0.414-0.405-0.857-0.532-1.334c-0.127-0.476-0.213-0.974-0.259-1.494
			c-0.046-0.52-0.068-1.041-0.068-1.562V58h2.5v11.257c0,0.313,0.003,0.64,0.01,0.978c0.007,0.34,0.034,0.67,0.083,0.992
			c0.049,0.322,0.122,0.631,0.22,0.924s0.239,0.549,0.425,0.768c0.186,0.218,0.421,0.393,0.708,0.521
			c0.287,0.131,0.638,0.195,1.055,0.195s0.768-0.064,1.055-0.195c0.287-0.131,0.522-0.305,0.708-0.521
			c0.186-0.219,0.327-0.475,0.425-0.768s0.171-0.602,0.22-0.924c0.049-0.322,0.077-0.652,0.083-0.992
			c0.006-0.338,0.01-0.663,0.01-0.978V58h2.5v11.25c0,0.521-0.023,1.042-0.068,1.562c-0.045,0.52-0.132,1.019-0.259,1.494
			c-0.127,0.475-0.304,0.92-0.532,1.332c-0.228,0.413-0.527,0.771-0.898,1.074c-0.371,0.303-0.822,0.54-1.353,0.713
			C145.423,75.6,144.791,75.686,144.062,75.686z"/>
		<path d="M154.687,75.5v-5.625L150.937,58h2.5l2.504,8.75l2.496-8.75h2.232l-3.482,11.875V75.5H154.687z"/>
		<path d="M175.027,75.5l-4.473-11.643V75.5h-2.5V58h1.641l4.609,11.426V58h2.5v17.5H175.027z"/>
		<path d="M188.993,69.875c0,0.781-0.081,1.523-0.244,2.227c-0.163,0.705-0.437,1.318-0.819,1.847
			c-0.384,0.528-0.897,0.946-1.539,1.26c-0.641,0.313-1.439,0.469-2.396,0.469c-0.651,0-1.229-0.071-1.729-0.215
			c-0.502-0.144-0.938-0.342-1.305-0.596s-0.679-0.56-0.934-0.918c-0.254-0.358-0.457-0.752-0.609-1.183
			c-0.152-0.43-0.262-0.889-0.327-1.377s-0.098-0.992-0.098-1.514v-6.25c0-0.521,0.032-1.025,0.098-1.514
			c0.066-0.489,0.175-0.947,0.327-1.377c0.152-0.431,0.355-0.823,0.609-1.183c0.255-0.358,0.565-0.663,0.934-0.918
			c0.368-0.254,0.803-0.452,1.305-0.596c0.5-0.144,1.076-0.215,1.729-0.215c0.957,0,1.757,0.155,2.396,0.469
			c0.641,0.313,1.154,0.731,1.539,1.26c0.383,0.528,0.656,1.144,0.819,1.847s0.244,1.444,0.244,2.227V69.875z M181.493,70.5
			c0,0.469,0.042,0.896,0.127,1.279s0.226,0.713,0.42,0.986c0.194,0.272,0.452,0.484,0.771,0.635
			c0.319,0.149,0.713,0.225,1.183,0.225c0.469,0,0.862-0.075,1.182-0.225c0.32-0.15,0.576-0.361,0.771-0.635
			c0.195-0.274,0.336-0.604,0.421-0.986s0.127-0.812,0.127-1.279V63c0-0.469-0.042-0.896-0.127-1.279s-0.226-0.713-0.421-0.986
			c-0.194-0.272-0.451-0.484-0.771-0.635c-0.319-0.149-0.713-0.225-1.182-0.225c-0.47,0-0.862,0.075-1.183,0.225
			c-0.319,0.15-0.576,0.361-0.771,0.635c-0.194,0.274-0.335,0.604-0.42,0.986s-0.127,0.812-0.127,1.279V70.5z"/>
		<path d="M199.305,58l1.156,8.138l0.709,4.987l0.893-4.954L203.057,58h2.5l-3.135,17.5h-2.49l-1.166-8.161l-0.715-5.001
			l-0.715,5.001L196.17,75.5h-2.699L190.557,58h2.51l1.24,8.125l0.635,5l0.709-4.987L196.807,58H199.305z"/>
	</g>
	<g>
		<path d="M90.183,30.386c0-0.05,0.015-0.12,0.045-0.21l3.555-9.855c0.051-0.16,0.25-0.24,0.6-0.24h0.436
			c0.35,0,0.551,0.08,0.6,0.24l3.555,9.87c0.031,0.07,0.045,0.135,0.045,0.195c0,0.17-0.215,0.255-0.645,0.255h-0.119
			c-0.352,0-0.551-0.08-0.6-0.24l-0.887-2.46h-4.408l-0.855,2.46c-0.051,0.16-0.25,0.24-0.601,0.24h-0.075
			C90.397,30.641,90.183,30.557,90.183,30.386z M92.778,26.801h3.584l-1.574-4.47l-0.195-0.87l-0.24,0.87L92.778,26.801z"/>
		<path d="M101.103,30.312v-9.75c0-0.3,0.15-0.45,0.45-0.45h2.52c1.2,0,2.103,0.212,2.708,0.638
			c0.604,0.425,0.907,1.097,0.907,2.017c0,1.23-0.575,2.075-1.725,2.535v0.06c0.289,0.1,0.532,0.295,0.728,0.585
			c0.194,0.29,0.402,0.72,0.622,1.29l1.17,2.955c0.03,0.09,0.045,0.16,0.045,0.21c0,0.16-0.21,0.24-0.63,0.24h-0.15
			c-0.34,0-0.54-0.08-0.6-0.24l-1.14-2.94c-0.221-0.57-0.495-0.958-0.825-1.163s-0.801-0.308-1.41-0.308h-1.35v4.32
			c0,0.22-0.2,0.33-0.601,0.33h-0.12C101.303,30.641,101.103,30.531,101.103,30.312z M102.423,24.852h1.979
			c0.53,0,0.982-0.183,1.357-0.548c0.375-0.365,0.562-0.82,0.562-1.365s-0.18-0.962-0.54-1.252c-0.359-0.29-0.854-0.435-1.484-0.435
			h-1.875V24.852z"/>
		<path d="M111.287,29.329c-0.79-0.915-1.185-2.247-1.185-3.997s0.392-3.073,1.177-3.968s1.933-1.342,3.442-1.342
			s2.66,0.447,3.45,1.342s1.186,2.218,1.186,3.968s-0.396,3.083-1.186,3.997c-0.79,0.915-1.938,1.373-3.442,1.373
			S112.077,30.244,111.287,29.329z M112.3,28.481c0.555,0.72,1.362,1.08,2.422,1.08c1.061,0,1.87-0.36,2.431-1.08
			c0.56-0.72,0.84-1.768,0.84-3.143s-0.28-2.415-0.84-3.12c-0.561-0.705-1.37-1.058-2.431-1.058c-1.06,0-1.867,0.353-2.422,1.058
			c-0.556,0.705-0.833,1.745-0.833,3.12S111.744,27.761,112.3,28.481z"/>
		<path d="M121.907,27.251v-6.84c0-0.22,0.2-0.33,0.6-0.33h0.12c0.4,0,0.601,0.11,0.601,0.33v6.885c0,0.66,0.262,1.203,0.787,1.627
			c0.525,0.425,1.188,0.638,1.987,0.638s1.463-0.212,1.987-0.638c0.525-0.425,0.788-0.967,0.788-1.627v-6.885
			c0-0.22,0.199-0.33,0.6-0.33h0.12c0.399,0,0.6,0.11,0.6,0.33v6.84c0,1.09-0.354,1.938-1.064,2.542s-1.723,0.907-3.038,0.907
			c-1.314,0-2.324-0.302-3.029-0.907S121.907,28.341,121.907,27.251z"/>
		<path d="M133.142,30.312v-9.9c0-0.22,0.2-0.33,0.601-0.33h0.314c0.28,0,0.49,0.095,0.63,0.285l4.785,7.23l0.45,0.84v-8.025
			c0-0.22,0.2-0.33,0.601-0.33h0.104c0.399,0,0.6,0.11,0.6,0.33v9.9c0,0.22-0.2,0.33-0.6,0.33h-0.3c-0.261,0-0.436-0.07-0.525-0.21
			l-4.95-7.47l-0.404-0.765v8.115c0,0.22-0.2,0.33-0.601,0.33h-0.104C133.342,30.641,133.142,30.531,133.142,30.312z"/>
		<path d="M144.481,30.161v-9.6c0-0.3,0.15-0.45,0.45-0.45h3.029c1.4,0,2.522,0.417,3.368,1.252c0.845,0.835,1.268,2.17,1.268,4.005
			c0,1.835-0.423,3.168-1.268,3.998c-0.846,0.83-1.968,1.245-3.368,1.245h-3.029C144.632,30.611,144.481,30.461,144.481,30.161z
			 M145.802,29.471h2.055c1.01,0,1.825-0.33,2.445-0.99c0.619-0.66,0.93-1.697,0.93-3.113c0-1.415-0.311-2.455-0.93-3.12
			c-0.62-0.665-1.436-0.998-2.445-0.998h-2.055V29.471z"/>
		<path d="M158.477,29.606c0-0.12,0.067-0.285,0.202-0.495s0.242-0.315,0.322-0.315c0.03,0,0.15,0.065,0.36,0.195
			c0.21,0.13,0.502,0.265,0.877,0.405s0.777,0.215,1.208,0.225v-3.87c-0.38-0.15-0.652-0.26-0.817-0.33s-0.4-0.195-0.705-0.375
			c-0.306-0.18-0.532-0.36-0.683-0.54c-0.38-0.48-0.57-1.07-0.57-1.77c0-0.7,0.25-1.29,0.75-1.77s1.175-0.765,2.025-0.855v-0.63
			c0-0.16,0.1-0.24,0.3-0.24s0.3,0.08,0.3,0.24v0.6c0.5,0.01,1.021,0.097,1.561,0.262s0.81,0.363,0.81,0.593
			c0,0.11-0.062,0.27-0.188,0.48s-0.218,0.315-0.277,0.315s-0.17-0.045-0.33-0.135c-0.49-0.27-1.015-0.415-1.575-0.435v3.495
			c0.46,0.16,0.808,0.295,1.043,0.405c0.234,0.11,0.522,0.285,0.862,0.525c0.64,0.46,0.96,1.147,0.96,2.062s-0.255,1.63-0.765,2.145
			c-0.511,0.515-1.21,0.812-2.101,0.893v0.75c0,0.159-0.1,0.24-0.3,0.24s-0.3-0.081-0.3-0.24v-0.735
			c-0.79-0.02-1.482-0.152-2.077-0.397C158.773,30.059,158.477,29.826,158.477,29.606z M160.411,21.739
			c-0.25,0.275-0.375,0.625-0.375,1.05c0,0.425,0.12,0.757,0.36,0.997c0.239,0.24,0.59,0.456,1.05,0.645v-3.225
			C161.006,21.287,160.661,21.464,160.411,21.739z M163.134,28.961c0.274-0.33,0.412-0.723,0.412-1.178
			c0-0.455-0.13-0.815-0.39-1.08c-0.26-0.265-0.63-0.502-1.11-0.712v3.585C162.496,29.497,162.858,29.292,163.134,28.961z"/>
		<path d="M166.485,30.161v-0.18c0-0.3,0.101-0.45,0.301-0.45h2.609v-8.085l-2.654,0.45c-0.091,0-0.163-0.085-0.218-0.255
			c-0.056-0.17-0.083-0.332-0.083-0.487c0-0.155,0.091-0.257,0.271-0.308l3.479-0.765c0.12,0,0.228,0.03,0.323,0.09
			c0.095,0.06,0.143,0.135,0.143,0.225v9.135h2.22c0.2,0,0.3,0.15,0.3,0.45v0.18c0,0.3-0.1,0.45-0.3,0.45h-6.09
			C166.586,30.611,166.485,30.461,166.485,30.161z"/>
		<path d="M174.961,30.161v-0.18c0-0.3,0.101-0.45,0.301-0.45h2.609v-8.085l-2.654,0.45c-0.091,0-0.163-0.085-0.218-0.255
			c-0.056-0.17-0.083-0.332-0.083-0.487c0-0.155,0.091-0.257,0.271-0.308l3.479-0.765c0.12,0,0.228,0.03,0.323,0.09
			c0.095,0.06,0.143,0.135,0.143,0.225v9.135h2.22c0.2,0,0.3,0.15,0.3,0.45v0.18c0,0.3-0.1,0.45-0.3,0.45h-6.09
			C175.062,30.611,174.961,30.461,174.961,30.161z"/>
		<path d="M190.216,25.361c0,1.76-0.327,3.09-0.982,3.99c-0.655,0.9-1.47,1.35-2.445,1.35c-0.975,0-1.787-0.45-2.438-1.35
			c-0.649-0.9-0.975-2.23-0.975-3.99c0-1.76,0.325-3.09,0.975-3.99c0.65-0.9,1.463-1.35,2.438-1.35c0.976,0,1.79,0.45,2.445,1.35
			C189.889,22.271,190.216,23.602,190.216,25.361z M184.651,25.361c0,1.46,0.204,2.535,0.614,3.225s0.918,1.035,1.522,1.035
			c0.605,0,1.115-0.345,1.53-1.035s0.623-1.765,0.623-3.225s-0.208-2.535-0.623-3.225s-0.925-1.035-1.53-1.035
			c-0.604,0-1.112,0.345-1.522,1.035S184.651,23.901,184.651,25.361z"/>
		<path d="M192.03,30.312v-0.99c0-0.22,0.2-0.33,0.601-0.33h0.255c0.399,0,0.6,0.11,0.6,0.33v0.99c0,0.22-0.2,0.33-0.6,0.33h-0.255
			C192.23,30.641,192.03,30.531,192.03,30.312z"/>
		<path d="M202.11,25.361c0,1.76-0.327,3.09-0.982,3.99c-0.655,0.9-1.47,1.35-2.445,1.35c-0.975,0-1.787-0.45-2.438-1.35
			c-0.649-0.9-0.975-2.23-0.975-3.99c0-1.76,0.325-3.09,0.975-3.99c0.65-0.9,1.463-1.35,2.438-1.35c0.976,0,1.79,0.45,2.445,1.35
			C201.783,22.271,202.11,23.602,202.11,25.361z M196.546,25.361c0,1.46,0.204,2.535,0.614,3.225s0.918,1.035,1.522,1.035
			c0.605,0,1.115-0.345,1.53-1.035s0.623-1.765,0.623-3.225s-0.208-2.535-0.623-3.225s-0.925-1.035-1.53-1.035
			c-0.604,0-1.112,0.345-1.522,1.035S196.546,23.901,196.546,25.361z"/>
		<path d="M210.585,25.361c0,1.76-0.327,3.09-0.982,3.99c-0.655,0.9-1.47,1.35-2.445,1.35c-0.975,0-1.787-0.45-2.438-1.35
			c-0.649-0.9-0.975-2.23-0.975-3.99c0-1.76,0.325-3.09,0.975-3.99c0.65-0.9,1.463-1.35,2.438-1.35c0.976,0,1.79,0.45,2.445,1.35
			C210.258,22.271,210.585,23.602,210.585,25.361z M205.021,25.361c0,1.46,0.204,2.535,0.614,3.225s0.918,1.035,1.522,1.035
			c0.605,0,1.115-0.345,1.53-1.035s0.623-1.765,0.623-3.225s-0.208-2.535-0.623-3.225s-0.925-1.035-1.53-1.035
			c-0.604,0-1.112,0.345-1.522,1.035S205.021,23.901,205.021,25.361z"/>
		<path d="M216.931,27.251v-6.84c0-0.22,0.2-0.33,0.6-0.33h0.12c0.4,0,0.601,0.11,0.601,0.33v6.885c0,0.66,0.262,1.203,0.787,1.627
			c0.525,0.425,1.188,0.638,1.987,0.638s1.463-0.212,1.987-0.638c0.525-0.425,0.788-0.967,0.788-1.627v-6.885
			c0-0.22,0.199-0.33,0.6-0.33h0.12c0.399,0,0.6,0.11,0.6,0.33v6.84c0,1.09-0.354,1.938-1.064,2.542s-1.723,0.907-3.038,0.907
			c-1.314,0-2.324-0.302-3.029-0.907S216.931,28.341,216.931,27.251z"/>
		<path d="M227.37,29.606c0-0.12,0.067-0.285,0.203-0.495c0.135-0.21,0.242-0.315,0.322-0.315c0.03,0,0.155,0.062,0.375,0.188
			s0.53,0.252,0.93,0.382c0.4,0.13,0.857,0.195,1.373,0.195c0.515,0,0.954-0.165,1.319-0.495s0.548-0.75,0.548-1.26
			c0-0.51-0.168-0.915-0.503-1.215s-0.739-0.538-1.215-0.712c-0.475-0.175-0.952-0.362-1.433-0.562
			c-0.479-0.2-0.887-0.51-1.222-0.93c-0.336-0.42-0.503-0.955-0.503-1.605c0-0.83,0.305-1.498,0.915-2.002
			c0.609-0.505,1.415-0.757,2.415-0.757c0.49,0,1.015,0.09,1.575,0.27c0.56,0.18,0.84,0.395,0.84,0.645
			c0,0.11-0.062,0.27-0.188,0.48s-0.223,0.315-0.293,0.315c-0.04,0-0.145-0.05-0.314-0.15c-0.51-0.28-1.061-0.42-1.65-0.42
			s-1.06,0.143-1.41,0.428c-0.35,0.285-0.524,0.703-0.524,1.252c0,0.55,0.324,0.98,0.975,1.29c0.28,0.13,0.595,0.257,0.945,0.382
			c0.35,0.125,0.697,0.27,1.042,0.435c0.346,0.165,0.66,0.358,0.945,0.578c0.285,0.22,0.518,0.52,0.697,0.9
			c0.181,0.38,0.271,0.82,0.271,1.32c0,0.92-0.3,1.643-0.9,2.168c-0.6,0.525-1.36,0.787-2.28,0.787s-1.692-0.125-2.317-0.375
			C227.683,30.077,227.37,29.836,227.37,29.606z"/>
		<path d="M236.22,30.161v-9.6c0-0.3,0.15-0.45,0.45-0.45h3.029c1.4,0,2.522,0.417,3.368,1.252c0.845,0.835,1.268,2.17,1.268,4.005
			c0,1.835-0.423,3.168-1.268,3.998c-0.846,0.83-1.968,1.245-3.368,1.245h-3.029C236.37,30.611,236.22,30.461,236.22,30.161z
			 M237.54,29.471h2.055c1.01,0,1.825-0.33,2.445-0.99c0.619-0.66,0.93-1.697,0.93-3.113c0-1.415-0.311-2.455-0.93-3.12
			c-0.62-0.665-1.436-0.998-2.445-0.998h-2.055V29.471z"/>
	</g>
</g>
</svg>
