<?xml version="1.0" encoding="utf-8"?>
<!-- Generator: Adobe Illustrator 16.0.0, SVG Export Plug-In . SVG Version: 6.00 Build 0)  -->
<!DOCTYPE svg PUBLIC "-//W3C//DTD SVG 1.1//EN" "http://www.w3.org/Graphics/SVG/1.1/DTD/svg11.dtd">
<svg version="1.1" id="Capa_2" xmlns="http://www.w3.org/2000/svg" xmlns:xlink="http://www.w3.org/1999/xlink" x="0px" y="0px"
	 width="472px" height="170px" viewBox="0 0 472 170" enable-background="new 0 0 472 170" xml:space="preserve">
<g>
	<g>
		<g>
			<path fill="#FFFFFF" d="M54.583,106.004l-4.455-4.057l-5.656,6.213l-8.159-7.426c-2.887-2.628-3.537-4.941-0.624-8.141
				c2.686-2.951,7.418-3.234,12.125,1.051l2.636,2.399l3.597-3.953L40.369,79.636l-22.453,24.666l3.579,3.257l2.14-1.724
				c1.395-1.025,3.9-0.123,6.849,2.563l21.716,19.767c2.887,2.628,4.312,4.844,3.192,6.578l-1.513,2.294l3.579,3.258l22.449-24.667
				l-14.184-12.911l-3.599,3.954l3.076,2.799c3.892,3.541,6.121,7.522,2.123,11.916c-2.917,3.2-5.591,2.486-8.102,0.2l-10.293-9.369
				L54.583,106.004z"/>
			<path fill="#FFFFFF" d="M82.82,97.221c2.316,3.144,3.225,5.529,1.836,7.077l-1.936,1.952l2.868,3.896l28.844-21.225
				l-10.311-14.013l-4.305,3.168l2.765,3.76c2.415,3.281,1.862,6.109-2.921,9.631c-4.991,3.673-7.556,2.188-10.423-1.708
				L73.141,67.887c-2.363-3.212-3.001-5.798-1.835-7.077l1.937-1.951l-2.867-3.896L53.901,67.084l2.867,3.896l2.439-1.267
				c1.57-0.733,3.847,0.646,6.209,3.858L82.82,97.221z"/>
			<path fill="#FFFFFF" d="M77.479,81.659c-1.349-2.695-1.605-4.616-1.333-6.395c-2.233-0.886-4.794-2.793-9.045-7.568
				c3.294,5.479,4.352,8.493,4.535,10.887c1.779,0.271,3.537,1.084,5.641,3.226L77.479,81.659z"/>
			<path fill="#FFFFFF" d="M156.031,29.567c-3.88-10.507-10.9-12.752-20.663-9.063l-22.385,8.463l1.71,4.525l2.691-0.564
				c1.709-0.282,3.53,1.66,4.941,5.391l10.382,27.466c1.379,3.652,1.614,6.193-0.14,7.311l-2.39,1.357l1.712,4.524l19.209-7.263
				l-1.712-4.524l-2.689,0.562c-2.136,0.354-3.64-1.709-5.021-5.359l-3.991-10.558l7.461-2.821
				C154.277,45.563,159.463,38.885,156.031,29.567z M133.917,46.184l-3.901-10.319c-1.801-4.762-0.167-6.922,3.087-8.153
				l4.126-1.561c3.97-1.501,8.147,0.187,10.246,5.744c1.741,4.604,0.334,9.038-3.874,10.628L133.917,46.184z"/>
			<path fill="#FFFFFF" d="M217.143,42.748l-0.583-3.86l-4.868,0.733l0.582,3.861c0.279,1.847,0.361,4.667-0.899,4.857
				c-1.343,0.202-2.02-2.013-3.161-6.734c-1.116-4.552-2.688-7.577-5.857-9.244l-0.025-0.168c2.923-2.244,5.291-6.463,4.277-13.177
				c-1.303-8.646-7.15-13.256-17.892-11.637L165.05,10.95l0.723,4.786l2.75,0.013c1.728,0.084,3.103,2.365,3.696,6.31l4.38,29.038
				c0.582,3.86,0.278,6.396-1.673,7.12l-2.622,0.824l0.722,4.784l20.73-3.126l-0.722-4.784l-1.969,0.04
				c-3.07,0.12-4.399-2.426-4.98-6.286l-1.672-11.078l7.89-1.19c3.858-0.582,5.999,4.503,7.237,9.294
				c2.719,10.062,5.635,12.884,11.676,11.972C216.167,57.916,218.901,54.413,217.143,42.748z M192.166,30.808l-10.239,1.544
				l-1.671-11.078c-0.672-4.448,0.031-6.615,3.472-7.132l5.624-0.85c4.532-0.683,7.962,2.147,8.812,7.77
				C199.062,27.021,195.271,30.34,192.166,30.808z"/>
			<path fill="#FFFFFF" d="M230.873,46.331c-0.188,3.898-0.987,6.324-3.042,6.649l-2.732,0.292l-0.235,4.832l20.517,0.996
				l0.231-4.833l-2.69-0.555c-2.1-0.527-2.658-3.019-2.468-6.917l1.423-29.331c0.193-3.985,1.329-6.394,3.043-6.651l2.731-0.292
				l0.235-4.832L227.455,4.7l-0.232,4.832l2.692,0.555c1.681,0.421,2.577,2.929,2.385,6.913L230.873,46.331z"/>
			<path fill="#FFFFFF" d="M294.934,39.71l5.595-24.578l-5.628-1.281c-0.488,2.151-1.099,2.535-1.926,2.347
				c-0.994-0.227-2.498-1.265-3.655-2.312c-1.906-1.566-3.943-2.552-6.345-3.098c-10.427-2.373-19.43,6.197-21.407,14.887
				l-3.125,13.737c-2.298,10.096,0.255,21.82,13.331,24.795c11.998,2.732,18.73-5.049,20.746-13.905l-8.523-1.94
				c-2.093,9.186-5.805,11.736-10.771,10.604c-4.883-1.111-6.025-6.419-4.535-12.956l5.01-22.014
				c1.052-4.636,3.085-8.961,8.046-7.831c6.456,1.47,6.525,13.41,4.657,21.603L294.934,39.71z"/>
			<path fill="#FFFFFF" d="M306.228,61.768c-1.511,3.599-3.09,5.606-5.133,5.21l-2.669-0.66l-1.871,4.46l18.938,7.949l1.872-4.46
				l-2.34-1.443c-1.792-1.212-1.468-3.744,0.046-7.344l11.367-27.077c1.541-3.677,3.436-5.553,5.133-5.208l2.668,0.659l1.873-4.461
				l-18.859-7.917l-1.874,4.46l2.343,1.442c1.433,0.971,1.417,3.635-0.125,7.312L306.228,61.768z"/>
			<path fill="#FFFFFF" d="M353.306,52.093l0.144,0.093l-9.942,42.857l8.277,5.33l22.427-34.815c2.158-3.354,4.347-4.871,6.03-4.192
				l2.44,1.068l2.622-4.065l-13.701-8.826l-2.618,4.068l2.051,1.826c1.246,1.206,0.768,3.826-1.393,7.178l-9.972,15.482L359.6,78.05
				l7.082-31.678L350.7,36.079l-2.618,4.066l2.052,1.827c1.244,1.205,0.766,3.825-1.396,7.177l-15.899,24.685
				c-2.112,3.282-4.016,4.984-5.962,4.238l-2.513-1.115l-2.618,4.067l13.057,8.41l2.617-4.067l-1.339-1.368
				c-1.507-1.576-0.791-3.941,1.324-7.223L353.306,52.093z"/>
			<path fill="#FFFFFF" d="M396.017,123.268c1.745-1.734,3.486-2.749,4.925-1.304l2.032,2.047l4.577-4.547l-12.263-12.341
				l-4.577,4.547l0.959,0.963c1.195,1.205,1.25,3.064-1.037,5.339c-4.999,4.965-8.774,3.093-11.347,0.503
				c-3.829-3.852-0.567-10.323,2.804-13.673l16.015-15.914c3.371-3.351,7.401-5.919,10.988-2.308
				c4.667,4.695-1.724,14.759-7.625,20.743l6.163,6.2l17.879-17.769l-4.067-4.095c-0.783,0.777-2.165,1.674-2.883,0.952
				c-0.9-0.903-1.312-2.525-1.847-3.907c-0.774-2.223-1.969-4.268-3.704-6.014c-7.837-7.885-19.188-5.7-25.987,1.06l-10.056,9.993
				c-7.344,7.298-11.461,18.568-2.486,27.6c1.916,1.925,3.947,3.612,5.325,4.156c1.379,0.545,2.639,0.969,3.297,1.629
				c0.66,0.663,0.536,1.624,0.232,2.403l3.169,3.19L396.017,123.268z"/>
		</g>
	</g>
	<g>
		<g>
			<path d="M27.454,101.509l-2.231,1.633l-5.692-5.344l24.682-26.302l10.842,1.098L69.66,86.301l-6.1,6.497l-9.337-0.964
				l-2.166-2.035c-1.299-1.219-2.332-1.607-3.262-0.616c-0.987,1.052-0.462,2.476,0.771,3.518l1.605,1.391l12.352,1.351l2.786,2.613
				l2.905-3.096l10.965,1.213l14.977,14.057l-25.497,27.168l-8.916-0.92l-5.693-5.343l1.893-2.762
				c0.857-1.408-0.47-3.467-2.635-5.499l-21.103-19.806C30.36,100.396,28.681,100.448,27.454,101.509z M58.326,99.99l-4.394-4.125
				l-5.748,6.128l-8.047-7.552c-2.847-2.67-3.46-4.994-0.498-8.15c2.73-2.908,7.465-3.119,12.107,1.238l2.6,2.438l3.66-3.898
				L44.514,73.407L21.689,97.729l3.527,3.311l2.169-1.69c1.408-1.006,3.9-0.063,6.81,2.666l21.413,20.096
				c2.846,2.673,4.238,4.91,3.093,6.628l-1.549,2.271l3.527,3.31l22.826-24.321L69.518,96.874l-3.66,3.897l3.031,2.847
				c3.836,3.602,6.006,7.616,1.939,11.948c-2.961,3.156-5.628,2.399-8.102,0.075l-10.149-9.524L58.326,99.99z M44.58,75.448
				l11.387,10.687l-1.625,1.731l-1.547-1.451c-6.436-6.04-11.591-3.895-14.205-1.112c-3.892,4.149-2.157,7.756,0.506,10.253
				l9.159,8.597l5.808-6.188l1.485,1.393c-1.83,0.959-3.279,2.627-3.945,4.328c-1.715,0.835-3.169,2.263-4.011,4.148
				c1.152,0.385,3.091,0.924,4.891,0.866c1.17,2.845,3.378,6.196,8.232,11.567c-5.667-4.504-9.152-6.493-12.066-7.481
				c-0.056-1.801-0.718-3.7-1.231-4.766c-1.308,0.401-2.121,1.268-2.149,2.29l-10.026-9.409c-4.703-4.413-7.097-4.218-8.392-3.336
				l-1.757,1.377l-1.362-1.278L44.58,75.448z M47.525,107.778c-1.817-2.405-2.416-4.247-2.531-5.985
				c-2.298-0.526-5.166-1.939-10.211-5.861c4.233,4.789,5.822,7.562,6.438,9.885c1.799-0.058,3.676,0.423,6.133,2.147
				L47.525,107.778z M68.383,110.357c0.99,0.93,2.15,1.555,2.731,0.934c0.698-0.743,0.316-3.312-3.335-6.738l-0.991-0.93
				l-2.613,2.785L68.383,110.357z"/>
			<path d="M100.941,81.801c1.329,1.866,3.058,1.364,4.162,0.576c1.312-0.935,1.375-3.48-0.446-6.038l-2.757-3.87l6.703-4.776
				l10.158,3.287l10.982,15.412L97.466,109.39l-8.56-2.654l-4.53-6.358l2.399-2.334c1.115-1.212,0.221-3.492-1.503-5.911
				L68.479,68.564c-2.265-3.178-3.921-3.457-5.333-2.66l-2.507,1.162l-4.53-6.358l19.144-13.641l9.94,3.128l3.891,5.459
				l-1.895,1.872c-1.147,1.024-1.218,3.264,1.441,6.997L100.941,81.801z M86.693,91.641c2.268,3.178,3.141,5.576,1.728,7.104
				l-1.964,1.921l2.808,3.939l29.166-20.782l-10.097-14.168l-4.354,3.103l2.708,3.801c2.363,3.318,1.769,6.138-3.069,9.586
				c-5.045,3.595-7.589,2.073-10.397-1.866L77.464,62.161c-2.315-3.247-2.914-5.843-1.727-7.104l1.964-1.921l-2.807-3.939
				L58.238,61.064l2.808,3.94l2.458-1.23c1.578-0.708,3.838,0.705,6.15,3.953L86.693,91.641z M70.899,66.839
				c-3.744-5.252-6.132-5.532-7.571-4.921l-1.995,1.005l-1.083-1.521l14.308-10.196l1.082,1.521l-1.6,1.557
				c-1.047,1.163-1.564,3.511,2.18,8.762l7.976,11.196c-1.085-0.061-2.052,0.629-2.558,1.822c1.055,0.602,2.849,1.512,4.625,1.81
				c0.586,3.021,2.093,6.74,5.794,12.961c-4.67-5.531-7.695-8.168-10.356-9.71c0.298-1.776,0.023-3.768-0.27-4.914
				c-1.362,0.137-2.26,0.777-2.558,1.822L70.899,66.839z M81.592,75.998c-1.308-2.714-1.533-4.638-1.235-6.415
				c-2.218-0.919-4.752-2.866-8.929-7.704c3.208,5.528,4.224,8.557,4.368,10.956c1.775,0.298,3.521,1.139,5.591,3.311L81.592,75.998
				z"/>
			<path d="M163.366,66.628l2.19,6.067l-22.911,8.269l-7.53-4.862l-2.649-7.344l2.942-1.602c1.401-0.867,1.153-3.304,0.145-6.099
				l-9.825-27.22c-1.326-3.671-2.846-4.387-4.419-3.999l-2.728,0.443l-2.65-7.344l24.668-8.901
				c12.691-4.582,26.396,4.639,29.88,14.299c3.977,11.016-2.185,19.195-11.477,22.457l-6.415,2.225l3.14,8.702L163.366,66.628z
				 M149.746,44.387c9.179-3.313,14.467-9.914,11.177-19.281c-3.723-10.567-10.707-12.918-20.525-9.376l-22.512,8.124l1.644,4.551
				l2.699-0.523c1.712-0.256,3.503,1.713,4.859,5.464l9.967,27.621c1.324,3.671,1.521,6.218-0.251,7.308l-2.41,1.321l1.643,4.549
				l19.317-6.971l-1.643-4.549l-2.699,0.522c-2.141,0.321-3.615-1.763-4.938-5.435l-3.832-10.617L149.746,44.387z M128.522,32.827
				c-2.19-6.067-4.413-6.979-5.963-6.779l-2.191,0.429l-0.634-1.756l21.076-7.604c8.3-2.997,14.989-1.711,18.705,8.586
				c1.557,4.311,0.843,8.086-0.808,10.758c-1.429-0.207-1.958,0.075-3.643,1.404c-1.749-0.091-3.185,0.427-4.471,1.614
				c-1.907-0.034-3.504,0.542-4.869,1.757c-1.748-0.092-3.503,0.542-4.87,1.757c-1.826-0.063-3.184,0.427-4.55,1.642
				c0.854,0.865,2.336,2.224,3.966,2.99c-0.247,3.066,0.201,7.055,2.09,14.042c-3.006-6.583-5.131-9.967-7.278-12.17
				c0.765-1.629,0.958-3.593,0.983-4.775c-1.348-0.235-2.306,0.111-2.874,1.038L128.522,32.827z M136.274,44.556
				c-0.609-2.937-0.228-4.88,0.378-6.452c-1.729-1.542-3.726-4.068-6.445-9.854c1.603,6.188,1.761,9.379,1.415,11.67
				c1.469,0.823,2.925,2.102,4.332,4.753L136.274,44.556z M138.558,41.386l9.741-3.516c4.229-1.527,5.708-5.937,4.036-10.567
				c-2.017-5.588-6.167-7.339-10.158-5.899l-4.152,1.499c-3.272,1.182-4.937,3.317-3.21,8.106L138.558,41.386z M136.25,30.49
				c-1.354-3.752-0.211-5.337,2.104-6.173l4.549-1.642c2.636-0.951,6.178,0.116,7.993,5.146c1.382,3.833-0.404,7.634-3.038,8.584
				l-8.382,3.025L136.25,30.49z M146.642,30.53c-0.959,0.347-1.6,1.57-1.022,3.166l0.748,2.075l1.039-0.375
				c1.916-0.691,2.872-3.292,2.44-4.489c-0.316-0.879-0.968-1.186-1.767-0.897L146.642,30.53z M155.193,37.729
				c1.361-2.476,2.717-5.22,3.89-7.719c-0.9-2.743-3.228-5.692-6.843-9.711c3.083,5.293,3.472,9.123,2.372,11.324
				c0.925,1.561,1.158,3.461,0.262,6.223L155.193,37.729z"/>
			<path d="M175.799,18.042c-0.523-3.869-1.859-4.887-3.482-4.839l-2.76-0.142l-1.047-7.738l25.99-3.516
				c15.307-2.07,24.648,10.627,25.969,20.383c0.737,5.467-1.406,9.868-4.667,12.364l5.804-0.786l7.581,7.283l0.67,4.962
				c1.479,10.934-1.759,15.483-8.572,16.404c-4.711,0.638-10.262-1.781-14.167-7.847c-3.238-4.958-4.516-12.494-5.333-14.096
				l-3.952,0.535l1.33,9.84l6.772,6.364l0.968,7.149l-24.475,3.311l-6.341-6.336l-1.044-7.737l3.211-0.949
				c1.553-0.553,1.822-2.987,1.425-5.93L175.799,18.042z M197.074,33.493c3.87-0.524,5.93,4.594,7.096,9.403
				c2.565,10.102,5.437,12.967,11.492,12.149c4.963-0.672,7.75-4.131,6.169-15.823l-0.523-3.869l-4.878,0.659l0.523,3.869
				c0.25,1.851,0.289,4.671-0.973,4.842c-1.346,0.182-1.99-2.043-3.058-6.781c-1.048-4.569-2.572-7.617-5.717-9.333l-0.021-0.168
				c2.956-2.198,5.389-6.382,4.477-13.109c-1.172-8.664-6.947-13.364-17.712-11.907L170.23,6.635l0.65,4.793l2.748,0.057
				c1.728,0.108,3.066,2.412,3.602,6.364l3.936,29.102c0.524,3.87,0.181,6.4-1.781,7.094l-2.635,0.784l0.648,4.793l20.775-2.81
				l-0.649-4.794l-1.967,0.009c-3.074,0.072-4.365-2.493-4.887-6.361l-1.502-11.103L197.074,33.493z M194.057,4.867
				c8.748-1.184,14.889,1.154,16.175,10.66c0.819,6.055-1.217,10.013-4.497,12.342c-0.765-0.582-1.942-0.422-3.366,0.456
				c2.118,1.083,3.264,1.956,4.847,3.541c1.387,2.639,2.329,6.451,3.129,13.623c-2.082-7.17-5.489-10.82-8.595-12.882
				c0.577-1.45,0.73-2.84,0.284-4.236c-1.268-0.514-2.445-0.354-3.952,0.534c-1.606-0.467-3.203-0.251-4.626,0.625
				c-1.688-0.456-3.371-0.229-4.878,0.66c-1.688-0.457-3.202-0.251-4.71,0.636c0.568,1.038,1.902,2.655,3.25,3.758
				c-0.887,2.946-1.289,6.94-0.995,14.18c-1.555-7.069-3.002-10.812-4.473-13.44c0.922-1.409,1.609-3.301,1.881-4.451
				c-1.436-0.492-2.279-0.377-2.944,0.398l-1.843-13.625c-0.865-6.393-2.846-7.751-4.405-7.883l-2.233-0.039l-0.25-1.851
				L194.057,4.867z M183.856,30.742c0.02-3,0.802-4.82,1.894-6.251c-1.535-1.848-2.954-4.739-4.397-10.968
				c0.434,6.366-0.083,9.518-1.071,11.707c1.264,1.115,2.418,2.671,3.235,5.559L183.856,30.742z M188.857,10.11
				c-3.449,0.466-4.186,2.621-3.583,7.078l1.503,11.103l10.261-1.389c3.112-0.42,6.953-3.681,6.146-9.653
				c-0.762-5.634-4.15-8.517-8.691-7.902L188.857,10.11z M194.939,10.743c2.775-0.376,6.014,1.413,6.732,6.711
				c0.616,4.542-1.977,7.547-4.754,7.924l-8.83,1.194l-1.297-9.588c-0.546-4.037,0.41-5.194,2.176-5.433L194.939,10.743z
				 M196.521,19.265c-0.927,0.125-1.473,1.142-1.247,2.824l0.286,2.103l1.43-0.193c1.431-0.194,3.232-2.065,3.016-3.663
				c-0.114-0.841-0.878-1.423-1.549-1.332L196.521,19.265z M202.36,28.239c2.524-2.226,4.662-4.142,6.773-6.912
				c-0.34-2.523-1.539-6.301-4.564-10.945c2.646,5.637,1.188,9.431-0.108,11.234c0.044,2.221-1.044,4.938-2.438,6.667L202.36,28.239
				z"/>
			<path d="M235.936,13.616c0.249-3.896-0.862-5.159-2.458-5.43l-2.68-0.682l0.5-7.792l23.459,1.497l5.742,8.702l-0.427,6.69
				l-2.653,0.256c-1.538,0.072-3.007,1.765-3.3,6.338l-1.782,27.95l5.045,7.551l-0.411,6.437l-24.307-1.551l-4.97-7.46l0.498-7.792
				l3.337-0.297c1.631-0.236,2.375-2.57,2.565-5.535L235.936,13.616z M235.507,43.013c-0.248,3.896-1.083,6.309-3.145,6.602
				l-2.737,0.251l-0.307,4.828l20.498,1.309l0.307-4.829l-2.682-0.596c-2.092-0.559-2.61-3.059-2.361-6.954l1.87-29.306
				c0.255-3.982,1.429-6.373,3.141-6.603l2.74-0.25l0.307-4.829l-20.413-1.302l-0.306,4.828l2.684,0.597
				c1.67,0.447,2.528,2.968,2.278,6.948L235.507,43.013z M244.55,27.942c-0.806-0.732-1.994-0.808-3.137-0.2
				c0.439,1.133,1.258,2.971,2.445,4.324c-1.448,2.713-2.629,6.55-3.684,13.712c-0.132-7.237-0.814-11.192-1.906-14.069
				c1.354-1.189,2.396-2.909,2.892-3.983c-1.143-0.753-2.243-0.824-3.134-0.2l0.875-13.722c0.411-6.438-1.265-8.161-2.769-8.595
				l-2.179-0.48l0.12-1.862l17.531,1.119l-0.118,1.863l-2.225,0.197c-1.547,0.242-3.429,1.738-3.84,8.174L244.55,27.942z
				 M241.42,27.658c0.695-2.933,1.735-4.566,3.089-5.756c-1.144-2.113-1.879-5.222-2.066-11.613
				c-0.998,6.314-2.127,9.304-3.524,11.256c1.188,1.352,2.012,3.105,2.246,6.097L241.42,27.658z"/>
			<path d="M265.05,22.384c2.714-11.132,13.213-18.007,22.941-15.635c2.805,0.683,4.807,1.782,6.586,3.088
				c1.387,1.125,2.707,2.146,3.201,2.266c0.495,0.121,0.82-0.849,1.183-2.333l7.585,1.849l5.019,9.522l-6.453,26.47l-11.213-2.733
				l-4.495-8.435c2.023-9.377,1.474-15.015-0.176-15.417c-1.815-0.442-3.056,2.139-3.858,5.437l-5.606,23.006
				c-0.584,2.391-0.22,4.489,1.263,4.851c2.143,0.523,4.408-3.031,6.507-10.208l10.967,2.672l5.039,9.44
				c-5.814,15.967-16.265,16.914-25.831,14.583c-11.794-2.874-20.253-17.254-16.015-34.653L265.05,22.384z M299.659,37.372
				l5.97-24.491l-5.606-1.366c-0.523,2.143-1.138,2.519-1.964,2.317c-0.99-0.242-2.478-1.304-3.616-2.368
				c-1.882-1.595-3.909-2.611-6.298-3.195c-10.391-2.532-19.521,5.9-21.631,14.559l-3.338,13.689
				c-2.45,10.059-0.076,21.82,12.954,24.995c11.955,2.915,18.807-4.763,20.958-13.586l-8.492-2.07
				c-2.232,9.153-5.984,11.646-10.933,10.439c-4.864-1.186-5.926-6.51-4.338-13.026l5.347-21.934
				c1.125-4.618,3.219-8.913,8.168-7.706c6.433,1.568,6.317,13.508,4.328,21.671L299.659,37.372z M274.815,30.706
				c-0.849-0.819-2.415-1.202-3.958-0.965c0.152,1.173,0.737,3.063,1.571,4.664c-1.837,2.522-3.732,5.992-4.844,13.059
				c-1.126-6.128-0.942-10.102-0.516-14.366c1.478-1.037,2.784-2.465,3.546-3.417c-1.432-0.959-2.915-1.321-4.045-0.985l1.109-4.536
				c2.229-9.152,10.976-16.717,20.128-14.485c2.474,0.602,4.354,1.847,5.76,2.888c1.738,1.473,3.227,2.534,4.794,2.916
				c1.152,0.282,2.344-0.302,2.784-2.116l2.639,0.644l-5.267,21.604l-5.524-1.347c1.935-10.449,0.972-20.467-5.79-22.116
				c-6.268-1.527-8.728,3.552-10.017,8.828L274.815,30.706z M270.978,29.245c0.694-1.053,1.819-2.439,3.541-3.417
				c-0.535-3.538,0.206-6.938,1.891-11.333c-3.254,3.312-5.744,7.074-7.248,10.026c0.915,1.622,1.522,3.43,1.571,4.663
				L270.978,29.245z"/>
			<path d="M321.074,32.121c1.566-3.575,0.954-5.14-0.456-5.942l-2.28-1.556l3.129-7.152l21.535,9.428l2.418,10.138l-2.689,6.141
				l-2.581-0.666c-1.467-0.457-3.425,0.631-5.263,4.829l-11.232,25.656l2.16,8.821l-2.586,5.908l-22.315-9.77l-2.115-8.709
				l3.132-7.152l3.234,0.86c1.614,0.337,3.11-1.603,4.302-4.323L321.074,32.121z M310.617,59.6c-1.567,3.576-3.174,5.558-5.211,5.13
				l-2.658-0.701l-1.939,4.432l18.812,8.237l1.94-4.432l-2.316-1.478c-1.774-1.24-1.407-3.767,0.159-7.343l11.776-26.899
				c1.602-3.654,3.52-5.5,5.213-5.13l2.657,0.7l1.939-4.431l-18.735-8.204l-1.938,4.432l2.315,1.479
				c1.418,0.991,1.363,3.655-0.233,7.308L310.617,59.6z M324.266,48.528c-0.506-0.961-1.595-1.439-2.875-1.26
				c0.021,1.215,0.161,3.222,0.819,4.9c-2.29,2.055-4.712,5.256-8.148,11.626c2.35-6.846,3.059-10.797,3.016-13.873
				c1.677-0.655,3.246-1.914,4.078-2.753c-0.816-1.099-1.825-1.542-2.876-1.26l5.515-12.595c2.587-5.909,1.601-8.101,0.336-9.025
				l-1.884-1.195l0.748-1.71l16.094,7.047l-0.749,1.71l-2.158-0.574c-1.537-0.302-3.815,0.46-6.402,6.369L324.266,48.528z
				 M321.424,47.191c1.657-2.517,3.193-3.697,4.873-4.353c-0.354-2.376,0.017-5.55,2.027-11.62
				c-3.094,5.593-5.178,8.018-7.159,9.373c0.652,1.677,0.828,3.606,0.024,6.497L321.424,47.191z"/>
			<path d="M346.117,102.996l-0.545-9.746l3.991-16.1l-5.219,7.84l0.45,7.744l-4.33,6.497L324.29,88.461l-0.57-8.943l4.328-6.499
				l3.038,1.411c1.529,0.612,3.343-1.037,4.987-3.509l16.041-24.087c2.166-3.25,1.834-4.896,0.586-5.932l-1.978-1.929l4.327-6.498
				l18.083,12.042l0.306,5.202l2.306-3.462l16.107,10.726l0.617,10.403l-3.716,5.58l-2.423-1.106
				c-1.366-0.706-3.415,0.072-5.957,3.887l-23.097,34.682L346.117,102.996z M357.836,50.645l0.141,0.094l-10.594,42.7l8.193,5.458
				l22.954-34.47c2.212-3.319,4.423-4.804,6.096-4.099l2.424,1.106l2.681-4.027l-13.563-9.032l-2.681,4.026l2.027,1.858
				c1.223,1.224,0.707,3.836-1.504,7.156l-10.206,15.328l-0.071-0.047l7.562-31.566l-15.822-10.536l-2.68,4.026l2.027,1.857
				c1.223,1.224,0.705,3.837-1.504,7.156l-16.276,24.44c-2.163,3.249-4.092,4.921-6.024,4.146l-2.495-1.152l-2.68,4.027
				l12.926,8.608l2.681-4.027l-1.318-1.388c-1.485-1.6-0.73-3.954,1.433-7.203L357.836,50.645z M369.438,45.625l-6.083,25.211
				c-0.967-1.458-2.168-2.257-3.673-2.445c0.095,1.389,0.354,3.294,0.943,5.625c-1.505,2.566-3.104,5.886-5.949,12.761
				c1.222-7.65,1.548-12.123,1.57-15.676c1.412-0.896,2.61-1.932,3.223-2.85c-1.107-1.553-2.236-2.306-3.46-2.306l3.523-14.477
				c0.423-1.554,0.516-2.613-0.403-3.224c-0.846-0.565-1.694,0.4-2.398,1.46l-7.717,11.584c-0.259-0.989-1.105-1.552-2.047-1.364
				l7.62-11.443c3.574-5.368,2.986-7.697,1.903-8.828l-1.648-1.505l1.035-1.554L369.438,45.625z M359.729,68.319
				c1.645-2.473,2.589-3.885,3.646-5.32c-0.404-3.531-0.263-7.414,0.442-13.675c-1.811,5.625-3.243,8.851-5.316,11.041
				c0.92,2.141,1.109,4.307,1.017,7.814L359.729,68.319z M387.731,57.808l-1.034,1.553l-2.025-0.939
				c-1.458-0.564-3.838-0.21-7.411,5.158l-7.621,11.442c-0.046-0.847-1.105-1.553-1.978-1.317l7.62-11.443
				c3.576-5.369,2.987-7.698,1.904-8.828l-1.647-1.505l1.035-1.554L387.731,57.808z"/>
			<path d="M385.453,139.733c0.2-1.135,0.222-2.336-0.544-3.131c-0.707-0.732-1.777-1.354-3.385-2.044
				c-2.082-0.938-4.272-2.599-5.862-4.249c-9.308-9.654-8.273-26.803,4.133-38.76l10.204-9.837c8.615-8.305,20.74-8.203,27.75-0.932
				c2.178,2.262,3.344,4.204,4.147,6.259c0.454,1.449,0.784,3.017,1.257,3.507c0.354,0.365,1.389-0.396,2.305-1.279l5.357,5.562
				l-0.856,10.727l-17.295,16.67l-0.413,6.296l-6.781,6.538l-2.064-2.139c-1.001-1.04-2.378-1.243-3.784,0.111l-10.694,10.308
				L385.453,139.733z M399.456,122.464c1.771-1.709,3.53-2.697,4.943-1.229l2.003,2.077l4.643-4.478l-12.075-12.525l-4.646,4.476
				l0.942,0.979c1.179,1.221,1.201,3.083-1.116,5.322c-5.076,4.887-8.821,2.957-11.353,0.33c-3.769-3.91-0.409-10.331,3.012-13.629
				l16.256-15.669c3.417-3.298,7.484-5.806,11.022-2.139c4.592,4.768-1.954,14.729-7.941,20.623l6.064,6.293l18.15-17.493
				l-4.006-4.155c-0.796,0.766-2.19,1.641-2.899,0.906c-0.883-0.916-1.272-2.544-1.784-3.934c-0.739-2.234-1.901-4.298-3.611-6.069
				c-7.718-8.005-19.096-5.994-26.005,0.663l-10.204,9.836c-7.455,7.186-11.742,18.393-2.907,27.557
				c1.884,1.957,3.895,3.675,5.262,4.241c1.371,0.564,2.625,1.008,3.272,1.679c0.646,0.673,0.508,1.631,0.193,2.405l3.125,3.238
				L399.456,122.464z M391.265,84.618c7.212-6.951,17.926-8.554,24.759-1.466c1.767,1.833,2.688,3.891,3.26,5.581
				c0.504,1.87,1.078,3.443,2.373,4.787c0.883,0.917,2.745,0.771,3.662-0.111l1.885,1.953l-16.009,15.434l-3.946-4.096
				c7.226-7.79,11.773-16.77,6.942-21.781c-4.474-4.644-9.271-1.67-13.18,2.1l-8.253,7.952c-0.395-1.389-1.333-2.366-2.826-2.935
				c-0.56,1.131-1.077,3.042-1.224,4.72c-3.036,1.864-6.751,4.737-11.087,8.561c2.793-4.932,5.394-9.206,7.312-12.473
				c1.743-0.027,3.612-0.532,4.822-0.991c-0.629-1.632-1.573-2.609-2.885-2.994L391.265,84.618z M403.719,105.977
				c8.083-8.616,8.552-11.309,7.256-12.654c-1.472-1.527-3.242,0.062-5.992,2.713l-17.051,16.434
				c-1.588,1.531-2.229,3.8-0.816,5.267c1.472,1.528,3.713,0.549,6.031-1.689c1.529-1.472,1.081-3.28,0.082-4.319l-1.005-1.039
				l6.723-6.479l4.477,4.645L403.719,105.977z M389.99,91.978c2.495-1.815,4.363-2.202,6.045-2.289
				c1.441-3.396,3.946-5.811,7.718-8.503c-4.519,0.938-8.338,3.087-11.485,4.591c-0.093,1.739-0.608,3.531-2.454,6.018
				L389.99,91.978z"/>
		</g>
		<g>
			<polygon points="19.142,137.907 24.111,148.506 35.659,150.421 27.115,158.424 28.863,170 18.61,164.345 8.144,169.587 
				10.353,158.089 2.134,149.75 13.751,148.298 			"/>
			<polygon fill="#FFFFFF" points="17.666,134.416 21.986,145.296 33.396,147.907 24.38,155.377 25.425,167.037 15.534,160.772 
				4.766,165.368 7.668,154.026 -0.027,145.205 11.655,144.461 			"/>
		</g>
		<g>
			<polygon points="437.668,137.907 442.641,148.506 454.187,150.421 445.641,158.424 447.391,170 437.137,164.345 426.67,169.587 
				428.881,158.089 420.662,149.75 432.278,148.298 			"/>
			<polygon fill="#FFFFFF" points="436.191,134.416 440.513,145.296 451.922,147.907 442.908,155.377 443.95,167.037 
				434.061,160.772 423.295,165.368 426.196,154.026 418.499,145.205 430.185,144.461 			"/>
		</g>
	</g>
</g>
</svg>
