<?xml version="1.0" encoding="utf-8"?>
<!-- Generator: Adobe Illustrator 16.0.0, SVG Export Plug-In . SVG Version: 6.00 Build 0)  -->
<!DOCTYPE svg PUBLIC "-//W3C//DTD SVG 1.1//EN" "http://www.w3.org/Graphics/SVG/1.1/DTD/svg11.dtd">
<svg version="1.1" id="Layer_1" xmlns="http://www.w3.org/2000/svg" xmlns:xlink="http://www.w3.org/1999/xlink" x="0px" y="0px"
	 width="339px" height="63.5px" viewBox="0 0 339 63.5" enable-background="new 0 0 339 63.5" xml:space="preserve">
<g>
	<g>
		<g enable-background="new    ">
			<path fill="#FFFFFF" d="M46.789,16.983l0.513-0.098l0.342,0.146l0.439-0.049l0.269,0.146l0.293,0.098l0.757,0.244l0.293,0.098
				h0.244l0.513,0.122l0.342-0.073l0.293-0.049l0.293,0.122l0.415,0.049l0.342,0.049l0.806-0.049l0.757,0.146l0.342-0.049
				l0.391-0.049l0.415,0.146l0.342-0.049l0.195-0.049l0.952-0.049l0.708,0.049l0.659,0.098h0.977l0.22,0.049l0.293-0.098h0.537
				h0.854h0.562l0.342,0.098l0.244,0.146l0.171-0.195l0.391-0.049l0.391-0.049l0.464,0.098h0.293h0.146H64h1.489l0.195,0.391
				l0.757-0.391h0.293l0.195-0.366l0.317-0.146l0.439,0.317h0.757l0.757-0.122l0.244-0.098l1.099-0.049l0.439-0.098h0.366
				l0.586-0.098l0.513-0.244l0.293-0.049l0.195-0.098l0.366,0.146h0.244l0.391,0.146l0.244,0.195l0.049,0.562l-0.049,0.195
				l-0.098,0.195l-0.146,0.293l-0.049,0.269l-0.146,0.391l-0.098,0.293l-0.098,0.757l0.146,1.44l0.098,0.562l-0.049,0.439
				l0.049,0.415l-0.049,0.293l0.049,0.244l0.049,0.22l0.049,1.196l0.049,0.439v1.562l0.195,0.439l-0.049,1.611l-0.195,0.146
				l-0.146,0.391v0.342l0.098,0.513l0.244,0.342v0.513v0.342l-0.195,0.049l-0.049,0.293l-0.146,0.659v0.708l-0.146,0.537
				l-0.098,0.317l-0.366,0.684l-0.244,0.293l-0.195,0.317l-1.196,1.245l-0.195,0.195l-0.464,0.293l-0.342,0.122l-0.562,0.098h-0.342
				l-0.708-0.22h-0.146l-0.391-0.098l-0.146-0.244l-0.562-1.294v-0.195l0.146-0.708l0.415-0.342l0.195-0.22l0.684-0.195h0.366
				l0.342,0.098l0.342-0.049l0.269-0.293l0.244-0.562l0.195-0.342l0.098-0.244l-0.049-0.342l0.098-0.317l0.146-0.342l-0.098-0.757
				l0.146-0.293l-0.146-0.61l-0.098-0.635l-0.537-0.146l-0.464-0.903l-0.049-0.464v-0.439l-0.098-0.513v-0.635l-0.342-1.465
				l-0.366-0.83l-0.098-0.317l-0.342-0.586l-0.195-0.269v-0.244L68.1,22.47l-0.269-0.293l-0.293-0.562L67.44,21.42l-0.293-0.195
				l-0.269-0.146l-0.146-0.146l-0.342-0.049l-0.29-0.263l-0.659-0.049l-0.244,0.049l-0.195,0.049l-0.464,0.464l-0.244,0.293
				l-0.195,0.708l-0.049,0.439L64,24.917l-0.049,0.22l-0.122,1.245v0.537v0.269l0.122,1.05l-0.269,0.342l-0.146,0.244v0.903
				l0.146,0.342l0.269,0.415v0.439v0.464l-0.122,0.685l0.464,0.903v0.293l-0.195,0.464L64,34.341l0.049,0.732L64,36.026
				l-0.122,0.293v0.366l0.22,0.293L64,37.222l-0.122,0.464L64,37.833l0.244,0.293l-0.049,0.293l-0.098,0.317l0.049,0.635
				l0.098,0.415l0.049,0.342l-0.146,0.244l-0.049,0.269l0.098,0.195l0.195-0.195l0.488,0.146l-0.098,0.244l0.146,0.757l-0.195,0.391
				l-0.195,0.439l0.098,0.366l0.61,0.684v0.22l-0.049,0.293l0.391,0.391l0.098,0.366l0.61,1.05l1.001,0.854l1.05,0.244l0.391,0.146
				h0.293l0.415-0.244l0.146-0.27V45.84l0.244-0.562l0.244-0.244l0.366-0.464l0.439-0.098l0.195-0.049l0.22-0.049l0.342,0.049
				l0.293,0.049l0.293,0.098l0.317,0.146l0.439,0.61l0.146,0.513l0.098,0.586v0.244l-0.195,0.366l-0.049,0.293l-0.098,0.195
				l-0.146,0.146l-0.195,0.366l-0.146,0.244l-0.317,0.293l-0.488,0.415h-0.195l-0.464-0.122l-0.391,0.757l-0.464,0.366h-0.244
				l-0.439,0.195l-0.513-0.464l-0.244,0.098l-1.05,0.317l-1.05-0.049l-0.806-0.098H65.05l-0.513-0.073l-0.391-0.098l-0.854-0.146
				l-1.001-0.049l-0.293-0.244h-0.464l-0.244,0.049l-0.146-0.195L60.9,49.185l-0.659-0.049l-0.293-0.146l-1.05-0.171h-0.513
				l-0.952,0.122l-1.245-0.073l-0.293,0.122l-0.415,0.098l-0.293-0.049l-0.391-0.171l-0.464,0.366l-0.952,0.293l-0.293,0.146
				l-0.391,0.317l-0.317,0.098l-0.195,0.439l-0.146,0.146l-0.244,0.244l-0.659,0.415l-0.732-0.049h-0.269l-0.586-0.659l-0.195-0.098
				l-0.073-0.391l-0.098-0.366V49.38l0.171-0.513l0.098-0.195l0.391-0.537l0.854-0.854l0.195-0.195l0.61-0.464l0.195-0.049
				l0.195,0.195l0.391-0.244l0.049-0.342l0.757-0.415l0.244-0.098l0.415-0.244l0.293-0.098l0.439-0.146l0.317-0.293l0.098-0.366
				h0.244l0.293-0.488l0.098-0.293l0.22-0.659v-0.195v-0.269l0.146-0.439l-0.146-0.391l0.098-0.415V40.64l-0.244-0.415l0.098-0.439
				l0.244-0.415v-0.293v-0.195l0.195-0.415v-0.342l-0.098-0.293l-0.049-0.293v-0.317l0.293-0.903l-0.049-0.586l-0.146-0.244
				l-0.049-0.317v-0.488l0.391-0.806V33.44l-0.293-0.098l-0.391-0.22l0.146-0.439l0.342-0.244l0.049-0.269l0.049-0.195v-0.146
				l-0.195-0.244l0.049-0.342l-0.049-0.708l0.146-0.244l0.146-0.415l-0.049-0.293l0.049-0.293l-0.049-0.269l-0.049-0.293
				l0.098-0.342l-0.049-0.708l-0.049-0.244l-0.244-0.61l-0.049-0.342l0.244-0.903l-0.049-1.392l-0.049-0.464l-0.049-0.342
				l-0.098-1.147l-0.049-0.513l-0.049-0.342l-0.854-0.488l-0.293,0.146l-1.147,0.537l-0.854,0.806l-0.293,0.562l-0.317,0.342
				l-0.049,0.195l-0.439,0.61l-0.098,0.195l-0.269-0.464l-0.293,0.171l0.146,0.439l-0.098,0.562l-0.146,0.244l-0.195,0.244
				l0.049,0.342l0.098,0.464l-0.195,0.391L50.28,27.58l-0.244,0.806l-0.049,0.342l-0.049,0.293l-0.098,0.415l-0.098,0.293
				l0.049,0.464l-0.049,0.342v0.244l-0.049,0.244v0.22l-0.049,0.244v0.293l-0.049,1.439l0.195,0.513l0.098,0.293l0.098,0.317
				l0.464,0.342l0.342,0.049H51.5l0.439,0.146l0.562,0.659l0.098,0.586v0.317l-0.171,0.684l-0.146,0.293l-0.146,0.122l-0.342,0.342
				l-0.806,0.391h-0.195l-0.464,0.098l-0.781-0.049l-0.562-0.146l-0.195-0.146l-0.195-0.146l-0.757-0.806l-0.293-0.342l-0.098-0.513
				l-0.146-0.244l-0.073-0.391l-0.244-0.098v-0.415l-0.195-0.293l-0.146-0.513l-0.049-0.195l-0.049-0.342l-0.049-0.342l-0.049-2.1
				v-0.269l0.049-0.488l-0.415-0.195l-0.146-0.317l-0.195-0.537l0.098-0.342l0.146-0.61l0.195-0.293l0.171-0.464v-0.293l0.098-0.391
				l0.342-0.854l0.098-1.147l0.098-0.366l-0.146-0.439l0.146-0.293v-0.269l0.146-0.83l-0.049-0.464l0.049-0.391v-0.854l-0.244-1.245
				l-0.146-0.415l-0.146-0.146l-0.195-0.244l-0.22-0.464l-0.049-0.244l-0.049-0.438l0.049-0.244l0.366-0.513L46.789,16.983z"/>
			<path fill="#FFFFFF" d="M79.992,22.525l0.513,0.049l0.439,0.049l0.146,0.195h0.244l0.415,0.269l0.391,0.439l0.244,0.098
				l0.22,0.098l0.244,0.269l0.635,0.391l0.366,0.342l0.439,0.61l0.342,0.244l0.317,0.049l0.537,0.049l0.269,0.098l0.391,0.269
				l0.342,0.439v0.146l-0.244,0.61l-0.391,0.684l-0.269,0.098l-0.292,0.12l-0.146,0.488l-0.146,0.903v0.146v0.293l-0.049,0.806
				l-0.098,1.196L84.9,32.68v0.293v0.562l-0.049,0.391l-0.049,0.464l-0.171,0.195l-0.195,0.684v0.269l0.269,0.488l0.195,0.098
				l0.195,0.464v0.732l-0.049,0.757l-0.415,0.244l0.464,0.316l-0.049,0.342l-0.049,0.391l0.098,0.366l0.049,1.953l0.098,0.635
				l0.098,0.244l0.146,0.22l0.415,0.195l0.342,0.098l0.342,0.195l0.269,0.244l0.195,0.22L87,44.034l-0.146,0.293l-0.415,0.659
				L86,45.23l-0.513,0.439l-0.586,0.513l-0.513,0.806l-0.098,0.195l-0.049,0.293l0.146,0.415l0.146,0.342v0.391l-0.146,0.366
				l-0.537,0.438l-0.854-0.098l-0.464-0.195L82.14,48.99l-0.244-0.22l-0.562-0.439l-0.488-0.562l-0.244-0.049l-0.757-0.635
				l-0.659-0.317l-1.001-0.391l-0.244-0.049l-0.293-0.049l-0.317-0.146l-0.098-0.293l-0.195-0.22l-0.098-0.342l0.098-0.61
				l0.366-0.293l0.439-0.391l0.342-0.415l0.049-0.342l0.22-0.537l0.098-0.22l0.049-0.342l-0.049-0.342l0.146-0.562l-0.146-0.586
				l0.146-0.61v-1.001l0.049-0.61l-0.098-0.439l0.146-0.342l0.098-0.415v-0.635v-1.001v-0.513l-0.098-0.293L78.6,34.219l0.049-0.293
				l0.195-0.342l-0.049-0.806l0.098-0.488l-0.049-0.269l-0.146-0.586l0.049-0.269l-0.049-0.781l-0.146-0.659l-0.171-0.342
				l-0.146-0.195h-0.391l-0.293-0.122l-0.22-0.195l-0.195-0.146l-0.098-0.439l0.098-0.708l0.366-0.342l0.293-0.366l0.195-0.098
				l0.513-0.439l0.342-0.415l0.098-0.293l0.244-0.293l0.269-0.195l0.049-0.22l-0.049-0.684l-0.22-0.659v-0.244l0.22-0.293
				l0.391-0.317L79.992,22.525z M81.09,13.321l0.562,0.049h0.244l0.391,0.317l0.146,0.244l0.171,0.049l0.342,0.342l0.635,0.708
				l0.22,0.293l0.146,0.195h0.195l0.61,0.513l0.244,0.098l0.391,0.439l0.415,0.562l-0.171,0.903l-1.05,0.708l-0.439-0.269
				l-0.195,0.195l-0.049,0.22v0.244l-0.146,0.195l-0.098,0.293l0.098,0.659l-0.049,0.293l-0.22,0.146l-0.195,0.366l-0.586,0.244
				h-0.513l-0.537-0.342l-0.317-0.098l-0.391-0.317l-0.293-0.391l-0.22-0.342l-0.244-0.22l0.049-0.244L80.09,19.08l-0.806-0.195
				l-0.195-0.146l-0.293-0.22l-0.464-0.586l-0.098-0.659l0.415-0.708l0.684-0.488l0.757-0.439l0.415-0.317v-1.294l0.244-0.391
				L81.09,13.321z"/>
			<path fill="#FFFFFF" d="M99.499,22.33h0.146l0.708,0.049l0.757,0.659l0.293,0.732l0.098,0.22l0.146,0.342l0.391,0.049
				l0.415,0.903l0.146,0.244l0.293,0.439l0.098,0.269l0.146,0.439l0.073,0.464l0.098,0.244l0.195,0.195l0.488,0.659l0.146,1.001
				l0.317,0.049l0.439,0.049l0.195,0.244l0.22,0.195l0.146,0.513l-0.269,0.537l-0.537,0.562l-0.659,0.391l-1.05,0.439l-0.195,0.122
				l-0.586,0.635l-0.171,0.464l-0.098,0.293l-0.244,0.293l-0.488,0.195h-0.513l-0.146-0.146l-0.195-0.244l-0.317-0.488l-0.146-0.464
				l-0.293-0.708l-0.293-0.391l-0.146-0.342l-0.098-0.195l-0.22-0.464l-0.146-0.537l-0.049-0.171l-0.439-0.391l-0.366-0.854
				l-0.195-0.488l-0.244-0.464l-0.146-0.342l-0.146-0.195l-0.317-0.317l-0.244,0.171l-0.293,0.439l0.098,1.099l0.146,0.293
				l0.244,0.659l0.049,0.195l0.049,0.513l0.049,0.342l0.049,0.342l-0.049,0.415l0.22,0.293l-0.049,0.195l0.049,0.317l0.049,0.293
				l-0.22,0.439l0.122,0.146l0.049,0.757l0.049,0.293l0.049,0.562l-0.049,0.391l-0.22,0.415l-0.049,0.391v0.293l0.22,0.171
				l0.049,0.391l0.049,0.244l-0.146,0.049l-0.049,0.464l0.098,1.489l-0.22,0.903l-0.146,0.293l-0.049,0.244l-0.195,0.22
				l-0.098,0.244l-0.439,0.244l0.049,0.342l0.244,0.415l0.293,0.244l0.342,0.195l0.269,0.098l1.782,0.513l0.269,0.049h0.244
				l0.195,0.049h0.464l0.83-0.049v0.391l0.269-0.146l0.342-0.342l0.342-0.098l0.098-0.269v-0.195l0.146-0.293l-0.098-0.562
				l-0.098-0.195l-0.049-0.195L101.7,40.74v-0.22l0.195-0.488l0.269-0.244l0.244-0.146l0.342-0.049l0.195-0.122l1.05,0.513
				l0.146,0.293l0.366,0.854v0.61l-0.098,0.879l-0.269,0.659l-0.195,0.464l-0.244,0.488l-0.342,0.439l-0.317,0.171l-0.098,0.195
				l-0.195,0.244l-0.586,0.488l-1.367,0.708l-0.684,0.562l-0.122,0.195l-0.098,0.439l0.22,0.464v0.684l-0.415,0.513l-1.001,0.098
				l-0.342-0.049l-0.562-0.098l-0.342-0.098l-1.099-0.366l-0.342-0.098l-0.415-0.293l-0.684-0.293l-0.562-0.366l-0.391-0.098
				l-0.659-0.391l-0.293-0.195l-0.708-0.244l-0.146-0.415l-0.659,0.098l-0.293-0.342h-0.293l-0.61-0.049l-0.342,0.049l-0.293-0.049
				l-0.22-0.146l-0.195-0.464V45.23l0.146-0.513l0.269-0.293l0.342-0.391l0.098-0.244l0.049-0.415l0.146-0.439l0.098-1.416
				l0.098-0.537V40.64v-0.513l0.098-0.391l0.317-0.317l-0.317-0.732v-0.61l0.122-1.953l-0.073-0.391v-0.415l-0.049-0.391v-0.244
				l0.049-0.244l-0.098-0.269v-0.195l0.049-0.244l0.049-0.391l-0.049-0.269l0.22-0.537l-0.049-0.195V32.07l0.098-0.195l-0.098-0.537
				l-0.049-0.903l-0.073-0.366v-0.83L90.2,29.068l0.049-0.586H89.81l-0.22-0.293l-0.098-0.415l0.049-0.293l0.269-0.464l0.586-0.293
				h0.195l0.22,0.049l0.342,0.049l0.903-0.293h0.146l0.195-0.098l0.513-0.146l0.244-0.049l0.195-0.098l0.391-0.098l0.269-0.073
				l0.684-0.195l0.854-0.439l0.562-0.195l0.488-0.269l0.293-0.244l0.22-0.049l0.781-0.439l0.269-0.195l0.439-0.366l0.049-0.391
				l0.244-0.415l0.366-0.342L99.499,22.33z"/>
			<path fill="#FFFFFF" d="M115.392,13.541l1.294,0.049l0.562,0.146l0.439,0.098l0.903,0.537l0.415,0.513l0.586,0.635l0.146,0.269
				l0.049,0.195l0.049,0.244l0.049,0.61l-0.244,0.391l-0.293,0.195v0.195l0.488,0.513l-0.098,0.488l-0.732,0.708l-0.22,0.098
				l-0.635,0.098l-0.415-0.098l-0.391-0.342l-0.391-0.61l-0.098-0.684l0.098-0.513l0.049-0.195l0.098-0.293v-0.659l-0.464-0.098
				l-0.488,0.049l-0.562,0.293L115,17.374l-0.146,0.317l-0.049,0.244l-0.171,0.342l-0.098,0.562v0.342l-0.146,1.001l0.049,0.439
				l-0.098,0.806l-0.049,0.61v0.537l-0.098,0.244v0.171l0.049,0.293l-0.049,0.244l0.049,0.342l-0.049,0.415l0.049,0.391l0.098,0.659
				l0.757,0.342l0.244-0.146l0.61-0.61l0.195-0.635l0.488-1.514l0.366-0.146h0.684l0.513,0.146l0.439,0.269l0.317,0.244l0.244,0.098
				l0.391,0.244l0.61,0.464l0.342,0.195l0.513,0.244l0.391,0.146l0.708,0.195l0.146,0.049l0.391,0.366l1.147,0.391l0.464-0.049
				l0.439,0.098l0.293,0.195l0.269,0.903l-0.61,0.903l-0.439,0.366l-0.415,0.732l-0.391,0.757l-0.195,0.488l-0.708,1.05
				l-0.195,0.171l-0.146,0.293l-0.146,0.195l-0.22,0.195l-0.439,0.415l-0.049,0.635l0.293-0.049l0.342,0.146l0.415,0.22l0.586,0.049
				l1.099,0.391l0.513,0.195l0.342,0.562v0.195l-0.342,0.659l-0.195,0.635v0.415l-0.098,0.928l0.049,0.61l-0.464,0.854v0.342
				l0.195,0.244l-0.049,0.317v0.293l0.049,0.146l0.073,1.514v0.244l0.391,0.757l0.806,0.293h0.488l0.244,0.195l0.171,0.244v0.415
				l-0.073,0.293l-0.146,0.293l-0.195,0.244l-0.195,0.269l-0.195,0.293l-0.244,0.098l-0.562,0.049l0.049,0.464l-0.708,0.586
				l-0.146,0.244l-0.098,0.464l0.195,0.854l-0.342,1.099l-0.195,0.244l-0.415,0.049l-0.732-0.195l-0.61-0.366l-0.342-0.342
				l-0.464-0.342l-0.293-0.195l-0.195-0.22l-0.049-0.195l-0.562-0.439l-0.439-0.415l-0.098-0.342l-0.098,0.195l-0.269-0.098h-0.293
				l-0.195-0.098l-0.391-0.195l-0.562-0.513l0.049-0.732l0.195-0.22l0.269-0.244l-0.073-0.195l0.513-0.61l0.195-0.488l0.049-0.293
				l-0.049-0.562l0.098-0.342l-0.098-0.659l-0.049-0.146l-0.049-1.343l-0.049-0.317l0.049-0.439l0.098-0.244v-0.513l0.098-0.293
				l0.146-0.195l0.098-0.366l0.22-0.635l-0.464-0.415l-0.391-0.098l-0.562-0.244l-0.439-0.195l-0.244-0.195l-0.366-0.049
				l-0.342-0.049l-0.146-0.22l-0.708-0.293l-0.195-0.391l-0.146-0.464v-0.195l0.146-0.293l0.342-0.293l0.22-0.049l0.391,0.049h0.244
				l0.513,0.098l0.439,0.098l0.439-0.098l0.366-0.317l0.439-0.195l0.195-0.195l0.317-0.342l0.195-0.317l0.146-0.293l0.244-0.391
				l0.195-0.61l0.269-0.391l0.146-0.317l0.195-0.146l0.049-0.342l-0.098-0.293h-0.244l-0.317,0.244h-0.195l-0.195-0.098h-0.195
				l-0.195-0.049h-0.415l-0.293-0.098l-0.537-0.269l-0.269-0.244l-0.488-0.244l-0.806-0.439l-0.439-0.269l-0.854-0.146l-0.366,0.244
				l-0.098,0.415v0.195l-0.146,0.854l0.049,0.244v0.244l-0.049,0.659l-0.391,0.244l0.049,0.757l0.049,0.342l0.293-0.098v0.293
				l-0.098,0.562v0.391l0.098,0.195l-0.098,0.415l0.098,1.44v0.415l-0.049,0.586l0.146,0.708l0.049,0.342v0.366l-0.049,0.195
				l-0.195,0.195v0.659l0.195,0.879l0.146,0.513l-0.049,0.391v0.854l0.049,0.342l0.049,0.269l0.22,0.195l0.146,0.342l0.098,0.244
				l0.293,0.171h0.366l0.195,0.195l0.391,0.293l0.244,0.464l-0.195,0.438l-0.146,0.244l-0.757,0.659l-0.293,0.244l-0.195,0.146
				l-0.366,0.195l-0.244,0.098v0.269l-0.586,0.439l-0.146,0.244l-0.073,0.171l-0.098,0.439l0.317,0.61l0.146,0.293v0.146
				l-0.146,0.757l-0.269,0.195l-0.488,0.244l-1.05-0.244l-0.146-0.195l-0.659-0.366l-0.146-0.342l-0.342-0.342l-0.464-0.146
				l-0.195-0.122l-0.708-0.488l-0.293-0.244l-0.293-0.317l-0.293-0.244l-0.366-0.146l-0.342-0.098l-0.61-0.391v-0.22l-0.049-0.342
				l0.146-0.391l0.171-0.269l0.342-0.293l0.146-0.293l0.244-0.195l0.098-0.317l0.049-0.244l0.049-0.195l0.171-0.659l-0.049-0.537
				l0.098-0.513v-0.195v-0.293v-0.342v-0.22l0.146-0.635l-0.049-0.757v-0.391v-0.171l-0.146-0.293v-0.488l0.146-0.317l0.049-0.293
				l0.098-0.293l0.049-0.293l-0.146-0.562v-0.195v-0.293v-0.269l0.098-0.586l-0.146-0.269l-0.098-1.245l0.195-0.391v-0.244v-0.317
				v-0.244l0.049-0.293l-0.098-0.562V30.48v-1.245l0.098-0.415v-0.24l0.146-0.708l0.439-0.537v-0.146l-0.244-0.171l-0.098-0.439
				l0.146-0.244v-0.562l-0.342-0.195l-0.049-0.391v-2.515v-0.293v-0.757l-0.049-0.195l0.049-1.904l-0.098-0.537l-0.049-0.464
				l-0.098-0.83l-0.366-0.61l-0.293-0.562l-0.61-0.342v-0.391l0.269-0.513l0.293-0.342l0.342-0.049h0.952l0.415,0.195h0.195
				l0.342,0.244l0.195,0.146l0.269,0.27l0.195,0.244l0.537,0.806l0.269-0.146v-0.366l0.146-0.293L112,15.42l0.854-0.83l0.195-0.22
				l0.537-0.293l0.757-0.244l0.342-0.195L115.392,13.541z"/>
			<path fill="#FFFFFF" d="M138.585,22.281h0.708l0.439,0.293l0.098,0.317l0.659,1.05l0.488,0.83l0.22,0.562l0.342,0.537
				l0.195,0.464l0.098,0.293l-0.049,0.195l0.049,0.415l0.098,0.244l0.098,0.391l0.366,0.464l0.586,0.488l0.195,0.366l0.122,0.488
				l0.146,0.513l0.244,0.391l0.244,0.757l0.659,0.537l0.146,0.513l-0.098,0.439l-0.415,0.439l-0.195,0.366l-1.196,0.708
				l-0.806,0.488l-0.586,0.244l-0.244,0.195l-0.317,0.317l-0.244,0.098l-0.61,0.146l-0.391,0.293l-0.293,0.098l-0.854,0.513h-0.195
				l-0.366,0.293l-0.195,0.049l-0.684,0.659l-0.269,0.439l-0.049,0.195v0.22l-0.049,0.293l-0.391,0.391l-0.708-0.049l0.049,0.562
				l-0.049,0.391l-0.195,0.293l-0.146,0.464l-0.244,0.293l-0.122,0.293l0.073,0.464l0.195,0.342l0.244,0.049l0.244,0.098h0.293h0.61
				l0.464,0.22l0.684,0.049l0.562,0.049l0.293,0.049h0.195l0.659,0.098l0.684,0.049l0.659-0.098l0.293-0.195l0.098-0.22l0.122-0.244
				l-0.049-0.195v-0.195l-0.171-0.269l-0.195-0.342l-0.195-0.635l0.146-0.61l0.146-0.244l0.195-0.317l0.513-0.244l0.293-0.049h0.317
				l0.488,0.195l0.293,0.098l0.366,0.415l0.195,0.439l0.098,1.294l-0.098,0.22l-0.098,0.586l-0.098,0.61l-0.146,0.391l-0.269,0.195
				l-0.195,0.317l-0.049,0.293l-0.439,0.488l-0.366,0.366l-2.148,1.733l-0.195,0.317l-0.098,0.635l0.146,0.27l0.049,0.438
				l-0.098,0.391l-0.293,0.415l-0.269,0.049l-0.781,0.146l-0.366-0.098l-0.635-0.098l-0.317-0.098l-0.439-0.195l-0.293-0.171
				l-0.317-0.049l-0.293-0.049l-0.391-0.293l-0.464-0.098l-0.83-0.513l-0.269-0.098l-0.439-0.244l-0.513-0.293l-0.439-0.195
				l-0.708-0.464l-0.684-0.244l-0.61-0.293l-0.293-0.049h-0.757l-0.293-0.171l-0.366-0.342l-0.146-0.342l0.049-0.146l0.098-0.366
				l0.22-0.342l0.586-0.562l0.293-0.439l0.049-0.438l0.122-0.366l0.098-0.684v-0.317l-0.049-0.537v-0.317l-0.171-0.146l-0.049-0.439
				l0.269-0.146l-0.146-0.317l0.098-0.488l-0.049-0.293l-0.22-0.562l0.22-0.244l0.049-0.195v-0.195l-0.049-0.806l0.049-0.195v-1.611
				l-0.049-0.342v-0.464l-0.049-0.684l0.049-0.464l-0.049-0.537l0.049-0.366l0.049-0.244l-0.098-0.195l-0.122-0.903l-0.049-0.562
				l0.049-0.391l-0.195-0.586l-0.146-0.22l-0.537-0.391l-0.171-0.195l-0.049-0.244l0.049-0.464l0.317-0.439l0.684-0.269l1.05-0.146
				l0.562-0.146l0.195-0.098l0.293-0.049l2.1-0.61l0.317-0.146h0.244l0.146-0.146l0.195-0.244l0.366,0.098l0.488-0.244l0.342-0.269
				l0.757-0.439l0.195-0.098l0.952-0.903l0.146-0.342l0.049-0.366l0.317-0.342L138.585,22.281z M135.29,27.188l-0.146,0.391v0.391
				l0.098,0.27l0.098,0.391l0.098,0.659l0.049,0.244l0.098,0.195l0.049,1.05l0.049,0.195l0.098,0.317l0.098,0.488l-0.146,0.342
				l0.146,0.464v0.293l-0.098,0.293l-0.146,0.513l0.049,0.195l0.049,0.195l-0.049,0.415l0.049,0.244v0.342l0.049,0.244l-0.098,0.464
				l0.146,0.244l0.659-0.854l0.708-0.244l0.098-0.244l0.195-0.098l0.195-0.146l0.293-0.098l0.415-0.708l0.098-0.195l-0.098-0.269
				l-0.244-0.439l-0.098-0.244l-0.073-0.317l-0.342-0.732l-0.708-1.807l-0.195-0.146l-0.488-0.952l-0.098-0.342l-0.61-1.05
				L135.29,27.188z"/>
			<path fill="#FFFFFF" d="M155.089,14.688h0.659l0.342-0.049l0.903,0.83l0.195,0.903l-0.537,0.903l-0.562,0.293l-1.099,1.05
				l-0.537,1.099l0.049,0.415l-0.049,0.195l-0.098,0.391v0.171l-0.22,0.586v1.807v0.195v0.513v0.488l0.806,0.049h0.757l0.708-0.049
				l0.684-0.244l0.513-0.366l0.439-0.879l0.342-0.903l0.464-0.464l0.708-0.195l0.488,0.098l0.439,0.317l0.317,0.391l0.049,0.586
				l-0.049,0.269l-0.049,0.488l-0.098,0.244l-0.122,0.317l-0.195,0.293l-0.635,0.61l-0.22,0.293l-0.195,0.195l-0.195,0.049
				l-0.537,0.513l-0.049,0.635l0.098,0.244l0.293,0.513l0.098,0.488l-0.049,0.317L158.8,28.58l-0.244,0.195l-0.513,0.244h-0.195
				h-0.293l-0.317-0.098l-0.586-0.684l-0.562-0.513h-0.903h-0.342l-0.488,0.098l-0.073,0.317v0.684l0.073,0.366l-0.171,0.342
				l0.171,2.147l0.049,0.708l0.049,0.537l0.098,0.244v0.513l-0.049,0.342l-0.049,0.317l0.049,0.391v1.196l-0.22,0.049l0.122,0.195
				l0.146,1.562v0.195l-0.049,2.295l0.049,0.293v0.22l-0.146,0.391l-0.366,0.391l-0.244,0.22l-0.293,0.195l-0.049,0.342l0.293,0.098
				l0.146,0.146h0.195l0.854,0.317l1.196-0.098l0.61,0.293l0.342,0.049l0.195-0.049h0.317h0.293l0.537,0.195l0.415,0.562
				l-0.049,0.439l-0.049,0.391l-0.366,0.61l-0.537,0.537l-0.342,0.269l-0.269,0.195l-0.439,0.61l-0.293,0.293l-0.098,0.195v0.439
				l0.293,0.415l0.049,0.342v0.464l-0.293,0.537l-0.562,0.244h-0.244l-0.244-0.049l-0.562-0.146l-0.293-0.098l-0.464-0.195
				l-0.342-0.195l-0.342-0.269l-0.464-0.146l-0.098-0.195l-0.586-0.342l-0.513-0.146l-0.659-0.415l-0.098-0.293l-0.342-0.098
				l-0.342-0.146l-0.269-0.269l-0.195-0.098l-0.684-0.244l-0.171-0.049l-0.293-0.098l-0.293-0.049l-0.366-0.146l-0.781-1.367
				l0.244-0.586l0.293-0.244v-0.366l0.049-0.244l0.146-0.391V42.03l0.122-0.391l0.049-0.513l0.098-0.293l0.049-0.244l-0.098-1.172
				l0.049-0.244l0.244-0.049v-0.293l-0.146-0.415l-0.146-0.391l0.098-0.391l-0.049-0.513l0.146-0.635v-0.61l-0.049-0.293
				l0.049-0.317l0.293-0.879l-0.049-0.415l0.098-0.244v-0.342l-0.293-0.317l0.098-1.099l-0.098-0.731v-0.22l0.098-0.439
				l-0.146-0.659l0.098-0.488l-0.049-0.415l0.146-0.342l-0.098-0.659l-0.513-0.195l-1.147,0.049l-0.684,0.098l-0.269-0.391v-0.244
				v-0.366l-0.049-0.684l0.049-0.415l-0.049-0.342l-0.098-0.293l0.098-0.61l0.171-0.195l0.293-0.098l1.001,0.098l0.195,0.146
				l0.537-0.098l0.513-0.244v-1.05v-0.513l-0.049-0.244v-0.244V21.67l-0.195-1.196l-0.317-0.806l-0.244-0.293l-0.439-0.342
				l-0.317-0.757l0.269-0.757l0.635-0.293l0.757,0.098h0.293l0.513,0.293l0.391,0.415l0.952,0.708l0.244,0.342l0.366,0.488
				l-0.146-0.391l0.098-0.195l0.488-1.367l0.464-0.83l0.195-0.269l0.537-0.684l0.61-0.562l0.391-0.244l0.317-0.098l0.195-0.098
				L155.089,14.688z"/>
			<path fill="#FFFFFF" d="M185.705,16.641h0.513h1.001l0.244,0.049h0.244h0.439l0.414,0.049l0.903,0.244l0.195,0.049h0.243
				l0.195,0.195h0.465l0.293,0.049l0.194,0.098v0.415l0.464,0.049l0.244-0.098l0.439,0.195l0.316,0.098h0.244l0.195,0.146
				l0.658,0.293l0.732,0.513l0.514,0.391l0.586,0.415l0.121,0.195l0.537,0.146l0.099,0.391l0.194,0.146l0.099,0.269l0.22,0.244
				l0.684,0.757l0.099,0.195v0.244l0.562,0.659l0.099,0.244l0.146,0.391l0.366,0.464l0.293,0.635l0.195,0.903l0.146,0.293
				l0.293,1.05l0.27,1.172l0.049,0.879l0.049,1.367l0.049,0.293l0.391,0.293l0.66,0.366l0.098,0.537l-0.146,0.806l-0.316,0.854
				l-0.049,0.293l-0.099,0.464l-0.194,0.83l-0.195,0.562l-0.098,0.708l-0.146,0.488v0.391l-0.049,0.708l-0.27,0.439v0.464
				l-0.146,0.586l-0.05,0.317l-0.243,0.342l-0.195,0.146l-0.098,0.195l0.049,0.269l-0.099,0.439L198.4,41.47l-0.099,0.708
				l-0.293,0.708l-0.342,0.195l-0.22,0.146l-0.146,0.757l-0.098,0.195l-0.244,0.391l-0.514,0.513l-0.342,0.293l-0.537,0.952
				l-0.658,0.513l-0.244,0.195l-0.366,0.391l-0.586,0.146l-0.366-0.439l0.049,0.488l-0.194,0.562l-0.781,0.757l-0.366,0.195
				l-0.293,0.049l-0.244,0.049l-0.513,0.293l-0.293,0.098l-0.244,0.195l-0.659,0.171l-0.609,0.049l-0.244,0.098h-0.391L188,50.235
				l-0.195-0.146l-0.488,0.244l-0.269-0.049l-0.487-0.098l-0.293,0.195l-0.317-0.049l-0.488,0.049l-0.464-0.098l-0.879-0.098
				l-0.415-0.049h-0.293l-0.562-0.22h-0.343l-0.243-0.049l-0.146-0.049l-0.366-0.244l-0.635-0.049l-0.415-0.195l-0.488-0.293
				l-0.562-0.22l-1.293-1.001l-0.342-0.195l-0.317-0.244l-0.195-0.049l-0.194-0.244l-0.05-0.244l-0.243-0.171l-0.367-0.293
				l-0.731-0.806l-0.22-0.146l-0.146-0.293l-0.195-0.464l-0.244-0.146l-0.146-0.244l-0.415-0.391l-0.098-0.22l-0.244-0.732
				l-0.195-0.366l-0.244-0.586l0.099-0.342l-0.05-0.269l-0.219-0.293l-0.343-0.244l-0.194-0.317l0.194-0.293l-0.098-0.391
				l-0.293-0.195l-0.05-0.22l-0.049-0.293l-0.098-0.293v-0.293l-0.27-0.073l-0.098-0.342l0.098-0.342l-0.049-0.464l-0.194-0.293
				v-0.439l-0.146-0.659l-0.049-0.537l-0.049-0.317l-0.244-0.488l-0.049-0.317l-0.073-0.537l-0.049-0.464l-0.488-1.05v-0.342
				l0.146-0.439l0.146-0.195l0.903-0.513l0.098-1.05l0.098-0.195l0.195-0.342v-0.464l0.122-0.244l0.099-0.464l0.098-0.731
				l0.146-0.513v-0.195l0.146-0.439l0.049-0.562l0.415-1.05l0.732-0.806l0.146-0.293l0.708-1.245l0.342-0.854l0.27-0.293
				l0.537-0.098l0.562-0.513l-0.098-0.391l0.391-0.415l0.293-0.146l0.244-0.244l0.317-0.195l0.586-0.415l0.269-0.146l0.146-0.098
				l0.343-0.146l0.806-0.659h0.635l1.222-0.293l0.293-0.098l0.391-0.049l0.806-0.244h0.514l0.293-0.049l0.293-0.098L185,16.836
				l0.659,0.049L185.705,16.641z M186.51,19.034l-0.609,0.098l-1.44,0.244l-1.099,0.806l-0.366,0.244l-0.438,0.415l-0.05,0.244
				l-0.098,0.195l-0.392,0.391l-0.17,1.001l-0.05,0.269l-0.243,0.195l-0.195,0.146v0.537v0.22l-0.244,0.586l-0.098,0.195
				l-0.27,0.513l0.146,0.537l-0.146,0.757l-0.244,0.659l-0.049,0.195v0.391v0.366v0.391l-0.049,0.439v0.464l-0.049-0.244
				l-0.049,0.439v0.244l0.049,0.22v0.391l-0.099,0.244l-0.049,1.147l-0.049,0.61l0.049,0.439l0.099,0.366l0.707,0.146v0.293
				l0.098,1.245l0.099,0.854l0.244,0.757l-0.195,0.635l0.099,1.05l-0.146,0.659l0.098,0.488l0.099,0.513l0.293,0.439l-0.099,0.366
				v0.903l0.244,0.684v0.269l0.416,2.026l0.194,0.171v0.391l0.194,0.391l0.195,0.22l0.61,1.001l0.586,0.293l0.366,0.342l0.342,0.049
				l0.293,0.195l0.415,0.049l0.488-0.098l0.415,0.049l0.244-0.098l0.488,0.098l0.463-0.195l0.586-0.244l0.317-0.195l0.343-0.366H189
				l0.514-0.537l0.243-0.244l0.61-1.367l0.293-1.099l0.146-0.635v-0.269l0.194-0.391l0.342-1.05v-0.342V40.64l0.122-0.269
				l0.098-0.439l-0.146-0.562l0.293-0.83l0.049-0.562l0.146,0.146l0.146-0.635l-0.195,0.098l-0.098-0.415l0.098-0.391l-0.049-0.293
				l0.049-0.464l0.146-1.099l0.146-0.244v-0.464l-0.049-0.439l0.243,0.098l0.171-0.342l-0.049-0.317l-0.22-0.098l-0.146-1.538
				l-0.05-0.244l-0.293-0.098l-0.146-0.513v-0.757l0.146-1.05l-0.098-0.293l-0.146-0.293l0.194-0.317v-0.684l-0.244-0.562
				l0.195-0.586l0.098-0.22v-0.732l-0.098,0.195l-0.146-0.195l-0.318-0.244l0.05-0.366l-0.293-0.586l-0.05-0.659l-0.243-0.439
				v-0.317l-0.195-0.488l-0.22-0.146l-0.195-1.001l-0.391-0.317l-0.342-0.391l-0.27-0.244l-0.195,0.049l-0.194-0.244l-0.244-0.317
				l-0.464-0.195l-0.439-0.195l-0.244,0.098L186.51,19.034z"/>
			<path fill="#FFFFFF" d="M213.708,22.623h0.659l0.781,0.317l0.17,0.244l0.343,0.098l0.391,0.146l0.366,0.293l0.293,0.049
				l0.244,0.098l0.464,0.366l0.392,0.342l0.756,0.464l0.807,0.244l1.439,0.146l0.293,0.098l0.049,0.195l0.562,0.195l0.049,0.366
				l-0.049,0.586l-0.464,0.659l-0.293,0.806l-0.146,0.635l-0.049,0.464v0.391v0.61l-0.05,0.293l-0.098,0.806l0.049,0.293
				l0.049,0.806l-0.049,0.342l-0.366,0.952v0.195l-0.049,0.317l0.098,0.244v0.195v0.195l-0.146,1.146l0.146,0.146v0.757l0.123,1.196
				l0.098,0.464v0.391v0.61v0.195l-0.049,0.488v0.464v0.391l0.146,0.464l0.049,0.195l0.293,0.293l0.099,0.195l0.244,0.27
				l1.514,0.488l0.195,0.513l-0.049,0.537l-0.488,0.391l-0.514,0.317l-0.391,0.244l-0.316,0.244l-0.488,0.146l-0.61,0.708
				l-0.343,0.708l0.05,0.293l0.146,0.391v0.269l0.099,0.293l0.098,0.488l-0.098,0.317l-0.294,0.342l-0.487,0.195h-0.562
				l-0.293-0.146l-0.416-0.244l-0.342-0.146l-0.244-0.098l-0.316-0.366l-0.244-0.146l-0.244-0.342l-0.562-0.146l-0.049-0.464
				l-0.391-0.488l-0.244-0.195l-0.195-0.171l-0.316-0.195l-0.439-0.146l-0.293-0.146l-0.464-0.342l-0.146-0.513l0.049-0.391
				l0.609-0.562l0.244-0.146l0.293-0.488v-0.22l0.049-0.635l0.05-0.415l-0.099-0.195v-0.195l-0.049-0.391v-0.513l-0.146-1.099
				l0.049-0.61l-0.099-0.195l0.049-0.903l-0.049-0.146l-0.098-0.293v-0.244l0.098-0.366l0.049-0.195l0.05-0.293l0.049-0.293
				l0.244-0.171l-0.293-0.049v-0.732l0.049-0.317l0.049-0.684l0.05-0.244l-0.05-0.513l0.05-0.244l-0.099-0.366l0.099-0.438
				l0.049-0.61l-0.049-0.293l0.098-0.391l0.316-1.465l0.099-0.439l0.293-0.195l-0.513-0.146l-0.392-0.22l-0.537-0.293l-0.317-0.244
				l-0.342-0.244h-0.195l-0.414-0.22l-0.635-0.439l-0.514-0.146l-0.757-0.098l-0.293,0.146l-0.146,0.342l0.049,0.269l0.244,0.439
				l0.22,0.293l0.098,0.366l0.05,0.293l0.098,0.635l0.049,1.27v0.146l0.049,0.195l-0.049,0.293l0.098,0.366v0.684l-0.049,0.464
				l-0.195,0.195l-0.316,0.146l0.316,0.195l0.049,0.269l0.195,1.05l0.049,0.488l0.049,0.342l0.049,0.366l-0.098,0.342l0.049,0.293
				l0.049,0.269v0.293l-0.049,0.195l-0.049,0.61v0.342l0.049,0.806l-0.244,1.099l-0.146,0.586l-0.269,0.317l-0.098,0.342v0.391
				l0.269,0.146l0.342,0.073l0.586,0.146l0.366,0.049l0.293,0.098l0.464,0.342v0.659l-0.171,0.438l-0.195,0.244l-0.537,0.61
				l-0.854,0.61l-0.146,0.195l-0.316,0.098l-0.244,0.708l-0.293,0.342l0.244,0.439l0.049,0.146l0.195,0.366l-0.049,0.635
				l-0.293,0.317l-0.953,0.293l-0.342-0.098l-0.513-0.195l-0.293-0.146l-0.342-0.464l-0.464-0.293l-0.635-0.415l-0.317-0.488
				l-0.195-0.146l-0.342-0.146l-0.464-0.366l-0.391-0.195h-0.244l-0.465-0.146l-0.195-0.098l-0.243-0.146l-0.244-0.244l-0.099-0.269
				l0.05-0.586l0.146-0.317l0.439-0.391l0.342-0.195l0.415-1.05l0.049-0.708l-0.049-0.342l0.049-0.61l0.146-0.244v-0.293
				l-0.049-0.244l0.099-0.415l-0.05-0.342v-0.317l0.05-0.195l-0.146-0.439v-0.61l0.243-0.635v-0.708
				c0-0.162-0.017-0.276-0.049-0.342l0.049-0.22v-0.391l-0.146-0.244l0.098-0.513l0.049-1.294v-0.806l-0.049-0.244v-0.439
				l-0.049-0.317l-0.049-0.195l-0.098-0.293v-0.195l0.049-0.195l0.098-0.22l-0.049-0.342l0.049-0.244l-0.244-0.952l-1.343-0.049
				l-0.22-0.049l-0.635-0.464l-0.146-0.586l0.293-0.757l0.293-0.342l0.195-0.049l0.316-0.366l0.293-0.342l0.342-0.391l0.465-0.464
				l-0.049-0.195l0.098-0.146l0.098-0.195v-0.22l-0.049-0.195l-0.049-0.195l-0.098-0.537l0.049-0.464l0.586-0.659l0.316-0.098
				l0.146,0.098l0.902,0.073l0.195,0.049l0.391,0.098l0.366,0.049l0.88,0.342h0.269l0.586,0.391l0.293,0.22l0.366,0.391l0.293,0.342
				l0.244,0.317l0.365,0.342l0.244,0.049l0.659-0.098l0.731-0.659l0.27-0.488l0.049-0.195l-0.22-0.513l0.171-0.586L213.708,22.623z"
				/>
			<path fill="#FFFFFF" d="M233.507,13.418l0.195,0.122l0.586-0.073l0.366,0.073l0.438,0.195l0.415,0.391l0.049,0.391l0.049,0.269
				v0.244l-0.194,0.438l-0.708,0.415l-0.244,0.049l-0.366,0.098l-0.536,0.244l-0.244,0.244l-0.221,0.269l-0.391,0.903l-0.098,0.195
				v0.195l-0.049,0.342l-0.05,0.854v0.562l-0.146,3.296l-0.123,1.44l-0.049,0.244l-0.098,0.366l0.221,0.391l-0.074,0.391l0.27,0.22
				v0.342l0.049,0.391l-0.098,0.366v0.537l-0.146,0.317l-0.17,0.586v0.293l0.098,0.269v0.195l-0.098,0.342l0.269,0.806v0.659
				l0.049,0.488v1.147l-0.146,0.146l-0.123,0.269v0.488l0.049,0.562l-0.049,0.391l-0.194,0.488l0.366,0.049l0.098,0.317v0.342v0.659
				l0.098,0.342l-0.049,0.244v1.001l0.049,0.464l-0.098,0.391l-0.146,0.439l0.099,0.366l0.146,0.537v0.415l0.098,0.293l0.05,0.244
				l0.049,0.464l0.146,0.391l0.099,0.342l0.317,0.171l1.099,0.293l0.487,0.439l0.05,0.195v0.513l-0.343,0.537l-0.707,0.61
				l-0.342,0.244l-0.146,0.366l-0.562,0.098l-0.244,0.195l-0.609,0.708l-0.146,0.342l0.293,0.659l0.27,0.244l0.098,0.488
				l-0.269,0.659l-0.392,0.391l-0.342,0.049l-0.464-0.098l-0.194-0.146h-0.244l-0.146-0.098l-0.464-0.244l-0.343-0.415l-0.391-0.244
				l-0.513-0.293l-0.194-0.244l-0.195-0.27l-0.146-0.049l-0.562-0.391l-0.707-0.293l-0.537-0.269l-0.415-0.146l-0.392-0.195
				l-0.537-0.293l-0.17-0.146l-0.099-0.269l-0.099-0.488l0.244-0.513l0.27-0.244l0.195-0.098l0.488-0.244l0.365-0.708v-1.05
				l0.146-0.293l-0.146-0.244l-0.049-0.317l-0.049-0.244l0.146-0.244l0.098-0.806v-0.342l-0.098-0.61l0.243-0.146v-0.342l0.05-0.366
				l0.049-0.537l0.098-0.293l-0.098-0.269l-0.195-0.098v-0.586l-0.244-0.757l0.049-0.61l0.146-0.438l0.098-0.806l-0.049-0.293
				l0.098-1.099l0.049-0.562v-0.244l-0.146-0.439l0.098-0.269l-0.098-0.195l-0.099-1.294l0.049-0.854V28.14v-0.366l0.05-0.391
				l0.194-0.464l0.293-0.293l-0.293-0.391l-0.244-0.708l-0.049-0.391l0.049-0.22l-0.049-0.195l0.099-0.244l-0.05-0.708l-0.049-0.83
				l-0.049-0.562l-0.098-3.198l-0.146-0.708l-0.072-0.488l-0.049-0.513l-0.685-0.781l-0.317-0.22l-0.293-0.438l-0.098-0.513
				l0.244-0.439l0.415-0.293l0.78-0.049l0.807,0.098l0.415,0.098l0.537,0.146h0.194l0.904,0.562l0.463,0.342l0.293,0.293
				l0.537,0.562l0.27,0.244l0.293-0.098l0.098-0.244l-0.195-0.317l0.488-1.245l0.27-0.293l0.635-0.903l0.708-0.293l0.438-0.22
				L233.507,13.418z"/>
			<path fill="#FFFFFF" d="M239.807,22.769l0.243-0.049l0.659,0.22l0.293,0.049l0.708,0.244l0.293,0.342l0.562,0.366l0.099,0.244
				l0.635,0.586l0.464,0.317l0.391,0.439l0.709,0.391l0.293,0.122l0.244,0.049l0.414,0.439l-0.049,0.61l-0.316,0.537l-0.293,0.293
				l-0.293,0.269l-0.098,0.146l-0.099,0.342v0.293v0.464l0.049,0.635l0.099,0.952l0.049,2.515v0.195l-0.195,0.61l0.049,0.537
				l0.244,0.464v0.293l-0.146,0.342l0.049,0.195l0.099,1.001v0.27l-0.099,0.732l0.05,0.317l-0.05,0.391l0.05,1.147l-0.146,0.952
				l-0.099,0.438l-0.415,0.952l0.659,0.098l0.487,0.049l0.66,0.22l0.707,0.098l0.537,0.146h0.293l0.27,0.049l0.635-0.049v-0.464
				l-0.098-0.586l-0.342-0.806l-0.099-0.952v-0.391v-0.659l0.099-0.952l-0.05-0.488v-0.464l0.343-0.342l0.098-0.244l-0.146-0.415
				l-0.195-1.099v-0.635l0.195-0.049l-0.146-0.659l0.049-0.708l-0.194-0.244V32.12l0.243-0.488v-0.146l-0.098-0.806l0.049-0.293
				l-0.099-0.146l-0.342-0.269l-0.365-0.244l-0.293-0.146l-0.439-0.439l-0.122-0.269l0.073-0.952l0.293-0.244l0.293-0.293
				l0.244-0.415l0.22-0.146l0.83-0.781l0.22-0.269l0.098-0.293V25.09l-0.049-0.464l-0.17-0.488l-0.05-0.317l0.22-0.391l0.537-0.391
				l0.342-0.098l0.317,0.098l0.438,0.098l0.244,0.098l0.27,0.293v0.146l0.195,0.049l0.635,0.415l0.658,0.537l0.294,0.244
				l0.269,0.269l0.537,0.293l0.708,0.391l0.293,0.098l0.244,0.122l0.659,0.293l0.098,0.195l0.146,0.391l-0.049,0.513l-0.392,0.391
				l-0.562,0.464l-0.099,0.195l-0.146,0.391l-0.098,1.196l0.146,0.269v0.439l-0.099,0.293l-0.049,0.513l-0.195,0.708l0.099,0.928
				l-0.293,0.464l-0.269,0.293l0.269,0.098l0.099,0.415v0.732l0.098,0.317l0.049,0.195v0.293l-0.049,0.464v0.293l-0.098,0.806
				l0.049,0.293l0.049,0.537l-0.049,0.366v1.44l0.049,0.195v0.854l-0.27,0.244l-0.146,0.464l0.562,0.195l0.195,0.708l0.098,0.195
				l0.562,0.537l0.195,0.22l0.342,0.586l0.293,0.61l0.121,0.342l0.099,0.244l-0.146,1.66l0.098,0.195l-0.049,0.415l-0.27,0.928
				l-0.342,0.659l-0.049,0.391l-0.342,0.562l-0.099,0.195l-0.562,0.562l-0.391,0.244l-0.27,0.244l-0.195,0.049l-0.902,0.708
				l-0.488,0.049l-0.952,0.562l-0.562,0.244l-0.879,0.439l-0.367,0.098l-0.391,0.098l-0.414,0.171l-0.587,0.293l-0.415,0.146
				l-0.977,0.438l-0.465,0.27l-0.293,0.195l-0.512,0.438l-0.146,0.244l-0.098,0.366l0.098,0.586v0.316l-0.293,0.586l-0.659,0.465
				h-0.635l-0.22-0.098l-0.732-0.172l-1.001-0.438l-0.464-0.244l-0.195-0.146l-0.293-0.172l-0.244-0.195l-0.609-0.342l-0.293-0.391
				l-0.514-0.27l-0.488-0.487l-0.756-0.513l-0.244-0.195l-0.293-0.146l-0.465-0.146l-0.439-0.146l-0.463-0.366l-0.439-0.098
				l-0.195-0.098l-0.464-0.098l-1.05-0.293l-0.244-0.049l-0.513,0.049l-0.438,0.146l-0.343,0.244l-0.269,0.464v0.439l0.365,0.391
				l0.685-0.146h0.22l0.293-0.098l0.342,0.049h0.195l0.316,0.146l0.392,0.757v0.659l-0.099,0.488l-0.194,0.194l-0.146,0.269
				l-0.465,0.343l-0.146,0.194l-0.244,0.049l-0.194,0.099l-0.562,0.098l-0.391-0.049l-0.416-0.146l-0.586-0.244l-1.195-0.854
				l-0.221-0.487l-0.146-0.416l-0.146-0.342l-0.049-0.488l-0.05-0.365v-0.244l-0.049-0.293l0.194-1.099l0.244-0.415l0.367-0.757
				l0.194-0.146l0.293-0.293l0.366-0.195l0.537-0.342l0.244-0.171l0.756-0.244l0.343-0.049l0.22-0.049h0.684l0.27-0.049l0.244,0.098
				h0.293l0.757,0.049l0.244,0.146l0.562,0.098l0.146-0.195l0.098-0.684l0.342-0.659l0.099-0.195l0.854-0.513l1.244,0.049
				l1.367,0.708l-0.22,0.049l0.513,0.293l0.195,0.146l0.342,0.171l0.221,0.342l0.293,0.049l0.536,0.488l0.903,0.854l0.415,0.195
				l0.342,0.171l0.438,0.244l0.562,0.146l0.537,0.098h0.464h0.586l0.513-0.293l0.392-0.098l0.415-0.317l0.488-0.244l0.293-0.342
				l0.463-0.61l0.66-0.903l0.098-0.879l0.049-0.22l-0.098-0.732l-0.123-0.464l-0.146-0.146l-0.194-0.439l-0.195-0.171l-0.244-0.049
				l-0.27-0.244l0.074-0.195l-0.221-0.049l-0.391-0.195l-0.807-0.269l-0.342-0.049l-0.293,0.122l-0.708-0.073l-0.513,0.562
				l-0.391,0.342l-0.293,0.952l0.293,0.562l-0.099,0.537l-0.562,0.61l-0.293,0.098l-0.342-0.098l-0.416-0.098h-0.195l-0.684-0.415
				l-0.806-0.439l-0.513-0.391l-0.586-0.562l-0.317-0.146l-0.343-0.293l-0.586-0.366l-0.269-0.146l-0.342-0.098l-0.513-0.195h-0.244
				l-0.488-0.342l-0.049-0.903l0.098-0.269l0.293-0.391l0.709-0.488l0.243-0.61l0.146-2.295l-0.146-0.659l0.099-1.196l-0.049-0.61
				l0.049-0.928l-0.099-0.317l-0.098-0.293V36.74l0.049-0.195l0.194-0.415v-0.293V35.44l-0.049-0.317l-0.244-0.488l0.05-0.293
				v-0.513l0.194-0.391l0.049-0.366l0.05-0.244l-0.05-0.488v-0.708l-0.194-0.513v-0.342l-0.194-0.488l-0.807-0.757l-0.439-0.195
				l-0.316-0.098l-0.195-0.464v-0.806l0.391-0.488l0.709-0.61l0.609-0.586l0.195-0.195l0.293-0.269l0.195-0.098l0.049-0.195
				l0.121-0.391l-0.269-0.513l-0.098-0.537L239,23.77l0.098-0.293L239.807,22.769z"/>
		</g>
	</g>
	<g>
		<g enable-background="new    ">
			<path fill="#4F4F4F" d="M46.789,14.823l0.513-0.098l0.342,0.146l0.439-0.049l0.269,0.146l0.293,0.098l0.757,0.244l0.293,0.098
				h0.244l0.513,0.122l0.342-0.073l0.293-0.049l0.293,0.122l0.415,0.049l0.342,0.049l0.806-0.049l0.757,0.146l0.342-0.049
				l0.391-0.049l0.415,0.146l0.342-0.049l0.195-0.049l0.952-0.049l0.708,0.049l0.659,0.098h0.977l0.22,0.049l0.293-0.098h0.537
				h0.854h0.562l0.342,0.098l0.244,0.146l0.171-0.195l0.391-0.049l0.391-0.049l0.464,0.098h0.293h0.146H64h1.489l0.195,0.391
				l0.757-0.391h0.293l0.195-0.366l0.317-0.146l0.439,0.317h0.757l0.757-0.122l0.244-0.098l1.099-0.049l0.439-0.098h0.366
				l0.586-0.098l0.513-0.244l0.293-0.049l0.195-0.098l0.366,0.146h0.244l0.391,0.146l0.244,0.195l0.049,0.562l-0.049,0.195
				l-0.098,0.195l-0.146,0.293l-0.049,0.269l-0.146,0.391l-0.098,0.293l-0.098,0.757l0.146,1.44l0.098,0.562l-0.049,0.439
				l0.049,0.415l-0.049,0.293l0.049,0.244l0.049,0.22l0.049,1.196l0.049,0.439v1.562l0.195,0.439l-0.049,1.611l-0.195,0.146
				l-0.146,0.391v0.342l0.098,0.513l0.244,0.342v0.513v0.342l-0.195,0.049l-0.049,0.293l-0.146,0.659v0.708l-0.146,0.537
				l-0.098,0.317l-0.366,0.684l-0.244,0.293l-0.195,0.317l-1.196,1.245l-0.195,0.195l-0.464,0.293l-0.342,0.122l-0.562,0.098h-0.342
				l-0.708-0.22h-0.146l-0.391-0.098l-0.146-0.244l-0.562-1.294v-0.195l0.146-0.708l0.415-0.342l0.195-0.22l0.684-0.195h0.366
				l0.342,0.098l0.342-0.049l0.269-0.293l0.244-0.562l0.195-0.342l0.098-0.244l-0.049-0.342l0.098-0.317l0.146-0.342l-0.098-0.757
				l0.146-0.293l-0.146-0.61l-0.098-0.635l-0.537-0.146l-0.464-0.903l-0.049-0.464v-0.439l-0.098-0.513v-0.635l-0.342-1.465
				l-0.366-0.83l-0.098-0.317l-0.342-0.586l-0.195-0.269v-0.244L68.1,20.31l-0.269-0.293l-0.293-0.562L67.44,19.26l-0.293-0.195
				l-0.269-0.146l-0.146-0.146l-0.342-0.049L66.1,18.46l-0.659-0.049l-0.244,0.049l-0.195,0.049l-0.464,0.464l-0.244,0.293
				l-0.195,0.708l-0.049,0.439L64,22.757l-0.049,0.22l-0.122,1.245v0.537v0.269l0.122,1.05l-0.269,0.342l-0.146,0.244v0.903
				l0.146,0.342l0.269,0.415v0.438v0.464l-0.122,0.684l0.464,0.903v0.293l-0.195,0.464L64,32.181l0.049,0.732L64,33.866
				l-0.122,0.293v0.366l0.22,0.293L64,35.062l-0.122,0.464L64,35.672l0.244,0.293l-0.049,0.293l-0.098,0.317l0.049,0.635
				l0.098,0.415l0.049,0.342l-0.146,0.244l-0.049,0.269l0.098,0.195l0.195-0.195l0.488,0.146l-0.098,0.244l0.146,0.757l-0.195,0.391
				l-0.195,0.439l0.098,0.366l0.61,0.684v0.22l-0.049,0.293l0.391,0.391l0.098,0.366l0.61,1.05l1.001,0.854l1.05,0.244l0.391,0.146
				h0.293l0.415-0.244l0.146-0.269V43.68l0.244-0.562l0.244-0.244l0.366-0.464l0.439-0.098l0.195-0.049l0.22-0.049l0.342,0.049
				l0.293,0.049l0.293,0.098l0.317,0.146l0.439,0.61l0.146,0.513l0.098,0.586v0.244l-0.195,0.366l-0.049,0.293l-0.098,0.195
				l-0.146,0.146l-0.195,0.366l-0.146,0.244l-0.317,0.293l-0.488,0.415h-0.195l-0.464-0.122l-0.391,0.757l-0.464,0.366h-0.244
				l-0.439,0.195l-0.513-0.464l-0.244,0.098l-1.05,0.317l-1.05-0.049l-0.806-0.098H65.05l-0.513-0.073l-0.391-0.098l-0.854-0.146
				l-1.001-0.049l-0.293-0.244h-0.464l-0.244,0.049l-0.146-0.195L60.9,47.025l-0.659-0.049l-0.293-0.146l-1.05-0.171h-0.513
				l-0.952,0.122l-1.245-0.073l-0.293,0.122l-0.415,0.098l-0.293-0.049l-0.391-0.171l-0.464,0.366l-0.952,0.293l-0.293,0.146
				l-0.391,0.317l-0.317,0.098l-0.195,0.439l-0.146,0.146l-0.244,0.244l-0.659,0.415l-0.732-0.049h-0.269l-0.586-0.659l-0.195-0.098
				l-0.073-0.391l-0.098-0.366V47.22l0.171-0.513l0.098-0.195l0.391-0.537l0.854-0.854l0.195-0.195l0.61-0.464l0.195-0.049
				l0.195,0.195l0.391-0.244l0.049-0.342l0.757-0.415l0.244-0.098l0.415-0.244l0.293-0.098l0.439-0.146l0.317-0.293l0.098-0.366
				h0.244l0.293-0.488l0.098-0.293l0.22-0.659v-0.195v-0.269l0.146-0.439l-0.146-0.391l0.098-0.415V38.48l-0.244-0.415l0.098-0.439
				l0.244-0.415v-0.293v-0.195l0.195-0.415v-0.342l-0.098-0.293l-0.049-0.293v-0.317l0.293-0.903l-0.049-0.586l-0.146-0.244
				l-0.049-0.317v-0.488l0.391-0.806V31.28l-0.293-0.098l-0.391-0.22l0.146-0.439l0.342-0.244l0.049-0.27l0.049-0.195v-0.146
				l-0.195-0.244l0.049-0.342l-0.049-0.708l0.146-0.244l0.146-0.415l-0.049-0.293l0.049-0.293l-0.049-0.269l-0.049-0.293
				l0.098-0.342l-0.049-0.708l-0.049-0.244l-0.244-0.61l-0.049-0.342l0.244-0.903l-0.049-1.392l-0.049-0.464l-0.049-0.342
				l-0.098-1.146l-0.049-0.513l-0.049-0.342l-0.854-0.488l-0.293,0.146l-1.147,0.537l-0.854,0.806l-0.293,0.562l-0.317,0.342
				l-0.049,0.195l-0.439,0.61l-0.098,0.195l-0.269-0.464l-0.293,0.171l0.146,0.439l-0.098,0.562l-0.146,0.244l-0.195,0.244
				l0.049,0.342l0.098,0.464l-0.195,0.391L50.28,25.42l-0.244,0.806l-0.049,0.342l-0.049,0.293l-0.098,0.415l-0.098,0.293
				l0.049,0.464l-0.049,0.342v0.244l-0.049,0.244v0.22l-0.049,0.244v0.293l-0.049,1.44l0.195,0.513l0.098,0.293l0.098,0.317
				l0.464,0.342l0.342,0.049H51.5l0.439,0.146l0.562,0.659l0.098,0.586v0.317l-0.171,0.684l-0.146,0.293l-0.146,0.122l-0.342,0.342
				l-0.806,0.391h-0.195l-0.464,0.098l-0.781-0.049l-0.562-0.146l-0.195-0.146l-0.195-0.146l-0.757-0.806l-0.293-0.342l-0.098-0.513
				l-0.146-0.244l-0.073-0.391l-0.244-0.098v-0.415l-0.195-0.293l-0.146-0.513l-0.049-0.195l-0.049-0.342l-0.049-0.342l-0.049-2.1
				v-0.269l0.049-0.488l-0.415-0.195l-0.146-0.316l-0.195-0.537l0.098-0.342l0.146-0.61l0.195-0.293l0.171-0.464v-0.293l0.098-0.391
				l0.342-0.854l0.098-1.147l0.098-0.366l-0.146-0.439l0.146-0.293v-0.269l0.146-0.83l-0.049-0.464l0.049-0.391v-0.854l-0.244-1.245
				l-0.146-0.415l-0.146-0.146l-0.195-0.244l-0.22-0.464l-0.049-0.244l-0.049-0.439l0.049-0.244l0.366-0.513L46.789,14.823z"/>
			<path fill="#4F4F4F" d="M79.992,20.365l0.513,0.049l0.439,0.049l0.146,0.195h0.244l0.415,0.269l0.391,0.439l0.244,0.098
				l0.22,0.098l0.244,0.269l0.635,0.391l0.366,0.342l0.439,0.61l0.342,0.244l0.317,0.049l0.537,0.049l0.269,0.098l0.391,0.269
				l0.342,0.439v0.146l-0.244,0.61l-0.391,0.684l-0.269,0.098l-0.292,0.12l-0.146,0.488l-0.146,0.903v0.146v0.293l-0.049,0.806
				l-0.098,1.196L84.9,30.52v0.293v0.562l-0.049,0.391l-0.049,0.464l-0.171,0.195l-0.195,0.684v0.269l0.269,0.488l0.195,0.098
				l0.195,0.464v0.732l-0.049,0.757l-0.415,0.244l0.464,0.317l-0.049,0.342l-0.049,0.391l0.098,0.366l0.049,1.953l0.098,0.635
				l0.098,0.244l0.146,0.22l0.415,0.195l0.342,0.098l0.342,0.195l0.269,0.244l0.195,0.22L87,41.874l-0.146,0.293l-0.415,0.659
				L86,43.07l-0.513,0.439l-0.586,0.513l-0.513,0.806l-0.098,0.195l-0.049,0.293l0.146,0.415l0.146,0.342v0.391l-0.146,0.366
				l-0.537,0.439l-0.854-0.098l-0.464-0.195L82.14,46.83l-0.244-0.22l-0.562-0.439l-0.488-0.562l-0.244-0.049l-0.757-0.635
				l-0.659-0.317l-1.001-0.391l-0.244-0.049l-0.293-0.049l-0.317-0.146l-0.098-0.293l-0.195-0.22l-0.098-0.342l0.098-0.61
				l0.366-0.293l0.439-0.391l0.342-0.415l0.049-0.342l0.22-0.537l0.098-0.22l0.049-0.342l-0.049-0.342l0.146-0.562l-0.146-0.586
				l0.146-0.61v-1.001l0.049-0.61l-0.098-0.439l0.146-0.342l0.098-0.415v-0.635v-1.001v-0.513l-0.098-0.293l-0.195-0.56l0.049-0.293
				l0.195-0.342l-0.049-0.806l0.098-0.488l-0.049-0.269l-0.146-0.586l0.049-0.269l-0.049-0.781l-0.146-0.659l-0.171-0.342
				l-0.146-0.195h-0.391l-0.293-0.122l-0.22-0.195l-0.195-0.146l-0.098-0.439l0.098-0.708l0.366-0.342l0.293-0.366l0.195-0.098
				l0.513-0.439l0.342-0.415l0.098-0.293l0.244-0.293l0.269-0.195l0.049-0.22l-0.049-0.684l-0.22-0.659V21.17l0.22-0.293
				l0.391-0.317L79.992,20.365z M81.09,11.161l0.562,0.049h0.244l0.391,0.317l0.146,0.244l0.171,0.049l0.342,0.342l0.635,0.708
				l0.22,0.293l0.146,0.195h0.195l0.61,0.513l0.244,0.098l0.391,0.439l0.415,0.562l-0.171,0.903l-1.05,0.708l-0.439-0.269
				l-0.195,0.195l-0.049,0.22v0.244l-0.146,0.195l-0.098,0.293l0.098,0.659l-0.049,0.293l-0.22,0.146l-0.195,0.366l-0.586,0.244
				h-0.513l-0.537-0.342l-0.317-0.098l-0.391-0.317l-0.293-0.391l-0.22-0.342l-0.244-0.22l0.049-0.244L80.09,16.92l-0.806-0.195
				l-0.195-0.146l-0.293-0.22l-0.464-0.586l-0.098-0.659l0.415-0.708l0.684-0.488l0.757-0.439l0.415-0.317v-1.294l0.244-0.391
				L81.09,11.161z"/>
			<path fill="#4F4F4F" d="M99.499,20.169h0.146l0.708,0.049l0.757,0.659l0.293,0.732l0.098,0.22l0.146,0.342l0.391,0.049
				l0.415,0.903l0.146,0.244l0.293,0.439l0.098,0.269l0.146,0.439l0.073,0.464l0.098,0.244l0.195,0.195l0.488,0.659l0.146,1.001
				l0.317,0.049l0.439,0.049l0.195,0.244l0.22,0.195l0.146,0.513l-0.269,0.537l-0.537,0.562l-0.659,0.391l-1.05,0.439l-0.195,0.122
				l-0.586,0.635l-0.171,0.464l-0.098,0.293l-0.244,0.293l-0.488,0.195h-0.513l-0.146-0.146l-0.195-0.244l-0.317-0.488l-0.146-0.464
				l-0.293-0.708l-0.293-0.391l-0.146-0.342l-0.098-0.195l-0.22-0.464l-0.146-0.537l-0.049-0.171l-0.439-0.391l-0.366-0.854
				l-0.195-0.488l-0.244-0.464l-0.146-0.342l-0.146-0.195l-0.317-0.317l-0.244,0.171l-0.293,0.439l0.098,1.099l0.146,0.293
				l0.244,0.659l0.049,0.195l0.049,0.513l0.049,0.342l0.049,0.342l-0.049,0.415l0.22,0.293l-0.049,0.195l0.049,0.317l0.049,0.293
				l-0.22,0.439l0.122,0.146l0.049,0.757l0.049,0.293l0.049,0.562l-0.049,0.391l-0.22,0.415l-0.049,0.391v0.293l0.22,0.171
				l0.049,0.391l0.049,0.244l-0.146,0.049l-0.049,0.464l0.098,1.489l-0.22,0.903l-0.146,0.293l-0.049,0.244l-0.195,0.22
				l-0.098,0.244l-0.439,0.244l0.049,0.342l0.244,0.415l0.293,0.244l0.342,0.195l0.269,0.098l1.782,0.513l0.269,0.049h0.244
				l0.195,0.049h0.464l0.83-0.049v0.391l0.269-0.146l0.342-0.342l0.342-0.098l0.098-0.269v-0.195l0.146-0.293l-0.098-0.562
				l-0.098-0.195l-0.049-0.195l-0.146-0.439v-0.22l0.195-0.488l0.269-0.244l0.244-0.146l0.342-0.049l0.195-0.122l1.05,0.513
				l0.146,0.293l0.366,0.854v0.61l-0.098,0.879l-0.269,0.659l-0.195,0.464l-0.244,0.488l-0.342,0.439l-0.317,0.171l-0.098,0.195
				l-0.195,0.244l-0.586,0.488l-1.367,0.708l-0.684,0.562l-0.122,0.195l-0.098,0.438l0.22,0.464v0.684l-0.415,0.513l-1.001,0.098
				l-0.342-0.049l-0.562-0.098l-0.342-0.098l-1.099-0.366l-0.342-0.098l-0.415-0.293l-0.684-0.293l-0.562-0.366l-0.391-0.098
				l-0.659-0.391l-0.293-0.195l-0.708-0.244l-0.146-0.415l-0.659,0.098l-0.293-0.342h-0.293l-0.61-0.049l-0.342,0.049l-0.293-0.049
				l-0.22-0.146l-0.195-0.464V43.07l0.146-0.513l0.269-0.293l0.342-0.391l0.098-0.244l0.049-0.415l0.146-0.439l0.098-1.416
				l0.098-0.537V38.48v-0.513l0.098-0.391l0.317-0.317l-0.317-0.732v-0.61l0.122-1.953l-0.073-0.391v-0.415l-0.049-0.391v-0.244
				l0.049-0.244l-0.098-0.27v-0.195l0.049-0.244l0.049-0.391l-0.049-0.269l0.22-0.537l-0.049-0.195V29.91l0.098-0.195l-0.098-0.537
				l-0.049-0.903l-0.073-0.366v-0.83L90.2,26.908l0.049-0.586H89.81l-0.22-0.293l-0.098-0.415l0.049-0.293l0.269-0.464l0.586-0.293
				h0.195l0.22,0.049l0.342,0.049l0.903-0.293h0.146l0.195-0.098l0.513-0.146l0.244-0.049l0.195-0.098l0.391-0.098l0.269-0.073
				l0.684-0.195l0.854-0.439l0.562-0.195l0.488-0.269l0.293-0.244l0.22-0.049l0.781-0.439l0.269-0.195l0.439-0.366l0.049-0.391
				l0.244-0.415l0.366-0.342L99.499,20.169z"/>
			<path fill="#4F4F4F" d="M115.392,11.38l1.294,0.049l0.562,0.146l0.439,0.098l0.903,0.537l0.415,0.513l0.586,0.635l0.146,0.269
				l0.049,0.195l0.049,0.244l0.049,0.61l-0.244,0.391l-0.293,0.195v0.195l0.488,0.513l-0.098,0.488l-0.732,0.708l-0.22,0.098
				l-0.635,0.098l-0.415-0.098l-0.391-0.342l-0.391-0.61l-0.098-0.684l0.098-0.513l0.049-0.195l0.098-0.293v-0.659l-0.464-0.098
				l-0.488,0.049l-0.562,0.293L115,15.213l-0.146,0.317l-0.049,0.244l-0.171,0.342l-0.098,0.562v0.342l-0.146,1.001l0.049,0.439
				l-0.098,0.806l-0.049,0.61v0.537l-0.098,0.244v0.171l0.049,0.293l-0.049,0.244l0.049,0.342l-0.049,0.415l0.049,0.391l0.098,0.659
				l0.757,0.342l0.244-0.146l0.61-0.61l0.195-0.635l0.488-1.514l0.366-0.146h0.684l0.513,0.146l0.439,0.269l0.317,0.244l0.244,0.098
				l0.391,0.244l0.61,0.464l0.342,0.195l0.513,0.244l0.391,0.146l0.708,0.195l0.146,0.049l0.391,0.366l1.147,0.391l0.464-0.049
				l0.439,0.098l0.293,0.195l0.269,0.903l-0.61,0.903l-0.439,0.366l-0.415,0.732l-0.391,0.757l-0.195,0.488l-0.708,1.05
				l-0.195,0.171l-0.146,0.293l-0.146,0.195l-0.22,0.195l-0.439,0.415l-0.049,0.635l0.293-0.049l0.342,0.146l0.415,0.22l0.586,0.049
				l1.099,0.391l0.513,0.195l0.342,0.562v0.195l-0.342,0.659l-0.195,0.635v0.415l-0.098,0.928l0.049,0.61l-0.464,0.854v0.342
				l0.195,0.244l-0.049,0.317v0.293l0.049,0.146l0.073,1.514v0.244l0.391,0.757l0.806,0.293h0.488l0.244,0.195l0.171,0.244v0.415
				l-0.073,0.293l-0.146,0.293l-0.195,0.244l-0.195,0.269l-0.195,0.293l-0.244,0.098l-0.562,0.049l0.049,0.464l-0.708,0.586
				l-0.146,0.244l-0.098,0.464l0.195,0.854l-0.342,1.099l-0.195,0.244l-0.415,0.049l-0.732-0.195l-0.61-0.366l-0.342-0.342
				l-0.464-0.342l-0.293-0.195l-0.195-0.22l-0.049-0.195l-0.562-0.439l-0.439-0.415l-0.098-0.342l-0.098,0.195l-0.269-0.098h-0.293
				l-0.195-0.098l-0.391-0.195l-0.562-0.513l0.049-0.732l0.195-0.22l0.269-0.244l-0.073-0.195l0.513-0.61l0.195-0.488l0.049-0.293
				l-0.049-0.562l0.098-0.342l-0.098-0.659l-0.049-0.146l-0.049-1.343l-0.049-0.317l0.049-0.439l0.098-0.244v-0.513l0.098-0.293
				l0.146-0.195l0.098-0.366l0.22-0.635l-0.464-0.415l-0.391-0.098l-0.562-0.244l-0.439-0.195l-0.244-0.195l-0.366-0.049
				l-0.342-0.049l-0.146-0.22l-0.708-0.293l-0.195-0.391l-0.146-0.464v-0.195l0.146-0.293l0.342-0.293l0.22-0.049l0.391,0.049h0.244
				l0.513,0.098l0.439,0.098l0.439-0.098l0.366-0.317l0.439-0.195l0.195-0.195l0.317-0.342l0.195-0.317l0.146-0.293l0.244-0.391
				l0.195-0.61l0.269-0.391l0.146-0.317l0.195-0.146l0.049-0.342l-0.098-0.293h-0.244l-0.317,0.244h-0.195l-0.195-0.098h-0.195
				l-0.195-0.049h-0.415l-0.293-0.098l-0.537-0.269l-0.269-0.244l-0.488-0.244l-0.806-0.439l-0.439-0.269l-0.854-0.146l-0.366,0.244
				l-0.098,0.415v0.195l-0.146,0.854l0.049,0.244v0.244l-0.049,0.659l-0.391,0.244l0.049,0.757l0.049,0.342l0.293-0.098v0.293
				l-0.098,0.562v0.391l0.098,0.195l-0.098,0.415l0.098,1.44v0.415l-0.049,0.586l0.146,0.708l0.049,0.342v0.366l-0.049,0.195
				l-0.195,0.195v0.659l0.195,0.879l0.146,0.513l-0.049,0.391v0.854l0.049,0.342l0.049,0.269l0.22,0.195l0.146,0.342l0.098,0.244
				l0.293,0.171h0.366l0.195,0.195l0.391,0.293l0.244,0.464l-0.195,0.439l-0.146,0.244l-0.757,0.659l-0.293,0.244l-0.195,0.146
				l-0.366,0.195l-0.244,0.098v0.269l-0.586,0.439l-0.146,0.244l-0.073,0.171l-0.098,0.439l0.317,0.61l0.146,0.293v0.146
				l-0.146,0.757l-0.269,0.195l-0.488,0.244l-1.05-0.244l-0.146-0.195l-0.659-0.366l-0.146-0.342l-0.342-0.342l-0.464-0.146
				l-0.195-0.122l-0.708-0.488l-0.293-0.244l-0.293-0.317l-0.293-0.244l-0.366-0.146l-0.342-0.098l-0.61-0.391v-0.22l-0.049-0.342
				l0.146-0.391l0.171-0.269l0.342-0.293l0.146-0.293l0.244-0.195l0.098-0.317l0.049-0.244l0.049-0.195l0.171-0.659l-0.049-0.537
				l0.098-0.513v-0.195V38.77v-0.342v-0.22l0.146-0.635l-0.049-0.757v-0.391v-0.171l-0.146-0.293v-0.488l0.146-0.317l0.049-0.293
				l0.098-0.293l0.049-0.293l-0.146-0.562V33.52v-0.293v-0.269l0.098-0.586l-0.146-0.269l-0.098-1.245l0.195-0.391v-0.244v-0.317
				v-0.244l0.049-0.293l-0.098-0.562v-0.488v-1.245l0.098-0.415v-0.244l0.146-0.708l0.439-0.537v-0.146l-0.244-0.171l-0.098-0.439
				l0.146-0.244v-0.562l-0.342-0.195l-0.049-0.391v-2.515v-0.293v-0.757l-0.049-0.195l0.049-1.904l-0.098-0.537l-0.049-0.464
				l-0.098-0.83l-0.366-0.61l-0.293-0.562l-0.61-0.342v-0.391l0.269-0.513l0.293-0.342l0.342-0.049h0.952l0.415,0.195h0.195
				l0.342,0.244l0.195,0.146l0.269,0.27l0.195,0.244l0.537,0.806l0.269-0.146V14.11l0.146-0.293L112,13.255l0.854-0.83l0.195-0.22
				l0.537-0.293l0.757-0.244l0.342-0.195L115.392,11.38z"/>
			<path fill="#4F4F4F" d="M138.585,20.121h0.708l0.439,0.293l0.098,0.317l0.659,1.05l0.488,0.83l0.22,0.562l0.342,0.537
				l0.195,0.464l0.098,0.293l-0.049,0.195l0.049,0.415l0.098,0.244l0.098,0.391l0.366,0.464l0.586,0.488l0.195,0.366l0.122,0.488
				l0.146,0.513l0.244,0.391l0.244,0.757l0.659,0.537l0.146,0.513l-0.098,0.439l-0.415,0.439l-0.195,0.366l-1.196,0.708
				l-0.806,0.488l-0.586,0.244l-0.244,0.195l-0.317,0.317l-0.244,0.098l-0.61,0.146l-0.391,0.293l-0.293,0.098l-0.854,0.513h-0.195
				l-0.366,0.293l-0.195,0.049l-0.684,0.659l-0.269,0.438l-0.049,0.195v0.22l-0.049,0.293l-0.391,0.391l-0.708-0.049l0.049,0.562
				l-0.049,0.391l-0.195,0.293l-0.146,0.464l-0.244,0.293l-0.122,0.293l0.073,0.464l0.195,0.342l0.244,0.049l0.244,0.098h0.293h0.61
				l0.464,0.22l0.684,0.049l0.562,0.049l0.293,0.049h0.195l0.659,0.098l0.684,0.049l0.659-0.098l0.293-0.195l0.098-0.22l0.122-0.244
				l-0.049-0.195v-0.195l-0.171-0.269l-0.195-0.342l-0.195-0.635l0.146-0.61l0.146-0.244l0.195-0.317l0.513-0.244l0.293-0.049h0.317
				l0.488,0.195l0.293,0.098l0.366,0.415l0.195,0.439l0.098,1.294l-0.098,0.22l-0.098,0.586l-0.098,0.61l-0.146,0.391l-0.269,0.195
				l-0.195,0.317l-0.049,0.293l-0.439,0.488l-0.366,0.366l-2.148,1.733l-0.195,0.317l-0.098,0.635l0.146,0.269l0.049,0.439
				l-0.098,0.391l-0.293,0.415l-0.269,0.049l-0.781,0.146l-0.366-0.098l-0.635-0.098l-0.317-0.098l-0.439-0.195l-0.293-0.171
				l-0.317-0.049l-0.293-0.049l-0.391-0.293l-0.464-0.098l-0.83-0.513l-0.269-0.098l-0.439-0.244l-0.513-0.293l-0.439-0.195
				l-0.708-0.464l-0.684-0.244l-0.61-0.293l-0.293-0.049h-0.757l-0.293-0.171l-0.366-0.342l-0.146-0.342l0.049-0.146l0.098-0.366
				l0.22-0.342l0.586-0.562l0.293-0.439l0.049-0.439l0.122-0.366l0.098-0.684v-0.317l-0.049-0.537v-0.317l-0.171-0.146l-0.049-0.439
				l0.269-0.146l-0.146-0.317l0.098-0.488l-0.049-0.293l-0.22-0.562l0.22-0.244l0.049-0.195v-0.195l-0.049-0.806l0.049-0.195v-1.611
				l-0.049-0.342v-0.464l-0.049-0.684l0.049-0.464l-0.049-0.537l0.049-0.366l0.049-0.244l-0.098-0.195l-0.122-0.903l-0.049-0.562
				l0.049-0.391l-0.195-0.586l-0.146-0.22l-0.537-0.391l-0.171-0.195l-0.049-0.244l0.049-0.464l0.317-0.438l0.684-0.27l1.05-0.146
				l0.562-0.146l0.195-0.098l0.293-0.049l2.1-0.61l0.317-0.146h0.244l0.146-0.146l0.195-0.244l0.366,0.098l0.488-0.244l0.342-0.27
				l0.757-0.438l0.195-0.098l0.952-0.903l0.146-0.342l0.049-0.366l0.317-0.342L138.585,20.121z M135.29,25.028l-0.146,0.391v0.391
				l0.098,0.269l0.098,0.391l0.098,0.659l0.049,0.244l0.098,0.195l0.049,1.05l0.049,0.195l0.098,0.317l0.098,0.488l-0.146,0.342
				l0.146,0.464v0.293l-0.098,0.293l-0.146,0.513l0.049,0.195l0.049,0.195l-0.049,0.415l0.049,0.244v0.342l0.049,0.244l-0.098,0.464
				l0.146,0.244l0.659-0.854l0.708-0.244l0.098-0.244l0.195-0.098l0.195-0.146l0.293-0.098l0.415-0.708l0.098-0.195l-0.098-0.27
				l-0.244-0.438l-0.098-0.244l-0.073-0.317l-0.342-0.732l-0.708-1.807l-0.195-0.146l-0.488-0.952l-0.098-0.342l-0.61-1.05
				L135.29,25.028z"/>
			<path fill="#4F4F4F" d="M155.089,12.528h0.659l0.342-0.049l0.903,0.83l0.195,0.903l-0.537,0.903l-0.562,0.293l-1.099,1.05
				l-0.537,1.099l0.049,0.415l-0.049,0.195l-0.098,0.391v0.171l-0.22,0.586v1.807v0.195v0.513v0.488l0.806,0.049h0.757l0.708-0.049
				l0.684-0.244l0.513-0.366l0.439-0.879l0.342-0.903l0.464-0.464l0.708-0.195l0.488,0.098l0.439,0.317l0.317,0.391l0.049,0.586
				l-0.049,0.269l-0.049,0.488l-0.098,0.244l-0.122,0.317l-0.195,0.293l-0.635,0.61l-0.22,0.293l-0.195,0.195l-0.195,0.049
				l-0.537,0.513l-0.049,0.635l0.098,0.244l0.293,0.513l0.098,0.488l-0.049,0.317l-0.146,0.293l-0.244,0.195l-0.513,0.244h-0.195
				h-0.293l-0.317-0.098l-0.586-0.684l-0.562-0.513h-0.903h-0.342l-0.488,0.098l-0.073,0.317v0.684l0.073,0.366l-0.171,0.342
				l0.171,2.148l0.049,0.708l0.049,0.537l0.098,0.244v0.513l-0.049,0.342l-0.049,0.317l0.049,0.391v1.196l-0.22,0.049l0.122,0.195
				l0.146,1.562v0.195l-0.049,2.295l0.049,0.293v0.22l-0.146,0.391l-0.366,0.391l-0.244,0.22l-0.293,0.195l-0.049,0.342l0.293,0.098
				l0.146,0.146h0.195l0.854,0.317l1.196-0.098l0.61,0.293l0.342,0.049l0.195-0.049h0.317h0.293l0.537,0.195l0.415,0.562
				l-0.049,0.439l-0.049,0.391l-0.366,0.61l-0.537,0.537l-0.342,0.269l-0.269,0.195l-0.439,0.61l-0.293,0.293l-0.098,0.195v0.439
				l0.293,0.415l0.049,0.342v0.464l-0.293,0.537l-0.562,0.244h-0.244l-0.244-0.049l-0.562-0.146l-0.293-0.098l-0.464-0.195
				l-0.342-0.195l-0.342-0.269l-0.464-0.146l-0.098-0.195l-0.586-0.342l-0.513-0.146l-0.659-0.415l-0.098-0.293l-0.342-0.098
				l-0.342-0.146l-0.269-0.269l-0.195-0.098l-0.684-0.244l-0.171-0.049l-0.293-0.098l-0.293-0.049l-0.366-0.146l-0.781-1.367
				l0.244-0.586l0.293-0.244v-0.366l0.049-0.244l0.146-0.391V39.87l0.122-0.391l0.049-0.513l0.098-0.293l0.049-0.244l-0.098-1.172
				l0.049-0.244l0.244-0.049v-0.293l-0.146-0.415l-0.146-0.391l0.098-0.391l-0.049-0.513l0.146-0.635v-0.61l-0.049-0.293
				l0.049-0.317l0.293-0.879l-0.049-0.415l0.098-0.244v-0.342l-0.293-0.317l0.098-1.099l-0.098-0.732v-0.22l0.098-0.439
				l-0.146-0.659l0.098-0.488l-0.049-0.415l0.146-0.342l-0.098-0.659l-0.513-0.195l-1.147,0.049l-0.684,0.098l-0.269-0.391v-0.244
				v-0.366l-0.049-0.684l0.049-0.415l-0.049-0.342l-0.098-0.293l0.098-0.61l0.171-0.195l0.293-0.098l1.001,0.098l0.195,0.146
				l0.537-0.098l0.513-0.244v-1.05v-0.513l-0.049-0.244v-0.244V19.51l-0.195-1.196l-0.317-0.806l-0.244-0.293l-0.439-0.342
				l-0.317-0.757l0.269-0.757l0.635-0.293l0.757,0.098h0.293l0.513,0.293l0.391,0.415l0.952,0.708l0.244,0.342l0.366,0.488
				l-0.146-0.391l0.098-0.195l0.488-1.367l0.464-0.83l0.195-0.269l0.537-0.684l0.61-0.562l0.391-0.244l0.317-0.098l0.195-0.098
				L155.089,12.528z"/>
			<path fill="#4F4F4F" d="M185.705,14.481h0.513h1.001l0.244,0.049h0.244h0.439l0.414,0.049l0.903,0.244l0.195,0.049h0.243
				l0.195,0.195h0.465l0.293,0.049l0.194,0.098v0.415l0.464,0.049l0.244-0.098l0.439,0.195l0.316,0.098h0.244l0.195,0.146
				l0.658,0.293l0.732,0.513l0.514,0.391l0.586,0.415l0.121,0.195l0.537,0.146l0.099,0.391l0.194,0.146l0.099,0.269l0.22,0.244
				l0.684,0.757l0.099,0.195v0.244l0.562,0.659l0.099,0.244l0.146,0.391l0.366,0.464l0.293,0.635l0.195,0.903l0.146,0.293
				l0.293,1.05l0.27,1.172l0.049,0.879l0.049,1.367l0.049,0.293l0.391,0.293l0.66,0.366l0.098,0.537l-0.146,0.806l-0.316,0.854
				l-0.049,0.293l-0.099,0.464l-0.194,0.83l-0.195,0.562l-0.098,0.708l-0.146,0.488v0.391l-0.049,0.708l-0.27,0.439v0.464
				l-0.146,0.586l-0.05,0.317l-0.243,0.342l-0.195,0.146l-0.098,0.195l0.049,0.269l-0.099,0.439L198.4,39.31l-0.099,0.708
				l-0.293,0.708l-0.342,0.195l-0.22,0.146l-0.146,0.757l-0.098,0.195l-0.244,0.391l-0.514,0.513l-0.342,0.293l-0.537,0.952
				l-0.658,0.513l-0.244,0.195l-0.366,0.391l-0.586,0.146l-0.366-0.439l0.049,0.488l-0.194,0.562l-0.781,0.757l-0.366,0.195
				l-0.293,0.049l-0.244,0.049l-0.513,0.293l-0.293,0.098l-0.244,0.195l-0.659,0.171l-0.609,0.049l-0.244,0.098h-0.391L188,48.075
				l-0.195-0.146l-0.488,0.244l-0.269-0.049l-0.487-0.098l-0.293,0.195l-0.317-0.049l-0.488,0.049l-0.464-0.098l-0.879-0.098
				l-0.415-0.049h-0.293l-0.562-0.22h-0.343l-0.243-0.049l-0.146-0.049l-0.366-0.244l-0.635-0.049l-0.415-0.195l-0.488-0.293
				l-0.562-0.22l-1.293-1.001l-0.342-0.195l-0.317-0.244l-0.195-0.049l-0.194-0.244l-0.05-0.244l-0.243-0.171l-0.367-0.293
				l-0.731-0.806l-0.22-0.146l-0.146-0.293l-0.195-0.464l-0.244-0.146l-0.146-0.244l-0.415-0.391l-0.098-0.22l-0.244-0.732
				l-0.195-0.366l-0.244-0.586l0.099-0.342l-0.05-0.269l-0.219-0.293l-0.343-0.244l-0.194-0.317l0.194-0.293l-0.098-0.391
				l-0.293-0.195l-0.05-0.22l-0.049-0.293l-0.098-0.293V36.38l-0.27-0.073l-0.098-0.342l0.098-0.342l-0.049-0.464l-0.194-0.293
				v-0.439l-0.146-0.659l-0.049-0.537l-0.049-0.317l-0.244-0.488l-0.049-0.317l-0.073-0.537l-0.049-0.464l-0.488-1.05v-0.342
				l0.146-0.439l0.146-0.195l0.903-0.513l0.098-1.05l0.098-0.195l0.195-0.342v-0.464l0.122-0.244l0.099-0.464l0.098-0.732
				l0.146-0.513V24.37l0.146-0.439l0.049-0.562l0.415-1.05l0.732-0.806l0.146-0.293l0.708-1.245l0.342-0.854l0.27-0.293l0.537-0.098
				l0.562-0.513l-0.098-0.391l0.391-0.415l0.293-0.146l0.244-0.244l0.317-0.195l0.586-0.415l0.269-0.146l0.146-0.098l0.343-0.146
				l0.806-0.659h0.635l1.222-0.293l0.293-0.098l0.391-0.049l0.806-0.244h0.514l0.293-0.049l0.293-0.098L185,14.677l0.659,0.049
				L185.705,14.481z M186.51,16.874l-0.609,0.098l-1.44,0.244l-1.099,0.806l-0.366,0.244l-0.438,0.415l-0.05,0.244l-0.098,0.195
				l-0.392,0.391l-0.17,1.001l-0.05,0.27l-0.243,0.195l-0.195,0.146v0.537v0.22l-0.244,0.586l-0.098,0.195l-0.27,0.513l0.146,0.537
				l-0.146,0.757l-0.244,0.659l-0.049,0.195v0.391v0.366v0.391l-0.049,0.439v0.464l-0.049-0.244l-0.049,0.439v0.244l0.049,0.22
				v0.391l-0.099,0.244l-0.049,1.147l-0.049,0.61l0.049,0.439l0.099,0.366l0.707,0.146v0.293l0.098,1.245l0.099,0.854l0.244,0.757
				l-0.195,0.635l0.099,1.05l-0.146,0.659l0.098,0.488l0.099,0.513l0.293,0.439l-0.099,0.366v0.903l0.244,0.684v0.27l0.416,2.026
				l0.194,0.171v0.391l0.194,0.391l0.195,0.22l0.61,1.001l0.586,0.293l0.366,0.342l0.342,0.049l0.293,0.195l0.415,0.049l0.488-0.098
				l0.415,0.049l0.244-0.098l0.488,0.098l0.463-0.195l0.586-0.244l0.317-0.195l0.343-0.366H189l0.514-0.537l0.243-0.244l0.61-1.367
				l0.293-1.099l0.146-0.635v-0.269l0.194-0.391l0.342-1.05v-0.342V38.48l0.122-0.269l0.098-0.439l-0.146-0.562l0.293-0.83
				l0.049-0.562l0.146,0.146l0.146-0.635l-0.195,0.098l-0.098-0.415l0.098-0.391l-0.049-0.293l0.049-0.464l0.146-1.099l0.146-0.244
				v-0.464l-0.049-0.439l0.243,0.098l0.171-0.342l-0.049-0.317l-0.22-0.098l-0.146-1.538l-0.05-0.244l-0.293-0.098l-0.146-0.513
				v-0.757l0.146-1.05l-0.098-0.293l-0.146-0.293l0.194-0.317v-0.684l-0.244-0.562l0.195-0.586l0.098-0.22v-0.731l-0.098,0.195
				l-0.146-0.195l-0.318-0.244l0.05-0.366l-0.293-0.586l-0.05-0.659l-0.243-0.439v-0.317l-0.195-0.488l-0.22-0.146l-0.195-1.001
				l-0.391-0.317l-0.342-0.391l-0.27-0.244l-0.195,0.049l-0.194-0.244l-0.244-0.316l-0.464-0.195l-0.439-0.195l-0.244,0.098
				L186.51,16.874z"/>
			<path fill="#4F4F4F" d="M213.708,20.462h0.659l0.781,0.317l0.17,0.244l0.343,0.098l0.391,0.146l0.366,0.293l0.293,0.049
				l0.244,0.098l0.464,0.366l0.392,0.342l0.756,0.464l0.807,0.244l1.439,0.146l0.293,0.098l0.049,0.195l0.562,0.195l0.049,0.366
				l-0.049,0.586l-0.464,0.659l-0.293,0.806l-0.146,0.635l-0.049,0.464v0.391v0.61l-0.05,0.293l-0.098,0.806l0.049,0.293
				l0.049,0.806l-0.049,0.342l-0.366,0.952v0.195l-0.049,0.317l0.098,0.244v0.195v0.195l-0.146,1.147l0.146,0.146v0.757l0.123,1.196
				l0.098,0.464v0.391v0.61v0.195l-0.049,0.488v0.464v0.391l0.146,0.464l0.049,0.195l0.293,0.293l0.099,0.195l0.244,0.269
				l1.514,0.488l0.195,0.513l-0.049,0.537l-0.488,0.391l-0.514,0.317l-0.391,0.244l-0.316,0.244l-0.488,0.146l-0.61,0.708
				l-0.343,0.708l0.05,0.293l0.146,0.391v0.269l0.099,0.293l0.098,0.488l-0.098,0.317l-0.294,0.342l-0.487,0.195h-0.562
				l-0.293-0.146l-0.416-0.244l-0.342-0.146l-0.244-0.098l-0.316-0.366l-0.244-0.146l-0.244-0.342l-0.562-0.146l-0.049-0.464
				l-0.391-0.488l-0.244-0.195l-0.195-0.171l-0.316-0.195l-0.439-0.146l-0.293-0.146l-0.464-0.342l-0.146-0.513l0.049-0.391
				l0.609-0.562l0.244-0.146l0.293-0.488v-0.22l0.049-0.635l0.05-0.415l-0.099-0.195V39.92l-0.049-0.391v-0.513l-0.146-1.099
				l0.049-0.61l-0.099-0.195l0.049-0.903l-0.049-0.146l-0.098-0.293v-0.244l0.098-0.366l0.049-0.195l0.05-0.293l0.049-0.293
				l0.244-0.171l-0.293-0.049v-0.732l0.049-0.317l0.049-0.684l0.05-0.244l-0.05-0.513l0.05-0.244l-0.099-0.366l0.099-0.439
				l0.049-0.61l-0.049-0.293l0.098-0.391l0.316-1.465l0.099-0.439l0.293-0.195l-0.513-0.146l-0.392-0.22l-0.537-0.293l-0.317-0.244
				l-0.342-0.244h-0.195l-0.414-0.22l-0.635-0.439l-0.514-0.146l-0.757-0.098l-0.293,0.146l-0.146,0.342l0.049,0.269l0.244,0.439
				l0.22,0.293l0.098,0.366l0.05,0.293l0.098,0.635l0.049,1.27v0.146l0.049,0.195l-0.049,0.293l0.098,0.366v0.684l-0.049,0.464
				l-0.195,0.195l-0.316,0.146l0.316,0.195l0.049,0.269l0.195,1.05l0.049,0.488l0.049,0.342l0.049,0.366l-0.098,0.342l0.049,0.293
				l0.049,0.269v0.293l-0.049,0.195l-0.049,0.61v0.342l0.049,0.806l-0.244,1.099l-0.146,0.586l-0.269,0.317l-0.098,0.342v0.391
				l0.269,0.146l0.342,0.073l0.586,0.146l0.366,0.049l0.293,0.098l0.464,0.342v0.659l-0.171,0.439l-0.195,0.244l-0.537,0.61
				l-0.854,0.61l-0.146,0.195l-0.316,0.098l-0.244,0.708l-0.293,0.342l0.244,0.438l0.049,0.146l0.195,0.366l-0.049,0.635
				l-0.293,0.317l-0.953,0.293l-0.342-0.098l-0.513-0.195l-0.293-0.146l-0.342-0.464l-0.464-0.293l-0.635-0.415l-0.317-0.488
				l-0.195-0.146l-0.342-0.146l-0.464-0.366l-0.391-0.195h-0.244l-0.465-0.146l-0.195-0.098l-0.243-0.146l-0.244-0.244l-0.099-0.269
				l0.05-0.586l0.146-0.317l0.439-0.391l0.342-0.195l0.415-1.05l0.049-0.708l-0.049-0.342l0.049-0.61l0.146-0.244v-0.293
				l-0.049-0.244l0.099-0.415l-0.05-0.342V37.36l0.05-0.195l-0.146-0.439v-0.61l0.243-0.635v-0.708c0-0.162-0.017-0.276-0.049-0.342
				l0.049-0.22V33.82l-0.146-0.244l0.098-0.513l0.049-1.294V30.96l-0.049-0.244v-0.439l-0.049-0.317l-0.049-0.195l-0.098-0.293
				v-0.195l0.049-0.195l0.098-0.22l-0.049-0.342l0.049-0.244l-0.244-0.952l-1.343-0.049l-0.22-0.049l-0.635-0.464l-0.146-0.586
				l0.293-0.757l0.293-0.342l0.195-0.049l0.316-0.366l0.293-0.342l0.342-0.391l0.465-0.464l-0.049-0.195l0.098-0.146l0.098-0.195
				v-0.22l-0.049-0.195l-0.049-0.195l-0.098-0.537l0.049-0.464l0.586-0.659l0.316-0.098l0.146,0.098l0.902,0.073l0.195,0.049
				l0.391,0.098l0.366,0.049l0.88,0.342h0.269l0.586,0.391l0.293,0.22l0.366,0.391l0.293,0.342l0.244,0.317l0.365,0.342l0.244,0.049
				l0.659-0.098l0.731-0.659l0.27-0.488l0.049-0.195l-0.22-0.513l0.171-0.586L213.708,20.462z"/>
			<path fill="#4F4F4F" d="M233.507,11.258l0.195,0.122l0.586-0.073l0.366,0.073l0.438,0.195l0.415,0.391l0.049,0.391l0.049,0.269
				v0.244l-0.194,0.439l-0.708,0.415l-0.244,0.049l-0.366,0.098l-0.536,0.244l-0.244,0.244l-0.221,0.269l-0.391,0.903l-0.098,0.195
				v0.195l-0.049,0.342l-0.05,0.854v0.562l-0.146,3.296l-0.123,1.44l-0.049,0.244l-0.098,0.366l0.221,0.391l-0.074,0.391l0.27,0.22
				v0.342l0.049,0.391l-0.098,0.366v0.537l-0.146,0.317l-0.17,0.586v0.293l0.098,0.269v0.195l-0.098,0.342l0.269,0.806v0.659
				l0.049,0.488v1.147l-0.146,0.146l-0.123,0.269v0.488l0.049,0.562l-0.049,0.391l-0.194,0.488l0.366,0.049l0.098,0.317v0.342v0.659
				l0.098,0.342l-0.049,0.244v1.001l0.049,0.464l-0.098,0.391l-0.146,0.439l0.099,0.366l0.146,0.537v0.415l0.098,0.293l0.05,0.244
				l0.049,0.464l0.146,0.391l0.099,0.342l0.317,0.171l1.099,0.293l0.487,0.439l0.05,0.195v0.513l-0.343,0.537l-0.707,0.61
				l-0.342,0.244l-0.146,0.366l-0.562,0.098l-0.244,0.195l-0.609,0.708l-0.146,0.342l0.293,0.659l0.27,0.244l0.098,0.488
				l-0.269,0.659l-0.392,0.391l-0.342,0.049l-0.464-0.098l-0.194-0.146h-0.244l-0.146-0.098l-0.464-0.244l-0.343-0.415l-0.391-0.244
				l-0.513-0.293l-0.194-0.244l-0.195-0.269l-0.146-0.049l-0.562-0.391l-0.707-0.293l-0.537-0.269l-0.415-0.146l-0.392-0.195
				l-0.537-0.293l-0.17-0.146l-0.099-0.269l-0.099-0.488l0.244-0.513l0.27-0.244l0.195-0.098l0.488-0.244l0.365-0.708v-1.05
				l0.146-0.293l-0.146-0.244l-0.049-0.317l-0.049-0.244l0.146-0.244l0.098-0.806v-0.342l-0.098-0.61l0.243-0.146v-0.342l0.05-0.366
				l0.049-0.537l0.098-0.293l-0.098-0.269l-0.195-0.098v-0.586l-0.244-0.757l0.049-0.61l0.146-0.439l0.098-0.806l-0.049-0.293
				l0.098-1.099l0.049-0.562v-0.244l-0.146-0.439l0.098-0.269l-0.098-0.195l-0.099-1.294l0.049-0.854V25.98v-0.366l0.05-0.391
				l0.194-0.464l0.293-0.293l-0.293-0.391l-0.244-0.708l-0.049-0.391l0.049-0.22l-0.049-0.195l0.099-0.244l-0.05-0.708l-0.049-0.83
				l-0.049-0.562l-0.098-3.198l-0.146-0.708l-0.072-0.488l-0.049-0.513l-0.685-0.781l-0.317-0.22l-0.293-0.439l-0.098-0.513
				l0.244-0.439l0.415-0.293l0.78-0.049l0.807,0.098l0.415,0.098l0.537,0.146h0.194l0.904,0.562l0.463,0.342l0.293,0.293
				l0.537,0.562l0.27,0.244l0.293-0.098l0.098-0.244l-0.195-0.317l0.488-1.245l0.27-0.293l0.635-0.903l0.708-0.293l0.438-0.22
				L233.507,11.258z"/>
			<path fill="#4F4F4F" d="M239.807,20.609l0.243-0.049l0.659,0.22l0.293,0.049l0.708,0.244l0.293,0.342l0.562,0.366l0.099,0.244
				l0.635,0.586l0.464,0.317l0.391,0.439l0.709,0.391l0.293,0.122l0.244,0.049l0.414,0.439l-0.049,0.61l-0.316,0.537l-0.293,0.293
				l-0.293,0.269l-0.098,0.146l-0.099,0.342v0.293v0.464l0.049,0.635l0.099,0.952l0.049,2.515v0.195l-0.195,0.61l0.049,0.537
				l0.244,0.464v0.293l-0.146,0.342l0.049,0.195l0.099,1.001v0.269l-0.099,0.732l0.05,0.317l-0.05,0.391l0.05,1.147l-0.146,0.952
				l-0.099,0.439l-0.415,0.952l0.659,0.098l0.487,0.049l0.66,0.22l0.707,0.098l0.537,0.146h0.293l0.27,0.049l0.635-0.049v-0.464
				l-0.098-0.586l-0.342-0.806l-0.099-0.952v-0.391v-0.659l0.099-0.952l-0.05-0.488v-0.464l0.343-0.342l0.098-0.244l-0.146-0.415
				l-0.195-1.099v-0.635l0.195-0.049l-0.146-0.659l0.049-0.708l-0.194-0.244v-0.757l0.243-0.488v-0.146l-0.098-0.806l0.049-0.293
				l-0.099-0.146l-0.342-0.269l-0.365-0.244l-0.293-0.146l-0.439-0.439l-0.122-0.269l0.073-0.952l0.293-0.244l0.293-0.293
				l0.244-0.415l0.22-0.146l0.83-0.781l0.22-0.269l0.098-0.293v-0.391l-0.049-0.464l-0.17-0.488l-0.05-0.317l0.22-0.391l0.537-0.391
				l0.342-0.098l0.317,0.098l0.438,0.098l0.244,0.098l0.27,0.293v0.146l0.195,0.049l0.635,0.415l0.658,0.537l0.294,0.244
				l0.269,0.269l0.537,0.293l0.708,0.391l0.293,0.098l0.244,0.122l0.659,0.293l0.098,0.195l0.146,0.391l-0.049,0.513l-0.392,0.391
				l-0.562,0.464l-0.099,0.195l-0.146,0.391l-0.098,1.196l0.146,0.269v0.439l-0.099,0.293l-0.049,0.513l-0.195,0.708l0.099,0.928
				l-0.293,0.464l-0.269,0.293l0.269,0.098l0.099,0.415v0.732l0.098,0.317l0.049,0.195v0.293l-0.049,0.464v0.293l-0.098,0.806
				l0.049,0.293l0.049,0.537l-0.049,0.366v1.44l0.049,0.195v0.854l-0.27,0.244l-0.146,0.464l0.562,0.195l0.195,0.708l0.098,0.195
				l0.562,0.537l0.195,0.22l0.342,0.586l0.293,0.61l0.121,0.342l0.099,0.244l-0.146,1.66l0.098,0.195l-0.049,0.415l-0.27,0.928
				l-0.342,0.659l-0.049,0.391l-0.342,0.562l-0.099,0.195l-0.562,0.562l-0.391,0.244l-0.27,0.244l-0.195,0.049l-0.902,0.708
				l-0.488,0.049l-0.952,0.562l-0.562,0.244l-0.879,0.439l-0.367,0.098l-0.391,0.098l-0.414,0.171l-0.587,0.293l-0.415,0.146
				l-0.977,0.439l-0.465,0.269l-0.293,0.195l-0.512,0.438l-0.146,0.244l-0.098,0.366l0.098,0.586v0.317l-0.293,0.586l-0.659,0.464
				h-0.635l-0.22-0.099l-0.732-0.17l-1.001-0.439l-0.464-0.244l-0.195-0.146l-0.293-0.17l-0.244-0.195l-0.609-0.342l-0.293-0.392
				l-0.514-0.269l-0.488-0.488l-0.756-0.513l-0.244-0.195l-0.293-0.146l-0.465-0.146l-0.439-0.146l-0.463-0.366l-0.439-0.098
				l-0.195-0.098l-0.464-0.098l-1.05-0.293l-0.244-0.049l-0.513,0.049l-0.438,0.146l-0.343,0.244l-0.269,0.464v0.439l0.365,0.391
				l0.685-0.146h0.22l0.293-0.098l0.342,0.049h0.195l0.316,0.146l0.392,0.757v0.659l-0.099,0.487l-0.194,0.195l-0.146,0.27
				l-0.465,0.342l-0.146,0.195l-0.244,0.049l-0.194,0.098l-0.562,0.098l-0.391-0.049l-0.416-0.146l-0.586-0.243l-1.195-0.854
				l-0.221-0.488l-0.146-0.415l-0.146-0.342l-0.049-0.488l-0.05-0.366V52.42l-0.049-0.293l0.194-1.099l0.244-0.415l0.367-0.757
				l0.194-0.146l0.293-0.293l0.366-0.195l0.537-0.342l0.244-0.171l0.756-0.244l0.343-0.049l0.22-0.049h0.684l0.27-0.049l0.244,0.098
				h0.293l0.757,0.049l0.244,0.146l0.562,0.098l0.146-0.195l0.098-0.684l0.342-0.659l0.099-0.195l0.854-0.513l1.244,0.049
				l1.367,0.708l-0.22,0.049l0.513,0.293l0.195,0.146l0.342,0.171l0.221,0.342l0.293,0.049l0.536,0.488l0.903,0.854l0.415,0.195
				l0.342,0.171l0.438,0.244l0.562,0.146l0.537,0.098h0.464h0.586l0.513-0.293l0.392-0.098l0.415-0.317l0.488-0.244l0.293-0.342
				l0.463-0.61l0.66-0.903l0.098-0.879l0.049-0.22l-0.098-0.732l-0.123-0.464l-0.146-0.146l-0.194-0.438l-0.195-0.171l-0.244-0.049
				l-0.27-0.244l0.074-0.195l-0.221-0.049l-0.391-0.195l-0.807-0.269l-0.342-0.049l-0.293,0.122l-0.708-0.073l-0.513,0.562
				l-0.391,0.342l-0.293,0.952l0.293,0.562l-0.099,0.537l-0.562,0.61l-0.293,0.098l-0.342-0.098l-0.416-0.098h-0.195l-0.684-0.415
				l-0.806-0.439l-0.513-0.391l-0.586-0.562l-0.317-0.146l-0.343-0.293l-0.586-0.366l-0.269-0.146l-0.342-0.098l-0.513-0.195h-0.244
				l-0.488-0.342l-0.049-0.903l0.098-0.269l0.293-0.391l0.709-0.488l0.243-0.61l0.146-2.295l-0.146-0.659l0.099-1.196l-0.049-0.61
				l0.049-0.928l-0.099-0.317l-0.098-0.293v-0.146l0.049-0.195l0.194-0.415V33.67v-0.39l-0.049-0.317l-0.244-0.488l0.05-0.293
				v-0.513l0.194-0.391l0.049-0.366l0.05-0.244l-0.05-0.488v-0.708l-0.194-0.513v-0.342l-0.194-0.488l-0.807-0.757l-0.439-0.195
				l-0.316-0.098l-0.195-0.464v-0.806l0.391-0.488l0.709-0.61l0.609-0.586l0.195-0.195l0.293-0.269l0.195-0.098l0.049-0.195
				l0.121-0.391l-0.269-0.513l-0.098-0.537L239,21.61l0.098-0.293L239.807,20.609z"/>
		</g>
	</g>
</g>
</svg>
