<?xml version="1.0" encoding="utf-8"?>
<!-- Generator: Adobe Illustrator 18.1.1, SVG Export Plug-In . SVG Version: 6.00 Build 0)  -->
<!DOCTYPE svg PUBLIC "-//W3C//DTD SVG 1.1//EN" "http://www.w3.org/Graphics/SVG/1.1/DTD/svg11.dtd">
<svg version="1.1" id="Layer_1" xmlns="http://www.w3.org/2000/svg" xmlns:xlink="http://www.w3.org/1999/xlink" x="0px" y="0px"
	 width="237.19px" height="178.859px" viewBox="0 0 237.19 178.859" enable-background="new 0 0 237.19 178.859"
	 xml:space="preserve">
<g>
	<g>
		<path fill="#FF6666" d="M153.59,75.75c0.133,0.052,0.269,0.102,0.403,0.152C153.859,75.851,153.723,75.802,153.59,75.75z"/>
		<path fill="#FF6666" d="M145.349,71.248c1.218,0.931,2.543,1.769,3.955,2.531l0.029-1.339c-0.023-0.016-0.045-0.034-0.068-0.05
			l-3.381-1.046C145.722,71.298,145.541,71.267,145.349,71.248z"/>
		<path fill="#FF6666" d="M151.604,73.883l-0.04,1.013c0.6,0.271,1.213,0.531,1.84,0.779c0.155-0.047,0.306-0.092,0.449-0.134
			l-2.231-1.647C151.617,73.89,151.61,73.887,151.604,73.883z"/>
		<path fill="#FF6666" d="M150.826,74.554c0.154,0.074,0.307,0.147,0.463,0.219C151.133,74.701,150.98,74.628,150.826,74.554z"/>
		<path fill="#FF6666" d="M157.406,77.045c0.223,0.066,0.445,0.133,0.67,0.197C157.851,77.178,157.629,77.111,157.406,77.045z"/>
		<path fill="#FF6666" d="M156.718,76.838c-0.202-0.063-0.402-0.128-0.602-0.193C156.316,76.71,156.516,76.775,156.718,76.838z"/>
		<path fill="#FF6666" d="M155.361,76.394c-0.173-0.059-0.345-0.119-0.517-0.18C155.016,76.275,155.188,76.335,155.361,76.394z"/>
		<path fill="#FF6666" d="M235.299,110.755l-15.146-4.39c-1.226-0.355-1.252-1.274,0.022-2.102c1.229-0.799,1.204-1.743-0.055-2.108
			l-9.534-2.763c0.03-0.115-0.054-0.219-0.263-0.277c0.861-0.463,2.253-0.647,3.108-0.411l10.683,2.951
			c0.488,0.135,1.283,0.03,1.85-0.275c0.493-0.265,0.496-0.589,0.008-0.724l-17.057-4.711c-0.468-0.129-0.464-0.439,0.007-0.693
			c0.472-0.254,1.234-0.354,1.701-0.225l6.668,1.842c0.977,0.27,2.567,0.059,3.552-0.47l10.462,2.89
			c0.489,0.135,1.284,0.03,1.776-0.235c0.493-0.265,0.496-0.589,0.007-0.724l-69.753-21.588l-1.525,0.561
			c-1.736-0.24-3.48-0.642-5.186-1.206l1.498,1.155c2.863,0.807,5.934,1.434,9.175,1.911l-6.894,2.536l4.246,2.58l-2.911,0.56
			l-3.943-2.181l-5.684,2.091c-2.893-0.399-5.8-1.071-8.643-2.01l8.868,6.838l-2.351,0.452l-9.116-6.73l-6.004,1.828l-0.074,1.89
			c-0.019,0.488-0.226,0.921-0.546,1.238l0,0c-0.045,0.045-0.093,0.088-0.143,0.128c-0.002,0.002-0.004,0.003-0.006,0.005
			c-0.048,0.038-0.097,0.074-0.148,0.107c-0.005,0.003-0.009,0.006-0.014,0.009c-0.048,0.031-0.098,0.059-0.149,0.085
			c-0.008,0.004-0.016,0.009-0.025,0.013c-0.048,0.024-0.097,0.045-0.147,0.064c-0.012,0.005-0.024,0.01-0.036,0.014
			c-0.047,0.017-0.095,0.032-0.143,0.045c-0.016,0.004-0.031,0.009-0.047,0.013c-0.046,0.011-0.093,0.02-0.141,0.028
			c-0.018,0.003-0.036,0.007-0.055,0.01c-0.048,0.006-0.097,0.01-0.145,0.012c-0.018,0.001-0.036,0.004-0.054,0.004
			c-0.067,0.002-0.135,0-0.203-0.005c-0.091-0.007-0.178-0.023-0.264-0.043c-0.016-0.004-0.033-0.007-0.049-0.011
			c-0.082-0.021-0.163-0.048-0.24-0.08c-0.013-0.005-0.026-0.012-0.039-0.017c-0.079-0.035-0.155-0.073-0.227-0.118
			c-0.001-0.001-0.002-0.001-0.003-0.002c-0.074-0.046-0.144-0.099-0.211-0.155c-0.009-0.008-0.018-0.015-0.027-0.023
			c-0.065-0.057-0.127-0.118-0.184-0.183c-0.004-0.005-0.008-0.009-0.011-0.014c-0.117-0.138-0.213-0.292-0.286-0.459
			c-0.003-0.006-0.064-0.012-0.066-0.018c-0.036-0.085,0.096-0.172-0.148-0.262c0,0,0,0,0,0c0-0.159-0.003-0.326,0.001-0.497
			l0.043-0.633l-1.249,0.385l-1.237-1.699c0,0,1.057-0.329,2.557-0.794l0.06-2.649l0.015-0.655l0.093-4.218
			c-0.168-0.12-0.331-0.246-0.497-0.368l-8.615-2.497c-1.265-0.367-3.291-0.013-4.525,0.789l-0.715-0.207
			c-0.66-0.191-1.714-0.007-2.357,0.411c-0.643,0.418-0.63,0.911,0.029,1.102l6.345,1.839c0.58,0.168,0.592,0.602,0.027,0.97
			c-0.565,0.368-1.494,0.529-2.074,0.361c-1.001-0.29-2.605-0.011-3.581,0.624l-0.466,0.303l-2.528-0.733
			c-0.659-0.191-1.713-0.007-2.357,0.411c-0.643,0.418-0.629,0.911,0.03,1.102l1.479,0.429c0.632,0.183,0.645,0.657,0.027,1.058
			c-0.617,0.401-1.63,0.578-2.262,0.394l-1.049-0.304c-0.316-0.092-0.823-0.003-1.132,0.197l-0.838,0.545
			c-0.308,0.2-0.814,0.289-1.13,0.197c-0.317-0.092-0.823-0.003-1.132,0.197l-1.582,1.029l-4.533-1.314
			c-0.659-0.191-1.714-0.007-2.357,0.411c-0.643,0.418-0.629,0.911,0.029,1.102l10.115,2.932c0.606,0.176,0.618,0.63,0.027,1.014
			c-0.591,0.384-1.561,0.553-2.167,0.378c-0.975-0.283-2.537-0.01-3.488,0.608l-0.512,0.333l-6.393-1.853
			c-0.633-0.183-1.645-0.007-2.261,0.394c-0.618,0.401-0.606,0.875,0.027,1.058l5.343,1.549c0.632,0.183,0.645,0.657,0.028,1.058
			c-0.617,0.401-1.629,0.578-2.261,0.394l-4.294-1.244c-0.632-0.183-1.645-0.007-2.355,0.455c-0.617,0.401-0.604,0.875,0.028,1.058
			l100.767,29.204c1.318,0.382,3.428,0.014,4.713-0.822l7.253,2.102c0.632,0.183,1.645,0.007,2.354-0.455
			c0.617-0.401,0.604-0.875-0.028-1.058l-13.55-3.927c-0.58-0.168-0.59-0.603-0.025-0.97c0.565-0.368,1.493-0.53,2.073-0.361
			l8.683,2.517c1.265,0.367,3.291,0.013,4.525-0.789l4.961,1.438c0.633,0.183,1.646,0.007,2.355-0.455
			c0.617-0.401,0.604-0.875-0.029-1.058l-6.611-1.916c-1.197-0.347-1.221-1.244,0.024-2.053l1.346-0.875
			c0.462-0.301,0.454-0.656-0.021-0.794c1.079-0.702,2.852-1.011,3.959-0.69l13.836,4.01c0.632,0.183,1.645,0.007,2.354-0.455
			c0.617-0.401,0.605-0.875-0.027-1.058l-22.091-6.402c-0.605-0.175-0.618-0.629-0.027-1.013c0.591-0.385,1.562-0.554,2.167-0.378
			l8.636,2.503c1.265,0.367,3.291,0.013,4.525-0.789l13.549,3.927c0.633,0.183,1.646,0.007,2.262-0.394
			C235.945,111.413,235.932,110.939,235.299,110.755z"/>
		<path fill="#FF6666" d="M149.602,73.94c0.169,0.089,0.34,0.177,0.512,0.264C149.942,74.117,149.771,74.029,149.602,73.94z"/>
	</g>
	<path opacity="0.5" fill="#DB565D" d="M60.037,75.794L6.159,111.776l109.464,34.63c4.251-0.039,8.093-0.173,12.865,0.94
		c4.384,1.022,7.524,3.269,13.804,7.497l52.714,16.677l36.595-38.911L60.037,75.794z"/>
	<path fill="#DB565D" d="M210.592,170.989c0.48-3.634,29.039-1.321,26.429,3.896c-1.274,2.48-5.089,4.366-9.188,3.903
		c-2.962-0.334-5.807-2.416-9.21-3.903C217.767,174.351,210.921,173.256,210.592,170.989z"/>
	<g opacity="0.5">
		<path opacity="0.5" fill="#DB565D" d="M131.98,46.393l-17.996,10.268c5.951-0.003,11.877-0.148,17.781-0.423L131.98,46.393z"/>
		<path opacity="0.5" fill="#DB565D" d="M154.362,65.54l-2.447,0.449l0.441-11.237c12.257-1.191,24.424-2.908,36.514-5.066
			l-37.111-12.049c-1.8-0.584-3.763-0.383-5.407,0.555l-9.866,5.629l-0.479,12.195c4.582-0.263,9.151-0.601,13.707-1.015
			l-0.25,11.437l-5.309,0.975c1.466,1.962,3.227,3.636,5.178,5.026l-0.029,1.347c0.73,0.393,1.482,0.766,2.26,1.117l0.04-1.02
			c0.006,0.003,0.012,0.007,0.018,0.01l2.231,1.647c-0.145,0.043-0.298,0.089-0.456,0.136c1.501,0.591,3.079,1.115,4.726,1.579
			l-1.501-1.157c1.706,0.564,3.45,0.967,5.186,1.206l3.411-1.255l2.366,1.308l1.747-0.336l-2.547-1.548l4.136-1.522
			C163.447,72.852,157.469,70.447,154.362,65.54z"/>
	</g>
	<path opacity="0.5" fill="#DB565D" d="M131.319,76.644l-0.165,7.522c-1.5,0.465-2.554,0.794-2.554,0.794l1.244,1.699l1.264-0.385
		l-0.014,0.633c-0.021,0.978,0.722,1.803,1.696,1.883c1.049,0.087,1.959-0.718,2-1.77l0.074-1.89l6.004-1.828l9.116,6.73
		l2.351-0.452l-8.868-6.838c2.844,0.94,5.751,1.611,8.643,2.01l5.684-2.091l3.943,2.181l2.911-0.56l-4.246-2.58l6.894-2.536
		c-12.457-1.834-22.42-5.841-27.599-14.019l-4.079,0.749l1.042-26.53l-4.496-1.461l-0.628,28.741l-8.848,1.624
		C125.132,71.537,128.068,74.328,131.319,76.644z M135.104,79.05c0.01,0.006,0.02,0.011,0.03,0.017l3.719,2.746
		c-1.128,0.335-2.516,0.758-3.904,1.183L135.104,79.05z"/>
	<path fill="#FF6666" d="M196.36,49.2l-57.536-30.301c-2.791-1.47-6.072-1.695-9.037-0.62L71.396,39.44
		C113.049,46.603,154.704,49.443,196.36,49.2z"/>
	<path fill="#DB565D" d="M155.89,85.673c-16.288-2.397-29.316-7.638-36.088-18.331l-5.749,1.205l-11.739-41.45h-6.26l12.81,42.402
		l-11.304,2c4.376,5.857,9.963,10.5,16.161,14.021l1.044,3.447c0.139,0.461,0.403,0.843,0.744,1.137
		c-4.689,1.427-10.218,3.15-10.218,3.15l1.627,2.219l14.416-4.391l11.92,8.8l3.073-0.591l-11.595-8.941
		c3.718,1.229,7.519,2.106,11.302,2.628l7.433-2.735l5.155,2.851l3.806-0.732l-5.552-3.374L155.89,85.673z"/>
	<path fill="#F17D7D" d="M169.465,13.175L94.035,0.191c-3.659-0.63-7.413,0.312-10.341,2.594L26.032,47.719
		C75.264,40.582,122.924,28.604,169.465,13.175z"/>
	<g>
		<path fill="#FF6666" d="M60.037,75.794L6.159,108.519l113.511,37.868c2.79,0.027,5.591,0.206,8.818,0.959
			c3.716,0.867,6.535,2.611,11.13,5.696l55.388,18.478l36.595-38.911L60.037,75.794z"/>
		<path fill="#DB565D" d="M234.037,145.982c-2.166,4.138-9.833,3.639-21.318-1.489c-2.646-1.118-5.567-0.083-6.492-2.223
			c-0.441-1.046,0.945-2.022,4.467-1.806C220.919,140.778,237.198,138.828,234.037,145.982z"/>
		
			<ellipse transform="matrix(-0.9903 -0.1391 0.1391 -0.9903 36.596 178.6177)" opacity="0.5" fill="#DB565D" cx="24.541" cy="88.03" rx="24.738" ry="10.362"/>
		<g>
			<path fill="#DB565D" d="M71.802,80.539c0,0,0.303,0.666,0.91,1.998c-2.363,5.408-23.033,19.07-49.374,14.268
				C8.026,92.519,4.177,87.481,4.177,87.481L1.923,82.71L71.802,80.539z"/>
			<path fill="#F17D7D" d="M27.757,73.919c-5.95-0.461-11.973,0.038-17.765,1.474c-2.212,0.548-4.422,1.246-6.337,2.481
				c-0.773,0.499-1.519,1.116-1.882,1.962C1.206,81.158,1.711,82.7,2.455,83.93c1.457,2.408,3.764,4.183,6.169,5.644
				c7.514,4.564,16.431,6.559,25.222,6.44s17.47-2.279,25.635-5.537c4.631-1.848,9.384-4.286,11.9-8.591
				c0.208-0.355,0.403-0.777,0.263-1.164c-0.182-0.502-0.804-0.655-1.332-0.735c-9.803-1.481-19.605-2.961-29.408-4.442
				C36.428,74.869,32.271,74.27,27.757,73.919z"/>
			<polygon opacity="0.5" fill="#DB565D" points="23.556,77.522 17.432,77.431 12.888,80.146 22.772,83.678 			"/>
			<path fill="#F17D7D" d="M35.963,67.152c2.042,3.685,8.671,12.229,12.074,14.586c-6.578,5.852-18.593,6.365-25.31,1.94
				c0.939-4.963,1.329-13.734,1.445-15.062C29.789,65.812,35.799,66.856,35.963,67.152z"/>
			<path fill="#EE5C5D" d="M23.292,79.768c5.91,3.185,16.199,3.007,21.352-1.165l3.392,3.136c-5.893,5.54-17.812,6.76-25.31,1.94
				L23.292,79.768z"/>
			<path fill="#F17D7D" d="M8.104,74.681l-0.699,0.023l-0.98,4.464c0,0,0.961,0.035,0.894-0.112
				C7.253,78.909,8.104,74.681,8.104,74.681z"/>
			<path fill="#F17D7D" d="M5.553,78.029c-0.311-0.035-3.226-0.598-3.226-0.598L2.06,78.143l1.91,0.302l-2.897,1.034l-0.169,0.668
				l3.982-0.986L5.553,78.029z"/>
			<path fill="#F17D7D" d="M3.773,83.034c-0.177,0.199-1.996,2.445-1.996,2.445l0.831,0.744l1.667-2.089L3.773,83.034z"/>
			<polygon fill="#F17D7D" points="9.099,74.534 11.805,76.5 12.457,76.203 9.352,73.918 			"/>
			<g>
				<path opacity="0.2" fill="#DB565D" d="M22.771,83.679c0.669-4.683,1.371-15.057,1.364-15.062
					c1.672-0.894,4.318-1.514,6.318-1.691v2.078l0.283,0.005c-0.262,0.061-0.495,0.112-0.725,0.149l0.726,17.325
					C30.738,86.482,26.515,86.153,22.771,83.679z"/>
				<path opacity="0.5" fill="#DB565D" d="M30.454,66.925c2-0.159,3.801-0.041,4.823,0.273c0.365,0.174-2.484,1.326-4.557,1.81
					l-0.265-0.005V66.925z"/>
			</g>
		</g>
		<path fill="#F17D7D" d="M128.489,147.346c3.716,0.867,6.535,2.611,11.13,5.696l14.079,4.697l36.963-38.688l-43.787-14.501
			l-38.745,37.986l11.541,3.85C122.46,146.414,125.261,146.594,128.489,147.346z"/>
		<path fill="#DB565D" d="M53.93,124.456l8.058,2.688l13.034-0.622l15.284-1.802l34.055,10.67l40.302,10.874l14.766,0.975
			c3.704,7.677,14.774,10.774,24.701,14.581l4.93-5.4l-23.915-18.461l-25.988-8.042l19.204-4.373l23.315,10.864l16.399,7.376
			l5.505-3.27l-16.936-4.262l-17.722-12.874l-21.381-7.872l-64.572-15.607l-40.981-7.482l-7.86,0.471l-6.399,4.331l2.815,6.518
			l-17.491,12.908l6.687,4.55l16.466-15.61l7.526-0.21l-11.379,11.573L53.93,124.456z"/>
		<path fill="#631212" d="M174.607,124.548l-5.545,16.621l-3.629,3.428c0,0-6.841-4.26-6.735-7.385
			C160.097,127.988,174.607,124.548,174.607,124.548z"/>
		<path fill="#631212" d="M167.815,92.823c-2.805,7.99,3.566,16.711,10.003,24.562C177.663,110.806,175.44,100.166,167.815,92.823z"
			/>
		<g>
			<path fill="#DDDDDD" d="M205.518,139.662l0.266-0.005l0.872-0.615c0.928-1.499,3.042-2.665,6.003-2.191
				c2.759,0.378,10.78,1.836,17.712,3.162l2.941,0.77l0.321,0.856c1.372,2.265-0.576,7.186-8.352,6.038
				c-6.003-0.762-11.179-4.215-17.098-4.739C205.873,142.715,205.82,140.835,205.518,139.662z"/>
			<path fill="#F2F2F2" d="M229.667,138.462c-5.637-1.076-13.425-2.595-17.628-3.171c-6.095-0.977-8.74,5.038-4.406,6.478
				c8.331,1.025,10.997,3.597,17,4.359C236.464,147.882,235.304,139.538,229.667,138.462z"/>
			<path fill="#F6C785" d="M166.787,96.45c-1.611,4.384,2.04,12.411,7.381,17.937c0,0,3.789-1.284,9.569-4.628
				c4.345,8.792,14.329,15.597,14.329,15.597c5.679,5.479,7.624,8.647,9.086,10.66c0.973,4.325,1.68,5.474,5.842,5.493
				c4.181,0.55,5.539,1.571,9.288,3.225c1.142,0.456,4.352,0.162,4.982,0.066c0.895,0.134,1.659-0.433,1.459-0.917
				c0.506-0.072,1.276-0.813,0.674-1.228c1.323,0.079,1.629-1.013,1.108-1.534c2.448-1.636,1.489-2.533-0.838-2.659
				c0,0-4.113-1.186-5.88-1.7c-3.718-1.081-7.341-0.98-10.954-3.662c-5.844-7.578-12.402-26.009-22.831-37.467
				C185.049,92.448,166.787,96.45,166.787,96.45z"/>
			<path opacity="0.1" fill="#A67C52" d="M185.436,108.654l-1.699,1.105c4.385,7.675,9.295,12.028,14.329,15.597l-7.297-15.207
				C189.806,108.144,187.3,107.442,185.436,108.654z"/>
			<path fill="#F6C785" d="M226.158,141.517l-1.954-0.112l2.401,3.47c0,0,1.85,0.905,3.446-0.695
				c0.194-0.194,0.306-0.459,0.319-0.733C230.494,140.857,226.158,141.517,226.158,141.517z"/>
			<path opacity="0.1" fill="#A67C52" d="M230.505,141.121c-0.413-0.592-0.906-1.004-1.443-1.316l2.414,0.536
				C231.153,140.601,230.829,140.861,230.505,141.121z"/>
			<path opacity="0.1" fill="#A67C52" d="M227.354,141.376c1.23-0.604,2.728-0.178,3.22,0.845c0.083,0.161-1.019,0.611-1.177,0.435
				l-2.11-1.254"/>
			<path opacity="0.1" fill="#A67C52" d="M174.168,114.387c-5.341-5.526-8.992-13.553-7.381-17.937c0,0,18.262-4.002,23.215-0.817
				c10.429,11.459,16.987,29.889,22.831,37.467c3.614,2.682,7.237,2.581,10.954,3.662c1.767,0.514,5.88,1.7,5.88,1.7
				c2.328,0.126,3.286,1.023,0.838,2.659c0.521,0.521,0.215,1.613-1.108,1.534c0.602,0.415-1.139,1.026-1.646,1.097
				c-0.813-0.128-1.491-0.103-2.067,0.001c-0.909,1.045-2.546,1.323-3.403,0.98c-3.749-1.654-5.107-2.674-9.288-3.225
				c-4.163-0.019-4.869-1.168-5.842-5.493c-1.462-2.013-3.407-5.181-9.086-10.66c0,0-9.984-6.805-14.329-15.597
				C177.956,113.104,174.168,114.387,174.168,114.387z"/>
			<path opacity="0.1" fill="#A67C52" d="M207.152,136.016l2.082,2.003c0.439,0.823,1.494,1.382,3.592,1.493l3.242,1.925
				c3.767-1.38,7.405-1.532,10.874-0.085c-2.764-0.615-5.876-0.357-9.409,0.956l1.798,1.067c-1.892-0.879-3.913-1.608-6.338-1.865
				c0,0-2.317,0.413-3.752-0.791C207.807,139.515,207.152,136.016,207.152,136.016z"/>
			<path opacity="0.1" fill="#A67C52" d="M167.128,99.842c3.618,4.628,8.198,8.453,13.661,11.543
				c-2.259,1.276-4.383,2.333-6.162,2.835C170.941,109.775,167.992,105.114,167.128,99.842z"/>
		</g>
		<path fill="#F2F2F2" d="M210.109,167.48c0,0,0.326,1.777,0.501,2.398c0.974,3.468,7.544,3.775,13.437,7.039
			c8.328,3.782,12.244-2.315,12.619-4.216c0.275-0.926-0.405-2.907-0.405-2.907c-4.281-3.46-20.597-3.674-20.571-3.652
			C215.69,166.142,211.312,165.638,210.109,167.48z"/>
		<path fill="#FFFFFF" d="M210.277,166.012c-1.451,5.654,6.437,5.392,13.386,9.242c8.328,3.782,12.244-2.315,12.619-4.216
			c1.817-5.426-20.976-6.559-20.976-6.559S211.48,164.17,210.277,166.012z"/>
		<path fill="#F2F2F2" d="M221.374,171.526c-0.426-0.172-8.258-2.107-9.446-3.79c-1.189-1.683,1.516-2.306,1.516-2.306l8.202,3.539
			L221.374,171.526z"/>
		<path fill="#F6C785" d="M169.646,125.382c0,0,11.77,3.138,14.809,5.661c3.039,2.523,25.002,24.532,31.76,28.914
			c6.602,4.794,9.851,4.107,13.911,6.807c3.909-0.591,4.603,1.878,2.125,3.074c-0.033,0.076-1.057-0.028-1.111,0.066
			c0.632,0.451,1.642,1.494,0.023,2.004c-0.208,0.783-0.663,0.716-1.247,0.971c0.137,0.594-1.075,2.532-3.505,0.796
			c-1.105-0.135-2.432-0.46-3.533-1.053c-1.686-0.909-2.865-2.709-4.607-3.696c-2.954-1.673-4.864-1.008-6.27-4.94
			c-17.321-12.158-18.963-4.378-32.699-19.991c-9.523-1.903-21.697-4.336-21.697-4.336
			C160.206,134.113,163.555,128.983,169.646,125.382z"/>
		<path fill="#A12E2F" d="M230.412,169.838c-5.449-1.039-8.702,1.566-9.523,2.281c-0.134,0.117-0.323,0.142-0.484,0.066l0,0
			c-0.337-0.158-0.388-0.615-0.094-0.843c2.563-1.998,6.634-3.52,11.166-1.963C231.759,169.476,231.419,170.03,230.412,169.838z"/>
		<path fill="#A12E2F" d="M231.255,169.32l-0.243-1.056c-0.403-1.752-1.831-3.082-3.607-3.362l-1.885-0.297
			c2.464,1.068,4.124,2.622,5.148,4.56L231.255,169.32z"/>
		<path opacity="0.1" fill="#A67C52" d="M167.24,142.097l-7.513-1.757c0.662-3.109,1.44-5.744,2.433-7.12l4.04,1.328
			c1.061-2.979,2.883-5.917,5.839-8.456c-2.122,2.753-3.42,5.768-4.122,9l13.769,4.735l24.866,20.665
			c-5.023-2.959-12.299-4.759-16.668-7.157c-6.844-4.15-10.581-9.081-10.581-9.081l-12.061-2.156l0,0H167.24z"/>
		<path fill="#BA2B32" d="M113.308,125.506c2.991,2.383,9.522,7.825,17.894,8.892l34.232,10.199
			c-2.492-7.399,4.003-18.308,9.173-20.049l-11.55-3.463l14.761-3.7c-6.492-5.789-11.983-20.163-10.003-24.562l-25.648,9.96
			l-4.753,0.279L113.308,125.506z"/>
		<path opacity="0.3" fill="#A12E2F" d="M150.234,110.146l-17.414,1.264l-2.941,3.317c0,0-1.37-0.722-3.241-1.63l10.777-10.034
			l4.753-0.279l25.648-9.96c-1.979,4.398,3.511,18.773,10.003,24.562L150.234,110.146z"/>
		<path fill="#A12E2F" d="M146.646,115.942l16.411,5.143l14.761-3.7c-2.678-3.145-5.746-8.442-9.112-15.388
			c0,0-18.315,8.198-19.85,9.264C147.321,112.327,145.958,113.903,146.646,115.942z"/>
		<path fill="#A12E2F" d="M131.875,125.221c4.83,2.38,9.963,4.584,9.963,4.584l23.718,6.773c-0.842,2.7-0.764,5.369-0.121,8.019
			l-34.232-10.199c-6.304-0.956-12.252-4.017-17.894-8.892l0,0C119.094,122.441,126.002,122.327,131.875,125.221z"/>
		<path fill="#F6C785" d="M93.07,87.336c-1.451,0.722-3.452,1.815-4.414,3.201c-6.014,3.405-10.223,5.96-13.373,9.495
			c-4.101,1.493-8.588,3.601-12.792,6.048c-3.501,2.038-6.807,4.312-9.533,6.662c-2.908-0.007-7.206,0.411-10.626,1.848
			c6.288-3.063,9.408-11.165,17.752-16.43c0,0-2.837-4.934-1.711-5.346c1.323-0.483-3.033,2.605-3.194,2.424
			c-9.698,8.458-21.565,6.897-27.193,23.017c0.002,5.283,0.946,11.084,7.797,8.976c8.456,0.849,14.528,0.615,21.847-3.476
			c6.939,1.011,10.186,0.817,16.429-0.382c6.593,1.262,9.368-1.032,14.546-1.426c6.653,0.358,14.816,0.159,24.71,3.583
			c8.674-2.921,20.989-12.314,24.101-22.469c-6.976-0.779-14.773-3.223-22.549-6.185c0,0-1.017-3.081-2.851-4.674
			c-0.29-0.473-3.349-0.938-3.349-0.938c1.435-2.651,3.163-6.225,3.163-6.225c1.834-3.772,4.874-7.626,2.203-11.254
			c-0.986-2.556-3.299-3.113-6.296-2.638C96.63,70.598,83.83,78.204,70.577,87.99c0.071,0.187-3.72,3.482-3.056,3.988
			c0.898,0.686,6.306-1.405,6.306-1.405c5.403-4.34,16.09-3.949,23.634-8.825C95.334,83.729,93.153,85.485,93.07,87.336z"/>
		<path opacity="0.1" fill="#A67C52" d="M70.577,87.99c13.253-9.786,26.053-17.392,37.158-16.841
			c2.997-0.474,5.31,0.082,6.296,2.638c2.671,3.628-0.369,7.482-2.203,11.254c0,0-1.86,3.825-3.163,6.225
			c0,0,2.874,0.347,3.349,0.938c1.834,1.593,2.851,4.674,2.851,4.674c7.776,2.962,15.573,5.406,22.549,6.185
			c-1.27,4.144-4.074,8.161-7.537,11.664c-0.009-0.005-8.607-4.537-12.155-5.176l0,0l0,0c-0.157,0.237-0.449,0.344-0.721,0.266
			c-3.915-0.325-7.971-2.099-12.165-3.924c-4.176,3.275-10.384,8.308-15.96,11.601c-0.259,0.166-0.592,0.161-0.845-0.013
			c-0.464-0.319-0.435-1.014,0.055-1.292c2.76-1.569,11.533-7.7,16.947-11.677l-16.088-3.323c-1.474-0.304-2.995-0.287-4.462,0.049
			l-4.783,1.098c0.695-2.707-1.658-3.699-3.619-2.604l-0.234-0.309c3.085-3.227,7.147-5.68,12.809-8.886
			c0.962-1.386,2.964-2.479,4.414-3.201c0.083-1.851,2.317-3.649,4.391-5.589c-7.544,4.876-18.231,4.485-23.634,8.825
			c0,0-3.311,1.281-5.181,1.509c-0.306-0.281-0.622-0.571-0.946-0.869C68.455,90.068,70.631,88.131,70.577,87.99z"/>
		<path opacity="0.1" fill="#A67C52" d="M113.948,97.768c-1.641-1.014-2.179,1.794-8.917,6.743
			c-5.414,3.976-14.186,10.108-16.947,11.677c-0.49,0.278-0.519,0.973-0.055,1.292l0,0c0.253,0.174,0.587,0.179,0.845,0.013
			c5.576-3.293,11.785-8.326,15.96-11.601c4.195,1.825,8.25,3.598,12.165,3.924c0.273,0.078,0.565-0.029,0.721-0.266l0,0
			c0.235-0.354,0.072-0.835-0.33-0.973c-3.799-0.703-7.453-1.835-11.192-3.851C106.2,104.727,115.26,98.289,113.948,97.768z"/>
		
			<ellipse transform="matrix(-0.9477 0.3192 -0.3192 -0.9477 272.1194 177.3164)" opacity="0.1" fill="#A67C52" cx="121.531" cy="110.955" rx="0.923" ry="0.808"/>
		
			<ellipse transform="matrix(-0.9477 0.3192 -0.3192 -0.9477 243.071 151.2942)" opacity="0.1" fill="#A67C52" cx="109.139" cy="95.564" rx="0.923" ry="0.808"/>
		
			<ellipse transform="matrix(-0.9477 0.3192 -0.3192 -0.9477 201.034 195.3686)" opacity="0.1" fill="#A67C52" cx="84.509" cy="114.157" rx="0.923" ry="0.808"/>
		<path opacity="0.1" fill="#A67C52" d="M101.119,89.152l3.838,1.075l3.708,1.039c0,0,2.386-4.26,3.163-6.225l-2.051,1.328
			c-2.02,1.308-4.3,2.161-6.683,2.501L101.119,89.152z"/>
		<path opacity="0.1" fill="#A67C52" d="M106.337,80.001c-1.19,2.055-2.483,4.694-2.483,4.694S107.287,82.669,106.337,80.001z"/>
		<path opacity="0.1" fill="#A67C52" d="M97.46,81.747l2.583-2.313c-3.07,0.174-6.895,0.481-6.895,0.481l-15.788,8.651
			C83.26,86.282,91.592,85.629,97.46,81.747z"/>
		<path opacity="0.1" fill="#A67C52" d="M58.506,99.232c0,0-23.078,13.895-21.959,18.11c3.162-1.91,5.784-2.75,5.784-2.75
			C47.842,112.084,51.904,103.997,58.506,99.232z"/>
		<polygon fill="#F6C785" points="62.073,100.452 67.281,106.521 85.389,96.812 78.842,90.682 		"/>
		<path opacity="0.1" fill="#A67C52" d="M78.842,90.682l6.547,6.13l-5.694,3.053c-1.157-1.087-2.362-1.366-3.625-0.673l-1.811-1.575
			c0,0-1.072-0.989-2.836-2.612L78.842,90.682z"/>
		<g>
			<path fill="#A67C52" d="M74.079,97.083l2.589,1.843c2.127-1.14,4.783,1.207,3.03,3.411c0.274-2.13-1.231-3.529-3.619-2.604
				l-3.033-2.36L74.079,97.083z"/>
			<path fill="#A12E2F" d="M81.505,92.517c-5.237-5.264-10.074-10.074-15.638-13.937c-8.965,0.028-11.449,5.003-13.794,11.675
				c3.372,4.625,10.655,12.327,10.655,12.327C70.23,101.23,77.228,98.082,81.505,92.517z"/>
			<path fill="#792323" d="M59.831,88.149c-2.167,0.468-2.222-1.226-0.72-1.2c0.06-1.386,1.791-0.916,1.833,0.201
				c1.568-1.054,3.492-1.152,5.049-1.086c-1.64-1.264-3.341-1.687-6.353-2.438c0,0,1.888,0.813,2.156,1.414
				c0.268,0.601-0.383,1.135-0.893,0.992c-0.348-0.105-0.475-0.531-0.192-0.767c0.186-0.156,0.46-0.056,0.481,0.11
				c0.004,0.106-0.166,0.308-0.266,0.139c-0.055,0.056-0.108,0.193,0.099,0.246c0.373,0.031,0.575-0.437,0.315-0.752
				c-0.339-0.396-3.016-1.909-3.614-1.411c-0.302,0.277-0.128,0.575,0.075,0.631c0.148,0.024,0.214-0.037,0.209-0.112
				c-0.121,0.057-0.183-0.128-0.087-0.231c0.137-0.147,0.378-0.105,0.471,0.174c0.243,0.892-1.382,1.151-1.452,0.088
				c0.045-1.234,0.986-1.962,0.986-1.962c0.586-0.461,1.609,0.027,1.38,0.815c0.948,0.428,2.824,0.956,4.633,1.218
				c-0.087-0.122-0.171-0.236-0.253-0.347l-5.182-3.411c1.62-1.252,4.543-1.873,7.362-1.881
				c4.396,2.609,12.722,11.006,15.638,13.937c-1.428,1.858-3.161,3.446-5.114,4.788l-4.822-6.855l-0.406-0.686l-2.163-2.031
				c-0.588,0.354-0.972,0.748-1.312,1.187l-1.029-1.947c-1.272,4.523-3.472,5.432-8.212,3.971
				C58.767,89.75,59.248,88.841,59.831,88.149z"/>
			<path fill="#FFC200" d="M63.863,83.989c-1.809-0.263-3.685-0.79-4.633-1.218c0.229-0.788-0.795-1.276-1.38-0.815
				c0,0-0.94,0.728-0.986,1.962c0.07,1.063,1.695,0.804,1.452-0.088c-0.094-0.279-0.334-0.321-0.471-0.174
				c-0.096,0.104-0.033,0.288,0.087,0.231c0.005,0.075-0.061,0.136-0.209,0.112c-0.203-0.056-0.377-0.353-0.075-0.631
				c0.598-0.498,3.275,1.014,3.614,1.411c0.26,0.315,0.058,0.783-0.315,0.752c-0.207-0.054-0.155-0.19-0.099-0.246
				c0.1,0.169,0.27-0.034,0.266-0.139c-0.021-0.166-0.295-0.266-0.481-0.11c-0.283,0.235-0.156,0.662,0.192,0.767
				c0.509,0.143,1.161-0.391,0.893-0.992s-2.156-1.414-2.156-1.414c3.013,0.751,4.714,1.173,6.353,2.438
				c-1.557-0.067-3.481,0.032-5.049,1.086c-0.042-1.117-1.773-1.587-1.833-0.201c-1.502-0.026-1.447,1.668,0.72,1.2
				c-0.583,0.691-1.064,1.601-1.383,2.794c4.74,1.461,6.94,0.552,8.212-3.971l1.029,1.947c0.438-0.564,0.944-1.056,1.87-1.483
				l-1.772-1.144c0,0,4.831,0.866,4.821-2.193c-1.138-0.608-2.094-0.713-2.877-0.558c0.374-1.09-0.786-1.159-1.12-0.587
				c-0.862-0.344-1.696,0.571,0.112,0.963c-1.204,0.679-1.772,1.904-1.772,1.904c-1.777-0.964-3.645-2.902-4.863-4.343
				c0,0,2.038,2.177,2.928,1.835c0.312-0.1,0.376-0.36,0.373-0.521c-0.007-0.385-0.599-0.637-0.768-0.318
				c-0.079,0.346,0.374,0.369,0.383,0.103c0.214,0.147,0.026,0.493-0.275,0.422c-1.975-0.903-2.022-1.917-2.029-2.218
				c0.04-0.46,0.682-0.35,0.489-0.041c-0.001-0.167-0.147-0.117-0.191-0.045c-0.159,0.437,0.602,0.566,0.651-0.088
				c-0.008-0.393-0.288-0.66-1.13-0.607c-1.292,0.227-1.942,0.742-1.942,0.742c-0.725,0.738,0.114,1.294,0.792,0.886
				C62.369,82.114,62.961,82.731,63.863,83.989z"/>
			<g>
				<path fill="#FBB03B" d="M68.821,87.564L68.821,87.564l-1.746-1.309l-3.213-2.266c-0.901-1.258-1.494-1.874-2.571-2.592
					c-0.678,0.408-1.518-0.147-0.792-0.886c0,0,0.65-0.515,1.942-0.742c0.842-0.053,1.123,0.215,1.13,0.607
					c-0.049,0.653-0.81,0.525-0.651,0.088c0.043-0.071,0.19-0.121,0.191,0.045c0.193-0.31-0.449-0.42-0.489,0.041
					c0.007,0.3,0.054,1.315,2.029,2.218c0.301,0.071,0.489-0.275,0.275-0.422c-0.009,0.266-0.462,0.244-0.383-0.103
					c0.169-0.319,0.761-0.067,0.768,0.318c0.003,0.161-0.061,0.422-0.373,0.521c-0.89,0.342-2.928-1.835-2.928-1.835
					c1.217,1.441,3.086,3.379,4.863,4.343c0,0,0.568-1.225,1.772-1.904c-1.807-0.392-0.974-1.307-0.112-0.963
					c0.335-0.572,1.494-0.503,1.12,0.587c0.783-0.155,1.739-0.049,2.877,0.558c0.01,3.059-4.822,2.193-4.822,2.193l1.772,1.144
					C69.233,87.32,69.016,87.44,68.821,87.564z"/>
			</g>
			<path fill="#FBB03B" d="M62.78,94.452c-2.102,1.059-0.73,2.354,1.2,1.012c2.022,0.731,3.22,1.914,4.53,3.82
				c0,0,5.308-1.261,8.546-1.033c0.071-2.396,1.537-5.085,1.537-5.085c-1.639-1.34-2.276-2.575-2.407-3.756
				c1.333-0.976,0.436-2.182-1.076-1.181C72.921,89.914,68.979,91.955,62.78,94.452z"/>
			<path fill="#FFC200" d="M63.98,95.465c-1.931,1.341-2.86,0.036-0.758-1.023c3.699-1.491,5.231-2.757,9.231-4.015v0.002
				l5.045,7.812c-3.238-0.227-8.767,1.039-8.767,1.039C67.421,97.373,66.002,96.195,63.98,95.465z"/>
			<path fill="#F6C785" d="M75.301,88.797c0.263,1.618,1.163,3.221,2.371,4.504l-1.666,3.284l-7.229,1.996
				c-1.034-1.528-2.751-3.075-4.543-4.089C69.076,92.55,72.811,90.677,75.301,88.797z"/>
			<path fill="#F6C785" d="M74.618,93.685c0.622-0.069,3.203,1.205,1.471,3.146c-1.441,1.243-3.264,0.632-3.264,0.632L74.618,93.685
				z"/>
			<path fill="#A67C52" d="M66.607,94.676c2.45-0.092,4.764-1.327,7.927-3.306c0.049,0.803,0.157,1.564,0.447,2.199
				c1.808,0.204,2.464,2.443,1.109,3.262c1.078-0.956-0.045-2.638-1.577-2.874c-0.394-0.474-0.567-1.076-0.594-1.762
				c-2.519,1.65-4.806,2.631-7.206,2.854c-0.042,0.182,0.062,0.372,0.19,0.563c-0.438-0.453-0.695-1.075-0.478-1.42
				C66.434,94.414,66.455,94.624,66.607,94.676z"/>
			<path fill="#382F2B" d="M56.13,89.322l0.403,1.28c0.046,0.137,0.131,0.259,0.244,0.35l0.922,0.745
				c0.161,0.13,0.377,0.169,0.572,0.103l0.093-0.031c0,0,1.709,1.816,2.234,2.2c0.64,0.564,1.301,0.342,1.301,0.342
				s4.415-1.136,5.611-2.889c0.303-0.831-0.001-1.773-0.001-1.773l-0.805-3.132c0,0,0.583-0.674,1.453-0.165
				c0.87,0.51,1.735,1.017,1.735,1.017l0.559-0.347l1.988,1.391c0,0,2.418-1.35,3.064-2.074c0.282-0.24,0.181-1.105,0.181-1.105
				s-5.887,0.231-7.355-0.201c-1.468-0.432-3.552,1.671-3.552,1.671L56.13,89.322z"/>
			<polygon fill="#4C4441" points="56.2,89.532 56.763,97.577 57.953,99.283 58.888,98.983 58.034,97.807 58.518,90.663 			"/>
			<polygon fill="#382F2B" points="58.028,90.409 57.599,97.704 58.476,99.143 58.95,98.984 58.039,97.823 58.521,90.671 			"/>
			<polygon opacity="0.2" fill="#382F2B" points="56.2,89.532 56.242,90.128 57.834,92.287 58.518,90.663 			"/>
			<path fill="#4C4441" d="M56.268,89.594l0.655,0.9c0.245,0.337,0.681,0.476,1.076,0.343l0.519-0.175c0,0,1.872,2.821,3.029,3.01
				c2.531-0.432,4.398-1.601,5.393-2.364c0.506-0.388,0.727-1.044,0.568-1.662l-0.805-3.132c-0.101-0.888,0.167-1.414,1.491-0.809
				l2.657,1.712c0.654,0.421,1.491,0.428,2.151,0.017l2.101-1.308c0.615-0.369,0.778-1.189,0.35-1.766l-1.452-1.956l0.555-0.533
				c0.161-0.154,0.181-0.404,0.047-0.582l-0.411-0.547c-0.127-0.169-0.356-0.224-0.545-0.132l-5.643,2.751l-0.053,0.555
				c-1.571,0.002-2.349,0.858-2.524,1.329L64.481,84.9l-7.808,3.252C56.104,88.389,55.905,89.096,56.268,89.594z"/>
			<path fill="none" stroke="#FFE799" stroke-miterlimit="10" d="M61.622,94.403"/>
			<path fill="#792323" d="M60.083,98.162c-0.788,0.461,1.202,2.751,1.99,2.29S60.871,97.7,60.083,98.162z"/>
			<path fill="#F6C785" d="M61.719,100.167c0,0-1.647,1.367-2.354,0.31c-0.707-1.057,0.876-1.963,0.876-1.963
				C60.933,98.664,61.685,99.519,61.719,100.167z"/>
		</g>
		<path fill="#382F2B" d="M58.332,89.335l1.935,2.456c0.695,0.882,1.919,1.146,2.916,0.629l2.86-1.484
			c0.516-0.267,0.769-0.863,0.603-1.42l-0.654-2.199c-0.125-0.419-0.417-0.767-0.808-0.962h0c-0.43-0.214-0.931-0.232-1.375-0.048
			l-5.255,2.175C58.216,88.622,58.105,89.047,58.332,89.335z"/>
		<path fill="#382F2B" d="M69.021,85.356l2.63,1.999l2.295-1.464c0.716-0.271,0.954-1.165,0.467-1.756l-1.358-1.65
			c-0.262-0.319-0.712-0.41-1.078-0.219l-3.198,1.672l0,0C68.474,84.402,68.58,85.021,69.021,85.356z"/>
		<g>
			<path fill="#56504E" d="M69.085,84.099l4.014,2.332l-0.968,0.618l-2.346-1.617c-0.419-0.289-0.678-0.759-0.697-1.268
				L69.085,84.099z"/>
			<path fill="#56504E" d="M61.699,87.472l4.813,3.028c-0.112,0.18-0.27,0.332-0.469,0.435l-0.637,0.33l-4.902-3.254L61.699,87.472z
				"/>
			<path fill="#56504E" d="M70.301,83.48l3.895,2.278c-0.075,0.053-0.159,0.098-0.25,0.133l-0.489,0.312
				c-1.206-0.743-2.754-1.623-3.901-2.344L70.301,83.48z"/>
			<polygon fill="#56504E" points="60.033,88.225 64.898,91.529 64.509,91.731 59.615,88.414 			"/>
		</g>
		<path fill="#F6C785" d="M71.654,87.048l0.666,1.008c0,0,0.83-0.521,0.466-1.035C72.421,86.507,71.654,87.048,71.654,87.048z"/>
		<path fill="#F6C785" d="M70.451,87.02c0.374-0.219,0.847-0.219,1.203,0.028c0.561,0.388,0.904,1.26,0.507,1.873
			c-1.01,1.274-2.831,1.515-3.292,1.41c-1.367,1.242-2.554-0.311-1.068-1.047C68.449,88.268,69.834,87.382,70.451,87.02z"/>
		<path fill="#A67C52" d="M75.443,136.28"/>
		<path opacity="0.1" fill="#A67C52" d="M35.109,122.754c6.959,2.406,14.968,1.413,24.203-3.555
			c11.222-4.037,15.805,1.37,15.805,1.37c4.002,1.271,8.125,1.175,12.251,1.04c-4.347,1.82-8.767,2.642-13.31,1.765
			c-5.048,1.318-10.603,1.227-16.429,0.382c-6.162,3.469-13.377,4.766-21.847,3.476c-2.998,1.097-5.999,1.511-9.007,1.123
			C28.196,127.4,30.516,125.841,35.109,122.754z"/>
		<path opacity="0.1" fill="#A67C52" d="M52.957,112.743l4.975-0.289c0,0,3.81-5.399,7.549-8.033
			C60.289,107.28,55.926,110.07,52.957,112.743z"/>
		<path fill="#A12E2F" d="M220.016,135.912l3.79,0.843l3.137,4.597l-0.974-4.448c-0.751-1.202-2.186-1.792-3.566-1.467
			L220.016,135.912z"/>
		<path fill="#A12E2F" d="M226.943,141.352c-5.811-2.127-11.562,1.351-11.562,1.351l-0.107-0.01c-0.78-0.073-1.015-1.109-0.337-1.5
			C217.147,139.92,222.597,138.14,226.943,141.352z"/>
		<polygon opacity="0.1" fill="#A67C52" points="186.665,133.065 186.441,137.522 192.39,138.543 		"/>
	</g>
	<polygon fill="#F17D7D" points="31.967,71.87 31.301,72.173 26.316,67.741 26.996,67.432 	"/>
	<polygon fill="#F17D7D" points="27.243,69.776 26.992,70.651 30.923,72.797 31.25,72.062 	"/>
	<polygon fill="#F17D7D" points="30.608,73.025 31.44,73.933 28.311,74.715 28.093,74.17 	"/>
	<polygon fill="#F17D7D" points="32.081,66.68 33.8,70.454 34.466,70.151 32.549,66.824 	"/>
	<polygon fill="#F17D7D" points="36.454,65.687 35.44,69.573 35.943,69.76 36.735,66.303 	"/>
	<polygon fill="#F17D7D" points="35.44,66.105 35.196,68.842 35.699,69.029 36.003,66.059 	"/>
	<g>
		
			<ellipse transform="matrix(-0.9844 -0.1758 0.1758 -0.9844 167.229 316.6757)" opacity="0.5" fill="#DB565D" cx="97.639" cy="150.932" rx="11.402" ry="4.997"/>
		<path fill="#FF6666" d="M87.49,144.269c0,7.24,5.869,10.669,13.109,10.669s13.109-3.429,13.109-10.669
			c0-7.24-5.869-10.669-13.109-10.669S87.49,137.029,87.49,144.269z"/>
		<path fill="#F17D7D" d="M92.484,139.135c1.892-1.627,3.953-1.109,3.953-1.109s1.9,2.614,2.429,2.289
			c1.44-0.885,2.981-1.873,2.981-1.873l3.953,1.257l1.873-1.049l3.953,1.769c0,0,1.429-0.589,0.292-2.17
			c-2.342-3.147-5.698-4.192-9.676-4.954c-0.538-0.055-1.941-0.08-2.09-0.075c-2.718,0.373-6.157,0.926-8.446,2.702L92.484,139.135z
			"/>
		<ellipse fill="#DB565D" cx="101.318" cy="135.203" rx="1.434" ry="0.678"/>
		<path opacity="0.5" fill="#DB565D" d="M101.146,134.927l-1.991-0.827c-0.396-0.164-0.844-0.147-1.226,0.048l-0.459,0.234
			c-0.172,0.088-0.195,0.325-0.042,0.444h0c0.079,0.062,0.187,0.073,0.277,0.029l0.605-0.293c0.232-0.112,0.503-0.109,0.732,0.01
			l1.152,0.596L101.146,134.927z"/>
		<path fill="#DB565D" d="M100.598,135.358l-2.002-3.973l-2.156,1.645c-0.489,0-0.956-0.622-0.956-1.156l3.022-2.072
			c0.452-0.31,1.074-0.135,1.298,0.364l2.29,5.092C102.283,135.675,100.897,135.851,100.598,135.358z"/>
		<polygon fill="#F17D7D" points="98.176,138.57 96.395,139.076 95.869,138.752 97.974,138.064 		"/>
		<polygon fill="#F17D7D" points="98.42,139.546 96.639,140.052 96.391,139.637 98.218,139.04 		"/>
	</g>
</g>
</svg>
