<?xml version="1.0" encoding="utf-8"?>
<!-- Generator: Adobe Illustrator 18.0.0, SVG Export Plug-In . SVG Version: 6.00 Build 0)  -->
<!DOCTYPE svg PUBLIC "-//W3C//DTD SVG 1.0//EN" "http://www.w3.org/TR/2001/REC-SVG-20010904/DTD/svg10.dtd">
<svg version="1.0" id="Layer_1" xmlns="http://www.w3.org/2000/svg" xmlns:xlink="http://www.w3.org/1999/xlink" x="0px" y="0px"
	 viewBox="0 0 53 53" enable-background="new 0 0 53 53" xml:space="preserve">
<g>
	<circle opacity="0.1" fill="#883E26" cx="24.5" cy="27.6" r="20"/>
	<g>
		<circle fill="#FE6665" cx="24.5" cy="24.8" r="20"/>
		<g>
			<path fill="#FFFFFF" d="M20,22h2v-1v-0.9V20c0-0.9,0-2.2,0.6-3.1c0.7-0.9,1.7-1.5,3.3-1.5c2.6,0,3.7,0.4,3.7,0.4l-0.5,3
				c0,0-0.9-0.2-1.7-0.2c-0.7,0-1.5,0.3-1.5,1.1V20V21v1h3.3L29,25h-3.1v10.5H22V25h-2V22L20,22z"/>
		</g>
	</g>
</g>
</svg>
