<?xml version="1.0" encoding="utf-8"?>
<!-- Generator: Adobe Illustrator 18.0.0, SVG Export Plug-In . SVG Version: 6.00 Build 0)  -->
<!DOCTYPE svg PUBLIC "-//W3C//DTD SVG 1.0//EN" "http://www.w3.org/TR/2001/REC-SVG-20010904/DTD/svg10.dtd">
<svg version="1.0" id="Layer_1" xmlns="http://www.w3.org/2000/svg" xmlns:xlink="http://www.w3.org/1999/xlink" x="0px" y="0px"
	 viewBox="0 0 105.1 36.5" enable-background="new 0 0 105.1 36.5" xml:space="preserve">
<g>
	<polygon fill="#FFFFFF" points="31.7,14.3 36.4,14.3 34,7.5 	"/>
	<polygon fill="#FFFFFF" points="91,14.3 95.7,14.3 93.3,7.5 	"/>
	<path fill="#FFFFFF" d="M97.3,0.5h-7.9l-4.2,11.3L84.3,0.5h-8.4l-2.7,6.2l-2.7-6.2H62l-0.2,2.7l0,0.2l-0.1-0.1
		C61.4,3,58.4,0,52.7,0c-5.5,0-10.1,3.5-11.8,8.4L38,0.5h-7.9l-4.2,11.3L25,0.5h-8.4l-2.7,6.2l-2.7-6.2H2.7L1.5,15.9H0V25h5.9
		c2.3,0,3.9-1.2,4.6-3h6.8c0.7,1.9,2.3,3,4.5,3h5.9c2.3,0,3.8-1,4.7-3.2c0.1-0.1,0.7-1.6,0.7-1.6H35l0.4,1.3
		c0.9,2.4,2.5,3.6,5.1,3.6h24.8c2.3,0,3.9-1.2,4.6-3h6.8c0.7,1.9,2.3,3,4.5,3h6.2c2.5,0,4-1.2,4.7-3.7l0.3-1.2h1.9l0.4,1.3
		c0.9,2.4,2.5,3.6,5.1,3.6h5.3v-9.1H103L97.3,0.5z M24.7,21.9h-2.9c-1.2,0-1.6-0.5-1.7-1.8L19.4,9l-4.1,9.7h-2.8L8.3,9L7.7,20.1
		c-0.1,1.3-0.5,1.8-1.8,1.8H3V19h0.8c0.4,0,0.5-0.2,0.6-0.6L5.6,3.4h3.5l4.7,11.3h0.1l4.7-11.3h3.5l1.2,15.1c0,0.4,0.2,0.6,0.6,0.6
		h0.8V21.9z M42.5,21.9h-2c-1.3,0-1.8-0.3-2.2-1.5l-1.1-3.2h-6.3l-1.1,3.2c-0.4,1.2-0.9,1.5-2.2,1.5h-2.1V19h0.4
		c0.4,0,0.7-0.1,0.8-0.6l5.5-15.1h3.6l5.5,15.1c0.2,0.5,0.4,0.6,0.8,0.6h0.4V21.9z M60.7,21.9h-2.9V21c0-0.4,0-0.8,0-0.8h-0.1
		c0,0-2,2-5.5,2c-4.9,0-9-3.7-9-9.7c0-5.3,4-9.5,9.4-9.5c4.5,0,6.8,2.3,6.8,2.3l-1.9,2.5c0,0-1.9-1.6-4.7-1.6
		c-3.2,0-5.9,2.5-5.9,6.3c0,4,2.8,6.5,6.1,6.5c2.9,0,4.7-1.9,4.7-1.9v-1.4c0-0.4-0.2-0.6-0.6-0.6h-1.1v-2.9h3c1.3,0,1.8,0.5,1.8,1.7
		V21.9z M84,21.9h-2.9c-1.2,0-1.6-0.5-1.7-1.8L78.7,9l-4.1,9.7h-2.8L67.6,9L67,20.1c-0.1,1.3-0.5,1.8-1.8,1.8h-2.9V19h0.8
		c0.4,0,0.5-0.2,0.6-0.6l1.2-15.1h3.5l4.7,11.3h0.1l4.7-11.3h3.5l1.2,15.1c0,0.4,0.2,0.6,0.6,0.6H84V21.9z M101.8,21.9h-2
		c-1.3,0-1.8-0.3-2.2-1.5l-1.1-3.2h-6.3L89,20.4c-0.4,1.2-0.9,1.5-2.2,1.5h-2.1V19h0.4c0.4,0,0.7-0.1,0.8-0.6l5.5-15.1h3.6l5.5,15.1
		c0.2,0.5,0.4,0.6,0.8,0.6h0.4V21.9z"/>
	<polygon fill="#FFFFFF" points="53.5,31.6 52.5,29.6 51.6,31.6 49.4,31.9 51,33.4 50.6,35.6 52.5,34.6 54.5,35.6 54.1,33.4 
		55.7,31.9 	"/>
	<path fill="#FFFFFF" d="M12.1,30.6c0-0.2,0.1-0.4,0.2-0.5c0.1-0.1,0.2-0.2,0.3-0.3c0.1-0.1,0.3-0.1,0.5-0.1c0.2,0,0.4,0,0.5,0.1
		c0.1,0.1,0.3,0.2,0.3,0.3c0.1,0.1,0.1,0.3,0.2,0.5c0,0.2,0.1,0.4,0.1,0.7h1.1c0-0.4,0-0.7-0.1-1c-0.1-0.3-0.2-0.6-0.4-0.8
		c-0.2-0.2-0.4-0.4-0.7-0.5c-0.3-0.1-0.6-0.2-1-0.2c-0.4,0-0.8,0.1-1,0.2c-0.3,0.1-0.5,0.3-0.7,0.6c-0.2,0.2-0.3,0.5-0.4,0.9
		c-0.1,0.3-0.1,0.7-0.1,1.1v2.2c0,0.4,0,0.8,0.1,1.1c0.1,0.3,0.2,0.6,0.4,0.9c0.2,0.2,0.4,0.4,0.7,0.6c0.3,0.1,0.6,0.2,1,0.2
		c0.4,0,0.8-0.1,1-0.2c0.3-0.1,0.5-0.3,0.7-0.5c0.2-0.2,0.3-0.5,0.4-0.8c0.1-0.3,0.1-0.6,0.1-1v-0.3h-1.1V34c0,0.2,0,0.4-0.1,0.6
		c0,0.2-0.1,0.4-0.2,0.5c-0.1,0.2-0.2,0.3-0.3,0.4c-0.1,0.1-0.3,0.1-0.5,0.1c-0.2,0-0.4,0-0.5-0.1c-0.1-0.1-0.3-0.2-0.3-0.4
		c-0.1-0.2-0.1-0.3-0.2-0.5c0-0.2-0.1-0.4-0.1-0.6v-2.7C12,31,12,30.8,12.1,30.6z"/>
	<path fill="#FFFFFF" d="M24.3,29.5c-0.2-0.2-0.4-0.4-0.7-0.5c-0.3-0.1-0.6-0.2-1-0.2c-0.3,0-0.5,0-0.8,0.1
		c-0.2,0.1-0.4,0.1-0.6,0.3c-0.2,0.1-0.3,0.2-0.4,0.4c-0.1,0.2-0.2,0.3-0.3,0.5c-0.1,0.2-0.1,0.4-0.1,0.6c0,0.2,0,0.4,0,0.7V34
		c0,0.2,0,0.4,0,0.7c0,0.2,0.1,0.4,0.1,0.6c0.1,0.2,0.2,0.4,0.3,0.5c0.1,0.2,0.2,0.3,0.4,0.4c0.2,0.1,0.3,0.2,0.6,0.3
		c0.2,0.1,0.5,0.1,0.8,0.1c0.4,0,0.8-0.1,1-0.2c0.3-0.1,0.5-0.3,0.7-0.5c0.2-0.2,0.3-0.5,0.4-0.8c0.1-0.3,0.1-0.6,0.1-1v-2.7
		c0-0.3,0-0.7-0.1-1C24.6,30,24.5,29.7,24.3,29.5z M23.7,34.3c0,0.2,0,0.4-0.1,0.6c0,0.2-0.1,0.3-0.2,0.4c-0.1,0.1-0.2,0.2-0.3,0.3
		c-0.1,0.1-0.3,0.1-0.5,0.1c-0.2,0-0.4,0-0.5-0.1c-0.1-0.1-0.3-0.2-0.3-0.3c-0.1-0.1-0.1-0.3-0.2-0.4c0-0.2-0.1-0.4-0.1-0.6V31
		c0-0.2,0-0.4,0.1-0.6c0-0.2,0.1-0.3,0.2-0.4c0.1-0.1,0.2-0.2,0.3-0.3c0.1-0.1,0.3-0.1,0.5-0.1c0.2,0,0.4,0,0.5,0.1
		c0.1,0.1,0.3,0.2,0.3,0.3c0.1,0.1,0.1,0.3,0.2,0.4c0,0.2,0.1,0.4,0.1,0.6V34.3z"/>
	<polygon fill="#FFFFFF" points="32.8,33.8 30.8,28.8 30.1,28.8 30.1,36.4 31.2,36.4 31.2,31.4 33.1,36.4 33.9,36.4 33.9,28.8 
		32.8,28.8 	"/>
	<polygon fill="#FFFFFF" points="39.4,36.4 40.4,36.4 40.4,32.9 41.8,32.9 41.8,32.1 40.4,32.1 40.4,29.6 42.3,29.6 42.3,28.8 
		39.4,28.8 	"/>
	<g>
		<path fill="#FFFFFF" d="M63.3,36.4v-1.1l1.9-2.7c0,0,0.1-0.1,0.2-0.2c0.1-0.1,0.1-0.2,0.2-0.2c0,0,0.1-0.1,0.1-0.2
			c0.1-0.1,0.1-0.2,0.1-0.2c0-0.1,0.1-0.1,0.1-0.2c0-0.1,0.1-0.2,0.1-0.3c0-0.1,0-0.2,0-0.3c0-0.1,0-0.2,0-0.3
			c0-0.3-0.1-0.6-0.2-0.8c-0.1-0.2-0.3-0.3-0.6-0.3c-0.2,0-0.3,0-0.4,0.1c-0.1,0.1-0.2,0.2-0.3,0.3c-0.1,0.1-0.1,0.3-0.1,0.4
			c0,0.2,0,0.3,0,0.5v0.3h-1.1v-0.3c0-0.7,0.2-1.3,0.5-1.7c0.3-0.4,0.8-0.6,1.5-0.6c0.6,0,1.1,0.2,1.4,0.5c0.3,0.4,0.5,0.8,0.5,1.5
			c0,0.2,0,0.5-0.1,0.7c0,0.2-0.1,0.4-0.2,0.6c-0.1,0.2-0.2,0.3-0.2,0.5c-0.1,0.1-0.2,0.3-0.3,0.5l-1.9,2.5h2.7v1.1H63.3z"/>
		<path fill="#FFFFFF" d="M74.1,36.5c-0.4,0-0.8-0.1-1.1-0.3c-0.3-0.2-0.5-0.5-0.6-0.8c-0.1-0.3-0.2-0.7-0.2-1.2v-3.3
			c0-0.7,0.2-1.3,0.5-1.7c0.3-0.4,0.8-0.6,1.4-0.6c0.6,0,1.1,0.2,1.4,0.6c0.3,0.4,0.5,1,0.5,1.7v3.3c0,0.7-0.2,1.2-0.5,1.7
			C75.2,36.3,74.7,36.5,74.1,36.5z M74.1,35.6c0.5,0,0.8-0.5,0.8-1.4v-3.3c0-0.2,0-0.3,0-0.4c0-0.1,0-0.2-0.1-0.4
			c0-0.1-0.1-0.2-0.1-0.3c-0.1-0.1-0.1-0.2-0.2-0.2c-0.1-0.1-0.2-0.1-0.4-0.1c-0.1,0-0.3,0-0.4,0.1c-0.1,0.1-0.2,0.1-0.2,0.2
			c-0.1,0.1-0.1,0.2-0.1,0.3c0,0.1-0.1,0.2-0.1,0.4c0,0.1,0,0.3,0,0.4v3.3c0,0.2,0,0.3,0,0.5c0,0.2,0.1,0.3,0.1,0.4
			c0.1,0.1,0.1,0.2,0.3,0.3C73.8,35.6,74,35.6,74.1,35.6z"/>
		<path fill="#FFFFFF" d="M81.9,36.4v-6h-0.8v-0.8c0.6-0.2,0.9-0.5,1.1-0.8H83v7.7H81.9z"/>
		<path fill="#FFFFFF" d="M90.3,36.5c-0.7,0-1.2-0.2-1.5-0.6c-0.3-0.4-0.4-1-0.4-1.7h1.1v0.2c0,0.1,0,0.3,0,0.4c0,0.1,0,0.2,0.1,0.3
			c0,0.1,0.1,0.2,0.1,0.3c0.1,0.1,0.1,0.1,0.2,0.2c0.1,0,0.2,0.1,0.3,0.1c0.1,0,0.2,0,0.3,0c0.1,0,0.2-0.1,0.2-0.1
			c0.1,0,0.1-0.1,0.2-0.2c0-0.1,0.1-0.1,0.1-0.2c0-0.1,0.1-0.1,0.1-0.2c0-0.1,0-0.2,0-0.3c0-0.1,0-0.2,0-0.3c0-0.1,0-0.2,0-0.3
			c0-0.1,0-0.2,0-0.3c0-0.1,0-0.1,0-0.1c0-0.1,0-0.2,0-0.3c0-0.1,0-0.2,0-0.3c0-0.1,0-0.2-0.1-0.3c0-0.1-0.1-0.1-0.1-0.2
			c0-0.1-0.1-0.1-0.1-0.2c-0.1,0-0.1-0.1-0.2-0.1c-0.1,0-0.2,0-0.3,0c-0.2,0-0.4,0.1-0.5,0.2c-0.1,0.1-0.2,0.3-0.3,0.4h-0.9v-4.1
			h3.4v1.1h-2.4l-0.1,1.9c0.3-0.2,0.7-0.3,1.1-0.3c0.2,0,0.5,0,0.7,0.1s0.3,0.2,0.5,0.3c0.1,0.1,0.2,0.3,0.3,0.5
			c0.1,0.2,0.1,0.4,0.2,0.6c0,0.2,0,0.5,0,0.7c0,0.3,0,0.6-0.1,0.9c0,0.3-0.1,0.5-0.2,0.8c-0.1,0.2-0.2,0.5-0.3,0.6
			c-0.1,0.2-0.3,0.3-0.6,0.4C90.8,36.4,90.6,36.5,90.3,36.5z"/>
	</g>
</g>
</svg>
