<?xml version="1.0" encoding="utf-8"?>
<!-- Generator: Adobe Illustrator 19.1.0, SVG Export Plug-In . SVG Version: 6.00 Build 0)  -->
<svg version="1.1" id="Layer_1" xmlns="http://www.w3.org/2000/svg" xmlns:xlink="http://www.w3.org/1999/xlink" x="0px" y="0px"
	 viewBox="0 0 69 28.4" style="enable-background:new 0 0 69 28.4;" xml:space="preserve">
<style type="text/css">
	.st0{fill:#A42E2B;}
</style>
<g>
	<g>
		<polygon class="st0" points="45.6,21 44.8,21 44.8,28.1 48.8,28.1 48.8,27.3 45.6,27.3 		"/>
		<path class="st0" d="M68.4,24.7c-0.1-0.1-0.3-0.3-0.6-0.4c-0.2-0.1-0.5-0.3-0.8-0.4c-0.5-0.2-0.8-0.4-0.9-0.5
			c-0.2-0.2-0.4-0.4-0.4-0.7c0-0.3,0.1-0.5,0.3-0.7c0.2-0.2,0.5-0.3,0.8-0.3c0.3,0,0.6,0.1,0.8,0.2c0.1,0.1,0.3,0.2,0.4,0.4l0.1,0.1
			l0.7-0.3l-0.1-0.2c-0.4-0.7-1-1-1.9-1c-0.5,0-1,0.2-1.4,0.5c-0.4,0.3-0.6,0.8-0.6,1.3c0,0.5,0.2,1,0.6,1.3
			c0.2,0.2,0.6,0.4,1.2,0.7c0.3,0.1,0.5,0.2,0.7,0.3c0.2,0.1,0.3,0.2,0.4,0.3c0.3,0.3,0.4,0.6,0.4,1c0,0.4-0.1,0.7-0.4,0.9
			c-0.2,0.2-0.6,0.3-1,0.3c-0.8,0-1.2-0.4-1.4-1.1l-0.1-0.2l-0.8,0.3l0.1,0.2c0.3,1.1,1.1,1.6,2.2,1.6c0.4,0,0.7,0,1-0.1
			c0.8-0.3,1.2-0.9,1.2-1.9C69,25.6,68.8,25,68.4,24.7z"/>
		<g>
			<path class="st0" d="M53.6,21h-0.5l-2.8,7.1h0.8l0.7-1.7h3.1l0.7,1.7h0.8L53.6,21L53.6,21z M53.4,22.4l1.2,3.2h-2.5L53.4,22.4z"
				/>
			<path class="st0" d="M62.5,24.6c-0.2-0.3-0.5-0.5-0.9-0.6c0.3-0.3,0.5-0.7,0.5-1.2c0-0.6-0.2-1-0.6-1.4c-0.3-0.3-0.8-0.5-1.4-0.5
				h-1.8v7.1h2.3c0.6,0,1.2-0.2,1.6-0.6c0.5-0.4,0.7-1,0.7-1.6C62.9,25.4,62.8,24.9,62.5,24.6z M59.1,21.8h1.1
				c0.3,0,0.6,0.1,0.8,0.3c0,0,0,0,0,0c0.4,0.4,0.4,1,0,1.4c0,0,0,0,0,0c-0.2,0.2-0.5,0.3-0.8,0.3h-1.2V21.8z M61.7,26.9
				c-0.3,0.3-0.7,0.4-1.1,0.4h-1.5v-2.8h1.5c0.4,0,0.8,0.1,1.1,0.4c0.3,0.3,0.5,0.6,0.5,1C62.2,26.3,62,26.7,61.7,26.9z"/>
		</g>
		<polygon class="st0" points="3.5,24.5 0.5,21 0,21 0,28.1 1.4,28.1 1.4,24 3.5,26.3 5.7,24 5.7,28.1 7.1,28.1 7.1,21 6.6,21 		"/>
		<path class="st0" d="M11.9,21l-2.8,7.1h1.5L11,27h3.2l0.4,1.1l1.5,0L13.3,21H11.9z M11.6,25.6l1.1-2.7l1,2.7H11.6z"/>
		<polygon class="st0" points="30.6,24.5 27.5,21 27,21 27,28.1 28.5,28.1 28.5,24 30.6,26.3 32.7,24 32.7,28.1 34.1,28.1 34.1,21 
			33.7,21 		"/>
		<path class="st0" d="M39.9,21h-1.4l-2.8,7.1h1.5l0.4-1.1h3.2l0.4,1.1l1.5,0L39.9,21z M38.2,25.6l1.1-2.7l1,2.7H38.2z"/>
		<path class="st0" d="M21.4,24.1v1.4h2C23,26.4,22.2,27,21.2,27c-1.4,0-2.5-1.1-2.5-2.5c0-1.4,1.1-2.5,2.5-2.5c0.8,0,1.5,0.4,2,1
			l1.1-0.9c-0.8-1-1.8-1.6-3.1-1.6c-2.8,0-3.9,2.6-3.9,3.9c0,1.1,0.4,2,1.2,2.8c0.7,0.7,1.6,1.2,2.8,1.2c1.2,0,2.1-0.5,2.8-1.2
			c1.3-1.4,1-3.1,1-3.1H21.4z"/>
	</g>
	<g>
		<g>
			<g>
				<polygon class="st0" points="32.4,8.9 30.7,5.9 23.9,17.7 27.3,17.7 				"/>
			</g>
			<g>
				<polygon class="st0" points="41,11.8 39.3,14.8 41,17.7 44.4,17.7 				"/>
			</g>
			<polygon class="st0" points="37.6,5.9 32.5,14.8 34.1,17.7 34.2,17.7 39.3,8.9 			"/>
		</g>
		<g>
			<polygon class="st0" points="34.1,5.9 35.8,2.9 34.1,0 32.5,2.9 			"/>
		</g>
	</g>
</g>
</svg>
