<?xml version="1.0" encoding="utf-8"?>
<!-- Generator: Adobe Illustrator 19.0.0, SVG Export Plug-In . SVG Version: 6.00 Build 0)  -->
<svg version="1.1" id="Layer_1" xmlns="http://www.w3.org/2000/svg" xmlns:xlink="http://www.w3.org/1999/xlink" x="0px" y="0px"
	 viewBox="0 0 149.2 199" enable-background="new 0 0 149.2 199" xml:space="preserve">
<g>
	<path fill="#F26768" d="M128.8,157c12.6-14,20.3-31.5,20.3-51.3c0-41.2-33.4-74.7-74.6-74.7S0,64.6,0,105.8
		C0,125.6,7.7,143,20.3,157H128.8z"/>
	<g>
		<ellipse opacity="0.1" fill="#893F27" cx="80" cy="188.9" rx="33.3" ry="10.2"/>
		<g>
			<path fill="#F6C785" d="M45.9,99.9c0,0,2.5,4.8,2.5,6.2c0.1,2.9-3.1,13.6-3.1,13.6l-2.4-5.7l-1.8-4.6l-0.7-2.4
				c0.1,1.3,0.1,2.7-0.1,3.5c-0.2,1.1-0.7,1.5-1.2,1.8c0,0-1.2,0.1-1.3-1l0.4-1.7l-1-4.5l1.6-5C41.1,97.7,43.5,98,45.9,99.9z"/>
			<path opacity="0.1" fill="#A67D52" d="M44.4,114.9c0.2-0.4,1.1-3.3,1.1-5c0.2-3.1-2.7-4.4-3.3-4.9l-0.3,1.5l1.5,7.9L44.4,114.9z"
				/>
			<path fill="#4E4E4E" d="M38.6,132.9l4.1-0.4c0.6-6.9-0.5-13.8-2.7-20.7l-3.3,0.6c-4.8,0.8-8.2,5.1-7.7,10l0.2,2.1
				C29.6,129.4,33.7,133.1,38.6,132.9z"/>
			<path opacity="0.5" fill="#333333" d="M38.6,132.9l4.1-0.4c0.6-6.9-0.5-13.8-2.7-20.7l-3.3,0.6c-4.8,0.8-8.2,5.1-7.7,10l0.2,2.1
				C29.6,129.4,33.7,133.1,38.6,132.9z"/>
			<path fill="#333333" d="M37.2,112.4l2.8-0.5c2,8,2.8,14.9,2.7,20.7l-2.9,0.3C40.3,126.2,39.4,119.4,37.2,112.4z"/>
			<path fill="#4E4E4E" d="M40.1,106.1l0.6,0c0.9-0.1,1.8,0.6,1.8,1.5c0.2,0.5,0.3,1,0.4,1.5c1,3.8,3.3,10.7,2.7,24.1
				c-0.1,1-0.1,2.1-0.3,3.1c0.1,0.9-0.5,1.7-1.4,1.9h0c-1,0.2-1.9-0.5-2-1.5c1.1-8.5,0.5-17.9-3.5-28.6
				C38.4,107,39.1,106.2,40.1,106.1z"/>
			<path fill="#F6C785" d="M42.3,105.7c-0.7,2.1-2.2,2.6-2.2,2.6c0.6,1.3,0.1,3.3-0.7,3.8c0,0-0.5,0.3-1,0c0.7-1.6-0.1-4.5-0.1-4.5
				l2.1-3.7C40.4,104,43,103.7,42.3,105.7z"/>
		</g>
		<path fill="#333333" d="M67.1,179.9c0,0-10.8,5.1-13.9,10.1c-0.8,1.3-0.1,2.9,1.3,3.3c10.8,3,19.8-8.2,19.8-8.2
			c4.2-0.5,6.1-2.3,7.7-4.2l-2.8-0.9H67.1z"/>
		<path fill="#333333" d="M92.6,179.9c4.1,1.8,8.4,4,11.4,8.2c0.9,1.3,0,3.1-1.6,3.2c-3.8,0-10-0.6-15-4.5c-6.6-2.2-5.5-6-5.5-6l0,0
			L92.6,179.9z"/>
		<path fill="#4E4E4E" d="M97,101.1l-4.3,78.8c-4.2,2.2-8.5,2.2-12.9,0c-4,1.5-8.3,1.4-12.7,0L55,101.2L97,101.1z"/>
		<path opacity="0.5" fill="#333333" d="M77.1,101.1L55,101.2l12.1,78.7c4.4,1.4,8.7,1.5,12.7,0c0.7,0.3,1.4,0.6,2,0.8L77.1,101.1z"
			/>
		<path opacity="0.5" fill="#333333" d="M97.1,101.2c-10.1,10.6-27.6,9.8-40.7,9l-1.2-7.8L97.1,101.2z"/>
		<path fill="#4E4E4E" d="M50,31c15.2,0.1,34.3,0.1,48-0.1c5.9-0.1,10.8,4.4,11.3,10.2l2.5,27.3c0.1,1.6-0.1,3.2-0.8,4.7L98.1,99.4
			l-1,1.7c-9.2,7-28.8,7.7-42.1,0l-6.5-37.7l1.1,12.4L47.4,101l-10-0.1c0,0-3.4-54-3.4-54.3C34,37.9,41.2,30.9,50,31z"/>
		<path opacity="0.5" fill="#333333" d="M50,31c7.8,0.1,14.3-0.1,22.8-0.1l3.6,75.9c-7.4-0.1-15.1-1.8-21.4-5.5l-6.5-37.7l1.1,12.4
			L47.4,101l-10-0.1c0,0-3.4-54-3.4-54.3C34,37.9,41.2,30.9,50,31z"/>
		<polygon fill="#DB575D" points="91.3,28.2 54.7,29.7 69.5,39.1 78.8,37.3 		"/>
		<g>
			<polygon fill="#F6C785" points="85.6,24.3 87.8,31.6 73.2,44.3 58.7,32.7 60.7,24.8 			"/>
			<path opacity="0.1" fill="#A67D52" d="M73.3,31.4c0.1,0.4,0.2,2.7,0.2,2.7c-1.9,1-3,3.9,0,5.5l-0.3,4.7L58.7,32.7l1.1-3.5
				L73.3,31.4z"/>
			<path fill="#A67D52" d="M72.8,30.8l1.2-0.1l-0.1,3.9c-2.9,0.5-2,3.9-0.5,5c-2.2-0.5-3-4.5-0.5-5.6L72.8,30.8z"/>
			<g>
				<path fill="#F6C785" d="M60,22.3l-0.5,3.2c0,0-1.9-0.2-1.7-1.9S60,22.3,60,22.3z"/>
				<path fill="#A23030" d="M80.8,2.9l5.8,24.1c-8.4,5.2-17,5.3-28,2.3l4.4-26.4C70.2-1.1,76-0.8,80.8,2.9z"/>
				<path fill="#7A2424" d="M73.1,29.8l-3-11.6l0-3.7l1.5-0.6l-0.3-2.4c0,0,2,2,4.5,2.1c0.7,0.2,0.9,0.7,0.7,1
					c-0.2,0.4-0.6,0.3-0.6,0c0.2,0.1,0.4-0.1,0.2-0.3c-0.3-0.3-0.8,0.1-0.6,0.5c0.4,1.2,2.6,0.7,2-1.6c1.2-0.4,2.8-1.7,3.6-3.7
					c-1-1.3-2.1-1.6-3.3-1.7c-0.6-0.2-0.4-0.9-0.1-1c0.2,0,0.2,0.2,0.1,0.3c-0.1-0.2-0.3-0.1-0.2,0.1c0.1,0.2,0.4,0.3,0.6,0
					c0.3-0.7-0.6-1.2-1.1-0.6c-0.6-0.6-1.7-0.1-1.6,0.6c0.1,0.6,0.9,0.4,0.8-0.1C76.3,7,76.1,7,76.1,7.2c-0.1,0-0.2-0.2,0-0.3
					c0.7-0.2,0.8,0.8-0.2,1.1c-2.6,0.6-4.7,2.7-4.7,2.7c0.1-1.9,0.6-3.9,1.6-5.8c0,0-0.7,2.3,0.1,3.1c1.1,1.1,2.8-0.9,1.7-1.6
					c-1-0.4-1.3,0.6-0.6,0.6c0.2,0.4-0.2,0.6-0.6,0.3C73,6.8,73,4.5,74.3,3.5c0.3-0.3,0.7-0.3,0.9-0.2c0.2,0.1,0.3,0.4,0.1,0.5
					C75,3.4,74.4,4,75.1,4.3c1,0.2,1.6-1.2,0.7-1.9c-0.4-0.4-1.9-0.6-3.5-0.5c-1.5,0.2-1.4,1.4-0.6,2c-0.1,1.6-0.7,3.1-1.5,4.6
					c0,0,0,0,0,0l0-0.2l-0.5-8.1c-1.9,0.4-4.2,1.2-6.7,2.6l-4.5,26.6c3.9,1.3,8.9,1.9,14.7,1.7c1.7-2,3.7-3.8,7.4-5.2
					C78.5,25.7,75.9,27.6,73.1,29.8z"/>
				<path fill="#FDC20F" d="M71.2,10.4c0,0,2.1-2.1,4.7-2.7c1-0.3,0.9-1.3,0.2-1.1c-0.2,0.1-0.2,0.3,0,0.3c0-0.2,0.2-0.2,0.3-0.1
					c0.1,0.5-0.7,0.6-0.8,0.1c-0.1-0.8,1-1.2,1.6-0.6c0.5-0.7,1.4-0.1,1.1,0.6c-0.2,0.3-0.5,0.2-0.6,0c0-0.1,0.1-0.2,0.2-0.1
					c0.1-0.1,0.1-0.2-0.1-0.3c-0.4,0.1-0.6,0.8,0.1,1c1.1,0.1,2.3,0.7,3.3,2c-1.1,2-2.4,3.1-3.6,3.5c0.6,2.2-1.5,2.7-2,1.6
					c-0.2-0.4,0.3-0.8,0.6-0.5c0.2,0.2,0,0.4-0.2,0.3c0,0.3,0.3,0.3,0.6,0c0.1-0.3,0-0.8-0.7-1c-2.5-0.1-4.5-2.1-4.5-2.1l0.3,2.6
					l-2.9,0.6l0.5-2.4c0,0-1.6,1.6-3.4,1.8c-0.7-0.1-1,0.4-0.6,0.7c0-0.6,0.7-0.4,0.5,0.1c-0.5,0.7-1.9,0.3-1.3-1
					c-0.7-0.3-1.3-0.9-1.8-2.1c0.6-0.7,1.3-1.2,1.9-1.5c0.5-0.2,0.2-0.7-0.1-0.6c0.2,0.2,0,0.5-0.3,0.3c-0.4-0.6,0.4-1.1,1-0.6
					c0-0.8,1-0.9,1.1-0.2c0,0.2-0.2,0.4-0.4,0.2c-0.2-0.1,0-0.3,0.1-0.2c0,0-0.1-0.1-0.2-0.1c-0.4,0-0.3,0.7,0.5,0.6
					c1.8-0.2,3.2,0.9,3.2,0.9c-0.5-2-1.4-3.9-2.5-5.7c0.4,1.3,0.5,3.3-0.6,3.6c-0.6,0.2-1.2,0-1.2-0.7c0-0.4,0.6-0.7,0.9-0.4
					c0.1,0.2-0.1,0.6-0.4,0.4c-0.1,0.4,0.6,0.5,0.9,0c0.4-0.7,0.4-2.9-0.6-3.6c-0.8-0.5-1.6,0.3-0.8,0.6c0.3-0.3,1.1,0.1,0.2,0.7
					c-1.1,0.5-2-0.7-1-1.7c0.5-0.4,1.7-1,3-1.3c1.3-0.1,1.5,1.7,0.6,2.2C68,5.1,69,7.3,70.2,8.4c0.8-1.5,1.4-3.1,1.5-4.6
					c-0.8-0.6-0.9-1.8,0.6-2c1.5-0.2,3,0.1,3.5,0.5c0.9,0.7,0.3,2.1-0.7,1.9c-0.7-0.3-0.1-1,0.2-0.6c0.2-0.1,0.1-0.4-0.1-0.5
					c-0.2-0.1-0.5,0-0.9,0.2C73,4.2,73,6.6,73.4,7C73.8,7.3,74.2,7,74,6.7c-0.7,0-0.4-1,0.6-0.6c1,0.8-0.7,2.8-1.7,1.6
					c-0.7-0.8-0.1-3.1-0.1-3.1C71.8,6.5,71.2,8.4,71.2,10.4z"/>
				<path fill="#FBB03C" d="M70.1,14.1l0.1-5.7c-1-0.9-2.1-3.3-2.3-3.8c0.9-0.6,0.7-2.4-0.7-2.2c-1.3,0.3-2.5,0.9-3,1.3
					c-1,1,0,2.1,1.1,1.7c0.9-0.5,0.1-1-0.2-0.7c-0.8-0.3,0-1.2,0.8-0.6c1,0.8,1,2.9,0.6,3.6c-0.3,0.5-0.9,0.4-0.9,0
					c0.4,0.2,0.5-0.2,0.4-0.4c-0.4-0.4-0.9,0-0.9,0.4c0,0.7,0.6,0.9,1.2,0.7c1.1-0.3,1-2.3,0.6-3.6c1.1,1.8,2,3.7,2.5,5.7
					c0,0-1.3-1.1-3.2-0.9C65.3,9.7,65.3,9,65.6,9c0.1,0,0.2,0,0.2,0.1c-0.1-0.1-0.2,0.1-0.1,0.2c0.1,0.1,0.4,0,0.4-0.2
					C66,8.4,65,8.4,65,9.2c-0.5-0.5-1.4,0-1,0.6c0.3,0.2,0.5-0.1,0.3-0.3c0.3-0.1,0.6,0.4,0.1,0.6c-0.6,0.3-1.2,0.8-1.9,1.5
					c0.5,1.2,1.1,1.8,1.8,2.1c-0.5,1.3,0.8,1.7,1.3,1c0.3-0.5-0.5-0.7-0.5-0.1c-0.4-0.3,0-0.8,0.6-0.7c1.8-0.3,3.4-1.8,3.4-1.8
					l-0.5,2.4L70.1,14.1z"/>
				<path fill="#F6C785" d="M72.1,10.8c0,0,4.6-4.3,7.6-1C77.1,14.6,72.1,10.8,72.1,10.8z"/>
				<path fill="#FDC20F" d="M78.4,15.9c2.8-0.7,3.9,2.1,0.6,3.1l1.6,6.7c-2.9,0.8-5.2,2.3-7.3,4.8c-2.9-2-5.1-2.9-9-3.1
					c0.6-1.9,0.3-5.2-0.4-6.3c-4.1,0.2-3.3-2.6-0.6-2.8C68.8,18.3,74,17.6,78.4,15.9z"/>
				<path fill="#FBB03C" d="M63.1,18.3c-2.7,0.2-3.3,2.9,0.8,2.8c0.7,1.1,1,4.3,0.5,6.3c3.9,0.2,6.1,1.1,9,3.1l-3.3-12.5
					C70.1,17.9,65.3,18.3,63.1,18.3z"/>
				<path fill="#F6C785" d="M68.6,11.3c-3.3,3.4-5.1,0.6-5.1,0.6S65.6,9.1,68.6,11.3z"/>
				<path fill="#F6C785" d="M77.8,17.1c0.6-0.4,0.6,0.6,0.6,0.6l0.9,7c0,0-5.7,2.9-7.5,2.9S66,26,66,26c0-2.6-0.6-4.4-1.3-6
					c0,0-0.4-0.7,0.3-0.7C65.6,19.3,70.2,19.5,77.8,17.1z"/>
				<circle fill="#F6C785" cx="76.7" cy="19.4" r="3"/>
				<path fill="#A67D52" d="M68.9,22.8l0.7,1.8c-1.6,1.1-0.1,5.8,3.9,2.8c-1.5,3.6-7.3,1-4.8-2.7L68,22.2L68.9,22.8z"/>
				<path fill="#F6C785" d="M68.5,22.9l1.2,1.8c-2.6,1.7,1,5.6,3.9,2.8l2.3-4.4L68.5,22.9z"/>
				<path fill="#A67D52" d="M68.5,22.9c3.5-0.2,6.6-1.1,7.8-2.4l0.5,0.9l0-0.1c0.2-0.3,0.3-0.7,0.2-1c-0.2-0.5-0.5-0.9-0.9-1.3
					c-0.3-0.2-0.8-0.2-1.1,0.1l0,0c0.4,0.2,0.7,0.4,0.9,0.7c-0.8,1.2-4.5,1.9-7.9,2.3L68.5,22.9z"/>
				<path opacity="0.1" fill="#A67D52" d="M72.1,10.8c3.2-2.6,5.6-2.9,7.6-1C78,8.5,75.2,8.6,72.4,11L72.1,10.8z"/>
				<path opacity="0.1" fill="#A67D52" d="M68.6,11.3l-0.2,0.2c-1.6-1.2-3.2-1-4.9,0.4C65,10.3,66.8,10,68.6,11.3z"/>
				
					<ellipse transform="matrix(0.9733 -0.2296 0.2296 0.9733 -2.6928 20.014)" fill="#7A2424" cx="84.7" cy="21.6" rx="0.7" ry="2.1"/>
				<path fill="#F6C785" d="M84.3,20c-0.5,0.8-0.1,2.7,0.9,3.3c0,0,2.3-0.3,1.5-2.5C86.3,19.4,84.3,20,84.3,20z"/>
				<path opacity="0.1" fill="#A67D52" d="M67.9,22.2v4.5l0.6,0.2c-0.2-1-0.1-1.9,0.5-2.4L67.9,22.2z"/>
				<g>
					<path opacity="0.1" fill="#A67D52" d="M75.4,16.1c-0.1,0.8-1.1,1.5-2.2,1.3c-1.8,1.7-4.6,1.5-6.1,0.4L75.4,16.1z"/>
					<path fill="#F6C785" d="M72.7,14.8c3.2-2.1,3.8,3.1,0.5,2.2c-3.1,2.7-6.1,0.8-6.1,0.8c-2.8,0.5-2.6-2.1-0.1-1.8
						C67,16,68.8,13.7,72.7,14.8z"/>
					<path opacity="0.1" fill="#A67D52" d="M67,16c0,0-0.6,0.9,0.1,1.8c-0.3,0.1-1.8,0.3-2-0.7C65.2,15.7,67,16,67,16z"/>
				</g>
				<g>
					<path fill="#A67D52" d="M73.5,10.3c-0.2,0.2-0.1,0.4,0.1,0.4c1.4-1,2.8-1.6,5.3-0.7c0.1,0,0.1-0.3-0.1-0.4
						C76.6,8.8,75.2,8.6,73.5,10.3z"/>
					<path fill="#A67D52" d="M68.2,11.2c0.2,0.1,0.1,0.4-0.1,0.3c-0.9-0.4-2-1.2-3.6,0.1c-0.1,0-0.1-0.1,0-0.2
						C66.3,10.3,66.7,10.6,68.2,11.2z"/>
					<g>
						<circle fill="#A67D52" cx="76" cy="10.3" r="1"/>
						<circle fill="#F6C785" cx="76.6" cy="9.8" r="0.4"/>
						<circle fill="#736458" cx="76.2" cy="10.2" r="0.5"/>
					</g>
					<g>
						<circle fill="#A67D52" cx="66.3" cy="11.5" r="0.9"/>
						<circle fill="#F6C785" cx="66.8" cy="11.1" r="0.3"/>
						<circle fill="#736458" cx="66.5" cy="11.5" r="0.5"/>
					</g>
				</g>
				<polygon fill="#736458" points="71.1,4.2 71.2,7.9 79,7 78.7,5.1 				"/>
				<polygon fill="#736458" points="63.9,7.1 63.9,8.7 68.8,8.2 68.9,4.8 				"/>
			</g>
		</g>
		<polygon fill="#DB575D" points="64.5,31.3 73.2,42.9 78.8,31.5 91.5,31 82,41.1 75.2,66 63.2,42.9 54.7,34.2 		"/>
		<polygon fill="#EE5D5E" points="73.2,42.9 75.1,66.1 82.7,41 91.3,31 78.7,31.5 		"/>
		<polygon fill="#DB575D" points="78.7,31.5 80.9,38.8 80.6,40.2 77.7,41.5 		"/>
		<path opacity="0.5" fill="#333333" d="M91.3,42.2l-3.6,6.6c0,0-3.3-1.5-3.3-1.6c-0.1-0.2-1.1-4.8-1.1-4.8L91.3,42.2z"/>
		<polygon fill="#676767" points="90.9,31 81.2,33.4 75.1,66 85.1,50.8 83.3,42.4 87,47.6 90.9,42.2 		"/>
		<polygon opacity="0.5" fill="#333333" points="103.5,45.6 98.1,99.4 105.2,84.7 		"/>
		<path fill="#333333" d="M77.9,114.9c0,0.6-1.1,65.8-1.1,65.8l5,0.1l1.4,0.3L77.9,114.9z"/>
		<path fill="#4E4E4E" d="M58.2,89.5c0.9,0.2,11.7-0.5,11.7-0.5v3H59.5L58.2,89.5z"/>
		<polygon fill="#676767" points="83.9,90 83.9,92 92.7,92 93.5,90 		"/>
		<polygon fill="#333333" points="75.1,66.7 75.2,107 78.5,107 		"/>
		<polygon fill="#4E4E4E" points="54.7,30.9 54.7,43.1 60.9,54.1 64.5,48.5 64.7,57.1 75.1,66.1 63.2,36.4 		"/>
		<polygon fill="#F26768" points="53.9,29.7 53.9,34.2 62.2,40.3 63.9,31.3 		"/>
		<polygon fill="#F26768" points="90.9,28.2 90.9,33.4 78.9,39.6 78.9,31.5 		"/>
		<path fill="#333333" d="M49.6,75.9l-1.2-13l-4.4-18v26.9h-2.4c-1.1,0-1.6,1.3-0.8,2.1l3.9,3.5l2.8,23.1L49.6,75.9z"/>
	</g>
</g>
</svg>
