<?xml version="1.0" encoding="utf-8"?>
<!-- Generator: Adobe Illustrator 18.0.0, SVG Export Plug-In . SVG Version: 6.00 Build 0)  -->
<!DOCTYPE svg PUBLIC "-//W3C//DTD SVG 1.0//EN" "http://www.w3.org/TR/2001/REC-SVG-20010904/DTD/svg10.dtd">
<svg version="1.0" id="Layer_1" xmlns="http://www.w3.org/2000/svg" xmlns:xlink="http://www.w3.org/1999/xlink" x="0px" y="0px"
	 viewBox="0 0 792 612" enable-background="new 0 0 792 612" xml:space="preserve">
<g>
	<circle opacity="0.1" fill="#883E26" enable-background="new    " cx="396" cy="328.4" r="283.6"/>
	<circle fill="#FFFFFF" cx="396" cy="283.6" r="283.6"/>
	<g>
		<path fill="#BA2B32" d="M396.4,537L396.4,537c-3.5,0-7.1,0.4-10.6,0.4v-3.5c3.5,0,6.7-0.4,10.2-0.4L396.4,537z M406.6,538.2v-3.9
			c3.5,0,7.1-0.4,10.2-0.8l0.4,3.9C413.7,537.8,410.1,537.8,406.6,538.2z M375.2,537.4c-3.5-0.4-7.1-0.8-10.6-1.2l0.4-3.9
			c3.5,0.4,6.7,0.8,10.2,1.2V537.4z M427.8,536.2l-0.4-3.9c3.5-0.4,6.7-0.8,10.2-1.6l0.8,3.9C434.5,535.4,431.4,535.8,427.8,536.2z
			 M354.4,535c-3.5-0.4-7.1-1.2-10.2-2l0.8-3.9c3.5,0.8,6.7,1.2,10.2,2L354.4,535z M448.6,532.7l-0.8-3.9c3.5-0.8,6.7-1.6,10.2-2.4
			l0.8,3.9C455.3,531.5,451.8,532.3,448.6,532.7z M333.5,530.7c-3.5-0.8-6.7-2-10.2-2.7l1.2-3.9c3.1,0.8,6.7,2,9.8,2.7L333.5,530.7z
			 M468.7,527.5l-1.2-3.9c3.1-1.2,6.7-2,9.8-3.1l1.2,3.5C475.7,525.6,472.2,526.8,468.7,527.5z M313.5,524.4
			c-3.1-1.2-6.7-2.4-9.8-3.5l1.6-3.5c3.1,1.2,6.3,2.4,9.8,3.5L313.5,524.4z M488.7,520.9l-1.6-3.5c3.1-1.2,6.3-2.7,9.4-3.9l1.6,3.5
			C495.4,518.1,491.8,519.7,488.7,520.9z M293.9,516.9c-3.1-1.6-6.3-2.7-9.4-4.3l1.6-3.5c3.1,1.6,6.3,3.1,9.4,4.3L293.9,516.9z
			 M508,512.2l-1.6-3.5c3.1-1.6,6.3-3.1,9-4.7l2,3.5C514.2,509.1,511.1,510.7,508,512.2z M275,507.5c-3.1-1.6-6.3-3.5-9-5.1l2-3.5
			c3.1,2,5.9,3.5,9,5.1L275,507.5z M526.4,502.4l-2-3.5c3.1-2,5.9-3.5,8.6-5.5l2,3.1C532.3,498.9,529.6,500.4,526.4,502.4z
			 M256.9,496.9c-2.7-2-5.9-3.9-8.6-5.9l2.4-3.1c2.7,2,5.5,3.9,8.6,5.9L256.9,496.9z M544.1,491l-2.4-3.1c2.7-2,5.5-3.9,8.2-6.3
			l2.4,3.1C549.6,486.7,546.8,488.7,544.1,491z M239.7,484.7c-2.7-2-5.5-4.3-8.2-6.7l2.4-3.1c2.7,2.4,5.5,4.3,7.9,6.7L239.7,484.7z
			 M560.6,478.1l-2.4-3.1c2.7-2.4,5.1-4.7,7.9-6.7l2.7,2.7C565.7,473.3,563.3,475.7,560.6,478.1z M223.6,471
			c-2.7-2.4-5.1-4.7-7.5-7.5l2.7-2.7c2.4,2.4,5.1,4.7,7.5,7.1L223.6,471z M575.9,463.5l-2.7-2.7c2.4-2.4,4.7-5.1,7.1-7.5l2.7,2.7
			C581,458.8,578.7,461.2,575.9,463.5z M209,456.1c-2.4-2.7-4.7-5.1-7.1-7.9l3.1-2.4c2.4,2.7,4.7,5.1,6.7,7.9L209,456.1z
			 M590.4,448.2l-3.1-2.4c2.4-2.7,4.3-5.5,6.7-7.9l3.1,2.4C594.8,442.7,592.4,445.4,590.4,448.2z M195.3,440.3
			c-2-2.7-4.3-5.5-6.3-8.2l3.1-2.4c2,2.7,3.9,5.5,6.3,8.2L195.3,440.3z M603.4,431.7l-3.1-2.4c2-2.7,3.9-5.5,5.9-8.6l3.1,2
			C607.3,425.8,605.4,428.9,603.4,431.7z M183.1,423.1c-2-2.7-3.9-5.9-5.5-9l3.5-2c2,3.1,3.5,5.9,5.5,8.6L183.1,423.1z M614.8,414
			l-3.5-2c2-3.1,3.5-5.9,5.1-9l3.5,2C618.3,408.1,616.4,410.9,614.8,414z M172.1,405c-1.6-3.1-3.1-6.3-4.7-9.4l3.5-1.6
			c1.6,3.1,3.1,6.3,4.7,9L172.1,405z M624.6,395.6l-3.5-1.6c1.6-3.1,3.1-6.3,4.3-9.4l3.5,1.6C627.8,389.3,626.2,392.4,624.6,395.6z
			 M163.1,386.1c-1.6-3.1-2.7-6.3-3.9-9.8l3.5-1.6c1.2,3.1,2.7,6.3,3.9,9.4L163.1,386.1z M633.3,376.3l-3.5-1.6
			c1.2-3.1,2.4-6.3,3.5-9.8l3.5,1.2C635.6,369.6,634.4,372.8,633.3,376.3z M155.2,366.5c-1.2-3.1-2.4-6.7-3.1-9.8l3.9-1.2
			c1.2,3.1,2,6.7,3.1,9.8L155.2,366.5z M639.9,356.3l-3.9-1.2c0.8-3.1,2-6.7,2.7-9.8l3.9,0.8C641.9,349.6,641.1,352.7,639.9,356.3z
			 M149.3,346.5c-0.8-3.5-1.6-6.7-2.4-10.2l3.9-0.8c0.8,3.5,1.6,6.7,2.4,10.2L149.3,346.5z M645.4,335.9l-3.9-0.8
			c0.8-3.5,1.2-6.7,2-10.2l3.9,0.8C646.6,329.2,645.8,332.3,645.4,335.9z M145,326c-0.4-3.5-1.2-7.1-1.6-10.2l3.9-0.4
			c0.4,3.5,0.8,6.7,1.6,10.2L145,326z M648.6,315l-3.9-0.4c0.4-3.5,0.8-6.7,1.2-10.2l3.9,0.4C649.4,308,649,311.5,648.6,315z
			 M142.2,305.2c-0.4-3.5-0.4-7.1-0.8-10.6h3.9c0,3.5,0.4,7.1,0.8,10.2L142.2,305.2z M650.9,294.2h-3.5c0-3.5,0.4-7.1,0.4-10.2v-2
			h3.9v2C651.7,287.1,651.3,290.7,650.9,294.2z M141.1,284L141.1,284c0-3.9,0-7.1,0.4-10.6h3.9c0,3.1-0.4,6.7-0.4,9.8L141.1,284z
			 M646.6,272.6c0-3.5-0.4-7.1-0.8-10.2l3.9-0.4c0.4,3.5,0.4,7.1,0.8,10.6H646.6z M146.2,263.2l-3.9-0.4c0.4-3.5,0.8-7.1,1.2-10.6
			l3.9,0.4C147,256.5,146.6,260,146.2,263.2z M644.6,251.8c-0.4-3.5-0.8-6.7-1.6-10.2l3.9-0.8c0.4,3.5,1.2,7.1,1.6,10.2L644.6,251.8
			z M148.5,242.8l-3.9-0.8c0.4-3.5,1.2-7.1,2-10.2l3.9,0.8C149.7,236.1,149.3,239.2,148.5,242.8z M641.1,231.4
			c-0.8-3.5-1.6-6.7-2.4-10.2l3.9-0.8c0.8,3.5,1.6,6.7,2.4,10.2L641.1,231.4z M152.8,222.3l-3.9-0.8c0.8-3.5,2-6.7,2.7-10.2l3.9,1.2
			C154.8,215.7,153.6,219.2,152.8,222.3z M636,211.3c-1.2-3.1-2-6.7-3.1-9.8l3.5-1.2c1.2,3.1,2.4,6.7,3.1,9.8L636,211.3z
			 M158.7,202.7l-3.5-1.2c1.2-3.1,2.4-6.7,3.5-9.8l3.5,1.6C161.1,196,159.9,199.5,158.7,202.7z M629.3,191.7
			c-1.2-3.1-2.7-6.3-3.9-9.4l3.5-1.6c1.6,3.1,2.7,6.3,3.9,9.8L629.3,191.7z M166.2,183.4l-3.5-1.6c1.6-3.1,2.7-6.3,4.3-9.4l3.5,1.6
			C169,177.2,167.8,180.3,166.2,183.4z M621.1,172.8c-1.6-3.1-3.1-6.3-4.7-9l3.5-2c1.6,3.1,3.1,6.3,4.7,9.4L621.1,172.8z
			 M175.2,164.6l-3.5-2c1.6-3.1,3.5-6.3,5.1-9l3.5,2C178.8,158.7,177.2,161.4,175.2,164.6z M611.3,154.8c-2-3.1-3.5-5.9-5.5-8.6
			l3.1-2c2,2.7,3.9,5.9,5.5,9L611.3,154.8z M185.8,146.9l-3.1-2c2-2.7,3.9-5.9,5.9-8.6l3.1,2.4C189.8,141,187.8,143.8,185.8,146.9z
			 M599.9,137.5c-2-2.7-3.9-5.5-6.3-8.2l3.1-2.4c2,2.7,4.3,5.5,6.3,8.2L599.9,137.5z M198,130l-3.1-2.4c2-2.7,4.3-5.5,6.7-8.2
			l3.1,2.4C202.3,124.5,200,127.3,198,130z M586.9,121.4c-2.4-2.7-4.7-5.1-7.1-7.9l2.7-2.7c2.4,2.7,4.7,5.1,7.1,7.9L586.9,121.4z
			 M211.4,114.3l-2.7-2.7c2.4-2.7,4.7-5.1,7.5-7.5l2.7,2.7C216.1,109.2,213.7,111.6,211.4,114.3z M572.8,106.1
			c-2.4-2.4-5.1-4.7-7.5-7.1l2.7-2.7c2.7,2.4,5.1,4.7,7.5,7.5L572.8,106.1z M225.9,99.4l-2.7-2.7c2.7-2.4,5.1-4.7,7.9-7.1l2.4,3.1
			C231,94.7,228.7,97,225.9,99.4z M557.4,91.9c-2.7-2.4-5.5-4.3-8.2-6.7l2.4-3.1c2.7,2,5.5,4.3,8.2,6.7L557.4,91.9z M241.6,86
			l-2.4-3.1c2.7-2,5.5-4.3,8.2-6.3l2.4,3.1C247.1,81.7,244.4,84.1,241.6,86z M541.3,79.3c-2.7-2-5.5-3.9-8.6-5.9l2-3.1
			c2.7,2,5.9,3.9,8.6,5.9L541.3,79.3z M258.5,73.8l-2-3.1c2.7-2,5.9-3.9,9-5.5l2,3.5C264.4,70.3,261.7,72.3,258.5,73.8z M524.1,68
			c-3.1-1.6-5.9-3.5-9-5.1l2-3.5c3.1,1.6,6.3,3.5,9,5.1L524.1,68z M276.2,63.2l-2-3.5c3.1-1.6,6.3-3.1,9.4-4.7l1.6,3.5
			C282.5,60.1,279.3,61.7,276.2,63.2z M505.6,58.1c-3.1-1.6-6.3-3.1-9.4-4.3l1.6-3.5c3.1,1.6,6.3,2.7,9.4,4.3L505.6,58.1z M295,54.2
			l-2-3.5c3.1-1.6,6.3-2.7,9.8-3.9l1.6,3.5C301.3,51.5,298.2,53,295,54.2z M486.7,49.9c-3.1-1.2-6.3-2.4-9.8-3.5l1.2-3.5
			c3.1,1.2,6.7,2.4,9.8,3.5L486.7,49.9z M314.3,46.7l-1.6-3.9c3.1-1.2,6.7-2.4,9.8-3.1l1.2,3.9C320.6,44.4,317.4,45.6,314.3,46.7z
			 M467.1,43.2c-3.1-0.8-6.7-2-9.8-2.7l0.8-3.9c3.5,0.8,6.7,2,10.2,2.7L467.1,43.2z M333.9,40.9l-0.8-3.9c3.1-0.8,6.7-1.6,10.2-2.4
			l0.8,3.9C340.6,39.3,337.5,40.1,333.9,40.9z M447.1,38.1c-3.5-0.8-6.7-1.2-10.2-2l0.8-3.9c3.5,0.4,7.1,1.2,10.2,2L447.1,38.1z
			 M354.4,36.5l-0.8-3.9c3.5-0.8,7.1-1.2,10.2-1.6l0.4,3.9C361,35.4,357.5,35.7,354.4,36.5z M426.6,35c-3.5-0.4-6.7-0.8-10.2-1.2
			l0.4-3.9c3.5,0.4,7.1,0.8,10.6,1.2L426.6,35z M374.8,33.8l-0.4-3.9c3.5-0.4,7.1-0.4,10.6-0.8V33C381.5,33.4,378.3,33.8,374.8,33.8
			z M405.8,33.8c-3.1,0-6.7,0.4-9.8,0.4h0.4v-3.9H396c3.5,0,6.7-0.4,9.8,0V33.8z"/>
	</g>
	<g>
		<g>
			<path fill="#792323" d="M279,208.5v-11.8c0-0.9-0.1-1.5-0.4-1.8s-0.9-0.4-1.8-0.4H271c-4.7,0-7-2.3-7-6.9v-12.7
				c0-4.5,2.4-6.8,7.2-6.8h7.6c4.8,0,7.2,2.3,7.2,6.8v7.1h-7v-6c0-0.9-0.2-1.5-0.5-1.8s-0.9-0.4-1.9-0.4h-3.2
				c-0.9,0-1.5,0.1-1.9,0.4c-0.3,0.3-0.5,0.9-0.5,1.8v10.7c0,0.9,0.2,1.5,0.5,1.8s0.9,0.4,1.9,0.4h5.6c4.7,0,7.1,2.3,7.1,6.8v13.9
				c0,4.5-2.4,6.8-7.3,6.8h-7.5c-4.8,0-7.2-2.3-7.2-6.8v-7.1h7v6c0,0.9,0.2,1.5,0.5,1.8s0.9,0.4,1.9,0.4h3.2c0.9,0,1.5-0.1,1.8-0.4
				C278.8,210.1,279,209.5,279,208.5z"/>
			<path fill="#792323" d="M308.8,168.1h7v41.5c0,4.5-2.4,6.8-7.3,6.8H300c-4.8,0-7.2-2.3-7.2-6.8v-41.5h7v40.4
				c0,0.9,0.2,1.5,0.5,1.8s0.9,0.4,1.9,0.4h4.4c1,0,1.6-0.1,1.9-0.4c0.3-0.3,0.4-0.9,0.4-1.8L308.8,168.1L308.8,168.1z"/>
			<path fill="#792323" d="M323.6,168.1h16.7c4.8,0,7.2,2.3,7.2,6.8v12.3c0,2.7-1,4.3-3.1,4.8c2.1,0.5,3.1,2,3.1,4.5v13.2
				c0,4.5-2.4,6.8-7.2,6.8h-16.7V168.1z M340.5,186.9v-11c0-0.9-0.2-1.5-0.5-1.8s-0.9-0.4-1.9-0.4h-7.7v15.5h7.7
				c0.9,0,1.5-0.1,1.9-0.4C340.4,188.4,340.5,187.8,340.5,186.9z M340.5,208.7v-11.9c0-0.9-0.2-1.5-0.5-1.8s-0.9-0.4-1.9-0.4h-7.7
				V211h7.7c0.9,0,1.5-0.1,1.9-0.4C340.4,210.2,340.5,209.6,340.5,208.7z"/>
			<path fill="#792323" d="M361.2,216.4h-6.1v-48.3h7.6L371,198l8.3-29.9h7.6v48.3h-6.1v-35.3l-6.6,24.8h-6.3l-6.6-24.8L361.2,216.4
				L361.2,216.4z"/>
			<path fill="#792323" d="M395.5,168.1h6.9v48.3h-6.9V168.1z"/>
			<path fill="#792323" d="M430.6,168.1v5.6h-8.1v42.7h-6.9v-42.7h-8.1v-5.6H430.6z"/>
			<path fill="#792323" d="M459.8,216.4h-7v-15.3l-10.3-33h7.1l6.7,26.6l6.3-26.6h7.1l-9.9,33L459.8,216.4L459.8,216.4z"/>
			<path fill="#792323" d="M480.9,168.1h8.6c4.8,0,7.2,2.3,7.2,6.8v34.7c0,4.5-2.4,6.8-7.2,6.8h-8.6c-4.8,0-7.2-2.3-7.2-6.8v-34.7
				C473.6,170.4,476.1,168.1,480.9,168.1z M489.7,208.5V176c0-0.9-0.2-1.5-0.5-1.8s-0.9-0.4-1.9-0.4h-4.5c-0.9,0-1.5,0.1-1.8,0.4
				c-0.3,0.3-0.4,0.9-0.4,1.8v32.5c0,0.9,0.1,1.5,0.4,1.8s0.9,0.4,1.8,0.4h4.5c0.9,0,1.5-0.1,1.9-0.4
				C489.5,210.1,489.7,209.5,489.7,208.5z"/>
			<path fill="#792323" d="M520.2,168.1h7v41.5c0,4.5-2.4,6.8-7.2,6.8h-8.6c-4.8,0-7.2-2.3-7.2-6.8v-41.5h7v40.4
				c0,0.9,0.2,1.5,0.5,1.8s0.9,0.4,1.9,0.4h4.4c1,0,1.6-0.1,1.9-0.4c0.3-0.3,0.4-0.9,0.4-1.8v-40.4H520.2z"/>
			<path fill="#792323" d="M541.9,196.9v19.5H535v-48.3h15.8c4.8,0,7.2,2.3,7.2,6.8V190c0,3.9-1.7,6.1-5.2,6.7l7.6,19.7h-7.5
				l-7.2-19.5H541.9z M541.9,173.8v17.6h6.8c0.9,0,1.5-0.1,1.9-0.4c0.3-0.3,0.5-0.9,0.5-1.8V176c0-0.9-0.2-1.5-0.5-1.8
				s-0.9-0.4-1.9-0.4H541.9z"/>
		</g>
	</g>
	<g>
		<path fill="#792323" d="M286.8,249v23h-29v142h-30.1V272H199v-23H286.8z"/>
		<path fill="#792323" d="M368.4,414l-6.3-34.2H326l-5.8,34.2h-30.1l33.2-165H364l34.8,165H368.4z M330,357h28l-14.4-79L330,357z"/>
		<path fill="#792323" d="M443.4,391h43.9v23h-74V249h30.1V391z"/>
		<path fill="#792323" d="M500.7,414V249h30.1v165H500.7z M597.4,249l-34,82.1l33.7,82.9h-32.4L532,331.1l33-82.1H597.4z"/>
	</g>
</g>
</svg>
