<?xml version="1.0" encoding="utf-8"?>
<!-- Generator: Adobe Illustrator 18.0.0, SVG Export Plug-In . SVG Version: 6.00 Build 0)  -->
<!DOCTYPE svg PUBLIC "-//W3C//DTD SVG 1.0//EN" "http://www.w3.org/TR/2001/REC-SVG-20010904/DTD/svg10.dtd">
<svg version="1.0" id="Layer_1" xmlns="http://www.w3.org/2000/svg" xmlns:xlink="http://www.w3.org/1999/xlink" x="0px" y="0px"
	 viewBox="0 0 196.4 290.7" enable-background="new 0 0 196.4 290.7" xml:space="preserve">
<g>
	<path fill="#FF6666" d="M169.6,233.4c16.6-17,26.8-41.2,26.8-67.3c0-54.2-44-98.1-98.2-98.1S0,111.8,0,166.1
		c0,26.1,10.2,50.3,26.8,67.3H169.6z"/>
	<polygon fill="#B3B3B3" points="114.4,103.7 81.1,103.6 80.6,109.8 114.8,109.4 	"/>
	<path opacity="0.1" fill="#883E26" d="M153.4,266.5c-1-0.5-2.1-0.9-3.2-1.3l29.5-9.3c0,0-32.3-6-33.7-7.3
		c-1.2-1.1-8.8,11.3-11,14.8c-2.3,0.1-4.5-0.1-6.6,0.9H61.8c-2.9-1-6-0.9-9.3-0.9c-12.7,0-23,5.2-23,11.5c0,6.3,10.3,11.5,23,11.5
		c4.2,0,8.1-0.6,11.5-1.5c17-7.3,33-7.6,45.7-5.8c1.5,6.5,14.4,11.6,30.1,11.6c16.7,0,30.3-5.7,30.3-12.8
		C170,273,163.3,268.7,153.4,266.5z"/>
	<polygon fill="#C5BAAD" points="160.4,239.8 179.8,254.4 143.5,254.4 	"/>
	<polygon fill="#FFFFFF" points="160.4,242.4 132.6,242.4 132.5,266.2 	"/>
	<polygon fill="#B6A999" points="132.6,117.6 132.6,264.4 61,264.4 61,117.4 80.6,109.8 114.8,109.2 	"/>
	<polygon opacity="0.2" fill="#897F73" points="96,109.6 80.3,109.8 60.8,117.1 61,264.4 96,264.4 	"/>
	<polygon fill="#F2F2F2" points="132.5,265.1 160.4,241.3 149.3,241.2 131.7,255.8 	"/>
	<path opacity="0.2" fill="#897F73" d="M61,119.3V141c0,0,4.4,11.8,10.5,18.1c4.3,9,5.6,16.8,5.6,16.8l-21.8,88.3l10.9,1.5
		c-0.5-10,11.4-20.3,13.6-34.1c0,0,10.5-13.1,16.3-27.1l6.5-10.4L61,119.3z"/>
	<polygon fill="#C5BAAD" points="146.8,30.7 124.7,27.9 124.7,40.8 146.8,43.6 152.7,38.1 	"/>
	<polygon fill="#C5BAAD" points="41.9,30.7 63.9,27.9 63.9,40.8 41.8,43.6 36.2,38.1 	"/>
	<polygon fill="#897F73" points="124.7,32.9 124.7,40.8 137.9,34.8 	"/>
	<g>
		<polygon fill="#B6A999" points="137.9,16.6 94.2,7.1 94.2,28.3 137.9,34.8 		"/>
		<polygon fill="#B6A999" points="51.5,16.6 94.3,7.1 94.3,28.3 51.5,34.8 		"/>
	</g>
	<polygon fill="#897F73" points="63.9,32.9 63.9,40.8 51.5,34.8 	"/>
	<polygon opacity="0.2" fill="#897F73" points="69,12.8 69,32.2 64.1,32.9 67.1,13.2 	"/>
	<polygon opacity="0.2" fill="#897F73" points="137.9,34.7 131.3,41.6 124.7,40.8 	"/>
	<polygon opacity="0.2" fill="#897F73" points="51,29.5 48.3,29.8 44.7,43.2 63.6,40.8 51,34.8 	"/>
	<g>
		<path fill="#FFC200" d="M120,33.4V11.5c2,0,3.2-1.4,3.2-3.2c0-1.8-1.4-3.2-3.2-3.2c-1.4,0-2.7,0.9-3.1,2.2L94.5,0L69,8.3v28.3
			l25.5,9.2l22.6-8.2c0.4,1.2,1.6,2.1,3,2.1c1.8,0,3.2-1.4,3.2-3.2C123.2,34.8,122,33.4,120,33.4z"/>
		<path fill="#FBB03B" d="M94.2,0L71.6,7.3c-0.4-1.3-1.6-2.2-3-2.2c-1.8,0-2.9,1.4-2.9,3.2c0,1.8,2.4,3.2,3.4,3.2v21.9
			c-1,0-3.4,1.4-3.4,3.2c0,1.8,1.3,3.2,3.1,3.2c1.4,0,2.5-0.9,2.9-2.1l22.6,8.1L94.2,0z"/>
		<g>
			<path fill="#FFE799" d="M89.1,14.2c2.2-1.1,1.2-5.7-1.7-5.7c-0.1-0.2-4.2,0.8-6.9,1.4c-1.3,0.3-2.8,0.4-4.1,1.8
				c-2.4,2.7,0.2,6.8,3,5.9c1.5-0.4,1.5-2.2,1-2.9c-0.9-1.1-1.9,0.2-1.2,0.5c0.2,0.4-0.7,0.8-1,0c-0.7-1.6,1.6-3.4,3-1
				c1.3,2.7,4.2,10.9,2.5,17c-1.1,3-3.9,2.2-3.6,0.7c1.8,1.7,4.6-2.1,1.3-3.2c-3.8-1-5.1,2.5-3.9,5.1c2.4,3.9,8.1,2.1,8.7-3.9
				c0.6-5.3-1.6-12.7-1.6-12.7c5.2,7.7,8.4,16.9,9.5,21.1c0.1,0.3-1.1,0.4,0.9,0.4V28.3C93,27.8,88.5,23.3,89.1,14.2z"/>
			<path fill="#FFF3CC" d="M95.1,38.4c1-4.1,3.5-13,9-21.1c0,0-2.2,7.3-1.7,12.7c0.6,6,6.2,7.8,8.6,3.9c1.2-2.6-0.1-6.1-3.9-5.1
				c-3.2,1.1-0.5,4.9,1.3,3.2c0.3,1.5-2.5,2.2-3.6-0.7c-1.7-6.1,1.2-14.4,2.5-17c1.4-2.3,3.7-0.6,3,1c-0.3,0.8-1.2,0.4-1,0
				c0.7-0.3-0.3-1.7-1.2-0.5c-0.5,0.7-0.5,2.4,1,2.9c2.8,0.9,5.5-3.2,3-5.9c-1.3-1.4-2.8-1.5-4-1.8c-2.6-0.6-6.6-1.5-6.8-1.4
				c-2.9,0-3.7,4.6-1.5,5.7c0.6,9.2-4.8,13.8-5.1,14c0,0,0.4,0,0.4,0v10.5C95,38.8,95.1,38.7,95.1,38.4z"/>
		</g>
	</g>
	<path opacity="0.2" fill="#A67C52" d="M100.1,32.6c0,0,0.4,2.6-0.4,4.7c-1.1,3.4,1.2,6.1,1.2,6.1l7.7-2.8L100.1,32.6z"/>
	<path opacity="0.2" fill="#A67C52" d="M91.9,34.9c-1.1,4.3,0.4,6.7-2.4,9.2l-3.8-1.4L91.9,34.9z"/>
	<path fill="#F6C785" d="M116.2,38c0.1,1.1-1.5,4.3-0.3,6.6c6.1,9.2,13.9,17.5,14.5,32.1c3.8,2.7,2.4,6.5,2.4,6.5
		c5.5,14.2,2.6,33-5.1,46.4c-1.6,10.6-5.3,18.3-10.2,24.5l-4.2,15.9c0,0-5,4.9-14.6,6s-19.1-5.7-19.1-5.7l-4.5-16.7
		c-7.2-9-10.5-17.6-12.2-30.1c-5.7-9.5-9.5-23.5-8.4-36.8c0,0-1.8-4.4,1.7-6.8C53.8,67.4,66.2,56.5,73.6,42
		c-1.5-2.1-1.5-4.1-1.5-4.1l6.7,2.4c0.9-0.6,4-2.9,8-2c0.9-2.5,2.3-3.8,4.4-4c2.1,0.1-0.1,2.4-0.5,4.8c-0.6,4.3-4.5,6.2-8.4,6.5
		c-2.3,8.3-1.2,24.6-7.9,31.9c3.5,10.3,3.5,14.6,0.6,21.6c3.5,3.3,5.3,6.7,5.8,10.6l3.7-8.4l26.8-1.4l1.3,6.7l2.3,2.8
		c0-3.4,0.4-6.4,1.5-10.4c-3.2-7.2-3.6-14.4-1.1-21.8c-6.8-10.9-3.3-19.5-8.1-32.5c-3.6-1.8-6.6-3.9-5.9-8.5
		c0.1-1.9-1.5-3.1-1.1-3.9c0.6-2,5.2,0.3,5.1,4.5c3.2-0.3,6.3,2.8,6.3,2.8L116.2,38z"/>
	<path opacity="0.1" fill="#A67C52" d="M99.8,125.4l12.7-11.6c3.8,8,8.8,14.3,14.5,19.8l0.6-3l-14.8-18.8l-14,13.6H99.8z"/>
	<path fill="#BA2B32" d="M115.8,182.9l-2.6-12.7c-9.1,6.8-21.3,8.8-33.7,0.2l-5.1,11.7l18.8,15.7l4.7,0.4L115.8,182.9z"/>
	<circle opacity="0.1" fill="#A67C52" cx="114" cy="134.4" r="1.1"/>
	<circle opacity="0.1" fill="#A67C52" cx="78.7" cy="134.8" r="1.1"/>
	<path opacity="0.1" fill="#A67C52" d="M120.9,112.1l5,10.4C125.8,122.5,119.7,118.3,120.9,112.1z"/>
	<path fill="#A12E2F" d="M115.8,182.9c4.6,8.1,13.7,26,13.2,37.2c1.3,2.8,2.2,7.1,1.6,10.2c5.3,9.2,3.5,21.2,8.7,37.9
		c3.4,3.1,14.7,12,13.3,18.5c-6,1.1-17.6-4.1-19.1-11.8c-0.9,0.3-5.5-1.6-5.2-3.1c-0.1-2.1,0.5-4.8,0.5-4.8
		c-1.8-15-7.3-16.4-11.8-32.5c-1.9-2.9-3.5-5.2-3.9-9.9c-6.3-12.4-11.6-19.4-15.1-26.3L115.8,182.9z"/>
	<path fill="none" stroke="#000000" stroke-width="0.2662" stroke-miterlimit="10" d="M148.7,231.6"/>
	<path fill="#792323" d="M93.2,197.8l-14.3,23.6c-0.3,2.4-1.6,6.2-4.5,9c-1,8.6-8.5,15.1-13.2,30.5c0,0,0.3,2.8,0.1,5.8
		c-1.1,4.6-5.2,5.3-5.2,5.3c-5.3,8.1-10.5,11-15.6,10.1c-0.2-5.8,4.2-12.1,12.7-22.1c5-15.2,5.7-27.4,8.9-34.8l1.3-9.1
		c0.9-11.2,7-26.4,10.8-33.9L93.2,197.8z"/>
	<path opacity="0.1" fill="#A67C52" d="M75.5,114.5c-0.7,4-4,7.5-7.3,9.8L75.5,114.5z"/>
	<path opacity="0.1" fill="#A67C52" d="M78.2,141c13.5,2.8,25.6,2.5,36.4-1C102.6,142.1,90.4,142.2,78.2,141z"/>
	<path opacity="0.1" fill="#A67C52" d="M107.4,156.5c-3.2-0.6-6.4-0.8-9.4-0.7v-0.5l-0.7-12.5l1.7-1.2l-0.1-16.9L98,114.7
		c0,0,2-1,1.9-2.2c-0.3-2-1.7-1.6-1.7-1.6l-0.7-10.2l-13,0.7l-3.7,8.4c-0.5-3.9-2.3-7.3-5.8-10.6c2.9-7.1,2.9-11.3-0.6-21.6
		c6.7-7.3,5.6-23.6,7.9-31.9c3.9-0.3,7.8-2.2,8.4-6.5c0.4-2.4,2.6-4.6,0.5-4.8c-2.1,0.1-3.4,1.5-4.4,4c-4-0.9-7.1,1.4-8,2l-6.7-2.4
		c0,0,0.1,2.1,1.5,4.1c-7.4,14.5-19.8,25.4-17.3,37.9c-3.5,2.4-1.7,6.8-1.7,6.8c-1.3,14.8,1.6,25.4,8.4,36.8
		c1.7,12.4,5,21.1,12.2,30.1l4.5,16.7c0,0,8.6,6.2,17.7,5.9l0.2-19.5L107.4,156.5z"/>
	<path opacity="0.1" fill="#A67C52" d="M64.8,133.7l0.9,2.5c7.9-5.3,13.9-12.5,17.5-22.1l14.7,10.3l0.7-0.3l-16-12.7
		C78,120.4,72.2,127.9,64.8,133.7z"/>
	<polygon fill="#F2F2F2" points="114.4,103.7 114.8,109.4 98.9,124.8 101.2,115.1 	"/>
	<polygon fill="#F2F2F2" points="96.7,115.2 98.9,124.8 80.6,109.8 81.1,103.6 	"/>
	<path fill="#E6E6E6" d="M114.8,109.4c3.1,7.9,7.5,14.2,13.2,19.6l-0.6,2.8c-6.2-6.5-12.3-13.1-14.5-20.5L114.8,109.4z"/>
	<path fill="#E6E6E6" d="M64.3,131.5l0.6,2.2c8.2-4.5,14.2-11.9,17.8-22.2l-2.1-1.7C77.6,119.6,71.9,126.8,64.3,131.5z"/>
	
		<ellipse transform="matrix(0.972 -0.2351 0.2351 0.972 -49.5981 35.7699)" fill="#BA2B32" cx="125.2" cy="225.9" rx="3.7" ry="5.9"/>
	
		<ellipse transform="matrix(0.9728 0.2317 -0.2317 0.9728 53.6291 -9.5963)" fill="#A12E2F" cx="67.7" cy="223.5" rx="3.7" ry="5.9"/>
	<path fill="#A67C52" d="M98,107.9l0.2,3c0.9,0,2.7,2.6-0.3,3.8c1.9,0.3,3.7-2.5,1.1-4.2l-0.1-2.6L98,107.9z"/>
	<path opacity="0.1" fill="#A67C52" d="M83.2,104.1l-0.4,0.5c5.1,3.3,10.3,4.6,15.3,4.8l0.8-0.4c5.5-0.5,9.8-1.5,13.4-3.5l-0.2-0.9
		L83.2,104.1z"/>
	<g>
		<path fill="#BA2B32" d="M110.1,87c0.2,1.8,2.4,17.8,2.4,17.8c-10.5,4.9-20.4,4.5-29.7-0.9l3-17c0,0,6-7.3,11-7.8
			C101.9,78.3,109.8,85.2,110.1,87z"/>
		<path fill="#792323" d="M96.3,79.2L96.3,79.2c-4.9,0.9-10.5,7.7-10.5,7.7l-3,17c4.9,2.8,9.9,4.3,15.1,4.3
			C96.8,96.3,98.2,87.5,96.3,79.2z"/>
		<path opacity="0.2" fill="#473F39" d="M92.6,92.6c0.1,0.6,0.4,1.2,1.5,1.2c1.2,1.7,5.1,1.8,6.7-0.2c1.2-0.4,1.2-1.1,1.2-1.1
			L92.6,92.6z"/>
		<path fill="#F6C785" d="M100,90.8c-1.3-1.4-4.6-1-5.6,0.2c-2.2-0.7-2.8,2.8-0.2,2.4c1.7,1.8,5,1.3,6.4-0.5
			C102.7,93.3,102.6,89.6,100,90.8z"/>
		<path opacity="0.1" fill="#A67C52" d="M97.4,89.9c-1.2,0-2.4,0.4-3,1.1c-2.2-0.7-2.8,2.8-0.2,2.4c0.8,0.9,2,1.2,3.2,1.1
			C96.4,93.3,95.9,89.9,97.4,89.9z"/>
		<path fill="#FFC200" d="M107.8,85.9c-0.6,0.9-1.3,1.6-2,2.1c0.5,0.5,0.7,1.1,0.4,1.8c-0.2,0.6-0.7,1.1-1.6,0.7
			c-0.6-0.3-0.6-1-0.3-1.3c0.5-0.5,1,0.2,0.5,0.5c0,0.2,0.5,0.4,0.7-0.1c0.2-0.5-0.2-1.1-0.8-1.2c-1.9,0.7-4.1,0-6.4-1.9
			c-0.1,1.3,0.7,2.9,0.7,2.9c-1.4-0.2-2.5-0.4-4,0.2c0.7-0.9,1.1-2.5,1.1-2.4c-1.4,1.9-2.9,2.8-4.5,3c-0.1,0-0.7,0-1.2,0.5
			c-0.9,0.9,0.5,1.7,0.6,1c-0.5-0.2-0.2-0.6,0.1-0.6c0.1,0,0.3,0.1,0.4,0.2c0.4,0.6-0.1,1.5-1.2,1.2c-1.5-0.6-0.8-2-0.4-2.4
			c-0.9-0.2-1.7-0.5-2.6-0.9c0.9-1.7,2-3.3,3.3-4.4c0.3-0.2,0.1-0.5-0.1-0.6c-0.3-0.2-0.6,0.2-0.3,0.3c0.2-0.2,0.4,0,0.3,0.2
			c-0.2,0.3-0.9,0-0.6-0.6c0.1-0.1,0.3-0.3,0.7-0.3c-0.1-0.5,0.2-0.8,0.5-0.8c0.5,0,0.8,0.4,0.5,0.7c-0.2,0.2-0.5-0.1-0.3-0.4
			c-0.2-0.1-0.4,0-0.4,0.4c0,0.2,0.1,0.7,0.8,0.5c1.4-0.6,3-0.3,4.8,1c0.1-2.5-0.5-3.8-1.4-5.4c0,0,0.6,1.5,0.7,2.5
			c0,1-0.7,1.1-1,0.8c-0.3-0.2-0.3-0.6,0-0.7c0.2-0.1,0.4,0.1,0.3,0.3c0.1,0.2,0.3,0.1,0.4-0.1c0.2-0.7-0.8-2.8-0.8-2.8
			c-0.1-0.3-0.4-0.2-0.4,0c0.2,0,0.4,0.1,0.2,0.4c-0.2,0.3-0.9,0-0.7-0.5c0-0.2,0.4-0.7,1.5-0.9c0.6,0,0.5,0.5,0.4,0.6
			c0.1,0.6,0.4,1.1,1,1.6c0.1-0.8,0.1-1.5,0-1.8c-0.3-0.1-0.3-0.7,0.1-0.8c0,0,0.6-0.3,1.4-0.2c0.5,0.1,0.6,0.6,0.5,0.8
			c-0.1,0.5-0.7,0.4-0.7,0.1c0-0.1,0.1-0.3,0.3-0.2c0-0.4-0.6-0.4-0.5,0.1c0,0.4,0.3,2.2,0.6,2.9c0.1,0.3,0.5,0.2,0.4-0.1
			c-0.2,0.1-0.3-0.4,0.1-0.4c0.4,0.1,0.4,0.8-0.2,1c-0.5,0.2-0.8-0.5-0.8-0.7c-0.2-0.6-0.5-2.3-0.5-2.3c-0.1,1.9,0,3.7,0.9,5.3
			c1.3-1.6,2.6-2.2,3.9-2.2c0.8,0,0.8-0.4,0.6-0.7c-0.2-0.3-0.3-0.3-0.5-0.3c0.4,0.5-0.2,0.6-0.3,0.4c-0.6-0.6,0.6-1.5,1.3-0.4
			c0.7-0.3,1.1,0.2,0.9,0.6c-0.1,0.3-0.3,0.3-0.5,0.2c-0.1-0.1-0.1-0.4,0.1-0.3c0.2,0,0.1-0.2,0-0.3c-0.4-0.1-0.7,0.4-0.2,0.9
			C105,83.5,106.5,84.9,107.8,85.9z"/>
		<path fill="#FBB03B" d="M97.4,89.2l-0.2-3.8c0-1.3-0.2-2.7-0.5-4.3c-0.4-0.4-0.9-1.1-1-1.6c0.1-0.1,0.2-0.7-0.4-0.6
			c-1.1,0.2-1.4,0.8-1.5,0.9c-0.1,0.5,0.5,0.8,0.7,0.5c0.2-0.3,0-0.4-0.2-0.4c0-0.2,0.2-0.4,0.4,0c0,0,1,2.1,0.8,2.8
			c-0.1,0.3-0.3,0.3-0.4,0.1c0.2-0.2,0-0.4-0.3-0.3c-0.3,0.1-0.3,0.5,0,0.7c0.3,0.2,1,0.2,1-0.8c-0.1-1-0.7-2.5-0.7-2.5
			c0.9,1.6,1.5,2.9,1.4,5.4c-1.8-1.3-3.4-1.6-4.8-1c-0.7,0.2-0.8-0.4-0.8-0.5c0-0.4,0.2-0.5,0.4-0.4c-0.2,0.3,0,0.5,0.3,0.4
			c0.3-0.3,0-0.8-0.5-0.7c-0.3,0-0.6,0.3-0.5,0.8c-0.4,0-0.6,0.1-0.7,0.3c-0.3,0.5,0.3,0.9,0.6,0.6c0.2-0.2-0.1-0.4-0.3-0.2
			c-0.2-0.1,0-0.4,0.3-0.3c0.2,0.1,0.3,0.4,0.1,0.6c-1.3,1.1-2.4,2.7-3.3,4.4c0.9,0.5,1.8,0.8,2.6,0.9c-0.5,0.4-1.1,1.8,0.4,2.4
			c1.1,0.2,1.6-0.6,1.2-1.2c-0.1-0.1-0.2-0.2-0.4-0.2c-0.3,0-0.6,0.4-0.1,0.6c-0.1,0.7-1.5-0.1-0.6-1c0.5-0.5,1.1-0.5,1.2-0.5
			c1.6-0.2,3.1-1,4.5-3c-0.1,0.2-0.4,1.5-1.1,2.4C96,89.3,96.7,89.2,97.4,89.2z"/>
		<path fill="#FFC200" d="M106.7,94.5c3.7-1.1,3.1,3.1,0.5,2.7c0.1,2.4,0.9,5.3,0.9,5.3s-6.8,2.4-10.3,4.7c-2.3-2.5-9.2-4.4-9.2-4.4
			c0.2-2.2,0.2-4.3-0.3-6.2c-3.2-1-1.4-4,0.8-2.7C89,93.8,96.8,97,106.7,94.5z"/>
		<path fill="#FBB03B" d="M97.7,107.2l-0.3-11.8c-5.1-0.3-8.4-1.6-8.4-1.6c-2.2-1.2-4,1.8-0.8,2.7c0.5,2,0.5,4.1,0.3,6.2
			C88.5,102.8,95.3,104.7,97.7,107.2z"/>
		<path fill="#F6C785" d="M89.2,102.4l3.2,1c-0.8,6.1,9.4,7.8,10.4,0.6l4.1-1.9l-0.3-6.7c-6,0.8-12,0.5-18-0.8
			C89.2,97.5,89.6,99.7,89.2,102.4z"/>
		<path fill="none" stroke="#000000" stroke-width="0.2662" stroke-miterlimit="10" d="M100.4,84.4"/>
		<path fill="#F6C785" d="M98.7,85.4c2.6-3,5.6-1.5,8,0.6C104.7,88.4,102,88,98.7,85.4z"/>
		<path fill="#F6C785" d="M96.2,86.1c-3.4,4.7-7.4,2.5-7.4,2.5S92.4,82.1,96.2,86.1z"/>
		<path fill="#F6C785" d="M104.3,102.6c-2.3,0-14.9-6.4-12-6.7c9.4,0,9.6-2.5,12.1-2.9C108.3,91.9,111,102.6,104.3,102.6z"/>
		<path fill="#FFFFFF" d="M105,93.7c2.4,0.1,4.5,8.5-0.5,8.1c-2.8-0.5-3.4-1.2-6.4-1.2c-3.2-0.3-5.5,0.5-6.7,0.2
			c-1.9-0.4-3.1-5.3,0.7-6.1c1.5-0.2,2,0.6,5.2,0.7C102.6,95.7,103.4,93.5,105,93.7z"/>
		<path fill="#CFCFCB" d="M92.4,98.1c3.1,0.4,7.7-0.1,9.6-0.6c0.1-1.2,1.5-1.5,1.7-0.2c0,0,1.4-0.2,2.5,0.6c-0.5-1-2.2-0.9-2.2-0.9
			c-0.3-1.6-2.1-1.1-2.2,0c-2.7,0.7-6.5,1-9.7,0.8L92.4,98.1z"/>
		<path fill="#A67C52" d="M100.7,85.3c-0.1,0.1,0,0.4,0.2,0.4c1.6-1.2,4,0.4,3.9,0.2C103.6,84.7,102.2,84.1,100.7,85.3z"/>
		<path fill="#A67C52" d="M94.2,85.4c0.1,0,0.1,0,0.2,0.1c0.2,0.2,0.1,0.5-0.2,0.4c-1-0.2-2.1,0.2-3.3,1.1
			C91.9,85.6,93.1,85.3,94.2,85.4z"/>
		
			<ellipse transform="matrix(0.9907 -0.1359 0.1359 0.9907 -12.6354 16.0234)" fill="#B55232" cx="111" cy="100.6" rx="1" ry="1.9"/>
		
			<ellipse transform="matrix(0.9696 0.2448 -0.2448 0.9696 27.0599 -17.5907)" opacity="0.2" fill="#473F39" cx="84.3" cy="100" rx="1" ry="1.9"/>
		<path fill="#F6C785" d="M111.1,99c-0.9,1-0.3,2.5,0.3,2.9c0,0,1.7,0.1,1.7-1.6C112.8,98.3,111.1,99,111.1,99z"/>
		<path fill="#F6C785" d="M84.4,98.6c0.9,1,0.3,2.5-0.3,2.9c0,0-1.9,0-1.9-1.8C82.7,98,84.4,98.6,84.4,98.6z"/>
		<g>
			
				<ellipse transform="matrix(0.9902 0.1393 -0.1393 0.9902 12.8961 -13.4417)" fill="#A67C52" cx="102.5" cy="85.4" rx="0.8" ry="0.9"/>
			<circle fill="#F6C785" cx="102.9" cy="85" r="0.3"/>
			<circle fill="#736357" cx="102.5" cy="85.2" r="0.4"/>
		</g>
		<g>
			<ellipse fill="#A67C52" cx="93" cy="86.3" rx="0.8" ry="0.9"/>
			<circle fill="#F6C785" cx="93.4" cy="85.8" r="0.3"/>
			<circle fill="#736357" cx="93" cy="86.1" r="0.4"/>
		</g>
		<path fill="#736357" d="M106.1,77.1c0.8,0.8,1.1,2,1,3.3c-2.1,0.1-5,1.2-7.9,2.5l-0.9-3.5C101.2,78.3,104,77.4,106.1,77.1z"/>
		<path fill="#736357" d="M94.6,81.5c0,1-0.2,1.7-1,2.6c-2.1-0.6-4.3-1.1-6.8-1.1c0.3-1,1-2.1,2.3-3.4
			C91.3,80.6,92.5,81.2,94.6,81.5z"/>
	</g>
	<circle fill="#A67C52" cx="97.7" cy="167.4" r="0.7"/>
	<path opacity="0.2" fill="#A67C52" d="M72.1,37.9l6.7,2.4L72.2,39C72.2,39,72.1,38.4,72.1,37.9z"/>
	<path opacity="0.2" fill="#A67C52" d="M96.2,86.1c-2.8-2.9-5.6-0.3-7.4,2.5c2.1-2.5,4.4-4.7,7.3-2.3L96.2,86.1z"/>
	<path opacity="0.2" fill="#A67C52" d="M98.7,85.4l0.4,0.3c2.1-2.5,4.7-1.7,7.6,0.4C103.9,83.7,101.1,82.6,98.7,85.4z"/>
	<path opacity="0.1" fill="#A67C52" d="M116.3,99l1.7,16.9c-1.4-2.6-2.5-5.1-3.1-6.6C115,108.6,114.8,102.7,116.3,99z"/>
	<path opacity="0.1" fill="#A67C52" d="M74.9,99.1l3.3,16.8c1-1.7,2.4-6.1,2.4-6.1C79.8,102.4,75.8,99.9,74.9,99.1z"/>
	<polygon opacity="0.1" fill="#A67C52" points="92.5,101.8 92.4,104.1 91.3,103.7 	"/>
	<polygon opacity="0.1" fill="#A67C52" points="74.3,77.5 70.5,82.1 75.3,80.4 	"/>
	<polygon fill="#E6E6E6" points="103.6,115.3 102.1,121.7 98.9,124.8 101.2,115.1 	"/>
	<polygon fill="#E6E6E6" points="96.7,115.2 93.8,115.1 96.5,122.8 98.9,124.8 	"/>
	<polygon fill="#FFFFFF" points="103.6,115.3 114.4,103.7 101.2,115.1 	"/>
	<polygon fill="#FFFFFF" points="81.1,103.6 93.8,115.1 96.7,115.2 	"/>
	<path opacity="0.1" fill="#A67C52" d="M100.6,92.8c0,0,0.3-0.6,1.4-0.6C101.6,93.1,100.6,92.8,100.6,92.8z"/>
	<path opacity="0.1" fill="#A67C52" d="M94.2,93.3c-1.1-0.2-1.6-0.8-1.6-0.8S92.8,93.6,94.2,93.3z"/>
	<path fill="#F2F2F2" d="M98.9,129.4L98.9,129.4c-0.1,0-0.2-0.1-0.2-0.2v-4.4c0-0.1,0.1-0.2,0.2-0.2l0,0c0.1,0,0.2,0.1,0.2,0.2v4.4
		C99.1,129.3,99,129.4,98.9,129.4z"/>
	<circle fill="#F2F2F2" cx="98.9" cy="124.5" r="1"/>
	<path opacity="0.1" fill="#A67C52" d="M115.3,77.1l2.7,3.9c-1.4,0.2-2.7,0.4-3.8,0.6C114.5,80,114.9,78.2,115.3,77.1z"/>
	<path opacity="0.1" fill="#A67C52" d="M107.2,44.6l2.7,1.2l1,19.1c-0.8-5.3-1-10.4-2.1-15.1C108.4,48,107.8,46.2,107.2,44.6z"/>
	<path opacity="0.2" fill="#A67C52" d="M111.6,39.6l2.9,0c0.1,1,0.5,1.7,1,2.1c0.4-1.8,0.7-3.4,0.7-3.6L111.6,39.6z"/>
	<path fill="#A12E2F" d="M96.3,198c1.5-4.8,1.1-20.9,1-21.9l0.1-0.1c-5.7,0.3-11.8-1.4-17.9-5.6l-5.1,11.7l18.8,15.7L96.3,198
		L96.3,198z"/>
	<path fill="#BA2B32" d="M137,270.7c1.8-1.5,3.4-1.5,3.4-1.5l1.7,1.4c0,0-2,0.1-3.9,1.6C137.1,272.6,136.1,271.6,137,270.7z"/>
	<path fill="#BA2B32" d="M140,273.1c1.8-1.5,3.2-1.5,3.2-1.5l1.5,1.5c0,0-1.6,0-3.5,1.5C140.2,275.1,139.1,274,140,273.1z"/>
	<path fill="#A12E2F" d="M51.1,262.6c0,0,2-0.2,4.2,1.7c1,1.3-0.9,2.6-1.7,2.1c-2.7-2.1-4.3-1.6-4.3-1.6L51.1,262.6z"/>
	<path fill="#A12E2F" d="M48.5,265.8c0,0,2-0.2,4.2,1.7c1,1.3-0.9,2.6-1.7,2.1c-2.5-2-4.2-1.6-4.2-1.6L48.5,265.8z"/>
	<g>
		<g>
			<path fill="#511718" d="M68.8,223.4C68.8,223.4,68.8,223.4,68.8,223.4l-3.4-0.7c-0.2,0-0.4-0.3-0.3-0.5c0-0.2,0.3-0.4,0.5-0.3
				l3.3,0.7c0.2,0,0.4,0.3,0.3,0.5C69.2,223.3,69,223.4,68.8,223.4z"/>
		</g>
		<g>
			<path fill="#511718" d="M68.6,225.2C68.6,225.2,68.6,225.2,68.6,225.2l-3.7-0.8c-0.2,0-0.4-0.3-0.3-0.5c0-0.2,0.3-0.4,0.5-0.3
				l3.6,0.8c0.2,0,0.4,0.3,0.3,0.5C69,225.1,68.8,225.2,68.6,225.2z"/>
		</g>
	</g>
	<g>
		<g>
			<path fill="#792323" d="M127.3,225.3C127.3,225.3,127.3,225.3,127.3,225.3l-3.4,0.7c-0.2,0-0.4-0.1-0.5-0.3
				c0-0.2,0.1-0.4,0.3-0.5l3.3-0.7c0.2,0,0.4,0.1,0.5,0.3C127.6,225,127.5,225.2,127.3,225.3z"/>
		</g>
		<g>
			<path fill="#792323" d="M127.8,227C127.7,227,127.7,227,127.8,227l-3.7,0.8c-0.2,0-0.4-0.1-0.5-0.3c0-0.2,0.1-0.4,0.3-0.5
				l3.6-0.8c0.2,0,0.4,0.1,0.5,0.3C128.1,226.7,127.9,226.9,127.8,227z"/>
		</g>
	</g>
</g>
</svg>
