<?xml version="1.0" encoding="utf-8"?>
<!-- Generator: Adobe Illustrator 16.0.0, SVG Export Plug-In . SVG Version: 6.00 Build 0)  -->
<!DOCTYPE svg PUBLIC "-//W3C//DTD SVG 1.1//EN" "http://www.w3.org/Graphics/SVG/1.1/DTD/svg11.dtd">
<svg version="1.1" id="Capa_1" xmlns="http://www.w3.org/2000/svg" xmlns:xlink="http://www.w3.org/1999/xlink" x="0px" y="0px"
	 width="307px" height="296.646px" viewBox="0 0 307 296.646" enable-background="new 0 0 307 296.646" xml:space="preserve">
<path fill="#FFFFFF" d="M158.381,0l0.599,123.104L178.229,1.612l-18.07,121.685L197.586,6.409l-36.291,117.269l54.685-109.407
	l-53.62,109.967l70.594-99.231l-69.627,99.956l84.766-86.613l-83.923,87.483l96.854-71.859l-96.15,72.858l106.551-55.34
	l-106.009,56.437L279.04,90.475l-113.257,38.627l117.905-18.648l-117.72,19.866l119.281,0.617l-119.281,0.614l117.72,19.868
	l-117.905-18.65l113.257,38.628l-113.626-37.455l106.009,56.438l-106.551-55.34l96.15,72.857l-96.854-71.858l83.923,87.482
	l-84.767-86.61l69.628,99.954l-70.594-99.23l53.62,109.966l-54.685-109.406l36.291,117.269l-37.428-116.889l18.07,121.685
	l-19.249-121.491l-0.599,123.105l-0.597-123.105l-19.25,121.491l18.069-121.685l-37.426,116.889l36.291-117.269l-54.684,109.408
	l53.62-109.966l-70.593,99.229l69.627-99.954l-84.767,86.61l83.921-87.482l-96.849,71.858l96.147-72.857L45.341,190.38
	l106.008-56.438L37.723,171.398l113.257-38.628l-117.905,18.65l117.718-19.868l-119.28-0.615l119.279-0.617L33.074,110.454
	l117.905,18.649L37.722,90.474l113.626,37.455L45.34,71.492l106.55,55.34L55.744,53.975l96.851,71.859L68.672,38.35l84.767,86.612
	L83.81,25.006l70.594,99.231l-53.62-109.967l54.682,109.406L119.178,6.409l37.427,116.888L138.536,1.612l19.249,121.492L158.381,0z"
	/>
<path d="M228.599,92.053c-1.972-4.661-4.41-9.153-7.247-13.349c-2.807-4.158-6.033-8.069-9.589-11.625
	c-3.551-3.551-7.46-6.778-11.623-9.59c-4.202-2.839-8.692-5.276-13.35-7.246c-9.694-4.099-19.984-6.177-30.588-6.177
	c-7.259,0-14.438,0.988-21.343,2.935l-0.554-0.009c-0.015,0-0.029,0-0.042,0c-0.644,0-1.26,0.253-1.718,0.701
	c-2.35,0.742-4.677,1.599-6.928,2.551c-4.655,1.969-9.147,4.407-13.35,7.246c-2.897,1.958-5.697,4.14-8.344,6.501
	c-0.034-0.017-0.068-0.034-0.101-0.051L97.987,61c-0.35-0.177-0.728-0.264-1.104-0.264c-0.557,0-1.108,0.189-1.557,0.556
	c-0.75,0.615-1.068,1.616-0.811,2.551l1.738,6.298c0.057,0.211,0.149,0.65,0.21,1.462c-1.948,2.279-3.766,4.664-5.412,7.102
	c-2.836,4.196-5.274,8.688-7.245,13.348c-4.1,9.691-6.177,19.982-6.177,30.586c0,10.605,2.077,20.896,6.177,30.586
	c1.971,4.659,4.409,9.151,7.246,13.35c2.809,4.158,6.036,8.07,9.59,11.626c0.811,0.809,1.666,1.625,2.544,2.429l0.164,0.282
	c0.315,0.545,0.825,0.941,1.417,1.12c2.401,2.081,4.921,4.017,7.499,5.759c0.401,0.27,0.824,0.549,1.278,0.841
	c0.117,3.365,0.546,4.587,0.963,5.319c1.735,3.06,6.62,4.082,8.842,4.395l0.042,0.04c-0.212,0.263-0.372,0.568-0.461,0.906
	c-0.079,0.297-0.724,2.971,1.125,5.495c0.109,0.148,0.233,0.281,0.371,0.403c1.078,0.934,2.252,1.306,3.496,1.699
	c0.625,0.197,1.269,0.401,2,0.701c0.465,0.191,0.982,0.284,1.579,0.284c3.214,0,10.463-3.367,13.217-4.704
	c1.125,0.226,3.168,0.534,5.904,0.534c5.24,0,10.649-1.071,16.076-3.188c6.906-0.92,13.663-2.764,20.089-5.482
	c4.658-1.968,9.148-4.406,13.349-7.244c4.163-2.814,8.075-6.041,11.626-9.592c3.556-3.554,6.779-7.465,9.591-11.626
	c2.837-4.195,5.273-8.688,7.245-13.348c4.1-9.691,6.177-19.981,6.177-30.586C234.777,112.035,232.698,101.745,228.599,92.053z"/>
<g>
	<path d="M226.338,93.009c-1.908-4.51-4.27-8.862-7.021-12.931c-2.721-4.03-5.848-7.819-9.29-11.263
		c-3.441-3.443-7.232-6.57-11.265-9.292c-4.069-2.75-8.42-5.111-12.931-7.02c-9.388-3.969-19.355-5.982-29.63-5.982
		c-10.275,0-20.244,2.013-29.629,5.982c-4.512,1.909-8.863,4.271-12.932,7.02c-4.029,2.722-7.819,5.849-11.263,9.292
		c-3.443,3.444-6.57,7.233-9.292,11.263c-2.75,4.069-5.112,8.42-7.02,12.931c-3.969,9.388-5.983,19.356-5.983,29.63
		c0,10.275,2.014,20.243,5.983,29.629c1.908,4.513,4.27,8.863,7.02,12.932c2.722,4.031,5.847,7.819,9.292,11.263
		c3.444,3.444,7.234,6.569,11.263,9.294c4.069,2.749,8.42,5.109,12.932,7.018c9.386,3.97,19.354,5.983,29.629,5.983
		c10.274,0,20.242-2.014,29.63-5.983c4.511-1.908,8.861-4.269,12.931-7.018c4.029-2.725,7.82-5.85,11.265-9.294
		c3.442-3.443,6.569-7.231,9.29-11.263c2.751-4.069,5.112-8.418,7.021-12.932c3.97-9.387,5.983-19.354,5.983-29.629
		C232.321,112.365,230.308,102.396,226.338,93.009z"/>
	<path fill="#8D1516" d="M211.25,104.56c0-18.954-8.771-35.858-22.473-46.879c-9.795-4.932-20.859-7.711-32.575-7.711
		c-21.497,0-40.808,9.354-54.089,24.212c-0.001,0-0.003,0.002-0.004,0.002c-0.036,0.042-0.072,0.082-0.108,0.123
		c-0.157,0.178-0.315,0.357-0.471,0.537c-0.109,0.125-0.217,0.247-0.326,0.373c-0.176,0.205-0.35,0.411-0.524,0.618
		c-0.085,0.102-0.171,0.2-0.255,0.302c-0.252,0.303-0.501,0.607-0.749,0.915c-0.087,0.109-0.172,0.219-0.259,0.327
		c-0.164,0.206-0.328,0.41-0.489,0.619c-0.105,0.135-0.208,0.271-0.312,0.406c-0.141,0.183-0.281,0.368-0.421,0.552
		c-0.109,0.144-0.216,0.29-0.323,0.435c-0.132,0.179-0.265,0.357-0.395,0.537c-0.109,0.149-0.216,0.299-0.324,0.449
		c-0.126,0.178-0.253,0.357-0.379,0.537c-0.107,0.152-0.213,0.303-0.318,0.456c-0.124,0.181-0.249,0.364-0.372,0.546
		c-0.103,0.153-0.206,0.304-0.307,0.457c-0.125,0.188-0.25,0.376-0.372,0.565c-0.098,0.149-0.195,0.298-0.291,0.447
		c-0.131,0.205-0.26,0.411-0.39,0.616c-0.085,0.135-0.171,0.271-0.256,0.408c-0.009,0.015-0.019,0.03-0.03,0.047
		c0,0.001,0,0.002,0,0.003c-4.886,7.915-8.291,16.838-9.834,26.387c1.742,6.836,5.707,12.785,11.081,17.028
		c0.441,1.05,0.913,2.082,1.411,3.099c-3.33,7.204-5.188,15.228-5.188,23.686c0,0.494,0.006,0.986,0.018,1.476
		c12.125,23.122,36.358,38.897,64.277,38.897c15.587,0,30.026-4.919,41.851-13.286c4.4-8.043,6.901-17.271,6.901-27.087
		c0-6.315-1.034-12.387-2.947-18.055C207.861,127.327,211.25,116.339,211.25,104.56z"/>
	<path fill="#ED1C24" d="M102.113,74.182c-0.002,0-0.003,0.002-0.004,0.002c-0.037,0.042-0.072,0.082-0.108,0.123
		c-0.157,0.178-0.315,0.357-0.471,0.537c-0.108,0.125-0.217,0.247-0.326,0.373c-0.176,0.205-0.35,0.411-0.524,0.618
		c-0.084,0.102-0.17,0.2-0.254,0.302c-0.252,0.303-0.502,0.607-0.749,0.915c-0.088,0.109-0.173,0.219-0.259,0.327
		c-0.164,0.206-0.327,0.41-0.489,0.619c-0.105,0.135-0.208,0.271-0.312,0.406c-0.141,0.183-0.281,0.368-0.42,0.552
		c-0.109,0.144-0.217,0.29-0.325,0.435c-0.131,0.179-0.263,0.357-0.394,0.537c-0.109,0.149-0.216,0.299-0.324,0.449
		c-0.128,0.178-0.253,0.357-0.379,0.537c-0.108,0.152-0.213,0.303-0.318,0.456c-0.124,0.181-0.25,0.364-0.373,0.546
		c-0.103,0.153-0.206,0.304-0.307,0.457c-0.125,0.188-0.25,0.376-0.373,0.565c-0.096,0.149-0.194,0.298-0.29,0.447
		c-0.131,0.205-0.261,0.411-0.389,0.616c-0.085,0.135-0.171,0.271-0.257,0.408c-0.01,0.015-0.019,0.03-0.029,0.047
		c0,0.001,0,0.002,0,0.003c-4.886,7.915-8.292,16.838-9.835,26.387c-4.924,27.83,8.723,48.961,12.721,54.021
		c-4-18.944-5.425-30.532-1.931-43.708c-4.146-34.225,18.74-53.527,35.284-62.707c15.731-8.729,34.422-7.941,34.422-7.941
		C132.451,45.539,109.364,66.069,102.113,74.182z"/>
	<path d="M207.673,132.98c-2.556-4.857-5.352-9.115-8.312-12.659c-2.806-3.359-5.831-6.164-8.993-8.337
		c-5.706-3.921-11.991-5.908-18.688-5.908c-6.295,0-12.963,1.758-19.828,5.229c0.985-1.577,1.952-3.171,2.911-4.753
		c3.183-5.25,6.476-10.679,10.028-14.699c3.726-4.218,7.233-6.379,11.04-6.802l2.604-0.29l-0.028-2.619
		c-0.038-3.985,2.466-9.145,7.664-15.777l5.253-6.703l-8.251,2.108c-5.82,1.488-10.76,3.52-15.1,6.213
		c-3.922,2.434-7.247,5.346-10.174,8.907c-5.344,6.502-8.426,14.148-11.408,21.542c-1.789,4.433-3.637,9.017-5.947,13.271
		c-1.304,2.402-2.692,4.573-4.188,6.543c-0.082-5.81,0.342-11.459,1.266-16.9h4.148h2.03l0.694-1.91
		c0.536-1.477,1.124-2.975,1.747-4.455l1.583-3.755l-4.067-0.261l-3.618-0.233c0.394-1.276,0.82-2.536,1.274-3.782h0.285h6.141
		h1.772l0.808-1.577c0.977-1.906,2.029-3.822,3.128-5.695l2.382-4.056l-4.694-0.302l-4.307-0.277
		c0.254-0.444,0.511-0.884,0.773-1.321c0.358-0.598,0.718-1.177,1.077-1.74l0.547,0.049l6.257,0.567l1.702,0.155l0.959-1.415
		c2.807-4.138,4.863-6.573,4.886-6.599l3.115-3.671l-4.702-1.035c-0.049-0.011-0.87-0.188-2.689-0.454
		c1.672-1.592,2.741-2.393,2.756-2.403l5.408-3.992l-6.62-1.189c-0.524-0.094-12.99-2.32-24.679-2.53l-1.354-0.023l-0.887,1.024
		c-1.878,2.167-3.582,4.46-5.111,6.872l-0.342-0.012c-2.167-0.077-4.42-0.144-6.696-0.202l-1.766-0.046l-0.849,1.55
		c-1.146,2.09-2.144,4.365-2.965,6.761l-1.189,3.468l3.649,0.356l4.25,0.414c-0.428,1.232-0.821,2.485-1.176,3.76l-5.212-0.336
		l-2.596-0.167l-0.446,2.562c-0.264,1.51-0.475,3.081-0.633,4.682c-0.207-0.588-0.416-1.167-0.632-1.731
		c-2.511-6.562-5.353-10.46-8.944-12.271l-5.834-2.94l1.736,6.299c0.799,2.896,0.125,10.582-0.486,14.746l-0.235,1.593l1.229,1.041
		c0.042,0.034,4.609,3.976,6.914,9.561c1.046,2.535,1.891,5.353,2.708,8.08c1.041,3.472,2.1,7.005,3.627,10.211
		c-1.521-0.262-3.172-0.43-4.91-0.43c-5.387,0-10.148,1.614-14.152,4.801c-4.936,3.925-8.584,10.193-10.845,18.629l-0.351,1.312
		l0.785,1.11c7.184,10.158,15.15,15.308,23.679,15.308c3.494,0,7.039-0.885,10.557-2.625c-0.035,0.165-0.063,0.33-0.085,0.497
		c-3.431,1.276-6.313,2.958-8.592,5.013c-2.288,2.065-3.968,4.497-4.989,7.231c-1.724,4.61-0.976,8.438-0.884,8.86l0.097,0.445
		l0.229,0.397l1.832,3.155l0.727,1.256l1.444,0.167l77.913,9.064l1.276,0.149l0.966-0.847l4.396-3.846l0.777-0.681l0.17-1.021
		c0.086-0.497,1.955-12.283-5.853-21.507c-1.595-1.884-3.486-3.524-5.65-4.908c2.908-0.803,5.752-1.973,8.509-3.506
		c6.421-3.577,12.483-9.192,18.017-16.696l1.083-1.463L207.673,132.98z M119.539,106.914c-0.638-2.198-1.241-4.521-1.846-6.938
		l1.104,0.061C118.971,102.442,119.228,104.745,119.539,106.914z M114.855,84.489l4.162,0.309c-0.159,1.478-0.276,2.974-0.352,4.49
		l-2.907-0.186l-0.799-0.053c-0.417-1.576-0.845-3.132-1.295-4.647L114.855,84.489z"/>
	<path fill="#D9DADB" d="M136.916,140.623c10.528,0.916,13.55,10.437,13.55,10.437s3.021,0.652,2.929,2.839
		c41.384-2.839,36.164,28.289,36.164,28.289l-5.771,6.873l-76.537-12.093l-1.831-3.153c0,0-2.838-13.142,14.648-18.454
		c-1.007-3.663,2.655-4.76,2.655-4.76S126.112,140.53,136.916,140.623z"/>
	<path fill="#B89656" d="M144.056,156.961c50.17-6.032,40.282,30.451,39.733,32.1c-3.27,1.242-10.438,4.206-16.938,4.206
		c-21.932,6.882-41.219,9.077-44.924-6.483c-8.214-2.656-14.002-9.735-14.002-9.735S105.165,153.574,144.056,156.961z"/>
	<path fill="#31738B" d="M121.581,158.815c-0.077,1.946,1.417,2.811,4.061,3.045c9.942,6.608,20.601,0.607,20.601,0.607
		s4.569,0.366,5.075-4.224C151.698,154.78,120.879,154.05,121.581,158.815z"/>
	<path fill="#31738B" d="M177.283,173.92c0.191,11.382-2.105,17.896-2.105,17.896l-3.229,0.937
		C171.949,192.753,174.997,172.018,177.283,173.92z"/>
	<path d="M169.906,157.941c-6.863-3.105-31.696-1.381-31.696-1.381s-10.829,3.746-18.299,6.771c-2.08,1.378-4.901,8.169-4.901,8.169
		l1.634,2.45c0,0-1.519,16.111,0,18.789c1.518,2.679,7.842,3.268,7.842,3.268l3.268,3.268l-2.451,0.652c0,0-0.472,1.762,0.734,3.407
		c1.103,0.957,2.597,1.07,4.82,1.985c2.224,0.915,13.562-4.738,13.562-4.738s11.265,3.303,26.631-4.737
		c1.355-1.449,6.425-24.735,6.425-24.735v-4.659C177.475,166.451,173.812,163.695,169.906,157.941z M169.415,168.724
		c0,0-2.6,16.476-3.266,17.808c-0.668,1.333-11.17,3.464-11.601,3.268c-0.431-0.194-1.797-0.816-1.797-0.816l-2.125-3.269
		c0,0,4.966-4.625,3.594-8.495c-8.149,0.941-14.81-1.229-14.869,0.817c-0.058,2.046,3.268,5.228,3.268,5.228l-2.122,3.431v1.307
		l-1.146,2.451c0,0-7.655,0.484-9.213,0c-1.556-0.482-5.164-4.41-5.164-4.41s-2.111-4.334-1.587-6.468
		c0.526-2.136,1.824-7.055,1.587-8.4c-0.238-1.347-3.899-0.522-2.801-1.529c2.105-2.93,15.218-9.418,15.218-9.418l11.436-3.267
		l5.066,2.614l14.54,2.94l-1.47,0.818l4.084,5.392H169.415z"/>
	<path fill="#31738B" d="M130.778,173.417c-0.995,1.227,1.283,1.141,1.283,1.141s15.826,3.433,27.468-4.82
		c0.537-1.085-3.549,1.495-8.504,2.062C143.057,172.708,131.392,172.661,130.778,173.417z"/>
	<path d="M159.529,165.342c0,0,3.754,3.662,2.929,7.234c-1.006-1.283-1.628-0.656-2.929-2.84c-1.562,2.019-8.036,3.014-13.021,3.39
		c-8.13,0.615-15.506-0.213-14.994,0.58c0.822,1.281,1.921,2.988,1.921,2.988l-4.577,8.605l2.655-8.79l-2.655-4.211
		c0,0,27.34,0.251,30.577-4.21C161.195,167.447,159.529,165.342,159.529,165.342z"/>
	<path fill="#D9DADB" d="M135.564,52.367c11.59,0.208,24.215,2.483,24.215,2.483s-30.011,22.147-26.079,70.58
		c20.765-19.581,12.833-51.33,50.088-60.851c-6.997,8.932-8.313,14.129-8.278,17.594c-16.248,1.808-23.424,29.13-36.428,40.981
		c6.658-4.92,41.707-35.033,66.025,11.177c-33.738,45.74-72.648,0-72.648,0s-23.182,38.083-47.191,4.139
		c8.487-31.668,33.794-18.784,34.772-18.214c-6.749-5.485-7.714-16.193-11.321-24.934c-2.621-6.352-7.721-10.666-7.721-10.666
		s1.672-11.372,0.414-15.938c8.652,4.36,11.312,26.029,15.872,40.771c3.058,9.889,9.586,15.319,9.586,15.319
		S110.106,81.757,135.564,52.367z"/>
	<path fill="#B89656" d="M197.656,133.087c-29.274,41.966-60.229,0-60.229,0S172.199,87.76,197.656,133.087z"/>
	<path fill="#B89656" d="M128.859,132.341c-20.409,36.346-40.279,4.68-40.279,4.68S97.847,103.898,128.859,132.341z"/>
	<path fill="#31738B" d="M164.194,116.027c-15.833,4.934-5.448,15.602-5.448,15.602s1.273,0.811-4.199,0.71
		c-8.482-0.099-14.132,4.066-14.132,4.066l-2.987-3.319C137.427,133.087,152.45,114.934,164.194,116.027z"/>
	<path fill="#31738B" d="M151.317,132.814c0,0,0.751,13.581,16.224,14.016c14.211,0.398-10.486-15.266-10.486-15.266
		L151.317,132.814z"/>
	<path fill="#E6E6E6" d="M185.667,132.341c0,8.002-7.072,14.489-15.795,14.489c-8.724,0-15.794-6.488-15.794-14.489
		c0-2.199,0.534-4.283,1.489-6.147C158.087,121.264,185.667,124.338,185.667,132.341z"/>
	<path d="M205.538,151.462c6.248,1.1,0.191,22.059-4.069,20.084C197.208,169.574,199.291,150.361,205.538,151.462z"/>
	<path fill="#B89656" d="M214.535,162.437c-0.987,7.907-10.979,5.509-10.979,5.509s-3.432-6.118,1.638-13.118
		C207.346,154.747,215.524,154.531,214.535,162.437z"/>
	<path d="M163.723,94.201c-6.569,2.833-3.957,7.261-2.834,8.5c3.09,1.804,12.622-1.03,19.708-0.772
		c7.081,0.258,15.427,4.471,15.427,4.471s-1.648-4.674-8.088-8.335C182.008,94.697,171.621,92.226,163.723,94.201z"/>
	<g>
		<path fill="#D9DADB" d="M155.741,69.712c2.945-4.343,5.075-6.847,5.075-6.847s-1.632-0.358-5.719-0.833
			c-2.087,2.336-3.936,4.718-5.613,7.112L155.741,69.712z"/>
		<path fill="#D9DADB" d="M141.597,84.052h6.141c1.068-2.084,2.15-4.037,3.208-5.84l-6.346-0.408
			C143.516,79.749,142.465,82.14,141.597,84.052z"/>
		<path fill="#D9DADB" d="M137.886,93.498c-0.542,1.592-0.855,3.438-1.273,4.949h5.057c0.57-1.57,1.173-3.102,1.8-4.59
			L137.886,93.498z"/>
	</g>
	<g>
		<path fill="#D9DADB" d="M120.294,92.297l-4.722-0.304c0.038,1.702,0.128,3.366,0.254,4.977l4.31,0.24
			C120.13,95.629,120.2,93.989,120.294,92.297z"/>
		<path fill="#D9DADB" d="M115.78,75.947c-0.328,1.882-0.559,3.772-0.712,5.652l5.413,0.402c0.327-1.844,0.695-3.745,1.225-5.673
			L115.78,75.947z"/>
		<path fill="#D9DADB" d="M124.382,66.918c0.882-2.262,2.348-4.508,3.438-6.69c-2.101-0.075-4.321-0.143-6.668-0.202
			c-1.109,2.021-2.02,4.137-2.765,6.307L124.382,66.918z"/>
	</g>
	<g>
		<g>
			<g>
				<path fill="#4D4D4D" d="M155.128,68.41l-0.24-0.021l0.025-0.274l0.079,0.006c0.27-0.393,0.543-0.783,0.811-1.162l0.226,0.159
					c-0.282,0.399-0.571,0.812-0.855,1.225L155.128,68.41z M153.237,68.238l-1.475-0.134l0.147-0.198
					c0.084-0.112,0.168-0.225,0.252-0.336l0.22,0.165c-0.034,0.046-0.069,0.092-0.103,0.14l0.984,0.089L153.237,68.238z
					 M153.391,66.427l-0.217-0.171c0.342-0.434,0.694-0.87,1.041-1.291l0.213,0.176C154.082,65.56,153.732,65.993,153.391,66.427z
					 M156.995,65.775l-0.225-0.164c0.33-0.449,0.663-0.896,0.991-1.33l0.219,0.166C157.655,64.88,157.323,65.328,156.995,65.775z
					 M155.496,63.878l-0.209-0.18c0.088-0.101,0.174-0.201,0.261-0.301l0.104,0.092l0.017-0.137c0.573,0.069,1.127,0.14,1.646,0.21
					l-0.038,0.274c-0.495-0.067-1.022-0.135-1.567-0.201C155.636,63.715,155.565,63.796,155.496,63.878z"/>
			</g>
		</g>
		<g>
			<g>
				<path fill="#4D4D4D" d="M146.981,82.81h-1.437v-0.275h1.271l0.102-0.195l0.244,0.128L146.981,82.81z M143.89,82.81h-0.368
					l0.089-0.195c0.234-0.512,0.44-0.959,0.632-1.365l0.25,0.117c-0.184,0.39-0.381,0.816-0.604,1.304V82.81z M147.94,81.008
					l-0.243-0.131c0.264-0.485,0.533-0.973,0.801-1.452l0.241,0.135C148.471,80.038,148.203,80.524,147.94,81.008z M145.218,79.882
					l-0.247-0.125c0.1-0.198,0.2-0.393,0.301-0.584l0.123,0.063l0.009-0.138l1.653,0.106l-0.018,0.275l-1.563-0.101
					C145.389,79.546,145.303,79.712,145.218,79.882z"/>
			</g>
		</g>
		<g>
			<g>
				<path fill="#4D4D4D" d="M140.803,97.206h-0.383v-0.276h0.193c0.149-0.396,0.302-0.797,0.456-1.189l0.257,0.101
					c-0.165,0.421-0.329,0.85-0.488,1.275L140.803,97.206z M138.762,97.206h-0.563l0.082-0.354c0.081-0.347,0.161-0.7,0.246-1.05
					l0.269,0.065c-0.085,0.348-0.166,0.699-0.245,1.047l-0.004,0.015h0.216V97.206z M140.532,95.189l-1.652-0.106l0.018-0.276
					l1.651,0.107L140.532,95.189z"/>
			</g>
		</g>
	</g>
	<g>
		<g>
			<g>
				<path fill="#4D4D4D" d="M118.905,95.897l-1.093-0.06l0.015-0.276l0.807,0.045c0.004-0.19,0.01-0.377,0.015-0.563l0.276,0.008
					c-0.008,0.232-0.013,0.467-0.018,0.704L118.905,95.897z M116.92,94.719c-0.022-0.417-0.043-0.833-0.058-1.246l0.137-0.005
					l0.01-0.138l1.651,0.106l-0.017,0.275l-1.499-0.097c0.015,0.363,0.033,0.726,0.052,1.09L116.92,94.719z"/>
			</g>
		</g>
		<g>
			<g>
				<path fill="#4D4D4D" d="M118.736,80.626l-1.651-0.122l0.021-0.275l1.65,0.123L118.736,80.626z M119.682,79.525l-0.271-0.055
					c0.116-0.573,0.23-1.104,0.349-1.623l0.269,0.061C119.911,78.426,119.797,78.954,119.682,79.525z M116.834,79.221l-0.274-0.032
					c0.066-0.553,0.141-1.106,0.222-1.645l0.272,0.041C116.975,78.12,116.901,78.671,116.834,79.221z M118.584,77.649l-1.651-0.105
					l0.019-0.276l1.653,0.106L118.584,77.649z"/>
			</g>
		</g>
		<g>
			<g>
				<path fill="#4D4D4D" d="M123.591,65.594l-0.36-0.035l0.026-0.275l0.165,0.017c0.168-0.37,0.355-0.753,0.568-1.169l0.244,0.126
					c-0.228,0.447-0.424,0.853-0.603,1.247L123.591,65.594z M121.583,65.397l-1.481-0.144l0.066-0.171
					c0.043-0.109,0.085-0.217,0.129-0.327l0.255,0.104c-0.02,0.05-0.041,0.102-0.062,0.153l1.118,0.11L121.583,65.397z
					 M121.197,63.34l-0.251-0.114c0.229-0.507,0.469-1.012,0.714-1.5l0.247,0.124C121.663,62.334,121.424,62.836,121.197,63.34z
					 M125.015,62.799l-0.242-0.132c0.141-0.256,0.282-0.511,0.423-0.765l0.134-0.24l-0.057-0.002l0.009-0.276l0.507,0.015
					l-0.352,0.637C125.297,62.29,125.155,62.544,125.015,62.799z M123.619,61.611c-0.548-0.016-1.101-0.032-1.654-0.045l0.007-0.277
					c0.554,0.015,1.106,0.031,1.655,0.046L123.619,61.611z"/>
			</g>
		</g>
	</g>
	<path fill="#31738B" d="M105.251,122.639c1.162,2.462-4.083,11.662-4.083,11.662l-9.857,6.114l-2.73-3.394
		C88.581,137.02,92.773,123.213,105.251,122.639z"/>
	<path fill="#31738B" d="M93.81,138.263c2.19,11.397,14.074,9.859,14.074,9.859l11.445-12.816
		C119.329,135.306,92.031,138.164,93.81,138.263z"/>
	<path fill="#E6E6E6" d="M120.13,135.611c0,6.913-5.603,12.516-12.515,12.516c-6.911,0-12.513-5.603-12.513-12.516
		c0-3.456,1.4-6.584,3.665-8.849C101.031,124.499,120.13,134.748,120.13,135.611z"/>
	<path d="M178.78,135.133c-2.045,0-3.703-1.657-3.703-3.703c0-1.41,0.788-2.636,1.949-3.26c-0.844-0.38-1.777-0.593-2.761-0.593
		c-3.714,0-6.723,3.009-6.723,6.722c0,3.715,3.009,6.725,6.723,6.725c3.678,0,6.664-2.954,6.721-6.619
		C180.37,134.861,179.607,135.133,178.78,135.133z"/>
	<path fill="#31738B" d="M178.78,135.133c-2.045,0-3.703-1.657-3.703-3.703c0-0.656,0.172-1.271,0.471-1.805
		c-0.079-0.005-0.158-0.007-0.238-0.007c-2.248,0-4.073,1.822-4.073,4.07c0,2.248,1.825,4.07,4.073,4.07
		c1.744,0,3.232-1.099,3.811-2.642C179.008,135.127,178.896,135.133,178.78,135.133z"/>
	<circle cx="174.266" cy="134.3" r="3.458"/>
	<path d="M115.728,137.852c-2.045,0-3.703-1.656-3.703-3.703c0-1.408,0.788-2.634,1.947-3.26c-0.844-0.38-1.776-0.594-2.759-0.594
		c-3.713,0-6.724,3.011-6.724,6.725c0,3.713,3.011,6.723,6.724,6.723c3.677,0,6.664-2.954,6.72-6.619
		C117.317,137.583,116.553,137.852,115.728,137.852z"/>
	<path fill="#31738B" d="M115.728,137.852c-2.045,0-3.703-1.656-3.703-3.703c0-0.656,0.171-1.271,0.471-1.805
		c-0.081-0.005-0.16-0.008-0.241-0.008c-2.249,0-4.071,1.821-4.071,4.07c0,2.248,1.822,4.07,4.071,4.07
		c1.745,0,3.233-1.099,3.812-2.641C115.955,137.847,115.841,137.852,115.728,137.852z"/>
	<circle cx="111.211" cy="137.02" r="3.457"/>
	<path d="M155.671,122.07c-2.282,1.748-2.504,4.87-2.504,4.87s-2.672,0.697-3.069,2.482c-0.274,1.229-0.062,4.196,4.022,3.964
		c20.393-2.328,32.945,0.72,32.945,0.72S157.349,120.784,155.671,122.07z"/>
	<path fill="#B89656" d="M157.918,119.22c-3.312,3.105-3.899,7.088-3.899,8.745c-3.416,0.225-2.805,4.22,0.413,3.577
		c1.657-0.061,3.863-1.289,18.675-0.553c8.649,0.276,14.353,3.312,14.353,3.312s0.734-7.727-5.89-11.5
		C173.354,117.814,160.207,117.073,157.918,119.22z"/>
	<path fill="#B0B4B7" d="M182.169,119.29c4.83,5.673,4.896,14.817,4.896,14.817s-3.826-1.911-7.945-2.46
		C180.282,130.391,183.319,125.607,182.169,119.29z"/>
	<path d="M94.36,128.735c-1.057,0.989-1.531,2.799-1.816,4.577c-2.336,0.58-2.691,7.175,3.38,5.106
		c8.259-2.344,26.045-3.24,26.045-3.24S96.63,127.919,94.36,128.735z"/>
	<path d="M137.736,144.092c4.826,2.124,6.107,6.523,9.039,9.895c1.89,2.173,4.149,0.002,4.149,0.002s1.802,2.029,0.883,3.922
		c-0.55,1.137-1.928,3.205-5.565,2.792c-2.882,1.289-13.198,5.934-21.038-1.359c-8.052,0.576-7.2-8.024-1.23-7.977
		C124.373,150.964,127.248,142.833,137.736,144.092z"/>
	<path fill="#B89656" d="M125.934,152.611c1.099-6.868,8.613-9.601,14.278-8.134c5.665,1.465,7.507,7.864,7.507,7.864
		s2.289-0.458,3.204,1.648c0.596,2.151-1.518,4.787-4.414,4.853c-11.333,5.858-20.672-1.19-20.672-1.19s-2.078,0.275-3.204-0.691
		c-0.927-0.797-0.966-2.197,0.036-3.359C123.264,152.911,124.651,152.245,125.934,152.611z"/>
	<path d="M137.427,133.087c38.083-39.739,60.229,0,60.229,0S176.338,87.967,137.427,133.087z"/>
	<path d="M128.859,132.341c-29.715-24.811-40.279,4.68-40.279,4.68S98.155,103.961,128.859,132.341z"/>
	<path fill="#FFFFFF" d="M146.775,53.08l-11.211-0.714c0,0-25.491,21.23-8.693,72.442C117.037,77.08,146.775,53.08,146.775,53.08z"
		/>
	<path fill="#FFFFFF" d="M183.789,64.579c-22.352,11.798-37.875,55.022-50.088,60.851
		C155.695,105.016,146.121,73.893,183.789,64.579z"/>
	<path d="M197.656,133.087c-9.527,13.449-18.993,18.481-27.786,18.652c-18.09,0.354-32.444-18.652-32.444-18.652
		s13.752,18.315,32.444,17.267C178.399,149.876,187.735,144.696,197.656,133.087z"/>
	<path d="M88.581,137.02c1.667,2.565,3.702,4.701,5.496,6.423c19.951,19.164,34.783-11.102,34.783-11.102
		S111.066,166.195,88.581,137.02z"/>
	<path fill="#B0B4B7" d="M164.194,116.027c-10.405,2.358-10.174,11.937-10.174,11.937c-2.802-0.093-4,4.609,1.702,3.403
		c-1.382-1.574,0.39-3.791,0.39-3.791S156.676,121.29,164.194,116.027z"/>
	<path fill="#31738B" d="M121.97,154.981c2.271-0.564,3.763,1.979,3.763,1.979l-0.091-2.674l-1.348-1.654
		C124.294,152.632,122.227,153.11,121.97,154.981z"/>
	<path d="M126.112,151.739c0,0-0.264,0.893-0.39,2.547c-1.221-0.381-1.428-1.655-1.428-1.655L126.112,151.739z"/>
	<path fill="#B0B4B7" d="M137.427,144.097c-7.206,2.079-8.568,10.942-8.568,11.986c2.49,2.771,0,3.26,0,3.26l-3.021-1.691
		C125.836,157.652,123.18,145.016,137.427,144.097z"/>
	<path fill="#B89656" d="M97.355,123.818c-4.009,3.963-3.637,8.86-3.456,10.482c-2.545,0.013-2,3.283,0,3.101
		c17.444-3.814,29.206-2.095,29.206-2.095S119.597,118.055,97.355,123.818z"/>
	<path fill="#B0B4B7" d="M97.355,123.818c-2.17,5.104-1.219,10.289-1.219,10.289s-1.108,2.794,1.697,2.508
		c0.758-0.136-2.735,0.56-3.933,0.787c-2.851-0.681-1.75-3.146,0-3.101C93.824,133.438,92.868,128.115,97.355,123.818z"/>
	<path fill="#FFFFFF" d="M107.754,76.573c-1.208,14.319,8.372,37.937,12.288,43.682c-10.785-9.383-6.36-24.435-19.042-35.6
		c1.836-11.602,0.414-15.938,0.414-15.938S104.254,69.675,107.754,76.573z"/>
	<path fill="#FFFFFF" d="M95.805,120.835c-6.227,9.51-8.587,20.236-8.587,20.236l-1.949-2.602
		C85.269,138.469,87.784,126.757,95.805,120.835z"/>
	<g>
		<g>
			<path fill="#4D4D4D" d="M171.279,153.486c-0.552,0-1.111-0.015-1.664-0.043l0.021-0.413c0.546,0.027,1.1,0.041,1.644,0.041
				V153.486z M171.711,153.484l-0.006-0.416c0.546-0.008,1.097-0.028,1.642-0.063l0.026,0.413
				C172.822,153.453,172.264,153.476,171.711,153.484z M167.953,153.32c-0.546-0.054-1.101-0.123-1.652-0.202l0.06-0.409
				c0.545,0.078,1.094,0.146,1.634,0.199L167.953,153.32z M175.03,153.269l-0.049-0.412c0.543-0.062,1.092-0.141,1.628-0.234
				l0.07,0.41C176.137,153.124,175.581,153.205,175.03,153.269z M164.66,152.839c-0.538-0.103-1.086-0.222-1.628-0.35l0.098-0.403
				c0.533,0.128,1.076,0.244,1.609,0.346L164.66,152.839z M178.313,152.708l-0.091-0.404c0.533-0.12,1.069-0.255,1.596-0.403
				l0.112,0.399C179.396,152.451,178.854,152.587,178.313,152.708z M161.422,152.072c-0.525-0.147-1.062-0.31-1.591-0.481
				l0.127-0.394c0.523,0.17,1.054,0.328,1.577,0.477L161.422,152.072z M181.524,151.81l-0.132-0.393
				c0.516-0.172,1.035-0.362,1.546-0.561l0.151,0.385C182.572,151.443,182.046,151.635,181.524,151.81z M106.229,151.375
				c-0.555-0.013-1.116-0.052-1.67-0.121l0.051-0.41c0.54,0.065,1.088,0.105,1.629,0.117L106.229,151.375z M107.905,151.326
				l-0.032-0.413c0.537-0.041,1.083-0.111,1.624-0.205l0.07,0.409C109.015,151.213,108.455,151.284,107.905,151.326z
				 M158.26,151.049c-0.515-0.189-1.035-0.39-1.551-0.6l0.155-0.384c0.513,0.208,1.029,0.407,1.538,0.594L158.26,151.049z
				 M102.908,150.969c-0.537-0.12-1.08-0.269-1.612-0.444l0.127-0.393c0.522,0.17,1.053,0.316,1.576,0.434L102.908,150.969z
				 M111.201,150.755l-0.105-0.4c0.518-0.139,1.044-0.302,1.565-0.486l0.139,0.389C112.268,150.447,111.73,150.614,111.201,150.755z
				 M184.624,150.596l-0.169-0.377c0.493-0.221,0.993-0.46,1.487-0.709l0.185,0.37C185.629,150.131,185.124,150.373,184.624,150.596
				z M99.729,149.937c-0.502-0.215-1.01-0.458-1.508-0.72l0.192-0.366c0.488,0.258,0.985,0.494,1.479,0.703L99.729,149.937z
				 M155.18,149.799c-0.498-0.223-1.005-0.46-1.508-0.703l0.181-0.373c0.497,0.242,1.001,0.476,1.494,0.696L155.18,149.799z
				 M114.35,149.64l-0.167-0.377c0.489-0.217,0.987-0.456,1.478-0.715l0.192,0.368C115.354,149.177,114.847,149.421,114.35,149.64z
				 M187.596,149.095l-0.204-0.361c0.472-0.266,0.951-0.546,1.418-0.838l0.217,0.353
				C188.555,148.541,188.073,148.827,187.596,149.095z M96.773,148.386c-0.462-0.288-0.929-0.6-1.387-0.929l0.241-0.337
				c0.451,0.325,0.91,0.632,1.364,0.914L96.773,148.386z M152.189,148.346c-0.487-0.254-0.977-0.521-1.461-0.792l0.204-0.361
				c0.479,0.269,0.968,0.535,1.448,0.788L152.189,148.346z M117.307,148.097l-0.213-0.355c0.459-0.277,0.925-0.575,1.385-0.886
				l0.232,0.342C118.246,147.514,117.773,147.816,117.307,148.097z M190.422,147.341L190.19,147
				c0.447-0.304,0.899-0.623,1.346-0.951l0.244,0.334C191.332,146.713,190.876,147.036,190.422,147.341z M149.292,146.72
				c-0.471-0.279-0.947-0.574-1.415-0.871l0.222-0.35c0.466,0.296,0.938,0.588,1.405,0.866L149.292,146.72z M94.062,146.443
				c-0.42-0.342-0.847-0.706-1.265-1.083l0.276-0.307c0.413,0.373,0.833,0.732,1.249,1.068L94.062,146.443z M120.066,146.229
				l-0.248-0.331c0.43-0.324,0.866-0.667,1.293-1.02l0.263,0.32C120.941,145.554,120.501,145.902,120.066,146.229z M193.104,145.373
				l-0.259-0.324c0.426-0.338,0.854-0.69,1.273-1.047l0.27,0.315C193.964,144.679,193.53,145.034,193.104,145.373z M146.486,144.94
				c-0.449-0.302-0.909-0.62-1.367-0.941l0.239-0.339c0.456,0.321,0.912,0.637,1.359,0.938L146.486,144.94z M91.587,144.215
				c-0.384-0.383-0.774-0.783-1.158-1.197l0.305-0.281c0.379,0.408,0.765,0.806,1.145,1.183L91.587,144.215z M122.636,144.115
				l-0.276-0.31c0.401-0.357,0.808-0.735,1.207-1.12l0.288,0.297C123.452,143.372,123.042,143.752,122.636,144.115z M195.636,143.22
				l-0.278-0.307c0.401-0.364,0.806-0.744,1.203-1.126l0.288,0.297C196.448,142.469,196.04,142.851,195.636,143.22z
				 M143.775,143.022c-0.438-0.324-0.882-0.664-1.322-1.006l0.255-0.328c0.436,0.341,0.877,0.677,1.314,1.002L143.775,143.022z
				 M125.034,141.808l-0.298-0.288c0.376-0.389,0.756-0.794,1.127-1.203l0.307,0.277
				C125.795,141.007,125.413,141.415,125.034,141.808z M89.323,141.776c-0.354-0.411-0.711-0.842-1.061-1.278l0.322-0.26
				c0.349,0.435,0.703,0.861,1.053,1.269L89.323,141.776z M141.156,140.979c-0.422-0.346-0.85-0.704-1.274-1.066l0.269-0.315
				c0.422,0.36,0.847,0.716,1.268,1.06L141.156,140.979z M198.024,140.91l-0.295-0.29c0.379-0.388,0.76-0.79,1.135-1.195
				l0.306,0.282C198.793,140.114,198.406,140.519,198.024,140.91z M127.268,139.345l-0.315-0.27
				c0.354-0.415,0.708-0.843,1.052-1.271l0.322,0.259C127.981,138.494,127.625,138.925,127.268,139.345z M87.242,139.184
				c-0.209-0.278-0.423-0.569-0.636-0.862l-0.059-0.081l0.028-0.097c0.053-0.191,0.106-0.379,0.162-0.566l0.398,0.116
				c-0.046,0.155-0.089,0.31-0.134,0.465c0.192,0.265,0.384,0.526,0.573,0.777L87.242,139.184z M138.631,138.82
				c-0.413-0.369-0.826-0.747-1.226-1.122l0.283-0.301c0.398,0.372,0.808,0.747,1.22,1.114L138.631,138.82z M200.28,138.473
				l-0.312-0.273c0.359-0.409,0.719-0.831,1.074-1.253l0.316,0.264C201.005,137.636,200.643,138.061,200.28,138.473z
				 M129.348,136.75l-0.331-0.25c0.334-0.444,0.664-0.894,0.973-1.333l0.338,0.239C130.016,135.851,129.685,136.303,129.348,136.75z
				 M136.204,136.552c-0.401-0.394-0.797-0.789-1.175-1.177l0.297-0.289c0.375,0.385,0.768,0.779,1.167,1.17L136.204,136.552z
				 M87.623,136.118l-0.393-0.128c0.173-0.531,0.357-1.06,0.546-1.571l0.388,0.144C87.979,135.068,87.795,135.591,87.623,136.118z
				 M202.41,135.924l-0.326-0.259c0.341-0.422,0.681-0.861,1.015-1.302l0.33,0.25C203.092,135.057,202.749,135.498,202.41,135.924z
				 M133.886,134.167c-0.354-0.385-0.533-0.596-0.534-0.597l-0.56-0.657l0.315-0.268l0.561,0.657
				c0.001,0.002,0.179,0.209,0.523,0.586L133.886,134.167z M131.262,134.026l-0.346-0.224c0.12-0.188,0.184-0.292,0.188-0.298
				l0.675-1.109l0.354,0.215l-0.675,1.109C131.453,133.726,131.387,133.834,131.262,134.026z M202.674,133.166
				c-0.271-0.482-0.547-0.965-0.823-1.434l0.357-0.209c0.276,0.471,0.554,0.957,0.823,1.44L202.674,133.166z M88.766,133.028
				l-0.383-0.159c0.216-0.52,0.442-1.032,0.671-1.524l0.375,0.176C89.203,132.007,88.979,132.514,88.766,133.028z M201.002,130.318
				c-0.291-0.473-0.589-0.942-0.883-1.394l0.347-0.227c0.295,0.457,0.595,0.929,0.886,1.405L201.002,130.318z M90.163,130.049
				l-0.366-0.194c0.264-0.499,0.539-0.987,0.818-1.451l0.355,0.212C90.694,129.076,90.423,129.558,90.163,130.049z M130.573,129.953
				l-1.03-0.857l0.172-0.208l-0.223-0.574l0.386-0.148L130.573,129.953z M132.387,128.851l-0.125-1.549l0.413-0.033l0.056,0.691
				l0.073-0.07l0.285,0.301L132.387,128.851z M128.271,128.036l-1.275-1.059l0.266-0.319l1.273,1.06L128.271,128.036z
				 M199.202,127.549c-0.313-0.458-0.635-0.912-0.95-1.348l0.336-0.243c0.319,0.44,0.641,0.897,0.957,1.358L199.202,127.549z
				 M91.859,127.235L91.518,127c0.319-0.464,0.652-0.916,0.991-1.344l0.325,0.257C92.5,126.333,92.172,126.779,91.859,127.235z
				 M134.292,127.054l-0.285-0.302l0.498-0.469c0.234-0.22,0.468-0.446,0.697-0.671l0.291,0.294
				c-0.231,0.228-0.469,0.456-0.703,0.678L134.292,127.054z M128.891,126.771l-0.599-1.543l0.386-0.151l0.601,1.544L128.891,126.771
				z M125.721,125.913c-0.204-0.179-0.632-0.567-1.209-1.156l0.297-0.291c0.565,0.581,0.985,0.959,1.185,1.134L125.721,125.913z
				 M132.127,125.65l-0.007-0.092c-0.042-0.521-0.081-1.047-0.116-1.561l0.413-0.028c0.034,0.513,0.073,1.036,0.116,1.555
				l0.007,0.093L132.127,125.65z M197.266,124.879c-0.34-0.439-0.685-0.874-1.026-1.292l0.32-0.262
				c0.345,0.421,0.693,0.858,1.034,1.301L197.266,124.879z M136.656,124.716l-0.301-0.284c0.372-0.395,0.745-0.805,1.109-1.219
				l0.31,0.271C137.407,123.903,137.032,124.317,136.656,124.716z M93.896,124.665l-0.304-0.28c0.38-0.415,0.776-0.813,1.179-1.186
				l0.281,0.304C94.658,123.868,94.27,124.258,93.896,124.665z M139.577,124.192l-1.05-1.279l0.319-0.263l1.051,1.28
				L139.577,124.192z M127.705,123.67c-0.17-0.482-0.349-1.013-0.531-1.577l0.395-0.127c0.181,0.562,0.358,1.088,0.527,1.567
				L127.705,123.67z M141.14,123.585l-0.251-0.33l0.077-0.059c0.38-0.291,0.793-0.605,1.242-0.945l0.25,0.331
				c-0.447,0.338-0.861,0.654-1.236,0.94L141.14,123.585z M123.38,123.535c-0.361-0.411-0.721-0.84-1.069-1.277l0.322-0.258
				c0.346,0.43,0.702,0.855,1.059,1.261L123.38,123.535z M96.302,122.445l-0.254-0.327c0.443-0.343,0.904-0.667,1.37-0.962
				l0.222,0.349C97.185,121.794,96.735,122.11,96.302,122.445z M131.905,122.34c-0.028-0.551-0.053-1.108-0.073-1.657l0.414-0.015
				c0.02,0.546,0.044,1.102,0.073,1.651L131.905,122.34z M195.174,122.329c-0.361-0.415-0.735-0.826-1.106-1.221l0.303-0.283
				c0.373,0.398,0.749,0.813,1.115,1.231L195.174,122.329z M119.411,121.723l-0.166-0.095c-0.001,0-0.395-0.212-1.115-0.526
				l0.166-0.38c0.453,0.198,0.795,0.363,0.985,0.46l0.126-0.183l0.34,0.236L119.411,121.723z M143.784,121.595l-0.245-0.333
				c0.453-0.333,0.906-0.658,1.346-0.97l0.239,0.338C144.686,120.94,144.234,121.265,143.784,121.595z M121.298,120.935
				c-0.289-0.396-0.574-0.805-0.849-1.216l0.01-0.007l-0.112-0.077l0.229-0.33l-1.169-1.24c-0.204-0.216-0.404-0.442-0.6-0.675
				l0.318-0.267c0.031,0.038,0.062,0.075,0.093,0.112l0.133-0.075c0.128,0.224,0.255,0.442,0.384,0.656l0.867,1.453l0.021-0.033
				l0.169,0.253c0.272,0.405,0.555,0.81,0.84,1.202L121.298,120.935z M99.062,120.694l-0.188-0.369
				c0.495-0.252,1.009-0.482,1.527-0.687l0.152,0.386C100.047,120.225,99.544,120.449,99.062,120.694z M126.682,120.508
				c-0.156-0.519-0.311-1.056-0.462-1.596l0.399-0.112c0.151,0.538,0.305,1.073,0.459,1.588L126.682,120.508z M116.603,120.491
				c-0.511-0.189-1.038-0.364-1.56-0.525l0.121-0.396c0.53,0.163,1.062,0.34,1.582,0.531L116.603,120.491z M192.918,119.929
				c-0.393-0.39-0.796-0.771-1.194-1.135l0.279-0.306c0.403,0.367,0.808,0.753,1.205,1.146L192.918,119.929z M140.69,119.855
				l-0.307-0.277c0.206-0.229,0.415-0.467,0.625-0.712l-0.118-0.08c0.307-0.448,0.613-0.911,0.91-1.375l0.349,0.223
				c-0.177,0.276-0.357,0.551-0.538,0.824l0.167,0.138C141.416,119.031,141.049,119.456,140.69,119.855z M146.483,119.689
				l-0.232-0.342c0.463-0.314,0.93-0.623,1.384-0.917l0.226,0.347C147.408,119.071,146.943,119.378,146.483,119.689z
				 M113.457,119.53c-0.534-0.131-1.074-0.246-1.607-0.344l0.074-0.407c0.54,0.098,1.09,0.216,1.632,0.349L113.457,119.53z
				 M102.101,119.5l-0.114-0.398c0.531-0.152,1.079-0.283,1.628-0.388l0.077,0.407C103.156,119.223,102.62,119.352,102.101,119.5z
				 M131.784,119.024c-0.012-0.554-0.019-1.112-0.021-1.658l0.413-0.002c0.004,0.543,0.011,1.099,0.021,1.651L131.784,119.024z
				 M110.224,118.94c-0.547-0.065-1.097-0.112-1.637-0.138l0.022-0.413c0.546,0.027,1.106,0.074,1.664,0.141L110.224,118.94z
				 M105.312,118.883l-0.042-0.412c0.545-0.057,1.106-0.092,1.668-0.106l0.009,0.414
				C106.396,118.793,105.846,118.827,105.312,118.883z M149.256,117.897l-0.216-0.352c0.474-0.292,0.953-0.578,1.425-0.854
				l0.208,0.357C150.203,117.322,149.727,117.607,149.256,117.897z M190.484,117.71c-0.423-0.355-0.855-0.701-1.285-1.028
				l0.253-0.33c0.433,0.332,0.869,0.681,1.297,1.04L190.484,117.71z M125.787,117.308c-0.138-0.526-0.274-1.068-0.406-1.61
				l0.402-0.098c0.13,0.539,0.267,1.078,0.404,1.603L125.787,117.308z M142.82,117.299l-0.327-0.254
				c0.324-0.415,0.661-0.859,0.998-1.316l0.333,0.246C143.484,116.436,143.146,116.881,142.82,117.299z M152.111,116.237
				l-0.199-0.364c0.394-0.215,0.794-0.429,1.188-0.634c0.094-0.048,0.188-0.097,0.279-0.144l0.188,0.369
				c-0.091,0.046-0.183,0.095-0.277,0.143C152.901,115.811,152.505,116.022,152.111,116.237z M143.026,116.221l-0.356-0.214
				c0.279-0.462,0.559-0.943,0.832-1.427l0.359,0.204C143.588,115.272,143.307,115.754,143.026,116.221z M117.798,116.055
				c-0.303-0.444-0.601-0.921-0.884-1.418l0.359-0.205c0.279,0.488,0.571,0.956,0.867,1.389L117.798,116.055z M118.2,115.901
				c-0.253-0.49-0.498-0.994-0.729-1.496l0.377-0.173c0.227,0.498,0.47,0.996,0.72,1.48L118.2,115.901z M187.865,115.716
				c-0.449-0.312-0.913-0.614-1.373-0.899l0.217-0.353c0.466,0.288,0.935,0.595,1.395,0.911L187.865,115.716z M132.181,115.711
				l-0.415-0.005c0.007-0.553,0.018-1.112,0.032-1.658l0.413,0.011C132.197,114.603,132.187,115.158,132.181,115.711z
				 M155.048,114.731l-0.178-0.374c0.502-0.24,1.01-0.473,1.512-0.691l0.166,0.379C156.05,114.263,155.547,114.494,155.048,114.731z
				 M144.793,114.628l-0.338-0.239c0.303-0.429,0.619-0.887,0.939-1.359l0.342,0.231
				C145.416,113.736,145.098,114.195,144.793,114.628z M125.001,114.082c-0.122-0.541-0.239-1.086-0.352-1.622l0.405-0.085
				c0.111,0.534,0.229,1.079,0.351,1.616L125.001,114.082z M185.069,113.991c-0.481-0.263-0.975-0.514-1.464-0.747l0.179-0.373
				c0.496,0.236,0.995,0.49,1.484,0.757L185.069,113.991z M158.068,113.409l-0.154-0.385c0.517-0.206,1.04-0.405,1.555-0.59
				l0.14,0.389C159.097,113.006,158.579,113.204,158.068,113.409z M144.662,113.328l-0.366-0.194
				c0.254-0.475,0.509-0.969,0.76-1.466l0.37,0.187C145.172,112.354,144.916,112.851,144.662,113.328z M116.138,113.158
				c-0.232-0.478-0.462-0.988-0.686-1.52l0.381-0.16c0.221,0.523,0.448,1.027,0.678,1.498L116.138,113.158z M116.812,112.876
				c-0.209-0.512-0.408-1.036-0.591-1.557l0.39-0.138c0.182,0.514,0.378,1.033,0.584,1.539L116.812,112.876z M182.104,112.583
				c-0.505-0.205-1.024-0.398-1.54-0.573l0.134-0.393c0.523,0.178,1.049,0.373,1.562,0.582L182.104,112.583z M132.271,112.408
				l-0.413-0.018c0.024-0.551,0.052-1.109,0.086-1.657l0.413,0.025C132.323,111.304,132.295,111.859,132.271,112.408z
				 M161.17,112.294l-0.126-0.396c0.532-0.168,1.07-0.328,1.598-0.472l0.109,0.399C162.229,111.969,161.696,112.126,161.17,112.294z
				 M146.655,111.879l-0.347-0.227c0.288-0.44,0.59-0.908,0.899-1.39l0.349,0.223C147.248,110.969,146.945,111.438,146.655,111.879z
				 M178.994,111.529c-0.523-0.144-1.061-0.272-1.596-0.385l0.084-0.405c0.544,0.114,1.087,0.245,1.622,0.391L178.994,111.529z
				 M164.346,111.423l-0.091-0.403c0.541-0.124,1.09-0.237,1.63-0.335l0.074,0.406C165.426,111.189,164.884,111.301,164.346,111.423
				z M175.781,110.856c-0.538-0.079-1.088-0.143-1.634-0.19l0.037-0.413c0.555,0.047,1.111,0.113,1.657,0.192L175.781,110.856z
				 M167.585,110.836l-0.055-0.41c0.551-0.073,1.108-0.133,1.656-0.178l0.034,0.414
				C168.681,110.706,168.131,110.765,167.585,110.836z M124.324,110.831c-0.103-0.543-0.203-1.093-0.297-1.633l0.407-0.07
				c0.094,0.537,0.193,1.084,0.297,1.625L124.324,110.831z M172.507,110.572c-0.537-0.015-1.092-0.015-1.644,0l-0.011-0.414
				c0.558-0.015,1.121-0.015,1.666,0L172.507,110.572z M146.157,110.364l-0.373-0.18c0.232-0.484,0.468-0.988,0.701-1.497
				l0.376,0.172C146.627,109.371,146.391,109.877,146.157,110.364z M114.836,110.092c-0.185-0.494-0.37-1.005-0.56-1.564
				l0.392-0.135c0.189,0.556,0.371,1.063,0.556,1.554L114.836,110.092z M115.7,109.737c-0.155-0.506-0.314-1.041-0.474-1.59
				l0.398-0.116c0.158,0.548,0.317,1.081,0.473,1.585L115.7,109.737z M132.469,109.11l-0.412-0.032
				c0.042-0.55,0.09-1.107,0.142-1.653l0.412,0.038C132.559,108.008,132.511,108.562,132.469,109.11z M148.441,109.083l-0.351-0.219
				c0.291-0.468,0.581-0.937,0.871-1.407l0.353,0.217C149.024,108.144,148.733,108.614,148.441,109.083z M123.756,107.56
				c-0.086-0.541-0.167-1.094-0.244-1.642l0.411-0.057c0.076,0.545,0.157,1.095,0.242,1.636L123.756,107.56z M147.541,107.347
				l-0.379-0.167c0.214-0.484,0.435-0.994,0.658-1.517l0.38,0.163C147.978,106.349,147.756,106.861,147.541,107.347z
				 M113.755,106.952c-0.152-0.479-0.313-0.996-0.493-1.583l0.396-0.121c0.179,0.584,0.34,1.101,0.493,1.577L113.755,106.952z
				 M114.774,106.551c-0.145-0.53-0.29-1.063-0.434-1.601l0.4-0.106c0.143,0.537,0.287,1.07,0.433,1.596L114.774,106.551z
				 M150.178,106.258l-0.354-0.215c0.289-0.471,0.574-0.943,0.86-1.414l0.355,0.214
				C150.753,105.316,150.466,105.788,150.178,106.258z M132.78,105.821l-0.411-0.046c0.062-0.549,0.128-1.103,0.199-1.647
				l0.411,0.054C132.908,104.723,132.842,105.274,132.78,105.821z M148.845,104.296l-0.383-0.158c0.211-0.511,0.421-1.02,0.63-1.53
				l0.384,0.157C149.268,103.275,149.056,103.786,148.845,104.296z M123.297,104.272c-0.066-0.551-0.129-1.106-0.187-1.649
				l0.412-0.043c0.056,0.541,0.12,1.093,0.186,1.642L123.297,104.272z M112.782,103.784l-0.148-0.496
				c-0.153-0.509-0.307-1.021-0.462-1.534l0.396-0.121c0.156,0.514,0.311,1.026,0.463,1.536l0.149,0.495L112.782,103.784z
				 M151.896,103.428l-0.354-0.214c0.286-0.472,0.574-0.944,0.862-1.416l0.354,0.216
				C152.469,102.485,152.183,102.957,151.896,103.428z M113.921,103.347c-0.137-0.533-0.273-1.068-0.409-1.606l0.401-0.101
				c0.136,0.537,0.272,1.071,0.409,1.603L113.921,103.347z M133.207,102.545l-0.41-0.061c0.08-0.545,0.168-1.097,0.257-1.639
				l0.409,0.068C133.374,101.454,133.287,102.002,133.207,102.545z M150.098,101.229l-0.382-0.154
				c0.151-0.374,0.301-0.748,0.451-1.121l0.016-0.041c0.203-0.5,0.403-1,0.605-1.498l0.383,0.155
				c-0.202,0.498-0.403,0.998-0.604,1.497l-0.016,0.041C150.4,100.482,150.25,100.856,150.098,101.229z M122.954,100.971
				c-0.044-0.505-0.083-1.018-0.119-1.522l-0.009-0.133l0.413-0.028l0.01,0.132c0.034,0.503,0.074,1.013,0.116,1.516
				L122.954,100.971z M153.625,100.604l-0.353-0.219c0.291-0.47,0.584-0.939,0.877-1.406l0.35,0.219
				C154.208,99.666,153.916,100.135,153.625,100.604z M111.684,100.174c-0.177-0.566-0.344-1.082-0.508-1.573l0.393-0.13
				c0.165,0.494,0.331,1.009,0.511,1.579L111.684,100.174z M113.109,100.134c-0.133-0.538-0.265-1.074-0.397-1.609l0.403-0.099
				c0.13,0.536,0.264,1.071,0.396,1.607L113.109,100.134z M133.749,99.286l-0.406-0.076c0.101-0.542,0.207-1.09,0.317-1.628
				l0.407,0.083C133.957,98.202,133.85,98.747,133.749,99.286z M155.388,97.804l-0.347-0.223c0.311-0.483,0.615-0.951,0.906-1.389
				l0.345,0.228C156.003,96.858,155.697,97.324,155.388,97.804z M122.73,97.658c-0.027-0.553-0.049-1.112-0.065-1.659l0.413-0.013
				c0.017,0.546,0.039,1.102,0.065,1.651L122.73,97.658z M110.637,97.041c-0.192-0.537-0.389-1.057-0.581-1.544l0.385-0.151
				c0.193,0.49,0.392,1.014,0.585,1.555L110.637,97.041z M151.798,97.037l-0.383-0.157c0.208-0.512,0.421-1.023,0.634-1.533
				l0.381,0.159C152.219,96.014,152.006,96.525,151.798,97.037z M112.317,96.917c-0.131-0.536-0.262-1.072-0.396-1.608l0.403-0.1
				c0.132,0.537,0.264,1.075,0.396,1.61L112.317,96.917z M134.414,96.05l-0.406-0.091c0.123-0.54,0.25-1.084,0.38-1.615l0.401,0.099
				C134.661,94.972,134.534,95.512,134.414,96.05z M157.214,95.051l-0.341-0.233c0.321-0.469,0.643-0.926,0.952-1.358l0.336,0.241
				C157.854,94.131,157.534,94.585,157.214,95.051z M122.632,94.34c-0.002-0.282-0.005-0.563-0.005-0.845
				c0-0.273,0.002-0.545,0.004-0.816l0.415,0.004c-0.002,0.27-0.004,0.54-0.004,0.812c0,0.28,0.001,0.56,0.004,0.841L122.632,94.34z
				 M153.079,93.982l-0.38-0.164c0.228-0.527,0.452-1.039,0.667-1.521l0.378,0.168C153.529,92.946,153.306,93.456,153.079,93.982z
				 M109.415,93.982c-0.224-0.487-0.47-0.982-0.731-1.47l0.364-0.197c0.266,0.496,0.516,0.999,0.743,1.494L109.415,93.982z
				 M111.522,93.702c-0.135-0.536-0.27-1.07-0.406-1.604l0.402-0.103c0.136,0.535,0.271,1.07,0.405,1.607L111.522,93.702z
				 M135.198,92.842l-0.4-0.106c0.141-0.531,0.289-1.07,0.441-1.599l0.398,0.113C135.486,91.778,135.338,92.314,135.198,92.842z
				 M159.138,92.368l-0.331-0.249c0.339-0.45,0.681-0.893,1.016-1.314l0.325,0.258C159.813,91.48,159.474,91.919,159.138,92.368z
				 M107.865,91.084c-0.281-0.461-0.582-0.926-0.895-1.381l0.341-0.233c0.317,0.46,0.622,0.932,0.907,1.397L107.865,91.084z
				 M123.08,91.031l-0.415-0.012c0.017-0.558,0.04-1.117,0.068-1.66l0.415,0.021C123.119,89.921,123.095,90.476,123.08,91.031z
				 M154.434,90.963l-0.375-0.176c0.239-0.511,0.479-1.014,0.719-1.496l0.372,0.182C154.911,89.954,154.671,90.455,154.434,90.963z
				 M110.704,90.497c-0.141-0.536-0.283-1.068-0.426-1.598l0.399-0.108c0.144,0.53,0.285,1.064,0.426,1.601L110.704,90.497z
				 M161.191,89.79l-0.313-0.268c0.183-0.217,0.366-0.428,0.552-0.639c0.184-0.207,0.367-0.41,0.55-0.609l0.306,0.279
				c-0.183,0.197-0.364,0.398-0.545,0.604C161.557,89.366,161.374,89.575,161.191,89.79z M136.106,89.667l-0.396-0.122
				c0.162-0.528,0.331-1.062,0.503-1.583l0.394,0.129C136.436,88.611,136.267,89.142,136.106,89.667z M106.006,88.37
				c-0.331-0.434-0.676-0.866-1.029-1.286l0.317-0.266c0.357,0.425,0.707,0.863,1.042,1.3L106.006,88.37z M155.896,88l-0.367-0.192
				c0.261-0.499,0.525-0.992,0.79-1.462l0.361,0.202C156.419,87.016,156.156,87.505,155.896,88z M123.25,87.731l-0.413-0.03
				c0.042-0.554,0.088-1.111,0.141-1.656l0.411,0.041C123.337,86.626,123.291,87.179,123.25,87.731z M163.424,87.366l-0.293-0.293
				c0.402-0.4,0.809-0.786,1.211-1.146l0.276,0.308C164.222,86.59,163.82,86.97,163.424,87.366z M109.836,87.305
				c-0.154-0.548-0.309-1.083-0.459-1.588l0.396-0.117c0.15,0.507,0.305,1.043,0.46,1.594L109.836,87.305z M137.136,86.529
				l-0.39-0.138c0.184-0.525,0.373-1.051,0.563-1.561l0.388,0.144C137.508,85.483,137.319,86.005,137.136,86.529z M103.888,85.849
				c-0.38-0.41-0.767-0.808-1.147-1.181l0.289-0.295c0.387,0.377,0.778,0.781,1.163,1.195L103.888,85.849z M165.872,85.172
				l-0.258-0.324c0.443-0.352,0.894-0.687,1.341-0.995l0.236,0.34C166.752,84.498,166.308,84.827,165.872,85.172z M157.506,85.12
				l-0.356-0.212c0.289-0.482,0.583-0.957,0.877-1.412l0.348,0.225C158.083,84.171,157.791,84.642,157.506,85.12z M123.566,84.443
				l-0.409-0.05c0.064-0.547,0.138-1.102,0.216-1.647l0.409,0.059C123.704,83.347,123.632,83.898,123.566,84.443z M108.896,84.135
				c-0.17-0.542-0.341-1.07-0.509-1.571l0.392-0.132c0.17,0.504,0.342,1.035,0.512,1.581L108.896,84.135z M138.291,83.434
				l-0.385-0.153c0.203-0.512,0.414-1.03,0.625-1.537l0.382,0.161C138.702,82.409,138.492,82.923,138.291,83.434z M168.573,83.314
				l-0.208-0.357c0.485-0.283,0.983-0.545,1.479-0.781l0.178,0.374C169.537,82.78,169.049,83.037,168.573,83.314z M102.808,83.075
				l-0.411-0.05c0.067-0.545,0.13-1.097,0.188-1.644l0.411,0.044C102.938,81.972,102.875,82.527,102.808,83.075z M159.291,82.353
				l-0.34-0.237c0.317-0.457,0.647-0.91,0.975-1.343l0.331,0.25C159.931,81.452,159.606,81.9,159.291,82.353z M171.53,81.918
				l-0.142-0.389c0.526-0.193,1.065-0.361,1.6-0.5l0.102,0.4C172.569,81.566,172.046,81.729,171.53,81.918z M124.036,81.174
				l-0.409-0.07c0.092-0.543,0.191-1.093,0.297-1.634l0.406,0.078C124.226,80.085,124.126,80.632,124.036,81.174z M107.844,81.005
				c-0.122-0.341-0.248-0.679-0.372-1.003c-0.07-0.183-0.14-0.362-0.211-0.541l0.384-0.152c0.072,0.179,0.143,0.361,0.213,0.546
				c0.124,0.326,0.25,0.665,0.375,1.009L107.844,81.005z M174.422,80.504l-0.411-0.044c0.058-0.54,0.146-1.097,0.263-1.654
				l0.405,0.085C174.564,79.435,174.478,79.979,174.422,80.504z M139.566,80.386l-0.377-0.167c0.222-0.505,0.454-1.014,0.687-1.511
				l0.375,0.175C140.02,79.378,139.79,79.885,139.566,80.386z M103.157,79.773l-0.412-0.038c0.049-0.556,0.094-1.11,0.132-1.647
				l0.413,0.029C103.252,78.658,103.208,79.214,103.157,79.773z M161.276,79.729l-0.32-0.262c0.353-0.43,0.717-0.854,1.084-1.262
				l0.308,0.276C161.985,78.886,161.623,79.306,161.276,79.729z M106.629,77.94c-0.229-0.521-0.462-1.023-0.694-1.494l0.371-0.183
				c0.236,0.476,0.471,0.983,0.702,1.51L106.629,77.94z M124.665,77.932l-0.404-0.089c0.113-0.511,0.232-1.023,0.356-1.522
				l0.024-0.097l0.401,0.102l-0.024,0.094C124.896,76.916,124.777,77.423,124.665,77.932z M140.966,77.394l-0.371-0.182
				c0.242-0.493,0.494-0.991,0.748-1.482l0.368,0.191C141.458,76.409,141.208,76.905,140.966,77.394z M175.087,77.305l-0.396-0.119
				c0.154-0.515,0.335-1.047,0.54-1.581l0.387,0.148C175.416,76.277,175.237,76.799,175.087,77.305z M163.475,77.282l-0.295-0.291
				c0.386-0.394,0.786-0.783,1.189-1.161l0.282,0.304C164.252,76.506,163.855,76.893,163.475,77.282z M103.391,76.459l-0.412-0.021
				c0.027-0.568,0.048-1.124,0.06-1.65l0.415,0.01C103.44,75.328,103.419,75.887,103.391,76.459z M165.881,75.041l-0.268-0.316
				c0.421-0.356,0.855-0.708,1.291-1.048l0.255,0.327C166.726,74.34,166.298,74.688,165.881,75.041z M105.166,74.995
				c-0.283-0.499-0.574-0.967-0.864-1.394l0.343-0.232c0.295,0.435,0.592,0.913,0.882,1.42L105.166,74.995z M125.46,74.728
				l-0.398-0.11c0.147-0.537,0.305-1.072,0.465-1.595l0.396,0.121C125.764,73.664,125.608,74.196,125.46,74.728z M142.487,74.462
				l-0.363-0.198c0.264-0.486,0.537-0.973,0.809-1.449l0.36,0.206C143.02,73.493,142.75,73.979,142.487,74.462z M176.251,74.237
				l-0.378-0.17c0.223-0.489,0.467-0.993,0.727-1.5l0.368,0.189C176.71,73.256,176.469,73.754,176.251,74.237z M103.048,73.14
				c-0.004-0.438-0.017-0.861-0.036-1.257l-0.027-0.577l0.388,0.427c0.088,0.097,0.175,0.196,0.262,0.299l-0.194,0.164
				c0.011,0.303,0.019,0.618,0.022,0.939L103.048,73.14z M168.481,73.027l-0.238-0.339c0.447-0.315,0.91-0.628,1.379-0.929
				l0.224,0.349C169.384,72.406,168.924,72.715,168.481,73.027z M144.126,71.597l-0.355-0.213l0.137-0.228
				c0.242-0.398,0.487-0.798,0.732-1.188l0.35,0.221c-0.244,0.387-0.488,0.784-0.729,1.181L144.126,71.597z M126.43,71.574
				l-0.393-0.132c0.177-0.523,0.363-1.05,0.554-1.567l0.388,0.144C126.79,70.532,126.605,71.055,126.43,71.574z M177.754,71.31
				l-0.36-0.206c0.268-0.467,0.553-0.947,0.851-1.429l0.354,0.218C178.301,70.37,178.019,70.847,177.754,71.31z M171.25,71.249
				l-0.209-0.358c0.473-0.276,0.96-0.548,1.453-0.809l0.193,0.365C172.201,70.705,171.719,70.975,171.25,71.249z M174.155,69.703
				l-0.179-0.373c0.492-0.238,0.999-0.473,1.508-0.696l0.166,0.379C175.147,69.234,174.644,69.465,174.155,69.703z M145.886,68.8
				l-0.345-0.226c0.303-0.461,0.617-0.925,0.93-1.376l0.341,0.235C146.5,67.884,146.188,68.344,145.886,68.8z M179.486,68.505
				l-0.345-0.229c0.293-0.441,0.603-0.895,0.923-1.348l0.129,0.092l-0.053-0.161l0.622-0.207l-0.36,0.514
				C180.089,67.616,179.779,68.067,179.486,68.505z M127.576,68.479l-0.384-0.155c0.207-0.512,0.424-1.028,0.646-1.532l0.38,0.167
				C127.998,67.46,127.781,67.972,127.576,68.479z M177.172,68.376l-0.154-0.384c0.506-0.202,1.027-0.401,1.554-0.59l0.14,0.389
				C178.192,67.979,177.671,68.176,177.172,68.376z M147.765,66.085l-0.334-0.244c0.324-0.449,0.657-0.897,0.986-1.334l0.331,0.25
				C148.418,65.192,148.089,65.639,147.765,66.085z M128.902,65.459l-0.374-0.179c0.237-0.498,0.484-0.999,0.735-1.491l0.369,0.189
				C129.382,64.467,129.138,64.964,128.902,65.459z M149.759,63.452l-0.324-0.257c0.345-0.436,0.699-0.871,1.047-1.29l0.319,0.264
				C150.454,62.587,150.102,63.019,149.759,63.452z M130.407,62.523l-0.363-0.198c0.267-0.482,0.544-0.967,0.826-1.444l0.356,0.212
				C130.946,61.564,130.67,62.046,130.407,62.523z M151.868,60.911l-0.312-0.271c0.365-0.421,0.738-0.837,1.105-1.24l0.306,0.279
				C152.602,60.078,152.232,60.493,151.868,60.911z M132.087,59.686l-0.349-0.222c0.296-0.466,0.603-0.934,0.912-1.389l0.343,0.233
				C132.687,58.759,132.382,59.223,132.087,59.686z M154.096,58.474l-0.3-0.287l0.218-0.224c0.315-0.325,0.638-0.648,0.95-0.957
				l0.293,0.294c-0.314,0.308-0.631,0.627-0.946,0.951L154.096,58.474z M133.943,56.958l-0.334-0.244
				c0.325-0.448,0.66-0.895,0.997-1.33l0.328,0.253C134.598,56.071,134.265,56.514,133.943,56.958z M156.446,56.159l-0.261-0.284
				c-0.269-0.04-0.55-0.083-0.842-0.125l0.06-0.41c0.441,0.065,0.854,0.127,1.235,0.186l0.429,0.066l-0.32,0.292
				C156.649,55.972,156.55,56.064,156.446,56.159z M153.704,55.515c-0.521-0.072-1.068-0.145-1.64-0.22l0.053-0.411
				c0.573,0.075,1.121,0.148,1.644,0.221L153.704,55.515z M150.422,55.088c-0.533-0.065-1.082-0.13-1.643-0.193l0.047-0.412
				c0.562,0.064,1.112,0.129,1.646,0.194L150.422,55.088z M147.133,54.715c-0.539-0.057-1.089-0.112-1.645-0.164l0.039-0.413
				c0.558,0.053,1.107,0.108,1.65,0.165L147.133,54.715z M143.839,54.402c-0.545-0.046-1.095-0.089-1.65-0.13l0.031-0.414
				c0.556,0.042,1.106,0.086,1.653,0.133L143.839,54.402z M135.963,54.352l-0.32-0.264c0.128-0.154,0.257-0.307,0.387-0.462
				l0.064-0.075l0.099,0.003c0.352,0.008,0.703,0.019,1.058,0.03l-0.015,0.414c-0.319-0.012-0.637-0.021-0.956-0.029
				C136.175,54.097,136.069,54.224,135.963,54.352z M140.541,54.16c-0.559-0.035-1.114-0.065-1.651-0.091l0.02-0.415
				c0.539,0.027,1.096,0.058,1.656,0.092L140.541,54.16z"/>
		</g>
	</g>
	<path d="M109.632,117.615c4.525,8.886-12.004-0.371-24.364,5.657C86.265,121.085,105.108,108.731,109.632,117.615z"/>
	<path fill="#B0B4B7" d="M120.13,127.552c2.048,3.859,1.84,7.627,1.84,7.627l-2.641-0.271
		C119.329,134.907,120.445,132.978,120.13,127.552z"/>
	<path fill="#31738B" d="M118.388,160.203c-10.51,8.335-7.991,19.419-7.991,19.419l-2.47-2.574
		C107.926,177.048,106.42,165.835,118.388,160.203z"/>
</g>
<path fill="#31738B" d="M202.918,161.93c0,0,4.999,2.526,12.243,0.899c-0.052,1.326-0.552,7.818-11.098,5.568
	C202.525,165.855,202.918,161.93,202.918,161.93z"/>
<path fill="#B0B4B7" d="M205.72,155.137l-1.12,1.768c0,0,4.461-1.652,8.774,0.114C210.643,154.633,205.72,155.137,205.72,155.137z"
	/>
<g>
	<rect x="87.225" y="209.717" fill="#FFFFFF" width="137.948" height="32.225"/>
	<path d="M223.332,211.558V240.1H89.066v-28.542H223.332 M227.015,207.875H85.383v35.907h141.631V207.875L227.015,207.875z"/>
</g>
<g>
	<g>
		<polygon fill="#D9DADB" points="214.019,294.019 214.019,285.003 94.303,285.003 94.303,294.019 5.445,294.019 25.046,269.326 
			5.445,244.634 44.047,244.634 44.047,235.62 264.043,235.62 264.043,244.634 302.218,244.634 286.538,269.326 302.218,294.019 		
			"/>
		<path d="M261.417,238.247v9.016h36.021l-14.011,22.063l14.011,22.066h-80.791v-9.018H91.676v9.018H10.885L28.4,269.326
			l-17.516-22.063h35.791v-9.016H261.417 M266.671,232.992h-5.254H46.675H41.42v5.255v3.761H10.885H0.005l6.765,8.521l14.921,18.797
			L6.77,288.125l-6.765,8.521h10.88h80.792h5.254v-5.254v-3.761h114.462v3.761v5.254h5.254h80.791H307l-5.127-8.071l-12.223-19.249
			l12.223-19.246l5.127-8.072h-9.562h-30.767v-3.761V232.992L266.671,232.992z"/>
	</g>
	<polygon fill="#B0B4B7" points="91.676,291.392 91.676,247.262 10.885,247.262 28.4,269.326 10.885,291.392 	"/>
	<polygon fill="#B0B4B7" points="297.438,247.262 216.646,247.262 216.646,291.392 297.438,291.392 283.427,269.326 	"/>
	<polygon points="41.359,245.277 41.359,285.607 79.293,294.195 93.636,293.111 50.356,245.277 	"/>
	<polygon points="266.686,245.101 266.686,285.433 228.752,294.019 214.408,292.936 257.688,245.101 	"/>
	<polygon fill="#8B8B8B" points="261.417,238.247 261.417,282.375 216.646,291.392 216.471,247.262 	"/>
	<polygon fill="#8B8B8B" points="46.675,238.247 46.675,282.375 91.443,291.392 91.62,247.262 	"/>
	<rect x="46.675" y="238.247" fill="#D9DADB" width="214.742" height="44.128"/>
</g>
<g>
	<path d="M106.772,254.086h0.489l0.304,0.202l0.067,0.219l0.458,0.726l0.336,0.574l0.152,0.388l0.236,0.372l0.136,0.319l0.066,0.204
		l-0.033,0.133l0.033,0.288l0.068,0.168l0.067,0.271l0.254,0.321l0.405,0.337l0.136,0.253l0.083,0.339l0.102,0.354l0.168,0.271
		l0.169,0.524l0.456,0.369l0.102,0.355l-0.068,0.303l-0.286,0.304l-0.135,0.254l-0.827,0.49l-0.558,0.337l-0.404,0.168l-0.169,0.135
		l-0.219,0.219l-0.168,0.068l-0.423,0.102l-0.27,0.203l-0.202,0.068l-0.592,0.353h-0.134l-0.254,0.203l-0.135,0.033l-0.472,0.455
		l-0.185,0.306l-0.034,0.135v0.151l-0.034,0.204l-0.27,0.27l-0.489-0.034l0.034,0.389l-0.034,0.27l-0.136,0.201l-0.101,0.322
		l-0.169,0.202l-0.084,0.202l0.05,0.321l0.136,0.236l0.169,0.032l0.168,0.068h0.203h0.422l0.32,0.152l0.472,0.034l0.389,0.032
		l0.203,0.035h0.134l0.456,0.066l0.472,0.034l0.456-0.067l0.203-0.135l0.067-0.152l0.084-0.169l-0.034-0.136v-0.135l-0.118-0.186
		l-0.135-0.235l-0.135-0.439l0.101-0.422l0.102-0.169l0.135-0.219l0.354-0.17l0.203-0.034h0.219l0.338,0.136l0.203,0.068
		l0.253,0.286l0.135,0.303l0.068,0.895l-0.068,0.153l-0.067,0.404l-0.067,0.422l-0.101,0.271l-0.187,0.135l-0.134,0.219
		l-0.034,0.203l-0.304,0.337l-0.253,0.253l-1.484,1.198l-0.135,0.219l-0.067,0.439l0.102,0.187l0.034,0.303l-0.068,0.271
		l-0.203,0.286l-0.187,0.033l-0.539,0.103l-0.253-0.067l-0.439-0.068l-0.219-0.067l-0.304-0.137l-0.203-0.116l-0.219-0.034
		l-0.202-0.033l-0.271-0.204l-0.321-0.065l-0.573-0.354l-0.186-0.068l-0.304-0.169l-0.354-0.203l-0.303-0.134l-0.49-0.322
		l-0.473-0.168l-0.423-0.203l-0.202-0.033h-0.522l-0.203-0.117l-0.253-0.237l-0.102-0.235l0.034-0.102l0.068-0.254l0.152-0.235
		l0.406-0.389l0.202-0.304l0.033-0.305l0.085-0.253l0.067-0.472v-0.221l-0.034-0.37v-0.219l-0.119-0.102l-0.033-0.304l0.186-0.101
		l-0.102-0.22l0.067-0.338l-0.034-0.202l-0.151-0.388l0.151-0.169l0.034-0.137V264.6l-0.034-0.557l0.034-0.134v-1.114l-0.034-0.236
		v-0.321l-0.034-0.474l0.034-0.319l-0.034-0.372l0.034-0.254l0.034-0.168l-0.067-0.135l-0.084-0.626l-0.034-0.388l0.034-0.271
		l-0.135-0.404l-0.101-0.152l-0.372-0.27l-0.118-0.135l-0.034-0.17l0.034-0.32l0.219-0.303l0.472-0.187l0.726-0.101l0.388-0.101
		l0.136-0.068l0.202-0.034l1.452-0.421l0.219-0.102h0.169l0.101-0.101l0.135-0.17l0.253,0.067l0.338-0.169l0.236-0.187l0.524-0.303
		l0.135-0.067l0.658-0.625l0.101-0.236l0.034-0.253l0.22-0.237L106.772,254.086z M104.495,257.478l-0.102,0.27v0.271l0.067,0.186
		l0.067,0.271l0.067,0.456l0.034,0.168l0.068,0.136l0.034,0.727l0.034,0.134l0.068,0.22l0.067,0.337l-0.102,0.236l0.102,0.321v0.201
		l-0.067,0.204l-0.102,0.354l0.034,0.134l0.034,0.137l-0.034,0.287l0.034,0.168v0.237l0.034,0.168l-0.068,0.319l0.101,0.17
		l0.456-0.589l0.489-0.17l0.068-0.17l0.135-0.065l0.135-0.103l0.203-0.067l0.287-0.49l0.068-0.135l-0.068-0.185l-0.168-0.305
		l-0.068-0.169l-0.05-0.219l-0.237-0.506l-0.489-1.249l-0.135-0.102l-0.337-0.658l-0.068-0.237l-0.422-0.725L104.495,257.478z"/>
	<path d="M118.502,247.96l0.135,0.084l0.406-0.051l0.252,0.051l0.305,0.135l0.287,0.27l0.033,0.271l0.034,0.185v0.168l-0.135,0.305
		l-0.49,0.287l-0.168,0.033l-0.253,0.067l-0.371,0.169l-0.169,0.169l-0.152,0.186l-0.269,0.624l-0.068,0.137v0.135l-0.034,0.235
		l-0.034,0.592v0.388l-0.101,2.277l-0.084,0.995l-0.034,0.17l-0.068,0.253l0.152,0.271l-0.051,0.269l0.186,0.152v0.236l0.034,0.271
		l-0.068,0.251v0.372l-0.102,0.22l-0.117,0.405v0.201l0.067,0.187v0.135l-0.067,0.236l0.185,0.557v0.456l0.034,0.337v0.794
		l-0.102,0.101l-0.084,0.185v0.34l0.033,0.387l-0.033,0.27l-0.135,0.337l0.253,0.035l0.067,0.22v0.235v0.455l0.068,0.237
		l-0.034,0.168v0.691l0.034,0.321l-0.068,0.27L117.674,266l0.068,0.253l0.102,0.372v0.286l0.066,0.203l0.034,0.168l0.034,0.321
		l0.102,0.271l0.067,0.235l0.219,0.118l0.759,0.203l0.338,0.303l0.033,0.136v0.354l-0.236,0.371l-0.49,0.422l-0.236,0.169
		l-0.101,0.253l-0.387,0.068l-0.17,0.135l-0.421,0.49l-0.102,0.234l0.203,0.456l0.186,0.17l0.067,0.337l-0.186,0.456l-0.27,0.27
		l-0.237,0.033l-0.32-0.066l-0.135-0.102h-0.168l-0.102-0.066l-0.32-0.169l-0.236-0.287l-0.271-0.169l-0.354-0.203l-0.136-0.169
		l-0.135-0.187l-0.102-0.032l-0.388-0.271l-0.489-0.202l-0.371-0.185l-0.287-0.103l-0.271-0.133l-0.372-0.204l-0.117-0.102
		l-0.067-0.186l-0.067-0.338l0.168-0.354l0.186-0.169l0.136-0.066l0.337-0.169l0.253-0.489v-0.725l0.101-0.204l-0.101-0.168
		l-0.035-0.22l-0.034-0.168l0.102-0.17l0.067-0.556v-0.236l-0.067-0.422l0.169-0.103v-0.234l0.033-0.254l0.034-0.372l0.067-0.201
		l-0.067-0.187l-0.135-0.068v-0.405l-0.169-0.522l0.035-0.422l0.101-0.304l0.067-0.557l-0.034-0.202l0.068-0.759l0.033-0.39v-0.168
		l-0.102-0.303l0.068-0.187l-0.068-0.137l-0.068-0.894l0.034-0.59v-0.406v-0.252l0.033-0.27l0.136-0.32l0.203-0.203l-0.203-0.27
		l-0.169-0.49l-0.034-0.271l0.034-0.151l-0.034-0.135l0.068-0.169l-0.034-0.49l-0.034-0.573l-0.033-0.39l-0.068-2.209l-0.101-0.488
		l-0.05-0.338l-0.035-0.354l-0.473-0.541l-0.22-0.151l-0.203-0.305l-0.067-0.355l0.168-0.304l0.287-0.201l0.541-0.034l0.557,0.066
		l0.287,0.067l0.371,0.102h0.136l0.625,0.389l0.32,0.235l0.203,0.204l0.37,0.388l0.187,0.169l0.203-0.068l0.068-0.169l-0.135-0.219
		l0.337-0.86l0.186-0.203l0.439-0.624l0.489-0.203l0.303-0.15L118.502,247.96z"/>
	<path d="M129.184,249.733l0.489-0.035l0.236,0.035l0.287,0.135l0.237,0.202l0.203,0.286l0.202,0.339l0.152,0.033l0.034,0.135
		l0.372,0.187l0.625,0.032h0.135h0.421l0.203-0.066h0.237l0.389-0.068l0.202-0.084l0.185-0.27l0.034,0.201l0.168-0.068h0.169
		l0.422,0.036l0.237-0.036l0.303-0.1h0.354l0.135-0.068l0.523-0.101h0.203l0.321-0.102l0.472-0.034l0.861-0.066l0.455-0.067
		l0.928,0.067l1.216,0.033l0.168-0.033l0.489,0.101l0.102,0.271h0.236l-0.066-0.271l0.32,0.169l0.202,0.033l0.203,0.068l0.253,0.068
		l0.236,0.031l0.337,0.289l0.489,0.202l0.203,0.169l0.422,0.169l0.271,0.186h0.321l0.032,0.236l0.237,0.034l0.253,0.168l0.203,0.187
		l0.136,0.269l0.27,0.304l0.457,0.523l0.203,0.237l0.152,0.185l0.135,0.169v0.168l0.202,0.136l0.068,0.456l0.101,0.135l0.134,0.168
		l0.084,0.287l0.136,0.507l0.067,0.286l0.067,0.439l-0.101,0.32l0.168,0.271l0.102,0.134l0.032,0.154l-0.134,0.269l-0.034,0.169
		l-0.034,0.287l0.271,0.067v0.271l0.068,1.079l-0.034,0.203l0.034,0.338l0.066,0.22l-0.032,0.304l-0.17,0.421l-0.101,0.438
		l0.034,0.39l0.034,0.271l-0.102,0.186l-0.101,0.303l-0.355,0.372l-0.068,0.288l0.034,0.269l-0.101,0.287l-0.068,0.371l-0.101,0.355
		l-0.17,0.235l-0.067,0.728l-0.034,0.201l-0.153,0.169l-0.134,0.253l-0.27,0.271l-0.102,0.219v0.27l-0.119,0.136l-0.269,0.423
		l-0.136,0.337l-0.101,0.287l-0.219,0.202l-0.102,0.271l-0.168,0.86l-0.304,0.319v0.558l-0.186,0.304l-0.034,0.27l-0.235,0.389
		l-0.068,0.304l-0.068,0.423l-0.034,0.203l-0.033,0.167l-0.068,0.254v0.202l-0.034,0.237l-0.068,0.726l0.034,0.151l0.034,0.202
		v0.169l0.102,0.321l0.135,0.201l0.203,0.271l0.489,0.389l0.27,0.033l0.22-0.033l0.235-0.389l-0.134-0.203l-0.136-0.388l0.068-0.759
		l0.17-0.235l0.335-0.305l0.423-0.117l0.421-0.102h0.168l0.169,0.068l0.236,0.033l0.187,0.186l0.235,0.169l0.034,0.136l0.237,0.624
		v0.202l-0.034,0.22v0.135l-0.168,0.625l-0.17,0.437l-0.286,0.424l-0.373,0.371l-0.32,0.287l-0.574,0.169v0.134l-0.187,0.136
		l-0.203,0.033l-0.168,0.035h-0.657h-0.136l-0.219-0.035l-0.472-0.066l-0.17-0.068l-0.218-0.066l-0.237-0.136l-0.203-0.033
		l-0.151-0.204l-0.373-0.285l-0.066-0.236l-0.203-0.067l-0.287-0.389l-0.102-0.135l-0.135-0.304l-0.067-0.253l-0.185-0.27
		l-0.067-0.321l-0.101-0.438l-0.17-0.658v-0.202l-0.101-0.186v-0.236l-0.068-0.405l0.068-0.219v-0.236l0.067-0.169l-0.034-0.354
		l-0.168-0.202l-0.033-0.271v-0.152l0.101-0.168l0.068-0.591l-0.102-0.202v-0.355l0.068-0.168l0.101-0.236l-0.034-0.236l0.101-0.844
		l-0.168-0.236v-0.135l-0.102-0.422l0.067-0.271l0.101-0.269l0.136-0.355l-0.136-0.169v-0.203l0.067-0.185v-0.373l-0.134-0.134
		l-0.219-0.32l-0.034-0.557l0.152-0.693l0.067-0.201l0.034-0.136l0.134-0.69l0.17-0.135v-0.326v-0.203l0.101-0.556l0.067-0.236
		l0.152-0.068v-0.168l-0.068-0.354l0.136-0.591l0.101-0.726v-0.896v-0.522l-0.034-0.626l0.068-0.235v-0.338l-0.102-0.186
		l-0.033-0.27l-0.136-0.557l-0.152-0.693l-0.034-0.235l-0.135-0.102l-0.169-0.556l0.067-0.339l-0.203-0.152h-0.153l-0.101-0.236
		l-0.27-0.27l-0.168-0.219l-0.523-0.338l-0.168-0.034l-0.388-0.168l-0.304-0.033l-0.168,0.033l-0.321-0.033l-0.236,0.033
		l-0.489,0.135l-0.304,0.236l-0.186,0.101l-0.337,0.355l-0.102,0.168l-0.168,0.305l-0.119,0.287l-0.033,0.101l-0.033,0.388
		l-0.068,0.305l-0.135,0.337l0.034-0.102l0.033,0.354l-0.101,0.27l0.068,0.456l-0.034,0.507v0.388l-0.102,0.27v0.624l0.102,0.219
		l-0.034,0.439l0.068,0.169l-0.034-0.135l0.066,0.624l-0.033,0.135l-0.034,0.625v0.286l0.168,0.068v0.404l-0.034,0.254l-0.101,0.305
		l-0.068,0.169l-0.068,0.168l0.168,0.624l-0.033,0.255v0.27l-0.136,0.134l0.136,0.39l0.135,0.168l0.034,0.456v0.305l0.185,0.133
		v0.169l-0.034,0.321l0.102,0.237l-0.035,0.218l-0.067,0.203v0.202v0.235l0.102,0.255l-0.068,0.201l0.068,0.236v0.254l-0.22,0.338
		l0.186,0.253l0.405,0.405l-0.102,0.236l0.136,0.557l0.067,0.253l0.034,0.272l0.186,0.369l0.27,0.254v0.134l0.136,0.136l0.386,0.355
		l0.102,0.133l0.304,0.137l0.102,0.168h0.186l0.337,0.068l0.202-0.034l0.187,0.034l0.506,0.251l0.187,0.338v0.288l-0.034,0.169
		l-0.034,0.134l-0.152,0.203l-0.033,0.152l-0.136,0.137l-0.203,0.168l-0.455,0.201l-0.237,0.036l-0.354,0.065l-0.169,0.034h-0.168
		l-0.236-0.202l-0.286,0.168l-0.169,0.067l-0.271-0.067l-0.152,0.034l-0.168-0.068l-0.372-0.067l-0.152-0.134l-0.439-0.034
		l-0.388,0.034h-0.169l-0.236-0.034l-0.355-0.102h-0.236l-0.422-0.168h-0.236l-0.203-0.068l-0.422,0.034l-0.135-0.084l-0.169-0.033
		l-0.186-0.035l-0.203-0.033l-0.135-0.034h-1.08l-0.439,0.034l-0.135,0.068l-0.422,0.033l-0.405,0.152l-0.152,0.134h-0.202
		l-0.456,0.373l-0.271,0.422l-0.134,0.102l-0.169,0.032l-0.219,0.103h-0.237l-0.27-0.034l-0.286-0.101l-0.304-0.236l-0.169-0.32
		l-0.185-0.691l0.067-0.271l0.153-0.421l0.202-0.236l0.101-0.203l0.271-0.169l0.59-0.457l0.389,0.034l0.101,0.135l-0.033-0.202
		l0.169-0.235l0.269-0.255l0.152-0.032l0.574-0.558l0.422-0.691l0.169-0.642v-0.319l0.034-0.203l-0.034-0.388l0.067-0.202
		l0.033-0.424l0.152-0.201l0.034-0.168v-0.236v-0.559l-0.102-0.387v-0.439l0.034-0.185l0.033-0.169l0.237-0.371l-0.068-0.287
		l-0.067-0.506v-0.322l0.033-0.27l-0.033-0.252l0.033-0.169l0.034-0.523l-0.034-0.337l0.034-0.17l0.136-0.219l0.067-0.304
		l-0.27-0.236l0.067-0.355v-0.404l-0.101-0.22l0.034-0.168l0.067-0.27v-1.047v-0.271v-0.624l0.034-0.39l-0.067-1.13v-0.354
		l-0.067-0.371l-0.034-0.169l-0.187-0.657l-0.033-0.793l-0.371-0.186l-0.135-0.168l-0.254-0.068h-0.168l-0.792-0.388l-0.423-0.373
		l-0.168-0.168l-0.135-0.187l-0.168-0.538l0.067-0.388v-0.17l0.168-0.17l0.489-0.489L129.184,249.733z"/>
	<path d="M158.869,254.356l0.624-0.067l0.203,0.101l0.354,0.118l0.306,0.338l0.168,0.235l0.101,0.187l0.219,0.136l0.136,0.102
		l0.102,0.201l0.134,0.169l0.254,0.186l0.202,0.102l0.136,0.102l0.793,0.168l0.422,0.103l0.27,0.421l-0.033,0.305l-0.067,0.32
		l-0.338,0.304l-0.321,0.218l-0.202,0.137l-0.101,0.169l-0.103,0.488v2.245l-0.116,0.405l-0.036,0.388v0.202l0.036,0.203
		l0.066,0.911l0.05,0.236v0.169v0.255v0.134l0.034,0.135l0.034,0.137l-0.067,0.201v0.187l0.137,0.337l-0.137,0.204v0.219
		l0.237,0.337l-0.135,0.252l-0.035,0.338l0.136,0.269l-0.101,0.288v0.237l0.034,0.354l0.135,0.692l0.169,0.067l0.32,0.033
		l0.27,0.102l0.169,0.169l0.134,0.202v0.287l-0.202,0.506l-0.17,0.153l-0.421,0.438l-0.438,0.287l-0.219,0.236l-0.136,0.388
		l-0.102,0.203l0.201,0.168l0.103,0.321l0.05,0.134l-0.116,0.438l-0.169,0.287l-0.371,0.135l-0.185,0.034h-0.203h-0.237
		l-0.354-0.103l-0.235-0.101l-0.17-0.032l-0.456-0.287l-0.336-0.137l-0.221-0.201l-0.202-0.219l-0.269-0.305l-0.152-0.168
		l-0.034-0.169l-0.135-0.187l-0.137-0.101l-0.202-0.067l-0.185-0.034l-0.067-0.135l-0.136-0.137l-0.17-0.065l-0.622-0.119
		l-0.49,0.185l-0.169,0.169l-0.168,0.456v0.271l0.134,0.203l0.237,0.388l0.116,0.235l-0.031,0.237l-0.085,0.185l-0.203,0.236
		l-0.405,0.168l-0.455-0.032l-0.202-0.034l-0.388-0.102l-0.137-0.067l-0.489-0.286l-0.203-0.136l-0.202-0.101l-0.134-0.103
		l-0.423-0.303l-0.168-0.219l-0.76-0.473l-0.253-0.22h-0.133l-0.136-0.068l-0.388-0.134l-0.371-0.103l-0.202-0.2l-0.086-0.254
		l0.052-0.304l0.068-0.136l0.168-0.286l0.557-0.657l0.102-0.237l0.034-0.203l0.066-0.422v-0.49l-0.034-0.639l-0.101-0.221
		l0.033-0.202l0.035-0.27l-0.068-0.287l0.168-0.136v-0.488l0.066-0.269l-0.032-0.17l-0.034-0.187l0.066-0.201l-0.032-0.473
		l0.032-0.219v-0.169l-0.134-0.204v-0.187l0.068-0.269l-0.034-0.692l-0.034-0.37l-0.236-0.388l0.101-0.339l0.102-0.219v-0.235
		l0.033-0.592l-0.033-0.236l-0.068-0.287l-0.034-0.235l-0.187-0.135h-0.168l-0.101-0.168h-0.373l-0.388-0.39l-0.034-0.235
		l0.169-0.592l0.136-0.168l0.877-0.911l0.102-0.135l0.168-0.203l0.203-0.304v-0.219l-0.136-0.202l-0.101-0.337l0.034-0.219
		l0.269-0.592l0.355-0.068h0.337l0.221,0.035l0.438,0.151l0.102,0.101l0.285,0.236l0.203,0.137l0.658,0.556l0.137,0.135l0.234,0.103
		l0.219,0.1l0.17,0.152l0.387,0.135l0.035,0.169h0.201l0.372,0.204l0.034,0.251v0.338l-0.135,0.254L156,257.583l-0.236,0.337
		l-0.034,0.137v0.15l-0.068,0.237l0.035,0.235l0.067,1.013v0.204l-0.103,0.487l0.068,0.475v1.383v0.253l-0.034,0.474l0.034,0.556
		l0.068,0.423l0.033,0.27l0.032,0.236l-0.065,0.186l0.033,0.607l-0.033,0.287l-0.034,0.624l-0.152,0.657l-0.103,0.203l-0.167,0.271
		l-0.102,0.456l0.135,0.235l0.421,0.033l0.136,0.035l0.135,0.067l0.523,0.033l0.135,0.084l0.271,0.034l0.388,0.066l0.304,0.067
		l0.523,0.103l0.271-0.17l-0.034-0.454l-0.237-0.203l-0.235-0.388l-0.136-0.826l0.034-0.794v-0.169l0.067-0.253v-0.101l0.034-0.373
		l-0.034-0.388l0.034-0.134l0.033-0.456l0.034-0.169l0.101-0.438l0.203-0.287l-0.236-0.066l-0.067-0.203l-0.067-0.388l0.033-0.271
		v-0.489l0.067-0.624v-0.174l0.034-0.169v-0.168l-0.034-0.22l-0.067-0.541l-0.101-0.253l-0.287-0.135l-0.203-0.137l-0.388-0.202
		l-0.203-0.318l-0.032-0.204l0.066-0.523l0.22-0.37l0.17-0.254l0.167-0.101l0.103-0.136l0.202-0.201l0.117-0.22l0.271-0.203
		l0.271-0.067l0.253-0.068l-0.151-0.234l-0.203-0.355l-0.068-0.305l0.034-0.184l0.067-0.237l0.321-0.372L158.869,254.356z
		 M155.376,247.318l0.37-0.084l0.186,0.084l0.963,0.034l0.338-0.084l0.15,0.084l0.271,0.034l0.371,0.034l0.151-0.068l0.506-0.034
		l0.288-0.084h0.236l0.522,0.321l0.136,0.304v0.32l-0.136,0.37l-0.135,0.136l-0.151,0.152l-0.237,0.067l-0.167,0.035l-0.203,0.201
		l-0.255,0.169l-0.168,0.558l-0.034,0.134l-0.203,0.557l-0.068,0.305l-0.487,0.81l-0.237,0.271l-0.388,0.456l-0.489,0.235h-0.135
		l-0.338,0.033l-0.151-0.067l-0.237-0.286l-0.136-0.169l-0.066-0.235v-0.271l0.236-0.354l0.253-0.203l0.102-0.219l0.033-0.405
		L156,250.001l-0.118-0.236l-0.135-0.27l-0.591-0.254l-0.371-0.202l-0.168-0.102l-0.321-0.354l-0.034-0.236v-0.169l0.067-0.253
		l0.22-0.271l0.202-0.169L155.376,247.318z"/>
	<path d="M172.065,254.12h0.101l0.491,0.032l0.522,0.458l0.203,0.507l0.068,0.15l0.1,0.237l0.271,0.034l0.286,0.624l0.102,0.169
		l0.201,0.303l0.067,0.187l0.103,0.304l0.05,0.32l0.068,0.169l0.134,0.134l0.337,0.458l0.102,0.69l0.221,0.034l0.303,0.033
		l0.134,0.169l0.153,0.135l0.101,0.354l-0.186,0.37l-0.371,0.388l-0.456,0.271l-0.726,0.303l-0.135,0.086l-0.405,0.438l-0.118,0.32
		l-0.066,0.203l-0.169,0.201l-0.337,0.136h-0.354l-0.103-0.101l-0.136-0.168l-0.218-0.34l-0.102-0.32l-0.202-0.488l-0.203-0.271
		l-0.102-0.235l-0.067-0.136l-0.151-0.319l-0.102-0.373l-0.034-0.117l-0.303-0.271l-0.254-0.589l-0.134-0.339l-0.169-0.321
		l-0.103-0.234l-0.1-0.136l-0.22-0.219l-0.168,0.117l-0.203,0.303l0.066,0.761l0.103,0.201l0.168,0.457l0.034,0.135l0.034,0.354
		l0.034,0.237l0.033,0.236l-0.033,0.287l0.151,0.201l-0.033,0.136l0.033,0.219l0.034,0.203l-0.152,0.303l0.085,0.103l0.034,0.523
		l0.034,0.203l0.033,0.387l-0.033,0.271l-0.153,0.287l-0.033,0.271v0.201l0.152,0.118l0.034,0.27l0.033,0.17l-0.101,0.033
		l-0.035,0.32l0.068,1.029l-0.152,0.624l-0.101,0.203l-0.034,0.168l-0.136,0.152l-0.067,0.169l-0.303,0.169l0.033,0.236l0.169,0.287
		l0.203,0.169l0.235,0.136l0.186,0.068l1.232,0.354l0.186,0.034H172l0.136,0.032h0.32l0.574-0.032v0.269l0.186-0.101l0.236-0.236
		l0.235-0.068l0.068-0.184v-0.136l0.102-0.203l-0.067-0.389l-0.066-0.133l-0.036-0.136l-0.1-0.306v-0.15l0.136-0.338l0.185-0.168
		l0.169-0.103l0.235-0.033l0.136-0.085l0.726,0.354l0.102,0.204l0.253,0.589v0.424l-0.066,0.606l-0.187,0.455l-0.135,0.322
		l-0.169,0.338l-0.236,0.303l-0.219,0.116l-0.067,0.137l-0.136,0.169l-0.405,0.337l-0.944,0.489l-0.473,0.388l-0.084,0.136
		l-0.067,0.304l0.151,0.319v0.474l-0.287,0.355l-0.692,0.068l-0.236-0.036l-0.388-0.066l-0.237-0.066l-0.759-0.255l-0.235-0.068
		l-0.288-0.201l-0.473-0.204l-0.389-0.252l-0.27-0.067l-0.456-0.271l-0.202-0.135l-0.488-0.169l-0.101-0.286l-0.456,0.067
		l-0.203-0.237h-0.202l-0.423-0.032l-0.236,0.032l-0.202-0.032l-0.151-0.103l-0.135-0.319v-0.203l0.101-0.354l0.186-0.203
		l0.235-0.271l0.068-0.169l0.033-0.286l0.102-0.305l0.068-0.979l0.066-0.373v-0.234v-0.354l0.066-0.271l0.221-0.219l-0.221-0.506
		v-0.423l0.086-1.35l-0.052-0.271v-0.286l-0.034-0.27v-0.171l0.034-0.169l-0.067-0.185v-0.135l0.034-0.168l0.034-0.271l-0.034-0.185
		l0.151-0.371l-0.032-0.135v-0.187l0.066-0.134l-0.066-0.371l-0.034-0.625l-0.052-0.255v-0.573l-0.303-0.117l0.034-0.405h-0.304
		l-0.152-0.203l-0.067-0.286l0.034-0.201l0.186-0.321l0.405-0.203h0.134l0.153,0.034l0.236,0.034l0.624-0.203h0.101l0.137-0.068
		l0.354-0.102l0.167-0.032l0.136-0.067l0.27-0.068l0.187-0.051l0.473-0.136l0.591-0.304l0.388-0.135l0.338-0.186l0.203-0.169
		l0.151-0.033l0.54-0.304l0.187-0.135l0.303-0.253l0.034-0.27l0.168-0.288l0.254-0.235L172.065,254.12z"/>
	<path d="M183.474,247.96l0.136,0.084l0.405-0.051l0.253,0.051l0.304,0.135l0.286,0.27l0.034,0.271l0.034,0.185v0.168l-0.136,0.305
		l-0.488,0.287l-0.17,0.033l-0.252,0.067l-0.371,0.169l-0.169,0.169l-0.152,0.186l-0.269,0.624l-0.068,0.137v0.135l-0.034,0.235
		l-0.033,0.592v0.388l-0.102,2.277l-0.084,0.995l-0.033,0.17l-0.068,0.253l0.151,0.271l-0.05,0.269l0.186,0.152v0.236l0.033,0.271
		l-0.067,0.251v0.372l-0.102,0.22l-0.116,0.405v0.201l0.066,0.187v0.135l-0.066,0.236l0.185,0.557v0.456l0.033,0.337v0.794
		l-0.1,0.101l-0.085,0.185v0.34l0.034,0.387l-0.034,0.27l-0.136,0.337l0.255,0.035l0.065,0.22v0.235v0.455l0.067,0.237l-0.033,0.168
		v0.691l0.033,0.321l-0.067,0.27L182.647,266l0.068,0.253l0.101,0.372v0.286l0.068,0.203l0.034,0.168l0.033,0.321l0.102,0.271
		l0.068,0.235l0.218,0.118l0.76,0.203l0.337,0.303l0.033,0.136v0.354l-0.235,0.371l-0.489,0.422l-0.236,0.169l-0.102,0.253
		l-0.388,0.068l-0.169,0.135l-0.423,0.49l-0.101,0.234l0.203,0.456l0.186,0.17l0.066,0.337l-0.187,0.456l-0.269,0.27l-0.236,0.033
		l-0.319-0.066l-0.137-0.102h-0.168l-0.102-0.066l-0.32-0.169l-0.235-0.287l-0.271-0.169l-0.354-0.203l-0.134-0.169l-0.137-0.187
		l-0.101-0.032l-0.389-0.271l-0.489-0.202l-0.371-0.185l-0.288-0.103l-0.27-0.133l-0.37-0.204l-0.119-0.102l-0.066-0.186
		l-0.066-0.338l0.169-0.354l0.185-0.169l0.136-0.066l0.337-0.169l0.253-0.489v-0.725l0.102-0.204l-0.102-0.168l-0.033-0.22
		l-0.035-0.168l0.103-0.17l0.067-0.556v-0.236l-0.067-0.422l0.168-0.103v-0.234l0.035-0.254l0.033-0.372l0.067-0.201l-0.067-0.187
		l-0.136-0.068v-0.405l-0.168-0.522l0.033-0.422l0.102-0.304l0.067-0.557l-0.034-0.202l0.067-0.759l0.034-0.39v-0.168l-0.102-0.303
		l0.067-0.187l-0.067-0.137l-0.067-0.894l0.034-0.59v-0.406v-0.252l0.034-0.27l0.136-0.32l0.201-0.203l-0.201-0.27l-0.169-0.49
		l-0.034-0.271l0.034-0.151l-0.034-0.135l0.067-0.169l-0.034-0.49l-0.034-0.573l-0.033-0.39l-0.067-2.209l-0.102-0.488l-0.051-0.338
		l-0.033-0.354l-0.473-0.541l-0.219-0.151l-0.203-0.305l-0.068-0.355l0.169-0.304l0.287-0.201l0.54-0.034l0.556,0.066l0.289,0.067
		l0.371,0.102h0.135l0.624,0.389l0.319,0.235l0.203,0.204l0.372,0.388l0.186,0.169l0.202-0.068l0.067-0.169l-0.136-0.219l0.339-0.86
		l0.185-0.203l0.438-0.624l0.49-0.203l0.304-0.15L183.474,247.96z"/>
	<path d="M192.908,254.086h0.487l0.306,0.202l0.067,0.219l0.454,0.726l0.338,0.574l0.151,0.388l0.237,0.372l0.135,0.319l0.068,0.204
		l-0.034,0.133l0.034,0.288l0.066,0.168l0.066,0.271l0.253,0.321l0.405,0.337l0.136,0.253l0.085,0.339l0.102,0.354l0.167,0.271
		l0.169,0.524l0.456,0.369l0.102,0.355l-0.067,0.303l-0.288,0.304l-0.134,0.254l-0.829,0.49l-0.556,0.337l-0.404,0.168l-0.169,0.135
		l-0.219,0.219l-0.169,0.068l-0.42,0.102l-0.271,0.203l-0.201,0.067l-0.592,0.354h-0.135l-0.253,0.203l-0.136,0.033l-0.473,0.455
		l-0.187,0.306l-0.033,0.135v0.151l-0.032,0.202l-0.271,0.271l-0.489-0.034l0.034,0.388l-0.034,0.271l-0.134,0.201l-0.103,0.322
		l-0.169,0.202l-0.085,0.202l0.051,0.321l0.136,0.236l0.17,0.032l0.168,0.068h0.203h0.421l0.321,0.152l0.472,0.034l0.389,0.032
		l0.203,0.035h0.134l0.456,0.066l0.472,0.034l0.456-0.067l0.203-0.135l0.068-0.152l0.083-0.169l-0.034-0.136v-0.135l-0.117-0.186
		l-0.135-0.235l-0.136-0.439l0.102-0.422l0.101-0.169l0.137-0.219l0.354-0.17l0.202-0.034h0.22l0.338,0.136l0.203,0.068l0.251,0.286
		l0.137,0.303l0.065,0.895l-0.065,0.153l-0.068,0.404l-0.067,0.422l-0.102,0.271l-0.185,0.135l-0.136,0.219l-0.033,0.203
		l-0.305,0.337l-0.253,0.253l-1.485,1.198l-0.136,0.219l-0.066,0.439l0.101,0.187l0.035,0.303l-0.068,0.271l-0.203,0.286
		l-0.185,0.033l-0.54,0.103l-0.254-0.067l-0.438-0.068l-0.219-0.067l-0.303-0.137l-0.202-0.116l-0.22-0.034l-0.202-0.033
		l-0.271-0.204l-0.32-0.065l-0.573-0.354l-0.186-0.068l-0.304-0.169l-0.355-0.204l-0.303-0.133l-0.489-0.322l-0.473-0.168
		l-0.423-0.203l-0.203-0.033h-0.523l-0.202-0.117l-0.252-0.237l-0.102-0.235l0.034-0.102l0.067-0.254l0.151-0.235l0.404-0.389
		l0.203-0.304l0.033-0.305l0.084-0.253l0.068-0.472v-0.221l-0.034-0.37v-0.219l-0.118-0.102l-0.033-0.304l0.186-0.102l-0.101-0.219
		l0.066-0.338l-0.034-0.202l-0.151-0.388l0.151-0.169l0.034-0.137V264.6l-0.034-0.557l0.034-0.134v-1.114l-0.034-0.236v-0.321
		l-0.033-0.474l0.033-0.319l-0.033-0.372l0.033-0.254l0.034-0.168l-0.066-0.135l-0.085-0.626l-0.034-0.388l0.034-0.271l-0.136-0.404
		l-0.102-0.152l-0.37-0.27l-0.119-0.135l-0.032-0.17l0.032-0.32l0.22-0.303l0.474-0.187l0.726-0.101l0.389-0.101l0.134-0.068
		l0.203-0.034l1.45-0.421l0.221-0.102h0.169l0.101-0.101l0.136-0.17l0.252,0.067l0.339-0.169l0.236-0.187l0.522-0.303l0.136-0.067
		l0.658-0.625l0.101-0.236l0.034-0.253l0.219-0.237L192.908,254.086z M190.629,257.478l-0.102,0.27v0.271l0.067,0.186l0.068,0.271
		l0.065,0.456l0.034,0.168l0.068,0.136l0.034,0.727l0.032,0.134l0.068,0.22l0.068,0.337l-0.103,0.236l0.103,0.321v0.201
		l-0.068,0.204l-0.101,0.354l0.032,0.134l0.035,0.137l-0.035,0.287l0.035,0.168v0.237l0.034,0.168l-0.068,0.319l0.102,0.17
		l0.457-0.589l0.488-0.17l0.068-0.17l0.134-0.065l0.135-0.103l0.203-0.067l0.288-0.49l0.066-0.135l-0.066-0.185l-0.169-0.305
		l-0.067-0.169l-0.051-0.219l-0.237-0.506l-0.489-1.249l-0.136-0.102l-0.336-0.658l-0.067-0.237l-0.422-0.725L190.629,257.478z"/>
	<path d="M204.351,254.12h0.187l0.37,0.032l0.792,0.39l0.169,0.271l0.32,0.101l1.097,0.827l0.287,0.135l0.506,0.287l0.153,0.067
		l0.202,0.068l0.201,0.067l0.49,0.202l0.421,0.118l0.541,0.37l0.068,0.389l-0.036,0.203l-0.1,0.201l-0.102,0.136l-0.1,0.488
		l0.032,0.203v0.22l-0.134,0.472l-0.067,0.455l0.101,0.524l-0.101,0.371v0.169l0.032,0.219l-0.032,0.169v0.455l-0.068,0.169v0.305
		l0.035,0.219l-0.035,0.406v0.269l0.068,0.153l0.032,0.27l-0.032,0.201l-0.068,0.322l0.101,0.37v0.287l-0.032,0.169l-0.104,0.657
		l-0.083,0.136l0.151,0.1l-0.068,0.136l0.136,0.88l0.068,0.471l-0.068,0.103l0.035,0.22l-0.035,0.168l0.101,0.303l0.305,0.102
		l0.287,0.388v0.136l-0.15,0.252l-0.137,0.204l-0.136,0.067l-0.456,0.102l-0.133,0.067l-0.169,0.102h-0.237l-0.253,0.032
		l-0.237,0.103l-0.27,0.084l-0.656,0.305l-0.354,0.101l-0.625,0.237l-0.136,0.083l-0.76,0.338l-0.271,0.236l-0.133,0.218
		l0.033,0.271l0.168,0.32l0.067,0.405l-0.136,0.27l-0.589,0.388l-0.423-0.032l-0.169-0.068l-0.136-0.034l-0.101-0.102l-0.455-0.288
		l-0.37-0.065l-0.068-0.136l-0.286-0.034l-0.137-0.067l-0.134-0.102l-0.254-0.101l-0.136-0.152l-0.557-0.304l-0.44-0.387
		l-0.894-0.405l-0.252-0.103l-0.203-0.102l-0.167-0.084h-0.136l-0.422-0.204l-0.236-0.065l-0.219-0.304l0.1-0.355l0.422-0.487
		l0.068-0.204l0.134-0.304l0.101-0.388l0.053-0.405l0.033-0.103l0.103-0.775l0.033-0.793l0.168-0.136l-0.201-0.202v-0.489v-0.438
		v-0.15l-0.034-0.204l0.064-0.304l-0.032-0.186l-0.032-0.473l0.136-0.456v-0.201l-0.136-0.236l0.032-0.219l0.104-0.337l-0.136-0.137
		l-0.035-0.319v-0.136v-0.32l0.067-0.169l-0.067-0.202l-0.033-0.234l0.033-0.524l-0.033-0.271l-0.035-0.59l-0.187-0.456
		l-0.202-0.136l-0.203-0.236l-0.065-0.286l0.033-0.102l0.103-0.169l0.066-0.134l0.404-0.186l0.355-0.103l0.302-0.033l0.459-0.102
		l0.2-0.034l0.456-0.135l0.456-0.168l0.76-0.22l0.302-0.271l0.423-0.236l0.302-0.287l0.169-0.303l0.068-0.22l-0.033-0.372
		l0.033-0.133l0.15-0.255l0.272-0.201L204.351,254.12z M203.591,257.681l-0.271,0.101v0.202l0.036,0.151l0.133,0.271v0.656
		l0.035,0.625v0.44l0.033,0.151v0.1v0.171v0.337v0.186v0.168l-0.033,0.271l0.066,0.219v0.54l0.034,0.219l0.033,0.271l-0.067,0.303
		l-0.066,0.354l0.237,0.524v0.135l-0.169,0.439l0.032,0.252l-0.032,0.271l-0.101,0.286l0.068,0.135l-0.068,0.338l-0.068,0.658
		l-0.067,0.423l-0.137,0.303l-0.184,0.388l-0.067,0.17l0.15,0.168l0.506,0.203l0.219,0.033h0.136l0.441,0.117h0.319l0.169,0.035
		l0.692,0.134h0.201l0.354-0.033l0.068-0.253v-0.135l-0.39-0.439l-0.201-0.354l-0.104-0.659l0.036-0.235l0.068-0.859l0.032-0.355
		v-0.203l-0.032-0.102l0.032-0.319l-0.065-0.168l0.033-0.592l0.235-0.237l0.035-0.134l-0.203-0.388l0.032-0.304l0.171-0.39
		l-0.238-0.27v-0.169l-0.065-0.423v-0.659l-0.068-0.27l0.068-0.319v-0.37l0.065-0.237l-0.032-0.32l0.067-0.271l0.134-0.286v-0.271
		l-0.507,0.136l-0.219-0.068l-0.236-0.067l-0.27-0.169l-0.252-0.185l-0.203-0.203l-0.456-0.134L203.591,257.681z"/>
</g>
<path d="M220.765,254.01l1.903,3.901l4.347,0.671l-3.187,2.985l0.694,4.274l-3.873-2.06l-3.92,1.972l0.796-4.258l-3.117-3.055
	l4.362-0.573L220.765,254.01z"/>
<path d="M87.055,254.01l1.901,3.901l4.348,0.671l-3.187,2.985l0.693,4.274l-3.871-2.06l-3.92,1.972l0.794-4.258l-3.116-3.055
	l4.362-0.573L87.055,254.01z"/>
<g>
	<path d="M98.015,228.619c-0.345,0-0.649-0.041-0.91-0.122c-0.262-0.081-0.491-0.188-0.685-0.324
		c-0.193-0.134-0.357-0.286-0.49-0.457c-0.132-0.171-0.242-0.345-0.329-0.526c-0.201-0.417-0.316-0.895-0.345-1.43l1.376-0.345
		c0.013,0.389,0.071,0.734,0.172,1.036c0.043,0.129,0.098,0.256,0.165,0.38c0.066,0.124,0.148,0.234,0.246,0.333
		c0.097,0.097,0.211,0.175,0.343,0.233c0.132,0.061,0.284,0.09,0.457,0.09c0.692,0,1.039-0.345,1.039-1.036
		c0-0.172-0.022-0.332-0.065-0.482c-0.043-0.148-0.107-0.293-0.194-0.431c-0.085-0.139-0.193-0.274-0.324-0.406
		c-0.13-0.13-0.28-0.266-0.452-0.406l-1.727-1.381c-0.176-0.14-0.33-0.299-0.461-0.478c-0.131-0.179-0.241-0.366-0.327-0.564
		c-0.086-0.197-0.15-0.398-0.192-0.604c-0.041-0.205-0.061-0.407-0.061-0.608c0-0.311,0.052-0.606,0.156-0.89
		c0.104-0.281,0.258-0.528,0.46-0.744c0.202-0.213,0.455-0.384,0.756-0.509c0.302-0.126,0.65-0.189,1.045-0.189
		c0.345,0,0.65,0.037,0.912,0.108c0.263,0.072,0.492,0.167,0.686,0.286c0.195,0.119,0.358,0.253,0.492,0.404
		c0.133,0.15,0.243,0.304,0.33,0.459c0.203,0.371,0.317,0.789,0.345,1.258l-1.38,0.345c-0.014-0.323-0.072-0.612-0.173-0.864
		c-0.044-0.107-0.099-0.212-0.165-0.314c-0.067-0.103-0.149-0.195-0.247-0.275c-0.097-0.082-0.211-0.147-0.343-0.197
		c-0.131-0.051-0.284-0.076-0.457-0.076c-0.181,0-0.337,0.028-0.469,0.085c-0.132,0.055-0.239,0.13-0.324,0.224
		c-0.085,0.095-0.147,0.202-0.187,0.329c-0.04,0.125-0.058,0.259-0.058,0.398c0,0.237,0.054,0.482,0.167,0.73
		c0.113,0.247,0.288,0.466,0.524,0.653l1.727,1.382c0.22,0.176,0.415,0.368,0.587,0.578c0.17,0.211,0.316,0.431,0.434,0.659
		c0.119,0.23,0.21,0.467,0.27,0.71c0.062,0.242,0.092,0.481,0.092,0.718c0,0.3-0.049,0.584-0.146,0.855
		c-0.097,0.272-0.246,0.512-0.446,0.721c-0.199,0.208-0.451,0.375-0.753,0.498C98.786,228.556,98.429,228.619,98.015,228.619z"/>
	<path d="M104.266,226.105l-0.485,2.416h-1.379l2.023-9.666h1.426l2.074,9.666h-1.33l-0.519-2.416H104.266z M105.854,225.07
		l-0.69-4.144l-0.691,4.144H105.854z"/>
	<path d="M113.917,228.521l-2.47-6.43v6.43h-1.381v-9.666h0.905l2.546,6.311v-6.311h1.381v9.666H113.917z"/>
	<path d="M121.872,218.855v1.133h-1.726v8.533h-1.38v-8.533h-1.727v-1.133H121.872z"/>
	<path d="M124.013,218.855h1.381v9.666h-1.381V218.855z"/>
	<path d="M129.397,226.105l-0.484,2.416h-1.38l2.024-9.666h1.427l2.073,9.666h-1.329l-0.519-2.416H129.397z M130.986,225.07
		l-0.691-4.144l-0.69,4.144H130.986z"/>
	<path d="M139.168,221.963c0-0.345-0.024-0.647-0.07-0.906c-0.047-0.26-0.125-0.477-0.232-0.648c-0.108-0.173-0.25-0.302-0.426-0.39
		c-0.177-0.085-0.394-0.128-0.653-0.128c-0.257,0-0.476,0.043-0.652,0.128c-0.176,0.088-0.319,0.217-0.425,0.39
		c-0.108,0.172-0.186,0.389-0.233,0.648c-0.046,0.259-0.069,0.562-0.069,0.906v3.106c0,0.518,0.039,0.935,0.118,1.25
		c0.08,0.317,0.184,0.562,0.313,0.734c0.129,0.172,0.276,0.288,0.443,0.345c0.165,0.058,0.334,0.087,0.506,0.087
		c0.173,0,0.342-0.029,0.507-0.087c0.165-0.057,0.312-0.173,0.441-0.345c0.13-0.173,0.235-0.417,0.313-0.734
		c0.079-0.315,0.119-0.732,0.119-1.25v-0.345h-1.382v-1.036h2.763v4.832h-1.036l-0.345-1.035c-0.076,0.213-0.176,0.4-0.302,0.566
		c-0.054,0.073-0.116,0.142-0.186,0.211c-0.07,0.068-0.151,0.129-0.24,0.181c-0.09,0.052-0.189,0.094-0.296,0.127
		c-0.108,0.032-0.227,0.048-0.356,0.048c-0.288,0-0.556-0.024-0.804-0.073c-0.248-0.048-0.475-0.13-0.68-0.245
		s-0.386-0.269-0.544-0.458c-0.159-0.19-0.292-0.43-0.402-0.718c-0.11-0.287-0.192-0.626-0.248-1.014
		c-0.057-0.388-0.085-0.84-0.085-1.354v-2.448c0-0.518,0.047-0.994,0.141-1.43c0.095-0.436,0.248-0.809,0.464-1.123
		c0.215-0.312,0.5-0.556,0.852-0.732c0.352-0.176,0.788-0.265,1.305-0.265c0.457,0,0.857,0.071,1.2,0.213
		c0.343,0.143,0.631,0.349,0.864,0.621c0.232,0.271,0.406,0.605,0.523,1.005c0.118,0.399,0.175,0.855,0.175,1.364h-1.381V221.963z"
		/>
	<path d="M148.211,225.415c0,0.432-0.045,0.84-0.134,1.23c-0.089,0.388-0.241,0.728-0.453,1.02c-0.211,0.29-0.495,0.523-0.85,0.694
		c-0.354,0.174-0.795,0.26-1.324,0.26c-0.36,0-0.677-0.039-0.955-0.118c-0.277-0.08-0.517-0.188-0.72-0.33
		c-0.204-0.139-0.374-0.309-0.515-0.506c-0.141-0.198-0.253-0.416-0.337-0.652c-0.084-0.237-0.145-0.49-0.18-0.762
		c-0.035-0.269-0.054-0.547-0.054-0.835v-3.452c0-0.287,0.017-0.566,0.054-0.837c0.037-0.27,0.096-0.523,0.18-0.759
		c0.084-0.238,0.197-0.456,0.337-0.653c0.141-0.198,0.311-0.366,0.515-0.507c0.203-0.142,0.443-0.25,0.72-0.33
		c0.277-0.078,0.595-0.119,0.955-0.119c0.529,0,0.971,0.089,1.324,0.26c0.355,0.174,0.638,0.405,0.85,0.696
		c0.212,0.29,0.364,0.631,0.453,1.02s0.134,0.799,0.134,1.229V225.415z M144.068,225.759c0,0.259,0.024,0.495,0.07,0.707
		c0.047,0.211,0.124,0.394,0.232,0.545s0.25,0.268,0.427,0.352c0.176,0.082,0.394,0.123,0.652,0.123s0.476-0.041,0.652-0.123
		c0.176-0.084,0.318-0.2,0.426-0.352s0.185-0.332,0.232-0.545c0.046-0.213,0.07-0.448,0.07-0.707v-4.141
		c0-0.26-0.024-0.496-0.07-0.707c-0.047-0.212-0.124-0.395-0.232-0.545c-0.108-0.152-0.25-0.269-0.426-0.353
		c-0.177-0.082-0.394-0.123-0.652-0.123s-0.476,0.041-0.652,0.123c-0.176,0.084-0.318,0.2-0.427,0.353
		c-0.107,0.15-0.185,0.332-0.232,0.545c-0.046,0.211-0.07,0.447-0.07,0.707V225.759z"/>
	<path d="M156.943,218.855c0.431,0,0.799,0.063,1.104,0.189s0.557,0.308,0.75,0.545c0.194,0.236,0.336,0.526,0.426,0.868
		c0.09,0.341,0.136,0.728,0.136,1.161c0,0.431-0.062,0.798-0.184,1.104c-0.123,0.305-0.291,0.555-0.507,0.75
		c-0.216,0.194-0.472,0.336-0.766,0.426c-0.296,0.089-0.615,0.136-0.96,0.136h-1.037v4.486h-1.382v-9.666H156.943z M156.251,222.998
		c0.345,0,0.63-0.022,0.854-0.07c0.223-0.046,0.397-0.123,0.526-0.231c0.13-0.108,0.221-0.249,0.271-0.426
		c0.05-0.177,0.075-0.394,0.075-0.651c0-0.26-0.011-0.496-0.028-0.707c-0.018-0.212-0.08-0.395-0.188-0.545
		c-0.106-0.152-0.277-0.269-0.512-0.353c-0.233-0.081-0.566-0.123-0.999-0.123h-0.345v3.106H156.251L156.251,222.998z"/>
	<path d="M163.019,226.105l-0.485,2.416h-1.38l2.026-9.666h1.425l2.073,9.666h-1.329l-0.52-2.416H163.019z M164.605,225.07
		l-0.69-4.144l-0.69,4.144H164.605z"/>
	<path d="M171.41,228.619c-0.345,0-0.648-0.041-0.91-0.122c-0.264-0.081-0.49-0.188-0.685-0.324
		c-0.193-0.133-0.357-0.286-0.491-0.457c-0.133-0.171-0.242-0.345-0.328-0.526c-0.201-0.417-0.315-0.895-0.345-1.43l1.376-0.345
		c0.013,0.389,0.071,0.734,0.172,1.036c0.042,0.129,0.098,0.256,0.165,0.38c0.066,0.124,0.148,0.234,0.246,0.333
		c0.096,0.097,0.212,0.175,0.345,0.233c0.13,0.061,0.282,0.09,0.455,0.09c0.692,0,1.038-0.345,1.038-1.036
		c0-0.172-0.021-0.332-0.064-0.482c-0.043-0.148-0.107-0.293-0.193-0.431c-0.087-0.139-0.195-0.274-0.325-0.406
		c-0.128-0.13-0.28-0.266-0.453-0.406l-1.726-1.381c-0.176-0.14-0.329-0.299-0.461-0.478c-0.131-0.179-0.239-0.366-0.326-0.564
		c-0.087-0.197-0.15-0.398-0.191-0.604c-0.04-0.205-0.062-0.407-0.062-0.608c0-0.311,0.052-0.606,0.155-0.89
		c0.105-0.281,0.259-0.528,0.462-0.744c0.202-0.213,0.453-0.384,0.757-0.509c0.301-0.126,0.649-0.189,1.043-0.189
		c0.347,0,0.651,0.037,0.914,0.108c0.264,0.072,0.491,0.167,0.686,0.286c0.193,0.119,0.358,0.253,0.491,0.404
		c0.133,0.15,0.243,0.304,0.328,0.459c0.203,0.371,0.319,0.789,0.347,1.258l-1.382,0.345c-0.014-0.323-0.071-0.612-0.171-0.864
		c-0.044-0.107-0.099-0.212-0.166-0.314s-0.149-0.195-0.246-0.275c-0.097-0.082-0.211-0.147-0.343-0.197
		c-0.133-0.051-0.285-0.076-0.458-0.076c-0.18,0-0.337,0.028-0.466,0.085c-0.133,0.055-0.241,0.13-0.326,0.224
		c-0.083,0.095-0.146,0.202-0.186,0.329c-0.041,0.125-0.06,0.259-0.06,0.398c0,0.237,0.056,0.482,0.168,0.73
		c0.11,0.247,0.285,0.466,0.523,0.653l1.726,1.382c0.221,0.176,0.417,0.368,0.588,0.578c0.17,0.211,0.315,0.431,0.435,0.659
		c0.119,0.23,0.209,0.467,0.271,0.71c0.062,0.242,0.092,0.481,0.092,0.718c0,0.3-0.048,0.584-0.146,0.855
		c-0.097,0.272-0.245,0.512-0.445,0.721c-0.198,0.208-0.45,0.375-0.754,0.498C172.18,228.556,171.824,228.619,171.41,228.619z"/>
	<path d="M180.63,218.855v1.133h-1.726v8.533h-1.381v-8.533h-1.727v-1.133H180.63z"/>
	<path d="M188.12,225.415c0,0.432-0.044,0.84-0.135,1.23c-0.091,0.388-0.241,0.728-0.453,1.02c-0.212,0.29-0.495,0.523-0.849,0.694
		c-0.355,0.174-0.796,0.26-1.324,0.26c-0.36,0-0.679-0.039-0.954-0.118c-0.277-0.08-0.52-0.188-0.721-0.33
		c-0.204-0.139-0.375-0.309-0.516-0.506c-0.141-0.198-0.253-0.416-0.339-0.652c-0.084-0.237-0.143-0.49-0.18-0.762
		c-0.035-0.269-0.055-0.547-0.055-0.835v-3.452c0-0.287,0.02-0.566,0.055-0.837c0.037-0.27,0.096-0.523,0.18-0.759
		c0.086-0.237,0.198-0.456,0.339-0.653c0.141-0.198,0.312-0.366,0.516-0.507c0.201-0.142,0.443-0.25,0.721-0.33
		c0.275-0.078,0.594-0.119,0.954-0.119c0.528,0,0.969,0.089,1.324,0.26c0.354,0.174,0.636,0.405,0.849,0.696
		c0.213,0.29,0.363,0.631,0.453,1.02c0.089,0.389,0.135,0.799,0.135,1.229V225.415z M183.977,225.759
		c0,0.259,0.025,0.495,0.072,0.707c0.045,0.211,0.123,0.394,0.231,0.545c0.107,0.151,0.249,0.268,0.425,0.352
		c0.177,0.082,0.395,0.123,0.653,0.123c0.258,0,0.475-0.041,0.651-0.123c0.176-0.084,0.318-0.2,0.427-0.352
		c0.106-0.151,0.185-0.332,0.231-0.545s0.07-0.448,0.07-0.707v-4.141c0-0.26-0.023-0.496-0.07-0.707
		c-0.047-0.212-0.124-0.395-0.231-0.545c-0.108-0.152-0.251-0.269-0.427-0.353c-0.177-0.081-0.394-0.123-0.651-0.123
		c-0.259,0-0.477,0.041-0.653,0.123c-0.176,0.084-0.317,0.2-0.425,0.353c-0.107,0.15-0.187,0.332-0.231,0.545
		c-0.047,0.211-0.072,0.447-0.072,0.707V225.759z"/>
	<path d="M194.298,228.521l-1.448-4.487h-1.035v4.487h-1.381v-9.666h1.726c0.604,0,1.106,0.062,1.505,0.186
		c0.399,0.125,0.718,0.3,0.956,0.526c0.236,0.227,0.403,0.498,0.5,0.817c0.098,0.318,0.146,0.672,0.146,1.061
		c0,0.236-0.017,0.451-0.051,0.642c-0.034,0.189-0.081,0.36-0.139,0.51s-0.122,0.28-0.195,0.395
		c-0.071,0.112-0.146,0.21-0.221,0.289c-0.176,0.191-0.379,0.326-0.606,0.41l1.558,4.831H194.298z M191.814,222.998h0.345
		c0.259,0,0.494-0.025,0.706-0.073c0.213-0.048,0.396-0.13,0.546-0.252c0.15-0.118,0.269-0.276,0.35-0.477
		c0.084-0.198,0.124-0.449,0.124-0.752s-0.04-0.553-0.124-0.752c-0.082-0.2-0.199-0.358-0.35-0.479
		c-0.15-0.118-0.333-0.203-0.546-0.251c-0.212-0.048-0.447-0.073-0.706-0.073h-0.345V222.998z"/>
	<path d="M197.753,218.855h1.381v9.666h-1.381V218.855z"/>
	<path d="M205.471,228.521l-2.469-6.43v6.43h-1.383v-9.666h0.906l2.545,6.311v-6.311h1.382v9.666H205.471z"/>
	<path d="M214.288,225.415c0,0.432-0.046,0.84-0.136,1.23c-0.091,0.388-0.242,0.728-0.453,1.02c-0.212,0.29-0.496,0.523-0.848,0.694
		c-0.355,0.174-0.796,0.26-1.324,0.26c-0.36,0-0.678-0.039-0.954-0.118c-0.277-0.08-0.52-0.188-0.723-0.33
		c-0.204-0.139-0.376-0.309-0.514-0.506c-0.141-0.198-0.254-0.416-0.337-0.652c-0.087-0.237-0.146-0.49-0.182-0.762
		c-0.035-0.269-0.056-0.547-0.056-0.835v-3.452c0-0.287,0.021-0.566,0.056-0.837c0.035-0.27,0.095-0.523,0.182-0.759
		c0.083-0.237,0.196-0.456,0.337-0.653c0.138-0.198,0.31-0.366,0.514-0.507c0.203-0.142,0.445-0.25,0.723-0.33
		c0.273-0.078,0.594-0.119,0.954-0.119c0.528,0,0.969,0.089,1.324,0.26c0.352,0.174,0.636,0.405,0.848,0.696
		c0.214,0.29,0.364,0.631,0.453,1.02c0.09,0.389,0.136,0.799,0.136,1.229V225.415z M210.145,225.759
		c0,0.259,0.025,0.495,0.071,0.707c0.047,0.211,0.123,0.394,0.23,0.545c0.109,0.151,0.25,0.268,0.429,0.352
		c0.173,0.082,0.393,0.123,0.649,0.123c0.259,0,0.478-0.041,0.654-0.123c0.176-0.084,0.317-0.2,0.426-0.352
		c0.104-0.151,0.184-0.332,0.231-0.545s0.069-0.448,0.069-0.707v-4.141c0-0.26-0.021-0.496-0.069-0.707
		c-0.048-0.212-0.124-0.395-0.231-0.545c-0.108-0.152-0.25-0.269-0.426-0.353c-0.177-0.081-0.396-0.123-0.654-0.123
		c-0.257,0-0.477,0.041-0.649,0.123c-0.179,0.084-0.319,0.2-0.429,0.353c-0.105,0.15-0.184,0.332-0.23,0.545
		c-0.046,0.211-0.071,0.447-0.071,0.707V225.759z"/>
</g>
</svg>
