<?xml version="1.0" encoding="utf-8"?>
<!-- Generator: Adobe Illustrator 16.0.0, SVG Export Plug-In . SVG Version: 6.00 Build 0)  -->
<!DOCTYPE svg PUBLIC "-//W3C//DTD SVG 1.1//EN" "http://www.w3.org/Graphics/SVG/1.1/DTD/svg11.dtd">
<svg version="1.1" id="Capa_1" xmlns="http://www.w3.org/2000/svg" xmlns:xlink="http://www.w3.org/1999/xlink" x="0px" y="0px"
	 width="307.158px" height="295.802px" viewBox="0 0 307.158 295.802" enable-background="new 0 0 307.158 295.802"
	 xml:space="preserve">
<path fill="#FFFFFF" d="M156.004,0l0.597,123.169L175.862,1.613l-18.08,121.749l37.449-116.95l-36.312,117.332l54.712-109.465
	l-53.646,110.026l70.631-99.284L160.95,125.029l84.81-86.659l-83.966,87.53l96.903-71.899l-96.199,72.896L269.104,71.53
	l-106.064,56.466l113.687-37.474l-113.316,38.648l117.967-18.659l-117.78,19.876l119.345,0.618l-119.345,0.616l117.78,19.878
	l-117.967-18.659l113.316,38.646l-113.687-37.474l106.064,56.467l-106.605-55.369l96.199,72.896l-96.903-71.897l83.966,87.53
	l-84.81-86.657l69.665,100.008l-70.631-99.285l53.646,110.026l-54.712-109.465l36.312,117.331l-37.449-116.949l18.08,121.748
	l-19.261-121.556l-0.597,123.17l-0.598-123.17l-19.26,121.556l18.079-121.748L116.779,255.6l36.31-117.332L98.377,247.732
	l53.647-110.025l-70.63,99.284l69.664-100.008L66.246,223.64l83.967-87.53l-96.901,71.897l96.198-72.895L42.903,190.48
	l106.064-56.466L35.282,171.487l113.316-38.647L30.631,151.5l117.781-19.878l-119.343-0.616l119.343-0.617L30.631,110.512
	l117.967,18.659L35.282,90.522l113.686,37.474L42.903,71.53l106.606,55.367L53.312,54.003l96.901,71.898l-83.967-87.53
	l84.812,86.658L81.394,25.02l70.631,99.284L98.376,14.278l54.712,109.464L116.779,6.412l37.448,116.95L136.146,1.614l19.26,121.556
	L156.004,0z"/>
<g>
	<rect x="87.266" y="209.828" fill="#FFFFFF" width="138.021" height="32.24"/>
	<path d="M223.445,211.671v28.557H89.108v-28.557H223.445 M227.13,207.985H85.424v35.926H227.13V207.985L227.13,207.985z"/>
</g>
<g>
	<g>
		<polygon fill="#D9DADB" points="214.128,294.174 214.128,285.153 94.349,285.153 94.349,294.174 5.443,294.174 25.054,269.471 
			5.443,244.764 44.065,244.764 44.065,235.744 264.177,235.744 264.177,244.764 302.375,244.764 286.685,269.471 302.375,294.174 
					"/>
		<path d="M261.55,238.373v9.02h36.041l-14.02,22.076l14.02,22.075h-80.834v-9.02H91.72v9.02H10.886l17.525-22.075l-17.525-22.076
			h35.809v-9.02H261.55 M266.806,233.114h-5.256H46.694h-5.258v5.259v3.763h-30.55H0l6.769,8.525l14.93,18.81l-14.93,18.805
			L0,296.802h10.886H91.72h5.257v-5.258v-3.762H211.5v3.762v5.258h5.257h80.834h9.567l-5.131-8.076l-12.229-19.255l12.229-19.259
			l5.131-8.076h-9.567h-30.785v-3.763V233.114L266.806,233.114z"/>
	</g>
	<polygon fill="#B0B4B7" points="91.72,291.545 91.72,247.393 10.886,247.393 28.411,269.471 10.886,291.545 	"/>
	<polygon fill="#B0B4B7" points="297.591,247.393 216.757,247.393 216.757,291.545 297.591,291.545 283.571,269.471 	"/>
	<polygon points="41.376,245.406 41.376,285.758 79.331,294.349 93.681,293.267 50.377,245.406 	"/>
	<polygon points="266.822,245.232 266.822,285.584 228.867,294.174 214.516,293.091 257.82,245.232 	"/>
	<polygon fill="#8B8B8B" points="261.55,238.373 261.55,282.524 216.757,291.545 216.58,247.393 	"/>
	<polygon fill="#8B8B8B" points="46.694,238.373 46.694,282.524 91.487,291.545 91.663,247.393 	"/>
	<rect x="46.694" y="238.373" fill="#D9DADB" width="214.855" height="44.151"/>
</g>
<g>
	<path d="M94.542,253.604h0.489l0.304,0.205l0.067,0.217l0.456,0.728l0.338,0.574l0.152,0.389l0.237,0.372l0.135,0.319l0.067,0.203
		l-0.034,0.135l0.034,0.288l0.068,0.168l0.067,0.269l0.254,0.323l0.405,0.337l0.135,0.252l0.084,0.337l0.101,0.354l0.169,0.271
		l0.17,0.523l0.455,0.372l0.101,0.354l-0.067,0.305l-0.286,0.303l-0.136,0.252l-0.827,0.49l-0.558,0.339l-0.405,0.168l-0.169,0.135
		l-0.218,0.22l-0.169,0.067l-0.423,0.101l-0.269,0.203l-0.204,0.068l-0.591,0.354h-0.135l-0.254,0.203l-0.135,0.031l-0.473,0.456
		l-0.186,0.305l-0.034,0.135v0.153l-0.034,0.201l-0.271,0.269l-0.489-0.032l0.034,0.388l-0.034,0.271l-0.135,0.203l-0.101,0.319
		l-0.169,0.203l-0.083,0.202l0.051,0.322l0.135,0.235l0.169,0.034l0.169,0.065h0.203h0.422l0.321,0.154l0.473,0.032l0.387,0.036
		l0.203,0.031h0.135l0.456,0.07l0.473,0.033l0.457-0.069l0.203-0.133l0.067-0.154l0.084-0.168l-0.035-0.134v-0.135l-0.117-0.188
		l-0.136-0.236l-0.135-0.44l0.101-0.421l0.102-0.167l0.135-0.221l0.354-0.169l0.202-0.035h0.22l0.337,0.137l0.204,0.067l0.253,0.287
		l0.134,0.304l0.068,0.895l-0.068,0.152l-0.066,0.405l-0.068,0.423l-0.102,0.27l-0.186,0.135l-0.135,0.22l-0.034,0.203l-0.304,0.337
		l-0.253,0.252l-1.485,1.2l-0.135,0.22l-0.067,0.438l0.101,0.186l0.033,0.304l-0.067,0.271l-0.203,0.288l-0.186,0.034l-0.541,0.1
		l-0.253-0.068l-0.439-0.065l-0.219-0.067l-0.304-0.136l-0.202-0.117l-0.219-0.035l-0.203-0.034l-0.27-0.202l-0.321-0.067
		l-0.574-0.354l-0.185-0.067l-0.304-0.169l-0.355-0.203l-0.303-0.136l-0.49-0.318l-0.472-0.169l-0.423-0.203l-0.202-0.033h-0.523
		l-0.202-0.118l-0.255-0.237l-0.101-0.237l0.033-0.101l0.067-0.254l0.152-0.234l0.406-0.391l0.202-0.304l0.034-0.304l0.084-0.253
		l0.068-0.474v-0.219l-0.034-0.371v-0.22l-0.118-0.102l-0.034-0.304l0.187-0.102l-0.101-0.218l0.066-0.338l-0.033-0.204
		l-0.152-0.388l0.152-0.168l0.033-0.134v-0.138l-0.033-0.556l0.033-0.136v-1.113l-0.033-0.237v-0.321l-0.034-0.473l0.034-0.322
		l-0.034-0.369l0.034-0.253l0.033-0.169l-0.066-0.135l-0.086-0.626l-0.033-0.389l0.033-0.268l-0.135-0.406l-0.102-0.152
		l-0.372-0.271l-0.117-0.133l-0.034-0.169l0.034-0.322l0.22-0.303l0.472-0.187l0.726-0.102l0.388-0.1l0.134-0.068l0.203-0.035
		l1.453-0.421l0.219-0.104h0.169l0.101-0.099l0.137-0.17l0.252,0.067l0.339-0.17l0.235-0.186l0.524-0.302l0.135-0.068l0.659-0.626
		l0.101-0.237l0.034-0.253l0.219-0.233L94.542,253.604z M92.263,257.001l-0.102,0.27v0.27l0.068,0.186l0.068,0.27l0.067,0.456
		l0.035,0.168l0.067,0.138l0.034,0.724l0.034,0.137l0.066,0.22l0.069,0.337l-0.102,0.236l0.102,0.32v0.203l-0.069,0.202
		l-0.101,0.354l0.034,0.135l0.033,0.136l-0.033,0.288l0.033,0.168v0.237l0.033,0.167l-0.066,0.321l0.1,0.169l0.456-0.592l0.49-0.169
		l0.068-0.167l0.135-0.067l0.136-0.101l0.203-0.068l0.286-0.49l0.068-0.136l-0.068-0.186l-0.169-0.304l-0.067-0.171l-0.051-0.216
		l-0.237-0.508l-0.489-1.248l-0.136-0.102l-0.337-0.66l-0.068-0.234l-0.422-0.726L92.263,257.001z"/>
	<path d="M106.277,247.477l0.136,0.085l0.405-0.051l0.253,0.051l0.304,0.135l0.287,0.271l0.034,0.271l0.033,0.184v0.17l-0.135,0.303
		l-0.489,0.288l-0.169,0.034l-0.253,0.065l-0.371,0.169l-0.169,0.169l-0.152,0.187l-0.27,0.627l-0.067,0.132v0.137l-0.034,0.236
		l-0.034,0.591v0.391l-0.101,2.275l-0.084,0.997l-0.034,0.17l-0.067,0.252l0.152,0.272l-0.051,0.27l0.185,0.151v0.237l0.034,0.269
		l-0.067,0.255v0.369l-0.101,0.22l-0.118,0.405v0.201l0.068,0.188v0.135l-0.068,0.235l0.185,0.559v0.456l0.034,0.337v0.792
		l-0.101,0.104l-0.085,0.186v0.338l0.034,0.388l-0.034,0.27l-0.136,0.339l0.254,0.033l0.067,0.221v0.236v0.455l0.067,0.236
		l-0.034,0.17v0.691l0.034,0.319l-0.067,0.271l-0.101,0.304l0.067,0.251l0.102,0.373v0.287l0.067,0.203l0.035,0.168l0.034,0.321
		l0.101,0.269l0.067,0.237l0.219,0.118l0.76,0.203l0.338,0.304l0.034,0.135v0.356l-0.237,0.37l-0.488,0.423l-0.237,0.168
		l-0.101,0.254l-0.389,0.066l-0.168,0.136l-0.423,0.488l-0.101,0.237l0.203,0.455l0.185,0.17l0.068,0.337l-0.186,0.456l-0.271,0.271
		l-0.236,0.033l-0.32-0.068l-0.135-0.102h-0.168l-0.102-0.067l-0.321-0.167l-0.236-0.288l-0.271-0.168l-0.354-0.204l-0.135-0.167
		l-0.135-0.188l-0.102-0.032l-0.388-0.271l-0.489-0.202l-0.372-0.186l-0.286-0.103l-0.27-0.134l-0.372-0.202l-0.118-0.102
		l-0.068-0.187l-0.067-0.337l0.168-0.355l0.187-0.168l0.136-0.066l0.337-0.17l0.253-0.489v-0.726l0.101-0.203l-0.101-0.169
		l-0.034-0.219l-0.033-0.17l0.102-0.168l0.067-0.557v-0.237l-0.067-0.423l0.168-0.099v-0.238l0.033-0.254l0.034-0.371l0.067-0.2
		l-0.067-0.187l-0.135-0.067V263.5l-0.169-0.524l0.034-0.422l0.101-0.305l0.067-0.556l-0.034-0.203l0.068-0.76l0.033-0.388v-0.169
		l-0.101-0.303l0.068-0.188l-0.068-0.135l-0.067-0.893l0.034-0.593v-0.404v-0.253l0.033-0.271l0.135-0.319l0.203-0.201l-0.203-0.271
		l-0.168-0.489l-0.034-0.27l0.034-0.152l-0.034-0.136l0.067-0.168l-0.034-0.49l-0.034-0.575l-0.033-0.389l-0.068-2.211l-0.101-0.489
		l-0.051-0.338l-0.034-0.354l-0.473-0.543l-0.22-0.149l-0.203-0.306l-0.067-0.354l0.168-0.305l0.287-0.202l0.54-0.033l0.557,0.067
		l0.287,0.066l0.371,0.101h0.136l0.625,0.391l0.32,0.235l0.203,0.202l0.372,0.39l0.185,0.17l0.203-0.07l0.067-0.167l-0.134-0.219
		l0.336-0.862l0.187-0.202l0.438-0.625l0.49-0.203l0.304-0.151L106.277,247.477z"/>
	<path d="M117.793,249.352h0.49l0.489,0.304l0.27,0.118l0.136,0.203l0.1,0.133l0.152,0.137l0.204,0.253l0.861,0.203h0.168
		l0.625-0.137l0.321-0.066l0.135,0.066l0.658-0.033l0.136-0.033l0.202-0.034l0.388-0.117l0.439-0.034l0.253-0.035l0.406-0.136
		l0.168,0.036h0.153l0.928-0.103l0.591-0.034l0.135-0.066l0.388-0.068h0.135l0.371,0.136h0.169l0.186-0.032l0.54,0.032l0.186,0.034
		l0.338,0.032l0.202,0.034l0.288,0.103l0.372,0.102l-0.068-0.102l0.287,0.102l0.271,0.151l0.659,0.306l0.168,0.1l0.169,0.034
		l0.151,0.102l0.238,0.067l0.422,0.22l0.067,0.237l0.27,0.133l0.136,0.287l0.169,0.137l0.083,0.168l0.135,0.035l0.136,0.134
		l0.202,0.456l0.288,0.235l0.067,0.253l0.102,0.104l0.168,0.235l0.068,0.17l0.252,0.185l0.034,0.204l0.068,0.489l0.203,0.506
		l0.134,0.558l0.203,0.456l0.085,0.201l0.067,0.168l0.102,0.17l0.034,0.152l-0.321,0.573l-0.1,0.354l-0.136,0.337v0.321
		l-0.102,0.489l-0.067,0.305l-0.101,0.135l-0.068,0.423l-0.152,0.202l-0.168,0.727l-0.068,0.305l-0.168,0.117h-0.203l-0.254,0.271
		l-0.337,0.761l-0.388,0.354l-0.17,0.237l-0.135,0.237l-0.254,0.167l-0.405,0.455l-0.236,0.036l-0.253,0.201l-0.134,0.117
		l-0.136,0.137l-0.287,0.202l-0.203,0.102l-0.27-0.035l-0.187,0.135l-0.203,0.136l-0.168,0.051l-0.304,0.168l-0.321-0.033
		l-0.338,0.169l-0.455,0.067l-0.203-0.168h-0.355l-0.203,0.065l-0.304,0.035l-0.185-0.169l-0.305-0.068l-0.489-0.218l-0.658-0.575
		l-0.067-0.288l-0.033-0.624l0.033-0.168l0.203-0.524l0.152-0.135l0.101-0.101l0.169-0.137l0.271-0.101l0.658,0.034l0.422,0.407
		l0.069,0.216v0.137l0.067,0.37l0.32-0.065l0.271-0.271l0.37-0.49l0.559-1.317l0.033-0.203l-0.067-0.387l0.034-0.34l0.1-0.269
		l0.152-0.424v-0.203l0.034-0.168l-0.118-0.422l-0.102-0.422l0.287-0.37l-0.102-0.355l0.102-0.338l-0.068-0.135l-0.119-0.321
		l-0.067-0.438l0.152-0.49l-0.085-0.203l-0.337-0.591l0.034-0.356l-0.101-0.201l-0.169-0.692l-0.422-0.759l-0.168-0.271
		l-0.202-0.151l-1.047-0.574l-0.405,0.035h-0.321l-0.135,0.033l-0.456,0.303l-0.168,0.287l-0.169,0.472v0.322l-0.034,0.271
		l-0.22,0.202v0.286l-0.033,0.168l0.033,0.237l-0.067,0.456l0.034,0.304l-0.034,0.287v0.338l0.067,0.287l-0.033,0.339v0.168
		l-0.034,1.082v0.336v0.186l-0.067,0.236l0.102,0.304l0.033,0.252l-0.169,0.762l0.203,0.542v0.183l-0.101,0.239l0.152,0.522
		l-0.085,0.404v0.188l0.085,0.201v0.135l-0.118,0.39v0.202l0.118,0.305l-0.051,0.558l0.152,0.234l-0.033,0.253v0.271l0.033,0.286
		l0.136,0.676l0.034,0.287l0.033,0.236l0.067,0.455l0.169,0.405l0.101,0.39l0.186,0.203v0.134l-0.068,0.219l0.203,0.828l0.169,0.438
		h0.32l0.101,0.153l0.067,0.169v0.405l0.102,0.353l0.489,0.491l0.169,0.066l0.203-0.033l0.389,0.133l0.134-0.065l0.405-0.286
		l0.118-0.306l0.101-0.488l0.305-0.405l0.556-0.253h0.271l0.287,0.035h0.136l0.371,0.25l-0.034,0.271h0.152l0.169,0.034l0.135,0.354
		l0.034,0.236l-0.068,0.421l-0.168,0.44l-0.187,0.321l-0.304,0.371l-0.135,0.135l-0.388,0.186l-0.169,0.136l-0.303,0.201
		l-0.491,0.068l-0.236,0.101l-0.422,0.103l-0.237,0.083h-0.135l-0.118-0.033l-0.203,0.068l-0.591,0.033l-0.659-0.068h-0.203
		l-0.237-0.032h-0.355l-0.136,0.032l-0.235-0.117l-0.979-0.067l-0.136-0.102l-0.236-0.032l-0.861-0.17l-0.389-0.389l-0.304,0.288
		h-0.135l-0.253-0.068h-0.271l-0.22-0.034l-0.135,0.034l-0.135-0.066l-0.236,0.033l-0.101-0.033l-0.625-0.034l-0.691,0.034
		l-0.288,0.033l-0.692,0.27l-0.237,0.169l-0.27,0.288l-0.101,0.168l-0.034,0.135l-0.22,0.035l-0.135,0.1l-0.625,0.255l-0.37,0.032
		l-0.219-0.032l-0.204-0.086l-0.303-0.169l-0.287-0.269l-0.035-0.168l-0.033-0.187l-0.068-0.271l0.034-0.271l0.168-0.422
		l0.287-0.423l0.405-0.472l0.152-0.034l0.202-0.17l0.439-0.354l0.219-0.066h0.135l0.338-0.235l0.422-0.253l0.456-0.44l0.271-0.253
		l0.067-0.235l0.135-0.238l0.067-0.253l0.034-0.507l0.084-0.286l0.033-0.202l0.068-0.169l0.067-0.355v-0.337l-0.136-0.288v-0.371
		l0.237-0.455l-0.034-0.372l0.067-0.521l-0.168-0.171l0.101-0.355l0.202-0.437l0.17-0.151l-0.305-0.729l0.068-0.168l-0.034-0.27
		l-0.034-0.592l0.034-0.136l-0.034-0.253v-0.202l0.337-0.895l-0.101-0.288l-0.27-0.507l0.101-0.219l0.034-0.338l-0.135-0.487
		l0.101-0.795l-0.068-0.169l-0.033-0.202v-0.32l-0.067-0.337l-0.135-0.104l-0.035-0.287l0.068-0.134l0.102-0.203l-0.135-0.49
		l0.101-0.236l-0.136-0.22l-0.033-0.101v-0.17l0.135-0.268l-0.135-0.424v-0.135l-0.084-0.169l-0.068-0.185l-0.034-0.238
		l-0.135-0.136l-0.034-0.269l-0.135-0.219l-0.355-0.271l-0.337-0.168l-0.236-0.119l-0.32-0.234l-0.271-0.272l-0.034-0.167
		l-0.102-0.22l-0.119-0.405l0.035-0.152v-0.135l0.59-0.659l0.22-0.168L117.793,249.352z"/>
	<path d="M137.75,253.842h0.489l0.203,0.035l0.118,0.034l0.27,0.033l0.17,0.033l0.388,0.086l0.303,0.103l0.321,0.1l0.304,0.202
		l0.591,0.489l0.101,0.202l0.456,0.693l0.136,0.237l0.168,0.151h0.27l0.321-0.085l0.337-0.338l0.32-0.337l0.102-0.456l-0.034-0.17
		v-0.185l0.067-0.203l0.237-0.372l0.253-0.151h0.237l0.135-0.033l0.388,0.066l0.134,0.05l0.136,0.139l0.303,0.234l0.254,0.102
		l0.304,0.319l0.169,0.067l0.557,0.238l0.135,0.032l0.254,0.069h0.169l0.337,0.285l0.186,0.305l0.068,0.236v0.152l-0.035,0.137
		l-0.287,0.438l-0.203,0.288l-0.203,0.167l-0.135,0.271l-0.524,0.388l-0.102,0.203l-0.389,0.623v0.137l-0.033,0.219l0.033,0.168
		l-0.033,0.27l-0.034,0.389l-0.338,0.44l-0.151,0.103l-0.204,0.084l-0.236-0.05l-0.32-0.034l-0.271-0.271l-0.237-0.456l-0.101-0.541
		v0.136l-0.084-0.389l-0.203-0.438l-0.067-0.135l-0.203-0.219l-0.355-0.204h-0.236l-0.237,0.035l-0.218,0.169l-0.068,0.219
		l-0.034,0.167l-0.034,0.238l0.034,0.86v0.101l0.034,0.254l0.034,0.203l0.034,0.488l0.033,0.304l0.219,0.321l-0.067,0.236
		l-0.118,0.236l-0.034,0.255l-0.067,0.169v0.236v0.167l0.034,0.187l0.152,0.17v1.098l-0.051,0.15l-0.068,0.507l0.186,0.591
		l-0.067,0.237l-0.085,0.185l-0.135,0.37l-0.102,0.288l-0.168,0.035l-0.135,0.134l-0.034,0.237l-0.118,0.168l-0.102,0.355l0.254,0.1
		h0.169l0.236,0.069l0.169,0.034l0.151,0.034l0.439,0.031l0.219,0.035l0.27,0.067l0.49,0.052l0.373,0.1l0.422,0.136l0.236,0.592
		l-0.068,0.37l-0.304,0.422l-0.523,0.305l-0.98,0.355l-0.235,0.102l-0.204,0.065l-0.168,0.172l-0.067,0.25v0.169l0.135,0.337
		l0.035,0.356v0.269l-0.035,0.203l-0.286,0.219l-0.507,0.236l-0.321-0.034l-0.625-0.269l-0.169-0.118l-0.202-0.168l-0.22-0.103
		l-0.203-0.269l-0.168-0.068l-0.236-0.185l-0.288-0.203l-0.169-0.068h-0.388l-0.372-0.422l-0.355-0.101l-0.27-0.136h-0.236
		l-0.321-0.168l-0.405-0.22l-0.186-0.203l-0.034-0.27l0.084-0.202l0.236-0.355l0.372-0.135l0.186-0.135l0.169-0.219l0.169-0.271
		v-0.488l0.033-0.17l0.034-0.133l-0.067-0.66l0.101-0.202l0.068-0.187l0.033-0.827l-0.067-0.372v-0.287l-0.135-0.27l-0.034-0.171
		l0.067-0.487l0.136-0.339l-0.068-0.489l0.102-0.271l0.084-0.252l-0.084-0.305l-0.135-0.557l0.288-0.168l-0.186-0.32l-0.034-0.138
		l0.034-0.1l-0.034-0.388l-0.034-0.171l0.034-0.591l-0.034-0.236v-0.339l-0.067-0.254l-0.168-0.168l-0.135-0.101l-0.186-0.103
		l-0.135-0.065l-0.591-0.067l-0.136-0.084l-0.135-0.137l-0.101-0.303v-0.137l0.034-0.218l0.135-0.271l0.102-0.167l0.252-0.288
		l0.202-0.202l0.102-0.137l0.135-0.133l0.186-0.187l0.136-0.305l0.168-0.456l-0.135-0.371l-0.033-0.136l-0.102-0.219v-0.271
		l0.27-0.488L137.75,253.842z"/>
	<path d="M153.756,253.64h0.188l0.37,0.033l0.794,0.389l0.169,0.271l0.321,0.101l1.095,0.827l0.288,0.137l0.507,0.286l0.151,0.068
		l0.203,0.066l0.202,0.069l0.49,0.202l0.423,0.117l0.541,0.37l0.068,0.391l-0.036,0.201l-0.101,0.203l-0.102,0.135l-0.102,0.489
		l0.036,0.203v0.219l-0.135,0.473l-0.068,0.456l0.101,0.524l-0.101,0.372v0.168l0.035,0.22l-0.035,0.168v0.456l-0.069,0.167v0.305
		l0.036,0.22l-0.036,0.404v0.271l0.069,0.151l0.035,0.27l-0.035,0.204l-0.069,0.319l0.104,0.371v0.289l-0.035,0.168l-0.101,0.658
		l-0.086,0.134l0.153,0.103l-0.067,0.135l0.136,0.88l0.066,0.473l-0.066,0.101l0.034,0.219l-0.034,0.168l0.101,0.303l0.304,0.104
		l0.286,0.387v0.136l-0.152,0.252l-0.134,0.203l-0.136,0.068l-0.455,0.101l-0.136,0.067l-0.167,0.102h-0.238l-0.253,0.035
		l-0.237,0.101l-0.269,0.086l-0.659,0.303l-0.354,0.1l-0.625,0.238l-0.135,0.085l-0.76,0.338l-0.269,0.236l-0.136,0.218l0.034,0.271
		l0.169,0.318l0.067,0.405l-0.135,0.271l-0.592,0.388l-0.422-0.034l-0.168-0.065l-0.135-0.034l-0.101-0.103l-0.456-0.288
		l-0.372-0.065l-0.066-0.135l-0.289-0.035l-0.135-0.068l-0.135-0.1l-0.253-0.102l-0.135-0.152l-0.557-0.304l-0.439-0.388
		l-0.895-0.405l-0.253-0.103l-0.203-0.101l-0.169-0.084h-0.134l-0.423-0.203l-0.236-0.067l-0.219-0.305l0.102-0.354l0.422-0.489
		l0.067-0.202l0.135-0.303l0.101-0.39l0.051-0.405l0.034-0.103l0.101-0.775l0.035-0.795l0.168-0.135l-0.203-0.202v-0.49v-0.438
		v-0.151l-0.033-0.203l0.068-0.306l-0.035-0.186l-0.033-0.471l0.135-0.457v-0.203l-0.135-0.236l0.033-0.221l0.102-0.337
		l-0.135-0.136l-0.034-0.319v-0.137v-0.32l0.067-0.169l-0.067-0.201l-0.033-0.238l0.033-0.523l-0.033-0.27l-0.034-0.59l-0.186-0.456
		l-0.203-0.135l-0.202-0.237l-0.067-0.287l0.034-0.101l0.101-0.171l0.068-0.133l0.405-0.188l0.354-0.103l0.304-0.032l0.456-0.101
		l0.203-0.035l0.456-0.135l0.456-0.168l0.76-0.221l0.305-0.27l0.422-0.236l0.304-0.286l0.169-0.305l0.067-0.22l-0.035-0.37
		l0.035-0.135l0.153-0.253l0.268-0.202L153.756,253.64z M152.999,257.203l-0.271,0.101v0.203l0.033,0.151l0.136,0.27v0.658
		l0.034,0.626v0.438l0.033,0.152v0.101v0.169v0.338v0.187v0.168l-0.033,0.27l0.067,0.22v0.539l0.033,0.221l0.035,0.271l-0.067,0.303
		l-0.067,0.355l0.237,0.522v0.137L153,264.039l0.033,0.252L153,264.562l-0.102,0.288l0.067,0.135l-0.067,0.337l-0.067,0.659
		l-0.069,0.423l-0.135,0.303l-0.185,0.39l-0.067,0.168l0.15,0.17l0.506,0.201l0.221,0.035h0.134l0.439,0.117h0.32l0.168,0.032
		l0.692,0.138h0.204l0.354-0.034l0.068-0.253v-0.135l-0.389-0.44l-0.203-0.354l-0.101-0.659l0.035-0.235l0.066-0.861l0.034-0.354
		v-0.202l-0.034-0.103l0.034-0.319l-0.068-0.169l0.034-0.59l0.237-0.238l0.034-0.135l-0.202-0.387l0.033-0.305l0.168-0.391
		l-0.236-0.27v-0.166l-0.067-0.424v-0.658l-0.067-0.271l0.067-0.32v-0.371l0.067-0.237l-0.034-0.319l0.068-0.271l0.135-0.286v-0.271
		l-0.507,0.137l-0.218-0.068l-0.236-0.068l-0.271-0.168l-0.253-0.185l-0.202-0.202l-0.456-0.138L152.999,257.203z"/>
	<path d="M167.805,247.206h0.371l0.456,0.102l0.304,0.389l0.524,0.472l1.047,1.082l0.371,0.236l0.169,0.068h0.319l0.237,0.034
		l0.354,0.066l0.067,0.489l-0.034,0.236l-0.117,0.153l-0.169,0.102l-0.136,0.067l-0.135,0.066l-0.286,0.203l-0.168,0.102
		l-0.273,0.15l-0.166,0.137l-0.254,0.168l-0.169,0.271l-0.034,0.152v0.607l-0.136,0.187l-0.285,0.2l-0.171,0.035l-0.304-0.067
		l-0.285-0.168l-0.728-0.862l-0.271-0.522l-0.202-0.491l-0.285,0.035l-0.238-0.169l-0.134-0.202l-0.188-0.153l-0.403-0.135
		l-0.137,0.034l-0.187,0.101l0.086,0.98l0.337,0.204l0.168,0.269l0.221,0.524l0.066,0.557v0.169l0.034,0.423l-0.034,0.37
		l-0.066,0.354l-0.354,0.372l-0.136,0.354l-0.271,0.474l0.828-0.508l0.271,0.103l0.794,0.034l0.252,0.033l0.135-0.033l0.591-0.034
		l0.271-0.103l0.236-0.134l0.102-0.152l0.285-0.169l0.305-0.067h0.423l0.271,0.305l0.064,0.286v0.27l-0.234,0.659l-0.102,0.135
		l-0.101,0.152h-0.187l0.153,0.034l-0.036,0.338l0.103,0.236v0.254v0.235l0.034,0.271l0.033,0.151l0.033,0.237l-0.033,0.169
		l-0.033,0.354l-0.287,0.474l-0.27,0.286h-0.76l-0.203-0.102l-0.068-0.253l-0.049-0.405l0.049-0.219l0.035-0.574l-0.422-0.252
		l-0.238,0.032h-1.146l-0.135,0.103l-0.068,1.146l0.035,0.271v1.316v0.524l0.033,0.625v0.137v0.201l0.066,0.287l0.169,0.136
		l0.034,0.135l-0.034,0.354l-0.034,0.137l-0.034,0.236l0.034,0.236l-0.034,0.253l-0.102,0.303l0.102,0.39l-0.032,0.236l-0.034,0.859
		l-0.136,0.491l-0.067,0.304l-0.254,0.353l-0.304,0.594l-0.201,0.371l0.066,0.168l0.338,0.085l0.354,0.066l0.505-0.186l0.254,0.389
		l0.692,0.136l0.17,0.033l0.337,0.067h0.15l0.102,0.068h0.169l0.558,0.187l0.169,0.168l0.169,0.404l-0.069,0.187l-0.203,0.337
		l-0.234,0.271l-0.81,0.777l-0.306,0.505l0.066,0.22l0.288,0.236l0.068,0.102v0.423l-0.153,0.135l-0.337,0.237l-0.17,0.102
		l-0.319,0.033l-0.202-0.033h-0.101h-0.204l-0.217-0.068l-0.34-0.101l-0.251-0.102l-0.339-0.203l-0.169-0.118l-0.187-0.034
		l-0.269-0.167l-0.27-0.171l-0.187-0.168L165,271.32l-0.169-0.117l-0.186-0.067l-0.17-0.202h-0.133l-0.102-0.134l-0.456-0.204
		l-0.507-0.22h-0.186h-0.169l-0.101-0.066l-0.203-0.068l-0.22-0.166l-0.202-0.254l0.034-0.475l0.2-0.286l0.154-0.169l0.136-0.168
		l0.101-0.203l-0.034-0.219l0.066-0.204l0.035-0.27l0.103-0.946v-0.37v-0.557v-0.271l-0.103-0.151
		c-0.022-0.045-0.035-0.09-0.035-0.136s0.013-0.09,0.035-0.136l0.203-0.169l0.065-0.203v-0.156l0.036-0.304l-0.036-0.86
		l-0.033-0.254l-0.067-0.962v-0.136v-0.168l-0.168-0.388l0.103-0.457l0.101-0.573v-0.256l-0.101-0.169v-0.166l0.101-0.592
		l-0.067-0.236l0.067-0.288v-0.136v-0.438v-0.287v-0.137v-0.421l0.134-0.203l-0.472-0.033l-0.169-0.034h-0.154l-0.268,0.066
		l-0.203,0.034l-0.287,0.034l-0.236-0.034l-0.134-0.066l-0.221-0.034l-0.134-0.306v-0.149l0.033-0.761v-0.168l0.152-0.828
		l0.371-0.034h0.168l0.253,0.068h0.54l0.388-0.137l0.372,0.068l0.085-0.236l-0.117-0.187l-0.137-0.475l0.035-0.691l-0.035-0.456
		l-0.065-0.591v-0.168v-0.269l-0.138-0.221l-0.354-0.37l-0.37-0.169l-0.203-0.288l-0.152-0.49l0.085-0.135l0.067-0.168l0.338-0.304
		l0.457-0.036l0.337,0.036l0.523-0.067l0.236-0.051h0.219l0.474-0.135l0.321-0.068l0.691-0.235l0.763-0.39l0.572-0.405l0.254-0.219
		l0.135-0.236l0.17-0.524L167.805,247.206z"/>
	<path d="M179.523,253.604h0.49l0.304,0.205l0.065,0.217l0.458,0.728l0.337,0.574l0.151,0.389l0.237,0.372l0.135,0.319l0.067,0.203
		l-0.034,0.135l0.034,0.288l0.068,0.168l0.066,0.269l0.253,0.323l0.406,0.337l0.133,0.252l0.086,0.337l0.102,0.354l0.169,0.271
		l0.169,0.523l0.455,0.372l0.101,0.354l-0.066,0.305l-0.286,0.303l-0.135,0.252l-0.829,0.49l-0.557,0.339l-0.404,0.168l-0.17,0.135
		l-0.221,0.22l-0.167,0.067l-0.423,0.101l-0.27,0.203l-0.202,0.068l-0.593,0.354h-0.135l-0.252,0.203l-0.136,0.031l-0.473,0.456
		l-0.187,0.305l-0.033,0.135v0.153l-0.035,0.201l-0.269,0.269l-0.49-0.032l0.034,0.388l-0.034,0.271l-0.135,0.203l-0.102,0.319
		l-0.17,0.203l-0.085,0.202l0.054,0.322l0.134,0.235l0.169,0.034l0.168,0.065h0.203h0.422l0.321,0.154l0.472,0.032l0.389,0.036
		l0.202,0.031h0.136l0.457,0.07l0.473,0.033l0.454-0.069l0.202-0.133l0.067-0.154l0.085-0.168l-0.033-0.134v-0.135l-0.119-0.188
		l-0.134-0.236l-0.136-0.44l0.102-0.421l0.102-0.167l0.134-0.221l0.354-0.169l0.204-0.035h0.218l0.339,0.137l0.203,0.067
		l0.253,0.287l0.136,0.304l0.067,0.895l-0.067,0.152l-0.067,0.405l-0.068,0.423l-0.1,0.27l-0.187,0.135l-0.137,0.22l-0.033,0.203
		l-0.305,0.337l-0.252,0.252l-1.486,1.2l-0.136,0.22l-0.068,0.438l0.103,0.186l0.035,0.304l-0.068,0.271l-0.201,0.288l-0.187,0.034
		l-0.541,0.1l-0.253-0.068l-0.438-0.065l-0.222-0.067l-0.302-0.136l-0.203-0.117l-0.222-0.035l-0.201-0.034l-0.27-0.202l-0.32-0.067
		l-0.575-0.354l-0.185-0.067l-0.305-0.169l-0.354-0.203l-0.304-0.136l-0.49-0.318l-0.474-0.169l-0.422-0.203l-0.203-0.033h-0.522
		l-0.202-0.118l-0.253-0.237l-0.102-0.237l0.035-0.101l0.066-0.254l0.15-0.234l0.406-0.391l0.201-0.304l0.034-0.304l0.086-0.253
		l0.066-0.474v-0.219l-0.034-0.371v-0.22l-0.118-0.102l-0.034-0.304l0.187-0.102l-0.101-0.218l0.066-0.338l-0.032-0.204
		l-0.151-0.388l0.151-0.168l0.032-0.134v-0.138l-0.032-0.556l0.032-0.136v-1.113l-0.032-0.237v-0.321l-0.036-0.473l0.036-0.322
		l-0.036-0.369l0.036-0.253l0.032-0.169l-0.066-0.135l-0.086-0.626l-0.031-0.389l0.031-0.268l-0.134-0.406l-0.102-0.152
		l-0.372-0.271l-0.117-0.133l-0.033-0.169l0.033-0.322l0.22-0.303l0.474-0.187l0.725-0.102l0.389-0.1l0.135-0.068l0.202-0.035
		l1.453-0.421l0.218-0.104h0.169l0.103-0.099l0.136-0.17l0.252,0.067l0.338-0.17l0.235-0.186l0.525-0.302l0.136-0.068l0.658-0.626
		l0.102-0.237l0.034-0.253l0.218-0.233L179.523,253.604z M177.244,257.001l-0.102,0.27v0.27l0.067,0.186l0.068,0.27l0.066,0.456
		l0.033,0.168l0.067,0.138l0.034,0.724l0.035,0.137l0.067,0.22l0.064,0.337l-0.099,0.236l0.099,0.32v0.203l-0.064,0.202
		l-0.103,0.354l0.035,0.135l0.033,0.136l-0.033,0.288l0.033,0.168v0.237l0.034,0.167l-0.067,0.321l0.102,0.169l0.456-0.592
		l0.488-0.169l0.068-0.167l0.136-0.067l0.134-0.101l0.204-0.068l0.285-0.49l0.067-0.136l-0.067-0.186l-0.167-0.304l-0.068-0.171
		l-0.05-0.216l-0.237-0.508l-0.489-1.248l-0.135-0.102l-0.339-0.66l-0.067-0.234l-0.423-0.726L177.244,257.001z"/>
	<path d="M191.494,253.47l0.203,0.036l0.59,0.203l0.137,0.101l0.152,0.102l0.438,0.185l0.17,0.1l0.285,0.138l0.17,0.101l0.558,0.271
		l1.03,0.591l0.387,0.034l0.474-0.237l0.424-0.169l0.338,0.034h0.149l0.203,0.136l0.202,0.39l-0.032,0.37l-0.035,0.168l-0.369,0.526
		l-0.489,0.336l-0.17,0.086l-0.253,0.166l-0.237,0.137l-0.271,0.202l-0.285,0.102l-0.033,0.253l-0.138,0.136l-0.033,0.269
		l0.033,0.187l0.034,0.303l-0.101,0.355l-0.136,0.168l-0.219,0.103l-0.372,0.034l-0.235-0.034l-0.659-0.204l-0.152-0.185
		l-0.135-0.035l-0.202-0.167l-0.793-0.557l-0.492-0.372l-0.303-0.288l-0.32-0.236l-0.135-0.169l-0.135-0.034l-0.456-0.423
		l0.186,0.456l0.068,0.339v0.153v0.473l-0.036,0.252l-0.032,0.237v0.404v0.22l0.032,0.37l0.137,0.32l0.403,0.271l0.187,0.033
		l0.169,0.036l0.101,0.065h0.271l0.624,0.221l0.254,0.032l0.794,0.169h0.269l0.458,0.235l0.505,0.138l0.254,0.186l0.269,0.067
		l0.169,0.033l0.253,0.066l0.305,0.169l0.389,0.491l0.101,0.506l-0.066,0.22l0.101,0.237l-0.068,0.354l-0.032,0.438l0.032,0.136
		l0.036,0.625l-0.102,0.319v0.304v0.137l-0.102,0.658l0.033,0.168l-0.033,0.152v0.135v0.559l0.033,0.169v0.37l0.068,0.219
		l0.269,0.203l0.068,0.203v0.135l-0.168,0.354l-0.305,0.306h-0.187l-0.542,0.065l-0.42,0.188l-0.271,0.033h-0.354l-0.456,0.17
		l-0.338,0.202l-0.389-0.103l-0.135,0.271l-0.271,0.151l-0.727,0.236l-0.169,0.136l-0.354,0.522l0.136,0.491v0.136l-0.102,0.404
		l-0.305,0.321l-0.421,0.134l-0.271-0.035l-0.219,0.035l-0.829-0.303l-0.269-0.221l-0.354-0.168l-0.103-0.101l-0.27-0.203
		l-0.102-0.068l-0.354-0.318l-0.135-0.138l-0.203-0.167l-0.202-0.151l-0.524-0.305l-0.388-0.134h-0.593l-0.506,0.368l-0.133,0.389
		l-0.085,0.271l0.05,0.39l0.066,0.134l0.138,0.137l0.268,0.135l0.169-0.035l0.321-0.1l0.135-0.102h0.321l0.304,0.102l0.202,0.202
		l0.137,0.151l0.084,0.137l0.033,0.438l-0.033,0.118l-0.084,0.236l-0.204,0.337l-0.305,0.321l-0.623,0.136h-0.256h-0.37
		l-0.202-0.103l-0.151-0.033l-0.135,0.033l-0.169-0.135l-0.27-0.187l-0.524-0.474l-0.102-0.134l-0.102-0.187l-0.218-0.54v-0.186
		l-0.103-0.574l-0.034-0.389v-0.236l0.137-0.456l0.117-0.37l0.101-0.22l0.068-0.135l0.271-0.559l0.134-0.102l0.22-0.101l0.439-0.338
		l0.489-0.32l0.269-0.202l0.135-0.104l0.188-0.284l0.135-0.271l0.034-0.202l-0.034-0.286l0.102-0.339l0.455-0.456l0.339-0.068
		l0.726,0.068l0.254,0.135l0.441,0.22l0.455,0.27l0.37,0.27l0.135,0.152l0.354,0.237l0.304-0.102l0.288,0.304l0.827,0.491
		l0.455,0.168l0.404,0.033l0.237-0.033l0.119-0.137l0.099-0.236l-0.522-0.624l-0.236-0.524l-0.034-0.169l-0.034-0.32l0.068-0.862
		l-0.068-0.522l-0.188-0.101l-0.438-0.169l-0.253-0.066l-0.236-0.135l-0.269-0.069l-0.288-0.067l-0.101-0.149l-0.761-0.138h-0.235
		l-0.39-0.168l-0.624-0.236l-0.204-0.118l-0.27-0.066l-0.658-0.372l-0.203-0.254l-0.389-0.472l-0.099-0.288l-0.068-0.727
		l-0.033-0.372v-0.455v-0.438l0.102-0.355l0.032-0.168l0.034-0.203l-0.034-0.286l0.066-0.271l-0.099-0.169l0.032-0.253l0.135-0.269
		l-0.135-0.237l-0.101-0.49l-0.423-0.32l-0.067-0.17l0.034-0.369l0.134-0.22l0.22-0.169l0.305-0.102h0.135l0.169,0.034l0.354-0.066
		l0.135-0.034l0.523-0.137l0.406,0.103l0.22-0.068l0.202-0.1l0.422-0.119h0.271l0.422-0.068l0.168-0.066l0.135-0.034l0.271-0.102
		l0.102-0.135l0.084-0.235l-0.084-0.356l0.05-0.168l0.067-0.202l0.371-0.39l0.287-0.134L191.494,253.47z"/>
	<path d="M204.698,253.64h0.186l0.372,0.033l0.794,0.389l0.167,0.271l0.32,0.101l1.099,0.827l0.287,0.137l0.507,0.286l0.152,0.068
		l0.201,0.066l0.202,0.069l0.49,0.202l0.423,0.117l0.541,0.37l0.066,0.391l-0.033,0.201l-0.102,0.203l-0.103,0.135l-0.101,0.489
		l0.034,0.203v0.219l-0.135,0.473l-0.068,0.456l0.103,0.524l-0.103,0.372v0.168l0.035,0.22l-0.035,0.168v0.456l-0.066,0.167v0.305
		l0.033,0.22l-0.033,0.404v0.271l0.066,0.151l0.035,0.27l-0.035,0.204l-0.066,0.319l0.102,0.371v0.289l-0.035,0.168l-0.101,0.658
		l-0.086,0.134l0.152,0.103l-0.066,0.135l0.136,0.88l0.067,0.473l-0.067,0.101l0.033,0.219l-0.033,0.168l0.101,0.303l0.305,0.104
		l0.287,0.387v0.136l-0.154,0.252l-0.133,0.203l-0.136,0.068l-0.456,0.101l-0.135,0.067l-0.169,0.102h-0.236l-0.254,0.035
		l-0.236,0.101l-0.27,0.086l-0.657,0.303l-0.356,0.1l-0.623,0.238l-0.138,0.085l-0.76,0.338l-0.268,0.236l-0.136,0.218l0.033,0.271
		l0.169,0.318l0.068,0.405l-0.135,0.271l-0.592,0.388l-0.424-0.034l-0.168-0.065l-0.136-0.034l-0.102-0.103l-0.455-0.288
		l-0.372-0.065l-0.065-0.135l-0.29-0.035l-0.134-0.068l-0.135-0.1l-0.253-0.102l-0.136-0.152l-0.558-0.304l-0.438-0.388
		l-0.895-0.405l-0.253-0.103l-0.204-0.101l-0.167-0.084h-0.136l-0.423-0.203l-0.236-0.067l-0.219-0.305l0.102-0.354l0.422-0.489
		l0.067-0.202l0.134-0.303l0.102-0.39l0.052-0.405l0.033-0.103l0.103-0.775l0.034-0.795l0.168-0.135l-0.202-0.202v-0.49v-0.438
		v-0.151l-0.035-0.203l0.068-0.306l-0.034-0.186l-0.034-0.471l0.135-0.457v-0.203l-0.135-0.236l0.034-0.221l0.101-0.337
		l-0.135-0.136l-0.035-0.319v-0.137v-0.32l0.069-0.169l-0.069-0.201l-0.033-0.238l0.033-0.523l-0.033-0.27l-0.033-0.59l-0.187-0.456
		l-0.202-0.135l-0.203-0.237l-0.067-0.287l0.035-0.101l0.102-0.171l0.066-0.133l0.404-0.188l0.355-0.103l0.304-0.032l0.457-0.101
		l0.201-0.035l0.457-0.135l0.455-0.168l0.761-0.221l0.303-0.27l0.422-0.236l0.304-0.286l0.168-0.305l0.067-0.22l-0.032-0.37
		l0.032-0.135l0.153-0.253l0.27-0.202L204.698,253.64z M203.938,257.203l-0.27,0.101v0.203l0.035,0.151l0.136,0.27v0.658
		l0.033,0.626v0.438l0.034,0.152v0.101v0.169v0.338v0.187v0.168l-0.034,0.27l0.065,0.22v0.539l0.034,0.221l0.036,0.271l-0.069,0.303
		l-0.066,0.355l0.236,0.522v0.137l-0.169,0.438l0.033,0.252l-0.033,0.271l-0.099,0.288l0.065,0.135l-0.065,0.337l-0.07,0.659
		l-0.065,0.423l-0.137,0.303l-0.186,0.39l-0.068,0.168l0.153,0.17l0.505,0.201l0.222,0.035h0.135l0.439,0.117h0.32l0.168,0.032
		l0.693,0.138h0.202l0.354-0.034l0.068-0.253v-0.135l-0.39-0.44l-0.203-0.354l-0.102-0.659l0.035-0.235l0.066-0.861l0.034-0.354
		v-0.202l-0.034-0.103l0.034-0.319l-0.066-0.169l0.033-0.59l0.237-0.238l0.034-0.135l-0.202-0.387l0.033-0.305l0.169-0.391
		l-0.238-0.27v-0.166l-0.066-0.424v-0.658l-0.067-0.271l0.067-0.32v-0.371l0.066-0.237l-0.033-0.319l0.067-0.271l0.136-0.286v-0.271
		l-0.507,0.137l-0.221-0.068l-0.235-0.068l-0.27-0.168l-0.254-0.185l-0.201-0.202l-0.457-0.138L203.938,257.203z"/>
	<path d="M214.137,253.842h0.49l0.201,0.035l0.12,0.034l0.27,0.033l0.168,0.033l0.389,0.086l0.303,0.103l0.322,0.1l0.303,0.202
		l0.591,0.489l0.102,0.202l0.456,0.693l0.137,0.237l0.166,0.151h0.271l0.322-0.085l0.335-0.338l0.322-0.337l0.102-0.456l-0.034-0.17
		v-0.185l0.065-0.203l0.238-0.372l0.252-0.151h0.237l0.135-0.033l0.388,0.066l0.137,0.05l0.134,0.139l0.306,0.234l0.253,0.102
		l0.302,0.319l0.17,0.067l0.556,0.238l0.138,0.032l0.254,0.069h0.167l0.338,0.285l0.186,0.305l0.068,0.236v0.152l-0.034,0.137
		l-0.288,0.438l-0.202,0.288l-0.202,0.167l-0.137,0.271l-0.522,0.388l-0.102,0.203l-0.39,0.623v0.137l-0.033,0.219l0.033,0.168
		l-0.033,0.27l-0.034,0.389l-0.337,0.44l-0.15,0.103l-0.205,0.084l-0.235-0.05l-0.322-0.034l-0.269-0.271l-0.236-0.456l-0.101-0.541
		v0.136l-0.086-0.389l-0.201-0.438l-0.068-0.135l-0.203-0.219l-0.354-0.204h-0.237l-0.236,0.035l-0.219,0.169l-0.068,0.219
		l-0.032,0.167l-0.035,0.238l0.035,0.86v0.101l0.032,0.254l0.033,0.203l0.035,0.488l0.034,0.304l0.22,0.321l-0.067,0.236
		l-0.119,0.236l-0.033,0.255l-0.067,0.169v0.236v0.167l0.034,0.187l0.151,0.17v1.098l-0.051,0.15l-0.066,0.507l0.185,0.591
		l-0.066,0.237l-0.084,0.185l-0.137,0.37l-0.1,0.288l-0.17,0.035l-0.134,0.134l-0.034,0.237l-0.118,0.168l-0.102,0.355l0.254,0.1
		h0.169l0.234,0.069l0.169,0.034l0.152,0.034l0.438,0.031l0.22,0.035l0.271,0.067l0.489,0.052l0.371,0.1l0.421,0.136l0.237,0.592
		l-0.068,0.37l-0.302,0.422l-0.523,0.305l-0.979,0.355l-0.237,0.102l-0.204,0.065l-0.168,0.172l-0.067,0.25v0.169l0.136,0.337
		l0.034,0.356v0.269l-0.034,0.203l-0.287,0.219l-0.506,0.236l-0.32-0.034l-0.626-0.269l-0.167-0.118l-0.204-0.168l-0.22-0.103
		l-0.201-0.269l-0.17-0.068l-0.237-0.185l-0.288-0.203l-0.167-0.068h-0.388l-0.371-0.422l-0.354-0.101l-0.27-0.136h-0.237
		l-0.32-0.168l-0.403-0.22l-0.187-0.203l-0.035-0.27l0.085-0.202l0.236-0.355l0.371-0.135l0.186-0.135l0.169-0.219l0.17-0.271
		v-0.488l0.033-0.17l0.034-0.133l-0.067-0.66l0.099-0.202l0.07-0.187l0.032-0.827l-0.067-0.372v-0.287l-0.134-0.27l-0.034-0.171
		l0.067-0.487l0.136-0.339l-0.07-0.489l0.103-0.271l0.085-0.252l-0.085-0.305l-0.134-0.557l0.287-0.168l-0.186-0.32l-0.035-0.138
		l0.035-0.1l-0.035-0.388l-0.035-0.171l0.035-0.591l-0.035-0.236v-0.339l-0.065-0.254l-0.169-0.168l-0.136-0.101l-0.186-0.103
		l-0.135-0.065l-0.592-0.067l-0.136-0.084l-0.134-0.137l-0.103-0.303v-0.137l0.034-0.218l0.135-0.271l0.102-0.167l0.254-0.288
		l0.203-0.202l0.101-0.137l0.136-0.133l0.186-0.187l0.135-0.305l0.169-0.456l-0.135-0.371l-0.035-0.136l-0.101-0.219v-0.271
		l0.271-0.488L214.137,253.842z"/>
</g>
<g>
	<path d="M234.048,114.057c-1.524-10.355-5.036-20.108-10.438-28.987c-5.207-8.567-11.951-15.959-20.039-21.968
		c-8.083-6.007-17.107-10.33-26.817-12.849c-6.326-1.641-12.833-2.473-19.336-2.473c-3.788,0-7.633,0.283-11.428,0.843
		c-1.996,0.294-4.003,0.668-5.962,1.115c-18.997,4.319-35.562,15.566-46.644,31.669c-9.719,14.126-14.513,31.277-13.532,48.366
		c-0.781,1.606-1.444,3.261-1.974,4.928l-0.017,0.053l-0.006,0.021l-0.453,1.349l-0.417,1.244l0.801,1.038l0.878,1.14
		c1.042,1.353,2.11,2.64,3.177,3.834c1.869,7.879,4.944,15.375,9.15,22.287c4.392,7.219,9.891,13.625,16.351,19.053
		c0.404,2.496,0.506,3.699,0.516,4.279l0.03,1.621l0.028,1.479l1.319,0.669l1.449,0.732c5.453,2.759,11.447,4.857,17.831,6.242
		c0.326,0.345,0.678,0.639,1.055,0.881c1.228,0.879,3.759,2.004,11.208,2.004c2.05,0,4.403-0.084,6.995-0.248
		c3.115,0.384,6.285,0.578,9.427,0.578c3.786,0,7.624-0.282,11.413-0.841c10.356-1.526,20.109-5.04,28.986-10.439
		c8.567-5.21,15.96-11.952,21.97-20.04c6.011-8.088,10.333-17.111,12.849-26.816C235.028,134.765,235.576,124.414,234.048,114.057z"
		/>
	<g>
		<path d="M174.607,196.672c0,0-37.659,6.374-43.659,1.915c-2.105-1.285-2.407-5.185-2.407-5.185L174.607,196.672z"/>
		<g>
			<path fill="#B0B4B7" d="M198.615,160.506c-0.927-6.293-3.388-11.979-6.947-16.74c10.711-12.339,16.178-29.102,13.609-46.534
				c-2.478-16.799-11.918-30.851-24.964-39.657c24.596,8.371,43.751,29.883,47.8,57.357c4.502,30.546-11.002,59.427-36.644,73.354
				C197.279,180.641,200.125,170.754,198.615,160.506z"/>
			<path fill="#D9DADB" d="M86.491,135.808c-5.49-37.245,18.763-72.011,54.866-80.22c1.807-0.411,3.644-0.756,5.508-1.03
				c11.636-1.714,23.03-0.526,33.449,3.019c13.046,8.805,22.486,22.857,24.964,39.656c2.568,17.434-2.898,34.196-13.609,46.534
				c3.56,4.76,6.021,10.446,6.947,16.739c1.51,10.25-1.336,20.134-7.146,27.78c-7.187,3.904-15.169,6.634-23.73,7.896
				C128.631,201.944,92.256,174.915,86.491,135.808z"/>
			<path fill="#E6E6E6" d="M86.491,135.808c-5.224-35.432,16.473-68.621,49.68-78.834c-9.27,7.536-23.668,25.665-17.48,63.151
				c4.6,27.866,6.437,53.583,7.172,69.552C105.402,179.652,90.065,160.05,86.491,135.808z"/>
			<path d="M146.865,54.558c39.107-5.765,75.485,21.266,81.249,60.375c5.764,39.108-21.265,75.484-60.374,81.249
				c-39.108,5.764-75.484-21.267-81.249-60.374C81,98.562,105.253,63.796,141.356,55.587C143.164,55.177,145,54.832,146.865,54.558
				 M146.349,51.053c-1.935,0.285-3.88,0.649-5.777,1.08c-18.394,4.183-34.435,15.075-45.164,30.667
				c-10.787,15.677-15.199,34.686-12.423,53.523c1.479,10.031,4.879,19.474,10.105,28.067c5.048,8.299,11.577,15.455,19.408,21.276
				c7.829,5.816,16.566,10.002,25.968,12.44c9.737,2.525,19.758,3.058,29.789,1.579c10.033-1.479,19.476-4.879,28.068-10.107
				c8.3-5.046,15.456-11.577,21.273-19.405c5.818-7.83,10.007-16.568,12.444-25.969c2.524-9.737,3.057-19.758,1.578-29.791
				c-1.479-10.03-4.881-19.473-10.106-28.067c-5.047-8.299-11.578-15.456-19.406-21.274c-7.83-5.818-16.567-10.004-25.97-12.443
				C166.402,50.104,156.379,49.574,146.349,51.053L146.349,51.053z"/>
			<path fill="#B0B4B7" d="M200.508,132.527c-3.874,12.667-22.569,20.158-22.569,20.158s10.696,9.288,3.091,20.968
				c2.774,11.026,3.239,18.039,3.239,18.039l-27.758,7.198L116.632,153.4c0,0-16.071,6.492-24.605-6.311
				c-8.536-12.803,34.36-15.118,34.36-15.118S192.902,127.376,200.508,132.527z"/>
			<g>
				<path fill="#FFFFFF" d="M112.403,190.105l-0.725-0.366l-0.015-0.812c-0.101-5.376-5.074-26.723-5.125-26.939l-0.107-0.459
					l0.963-2.036l10.886-1.136c-0.898-4.18-0.122-8.678,2.282-13.111c0.338-0.623,0.687-1.207,1.035-1.748
					c-4.384,4.65-9.308,7.49-14.246,8.22h-0.001c-8.637,1.271-17.275-3.605-25.672-14.497l-0.439-0.57l0.229-0.683
					c0.009-0.026,0.021-0.064,0.039-0.117c1.239-3.902,6.334-16.785,19.866-18.78c0.604-0.089,1.225-0.157,1.847-0.199
					c4.795-0.33,9.426,0.605,13.764,2.776c2.834,1.419,5.479,3.325,7.873,5.672c1.373-0.566,2.71-0.942,4.062-1.141
					c2.716-0.4,5.523-0.084,8.35,0.938c0.633-0.208,2.79-1.241,9.231-6.321c3.96-3.125,7.581-6.234,7.616-6.266l0.202-0.173
					l0.251-0.083c0.083-0.029,2.094-0.693,5.296-1.165c4.588-0.677,11.561-0.946,18.74,1.613c8.584,3.061,15.287,9.343,19.92,18.673
					l0.386,0.779l-0.551,0.674c-3.565,4.369-7.879,7.917-12.819,10.542c-4.393,2.337-9.181,3.9-14.225,4.643
					c-5.128,0.755-10.315,0.618-15.003-0.397c-5.959-1.292-10.154-3.945-13.088-6.596c4.141,4.373,6.311,9.216,7.327,12.097
					l5.566-1.493c0.406-0.16,2.108-0.797,4.238-1.112c2.337-0.344,4.385-0.188,6.088,0.465c4.575,1.754,8.322,9.721,9.659,16.684
					c1.225,6.388,4.683,24.039,4.717,24.218l0.229,1.168l-1.131,0.373c-0.244,0.079-6.091,1.98-15.081,3.306
					C150.948,198.796,130.579,199.307,112.403,190.105z M140.078,138.158c0.526,0.416,1.027,0.843,1.507,1.278
					c-0.709-0.751-1.321-1.479-1.848-2.15C139.833,137.573,139.946,137.866,140.078,138.158z"/>
				<path d="M101.568,118.408c0.565-0.084,1.146-0.146,1.742-0.188c10.271-0.706,17.495,4.832,21.239,8.709
					c1.206-0.562,2.732-1.145,4.564-1.414c2.233-0.33,4.92-0.196,8.039,0.999c0.039-0.002,0.08-0.007,0.125-0.014
					c3.213-0.473,17.719-12.947,17.719-12.947s1.945-0.65,5.064-1.109c8.812-1.3,27.008-1.087,37.255,19.55
					c-7.312,8.958-17.042,13.355-26.196,14.705c-5.213,0.769-10.234,0.549-14.521-0.38c-13.216-2.862-17.252-12.655-18.506-13.433
					c-0.321,0.399-0.438,3.427,0.905,6.134c6.975,5.411,9.801,12.889,10.673,15.75l6.875-1.844c0,0,1.752-0.728,4.007-1.06
					c1.692-0.249,3.669-0.277,5.407,0.39c4.055,1.553,7.578,9.213,8.818,15.68c1.24,6.466,4.718,24.222,4.718,24.222
					s-5.877,1.933-14.854,3.255c-13.374,1.972-33.632,2.598-51.628-6.513c-0.105-5.58-5.161-27.22-5.161-27.22l0.438-0.924
					l11.701-1.222c-3.382-10.413,6.052-19.481,6.052-19.481l-0.337-4.237c0,0-7.121,12.884-18.551,14.568
					c-6.807,1.004-15.139-1.962-24.409-13.985C83.052,135.489,87.339,120.506,101.568,118.408 M101.175,115.739
					c-3.566,0.525-6.862,1.82-9.795,3.846c-2.359,1.63-4.488,3.736-6.326,6.259c-2.07,2.841-3.742,6.162-4.833,9.6
					c-0.014,0.042-0.024,0.076-0.031,0.097l-0.458,1.365l0.878,1.14c4.568,5.925,9.286,10.173,14.024,12.626
					c4.274,2.211,8.619,3.012,12.913,2.38c3.815-0.561,7.167-2.188,10-4.201c-0.898,2.811-1.183,5.61-0.839,8.313l-8.7,0.91
					l-1.509,0.157l-0.649,1.371l-0.437,0.925l-0.402,0.849l0.213,0.918c1.39,5.942,5.008,22.313,5.09,26.656l0.03,1.624l1.448,0.733
					c18.494,9.358,39.16,8.85,53.241,6.774c9.104-1.343,15.055-3.279,15.302-3.363l2.264-0.743l-0.456-2.336
					c-0.036-0.176-3.491-17.826-4.717-24.214c-0.688-3.579-2.006-7.383-3.619-10.434c-1.985-3.757-4.246-6.175-6.716-7.189
					c1.47-0.074,2.948-0.219,4.423-0.436c5.194-0.767,10.128-2.377,14.658-4.787c5.098-2.71,9.55-6.371,13.231-10.881l1.1-1.348
					l-0.773-1.558c-2.549-5.133-5.757-9.428-9.534-12.765c-3.28-2.899-7.029-5.111-11.142-6.578
					c-7.438-2.652-14.648-2.375-19.387-1.677c-3.319,0.489-5.438,1.19-5.526,1.22l-0.503,0.168l-0.403,0.345
					c-0.033,0.029-3.466,2.977-7.295,6.01c-5.545,4.391-7.863,5.745-8.716,6.157c-2.869-0.96-5.726-1.239-8.502-0.829
					c-1.189,0.176-2.364,0.475-3.555,0.908c-2.324-2.171-4.868-3.953-7.581-5.311c-4.557-2.28-9.421-3.261-14.46-2.915
					C102.469,115.576,101.812,115.646,101.175,115.739L101.175,115.739L101.175,115.739z M158.795,149.449
					c-1.501,0.326-2.66,0.744-3.096,0.912l-4.316,1.158c-0.559-1.423-1.341-3.139-2.404-4.974c2.036,0.989,4.372,1.831,7.045,2.411
					C156.931,149.153,157.856,149.316,158.795,149.449L158.795,149.449z"/>
			</g>
			<g>
				<path fill="#4D4D4D" d="M164.27,193.244l0.049-0.008c0.545-0.081,1.093-0.163,1.632-0.251l0.068,0.421
					c-0.54,0.088-1.091,0.172-1.639,0.253l-0.049,0.009L164.27,193.244z M160.949,194.114l-0.051-0.424
					c0.562-0.063,1.13-0.136,1.688-0.209l0.056,0.422C162.081,193.976,161.513,194.048,160.949,194.114z M167.627,192.7
					c0.556-0.097,1.119-0.202,1.674-0.311l0.08,0.419c-0.558,0.108-1.122,0.213-1.68,0.312L167.627,192.7z M157.552,194.46
					l-0.037-0.424c0.563-0.05,1.132-0.102,1.693-0.161l0.042,0.424C158.689,194.356,158.116,194.411,157.552,194.46z
					 M170.966,192.056c0.555-0.116,1.112-0.237,1.663-0.36l0.093,0.415c-0.551,0.123-1.112,0.246-1.668,0.362L170.966,192.056z
					 M154.146,194.7l-0.024-0.424c0.562-0.032,1.133-0.067,1.697-0.107l0.03,0.425C155.282,194.633,154.709,194.669,154.146,194.7z
					 M174.281,191.308c0.559-0.138,1.112-0.275,1.648-0.418l0.111,0.413c-0.54,0.141-1.099,0.282-1.658,0.419L174.281,191.308z
					 M150.734,194.832l-0.01-0.426c0.564-0.011,1.135-0.031,1.7-0.053l0.015,0.426C151.875,194.802,151.3,194.818,150.734,194.832z
					 M147.318,194.851l0.005-0.425c0.562,0.005,1.134,0.007,1.7,0.004l0.002,0.428C148.457,194.858,147.884,194.857,147.318,194.851
					z M176.575,188.694l0.418-0.082l0.327,1.676l-0.418,0.08L176.575,188.694z M143.905,194.75l0.019-0.424
					c0.559,0.025,1.13,0.048,1.698,0.063l-0.012,0.426C145.04,194.798,144.466,194.777,143.905,194.75z M140.704,194.545
					l-0.209-0.019l0.037-0.423l0.207,0.015c0.495,0.044,0.997,0.081,1.49,0.111l-0.028,0.427
					C141.705,194.623,141.201,194.585,140.704,194.545z M137.098,194.174l0.053-0.423c0.556,0.07,1.125,0.136,1.688,0.193
					l-0.043,0.423C138.229,194.31,137.658,194.244,137.098,194.174z M133.718,193.687l0.07-0.422
					c0.553,0.091,1.118,0.181,1.679,0.262l-0.062,0.421C134.842,193.864,134.273,193.776,133.718,193.687z M175.921,185.347
					l0.417-0.08l0.328,1.673l-0.418,0.083L175.921,185.347z M130.361,193.051l0.089-0.416c0.55,0.115,1.11,0.228,1.665,0.333
					l-0.079,0.419C131.479,193.281,130.915,193.168,130.361,193.051z M127.036,192.27l0.107-0.413
					c0.542,0.142,1.097,0.277,1.649,0.41l-0.098,0.414C128.139,192.55,127.582,192.411,127.036,192.27z M123.75,191.33l0.127-0.406
					c0.536,0.166,1.083,0.329,1.627,0.486l-0.117,0.409C124.84,191.666,124.289,191.498,123.75,191.33z M175.267,182l0.418-0.081
					l0.326,1.674l-0.417,0.079L175.267,182z M120.515,190.231l0.146-0.4c0.527,0.194,1.066,0.387,1.601,0.565l-0.137,0.404
					C121.588,190.617,121.045,190.427,120.515,190.231z M117.338,188.967l0.168-0.393c0.519,0.224,1.047,0.442,1.569,0.648
					l-0.157,0.398C118.392,189.41,117.86,189.19,117.338,188.967z M174.614,178.652l0.417-0.083l0.326,1.675l-0.419,0.08
					L174.614,178.652z M114.833,187.823l-0.109-0.051l-0.011-0.122c-0.019-0.207-0.041-0.426-0.065-0.654l0.423-0.045
					c0.021,0.188,0.039,0.368,0.055,0.541c0.276,0.133,0.553,0.263,0.83,0.39l-0.179,0.387
					C115.461,188.124,115.146,187.976,114.833,187.823z M173.961,175.305l0.417-0.083l0.327,1.675l-0.419,0.081L173.961,175.305z
					 M114.435,185.311c-0.021-0.152-0.043-0.308-0.067-0.467c-0.057-0.391-0.119-0.795-0.187-1.213l0.421-0.068
					c0.067,0.419,0.13,0.828,0.188,1.218c0.023,0.161,0.047,0.319,0.068,0.473L114.435,185.311z M173.31,171.955l0.42-0.083
					l0.324,1.677l-0.417,0.079L173.31,171.955z M113.6,180.275l0.42-0.076c0.104,0.572,0.205,1.132,0.299,1.681l-0.42,0.071
					C113.805,181.406,113.705,180.848,113.6,180.275z M172.665,168.605l0.418-0.08c0.098,0.5,0.203,1.062,0.321,1.676l-0.417,0.079
					C172.868,169.669,172.762,169.105,172.665,168.605z M112.962,176.929l0.418-0.082c0.11,0.562,0.219,1.121,0.325,1.675
					l-0.419,0.079C113.18,178.048,113.073,177.489,112.962,176.929z M171.879,165.31l0.409-0.119c0.16,0.553,0.307,1.109,0.44,1.658
					l-0.414,0.1C172.183,166.405,172.037,165.855,171.879,165.31z M112.287,173.589l0.417-0.086
					c0.115,0.555,0.229,1.111,0.342,1.671l-0.417,0.085C112.515,174.699,112.401,174.143,112.287,173.589z M170.776,162.11
					l0.396-0.159c0.208,0.523,0.409,1.062,0.597,1.607l-0.403,0.138C171.181,163.161,170.984,162.625,170.776,162.11z
					 M111.582,170.253l0.417-0.088c0.117,0.543,0.235,1.102,0.355,1.668l-0.417,0.088C111.819,171.356,111.7,170.8,111.582,170.253z
					 M169.477,159.284c-0.041-0.081-0.085-0.16-0.125-0.239l0.373-0.203c0.042,0.079,0.087,0.16,0.13,0.242
					c0.218,0.412,0.433,0.847,0.64,1.292l-0.387,0.179C169.904,160.119,169.691,159.69,169.477,159.284z M110.857,166.923
					l0.416-0.092c0.117,0.531,0.239,1.089,0.366,1.667l-0.417,0.09C111.097,168.013,110.975,167.454,110.857,166.923z
					 M167.502,156.238l0.327-0.271c0.342,0.414,0.683,0.883,1.017,1.396l-0.356,0.232
					C168.163,157.097,167.832,156.64,167.502,156.238z M110.112,163.596l0.414-0.094c0.112,0.494,0.24,1.051,0.376,1.664
					l-0.416,0.094C110.35,164.647,110.224,164.089,110.112,163.596z M165.172,154.312c-0.071-0.027-0.144-0.053-0.219-0.079
					l0.133-0.404c0.08,0.027,0.16,0.055,0.239,0.085c0.415,0.158,0.851,0.429,1.294,0.804l-0.273,0.326
					C165.938,154.699,165.541,154.454,165.172,154.312z M120.978,161.644l-0.043-0.424l1.685-0.177l0.021,0.207l0.204-0.059
					l0.08,0.25L120.978,161.644z M117.59,162l-0.044-0.425l1.693-0.177l0.043,0.424L117.59,162z M114.2,162.352l-0.044-0.422
					l1.695-0.178l0.044,0.424L114.2,162.352z M148.414,156.946l1.645-0.441l0.111,0.412l-1.646,0.44L148.414,156.946z
					 M110.812,162.707l-0.043-0.423l1.695-0.178l0.044,0.423L110.812,162.707z M151.704,156.062l1.646-0.441l0.11,0.412
					l-1.646,0.442L151.704,156.062z M154.995,155.18l1.645-0.44l0.109,0.411l-1.644,0.441L154.995,155.18z M161.665,153.952
					l-0.036-0.425c0.609-0.053,1.193-0.06,1.736-0.021l-0.032,0.424C162.813,153.893,162.253,153.9,161.665,153.952z M158.25,154.21
					c0.555-0.17,1.116-0.315,1.672-0.429l0.084,0.418c-0.541,0.111-1.089,0.251-1.629,0.418L158.25,154.21z M121.68,158.986
					c-0.1-0.308-0.19-0.624-0.267-0.938l0.414-0.103c0.074,0.306,0.161,0.61,0.257,0.909l0.23,0.707l-0.404,0.13L121.68,158.986z
					 M147.563,155.412c-0.123-0.407-0.264-0.83-0.418-1.261l0.4-0.144c0.156,0.438,0.3,0.868,0.426,1.282l0.106,0.349l-0.408,0.124
					L147.563,155.412z M121.114,156.344c-0.062-0.566-0.086-1.148-0.074-1.728l0.425,0.01c-0.013,0.561,0.012,1.124,0.071,1.671
					L121.114,156.344z M145.828,151.034l0.383-0.188c0.25,0.514,0.488,1.04,0.709,1.562l-0.393,0.166
					C146.31,152.059,146.074,151.539,145.828,151.034z M144.19,148.073l0.361-0.226c0.302,0.479,0.594,0.977,0.871,1.477
					l-0.373,0.206C144.775,149.038,144.487,148.546,144.19,148.073z M121.182,152.894c0.08-0.556,0.193-1.125,0.339-1.691
					l0.413,0.105c-0.141,0.55-0.252,1.104-0.33,1.647L121.182,152.894z M170.735,144.533l0.063-0.009
					c0.538-0.081,1.08-0.17,1.608-0.27l0.079,0.42c-0.534,0.099-1.081,0.191-1.625,0.272l-0.062,0.007L170.735,144.533z
					 M167.393,145.309l-0.026-0.423c0.558-0.036,1.127-0.084,1.688-0.143l0.043,0.424
					C168.532,145.227,167.957,145.274,167.393,145.309z M174.066,143.909c0.551-0.126,1.103-0.266,1.642-0.416l0.115,0.412
					c-0.547,0.149-1.104,0.29-1.66,0.418L174.066,143.909z M163.969,145.385l0.009-0.426c0.561,0.013,1.13,0.011,1.696-0.001
					l0.01,0.425C165.11,145.396,164.535,145.396,163.969,145.385z M177.335,143.013c0.535-0.171,1.073-0.355,1.603-0.55l0.146,0.4
					c-0.532,0.195-1.079,0.382-1.619,0.555L177.335,143.013z M160.552,145.165l0.046-0.423c0.557,0.061,1.121,0.11,1.688,0.147
					l-0.029,0.424C161.687,145.276,161.112,145.227,160.552,145.165z M180.514,141.846c0.521-0.217,1.042-0.447,1.551-0.685
					l0.181,0.386c-0.517,0.239-1.042,0.473-1.569,0.691L180.514,141.846z M157.167,144.626l0.088-0.417
					c0.542,0.116,1.103,0.219,1.663,0.306l-0.065,0.422C158.285,144.848,157.718,144.743,157.167,144.626z M183.583,140.412
					c0.097-0.051,0.193-0.103,0.292-0.153c0.401-0.215,0.804-0.437,1.193-0.662l0.214,0.369c-0.396,0.229-0.804,0.454-1.208,0.67
					c-0.099,0.051-0.194,0.104-0.295,0.154L183.583,140.412z M142.238,145.312l0.333-0.266c0.353,0.444,0.698,0.905,1.028,1.373
					l-0.347,0.245C142.927,146.203,142.586,145.749,142.238,145.312z M122.031,149.556c0.191-0.527,0.413-1.063,0.66-1.591
					l0.386,0.179c-0.241,0.518-0.458,1.043-0.645,1.559L122.031,149.556z M153.859,143.725l0.138-0.403
					c0.526,0.18,1.069,0.346,1.615,0.494l-0.112,0.411C154.945,144.076,154.394,143.907,153.859,143.725z M186.515,138.716
					c0.474-0.302,0.948-0.619,1.407-0.942l0.245,0.348c-0.468,0.326-0.944,0.647-1.424,0.953L186.515,138.716z M150.691,142.406
					l0.19-0.381c0.498,0.248,1.015,0.485,1.535,0.701l-0.165,0.393C151.723,142.899,151.198,142.659,150.691,142.406z
					 M189.287,136.77c0.443-0.343,0.887-0.701,1.316-1.064l0.275,0.325c-0.437,0.368-0.883,0.729-1.333,1.076L189.287,136.77z
					 M123.475,146.432c0.275-0.49,0.576-0.984,0.895-1.467l0.356,0.234c-0.313,0.475-0.609,0.96-0.88,1.442L123.475,146.432z
					 M139.978,142.8l0.298-0.304c0.403,0.397,0.803,0.814,1.186,1.241l-0.317,0.285C140.768,143.601,140.375,143.19,139.978,142.8z
					 M105.634,148.761l-0.027-0.424c0.408-0.025,0.821-0.068,1.227-0.128c0.144-0.022,0.292-0.045,0.439-0.071l0.075,0.418
					c-0.146,0.026-0.292,0.05-0.438,0.072C106.485,148.686,106.059,148.735,105.634,148.761z M108.908,147.752
					c0.529-0.154,1.062-0.34,1.589-0.552l0.158,0.394c-0.538,0.218-1.086,0.41-1.628,0.567L108.908,147.752z M102.194,148.584
					l0.07-0.419c0.555,0.09,1.116,0.151,1.667,0.181l-0.021,0.424C103.341,148.742,102.764,148.679,102.194,148.584z
					 M147.736,140.658l0.243-0.35c0.461,0.319,0.938,0.625,1.42,0.911l-0.217,0.366C148.69,141.294,148.205,140.982,147.736,140.658
					z M112.027,146.498c0.488-0.252,0.981-0.531,1.467-0.833l0.225,0.364c-0.495,0.307-0.998,0.591-1.498,0.848L112.027,146.498z
					 M191.871,134.583c0.412-0.381,0.823-0.777,1.22-1.178l0.301,0.3c-0.399,0.405-0.813,0.805-1.231,1.19L191.871,134.583z
					 M98.873,147.683l0.151-0.398c0.531,0.201,1.068,0.375,1.599,0.521l-0.113,0.411C99.968,148.068,99.417,147.889,98.873,147.683z
					 M125.362,143.56c0.352-0.465,0.717-0.914,1.084-1.337l0.321,0.28c-0.361,0.415-0.72,0.856-1.066,1.314L125.362,143.56z
					 M137.646,140.76l-0.223-0.173l0.261-0.336l0.224,0.174c0.375,0.291,0.747,0.596,1.107,0.907l-0.278,0.322
					C138.383,141.348,138.017,141.047,137.646,140.76z M114.895,144.726c0.446-0.323,0.895-0.672,1.334-1.036l0.271,0.328
					c-0.447,0.368-0.902,0.724-1.356,1.052L114.895,144.726z M95.771,146.204l0.212-0.368c0.495,0.284,0.997,0.549,1.491,0.786
					l-0.183,0.383C96.787,146.763,96.276,146.494,95.771,146.204z M145.062,138.503l0.29-0.312c0.411,0.383,0.84,0.755,1.276,1.105
					l-0.268,0.332C145.917,139.272,145.48,138.894,145.062,138.503z M194.257,132.177c0.145-0.158,0.288-0.319,0.429-0.479
					c-0.121-0.224-0.243-0.446-0.366-0.666l0.373-0.208c0.146,0.265,0.293,0.532,0.438,0.803l0.068,0.129l-0.098,0.11
					c-0.172,0.201-0.352,0.399-0.528,0.598L194.257,132.177z M117.5,142.573c0.406-0.377,0.812-0.775,1.209-1.186l0.304,0.296
					c-0.4,0.415-0.811,0.819-1.223,1.201L117.5,142.573z M127.643,140.979l0.235-0.228l-0.093-1.17l0.425-0.034l0.109,1.372
					l-0.382,0.366L127.643,140.979z M92.914,144.306l0.256-0.339c0.459,0.344,0.921,0.674,1.379,0.979l-0.236,0.354
					C93.849,144.989,93.379,144.654,92.914,144.306z M136.066,137.346l0.415-0.1c0.132,0.547,0.3,1.085,0.5,1.598l-0.396,0.154
					C136.378,138.468,136.204,137.912,136.066,137.346z M142.71,136.002l0.328-0.271c0.364,0.439,0.739,0.867,1.116,1.268
					l-0.309,0.291C143.462,136.884,143.08,136.45,142.71,136.002z M119.854,140.143c0.368-0.419,0.734-0.856,1.088-1.299
					l0.333,0.266c-0.358,0.448-0.728,0.89-1.101,1.313L119.854,140.143z M192.548,128.145l0.354-0.238
					c0.314,0.467,0.627,0.952,0.927,1.441l-0.364,0.223C193.166,129.085,192.859,128.607,192.548,128.145z M90.286,142.109
					l0.289-0.313c0.422,0.387,0.851,0.763,1.272,1.116l-0.273,0.326C91.146,142.88,90.712,142.501,90.286,142.109z M127.65,137.883
					l-0.136-1.699l0.424-0.033l0.136,1.698L127.65,137.883z M121.972,137.497c0.336-0.463,0.663-0.932,0.966-1.391l0.355,0.234
					c-0.307,0.465-0.637,0.939-0.979,1.408L121.972,137.497z M135.764,135.645c-0.015-0.128-0.026-0.25-0.037-0.368
					c-0.024-0.273-0.068-0.784-0.048-1.365l0.425,0.015c-0.018,0.555,0.024,1.049,0.046,1.314c0.011,0.112,0.022,0.231,0.036,0.356
					L135.764,135.645z M140.688,133.299l-0.027-0.039l0.349-0.246l0.028,0.042c0.279,0.397,0.594,0.848,0.959,1.341l-0.342,0.253
					C141.286,134.153,140.967,133.7,140.688,133.299z M190.53,125.428l0.327-0.27c0.357,0.436,0.711,0.889,1.053,1.351l-0.341,0.254
					C191.232,126.307,190.883,125.858,190.53,125.428z M87.857,139.699l0.312-0.291c0.394,0.419,0.791,0.829,1.181,1.216
					l-0.301,0.302C88.654,140.535,88.254,140.123,87.857,139.699z M127.379,134.486l-0.135-1.698l0.426-0.034l0.133,1.699
					L127.379,134.486z M123.825,134.669l0.825-1.491l0.373,0.206l-0.824,1.491L123.825,134.669z M139.029,131.38l-0.692-0.43
					l0.225-0.361l0.691,0.429c0.25,0.155,0.477,0.351,0.717,0.616l-0.316,0.286C139.442,131.685,139.242,131.514,139.029,131.38z
					 M135.999,132.17c0.103-0.255,0.23-0.478,0.379-0.665l0.627-0.777l0.332,0.267l-0.626,0.777
					c-0.124,0.154-0.229,0.34-0.316,0.556L135.999,132.17z M188.256,122.923l0.299-0.301c0.404,0.398,0.802,0.815,1.186,1.239
					l-0.316,0.287C189.046,123.729,188.651,123.317,188.256,122.923z M85.602,137.131l0.328-0.272
					c0.366,0.442,0.735,0.876,1.1,1.292l-0.32,0.281C86.343,138.013,85.969,137.576,85.602,137.131z M125.473,131.687l0.825-1.491
					l0.373,0.207l-0.824,1.491L125.473,131.687z M127.109,131.09l-0.136-1.698l0.424-0.033l0.135,1.698L127.109,131.09z
					 M185.729,120.677l0.265-0.333c0.445,0.352,0.885,0.722,1.312,1.102l-0.282,0.318
					C186.603,121.391,186.167,121.024,185.729,120.677z M137.276,128.712l-0.025-0.426c0.471-0.025,0.953-0.157,1.562-0.423
					l0.169,0.393c-0.524,0.228-0.963,0.361-1.386,0.424C137.49,128.696,137.381,128.706,137.276,128.712z M133.951,127.853
					l0.088-0.416c0.55,0.115,1.111,0.266,1.667,0.447l-0.132,0.405C135.031,128.111,134.485,127.966,133.951,127.853z
					 M84.917,135.527c0.197-0.534,0.412-1.069,0.64-1.593l0.391,0.17c-0.225,0.515-0.436,1.044-0.63,1.57L84.917,135.527z
					 M140.299,127.094c0.435-0.254,0.917-0.555,1.434-0.896l0.234,0.356c-0.524,0.345-1.012,0.651-1.453,0.908L140.299,127.094z
					 M124.047,129.122l1.252-0.584c0.1-0.047,0.197-0.091,0.295-0.135l0.174,0.389c-0.096,0.043-0.192,0.086-0.288,0.132
					l-1.253,0.584L124.047,129.122z M130.62,127.577l-0.021-0.425c0.569-0.028,1.151-0.016,1.73,0.033l-0.038,0.424
					C131.732,127.562,131.169,127.55,130.62,127.577z M127.204,127.78c0.563-0.181,1.11-0.321,1.675-0.427l0.079,0.42
					c-0.547,0.102-1.078,0.236-1.623,0.413L127.204,127.78z M182.967,118.734l0.223-0.361c0.484,0.299,0.966,0.617,1.433,0.946
					l-0.246,0.347C183.918,119.342,183.443,119.03,182.967,118.734z M143.133,125.242c0.432-0.305,0.895-0.639,1.377-0.993
					l0.252,0.343c-0.483,0.356-0.95,0.691-1.385,0.997L143.133,125.242z M121.575,127.107l0.287-0.316
					c0.42,0.382,0.834,0.782,1.235,1.189l-0.303,0.298C122.399,127.877,121.988,127.483,121.575,127.107z M86.288,132.382
					c0.259-0.511,0.534-1.019,0.818-1.508l0.369,0.214c-0.281,0.482-0.552,0.981-0.806,1.486L86.288,132.382z M145.873,123.232
					c0.432-0.327,0.886-0.675,1.349-1.035l0.261,0.336c-0.465,0.361-0.92,0.71-1.353,1.039L145.873,123.232z M179.993,117.127
					l0.181-0.385c0.518,0.242,1.035,0.5,1.532,0.771l-0.203,0.374C181.011,117.621,180.504,117.365,179.993,117.127z
					 M118.946,124.98l0.249-0.346c0.462,0.332,0.922,0.68,1.365,1.04l-0.268,0.332C119.854,125.651,119.402,125.306,118.946,124.98z
					 M148.562,121.149c0.45-0.356,0.896-0.712,1.33-1.062l0.268,0.333c-0.437,0.35-0.883,0.706-1.335,1.062L148.562,121.149z
					 M177.411,116.066c-0.186-0.066-0.372-0.13-0.559-0.193l0.137-0.403c0.188,0.063,0.378,0.128,0.564,0.195
					c0.352,0.126,0.703,0.258,1.048,0.396l-0.16,0.395C178.104,116.321,177.757,116.19,177.411,116.066z M88.013,129.417
					c0.213-0.319,0.432-0.635,0.654-0.94c0.34-0.469,0.696-0.924,1.057-1.354l0.326,0.274c-0.354,0.423-0.703,0.87-1.039,1.331
					c-0.218,0.3-0.435,0.612-0.644,0.926L88.013,129.417z M151.215,119.016c0.46-0.373,0.9-0.735,1.318-1.079l0.27,0.327
					c-0.417,0.346-0.859,0.708-1.319,1.082L151.215,119.016z M116.085,123.185l0.203-0.374c0.495,0.269,0.995,0.559,1.482,0.866
					l-0.226,0.361C117.063,123.735,116.573,123.449,116.085,123.185z M173.592,114.979l0.09-0.417
					c0.561,0.123,1.119,0.26,1.664,0.409l-0.11,0.41C174.698,115.235,174.144,115.097,173.592,114.979z M170.252,114.428
					l0.048-0.423c0.57,0.065,1.141,0.144,1.698,0.236l-0.068,0.421C171.378,114.57,170.812,114.492,170.252,114.428z
					 M153.844,116.849c0.507-0.423,0.946-0.793,1.304-1.095l0.275,0.325c-0.358,0.302-0.799,0.675-1.307,1.097L153.844,116.849z
					 M90.875,125.846c0.402-0.415,0.822-0.812,1.246-1.184l0.282,0.32c-0.417,0.364-0.828,0.754-1.223,1.161L90.875,125.846z
					 M113.015,121.789l0.147-0.399c0.532,0.197,1.066,0.417,1.588,0.655l-0.176,0.388
					C114.061,122.198,113.536,121.982,113.015,121.789z M166.873,114.204l0.011-0.425c0.572,0.011,1.146,0.037,1.71,0.073
					l-0.029,0.424C168.01,114.239,167.44,114.215,166.873,114.204z M163.486,114.287l-0.029-0.424
					c0.569-0.039,1.147-0.066,1.711-0.08l0.012,0.426C164.621,114.222,164.05,114.25,163.486,114.287z M156.695,114.917
					c0.531-0.135,1.095-0.263,1.671-0.379l0.084,0.417c-0.57,0.115-1.125,0.241-1.651,0.374L156.695,114.917z M160.382,114.622
					l-0.263,0.04l-0.064-0.422l0.264-0.04c0.475-0.071,0.955-0.132,1.433-0.186l0.047,0.424
					C161.326,114.491,160.85,114.553,160.382,114.622z M93.463,123.585c0.466-0.342,0.946-0.663,1.433-0.956l0.22,0.365
					c-0.475,0.287-0.945,0.601-1.4,0.934L93.463,123.585z M109.776,120.848l0.089-0.417c0.557,0.118,1.118,0.258,1.666,0.418
					l-0.119,0.409C110.873,121.101,110.324,120.964,109.776,120.848z M106.435,120.4l0.025-0.426c0.572,0.034,1.147,0.09,1.71,0.165
					l-0.056,0.422C107.56,120.486,106.996,120.433,106.435,120.4z M96.411,121.81c0.516-0.247,1.05-0.474,1.586-0.673l0.147,0.399
					c-0.525,0.194-1.046,0.416-1.548,0.656L96.411,121.81z M103.461,120.416c-0.133,0.009-0.266,0.019-0.399,0.03l-0.037-0.423
					c0.135-0.012,0.271-0.023,0.407-0.032c0.437-0.03,0.877-0.048,1.31-0.055l0.005,0.426
					C104.322,120.369,103.89,120.385,103.461,120.416z M99.637,120.614c0.549-0.146,1.115-0.271,1.682-0.37l0.073,0.42
					c-0.554,0.097-1.107,0.218-1.644,0.362L99.637,120.614z"/>
			</g>
			<polygon points="171.071,181.821 175.225,193.856 168.576,195.64 			"/>
			<path d="M164.389,150.704c19.815,15.041,1.972,18.759,1.136,28.45c11.398-0.167,15.574-8.624,14.49-16.318
				C179.273,157.587,175.119,149.821,164.389,150.704z"/>
			<path fill="#B59353" d="M155.042,155.732c14.808-1.753,14.99,20.891,14.99,20.891l2.42,16.431c0,0-2.44,1.604-7.646,2.835
				c-5.207,1.235-16.417,3.246-27.476,1.77c-3.43-0.459-6.451-0.808-8.373-3.088c-3.62-0.865-6.395-1.753-11.18-3.501
				c-2.565-12.534-8.226-30.498-8.226-30.498S143.379,160.321,155.042,155.732z"/>
			<circle fill="#B59353" cx="163.537" cy="165.672" r="13.628"/>
			<path d="M163.852,163.57c0.007,8.107-6.353,13.57-13.789,16.141c-10.544,3.644-25.228,2.469-25.228,2.469
				s1.759-5.284-5.318-15.556C125.224,167.696,153.615,167.47,163.852,163.57z"/>
			<path fill="#E6E6E6" d="M158.35,165.174c0,0-0.213,1.82-1.601,2.789c-8.917,6.232-17.869,7.688-24.727,7.518
				c-0.52-0.013-2.31-2.097-4.512-6.649c-0.272,1.545,1.468,5.629,2.125,6.524c-4.537-0.241-9.009-1.764-9.694-2.062
				c-1.636-0.716-3.27-4.015-3.502-8.19C138.946,167.835,158.35,165.174,158.35,165.174z"/>
			<path fill="#B0B4B7" d="M116.521,166.084l0.134,0.964c0,0,8.842,1.532,17.729,1.463c8.886-0.069,23.8-2.627,23.8-2.627
				l0.167-0.71l-24.345,2.152L116.521,166.084z"/>
			<path d="M152.485,93.604c-3.97,1.304-4.76,8.593-3.751,9.594c0.383,0.38,6.577-2.804,12.853-3.33
				c10.22-0.856,22.327,0.584,22.327,0.584S171.195,89.125,152.485,93.604z"/>
			<path d="M113.311,94.807c4.756,4.033,0.186,6.772-0.26,6.991c-1.894,0.781-9.488-0.604-13.63,0.006
				c-4.143,0.61-8.278,3.517-8.832,3.168C90.443,101.55,104.051,88.926,113.311,94.807z"/>
			<path fill="#B59353" d="M124.822,131.776c-6.073,12.99-14.844,16.102-21.499,15.361c-10.32-1.149-17.591-11.883-17.591-11.883
				S101.535,108.362,124.822,131.776z"/>
			<path fill="#31738B" d="M107.919,122.751c7.293,1.788,7.143,7.83,7.143,7.83s3.701,7.906,1.196,11.65
				c3.899-2.473,8.382-9.922,8.382-9.922s-1.655-2.086-4.483-4.314C117.185,125.652,112.917,123.15,107.919,122.751z"/>
			<path fill="#B59353" d="M141.783,130.999c16.437,20.32,34.99,11.42,43.579,3.62c3.523-3.2,4.203-7.506,4.203-7.506
				S169.402,98.374,141.783,130.999z"/>
			<path fill="#31738B" d="M167.094,117.169c0,0,3.195-0.454,6.591,7.83c2.329,1.115,2.291,2.722,2.291,2.722l-1.377,12.023
				c0,0,10.965-3.476,14.966-12.632C179.363,116.09,167.094,117.169,167.094,117.169z"/>
			<circle cx="103.998" cy="133.059" r="3.626"/>
			<path fill="#E6E6E6" d="M114.631,131.192c-0.308,6.386-9.191,8.413-9.191,8.413s-9.985,0.18-10.389-5.061
				c-0.09-2.803,7.994-5.478,7.994-5.478S112.467,126.724,114.631,131.192z"/>
			<path d="M99.142,133.41c2.145-0.317,3.627-2.312,3.311-4.456c-0.17-1.148-0.819-2.105-1.716-2.7
				c0.566-0.249,1.174-0.427,1.815-0.521c3.879-0.571,7.486,2.109,8.057,5.986c0.572,3.878-2.108,7.485-5.987,8.057
				c-3.877,0.571-7.484-2.108-8.057-5.986c-0.045-0.313-0.068-0.625-0.073-0.934C97.255,133.332,98.183,133.55,99.142,133.41z"/>
			<path fill="#31738B" d="M99.142,133.41c2.126-0.314,3.6-2.277,3.317-4.4c1.878,0.042,3.508,1.431,3.793,3.352
				c0.316,2.145-1.167,4.141-3.312,4.456c-2.144,0.316-4.141-1.165-4.456-3.31c-0.003-0.02-0.004-0.039-0.006-0.057
				C98.696,133.454,98.919,133.442,99.142,133.41z"/>
			<path fill="#E6E6E6" d="M172.919,128.336c-1.347,6.25-10.443,6.799-10.443,6.799s-9.881-1.454-9.422-6.691
				c0.37-2.781,8.781-4.097,8.781-4.097S171.516,123.574,172.919,128.336z"/>
			<circle fill="#E6E6E6" cx="156.779" cy="126.574" r="3.935"/>
			<path d="M157.346,130.306c2.139-0.315,3.617-2.304,3.302-4.443c-0.169-1.145-0.817-2.1-1.711-2.692
				c0.565-0.247,1.172-0.425,1.809-0.52c3.869-0.569,7.466,2.102,8.036,5.97c0.569,3.868-2.103,7.466-5.972,8.035
				c-3.866,0.569-7.463-2.104-8.035-5.97c-0.044-0.312-0.066-0.624-0.071-0.932C155.463,130.229,156.39,130.448,157.346,130.306z"/>
			<path fill="#31738B" d="M157.346,130.306c2.128-0.312,3.602-2.282,3.306-4.406c1.927-0.021,3.621,1.384,3.913,3.342
				c0.313,2.139-1.166,4.129-3.306,4.445c-2.137,0.314-4.128-1.163-4.443-3.302c-0.001-0.012-0.002-0.025-0.005-0.037
				C156.988,130.346,157.167,130.333,157.346,130.306z"/>
			<g>
				<path fill="#FFFFFF" d="M201.204,172.042c2.635-0.388,5.187-3.653,6.354-8.122c1.403-5.379,0.187-10.027-2.829-10.812
					c-0.452-0.118-0.92-0.142-1.396-0.073c-2.633,0.389-5.184,3.654-6.352,8.124c-0.616,2.367-0.741,4.732-0.348,6.66
					c0.459,2.264,1.587,3.737,3.176,4.151C200.259,172.088,200.729,172.11,201.204,172.042z"/>
				<path d="M203.529,154.369c0.291-0.042,0.579-0.03,0.856,0.042c2.201,0.574,3.037,4.678,1.866,9.166
					c-1.023,3.919-3.234,6.833-5.244,7.128c-0.292,0.044-0.58,0.032-0.86-0.042c-2.198-0.573-3.032-4.676-1.863-9.164
					C199.308,157.582,201.519,154.665,203.529,154.369 M203.135,151.702L203.135,151.702c-1.719,0.254-3.365,1.383-4.765,3.268
					c-1.179,1.59-2.111,3.613-2.693,5.849c-0.671,2.563-0.8,5.143-0.367,7.27c0.562,2.753,2.074,4.644,4.157,5.187
					c0.628,0.165,1.28,0.197,1.936,0.102c1.718-0.254,3.364-1.383,4.764-3.269c1.179-1.589,2.111-3.612,2.694-5.85
					c0.668-2.561,0.798-5.143,0.366-7.269c-0.561-2.753-2.076-4.644-4.157-5.186C204.444,151.639,203.793,151.604,203.135,151.702
					L203.135,151.702L203.135,151.702L203.135,151.702z"/>
			</g>
			<path d="M204.329,155.247c0,0,13.468,1.076,10.072,10.872c-3.466,8.669-13.262,3.096-14.355,2.308
				C197.039,161.091,204.329,155.247,204.329,155.247z"/>
			<path fill="#B59353" d="M212.845,165.298c1.673-7.534-7.233-8.829-9.2-8.023c-4.032,0.778-3.843,8.537-2.6,9.96
				C203.492,169.125,210.79,170.923,212.845,165.298z"/>
			<path d="M207.106,100.821l7.897,0.178c1.324,4.161,2.365,7.964,3.1,10.84c2.588,0.148,5.125,0.321,7.31,0.521
				c-4.588-15.541-14.071-31.271-14.071-31.271s-8.35-4.994-14.01-4.464c3.35,17.855,4.085,34.534,4.085,34.534
				s2.89,0.072,6.893,0.223L207.106,100.821z M206.34,94.1l-1.063-9.336c0,0,3.854,0.455,4.272,1.742
				c1.433,3.036,2.139,4.963,3.293,8.134L206.34,94.1z"/>
			<path d="M182.445,90.501c0,0-0.267-2.759-0.653-4.716c1.719-0.041,3.269,0.004,4.657,0.108c-0.463-2.663-0.842-4.115-0.842-4.115
				s5.038-0.333,5.789,1.3c0.262,1.17,0.499,2.428,0.715,3.692c2.915,0.734,4.227,1.605,4.227,1.605l0.561,3.792
				c0,0-1.627-0.548-4.129-1.039c0.453,3.363,0.697,6.002,0.697,6.002s-3.011,0.005-5.721-0.855
				c-0.176-2.172-0.389-4.134-0.613-5.862C185.63,90.334,184.044,90.344,182.445,90.501z"/>
			<g>
				<path d="M130.5,124.924l0.664-0.25c0.138,0.363,0.226,0.563,0.234,0.585l0.025,0.091l-0.353,0.053l-0.324,0.141
					C130.732,125.505,130.642,125.297,130.5,124.924z M129.23,120.836l0.688-0.178c0.18,0.701,0.373,1.383,0.57,2.027l-0.678,0.208
					C129.608,122.239,129.413,121.547,129.23,120.836z M128.325,116.662l0.698-0.125c0.125,0.697,0.262,1.394,0.41,2.07l-0.694,0.15
					C128.59,118.072,128.451,117.368,128.325,116.662z M127.983,114.555c-0.1-0.697-0.193-1.408-0.271-2.115l0.704-0.08
					c0.079,0.7,0.17,1.404,0.271,2.094L127.983,114.555z M127.506,110.316c-0.059-0.699-0.105-1.414-0.143-2.127l0.708-0.037
					c0.038,0.705,0.085,1.414,0.142,2.107L127.506,110.316z M127.283,106.058c-0.018-0.702-0.025-1.42-0.022-2.131l0.709,0.003
					c-0.002,0.705,0.005,1.415,0.021,2.111L127.283,106.058z M127.299,101.795c0.022-0.704,0.053-1.42,0.094-2.129l0.708,0.041
					c-0.041,0.703-0.072,1.413-0.094,2.11L127.299,101.795z M127.543,97.541c0.059-0.702,0.127-1.415,0.204-2.122l0.706,0.077
					c-0.076,0.699-0.145,1.407-0.202,2.102L127.543,97.541z M128.004,93.305c0.078-0.577,0.163-1.163,0.25-1.731l0.044-0.368
					l0.705,0.089l-0.047,0.376c-0.089,0.576-0.172,1.156-0.25,1.728L128.004,93.305z M128.585,89.096
					c0.104-0.699,0.215-1.407,0.334-2.104l0.699,0.119c-0.117,0.69-0.228,1.395-0.331,2.088L128.585,89.096z M129.299,84.896
					c0.134-0.691,0.279-1.392,0.429-2.086l0.694,0.151c-0.149,0.687-0.292,1.384-0.425,2.07L129.299,84.896z M130.203,80.732
					c0.166-0.685,0.342-1.38,0.524-2.065l0.686,0.183c-0.181,0.679-0.356,1.37-0.519,2.049L130.203,80.732z M131.299,76.614
					c0.2-0.682,0.409-1.368,0.622-2.038l0.676,0.214c-0.211,0.665-0.419,1.346-0.616,2.023L131.299,76.614z M132.591,72.554
					c0.232-0.672,0.474-1.347,0.72-2.006l0.664,0.248c-0.243,0.652-0.484,1.323-0.713,1.989L132.591,72.554z M134.082,68.561
					c0.267-0.661,0.543-1.323,0.822-1.967l0.651,0.281c-0.277,0.639-0.551,1.295-0.815,1.951L134.082,68.561z M135.779,64.649
					c0.302-0.647,0.614-1.292,0.929-1.919l0.634,0.317c-0.311,0.621-0.622,1.261-0.92,1.902L135.779,64.649z M137.694,60.835
					c0.345-0.638,0.697-1.264,1.047-1.861l0.613,0.359c-0.347,0.589-0.694,1.208-1.036,1.839L137.694,60.835z M139.857,57.151
					c0.745-1.16,1.199-1.755,1.219-1.78l0.563,0.432c-0.006,0.007-0.458,0.6-1.184,1.73L139.857,57.151z"/>
			</g>
			<circle fill="#E6E6E6" cx="98.634" cy="129.573" r="3.935"/>
			<path d="M113.678,161.302c0,0-0.512,2.372-1.147,3.899c28.377,6.914,51.319-1.631,51.319-1.631s-20.951,5.191-49.693,0.34
				C114.555,162.705,113.678,161.302,113.678,161.302z"/>
			<path d="M160.849,158.56c0.206-0.568,1.528-0.765,1.528-0.765s6.069,2.903,5.973,5.558c-0.081,0.928-1.134,1.53-1.584,0.992
				c-0.955-1.559-2.217-1.286-2.217-1.286l-0.697,0.511c0,0-9.138,1.97-5.586,1.034c3.553-0.938,4.141-3.331,4.141-3.331
				S160.643,159.126,160.849,158.56z"/>
			<circle cx="161.778" cy="129.653" r="3.464"/>
			<circle cx="103.143" cy="133.185" r="3.463"/>
			<path fill="#31738B" d="M122.432,183.306c-0.413,3.233,2.215,4.999,2.215,4.999s-3.016,3.688-2.083,4.512
				c2.962,1.456,6.141,1.688,6.141,1.688l-1.265-7.011C127.44,187.494,123.042,181.405,122.432,183.306z"/>
			<path d="M122.113,182.026c-0.672,1.76,5.326,5.468,5.326,5.468s0.7,6.602,1.846,8.412c7.797,6.881,34.661,0.282,34.661,0.282
				s-29.725,4.221-33.618-2.235c-0.34-1.742-1.458-7.458-1.458-7.458s-4.771-3.173-3.609-3.56s18.549,2.216,30.342-5.847
				C141.341,184.942,122.787,180.267,122.113,182.026z"/>
			<path d="M145.003,127.934c-1.815-0.337-14.742-4.036-25.417,0.271c-1.198,0.963,0.642,3.917,0.642,3.917s9.856-4.525,25.064,0.04
				C146.727,132.247,146.817,128.27,145.003,127.934z"/>
			<path d="M85.732,135.255c7.486-8.56,13.883-12.293,19.985-12.228c10.604,0.109,16.699,6.428,18.728,9.536
				c0.377-0.786-6.073-9.874-18.388-10.401C100.081,122.198,92.256,125.667,85.732,135.255z"/>
			<path d="M85.732,135.255c8.289,10.576,15.737,12.963,21.853,11.733c11.311-0.899,17.237-15.212,17.237-15.212
				S109.964,161.89,85.732,135.255z"/>
			<path d="M189.564,127.112c-24.419-24.524-47.782,3.887-47.782,3.887S165.871,98.751,189.564,127.112z"/>
			<path d="M189.564,127.112c-1.274,8.868-14.212,14.916-20.896,15.923c-14.234,2.731-26.017-9.519-26.885-12.037
				c3.705,5.042,11.672,9.875,20.643,10.589C171.908,142.629,186.371,136.12,189.564,127.112z"/>
			<g>
				<path fill="#31738B" d="M122.073,160.196c-0.128-0.065-0.198-0.102-0.198-0.102l26.737-8.234c0,0,2.803,3.611-1.425,5.904
					C139.619,159.129,129.789,159.834,122.073,160.196z"/>
				<path fill="#31738B" d="M139.009,159.523c-7.115,5.163-15.551,1.357-16.936,0.672c7.716-0.362,17.545-1.067,25.115-2.432
					C145.61,158.617,143.056,159.291,139.009,159.523z"/>
			</g>
			<path d="M142.537,146.138c12.149,3.088,3.479,15.987-4.308,10.924c-23.362,12.598-28.77-9.492-16.079-11
				C119.789,136.943,139.01,133.997,142.537,146.138z"/>
			<path fill="#B59353" d="M124.66,147.827c0,0-0.042-0.682-0.254-1.132c-0.214-0.449-1.133-2.063-0.227-3.56
				c2.082-5.216,16.919-3.009,16.337,4.678c3.091,0.221,4.825,1.184,5.554,2.365c1.893,3.065-2.961,7.604-8.398,4.522
				c-3.955,2.389-11.221,5.077-15.63,4.029c-6.99-1.94-6.129-10.724-0.145-11.181C123.469,147.532,124.66,147.827,124.66,147.827z"
				/>
			<path fill="#31738B" d="M135.908,141.498c2.51,2.766,2.766,7.547,2.766,7.547l1.87-1.855
				C140.544,147.189,140.798,143.849,135.908,141.498z"/>
			<path fill="#B0B4B7" d="M83.492,134.286"/>
			<path fill="#31738B" d="M170.145,178.474l-2.37,11.724c0,0-4.831,6.04-2.968,5.691c1.861-0.346,7.646-2.834,7.646-2.834
				L170.145,178.474z"/>
			<path d="M140.529,147.205c0,0-2.481,0.057-1.796,3.4c0.937-2.495,3.743-2.519,3.743-2.519L140.529,147.205z"/>
			<path fill="#B0B4B7" d="M138.733,150.604c0,0,1.804-1.016,3.925-1.275c2.123-0.259,3.412,0.849,3.412,0.849
				s-1.634-1.818-3.594-2.093C140.516,147.813,138.733,150.604,138.733,150.604z"/>
			<path fill="#B0B4B7" d="M124.66,147.827c8.18,1.832-7.407,6.278-7.407,6.278S116.479,145.995,124.66,147.827z"/>
			<path fill="#31738B" d="M146.355,150.534c-0.239,5.374-8.729,2.276-8.729,2.276s-10.405,6.015-15.584,5.921
				c7.04,0.972,15.631-4.031,15.631-4.031s3.373,2.259,6.637,0.167C145.189,154.412,146.926,153.294,146.355,150.534z"/>
			<path fill="#B0B4B7" d="M128.072,140.501c-6.864,1.433-3.412,7.327-3.412,7.327l2.226,1.416
				C126.885,149.244,123.601,143.32,128.072,140.501z"/>
			<path d="M133.924,148.208c-3.328,2.389-7.387,0.303-7.387,0.303S130.742,148.121,133.924,148.208z"/>
			<path fill="#B0B4B7" d="M153.745,156.195c6.239-4.507,12.052-3.87,16.028-1.711c4.015,2.179,5.913,5.069,6.797,7.194
				c0.016-0.856-1.993-6.073-8.155-8.735C164.669,151.449,158.638,151.307,153.745,156.195z"/>
			<path fill="#B0B4B7" d="M200.974,159.713l12.035,4.593c0,0,0.597-6.639-7.714-7.339
				C202.479,157.121,200.974,159.713,200.974,159.713z"/>
			<path fill="#31738B" d="M200.316,164.823c0,0,1.416,1.747,2.438,2.507c1.019,0.758,4.683,1.744,4.683,1.744
				s-3.952,0.301-6.393-1.84C200.294,166.377,200.316,164.823,200.316,164.823z"/>
			<path opacity="0.1" fill="#B0B4B7" enable-background="new    " d="M146.106,125.006c-0.084,3.109,0.803,7.807,1.232,9.734
				c0.523,2.339,5.037,2.917,5.037,2.917s13.284,1.149,21.776-0.649c2.31-0.415,3.374-3.624,3.374-3.624l0.689-8.501
				c0,0,0.569-2.508-1.705-2.505c-1.977,0.004-22.519,0.001-28.564,0.582C147.029,123.046,146.124,124.337,146.106,125.006z"/>
			<path opacity="0.1" fill="#B0B4B7" enable-background="new    " d="M118.372,127.357c0.293,1.273,0.259,3.145,0.171,4.566
				c-0.07,1.153-0.252,4.821-1.409,5.025c-6.714,2.353-20.744,3.677-20.744,3.677s-3.234-0.189-3.77-2.291
				c-0.535-2.101-1.679-6.686-2.105-7.835c-0.602-1.89,2.489-2.361,2.489-2.361S117.776,123.736,118.372,127.357z"/>
			<path d="M144.695,134.106c0,0,2.181,4.722,7.714,6.038c5.819,1.164,12.933,0.018,18.003-0.415
				c7.307-0.623,8.129-2.327,9.793-4.607c1.414-3.54,1.842-10.895,1.842-10.895s2.049-4.035-0.591-4.872
				c-16.443-2.807-33.415,1.215-33.415,1.215s-3.633,0.188-4.13,4.802C143.415,129.987,144.695,134.106,144.695,134.106z
				 M146.548,125.361c0.019-0.668,1.591-2.292,2.505-2.38c6.718-1.196,25.479-0.599,27.456-0.603
				c2.274-0.003,1.705,2.505,1.705,2.505l-0.635,7.816c0,0-0.116,2.72-3.499,3.61c-8.491,1.799-21.706,1.349-21.706,1.349
				s-4.258-1.036-4.78-3.377C147.164,132.354,146.464,128.47,146.548,125.361z"/>
			<path d="M87.623,130.759c0.308,2.241,1.288,5.933,2.877,9.274c1.589,3.34,7.257,2.564,7.257,2.564s9.876-0.669,18.43-2.841
				c4.61-0.692,5.151-3.994,5.151-3.994s0.078-6.375-0.089-8.259c-0.254-2.877-3.474-3.766-3.474-3.766s-10.644-0.666-17.356,0.367
				c-6.712,1.034-10.356,2.553-10.356,2.553S87.109,127.966,87.623,130.759z M93.004,128.139c0,0,24.116-4.17,24.713-0.548
				c0.743,2.558,0.638,8.844-1.068,9.521c-6.713,2.352-20.259,3.513-20.259,3.513s-3.234-0.188-3.769-2.291
				c-0.535-2.101-1.551-6.306-1.979-7.457C89.978,128.688,93.004,128.139,93.004,128.139z"/>
		</g>
	</g>
</g>
<g>
	<path d="M115.856,221.68c0-0.346-0.024-0.648-0.071-0.907c-0.046-0.26-0.124-0.474-0.23-0.646c-0.109-0.174-0.252-0.303-0.427-0.39
		c-0.177-0.087-0.395-0.13-0.652-0.13c-0.259,0-0.477,0.043-0.653,0.13c-0.177,0.087-0.319,0.217-0.427,0.39
		c-0.107,0.173-0.185,0.387-0.231,0.646c-0.047,0.259-0.07,0.561-0.07,0.907v3.107c0,0.52,0.039,0.937,0.118,1.253
		c0.08,0.318,0.184,0.562,0.312,0.734c0.13,0.172,0.277,0.288,0.443,0.345c0.167,0.058,0.335,0.087,0.508,0.087
		c0.172,0,0.342-0.029,0.506-0.087c0.165-0.058,0.314-0.173,0.443-0.345c0.131-0.173,0.234-0.418,0.313-0.734
		c0.079-0.316,0.119-0.733,0.119-1.253v-0.345h-1.382v-1.036h2.763v4.836h-1.037l-0.344-1.036c-0.076,0.212-0.177,0.401-0.302,0.567
		c-0.054,0.071-0.116,0.141-0.187,0.209c-0.072,0.069-0.151,0.13-0.241,0.181c-0.091,0.053-0.189,0.095-0.297,0.128
		c-0.107,0.031-0.226,0.048-0.355,0.048c-0.289,0-0.557-0.023-0.805-0.072c-0.247-0.049-0.474-0.13-0.679-0.245
		c-0.205-0.115-0.387-0.269-0.545-0.46c-0.158-0.189-0.293-0.429-0.402-0.717c-0.109-0.289-0.192-0.627-0.249-1.015
		c-0.055-0.388-0.083-0.84-0.083-1.354v-2.448c0-0.521,0.047-0.997,0.141-1.433c0.094-0.434,0.249-0.809,0.464-1.121
		c0.216-0.312,0.5-0.559,0.853-0.734c0.353-0.176,0.788-0.266,1.306-0.266c0.457,0,0.857,0.07,1.201,0.214
		c0.343,0.141,0.63,0.349,0.862,0.62c0.233,0.272,0.407,0.607,0.524,1.007c0.117,0.398,0.176,0.854,0.176,1.366L115.856,221.68
		L115.856,221.68z"/>
	<path d="M123.418,228.242l-1.448-4.489h-1.036v4.489h-1.382v-9.671h1.727c0.604,0,1.106,0.062,1.505,0.188
		c0.399,0.123,0.718,0.299,0.956,0.525c0.237,0.227,0.405,0.499,0.501,0.816c0.097,0.319,0.146,0.674,0.146,1.061
		c0,0.24-0.017,0.453-0.052,0.644c-0.033,0.19-0.08,0.362-0.138,0.511c-0.057,0.149-0.123,0.28-0.194,0.395
		c-0.072,0.114-0.146,0.211-0.222,0.289c-0.176,0.191-0.38,0.326-0.607,0.408l1.559,4.837h-1.314V228.242z M120.934,222.718h0.345
		c0.259,0,0.495-0.024,0.706-0.075c0.212-0.047,0.395-0.131,0.545-0.249c0.151-0.119,0.269-0.278,0.351-0.478
		c0.082-0.199,0.124-0.451,0.124-0.755c0-0.303-0.041-0.552-0.124-0.752c-0.083-0.201-0.2-0.359-0.351-0.477
		c-0.151-0.118-0.333-0.202-0.545-0.252c-0.212-0.049-0.447-0.073-0.706-0.073h-0.345V222.718z"/>
	<path d="M129.983,223.753h-1.727v3.453h2.417v1.036h-3.799v-9.671h3.799v1.036h-2.417v3.11h1.727V223.753z"/>
	<path d="M136.786,221.68c0-0.346-0.023-0.648-0.07-0.907c-0.046-0.26-0.124-0.474-0.231-0.646c-0.108-0.174-0.25-0.303-0.426-0.39
		c-0.176-0.087-0.395-0.13-0.653-0.13c-0.259,0-0.477,0.043-0.652,0.13c-0.177,0.087-0.319,0.217-0.427,0.39
		c-0.107,0.173-0.185,0.387-0.231,0.646c-0.047,0.259-0.071,0.561-0.071,0.907v3.107c0,0.52,0.04,0.937,0.119,1.253
		c0.08,0.318,0.183,0.562,0.312,0.734c0.13,0.172,0.277,0.288,0.443,0.345c0.166,0.058,0.335,0.087,0.507,0.087
		s0.342-0.029,0.508-0.087c0.165-0.058,0.313-0.173,0.442-0.345c0.129-0.173,0.234-0.418,0.313-0.734
		c0.08-0.316,0.119-0.733,0.119-1.253v-0.345h-1.382v-1.036h2.764v4.836h-1.037l-0.346-1.036c-0.075,0.212-0.176,0.401-0.302,0.567
		c-0.054,0.071-0.115,0.141-0.186,0.209c-0.071,0.069-0.15,0.13-0.241,0.181c-0.09,0.053-0.189,0.095-0.297,0.128
		c-0.107,0.031-0.227,0.048-0.356,0.048c-0.288,0-0.556-0.023-0.803-0.072c-0.249-0.049-0.475-0.13-0.68-0.245
		c-0.206-0.115-0.387-0.269-0.546-0.46c-0.159-0.189-0.293-0.429-0.402-0.717c-0.109-0.289-0.192-0.627-0.248-1.015
		c-0.056-0.388-0.084-0.84-0.084-1.354v-2.448c0-0.521,0.046-0.997,0.141-1.433c0.094-0.434,0.248-0.809,0.464-1.121
		s0.5-0.559,0.853-0.734c0.354-0.176,0.788-0.266,1.306-0.266c0.457,0,0.858,0.07,1.201,0.214c0.343,0.141,0.632,0.349,0.862,0.62
		c0.232,0.272,0.407,0.607,0.525,1.007c0.117,0.398,0.176,0.854,0.176,1.366L136.786,221.68L136.786,221.68z"/>
	<path d="M144.455,221.68c0-0.346-0.023-0.648-0.071-0.907c-0.046-0.26-0.123-0.474-0.231-0.646c-0.108-0.174-0.25-0.303-0.426-0.39
		s-0.394-0.13-0.653-0.13c-0.259,0-0.477,0.043-0.652,0.13c-0.177,0.087-0.319,0.217-0.426,0.39s-0.186,0.387-0.232,0.646
		c-0.046,0.259-0.07,0.561-0.07,0.907v3.107c0,0.52,0.04,0.937,0.119,1.253c0.079,0.318,0.184,0.562,0.313,0.734
		c0.13,0.172,0.276,0.288,0.443,0.345c0.165,0.058,0.333,0.087,0.507,0.087c0.172,0,0.342-0.029,0.507-0.087
		c0.165-0.058,0.313-0.173,0.442-0.345c0.129-0.173,0.234-0.418,0.313-0.734s0.119-0.733,0.119-1.253v-0.345h-1.382v-1.036h2.763
		v4.836h-1.036l-0.345-1.036c-0.076,0.212-0.176,0.401-0.303,0.567c-0.053,0.071-0.115,0.141-0.185,0.209
		c-0.071,0.069-0.151,0.13-0.241,0.181c-0.09,0.053-0.189,0.095-0.296,0.128c-0.109,0.031-0.227,0.048-0.356,0.048
		c-0.289,0-0.557-0.023-0.804-0.072c-0.248-0.049-0.474-0.13-0.68-0.245c-0.205-0.115-0.387-0.269-0.545-0.46
		c-0.158-0.189-0.293-0.429-0.402-0.717c-0.109-0.289-0.191-0.627-0.248-1.015c-0.056-0.388-0.084-0.84-0.084-1.354v-2.448
		c0-0.521,0.047-0.997,0.141-1.433c0.094-0.434,0.248-0.809,0.464-1.121s0.5-0.559,0.853-0.734c0.354-0.176,0.788-0.266,1.306-0.266
		c0.457,0,0.857,0.07,1.202,0.214c0.343,0.141,0.631,0.349,0.862,0.62c0.232,0.272,0.406,0.607,0.523,1.007
		c0.117,0.398,0.176,0.854,0.176,1.366L144.455,221.68L144.455,221.68z"/>
	<path d="M154.571,218.571c0.432,0,0.802,0.063,1.107,0.191c0.306,0.123,0.556,0.306,0.751,0.543
		c0.194,0.238,0.336,0.527,0.426,0.87c0.089,0.341,0.135,0.728,0.135,1.158c0,0.434-0.062,0.802-0.184,1.108
		c-0.122,0.306-0.292,0.556-0.506,0.75c-0.217,0.194-0.471,0.336-0.766,0.426s-0.615,0.136-0.961,0.136h-1.035v4.49h-1.383v-9.672
		L154.571,218.571L154.571,218.571z M153.881,222.718c0.346,0,0.63-0.024,0.852-0.072c0.224-0.046,0.398-0.123,0.529-0.231
		c0.13-0.108,0.219-0.249,0.27-0.427c0.051-0.176,0.075-0.393,0.075-0.653c0-0.258-0.008-0.492-0.026-0.706
		c-0.018-0.211-0.082-0.392-0.189-0.544c-0.107-0.15-0.278-0.268-0.513-0.35c-0.234-0.085-0.567-0.126-0.999-0.126h-0.344v3.11
		L153.881,222.718L153.881,222.718z"/>
	<path d="M164.483,225.135c0,0.431-0.043,0.84-0.134,1.229c-0.09,0.389-0.242,0.729-0.454,1.02
		c-0.212,0.292-0.497,0.524-0.851,0.697c-0.354,0.172-0.796,0.258-1.325,0.258c-0.358,0-0.676-0.038-0.953-0.118
		c-0.277-0.078-0.519-0.188-0.722-0.327c-0.204-0.142-0.375-0.311-0.516-0.51c-0.139-0.197-0.252-0.415-0.336-0.653
		c-0.085-0.235-0.146-0.489-0.181-0.761c-0.036-0.268-0.053-0.548-0.053-0.834v-3.455c0-0.289,0.018-0.566,0.053-0.836
		c0.036-0.271,0.096-0.524,0.181-0.761c0.084-0.237,0.197-0.454,0.336-0.653c0.142-0.198,0.313-0.367,0.516-0.507
		s0.444-0.25,0.722-0.328c0.276-0.081,0.595-0.12,0.953-0.12c0.529,0,0.971,0.088,1.325,0.26c0.354,0.174,0.638,0.403,0.851,0.696
		c0.212,0.292,0.366,0.632,0.454,1.02c0.09,0.391,0.134,0.8,0.134,1.231V225.135z M160.34,225.48c0,0.258,0.023,0.493,0.07,0.707
		c0.047,0.21,0.124,0.393,0.232,0.543c0.107,0.151,0.249,0.269,0.426,0.352c0.176,0.084,0.394,0.124,0.65,0.124
		c0.258,0,0.478-0.04,0.655-0.124c0.175-0.083,0.316-0.2,0.425-0.352c0.108-0.15,0.186-0.333,0.231-0.543
		c0.048-0.215,0.071-0.449,0.071-0.707v-4.146c0-0.259-0.022-0.493-0.071-0.707c-0.046-0.21-0.123-0.393-0.231-0.544
		c-0.109-0.15-0.25-0.268-0.425-0.351c-0.178-0.083-0.397-0.125-0.655-0.125c-0.257,0-0.475,0.042-0.65,0.125
		c-0.177,0.084-0.318,0.2-0.426,0.351c-0.107,0.151-0.186,0.334-0.232,0.544c-0.047,0.215-0.07,0.448-0.07,0.707V225.48z"/>
	<path d="M166.799,228.242v-9.671h1.381v8.636h2.418v1.037h-3.799V228.242z"/>
	<path d="M172.74,228.242v-9.671h1.38v8.636h2.418v1.037h-3.798V228.242z"/>
	<path d="M180.199,225.824l-0.484,2.418h-1.378l2.023-9.671h1.427l2.074,9.671h-1.331l-0.519-2.418H180.199z M181.789,224.788
		l-0.692-4.144l-0.689,4.144H181.789z"/>
	<path d="M191.357,224.788v0.347c0,0.431-0.049,0.84-0.143,1.229c-0.093,0.389-0.246,0.729-0.463,1.02
		c-0.215,0.292-0.5,0.524-0.854,0.697c-0.353,0.172-0.785,0.258-1.305,0.258s-0.954-0.088-1.308-0.264
		c-0.353-0.177-0.636-0.423-0.853-0.736c-0.216-0.313-0.371-0.69-0.465-1.126c-0.093-0.436-0.14-0.911-0.14-1.43v-2.756
		c0-0.521,0.046-0.997,0.14-1.433c0.094-0.434,0.249-0.809,0.465-1.121c0.217-0.312,0.5-0.559,0.853-0.734
		c0.354-0.176,0.788-0.266,1.308-0.266c0.488,0,0.908,0.079,1.261,0.236c0.351,0.155,0.636,0.375,0.857,0.655
		c0.22,0.281,0.383,0.618,0.486,1.012c0.105,0.394,0.159,0.828,0.159,1.303h-1.383c0-0.346-0.024-0.648-0.071-0.907
		c-0.046-0.26-0.123-0.474-0.23-0.646c-0.108-0.174-0.252-0.303-0.428-0.39c-0.177-0.087-0.392-0.13-0.651-0.13
		c-0.258,0-0.478,0.043-0.652,0.13c-0.178,0.087-0.318,0.217-0.428,0.39c-0.106,0.173-0.184,0.387-0.232,0.646
		c-0.046,0.259-0.068,0.561-0.068,0.907v3.455c0,0.259,0.022,0.514,0.068,0.76c0.049,0.248,0.126,0.47,0.232,0.664
		c0.109,0.194,0.25,0.351,0.428,0.469c0.175,0.119,0.395,0.179,0.652,0.179c0.26,0,0.475-0.06,0.651-0.179
		c0.176-0.118,0.319-0.274,0.428-0.469c0.105-0.194,0.185-0.416,0.23-0.664c0.047-0.246,0.071-0.501,0.071-0.76v-0.347H191.357
		L191.357,224.788z"/>
	<path d="M199.197,228.242h-1.727l-1.727-4.489l-0.69,1.382v3.107h-1.383v-9.671h1.383v4.146l2.071-4.146h1.727l-2.078,3.801
		L199.197,228.242z"/>
</g>
</svg>
