<?xml version="1.0" encoding="utf-8"?>
<!-- Generator: Adobe Illustrator 16.0.0, SVG Export Plug-In . SVG Version: 6.00 Build 0)  -->
<!DOCTYPE svg PUBLIC "-//W3C//DTD SVG 1.1//EN" "http://www.w3.org/Graphics/SVG/1.1/DTD/svg11.dtd">
<svg version="1.1" id="Capa_1" xmlns="http://www.w3.org/2000/svg" xmlns:xlink="http://www.w3.org/1999/xlink" x="0px" y="0px"
	 width="309px" height="295.313px" viewBox="0 0 309 295.313" enable-background="new 0 0 309 295.313" xml:space="preserve">
<path fill="#FFFFFF" d="M156.017,0l0.6,123.574L175.939,1.619l-18.139,122.149l37.57-117.334l-36.43,117.716l54.892-109.824
	L160.01,124.712l70.863-99.609l-69.894,100.337l85.089-86.943l-84.241,87.818l97.221-72.135l-96.516,73.136l106.956-55.55
	l-106.412,56.653l114.06-37.597l-113.689,38.774l118.354-18.72l-118.168,19.942l119.736,0.619l-119.736,0.619l118.168,19.942
	l-118.354-18.72l113.689,38.775l-114.06-37.599l106.412,56.652l-106.956-55.55l96.515,73.135l-97.22-72.133l84.241,87.818
	l-85.089-86.943l69.894,100.337l-70.863-99.608l53.823,110.386l-54.892-109.823l36.43,117.717l-37.57-117.335l18.139,122.15
	l-19.323-121.957l-0.6,123.574l-0.599-123.574l-19.324,121.956l18.138-122.149l-37.569,117.335l36.429-117.717L98.2,248.546
	l53.824-110.387l-70.863,99.609l69.894-100.337l-85.09,86.943l84.241-87.818l-97.219,72.133l96.515-73.135l-106.957,55.55
	l106.413-56.652l-114.06,37.597l113.689-38.775L30.232,151.998l118.167-19.942l-119.734-0.619l119.734-0.619L30.232,110.875
	l118.354,18.72L34.897,90.821l114.06,37.597L42.544,71.765l106.957,55.55L52.987,54.18l97.22,72.135L65.965,38.497l85.089,86.943
	L81.161,25.103l70.863,99.609L98.199,14.325l54.893,109.825L116.663,6.434l37.57,117.334L136.095,1.619l19.323,121.955L156.017,0z"
	/>
<g>
	<rect x="87.053" y="208.053" fill="#FFFFFF" width="138.474" height="32.348"/>
	<path d="M223.68,209.902v28.65H88.901v-28.65H223.68 M227.376,206.206H85.205v36.044h142.171V206.206L227.376,206.206z"/>
</g>
<g>
	<g>
		<polygon fill="#D9DADB" points="214.331,292.676 214.331,283.626 94.158,283.626 94.158,292.676 4.96,292.676 24.636,267.89 
			4.96,243.104 43.71,243.104 43.71,234.054 264.546,234.054 264.546,243.104 302.867,243.104 287.127,267.89 302.867,292.676 		"/>
		<path d="M261.909,236.691v9.05h36.159l-14.065,22.148l14.065,22.148h-81.1v-9.049H91.521v9.049h-81.1l17.583-22.148
			l-17.583-22.148h35.927v-9.05H261.909 M267.183,231.417h-5.273H46.348h-5.275v5.274v3.775H10.421H-0.5l6.791,8.554l14.979,18.87
			L6.291,286.76l-6.791,8.553h10.921h81.1h5.275v-5.274v-3.774h114.898v3.774v5.274h5.274h81.1h9.599l-5.146-8.102l-12.27-19.321
			l12.27-19.32l5.146-8.103h-9.599h-30.886v-3.775V231.417L267.183,231.417z"/>
	</g>
	<polygon fill="#B0B4B7" points="91.521,290.039 91.521,245.742 10.421,245.742 28.004,267.89 10.421,290.039 	"/>
	<polygon fill="#B0B4B7" points="298.068,245.742 216.969,245.742 216.969,290.039 298.068,290.039 284.003,267.89 	"/>
	<polygon points="41.012,243.749 41.012,284.233 79.092,292.852 93.489,291.766 50.043,243.749 	"/>
	<polygon points="267.198,243.573 267.198,284.058 229.12,292.676 214.722,291.589 258.167,243.573 	"/>
	<polygon fill="#8B8B8B" points="261.909,236.691 261.909,280.989 216.969,290.039 216.792,245.742 	"/>
	<polygon fill="#8B8B8B" points="46.348,236.691 46.348,280.989 91.288,290.039 91.465,245.742 	"/>
	<rect x="46.348" y="236.691" fill="#D9DADB" width="215.562" height="44.298"/>
</g>
<g>
	<path d="M102.363,250.126h0.491l0.305,0.203l0.068,0.22l0.458,0.729l0.338,0.576l0.153,0.39l0.237,0.373l0.136,0.32l0.067,0.203
		l-0.034,0.137l0.034,0.288l0.068,0.169l0.068,0.271l0.254,0.321l0.407,0.34l0.136,0.253l0.084,0.34l0.102,0.355l0.169,0.271
		l0.17,0.526l0.458,0.372l0.102,0.354l-0.067,0.306l-0.288,0.305l-0.135,0.254l-0.83,0.492l-0.56,0.338l-0.407,0.17l-0.169,0.136
		l-0.22,0.22l-0.169,0.067l-0.424,0.102l-0.271,0.203l-0.203,0.067l-0.593,0.355h-0.135l-0.254,0.203l-0.136,0.035l-0.475,0.456
		l-0.186,0.306l-0.034,0.135v0.153l-0.034,0.203l-0.271,0.271l-0.492-0.033l0.034,0.39l-0.034,0.271l-0.135,0.203l-0.102,0.321
		l-0.169,0.203l-0.084,0.203l0.051,0.322l0.135,0.237l0.169,0.034l0.169,0.066h0.204h0.424l0.322,0.153l0.474,0.034l0.389,0.033
		l0.204,0.034h0.136l0.457,0.068l0.474,0.034l0.458-0.067l0.203-0.137l0.068-0.151l0.084-0.17l-0.034-0.135v-0.137l-0.119-0.187
		l-0.135-0.237l-0.136-0.44l0.102-0.424l0.102-0.169l0.136-0.22l0.355-0.169l0.203-0.034h0.22l0.339,0.135l0.203,0.068l0.255,0.288
		l0.135,0.305l0.067,0.897l-0.067,0.152l-0.068,0.407l-0.067,0.424l-0.102,0.271l-0.187,0.136l-0.136,0.221l-0.034,0.203
		l-0.305,0.338l-0.254,0.254l-1.49,1.204l-0.136,0.219l-0.067,0.44l0.101,0.188l0.034,0.304l-0.068,0.271l-0.203,0.289l-0.187,0.034
		l-0.542,0.102l-0.254-0.067l-0.44-0.067l-0.22-0.068l-0.305-0.135l-0.204-0.119l-0.22-0.034l-0.204-0.034l-0.271-0.203
		l-0.321-0.067l-0.576-0.355l-0.186-0.067l-0.305-0.17l-0.355-0.203l-0.305-0.136l-0.491-0.321l-0.475-0.169l-0.424-0.204
		l-0.203-0.033h-0.525l-0.204-0.118l-0.254-0.237l-0.102-0.238l0.034-0.101l0.067-0.254l0.153-0.237l0.407-0.391l0.203-0.304
		l0.034-0.306l0.084-0.254l0.067-0.475v-0.22L96.299,263v-0.22l-0.118-0.102l-0.034-0.305l0.187-0.102l-0.102-0.22l0.068-0.34
		l-0.034-0.203l-0.152-0.39l0.152-0.169l0.034-0.136v-0.136l-0.034-0.559l0.034-0.136v-1.118l-0.034-0.237v-0.321l-0.034-0.475
		l0.034-0.322l-0.034-0.372l0.034-0.254l0.034-0.169l-0.068-0.136l-0.085-0.627l-0.034-0.39l0.034-0.271l-0.135-0.407l-0.102-0.152
		l-0.373-0.271l-0.118-0.136l-0.034-0.169l0.034-0.322l0.22-0.305l0.475-0.187l0.728-0.102l0.39-0.102l0.135-0.066l0.204-0.035
		l1.457-0.423l0.22-0.103h0.169l0.102-0.101l0.136-0.17l0.254,0.067l0.339-0.169l0.237-0.187l0.526-0.306l0.135-0.066l0.661-0.628
		l0.102-0.236l0.034-0.254l0.22-0.237L102.363,250.126z M100.075,253.532l-0.101,0.271v0.271l0.067,0.187l0.068,0.271l0.068,0.457
		l0.034,0.17l0.068,0.136l0.034,0.729l0.034,0.136l0.068,0.22l0.067,0.339l-0.102,0.237l0.102,0.321v0.204l-0.067,0.203
		l-0.102,0.354l0.034,0.137l0.034,0.136l-0.034,0.288l0.034,0.169v0.237l0.034,0.169l-0.068,0.322l0.102,0.169l0.457-0.594
		l0.491-0.169l0.068-0.169l0.135-0.068l0.136-0.101l0.204-0.067l0.288-0.492l0.067-0.136l-0.067-0.186l-0.169-0.306l-0.068-0.169
		l-0.051-0.22l-0.238-0.509l-0.491-1.253l-0.136-0.102l-0.339-0.66l-0.067-0.237l-0.424-0.729L100.075,253.532z"/>
	<path d="M114.136,243.977l0.135,0.086l0.407-0.052l0.255,0.052l0.305,0.135l0.288,0.271l0.034,0.271l0.034,0.186v0.169
		l-0.135,0.306l-0.491,0.288l-0.169,0.033l-0.254,0.068l-0.373,0.168l-0.169,0.17l-0.153,0.187l-0.271,0.628l-0.067,0.135v0.136
		l-0.034,0.237l-0.034,0.594v0.389l-0.102,2.287l-0.085,1l-0.034,0.168l-0.068,0.255l0.153,0.271l-0.051,0.27l0.187,0.153v0.237
		l0.034,0.271l-0.068,0.254v0.373l-0.102,0.22l-0.118,0.406v0.203l0.067,0.187v0.135l-0.067,0.238l0.186,0.559v0.457l0.034,0.339
		v0.796l-0.102,0.103l-0.085,0.187v0.339l0.034,0.39l-0.034,0.271l-0.136,0.338l0.255,0.034l0.067,0.221v0.237v0.457l0.068,0.237
		l-0.034,0.169v0.695l0.034,0.32l-0.068,0.271l-0.102,0.305l0.067,0.254l0.102,0.373V263l0.068,0.203l0.034,0.17l0.034,0.321
		l0.102,0.271l0.068,0.237l0.22,0.119l0.762,0.203l0.339,0.305l0.034,0.136v0.356l-0.238,0.371l-0.491,0.425l-0.237,0.169
		l-0.102,0.254l-0.39,0.067l-0.169,0.136l-0.424,0.491l-0.102,0.237l0.203,0.457l0.186,0.17l0.068,0.339l-0.187,0.457l-0.271,0.271
		l-0.237,0.034l-0.321-0.067l-0.136-0.102h-0.169l-0.102-0.068l-0.322-0.168l-0.237-0.288l-0.271-0.169l-0.355-0.204l-0.135-0.168
		l-0.136-0.188l-0.102-0.033l-0.39-0.271l-0.491-0.203l-0.373-0.187l-0.288-0.103l-0.271-0.135l-0.373-0.203l-0.118-0.103
		l-0.068-0.187l-0.067-0.338l0.169-0.356l0.187-0.169l0.136-0.067l0.339-0.169l0.254-0.491v-0.729l0.102-0.203l-0.102-0.17
		l-0.034-0.22l-0.033-0.169l0.102-0.169l0.067-0.56v-0.237l-0.067-0.423l0.169-0.102v-0.237l0.034-0.255l0.034-0.372l0.068-0.204
		l-0.068-0.186l-0.135-0.068v-0.406l-0.17-0.525l0.034-0.424l0.102-0.304l0.068-0.56l-0.034-0.204l0.068-0.762l0.034-0.39v-0.17
		l-0.102-0.304l0.068-0.187l-0.068-0.136l-0.068-0.897l0.034-0.593v-0.407v-0.254l0.034-0.271l0.136-0.322l0.204-0.203l-0.204-0.271
		l-0.169-0.491l-0.034-0.271l0.034-0.152l-0.034-0.135l0.068-0.17l-0.034-0.491l-0.034-0.576l-0.034-0.39l-0.068-2.22l-0.102-0.491
		l-0.051-0.338l-0.034-0.356l-0.474-0.542l-0.221-0.152l-0.203-0.305l-0.068-0.355l0.169-0.306l0.288-0.203l0.542-0.034l0.559,0.068
		l0.288,0.066l0.373,0.103h0.135l0.627,0.389l0.321,0.238l0.204,0.202l0.372,0.391l0.187,0.169l0.203-0.067l0.068-0.169l-0.135-0.22
		l0.339-0.864l0.187-0.203l0.44-0.627l0.491-0.203l0.305-0.153L114.136,243.977z"/>
	<path d="M139.056,245.435l0.169,0.05l0.492-0.05l0.135,0.084l0.305,0.34l0.067,0.136l0.118,0.423l-0.034,0.526l-0.153,0.44
		l-0.271,0.593l-0.965,1.186l-0.186,0.136l-0.102,0.034l0.034,0.729l-0.339,0.525v0.306l-0.068,0.558l0.169,0.34l0.136,0.491v0.237
		v0.136l-0.169,0.39l-0.068,0.136l-0.136,0.169l-0.389,0.22l-0.491,0.034l-0.373-0.102l-0.355-0.321l-0.339-0.593l-0.034-0.271
		l-0.068-0.694v-0.39l-0.424-1.135l-0.305-0.204l-0.068-0.22l0.102-0.372l-0.034-0.102l-0.22-0.322l-0.372-0.135l-0.136-0.034
		l-0.22-0.137l-0.644-0.32l-0.119-0.136l-0.271-0.034h-0.203l-0.39-0.102l-0.204-0.103h-0.491l-0.475,0.034l-0.389,0.137
		l-0.271,0.033l-0.102,0.102l-0.491,0.254l-0.355,0.271l-0.204,0.204l-0.203,0.254l-0.288,0.507l-0.373,0.457l-0.034,0.373
		l0.136,0.39l-0.238,0.39l0.034,0.237l0.034,0.339v0.288l0.102,0.237l0.17,0.355l0.068,0.169l0.067,0.17l0.187,0.203l0.102,0.187
		l0.305,0.305l0.169,0.067l0.153,0.271l0.034,0.188l0.305,0.066l0.271-0.202l0.593,0.338l0.39,0.034l0.339,0.103l0.254-0.339
		l0.271-0.254l0.169-0.068l0.593,0.034l0.525,0.067h0.204l0.203,0.034l0.881,0.254l0.204,0.035l0.237,0.101l0.135,0.067l0.254,0.103
		l0.593,0.321l0.475,0.339l0.136,0.033l0.22,0.137l0.66,0.525l0.204,0.169l0.102,0.22v-0.152l0.102,0.322l0.034,0.135l0.255,0.103
		h0.203l0.169,0.254l0.136,0.135l0.034,0.373l0.102,0.22l0.152,0.102l0.068,0.17l0.372,0.592l0.102,0.306l0.034,0.321l0.187,0.44
		l0.102,0.254l0.102,1.033l0.068,0.204l-0.034,0.39l-0.237,0.406l-0.102,0.424l0.034,0.136l0.135,0.321l-0.034,0.271l-0.526,0.558
		v0.34l0.102,0.457l-0.271,0.373v0.151l-0.204,0.137l-0.187,0.27l-0.169,0.391l-0.203,0.237l-0.102,0.136l-0.068,0.203l-0.186,0.152
		l-0.136,0.203l-0.034,0.169l-0.271,0.322l-0.322,0.203l-0.526,0.372l-0.728,0.391l-0.237-0.035l-0.203,0.204l-0.39,0.169
		l-0.135,0.152l-0.339,0.169l-0.424,0.102h-0.169l-0.237,0.169l-0.424-0.067l-0.136,0.067l-0.169,0.067h-0.288l-0.237,0.118
		l-0.254-0.05l-0.102-0.068l-0.66,0.118h-0.694h-0.237l-0.169-0.084l-0.627-0.103l-1.117-0.101l-0.508,0.135l-0.186-0.169v-0.271
		l-0.204-0.034l-0.339,0.169h-0.186h-0.135l-0.204-0.066h-0.136l-0.203,0.101l-0.22,0.034l-0.373-0.067l-0.22,0.102l-0.237,0.102
		l-0.271,0.288l-0.355,0.169l-0.204,0.237v0.17l-0.305,0.457l-0.084,0.271l-0.034,0.355l0.068,0.627l0.321,0.476l0.526,0.151h0.169
		l0.373-0.254l0.067-0.102l0.085-0.339l0.135-0.187l0.339-0.339l0.254-0.102l0.237,0.034l0.237-0.034l0.559,0.203l0.237,0.203
		l0.068,0.152l0.034,0.966l-0.067,0.372l-0.102,0.22l-0.136,0.271l-0.931,0.729l-0.458,0.169l-0.169,0.102l-0.237,0.051h-0.525
		l-0.237-0.051l-0.289-0.033l-0.136-0.035l-0.592-0.102l-0.136-0.101l-0.491-0.306l-0.271-0.221l-0.559-0.761l-0.034-0.137
		l-0.034-0.136l-0.169-0.491l0.034-0.338l-0.102-0.255v-0.237l0.034-0.271l-0.067-0.321l0.067-0.203l0.034-0.17l0.067-0.559
		l0.068-0.306l0.101-0.22l-0.034-0.169l0.068-0.168l0.136-0.203l0.102-0.289l0.085-0.203l0.237-0.593l0.373-0.763l0.22-0.525
		l0.203-0.339l0.237-0.559l0.288-0.39l0.237-0.863l0.169-0.34l0.034-0.255l-0.034-0.236l-0.034-0.169l0.067-0.169l-0.034-0.255
		l-0.068-0.135l-0.237-0.339l-0.102-0.119l-0.254-0.439l-0.067-0.391l-0.034-0.406l0.102-0.355l0.288-0.306l0.305-0.237h0.136
		l0.424-0.05h0.271l0.559,0.32l0.204,0.203l0.118,0.17l0.204,0.187l0.034,0.203l0.204,0.56l0.034,0.271v0.271l0.034,0.221
		l0.068,0.237v0.169l0.153,0.558l-0.084,0.17l0.186,0.321v0.203v0.137l0.102,0.187l0.169,0.474l0.136,0.254l0.221,0.407l0.169,0.39
		l0.237,0.339l0.39,0.424l0.169,0.034l0.373,0.169l0.153,0.136l0.407,0.136l0.288,0.067l0.339,0.085l0.271,0.136l0.355,0.034
		l0.169-0.034h0.255l0.373,0.034l0.458-0.034l0.373-0.136l0.288-0.034l0.237-0.084l0.204-0.203l0.135-0.17l0.152-0.067l0.067-0.169
		l0.102-0.153l0.271-0.101l0.39-0.237v-0.526l0.033-0.169l0.271-0.457l0.169-0.203l-0.034-0.271v-0.152L135.823,264l0.102-0.305
		l0.119-0.424l-0.034-0.305l-0.118-0.288l-0.034-0.136l-0.034-0.457l-0.135-0.102l-0.034-0.203l-0.237-0.458l-0.169-0.305
		l-0.254-0.339l-0.204-0.187h-0.135l-0.39-0.339l-0.407-0.254l-0.186-0.136l-0.169-0.034l-0.407-0.169l-0.66-0.169l-0.22,0.034
		h-0.373l-0.136,0.169l-0.068,0.355l-0.254,0.237l-0.169,0.136l-0.525,0.067l-0.169-0.034h-0.237h-0.187l-0.203-0.102l-0.136-0.102
		l-0.204-0.067l-0.288-0.22l-0.203,0.034l-0.423-0.102l-0.068-0.238l-0.305-0.101l-0.034-0.288l-0.626-0.306l-0.491-0.271
		l-0.237-0.321l-0.203-0.271l-0.187-0.066l-0.136-0.289l-0.203-0.237l-0.237-0.135l-0.153-0.391l0.153-0.271l-0.153-0.203
		l-0.271,0.067l-0.102-0.102l-0.136-0.22v-0.136l-0.102-0.136l-0.034-0.169l-0.152-0.255l-0.034-0.237v-0.203l-0.068-0.491
		l-0.102-0.457l-0.067-0.271v-0.135l0.169-0.169l0.204-0.086l-0.102-0.237l-0.136-0.033l-0.034-0.203l-0.136-0.322l0.203-0.271
		l0.102-0.694l0.102-0.238l0.085-0.424l0.305-0.694l-0.034-0.135h0.136l0.136-0.39l0.22-0.204l0.034-0.236l0.407-0.526l0.525-0.457
		v-0.136l0.458-0.305l0.897-0.628l0.305-0.168l0.321-0.169l0.136-0.119l0.305-0.169l0.322-0.136l0.203,0.034l0.424-0.169
		l0.135-0.034l0.169,0.034l0.39-0.136h0.204l0.372-0.034l0.254-0.085h0.373l0.457-0.067l0.526,0.067h0.44h0.169l0.661,0.085
		l0.389,0.068l0.305,0.101l0.152,0.034l0.898,0.271l0.237,0.068l0.237,0.101l0.39,0.086l0.796-0.153l0.203-0.339l0.153-0.237
		l0.237-0.254l0.339-0.338L139.056,245.435z"/>
	<path d="M151.269,250.262l0.407,0.034h0.321l0.204,0.034l0.237,0.103l0.321,0.033l0.204,0.034l0.271,0.22l0.424,0.271l0.204,0.103
		l0.22,0.321l0.136,0.169l0.169,0.237l0.425,0.457l0.271,0.067l0.136-0.067l0.136-0.034l0.389-0.288l0.306-0.27l0.186-0.34
		l-0.085-0.253l0.187-0.441l0.203-0.153l0.306-0.102l0.694,0.187h0.152l0.407,0.204l0.067,0.136l0.136,0.067l0.288,0.103
		l0.304,0.253l0.137,0.034l0.287,0.034l0.17,0.102l0.524,0.203l0.34,0.169l0.136,0.067l0.22,0.119l0.339,0.033l0.289,0.068
		l0.201,0.034l0.239,0.169l0.287,0.067l0.136,0.203l0.103,0.187v0.203l-0.356,0.66l-0.237,0.102l-0.135,0.56l-0.169,0.168
		l-0.067,0.238l0.033,0.187l-0.119,0.372v0.136l-0.033,0.355l-0.034,1.254l-0.17,0.17l0.17,0.236l-0.103,0.661l-0.033,0.355
		l-0.034,0.237l-0.101,0.169l0.033,0.593l0.135,0.559v0.238l0.137,0.39l-0.034,0.339v0.236l-0.136,0.661l0.033,0.288l0.035,0.203
		l-0.035,0.137l0.103,0.456l-0.136,0.203l0.103,0.136l0.066,0.102l0.034,0.457l0.118,0.271l0.729,0.423l0.304,0.306l-0.034,0.355
		l-0.203,0.339l-0.354,0.425l-0.271,0.033l-0.202,0.339l-0.391,0.39l-0.136,0.137l-0.101,0.559l0.066,0.271l0.169,0.321l0.102,0.204
		l-0.135,0.39l-0.238,0.27h-0.152l-0.44-0.033l-0.203-0.067l-0.322-0.136l-0.305-0.254l-0.22-0.137l-0.237-0.304l-0.27-0.153
		l0.101-0.17l-0.203-0.405l-0.288,0.237l-0.237-0.305l-0.203-0.187l-0.882-0.339l-0.135-0.067l-0.136-0.034l-0.067-0.221
		l-0.136-0.101l-0.067-0.373l0.101-0.321l0.407-0.237l0.136-0.068l0.254-0.491l0.068-0.524v-0.898l0.169-0.034l-0.237-0.102v-0.457
		l0.068-0.305v-0.237l-0.103-0.187l-0.102-0.44l-0.033-0.136v-0.188l-0.085-0.135v-0.306l0.118-0.187v-0.271l-0.067-0.169
		l-0.052-0.136v-0.39l0.187-0.305l0.034-0.22l-0.136-0.203v-0.136l0.102-0.305l-0.067-0.221l-0.034-0.372l0.102-0.288v-0.102
		l0.034-0.203l0.034-0.594l0.034-0.169l0.236-0.593l0.17-0.627l0.288-0.271l-0.237-0.255l-0.153-0.135l-0.474-0.238l-0.254-0.136
		l-0.542-0.254l-0.152-0.135l-0.729-0.136l-0.373,0.169l-0.203,0.288v0.203l0.169,0.627l-0.102,0.271v0.169v0.22l-0.187,0.339
		l-0.102,0.288l0.033,0.339l0.22,0.424l0.034,0.339l0.034,0.203l0.034,0.458l-0.068,0.39l0.034,0.542v0.22v0.407v0.423l-0.068,0.305
		l0.068,0.288v0.237v0.796l-0.068,0.306l0.034,0.187l-0.067,0.202l0.102,0.831v0.169l0.068,0.355l-0.034,0.526h0.136l0.203-0.051
		l0.389,0.151l0.271,0.271l0.034,0.203l-0.068,0.322l-0.169,0.236l-0.204,0.271l-0.627,0.491l-0.186,0.203l-0.102,0.118
		l-0.271,0.373l-0.103,0.457l-0.034,0.136l0.17,0.457l0.102,0.372l-0.102,0.39l-0.203,0.203l-0.39,0.067l-0.305-0.033l-0.694-0.355
		l-0.39-0.271l-0.135-0.102l-0.068-0.169l-0.322-0.254l-0.373-0.34l-0.305-0.32l-0.423-0.306l-0.305-0.203l-0.389-0.102l-0.17-0.321
		l-0.067-0.406l0.271-0.22l0.271-0.306l0.084-0.202l0.102-0.289l0.068-0.169l0.102-0.492l0.034-0.169l0.067-0.237v-0.136
		l0.034-0.423L150.777,263l0.034-0.56l0.068-0.236v-0.458v-0.237v-0.22l-0.102-0.17l0.136-0.271l-0.034-0.136l-0.102-0.729
		l0.034-0.355l0.068-1.135l-0.034-0.424l-0.034-0.526l0.169-0.559l-0.034-0.202v-0.407l-0.102-0.424l-0.034-0.694l-0.034-0.271
		l-0.068-0.152l-0.102-0.271l-0.389-0.203l-0.305-0.136l-0.729-0.356l-0.203,0.035h-0.254l-0.17,0.136l-0.169,0.253l-0.033,0.271
		v0.169l-0.068,0.39v0.17l-0.051,0.136v0.22l0.051,0.694l-0.051,0.136l0.118,0.475v0.322v0.135l0.068,0.271l-0.22,0.729l0.085,0.288
		l-0.085,0.203l0.034,0.203v0.56l0.051,0.203l-0.051,0.728l-0.034,0.221v0.203l-0.034,0.237l0.034,0.22l0.034,0.203v0.237v0.17v0.66
		v0.762l0.118,0.424l0.169,0.237l0.169,0.034l0.458,0.035l0.135,0.186l0.204,0.102l0.067,0.17l0.034,0.168l-0.102,0.391
		l-0.169,0.237l-0.271,0.321l-0.187,0.101l-0.169,0.17l-0.169,0.068l-0.322,0.237l-0.406,0.457l-0.102,0.491l0.204,0.372
		l0.067,0.559l-0.203,0.391l-0.322,0.236l-0.237,0.034l-0.17-0.066l-0.102-0.034l-0.389-0.103l-0.271-0.254l-0.288-0.17
		l-0.203-0.168l-0.237-0.289l-0.322-0.237l-0.135-0.066l-0.203-0.203l-0.763-0.526l-0.22-0.102l-0.508-0.287l-0.254-0.034
		l-0.204-0.238l-0.067-0.372l0.034-0.187l0.136-0.169l0.254-0.17l0.339-0.203l0.136-0.151l0.22-0.476l0.169-0.457l0.067-0.168
		l-0.102-0.137v-0.559l0.034-0.203l0.034-0.355v-0.306l0.067-0.39v-0.203l0.034-0.694l0.034-0.356l0.034,0.118l-0.169-0.456
		l-0.034-0.238l0.203-0.187l0.204,0.068v-0.373l-0.271-0.203l-0.068-0.22l-0.067-0.373l0.135-0.525l-0.034-0.372l0.068-0.695
		l-0.034-0.254l-0.034-0.27l-0.102-0.457l0.067-0.204l-0.102-0.203v-0.559l-0.135-0.136l-0.118-0.169l-0.271-0.051l-0.491-0.035
		l-0.305-0.168l-0.237-0.305l0.068-0.628l0.169-0.136l0.102-0.22l0.729-0.609l0.169-0.254l0.153-0.237l0.102-0.289l0.102-0.405
		l-0.102-0.271l-0.034-0.424l0.034-0.169l0.169-0.22l0.305-0.137h0.661l0.627,0.068l0.491,0.152l0.592,0.237l0.102,0.067
		l0.203,0.238l0.356,0.254l0.169,0.304l0.169,0.203l0.068,0.102l0.203,0.289l0.153,0.066l0.305,0.203l0.169,0.068h0.389l0.559-0.135
		l0.305-0.17l0.136-0.102l0.288-0.254l0.034-0.136l0.237-0.305v-0.136l-0.034-0.39l0.034-0.136l0.204-0.356L151.269,250.262z"/>
	<path d="M169.718,250.161h0.203l0.457,0.102l0.524,0.237l0.628,0.391l0.441,0.39l0.253,0.102l0.203,0.27l0.238,0.035l0.101,0.202
		l0.255,0.188l0.626,0.203l0.17,0.136l0.237,0.067l0.136-0.034h0.22l0.339,0.067l0.321,0.068h0.271l0.203,0.152l0.135,0.236v0.271
		l-0.101,0.321l-0.271,0.305l-0.17,0.526l-0.033,0.169l-0.035,0.236v1.119l-0.084,0.558l0.05,0.237l-0.05,0.306l0.084,0.558
		l-0.034,0.797l0.034,0.221v0.863l-0.118,0.271l0.035,0.694v0.322l0.05,0.169l0.17,0.169l0.034,0.136v0.458l-0.034,0.406l0.067,0.22
		l0.067,0.17v0.423l0.034,0.238l0.033,0.66l0.102,0.169l0.204,0.067h0.152l0.169,0.034h0.169h0.238l0.354,0.287v0.476l-0.033,0.136
		l-0.136,0.254l-0.188,0.305l-0.271,0.355l-0.136-0.034l-0.102,0.17l-0.136,0.168l-0.151,0.173l-0.203,0.153l-0.034,0.136
		l-0.136,0.102l-0.237,0.169l-0.152,0.204l-0.034,0.287l0.034,0.136l0.103,0.135l0.186,0.391v-0.136l-0.102,0.645l-0.254,0.288
		l-0.203,0.066l-0.458,0.034l-0.474-0.135l-0.458-0.136l-0.237-0.118l-0.424-0.203v-0.137l-0.83-0.56l-0.169-0.236l-0.221-0.169
		l-0.339-0.322l-0.355-0.236l-0.169-0.237l-0.202-0.153l-0.306-0.101l-0.254,0.033l-0.407,0.254l-0.084,0.204l-0.068,0.728
		l0.391,0.407l0.102,0.39l-0.137,0.391l-0.558,0.202l-0.407,0.067l-0.355-0.033l-0.628-0.237l-0.474-0.187l-0.085-0.137
		l-0.237-0.271l-0.203-0.22l-0.356-0.237l-0.169-0.169l-0.203-0.067l-0.102-0.169l-0.457-0.288l-0.17-0.068h-0.558l-0.137-0.067
		h-0.203l-0.254-0.203l-0.067-0.118l-0.103-0.237l0.103-0.406l0.203-0.254l0.153-0.103l0.27-0.271l0.204-0.321l0.102-0.271v-0.135
		v-0.221l0.118-0.339v-0.305l-0.085-0.186l-0.034-0.441l0.067-0.187l0.085-0.169v-0.271l-0.085-0.169l-0.034-0.424l0.034-0.102
		l0.052-0.169l0.033-0.254l-0.033-1.067l-0.289-0.456v-0.306l0.17-0.22l0.254-0.203l0.135-0.068l0.492-0.066l0.542-0.068
		l0.152,0.035l0.474-0.068l0.137-0.068l0.186-0.033l0.238-0.034h0.423h0.17l0.136-0.034l0.559-0.254l0.169-0.136h0.424l0.34-0.237
		l0.355-0.254l0.271-0.339l0.101-0.525l0.102-0.271v-0.17v-0.152l0.22-0.44l-0.051-0.457l-0.067-0.306l-0.169-0.321l-0.559-0.593
		l-0.237-0.102l-0.203-0.102h-0.322l-0.475-0.271l-0.355-0.101h-0.271l-0.594,0.101l-0.593,0.475l-0.135,0.255v0.339v0.355
		l0.102,0.237l0.168,0.067l0.425-0.135h0.135l0.137,0.067l0.321,0.033l0.44,0.355l0.034,0.137l0.034,0.136l0.033,0.338l-0.033,0.56
		l-0.17,0.321l-0.305,0.306l-0.491,0.236l-0.372,0.067h-0.424l-0.305-0.067l-0.322-0.136l-0.338-0.101l-0.458-0.458l-0.203-0.237
		v-0.203l-0.033-0.136l-0.153-0.067l-0.033-0.39l-0.103-0.39l0.033-0.508l0.035-0.17v-0.254l0.152-0.406l0.033-0.288l0.577-0.83
		l0.085-0.204l0.271-0.22l0.66-0.373l0.237-0.135l0.594-0.169l0.339-0.22l0.593-0.203l0.322-0.356l0.033-0.102l0.067-0.237
		l0.068-0.305l0.423-0.321L169.718,250.161z M170.938,259.071l-0.391,0.254l-0.27,0.17l-0.306,0.067h-0.22l-0.306,0.136l-0.22,0.204
		l-0.169-0.034h-0.203l-0.203,0.187l0.033,0.237l0.034,0.237l0.068,0.321l0.102,1l0.033,0.168l-0.101,0.255l0.034,0.406
		l-0.068,1.016v0.373l-0.321,0.32l0.288,0.035l0.203,0.034h0.424l0.203,0.034l0.203-0.034l0.661,0.034l0.354,0.067l0.407,0.102
		l-0.102-0.237l-0.103-0.136l-0.168-2.677l-0.102-0.56l0.135-0.339L170.938,259.071z"/>
	<path d="M179.746,250.364h0.491l0.203,0.034l0.118,0.035l0.271,0.033l0.17,0.034l0.39,0.085l0.305,0.102l0.321,0.102l0.306,0.203
		l0.592,0.491l0.103,0.204l0.457,0.694l0.137,0.237l0.168,0.151h0.271l0.322-0.084l0.339-0.339l0.321-0.339l0.103-0.457l-0.035-0.17
		v-0.187l0.068-0.203l0.237-0.372l0.254-0.152h0.237l0.136-0.034l0.39,0.067l0.136,0.05l0.135,0.137l0.306,0.237l0.254,0.102
		l0.305,0.321l0.169,0.067l0.56,0.237l0.136,0.035l0.254,0.067h0.168l0.34,0.288l0.187,0.305l0.067,0.237v0.152l-0.034,0.136
		l-0.288,0.44l-0.203,0.288l-0.203,0.169l-0.136,0.271l-0.525,0.391l-0.102,0.203l-0.39,0.627v0.135l-0.034,0.221l0.034,0.169
		l-0.034,0.271l-0.034,0.39l-0.339,0.44l-0.152,0.102l-0.203,0.086l-0.237-0.051l-0.321-0.035l-0.271-0.271l-0.237-0.457
		l-0.102-0.542v0.136l-0.085-0.39l-0.204-0.44l-0.066-0.136l-0.203-0.22l-0.355-0.204h-0.237l-0.237,0.034l-0.221,0.17l-0.066,0.22
		l-0.035,0.169l-0.034,0.237l0.034,0.864v0.101l0.035,0.255l0.033,0.203l0.034,0.491l0.034,0.305l0.22,0.321l-0.067,0.237
		l-0.118,0.237l-0.034,0.255l-0.067,0.169v0.237v0.169l0.034,0.186l0.152,0.17v1.102l-0.052,0.152l-0.067,0.508l0.187,0.594
		l-0.067,0.236l-0.084,0.188l-0.136,0.372l-0.103,0.288l-0.169,0.033l-0.136,0.136l-0.033,0.237l-0.119,0.169l-0.102,0.356
		l0.254,0.102h0.17l0.237,0.068l0.168,0.033l0.153,0.034l0.44,0.034l0.22,0.033l0.271,0.068l0.49,0.051l0.373,0.101l0.424,0.137
		l0.237,0.593l-0.067,0.372l-0.305,0.424l-0.525,0.306l-0.983,0.354l-0.237,0.103l-0.203,0.067l-0.169,0.169l-0.067,0.254v0.169
		l0.135,0.339l0.034,0.355v0.271l-0.034,0.203l-0.288,0.22l-0.507,0.237l-0.322-0.034l-0.627-0.271l-0.169-0.119l-0.203-0.168
		l-0.221-0.102L181.761,268l-0.169-0.067l-0.237-0.187l-0.288-0.204l-0.169-0.067h-0.391l-0.372-0.424l-0.354-0.102l-0.271-0.136
		h-0.237l-0.321-0.169l-0.407-0.22l-0.186-0.203l-0.034-0.271l0.084-0.203l0.237-0.355l0.373-0.137l0.187-0.135l0.169-0.22
		l0.169-0.271v-0.492l0.035-0.169l0.033-0.136l-0.067-0.66l0.102-0.203l0.067-0.187l0.034-0.831l-0.067-0.372v-0.288l-0.136-0.271
		l-0.035-0.169l0.069-0.491l0.135-0.34l-0.067-0.491l0.102-0.271l0.085-0.254l-0.085-0.305l-0.136-0.559l0.288-0.17l-0.187-0.321
		l-0.034-0.136l0.034-0.102l-0.034-0.39l-0.034-0.169l0.034-0.594l-0.034-0.237v-0.338l-0.066-0.254l-0.17-0.17l-0.136-0.102
		l-0.187-0.102l-0.136-0.068l-0.593-0.066l-0.136-0.085l-0.136-0.137l-0.102-0.304v-0.137l0.034-0.22l0.136-0.271l0.102-0.17
		l0.253-0.287l0.204-0.203l0.102-0.137l0.136-0.135l0.187-0.187l0.136-0.306l0.169-0.457l-0.136-0.372l-0.033-0.136l-0.103-0.22
		v-0.271l0.271-0.491L179.746,250.364z"/>
	<path d="M195.771,244.858h0.457l0.237-0.034l0.627,0.577l0.136,0.626l-0.373,0.628l-0.39,0.202l-0.762,0.729l-0.372,0.762
		l0.034,0.289l-0.034,0.135l-0.068,0.271v0.119l-0.151,0.406v1.254v0.135v0.356v0.338l0.559,0.035h0.525l0.491-0.035l0.476-0.168
		l0.354-0.255l0.306-0.609l0.237-0.626l0.321-0.323l0.491-0.135l0.339,0.067l0.305,0.22l0.221,0.271l0.034,0.405l-0.034,0.188
		l-0.034,0.338l-0.068,0.17l-0.084,0.22l-0.137,0.203l-0.44,0.424l-0.152,0.203l-0.135,0.136l-0.136,0.035l-0.373,0.354l-0.033,0.44
		l0.066,0.17l0.203,0.355l0.068,0.339l-0.034,0.22l-0.102,0.203l-0.169,0.136l-0.356,0.169h-0.135h-0.204l-0.22-0.067l-0.407-0.475
		l-0.39-0.355h-0.626h-0.237l-0.34,0.068l-0.051,0.22v0.475l0.051,0.254l-0.118,0.237l0.118,1.49l0.035,0.491l0.033,0.372
		l0.068,0.17v0.355l-0.034,0.237l-0.034,0.221l0.034,0.271v0.83l-0.153,0.034l0.086,0.135l0.102,1.084v0.137l-0.034,1.593
		l0.034,0.203v0.152l-0.102,0.271l-0.255,0.271l-0.169,0.153l-0.203,0.135L194.637,264l0.203,0.068l0.103,0.101h0.135l0.594,0.22
		l0.83-0.066l0.424,0.203l0.237,0.034l0.136-0.034h0.22h0.203l0.372,0.136l0.288,0.39l-0.034,0.305l-0.033,0.271l-0.254,0.423
		l-0.373,0.373l-0.237,0.187l-0.187,0.135l-0.305,0.425l-0.203,0.202l-0.068,0.137v0.305l0.204,0.287l0.034,0.238v0.321
		l-0.204,0.372l-0.39,0.169h-0.168l-0.17-0.034l-0.39-0.101l-0.203-0.067l-0.322-0.136l-0.236-0.137l-0.238-0.187l-0.321-0.101
		l-0.067-0.137l-0.406-0.237l-0.355-0.101l-0.458-0.289l-0.067-0.203l-0.236-0.067l-0.238-0.101l-0.187-0.187l-0.135-0.068
		l-0.475-0.169l-0.119-0.034l-0.203-0.068l-0.203-0.033l-0.254-0.102l-0.543-0.949l0.17-0.406l0.203-0.168v-0.255l0.033-0.169
		l0.103-0.271v-0.593l0.085-0.271l0.034-0.355L191.03,263l0.034-0.169l-0.067-0.812l0.033-0.169l0.17-0.034v-0.203l-0.103-0.288
		l-0.101-0.271l0.067-0.271l-0.034-0.355l0.102-0.44v-0.425l-0.034-0.202l0.034-0.22l0.203-0.61l-0.034-0.288l0.067-0.169v-0.237
		l-0.203-0.221l0.067-0.762l-0.067-0.508v-0.152l0.067-0.305l-0.101-0.458l0.066-0.339l-0.033-0.288l0.102-0.236l-0.067-0.458
		l-0.356-0.135l-0.796,0.033l-0.475,0.067l-0.187-0.271v-0.17v-0.254l-0.034-0.474l0.034-0.288l-0.034-0.237l-0.067-0.203
		l0.067-0.424l0.119-0.137l0.202-0.066l0.695,0.066l0.135,0.103l0.372-0.068l0.356-0.169v-0.729v-0.355l-0.034-0.169v-0.17v-0.355
		l-0.136-0.83l-0.22-0.559l-0.169-0.204l-0.305-0.236l-0.22-0.526l0.186-0.525l0.44-0.203l0.525,0.068h0.203l0.356,0.203
		l0.271,0.288l0.661,0.491l0.168,0.236l0.254,0.341l-0.101-0.271l0.067-0.136l0.339-0.949l0.321-0.576l0.137-0.187l0.371-0.474
		l0.424-0.391l0.271-0.169l0.22-0.067l0.136-0.067L195.771,244.858z"/>
	<path d="M205.901,250.161h0.187l0.372,0.034l0.797,0.39l0.17,0.271l0.321,0.102l1.101,0.831l0.288,0.136l0.509,0.288l0.151,0.067
		l0.203,0.067l0.204,0.068l0.49,0.203l0.425,0.117l0.542,0.373l0.068,0.39l-0.035,0.203l-0.102,0.203l-0.102,0.136l-0.101,0.491
		l0.033,0.203v0.22l-0.136,0.475l-0.067,0.458l0.102,0.525l-0.102,0.373v0.169l0.033,0.22l-0.033,0.169v0.457l-0.067,0.169v0.306
		l0.034,0.22l-0.034,0.405v0.271l0.067,0.152l0.033,0.271l-0.033,0.203l-0.067,0.321l0.101,0.373v0.288l-0.033,0.169l-0.102,0.66
		l-0.085,0.135l0.152,0.103l-0.067,0.136l0.135,0.881l0.068,0.475l-0.068,0.102l0.035,0.22l-0.035,0.17l0.103,0.304l0.305,0.103
		l0.289,0.39v0.136l-0.153,0.254l-0.136,0.203l-0.136,0.067l-0.457,0.102l-0.136,0.067l-0.169,0.103h-0.237l-0.255,0.034
		l-0.236,0.101l-0.271,0.086l-0.661,0.304l-0.355,0.102l-0.627,0.238l-0.137,0.085l-0.762,0.339l-0.271,0.237l-0.136,0.22
		l0.034,0.271l0.169,0.322l0.067,0.406l-0.135,0.271l-0.593,0.39l-0.425-0.034l-0.169-0.066l-0.136-0.034l-0.102-0.103l-0.457-0.288
		l-0.373-0.067l-0.067-0.136l-0.288-0.034l-0.136-0.067l-0.136-0.102l-0.254-0.102l-0.136-0.152l-0.559-0.306l-0.44-0.389
		l-0.897-0.406l-0.255-0.103l-0.202-0.101l-0.17-0.086h-0.136l-0.424-0.203l-0.237-0.067l-0.22-0.305l0.102-0.356l0.424-0.49
		l0.067-0.204l0.136-0.304l0.102-0.391l0.051-0.406l0.034-0.102l0.102-0.779l0.033-0.796l0.17-0.137l-0.203-0.202v-0.492v-0.44
		v-0.152l-0.034-0.203l0.067-0.306l-0.034-0.186l-0.033-0.475l0.135-0.457v-0.204l-0.135-0.237l0.033-0.22l0.102-0.339l-0.135-0.136
		l-0.034-0.321v-0.136v-0.321l0.067-0.17l-0.067-0.203l-0.035-0.236l0.035-0.526l-0.035-0.271l-0.033-0.593l-0.188-0.456
		l-0.203-0.137l-0.203-0.236l-0.067-0.289l0.035-0.102l0.101-0.169l0.068-0.135l0.406-0.187l0.355-0.103l0.305-0.034l0.457-0.102
		l0.204-0.034l0.457-0.136l0.457-0.169l0.762-0.22l0.306-0.271l0.423-0.237l0.306-0.288l0.169-0.306l0.067-0.22l-0.034-0.372
		l0.034-0.136l0.152-0.254l0.271-0.203L205.901,250.161z M205.14,253.736l-0.271,0.101v0.203l0.034,0.153l0.136,0.271v0.661
		l0.033,0.627v0.44l0.035,0.152v0.102v0.169v0.339v0.187v0.169l-0.035,0.271l0.067,0.221v0.542l0.035,0.221l0.034,0.27l-0.067,0.306
		l-0.067,0.355l0.236,0.525v0.136l-0.169,0.44l0.034,0.254l-0.034,0.271l-0.102,0.289l0.067,0.136l-0.067,0.339l-0.067,0.66
		l-0.068,0.424l-0.135,0.305l-0.187,0.39l-0.067,0.17l0.152,0.168l0.508,0.203l0.221,0.035h0.135l0.44,0.117h0.322l0.169,0.034
		l0.694,0.137h0.204l0.355-0.034l0.067-0.254v-0.137l-0.391-0.44l-0.203-0.355l-0.102-0.66l0.034-0.238l0.067-0.862l0.034-0.355
		v-0.204l-0.034-0.102l0.034-0.321l-0.067-0.169l0.034-0.593l0.237-0.238l0.034-0.135l-0.203-0.391l0.033-0.305l0.17-0.39
		l-0.237-0.271v-0.168l-0.067-0.424v-0.66l-0.067-0.271l0.067-0.321v-0.373l0.067-0.237l-0.034-0.321l0.067-0.271l0.136-0.288
		v-0.271l-0.509,0.137l-0.22-0.068l-0.237-0.067l-0.271-0.17l-0.254-0.186l-0.203-0.203l-0.458-0.136L205.14,253.736z"/>
</g>
<path d="M222.951,252.516l1.91,3.916l4.363,0.674l-3.199,2.996l0.696,4.291l-3.886-2.066l-3.936,1.978l0.798-4.273l-3.127-3.067
	l4.378-0.575L222.951,252.516z"/>
<path d="M83.801,251.9l1.909,3.916l4.364,0.674l-3.199,2.996l0.696,4.291l-3.886-2.066l-3.935,1.978l0.797-4.273l-3.127-3.067
	l4.378-0.575L83.801,251.9z"/>
<g>
	<path d="M124.92,216.826c0.404,0,0.758,0.036,1.062,0.108s0.564,0.168,0.783,0.289c0.219,0.122,0.399,0.263,0.544,0.426
		c0.145,0.161,0.258,0.332,0.341,0.511s0.141,0.362,0.175,0.55c0.035,0.188,0.052,0.369,0.052,0.541
		c0,0.261-0.022,0.499-0.067,0.715c-0.045,0.217-0.127,0.412-0.246,0.585c-0.119,0.173-0.28,0.324-0.482,0.454
		c-0.202,0.131-0.46,0.239-0.774,0.325c0.26,0.087,0.497,0.191,0.709,0.314c0.212,0.122,0.396,0.276,0.547,0.463
		c0.152,0.186,0.27,0.413,0.352,0.68c0.083,0.268,0.125,0.591,0.125,0.969c0,0.408-0.063,0.782-0.19,1.121s-0.309,0.631-0.547,0.874
		c-0.239,0.245-0.529,0.435-0.872,0.572c-0.343,0.137-0.731,0.206-1.165,0.206h-2.426v-9.703H124.92L124.92,216.826z
		 M124.228,220.983h0.693c0.116,0,0.238-0.007,0.369-0.021c0.13-0.014,0.259-0.042,0.387-0.084c0.128-0.042,0.251-0.101,0.371-0.179
		c0.119-0.077,0.223-0.181,0.312-0.309c0.089-0.129,0.16-0.285,0.214-0.472c0.054-0.186,0.082-0.409,0.082-0.669
		c0-0.347-0.062-0.612-0.185-0.801s-0.292-0.324-0.509-0.412c-0.216-0.087-0.473-0.138-0.769-0.151
		c-0.295-0.014-0.617-0.021-0.963-0.021v3.118H124.228z M124.228,225.489h0.693c0.26,0,0.497-0.025,0.709-0.076
		c0.213-0.051,0.396-0.141,0.547-0.271c0.151-0.129,0.269-0.307,0.352-0.53s0.125-0.509,0.125-0.854
		c0-0.347-0.041-0.632-0.125-0.855c-0.083-0.226-0.2-0.401-0.352-0.531c-0.152-0.13-0.334-0.22-0.547-0.271
		c-0.213-0.051-0.449-0.076-0.709-0.076h-0.693V225.489z"/>
	<path d="M134.24,226.529l-1.453-4.506h-1.04v4.506h-1.386v-9.703h1.732c0.606,0,1.11,0.062,1.51,0.187
		c0.4,0.124,0.72,0.301,0.958,0.528c0.239,0.228,0.406,0.5,0.503,0.819c0.098,0.32,0.146,0.674,0.146,1.064
		c0,0.239-0.017,0.453-0.052,0.645c-0.034,0.192-0.081,0.362-0.139,0.513c-0.058,0.149-0.123,0.281-0.195,0.396
		c-0.073,0.114-0.147,0.211-0.223,0.29c-0.178,0.191-0.381,0.329-0.609,0.412l1.564,4.85H134.24L134.24,226.529z M131.748,220.983
		h0.347c0.259,0,0.496-0.023,0.708-0.072s0.396-0.133,0.547-0.252c0.152-0.118,0.27-0.278,0.352-0.479s0.125-0.452,0.125-0.756
		s-0.042-0.555-0.125-0.755c-0.083-0.201-0.2-0.36-0.352-0.479c-0.151-0.119-0.334-0.203-0.547-0.252
		c-0.213-0.049-0.449-0.072-0.708-0.072h-0.347V220.983z"/>
	<path d="M139.441,226.529v-3.119l-2.079-6.585h1.386l1.388,4.852l1.384-4.852h1.239l-1.932,6.585v3.119H139.441z"/>
	<path d="M145.886,224.102l-0.486,2.427h-1.384l2.031-9.703h1.432l2.082,9.703h-1.334l-0.521-2.427H145.886z M147.48,223.063
		l-0.693-4.159l-0.693,4.159H147.48z"/>
	<path d="M155.573,226.529l-2.479-6.456v6.456h-1.387v-9.703h0.91l2.555,6.334v-6.334h1.387v9.703H155.573z"/>
	<path d="M163.071,226.529v-9.703h1.386v8.663h2.426v1.04H163.071L163.071,226.529z"/>
	<path d="M169.031,216.826h1.387v9.703h-1.387V216.826z"/>
	<path d="M172.912,226.529v-9.703h1.387v8.663h2.426v1.04H172.912L172.912,226.529z"/>
	<path d="M181.99,222.024h-1.731v3.465h2.425v1.04h-3.812v-9.703h3.812v1.04h-2.425v3.119h1.731V222.024z"/>
	<path d="M187.435,226.625c-0.346,0-0.651-0.04-0.914-0.121c-0.264-0.081-0.492-0.189-0.687-0.324s-0.359-0.289-0.492-0.461
		c-0.134-0.17-0.244-0.348-0.331-0.527c-0.202-0.419-0.316-0.896-0.346-1.435l1.381-0.347c0.014,0.391,0.072,0.736,0.173,1.039
		c0.043,0.131,0.099,0.259,0.165,0.383c0.067,0.124,0.149,0.235,0.248,0.332c0.097,0.098,0.212,0.178,0.345,0.236
		c0.132,0.061,0.285,0.09,0.458,0.09c0.694,0,1.042-0.347,1.042-1.041c0-0.172-0.021-0.334-0.064-0.483
		c-0.044-0.149-0.108-0.295-0.195-0.434c-0.087-0.138-0.195-0.274-0.325-0.405c-0.13-0.132-0.281-0.269-0.454-0.409l-1.732-1.386
		c-0.177-0.141-0.332-0.3-0.464-0.479c-0.132-0.178-0.241-0.367-0.326-0.565c-0.087-0.198-0.151-0.4-0.192-0.606
		c-0.042-0.206-0.062-0.41-0.062-0.612c0-0.31,0.053-0.606,0.156-0.89c0.104-0.284,0.259-0.533,0.463-0.748
		c0.203-0.215,0.456-0.385,0.76-0.511c0.303-0.126,0.652-0.189,1.049-0.189c0.347,0,0.652,0.035,0.916,0.107
		s0.493,0.168,0.688,0.288c0.194,0.119,0.359,0.254,0.493,0.405s0.244,0.306,0.33,0.461c0.203,0.372,0.318,0.792,0.347,1.261
		l-1.386,0.347c-0.014-0.325-0.072-0.614-0.173-0.866c-0.045-0.108-0.099-0.214-0.167-0.317c-0.066-0.103-0.149-0.194-0.246-0.275
		c-0.098-0.081-0.213-0.147-0.345-0.197c-0.133-0.051-0.286-0.076-0.459-0.076c-0.181,0-0.338,0.027-0.47,0.084
		s-0.24,0.132-0.325,0.226c-0.085,0.093-0.147,0.203-0.187,0.329c-0.041,0.127-0.061,0.26-0.061,0.4
		c0,0.239,0.057,0.483,0.168,0.733c0.112,0.249,0.288,0.468,0.527,0.656l1.732,1.386c0.221,0.177,0.417,0.371,0.589,0.581
		c0.171,0.212,0.317,0.433,0.437,0.662c0.119,0.231,0.21,0.469,0.271,0.711c0.062,0.243,0.092,0.484,0.092,0.722
		c0,0.3-0.049,0.586-0.146,0.858c-0.098,0.273-0.246,0.515-0.446,0.724c-0.201,0.209-0.453,0.377-0.757,0.501
		C188.21,226.563,187.851,226.625,187.435,226.625z"/>
</g>
<g>
	<path d="M213.241,68.146c-6.48-6.968-14.081-12.618-22.592-16.793c-8.769-4.3-18.164-6.865-27.929-7.62
		c-1.987-0.154-4.018-0.232-6.033-0.232c-10.422,0-20.533,2.042-30.055,6.07c-4.573,1.933-8.985,4.328-13.116,7.119
		c-4.088,2.762-7.931,5.933-11.422,9.424c-3.492,3.492-6.663,7.334-9.424,11.422c-2.789,4.129-5.185,8.542-7.12,13.117
		c-3.43,8.109-5.426,16.682-5.936,25.496c-1.031,1.187-2.019,2.451-2.947,3.765l-0.756,1.072l-0.755,1.07l0.465,1.225l0.466,1.228
		c1.219,3.208,2.707,6.183,4.426,8.85c0.983,5.97,2.677,11.822,5.036,17.401c1.936,4.576,4.332,8.99,7.12,13.118
		c2.759,4.083,5.929,7.926,9.424,11.422c2.376,2.376,4.942,4.623,7.644,6.695c-0.172,1.297,0.057,2.647,0.673,3.854
		c0.788,1.546,2.145,2.788,4.031,3.692c1.614,0.771,3.651,1.319,6.228,1.674c0.425,0.073,0.878,0.147,1.355,0.223
		c0.602,1.043,1.641,2.563,3.255,4.086c2.521,2.376,6.988,5.209,13.949,5.209c4.095,0,8.637-0.983,13.506-2.924
		c1.353,0.068,2.68,0.104,3.951,0.104c10.42,0,20.53-2.043,30.054-6.071c4.572-1.933,8.984-4.328,13.117-7.12
		c4.084-2.758,7.928-5.928,11.422-9.422c3.494-3.496,6.664-7.338,9.424-11.423c2.785-4.121,5.18-8.535,7.12-13.117
		c4.027-9.521,6.07-19.633,6.07-30.055C233.894,101.135,226.559,82.469,213.241,68.146z"/>
	<g>
		<g>
			<path fill="#0071BC" d="M156.688,193.595c-9.839,0-19.385-1.929-28.373-5.729c-8.679-3.672-16.475-8.927-23.168-15.621
				c-6.693-6.693-11.948-14.487-15.62-23.168c-3.801-8.988-5.729-18.534-5.729-28.373s1.927-19.384,5.729-28.372
				c3.671-8.679,8.927-16.475,15.62-23.168c6.694-6.693,14.489-11.949,23.168-15.62c8.988-3.803,18.534-5.73,28.373-5.73
				c1.898,0,3.815,0.075,5.7,0.22c18.247,1.412,35.185,9.596,47.692,23.049c12.572,13.522,19.496,31.145,19.496,49.62
				c0,9.839-1.927,19.385-5.728,28.373c-3.672,8.681-8.928,16.475-15.621,23.168c-6.692,6.693-14.488,11.949-23.169,15.62
				C176.072,191.667,166.526,193.595,156.688,193.595z"/>
			<path d="M156.688,49.669c1.87,0,3.723,0.072,5.557,0.215c36.636,2.834,65.48,33.459,65.48,70.822
				c0,39.233-31.805,71.037-71.037,71.037c-39.233,0-71.037-31.804-71.037-71.037C85.651,81.474,117.455,49.669,156.688,49.669
				 M156.688,45.965c-10.089,0-19.877,1.976-29.095,5.875c-4.43,1.873-8.701,4.192-12.697,6.892
				c-3.957,2.673-7.677,5.742-11.059,9.124c-3.381,3.38-6.451,7.103-9.125,11.059c-2.7,3.995-5.019,8.267-6.892,12.698
				c-3.898,9.216-5.875,19.005-5.875,29.093c0,10.089,1.977,19.877,5.875,29.094c1.874,4.43,4.192,8.702,6.892,12.697
				c2.672,3.957,5.743,7.678,9.125,11.06c3.381,3.381,7.102,6.451,11.059,9.124c3.996,2.699,8.267,5.019,12.697,6.893
				c9.217,3.897,19.006,5.875,29.095,5.875c10.088,0,19.877-1.978,29.095-5.875c4.429-1.873,8.7-4.193,12.696-6.893
				c3.957-2.673,7.679-5.743,11.06-9.124c3.381-3.382,6.451-7.103,9.124-11.06c2.7-3.995,5.018-8.268,6.892-12.697
				c3.899-9.217,5.875-19.005,5.875-29.094c0-18.945-7.099-37.016-19.992-50.882c-6.272-6.745-13.631-12.216-21.873-16.259
				c-8.486-4.163-17.582-6.644-27.032-7.375C160.6,46.04,158.633,45.965,156.688,45.965L156.688,45.965z"/>
		</g>
		<g>
			<path fill="#29ABE2" d="M207.469,96.732c0-13.907-5.123-26.618-13.585-36.348c-9.402-5.85-20.269-9.567-31.925-10.469
				c-1.834-0.142-3.687-0.215-5.557-0.215c-39.233,0-71.038,31.804-71.038,71.039c0,39.232,31.805,71.037,71.038,71.037
				c10.044,0,19.601-2.086,28.26-5.845c3.461-7.234,5.399-15.335,5.399-23.888c0-7.567-1.516-14.779-4.262-21.351
				C198.976,130.562,207.469,114.639,207.469,96.732z"/>
		</g>
		<path fill="#65C8D0" d="M140.719,51.355c-59.741,42.351-43.124,106.611-40,113.688c-9.168-7.29-19.644-36.357-14.075-59.59
			c3.731-15.667,13.105-32.324,31.161-44.071C124.455,57.057,129.406,54.459,140.719,51.355z"/>
		<path fill="#23586B" d="M88.715,98.312c0,0,5.303-3.141,11.146-3.306c1.012,1.471,6.377,13.146,30.905,2.667
			c3.923-2.573,4.779-9.743,4.779-9.743h16.256c0,0,0.384,11.706,10.187,13.727c21.093,4.034,28.118-6.965,28.118-6.965
			s24.348,8.093,37.263,33.157c0.606-5.615,0.335-8.815,0.335-8.815s-9.176-30.512-53.556-37.531
			c-23.97-2.984-64.839-1.698-64.839-1.698S92.583,90.555,90.91,93.06C89.719,95.25,88.715,98.312,88.715,98.312z"/>
		<path fill="#23586B" d="M210.757,129.91c-3.529,22.333-23.89,26.211-23.89,26.211c1.838,5.198-2.9,8.922-2.9,8.922
			s4.891,20.801-9.633,25.394c-60.276,12.188-56.879-42.767-56.879-42.767s-21.887,9.794-31.721-11.433
			C108.686,129.459,195.745,128.163,210.757,129.91z"/>
		<path fill="#FFFFFF" d="M157.149,190.437c-12.056,0-27.72-1.462-35.916-2.879c-4.19-0.565-6.652-1.674-7.527-3.39
			c-0.442-0.868-0.369-1.729-0.145-2.286c0.614-2.854,2.009-9.984,1.975-12.755c-2.032-1.368-3.422-2.828-4.135-4.346
			c-0.659-1.401-0.746-2.865-0.253-4.235l0.022-0.062l0.027-0.059c1.367-2.828,5.553-4.395,8.157-5.117
			c-0.985-1.253-2.11-3.073-2.222-4.96c-0.084-1.438,0.646-3.447,2.232-6.14c1.104-1.874,2.214-3.372,2.261-3.434
			c0.007-0.009,0.177-0.244,0.462-0.663c-3.841,2.888-9.101,5.276-15.783,5.276c-0.873,0-1.766-0.042-2.656-0.124l-0.049-0.004
			l-0.049-0.009c-4.74-0.824-9.293-2.962-13.169-6.183c-4.659-3.871-8.304-9.212-10.833-15.876l-0.233-0.614l0.378-0.536
			c3.93-5.575,8.66-9.691,14.057-12.237c4.33-2.041,9.085-3.077,14.135-3.077c8.586,0,14.991,2.971,15.259,3.098l0.354,0.167
			l6.551,11.525h13.271c1.088-1.351,4.403-5.27,9.266-9.231c3.469-2.827,7.003-5.081,10.508-6.702
			c4.428-2.048,8.82-3.087,13.057-3.087c0.511,0,1.026,0.016,1.534,0.045c5.933,0.353,11.383,2.367,16.201,5.988
			c5.94,4.463,11.088,11.494,15.303,20.895l0.221,0.493l-0.211,0.497c-3.128,7.342-7.401,12.933-12.699,16.616
			c-4.786,3.327-10.247,5.015-16.23,5.015c0,0,0,0-0.001,0c-5.516-0.002-11.299-1.486-16.726-4.297
			c-5.788-2.998-10.263-7.208-13.565-11.03c0.494,0.9,0.979,1.89,1.421,3.015c2.851,1.72,4.713,4.484,5.397,8.024
			c0.278,1.444,0.309,2.75,0.273,3.675c2.087,0.075,6.393,0.261,10.878,0.626c11.6,0.942,14.358,2.212,15.424,3.084l0.239,0.195
			l0.119,0.286c0.564,1.354-0.152,2.818-2.131,4.352c-0.627,0.484-1.274,0.898-1.758,1.187c0.468,3.813,1.997,19.2-2.854,25.552
			c-1.092,1.428-3.449,2.377-7.422,2.986C166.391,190.191,162.213,190.437,157.149,190.437z"/>
		<path fill="#23586B" d="M204.594,118.678c0,0,0.728,2.01,3.299,2.061c4.285,9.447,14.21,2.734,15.139-0.694
			c0.74-1.835-1.856-1.643-1.856-1.643l-7.069,3.572l-4.697-4.275L204.594,118.678z"/>
		<path d="M176.15,103.736c0.482,0,0.972,0.014,1.462,0.044c9.851,0.583,21.419,6.009,30.449,26.155
			c-6.414,15.057-17.033,20.878-27.793,20.878c-5.533,0-11.104-1.54-16.158-4.157c-10.662-5.521-16.752-15.293-19.267-18.805
			c0.083,4.865,3.449,7.065,5.558,12.735c6.715,3.706,5.327,12.042,5.327,12.042s23.364,0.614,26.861,3.474
			c0.78,1.872-4.08,4.4-4.08,4.4s2.683,18.674-2.504,25.465c-1.828,2.396-9.556,3.235-18.855,3.235
			c-12.605,0-28.1-1.545-35.728-2.864c-8.274-1.11-6.681-4.069-6.681-4.069s2.359-10.873,1.988-13.838
			c-4.693-2.964-5.063-5.68-4.419-7.465c1.703-3.525,9.359-4.934,9.359-4.934s-3.137-2.934-3.304-5.754
			c-0.167-2.822,4.251-8.765,4.251-8.765s3.622-4.943,5.845-10.628c-1.396,3.137-8.719,13.271-22.156,13.271
			c-0.824,0-1.673-0.038-2.542-0.119c-8.155-1.418-17.74-7.265-23.061-21.28c8.339-11.83,18.798-14.791,27.183-14.79
			c8.409,0,14.733,2.979,14.733,2.979l6.713,11.81h14.588C143.918,122.756,158.368,103.736,176.15,103.736 M176.15,101.268
			c-4.417,0-8.984,1.076-13.575,3.199c-3.598,1.665-7.222,3.974-10.769,6.865c-4.474,3.646-7.672,7.267-9.072,8.955h-11.967
			l-6.003-10.562l-0.386-0.68l-0.708-0.335c-0.278-0.13-6.925-3.213-15.785-3.214c-5.233-0.001-10.166,1.075-14.662,3.195
			c-5.593,2.637-10.485,6.892-14.54,12.643l-0.756,1.072l0.466,1.228c2.607,6.864,6.375,12.378,11.2,16.387
			c4.042,3.358,8.795,5.588,13.747,6.45l0.098,0.018l0.099,0.01c0.927,0.084,1.86,0.127,2.77,0.127c3.417,0,6.72-0.604,9.821-1.797
			c0.654-0.251,1.3-0.529,1.935-0.833c-1.57,2.743-2.258,4.793-2.162,6.426c0.09,1.528,0.734,2.995,1.489,4.217
			c-0.205,0.07-0.412,0.146-0.623,0.223c-3.439,1.282-5.687,2.975-6.679,5.029l-0.056,0.114l-0.044,0.121
			c-0.607,1.685-0.504,3.477,0.297,5.182c0.739,1.571,2.082,3.064,4,4.451c-0.051,1.011-0.246,2.885-0.842,6.274
			c-0.443,2.521-0.922,4.811-1.069,5.501c-0.303,0.84-0.369,2.015,0.234,3.194c0.538,1.056,1.513,1.927,2.9,2.591
			c1.389,0.665,3.202,1.143,5.54,1.46c8.253,1.424,23.991,2.893,36.104,2.893c5.125,0,9.366-0.251,12.605-0.748
			c4.307-0.66,6.917-1.759,8.214-3.457c2.489-3.261,3.734-8.909,3.703-16.79c-0.013-3.693-0.308-6.991-0.516-8.875
			c0.379-0.245,0.793-0.532,1.197-0.846c0.861-0.667,1.502-1.312,1.959-1.972c1.168-1.69,0.851-3.126,0.556-3.831l-0.236-0.571
			l-0.479-0.392c-0.36-0.295-0.863-0.629-1.729-0.98c2.243-0.153,4.432-0.547,6.531-1.175c2.93-0.878,5.705-2.219,8.249-3.987
			c5.491-3.817,9.909-9.586,13.129-17.146l0.424-0.993l-0.441-0.986c-2.232-4.978-4.741-9.344-7.46-12.974
			c-2.52-3.368-5.287-6.194-8.227-8.404c-5.016-3.769-10.692-5.866-16.871-6.232C177.226,101.283,176.685,101.268,176.15,101.268
			L176.15,101.268z M158.31,150.249c-0.026-0.801-0.109-1.728-0.301-2.719c-0.145-0.744-0.335-1.458-0.573-2.137
			c1.697,1.249,3.541,2.422,5.54,3.457c1.4,0.726,2.825,1.365,4.263,1.917C163.759,150.498,160.463,150.336,158.31,150.249
			L158.31,150.249z"/>
		<g>
			<g>
				<path fill="#4D4D4D" d="M157.149,187.29c-0.292,0-0.586-0.002-0.882-0.003l0.002-0.372c0.5,0.004,0.995,0.004,1.48,0.002
					l0.001,0.371C157.553,187.288,157.352,187.29,157.149,187.29z M159.235,187.273l-0.005-0.37c0.505-0.007,1.002-0.019,1.479-0.03
					l0.011,0.369C160.241,187.256,159.742,187.265,159.235,187.273z M154.783,187.271c-0.489-0.008-0.985-0.016-1.483-0.028
					l0.008-0.37c0.498,0.012,0.992,0.021,1.481,0.028L154.783,187.271z M151.815,187.204c-0.492-0.016-0.986-0.033-1.483-0.052
					l0.014-0.368c0.496,0.017,0.989,0.034,1.48,0.049L151.815,187.204z M162.202,187.194l-0.015-0.371
					c0.507-0.021,1.004-0.044,1.477-0.071l0.022,0.37C163.211,187.148,162.711,187.172,162.202,187.194z M148.849,187.092
					c-0.492-0.021-0.986-0.044-1.481-0.068l0.019-0.369c0.494,0.022,0.987,0.046,1.479,0.067L148.849,187.092z M165.169,187.023
					l-0.028-0.368c0.506-0.039,1.002-0.083,1.472-0.13l0.037,0.37C166.176,186.941,165.677,186.986,165.169,187.023z
					 M145.883,186.945c-0.493-0.028-0.988-0.057-1.482-0.087l0.023-0.37c0.493,0.03,0.987,0.059,1.48,0.087L145.883,186.945z
					 M142.921,186.763c-0.493-0.031-0.987-0.067-1.479-0.102l0.026-0.371c0.492,0.035,0.984,0.07,1.477,0.103L142.921,186.763z
					 M168.127,186.726l-0.047-0.366c0.329-0.042,0.65-0.089,0.954-0.136c0.173-0.026,0.342-0.054,0.504-0.081l0.062,0.366
					c-0.163,0.027-0.334,0.055-0.51,0.081C168.783,186.637,168.459,186.683,168.127,186.726z M139.965,186.551
					c-0.495-0.039-0.989-0.077-1.479-0.117l0.031-0.37c0.489,0.039,0.982,0.08,1.477,0.118L139.965,186.551z M137.008,186.307
					c-0.497-0.044-0.989-0.088-1.478-0.134l0.034-0.37c0.489,0.046,0.98,0.091,1.476,0.136L137.008,186.307z M171.062,186.222
					l-0.081-0.36c0.521-0.119,0.997-0.247,1.414-0.382l0.113,0.353C172.081,185.971,171.595,186.102,171.062,186.222z
					 M134.053,186.033c-0.498-0.05-0.99-0.099-1.477-0.149l0.039-0.369c0.485,0.051,0.977,0.1,1.474,0.15L134.053,186.033z
					 M131.102,185.724c-0.5-0.056-0.992-0.111-1.475-0.167l0.043-0.367c0.483,0.056,0.974,0.112,1.473,0.167L131.102,185.724z
					 M128.153,185.379c-0.501-0.063-0.994-0.126-1.473-0.188l0.049-0.367c0.478,0.064,0.968,0.126,1.469,0.188L128.153,185.379z
					 M173.906,185.249l-0.183-0.322c0.347-0.197,0.454-0.33,0.466-0.347c0.155-0.2,0.306-0.425,0.447-0.665l0.319,0.19
					c-0.15,0.252-0.309,0.487-0.471,0.701C174.438,184.867,174.289,185.032,173.906,185.249z M125.209,184.989
					c-0.506-0.07-0.997-0.143-1.469-0.215l0.056-0.366c0.472,0.071,0.96,0.144,1.465,0.216L125.209,184.989z M122.273,184.541
					c-0.178-0.03-0.353-0.06-0.524-0.089l-0.072-0.012c-0.295-0.038-0.587-0.083-0.868-0.13l0.061-0.365
					c0.277,0.047,0.565,0.09,0.856,0.128l0.086,0.013c0.17,0.03,0.344,0.06,0.521,0.09L122.273,184.541z M119.343,184.014
					c-0.54-0.131-1.025-0.279-1.438-0.438l0.134-0.347c0.399,0.153,0.868,0.297,1.394,0.425L119.343,184.014z M175.62,182.752
					l-0.344-0.142c0.173-0.422,0.335-0.887,0.48-1.382l0.355,0.105C175.963,181.841,175.796,182.318,175.62,182.752z
					 M116.99,182.678l-0.362-0.079c0.031-0.143,0.144-0.675,0.303-1.449l0.363,0.073
					C117.134,182.001,117.021,182.534,116.99,182.678z M176.483,179.887l-0.361-0.081c0.074-0.34,0.146-0.694,0.209-1.058
					c0.023-0.128,0.045-0.258,0.065-0.388l0.366,0.061c-0.021,0.131-0.043,0.263-0.066,0.392
					C176.631,179.181,176.56,179.542,176.483,179.887z M117.583,179.768l-0.364-0.07c0.089-0.453,0.181-0.942,0.277-1.454
					l0.364,0.066C117.765,178.824,117.671,179.314,117.583,179.768z M176.971,176.946l-0.369-0.045
					c0.057-0.472,0.105-0.964,0.146-1.467l0.37,0.03C177.077,175.971,177.026,176.469,176.971,176.946z M118.126,176.849
					l-0.366-0.063c0.089-0.504,0.173-0.994,0.248-1.458l0.366,0.06C118.297,175.851,118.214,176.344,118.126,176.849z
					 M177.216,173.979l-0.37-0.019c0.024-0.476,0.041-0.972,0.055-1.475l0.371,0.008C177.26,173,177.24,173.501,177.216,173.979z
					 M118.602,173.919l-0.367-0.054c0.076-0.512,0.142-1.006,0.2-1.464l0.368,0.045
					C118.744,172.909,118.677,173.404,118.602,173.919z M177.29,171.008h-0.372v-0.264c-0.001-0.396-0.006-0.804-0.014-1.215
					l0.37-0.008c0.008,0.413,0.014,0.824,0.015,1.221L177.29,171.008z M118.962,170.968l-0.37-0.033
					c0.05-0.55,0.08-1.044,0.09-1.466l0.37,0.008C119.041,169.909,119.011,170.409,118.962,170.968z M176.858,168.051
					c-0.019-0.487-0.045-0.984-0.073-1.479l0.37-0.021c0.029,0.494,0.053,0.995,0.072,1.483L176.858,168.051z M118.607,168.019
					l-0.091-0.724l-0.489-0.309l0.199-0.312l0.638,0.402l0.111,0.896L118.607,168.019z M116.783,166.157
					c-0.435-0.317-0.826-0.638-1.164-0.953l0.253-0.27c0.327,0.304,0.707,0.614,1.13,0.923L116.783,166.157z M176.687,165.097
					c-0.039-0.491-0.08-0.988-0.125-1.475l0.369-0.034c0.045,0.489,0.088,0.988,0.124,1.48L176.687,165.097z M114.612,164.067
					c-0.341-0.492-0.545-0.974-0.607-1.431l0.367-0.051c0.054,0.399,0.237,0.828,0.544,1.27L114.612,164.067z M176.411,162.151
					c-0.092-0.831-0.162-1.32-0.163-1.324l-0.021-0.143l0.367-0.053l0.02,0.143c0.002,0.003,0.07,0.488,0.166,1.335L176.411,162.151
					z M114.775,161.401l-0.269-0.256c0.303-0.319,0.705-0.636,1.196-0.943l0.196,0.313
					C115.435,160.806,115.057,161.104,114.775,161.401z M117.186,159.829l-0.155-0.334c0.373-0.174,0.781-0.344,1.211-0.505
					c0.057-0.021,0.115-0.042,0.173-0.063l0.127,0.348c-0.056,0.02-0.113,0.042-0.169,0.062
					C117.95,159.496,117.55,159.662,117.186,159.829z M176.428,159.427l-0.171-0.328l1.198-0.624
					c0.019-0.011,0.056-0.03,0.113-0.061l0.176,0.324c-0.058,0.031-0.094,0.052-0.109,0.06L176.428,159.427z M119.939,158.814
					l-0.105-0.355c0.478-0.141,0.963-0.27,1.443-0.384l0.086,0.36C120.889,158.547,120.41,158.675,119.939,158.814z
					 M122.806,158.145l-0.066-0.364l1.458-0.269l0.067,0.365L122.806,158.145z M179.025,157.957l-0.209-0.307
					c0.055-0.038,0.109-0.074,0.166-0.114c0.154-0.108,0.3-0.215,0.437-0.32c-0.064-0.017-0.129-0.034-0.194-0.052l0.092-0.358
					c0.192,0.05,0.379,0.101,0.552,0.151l0.332,0.099l-0.266,0.222c-0.217,0.181-0.465,0.369-0.742,0.562
					C179.137,157.879,179.08,157.917,179.025,157.957z M125.721,157.609l-0.067-0.364l0.095-0.018l-0.475-0.444l0.253-0.271
					l1.012,0.947L125.721,157.609z M177.788,156.839c-0.448-0.09-0.937-0.182-1.449-0.267l0.06-0.366
					c0.52,0.088,1.011,0.177,1.464,0.269L177.788,156.839z M174.878,156.346c-0.466-0.066-0.96-0.134-1.465-0.196l0.046-0.367
					c0.507,0.064,1.002,0.13,1.473,0.198L174.878,156.346z M171.943,155.977c-0.47-0.052-0.965-0.104-1.47-0.155l0.037-0.368
					c0.506,0.051,1.003,0.103,1.476,0.154L171.943,155.977z M124.192,155.772l-1.082-1.013l0.252-0.27l1.083,1.012L124.192,155.772z
					 M168.999,155.684c-0.425-0.038-0.865-0.076-1.321-0.112l-0.152-0.014l0.027-0.371l0.155,0.014
					c0.456,0.036,0.897,0.074,1.324,0.113L168.999,155.684z M166.049,155.445c-0.501-0.037-0.993-0.07-1.479-0.102l0.024-0.37
					c0.486,0.031,0.982,0.065,1.479,0.103L166.049,155.445z M163.092,155.249c-0.509-0.029-1.003-0.058-1.48-0.083l0.021-0.37
					c0.477,0.025,0.973,0.054,1.481,0.084L163.092,155.249z M160.132,155.089c-0.53-0.025-1.025-0.048-1.48-0.068l0.016-0.37
					c0.456,0.021,0.952,0.042,1.483,0.068L160.132,155.089z M157.17,154.962c-0.842-0.031-1.373-0.047-1.482-0.05l0.011-0.37
					c0.109,0.002,0.643,0.018,1.486,0.05L157.17,154.962z M154.207,154.874l-1.185-0.031l0.125-0.714l0.365,0.063l-0.051,0.292
					l0.756,0.021L154.207,154.874z M122.077,153.664c-0.335-0.402-0.634-0.811-0.892-1.212l0.312-0.2
					c0.245,0.383,0.544,0.788,0.865,1.176L122.077,153.664z M153.767,152.731l-0.364-0.063l0.072-0.411
					c0.005-0.038,0.062-0.427,0.082-1.035l0.37,0.012c-0.02,0.629-0.079,1.037-0.085,1.082L153.767,152.731z M120.49,151.101
					c-0.125-0.339-0.196-0.653-0.214-0.936c0-0.012,0-0.025,0-0.044c0-0.083,0.011-0.269,0.086-0.578l0.36,0.088
					c-0.068,0.281-0.076,0.436-0.076,0.49v0.023c0.015,0.244,0.079,0.522,0.192,0.827L120.49,151.101z M153.52,149.762
					c-0.039-0.495-0.107-0.98-0.202-1.445l0.363-0.075c0.097,0.479,0.167,0.981,0.208,1.49L153.52,149.762z M121.208,148.269
					l-0.339-0.148c0.182-0.413,0.405-0.864,0.661-1.342l0.327,0.176C121.604,147.423,121.386,147.866,121.208,148.269z
					 M152.931,146.916c-0.167-0.468-0.366-0.912-0.595-1.321l0.324-0.181c0.239,0.428,0.447,0.892,0.62,1.377L152.931,146.916z
					 M122.589,145.677l-0.318-0.191c0.247-0.409,0.515-0.833,0.796-1.26l0.31,0.203
					C123.098,144.853,122.832,145.271,122.589,145.677z M151.519,144.402c-0.308-0.369-0.653-0.708-1.028-1.014l0.234-0.287
					c0.394,0.319,0.756,0.677,1.078,1.062L151.519,144.402z M124.209,143.21l-0.302-0.215c0.141-0.197,0.228-0.317,0.244-0.338
					l0.159,0.097l-0.149-0.11c0.023-0.034,0.248-0.34,0.602-0.86l0.306,0.209c-0.357,0.523-0.585,0.834-0.609,0.869l-0.158-0.097
					l0.15,0.109C124.434,142.898,124.347,143.017,124.209,143.21z M149.29,142.583l-0.734-0.406l-0.272-0.732l0.348-0.129
					l0.225,0.604l0.613,0.339L149.29,142.583z M106.296,142.242c-0.311,0-0.629-0.007-0.949-0.018l0.014-0.37
					c0.315,0.012,0.629,0.018,0.935,0.018c0.002,0,0.006,0,0.009,0c0.176,0,0.353-0.002,0.527-0.006l0.007,0.37
					C106.659,142.24,106.483,142.24,106.296,142.242z M108.332,142.156l-0.032-0.37c0.488-0.041,0.98-0.099,1.46-0.171l0.055,0.367
					C109.327,142.056,108.827,142.115,108.332,142.156z M103.844,142.107c-0.484-0.089-0.975-0.196-1.458-0.319l0.09-0.359
					c0.476,0.121,0.959,0.224,1.437,0.313L103.844,142.107z M111.284,141.713l-0.078-0.362c0.477-0.103,0.956-0.225,1.424-0.36
					l0.103,0.356C112.257,141.485,111.77,141.608,111.284,141.713z M100.948,141.378c-0.47-0.15-0.943-0.318-1.407-0.499
					l0.134-0.345c0.455,0.177,0.922,0.341,1.386,0.49L100.948,141.378z M114.153,140.885l-0.127-0.348
					c0.132-0.047,0.263-0.096,0.393-0.146c0.325-0.125,0.653-0.261,0.971-0.4l0.149,0.339c-0.324,0.142-0.656,0.28-0.987,0.407
					C114.419,140.787,114.287,140.838,114.153,140.885z M125.889,140.752l-0.312-0.199c0.265-0.413,0.528-0.834,0.783-1.254
					l0.316,0.192C126.42,139.912,126.155,140.336,125.889,140.752z M98.167,140.297c-0.449-0.206-0.899-0.428-1.337-0.662
					l0.173-0.328c0.433,0.23,0.876,0.45,1.319,0.653L98.167,140.297z M147.728,140.087c-0.197-0.439-0.409-0.87-0.647-1.321
					l0.327-0.174c0.242,0.457,0.458,0.896,0.658,1.342L147.728,140.087z M116.887,139.683l-0.171-0.327
					c0.431-0.225,0.861-0.467,1.281-0.721l0.192,0.316C117.762,139.21,117.324,139.456,116.887,139.683z M95.533,138.895
					c-0.423-0.258-0.844-0.53-1.252-0.813l0.21-0.305c0.402,0.277,0.817,0.548,1.234,0.802L95.533,138.895z M127.433,138.209
					l-0.321-0.185c0.246-0.429,0.488-0.865,0.719-1.291l0.326,0.174C127.924,137.339,127.681,137.777,127.433,138.209z
					 M119.441,138.139l-0.211-0.304c0.398-0.277,0.796-0.572,1.182-0.875l0.229,0.29
					C120.25,137.559,119.847,137.858,119.441,138.139z M146.359,137.483c-0.244-0.414-0.481-0.802-0.767-1.264l0.315-0.195
					c0.287,0.465,0.525,0.854,0.771,1.271L146.359,137.483z M93.078,137.199c-0.23-0.179-0.46-0.365-0.685-0.551
					c-0.156-0.13-0.312-0.263-0.467-0.398l0.243-0.279c0.153,0.133,0.306,0.263,0.46,0.392c0.221,0.184,0.449,0.367,0.676,0.543
					L93.078,137.199z M121.786,136.292l-0.246-0.277c0.365-0.324,0.725-0.664,1.07-1.01l0.262,0.262
					C122.521,135.618,122.156,135.963,121.786,136.292z M128.846,135.592l-0.33-0.168c0.224-0.443,0.441-0.891,0.646-1.328
					l0.335,0.157C129.291,134.694,129.072,135.144,128.846,135.592z M90.826,135.243c-0.354-0.34-0.706-0.699-1.047-1.064
					l0.271-0.252c0.336,0.36,0.684,0.712,1.033,1.05L90.826,135.243z M144.819,134.95c-0.29-0.488-0.521-0.903-0.728-1.302
					l0.329-0.171c0.204,0.394,0.432,0.802,0.718,1.284L144.819,134.95z M123.894,134.18l-0.277-0.246
					c0.328-0.369,0.644-0.749,0.94-1.13l0.292,0.227C124.547,133.417,124.227,133.804,123.894,134.18z M88.788,133.066
					c-0.317-0.375-0.631-0.766-0.936-1.162l0.294-0.226c0.3,0.392,0.612,0.777,0.925,1.147L88.788,133.066z M130.106,132.894
					l-0.34-0.146c0.143-0.332,0.281-0.668,0.412-0.997l-0.033-0.014l0.144-0.341l0.366,0.154l-0.065,0.167
					C130.437,132.104,130.274,132.501,130.106,132.894z M143.461,132.29c-0.195-0.48-0.353-0.947-0.484-1.423l0.357-0.098
					c0.127,0.462,0.28,0.914,0.469,1.381L143.461,132.29z M125.727,131.822l-0.308-0.208c0.295-0.441,0.557-0.874,0.756-1.25
					l0.328,0.172C126.298,130.924,126.03,131.369,125.727,131.822z M128.778,131.166l-1.367-0.571l0.142-0.342l1.368,0.571
					L128.778,131.166z M86.971,130.701c-0.28-0.402-0.558-0.818-0.826-1.241l0.312-0.199c0.265,0.417,0.54,0.83,0.817,1.227
					L86.971,130.701z M142.675,129.394c-0.067-0.485-0.106-0.99-0.116-1.499l0.371-0.007c0.009,0.495,0.046,0.984,0.112,1.454
					L142.675,129.394z M85.373,128.188c-0.246-0.424-0.488-0.862-0.721-1.304l0.327-0.172c0.23,0.436,0.471,0.87,0.714,1.29
					L85.373,128.188z M142.535,126.413l-0.026-1.481l0.371-0.007l0.025,1.481L142.535,126.413z M83.982,125.556
					c-0.211-0.438-0.42-0.892-0.623-1.352l0.34-0.148c0.199,0.455,0.407,0.906,0.617,1.34L83.982,125.556z M141.285,125.042h-1.482
					v-0.371h1.482V125.042z M138.32,125.042h-1.482v-0.371h1.482V125.042z M135.356,125.042h-1.482v-0.371h1.482V125.042z
					 M132.393,125.042h-1.481v-0.371h1.481V125.042z M129.429,125.042h-1.428l-0.133-0.233l0.322-0.184l0.026,0.046h1.212V125.042z
					 M127.135,123.519l-0.732-1.288l0.322-0.183l0.732,1.288L127.135,123.519z M83.415,122.914l-0.295-0.223
					c0.299-0.396,0.609-0.79,0.92-1.169l0.286,0.234C84.018,122.133,83.711,122.523,83.415,122.914z M125.67,120.942l-0.732-1.288
					l0.322-0.184l0.733,1.289L125.67,120.942z M85.281,120.631l-0.279-0.245c0.329-0.372,0.669-0.74,1.009-1.096l0.268,0.258
					C85.943,119.899,85.606,120.264,85.281,120.631z M87.321,118.505l-0.256-0.268c0.359-0.344,0.729-0.682,1.098-1.006l0.245,0.277
					C88.042,117.831,87.676,118.166,87.321,118.505z M124.206,118.365l-0.732-1.288l0.322-0.182l0.732,1.288L124.206,118.365z
					 M89.537,116.566l-0.231-0.29c0.388-0.311,0.788-0.613,1.187-0.9l0.217,0.3C90.315,115.961,89.92,116.261,89.537,116.566z
					 M122.741,115.79l-0.732-1.289l0.322-0.183l0.732,1.288L122.741,115.79z M91.924,114.846l-0.2-0.311
					c0.417-0.271,0.844-0.533,1.27-0.779l0.186,0.321C92.758,114.32,92.336,114.579,91.924,114.846z M94.471,113.374l-0.168-0.331
					c0.262-0.132,0.527-0.263,0.789-0.386c0.185-0.088,0.371-0.172,0.557-0.255l0.15,0.338c-0.184,0.082-0.367,0.167-0.549,0.252
					C94.991,113.113,94.729,113.243,94.471,113.374z M121.276,113.212l-0.264-0.467c-0.24-0.094-0.496-0.192-0.759-0.29l0.127-0.347
					c0.29,0.105,0.568,0.214,0.83,0.318l0.06,0.024l0.328,0.579L121.276,113.212z M97.16,112.176l-0.133-0.345
					c0.461-0.177,0.934-0.345,1.407-0.498l0.114,0.353C98.082,111.838,97.614,112.002,97.16,112.176z M118.858,111.981
					c-0.462-0.146-0.938-0.287-1.416-0.417l0.097-0.357c0.482,0.131,0.962,0.273,1.429,0.421L118.858,111.981z M99.959,111.269
					l-0.096-0.359c0.477-0.127,0.965-0.245,1.45-0.348l0.077,0.361C100.912,111.026,100.43,111.142,99.959,111.269z
					 M116.012,111.205c-0.477-0.11-0.962-0.213-1.443-0.304l0.069-0.363c0.485,0.091,0.976,0.195,1.457,0.308L116.012,111.205z
					 M113.115,110.652c-0.486-0.074-0.978-0.139-1.462-0.19l0.04-0.369c0.49,0.053,0.986,0.118,1.477,0.192L113.115,110.652z
					 M102.838,110.651l-0.06-0.367c0.486-0.08,0.983-0.147,1.477-0.203l0.041,0.369
					C103.809,110.505,103.317,110.574,102.838,110.651z M110.185,110.331c-0.492-0.033-0.987-0.057-1.473-0.069l0.009-0.371
					c0.49,0.013,0.991,0.036,1.488,0.069L110.185,110.331z M105.765,110.32l-0.024-0.37c0.491-0.033,0.992-0.053,1.489-0.064
					l0.007,0.371C106.746,110.266,106.25,110.287,105.765,110.32z"/>
			</g>
			<g>
				<path fill="#4D4D4D" d="M180.269,148.9c-0.346-0.001-0.699-0.007-1.046-0.02l0.015-0.37c0.491,0.018,0.984,0.022,1.471,0.015
					l0.007,0.371C180.565,148.899,180.418,148.9,180.269,148.9z M182.205,148.833l-0.026-0.369c0.492-0.035,0.983-0.083,1.465-0.146
					l0.046,0.368C183.203,148.749,182.704,148.797,182.205,148.833z M177.732,148.787c-0.49-0.043-0.988-0.101-1.482-0.168
					l0.053-0.369c0.486,0.068,0.979,0.124,1.463,0.167L177.732,148.787z M185.166,148.455l-0.068-0.365
					c0.481-0.09,0.965-0.196,1.437-0.314l0.091,0.359C186.146,148.255,185.655,148.362,185.166,148.455z M174.779,148.377
					c-0.483-0.09-0.974-0.194-1.46-0.308l0.085-0.361c0.48,0.112,0.966,0.216,1.443,0.305L174.779,148.377z M188.062,147.728
					l-0.113-0.353c0.467-0.148,0.933-0.311,1.388-0.486l0.134,0.346C189.008,147.413,188.534,147.578,188.062,147.728z
					 M171.876,147.696c-0.475-0.134-0.954-0.282-1.425-0.436l0.116-0.352c0.466,0.153,0.94,0.298,1.41,0.43L171.876,147.696z
					 M169.046,146.764c-0.462-0.173-0.929-0.36-1.384-0.552l0.145-0.342c0.451,0.191,0.912,0.375,1.369,0.547L169.046,146.764z
					 M190.845,146.654l-0.153-0.335c0.442-0.204,0.886-0.423,1.316-0.654l0.174,0.327
					C191.745,146.225,191.294,146.449,190.845,146.654z M166.301,145.605c-0.437-0.207-0.878-0.424-1.309-0.648l-0.027-0.014
					l0.171-0.328l0.024,0.013c0.429,0.221,0.865,0.437,1.299,0.641L166.301,145.605z M193.477,145.249l-0.193-0.315
					c0.405-0.249,0.812-0.514,1.207-0.789l0.026-0.017l0.207,0.306l-0.02,0.014C194.302,144.727,193.889,144.997,193.477,145.249z
					 M163.658,144.229c-0.425-0.244-0.855-0.503-1.275-0.768l0.197-0.314c0.416,0.262,0.842,0.518,1.263,0.759L163.658,144.229z
					 M195.924,143.545l-0.228-0.292c0.381-0.299,0.762-0.615,1.13-0.938l0.243,0.278
					C196.697,142.921,196.312,143.242,195.924,143.545z M161.139,142.643c-0.405-0.278-0.813-0.569-1.212-0.866l0.221-0.296
					c0.395,0.294,0.799,0.581,1.2,0.857L161.139,142.643z M198.165,141.58l-0.26-0.265c0.348-0.339,0.692-0.693,1.029-1.055
					l0.271,0.251C198.865,140.878,198.517,141.238,198.165,141.58z M158.747,140.868c-0.382-0.306-0.768-0.627-1.146-0.95
					l0.243-0.281c0.373,0.321,0.756,0.639,1.135,0.942L158.747,140.868z M200.19,139.395l-0.284-0.24
					c0.313-0.37,0.625-0.757,0.925-1.146l0.295,0.224C200.821,138.628,200.508,139.02,200.19,139.395z M156.49,138.929
					c-0.359-0.329-0.723-0.673-1.081-1.023l0.259-0.265c0.355,0.347,0.716,0.688,1.071,1.015L156.49,138.929z M202.006,137.032
					l-0.304-0.213c0.277-0.396,0.554-0.808,0.821-1.224l0.313,0.201C202.565,136.216,202.286,136.632,202.006,137.032z
					 M154.361,136.852c-0.338-0.351-0.681-0.716-1.018-1.085l0.274-0.249c0.335,0.366,0.674,0.729,1.01,1.076L154.361,136.852z
					 M152.356,134.652c-0.318-0.368-0.641-0.75-0.958-1.136l0.286-0.236c0.315,0.384,0.635,0.764,0.952,1.13L152.356,134.652z
					 M203.618,134.527l-0.32-0.188c0.245-0.417,0.491-0.848,0.728-1.284l0.325,0.178
					C204.111,133.671,203.864,134.107,203.618,134.527z M150.467,132.357c-0.297-0.38-0.602-0.777-0.904-1.181l0.296-0.222
					c0.3,0.401,0.603,0.796,0.899,1.173L150.467,132.357z M205.039,131.913l-0.331-0.166c0.218-0.431,0.432-0.878,0.641-1.329
					l0.337,0.155C205.476,131.027,205.258,131.479,205.039,131.913z M148.682,129.979c-0.27-0.375-0.551-0.771-0.86-1.211
					l0.303-0.212c0.308,0.439,0.588,0.834,0.858,1.206L148.682,129.979z M205.221,129.229c-0.214-0.448-0.431-0.894-0.647-1.329
					l0.332-0.165c0.217,0.436,0.437,0.885,0.649,1.335L205.221,129.229z M146.974,127.551c-0.208-0.298-0.397-0.567-0.573-0.814
					l-0.281-0.394l0.301-0.215l0.281,0.393c0.178,0.247,0.367,0.518,0.576,0.818L146.974,127.551z M203.9,126.584
					c-0.229-0.437-0.466-0.875-0.701-1.3l0.324-0.179c0.235,0.428,0.474,0.868,0.703,1.309L203.9,126.584z M145.257,125.139
					l-0.362-0.505l0.547-0.718c0.018-0.023,0.065-0.085,0.146-0.186l0.291,0.229c-0.079,0.099-0.125,0.159-0.139,0.176l-0.384,0.503
					l0.203,0.283L145.257,125.139z M202.471,123.999c-0.251-0.428-0.507-0.854-0.761-1.267l0.316-0.195
					c0.256,0.416,0.513,0.844,0.765,1.275L202.471,123.999z M146.819,122.821l-0.282-0.241c0.312-0.366,0.643-0.742,0.981-1.118
					l0.275,0.247C147.458,122.085,147.129,122.458,146.819,122.821z M200.92,121.485c-0.272-0.417-0.552-0.83-0.826-1.225
					l0.305-0.212c0.277,0.4,0.556,0.815,0.831,1.234L200.92,121.485z M148.796,120.624l-0.269-0.255
					c0.337-0.357,0.684-0.717,1.033-1.069l0.264,0.261C149.478,119.911,149.132,120.268,148.796,120.624z M199.236,119.06
					c-0.295-0.398-0.596-0.794-0.896-1.173l0.291-0.229c0.303,0.382,0.605,0.78,0.902,1.183L199.236,119.06z M150.874,118.521
					l-0.257-0.267c0.354-0.343,0.718-0.687,1.08-1.021l0.251,0.271C151.588,117.836,151.227,118.178,150.874,118.521z
					 M197.407,116.743c-0.319-0.377-0.646-0.751-0.972-1.109l0.273-0.25c0.33,0.361,0.659,0.739,0.98,1.12L197.407,116.743z
					 M153.045,116.514l-0.245-0.277c0.372-0.329,0.751-0.654,1.127-0.97l0.237,0.284
					C153.792,115.864,153.415,116.188,153.045,116.514z M155.31,114.615l-0.231-0.29c0.389-0.311,0.784-0.617,1.176-0.911
					l0.223,0.295C156.088,114.003,155.695,114.307,155.31,114.615z M195.422,114.562c-0.346-0.351-0.701-0.698-1.055-1.029
					l0.253-0.271c0.357,0.334,0.716,0.684,1.065,1.041L195.422,114.562z M157.667,112.837l-0.216-0.302
					c0.406-0.287,0.817-0.571,1.226-0.843l0.205,0.308C158.478,112.27,158.068,112.552,157.667,112.837z M193.27,112.551
					c-0.377-0.321-0.76-0.635-1.142-0.932l0.227-0.292c0.386,0.299,0.775,0.616,1.156,0.942L193.27,112.551z M191.771,111.348
					c-0.393-0.296-0.796-0.582-1.198-0.854l0.207-0.307c0.407,0.274,0.815,0.565,1.215,0.865L191.771,111.348z M160.123,111.199
					l-0.196-0.315c0.424-0.263,0.852-0.521,1.276-0.765l0.185,0.32C160.968,110.681,160.542,110.938,160.123,111.199z
					 M162.678,109.723l-0.173-0.327c0.44-0.234,0.887-0.461,1.327-0.674l0.161,0.335
					C163.558,109.267,163.114,109.491,162.678,109.723z M189.33,109.704c-0.42-0.253-0.851-0.496-1.281-0.722l0.173-0.329
					c0.436,0.23,0.872,0.477,1.299,0.732L189.33,109.704z M165.332,108.44l-0.146-0.34c0.457-0.199,0.922-0.39,1.378-0.564
					l0.132,0.347C166.244,108.057,165.786,108.243,165.332,108.44z M186.729,108.332c-0.446-0.205-0.902-0.397-1.355-0.574
					l0.135-0.346c0.46,0.178,0.922,0.375,1.375,0.582L186.729,108.332z M168.083,107.388l-0.115-0.352
					c0.474-0.157,0.954-0.302,1.426-0.433l0.099,0.357C169.026,107.09,168.552,107.233,168.083,107.388z M183.987,107.265
					c-0.461-0.149-0.938-0.286-1.412-0.409l0.093-0.359c0.481,0.125,0.964,0.264,1.434,0.415L183.987,107.265z M170.923,106.607
					l-0.08-0.362c0.488-0.107,0.98-0.201,1.466-0.279l0.059,0.366C171.89,106.407,171.403,106.501,170.923,106.607z
					 M181.141,106.528c-0.477-0.094-0.964-0.177-1.449-0.246l0.052-0.367c0.491,0.069,0.986,0.153,1.47,0.25L181.141,106.528z
					 M173.824,106.14l-0.037-0.37c0.498-0.048,1-0.084,1.49-0.102l0.013,0.37C174.808,106.056,174.314,106.09,173.824,106.14z
					 M178.229,106.116c-0.249-0.021-0.503-0.041-0.753-0.055c-0.235-0.015-0.476-0.025-0.717-0.031l0.011-0.372
					c0.244,0.007,0.49,0.017,0.729,0.032c0.253,0.014,0.51,0.034,0.764,0.056L178.229,106.116z"/>
			</g>
		</g>
		<path fill="#603813" d="M84.868,123.109c27.663-26.057,39.024,1.605,42.358,2.718c1.259,0.984-0.988,2.973-0.988,2.973
			s-4.138,9.039-12.349,11.373C104.437,142.86,90.418,138.043,84.868,123.109z"/>
		<path fill="#23586B" d="M95.159,116.031c-5.875,7.42-5.38,12.03-5.143,14.854c-2.296-1.095-5.148-7.776-5.148-7.776
			S92.604,116.536,95.159,116.031z"/>
		<path fill="#603813" d="M146.861,124.221c-1.235,1.111,0.693,2.312,1.235,3.084c32.509,46.283,56.684,1.889,56.684,1.889
			s-11.861-30.614-40.889-16.848C158.761,114.779,153.094,118.6,146.861,124.221z"/>
		<path fill="#23586B" d="M156.177,117.539c-3.924,5.604-2.743,9.07-2.743,9.07s0.946,6.701,4.88,12.217
			c-4.893-3.248-12.26-13.671-12.26-13.671S154.191,117.608,156.177,117.539z"/>
		<path d="M123.645,189.194c0,0,7.941,19.636,38.342,1.16c19.472-1.662,11.754-29.126,11.754-29.126l-53.367,5.912
			c0,0-3.349,14.464-4.11,19.172C117.486,186.788,123.645,189.194,123.645,189.194z"/>
		<path fill="#603813" d="M134.8,156.032c21.405-1.391,35.814-1.391,38.943,5.195c3.869,28.651-12.491,26.922-12.491,26.922
			s-4.305,4.28-15.254,6.505c-6.99,1.257-17.469,1.64-20.549-7.698c-5.107-0.782-6.949-2.511-6.949-2.511s0.797-10.334,1.982-18.004
			c0.777-5.022-0.829-8.589,6.251-8.753C128.708,157.587,132.413,157.522,134.8,156.032z"/>
		<path fill="#23586B" d="M159.334,127.683l2.57-0.407c0,0,6.127,18.483,19.199,16.289
			C160.832,147.133,159.334,127.683,159.334,127.683z"/>
		<path fill="#E6E6E6" d="M194.176,127.944c0,8.888-7.207,16.093-16.094,16.093c-8.888,0-16.094-7.205-16.094-16.093
			c0-3.006,0.824-5.82,2.259-8.227C167.053,115.005,194.176,119.055,194.176,127.944z"/>
		<path d="M184.119,130.616c-2.447,0.235-4.619-1.559-4.854-4.006c-0.162-1.702,0.655-3.269,1.991-4.146
			c-4.138-1.112-9.035-1.119-9.853-0.009c-1.239,1.682-1.886,3.808-1.671,6.05c0.463,4.834,4.758,8.378,9.592,7.914
			c4.113-0.394,7.29-3.562,7.862-7.477C186.46,129.862,185.377,130.495,184.119,130.616z"/>
		<path fill="#23586B" d="M184.119,130.616c-2.447,0.235-4.619-1.559-4.854-4.006c-0.135-1.407,0.401-2.724,1.348-3.632
			c-0.339-0.038-0.685-0.04-1.038-0.007c-2.808,0.271-4.863,2.764-4.593,5.57c0.269,2.806,2.761,4.864,5.567,4.595
			c1.725-0.167,3.168-1.173,3.961-2.577C184.381,130.584,184.251,130.604,184.119,130.616z"/>
		<circle cx="178.6" cy="128.852" r="4.449"/>
		<path fill="#23586B" d="M95.159,127.304c1.523,13.575,15.202,12.074,15.202,12.074l-3.858-13.576
			C106.502,125.802,95.681,125.684,95.159,127.304z"/>
		<path fill="#E6E6E6" d="M122.616,126.43c0,7.162-5.806,12.968-12.967,12.968c-7.163,0-12.967-5.806-12.967-12.968
			c0-2.422,0.664-4.689,1.82-6.63C100.763,116.007,122.616,119.268,122.616,126.43z"/>
		<path fill="#23586B" d="M116.265,150.686c2.904-2.536,38-5.151,36.466-0.267c-1.535,4.884-5.577,2.92-6.315,2.916
			c-20.825,13.172-27-0.107-27-0.107S116.818,152.974,116.265,150.686z"/>
		<path d="M133.236,127.31c-6.092,4.428-7.788,11.098-7.788,11.098s-2.603,0.632-4.332,3.235c-7.162-0.462-9.619,9.549-1.116,9.961
			c4.468,12.037,21.782,4.018,25.915,0.306c7.656,1.81,9.495-4.684,7.193-9.167c-1.513-2.688-5.629-3.132-5.629-3.132
			S141.633,120.377,133.236,127.31z"/>
		<path fill="#603813" d="M125.25,142.993c0,0-7.904-1.607-8.892,3.333c-0.987,4.939,6.174,3.457,6.174,3.457L125.25,142.993z"/>
		<path fill="#603813" d="M136.611,127.308c4.131-0.197,7.948,8.85,9.332,12.541c0.353,0.943,0.548,1.537,0.548,1.537
			s4.227,0.361,5.311,3.122c1.086,2.769-0.979,7.933-6.546,6.017c-23.71,15.561-31.614-6.298-18.4-11.126
			C127.473,136.323,131.425,127.556,136.611,127.308z"/>
		<path d="M119.819,109.887c-2.226,4.701-7.384-0.145-13.581-1.735s-12.109-1.467-12.109-1.467s8.066-3.877,14.695-3.872
			C115.496,102.821,120.726,106.72,119.819,109.887z"/>
		<path d="M130.861,76.709c2.585,1.48-2.017,9.228-2.017,9.228s-34.593,5.438-41.674,11.737c-0.903-2.243,1.526-5.975,1.526-5.975
			S96.39,81.272,130.861,76.709z"/>
		<g>
			<path fill="#333333" d="M116.318,97.455c-3.018,0-6.152-0.536-9.314-1.59L106.9,95.83l-0.098-0.05
				c-2.168-1.1-3.83-3.267-4.807-6.264c-0.865-2.651-1.128-5.824-0.74-8.933c0.404-3.242,1.463-6.19,3.066-8.528
				c1.857-2.709,4.397-4.492,7.346-5.159l0.034-0.009l0.035-0.006c2.306-0.407,4.275-0.603,6.017-0.603
				c4.113,0,6.763,1.104,10.119,2.501l0.089,0.038l0.083,0.047c4.093,2.367,6.132,6.907,5.74,12.784
				c-0.189,2.844-0.955,5.805-2.154,8.339c-0.724,1.528-2.254,4.224-4.382,5.1l-0.044,0.018c-0.179,0.067-0.374,0.144-0.587,0.226
				C124.708,96.073,121.158,97.455,116.318,97.455z"/>
			<path d="M117.753,67.759c3.809,0,6.216,1,9.549,2.389c9.188,5.311,3.876,21.717-0.619,23.569
				c-1.791,0.67-5.282,2.254-10.364,2.254c-2.552,0-5.505-0.398-8.845-1.513c-7.54-3.829-6.675-23.587,4.521-26.117
				C114.281,67.938,116.142,67.759,117.753,67.759 M117.753,64.796L117.753,64.796c-1.829,0-3.882,0.205-6.273,0.627l-0.07,0.013
				l-0.068,0.015c-3.32,0.751-6.169,2.744-8.241,5.767c-1.736,2.532-2.882,5.708-3.315,9.183c-0.413,3.321-0.128,6.721,0.802,9.574
				c1.101,3.38,3.019,5.844,5.546,7.127l0.195,0.099l0.208,0.069c3.313,1.106,6.605,1.666,9.782,1.666
				c5.118,0,8.836-1.447,10.835-2.223c0.207-0.08,0.396-0.154,0.568-0.219l0.046-0.017l0.044-0.018
				c2.459-1.015,4.161-3.733,5.157-5.837c1.277-2.697,2.091-5.85,2.293-8.874c0.192-2.874-0.164-5.49-1.054-7.774
				c-1.088-2.789-2.913-4.939-5.423-6.391l-0.167-0.095l-0.177-0.074C125.072,66.008,122.161,64.796,117.753,64.796L117.753,64.796z
				"/>
		</g>
		<path fill="#808080" d="M114.957,67.917c7.849-0.86,12.345,2.232,12.345,2.232s4.711,2.235,5.046,7.498
			c-7.562,2.856-9.27-1.118-9.27-1.118S120.776,68.32,114.957,67.917z"/>
		<path d="M128.845,77.4c-3.471,3.089,0,8.537,0,8.537s12.83-1.852,25.18,0c0.302-2.371,17.343-8.217,17.343-8.217
			S139.452,72.831,128.845,77.4z"/>
		<g>
			<path fill="#333333" d="M167.227,98.78c-1.331,0-2.716-0.055-4.117-0.162l-0.019-0.002c-3.366-0.304-6.077-1.685-8.06-4.103
				c-4.408-5.379-3.534-13.993-3.495-14.357l0.002-0.013c0.018-0.154,0.465-3.806,2.549-7.567c2.836-5.117,7.314-7.968,12.954-8.247
				c0.47-0.024,0.942-0.036,1.405-0.036c6.555,0,11.043,2.36,13.656,4.34c3.211,2.435,4.717,5.05,5.064,6.092l0.008,0.024
				c1.305,4.145,1.525,8.214,0.637,11.771c-0.936,3.748-3.077,6.833-6.191,8.922C179.351,96.963,175.01,98.78,167.227,98.78z"/>
			<path d="M168.447,65.775c11.54,0,16.721,7.633,17.314,9.419c2.451,7.783,0.84,15.123-4.967,19.017
				c-3.309,2.22-8.31,3.086-13.568,3.086c-1.325,0-2.667-0.055-4.003-0.158c-11.916-1.077-10.213-16.824-10.213-16.824
				s1.632-13.89,14.106-14.508C167.567,65.785,168.013,65.775,168.447,65.775 M168.448,62.813v2.962V62.813
				c-0.488,0-0.987,0.011-1.48,0.035c-3.431,0.17-6.48,1.211-9.063,3.092c-2.039,1.485-3.759,3.477-5.112,5.917
				c-2.225,4.015-2.707,7.948-2.726,8.113l-0.002,0.014l-0.002,0.013c-0.01,0.098-0.254,2.424,0.059,5.398
				c0.439,4.161,1.705,7.545,3.764,10.058c1.061,1.294,2.327,2.34,3.768,3.11c1.569,0.837,3.353,1.353,5.303,1.528l0.02,0.002
				l0.02,0.001c1.438,0.11,2.861,0.166,4.23,0.166c2.978,0,5.714-0.261,8.132-0.775c2.812-0.6,5.196-1.545,7.087-2.813
				c3.427-2.297,5.78-5.686,6.807-9.794c0.953-3.821,0.724-8.169-0.662-12.575l-0.007-0.022l-0.01-0.025
				c-0.427-1.28-2.082-4.155-5.575-6.802C180.204,65.335,175.413,62.813,168.448,62.813L168.448,62.813z"/>
		</g>
		<path fill="#808080" d="M166.499,65.851c4.566,0.064,11.718,3.899,11.583,17.191c1.52,4.85,8.762-1.086,8.762-1.086
			s0.495-6.916-2.877-10.274C181.023,68.751,175.215,65.296,166.499,65.851z"/>
		<path d="M216.598,105.453c0.423,0,0.846,0.057,1.262,0.173c2.337,0.655,3.85,3.047,4.112,6l2.906-1.634l-2.865,2.515
			c0.004,1.019-0.135,2.087-0.436,3.162c-1.133,4.035-4.156,6.817-7.136,6.817c-0.424,0-0.848-0.056-1.263-0.172
			c-2.111-0.592-3.553-2.604-4.003-5.165l-3.016,0.799l2.879-2.031c-0.058-1.161,0.073-2.399,0.424-3.646
			C210.594,108.236,213.618,105.453,216.598,105.453 M210.606,114.813l2.034-1.435l4.134,1.169l4.269-2.398
			c-0.217-2.374-1.438-4.294-3.316-4.822c-0.338-0.095-0.678-0.14-1.02-0.14c-2.403,0.001-4.843,2.246-5.757,5.502
			C210.748,113.407,210.636,114.121,210.606,114.813 M216.858,117.032l-3.687-0.939l-2.433,0.643
			c0.385,2.015,1.535,3.587,3.21,4.057c0.335,0.093,0.676,0.141,1.017,0.141c2.405,0,4.845-2.246,5.758-5.502
			c0.198-0.707,0.311-1.41,0.343-2.092L216.858,117.032 M224.878,109.993L224.878,109.993 M216.598,103.725L216.598,103.725
			c-1.898,0-3.833,0.841-5.448,2.368c-1.558,1.472-2.717,3.447-3.352,5.712c-0.3,1.069-0.467,2.15-0.497,3.223l-2.138,1.507
			c-0.684,0.482-0.925,1.386-0.57,2.144c0.29,0.621,0.908,0.998,1.566,0.998c0.146,0,0.295-0.018,0.443-0.057l1.354-0.358
			c0.88,2.394,2.577,4.106,4.755,4.717c0.561,0.157,1.142,0.237,1.729,0.237c1.899,0,3.833-0.841,5.448-2.368
			c1.558-1.471,2.717-3.447,3.353-5.711c0.262-0.934,0.423-1.881,0.479-2.826l2.284-2.006c0.371-0.317,0.604-0.787,0.604-1.313
			c0-0.919-0.719-1.672-1.625-1.726c-0.035-0.003-0.069-0.003-0.107-0.003c-0.107,0-0.216,0.011-0.323,0.031
			c-0.198,0.037-0.383,0.108-0.549,0.205l-0.822,0.463c-0.842-2.528-2.58-4.362-4.855-5
			C217.766,103.805,217.185,103.725,216.598,103.725L216.598,103.725L216.598,103.725z M213.165,111.73
			c0.928-1.836,2.399-2.813,3.542-2.813c0.188,0,0.373,0.026,0.551,0.076c0.855,0.24,1.536,1.083,1.868,2.25l-2.571,1.445
			L213.165,111.73L213.165,111.73z M212.986,117.93l0.193-0.052l3.253,0.829c0.015,0.004,0.03,0.008,0.045,0.011
			c-0.521,0.32-1.044,0.486-1.512,0.486c-0.188,0-0.372-0.026-0.552-0.076C213.843,118.968,213.35,118.546,212.986,117.93
			L212.986,117.93z"/>
		<path fill="#FFFFFF" d="M222.013,112.508l2.865-2.515l-2.907,1.634c-0.262-2.953-1.775-5.345-4.112-6
			c-0.415-0.116-0.838-0.173-1.263-0.173c-2.979,0-6.002,2.784-7.135,6.818c-0.35,1.247-0.48,2.485-0.423,3.646l-2.88,2.031
			l3.017-0.799c0.449,2.562,1.892,4.573,4.003,5.165c0.415,0.117,0.838,0.172,1.262,0.172c2.979,0,6.004-2.782,7.137-6.817
			C221.878,114.595,222.017,113.527,222.013,112.508z M210.95,112.689c0.912-3.255,3.353-5.5,5.757-5.502
			c0.342,0,0.682,0.045,1.02,0.14c1.878,0.528,3.1,2.45,3.314,4.823l-4.267,2.399l-4.134-1.17l-2.035,1.435
			C210.636,114.121,210.748,113.407,210.95,112.689z M220.724,115.43c-0.912,3.256-3.353,5.502-5.758,5.502
			c-0.342,0-0.682-0.046-1.017-0.14c-1.675-0.469-2.825-2.042-3.21-4.057l2.433-0.643l3.687,0.938l4.208-3.692
			C221.034,114.021,220.922,114.724,220.724,115.43z"/>
		<path fill="#B0B4B7" d="M212.963,109.027c1.363-1.455,3.124-2.159,4.764-1.701c1.878,0.528,3.1,2.449,3.314,4.822l-3.335,1.875
			c0.388,0.44,0.76,0.871,1.114,1.287l2.246-1.971c-0.032,0.681-0.145,1.384-0.343,2.091c-0.146,0.525-0.335,1.022-0.555,1.49
			c0.224,0.273,0.435,0.533,0.634,0.779c0.311-0.63,0.57-1.309,0.774-2.029c0.3-1.075,0.439-2.143,0.436-3.162l2.865-2.515
			l-2.906,1.633c-0.263-2.953-1.775-5.345-4.112-6c-2.099-0.588-4.361,0.365-6.075,2.295
			C212.18,108.282,212.574,108.652,212.963,109.027z"/>
		<path d="M184.976,78.982c-5.435,2.583-4.03,10.661-4.03,10.661s36.845,8.19,46.779,36.158c3.828-2.364,2.742-11.336,0.148-17.017
			C227.342,106.619,220.01,89.01,184.976,78.982z"/>
		<ellipse transform="matrix(0.0583 -0.9983 0.9983 0.0583 24.3482 189.7759)" cx="112.765" cy="81.982" rx="11.06" ry="7.216"/>
		<path d="M164.196,70.153c3.901,0,8.154,2.14,9.343,10.102c0.352,6.354-2.796,14.387-11.825,12.534
			C152.089,89.699,155.52,70.153,164.196,70.153z"/>
		<path fill="#754C24" d="M132.783,164.48c5.063,0,5.182-2.17,8.645-1.236c3.462,0.937,11.64,4.704,19.017,3.706
			c-14.633,3.52-31.186,3.658-34.997,1.48c-1.295-1.631-1.072-4.006,0-4.568C127.72,162.751,131.056,164.344,132.783,164.48z"/>
		<path fill="#23586B" d="M123.011,175.302c0.108,8.58,10.527,5.652,10.527,5.652s5.061,5.093,14.102,0.568
			c5.378-2.69-13.118-3.92-13.118-3.92S122.904,166.722,123.011,175.302z"/>
		<path d="M161.988,166.374c0,0-2.408,2.205-4.123,4.745c-1.317,1.95-2.229,5.144-4.447,7.081c-4.763,4.16-11.208,5.896-19.43,0.494
			c-9.553,3.211-10.344-2.454-10.344-2.454l36.855-9.289L161.988,166.374z"/>
		<path fill="#8C6239" d="M125.448,168.43c-3.347,3.027-2.848,7.579-0.89,8.768c2.93,1.781,7.237,0.495,9.089,0.247
			c1.853-0.247,4.816,4.323,13.337,2.101c4.7-1.227,6.598-5.198,8.892-8.275c1.865-2.502,4.569-4.321,4.569-4.321
			S139.106,172.382,125.448,168.43z"/>
		<path d="M161.485,161.895c0.46-0.051,3.001,2.146,1.981,5.809c-0.598,1.752-0.387-1.8-1.479-1.33
			c-0.947,0.41-0.912-0.012-0.279-0.892C162.342,164.603,161.026,161.946,161.485,161.895z"/>
		<path d="M125.448,168.43c11.102,4.139,35.917,1.335,37.032-3.234C157.726,169.518,136.364,171.458,125.448,168.43z"/>
		<path d="M143.019,148.011c3.893-0.184,4.716,0.686,4.946,1.465c0.142,1.835-2.516,1.099-3.089,0.87s-0.574-1.168-0.574-1.168
			S140.409,148.193,143.019,148.011z"/>
		<path fill="#23586B" d="M197.195,162.433c0,0-0.885,7.066,0.91,9.225c0.861,1.038,3.309,0.398,4.941-1.679
			c4.113,0.714,6.426-2.796,6.426-2.796L197.195,162.433z"/>
		<ellipse transform="matrix(0.1209 -0.9927 0.9927 0.1209 16.3121 341.4682)" cx="200.956" cy="161.524" rx="8.53" ry="3.764"/>
		<path d="M201.457,154.951c0,0,9.941-3.096,9.571,8.06c-1.025,8.604-10.076,5.182-10.076,5.182L201.457,154.951z"/>
		<path fill="#603813" d="M200.449,157.316c-3.064,3.199-0.129,9.356,0,9.125c0.133-0.232,8.776,3.597,9.023-4.548
			C208.485,153.86,201.062,156.206,200.449,157.316z"/>
		<g>
			<path d="M132.877,119.686c-0.029-0.567-0.055-1.189-0.079-1.85l0.617-0.021c0.023,0.657,0.049,1.276,0.078,1.84L132.877,119.686z
				 M132.746,115.986c-0.015-0.602-0.025-1.224-0.033-1.85l0.618-0.008c0.007,0.625,0.019,1.245,0.032,1.843L132.746,115.986z
				 M132.7,112.287l0-0.342c0-0.486,0.001-0.988,0.006-1.508l0.618,0.006c-0.004,0.518-0.007,1.018-0.007,1.503l0,0.341
				L132.7,112.287z M133.347,108.598l-0.617-0.01c0.011-0.625,0.025-1.246,0.042-1.85l0.618,0.016
				C133.372,107.356,133.358,107.977,133.347,108.598z M133.448,104.912l-0.618-0.021c0.023-0.62,0.049-1.243,0.077-1.85
				l0.617,0.029C133.496,103.675,133.471,104.295,133.448,104.912z M133.62,101.229l-0.617-0.035
				c0.035-0.618,0.073-1.24,0.115-1.847l0.615,0.042C133.692,99.994,133.654,100.613,133.62,101.229z M133.866,97.549l-0.615-0.048
				c0.048-0.615,0.099-1.236,0.152-1.844l0.615,0.055C133.964,96.317,133.914,96.936,133.866,97.549z M134.188,93.876l-0.614-0.061
				c0.062-0.623,0.127-1.242,0.192-1.84l0.614,0.068C134.315,92.64,134.25,93.256,134.188,93.876z M134.593,90.212l-0.612-0.075
				c0.075-0.611,0.154-1.23,0.236-1.836l0.612,0.083C134.747,88.989,134.667,89.604,134.593,90.212z M135.085,86.56l-0.61-0.09
				c0.09-0.612,0.186-1.228,0.282-1.829l0.609,0.099C135.27,85.336,135.176,85.95,135.085,86.56z M135.673,82.919l-0.608-0.107
				c0.107-0.615,0.22-1.227,0.333-1.822l0.607,0.116C135.892,81.697,135.78,82.308,135.673,82.919z M136.364,79.296l-0.604-0.125
				c0.124-0.603,0.255-1.212,0.389-1.811l0.604,0.134C136.617,78.089,136.487,78.695,136.364,79.296z M137.167,75.702l-0.601-0.145
				c0.146-0.604,0.298-1.209,0.451-1.796l0.597,0.155C137.462,74.499,137.311,75.102,137.167,75.702z M138.094,72.139l-0.594-0.167
				c0.168-0.604,0.343-1.2,0.517-1.778l0.591,0.179C138.435,70.947,138.262,71.542,138.094,72.139z M139.159,68.619l-0.587-0.192
				c0.194-0.592,0.393-1.183,0.596-1.753l0.582,0.205C139.55,67.446,139.35,68.031,139.159,68.619z M140.383,65.156l-0.577-0.22
				c0.224-0.583,0.455-1.163,0.688-1.722l0.571,0.238C140.834,64.004,140.604,64.578,140.383,65.156z M141.798,61.771l-0.562-0.257
				c0.261-0.573,0.531-1.136,0.802-1.674l0.551,0.278C142.322,60.648,142.057,61.204,141.798,61.771z M143.445,58.5l-0.539-0.302
				c0.308-0.553,0.625-1.092,0.943-1.602l0.523,0.326C144.061,57.424,143.749,57.954,143.445,58.5z M145.382,55.4l-0.504-0.355
				c0.37-0.523,0.748-1.021,1.128-1.486l0.478,0.39C146.114,54.402,145.742,54.89,145.382,55.4z M147.69,52.588l-0.443-0.429
				c0.453-0.468,0.916-0.897,1.375-1.278l0.395,0.475C148.574,51.723,148.127,52.136,147.69,52.588z M150.476,50.309l-0.319-0.528
				c1.078-0.651,1.75-0.788,1.779-0.792l0.12,0.604C152.049,49.594,151.449,49.721,150.476,50.309z"/>
		</g>
		<path d="M98.995,116.041c-2.147,1.208-2.313,3.184-2.313,3.184s-3.082,0.308-4.692,2.773c-1.245,1.908-0.741,5.459,3.169,5.307
			c13.873-2.374,26.88-0.696,26.88-0.696S100.443,115.641,98.995,116.041z"/>
		<path d="M115.367,128.583c-2.126,0-3.85-1.724-3.85-3.85c0-1.479,0.834-2.761,2.057-3.406c-3.471-1.298-7.688-1.709-8.484-0.821
			c-1.205,1.346-1.937,3.123-1.937,5.071c0,4.2,3.405,7.606,7.606,7.606c3.574,0,6.571-2.466,7.386-5.79
			C117.444,128.126,116.459,128.583,115.367,128.583z"/>
		<path fill="#23586B" d="M115.367,128.583c-2.126,0-3.85-1.724-3.85-3.85c0-1.223,0.57-2.312,1.46-3.017
			c-0.289-0.06-0.588-0.09-0.894-0.09c-2.439,0-4.416,1.977-4.416,4.415c0,2.439,1.977,4.417,4.416,4.417
			c1.5,0,2.824-0.748,3.622-1.891C115.593,128.577,115.48,128.583,115.367,128.583z"/>
		<circle cx="110.759" cy="126.609" r="3.849"/>
		<path fill="#603813" d="M98.995,116.041c0,0-1.389,2.547-0.926,4.399c-7.179,0.695-4.595,4.945-3.362,5.289
			c0.88,0.3,10.059-1.171,17.467-0.708c7.135,0.445,12.525,2.831,12.525,2.831s1.687-1.511,0-3.011
			C111.499,113.262,98.995,116.041,98.995,116.041z"/>
		<path d="M163.368,112.821c-1.38,1.546-2.713,2.993-3.293,5.382c-7.234,1.73-5.764,9.655-0.741,9.48
			c17.042-3.107,37.442,1.714,37.442,1.714S191.691,115.738,163.368,112.821z"/>
		<path d="M162.072,100.561c-3.146,6.051,2.594,6.435,2.594,6.435s15.668-8.678,25.44-3.217
			C184.055,94.387,165.221,94.511,162.072,100.561z"/>
		<path d="M122.156,142.742c0,0-1.546,2.168-1.675,4.886c-0.911-2.635,0-5.187,0-5.187L122.156,142.742z"/>
		<path d="M204.78,129.194c-5.759,9.302-11.677,14.312-17.269,16.966c-21.354,10.133-39.415-18.856-39.415-18.856
			S175.522,170.625,204.78,129.194z"/>
		<path d="M147.424,123.716c41.642-36.325,57.356,5.478,57.356,5.478S186.667,92.043,147.424,123.716z"/>
		<path d="M85.734,122.306c24.99-23.594,38.824,0.759,38.824,0.759S108.995,103.643,85.734,122.306z"/>
		<path d="M86.767,127.276c4.861,8.464,10.746,11.282,15.566,12.847c17.248,4.609,23.905-11.323,23.905-11.323
			s-3.235,5.863-9.25,9.101C109.879,141.725,99.012,142.061,86.767,127.276z"/>
		<path fill="#8C6239" d="M133.538,128.583c-2.816,4.346-3.474,10.271-3.474,10.271s1.609-0.192,2.048,0.545
			c-4.405,1.879-5.539,10.246-7.679,12.099c-0.74,0.639-2.485,0.163-3.317-1.16c-2.498-7.825,5.739-10.938,5.739-10.938
			S129.314,131.276,133.538,128.583z"/>
		<path fill="#603813" d="M160.984,125.914c21.49-3.075,37.121,4.021,37.121,4.021s-2.316-8.8-14.59-13.431
			c-12.272-4.632-19.448-4.575-20.147-3.683c-1.544,2.378-1.974,5.419-1.852,6.692c-1.319-0.092-5.04,1.238-4.653,3.739
			c0.079,0.51,0.327,1.066,0.801,1.671C157.987,125.338,159.664,126.222,160.984,125.914z"/>
		<path fill="#8C6239" d="M163.598,119.717c0,0-1.422-2.259,0-7.063c-1.882,1.668-2.081,6.86-2.081,6.86s-3.439,0.117-4.682,2.628
			c-0.891,2.802,1.656,4.154,3.584,3.835c3.975-0.656,10.999-0.834,10.999-0.834L163.598,119.717z"/>
		<path fill="#8C6239" d="M145.045,141.891c0.703-0.75,1.446-0.505,1.446-0.505s4.558,0.488,5.311,3.122
			c-3.932-2.122-8.323-0.805-8.323-0.805S144.342,142.643,145.045,141.891z"/>
		<path d="M146.456,139.317c0,0-2.508,2.152-2.978,4.249c1.598-2.012,2.841-2.092,3.013-2.179
			C146.663,141.299,146.456,139.317,146.456,139.317z"/>
		<path fill="#8C6239" d="M98.995,116.041c-0.348,4.791,0.867,5.585,0.867,5.585s-1.974-0.642-3.493,0.726
			c-1.519,1.367,3.099,3.092,3.099,3.092s-4.346,0.51-4.761,0.286c-2.743-1.328-1.452-4.517,1.006-4.844
			c1.112-0.509,2.356-0.445,2.356-0.445S97.662,117.277,98.995,116.041z"/>
		<path d="M125.954,83.699c1.65,6.605,4.812,4.561,4.812,4.561s-0.802,2.766-3.03,4.777c-5.809,3.986-13.712,2.875-13.712,2.875
			s3.705-0.47,5.96-4.321c1.197-2.045,2.439-4.766,2.599-8.928C122.669,80.412,124.303,77.093,125.954,83.699z"/>
		<path d="M176.439,91.465c-1.782,3.844-4.374,5.557-4.374,5.557s7.704-0.199,11.9-5.643
			C181.732,92.239,179.445,92.228,176.439,91.465z"/>
		<ellipse fill="#FFFFFF" cx="112.752" cy="77.321" rx="2.567" ry="3.572"/>
		<ellipse fill="#FFFFFF" cx="165.486" cy="77.321" rx="3.009" ry="4.184"/>
		<path d="M124.909,183.421c0,2.023,0.539,3.534,0.539,3.534l-1.803-0.261C123.645,186.695,124.173,184.279,124.909,183.421z"/>
		<path fill="#23586B" d="M124.909,183.421c0,0-4.402,1.282-6.41,1.023c0.28,0.938,5.146,2.25,5.146,2.25L124.909,183.421z"/>
		<path fill="#23586B" d="M165.552,182.082l-2.501,6.093c0,0,2.408,0.481,6.304-3.115
			C166.879,184.952,165.552,182.082,165.552,182.082z"/>
		<path d="M165.552,182.082c-0.777,1.508-2.439,4.845-5.719,7.188c0.81,1.362,2.155,0.437,2.155,0.437
			S165.584,186.621,165.552,182.082z"/>
		<path fill="#23586B" d="M199.06,162.433c4.087,1.153,8.12,2.306,10.35,0.333c-0.501,6.871-8.959,3.675-8.959,3.675
			S199.5,165.356,199.06,162.433z"/>
		<path fill="#8C6239" d="M200.449,157.316l-1.085,1.848c0,0,5.551-2.123,9.38,0C206.273,153.708,200.449,157.316,200.449,157.316z"
			/>
	</g>
</g>
</svg>
