<?xml version="1.0" encoding="utf-8"?>
<!-- Generator: Adobe Illustrator 16.2.1, SVG Export Plug-In . SVG Version: 6.00 Build 0)  -->
<!DOCTYPE svg PUBLIC "-//W3C//DTD SVG 1.1//EN" "http://www.w3.org/Graphics/SVG/1.1/DTD/svg11.dtd">
<svg version="1.1" id="Capa_1" xmlns="http://www.w3.org/2000/svg" xmlns:xlink="http://www.w3.org/1999/xlink" x="0px" y="0px"
	 width="241.894px" height="41.424px" viewBox="0 0 241.894 41.424" enable-background="new 0 0 241.894 41.424"
	 xml:space="preserve">
<g>
	<path fill="#DE9D3A" d="M40.615,8.437c-1.198,0-2.171,0.973-2.171,2.17c0,0.234,0.038,0.459,0.107,0.669
		c-0.505,0.68-0.927,1.41-1.272,2.162c-5.402-2.831-10.471-3.924-14.827-4.131V4.047c0.648-0.375,1.085-1.076,1.085-1.877
		c0-1.198-0.972-2.17-2.173-2.17c-1.198,0-2.17,0.972-2.17,2.17c0,0.801,0.438,1.502,1.085,1.877v5.231
		c-2.194,0.039-4.166,0.293-5.853,0.631c-4.411,0.884-7.594,2.435-9.052,3.251c-0.321-0.654-0.699-1.29-1.14-1.884
		c0.069-0.209,0.105-0.435,0.105-0.669c0-1.198-0.973-2.169-2.171-2.169C0.973,8.438,0,9.41,0,10.607c0,1.201,0.973,2.17,2.17,2.17
		c0.149,0,0.296-0.016,0.438-0.043c2.595,3.661,2.449,9.365,2.446,9.426c-0.018,0.603,0.453,1.105,1.053,1.123
		c0.014,0,0.024,0,0.035,0c0.584,0,1.068-0.465,1.087-1.055c0.007-0.216,0.091-3.579-1.036-7.037
		c1.587-0.908,6.831-3.572,14.084-3.733v6.802c0,0.602,0.486,1.088,1.086,1.088c0.602,0,1.088-0.486,1.088-1.088V11.49
		c4.21,0.203,8.987,1.296,14.045,3.994c-1.029,3.352-0.949,6.532-0.944,6.746c0.021,0.588,0.502,1.053,1.087,1.053
		c0.013,0,0.023,0,0.036-0.001c0.6-0.02,1.068-0.521,1.052-1.123c-0.002-0.063-0.146-5.766,2.447-9.428
		c0.145,0.028,0.288,0.044,0.438,0.044c1.198,0,2.17-0.972,2.17-2.173C42.785,9.41,41.812,8.437,40.615,8.437z"/>
	<path fill="#DE9D3A" d="M21.407,32.462C13.505,32.462,5,30.763,5,27.032c0-3.776,8.837-5.118,16.407-5.118
		c7.566,0,16.403,1.342,16.403,5.118C37.811,30.763,29.306,32.462,21.407,32.462z M21.407,24.09c-10,0-14.233,2.104-14.233,2.942
		c0,0.974,4.844,3.254,14.233,3.254c9.387,0,14.23-2.28,14.23-3.254C35.638,26.194,31.403,24.09,21.407,24.09z"/>
</g>
<rect x="142.83" y="3.737" fill="#DE9D3A" width="5.636" height="29.291"/>
<path fill="#DE9D3A" d="M62.56,11.764v2.744c-1.72-2.06-4.088-3.363-6.699-3.363c-5.906,0-9.517,5.27-9.517,11.386
	c0,6.119,4.262,11.078,9.517,11.078c2.611,0,4.978-1.226,6.699-3.209v2.628h5.635V11.764H62.56z M57.953,28.547
	c-3.253,0-5.894-2.753-5.894-6.151c0-3.396,2.641-6.15,5.894-6.15c1.862,0,3.523,0.905,4.606,2.317v7.667
	C61.477,27.644,59.819,28.547,57.953,28.547z"/>
<path fill="#DE9D3A" d="M191.345,11.764v2.744c-1.721-2.06-4.087-3.363-6.699-3.363c-5.905,0-9.515,5.27-9.515,11.386
	c0,6.119,4.261,11.078,9.515,11.078c2.612,0,4.979-1.226,6.699-3.209v2.628h5.638V11.764H191.345z M186.743,28.547
	c-3.257,0-5.896-2.753-5.896-6.151c0-3.396,2.639-6.15,5.896-6.15c1.861,0,3.522,0.905,4.604,2.317v7.667
	C190.264,27.644,188.607,28.547,186.743,28.547z"/>
<path fill="#DE9D3A" d="M85.237,11.42c-4.188,0-6.853,2.378-7.649,3.2v-2.856h-5.636v21.262h5.636V18.504
	c1.012-0.914,3.043-2.482,5.027-2.482c2.802,0,3.853,2.393,3.853,2.393v14.609h5.636V17.693
	C92.104,13.088,89.073,11.42,85.237,11.42z"/>
<path fill="#DE9D3A" d="M166.005,11.11c-4.156,0-6.817,2.557-7.634,3.467V3.737h-5.635v29.291h5.635V18.489
	c1.019-0.912,3.038-2.464,5.014-2.464c2.8,0,3.854,2.394,3.854,2.394v14.61h5.638V17.696
	C172.876,13.088,169.841,11.11,166.005,11.11z"/>
<path fill="#DE9D3A" d="M110.636,11.764v3.123c-1.676-2.296-4.171-3.753-6.956-3.753c-5.052,0-9.146,4.788-9.146,10.697
	c0,7.276,4.097,11.01,9.146,11.01c2.783,0,5.28-1.235,6.956-3.511v3.697c0,0-0.211,4.198-6.365,4.198
	c-2.552,0-4.878-0.757-6.229-2.633l-2.479,3.98c0,0,1.727,2.853,9.683,2.853c9.457,0,11.028-6.355,11.028-8.395V11.765
	L110.636,11.764L110.636,11.764z M105.84,28.053c-3.092,0-5.599-2.718-5.599-6.073s2.507-6.074,5.599-6.074
	c2.037,0,3.818,1.187,4.796,2.953v6.24C109.658,26.866,107.877,28.053,105.84,28.053z"/>
<path fill="#DE9D3A" d="M140.4,22.399c0-6.151-4.883-11.136-10.907-11.136s-10.597,4.985-10.597,11.136
	c0,6.152,4.572,11.138,10.597,11.138c3.36,0,7.223-0.545,9.224-2.984l-2.527-3.445c0,0-2.219,2.145-5.662,2.145
	c-5.129,0-6.048-5.052-6.048-5.052l15.812-0.223C140.364,23.461,140.4,22.936,140.4,22.399z M124.346,20.524
	c0.166-2.73,2.542-4.899,5.456-4.899s5.291,2.167,5.458,4.899H124.346z"/>
<path fill="#DE9D3A" d="M215.704,26.331c-1.08,1.507-2.766,2.479-4.665,2.479c-3.266,0-5.911-2.87-5.911-6.409
	c0-3.539,2.646-6.409,5.911-6.409c1.842,0,3.487,0.914,4.569,2.342l3.602-3.545c-2.067-2.246-5.059-3.654-8.384-3.654
	c-6.239,0-11.296,4.959-11.296,11.081c0,6.123,4.321,11.396,11.296,11.396c3.49,0,6.468-1.499,8.489-3.824L215.704,26.331z"/>
<polygon fill="#DE9D3A" points="233.326,21.302 241.583,11.764 234.928,11.764 226.689,21.599 226.689,3.737 221.052,3.737 
	221.052,33.027 226.689,33.027 226.689,27.578 229.475,24.704 235.218,33.027 241.894,33.027 "/>
</svg>
