<?xml version="1.0" encoding="utf-8"?>
<!-- Generator: Adobe Illustrator 16.2.1, SVG Export Plug-In . SVG Version: 6.00 Build 0)  -->
<!DOCTYPE svg PUBLIC "-//W3C//DTD SVG 1.1//EN" "http://www.w3.org/Graphics/SVG/1.1/DTD/svg11.dtd">
<svg version="1.1" id="Capa_1" xmlns="http://www.w3.org/2000/svg" xmlns:xlink="http://www.w3.org/1999/xlink" x="0px" y="0px"
	 width="440.111px" height="106.996px" viewBox="0 0 440.111 106.996" enable-background="new 0 0 440.111 106.996"
	 xml:space="preserve">
<g>
	<g>
		<path fill="#FFFFFF" d="M59.461,39.325c0,3.568-0.62,5.819-2.483,6.207l-2.482,0.387v4.423h32.739V34.437h-4.888v4.268
			c0,3.724-1.94,5.508-7.369,5.508c-5.664,0-6.752-2.483-6.752-6.904V12.483c0-3.646,0.933-5.897,2.484-6.208l2.482-0.387V1.467
			H54.496v4.422l2.482,0.387c1.553,0.311,2.483,2.562,2.483,6.208V39.325z"/>
		<path fill="#FFFFFF" d="M118.422,34.515l0.543,2.327c1.242,5.896,0.31,7.915-1.707,8.535l-2.017,0.542v4.423h19.084v-4.423
			l-2.173-0.852c-1.319-0.466-2.637-2.716-4.033-8.147l-9.155-35.453h-7.215l-8.92,32.97c-2.174,7.992-3.493,10.319-5.433,10.94
			l-1.706,0.542v4.423h16.446v-4.423l-2.016-0.542c-1.708-0.621-2.872-3.957-1.708-8.535l0.623-2.327H118.422z M110.82,27.611
			l3.259-11.87h0.31l2.559,11.87H110.82z"/>
		<path fill="#FFFFFF" d="M178.311,29.007c8.92,0,15.517-4.033,15.595-13.111c0.078-10.24-5.198-14.429-14.741-14.429h-21.878v4.422
			l2.483,0.387c1.552,0.311,2.482,2.562,2.482,6.208v26.842c0,3.568-0.62,5.819-2.482,6.207l-2.483,0.387v4.423h18.773V45.92
			l-2.482-0.387c-1.938-0.388-2.56-2.639-2.56-6.207V29.007H178.311z M171.018,12.871c0-3.646,1.475-4.656,3.724-4.656h4.423
			c2.561,0,5.274,2.019,5.274,6.906c0,3.723-2.714,6.438-5.274,6.438h-8.146L171.018,12.871L171.018,12.871z"/>
		<path fill="#FFFFFF" d="M221.134,29.085c3.57,0,4.81,4.888,5.275,9.387c1.086,9.464,3.337,12.413,8.923,12.413
			c4.577,0,7.525-2.793,7.525-13.575v-3.568h-4.501v3.568c0,1.706-0.309,4.265-1.473,4.265c-1.24,0-1.551-2.094-1.939-6.516
			c-0.388-4.268-1.397-7.215-4.034-9.156v-0.155c2.946-1.628,5.664-5.119,5.664-11.327c0-7.989-4.656-12.955-14.585-12.955h-21.878
			v4.422l2.482,0.387c1.554,0.311,2.483,2.562,2.483,6.208v26.842c0,3.568-0.62,5.819-2.483,6.207l-2.482,0.387v4.423h19.162v-4.423
			l-1.785-0.232c-2.793-0.309-3.646-2.793-3.646-6.361v-10.24L221.134,29.085L221.134,29.085z M221.989,8.215
			c2.559,0,5.274,2.019,5.274,6.906c0,4.188-2.715,6.593-5.274,6.593h-8.147V12.87c0-3.724,1.008-4.656,2.637-4.656L221.989,8.215
			L221.989,8.215z"/>
		<path fill="#FFFFFF" d="M284.286,18.456c-0.08-9.698-6.363-17.532-16.059-17.532c-9.698,0-16.059,8.379-16.059,17.532
			l-0.078,14.818c-0.077,10.552,6.438,17.533,16.137,17.533c9.776,0,16.136-8.3,16.059-18.075V18.456z M262.719,14.577
			c0-4.343,0.854-8.611,5.508-8.611c4.575,0,5.508,4.268,5.508,8.611v20.637c0,5.274-0.933,10.627-5.508,10.627
			c-4.655,0-5.508-4.965-5.508-10.627V14.577z"/>
		<path fill="#FFFFFF" d="M304.068,12.483h0.154l7.447,37.858h5.045l7.367-37.858h0.156v26.842c0,3.568-0.62,5.742-2.561,6.207
			l-1.707,0.387v4.423h18v-4.423l-2.484-0.387c-1.939-0.388-2.561-2.639-2.561-6.207V12.483c0-3.646,0.932-5.897,2.483-6.208
			l2.481-0.387V1.467H320.9l-4.575,23.818l-4.812-23.818h-17.377v4.422l2.482,0.387c1.554,0.311,2.482,2.562,2.482,6.208v26.842
			c0,3.568-0.619,5.819-2.482,6.207l-2.482,0.387v4.423h14.198V45.92l-1.708-0.387c-1.938-0.465-2.561-2.639-2.561-6.207V12.483
			H304.068z"/>
		<path fill="#FFFFFF" d="M379.939,18.456c-0.078-9.698-6.361-17.532-16.059-17.532s-16.059,8.379-16.059,17.532l-0.078,14.818
			c-0.077,10.552,6.439,17.533,16.137,17.533c9.775,0,16.137-8.3,16.059-18.075V18.456z M358.373,14.577
			c0-4.343,0.854-8.611,5.508-8.611c4.577,0,5.508,4.268,5.508,8.611v20.637c0,5.274-0.931,10.627-5.508,10.627
			c-4.656,0-5.508-4.965-5.508-10.627V14.577z"/>
	</g>
	<g>
		<path fill="#1D1D1B" d="M78.977,40.41c0,2.095,1.551,2.636,2.792,2.636c1.476,0,2.873-1.86,2.873-4.73v-4.345h7.524l5.818,7.834
			v17.3h-36.23L56.79,52.59v-7.139l3.027-0.463c1.473-0.311,2.016-2.483,2.016-5.198V13.335c0-3.568-1.086-4.655-2.561-4.811
			L56.79,8.059V0.923h21.49l5.74,7.602v6.129l-2.406,0.387c-1.396,0.155-2.637,1.785-2.637,5.974V40.41z M63.15,40.177
			c0,3.568-0.619,5.819-2.482,6.207l-2.482,0.387v4.423h32.739V35.29h-4.887v4.269c0,3.722-1.94,5.507-7.37,5.507
			c-5.664,0-6.75-2.483-6.75-6.904V13.335c0-3.646,0.932-5.896,2.482-6.208l2.482-0.387V2.319H58.186V6.74l2.482,0.387
			c1.553,0.311,2.482,2.562,2.482,6.208V40.177z M64.546,13.335c0-5.896-1.628-7.369-3.024-7.681l-2.019-0.311V3.639h16.06v1.706
			l-2.016,0.311c-1.396,0.312-3.027,1.784-3.027,7.681v12.567c-0.775-0.621-1.861-0.621-2.869,0
			c0.464,1.007,1.318,2.638,2.482,3.802c-1.164,2.559-2.018,6.129-2.561,12.723c-0.543-6.594-1.395-10.164-2.56-12.723
			c1.165-1.164,2.017-2.794,2.406-3.802c-1.086-0.621-2.096-0.621-2.872,0V13.335z M67.651,25.826
			c0.464-2.716,1.318-4.268,2.482-5.431c-1.164-1.861-2.018-4.656-2.561-10.472c-0.543,5.816-1.395,8.611-2.56,10.472
			c1.165,1.163,2.017,2.715,2.406,5.431H67.651z"/>
		<path fill="#1D1D1B" d="M123.197,0.923l8.69,9.077l8.3,31.962c0.698,2.483,2.483,6.05,4.965,7.602v9.542H125.06l-2.016-2.715
			v2.715h-19.707l-5.353-7.136v-6.361L100,44.988c1.94-0.623,3.337-3.182,5.123-9.698l9.231-34.366L123.197,0.923L123.197,0.923z
			 M122.111,35.367l0.545,2.328c1.241,5.896,0.31,7.915-1.708,8.534l-2.017,0.542v4.423h19.084v-4.423l-2.172-0.853
			c-1.319-0.467-2.638-2.715-4.034-8.146l-9.153-35.453h-7.216l-8.92,32.97c-2.173,7.991-3.493,10.319-5.432,10.939l-1.707,0.542
			v4.423h16.447V46.77l-2.016-0.542c-1.707-0.62-2.873-3.956-1.707-8.534l0.621-2.328L122.111,35.367L122.111,35.367z
			 M116.604,3.639h4.888l5.817,22.264c-0.93-0.621-1.861-0.621-2.792,0c0.466,1.007,1.708,2.638,3.026,3.802
			c-0.389,3.179-0.543,6.438,0.387,12.723c-2.017-6.284-3.258-9.153-5.351-12.723c0.773-1.164,1.628-2.794,1.706-3.802
			c-1.163-0.621-2.173-0.621-2.793,0l-3.335-15.438H118l-4.189,15.438c-0.931-0.621-2.017-0.621-3.182,0L116.604,3.639z
			 M114.509,28.463l3.259-11.87h0.31l2.559,11.87H114.509z M124.517,25.826c0-2.716,0.311-4.268,0.776-5.431
			c-1.396-1.861-2.56-4.656-4.656-10.472c0.699,5.816,0.622,8.611,0.233,10.472c1.164,1.163,2.251,2.715,3.414,5.431H124.517z"/>
		<path fill="#1D1D1B" d="M186.81,53.21v5.896h-22.265l-4.965-6.516v-7.139l3.027-0.463c1.474-0.311,2.016-2.483,2.016-5.198V13.335
			c0-3.568-1.086-4.655-2.559-4.811l-2.483-0.466V0.923h23.971c12.335,0,21.258,12.178,21.258,21.566
			c0,10.707-7.836,15.827-16.835,15.75l-6.206-0.078v8.455L186.81,53.21z M182,29.86c8.92,0,15.517-4.034,15.594-13.111
			c0.078-10.241-5.198-14.43-14.741-14.43h-21.878V6.74l2.483,0.387c1.552,0.311,2.482,2.562,2.482,6.208v26.842
			c0,3.568-0.62,5.819-2.482,6.207l-2.483,0.387v4.423h18.775v-4.423l-2.483-0.387c-1.938-0.388-2.559-2.639-2.559-6.207V29.86H182z
			 M167.336,13.335c0-5.896-1.628-7.369-3.024-7.681l-2.018-0.311V3.639h20.481c8.066,0,13.422,3.18,13.422,13.188
			c0,4.189-1.786,7.215-4.036,9c-1.165-0.622-1.706-0.544-3.568,0.077c-1.475-0.621-2.871-0.621-4.346,0
			c-1.627-0.621-3.18-0.621-4.731,0c-1.474-0.621-3.18-0.621-4.732,0c-1.552-0.621-2.871-0.621-4.421,0
			c0.465,1.007,1.318,2.638,2.483,3.802c-1.166,2.559-2.019,6.129-2.561,12.723c-0.543-6.594-1.318-10.164-2.482-12.723
			c1.164-1.164,1.938-2.794,2.327-3.802c-1.086-0.621-2.017-0.621-2.795,0L167.336,13.335L167.336,13.335z M170.364,25.826
			c0.388-2.716,1.318-4.268,2.328-5.431c-1.01-1.861-1.94-4.656-2.483-10.472c-0.543,5.816-1.396,8.611-2.404,10.472
			c1.008,1.163,1.861,2.715,2.25,5.431H170.364z M173.31,23.809h9.466c4.111,0,6.749-3.337,6.749-7.835
			c0-5.431-3.025-8.224-6.903-8.224h-4.036c-3.18,0-5.276,1.318-5.276,5.974V23.809z M174.708,13.723
			c0-3.646,1.475-4.656,3.723-4.656h4.423c2.561,0,5.275,2.019,5.275,6.906c0,3.724-2.714,6.439-5.275,6.439h-8.146V13.723
			L174.708,13.723z M183.631,16.981c-0.932,0-1.863,0.854-1.863,2.405v2.016h1.009c1.86,0,3.492-1.939,3.492-3.101
			c0-0.854-0.466-1.32-1.241-1.32H183.631z M188.75,25.826c1.938-1.708,3.957-3.646,5.74-5.431
			c0.077-2.637-1.009-5.897-2.869-10.472c1.007,5.506,0.154,8.92-1.474,10.472c0.31,1.627-0.078,3.336-1.708,5.431H188.75z"/>
		<path fill="#1D1D1B" d="M207.447,13.335c0-3.568-1.087-4.655-2.561-4.811l-2.482-0.466V0.923h23.973
			c14.118,0,21.021,12.645,21.021,21.645c0,5.042-2.481,8.766-5.738,10.628h5.351l5.974,7.524v4.575
			c0,10.085-3.49,13.81-9.774,13.81c-4.344,0-9.077-2.871-11.869-8.845c-2.328-4.888-2.562-11.868-3.104-13.421h-3.646v9.078
			l5.352,6.594v6.594H207.37l-4.965-6.516v-7.139l3.026-0.463c1.475-0.311,2.017-2.483,2.017-5.198L207.447,13.335L207.447,13.335z
			 M224.825,29.937c3.568,0,4.81,4.888,5.274,9.386c1.087,9.465,3.336,12.414,8.923,12.414c4.577,0,7.524-2.792,7.524-13.575v-3.569
			h-4.5v3.569c0,1.706-0.309,4.266-1.474,4.266c-1.241,0-1.551-2.094-1.939-6.516c-0.388-4.268-1.396-7.215-4.034-9.156v-0.154
			c2.948-1.629,5.664-5.12,5.664-11.327c0-7.989-4.656-12.954-14.584-12.954H203.8v4.421l2.482,0.387
			c1.553,0.311,2.483,2.562,2.483,6.208v26.842c0,3.568-0.62,5.819-2.483,6.207l-2.482,0.387v4.423h19.163v-4.423l-1.785-0.232
			c-2.792-0.31-3.646-2.793-3.646-6.361V29.94h7.293V29.937z M225.601,3.639c8.067,0,13.343,2.869,13.343,11.635
			c0,5.588-2.327,8.922-5.586,10.629c-0.62-0.621-1.706-0.621-3.103,0c1.784,1.242,2.715,2.171,3.956,3.802
			c0.933,2.559,1.319,6.129,1.164,12.723c-1.008-6.749-3.646-10.474-6.207-12.723c0.698-1.241,1.01-2.481,0.776-3.802
			c-1.085-0.621-2.171-0.621-3.646,0c-1.395-0.621-2.87-0.621-4.266,0c-1.473-0.621-3.024-0.621-4.5,0
			c-1.474-0.621-2.869-0.621-4.343,0c0.388,1.007,1.396,2.638,2.482,3.802c-1.164,2.559-2.018,6.129-2.637,12.723
			c-0.545-6.594-1.396-10.164-2.406-12.723c1.01-1.164,1.861-2.794,2.251-3.802c-1.241-0.621-2.019-0.621-2.717,0V13.335
			c0-5.896-1.629-7.369-3.024-7.681l-2.018-0.311V3.639H225.601z M213.188,25.826c0.388-2.716,1.319-4.268,2.482-5.431
			c-1.164-1.861-2.095-4.656-2.637-10.472c-0.39,5.816-1.242,8.611-2.406,10.472c1.01,1.163,1.861,2.715,2.251,5.431H213.188z
			 M220.249,7.75c-3.182,0-4.113,1.861-4.113,5.974v10.24h9.466c2.869,0,6.749-2.482,6.749-7.99c0-5.198-2.715-8.224-6.904-8.224
			H220.249z M225.679,9.067c2.56,0,5.275,2.019,5.275,6.906c0,4.188-2.715,6.595-5.275,6.595h-8.147v-8.845
			c0-3.723,1.009-4.656,2.638-4.656H225.679z M226.066,16.981c-0.853,0-1.473,0.854-1.473,2.405v1.939h1.318
			c1.319,0,3.181-1.473,3.181-2.947c0-0.776-0.621-1.397-1.241-1.397H226.066z M230.256,25.826c2.56-1.708,4.73-3.181,6.982-5.431
			c0-2.328-0.62-5.897-2.793-10.472c1.706,5.429-0.077,8.688-1.474,10.161c-0.232,2.019-1.55,4.344-3.026,5.742H230.256z"/>
		<path fill="#1D1D1B" d="M295.035,37.306c0,14.897-8.068,22.266-18.853,22.266c-11.092,0-21.72-8.224-21.72-25.215V19.463
			c0-11.636,8.377-19.006,17.456-19.006c14.818,0,23.118,13.189,23.118,22.576L295.035,37.306L295.035,37.306z M287.977,19.308
			c-0.08-9.698-6.366-17.533-16.06-17.533c-9.698,0-16.06,8.379-16.06,17.533l-0.078,14.818
			c-0.077,10.552,6.439,17.532,16.137,17.532c9.775,0,16.137-8.301,16.059-18.075V19.308H287.977z M264.934,25.903
			c-0.62-0.621-2.173-0.621-3.724,0c0.387,1.007,1.318,2.561,2.404,3.802c-1.086,2.559-2.404,7.447-1.396,12.723
			c-2.017-5.509-3.104-10.085-3.646-12.723c1.086-1.241,1.861-2.794,2.404-3.802c-1.473-0.621-3.104-0.621-3.801,0v-6.595
			c0-7.912,5.274-16.214,14.741-16.214c9.385,0,14.661,8.302,14.661,16.214v6.595c-0.698-0.621-2.249-0.621-3.802,0
			c0.543,1.007,1.318,2.561,2.404,3.802c-0.465,2.869-1.086,7.136-3.57,12.723c0.546-5.587-0.31-10.164-1.473-12.723
			c1.163-1.241,2.019-2.794,2.406-3.802c-1.552-0.621-3.104-0.621-3.724,0V15.429c0-7.524-2.947-10.007-6.903-10.007
			c-4.036,0-6.983,2.482-6.983,10.007L264.934,25.903L264.934,25.903z M261.21,25.748c0.387-2.716,1.318-4.19,2.404-5.431
			c-1.396-3.025-1.396-6.207-0.776-10.394c-2.171,3.723-3.334,6.748-4.266,10.394c1.086,1.241,1.938,2.715,2.404,5.431H261.21z
			 M266.408,15.429c0-4.343,0.854-8.611,5.509-8.611c4.575,0,5.507,4.268,5.507,8.611v20.637c0,5.274-0.933,10.627-5.507,10.627
			c-4.655,0-5.509-4.965-5.509-10.627V15.429z M276.106,18.144c0-3.103-0.155-5.274-1.242-5.274c-0.931,0-1.474,1.55-1.474,5.664
			V36.84c0,3.027,0.232,6.518,1.008,6.518c1.165,0,1.708-3.258,1.708-7.447V18.144z M282.775,25.748
			c0.468-2.716,1.32-4.19,2.406-5.431c-1.008-3.568-2.016-6.827-4.268-10.394c0.62,3.413,0.62,7.369-0.776,10.394
			c1.163,1.241,2.019,2.715,2.406,5.431H282.775z"/>
		<path fill="#1D1D1B" d="M316.521,0.923l5.354,7.136l1.397-7.136h19.703l5.74,7.602v6.129l-2.406,0.387
			c-1.396,0.155-2.638,1.785-2.638,5.974v25.601l5.122,6.673v5.816H321.41l-2.249-3.025v3.025h-17.767l-4.965-6.516v-7.139
			l3.027-0.463c1.473-0.311,2.016-2.483,2.016-5.198V13.335c0-3.568-1.088-4.655-2.562-4.811l-2.481-0.466V0.923H316.521z
			 M307.756,13.335h0.156l7.447,37.858h5.043l7.369-37.858h0.158v26.842c0,3.568-0.623,5.741-2.562,6.207l-1.707,0.387v4.423h17.999
			v-4.423l-2.484-0.387c-1.939-0.388-2.559-2.639-2.559-6.207V13.335c0-3.646,0.93-5.896,2.482-6.208l2.483-0.387V2.319h-16.991
			l-4.578,23.815l-4.809-23.815h-17.378V6.74l2.483,0.387c1.553,0.311,2.481,2.562,2.481,6.208v26.842
			c0,3.568-0.62,5.819-2.481,6.207l-2.483,0.387v4.423h14.198v-4.423l-1.709-0.387c-1.938-0.466-2.559-2.639-2.559-6.207V13.335
			H307.756z M313.885,3.639l4.424,22.264c-0.701-0.621-1.787-0.621-2.715,0c0.387,1.007,1.318,2.328,2.869,3.802
			c-0.542,2.715-0.699,6.051-0.464,12.723c-1.478-6.438-2.873-10.008-4.347-12.723c1.009-1.396,1.707-2.794,1.707-3.802
			c-1.318-0.621-2.637-0.621-3.566,0l-2.562-12.724c-0.232-1.163-0.696-2.326-1.629-2.326c-0.853,0-1.164,1.163-1.164,2.326v12.724
			c-0.695-0.621-1.629-0.621-2.25,0V13.335c0-5.896-1.629-7.369-3.024-7.681l-2.019-0.311V3.639H313.885z M315.593,25.826
			c-0.077-1.785,0.154-3.804,1.007-5.431c-2.17-2.948-3.334-6.052-4.965-10.472c0.312,4.497,0.545,8.144-0.232,10.472
			c2.096,2.018,3.104,3.646,3.957,5.431H315.593z M340.264,3.639v1.706l-2.019,0.311c-1.396,0.312-3.027,1.784-3.027,7.681v12.567
			c-0.772-0.621-1.86-0.621-2.792,0c0.391,1.007,1.241,2.638,2.404,3.802c-1.163,2.559-2.014,6.129-2.559,12.723
			c-0.543-6.594-1.396-10.164-2.561-12.723c1.164-1.164,2.018-2.794,2.404-3.802c-1.086-0.621-2.094-0.621-2.87,0V13.179
			c0-1.163-0.312-2.326-1.163-2.326c-1.01,0-1.396,1.163-1.708,2.326l-2.406,12.724c-0.694-0.621-1.551-0.621-2.327,0l4.269-22.264
			H340.264z M332.426,25.826c0.391-2.716,1.241-4.268,2.328-5.431c-1.087-1.861-1.938-4.656-2.482-10.472
			c-0.543,5.816-1.396,8.611-2.561,10.472c1.164,1.163,2.018,2.715,2.404,5.431H332.426z"/>
		<path fill="#1D1D1B" d="M390.688,37.306c0,14.897-8.066,22.266-18.851,22.266c-11.094,0-21.722-8.224-21.722-25.215V19.463
			c0-11.636,8.376-19.006,17.455-19.006c14.818,0,23.117,13.189,23.117,22.576V37.306z M383.629,19.308
			c-0.078-9.698-6.361-17.533-16.059-17.533c-9.696,0-16.059,8.379-16.059,17.533l-0.078,14.818
			c-0.076,10.552,6.439,17.532,16.137,17.532c9.775,0,16.137-8.301,16.058-18.075L383.629,19.308L383.629,19.308z M360.588,25.903
			c-0.619-0.621-2.173-0.621-3.725,0c0.388,1.007,1.318,2.561,2.406,3.802c-1.088,2.559-2.406,7.447-1.396,12.723
			c-2.019-5.509-3.104-10.085-3.647-12.723c1.086-1.241,1.861-2.794,2.405-3.802c-1.474-0.621-3.103-0.621-3.801,0v-6.595
			c0-7.912,5.272-16.214,14.739-16.214c9.387,0,14.662,8.302,14.662,16.214v6.595c-0.697-0.621-2.25-0.621-3.801,0
			c0.543,1.007,1.317,2.561,2.402,3.802c-0.464,2.869-1.085,7.136-3.568,12.723c0.545-5.587-0.31-10.164-1.474-12.723
			c1.165-1.241,2.019-2.794,2.406-3.802c-1.55-0.621-3.103-0.621-3.724,0V15.429c0-7.524-2.949-10.007-6.904-10.007
			c-4.036,0-6.983,2.482-6.983,10.007L360.588,25.903L360.588,25.903z M356.865,25.748c0.387-2.716,1.318-4.19,2.406-5.431
			c-1.396-3.025-1.396-6.207-0.779-10.394c-2.17,3.723-3.334,6.748-4.266,10.394c1.086,1.241,1.938,2.715,2.405,5.431H356.865z
			 M362.062,15.429c0-4.343,0.854-8.611,5.51-8.611c4.576,0,5.507,4.268,5.507,8.611v20.637c0,5.274-0.933,10.627-5.507,10.627
			c-4.656,0-5.51-4.965-5.51-10.627V15.429z M371.759,18.144c0-3.103-0.155-5.274-1.239-5.274c-0.934,0-1.475,1.55-1.475,5.664
			V36.84c0,3.027,0.23,6.518,1.01,6.518c1.162,0,1.704-3.258,1.704-7.447V18.144z M378.432,25.748
			c0.465-2.716,1.318-4.19,2.403-5.431c-1.006-3.568-2.015-6.827-4.265-10.394c0.619,3.413,0.619,7.369-0.777,10.394
			c1.165,1.241,2.02,2.715,2.406,5.431H378.432z"/>
	</g>
	<polygon fill="#DE9D3A" points="15.795,14.798 20.675,24.687 31.589,26.274 23.692,33.971 25.557,44.84 15.795,39.708 6.032,44.84 
		7.897,33.971 0,26.274 10.914,24.687 	"/>
	<polygon fill="#DE9D3A" points="424.314,17.333 419.434,27.223 408.52,28.81 416.417,36.507 414.553,47.378 424.314,42.245 
		434.077,47.378 432.213,36.507 440.111,28.81 429.195,27.223 	"/>
</g>
<g>
	<path fill="#4F4F4F" d="M35.713,81.285c0,0.547-0.057,1.066-0.171,1.559c-0.114,0.493-0.305,0.924-0.574,1.292
		c-0.269,0.369-0.628,0.663-1.077,0.882c-0.449,0.22-1.008,0.328-1.678,0.328c-0.456,0-0.859-0.05-1.21-0.149
		c-0.351-0.101-0.655-0.239-0.913-0.417c-0.258-0.178-0.475-0.393-0.653-0.644c-0.178-0.251-0.32-0.526-0.427-0.827
		c-0.107-0.301-0.184-0.621-0.229-0.964c-0.045-0.342-0.068-0.694-0.068-1.06V76.91c0-0.364,0.023-0.719,0.068-1.061
		c0.045-0.342,0.122-0.662,0.229-0.964c0.107-0.301,0.25-0.575,0.427-0.827c0.177-0.25,0.396-0.465,0.653-0.643
		c0.257-0.178,0.562-0.316,0.913-0.416s0.754-0.15,1.21-0.15c0.67,0,1.229,0.109,1.678,0.328c0.449,0.219,0.808,0.514,1.077,0.883
		c0.269,0.368,0.46,0.799,0.574,1.291s0.171,1.013,0.171,1.56V81.285z M30.463,81.723c0,0.327,0.03,0.627,0.089,0.896
		c0.059,0.269,0.157,0.499,0.294,0.69c0.137,0.19,0.317,0.34,0.54,0.443c0.223,0.104,0.499,0.157,0.827,0.157
		c0.328,0,0.604-0.054,0.827-0.157s0.403-0.253,0.54-0.443c0.137-0.191,0.235-0.423,0.294-0.69c0.059-0.269,0.089-0.567,0.089-0.896
		v-5.25c0-0.328-0.03-0.628-0.089-0.896c-0.059-0.27-0.157-0.499-0.294-0.69c-0.137-0.19-0.317-0.34-0.54-0.444
		c-0.223-0.104-0.499-0.156-0.827-0.156c-0.328,0-0.604,0.053-0.827,0.156c-0.223,0.104-0.403,0.254-0.54,0.444
		c-0.137,0.191-0.235,0.423-0.294,0.69c-0.059,0.268-0.089,0.566-0.089,0.896V81.723z"/>
	<path fill="#4F4F4F" d="M43.544,85.352c-0.51,0-0.951-0.061-1.323-0.181c-0.372-0.121-0.687-0.287-0.947-0.5
		c-0.26-0.211-0.469-0.462-0.629-0.752c-0.16-0.289-0.284-0.601-0.373-0.933c-0.089-0.334-0.149-0.683-0.181-1.047
		c-0.032-0.363-0.048-0.729-0.048-1.094v-7.875h1.75v7.881c0,0.219,0.002,0.446,0.007,0.684c0.004,0.236,0.024,0.469,0.058,0.693
		c0.034,0.228,0.085,0.441,0.154,0.646c0.068,0.206,0.167,0.385,0.297,0.537s0.295,0.273,0.496,0.365
		c0.201,0.092,0.447,0.138,0.738,0.138s0.538-0.046,0.738-0.138c0.201-0.092,0.366-0.213,0.496-0.365s0.229-0.331,0.297-0.537
		c0.068-0.205,0.12-0.42,0.154-0.646c0.034-0.226,0.054-0.457,0.058-0.693c0.004-0.236,0.007-0.465,0.007-0.684v-7.881h1.75v7.875
		c0,0.364-0.016,0.729-0.048,1.094c-0.032,0.365-0.092,0.713-0.181,1.047c-0.089,0.332-0.213,0.644-0.373,0.933
		c-0.16,0.29-0.369,0.541-0.629,0.752c-0.26,0.213-0.575,0.379-0.947,0.5C44.496,85.292,44.055,85.352,43.544,85.352z"/>
	<path fill="#4F4F4F" d="M56.491,85.223l-1.834-5.688h-1.312v5.688h-1.75v-12.25h2.188c0.766,0,1.401,0.077,1.907,0.235
		c0.506,0.156,0.909,0.379,1.21,0.666c0.301,0.287,0.513,0.633,0.636,1.035c0.123,0.403,0.185,0.852,0.185,1.344
		c0,0.301-0.022,0.572-0.065,0.813c-0.043,0.242-0.102,0.457-0.175,0.646c-0.073,0.189-0.155,0.355-0.247,0.5
		c-0.091,0.145-0.185,0.266-0.281,0.365c-0.224,0.242-0.48,0.415-0.769,0.521l1.974,6.123H56.491z M53.345,78.223h0.438
		c0.328,0,0.626-0.031,0.896-0.093c0.269-0.062,0.499-0.168,0.69-0.317c0.191-0.15,0.339-0.353,0.444-0.605
		c0.105-0.252,0.157-0.57,0.157-0.953s-0.052-0.701-0.157-0.953c-0.105-0.254-0.253-0.455-0.444-0.604
		c-0.191-0.15-0.421-0.257-0.69-0.318c-0.269-0.062-0.567-0.092-0.896-0.092h-0.438V78.223z"/>
	<path fill="#4F4F4F" d="M71.803,72.973c0.547,0,1.014,0.079,1.401,0.238c0.387,0.159,0.704,0.391,0.95,0.689
		c0.246,0.301,0.426,0.668,0.54,1.102c0.114,0.434,0.171,0.923,0.171,1.471c0,0.547-0.078,1.014-0.232,1.4
		c-0.154,0.387-0.369,0.704-0.643,0.95c-0.274,0.245-0.597,0.426-0.971,0.54c-0.374,0.113-0.779,0.171-1.217,0.171H70.49v5.688
		h-1.75v-12.25H71.803z M70.928,78.223c0.438,0,0.797-0.029,1.08-0.09c0.283-0.06,0.506-0.156,0.67-0.294
		c0.164-0.137,0.278-0.315,0.342-0.54c0.064-0.224,0.096-0.499,0.096-0.826c0-0.328-0.011-0.628-0.034-0.896
		c-0.023-0.27-0.103-0.499-0.239-0.69c-0.136-0.19-0.353-0.34-0.649-0.444c-0.296-0.104-0.718-0.156-1.265-0.156h-0.438v3.938
		H70.928L70.928,78.223z"/>
	<path fill="#4F4F4F" d="M80.902,82.16l-0.614,3.062H78.54l2.564-12.25h1.808l2.627,12.25h-1.685l-0.658-3.062H80.902z
		 M82.916,80.848l-0.875-5.25l-0.875,5.25H82.916z"/>
	<path fill="#4F4F4F" d="M94.549,85.223l-1.834-5.688h-1.312v5.688h-1.75v-12.25h2.188c0.766,0,1.401,0.077,1.907,0.235
		c0.506,0.156,0.909,0.379,1.21,0.666s0.513,0.633,0.636,1.035c0.123,0.403,0.185,0.852,0.185,1.344
		c0,0.301-0.022,0.572-0.065,0.813c-0.043,0.242-0.102,0.457-0.175,0.646c-0.073,0.189-0.155,0.355-0.247,0.5
		c-0.091,0.145-0.185,0.266-0.281,0.365c-0.224,0.242-0.48,0.415-0.769,0.521l1.974,6.123H94.549z M91.403,78.223h0.438
		c0.328,0,0.626-0.031,0.896-0.093c0.269-0.062,0.499-0.168,0.69-0.317c0.191-0.15,0.339-0.353,0.444-0.605
		c0.105-0.252,0.157-0.57,0.157-0.953s-0.052-0.701-0.157-0.953c-0.105-0.254-0.253-0.455-0.444-0.604
		c-0.191-0.15-0.421-0.257-0.69-0.318c-0.269-0.062-0.567-0.092-0.896-0.092h-0.438V78.223z"/>
	<path fill="#4F4F4F" d="M106.016,72.973v1.436h-2.188v10.814h-1.75V74.408H99.89v-1.436H106.016z"/>
	<path fill="#4F4F4F" d="M115.009,85.223l-3.131-8.149v8.149h-1.75v-12.25h1.148l3.227,7.997v-7.997h1.75v12.25H115.009z"/>
	<path fill="#4F4F4F" d="M124.741,79.535h-2.188v4.375h3.062v1.312h-4.812v-12.25h4.812v1.312h-3.062v3.938h2.188V79.535z"/>
	<path fill="#4F4F4F" d="M134.625,85.223l-1.834-5.688h-1.312v5.688h-1.75v-12.25h2.188c0.766,0,1.401,0.077,1.907,0.235
		c0.506,0.156,0.909,0.379,1.21,0.666c0.301,0.287,0.513,0.633,0.636,1.035c0.123,0.403,0.185,0.852,0.185,1.344
		c0,0.301-0.022,0.572-0.065,0.813c-0.043,0.242-0.102,0.457-0.175,0.646c-0.073,0.189-0.155,0.355-0.247,0.5
		c-0.091,0.145-0.185,0.266-0.281,0.365c-0.224,0.242-0.48,0.415-0.769,0.521l1.974,6.123H134.625z M131.478,78.223h0.438
		c0.328,0,0.626-0.031,0.896-0.093c0.269-0.062,0.499-0.168,0.69-0.317c0.191-0.15,0.339-0.353,0.444-0.605
		c0.105-0.252,0.157-0.57,0.157-0.953s-0.052-0.701-0.157-0.953c-0.105-0.254-0.253-0.455-0.444-0.604
		c-0.191-0.15-0.421-0.257-0.69-0.318s-0.567-0.092-0.896-0.092h-0.438V78.223z"/>
	<path fill="#4F4F4F" d="M143.688,85.345c-0.437,0-0.822-0.051-1.154-0.153c-0.333-0.103-0.622-0.238-0.868-0.41
		c-0.246-0.17-0.453-0.364-0.622-0.58c-0.168-0.217-0.307-0.439-0.417-0.667c-0.255-0.528-0.401-1.134-0.437-1.812l1.743-0.438
		c0.018,0.491,0.091,0.93,0.219,1.312c0.055,0.164,0.125,0.324,0.209,0.482c0.084,0.156,0.188,0.297,0.312,0.42
		s0.269,0.223,0.435,0.297c0.167,0.076,0.36,0.113,0.579,0.113c0.877,0,1.315-0.438,1.315-1.312c0-0.219-0.027-0.423-0.082-0.611
		s-0.137-0.371-0.246-0.547c-0.109-0.176-0.246-0.347-0.41-0.514c-0.164-0.166-0.355-0.338-0.574-0.516l-2.188-1.75
		c-0.223-0.178-0.418-0.379-0.584-0.605c-0.167-0.225-0.304-0.463-0.414-0.714s-0.19-0.506-0.243-0.766
		c-0.053-0.261-0.079-0.519-0.079-0.772c0-0.392,0.066-0.767,0.198-1.125c0.132-0.357,0.327-0.672,0.584-0.943
		c0.257-0.271,0.577-0.485,0.959-0.646c0.382-0.16,0.824-0.239,1.325-0.239c0.438,0,0.823,0.047,1.157,0.137
		c0.333,0.092,0.623,0.213,0.869,0.363c0.246,0.149,0.454,0.32,0.623,0.512c0.169,0.192,0.308,0.386,0.417,0.582
		c0.255,0.47,0.401,1,0.438,1.593l-1.75,0.438c-0.019-0.41-0.091-0.774-0.219-1.095c-0.055-0.137-0.125-0.271-0.209-0.399
		c-0.084-0.129-0.188-0.246-0.312-0.349c-0.123-0.104-0.268-0.187-0.435-0.25s-0.36-0.096-0.579-0.096
		c-0.229,0-0.426,0.034-0.593,0.104c-0.167,0.071-0.304,0.166-0.411,0.284s-0.186,0.259-0.236,0.417
		c-0.05,0.159-0.075,0.328-0.075,0.506c0,0.303,0.071,0.61,0.213,0.926c0.142,0.314,0.363,0.592,0.666,0.83l2.188,1.75
		c0.278,0.223,0.526,0.467,0.743,0.732c0.217,0.268,0.4,0.545,0.551,0.837c0.15,0.291,0.265,0.59,0.342,0.897
		c0.078,0.307,0.117,0.609,0.117,0.91c0,0.379-0.062,0.739-0.185,1.084c-0.124,0.345-0.312,0.647-0.565,0.912
		c-0.253,0.266-0.571,0.477-0.954,0.633C144.667,85.268,144.212,85.345,143.688,85.345z"/>
	<path fill="#4F4F4F" d="M162.368,79.535h-3.062v5.688h-1.75v-12.25h1.75v5.25h3.062v-5.25h1.75v12.25h-1.75V79.535z"/>
	<path fill="#4F4F4F" d="M170.593,82.16l-0.614,3.062h-1.748l2.564-12.25h1.808l2.627,12.25h-1.685l-0.658-3.062H170.593z
		 M172.606,80.848l-0.875-5.25l-0.875,5.25H172.606z"/>
	<path fill="#4F4F4F" d="M181.882,79.511l1.399-6.538h1.748l-2.623,12.25h-1.862l-2.513-12.25h1.748l1.294,6.562l0.398,3.062
		L181.882,79.511z"/>
	<path fill="#4F4F4F" d="M193.081,79.535h-2.188v4.375h3.062v1.312h-4.812v-12.25h4.812v1.312h-3.062v3.938h2.188V79.535z"/>
	<path fill="#4F4F4F" d="M206.463,82.16l-0.614,3.062h-1.748l2.564-12.25h1.808l2.627,12.25h-1.685l-0.658-3.062H206.463z
		 M208.477,80.848l-0.875-5.25l-0.875,5.25H208.477z"/>
	<path fill="#4F4F4F" d="M224.97,85.345c-0.437,0-0.822-0.051-1.154-0.153c-0.333-0.103-0.622-0.238-0.868-0.41
		c-0.246-0.17-0.453-0.364-0.622-0.58c-0.168-0.217-0.307-0.439-0.417-0.667c-0.255-0.528-0.401-1.134-0.437-1.812l1.743-0.438
		c0.018,0.491,0.091,0.93,0.219,1.312c0.055,0.164,0.125,0.324,0.209,0.482c0.084,0.156,0.188,0.297,0.312,0.42
		s0.269,0.223,0.435,0.297c0.167,0.076,0.36,0.113,0.579,0.113c0.877,0,1.315-0.438,1.315-1.312c0-0.219-0.027-0.423-0.082-0.611
		c-0.055-0.188-0.137-0.371-0.246-0.547s-0.246-0.347-0.41-0.514c-0.164-0.166-0.355-0.338-0.574-0.516l-2.188-1.75
		c-0.223-0.178-0.418-0.379-0.584-0.605c-0.167-0.225-0.304-0.463-0.414-0.714c-0.11-0.251-0.19-0.506-0.243-0.766
		c-0.053-0.261-0.079-0.519-0.079-0.772c0-0.392,0.066-0.767,0.198-1.125c0.132-0.357,0.327-0.672,0.584-0.943
		c0.257-0.271,0.577-0.485,0.959-0.646c0.382-0.16,0.824-0.239,1.325-0.239c0.438,0,0.823,0.047,1.157,0.137
		c0.333,0.092,0.623,0.213,0.869,0.363c0.246,0.149,0.454,0.32,0.623,0.512c0.169,0.192,0.308,0.386,0.417,0.582
		c0.255,0.47,0.401,1,0.438,1.593l-1.75,0.438c-0.019-0.41-0.091-0.774-0.219-1.095c-0.055-0.137-0.125-0.271-0.209-0.399
		s-0.188-0.246-0.312-0.349c-0.123-0.104-0.268-0.187-0.435-0.25s-0.36-0.096-0.579-0.096c-0.229,0-0.426,0.034-0.593,0.104
		c-0.167,0.071-0.304,0.166-0.411,0.284s-0.186,0.259-0.236,0.417c-0.05,0.159-0.075,0.328-0.075,0.506
		c0,0.303,0.071,0.61,0.213,0.926c0.142,0.314,0.363,0.592,0.666,0.83l2.188,1.75c0.278,0.223,0.526,0.467,0.743,0.732
		c0.217,0.268,0.4,0.545,0.551,0.837c0.15,0.291,0.265,0.59,0.342,0.897c0.078,0.307,0.117,0.609,0.117,0.91
		c0,0.379-0.062,0.739-0.185,1.084c-0.124,0.345-0.312,0.647-0.565,0.912c-0.253,0.266-0.571,0.477-0.954,0.633
		C225.949,85.268,225.495,85.345,224.97,85.345z"/>
	<path fill="#4F4F4F" d="M235.429,72.973c0.547,0,1.014,0.079,1.401,0.238c0.387,0.159,0.704,0.391,0.95,0.689
		c0.246,0.301,0.426,0.668,0.54,1.102c0.114,0.434,0.171,0.923,0.171,1.471c0,0.547-0.078,1.014-0.232,1.4
		c-0.154,0.387-0.369,0.704-0.643,0.95c-0.274,0.245-0.597,0.426-0.971,0.54c-0.374,0.113-0.779,0.171-1.217,0.171h-1.312v5.688
		h-1.75v-12.25H235.429z M234.554,78.223c0.438,0,0.797-0.029,1.08-0.09c0.283-0.06,0.506-0.156,0.67-0.294
		c0.164-0.137,0.278-0.315,0.342-0.54c0.064-0.224,0.096-0.499,0.096-0.826c0-0.328-0.011-0.628-0.034-0.896
		c-0.023-0.27-0.103-0.499-0.239-0.69c-0.136-0.19-0.353-0.34-0.649-0.444c-0.296-0.104-0.718-0.156-1.265-0.156h-0.438v3.938
		H234.554L234.554,78.223z"/>
	<path fill="#4F4F4F" d="M246.542,79.535h-2.188v4.375h3.062v1.312h-4.812v-12.25h4.812v1.312h-3.062v3.938h2.188V79.535z"/>
	<path fill="#4F4F4F" d="M258.311,80.848v0.438c0,0.547-0.059,1.066-0.178,1.559c-0.119,0.493-0.314,0.924-0.588,1.292
		c-0.274,0.369-0.633,0.663-1.08,0.882c-0.447,0.22-0.998,0.328-1.654,0.328c-0.656,0-1.208-0.111-1.654-0.335
		c-0.446-0.224-0.807-0.534-1.08-0.933c-0.273-0.399-0.469-0.874-0.588-1.426c-0.119-0.553-0.178-1.155-0.178-1.812v-3.492
		c0-0.656,0.059-1.261,0.178-1.812c0.119-0.553,0.314-1.025,0.588-1.422c0.274-0.397,0.633-0.706,1.08-0.93
		c0.447-0.225,0.998-0.336,1.654-0.336c0.62,0,1.152,0.101,1.596,0.297c0.444,0.199,0.807,0.477,1.087,0.832
		c0.28,0.354,0.486,0.781,0.619,1.281c0.132,0.498,0.198,1.049,0.198,1.65h-1.75c0-0.438-0.03-0.82-0.089-1.148
		c-0.059-0.328-0.157-0.602-0.294-0.82c-0.137-0.217-0.317-0.383-0.54-0.491c-0.223-0.109-0.499-0.164-0.827-0.164
		s-0.604,0.055-0.827,0.164c-0.223,0.108-0.403,0.272-0.54,0.491c-0.137,0.22-0.235,0.492-0.294,0.82s-0.089,0.711-0.089,1.148
		v4.375c0,0.328,0.03,0.648,0.089,0.964s0.157,0.595,0.294,0.841c0.137,0.246,0.317,0.444,0.54,0.596
		c0.223,0.15,0.499,0.226,0.827,0.226s0.604-0.075,0.827-0.226c0.223-0.151,0.403-0.35,0.54-0.596
		c0.137-0.246,0.235-0.525,0.294-0.841c0.059-0.315,0.089-0.636,0.089-0.964v-0.438h1.75V80.848z"/>
	<path fill="#4F4F4F" d="M262.642,72.973h1.75v12.25h-1.75V72.973z"/>
	<path fill="#4F4F4F" d="M270.866,82.16l-0.614,3.062h-1.748l2.564-12.25h1.808l2.627,12.25h-1.685l-0.658-3.062H270.866z
		 M272.879,80.848l-0.875-5.25l-0.875,5.25H272.879z"/>
	<path fill="#4F4F4F" d="M279.617,85.223v-12.25h1.75V83.91h3.062v1.312H279.617z"/>
	<path fill="#4F4F4F" d="M295.014,85.223v-12.25h2.625c0.655,0,1.207,0.06,1.653,0.178c0.446,0.117,0.808,0.313,1.08,0.588
		c0.272,0.273,0.47,0.634,0.588,1.08c0.118,0.445,0.179,0.998,0.179,1.654v4.812c0,0.655-0.061,1.229-0.179,1.723
		s-0.313,0.902-0.588,1.23c-0.274,0.327-0.636,0.573-1.084,0.737s-1.003,0.246-1.664,0.246h-2.61V85.223z M297.639,83.91
		c0.438,0,0.773-0.057,1.012-0.171s0.41-0.294,0.52-0.54s0.173-0.562,0.191-0.95c0.018-0.388,0.027-0.854,0.027-1.401V76.91
		c0-0.438-0.01-0.82-0.027-1.148c-0.019-0.328-0.084-0.602-0.195-0.82s-0.288-0.383-0.529-0.491
		c-0.24-0.109-0.586-0.164-1.031-0.164h-0.842v9.625L297.639,83.91L297.639,83.91z"/>
	<path fill="#4F4F4F" d="M309.407,79.535h-2.188v4.375h3.062v1.312h-4.812v-12.25h4.812v1.312h-3.062v3.938h2.188V79.535z"/>
	<path fill="#4F4F4F" d="M316.318,82.16l-0.613,3.062h-1.748l2.564-12.25h1.808l2.628,12.25h-1.686l-0.658-3.062H316.318z
		 M318.332,80.848l-0.875-5.25l-0.875,5.25H318.332z"/>
	<path fill="#4F4F4F" d="M325.068,85.223v-12.25h1.75V83.91h3.062v1.312H325.068z"/>
	<path fill="#4F4F4F" d="M345.277,74.285h-3.062v3.938h2.188v1.312h-2.188v5.688h-1.75v-12.25h4.812V74.285z"/>
	<path fill="#4F4F4F" d="M356.171,81.285c0,0.547-0.058,1.066-0.171,1.559c-0.113,0.493-0.307,0.924-0.574,1.292
		c-0.268,0.369-0.628,0.663-1.076,0.882c-0.449,0.22-1.009,0.328-1.679,0.328c-0.456,0-0.858-0.05-1.21-0.149
		c-0.352-0.101-0.654-0.239-0.913-0.417c-0.257-0.178-0.476-0.393-0.651-0.644c-0.178-0.251-0.32-0.526-0.429-0.827
		c-0.106-0.301-0.183-0.621-0.229-0.964c-0.045-0.342-0.067-0.694-0.067-1.06V76.91c0-0.364,0.022-0.719,0.067-1.061
		c0.047-0.342,0.123-0.662,0.229-0.964c0.107-0.301,0.25-0.575,0.429-0.827c0.178-0.25,0.396-0.465,0.651-0.643
		c0.259-0.178,0.562-0.316,0.913-0.417s0.754-0.149,1.21-0.149c0.67,0,1.229,0.108,1.679,0.327c0.448,0.22,0.809,0.513,1.076,0.882
		s0.461,0.801,0.574,1.293c0.113,0.491,0.171,1.012,0.171,1.559V81.285z M350.921,81.723c0,0.327,0.029,0.627,0.089,0.896
		c0.061,0.269,0.157,0.499,0.295,0.69c0.137,0.19,0.315,0.34,0.539,0.443c0.225,0.104,0.499,0.157,0.827,0.157
		s0.604-0.054,0.827-0.157s0.402-0.253,0.54-0.443c0.137-0.191,0.233-0.423,0.294-0.69c0.061-0.269,0.089-0.567,0.089-0.896v-5.25
		c0-0.328-0.028-0.628-0.089-0.896c-0.061-0.27-0.157-0.499-0.294-0.69c-0.138-0.19-0.315-0.34-0.54-0.444
		c-0.225-0.104-0.499-0.156-0.827-0.156s-0.604,0.053-0.827,0.156c-0.223,0.104-0.402,0.254-0.539,0.444
		c-0.138,0.191-0.234,0.423-0.295,0.69c-0.06,0.268-0.089,0.566-0.089,0.896V81.723z"/>
	<path fill="#4F4F4F" d="M365.398,85.223l-1.834-5.688h-1.312v5.688h-1.75v-12.25h2.188c0.766,0,1.4,0.077,1.906,0.235
		c0.506,0.156,0.909,0.379,1.211,0.666c0.301,0.287,0.512,0.633,0.635,1.035c0.123,0.403,0.186,0.852,0.186,1.344
		c0,0.301-0.021,0.572-0.064,0.813c-0.043,0.242-0.103,0.457-0.176,0.646c-0.072,0.189-0.154,0.355-0.246,0.5
		s-0.186,0.266-0.281,0.365c-0.225,0.242-0.479,0.415-0.769,0.521l1.974,6.123H365.398z M362.252,78.223h0.438
		c0.328,0,0.627-0.031,0.896-0.093s0.499-0.168,0.689-0.317c0.191-0.15,0.341-0.353,0.445-0.605c0.104-0.252,0.156-0.57,0.156-0.953
		s-0.053-0.701-0.156-0.953c-0.104-0.254-0.254-0.455-0.445-0.604c-0.19-0.15-0.422-0.257-0.689-0.318
		c-0.27-0.062-0.566-0.092-0.896-0.092h-0.438V78.223z"/>
	<path fill="#4F4F4F" d="M379.835,85.223v-3.938l-2.625-8.312h1.75l1.753,6.125l1.747-6.125h1.562l-2.438,8.312v3.938H379.835z"/>
	<path fill="#4F4F4F" d="M395.105,81.285c0,0.547-0.058,1.066-0.172,1.559c-0.113,0.493-0.306,0.924-0.574,1.292
		c-0.268,0.369-0.627,0.663-1.076,0.882c-0.448,0.22-1.008,0.328-1.678,0.328c-0.457,0-0.859-0.05-1.211-0.149
		c-0.351-0.101-0.654-0.239-0.912-0.417s-0.476-0.393-0.652-0.644c-0.178-0.251-0.32-0.526-0.428-0.827
		c-0.106-0.301-0.184-0.621-0.229-0.964c-0.046-0.342-0.067-0.694-0.067-1.06V76.91c0-0.364,0.021-0.719,0.067-1.061
		s0.122-0.662,0.229-0.964c0.106-0.301,0.25-0.575,0.428-0.827c0.178-0.25,0.396-0.465,0.652-0.643
		c0.258-0.178,0.562-0.316,0.912-0.417c0.352-0.101,0.754-0.149,1.211-0.149c0.67,0,1.229,0.108,1.678,0.327
		c0.449,0.22,0.809,0.513,1.076,0.882c0.269,0.369,0.461,0.801,0.574,1.293c0.114,0.491,0.172,1.012,0.172,1.559V81.285z
		 M389.855,81.723c0,0.327,0.028,0.627,0.088,0.896c0.061,0.269,0.158,0.499,0.295,0.69c0.137,0.19,0.316,0.34,0.539,0.443
		c0.225,0.104,0.5,0.157,0.828,0.157s0.604-0.054,0.826-0.157s0.403-0.253,0.541-0.443c0.137-0.191,0.233-0.423,0.293-0.69
		c0.061-0.269,0.09-0.567,0.09-0.896v-5.25c0-0.328-0.029-0.628-0.09-0.896c-0.06-0.27-0.156-0.499-0.293-0.69
		c-0.138-0.19-0.316-0.34-0.541-0.444c-0.224-0.104-0.498-0.156-0.826-0.156s-0.604,0.053-0.828,0.156
		c-0.223,0.104-0.402,0.254-0.539,0.444c-0.137,0.191-0.234,0.423-0.295,0.69c-0.06,0.268-0.088,0.566-0.088,0.896V81.723z"/>
	<path fill="#4F4F4F" d="M402.936,85.352c-0.511,0-0.951-0.061-1.322-0.181c-0.371-0.121-0.688-0.287-0.946-0.5
		c-0.26-0.211-0.47-0.462-0.629-0.752c-0.159-0.289-0.283-0.601-0.373-0.933c-0.088-0.334-0.147-0.683-0.181-1.047
		c-0.033-0.363-0.049-0.729-0.049-1.094v-7.875h1.75v7.881c0,0.219,0.002,0.446,0.008,0.684c0.005,0.236,0.023,0.469,0.058,0.693
		c0.035,0.228,0.086,0.441,0.153,0.646c0.068,0.206,0.169,0.385,0.298,0.537c0.131,0.152,0.296,0.273,0.496,0.365
		s0.446,0.138,0.737,0.138c0.293,0,0.539-0.046,0.738-0.138c0.2-0.092,0.365-0.213,0.496-0.365c0.129-0.152,0.229-0.331,0.297-0.537
		c0.068-0.205,0.119-0.42,0.154-0.646c0.033-0.226,0.053-0.457,0.059-0.693c0.004-0.236,0.006-0.465,0.006-0.684v-7.881h1.75v7.875
		c0,0.364-0.016,0.729-0.047,1.094c-0.033,0.365-0.094,0.713-0.182,1.047c-0.09,0.332-0.214,0.644-0.373,0.933
		c-0.158,0.29-0.369,0.541-0.629,0.752c-0.26,0.213-0.575,0.379-0.947,0.5C403.887,85.292,403.447,85.352,402.936,85.352z"/>
	<path fill="#4F4F4F" d="M410.548,83.473h1.75v1.75h-1.75V83.473z"/>
</g>
<g>
	<path fill="#4F4F4F" d="M49.28,107.132h-0.431l-2.386-6.903l-2.229,6.903h-0.431L40.645,96.98h1.422l2.01,6.994l2.201-6.994h0.479
		l2.174,6.979l2.044-6.979h1.422L49.28,107.132z"/>
	<path fill="#4F4F4F" d="M58.668,106.996l-0.69-2.112h-3.726l-0.738,2.112h-1.531l4.067-10.151h0.362l3.773,10.151H58.668z
		 M56.167,99.469l-1.552,4.409h2.974L56.167,99.469z"/>
	<path fill="#4F4F4F" d="M68.412,107.132l-5.175-7.321v7.186h-1.299V96.98h0.547l5.038,6.926V96.98h1.299v10.151H68.412z"/>
	<path fill="#4F4F4F" d="M75.224,98.211v8.784h-1.367v-8.784h-3.186v-1.23h7.882v1.23H75.224z"/>
	<path fill="#4F4F4F" d="M88.463,98.211v8.784h-1.367v-8.784H83.91v-1.23h7.882v1.23H88.463z"/>
	<path fill="#4F4F4F" d="M92.39,101.902c0-1.448,0.363-2.66,1.09-3.637c0.727-0.976,1.708-1.463,2.943-1.463
		c1.39,0,2.455,0.449,3.196,1.348c0.741,0.897,1.111,2.147,1.111,3.752c0,1.646-0.372,2.935-1.114,3.867
		c-0.743,0.932-1.807,1.396-3.192,1.396c-1.262,0-2.25-0.492-2.963-1.477C92.748,104.704,92.39,103.443,92.39,101.902z
		 M93.826,101.902c0,1.148,0.227,2.107,0.68,2.879c0.453,0.771,1.093,1.154,1.917,1.154c0.934,0,1.646-0.354,2.136-1.06
		c0.49-0.706,0.735-1.697,0.735-2.974c0-2.579-0.957-3.869-2.871-3.869c-0.848,0-1.493,0.347-1.935,1.039
		C94.046,99.764,93.826,100.708,93.826,101.902z"/>
	<path fill="#4F4F4F" d="M113.443,106.996l-2.823-4.607l-1.333,1.895v2.714h-1.367V96.98h1.367v5.448l3.719-5.448h1.524
		l-2.994,4.342l3.418,5.674H113.443z"/>
	<path fill="#4F4F4F" d="M123.153,107.132l-5.175-7.321v7.186h-1.299V96.98h0.547l5.038,6.926V96.98h1.299v10.151H123.153z"/>
	<path fill="#4F4F4F" d="M125.835,101.902c0-1.448,0.363-2.66,1.09-3.637c0.727-0.976,1.708-1.463,2.943-1.463
		c1.39,0,2.455,0.449,3.196,1.348c0.741,0.897,1.111,2.147,1.111,3.752c0,1.646-0.372,2.935-1.114,3.867
		c-0.743,0.932-1.807,1.396-3.192,1.396c-1.262,0-2.25-0.492-2.963-1.477C126.193,104.704,125.835,103.443,125.835,101.902z
		 M127.271,101.902c0,1.148,0.227,2.107,0.68,2.879c0.453,0.771,1.093,1.154,1.917,1.154c0.934,0,1.646-0.354,2.136-1.06
		c0.49-0.706,0.735-1.697,0.735-2.974c0-2.579-0.957-3.869-2.871-3.869c-0.848,0-1.493,0.347-1.935,1.039
		C127.491,99.764,127.271,100.708,127.271,101.902z"/>
	<path fill="#4F4F4F" d="M144.145,107.132h-0.431l-2.386-6.903l-2.229,6.903h-0.431L135.51,96.98h1.422l2.01,6.994l2.201-6.994
		h0.479l2.174,6.979l2.044-6.979h1.422L144.145,107.132z"/>
	<path fill="#4F4F4F" d="M161.534,106.996l-1.189-6.434l-2.188,6.569h-0.342l-2.249-6.569l-1.162,6.434h-1.299l1.873-10.016h0.622
		l2.386,7.309l2.201-7.309h0.615l2.03,10.016H161.534z"/>
	<path fill="#4F4F4F" d="M164.148,101.902c0-1.448,0.363-2.66,1.09-3.637c0.727-0.976,1.708-1.463,2.943-1.463
		c1.39,0,2.455,0.449,3.196,1.348c0.741,0.897,1.111,2.147,1.111,3.752c0,1.646-0.372,2.935-1.114,3.867
		c-0.743,0.932-1.807,1.396-3.192,1.396c-1.262,0-2.25-0.492-2.963-1.477C164.506,104.704,164.148,103.443,164.148,101.902z
		 M165.583,101.902c0,1.148,0.227,2.107,0.68,2.879c0.453,0.771,1.093,1.154,1.917,1.154c0.934,0,1.646-0.354,2.136-1.06
		c0.49-0.706,0.735-1.697,0.735-2.974c0-2.579-0.957-3.869-2.871-3.869c-0.848,0-1.493,0.347-1.935,1.039
		C165.803,99.764,165.583,100.708,165.583,101.902z"/>
	<path fill="#4F4F4F" d="M180.318,106.996l-2.673-4.3c-0.305,0-0.789-0.022-1.449-0.068v4.368h-1.367V96.98
		c0.05,0,0.404-0.017,1.063-0.052c0.659-0.032,1.138-0.051,1.439-0.051c2.406,0,3.609,0.957,3.609,2.871
		c0,0.629-0.194,1.194-0.581,1.699c-0.387,0.503-0.848,0.815-1.381,0.938l2.905,4.607h-1.565V106.996z M176.196,98.211v3.254
		c0.328,0.046,0.647,0.068,0.957,0.068c0.82,0,1.417-0.133,1.791-0.396s0.561-0.736,0.561-1.414c0-0.562-0.201-0.965-0.602-1.211
		c-0.401-0.246-1.035-0.369-1.9-0.369C176.866,98.143,176.597,98.166,176.196,98.211z"/>
	<path fill="#4F4F4F" d="M184.976,98.211v2.782h3.309v1.162h-3.309v3.608h4.539v1.23h-5.906V96.98h5.981v1.23H184.976
		L184.976,98.211z"/>
	<path fill="#4F4F4F" d="M193.284,104.062h-0.902c-0.155-0.433-0.232-0.744-0.232-0.937c0-0.328,0.061-0.663,0.181-1.005
		s0.394-0.751,0.82-1.229c0.426-0.476,0.712-0.842,0.858-1.097s0.219-0.504,0.219-0.745c0-0.802-0.485-1.203-1.456-1.203
		c-0.465,0-0.871,0.166-1.217,0.5l-0.499-0.979c0.46-0.378,1.146-0.567,2.058-0.567c0.684,0,1.252,0.193,1.706,0.581
		c0.454,0.389,0.68,0.904,0.68,1.553c0,0.328-0.058,0.644-0.174,0.945c-0.116,0.305-0.295,0.583-0.537,0.838l-0.998,1.066
		c-0.401,0.492-0.602,1.044-0.602,1.654C193.188,103.537,193.22,103.744,193.284,104.062z M192.997,105.075
		c0.283,0,0.524,0.101,0.725,0.301c0.201,0.2,0.301,0.442,0.301,0.726c0,0.282-0.1,0.524-0.301,0.728
		c-0.201,0.203-0.442,0.305-0.725,0.305c-0.283,0-0.524-0.102-0.725-0.305c-0.201-0.202-0.301-0.445-0.301-0.728
		c0-0.283,0.1-0.524,0.301-0.726S192.714,105.075,192.997,105.075z"/>
	<path fill="#4F4F4F" d="M208.958,97.35l-0.458,1.17c-0.438-0.319-1.125-0.479-2.064-0.479c-0.879,0-1.585,0.378-2.116,1.135
		c-0.531,0.757-0.796,1.731-0.796,2.927c0,1.14,0.272,2.062,0.817,2.771c0.544,0.709,1.248,1.063,2.109,1.063
		c0.939,0,1.661-0.334,2.167-0.998l0.752,1.045c-0.793,0.789-1.814,1.184-3.062,1.184c-1.308,0-2.338-0.473-3.09-1.415
		c-0.752-0.942-1.128-2.188-1.128-3.731c0-1.496,0.401-2.736,1.203-3.727c0.802-0.99,1.839-1.482,3.11-1.482
		C207.49,96.811,208.342,96.99,208.958,97.35z"/>
	<path fill="#4F4F4F" d="M217.382,106.996v-4.84h-4.375v4.84h-1.367V96.98h1.367v4.014h4.375V96.98h1.367v10.016H217.382z"/>
	<path fill="#4F4F4F" d="M222.868,98.211v2.782h3.309v1.162h-3.309v3.608h4.539v1.23H221.5V96.98h5.981v1.23H222.868L222.868,98.211
		z"/>
	<path fill="#4F4F4F" d="M236.091,97.35l-0.458,1.17c-0.438-0.319-1.125-0.479-2.064-0.479c-0.879,0-1.585,0.378-2.116,1.135
		c-0.531,0.757-0.796,1.731-0.796,2.927c0,1.14,0.272,2.062,0.817,2.771c0.544,0.709,1.248,1.063,2.109,1.063
		c0.939,0,1.661-0.334,2.167-0.998l0.752,1.045c-0.793,0.789-1.814,1.184-3.062,1.184c-1.308,0-2.338-0.473-3.09-1.415
		s-1.128-2.188-1.128-3.731c0-1.496,0.401-2.736,1.203-3.727c0.802-0.99,1.839-1.482,3.11-1.482
		C234.624,96.811,235.476,96.99,236.091,97.35z"/>
	<path fill="#4F4F4F" d="M244.297,106.996l-2.824-4.607l-1.333,1.895v2.714h-1.367V96.98h1.367v5.448l3.719-5.448h1.523
		l-2.994,4.342l3.418,5.674H244.297z"/>
	<path fill="#4F4F4F" d="M251.972,101.902c0-1.448,0.363-2.66,1.09-3.637c0.728-0.976,1.708-1.463,2.943-1.463
		c1.39,0,2.455,0.449,3.195,1.348c0.741,0.896,1.111,2.147,1.111,3.752c0,1.646-0.371,2.935-1.114,3.867
		c-0.743,0.932-1.807,1.396-3.192,1.396c-1.263,0-2.25-0.492-2.963-1.477C252.329,104.706,251.972,103.443,251.972,101.902z
		 M253.408,101.902c0,1.148,0.227,2.107,0.68,2.879c0.454,0.771,1.093,1.154,1.918,1.154c0.935,0,1.646-0.354,2.137-1.06
		c0.489-0.706,0.734-1.697,0.734-2.974c0-2.579-0.957-3.869-2.871-3.869c-0.848,0-1.492,0.347-1.935,1.039
		C253.628,99.764,253.408,100.708,253.408,101.902z"/>
	<path fill="#4F4F4F" d="M262.584,96.98h1.367v6.856c0,0.61,0.193,1.113,0.581,1.508c0.388,0.395,0.9,0.591,1.538,0.591
		c0.675,0,1.205-0.19,1.593-0.573c0.388-0.384,0.581-0.902,0.581-1.56V96.98h1.367v6.967c0,1.012-0.315,1.801-0.947,2.369
		c-0.631,0.565-1.491,0.851-2.58,0.851c-1.121,0-1.984-0.278-2.591-0.834s-0.909-1.354-0.909-2.394V96.98z"/>
	<path fill="#4F4F4F" d="M276.013,98.211v8.784h-1.367v-8.784h-3.186v-1.23h7.882v1.23H276.013z"/>
	<path fill="#4F4F4F" d="M289.252,98.211v8.784h-1.367v-8.784H284.7v-1.23h7.882v1.23H289.252z"/>
	<path fill="#4F4F4F" d="M300.172,106.996v-4.84h-4.375v4.84h-1.367V96.98h1.367v4.014h4.375V96.98h1.367v10.016H300.172z"/>
	<path fill="#4F4F4F" d="M305.658,98.211v2.782h3.309v1.162h-3.309v3.608h4.539v1.23h-5.906V96.98h5.98v1.23H305.658L305.658,98.211
		z"/>
	<path fill="#4F4F4F" d="M312.039,106.538l0.499-1.258c0.255,0.187,0.573,0.343,0.954,0.468c0.38,0.126,0.721,0.188,1.021,0.188
		c0.532,0,0.961-0.146,1.284-0.438s0.485-0.663,0.485-1.114c0-0.337-0.09-0.649-0.271-0.938c-0.18-0.29-0.632-0.605-1.355-0.947
		l-0.807-0.376c-0.685-0.319-1.162-0.697-1.434-1.135c-0.271-0.438-0.406-0.964-0.406-1.579c0-0.747,0.266-1.367,0.793-1.859
		c0.528-0.492,1.209-0.738,2.037-0.738c1.107,0,1.878,0.181,2.311,0.541l-0.402,1.188c-0.184-0.132-0.46-0.26-0.834-0.383
		s-0.721-0.185-1.039-0.185c-0.465,0-0.831,0.131-1.098,0.396c-0.268,0.265-0.399,0.604-0.399,1.019
		c0,0.256,0.048,0.487,0.144,0.697c0.097,0.21,0.229,0.385,0.399,0.525c0.172,0.143,0.521,0.341,1.05,0.596l0.82,0.39
		c0.684,0.323,1.163,0.71,1.438,1.158c0.276,0.449,0.414,1.021,0.414,1.713c0,0.752-0.302,1.39-0.906,1.914
		c-0.604,0.524-1.41,0.786-2.422,0.786C313.426,107.167,312.667,106.957,312.039,106.538z"/>
	<path fill="#4F4F4F" d="M321.29,98.211v2.782h3.31v1.162h-3.31v3.608h4.539v1.23h-5.906V96.98h5.981v1.23H321.29L321.29,98.211z"/>
	<path fill="#4F4F4F" d="M334.407,98.211v2.782h3.309v1.162h-3.309v3.608h4.538v1.23h-5.905V96.98h5.981v1.23H334.407
		L334.407,98.211z"/>
	<path fill="#4F4F4F" d="M344.725,107.132h-0.689l-3.732-10.151h1.518l2.578,7.377l2.48-7.377h1.471L344.725,107.132z"/>
	<path fill="#4F4F4F" d="M351.529,98.211v2.782h3.31v1.162h-3.31v3.608h4.539v1.23h-5.905V96.98h5.981v1.23H351.529L351.529,98.211z
		"/>
	<path fill="#4F4F4F" d="M364.834,107.132l-5.175-7.321v7.186h-1.3V96.98h0.548l5.038,6.926V96.98h1.299v10.151H364.834z"/>
	<path fill="#4F4F4F" d="M371.646,98.211v8.784h-1.367v-8.784h-3.187v-1.23h7.882v1.23H371.646z"/>
	<path fill="#4F4F4F" d="M376.373,106.538l0.499-1.258c0.255,0.187,0.573,0.343,0.954,0.468c0.38,0.126,0.721,0.188,1.021,0.188
		c0.532,0,0.961-0.146,1.284-0.438s0.485-0.663,0.485-1.114c0-0.337-0.09-0.649-0.271-0.938c-0.18-0.29-0.632-0.605-1.355-0.947
		l-0.807-0.376c-0.685-0.319-1.162-0.697-1.434-1.135c-0.271-0.438-0.406-0.964-0.406-1.579c0-0.747,0.266-1.367,0.793-1.859
		c0.528-0.492,1.209-0.738,2.037-0.738c1.107,0,1.878,0.181,2.311,0.541l-0.402,1.188c-0.184-0.132-0.46-0.26-0.834-0.383
		s-0.721-0.185-1.039-0.185c-0.465,0-0.831,0.131-1.098,0.396c-0.268,0.265-0.399,0.604-0.399,1.019
		c0,0.256,0.048,0.487,0.144,0.697c0.097,0.21,0.229,0.385,0.399,0.525c0.172,0.143,0.521,0.341,1.05,0.596l0.82,0.39
		c0.684,0.323,1.163,0.71,1.438,1.158c0.276,0.449,0.414,1.021,0.414,1.713c0,0.752-0.302,1.39-0.906,1.914
		c-0.604,0.524-1.41,0.786-2.422,0.786C377.76,107.167,377.001,106.957,376.373,106.538z"/>
</g>
</svg>
