<?xml version="1.0" encoding="utf-8"?>
<!-- Generator: Adobe Illustrator 16.2.1, SVG Export Plug-In . SVG Version: 6.00 Build 0)  -->
<!DOCTYPE svg PUBLIC "-//W3C//DTD SVG 1.1//EN" "http://www.w3.org/Graphics/SVG/1.1/DTD/svg11.dtd">
<svg version="1.1" id="Capa_1" xmlns="http://www.w3.org/2000/svg" xmlns:xlink="http://www.w3.org/1999/xlink" x="0px" y="0px"
	 width="94.327px" height="98.15px" viewBox="468.876 0 94.327 98.15" enable-background="new 468.876 0 94.327 98.15"
	 xml:space="preserve">
<g>
	<path fill="#DF9E3A" d="M516.04,96.65c-25.181,0-45.664-20.485-45.664-45.666c0-25.18,20.483-45.664,45.664-45.664
		c25.179,0,45.663,20.485,45.663,45.664C561.703,76.164,541.219,96.65,516.04,96.65z"/>
	<path d="M516.04,6.821c24.353,0,44.163,19.812,44.163,44.164S540.391,95.15,516.04,95.15c-24.353,0-44.164-19.812-44.164-44.166
		S491.688,6.821,516.04,6.821 M516.04,3.821c-26.048,0-47.164,21.116-47.164,47.164c0,26.049,21.116,47.166,47.164,47.166
		s47.163-21.115,47.163-47.166C563.203,24.938,542.087,3.821,516.04,3.821L516.04,3.821z"/>
</g>
<g>
	<g>
		<path fill="#B59353" d="M530.195,58.215c-0.201-1.143-3.877-1.65-8.299-1.65c-7.096,0-16.105,1.309-15.721,3.396
			c0.092,15.609-3.605,31.423-3.605,31.423s8.447,3.091,17.027,3.091c3.735,0,7.498-0.584,10.598-2.27
			C529.785,88.816,528.143,70.641,530.195,58.215z"/>
		<polygon fill="#B59353" points="521.898,56.564 521.898,55.934 521.898,55.934 		"/>
	</g>
	<polygon fill="#B0B4B7" points="511.146,66.012 509.438,93.289 502.425,92.105 506.02,64.592 	"/>
	<path fill="#31738B" d="M506.12,64.012c2.041,1.86,5.026,2,5.026,2l0.859,0.703l8.432-0.67c0,0,1.781,0.778,1.91,2.805
		c0.81-0.588,0-3.107,0-3.107l1.266-0.35c0,0,1.145,2.715,4.201,2.563c-0.604,4.849-4.039,26.245-4.039,26.245l6.867-1.505
		l-0.41-26.685l-6.838-2.504l-16.789-0.906C506.605,62.602,506.279,62.929,506.12,64.012z"/>
	<g>
		<path d="M531.553,92.908L531.553,92.908l-0.105-0.854c-0.021-0.192-2.254-20.043-0.006-33.633l0.033-0.212l-0.037-0.211
			c-0.219-1.255-1.502-2.695-9.541-2.695v1.264v-1.264c-3.289,0-6.857,0.271-9.789,0.743c-5.389,0.867-6.371,2.046-6.691,2.435
			c-0.389,0.468-0.564,1.021-0.502,1.573c0.064,13.035-2.562,26.343-3.352,30.041l-0.017-0.003l-0.21,1.024l-0.25,1.073l0.029,0.01
			 M502.59,91.304v-0.002c0.03-0.131,0.096-0.42,0.188-0.854c0.006-0.027,0.014-0.058,0.02-0.086
			c0.012-0.048,0.02-0.095,0.031-0.146c0.006-0.029,0.012-0.058,0.02-0.089h-0.002c0.856-4.032,3.406-17.171,3.33-30.168
			c-0.386-2.088,8.625-3.396,15.721-3.396c4.422,0,8.098,0.507,8.299,1.649c-1.866,11.304-0.678,27.362-0.139,32.726
			c0,0,0,0.004,0,0.006c0.014,0.119,0.025,0.231,0.037,0.34c0.002,0.019,0.004,0.037,0.006,0.057
			c0.012,0.107,0.021,0.21,0.032,0.309c0.001,0.012,0.001,0.021,0.003,0.031c0.01,0.086,0.02,0.162,0.026,0.236
			c0.003,0.021,0.005,0.044,0.009,0.064c0.009,0.08,0.018,0.154,0.025,0.223c-3.1,1.686-6.862,2.27-10.6,2.27
			c-8.578,0-17.025-3.091-17.025-3.091S502.578,91.355,502.59,91.304z M502.316,92.635c1.301,0.458,9.158,3.104,17.281,3.104
			c4.254,0,7.869-0.74,10.76-2.195"/>
	</g>
	<path d="M523.109,62.839l-0.672,3.086c0,0,2.117,2.009-0.197,3.259c0.857-2.354-0.867-3.287-0.867-3.287l0.729-3.059
		L523.109,62.839L523.109,62.839z"/>
	<g>
		<path d="M556.574,59.923c-0.717-2.246-3.266-3.815-6.198-3.815c-1.879,0-3.629,0.654-5.005,1.838
			c-1.35-0.867-2.702-1.083-3.707-1.083c-1.178,0-2.123,0.286-2.707,0.526c-0.225,0.092-0.432,0.189-0.62,0.295
			c-0.438-0.09-0.868-0.117-1.226-0.117c-2.189,0-4.318,0.903-5.688,2.414c-0.733,0.808-1.54,2.11-1.735,4.039
			c-1.698,0.267-3.133,1.117-4.107,2.465c-0.691,0.955-1.141,2.138-1.296,3.418c-0.039,0.315-0.058,0.636-0.06,0.953
			c-1.203-0.056-2.42-0.084-3.644-0.084c-5.239-0.002-10.144,0.506-14.621,1.508c1.25-2.61,3.222-5.415,4.106-6.562l0.131-0.164
			l0.085-0.193c0.024-0.053,0.241-0.543,0.394-1.145c0.286-1.12,0.199-2.047-0.257-2.751c-0.452-0.7-1.226-1.1-2.118-1.1l0,0
			c-0.884,0-2.337,0.325-5.753,2.866l-0.09,0.065l-0.082,0.079c-4.101,3.958-6.978,8.193-8.548,12.591
			c-1.088,3.046-1.311,5.552-1.305,7.124c-0.76,0.83-1.193,1.922-1.193,3.071c0,2.269,1.669,4.153,3.844,4.492
			c1.354,1.948,3.076,3.55,5.135,4.771c3.045,1.805,6.758,2.723,11.033,2.723c6.471,0,14.301-2.106,23.289-6.267
			c0.436,0.468,0.874,0.898,1.314,1.288c0.642,1.961,2.477,3.322,4.596,3.322c2.666,0,4.836-2.169,4.836-4.835
			c0-0.065-0.002-0.132-0.005-0.196c1.339-1.306,3.549-3.818,5.284-7.552c1.186-2.55,1.977-5.29,2.347-8.146
			c0.386-2.974,0.315-6.096-0.2-9.3c0.354-0.104,0.727-0.241,1.066-0.453C556.404,64.7,557.391,62.484,556.574,59.923z"/>
		<path fill="#B89656" d="M503.596,64.645c-11.138,10.746-9.184,20.125-9.184,20.125s4.104,22.666,41.23,4.689
			c19.932-9.966-6.449-16.414-6.449-16.414s-13.286-1.953-25.987,1.758c0.78-4.103,5.47-10.158,5.47-10.158
			S511.217,58.977,503.596,64.645z"/>
		<path fill="#31738B" d="M523.04,72.629c0,0-0.13,3.893,1.595,4.498c2.119,4.225,7.26,8.096,7.26,8.096l-3.74-9.49l-3.062-3.104
			H523.04z"/>
		<path d="M526.141,72.311l3.592,2.414l2.609,10.844c0,0-2.443-1.247-5.916-10.172c-1.791-1.047-1.791-3.086-1.791-3.086H526.141z"
			/>
		<path fill="#B89656" d="M531.441,65.717c-7.034-0.586-6.43,9.301-2.912,9.008c3.061,14.344,9.968,18.174,9.968,18.174l4.594-1.758
			c0,0,11.235-8.502,7.718-25.798c0.174-0.405,1.578-0.428,2.174-0.854c2.346-1.171,2.305-2.819,1.918-4.03
			c-0.885-2.773-6.551-4.04-9.368-0.1c-2.853-3.043-6.615-1.285-6.858-0.699C537.255,58.732,530.836,59.448,531.441,65.717z"/>
		<circle fill="#B89656" cx="540.539" cy="91.659" r="3.078"/>
		<path fill="#31738B" d="M532.896,60.984c1.705-1.553,1.525,6.199,1.525,6.199l-3.013-1.934
			C531.41,65.25,531.191,62.537,532.896,60.984z"/>
		<path d="M531.402,65.036c0,0,2.287,0.438,3.021,2.147c-0.22,0.463-1.095-0.153-2.079-0.637c-0.986-0.48-2.082-0.827-2.082-0.827
			L531.402,65.036z"/>
		<polygon points="546.158,58.845 546.779,61.809 545.531,60.359 		"/>
		<circle fill="#B89656" cx="495.875" cy="86.164" r="2.788"/>
		<path fill="#B0B4B7" d="M548.195,65.939c-2.391,1.146-5.225,3.465-5.225,3.465l-5.226,1.437
			C537.746,70.84,542.523,65.866,548.195,65.939z"/>
		<path d="M548.195,65.939c-5.104,1.054-10.449,4.9-10.449,4.9S542.041,65.419,548.195,65.939z"/>
		<path fill="#31738B" d="M531.41,75.855c0,0,2.408,7.873,7.556,10.738c-0.13,2.409,0.952,4.492,0.952,4.492
			s3.061,2.434,2.162,3.235c-0.9,0.805-4.381,0.456-4.334-1.942c-6.729-5.265-8.989-16.646-8.989-16.646h0.772L531.41,75.855z"/>
		<path fill="#31738B" d="M526.158,69.404l3.232,2.906l2.02,3.545c0,0-0.895,0.035-1.678-1.131
			C525.025,75.65,526.158,69.404,526.158,69.404z"/>
		<path d="M528.529,74.725h1.203c0,0,1.091,1.17,1.678,1.131c-0.439,0.789-1.881-0.123-1.881-0.123h-1.377L528.529,74.725z"/>
		<path fill="#31738B" d="M541.83,58.625c0.783,0.807-0.915,3.184-0.915,3.184l-1.583-2.718
			C539.332,59.091,540.652,58.451,541.83,58.625z"/>
		<path d="M538.672,58.595c0,0,1.868,0.576,2.491,3.53c-1.417-1.831-2.491-2.465-2.491-2.465V58.595z"/>
		<path fill="#31738B" d="M550.104,62.95l0.705,2.394c0,0,0.293-0.097,0.857-0.307c0.88-0.324,2.251-0.917,2.928-1.828
			C555.705,61.711,550.104,62.95,550.104,62.95z"/>
		<path fill="#B0B4B7" d="M546.779,61.809c0,0,0.85-3.289,4.115-3.921c-2.811-0.409-4.736,1.728-4.736,1.728L546.779,61.809z"/>
		<polygon fill="#B0B4B7" points="538.672,59.66 540.684,61.709 537.461,59.305 		"/>
		<path fill="#B0B4B7" d="M499.764,76.822c9.403-5.729,23.276-4.192,23.276-4.192v1.687
			C523.04,74.316,507.848,73.759,499.764,76.822z"/>
		<path fill="#31738B" d="M493.087,86.164c1.423,0.951,4.062,0,4.062,0s4.605,14.738,35.767,4.57
			c-29.416,13.771-36.756-1.781-36.756-1.781S493.129,88.829,493.087,86.164z"/>
		<path fill="#31738B" d="M509.066,63.28c-0.683-1.958-8.65,12.575-8.65,12.575l3.126-2.308c0,0,3.084-6.462,5.136-8.903
			C509.057,63.751,509.218,63.712,509.066,63.28z"/>
		<path d="M499.591,77.248c2.735-2.055,6.479-3.186,6.479-3.186l-2.529-0.515C503.542,73.548,500.275,75.096,499.591,77.248z"/>
	</g>
	<g>
		<g>
			<path fill="#8D1516" d="M505.424,64.537c-17.264-4.829-27.38-22.8-22.553-40.063C487.7,7.21,505.672-2.907,522.936,1.921
				c17.264,4.829,27.381,22.8,22.553,40.064C540.66,59.248,522.688,69.365,505.424,64.537z"/>
			<path d="M522.742,2.61c16.91,4.729,26.785,22.271,22.057,39.182c-4.729,16.909-22.271,26.785-39.181,22.056
				c-16.911-4.729-26.785-22.271-22.056-39.182C488.291,7.756,505.833-2.119,522.742,2.61 M523.128,1.231
				c-17.644-4.935-36.012,5.405-40.946,23.049c-4.934,17.643,5.406,36.011,23.049,40.944c17.645,4.936,36.012-5.406,40.945-23.049
				S540.771,6.166,523.128,1.231L523.128,1.231z"/>
			<path fill="#C9A9A9" d="M489.814,36.024c-3.346,3.968-3.187,9.269-2.508,10.961c-10.599-16.249-1.666-38.371,17.657-44.129
				C498.376,5.653,484.723,17.857,489.814,36.024z"/>
			<path d="M522.742,2.61c-0.58-0.163-1.16-0.306-1.741-0.434c15.792,4.505,24.972,21.024,20.511,36.98
				c-0.726,2.593-1.77,5.008-3.072,7.221c0.246,1.678,0.152,3.459-0.344,5.235c-1.73,6.183-7.66,9.93-13.246,8.368
				c-0.621-0.176-1.211-0.409-1.769-0.693c-5.716,2.146-12.124,2.57-18.438,0.805c-15.512-4.338-24.688-20.246-20.943-35.895
				c-0.047,0.156-0.092,0.312-0.137,0.467c-4.729,16.911,5.146,34.453,22.057,39.182C522.527,68.575,540.07,58.7,544.8,41.79
				C549.527,24.881,539.652,7.339,522.742,2.61z"/>
			<path d="M535.445,58.611c0,0-0.326,2.314-0.977,3.496c-5.81,4.568-13.072,4.937-16.328,5.242
				c-13.312,1.705-20.797-4.203-20.797-4.203l-0.158-1.656l-2-2.756c0,0,0.756-8.393,3.021-11.228
				c1.237-1.264,8.338,1.766,16.871,0.089c5.44-0.619,18.264,0.081,19.769,1.022c1.502,0.939,2.284,7.71,2.284,7.71L535.445,58.611z
				"/>
			<path fill="#F6B540" d="M514.148,47.69c0,0-9.181,0.892-14.392,0.63c-3.044,1.665-3.185,11.39-3.185,11.39
				s8.574,5.983,17.267,5.505c2.37-0.224,13.151-0.474,21.824-8.545c0.014-0.716,0.479-12.726-3.763-11.511
				C526.9,46.419,514.148,47.69,514.148,47.69z"/>
			<path fill="#B59353" d="M501.374,50.146c-3.274,2.43-3.841,10.264-2.749,11.642c2.645,2.399,6.164,4.008,9.637,4.599
				c1.877,2.831,5.967,4.264,9.903-0.072c8.015-1.18,14.95-4.567,15.788-6.595c1.008-2.409,1.521-12.241-2.822-14.136
				c-3.08-1.207-9.793,1.409-16.5,2.696C508.848,49.389,502.889,49.021,501.374,50.146z"/>
			<circle fill="#B59353" cx="530.627" cy="48.987" r="6.592"/>
			<path fill="#B0B4B7" d="M527.834,43.091c7.936-1.463,9.732,6.289,8.518,8.865C539.227,48.939,535.336,39.766,527.834,43.091z"/>
			<path fill="#F6B540" d="M537.747,33.729c0,0-1.161-2.801-4.228-4.813c2.172-2.197-0.733-5.474-3.188-3.862
				c0.336-1.748-0.935-3.075-2.036-3.228c-3.208-0.84-4.451,3.064-1.27,3.245c0.074,0.195,0.263,1.153-0.36,1.288
				c-7.712-0.384-12.364,4.941-12.364,4.941s1.625-11.631,5.73-16.198c-0.063,0.278-2.358,6.944-1.5,8.717
				c0.433,0.356,1.496,0.639,2.236,0.447c4.92-1.159,2.621-4.1,0.396-3.308c0.157-1.373,1.073-4.474,2.394-6.873
				c2.762,0.242,5.834-3.791,2.209-4.098c-2.365-0.189-6.746,0.412-6.746,0.412s-2.734,3.773-4.312,8.989
				c-0.183-4.824-1.685-7.896-1.685-7.896s-0.793-0.104-2.356,0.225c-3.843,0.458-6.595,4.402-2.358,4.643
				c0.42,1.237,0.477,5.204-0.24,6.121c-1.289-0.655-4.143,2.377-0.59,2.958c2.361,0.189,2.772-0.226,2.772-0.226l1.133-6.579
				c0,0,1.8,4.262,0.413,12.25c-1.059-1.062-3.979-4.245-10.082-5.151c-0.841-0.188-0.766-0.869-0.699-1.079
				c2.646-0.194,1.398-4.238-1.453-3.794c-2.127,0.339-3.668,2.019-2.641,4.808c-3.521-2.576-6.324,0.707-5.168,2.68
				c-3.773,2.54-4.684,5.999-4.684,5.999s1.445,4.529,8.597,6.352c-1.245,4.661,5.497,4.366,5.452,0.523
				c6.346,0.066,9.688-6.19,9.688-6.19s-0.742,2.016-1.381,3.751c0.523-0.276,2.885-0.914,5.02-0.246
				c-0.018-0.701-0.971-2.978-0.748-3.58c1.005,0.987,1.74,3.241,5.018,5.219c2.145,1.188,3.407,1.379,5.287,1.611
				c0.045,2.37,3.85,2.254,3.46-0.566C535.73,39.882,537.747,33.729,537.747,33.729z M490.75,34.67c0,0,4.148-6.497,10.779-5.354
				c2.314,0.398,6.008,1.799,7.929,4.835C501.182,44.364,490.75,34.67,490.75,34.67z M525.5,39.014
				c-5.159,0.047-8.768-4.739-8.768-4.739s2.973-3.699,7.678-4.276c2.902-0.356,6.939,0.677,9.93,3.896
				C532.583,37.234,528.13,38.988,525.5,39.014z"/>
			<path fill="#C9A9A9" d="M491.753,28.35c-2.655,3.332-3.707,7.722-3.707,7.722l-0.976-1.724
				C487.07,34.348,488.092,30.798,491.753,28.35z"/>
			<path fill="#C9A9A9" d="M519.02,10.399c0.451-0.089,1.406-0.168,1.406-0.168l-5.719,9.157
				C514.708,19.388,515.693,15.444,519.02,10.399z"/>
			<path fill="#C9A9A9" d="M510.667,11.718c-5.172,1.935-3.335,4.494-3.335,4.494S502.912,14.036,510.667,11.718z"/>
			<path d="M526.406,10.098c2.572,0.72-0.272,4.213-2.85,3.988c-1.318,2.399-2.234,5.5-2.394,6.873
				c0.471-0.167,0.944-0.168,1.353-0.054c1.522,0.427,2.133,2.449-1.746,3.362c-0.43,0.111-0.965,0.063-1.424-0.065
				c-0.338-0.094-0.632-0.232-0.812-0.382c-0.859-1.772,1.436-8.439,1.499-8.717c-4.104,4.567-5.729,16.198-5.729,16.198
				s4.651-5.325,12.363-4.941c0.623-0.134,0.436-1.092,0.359-1.288c-0.244-0.013-0.463-0.05-0.657-0.104
				c-2.32-0.649-1.033-3.917,1.928-3.141c0.076,0.011,0.154,0.027,0.233,0.049c1.037,0.29,2.115,1.552,1.803,3.178
				c0.68-0.447,1.395-0.518,2.023-0.341c1.649,0.461,2.733,2.614,1.164,4.203c3.065,2.012,4.228,4.813,4.228,4.813
				s-2.017,6.153-10.286,7.493c0.244,1.77-1.162,2.474-2.254,2.168c-0.65-0.181-1.188-0.72-1.206-1.603
				c-0.955-0.117-1.751-0.225-2.587-0.458c-0.805-0.226-1.646-0.569-2.7-1.153c-3.276-1.978-4.013-4.231-5.017-5.219
				c-0.223,0.603,0.729,2.879,0.746,3.58c-0.055-0.018-0.111-0.035-0.168-0.051c-2.09-0.583-4.34,0.026-4.851,0.296
				c0.638-1.735,1.38-3.751,1.38-3.751s-3.341,6.256-9.688,6.189c0.025,2.25-2.273,3.284-3.936,2.819
				c-1.176-0.33-2.033-1.41-1.517-3.342c-0.151-0.038-0.298-0.077-0.442-0.118c-6.769-1.893-8.152-6.234-8.152-6.234
				s0.908-3.459,4.683-5.999c-0.974-1.661,0.856-4.249,3.562-3.491c0.508,0.143,1.049,0.403,1.606,0.812
				c-1.026-2.789,0.513-4.469,2.64-4.808c0.404-0.063,0.774-0.037,1.107,0.057c2.02,0.564,2.62,3.571,0.348,3.737
				c-0.063,0.203-0.137,0.848,0.618,1.059c0.026,0.007,0.054,0.014,0.081,0.02c0.863,0.128,1.662,0.302,2.402,0.508
				c4.488,1.256,6.771,3.732,7.68,4.643c1.387-7.988-0.413-12.25-0.413-12.25l-1.133,6.579c0,0-0.411,0.415-2.772,0.226
				c-0.184-0.03-0.349-0.066-0.496-0.107c-2.658-0.744-0.336-3.265,0.938-2.908c0.051,0.013,0.102,0.033,0.148,0.058
				c0.717-0.917,0.66-4.884,0.24-6.121c-0.382-0.022-0.703-0.073-0.977-0.149c-2.758-0.771-0.162-4.078,3.335-4.494
				c1.563-0.33,2.356-0.225,2.356-0.225s1.502,3.071,1.685,7.896c1.577-5.216,4.312-8.989,4.312-8.989s4.381-0.601,6.746-0.412
				C526.008,10.008,526.221,10.046,526.406,10.098 M523.083,38.686c0.758,0.211,1.565,0.334,2.416,0.328
				c2.631-0.026,7.083-1.779,8.84-5.118c-1.715-1.849-3.776-2.978-5.772-3.535c-1.479-0.414-2.92-0.514-4.156-0.362
				c-4.705,0.577-7.678,4.276-7.678,4.276S519.249,37.613,523.083,38.686 M497.436,38.37c3.574,1,8.047,0.687,12.022-4.219
				c-1.599-2.528-4.427-3.921-6.665-4.548c-0.45-0.125-0.876-0.221-1.264-0.287c-6.631-1.143-10.779,5.354-10.779,5.354
				S493.566,37.288,497.436,38.37 M526.695,9.063L526.695,9.063c-0.252-0.071-0.536-0.121-0.842-0.146
				c-2.455-0.196-6.795,0.393-6.979,0.417l-0.455,0.063l-0.271,0.371c-0.082,0.115-1.514,2.109-2.912,5.188
				c-0.514-2.413-1.205-3.848-1.248-3.937l-0.254-0.518l-0.571-0.075c-0.099-0.012-1.007-0.115-2.673,0.229
				c-2.727,0.344-5.236,2.29-5.383,4.18c-0.088,1.145,0.637,2.045,1.936,2.409c0.123,0.035,0.252,0.064,0.387,0.09
				c0.17,1.154,0.146,3.037-0.05,3.995c-0.704,0.085-1.354,0.488-1.799,0.923c-0.728,0.71-1.037,1.611-0.832,2.412
				c0.062,0.234,0.173,0.502,0.379,0.761c-0.233-0.076-0.474-0.148-0.722-0.217c-0.473-0.133-0.959-0.249-1.454-0.349
				c0.321-0.366,0.526-0.833,0.579-1.371c0.138-1.379-0.786-3.105-2.573-3.605h-0.001c-0.498-0.139-1.023-0.168-1.561-0.083
				c-1.492,0.238-2.672,0.986-3.328,2.106c-0.264,0.451-0.508,1.082-0.543,1.896c-1.685-0.441-3.342,0.087-4.347,1.389
				c-0.64,0.831-0.885,1.837-0.708,2.756c-3.498,2.668-4.402,5.979-4.441,6.128l-0.078,0.301l0.095,0.297
				c0.062,0.195,1.571,4.703,8.397,6.798c-0.15,2.09,1.146,3.239,2.447,3.604c1.277,0.357,2.732,0.069,3.801-0.751
				c0.695-0.533,1.164-1.245,1.373-2.062c2.346-0.188,4.27-1.133,5.766-2.26l-0.381,1.038l2.475-1.308
				c0.344-0.178,2.311-0.702,4.059-0.212c0.047,0.012,0.094,0.026,0.14,0.04l1.429,0.447l-0.023-0.975
				c0.67,0.682,1.521,1.392,2.631,2.062l0.018,0.01l0.018,0.011c1.062,0.588,1.994,0.985,2.933,1.248
				c0.661,0.185,1.289,0.295,1.976,0.391c0.295,0.809,0.946,1.427,1.814,1.67c0.943,0.264,1.975,0.04,2.691-0.586
				c0.504-0.442,0.817-1.035,0.918-1.722c8.074-1.708,10.154-7.787,10.242-8.054l0.123-0.377l-0.152-0.368
				c-0.047-0.115-1.092-2.579-3.73-4.653c0.361-0.734,0.448-1.552,0.234-2.359c-0.33-1.247-1.35-2.278-2.596-2.626
				c-0.432-0.12-0.869-0.155-1.299-0.109c-0.341-1.373-1.4-2.412-2.531-2.729c-0.104-0.029-0.205-0.051-0.308-0.069
				c-1.272-0.317-2.212-0.033-2.778,0.265c-0.391,0.205-0.729,0.482-0.992,0.809c-0.146-0.913-0.881-1.682-1.934-1.975V19.87
				c-0.104-0.029-0.212-0.054-0.32-0.072c0.33-1.305,0.938-3.082,1.728-4.65c0.84-0.084,1.694-0.426,2.47-0.996
				c0.963-0.707,1.607-1.625,1.771-2.516C528.671,10.433,527.982,9.423,526.695,9.063L526.695,9.063z M521.023,25.309
				c1.619-0.382,2.552-0.951,3.08-1.526c0.047,0.606,0.324,1.123,0.729,1.514c-3.959,0.242-7.007,1.834-8.94,3.213
				c0.312-1.526,0.768-3.477,1.385-5.446c0.035,0.57,0.152,0.943,0.291,1.225l0.101,0.209l0.181,0.149
				c0.379,0.313,0.865,0.493,1.207,0.589C519.458,25.347,520.248,25.506,521.023,25.309L521.023,25.309z M507.824,26.54
				c1.672,0.096,2.718-0.093,3.189-0.572l0.223-0.225c-0.02,0.895-0.082,1.875-0.205,2.94
				C510.238,28.009,509.186,27.239,507.824,26.54L507.824,26.54z M518.176,34.305c1.031-1.004,3.316-2.867,6.364-3.241
				c1.162-0.143,2.454-0.028,3.735,0.331c1.261,0.351,3.043,1.095,4.711,2.66c-1.76,2.51-5.357,3.863-7.498,3.884
				c-0.697,0.007-1.409-0.09-2.115-0.288C520.941,36.971,519.074,35.263,518.176,34.305L518.176,34.305z M492.221,34.491
				c0.461-0.567,1.191-1.372,2.15-2.125c2.212-1.738,4.559-2.409,6.977-1.993c0.373,0.064,0.76,0.153,1.157,0.264
				c1.157,0.323,3.871,1.278,5.595,3.453c-2.924,3.262-6.41,4.354-10.375,3.245C495.277,36.652,493.253,35.285,492.221,34.491
				L492.221,34.491z"/>
			<g>
				<g>
					<g>
						<polygon points="532.764,29.456 532.161,29.061 532.615,28.601 532.828,28.812 532.631,29.011 532.928,29.205 						"/>
					</g>
					<g>
						<path d="M533.52,27.974l-0.266-0.139c0.107-0.208,0.162-0.427,0.162-0.652c0-0.08-0.007-0.155-0.018-0.226l0.297-0.045
							c0.013,0.084,0.021,0.175,0.021,0.271C533.717,27.457,533.65,27.723,533.52,27.974z M533.014,26.136
							c-0.201-0.242-0.457-0.428-0.74-0.538l0.109-0.279c0.329,0.127,0.627,0.343,0.861,0.625L533.014,26.136z M530.542,25.953
							l-0.164-0.251l0.267-0.174c0.213-0.141,0.438-0.239,0.67-0.292l0.065,0.293c-0.194,0.044-0.388,0.128-0.571,0.25
							L530.542,25.953z"/>
					</g>
					<g>
						<polygon points="529.096,26.903 529.25,26.1 529.544,26.156 529.523,26.263 529.676,26.163 529.84,26.414 						"/>
					</g>
					<g>
						<path d="M529.738,25.145l-0.295-0.056l0.037-0.197c0.025-0.132,0.039-0.266,0.039-0.397c0-0.113-0.01-0.229-0.029-0.344
							l0.295-0.052c0.023,0.132,0.035,0.265,0.035,0.396c0,0.151-0.016,0.304-0.045,0.454L529.738,25.145z M526.29,24.341
							c-0.354-0.159-0.55-0.427-0.55-0.755c0-0.068,0.009-0.139,0.023-0.211l0.293,0.065c-0.012,0.051-0.017,0.099-0.017,0.146
							c0,0.208,0.125,0.371,0.372,0.481L526.29,24.341z M529.118,23.31c-0.196-0.256-0.456-0.461-0.714-0.563l0.111-0.279
							c0.312,0.124,0.608,0.358,0.84,0.66L529.118,23.31z M526.592,22.778l-0.148-0.261c0.281-0.161,0.611-0.243,0.977-0.243
							l0.064,0.001l-0.008,0.3l-0.058-0.001C527.107,22.574,526.829,22.643,526.592,22.778z"/>
					</g>
					<g>
						<path d="M527.568,24.899l-0.01-0.034l-0.006,0.002l-0.133-0.34l-0.361-0.021c-0.031-0.002-0.059-0.003-0.086-0.007
							l0.035-0.298c0.021,0.002,0.043,0.004,0.066,0.005l0.555,0.031l0.214,0.574h-0.146L527.568,24.899z"/>
					</g>
					<g>
						<path d="M514.871,31.966l-0.225-0.198l0.084-0.096c0.012-0.016,0.232-0.262,0.633-0.627l0.203,0.222
							c-0.404,0.369-0.606,0.598-0.607,0.6L514.871,31.966z M516.32,30.624l-0.186-0.235c0.268-0.211,0.539-0.414,0.809-0.603
							l0.173,0.246C516.852,30.217,516.583,30.417,516.32,30.624z M517.945,29.489l-0.156-0.256c0.281-0.173,0.577-0.342,0.876-0.5
							l0.142,0.265C518.512,29.153,518.223,29.318,517.945,29.489z M519.693,28.56l-0.123-0.273c0.311-0.14,0.625-0.271,0.933-0.388
							l0.106,0.28C520.307,28.294,519.999,28.422,519.693,28.56z M521.546,27.858l-0.088-0.287c0.321-0.099,0.649-0.188,0.976-0.265
							l0.067,0.292C522.184,27.673,521.861,27.761,521.546,27.858z M523.473,27.404l-0.05-0.296c0.332-0.055,0.669-0.1,1.001-0.132
							l0.029,0.299C524.128,27.306,523.798,27.35,523.473,27.404z M526.43,27.216c-0.334-0.011-0.662-0.013-0.988-0.004l-0.01-0.3
							c0.332-0.011,0.666-0.009,1.01,0.004L526.43,27.216z M527.46,26.903l-0.194-0.228c0.098-0.085,0.182-0.189,0.246-0.31
							c0.072-0.136,0.121-0.293,0.146-0.469l0.297,0.041c-0.027,0.21-0.089,0.402-0.178,0.57
							C527.693,26.662,527.587,26.794,527.46,26.903z"/>
					</g>
					<g>
						<polygon points="513.043,34.057 513.176,33.1 513.447,33.137 513.5,33.077 513.727,33.274 						"/>
					</g>
					<g>
						<path d="M513.628,32.037l-0.297-0.041l0.14-0.995l0.297,0.045L513.628,32.037z M513.926,30.059l-0.295-0.051
							c0.049-0.287,0.107-0.619,0.178-0.989l0.295,0.056C514.035,29.442,513.975,29.773,513.926,30.059z M514.296,28.093
							l-0.294-0.06c0.064-0.312,0.135-0.641,0.21-0.983l0.293,0.065C514.43,27.456,514.359,27.783,514.296,28.093z M514.729,26.142
							l-0.291-0.069c0.076-0.317,0.156-0.643,0.24-0.975l0.291,0.074C514.884,25.503,514.805,25.827,514.729,26.142z
							 M515.227,24.207l-0.289-0.08c0.088-0.319,0.18-0.641,0.275-0.965l0.287,0.085C515.406,23.569,515.314,23.89,515.227,24.207z
							 M515.795,22.293l-0.285-0.092c0.102-0.317,0.209-0.636,0.318-0.952l0.283,0.099
							C516.001,21.662,515.896,21.978,515.795,22.293z M516.454,20.41l-0.281-0.106c0.12-0.313,0.244-0.626,0.371-0.935l0.276,0.114
							C516.695,19.79,516.572,20.099,516.454,20.41z M517.221,18.571l-0.273-0.125c0.142-0.31,0.287-0.612,0.441-0.907l0.266,0.138
							C517.504,17.968,517.359,18.267,517.221,18.571z M518.129,16.805l-0.26-0.15c0.173-0.297,0.354-0.585,0.533-0.857l0.25,0.167
							C518.475,16.231,518.298,16.514,518.129,16.805z M519.236,15.166l-0.233-0.187c0.126-0.158,0.255-0.311,0.386-0.457
							l0.274-0.306l0.224,0.2l-0.275,0.306C519.484,14.865,519.359,15.013,519.236,15.166z"/>
					</g>
					<g>
						<polygon points="521.096,13.072 520.874,12.872 521.619,12.043 521.387,13.059 521.156,13.006 						"/>
					</g>
					<g>
						<path d="M519.219,22.278l-0.3-0.021c0.007-0.103,0.017-0.213,0.026-0.332l0.3,0.03
							C519.234,22.071,519.225,22.179,519.219,22.278z M519.381,20.976l-0.295-0.05c0.051-0.296,0.113-0.624,0.191-0.988
							l0.293,0.063C519.495,20.361,519.432,20.684,519.381,20.976z M519.799,19.033l-0.291-0.072
							c0.075-0.304,0.16-0.627,0.254-0.971l0.289,0.079C519.958,18.411,519.875,18.731,519.799,19.033z M520.324,17.11l-0.287-0.084
							c0.089-0.306,0.186-0.625,0.288-0.959l0.286,0.089C520.508,16.488,520.413,16.806,520.324,17.11z M520.9,15.187l-0.293-0.066
							l0.223-0.975l0.293,0.066L520.9,15.187z"/>
					</g>
					<g>
						<path d="M519.516,23.661c-0.223-0.061-0.371-0.128-0.461-0.174l-0.062-0.031l-0.017-0.066
							c-0.041-0.157-0.062-0.346-0.069-0.563l0.301-0.009c0.004,0.165,0.021,0.309,0.044,0.432c0.078,0.036,0.188,0.079,0.325,0.118
							l-0.021,0.149L519.516,23.661z"/>
					</g>
					<g>
						<path d="M520.915,23.647l-0.078-0.29c0.347-0.092,0.657-0.197,0.927-0.312l0.117,0.276
							C521.598,23.441,521.273,23.551,520.915,23.647z M522.775,22.783l-0.2-0.223c0.182-0.164,0.249-0.303,0.25-0.373
							c0-0.071-0.052-0.16-0.144-0.242l0.198-0.224c0.158,0.14,0.245,0.307,0.245,0.47
							C523.121,22.376,522.997,22.584,522.775,22.783z M521.471,21.769l-0.098-0.284c0.154-0.053,0.312-0.083,0.467-0.092l0.016,0.3
							C521.729,21.699,521.598,21.725,521.471,21.769z"/>
					</g>
					<g>
						<polygon points="520.143,22.241 520.225,21.542 520.523,21.577 520.497,21.796 520.777,21.697 520.876,21.979 						"/>
					</g>
					<g>
						<path d="M520.682,20.361l-0.295-0.054c0.055-0.305,0.129-0.637,0.219-0.987l0.291,0.074
							C520.809,19.738,520.736,20.063,520.682,20.361z M521.163,18.437l-0.287-0.086c0.093-0.311,0.196-0.632,0.31-0.958
							l0.283,0.098C521.357,17.813,521.255,18.13,521.163,18.437z M521.807,16.556l-0.279-0.107
							c0.119-0.312,0.246-0.624,0.379-0.932l0.275,0.117C522.051,15.939,521.926,16.249,521.807,16.556z M522.591,14.729
							l-0.271-0.131c0.058-0.118,0.113-0.234,0.173-0.349l0.269,0.135C522.705,14.498,522.648,14.613,522.591,14.729z"/>
					</g>
					<g>
						<path d="M523.023,13.881l-0.256-0.158c0.01-0.015,0.019-0.03,0.025-0.046l0.277-0.502l0.559,0.048l-0.025,0.299l-0.365-0.032
							l-0.178,0.323C523.053,13.829,523.04,13.855,523.023,13.881z"/>
					</g>
					<g>
						<path d="M524.719,13.368l-0.101-0.283c0.29-0.101,0.575-0.25,0.849-0.441l0.172,0.245
							C525.344,13.097,525.034,13.258,524.719,13.368z M526.402,12.185l-0.231-0.189c0.203-0.25,0.336-0.5,0.373-0.706
							c0.006-0.033,0.013-0.062,0.013-0.093l0.301,0.007c-0.002,0.048-0.01,0.094-0.018,0.136
							C526.792,11.602,526.641,11.893,526.402,12.185z M520.939,11.047l-0.03-0.299c0.312-0.032,0.649-0.063,1-0.093l0.024,0.299
							C521.585,10.984,521.25,11.016,520.939,11.047z M522.928,10.88l-0.02-0.3c0.337-0.021,0.674-0.039,1.004-0.05l0.01,0.3
							C523.596,10.842,523.262,10.859,522.928,10.88z M525.895,10.873c-0.064-0.009-0.133-0.017-0.201-0.023
							c-0.227-0.018-0.479-0.029-0.775-0.033l0.004-0.3c0.305,0.004,0.562,0.015,0.795,0.034c0.077,0.006,0.15,0.015,0.221,0.025
							L525.895,10.873z"/>
					</g>
					<g>
						<path d="M519.298,11.537l-0.252-0.162c0.103-0.159,0.188-0.289,0.255-0.39l0.038-0.058l0.603-0.073l0.035,0.298l-0.463,0.056
							C519.453,11.299,519.381,11.409,519.298,11.537z"/>
					</g>
					<g>
						<path d="M514.621,22.668l-0.287-0.087l0.271-0.903l0.287,0.087L514.621,22.668z M515.182,20.808l-0.287-0.087l0.289-0.957
							l0.287,0.087L515.182,20.808z M515.77,18.901l-0.285-0.096c0.109-0.322,0.22-0.639,0.334-0.948l0.281,0.104
							C515.986,18.269,515.876,18.582,515.77,18.901z M516.459,17.033l-0.277-0.112c0.129-0.317,0.26-0.626,0.391-0.925l0.275,0.121
							C516.717,16.413,516.587,16.719,516.459,17.033z M517.264,15.212l-0.271-0.129c0.15-0.314,0.3-0.615,0.445-0.901l0.268,0.137
							C517.559,14.603,517.412,14.901,517.264,15.212z M518.17,13.439l-0.264-0.145c0.175-0.317,0.342-0.609,0.496-0.873l0.26,0.151
							C518.508,12.835,518.344,13.125,518.17,13.439z"/>
					</g>
					<g>
						<polygon points="514.041,24.589 513.986,23.236 514.139,23.23 514.167,23.135 514.454,23.222 						"/>
					</g>
					<g>
						<path d="M513.939,21.984l-0.037-1l0.3-0.011l0.036,1L513.939,21.984z M513.866,19.986l-0.021-0.565
							c-0.007-0.146-0.014-0.29-0.021-0.432l0.299-0.017c0.008,0.145,0.016,0.29,0.021,0.437l0.021,0.565L513.866,19.986z
							 M513.747,17.999c-0.033-0.341-0.072-0.669-0.117-0.987l0.298-0.042c0.045,0.321,0.086,0.655,0.118,1L513.747,17.999z
							 M513.473,16.031c-0.063-0.343-0.132-0.668-0.201-0.974l0.293-0.066c0.07,0.31,0.14,0.638,0.203,0.985L513.473,16.031z
							 M513.027,14.095c-0.08-0.292-0.162-0.559-0.24-0.797l0.285-0.094c0.08,0.242,0.162,0.513,0.244,0.811L513.027,14.095z"/>
					</g>
					<g>
						<path d="M512.598,12.745c-0.055-0.151-0.104-0.284-0.148-0.397c-0.102,0.004-0.219,0.012-0.352,0.023l-0.027-0.299
							c0.191-0.017,0.347-0.025,0.476-0.027l0.103-0.002l0.039,0.095c0.057,0.135,0.123,0.305,0.193,0.508L512.598,12.745z"/>
					</g>
					<g>
						<path d="M507.042,14.961l-0.297-0.037c0.034-0.285,0.211-0.612,0.511-0.946l0.223,0.2
							C507.225,14.462,507.07,14.74,507.042,14.961z M508.206,13.546l-0.17-0.247c0.276-0.191,0.575-0.362,0.891-0.507l0.125,0.272
							C508.753,13.202,508.468,13.364,508.206,13.546z M509.967,12.732l-0.078-0.289c0.275-0.076,0.561-0.131,0.844-0.165
							l0.149-0.028l0.054,0.296l-0.14,0.028C510.499,12.608,510.229,12.661,509.967,12.732z"/>
					</g>
					<g>
						<polygon points="508.836,16.16 508.719,15.817 508.337,15.796 508.296,15.493 508.938,15.529 509.12,16.063 						"/>
					</g>
					<g>
						<path d="M509.156,22.163l-0.287-0.087c0.081-0.269,0.146-0.59,0.197-0.956l0.297,0.041
							C509.311,21.542,509.241,21.879,509.156,22.163z M509.457,20.153l-0.299-0.016c0.011-0.201,0.017-0.397,0.02-0.585
							c0.002-0.101,0.004-0.207,0.004-0.316v-0.09h0.301v0.09c0,0.111-0.002,0.219-0.004,0.322
							C509.475,19.747,509.467,19.948,509.457,20.153z M509.148,18.155c-0.021-0.347-0.053-0.678-0.094-0.984l0.297-0.04
							c0.043,0.313,0.074,0.652,0.096,1.007L509.148,18.155z"/>
					</g>
					<g>
						<polygon points="508.311,23.578 507.789,23.312 507.925,23.044 508.227,23.198 508.48,22.872 508.717,23.056 						"/>
					</g>
					<g>
						<path d="M508.365,24.92c-0.236-0.005-0.506-0.018-0.812-0.042c-0.082-0.014-0.148-0.026-0.211-0.04l0.062-0.293
							c0.061,0.013,0.121,0.024,0.186,0.036c0.287,0.021,0.551,0.034,0.781,0.039L508.365,24.92z M506.363,24.328
							c-0.012-0.024-0.02-0.048-0.026-0.072c-0.007-0.022-0.012-0.055-0.012-0.091c0-0.212,0.153-0.496,0.401-0.74
							c0.045-0.043,0.088-0.082,0.133-0.117l0.186,0.236c-0.038,0.029-0.072,0.062-0.109,0.097c-0.211,0.208-0.31,0.418-0.31,0.524
							L506.363,24.328z"/>
					</g>
					<g>
						<path d="M509.091,24.909l-0.021-0.3c0.15-0.01,0.289-0.024,0.412-0.043l0.062-0.354l0.295,0.051l-0.097,0.56l-0.102,0.02
							C509.482,24.873,509.297,24.895,509.091,24.909z"/>
					</g>
					<g>
						<path d="M510.037,23.114l-0.295-0.051l0.17-0.985l0.295,0.051L510.037,23.114z M510.376,21.143l-0.295-0.051l0.169-0.985
							l0.295,0.051L510.376,21.143z M510.715,19.172l-0.295-0.051l0.17-0.985l0.295,0.051L510.715,19.172z"/>
					</g>
					<g>
						<polygon points="511.148,16.66 510.854,16.61 511.029,15.575 511.41,16.474 511.164,16.579 						"/>
					</g>
					<g>
						<path d="M512.757,30.38l-0.297-0.047c0.054-0.335,0.101-0.664,0.142-0.986l0.297,0.039
							C512.857,29.711,512.811,30.042,512.757,30.38z M513.016,28.39l-0.3-0.03c0.034-0.339,0.063-0.67,0.087-0.992l0.299,0.021
							C513.079,27.714,513.049,28.047,513.016,28.39z M513.16,26.386l-0.299-0.013c0.014-0.343,0.021-0.674,0.025-0.995l0.301,0.003
							C513.184,25.705,513.175,26.04,513.16,26.386z M512.88,24.385c-0.009-0.346-0.022-0.678-0.042-0.994l0.299-0.019
							c0.021,0.32,0.035,0.655,0.045,1.005L512.88,24.385z M512.757,22.4c-0.036-0.351-0.077-0.68-0.122-0.986l0.297-0.043
							c0.045,0.31,0.088,0.643,0.125,0.999L512.757,22.4z M512.465,20.437c-0.066-0.337-0.143-0.662-0.222-0.966l0.29-0.076
							c0.08,0.309,0.156,0.64,0.227,0.983L512.465,20.437z M511.951,18.532l-0.385-0.919l0.276-0.116l0.388,0.928L511.951,18.532z"
							/>
					</g>
					<g>
						<polygon points="512.363,32.682 511.832,32.148 512.044,31.937 512.166,32.059 512.208,31.816 512.503,31.867 						"/>
					</g>
					<g>
						<path d="M510.99,31.301c-0.189-0.191-0.426-0.428-0.713-0.692l0.203-0.221c0.291,0.27,0.531,0.508,0.723,0.702L510.99,31.301z
							 M509.529,29.959c-0.252-0.205-0.518-0.406-0.788-0.598l0.174-0.245c0.274,0.195,0.546,0.401,0.804,0.61L509.529,29.959z
							 M507.914,28.817c-0.277-0.17-0.566-0.335-0.861-0.489l0.139-0.266c0.301,0.158,0.597,0.326,0.879,0.499L507.914,28.817z
							 M506.162,27.896c-0.297-0.132-0.605-0.259-0.917-0.376l0.104-0.28c0.317,0.12,0.633,0.248,0.934,0.382L506.162,27.896z
							 M504.307,27.201c-0.14-0.043-0.281-0.084-0.424-0.125c-0.176-0.049-0.354-0.095-0.531-0.14l0.071-0.291
							c0.181,0.044,0.362,0.092,0.54,0.142c0.146,0.041,0.29,0.083,0.432,0.126L504.307,27.201z M502.382,26.726
							c-0.263-0.05-0.528-0.096-0.795-0.135l-0.062-0.011c-0.043-0.01-0.084-0.02-0.127-0.032l0.062-0.294
							c0.06,0.017,0.095,0.026,0.133,0.035l0.038,0.006c0.271,0.041,0.542,0.086,0.809,0.137L502.382,26.726z M500.479,25.97
							c-0.064-0.079-0.121-0.163-0.168-0.25c-0.111-0.206-0.177-0.429-0.192-0.664l0.3-0.02c0.012,0.191,0.064,0.373,0.157,0.54
							c0.038,0.071,0.084,0.139,0.136,0.202L500.479,25.97z"/>
					</g>
					<g>
						<path d="M500.477,24.486l-0.304-0.029c0.007-0.029,0.013-0.053,0.021-0.072l0.174-0.548l0.564-0.042l0.021,0.299l-0.362,0.027
							L500.477,24.486z"/>
					</g>
					<g>
						<path d="M497.686,26.104l-0.232-0.629c-0.04-0.109-0.076-0.216-0.107-0.321l0.287-0.086c0.03,0.1,0.064,0.201,0.102,0.304
							L497.966,26L497.686,26.104z M497.165,24.134c-0.001-0.044-0.002-0.087-0.002-0.13c0-0.329,0.052-0.635,0.153-0.911
							l0.281,0.104c-0.089,0.243-0.135,0.514-0.135,0.807c0,0.039,0.001,0.079,0.002,0.119L497.165,24.134z M501.745,23.358
							l-0.149-0.019l0.004-0.023c0.004-0.048,0.006-0.078,0.006-0.108c0-0.229-0.08-0.486-0.227-0.723l0.256-0.157
							c0.174,0.284,0.271,0.597,0.271,0.88c0,0.041-0.002,0.08-0.006,0.119L501.745,23.358z M498.109,22.431l-0.205-0.219
							c0.246-0.229,0.543-0.417,0.89-0.557l0.113,0.277C498.596,22.06,498.328,22.227,498.109,22.431z M500.718,21.864
							c-0.09-0.046-0.187-0.084-0.282-0.111c-0.188-0.052-0.394-0.069-0.604-0.052l-0.026-0.299c0.245-0.023,0.488,0,0.711,0.062
							c0.117,0.033,0.231,0.078,0.34,0.134L500.718,21.864z"/>
					</g>
					<g>
						<polygon points="498.727,28.063 497.951,27.496 498.116,27.272 498.088,27.197 498.37,27.094 						"/>
					</g>
					<g>
						<path d="M492.074,27.592c-0.012-0.078-0.018-0.157-0.018-0.237c0-0.068,0.004-0.136,0.012-0.204l0.299,0.037
							c-0.008,0.056-0.012,0.112-0.012,0.167c0,0.065,0.006,0.129,0.016,0.192L492.074,27.592z M496.954,26.766l-0.542-0.397
							c-0.087-0.064-0.176-0.125-0.262-0.18l0.16-0.253c0.094,0.06,0.187,0.123,0.278,0.191l0.542,0.397L496.954,26.766z
							 M492.73,26.358l-0.235-0.186c0.226-0.287,0.505-0.509,0.83-0.661l0.127,0.271C493.17,25.915,492.928,26.108,492.73,26.358z
							 M495.287,25.757c-0.069-0.024-0.139-0.046-0.206-0.065c-0.244-0.068-0.485-0.103-0.722-0.103l-0.002-0.3
							c0.264,0,0.533,0.038,0.804,0.113c0.075,0.021,0.151,0.045,0.228,0.072L495.287,25.757z"/>
					</g>
					<g>
						<polygon points="492.409,28.952 492.242,28.703 492.51,28.522 492.311,28.182 492.568,28.03 492.911,28.614 						"/>
					</g>
					<g>
						<path d="M494.576,39.794c-0.326-0.108-0.645-0.224-0.948-0.344l0.11-0.279c0.298,0.119,0.611,0.232,0.931,0.338
							L494.576,39.794z M492.702,39.047c-0.31-0.147-0.61-0.304-0.896-0.467l0.147-0.261c0.28,0.159,0.575,0.313,0.877,0.457
							L492.702,39.047z M490.947,38.046c-0.282-0.191-0.555-0.395-0.812-0.605l0.19-0.232c0.25,0.205,0.516,0.403,0.79,0.589
							L490.947,38.046z M489.382,36.762c-0.243-0.242-0.473-0.495-0.682-0.753l0.233-0.188c0.201,0.25,0.422,0.495,0.658,0.729
							L489.382,36.762z M488.109,35.179c-0.213-0.344-0.346-0.623-0.42-0.795l-0.021-0.052l0.018-0.054
							c0.012-0.037,0.026-0.077,0.043-0.121l0.28,0.104l-0.021,0.059c0.072,0.165,0.193,0.407,0.375,0.702L488.109,35.179z
							 M488.402,33.36l-0.269-0.135c0.15-0.298,0.318-0.595,0.499-0.883l0.254,0.159C488.711,32.781,488.548,33.07,488.402,33.36z
							 M489.449,31.69l-0.239-0.182c0.201-0.265,0.419-0.527,0.647-0.779l0.223,0.201C489.855,31.176,489.645,31.431,489.449,31.69z
							 M490.771,30.228l-0.203-0.22c0.244-0.227,0.502-0.449,0.769-0.658l0.187,0.236C491.264,29.791,491.012,30.006,490.771,30.228
							z"/>
					</g>
					<g>
						<polygon points="496.568,40.672 496.279,40.594 496.359,40.293 495.986,40.198 496.061,39.907 496.729,40.078 						"/>
					</g>
					<g>
						<path d="M497.998,43.584c-0.232,0-0.456-0.029-0.663-0.087c-0.04-0.011-0.079-0.023-0.117-0.037l0.099-0.283
							c0.033,0.011,0.065,0.021,0.1,0.031c0.251,0.069,0.536,0.091,0.824,0.064l0.029,0.299
							C498.178,43.58,498.088,43.584,497.998,43.584z M499.277,43.285l-0.133-0.269c0.133-0.066,0.256-0.143,0.367-0.229
							c0.135-0.103,0.254-0.22,0.354-0.35l0.235,0.185c-0.115,0.149-0.252,0.285-0.406,0.403
							C499.57,43.123,499.43,43.21,499.277,43.285z M496.354,42.818c-0.183-0.281-0.275-0.629-0.275-1.035h0.3
							c0,0.347,0.077,0.641,0.228,0.872L496.354,42.818z"/>
					</g>
					<g>
						<polygon points="500.25,41.038 500.242,40.349 500.859,40.355 500.855,40.655 500.545,40.651 500.55,41.034 						"/>
					</g>
					<g>
						<path d="M501.934,40.628l-0.024-0.299c0.325-0.027,0.651-0.074,0.972-0.139l0.061,0.294
							C502.609,40.552,502.271,40.601,501.934,40.628z M503.923,40.225l-0.094-0.285c0.31-0.101,0.616-0.221,0.916-0.357
							l0.125,0.273C504.561,39.997,504.242,40.121,503.923,40.225z M505.771,39.388l-0.152-0.259
							c0.275-0.161,0.554-0.342,0.828-0.538l0.174,0.244C506.339,39.037,506.053,39.223,505.771,39.388z M507.417,38.211
							l-0.194-0.229c0.25-0.213,0.493-0.438,0.725-0.671l0.214,0.212C507.923,37.762,507.673,37.993,507.417,38.211z M508.85,36.785
							l-0.227-0.196c0.218-0.251,0.427-0.51,0.622-0.77l0.239,0.18C509.287,36.265,509.072,36.529,508.85,36.785z"/>
					</g>
					<g>
						<path d="M510.021,35.235l-0.252-0.163c0.174-0.27,0.266-0.434,0.271-0.446l0.065-0.124l0.551,0.247l-0.122,0.273l-0.3-0.134
							C510.189,34.969,510.118,35.087,510.021,35.235z"/>
					</g>
					<g>
						<polygon points="511.458,35.766 511.176,35.661 511.288,35.36 510.924,35.198 511.047,34.924 511.667,35.201 						"/>
					</g>
					<g>
						<path d="M510.355,37.9l0.273-0.752l0.281,0.103l-0.096,0.26c0.068-0.011,0.139-0.021,0.209-0.031l0.041,0.297
							c-0.156,0.022-0.308,0.047-0.451,0.075L510.355,37.9z"/>
					</g>
					<g>
						<path d="M511.741,37.703l-0.021-0.299c0.301-0.021,0.616-0.028,0.938-0.021l-0.008,0.3
							C512.339,37.675,512.031,37.683,511.741,37.703z"/>
					</g>
					<g>
						<path d="M513.709,37.779l-0.229-0.029c-0.178-0.022-0.354-0.04-0.526-0.051l0.021-0.3c0.104,0.007,0.209,0.016,0.315,0.027
							c-0.009-0.024-0.015-0.048-0.021-0.071l-0.047-0.153l0.287-0.088l0.047,0.156c0.026,0.092,0.057,0.188,0.086,0.287
							L513.709,37.779z"/>
					</g>
					<g>
						<path d="M512.934,36.155c-0.093-0.396-0.137-0.699-0.137-0.954l0.002-0.076l0.299,0.013v0.063
							c0,0.231,0.041,0.512,0.129,0.884L512.934,36.155z"/>
					</g>
					<g>
						<polygon points="513.361,34.224 513.081,34.121 513.346,33.399 513.842,33.886 513.631,34.1 513.467,33.938 						"/>
					</g>
					<g>
						<path d="M523.091,41.098c-0.379-0.057-0.694-0.114-0.993-0.18l0.064-0.293c0.292,0.064,0.602,0.121,0.975,0.176
							L523.091,41.098z M521.119,40.648c-0.314-0.106-0.624-0.227-0.943-0.369l0.121-0.274c0.312,0.139,0.612,0.256,0.918,0.359
							L521.119,40.648z M519.268,39.834c-0.088-0.047-0.178-0.095-0.268-0.145c-0.215-0.129-0.412-0.257-0.6-0.384l0.168-0.248
							c0.184,0.125,0.377,0.249,0.582,0.373c0.084,0.046,0.17,0.093,0.258,0.139L519.268,39.834z M517.588,38.7
							c-0.266-0.215-0.52-0.442-0.756-0.675l0.211-0.214c0.23,0.226,0.479,0.447,0.734,0.657L517.588,38.7z M516.146,37.282
							c-0.207-0.244-0.408-0.505-0.621-0.799l0.244-0.175c0.207,0.287,0.404,0.543,0.604,0.781L516.146,37.282z M514.955,35.657
							c-0.193-0.284-0.385-0.558-0.582-0.795l0.23-0.192c0.205,0.247,0.4,0.528,0.6,0.818L514.955,35.657z"/>
					</g>
					<g>
						<polygon points="524.562,41.622 524.557,41.288 524.154,41.237 524.191,40.939 524.852,41.022 524.863,41.617 						"/>
					</g>
					<g>
						<path d="M525.714,42.895c-0.12,0-0.241-0.016-0.356-0.048l-0.045-0.014l0.088-0.286l0.041,0.013
							c0.263,0.072,0.578,0.031,0.797-0.11l0.162,0.253C526.205,42.826,525.961,42.895,525.714,42.895z"/>
					</g>
					<g>
						<polygon points="526.58,41.181 526.488,40.503 527.089,40.407 527.137,40.703 526.824,40.753 526.876,41.141 						"/>
					</g>
					<g>
						<path d="M528.281,40.493l-0.063-0.293c0.322-0.07,0.646-0.151,0.96-0.24l0.082,0.288
							C528.939,40.339,528.609,40.421,528.281,40.493z M530.221,39.938l-0.102-0.282c0.318-0.114,0.627-0.238,0.918-0.368
							l0.121,0.274C530.861,39.695,530.546,39.822,530.221,39.938z M532.068,39.119l-0.144-0.265
							c0.291-0.156,0.577-0.325,0.851-0.502l0.164,0.252C532.659,38.786,532.366,38.959,532.068,39.119z M533.764,38.02
							l-0.184-0.237c0.26-0.2,0.513-0.414,0.754-0.636l0.203,0.221C534.291,37.595,534.029,37.814,533.764,38.02z M535.252,36.65
							l-0.221-0.202c0.22-0.241,0.432-0.496,0.629-0.758l0.24,0.181C535.697,36.14,535.479,36.402,535.252,36.65z M536.477,35.034
							l-0.256-0.157c0.049-0.08,0.096-0.157,0.139-0.232l0.26,0.15C536.574,34.872,536.527,34.951,536.477,35.034z"/>
					</g>
					<g>
						<path d="M536.878,34.314l-0.269-0.136c0.082-0.162,0.146-0.301,0.193-0.414c-0.049-0.094-0.109-0.208-0.186-0.337l0.26-0.149
							c0.096,0.165,0.171,0.305,0.227,0.413l0.031,0.062l-0.027,0.064C537.055,33.945,536.98,34.113,536.878,34.314z"/>
					</g>
					<g>
						<path d="M535.979,32.446c-0.193-0.266-0.4-0.525-0.615-0.771l0.227-0.197c0.221,0.253,0.434,0.52,0.633,0.792L535.979,32.446z
							 M534.686,30.957c-0.232-0.226-0.48-0.447-0.738-0.656l0.189-0.232c0.264,0.214,0.52,0.441,0.758,0.673L534.686,30.957z"/>
					</g>
				</g>
				<g>
					<g>
						<polygon points="490.118,35.264 489.632,34.813 489.947,34.317 490.201,34.479 490.02,34.764 490.322,35.044 						"/>
					</g>
					<g>
						<path d="M490.834,33.592l-0.236-0.186c0.205-0.26,0.424-0.521,0.65-0.773l0.225,0.2
							C491.249,33.082,491.034,33.337,490.834,33.592z M508.896,32.506c-0.219-0.235-0.457-0.466-0.707-0.686l0.199-0.226
							c0.256,0.228,0.502,0.465,0.728,0.707L508.896,32.506z M492.157,32.117l-0.21-0.214c0.24-0.237,0.492-0.467,0.744-0.684
							l0.195,0.229C492.641,31.66,492.395,31.885,492.157,32.117z M507.419,31.202c-0.257-0.189-0.532-0.375-0.819-0.551
							l0.157-0.256c0.293,0.181,0.576,0.371,0.841,0.565L507.419,31.202z M493.66,30.83l-0.18-0.241
							c0.276-0.205,0.558-0.397,0.834-0.572l0.16,0.254C494.204,30.441,493.93,30.629,493.66,30.83z M505.738,30.163
							c-0.289-0.151-0.59-0.294-0.893-0.425l0.118-0.275c0.31,0.134,0.616,0.281,0.913,0.434L505.738,30.163z M495.332,29.778
							l-0.139-0.267c0.301-0.157,0.609-0.3,0.918-0.427l0.113,0.277C495.926,29.485,495.625,29.625,495.332,29.778z M503.924,29.372
							c-0.318-0.114-0.636-0.216-0.943-0.302l0.082-0.289c0.312,0.088,0.637,0.192,0.963,0.309L503.924,29.372z M497.152,29.03
							l-0.086-0.287c0.324-0.099,0.656-0.181,0.983-0.246l0.058,0.294C497.79,28.854,497.469,28.935,497.152,29.03z M502.021,28.833
							c-0.133-0.027-0.266-0.052-0.396-0.075c-0.194-0.034-0.388-0.062-0.579-0.083l0.034-0.298c0.196,0.022,0.396,0.05,0.597,0.085
							c0.133,0.023,0.266,0.049,0.402,0.077L502.021,28.833z M499.083,28.652l-0.026-0.299c0.293-0.026,0.592-0.04,0.889-0.041
							l0.125,0.001l-0.004,0.3l-0.121-0.001C499.657,28.613,499.366,28.626,499.083,28.652z"/>
					</g>
					<g>
						<polygon points="510.164,34.657 509.932,34.467 510.154,34.192 509.938,33.849 510.176,33.667 510.523,34.213 						"/>
					</g>
					<g>
						<path d="M500.52,39.688c-0.332-0.003-0.674-0.021-1.012-0.052l0.028-0.299c0.329,0.031,0.661,0.048,0.985,0.051L500.52,39.688
							z M501.532,39.652l-0.024-0.299c0.328-0.027,0.657-0.068,0.979-0.125l0.052,0.296
							C502.207,39.582,501.869,39.625,501.532,39.652z M498.505,39.501c-0.325-0.057-0.659-0.129-0.989-0.213l0.074-0.291
							c0.323,0.083,0.648,0.152,0.967,0.208L498.505,39.501z M503.525,39.301l-0.08-0.289c0.316-0.086,0.631-0.188,0.938-0.305
							l0.105,0.28C504.174,39.107,503.85,39.213,503.525,39.301z M496.548,39.004c-0.315-0.104-0.635-0.22-0.948-0.346l0.111-0.278
							c0.309,0.123,0.621,0.237,0.932,0.339L496.548,39.004z M505.42,38.586l-0.131-0.27c0.293-0.143,0.584-0.301,0.865-0.47
							l0.154,0.257C506.02,38.277,505.721,38.44,505.42,38.586z M494.674,38.256c-0.299-0.14-0.602-0.292-0.9-0.453l0.142-0.265
							c0.294,0.158,0.593,0.308,0.886,0.446L494.674,38.256z M507.154,37.548l-0.174-0.244c0.263-0.187,0.524-0.391,0.781-0.605
							l0.193,0.229C507.691,37.148,507.423,37.357,507.154,37.548z M492.896,37.304c-0.291-0.176-0.576-0.359-0.849-0.543
							l0.168-0.248c0.269,0.182,0.55,0.361,0.837,0.535L492.896,37.304z M508.706,36.254l-0.207-0.217
							c0.229-0.22,0.462-0.458,0.69-0.708l0.222,0.203C509.178,35.787,508.939,36.03,508.706,36.254z M491.229,36.176
							c-0.291-0.218-0.527-0.409-0.703-0.556l0.191-0.23c0.172,0.145,0.405,0.332,0.689,0.546L491.229,36.176z"/>
					</g>
				</g>
				<g>
					<g>
						<polygon points="516.027,34.78 515.637,34.258 515.999,33.806 516.232,33.993 516.016,34.264 516.268,34.6 						"/>
					</g>
					<g>
						<path d="M517.027,33.13l-0.211-0.214c0.236-0.231,0.486-0.46,0.748-0.682l0.192,0.229
							C517.503,32.68,517.257,32.904,517.027,33.13z M533.934,32.7c-0.242-0.219-0.496-0.433-0.756-0.635l0.184-0.237
							c0.267,0.207,0.527,0.426,0.773,0.649L533.934,32.7z M518.533,31.847l-0.178-0.241c0.269-0.2,0.549-0.392,0.83-0.573
							l0.162,0.253C519.07,31.462,518.797,31.651,518.533,31.847z M532.373,31.488c-0.271-0.18-0.555-0.354-0.844-0.514l0.146-0.262
							c0.296,0.165,0.587,0.341,0.863,0.525L532.373,31.488z M520.201,30.784l-0.143-0.264c0.295-0.159,0.6-0.309,0.906-0.446
							l0.121,0.274C520.787,30.482,520.488,30.628,520.201,30.784z M530.648,30.526c-0.297-0.137-0.604-0.265-0.912-0.379
							l0.104-0.281c0.313,0.117,0.628,0.248,0.933,0.388L530.648,30.526z M522.005,29.985l-0.101-0.283
							c0.318-0.111,0.646-0.21,0.972-0.293l0.074,0.291C522.633,29.78,522.314,29.876,522.005,29.985z M528.795,29.838l-0.076-0.022
							c-0.291-0.081-0.587-0.152-0.881-0.212l0.061-0.294c0.301,0.061,0.604,0.134,0.9,0.217l0.084,0.024L528.795,29.838z
							 M523.917,29.498l-0.049-0.296c0.144-0.023,0.288-0.044,0.437-0.062c0.188-0.023,0.379-0.041,0.571-0.053l0.021,0.3
							c-0.188,0.012-0.371,0.029-0.556,0.051C524.197,29.455,524.057,29.475,523.917,29.498z M526.863,29.446
							c-0.328-0.039-0.659-0.064-0.983-0.075l0.011-0.3c0.332,0.011,0.672,0.037,1.01,0.077L526.863,29.446z"/>
					</g>
					<g>
						<polygon points="535.127,34.259 534.861,34.12 535.027,33.804 534.755,33.511 534.846,33.386 534.958,33.288 535.393,33.755 
													"/>
					</g>
					<g>
						<path d="M525.508,39.878h-0.08c-0.209,0-0.416-0.007-0.625-0.021l0.021-0.299c0.201,0.014,0.402,0.021,0.604,0.021h0.079
							c0.097,0,0.196-0.004,0.298-0.01l0.018,0.3C525.715,39.875,525.609,39.878,525.508,39.878z M526.832,39.751l-0.049-0.296
							c0.31-0.052,0.634-0.122,0.964-0.208l0.075,0.29C527.484,39.626,527.15,39.698,526.832,39.751z M523.795,39.734
							c-0.312-0.055-0.63-0.127-0.943-0.215l-0.049-0.014l0.092-0.285l0.037,0.01c0.305,0.085,0.612,0.155,0.916,0.208
							L523.795,39.734z M528.791,39.247l-0.098-0.284c0.312-0.107,0.625-0.227,0.925-0.354l0.116,0.276
							C529.428,39.015,529.111,39.137,528.791,39.247z M521.846,39.184c-0.307-0.12-0.617-0.257-0.926-0.409l0.133-0.269
							c0.301,0.147,0.604,0.282,0.902,0.398L521.846,39.184z M530.65,38.455l-0.137-0.267c0.291-0.15,0.58-0.313,0.859-0.486
							l0.158,0.256C531.245,38.134,530.949,38.302,530.65,38.455z M520.029,38.291c-0.285-0.171-0.57-0.355-0.848-0.549l0.172-0.246
							c0.271,0.19,0.551,0.371,0.83,0.538L520.029,38.291z M532.371,37.39l-0.178-0.241c0.267-0.197,0.523-0.407,0.766-0.622
							l0.199,0.224C532.911,36.972,532.646,37.187,532.371,37.39z M518.375,37.133c-0.258-0.208-0.516-0.429-0.768-0.659
							l0.203-0.222c0.246,0.226,0.5,0.443,0.752,0.647L518.375,37.133z M533.879,36.036l-0.223-0.202
							c0.224-0.245,0.432-0.502,0.619-0.763l0.244,0.176C534.325,35.517,534.109,35.782,533.879,36.036z M516.887,35.768
							c-0.209-0.219-0.384-0.413-0.518-0.568l0.227-0.196c0.133,0.152,0.303,0.342,0.508,0.558L516.887,35.768z"/>
					</g>
				</g>
			</g>
			<path fill="#B59353" d="M534.339,33.896c-1.757,3.338-6.21,5.092-8.84,5.117c-5.159,0.047-8.769-4.739-8.769-4.739
				s2.974-3.699,7.678-4.276C527.312,29.643,531.35,30.676,534.339,33.896z"/>
			<path fill="#31738B" d="M523.626,30.379c-3.956,2.418-5.429,5.28-5.429,5.28l-1.508-1.236
				C516.689,34.423,519.322,31.57,523.626,30.379z"/>
			<path fill="#B59353" d="M509.458,34.151c-8.276,10.213-18.708,0.519-18.708,0.519s4.148-6.497,10.779-5.354
				C503.846,29.715,507.538,31.115,509.458,34.151z"/>
			<path fill="#31738B" d="M499.432,29.202c-5.769,2.609-7.199,6.646-7.199,6.646l-1.481-1.178
				C490.75,34.67,492.385,31.318,499.432,29.202z"/>
			<path d="M516.784,41.657c-4.625-2-9.293-0.89-10.69,0.866c-3.494-1.016-5.718,3.437-1.637,3.918
				c3.615,2.336,11.65,2.031,13.818-2.223C522.098,44.675,522.184,39.722,516.784,41.657z"/>
			<path fill="#31738B" d="M531.756,47.77c0,0-1.598,2.455-3.507,3.422c-5.251,3.023-10.666,3.776-12.425,4.185
				c-4.211,0.979-7.941-0.217-7.941-0.217s5.51,0.447,13.654-2.278C529.682,50.153,531.756,47.77,531.756,47.77z"/>
			<path d="M503.688,54.788c19,1.761,27.99-7.789,27.99-7.789l-0.113-0.857c0,0,1.508,0.718,1.313,2.676
				c0.015-0.494-1.122-1.049-1.122-1.049S521.998,57.422,503.688,54.788z"/>
			<path fill="#31738B" d="M510.247,56.956c0.51,2.153-1.127,4.026-1.127,4.026s-3.31,0.951-3.661,4.707
				c0.988,0.565,3.575,0.889,3.575,0.889s-1.009-1.949-0.115-4.167c0.896-2.22,3.435-2.818,3.435-2.818
				S511.512,57.263,510.247,56.956z"/>
			<path fill="#171918" d="M510.465,56.684c2.057,1.283,2.473,3.168,2.473,3.168s-6.179,1.866-3.188,7.396
				c1.118,1.689,4.477,2.572,8.18-0.686c-3.842,5.565-10.356,2.388-10.035-2.164c0.295-4.182,2.945-4.842,3.623-4.945
				C512.121,58.208,508.777,55.977,510.465,56.684z"/>
			<g>
				<path d="M514.875,18.183l-0.299-0.015c0.014-0.279,0.031-0.617,0.057-1.002l0.299,0.019
					C514.908,17.568,514.889,17.905,514.875,18.183z M515.002,16.188l-0.299-0.023c0.023-0.316,0.052-0.651,0.083-1l0.299,0.026
					C515.055,15.539,515.027,15.873,515.002,16.188z M515.184,14.197l-0.3-0.03c0.033-0.325,0.07-0.659,0.112-0.998l0.297,0.036
					C515.253,13.542,515.216,13.874,515.184,14.197z M515.422,12.214l-0.297-0.042c0.046-0.329,0.096-0.661,0.146-0.993l0.297,0.047
					C515.518,11.557,515.469,11.887,515.422,12.214z M515.738,10.244l-0.295-0.054c0.061-0.332,0.125-0.662,0.195-0.986l0.293,0.062
					C515.863,9.588,515.798,9.915,515.738,10.244z M516.159,8.297l-0.291-0.073c0.084-0.333,0.173-0.658,0.269-0.972l0.286,0.087
					C516.33,7.648,516.241,7.968,516.159,8.297z M516.732,6.394l-0.283-0.098c0.109-0.318,0.226-0.635,0.345-0.945l0.278,0.107
					C516.956,5.766,516.841,6.079,516.732,6.394z M517.439,4.531l-0.276-0.114c0.134-0.327,0.267-0.637,0.392-0.925l0.274,0.119
					C517.705,3.897,517.574,4.207,517.439,4.531z M518.236,2.7l-0.273-0.125c0.26-0.563,0.43-0.911,0.43-0.911l0.271,0.133
					C518.661,1.798,518.491,2.143,518.236,2.7z"/>
			</g>
			<path fill="#181A19" d="M534.339,33.896c0,0-8.405-9.1-17.606,0.379C526.146,26.06,534.339,33.896,534.339,33.896z"/>
			<path fill="#181A19" d="M534.339,33.896c-1.032,1.955-3.065,3.25-4.54,4.059c-7.162,3.93-13.066-3.679-13.066-3.679
				s4.488,5.277,10.562,4.043C529.48,37.875,532.48,36.645,534.339,33.896z"/>
			<path fill="#181A19" d="M509.458,34.151c-8.44,10.219-18.708,0.519-18.708,0.519S500.715,42.729,509.458,34.151z"/>
			<path fill="#E8D1D1" d="M520.219,35.662c5.831,6.827,10.713,0.935,10.788-0.345C529.104,33.129,522.509,32.407,520.219,35.662z"
				/>
			<path d="M527.706,36.773c-1.239-0.348-1.963-1.633-1.617-2.872c0.128-0.456,0.384-0.841,0.716-1.13
				c-0.117-0.046-0.24-0.087-0.363-0.122c-2.055-0.574-4.187,0.625-4.76,2.678c-0.574,2.052,0.625,4.183,2.68,4.758
				c2.053,0.574,4.185-0.625,4.758-2.679c0.068-0.245,0.109-0.491,0.131-0.736C528.775,36.873,528.238,36.921,527.706,36.773z"/>
			<path fill="#31738B" d="M527.706,36.773c-1.228-0.343-1.947-1.607-1.626-2.834c-1.258-0.136-2.467,0.649-2.816,1.908
				c-0.392,1.402,0.426,2.855,1.828,3.248c1.4,0.393,2.854-0.428,3.247-1.829c0.038-0.135,0.062-0.272,0.077-0.409
				C528.182,36.866,527.943,36.839,527.706,36.773z"/>
			<circle fill="#E8D1D1" cx="528.322" cy="34.566" r="2.33"/>
			<circle cx="525.207" cy="37.056" r="2.331"/>
			<g>
				<path fill="#E8D1D1" d="M494.428,35.601c6.018,6.666,10.736,0.64,10.776-0.641C503.238,32.825,496.628,32.286,494.428,35.601z"
					/>
				<g>
					<path d="M502.928,36.367c-1.248-0.312-2.007-1.578-1.695-2.826c0.115-0.459,0.359-0.851,0.685-1.149
						c-0.12-0.042-0.242-0.081-0.368-0.112c-2.068-0.517-4.165,0.74-4.684,2.808c-0.516,2.068,0.74,4.165,2.81,4.683
						c2.068,0.518,4.165-0.741,4.683-2.809c0.062-0.247,0.097-0.494,0.108-0.739C504,36.437,503.463,36.501,502.928,36.367z"/>
					<path fill="#31738B" d="M502.928,36.368c-1.234-0.308-1.99-1.552-1.703-2.788c-1.26-0.102-2.447,0.717-2.765,1.984
						c-0.353,1.412,0.505,2.843,1.918,3.197c1.412,0.353,2.843-0.506,3.197-1.917c0.032-0.138,0.053-0.274,0.065-0.412
						C503.407,36.447,503.167,36.428,502.928,36.368z"/>
					<circle fill="#E8D1D1" cx="503.484" cy="34.145" r="2.33"/>
					<circle cx="500.438" cy="36.719" r="2.33"/>
				</g>
			</g>
			<path fill="#181A19" d="M509.458,34.151c-2.589-2.679-6.101-4.218-8.617-4.429c-5.956-0.501-9.75,4.605-10.091,4.947
				c0.229-0.421,4.297-5.867,10.016-5.574C503.387,29.229,507.486,31.067,509.458,34.151z"/>
			<path fill="#B59353" d="M505.625,43.839c0,0,4.232-4.081,10.875-1.339c-0.393,0.527-0.309,1.099-0.309,1.099
				s0.584-0.678,1.111-1.168c0.795-0.906,3.594-0.743,2.771,0.441c-0.821,1.184-2.002,0.461-2.002,0.461s-4.403,6.128-13.147,2.133
				c-2.11-0.169-1.556-1.142-1.209-1.486c0.562-0.58,1.317-0.304,1.317-0.304l-0.02,0.766L505.625,43.839z"/>
			<path fill="#B0B4B7" d="M516.5,42.5c-0.236,0.46-0.287,0.758-0.309,1.099c-5.787-2.493-11.176,0.841-11.176,0.841
				S509.064,39.59,516.5,42.5z"/>
			<polygon points="487.717,23.483 487.212,28.505 509.436,25.426 509.652,19.069 			"/>
			<polygon points="537.559,20.932 536.521,25.649 518.264,20.998 519.441,15.021 			"/>
			<path fill="#31738B" d="M520.076,42.871c-0.939,1.358-2.002,0.461-2.002,0.461S520.55,41.665,520.076,42.871z"/>
			<path fill="#31738B" d="M504.967,45.203c0,0,1.426,0.857,4.303,1.535c-2.83-0.438-4.344-1.273-4.344-1.273
				s-0.955-0.062-1.211-0.301C504.145,45.083,504.967,45.203,504.967,45.203z"/>
			<path fill="#31738B" d="M509.998,64.63c-0.378,1.269,0.811,2.703,1.688,3.123c2.035,0.951,4.196-0.296,4.633-0.706
				C514.699,67.609,511.969,67.744,509.998,64.63z"/>
			<path fill="#31738B" d="M505.025,51.939c-0.43,2.073-1.338,2.849-1.338,2.849s0.772,0.054,1.188,0.05
				C505.361,53.463,505.316,52.251,505.025,51.939z"/>
			<g>
				<ellipse transform="matrix(0.3979 -0.9174 0.9174 0.3979 282.5277 525.1912)" cx="541.407" cy="47.338" rx="3.962" ry="1.976"/>
				<path d="M547.375,49.521c1.35-3.873-2.402-5.406-2.402-5.406l-6.186,2.115l0.654,4.331
					C539.441,50.56,545.691,53.997,547.375,49.521z"/>
				<path fill="#B59353" d="M542.799,44.877c-2.619,0.872-2.609,4.751-2.609,4.751s4.35,2.516,5.756-0.344
					C547.35,46.424,544.434,44.816,542.799,44.877z"/>
				<path fill="#31738B" d="M540.627,47.234c2.814,1.923,5.452,1.379,5.618,1.222c-0.853,4.107-6.056,1.172-6.056,1.172
					S540.225,48.068,540.627,47.234z"/>
			</g>
			<g>
				
					<ellipse transform="matrix(0.2523 0.9676 -0.9676 0.2523 410.7935 -436.7666)" cx="488.028" cy="47.441" rx="3.828" ry="1.906"/>
				<path d="M482.016,48.65c-0.715-3.896,3.094-4.804,3.094-4.804l1.945-0.095l2.377,7.064
					C489.434,50.816,482.959,53.17,482.016,48.65z"/>
				<path fill="#B59353" d="M487.07,44.896c2.369,1.221,1.785,4.921,1.785,4.921s-4.522,1.758-5.44-1.182
					C482.498,45.698,485.518,44.596,487.07,44.896z"/>
				<path fill="#31738B" d="M488.792,47.466c-0.249,2.22-1.629,2.541-2.804,2.858c1.424,0.036,2.867-0.508,2.867-0.508
					S489.053,48.323,488.792,47.466z"/>
			</g>
			<path fill="#B0B4B7" d="M487.07,44.896c0,0-2.045-0.429-3.332,1.363c-0.457,0.9,4.738,0.181,4.439-0.363
				C487.835,45.302,487.07,44.896,487.07,44.896z"/>
		</g>
		<circle fill="#C9A9A9" cx="525.355" cy="36.367" r="1.145"/>
		<circle fill="#C9A9A9" cx="500.667" cy="36.072" r="1.145"/>
	</g>
</g>
</svg>
