<?xml version="1.0" encoding="utf-8"?>
<!-- Generator: Adobe Illustrator 16.2.1, SVG Export Plug-In . SVG Version: 6.00 Build 0)  -->
<!DOCTYPE svg PUBLIC "-//W3C//DTD SVG 1.1//EN" "http://www.w3.org/Graphics/SVG/1.1/DTD/svg11.dtd">
<svg version="1.1" id="Capa_1" xmlns="http://www.w3.org/2000/svg" xmlns:xlink="http://www.w3.org/1999/xlink" x="0px" y="0px"
	 width="121.963px" height="74.132px" viewBox="0 0 121.963 74.132" enable-background="new 0 0 121.963 74.132"
	 xml:space="preserve">
<g>
	<path fill="#1D1D1B" d="M26.138,46.979c14.27-0.258,9.983-9.857,5.998-10.797c-2.528-1.244-15.985-3.129-19.203-4.58
		c-2.145-0.781-4.061-1.791-5.752-3.029c-1.69-1.238-3.058-2.787-4.102-4.646c-1.043-1.858-1.563-4.105-1.563-6.745
		c0-2.964,0.661-5.534,1.987-7.717C4.826,7.286,7.411,2.759,20.448,0.44c6.259-0.947,10.877-0.135,12.745,0.299
		c14.885,2.361,17.842,13.25,17.842,16.588H34.88c0.214-1.542,0.061-2.166-0.586-3.298c-3.27-4.63-17.109-4.501-17.238,1.756
		c0,1.132-0.943,5.655,9.427,6.47c12.128,1.501,16.453,4.246,18.427,5.486c10.286,6.258,5.921,18.665,4.414,21.599
		c-1.072,2.259-7.499,9.981-22.582,9.125c-25.797,0-26.797-15.267-26.739-18.823h15.684C15.681,41.581,14.523,46.979,26.138,46.979z
		"/>
	<g>
		<path fill="#1D1D1B" d="M3.522,71.722c0.108,0.211,0.252,0.379,0.432,0.507c0.179,0.131,0.391,0.225,0.63,0.288
			c0.248,0.067,0.495,0.096,0.759,0.096c0.175,0,0.361-0.014,0.562-0.043c0.2-0.026,0.39-0.088,0.566-0.172
			c0.172-0.082,0.321-0.197,0.434-0.344c0.122-0.146,0.18-0.332,0.18-0.56c0-0.236-0.077-0.434-0.23-0.586
			c-0.159-0.151-0.357-0.276-0.607-0.376c-0.254-0.1-0.539-0.187-0.855-0.262c-0.32-0.079-0.642-0.156-0.966-0.256
			c-0.336-0.081-0.659-0.184-0.976-0.308c-0.322-0.119-0.604-0.275-0.855-0.47c-0.252-0.193-0.454-0.43-0.608-0.717
			c-0.155-0.289-0.233-0.639-0.233-1.05c0-0.461,0.098-0.856,0.296-1.199C2.244,65.938,2.5,65.655,2.82,65.43
			c0.317-0.229,0.676-0.395,1.076-0.504s0.803-0.161,1.205-0.161c0.467,0,0.917,0.052,1.345,0.156
			c0.436,0.105,0.816,0.273,1.146,0.509c0.339,0.23,0.604,0.53,0.8,0.895c0.196,0.367,0.298,0.807,0.298,1.324H6.779
			c-0.013-0.271-0.069-0.489-0.165-0.667c-0.097-0.177-0.228-0.311-0.383-0.41c-0.159-0.1-0.343-0.172-0.551-0.219
			c-0.202-0.034-0.422-0.06-0.667-0.06c-0.161,0-0.32,0.014-0.478,0.051c-0.158,0.036-0.304,0.094-0.433,0.174
			c-0.13,0.087-0.239,0.193-0.319,0.315c-0.084,0.129-0.123,0.285-0.123,0.473c0,0.18,0.029,0.323,0.098,0.429
			c0.067,0.11,0.196,0.215,0.397,0.303c0.194,0.09,0.466,0.187,0.813,0.273c0.349,0.094,0.801,0.21,1.361,0.355
			c0.165,0.032,0.398,0.097,0.694,0.179c0.299,0.089,0.595,0.229,0.887,0.419c0.294,0.196,0.545,0.45,0.758,0.768
			c0.212,0.33,0.318,0.74,0.318,1.241c0,0.409-0.078,0.789-0.235,1.14c-0.158,0.349-0.395,0.655-0.712,0.911
			c-0.31,0.254-0.695,0.454-1.165,0.594c-0.464,0.144-1.002,0.215-1.612,0.215c-0.492,0-0.97-0.062-1.435-0.182
			c-0.466-0.12-0.874-0.311-1.231-0.576c-0.354-0.252-0.636-0.584-0.846-0.988c-0.208-0.402-0.308-0.877-0.302-1.43h1.904
			C3.357,71.261,3.416,71.514,3.522,71.722z"/>
		<path fill="#1D1D1B" d="M10.071,67.629c0.198-0.576,0.486-1.074,0.861-1.5c0.377-0.428,0.838-0.761,1.387-1.003
			c0.551-0.247,1.167-0.364,1.848-0.364c0.694,0,1.314,0.117,1.859,0.364c0.542,0.242,1.004,0.575,1.379,1.003
			c0.376,0.423,0.662,0.924,0.862,1.5c0.203,0.574,0.302,1.195,0.302,1.859c0,0.651-0.099,1.267-0.302,1.825
			c-0.2,0.567-0.486,1.057-0.862,1.477c-0.375,0.417-0.837,0.743-1.379,0.981c-0.545,0.236-1.165,0.36-1.859,0.36
			c-0.681,0-1.3-0.124-1.848-0.36c-0.549-0.238-1.01-0.564-1.387-0.981c-0.375-0.42-0.663-0.909-0.861-1.477
			c-0.205-0.559-0.305-1.174-0.305-1.825C9.77,68.822,9.866,68.202,10.071,67.629z M11.868,70.588
			c0.088,0.354,0.229,0.67,0.421,0.96c0.192,0.282,0.444,0.506,0.753,0.678c0.312,0.174,0.686,0.262,1.128,0.262
			c0.447,0,0.822-0.088,1.13-0.262c0.309-0.172,0.561-0.396,0.754-0.678c0.192-0.29,0.33-0.605,0.421-0.96
			c0.089-0.352,0.13-0.723,0.13-1.103c0-0.389-0.041-0.769-0.13-1.139c-0.091-0.365-0.229-0.696-0.421-0.981
			c-0.192-0.29-0.443-0.521-0.754-0.691c-0.308-0.172-0.683-0.255-1.13-0.255c-0.442,0-0.816,0.083-1.128,0.255
			c-0.308,0.171-0.56,0.401-0.753,0.691c-0.191,0.285-0.335,0.616-0.421,0.981c-0.09,0.37-0.129,0.752-0.129,1.139
			C11.739,69.865,11.778,70.236,11.868,70.588z"/>
		<path fill="#1D1D1B" d="M26.212,64.973v1.66h-4.329v2.07h3.751v1.527h-3.751v3.699h-1.967v-8.957H26.212z"/>
		<path fill="#1D1D1B" d="M26.65,66.633v-1.66h7.337v1.66h-2.683v7.297h-1.969v-7.297H26.65z"/>
		<path fill="#1D1D1B" d="M41.585,73.93l-1.516-6.095h-0.024l-1.491,6.095h-1.999l-2.366-8.957h1.97l1.417,6.096h0.022l1.557-6.096
			h1.847l1.526,6.175h0.027l1.468-6.175h1.93l-2.41,8.957H41.585z"/>
		<path fill="#1D1D1B" d="M51.018,64.973l3.35,8.957h-2.045l-0.677-1.994h-3.35l-0.698,1.994h-1.986l3.387-8.957H51.018z
			 M51.13,70.47l-1.128-3.289h-0.027L48.81,70.47H51.13z"/>
		<path fill="#1D1D1B" d="M59.974,64.973c0.402,0,0.763,0.066,1.084,0.196c0.319,0.131,0.601,0.308,0.827,0.532
			c0.229,0.226,0.402,0.489,0.527,0.786c0.121,0.298,0.181,0.615,0.181,0.961c0,0.523-0.111,0.981-0.334,1.359
			c-0.221,0.394-0.584,0.678-1.083,0.886v0.025c0.243,0.065,0.442,0.168,0.602,0.305c0.16,0.136,0.289,0.303,0.392,0.489
			c0.099,0.188,0.169,0.396,0.216,0.626c0.048,0.225,0.077,0.445,0.093,0.667c0.012,0.146,0.021,0.314,0.025,0.504
			c0.009,0.194,0.024,0.394,0.047,0.592c0.021,0.203,0.049,0.393,0.099,0.567c0.043,0.185,0.113,0.339,0.209,0.461h-1.971
			c-0.107-0.287-0.173-0.622-0.201-1.013c-0.027-0.395-0.063-0.772-0.111-1.133c-0.071-0.465-0.212-0.811-0.429-1.027
			c-0.216-0.215-0.573-0.325-1.066-0.325h-1.967v3.498H55.14v-8.957H59.974z M59.272,69.027c0.448,0,0.791-0.1,1.015-0.302
			c0.228-0.202,0.338-0.526,0.338-0.979c0-0.436-0.11-0.753-0.338-0.948c-0.223-0.198-0.566-0.291-1.015-0.291h-2.157v2.52H59.272z"
			/>
		<path fill="#1D1D1B" d="M70.897,64.973v1.66H66.17v1.913h4.336v1.534H66.17v2.193h4.825v1.656H64.2v-8.957H70.897z"/>
		<path fill="#1D1D1B" d="M81.118,73.855c-0.425,0.186-0.855,0.276-1.291,0.276c-0.684,0-1.3-0.124-1.851-0.36
			c-0.549-0.238-1.008-0.564-1.385-0.981c-0.377-0.42-0.667-0.909-0.869-1.477c-0.199-0.559-0.3-1.174-0.3-1.825
			c0-0.664,0.101-1.286,0.3-1.859c0.202-0.576,0.492-1.074,0.869-1.5c0.379-0.428,0.836-0.761,1.385-1.003
			c0.551-0.247,1.167-0.364,1.851-0.364c0.458,0,0.905,0.071,1.336,0.208c0.433,0.137,0.821,0.339,1.17,0.606
			c0.341,0.27,0.63,0.599,0.854,0.992s0.363,0.846,0.413,1.352H81.72c-0.115-0.497-0.342-0.876-0.678-1.126
			c-0.337-0.249-0.739-0.375-1.215-0.375c-0.442,0-0.816,0.083-1.129,0.255c-0.311,0.171-0.562,0.401-0.753,0.691
			c-0.193,0.285-0.335,0.616-0.421,0.981c-0.089,0.37-0.131,0.752-0.131,1.139c0,0.38,0.042,0.751,0.131,1.103
			c0.086,0.354,0.228,0.67,0.421,0.96c0.19,0.282,0.442,0.506,0.753,0.678c0.312,0.174,0.687,0.262,1.129,0.262
			c0.65,0,1.155-0.167,1.508-0.495c0.357-0.329,0.565-0.81,0.626-1.437h-1.984V69.09h3.764v4.84h-1.254l-0.203-1.016
			C81.935,73.363,81.546,73.683,81.118,73.855z"/>
		<path fill="#1D1D1B" d="M91.916,73.247c-0.675,0.589-1.616,0.885-2.807,0.885c-1.211,0-2.148-0.296-2.815-0.876
			c-0.666-0.59-0.996-1.494-0.996-2.714v-5.569h1.969v5.569c0,0.244,0.02,0.482,0.06,0.716c0.044,0.233,0.133,0.444,0.265,0.62
			c0.14,0.176,0.32,0.327,0.558,0.442c0.239,0.11,0.558,0.167,0.961,0.167c0.704,0,1.187-0.156,1.454-0.468
			c0.269-0.312,0.399-0.807,0.399-1.478v-5.569h1.969v5.569C92.932,71.753,92.595,72.655,91.916,73.247z"/>
		<path fill="#1D1D1B" d="M99.455,64.973c0.402,0,0.766,0.066,1.084,0.196c0.321,0.131,0.601,0.308,0.826,0.532
			c0.232,0.226,0.408,0.489,0.531,0.786c0.118,0.298,0.179,0.615,0.179,0.961c0,0.523-0.112,0.981-0.334,1.359
			c-0.219,0.394-0.582,0.678-1.081,0.886v0.025c0.24,0.065,0.439,0.168,0.598,0.305c0.157,0.136,0.29,0.303,0.39,0.489
			c0.1,0.188,0.171,0.396,0.221,0.626c0.045,0.225,0.078,0.445,0.094,0.667c0.008,0.146,0.014,0.314,0.023,0.504
			c0.009,0.194,0.023,0.394,0.045,0.592c0.021,0.203,0.053,0.393,0.103,0.567c0.039,0.185,0.112,0.339,0.201,0.461h-1.966
			c-0.108-0.287-0.178-0.622-0.199-1.013c-0.027-0.395-0.063-0.772-0.113-1.133c-0.068-0.465-0.21-0.811-0.429-1.027
			c-0.215-0.215-0.575-0.325-1.067-0.325h-1.969v3.498h-1.969v-8.957H99.455z M98.754,69.027c0.45,0,0.788-0.1,1.014-0.302
			c0.225-0.202,0.34-0.526,0.34-0.979c0-0.436-0.115-0.753-0.34-0.948c-0.223-0.198-0.563-0.291-1.014-0.291h-2.16v2.52H98.754z"/>
		<path fill="#1D1D1B" d="M110.265,73.247c-0.676,0.589-1.612,0.885-2.808,0.885c-1.21,0-2.15-0.296-2.815-0.876
			c-0.664-0.59-0.998-1.494-0.998-2.714v-5.569h1.972v5.569c0,0.244,0.02,0.482,0.061,0.716c0.043,0.233,0.13,0.444,0.265,0.62
			c0.134,0.176,0.316,0.327,0.554,0.442c0.242,0.11,0.562,0.167,0.963,0.167c0.705,0,1.186-0.156,1.453-0.468
			c0.266-0.312,0.404-0.807,0.404-1.478v-5.569h1.966v5.569C111.28,71.753,110.943,72.655,110.265,73.247z"/>
	</g>
	<path fill="#1D1D1B" d="M101.28,29.486H82.147v10.253h11.974c-2.797,3.09-6.837,5.027-11.33,5.027c-8.438,0-15.28-6.84-15.28-15.28
		c0-8.439,6.842-15.281,15.28-15.281c4.827,0,9.128,2.242,11.928,5.736h15.842C106.6,8.411,95.666,0.12,82.791,0.12
		c-16.216,0-29.363,13.147-29.363,29.365c0,16.217,13.147,29.364,29.363,29.364c7.008,0,13.44-2.459,18.489-6.56v6.56h10.875v-19.11
		V29.486H101.28z"/>
	<g>
		<path fill="#1D1D1B" d="M118.144,3.005c0.159,0,0.305,0.026,0.434,0.078c0.131,0.052,0.242,0.124,0.333,0.215
			c0.091,0.088,0.162,0.193,0.212,0.313c0.049,0.119,0.074,0.246,0.074,0.384c0,0.211-0.044,0.394-0.136,0.547
			c-0.088,0.155-0.233,0.273-0.434,0.354v0.01c0.097,0.027,0.178,0.067,0.242,0.123c0.062,0.055,0.115,0.121,0.155,0.196
			c0.036,0.075,0.069,0.159,0.089,0.247c0.018,0.092,0.03,0.182,0.036,0.271c0.003,0.058,0.007,0.123,0.011,0.201
			c0.003,0.076,0.009,0.156,0.016,0.236c0.009,0.08,0.024,0.154,0.042,0.228c0.02,0.071,0.045,0.134,0.082,0.185h-0.788
			c-0.041-0.114-0.072-0.25-0.081-0.406c-0.01-0.157-0.024-0.307-0.043-0.452c-0.028-0.188-0.085-0.325-0.172-0.411
			c-0.087-0.088-0.229-0.131-0.427-0.131h-0.79v1.401h-0.789V3.005H118.144z M117.864,4.629c0.18,0,0.316-0.04,0.405-0.122
			c0.092-0.08,0.137-0.211,0.137-0.393c0-0.174-0.045-0.301-0.137-0.378c-0.091-0.079-0.226-0.118-0.405-0.118h-0.866v1.011H117.864
			z"/>
	</g>
	<path fill="#1D1D1B" d="M117.755,0.593c-2.323,0-4.205,1.883-4.205,4.207s1.882,4.209,4.205,4.209c2.324,0,4.208-1.885,4.208-4.209
		S120.079,0.593,117.755,0.593z M117.755,8.567c-2.078,0-3.768-1.688-3.768-3.768s1.689-3.768,3.768-3.768
		c2.081,0,3.771,1.688,3.771,3.768C121.522,6.882,119.836,8.567,117.755,8.567z"/>
</g>
</svg>
