<?xml version="1.0" encoding="utf-8"?>
<!-- Generator: Adobe Illustrator 16.2.1, SVG Export Plug-In . SVG Version: 6.00 Build 0)  -->
<!DOCTYPE svg PUBLIC "-//W3C//DTD SVG 1.1//EN" "http://www.w3.org/Graphics/SVG/1.1/DTD/svg11.dtd">
<svg version="1.1" id="Capa_1" xmlns="http://www.w3.org/2000/svg" xmlns:xlink="http://www.w3.org/1999/xlink" x="0px" y="0px"
	 width="75.61px" height="42.15px" viewBox="75.559 108.992 75.61 42.15" enable-background="new 75.559 108.992 75.61 42.15"
	 xml:space="preserve">
<g>
	<path d="M107.862,148.373c-0.64,0.436-1.425,0.77-2.201,0.77c-1.11,0-2.065-0.668-2.065-1.846c0-0.965,0.571-1.434,1.382-1.791
		l0.154-0.068l-0.137-0.189c-0.205-0.281-0.461-0.588-0.461-1.117c0-1.109,0.965-1.766,1.997-1.766c1.024,0,2.015,0.648,2.015,1.75
		c0,0.801-0.529,1.211-1.196,1.543l0.812,0.855c0.316-0.283,0.606-0.572,0.846-0.914l0.946,0.904l-0.81,0.871l-0.077,0.076
		l1.442,1.52h-2.092L107.862,148.373z M105.934,146.283c-0.273,0.17-0.606,0.408-0.606,0.766c0,0.387,0.385,0.59,0.726,0.59
		c0.314,0,0.631-0.109,0.896-0.264L105.934,146.283z M107.222,144.098c0-0.324-0.222-0.598-0.563-0.598
		c-0.299,0-0.537,0.213-0.537,0.529c0,0.314,0.298,0.621,0.503,0.854C106.915,144.719,107.222,144.447,107.222,144.098"/>
</g>
<g>
	<defs>
		<path id="SVGID_1_" d="M76.15,116.516c0,2.082,0.988,3.801,2.821,4.932c1.077,0.668,2.008,0.977,4.685,1.49
			c3.025,0.617,3.752,0.797,4.363,1.053c0.756,0.311,1.221,1.002,1.221,1.801c0,1.438-1.338,2.057-3.579,2.057
			c-1.481,0-2.704-0.182-3.401-0.953c-0.413-0.486-0.467-1-0.586-1.832h-6.066c0.035,1.355,0.209,2.252,0.485,2.834
			c0.61,1.465,1.686,2.57,3.142,3.289c1.569,0.797,4.013,1.26,6.486,1.26c3.405,0,5.964-0.746,7.651-2.186
			c1.338-1.154,2.035-2.799,2.035-4.725c0-2.365-1.046-4.088-3.141-5.242c-1.105-0.617-2.502-1.055-4.713-1.467
			c-3.434-0.615-3.434-0.615-4.016-0.846c-0.929-0.387-1.366-0.926-1.366-1.645c0-1.184,1.309-2.029,3.084-2.029
			c2.196,0,3.244,0.684,3.6,2.332v0.053h6.167l-0.002-0.164c-0.121-1.344-0.822-2.805-1.445-3.531
			c-1.569-1.928-4.393-2.93-8.087-2.93C79.757,110.066,76.15,112.559,76.15,116.516"/>
	</defs>
	<use xlink:href="#SVGID_1_"  overflow="visible"/>
	<clipPath id="SVGID_2_">
		<use xlink:href="#SVGID_1_"  overflow="visible"/>
	</clipPath>
	<rect x="75.607" y="110.066" clip-path="url(#SVGID_2_)" width="19.8" height="22.379"/>
</g>
<g>
	<defs>
		<path id="SVGID_3_" d="M95.406,121.256c0,6.158,4.993,11.15,11.152,11.15c2.594,0,4.982-0.887,6.876-2.373v2.373h4.023v-11.266
			h-11.267v4.023h4.611c-1.055,1.145-2.567,1.861-4.244,1.861c-3.188,0-5.771-2.584-5.771-5.77c0-3.188,2.583-5.768,5.771-5.768
			c1.868,0,3.53,0.889,4.583,2.266h6.005c-1.467-4.443-5.653-7.648-10.588-7.648C100.4,110.105,95.406,115.098,95.406,121.256"/>
	</defs>
	<use xlink:href="#SVGID_3_"  overflow="visible"/>
	<clipPath id="SVGID_4_">
		<use xlink:href="#SVGID_3_"  overflow="visible"/>
	</clipPath>
	<rect x="95.406" y="110.105" clip-path="url(#SVGID_4_)" width="22.052" height="22.301"/>
</g>
<g>
	<path d="M80.755,136.463c-0.36-0.486-0.945-0.746-1.549-0.746c-1.081,0-1.811,0.828-1.811,1.881c0,1.072,0.738,1.846,1.838,1.846
		c0.576,0,1.152-0.277,1.521-0.719v2.115c-0.586,0.182-1.009,0.316-1.558,0.316c-0.945,0-1.847-0.361-2.549-1
		c-0.747-0.676-1.09-1.559-1.09-2.568c0-0.926,0.352-1.818,0.999-2.484c0.667-0.684,1.63-1.1,2.586-1.1
		c0.566,0,1.09,0.127,1.611,0.344V136.463z"/>
	<path d="M88.293,137.453c0,2.197-1.576,3.746-3.756,3.746s-3.756-1.549-3.756-3.746c0-2.053,1.801-3.494,3.756-3.494
		S88.293,135.4,88.293,137.453 M82.618,137.463c0,1.172,0.865,2.027,1.919,2.027s1.919-0.855,1.919-2.027
		c0-0.936-0.865-1.793-1.919-1.793S82.618,136.527,82.618,137.463"/>
	<polygon points="88.211,134.184 89.977,134.184 93.21,138.336 93.229,138.336 93.229,134.184 94.994,134.184 94.994,140.977 
		93.229,140.977 89.994,136.814 89.977,136.814 89.977,140.977 88.211,140.977 	"/>
	<polygon points="97.01,135.68 97.01,136.814 98.947,136.814 98.947,138.309 97.01,138.309 97.01,140.977 95.245,140.977 
		95.245,134.184 99.146,134.184 99.146,135.68 	"/>
	<polygon points="101.171,135.68 101.171,136.814 103.162,136.814 103.162,138.309 101.171,138.309 101.171,139.48 103.27,139.48 
		103.27,140.977 99.406,140.977 99.406,134.184 103.27,134.184 103.27,135.68 	"/>
	<path d="M109.106,140.977h-2.198l-1.666-2.613h-0.018v2.613h-1.765v-6.793h2.638c1.343,0,2.36,0.641,2.36,2.09
		c0,0.938-0.522,1.748-1.485,1.918L109.106,140.977z M105.224,137.229h0.171c0.577,0,1.226-0.107,1.226-0.846
		s-0.648-0.848-1.226-0.848h-0.171V137.229z"/>
	<polygon points="110.627,135.68 110.627,136.814 112.618,136.814 112.618,138.309 110.627,138.309 110.627,139.48 112.727,139.48 
		112.727,140.977 108.862,140.977 108.862,134.184 112.727,134.184 112.727,135.68 	"/>
	<polygon points="113.096,134.184 114.861,134.184 118.094,138.336 118.112,138.336 118.112,134.184 119.878,134.184 
		119.878,140.977 118.112,140.977 114.878,136.814 114.861,136.814 114.861,140.977 113.096,140.977 	"/>
	<path d="M125.344,136.463c-0.361-0.486-0.945-0.746-1.55-0.746c-1.08,0-1.811,0.828-1.811,1.881c0,1.072,0.739,1.846,1.837,1.846
		c0.578,0,1.154-0.277,1.523-0.719v2.115c-0.586,0.182-1.01,0.316-1.56,0.316c-0.945,0-1.846-0.361-2.548-1
		c-0.748-0.676-1.09-1.559-1.09-2.568c0-0.926,0.352-1.818,1-2.484c0.666-0.684,1.63-1.1,2.585-1.1c0.568,0,1.09,0.127,1.612,0.344
		V136.463z"/>
	<polygon points="127.478,135.68 127.478,136.814 129.469,136.814 129.469,138.309 127.478,138.309 127.478,139.48 129.576,139.48 
		129.576,140.977 125.713,140.977 125.713,134.184 129.576,134.184 129.576,135.68 	"/>
	<polygon points="114.027,144.371 114.027,145.764 116.466,145.764 116.466,147.598 114.027,147.598 114.027,149.033 
		116.599,149.033 116.599,150.867 111.862,150.867 111.862,142.539 116.599,142.539 116.599,144.371 	"/>
	<polygon points="116.853,142.539 119.515,142.539 120.784,144.693 122.054,142.539 124.717,142.539 122.054,146.416 
		125.136,150.867 122.531,150.867 120.784,148.148 118.874,150.867 116.257,150.867 119.515,146.416 	"/>
	<path d="M124.66,142.539h3.314c1.788,0,3.025,0.828,3.025,2.738c0,1.967-1.061,2.828-2.949,2.828h-1.226v2.762h-2.165V142.539z
		 M126.825,146.361h0.365c0.784,0,1.556,0,1.556-1.018c0-1.047-0.717-1.059-1.556-1.059h-0.365V146.361z"/>
	<path d="M139.869,146.549c0,2.695-1.934,4.594-4.607,4.594c-2.672,0-4.604-1.898-4.604-4.594c0-2.518,2.209-4.285,4.604-4.285
		C137.659,142.264,139.869,144.031,139.869,146.549 M132.911,146.559c0,1.438,1.06,2.486,2.351,2.486
		c1.293,0,2.353-1.049,2.353-2.486c0-1.146-1.06-2.197-2.353-2.197C133.971,144.361,132.911,145.412,132.911,146.559"/>
	<polygon points="142.258,132.506 135.178,125.426 128.096,132.506 131.2,132.506 131.2,140.975 139.155,140.975 139.155,132.506 	
		"/>
	<polygon points="128.096,117.463 135.178,124.541 142.259,117.463 139.155,117.463 139.155,108.992 131.2,108.992 131.2,117.463 	
		"/>
	<polygon points="142.699,117.902 135.617,124.984 142.699,132.064 142.699,128.961 151.169,128.961 151.169,121.006 
		142.699,121.006 	"/>
	<polygon points="127.656,132.064 134.737,124.984 127.656,117.902 127.656,121.006 119.185,121.006 119.185,128.961 
		127.656,128.961 	"/>
</g>
</svg>
