<?xml version="1.0" encoding="utf-8"?>
<!-- Generator: Adobe Illustrator 16.2.1, SVG Export Plug-In . SVG Version: 6.00 Build 0)  -->
<!DOCTYPE svg PUBLIC "-//W3C//DTD SVG 1.1//EN" "http://www.w3.org/Graphics/SVG/1.1/DTD/svg11.dtd">
<svg version="1.1" id="Capa_1" xmlns="http://www.w3.org/2000/svg" xmlns:xlink="http://www.w3.org/1999/xlink" x="0px" y="0px"
	 width="175.895px" height="30.121px" viewBox="23.053 13.939 175.895 30.121"
	 enable-background="new 23.053 13.939 175.895 30.121" xml:space="preserve">
<g id="Capa_1_1_">
</g>
<g>
	<path d="M52.586,20.074c-0.871,0-1.578,0.707-1.578,1.578c0,0.17,0.027,0.334,0.078,0.487c-0.367,0.494-0.674,1.025-0.926,1.572
		c-3.927-2.058-7.613-2.854-10.781-3.004v-3.825c0.472-0.273,0.789-0.782,0.789-1.365c0-0.871-0.707-1.578-1.58-1.578
		c-0.871,0-1.578,0.707-1.578,1.578c0,0.583,0.318,1.092,0.789,1.365v3.803c-1.596,0.029-3.029,0.213-4.256,0.459
		c-3.207,0.643-5.521,1.771-6.582,2.365c-0.233-0.476-0.508-0.938-0.828-1.37c0.05-0.153,0.076-0.317,0.076-0.487
		c0-0.871-0.707-1.577-1.578-1.577s-1.578,0.706-1.578,1.577c0,0.873,0.707,1.578,1.578,1.578c0.109,0,0.215-0.011,0.318-0.031
		c1.887,2.662,1.782,6.81,1.78,6.855c-0.013,0.438,0.329,0.803,0.765,0.816c0.01,0,0.018,0,0.026,0c0.425,0,0.776-0.338,0.79-0.766
		c0.005-0.158,0.066-2.603-0.753-5.117c1.153-0.661,4.967-2.598,10.241-2.715v4.946c0,0.437,0.354,0.791,0.789,0.791
		c0.438,0,0.791-0.354,0.791-0.791v-4.924c3.062,0.147,6.535,0.942,10.213,2.904c-0.748,2.438-0.69,4.75-0.686,4.905
		c0.014,0.428,0.365,0.766,0.79,0.766c0.009,0,0.017,0,0.026-0.001c0.436-0.015,0.777-0.379,0.765-0.816
		c-0.001-0.046-0.106-4.192,1.78-6.856c0.104,0.021,0.209,0.033,0.318,0.033c0.871,0,1.578-0.707,1.578-1.58
		C54.164,20.781,53.457,20.074,52.586,20.074z"/>
	<path d="M38.619,37.544c-5.746,0-11.93-1.235-11.93-3.948c0-2.747,6.426-3.722,11.93-3.722c5.502,0,11.928,0.975,11.928,3.722
		C50.547,36.308,44.363,37.544,38.619,37.544z M38.619,31.456c-7.271,0-10.349,1.53-10.349,2.14c0,0.708,3.521,2.366,10.349,2.366
		c6.826,0,10.348-1.658,10.348-2.366C48.967,32.986,45.888,31.456,38.619,31.456z"/>
</g>
<rect x="126.912" y="16.656" fill="#3E514B" width="4.098" height="21.299"/>
<path fill="#3E514B" d="M68.543,22.493v1.995c-1.25-1.498-2.972-2.445-4.871-2.445c-4.295,0-6.92,3.832-6.92,8.279
	c0,4.449,3.099,8.056,6.92,8.056c1.899,0,3.619-0.892,4.871-2.334v1.911h4.098V22.493H68.543z M65.194,34.697
	c-2.366,0-4.286-2.002-4.286-4.472s1.92-4.472,4.286-4.472c1.354,0,2.562,0.658,3.349,1.684v5.576
	C67.756,34.04,66.551,34.697,65.194,34.697z"/>
<path fill="#3E514B" d="M162.19,22.493v1.995c-1.251-1.498-2.972-2.445-4.871-2.445c-4.294,0-6.919,3.832-6.919,8.279
	c0,4.449,3.098,8.056,6.919,8.056c1.899,0,3.62-0.892,4.871-2.334v1.911h4.099V22.493H162.19z M158.844,34.697
	c-2.368,0-4.287-2.002-4.287-4.472s1.919-4.472,4.287-4.472c1.354,0,2.562,0.658,3.348,1.684v5.576
	C161.404,34.04,160.199,34.697,158.844,34.697z"/>
<path fill="#3E514B" d="M85.033,22.243c-3.044,0-4.982,1.729-5.562,2.327v-2.077h-4.098v15.461h4.098v-10.56
	c0.736-0.664,2.213-1.804,3.656-1.804c2.037,0,2.801,1.74,2.801,1.74v10.623h4.099V26.805
	C90.027,23.456,87.823,22.243,85.033,22.243z"/>
<path fill="#3E514B" d="M143.764,22.017c-3.023,0-4.957,1.86-5.551,2.522v-7.883h-4.098v21.299h4.098V27.384
	c0.74-0.663,2.209-1.792,3.646-1.792c2.036,0,2.801,1.74,2.801,1.74v10.624h4.1v-11.15C148.76,23.456,146.553,22.017,143.764,22.017
	z"/>
<path fill="#3E514B" d="M103.502,22.493v2.271c-1.219-1.67-3.033-2.73-5.058-2.73c-3.673,0-6.651,3.482-6.651,7.778
	c0,5.291,2.979,8.006,6.651,8.006c2.024,0,3.839-0.898,5.058-2.552v2.688c0,0-0.153,3.053-4.629,3.053
	c-1.855,0-3.547-0.551-4.529-1.915l-1.803,2.894c0,0,1.256,2.074,7.041,2.074c6.877,0,8.02-4.621,8.02-6.104V22.494L103.502,22.493
	L103.502,22.493z M100.015,34.338c-2.248,0-4.071-1.977-4.071-4.416s1.823-4.417,4.071-4.417c1.481,0,2.776,0.863,3.487,2.147v4.537
	C102.791,33.475,101.496,34.338,100.015,34.338z"/>
<path fill="#3E514B" d="M125.146,30.227c0-4.473-3.551-8.098-7.932-8.098s-7.705,3.625-7.705,8.098s3.324,8.098,7.705,8.098
	c2.443,0,5.252-0.396,6.707-2.17l-1.838-2.504c0,0-1.613,1.559-4.117,1.559c-3.729,0-4.397-3.674-4.397-3.674l11.498-0.162
	C125.119,30.999,125.146,30.617,125.146,30.227z M113.471,28.863c0.121-1.985,1.849-3.562,3.968-3.562s3.847,1.576,3.968,3.562
	H113.471z"/>
<path fill="#3E514B" d="M179.903,33.086c-0.786,1.095-2.011,1.803-3.392,1.803c-2.375,0-4.299-2.087-4.299-4.66
	c0-2.574,1.924-4.66,4.299-4.66c1.339,0,2.535,0.664,3.322,1.703l2.619-2.578c-1.504-1.633-3.678-2.658-6.096-2.658
	c-4.537,0-8.214,3.607-8.214,8.058c0,4.452,3.142,8.286,8.214,8.286c2.538,0,4.703-1.09,6.173-2.781L179.903,33.086z"/>
<polygon fill="#3E514B" points="192.717,29.429 198.721,22.493 193.881,22.493 187.891,29.645 187.891,16.656 183.791,16.656 
	183.791,37.955 187.891,37.955 187.891,33.992 189.916,31.902 194.092,37.955 198.947,37.955 "/>
</svg>
