<?xml version="1.0" encoding="utf-8"?>
<!-- Generator: Adobe Illustrator 16.0.0, SVG Export Plug-In . SVG Version: 6.00 Build 0)  -->
<!DOCTYPE svg PUBLIC "-//W3C//DTD SVG 1.1//EN" "http://www.w3.org/Graphics/SVG/1.1/DTD/svg11.dtd">
<svg version="1.1" id="Capa_1" xmlns="http://www.w3.org/2000/svg" xmlns:xlink="http://www.w3.org/1999/xlink" x="0px" y="0px"
	 width="165.333px" height="72.785px" viewBox="0 0 165.333 72.785" enable-background="new 0 0 165.333 72.785"
	 xml:space="preserve">
<g>
	<path fill="#4A4A4A" d="M156.745,33.768c-2.597-2.626-5.746-3.958-9.411-4.088h-8.104h-1.538h-9.308l-2.009,14.504l-0.017-0.066
		l-0.009,0.066l-3.473-14.504l-2.336,0.026l-0.842,0.005h-0.01h-0.186h-0.008l-0.844-0.005l-2.336-0.026l-3.472,14.504l-0.007-0.066
		l-0.018,0.066l-2.011-14.504H99.96l1.341,6.131c-0.501-0.714-1.079-1.396-1.741-2.043c-2.658-2.722-5.931-4.084-9.785-4.088
		c-0.005,0-0.005,0-0.005,0h-0.007h-0.002c-3.829,0-7.105,1.366-9.799,4.088c-1.192,1.178-2.108,2.475-2.779,3.872
		c-0.278-1.988-1.148-3.727-2.653-5.2c-1.652-1.688-3.634-2.598-5.935-2.76H52.576v0.399c3.746,3.38,6.107,8.274,6.107,13.719
		c0,5.392-2.316,10.247-6.004,13.625h10.17v-7.497l4.282,7.497h10.222l-4.996-8.855c0.356-0.263,1.04-0.779,1.979-1.594
		c0.647-0.539,1.17-1.206,1.599-1.985c0.3,3.225,1.643,6.024,4.025,8.378c2.694,2.725,5.97,4.055,9.799,4.055
		c3.859,0,7.136-1.33,9.799-4.055c2.195-2.142,3.492-4.658,3.937-7.523l2.533,11.578h10.651l2.121-9.567l0.791-3.605l0.005,0.021
		l0.005-0.021l0.788,3.605l2.124,9.567h10.65l4.534-20.733v0.002v20.731h9.636c0.028,0,0.057-0.003,0.084-0.003h0.004
		c0.002,0,0.005,0,0.005,0c3.595-0.121,6.744-1.446,9.313-4.052c2.761-2.692,4.09-5.969,4.09-9.799
		C160.831,39.738,159.502,36.495,156.745,33.768z M68.237,40.096L68.237,40.096c-0.001,0.063-0.001,0.063-0.001,0.063
		c0,0.066,0,0.066,0,0.132v0.13c-0.066,0.518-0.294,0.939-0.715,1.363c-0.389,0.389-0.876,0.648-1.46,0.648h-3.192
		c-0.006-0.001-0.014-0.003-0.021-0.003v-4.705h3.213c0.584,0.031,1.069,0.262,1.46,0.683c0.486,0.454,0.681,0.941,0.715,1.59
		V40.096z M93.297,47.071c-0.973,1.005-2.107,1.496-3.535,1.496c-1.364,0-2.563-0.491-3.504-1.496
		c-1.005-0.938-1.493-2.142-1.493-3.504c0-1.395,0.488-2.562,1.493-3.569c0.941-0.974,2.143-1.463,3.504-1.463
		c1.428,0,2.562,0.489,3.535,1.463c0.972,1.008,1.495,2.177,1.495,3.569C94.791,44.93,94.268,46.133,93.297,47.071z M150.644,47.299
		c-1.005,1.039-2.271,1.557-3.668,1.557h-0.385V38.309c0.098-0.032,0.261-0.032,0.385-0.032c1.397,0,2.663,0.521,3.668,1.561
		c1.037,1.038,1.557,2.271,1.557,3.731C152.201,45.026,151.681,46.292,150.644,47.299z"/>
	<rect x="52.456" y="61.952" fill="#4A4A4A" width="0.928" height="5.065"/>
	<path fill="#4A4A4A" d="M63.917,64.248c0,0.299,0.016,0.779,0.043,1.438h-0.022c-0.228-0.399-0.523-0.86-0.888-1.379l-1.667-2.356
		H60.41v5.067h0.93v-2.296c0-0.339-0.017-0.819-0.045-1.442h0.023c0.311,0.537,0.614,1.005,0.903,1.407l1.652,2.333h0.973v-5.066
		h-0.927V64.248z"/>
	<polygon fill="#4A4A4A" points="71.379,62.728 73.013,62.728 73.013,67.018 73.941,67.018 73.943,62.728 75.575,62.728 
		75.575,61.953 71.379,61.953 	"/>
	<polygon fill="#4A4A4A" points="83.036,64.815 85.058,64.815 85.058,64.037 83.036,64.037 83.036,62.728 85.389,62.728 
		85.389,61.952 82.108,61.952 82.108,67.018 85.527,67.018 85.527,66.244 83.036,66.244 	"/>
	<path fill="#4A4A4A" d="M94.875,64.92c0.409-0.117,0.712-0.301,0.907-0.548c0.196-0.243,0.294-0.544,0.294-0.898
		c0-0.337-0.082-0.618-0.244-0.841c-0.159-0.225-0.392-0.393-0.688-0.507c-0.157-0.057-0.342-0.102-0.562-0.129
		c-0.224-0.028-0.459-0.045-0.714-0.045h-1.54v5.067h0.928v-1.963h0.637l1.375,1.963h1.111l-1.506-2.082V64.92z M94.626,64.167
		c-0.102,0.038-0.227,0.066-0.375,0.086c-0.149,0.018-0.328,0.029-0.538,0.029v0.002h-0.458v-1.552h0.663
		c0.195,0,0.363,0.007,0.495,0.027c0.137,0.017,0.247,0.049,0.335,0.087c0.132,0.063,0.23,0.142,0.289,0.247
		c0.057,0.105,0.085,0.227,0.085,0.359c0,0.161-0.036,0.301-0.11,0.426C94.94,63.999,94.813,64.096,94.626,64.167z"/>
	<path fill="#4A4A4A" d="M104.529,61.952l-2.009,5.065h0.989l0.494-1.29h1.91l0.497,1.29h0.983l-2.012-5.065H104.529z
		 M105.613,64.951h-1.31l0.174-0.45c0.139-0.356,0.296-0.799,0.473-1.33h0.014c0.18,0.527,0.337,0.969,0.474,1.33L105.613,64.951z"
		/>
	<path fill="#4A4A4A" d="M116.285,66.329c-0.268,0-0.507-0.039-0.718-0.116c-0.209-0.076-0.389-0.188-0.534-0.342
		c-0.147-0.151-0.258-0.338-0.336-0.565c-0.081-0.228-0.12-0.49-0.12-0.785c0-0.3,0.046-0.566,0.13-0.8
		c0.084-0.235,0.205-0.432,0.36-0.592c0.149-0.156,0.332-0.28,0.544-0.362c0.211-0.084,0.445-0.126,0.7-0.126
		c0.165,0,0.337,0.013,0.511,0.047c0.175,0.022,0.363,0.065,0.564,0.13v-0.788c-0.153-0.052-0.329-0.097-0.518-0.124
		c-0.192-0.026-0.395-0.043-0.609-0.043c-0.419,0.003-0.792,0.074-1.127,0.212c-0.332,0.139-0.605,0.332-0.827,0.572
		c-0.222,0.244-0.39,0.528-0.506,0.858c-0.121,0.33-0.178,0.688-0.178,1.075c0,0.377,0.056,0.721,0.164,1.033
		c0.108,0.311,0.27,0.577,0.491,0.803c0.22,0.225,0.49,0.394,0.814,0.518c0.327,0.122,0.704,0.183,1.134,0.183
		c0.218,0,0.432-0.016,0.637-0.042c0.203-0.034,0.393-0.07,0.574-0.121v-0.8c-0.176,0.055-0.364,0.103-0.562,0.129
		C116.672,66.314,116.477,66.329,116.285,66.329z"/>
	<polygon fill="#4A4A4A" points="123.704,62.728 125.337,62.728 125.337,67.018 126.266,67.018 126.268,67.018 126.268,62.728 
		127.899,62.728 127.899,61.953 123.704,61.953 	"/>
	<rect x="134.433" y="61.952" fill="#4A4A4A" width="0.929" height="5.065"/>
	<path fill="#4A4A4A" d="M144.731,64.468c-0.136,0.364-0.222,0.604-0.264,0.722c-0.042,0.119-0.109,0.312-0.202,0.59h-0.016
		c-0.094-0.277-0.162-0.471-0.201-0.59c-0.041-0.117-0.132-0.357-0.265-0.722l-0.939-2.516h-0.99l1.981,5.065h0.832l1.983-5.065
		h-0.982L144.731,64.468z"/>
	<polygon fill="#4A4A4A" points="154.075,64.815 156.097,64.815 156.097,64.037 154.075,64.037 154.075,62.728 156.428,62.728 
		156.428,61.952 153.149,61.952 153.149,67.018 156.566,67.018 156.566,66.244 154.075,66.244 	"/>
	<path fill="#4A4A4A" d="M44.634,45.843c-0.261,0.489-0.583,0.943-1.006,1.365c-0.938,0.972-2.139,1.46-3.536,1.46
		c-1.393,0-2.56-0.488-3.534-1.46c-0.938-0.94-1.427-2.143-1.423-3.507c0-1.391,0.484-2.561,1.428-3.567
		c0.971-0.973,2.139-1.461,3.533-1.461c1.396,0,2.596,0.488,3.537,1.461c0.423,0.423,0.746,0.905,1.04,1.427h9.214
		c-0.425-2.953-1.753-5.484-3.993-7.658c-2.337-2.366-5.115-3.701-8.312-4.014c-0.461-0.036-0.928-0.061-1.419-0.074
		c-0.005,0-0.01,0-0.015,0c-0.025,0-0.05,0-0.076,0c-3.819,0.003-7.058,1.367-9.78,4.088c-2.727,2.694-4.05,5.97-4.05,9.799
		c0,3.831,1.325,7.107,4.05,9.802c0.806,0.798,1.653,1.48,2.548,2.038c1.998,1.202,4.33,1.92,6.818,2.005
		c0.119,0.002,0.235,0.007,0.355,0.007c0.031,0,0.068,0.003,0.103,0.003c3.818-0.005,7.087-1.335,9.776-4.053
		c2.24-2.175,3.537-4.74,3.992-7.66H44.634z"/>
	<path fill="#4A4A4A" d="M9.601,40.149c0.956,0.629,2.243,0.362,2.868-0.595c0.63-0.954,0.362-2.239-0.594-2.868
		c-0.954-0.629-2.241-0.359-2.867,0.594C8.378,38.236,8.646,39.522,9.601,40.149z"/>
	<path fill="#4A4A4A" d="M16.281,28.591c-0.441-0.29-1.03-0.167-1.317,0.271c-0.286,0.438-0.167,1.029,0.271,1.316
		c0.439,0.289,1.031,0.168,1.317-0.271C16.843,29.466,16.718,28.88,16.281,28.591z"/>
	<circle fill="#4A4A4A" cx="12.053" cy="29.847" r="1.3"/>
	<path fill="#4A4A4A" d="M12.593,25.875c1.192,0.782,2.797,0.452,3.58-0.741c0.786-1.192,0.453-2.796-0.739-3.58
		c-1.197-0.785-2.799-0.455-3.584,0.739C11.07,23.488,11.4,25.091,12.593,25.875z"/>
	<circle fill="#4A4A4A" cx="19.379" cy="21.439" r="1.649"/>
	<path fill="#4A4A4A" d="M21.261,16.703c0.564,0.374,1.32,0.216,1.695-0.35c0.371-0.563,0.215-1.32-0.354-1.691
		c-0.562-0.371-1.317-0.214-1.691,0.35C20.541,15.573,20.699,16.331,21.261,16.703z"/>
	<path fill="#4A4A4A" d="M26.893,19.304c0.888,0.58,2.073,0.333,2.653-0.552c0.583-0.883,0.336-2.073-0.546-2.653
		c-0.882-0.581-2.073-0.335-2.655,0.548C25.761,17.532,26.008,18.72,26.893,19.304z"/>
	<circle fill="#4A4A4A" cx="27.866" cy="9.548" r="1.648"/>
	<path fill="#4A4A4A" d="M33.938,13.458c1.117,0.735,2.615,0.422,3.35-0.691c0.593-0.904,0.5-2.061-0.147-2.857
		c0.28-0.026,0.545-0.167,0.712-0.422c0.286-0.437,0.166-1.026-0.275-1.315c-0.438-0.287-1.025-0.165-1.315,0.274
		c-0.15,0.229-0.189,0.491-0.132,0.735c-1.037-0.396-2.247-0.037-2.888,0.929C32.511,11.227,32.822,12.724,33.938,13.458z"/>
	<path fill="#4A4A4A" d="M40.202,17.426c0.887,0.584,2.074,0.336,2.654-0.548c0.583-0.882,0.337-2.073-0.546-2.655
		c-0.884-0.582-2.072-0.334-2.654,0.549C39.073,15.658,39.318,16.845,40.202,17.426z"/>
	<circle fill="#4A4A4A" cx="44.76" cy="9.783" r="1.916"/>
	<path fill="#4A4A4A" d="M47.907,14.265c0.566,0.371,1.321,0.216,1.694-0.35c0.369-0.564,0.212-1.32-0.352-1.693
		c-0.563-0.369-1.321-0.212-1.69,0.352C47.185,13.137,47.343,13.895,47.907,14.265z"/>
	<circle fill="#4A4A4A" cx="55.248" cy="24.108" r="1.649"/>
	<path fill="#4A4A4A" d="M13.374,55.377c-0.76-0.501-1.783-0.29-2.286,0.472c-0.501,0.761-0.288,1.781,0.475,2.284
		c0.759,0.498,1.781,0.289,2.28-0.472C14.343,56.897,14.133,55.875,13.374,55.377z"/>
	<path fill="#4A4A4A" d="M7.758,51.375c-0.562-0.369-1.322-0.216-1.694,0.348c-0.372,0.568-0.213,1.324,0.349,1.695
		c0.568,0.369,1.326,0.214,1.696-0.349C8.479,52.502,8.322,51.745,7.758,51.375z"/>
	<polygon fill="#4A4A4A" points="14.109,46.27 14.102,46.269 14.099,46.27 	"/>
	<path fill="#4A4A4A" d="M29.963,58.981c-0.035-0.026-0.077-0.052-0.113-0.078c-0.132-0.083-0.261-0.179-0.389-0.268
		c-2.708-1.918-4.776-4.42-6.126-7.224c-0.585-1.277-1.034-2.653-1.342-4.136c-1.062-4.993-0.144-9.614,2.659-13.878
		c2.114-3.219,4.844-5.529,8.208-6.902c0.001-0.009,0.002-0.017,0.004-0.026c0.059-0.026,0.117-0.049,0.173-0.071
		c0.021,0.002,0.045,0.007,0.069,0.011c1.021-0.4,2.093-0.726,3.23-0.954c5.024-1.043,9.625-0.186,13.884,2.603
		c0.026,0.021,0.055,0.034,0.08,0.057c0.004,0.001,0.01,0.004,0.016,0.009c0.538,0.373,1.043,0.745,1.526,1.117
		c0.654,0.527,2.314-1.553,2.048-1.573c0.156-0.802-0.186-1.664-0.926-2.149c-0.236-0.154-0.494-0.254-0.756-0.306l0.011-0.004
		c0,0-0.547-0.041-0.514-0.588c0.078-0.062,0.145-0.128,0.2-0.213c0.288-0.44,0.165-1.03-0.274-1.319
		c-0.438-0.287-1.028-0.166-1.317,0.274c-0.288,0.439-0.166,1.03,0.275,1.315c0.088,0.061,0.185,0.099,0.287,0.124
		c0.006,0.024,0.021,0.044,0.038,0.062c0.192,0.187,0.11,0.378,0.049,0.472c-0.262,0.109-0.509,0.268-0.714,0.477
		c-0.124-0.206-0.292-0.385-0.504-0.525c-0.421-0.278-0.917-0.333-1.367-0.204c0.235-0.967-0.137-2.018-1.017-2.598
		c-0.289-0.188-0.604-0.31-0.929-0.361c0.131-0.105,0.246-0.231,0.342-0.379c0.16-0.243,0.237-0.515,0.258-0.789
		c0.002,0.001,0.008,0.006,0.008,0.006s0.302-1.209,1.291-0.738c0.884,0.582,2.074,0.336,2.655-0.548
		c0.582-0.884,0.335-2.075-0.546-2.657c-0.884-0.58-2.075-0.333-2.658,0.548c-0.213,0.328-0.312,0.693-0.312,1.056l-0.003-0.003
		c0,0,0,0.011,0,0.022c0,0,0,0.001,0,0.003c0,0.153-0.037,1.04-0.972,0.966c-0.004,0-0.005,0-0.005,0
		c-0.062-0.05-0.123-0.104-0.186-0.15c-0.724-0.474-1.677-0.306-2.201,0.359c-0.145-0.33-0.382-0.624-0.705-0.838
		c-0.887-0.583-2.074-0.335-2.656,0.545c-0.093,0.149-0.168,0.305-0.22,0.468c-0.029-0.024-0.06-0.044-0.089-0.062
		c-0.478-0.314-1.048-0.386-1.559-0.244c0.097-0.104,0.189-0.219,0.272-0.344c0.733-1.115,0.424-2.613-0.695-3.346
		c-1.115-0.734-2.614-0.424-3.347,0.691c-0.386,0.591-0.479,1.285-0.322,1.915c-0.952-0.443-2.11-0.14-2.707,0.766
		c-0.371,0.565-0.438,1.239-0.242,1.839c0.02,0.049,0.036,0.097,0.055,0.143c0.023,0.055,0.049,0.111,0.077,0.168
		c0.398,0.747,1.033,0.566,1.467,0.835c0.004,0.005,0.006,0.008,0.011,0.011c0.412,0.224,0.695,0.651,0.695,1.154
		c0,0.726-0.592,1.315-1.315,1.315c-0.725,0-1.313-0.59-1.313-1.315c0-0.069,0.011-0.131,0.02-0.196c0-0.01,0-0.015,0-0.021
		c0.078-0.788-0.194-1.117-0.316-1.221c-0.019-0.018-0.036-0.03-0.057-0.046c-0.268-0.177-0.57-0.26-0.869-0.267
		c-0.001,0-0.001-0.003-0.001-0.003c-0.007,0-0.013,0-0.017,0c-0.003,0-0.007,0-0.012,0c-0.067-0.005-0.138,0.003-0.223,0.021
		c-0.141,0.021-0.281,0.055-0.413,0.108c-0.187,0.05-0.397,0.09-0.626,0.083c-0.327-0.014-0.622-0.318-1.055-0.489
		c-0.002,0-0.004,0-0.004,0c-0.84-0.354-1.832-0.076-2.348,0.711c-0.257,0.389-0.348,0.836-0.299,1.263
		c0,0.008-0.001,0.009-0.001,0.016c0.002,0.024,0.008,0.042,0.014,0.065c0.045,0.294,0.162,0.577,0.339,0.824
		c0.03,0.108-0.036,0.146-0.151,0.139c-0.012,0.003-0.026,0.007-0.042,0.009c-0.066,0.008-0.131,0.023-0.199,0.039
		c-0.057,0.009-0.118,0.023-0.181,0.041c-0.129,0.032-0.213,0.085-0.276,0.131c-0.032,0.02-0.064,0.042-0.096,0.063
		c-0.077,0.025-0.216,0.022-0.272-0.267c-0.023-0.057-0.043-0.119-0.066-0.178c-0.012-0.031-0.025-0.065-0.036-0.099
		c-0.023-0.053-0.042-0.102-0.066-0.145h-0.002c-0.146-0.284-0.363-0.532-0.646-0.721c-0.886-0.581-2.075-0.334-2.657,0.548
		c-0.582,0.886-0.335,2.076,0.548,2.659c0.414,0.27,0.89,0.355,1.337,0.288l0.054,0.035c0.24-0.129,0.517-0.211,0.809-0.211
		c0.958,0,1.736,0.779,1.736,1.734c0,0.958-0.777,1.736-1.736,1.736c-0.958,0-1.734-0.777-1.734-1.736
		c0-0.009,0.004-0.021,0.004-0.029c-0.12-0.491-0.415-0.945-0.875-1.247c-0.957-0.629-2.242-0.361-2.868,0.595
		c-0.63,0.955-0.363,2.24,0.595,2.866c0.283,0.188,0.597,0.294,0.917,0.331c-0.667,0.002-1.315,0.325-1.712,0.916
		c-0.066-0.056-0.137-0.108-0.211-0.155c-1.192-0.783-2.797-0.453-3.581,0.743c-0.784,1.19-0.45,2.795,0.742,3.578
		c0.395,0.259,0.839,0.397,1.279,0.417c-0.074,0.082-0.145,0.169-0.208,0.263c-0.629,0.955-0.362,2.239,0.594,2.866
		c0.262,0.173,0.549,0.27,0.843,0.312c0.672,0.463,0.748,1.298,0.386,1.895c-0.086,0.12-0.775,0.96-1.809,0.26
		c-0.161-0.193-0.348-0.368-0.573-0.513c-1.192-0.785-2.792-0.453-3.576,0.741c-0.596,0.905-0.545,2.044,0.034,2.888
		c-0.396-0.109-0.817-0.062-1.18,0.12c0.058-0.68-0.246-1.368-0.855-1.77c-0.887-0.582-2.073-0.335-2.655,0.548
		c-0.583,0.885-0.335,2.072,0.547,2.656c0.644,0.422,1.443,0.406,2.057,0.028c-0.001,0.537,0.257,1.065,0.746,1.385
		c0.757,0.498,1.78,0.285,2.282-0.475c0.049-0.073,0.086-0.146,0.123-0.222c0,0,0,0,0-0.002c0.077-0.167,0.123-0.342,0.139-0.522
		c0.243-0.574,0.677-0.645,0.866-0.645c0.024,0,0.049,0.003,0.073,0.003c0.009,0.001,0.013,0.001,0.017,0.001
		c0.236-0.005,0.472-0.039,0.695-0.106c0,0.001,0,0.004,0,0.004c0.006-0.003,0.011-0.004,0.017-0.008
		c0.188-0.059,0.369-0.133,0.542-0.232c0.529-0.092,0.685,0.392,0.548,0.803c0,0.004-0.002,0.004-0.002,0.006
		c-0.056,0.079-0.094,0.169-0.135,0.256c-0.005,0.008-0.008,0.015-0.016,0.022c-0.062,0.074-0.08,0.145-0.073,0.209
		c-0.246,0.797,0.041,1.684,0.77,2.165c0.359,0.238,0.768,0.335,1.164,0.311c0.137-0.05,0.285-0.083,0.44-0.083
		c0.101-0.029,0.194-0.062,0.289-0.106c-0.018,0.044-0.026,0.086-0.037,0.133c0.617,0.115,1.087,0.658,1.087,1.311
		c0,0.738-0.601,1.338-1.336,1.338c-0.588,0-1.083-0.382-1.262-0.91c-0.042-0.078-0.081-0.17-0.12-0.285
		c-0.013-0.185-0.052-0.37-0.118-0.543c-0.001-0.009-0.002-0.016-0.002-0.023c-0.002-0.002-0.004-0.002-0.005-0.006
		c-0.14-0.357-0.385-0.677-0.729-0.903c-0.885-0.581-2.076-0.336-2.655,0.549c-0.582,0.887-0.335,2.074,0.546,2.657
		c0.752,0.491,1.725,0.386,2.354-0.206c0.013-0.007,0.026-0.017,0.036-0.026c0.008-0.009,0.019-0.018,0.028-0.025
		c0.004-0.005,0.009-0.01,0.013-0.017c0.451-0.483,0.587-0.154,0.627,0.13c-0.27,0.986,0.106,2.071,1.006,2.661
		c0.037,0.024,0.078,0.049,0.119,0.071c-0.22,0.138-0.411,0.326-0.563,0.554c-0.581,0.884-0.335,2.074,0.547,2.657
		c0.878,0.577,2.05,0.337,2.638-0.526c-0.001,0.688,0.333,1.363,0.952,1.77c0.976,0.643,2.282,0.368,2.923-0.604
		c0.233-0.49,0.153-0.867,0.153-0.867l0.015,0.007c-0.009-0.043-0.014-0.086-0.014-0.131c0-0.444,0.362-0.808,0.808-0.808
		s0.808,0.363,0.808,0.808c0,0.266-0.127,0.499-0.327,0.646c-0.089,0.07-0.192,0.118-0.306,0.143
		c-0.072,0.038-0.143,0.085-0.216,0.14c-0.026,0.026-0.054,0.052-0.083,0.079c-0.039,0.039-0.082,0.072-0.115,0.115
		c-0.074,0.081-0.141,0.169-0.203,0.263c-0.278,0.425-0.401,0.902-0.388,1.373c-0.234,1.296-1.145,0.696-1.145,0.696
		c-0.564-0.369-1.322-0.214-1.693,0.352c-0.372,0.564-0.212,1.32,0.351,1.691c0.564,0.37,1.325,0.216,1.694-0.351
		c0.035-0.05,0.06-0.107,0.085-0.163v0.007c0,0,0.004-0.01,0.009-0.023c0.016-0.029,0.026-0.066,0.038-0.101
		c0.118-0.282,0.488-0.948,1.25-0.619c0.135,0.158,0.296,0.3,0.48,0.424c0.208,0.135,0.431,0.233,0.659,0.297
		c-0.04,0.044-0.077,0.087-0.11,0.139c-0.291,0.438-0.167,1.028,0.271,1.316c0.441,0.287,1.031,0.166,1.317-0.273
		c0.253-0.387,0.189-0.89-0.13-1.2c0.508-0.157,0.965-0.487,1.278-0.961c0.113-0.171,0.196-0.351,0.263-0.539
		c0.194,0.436,0.509,0.817,0.935,1.098c1.193,0.786,2.796,0.452,3.578-0.74c0.104-0.157,0.187-0.323,0.248-0.491
		c0.291,0.178-0.387-0.758-0.387-0.758C32.301,60.35,31.12,59.735,29.963,58.981z M22.416,31.833c0.001,0,0.002,0.003,0.006,0.003
		c-0.007,0.004-0.015,0.007-0.021,0.01L22.416,31.833z M19.973,30.969c0.029,0,0.06-0.009,0.091-0.01
		c0.002,0.008,0.004,0.017,0.005,0.023C20.039,30.979,20.004,30.971,19.973,30.969z"/>
	<path fill="#4A4A4A" d="M32.857,26.515c0.088-0.035,0.174-0.068,0.264-0.104c-0.005-0.001-0.01-0.001-0.015-0.002
		c-0.08,0.031-0.166,0.055-0.246,0.087C32.859,26.502,32.858,26.509,32.857,26.515z"/>
</g>
</svg>
