<?xml version="1.0" encoding="utf-8"?>
<!-- Generator: Adobe Illustrator 16.0.0, SVG Export Plug-In . SVG Version: 6.00 Build 0)  -->
<!DOCTYPE svg PUBLIC "-//W3C//DTD SVG 1.1//EN" "http://www.w3.org/Graphics/SVG/1.1/DTD/svg11.dtd">
<svg version="1.1" id="Capa_1" xmlns="http://www.w3.org/2000/svg" xmlns:xlink="http://www.w3.org/1999/xlink" x="0px" y="0px"
	 width="238px" height="240.361px" viewBox="0 0 238 240.361" enable-background="new 0 0 238 240.361" xml:space="preserve">
<g>
	<g opacity="0.1">
		<circle cx="119.417" cy="119.122" r="108.659"/>
	</g>
	<g opacity="0.2">
		<g>
			<path d="M119.479,234.931h-0.062c-2.299,0-4.629-0.068-6.927-0.204l0.117-1.996c2.259,0.133,4.55,0.2,6.81,0.2L119.479,234.931z
				 M126.471,234.719l-0.121-1.995c2.285-0.139,4.588-0.347,6.844-0.618l0.24,1.985
				C131.139,234.367,128.795,234.579,126.471,234.719z M105.525,234.106c-2.313-0.276-4.641-0.626-6.916-1.04l0.357-1.967
				c2.235,0.404,4.521,0.749,6.795,1.021L105.525,234.106z M140.348,233.045l-0.358-1.967c2.252-0.412,4.514-0.896,6.72-1.438
				l0.479,1.94C144.939,232.133,142.641,232.626,140.348,233.045z M91.77,231.609c-2.26-0.555-4.528-1.184-6.741-1.87l0.594-1.91
				c2.174,0.676,4.402,1.294,6.622,1.837L91.77,231.609z M153.924,229.703l-0.596-1.908c2.189-0.685,4.375-1.438,6.496-2.245
				l0.711,1.869C158.376,228.239,156.152,229.008,153.924,229.703z M78.403,227.459c-2.181-0.826-4.358-1.729-6.473-2.68
				l0.821-1.824c2.077,0.937,4.217,1.821,6.36,2.633L78.403,227.459z M166.982,224.742l-0.821-1.822
				c2.082-0.939,4.157-1.954,6.168-3.011l0.933,1.77C171.215,222.755,169.104,223.785,166.982,224.742z M65.637,221.712
				c-2.062-1.082-4.112-2.239-6.098-3.44l1.035-1.711c1.951,1.18,3.967,2.317,5.992,3.383L65.637,221.712z M179.344,218.241
				l-1.037-1.711c1.95-1.182,3.891-2.438,5.764-3.734l1.14,1.646C183.302,215.76,181.328,217.038,179.344,218.241z M53.663,214.466
				c-1.913-1.321-3.81-2.718-5.636-4.148l1.234-1.574c1.795,1.406,3.658,2.779,5.538,4.079L53.663,214.466z M190.835,210.295
				l-1.233-1.574c1.801-1.411,3.576-2.894,5.276-4.4l1.326,1.496C194.475,207.351,192.667,208.857,190.835,210.295z M42.656,205.838
				c-1.737-1.539-3.451-3.15-5.095-4.792l1.414-1.416c1.614,1.613,3.3,3.198,5.007,4.712L42.656,205.838z M201.296,201.021
				l-1.414-1.414c1.616-1.616,3.202-3.301,4.714-5.005l1.496,1.325C204.555,197.663,202.939,199.377,201.296,201.021z
				 M32.765,195.956c-1.537-1.731-3.046-3.539-4.481-5.368l1.572-1.233c1.412,1.797,2.894,3.571,4.405,5.273L32.765,195.956z
				 M210.574,190.56L209,189.325c1.41-1.797,2.783-3.659,4.082-5.537l1.645,1.139C213.404,186.837,212.008,188.732,210.574,190.56z
				 M24.133,184.964c-1.321-1.907-2.602-3.881-3.804-5.862l1.711-1.037c1.181,1.946,2.438,3.886,3.737,5.762L24.133,184.964z
				 M218.533,179.052l-1.711-1.036c1.187-1.957,2.324-3.973,3.387-5.989l1.77,0.932C220.898,175.01,219.74,177.061,218.533,179.052z
				 M16.889,173.02c-1.078-2.047-2.109-4.157-3.066-6.274l1.822-0.824c0.94,2.081,1.954,4.155,3.014,6.167L16.889,173.02z
				 M225.048,166.663l-1.823-0.822c0.94-2.087,1.828-4.227,2.637-6.356l1.869,0.709
				C226.908,162.361,226.005,164.539,225.048,166.663z M11.142,160.297c-0.827-2.173-1.597-4.396-2.287-6.608l1.908-0.597
				c0.68,2.174,1.436,4.358,2.248,6.494L11.142,160.297z M230.016,153.569l-1.91-0.594c0.68-2.184,1.299-4.41,1.843-6.622
				l1.94,0.477C231.336,149.081,230.706,151.349,230.016,153.569z M6.975,146.951c-0.555-2.247-1.048-4.548-1.468-6.837l1.967-0.361
				c0.413,2.25,0.898,4.512,1.442,6.721L6.975,146.951z M233.35,139.989l-1.967-0.357c0.407-2.245,0.754-4.53,1.024-6.795
				l1.985,0.238C234.116,135.379,233.766,137.705,233.35,139.989z M4.456,133.2c-0.279-2.311-0.492-4.654-0.631-6.963l1.996-0.121
				c0.137,2.27,0.346,4.572,0.621,6.844L4.456,133.2z M235.018,126.11l-1.996-0.119c0.137-2.272,0.205-4.584,0.205-6.869
				l-0.002-0.243h2l0.002,0.231C235.227,121.447,235.154,123.799,235.018,126.11z M5.608,119.244h-2v-0.122
				c0-2.289,0.067-4.599,0.2-6.865l1.996,0.117c-0.13,2.229-0.196,4.498-0.196,6.748V119.244z M233.007,112.01
				c-0.141-2.279-0.353-4.583-0.628-6.845l1.984-0.242c0.281,2.302,0.496,4.645,0.64,6.964L233.007,112.01z M6.412,105.528
				l-1.986-0.236c0.275-2.312,0.624-4.64,1.036-6.917l1.969,0.357C7.024,100.969,6.683,103.256,6.412,105.528z M231.34,98.373
				c-0.414-2.246-0.902-4.506-1.449-6.718l1.94-0.481c0.558,2.251,1.055,4.552,1.476,6.836L231.34,98.373z M8.858,92.009
				l-1.943-0.475c0.552-2.257,1.18-4.524,1.866-6.74l1.91,0.592C10.017,87.563,9.4,89.791,8.858,92.009z M228.035,85.038
				c-0.686-2.184-1.444-4.367-2.256-6.491l1.869-0.714c0.824,2.162,1.598,4.385,2.295,6.606L228.035,85.038z M12.93,78.875
				l-1.871-0.708c0.823-2.177,1.724-4.354,2.676-6.474l1.824,0.818C14.623,74.594,13.738,76.735,12.93,78.875z M223.141,72.213
				c-0.938-2.069-1.953-4.145-3.021-6.163l1.769-0.935c1.086,2.055,2.119,4.165,3.073,6.271L223.141,72.213z M18.57,66.325
				l-1.771-0.93c1.083-2.063,2.24-4.115,3.439-6.099l1.711,1.035C20.771,62.28,19.635,64.297,18.57,66.325z M216.73,60.078
				c-1.183-1.944-2.44-3.882-3.742-5.758l1.643-1.142c1.325,1.909,2.605,3.882,3.811,5.859L216.73,60.078z M25.684,54.556
				l-1.646-1.137c1.318-1.91,2.713-3.807,4.146-5.637l1.574,1.233C28.35,50.814,26.979,52.678,25.684,54.556z M208.902,48.796
				c-1.412-1.795-2.896-3.566-4.409-5.27l1.493-1.329c1.541,1.73,3.051,3.535,4.488,5.362L208.902,48.796z M34.158,43.732
				l-1.498-1.325c1.538-1.738,3.15-3.453,4.791-5.097l1.416,1.413C37.254,40.339,35.67,42.023,34.158,43.732z M199.773,38.53
				c-1.619-1.614-3.306-3.197-5.012-4.707l1.324-1.498c1.736,1.535,3.452,3.146,5.1,4.788L199.773,38.53z M43.866,34.006
				l-1.328-1.495c1.738-1.544,3.543-3.053,5.364-4.483l1.236,1.572C47.348,31.006,45.574,32.488,43.866,34.006z M189.477,29.427
				c-1.8-1.407-3.664-2.777-5.541-4.071l1.135-1.646c1.91,1.316,3.808,2.711,5.64,4.145L189.477,29.427z M54.664,25.518
				l-1.139-1.645c1.91-1.324,3.883-2.604,5.861-3.807l1.037,1.71C58.48,22.958,56.542,24.217,54.664,25.518z M178.156,21.623
				c-1.961-1.183-3.979-2.317-5.995-3.376l0.928-1.771c2.054,1.075,4.106,2.23,6.101,3.435L178.156,21.623z M66.398,18.392
				l-0.934-1.771c2.052-1.082,4.162-2.114,6.274-3.069l0.824,1.822C70.488,16.313,68.414,17.328,66.398,18.392z M165.973,15.239
				c-2.084-0.937-4.227-1.818-6.363-2.626l0.707-1.871c2.175,0.821,4.354,1.721,6.476,2.673L165.973,15.239z M78.897,12.738
				l-0.713-1.869c2.172-0.828,4.396-1.599,6.608-2.291l0.598,1.909C83.216,11.167,81.031,11.925,78.897,12.738z M153.098,10.379
				c-2.182-0.674-4.41-1.29-6.627-1.83l0.475-1.942c2.255,0.55,4.522,1.177,6.742,1.861L153.098,10.379z M92.009,8.635l-0.48-1.94
				c2.249-0.558,4.55-1.052,6.837-1.472l0.361,1.967C96.479,7.603,94.219,8.089,92.009,8.635z M139.748,7.124
				c-2.243-0.404-4.53-0.745-6.798-1.014l0.235-1.986c2.308,0.273,4.635,0.62,6.918,1.032L139.748,7.124z M105.521,6.153
				l-0.242-1.985c2.304-0.28,4.646-0.494,6.964-0.636l0.121,1.996C110.086,5.668,107.784,5.878,105.521,6.153z M126.105,5.507
				c-2.213-0.128-4.463-0.192-6.688-0.192h-0.184v-2h0.184c2.267,0,4.556,0.065,6.804,0.195L126.105,5.507z"/>
		</g>
	</g>
</g>
<g>
	<path fill="#4A4A4A" d="M192.744,108.767c-2.596-2.626-5.746-3.958-9.41-4.088h-8.104h-1.539h-9.309l-2.008,14.503l-0.018-0.065
		l-0.008,0.065l-3.475-14.503l-2.336,0.026l-0.842,0.005h-0.01h-0.186h-0.008l-0.844-0.005l-2.336-0.026l-3.473,14.503l-0.008-0.065
		l-0.018,0.065l-2.01-14.503h-10.848l1.342,6.131c-0.502-0.714-1.078-1.396-1.74-2.043c-2.658-2.722-5.932-4.084-9.785-4.088
		c-0.006,0-0.006,0-0.006,0h-0.006h-0.002c-3.83,0-7.105,1.366-9.8,4.088c-1.192,1.178-2.108,2.475-2.779,3.873
		c-0.278-1.989-1.148-3.728-2.653-5.201c-1.652-1.688-3.634-2.598-5.935-2.76H88.576v0.399c3.746,3.38,6.107,8.274,6.107,13.719
		c0,5.391-2.316,10.247-6.004,13.625h10.17v-7.497l4.282,7.497h10.222l-4.996-8.854c0.356-0.264,1.04-0.779,1.979-1.594
		c0.647-0.539,1.17-1.207,1.599-1.986c0.3,3.225,1.643,6.023,4.025,8.377c2.694,2.725,5.97,4.055,9.798,4.055
		c3.859,0,7.137-1.33,9.801-4.055c2.193-2.143,3.49-4.658,3.936-7.522l2.533,11.577h10.652l2.119-9.565l0.791-3.606l0.006,0.021
		l0.006-0.021l0.787,3.606l2.125,9.565h10.648l4.535-20.732v0.002v20.73h9.635c0.029,0,0.059-0.003,0.084-0.003h0.004
		c0.002,0,0.006,0,0.006,0c3.596-0.121,6.744-1.446,9.312-4.052c2.762-2.692,4.09-5.968,4.09-9.798
		C196.83,114.738,195.502,111.494,192.744,108.767z M104.237,115.095L104.237,115.095c-0.001,0.063-0.001,0.063-0.001,0.063
		c0,0.065,0,0.065,0,0.132v0.13c-0.066,0.519-0.294,0.938-0.715,1.363c-0.389,0.389-0.876,0.647-1.46,0.647h-3.192
		c-0.006,0-0.014-0.003-0.021-0.003v-4.704h3.213c0.584,0.03,1.069,0.262,1.46,0.683c0.486,0.454,0.681,0.94,0.715,1.59
		L104.237,115.095L104.237,115.095z M129.297,122.071c-0.973,1.005-2.107,1.495-3.535,1.495c-1.363,0-2.562-0.49-3.504-1.495
		c-1.006-0.938-1.492-2.143-1.492-3.505c0-1.395,0.486-2.562,1.492-3.568c0.941-0.975,2.143-1.463,3.504-1.463
		c1.428,0,2.562,0.488,3.535,1.463c0.973,1.008,1.494,2.177,1.494,3.568C130.791,119.929,130.268,121.133,129.297,122.071z
		 M186.645,122.299c-1.006,1.039-2.271,1.556-3.668,1.556h-0.387v-10.546c0.1-0.031,0.262-0.031,0.387-0.031
		c1.396,0,2.662,0.521,3.668,1.561c1.037,1.038,1.557,2.271,1.557,3.73C188.201,120.025,187.682,121.292,186.645,122.299z"/>
	<rect x="88.456" y="136.951" fill="#4A4A4A" width="0.928" height="5.065"/>
	<path fill="#4A4A4A" d="M99.917,139.247c0,0.299,0.016,0.779,0.043,1.438h-0.022c-0.228-0.398-0.523-0.859-0.888-1.379
		l-1.667-2.355H96.41v5.066h0.93v-2.295c0-0.34-0.017-0.82-0.045-1.442h0.023c0.311,0.536,0.614,1.005,0.903,1.407l1.652,2.332
		h0.973v-5.065h-0.927v2.294H99.917z"/>
	<polygon fill="#4A4A4A" points="107.379,137.727 109.013,137.727 109.013,142.016 109.941,142.016 109.943,137.727 
		111.575,137.727 111.575,136.952 107.379,136.952 	"/>
	<polygon fill="#4A4A4A" points="119.036,139.813 121.059,139.813 121.059,139.036 119.036,139.036 119.036,137.727 
		121.389,137.727 121.389,136.951 118.108,136.951 118.108,142.016 121.527,142.016 121.527,141.243 119.036,141.243 	"/>
	<path fill="#4A4A4A" d="M130.875,139.919c0.408-0.117,0.711-0.301,0.906-0.548c0.197-0.243,0.295-0.544,0.295-0.897
		c0-0.338-0.082-0.619-0.244-0.842c-0.16-0.225-0.393-0.393-0.688-0.507c-0.158-0.058-0.344-0.103-0.562-0.129
		c-0.225-0.028-0.459-0.045-0.715-0.045h-1.539v5.067h0.928v-1.963h0.637l1.375,1.963h1.111l-1.506-2.082v-0.018H130.875z
		 M130.625,139.166c-0.102,0.038-0.227,0.065-0.375,0.086c-0.148,0.019-0.328,0.029-0.537,0.029v0.002h-0.459v-1.552h0.664
		c0.195,0,0.363,0.007,0.494,0.026c0.137,0.017,0.248,0.05,0.336,0.087c0.131,0.063,0.23,0.143,0.289,0.247
		c0.057,0.105,0.084,0.228,0.084,0.359c0,0.161-0.035,0.301-0.109,0.426C130.939,138.998,130.812,139.094,130.625,139.166z"/>
	<path fill="#4A4A4A" d="M140.529,136.951l-2.01,5.065h0.988l0.494-1.291h1.91l0.498,1.291h0.982l-2.012-5.065H140.529z
		 M141.613,139.95h-1.311l0.174-0.45c0.139-0.356,0.297-0.799,0.473-1.33h0.014c0.182,0.527,0.338,0.97,0.475,1.33L141.613,139.95z"
		/>
	<path fill="#4A4A4A" d="M152.285,141.328c-0.268,0-0.508-0.039-0.719-0.116c-0.209-0.076-0.389-0.188-0.533-0.342
		c-0.146-0.151-0.258-0.338-0.336-0.564c-0.082-0.229-0.121-0.49-0.121-0.785c0-0.301,0.047-0.566,0.131-0.801
		s0.205-0.432,0.359-0.592c0.148-0.156,0.332-0.279,0.545-0.361c0.211-0.084,0.445-0.127,0.699-0.127
		c0.166,0,0.338,0.014,0.512,0.047c0.174,0.022,0.363,0.065,0.564,0.131v-0.788c-0.154-0.052-0.33-0.097-0.52-0.124
		c-0.191-0.026-0.395-0.043-0.609-0.043c-0.418,0.003-0.791,0.074-1.127,0.212c-0.332,0.139-0.604,0.332-0.826,0.571
		c-0.223,0.244-0.391,0.528-0.506,0.858c-0.121,0.33-0.178,0.688-0.178,1.075c0,0.377,0.055,0.721,0.164,1.033
		c0.107,0.311,0.27,0.576,0.49,0.803c0.221,0.225,0.49,0.395,0.814,0.518c0.326,0.123,0.703,0.184,1.135,0.184
		c0.217,0,0.432-0.016,0.637-0.042c0.203-0.034,0.393-0.07,0.574-0.121v-0.8c-0.178,0.055-0.365,0.103-0.562,0.129
		C152.672,141.313,152.477,141.328,152.285,141.328z"/>
	<polygon fill="#4A4A4A" points="159.703,137.727 161.336,137.727 161.336,142.016 162.266,142.016 162.268,142.016 
		162.268,137.727 163.898,137.727 163.898,136.952 159.703,136.952 	"/>
	<rect x="170.434" y="136.951" fill="#4A4A4A" width="0.928" height="5.065"/>
	<path fill="#4A4A4A" d="M180.73,139.467c-0.135,0.364-0.223,0.604-0.264,0.722c-0.043,0.119-0.109,0.312-0.201,0.591h-0.018
		c-0.094-0.277-0.162-0.472-0.201-0.591c-0.041-0.116-0.131-0.356-0.264-0.722l-0.939-2.516h-0.99l1.98,5.065h0.832l1.984-5.065
		h-0.982L180.73,139.467z"/>
	<polygon fill="#4A4A4A" points="190.074,139.813 192.098,139.813 192.098,139.036 190.074,139.036 190.074,137.727 
		192.428,137.727 192.428,136.951 189.148,136.951 189.148,142.016 192.566,142.016 192.566,141.243 190.074,141.243 	"/>
	<path fill="#4A4A4A" d="M80.634,120.843c-0.261,0.489-0.583,0.943-1.006,1.365c-0.938,0.972-2.139,1.46-3.536,1.46
		c-1.393,0-2.56-0.488-3.534-1.46c-0.938-0.94-1.427-2.144-1.423-3.507c0-1.391,0.484-2.561,1.428-3.567
		c0.971-0.973,2.139-1.461,3.533-1.461c1.396,0,2.596,0.488,3.537,1.461c0.423,0.423,0.746,0.905,1.04,1.427h9.214
		c-0.425-2.953-1.753-5.483-3.993-7.658c-2.337-2.366-5.115-3.701-8.312-4.014c-0.461-0.036-0.928-0.061-1.419-0.074
		c-0.005,0-0.01,0-0.015,0c-0.025,0-0.05,0-0.076,0c-3.819,0.003-7.058,1.367-9.78,4.088c-2.727,2.694-4.05,5.97-4.05,9.799
		c0,3.832,1.325,7.106,4.05,9.801c0.806,0.798,1.653,1.48,2.548,2.038c1.998,1.202,4.33,1.92,6.818,2.005
		c0.119,0.002,0.235,0.007,0.355,0.007c0.031,0,0.068,0.003,0.103,0.003c3.818-0.005,7.087-1.334,9.776-4.053
		c2.24-2.175,3.537-4.74,3.992-7.659L80.634,120.843L80.634,120.843z"/>
	<path fill="#4A4A4A" d="M45.601,115.148c0.956,0.629,2.243,0.362,2.868-0.595c0.63-0.954,0.362-2.239-0.594-2.868
		c-0.954-0.629-2.241-0.359-2.867,0.594C44.378,113.236,44.646,114.521,45.601,115.148z"/>
	<path fill="#4A4A4A" d="M52.281,103.59c-0.441-0.29-1.03-0.167-1.317,0.271c-0.286,0.438-0.167,1.029,0.271,1.315
		c0.439,0.289,1.031,0.168,1.317-0.271C52.843,104.465,52.718,103.879,52.281,103.59z"/>
	<circle fill="#4A4A4A" cx="48.053" cy="104.846" r="1.3"/>
	<path fill="#4A4A4A" d="M48.593,100.874c1.192,0.782,2.797,0.452,3.58-0.741c0.786-1.192,0.453-2.796-0.739-3.58
		c-1.197-0.785-2.799-0.455-3.584,0.739C47.07,98.488,47.4,100.09,48.593,100.874z"/>
	<circle fill="#4A4A4A" cx="55.379" cy="96.438" r="1.649"/>
	<path fill="#4A4A4A" d="M57.261,91.702c0.564,0.374,1.32,0.216,1.695-0.35c0.371-0.563,0.215-1.32-0.354-1.691
		c-0.562-0.371-1.317-0.214-1.691,0.35C56.541,90.573,56.699,91.33,57.261,91.702z"/>
	<path fill="#4A4A4A" d="M62.893,94.303c0.888,0.58,2.073,0.333,2.653-0.552c0.583-0.883,0.336-2.073-0.546-2.653
		c-0.882-0.581-2.073-0.335-2.655,0.548C61.761,92.531,62.008,93.719,62.893,94.303z"/>
	<circle fill="#4A4A4A" cx="63.866" cy="84.547" r="1.648"/>
	<path fill="#4A4A4A" d="M69.938,88.457c1.117,0.735,2.615,0.422,3.35-0.691c0.593-0.904,0.5-2.061-0.147-2.857
		c0.28-0.026,0.545-0.167,0.712-0.422c0.286-0.438,0.166-1.026-0.275-1.315c-0.438-0.287-1.025-0.165-1.315,0.274
		c-0.15,0.229-0.189,0.491-0.132,0.735c-1.037-0.396-2.247-0.037-2.888,0.929C68.511,86.226,68.822,87.723,69.938,88.457z"/>
	<path fill="#4A4A4A" d="M76.202,92.425c0.887,0.584,2.074,0.336,2.654-0.548c0.583-0.882,0.337-2.073-0.546-2.655
		c-0.884-0.582-2.072-0.334-2.654,0.549C75.073,90.657,75.318,91.844,76.202,92.425z"/>
	<circle fill="#4A4A4A" cx="80.76" cy="84.782" r="1.916"/>
	<path fill="#4A4A4A" d="M83.907,89.264c0.566,0.371,1.321,0.216,1.694-0.35c0.369-0.564,0.212-1.32-0.352-1.693
		c-0.563-0.369-1.321-0.212-1.69,0.352C83.185,88.136,83.343,88.894,83.907,89.264z"/>
	<circle fill="#4A4A4A" cx="91.248" cy="99.107" r="1.649"/>
	<path fill="#4A4A4A" d="M49.374,130.376c-0.76-0.501-1.783-0.29-2.286,0.473c-0.501,0.76-0.288,1.78,0.475,2.283
		c0.759,0.498,1.781,0.289,2.28-0.472C50.343,131.895,50.133,130.874,49.374,130.376z"/>
	<path fill="#4A4A4A" d="M43.758,126.374c-0.562-0.369-1.322-0.216-1.694,0.348c-0.372,0.568-0.213,1.324,0.349,1.695
		c0.568,0.369,1.326,0.214,1.696-0.35C44.479,127.501,44.322,126.744,43.758,126.374z"/>
	<polygon fill="#4A4A4A" points="50.109,121.269 50.102,121.269 50.099,121.269 	"/>
	<path fill="#4A4A4A" d="M65.963,133.979c-0.035-0.025-0.077-0.052-0.113-0.078c-0.132-0.082-0.261-0.178-0.389-0.268
		c-2.708-1.918-4.776-4.42-6.126-7.224c-0.585-1.277-1.034-2.653-1.342-4.135c-1.062-4.994-0.144-9.615,2.659-13.879
		c2.114-3.219,4.844-5.529,8.208-6.902c0.001-0.009,0.002-0.017,0.004-0.026c0.059-0.026,0.117-0.049,0.173-0.071
		c0.021,0.002,0.045,0.007,0.069,0.011c1.021-0.4,2.093-0.726,3.23-0.954c5.024-1.043,9.625-0.186,13.884,2.603
		c0.026,0.021,0.055,0.034,0.08,0.057c0.004,0.001,0.01,0.004,0.016,0.009c0.538,0.373,1.043,0.745,1.526,1.117
		c0.654,0.527,2.314-1.553,2.048-1.573c0.156-0.802-0.186-1.664-0.926-2.149c-0.236-0.154-0.494-0.254-0.756-0.306l0.011-0.004
		c0,0-0.547-0.041-0.514-0.588c0.078-0.062,0.145-0.128,0.2-0.213c0.288-0.44,0.165-1.03-0.274-1.319
		c-0.438-0.287-1.028-0.166-1.317,0.274c-0.288,0.438-0.166,1.03,0.275,1.314c0.088,0.062,0.185,0.099,0.287,0.124
		c0.006,0.024,0.021,0.044,0.038,0.062c0.192,0.187,0.11,0.378,0.049,0.472c-0.262,0.109-0.509,0.268-0.714,0.477
		c-0.124-0.206-0.292-0.385-0.504-0.525c-0.421-0.278-0.917-0.333-1.367-0.204c0.235-0.967-0.137-2.018-1.017-2.598
		c-0.289-0.188-0.604-0.31-0.929-0.361c0.131-0.105,0.246-0.231,0.342-0.379c0.16-0.243,0.237-0.515,0.258-0.789
		c0.002,0.001,0.008,0.006,0.008,0.006s0.302-1.209,1.291-0.738c0.884,0.582,2.074,0.336,2.655-0.548
		c0.582-0.884,0.335-2.075-0.546-2.657c-0.884-0.58-2.075-0.333-2.658,0.548c-0.213,0.328-0.312,0.693-0.312,1.056l-0.003-0.003
		c0,0,0,0.011,0,0.022c0,0,0,0.001,0,0.003c0,0.153-0.037,1.04-0.972,0.966c-0.004,0-0.005,0-0.005,0
		c-0.062-0.05-0.123-0.104-0.186-0.15c-0.724-0.474-1.677-0.306-2.201,0.359c-0.145-0.33-0.382-0.624-0.705-0.838
		c-0.887-0.583-2.074-0.335-2.656,0.545c-0.093,0.149-0.168,0.305-0.22,0.468c-0.029-0.024-0.06-0.044-0.089-0.062
		c-0.478-0.314-1.048-0.386-1.559-0.244c0.097-0.104,0.189-0.219,0.272-0.344c0.733-1.115,0.424-2.613-0.695-3.346
		c-1.115-0.734-2.614-0.424-3.347,0.691c-0.386,0.591-0.479,1.285-0.322,1.915c-0.952-0.443-2.11-0.14-2.707,0.766
		c-0.371,0.565-0.438,1.239-0.242,1.839c0.02,0.049,0.036,0.097,0.055,0.143c0.023,0.055,0.049,0.111,0.077,0.168
		c0.398,0.747,1.033,0.566,1.467,0.835c0.004,0.005,0.006,0.008,0.011,0.011c0.412,0.224,0.695,0.651,0.695,1.154
		c0,0.726-0.592,1.315-1.315,1.315c-0.725,0-1.313-0.59-1.313-1.315c0-0.069,0.011-0.131,0.02-0.196c0-0.01,0-0.015,0-0.021
		c0.078-0.788-0.194-1.117-0.316-1.221c-0.019-0.018-0.036-0.03-0.057-0.046c-0.268-0.177-0.57-0.26-0.869-0.267
		c-0.001,0-0.001-0.003-0.001-0.003c-0.007,0-0.013,0-0.017,0c-0.003,0-0.007,0-0.012,0c-0.067-0.005-0.138,0.003-0.223,0.021
		c-0.141,0.021-0.281,0.055-0.413,0.108c-0.187,0.05-0.397,0.09-0.626,0.083c-0.327-0.014-0.622-0.318-1.055-0.489
		c-0.002,0-0.004,0-0.004,0c-0.84-0.354-1.832-0.076-2.348,0.711c-0.257,0.389-0.348,0.836-0.299,1.263
		c0,0.008-0.001,0.009-0.001,0.016c0.002,0.024,0.008,0.042,0.014,0.065c0.045,0.294,0.162,0.577,0.339,0.824
		c0.03,0.108-0.036,0.146-0.151,0.139c-0.012,0.003-0.026,0.007-0.042,0.009c-0.066,0.008-0.131,0.023-0.199,0.039
		c-0.057,0.009-0.118,0.023-0.181,0.041c-0.129,0.032-0.213,0.085-0.276,0.131c-0.032,0.02-0.064,0.042-0.096,0.063
		c-0.077,0.025-0.216,0.022-0.272-0.267c-0.023-0.057-0.043-0.119-0.066-0.178c-0.012-0.031-0.025-0.065-0.036-0.099
		c-0.023-0.053-0.042-0.102-0.066-0.145h-0.002c-0.146-0.284-0.363-0.532-0.646-0.721c-0.886-0.581-2.075-0.334-2.657,0.548
		c-0.582,0.886-0.335,2.076,0.548,2.659c0.414,0.27,0.89,0.355,1.337,0.288l0.054,0.035c0.24-0.129,0.517-0.211,0.809-0.211
		c0.958,0,1.736,0.779,1.736,1.734c0,0.958-0.777,1.736-1.736,1.736c-0.958,0-1.734-0.777-1.734-1.736
		c0-0.009,0.004-0.021,0.004-0.029c-0.12-0.491-0.415-0.945-0.875-1.247c-0.957-0.629-2.242-0.361-2.868,0.595
		c-0.63,0.955-0.363,2.24,0.595,2.866c0.283,0.188,0.597,0.294,0.917,0.331c-0.667,0.002-1.315,0.325-1.712,0.916
		c-0.066-0.056-0.137-0.108-0.211-0.155c-1.192-0.783-2.797-0.453-3.581,0.743c-0.784,1.19-0.45,2.795,0.742,3.578
		c0.395,0.259,0.839,0.396,1.279,0.417c-0.074,0.082-0.145,0.169-0.208,0.263c-0.629,0.955-0.362,2.239,0.594,2.866
		c0.262,0.173,0.549,0.271,0.843,0.312c0.672,0.463,0.748,1.299,0.386,1.896c-0.086,0.12-0.775,0.96-1.809,0.26
		c-0.161-0.192-0.348-0.368-0.573-0.513c-1.192-0.785-2.792-0.453-3.576,0.74c-0.596,0.905-0.545,2.045,0.034,2.889
		c-0.396-0.109-0.817-0.062-1.18,0.12c0.058-0.681-0.246-1.368-0.855-1.771c-0.887-0.582-2.073-0.335-2.655,0.549
		c-0.583,0.885-0.335,2.072,0.547,2.656c0.644,0.422,1.443,0.406,2.057,0.028c-0.001,0.537,0.257,1.064,0.746,1.385
		c0.757,0.498,1.78,0.285,2.282-0.475c0.049-0.073,0.086-0.146,0.123-0.223c0,0,0,0,0-0.002c0.077-0.167,0.123-0.342,0.139-0.521
		c0.243-0.574,0.677-0.646,0.866-0.646c0.024,0,0.049,0.003,0.073,0.003c0.009,0.002,0.013,0.002,0.017,0.002
		c0.236-0.006,0.472-0.039,0.695-0.106c0,0.001,0,0.004,0,0.004c0.006-0.003,0.011-0.004,0.017-0.008
		c0.188-0.06,0.369-0.134,0.542-0.232c0.529-0.092,0.685,0.392,0.548,0.804c0,0.004-0.002,0.004-0.002,0.006
		c-0.056,0.078-0.094,0.168-0.135,0.256c-0.005,0.008-0.008,0.015-0.016,0.021c-0.062,0.074-0.08,0.146-0.073,0.209
		c-0.246,0.797,0.041,1.684,0.77,2.164c0.359,0.238,0.768,0.335,1.164,0.312c0.137-0.051,0.285-0.083,0.44-0.083
		c0.101-0.029,0.194-0.062,0.289-0.106c-0.018,0.044-0.026,0.086-0.037,0.133c0.617,0.115,1.087,0.658,1.087,1.312
		c0,0.737-0.601,1.338-1.336,1.338c-0.588,0-1.083-0.382-1.262-0.91c-0.042-0.078-0.081-0.17-0.12-0.285
		c-0.013-0.185-0.052-0.37-0.118-0.543c-0.001-0.009-0.002-0.016-0.002-0.022c-0.002-0.002-0.004-0.002-0.005-0.006
		c-0.14-0.357-0.385-0.678-0.729-0.903c-0.885-0.581-2.076-0.336-2.655,0.549c-0.582,0.888-0.335,2.074,0.546,2.657
		c0.752,0.49,1.725,0.386,2.354-0.206c0.013-0.007,0.026-0.017,0.036-0.026c0.008-0.009,0.019-0.018,0.028-0.025
		c0.004-0.004,0.009-0.01,0.013-0.017c0.451-0.483,0.587-0.153,0.627,0.13c-0.27,0.986,0.106,2.071,1.006,2.661
		c0.037,0.024,0.078,0.05,0.119,0.071c-0.22,0.138-0.411,0.326-0.563,0.554c-0.581,0.884-0.335,2.074,0.547,2.657
		c0.878,0.577,2.05,0.337,2.638-0.525c-0.001,0.688,0.333,1.362,0.952,1.77c0.976,0.643,2.282,0.368,2.923-0.604
		c0.233-0.49,0.153-0.867,0.153-0.867l0.015,0.007c-0.009-0.043-0.014-0.087-0.014-0.132c0-0.443,0.362-0.808,0.808-0.808
		c0.446,0,0.808,0.363,0.808,0.808c0,0.267-0.127,0.5-0.327,0.646c-0.089,0.07-0.192,0.118-0.306,0.143
		c-0.072,0.039-0.143,0.086-0.216,0.141c-0.026,0.025-0.054,0.052-0.083,0.079c-0.039,0.039-0.082,0.071-0.115,0.114
		c-0.074,0.082-0.141,0.17-0.203,0.264c-0.278,0.425-0.401,0.902-0.388,1.373c-0.234,1.296-1.145,0.695-1.145,0.695
		c-0.564-0.369-1.322-0.213-1.693,0.353c-0.372,0.563-0.212,1.319,0.351,1.69c0.564,0.371,1.325,0.217,1.694-0.351
		c0.035-0.05,0.06-0.106,0.085-0.163v0.008c0,0,0.004-0.011,0.009-0.023c0.016-0.029,0.026-0.066,0.038-0.102
		c0.118-0.281,0.488-0.947,1.25-0.619c0.135,0.158,0.296,0.301,0.48,0.425c0.208,0.135,0.431,0.232,0.659,0.297
		c-0.04,0.044-0.077,0.087-0.11,0.139c-0.291,0.438-0.167,1.028,0.271,1.316c0.441,0.286,1.031,0.166,1.317-0.273
		c0.253-0.387,0.189-0.89-0.13-1.2c0.508-0.156,0.965-0.486,1.278-0.961c0.113-0.171,0.196-0.351,0.263-0.539
		c0.194,0.437,0.509,0.817,0.935,1.099c1.193,0.786,2.796,0.452,3.578-0.74c0.104-0.157,0.187-0.323,0.248-0.491
		c0.291,0.178-0.387-0.758-0.387-0.758C68.301,135.348,67.12,134.733,65.963,133.979z M58.416,106.832
		c0.001,0,0.002,0.003,0.006,0.003c-0.007,0.004-0.015,0.007-0.021,0.01L58.416,106.832z M55.973,105.968
		c0.029,0,0.06-0.009,0.091-0.01c0.002,0.008,0.004,0.017,0.005,0.023C56.039,105.978,56.004,105.97,55.973,105.968z"/>
	<path fill="#4A4A4A" d="M68.857,101.514c0.088-0.035,0.174-0.068,0.264-0.104c-0.005-0.001-0.01-0.001-0.015-0.002
		c-0.08,0.031-0.166,0.055-0.246,0.087C68.859,101.501,68.858,101.508,68.857,101.514z"/>
</g>
</svg>
