<?xml version="1.0" encoding="utf-8"?>
<!-- Generator: Adobe Illustrator 16.2.1, SVG Export Plug-In . SVG Version: 6.00 Build 0)  -->
<!DOCTYPE svg PUBLIC "-//W3C//DTD SVG 1.1//EN" "http://www.w3.org/Graphics/SVG/1.1/DTD/svg11.dtd">
<svg version="1.1" id="Capa_1" xmlns="http://www.w3.org/2000/svg" xmlns:xlink="http://www.w3.org/1999/xlink" x="0px" y="0px"
	 width="151.63px" height="34.352px" viewBox="2223.029 1877.435 151.63 34.352"
	 enable-background="new 2223.029 1877.435 151.63 34.352" xml:space="preserve">
<g id="Capa_1_1_">
	<g>
		<path d="M2265.929,1885.849c0.035,2.07,1.355,2.922,2.885,2.922c1.095,0,1.757-0.193,2.329-0.435l0.26,1.093
			c-0.538,0.242-1.459,0.521-2.797,0.521c-2.592,0-4.139-1.701-4.139-4.24c0-2.54,1.494-4.538,3.945-4.538
			c2.747,0,3.478,2.417,3.478,3.963c0,0.314-0.034,0.557-0.052,0.714H2265.929z M2270.412,1884.754
			c0.018-0.976-0.399-2.485-2.121-2.485c-1.547,0-2.224,1.425-2.346,2.485H2270.412z"/>
		<path d="M2273.578,1888.213c0.451,0.295,1.252,0.606,2.016,0.606c1.111,0,1.633-0.556,1.633-1.25c0-0.73-0.433-1.13-1.563-1.546
			c-1.513-0.541-2.224-1.374-2.224-2.381c0-1.357,1.093-2.471,2.901-2.471c0.852,0,1.6,0.243,2.069,0.524l-0.383,1.109
			c-0.331-0.209-0.938-0.487-1.721-0.487c-0.904,0-1.408,0.522-1.408,1.148c0,0.695,0.504,1.01,1.6,1.426
			c1.461,0.557,2.208,1.284,2.208,2.538c0,1.478-1.147,2.52-3.146,2.52c-0.923,0-1.772-0.226-2.364-0.573L2273.578,1888.213z"/>
		<path d="M2286.666,1889.464c-0.4,0.207-1.285,0.486-2.416,0.486c-2.537,0-4.188-1.721-4.188-4.294c0-2.589,1.772-4.465,4.52-4.465
			c0.903,0,1.703,0.224,2.12,0.433l-0.348,1.182c-0.365-0.209-0.938-0.399-1.772-0.399c-1.93,0-2.973,1.425-2.973,3.182
			c0,1.946,1.251,3.146,2.919,3.146c0.87,0,1.443-0.227,1.878-0.418L2286.666,1889.464z"/>
		<path d="M2295.499,1887.481c0,0.871,0.017,1.638,0.067,2.296h-1.356l-0.086-1.372h-0.034c-0.399,0.677-1.287,1.564-2.781,1.564
			c-1.321,0-2.902-0.73-2.902-3.688v-4.919h1.528v4.661c0,1.598,0.487,2.676,1.878,2.676c1.025,0,1.737-0.714,2.016-1.39
			c0.089-0.226,0.141-0.504,0.141-0.783v-5.164h1.53V1887.481z"/>
		<path d="M2298.889,1885.849c0.035,2.07,1.354,2.922,2.885,2.922c1.096,0,1.755-0.193,2.329-0.435l0.26,1.093
			c-0.538,0.242-1.459,0.521-2.799,0.521c-2.589,0-4.138-1.701-4.138-4.24c0-2.54,1.495-4.538,3.945-4.538
			c2.748,0,3.479,2.417,3.479,3.963c0,0.314-0.035,0.557-0.053,0.714H2298.889z M2303.371,1884.754
			c0.019-0.976-0.398-2.485-2.119-2.485c-1.548,0-2.227,1.425-2.348,2.485H2303.371z"/>
		<path d="M2306.744,1877.435h1.529v12.342h-1.529V1877.435z"/>
		<path d="M2315.505,1889.777l-0.121-1.059h-0.051c-0.472,0.659-1.373,1.251-2.573,1.251c-1.703,0-2.574-1.201-2.574-2.416
			c0-2.034,1.809-3.146,5.059-3.128v-0.178c0-0.694-0.19-1.946-1.912-1.946c-0.781,0-1.598,0.243-2.191,0.627l-0.347-1.01
			c0.696-0.452,1.703-0.746,2.764-0.746c2.574,0,3.201,1.756,3.201,3.441v3.146c0,0.73,0.032,1.444,0.138,2.018H2315.505z
			 M2315.279,1885.483c-1.668-0.033-3.564,0.262-3.564,1.895c0,0.991,0.661,1.46,1.444,1.46c1.095,0,1.79-0.695,2.034-1.406
			c0.051-0.157,0.086-0.33,0.086-0.488V1885.483L2315.279,1885.483z"/>
	</g>
	<g>
		<path d="M2274.311,1898.519c-0.068-1.51-0.156-3.332-0.139-4.912h-0.053c-0.383,1.424-0.867,3.004-1.389,4.479l-1.701,5.068
			h-1.649l-1.562-4.999c-0.451-1.493-0.867-3.09-1.18-4.548h-0.035c-0.053,1.527-0.121,3.385-0.208,4.981l-0.261,4.705h-1.996
			l0.78-11.699h2.812l1.527,4.703c0.418,1.371,0.782,2.76,1.077,4.062h0.051c0.313-1.267,0.712-2.708,1.164-4.079l1.613-4.686h2.778
			l0.677,11.699h-2.083L2274.311,1898.519z"/>
		<path d="M2280.298,1899.665c0.053,1.528,1.249,2.187,2.604,2.187c0.988,0,1.699-0.137,2.343-0.381l0.312,1.476
			c-0.729,0.296-1.735,0.521-2.951,0.521c-2.742,0-4.356-1.685-4.356-4.269c0-2.344,1.423-4.549,4.131-4.549
			c2.743,0,3.646,2.257,3.646,4.114c0,0.399-0.035,0.711-0.068,0.901H2280.298z M2284.012,1898.172
			c0.018-0.78-0.33-2.064-1.753-2.064c-1.319,0-1.874,1.195-1.962,2.064H2284.012z"/>
		<path d="M2287.743,1897.564c0-1.145-0.017-1.96-0.069-2.724h1.857l0.069,1.614h0.069c0.416-1.198,1.406-1.806,2.31-1.806
			c0.207,0,0.329,0.018,0.503,0.052v2.015c-0.175-0.035-0.365-0.071-0.625-0.071c-1.025,0-1.719,0.659-1.91,1.616
			c-0.033,0.19-0.069,0.416-0.069,0.659v4.374h-2.135V1897.564L2287.743,1897.564z"/>
		<path d="M2299.979,1903.034c-0.45,0.208-1.335,0.433-2.396,0.433c-2.639,0-4.356-1.685-4.356-4.304
			c0-2.535,1.736-4.514,4.704-4.514c0.781,0,1.58,0.174,2.066,0.399l-0.383,1.596c-0.348-0.154-0.85-0.328-1.614-0.328
			c-1.632,0-2.603,1.196-2.586,2.741c0,1.736,1.128,2.725,2.586,2.725c0.747,0,1.267-0.156,1.683-0.329L2299.979,1903.034z"/>
		<path d="M2306.313,1903.293l-0.137-0.938h-0.053c-0.521,0.66-1.406,1.127-2.499,1.127c-1.701,0-2.656-1.232-2.656-2.516
			c0-2.135,1.892-3.211,5.018-3.193v-0.139c0-0.557-0.227-1.477-1.72-1.477c-0.833,0-1.7,0.261-2.273,0.625l-0.417-1.389
			c0.625-0.383,1.719-0.746,3.055-0.746c2.708,0,3.488,1.719,3.488,3.559v3.055c0,0.764,0.036,1.51,0.122,2.031H2306.313
			L2306.313,1903.293z M2306.037,1899.163c-1.51-0.035-2.951,0.294-2.951,1.578c0,0.834,0.539,1.216,1.216,1.216
			c0.851,0,1.475-0.556,1.665-1.163c0.054-0.155,0.07-0.33,0.07-0.469V1899.163z"/>
		<path d="M2318.17,1890.968v9.945c0,0.868,0.033,1.807,0.068,2.38h-1.91l-0.086-1.337h-0.035c-0.502,0.938-1.527,1.528-2.759,1.528
			c-2.015,0-3.61-1.72-3.61-4.322c-0.018-2.829,1.753-4.514,3.784-4.514c1.161,0,1.995,0.485,2.377,1.111h0.036v-4.792H2318.17
			L2318.17,1890.968z M2316.035,1898.364c0-0.174-0.019-0.382-0.053-0.557c-0.191-0.832-0.867-1.51-1.841-1.51
			c-1.37,0-2.134,1.216-2.134,2.795c0,1.546,0.764,2.673,2.117,2.673c0.868,0,1.631-0.59,1.841-1.51
			c0.051-0.19,0.069-0.399,0.069-0.624V1898.364z"/>
		<path d="M2328.497,1898.988c0,3.108-2.188,4.497-4.341,4.497c-2.395,0-4.234-1.65-4.234-4.357c0-2.778,1.822-4.479,4.374-4.479
			C2326.812,1894.649,2328.497,1896.419,2328.497,1898.988z M2322.125,1899.075c0,1.632,0.8,2.865,2.102,2.865
			c1.215,0,2.065-1.199,2.065-2.898c0-1.32-0.59-2.83-2.048-2.83C2322.733,1896.211,2322.125,1897.668,2322.125,1899.075z"/>
		<path d="M2332.695,1892.428v2.412h2.031v1.596h-2.031v3.732c0,1.024,0.278,1.562,1.094,1.562c0.365,0,0.644-0.053,0.833-0.105
			l0.035,1.632c-0.312,0.122-0.868,0.209-1.545,0.209c-0.78,0-1.44-0.261-1.839-0.693c-0.451-0.486-0.659-1.251-0.659-2.361v-3.976
			h-1.216v-1.596h1.216v-1.91L2332.695,1892.428z"/>
		<path d="M2337.746,1899.665c0.053,1.528,1.25,2.187,2.604,2.187c0.989,0,1.701-0.137,2.344-0.381l0.312,1.476
			c-0.729,0.296-1.735,0.521-2.949,0.521c-2.743,0-4.357-1.685-4.357-4.269c0-2.344,1.424-4.549,4.131-4.549
			c2.742,0,3.646,2.257,3.646,4.114c0,0.399-0.036,0.711-0.069,0.901H2337.746z M2341.461,1898.172
			c0.018-0.78-0.33-2.064-1.752-2.064c-1.32,0-1.875,1.195-1.963,2.064H2341.461z"/>
		<path d="M2351.406,1903.034c-0.451,0.208-1.337,0.433-2.395,0.433c-2.639,0-4.357-1.685-4.357-4.304
			c0-2.535,1.736-4.514,4.703-4.514c0.782,0,1.58,0.174,2.066,0.399l-0.383,1.596c-0.347-0.154-0.85-0.328-1.613-0.328
			c-1.632,0-2.604,1.196-2.587,2.741c0,1.736,1.13,2.725,2.587,2.725c0.745,0,1.267-0.156,1.683-0.329L2351.406,1903.034z"/>
		<path d="M2352.985,1897.356c0-0.971-0.018-1.788-0.069-2.516h1.875l0.104,1.267h0.052c0.365-0.659,1.284-1.458,2.69-1.458
			c1.477,0,3.004,0.954,3.004,3.627v5.018h-2.136v-4.774c0-1.216-0.45-2.134-1.613-2.134c-0.852,0-1.441,0.606-1.667,1.25
			c-0.068,0.19-0.088,0.45-0.088,0.694v4.964h-2.151V1897.356z"/>
		<path d="M2362.914,1903.293v-8.453h2.151v8.453H2362.914z"/>
		<path d="M2372.112,1903.293l-0.139-0.938h-0.052c-0.521,0.66-1.406,1.127-2.499,1.127c-1.702,0-2.656-1.232-2.656-2.516
			c0-2.135,1.891-3.211,5.015-3.193v-0.139c0-0.557-0.225-1.477-1.717-1.477c-0.834,0-1.702,0.261-2.274,0.625l-0.417-1.389
			c0.626-0.383,1.719-0.746,3.056-0.746c2.707,0,3.488,1.719,3.488,3.559v3.055c0,0.764,0.035,1.51,0.122,2.031H2372.112
			L2372.112,1903.293z M2371.835,1899.163c-1.511-0.035-2.952,0.294-2.952,1.578c0,0.834,0.539,1.216,1.216,1.216
			c0.851,0,1.476-0.556,1.667-1.163c0.051-0.155,0.069-0.33,0.069-0.469V1899.163z"/>
	</g>
	<g>
		<path d="M2264.472,1905.446h2.597v0.676h-1.775v1.241h1.656v0.674h-1.656v1.91h-0.821V1905.446L2264.472,1905.446z"/>
		<path d="M2270.74,1908.292c0,1.194-0.84,1.729-1.668,1.729c-0.923,0-1.629-0.635-1.629-1.677c0-1.068,0.7-1.722,1.682-1.722
			C2270.094,1906.623,2270.74,1907.303,2270.74,1908.292z M2268.291,1908.323c0,0.629,0.307,1.104,0.809,1.104
			c0.467,0,0.793-0.462,0.793-1.116c0-0.507-0.227-1.088-0.787-1.088C2268.523,1907.224,2268.291,1907.784,2268.291,1908.323z"/>
		<path d="M2271.415,1907.743c0-0.439-0.007-0.754-0.026-1.048h0.714l0.026,0.622h0.027c0.16-0.461,0.542-0.694,0.889-0.694
			c0.079,0,0.127,0.006,0.193,0.02v0.774c-0.066-0.012-0.14-0.027-0.24-0.027c-0.395,0-0.66,0.255-0.736,0.622
			c-0.012,0.073-0.025,0.158-0.025,0.254v1.682h-0.821V1907.743L2271.415,1907.743z"/>
		<path d="M2273.793,1907.664c0-0.374-0.008-0.688-0.028-0.969h0.708l0.034,0.481h0.02c0.161-0.254,0.455-0.554,1.002-0.554
			c0.428,0,0.761,0.238,0.902,0.602h0.013c0.113-0.181,0.246-0.314,0.4-0.408c0.18-0.127,0.387-0.193,0.654-0.193
			c0.541,0,1.089,0.366,1.089,1.407v1.917h-0.802v-1.796c0-0.539-0.187-0.861-0.581-0.861c-0.28,0-0.487,0.201-0.573,0.434
			c-0.021,0.081-0.041,0.182-0.041,0.274v1.949h-0.801v-1.882c0-0.453-0.181-0.775-0.561-0.775c-0.308,0-0.515,0.24-0.588,0.469
			c-0.033,0.078-0.048,0.173-0.048,0.266v1.923h-0.8V1907.664L2273.793,1907.664z"/>
		<path d="M2281.283,1909.947l-0.053-0.359h-0.021c-0.201,0.253-0.541,0.434-0.962,0.434c-0.653,0-1.021-0.475-1.021-0.97
			c0-0.82,0.729-1.234,1.93-1.226v-0.056c0-0.213-0.086-0.567-0.662-0.567c-0.32,0-0.653,0.101-0.873,0.24l-0.16-0.533
			c0.24-0.147,0.66-0.287,1.175-0.287c1.042,0,1.342,0.661,1.342,1.368v1.175c0,0.295,0.015,0.581,0.047,0.781H2281.283
			L2281.283,1909.947z M2281.176,1908.358c-0.58-0.014-1.134,0.113-1.134,0.607c0,0.321,0.206,0.469,0.467,0.469
			c0.328,0,0.567-0.214,0.641-0.448c0.021-0.061,0.026-0.126,0.026-0.18V1908.358z"/>
		<path d="M2282.847,1907.664c0-0.374-0.007-0.688-0.028-0.969h0.722l0.04,0.488h0.021c0.141-0.255,0.494-0.561,1.035-0.561
			c0.567,0,1.155,0.366,1.155,1.395v1.93h-0.822v-1.835c0-0.468-0.173-0.822-0.619-0.822c-0.328,0-0.555,0.234-0.643,0.482
			c-0.025,0.073-0.032,0.173-0.032,0.267v1.908h-0.828V1907.664L2282.847,1907.664z"/>
		<path d="M2289.664,1905.205v3.828c0,0.334,0.013,0.694,0.026,0.914h-0.735l-0.032-0.513h-0.015
			c-0.193,0.36-0.588,0.587-1.062,0.587c-0.773,0-1.389-0.661-1.389-1.663c-0.007-1.089,0.674-1.735,1.455-1.735
			c0.446,0,0.768,0.187,0.915,0.428h0.014v-1.845L2289.664,1905.205L2289.664,1905.205z M2288.842,1908.051
			c0-0.065-0.008-0.146-0.021-0.215c-0.072-0.319-0.332-0.581-0.706-0.581c-0.528,0-0.822,0.468-0.822,1.077
			c0,0.593,0.294,1.027,0.815,1.027c0.334,0,0.627-0.227,0.708-0.581c0.019-0.073,0.026-0.153,0.026-0.24V1908.051z"/>
		<path d="M2293.636,1908.292c0,1.194-0.841,1.729-1.669,1.729c-0.922,0-1.63-0.635-1.63-1.677c0-1.068,0.702-1.722,1.685-1.722
			C2292.989,1906.623,2293.636,1907.303,2293.636,1908.292z M2291.187,1908.323c0,0.629,0.307,1.104,0.807,1.104
			c0.467,0,0.795-0.462,0.795-1.116c0-0.507-0.228-1.088-0.788-1.088C2291.42,1907.224,2291.187,1907.784,2291.187,1908.323z"/>
		<path d="M2295.692,1907.778c0-0.427-0.013-0.776-0.027-1.083h0.72l0.043,0.503h0.012c0.241-0.368,0.621-0.574,1.116-0.574
			c0.748,0,1.369,0.64,1.369,1.655c0,1.175-0.743,1.742-1.483,1.742c-0.407,0-0.748-0.174-0.914-0.434h-0.014v1.682h-0.821V1907.778
			z M2296.514,1908.586c0,0.078,0.007,0.153,0.025,0.226c0.081,0.335,0.375,0.574,0.723,0.574c0.521,0,0.828-0.435,0.828-1.075
			c0-0.574-0.281-1.042-0.809-1.042c-0.34,0-0.654,0.248-0.735,0.607c-0.019,0.067-0.032,0.14-0.032,0.208V1908.586
			L2296.514,1908.586z"/>
		<path d="M2299.598,1907.743c0-0.439-0.007-0.754-0.025-1.048h0.714l0.026,0.622h0.027c0.16-0.461,0.54-0.694,0.888-0.694
			c0.08,0,0.127,0.006,0.194,0.02v0.774c-0.067-0.012-0.141-0.027-0.242-0.027c-0.393,0-0.66,0.255-0.732,0.622
			c-0.014,0.073-0.028,0.158-0.028,0.254v1.682h-0.821V1907.743L2299.598,1907.743z"/>
		<path d="M2305.006,1908.292c0,1.194-0.84,1.729-1.668,1.729c-0.923,0-1.63-0.635-1.63-1.677c0-1.068,0.701-1.722,1.683-1.722
			C2304.359,1906.623,2305.006,1907.303,2305.006,1908.292z M2302.557,1908.323c0,0.629,0.308,1.104,0.808,1.104
			c0.468,0,0.794-0.462,0.794-1.116c0-0.507-0.227-1.088-0.787-1.088C2302.789,1907.224,2302.557,1907.784,2302.557,1908.323z"/>
		<path d="M2305.774,1909.947v-2.638h-0.441v-0.614h0.441v-0.14c0-0.42,0.114-0.841,0.393-1.109c0.241-0.226,0.567-0.312,0.85-0.312
			c0.22,0,0.394,0.033,0.526,0.08l-0.059,0.634c-0.088-0.034-0.2-0.06-0.348-0.06c-0.408,0-0.549,0.341-0.549,0.742v0.166h0.716
			v0.613h-0.708v2.638H2305.774L2305.774,1909.947z"/>
		<path d="M2308.319,1908.551c0.019,0.588,0.479,0.842,1,0.842c0.38,0,0.655-0.054,0.901-0.147l0.12,0.567
			c-0.279,0.114-0.668,0.201-1.136,0.201c-1.054,0-1.675-0.647-1.675-1.643c0-0.9,0.547-1.749,1.589-1.749
			c1.055,0,1.402,0.868,1.402,1.582c0,0.153-0.014,0.272-0.027,0.347H2308.319L2308.319,1908.551z M2309.747,1907.978
			c0.007-0.301-0.126-0.795-0.675-0.795c-0.507,0-0.721,0.461-0.753,0.795H2309.747z"/>
		<path d="M2311.143,1909.191c0.187,0.115,0.54,0.236,0.834,0.236c0.361,0,0.521-0.146,0.521-0.36c0-0.222-0.133-0.336-0.534-0.477
			c-0.634-0.219-0.901-0.566-0.895-0.946c0-0.575,0.474-1.021,1.229-1.021c0.36,0,0.675,0.092,0.863,0.192l-0.16,0.582
			c-0.141-0.08-0.402-0.188-0.689-0.188c-0.294,0-0.453,0.142-0.453,0.342c0,0.207,0.152,0.307,0.567,0.453
			c0.587,0.214,0.86,0.514,0.868,0.996c0,0.587-0.461,1.014-1.322,1.014c-0.395,0-0.748-0.093-0.989-0.227L2311.143,1909.191z"/>
		<path d="M2314.842,1905.787c0,0.249-0.182,0.441-0.468,0.441c-0.274,0-0.453-0.194-0.453-0.441c0-0.251,0.186-0.447,0.46-0.447
			C2314.66,1905.339,2314.835,1905.536,2314.842,1905.787z M2313.967,1909.947v-3.252h0.827v3.252H2313.967z"/>
		<path d="M2318.769,1908.292c0,1.194-0.842,1.729-1.67,1.729c-0.921,0-1.631-0.635-1.631-1.677c0-1.068,0.702-1.722,1.685-1.722
			C2318.119,1906.623,2318.769,1907.303,2318.769,1908.292z M2316.316,1908.323c0,0.629,0.308,1.104,0.808,1.104
			c0.468,0,0.796-0.462,0.796-1.116c0-0.507-0.229-1.088-0.788-1.088C2316.551,1907.224,2316.316,1907.784,2316.316,1908.323z"/>
		<path d="M2319.442,1907.664c0-0.374-0.007-0.688-0.027-0.969h0.722l0.039,0.488h0.021c0.139-0.255,0.493-0.561,1.033-0.561
			c0.569,0,1.156,0.366,1.156,1.395v1.93h-0.82v-1.835c0-0.468-0.175-0.822-0.623-0.822c-0.326,0-0.554,0.234-0.64,0.482
			c-0.027,0.073-0.033,0.173-0.033,0.267v1.908h-0.828V1907.664L2319.442,1907.664z"/>
		<path d="M2324.135,1905.787c0,0.249-0.179,0.441-0.467,0.441c-0.273,0-0.454-0.194-0.454-0.441c0-0.251,0.188-0.447,0.461-0.447
			C2323.956,1905.339,2324.129,1905.536,2324.135,1905.787z M2323.261,1909.947v-3.252h0.828v3.252H2323.261z"/>
		<path d="M2324.93,1909.191c0.188,0.115,0.541,0.236,0.834,0.236c0.361,0,0.523-0.146,0.523-0.36c0-0.222-0.135-0.336-0.535-0.477
			c-0.635-0.219-0.901-0.566-0.896-0.946c0-0.575,0.475-1.021,1.229-1.021c0.36,0,0.675,0.092,0.861,0.192l-0.16,0.582
			c-0.14-0.08-0.4-0.188-0.688-0.188c-0.294,0-0.454,0.142-0.454,0.342c0,0.207,0.154,0.307,0.568,0.453
			c0.587,0.214,0.86,0.514,0.867,0.996c0,0.587-0.461,1.014-1.323,1.014c-0.394,0-0.747-0.093-0.987-0.227L2324.93,1909.191z"/>
		<path d="M2328.695,1905.768v0.927h0.781v0.614h-0.781v1.436c0,0.395,0.107,0.602,0.42,0.602c0.142,0,0.248-0.021,0.321-0.04
			l0.013,0.628c-0.119,0.045-0.334,0.08-0.594,0.08c-0.301,0-0.554-0.1-0.707-0.268c-0.174-0.186-0.254-0.481-0.254-0.909v-1.528
			h-0.468v-0.614h0.468v-0.734L2328.695,1905.768z"/>
		<path d="M2331.927,1909.947l-0.052-0.359h-0.021c-0.199,0.253-0.541,0.434-0.961,0.434c-0.654,0-1.021-0.475-1.021-0.97
			c0-0.82,0.728-1.234,1.93-1.226v-0.056c0-0.213-0.087-0.567-0.661-0.567c-0.321,0-0.655,0.101-0.875,0.24l-0.16-0.533
			c0.241-0.147,0.661-0.287,1.175-0.287c1.042,0,1.342,0.661,1.342,1.368v1.175c0,0.295,0.015,0.581,0.047,0.781H2331.927
			L2331.927,1909.947z M2331.82,1908.358c-0.58-0.014-1.135,0.113-1.135,0.607c0,0.321,0.207,0.469,0.468,0.469
			c0.326,0,0.567-0.214,0.64-0.448c0.021-0.061,0.027-0.126,0.027-0.18V1908.358z"/>
		<path d="M2333.449,1909.191c0.188,0.115,0.541,0.236,0.836,0.236c0.36,0,0.521-0.146,0.521-0.36c0-0.222-0.134-0.336-0.535-0.477
			c-0.634-0.219-0.901-0.566-0.895-0.946c0-0.575,0.475-1.021,1.229-1.021c0.361,0,0.674,0.092,0.861,0.192l-0.161,0.582
			c-0.14-0.08-0.399-0.188-0.687-0.188c-0.295,0-0.455,0.142-0.455,0.342c0,0.207,0.153,0.307,0.567,0.453
			c0.589,0.214,0.862,0.514,0.868,0.996c0,0.587-0.46,1.014-1.322,1.014c-0.393,0-0.748-0.093-0.988-0.227L2333.449,1909.191z"/>
		<path d="M2340.047,1909.847c-0.175,0.08-0.514,0.167-0.921,0.167c-1.016,0-1.677-0.647-1.677-1.656
			c0-0.976,0.667-1.735,1.809-1.735c0.301,0,0.609,0.066,0.796,0.153l-0.147,0.613c-0.134-0.059-0.327-0.127-0.62-0.127
			c-0.628,0-1.003,0.461-0.995,1.055c0,0.669,0.432,1.05,0.995,1.05c0.286,0,0.486-0.06,0.646-0.127L2340.047,1909.847z"/>
		<path d="M2343.686,1908.292c0,1.194-0.842,1.729-1.67,1.729c-0.922,0-1.629-0.635-1.629-1.677c0-1.068,0.701-1.722,1.683-1.722
			C2343.039,1906.623,2343.686,1907.303,2343.686,1908.292z M2341.235,1908.323c0,0.629,0.308,1.104,0.808,1.104
			c0.468,0,0.794-0.462,0.794-1.116c0-0.507-0.227-1.088-0.787-1.088C2341.469,1907.224,2341.235,1907.784,2341.235,1908.323z"/>
		<path d="M2344.359,1907.664c0-0.374-0.007-0.688-0.026-0.969h0.707l0.034,0.481h0.02c0.16-0.254,0.455-0.554,1.002-0.554
			c0.428,0,0.762,0.238,0.902,0.602h0.013c0.114-0.181,0.246-0.314,0.399-0.408c0.182-0.127,0.388-0.193,0.655-0.193
			c0.541,0,1.089,0.366,1.089,1.407v1.917h-0.802v-1.796c0-0.539-0.187-0.861-0.581-0.861c-0.279,0-0.486,0.201-0.574,0.434
			c-0.02,0.081-0.04,0.182-0.04,0.274v1.949h-0.802v-1.882c0-0.453-0.179-0.775-0.561-0.775c-0.307,0-0.514,0.24-0.587,0.469
			c-0.034,0.078-0.047,0.173-0.047,0.266v1.923h-0.802V1907.664L2344.359,1907.664z"/>
		<path d="M2350.021,1907.778c0-0.427-0.014-0.776-0.027-1.083h0.723l0.039,0.503h0.014c0.24-0.368,0.621-0.574,1.115-0.574
			c0.748,0,1.369,0.64,1.369,1.655c0,1.175-0.74,1.742-1.482,1.742c-0.407,0-0.748-0.174-0.914-0.434h-0.015v1.682h-0.821V1907.778
			L2350.021,1907.778z M2350.843,1908.586c0,0.078,0.006,0.153,0.027,0.226c0.08,0.335,0.374,0.574,0.721,0.574
			c0.521,0,0.827-0.435,0.827-1.075c0-0.574-0.279-1.042-0.808-1.042c-0.341,0-0.653,0.248-0.734,0.607
			c-0.021,0.067-0.033,0.14-0.033,0.208V1908.586L2350.843,1908.586z"/>
		<path d="M2354.51,1908.551c0.018,0.588,0.479,0.842,1,0.842c0.381,0,0.654-0.054,0.901-0.147l0.121,0.567
			c-0.28,0.114-0.669,0.201-1.137,0.201c-1.054,0-1.675-0.647-1.675-1.643c0-0.9,0.547-1.749,1.589-1.749
			c1.054,0,1.402,0.868,1.402,1.582c0,0.153-0.014,0.272-0.027,0.347H2354.51L2354.51,1908.551z M2355.938,1907.978
			c0.007-0.301-0.127-0.795-0.675-0.795c-0.508,0-0.721,0.461-0.755,0.795H2355.938z"/>
		<path d="M2358.314,1905.768v0.927h0.781v0.614h-0.781v1.436c0,0.395,0.106,0.602,0.419,0.602c0.142,0,0.248-0.021,0.322-0.04
			l0.013,0.628c-0.121,0.045-0.332,0.08-0.594,0.08c-0.302,0-0.555-0.1-0.709-0.268c-0.173-0.186-0.253-0.481-0.253-0.909v-1.528
			h-0.467v-0.614h0.467v-0.734L2358.314,1905.768z"/>
		<path d="M2360.592,1905.787c0,0.249-0.181,0.441-0.469,0.441c-0.272,0-0.454-0.194-0.454-0.441c0-0.251,0.188-0.447,0.46-0.447
			C2360.411,1905.339,2360.584,1905.536,2360.592,1905.787z M2359.717,1909.947v-3.252h0.826v3.252H2359.717z"/>
		<path d="M2362.367,1905.768v0.927h0.781v0.614h-0.781v1.436c0,0.395,0.107,0.602,0.42,0.602c0.141,0,0.248-0.021,0.32-0.04
			l0.014,0.628c-0.12,0.045-0.333,0.08-0.594,0.08c-0.301,0-0.556-0.1-0.708-0.268c-0.173-0.186-0.253-0.481-0.253-0.909v-1.528
			h-0.468v-0.614h0.468v-0.734L2362.367,1905.768z"/>
		<path d="M2364.645,1905.787c0,0.249-0.182,0.441-0.469,0.441c-0.274,0-0.453-0.194-0.453-0.441c0-0.251,0.186-0.447,0.46-0.447
			C2364.463,1905.339,2364.638,1905.536,2364.645,1905.787z M2363.77,1909.947v-3.252h0.828v3.252H2363.77z"/>
		<path d="M2365.998,1906.695l0.528,1.649c0.093,0.287,0.161,0.548,0.222,0.816h0.02c0.059-0.269,0.134-0.521,0.22-0.816
			l0.515-1.649h0.868l-1.243,3.252h-0.808l-1.207-3.252H2365.998z"/>
		<path d="M2371.875,1908.292c0,1.194-0.842,1.729-1.668,1.729c-0.923,0-1.63-0.635-1.63-1.677c0-1.068,0.701-1.722,1.683-1.722
			C2371.229,1906.623,2371.875,1907.303,2371.875,1908.292z M2369.426,1908.323c0,0.629,0.307,1.104,0.807,1.104
			c0.468,0,0.795-0.462,0.795-1.116c0-0.507-0.228-1.088-0.788-1.088C2369.658,1907.224,2369.426,1907.784,2369.426,1908.323z"/>
		<path d="M2372.51,1909.191c0.188,0.115,0.541,0.236,0.834,0.236c0.361,0,0.521-0.146,0.521-0.36c0-0.222-0.134-0.336-0.535-0.477
			c-0.633-0.219-0.901-0.566-0.895-0.946c0-0.575,0.475-1.021,1.229-1.021c0.36,0,0.673,0.092,0.861,0.192l-0.16,0.582
			c-0.14-0.08-0.401-0.188-0.688-0.188c-0.293,0-0.454,0.142-0.454,0.342c0,0.207,0.153,0.307,0.567,0.453
			c0.587,0.214,0.861,0.514,0.868,0.996c0,0.587-0.46,1.014-1.322,1.014c-0.395,0-0.748-0.093-0.987-0.227L2372.51,1909.191z"/>
	</g>
	<g>
		<path fill="#3E514B" d="M2243.266,1884.822c0-1.344-0.58-3.596-3.123-3.596c-2.324,0-3.27,2.105-3.414,3.596H2243.266z"/>
		<path fill="#3E514B" d="M2248.389,1886.419c0,0.944-0.109,1.78-0.182,2.18h-11.442c0.182,2.288,2.434,3.378,5.013,3.378
			c1.889,0,3.414-0.254,4.904-0.727l0.727,3.742c-0.146,0.059-0.294,0.112-0.443,0.166h6.282l0.563,10.27
			c2.235-2.899,3.565-6.531,3.565-10.475c0-8.282-5.862-15.194-13.665-16.813C2247.05,1879.489,2248.389,1882.976,2248.389,1886.419
			z"/>
		<path fill="#3E514B" d="M2241.296,1911.783c0.678-2.782,1.499-5.957,2.284-8.634l2.476-7.703
			c-1.522,0.424-3.247,0.636-5.077,0.636c-1.54,0-2.911-0.229-4.1-0.659l2.277,7.764c0.748,2.782,1.498,5.778,2.033,8.597H2241.296z
			"/>
		<path fill="#3E514B" d="M2233.912,1900.117c-0.143,3.247-0.25,6.957-0.429,9.954l-0.031,0.677
			c1.062,0.455,2.179,0.806,3.338,1.039l-0.631-2.287c-0.784-2.818-1.605-6.243-2.177-9.383H2233.912z"/>
		<path fill="#3E514B" d="M2248.681,1900.117h-0.106c-0.75,3.069-1.748,6.492-2.676,9.312l-0.602,1.93
			c1.266-0.395,2.468-0.93,3.59-1.588C2248.782,1906.926,2248.681,1903.522,2248.681,1900.117z"/>
		<path fill="#3E514B" d="M2228.756,1907.754l0.804-12.596h6.671c-3.056-1.383-4.733-4.248-4.733-8.122
			c0-3.713,1.901-7.746,6.027-9.049c-8.212,1.286-14.495,8.393-14.495,16.966C2223.029,1900.041,2225.242,1904.61,2228.756,1907.754
			z"/>
	</g>
	<g>
		<path d="M2327.036,1881.899v6.492c0,0.477,0.012,1.021,0.044,1.389h-0.877l-0.044-0.936h-0.022
			c-0.299,0.599-0.955,1.058-1.829,1.058c-1.298,0-2.299-1.101-2.299-2.729c-0.011-1.79,1.1-2.885,2.407-2.885
			c0.822,0,1.378,0.387,1.622,0.819h0.021v-3.208H2327.036z M2326.059,1886.591c0-0.119-0.012-0.287-0.044-0.409
			c-0.144-0.621-0.679-1.132-1.409-1.132c-1.01,0-1.609,0.89-1.609,2.073c0,1.09,0.534,1.988,1.586,1.988
			c0.656,0,1.256-0.432,1.433-1.164c0.032-0.135,0.044-0.267,0.044-0.424V1886.591z"/>
		<path d="M2329.199,1887.269c0.021,1.32,0.863,1.863,1.843,1.863c0.698,0,1.119-0.119,1.486-0.276l0.165,0.7
			c-0.344,0.153-0.932,0.333-1.785,0.333c-1.654,0-2.642-1.088-2.642-2.707c0-1.621,0.954-2.895,2.52-2.895
			c1.752,0,2.22,1.541,2.22,2.528c0,0.198-0.023,0.356-0.035,0.456h-3.771V1887.269z M2332.061,1886.572
			c0.012-0.622-0.256-1.589-1.353-1.589c-0.987,0-1.42,0.912-1.499,1.589H2332.061z"/>
	</g>
	<circle fill="#3E514B" cx="2363.988" cy="1891.699" r="1.729"/>
</g>
</svg>
