<?xml version="1.0" encoding="utf-8"?>
<!-- Generator: Adobe Illustrator 16.0.0, SVG Export Plug-In . SVG Version: 6.00 Build 0)  -->
<!DOCTYPE svg PUBLIC "-//W3C//DTD SVG 1.1//EN" "http://www.w3.org/Graphics/SVG/1.1/DTD/svg11.dtd">
<svg version="1.1" id="Capa_1" xmlns="http://www.w3.org/2000/svg" xmlns:xlink="http://www.w3.org/1999/xlink" x="0px" y="0px"
	 width="168px" height="168px" viewBox="0 0 168 168" enable-background="new 0 0 168 168" xml:space="preserve">
<g>
	<circle opacity="0.1" enable-background="new    " cx="83.974" cy="83.256" r="72"/>
	<g opacity="0.2">
		<g>
			<path d="M80.458,162.318c-2.369-0.104-4.758-0.313-7.099-0.627l0.264-1.981c2.283,0.306,4.612,0.51,6.923,0.61L80.458,162.318z
				 M87.586,162.314l-0.09-1.998c2.307-0.104,4.635-0.312,6.922-0.619l0.27,1.98C92.34,161.995,89.95,162.209,87.586,162.314z
				 M66.341,160.434c-2.312-0.522-4.625-1.16-6.876-1.89l0.617-1.901c2.193,0.711,4.448,1.33,6.7,1.84L66.341,160.434z
				 M101.7,160.41l-0.442-1.949c2.248-0.513,4.5-1.135,6.696-1.85l0.619,1.902C106.319,159.247,104.008,159.885,101.7,160.41z
				 M52.785,156.042c-2.174-0.929-4.335-1.97-6.426-3.095l0.947-1.762c2.038,1.097,4.146,2.11,6.264,3.017L52.785,156.042z
				 M115.245,156.009l-0.788-1.838c2.125-0.912,4.23-1.929,6.258-3.022l0.949,1.762C119.584,154.03,117.424,155.074,115.245,156.009
				z M40.239,149.289c-1.969-1.3-3.909-2.71-5.77-4.189l1.246-1.563c1.813,1.442,3.706,2.817,5.625,4.087L40.239,149.289z
				 M127.778,149.244l-1.104-1.668c1.927-1.274,3.815-2.65,5.619-4.092l1.248,1.562
				C131.692,146.525,129.754,147.938,127.778,149.244z M29.098,140.409c-1.713-1.636-3.372-3.368-4.932-5.148l1.504-1.317
				c1.521,1.736,3.139,3.427,4.809,5.021L29.098,140.409z M138.908,140.354l-1.383-1.443c1.67-1.6,3.286-3.288,4.804-5.024
				l1.507,1.316C142.278,136.98,140.62,138.715,138.908,140.354z M19.713,129.691c-1.395-1.911-2.72-3.91-3.938-5.941l1.715-1.029
				c1.188,1.98,2.479,3.93,3.839,5.795L19.713,129.691z M148.282,129.628l-1.616-1.178c1.355-1.863,2.646-3.814,3.834-5.8
				l1.717,1.026C150.998,125.714,149.674,127.716,148.282,129.628z M12.386,117.479c-1.031-2.134-1.977-4.336-2.811-6.551
				l1.871-0.705c0.813,2.157,1.735,4.307,2.74,6.385L12.386,117.479z M155.598,117.4l-1.801-0.868
				c1.002-2.076,1.922-4.228,2.733-6.392l1.873,0.701C157.571,113.064,156.627,115.271,155.598,117.4z M7.367,104.148
				c-0.632-2.285-1.166-4.623-1.588-6.951l1.969-0.355c0.41,2.268,0.931,4.547,1.547,6.773L7.367,104.148z M160.605,104.062
				l-1.928-0.531c0.609-2.223,1.129-4.504,1.539-6.776l1.969,0.354C161.764,99.441,161.233,101.78,160.605,104.062z M4.824,90.134
				c-0.211-2.35-0.319-4.745-0.322-7.12l2-0.002c0.003,2.315,0.108,4.651,0.314,6.942L4.824,90.134z M163.133,90.043l-1.992-0.176
				c0.203-2.299,0.308-4.635,0.308-6.943v-0.183h2v0.183C163.448,85.292,163.342,87.688,163.133,90.043z M6.8,76.067l-1.992-0.176
				c0.208-2.364,0.523-4.741,0.939-7.064l1.969,0.352C7.312,71.443,7.003,73.761,6.8,76.067z M161.125,75.8
				c-0.209-2.295-0.524-4.611-0.938-6.885l1.967-0.359c0.426,2.333,0.75,4.709,0.964,7.062L161.125,75.8z M9.249,62.4l-1.93-0.527
				c0.625-2.281,1.362-4.563,2.193-6.785l1.873,0.701C10.575,57.954,9.856,60.179,9.249,62.4z M158.629,62.143
				c-0.615-2.22-1.343-4.441-2.16-6.604l1.871-0.707c0.84,2.219,1.586,4.499,2.217,6.776L158.629,62.143z M14.112,49.395
				l-1.803-0.867c1.027-2.135,2.163-4.248,3.378-6.281l1.717,1.025C16.22,45.253,15.113,47.313,14.112,49.395z M153.723,49.157
				c-1.008-2.079-2.121-4.134-3.312-6.109l1.714-1.031c1.221,2.026,2.361,4.136,3.396,6.268L153.723,49.157z M21.23,37.468
				l-1.619-1.176c1.391-1.916,2.886-3.792,4.442-5.578l1.508,1.314C24.043,33.77,22.586,35.6,21.23,37.468z M146.566,37.258
				c-1.363-1.865-2.826-3.689-4.348-5.423l1.502-1.32c1.562,1.778,3.062,3.65,4.461,5.563L146.566,37.258z M30.358,26.999
				l-1.385-1.443c1.707-1.638,3.511-3.219,5.361-4.7l1.25,1.561C33.781,23.861,32.022,25.402,30.358,26.999z M137.405,26.821
				c-1.673-1.593-3.437-3.13-5.244-4.567l1.245-1.564c1.854,1.474,3.663,3.05,5.378,4.683L137.405,26.821z M41.198,18.318
				l-1.105-1.666c1.976-1.311,4.031-2.546,6.111-3.672l0.951,1.76C45.129,15.837,43.125,17.041,41.198,18.318z M126.534,18.174
				c-1.929-1.27-3.938-2.468-5.972-3.56l0.945-1.762c2.086,1.12,4.146,2.349,6.125,3.651L126.534,18.174z M53.409,11.712
				L52.62,9.874c2.178-0.937,4.421-1.782,6.668-2.516l0.621,1.9C57.718,9.974,55.532,10.799,53.409,11.712z M114.295,11.606
				c-2.119-0.902-4.312-1.721-6.514-2.432l0.615-1.903c2.258,0.729,4.507,1.568,6.682,2.495L114.295,11.606z M66.605,7.403
				l-0.447-1.949c2.308-0.528,4.667-0.958,7.015-1.277l0.27,1.982C71.154,6.47,68.854,6.889,66.605,7.403z M101.079,7.343
				c-2.253-0.507-4.555-0.918-6.842-1.221l0.265-1.982c2.344,0.311,4.705,0.731,7.019,1.252L101.079,7.343z M80.363,5.531
				l-0.092-1.998c1.236-0.057,2.454-0.084,3.705-0.084c1.133,0,2.285,0.024,3.425,0.073L87.315,5.52
				c-1.131-0.047-2.253-0.084-3.399-0.071C82.743,5.449,81.548,5.477,80.363,5.531z"/>
		</g>
	</g>
</g>
<g>
	<path fill="#4A4A4A" d="M109.504,61.304L109.504,61.304l-0.002-0.001c-0.01-0.016-0.021-0.029-0.034-0.044l-3.44-4.29l0,0
		c-0.084-0.122-0.225-0.202-0.382-0.202c-0.154,0-0.291,0.076-0.375,0.192l0,0c0,0-1.277,1.573-1.323,1.589
		c-0.045,0.014-2.182-3.887-2.182-3.887h-0.002c-0.071-0.163-0.232-0.276-0.423-0.276c-0.189,0-0.351,0.114-0.423,0.276h-0.001
		l-2.084,3.826l-1.342-1.51c-0.082-0.126-0.225-0.21-0.387-0.21c-0.163,0-0.306,0.084-0.388,0.21l-3.369,4.299
		c-0.007,0.009-0.015,0.018-0.021,0.028l0,0l0,0c-0.057,0.084-0.09,0.187-0.09,0.296c0,0.298,0.242,0.539,0.538,0.539
		c0.183,0,0.272-0.075,0.441-0.23l0,0l2.812-2.385l1.473,1.8l0,0c0.141,0.163,0.234,0.275,0.423,0.275
		c0.2,0,0.318-0.139,0.435-0.306h0.002l2.055-3.124l2.023,3.165h0.002c0.114,0.152,0.232,0.265,0.417,0.265
		c0.18,0,0.334-0.104,0.411-0.253l1.498-1.852l2.847,2.415l0,0c0.195,0.161,0.259,0.23,0.44,0.23c0.298,0,0.539-0.241,0.539-0.539
		C109.593,61.49,109.561,61.388,109.504,61.304z"/>
	<path fill="#4A4A4A" d="M106.991,92.719c0-1.505,0-2.581,0-4.241c0-1.658-0.093-4.854-4.212-4.854
		c-4.117,0-6.545,2.027-6.545,2.027l1.535,2.521c1.63-1.321,2.982-1.476,4.027-1.476c1.044,0,1.568,0.431,1.568,0.892
		s-0.062,1.752-0.062,1.752c-6.516,0-7.346,2.059-7.346,4.917s1.937,4.148,4.765,4.148c2.826,0,3.503-1.598,3.503-1.598
		c1.107,1.598,2.028,1.844,2.028,1.844l1.905-2.336C106.744,95.146,106.991,94.225,106.991,92.719z M103.284,94.33
		c0,0.227-0.141,1.368-1.818,1.368s-1.65-1.564-1.65-1.848c0-0.281,0.057-2.002,2.566-2.002h0.973
		C103.354,91.849,103.284,94.105,103.284,94.33z"/>
	<path fill="#4A4A4A" d="M132.651,87.334l1.396-2.379c0,0-1.632-1.356-4.915-1.416c-3.283-0.059-5.563,1.868-5.563,4.562
		c0,2.692,2.124,3.794,3.362,3.972c1.237,0.176,3.793,0.432,3.793,1.927c0,1.493-1.355,1.611-2.024,1.611
		c-0.668,0-2.712-0.274-4.403-1.631l-1.356,2.654c0,0,1.848,1.71,5.554,1.71c3.707,0,6.065-2.006,6.065-4.798
		c0-2.791-2.124-3.598-3.265-3.893c-1.14-0.295-3.754-0.589-3.754-2.005s1.513-1.317,2.064-1.317
		C131,86.332,132.651,87.334,132.651,87.334z"/>
	<path fill="#4A4A4A" d="M80.217,92.812l3.035-8.85h3.889c0,0-5.534,14.444-6.119,15.835c-0.586,1.389-1.391,3.803-5.523,3.803
		c-1.169,0-3.036-0.549-3.036-0.549l0.666-2.997c0,0,2.012,0.616,3.119,0.229c1.108-0.387,2.087-1.597,1.805-2.602
		c-0.284-1.005-4.336-13.498-4.336-13.498l3.744-0.413L80.217,92.812z"/>
	<path fill="#4A4A4A" d="M65.917,93.26l2.787-9.373h3.927l-5.194,13.984h-2.989l-5.168-13.73l3.749-0.369
		C63.028,83.771,65.74,91.639,65.917,93.26z"/>
	<path fill="#4A4A4A" d="M46.852,84.618l3.141-1.029c0,0,0.649,0.38,0.622,1.761c0,0,1.813-1.578,4.196-1.578
		c2.383,0,3.575,1.469,3.575,3.987s0,10.112,0,10.112H54.73c0,0-0.027-8.948-0.027-10.004s-0.784-1.11-1.245-1.11
		c-0.841,0-2.465,0.948-2.465,1.435c0,0.488,0,9.68,0,9.68h-3.655c0,0,0.054-9.381,0.054-10.437
		C47.393,86.378,47.149,85.051,46.852,84.618z"/>
	<path fill="#4A4A4A" d="M45.234,89.377c0-0.637-0.471-5.605-5.469-5.605c-4.998,0-6.373,3.795-6.373,6.78s0.939,7.714,6.474,7.714
		c2.147,0,4.528-0.905,5.3-1.979l-1.375-2.112c0,0-1.442,1.442-3.588,1.442c-2.147,0-2.818-1.778-2.818-3.489h7.85
		C45.234,92.128,45.234,90.016,45.234,89.377z M41.58,89.4h-4.201c0,0-0.155-3.086,2.295-3.086C41.907,86.314,41.58,89.4,41.58,89.4
		z"/>
	<path fill="#4A4A4A" d="M116.492,83.573c-1.187,0-2.265,0.287-2.84,1.079l-0.275-6.553c1.955-0.171,3.372-0.681,3.372-1.285
		c0-0.616-1.471-1.133-3.482-1.294l-0.089-2.112c1.437-0.143,2.466-0.526,2.466-0.978c0-0.46-1.068-0.849-2.548-0.984l-0.098-2.328
		c1.482-0.456,2.562-1.837,2.562-3.469c0-2.005-1.625-3.629-3.63-3.629s-3.629,1.625-3.629,3.629c0,1.514,0.928,2.812,2.247,3.355
		l-0.053,2.47c-1.328,0.158-2.263,0.526-2.263,0.956c0,0.425,0.915,0.791,2.224,0.951l-0.045,2.156
		c-1.909,0.179-3.285,0.683-3.285,1.278c0,0.589,1.351,1.089,3.232,1.272l-0.268,12.787c0,0,0.036,6.113-0.431,6.976h3.273
		c0,0,0.323-0.467,0.395-0.971c0,0,0.756,1.331,3.092,1.331c2.339,0,5.539-2.194,5.539-7.12
		C121.959,86.163,120.089,83.573,116.492,83.573z M110.381,76.993c-1.262-0.104-2.139-0.331-2.139-0.593
		c0-0.265,0.887-0.492,2.164-0.595L110.381,76.993z M110.475,72.542c-0.827-0.087-1.383-0.247-1.383-0.431s0.562-0.346,1.4-0.433
		L110.475,72.542z M112.654,63.831c-1.55,0-2.807,1.257-2.807,2.807c0,0.293,0.045,0.577,0.129,0.844
		c-0.427-0.47-0.69-1.091-0.69-1.776c0-1.459,1.184-2.642,2.642-2.642c0.925,0,1.736,0.475,2.209,1.193
		C113.705,63.989,113.198,63.831,112.654,63.831z M113.104,71.654c0.978,0.08,1.659,0.254,1.659,0.457
		c0,0.201-0.663,0.373-1.62,0.455L113.104,71.654z M113.279,75.793c1.364,0.095,2.328,0.331,2.328,0.607
		c0,0.272-0.94,0.506-2.277,0.604L113.279,75.793z M115.81,95.16c-1.2,0-2.116-0.996-2.116-0.996v-6.388c0,0,0.662-1.16,2.094-1.16
		c1.431,0,2.096,1.326,2.096,4.313C117.883,93.916,117.011,95.16,115.81,95.16z"/>
	<path fill="#4A4A4A" d="M95.589,76.815c0-0.62-1.496-1.142-3.532-1.298l-0.071-2.106c1.453-0.14,2.496-0.525,2.496-0.98
		c0-0.461-1.075-0.852-2.564-0.986l-0.079-2.326c1.482-0.456,2.562-1.837,2.562-3.469c0-2.005-1.625-3.629-3.63-3.629
		s-3.629,1.625-3.629,3.629c0,1.514,0.928,2.812,2.247,3.355l-0.053,2.47c-1.328,0.158-2.263,0.526-2.263,0.956
		c0,0.425,0.915,0.791,2.224,0.951l-0.045,2.156c-1.909,0.179-3.285,0.683-3.285,1.278c0,0.589,1.351,1.089,3.232,1.272
		l-0.268,12.787c0,2.989-0.928,7.336,3.323,7.336c1.094,0,2.383-0.36,2.383-0.36l-0.548-2.118c-0.933,0.031-1.385-0.258-1.448-0.967
		c-0.032-0.837-0.258-8.211-0.258-9.789l-0.236-6.87C94.137,77.94,95.589,77.425,95.589,76.815z M89.22,76.993
		c-1.262-0.104-2.138-0.331-2.138-0.593c0-0.265,0.887-0.492,2.164-0.595L89.22,76.993z M89.312,72.542
		c-0.825-0.087-1.382-0.247-1.382-0.431s0.563-0.346,1.4-0.433L89.312,72.542z M88.688,66.638c0,0.293,0.045,0.577,0.129,0.844
		c-0.427-0.47-0.69-1.091-0.69-1.776c0-1.459,1.184-2.642,2.642-2.642c0.925,0,1.736,0.475,2.209,1.193
		c-0.432-0.269-0.938-0.426-1.482-0.426C89.944,63.831,88.688,65.088,88.688,66.638z M91.926,71.652
		c0.987,0.079,1.678,0.254,1.678,0.459c0,0.203-0.677,0.376-1.647,0.456L91.926,71.652z M92.108,77.008l-0.041-1.22
		c1.39,0.093,2.38,0.332,2.38,0.611C94.447,76.676,93.479,76.913,92.108,77.008z"/>
</g>
</svg>
