<?xml version="1.0" encoding="utf-8"?>
<!-- Generator: Adobe Illustrator 16.0.0, SVG Export Plug-In . SVG Version: 6.00 Build 0)  -->
<!DOCTYPE svg PUBLIC "-//W3C//DTD SVG 1.1//EN" "http://www.w3.org/Graphics/SVG/1.1/DTD/svg11.dtd">
<svg version="1.1" id="Capa_1" xmlns="http://www.w3.org/2000/svg" xmlns:xlink="http://www.w3.org/1999/xlink" x="0px" y="0px"
	 width="168px" height="168px" viewBox="0 0 168 168" enable-background="new 0 0 168 168" xml:space="preserve">
<g>
	<circle opacity="0.1" enable-background="new    " cx="84.238" cy="85.256" r="72"/>
	<g opacity="0.2">
		<g>
			<path d="M80.721,164.318c-2.369-0.104-4.758-0.313-7.099-0.627l0.264-1.981c2.283,0.306,4.612,0.51,6.923,0.611L80.721,164.318z
				 M87.85,164.314l-0.09-1.998c2.307-0.104,4.635-0.312,6.922-0.619l0.269,1.981C92.604,163.995,90.214,164.209,87.85,164.314z
				 M66.605,162.434c-2.312-0.523-4.625-1.16-6.876-1.89l0.617-1.901c2.193,0.711,4.448,1.33,6.7,1.84L66.605,162.434z
				 M101.964,162.41l-0.442-1.949c2.248-0.513,4.5-1.135,6.696-1.849l0.619,1.901C106.583,161.247,104.271,161.885,101.964,162.41z
				 M53.049,158.042c-2.174-0.929-4.335-1.97-6.426-3.095l0.947-1.762c2.038,1.097,4.146,2.111,6.264,3.017L53.049,158.042z
				 M115.509,158.009l-0.788-1.838c2.125-0.912,4.23-1.929,6.258-3.022l0.949,1.761C119.848,156.03,117.688,157.074,115.509,158.009
				z M40.503,151.289c-1.969-1.3-3.909-2.71-5.77-4.189l1.246-1.564c1.813,1.443,3.706,2.818,5.625,4.087L40.503,151.289z
				 M128.042,151.244l-1.104-1.668c1.926-1.274,3.815-2.65,5.619-4.092l1.248,1.562
				C131.956,148.525,130.018,149.938,128.042,151.244z M29.362,142.409c-1.713-1.636-3.372-3.368-4.932-5.148l1.504-1.317
				c1.521,1.736,3.139,3.426,4.809,5.02L29.362,142.409z M139.172,142.354l-1.383-1.444c1.67-1.599,3.286-3.288,4.804-5.024
				l1.507,1.316C142.542,138.98,140.884,140.715,139.172,142.354z M19.977,131.691c-1.395-1.911-2.72-3.91-3.938-5.941l1.715-1.029
				c1.188,1.98,2.479,3.93,3.839,5.795L19.977,131.691z M148.546,131.628l-1.616-1.178c1.355-1.863,2.646-3.814,3.834-5.8
				l1.717,1.027C151.262,127.714,149.938,129.716,148.546,131.628z M12.65,119.479c-1.031-2.134-1.977-4.336-2.811-6.551
				l1.871-0.705c0.813,2.157,1.735,4.307,2.74,6.385L12.65,119.479z M155.861,119.4l-1.801-0.868
				c1.002-2.076,1.922-4.228,2.734-6.392l1.873,0.702C157.835,115.064,156.891,117.271,155.861,119.4z M7.631,106.148
				c-0.632-2.285-1.166-4.623-1.588-6.951l1.969-0.355c0.41,2.268,0.931,4.547,1.547,6.773L7.631,106.148z M160.869,106.062
				l-1.928-0.531c0.61-2.223,1.129-4.504,1.539-6.776l1.969,0.354C162.027,101.441,161.497,103.78,160.869,106.062z M5.088,92.134
				c-0.211-2.35-0.319-4.745-0.322-7.12l2-0.002c0.003,2.315,0.108,4.651,0.314,6.942L5.088,92.134z M163.396,92.043l-1.992-0.176
				c0.203-2.299,0.308-4.635,0.308-6.943v-0.183h2v0.183C163.712,87.292,163.605,89.688,163.396,92.043z M7.064,78.067l-1.992-0.176
				c0.208-2.364,0.523-4.741,0.939-7.064l1.969,0.352C7.575,73.443,7.267,75.761,7.064,78.067z M161.389,77.8
				c-0.209-2.295-0.525-4.611-0.938-6.885l1.967-0.359c0.426,2.333,0.75,4.709,0.964,7.062L161.389,77.8z M9.512,64.4l-1.93-0.527
				c0.625-2.281,1.362-4.563,2.193-6.785l1.873,0.701C10.839,59.954,10.12,62.179,9.512,64.4z M158.893,64.143
				c-0.615-2.22-1.343-4.441-2.16-6.604l1.871-0.707c0.84,2.219,1.586,4.499,2.217,6.776L158.893,64.143z M14.376,51.395
				l-1.803-0.867c1.027-2.135,2.163-4.248,3.378-6.281l1.717,1.025C16.484,47.253,15.377,49.313,14.376,51.395z M153.986,51.157
				c-1.008-2.079-2.121-4.134-3.311-6.109l1.713-1.031c1.221,2.026,2.362,4.136,3.396,6.268L153.986,51.157z M21.494,39.468
				l-1.619-1.176c1.391-1.916,2.886-3.792,4.442-5.578l1.508,1.314C24.307,35.77,22.85,37.6,21.494,39.468z M146.83,39.258
				c-1.363-1.865-2.826-3.689-4.348-5.423l1.502-1.32c1.562,1.778,3.062,3.65,4.461,5.563L146.83,39.258z M30.622,28.999
				l-1.385-1.443c1.707-1.638,3.511-3.219,5.361-4.7l1.25,1.561C34.045,25.861,32.286,27.402,30.622,28.999z M137.669,28.821
				c-1.673-1.593-3.437-3.13-5.244-4.567l1.245-1.564c1.854,1.474,3.663,3.05,5.378,4.683L137.669,28.821z M41.462,20.318
				l-1.105-1.666c1.976-1.311,4.031-2.546,6.111-3.672l0.951,1.76C45.393,17.837,43.388,19.041,41.462,20.318z M126.798,20.174
				c-1.929-1.27-3.938-2.468-5.972-3.56l0.945-1.762c2.086,1.12,4.146,2.349,6.125,3.651L126.798,20.174z M53.673,13.712
				l-0.789-1.838c2.178-0.937,4.421-1.782,6.668-2.516l0.621,1.9C57.982,11.974,55.796,12.799,53.673,13.712z M114.559,13.606
				c-2.119-0.902-4.312-1.721-6.514-2.432l0.615-1.903c2.258,0.729,4.507,1.568,6.682,2.495L114.559,13.606z M66.869,9.403
				l-0.447-1.949c2.308-0.528,4.667-0.958,7.015-1.277l0.27,1.982C71.418,8.47,69.117,8.889,66.869,9.403z M101.343,9.343
				c-2.253-0.507-4.555-0.918-6.842-1.221l0.265-1.982c2.344,0.311,4.705,0.731,7.018,1.252L101.343,9.343z M80.627,7.531
				l-0.092-1.998c1.236-0.057,2.454-0.084,3.705-0.084c1.133,0,2.285,0.024,3.425,0.073L87.579,7.52
				c-1.131-0.047-2.253-0.084-3.399-0.071C83.007,7.449,81.812,7.477,80.627,7.531z"/>
		</g>
	</g>
</g>
<g>
	<path fill="#4A4A4A" d="M46.153,62.186h-3.364v6.729h4.71v2.019h-7.402V52.091h7.402v2.019h-4.71v6.057h3.364V62.186z"/>
	<path fill="#4A4A4A" d="M54.768,62.149l2.152-10.058h2.688l-4.034,18.842H52.71l-3.865-18.842h2.688l1.99,10.094l0.613,4.711
		L54.768,62.149z"/>
	<path fill="#4A4A4A" d="M67.687,62.186h-3.364v6.729h4.71v2.019H61.63V52.091h7.402v2.019h-4.71v6.057h3.364L67.687,62.186
		L67.687,62.186z"/>
	<path fill="#4A4A4A" d="M78.559,70.934l-4.816-12.535v12.534h-2.692V52.091h1.767l4.963,12.302V52.091h2.691v18.842H78.559z"/>
	<path fill="#4A4A4A" d="M96.212,62.186h-4.711v8.748H88.81V52.091h2.691v8.075h4.711v-8.075h2.691v18.842h-2.691V62.186z"/>
	<path fill="#4A4A4A" d="M107.649,62.186h-3.363v6.729h4.711v2.019h-7.402V52.091h7.402v2.019h-4.711v6.057h3.363V62.186z"/>
	<path fill="#4A4A4A" d="M118.547,70.934l-2.821-8.748h-2.019v8.748h-2.69V52.091h3.363c1.178,0,2.155,0.121,2.934,0.363
		c0.778,0.241,1.398,0.583,1.861,1.024c0.463,0.442,0.788,0.973,0.979,1.594c0.188,0.62,0.283,1.309,0.283,2.064
		c0,0.463-0.033,0.881-0.101,1.252c-0.065,0.372-0.155,0.703-0.269,0.994c-0.113,0.292-0.239,0.548-0.381,0.769
		c-0.141,0.221-0.285,0.408-0.433,0.562c-0.345,0.372-0.739,0.639-1.183,0.8l3.037,9.418L118.547,70.934L118.547,70.934z
		 M113.707,60.167h0.673c0.505,0,0.964-0.047,1.378-0.142c0.413-0.095,0.769-0.258,1.062-0.489c0.295-0.231,0.522-0.541,0.685-0.931
		c0.161-0.389,0.241-0.878,0.241-1.467c0-0.589-0.08-1.077-0.241-1.467c-0.161-0.389-0.39-0.699-0.685-0.931
		c-0.293-0.23-0.647-0.395-1.062-0.488c-0.414-0.095-0.873-0.143-1.378-0.143h-0.673V60.167z"/>
	<path fill="#4A4A4A" d="M129.185,62.186h-3.365v6.729h4.712v2.019h-7.402V52.091h7.402v2.019h-4.712v6.057h3.365V62.186z"/>
	<path fill="#4A4A4A" d="M49.013,88.877c0,0.842-0.088,1.642-0.263,2.397s-0.47,1.42-0.883,1.986
		c-0.414,0.568-0.966,1.021-1.656,1.356s-1.551,0.506-2.581,0.506c-0.701,0-1.321-0.077-1.861-0.231
		c-0.54-0.153-1.008-0.367-1.403-0.642c-0.396-0.272-0.73-0.603-1.004-0.988c-0.274-0.385-0.493-0.81-0.657-1.271
		c-0.165-0.462-0.282-0.956-0.353-1.482c-0.07-0.524-0.105-1.067-0.105-1.63v-6.729c0-0.562,0.035-1.104,0.105-1.63
		c0.07-0.526,0.188-1.021,0.353-1.482c0.164-0.463,0.384-0.887,0.657-1.271c0.273-0.386,0.607-0.716,1.004-0.988
		c0.396-0.273,0.863-0.487,1.403-0.643c0.54-0.153,1.16-0.229,1.861-0.229c1.03,0,1.891,0.168,2.581,0.504
		c0.69,0.337,1.242,0.789,1.656,1.356c0.413,0.567,0.708,1.229,0.883,1.986s0.263,1.558,0.263,2.397V88.877z M40.938,89.551
		c0,0.504,0.045,0.964,0.137,1.377c0.091,0.414,0.241,0.769,0.452,1.062c0.21,0.295,0.486,0.521,0.83,0.684
		c0.344,0.162,0.768,0.242,1.272,0.242s0.929-0.081,1.272-0.242c0.343-0.161,0.62-0.389,0.83-0.684
		c0.21-0.294,0.361-0.647,0.452-1.062c0.091-0.413,0.137-0.873,0.137-1.377v-8.075c0-0.506-0.046-0.965-0.137-1.378
		c-0.091-0.413-0.242-0.769-0.452-1.062c-0.21-0.295-0.487-0.522-0.83-0.684c-0.344-0.161-0.768-0.242-1.272-0.242
		s-0.929,0.081-1.272,0.242c-0.343,0.16-0.62,0.389-0.83,0.684c-0.211,0.294-0.361,0.648-0.452,1.062
		c-0.092,0.413-0.137,0.872-0.137,1.378V89.551z"/>
	<path fill="#4A4A4A" d="M58.899,94.935l-2.821-8.748H54.06v8.748h-2.691V76.091h3.364c1.178,0,2.155,0.121,2.934,0.363
		c0.778,0.241,1.398,0.583,1.861,1.024c0.462,0.441,0.788,0.973,0.978,1.594c0.189,0.62,0.284,1.309,0.284,2.064
		c0,0.464-0.034,0.882-0.101,1.253c-0.066,0.371-0.156,0.702-0.269,0.993c-0.113,0.292-0.239,0.549-0.38,0.77
		s-0.285,0.409-0.433,0.562c-0.345,0.372-0.739,0.64-1.182,0.8l3.036,9.418h-2.562V94.935z M54.06,84.167h0.673
		c0.505,0,0.964-0.047,1.378-0.142c0.413-0.096,0.768-0.258,1.062-0.489s0.522-0.541,0.684-0.931
		c0.161-0.39,0.241-0.878,0.241-1.468c0-0.589-0.08-1.076-0.241-1.467c-0.161-0.389-0.39-0.699-0.684-0.931
		c-0.294-0.23-0.648-0.395-1.062-0.488c-0.414-0.095-0.873-0.143-1.378-0.143H54.06V84.167z"/>
	<path fill="#4A4A4A" d="M73.164,76.091c0.785,0,1.473,0.07,2.061,0.211c0.589,0.14,1.096,0.327,1.52,0.562
		c0.424,0.234,0.776,0.51,1.057,0.825c0.281,0.314,0.501,0.646,0.663,0.993c0.161,0.348,0.274,0.702,0.342,1.066
		c0.066,0.364,0.1,0.715,0.1,1.052c0,0.506-0.044,0.968-0.132,1.389s-0.247,0.799-0.479,1.136c-0.231,0.336-0.543,0.631-0.936,0.883
		s-0.894,0.463-1.504,0.631c0.505,0.168,0.964,0.372,1.378,0.61c0.413,0.238,0.768,0.537,1.062,0.898
		c0.295,0.36,0.522,0.801,0.684,1.318c0.161,0.52,0.242,1.146,0.242,1.883c0,0.792-0.123,1.518-0.368,2.176
		c-0.245,0.659-0.6,1.227-1.062,1.698c-0.463,0.474-1.027,0.843-1.693,1.109c-0.666,0.266-1.419,0.399-2.261,0.399h-4.71V76.091
		H73.164z M71.818,84.167h1.346c0.225,0,0.463-0.014,0.715-0.042c0.253-0.028,0.503-0.082,0.752-0.163
		c0.249-0.08,0.489-0.195,0.721-0.347s0.433-0.352,0.604-0.6c0.171-0.249,0.31-0.555,0.415-0.915s0.158-0.793,0.158-1.299
		c0-0.673-0.12-1.19-0.358-1.557c-0.238-0.364-0.567-0.631-0.988-0.799c-0.42-0.168-0.918-0.268-1.492-0.294
		c-0.575-0.028-1.199-0.043-1.872-0.043L71.818,84.167L71.818,84.167z M71.818,92.915h1.346c0.505,0,0.964-0.049,1.378-0.146
		c0.413-0.099,0.768-0.273,1.062-0.525c0.295-0.253,0.522-0.596,0.684-1.03s0.242-0.987,0.242-1.661s-0.081-1.227-0.242-1.662
		c-0.161-0.435-0.389-0.776-0.684-1.029c-0.294-0.252-0.648-0.428-1.062-0.525s-0.873-0.146-1.378-0.146h-1.346V92.915z"/>
	<path fill="#4A4A4A" d="M81.575,76.091h2.692v18.843h-2.692V76.091z"/>
	<path fill="#4A4A4A" d="M94.696,82.148c0-0.673-0.045-1.263-0.137-1.768c-0.091-0.505-0.242-0.925-0.451-1.262
		c-0.211-0.336-0.487-0.589-0.83-0.757c-0.344-0.168-0.769-0.253-1.272-0.253s-0.929,0.085-1.272,0.253
		c-0.342,0.168-0.619,0.421-0.83,0.757c-0.211,0.337-0.36,0.757-0.451,1.262c-0.092,0.505-0.137,1.095-0.137,1.768v6.056
		c0,1.01,0.076,1.822,0.229,2.439c0.154,0.616,0.358,1.094,0.61,1.43c0.252,0.337,0.539,0.562,0.861,0.674
		c0.322,0.111,0.651,0.168,0.988,0.168c0.336,0,0.666-0.057,0.988-0.168c0.322-0.112,0.609-0.337,0.861-0.674
		c0.252-0.336,0.455-0.812,0.609-1.43s0.23-1.431,0.23-2.439v-0.673h-2.69v-2.02h5.384v9.421H95.37l-0.674-2.019
		c-0.146,0.413-0.344,0.78-0.588,1.104c-0.105,0.141-0.227,0.276-0.362,0.409c-0.138,0.134-0.293,0.251-0.468,0.354
		c-0.176,0.102-0.368,0.184-0.579,0.247c-0.21,0.062-0.441,0.095-0.693,0.095c-0.562,0-1.083-0.048-1.565-0.144
		c-0.484-0.094-0.926-0.254-1.325-0.478c-0.399-0.226-0.755-0.522-1.062-0.896c-0.31-0.371-0.57-0.836-0.785-1.397
		c-0.213-0.562-0.375-1.219-0.482-1.978c-0.107-0.756-0.163-1.637-0.163-2.639v-4.772c0-1.01,0.092-1.938,0.272-2.786
		c0.184-0.849,0.484-1.577,0.904-2.188c0.422-0.608,0.975-1.086,1.661-1.43c0.688-0.344,1.535-0.515,2.545-0.515
		c0.89,0,1.67,0.138,2.339,0.415c0.67,0.276,1.23,0.68,1.684,1.209c0.453,0.528,0.791,1.183,1.02,1.961s0.342,1.665,0.342,2.66
		L94.696,82.148L94.696,82.148z"/>
	<path fill="#4A4A4A" d="M107.481,82.148c0-0.673-0.045-1.263-0.137-1.768c-0.091-0.505-0.242-0.925-0.451-1.262
		c-0.211-0.336-0.487-0.589-0.83-0.757c-0.345-0.168-0.769-0.253-1.272-0.253s-0.929,0.085-1.272,0.253
		c-0.343,0.168-0.619,0.421-0.83,0.757c-0.211,0.337-0.36,0.757-0.451,1.262c-0.092,0.505-0.137,1.095-0.137,1.768v6.056
		c0,1.01,0.075,1.822,0.229,2.439c0.153,0.616,0.358,1.094,0.61,1.43c0.252,0.337,0.539,0.562,0.861,0.674
		c0.322,0.111,0.651,0.168,0.988,0.168c0.336,0,0.666-0.057,0.988-0.168c0.322-0.112,0.609-0.337,0.861-0.674
		c0.252-0.336,0.455-0.812,0.609-1.43s0.23-1.431,0.23-2.439v-0.673h-2.69v-2.02h5.383v9.421h-2.019l-0.674-2.019
		c-0.146,0.413-0.344,0.78-0.588,1.104c-0.105,0.141-0.227,0.276-0.363,0.409c-0.137,0.134-0.293,0.251-0.467,0.354
		c-0.177,0.102-0.369,0.184-0.58,0.247c-0.209,0.062-0.44,0.095-0.692,0.095c-0.562,0-1.083-0.048-1.565-0.144
		c-0.484-0.094-0.927-0.254-1.326-0.478c-0.398-0.226-0.754-0.522-1.062-0.896c-0.31-0.371-0.569-0.836-0.784-1.397
		c-0.214-0.562-0.375-1.219-0.482-1.978c-0.108-0.756-0.163-1.637-0.163-2.639v-4.772c0-1.01,0.092-1.938,0.272-2.786
		c0.184-0.849,0.484-1.577,0.904-2.188c0.421-0.608,0.975-1.086,1.661-1.43c0.688-0.344,1.534-0.515,2.545-0.515
		c0.89,0,1.67,0.138,2.339,0.415c0.67,0.276,1.23,0.68,1.684,1.209c0.453,0.528,0.791,1.183,1.02,1.961s0.342,1.665,0.342,2.66
		L107.481,82.148L107.481,82.148z"/>
	<path fill="#4A4A4A" d="M118.585,86.187h-3.363v6.729h4.711v2.02h-7.402V76.091h7.402v2.02h-4.711v6.057h3.363V86.187z"/>
	<path fill="#4A4A4A" d="M129.481,94.935l-2.821-8.748h-2.019v8.748h-2.691V76.091h3.363c1.179,0,2.155,0.121,2.935,0.363
		c0.778,0.241,1.397,0.583,1.86,1.024s0.789,0.973,0.979,1.594c0.189,0.62,0.284,1.309,0.284,2.064c0,0.464-0.034,0.882-0.101,1.253
		s-0.156,0.702-0.27,0.993c-0.113,0.292-0.238,0.549-0.38,0.77s-0.285,0.409-0.433,0.562c-0.346,0.372-0.739,0.64-1.183,0.8
		l3.036,9.418h-2.561V94.935z M124.642,84.167h0.674c0.504,0,0.963-0.047,1.377-0.142c0.414-0.096,0.769-0.258,1.062-0.489
		s0.521-0.541,0.684-0.931s0.242-0.878,0.242-1.468c0-0.589-0.08-1.076-0.242-1.467c-0.16-0.389-0.39-0.699-0.684-0.931
		c-0.294-0.23-0.648-0.395-1.062-0.488c-0.414-0.095-0.873-0.143-1.377-0.143h-0.674V84.167z"/>
	<path fill="#4A4A4A" d="M44.902,114.224l-0.944,4.711H41.27l3.944-18.843h2.78l4.042,18.843h-2.592l-1.012-4.711H44.902z
		 M47.998,112.204l-1.346-8.074l-1.346,8.074H47.998z"/>
	<path fill="#4A4A4A" d="M59.107,119.123c-0.673,0-1.265-0.079-1.775-0.236c-0.512-0.157-0.956-0.368-1.334-0.631
		c-0.379-0.264-0.697-0.562-0.956-0.896c-0.26-0.332-0.474-0.674-0.642-1.023c-0.392-0.812-0.616-1.742-0.672-2.786l2.682-0.674
		c0.027,0.758,0.14,1.431,0.337,2.021c0.084,0.252,0.191,0.498,0.321,0.74c0.13,0.241,0.29,0.457,0.479,0.646
		s0.412,0.342,0.669,0.457c0.257,0.115,0.554,0.174,0.891,0.174c1.349,0,2.023-0.673,2.023-2.02c0-0.336-0.042-0.649-0.126-0.94
		c-0.085-0.291-0.211-0.571-0.379-0.841c-0.168-0.271-0.379-0.533-0.631-0.789s-0.547-0.521-0.883-0.794l-3.365-2.691
		c-0.343-0.272-0.643-0.583-0.898-0.931c-0.256-0.348-0.468-0.713-0.637-1.1c-0.168-0.386-0.292-0.777-0.373-1.178
		c-0.08-0.398-0.121-0.795-0.121-1.188c0-0.604,0.102-1.18,0.305-1.729c0.203-0.551,0.502-1.034,0.897-1.45
		c0.396-0.418,0.888-0.748,1.476-0.994s1.268-0.367,2.037-0.367c0.674,0,1.267,0.068,1.779,0.21
		c0.512,0.141,0.958,0.325,1.337,0.557s0.698,0.494,0.958,0.789c0.259,0.294,0.474,0.593,0.642,0.894
		c0.394,0.723,0.617,1.539,0.674,2.45l-2.691,0.673c-0.028-0.631-0.141-1.19-0.338-1.683c-0.084-0.21-0.191-0.415-0.321-0.615
		c-0.13-0.198-0.29-0.378-0.479-0.536c-0.189-0.156-0.412-0.285-0.669-0.384c-0.257-0.098-0.553-0.147-0.891-0.147
		c-0.351,0-0.655,0.056-0.911,0.164c-0.257,0.108-0.467,0.254-0.633,0.437c-0.165,0.183-0.286,0.396-0.363,0.642
		c-0.077,0.246-0.115,0.506-0.115,0.778c0,0.464,0.108,0.938,0.327,1.423c0.218,0.485,0.559,0.91,1.023,1.275l3.364,2.691
		c0.429,0.344,0.81,0.72,1.144,1.129c0.333,0.41,0.616,0.839,0.848,1.285c0.231,0.448,0.407,0.908,0.526,1.381
		c0.12,0.474,0.18,0.94,0.18,1.402c0,0.581-0.095,1.137-0.284,1.666s-0.479,0.997-0.868,1.403c-0.39,0.407-0.879,0.731-1.468,0.973
		C60.612,119.002,59.914,119.123,59.107,119.123z"/>
	<path fill="#4A4A4A" d="M74.783,114.224l-0.944,4.711H71.15l3.945-18.843h2.78l4.041,18.843h-2.591l-1.013-4.711H74.783z
		 M77.88,112.204l-1.346-8.074l-1.346,8.074H77.88z"/>
	<path fill="#4A4A4A" d="M87.974,100.092c0.785,0,1.473,0.07,2.062,0.211c0.589,0.14,1.095,0.327,1.521,0.562
		c0.424,0.233,0.775,0.51,1.057,0.825c0.281,0.314,0.5,0.646,0.662,0.992c0.16,0.349,0.274,0.703,0.342,1.067
		c0.066,0.364,0.1,0.715,0.1,1.052c0,0.506-0.044,0.967-0.131,1.389c-0.088,0.42-0.247,0.799-0.479,1.136
		c-0.231,0.336-0.545,0.631-0.937,0.883c-0.394,0.252-0.896,0.463-1.504,0.631c0.505,0.168,0.964,0.372,1.377,0.61
		c0.414,0.238,0.769,0.537,1.062,0.898c0.295,0.36,0.521,0.801,0.685,1.318c0.161,0.52,0.241,1.146,0.241,1.883
		c0,0.792-0.122,1.518-0.368,2.176c-0.245,0.659-0.599,1.227-1.062,1.698s-1.027,0.843-1.692,1.109
		c-0.666,0.267-1.421,0.399-2.261,0.399h-4.711v-18.841H87.974z M86.628,108.167h1.346c0.225,0,0.463-0.014,0.715-0.042
		s0.504-0.082,0.752-0.163c0.248-0.08,0.488-0.195,0.721-0.347s0.433-0.352,0.604-0.601c0.172-0.248,0.312-0.554,0.416-0.914
		s0.157-0.793,0.157-1.299c0-0.673-0.119-1.191-0.356-1.557c-0.238-0.364-0.567-0.631-0.988-0.799s-0.918-0.268-1.493-0.295
		s-1.198-0.043-1.871-0.043L86.628,108.167L86.628,108.167z M86.628,116.915h1.346c0.506,0,0.965-0.049,1.377-0.146
		c0.414-0.099,0.769-0.273,1.062-0.525c0.294-0.253,0.521-0.596,0.684-1.03c0.161-0.435,0.241-0.987,0.241-1.661
		s-0.081-1.227-0.241-1.662c-0.162-0.435-0.39-0.777-0.684-1.029c-0.295-0.252-0.648-0.428-1.062-0.525
		c-0.412-0.098-0.871-0.146-1.377-0.146h-1.346V116.915z"/>
	<path fill="#4A4A4A" d="M106.815,112.877c0,0.842-0.088,1.642-0.264,2.397c-0.176,0.757-0.47,1.42-0.884,1.986
		c-0.413,0.568-0.966,1.021-1.655,1.356c-0.691,0.337-1.552,0.505-2.582,0.505c-0.701,0-1.32-0.077-1.859-0.23
		c-0.54-0.154-1.008-0.369-1.404-0.643s-0.73-0.604-1.004-0.988s-0.492-0.81-0.657-1.271c-0.165-0.463-0.282-0.956-0.353-1.482
		c-0.069-0.525-0.104-1.068-0.104-1.63v-6.729c0-0.561,0.035-1.104,0.104-1.629c0.07-0.525,0.188-1.021,0.353-1.482
		s0.384-0.887,0.657-1.272c0.273-0.385,0.607-0.715,1.004-0.987c0.396-0.273,0.864-0.487,1.404-0.643
		c0.539-0.152,1.158-0.23,1.859-0.23c1.03,0,1.891,0.169,2.582,0.505c0.689,0.337,1.242,0.789,1.655,1.355
		c0.414,0.568,0.708,1.23,0.884,1.987s0.264,1.557,0.264,2.396V112.877z M98.74,113.551c0,0.504,0.046,0.964,0.137,1.377
		c0.091,0.414,0.242,0.769,0.452,1.062c0.21,0.295,0.486,0.521,0.831,0.684c0.343,0.161,0.769,0.242,1.271,0.242
		c0.506,0,0.93-0.081,1.272-0.242s0.62-0.389,0.831-0.684c0.21-0.294,0.359-0.647,0.451-1.062c0.092-0.413,0.138-0.873,0.138-1.377
		v-8.075c0-0.505-0.046-0.964-0.138-1.377c-0.092-0.414-0.241-0.769-0.451-1.062c-0.211-0.295-0.487-0.521-0.831-0.684
		c-0.345-0.162-0.769-0.242-1.272-0.242s-0.929,0.08-1.271,0.242c-0.345,0.16-0.621,0.389-0.831,0.684
		c-0.21,0.294-0.361,0.648-0.452,1.062c-0.091,0.413-0.137,0.872-0.137,1.377V113.551z"/>
	<path fill="#4A4A4A" d="M114.42,110.149l2.151-10.059h2.688l-4.034,18.842h-2.863l-3.865-18.842h2.688l1.99,10.094l0.613,4.711
		L114.42,110.149z"/>
	<path fill="#4A4A4A" d="M127.339,110.187h-3.363v6.729h4.709v2.02h-7.401v-18.843h7.401v2.019h-4.709v6.058h3.363V110.187z"/>
</g>
</svg>
