<?xml version="1.0" encoding="utf-8"?>
<!-- Generator: Adobe Illustrator 16.0.0, SVG Export Plug-In . SVG Version: 6.00 Build 0)  -->
<!DOCTYPE svg PUBLIC "-//W3C//DTD SVG 1.1//EN" "http://www.w3.org/Graphics/SVG/1.1/DTD/svg11.dtd">
<svg version="1.1" id="Isolation_Mode" xmlns="http://www.w3.org/2000/svg" xmlns:xlink="http://www.w3.org/1999/xlink" x="0px"
	 y="0px" width="194.095px" height="32.35px" viewBox="-72.366 867.653 194.095 32.35"
	 enable-background="new -72.366 867.653 194.095 32.35" xml:space="preserve">
<g>
	<g>
		<path fill="#7B9B8E" d="M-59.802,888.753c0,0.467-0.005,0.838-0.02,1.114c-0.007,0.147-0.011,0.277-0.01,0.395l1.853,0.011
			c0,0.466-0.006,0.837-0.02,1.113c-0.014,0.277-0.014,0.499,0,0.669c0.014,0.608-0.036,1.075-0.149,1.401
			c-0.113,0.325-0.275,0.56-0.488,0.701c-0.213,0.141-0.47,0.218-0.775,0.233c-0.304,0.014-0.633,0.021-0.987,0.021h-4.82v0.732
			h3.783c2.237,0,3.836-0.468,4.798-1.401c0.963-0.935,1.445-2.527,1.445-4.778v-10.319c0-0.003-0.001-0.005-0.001-0.009h-6.097
			c-1.034,0-1.911,0.127-2.633,0.381c-0.722,0.256-1.306,0.628-1.752,1.115c-0.446,0.488-0.768,1.088-0.966,1.794
			c-0.198,0.708-0.297,1.522-0.297,2.443c0,0.764,0.074,1.502,0.223,2.217c0.135,0.651,0.372,1.229,0.701,1.737
			c0.623,0.268,1.387,0.406,2.306,0.406L-59.802,888.753z M-63.941,883.498c-0.028-0.305-0.035-0.535-0.021-0.689
			c0-0.199,0.011-0.453,0.032-0.765s0.06-0.623,0.117-0.935c0.056-0.312,0.13-0.602,0.222-0.871c0.093-0.268,0.203-0.459,0.33-0.574
			c0.48-0.438,1.125-0.657,1.932-0.657h1.485v1.533c0.109-0.01,0.221-0.015,0.337-0.015h1.486v7.432
			c-0.623,0-1.129-0.003-1.519-0.011c-0.389-0.006-0.704-0.028-0.944-0.063c-0.241-0.035-0.436-0.092-0.584-0.17
			c-0.148-0.077-0.293-0.18-0.435-0.307c-0.1-0.087-0.191-0.267-0.277-0.542c-0.044-0.146-0.084-0.299-0.122-0.458
			c-0.152-0.012-0.288-0.025-0.405-0.042c-0.241-0.035-0.436-0.093-0.584-0.17s-0.293-0.18-0.435-0.307
			c-0.099-0.087-0.191-0.267-0.276-0.542c-0.085-0.277-0.155-0.577-0.211-0.903C-63.87,884.117-63.913,883.803-63.941,883.498z"/>
		<path fill="#7B9B8E" d="M-61.886,890.249l1.446,0.009c0-0.127,0.003-0.267,0.011-0.423c0.007-0.13,0.012-0.287,0.015-0.479
			l-3.295-0.018c-0.564,0-1.083-0.05-1.554-0.146c0.263,0.223,0.56,0.416,0.894,0.58C-63.719,890.091-62.89,890.249-61.886,890.249z
			"/>
		<path fill="#7B9B8E" d="M-63.214,884.339c0.051,0.296,0.116,0.574,0.193,0.827c0.057,0.182,0.099,0.257,0.112,0.277
			c0.099,0.089,0.2,0.16,0.301,0.213c0.061,0.031,0.178,0.075,0.392,0.106c0.059,0.009,0.126,0.017,0.198,0.023
			c-0.042-0.262-0.078-0.521-0.101-0.77c-0.028-0.304-0.035-0.535-0.021-0.689c0-0.199,0.011-0.453,0.032-0.765
			c0.021-0.312,0.06-0.623,0.117-0.935c0.056-0.312,0.13-0.602,0.222-0.871c0.093-0.267,0.202-0.459,0.33-0.573
			c0.275-0.251,0.606-0.428,0.988-0.535v-1.035h-0.878c-0.655,0-1.154,0.164-1.527,0.505c-0.003,0.003-0.073,0.067-0.159,0.315
			c-0.082,0.241-0.149,0.505-0.2,0.785c-0.052,0.284-0.088,0.575-0.108,0.866c-0.021,0.3-0.03,0.543-0.03,0.724v0.026l-0.003,0.027
			c-0.006,0.067-0.011,0.231,0.021,0.579C-63.31,883.729-63.269,884.031-63.214,884.339z"/>
		<path fill="#7B9B8E" d="M-54.585,878.67v10.295c0,2.41-0.548,4.164-1.629,5.214c-1.075,1.044-2.832,1.573-5.222,1.573h-3.783
			v0.911h5.605c2.237,0,3.836-0.468,4.798-1.401c0.964-0.935,1.445-2.527,1.445-4.778v-10.319c0-0.41-0.154-0.767-0.457-1.072
			C-54.051,878.869-54.304,878.729-54.585,878.67z"/>
		<path fill="#7B9B8E" d="M-50.731,880.281c0.212-0.094,0.428-0.186,0.651-0.27l0.024-0.011l0.026-0.007
			c0.422-0.12,0.785-0.216,1.108-0.294c0.324-0.077,0.63-0.147,0.92-0.211c-0.039-0.002-0.08-0.003-0.12-0.003h-3.069
			C-51.149,879.878-50.995,880.142-50.731,880.281z"/>
		<path fill="#7B9B8E" d="M-46.19,879.771c-0.284,0.059-0.561,0.106-0.828,0.149c-0.27,0.042-0.549,0.096-0.839,0.16
			c-0.291,0.063-0.598,0.134-0.924,0.212c-0.133,0.032-0.276,0.068-0.421,0.106h2.902c0.877,0,1.522,0.297,1.933,0.891
			c-0.284,0.059-0.56,0.107-0.828,0.149c-0.145,0.023-0.293,0.05-0.443,0.079v1.087c0.14-0.043,0.294-0.084,0.464-0.125
			c0.354-0.085,0.808-0.177,1.358-0.275v5.582c-0.169,0.298-0.343,0.49-0.519,0.575c-0.178,0.084-0.343,0.111-0.5,0.084
			c-0.303,0-0.586-0.05-0.855-0.145l0.031,0.43c1.075,0,1.917,0,2.526,0c0.623,0,1.09-0.002,1.401-0.009
			c0.311-0.007,0.51-0.019,0.594-0.033c0.086-0.014,0.128-0.028,0.128-0.042v-6.477c0-1.369-0.292-2.483-0.871-3.344
			c-0.958-0.448-2.165-0.678-3.635-0.678h-4.755c-0.283,0-0.51,0.109-0.68,0.329c-0.094,0.122-0.159,0.257-0.201,0.402h3.03
			C-47.246,878.88-46.601,879.177-46.19,879.771z"/>
		<path fill="#7B9B8E" d="M-40.87,879.456c0.296,0.744,0.467,1.638,0.467,2.714v6.477c0,0.127-0.046,0.548-0.635,0.642
			c-0.08,0.014-0.229,0.029-0.681,0.04c-0.3,0.008-0.75,0.011-1.415,0.011h-2.526h-0.565l-0.019-0.262
			c-0.069,0.026-0.137,0.051-0.204,0.072c-0.345,0.113-0.734,0.168-1.188,0.168c-0.765,0-1.518-0.094-2.24-0.28
			c0.052,0.04,0.101,0.083,0.155,0.12c0.523,0.36,1.125,0.63,1.804,0.807c0.681,0.177,1.381,0.266,2.103,0.266
			c0.382,0,0.714-0.046,0.999-0.139c0.282-0.091,0.593-0.236,0.934-0.435l0.042,0.593c1.075,0,1.917,0,2.526,0
			c0.623,0,1.089-0.002,1.401-0.009c0.312-0.007,0.51-0.019,0.594-0.032c0.085-0.014,0.127-0.028,0.127-0.042v-6.477
			C-39.188,881.787-39.751,880.379-40.87,879.456z"/>
		<path fill="#7B9B8E" d="M-47.634,888.711c0.382,0,0.714-0.046,0.999-0.139c0.234-0.075,0.49-0.191,0.765-0.342
			c-0.317-0.141-0.59-0.335-0.823-0.581c-0.216-0.229-0.388-0.491-0.519-0.781c-0.164-0.034-0.322-0.085-0.475-0.152
			c-0.319-0.143-0.594-0.338-0.829-0.585c-0.233-0.248-0.417-0.531-0.551-0.85c-0.135-0.318-0.203-0.662-0.203-1.029
			c0-0.581,0.057-1.036,0.17-1.369c0.047-0.138,0.095-0.265,0.144-0.392c-0.146,0.07-0.294,0.139-0.434,0.212
			c-0.417,0.219-0.778,0.473-1.083,0.765c-0.305,0.289-0.545,0.626-0.722,1.008c-0.178,0.382-0.266,0.813-0.266,1.295
			c0,0.778,0.16,1.448,0.478,2.007c0.056,0.098,0.119,0.189,0.182,0.282c0.332,0.155,0.684,0.287,1.063,0.386
			C-49.056,888.622-48.355,888.711-47.634,888.711z"/>
		<path fill="#7B9B8E" d="M-46.917,883.498c0.099-0.17,0.213-0.313,0.34-0.435c0.086-0.082,0.198-0.157,0.33-0.226v-1.192
			c-0.229,0.051-0.464,0.105-0.712,0.165c-0.325,0.077-0.687,0.174-1.083,0.287c-0.021,0.007-0.041,0.018-0.062,0.025
			c-0.035,0.045-0.068,0.091-0.099,0.142c-0.116,0.25-0.225,0.523-0.322,0.814c-0.063,0.185-0.138,0.537-0.138,1.173
			c0,0.284,0.052,0.552,0.154,0.793c0.106,0.25,0.252,0.476,0.434,0.668c0.182,0.192,0.389,0.339,0.634,0.447
			c0.008,0.003,0.016,0.006,0.024,0.01c-0.019-0.13-0.031-0.263-0.031-0.399c0-0.581,0.057-1.036,0.17-1.369
			C-47.165,884.068-47.043,883.768-46.917,883.498z"/>
		<path fill="#7B9B8E" d="M-27.018,888.73c0.412,0,0.769-0.152,1.073-0.455c0.305-0.305,0.456-0.662,0.456-1.073v-14.596h-2.848
			v6.008h-1.614c-1.061-0.041-2.042,0.022-2.941,0.192c-0.898,0.169-1.676,0.485-2.334,0.944c-0.658,0.461-1.168,1.08-1.529,1.858
			c-0.36,0.778-0.527,1.748-0.5,2.908c0,0.948,0.1,1.78,0.298,2.495c0.125,0.453,0.307,0.855,0.533,1.215
			c0.119,0.051,0.235,0.102,0.363,0.144c0.721,0.24,1.598,0.359,2.632,0.359H-27.018z M-33.759,885.653
			c-0.178-0.354-0.301-0.761-0.371-1.223c-0.071-0.458-0.12-0.922-0.15-1.391h0.022c0.015-0.437,0.042-0.872,0.085-1.305
			c0.043-0.432,0.141-0.821,0.297-1.167c0.156-0.348,0.389-0.627,0.7-0.84c0.312-0.211,0.736-0.318,1.275-0.318h1.761v1.522
			c0.021,0,0.04-0.004,0.062-0.004h1.761v7.433h-1.507c-0.551,0-0.997-0.108-1.337-0.328c-0.34-0.221-0.598-0.508-0.775-0.861
			c-0.057-0.113-0.107-0.234-0.152-0.358c-0.352-0.044-0.652-0.143-0.896-0.299C-33.324,886.294-33.582,886.007-33.759,885.653z"/>
		<path fill="#7B9B8E" d="M-32.655,886.003c0.107,0.069,0.239,0.121,0.387,0.159c-0.014-0.069-0.029-0.139-0.04-0.212
			c-0.071-0.459-0.12-0.923-0.149-1.39h0.021c0.015-0.438,0.042-0.873,0.085-1.307c0.042-0.432,0.14-0.82,0.297-1.167
			c0.156-0.348,0.39-0.626,0.701-0.839c0.168-0.114,0.372-0.195,0.606-0.248v-0.982H-31.9c-0.411,0-0.725,0.072-0.932,0.212
			c-0.219,0.15-0.379,0.342-0.49,0.588c-0.127,0.281-0.21,0.61-0.247,0.978c-0.041,0.406-0.068,0.832-0.082,1.266l-0.006,0.181
			c0.03,0.377,0.072,0.745,0.127,1.099c0.06,0.396,0.166,0.746,0.314,1.042C-33.087,885.639-32.903,885.843-32.655,886.003z"/>
		<path fill="#7B9B8E" d="M-24.882,887.202c0,0.576-0.213,1.082-0.634,1.504c-0.421,0.419-0.926,0.633-1.502,0.633h-6.411
			c-0.836,0-1.586-0.078-2.241-0.23c0.395,0.333,0.869,0.595,1.431,0.781c0.721,0.24,1.599,0.359,2.632,0.359h6.412
			c0.412,0,0.769-0.151,1.073-0.455c0.305-0.305,0.456-0.662,0.456-1.073v-16.114h-1.215V887.202z"/>
		<path fill="#7B9B8E" d="M-14.619,888.753c0,0.467-0.007,0.838-0.021,1.114c-0.008,0.147-0.012,0.277-0.011,0.395l1.854,0.011
			c0,0.466-0.007,0.837-0.021,1.113c-0.015,0.277-0.015,0.499,0,0.669c0.014,0.608-0.035,1.075-0.148,1.401
			c-0.114,0.325-0.275,0.56-0.489,0.701c-0.211,0.141-0.47,0.218-0.774,0.233c-0.305,0.014-0.633,0.021-0.987,0.021h-4.82v0.732
			h3.783c2.237,0,3.836-0.468,4.798-1.401c0.963-0.935,1.445-2.527,1.445-4.778v-10.319c0-0.003-0.001-0.005-0.001-0.009h-6.096
			c-1.034,0-1.912,0.127-2.633,0.381c-0.723,0.256-1.307,0.628-1.752,1.115c-0.445,0.488-0.769,1.088-0.967,1.794
			c-0.197,0.708-0.297,1.522-0.297,2.443c0,0.764,0.075,1.502,0.223,2.217c0.135,0.651,0.372,1.229,0.702,1.738
			c0.624,0.267,1.387,0.405,2.307,0.405L-14.619,888.753z M-18.758,883.498c-0.029-0.305-0.036-0.535-0.021-0.689
			c0-0.199,0.011-0.453,0.032-0.765c0.022-0.312,0.06-0.623,0.118-0.935c0.055-0.312,0.13-0.602,0.221-0.871
			c0.093-0.268,0.203-0.459,0.33-0.574c0.481-0.438,1.126-0.657,1.933-0.657h1.487v1.533c0.109-0.01,0.22-0.015,0.335-0.015h1.487
			v7.432c-0.623,0-1.13-0.003-1.52-0.011c-0.389-0.006-0.703-0.028-0.944-0.063c-0.241-0.035-0.436-0.092-0.584-0.17
			c-0.149-0.077-0.294-0.18-0.437-0.307c-0.097-0.087-0.19-0.267-0.275-0.542c-0.044-0.146-0.085-0.299-0.122-0.458
			c-0.152-0.012-0.288-0.025-0.405-0.042c-0.242-0.035-0.435-0.093-0.584-0.17c-0.149-0.077-0.294-0.18-0.437-0.307
			c-0.098-0.087-0.19-0.267-0.275-0.542c-0.085-0.277-0.156-0.577-0.211-0.903C-18.688,884.117-18.73,883.803-18.758,883.498z"/>
		<path fill="#7B9B8E" d="M-18.032,884.341c0.05,0.294,0.115,0.572,0.194,0.826c0.056,0.182,0.099,0.258,0.112,0.278
			c0.099,0.088,0.2,0.158,0.3,0.211c0.061,0.031,0.178,0.076,0.392,0.106c0.06,0.009,0.127,0.017,0.199,0.023
			c-0.043-0.262-0.078-0.521-0.101-0.77c-0.029-0.304-0.036-0.535-0.022-0.689c0-0.199,0.012-0.453,0.032-0.765
			c0.022-0.312,0.06-0.623,0.118-0.935c0.056-0.312,0.13-0.602,0.221-0.871c0.093-0.267,0.204-0.459,0.33-0.573
			c0.275-0.251,0.606-0.428,0.989-0.535v-1.035h-0.879c-0.655,0-1.154,0.164-1.526,0.503c-0.003,0.003-0.075,0.069-0.161,0.317
			c-0.083,0.243-0.149,0.506-0.199,0.787c-0.052,0.277-0.087,0.561-0.109,0.864c-0.021,0.3-0.031,0.543-0.031,0.724v0.026
			l-0.002,0.027c-0.006,0.067-0.012,0.232,0.021,0.58C-18.126,883.737-18.085,884.038-18.032,884.341z"/>
		<path fill="#7B9B8E" d="M-16.702,890.249l1.444,0.009c0-0.127,0.003-0.267,0.012-0.421c0.007-0.134,0.012-0.294,0.015-0.48
			l-3.293-0.018c-0.565,0-1.084-0.05-1.556-0.146c0.263,0.224,0.56,0.417,0.893,0.581
			C-18.536,890.091-17.708,890.249-16.702,890.249z"/>
		<path fill="#7B9B8E" d="M-9.403,878.67v10.295c0,2.41-0.548,4.164-1.628,5.214c-1.075,1.044-2.832,1.573-5.222,1.573h-3.783v0.911
			h5.605c2.236,0,3.836-0.468,4.798-1.401c0.963-0.935,1.445-2.527,1.445-4.778v-10.319c0-0.41-0.153-0.767-0.457-1.072
			C-8.869,878.869-9.122,878.729-9.403,878.67z"/>
		<path fill="#7B9B8E" d="M-1.008,889.135c0.609,0,1.225-0.093,1.847-0.275c0.623-0.185,1.182-0.426,1.678-0.722
			c0.495-0.298,0.898-0.627,1.209-0.986c0.252-0.294,0.392-0.579,0.431-0.857c-0.198,0.039-0.364,0.109-0.488,0.22
			c-0.191,0.169-0.392,0.354-0.605,0.552c-0.212,0.198-0.478,0.379-0.796,0.542c-0.318,0.162-0.774,0.238-1.369,0.223
			c-0.765-0.028-1.363-0.262-1.794-0.701c-0.225-0.228-0.399-0.519-0.526-0.871c-0.531-0.095-0.963-0.309-1.296-0.647
			c-0.431-0.438-0.682-1.104-0.753-1.995h8.473l0.064-0.106c0.084-1.075-0.015-2.04-0.298-2.888
			c-0.203-0.609-0.484-1.145-0.836-1.612c-0.226-0.117-0.459-0.228-0.707-0.32c-0.814-0.304-1.71-0.456-2.687-0.456
			c-0.92,0-1.797,0.139-2.633,0.414c-0.835,0.275-1.568,0.679-2.197,1.21c-0.631,0.531-1.126,1.175-1.487,1.933
			c-0.36,0.758-0.527,1.617-0.499,2.581c0.029,1.06,0.216,1.983,0.563,2.77c0.179,0.407,0.397,0.775,0.65,1.11
			c0.37,0.193,0.771,0.354,1.2,0.48C-3.007,888.986-2.056,889.121-1.008,889.135z M-1.029,879.347c0.68,0,1.246,0.163,1.699,0.488
			c0.269,0.198,0.453,0.403,0.551,0.616c0.063,0.136,0.119,0.295,0.171,0.467c0.418,0.07,0.789,0.211,1.1,0.436
			c0.268,0.198,0.453,0.403,0.551,0.616c0.099,0.212,0.184,0.468,0.255,0.765H-1.5c0.202-0.712,0.543-1.214,1.014-1.519h-2.836
			C-2.969,879.971-2.205,879.347-1.029,879.347z"/>
		<path fill="#7B9B8E" d="M0.315,880.327c-0.351-0.251-0.79-0.373-1.345-0.373c-0.617,0-1.06,0.207-1.367,0.654H0.61
			C0.556,880.533,0.465,880.438,0.315,880.327z"/>
		<path fill="#7B9B8E" d="M5.306,880.007c-0.062-0.062-0.131-0.117-0.197-0.177c0.086,0.193,0.167,0.392,0.236,0.6
			c0.307,0.923,0.417,1.975,0.327,3.126l-0.011,0.143l-0.073,0.122l-0.064,0.106l-0.177,0.296H5.001H3.326
			c0.29,0.086,0.554,0.234,0.791,0.443c0.158,0.139,0.289,0.296,0.392,0.468h2.315l0.063-0.106c0.085-1.075-0.015-2.04-0.297-2.888
			C6.307,881.289,5.878,880.579,5.306,880.007z"/>
		<path fill="#7B9B8E" d="M4.774,886.281c-0.035,0.427-0.231,0.853-0.588,1.267c-0.353,0.408-0.809,0.782-1.357,1.111
			c-0.542,0.323-1.153,0.586-1.817,0.782c-0.675,0.199-1.355,0.301-2.027,0.301c0,0,0,0-0.001,0
			c-1.058-0.015-2.035-0.151-2.91-0.401c0.549,0.392,1.174,0.698,1.885,0.908c0.856,0.257,1.807,0.391,2.855,0.404
			c0.609,0,1.225-0.093,1.847-0.275c0.623-0.184,1.182-0.426,1.678-0.722c0.495-0.298,0.897-0.627,1.209-0.986
			c0.312-0.363,0.46-0.713,0.447-1.053c-0.015-0.396-0.167-0.722-0.457-0.977C5.316,886.444,5.061,886.325,4.774,886.281z"/>
		<path fill="#7B9B8E" d="M0.828,885.104c0.226-0.212,0.428-0.396,0.616-0.563c0.162-0.143,0.355-0.25,0.58-0.317h-4.79
			c0.1,0.415,0.261,0.737,0.482,0.962c0.185,0.188,0.418,0.318,0.693,0.404c-0.024-0.146-0.044-0.296-0.057-0.455h2.44
			C0.804,885.123,0.817,885.114,0.828,885.104z"/>
		<path fill="#7B9B8E" d="M3.716,885.122c-0.29-0.256-0.633-0.383-1.029-0.383c-0.368,0-0.647,0.085-0.839,0.255
			c-0.05,0.045-0.103,0.094-0.154,0.14h2.034C3.723,885.131,3.721,885.126,3.716,885.122z"/>
		<path fill="#7B9B8E" d="M12.327,879.835h2.44c0.591,0,0.918-0.31,0.984-0.922h-1.667v-1.52h-1.822v-3.186
			c0-0.273-0.053-0.535-0.151-0.787c-0.112-0.019-0.225-0.03-0.342-0.03c-0.325,0-0.629,0.062-0.913,0.182
			c-0.283,0.12-0.53,0.286-0.742,0.499c-0.212,0.212-0.379,0.459-0.5,0.742c-0.12,0.284-0.18,0.588-0.18,0.913v3.187H8.013v2.44
			h1.444l0.018,7.369l2.853-0.012V879.835z"/>
		<path fill="#7B9B8E" d="M12.871,876.786h1.215v-1.06c0-0.312-0.064-0.607-0.191-0.891c-0.127-0.282-0.296-0.53-0.509-0.744
			c-0.167-0.167-0.361-0.3-0.567-0.415c0.034,0.174,0.053,0.352,0.053,0.531V876.786z"/>
		<path fill="#7B9B8E" d="M16.59,878.913h-0.234c-0.085,0.96-0.661,1.529-1.589,1.529h-1.833v8.269v0.604l-0.604,0.002l-2.854,0.013
			l0.002,0.919l4.671-0.02v-8.876h2.441c0.666,0,0.999-0.39,0.999-1.168c0-0.324-0.088-0.618-0.266-0.88
			C17.146,879.043,16.902,878.913,16.59,878.913z"/>
		<path fill="#7B9B8E" d="M21.479,888.988c0.583,0,1.149-0.074,1.696-0.225c0.595-0.163,1.125-0.414,1.593-0.754
			c0.466-0.34,0.842-0.762,1.125-1.264s0.424-1.086,0.424-1.752c0-0.581-0.148-1.106-0.442-1.576
			c-0.245-0.122-0.508-0.237-0.792-0.344c-0.27-0.101-0.563-0.201-0.882-0.309c-0.318-0.105-0.612-0.223-0.881-0.35
			c-0.268-0.128-0.495-0.266-0.68-0.414c-0.184-0.149-0.275-0.321-0.275-0.521c0-0.082,0.007-0.159,0.018-0.232
			c-0.001,0-0.002,0-0.004-0.001c-0.318-0.106-0.612-0.223-0.881-0.351c-0.269-0.127-0.495-0.265-0.68-0.413
			c-0.184-0.149-0.276-0.322-0.276-0.521c0-0.722,0.411-1.09,1.232-1.104c0.311,0,0.601,0.074,0.87,0.223
			c0.268,0.148,0.523,0.318,0.764,0.511c0.241,0.19,0.464,0.364,0.669,0.519c0.204,0.157,0.4,0.234,0.583,0.234
			c0.325,0,0.605-0.095,0.838-0.287c0.234-0.191,0.357-0.449,0.373-0.774c0.005-0.135-0.022-0.266-0.068-0.396
			c-0.379-0.164-0.782-0.303-1.21-0.409c-0.539-0.135-1.02-0.194-1.444-0.181c-0.637,0.014-1.243,0.11-1.815,0.286
			c-0.573,0.178-1.081,0.432-1.519,0.765c-0.439,0.333-0.789,0.746-1.051,1.241c-0.262,0.496-0.394,1.076-0.394,1.741
			c0,0.563,0.15,1.076,0.445,1.54c0.22,0.111,0.455,0.217,0.706,0.318c0.197,0.085,0.449,0.18,0.754,0.286s0.598,0.226,0.881,0.36
			c0.282,0.135,0.522,0.287,0.721,0.458c0.199,0.169,0.298,0.353,0.298,0.551c0,0.061-0.008,0.117-0.015,0.174
			c0.281,0.101,0.555,0.212,0.818,0.336c0.282,0.135,0.522,0.287,0.721,0.458c0.199,0.169,0.298,0.353,0.298,0.551
			c0,0.693-0.453,1.041-1.359,1.041c-0.212,0-0.445-0.078-0.701-0.233c-0.254-0.156-0.509-0.324-0.764-0.51
			c-0.255-0.184-0.503-0.354-0.742-0.51c-0.243-0.156-0.454-0.233-0.638-0.233c-0.241,0-0.466,0.06-0.679,0.181
			c-0.212,0.121-0.379,0.275-0.499,0.467c-0.121,0.19-0.181,0.4-0.181,0.626c0,0.085,0.019,0.169,0.048,0.253
			c0.802,0.358,1.747,0.543,2.844,0.543C21.379,888.987,21.43,888.988,21.479,888.988z"/>
		<path fill="#7B9B8E" d="M21.506,885.772c-0.007-0.006-0.012-0.012-0.02-0.019c-0.157-0.135-0.355-0.259-0.586-0.369
			c-0.264-0.125-0.541-0.238-0.823-0.336c-0.024-0.01-0.046-0.017-0.07-0.026c0.381,0.251,0.827,0.479,1.34,0.685
			C21.397,885.729,21.45,885.75,21.506,885.772z"/>
		<path fill="#7B9B8E" d="M24.981,880.927c0.084,0.061,0.17,0.118,0.251,0.184c0.241,0.191,0.463,0.364,0.669,0.52
			c0.204,0.156,0.4,0.233,0.584,0.233c0.325,0,0.604-0.095,0.838-0.287c0.234-0.191,0.357-0.449,0.373-0.774
			c0.014-0.34-0.135-0.665-0.447-0.978c-0.219-0.219-0.478-0.415-0.771-0.593c0,0.027,0.002,0.054,0.001,0.081
			c-0.024,0.496-0.229,0.917-0.594,1.216C25.624,880.743,25.32,880.876,24.981,880.927z"/>
		<path fill="#7B9B8E" d="M22.353,879.613c-0.18-0.099-0.369-0.146-0.568-0.146c-0.634,0.01-0.634,0.246-0.636,0.49
			c0.003,0.005,0.018,0.025,0.051,0.053c0.146,0.117,0.334,0.231,0.56,0.339c0.24,0.113,0.513,0.222,0.814,0.322
			c0.026,0.008,0.048,0.017,0.073,0.024c0.179-0.178,0.447-0.278,0.8-0.306c-0.139-0.107-0.278-0.214-0.417-0.323
			C22.824,879.901,22.595,879.748,22.353,879.613z"/>
		<path fill="#7B9B8E" d="M26.785,883.971c0.092,0.323,0.141,0.664,0.141,1.023c0,0.77-0.169,1.459-0.502,2.051
			c-0.326,0.577-0.762,1.067-1.297,1.456c-0.524,0.382-1.127,0.667-1.789,0.849c-0.595,0.164-1.22,0.247-1.857,0.247
			c-0.055,0-0.109-0.001-0.15-0.002c-0.734,0-1.409-0.082-2.029-0.235c0.973,0.761,2.253,1.146,3.851,1.146
			c0.636,0.014,1.253-0.061,1.847-0.224c0.595-0.162,1.125-0.414,1.592-0.753c0.467-0.34,0.842-0.762,1.126-1.263
			c0.283-0.503,0.424-1.087,0.424-1.753C28.141,885.496,27.687,884.649,26.785,883.971z"/>
	</g>
	<g>
		<path d="M80.715,887.745c-0.218-0.234-0.485-0.374-0.797-0.427c0,0.004,0,0.008,0,0.012c0,0.292-0.057,0.567-0.171,0.818
			c-0.111,0.242-0.267,0.459-0.466,0.645c-0.193,0.179-0.418,0.319-0.669,0.421c-0.123,0.05-0.25,0.086-0.38,0.111
			c0.071,0.207,0.185,0.392,0.354,0.548c0.29,0.27,0.642,0.403,1.056,0.403c0.197,0,0.386-0.035,0.567-0.108
			c0.181-0.072,0.342-0.173,0.482-0.302c0.139-0.13,0.249-0.281,0.327-0.451c0.077-0.171,0.116-0.36,0.116-0.566
			C81.134,888.413,80.994,888.046,80.715,887.745z"/>
		<path d="M78.162,888.716c0.076-0.017,0.152-0.037,0.225-0.066c0.181-0.072,0.342-0.173,0.482-0.302
			c0.139-0.131,0.248-0.281,0.327-0.451c0.077-0.172,0.116-0.36,0.116-0.566c0-0.001,0-0.001,0-0.002
			c-0.288,0.059-0.536,0.196-0.74,0.417C78.32,888.014,78.188,888.34,78.162,888.716z"/>
	</g>
	<g>
		<path fill="#7B9B8E" d="M88.113,888.456c0.056-0.029,0.111-0.062,0.166-0.095c-0.14,0.014-0.303,0.021-0.496,0.021
			c-0.341,0-0.634-0.076-0.877-0.226s-0.442-0.348-0.598-0.591c-0.133-0.208-0.227-0.445-0.295-0.703
			c-0.018,0-0.034,0.001-0.052,0.001c-0.342,0-0.634-0.077-0.877-0.227s-0.443-0.347-0.598-0.59
			c-0.156-0.243-0.266-0.521-0.333-0.832c-0.068-0.311-0.102-0.627-0.102-0.946c0-0.311,0.032-0.617,0.094-0.917
			c0.062-0.301,0.166-0.568,0.311-0.801c0.145-0.232,0.334-0.421,0.567-0.566c0.232-0.145,0.521-0.217,0.862-0.217
			c0.229,0,0.433,0.029,0.614,0.093c0.181,0.062,0.35,0.142,0.506,0.24c0.155,0.099,0.297,0.205,0.427,0.318
			c0.129,0.115,0.256,0.224,0.381,0.326c0.279,0.238,0.553,0.357,0.822,0.357c0.291,0,0.547-0.099,0.769-0.295
			c0.223-0.196,0.335-0.44,0.335-0.731c0-0.128-0.029-0.254-0.082-0.379c-0.297-0.122-0.618-0.209-0.962-0.261
			c-0.347-0.052-0.739-0.077-1.173-0.077c-0.673,0-1.312,0.101-1.918,0.303c-0.606,0.201-1.137,0.497-1.592,0.885
			c-0.456,0.389-0.815,0.859-1.08,1.415c-0.265,0.554-0.396,1.183-0.396,1.887c0,0.684,0.147,1.307,0.443,1.873
			c0.112,0.215,0.243,0.415,0.382,0.606c0.197,0.099,0.4,0.189,0.615,0.267c0.621,0.223,1.263,0.334,1.926,0.334
			C86.768,888.93,87.506,888.771,88.113,888.456z"/>
		<path fill="#7B9B8E" d="M89.251,883.938c0.128,0.115,0.256,0.224,0.38,0.326c0.279,0.238,0.554,0.357,0.823,0.357
			c0.29,0,0.546-0.099,0.769-0.294c0.223-0.197,0.334-0.441,0.334-0.731c0-0.206-0.068-0.408-0.203-0.605
			c-0.279-0.311-0.556-0.572-0.831-0.784c-0.059-0.047-0.121-0.081-0.182-0.123c-0.001,0.462-0.188,0.87-0.54,1.18
			c-0.257,0.227-0.56,0.369-0.885,0.422C89.036,883.766,89.148,883.85,89.251,883.938z"/>
		<path fill="#7B9B8E" d="M90.657,886.906c-0.097,0-0.188,0.017-0.276,0.043l-0.05,0.158l-0.027,0.087l-0.052,0.076
			c-0.541,0.783-1.166,1.362-1.857,1.724c-0.691,0.359-1.53,0.543-2.496,0.543c-0.52,0-1.033-0.066-1.534-0.191
			c0.428,0.32,0.902,0.579,1.431,0.769c0.622,0.223,1.263,0.334,1.926,0.334c0.87,0,1.608-0.158,2.214-0.474
			c0.605-0.315,1.152-0.826,1.639-1.531l0.171-0.543c0-0.289-0.106-0.528-0.319-0.714C91.213,886.999,90.957,886.906,90.657,886.906
			z"/>
		<path fill="#7B9B8E" d="M86.276,884.071c0.145-0.233,0.334-0.422,0.566-0.567c0.192-0.12,0.424-0.187,0.69-0.207
			c-0.037-0.028-0.076-0.053-0.113-0.083c-0.129-0.107-0.262-0.221-0.389-0.335c-0.111-0.096-0.231-0.186-0.353-0.263
			c-0.117-0.074-0.244-0.134-0.382-0.181c-0.112-0.04-0.251-0.061-0.414-0.061c-0.225,0-0.408,0.043-0.541,0.126
			c-0.155,0.096-0.276,0.218-0.373,0.373c-0.106,0.17-0.184,0.372-0.231,0.603c-0.054,0.26-0.081,0.526-0.081,0.793
			c0,0.275,0.03,0.55,0.088,0.818c0.052,0.24,0.136,0.452,0.251,0.633c0.107,0.168,0.24,0.298,0.405,0.4
			c0.134,0.082,0.297,0.124,0.495,0.132c-0.016-0.154-0.025-0.309-0.025-0.465c0-0.311,0.032-0.616,0.094-0.916
			C86.027,884.571,86.131,884.303,86.276,884.071z"/>
		<path fill="#7B9B8E" d="M97.107,881.846c0.161,0.217,0.293,0.516,0.396,0.894c0.007,0.026,0.013,0.057,0.019,0.083
			c0.076-0.011,0.154-0.018,0.235-0.018c0.207,0,0.414,0.039,0.621,0.117c0.208,0.077,0.391,0.225,0.551,0.442
			c0.161,0.218,0.293,0.516,0.396,0.894c0.104,0.377,0.156,0.867,0.156,1.468c0,0.964-0.153,1.691-0.458,2.183
			c-0.004,0.007-0.01,0.014-0.014,0.021c0.167-0.113,0.33-0.233,0.482-0.366c0.477-0.414,0.855-0.909,1.134-1.483
			c0.28-0.575,0.42-1.199,0.42-1.872c0-0.693-0.14-1.327-0.42-1.896c-0.113-0.23-0.246-0.443-0.391-0.647
			c-0.175-0.085-0.354-0.164-0.543-0.232c-0.616-0.224-1.261-0.335-1.934-0.335c-0.536,0-1.054,0.073-1.554,0.216
			c0.118,0.019,0.234,0.047,0.352,0.091C96.763,881.479,96.946,881.628,97.107,881.846z"/>
		<path fill="#7B9B8E" d="M95.935,888.836c0.055,0.002,0.108,0.003,0.163,0.003c0.49,0,0.967-0.071,1.431-0.21
			c-0.431-0.062-0.778-0.301-1.038-0.721c-0.136-0.219-0.24-0.487-0.316-0.8c-0.078,0.012-0.157,0.02-0.24,0.02
			c-0.539,0-0.961-0.246-1.267-0.738c-0.305-0.491-0.457-1.219-0.457-2.183s0.152-1.691,0.457-2.184
			c0.004-0.006,0.009-0.011,0.012-0.017c-0.169,0.111-0.334,0.231-0.488,0.363c-0.472,0.403-0.847,0.89-1.127,1.459
			c-0.279,0.569-0.419,1.203-0.419,1.896c0,0.673,0.14,1.297,0.419,1.872c0.122,0.249,0.265,0.48,0.424,0.7
			c0.168,0.083,0.34,0.16,0.52,0.227c0.561,0.21,1.147,0.314,1.761,0.314C95.824,888.839,95.879,888.838,95.935,888.836z"/>
		<path fill="#7B9B8E" d="M95.935,886.521c0.049,0,0.093-0.01,0.138-0.017c-0.026-0.24-0.04-0.498-0.04-0.778
			c0-0.963,0.152-1.691,0.458-2.184c0.131-0.211,0.285-0.374,0.459-0.494c-0.011-0.05-0.021-0.103-0.033-0.148
			c-0.083-0.305-0.184-0.538-0.299-0.693c-0.09-0.122-0.18-0.198-0.276-0.234c-0.141-0.053-0.274-0.078-0.407-0.078
			c-0.325,0-0.557,0.139-0.75,0.451c-0.243,0.392-0.367,1.018-0.367,1.862c0,0.844,0.124,1.471,0.366,1.861
			C95.378,886.381,95.609,886.521,95.935,886.521z"/>
		<path fill="#7B9B8E" d="M101.322,882.37c-0.007-0.007-0.015-0.011-0.022-0.018c0.229,0.57,0.353,1.19,0.353,1.854
			c0,0.762-0.162,1.481-0.481,2.138c-0.315,0.646-0.747,1.211-1.282,1.677c-0.531,0.461-1.146,0.822-1.826,1.073
			c-0.63,0.233-1.292,0.353-1.966,0.353c-0.055,0-0.108-0.001-0.163-0.002c-0.056,0.001-0.111,0.002-0.166,0.002
			c-0.445,0-0.881-0.056-1.304-0.156c0.411,0.312,0.864,0.565,1.366,0.753c0.611,0.229,1.253,0.332,1.927,0.312
			c0.662,0.021,1.302-0.083,1.918-0.312c0.617-0.228,1.163-0.549,1.639-0.963c0.477-0.414,0.854-0.909,1.134-1.483
			c0.28-0.575,0.419-1.199,0.419-1.872c0-0.693-0.14-1.327-0.419-1.896S101.793,882.773,101.322,882.37z"/>
		<path fill="#7B9B8E" d="M107.358,881.282h-0.166c0.057,0.004,0.113,0.007,0.166,0.021V881.282z"/>
		<path fill="#7B9B8E" d="M105.52,882.436c0.145-0.166,0.308-0.362,0.489-0.59c0.181-0.229,0.391-0.389,0.629-0.482
			c0.143-0.049,0.274-0.073,0.4-0.081h-3.067v7.344l1.549-0.007V882.436z"/>
		<path fill="#7B9B8E" d="M111.556,888.394c0.316-0.181,0.479-0.447,0.489-0.8v-3.154c0-0.26,0-0.48,0-0.668
			c0-0.196-0.005-0.372-0.015-0.528c-0.01-0.155-0.031-0.298-0.062-0.427c-0.032-0.129-0.073-0.257-0.125-0.381
			c0.071-0.115,0.159-0.225,0.26-0.329c-0.049-0.041-0.097-0.085-0.147-0.126c-0.279-0.228-0.587-0.413-0.924-0.559
			c-0.336-0.146-0.709-0.23-1.119-0.256c-0.41-0.027-0.867,0.027-1.375,0.163c-0.234,0.095-0.433,0.213-0.6,0.353
			c0.091,0.101,0.173,0.216,0.246,0.351c0.129,0.241,0.229,0.523,0.305,0.843c0.35-0.114,0.649-0.107,0.896,0.022
			c0.254,0.135,0.46,0.353,0.622,0.653c0.16,0.301,0.279,0.66,0.357,1.079c0.077,0.419,0.116,0.852,0.116,1.298l-0.013,2.735
			C110.889,888.656,111.253,888.567,111.556,888.394z"/>
		<path fill="#7B9B8E" d="M116.727,888.63c0.168-0.006,0.335-0.025,0.5-0.065c0.192-0.046,0.363-0.119,0.513-0.217
			c0.151-0.099,0.275-0.224,0.373-0.374c0.099-0.149,0.152-0.329,0.163-0.535c0-0.994,0-1.792,0-2.394
			c0-0.609-0.005-1.092-0.015-1.444c-0.011-0.352-0.024-0.603-0.04-0.753c-0.015-0.15-0.038-0.268-0.07-0.351
			c-0.14-0.338-0.302-0.66-0.484-0.965c-0.373-0.148-0.803-0.254-1.298-0.312c-0.394-0.053-0.779-0.034-1.156,0.054
			c-0.379,0.088-0.73,0.213-1.057,0.372c-0.031,0.016-0.057,0.033-0.088,0.049c0.143,0.087,0.276,0.188,0.393,0.312
			c0.151,0.162,0.267,0.351,0.35,0.568c0.056,0.148,0.087,0.299,0.096,0.45c0.093-0.021,0.188-0.035,0.282-0.035
			c0.196,0,0.391,0.049,0.582,0.147c0.191,0.098,0.363,0.228,0.513,0.389c0.15,0.161,0.267,0.35,0.349,0.567
			s0.115,0.439,0.094,0.668c0,0.176,0.002,0.344,0.008,0.504c0.004,0.161,0.008,0.381,0.008,0.661c0,0.279-0.003,0.655-0.008,1.126
			C116.729,887.457,116.727,887.987,116.727,888.63z"/>
		<path fill="#7B9B8E" d="M107.65,882.32c-0.04-0.074-0.083-0.136-0.127-0.192c-0.074,0.093-0.13,0.169-0.164,0.227v-0.388
			c-0.026-0.018-0.052-0.036-0.079-0.051c-0.045-0.023-0.095-0.034-0.158-0.034c-0.078,0-0.169,0.018-0.272,0.052
			c-0.135,0.056-0.254,0.15-0.365,0.289c-0.127,0.16-0.247,0.307-0.357,0.438v5.959v0.604l-0.605,0.003l-1.552,0.007v0.92
			l3.372-0.016v-6.184c0.145-0.165,0.308-0.362,0.489-0.59c0.036-0.047,0.076-0.088,0.115-0.129
			c-0.001-0.005-0.001-0.008-0.002-0.013C107.878,882.865,107.778,882.562,107.65,882.32z"/>
		<path fill="#7B9B8E" d="M120.082,885.119c-0.01-0.352-0.023-0.603-0.039-0.753c-0.015-0.15-0.038-0.268-0.07-0.35
			c-0.146-0.353-0.313-0.687-0.504-1.002c-0.192-0.315-0.431-0.596-0.715-0.84c-0.042-0.035-0.086-0.068-0.13-0.101
			c0.029,0.064,0.061,0.125,0.088,0.191l0.003,0.007l0.002,0.008c0.051,0.134,0.087,0.299,0.107,0.505
			c0.018,0.166,0.031,0.427,0.042,0.798c0.01,0.356,0.016,0.849,0.016,1.462v2.394v0.015l-0.001,0.016
			c-0.016,0.316-0.104,0.599-0.261,0.838c-0.146,0.222-0.331,0.408-0.547,0.548c-0.207,0.136-0.444,0.238-0.705,0.301
			c-0.195,0.047-0.394,0.07-0.593,0.078c0.03,0.095,0.072,0.182,0.129,0.259c0.109,0.15,0.246,0.275,0.412,0.374
			c0.166,0.098,0.35,0.171,0.551,0.218c0.203,0.046,0.401,0.069,0.599,0.069c0.197,0,0.391-0.023,0.582-0.069
			c0.192-0.047,0.363-0.12,0.513-0.218c0.15-0.099,0.274-0.224,0.373-0.374c0.098-0.149,0.152-0.329,0.163-0.535
			c0-0.994,0-1.791,0-2.393C120.097,885.954,120.092,885.472,120.082,885.119z"/>
		<path fill="#7B9B8E" d="M114.299,883.189c0.012-0.136-0.006-0.266-0.057-0.397c-0.055-0.146-0.129-0.266-0.227-0.369
			c-0.101-0.108-0.216-0.196-0.348-0.264c-0.08-0.041-0.157-0.061-0.234-0.069c-0.043,0.031-0.092,0.061-0.133,0.094
			c-0.244,0.196-0.422,0.373-0.537,0.527c-0.068-0.068-0.138-0.133-0.208-0.198c-0.01,0.011-0.022,0.021-0.032,0.031
			c0.012,0.044,0.024,0.089,0.035,0.133c0.039,0.165,0.065,0.342,0.077,0.528c0.011,0.174,0.017,0.364,0.017,0.566v0.668v3.154
			v0.008v0.01c-0.016,0.561-0.298,1.026-0.794,1.309c-0.39,0.225-0.852,0.339-1.374,0.35c0.028,0.138,0.083,0.257,0.166,0.355
			c0.115,0.135,0.257,0.245,0.428,0.334c0.17,0.088,0.36,0.147,0.567,0.179c0.207,0.03,0.404,0.047,0.59,0.047
			c0.445,0,0.826-0.09,1.143-0.272c0.316-0.18,0.479-0.447,0.489-0.8v-3.153c0-0.26,0-0.481,0-0.669
			c0-0.196-0.006-0.372-0.016-0.527c-0.01-0.156-0.032-0.298-0.062-0.428c-0.031-0.129-0.072-0.257-0.125-0.381
			c0.149-0.239,0.361-0.455,0.632-0.646c0-0.023-0.001-0.042-0.001-0.065v-0.027L114.299,883.189z"/>
	</g>
	<g>
		<g>
			<path fill="#7B9B8E" d="M72.652,882.908c-1.101-0.289-1.651-0.724-1.651-1.303c0-0.057,0.011-0.105,0.016-0.158l-0.188-0.058
				c-1.101-0.29-1.651-0.725-1.651-1.303c0-0.302,0.088-0.55,0.249-0.752c-0.186,0.096-0.368,0.197-0.544,0.312
				c-1.041,0.676-1.562,1.695-1.562,3.059c0,0.539,0.082,0.996,0.239,1.376c0.321,0.128,0.679,0.245,1.075,0.349
				c1.056,0.276,1.771,0.497,2.145,0.66c0.375,0.164,0.562,0.511,0.562,1.038c0,0.021-0.003,0.04-0.004,0.062
				c0.583,0.166,1.007,0.307,1.265,0.42c0.374,0.164,0.561,0.51,0.561,1.037c0,0.464-0.202,0.817-0.605,1.062
				c-0.086,0.052-0.174,0.096-0.262,0.137c0.379-0.143,0.738-0.319,1.074-0.536c1.172-0.816,1.759-1.885,1.759-3.204
				c0-0.584-0.095-1.074-0.277-1.481c-0.35-0.149-0.737-0.282-1.167-0.396L72.652,882.908z"/>
			<path fill="#7B9B8E" d="M71.172,878.75c0.483,0.03,0.844,0.142,1.066,0.343c0.263,0.238,0.555,0.587,0.875,1.047
				c0.036,0.053,0.072,0.102,0.108,0.147c0.369,0.051,0.652,0.156,0.838,0.324c0.055,0.05,0.111,0.107,0.168,0.165
				c0.281-0.127,0.424-0.499,0.424-1.124c0-0.29-0.019-0.539-0.054-0.756c-0.615-0.174-1.322-0.264-2.126-0.264
				C72.021,878.633,71.588,878.674,71.172,878.75z"/>
			<path fill="#7B9B8E" d="M70.983,880.802l0.013,0.003l0.012,0.005l0.224,0.068c0.079-0.105,0.172-0.201,0.293-0.281
				c0.279-0.182,0.591-0.288,0.934-0.325c-0.23-0.313-0.442-0.56-0.628-0.728c-0.067-0.062-0.291-0.201-0.93-0.201
				c-0.332,0-0.615,0.08-0.867,0.244c-0.177,0.115-0.249,0.261-0.249,0.5C69.786,880.334,70.245,880.608,70.983,880.802z"/>
			<path fill="#7B9B8E" d="M75.26,879.652c0,0.935-0.3,1.384-0.625,1.598c0.098,0.126,0.198,0.259,0.301,0.408
				c0.32,0.46,0.612,0.689,0.875,0.689c0.443,0,0.664-0.392,0.664-1.177c0-0.874-0.158-1.416-0.476-1.621
				c-0.228-0.165-0.482-0.307-0.76-0.427C75.254,879.307,75.26,879.488,75.26,879.652z"/>
			<path fill="#7B9B8E" d="M76.098,884.36c-0.145-0.122-0.306-0.237-0.481-0.346c0.077,0.332,0.119,0.694,0.119,1.09
				c0,1.523-0.68,2.769-2.019,3.703l-0.009,0.006l-0.009,0.006c-1.071,0.692-2.356,1.043-3.821,1.043
				c-0.727,0-1.4-0.084-2.017-0.247c0.25,0.186,0.543,0.359,0.896,0.521c0.82,0.424,1.801,0.637,2.944,0.637
				c1.352,0,2.515-0.315,3.491-0.945c1.173-0.817,1.759-1.886,1.759-3.204C76.95,885.595,76.666,884.841,76.098,884.36z"/>
			<path fill="#7B9B8E" d="M70.535,885.646c-0.235-0.103-0.783-0.296-2.054-0.629c-0.095-0.025-0.186-0.052-0.276-0.078
				c0.517,0.413,1.265,0.75,2.253,1.009c0.094,0.024,0.182,0.049,0.271,0.072C70.706,885.725,70.593,885.672,70.535,885.646z"/>
			<path fill="#7B9B8E" d="M71.776,889.015c-0.17,0.037-0.344,0.061-0.524,0.061c-0.502,0-0.9-0.104-1.193-0.313
				c-0.293-0.21-0.667-0.581-1.122-1.115c-0.046-0.058-0.092-0.11-0.139-0.16c-0.217-0.052-0.406-0.132-0.562-0.243
				c-0.095-0.068-0.202-0.159-0.313-0.262c-0.003,0-0.006-0.001-0.008-0.001c-0.275,0-0.504,0.108-0.687,0.323
				c-0.182,0.216-0.274,0.475-0.274,0.777c0,0.21,0.041,0.41,0.121,0.603c0.791,0.379,1.725,0.571,2.805,0.571
				C70.559,889.255,71.191,889.176,71.776,889.015z"/>
		</g>
		<g>
			<path fill="#7B9B8E" d="M34.321,879.227c-0.319,0-0.726,0.104-1.034,0.908c-0.304,0.792-0.458,1.627-0.458,2.48
				c0,0.92,0.128,1.761,0.38,2.502c0.24,0.704,0.62,0.799,0.96,0.799c0.018,0,0.032-0.002,0.049-0.003
				c-0.112-0.557-0.174-1.147-0.174-1.779c0-0.933,0.166-1.832,0.499-2.696c0.208-0.543,0.496-0.916,0.863-1.118
				c-0.031-0.093-0.056-0.188-0.09-0.278C35.043,879.324,34.66,879.227,34.321,879.227z"/>
			<path fill="#7B9B8E" d="M30.647,881.943c-0.308,0.778-0.462,1.599-0.462,2.461c0,1.106,0.247,2.069,0.74,2.885
				c0.079,0.132,0.165,0.256,0.252,0.376c0.817,0.396,1.718,0.596,2.705,0.596c0.636,0,1.207-0.089,1.712-0.267
				c-0.533-0.124-0.914-0.509-1.137-1.163c-0.036-0.104-0.062-0.214-0.093-0.32c-0.064,0.005-0.127,0.013-0.195,0.013
				c-0.748,0-1.259-0.403-1.535-1.211c-0.275-0.807-0.413-1.706-0.413-2.697c0-0.934,0.167-1.832,0.499-2.697
				c0.083-0.218,0.18-0.408,0.29-0.571c-0.355,0.179-0.685,0.39-0.984,0.638C31.415,880.512,30.955,881.165,30.647,881.943z"/>
			<path fill="#7B9B8E" d="M40.702,878.835h-0.699l-2.055-0.115l-1.552-0.087c-0.513,0-0.993,0.039-1.447,0.11
				c0.412,0.173,0.726,0.531,0.935,1.083c0.041,0.105,0.071,0.216,0.105,0.324c0.051-0.004,0.102-0.012,0.156-0.012
				c0.736,0,1.256,0.402,1.562,1.206c0.305,0.805,0.458,1.68,0.458,2.625c0,1.036-0.156,1.974-0.467,2.813
				c-0.311,0.84-0.879,1.259-1.705,1.259c-0.129,0-0.25-0.017-0.366-0.041c0.901,0.42,1.39,0.958,1.471,1.608
				c0.113-0.03,0.225-0.062,0.332-0.1c1.005,0.463,1.508,1.067,1.508,1.813c0,1.191-0.966,1.786-2.899,1.786
				c-0.449,0-0.923-0.076-1.422-0.227c-0.5-0.151-0.75-0.408-0.75-0.768c0-0.115,0.036-0.235,0.107-0.357
				c0.03-0.063,0.047-0.121,0.058-0.176c-0.395-0.017-0.807-0.087-1.239-0.219c-0.326-0.098-0.544-0.243-0.657-0.431
				c-0.356,0.078-0.692,0.212-1.002,0.415c-0.506,0.331-0.758,0.812-0.758,1.443c0,0.117,0.01,0.228,0.029,0.336
				c0.01,0.001,0.018,0.005,0.028,0.008c1.253,0.309,2.539,0.463,3.854,0.463c1.562,0,2.999-0.27,4.312-0.811s1.97-1.495,1.97-2.866
				c0-0.419-0.078-0.796-0.23-1.131c-0.186-0.069-0.383-0.132-0.595-0.188c0.118-0.081,0.229-0.165,0.338-0.252
				c-0.433-0.579-1.151-1.003-2.161-1.267c1.52-1.043,2.28-2.532,2.28-4.469c0-1.312-0.416-2.461-1.248-3.445h0.583
				C40.099,879.17,40.487,879.059,40.702,878.835z"/>
			<path fill="#7B9B8E" d="M35.558,888.645c-0.509,0.148-1.071,0.224-1.676,0.224c-0.605,0-1.187-0.072-1.74-0.211
				c0.242,0.185,0.5,0.35,0.781,0.491c0.837,0.421,1.765,0.631,2.782,0.631c0.28,0,0.544-0.02,0.798-0.055
				C36.49,889.51,36.384,889.08,35.558,888.645z"/>
			<path fill="#7B9B8E" d="M41.094,889.151c0.058,0.266,0.082,0.525,0.082,0.77c0,1.611-0.812,2.797-2.346,3.428
				c-1.381,0.568-2.91,0.856-4.543,0.856c-1.206,0-2.398-0.134-3.556-0.386c0.308,0.379,0.811,0.658,1.523,0.834
				c1.253,0.309,2.539,0.463,3.854,0.463c1.562,0,3-0.27,4.313-0.811c1.313-0.54,1.97-1.495,1.97-2.865
				C42.39,890.44,41.957,889.678,41.094,889.151z"/>
			<path fill="#7B9B8E" d="M42.345,878.994c-0.222-0.094-0.538-0.144-0.938-0.153c-0.147,0.374-0.5,0.776-1.324,0.899
				c0.481,0.865,0.724,1.827,0.724,2.875c0,1.734-0.562,3.161-1.674,4.256c0.642,0.301,1.091,0.675,1.402,1.078
				c0.99-0.98,1.486-2.252,1.486-3.815c0-1.312-0.416-2.461-1.247-3.445h0.583c0.909,0,1.364-0.289,1.364-0.868
				C42.722,879.376,42.597,879.102,42.345,878.994z"/>
		</g>
		<g>
			<path fill="#7B9B8E" d="M44.885,873.981c-0.437,0.373-0.655,0.858-0.655,1.457c0,0.095,0.009,0.186,0.022,0.272
				c0.093,0.012,0.186,0.023,0.282,0.023c0.562,0,1.077-0.173,1.544-0.517c0.466-0.344,0.7-0.806,0.7-1.385
				c0-0.136-0.012-0.264-0.033-0.387c-0.115-0.013-0.23-0.024-0.352-0.024C45.824,873.422,45.322,873.608,44.885,873.981z"/>
			<path fill="#7B9B8E" d="M43.993,879.651c-0.237,0.112-0.355,0.313-0.355,0.604c0,0.109,0.024,0.199,0.072,0.27
				c0.047,0.071,0.113,0.137,0.197,0.198c0.084,0.062,0.18,0.13,0.287,0.207c0.365,0.238,0.583,0.527,0.656,0.869
				c0.054,0.341,0.081,0.933,0.081,1.775v3.803c0,0.631-0.039,1.052-0.117,1.264c-0.022,0.053-0.102,0.139-0.238,0.257h2.238
				c0.568,0,0.853-0.251,0.853-0.753c0-0.23-0.138-0.439-0.413-0.626c-0.275-0.245-0.422-0.377-0.44-0.396
				c-0.048-0.213-0.072-0.634-0.072-1.264v-6.408c0-0.248-0.006-0.473-0.017-0.68c-0.467,0.111-1.039,0.289-1.724,0.538
				C44.565,879.425,44.229,879.538,43.993,879.651z"/>
			<path fill="#7B9B8E" d="M47.386,873.833c0,0.769-0.328,1.416-0.947,1.874c-0.571,0.422-1.211,0.635-1.904,0.635
				c-0.015,0-0.029-0.002-0.043-0.002c0.078,0.115,0.174,0.221,0.286,0.318c0.422-0.1,0.773-0.151,1.05-0.151
				c0.527,0,0.939,0.236,1.181,0.655c0.314-0.082,0.613-0.219,0.893-0.426c0.467-0.344,0.7-0.806,0.7-1.385
				c0-0.618-0.217-1.094-0.65-1.429c-0.177-0.136-0.371-0.237-0.576-0.317C47.38,873.681,47.386,873.755,47.386,873.833z"/>
			<path fill="#7B9B8E" d="M45.589,877.128c0.224,0.076,0.459,0.114,0.702,0.12c-0.123-0.088-0.277-0.134-0.465-0.134
				C45.754,877.114,45.674,877.119,45.589,877.128z"/>
			<path fill="#7B9B8E" d="M49.076,889.037c-0.275-0.244-0.422-0.377-0.439-0.396c-0.048-0.212-0.072-0.633-0.072-1.264v-6.408
				c0-0.798-0.056-1.387-0.166-1.767s-0.36-0.569-0.749-0.569c-0.095,0-0.205,0.01-0.322,0.024c0.014,0.24,0.022,0.502,0.022,0.793
				v6.408c0,0.507,0.017,0.797,0.032,0.96c0.057,0.051,0.137,0.122,0.248,0.222c0.531,0.374,0.644,0.806,0.644,1.104
				c0,0.84-0.559,1.36-1.46,1.36h-2.786c-0.014,0.052-0.022,0.104-0.022,0.159c0,0.502,0.281,0.752,0.844,0.752h3.787
				c0.568,0,0.852-0.25,0.852-0.752C49.489,889.433,49.351,889.224,49.076,889.037z"/>
		</g>
		<g>
			<path fill="#7B9B8E" d="M55.576,880.297c0.106,0.026,0.221,0.059,0.352,0.104c0.313,0.105,0.576,0.159,0.785,0.159
				c0.359,0,0.645-0.172,0.857-0.517c0.212-0.344,0.318-0.725,0.318-1.144c0-0.091-0.011-0.174-0.02-0.259
				c-0.538,0.038-1.046,0.281-1.523,0.735C56.053,879.655,55.799,879.964,55.576,880.297z"/>
			<path fill="#7B9B8E" d="M54.173,881.148c0.2-0.481,0.459-0.769,0.777-0.866c-0.089-0.407-0.179-0.744-0.27-1.007
				c-0.144-0.419-0.421-0.632-0.832-0.641c-0.215,0.3-0.401,0.622-0.556,0.97c-0.053-0.297-0.106-0.567-0.16-0.812
				c-0.394,0.113-0.946,0.284-1.662,0.517c-0.736,0.341-1.104,0.711-1.104,1.11c0,0.334,0.197,0.598,0.592,0.79
				c0.27,0.13,0.458,0.247,0.565,0.353c0.107,0.107,0.188,0.292,0.242,0.556c0.096,0.283,0.144,0.492,0.144,0.627v4.43
				c0,0.663-0.036,1.097-0.107,1.303c-0.075,0.168-0.238,0.307-0.486,0.421h2.343c0.383,0,0.68-0.045,0.893-0.135
				c0.212-0.09,0.319-0.309,0.319-0.656c0-0.283-0.174-0.521-0.521-0.714c-0.264-0.116-0.435-0.261-0.512-0.435
				c-0.072-0.206-0.108-0.64-0.108-1.303v-1.939C53.733,882.57,53.879,881.715,54.173,881.148z"/>
			<path fill="#7B9B8E" d="M59.239,879.13c-0.208-0.219-0.461-0.359-0.752-0.434c0.005,0.067,0.008,0.135,0.008,0.203
				c0,0.53-0.138,1.022-0.409,1.464c-0.41,0.664-0.974,0.804-1.374,0.804c-0.279,0-0.599-0.062-0.979-0.19
				c-0.263-0.09-0.409-0.117-0.48-0.125c-0.046,0.09-0.095,0.178-0.137,0.271c-0.014-0.08-0.029-0.157-0.043-0.233
				c-0.117,0.07-0.231,0.233-0.339,0.492l-0.009,0.023l-0.012,0.022c-0.246,0.477-0.372,1.246-0.372,2.288v1.939
				c0,0.694,0.041,0.968,0.063,1.063c0.02,0.02,0.072,0.064,0.193,0.118l0.026,0.011l0.024,0.014
				c0.688,0.383,0.833,0.889,0.833,1.245c0,0.803-0.431,1.106-0.688,1.216c-0.291,0.123-0.661,0.183-1.13,0.183h-2.87
				c-0.007,0.04-0.019,0.079-0.019,0.12c0,0.341,0.106,0.559,0.319,0.651c0.212,0.094,0.51,0.14,0.893,0.14h3.5
				c0.383,0,0.681-0.045,0.893-0.135s0.319-0.309,0.319-0.656c0-0.283-0.174-0.521-0.521-0.714
				c-0.263-0.115-0.434-0.261-0.512-0.435c-0.072-0.206-0.108-0.64-0.108-1.303v-1.939c0-1.146,0.147-2.001,0.44-2.567
				c0.251-0.604,0.596-0.907,1.032-0.907c0.167,0,0.408,0.053,0.723,0.159c0.314,0.106,0.576,0.159,0.785,0.159
				c0.359,0,0.645-0.172,0.857-0.517c0.212-0.344,0.318-0.725,0.318-1.143C59.71,879.891,59.554,879.461,59.239,879.13z"/>
		</g>
		<g>
			<path fill="#7B9B8E" d="M60.487,873.19c-0.249,0.115-0.373,0.312-0.373,0.589c0,0.219,0.183,0.439,0.547,0.665
				c0.371,0.245,0.593,0.534,0.664,0.869c0.048,0.373,0.072,0.98,0.072,1.823v10.037c0,0.663-0.048,1.097-0.144,1.303
				c-0.052,0.168-0.204,0.307-0.45,0.421h2.343c0.382,0,0.681-0.045,0.893-0.135c0.213-0.09,0.319-0.309,0.319-0.656
				c0-0.271-0.185-0.508-0.557-0.714c-0.275-0.148-0.434-0.293-0.476-0.435c-0.071-0.206-0.107-0.64-0.107-1.303v-12.652
				c0-0.25-0.006-0.477-0.017-0.687c-0.451,0.118-1.023,0.298-1.723,0.545C61.065,872.965,60.735,873.074,60.487,873.19z"/>
			<path fill="#7B9B8E" d="M65.625,888.911c-0.275-0.147-0.434-0.292-0.476-0.435c-0.072-0.206-0.107-0.64-0.107-1.303v-12.652
				c0-0.805-0.057-1.399-0.171-1.785c-0.113-0.386-0.364-0.579-0.753-0.579c-0.085,0-0.193,0.012-0.314,0.03
				c0.016,0.247,0.024,0.517,0.024,0.815v12.652c0,0.723,0.044,0.989,0.065,1.074c0.026,0.022,0.086,0.068,0.205,0.132
				c0.718,0.398,0.87,0.897,0.87,1.245c0,0.803-0.432,1.106-0.689,1.216c-0.291,0.123-0.66,0.183-1.13,0.183h-2.911
				c-0.009,0.04-0.014,0.079-0.014,0.12c0,0.341,0.109,0.559,0.328,0.651c0.218,0.094,0.513,0.14,0.884,0.14h3.536
				c0.383,0,0.681-0.045,0.893-0.135c0.213-0.09,0.319-0.309,0.319-0.656C66.181,889.354,65.996,889.117,65.625,888.911z"/>
		</g>
	</g>
	<path d="M-55.192,878.646c0-0.41-0.154-0.767-0.458-1.072c-0.304-0.304-0.663-0.455-1.072-0.455h-6.391
		c-1.034,0-1.912,0.126-2.633,0.381c-0.722,0.256-1.306,0.627-1.751,1.115s-0.768,1.086-0.966,1.794
		c-0.198,0.708-0.297,1.522-0.297,2.442c0,0.765,0.074,1.503,0.223,2.218s0.414,1.345,0.796,1.891
		c0.382,0.545,0.899,0.976,1.55,1.295c0.65,0.318,1.479,0.477,2.483,0.477l3.906,0.022c0,0.467-0.005,0.838-0.02,1.114
		c-0.014,0.277-0.014,0.499,0,0.669c0.015,0.608-0.036,1.075-0.149,1.401c-0.113,0.325-0.275,0.56-0.488,0.7
		c-0.213,0.142-0.47,0.219-0.775,0.234c-0.304,0.014-0.633,0.021-0.986,0.021h-4.82v2.251h5.605c2.237,0,3.836-0.468,4.798-1.401
		c0.963-0.935,1.445-2.527,1.445-4.778V878.646z M-59.844,886.438c-0.622,0-1.128-0.003-1.518-0.011
		c-0.39-0.007-0.704-0.028-0.945-0.063s-0.436-0.093-0.584-0.17s-0.293-0.18-0.435-0.307c-0.099-0.087-0.191-0.267-0.276-0.542
		c-0.085-0.277-0.155-0.577-0.211-0.903c-0.057-0.325-0.1-0.64-0.128-0.944c-0.028-0.305-0.035-0.535-0.021-0.689
		c0-0.199,0.011-0.453,0.032-0.765s0.06-0.623,0.117-0.935c0.056-0.312,0.13-0.602,0.222-0.871c0.093-0.268,0.203-0.459,0.33-0.574
		c0.48-0.438,1.125-0.657,1.932-0.657h1.485V886.438z"/>
	<path d="M-41.01,888.646v-6.477c0-3.693-2.11-5.541-6.328-5.541h-4.756c-0.283,0-0.51,0.11-0.679,0.329
		c-0.17,0.22-0.254,0.477-0.254,0.774c0,0.736,0.311,1.119,0.934,1.147h3.972c0.876,0,1.521,0.297,1.932,0.891
		c-0.284,0.059-0.561,0.106-0.828,0.149c-0.27,0.042-0.549,0.096-0.839,0.16c-0.291,0.063-0.598,0.134-0.924,0.212
		c-0.325,0.077-0.687,0.174-1.083,0.287c-0.482,0.183-0.931,0.385-1.348,0.604c-0.418,0.22-0.779,0.473-1.083,0.766
		c-0.304,0.289-0.545,0.626-0.721,1.008c-0.178,0.381-0.266,0.813-0.266,1.295c0,0.778,0.16,1.447,0.477,2.006
		c0.319,0.559,0.74,1.019,1.264,1.381c0.524,0.36,1.125,0.629,1.804,0.807c0.681,0.177,1.382,0.266,2.103,0.266
		c0.382,0,0.714-0.046,0.999-0.139c0.282-0.091,0.593-0.237,0.934-0.435l0.042,0.593c1.075,0,1.917,0,2.526,0
		c0.623,0,1.09-0.002,1.401-0.009c0.311-0.007,0.51-0.019,0.594-0.033C-41.052,888.675-41.01,888.66-41.01,888.646z
		 M-45.639,886.268c-0.169,0.298-0.343,0.49-0.519,0.574c-0.133,0.064-0.26,0.096-0.381,0.096c-0.04,0-0.08-0.003-0.118-0.011
		c-0.37,0-0.712-0.07-1.03-0.211c-0.319-0.143-0.594-0.338-0.829-0.585c-0.233-0.248-0.417-0.531-0.551-0.85
		c-0.135-0.318-0.203-0.662-0.203-1.029c0-0.581,0.057-1.036,0.17-1.369s0.234-0.634,0.36-0.903c0.1-0.17,0.214-0.313,0.34-0.435
		c0.127-0.121,0.305-0.228,0.531-0.319c0.227-0.092,0.517-0.181,0.871-0.265c0.354-0.085,0.808-0.177,1.358-0.276V886.268z"/>
	<path d="M-25.489,871.088h-4.67v6.008h-1.614c-0.209-0.008-0.417-0.013-0.621-0.013c-0.825,0-1.599,0.068-2.321,0.205
		c-0.898,0.169-1.676,0.484-2.334,0.944c-0.658,0.461-1.168,1.08-1.529,1.858c-0.36,0.777-0.527,1.748-0.499,2.908
		c0,0.948,0.1,1.779,0.297,2.494c0.198,0.715,0.521,1.313,0.966,1.795c0.446,0.481,1.03,0.843,1.753,1.083
		c0.721,0.24,1.598,0.359,2.632,0.359h6.411c0.412,0,0.769-0.152,1.073-0.455c0.305-0.305,0.456-0.662,0.456-1.073V871.088z
		 M-30.139,886.842h-1.507c-0.551,0-0.997-0.108-1.337-0.327c-0.34-0.221-0.598-0.508-0.775-0.861
		c-0.178-0.354-0.301-0.761-0.371-1.223c-0.071-0.458-0.12-0.922-0.15-1.391h0.022c0.015-0.437,0.042-0.872,0.085-1.305
		c0.043-0.432,0.141-0.821,0.297-1.167c0.156-0.348,0.389-0.627,0.7-0.84c0.312-0.211,0.736-0.318,1.275-0.318h1.761V886.842z"/>
	<path d="M-10.01,878.646c0-0.41-0.153-0.767-0.458-1.072c-0.305-0.304-0.662-0.455-1.072-0.455h-6.391
		c-1.034,0-1.912,0.126-2.632,0.381c-0.723,0.256-1.307,0.627-1.753,1.115c-0.445,0.488-0.769,1.086-0.966,1.794
		s-0.297,1.522-0.297,2.442c0,0.765,0.074,1.503,0.223,2.218c0.148,0.715,0.413,1.345,0.796,1.891
		c0.382,0.545,0.899,0.976,1.549,1.295c0.652,0.318,1.479,0.477,2.485,0.477l3.906,0.022c0,0.467-0.007,0.838-0.021,1.114
		c-0.015,0.277-0.015,0.499,0,0.669c0.014,0.608-0.035,1.075-0.149,1.401c-0.114,0.325-0.275,0.56-0.489,0.7
		c-0.211,0.142-0.47,0.219-0.774,0.234c-0.305,0.014-0.633,0.021-0.987,0.021h-4.82v2.251h5.605c2.237,0,3.836-0.468,4.798-1.401
		c0.963-0.935,1.445-2.527,1.445-4.778V878.646z M-14.66,886.438c-0.623,0-1.13-0.003-1.52-0.011
		c-0.389-0.007-0.703-0.028-0.943-0.063c-0.242-0.035-0.435-0.093-0.584-0.17c-0.149-0.077-0.294-0.18-0.437-0.307
		c-0.098-0.087-0.19-0.267-0.275-0.542c-0.085-0.277-0.156-0.577-0.211-0.903c-0.058-0.325-0.1-0.64-0.128-0.944
		c-0.029-0.305-0.036-0.535-0.021-0.689c0-0.199,0.011-0.453,0.032-0.765c0.022-0.312,0.06-0.623,0.118-0.935
		c0.055-0.312,0.13-0.602,0.221-0.871c0.093-0.268,0.203-0.459,0.33-0.574c0.481-0.438,1.126-0.657,1.933-0.657h1.487V886.438z"/>
	<path d="M5.001,883.615l0.064-0.106c0.084-1.075-0.015-2.04-0.298-2.888c-0.283-0.851-0.712-1.561-1.284-2.134
		c-0.575-0.574-1.268-1.013-2.082-1.317c-0.814-0.304-1.71-0.456-2.687-0.456c-0.92,0-1.797,0.139-2.633,0.414
		c-0.835,0.275-1.568,0.679-2.196,1.21c-0.631,0.53-1.126,1.175-1.487,1.933c-0.36,0.758-0.527,1.616-0.499,2.58
		c0.029,1.061,0.216,1.984,0.563,2.771c0.347,0.785,0.831,1.438,1.454,1.953c0.623,0.517,1.362,0.902,2.219,1.156
		c0.857,0.256,1.808,0.391,2.855,0.404c0.609,0,1.225-0.093,1.847-0.275c0.623-0.185,1.182-0.426,1.678-0.722
		c0.495-0.298,0.898-0.627,1.209-0.986c0.312-0.363,0.46-0.713,0.446-1.053c-0.015-0.396-0.167-0.723-0.457-0.977
		c-0.29-0.256-0.633-0.383-1.029-0.383c-0.368,0-0.647,0.085-0.839,0.255s-0.393,0.354-0.605,0.553
		c-0.212,0.198-0.479,0.379-0.797,0.542c-0.291,0.148-0.698,0.224-1.22,0.224c-0.048,0-0.098-0.001-0.148-0.001
		c-0.765-0.028-1.363-0.262-1.795-0.701c-0.431-0.438-0.682-1.104-0.753-1.995H5.001z M-1.029,879.347
		c0.68,0,1.246,0.163,1.699,0.488c0.269,0.198,0.453,0.403,0.551,0.616c0.099,0.212,0.184,0.468,0.255,0.765h-4.799
		C-2.969,879.971-2.205,879.347-1.029,879.347z"/>
	<path d="M15.5,877.786c-0.177-0.262-0.421-0.393-0.733-0.393h-2.504v-3.186c0-0.312-0.064-0.607-0.191-0.891
		c-0.127-0.282-0.297-0.53-0.509-0.744c-0.213-0.212-0.457-0.381-0.733-0.509c-0.276-0.129-0.569-0.192-0.881-0.192
		c-0.325,0-0.629,0.062-0.913,0.182s-0.531,0.286-0.743,0.499c-0.212,0.212-0.379,0.459-0.499,0.742
		c-0.121,0.283-0.18,0.588-0.18,0.913v3.186H6.19v2.441h1.443l0.021,8.896l4.672-0.02v-8.876h2.44c0.666,0,0.999-0.39,0.999-1.168
		C15.766,878.343,15.678,878.049,15.5,877.786z"/>
	<path d="M25.894,886.746c0.283-0.502,0.424-1.086,0.424-1.752c0-1.529-1.019-2.674-3.057-3.438
		c-0.269-0.101-0.563-0.201-0.881-0.309c-0.318-0.106-0.612-0.223-0.881-0.351c-0.269-0.127-0.495-0.265-0.68-0.413
		c-0.184-0.149-0.276-0.322-0.276-0.521c0-0.722,0.411-1.09,1.232-1.104c0.311,0,0.601,0.074,0.87,0.223
		c0.268,0.148,0.523,0.318,0.764,0.511c0.241,0.19,0.464,0.364,0.669,0.519c0.204,0.157,0.4,0.234,0.583,0.234
		c0.325,0,0.605-0.095,0.838-0.287c0.234-0.191,0.357-0.449,0.373-0.774c0.014-0.34-0.135-0.665-0.446-0.979
		c-0.312-0.31-0.698-0.578-1.158-0.806c-0.46-0.226-0.959-0.406-1.497-0.541c-0.489-0.122-0.93-0.182-1.325-0.182
		c-0.04,0-0.08,0-0.119,0.002c-0.637,0.014-1.243,0.109-1.815,0.286c-0.572,0.178-1.08,0.432-1.518,0.764
		c-0.439,0.334-0.789,0.746-1.051,1.242c-0.262,0.496-0.394,1.076-0.394,1.741c0,1.458,0.992,2.584,2.974,3.377
		c0.197,0.085,0.449,0.18,0.754,0.286s0.598,0.226,0.881,0.36c0.282,0.135,0.522,0.287,0.721,0.458
		c0.199,0.169,0.298,0.353,0.298,0.551c0,0.693-0.454,1.041-1.359,1.041c-0.212,0-0.446-0.078-0.701-0.234
		c-0.255-0.155-0.509-0.324-0.764-0.509c-0.255-0.184-0.502-0.354-0.742-0.51c-0.242-0.156-0.453-0.233-0.637-0.233
		c-0.242,0-0.467,0.06-0.68,0.18c-0.212,0.121-0.379,0.276-0.499,0.468c-0.121,0.19-0.181,0.4-0.181,0.626
		c0,0.213,0.092,0.425,0.276,0.637c1.02,1.12,2.499,1.678,4.438,1.678c0.05,0.001,0.101,0.002,0.15,0.002
		c0.583,0,1.149-0.074,1.696-0.225c0.595-0.163,1.125-0.414,1.593-0.754C25.235,887.67,25.611,887.248,25.894,886.746z"/>
	<path d="M79.196,887.896c0.077-0.172,0.116-0.36,0.116-0.566c0-0.436-0.14-0.803-0.419-1.104c-0.28-0.301-0.638-0.452-1.073-0.452
		c-0.435,0-0.792,0.151-1.071,0.452c-0.28,0.301-0.42,0.668-0.42,1.104c0,0.414,0.146,0.756,0.436,1.024
		c0.29,0.27,0.642,0.403,1.056,0.403c0.197,0,0.386-0.035,0.567-0.108c0.181-0.072,0.342-0.173,0.482-0.302
		C79.008,888.217,79.117,888.066,79.196,887.896z"/>
	<path d="M89.751,886.925l0.171-0.544c0-0.288-0.106-0.527-0.319-0.713c-0.212-0.188-0.468-0.28-0.769-0.28
		c-0.311,0-0.585,0.135-0.823,0.404c-0.208,0.207-0.376,0.38-0.505,0.52c-0.13,0.14-0.261,0.251-0.396,0.335
		c-0.134,0.083-0.287,0.14-0.458,0.17c-0.171,0.031-0.402,0.048-0.692,0.048c-0.342,0-0.634-0.077-0.877-0.227
		s-0.443-0.347-0.598-0.59c-0.156-0.243-0.266-0.521-0.333-0.832c-0.068-0.311-0.102-0.627-0.102-0.946
		c0-0.311,0.032-0.617,0.094-0.917c0.062-0.301,0.166-0.568,0.311-0.801c0.145-0.232,0.334-0.421,0.567-0.566
		c0.232-0.145,0.521-0.217,0.862-0.217c0.229,0,0.433,0.029,0.614,0.093c0.181,0.062,0.35,0.142,0.506,0.24
		c0.155,0.099,0.297,0.205,0.427,0.318c0.129,0.115,0.256,0.224,0.381,0.326c0.279,0.238,0.553,0.357,0.822,0.357
		c0.291,0,0.547-0.099,0.769-0.295c0.223-0.196,0.335-0.44,0.335-0.731c0-0.205-0.068-0.408-0.203-0.604
		c-0.279-0.311-0.556-0.572-0.831-0.784c-0.274-0.214-0.562-0.381-0.863-0.506c-0.3-0.124-0.623-0.212-0.97-0.265
		c-0.347-0.052-0.738-0.077-1.173-0.077c-0.674,0-1.313,0.102-1.919,0.304c-0.606,0.201-1.137,0.497-1.593,0.885
		c-0.456,0.389-0.815,0.859-1.079,1.414c-0.265,0.555-0.396,1.184-0.396,1.887c0,0.685,0.147,1.308,0.443,1.873
		c0.295,0.564,0.683,1.049,1.165,1.452c0.482,0.404,1.033,0.718,1.655,0.94c0.621,0.223,1.263,0.334,1.926,0.334
		c0.87,0,1.608-0.158,2.215-0.474C88.717,888.141,89.264,887.63,89.751,886.925z"/>
	<path d="M100.625,886.079c0.28-0.575,0.42-1.199,0.42-1.872c0-0.693-0.14-1.327-0.42-1.896c-0.279-0.569-0.655-1.056-1.126-1.46
		c-0.472-0.403-1.015-0.717-1.63-0.938c-0.617-0.225-1.262-0.335-1.935-0.335c-0.673,0-1.319,0.11-1.935,0.335
		c-0.616,0.222-1.16,0.535-1.631,0.938c-0.472,0.404-0.847,0.891-1.127,1.46s-0.419,1.203-0.419,1.896
		c0,0.673,0.139,1.297,0.419,1.872c0.28,0.574,0.658,1.069,1.134,1.483s1.02,0.735,1.631,0.962c0.561,0.21,1.147,0.314,1.761,0.314
		c0.055,0,0.11-0.001,0.166-0.003c0.055,0.002,0.108,0.003,0.163,0.003c0.604,0,1.189-0.104,1.755-0.314
		c0.617-0.227,1.163-0.548,1.639-0.962C99.968,887.148,100.346,886.653,100.625,886.079z M97.2,886.39
		c-0.306,0.492-0.728,0.738-1.266,0.738c-0.539,0-0.961-0.246-1.267-0.738c-0.305-0.491-0.457-1.219-0.457-2.183
		s0.152-1.691,0.457-2.184c0.306-0.491,0.728-0.737,1.267-0.737c0.207,0,0.414,0.039,0.621,0.116
		c0.208,0.077,0.391,0.226,0.552,0.443c0.161,0.217,0.293,0.516,0.396,0.894c0.104,0.377,0.156,0.867,0.156,1.468
		C97.659,885.171,97.505,885.898,97.2,886.39z"/>
	<path d="M118.22,882.848c-0.015-0.15-0.038-0.268-0.07-0.351c-0.146-0.352-0.313-0.686-0.504-1.001
		c-0.193-0.316-0.431-0.596-0.715-0.84c-0.285-0.242-0.622-0.447-1.01-0.614c-0.389-0.165-0.846-0.278-1.375-0.341
		c-0.147-0.019-0.292-0.028-0.436-0.028c-0.244,0-0.484,0.027-0.722,0.082c-0.378,0.089-0.729,0.214-1.056,0.373
		c-0.327,0.161-0.611,0.34-0.854,0.536c-0.244,0.197-0.422,0.374-0.537,0.528c-0.259-0.258-0.529-0.502-0.808-0.73
		c-0.28-0.228-0.588-0.413-0.924-0.559s-0.71-0.23-1.119-0.257c-0.067-0.004-0.135-0.006-0.205-0.006
		c-0.356,0-0.746,0.057-1.171,0.169c-0.331,0.136-0.595,0.313-0.792,0.536c-0.197,0.224-0.327,0.387-0.389,0.49v-1.072h-3.387v8.87
		l3.372-0.015v-6.184c0.145-0.166,0.308-0.362,0.489-0.59c0.181-0.229,0.391-0.389,0.629-0.482c0.173-0.06,0.335-0.089,0.483-0.089
		c0.162,0,0.309,0.035,0.441,0.104c0.254,0.135,0.46,0.353,0.622,0.653c0.16,0.301,0.279,0.66,0.357,1.079
		c0.078,0.419,0.117,0.852,0.117,1.298l-0.016,3.185c0.01,0.207,0.073,0.378,0.186,0.513c0.114,0.134,0.256,0.245,0.428,0.334
		c0.17,0.088,0.36,0.147,0.567,0.179c0.208,0.03,0.404,0.047,0.59,0.047c0.446,0,0.826-0.091,1.143-0.272
		c0.316-0.181,0.479-0.447,0.489-0.8v-3.154c0-0.26,0-0.48,0-0.668c0-0.196-0.005-0.372-0.015-0.528
		c-0.01-0.155-0.031-0.298-0.062-0.427c-0.032-0.129-0.073-0.257-0.125-0.381c0.155-0.249,0.375-0.472,0.66-0.667
		c0.285-0.197,0.572-0.296,0.863-0.296c0.196,0,0.391,0.048,0.582,0.147c0.191,0.098,0.362,0.227,0.512,0.388
		c0.151,0.162,0.267,0.351,0.35,0.568c0.083,0.218,0.114,0.439,0.094,0.667c0,0.177,0.002,0.344,0.007,0.505
		c0.004,0.16,0.008,0.381,0.008,0.661c0,0.279-0.003,0.654-0.008,1.126c-0.005,0.471-0.007,1.105-0.007,1.903
		c0.01,0.206,0.069,0.386,0.178,0.535c0.109,0.15,0.246,0.275,0.412,0.374c0.166,0.098,0.35,0.171,0.551,0.217
		c0.202,0.047,0.401,0.069,0.599,0.069c0.196,0,0.39-0.022,0.582-0.069c0.192-0.046,0.363-0.119,0.513-0.217
		c0.151-0.099,0.275-0.224,0.373-0.374c0.099-0.149,0.152-0.329,0.163-0.535c0-0.994,0-1.792,0-2.394
		c0-0.609-0.005-1.092-0.015-1.444C118.249,883.249,118.236,882.998,118.22,882.848z"/>
	<path fill="#3E514B" d="M40.567,889.921c0-1.428-0.882-2.374-2.647-2.837c1.52-1.043,2.28-2.532,2.28-4.469
		c0-1.312-0.416-2.461-1.248-3.445h0.583c0.909,0,1.364-0.289,1.364-0.868c0-0.445-0.125-0.72-0.377-0.826
		c-0.251-0.105-0.616-0.159-1.095-0.159H38.18l-2.055-0.115l-1.553-0.087c-1.825,0-3.282,0.45-4.371,1.351
		c-0.61,0.528-1.069,1.182-1.377,1.96s-0.462,1.599-0.462,2.461c0,1.106,0.247,2.068,0.74,2.885c0.494,0.817,1.16,1.437,1.997,1.858
		c0.838,0.421,1.765,0.632,2.782,0.632c0.64,0,1.214-0.09,1.723-0.27c1.005,0.463,1.508,1.067,1.508,1.813
		c0,1.19-0.966,1.786-2.898,1.786c-0.449,0-0.923-0.076-1.422-0.228c-0.5-0.15-0.75-0.407-0.75-0.767
		c0-0.116,0.036-0.235,0.108-0.357c0.048-0.103,0.072-0.193,0.072-0.271c0-0.425-0.404-0.637-1.211-0.637
		c-0.628,0-1.195,0.166-1.7,0.497c-0.506,0.331-0.759,0.812-0.759,1.443c0,0.932,0.626,1.554,1.88,1.862
		c1.253,0.309,2.539,0.463,3.854,0.463c1.562,0,2.999-0.27,4.312-0.811S40.567,891.292,40.567,889.921z M35.874,885.265
		c-0.311,0.84-0.88,1.259-1.705,1.259c-0.748,0-1.259-0.403-1.535-1.211c-0.275-0.807-0.413-1.706-0.413-2.697
		c0-0.934,0.167-1.832,0.499-2.697s0.866-1.298,1.602-1.298s1.257,0.401,1.562,1.206c0.305,0.805,0.458,1.68,0.458,2.625
		C36.341,883.487,36.185,884.425,35.874,885.265z"/>
	<g>
		<path fill="#3E514B" d="M47.254,887.519c-0.275-0.245-0.422-0.377-0.44-0.396c-0.048-0.213-0.072-0.634-0.072-1.264v-6.408
			c0-0.798-0.056-1.387-0.166-1.767c-0.111-0.38-0.361-0.569-0.75-0.569c-0.526,0-1.409,0.225-2.647,0.676
			c-0.437,0.116-0.773,0.229-1.01,0.343c-0.236,0.112-0.354,0.313-0.354,0.604c0,0.108,0.023,0.199,0.072,0.27
			c0.048,0.07,0.113,0.137,0.197,0.197c0.083,0.062,0.179,0.131,0.287,0.208c0.365,0.237,0.583,0.527,0.655,0.869
			c0.054,0.341,0.081,0.933,0.081,1.775v3.803c0,0.63-0.039,1.051-0.117,1.264c-0.03,0.071-0.164,0.203-0.404,0.396
			c-0.269,0.166-0.404,0.376-0.404,0.626c0,0.502,0.281,0.753,0.844,0.753h3.787c0.568,0,0.853-0.251,0.853-0.753
			C47.667,887.914,47.529,887.705,47.254,887.519z"/>
		<path fill="#3E514B" d="M43.071,875.236c0.443,0.332,0.931,0.498,1.463,0.498c0.562,0,1.077-0.173,1.544-0.517
			c0.466-0.344,0.7-0.806,0.7-1.385c0-0.618-0.217-1.094-0.65-1.429c-0.434-0.334-0.953-0.501-1.557-0.501
			c-0.569,0-1.072,0.187-1.508,0.56c-0.437,0.373-0.656,0.858-0.656,1.456C42.407,874.467,42.629,874.906,43.071,875.236z"/>
	</g>
	<path fill="#3E514B" d="M57.417,877.611c-0.314-0.331-0.723-0.497-1.225-0.497c-0.593,0-1.149,0.248-1.67,0.742
		c-0.521,0.497-0.931,1.079-1.229,1.748c-0.144-0.805-0.289-1.421-0.435-1.848c-0.147-0.429-0.433-0.643-0.857-0.643
		c-0.18,0-0.963,0.225-2.352,0.676c-0.735,0.341-1.104,0.711-1.104,1.109c0,0.335,0.197,0.598,0.592,0.791
		c0.269,0.13,0.458,0.247,0.565,0.353c0.108,0.105,0.189,0.292,0.243,0.555c0.096,0.283,0.144,0.493,0.144,0.628v4.43
		c0,0.663-0.036,1.097-0.108,1.303c-0.078,0.174-0.248,0.318-0.511,0.435c-0.347,0.193-0.521,0.431-0.521,0.714
		c0,0.341,0.107,0.558,0.319,0.651c0.212,0.093,0.51,0.14,0.893,0.14h3.5c0.383,0,0.68-0.045,0.893-0.135
		c0.212-0.09,0.319-0.309,0.319-0.656c0-0.283-0.174-0.521-0.521-0.714c-0.264-0.116-0.435-0.261-0.512-0.435
		c-0.072-0.206-0.108-0.64-0.108-1.303v-1.939c0-1.146,0.146-2.001,0.44-2.567c0.251-0.605,0.595-0.907,1.032-0.907
		c0.167,0,0.409,0.053,0.723,0.159c0.313,0.105,0.576,0.159,0.785,0.159c0.359,0,0.645-0.172,0.857-0.517
		c0.212-0.344,0.318-0.725,0.318-1.144C57.888,878.372,57.731,877.942,57.417,877.611z"/>
	<path fill="#3E514B" d="M64.358,888.106c0-0.271-0.185-0.508-0.557-0.714c-0.275-0.148-0.434-0.293-0.476-0.435
		c-0.071-0.206-0.107-0.64-0.107-1.303v-12.652c0-0.805-0.057-1.399-0.17-1.785s-0.365-0.579-0.753-0.579
		c-0.431,0-1.311,0.235-2.639,0.704c-0.413,0.104-0.743,0.212-0.992,0.328c-0.248,0.115-0.373,0.312-0.373,0.589
		c0,0.219,0.183,0.44,0.548,0.666c0.371,0.244,0.592,0.534,0.664,0.869c0.047,0.373,0.071,0.98,0.071,1.823v10.037
		c0,0.663-0.048,1.097-0.144,1.303c-0.054,0.174-0.212,0.318-0.476,0.435c-0.371,0.206-0.557,0.443-0.557,0.714
		c0,0.341,0.109,0.558,0.328,0.651c0.219,0.093,0.513,0.14,0.884,0.14h3.536c0.382,0,0.681-0.045,0.893-0.135
		C64.252,888.673,64.358,888.454,64.358,888.106z"/>
	<path fill="#3E514B" d="M75.128,885.104c0-1.029-0.284-1.783-0.853-2.263c-0.569-0.479-1.373-0.857-2.414-1.134l-1.032-0.318
		c-1.101-0.29-1.651-0.725-1.651-1.303c0-0.444,0.175-0.78,0.525-1.009c0.35-0.229,0.75-0.342,1.199-0.342
		c0.628,0,1.073,0.119,1.337,0.356c0.263,0.238,0.555,0.587,0.875,1.047c0.32,0.46,0.611,0.689,0.875,0.689
		c0.442,0,0.664-0.392,0.664-1.177c0-0.875-0.159-1.416-0.476-1.622c-0.844-0.61-2.02-0.916-3.527-0.916
		c-1.353,0-2.549,0.338-3.59,1.013c-1.041,0.677-1.562,1.695-1.562,3.06c0,0.979,0.259,1.694,0.776,2.147s1.305,0.818,2.36,1.096
		c1.056,0.276,1.771,0.497,2.145,0.66c0.375,0.164,0.562,0.511,0.562,1.038c0,0.464-0.202,0.817-0.606,1.062
		c-0.404,0.245-0.839,0.367-1.306,0.367c-0.502,0-0.901-0.104-1.194-0.313c-0.293-0.21-0.667-0.581-1.121-1.115
		c-0.36-0.443-0.7-0.666-1.023-0.666c-0.275,0-0.504,0.107-0.687,0.323c-0.182,0.216-0.273,0.475-0.273,0.777
		c0,0.817,0.602,1.502,1.804,2.056c0.819,0.424,1.801,0.637,2.943,0.637c1.352,0,2.516-0.315,3.491-0.946
		C74.542,887.492,75.128,886.424,75.128,885.104z"/>
</g>
</svg>
