<?xml version="1.0" encoding="utf-8"?>
<!-- Generator: Adobe Illustrator 16.0.0, SVG Export Plug-In . SVG Version: 6.00 Build 0)  -->
<!DOCTYPE svg PUBLIC "-//W3C//DTD SVG 1.1//EN" "http://www.w3.org/Graphics/SVG/1.1/DTD/svg11.dtd">
<svg version="1.1" id="Capa_1" xmlns="http://www.w3.org/2000/svg" xmlns:xlink="http://www.w3.org/1999/xlink" x="0px" y="0px"
	 width="124.445px" height="109.357px" viewBox="0 0 124.445 109.357" enable-background="new 0 0 124.445 109.357"
	 xml:space="preserve">
<g>
	<path opacity="0.3" fill="#4A4A4A" enable-background="new    " d="M52.675,97.333c0.343,0.79,0.543,1.732,0.543,2.859v8.709
		c0.615,0.066,1.237,0.121,1.863,0.167v-5.59C55.081,103.482,54.932,99.082,52.675,97.333z"/>
	<path opacity="0.3" fill="#4A4A4A" enable-background="new    " d="M97.639,97.138c0-6.75-15.637-12.225-34.93-12.225
		c-19.289,0-34.929,5.475-34.929,12.225c0,4.817,7.966,8.984,19.542,10.977v-7.768c0,0-0.307-3.727-3.723-4.967
		c0,0-2.017-1.397,0.153-2.175c0,0,6.263-0.52,8.604,3.47c-0.242-0.772-0.275-1.967,2.106-1.426c0,0,6.52,0.929,6.828,8.536
		l0.057,5.564c0.454,0.007,0.906,0.007,1.36,0.007c0.13,0,0.26,0,0.385,0l0.06-5.571c0.311-7.607,6.828-8.536,6.828-8.536
		c2.386-0.541,2.348,0.658,2.105,1.426c2.342-3.986,8.604-3.47,8.604-3.47c2.175,0.78,0.154,2.175,0.154,2.175
		c-3.412,1.24-3.722,4.967-3.722,4.967v7.93C89.223,106.359,97.639,102.087,97.639,97.138z"/>
	<path opacity="0.3" fill="#4A4A4A" enable-background="new    " d="M69.363,103.482v5.659c0.627-0.041,1.251-0.093,1.86-0.146
		v-8.802c0-1.127,0.206-2.069,0.543-2.859C69.518,99.082,69.363,103.482,69.363,103.482z"/>
	<path fill="#4A4A4A" d="M71.85,97.272c0,0,0.139-0.255,0.239-0.592c-0.119,0.206-0.222,0.425-0.317,0.653
		C71.795,97.311,71.818,97.291,71.85,97.272z"/>
	<path opacity="0.5" fill="#4A4A4A" enable-background="new    " d="M69.363,103.482c0,0,0.154-4.4,2.408-6.148
		c0.096-0.229,0.201-0.447,0.317-0.653c0.241-0.77,0.28-1.969-2.105-1.429c0,0-6.517,0.932-6.826,8.539l-0.06,5.569
		c2.143-0.008,4.237-0.082,6.266-0.219V103.482L69.363,103.482z"/>
	<path opacity="0.5" fill="#4A4A4A" enable-background="new    " d="M53.221,100.193c0-1.127-0.203-2.069-0.543-2.859
		c-0.027-0.022-0.049-0.043-0.078-0.062c0,0-0.138-0.255-0.243-0.592c-2.341-3.986-8.604-3.469-8.604-3.469
		c-2.172,0.774-0.153,2.172-0.153,2.172c3.416,1.237,3.723,4.97,3.723,4.97v7.767c1.881,0.321,3.853,0.589,5.898,0.787V100.193z"/>
	<path opacity="0.5" fill="#4A4A4A" enable-background="new    " d="M80.847,95.383c0,0,2.018-1.397-0.155-2.172
		c0,0-6.264-0.521-8.603,3.469c-0.104,0.337-0.245,0.592-0.245,0.592c-0.026,0.019-0.049,0.041-0.078,0.062
		c-0.34,0.79-0.542,1.732-0.542,2.859v8.802c2.046-0.178,4.018-0.42,5.898-0.716v-7.932C77.125,100.347,77.434,96.624,80.847,95.383
		z"/>
	<path fill="#4A4A4A" d="M52.675,97.333c-0.095-0.229-0.2-0.447-0.318-0.653c0.103,0.337,0.243,0.592,0.243,0.592
		C52.626,97.291,52.65,97.311,52.675,97.333z"/>
	<path opacity="0.5" fill="#4A4A4A" enable-background="new    " d="M55.081,103.482v5.587c2.028,0.157,4.126,0.258,6.267,0.286
		l-0.057-5.564c-0.308-7.607-6.828-8.536-6.828-8.536c-2.382-0.54-2.346,0.653-2.106,1.426c0.12,0.206,0.224,0.425,0.318,0.656
		C54.932,99.082,55.081,103.482,55.081,103.482z"/>
	<path opacity="0.25" fill="#4A4A4A" enable-background="new    " d="M22.814,61.195l-1.013,3.513c0,0-0.264,1.268,0.936,1.496
		c1.247-0.027,1.144-1.193,1.061-1.571L22.814,61.195L22.814,61.195z"/>
	<path fill="#4A4A4A" d="M124.352,46.465l0.093-0.457c-10.245-2.047-20.764-2.067-27.125-1.805
		c1.045-3.764,1.358-8.098,1.358-12.929c0-6.93-2.6-12.474-6.828-16.687c0.739-2.385,1.726-7.679-0.986-14.456
		c0,0-4.778-1.518-15.595,5.722c-4.236-1.06-8.749-1.583-13.265-1.583c-4.968,0-9.985,0.632-14.669,1.918
		C36.177-1.426,31.247,0.134,31.247,0.134c-3.216,8.041-1.226,13.998-0.619,15.476c-3.782,4.077-6.089,9.285-6.089,15.669
		c0,4.82,0.549,9.145,1.889,12.902c-6.416-0.232-16.549-0.144-26.429,1.833l0.089,0.457c9.942-1.987,20.138-2.058,26.513-1.817
		c0.296,0.782,0.624,1.534,0.993,2.265c-6.303,0.203-17.073,1.008-27.388,3.918l0.125,0.448c10.4-2.933,21.259-3.718,27.506-3.908
		c3.764,7.023,11.194,11.558,24.408,12.981c-1.873,1.261-3.788,3.404-4.562,7.027c-2.557,1.226-10.649,4.208-15.503-4.143
		c0,0-2.718-4.97-7.922-5.358c0,0-5.046-0.077-0.347,3.146c0,0,3.375,1.593,5.705,7.571c0,0,3.039,10.192,17.701,6.924v10.528
		c0,0-0.31,3.729-3.725,4.972c0,0-2.018,1.397,0.155,2.17c0,0,9.468,0.779,9.468-6.982V74.728c0,0-0.373-4.556,1.86-6.138v18.863
		c0,0-0.151,4.502-2.483,6.213c0,0-1.552,2.79,1.863,2.018c0,0,6.519-0.937,6.827-8.539l0.148-19.092H63l0.149,19.092
		c0.308,7.605,6.823,8.539,6.823,8.539c3.419,0.772,1.863-2.018,1.863-2.018c-2.328-1.709-2.483-6.213-2.483-6.213V68.752
		c2.236,1.745,1.861,5.976,1.861,5.976v11.485c0,7.762,9.468,6.982,9.468,6.982c2.175-0.772,0.154-2.17,0.154-2.17
		c-3.415-1.243-3.724-4.972-3.724-4.972V70.997c0-5.87-2.476-8.979-4.89-10.618c14.09-1.397,20.855-5.953,23.97-13.023
		c6.174,0.174,17.283,0.922,27.907,3.922l0.125-0.449c-10.566-2.98-21.602-3.752-27.833-3.933c0.293-0.713,0.554-1.454,0.782-2.22
		C103.504,44.407,114.065,44.41,124.352,46.465z M25.507,59.818c-0.557,0-1.009-0.309-1.009-0.697c0-0.387,0.452-0.7,1.009-0.7
		c0.558,0,1.009,0.313,1.009,0.7C26.514,59.509,26.067,59.818,25.507,59.818z M27.294,60.672c0-0.379,0.454-0.695,1.008-0.695
		c0.561,0,1.014,0.313,1.014,0.695c0,0.391-0.453,0.701-1.014,0.701C27.745,61.374,27.294,61.063,27.294,60.672z M29.004,62.694
		c0-0.385,0.453-0.694,1.006-0.694c0.558,0,1.012,0.309,1.012,0.694c0,0.385-0.453,0.699-1.012,0.699
		C29.454,63.39,29.004,63.079,29.004,62.694z M31.563,65.722c-0.558,0-1.011-0.311-1.011-0.696s0.453-0.701,1.011-0.701
		c0.556,0,1.01,0.312,1.01,0.701C32.57,65.412,32.118,65.722,31.563,65.722z M33.27,67.894c-0.558,0-1.013-0.312-1.013-0.699
		c0-0.386,0.454-0.697,1.013-0.697c0.554,0,1.01,0.312,1.01,0.697C34.279,67.582,33.823,67.894,33.27,67.894z M35.6,69.758
		c-0.559,0-1.01-0.312-1.01-0.7c0-0.385,0.451-0.701,1.01-0.701c0.556,0,1.011,0.314,1.011,0.701
		C36.61,69.447,36.155,69.758,35.6,69.758z M38.86,71.001c-0.559,0-1.011-0.312-1.011-0.7s0.452-0.7,1.011-0.7
		c0.554,0,1.009,0.312,1.009,0.7C39.868,70.69,39.415,71.001,38.86,71.001z M42.105,71.001c-0.559,0-1.011-0.312-1.011-0.7
		s0.452-0.7,1.011-0.7c0.556,0,1.007,0.312,1.007,0.7S42.66,71.001,42.105,71.001z M45.397,70.458c-0.56,0-1.012-0.312-1.012-0.7
		c0-0.381,0.452-0.694,1.012-0.694c0.556,0,1.011,0.309,1.011,0.694C46.406,70.147,45.952,70.458,45.397,70.458z M61.896,57.757
		c-15.364,0-27.81-2.312-27.81-17.159c0-3.555,1.746-6.854,4.745-9.595c5-4.563,13.462-2.146,23.064-2.146
		c9.562,0,17.994-2.444,23.003,2.092c3.035,2.75,4.81,6.067,4.81,9.648C89.707,57.304,77.256,57.757,61.896,57.757z"/>
	<path opacity="0.3" fill="#4A4A4A" enable-background="new    " d="M84.896,30.949c-5.008-4.535-13.441-2.093-23.003-2.093
		c-9.602,0-18.063-2.417-23.063,2.146c-3.001,2.739-4.749,6.04-4.749,9.593c0,14.85,12.448,17.16,27.812,17.16
		c15.358,0,27.812-0.453,27.812-17.16C89.707,37.017,87.932,33.699,84.896,30.949z M46.856,49.779c-3.193,0-5.788-3.731-5.788-8.33
		c0-4.601,2.595-8.33,5.788-8.33c3.199,0,5.792,3.729,5.792,8.33C52.648,46.05,50.056,49.779,46.856,49.779z M77.904,49.779
		c-3.193,0-5.785-3.731-5.785-8.33c0-4.601,2.592-8.33,5.785-8.33c3.196,0,5.788,3.729,5.788,8.33
		C83.692,46.05,81.101,49.779,77.904,49.779z"/>
	<g>
		<ellipse fill="#4A4A4A" cx="46.929" cy="41.551" rx="3.854" ry="5.554"/>
		<ellipse fill="#4A4A4A" cx="77.975" cy="41.551" rx="3.853" ry="5.554"/>
		<circle fill="#4A4A4A" cx="61.978" cy="48.849" r="1.447"/>
		<path fill="#4A4A4A" d="M65.04,51.913c-0.239-0.089-0.508,0.04-0.595,0.283c-0.373,1.05-1.369,1.759-2.482,1.759
			c-1.111,0-2.11-0.706-2.483-1.759c-0.085-0.241-0.352-0.372-0.595-0.283c-0.239,0.083-0.367,0.352-0.285,0.591
			c0.507,1.423,1.853,2.378,3.361,2.378c1.504,0,2.854-0.955,3.356-2.378C65.407,52.264,65.281,51.998,65.04,51.913z"/>
	</g>
	<g opacity="0.12">
		<ellipse fill="#4A4A4A" cx="25.507" cy="59.121" rx="1.011" ry="0.697"/>
		<path fill="#4A4A4A" d="M29.312,60.672c0-0.379-0.453-0.695-1.014-0.695c-0.554,0-1.008,0.313-1.008,0.695
			c0,0.391,0.454,0.701,1.008,0.701C28.862,61.374,29.312,61.063,29.312,60.672z"/>
		<ellipse fill="#4A4A4A" cx="30.013" cy="62.696" rx="1.008" ry="0.697"/>
		<ellipse fill="#4A4A4A" cx="31.562" cy="65.021" rx="1.009" ry="0.699"/>
		<ellipse fill="#4A4A4A" cx="33.27" cy="67.196" rx="1.013" ry="0.698"/>
		<ellipse fill="#4A4A4A" cx="35.6" cy="69.058" rx="1.008" ry="0.701"/>
		<ellipse fill="#4A4A4A" cx="38.86" cy="70.301" rx="1.012" ry="0.7"/>
		<ellipse fill="#4A4A4A" cx="42.105" cy="70.301" rx="1.015" ry="0.7"/>
		<path fill="#4A4A4A" d="M45.397,69.064c0.559,0,1.011,0.312,1.011,0.7c0,0.386-0.452,0.697-1.011,0.697s-1.012-0.312-1.012-0.697
			C44.386,69.375,44.839,69.064,45.397,69.064z"/>
	</g>
	<path fill="#4A4A4A" d="M46.856,33.12c3.199,0,5.792,3.729,5.792,8.33s-2.593,8.33-5.792,8.33c-3.193,0-5.788-3.729-5.788-8.33
		C41.068,36.848,43.663,33.12,46.856,33.12 M46.856,32.463c-3.552,0-6.444,4.031-6.444,8.986c0,4.957,2.892,8.986,6.444,8.986
		c3.557,0,6.448-4.029,6.448-8.986C53.305,36.495,50.413,32.463,46.856,32.463L46.856,32.463z"/>
	<path fill="#4A4A4A" d="M77.904,33.12c3.196,0,5.788,3.729,5.788,8.33s-2.592,8.33-5.788,8.33c-3.193,0-5.785-3.729-5.785-8.33
		C72.119,36.848,74.711,33.12,77.904,33.12 M77.904,32.463c-3.554,0-6.446,4.031-6.446,8.986c0,4.957,2.893,8.986,6.446,8.986
		c3.556,0,6.447-4.029,6.447-8.986C84.352,36.495,81.459,32.463,77.904,32.463L77.904,32.463z"/>
</g>
</svg>
