<?xml version="1.0" encoding="utf-8"?>
<!-- Generator: Adobe Illustrator 16.0.0, SVG Export Plug-In . SVG Version: 6.00 Build 0)  -->
<!DOCTYPE svg PUBLIC "-//W3C//DTD SVG 1.1//EN" "http://www.w3.org/Graphics/SVG/1.1/DTD/svg11.dtd">
<svg version="1.1" id="Capa_1" xmlns="http://www.w3.org/2000/svg" xmlns:xlink="http://www.w3.org/1999/xlink" x="0px" y="0px"
	 width="238px" height="240.361px" viewBox="0 0 238 240.361" enable-background="new 0 0 238 240.361" xml:space="preserve">
<g>
	<g opacity="0.1">
		<circle cx="119.417" cy="119.122" r="108.659"/>
	</g>
	<g opacity="0.2">
		<g>
			<path d="M119.479,234.931h-0.062c-2.299,0-4.629-0.068-6.927-0.204l0.117-1.996c2.259,0.133,4.55,0.2,6.81,0.2L119.479,234.931z
				 M126.471,234.719l-0.121-1.995c2.285-0.139,4.588-0.347,6.844-0.618l0.24,1.985
				C131.139,234.367,128.795,234.579,126.471,234.719z M105.525,234.106c-2.313-0.276-4.641-0.626-6.916-1.04l0.357-1.967
				c2.235,0.404,4.521,0.749,6.795,1.021L105.525,234.106z M140.348,233.045l-0.358-1.967c2.252-0.412,4.514-0.896,6.72-1.438
				l0.479,1.94C144.939,232.133,142.641,232.626,140.348,233.045z M91.77,231.609c-2.26-0.555-4.528-1.184-6.741-1.87l0.594-1.91
				c2.174,0.676,4.402,1.294,6.622,1.837L91.77,231.609z M153.924,229.703l-0.596-1.908c2.189-0.685,4.375-1.438,6.496-2.245
				l0.711,1.869C158.376,228.239,156.152,229.008,153.924,229.703z M78.403,227.459c-2.181-0.826-4.358-1.729-6.473-2.68
				l0.821-1.824c2.077,0.937,4.217,1.821,6.36,2.633L78.403,227.459z M166.982,224.742l-0.821-1.822
				c2.082-0.939,4.157-1.954,6.168-3.011l0.933,1.77C171.215,222.755,169.104,223.785,166.982,224.742z M65.637,221.712
				c-2.062-1.082-4.112-2.239-6.098-3.44l1.035-1.711c1.951,1.18,3.967,2.317,5.992,3.383L65.637,221.712z M179.344,218.241
				l-1.037-1.711c1.95-1.182,3.891-2.438,5.764-3.734l1.14,1.646C183.302,215.76,181.328,217.038,179.344,218.241z M53.663,214.466
				c-1.913-1.321-3.81-2.718-5.636-4.148l1.234-1.574c1.795,1.406,3.658,2.779,5.538,4.079L53.663,214.466z M190.835,210.295
				l-1.233-1.574c1.801-1.411,3.576-2.894,5.276-4.4l1.326,1.496C194.475,207.351,192.667,208.857,190.835,210.295z M42.656,205.838
				c-1.737-1.539-3.451-3.15-5.095-4.792l1.414-1.416c1.614,1.613,3.3,3.198,5.007,4.712L42.656,205.838z M201.296,201.021
				l-1.414-1.414c1.616-1.616,3.202-3.301,4.714-5.005l1.496,1.325C204.555,197.663,202.939,199.377,201.296,201.021z
				 M32.765,195.956c-1.537-1.731-3.046-3.539-4.481-5.368l1.572-1.233c1.412,1.797,2.894,3.571,4.405,5.273L32.765,195.956z
				 M210.574,190.56L209,189.325c1.41-1.797,2.783-3.659,4.082-5.537l1.645,1.139C213.404,186.837,212.008,188.732,210.574,190.56z
				 M24.133,184.964c-1.321-1.907-2.602-3.881-3.804-5.862l1.711-1.037c1.181,1.946,2.438,3.886,3.737,5.762L24.133,184.964z
				 M218.533,179.052l-1.711-1.036c1.187-1.957,2.324-3.973,3.387-5.989l1.77,0.932C220.898,175.01,219.74,177.061,218.533,179.052z
				 M16.889,173.02c-1.078-2.047-2.109-4.157-3.066-6.274l1.822-0.824c0.94,2.081,1.954,4.155,3.014,6.167L16.889,173.02z
				 M225.048,166.663l-1.823-0.822c0.94-2.087,1.828-4.227,2.637-6.356l1.869,0.709
				C226.908,162.361,226.005,164.539,225.048,166.663z M11.142,160.297c-0.827-2.173-1.597-4.396-2.287-6.608l1.908-0.597
				c0.68,2.174,1.436,4.358,2.248,6.494L11.142,160.297z M230.016,153.569l-1.91-0.594c0.68-2.184,1.299-4.41,1.843-6.622
				l1.94,0.477C231.336,149.081,230.706,151.349,230.016,153.569z M6.975,146.951c-0.555-2.247-1.048-4.548-1.468-6.837l1.967-0.361
				c0.413,2.25,0.898,4.512,1.442,6.721L6.975,146.951z M233.35,139.989l-1.967-0.357c0.407-2.245,0.754-4.53,1.024-6.795
				l1.985,0.238C234.116,135.379,233.766,137.705,233.35,139.989z M4.456,133.2c-0.279-2.311-0.492-4.654-0.631-6.963l1.996-0.121
				c0.137,2.27,0.346,4.572,0.621,6.844L4.456,133.2z M235.018,126.11l-1.996-0.119c0.137-2.272,0.205-4.584,0.205-6.869
				l-0.002-0.243h2l0.002,0.231C235.227,121.447,235.154,123.799,235.018,126.11z M5.608,119.244h-2v-0.122
				c0-2.289,0.067-4.599,0.2-6.865l1.996,0.117c-0.13,2.229-0.196,4.498-0.196,6.748V119.244z M233.007,112.01
				c-0.141-2.279-0.353-4.583-0.628-6.845l1.984-0.242c0.281,2.302,0.496,4.645,0.64,6.964L233.007,112.01z M6.412,105.528
				l-1.986-0.236c0.275-2.312,0.624-4.64,1.036-6.917l1.969,0.357C7.024,100.969,6.683,103.256,6.412,105.528z M231.34,98.373
				c-0.414-2.246-0.902-4.506-1.449-6.718l1.94-0.481c0.558,2.251,1.055,4.552,1.476,6.836L231.34,98.373z M8.858,92.009
				l-1.943-0.475c0.552-2.257,1.18-4.524,1.866-6.74l1.91,0.592C10.017,87.563,9.4,89.791,8.858,92.009z M228.035,85.038
				c-0.686-2.184-1.444-4.367-2.256-6.491l1.869-0.714c0.824,2.162,1.598,4.385,2.295,6.606L228.035,85.038z M12.93,78.875
				l-1.871-0.708c0.823-2.177,1.724-4.354,2.676-6.474l1.824,0.818C14.623,74.594,13.738,76.735,12.93,78.875z M223.141,72.213
				c-0.938-2.069-1.953-4.145-3.021-6.163l1.769-0.935c1.086,2.055,2.119,4.165,3.073,6.271L223.141,72.213z M18.57,66.325
				l-1.771-0.93c1.083-2.063,2.24-4.115,3.439-6.099l1.711,1.035C20.771,62.28,19.635,64.297,18.57,66.325z M216.73,60.078
				c-1.183-1.944-2.44-3.882-3.742-5.758l1.643-1.142c1.325,1.909,2.605,3.882,3.811,5.859L216.73,60.078z M25.684,54.556
				l-1.646-1.137c1.318-1.91,2.713-3.807,4.146-5.637l1.574,1.233C28.35,50.814,26.979,52.678,25.684,54.556z M208.902,48.796
				c-1.412-1.795-2.896-3.566-4.409-5.27l1.493-1.329c1.541,1.73,3.051,3.535,4.488,5.362L208.902,48.796z M34.158,43.732
				l-1.498-1.325c1.538-1.738,3.15-3.453,4.791-5.097l1.416,1.413C37.254,40.339,35.67,42.023,34.158,43.732z M199.773,38.53
				c-1.619-1.614-3.306-3.197-5.012-4.707l1.324-1.498c1.736,1.535,3.452,3.146,5.1,4.788L199.773,38.53z M43.866,34.006
				l-1.328-1.495c1.738-1.544,3.543-3.053,5.364-4.483l1.236,1.572C47.348,31.006,45.574,32.488,43.866,34.006z M189.477,29.427
				c-1.8-1.407-3.664-2.777-5.541-4.071l1.135-1.646c1.91,1.316,3.808,2.711,5.64,4.145L189.477,29.427z M54.664,25.518
				l-1.139-1.645c1.91-1.324,3.883-2.604,5.861-3.807l1.037,1.71C58.48,22.958,56.542,24.217,54.664,25.518z M178.156,21.623
				c-1.961-1.183-3.979-2.317-5.995-3.376l0.928-1.771c2.054,1.075,4.106,2.23,6.101,3.435L178.156,21.623z M66.398,18.392
				l-0.934-1.771c2.052-1.082,4.162-2.114,6.274-3.069l0.824,1.822C70.488,16.313,68.414,17.328,66.398,18.392z M165.973,15.239
				c-2.084-0.937-4.227-1.818-6.363-2.626l0.707-1.871c2.175,0.821,4.354,1.721,6.476,2.673L165.973,15.239z M78.897,12.738
				l-0.713-1.869c2.172-0.828,4.396-1.599,6.608-2.291l0.598,1.909C83.216,11.167,81.031,11.925,78.897,12.738z M153.098,10.379
				c-2.182-0.674-4.41-1.29-6.627-1.83l0.475-1.942c2.255,0.55,4.522,1.177,6.742,1.861L153.098,10.379z M92.009,8.635l-0.48-1.94
				c2.249-0.558,4.55-1.052,6.837-1.472l0.361,1.967C96.479,7.603,94.219,8.089,92.009,8.635z M139.748,7.124
				c-2.243-0.404-4.53-0.745-6.798-1.014l0.235-1.986c2.308,0.273,4.635,0.62,6.918,1.032L139.748,7.124z M105.521,6.153
				l-0.242-1.985c2.304-0.28,4.646-0.494,6.964-0.636l0.121,1.996C110.086,5.668,107.784,5.878,105.521,6.153z M126.105,5.507
				c-2.213-0.128-4.463-0.192-6.688-0.192h-0.184v-2h0.184c2.267,0,4.556,0.065,6.804,0.195L126.105,5.507z"/>
		</g>
	</g>
</g>
<g>
	<path opacity="0.3" fill="#4A4A4A" enable-background="new    " d="M109.675,163.333c0.344,0.79,0.543,1.732,0.543,2.859v8.709
		c0.615,0.065,1.237,0.121,1.863,0.167v-5.59C112.081,169.482,111.933,165.082,109.675,163.333z"/>
	<path opacity="0.3" fill="#4A4A4A" enable-background="new    " d="M154.64,163.137c0-6.75-15.638-12.225-34.931-12.225
		c-19.289,0-34.929,5.475-34.929,12.225c0,4.817,7.966,8.984,19.542,10.978v-7.768c0,0-0.307-3.728-3.723-4.968
		c0,0-2.018-1.396,0.152-2.175c0,0,6.264-0.52,8.604,3.47c-0.242-0.771-0.275-1.967,2.105-1.426c0,0,6.521,0.929,6.828,8.536
		l0.058,5.564c0.453,0.007,0.905,0.007,1.359,0.007c0.13,0,0.26,0,0.385,0l0.061-5.571c0.311-7.607,6.828-8.536,6.828-8.536
		c2.386-0.541,2.348,0.658,2.104,1.426c2.342-3.985,8.604-3.47,8.604-3.47c2.175,0.78,0.153,2.175,0.153,2.175
		c-3.411,1.24-3.722,4.968-3.722,4.968v7.93C146.224,172.359,154.64,168.087,154.64,163.137z"/>
	<path opacity="0.3" fill="#4A4A4A" enable-background="new    " d="M126.363,169.482v5.659c0.627-0.041,1.251-0.094,1.86-0.146
		v-8.802c0-1.127,0.206-2.069,0.543-2.859C126.519,165.082,126.363,169.482,126.363,169.482z"/>
	<path fill="#4A4A4A" d="M128.851,163.272c0,0,0.139-0.255,0.238-0.592c-0.118,0.205-0.222,0.425-0.316,0.652
		C128.795,163.311,128.818,163.291,128.851,163.272z"/>
	<path opacity="0.5" fill="#4A4A4A" enable-background="new    " d="M126.363,169.482c0,0,0.154-4.4,2.408-6.148
		c0.096-0.229,0.201-0.447,0.316-0.652c0.241-0.771,0.28-1.97-2.104-1.43c0,0-6.518,0.933-6.826,8.539l-0.06,5.569
		c2.143-0.008,4.236-0.082,6.266-0.219V169.482L126.363,169.482z"/>
	<path opacity="0.5" fill="#4A4A4A" enable-background="new    " d="M110.222,166.193c0-1.127-0.203-2.069-0.543-2.859
		c-0.027-0.021-0.05-0.043-0.078-0.062c0,0-0.139-0.255-0.243-0.592c-2.341-3.986-8.604-3.47-8.604-3.47
		c-2.172,0.774-0.152,2.172-0.152,2.172c3.416,1.237,3.723,4.971,3.723,4.971v7.767c1.881,0.321,3.853,0.589,5.898,0.787V166.193z"
		/>
	<path opacity="0.5" fill="#4A4A4A" enable-background="new    " d="M137.848,161.383c0,0,2.018-1.396-0.155-2.172
		c0,0-6.264-0.521-8.604,3.47c-0.104,0.337-0.245,0.592-0.245,0.592c-0.025,0.019-0.049,0.041-0.077,0.062
		c-0.341,0.79-0.542,1.732-0.542,2.859v8.802c2.046-0.178,4.018-0.42,5.897-0.716v-7.932
		C134.125,166.347,134.435,162.624,137.848,161.383z"/>
	<path fill="#4A4A4A" d="M109.675,163.333c-0.095-0.229-0.199-0.447-0.317-0.652c0.103,0.337,0.243,0.592,0.243,0.592
		C109.626,163.291,109.65,163.311,109.675,163.333z"/>
	<path opacity="0.5" fill="#4A4A4A" enable-background="new    " d="M112.081,169.482v5.587c2.028,0.157,4.126,0.258,6.268,0.286
		l-0.058-5.564c-0.308-7.606-6.828-8.536-6.828-8.536c-2.382-0.54-2.346,0.653-2.105,1.427c0.12,0.205,0.224,0.425,0.317,0.655
		C111.933,165.082,112.081,169.482,112.081,169.482z"/>
	<path opacity="0.25" fill="#4A4A4A" enable-background="new    " d="M79.814,127.195l-1.014,3.513c0,0-0.264,1.269,0.937,1.496
		c1.247-0.027,1.144-1.193,1.061-1.571L79.814,127.195L79.814,127.195z"/>
	<path fill="#4A4A4A" d="M181.353,112.465l0.093-0.457c-10.245-2.047-20.764-2.066-27.125-1.805
		c1.045-3.764,1.358-8.098,1.358-12.929c0-6.931-2.601-12.475-6.828-16.688c0.738-2.385,1.726-7.679-0.986-14.456
		c0,0-4.778-1.518-15.595,5.723c-4.236-1.061-8.749-1.583-13.266-1.583c-4.968,0-9.984,0.632-14.669,1.918
		c-11.158-7.614-16.088-6.055-16.088-6.055c-3.216,8.041-1.226,13.998-0.619,15.477c-3.781,4.077-6.089,9.285-6.089,15.669
		c0,4.82,0.549,9.145,1.89,12.902c-6.416-0.232-16.55-0.145-26.43,1.833l0.089,0.456c9.942-1.986,20.139-2.058,26.514-1.816
		c0.296,0.782,0.624,1.534,0.992,2.265c-6.303,0.203-17.072,1.008-27.388,3.918l0.125,0.448c10.4-2.933,21.259-3.718,27.506-3.908
		c3.765,7.023,11.194,11.559,24.408,12.981c-1.873,1.261-3.788,3.403-4.562,7.026c-2.558,1.227-10.649,4.208-15.503-4.143
		c0,0-2.719-4.97-7.923-5.358c0,0-5.046-0.076-0.347,3.146c0,0,3.375,1.593,5.705,7.571c0,0,3.039,10.191,17.701,6.924v10.527
		c0,0-0.311,3.729-3.726,4.973c0,0-2.018,1.396,0.155,2.17c0,0,9.468,0.779,9.468-6.982v-11.484c0,0-0.373-4.557,1.86-6.139v18.863
		c0,0-0.151,4.502-2.483,6.213c0,0-1.552,2.79,1.863,2.019c0,0,6.52-0.938,6.827-8.539l0.148-19.093H120l0.149,19.093
		c0.308,7.604,6.823,8.539,6.823,8.539c3.419,0.771,1.862-2.019,1.862-2.019c-2.328-1.709-2.482-6.213-2.482-6.213v-18.701
		c2.235,1.745,1.86,5.977,1.86,5.977v11.484c0,7.763,9.469,6.982,9.469,6.982c2.175-0.772,0.153-2.17,0.153-2.17
		c-3.415-1.243-3.724-4.973-3.724-4.973v-15.056c0-5.87-2.477-8.979-4.89-10.618c14.09-1.396,20.854-5.953,23.97-13.022
		c6.174,0.174,17.283,0.922,27.907,3.922l0.125-0.449c-10.566-2.979-21.603-3.752-27.833-3.933c0.293-0.713,0.554-1.454,0.781-2.221
		C160.504,110.407,171.065,110.41,181.353,112.465z M82.507,125.818c-0.557,0-1.009-0.31-1.009-0.697c0-0.387,0.452-0.7,1.009-0.7
		c0.559,0,1.01,0.313,1.01,0.7C83.515,125.509,83.067,125.818,82.507,125.818z M84.294,126.672c0-0.379,0.454-0.694,1.008-0.694
		c0.562,0,1.015,0.312,1.015,0.694c0,0.392-0.453,0.701-1.015,0.701C84.745,127.374,84.294,127.063,84.294,126.672z M86.004,128.694
		c0-0.385,0.453-0.694,1.006-0.694c0.559,0,1.013,0.31,1.013,0.694s-0.453,0.699-1.013,0.699
		C86.454,129.39,86.004,129.079,86.004,128.694z M88.563,131.722c-0.559,0-1.012-0.312-1.012-0.696s0.453-0.701,1.012-0.701
		c0.556,0,1.01,0.312,1.01,0.701C89.57,131.412,89.118,131.722,88.563,131.722z M90.271,133.894c-0.559,0-1.014-0.312-1.014-0.699
		c0-0.386,0.454-0.697,1.014-0.697c0.554,0,1.01,0.312,1.01,0.697C91.279,133.582,90.823,133.894,90.271,133.894z M92.601,135.758
		c-0.56,0-1.011-0.312-1.011-0.699c0-0.386,0.451-0.701,1.011-0.701c0.556,0,1.011,0.313,1.011,0.701
		C93.61,135.447,93.155,135.758,92.601,135.758z M95.86,137.001c-0.56,0-1.011-0.312-1.011-0.7c0-0.388,0.451-0.699,1.011-0.699
		c0.554,0,1.009,0.312,1.009,0.699C96.868,136.69,96.415,137.001,95.86,137.001z M99.105,137.001c-0.56,0-1.012-0.312-1.012-0.7
		c0-0.388,0.452-0.699,1.012-0.699c0.556,0,1.007,0.312,1.007,0.699C100.112,136.689,99.66,137.001,99.105,137.001z
		 M102.397,136.458c-0.561,0-1.013-0.312-1.013-0.7c0-0.381,0.452-0.693,1.013-0.693c0.556,0,1.011,0.309,1.011,0.693
		C103.406,136.147,102.952,136.458,102.397,136.458z M118.896,123.757c-15.364,0-27.811-2.312-27.811-17.158
		c0-3.556,1.746-6.854,4.745-9.596c5-4.562,13.462-2.146,23.064-2.146c9.562,0,17.994-2.444,23.003,2.092
		c3.035,2.75,4.81,6.067,4.81,9.648C146.707,123.303,134.256,123.757,118.896,123.757z"/>
	<path opacity="0.3" fill="#4A4A4A" enable-background="new    " d="M141.896,96.949c-5.008-4.535-13.441-2.093-23.003-2.093
		c-9.603,0-18.063-2.417-23.063,2.146c-3.001,2.739-4.749,6.04-4.749,9.593c0,14.851,12.448,17.16,27.812,17.16
		c15.357,0,27.812-0.453,27.812-17.16C146.707,103.017,144.933,99.699,141.896,96.949z M103.856,115.779
		c-3.193,0-5.788-3.731-5.788-8.33c0-4.601,2.595-8.33,5.788-8.33c3.199,0,5.792,3.729,5.792,8.33S107.057,115.779,103.856,115.779z
		 M134.904,115.779c-3.193,0-5.785-3.731-5.785-8.33c0-4.601,2.592-8.33,5.785-8.33c3.196,0,5.788,3.729,5.788,8.33
		S138.102,115.779,134.904,115.779z"/>
	<g>
		<ellipse fill="#4A4A4A" cx="103.93" cy="107.551" rx="3.854" ry="5.554"/>
		<ellipse fill="#4A4A4A" cx="134.976" cy="107.551" rx="3.853" ry="5.554"/>
		<circle fill="#4A4A4A" cx="118.979" cy="114.849" r="1.447"/>
		<path fill="#4A4A4A" d="M122.04,117.913c-0.239-0.089-0.508,0.04-0.595,0.283c-0.373,1.05-1.369,1.759-2.482,1.759
			c-1.11,0-2.109-0.706-2.482-1.759c-0.085-0.241-0.353-0.372-0.596-0.283c-0.238,0.083-0.366,0.353-0.284,0.591
			c0.507,1.423,1.853,2.378,3.36,2.378c1.504,0,2.854-0.955,3.356-2.378C122.407,118.264,122.281,117.998,122.04,117.913z"/>
	</g>
	<g opacity="0.12">
		<ellipse fill="#4A4A4A" cx="82.507" cy="125.121" rx="1.012" ry="0.697"/>
		<path fill="#4A4A4A" d="M86.312,126.672c0-0.379-0.453-0.694-1.015-0.694c-0.554,0-1.008,0.312-1.008,0.694
			c0,0.392,0.454,0.701,1.008,0.701C85.862,127.374,86.312,127.063,86.312,126.672z"/>
		<ellipse fill="#4A4A4A" cx="87.014" cy="128.696" rx="1.008" ry="0.697"/>
		<ellipse fill="#4A4A4A" cx="88.562" cy="131.021" rx="1.009" ry="0.699"/>
		<ellipse fill="#4A4A4A" cx="90.271" cy="133.196" rx="1.013" ry="0.698"/>
		<ellipse fill="#4A4A4A" cx="92.601" cy="135.058" rx="1.008" ry="0.701"/>
		<ellipse fill="#4A4A4A" cx="95.86" cy="136.301" rx="1.012" ry="0.7"/>
		<ellipse fill="#4A4A4A" cx="99.105" cy="136.301" rx="1.015" ry="0.7"/>
		<path fill="#4A4A4A" d="M102.397,135.064c0.559,0,1.011,0.312,1.011,0.7c0,0.386-0.452,0.696-1.011,0.696
			c-0.56,0-1.013-0.312-1.013-0.696C101.386,135.375,101.839,135.064,102.397,135.064z"/>
	</g>
	<path fill="#4A4A4A" d="M103.856,99.12c3.199,0,5.792,3.729,5.792,8.33s-2.593,8.33-5.792,8.33c-3.193,0-5.788-3.729-5.788-8.33
		C98.068,102.848,100.663,99.12,103.856,99.12 M103.856,98.463c-3.552,0-6.444,4.031-6.444,8.986c0,4.957,2.893,8.986,6.444,8.986
		c3.557,0,6.448-4.029,6.448-8.986C110.306,102.495,107.413,98.463,103.856,98.463L103.856,98.463z"/>
	<path fill="#4A4A4A" d="M134.904,99.12c3.196,0,5.788,3.729,5.788,8.33s-2.592,8.33-5.788,8.33c-3.193,0-5.785-3.729-5.785-8.33
		C129.119,102.848,131.711,99.12,134.904,99.12 M134.904,98.463c-3.554,0-6.446,4.031-6.446,8.986c0,4.957,2.894,8.986,6.446,8.986
		c3.556,0,6.447-4.029,6.447-8.986C141.353,102.495,138.459,98.463,134.904,98.463L134.904,98.463z"/>
</g>
</svg>
