<?xml version="1.0" encoding="utf-8"?>
<!-- Generator: Adobe Illustrator 16.0.0, SVG Export Plug-In . SVG Version: 6.00 Build 0)  -->
<!DOCTYPE svg PUBLIC "-//W3C//DTD SVG 1.1//EN" "http://www.w3.org/Graphics/SVG/1.1/DTD/svg11.dtd">
<svg version="1.1" id="Capa_1" xmlns="http://www.w3.org/2000/svg" xmlns:xlink="http://www.w3.org/1999/xlink" x="0px" y="0px"
	 width="238px" height="240.361px" viewBox="0 0 238 240.361" enable-background="new 0 0 238 240.361" xml:space="preserve">
<g>
	<g opacity="0.1">
		<circle cx="119.417" cy="119.122" r="108.659"/>
	</g>
	<g opacity="0.2">
		<g>
			<path d="M119.479,234.931h-0.062c-2.299,0-4.629-0.068-6.927-0.204l0.117-1.996c2.259,0.133,4.55,0.2,6.81,0.2L119.479,234.931z
				 M126.471,234.719l-0.121-1.995c2.285-0.139,4.588-0.347,6.844-0.618l0.24,1.985
				C131.139,234.367,128.795,234.579,126.471,234.719z M105.525,234.106c-2.313-0.276-4.641-0.626-6.916-1.04l0.357-1.967
				c2.235,0.404,4.521,0.749,6.795,1.021L105.525,234.106z M140.348,233.045l-0.359-1.967c2.253-0.412,4.515-0.896,6.721-1.438
				l0.479,1.94C144.939,232.133,142.641,232.626,140.348,233.045z M91.77,231.609c-2.26-0.555-4.528-1.184-6.741-1.87l0.594-1.91
				c2.174,0.676,4.402,1.294,6.622,1.837L91.77,231.609z M153.924,229.703l-0.596-1.908c2.189-0.685,4.375-1.438,6.496-2.245
				l0.711,1.869C158.376,228.239,156.152,229.008,153.924,229.703z M78.403,227.459c-2.181-0.826-4.358-1.729-6.473-2.68
				l0.821-1.824c2.077,0.937,4.217,1.821,6.36,2.633L78.403,227.459z M166.982,224.742l-0.821-1.822
				c2.082-0.939,4.157-1.954,6.168-3.011l0.933,1.77C171.215,222.755,169.104,223.785,166.982,224.742z M65.637,221.712
				c-2.062-1.082-4.112-2.239-6.098-3.44l1.035-1.711c1.951,1.18,3.967,2.317,5.992,3.383L65.637,221.712z M179.344,218.241
				l-1.037-1.711c1.95-1.182,3.891-2.438,5.764-3.734l1.14,1.646C183.303,215.76,181.328,217.038,179.344,218.241z M53.663,214.466
				c-1.913-1.321-3.81-2.718-5.636-4.148l1.234-1.574c1.795,1.406,3.658,2.779,5.538,4.079L53.663,214.466z M190.835,210.295
				l-1.233-1.574c1.801-1.411,3.576-2.894,5.276-4.4l1.326,1.496C194.475,207.351,192.667,208.857,190.835,210.295z M42.656,205.838
				c-1.737-1.539-3.451-3.15-5.095-4.792l1.414-1.416c1.614,1.613,3.3,3.198,5.007,4.712L42.656,205.838z M201.296,201.021
				l-1.414-1.414c1.616-1.616,3.202-3.301,4.714-5.005l1.496,1.325C204.555,197.663,202.939,199.377,201.296,201.021z
				 M32.765,195.956c-1.537-1.731-3.046-3.539-4.481-5.368l1.572-1.233c1.412,1.797,2.894,3.571,4.405,5.273L32.765,195.956z
				 M210.574,190.56L209,189.325c1.41-1.797,2.783-3.659,4.082-5.537l1.645,1.139C213.404,186.837,212.008,188.732,210.574,190.56z
				 M24.133,184.964c-1.321-1.907-2.602-3.881-3.804-5.862l1.711-1.037c1.181,1.946,2.438,3.886,3.737,5.762L24.133,184.964z
				 M218.533,179.052l-1.711-1.036c1.187-1.957,2.324-3.973,3.387-5.989l1.77,0.932C220.898,175.01,219.74,177.061,218.533,179.052z
				 M16.889,173.02c-1.078-2.047-2.109-4.157-3.066-6.274l1.822-0.824c0.94,2.081,1.954,4.155,3.014,6.167L16.889,173.02z
				 M225.048,166.663l-1.823-0.822c0.94-2.087,1.828-4.227,2.637-6.356l1.869,0.709
				C226.908,162.361,226.005,164.539,225.048,166.663z M11.142,160.297c-0.827-2.173-1.597-4.396-2.287-6.608l1.908-0.597
				c0.68,2.174,1.436,4.358,2.248,6.494L11.142,160.297z M230.016,153.569l-1.91-0.594c0.68-2.184,1.299-4.41,1.842-6.622
				l1.941,0.477C231.336,149.081,230.706,151.349,230.016,153.569z M6.975,146.951c-0.555-2.247-1.048-4.548-1.468-6.837
				l1.967-0.361c0.413,2.25,0.898,4.512,1.442,6.721L6.975,146.951z M233.35,139.989l-1.967-0.357
				c0.407-2.245,0.754-4.53,1.024-6.795l1.985,0.238C234.116,135.379,233.766,137.705,233.35,139.989z M4.456,133.2
				c-0.279-2.311-0.492-4.654-0.631-6.963l1.996-0.121c0.137,2.27,0.346,4.572,0.621,6.844L4.456,133.2z M235.018,126.11
				l-1.996-0.119c0.137-2.272,0.205-4.584,0.205-6.869l-0.002-0.243h2l0.002,0.231C235.227,121.447,235.154,123.799,235.018,126.11z
				 M5.608,119.244h-2v-0.122c0-2.289,0.067-4.599,0.2-6.865l1.996,0.117c-0.13,2.229-0.196,4.498-0.196,6.748V119.244z
				 M233.007,112.01c-0.141-2.279-0.353-4.583-0.628-6.845l1.984-0.242c0.281,2.302,0.496,4.645,0.64,6.964L233.007,112.01z
				 M6.412,105.528l-1.986-0.236c0.275-2.312,0.624-4.64,1.036-6.917l1.969,0.357C7.024,100.969,6.683,103.256,6.412,105.528z
				 M231.34,98.373c-0.414-2.246-0.902-4.506-1.449-6.718l1.94-0.481c0.558,2.251,1.056,4.552,1.476,6.836L231.34,98.373z
				 M8.858,92.009l-1.943-0.475c0.552-2.257,1.18-4.524,1.866-6.74l1.91,0.592C10.017,87.563,9.4,89.791,8.858,92.009z
				 M228.035,85.038c-0.686-2.184-1.444-4.367-2.256-6.491l1.869-0.714c0.824,2.162,1.598,4.385,2.295,6.606L228.035,85.038z
				 M12.93,78.875l-1.871-0.708c0.823-2.177,1.724-4.354,2.676-6.474l1.824,0.818C14.623,74.594,13.738,76.735,12.93,78.875z
				 M223.141,72.213c-0.938-2.069-1.953-4.145-3.021-6.163l1.769-0.935c1.086,2.055,2.119,4.165,3.073,6.271L223.141,72.213z
				 M18.57,66.325l-1.771-0.93c1.083-2.063,2.24-4.115,3.439-6.099l1.711,1.035C20.771,62.28,19.635,64.297,18.57,66.325z
				 M216.73,60.078c-1.183-1.944-2.44-3.882-3.742-5.758l1.643-1.142c1.325,1.909,2.605,3.882,3.811,5.859L216.73,60.078z
				 M25.684,54.556l-1.646-1.137c1.318-1.91,2.713-3.807,4.146-5.637l1.574,1.233C28.35,50.814,26.979,52.678,25.684,54.556z
				 M208.902,48.796c-1.412-1.795-2.896-3.566-4.409-5.27l1.493-1.329c1.541,1.73,3.051,3.535,4.488,5.362L208.902,48.796z
				 M34.158,43.732l-1.498-1.325c1.538-1.738,3.15-3.453,4.791-5.097l1.416,1.413C37.254,40.339,35.67,42.023,34.158,43.732z
				 M199.773,38.53c-1.619-1.614-3.306-3.197-5.012-4.707l1.324-1.498c1.736,1.535,3.452,3.146,5.1,4.788L199.773,38.53z
				 M43.866,34.006l-1.328-1.495c1.738-1.544,3.543-3.053,5.364-4.483l1.236,1.572C47.348,31.006,45.574,32.488,43.866,34.006z
				 M189.477,29.427c-1.799-1.407-3.664-2.777-5.541-4.071l1.135-1.646c1.91,1.316,3.808,2.711,5.64,4.145L189.477,29.427z
				 M54.664,25.518l-1.139-1.645c1.91-1.324,3.883-2.604,5.861-3.807l1.037,1.71C58.48,22.958,56.542,24.217,54.664,25.518z
				 M178.156,21.623c-1.961-1.183-3.979-2.317-5.995-3.376l0.928-1.771c2.054,1.075,4.106,2.23,6.101,3.435L178.156,21.623z
				 M66.398,18.392l-0.934-1.771c2.052-1.082,4.162-2.114,6.274-3.069l0.824,1.822C70.488,16.313,68.414,17.328,66.398,18.392z
				 M165.973,15.239c-2.084-0.937-4.227-1.818-6.363-2.626l0.707-1.871c2.175,0.821,4.354,1.721,6.476,2.673L165.973,15.239z
				 M78.897,12.738l-0.713-1.869c2.172-0.828,4.396-1.599,6.608-2.291l0.598,1.909C83.216,11.167,81.031,11.925,78.897,12.738z
				 M153.098,10.379c-2.182-0.674-4.41-1.29-6.627-1.83l0.475-1.942c2.255,0.55,4.522,1.177,6.742,1.861L153.098,10.379z
				 M92.009,8.635l-0.48-1.94c2.249-0.558,4.55-1.052,6.837-1.472l0.361,1.967C96.479,7.603,94.219,8.089,92.009,8.635z
				 M139.748,7.124c-2.243-0.404-4.53-0.745-6.798-1.014l0.235-1.986c2.308,0.273,4.635,0.62,6.918,1.032L139.748,7.124z
				 M105.521,6.153l-0.242-1.985c2.304-0.28,4.646-0.494,6.964-0.636l0.121,1.996C110.086,5.668,107.784,5.878,105.521,6.153z
				 M126.105,5.507c-2.213-0.128-4.463-0.192-6.688-0.192h-0.184v-2h0.184c2.267,0,4.556,0.065,6.804,0.195L126.105,5.507z"/>
		</g>
	</g>
</g>
<g>
	<g>
		<path fill-rule="evenodd" clip-rule="evenodd" fill="#535353" d="M66.255,115.354c-1.105,2.929-3.087,9.015-3.087,9.015
			l-3.643-3.644l2.84-8.212l-3.087-3.21l-5.619,5.557l-3.149-3.025l15.621-15.621l5.186,5.187c0,0,4.416,3.25,4.631,7.225
			c0.119,2.208-0.845,3.746-1.914,4.876c-1.229,1.299-2.893,2.713-5.68,2.47C67.565,115.903,66.938,115.649,66.255,115.354z
			 M62.18,106.34c0,0,2.361,2.361,2.778,2.778c0.896,0.897,1.863,2.191,3.149,2.408c1.62,0.272,3.271-1.29,3.334-2.778
			c0.062-1.478-1.799-2.961-1.799-2.961l-3.449-3.46L62.18,106.34z"/>
		<polygon fill-rule="evenodd" clip-rule="evenodd" fill="#535353" points="166.896,99.609 181.468,114.119 178.751,116.896 
			165.554,103.758 		"/>
		<g>
			<path fill-rule="evenodd" clip-rule="evenodd" fill="#535353" d="M136.95,87.631c-0.373-0.203-1.907,0-2.531,0
				c-2.675,0-5.497,0.049-7.718-0.062c0.016-8.422,0.225-16.981,0.123-25.314c-5.23,4.573-11.147,9.797-16.608,14.51
				c-0.387,0.333-2.25,1.68-2.284,2.161c-0.015,0.194,0.359,0.73,0.494,1.049c1.107,2.625,2.13,5.173,3.149,7.656
				c-3.684,0-7.368,0-11.052,0c5.536,5.739,11.289,11.351,17.103,17.165c0.304,0.304,1.006,1.18,1.173,1.173
				c0.109-0.005,0.831-0.892,1.112-1.173c5.476-5.477,10.584-10.584,16.053-16.054C136.177,88.53,137.132,87.729,136.95,87.631z
				 M118.794,105.215l-17.135-17.129h10.698l-3.686-8.719l17.637-15.562l-0.239,24.227l9.74,0.058L118.794,105.215z"/>
			<path fill-rule="evenodd" clip-rule="evenodd" fill="#535353" d="M125.727,65.075l-16.373,14.446l3.86,9.133h-10.183
				l15.761,15.755l15.659-15.76l-8.956-0.053L125.727,65.075z M122.812,78.308c-0.205,1.351-0.454,2.792-0.617,3.951
				c-0.307,2.188-1.094,6.937-1.999,8.436c-0.944,1.562-2.766,3.06-4.296,3.385c-2.132,0.453-4.332,0.509-5.045,0.195
				c-0.455-0.201-0.842-0.754-1.318-1.149c-1.4-1.165-2.994-2.346-4.137-3.52c2.991,0.076,5.959,0.173,9.014,0.186
				c-1.327-3.263-4.383-10.126-4.383-10.126l14.572-13.02C124.603,66.647,123.4,74.435,122.812,78.308z"/>
		</g>
		<g>
			<path fill-rule="evenodd" clip-rule="evenodd" fill="#535353" d="M102.959,95.796c-1.328-1.319-2.656-2.638-3.98-3.96
				c-1.324,1.32-2.649,2.638-3.976,3.955c-3.8,3.774-7.727,7.675-11.518,11.588c1.314,1.318,2.627,2.64,3.94,3.962
				c3.762,3.787,7.649,7.702,11.551,11.481c2.601-2.562,5.217-5.186,7.75-7.725c2.53-2.538,5.146-5.159,7.745-7.72
				C110.682,103.467,106.757,99.568,102.959,95.796z M98.299,105.228c-0.275,0.316-0.558,0.713-0.802,0.926
				c-2.534,2.207-8.326,1.882-12.288,1.111c-0.115-0.234,0.359-0.623,0.618-0.864c4.394-4.099,8.841-8.79,13.213-12.966
				c0.053-0.012,0.059,0.023,0.062,0.062C100.505,97.315,100.544,102.645,98.299,105.228z"/>
			<path fill-rule="evenodd" clip-rule="evenodd" fill="#535353" d="M98.979,89.669c-5.903,5.891-11.86,11.726-17.66,17.72
				c5.872,5.88,11.685,11.819,17.66,17.596c5.922-5.829,11.736-11.767,17.658-17.596C110.838,101.395,104.88,95.56,98.979,89.669z
				 M107.129,115.5c-2.598,2.603-5.285,5.297-7.951,7.922l-0.198,0.194l-0.2-0.192c-3.972-3.843-7.931-7.829-11.759-11.683
				c-1.377-1.387-2.755-2.775-4.137-4.158l-0.197-0.198l0.194-0.201c3.855-3.985,7.854-7.956,11.72-11.797
				c1.394-1.383,2.786-2.767,4.176-4.154l0.202-0.2l0.2,0.2c1.391,1.39,2.786,2.774,4.181,4.16
				c3.866,3.839,7.862,7.808,11.716,11.792l0.196,0.203l-0.201,0.198C112.408,110.207,109.725,112.898,107.129,115.5z"/>
		</g>
		<g>
			<path fill-rule="evenodd" clip-rule="evenodd" fill="#535353" d="M146.601,99.675c-2.529-2.536-5.142-5.156-7.738-7.714
				c-5.19,5.146-10.42,10.375-15.547,15.545c2.607,2.569,5.229,5.198,7.768,7.743c2.541,2.547,5.166,5.18,7.775,7.75
				c2.254-2.302,4.571-4.606,6.814-6.837c2.867-2.85,5.828-5.795,8.683-8.759C151.752,104.84,149.135,102.216,146.601,99.675z
				 M138.186,105.351c-0.281,0.325-0.608,0.709-0.865,0.927c-2.644,2.236-8.25,1.902-12.286,1.111
				c-0.066-0.263,0.411-0.534,0.679-0.803c4.276-4.274,8.886-8.75,13.215-13.028C140.401,97.352,140.435,102.748,138.186,105.351z"
				/>
			<path fill-rule="evenodd" clip-rule="evenodd" fill="#535353" d="M138.864,89.793c-5.932,5.881-11.838,11.787-17.72,17.72
				c5.943,5.851,11.777,11.809,17.72,17.657c5.841-5.973,11.871-11.755,17.659-17.78C150.602,101.559,144.787,95.622,138.864,89.793
				z M146.074,116.566c-2.309,2.294-4.695,4.668-7.009,7.035l-0.199,0.204l-0.204-0.2c-2.677-2.636-5.373-5.34-7.981-7.955
				c-2.603-2.61-5.295-5.308-7.967-7.938l-0.203-0.2l0.201-0.203c5.259-5.304,10.624-10.671,15.949-15.949l0.199-0.199l0.2,0.197
				c2.664,2.623,5.348,5.312,7.943,7.915c2.598,2.605,5.284,5.298,7.95,7.922l0.199,0.197l-0.194,0.202
				C152.042,110.632,149.008,113.649,146.074,116.566z"/>
		</g>
		<g>
			<path fill-rule="evenodd" clip-rule="evenodd" fill="#535353" d="M119.045,109.426c-5.922,5.83-11.737,11.769-17.659,17.598
				c5.83,5.983,11.737,11.89,17.721,17.719c5.82-5.952,11.83-11.715,17.597-17.719C130.781,121.195,124.968,115.256,119.045,109.426
				z M126.287,136.168c-2.3,2.286-4.679,4.65-6.983,7.008l-0.199,0.204l-0.203-0.197c-5.359-5.221-10.727-10.589-15.954-15.954
				l-0.197-0.202l0.202-0.199c2.663-2.622,5.346-5.311,7.941-7.915c2.598-2.605,5.284-5.298,7.951-7.922l0.199-0.197l0.2,0.198
				c2.665,2.622,5.349,5.313,7.945,7.917c2.597,2.605,5.282,5.296,7.946,7.919l0.201,0.197l-0.194,0.202
				C132.235,130.254,129.212,133.26,126.287,136.168z"/>
			<path fill-rule="evenodd" clip-rule="evenodd" fill="#535353" d="M126.787,119.309c-2.529-2.537-5.145-5.158-7.742-7.718
				c-2.599,2.562-5.216,5.184-7.748,7.724c-2.531,2.537-5.146,5.158-7.744,7.72c5.095,5.226,10.322,10.453,15.542,15.541
				c2.246-2.293,4.555-4.59,6.79-6.812c2.857-2.841,5.811-5.776,8.652-8.729C131.938,124.472,129.32,121.848,126.787,119.309z
				 M119.169,124c-0.428,0.703-1.144,1.51-1.729,1.974c-2.627,2.086-8.182,1.828-12.164,1.051c-0.117-0.248,0.366-0.613,0.618-0.865
				c4.275-4.275,8.972-8.66,13.213-13.027c0.052-0.011,0.058,0.023,0.062,0.062C120.177,116.406,120.844,121.237,119.169,124z"/>
		</g>
		<path fill-rule="evenodd" clip-rule="evenodd" fill="#535353" d="M173.317,122.331c-0.283-0.19-0.457-0.489-0.74-0.679
			c-0.194,3.048-2.99,5.314-6.051,5.001c-2.2-0.226-4.414-2.157-4.447-4.754c-0.035-2.938,2.434-5.124,4.57-6.112
			c-0.361-0.739-1.402-1.39-2.471-0.988c-1.488,0.559-2.467,2.646-2.964,4.137c-1.046-0.208-1.932-0.579-2.963-0.804
			c0.907-3.312,3.141-6.644,6.854-7.1c1.883-0.229,3.166,0.759,4.261,1.853c1.807,1.809,3.68,3.682,5.557,5.557
			c0.26,0.261,1.109,1.058,1.112,1.112c0.006,0.166-1.217,1.277-1.359,1.421C174.106,121.542,173.656,121.901,173.317,122.331z
			 M165.662,121.096c0.021,1.313,1.479,2.177,2.654,1.729c0.771-0.294,2.362-1.896,1.976-3.397c-0.074-0.287-1.041-1.391-1.544-1.48
			c-0.051-0.009-0.062,0.062-0.062,0.062C167.5,118.03,165.643,120.004,165.662,121.096z"/>
		<path fill-rule="evenodd" clip-rule="evenodd" fill="#535353" d="M80.429,118.3c0,0-4.226,4.065-6.333,6.253
			c-0.759,0.789-1.931,1.78-1.667,3.333c0.238,1.403,2.261,2.844,3.89,2.039c1.521-0.752,3.896-3.561,3.896-3.561l4.13-4.097
			l3.155,3.071l-11.737,11.686l-3.114-3.102c0,0,0.557-0.422,0.768-0.726c-2.898-0.139-5.976-2.772-5.619-6.36
			c0.312-3.135,4.137-6.235,4.137-6.235l5.376-5.42L80.429,118.3z"/>
		<path fill-rule="evenodd" clip-rule="evenodd" fill="#535353" d="M156.399,119.366c0.555,1.157,1.443,2.303,1.853,3.398
			c-1.693,0.134-3.135,1.433-3.026,2.84c0.075,0.944,1.714,2.452,1.714,2.452l5.278,5.312l-2.778,2.778l-10.448-10.48l2.716-2.717
			c0,0,0.448,0.457,0.74,0.616C152.644,121.044,153.898,119.583,156.399,119.366z"/>
		<path fill-rule="evenodd" clip-rule="evenodd" fill="#535353" d="M93.483,125.295l4.669,1.527c0,0-4.493,4.397-5.286,5.326
			c3.029,0.32,5.373,2.586,5.125,6.051c-0.181,2.519-1.618,4.335-3.334,6.051c-1.837,1.837-3.834,3.561-6.977,3.335
			c-2.688-0.192-4.708-2.041-5.187-5.063c-0.242,0.201-0.674,0.604-0.674,0.604l-3.092-3.073L93.483,125.295z M87.557,137.335
			c-0.604,0.604-1.566,1.567-2.002,2.156c-0.561,0.758,0.639,3.273,1.878,3.587c0.383,0.095,0.762,0.167,1.235,0.061
			c1.631-0.368,3.763-2.508,4.508-4.137c1.061-2.32-0.612-4.175-3.21-4.015c-0.038,0.005-0.074,0.011-0.062,0.063
			C89.177,135.755,88.471,136.42,87.557,137.335z"/>
		<path fill-rule="evenodd" clip-rule="evenodd" fill="#535353" d="M139.729,126.778l4.074,4.012l2.594-2.47l2.606,2.609
			l-2.544,2.453c0,0,2.605,2.606,3.951,3.952c0.424,0.424,0.932,1.055,1.543,1.05c1.109-0.009,1.702-1.416,1.729-2.841
			c0.842,1.011,1.581,2.123,2.409,3.149c-0.556,2.151-2.295,4.568-5.126,3.828c-1.615-0.423-2.696-1.771-3.89-2.965
			c-1.225-1.224-2.375-2.466-3.396-3.396c-0.271,0.181-1.729,1.729-1.729,1.729l-2.594-2.654l1.729-1.668l-2.675-2.67
			L139.729,126.778z"/>
		<path fill-rule="evenodd" clip-rule="evenodd" fill="#535353" d="M145.472,150.177c-1.333-1.239-5.077-5.142-5.805-5.804
			c-0.607-0.552-1.486-1.357-2.47-1.357c-1.297,0-2.653,1.357-2.47,2.84c0.104,0.84,0.902,1.705,1.482,2.284
			c1.807,1.809,5.619,5.681,5.619,5.681l-2.78,2.655l-10.434-10.436l2.718-2.716c0,0,0.447,0.457,0.74,0.618
			c0.181-2.562,2.354-4.755,4.569-5.003c3.178-0.354,4.937,1.913,6.791,3.767c1.095,1.096,4.753,4.648,4.755,4.693
			C148.194,147.559,145.813,149.744,145.472,150.177z"/>
		<polygon fill-rule="evenodd" clip-rule="evenodd" fill="#535353" points="101.611,139.388 105.008,142.787 99.473,153.635 
			110.317,148.095 113.652,151.43 91.817,161.29 88.791,158.204 94.348,155.734 		"/>
		<path fill-rule="evenodd" clip-rule="evenodd" fill="#535353" d="M132.505,154.376c-2.043,2.136-4.193,4.163-6.236,6.298
			c1.999,1.836,5.326,0.029,5.187-2.716c1.199-0.099,2.376-0.218,3.582-0.31c-0.001,2.574-0.673,3.911-1.79,5.186
			c-1.158,1.322-3.045,2.526-5.559,2.347c-3.783-0.271-7.683-4.225-7.718-8.273c-0.027-3.226,2.104-5.893,5.311-6.174
			C128.909,150.414,130.703,152.681,132.505,154.376z M123.367,156.659c0.034,0.794,0.42,1.289,0.802,1.853
			c1.303-1.105,2.445-2.37,3.644-3.58C126.255,153.366,123.269,154.405,123.367,156.659z"/>
		<path fill-rule="evenodd" clip-rule="evenodd" fill="#535353" d="M115.341,158.081c-0.451,1.258-0.955,2.461-1.359,3.766
			c-3.093-0.802-5.546,1.472-5.372,4.26c0.193,3.069,3.609,6.526,6.545,6.854c3.318,0.371,5.521-2.293,4.569-5.742
			c1.291-0.272,2.468-0.66,3.766-0.927c1.264,3.641-0.252,6.633-2.284,8.521c-1.435,1.333-3.372,2.273-5.434,2.285
			c-5.001,0.026-9.422-4.384-10.681-8.335c-0.912-2.863-0.134-5.791,1.112-7.533C107.814,158.974,111.339,156.491,115.341,158.081z"
			/>
	</g>
	<polygon fill-rule="evenodd" clip-rule="evenodd" fill="#535353" points="178.65,92.658 172.269,99.026 170.989,97.776 
		177.374,91.441 	"/>
	<path fill-rule="evenodd" clip-rule="evenodd" fill="#535353" d="M176.681,103.526c0.57-0.613,2.366-2.336,2.67-2.671
		c0.255-0.279,0.626-0.685,0.626-1.137c0-0.598-0.626-1.221-1.307-1.137c-0.387,0.048-0.785,0.416-1.053,0.682
		c-0.831,0.833-2.614,2.587-2.614,2.587l-1.223-1.279l4.804-4.804l1.251,1.25c0,0-0.211,0.207-0.285,0.341
		c1.18,0.083,2.188,1.084,2.303,2.104c0.164,1.463-0.879,2.273-1.733,3.126c-0.504,0.504-2.141,2.188-2.161,2.189
		C177.885,104.781,176.879,103.684,176.681,103.526z"/>
	<path fill-rule="evenodd" clip-rule="evenodd" fill="#535353" d="M186.896,106.022c-0.565,0-1.054,0-1.707-0.043
		c0.077-0.392,0.207-0.74-0.151-1.371c-0.266-0.508-0.718-0.718-1.131-0.728c-0.61-0.044-1.318,0.415-1.773,1.119
		c-0.454,0.706-0.305,1.49,0.262,1.99c0.389,0.344,1.051,0.375,1.566,0.349c0.044,0.553,0.022,1.01,0.065,1.565
		c-1.197,0.055-2.089-0.042-2.825-0.689c-0.607-0.534-1.163-1.402-1.079-2.558c0.124-1.742,1.979-3.68,3.839-3.548
		c0.996,0.07,1.76,0.5,2.489,1.468C186.937,104.221,187.018,105.163,186.896,106.022z"/>
	<circle fill="#535353" cx="185.391" cy="110.677" r="1.213"/>
</g>
</svg>
