<?xml version="1.0" encoding="utf-8"?>
<!-- Generator: Adobe Illustrator 16.0.0, SVG Export Plug-In . SVG Version: 6.00 Build 0)  -->
<!DOCTYPE svg PUBLIC "-//W3C//DTD SVG 1.1//EN" "http://www.w3.org/Graphics/SVG/1.1/DTD/svg11.dtd">
<svg version="1.1" id="Capa_1" xmlns="http://www.w3.org/2000/svg" xmlns:xlink="http://www.w3.org/1999/xlink" x="0px" y="0px"
	 width="238px" height="240.361px" viewBox="0 0 238 240.361" enable-background="new 0 0 238 240.361" xml:space="preserve">
<g>
	<g opacity="0.1">
		<circle cx="119.417" cy="119.122" r="108.659"/>
	</g>
	<g opacity="0.2">
		<g>
			<path d="M119.479,234.931h-0.062c-2.299,0-4.629-0.068-6.927-0.204l0.117-1.996c2.259,0.133,4.55,0.2,6.81,0.2L119.479,234.931z
				 M126.47,234.719l-0.121-1.996c2.286-0.138,4.589-0.346,6.845-0.618l0.24,1.986C131.138,234.367,128.795,234.579,126.47,234.719z
				 M105.525,234.106c-2.313-0.276-4.641-0.626-6.916-1.04l0.357-1.967c2.235,0.405,4.521,0.749,6.795,1.021L105.525,234.106z
				 M140.348,233.045l-0.359-1.967c2.252-0.412,4.514-0.896,6.72-1.439l0.479,1.941C144.94,232.133,142.64,232.626,140.348,233.045z
				 M91.77,231.609c-2.26-0.554-4.528-1.183-6.741-1.87l0.594-1.91c2.174,0.676,4.402,1.294,6.622,1.837L91.77,231.609z
				 M153.924,229.703l-0.596-1.908c2.189-0.685,4.375-1.439,6.496-2.245l0.711,1.869
				C158.376,228.239,156.152,229.008,153.924,229.703z M78.403,227.459c-2.181-0.826-4.358-1.729-6.473-2.68l0.821-1.824
				c2.077,0.936,4.217,1.821,6.36,2.633L78.403,227.459z M166.983,224.742l-0.822-1.822c2.082-0.94,4.158-1.954,6.168-3.011
				l0.932,1.77C171.215,222.755,169.103,223.785,166.983,224.742z M65.637,221.712c-2.062-1.082-4.112-2.24-6.098-3.441l1.035-1.711
				c1.951,1.18,3.967,2.318,5.992,3.383L65.637,221.712z M179.344,218.241l-1.037-1.711c1.95-1.182,3.89-2.438,5.764-3.734
				l1.139,1.645C183.302,215.76,181.328,217.038,179.344,218.241z M53.663,214.466c-1.913-1.322-3.81-2.718-5.636-4.149l1.234-1.574
				c1.795,1.406,3.658,2.779,5.538,4.079L53.663,214.466z M190.835,210.295l-1.234-1.574c1.801-1.412,3.576-2.894,5.277-4.401
				l1.326,1.496C194.474,207.351,192.667,208.857,190.835,210.295z M42.656,205.838c-1.737-1.539-3.451-3.151-5.095-4.792
				l1.414-1.416c1.614,1.613,3.3,3.198,5.007,4.712L42.656,205.838z M201.296,201.021l-1.414-1.414
				c1.616-1.616,3.202-3.301,4.714-5.005l1.496,1.326C204.555,197.663,202.94,199.377,201.296,201.021z M32.765,195.956
				c-1.537-1.732-3.046-3.539-4.481-5.368l1.572-1.234c1.412,1.797,2.894,3.572,4.405,5.274L32.765,195.956z M210.574,190.56
				L209,189.325c1.41-1.797,2.783-3.659,4.082-5.537l1.645,1.139C213.405,186.837,212.008,188.732,210.574,190.56z M24.133,184.964
				c-1.321-1.908-2.602-3.881-3.804-5.863l1.711-1.037c1.181,1.947,2.438,3.886,3.737,5.762L24.133,184.964z M218.533,179.053
				l-1.711-1.037c1.187-1.957,2.325-3.972,3.387-5.989l1.77,0.932C220.899,175.011,219.74,177.061,218.533,179.053z M16.889,173.02
				c-1.078-2.047-2.109-4.157-3.066-6.274l1.822-0.824c0.94,2.081,1.954,4.155,3.014,6.167L16.889,173.02z M225.048,166.663
				l-1.824-0.822c0.941-2.087,1.829-4.227,2.638-6.357l1.869,0.709C226.908,162.361,226.005,164.539,225.048,166.663z
				 M11.142,160.297c-0.827-2.173-1.597-4.396-2.287-6.609l1.908-0.596c0.68,2.173,1.436,4.358,2.248,6.494L11.142,160.297z
				 M230.016,153.569l-1.91-0.594c0.679-2.183,1.298-4.41,1.842-6.622l1.941,0.477C231.336,149.081,230.706,151.349,230.016,153.569
				z M6.975,146.951c-0.555-2.247-1.048-4.548-1.468-6.837l1.967-0.361c0.413,2.25,0.898,4.511,1.442,6.72L6.975,146.951z
				 M233.35,139.989l-1.967-0.357c0.407-2.245,0.753-4.531,1.024-6.795l1.986,0.238C234.116,135.379,233.766,137.705,233.35,139.989
				z M4.456,133.2c-0.279-2.311-0.492-4.654-0.631-6.963l1.996-0.121c0.137,2.27,0.346,4.572,0.621,6.844L4.456,133.2z
				 M235.018,126.11l-1.996-0.119c0.136-2.272,0.204-4.584,0.204-6.869l-0.001-0.243h2l0.001,0.231
				C235.226,121.447,235.155,123.799,235.018,126.11z M5.608,119.244h-2v-0.122c0-2.289,0.067-4.599,0.2-6.865l1.996,0.117
				c-0.13,2.228-0.196,4.498-0.196,6.748V119.244z M233.007,112.01c-0.141-2.28-0.352-4.583-0.628-6.845l1.984-0.242
				c0.282,2.301,0.497,4.644,0.64,6.964L233.007,112.01z M6.412,105.528l-1.986-0.236c0.275-2.312,0.624-4.64,1.036-6.917
				l1.969,0.357C7.024,100.969,6.683,103.256,6.412,105.528z M231.34,98.373c-0.414-2.246-0.902-4.506-1.45-6.718l1.941-0.481
				c0.558,2.251,1.055,4.551,1.476,6.836L231.34,98.373z M8.858,92.009l-1.943-0.475c0.552-2.257,1.18-4.524,1.866-6.74l1.91,0.592
				C10.017,87.563,9.4,89.791,8.858,92.009z M228.035,85.038c-0.686-2.184-1.444-4.367-2.256-6.491l1.869-0.714
				c0.825,2.162,1.598,4.385,2.295,6.606L228.035,85.038z M12.93,78.875l-1.871-0.708c0.823-2.177,1.724-4.355,2.676-6.474
				l1.824,0.819C14.623,74.595,13.738,76.735,12.93,78.875z M223.14,72.213c-0.938-2.07-1.953-4.145-3.02-6.163l1.768-0.935
				c1.086,2.055,2.12,4.165,3.074,6.272L223.14,72.213z M18.57,66.325l-1.771-0.93c1.083-2.063,2.24-4.115,3.439-6.098l1.711,1.035
				C20.771,62.28,19.635,64.297,18.57,66.325z M216.731,60.078c-1.183-1.944-2.441-3.882-3.743-5.758l1.643-1.141
				c1.325,1.909,2.606,3.881,3.81,5.859L216.731,60.078z M25.684,54.556l-1.646-1.136c1.318-1.91,2.713-3.807,4.146-5.637
				l1.574,1.233C28.35,50.814,26.979,52.679,25.684,54.556z M208.902,48.796c-1.412-1.795-2.896-3.567-4.409-5.27l1.494-1.329
				c1.54,1.731,3.05,3.535,4.487,5.362L208.902,48.796z M34.158,43.732l-1.498-1.325c1.538-1.738,3.15-3.453,4.791-5.097
				l1.416,1.413C37.254,40.339,35.67,42.023,34.158,43.732z M199.774,38.53c-1.619-1.614-3.306-3.197-5.012-4.707l1.324-1.498
				c1.736,1.535,3.452,3.146,5.1,4.788L199.774,38.53z M43.866,34.006l-1.328-1.495c1.738-1.544,3.543-3.053,5.364-4.484
				l1.236,1.572C47.348,31.006,45.574,32.488,43.866,34.006z M189.477,29.427c-1.8-1.408-3.664-2.778-5.542-4.072l1.135-1.646
				c1.911,1.316,3.808,2.711,5.64,4.144L189.477,29.427z M54.664,25.518l-1.139-1.644c1.91-1.324,3.883-2.604,5.861-3.807
				l1.037,1.71C58.48,22.958,56.542,24.217,54.664,25.518z M178.156,21.623c-1.96-1.183-3.978-2.318-5.995-3.376l0.928-1.771
				c2.054,1.076,4.106,2.231,6.101,3.435L178.156,21.623z M66.398,18.392l-0.934-1.77c2.052-1.082,4.162-2.114,6.274-3.069
				l0.824,1.822C70.488,16.313,68.414,17.328,66.398,18.392z M165.973,15.239c-2.085-0.936-4.227-1.818-6.364-2.626l0.707-1.871
				c2.175,0.821,4.354,1.721,6.476,2.673L165.973,15.239z M78.897,12.738l-0.713-1.869c2.172-0.828,4.396-1.599,6.608-2.291
				l0.598,1.909C83.216,11.167,81.031,11.925,78.897,12.738z M153.097,10.379c-2.181-0.674-4.41-1.29-6.626-1.83l0.475-1.943
				c2.254,0.55,4.522,1.177,6.741,1.862L153.097,10.379z M92.009,8.636l-0.48-1.941c2.249-0.557,4.55-1.052,6.837-1.472l0.361,1.967
				C96.479,7.603,94.219,8.089,92.009,8.636z M139.748,7.124c-2.243-0.404-4.53-0.745-6.798-1.014l0.235-1.986
				c2.308,0.273,4.635,0.62,6.918,1.032L139.748,7.124z M105.521,6.153l-0.242-1.985c2.304-0.28,4.646-0.494,6.964-0.636
				l0.121,1.996C110.086,5.668,107.784,5.878,105.521,6.153z M126.105,5.507c-2.212-0.128-4.462-0.193-6.688-0.193h-0.184v-2h0.184
				c2.266,0,4.555,0.066,6.804,0.196L126.105,5.507z"/>
		</g>
	</g>
</g>
</svg>
