<?xml version="1.0" encoding="utf-8"?>
<!-- Generator: Adobe Illustrator 16.0.0, SVG Export Plug-In . SVG Version: 6.00 Build 0)  -->
<!DOCTYPE svg PUBLIC "-//W3C//DTD SVG 1.1//EN" "http://www.w3.org/Graphics/SVG/1.1/DTD/svg11.dtd">
<svg version="1.1" id="Capa_1" xmlns="http://www.w3.org/2000/svg" xmlns:xlink="http://www.w3.org/1999/xlink" x="0px" y="0px"
	 width="238px" height="240.361px" viewBox="0 0 238 240.361" enable-background="new 0 0 238 240.361" xml:space="preserve">
<g>
	<g opacity="0.1">
		<circle cx="119.417" cy="119.122" r="108.659"/>
	</g>
	<g opacity="0.2">
		<g>
			<path d="M119.479,234.931h-0.062c-2.299,0-4.629-0.068-6.927-0.204l0.117-1.996c2.259,0.133,4.55,0.2,6.81,0.2L119.479,234.931z
				 M126.471,234.719l-0.121-1.995c2.285-0.139,4.588-0.347,6.844-0.618l0.24,1.985
				C131.139,234.367,128.795,234.579,126.471,234.719z M105.525,234.106c-2.313-0.276-4.641-0.626-6.916-1.04l0.357-1.967
				c2.235,0.404,4.521,0.749,6.795,1.021L105.525,234.106z M140.348,233.045l-0.359-1.967c2.253-0.412,4.515-0.896,6.721-1.438
				l0.479,1.94C144.939,232.133,142.641,232.626,140.348,233.045z M91.77,231.609c-2.26-0.555-4.528-1.184-6.741-1.87l0.594-1.91
				c2.174,0.676,4.402,1.294,6.622,1.837L91.77,231.609z M153.924,229.703l-0.596-1.908c2.189-0.685,4.375-1.438,6.496-2.245
				l0.711,1.869C158.376,228.239,156.152,229.008,153.924,229.703z M78.403,227.459c-2.181-0.826-4.358-1.729-6.473-2.68
				l0.821-1.824c2.077,0.937,4.217,1.821,6.36,2.633L78.403,227.459z M166.982,224.742l-0.821-1.822
				c2.082-0.939,4.157-1.954,6.168-3.011l0.933,1.77C171.215,222.755,169.104,223.785,166.982,224.742z M65.637,221.712
				c-2.062-1.082-4.112-2.239-6.098-3.44l1.035-1.711c1.951,1.18,3.967,2.317,5.992,3.383L65.637,221.712z M179.344,218.241
				l-1.037-1.711c1.95-1.182,3.891-2.438,5.764-3.734l1.14,1.646C183.303,215.76,181.328,217.038,179.344,218.241z M53.663,214.466
				c-1.913-1.321-3.81-2.718-5.636-4.148l1.234-1.574c1.795,1.406,3.658,2.779,5.538,4.079L53.663,214.466z M190.835,210.295
				l-1.233-1.574c1.801-1.411,3.576-2.894,5.276-4.4l1.326,1.496C194.475,207.351,192.667,208.857,190.835,210.295z M42.656,205.838
				c-1.737-1.539-3.451-3.15-5.095-4.792l1.414-1.416c1.614,1.613,3.3,3.198,5.007,4.712L42.656,205.838z M201.296,201.021
				l-1.414-1.414c1.616-1.616,3.202-3.301,4.714-5.005l1.496,1.325C204.555,197.663,202.939,199.377,201.296,201.021z
				 M32.765,195.956c-1.537-1.731-3.046-3.539-4.481-5.368l1.572-1.233c1.412,1.797,2.894,3.571,4.405,5.273L32.765,195.956z
				 M210.574,190.56L209,189.325c1.41-1.797,2.783-3.659,4.082-5.537l1.645,1.139C213.404,186.837,212.008,188.732,210.574,190.56z
				 M24.133,184.964c-1.321-1.907-2.602-3.881-3.804-5.862l1.711-1.037c1.181,1.946,2.438,3.886,3.737,5.762L24.133,184.964z
				 M218.533,179.052l-1.711-1.036c1.187-1.957,2.324-3.973,3.387-5.989l1.77,0.932C220.898,175.01,219.74,177.061,218.533,179.052z
				 M16.889,173.02c-1.078-2.047-2.109-4.157-3.066-6.274l1.822-0.824c0.94,2.081,1.954,4.155,3.014,6.167L16.889,173.02z
				 M225.048,166.663l-1.823-0.822c0.94-2.087,1.828-4.227,2.637-6.356l1.869,0.709
				C226.908,162.361,226.005,164.539,225.048,166.663z M11.142,160.297c-0.827-2.173-1.597-4.396-2.287-6.608l1.908-0.597
				c0.68,2.174,1.436,4.358,2.248,6.494L11.142,160.297z M230.016,153.569l-1.91-0.594c0.68-2.184,1.299-4.41,1.842-6.622
				l1.941,0.477C231.336,149.081,230.706,151.349,230.016,153.569z M6.975,146.951c-0.555-2.247-1.048-4.548-1.468-6.837
				l1.967-0.361c0.413,2.25,0.898,4.512,1.442,6.721L6.975,146.951z M233.35,139.989l-1.967-0.357
				c0.407-2.245,0.754-4.53,1.024-6.795l1.985,0.238C234.116,135.379,233.766,137.705,233.35,139.989z M4.456,133.2
				c-0.279-2.311-0.492-4.654-0.631-6.963l1.996-0.121c0.137,2.27,0.346,4.572,0.621,6.844L4.456,133.2z M235.018,126.11
				l-1.996-0.119c0.137-2.272,0.205-4.584,0.205-6.869l-0.002-0.243h2l0.002,0.231C235.227,121.447,235.154,123.799,235.018,126.11z
				 M5.608,119.244h-2v-0.122c0-2.289,0.067-4.599,0.2-6.865l1.996,0.117c-0.13,2.229-0.196,4.498-0.196,6.748V119.244z
				 M233.007,112.01c-0.141-2.279-0.353-4.583-0.628-6.845l1.984-0.242c0.281,2.302,0.496,4.645,0.64,6.964L233.007,112.01z
				 M6.412,105.528l-1.986-0.236c0.275-2.312,0.624-4.64,1.036-6.917l1.969,0.357C7.024,100.969,6.683,103.256,6.412,105.528z
				 M231.34,98.373c-0.414-2.246-0.902-4.506-1.449-6.718l1.94-0.481c0.558,2.251,1.056,4.552,1.476,6.836L231.34,98.373z
				 M8.858,92.009l-1.943-0.475c0.552-2.257,1.18-4.524,1.866-6.74l1.91,0.592C10.017,87.563,9.4,89.791,8.858,92.009z
				 M228.035,85.038c-0.686-2.184-1.444-4.367-2.256-6.491l1.869-0.714c0.824,2.162,1.598,4.385,2.295,6.606L228.035,85.038z
				 M12.93,78.875l-1.871-0.708c0.823-2.177,1.724-4.354,2.676-6.474l1.824,0.818C14.623,74.594,13.738,76.735,12.93,78.875z
				 M223.141,72.213c-0.938-2.069-1.953-4.145-3.021-6.163l1.769-0.935c1.086,2.055,2.119,4.165,3.073,6.271L223.141,72.213z
				 M18.57,66.325l-1.771-0.93c1.083-2.063,2.24-4.115,3.439-6.099l1.711,1.035C20.771,62.28,19.635,64.297,18.57,66.325z
				 M216.73,60.078c-1.183-1.944-2.44-3.882-3.742-5.758l1.643-1.142c1.325,1.909,2.605,3.882,3.811,5.859L216.73,60.078z
				 M25.684,54.556l-1.646-1.137c1.318-1.91,2.713-3.807,4.146-5.637l1.574,1.233C28.35,50.814,26.979,52.678,25.684,54.556z
				 M208.902,48.796c-1.412-1.795-2.896-3.566-4.409-5.27l1.493-1.329c1.541,1.73,3.051,3.535,4.488,5.362L208.902,48.796z
				 M34.158,43.732l-1.498-1.325c1.538-1.738,3.15-3.453,4.791-5.097l1.416,1.413C37.254,40.339,35.67,42.023,34.158,43.732z
				 M199.773,38.53c-1.619-1.614-3.306-3.197-5.012-4.707l1.324-1.498c1.736,1.535,3.452,3.146,5.1,4.788L199.773,38.53z
				 M43.866,34.006l-1.328-1.495c1.738-1.544,3.543-3.053,5.364-4.483l1.236,1.572C47.348,31.006,45.574,32.488,43.866,34.006z
				 M189.477,29.427c-1.799-1.407-3.664-2.777-5.541-4.071l1.135-1.646c1.91,1.316,3.808,2.711,5.64,4.145L189.477,29.427z
				 M54.664,25.518l-1.139-1.645c1.91-1.324,3.883-2.604,5.861-3.807l1.037,1.71C58.48,22.958,56.542,24.217,54.664,25.518z
				 M178.156,21.623c-1.961-1.183-3.979-2.317-5.995-3.376l0.928-1.771c2.054,1.075,4.106,2.23,6.101,3.435L178.156,21.623z
				 M66.398,18.392l-0.934-1.771c2.052-1.082,4.162-2.114,6.274-3.069l0.824,1.822C70.488,16.313,68.414,17.328,66.398,18.392z
				 M165.973,15.239c-2.084-0.937-4.227-1.818-6.363-2.626l0.707-1.871c2.175,0.821,4.354,1.721,6.476,2.673L165.973,15.239z
				 M78.897,12.738l-0.713-1.869c2.172-0.828,4.396-1.599,6.608-2.291l0.598,1.909C83.216,11.167,81.031,11.925,78.897,12.738z
				 M153.098,10.379c-2.182-0.674-4.41-1.29-6.627-1.83l0.475-1.942c2.255,0.55,4.522,1.177,6.742,1.861L153.098,10.379z
				 M92.009,8.635l-0.48-1.94c2.249-0.558,4.55-1.052,6.837-1.472l0.361,1.967C96.479,7.603,94.219,8.089,92.009,8.635z
				 M139.748,7.124c-2.243-0.404-4.53-0.745-6.798-1.014l0.235-1.986c2.308,0.273,4.635,0.62,6.918,1.032L139.748,7.124z
				 M105.521,6.153l-0.242-1.985c2.304-0.28,4.646-0.494,6.964-0.636l0.121,1.996C110.086,5.668,107.784,5.878,105.521,6.153z
				 M126.105,5.507c-2.213-0.128-4.463-0.192-6.688-0.192h-0.184v-2h0.184c2.267,0,4.556,0.065,6.804,0.195L126.105,5.507z"/>
		</g>
	</g>
</g>
<g>
	<polygon opacity="0.6" fill="#535353" points="116.921,79.966 99.961,70.024 117.17,60.339 133.519,70.152 	"/>
	<polygon fill="#535353" points="150.456,99.189 150.429,79.966 166.672,89.484 	"/>
	<polygon fill="#535353" points="133.812,128.518 133.912,147.933 117.107,138.314 	"/>
	<polygon opacity="0.1" fill="#535353" points="100.238,108.913 100.402,89.615 116.886,99.453 116.804,118.885 	"/>
	<polygon opacity="0.6" fill="#535353" points="83.787,99.189 83.787,79.577 100.428,89.615 100.46,108.913 	"/>
	<polygon opacity="0.6" fill="#535353" points="100.46,128.661 100.46,108.913 117.026,118.885 117.107,138.314 	"/>
	<polygon opacity="0.1" fill="#535353" points="67.298,147.933 66.912,128.572 83.781,138.029 83.787,157.577 	"/>
	<polygon opacity="0.6" fill="#535353" points="100.452,147.849 83.787,157.594 83.781,138.029 100.46,128.661 	"/>
	<polygon opacity="0.3" fill="#535353" points="150.456,118.713 133.812,128.518 133.812,109.045 150.456,99.189 	"/>
	<polygon fill="#535353" points="150.456,118.713 133.812,128.518 133.812,109.045 	"/>
	<polygon fill="#535353" points="100.402,89.615 83.787,79.577 99.961,70.024 116.921,79.966 	"/>
	<polygon fill="#535353" points="133.563,89.867 116.921,79.966 133.519,70.152 150.207,79.966 	"/>
	<polygon fill="#535353" points="83.817,118.663 83.787,99.189 100.46,108.913 100.46,128.661 	"/>
	<polygon fill="#535353" points="133.812,109.045 116.804,118.885 116.886,99.453 133.563,89.867 	"/>
	<polygon opacity="0.6" fill="#535353" points="150.429,138.088 133.912,147.933 133.812,128.518 150.456,118.713 	"/>
	<polygon opacity="0.6" fill="#535353" points="167.14,108.758 150.456,118.713 150.456,99.195 166.672,89.484 	"/>
	<g opacity="0.2">
		<polygon fill="#535353" points="116.911,99.453 100.428,89.615 116.947,79.966 133.59,89.867 		"/>
		<polygon fill="#535353" points="83.781,138.029 66.912,128.572 83.817,118.663 100.46,128.661 		"/>
		<polygon fill="#535353" points="133.812,128.518 117.107,138.314 117.026,118.885 133.812,109.045 		"/>
		<polygon fill="#535353" points="150.456,99.189 133.812,109.045 133.563,89.867 150.429,79.966 		"/>
		<polygon fill="#535353" points="167.14,128.277 150.429,138.088 150.456,118.713 167.14,108.758 		"/>
	</g>
	<g>
		<path fill="#535353" d="M72.842,170.31c-0.055-0.419-0.196-0.798-0.424-1.135c-0.331-0.454-0.845-0.681-1.541-0.681
			c-0.994,0-1.673,0.492-2.039,1.476c-0.193,0.521-0.29,1.215-0.29,2.079c0,0.824,0.097,1.486,0.29,1.987
			c0.352,0.936,1.014,1.403,1.986,1.403c0.69,0,1.18-0.187,1.469-0.557c0.29-0.372,0.466-0.854,0.527-1.445h3.003
			c-0.068,0.895-0.392,1.741-0.971,2.539c-0.923,1.286-2.29,1.93-4.102,1.93c-1.811,0-3.144-0.537-3.998-1.61
			s-1.281-2.465-1.281-4.175c0-1.929,0.472-3.432,1.416-4.505c0.943-1.073,2.245-1.609,3.905-1.609c1.412,0,2.567,0.316,3.466,0.949
			s1.431,1.751,1.596,3.354H72.842z"/>
		<path fill="#535353" d="M87.25,176.149c-0.949,1.171-2.391,1.758-4.324,1.758c-1.934,0-3.375-0.587-4.324-1.758
			c-0.95-1.173-1.424-2.583-1.424-4.233c0-1.622,0.474-3.028,1.424-4.218c0.949-1.189,2.39-1.784,4.324-1.784
			c1.933,0,3.375,0.595,4.324,1.784s1.424,2.596,1.424,4.218C88.674,173.566,88.199,174.976,87.25,176.149z M84.897,174.523
			c0.46-0.611,0.691-1.48,0.691-2.607s-0.231-1.994-0.691-2.602c-0.461-0.608-1.122-0.912-1.981-0.912
			c-0.86,0-1.522,0.304-1.987,0.912c-0.464,0.607-0.697,1.475-0.697,2.602s0.233,1.996,0.697,2.607s1.126,0.917,1.987,0.917
			C83.775,175.44,84.436,175.135,84.897,174.523z"/>
		<path fill="#535353" d="M99.851,166.921c0.737,0.609,1.104,1.619,1.104,3.028v7.576h-3.013v-6.843
			c0-0.592-0.079-1.045-0.236-1.362c-0.287-0.578-0.833-0.866-1.639-0.866c-0.99,0-1.67,0.423-2.039,1.269
			c-0.191,0.447-0.287,1.019-0.287,1.714v6.089H90.8v-11.229h2.849v1.642c0.376-0.577,0.733-0.994,1.069-1.249
			c0.603-0.454,1.367-0.681,2.292-0.681C98.167,166.008,99.114,166.312,99.851,166.921z"/>
		<path fill="#535353" d="M111.021,166.504c0.784,0.352,1.433,0.906,1.944,1.664c0.461,0.668,0.76,1.443,0.896,2.325
			c0.079,0.518,0.111,1.262,0.097,2.232h-8.193c0.046,1.13,0.438,1.92,1.176,2.375c0.45,0.281,0.99,0.422,1.622,0.422
			c0.67,0,1.214-0.172,1.633-0.516c0.229-0.185,0.431-0.443,0.606-0.773h3.002c-0.079,0.667-0.442,1.345-1.09,2.032
			c-1.008,1.095-2.418,1.642-4.232,1.642c-1.498,0-2.818-0.461-3.962-1.384c-1.145-0.923-1.717-2.425-1.717-4.505
			c0-1.947,0.517-3.442,1.549-4.482c1.033-1.04,2.375-1.559,4.023-1.559C109.355,165.977,110.237,166.152,111.021,166.504z
			 M106.621,169.045c-0.416,0.429-0.677,1.008-0.784,1.741h5.067c-0.054-0.781-0.314-1.373-0.783-1.778
			c-0.469-0.403-1.051-0.605-1.745-0.605C107.622,168.402,107.037,168.616,106.621,169.045z"/>
		<path fill="#535353" d="M122.175,170.31c-0.055-0.419-0.196-0.798-0.424-1.135c-0.331-0.454-0.845-0.681-1.542-0.681
			c-0.993,0-1.673,0.492-2.037,1.476c-0.193,0.521-0.29,1.215-0.29,2.079c0,0.824,0.096,1.486,0.29,1.987
			c0.351,0.936,1.013,1.403,1.985,1.403c0.69,0,1.181-0.187,1.47-0.557c0.289-0.372,0.465-0.854,0.527-1.445h3.004
			c-0.07,0.895-0.394,1.741-0.972,2.539c-0.923,1.286-2.29,1.93-4.102,1.93c-1.811,0-3.145-0.537-3.998-1.61
			s-1.281-2.465-1.281-4.175c0-1.929,0.472-3.432,1.416-4.505c0.944-1.073,2.246-1.609,3.905-1.609c1.412,0,2.567,0.316,3.466,0.949
			s1.432,1.751,1.597,3.354H122.175z"/>
		<path fill="#535353" d="M126.045,168.473v-2.095h1.569v-3.137h2.91v3.137h1.826v2.095h-1.826v5.945
			c0,0.461,0.059,0.749,0.175,0.862c0.117,0.113,0.476,0.17,1.074,0.17c0.089,0,0.184-0.002,0.284-0.005
			c0.1-0.004,0.197-0.009,0.293-0.016v2.197l-1.393,0.052c-1.391,0.049-2.34-0.192-2.849-0.722
			c-0.329-0.338-0.495-0.857-0.495-1.559v-6.926H126.045z"/>
		<path fill="#535353" d="M137.264,164.934h-2.982v-2.715h2.982V164.934z M134.281,166.275h2.982v11.25h-2.982V166.275z"/>
		<path opacity="0.2" fill="#535353" d="M138.85,174.44h3.127v3.085h-3.127V174.44z"/>
		<g opacity="0.5">
			<path fill="#535353" d="M151.359,170.134c-0.058-0.429-0.202-0.816-0.436-1.162c-0.338-0.464-0.864-0.696-1.576-0.696
				c-1.017,0-1.712,0.503-2.086,1.51c-0.197,0.533-0.296,1.243-0.296,2.128c0,0.844,0.099,1.521,0.296,2.034
				c0.359,0.957,1.037,1.436,2.032,1.436c0.706,0,1.207-0.19,1.504-0.57c0.296-0.381,0.477-0.874,0.54-1.479h3.073
				c-0.07,0.916-0.401,1.783-0.993,2.599c-0.945,1.317-2.344,1.976-4.198,1.976c-1.854,0-3.217-0.549-4.091-1.647
				c-0.874-1.098-1.312-2.522-1.312-4.272c0-1.976,0.483-3.512,1.449-4.61c0.965-1.099,2.297-1.647,3.996-1.647
				c1.444,0,2.627,0.324,3.547,0.972c0.92,0.648,1.463,1.792,1.634,3.433H151.359z"/>
			<path fill="#535353" d="M161.062,170.514c0.56-0.071,0.96-0.158,1.202-0.265c0.433-0.184,0.649-0.469,0.649-0.855
				c0-0.471-0.166-0.797-0.498-0.978c-0.333-0.18-0.819-0.269-1.462-0.269c-0.721,0-1.231,0.176-1.531,0.528
				c-0.214,0.26-0.357,0.611-0.428,1.056h-2.904c0.063-1.007,0.346-1.834,0.849-2.481c0.799-1.015,2.17-1.521,4.115-1.521
				c1.266,0,2.39,0.25,3.373,0.75c0.982,0.5,1.475,1.443,1.475,2.831v5.28c0,0.366,0.007,0.81,0.021,1.331
				c0.021,0.395,0.08,0.661,0.18,0.802c0.099,0.142,0.246,0.258,0.442,0.35v0.443h-3.273c-0.091-0.232-0.155-0.45-0.19-0.655
				c-0.035-0.204-0.062-0.437-0.085-0.696c-0.417,0.45-0.898,0.834-1.443,1.15c-0.652,0.373-1.39,0.56-2.211,0.56
				c-1.048,0-1.913-0.297-2.597-0.892c-0.684-0.596-1.025-1.438-1.025-2.529c0-1.416,0.55-2.44,1.649-3.073
				c0.603-0.346,1.489-0.592,2.66-0.74L161.062,170.514z M162.902,171.918c-0.192,0.121-0.387,0.217-0.583,0.291
				c-0.197,0.074-0.466,0.143-0.809,0.205l-0.686,0.128c-0.642,0.112-1.104,0.249-1.384,0.412c-0.474,0.274-0.711,0.7-0.711,1.278
				c0,0.513,0.146,0.885,0.435,1.113c0.289,0.229,0.642,0.343,1.057,0.343c0.657,0,1.264-0.189,1.818-0.569
				c0.554-0.38,0.841-1.074,0.862-2.081V171.918z"/>
		</g>
	</g>
</g>
</svg>
