<?xml version="1.0" encoding="utf-8"?>
<!-- Generator: Adobe Illustrator 16.0.0, SVG Export Plug-In . SVG Version: 6.00 Build 0)  -->
<!DOCTYPE svg PUBLIC "-//W3C//DTD SVG 1.1//EN" "http://www.w3.org/Graphics/SVG/1.1/DTD/svg11.dtd">
<svg version="1.1" id="Capa_1" xmlns="http://www.w3.org/2000/svg" xmlns:xlink="http://www.w3.org/1999/xlink" x="0px" y="0px"
	 width="238px" height="240.361px" viewBox="0 0 238 240.361" enable-background="new 0 0 238 240.361" xml:space="preserve">
<g>
	<g opacity="0.1">
		<circle cx="119.417" cy="119.121" r="108.659"/>
	</g>
	<g opacity="0.2">
		<g>
			<path d="M119.479,234.93h-0.062c-2.299,0-4.629-0.068-6.927-0.204l0.117-1.996c2.259,0.133,4.55,0.2,6.81,0.2L119.479,234.93z
				 M126.471,234.718l-0.121-1.994c2.285-0.14,4.588-0.348,6.844-0.618l0.24,1.984C131.139,234.366,128.795,234.578,126.471,234.718
				z M105.525,234.105c-2.313-0.276-4.641-0.626-6.916-1.04l0.357-1.967c2.235,0.403,4.521,0.749,6.795,1.021L105.525,234.105z
				 M140.348,233.044l-0.358-1.967c2.253-0.412,4.515-0.896,6.721-1.438l0.479,1.939
				C144.939,232.132,142.641,232.625,140.348,233.044z M91.77,231.608c-2.26-0.555-4.528-1.185-6.741-1.87l0.594-1.91
				c2.174,0.676,4.402,1.294,6.622,1.837L91.77,231.608z M153.924,229.702l-0.596-1.908c2.189-0.685,4.375-1.438,6.496-2.245
				l0.711,1.869C158.376,228.238,156.152,229.007,153.924,229.702z M78.403,227.458c-2.181-0.826-4.358-1.729-6.473-2.68
				l0.821-1.824c2.077,0.938,4.217,1.821,6.36,2.633L78.403,227.458z M166.982,224.741l-0.821-1.822
				c2.082-0.938,4.157-1.954,6.168-3.011l0.933,1.771C171.215,222.754,169.104,223.784,166.982,224.741z M65.637,221.711
				c-2.062-1.082-4.112-2.238-6.098-3.439l1.035-1.711c1.951,1.18,3.967,2.316,5.992,3.383L65.637,221.711z M179.344,218.24
				l-1.037-1.711c1.95-1.182,3.892-2.438,5.764-3.734l1.141,1.646C183.303,215.759,181.328,217.037,179.344,218.24z M53.663,214.465
				c-1.913-1.32-3.81-2.718-5.636-4.147l1.234-1.574c1.795,1.406,3.658,2.779,5.538,4.079L53.663,214.465z M190.835,210.294
				l-1.233-1.573c1.801-1.411,3.576-2.895,5.276-4.4l1.326,1.496C194.475,207.35,192.667,208.856,190.835,210.294z M42.656,205.837
				c-1.737-1.539-3.451-3.149-5.095-4.792l1.414-1.416c1.614,1.613,3.3,3.198,5.007,4.712L42.656,205.837z M201.296,201.02
				l-1.414-1.414c1.616-1.616,3.202-3.301,4.714-5.005l1.496,1.324C204.555,197.662,202.939,199.376,201.296,201.02z
				 M32.765,195.955c-1.537-1.73-3.046-3.539-4.481-5.368l1.572-1.232c1.412,1.797,2.894,3.57,4.405,5.272L32.765,195.955z
				 M210.574,190.559L209,189.324c1.41-1.797,2.783-3.659,4.082-5.537l1.645,1.139C213.404,186.836,212.008,188.731,210.574,190.559
				z M24.133,184.963c-1.321-1.906-2.602-3.881-3.804-5.861l1.711-1.037c1.181,1.946,2.438,3.886,3.737,5.762L24.133,184.963z
				 M218.533,179.051l-1.711-1.035c1.187-1.957,2.324-3.974,3.387-5.989l1.77,0.932C220.898,175.009,219.74,177.06,218.533,179.051z
				 M16.889,173.019c-1.078-2.047-2.109-4.157-3.066-6.274l1.822-0.824c0.94,2.081,1.954,4.155,3.014,6.167L16.889,173.019z
				 M225.048,166.662l-1.823-0.822c0.94-2.087,1.828-4.227,2.637-6.355l1.869,0.709C226.908,162.36,226.005,164.538,225.048,166.662
				z M11.142,160.296c-0.827-2.173-1.597-4.396-2.287-6.607l1.908-0.598c0.68,2.175,1.436,4.358,2.248,6.494L11.142,160.296z
				 M230.016,153.568l-1.91-0.594c0.681-2.185,1.299-4.41,1.843-6.622l1.94,0.477C231.336,149.08,230.706,151.348,230.016,153.568z
				 M6.975,146.95c-0.555-2.247-1.048-4.548-1.468-6.837l1.967-0.361c0.413,2.25,0.898,4.513,1.442,6.722L6.975,146.95z
				 M233.35,139.988l-1.967-0.357c0.407-2.244,0.754-4.529,1.024-6.795l1.985,0.238C234.116,135.378,233.766,137.704,233.35,139.988
				z M4.456,133.199c-0.279-2.311-0.492-4.654-0.631-6.963l1.996-0.121c0.137,2.271,0.346,4.572,0.621,6.844L4.456,133.199z
				 M235.018,126.109l-1.996-0.119c0.138-2.272,0.205-4.584,0.205-6.869l-0.002-0.243h2l0.002,0.231
				C235.227,121.446,235.154,123.798,235.018,126.109z M5.608,119.243h-2v-0.122c0-2.289,0.067-4.599,0.2-6.865l1.996,0.117
				c-0.13,2.229-0.196,4.498-0.196,6.748V119.243z M233.007,112.009c-0.141-2.278-0.353-4.583-0.628-6.845l1.984-0.242
				c0.281,2.303,0.496,4.646,0.64,6.965L233.007,112.009z M6.412,105.527l-1.986-0.236c0.275-2.312,0.624-4.64,1.036-6.917
				l1.969,0.357C7.024,100.968,6.683,103.255,6.412,105.527z M231.34,98.372c-0.414-2.246-0.902-4.506-1.449-6.718l1.94-0.481
				c0.558,2.251,1.056,4.553,1.476,6.836L231.34,98.372z M8.858,92.008l-1.943-0.475c0.552-2.257,1.18-4.524,1.866-6.74l1.91,0.593
				C10.017,87.562,9.4,89.79,8.858,92.008z M228.035,85.037c-0.686-2.184-1.444-4.367-2.256-6.491l1.869-0.714
				c0.824,2.162,1.598,4.385,2.295,6.606L228.035,85.037z M12.93,78.874l-1.871-0.708c0.823-2.177,1.724-4.354,2.676-6.474
				l1.824,0.817C14.623,74.593,13.738,76.734,12.93,78.874z M223.141,72.212c-0.938-2.068-1.953-4.145-3.021-6.163l1.769-0.935
				c1.086,2.055,2.119,4.165,3.073,6.271L223.141,72.212z M18.57,66.324l-1.771-0.93c1.083-2.063,2.24-4.115,3.439-6.1l1.711,1.035
				C20.771,62.279,19.635,64.296,18.57,66.324z M216.73,60.077c-1.184-1.944-2.44-3.882-3.742-5.758l1.643-1.142
				c1.325,1.908,2.605,3.882,3.811,5.858L216.73,60.077z M25.684,54.555l-1.646-1.138c1.318-1.91,2.713-3.807,4.146-5.637
				l1.574,1.233C28.35,50.813,26.979,52.677,25.684,54.555z M208.902,48.795c-1.412-1.795-2.896-3.565-4.409-5.27l1.493-1.329
				c1.541,1.729,3.051,3.535,4.488,5.362L208.902,48.795z M34.158,43.731l-1.498-1.325c1.538-1.738,3.15-3.453,4.791-5.097
				l1.416,1.413C37.254,40.338,35.67,42.022,34.158,43.731z M199.773,38.529c-1.619-1.614-3.307-3.197-5.012-4.707l1.323-1.498
				c1.735,1.535,3.452,3.146,5.101,4.788L199.773,38.529z M43.866,34.005l-1.328-1.495c1.738-1.544,3.543-3.053,5.364-4.482
				l1.236,1.572C47.348,31.005,45.574,32.487,43.866,34.005z M189.477,29.426c-1.799-1.406-3.664-2.776-5.541-4.07l1.135-1.646
				c1.91,1.316,3.809,2.711,5.641,4.146L189.477,29.426z M54.664,25.517l-1.139-1.646c1.91-1.324,3.883-2.604,5.861-3.807
				l1.037,1.71C58.48,22.957,56.542,24.216,54.664,25.517z M178.156,21.622c-1.961-1.183-3.979-2.316-5.995-3.376l0.928-1.771
				c2.054,1.074,4.106,2.229,6.101,3.435L178.156,21.622z M66.398,18.391l-0.934-1.771c2.052-1.082,4.162-2.114,6.274-3.069
				l0.824,1.822C70.488,16.312,68.414,17.327,66.398,18.391z M165.973,15.238c-2.084-0.938-4.227-1.818-6.363-2.626l0.707-1.871
				c2.176,0.821,4.354,1.721,6.477,2.673L165.973,15.238z M78.897,12.737l-0.713-1.869c2.172-0.828,4.396-1.599,6.608-2.291
				l0.598,1.909C83.216,11.166,81.031,11.924,78.897,12.737z M153.098,10.378c-2.182-0.674-4.41-1.29-6.627-1.83l0.475-1.941
				c2.256,0.55,4.522,1.177,6.742,1.86L153.098,10.378z M92.009,8.634l-0.48-1.939c2.249-0.558,4.55-1.052,6.837-1.472l0.361,1.967
				C96.479,7.602,94.219,8.088,92.009,8.634z M139.748,7.123c-2.243-0.403-4.53-0.745-6.798-1.014l0.235-1.986
				c2.308,0.273,4.635,0.62,6.918,1.032L139.748,7.123z M105.521,6.152l-0.242-1.985c2.304-0.279,4.646-0.494,6.964-0.636
				l0.121,1.996C110.086,5.667,107.784,5.877,105.521,6.152z M126.105,5.506c-2.213-0.128-4.463-0.191-6.688-0.191h-0.184v-2h0.184
				c2.267,0,4.556,0.064,6.804,0.194L126.105,5.506z"/>
		</g>
	</g>
</g>
<g>
	<g>
		<path fill="#535353" d="M112.973,86.502c1.607,0,2.915-1.308,2.915-2.915s-1.308-2.915-2.915-2.915s-2.916,1.308-2.916,2.915
			S111.365,86.502,112.973,86.502z M112.973,81.68c1.051,0,1.905,0.855,1.905,1.906s-0.854,1.906-1.905,1.906
			s-1.906-0.855-1.906-1.906S111.922,81.68,112.973,81.68z"/>
		<path fill="#535353" d="M124.22,86.502c1.607,0,2.915-1.308,2.915-2.915s-1.308-2.915-2.915-2.915s-2.915,1.308-2.915,2.915
			S122.612,86.502,124.22,86.502z M124.22,81.68c1.051,0,1.905,0.855,1.905,1.906s-0.854,1.906-1.905,1.906
			s-1.906-0.855-1.906-1.906S123.169,81.68,124.22,81.68z"/>
		<path fill="#535353" d="M118.733,49.198c-29.349,0-53.141,23.791-53.141,53.14c0,29.35,23.792,53.143,53.141,53.143
			s53.142-23.793,53.142-53.143C171.875,72.989,148.082,49.198,118.733,49.198z M112.17,60.101
			c4.839-1.185,12.376-1.476,20.803,3.866l-1.262,1.989c-6.169-3.911-12.521-5.119-18.881-3.592
			c-4.778,1.147-7.783,3.495-7.812,3.519l-1.467-1.842C103.686,63.933,106.919,61.387,112.17,60.101z M114.031,67.129
			c-3.643,0.892-5.876,2.65-5.897,2.668l-1.47-1.841c0.107-0.085,2.667-2.101,6.808-3.114c3.814-0.935,9.753-1.165,16.387,3.041
			l-1.262,1.988C123.834,66.851,118.934,65.928,114.031,67.129z M126.756,71.597l-1.261,1.989
			c-7.906-5.012-14.197-0.124-14.26-0.074l-1.469-1.841c0.079-0.063,1.967-1.55,5.002-2.293
			C117.562,68.694,121.908,68.524,126.756,71.597z M107.458,75.72c0.805,0,21.13,0,22.271,0s1.543,0.738,1.543,2.079
			c0,1.342,0,13.081,0,14.021c0,0.938,0.067,1.408-1.476,1.408s-22.137,0-23.143,0c-1.007,0-0.738-0.938-0.738-1.878
			s0-14.154,0-14.154C105.915,75.72,106.653,75.72,107.458,75.72z M143.205,123.539c-0.074,1.385-0.698,2.609-1.648,3.475
			l-1.386-1.428l0,0c0.558-0.494,0.927-1.201,0.97-2.004c0.085-1.586-1.133-2.942-2.72-3.027c-1.588-0.085-2.942,1.133-3.027,2.721
			c-0.055,1.014,0.423,1.93,1.187,2.482l-1.385,1.631c-1.358-0.975-2.207-2.6-2.111-4.393c0.049-0.912,0.337-1.754,0.799-2.471
			V106.16c0,0,0.212-1.057-0.775-1.057c-0.986,0-0.916,1.198-0.916,1.198v30.448h1.749v3.801h-14.224v-3.52h1.189v-9.848h-4.376
			v9.848h1.522v3.469h-14.509v-3.375h1.475v-31.014c0,0-0.095-0.88-0.88-0.88c-0.784,0-0.784,0.784-0.784,0.784v14.486
			c0.64,0.9,0.867,2.016,0.804,3.205c-0.074,1.385-0.698,2.609-1.648,3.475l-1.387-1.428l0,0c0.559-0.492,0.927-1.199,0.97-2.002
			c0.085-1.588-1.133-2.943-2.72-3.029c-1.587-0.085-2.942,1.133-3.027,2.721c-0.054,1.014,0.423,1.93,1.188,2.484l-1.385,1.629
			c-1.358-0.975-2.208-2.6-2.112-4.393c0.058-1.078,0.45-2.061,1.071-2.852l0.011-22.962c0-1.27-0.282-1.974,1.974-1.974
			c2.255,0,42.43,0,43.487,0c1.057,0,1.55,0.493,1.55,1.974c0,1.36,0,19.826,0,22.787
			C142.861,121.07,143.273,122.261,143.205,123.539z"/>
	</g>
	<path fill="#535353" d="M63.154,164.984h1.889v-5.018h3.305v5.018h2.419v2.654H68.17c0,0,0,8.793,0,10.682s0.591,2.479,2.479,2.479
		v2.773c0,0-0.59,0-1.298,0s-4.013,0.531-4.013-3.836s0-11.979,0-11.979h-2.184V164.984z"/>
	<path fill="#535353" d="M168.068,164.984h1.889v-5.018h3.305v5.018h2.419v2.654h-2.597c0,0,0,8.793,0,10.682
		s0.591,2.479,2.479,2.479v2.773c0,0-0.59,0-1.298,0s-4.013,0.531-4.013-3.836s0-11.979,0-11.979h-2.184V164.984z"/>
	<path fill="#535353" d="M134.296,164.984h1.889v-5.018h3.305v5.018h2.42v2.654h-2.597c0,0,0,8.793,0,10.682s0.59,2.479,2.479,2.479
		v2.773c0,0-0.59,0-1.299,0c-0.708,0-4.013,0.531-4.013-3.836s0-11.979,0-11.979h-2.184V164.984z"/>
	<path fill="#535353" d="M73.244,158.861h3.55v8.506c0,0,0.489-2.117,3.235-2.117c1.005,0,2.592,0.91,2.592,4.93
		c0,4.018,0,13.412,0,13.412h-3.282c0,0,0-12.877,0-13.947c0.069-2.217-2.612-1.809-2.612,0.199c0,2.01,0,13.748,0,13.748h-3.482
		V158.861z"/>
	<path fill="#535353" d="M122.364,158.861h3.549v8.506c0,0,0.49-2.117,3.236-2.117c1.004,0,2.591,0.91,2.591,4.93
		c0,4.018,0,13.412,0,13.412h-3.281c0,0,0-12.877,0-13.947c0.069-2.217-2.612-1.809-2.612,0.199c0,2.01,0,13.748,0,13.748h-3.482
		V158.861z"/>
	<path fill="#535353" d="M153.759,170.179c0-4.02-1.924-4.93-2.929-4.93c-2.745,0-3.235,2.117-3.235,2.117v-8.506h-3.55v6.803l0,0
		v0.004v17.924h3.483c0,0,0-0.693,0-1.771l0.066-0.266c0,0,0.499,2.172,3.235,1.947c1.742-0.143,2.929-2.1,2.928-4.424
		c0-4.02,0-8.76,0-8.76l0,0C153.758,170.271,153.759,170.226,153.759,170.179z M150.645,179.277
		c0.069,2.213-3.113,1.809-3.116-0.197c0-3.584,0-8.189,0-9.404c0-2.008,3.186-2.416,3.116-0.201c0,0.115,0.012,0.35,0.032,0.676
		h-0.032C150.645,170.15,150.645,178.205,150.645,179.277z"/>
	<path fill="#535353" d="M107.373,183.592h-3.55v-2.322c0,0-0.49,2.115-3.235,2.115c-1.005,0-2.592-0.91-2.592-4.93
		c0-4.018,0-13.412,0-13.412h3.281c0,0,0,12.877,0,13.949c-0.069,2.215,2.612,1.809,2.612-0.201s0-13.748,0-13.748h3.483V183.592z"
		/>
	<path fill="#535353" d="M90.05,165.043c-3.56,0-4.57,2.992-4.57,4.211s0,8.326,0,9.77c0,1.441,0.686,4.568,4.57,4.568
		c4.562,0,4.896-4.863,4.896-4.863s0-2.67,0-7.502S92.608,165.043,90.05,165.043z M91.717,174.426c0,0.162,0,0.322,0,0.482
		c0,1.801,0,3.416,0,3.766c0,0.674-0.359,2.104-1.505,2.104s-1.649-0.631-1.649-1.977c0-0.568,0-2.166,0-3.893
		c0-0.16,0-0.32,0-0.482c0-1.896,0-4.09,0-4.439c0-0.674,0.358-2.104,1.504-2.104s1.65,0.631,1.65,1.977
		C91.717,170.429,91.717,172.601,91.717,174.426z"/>
	<path fill="#535353" d="M161.038,165.043c-3.56,0-4.57,2.992-4.57,4.211s0,8.326,0,9.77c0,1.441,0.686,4.568,4.57,4.568
		c4.562,0,4.896-4.863,4.896-4.863s0-2.67,0-7.502S163.597,165.043,161.038,165.043z M162.705,174.426c0,0.162,0,0.322,0,0.482
		c0,1.801,0,3.416,0,3.766c0,0.674-0.359,2.104-1.504,2.104c-1.146,0-1.65-0.631-1.65-1.977c0-0.568,0-2.166,0-3.893
		c0-0.16,0-0.32,0-0.482c0-1.896,0-4.09,0-4.439c0-0.674,0.358-2.104,1.504-2.104s1.65,0.631,1.65,1.977
		C162.705,170.429,162.705,172.601,162.705,174.426z"/>
	<path fill="#535353" d="M114.117,180.525c-1.397-0.342-1.064-1.418-0.698-2.086c0.307,0.051,0.642,0.078,1.012,0.078
		c3.985,0,4.276-3.533,4.276-3.533s0-1.939,0-5.449s-2.041-4.492-4.276-4.492c-3.109,0-3.992,2.172-3.992,3.059s0,6.049,0,7.098
		c0,0.74,0.301,2.09,1.673,2.818c-0.794,0.66-2.087,1.918-2.087,3.123c0,0.82,0.687,1.342,1.613,1.662
		c-3.088,1.455-2.511,2.824-2.511,2.824c0,1.57,1.57,3.42,5.832,3.42s5.943-1.232,5.943-4.934S116.192,181.029,114.117,180.525z
		 M113.131,172.209c0-0.115,0-0.232,0-0.35c0-1.377,0-2.129,0-2.385c0-0.488,0.313-1.527,1.314-1.527c1,0,1.441,0.457,1.441,1.436
		c0,0.414,0,1.15,0,2.477c0,0.117,0,0.234,0,0.35c0,1.309,0,1.641,0,1.895c0,0.488-0.313,1.527-1.313,1.527
		c-1.001,0-1.442-0.457-1.442-1.436C113.131,173.783,113.131,173.463,113.131,172.209z M115.463,186.636
		c-1.429,0-4.203-0.75-2.202-3.475c0.615,0.08,1.229,0.109,1.754,0.109c1.906,0,3.196,0.617,3.196,1.738
		S116.978,186.636,115.463,186.636z"/>
</g>
</svg>
