<?xml version="1.0" encoding="utf-8"?>
<!-- Generator: Adobe Illustrator 16.2.1, SVG Export Plug-In . SVG Version: 6.00 Build 0)  -->
<!DOCTYPE svg PUBLIC "-//W3C//DTD SVG 1.1//EN" "http://www.w3.org/Graphics/SVG/1.1/DTD/svg11.dtd">
<svg version="1.1" id="Capa_1" xmlns="http://www.w3.org/2000/svg" xmlns:xlink="http://www.w3.org/1999/xlink" x="0px" y="0px"
	 width="238px" height="240.361px" viewBox="0 0 238 240.361" enable-background="new 0 0 238 240.361" xml:space="preserve">
<g>
	<g opacity="0.1">
		<circle cx="119.417" cy="119.122" r="108.659"/>
	</g>
	<g opacity="0.2">
		<g>
			<path d="M119.479,234.931h-0.062c-2.299,0-4.629-0.068-6.927-0.204l0.117-1.996c2.259,0.133,4.55,0.2,6.81,0.2L119.479,234.931z
				 M126.471,234.719l-0.121-1.994c2.285-0.14,4.588-0.348,6.844-0.618l0.24,1.984C131.139,234.367,128.795,234.579,126.471,234.719
				z M105.525,234.106c-2.313-0.276-4.641-0.626-6.916-1.04l0.357-1.967c2.235,0.403,4.521,0.749,6.795,1.021L105.525,234.106z
				 M140.348,233.045l-0.359-1.967c2.254-0.412,4.516-0.896,6.722-1.438l0.479,1.939
				C144.939,232.133,142.641,232.626,140.348,233.045z M91.77,231.609c-2.26-0.556-4.528-1.185-6.741-1.87l0.594-1.91
				c2.174,0.676,4.402,1.294,6.622,1.837L91.77,231.609z M153.924,229.703l-0.596-1.908c2.189-0.685,4.375-1.438,6.496-2.245
				l0.711,1.869C158.376,228.239,156.152,229.008,153.924,229.703z M78.403,227.459c-2.181-0.826-4.358-1.729-6.473-2.68
				l0.821-1.824c2.077,0.938,4.217,1.821,6.36,2.633L78.403,227.459z M166.982,224.742l-0.821-1.822
				c2.082-0.938,4.157-1.954,6.168-3.011l0.933,1.77C171.215,222.755,169.104,223.785,166.982,224.742z M65.637,221.712
				c-2.062-1.082-4.112-2.238-6.098-3.439l1.035-1.711c1.951,1.18,3.967,2.316,5.992,3.383L65.637,221.712z M179.344,218.241
				l-1.037-1.711c1.95-1.182,3.891-2.438,5.764-3.734l1.141,1.646C183.303,215.76,181.328,217.038,179.344,218.241z M53.663,214.466
				c-1.913-1.32-3.81-2.718-5.636-4.147l1.234-1.574c1.795,1.406,3.658,2.779,5.538,4.079L53.663,214.466z M190.835,210.295
				l-1.233-1.574c1.801-1.41,3.576-2.894,5.276-4.399l1.326,1.496C194.475,207.351,192.667,208.857,190.835,210.295z
				 M42.656,205.838c-1.737-1.539-3.451-3.149-5.095-4.792l1.414-1.416c1.614,1.613,3.3,3.198,5.007,4.712L42.656,205.838z
				 M201.296,201.021l-1.414-1.414c1.616-1.616,3.202-3.301,4.714-5.005l1.496,1.324
				C204.555,197.663,202.939,199.377,201.296,201.021z M32.765,195.956c-1.537-1.73-3.046-3.539-4.481-5.368l1.572-1.232
				c1.412,1.797,2.894,3.57,4.405,5.272L32.765,195.956z M210.574,190.56L209,189.325c1.41-1.797,2.783-3.659,4.082-5.537
				l1.645,1.139C213.404,186.837,212.008,188.732,210.574,190.56z M24.133,184.964c-1.321-1.906-2.602-3.881-3.804-5.861
				l1.711-1.037c1.181,1.945,2.438,3.886,3.737,5.762L24.133,184.964z M218.533,179.052l-1.711-1.035
				c1.187-1.957,2.324-3.974,3.387-5.989l1.77,0.932C220.898,175.01,219.74,177.061,218.533,179.052z M16.889,173.02
				c-1.078-2.047-2.109-4.157-3.066-6.274l1.822-0.824c0.94,2.081,1.954,4.155,3.014,6.167L16.889,173.02z M225.048,166.663
				l-1.823-0.822c0.94-2.087,1.828-4.227,2.637-6.355l1.869,0.709C226.908,162.361,226.005,164.539,225.048,166.663z
				 M11.142,160.297c-0.827-2.173-1.597-4.396-2.287-6.607l1.908-0.598c0.68,2.175,1.436,4.358,2.248,6.494L11.142,160.297z
				 M230.016,153.569l-1.91-0.594c0.681-2.185,1.299-4.41,1.842-6.622l1.941,0.477C231.336,149.081,230.706,151.349,230.016,153.569
				z M6.975,146.951c-0.555-2.247-1.048-4.548-1.468-6.837l1.967-0.361c0.413,2.25,0.898,4.513,1.442,6.722L6.975,146.951z
				 M233.35,139.989l-1.967-0.357c0.407-2.245,0.754-4.529,1.024-6.795l1.985,0.238C234.116,135.379,233.766,137.705,233.35,139.989
				z M4.456,133.2c-0.279-2.311-0.492-4.654-0.631-6.963l1.996-0.121c0.137,2.27,0.346,4.572,0.621,6.844L4.456,133.2z
				 M235.018,126.11l-1.996-0.119c0.138-2.272,0.205-4.584,0.205-6.869l-0.002-0.243h2l0.002,0.231
				C235.227,121.447,235.154,123.799,235.018,126.11z M5.608,119.244h-2v-0.122c0-2.289,0.067-4.599,0.2-6.865l1.996,0.117
				c-0.13,2.229-0.196,4.498-0.196,6.748V119.244z M233.007,112.01c-0.141-2.278-0.353-4.583-0.628-6.845l1.984-0.242
				c0.281,2.303,0.496,4.646,0.64,6.964L233.007,112.01z M6.412,105.528l-1.986-0.236c0.275-2.312,0.624-4.64,1.036-6.917
				l1.969,0.357C7.024,100.969,6.683,103.256,6.412,105.528z M231.34,98.373c-0.414-2.246-0.902-4.506-1.449-6.718l1.94-0.481
				c0.558,2.251,1.056,4.553,1.476,6.836L231.34,98.373z M8.858,92.009l-1.943-0.475c0.552-2.257,1.18-4.524,1.866-6.74l1.91,0.592
				C10.017,87.563,9.4,89.791,8.858,92.009z M228.035,85.038c-0.686-2.184-1.444-4.367-2.256-6.491l1.869-0.714
				c0.824,2.162,1.598,4.385,2.295,6.606L228.035,85.038z M12.93,78.875l-1.871-0.708c0.823-2.177,1.724-4.354,2.676-6.474
				l1.824,0.817C14.623,74.594,13.738,76.735,12.93,78.875z M223.141,72.213c-0.938-2.068-1.953-4.145-3.021-6.163l1.769-0.935
				c1.086,2.055,2.119,4.165,3.073,6.271L223.141,72.213z M18.57,66.325l-1.771-0.93c1.083-2.063,2.24-4.115,3.439-6.1l1.711,1.035
				C20.771,62.28,19.635,64.297,18.57,66.325z M216.73,60.078c-1.184-1.944-2.44-3.882-3.742-5.758l1.643-1.143
				c1.325,1.909,2.605,3.883,3.811,5.859L216.73,60.078z M25.684,54.556l-1.646-1.138c1.318-1.91,2.713-3.807,4.146-5.637
				l1.574,1.233C28.35,50.814,26.979,52.677,25.684,54.556z M208.902,48.796c-1.412-1.795-2.896-3.565-4.409-5.27l1.493-1.329
				c1.541,1.729,3.051,3.535,4.488,5.362L208.902,48.796z M34.158,43.732l-1.498-1.325c1.538-1.738,3.15-3.453,4.791-5.097
				l1.416,1.413C37.254,40.339,35.67,42.023,34.158,43.732z M199.773,38.53c-1.619-1.614-3.307-3.197-5.012-4.707l1.323-1.498
				c1.735,1.535,3.452,3.146,5.101,4.788L199.773,38.53z M43.866,34.006l-1.328-1.495c1.738-1.544,3.543-3.053,5.364-4.482
				l1.236,1.572C47.348,31.006,45.574,32.488,43.866,34.006z M189.477,29.427c-1.799-1.406-3.664-2.776-5.541-4.07l1.135-1.646
				c1.91,1.316,3.809,2.711,5.641,4.146L189.477,29.427z M54.664,25.518l-1.139-1.646c1.91-1.324,3.883-2.604,5.861-3.807
				l1.037,1.71C58.48,22.958,56.542,24.217,54.664,25.518z M178.156,21.623c-1.961-1.183-3.979-2.316-5.995-3.376l0.928-1.771
				c2.054,1.074,4.106,2.229,6.101,3.435L178.156,21.623z M66.398,18.392l-0.934-1.771c2.052-1.082,4.162-2.114,6.274-3.069
				l0.824,1.822C70.488,16.313,68.414,17.328,66.398,18.392z M165.973,15.239c-2.084-0.938-4.227-1.818-6.363-2.626l0.707-1.871
				c2.176,0.821,4.354,1.721,6.477,2.673L165.973,15.239z M78.897,12.738l-0.713-1.869c2.172-0.828,4.396-1.599,6.608-2.291
				l0.598,1.909C83.216,11.167,81.031,11.925,78.897,12.738z M153.098,10.379c-2.182-0.674-4.41-1.29-6.627-1.83l0.475-1.941
				c2.256,0.55,4.523,1.177,6.742,1.86L153.098,10.379z M92.009,8.635l-0.48-1.939c2.249-0.559,4.55-1.052,6.837-1.472l0.361,1.967
				C96.479,7.603,94.219,8.089,92.009,8.635z M139.748,7.124c-2.243-0.404-4.53-0.745-6.798-1.014l0.235-1.986
				c2.308,0.273,4.635,0.62,6.918,1.032L139.748,7.124z M105.521,6.153l-0.242-1.985c2.304-0.28,4.646-0.494,6.964-0.636
				l0.121,1.996C110.086,5.668,107.784,5.878,105.521,6.153z M126.105,5.507c-2.213-0.128-4.463-0.191-6.688-0.191h-0.184v-2h0.184
				c2.267,0,4.556,0.064,6.804,0.194L126.105,5.507z"/>
		</g>
	</g>
</g>
<g>
	<g>
		<path fill="#4A4A4A" d="M47.239,105.272h4.1v9.521c1.752-0.738,3.639-1.107,5.642-1.107c7.349,0,11.024,3.721,11.024,11.156
			c0,8.061-3.856,12.088-11.574,12.088c-3.34,0-6.4-0.318-9.188-0.957L47.239,105.272L47.239,105.272z M51.337,132.877
			c1.342,0.432,2.975,0.641,4.89,0.641c5.164,0,7.747-2.943,7.747-8.834c0-4.971-2.337-7.458-7.017-7.458
			c-2.127,0-4.002,0.394-5.624,1.192L51.337,132.877L51.337,132.877z"/>
		<path fill="#4A4A4A" d="M77,105.272v3.323h-4.098v-3.323H77z M77,113.686v23.244h-4.098v-23.244H77z"/>
		<path fill="#4A4A4A" d="M87.103,105.272v31.661h-4.094v-31.661H87.103L87.103,105.272z"/>
		<path fill="#4A4A4A" d="M97.204,105.272v31.661h-4.096v-31.661H97.204L97.204,105.272z"/>
		<path fill="#4A4A4A" d="M103.211,137.041v-24.483c0-5.625,2.897-8.437,8.68-8.437c1.903,0,3.63,0.299,5.178,0.888v3.318
			c-1.461-0.586-3.195-0.884-5.204-0.884c-3.038,0-4.559,1.278-4.559,3.831v2.413h6.974v3.322h-6.974v19.945L103.211,137.041z"/>
		<path fill="#4A4A4A" d="M122.638,105.272v31.661h-4.102v-31.661H122.638L122.638,105.272z"/>
		<path fill="#4A4A4A" d="M127.534,125.31c0-7.748,3.688-11.625,11.065-11.625c7.379,0,11.071,3.875,11.071,11.625
			c0,7.732-3.692,11.6-11.071,11.6C131.253,136.91,127.564,133.043,127.534,125.31z M138.602,133.609
			c4.649,0,6.978-2.799,6.978-8.391c0-5.47-2.328-8.21-6.978-8.21c-4.646,0-6.971,2.741-6.971,8.21
			C131.633,130.81,133.952,133.609,138.602,133.609z"/>
		<path fill="#4A4A4A" d="M153.466,129.689c0-4.766,3.145-7.151,9.432-7.151c2.322,0,4.338,0.148,6.064,0.447v-2.195
			c0-2.522-2.088-3.782-6.265-3.782c-2.388,0-4.84,0.367-7.347,1.105v-3.32c2.507-0.738,4.959-1.107,7.347-1.107
			c6.906,0,10.36,2.48,10.36,7.44v15.804h-2.077l-1.644-1.643c-2.018,1.092-4.397,1.643-7.128,1.643
			C156.381,136.933,153.466,134.515,153.466,129.689z M162.897,125.861c-3.556,0-5.338,1.252-5.338,3.764
			c0,2.656,1.552,3.984,4.649,3.984c2.838,0,5.084-0.605,6.753-1.814v-5.49C167.337,126.01,165.316,125.861,162.897,125.861z"/>
		<path fill="#4A4A4A" d="M179.067,109.922h2.567l0.888,3.764h5.403v3.322h-4.763v13.347c0,2.168,0.938,3.254,2.81,3.254h1.953
			v3.324h-3.011c-3.899,0-5.844-2.088-5.844-6.268L179.067,109.922L179.067,109.922z"/>
	</g>
	<path opacity="0.2" fill="#4A4A4A" d="M196.399,68.988c-5.291,0-11.387,1.534-13.558,5.695
		c-2.441,5.026-1.257,18.005-16.585,21.986c2.849,0.884,5.862,1.359,8.994,1.359c15.074,0,27.564-11.039,29.853-25.469
		c0.041-0.293,0.146-1.32-0.786-1.962C202.839,69.615,199.783,68.988,196.399,68.988L196.399,68.988z"/>
	<path opacity="0.6" fill="#4A4A4A" d="M166.51,63.469c-2.957-0.002-6.731,2.647-10.506,12.046
		c-3.769,9.791-1.586,13.93-0.171,15.442c5.255,4.412,12.021,7.072,19.418,7.072c9.396,0,17.785-4.292,23.339-11.016
		c-1.671,0.256-3.211,0.378-4.628,0.378c-4.953,0-8.449-1.47-11.12-3.721c-5.761-4.309-7.472-9.673-9.645-14.2
		c-0.313-0.646-1.451-2.939-2.057-3.633C170.141,64.681,168.51,63.469,166.51,63.469L166.51,63.469z M198.59,87.014h0.017H198.59z"
		/>
	<path fill="#4A4A4A" d="M194.556,95.488c-4.243,0-11.727,1.611-22.833,9.453c-1.026,0.593-0.946,0.947-0.369,0.947
		c0.179,0,0.404-0.035,0.659-0.1c1.248-0.449,10.235-4.171,20.12-4.171c1.371,0,2.754,0.074,4.136,0.231
		c0.357,0.097,0.708,0.139,1.04,0.139c3.094,0,5.032-3.786,1.281-5.848C198.068,95.917,196.742,95.488,194.556,95.488
		L194.556,95.488z"/>
</g>
</svg>
