<?xml version="1.0" encoding="utf-8"?>
<!-- Generator: Adobe Illustrator 16.0.0, SVG Export Plug-In . SVG Version: 6.00 Build 0)  -->
<!DOCTYPE svg PUBLIC "-//W3C//DTD SVG 1.1//EN" "http://www.w3.org/Graphics/SVG/1.1/DTD/svg11.dtd">
<svg version="1.1" id="Capa_1" xmlns="http://www.w3.org/2000/svg" xmlns:xlink="http://www.w3.org/1999/xlink" x="0px" y="0px"
	 width="168px" height="168px" viewBox="0 0 168 168" enable-background="new 0 0 168 168" xml:space="preserve">
<g>
	<circle opacity="0.1" enable-background="new    " cx="84.238" cy="85.256" r="72"/>
	<g opacity="0.2">
		<g>
			<path d="M80.721,164.318c-2.369-0.104-4.758-0.313-7.099-0.627l0.264-1.981c2.283,0.306,4.612,0.51,6.923,0.61L80.721,164.318z
				 M87.85,164.314l-0.09-1.998c2.307-0.104,4.635-0.312,6.922-0.619l0.27,1.98C92.604,163.995,90.214,164.209,87.85,164.314z
				 M66.605,162.434c-2.312-0.522-4.625-1.16-6.876-1.89l0.617-1.901c2.193,0.711,4.448,1.33,6.7,1.84L66.605,162.434z
				 M101.964,162.41l-0.442-1.949c2.248-0.513,4.5-1.135,6.696-1.85l0.619,1.902C106.583,161.247,104.271,161.885,101.964,162.41z
				 M53.049,158.042c-2.174-0.929-4.335-1.97-6.426-3.095l0.947-1.762c2.038,1.097,4.146,2.11,6.264,3.017L53.049,158.042z
				 M115.509,158.009l-0.788-1.838c2.125-0.912,4.23-1.929,6.258-3.022l0.949,1.762C119.848,156.03,117.688,157.074,115.509,158.009
				z M40.503,151.289c-1.969-1.3-3.909-2.71-5.77-4.189l1.246-1.563c1.813,1.442,3.706,2.817,5.625,4.087L40.503,151.289z
				 M128.042,151.244l-1.104-1.668c1.927-1.274,3.815-2.65,5.619-4.092l1.248,1.562
				C131.956,148.525,130.018,149.938,128.042,151.244z M29.362,142.409c-1.713-1.636-3.372-3.368-4.932-5.148l1.504-1.317
				c1.521,1.736,3.139,3.427,4.809,5.021L29.362,142.409z M139.172,142.354l-1.383-1.443c1.67-1.6,3.286-3.288,4.804-5.024
				l1.507,1.316C142.542,138.98,140.884,140.715,139.172,142.354z M19.977,131.691c-1.395-1.911-2.72-3.91-3.938-5.941l1.715-1.029
				c1.188,1.98,2.479,3.93,3.839,5.795L19.977,131.691z M148.546,131.628l-1.616-1.178c1.355-1.863,2.646-3.814,3.834-5.8
				l1.717,1.026C151.262,127.714,149.938,129.716,148.546,131.628z M12.65,119.479c-1.031-2.134-1.977-4.336-2.811-6.551
				l1.871-0.705c0.813,2.157,1.735,4.307,2.74,6.385L12.65,119.479z M155.861,119.4l-1.801-0.868
				c1.002-2.076,1.922-4.228,2.733-6.392l1.873,0.701C157.835,115.064,156.891,117.271,155.861,119.4z M7.631,106.148
				c-0.632-2.285-1.166-4.623-1.588-6.951l1.969-0.355c0.41,2.268,0.931,4.547,1.547,6.773L7.631,106.148z M160.869,106.062
				l-1.928-0.531c0.609-2.223,1.129-4.504,1.539-6.776l1.969,0.354C162.027,101.441,161.497,103.78,160.869,106.062z M5.088,92.134
				c-0.211-2.35-0.319-4.745-0.322-7.12l2-0.002c0.003,2.315,0.108,4.651,0.314,6.942L5.088,92.134z M163.396,92.043l-1.992-0.176
				c0.203-2.299,0.308-4.635,0.308-6.943v-0.183h2v0.183C163.712,87.292,163.605,89.688,163.396,92.043z M7.064,78.067l-1.992-0.176
				c0.208-2.364,0.523-4.741,0.939-7.064l1.969,0.352C7.575,73.443,7.267,75.761,7.064,78.067z M161.389,77.8
				c-0.209-2.295-0.524-4.611-0.938-6.885l1.967-0.359c0.426,2.333,0.75,4.709,0.964,7.062L161.389,77.8z M9.512,64.4l-1.93-0.527
				c0.625-2.281,1.362-4.563,2.193-6.785l1.873,0.701C10.839,59.954,10.12,62.179,9.512,64.4z M158.893,64.143
				c-0.615-2.22-1.343-4.441-2.16-6.604l1.871-0.707c0.84,2.219,1.586,4.499,2.217,6.776L158.893,64.143z M14.376,51.395
				l-1.803-0.867c1.027-2.135,2.163-4.248,3.378-6.281l1.717,1.025C16.484,47.253,15.377,49.313,14.376,51.395z M153.986,51.157
				c-1.008-2.079-2.121-4.134-3.312-6.109l1.714-1.031c1.221,2.026,2.361,4.136,3.396,6.268L153.986,51.157z M21.494,39.468
				l-1.619-1.176c1.391-1.916,2.886-3.792,4.442-5.578l1.508,1.314C24.307,35.77,22.85,37.6,21.494,39.468z M146.83,39.258
				c-1.363-1.865-2.826-3.689-4.348-5.423l1.502-1.32c1.562,1.778,3.062,3.65,4.461,5.563L146.83,39.258z M30.622,28.999
				l-1.385-1.443c1.707-1.638,3.511-3.219,5.361-4.7l1.25,1.561C34.045,25.861,32.286,27.402,30.622,28.999z M137.669,28.821
				c-1.673-1.593-3.437-3.13-5.244-4.567l1.245-1.564c1.854,1.474,3.663,3.05,5.378,4.683L137.669,28.821z M41.462,20.318
				l-1.105-1.666c1.976-1.311,4.031-2.546,6.111-3.672l0.951,1.76C45.393,17.837,43.388,19.041,41.462,20.318z M126.798,20.174
				c-1.929-1.27-3.938-2.468-5.972-3.56l0.945-1.762c2.086,1.12,4.146,2.349,6.125,3.651L126.798,20.174z M53.673,13.712
				l-0.789-1.838c2.178-0.937,4.421-1.782,6.668-2.516l0.621,1.9C57.982,11.974,55.796,12.799,53.673,13.712z M114.559,13.606
				c-2.119-0.902-4.312-1.721-6.514-2.432l0.615-1.903c2.258,0.729,4.507,1.568,6.682,2.495L114.559,13.606z M66.869,9.403
				l-0.447-1.949c2.308-0.528,4.667-0.958,7.015-1.277l0.27,1.982C71.418,8.47,69.117,8.889,66.869,9.403z M101.343,9.343
				c-2.253-0.507-4.555-0.918-6.842-1.221l0.265-1.982c2.344,0.311,4.705,0.731,7.019,1.252L101.343,9.343z M80.627,7.531
				l-0.092-1.998c1.236-0.057,2.454-0.084,3.705-0.084c1.133,0,2.285,0.024,3.425,0.073L87.579,7.52
				c-1.131-0.047-2.253-0.084-3.399-0.071C83.007,7.449,81.812,7.477,80.627,7.531z"/>
		</g>
	</g>
</g>
<g>
	<path fill="#4A4A4A" d="M74.349,58.223l-5.49,5.446l2.745,3.305l-3.474,5.179l4.866,3.149l-1.458,10.488l10.437-1.482l3.228,4.84
		l5.152-3.514l3.358,2.732l5.458-5.461V58.223H74.349z M76.428,74.395l6.072-6.044l2.501,2.446l-6.129,6.157L76.428,74.395z
		 M82.858,80.937l-2.446-2.558l6.072-6.044l2.502,2.446L82.858,80.937z M93.726,77.595H90.36V66.972H79.694v-3.32H90.36h3.033h0.332
		V77.595z"/>
	<polygon fill="#4A4A4A" points="27.143,95.922 30.183,95.922 30.183,101.432 34.653,101.432 34.653,95.922 37.363,95.922 
		37.363,109.727 34.688,109.727 34.688,103.934 30.183,103.934 30.183,109.727 27.143,109.727 	"/>
	<polygon fill="#4A4A4A" points="62.503,95.922 65.543,95.922 65.543,101.432 70.012,101.432 70.012,95.922 72.724,95.922 
		72.724,109.727 70.048,109.727 70.048,103.934 65.543,103.934 65.543,109.727 62.503,109.727 	"/>
	<path fill="#4A4A4A" d="M45.524,95.922h-2.051l-5.158,13.805h2.921l0.933-2.441h4.66l0.808,2.492h2.982L45.524,95.922z
		 M42.852,104.801l1.617-4.475l1.677,4.475H42.852z"/>
	<path fill="#4A4A4A" d="M59.072,99.082l1.677-1.615c0,0-1.181-1.545-4.102-1.545s-4.723,1.67-4.723,3.906
		c0,2.238,1.118,3.979,4.66,3.979c1.678,0,2.237,0.994,2.237,1.986c0,0.996-0.994,1.742-2.485,1.742
		c-1.492,0-2.859-0.684-3.481-1.244l-1.553,1.678c0,0,0.994,1.758,4.722,1.758c3.729,0,5.096-1.881,5.096-4.242
		s-0.994-3.791-4.474-3.791c-1.739,0-2.547-1.119-2.547-1.988c0-0.871,0.87-1.803,2.609-1.803
		C58.45,97.902,59.072,99.082,59.072,99.082z"/>
	<path fill="#4A4A4A" d="M82.199,103.658c0,0,2.334-0.703,2.334-3.518s-2.052-4.219-3.812-4.219s-5.771,0-5.771,0v13.805h2.604
		v-5.469l2.147-0.035l2.604,5.504h3.026L82.199,103.658z M80.686,102.217c-1.091,0-3.097,0-3.097,0V98.24c0,0,2.112,0,3.026,0
		c0.915,0,1.654,1.16,1.654,1.988S81.777,102.217,80.686,102.217z"/>
	<path fill="#4A4A4A" d="M91.027,95.922c-1.058,0-4.947,0.314-4.947,6.568s2.364,7.287,4.947,7.287c2.582,0,5.009-1.375,5.009-7.193
		S93.454,95.922,91.027,95.922z M91.058,107.375c-2.488,0-2.458-2.021-2.458-5.01c0-2.986,0.312-4.17,2.676-4.17
		c1.432,0,2.334,1.215,2.334,4.357S93.548,107.375,91.058,107.375z"/>
	<path fill="#4A4A4A" d="M104.757,100.15h2.646c0,0-0.617-4.229-4.763-4.229c-4.145,0-5.114,2.51-5.114,6.609
		c0,4.102,0.793,7.195,4.938,7.195c4.144,0,4.938-4.152,4.938-4.152h-2.69c0,0-0.176,1.764-2.248,1.764
		c-2.073,0-2.382-1.984-2.382-5.424s1.235-3.703,2.646-3.703C104.14,98.211,104.757,99.004,104.757,100.15z"/>
	<polygon fill="#4A4A4A" points="108.598,95.922 111.549,95.922 111.549,101.787 116.53,95.922 119.543,95.922 114.931,101.787 
		119.788,109.727 116.623,109.727 113.25,103.457 113.047,103.473 111.483,105.451 111.487,109.727 108.598,109.727 	"/>
	<polygon fill="#4A4A4A" points="120.98,95.922 130.136,95.922 130.136,98.5 123.795,98.5 123.795,101.564 128.925,101.564 
		128.925,104.164 123.688,104.164 123.688,107.229 130.136,107.229 130.136,109.727 120.98,109.727 	"/>
	<polygon fill="#4A4A4A" points="131.24,95.922 140.858,95.922 140.858,98.607 137.51,98.607 137.51,109.727 134.661,109.727 
		134.661,98.678 131.24,98.678 	"/>
</g>
</svg>
