<?xml version="1.0" encoding="utf-8"?>
<!-- Generator: Adobe Illustrator 16.0.0, SVG Export Plug-In . SVG Version: 6.00 Build 0)  -->
<!DOCTYPE svg PUBLIC "-//W3C//DTD SVG 1.1//EN" "http://www.w3.org/Graphics/SVG/1.1/DTD/svg11.dtd">
<svg version="1.1" id="Capa_1" xmlns="http://www.w3.org/2000/svg" xmlns:xlink="http://www.w3.org/1999/xlink" x="0px" y="0px"
	 width="168px" height="168px" viewBox="0 0 168 168" enable-background="new 0 0 168 168" xml:space="preserve">
<g>
	<circle opacity="0.1" enable-background="new    " cx="84.238" cy="85.256" r="72"/>
	<g opacity="0.2">
		<g>
			<path d="M80.721,164.318c-2.369-0.104-4.758-0.313-7.099-0.627l0.264-1.981c2.283,0.306,4.612,0.51,6.923,0.611L80.721,164.318z
				 M87.85,164.314l-0.09-1.998c2.307-0.104,4.635-0.312,6.922-0.619l0.269,1.981C92.604,163.995,90.214,164.209,87.85,164.314z
				 M66.605,162.434c-2.312-0.523-4.625-1.16-6.876-1.89l0.617-1.901c2.193,0.711,4.448,1.33,6.7,1.84L66.605,162.434z
				 M101.964,162.41l-0.442-1.949c2.248-0.513,4.5-1.135,6.696-1.849l0.619,1.901C106.583,161.247,104.271,161.885,101.964,162.41z
				 M53.049,158.042c-2.174-0.929-4.335-1.97-6.426-3.095l0.947-1.762c2.038,1.097,4.146,2.111,6.264,3.017L53.049,158.042z
				 M115.509,158.009l-0.788-1.838c2.125-0.912,4.23-1.929,6.258-3.022l0.949,1.761C119.848,156.03,117.688,157.074,115.509,158.009
				z M40.503,151.289c-1.969-1.3-3.909-2.71-5.77-4.189l1.246-1.564c1.813,1.443,3.706,2.818,5.625,4.087L40.503,151.289z
				 M128.042,151.244l-1.104-1.668c1.926-1.274,3.815-2.65,5.619-4.092l1.248,1.562
				C131.956,148.525,130.018,149.938,128.042,151.244z M29.362,142.409c-1.713-1.636-3.372-3.368-4.932-5.148l1.504-1.317
				c1.521,1.736,3.139,3.426,4.809,5.02L29.362,142.409z M139.172,142.354l-1.383-1.444c1.67-1.599,3.286-3.288,4.804-5.024
				l1.507,1.316C142.542,138.98,140.884,140.715,139.172,142.354z M19.977,131.691c-1.395-1.911-2.72-3.91-3.938-5.941l1.715-1.029
				c1.188,1.98,2.479,3.93,3.839,5.795L19.977,131.691z M148.546,131.628l-1.616-1.178c1.355-1.863,2.646-3.814,3.834-5.8
				l1.717,1.027C151.262,127.714,149.938,129.716,148.546,131.628z M12.65,119.479c-1.031-2.134-1.977-4.336-2.811-6.551
				l1.871-0.705c0.813,2.157,1.735,4.307,2.74,6.385L12.65,119.479z M155.861,119.4l-1.801-0.868
				c1.002-2.076,1.922-4.228,2.734-6.392l1.873,0.702C157.835,115.064,156.891,117.271,155.861,119.4z M7.631,106.148
				c-0.632-2.285-1.166-4.623-1.588-6.951l1.969-0.355c0.41,2.268,0.931,4.547,1.547,6.773L7.631,106.148z M160.869,106.062
				l-1.928-0.531c0.61-2.223,1.129-4.504,1.539-6.776l1.969,0.354C162.027,101.441,161.497,103.78,160.869,106.062z M5.088,92.134
				c-0.211-2.35-0.319-4.745-0.322-7.12l2-0.002c0.003,2.315,0.108,4.651,0.314,6.942L5.088,92.134z M163.396,92.043l-1.992-0.176
				c0.203-2.299,0.308-4.635,0.308-6.943v-0.183h2v0.183C163.712,87.292,163.605,89.688,163.396,92.043z M7.064,78.067l-1.992-0.176
				c0.208-2.364,0.523-4.741,0.939-7.064l1.969,0.352C7.575,73.443,7.267,75.761,7.064,78.067z M161.389,77.8
				c-0.209-2.295-0.525-4.611-0.938-6.885l1.967-0.359c0.426,2.333,0.75,4.709,0.964,7.062L161.389,77.8z M9.512,64.4l-1.93-0.527
				c0.625-2.281,1.362-4.563,2.193-6.785l1.873,0.701C10.839,59.954,10.12,62.179,9.512,64.4z M158.893,64.143
				c-0.615-2.22-1.343-4.441-2.16-6.604l1.871-0.707c0.84,2.219,1.586,4.499,2.217,6.776L158.893,64.143z M14.376,51.395
				l-1.803-0.867c1.027-2.135,2.163-4.248,3.378-6.281l1.717,1.025C16.484,47.253,15.377,49.313,14.376,51.395z M153.986,51.157
				c-1.008-2.079-2.121-4.134-3.311-6.109l1.713-1.031c1.221,2.026,2.362,4.136,3.396,6.268L153.986,51.157z M21.494,39.468
				l-1.619-1.176c1.391-1.916,2.886-3.792,4.442-5.578l1.508,1.314C24.307,35.77,22.85,37.6,21.494,39.468z M146.83,39.258
				c-1.363-1.865-2.826-3.689-4.348-5.423l1.502-1.32c1.562,1.778,3.062,3.65,4.461,5.563L146.83,39.258z M30.622,28.999
				l-1.385-1.443c1.707-1.638,3.511-3.219,5.361-4.7l1.25,1.561C34.045,25.861,32.286,27.402,30.622,28.999z M137.669,28.821
				c-1.673-1.593-3.437-3.13-5.244-4.567l1.245-1.564c1.854,1.474,3.663,3.05,5.378,4.683L137.669,28.821z M41.462,20.318
				l-1.105-1.666c1.976-1.311,4.031-2.546,6.111-3.672l0.951,1.76C45.393,17.837,43.388,19.041,41.462,20.318z M126.798,20.174
				c-1.929-1.27-3.938-2.468-5.972-3.56l0.945-1.762c2.086,1.12,4.146,2.349,6.125,3.651L126.798,20.174z M53.673,13.712
				l-0.789-1.838c2.178-0.937,4.421-1.782,6.668-2.516l0.621,1.9C57.982,11.974,55.796,12.799,53.673,13.712z M114.559,13.606
				c-2.119-0.902-4.312-1.721-6.514-2.432l0.615-1.903c2.258,0.729,4.507,1.568,6.682,2.495L114.559,13.606z M66.869,9.403
				l-0.447-1.949c2.308-0.528,4.667-0.958,7.015-1.277l0.27,1.982C71.418,8.47,69.117,8.889,66.869,9.403z M101.343,9.343
				c-2.253-0.507-4.555-0.918-6.842-1.221l0.265-1.982c2.344,0.311,4.705,0.731,7.018,1.252L101.343,9.343z M80.627,7.531
				l-0.092-1.998c1.236-0.057,2.454-0.084,3.705-0.084c1.133,0,2.285,0.024,3.425,0.073L87.579,7.52
				c-1.131-0.047-2.253-0.084-3.399-0.071C83.007,7.449,81.812,7.477,80.627,7.531z"/>
		</g>
	</g>
</g>
<g id="logos">
	<path fill="#4A4A4A" d="M71.094,93.117V82.973c0-0.717-0.521-1.023-1.144-1.023c-1.237,0-2.786,0.308-4.188,0.924v10.245h-2.859
		V74.275h2.859v6.216c1.36-0.503,2.976-0.931,4.598-0.931c2.598,0,3.571,1.6,3.571,3.792v9.767h-2.836L71.094,93.117L71.094,93.117z
		 M79.261,86.97c0.099,3.411,0.766,4.079,2.861,4.079c1.646,0,3.501-0.552,4.934-1.096l0.473,2.144
		c-1.525,0.69-3.38,1.354-5.598,1.354c-4.763,0-5.504-2.614-5.504-6.784c0-2.29,0.172-4.358,0.716-6.265
		c1.435-0.552,3.337-0.84,5.744-0.84c3.907,0,5.095,2.175,5.095,5.959v1.45L79.261,86.97L79.261,86.97z M82.886,81.949
		c-0.856,0-2.216,0.018-3.337,0.233c-0.116,0.575-0.264,1.359-0.306,2.811h5.95C85.194,83.014,84.84,81.949,82.886,81.949
		L82.886,81.949z M93.338,82.873v10.245h-2.854v-11.53c2.4-1.311,4.953-1.715,6.618-1.83v2.381
		C95.936,82.229,94.459,82.378,93.338,82.873L93.338,82.873z M104.653,93.448c-4.262,0-6.188-2.094-6.188-6.883
		c0-5.07,2.547-7.005,6.188-7.005c4.271,0,6.198,2.101,6.198,6.889C110.851,91.519,108.297,93.448,104.653,93.448L104.653,93.448z
		 M104.653,81.949c-2.19,0-3.403,1.262-3.403,4.617c0,3.668,1.022,4.482,3.403,4.482c2.193,0,3.413-1.244,3.413-4.601
		C108.064,82.781,107.036,81.949,104.653,81.949L104.653,81.949z M124.642,93.117h-3.355c-0.789-2.095-1.888-4.236-3.577-6.099h-1.5
		v6.099h-2.859V74.275h2.859v10.815h1.335c1.451-1.5,2.573-3.356,3.354-5.193h3.215c-1.089,2.218-2.497,4.171-4.071,5.766
		C121.928,88.042,123.401,90.569,124.642,93.117L124.642,93.117z M129.999,93.448c-2.598,0-3.571-1.592-3.571-3.782v-9.77h2.835
		v10.122c0,0.717,0.521,1.03,1.139,1.03c1.243,0,2.934-0.313,4.335-0.932V79.896h2.859v11.48
		C134.217,93.242,131.621,93.448,129.999,93.448L129.999,93.448z"/>
	<path fill="#4A4A4A" d="M53.557,100.091H33.657c-1.701,0-3.08-1.376-3.08-3.078V70.858c0-1.7,1.378-3.079,3.08-3.079h19.899
		c1.702,0,3.087,1.379,3.087,3.079v26.153C56.643,98.715,55.259,100.091,53.557,100.091L53.557,100.091z M55.584,71.037
		c0-1.217-0.987-2.204-2.204-2.204H33.835c-1.218,0-2.204,0.987-2.204,2.204v25.798c0,1.216,0.986,2.203,2.204,2.203H53.38
		c1.217,0,2.204-0.985,2.204-2.203V71.037L55.584,71.037z"/>
	<path fill="#4A4A4A" d="M46.914,95.647V82.813c0,0,0.832-3.068-10.287,1.254c-0.02,0.055-0.02-11.867-0.02-11.867l3.632-0.018
		v7.637c0,0,10.171-4.005,10.171,3.036c0,7.049,0,12.793,0,12.793H46.914L46.914,95.647z M48.978,76.806c0,0-3.81,0-3.853,0
		c1.391-1.696,2.646-4.605,2.646-4.605h3.981C51.75,72.2,51.07,74.093,48.978,76.806L48.978,76.806z M36.675,95.628v-7.312
		l3.65,3.658L36.675,95.628L36.675,95.628z"/>
</g>
</svg>
