<?xml version="1.0" encoding="utf-8"?>
<!-- Generator: Adobe Illustrator 16.2.1, SVG Export Plug-In . SVG Version: 6.00 Build 0)  -->
<!DOCTYPE svg PUBLIC "-//W3C//DTD SVG 1.1//EN" "http://www.w3.org/Graphics/SVG/1.1/DTD/svg11.dtd">
<svg version="1.1" id="Capa_1" xmlns="http://www.w3.org/2000/svg" xmlns:xlink="http://www.w3.org/1999/xlink" x="0px" y="0px"
	 width="168px" height="168px" viewBox="0 0 168 168" enable-background="new 0 0 168 168" xml:space="preserve">
<g>
	<circle opacity="0.1" enable-background="new    " cx="83.986" cy="81.629" r="72"/>
	<g opacity="0.2">
		<g>
			<path d="M80.47,160.691c-2.369-0.104-4.758-0.313-7.099-0.627l0.264-1.981c2.283,0.306,4.612,0.51,6.923,0.61L80.47,160.691z
				 M87.598,160.688l-0.09-1.998c2.307-0.104,4.635-0.312,6.922-0.618l0.271,1.979C92.352,160.368,89.963,160.582,87.598,160.688z
				 M66.353,158.807c-2.312-0.521-4.625-1.16-6.876-1.89l0.617-1.901c2.193,0.711,4.448,1.33,6.7,1.84L66.353,158.807z
				 M101.713,158.783l-0.443-1.949c2.248-0.513,4.5-1.135,6.697-1.85l0.619,1.901C106.33,157.62,104.02,158.258,101.713,158.783z
				 M52.797,154.415c-2.174-0.929-4.335-1.97-6.426-3.095l0.947-1.762c2.038,1.097,4.146,2.108,6.264,3.017L52.797,154.415z
				 M115.258,154.382l-0.789-1.838c2.125-0.912,4.23-1.929,6.258-3.022l0.949,1.764
				C119.596,152.402,117.436,153.447,115.258,154.382z M40.251,147.662c-1.969-1.3-3.909-2.71-5.77-4.189l1.246-1.562
				c1.813,1.44,3.706,2.815,5.625,4.087L40.251,147.662z M127.789,147.617l-1.104-1.668c1.928-1.274,3.813-2.65,5.619-4.092
				l1.248,1.562C131.703,144.898,129.766,146.311,127.789,147.617z M29.11,138.782c-1.713-1.636-3.372-3.368-4.932-5.148
				l1.504-1.317c1.521,1.736,3.139,3.429,4.809,5.021L29.11,138.782z M138.92,138.727l-1.383-1.441
				c1.67-1.602,3.285-3.288,4.805-5.024l1.506,1.316C142.289,135.354,140.633,137.088,138.92,138.727z M19.725,128.064
				c-1.395-1.912-2.72-3.91-3.938-5.941l1.715-1.029c1.188,1.98,2.479,3.93,3.839,5.795L19.725,128.064z M148.295,128.001
				l-1.617-1.178c1.355-1.863,2.646-3.814,3.834-5.8l1.717,1.024C151.01,124.087,149.686,126.089,148.295,128.001z M12.398,115.852
				c-1.031-2.134-1.977-4.336-2.811-6.551l1.871-0.705c0.813,2.157,1.735,4.307,2.74,6.385L12.398,115.852z M155.609,115.773
				l-1.801-0.868c1.002-2.076,1.922-4.229,2.731-6.392l1.873,0.699C157.582,111.438,156.639,113.645,155.609,115.773z
				 M7.379,102.521c-0.632-2.285-1.166-4.623-1.588-6.951l1.969-0.355c0.41,2.268,0.931,4.547,1.547,6.773L7.379,102.521z
				 M160.617,102.436l-1.928-0.53c0.608-2.224,1.129-4.505,1.539-6.776l1.969,0.354C161.775,97.814,161.244,100.152,160.617,102.436
				z M4.836,88.507c-0.211-2.35-0.319-4.745-0.322-7.119l2-0.002c0.003,2.314,0.108,4.65,0.314,6.941L4.836,88.507z M163.145,88.416
				l-1.992-0.176c0.203-2.299,0.31-4.635,0.31-6.943v-0.183h2v0.183C163.461,83.665,163.354,86.061,163.145,88.416z M6.812,74.44
				L4.82,74.265C5.028,71.9,5.343,69.523,5.759,67.2l1.969,0.353C7.324,69.816,7.015,72.134,6.812,74.44z M161.137,74.173
				c-0.209-2.295-0.523-4.61-0.938-6.885l1.967-0.358c0.426,2.333,0.75,4.709,0.965,7.062L161.137,74.173z M9.261,60.773
				l-1.93-0.527c0.625-2.281,1.362-4.562,2.193-6.785l1.873,0.701C10.587,56.327,9.868,58.553,9.261,60.773z M158.641,60.517
				c-0.615-2.221-1.342-4.441-2.16-6.604l1.871-0.707c0.84,2.219,1.586,4.499,2.217,6.776L158.641,60.517z M14.124,47.769
				l-1.803-0.867c1.027-2.135,2.163-4.248,3.378-6.281l1.717,1.025C16.232,43.626,15.125,45.687,14.124,47.769z M153.734,47.53
				c-1.008-2.079-2.121-4.134-3.312-6.109l1.714-1.03c1.221,2.025,2.36,4.136,3.395,6.268L153.734,47.53z M21.242,35.841
				l-1.619-1.176c1.391-1.916,2.886-3.792,4.442-5.578l1.508,1.314C24.055,32.144,22.598,33.974,21.242,35.841z M146.578,35.631
				c-1.363-1.864-2.826-3.688-4.348-5.423l1.502-1.319c1.562,1.777,3.062,3.649,4.461,5.562L146.578,35.631z M30.37,25.372
				l-1.385-1.442c1.707-1.639,3.511-3.22,5.361-4.7l1.25,1.561C33.793,22.234,32.034,23.775,30.37,25.372z M137.416,25.194
				c-1.672-1.593-3.436-3.13-5.242-4.567l1.244-1.563c1.854,1.474,3.662,3.05,5.379,4.683L137.416,25.194z M41.21,16.691
				l-1.105-1.666c1.976-1.312,4.031-2.546,6.111-3.672l0.951,1.76C45.141,14.21,43.137,15.414,41.21,16.691z M126.547,16.547
				c-1.93-1.27-3.939-2.468-5.973-3.56l0.945-1.762c2.086,1.12,4.145,2.349,6.125,3.65L126.547,16.547z M53.421,10.085l-0.789-1.838
				C54.81,7.31,57.053,6.465,59.3,5.731l0.621,1.899C57.73,8.348,55.544,9.172,53.421,10.085z M114.307,9.979
				c-2.119-0.902-4.312-1.722-6.514-2.433l0.615-1.902c2.258,0.729,4.506,1.567,6.682,2.495L114.307,9.979z M66.617,5.776
				L66.17,3.827c2.308-0.528,4.667-0.958,7.015-1.277l0.27,1.982C71.166,4.843,68.866,5.263,66.617,5.776z M101.092,5.716
				c-2.254-0.507-4.557-0.918-6.844-1.221l0.266-1.981c2.344,0.311,4.705,0.73,7.021,1.252L101.092,5.716z M80.375,3.904
				l-0.092-1.998c1.236-0.057,2.454-0.084,3.705-0.084c1.133,0,2.286,0.023,3.424,0.073l-0.086,1.998
				c-1.131-0.047-2.252-0.084-3.398-0.071C82.755,3.822,81.56,3.851,80.375,3.904z"/>
		</g>
	</g>
</g>
<g>
	<path opacity="0.5" fill="#4A4A4A" d="M146.918,74.308c0.001-0.026-0.002-0.051-0.006-0.077c-0.001-0.007,0-0.014-0.001-0.021
		c0-0.005-0.003-0.012-0.004-0.019c-0.002-0.019-0.002-0.037-0.009-0.056l-0.509-1.725c-0.091-0.36-0.455-0.575-0.812-0.484
		c-0.295,0.074-0.49,0.332-0.501,0.62l-1.148-0.72c-0.431-0.268-0.999-0.135-1.266,0.299c-0.27,0.433-0.135,0.998,0.296,1.266
		l1.141,0.715c-0.198,0.142-0.316,0.386-0.276,0.645c0.057,0.366,0.397,0.618,0.763,0.562l1.766-0.34
		c0.297-0.045,0.514-0.277,0.558-0.557c0.002-0.012,0.003-0.021,0.004-0.03C146.916,74.361,146.919,74.335,146.918,74.308z"/>
	<path opacity="0.5" fill="#4A4A4A" d="M147.623,74.767c0.023,0.014,0.046,0.025,0.069,0.036c0.006,0.003,0.011,0.007,0.017,0.01
		c0.007,0.001,0.013,0.002,0.02,0.004c0.017,0.008,0.034,0.018,0.051,0.023l1.741,0.454c0.353,0.107,0.728-0.093,0.836-0.448
		c0.088-0.289-0.033-0.589-0.273-0.748l1.207-0.612c0.453-0.231,0.631-0.786,0.398-1.239c-0.232-0.451-0.785-0.63-1.238-0.398
		l-1.2,0.609c-0.019-0.244-0.169-0.471-0.409-0.571c-0.343-0.14-0.735,0.022-0.876,0.365l-0.619,1.688
		c-0.114,0.275-0.028,0.582,0.19,0.765c0.008,0.007,0.015,0.014,0.023,0.019C147.58,74.739,147.602,74.754,147.623,74.767z"/>
	<path opacity="0.5" fill="#4A4A4A" d="M146.835,75.054c-0.024,0.013-0.043,0.028-0.064,0.044c-0.006,0.005-0.011,0.007-0.017,0.012
		c-0.004,0.004-0.007,0.008-0.013,0.013c-0.015,0.012-0.03,0.023-0.043,0.038l-1.19,1.348c-0.256,0.266-0.246,0.691,0.021,0.947
		c0.22,0.209,0.542,0.237,0.792,0.096l0.001,1.351c0.004,0.509,0.417,0.919,0.926,0.917c0.509-0.002,0.918-0.417,0.915-0.925
		l-0.001-1.347c0.226,0.093,0.496,0.062,0.693-0.108c0.28-0.241,0.312-0.664,0.07-0.944l-1.227-1.315
		c-0.196-0.227-0.507-0.287-0.768-0.176c-0.011,0.004-0.021,0.008-0.029,0.013C146.879,75.027,146.855,75.04,146.835,75.054z"/>
	<path fill="#4A4A4A" d="M19.576,78.454h0.243v-1.405c0-0.377,0.01-0.673,0.029-0.888c0.019-0.213,0.072-0.398,0.158-0.551
		c0.086-0.161,0.21-0.29,0.373-0.39s0.342-0.15,0.544-0.15c0.281,0,0.535,0.111,0.761,0.334c0.151,0.149,0.248,0.33,0.288,0.544
		c0.041,0.213,0.061,0.519,0.061,0.912v1.594h0.811c0.312,0,0.552,0.079,0.717,0.237c0.165,0.157,0.248,0.358,0.248,0.604
		c0,0.314-0.118,0.535-0.353,0.66c-0.235,0.126-0.572,0.189-1.01,0.189h-0.413v4.303c0,0.364,0.012,0.646,0.037,0.844
		c0.024,0.199,0.089,0.358,0.194,0.48c0.105,0.123,0.277,0.185,0.515,0.185c0.13,0,0.305-0.025,0.526-0.073
		c0.222-0.049,0.396-0.073,0.52-0.073c0.178,0,0.338,0.077,0.482,0.228c0.143,0.153,0.215,0.341,0.215,0.562
		c0,0.376-0.195,0.667-0.583,0.864c-0.389,0.201-0.948,0.303-1.678,0.303c-0.692,0-1.216-0.125-1.573-0.37s-0.59-0.585-0.702-1.019
		c-0.11-0.437-0.166-1.017-0.166-1.741v-4.493h-0.291c-0.319,0-0.563-0.08-0.729-0.241c-0.169-0.16-0.252-0.363-0.252-0.608
		c0-0.245,0.088-0.447,0.264-0.604C18.986,78.532,19.24,78.454,19.576,78.454z"/>
	<path fill="#4A4A4A" d="M27.496,76.191v3.472c0.281-0.344,0.555-0.615,0.822-0.814c0.268-0.201,0.563-0.351,0.888-0.451
		c0.325-0.099,0.673-0.149,1.046-0.149c0.562,0,1.061,0.125,1.496,0.376c0.435,0.251,0.777,0.617,1.025,1.098
		c0.157,0.281,0.263,0.593,0.316,0.939c0.053,0.346,0.081,0.744,0.081,1.195v4.485c0,0.469-0.102,0.822-0.304,1.063
		c-0.202,0.237-0.471,0.36-0.807,0.36c-0.729,0-1.094-0.476-1.094-1.424v-3.953c0-0.749-0.105-1.324-0.316-1.727
		c-0.211-0.403-0.611-0.604-1.201-0.604c-0.395,0-0.75,0.118-1.066,0.355c-0.316,0.237-0.552,0.561-0.709,0.972
		c-0.119,0.35-0.178,0.97-0.178,1.861v3.096c0,0.461-0.098,0.815-0.296,1.059c-0.197,0.242-0.472,0.365-0.823,0.365
		c-0.73,0-1.094-0.476-1.094-1.424v-10.15c0-0.474,0.096-0.831,0.288-1.067c0.191-0.237,0.461-0.355,0.806-0.355
		c0.351,0,0.625,0.12,0.823,0.36C27.398,75.369,27.496,75.723,27.496,76.191z"/>
	<path fill="#4A4A4A" d="M41.538,83.58h-4.33c0.005,0.534,0.106,1.001,0.304,1.407c0.197,0.404,0.459,0.711,0.786,0.916
		c0.326,0.206,0.688,0.308,1.083,0.308c0.264,0,0.506-0.031,0.725-0.1c0.219-0.063,0.431-0.165,0.637-0.308
		c0.205-0.14,0.395-0.288,0.567-0.447c0.172-0.16,0.397-0.378,0.672-0.652c0.114-0.104,0.276-0.156,0.487-0.156
		c0.227,0,0.411,0.068,0.551,0.198c0.14,0.133,0.21,0.317,0.21,0.558c0,0.212-0.079,0.458-0.235,0.742
		c-0.156,0.282-0.393,0.553-0.708,0.813c-0.317,0.26-0.714,0.476-1.192,0.646c-0.479,0.172-1.029,0.26-1.65,0.26
		c-1.421,0-2.526-0.431-3.315-1.289c-0.789-0.855-1.184-2.019-1.184-3.487c0-0.692,0.097-1.333,0.292-1.925
		c0.194-0.591,0.478-1.099,0.851-1.521c0.373-0.422,0.832-0.748,1.378-0.974s1.151-0.339,1.816-0.339
		c0.864,0,1.606,0.194,2.225,0.58c0.618,0.387,1.082,0.885,1.39,1.496s0.462,1.235,0.462,1.868c0,0.589-0.16,0.971-0.478,1.144
		C42.563,83.493,42.116,83.58,41.538,83.58z M37.208,82.252h4.012c-0.054-0.8-0.258-1.399-0.611-1.797
		c-0.354-0.397-0.82-0.595-1.398-0.595c-0.552,0-1.005,0.202-1.358,0.604C37.498,80.868,37.284,81.463,37.208,82.252z"/>
	<path opacity="0.5" fill="#4A4A4A" d="M47.39,76.191v3.472c0.281-0.344,0.556-0.615,0.823-0.814
		c0.268-0.201,0.563-0.351,0.888-0.451c0.325-0.099,0.673-0.149,1.045-0.149c0.563,0,1.061,0.125,1.496,0.376
		c0.435,0.251,0.777,0.617,1.026,1.098c0.156,0.281,0.262,0.593,0.315,0.939s0.082,0.744,0.082,1.195v4.485
		c0,0.469-0.102,0.822-0.304,1.063c-0.203,0.237-0.471,0.36-0.807,0.36c-0.729,0-1.094-0.476-1.094-1.424v-3.953
		c0-0.749-0.106-1.324-0.317-1.727c-0.21-0.403-0.611-0.604-1.2-0.604c-0.395,0-0.749,0.118-1.065,0.355s-0.553,0.561-0.709,0.972
		c-0.12,0.35-0.179,0.97-0.179,1.861v3.096c0,0.461-0.098,0.815-0.296,1.059c-0.196,0.242-0.471,0.365-0.822,0.365
		c-0.73,0-1.094-0.476-1.094-1.424v-10.15c0-0.474,0.096-0.831,0.287-1.067c0.191-0.237,0.462-0.355,0.807-0.355
		c0.351,0,0.625,0.12,0.822,0.36C47.292,75.369,47.39,75.723,47.39,76.191z"/>
	<path opacity="0.5" fill="#4A4A4A" d="M57.297,88.056l0.202-0.522l-2.724-7.253c-0.167-0.417-0.251-0.72-0.251-0.91
		c0-0.199,0.048-0.384,0.146-0.557c0.098-0.171,0.231-0.309,0.402-0.411c0.17-0.103,0.347-0.154,0.531-0.154
		c0.318,0,0.559,0.106,0.721,0.321c0.163,0.214,0.306,0.521,0.43,0.922l1.872,5.761l1.776-5.359c0.14-0.435,0.268-0.773,0.38-1.02
		c0.114-0.247,0.234-0.412,0.361-0.498c0.127-0.085,0.307-0.128,0.54-0.128c0.167,0,0.328,0.047,0.481,0.141
		c0.154,0.094,0.273,0.221,0.357,0.382c0.083,0.16,0.125,0.329,0.125,0.505c-0.022,0.108-0.056,0.262-0.105,0.462
		c-0.049,0.201-0.108,0.403-0.178,0.609l-2.886,7.989c-0.249,0.703-0.491,1.254-0.73,1.655c-0.237,0.398-0.552,0.708-0.944,0.921
		c-0.392,0.214-0.92,0.322-1.585,0.322c-0.649,0-1.135-0.074-1.459-0.223c-0.325-0.149-0.487-0.422-0.487-0.816
		c0-0.267,0.078-0.474,0.232-0.62c0.154-0.146,0.381-0.219,0.684-0.219c0.119,0,0.235,0.016,0.349,0.052
		c0.141,0.034,0.262,0.052,0.365,0.052c0.254,0,0.454-0.041,0.6-0.121c0.146-0.081,0.277-0.218,0.393-0.414
		C57.012,88.728,57.145,88.438,57.297,88.056z"/>
	<path opacity="0.5" fill="#4A4A4A" d="M66.294,76.106v3.575c0.417-0.457,0.841-0.808,1.273-1.051
		c0.432-0.242,0.968-0.364,1.605-0.364c0.736,0,1.38,0.185,1.934,0.554c0.554,0.367,0.983,0.902,1.289,1.601
		c0.305,0.7,0.459,1.531,0.459,2.491c0,0.708-0.086,1.359-0.256,1.951c-0.17,0.591-0.417,1.104-0.742,1.537
		c-0.324,0.435-0.717,0.771-1.18,1.006c-0.463,0.238-0.971,0.359-1.528,0.359c-0.34,0-0.66-0.045-0.959-0.129
		c-0.301-0.088-0.557-0.2-0.767-0.341c-0.21-0.139-0.39-0.282-0.538-0.433c-0.149-0.15-0.344-0.37-0.589-0.667v0.229
		c0,0.44-0.1,0.774-0.3,0.999c-0.2,0.226-0.454,0.341-0.762,0.341c-0.313,0-0.563-0.115-0.75-0.341
		c-0.187-0.225-0.28-0.559-0.28-0.999V76.208c0-0.474,0.09-0.833,0.271-1.075c0.182-0.244,0.434-0.365,0.758-0.365
		c0.341,0,0.603,0.116,0.788,0.347C66.204,75.347,66.294,75.676,66.294,76.106z M66.401,83.057c0,0.933,0.201,1.649,0.603,2.148
		c0.403,0.5,0.932,0.75,1.585,0.75c0.557,0,1.037-0.255,1.439-0.769c0.402-0.511,0.604-1.242,0.604-2.197
		c0-0.617-0.083-1.149-0.251-1.595s-0.404-0.79-0.713-1.032c-0.308-0.243-0.667-0.364-1.079-0.364c-0.42,0-0.796,0.122-1.126,0.364
		c-0.331,0.242-0.589,0.593-0.779,1.054S66.401,82.424,66.401,83.057z"/>
	<path opacity="0.5" fill="#4A4A4A" d="M76.826,84.386v1.956c0,0.473-0.106,0.829-0.316,1.064c-0.21,0.238-0.478,0.359-0.802,0.359
		c-0.319,0-0.582-0.123-0.786-0.36c-0.207-0.241-0.309-0.595-0.309-1.063v-6.516c0-1.051,0.359-1.577,1.078-1.577
		c0.368,0,0.633,0.123,0.794,0.368c0.163,0.246,0.252,0.608,0.269,1.089c0.264-0.48,0.536-0.843,0.813-1.089
		c0.279-0.246,0.65-0.368,1.116-0.368c0.464,0,0.916,0.123,1.353,0.368c0.438,0.246,0.657,0.571,0.657,0.978
		c0,0.286-0.094,0.521-0.28,0.707c-0.186,0.186-0.388,0.279-0.604,0.279c-0.082,0-0.277-0.053-0.588-0.16
		c-0.311-0.104-0.585-0.159-0.822-0.159c-0.325,0-0.589,0.09-0.794,0.271c-0.206,0.181-0.365,0.448-0.478,0.803
		c-0.114,0.354-0.192,0.775-0.234,1.264C76.847,83.087,76.826,83.683,76.826,84.386z"/>
	<path opacity="0.5" fill="#4A4A4A" d="M83.019,77.159c-0.308,0-0.571-0.099-0.791-0.3c-0.218-0.2-0.329-0.483-0.329-0.848
		c0-0.332,0.113-0.604,0.336-0.819c0.226-0.213,0.486-0.32,0.783-0.32c0.286,0,0.541,0.097,0.762,0.29
		c0.222,0.195,0.332,0.479,0.332,0.849c0,0.36-0.108,0.642-0.324,0.845C83.573,77.058,83.315,77.159,83.019,77.159z M84.113,79.577
		v6.765c0,0.469-0.105,0.822-0.318,1.063c-0.209,0.237-0.476,0.36-0.801,0.36c-0.323,0-0.587-0.125-0.79-0.37
		S81.9,86.798,81.9,86.342v-6.695c0-0.464,0.102-0.812,0.305-1.047c0.203-0.234,0.467-0.351,0.79-0.351
		c0.325,0,0.592,0.117,0.801,0.351C84.008,78.834,84.113,79.159,84.113,79.577z"/>
	<path opacity="0.5" fill="#4A4A4A" d="M92.463,86.426v-0.229c-0.298,0.357-0.59,0.652-0.878,0.878
		c-0.291,0.225-0.604,0.396-0.941,0.513c-0.339,0.12-0.707,0.179-1.107,0.179c-0.529,0-1.02-0.121-1.469-0.359
		c-0.454-0.235-0.845-0.573-1.175-1.015c-0.327-0.439-0.578-0.957-0.748-1.551c-0.17-0.595-0.256-1.238-0.256-1.929
		c0-1.463,0.338-2.604,1.014-3.42c0.676-0.818,1.564-1.226,2.668-1.226c0.637,0,1.175,0.116,1.611,0.348
		c0.439,0.232,0.865,0.586,1.281,1.067v-3.456c0-0.48,0.091-0.842,0.272-1.088c0.18-0.246,0.438-0.368,0.774-0.368
		c0.335,0,0.593,0.113,0.774,0.339c0.181,0.226,0.271,0.558,0.271,0.999v10.32c0,0.447-0.098,0.781-0.292,1.003
		c-0.195,0.224-0.446,0.337-0.754,0.337c-0.305,0-0.555-0.118-0.75-0.35C92.562,87.184,92.463,86.855,92.463,86.426z M88.109,82.989
		c0,0.634,0.095,1.173,0.28,1.619c0.187,0.445,0.442,0.781,0.766,1.009c0.325,0.226,0.679,0.338,1.063,0.338
		c0.39,0,0.742-0.106,1.063-0.322c0.322-0.214,0.579-0.543,0.772-0.985c0.191-0.442,0.287-0.995,0.287-1.658
		c0-0.623-0.096-1.158-0.287-1.607c-0.193-0.448-0.453-0.792-0.778-1.029c-0.328-0.237-0.688-0.354-1.075-0.354
		c-0.407,0-0.768,0.122-1.086,0.364c-0.319,0.242-0.566,0.591-0.743,1.045C88.198,81.862,88.109,82.389,88.109,82.989z"/>
	<path fill="#4A4A4A" d="M104.915,79.963v6.797c0,0.778-0.078,1.445-0.234,2.007c-0.158,0.561-0.408,1.024-0.754,1.389
		c-0.347,0.364-0.8,0.638-1.358,0.815c-0.559,0.176-1.256,0.266-2.088,0.266c-0.761,0-1.443-0.113-2.042-0.341
		c-0.601-0.225-1.062-0.516-1.387-0.873c-0.325-0.358-0.486-0.725-0.486-1.103c0-0.284,0.093-0.518,0.274-0.698
		c0.186-0.18,0.406-0.27,0.665-0.27c0.325,0,0.608,0.151,0.853,0.454c0.117,0.153,0.242,0.311,0.368,0.468
		c0.127,0.157,0.268,0.292,0.422,0.402c0.155,0.111,0.339,0.195,0.556,0.249c0.215,0.054,0.464,0.08,0.745,0.08
		c0.574,0,1.018-0.083,1.334-0.251c0.315-0.17,0.538-0.405,0.664-0.707c0.127-0.305,0.202-0.629,0.225-0.973
		c0.02-0.348,0.036-0.903,0.048-1.668c-0.341,0.502-0.735,0.887-1.18,1.147c-0.445,0.264-0.979,0.395-1.593,0.395
		c-0.741,0-1.389-0.2-1.94-0.6c-0.556-0.399-0.98-0.96-1.279-1.681c-0.297-0.721-0.443-1.551-0.443-2.494
		c0-0.702,0.09-1.337,0.27-1.903c0.183-0.565,0.44-1.042,0.774-1.43c0.335-0.39,0.723-0.682,1.159-0.879
		c0.438-0.196,0.919-0.296,1.443-0.296c0.627,0,1.171,0.126,1.63,0.381c0.459,0.254,0.886,0.653,1.279,1.196v-0.318
		c0-0.404,0.096-0.719,0.284-0.943c0.188-0.222,0.433-0.333,0.731-0.333c0.425,0,0.709,0.147,0.85,0.441
		C104.845,78.984,104.915,79.409,104.915,79.963z M98.503,82.929c0,0.948,0.196,1.666,0.587,2.153
		c0.394,0.486,0.899,0.727,1.521,0.727c0.368,0,0.715-0.104,1.041-0.312c0.328-0.208,0.594-0.523,0.8-0.942
		c0.205-0.42,0.308-0.931,0.308-1.53c0-0.955-0.199-1.697-0.595-2.23c-0.397-0.531-0.922-0.795-1.57-0.795
		c-0.632,0-1.14,0.253-1.518,0.763C98.692,81.269,98.503,81.991,98.503,82.929z"/>
	<path fill="#4A4A4A" d="M109.13,84.386v1.956c0,0.473-0.104,0.829-0.315,1.064c-0.21,0.238-0.479,0.359-0.802,0.359
		c-0.318,0-0.58-0.123-0.786-0.36c-0.206-0.241-0.308-0.595-0.308-1.063v-6.516c0-1.051,0.358-1.577,1.076-1.577
		c0.368,0,0.633,0.123,0.795,0.368c0.162,0.246,0.251,0.608,0.269,1.089c0.264-0.48,0.535-0.843,0.814-1.089
		c0.278-0.246,0.649-0.368,1.114-0.368s0.916,0.123,1.353,0.368c0.438,0.246,0.659,0.571,0.659,0.978
		c0,0.286-0.095,0.521-0.28,0.707c-0.187,0.186-0.389,0.279-0.604,0.279c-0.082,0-0.276-0.053-0.588-0.16
		c-0.311-0.104-0.586-0.159-0.823-0.159c-0.323,0-0.588,0.09-0.795,0.271c-0.204,0.181-0.364,0.448-0.479,0.803
		c-0.113,0.354-0.189,0.775-0.233,1.264C109.152,83.087,109.13,83.683,109.13,84.386z"/>
	<path fill="#4A4A4A" d="M121.857,83.006c0,0.698-0.103,1.339-0.309,1.929c-0.204,0.587-0.502,1.094-0.891,1.517
		s-0.854,0.748-1.394,0.973c-0.542,0.226-1.15,0.341-1.823,0.341s-1.275-0.115-1.81-0.346c-0.536-0.228-0.998-0.557-1.39-0.981
		s-0.689-0.927-0.892-1.508c-0.204-0.581-0.305-1.223-0.305-1.924c0-0.709,0.102-1.357,0.309-1.946
		c0.206-0.588,0.499-1.092,0.884-1.509c0.383-0.417,0.849-0.737,1.394-0.963c0.546-0.226,1.148-0.338,1.81-0.338
		c0.669,0,1.275,0.114,1.823,0.343c0.546,0.228,1.013,0.554,1.402,0.977c0.389,0.423,0.685,0.926,0.888,1.508
		C121.756,81.66,121.857,82.303,121.857,83.006z M119.638,83.006c0-0.955-0.198-1.697-0.597-2.228
		c-0.396-0.533-0.931-0.799-1.6-0.799c-0.434,0-0.814,0.12-1.144,0.357c-0.329,0.236-0.585,0.586-0.762,1.048
		c-0.179,0.464-0.269,1.003-0.269,1.621c0,0.612,0.088,1.146,0.263,1.602c0.176,0.46,0.428,0.808,0.756,1.052
		c0.326,0.243,0.712,0.362,1.155,0.362c0.669,0,1.203-0.266,1.6-0.801C119.439,84.688,119.638,83.949,119.638,83.006z"/>
	<path fill="#4A4A4A" d="M129.348,86.442v-0.299c-0.263,0.354-0.541,0.65-0.834,0.892c-0.292,0.241-0.61,0.418-0.956,0.536
		c-0.346,0.116-0.741,0.175-1.183,0.175c-0.536,0-1.016-0.116-1.44-0.351c-0.425-0.233-0.753-0.559-0.984-0.97
		c-0.275-0.496-0.413-1.211-0.413-2.141v-4.639c0-0.468,0.101-0.819,0.299-1.051c0.199-0.23,0.466-0.347,0.795-0.347
		c0.335,0,0.605,0.117,0.812,0.351c0.204,0.234,0.308,0.583,0.308,1.047v3.745c0,0.544,0.043,0.999,0.129,1.369
		c0.086,0.369,0.243,0.656,0.466,0.867c0.225,0.206,0.53,0.312,0.913,0.312c0.371,0,0.724-0.118,1.053-0.353
		c0.331-0.233,0.571-0.538,0.723-0.917c0.124-0.333,0.186-1.058,0.186-2.178v-2.845c0-0.464,0.103-0.812,0.308-1.047
		c0.206-0.234,0.473-0.351,0.803-0.351s0.596,0.116,0.795,0.347c0.2,0.232,0.301,0.583,0.301,1.051v6.779
		c0,0.447-0.097,0.781-0.289,1.003c-0.191,0.224-0.438,0.337-0.74,0.337c-0.306,0-0.554-0.118-0.751-0.35
		C129.447,87.184,129.348,86.861,129.348,86.442z"/>
	<path fill="#4A4A4A" d="M135.672,79.56v0.283c0.416-0.543,0.849-0.942,1.298-1.196c0.448-0.255,0.957-0.381,1.523-0.381
		c0.681,0,1.307,0.186,1.882,0.557c0.571,0.371,1.025,0.914,1.356,1.629c0.332,0.715,0.499,1.56,0.499,2.538
		c0,0.719-0.096,1.381-0.288,1.983c-0.191,0.604-0.454,1.11-0.791,1.518c-0.334,0.41-0.73,0.723-1.187,0.944
		c-0.457,0.22-0.947,0.331-1.472,0.331c-0.632,0-1.163-0.136-1.592-0.404c-0.431-0.271-0.84-0.663-1.229-1.184v3.514
		c0,1.028-0.354,1.545-1.062,1.545c-0.415,0-0.691-0.133-0.826-0.398c-0.135-0.267-0.203-0.653-0.203-1.162V79.577
		c0-0.446,0.092-0.777,0.275-0.999c0.184-0.22,0.435-0.329,0.754-0.329c0.313,0,0.569,0.112,0.768,0.338
		C135.573,78.814,135.672,79.138,135.672,79.56z M140.01,82.964c0-0.618-0.089-1.147-0.268-1.591
		c-0.18-0.443-0.426-0.783-0.742-1.021c-0.317-0.237-0.666-0.354-1.05-0.354c-0.612,0-1.126,0.253-1.545,0.763
		c-0.419,0.508-0.628,1.256-0.628,2.246c0,0.931,0.209,1.657,0.625,2.171c0.415,0.518,0.932,0.777,1.548,0.777
		c0.367,0,0.709-0.112,1.021-0.338c0.312-0.228,0.565-0.565,0.754-1.018C139.916,84.149,140.01,83.603,140.01,82.964z"/>
</g>
</svg>
