<?xml version="1.0" encoding="utf-8"?>
<!-- Generator: Adobe Illustrator 16.0.0, SVG Export Plug-In . SVG Version: 6.00 Build 0)  -->
<!DOCTYPE svg PUBLIC "-//W3C//DTD SVG 1.1//EN" "http://www.w3.org/Graphics/SVG/1.1/DTD/svg11.dtd">
<svg version="1.1" id="Capa_1" xmlns="http://www.w3.org/2000/svg" xmlns:xlink="http://www.w3.org/1999/xlink" x="0px" y="0px"
	 width="168px" height="168px" viewBox="0 0 168 168" enable-background="new 0 0 168 168" xml:space="preserve">
<g>
	<circle opacity="0.1" enable-background="new    " cx="83.986" cy="81.629" r="72"/>
	<g opacity="0.2">
		<g>
			<path d="M80.47,160.691c-2.369-0.104-4.758-0.313-7.099-0.627l0.264-1.981c2.283,0.306,4.612,0.51,6.923,0.61L80.47,160.691z
				 M87.598,160.688l-0.09-1.998c2.307-0.104,4.635-0.312,6.922-0.619l0.27,1.979C92.352,160.368,89.963,160.582,87.598,160.688z
				 M66.353,158.807c-2.312-0.521-4.625-1.16-6.876-1.89l0.617-1.901c2.193,0.711,4.448,1.33,6.7,1.84L66.353,158.807z
				 M101.713,158.783l-0.443-1.949c2.248-0.513,4.5-1.135,6.697-1.85l0.619,1.902C106.33,157.62,104.02,158.258,101.713,158.783z
				 M52.797,154.415c-2.174-0.929-4.335-1.97-6.426-3.095l0.947-1.762c2.038,1.097,4.146,2.109,6.264,3.017L52.797,154.415z
				 M115.258,154.382l-0.789-1.838c2.125-0.912,4.23-1.929,6.258-3.022l0.949,1.763
				C119.596,152.403,117.436,153.447,115.258,154.382z M40.251,147.662c-1.969-1.3-3.909-2.71-5.77-4.189l1.246-1.562
				c1.813,1.441,3.706,2.816,5.625,4.087L40.251,147.662z M127.789,147.617l-1.104-1.668c1.928-1.274,3.814-2.65,5.619-4.092
				l1.248,1.562C131.703,144.898,129.766,146.311,127.789,147.617z M29.11,138.782c-1.713-1.636-3.372-3.368-4.932-5.148
				l1.504-1.317c1.521,1.736,3.139,3.428,4.809,5.021L29.11,138.782z M138.92,138.727l-1.383-1.442
				c1.67-1.601,3.285-3.288,4.805-5.024l1.506,1.316C142.289,135.354,140.633,137.088,138.92,138.727z M19.725,128.064
				c-1.395-1.912-2.72-3.91-3.938-5.941l1.715-1.029c1.188,1.98,2.479,3.93,3.839,5.795L19.725,128.064z M148.295,128.001
				l-1.617-1.178c1.355-1.863,2.646-3.814,3.834-5.8l1.717,1.025C151.01,124.087,149.686,126.089,148.295,128.001z M12.398,115.852
				c-1.031-2.134-1.977-4.336-2.811-6.551l1.871-0.705c0.813,2.157,1.735,4.307,2.74,6.385L12.398,115.852z M155.609,115.773
				l-1.801-0.868c1.002-2.076,1.922-4.228,2.732-6.392l1.873,0.7C157.582,111.438,156.639,113.645,155.609,115.773z M7.379,102.521
				c-0.632-2.285-1.166-4.623-1.588-6.951l1.969-0.355c0.41,2.268,0.931,4.547,1.547,6.773L7.379,102.521z M160.617,102.436
				l-1.928-0.531c0.609-2.223,1.129-4.504,1.539-6.776l1.969,0.354C161.775,97.814,161.244,100.153,160.617,102.436z M4.836,88.507
				c-0.211-2.35-0.319-4.745-0.322-7.119l2-0.002c0.003,2.314,0.108,4.65,0.314,6.941L4.836,88.507z M163.145,88.416l-1.992-0.176
				c0.203-2.299,0.309-4.635,0.309-6.943v-0.183h2v0.183C163.461,83.665,163.354,86.061,163.145,88.416z M6.812,74.44L4.82,74.265
				C5.028,71.9,5.343,69.523,5.759,67.2l1.969,0.353C7.324,69.816,7.015,72.134,6.812,74.44z M161.137,74.173
				c-0.209-2.295-0.523-4.61-0.938-6.885l1.967-0.358c0.426,2.333,0.75,4.709,0.965,7.062L161.137,74.173z M9.261,60.773
				l-1.93-0.527c0.625-2.281,1.362-4.562,2.193-6.785l1.873,0.701C10.587,56.327,9.868,58.553,9.261,60.773z M158.641,60.517
				c-0.615-2.221-1.342-4.441-2.16-6.604l1.871-0.707c0.84,2.219,1.586,4.499,2.217,6.776L158.641,60.517z M14.124,47.769
				l-1.803-0.867c1.027-2.135,2.163-4.248,3.378-6.281l1.717,1.025C16.232,43.626,15.125,45.687,14.124,47.769z M153.734,47.53
				c-1.008-2.079-2.121-4.134-3.311-6.109l1.713-1.03c1.221,2.025,2.361,4.136,3.396,6.268L153.734,47.53z M21.242,35.841
				l-1.619-1.176c1.391-1.916,2.886-3.792,4.442-5.578l1.508,1.314C24.055,32.144,22.598,33.974,21.242,35.841z M146.578,35.631
				c-1.363-1.864-2.826-3.688-4.348-5.423l1.502-1.319c1.562,1.777,3.062,3.649,4.461,5.562L146.578,35.631z M30.37,25.372
				l-1.385-1.442c1.707-1.639,3.511-3.22,5.361-4.7l1.25,1.561C33.793,22.234,32.034,23.775,30.37,25.372z M137.416,25.194
				c-1.672-1.593-3.436-3.13-5.242-4.567l1.244-1.563c1.854,1.474,3.662,3.05,5.379,4.683L137.416,25.194z M41.21,16.691
				l-1.105-1.666c1.976-1.312,4.031-2.546,6.111-3.672l0.951,1.76C45.141,14.21,43.137,15.414,41.21,16.691z M126.547,16.547
				c-1.93-1.27-3.939-2.468-5.973-3.56l0.945-1.762c2.086,1.12,4.145,2.349,6.125,3.65L126.547,16.547z M53.421,10.085l-0.789-1.838
				c2.178-0.937,4.421-1.782,6.668-2.516l0.621,1.899C57.73,8.348,55.544,9.172,53.421,10.085z M114.307,9.979
				c-2.119-0.902-4.312-1.722-6.514-2.433l0.615-1.902c2.258,0.729,4.506,1.567,6.682,2.495L114.307,9.979z M66.617,5.776
				L66.17,3.827c2.308-0.528,4.667-0.958,7.015-1.277l0.27,1.982C71.166,4.843,68.866,5.263,66.617,5.776z M101.092,5.716
				c-2.254-0.507-4.557-0.918-6.844-1.221l0.266-1.981c2.344,0.311,4.705,0.73,7.02,1.252L101.092,5.716z M80.375,3.904
				l-0.092-1.998c1.236-0.057,2.454-0.084,3.705-0.084c1.133,0,2.285,0.024,3.424,0.073l-0.086,1.998
				c-1.131-0.047-2.252-0.084-3.398-0.071C82.755,3.822,81.56,3.851,80.375,3.904z"/>
		</g>
	</g>
</g>
<g>
	<path fill="#4A4A4A" d="M91.19,90.628c-0.269,0-0.509,0.113-0.681,0.293c-1.443,1.288-3.346,2.074-5.436,2.074
		c-4.509,0-8.164-3.655-8.164-8.163c0-4.509,3.655-8.165,8.164-8.165c2.179,0,4.193,0.825,5.657,2.215l0,0
		c0.171,0.17,0.405,0.276,0.667,0.276c0.52,0,0.942-0.422,0.942-0.944c0-0.17-0.051-0.328-0.129-0.466l0,0
		c-1.833-1.85-4.328-3.03-7.138-3.03c-5.584,0-10.112,4.528-10.112,10.113c0,5.584,4.527,10.111,10.112,10.111
		c2.645,0,5.002-1.07,6.804-2.733l0,0c0.156-0.168,0.255-0.392,0.255-0.639C92.133,91.051,91.71,90.628,91.19,90.628z"/>
	<path fill="#4A4A4A" d="M112.428,82.958c0-0.498-0.385-0.9-0.872-0.937v-0.007h-3.427c-0.52,0-0.942,0.423-0.942,0.943
		s0.423,0.942,0.942,0.942c0.014,0,0.027-0.003,0.039-0.003h3.279c0.013,0,0.025,0.003,0.037,0.003c0.016,0,0.025-0.003,0.04-0.003
		h0.031v-0.003C112.043,83.857,112.428,83.455,112.428,82.958z"/>
	<path fill="#4A4A4A" d="M111.696,93.931c0-0.49-0.376-0.891-0.856-0.935c-0.002-0.003-0.002-0.007-0.004-0.011
		c-0.023,0.005-0.044,0.006-0.063,0.005c-0.004-0.001-0.008-0.002-0.014-0.002c-0.175-0.018-0.226-0.235-0.234-0.418
		c0,0,0,0,0-0.001h0.007v-12.73c0-0.521-0.421-0.942-0.942-0.942c-0.52,0-0.942,0.422-0.942,0.942c0,0.013,0.004,0.025,0.004,0.039
		V92.46c0,0.013-0.004,0.026-0.004,0.039s0.004,0.025,0.004,0.039v0.031h0.003c0.002,0.02,0.008,0.039,0.011,0.058
		c0.131,1.927,1.49,2.23,2.073,2.246c0.006,0,0.012,0.002,0.018,0.002c0.002,0,0.004-0.001,0.008-0.001
		c0.008,0,0.019,0.001,0.025,0.001v-0.004C111.292,94.854,111.696,94.44,111.696,93.931z"/>
	<path fill="#4A4A4A" d="M102.534,84.286c-2.936,0-5.313,2.338-5.313,5.224c0,2.887,2.378,5.225,5.313,5.225
		s5.312-2.338,5.312-5.225C107.847,86.624,105.47,84.286,102.534,84.286z M102.568,92.981c-1.938,0-3.507-1.571-3.507-3.508
		c0-1.938,1.569-3.509,3.507-3.509c1.938,0,3.509,1.57,3.509,3.509C106.077,91.41,104.507,92.981,102.568,92.981z"/>
	<path fill="#4A4A4A" d="M56.914,84.286c-2.936,0-5.314,2.338-5.314,5.224c0,2.887,2.379,5.225,5.314,5.225
		c2.935,0,5.314-2.338,5.314-5.225C62.228,86.624,59.849,84.286,56.914,84.286z M56.948,92.981c-1.938,0-3.508-1.571-3.508-3.508
		c0-1.938,1.571-3.509,3.508-3.509c1.938,0,3.508,1.57,3.508,3.509C60.457,91.41,58.886,92.981,56.948,92.981z"/>
	<path fill="#4A4A4A" d="M94.274,77.925c-0.432,0-0.781,0.35-0.781,0.782c0,0.371,0.258,0.678,0.603,0.759v0.001
		c0.17,0.171,0.179,0.417,0.179,0.898c0,0.482,0,13.609,0,13.609h0.006c0.024,0.464,0.404,0.831,0.876,0.831
		c0.47,0,0.849-0.367,0.874-0.831h0.006c0,0,0-11.151,0-13.677S94.274,77.925,94.274,77.925z"/>
	<path fill="#4A4A4A" d="M74,93.264v-0.002c-0.171-0.171-0.18-0.417-0.18-0.898c0-0.365,0-9.017,0-12.667
		c0,0-0.039-0.217,0.159-0.354l0-0.001c0.163-0.146,0.268-0.356,0.268-0.592c0-0.442-0.357-0.799-0.799-0.799
		c-0.113,0-0.22,0.024-0.317,0.066v-0.001c0,0-1.071,0.279-1.071,1.682c0,1.443,0,3.705,0,5.952
		c-0.944-0.845-2.193-1.362-3.57-1.362c-2.935,0-5.314,2.338-5.314,5.224c0,2.887,2.379,5.225,5.314,5.225
		c1.417,0,2.702-0.548,3.655-1.438c0.35,1.622,1.676,1.508,1.676,1.508c0.432,0,0.782-0.35,0.782-0.781
		C74.602,93.652,74.344,93.345,74,93.264z M68.523,92.981c-1.938,0-3.508-1.571-3.508-3.508c0-1.938,1.57-3.509,3.508-3.509
		c1.938,0,3.509,1.57,3.509,3.509C72.032,91.41,70.461,92.981,68.523,92.981z"/>
	<path fill="#4A4A4A" d="M123.303,92.885c-0.156-0.156-0.027-0.809-0.027-1.388c0-0.195,0-0.722,0-3.347l0,0
		c0-2.304-2.635-3.979-4.603-3.979c-1.26,0-2.391,0.542-3.181,1.401c0-2.268,0-4.351,0-5.276c0-2.526-1.762-2.372-1.762-2.372
		c-0.432,0-0.781,0.35-0.781,0.782c0,0.371,0.258,0.678,0.603,0.759v0.001c0.17,0.171,0.179,0.417,0.179,0.898
		c0,0.482,0,13.609,0,13.609h0.006c0.025,0.464,0.404,0.831,0.876,0.831c0.47,0,0.849-0.367,0.874-0.831h0.006c0,0,0-2.304,0-5.052
		c0-1.246,0.539-1.845,0.88-2.099c0.667-0.421,1.453-0.669,2.301-0.669c0.421,0,0.826,0.063,1.212,0.176
		c1.258,0.486,1.566,1.324,1.628,1.846c0,1.855,0,3.473,0,4.258c0,2.525,2.096,2.37,2.096,2.37c0.432,0,0.856-0.482,0.856-0.914
		C124.465,92.878,123.438,93.298,123.303,92.885z"/>
	<path fill="#4A4A4A" d="M51.167,92.945v-0.002c-0.299-0.024-0.694,0.012-0.777-2.111c-0.077-1.948-1.533-14.525-1.533-14.525h0
		c-0.088-0.445-0.48-0.78-0.951-0.78s-0.863,0.335-0.951,0.78l0,0l-5.977,14.43l-6.23-14.43l0,0c-0.088-0.445-0.481-0.78-0.952-0.78
		c-0.535,0-0.97,0.434-0.97,0.97l-2.013,17.209c-0.016,0.071-0.025,0.143-0.025,0.218c0,0.55,0.446,0.996,0.996,0.996
		s0.997-0.446,0.997-0.996l1.665-13.863l5.276,12.867h0.005c0.13,0.51,0.588,0.888,1.139,0.888s1.009-0.378,1.14-0.888h0.003
		l5.297-12.866l1.803,12.866c0.083,0.679,0.366,1.992,1.885,1.992c0.551,0,0.997-0.446,0.997-0.996
		C51.99,93.433,51.634,93.028,51.167,92.945z"/>
	<path fill="#4A4A4A" d="M131.285,82.966c-1.005,0-2.095,0.273-3.061,0.766c0-1.046,0-1.994,0-2.688
		c0-0.436,0.011-0.801,0.027-1.109c4.584-0.001,6.376-1.355,6.376-3.102c0-5.46-5.68-9.261-9.611-9.261
		c-4.281,0-9.524,3.406-9.524,8.562c0,2.359,2.446,3.801,6.466,3.801h0.172c0.018,0.308,0.027,0.673,0.027,1.109
		c0,1.013,0,2.419,0,4.03c1.007,0.787,1.336,1.636,1.442,2.021c0-2.812,0-6.121,0-7.706c0-2.279-1.227-2.723-1.706-2.81
		c-0.013-0.003-0.027-0.004-0.042-0.007c-0.091-0.014-0.148-0.015-0.148-0.015c-0.487,0-0.882,0.395-0.882,0.881
		c0,0.487,0.395,0.882,0.882,0.882c0.015,0,0.029-0.004,0.043-0.004c0.066,0.013,0.195,0.121,0.292,0.688
		c-3.213-0.225-5.164-0.798-5.164-1.471c0-0.869,3.471-1.573,8.165-1.573c4.692,0,8.496,0.704,8.496,1.573
		c0,0.65-2.139,1.209-5.188,1.447c0.096-0.547,0.221-0.652,0.287-0.665c0.015,0,0.028,0.004,0.044,0.004
		c0.487,0,0.881-0.395,0.881-0.882c0-0.486-0.394-0.881-0.881-0.881c0,0-0.058,0.001-0.149,0.015
		c-0.015,0.003-0.027,0.004-0.041,0.007c-0.48,0.087-1.706,0.531-1.706,2.81c0,1.156,0,3.228,0,5.354
		c-0.81,0.767-1.349,1.75-1.349,2.893c0,0.728,0.483,1.295,1.349,1.65c0,0.562,0,1.064,0,1.469c-0.002,0.155-0.004,0.305-0.007,0.44
		c-0.002,0.059,0.005,0.114,0.012,0.17c-0.002,0.813-0.023,1.518-0.118,1.611c-0.133,0.413-1.159-0.008-1.159,1.005
		c0,0.432,0.423,0.914,0.855,0.914c0,0,1.861,0.14,1.861-2.387c0-0.138,0-0.303,0-0.489l0,0c0-0.243,0-0.519,0-0.824l0,0
		c0-0.396,0-0.842,0-1.325h-0.002c0-0.078,0-0.151,0-0.233c0.363,0.046,0.758,0.071,1.182,0.071h0.026
		c0.009,0.167,0.016,0.367,0.016,0.604c0,0.92,0,2.652,0,3.991h0.004c0,0.003-0.002,0.006-0.002,0.009
		c0,0.245,0.199,0.442,0.443,0.442s0.442-0.197,0.442-0.442c0-0.004-0.002-0.008-0.002-0.012c0-1.642,0-3.893,0-4.891
		c0-1.242-0.753-1.484-1.049-1.531c-0.007-0.002-0.016-0.003-0.025-0.005c-0.056-0.007-0.091-0.008-0.091-0.008
		c-0.3,0-0.541,0.215-0.541,0.479c0,0.267,0.241,0.482,0.541,0.482c0.009,0,0.018-0.002,0.027-0.003
		c0.041,0.007,0.118,0.064,0.177,0.369c-1.928-0.126-2.96-0.436-2.96-0.796c0-0.474,2.002-0.856,4.885-0.856
		c2.882,0,5.219,0.383,5.219,0.856c0,0.37-1.429,0.684-3.427,0.805c0.058-0.312,0.136-0.371,0.18-0.378
		c0.007,0.001,0.016,0.003,0.026,0.003c0.299,0,0.541-0.216,0.541-0.482c0-0.265-0.242-0.479-0.541-0.479
		c0,0-0.038,0.001-0.094,0.008c-0.006,0.002-0.016,0.003-0.024,0.005c-0.295,0.047-1.048,0.289-1.048,1.531c0,1,0,3.252,0,4.894
		h0.004c0,0.003-0.004,0.006-0.004,0.009c0,0.245,0.198,0.442,0.444,0.442c0.243,0,0.442-0.197,0.442-0.442
		c0-0.003-0.002-0.006-0.002-0.009h0.002c0-1.339,0-3.07,0-3.991c0-0.236,0.005-0.437,0.016-0.604h0.237
		c2.818,0,3.917-0.739,3.917-1.691C137.187,85.039,133.699,82.966,131.285,82.966z M117.855,74.945c-0.456,0-0.827-0.37-0.827-0.827
		c0-0.457,0.371-0.829,0.827-0.829c0.458,0,0.828,0.372,0.828,0.829C118.684,74.575,118.313,74.945,117.855,74.945z M118.254,71.799
		c0-0.709,0.573-1.284,1.282-1.284c0.71,0,1.285,0.574,1.285,1.284c0,0.709-0.575,1.284-1.285,1.284
		C118.827,73.083,118.254,72.508,118.254,71.799z M120.273,75.111c-0.376,0-0.68-0.304-0.68-0.679c0-0.376,0.304-0.679,0.68-0.679
		c0.375,0,0.679,0.303,0.679,0.679C120.952,74.807,120.648,75.111,120.273,75.111z M127.058,87.084c-0.31,0-0.561-0.252-0.561-0.56
		c0-0.31,0.251-0.56,0.561-0.56c0.309,0,0.56,0.25,0.56,0.56C127.617,86.832,127.366,87.084,127.058,87.084z M128.211,85.965
		c-0.422,0-0.764-0.342-0.764-0.764s0.342-0.762,0.764-0.762c0.42,0,0.763,0.34,0.763,0.762S128.631,85.965,128.211,85.965z"/>
</g>
</svg>
