<?xml version="1.0" encoding="utf-8"?>
<!-- Generator: Adobe Illustrator 16.0.0, SVG Export Plug-In . SVG Version: 6.00 Build 0)  -->
<!DOCTYPE svg PUBLIC "-//W3C//DTD SVG 1.1//EN" "http://www.w3.org/Graphics/SVG/1.1/DTD/svg11.dtd">
<svg version="1.1" id="Capa_1" xmlns="http://www.w3.org/2000/svg" xmlns:xlink="http://www.w3.org/1999/xlink" x="0px" y="0px"
	 width="168px" height="168px" viewBox="0 0 168 168" enable-background="new 0 0 168 168" xml:space="preserve">
<g>
	<circle opacity="0.1" enable-background="new    " cx="84.238" cy="85.256" r="72"/>
	<g opacity="0.2">
		<g>
			<path d="M80.721,164.318c-2.369-0.104-4.758-0.313-7.099-0.627l0.264-1.981c2.283,0.306,4.612,0.51,6.923,0.611L80.721,164.318z
				 M87.85,164.314l-0.09-1.998c2.307-0.104,4.635-0.312,6.922-0.619l0.269,1.981C92.604,163.995,90.214,164.209,87.85,164.314z
				 M66.605,162.434c-2.312-0.523-4.625-1.16-6.876-1.89l0.617-1.901c2.193,0.711,4.448,1.33,6.7,1.84L66.605,162.434z
				 M101.964,162.41l-0.442-1.949c2.248-0.513,4.5-1.135,6.696-1.849l0.619,1.901C106.583,161.247,104.271,161.885,101.964,162.41z
				 M53.049,158.042c-2.174-0.929-4.335-1.97-6.426-3.095l0.947-1.762c2.038,1.097,4.146,2.111,6.264,3.017L53.049,158.042z
				 M115.509,158.009l-0.788-1.838c2.125-0.912,4.23-1.929,6.258-3.022l0.949,1.761C119.848,156.03,117.688,157.074,115.509,158.009
				z M40.503,151.289c-1.969-1.3-3.909-2.71-5.77-4.189l1.246-1.564c1.813,1.443,3.706,2.818,5.625,4.087L40.503,151.289z
				 M128.042,151.244l-1.104-1.668c1.926-1.274,3.815-2.65,5.619-4.092l1.248,1.562
				C131.956,148.525,130.018,149.938,128.042,151.244z M29.362,142.409c-1.713-1.636-3.372-3.368-4.932-5.148l1.504-1.317
				c1.521,1.736,3.139,3.426,4.809,5.02L29.362,142.409z M139.172,142.354l-1.383-1.444c1.67-1.599,3.286-3.288,4.804-5.024
				l1.507,1.316C142.542,138.98,140.884,140.715,139.172,142.354z M19.977,131.691c-1.395-1.911-2.72-3.91-3.938-5.941l1.715-1.029
				c1.188,1.98,2.479,3.93,3.839,5.795L19.977,131.691z M148.546,131.628l-1.616-1.178c1.355-1.863,2.646-3.814,3.834-5.8
				l1.717,1.027C151.262,127.714,149.938,129.716,148.546,131.628z M12.65,119.479c-1.031-2.134-1.977-4.336-2.811-6.551
				l1.871-0.705c0.813,2.157,1.735,4.307,2.74,6.385L12.65,119.479z M155.861,119.4l-1.801-0.868
				c1.002-2.076,1.922-4.228,2.734-6.392l1.873,0.702C157.835,115.064,156.891,117.271,155.861,119.4z M7.631,106.148
				c-0.632-2.285-1.166-4.623-1.588-6.951l1.969-0.355c0.41,2.268,0.931,4.547,1.547,6.773L7.631,106.148z M160.869,106.062
				l-1.928-0.531c0.61-2.223,1.129-4.504,1.539-6.776l1.969,0.354C162.027,101.441,161.497,103.78,160.869,106.062z M5.088,92.134
				c-0.211-2.35-0.319-4.745-0.322-7.12l2-0.002c0.003,2.315,0.108,4.651,0.314,6.942L5.088,92.134z M163.396,92.043l-1.992-0.176
				c0.203-2.299,0.308-4.635,0.308-6.943v-0.183h2v0.183C163.712,87.292,163.605,89.688,163.396,92.043z M7.064,78.067l-1.992-0.176
				c0.208-2.364,0.523-4.741,0.939-7.064l1.969,0.352C7.575,73.443,7.267,75.761,7.064,78.067z M161.389,77.8
				c-0.209-2.295-0.525-4.611-0.938-6.885l1.967-0.359c0.426,2.333,0.75,4.709,0.964,7.062L161.389,77.8z M9.512,64.4l-1.93-0.527
				c0.625-2.281,1.362-4.563,2.193-6.785l1.873,0.701C10.839,59.954,10.12,62.179,9.512,64.4z M158.893,64.143
				c-0.615-2.22-1.343-4.441-2.16-6.604l1.871-0.707c0.84,2.219,1.586,4.499,2.217,6.776L158.893,64.143z M14.376,51.395
				l-1.803-0.867c1.027-2.135,2.163-4.248,3.378-6.281l1.717,1.025C16.484,47.253,15.377,49.313,14.376,51.395z M153.986,51.157
				c-1.008-2.079-2.121-4.134-3.311-6.109l1.713-1.031c1.221,2.026,2.362,4.136,3.396,6.268L153.986,51.157z M21.494,39.468
				l-1.619-1.176c1.391-1.916,2.886-3.792,4.442-5.578l1.508,1.314C24.307,35.77,22.85,37.6,21.494,39.468z M146.83,39.258
				c-1.363-1.865-2.826-3.689-4.348-5.423l1.502-1.32c1.562,1.778,3.062,3.65,4.461,5.563L146.83,39.258z M30.622,28.999
				l-1.385-1.443c1.707-1.638,3.511-3.219,5.361-4.7l1.25,1.561C34.045,25.861,32.286,27.402,30.622,28.999z M137.669,28.821
				c-1.673-1.593-3.437-3.13-5.244-4.567l1.245-1.564c1.854,1.474,3.663,3.05,5.378,4.683L137.669,28.821z M41.462,20.318
				l-1.105-1.666c1.976-1.311,4.031-2.546,6.111-3.672l0.951,1.76C45.393,17.837,43.388,19.041,41.462,20.318z M126.798,20.174
				c-1.929-1.27-3.938-2.468-5.972-3.56l0.945-1.762c2.086,1.12,4.146,2.349,6.125,3.651L126.798,20.174z M53.673,13.712
				l-0.789-1.838c2.178-0.937,4.421-1.782,6.668-2.516l0.621,1.9C57.982,11.974,55.796,12.799,53.673,13.712z M114.559,13.606
				c-2.119-0.902-4.312-1.721-6.514-2.432l0.615-1.903c2.258,0.729,4.507,1.568,6.682,2.495L114.559,13.606z M66.869,9.403
				l-0.447-1.949c2.308-0.528,4.667-0.958,7.015-1.277l0.27,1.982C71.418,8.47,69.117,8.889,66.869,9.403z M101.343,9.343
				c-2.253-0.507-4.555-0.918-6.842-1.221l0.265-1.982c2.344,0.311,4.705,0.731,7.018,1.252L101.343,9.343z M80.627,7.531
				l-0.092-1.998c1.236-0.057,2.454-0.084,3.705-0.084c1.133,0,2.285,0.024,3.425,0.073L87.579,7.52
				c-1.131-0.047-2.253-0.084-3.399-0.071C83.007,7.449,81.812,7.477,80.627,7.531z"/>
		</g>
	</g>
</g>
<g>
	<path fill="#4A4A4A" d="M58.892,88.697c0,0.842-0.088,1.641-0.263,2.396c-0.176,0.758-0.47,1.42-0.884,1.987
		c-0.413,0.567-0.966,1.021-1.655,1.356c-0.691,0.336-1.552,0.504-2.582,0.504c-0.701,0-1.321-0.076-1.86-0.23
		c-0.54-0.154-1.008-0.368-1.404-0.643c-0.396-0.272-0.73-0.603-1.004-0.987c-0.274-0.386-0.492-0.81-0.657-1.272
		c-0.165-0.462-0.282-0.955-0.352-1.481c-0.07-0.525-0.105-1.068-0.105-1.63v-6.73c0-0.561,0.035-1.104,0.105-1.63
		c0.069-0.525,0.187-1.02,0.352-1.482s0.384-0.887,0.657-1.272c0.273-0.385,0.608-0.715,1.004-0.988
		c0.396-0.272,0.864-0.487,1.404-0.642c0.539-0.153,1.159-0.23,1.86-0.23c1.03,0,1.891,0.168,2.582,0.504
		c0.689,0.337,1.242,0.789,1.655,1.356c0.414,0.568,0.708,1.23,0.884,1.987c0.175,0.757,0.263,1.557,0.263,2.397V88.697z
		 M50.816,89.371c0,0.504,0.046,0.964,0.137,1.377c0.091,0.414,0.242,0.768,0.452,1.062c0.21,0.295,0.487,0.521,0.831,0.684
		c0.343,0.161,0.768,0.242,1.271,0.242c0.505,0,0.929-0.081,1.272-0.242c0.343-0.161,0.62-0.389,0.831-0.684
		c0.21-0.295,0.36-0.647,0.452-1.062c0.091-0.413,0.137-0.873,0.137-1.377v-8.076c0-0.505-0.046-0.964-0.137-1.378
		c-0.092-0.413-0.242-0.768-0.452-1.062s-0.486-0.522-0.83-0.683c-0.344-0.161-0.767-0.242-1.272-0.242
		c-0.504,0-0.929,0.081-1.271,0.242c-0.344,0.161-0.621,0.389-0.831,0.684c-0.21,0.294-0.361,0.648-0.452,1.062
		c-0.091,0.414-0.137,0.873-0.137,1.378L50.816,89.371L50.816,89.371z"/>
	<path fill="#4A4A4A" d="M68.778,94.754l-2.821-8.748h-2.019v8.748h-2.692V75.912h3.365c1.178,0,2.155,0.121,2.934,0.363
		c0.777,0.241,1.398,0.583,1.86,1.024c0.463,0.442,0.789,0.973,0.979,1.594c0.188,0.62,0.283,1.309,0.283,2.065
		c0,0.463-0.033,0.881-0.1,1.252c-0.067,0.372-0.157,0.703-0.27,0.994c-0.112,0.292-0.239,0.548-0.38,0.769
		c-0.141,0.221-0.285,0.408-0.433,0.562c-0.345,0.372-0.738,0.639-1.182,0.8l3.036,9.418L68.778,94.754L68.778,94.754z
		 M63.938,83.986h0.673c0.504,0,0.963-0.047,1.377-0.142c0.414-0.095,0.768-0.258,1.062-0.489s0.521-0.541,0.683-0.931
		c0.161-0.389,0.242-0.878,0.242-1.467s-0.081-1.077-0.242-1.467c-0.161-0.389-0.389-0.699-0.683-0.931
		c-0.295-0.23-0.648-0.394-1.062-0.488c-0.414-0.094-0.873-0.141-1.377-0.141h-0.673V83.986z"/>
	<path fill="#4A4A4A" d="M86.407,86.006h-4.71v8.748h-2.692V75.912h2.692v8.075h4.71v-8.075h2.69v18.842h-2.69V86.006L86.407,86.006
		z"/>
	<path fill="#4A4A4A" d="M97.848,86.006h-3.365v6.729h4.711v2.02H91.79V75.912h7.401v2.019h-4.709v6.057h3.363v2.018H97.848z"/>
	<path fill="#4A4A4A" d="M108.743,94.754l-2.821-8.748h-2.02v8.748h-2.691V75.912h3.365c1.178,0,2.154,0.121,2.934,0.363
		c0.777,0.241,1.398,0.583,1.86,1.024c0.463,0.442,0.789,0.973,0.979,1.594c0.188,0.62,0.282,1.309,0.282,2.065
		c0,0.463-0.032,0.881-0.1,1.252c-0.067,0.372-0.157,0.703-0.271,0.994c-0.111,0.292-0.238,0.548-0.38,0.769
		c-0.141,0.221-0.284,0.408-0.433,0.562c-0.346,0.372-0.738,0.639-1.182,0.8l3.035,9.418L108.743,94.754L108.743,94.754z
		 M103.902,83.986h0.674c0.504,0,0.963-0.047,1.377-0.142c0.414-0.095,0.768-0.258,1.062-0.489c0.293-0.231,0.521-0.541,0.683-0.931
		c0.161-0.389,0.241-0.878,0.241-1.467s-0.08-1.077-0.241-1.467c-0.161-0.389-0.39-0.699-0.683-0.931
		c-0.295-0.23-0.648-0.394-1.062-0.488c-0.414-0.094-0.873-0.141-1.377-0.141h-0.674V83.986z"/>
	<path fill="#4A4A4A" d="M119.38,86.006h-3.364v6.729h4.711v2.02h-7.402V75.912h7.402v2.019h-4.711v6.057h3.364V86.006z"/>
</g>
</svg>
