<?xml version="1.0" encoding="utf-8"?>
<!-- Generator: Adobe Illustrator 16.2.1, SVG Export Plug-In . SVG Version: 6.00 Build 0)  -->
<!DOCTYPE svg PUBLIC "-//W3C//DTD SVG 1.1//EN" "http://www.w3.org/Graphics/SVG/1.1/DTD/svg11.dtd">
<svg version="1.1" id="Capa_1" xmlns="http://www.w3.org/2000/svg" xmlns:xlink="http://www.w3.org/1999/xlink" x="0px" y="0px"
	 width="168px" height="168px" viewBox="0 0 168 168" enable-background="new 0 0 168 168" xml:space="preserve">
<g>
	<circle opacity="0.1" enable-background="new    " cx="83.986" cy="81.629" r="72"/>
	<g opacity="0.2">
		<g>
			<path d="M80.47,160.691c-2.369-0.104-4.758-0.313-7.099-0.627l0.264-1.981c2.283,0.306,4.612,0.51,6.923,0.61L80.47,160.691z
				 M87.598,160.688l-0.09-1.998c2.307-0.104,4.635-0.312,6.922-0.618l0.271,1.979C92.352,160.368,89.963,160.582,87.598,160.688z
				 M66.353,158.807c-2.312-0.521-4.625-1.16-6.876-1.89l0.617-1.901c2.193,0.711,4.448,1.33,6.7,1.84L66.353,158.807z
				 M101.713,158.783l-0.443-1.949c2.248-0.513,4.5-1.135,6.697-1.85l0.619,1.901C106.33,157.62,104.02,158.258,101.713,158.783z
				 M52.797,154.415c-2.174-0.929-4.335-1.97-6.426-3.095l0.947-1.762c2.038,1.097,4.146,2.108,6.264,3.017L52.797,154.415z
				 M115.258,154.382l-0.789-1.838c2.125-0.912,4.23-1.929,6.258-3.022l0.949,1.764
				C119.596,152.402,117.436,153.447,115.258,154.382z M40.251,147.662c-1.969-1.3-3.909-2.71-5.77-4.189l1.246-1.562
				c1.813,1.44,3.706,2.815,5.625,4.087L40.251,147.662z M127.789,147.617l-1.104-1.668c1.928-1.274,3.813-2.65,5.619-4.092
				l1.248,1.562C131.703,144.898,129.766,146.311,127.789,147.617z M29.11,138.782c-1.713-1.636-3.372-3.368-4.932-5.148
				l1.504-1.317c1.521,1.736,3.139,3.429,4.809,5.021L29.11,138.782z M138.92,138.727l-1.383-1.441
				c1.67-1.602,3.285-3.288,4.805-5.024l1.506,1.316C142.289,135.354,140.633,137.088,138.92,138.727z M19.725,128.064
				c-1.395-1.912-2.72-3.91-3.938-5.941l1.715-1.029c1.188,1.98,2.479,3.93,3.839,5.795L19.725,128.064z M148.295,128.001
				l-1.617-1.178c1.355-1.863,2.646-3.814,3.834-5.8l1.717,1.024C151.01,124.087,149.686,126.089,148.295,128.001z M12.398,115.852
				c-1.031-2.134-1.977-4.336-2.811-6.551l1.871-0.705c0.813,2.157,1.735,4.307,2.74,6.385L12.398,115.852z M155.609,115.773
				l-1.801-0.868c1.002-2.076,1.922-4.229,2.731-6.392l1.873,0.699C157.582,111.438,156.639,113.645,155.609,115.773z
				 M7.379,102.521c-0.632-2.285-1.166-4.623-1.588-6.951l1.969-0.355c0.41,2.268,0.931,4.547,1.547,6.773L7.379,102.521z
				 M160.617,102.436l-1.928-0.53c0.608-2.224,1.129-4.505,1.539-6.776l1.969,0.354C161.775,97.814,161.244,100.152,160.617,102.436
				z M4.836,88.507c-0.211-2.35-0.319-4.745-0.322-7.119l2-0.002c0.003,2.314,0.108,4.65,0.314,6.941L4.836,88.507z M163.145,88.416
				l-1.992-0.176c0.203-2.299,0.31-4.635,0.31-6.943v-0.183h2v0.183C163.461,83.665,163.354,86.061,163.145,88.416z M6.812,74.44
				L4.82,74.265C5.028,71.9,5.343,69.523,5.759,67.2l1.969,0.353C7.324,69.816,7.015,72.134,6.812,74.44z M161.137,74.173
				c-0.209-2.295-0.523-4.61-0.938-6.885l1.967-0.358c0.426,2.333,0.75,4.709,0.965,7.062L161.137,74.173z M9.261,60.773
				l-1.93-0.527c0.625-2.281,1.362-4.562,2.193-6.785l1.873,0.701C10.587,56.327,9.868,58.553,9.261,60.773z M158.641,60.517
				c-0.615-2.221-1.342-4.441-2.16-6.604l1.871-0.707c0.84,2.219,1.586,4.499,2.217,6.776L158.641,60.517z M14.124,47.769
				l-1.803-0.867c1.027-2.135,2.163-4.248,3.378-6.281l1.717,1.025C16.232,43.626,15.125,45.687,14.124,47.769z M153.734,47.53
				c-1.008-2.079-2.121-4.134-3.312-6.109l1.714-1.03c1.221,2.025,2.36,4.136,3.395,6.268L153.734,47.53z M21.242,35.841
				l-1.619-1.176c1.391-1.916,2.886-3.792,4.442-5.578l1.508,1.314C24.055,32.144,22.598,33.974,21.242,35.841z M146.578,35.631
				c-1.363-1.864-2.826-3.688-4.348-5.423l1.502-1.319c1.562,1.777,3.062,3.649,4.461,5.562L146.578,35.631z M30.37,25.372
				l-1.385-1.442c1.707-1.639,3.511-3.22,5.361-4.7l1.25,1.561C33.793,22.234,32.034,23.775,30.37,25.372z M137.416,25.194
				c-1.672-1.593-3.436-3.13-5.242-4.567l1.244-1.563c1.854,1.474,3.662,3.05,5.379,4.683L137.416,25.194z M41.21,16.691
				l-1.105-1.666c1.976-1.312,4.031-2.546,6.111-3.672l0.951,1.76C45.141,14.21,43.137,15.414,41.21,16.691z M126.547,16.547
				c-1.93-1.27-3.939-2.468-5.973-3.56l0.945-1.762c2.086,1.12,4.145,2.349,6.125,3.65L126.547,16.547z M53.421,10.085l-0.789-1.838
				C54.81,7.31,57.053,6.465,59.3,5.731l0.621,1.899C57.73,8.348,55.544,9.172,53.421,10.085z M114.307,9.979
				c-2.119-0.902-4.312-1.722-6.514-2.433l0.615-1.902c2.258,0.729,4.506,1.567,6.682,2.495L114.307,9.979z M66.617,5.776
				L66.17,3.827c2.308-0.528,4.667-0.958,7.015-1.277l0.27,1.982C71.166,4.843,68.866,5.263,66.617,5.776z M101.092,5.716
				c-2.254-0.507-4.557-0.918-6.844-1.221l0.266-1.981c2.344,0.311,4.705,0.73,7.021,1.252L101.092,5.716z M80.375,3.904
				l-0.092-1.998c1.236-0.057,2.454-0.084,3.705-0.084c1.133,0,2.286,0.023,3.424,0.073l-0.086,1.998
				c-1.131-0.047-2.252-0.084-3.398-0.071C82.755,3.822,81.56,3.851,80.375,3.904z"/>
		</g>
	</g>
</g>
<path opacity="0.5" fill="#4A4A4A" d="M63.347,89.088c9.682-0.175,6.774-6.688,4.071-7.326c-1.716-0.844-10.845-2.123-13.029-3.108
	c-1.455-0.529-2.755-1.214-3.902-2.055c-1.148-0.84-2.076-1.891-2.784-3.152s-1.061-2.786-1.061-4.577
	c0-2.01,0.449-3.755,1.348-5.235c0.898-1.479,2.652-4.55,11.499-6.123c4.245-0.643,7.378-0.091,8.646,0.203
	c10.099,1.602,12.105,8.989,12.105,11.254h-10.96c0.145-1.046,0.041-1.47-0.398-2.237c-2.218-3.141-11.609-3.054-11.696,1.191
	c0,0.768-0.64,3.837,6.396,4.39c8.228,1.018,11.163,2.881,12.502,3.722c6.978,4.245,4.017,12.664,2.995,14.654
	c-0.727,1.533-5.088,6.773-15.322,6.191c-17.502,0-18.181-10.359-18.142-12.771h10.641C56.253,85.425,55.468,89.088,63.347,89.088z"
	/>
<g>
	<path fill="#4A4A4A" d="M48.004,105.874c0.073,0.143,0.171,0.258,0.293,0.344c0.121,0.089,0.265,0.153,0.428,0.196
		c0.167,0.046,0.336,0.064,0.513,0.064c0.119,0,0.246-0.009,0.382-0.028s0.265-0.06,0.384-0.117
		c0.117-0.056,0.219-0.134,0.295-0.234c0.083-0.098,0.121-0.225,0.121-0.378c0-0.161-0.052-0.295-0.157-0.399
		c-0.106-0.102-0.242-0.186-0.411-0.253c-0.173-0.069-0.365-0.127-0.58-0.179c-0.217-0.054-0.436-0.107-0.656-0.173
		c-0.227-0.056-0.447-0.125-0.662-0.209c-0.217-0.081-0.409-0.188-0.58-0.318c-0.171-0.131-0.308-0.292-0.413-0.488
		c-0.106-0.195-0.158-0.432-0.158-0.712c0-0.312,0.066-0.581,0.2-0.813c0.134-0.227,0.307-0.418,0.524-0.572
		c0.215-0.155,0.459-0.267,0.731-0.342c0.272-0.074,0.545-0.109,0.817-0.109c0.317,0,0.622,0.035,0.914,0.107
		c0.294,0.071,0.553,0.185,0.777,0.344c0.229,0.157,0.409,0.361,0.542,0.608c0.134,0.248,0.202,0.547,0.202,0.898h-1.296
		c-0.009-0.183-0.048-0.332-0.113-0.453c-0.065-0.119-0.153-0.211-0.259-0.278c-0.107-0.068-0.232-0.117-0.373-0.147
		c-0.138-0.025-0.288-0.042-0.453-0.042c-0.109,0-0.217,0.01-0.325,0.036c-0.107,0.023-0.205,0.062-0.293,0.117
		c-0.088,0.058-0.161,0.131-0.217,0.215c-0.056,0.085-0.084,0.192-0.084,0.32c0,0.121,0.021,0.219,0.067,0.29
		c0.046,0.075,0.134,0.145,0.269,0.205c0.133,0.062,0.317,0.127,0.553,0.187c0.236,0.063,0.543,0.142,0.923,0.24
		c0.113,0.022,0.271,0.065,0.472,0.122c0.202,0.06,0.403,0.154,0.601,0.284c0.2,0.133,0.37,0.306,0.514,0.522
		c0.144,0.223,0.217,0.501,0.217,0.841c0,0.278-0.054,0.535-0.161,0.773c-0.107,0.236-0.267,0.445-0.481,0.618
		c-0.211,0.173-0.474,0.309-0.791,0.403c-0.315,0.098-0.68,0.146-1.094,0.146c-0.334,0-0.659-0.042-0.974-0.123
		c-0.316-0.082-0.593-0.211-0.835-0.392c-0.24-0.171-0.432-0.396-0.574-0.67c-0.142-0.272-0.21-0.595-0.205-0.969h1.293
		C47.893,105.562,47.931,105.734,48.004,105.874z"/>
	<path fill="#4A4A4A" d="M52.447,103.097c0.134-0.39,0.33-0.729,0.585-1.017c0.255-0.29,0.568-0.515,0.94-0.68
		c0.373-0.167,0.791-0.248,1.255-0.248c0.47,0,0.891,0.081,1.261,0.248c0.367,0.165,0.68,0.39,0.935,0.68
		c0.255,0.287,0.449,0.627,0.585,1.017c0.138,0.39,0.205,0.811,0.205,1.262c0,0.443-0.067,0.859-0.205,1.239
		c-0.136,0.384-0.33,0.717-0.585,1.002c-0.255,0.282-0.568,0.503-0.935,0.666c-0.37,0.16-0.791,0.244-1.261,0.244
		c-0.464,0-0.883-0.084-1.255-0.244c-0.373-0.163-0.685-0.384-0.94-0.666c-0.255-0.285-0.451-0.618-0.585-1.002
		c-0.138-0.38-0.206-0.796-0.206-1.239C52.242,103.907,52.309,103.486,52.447,103.097z M53.666,105.106
		c0.06,0.24,0.156,0.455,0.286,0.651c0.13,0.191,0.301,0.343,0.511,0.46c0.211,0.117,0.464,0.177,0.766,0.177
		s0.557-0.06,0.766-0.177c0.209-0.117,0.38-0.269,0.511-0.46c0.13-0.196,0.225-0.411,0.286-0.651
		c0.06-0.239,0.088-0.491,0.088-0.748c0-0.264-0.028-0.522-0.088-0.773c-0.062-0.248-0.156-0.473-0.286-0.666
		c-0.13-0.196-0.301-0.352-0.511-0.469c-0.209-0.117-0.464-0.173-0.766-0.173s-0.555,0.056-0.766,0.173
		c-0.209,0.117-0.38,0.272-0.511,0.469c-0.13,0.193-0.227,0.418-0.286,0.666c-0.06,0.251-0.088,0.51-0.088,0.773
		C53.578,104.615,53.606,104.867,53.666,105.106z"/>
	<path fill="#4A4A4A" d="M63.399,101.295v1.127h-2.938v1.404h2.545v1.037h-2.545v2.51h-1.334v-6.078H63.399z"/>
	<path fill="#4A4A4A" d="M63.695,102.422v-1.127h4.979v1.127h-1.821v4.951h-1.336v-4.951H63.695z"/>
	<path fill="#4A4A4A" d="M73.829,107.373l-1.029-4.136h-0.017l-1.012,4.136h-1.355l-1.606-6.078h1.336l0.961,4.136h0.016
		l1.056-4.136h1.253l1.036,4.189h0.018l0.996-4.189h1.309l-1.634,6.078H73.829z"/>
	<path fill="#4A4A4A" d="M80.229,101.295l2.272,6.078h-1.388l-0.458-1.353h-2.273l-0.474,1.353h-1.348l2.297-6.078H80.229z
		 M80.305,105.026l-0.766-2.232h-0.018l-0.791,2.232H80.305z"/>
	<path fill="#4A4A4A" d="M86.304,101.295c0.274,0,0.518,0.046,0.736,0.134c0.217,0.089,0.407,0.208,0.562,0.361
		s0.272,0.332,0.357,0.533c0.082,0.202,0.123,0.417,0.123,0.651c0,0.356-0.075,0.666-0.227,0.925
		c-0.15,0.265-0.396,0.459-0.735,0.599v0.018c0.165,0.044,0.301,0.113,0.41,0.207c0.106,0.092,0.194,0.205,0.264,0.332
		c0.068,0.127,0.115,0.267,0.147,0.423c0.031,0.153,0.052,0.303,0.063,0.454c0.008,0.099,0.014,0.212,0.018,0.342
		c0.006,0.131,0.015,0.267,0.03,0.401c0.014,0.137,0.034,0.267,0.067,0.386c0.03,0.125,0.078,0.229,0.142,0.312h-1.336
		c-0.074-0.195-0.118-0.422-0.138-0.688c-0.018-0.267-0.042-0.524-0.075-0.768c-0.048-0.315-0.144-0.55-0.29-0.697
		c-0.147-0.146-0.39-0.221-0.725-0.221h-1.334v2.374h-1.338v-6.078H86.304z M85.829,104.047c0.304,0,0.536-0.068,0.688-0.205
		c0.155-0.137,0.23-0.357,0.23-0.664c0-0.296-0.075-0.511-0.23-0.643c-0.151-0.135-0.384-0.198-0.688-0.198h-1.464v1.71H85.829z"/>
	<path fill="#4A4A4A" d="M93.716,101.295v1.127h-3.207v1.299h2.942v1.04h-2.942v1.488h3.274v1.124h-4.61v-6.078H93.716z"/>
	<path fill="#4A4A4A" d="M100.65,107.323c-0.287,0.125-0.579,0.187-0.875,0.187c-0.465,0-0.883-0.084-1.255-0.244
		c-0.373-0.163-0.684-0.384-0.94-0.666c-0.256-0.285-0.453-0.618-0.59-1.002c-0.134-0.38-0.203-0.796-0.203-1.239
		c0-0.451,0.069-0.872,0.203-1.262c0.137-0.39,0.334-0.729,0.59-1.017c0.257-0.29,0.567-0.515,0.94-0.68
		c0.372-0.167,0.79-0.248,1.255-0.248c0.311,0,0.614,0.049,0.906,0.141c0.293,0.094,0.557,0.23,0.793,0.412
		c0.233,0.183,0.428,0.407,0.581,0.674c0.153,0.266,0.246,0.572,0.28,0.916h-1.276c-0.079-0.338-0.232-0.595-0.459-0.764
		c-0.229-0.169-0.503-0.254-0.825-0.254c-0.301,0-0.555,0.056-0.766,0.173s-0.382,0.272-0.511,0.469
		c-0.131,0.193-0.227,0.418-0.286,0.666c-0.06,0.251-0.088,0.51-0.088,0.773c0,0.257,0.028,0.509,0.088,0.748
		c0.06,0.24,0.155,0.455,0.286,0.651c0.129,0.191,0.3,0.343,0.511,0.46s0.465,0.177,0.766,0.177c0.441,0,0.783-0.113,1.023-0.336
		c0.243-0.223,0.384-0.549,0.424-0.975h-1.346v-0.994h2.553v3.283h-0.85l-0.137-0.688
		C101.205,106.989,100.942,107.204,100.65,107.323z"/>
	<path fill="#4A4A4A" d="M107.977,106.909c-0.458,0.399-1.096,0.601-1.905,0.601c-0.821,0-1.457-0.201-1.91-0.595
		c-0.451-0.399-0.676-1.012-0.676-1.841v-3.779h1.336v3.779c0,0.165,0.014,0.328,0.042,0.487c0.029,0.157,0.089,0.3,0.179,0.42
		c0.093,0.119,0.217,0.222,0.378,0.3c0.162,0.075,0.379,0.113,0.651,0.113c0.478,0,0.806-0.107,0.986-0.318
		c0.183-0.211,0.272-0.547,0.272-1.002v-3.779h1.336v3.779C108.666,105.897,108.438,106.508,107.977,106.909z"/>
	<path fill="#4A4A4A" d="M113.092,101.295c0.273,0,0.519,0.046,0.735,0.134c0.219,0.089,0.407,0.208,0.562,0.361
		c0.157,0.153,0.276,0.332,0.359,0.533c0.08,0.202,0.122,0.417,0.122,0.651c0,0.356-0.076,0.666-0.227,0.925
		c-0.149,0.265-0.395,0.459-0.734,0.599v0.018c0.163,0.044,0.299,0.113,0.406,0.207c0.107,0.092,0.196,0.205,0.264,0.332
		c0.068,0.127,0.117,0.267,0.149,0.423c0.032,0.153,0.054,0.303,0.065,0.454c0.006,0.099,0.01,0.212,0.016,0.342
		c0.005,0.131,0.015,0.267,0.03,0.401c0.014,0.137,0.036,0.267,0.069,0.386c0.028,0.125,0.076,0.229,0.138,0.312h-1.334
		c-0.074-0.195-0.121-0.422-0.136-0.688c-0.018-0.267-0.043-0.524-0.077-0.768c-0.046-0.315-0.142-0.55-0.29-0.697
		c-0.147-0.146-0.39-0.221-0.724-0.221h-1.336v2.374h-1.336v-6.078H113.092z M112.616,104.047c0.306,0,0.535-0.068,0.688-0.205
		c0.153-0.137,0.231-0.357,0.231-0.664c0-0.296-0.078-0.511-0.231-0.643c-0.152-0.135-0.382-0.198-0.688-0.198h-1.465v1.71H112.616z
		"/>
	<path fill="#4A4A4A" d="M120.426,106.909c-0.458,0.399-1.094,0.601-1.905,0.601c-0.821,0-1.459-0.201-1.91-0.595
		c-0.451-0.399-0.678-1.012-0.678-1.841v-3.779h1.338v3.779c0,0.165,0.014,0.328,0.042,0.487c0.029,0.157,0.087,0.3,0.179,0.42
		c0.091,0.119,0.215,0.222,0.376,0.3c0.164,0.075,0.381,0.113,0.653,0.113c0.478,0,0.804-0.107,0.986-0.318
		c0.181-0.211,0.274-0.547,0.274-1.002v-3.779h1.334v3.779C121.115,105.897,120.887,106.508,120.426,106.909z"/>
</g>
<path opacity="0.5" fill="#4A4A4A" d="M114.33,77.219h-12.98v6.957h8.122c-1.897,2.095-4.638,3.41-7.686,3.41
	c-5.726,0-10.367-4.641-10.367-10.367s4.642-10.368,10.367-10.368c3.275,0,6.193,1.521,8.093,3.892h10.748
	c-2.688-7.823-10.105-13.448-18.841-13.448c-11.003,0-19.923,8.92-19.923,19.923s8.92,19.923,19.923,19.923
	c4.755,0,9.119-1.669,12.544-4.449v4.449h7.379V84.176v-6.957H114.33z"/>
<g>
	<path fill="#4A4A4A" d="M125.772,59.252c0.108,0,0.207,0.018,0.295,0.053s0.163,0.084,0.225,0.145
		c0.062,0.061,0.11,0.132,0.144,0.213c0.033,0.081,0.05,0.167,0.05,0.261c0,0.143-0.03,0.267-0.091,0.371
		c-0.061,0.105-0.158,0.185-0.295,0.239v0.007c0.065,0.019,0.121,0.046,0.164,0.084c0.043,0.037,0.078,0.082,0.105,0.133
		c0.026,0.051,0.047,0.107,0.06,0.168s0.021,0.123,0.025,0.184c0.002,0.039,0.005,0.084,0.008,0.136
		c0.002,0.052,0.006,0.106,0.011,0.16c0.006,0.055,0.016,0.106,0.027,0.155c0.014,0.049,0.031,0.091,0.057,0.125h-0.535
		c-0.029-0.077-0.049-0.169-0.055-0.276c-0.007-0.106-0.017-0.208-0.03-0.306c-0.019-0.128-0.057-0.221-0.116-0.28
		c-0.059-0.059-0.156-0.088-0.29-0.088h-0.536v0.951h-0.535v-2.435H125.772z M125.582,60.354c0.122,0,0.215-0.028,0.275-0.083
		c0.062-0.054,0.093-0.143,0.093-0.266c0-0.118-0.031-0.204-0.093-0.257c-0.061-0.054-0.153-0.08-0.275-0.08h-0.588v0.686H125.582z"
		/>
</g>
<path fill="#4A4A4A" d="M125.508,57.615c-1.576,0-2.854,1.278-2.854,2.855s1.278,2.855,2.854,2.855c1.577,0,2.855-1.278,2.855-2.855
	S127.085,57.615,125.508,57.615z M125.508,63.026c-1.411,0-2.556-1.145-2.556-2.556c0-1.412,1.145-2.557,2.556-2.557
	c1.412,0,2.558,1.145,2.558,2.557C128.065,61.882,126.92,63.026,125.508,63.026z"/>
</svg>
