<?xml version="1.0" encoding="utf-8"?>
<!-- Generator: Adobe Illustrator 16.0.0, SVG Export Plug-In . SVG Version: 6.00 Build 0)  -->
<!DOCTYPE svg PUBLIC "-//W3C//DTD SVG 1.1//EN" "http://www.w3.org/Graphics/SVG/1.1/DTD/svg11.dtd">
<svg version="1.1" id="Capa_1" xmlns="http://www.w3.org/2000/svg" xmlns:xlink="http://www.w3.org/1999/xlink" x="0px" y="0px"
	 width="168px" height="168px" viewBox="0 0 168 168" enable-background="new 0 0 168 168" xml:space="preserve">
<g>
	<circle opacity="0.1" cx="84.238" cy="85.256" r="72"/>
	<g opacity="0.2">
		<g>
			<path d="M80.721,164.319c-2.369-0.104-4.758-0.314-7.099-0.627l0.264-1.982c2.283,0.305,4.612,0.51,6.923,0.611L80.721,164.319z
				 M87.85,164.314l-0.09-1.998c2.306-0.103,4.635-0.311,6.922-0.619l0.268,1.982C92.603,163.995,90.214,164.209,87.85,164.314z
				 M66.605,162.433c-2.312-0.523-4.625-1.159-6.876-1.889l0.617-1.902c2.193,0.711,4.448,1.33,6.7,1.84L66.605,162.433z
				 M101.964,162.41l-0.443-1.949c2.248-0.513,4.501-1.135,6.697-1.849l0.619,1.902C106.583,161.247,104.271,161.885,101.964,162.41
				z M53.049,158.042c-2.174-0.929-4.335-1.97-6.426-3.095l0.947-1.762c2.038,1.097,4.146,2.112,6.264,3.017L53.049,158.042z
				 M115.509,158.009l-0.789-1.838c2.125-0.912,4.231-1.929,6.259-3.022l0.949,1.76C119.848,156.03,117.688,157.074,115.509,158.009
				z M40.503,151.289c-1.969-1.3-3.909-2.71-5.77-4.19l1.246-1.564c1.813,1.444,3.706,2.819,5.625,4.087L40.503,151.289z
				 M128.042,151.244l-1.104-1.668c1.925-1.274,3.815-2.65,5.619-4.092l1.248,1.562
				C131.956,148.525,130.017,149.938,128.042,151.244z M29.362,142.409c-1.713-1.636-3.372-3.368-4.932-5.148l1.504-1.318
				c1.521,1.737,3.139,3.426,4.809,5.02L29.362,142.409z M139.172,142.354l-1.383-1.445c1.67-1.598,3.286-3.288,4.804-5.024
				l1.506,1.316C142.542,138.981,140.884,140.715,139.172,142.354z M19.977,131.692c-1.395-1.912-2.72-3.911-3.938-5.942
				l1.715-1.029c1.188,1.98,2.479,3.93,3.839,5.794L19.977,131.692z M148.546,131.628l-1.617-1.178
				c1.356-1.863,2.646-3.814,3.834-5.799l1.717,1.027C151.261,127.714,149.938,129.716,148.546,131.628z M12.65,119.479
				c-1.031-2.134-1.977-4.337-2.811-6.551l1.871-0.705c0.813,2.157,1.735,4.306,2.74,6.385L12.65,119.479z M155.862,119.401
				l-1.801-0.869c1.002-2.076,1.922-4.227,2.734-6.392l1.873,0.703C157.835,115.065,156.891,117.271,155.862,119.401z
				 M7.631,106.148c-0.632-2.285-1.166-4.623-1.588-6.951l1.969-0.355c0.41,2.268,0.931,4.547,1.547,6.773L7.631,106.148z
				 M160.869,106.062l-1.928-0.531c0.611-2.223,1.13-4.503,1.539-6.776l1.969,0.355C162.028,101.441,161.497,103.78,160.869,106.062
				z M5.088,92.134c-0.211-2.35-0.319-4.745-0.322-7.12l2-0.002c0.003,2.315,0.108,4.651,0.314,6.942L5.088,92.134z M163.397,92.043
				l-1.992-0.176c0.203-2.298,0.307-4.634,0.307-6.943v-0.183h2v0.183C163.712,87.292,163.606,89.688,163.397,92.043z M7.064,78.067
				l-1.992-0.176c0.208-2.364,0.523-4.741,0.939-7.064l1.969,0.352C7.575,73.443,7.267,75.761,7.064,78.067z M161.388,77.8
				c-0.208-2.295-0.524-4.611-0.938-6.885l1.967-0.359c0.426,2.333,0.75,4.709,0.964,7.062L161.388,77.8z M9.512,64.4l-1.93-0.527
				c0.625-2.281,1.362-4.563,2.193-6.785l1.873,0.701C10.839,59.954,10.12,62.179,9.512,64.4z M158.893,64.143
				c-0.615-2.22-1.343-4.441-2.16-6.604l1.871-0.707c0.839,2.219,1.585,4.499,2.217,6.776L158.893,64.143z M14.376,51.395
				l-1.803-0.867c1.027-2.135,2.163-4.248,3.378-6.281l1.717,1.025C16.484,47.253,15.377,49.313,14.376,51.395z M153.987,51.157
				c-1.009-2.079-2.122-4.134-3.311-6.109l1.713-1.031c1.22,2.026,2.362,4.136,3.396,6.268L153.987,51.157z M21.494,39.468
				l-1.619-1.176c1.391-1.916,2.886-3.792,4.442-5.578l1.508,1.314C24.307,35.77,22.85,37.6,21.494,39.468z M146.83,39.258
				c-1.363-1.865-2.826-3.689-4.348-5.423l1.502-1.32c1.562,1.778,3.062,3.65,4.461,5.563L146.83,39.258z M30.622,28.999
				l-1.385-1.443c1.707-1.638,3.511-3.219,5.361-4.7l1.25,1.561C34.045,25.861,32.286,27.402,30.622,28.999z M137.669,28.821
				c-1.673-1.593-3.437-3.13-5.244-4.567l1.245-1.564c1.854,1.474,3.663,3.05,5.378,4.683L137.669,28.821z M41.462,20.318
				l-1.105-1.666c1.976-1.311,4.031-2.546,6.111-3.672l0.951,1.76C45.393,17.837,43.388,19.041,41.462,20.318z M126.798,20.174
				c-1.929-1.27-3.938-2.468-5.972-3.56l0.945-1.762c2.087,1.12,4.147,2.349,6.126,3.651L126.798,20.174z M53.673,13.712
				l-0.789-1.838c2.178-0.937,4.421-1.782,6.668-2.516l0.621,1.9C57.982,11.974,55.796,12.799,53.673,13.712z M114.559,13.606
				c-2.12-0.902-4.312-1.721-6.514-2.432l0.615-1.903c2.258,0.729,4.507,1.568,6.682,2.495L114.559,13.606z M66.869,9.403
				l-0.447-1.949c2.308-0.528,4.667-0.958,7.015-1.277l0.27,1.982C71.418,8.47,69.117,8.889,66.869,9.403z M101.343,9.343
				c-2.253-0.507-4.555-0.918-6.842-1.221l0.264-1.982c2.345,0.311,4.706,0.731,7.018,1.252L101.343,9.343z M80.627,7.531
				l-0.092-1.998c1.236-0.057,2.454-0.084,3.705-0.084c1.133,0,2.285,0.024,3.425,0.073l-0.086,1.998
				c-1.131-0.047-2.253-0.084-3.399-0.071C83.007,7.449,81.812,7.477,80.627,7.531z"/>
		</g>
	</g>
</g>
</svg>
