<?xml version="1.0" encoding="utf-8"?>
<!-- Generator: Adobe Illustrator 16.0.0, SVG Export Plug-In . SVG Version: 6.00 Build 0)  -->
<!DOCTYPE svg PUBLIC "-//W3C//DTD SVG 1.1//EN" "http://www.w3.org/Graphics/SVG/1.1/DTD/svg11.dtd">
<svg version="1.1" id="Capa_1" xmlns="http://www.w3.org/2000/svg" xmlns:xlink="http://www.w3.org/1999/xlink" x="0px" y="0px"
	 width="168px" height="168px" viewBox="0 0 168 168" enable-background="new 0 0 168 168" xml:space="preserve">
<g>
	<circle opacity="0.1" enable-background="new    " cx="84.348" cy="84.373" r="72"/>
	<g opacity="0.2">
		<g>
			<path d="M80.831,163.436c-2.369-0.105-4.758-0.314-7.099-0.627l0.264-1.982c2.283,0.307,4.612,0.51,6.923,0.611L80.831,163.436z
				 M87.959,163.432l-0.09-1.998c2.307-0.105,4.635-0.312,6.922-0.619l0.271,1.979C92.713,163.111,90.324,163.326,87.959,163.432z
				 M66.715,161.551c-2.312-0.521-4.625-1.16-6.876-1.891l0.617-1.9c2.193,0.711,4.448,1.33,6.7,1.84L66.715,161.551z
				 M102.074,161.527l-0.443-1.949c2.248-0.514,4.5-1.135,6.697-1.85l0.619,1.902C106.693,160.363,104.381,161.002,102.074,161.527z
				 M53.159,157.158c-2.174-0.928-4.335-1.969-6.426-3.094l0.947-1.762c2.038,1.096,4.146,2.109,6.264,3.016L53.159,157.158z
				 M115.619,157.125l-0.789-1.838c2.125-0.912,4.23-1.928,6.258-3.021l0.949,1.762
				C119.957,155.146,117.797,156.191,115.619,157.125z M40.613,150.406c-1.969-1.301-3.909-2.711-5.77-4.189l1.246-1.562
				c1.813,1.441,3.706,2.816,5.625,4.086L40.613,150.406z M128.152,150.361l-1.105-1.668c1.928-1.275,3.816-2.65,5.619-4.092
				l1.248,1.561C132.066,147.643,130.127,149.055,128.152,150.361z M29.472,141.525c-1.713-1.635-3.372-3.367-4.932-5.148
				l1.504-1.316c1.521,1.736,3.139,3.428,4.809,5.021L29.472,141.525z M139.281,141.471l-1.383-1.443
				c1.67-1.6,3.287-3.287,4.805-5.023l1.506,1.316C142.652,138.098,140.994,139.832,139.281,141.471z M20.087,130.809
				c-1.395-1.912-2.72-3.91-3.938-5.941l1.715-1.029c1.188,1.98,2.479,3.93,3.839,5.795L20.087,130.809z M148.656,130.744
				l-1.617-1.178c1.355-1.863,2.646-3.814,3.834-5.799l1.717,1.025C151.371,126.83,150.047,128.832,148.656,130.744z M12.76,118.596
				c-1.031-2.135-1.977-4.336-2.811-6.551l1.871-0.705c0.813,2.156,1.735,4.307,2.74,6.385L12.76,118.596z M155.971,118.518
				l-1.801-0.869c1.002-2.076,1.922-4.227,2.732-6.391l1.873,0.699C157.945,114.182,157,116.389,155.971,118.518z M7.741,105.266
				c-0.632-2.285-1.166-4.623-1.588-6.951l1.969-0.355c0.41,2.268,0.931,4.547,1.547,6.773L7.741,105.266z M160.979,105.18
				l-1.928-0.531c0.609-2.223,1.129-4.504,1.539-6.777l1.969,0.355C162.137,100.559,161.607,102.896,160.979,105.18z M5.198,91.25
				c-0.211-2.35-0.319-4.744-0.322-7.119l2-0.002c0.003,2.314,0.108,4.65,0.314,6.941L5.198,91.25z M163.506,91.16l-1.992-0.176
				c0.203-2.299,0.309-4.635,0.309-6.943v-0.184h2v0.184C163.822,86.408,163.715,88.805,163.506,91.16z M7.174,77.184l-1.992-0.176
				c0.208-2.364,0.523-4.741,0.939-7.064l1.969,0.352C7.685,72.56,7.377,74.877,7.174,77.184z M161.498,76.917
				c-0.209-2.295-0.523-4.611-0.938-6.885l1.967-0.359c0.426,2.333,0.75,4.709,0.965,7.062L161.498,76.917z M9.622,63.517
				l-1.93-0.527c0.625-2.281,1.362-4.563,2.193-6.785l1.873,0.701C10.949,59.071,10.23,61.296,9.622,63.517z M159.002,63.26
				c-0.615-2.22-1.342-4.441-2.16-6.604l1.871-0.707c0.84,2.219,1.586,4.499,2.217,6.776L159.002,63.26z M14.486,50.512
				l-1.803-0.867c1.027-2.135,2.163-4.248,3.378-6.281l1.717,1.025C16.594,46.37,15.487,48.43,14.486,50.512z M154.096,50.274
				c-1.008-2.079-2.121-4.134-3.312-6.109l1.715-1.031c1.221,2.026,2.361,4.136,3.396,6.268L154.096,50.274z M21.604,38.584
				l-1.619-1.176c1.391-1.916,2.886-3.792,4.442-5.578l1.508,1.314C24.417,34.887,22.96,36.717,21.604,38.584z M146.939,38.375
				c-1.363-1.865-2.826-3.689-4.348-5.423l1.502-1.32c1.562,1.778,3.062,3.65,4.461,5.563L146.939,38.375z M30.732,28.116
				l-1.385-1.443c1.707-1.638,3.511-3.219,5.361-4.7l1.25,1.561C34.155,24.978,32.396,26.519,30.732,28.116z M137.779,27.938
				c-1.674-1.593-3.438-3.13-5.244-4.567l1.244-1.564c1.854,1.474,3.664,3.05,5.379,4.683L137.779,27.938z M41.572,19.435
				l-1.105-1.666c1.976-1.311,4.031-2.546,6.111-3.672l0.951,1.76C45.503,16.954,43.498,18.158,41.572,19.435z M126.908,19.291
				c-1.93-1.27-3.939-2.468-5.973-3.56l0.945-1.762c2.086,1.12,4.146,2.349,6.125,3.651L126.908,19.291z M53.783,12.829
				l-0.789-1.838c2.178-0.937,4.421-1.782,6.668-2.516l0.621,1.9C58.092,11.091,55.906,11.916,53.783,12.829z M114.668,12.723
				c-2.119-0.902-4.311-1.721-6.514-2.432l0.615-1.903c2.258,0.729,4.508,1.568,6.682,2.495L114.668,12.723z M66.979,8.52
				l-0.447-1.949c2.308-0.528,4.667-0.958,7.015-1.277l0.27,1.982C71.528,7.586,69.227,8.006,66.979,8.52z M101.453,8.459
				c-2.254-0.507-4.555-0.918-6.842-1.221l0.264-1.982c2.344,0.311,4.705,0.731,7.02,1.252L101.453,8.459z M80.737,6.648
				L80.645,4.65c1.236-0.057,2.454-0.084,3.705-0.084c1.133,0,2.285,0.024,3.426,0.073l-0.086,1.998
				c-1.131-0.047-2.254-0.084-3.399-0.071C83.117,6.566,81.922,6.594,80.737,6.648z"/>
		</g>
	</g>
</g>
<g>
	<g>
		<g>
			<path fill="#4A4A4A" d="M43.2,82.627l0.296-1.648h9.42l-0.288,1.648h-3.646l-1.649,9.367h-1.915l1.656-9.367H43.2z"/>
			<path fill="#4A4A4A" d="M48.838,91.994l7.506-11.411l3.213,11.411h-2.082l-0.486-1.93h-4.885l-1.23,1.93H48.838z M56.587,88.416
				l-0.98-3.752l-2.446,3.752H56.587z"/>
			<path fill="#4A4A4A" d="M62.613,84.891l-1.254,7.104h-1.907l2.013-11.411l6.062,7.491l1.253-7.095h1.907l-2.013,11.433
				L62.613,84.891z"/>
			<path fill="#4A4A4A" d="M79.722,91.478c-1.49,0.517-2.748,0.774-3.776,0.774c-1.555,0-2.849-0.483-3.882-1.45
				c-0.968-0.906-1.451-2.155-1.451-3.745c0-1.247,0.286-2.375,0.858-3.389c1.11-1.964,2.806-2.948,5.09-2.948
				c0.932,0,1.793,0.19,2.583,0.57c0.32,0.157,0.682,0.378,1.087,0.661l-0.479,1.966c-0.456-0.43-0.846-0.73-1.17-0.902
				c-0.608-0.32-1.274-0.479-1.999-0.479c-1.053,0-1.936,0.354-2.651,1.062c-0.379,0.385-0.684,0.844-0.911,1.375
				c-0.279,0.639-0.418,1.309-0.418,2.013c0,1.307,0.451,2.262,1.352,2.864c0.582,0.391,1.294,0.585,2.135,0.585
				c0.542,0,1.21-0.104,2.005-0.312l0.456-2.62h-2.439l0.297-1.663h4.307L79.722,91.478z"/>
			<path fill="#4A4A4A" d="M86.994,80.72c0.992,0,1.901,0.248,2.728,0.745c0.754,0.456,1.334,1.083,1.739,1.884
				c0.395,0.773,0.593,1.635,0.593,2.582c0,0.992-0.219,1.958-0.654,2.895c-0.506,1.089-1.232,1.938-2.18,2.545
				c-0.917,0.588-1.94,0.881-3.069,0.881c-1.484,0-2.702-0.477-3.655-1.428c-0.43-0.436-0.772-0.955-1.025-1.558
				c-0.299-0.704-0.448-1.458-0.448-2.265c0-1.038,0.23-2.021,0.691-2.955c0.522-1.062,1.259-1.893,2.211-2.491
				C84.811,81,85.834,80.72,86.994,80.72z M86.805,82.537c-0.923,0-1.744,0.355-2.463,1.07c-0.405,0.404-0.727,0.902-0.965,1.488
				c-0.244,0.603-0.364,1.205-0.364,1.808c0,0.725,0.167,1.388,0.501,1.992c0.294,0.531,0.715,0.934,1.262,1.207
				c0.45,0.223,0.927,0.334,1.428,0.334c0.639,0,1.244-0.178,1.816-0.532c0.623-0.384,1.127-0.956,1.512-1.716
				c0.354-0.71,0.532-1.436,0.532-2.181c0-1.09-0.335-1.949-1.004-2.584C88.441,82.832,87.69,82.537,86.805,82.537z"/>
		</g>
	</g>
	<path fill="#4A4A4A" d="M92.305,88.791c0.43,0.45,0.772,0.769,1.027,0.958c0.551,0.423,1.089,0.635,1.612,0.635
		c0.41,0,0.757-0.135,1.039-0.403c0.328-0.31,0.493-0.722,0.493-1.24c0-0.383-0.107-0.712-0.322-0.987
		c-0.114-0.148-0.316-0.326-0.605-0.533l-0.725-0.535c-0.498-0.369-0.847-0.715-1.049-1.038c-0.269-0.43-0.402-0.951-0.402-1.561
		c0-1.096,0.386-2.006,1.158-2.732c0.739-0.692,1.677-1.038,2.812-1.038c0.779,0,1.508,0.205,2.187,0.614l-0.403,2.158
		c-0.739-0.523-1.336-0.787-1.794-0.787c-0.437,0-0.807,0.145-1.108,0.433c-0.31,0.295-0.464,0.648-0.464,1.059
		c0,0.254,0.081,0.49,0.242,0.705c0.102,0.135,0.286,0.301,0.555,0.494l0.766,0.563c0.591,0.431,1.005,0.888,1.239,1.371
		c0.229,0.457,0.344,0.978,0.344,1.562c0,1.122-0.364,2.066-1.089,2.833c-0.666,0.692-1.586,1.038-2.762,1.038
		c-1.055,0-1.942-0.26-2.66-0.776L92.305,88.791z"/>
	<path fill="#4A4A4A" d="M105.682,80.326c1.007,0,1.871,0.394,2.59,1.18c0.396,0.437,0.702,1.032,0.917,1.784
		c0.175,0.611,0.263,1.264,0.263,1.955c0,1.37-0.31,2.656-0.928,3.86c-0.585,1.115-1.313,1.96-2.188,2.538
		c-0.725,0.478-1.512,0.717-2.357,0.717c-1.103,0-2.012-0.394-2.731-1.18c-0.39-0.437-0.695-1.015-0.917-1.733
		c-0.182-0.585-0.272-1.195-0.272-1.835c0-1.37,0.292-2.66,0.877-3.869c0.592-1.236,1.391-2.153,2.398-2.751
		C104.093,80.547,104.875,80.326,105.682,80.326z M105.5,82.301c-0.84,0-1.579,0.634-2.217,1.906
		c-0.551,1.094-0.826,2.253-0.826,3.475c0,1.002,0.174,1.724,0.523,2.167c0.275,0.357,0.625,0.535,1.048,0.535
		c0.854,0,1.59-0.64,2.207-1.915c0.531-1.095,0.797-2.234,0.797-3.416C107.032,83.219,106.522,82.301,105.5,82.301z"/>
	<path fill="#4A4A4A" d="M119.64,80.417l-2.056,11.661l-2.388,0.271l0.211-1.22c-0.947,0.82-1.935,1.23-2.963,1.23
		c-1.646,0-2.469-0.891-2.469-2.672c0-0.443,0.063-1.024,0.191-1.743l1.29-7.336l2.378-0.191l-1.209,6.812
		c-0.182,1.042-0.272,1.741-0.272,2.097c0,0.323,0.074,0.568,0.222,0.735c0.202,0.216,0.457,0.323,0.767,0.323
		c0.604,0,1.172-0.262,1.702-0.786c0.519-0.518,0.854-1.22,1.009-2.106l1.209-6.883L119.64,80.417z"/>
	<path fill="#4A4A4A" d="M121.572,92.077h-2.338l2.025-11.469l2.368-0.191l-0.251,1.461c0.738-0.967,1.716-1.48,2.932-1.541
		l-0.604,2.045c-1.746,0.464-2.798,1.855-3.154,4.171L121.572,92.077z"/>
	<path fill="#4A4A4A" d="M132.318,91.27c-1.243,0.721-2.378,1.079-3.407,1.079c-1.195,0-2.149-0.446-2.861-1.341
		c-0.645-0.806-0.968-1.921-0.968-3.345c0-2.023,0.571-3.759,1.714-5.21c0.558-0.712,1.246-1.257,2.065-1.633
		c0.698-0.329,1.428-0.494,2.188-0.494c0.698,0,1.35,0.142,1.955,0.424c0.248,0.114,0.558,0.309,0.927,0.584l-0.564,2.096
		c-0.423-0.369-0.763-0.625-1.018-0.766c-0.451-0.243-0.906-0.363-1.371-0.363c-0.854,0-1.593,0.4-2.217,1.199
		c-0.854,1.102-1.279,2.429-1.279,3.981c0,0.968,0.194,1.703,0.583,2.206c0.357,0.457,0.813,0.686,1.371,0.686
		c0.76,0,1.74-0.427,2.943-1.28L132.318,91.27z"/>
	<path fill="#4A4A4A" d="M140.712,88.72l-0.132,2.208c-1.322,0.947-2.559,1.421-3.708,1.421c-0.84,0-1.579-0.275-2.217-0.826
		c-0.968-0.834-1.452-2.143-1.452-3.932c0-2.188,0.608-4.024,1.824-5.501c0.504-0.611,1.109-1.074,1.814-1.39
		c0.558-0.249,1.146-0.374,1.763-0.374c1.244,0,2.138,0.474,2.682,1.421c0.443,0.779,0.665,1.724,0.665,2.833
		c0,0.529-0.087,1.271-0.262,2.226l-6.168,0.614c-0.006,0.947,0.098,1.63,0.312,2.047c0.309,0.604,0.776,0.906,1.4,0.906
		C138.155,90.373,139.314,89.823,140.712,88.72z M139.694,84.982c0.046-0.35,0.07-0.629,0.07-0.838c0-0.705-0.172-1.221-0.514-1.551
		c-0.202-0.195-0.454-0.292-0.756-0.292c-0.84,0-1.539,0.484-2.097,1.451c-0.235,0.41-0.447,0.949-0.635,1.613L139.694,84.982z"/>
	<g>
		<g>
			<g>
				<path fill="#4A4A4A" d="M34.228,87.235c-2.212,4.108,2.216,4.989,2.66,5.066c0.154-0.137,0.31-0.279,0.463-0.433
					c3.221-3.223,4.025-12.134,4.025-12.134s-2.438,0.133-5.246,0.782C36.132,80.628,36.154,83.656,34.228,87.235z"/>
			</g>
			<g opacity="0.45">
				<path fill="#4A4A4A" d="M34.223,93.914c0.329-0.123,0.657-0.272,0.98-0.457c0,0-6.151-1.635-3.257-5.602
					c3.121-4.277,1.914-6.48,1.799-6.669c-1.723,0.581-3.37,1.388-4.487,2.503c-3.726,3.727-2.621,7.64-1.048,9.213
					c0.257,0.256,0.58,0.499,0.953,0.708C30.406,94.235,32.284,94.558,34.223,93.914z"/>
			</g>
		</g>
	</g>
</g>
</svg>
