<?xml version="1.0" encoding="utf-8"?>
<!-- Generator: Adobe Illustrator 16.0.0, SVG Export Plug-In . SVG Version: 6.00 Build 0)  -->
<!DOCTYPE svg PUBLIC "-//W3C//DTD SVG 1.1//EN" "http://www.w3.org/Graphics/SVG/1.1/DTD/svg11.dtd">
<svg version="1.1" id="Capa_1" xmlns="http://www.w3.org/2000/svg" xmlns:xlink="http://www.w3.org/1999/xlink" x="0px" y="0px"
	 width="168px" height="168px" viewBox="0 0 168 168" enable-background="new 0 0 168 168" xml:space="preserve">
<g>
	<circle opacity="0.1" enable-background="new    " cx="84.238" cy="85.256" r="72"/>
	<g opacity="0.2">
		<g>
			<path d="M80.721,164.318c-2.369-0.104-4.758-0.313-7.099-0.627l0.264-1.981c2.283,0.306,4.612,0.51,6.923,0.611L80.721,164.318z
				 M87.85,164.314l-0.09-1.998c2.307-0.104,4.635-0.312,6.922-0.619l0.269,1.981C92.604,163.995,90.214,164.209,87.85,164.314z
				 M66.605,162.434c-2.312-0.523-4.625-1.16-6.876-1.89l0.617-1.901c2.193,0.711,4.448,1.33,6.7,1.84L66.605,162.434z
				 M101.964,162.41l-0.442-1.949c2.248-0.513,4.5-1.135,6.696-1.849l0.619,1.901C106.583,161.247,104.271,161.885,101.964,162.41z
				 M53.049,158.042c-2.174-0.929-4.335-1.97-6.426-3.095l0.947-1.762c2.038,1.097,4.146,2.111,6.264,3.017L53.049,158.042z
				 M115.509,158.009l-0.788-1.838c2.125-0.912,4.23-1.929,6.258-3.022l0.949,1.761C119.848,156.03,117.688,157.074,115.509,158.009
				z M40.503,151.289c-1.969-1.3-3.909-2.71-5.77-4.189l1.246-1.564c1.813,1.443,3.706,2.818,5.625,4.087L40.503,151.289z
				 M128.042,151.244l-1.104-1.668c1.926-1.274,3.815-2.65,5.619-4.092l1.248,1.562
				C131.956,148.525,130.018,149.938,128.042,151.244z M29.362,142.409c-1.713-1.636-3.372-3.368-4.932-5.148l1.504-1.317
				c1.521,1.736,3.139,3.426,4.809,5.02L29.362,142.409z M139.172,142.354l-1.383-1.444c1.67-1.599,3.286-3.288,4.804-5.024
				l1.507,1.316C142.542,138.98,140.884,140.715,139.172,142.354z M19.977,131.691c-1.395-1.911-2.72-3.91-3.938-5.941l1.715-1.029
				c1.188,1.98,2.479,3.93,3.839,5.795L19.977,131.691z M148.546,131.628l-1.616-1.178c1.355-1.863,2.646-3.814,3.834-5.8
				l1.717,1.027C151.262,127.714,149.938,129.716,148.546,131.628z M12.65,119.479c-1.031-2.134-1.977-4.336-2.811-6.551
				l1.871-0.705c0.813,2.157,1.735,4.307,2.74,6.385L12.65,119.479z M155.861,119.4l-1.801-0.868
				c1.002-2.076,1.922-4.228,2.734-6.392l1.873,0.702C157.835,115.064,156.891,117.271,155.861,119.4z M7.631,106.148
				c-0.632-2.285-1.166-4.623-1.588-6.951l1.969-0.355c0.41,2.268,0.931,4.547,1.547,6.773L7.631,106.148z M160.869,106.062
				l-1.928-0.531c0.61-2.223,1.129-4.504,1.539-6.776l1.969,0.354C162.027,101.441,161.497,103.78,160.869,106.062z M5.088,92.134
				c-0.211-2.35-0.319-4.745-0.322-7.12l2-0.002c0.003,2.315,0.108,4.651,0.314,6.942L5.088,92.134z M163.396,92.043l-1.992-0.176
				c0.203-2.299,0.308-4.635,0.308-6.943v-0.183h2v0.183C163.712,87.292,163.605,89.688,163.396,92.043z M7.064,78.067l-1.992-0.176
				c0.208-2.364,0.523-4.741,0.939-7.064l1.969,0.352C7.575,73.443,7.267,75.761,7.064,78.067z M161.389,77.8
				c-0.209-2.295-0.525-4.611-0.938-6.885l1.967-0.359c0.426,2.333,0.75,4.709,0.964,7.062L161.389,77.8z M9.512,64.4l-1.93-0.527
				c0.625-2.281,1.362-4.563,2.193-6.785l1.873,0.701C10.839,59.954,10.12,62.179,9.512,64.4z M158.893,64.143
				c-0.615-2.22-1.343-4.441-2.16-6.604l1.871-0.707c0.84,2.219,1.586,4.499,2.217,6.776L158.893,64.143z M14.376,51.395
				l-1.803-0.867c1.027-2.135,2.163-4.248,3.378-6.281l1.717,1.025C16.484,47.253,15.377,49.313,14.376,51.395z M153.986,51.157
				c-1.008-2.079-2.121-4.134-3.311-6.109l1.713-1.031c1.221,2.026,2.362,4.136,3.396,6.268L153.986,51.157z M21.494,39.468
				l-1.619-1.176c1.391-1.916,2.886-3.792,4.442-5.578l1.508,1.314C24.307,35.77,22.85,37.6,21.494,39.468z M146.83,39.258
				c-1.363-1.865-2.826-3.689-4.348-5.423l1.502-1.32c1.562,1.778,3.062,3.65,4.461,5.563L146.83,39.258z M30.622,28.999
				l-1.385-1.443c1.707-1.638,3.511-3.219,5.361-4.7l1.25,1.561C34.045,25.861,32.286,27.402,30.622,28.999z M137.669,28.821
				c-1.673-1.593-3.437-3.13-5.244-4.567l1.245-1.564c1.854,1.474,3.663,3.05,5.378,4.683L137.669,28.821z M41.462,20.318
				l-1.105-1.666c1.976-1.311,4.031-2.546,6.111-3.672l0.951,1.76C45.393,17.837,43.388,19.041,41.462,20.318z M126.798,20.174
				c-1.929-1.27-3.938-2.468-5.972-3.56l0.945-1.762c2.086,1.12,4.146,2.349,6.125,3.651L126.798,20.174z M53.673,13.712
				l-0.789-1.838c2.178-0.937,4.421-1.782,6.668-2.516l0.621,1.9C57.982,11.974,55.796,12.799,53.673,13.712z M114.559,13.606
				c-2.119-0.902-4.312-1.721-6.514-2.432l0.615-1.903c2.258,0.729,4.507,1.568,6.682,2.495L114.559,13.606z M66.869,9.403
				l-0.447-1.949c2.308-0.528,4.667-0.958,7.015-1.277l0.27,1.982C71.418,8.47,69.117,8.889,66.869,9.403z M101.343,9.343
				c-2.253-0.507-4.555-0.918-6.842-1.221l0.265-1.982c2.344,0.311,4.705,0.731,7.018,1.252L101.343,9.343z M80.627,7.531
				l-0.092-1.998c1.236-0.057,2.454-0.084,3.705-0.084c1.133,0,2.285,0.024,3.425,0.073L87.579,7.52
				c-1.131-0.047-2.253-0.084-3.399-0.071C83.007,7.449,81.812,7.477,80.627,7.531z"/>
		</g>
	</g>
</g>
<g>
	<path fill="#4A4A4A" d="M36.864,82.268V76.21l-4.037-12.785h2.692l2.695,9.421l2.688-9.421h2.404l-3.75,12.785v6.057H36.864z"/>
	<path fill="#4A4A4A" d="M56.042,76.21c0,0.842-0.088,1.641-0.263,2.397c-0.175,0.757-0.47,1.42-0.883,1.987
		c-0.414,0.568-0.966,1.021-1.656,1.356c-0.691,0.337-1.551,0.505-2.582,0.505c-0.701,0-1.321-0.077-1.861-0.231
		c-0.54-0.154-1.008-0.368-1.403-0.642c-0.396-0.274-0.73-0.603-1.004-0.988c-0.274-0.385-0.493-0.81-0.657-1.271
		c-0.165-0.462-0.282-0.956-0.353-1.482c-0.069-0.525-0.104-1.068-0.104-1.63v-6.729c0-0.561,0.035-1.104,0.104-1.63
		c0.07-0.525,0.188-1.02,0.353-1.482c0.165-0.463,0.384-0.887,0.657-1.272c0.272-0.385,0.607-0.715,1.004-0.988
		c0.396-0.273,0.863-0.487,1.403-0.642c0.54-0.153,1.16-0.23,1.861-0.23c1.03,0,1.891,0.168,2.582,0.504
		c0.69,0.337,1.242,0.789,1.656,1.356c0.414,0.568,0.708,1.23,0.883,1.987s0.263,1.557,0.263,2.397V76.21z M47.967,76.884
		c0,0.504,0.046,0.964,0.138,1.377c0.091,0.414,0.242,0.769,0.452,1.062c0.21,0.295,0.486,0.521,0.831,0.684
		c0.343,0.161,0.768,0.242,1.271,0.242c0.505,0,0.929-0.081,1.272-0.242c0.343-0.161,0.619-0.389,0.831-0.684
		c0.21-0.294,0.36-0.647,0.451-1.062c0.092-0.413,0.138-0.873,0.138-1.377V68.81c0-0.505-0.046-0.964-0.138-1.378
		c-0.091-0.413-0.241-0.768-0.451-1.062c-0.211-0.295-0.487-0.522-0.831-0.684c-0.345-0.161-0.769-0.242-1.272-0.242
		s-0.929,0.081-1.271,0.242c-0.345,0.161-0.621,0.389-0.831,0.684c-0.21,0.294-0.361,0.648-0.452,1.062
		c-0.091,0.414-0.138,0.873-0.138,1.378V76.884z"/>
	<path fill="#4A4A4A" d="M63.78,82.467c-0.785,0-1.463-0.094-2.034-0.279c-0.572-0.186-1.057-0.441-1.457-0.768
		c-0.398-0.325-0.722-0.711-0.967-1.156c-0.246-0.445-0.437-0.924-0.573-1.436c-0.137-0.512-0.229-1.048-0.278-1.608
		c-0.05-0.561-0.074-1.121-0.074-1.683V63.425h2.691v12.12c0,0.337,0.003,0.688,0.011,1.052c0.007,0.365,0.036,0.721,0.089,1.068
		c0.053,0.348,0.131,0.679,0.236,0.994c0.105,0.315,0.258,0.591,0.457,0.826c0.2,0.234,0.454,0.422,0.764,0.562
		c0.308,0.141,0.687,0.211,1.135,0.211s0.827-0.07,1.136-0.211c0.309-0.141,0.562-0.328,0.762-0.562
		c0.2-0.235,0.353-0.511,0.458-0.826c0.105-0.315,0.185-0.646,0.236-0.994c0.052-0.348,0.083-0.703,0.089-1.068
		c0.007-0.364,0.012-0.715,0.012-1.052v-12.12h2.69v12.112c0,0.562-0.023,1.122-0.074,1.683c-0.049,0.562-0.142,1.097-0.277,1.608
		c-0.137,0.511-0.328,0.99-0.573,1.436c-0.245,0.445-0.568,0.831-0.967,1.156c-0.399,0.326-0.886,0.582-1.456,0.768
		C65.243,82.375,64.565,82.467,63.78,82.467z"/>
	<path fill="#4A4A4A" d="M79.388,82.268l-2.821-8.748h-2.02v8.748h-2.691V63.425h3.365c1.178,0,2.154,0.121,2.934,0.363
		c0.778,0.241,1.397,0.583,1.861,1.024c0.462,0.442,0.789,0.973,0.978,1.594c0.189,0.62,0.284,1.309,0.284,2.064
		c0,0.463-0.034,0.881-0.101,1.252c-0.066,0.372-0.156,0.703-0.269,0.994c-0.113,0.292-0.239,0.548-0.38,0.769
		c-0.141,0.221-0.285,0.408-0.433,0.562c-0.346,0.372-0.739,0.639-1.183,0.8l3.036,9.418L79.388,82.268L79.388,82.268z M74.547,71.5
		h0.674c0.504,0,0.963-0.047,1.377-0.142c0.413-0.095,0.768-0.258,1.062-0.489c0.294-0.231,0.522-0.541,0.683-0.931
		c0.161-0.389,0.242-0.878,0.242-1.467c0-0.589-0.081-1.077-0.242-1.467c-0.16-0.389-0.389-0.699-0.683-0.931
		c-0.294-0.23-0.648-0.395-1.062-0.488c-0.414-0.095-0.873-0.143-1.377-0.143h-0.674V71.5z"/>
	<path fill="#4A4A4A" d="M89.614,82.268V63.425h2.692v16.823h4.71v2.019H89.614z"/>
	<path fill="#4A4A4A" d="M109.465,76.21c0,0.842-0.088,1.641-0.263,2.397c-0.175,0.757-0.47,1.42-0.883,1.987
		c-0.414,0.568-0.966,1.021-1.656,1.356c-0.69,0.337-1.551,0.505-2.582,0.505c-0.701,0-1.321-0.077-1.86-0.231
		c-0.54-0.154-1.009-0.368-1.404-0.642c-0.396-0.274-0.73-0.603-1.004-0.988c-0.274-0.385-0.493-0.81-0.657-1.271
		c-0.165-0.462-0.282-0.956-0.352-1.482c-0.07-0.525-0.105-1.068-0.105-1.63v-6.729c0-0.561,0.035-1.104,0.105-1.63
		c0.069-0.525,0.187-1.02,0.352-1.482c0.165-0.463,0.384-0.887,0.657-1.272c0.272-0.385,0.607-0.715,1.004-0.988
		c0.396-0.273,0.864-0.487,1.404-0.642c0.539-0.153,1.159-0.23,1.86-0.23c1.03,0,1.892,0.168,2.582,0.504
		c0.69,0.337,1.242,0.789,1.656,1.356c0.414,0.568,0.708,1.23,0.883,1.987s0.263,1.557,0.263,2.397V76.21z M101.391,76.884
		c0,0.504,0.045,0.964,0.137,1.377c0.091,0.414,0.242,0.769,0.452,1.062c0.21,0.295,0.486,0.521,0.831,0.684
		c0.343,0.161,0.768,0.242,1.271,0.242c0.505,0,0.93-0.081,1.272-0.242s0.62-0.389,0.831-0.684c0.21-0.294,0.36-0.647,0.452-1.062
		c0.091-0.413,0.137-0.873,0.137-1.377V68.81c0-0.505-0.046-0.964-0.137-1.378c-0.092-0.413-0.242-0.768-0.452-1.062
		c-0.21-0.295-0.487-0.522-0.831-0.684c-0.345-0.161-0.769-0.242-1.272-0.242s-0.929,0.081-1.271,0.242
		c-0.345,0.161-0.621,0.389-0.831,0.684c-0.21,0.294-0.361,0.648-0.452,1.062c-0.091,0.414-0.137,0.873-0.137,1.378V76.884z"/>
	<path fill="#4A4A4A" d="M119.56,69.481c0-0.673-0.046-1.262-0.138-1.767c-0.091-0.504-0.241-0.924-0.451-1.261
		c-0.211-0.336-0.487-0.589-0.831-0.757c-0.345-0.168-0.769-0.253-1.272-0.253s-0.929,0.085-1.271,0.253
		c-0.345,0.168-0.621,0.421-0.831,0.757c-0.21,0.337-0.361,0.757-0.452,1.262s-0.138,1.094-0.138,1.767v6.056
		c0,1.01,0.077,1.823,0.231,2.439c0.154,0.617,0.358,1.094,0.61,1.43c0.252,0.337,0.54,0.562,0.861,0.674
		c0.322,0.111,0.652,0.168,0.988,0.168s0.666-0.057,0.988-0.168c0.321-0.112,0.609-0.337,0.861-0.674
		c0.252-0.336,0.456-0.812,0.61-1.43c0.154-0.616,0.231-1.43,0.231-2.439v-0.673h-2.692v-2.02h5.383v9.421h-2.019l-0.673-2.019
		c-0.147,0.413-0.345,0.781-0.59,1.104c-0.104,0.141-0.226,0.277-0.362,0.41c-0.138,0.134-0.293,0.251-0.468,0.354
		c-0.176,0.102-0.368,0.184-0.579,0.247c-0.21,0.062-0.441,0.095-0.694,0.095c-0.562,0-1.083-0.048-1.566-0.143
		c-0.483-0.094-0.925-0.254-1.324-0.478c-0.4-0.225-0.755-0.522-1.062-0.895c-0.309-0.371-0.57-0.837-0.784-1.398
		s-0.375-1.219-0.482-1.977c-0.109-0.757-0.163-1.637-0.163-2.639v-4.772c0-1.01,0.091-1.938,0.272-2.786
		c0.183-0.849,0.484-1.577,0.904-2.188c0.42-0.609,0.974-1.086,1.661-1.43c0.687-0.344,1.535-0.515,2.544-0.515
		c0.89,0,1.67,0.138,2.339,0.415c0.669,0.276,1.23,0.68,1.683,1.209c0.453,0.529,0.792,1.183,1.021,1.961
		c0.228,0.778,0.342,1.665,0.342,2.66L119.56,69.481L119.56,69.481z"/>
	<path fill="#4A4A4A" d="M135.036,76.21c0,0.842-0.088,1.641-0.263,2.397c-0.175,0.757-0.47,1.42-0.883,1.987
		c-0.414,0.568-0.967,1.021-1.656,1.356c-0.691,0.337-1.551,0.505-2.582,0.505c-0.701,0-1.321-0.077-1.861-0.231
		c-0.54-0.154-1.008-0.368-1.403-0.642c-0.396-0.274-0.73-0.603-1.005-0.988c-0.273-0.385-0.492-0.81-0.656-1.271
		c-0.165-0.462-0.282-0.956-0.353-1.482c-0.069-0.525-0.104-1.068-0.104-1.63v-6.729c0-0.561,0.035-1.104,0.104-1.63
		c0.07-0.525,0.188-1.02,0.353-1.482c0.165-0.463,0.384-0.887,0.656-1.272c0.273-0.385,0.608-0.715,1.005-0.988
		c0.396-0.273,0.863-0.487,1.403-0.642c0.54-0.153,1.16-0.23,1.861-0.23c1.03,0,1.891,0.168,2.582,0.504
		c0.689,0.337,1.242,0.789,1.656,1.356c0.414,0.568,0.708,1.23,0.883,1.987s0.263,1.557,0.263,2.397V76.21z M126.961,76.884
		c0,0.504,0.045,0.964,0.138,1.377c0.091,0.414,0.241,0.769,0.451,1.062c0.21,0.295,0.487,0.521,0.831,0.684
		c0.344,0.161,0.769,0.242,1.272,0.242c0.505,0,0.929-0.081,1.271-0.242c0.344-0.161,0.62-0.389,0.831-0.684
		c0.21-0.294,0.361-0.647,0.452-1.062c0.091-0.413,0.138-0.873,0.138-1.377V68.81c0-0.505-0.047-0.964-0.138-1.378
		c-0.091-0.413-0.242-0.768-0.452-1.062c-0.21-0.295-0.486-0.522-0.831-0.684c-0.344-0.161-0.768-0.242-1.271-0.242
		s-0.929,0.081-1.272,0.242c-0.344,0.161-0.621,0.389-0.831,0.684c-0.21,0.294-0.36,0.648-0.451,1.062
		c-0.092,0.414-0.138,0.873-0.138,1.378V76.884z"/>
	<path fill="#4A4A4A" d="M70.979,99.358h-4.71v8.748h-2.692V89.266h2.692v8.075h4.71v-8.075h2.69v18.843h-2.69V99.358z"/>
	<path fill="#4A4A4A" d="M82.417,99.358h-3.363v6.729h4.71v2.02H76.36V89.266h7.402v2.019h-4.711v6.057h3.364L82.417,99.358
		L82.417,99.358z"/>
	<path fill="#4A4A4A" d="M93.313,108.106l-2.821-8.748h-2.019v8.748h-2.692V89.266h3.365c1.178,0,2.154,0.12,2.934,0.362
		c0.778,0.242,1.398,0.584,1.861,1.024c0.462,0.442,0.789,0.974,0.978,1.595c0.189,0.619,0.284,1.309,0.284,2.064
		c0,0.463-0.034,0.881-0.1,1.252c-0.067,0.372-0.157,0.703-0.27,0.994c-0.112,0.293-0.238,0.549-0.38,0.77
		c-0.141,0.221-0.285,0.408-0.433,0.561c-0.346,0.373-0.739,0.641-1.183,0.801l3.036,9.418H93.313z M88.474,97.341h0.673
		c0.504,0,0.963-0.047,1.377-0.143c0.414-0.094,0.768-0.258,1.062-0.488c0.294-0.231,0.522-0.541,0.684-0.932
		c0.161-0.389,0.241-0.878,0.241-1.467s-0.08-1.077-0.241-1.467c-0.161-0.389-0.39-0.699-0.684-0.932
		c-0.294-0.229-0.647-0.394-1.062-0.488c-0.414-0.094-0.873-0.143-1.377-0.143h-0.673V97.341z"/>
	<path fill="#4A4A4A" d="M103.95,99.358h-3.364v6.729h4.71v2.02h-7.401V89.266h7.401v2.019h-4.71v6.057h3.364V99.358z"/>
</g>
</svg>
