<?xml version="1.0" encoding="utf-8"?>
<!-- Generator: Adobe Illustrator 16.2.1, SVG Export Plug-In . SVG Version: 6.00 Build 0)  -->
<!DOCTYPE svg PUBLIC "-//W3C//DTD SVG 1.1//EN" "http://www.w3.org/Graphics/SVG/1.1/DTD/svg11.dtd">
<svg version="1.1" id="Capa_1" xmlns="http://www.w3.org/2000/svg" xmlns:xlink="http://www.w3.org/1999/xlink" x="0px" y="0px"
	 width="238px" height="240.361px" viewBox="0 0 238 240.361" enable-background="new 0 0 238 240.361" xml:space="preserve">
<g>
	<g opacity="0.1">
		<circle cx="119.417" cy="119.122" r="108.659"/>
	</g>
	<g opacity="0.2">
		<g>
			<path d="M119.479,234.931h-0.062c-2.299,0-4.629-0.068-6.927-0.204l0.117-1.996c2.259,0.133,4.55,0.2,6.81,0.2L119.479,234.931z
				 M126.471,234.719l-0.121-1.994c2.285-0.14,4.588-0.348,6.844-0.618l0.24,1.984C131.139,234.367,128.795,234.579,126.471,234.719
				z M105.525,234.106c-2.313-0.276-4.641-0.626-6.916-1.04l0.357-1.967c2.235,0.403,4.521,0.749,6.795,1.021L105.525,234.106z
				 M140.348,233.045l-0.357-1.967c2.252-0.412,4.514-0.896,6.72-1.438l0.479,1.939
				C144.939,232.133,142.641,232.626,140.348,233.045z M91.77,231.609c-2.26-0.556-4.528-1.185-6.741-1.87l0.594-1.91
				c2.174,0.676,4.402,1.294,6.622,1.837L91.77,231.609z M153.924,229.703l-0.596-1.908c2.189-0.685,4.375-1.438,6.496-2.245
				l0.711,1.869C158.376,228.239,156.152,229.008,153.924,229.703z M78.403,227.459c-2.181-0.826-4.358-1.729-6.473-2.68
				l0.821-1.824c2.077,0.938,4.217,1.821,6.36,2.633L78.403,227.459z M166.982,224.742l-0.821-1.822
				c2.082-0.938,4.157-1.954,6.168-3.011l0.933,1.77C171.215,222.755,169.104,223.785,166.982,224.742z M65.637,221.712
				c-2.062-1.082-4.112-2.238-6.098-3.439l1.035-1.711c1.951,1.18,3.967,2.316,5.992,3.383L65.637,221.712z M179.344,218.241
				l-1.037-1.711c1.95-1.182,3.891-2.438,5.764-3.734l1.141,1.646C183.303,215.76,181.328,217.038,179.344,218.241z M53.663,214.466
				c-1.913-1.32-3.81-2.718-5.636-4.147l1.234-1.574c1.795,1.406,3.658,2.779,5.538,4.079L53.663,214.466z M190.835,210.295
				l-1.233-1.574c1.801-1.41,3.576-2.894,5.276-4.399l1.326,1.496C194.475,207.351,192.667,208.857,190.835,210.295z
				 M42.656,205.838c-1.737-1.539-3.451-3.149-5.095-4.792l1.414-1.416c1.614,1.613,3.3,3.198,5.007,4.712L42.656,205.838z
				 M201.296,201.021l-1.414-1.414c1.616-1.616,3.202-3.301,4.714-5.005l1.496,1.324
				C204.555,197.663,202.939,199.377,201.296,201.021z M32.765,195.956c-1.537-1.73-3.046-3.539-4.481-5.368l1.572-1.232
				c1.412,1.797,2.894,3.57,4.405,5.272L32.765,195.956z M210.574,190.56L209,189.325c1.41-1.797,2.783-3.659,4.082-5.537
				l1.645,1.139C213.404,186.837,212.008,188.732,210.574,190.56z M24.133,184.964c-1.321-1.906-2.602-3.881-3.804-5.861
				l1.711-1.037c1.181,1.945,2.438,3.886,3.737,5.762L24.133,184.964z M218.533,179.052l-1.711-1.035
				c1.187-1.957,2.324-3.974,3.387-5.989l1.77,0.932C220.898,175.01,219.74,177.061,218.533,179.052z M16.889,173.02
				c-1.078-2.047-2.109-4.157-3.066-6.274l1.822-0.824c0.94,2.081,1.954,4.155,3.014,6.167L16.889,173.02z M225.048,166.663
				l-1.823-0.822c0.94-2.087,1.828-4.227,2.637-6.355l1.869,0.709C226.908,162.361,226.005,164.539,225.048,166.663z
				 M11.142,160.297c-0.827-2.173-1.597-4.396-2.287-6.607l1.908-0.598c0.68,2.175,1.436,4.358,2.248,6.494L11.142,160.297z
				 M230.016,153.569l-1.91-0.594c0.681-2.185,1.299-4.41,1.844-6.622l1.939,0.477C231.336,149.081,230.706,151.349,230.016,153.569
				z M6.975,146.951c-0.555-2.247-1.048-4.548-1.468-6.837l1.967-0.361c0.413,2.25,0.898,4.513,1.442,6.722L6.975,146.951z
				 M233.35,139.989l-1.967-0.357c0.407-2.245,0.754-4.529,1.024-6.795l1.985,0.238C234.116,135.379,233.766,137.705,233.35,139.989
				z M4.456,133.2c-0.279-2.311-0.492-4.654-0.631-6.963l1.996-0.121c0.137,2.27,0.346,4.572,0.621,6.844L4.456,133.2z
				 M235.018,126.11l-1.996-0.119c0.138-2.272,0.205-4.584,0.205-6.869l-0.002-0.243h2l0.002,0.231
				C235.227,121.447,235.154,123.799,235.018,126.11z M5.608,119.244h-2v-0.122c0-2.289,0.067-4.599,0.2-6.865l1.996,0.117
				c-0.13,2.229-0.196,4.498-0.196,6.748V119.244z M233.007,112.01c-0.141-2.278-0.353-4.583-0.628-6.845l1.984-0.242
				c0.281,2.303,0.496,4.646,0.64,6.964L233.007,112.01z M6.412,105.528l-1.986-0.236c0.275-2.312,0.624-4.64,1.036-6.917
				l1.969,0.357C7.024,100.969,6.683,103.256,6.412,105.528z M231.34,98.373c-0.414-2.246-0.902-4.506-1.449-6.718l1.94-0.481
				c0.558,2.251,1.056,4.553,1.476,6.836L231.34,98.373z M8.858,92.009l-1.943-0.475c0.552-2.257,1.18-4.524,1.866-6.74l1.91,0.592
				C10.017,87.563,9.4,89.791,8.858,92.009z M228.035,85.038c-0.686-2.184-1.444-4.367-2.256-6.491l1.869-0.714
				c0.824,2.162,1.598,4.385,2.295,6.606L228.035,85.038z M12.93,78.875l-1.871-0.708c0.823-2.177,1.724-4.354,2.676-6.474
				l1.824,0.817C14.623,74.594,13.738,76.735,12.93,78.875z M223.141,72.213c-0.938-2.068-1.953-4.145-3.021-6.163l1.769-0.935
				c1.086,2.055,2.119,4.165,3.073,6.271L223.141,72.213z M18.57,66.325l-1.771-0.93c1.083-2.063,2.24-4.115,3.439-6.1l1.711,1.035
				C20.771,62.28,19.635,64.297,18.57,66.325z M216.73,60.078c-1.184-1.944-2.44-3.882-3.742-5.758l1.643-1.143
				c1.325,1.909,2.605,3.883,3.811,5.859L216.73,60.078z M25.684,54.556l-1.646-1.138c1.318-1.91,2.713-3.807,4.146-5.637
				l1.574,1.233C28.35,50.814,26.979,52.677,25.684,54.556z M208.902,48.796c-1.412-1.795-2.896-3.565-4.409-5.27l1.493-1.329
				c1.541,1.729,3.051,3.535,4.488,5.362L208.902,48.796z M34.158,43.732l-1.498-1.325c1.538-1.738,3.15-3.453,4.791-5.097
				l1.416,1.413C37.254,40.339,35.67,42.023,34.158,43.732z M199.773,38.53c-1.619-1.614-3.307-3.197-5.012-4.707l1.323-1.498
				c1.735,1.535,3.452,3.146,5.101,4.788L199.773,38.53z M43.866,34.006l-1.328-1.495c1.738-1.544,3.543-3.053,5.364-4.482
				l1.236,1.572C47.348,31.006,45.574,32.488,43.866,34.006z M189.477,29.427c-1.799-1.406-3.664-2.776-5.541-4.07l1.135-1.646
				c1.91,1.316,3.809,2.711,5.641,4.146L189.477,29.427z M54.664,25.518l-1.139-1.646c1.91-1.324,3.883-2.604,5.861-3.807
				l1.037,1.71C58.48,22.958,56.542,24.217,54.664,25.518z M178.156,21.623c-1.961-1.183-3.979-2.316-5.995-3.376l0.928-1.771
				c2.054,1.074,4.106,2.229,6.101,3.435L178.156,21.623z M66.398,18.392l-0.934-1.771c2.052-1.082,4.162-2.114,6.274-3.069
				l0.824,1.822C70.488,16.313,68.414,17.328,66.398,18.392z M165.973,15.239c-2.084-0.938-4.227-1.818-6.363-2.626l0.707-1.871
				c2.176,0.821,4.354,1.721,6.477,2.673L165.973,15.239z M78.897,12.738l-0.713-1.869c2.172-0.828,4.396-1.599,6.608-2.291
				l0.598,1.909C83.216,11.167,81.031,11.925,78.897,12.738z M153.098,10.379c-2.182-0.674-4.41-1.29-6.627-1.83l0.475-1.941
				c2.256,0.55,4.523,1.177,6.742,1.86L153.098,10.379z M92.009,8.635l-0.48-1.939c2.249-0.559,4.55-1.052,6.837-1.472l0.361,1.967
				C96.479,7.603,94.219,8.089,92.009,8.635z M139.748,7.124c-2.243-0.404-4.53-0.745-6.798-1.014l0.235-1.986
				c2.308,0.273,4.635,0.62,6.918,1.032L139.748,7.124z M105.521,6.153l-0.242-1.985c2.304-0.28,4.646-0.494,6.964-0.636
				l0.121,1.996C110.086,5.668,107.784,5.878,105.521,6.153z M126.105,5.507c-2.213-0.128-4.463-0.191-6.688-0.191h-0.184v-2h0.184
				c2.267,0,4.556,0.064,6.804,0.194L126.105,5.507z"/>
		</g>
	</g>
</g>
<g>
	<path fill="#4A4A4A" d="M51.357,115.784v-8.696l-5.796-18.355h3.865l3.87,13.525l3.86-13.525h3.452l-5.384,18.355v8.696H51.357z"/>
	<path fill="#4A4A4A" d="M78.891,107.088c0,1.208-0.126,2.356-0.377,3.441c-0.251,1.087-0.674,2.039-1.268,2.853
		c-0.594,0.816-1.387,1.465-2.378,1.947c-0.993,0.484-2.226,0.725-3.707,0.725c-1.006,0-1.896-0.11-2.672-0.331
		c-0.775-0.222-1.447-0.529-2.015-0.922c-0.569-0.394-1.049-0.866-1.441-1.419c-0.394-0.553-0.708-1.163-0.944-1.826
		c-0.237-0.664-0.405-1.373-0.506-2.128c-0.1-0.753-0.15-1.533-0.15-2.34v-9.661c0-0.806,0.051-1.585,0.15-2.34
		c0.101-0.753,0.269-1.464,0.506-2.127c0.237-0.665,0.551-1.273,0.944-1.826c0.391-0.553,0.872-1.027,1.441-1.418
		c0.567-0.392,1.239-0.699,2.015-0.922c0.775-0.22,1.666-0.331,2.672-0.331c1.479,0,2.714,0.242,3.707,0.724
		c0.991,0.484,1.784,1.133,2.378,1.947c0.595,0.815,1.017,1.766,1.268,2.853s0.377,2.236,0.377,3.441V107.088z M67.297,108.055
		c0,0.724,0.066,1.385,0.198,1.977c0.13,0.595,0.348,1.104,0.649,1.525c0.302,0.423,0.698,0.749,1.193,0.981
		c0.492,0.231,1.102,0.348,1.825,0.348c0.725,0,1.333-0.116,1.827-0.348c0.492-0.231,0.889-0.558,1.193-0.981
		c0.302-0.422,0.518-0.93,0.648-1.525c0.132-0.592,0.198-1.253,0.198-1.977V96.462c0-0.725-0.066-1.384-0.198-1.978
		c-0.13-0.593-0.346-1.103-0.648-1.525c-0.301-0.423-0.699-0.75-1.193-0.982c-0.495-0.231-1.104-0.348-1.827-0.348
		c-0.723,0-1.333,0.116-1.825,0.348c-0.495,0.23-0.892,0.559-1.193,0.982c-0.301,0.422-0.519,0.93-0.649,1.525
		c-0.13,0.594-0.198,1.253-0.198,1.978V108.055z"/>
	<path fill="#4A4A4A" d="M90,116.071c-1.127,0-2.1-0.135-2.92-0.4c-0.822-0.267-1.517-0.633-2.092-1.103
		c-0.572-0.467-1.036-1.021-1.388-1.659c-0.353-0.64-0.625-1.327-0.823-2.062c-0.196-0.735-0.33-1.504-0.399-2.309
		c-0.072-0.805-0.107-1.609-0.107-2.416v-17.39h3.864v17.401c0,0.483,0.004,0.988,0.015,1.511c0.01,0.523,0.054,1.035,0.128,1.533
		c0.076,0.5,0.188,0.975,0.339,1.428c0.151,0.452,0.37,0.848,0.656,1.185c0.288,0.336,0.652,0.606,1.097,0.807
		c0.441,0.203,0.985,0.303,1.629,0.303s1.188-0.1,1.631-0.303c0.443-0.202,0.808-0.471,1.095-0.807
		c0.286-0.337,0.505-0.733,0.658-1.185c0.15-0.453,0.264-0.928,0.338-1.428s0.119-1.009,0.127-1.533
		c0.01-0.523,0.017-1.027,0.017-1.511V88.732h3.862v17.39c0,0.807-0.034,1.611-0.106,2.416c-0.07,0.806-0.203,1.575-0.398,2.309
		c-0.196,0.733-0.471,1.421-0.823,2.062c-0.352,0.638-0.816,1.192-1.388,1.659c-0.574,0.468-1.271,0.835-2.091,1.103
		S91.128,116.071,90,116.071z"/>
	<path fill="#4A4A4A" d="M112.408,115.784l-4.051-12.56h-2.899v12.56h-3.864V88.732h4.831c1.691,0,3.093,0.174,4.212,0.521
		c1.117,0.346,2.008,0.837,2.672,1.47c0.663,0.634,1.133,1.397,1.403,2.289c0.272,0.89,0.408,1.879,0.408,2.964
		c0,0.666-0.049,1.266-0.143,1.798c-0.097,0.534-0.226,1.009-0.387,1.427c-0.163,0.419-0.343,0.787-0.545,1.104
		c-0.202,0.317-0.409,0.586-0.621,0.807c-0.496,0.534-1.061,0.918-1.698,1.149l4.359,13.521h-3.677V115.784z M105.458,100.326h0.967
		c0.724,0,1.382-0.067,1.977-0.204c0.594-0.137,1.102-0.37,1.524-0.702s0.75-0.776,0.98-1.336c0.231-0.559,0.348-1.261,0.348-2.107
		c0-0.845-0.116-1.545-0.348-2.105c-0.23-0.558-0.558-1.003-0.98-1.336c-0.422-0.331-0.93-0.566-1.524-0.701
		c-0.595-0.136-1.253-0.206-1.977-0.206h-0.967V100.326z"/>
	<path fill="#4A4A4A" d="M127.09,115.784V88.732h3.865v24.153h6.763v2.899H127.09z"/>
	<path fill="#4A4A4A" d="M155.59,107.088c0,1.208-0.127,2.356-0.378,3.441c-0.251,1.087-0.674,2.039-1.268,2.853
		c-0.594,0.816-1.386,1.465-2.377,1.947c-0.991,0.484-2.227,0.725-3.707,0.725c-1.007,0-1.896-0.11-2.671-0.331
		c-0.775-0.222-1.448-0.529-2.017-0.922c-0.569-0.394-1.049-0.866-1.441-1.419c-0.394-0.553-0.708-1.163-0.943-1.826
		c-0.237-0.664-0.405-1.373-0.505-2.128c-0.101-0.753-0.151-1.533-0.151-2.34v-9.661c0-0.806,0.051-1.585,0.151-2.34
		c0.1-0.753,0.268-1.464,0.505-2.127c0.237-0.665,0.551-1.273,0.943-1.826c0.392-0.553,0.872-1.027,1.441-1.418
		c0.568-0.392,1.241-0.699,2.017-0.922c0.775-0.22,1.664-0.331,2.671-0.331c1.479,0,2.716,0.242,3.707,0.724
		c0.991,0.484,1.783,1.133,2.377,1.947c0.595,0.815,1.017,1.766,1.268,2.853s0.378,2.236,0.378,3.441V107.088z M143.997,108.055
		c0,0.724,0.064,1.385,0.196,1.977c0.131,0.595,0.348,1.104,0.649,1.525c0.302,0.423,0.698,0.749,1.193,0.981
		c0.492,0.231,1.102,0.348,1.825,0.348c0.725,0,1.335-0.116,1.827-0.348s0.89-0.558,1.192-0.981c0.302-0.422,0.518-0.93,0.649-1.525
		c0.131-0.592,0.196-1.253,0.196-1.977V96.462c0-0.725-0.065-1.384-0.196-1.978c-0.132-0.593-0.348-1.103-0.649-1.525
		c-0.301-0.423-0.699-0.75-1.192-0.982c-0.494-0.231-1.104-0.348-1.827-0.348s-1.333,0.116-1.825,0.348
		c-0.495,0.23-0.892,0.559-1.193,0.982c-0.302,0.422-0.519,0.93-0.649,1.525c-0.13,0.594-0.196,1.253-0.196,1.978V108.055z"/>
	<path fill="#4A4A4A" d="M170.082,97.427c0-0.966-0.065-1.812-0.197-2.537c-0.131-0.723-0.347-1.326-0.648-1.81
		c-0.301-0.482-0.699-0.845-1.192-1.086c-0.495-0.242-1.104-0.364-1.827-0.364s-1.333,0.122-1.825,0.364
		c-0.495,0.241-0.892,0.604-1.193,1.086c-0.302,0.484-0.519,1.087-0.649,1.812c-0.13,0.725-0.197,1.571-0.197,2.537v8.695
		c0,1.45,0.11,2.617,0.332,3.501c0.222,0.885,0.515,1.571,0.876,2.053c0.362,0.484,0.775,0.806,1.237,0.967
		c0.462,0.159,0.937,0.241,1.419,0.241c0.481,0,0.956-0.082,1.419-0.241c0.461-0.161,0.874-0.483,1.236-0.967
		c0.361-0.482,0.654-1.167,0.876-2.053c0.222-0.885,0.332-2.053,0.332-3.501v-0.966h-3.865v-2.899h7.729v13.526h-2.898l-0.966-2.899
		c-0.212,0.593-0.495,1.122-0.847,1.585c-0.15,0.203-0.324,0.397-0.521,0.588c-0.197,0.193-0.421,0.36-0.672,0.507
		c-0.252,0.146-0.528,0.264-0.831,0.354c-0.302,0.089-0.634,0.137-0.997,0.137c-0.805,0-1.555-0.068-2.249-0.205
		c-0.693-0.136-1.327-0.365-1.9-0.687c-0.575-0.323-1.084-0.75-1.525-1.285c-0.443-0.533-0.819-1.201-1.126-2.007
		c-0.308-0.806-0.539-1.75-0.692-2.838c-0.157-1.086-0.234-2.351-0.234-3.789v-6.852c0-1.451,0.13-2.783,0.391-4
		c0.263-1.219,0.695-2.265,1.299-3.142c0.603-0.874,1.397-1.56,2.385-2.053c0.985-0.493,2.204-0.739,3.652-0.739
		c1.277,0,2.397,0.198,3.357,0.596c0.961,0.396,1.767,0.977,2.416,1.736c0.65,0.759,1.137,1.698,1.465,2.815
		c0.327,1.118,0.491,2.391,0.491,3.819h-3.857V97.427z"/>
	<path fill="#4A4A4A" d="M192.302,107.088c0,1.208-0.126,2.356-0.377,3.441c-0.251,1.087-0.675,2.039-1.268,2.853
		c-0.595,0.816-1.388,1.465-2.378,1.947c-0.992,0.484-2.227,0.725-3.707,0.725c-1.007,0-1.896-0.11-2.672-0.331
		c-0.775-0.222-1.447-0.529-2.015-0.922c-0.569-0.394-1.049-0.866-1.443-1.419c-0.393-0.553-0.706-1.163-0.942-1.826
		c-0.236-0.664-0.404-1.373-0.506-2.128c-0.1-0.753-0.149-1.533-0.149-2.34v-9.661c0-0.806,0.05-1.585,0.149-2.34
		c0.102-0.753,0.27-1.464,0.506-2.127c0.237-0.665,0.552-1.273,0.942-1.826c0.393-0.553,0.874-1.027,1.443-1.418
		c0.567-0.392,1.239-0.699,2.015-0.922c0.775-0.22,1.665-0.331,2.672-0.331c1.479,0,2.715,0.242,3.707,0.724
		c0.99,0.484,1.783,1.133,2.378,1.947c0.595,0.815,1.017,1.766,1.268,2.853s0.377,2.236,0.377,3.441V107.088z M180.708,108.055
		c0,0.724,0.064,1.385,0.198,1.977c0.13,0.595,0.346,1.104,0.647,1.525c0.303,0.423,0.699,0.749,1.193,0.981
		c0.493,0.231,1.104,0.348,1.827,0.348c0.725,0,1.333-0.116,1.825-0.348c0.493-0.231,0.89-0.558,1.193-0.981
		c0.301-0.422,0.519-0.93,0.648-1.525c0.131-0.592,0.198-1.253,0.198-1.977V96.462c0-0.725-0.067-1.384-0.198-1.978
		c-0.13-0.593-0.348-1.103-0.648-1.525c-0.302-0.423-0.698-0.75-1.193-0.982c-0.494-0.231-1.103-0.348-1.825-0.348
		c-0.724,0-1.334,0.116-1.827,0.348c-0.494,0.23-0.891,0.559-1.193,0.982c-0.302,0.422-0.518,0.93-0.647,1.525
		c-0.132,0.594-0.198,1.253-0.198,1.978V108.055z"/>
	<path fill="#4A4A4A" d="M100.335,140.322h-6.762v12.56h-3.865V125.83h3.865v11.595h6.762V125.83h3.863v27.052h-3.863V140.322z"/>
	<path fill="#4A4A4A" d="M116.757,140.322h-4.828v9.659h6.762v2.9h-10.629V125.83h10.627v2.899h-6.762v8.695h4.829L116.757,140.322
		L116.757,140.322z"/>
	<path fill="#4A4A4A" d="M132.401,152.882l-4.051-12.56h-2.898v12.56h-3.865V125.83h4.832c1.69,0,3.093,0.174,4.211,0.521
		s2.008,0.839,2.673,1.47c0.663,0.637,1.133,1.399,1.403,2.291c0.271,0.889,0.408,1.879,0.408,2.964c0,0.665-0.05,1.265-0.144,1.798
		c-0.097,0.532-0.226,1.009-0.387,1.427s-0.342,0.785-0.545,1.104c-0.202,0.317-0.41,0.584-0.621,0.805
		c-0.497,0.536-1.062,0.917-1.698,1.15l4.358,13.521H132.401z M125.452,137.425h0.967c0.723,0,1.382-0.066,1.977-0.204
		s1.102-0.37,1.524-0.701c0.422-0.334,0.75-0.776,0.98-1.338c0.231-0.558,0.349-1.262,0.349-2.105c0-0.847-0.117-1.548-0.349-2.105
		c-0.23-0.559-0.559-1.004-0.98-1.338c-0.423-0.331-0.93-0.566-1.524-0.701s-1.254-0.205-1.977-0.205h-0.967V137.425z"/>
	<path fill="#4A4A4A" d="M147.672,140.322h-4.83v9.659h6.763v2.9h-10.627V125.83h10.627v2.899h-6.763v8.695h4.83V140.322z"/>
</g>
</svg>
