<?xml version="1.0" encoding="utf-8"?>
<!-- Generator: Adobe Illustrator 16.0.0, SVG Export Plug-In . SVG Version: 6.00 Build 0)  -->
<!DOCTYPE svg PUBLIC "-//W3C//DTD SVG 1.1//EN" "http://www.w3.org/Graphics/SVG/1.1/DTD/svg11.dtd">
<svg version="1.1" id="Capa_2" xmlns="http://www.w3.org/2000/svg" xmlns:xlink="http://www.w3.org/1999/xlink" x="0px" y="0px"
	 width="458px" height="223px" viewBox="0 0 458 223" enable-background="new 0 0 458 223" xml:space="preserve">
<g>
	<g>
		<polygon fill="#CCCCCC" points="292.764,214.48 292.764,159.957 390.861,159.957 373.544,187.22 390.861,214.48 		"/>
		<path d="M387.07,162.042l-15.995,25.178l15.995,25.179h-92.225v-50.355L387.07,162.042 M394.656,157.873h-7.586h-92.225h-4.168
			v4.169v50.354v4.17h4.168h92.225h7.586l-4.068-6.404l-14.574-22.942l14.574-22.942L394.656,157.873L394.656,157.873z"/>
	</g>
	<g>
		<polygon fill="#CCCCCC" points="67.7,214.48 85.02,187.22 67.7,159.957 165.801,159.957 165.801,214.48 		"/>
		<path d="M163.717,162.042v50.354H71.494l15.995-25.178l-15.995-25.178L163.717,162.042 M167.886,157.873h-4.169H71.494h-7.587
			l4.069,6.404L82.55,187.22l-14.575,22.942l-4.069,6.404h7.587h92.223h4.169v-4.17v-50.354L167.886,157.873L167.886,157.873z"/>
	</g>
	<polygon fill="#7D7D7D" points="340.088,208.512 290.678,216.566 290.678,201.168 	"/>
	<polyline fill="#7D7D7D" points="117.375,208.512 167.886,201.168 167.886,216.566 	"/>
	<g>
		<rect x="119.459" y="131.197" fill="#FFFFFF" width="218.544" height="75.229"/>
		<path d="M335.92,133.281v71.062H121.544v-71.062H335.92 M340.088,129.113h-4.168H121.544h-4.168v4.168v71.062v4.169h4.168H335.92
			h4.168v-4.169v-71.062V129.113L340.088,129.113z"/>
	</g>
	<line fill="none" x1="167.886" y1="216.566" x2="117.375" y2="208.512"/>
	<g>
		<path d="M170.649,168.948l0.218,0.073l0.71,0.072l0.492-0.109h0.254h0.401l0.346,0.146l0.255-0.072l0.454,0.072l0.292-0.036
			l0.146-0.036l0.273,0.164l0.218-0.055l0.492,0.055l0.328,0.036h0.218l0.146,0.072h0.31l0.218,0.11l0.819,0.182l0.673,0.182
			l0.418,0.201l0.183,0.036l0.437,0.254l0.236,0.109l0.183,0.036l0.219,0.146h0.346l0.145,0.603h0.183l0.527,0.328l0.674,0.09
			l0.109,0.438l0.254,0.31l0.182,0.182l0.637,0.747l0.182,0.183l0.383,0.564l0.291,0.255l-0.072,0.418l0.182,0.474l0.237,0.072
			l0.182,0.311l0.255,0.291l0.109,0.219l0.164,0.347l0.292,1.038l0.218,0.709l0.036,0.419l0.073,0.292l0.037,0.291v0.711
			l0.091,0.562l-0.091,0.183v0.965l-0.292,1.421l0.036,0.309v0.184l-0.145,0.362l-0.146,0.237l-0.037,0.108l0.074,0.218
			l-0.109,0.527l-0.237,0.438l0.037,0.564l-0.073,0.146l-0.182,0.272l-0.036,0.254l-0.254,0.675l-0.11,0.363l0.036,0.311
			l-0.127,0.582l-0.036,0.2l0.036,0.438l0.091,0.183l-0.2,0.273l-0.146,0.254v0.218l0.109,0.165v0.146l0.037,0.254l0.273,0.309
			v0.146l0.073,0.254l0.292,0.455l0.418,0.256h0.146l0.218-0.146l0.492-0.035l0.51,0.035l0.418,0.438l0.037,0.348l-0.037,0.218
			l-0.145,0.492l-0.31,0.218l-0.892,0.292l-0.601,0.073l-0.364,0.055h-0.146h-0.182l-0.783-0.055l-0.455-0.146h-0.291l-0.165-0.108
			l-0.364-0.108H181.3l-0.546-0.219l-0.346-0.419l-0.218-0.183l-0.037-0.183l-0.254-0.108l-0.201-0.272l-0.4-0.364l-0.073-0.183
			l-0.347-0.601l-0.145-0.347l-0.145-0.401l-0.037-0.182l-0.072-0.711l-0.11-0.127v-0.326l0.037-0.256l-0.109-0.236l0.036-1.037
			l-0.073-0.564l-0.091-0.363l0.037-0.183l0.091-0.2v-0.438l0.036-0.272l0.036-0.146l0.11-0.183l-0.074-0.291v-0.165l0.109-0.69
			l0.074-0.273l0.145-0.817l-0.036-0.219l-0.218-0.42V182l0.254-1.202l0.073-0.653l-0.073-0.604l0.255-0.309l0.09-0.474l0.037-0.219
			l0.036-0.237l0.036-1.037l-0.036-0.453v-0.146l0.036-0.528l-0.109-0.146l0.036-0.545l-0.128-0.202l-0.036-0.399l-0.108-0.146
			l-0.036-0.165l0.036-0.29l-0.11-0.364l-0.109-0.273l-0.109-0.146l-0.146-0.11l-0.037-0.218l-0.199-0.091l-0.146-0.363
			l-0.564-0.529l-0.218-0.145l-0.255-0.037l-0.255-0.035l-0.091-0.108l-0.291-0.073h-0.328l-0.31,0.109h-0.145l-0.292,0.182
			l-0.165,0.219l-0.292,0.711l-0.073,0.346v0.291l-0.036,0.273v0.326l-0.073,0.639v0.256l-0.182,1.675l-0.036,0.31l-0.127,0.363
			l0.036,0.183l0.237,0.418l0.037,0.329l-0.273,0.418l0.237-0.035l0.036,0.51l-0.273,0.382l0.036,0.292l0.346,0.383l0.037,0.602
			l-0.037,0.183l0.109,0.674l-0.146,0.51l-0.036,1.093l0.182,0.672l-0.036,0.146l-0.036,0.51l-0.182,0.235l-0.31,0.364h0.382
			l0.11,0.272v0.146l-0.036,0.29l0.036,0.455l0.036,0.363l0.292,0.456l0.073,0.509l0.055,0.237l-0.092,0.328l0.092,0.218v0.2
			l0.218,0.856l0.109,0.145l0.037,0.145l0.146,0.349l0.145,0.182l0.165,0.146l0.254,0.382l0.401,0.327l0.273,0.219l0.509,0.237
			l0.237,0.146l0.183,0.072l0.217-0.036l0.146,0.184l0.2,0.109l0.109,0.182l0.073,0.31v0.219l-0.145,0.419l-0.146,0.146
			l-0.091,0.146l-0.255,0.108l-0.145,0.146l-0.11,0.035l-0.273,0.036l-0.182,0.035l-0.292,0.056l-0.31,0.036l-0.509-0.036
			l-0.456-0.127h-0.255H175.2l-0.347-0.146l-0.4-0.037l-0.2-0.035l-0.219-0.036l-0.564-0.072l-0.254-0.109h-0.292h-0.2l-0.254-0.109
			l-0.292,0.036h-0.454l-0.182-0.108l-0.146,0.072h-0.2l-0.292-0.309h-0.218l-0.273,0.109h-0.51l-0.419,0.09l-0.182-0.056
			l-0.455,0.056l-0.109,0.108l-0.255,0.146l-0.073-0.183l-0.527-0.073l-0.219,0.109h-0.109l-0.346,0.182l-0.401,0.328l-0.528,0.563
			l-0.601,0.073l-0.328-0.073l-0.418-0.218l-0.183-0.236l-0.145-0.4v-0.255l0.037-0.528l0.218-0.418l0.109-0.291l0.2-0.22
			l0.292-0.146l0.183-0.128l0.491-0.291l0.673-0.255l0.182-0.036l0.292-0.164l0.455-0.255l0.491-0.438l0.11-0.236l0.072-0.146
			l0.22-0.603l0.036-0.437l0.037-0.272v-0.146v-0.183l0.072-0.146l-0.036-0.236l0.073-0.582l0.036-0.748l-0.145-0.198l0.036-0.292
			l0.201-0.328l-0.055-0.235l0.055-0.146v-0.256v-0.781l-0.055-0.348v-0.146l0.091-0.183l0.036-0.219l-0.073-0.146l-0.054-0.2
			l0.127-0.547l-0.127-0.271v-0.363l0.164-0.274l-0.036-0.328v-1.036l0.036-0.638l0.037-0.31l-0.073-0.547l-0.036-0.383l0.036-0.638
			l-0.036-0.364l-0.127-0.182l0.09-0.491l0.037-0.184v-0.218l-0.091-0.2l0.054-0.218l0.109-0.293l-0.072-0.346l-0.091-0.474
			l0.054-0.199v-0.256v-0.673l-0.127-0.291v-0.237v-0.473l-0.292-0.455l-0.109-0.109l-0.254-0.073l-0.346-0.108l-0.182-0.036
			l-0.783,0.109l-0.146,0.072l-0.236,0.146l-0.255,0.146l-0.291,0.345l-0.383,0.528l-0.182,0.364l-0.109,0.146v0.381l-0.456,0.475
			v0.382l-0.073,0.183l-0.072,0.291l0.109,0.528l-0.109,0.183l-0.183,0.235l0.073,0.22l0.145,0.291l-0.109,0.31l0.037,1.002
			l0.109,0.327l-0.182,0.036l0.036,0.273h0.182l0.109,0.438v0.31l0.146,0.473l0.09,0.455l0.218,0.364l0.074,0.2l0.182,0.327
			l0.146,0.563l0.036,0.184l0.037,0.107v0.237l-0.146,0.511l-0.218,0.418l-0.182,0.327l-0.073,0.491l0.073,0.22l0.036,0.218
			l0.073,0.273l0.073,0.328l-0.073,0.527l0.073,0.363l-0.255,0.273l0.109,0.218l0.292,0.073l-0.037,0.256l-0.146,0.381v0.109
			l-0.036,0.292l-0.037,0.2l-0.072,0.218v0.563l-0.183,0.475v0.382l-0.164,0.22l-0.146,0.182l-0.109,0.384l-0.219,0.892l-0.11,0.219
			l-0.564,0.965l-0.673,0.674l-0.218,0.184l-0.31,0.235l-0.437,0.146l-0.455,0.256l-0.82,0.235h-0.364l-0.273,0.108H159.2
			l-0.602-0.035l-0.509-0.164L157.925,194l-0.218-0.109l-0.219-0.108l-0.492-0.183l-0.182-0.074l-0.455-0.418l-0.255-0.399
			l-0.109-0.146l-0.109-0.235v-0.255l-0.237-0.146l-0.036-0.146l-0.073-1.093l0.2-0.527l0.109-0.254l0.401-0.364l0.182-0.073
			l0.236-0.127l0.146-0.035h0.146l0.108-0.037h0.274l0.364,0.164l0.254,0.22l0.237,0.218l0.182,0.419l0.037,0.328l-0.037,0.291
			l-0.073,0.272l-0.145,0.4l0.036,0.273l0.218,0.328l0.564,0.072l0.438-0.037l0.346-0.183l0.109-0.218l0.219-0.274l0.218-0.819
			l-0.036-0.891l-0.109-0.818v-0.22l-0.109-0.201l-0.036-0.29v-0.146l-0.109-0.219l-0.073-0.31l-0.073-0.219l-0.036-0.146
			l-0.037-0.347l-0.201-0.219l-0.036-0.108l-0.073-0.455l-0.182-0.437l-0.037-0.146l-0.418-1.275l-0.036-0.146v-0.309l-0.219-0.547
			l-0.035-0.2l-0.074-0.511l-0.036-0.383v-0.219v-0.146l-0.037-0.382v-1.147l0.073-0.455l0.036-0.183v-0.29l0.037-0.455l0.218-0.675
			l0.073-0.291l0.091-0.184l0.219-0.453l-0.037-0.293l0.074-0.236l0.109-0.183l0.182-0.362l0.109-0.42l0.201-0.362l0.364-0.384
			v-0.527l0.146-0.184l0.2-0.146l0.183-0.108l0.036-0.108l0.073-0.237l0.145-0.107l0.255-0.293l0.783-1.056l0.31-0.146l0.254-0.327
			l0.219-0.109l0.492-0.272l0.073-0.146l0.146-0.109l0.164-0.108l0.582-0.183l0.418-0.346l0.528-0.183l0.327-0.219l0.401-0.236
			h0.164l0.146-0.183l0.182,0.037l0.382-0.073l0.254-0.074l0.456-0.183h0.254l0.601-0.034l0.546-0.183l0.165,0.035l0.218-0.092
			l0.856-0.072l0.146-0.037l0.218-0.035L170.649,168.948z"/>
		<path d="M195.027,173.465h0.218l0.492,0.108l0.564,0.255l0.673,0.418l0.473,0.419l0.273,0.108l0.218,0.291l0.255,0.037
			l0.109,0.219l0.273,0.201l0.674,0.218l0.182,0.146l0.255,0.072l0.145-0.037h0.236l0.364,0.074l0.346,0.072h0.292l0.219,0.164
			l0.145,0.254v0.291l-0.109,0.347l-0.292,0.329l-0.182,0.562l-0.036,0.183l-0.036,0.255v1.202l-0.091,0.601l0.055,0.254
			l-0.055,0.328l0.091,0.602l-0.036,0.855l0.036,0.236v0.929l-0.127,0.291l0.037,0.746v0.347l0.055,0.184l0.182,0.182l0.037,0.146
			v0.491l-0.037,0.438l0.073,0.234l0.073,0.184v0.455l0.036,0.254l0.036,0.71l0.109,0.183l0.219,0.073h0.163l0.183,0.036h0.182
			h0.255l0.382,0.311v0.51l-0.036,0.146l-0.146,0.272l-0.2,0.328l-0.292,0.383l-0.146-0.036l-0.109,0.182l-0.145,0.183l-0.165,0.184
			l-0.218,0.164l-0.036,0.146l-0.146,0.108l-0.254,0.183l-0.165,0.217l-0.037,0.311l0.037,0.146l0.109,0.146l0.201,0.418v-0.146
			l-0.109,0.69l-0.273,0.312l-0.218,0.07l-0.492,0.037l-0.51-0.146l-0.492-0.146l-0.254-0.128l-0.456-0.218v-0.146l-0.892-0.601
			l-0.182-0.256l-0.236-0.183l-0.364-0.346l-0.383-0.255l-0.182-0.254l-0.218-0.165l-0.328-0.109l-0.273,0.037l-0.438,0.273
			l-0.09,0.218l-0.073,0.782l0.418,0.438l0.11,0.418l-0.146,0.42l-0.601,0.219l-0.437,0.072l-0.383-0.035l-0.674-0.254l-0.51-0.201
			l-0.091-0.146l-0.254-0.291l-0.218-0.236l-0.383-0.254L191.074,192l-0.218-0.072l-0.109-0.182l-0.492-0.311l-0.182-0.073h-0.601
			l-0.145-0.072h-0.219l-0.273-0.219l-0.073-0.127l-0.109-0.255l0.109-0.438l0.218-0.273l0.165-0.108l0.291-0.291l0.218-0.347
			l0.11-0.291v-0.146v-0.234l0.126-0.364v-0.329l-0.09-0.198l-0.036-0.475l0.072-0.2l0.091-0.182v-0.293l-0.091-0.183l-0.036-0.454
			l0.036-0.109l0.055-0.183l0.036-0.271l-0.036-1.148l-0.309-0.491v-0.326l0.182-0.236l0.273-0.219l0.145-0.072l0.528-0.073
			l0.583-0.073l0.164,0.036l0.51-0.073l0.145-0.072l0.201-0.035l0.255-0.038h0.455h0.182l0.146-0.035l0.601-0.272l0.183-0.146h0.455
			l0.364-0.254l0.382-0.272l0.292-0.364l0.109-0.564l0.109-0.291v-0.183v-0.164l0.236-0.475l-0.055-0.49l-0.073-0.327l-0.182-0.347
			l-0.602-0.638l-0.254-0.108l-0.219-0.108h-0.345l-0.51-0.292l-0.382-0.109h-0.292l-0.638,0.109l-0.637,0.51l-0.146,0.272v0.364
			v0.383l0.11,0.255l0.182,0.071l0.455-0.145h0.146l0.146,0.072l0.346,0.037l0.473,0.383l0.036,0.145l0.037,0.146l0.036,0.363
			l-0.036,0.601l-0.182,0.347l-0.328,0.327l-0.527,0.257l-0.401,0.071h-0.455l-0.328-0.071l-0.343-0.147l-0.364-0.109l-0.492-0.491
			l-0.218-0.254v-0.22l-0.036-0.146l-0.165-0.073l-0.036-0.419l-0.109-0.418l0.036-0.547l0.036-0.183v-0.272l0.164-0.438l0.037-0.31
			l0.619-0.891l0.091-0.22l0.292-0.235l0.71-0.401l0.254-0.146l0.637-0.183l0.364-0.237l0.637-0.217l0.346-0.384l0.036-0.108
			l0.073-0.256l0.073-0.327l0.456-0.346L195.027,173.465z M196.337,183.04l-0.418,0.272l-0.292,0.182l-0.328,0.074h-0.236
			l-0.327,0.145l-0.236,0.219l-0.183-0.035h-0.219l-0.218,0.199l0.036,0.256l0.036,0.254l0.073,0.346l0.109,1.074l0.036,0.183
			l-0.109,0.274l0.037,0.438l-0.073,1.091v0.401l-0.346,0.346l0.309,0.035l0.218,0.037h0.455l0.219,0.035l0.219-0.035l0.709,0.035
			l0.383,0.074l0.437,0.108l-0.109-0.256l-0.109-0.146l-0.183-2.877l-0.109-0.601l0.145-0.364L196.337,183.04z"/>
		<path d="M211.775,173.682h0.492l0.583,0.237l0.128,0.183l0.254,0.072l0.292,0.11l0.273,0.218l0.219,0.036l0.182,0.071l0.346,0.273
			l0.292,0.256l0.564,0.344l0.601,0.185l1.074,0.108l0.218,0.072l0.037,0.146l0.419,0.146l0.036,0.272l-0.036,0.437l-0.346,0.491
			l-0.219,0.601l-0.109,0.476l-0.037,0.346v0.29v0.456L217,179.727l-0.073,0.602l0.038,0.22l0.035,0.601l-0.036,0.255l-0.273,0.71
			v0.146l-0.037,0.237l0.073,0.182v0.146v0.146l-0.109,0.855l0.109,0.108v0.563l0.092,0.894l0.073,0.346v0.291v0.455v0.146
			l-0.036,0.364v0.346v0.291l0.109,0.348l0.036,0.146l0.219,0.218l0.073,0.146l0.183,0.199l1.129,0.364l0.146,0.384l-0.036,0.399
			l-0.364,0.291l-0.382,0.235l-0.292,0.184l-0.236,0.182l-0.363,0.11l-0.456,0.526l-0.255,0.527l0.037,0.221l0.109,0.291v0.199
			l0.073,0.219l0.073,0.365l-0.073,0.235l-0.219,0.254l-0.363,0.146h-0.419l-0.218-0.108l-0.31-0.183l-0.254-0.11l-0.183-0.072
			l-0.236-0.271l-0.183-0.11l-0.182-0.254L213.6,192.6l-0.036-0.346l-0.292-0.364l-0.183-0.146l-0.145-0.126l-0.236-0.147
			l-0.328-0.107l-0.219-0.108l-0.346-0.256l-0.109-0.382l0.036-0.291l0.455-0.419l0.183-0.109l0.218-0.364v-0.164l0.037-0.474
			l0.036-0.31l-0.073-0.146v-0.146l-0.036-0.293v-0.383l-0.109-0.818l0.036-0.454l-0.073-0.146l0.036-0.675l-0.036-0.108
			l-0.073-0.219v-0.183l0.073-0.272l0.036-0.146l0.037-0.218l0.036-0.219l0.182-0.129l-0.218-0.035v-0.547l0.036-0.235l0.036-0.511
			l0.036-0.184l-0.036-0.382l0.036-0.183l-0.073-0.273l0.073-0.327l0.036-0.454l-0.036-0.219l0.073-0.292l0.236-1.092l0.073-0.327
			l0.219-0.146l-0.383-0.108l-0.292-0.164l-0.4-0.22l-0.237-0.183l-0.255-0.182h-0.145l-0.31-0.164l-0.473-0.328l-0.383-0.108
			l-0.564-0.073l-0.218,0.108l-0.109,0.256l0.036,0.199l0.182,0.329l0.164,0.217l0.073,0.273l0.036,0.219l0.073,0.474l0.036,0.946
			v0.109l0.036,0.146l-0.036,0.219l0.073,0.272v0.511l-0.036,0.346l-0.146,0.146l-0.237,0.108l0.237,0.146l0.036,0.2l0.146,0.783
			l0.036,0.364l0.036,0.254l0.038,0.272l-0.074,0.254l0.036,0.22l0.036,0.199v0.219l-0.036,0.146l-0.036,0.455v0.254l0.036,0.604
			l-0.182,0.817l-0.109,0.438l-0.201,0.236l-0.072,0.254v0.293l0.2,0.107l0.255,0.055l0.437,0.109l0.273,0.036l0.218,0.071
			l0.346,0.256v0.49l-0.127,0.33l-0.146,0.182l-0.4,0.454l-0.637,0.456l-0.109,0.146l-0.237,0.073l-0.182,0.527l-0.218,0.254
			l0.183,0.328l0.036,0.108l0.146,0.274l-0.036,0.472l-0.219,0.237l-0.71,0.219l-0.255-0.073l-0.383-0.146l-0.218-0.109
			l-0.254-0.346l-0.346-0.219l-0.473-0.311l-0.236-0.363l-0.145-0.108l-0.255-0.108l-0.346-0.273l-0.291-0.146h-0.183l-0.346-0.11
			l-0.145-0.072l-0.182-0.108l-0.183-0.183l-0.073-0.2l0.036-0.438l0.109-0.235l0.328-0.291l0.255-0.146l0.309-0.78l0.037-0.528
			l-0.037-0.255l0.037-0.455l0.109-0.182v-0.22l-0.037-0.182l0.073-0.312l-0.036-0.254v-0.236l0.036-0.146l-0.109-0.327v-0.454
			l0.183-0.474v-0.529c0-0.12-0.012-0.204-0.037-0.254l0.037-0.164v-0.292l-0.109-0.182l0.072-0.383l0.037-0.965v-0.601
			l-0.037-0.185v-0.326l-0.036-0.236l-0.036-0.146l-0.073-0.217v-0.146l0.036-0.146l0.073-0.164l-0.036-0.254l0.036-0.183
			l-0.182-0.711l-1.001-0.036l-0.164-0.036l-0.473-0.346l-0.109-0.437l0.218-0.565l0.219-0.254l0.145-0.035l0.237-0.272l0.218-0.257
			l0.254-0.291l0.346-0.346l-0.036-0.146l0.073-0.108l0.073-0.146v-0.164l-0.036-0.146l-0.037-0.146l-0.074-0.399l0.037-0.347
			l0.438-0.491l0.236-0.074l0.109,0.074l0.673,0.055l0.146,0.035l0.292,0.073l0.273,0.035l0.655,0.256h0.2l0.437,0.292l0.219,0.163
			l0.273,0.291l0.218,0.256l0.182,0.236l0.273,0.254l0.182,0.037l0.492-0.072l0.546-0.493l0.201-0.363l0.036-0.146l-0.164-0.383
			l0.127-0.438L211.775,173.682z"/>
		<path d="M223.026,173.318l0.183,0.035l0.911,0.146l0.145,0.072l0.182-0.036l0.109,0.071l0.219,0.273l0.273-0.199l0.292,0.072
			l1.202,0.201l0.783,0.254l0.254,0.036h0.254l0.237,0.073h0.437h0.455l0.601-0.183l0.33-0.347l0.217-0.254l0.311-0.184l0.51-0.035
			l0.42,0.362l0.072,0.237l0.036,0.782l-0.036,0.145l-0.072,0.257l-0.037,0.219v0.31l0.072,0.146l-0.145,0.563l-0.073,0.183
			L231,176.631l-0.328,0.673l-0.072,0.255l-0.183,0.564l-0.455,0.673l-0.146,0.185l-0.293,0.6l-0.201,0.363l-0.292,0.385
			l-0.345,0.29l-0.183,0.31l-0.219,0.327l-0.218,0.256v0.164l0.146,0.399l0.4-0.071l0.492-0.11l0.328-0.072l0.309-0.072l0.511,0.072
			l0.309,0.184l0.293,0.527v0.474l-0.109,0.272l-0.219,0.328l-0.42,0.219l-0.508,0.107l-0.165,0.092l-0.219,0.037h-0.255
			l-0.637-0.037l-0.218,0.037l-0.273,0.036l-0.254-0.073h-0.328l-0.273-0.037h-0.218h-0.292l-0.746,0.894l-0.074,0.146l-0.237,0.291
			l-0.4,0.602l-0.109,0.219l-0.201,0.346l-0.218,0.256l-0.037,0.145l-0.292,0.564l-0.31,0.419l-0.073,0.329l-0.109,0.326
			l0.254-0.219l0.201-0.074l0.218-0.033h0.637l0.255,0.033l0.109,0.037h0.182l0.455,0.036l0.182,0.036l0.601,0.073l0.292,0.071
			l0.983,0.037l0.364-0.073l0.255-0.035l0.346-0.183l0.145-0.037l0.218-0.107l0.273-0.184l0.292-0.311l0.073-0.182l0.601-0.637
			l0.674-0.291l0.184,0.107l0.182,0.036l0.236,0.291l0.036,0.237v0.654l-0.2,0.455l-0.146,0.327l-0.072,0.237l-0.109,0.291
			l-0.326,0.455l-0.164,0.219l-0.328,0.363l-0.31,0.346l-0.183,0.072l-0.182,0.292l-0.146,0.311l-0.273,0.474l-0.036,0.31
			l0.125,0.073l0.256,0.326l0.072,0.384l-0.109,0.399l-0.418,0.42l-0.291,0.182h-0.528l-0.182-0.072l-0.82-0.036l-0.455-0.146
			l-0.219,0.072l-0.218-0.107l-0.146,0.035l-0.237-0.108l-0.182-0.128l-0.364-0.073l-0.383-0.107l-0.637-0.364l-0.255-0.145
			l-0.182-0.166l-0.528-0.218h-0.109l-0.328-0.183l-0.983-0.146l-0.146,0.109l-0.254,0.146l-0.146,0.218l-0.127,0.272l-0.109,0.364
			l-0.109,0.146l-0.292,0.455l-0.273,0.035l-0.401,0.109l-0.254-0.073l-0.201-0.108l-0.109-0.146l-0.11-0.201l-0.145-0.219
			l-0.036-0.291l0.109-0.746v-0.272l0.146-0.893l0.182-0.511l0.036-0.127l0.31-0.819l0.109-0.146l-0.073-0.182l0.073-0.256
			l0.145-0.127l0.074-0.219l0.146-0.217l0.345-0.42l0.109-0.219l0.364-0.711l0.674-1.072l0.072-0.273l0.128-0.146l0.364-0.363
			l0.255-0.454l0.31-0.291l0.036-0.22l-0.455-0.127l-0.364,0.037l-1.238,0.31l-0.292-0.037l-0.418-0.236l-0.364-0.399l-0.073-0.291
			l0.109-0.493l0.073-0.254l0.146-0.236l0.11-0.073l0.528-0.328l0.255-0.035l0.236-0.073h0.546l0.109-0.035l0.31,0.035h0.109h0.291
			h0.346l0.364,0.073l0.31,0.072l0.218,0.036l0.673,0.073l0.219-0.254l0.073-0.273l0.109-0.146l0.073-0.185l0.237-0.107l0.109-0.311
			l0.145-0.146l0.074-0.255l0.254-0.182l0.273-0.455l0.109-0.22l0.564-0.745l0.292-0.455v-0.184l-0.492,0.109h-0.183l-0.182,0.072
			l-0.219-0.035l-0.455,0.071l-0.564-0.108l-0.71-0.107l-0.363-0.038l-0.383-0.071l-0.437-0.072h-0.382l-0.474,0.108l-0.273,0.183
			l-0.327,0.146l-0.218,0.236l-0.346,0.255l-0.401,0.182l-0.383,0.036l-0.218-0.036l-0.255-0.145l-0.109-0.221l-0.092-0.418
			l0.128-0.711l0.254-0.436l0.328-0.383l0.419-0.438l0.602-0.526l0.254-0.348l0.073-0.183l-0.073-0.29l-0.109-0.383v-0.512
			l0.109-0.199l0.146-0.219l0.419-0.256L223.026,173.318z"/>
		<path d="M239.646,173.465h0.219l0.492,0.108l0.563,0.255l0.673,0.418l0.475,0.419l0.272,0.108l0.22,0.291l0.254,0.037l0.108,0.219
			l0.272,0.201l0.674,0.218l0.183,0.146l0.255,0.072l0.146-0.037h0.236l0.362,0.074l0.347,0.072h0.291l0.22,0.164l0.146,0.254v0.291
			l-0.109,0.347l-0.291,0.329l-0.182,0.562l-0.037,0.183l-0.035,0.255v1.202l-0.092,0.601l0.055,0.254l-0.055,0.328l0.092,0.602
			l-0.037,0.855l0.037,0.236v0.929l-0.129,0.291l0.037,0.746v0.347l0.055,0.184l0.184,0.182l0.036,0.146v0.491l-0.036,0.438
			l0.072,0.234l0.072,0.184v0.455l0.037,0.254l0.035,0.71l0.109,0.183l0.219,0.073h0.164l0.182,0.036h0.184h0.255l0.383,0.311v0.51
			l-0.036,0.146l-0.146,0.272l-0.2,0.328l-0.291,0.383l-0.146-0.036l-0.109,0.182l-0.146,0.183l-0.164,0.184l-0.217,0.164
			l-0.037,0.146l-0.146,0.108l-0.254,0.183l-0.165,0.217l-0.035,0.311l0.035,0.146l0.108,0.146l0.2,0.418v-0.146l-0.108,0.69
			l-0.272,0.312l-0.219,0.07l-0.492,0.037l-0.51-0.146l-0.491-0.146l-0.255-0.128l-0.455-0.218v-0.146l-0.892-0.601l-0.183-0.256
			l-0.237-0.183l-0.363-0.346l-0.383-0.255l-0.183-0.254l-0.219-0.165l-0.327-0.109l-0.273,0.037l-0.437,0.273l-0.092,0.218
			l-0.072,0.782l0.418,0.438l0.109,0.418l-0.146,0.42l-0.602,0.219l-0.438,0.072l-0.384-0.035l-0.672-0.254l-0.511-0.201
			l-0.092-0.146l-0.254-0.291l-0.219-0.236l-0.384-0.254L235.691,192l-0.219-0.072l-0.109-0.182l-0.49-0.311l-0.184-0.073h-0.601
			l-0.146-0.072h-0.219l-0.273-0.219l-0.073-0.127l-0.108-0.255l0.108-0.438l0.22-0.273l0.164-0.108l0.291-0.291l0.219-0.347
			l0.108-0.291v-0.146v-0.234l0.128-0.364v-0.329l-0.091-0.198l-0.037-0.475l0.073-0.2l0.091-0.182v-0.293l-0.091-0.183
			l-0.036-0.454l0.036-0.109l0.055-0.183l0.036-0.271l-0.036-1.148l-0.31-0.491v-0.326l0.182-0.236l0.272-0.219l0.146-0.072
			l0.528-0.073l0.582-0.073l0.164,0.036l0.51-0.073l0.146-0.072l0.201-0.035l0.254-0.038h0.455h0.182l0.146-0.035l0.602-0.272
			l0.182-0.146h0.455l0.363-0.254l0.384-0.272l0.291-0.364l0.108-0.564l0.108-0.291v-0.183v-0.164l0.237-0.475l-0.055-0.49
			l-0.072-0.327l-0.184-0.347l-0.601-0.638l-0.255-0.108l-0.219-0.108h-0.347l-0.51-0.292l-0.382-0.109h-0.29l-0.638,0.109
			l-0.639,0.51l-0.145,0.272v0.364v0.383l0.109,0.255l0.182,0.071l0.455-0.145h0.146l0.146,0.072l0.347,0.037l0.474,0.383
			l0.036,0.145l0.036,0.146l0.036,0.363l-0.036,0.601l-0.184,0.347l-0.327,0.327l-0.527,0.257l-0.399,0.071h-0.457l-0.326-0.071
			l-0.346-0.147l-0.363-0.109l-0.491-0.491l-0.22-0.254v-0.22l-0.035-0.146l-0.165-0.073l-0.035-0.419l-0.11-0.418l0.037-0.547
			l0.036-0.183v-0.272l0.164-0.438l0.036-0.31l0.619-0.891l0.091-0.22l0.292-0.235l0.71-0.401l0.254-0.146l0.638-0.183l0.364-0.237
			l0.638-0.217l0.346-0.384l0.037-0.108l0.072-0.256l0.072-0.327l0.455-0.346L239.646,173.465z M240.958,183.04l-0.419,0.272
			l-0.291,0.182l-0.328,0.074h-0.236l-0.326,0.145l-0.237,0.219l-0.183-0.035h-0.219l-0.219,0.199l0.036,0.256l0.036,0.254
			l0.072,0.346l0.109,1.074l0.036,0.183l-0.108,0.274l0.036,0.438l-0.073,1.091v0.401l-0.346,0.346l0.311,0.035l0.218,0.037h0.455
			l0.219,0.035l0.218-0.035l0.711,0.035l0.383,0.074l0.438,0.108l-0.109-0.256l-0.108-0.146l-0.183-2.877l-0.109-0.601l0.146-0.364
			L240.958,183.04z"/>
		<path d="M256.396,173.682h0.492l0.582,0.237l0.127,0.183l0.256,0.072l0.291,0.11l0.272,0.218l0.218,0.036l0.184,0.071l0.346,0.273
			l0.291,0.256l0.564,0.344l0.601,0.185l1.075,0.108l0.218,0.072l0.036,0.146l0.419,0.146l0.036,0.272l-0.036,0.437l-0.347,0.491
			l-0.219,0.601l-0.107,0.476l-0.037,0.346v0.29v0.456l-0.036,0.218l-0.073,0.602l0.037,0.22l0.035,0.601l-0.036,0.254l-0.272,0.711
			v0.146l-0.037,0.237l0.074,0.182v0.146v0.146l-0.109,0.855l0.109,0.108v0.563l0.09,0.894l0.074,0.346v0.291v0.455v0.146
			l-0.037,0.364v0.346v0.291l0.109,0.348l0.035,0.146l0.219,0.218l0.073,0.146l0.183,0.199l1.129,0.364l0.146,0.384l-0.035,0.399
			l-0.364,0.291l-0.383,0.235l-0.291,0.184l-0.236,0.182l-0.363,0.11l-0.455,0.526l-0.256,0.527l0.037,0.221l0.108,0.291v0.199
			l0.073,0.219l0.072,0.365l-0.072,0.235l-0.219,0.254l-0.363,0.146h-0.419l-0.22-0.108l-0.31-0.183l-0.254-0.11l-0.183-0.072
			l-0.237-0.271l-0.183-0.11l-0.183-0.254l-0.419-0.11l-0.035-0.345l-0.291-0.364l-0.184-0.146l-0.146-0.126l-0.234-0.147
			l-0.328-0.107l-0.219-0.108l-0.348-0.254l-0.109-0.383l0.035-0.292l0.455-0.419l0.184-0.109l0.219-0.362v-0.164l0.036-0.475
			l0.036-0.309l-0.072-0.146v-0.146l-0.037-0.291v-0.381l-0.109-0.82l0.037-0.454l-0.074-0.146l0.037-0.675l-0.037-0.11
			l-0.071-0.217v-0.183l0.071-0.272l0.037-0.146l0.037-0.218l0.035-0.221l0.184-0.127l-0.219-0.035v-0.547l0.035-0.235l0.037-0.511
			l0.035-0.183l-0.035-0.383l0.035-0.183l-0.072-0.272l0.072-0.328l0.036-0.455l-0.036-0.219l0.073-0.291l0.235-1.092l0.074-0.327
			l0.219-0.146l-0.383-0.108l-0.291-0.164l-0.401-0.218l-0.236-0.183l-0.254-0.183h-0.146l-0.311-0.165l-0.473-0.327l-0.383-0.109
			l-0.563-0.072l-0.219,0.109l-0.109,0.254l0.036,0.2l0.182,0.329l0.166,0.219l0.071,0.271l0.036,0.219l0.072,0.475l0.037,0.945
			v0.11l0.035,0.144l-0.035,0.219l0.072,0.273v0.51l-0.035,0.346l-0.146,0.146l-0.236,0.108l0.236,0.146l0.036,0.2l0.146,0.783
			l0.036,0.362l0.036,0.256l0.036,0.272l-0.073,0.255l0.036,0.219l0.037,0.199v0.219l-0.037,0.146l-0.036,0.456v0.254l0.036,0.601
			l-0.183,0.819l-0.107,0.438l-0.201,0.236l-0.072,0.254v0.291l0.201,0.109l0.254,0.055l0.437,0.109l0.274,0.037l0.217,0.07
			l0.347,0.256v0.492l-0.127,0.328l-0.146,0.182l-0.4,0.455l-0.639,0.455l-0.108,0.146l-0.235,0.072l-0.184,0.526l-0.219,0.257
			l0.183,0.327l0.036,0.109l0.146,0.273l-0.035,0.472l-0.219,0.236l-0.712,0.22l-0.254-0.073l-0.383-0.146l-0.22-0.108l-0.254-0.346
			l-0.346-0.22l-0.474-0.309l-0.237-0.363l-0.145-0.109l-0.256-0.109l-0.346-0.272l-0.291-0.146h-0.183l-0.347-0.109l-0.146-0.073
			l-0.183-0.108l-0.182-0.183l-0.074-0.201l0.037-0.437l0.108-0.236l0.327-0.291l0.255-0.146l0.31-0.781l0.037-0.526l-0.037-0.256
			l0.037-0.455l0.108-0.183v-0.219l-0.036-0.182l0.073-0.312l-0.037-0.254v-0.234l0.037-0.147l-0.109-0.325v-0.455l0.183-0.474
			v-0.528c0-0.121-0.012-0.205-0.037-0.255l0.037-0.165v-0.289l-0.109-0.184l0.072-0.382l0.037-0.966v-0.602l-0.037-0.183v-0.327
			l-0.035-0.236l-0.036-0.146l-0.073-0.218v-0.146l0.037-0.145l0.072-0.166l-0.036-0.254l0.036-0.182l-0.184-0.711l-1-0.035
			l-0.164-0.037l-0.474-0.346l-0.108-0.438l0.219-0.563l0.218-0.255l0.146-0.035l0.236-0.273l0.219-0.256l0.254-0.291l0.347-0.346
			l-0.036-0.146l0.074-0.108l0.07-0.146v-0.164l-0.035-0.146l-0.035-0.146l-0.073-0.399l0.036-0.347l0.438-0.491l0.236-0.073
			l0.107,0.073l0.675,0.056l0.146,0.036l0.291,0.073l0.273,0.035l0.656,0.255h0.199l0.438,0.291l0.219,0.165l0.271,0.291l0.22,0.255
			l0.183,0.237l0.272,0.254l0.183,0.035l0.491-0.071l0.546-0.493l0.201-0.362l0.036-0.146l-0.164-0.383l0.127-0.437L256.396,173.682
			z"/>
		<path d="M266.756,173.607l0.383,0.039l0.327,0.035l0.109,0.146h0.182l0.312,0.2l0.291,0.326l0.183,0.073l0.164,0.074l0.183,0.199
			l0.473,0.293l0.273,0.254l0.327,0.454l0.255,0.184l0.235,0.035l0.401,0.036l0.199,0.073l0.293,0.201l0.254,0.326v0.108
			l-0.183,0.456l-0.291,0.51l-0.2,0.073l-0.219,0.09l-0.109,0.364l-0.107,0.674v0.109v0.218l-0.038,0.601l-0.072,0.893l0.036,0.527
			v0.221v0.418l-0.036,0.291l-0.036,0.347l-0.127,0.146l-0.145,0.512v0.199l0.199,0.363l0.146,0.073l0.146,0.346v0.548l-0.037,0.562
			l-0.309,0.182l0.346,0.237l-0.037,0.255l-0.034,0.291l0.071,0.273l0.037,1.455l0.072,0.475l0.072,0.182l0.109,0.165l0.311,0.146
			l0.255,0.072l0.255,0.146l0.2,0.184l0.146,0.162l-0.037,0.221l-0.107,0.218l-0.311,0.491l-0.328,0.183l-0.383,0.328l-0.437,0.382
			l-0.383,0.602l-0.072,0.146l-0.036,0.219l0.108,0.312l0.108,0.254v0.292l-0.108,0.271l-0.399,0.328l-0.638-0.071l-0.347-0.146
			l-0.291-0.109l-0.184-0.162l-0.418-0.33l-0.363-0.418l-0.184-0.035l-0.562-0.474l-0.492-0.237l-0.746-0.291l-0.184-0.035
			l-0.219-0.037l-0.236-0.108L264.7,191l-0.146-0.163l-0.072-0.255l0.072-0.455l0.272-0.218l0.328-0.292l0.255-0.311l0.035-0.255
			l0.164-0.399l0.074-0.164l0.035-0.256l-0.035-0.254l0.107-0.418l-0.107-0.438l0.107-0.456v-0.746l0.036-0.455l-0.071-0.328
			l0.108-0.254l0.073-0.31v-0.473v-0.748v-0.383l-0.073-0.218l-0.146-0.419l0.037-0.219l0.145-0.254l-0.035-0.604l0.072-0.361
			l-0.037-0.201l-0.108-0.438l0.036-0.199l-0.036-0.584l-0.108-0.49l-0.127-0.254l-0.109-0.146h-0.291l-0.219-0.092l-0.164-0.145
			l-0.146-0.109l-0.072-0.327l0.072-0.528l0.273-0.255l0.219-0.272l0.145-0.072l0.383-0.329l0.256-0.31l0.072-0.219l0.184-0.219
			l0.199-0.146l0.037-0.164l-0.037-0.508l-0.163-0.492v-0.184l0.163-0.218l0.291-0.237L266.756,173.607z M267.574,166.746
			l0.419,0.036h0.183l0.29,0.237l0.11,0.182l0.128,0.035l0.254,0.256l0.474,0.527l0.164,0.219l0.108,0.146h0.146l0.455,0.384
			l0.182,0.072l0.291,0.327l0.312,0.419l-0.128,0.673l-0.783,0.528l-0.326-0.2l-0.146,0.146l-0.037,0.164v0.183l-0.108,0.146
			l-0.072,0.217l0.072,0.494l-0.035,0.219l-0.166,0.107l-0.146,0.272l-0.437,0.183h-0.383l-0.4-0.254l-0.237-0.072l-0.291-0.236
			l-0.218-0.291l-0.165-0.256l-0.183-0.164l0.037-0.183l-0.109-0.218l-0.602-0.146l-0.146-0.107l-0.22-0.165l-0.346-0.437
			l-0.072-0.491l0.31-0.528l0.511-0.364l0.563-0.327l0.31-0.236v-0.965l0.184-0.291L267.574,166.746z"/>
		<path d="M280.301,166.818l0.145,0.092l0.438-0.055l0.273,0.055l0.328,0.146l0.31,0.29l0.036,0.292l0.036,0.2v0.183l-0.146,0.326
			l-0.527,0.312l-0.184,0.036l-0.271,0.072l-0.402,0.184l-0.182,0.182l-0.163,0.2l-0.294,0.674l-0.071,0.146v0.146l-0.036,0.256
			l-0.035,0.638v0.418l-0.109,2.457l-0.092,1.076l-0.037,0.182l-0.072,0.271l0.165,0.292l-0.056,0.292l0.201,0.164v0.254
			l0.035,0.293l-0.072,0.272v0.399l-0.109,0.237l-0.127,0.438v0.218l0.072,0.201v0.145l-0.072,0.256l0.199,0.602v0.49l0.037,0.364
			v0.855l-0.109,0.108l-0.092,0.2v0.363l0.037,0.42l-0.037,0.29l-0.146,0.364l0.272,0.036l0.072,0.236v0.256v0.491l0.073,0.254
			l-0.034,0.184v0.745l0.034,0.346l-0.073,0.292l-0.107,0.329l0.072,0.271l0.108,0.399v0.31l0.074,0.219l0.034,0.184l0.037,0.347
			l0.109,0.291l0.072,0.255l0.236,0.127l0.818,0.219l0.364,0.328l0.036,0.146v0.383l-0.254,0.4l-0.528,0.454l-0.256,0.184
			l-0.108,0.271l-0.418,0.074l-0.184,0.146l-0.454,0.526l-0.11,0.256l0.221,0.492l0.199,0.182l0.074,0.363l-0.201,0.492
			l-0.293,0.291l-0.254,0.035l-0.346-0.072l-0.146-0.108h-0.182l-0.109-0.073l-0.347-0.183l-0.254-0.31l-0.292-0.183l-0.382-0.219
			l-0.146-0.183l-0.146-0.201l-0.109-0.035l-0.418-0.291l-0.529-0.219l-0.399-0.199l-0.31-0.11l-0.291-0.146L274,191.179
			l-0.127-0.108l-0.073-0.2l-0.073-0.364l0.184-0.383l0.201-0.182l0.145-0.073l0.364-0.183l0.272-0.527v-0.782l0.109-0.219
			l-0.109-0.183l-0.035-0.236l-0.037-0.184l0.109-0.182l0.072-0.602v-0.254l-0.072-0.455l0.184-0.11v-0.254l0.035-0.273l0.035-0.401
			l0.073-0.217l-0.073-0.201l-0.145-0.072v-0.438l-0.184-0.563l0.037-0.456l0.108-0.327l0.072-0.601l-0.035-0.22l0.073-0.817
			l0.035-0.42v-0.183l-0.108-0.327l0.073-0.199l-0.073-0.146l-0.073-0.965l0.036-0.639v-0.438v-0.273l0.035-0.291l0.146-0.346
			l0.219-0.219l-0.219-0.292l-0.183-0.526l-0.036-0.291l0.036-0.164l-0.036-0.146l0.072-0.185L275,174.536l-0.036-0.619
			l-0.036-0.419l-0.072-2.385l-0.109-0.527l-0.055-0.363l-0.035-0.384l-0.512-0.582l-0.236-0.164l-0.219-0.327l-0.072-0.384
			l0.183-0.327l0.31-0.219l0.582-0.036l0.603,0.072l0.31,0.074l0.4,0.108h0.146l0.672,0.418l0.348,0.256l0.219,0.219l0.399,0.419
			l0.2,0.182l0.219-0.073l0.072-0.183l-0.146-0.235l0.364-0.929l0.199-0.219l0.474-0.674l0.528-0.218l0.328-0.164L280.301,166.818z"
			/>
		<path d="M289.439,166.818l0.146,0.092l0.437-0.055l0.272,0.055l0.328,0.146l0.31,0.29l0.037,0.292l0.036,0.2v0.183l-0.146,0.326
			l-0.528,0.312l-0.183,0.036l-0.273,0.072l-0.4,0.184l-0.182,0.182l-0.164,0.2l-0.292,0.674l-0.073,0.146v0.146l-0.035,0.256
			l-0.037,0.638v0.418l-0.108,2.457l-0.09,1.076l-0.038,0.182l-0.072,0.271l0.164,0.292l-0.054,0.292l0.198,0.164v0.254l0.037,0.293
			l-0.074,0.272v0.399l-0.108,0.237l-0.127,0.438v0.218l0.074,0.201v0.145l-0.074,0.256l0.201,0.602v0.49l0.034,0.364v0.855
			l-0.108,0.108l-0.091,0.2v0.363l0.035,0.42l-0.035,0.29l-0.145,0.364l0.271,0.036l0.072,0.236v0.256v0.491l0.072,0.254
			l-0.035,0.184v0.745l0.035,0.346l-0.072,0.292l-0.108,0.329l0.073,0.271l0.107,0.399v0.31l0.073,0.219l0.037,0.184l0.035,0.347
			l0.108,0.291l0.074,0.255l0.236,0.127l0.818,0.219l0.363,0.328l0.036,0.146v0.383l-0.254,0.4l-0.528,0.454l-0.254,0.184
			l-0.109,0.271l-0.418,0.074l-0.184,0.146l-0.453,0.526l-0.111,0.256l0.22,0.492l0.2,0.182l0.072,0.363l-0.199,0.492l-0.293,0.291
			l-0.254,0.035l-0.346-0.072l-0.146-0.108h-0.182l-0.109-0.073l-0.346-0.183l-0.256-0.31l-0.291-0.183l-0.383-0.219l-0.146-0.183
			l-0.146-0.201l-0.108-0.035l-0.42-0.291l-0.527-0.219l-0.4-0.199l-0.311-0.11l-0.291-0.146l-0.399-0.219l-0.128-0.109
			l-0.072-0.199l-0.072-0.364l0.183-0.383l0.2-0.183l0.146-0.072l0.363-0.182l0.273-0.528v-0.782l0.107-0.219l-0.107-0.184
			l-0.038-0.235l-0.035-0.184l0.108-0.182l0.072-0.603v-0.254l-0.072-0.455l0.184-0.109v-0.254l0.035-0.273l0.035-0.4l0.074-0.219
			l-0.074-0.201l-0.146-0.071v-0.438l-0.183-0.563l0.037-0.456l0.109-0.327l0.072-0.6l-0.037-0.221l0.074-0.818l0.035-0.418v-0.184
			l-0.109-0.326l0.074-0.201l-0.074-0.146l-0.072-0.965l0.037-0.638v-0.438v-0.272l0.035-0.291l0.146-0.347l0.219-0.219
			l-0.219-0.292l-0.184-0.527l-0.035-0.291l0.035-0.164l-0.035-0.145l0.072-0.184l-0.035-0.527l-0.037-0.619l-0.037-0.419
			l-0.072-2.385l-0.108-0.527l-0.055-0.364l-0.035-0.383l-0.511-0.582l-0.236-0.164l-0.219-0.328l-0.072-0.383l0.182-0.326
			l0.311-0.22l0.582-0.036l0.602,0.072l0.311,0.074l0.4,0.107h0.146l0.673,0.42l0.348,0.256l0.217,0.218l0.4,0.419l0.2,0.182
			l0.22-0.072l0.072-0.184l-0.145-0.234l0.362-0.93l0.199-0.219l0.476-0.674l0.526-0.219l0.328-0.164L289.439,166.818z"/>
		<path d="M298.27,173.465h0.199l0.4,0.035l0.855,0.419l0.182,0.291l0.347,0.108l1.183,0.893l0.312,0.146l0.546,0.309l0.164,0.073
			l0.219,0.073l0.219,0.072l0.527,0.219l0.455,0.127l0.582,0.4l0.073,0.419l-0.036,0.22l-0.109,0.219l-0.109,0.145l-0.108,0.527
			l0.036,0.22v0.235l-0.146,0.51l-0.072,0.492l0.109,0.564l-0.109,0.399v0.183l0.037,0.236l-0.037,0.184v0.49l-0.072,0.182v0.33
			l0.036,0.235l-0.036,0.437v0.293l0.072,0.162l0.037,0.293l-0.037,0.219l-0.072,0.345l0.109,0.401v0.31l-0.037,0.183l-0.108,0.709
			l-0.091,0.146l0.163,0.107l-0.072,0.146l0.146,0.947l0.074,0.511l-0.074,0.108l0.037,0.236l-0.037,0.183l0.109,0.327l0.327,0.108
			l0.312,0.419v0.146l-0.166,0.271l-0.146,0.219l-0.146,0.071l-0.491,0.11l-0.146,0.072l-0.183,0.108h-0.255l-0.273,0.037
			l-0.254,0.108l-0.292,0.092l-0.71,0.327l-0.383,0.108l-0.674,0.256l-0.145,0.092l-0.82,0.363l-0.291,0.254l-0.146,0.236
			l0.036,0.292l0.184,0.347l0.072,0.437l-0.146,0.292l-0.637,0.418l-0.455-0.036l-0.183-0.073l-0.146-0.035l-0.109-0.109
			l-0.492-0.309l-0.4-0.073l-0.072-0.146l-0.311-0.036l-0.145-0.072l-0.146-0.109l-0.272-0.107l-0.146-0.166l-0.602-0.326
			l-0.473-0.42l-0.965-0.437l-0.273-0.108l-0.219-0.11l-0.183-0.091h-0.146l-0.455-0.219l-0.256-0.074l-0.235-0.325l0.108-0.384
			l0.455-0.527l0.072-0.219l0.146-0.327l0.109-0.419l0.055-0.438l0.035-0.108l0.109-0.839l0.036-0.854l0.183-0.146l-0.219-0.219
			v-0.527v-0.475v-0.164l-0.035-0.219l0.072-0.327l-0.037-0.2l-0.035-0.51l0.146-0.492v-0.219l-0.146-0.254l0.035-0.236l0.109-0.363
			l-0.146-0.146l-0.035-0.346v-0.146v-0.346l0.072-0.182l-0.072-0.221l-0.037-0.254l0.037-0.563l-0.037-0.291l-0.035-0.638
			l-0.2-0.492l-0.22-0.146l-0.217-0.254l-0.074-0.311l0.037-0.108l0.107-0.183l0.074-0.146l0.436-0.2l0.385-0.108l0.326-0.037
			l0.492-0.108l0.219-0.035l0.49-0.146l0.492-0.182l0.818-0.237l0.328-0.292l0.455-0.254l0.328-0.311l0.184-0.328l0.072-0.236
			l-0.037-0.4l0.037-0.146l0.162-0.273l0.293-0.218L298.27,173.465z M297.449,177.305l-0.291,0.11v0.218l0.035,0.164l0.146,0.291
			v0.71l0.036,0.675v0.473l0.036,0.164v0.109v0.182v0.365v0.199v0.182l-0.036,0.293l0.073,0.235v0.582l0.035,0.237l0.037,0.292
			l-0.073,0.327l-0.073,0.383l0.256,0.564v0.145l-0.184,0.473l0.037,0.274l-0.037,0.29l-0.108,0.311l0.073,0.146l-0.073,0.363
			l-0.073,0.711l-0.072,0.455l-0.146,0.326l-0.199,0.42l-0.074,0.183l0.164,0.182l0.547,0.22l0.236,0.035h0.146l0.473,0.129h0.348
			l0.182,0.035l0.746,0.146h0.219l0.382-0.036l0.073-0.273v-0.146l-0.418-0.474l-0.219-0.382l-0.109-0.71l0.036-0.256l0.073-0.929
			l0.035-0.384v-0.217l-0.035-0.108l0.035-0.347l-0.07-0.182l0.035-0.639l0.256-0.254l0.037-0.146l-0.219-0.419l0.035-0.328
			l0.184-0.419l-0.256-0.291v-0.182l-0.072-0.456v-0.711l-0.072-0.29l0.072-0.346v-0.402l0.074-0.254l-0.037-0.346l0.072-0.293
			l0.146-0.309v-0.291l-0.546,0.146l-0.237-0.073l-0.255-0.072l-0.29-0.183l-0.273-0.201l-0.219-0.219l-0.492-0.146L297.449,177.305
			z"/>
	</g>
	<g enable-background="new    ">
		<path d="M192.163,146.712l0.318-0.027l0.11,0.027l0.359,0.166l0.18,0.29l-0.028,0.47l-0.125,0.124l-0.055,0.193l-0.387,0.359
			l-0.152,0.069l-0.221,0.055l-0.29,0.139l-0.221,0.055l-0.193,0.139l-0.138,0.055l-0.152,0.125l-0.221,0.414l-0.11,0.649
			l-0.028,0.262l-0.124,1.727v0.222l-0.055,0.11l-0.111,0.11l-0.027,0.18l-0.028,0.11l0.028,0.138v0.263l0.027,0.139l0.166,0.138
			l-0.028,0.234l0.028,0.622l0.097,0.138v0.249l-0.028,0.11l-0.069,0.152l-0.138,0.248v0.456l0.027,0.193l0.263,0.29l-0.152,0.483
			l0.042,0.276l-0.042,0.511l0.069,0.139l0.028,0.193l-0.028,0.373l-0.027,0.11l0.055,0.456v0.11l-0.028,0.317l0.055,0.442v0.428
			v0.207l-0.055,0.083l0.028,0.332l0.083,0.207l0.056,0.165l0.027,0.305v0.179l0.11,0.139l0.028,0.166v0.179l0.138,0.498
			l0.055,0.262l0.263,0.566l0.083,0.139l0.166,0.138l0.428,0.18l0.428,0.083l0.331,0.055l0.125,0.083l0.138,0.166l0.055,0.139v0.124
			v0.331l-0.028-0.138l-0.055,0.276l-0.345,0.29l-0.221,0.11l-0.208,0.027l-0.649,0.056h-0.138h-0.249l-0.056-0.139l-0.152,0.028
			l-0.138,0.11l-0.373-0.056l-0.166-0.138l-0.166-0.083l-0.083,0.11l-0.235,0.027l-0.842-0.11l-0.622-0.055l-0.111,0.027
			l-0.235-0.027l-0.193,0.027l-0.249,0.027l-0.345,0.083l-0.11-0.027l-0.235,0.055h-0.138l-0.083,0.028h-0.276l-0.401,0.082
			l-0.193,0.056l-0.69,0.152l-0.359,0.027l-0.152,0.055l-0.622,0.028h-0.138h-0.193l-0.11-0.028h-0.125l-0.332,0.056l-0.11-0.027
			l-0.428-0.028l-0.11-0.027l-0.511-0.055l-0.11-0.069h-0.18l-0.11-0.083l-0.304-0.11l-0.208-0.083l-0.166-0.056l-0.456-0.193
			l-0.11-0.124h-0.083l-0.345-0.138l-0.193-0.028l-0.055,0.263l-0.166,0.193l-0.208,0.083l-0.359,0.138l-0.373,0.18l-0.276,0.028
			l-0.317,0.11l-0.249-0.083h-0.083l-0.263,0.083l-0.11,0.083l-0.263,0.027h-0.359l-0.138-0.027l-0.125-0.193h-0.166l-0.483,0.138
			l-0.442-0.083h-0.152l-0.415-0.18l-0.345-0.027l-0.193-0.027l-0.401-0.193l-0.166-0.056l-0.083-0.317l-0.207-0.027l-0.304,0.027
			l-0.428-0.276l-0.249-0.263l-0.124-0.055l-0.11-0.083l-0.387-0.387l-0.346-0.207l-0.055-0.166l-0.055-0.193l-0.055-0.124
			l-0.18-0.359l-0.11-0.18l-0.028-0.11l-0.138-0.056l-0.027-0.331l-0.055-0.125l-0.083-0.138l-0.152-0.456l-0.028-0.221v-0.276
			l-0.027-0.29v-0.138l0.055-0.166L170.63,160l0.027-0.249l-0.138-0.263v-0.138l0.083-0.511l0.097-0.139l0.083-0.055l0.028-0.139
			l-0.152-0.346l0.069-0.248v-0.263l0.138-0.414l0.166-0.317l0.083-0.166l0.083-0.235l0.069-0.082l0.166-0.305l0.027-0.11
			l0.083-0.18l0.166-0.193l0.056-0.262l0.097-0.249l0.055-0.249l0.249-0.179l0.11-0.193l0.11-0.249l0.125-0.152l0.442-0.566
			l0.18-0.138l0.166-0.249l0.111-0.082l0.11-0.152l0.152-0.056l0.055-0.193l0.359,0.028l-0.028-0.29l0.318-0.415l0.221-0.29v-0.11
			l0.111-0.138l0.027-0.11l0.097-0.208l0.138-0.221l0.083-0.456l0.055-0.248l0.055-0.18l0.028-0.47v-0.29l-0.083-0.193l-0.055-0.263
			l-0.193-0.276l-0.028-0.193l-0.152-0.207l-0.249-0.055l-0.166,0.027l0.027,0.166l-0.235-0.028l-0.221-0.027l-0.138,0.056
			l-0.345,0.207l-0.221,0.359v0.234l0.055,0.387l0.415,0.483l0.124,0.29l-0.027,0.359l-0.028,0.124l-0.097,0.139l-0.249,0.304
			l-0.166,0.124l-0.346,0.083l-0.249,0.027l-0.207-0.055l-0.11-0.028l-0.249-0.124h-0.11l-0.124-0.138l-0.194-0.083l-0.083-0.276
			l-0.193-0.235l-0.208-0.897v-0.207l0.083-0.304l0.055-0.263l0.069-0.138l0.138-0.249l0.11-0.207l0.483-0.732l0.221-0.083
			l0.704-0.4l0.263-0.027l0.11-0.056l0.166-0.027l0.208-0.027l0.414-0.028l0.456,0.028l0.166,0.027l0.152,0.027l0.304,0.139
			l0.456,0.055v0.125l0.249,0.11l0.055,0.11l0.152,0.055l0.083,0.111l0.193,0.207l0.428,0.621l0.193,0.415l0.027,0.124v0.11
			l0.055,0.11l0.097,0.166l0.055,0.373l0.056,0.165l0.027,0.166v0.594l0.055,0.263v0.511l-0.027,0.139l-0.083,0.677l0.028,0.234
			l-0.056,0.111l-0.097,0.221l-0.027,0.263l-0.138,0.621l-0.083,0.221l-0.055,0.193l-0.345,0.939l-0.083,0.193l-0.138,0.429
			l-0.193,0.275l-0.055,0.18l0.055,0.276v0.11l-0.235,0.483l-0.083,0.235v0.166v0.082l-0.221,0.566l-0.083,0.193l-0.097,0.235
			l-0.055,0.221l0.055,0.166l-0.083,0.234v0.166l-0.028,0.939l0.055,0.359l-0.027,0.428l-0.056,0.249l0.083,0.372l0.125,0.222
			l0.193,0.594l0.166,0.317l0.318,0.304l0.221,0.235l0.193,0.083l0.152,0.083l0.249,0.138h0.11l0.263,0.069l0.704,0.11l0.276-0.083
			l0.152,0.027l0.138-0.055l0.028-0.346l-0.193-0.138l-0.028-0.152l-0.152-0.11l-0.028-0.138l-0.138-0.056l-0.11-0.263l-0.11-0.248
			l-0.208-0.346v-0.11l-0.027-0.11l-0.11-0.11v-0.139l-0.056-0.151l-0.083-0.111l-0.028-0.387l-0.083-0.317l-0.027-0.221
			L177.177,160l0.028-0.649l-0.097-0.387l0.069-0.18l0.055-0.193l-0.055-0.138l0.055-0.318l0.138-0.359l0.055-0.262l0.083-0.193
			l0.166-0.263l0.207-0.276l0.138-0.234l-0.083-0.11v-0.249l0.028-0.166l0.11-0.124l0.055-0.166l0.11-0.055l0.152-0.222l0.166-0.262
			l0.028-0.166l0.221-0.29l0.125-0.11l0.249-0.332l0.193-0.207l0.11-0.221l0.18-0.193l0.166-0.18l0.166-0.249l0.152-0.083
			l0.138-0.262l0.193,0.027l0.166-0.387l0.29-0.317l0.249-0.401l0.124-0.11l0.193-0.276v-0.138l0.083-0.124l0.083-0.193l-0.055,0.11
			l0.193-0.332l0.027-0.207l0.235-0.387l0.138-0.207v-0.166l0.028-0.317l0.027-0.249l-0.027-0.372l-0.456-0.622l-0.249-0.083
			l-0.29-0.055l-0.566,0.165l-0.221,0.29l-0.11,0.249v0.18l-0.055,0.193l-0.055,0.248l-0.11,0.18l-0.29,0.249l-0.111,0.055
			l-0.193,0.028l-0.373,0.055l-0.428-0.276l-0.194-0.138l-0.138-0.801l0.11-0.276l0.055-0.207l0.4-0.622l0.442-0.359l0.29-0.179
			l0.359-0.166l0.18-0.027l0.11-0.056l0.332-0.056l0.263-0.027l0.566,0.056h0.166l0.29,0.055l0.249,0.028l0.221,0.082l0.179,0.056
			l0.111,0.124l0.373,0.193l0.276,0.276l0.29,0.346l0.249,0.4l0.249,0.704l0.027,0.304l0.028,0.152l-0.028,0.304l0.028,0.317
			l-0.028,0.815l-0.027,0.249l-0.028,0.179l-0.028,0.222l-0.027,0.165l-0.028,0.097l-0.055,0.222l-0.083,0.345l-0.027,0.249v0.193
			l-0.055,0.207l-0.138,0.304l-0.069,0.235l-0.055,0.138l-0.027,0.193l-0.193,0.512l-0.083,0.248l-0.318,0.594l-0.11,0.207
			l-0.11,0.193l-0.028,0.111l0.138,0.262v0.139l-0.028,0.138v0.318l-0.193,0.483l0.028,0.138l-0.028,0.166l-0.345,0.428
			l-0.083,0.193v0.083l0.111,0.056l0.027,0.151v0.11l-0.083,0.249l-0.056,0.11l-0.027,0.207l-0.11,0.304l-0.028,0.263v0.359
			l0.083,0.207v0.221l-0.028,0.111l-0.027,0.179v0.193v0.111l0.138,0.11v0.11v0.124l-0.083,0.221l0.11,0.166l0.345-0.538
			l0.221-0.387l0.138-0.318l0.152-0.304l0.166-0.207l0.456-0.139l0.304,0.083l0.138,0.18l0.055,0.139l0.125,0.304l-0.152,0.677
			l-0.221,0.635l-0.083,0.166l-0.456,0.677l-0.111,0.139l-0.262,0.317l-0.055,0.221l-0.028,0.139l0.152,0.151l0.193,0.083
			l0.221,0.083l0.263,0.083h0.193l0.027-0.11l0.456,0.055h0.138l0.566-0.428l0.456-0.249l0.193-0.207l0.083-0.276l0.083-0.11
			l0.069-0.29l0.11-0.193l0.028-0.193l0.027-0.207l-0.11-0.332l0.414-0.621l0.125-0.207l-0.027-0.166l-0.097-0.373l-0.027-0.166
			l0.055-0.165l-0.11-0.11l-0.166-0.152l-0.166-0.138l0.083-0.401l0.428-0.358l0.055-0.235l-0.125-0.221v-0.166v-0.511l-0.083-0.139
			v-0.179l-0.027-0.139l-0.028-0.083v-0.193v-0.11l0.055-0.29l0.028-0.166v-0.594l0.027-0.911l-0.027-0.249v-0.11l-0.028-0.4
			l0.028-0.083l0.027-0.235l-0.027-0.138l-0.055-0.359l-0.028-0.234l-0.055-0.483l0.083-0.11l0.11-0.332v-0.234l-0.055-0.083v-0.11
			l-0.028-0.139l0.028-0.151l-0.055-0.166v-0.166l0.027-0.234l-0.055-0.359v-0.11v-0.207v-0.304l-0.11-0.18l-0.083-0.332
			l-0.193-0.29l-0.884-0.358l-0.193-0.18l-0.125-0.193l-0.055-0.139l0.055-0.345l0.097-0.193l0.193-0.222l0.028-0.097h0.138h0.152
			l0.138-0.055l0.027,0.18l0.511-0.097l0.221-0.056l0.346,0.207l0.193,0.027l0.345-0.027l0.083,0.056l0.221,0.027l0.428,0.056
			l0.249-0.028l0.208,0.028h1.16l0.193-0.028l0.221-0.027l0.138,0.027l-0.083,0.139h0.152l0.193,0.027l0.193-0.056l0.11-0.055
			l0.263-0.027l0.138-0.318l0.221-0.027l0.207-0.11l0.221-0.139l0.262-0.082L192.163,146.712z"/>
		<path d="M200.285,149.765h0.4l0.249,0.166l0.055,0.18l0.373,0.594l0.276,0.47l0.124,0.317l0.193,0.304l0.111,0.263l0.055,0.166
			l-0.028,0.11l0.028,0.234l0.055,0.139l0.055,0.221l0.207,0.263l0.332,0.276l0.111,0.207l0.069,0.276l0.083,0.29l0.138,0.221
			l0.138,0.428l0.373,0.305l0.083,0.29l-0.055,0.248l-0.235,0.249l-0.11,0.207l-0.677,0.4l-0.456,0.276l-0.332,0.138l-0.138,0.111
			l-0.179,0.179l-0.138,0.056l-0.346,0.083l-0.221,0.166l-0.166,0.055l-0.483,0.29h-0.11l-0.207,0.166l-0.111,0.027l-0.387,0.373
			l-0.152,0.249l-0.027,0.11v0.124l-0.028,0.166l-0.221,0.221l-0.4-0.027l0.028,0.317l-0.028,0.221l-0.11,0.166l-0.083,0.263
			l-0.138,0.166l-0.069,0.165l0.042,0.263l0.11,0.193l0.138,0.027l0.138,0.056h0.166h0.345l0.263,0.124l0.387,0.028l0.317,0.027
			l0.166,0.027h0.11l0.373,0.056l0.387,0.027l0.373-0.056l0.166-0.11l0.055-0.124l0.069-0.138l-0.028-0.111v-0.11l-0.097-0.151
			l-0.11-0.193l-0.11-0.359l0.083-0.346l0.083-0.138l0.11-0.18l0.29-0.138l0.166-0.028h0.18l0.276,0.11l0.166,0.056l0.207,0.234
			l0.11,0.249l0.056,0.732l-0.056,0.124l-0.055,0.331l-0.055,0.346l-0.083,0.221l-0.152,0.11l-0.11,0.18l-0.028,0.166l-0.249,0.276
			l-0.207,0.207l-1.215,0.98l-0.111,0.18l-0.055,0.359l0.083,0.152l0.027,0.248l-0.055,0.221l-0.166,0.235l-0.152,0.027
			l-0.442,0.083l-0.207-0.056l-0.359-0.055l-0.18-0.056l-0.249-0.11l-0.166-0.097l-0.179-0.027l-0.166-0.027l-0.221-0.166
			l-0.263-0.056l-0.47-0.29l-0.152-0.055l-0.249-0.139l-0.29-0.166l-0.249-0.11l-0.401-0.262l-0.387-0.139l-0.345-0.166
			l-0.166-0.027h-0.428l-0.166-0.097l-0.207-0.193l-0.083-0.193l0.028-0.083l0.055-0.207l0.125-0.193l0.331-0.317l0.166-0.249
			l0.027-0.248l0.069-0.208l0.055-0.387v-0.179l-0.027-0.305v-0.18L195.243,160l-0.027-0.249l0.152-0.083l-0.083-0.18l0.056-0.276
			l-0.028-0.165l-0.125-0.318l0.125-0.138l0.028-0.11v-0.11l-0.028-0.456l0.028-0.11v-0.912l-0.028-0.193v-0.262l-0.028-0.388
			l0.028-0.262l-0.028-0.304l0.028-0.208l0.028-0.138l-0.056-0.11l-0.069-0.511l-0.028-0.318l0.028-0.221l-0.11-0.332l-0.083-0.124
			l-0.304-0.221l-0.097-0.11l-0.028-0.139l0.028-0.262l0.179-0.249l0.387-0.152l0.594-0.082l0.317-0.083l0.111-0.056l0.166-0.027
			l1.188-0.346l0.18-0.083h0.138l0.083-0.083l0.11-0.138l0.208,0.056l0.276-0.139l0.193-0.151l0.428-0.249l0.111-0.056l0.539-0.511
			l0.083-0.193l0.027-0.207l0.18-0.193L200.285,149.765z M198.42,152.541l-0.083,0.221v0.222l0.055,0.151l0.055,0.221l0.055,0.373
			l0.028,0.139l0.055,0.11l0.028,0.594l0.027,0.11l0.055,0.18l0.056,0.276l-0.083,0.193l0.083,0.263v0.165l-0.056,0.166l-0.083,0.29
			l0.027,0.11l0.028,0.111l-0.028,0.234l0.028,0.138v0.193l0.027,0.139l-0.055,0.263l0.083,0.138l0.373-0.483l0.4-0.138l0.055-0.139
			l0.111-0.055l0.11-0.083l0.166-0.056l0.235-0.4l0.055-0.11l-0.055-0.152l-0.138-0.248l-0.055-0.139l-0.042-0.18l-0.193-0.414
			l-0.4-1.022l-0.11-0.083l-0.276-0.538l-0.055-0.193l-0.345-0.594L198.42,152.541z"/>
		<path d="M209.884,144.751l0.11,0.069l0.332-0.042l0.208,0.042l0.249,0.11l0.235,0.221l0.027,0.221l0.028,0.152v0.138l-0.11,0.249
			l-0.401,0.234l-0.138,0.028l-0.207,0.055l-0.304,0.139l-0.138,0.138l-0.125,0.152l-0.221,0.511l-0.056,0.11v0.11l-0.027,0.193
			l-0.028,0.483v0.318l-0.083,1.864l-0.069,0.815l-0.027,0.138l-0.056,0.207l0.125,0.221l-0.042,0.222l0.152,0.124v0.193
			l0.028,0.221l-0.055,0.208v0.304l-0.083,0.18l-0.097,0.331v0.166l0.055,0.151v0.11l-0.055,0.193l0.152,0.456v0.373l0.028,0.276
			v0.649l-0.083,0.083l-0.069,0.151v0.276l0.027,0.317l-0.027,0.222l-0.111,0.276l0.208,0.027l0.055,0.18v0.193v0.373l0.055,0.193
			l-0.028,0.138v0.566l0.028,0.263l-0.055,0.221l-0.083,0.249l0.055,0.207l0.083,0.304v0.234l0.055,0.166l0.028,0.139l0.027,0.262
			l0.083,0.222l0.055,0.193l0.18,0.097l0.622,0.165l0.276,0.249l0.027,0.11v0.29l-0.193,0.304l-0.4,0.346l-0.193,0.138l-0.083,0.207
			l-0.318,0.056l-0.138,0.11l-0.345,0.4l-0.083,0.193l0.166,0.373l0.152,0.139l0.055,0.276l-0.152,0.372l-0.221,0.222l-0.193,0.027
			l-0.263-0.056l-0.11-0.082h-0.138l-0.083-0.056l-0.262-0.138l-0.193-0.235l-0.221-0.138l-0.29-0.166l-0.11-0.138l-0.111-0.152
			l-0.083-0.027l-0.318-0.222l-0.4-0.165l-0.304-0.152l-0.235-0.083l-0.221-0.11l-0.304-0.166l-0.097-0.083l-0.056-0.151
			l-0.055-0.276l0.138-0.29l0.152-0.138l0.111-0.056l0.276-0.139l0.208-0.4v-0.594l0.083-0.166l-0.083-0.138l-0.028-0.18
			l-0.027-0.138l0.083-0.139l0.055-0.456v-0.193l-0.055-0.345l0.138-0.083v-0.193l0.028-0.207l0.027-0.304l0.055-0.166l-0.055-0.152
			l-0.11-0.055v-0.332l-0.138-0.428l0.028-0.346l0.083-0.248l0.056-0.456l-0.028-0.166l0.055-0.621l0.028-0.318v-0.138l-0.083-0.249
			l0.055-0.151l-0.055-0.11l-0.055-0.732l0.027-0.483v-0.331v-0.208l0.028-0.221l0.11-0.263l0.166-0.165l-0.166-0.222l-0.138-0.4
			l-0.027-0.221l0.027-0.124l-0.027-0.111l0.055-0.138l-0.028-0.4l-0.027-0.47l-0.028-0.317l-0.055-1.81l-0.083-0.4l-0.042-0.276
			l-0.027-0.29l-0.387-0.442l-0.18-0.124l-0.166-0.249l-0.055-0.29l0.138-0.248l0.235-0.166l0.442-0.027l0.456,0.055l0.235,0.056
			l0.304,0.083h0.111l0.511,0.317l0.263,0.193l0.166,0.166l0.304,0.317l0.152,0.138l0.166-0.055l0.055-0.139l-0.11-0.179
			l0.276-0.705l0.152-0.166l0.359-0.511l0.401-0.166l0.249-0.124L209.884,144.751z"/>
		<path d="M217.578,149.792h0.083l0.4,0.028l0.428,0.372l0.166,0.415l0.056,0.124l0.083,0.193l0.221,0.027l0.235,0.512l0.083,0.138
			l0.166,0.249l0.055,0.151l0.083,0.249l0.042,0.263l0.055,0.138l0.11,0.11l0.276,0.373l0.083,0.566l0.179,0.027l0.249,0.028
			l0.11,0.138l0.124,0.11l0.083,0.29l-0.152,0.304l-0.304,0.318l-0.373,0.221l-0.594,0.249l-0.11,0.068l-0.332,0.359l-0.097,0.263
			l-0.055,0.166l-0.138,0.165l-0.276,0.11h-0.29l-0.083-0.082l-0.111-0.139l-0.179-0.276l-0.083-0.263l-0.166-0.4l-0.166-0.221
			l-0.083-0.193l-0.055-0.11l-0.124-0.263l-0.083-0.304l-0.028-0.097l-0.249-0.221l-0.207-0.483l-0.111-0.276l-0.138-0.263
			l-0.083-0.193l-0.083-0.11l-0.18-0.18l-0.138,0.097l-0.166,0.249l0.055,0.621l0.083,0.166l0.138,0.373l0.027,0.11l0.028,0.29
			l0.028,0.193l0.027,0.193l-0.027,0.234l0.124,0.166l-0.027,0.11l0.027,0.18l0.028,0.166l-0.125,0.248l0.069,0.083l0.027,0.429
			l0.028,0.165l0.027,0.318l-0.027,0.221l-0.125,0.234l-0.027,0.222v0.165l0.124,0.097l0.028,0.222l0.027,0.138l-0.083,0.027
			l-0.028,0.263l0.055,0.843l-0.124,0.511l-0.083,0.166l-0.028,0.138l-0.11,0.125l-0.055,0.138l-0.249,0.139l0.027,0.193
			l0.138,0.234l0.166,0.139l0.193,0.11l0.152,0.055l1.008,0.29l0.152,0.028h0.138l0.11,0.027h0.263l0.469-0.027v0.221l0.152-0.083
			l0.194-0.193l0.193-0.056l0.055-0.151v-0.11l0.083-0.166l-0.055-0.317l-0.055-0.11l-0.027-0.111l-0.083-0.248v-0.125l0.11-0.275
			l0.152-0.139l0.138-0.083l0.193-0.027l0.11-0.069l0.594,0.29l0.083,0.166l0.207,0.483v0.346l-0.055,0.497l-0.152,0.373
			l-0.111,0.262l-0.138,0.276l-0.193,0.249l-0.179,0.097l-0.056,0.11l-0.11,0.139l-0.332,0.275l-0.773,0.401l-0.387,0.317
			l-0.069,0.11l-0.055,0.249l0.124,0.262v0.387l-0.235,0.29l-0.566,0.056l-0.193-0.027l-0.317-0.056l-0.193-0.055l-0.622-0.208
			l-0.193-0.055l-0.235-0.166l-0.387-0.166l-0.318-0.207l-0.221-0.055l-0.373-0.222l-0.166-0.11l-0.4-0.138l-0.083-0.235
			l-0.373,0.056l-0.166-0.193h-0.166l-0.346-0.027l-0.193,0.027l-0.166-0.027l-0.125-0.083l-0.11-0.263v-0.166l0.083-0.29
			l0.152-0.165l0.193-0.222l0.055-0.138l0.028-0.235l0.083-0.248l0.056-0.802l0.055-0.304v-0.193v-0.29l0.055-0.221l0.18-0.18
			l-0.18-0.414v-0.346l0.069-1.104l-0.042-0.222v-0.234l-0.027-0.221v-0.139l0.027-0.138l-0.055-0.152v-0.11l0.028-0.138
			l0.027-0.222l-0.027-0.151l0.125-0.305l-0.028-0.11v-0.151l0.055-0.11l-0.055-0.305l-0.028-0.511l-0.042-0.207v-0.47l-0.249-0.097
			l0.028-0.331h-0.249l-0.125-0.166l-0.055-0.235l0.028-0.165l0.152-0.263l0.332-0.166h0.11l0.125,0.028l0.193,0.027l0.511-0.166
			h0.083l0.11-0.056l0.29-0.082l0.138-0.028l0.11-0.055l0.221-0.056l0.152-0.041l0.387-0.11l0.483-0.249l0.318-0.11l0.276-0.152
			l0.166-0.138l0.125-0.027l0.442-0.249l0.152-0.11l0.249-0.207l0.028-0.222l0.138-0.234l0.207-0.193L217.578,149.792z"/>
		<path d="M226.68,149.792h0.152l0.304,0.028l0.649,0.317l0.138,0.221l0.263,0.083l0.897,0.677l0.235,0.11l0.414,0.235l0.125,0.055
			l0.166,0.056l0.165,0.055l0.401,0.166l0.345,0.097l0.442,0.304l0.055,0.318l-0.027,0.165l-0.083,0.166l-0.083,0.11l-0.083,0.4
			l0.028,0.166v0.18l-0.111,0.387l-0.055,0.373l0.082,0.428l-0.082,0.305v0.138l0.027,0.18l-0.027,0.138v0.373l-0.056,0.139v0.248
			l0.028,0.18l-0.028,0.332v0.221l0.056,0.124l0.027,0.221l-0.027,0.166l-0.056,0.263l0.083,0.304v0.235l-0.027,0.138l-0.083,0.539
			l-0.069,0.11l0.125,0.083l-0.056,0.11l0.11,0.718l0.055,0.387l-0.055,0.083l0.027,0.18l-0.027,0.138l0.083,0.249l0.249,0.083
			l0.234,0.317v0.11l-0.125,0.207l-0.109,0.166l-0.111,0.056l-0.373,0.083l-0.109,0.055l-0.139,0.083h-0.193l-0.207,0.027
			l-0.193,0.083l-0.221,0.069l-0.539,0.249l-0.29,0.082l-0.511,0.193l-0.11,0.069l-0.622,0.276l-0.221,0.193l-0.11,0.18l0.027,0.221
			l0.138,0.263l0.055,0.331l-0.11,0.222l-0.483,0.317l-0.345-0.027l-0.138-0.056l-0.11-0.027l-0.083-0.083l-0.373-0.234
			l-0.304-0.056l-0.055-0.11l-0.235-0.027l-0.111-0.056l-0.11-0.083l-0.207-0.083l-0.11-0.124l-0.456-0.249l-0.359-0.317
			l-0.732-0.331l-0.207-0.083l-0.166-0.083l-0.138-0.069h-0.111l-0.345-0.166l-0.193-0.055l-0.18-0.249l0.083-0.29l0.345-0.4
			l0.055-0.166l0.111-0.248l0.083-0.318l0.042-0.331l0.028-0.083l0.083-0.636l0.027-0.648l0.138-0.11l-0.166-0.166v-0.4v-0.359
			v-0.124l-0.028-0.166l0.055-0.249l-0.027-0.151l-0.028-0.387l0.11-0.373v-0.166l-0.11-0.193l0.028-0.18l0.083-0.276l-0.11-0.11
			l-0.027-0.263v-0.11v-0.262l0.055-0.139l-0.055-0.166l-0.028-0.193l0.028-0.428l-0.028-0.221l-0.028-0.483l-0.152-0.373
			l-0.166-0.11l-0.166-0.193l-0.055-0.235l0.028-0.083l0.083-0.138l0.056-0.11l0.331-0.152l0.291-0.083l0.249-0.027l0.373-0.083
			l0.166-0.027l0.373-0.11l0.373-0.139l0.622-0.18l0.249-0.221l0.345-0.193l0.249-0.234l0.138-0.249l0.055-0.18l-0.028-0.304
			l0.028-0.11l0.125-0.207l0.221-0.166L226.68,149.792z M226.059,152.707l-0.221,0.083v0.165l0.027,0.125l0.111,0.221v0.538
			l0.027,0.512v0.359l0.028,0.124v0.083v0.138v0.276v0.152v0.138l-0.028,0.221l0.055,0.18v0.442l0.028,0.18l0.027,0.221
			l-0.055,0.249l-0.055,0.29l0.193,0.428v0.11l-0.138,0.359l0.028,0.207l-0.028,0.221l-0.083,0.235l0.055,0.11l-0.055,0.276
			l-0.056,0.538l-0.055,0.346l-0.11,0.249l-0.152,0.317l-0.055,0.138l0.124,0.139l0.415,0.166l0.18,0.027h0.11l0.359,0.097h0.263
			l0.138,0.027l0.566,0.11h0.166l0.29-0.027l0.055-0.207v-0.11l-0.317-0.359l-0.166-0.29l-0.083-0.539l0.028-0.193l0.055-0.704
			l0.028-0.29v-0.166l-0.028-0.083l0.028-0.262l-0.055-0.139l0.027-0.483l0.193-0.193l0.028-0.11l-0.166-0.317l0.028-0.249
			l0.138-0.317l-0.193-0.221v-0.139l-0.055-0.346v-0.538L227.647,155l0.056-0.263v-0.304l0.055-0.193l-0.028-0.263l0.055-0.221
			l0.111-0.235v-0.221l-0.415,0.11l-0.18-0.056l-0.193-0.055l-0.221-0.139l-0.208-0.151l-0.166-0.166l-0.373-0.11L226.059,152.707z"
			/>
		<path d="M239.871,149.875l0.332,0.027h0.262l0.166,0.028l0.193,0.083l0.262,0.027l0.166,0.027l0.221,0.18l0.346,0.221l0.166,0.083
			l0.18,0.263l0.11,0.138l0.138,0.193l0.346,0.373l0.221,0.056l0.111-0.056l0.109-0.027l0.318-0.234l0.248-0.222l0.152-0.276
			l-0.068-0.207l0.151-0.359l0.165-0.124l0.249-0.083l0.566,0.152h0.124l0.332,0.166l0.055,0.11l0.111,0.055l0.234,0.083
			l0.248,0.207l0.111,0.028l0.234,0.027l0.139,0.083l0.428,0.166l0.276,0.138l0.11,0.056l0.18,0.097l0.276,0.027l0.235,0.055
			l0.165,0.028l0.193,0.138l0.235,0.056l0.109,0.165l0.084,0.152v0.166l-0.291,0.538l-0.193,0.083l-0.109,0.456l-0.139,0.138
			l-0.055,0.193l0.027,0.152l-0.098,0.304v0.11l-0.027,0.29l-0.027,1.022l-0.139,0.138l0.139,0.193l-0.083,0.539l-0.027,0.29
			l-0.028,0.193l-0.082,0.139l0.027,0.483l0.11,0.455v0.193l0.11,0.318l-0.027,0.276v0.193l-0.11,0.538l0.027,0.235l0.028,0.165
			l-0.028,0.11l0.083,0.373l-0.11,0.166l0.083,0.11l0.055,0.083l0.027,0.373l0.098,0.221l0.594,0.346l0.248,0.248l-0.027,0.29
			l-0.166,0.276l-0.289,0.346l-0.222,0.027l-0.165,0.276l-0.318,0.317l-0.11,0.111l-0.083,0.455l0.055,0.222l0.139,0.262
			l0.083,0.166l-0.11,0.317l-0.193,0.222h-0.125l-0.359-0.028l-0.165-0.055l-0.263-0.11l-0.248-0.207l-0.18-0.111l-0.193-0.248
			l-0.221-0.124l0.082-0.139l-0.166-0.331l-0.234,0.193l-0.193-0.249l-0.166-0.152l-0.718-0.275l-0.11-0.056l-0.111-0.027
			l-0.055-0.18l-0.11-0.083l-0.056-0.304l0.083-0.263l0.331-0.193l0.111-0.056l0.207-0.4l0.055-0.428v-0.732l0.139-0.027
			l-0.193-0.083v-0.373l0.055-0.248v-0.193l-0.082-0.152l-0.084-0.359l-0.027-0.11v-0.151l-0.068-0.111v-0.248l0.096-0.152v-0.221
			l-0.055-0.139l-0.041-0.11v-0.317l0.152-0.249l0.027-0.179l-0.111-0.166v-0.11l0.084-0.249l-0.057-0.18l-0.027-0.304l0.084-0.234
			v-0.083l0.027-0.166l0.027-0.483l0.027-0.138l0.193-0.483l0.139-0.512l0.234-0.221l-0.193-0.207l-0.124-0.11l-0.388-0.193
			l-0.207-0.111l-0.441-0.207l-0.125-0.11l-0.594-0.11l-0.303,0.138l-0.166,0.235v0.166l0.138,0.511l-0.083,0.221v0.139v0.18
			l-0.152,0.275l-0.082,0.235l0.027,0.276l0.18,0.345l0.027,0.276l0.027,0.166l0.028,0.373l-0.056,0.317l0.027,0.442v0.18v0.331
			v0.346l-0.055,0.248l0.055,0.235v0.193v0.648l-0.055,0.249l0.027,0.152l-0.055,0.165l0.082,0.677v0.139l0.056,0.29l-0.027,0.428
			h0.11l0.166-0.041l0.317,0.124l0.221,0.221l0.028,0.166l-0.056,0.263l-0.138,0.193l-0.166,0.221l-0.512,0.4l-0.151,0.166
			l-0.083,0.097l-0.221,0.304l-0.083,0.373l-0.028,0.11l0.139,0.373l0.083,0.304l-0.083,0.318l-0.166,0.165l-0.317,0.056
			l-0.249-0.027l-0.566-0.29l-0.317-0.222l-0.11-0.082l-0.055-0.139l-0.264-0.207l-0.303-0.276l-0.249-0.263l-0.345-0.248
			l-0.249-0.166l-0.317-0.083l-0.139-0.263l-0.055-0.331l0.221-0.18l0.221-0.249l0.069-0.165l0.083-0.235l0.055-0.138l0.083-0.4
			l0.028-0.139l0.055-0.193v-0.11l0.027-0.345l-0.055-0.111l0.027-0.455l0.055-0.193v-0.373v-0.193v-0.18l-0.082-0.139l0.11-0.221
			l-0.028-0.11l-0.082-0.594l0.027-0.29l0.055-0.926l-0.027-0.345l-0.027-0.429l0.139-0.456l-0.028-0.165v-0.332l-0.083-0.345
			l-0.027-0.566l-0.027-0.222l-0.056-0.124l-0.083-0.221l-0.317-0.166l-0.249-0.11l-0.594-0.29l-0.166,0.027h-0.207l-0.138,0.11
			l-0.138,0.207l-0.028,0.222v0.138l-0.056,0.317v0.139l-0.041,0.11v0.18l0.041,0.566l-0.041,0.11l0.097,0.387v0.263v0.11
			l0.056,0.221l-0.18,0.594l0.068,0.235l-0.068,0.166l0.027,0.165v0.456l0.041,0.166l-0.041,0.594l-0.027,0.18v0.166l-0.027,0.193
			l0.027,0.179l0.027,0.166v0.193v0.139v0.538v0.622l0.097,0.345l0.138,0.193l0.139,0.028l0.373,0.027l0.11,0.151l0.165,0.083
			l0.057,0.139l0.027,0.138l-0.084,0.317l-0.137,0.194l-0.222,0.262l-0.151,0.083l-0.139,0.139l-0.139,0.055l-0.262,0.193
			l-0.332,0.373l-0.082,0.4l0.165,0.304l0.056,0.456l-0.166,0.317l-0.262,0.193l-0.193,0.028l-0.139-0.056l-0.083-0.027
			l-0.317-0.083l-0.221-0.207l-0.235-0.139l-0.166-0.138l-0.193-0.234l-0.263-0.194l-0.109-0.055l-0.166-0.166l-0.622-0.428
			l-0.18-0.083l-0.414-0.235l-0.207-0.027l-0.166-0.193l-0.056-0.304l0.028-0.152l0.11-0.138l0.207-0.139l0.276-0.165l0.11-0.125
			l0.18-0.387l0.139-0.372l0.055-0.139l-0.083-0.11v-0.456l0.028-0.165l0.027-0.291v-0.248l0.055-0.317v-0.166l0.027-0.566
			l0.028-0.29l0.027,0.097l-0.138-0.373l-0.027-0.193l0.165-0.152l0.166,0.056v-0.304l-0.222-0.166l-0.055-0.18l-0.055-0.304
			l0.109-0.428l-0.027-0.305l0.056-0.565l-0.028-0.208l-0.027-0.221l-0.082-0.373l0.055-0.165l-0.083-0.166v-0.456l-0.11-0.11
			l-0.097-0.139l-0.222-0.041l-0.4-0.027l-0.248-0.139l-0.193-0.248l0.055-0.512l0.139-0.11l0.083-0.18l0.594-0.497l0.138-0.207
			l0.125-0.193l0.082-0.234l0.084-0.332l-0.084-0.221l-0.027-0.346l0.027-0.138l0.139-0.18l0.248-0.11h0.539l0.512,0.055l0.4,0.125
			l0.482,0.193l0.084,0.055l0.166,0.193l0.289,0.207l0.139,0.249l0.138,0.166l0.056,0.083l0.166,0.234l0.124,0.056l0.249,0.165
			l0.138,0.056h0.317l0.456-0.11l0.249-0.139l0.109-0.083l0.235-0.207l0.028-0.11l0.193-0.248v-0.111l-0.028-0.317l0.028-0.11
			l0.165-0.29L239.871,149.875z"/>
		<path d="M256.018,149.765h0.4l0.249,0.166l0.056,0.18l0.373,0.594l0.275,0.47l0.125,0.317l0.193,0.304l0.11,0.263l0.056,0.166
			l-0.028,0.11l0.028,0.234l0.055,0.139l0.055,0.221l0.207,0.263l0.332,0.276l0.111,0.207l0.068,0.276l0.083,0.29l0.138,0.221
			l0.139,0.428l0.373,0.305l0.082,0.29l-0.055,0.248l-0.234,0.249l-0.111,0.207l-0.676,0.4l-0.457,0.276l-0.331,0.138l-0.138,0.111
			l-0.18,0.179l-0.139,0.056l-0.346,0.083l-0.221,0.166l-0.166,0.055l-0.482,0.29h-0.111l-0.207,0.166l-0.11,0.027l-0.387,0.373
			l-0.151,0.249l-0.027,0.11v0.124l-0.028,0.166l-0.222,0.221l-0.4-0.027l0.028,0.317l-0.028,0.221l-0.109,0.166l-0.084,0.263
			l-0.138,0.166l-0.069,0.165l0.042,0.263l0.11,0.193l0.139,0.027l0.138,0.056h0.165h0.346l0.263,0.124l0.387,0.028l0.317,0.027
			l0.166,0.027h0.11l0.373,0.056l0.387,0.027l0.373-0.056l0.165-0.11l0.056-0.124l0.069-0.138l-0.027-0.111v-0.11l-0.098-0.151
			l-0.109-0.193l-0.111-0.359l0.083-0.346l0.083-0.138l0.11-0.18l0.29-0.138l0.166-0.028h0.18l0.275,0.11l0.166,0.056l0.207,0.234
			l0.111,0.249l0.055,0.732l-0.055,0.124l-0.056,0.331l-0.056,0.346l-0.082,0.221l-0.152,0.11l-0.11,0.18l-0.028,0.166l-0.248,0.276
			l-0.207,0.207l-1.215,0.98l-0.111,0.18l-0.055,0.359l0.082,0.152l0.027,0.248l-0.055,0.221l-0.166,0.235l-0.151,0.027
			l-0.442,0.083l-0.207-0.056l-0.359-0.055l-0.18-0.056l-0.248-0.11l-0.166-0.097l-0.18-0.027l-0.166-0.027l-0.221-0.166
			l-0.262-0.056l-0.471-0.29l-0.151-0.055l-0.249-0.139l-0.289-0.166l-0.249-0.11l-0.401-0.262l-0.387-0.139l-0.345-0.166
			l-0.165-0.027H250.7l-0.166-0.097l-0.207-0.193l-0.083-0.193l0.027-0.083l0.056-0.207l0.124-0.193l0.332-0.317l0.166-0.249
			l0.027-0.248l0.068-0.208l0.056-0.387v-0.179l-0.027-0.305v-0.18L250.977,160l-0.027-0.249l0.151-0.083l-0.083-0.18l0.056-0.276
			l-0.028-0.165l-0.124-0.318l0.124-0.138l0.028-0.11v-0.11l-0.028-0.456l0.028-0.11v-0.912l-0.028-0.193v-0.262l-0.027-0.388
			l0.027-0.262l-0.027-0.304l0.027-0.208l0.028-0.138l-0.056-0.11l-0.068-0.511l-0.028-0.318l0.028-0.221l-0.111-0.332l-0.082-0.124
			l-0.305-0.221l-0.096-0.11l-0.028-0.139l0.028-0.262l0.179-0.249l0.387-0.152l0.595-0.082l0.316-0.083l0.111-0.056l0.166-0.027
			l1.188-0.346l0.18-0.083h0.138l0.083-0.083l0.11-0.138l0.208,0.056l0.275-0.139l0.193-0.151l0.428-0.249l0.111-0.056l0.539-0.511
			l0.082-0.193l0.027-0.207l0.18-0.193L256.018,149.765z M254.153,152.541l-0.083,0.221v0.222l0.055,0.151l0.056,0.221l0.056,0.373
			l0.027,0.139l0.055,0.11l0.028,0.594l0.027,0.11l0.056,0.18l0.055,0.276l-0.082,0.193l0.082,0.263v0.165l-0.055,0.166l-0.083,0.29
			l0.027,0.11l0.028,0.111l-0.028,0.234l0.028,0.138v0.193l0.027,0.139l-0.056,0.263l0.083,0.138l0.373-0.483l0.4-0.138l0.055-0.139
			l0.111-0.055l0.11-0.083l0.165-0.056l0.235-0.4l0.056-0.11l-0.056-0.152l-0.138-0.248l-0.056-0.139l-0.042-0.18l-0.193-0.414
			l-0.4-1.022l-0.109-0.083l-0.277-0.538l-0.055-0.193l-0.346-0.594L254.153,152.541z"/>
		<path d="M271.018,145.469h0.373l0.193-0.027l0.512,0.47l0.109,0.511l-0.303,0.512l-0.318,0.165l-0.621,0.594l-0.305,0.622
			l0.028,0.234l-0.028,0.111l-0.055,0.221v0.097l-0.125,0.331v1.022v0.11v0.29v0.276l0.457,0.027h0.428l0.4-0.027l0.387-0.138
			l0.29-0.208l0.249-0.497l0.193-0.511l0.262-0.263l0.4-0.11l0.277,0.056l0.248,0.179l0.18,0.222l0.027,0.331l-0.027,0.152
			l-0.027,0.276l-0.056,0.138l-0.069,0.18l-0.11,0.166l-0.358,0.345l-0.125,0.166l-0.11,0.11l-0.11,0.027l-0.305,0.29l-0.027,0.359
			l0.056,0.139l0.166,0.29l0.056,0.276l-0.028,0.179l-0.083,0.166l-0.139,0.11l-0.289,0.139h-0.111h-0.165l-0.18-0.056l-0.331-0.387
			l-0.318-0.29h-0.511h-0.193l-0.276,0.056l-0.041,0.18v0.387l0.041,0.207l-0.097,0.193l0.097,1.215l0.027,0.401l0.027,0.304
			l0.056,0.138v0.29l-0.027,0.193l-0.028,0.18l0.028,0.221v0.677l-0.124,0.028l0.068,0.11l0.083,0.884v0.11l-0.027,1.299
			l0.027,0.165v0.125l-0.083,0.221l-0.207,0.221l-0.139,0.125l-0.165,0.11l-0.028,0.193l0.166,0.055l0.084,0.083h0.109l0.484,0.18
			l0.676-0.055l0.346,0.165l0.193,0.028l0.111-0.028h0.179h0.166l0.304,0.11l0.234,0.318l-0.027,0.248l-0.027,0.222l-0.207,0.345
			l-0.305,0.304l-0.193,0.152l-0.151,0.11l-0.249,0.346l-0.166,0.165l-0.055,0.111v0.248l0.166,0.235l0.027,0.193v0.262
			l-0.166,0.305l-0.317,0.138h-0.138l-0.139-0.027l-0.317-0.083l-0.166-0.056l-0.263-0.11l-0.193-0.11l-0.193-0.152l-0.262-0.082
			l-0.056-0.111l-0.331-0.193l-0.291-0.082l-0.373-0.235l-0.055-0.166l-0.193-0.055l-0.193-0.083l-0.152-0.152l-0.109-0.055
			l-0.387-0.139l-0.098-0.027l-0.166-0.056l-0.165-0.027l-0.208-0.083l-0.441-0.773l0.139-0.331l0.166-0.139v-0.207l0.027-0.138
			l0.082-0.222v-0.483l0.069-0.221l0.028-0.29l0.055-0.166l0.027-0.138l-0.055-0.663l0.027-0.138l0.139-0.028v-0.165l-0.084-0.235
			l-0.082-0.221l0.055-0.221l-0.027-0.291l0.083-0.358v-0.346l-0.028-0.166l0.028-0.179l0.165-0.498l-0.027-0.234l0.056-0.138
			v-0.194l-0.166-0.179l0.056-0.622l-0.056-0.414v-0.124l0.056-0.249l-0.083-0.373l0.056-0.276l-0.028-0.234l0.083-0.193
			l-0.055-0.373l-0.291-0.11l-0.648,0.027l-0.387,0.056l-0.152-0.222v-0.138v-0.207l-0.027-0.387l0.027-0.235l-0.027-0.193
			l-0.056-0.166l0.056-0.345l0.097-0.11l0.165-0.056l0.566,0.056l0.111,0.083l0.303-0.056l0.291-0.138v-0.595v-0.29l-0.027-0.138
			v-0.139v-0.29l-0.111-0.677l-0.18-0.455l-0.138-0.166l-0.249-0.193l-0.18-0.429l0.152-0.428l0.359-0.166l0.428,0.056h0.166
			l0.29,0.166l0.222,0.234l0.538,0.4l0.138,0.193l0.207,0.276l-0.082-0.221l0.055-0.11l0.276-0.773l0.263-0.47l0.11-0.152
			l0.304-0.387l0.346-0.317l0.221-0.139l0.18-0.055l0.11-0.056L271.018,145.469z"/>
		<path d="M279.277,149.792h0.152l0.305,0.028l0.648,0.317l0.139,0.221l0.262,0.083l0.898,0.677l0.234,0.11l0.414,0.235l0.125,0.055
			l0.166,0.056l0.165,0.055l0.401,0.166l0.345,0.097l0.442,0.304l0.055,0.318l-0.027,0.165l-0.083,0.166l-0.083,0.11l-0.083,0.4
			l0.028,0.166v0.18l-0.111,0.387l-0.055,0.373l0.082,0.428l-0.082,0.305v0.138l0.027,0.18l-0.027,0.138v0.373l-0.056,0.139v0.248
			l0.028,0.18l-0.028,0.332v0.221l0.056,0.124l0.027,0.221l-0.027,0.166l-0.056,0.263l0.083,0.304v0.235l-0.027,0.138l-0.083,0.539
			l-0.069,0.11l0.125,0.083l-0.056,0.11l0.11,0.718l0.055,0.387l-0.055,0.083l0.027,0.18l-0.027,0.138l0.083,0.249l0.249,0.083
			l0.234,0.317v0.11l-0.125,0.207l-0.109,0.166l-0.111,0.056l-0.373,0.083l-0.109,0.055l-0.139,0.083h-0.193l-0.207,0.027
			l-0.193,0.083l-0.221,0.069l-0.539,0.249l-0.29,0.082l-0.511,0.193l-0.111,0.069l-0.621,0.276l-0.221,0.193l-0.111,0.18
			l0.027,0.221l0.139,0.263l0.055,0.331l-0.109,0.222l-0.484,0.317l-0.345-0.027l-0.138-0.056l-0.111-0.027l-0.082-0.083
			l-0.373-0.234l-0.305-0.056l-0.055-0.11l-0.234-0.027l-0.111-0.056l-0.11-0.083l-0.207-0.083l-0.11-0.124l-0.456-0.249
			l-0.358-0.317l-0.732-0.331l-0.207-0.083l-0.166-0.083l-0.139-0.069h-0.11l-0.345-0.166l-0.193-0.055l-0.18-0.249l0.082-0.29
			l0.346-0.4l0.055-0.166l0.111-0.248l0.082-0.318l0.042-0.331l0.028-0.083l0.082-0.636l0.027-0.648l0.139-0.11l-0.166-0.166v-0.4
			v-0.359v-0.124l-0.027-0.166l0.055-0.249l-0.027-0.151l-0.027-0.387l0.11-0.373v-0.166l-0.11-0.193l0.027-0.18l0.083-0.276
			l-0.11-0.11l-0.027-0.263v-0.11v-0.262l0.055-0.139l-0.055-0.166l-0.027-0.193l0.027-0.428l-0.027-0.221l-0.028-0.483
			l-0.151-0.373l-0.166-0.11l-0.166-0.193l-0.055-0.235l0.027-0.083l0.082-0.138l0.057-0.11l0.33-0.152l0.291-0.083l0.248-0.027
			l0.373-0.083l0.166-0.027l0.373-0.11l0.373-0.139l0.621-0.18l0.249-0.221l0.345-0.193l0.249-0.234l0.138-0.249l0.056-0.18
			l-0.028-0.304l0.028-0.11l0.124-0.207l0.221-0.166L279.277,149.792z M278.656,152.707l-0.221,0.083v0.165l0.027,0.125l0.111,0.221
			v0.538l0.027,0.512v0.359l0.027,0.124v0.083v0.138v0.276v0.152v0.138l-0.027,0.221l0.055,0.18v0.442l0.027,0.18l0.027,0.221
			l-0.055,0.249l-0.055,0.29l0.193,0.428v0.11l-0.139,0.359l0.027,0.207l-0.027,0.221l-0.082,0.235l0.055,0.11l-0.055,0.276
			l-0.057,0.538l-0.055,0.346l-0.11,0.249l-0.151,0.317l-0.056,0.138l0.124,0.139l0.414,0.166l0.18,0.027h0.111l0.358,0.097h0.263
			l0.139,0.027l0.566,0.11h0.165l0.29-0.027l0.055-0.207v-0.11l-0.316-0.359l-0.166-0.29l-0.084-0.539l0.028-0.193l0.056-0.704
			l0.027-0.29v-0.166l-0.027-0.083l0.027-0.262l-0.055-0.139l0.027-0.483l0.193-0.193l0.027-0.11l-0.166-0.317l0.027-0.249
			l0.139-0.317l-0.193-0.221v-0.139l-0.055-0.346v-0.538L280.244,155l0.057-0.263v-0.304l0.055-0.193l-0.027-0.263l0.055-0.221
			l0.111-0.235v-0.221l-0.415,0.11l-0.18-0.056l-0.193-0.055l-0.221-0.139l-0.208-0.151l-0.165-0.166l-0.373-0.11L278.656,152.707z"
			/>
	</g>
	<path d="M296.582,150.154l1.659,3.365l3.792,0.578l-2.78,2.574l0.604,3.686l-3.377-1.773l-3.418,1.698l0.691-3.671l-2.719-2.637
		l3.806-0.492L296.582,150.154z"/>
	<path d="M159.923,150.154l1.659,3.365l3.792,0.578l-2.781,2.574l0.605,3.686l-3.376-1.773l-3.42,1.699l0.694-3.672l-2.718-2.635
		l3.805-0.494L159.923,150.154z"/>
</g>
<g>
	<path fill="#FFFFFF" d="M67.18,88.707c2.048,3.371,2.752,5.852,1.215,7.287l-2.125,1.791l2.539,4.176l30.956-18.776l-9.131-15.023
		l-4.621,2.802l2.45,4.031c2.139,3.518,1.328,6.316-3.806,9.43c-5.356,3.249-7.808,1.527-10.347-2.65L60.057,58.322
		c-2.092-3.444-2.504-6.104-1.216-7.286l2.125-1.791l-2.539-4.177L40.75,55.791l2.539,4.178l2.569-1.057
		c1.646-0.597,3.817,0.995,5.911,4.439L67.18,88.707z"/>
	<path fill="#FFFFFF" d="M132.803,48.355l-5.834-14.658c-4.044-9.928-13.706-15.408-23.674-11.448
		c-9.968,3.96-13.082,15.161-9.341,24.563l5.978,15.248c4.232,10.867,13.786,15.375,23.754,11.416
		C133.732,69.484,136.878,58.361,132.803,48.355z M121.656,68.377c-4.786,1.9-7.692-2.85-10.007-8.665l-8.436-21.192
		c-1.775-4.46-2.643-9.191,2.143-11.092c4.704-1.869,7.406,2.132,9.182,6.594l8.434,21.191
		C125.128,60.63,126.36,66.508,121.656,68.377z"/>
	<path fill="#FFFFFF" d="M179.715,28.177l-4.974-24.976l-5.724,1.139c0.434,2.187,0.03,2.791-0.813,2.958
		c-1.009,0.201-2.828-0.138-4.324-0.627c-2.407-0.657-4.696-0.728-7.136-0.243c-10.607,2.109-15.382,13.724-13.624,22.553
		l2.779,13.96c2.044,10.26,9.238,20.021,22.538,17.376c12.205-2.425,15.212-12.378,13.42-21.376l-8.671,1.724
		c1.859,9.334-0.519,13.217-5.57,14.22c-4.965,0.987-8.208-3.438-9.532-10.083l-4.455-22.369c-0.938-4.71-0.849-9.536,4.202-10.539
		c6.566-1.306,11.554,9.68,13.212,18.005L179.715,28.177z"/>
	<path fill="#FFFFFF" d="M233.874,49.971l-2.416-0.908c-1.467-0.494-2.961-2.958-4.594-8.937l-10.7-39.028l-7.979,0.116
		l-9.335,36.578c-2.273,8.865-3.694,11.458-5.831,12.175l-1.877,0.627l0.07,4.886l18.192-0.265l-0.071-4.887l-2.24-0.567
		c-1.897-0.659-3.24-4.327-2.026-9.403l0.649-2.582l10.383-0.152l0.639,2.563c1.469,6.496,0.471,8.739-1.751,9.457l-2.222,0.633
		l0.073,4.886l21.107-0.309L233.874,49.971z M207.577,30.118l3.413-13.168l0.344-0.004l3.024,13.074L207.577,30.118z"/>
	<path fill="#FFFFFF" d="M240.67,23.117l5.01,0.744l0.704-4.75c0.745-5.004,2.839-10.327,6.487-9.786
		c3.229,0.479,2.822,5.534,2.344,8.757l-4.037,27.139c-0.58,3.901-1.625,6.261-3.811,6.369l-2.78,0.021l-0.719,4.834l20.545,3.049
		l0.718-4.833l-2.566-0.815c-2.145-0.752-2.459-3.312-1.879-7.213l4.037-27.139c0.479-3.223,1.562-8.177,4.789-7.697
		c3.651,0.542,4.104,6.243,3.36,11.247l-0.707,4.75l5.008,0.743L280.34,7.25l-36.504-5.42L240.67,23.117z"/>
	<path fill="#FFFFFF" d="M288.23,52.818c-1.137,3.777-2.512,5.96-4.605,5.778l-2.754-0.379l-1.409,4.68l19.89,5.973l1.406-4.68
		l-2.505-1.2c-1.933-1.028-1.871-3.607-0.735-7.382l8.549-28.408c1.16-3.859,2.863-5.944,4.606-5.779l2.753,0.38l1.409-4.681
		l-19.81-5.948l-1.407,4.679l2.508,1.201c1.544,0.822,1.813,3.5,0.653,7.358L288.23,52.818z"/>
	<path fill="#FFFFFF" d="M347.186,29.678c-9.709-4.562-20.021,0.822-24.334,9.978l-7.059,14.782
		c-5.048,10.515-1.812,20.564,7.895,25.126c9.787,4.601,20.063-0.708,24.59-10.52l6.725-14.275
		C359.49,45.033,356.891,34.241,347.186,29.678z M346.268,45.924l-9.722,20.636c-2.483,5.276-5.938,10.191-10.521,8.038
		c-4.66-2.192-3.174-7.558-0.508-13.222l9.721-20.636c2.047-4.345,4.91-8.21,9.57-6.02C349.391,36.875,348.312,41.58,346.268,45.924
		z"/>
	<path fill="#FFFFFF" d="M380.932,63.312l0.141,0.1l-12.414,42.686l8.062,5.836l24.575-33.88c2.367-3.265,4.662-4.673,6.323-3.895
		l2.404,1.212l2.871-3.957l-13.344-9.66l-2.869,3.958l1.971,1.958c1.189,1.283,0.562,3.9-1.805,7.164l-10.93,15.065l-0.068-0.05
		l8.905-31.567l-15.567-11.271l-2.869,3.958l1.973,1.958c1.188,1.284,0.562,3.901-1.807,7.163l-17.424,24.023
		c-2.316,3.194-4.332,4.805-6.254,3.944l-2.475-1.263l-2.871,3.958l12.719,9.206l2.869-3.958l-1.275-1.453
		c-1.436-1.675-0.582-4.02,1.734-7.214L380.932,63.312z"/>
</g>
<g>
	<path fill="#000100" d="M79.737,83.18c1.225,1.974,3.004,1.579,4.173,0.854c1.39-0.862,1.616-3.432-0.061-6.137l-2.54-4.093
		l7.09-4.397l10.062,3.981l10.111,16.301l-34.137,21.173l-8.487-3.239l-4.171-6.725l2.58-2.207c1.208-1.154,0.45-3.518-1.138-6.077
		l-15.46-24.927c-2.085-3.362-3.744-3.751-5.224-3.036l-2.611,1.013l-4.171-6.726l20.249-12.559l9.852,3.808l3.582,5.775
		l-2.039,1.771c-1.226,0.963-1.442,3.223,1.006,7.17L79.737,83.18z M64.689,92.21c2.085,3.362,2.815,5.845,1.287,7.299l-2.112,1.816
		l2.584,4.167l30.847-19.134l-9.294-14.986l-4.605,2.856l2.494,4.021c2.176,3.509,1.392,6.323-3.726,9.497
		c-5.336,3.31-7.811,1.605-10.396-2.561l-14.506-23.39c-2.131-3.436-2.569-6.099-1.288-7.298l2.112-1.817l-2.584-4.167L37.885,59.44
		l2.584,4.167l2.565-1.086c1.644-0.615,3.836,0.961,5.967,4.396L64.689,92.21z M50.317,66.102c-3.446-5.555-5.842-5.992-7.34-5.468
		l-2.082,0.886l-0.998-1.608l15.131-9.385l0.997,1.607l-1.719,1.472c-1.135,1.109-1.808,3.45,1.638,9.005l7.345,11.842
		c-1.094-0.132-2.117,0.503-2.705,1.677c1.028,0.678,2.784,1.715,4.561,2.131c0.4,3.092,1.681,6.954,5.023,13.484
		c-4.366-5.896-7.255-8.76-9.848-10.492c0.417-1.777,0.269-3.811,0.044-4.988c-1.386,0.051-2.336,0.64-2.705,1.678L50.317,66.102z
		 M60.541,76.057c-1.148-2.83-1.251-4.791-0.835-6.567c-2.185-1.074-4.621-3.207-8.533-8.372c2.889,5.8,3.717,8.93,3.708,11.364
		c1.777,0.417,3.488,1.38,5.44,3.711L60.541,76.057z"/>
	<path fill="#000100" d="M138.867,51.961c6.25,15.288,1.062,26.237-10.006,30.762c-11.385,4.655-25.744,0.675-32.874-16.762
		l-6.25-15.288c-4.882-11.943,0.624-23.023,9.94-26.832c15.208-6.218,29.261,3.835,33.2,13.47L138.867,51.961z M124.069,36.451
		c-4.148-9.92-13.886-15.326-23.839-11.256c-9.953,4.069-12.966,15.337-9.125,24.733l6.138,15.24
		c4.348,10.861,13.965,15.292,23.918,11.224c10.032-4.101,13.079-15.291,8.897-25.29L124.069,36.451z M103.189,52.887
		c-0.898-0.377-2.49,0.274-3.822,1.562c0.821,0.872,2.428,2.074,4.063,2.892c-0.04,3.083,0.657,8.653,3.905,13.644
		c-4.381-4.807-7.417-9.049-9.081-11.528c0.594-1.73,0.739-3.647,0.873-4.911c-1.772-0.018-3.444,0.665-3.9,1.595l-2.767-6.767
		c-3.321-8.122-1.39-18.855,8.325-22.826c9.634-3.938,18.532,2.367,21.852,10.489l2.767,6.767c-0.978-0.343-2.569,0.309-3.902,1.596
		c0.98,0.808,2.428,2.074,4.063,2.893c0.727,3.141,1.88,7.781,1.676,14.555c-1.787-5.961-4.583-10.3-6.852-12.44
		c0.673-1.762,0.899-3.712,0.874-4.91c-1.853,0.013-3.445,0.665-3.822,1.562l-4.394-10.749c-3.158-7.724-7.226-9.034-11.286-7.374
		c-4.14,1.692-6.125,5.477-2.967,13.201L103.189,52.887z M99.301,54.29c-0.741-2.95-0.403-4.853,0.19-6.583
		c-2.702-2.52-4.037-5.784-5.158-10.344c-0.667,4.732-0.592,8.327-0.018,12.46c1.636,0.818,3.13,1.973,4.747,4.563L99.301,54.29z
		 M100.307,41.52c-1.823-4.459-2.737-9.196,2.04-11.149c4.698-1.921,7.443,2.067,9.267,6.526l8.659,21.181
		c2.213,5.413,3.504,11.298-1.194,13.219c-4.777,1.953-7.737-2.785-10.113-8.598L100.307,41.52z M111.399,40.237
		c-1.302-3.186-2.374-5.35-3.488-4.894c-0.956,0.39-0.861,2.21,0.863,6.431l7.682,18.791c1.27,3.105,2.973,6.591,3.77,6.266
		c1.194-0.489,0.384-4.061-1.373-8.36L111.399,40.237z M121.437,45.241c-0.662-2.983-0.404-4.854,0.189-6.583
		c-2.532-3.24-4.935-6.161-8.741-8.879c2.069,3.243,3.729,7.304,3.566,10.995c1.715,0.786,3.209,1.94,4.746,4.564L121.437,45.241z"
		/>
	<path fill="#000100" d="M138.717,31.791c-2.375-11.367,4.23-22.237,14.166-24.313c2.863-0.598,5.175-0.466,7.372-0.046
		c1.759,0.423,3.415,0.78,3.92,0.675c0.505-0.106,0.378-1.134,0.062-2.649l7.747-1.619l8.744,6.521l5.646,27.028l-11.451,2.394
		l-7.793-5.754c-2.24-9.462-5.201-14.379-6.884-14.027c-1.853,0.387-1.862,3.289-1.158,6.657l4.908,23.492
		c0.51,2.442,1.756,4.203,3.272,3.886c2.189-0.457,2.709-4.696,1.498-12.176l11.199-2.339l8.727,6.437
		c1.648,17.144-7.5,22.569-17.267,24.61c-12.041,2.516-26.057-6.947-29.769-24.713L138.717,31.791z M176.917,30.401l-5.224-25.007
		l-5.726,1.196c0.458,2.189,0.058,2.8-0.784,2.975c-1.011,0.211-2.835-0.11-4.341-0.587c-2.418-0.638-4.712-0.685-7.154-0.175
		c-10.609,2.217-15.284,13.915-13.437,22.755l2.92,13.978c2.146,10.272,9.45,19.995,22.753,17.215
		c12.209-2.55,15.126-12.562,13.244-21.572l-8.673,1.812c1.953,9.347-0.392,13.264-5.444,14.319
		c-4.968,1.038-8.262-3.372-9.652-10.023L150.72,24.89c-0.985-4.716-0.942-9.557,4.11-10.613
		c6.567-1.373,11.672,9.601,13.413,17.937L176.917,30.401z M151.281,35.142c-1.134-0.378-2.734-0.044-4.042,0.844
		c0.65,1.007,2.012,2.479,3.473,3.581c-0.581,3.109-0.8,7.108,1.267,14.059c-3.705-5.113-5.271-8.829-6.741-12.916
		c0.897-1.593,1.472-3.471,1.749-4.671c-1.723-0.255-3.239,0.061-4.126,0.862l-0.968-4.631c-1.952-9.346,2.747-20.082,12.094-22.035
		c2.526-0.528,4.789-0.21,6.53,0.129c2.232,0.588,4.057,0.911,5.657,0.576c1.179-0.246,2.013-1.299,1.626-3.152l2.694-0.562
		l4.609,22.061l-5.641,1.179c-2.789-10.402-8.043-19.146-14.947-17.704c-6.399,1.337-6.434,7.056-5.309,12.445L151.281,35.142z
		 M147.133,35.48c0.175-1.266,0.599-3.024,1.749-4.671c-2.033-3.002-2.839-6.437-3.217-11.191c-1.531,4.45-2.167,8.978-2.256,12.335
		c1.544,1.083,2.889,2.472,3.472,3.581L147.133,35.48z"/>
	<path fill="#000100" d="M213.733,1.323l9.874,9.829l10.059,35.208c0.84,2.733,2.914,6.641,5.707,8.294l0.256,10.577l-22.272,0.539
		l-2.309-2.956l0.073,3.01l-21.843,0.528l-6.125-7.768l-0.17-7.051l2.219-0.742c2.133-0.74,3.612-3.615,5.416-10.886l9.312-38.344
		L213.733,1.323z M213.452,39.534l0.665,2.566c1.534,6.502,0.556,8.763-1.664,9.504l-2.221,0.656l0.119,4.901l21.154-0.511
		l-0.118-4.902l-2.431-0.888c-1.475-0.479-2.997-2.939-4.69-8.92L213.168,2.886l-7.998,0.193l-9.005,36.787
		c-2.193,8.916-3.594,11.53-5.727,12.271l-1.877,0.647l0.118,4.901l18.231-0.44l-0.119-4.902l-2.25-0.548
		c-1.908-0.643-3.288-4.309-2.121-9.413l0.625-2.597L213.452,39.534z M206.496,4.51l5.418-0.131l7.046,24.524
		c-1.049-0.663-2.081-0.638-3.096,0.075c0.543,1.105,1.962,2.878,3.456,4.132c-0.346,3.536-0.43,7.153,0.771,14.093
		c-2.405-6.912-3.858-10.061-6.275-13.96c0.829-1.311,1.731-3.139,1.79-4.259c-1.307-0.657-2.424-0.63-3.096,0.075l-4.112-17.023
		l-0.172,0.004l-4.23,17.225c-1.048-0.663-2.253-0.634-3.526,0.085L206.496,4.51z M204.839,32.084l3.294-13.243l0.344-0.009
		l3.156,13.088L204.839,32.084z M215.862,28.893c-0.073-3.01,0.229-4.738,0.714-6.041c-1.598-2.027-2.962-5.092-5.44-11.484
		c0.93,6.431,0.918,9.529,0.539,11.603c1.321,1.259,2.566,2.95,3.929,5.929L215.862,28.893z"/>
	<path fill="#000100" d="M284.452,16.352l-3.229,23.26l-8.182-1.136l-4.372-7.902l-3.573,25.731l4.445,8l-0.898,6.475l-24.367-3.384
		l-4.459-7.915l1.088-7.838l3.311-0.062c1.751-0.104,2.594-2.418,3.008-5.401l1.539-11.076l-5.625-0.782l-6.93-8.256l3.396-24.454
		l39.703,5.515L284.452,16.352z M237.952,24.744l5.026,0.699l0.664-4.771c0.697-5.027,2.744-10.388,6.41-9.878
		c3.236,0.449,2.879,5.524,2.43,8.761l-3.787,27.265c-0.545,3.919-1.568,6.296-3.758,6.426l-2.787,0.048l-0.674,4.856l20.619,2.864
		l0.674-4.856l-2.58-0.793c-2.157-0.733-2.496-3.3-1.953-7.219l3.789-27.265c0.449-3.237,1.488-8.217,4.726-7.768
		c3.664,0.509,4.173,6.225,3.476,11.251l-0.664,4.771l5.027,0.698l2.971-21.386l-36.638-5.089L237.952,24.744z M275.911,9.694
		l-2.567,18.489l-2.131-0.296l0.413-2.981c0.747-5.368,0.608-12.508-4.674-13.242c-3.664-0.51-5.452,2.369-6.162,7.481
		l-1.821,13.121c-0.674-0.788-1.867-0.954-3.154-0.438c0.356,1.178,1.045,3.098,2.062,4.541c-1.583,2.646-3.064,6.436-4.752,13.583
		c0.408-7.325,0.018-11.374-0.786-14.352c1.371-1.112,2.556-2.771,3.222-3.808c-1.013-0.835-2.205-1-3.236-0.45l1.82-13.121
		c0.711-5.112-0.228-8.368-3.892-8.877c-5.282-0.733-7.358,6.099-8.104,11.467l-0.414,2.982l-2.131-0.295l2.567-18.489
		L275.911,9.694z M255.827,31.743c0.924-2.911,2.098-4.486,3.384-5.609c-0.824-2.199-1.336-5.396-1.129-11.881
		c-1.484,6.307-2.848,9.245-4.325,11.124c1.019,1.443,1.718,3.277,1.813,6.331L255.827,31.743z"/>
	<path fill="#000100" d="M292.795,25.094c1.105-3.799,0.283-5.292-1.238-5.913l-2.498-1.263l2.205-7.601l22.883,6.642l3.765,9.871
		l-1.896,6.526l-2.682-0.33c-1.535-0.266-3.359,1.084-4.654,5.545l-7.912,27.262l3.332,8.581l-1.822,6.278l-23.711-6.881
		l-3.271-8.474l2.206-7.601l3.367,0.44c1.664,0.125,2.915-2.021,3.753-4.912L292.795,25.094z M285.904,54.085
		c-1.104,3.8-2.459,6.004-4.562,5.842l-2.763-0.354l-1.366,4.709l19.991,5.803l1.366-4.708l-2.522-1.181
		c-1.946-1.012-1.911-3.601-0.81-7.4l8.297-28.584c1.127-3.882,2.812-5.99,4.562-5.842l2.764,0.354l1.365-4.708l-19.908-5.779
		l-1.367,4.709l2.523,1.181c1.557,0.81,1.854,3.493,0.727,7.376L285.904,54.085z M298.165,41.162
		c-0.636-0.9-1.791-1.236-3.058-0.887c0.185,1.218,0.59,3.216,1.469,4.815c-2.029,2.367-4.041,5.903-6.657,12.757
		c1.459-7.19,1.653-11.253,1.205-14.34c1.601-0.879,3.011-2.35,3.735-3.304c-0.965-0.997-2.037-1.309-3.057-0.888l3.885-13.382
		c1.821-6.279,0.543-8.352-0.848-9.113l-2.054-0.954l0.526-1.818l17.103,4.963l-0.528,1.818l-2.242-0.293
		c-1.584-0.101-3.773,0.965-5.597,7.243L298.165,41.162z M295.132,40.192c1.334-2.747,2.724-4.135,4.322-5.015
		c-0.663-2.342-0.71-5.581,0.51-11.944c-2.375,6.028-4.147,8.738-5.962,10.362c0.879,1.599,1.309,3.514,0.883,6.525L295.132,40.192z
		"/>
	<path fill="#000100" d="M351.645,76.817c-6.892,15.01-18.432,18.705-29.297,13.715c-11.181-5.133-18.086-18.335-10.226-35.457
		l6.892-15.01c5.381-11.726,17.234-15.277,26.381-11.078c14.933,6.854,17.196,23.985,12.854,33.445L351.645,76.817z M352.855,55.414
		c4.408-9.808,1.701-20.611-8.07-25.097s-20.061,1.014-24.295,10.239l-6.934,14.896c-4.959,10.597-1.621,20.646,8.149,25.133
		c9.851,4.522,20.103-0.9,24.546-10.786L352.855,55.414z M326.588,51.4c-0.339-0.912-1.902-1.63-3.754-1.722
		c-0.075,1.195,0.145,3.189,0.665,4.942c-2.278,2.078-5.869,6.393-7.293,12.175c0.517-6.483,1.539-11.598,2.212-14.508
		c1.669-0.749,3.169-1.953,4.182-2.718c-1.197-1.308-2.838-2.061-3.828-1.759l3.049-6.645c3.66-7.974,12.818-13.898,22.354-9.52
		c9.46,4.342,10.937,15.147,7.274,23.122l-3.051,6.645c-0.416-0.948-1.979-1.666-3.83-1.758c0.08,1.268,0.145,3.189,0.664,4.943
		c-1.797,2.677-4.396,6.69-9.48,11.17c3.13-5.378,4.389-10.385,4.398-13.503c1.748-0.712,3.326-1.88,4.185-2.718
		c-1.276-1.343-2.841-2.061-3.754-1.723l4.847-10.554c3.48-7.583,1.658-11.449-2.328-13.28c-4.065-1.865-8.185-0.729-11.666,6.854
		L326.588,51.4z M332.918,41.528c2.01-4.378,4.844-8.283,9.534-6.129c4.61,2.117,3.577,6.847,1.567,11.226l-9.549,20.795
		c-2.439,5.315-5.855,10.279-10.468,8.162c-4.688-2.154-3.253-7.552-0.634-13.258L332.918,41.528z M322.906,49.521
		c1.646-2.557,3.267-3.611,4.938-4.36c-0.009-3.695,1.463-6.9,4.025-10.834c-3.911,2.748-6.482,5.258-9.107,8.502
		c0.521,1.753,0.697,3.633-0.089,6.584L322.906,49.521z M341.434,48.75c1.437-3.126,2.284-5.388,1.189-5.89
		c-0.938-0.431-2.203,0.881-4.105,5.024l-8.47,18.451c-1.399,3.048-2.78,6.673-1.999,7.033c1.174,0.539,3.229-2.493,5.166-6.715
		L341.434,48.75z M344.641,59.498c1.725-2.521,3.266-3.611,4.936-4.359c0.635-4.063,1.125-7.813,0.509-12.45
		c-0.954,3.727-2.782,7.714-5.59,10.116c0.597,1.79,0.776,3.67-0.091,6.585L344.641,59.498z"/>
	<path fill="#000100" d="M365.443,116.416l-0.256-9.89l4.537-16.191l-5.529,7.785l0.223,7.859l-4.584,6.451l-16.061-11.406
		l-0.304-9.08l4.583-6.452l3.033,1.522c1.532,0.666,3.419-0.949,5.161-3.403l16.985-23.914c2.291-3.227,2.008-4.906,0.773-5.992
		l-1.943-2.015l4.582-6.452L394.6,57.99l0.152,5.279l2.439-3.437l15.99,11.358l0.307,10.559l-3.934,5.54l-2.425-1.193
		c-1.362-0.756-3.46-0.031-6.147,3.756l-24.461,34.435L365.443,116.416z M378.915,63.732l0.14,0.099l-12.035,42.941l8.135,5.78
		l24.309-34.225c2.342-3.296,4.628-4.731,6.301-3.967l2.424,1.194l2.838-3.998l-13.465-9.563l-2.84,3.997l1.996,1.944
		c1.202,1.276,0.6,3.908-1.74,7.205l-10.811,15.218l-0.068-0.05l8.625-31.752l-15.709-11.158l-2.84,3.997l1.994,1.945
		c1.204,1.276,0.602,3.908-1.74,7.205l-17.234,24.264c-2.291,3.226-4.299,4.862-6.229,4.017l-2.493-1.244l-2.839,3.998l12.834,9.116
		l2.839-3.998l-1.293-1.446c-1.455-1.666-0.621-4.029,1.67-7.254L378.915,63.732z M390.82,59l-6.932,25.357
		c-0.935-1.507-2.125-2.355-3.647-2.59c0.055,1.41,0.261,3.35,0.784,5.728c-1.602,2.554-3.322,5.869-6.414,12.747
		c1.47-7.714,1.938-12.235,2.068-15.835c1.457-0.864,2.705-1.877,3.352-2.789c-1.073-1.606-2.196-2.404-3.436-2.44l4.012-14.561
		c0.476-1.561,0.604-2.631-0.311-3.279c-0.841-0.598-1.729,0.354-2.477,1.407l-8.17,11.501c-0.231-1.009-1.072-1.607-2.031-1.445
		l8.068-11.36c3.785-5.331,3.26-7.709,2.196-8.886l-1.622-1.576l1.094-1.542L390.82,59z M380.292,81.698
		c1.743-2.455,2.739-3.857,3.854-5.28c-0.297-3.589-0.037-7.52,0.865-13.842c-2.006,5.646-3.558,8.869-5.722,11.025
		c0.866,2.197,0.991,4.397,0.791,7.947L380.292,81.698z M408.986,71.902l-1.098,1.542l-2.021-1.014
		c-1.462-0.616-3.882-0.33-7.668,4.999l-8.069,11.362c-0.021-0.86-1.074-1.607-1.963-1.395l8.068-11.361
		c3.785-5.33,3.261-7.708,2.197-8.885l-1.625-1.576l1.096-1.542L408.986,71.902z"/>
</g>
<g>
	<polygon fill="#000100" points="435.986,113.051 429.74,125.705 415.775,127.732 425.881,137.584 423.495,151.493 435.986,144.926 
		448.477,151.493 446.092,137.584 456.195,127.732 442.23,125.705 	"/>
	<polygon fill="#FFFFFF" points="436.486,109.423 431.709,122.702 418.061,126.292 429.213,134.939 428.411,149.029 
		440.082,141.096 453.232,146.212 449.295,132.66 458.225,121.732 444.119,121.292 	"/>
</g>
<g>
	<polygon fill="#000100" points="22.237,109.051 28.483,121.705 42.448,123.732 32.343,133.584 34.729,147.493 22.237,140.926 
		9.747,147.493 12.132,133.584 2.027,123.732 15.993,121.705 	"/>
	<polygon fill="#FFFFFF" points="21.737,105.423 26.515,118.702 40.163,122.292 29.011,130.939 29.812,145.029 18.142,137.096 
		4.991,142.212 8.929,128.66 0,117.732 14.104,117.292 	"/>
</g>
</svg>
