<?xml version="1.0" encoding="utf-8"?>
<!-- Generator: Adobe Illustrator 16.0.0, SVG Export Plug-In . SVG Version: 6.00 Build 0)  -->
<!DOCTYPE svg PUBLIC "-//W3C//DTD SVG 1.1//EN" "http://www.w3.org/Graphics/SVG/1.1/DTD/svg11.dtd">
<svg version="1.1" id="Capa_2" xmlns="http://www.w3.org/2000/svg" xmlns:xlink="http://www.w3.org/1999/xlink" x="0px" y="0px"
	 width="458px" height="223px" viewBox="0 0 458 223" enable-background="new 0 0 458 223" xml:space="preserve">
<g>
	<g>
		<polygon fill="#CCCCCC" points="292.763,214.481 292.763,159.957 390.862,159.957 373.544,187.22 390.862,214.481 		"/>
		<path d="M387.07,162.042l-15.995,25.178l15.995,25.178h-92.224v-50.355H387.07 M394.656,157.873h-7.586h-92.224h-4.168v4.169
			v50.355v4.169h4.168h92.224h7.586l-4.068-6.404l-14.574-22.942l14.574-22.942L394.656,157.873L394.656,157.873z"/>
	</g>
	<g>
		<polygon fill="#CCCCCC" points="67.7,214.481 85.02,187.22 67.7,159.957 165.801,159.957 165.801,214.481 		"/>
		<path d="M163.717,162.042v50.355H71.494l15.995-25.178l-15.995-25.178H163.717 M167.886,157.873h-4.169H71.494h-7.587l4.069,6.404
			L82.55,187.22l-14.575,22.942l-4.069,6.404h7.587h92.223h4.169v-4.169v-50.355V157.873L167.886,157.873z"/>
	</g>
	<polygon fill="#7D7D7D" points="340.088,208.512 290.678,216.566 290.678,201.168 	"/>
	<polyline fill="#7D7D7D" points="117.375,208.512 167.886,201.168 167.886,216.566 	"/>
	<g>
		<rect x="119.459" y="131.197" fill="#FFFFFF" width="218.544" height="75.229"/>
		<path d="M335.92,133.281v71.062H121.544v-71.062H335.92 M340.088,129.113h-4.168H121.544h-4.168v4.168v71.062v4.169h4.168H335.92
			h4.168v-4.169v-71.062V129.113L340.088,129.113z"/>
	</g>
	<line fill="none" x1="167.886" y1="216.566" x2="117.375" y2="208.512"/>
	<g>
		<path d="M170.649,168.948l0.218,0.073l0.71,0.073l0.492-0.109h0.254h0.401l0.346,0.146l0.255-0.073l0.454,0.073l0.292-0.036
			l0.146-0.036l0.273,0.164l0.218-0.055l0.492,0.055l0.328,0.036h0.218l0.146,0.072h0.31l0.218,0.11l0.819,0.182l0.673,0.182
			l0.418,0.201l0.183,0.036l0.437,0.254l0.236,0.109l0.183,0.037l0.219,0.145h0.346l0.145,0.602h0.183l0.527,0.328l0.674,0.091
			l0.109,0.438l0.254,0.309l0.182,0.182l0.637,0.747l0.182,0.183l0.383,0.564l0.291,0.255l-0.072,0.418l0.182,0.474l0.237,0.072
			l0.182,0.311l0.255,0.29l0.109,0.219l0.164,0.347l0.292,1.038l0.218,0.709l0.036,0.419l0.073,0.292l0.037,0.291v0.711l0.091,0.563
			l-0.091,0.182v0.965l-0.292,1.421l0.036,0.309v0.183l-0.145,0.362l-0.146,0.237l-0.037,0.109l0.074,0.218l-0.109,0.527
			l-0.237,0.438l0.037,0.564l-0.073,0.146l-0.182,0.273l-0.036,0.254l-0.254,0.675l-0.11,0.363l0.036,0.31l-0.127,0.582
			l-0.036,0.201l0.036,0.437l0.091,0.183l-0.2,0.273l-0.146,0.254v0.218l0.109,0.165v0.146l0.037,0.254l0.273,0.309v0.146
			l0.073,0.255l0.292,0.455l0.418,0.255h0.146l0.218-0.146l0.492-0.035l0.51,0.035l0.418,0.438l0.037,0.347l-0.037,0.218
			l-0.145,0.492l-0.31,0.218l-0.892,0.292l-0.601,0.073l-0.364,0.055h-0.146h-0.182l-0.783-0.055l-0.455-0.146h-0.291l-0.165-0.109
			l-0.364-0.108h-0.382l-0.546-0.219l-0.346-0.419l-0.218-0.182l-0.037-0.183l-0.254-0.108l-0.201-0.273l-0.4-0.364l-0.073-0.183
			l-0.347-0.601l-0.145-0.346l-0.145-0.401l-0.037-0.182l-0.072-0.711l-0.11-0.127v-0.327l0.037-0.255l-0.109-0.236l0.036-1.038
			l-0.073-0.564l-0.091-0.364l0.037-0.182l0.091-0.2v-0.438l0.036-0.272l0.036-0.146l0.11-0.182l-0.074-0.291v-0.165l0.109-0.691
			l0.074-0.273l0.145-0.818l-0.036-0.219l-0.218-0.419V182l0.254-1.202l0.073-0.654l-0.073-0.603l0.255-0.309l0.09-0.473
			l0.037-0.219l0.036-0.237l0.036-1.037l-0.036-0.454v-0.146l0.036-0.528l-0.109-0.146l0.036-0.545l-0.128-0.202l-0.036-0.399
			l-0.108-0.146l-0.036-0.165l0.036-0.29l-0.11-0.364l-0.109-0.273l-0.109-0.146l-0.146-0.11l-0.037-0.218l-0.199-0.091
			l-0.146-0.364l-0.564-0.528l-0.218-0.145l-0.255-0.037l-0.255-0.036l-0.091-0.108l-0.291-0.073h-0.328l-0.31,0.109h-0.145
			l-0.292,0.182l-0.165,0.219l-0.292,0.71l-0.073,0.346v0.292l-0.036,0.273v0.326l-0.073,0.638v0.256l-0.182,1.675l-0.036,0.31
			l-0.127,0.363l0.036,0.183l0.237,0.418l0.037,0.329l-0.273,0.418l0.237-0.036l0.036,0.511l-0.273,0.381l0.036,0.292l0.346,0.383
			l0.037,0.601l-0.037,0.183l0.109,0.674l-0.146,0.51l-0.036,1.092l0.182,0.673l-0.036,0.146l-0.036,0.51l-0.182,0.235l-0.31,0.364
			h0.382l0.11,0.273v0.146l-0.036,0.291l0.036,0.454l0.036,0.364l0.292,0.456l0.073,0.509l0.055,0.237l-0.092,0.328l0.092,0.218v0.2
			l0.218,0.856l0.109,0.145l0.037,0.145l0.146,0.348l0.145,0.182l0.165,0.146l0.254,0.382l0.401,0.327l0.273,0.219l0.509,0.237
			l0.237,0.146l0.183,0.072l0.217-0.036l0.146,0.183l0.2,0.11l0.109,0.182l0.073,0.309v0.219l-0.145,0.419l-0.146,0.146
			l-0.091,0.146l-0.255,0.108l-0.145,0.146l-0.11,0.036l-0.273,0.036l-0.182,0.035l-0.292,0.056l-0.31,0.036l-0.509-0.036
			l-0.456-0.127h-0.255h-0.218l-0.347-0.146l-0.4-0.037l-0.2-0.035l-0.219-0.036l-0.564-0.073l-0.254-0.109h-0.292h-0.2
			l-0.254-0.109l-0.292,0.036h-0.454l-0.182-0.109l-0.146,0.073h-0.2l-0.292-0.309h-0.218l-0.273,0.109h-0.51l-0.419,0.09
			l-0.182-0.055l-0.455,0.055l-0.109,0.109l-0.255,0.146l-0.073-0.183l-0.527-0.073l-0.219,0.109h-0.109l-0.346,0.182l-0.401,0.328
			l-0.528,0.563l-0.601,0.073l-0.328-0.073l-0.418-0.218l-0.183-0.236l-0.145-0.401v-0.254l0.037-0.528l0.218-0.419l0.109-0.291
			l0.2-0.219l0.292-0.146l0.183-0.128l0.491-0.291l0.673-0.255l0.182-0.036l0.292-0.164l0.455-0.255l0.491-0.437l0.11-0.236
			l0.072-0.146l0.22-0.602l0.036-0.437l0.037-0.273v-0.145v-0.183l0.072-0.146l-0.036-0.237l0.073-0.581l0.036-0.748l-0.145-0.199
			l0.036-0.292l0.201-0.328l-0.055-0.235l0.055-0.146v-0.256v-0.781l-0.055-0.347v-0.146l0.091-0.182l0.036-0.22l-0.073-0.145
			l-0.054-0.2l0.127-0.547l-0.127-0.271v-0.364l0.164-0.274l-0.036-0.328v-1.036l0.036-0.638l0.037-0.31l-0.073-0.546l-0.036-0.383
			l0.036-0.638l-0.036-0.364l-0.127-0.182l0.09-0.491l0.037-0.184v-0.217l-0.091-0.201l0.054-0.218l0.109-0.292l-0.072-0.346
			l-0.091-0.474l0.054-0.199v-0.256v-0.673l-0.127-0.291v-0.237v-0.473l-0.292-0.455l-0.109-0.109l-0.254-0.073l-0.346-0.109
			l-0.182-0.036l-0.783,0.109l-0.146,0.073l-0.236,0.146l-0.255,0.146l-0.291,0.345l-0.383,0.528l-0.182,0.364l-0.109,0.146v0.381
			l-0.456,0.475v0.382l-0.073,0.182l-0.072,0.292l0.109,0.528l-0.109,0.182l-0.183,0.236l0.073,0.22l0.145,0.29l-0.109,0.31
			l0.037,1.002l0.109,0.327l-0.182,0.036l0.036,0.274h0.182l0.109,0.437v0.31l0.146,0.473l0.09,0.455l0.218,0.364l0.074,0.2
			l0.182,0.327l0.146,0.564l0.036,0.183l0.037,0.108v0.237l-0.146,0.51l-0.218,0.418l-0.182,0.328l-0.073,0.491l0.073,0.22
			l0.036,0.217l0.073,0.274l0.073,0.328l-0.073,0.527l0.073,0.364l-0.255,0.273l0.109,0.218l0.292,0.073l-0.037,0.256l-0.146,0.381
			v0.109l-0.036,0.292l-0.037,0.2l-0.072,0.218v0.564l-0.183,0.474v0.382l-0.164,0.22l-0.146,0.182l-0.109,0.383l-0.219,0.892
			l-0.11,0.219l-0.564,0.965l-0.673,0.673l-0.218,0.184l-0.31,0.235l-0.437,0.146l-0.455,0.255l-0.82,0.236h-0.364l-0.273,0.108
			H159.2l-0.602-0.035l-0.509-0.164L157.925,194l-0.218-0.109l-0.219-0.109l-0.492-0.183l-0.182-0.073l-0.455-0.418l-0.255-0.4
			l-0.109-0.146l-0.109-0.235v-0.255l-0.237-0.146l-0.036-0.146l-0.073-1.093l0.2-0.527l0.109-0.254l0.401-0.364l0.182-0.073
			l0.236-0.127l0.146-0.036h0.146l0.108-0.036h0.274l0.364,0.164l0.254,0.219l0.237,0.218l0.182,0.419l0.037,0.328l-0.037,0.291
			l-0.073,0.273l-0.145,0.4l0.036,0.273l0.218,0.328l0.564,0.073l0.438-0.037l0.346-0.183l0.109-0.218l0.219-0.274l0.218-0.819
			l-0.036-0.891l-0.109-0.819v-0.219l-0.109-0.201l-0.036-0.291v-0.146l-0.109-0.219l-0.073-0.309l-0.073-0.219l-0.036-0.146
			l-0.037-0.346l-0.201-0.219l-0.036-0.108l-0.073-0.456l-0.182-0.436l-0.037-0.146l-0.418-1.275l-0.036-0.146v-0.309l-0.219-0.547
			l-0.035-0.2l-0.074-0.511l-0.036-0.382v-0.219v-0.146l-0.037-0.382v-1.147l0.073-0.455l0.036-0.183v-0.29l0.037-0.455l0.218-0.674
			l0.073-0.292l0.091-0.183l0.219-0.454l-0.037-0.292l0.074-0.237l0.109-0.182l0.182-0.362l0.109-0.421l0.201-0.362l0.364-0.384
			v-0.527l0.146-0.183l0.2-0.146l0.183-0.109l0.036-0.108l0.073-0.237l0.145-0.108l0.255-0.293l0.783-1.055l0.31-0.146l0.254-0.327
			l0.219-0.109l0.492-0.273l0.073-0.146l0.146-0.109l0.164-0.109l0.582-0.183l0.418-0.346l0.528-0.182l0.327-0.219l0.401-0.236
			h0.164l0.146-0.183l0.182,0.037l0.382-0.073l0.254-0.074l0.456-0.182h0.254l0.601-0.035l0.546-0.183l0.165,0.036l0.218-0.092
			l0.856-0.072l0.146-0.037l0.218-0.035L170.649,168.948z"/>
		<path d="M195.027,173.465h0.218l0.492,0.108l0.564,0.255l0.673,0.418l0.473,0.419l0.273,0.109l0.218,0.291l0.255,0.037
			l0.109,0.218l0.273,0.201l0.674,0.218l0.182,0.146l0.255,0.072l0.145-0.037h0.236l0.364,0.074l0.346,0.072h0.292l0.219,0.164
			l0.145,0.254v0.292l-0.109,0.346l-0.292,0.329l-0.182,0.563l-0.036,0.182l-0.036,0.255v1.202l-0.091,0.601l0.055,0.254
			l-0.055,0.328l0.091,0.602l-0.036,0.855l0.036,0.236v0.929l-0.127,0.291l0.037,0.746v0.347l0.055,0.183l0.182,0.182l0.037,0.146
			v0.492l-0.037,0.438l0.073,0.235l0.073,0.183v0.455l0.036,0.254l0.036,0.71l0.109,0.183l0.219,0.073h0.163l0.183,0.036h0.182
			h0.255l0.382,0.31v0.51l-0.036,0.146l-0.146,0.273l-0.2,0.328l-0.292,0.382l-0.146-0.036l-0.109,0.182l-0.145,0.182l-0.165,0.184
			l-0.218,0.164l-0.036,0.146l-0.146,0.109l-0.254,0.182l-0.165,0.218l-0.037,0.31l0.037,0.146l0.109,0.146l0.201,0.418v-0.146
			l-0.109,0.691l-0.273,0.311l-0.218,0.071l-0.492,0.037l-0.51-0.146l-0.492-0.146l-0.254-0.128l-0.456-0.218v-0.146l-0.892-0.6
			l-0.182-0.256l-0.236-0.182l-0.364-0.346l-0.383-0.255l-0.182-0.254l-0.218-0.165l-0.328-0.109l-0.273,0.037l-0.438,0.273
			l-0.09,0.218l-0.073,0.782l0.418,0.438l0.11,0.418l-0.146,0.419l-0.601,0.219l-0.437,0.072l-0.383-0.034l-0.674-0.255l-0.51-0.201
			l-0.091-0.146l-0.254-0.291l-0.218-0.236l-0.383-0.254l-0.182-0.184l-0.218-0.072l-0.109-0.182l-0.492-0.31l-0.182-0.074h-0.601
			l-0.145-0.072h-0.219l-0.273-0.219l-0.073-0.127l-0.109-0.255l0.109-0.437l0.218-0.273l0.165-0.109l0.291-0.291l0.218-0.347
			l0.11-0.291v-0.146v-0.235l0.126-0.364v-0.329l-0.09-0.198l-0.036-0.475l0.072-0.2l0.091-0.182v-0.292l-0.091-0.183l-0.036-0.454
			l0.036-0.11l0.055-0.182l0.036-0.272l-0.036-1.148l-0.309-0.491v-0.327l0.182-0.236l0.273-0.219l0.145-0.072l0.528-0.073
			l0.583-0.074l0.164,0.037l0.51-0.073l0.145-0.073l0.201-0.035l0.255-0.038h0.455h0.182l0.146-0.035l0.601-0.272l0.183-0.146h0.455
			l0.364-0.254l0.382-0.273l0.292-0.364l0.109-0.564l0.109-0.291v-0.183v-0.164l0.236-0.474l-0.055-0.491l-0.073-0.327l-0.182-0.347
			l-0.602-0.637l-0.254-0.109l-0.219-0.108h-0.345l-0.51-0.292l-0.382-0.11h-0.292l-0.638,0.11l-0.637,0.51l-0.146,0.272v0.364
			v0.383l0.11,0.255l0.182,0.072l0.455-0.145h0.146l0.146,0.072l0.346,0.037l0.473,0.383l0.036,0.145l0.037,0.146l0.036,0.364
			l-0.036,0.6l-0.182,0.347l-0.328,0.327l-0.527,0.256l-0.401,0.072h-0.455l-0.328-0.072l-0.343-0.147l-0.364-0.109l-0.492-0.491
			l-0.218-0.255v-0.219l-0.036-0.146l-0.165-0.073l-0.036-0.419l-0.109-0.418l0.036-0.547l0.036-0.182v-0.273l0.164-0.438
			l0.037-0.31l0.619-0.891l0.091-0.219l0.292-0.236l0.71-0.401l0.254-0.146l0.637-0.182l0.364-0.237l0.637-0.217l0.346-0.384
			l0.036-0.108l0.073-0.256l0.073-0.327l0.456-0.346L195.027,173.465z M196.337,183.04l-0.418,0.272l-0.292,0.182l-0.328,0.074
			h-0.236l-0.327,0.145l-0.236,0.219l-0.183-0.036h-0.219l-0.218,0.2l0.036,0.255l0.036,0.254l0.073,0.346l0.109,1.075l0.036,0.182
			l-0.109,0.274l0.037,0.438l-0.073,1.091v0.401l-0.346,0.346l0.309,0.035l0.218,0.037h0.455l0.219,0.035l0.219-0.035l0.709,0.035
			l0.383,0.074l0.437,0.109l-0.109-0.256l-0.109-0.145l-0.183-2.877l-0.109-0.601l0.145-0.364L196.337,183.04z"/>
		<path d="M211.775,173.682h0.492l0.583,0.237l0.128,0.182l0.254,0.073l0.292,0.11l0.273,0.218l0.219,0.036l0.182,0.072l0.346,0.273
			l0.292,0.256l0.564,0.344l0.601,0.184l1.074,0.108l0.218,0.073l0.037,0.146l0.419,0.146l0.036,0.273l-0.036,0.436l-0.346,0.492
			l-0.219,0.601l-0.109,0.475l-0.037,0.346v0.29v0.456L217,179.727l-0.073,0.601l0.038,0.22l0.035,0.6l-0.036,0.255l-0.273,0.71
			v0.146l-0.037,0.237l0.073,0.182v0.146v0.146l-0.109,0.855l0.109,0.109v0.563l0.092,0.893l0.073,0.346v0.291v0.455v0.146
			l-0.036,0.364v0.346v0.291l0.109,0.347l0.036,0.146l0.219,0.218l0.073,0.146l0.183,0.2l1.129,0.364l0.146,0.383l-0.036,0.4
			l-0.364,0.291l-0.382,0.236l-0.292,0.183l-0.236,0.182l-0.363,0.11l-0.456,0.527l-0.255,0.527l0.037,0.22l0.109,0.291v0.199
			l0.073,0.219l0.073,0.365l-0.073,0.236l-0.219,0.254l-0.363,0.146h-0.419l-0.218-0.109l-0.31-0.183l-0.254-0.11l-0.183-0.072
			l-0.236-0.272l-0.183-0.11l-0.182-0.254l-0.419-0.11l-0.036-0.345l-0.292-0.364l-0.183-0.146l-0.145-0.126l-0.236-0.147
			l-0.328-0.108l-0.219-0.108l-0.346-0.256l-0.109-0.382l0.036-0.291l0.455-0.419l0.183-0.109l0.218-0.364v-0.164l0.037-0.474
			l0.036-0.31l-0.073-0.145v-0.146l-0.036-0.292v-0.383l-0.109-0.819l0.036-0.454l-0.073-0.146l0.036-0.674l-0.036-0.109
			l-0.073-0.219v-0.182l0.073-0.272l0.036-0.146l0.037-0.218l0.036-0.219l0.182-0.128l-0.218-0.036v-0.547l0.036-0.235l0.036-0.51
			l0.036-0.184l-0.036-0.382l0.036-0.183l-0.073-0.273l0.073-0.327l0.036-0.454l-0.036-0.219l0.073-0.292l0.236-1.092l0.073-0.327
			l0.219-0.146l-0.383-0.109l-0.292-0.164l-0.4-0.219l-0.237-0.183l-0.255-0.182h-0.145l-0.31-0.164l-0.473-0.328l-0.383-0.108
			l-0.564-0.074l-0.218,0.109l-0.109,0.255l0.036,0.2l0.182,0.329l0.164,0.217l0.073,0.273l0.036,0.219l0.073,0.473l0.036,0.947
			v0.109l0.036,0.146l-0.036,0.218l0.073,0.273v0.511l-0.036,0.346l-0.146,0.146l-0.237,0.108l0.237,0.146l0.036,0.2l0.146,0.783
			l0.036,0.364l0.036,0.254l0.038,0.273l-0.074,0.254l0.036,0.22l0.036,0.199v0.219l-0.036,0.146l-0.036,0.455v0.254l0.036,0.603
			l-0.182,0.818l-0.109,0.438l-0.201,0.236l-0.072,0.255v0.292l0.2,0.108l0.255,0.055l0.437,0.109l0.273,0.036l0.218,0.072
			l0.346,0.255v0.491l-0.127,0.329l-0.146,0.182l-0.4,0.454l-0.637,0.456l-0.109,0.146l-0.237,0.073l-0.182,0.527l-0.218,0.255
			l0.183,0.327l0.036,0.109l0.146,0.274l-0.036,0.472l-0.219,0.237l-0.71,0.219l-0.255-0.073l-0.383-0.146l-0.218-0.109
			l-0.254-0.346l-0.346-0.218l-0.473-0.311l-0.236-0.363l-0.145-0.109l-0.255-0.108l-0.346-0.273l-0.291-0.146h-0.183l-0.346-0.11
			l-0.145-0.073l-0.182-0.108l-0.183-0.183l-0.073-0.2l0.036-0.438l0.109-0.236l0.328-0.291l0.255-0.146l0.309-0.781l0.037-0.528
			l-0.037-0.255l0.037-0.455l0.109-0.182v-0.219l-0.037-0.182l0.073-0.311l-0.036-0.254v-0.237l0.036-0.146l-0.109-0.327v-0.455
			l0.183-0.473v-0.529c0-0.12-0.012-0.205-0.037-0.254l0.037-0.164v-0.292l-0.109-0.182l0.072-0.383l0.037-0.965v-0.6l-0.037-0.184
			v-0.327l-0.036-0.236l-0.036-0.146l-0.073-0.218v-0.146l0.036-0.146l0.073-0.165l-0.036-0.254l0.036-0.182l-0.182-0.711
			l-1.001-0.036l-0.164-0.036l-0.473-0.346l-0.109-0.437l0.218-0.565l0.219-0.254l0.145-0.035l0.237-0.273l0.218-0.256l0.254-0.291
			l0.346-0.346l-0.036-0.146l0.073-0.108l0.073-0.146v-0.164l-0.036-0.145l-0.037-0.146l-0.074-0.399l0.037-0.346l0.438-0.492
			l0.236-0.074l0.109,0.074l0.673,0.055l0.146,0.035l0.292,0.073l0.273,0.036l0.655,0.255h0.2l0.437,0.292l0.219,0.164l0.273,0.291
			l0.218,0.255l0.182,0.236l0.273,0.254l0.182,0.038l0.492-0.073l0.546-0.493l0.201-0.363l0.036-0.146l-0.164-0.383l0.127-0.437
			L211.775,173.682z"/>
		<path d="M223.026,173.318l0.183,0.036l0.911,0.146l0.145,0.072l0.182-0.036l0.109,0.072l0.219,0.273l0.273-0.2l0.292,0.073
			l1.202,0.201l0.783,0.254l0.254,0.036h0.254l0.237,0.073h0.437h0.455l0.601-0.182l0.329-0.347l0.218-0.254l0.31-0.183l0.51-0.035
			l0.419,0.362l0.073,0.237l0.036,0.782l-0.036,0.145l-0.073,0.256l-0.036,0.219v0.31l0.072,0.146l-0.145,0.563l-0.073,0.183
			L231,176.631l-0.328,0.673l-0.073,0.255l-0.182,0.564l-0.455,0.673l-0.146,0.184l-0.292,0.6l-0.201,0.364l-0.292,0.384
			l-0.345,0.29l-0.183,0.31l-0.219,0.327l-0.218,0.256v0.164l0.146,0.399l0.4-0.071l0.492-0.11l0.328-0.073l0.309-0.072l0.511,0.072
			l0.309,0.184l0.292,0.527v0.474l-0.109,0.273l-0.218,0.327l-0.42,0.219l-0.509,0.108l-0.164,0.092l-0.219,0.036h-0.255
			l-0.637-0.036l-0.218,0.036l-0.273,0.037l-0.254-0.073h-0.328l-0.273-0.037h-0.218h-0.292l-0.746,0.893l-0.074,0.145l-0.237,0.292
			l-0.4,0.601l-0.109,0.219l-0.201,0.346l-0.218,0.255l-0.037,0.145l-0.292,0.564l-0.31,0.419l-0.073,0.329l-0.109,0.326
			l0.254-0.218l0.201-0.074l0.218-0.034h0.637l0.255,0.034l0.109,0.037h0.182l0.455,0.036l0.182,0.036l0.601,0.073l0.292,0.072
			l0.983,0.037l0.364-0.074l0.255-0.035l0.346-0.183l0.145-0.036l0.218-0.108l0.273-0.184l0.292-0.31l0.073-0.182l0.601-0.637
			l0.673-0.291l0.184,0.108l0.182,0.036l0.236,0.291l0.036,0.237v0.654l-0.2,0.456l-0.146,0.327l-0.073,0.237l-0.109,0.291
			l-0.327,0.455l-0.163,0.219l-0.328,0.363l-0.31,0.346l-0.183,0.072l-0.182,0.292l-0.146,0.311l-0.273,0.473l-0.036,0.31
			l0.126,0.073l0.255,0.327l0.073,0.383l-0.109,0.4l-0.419,0.419l-0.291,0.182h-0.528l-0.182-0.072l-0.82-0.036l-0.455-0.146
			l-0.219,0.073l-0.218-0.108l-0.146,0.035l-0.237-0.108l-0.182-0.128l-0.364-0.073l-0.383-0.108l-0.637-0.364l-0.255-0.145
			l-0.182-0.165l-0.528-0.218h-0.109l-0.328-0.183l-0.983-0.146l-0.146,0.109l-0.254,0.146l-0.146,0.218l-0.127,0.273l-0.109,0.364
			l-0.109,0.146l-0.292,0.454l-0.273,0.036l-0.401,0.109l-0.254-0.073l-0.201-0.109l-0.109-0.145l-0.11-0.201l-0.145-0.219
			l-0.036-0.291l0.109-0.746v-0.273l0.146-0.892l0.182-0.511l0.036-0.127l0.31-0.819l0.109-0.146l-0.073-0.182l0.073-0.256
			l0.145-0.127l0.074-0.219l0.146-0.217l0.345-0.419l0.109-0.219l0.364-0.711l0.674-1.073l0.072-0.273l0.128-0.146l0.364-0.364
			l0.255-0.454l0.31-0.291l0.036-0.22l-0.455-0.127l-0.364,0.037l-1.238,0.31l-0.292-0.037l-0.418-0.236l-0.364-0.4l-0.073-0.291
			l0.109-0.493l0.073-0.254l0.146-0.236l0.11-0.073l0.528-0.328l0.255-0.036l0.236-0.073h0.546l0.109-0.035l0.31,0.035h0.109h0.291
			h0.346l0.364,0.073l0.31,0.073l0.218,0.036l0.673,0.073l0.219-0.254l0.073-0.274l0.109-0.145l0.073-0.184l0.237-0.108l0.109-0.31
			l0.145-0.146l0.074-0.255l0.254-0.182l0.273-0.455l0.109-0.219l0.564-0.746l0.292-0.455v-0.183l-0.492,0.109h-0.183l-0.182,0.073
			l-0.219-0.036l-0.455,0.072l-0.564-0.108l-0.71-0.108l-0.363-0.038l-0.383-0.072l-0.437-0.072h-0.382l-0.474,0.109l-0.273,0.182
			l-0.327,0.146l-0.218,0.236l-0.346,0.255l-0.401,0.182l-0.383,0.036l-0.218-0.036l-0.255-0.145l-0.109-0.22l-0.092-0.418
			l0.128-0.711l0.254-0.436l0.328-0.383l0.419-0.438l0.602-0.527l0.254-0.347l0.073-0.183l-0.073-0.29l-0.109-0.383v-0.511
			l0.109-0.2l0.146-0.219l0.419-0.255L223.026,173.318z"/>
		<path d="M239.647,173.465h0.218l0.492,0.108l0.564,0.255l0.673,0.418l0.474,0.419l0.273,0.109l0.219,0.291l0.254,0.037
			l0.109,0.218l0.273,0.201l0.673,0.218l0.183,0.146l0.255,0.072l0.146-0.037h0.236l0.363,0.074l0.347,0.072h0.291l0.219,0.164
			l0.146,0.254v0.292l-0.109,0.346l-0.291,0.329l-0.183,0.563l-0.036,0.182l-0.036,0.255v1.202l-0.091,0.601l0.055,0.254
			l-0.055,0.328l0.091,0.602l-0.036,0.855l0.036,0.236v0.929l-0.128,0.291l0.037,0.746v0.347l0.055,0.183l0.183,0.182l0.036,0.146
			v0.492l-0.036,0.438l0.072,0.235l0.073,0.183v0.455l0.036,0.254l0.036,0.71l0.109,0.183l0.219,0.073h0.164l0.182,0.036h0.183
			h0.255l0.383,0.31v0.51l-0.037,0.146l-0.146,0.273l-0.2,0.328l-0.291,0.382l-0.146-0.036l-0.109,0.182l-0.146,0.182l-0.165,0.184
			l-0.217,0.164l-0.037,0.146l-0.146,0.109l-0.254,0.182l-0.165,0.218l-0.035,0.31l0.035,0.146l0.109,0.146l0.2,0.418v-0.146
			l-0.109,0.691l-0.272,0.311l-0.219,0.071l-0.492,0.037l-0.51-0.146l-0.491-0.146l-0.255-0.128l-0.455-0.218v-0.146l-0.892-0.6
			l-0.182-0.256l-0.237-0.182l-0.364-0.346l-0.382-0.255l-0.183-0.254l-0.219-0.165l-0.327-0.109l-0.273,0.037l-0.437,0.273
			l-0.092,0.218l-0.072,0.782l0.418,0.438l0.109,0.418l-0.146,0.419l-0.601,0.219l-0.438,0.072l-0.383-0.034l-0.672-0.255
			l-0.511-0.201l-0.091-0.146l-0.255-0.291l-0.218-0.236l-0.384-0.254l-0.182-0.184l-0.219-0.072l-0.109-0.182l-0.491-0.31
			l-0.183-0.074h-0.601l-0.146-0.072h-0.219l-0.273-0.219l-0.073-0.127l-0.108-0.255l0.108-0.437l0.219-0.273l0.164-0.109
			l0.292-0.291l0.218-0.347l0.109-0.291v-0.146v-0.235l0.128-0.364v-0.329l-0.091-0.198l-0.037-0.475l0.073-0.2l0.091-0.182v-0.292
			l-0.091-0.183l-0.036-0.454l0.036-0.11l0.055-0.182l0.036-0.272l-0.036-1.148l-0.31-0.491v-0.327l0.182-0.236l0.273-0.219
			l0.146-0.072l0.528-0.073l0.582-0.074l0.164,0.037l0.51-0.073l0.146-0.073l0.2-0.035l0.255-0.038h0.455h0.182l0.146-0.035
			l0.601-0.272l0.182-0.146h0.455l0.364-0.254l0.383-0.273l0.291-0.364l0.109-0.564l0.108-0.291v-0.183v-0.164l0.237-0.474
			l-0.055-0.491l-0.072-0.327l-0.183-0.347l-0.601-0.637l-0.255-0.109l-0.219-0.108h-0.346l-0.51-0.292l-0.382-0.11h-0.29
			l-0.638,0.11l-0.638,0.51l-0.145,0.272v0.364v0.383l0.109,0.255l0.182,0.072l0.455-0.145h0.146l0.146,0.072l0.346,0.037
			l0.473,0.383l0.037,0.145l0.036,0.146l0.036,0.364l-0.036,0.6l-0.183,0.347l-0.328,0.327l-0.527,0.256l-0.4,0.072h-0.456
			l-0.327-0.072l-0.345-0.147l-0.364-0.109l-0.491-0.491l-0.219-0.255v-0.219l-0.036-0.146l-0.165-0.073l-0.035-0.419l-0.11-0.418
			l0.036-0.547l0.037-0.182v-0.273l0.164-0.438l0.036-0.31l0.619-0.891l0.091-0.219l0.292-0.236l0.71-0.401l0.254-0.146l0.638-0.182
			l0.364-0.237l0.637-0.217l0.346-0.384l0.037-0.108l0.072-0.256l0.073-0.327l0.455-0.346L239.647,173.465z M240.958,183.04
			l-0.419,0.272l-0.291,0.182l-0.328,0.074h-0.236l-0.327,0.145l-0.237,0.219l-0.182-0.036h-0.219l-0.219,0.2l0.036,0.255
			l0.037,0.254l0.072,0.346l0.109,1.075l0.036,0.182l-0.109,0.274l0.037,0.438l-0.074,1.091v0.401l-0.345,0.346l0.31,0.035
			l0.218,0.037h0.455l0.219,0.035l0.218-0.035l0.711,0.035l0.383,0.074l0.437,0.109l-0.109-0.256l-0.109-0.145l-0.182-2.877
			l-0.11-0.601l0.146-0.364L240.958,183.04z"/>
		<path d="M256.396,173.682h0.492l0.582,0.237l0.128,0.182l0.255,0.073l0.291,0.11l0.273,0.218l0.218,0.036l0.183,0.072l0.346,0.273
			l0.291,0.256l0.564,0.344l0.601,0.184l1.075,0.108l0.218,0.073l0.036,0.146l0.419,0.146l0.036,0.273l-0.036,0.436l-0.346,0.492
			l-0.219,0.601l-0.108,0.475l-0.037,0.346v0.29v0.456l-0.036,0.218l-0.073,0.601l0.037,0.22l0.035,0.6l-0.036,0.255l-0.273,0.71
			v0.146l-0.036,0.237l0.073,0.182v0.146v0.146l-0.109,0.855l0.109,0.109v0.563l0.091,0.893l0.073,0.346v0.291v0.455v0.146
			l-0.036,0.364v0.346v0.291l0.109,0.347l0.035,0.146l0.219,0.218l0.073,0.146l0.182,0.2l1.13,0.364l0.145,0.383l-0.035,0.4
			l-0.364,0.291l-0.383,0.236l-0.291,0.183l-0.237,0.182l-0.363,0.11l-0.455,0.527l-0.255,0.527l0.036,0.22l0.109,0.291v0.199
			l0.073,0.219l0.073,0.365l-0.073,0.236l-0.219,0.254l-0.363,0.146h-0.419l-0.219-0.109l-0.31-0.183l-0.254-0.11l-0.183-0.072
			l-0.237-0.272l-0.182-0.11l-0.183-0.254l-0.419-0.11l-0.036-0.345l-0.291-0.364l-0.183-0.146l-0.146-0.126l-0.235-0.147
			l-0.328-0.108l-0.218-0.108l-0.349-0.254l-0.108-0.383l0.035-0.292l0.455-0.419l0.183-0.109l0.219-0.363v-0.164l0.036-0.474
			l0.036-0.309l-0.072-0.146v-0.146l-0.037-0.291v-0.382l-0.109-0.82l0.037-0.454l-0.074-0.146l0.037-0.674l-0.037-0.11
			l-0.072-0.218v-0.182l0.072-0.272l0.037-0.146l0.036-0.218l0.036-0.22l0.183-0.127l-0.219-0.036v-0.547l0.036-0.235l0.036-0.51
			l0.036-0.183l-0.036-0.383l0.036-0.182l-0.072-0.273l0.072-0.328l0.036-0.455l-0.036-0.219l0.073-0.291l0.236-1.092l0.073-0.327
			l0.219-0.146l-0.383-0.109l-0.291-0.164l-0.401-0.218l-0.236-0.182l-0.254-0.183h-0.146l-0.31-0.165l-0.473-0.327l-0.383-0.109
			l-0.563-0.073l-0.219,0.109l-0.109,0.255l0.036,0.2l0.182,0.329l0.165,0.218l0.072,0.272l0.036,0.219l0.073,0.474l0.036,0.946
			v0.11l0.036,0.144l-0.036,0.219l0.073,0.273v0.51l-0.036,0.346l-0.146,0.146l-0.236,0.108l0.236,0.146l0.036,0.2l0.146,0.783
			l0.036,0.363l0.036,0.255l0.036,0.273l-0.073,0.254l0.036,0.219l0.037,0.2v0.219l-0.037,0.146l-0.036,0.456v0.254l0.036,0.601
			l-0.182,0.819l-0.108,0.438l-0.201,0.236l-0.073,0.255v0.291l0.201,0.109l0.254,0.055l0.437,0.109l0.274,0.037l0.218,0.071
			l0.346,0.255v0.492l-0.127,0.328l-0.146,0.182l-0.4,0.455l-0.638,0.455l-0.109,0.146l-0.236,0.072l-0.183,0.527l-0.218,0.256
			l0.182,0.327l0.036,0.11l0.146,0.273l-0.035,0.472l-0.219,0.236l-0.711,0.22l-0.254-0.073l-0.383-0.146l-0.219-0.108l-0.254-0.346
			l-0.347-0.219l-0.473-0.309l-0.237-0.364l-0.145-0.109l-0.255-0.109l-0.347-0.273l-0.291-0.145h-0.182l-0.347-0.109l-0.145-0.074
			l-0.183-0.108l-0.182-0.183l-0.074-0.201l0.037-0.436l0.109-0.237l0.327-0.291l0.255-0.146l0.31-0.781l0.036-0.527l-0.036-0.256
			l0.036-0.455l0.109-0.183v-0.218l-0.036-0.182l0.073-0.312l-0.037-0.254v-0.235l0.037-0.147l-0.109-0.326v-0.455l0.182-0.473
			v-0.529c0-0.12-0.012-0.205-0.036-0.254l0.036-0.165v-0.29l-0.109-0.183l0.073-0.382l0.036-0.965v-0.602l-0.036-0.183v-0.327
			l-0.036-0.236l-0.036-0.146l-0.073-0.218v-0.146l0.037-0.145l0.072-0.165l-0.036-0.254l0.036-0.182l-0.183-0.711l-1.001-0.035
			l-0.163-0.037l-0.474-0.346l-0.109-0.438l0.219-0.563l0.218-0.255l0.146-0.035l0.236-0.273l0.219-0.256l0.254-0.291l0.346-0.346
			l-0.036-0.146l0.074-0.109l0.071-0.145v-0.165l-0.036-0.146l-0.035-0.146l-0.073-0.4l0.036-0.346l0.437-0.492l0.237-0.073
			l0.108,0.073l0.674,0.056l0.146,0.036l0.291,0.073l0.273,0.035l0.656,0.255h0.199l0.438,0.291l0.219,0.165l0.272,0.291
			l0.219,0.255l0.182,0.237l0.273,0.254l0.183,0.036l0.491-0.072l0.546-0.493l0.201-0.362l0.036-0.146l-0.164-0.383l0.127-0.436
			L256.396,173.682z"/>
		<path d="M266.756,173.608l0.382,0.038l0.328,0.035l0.109,0.146h0.182l0.311,0.2l0.291,0.327l0.183,0.073l0.164,0.074l0.183,0.199
			l0.472,0.293l0.273,0.254l0.328,0.454l0.255,0.184l0.235,0.035l0.401,0.036l0.2,0.073l0.292,0.201l0.254,0.326v0.109l-0.182,0.456
			l-0.291,0.51l-0.2,0.073l-0.219,0.09l-0.109,0.364l-0.108,0.674v0.109v0.218l-0.038,0.601l-0.072,0.893l0.036,0.527v0.22v0.418
			l-0.036,0.292l-0.036,0.346l-0.127,0.146l-0.145,0.511v0.199l0.199,0.364l0.146,0.073l0.146,0.346v0.547l-0.037,0.563
			l-0.309,0.182l0.346,0.237l-0.037,0.255l-0.035,0.291l0.072,0.273l0.036,1.456l0.073,0.474l0.072,0.182l0.11,0.165l0.31,0.145
			l0.255,0.073l0.255,0.146l0.2,0.183l0.145,0.163l-0.036,0.22l-0.108,0.218l-0.31,0.492l-0.328,0.182l-0.383,0.328l-0.437,0.382
			l-0.383,0.602l-0.072,0.145l-0.037,0.219l0.109,0.311l0.109,0.254v0.292l-0.109,0.272l-0.4,0.328l-0.637-0.072l-0.347-0.146
			l-0.291-0.109l-0.183-0.163l-0.419-0.329l-0.363-0.418l-0.183-0.036l-0.563-0.473l-0.492-0.237l-0.746-0.291l-0.183-0.036
			l-0.219-0.037l-0.236-0.108l-0.072-0.22l-0.146-0.163l-0.072-0.255l0.072-0.455l0.273-0.218l0.328-0.292l0.255-0.31l0.035-0.255
			l0.165-0.4l0.073-0.164l0.035-0.255l-0.035-0.254l0.108-0.419l-0.108-0.437l0.108-0.456v-0.746l0.036-0.455l-0.072-0.328
			l0.109-0.254l0.073-0.31v-0.473v-0.747v-0.383l-0.073-0.218l-0.146-0.419l0.037-0.219l0.146-0.254l-0.036-0.603l0.073-0.362
			l-0.037-0.201l-0.109-0.437l0.036-0.199l-0.036-0.584l-0.108-0.491l-0.128-0.254l-0.109-0.146h-0.291l-0.219-0.092l-0.164-0.145
			l-0.146-0.109l-0.073-0.327l0.073-0.528l0.273-0.255l0.219-0.272l0.145-0.073l0.383-0.329l0.255-0.309l0.073-0.219l0.183-0.219
			l0.199-0.146l0.037-0.164l-0.037-0.509l-0.163-0.492v-0.183l0.163-0.218l0.292-0.237L266.756,173.608z M267.574,166.746
			l0.419,0.036h0.183l0.29,0.237l0.11,0.182l0.128,0.035l0.254,0.256l0.473,0.527l0.165,0.219l0.108,0.146h0.146l0.455,0.383
			l0.182,0.073l0.291,0.327l0.311,0.419l-0.128,0.673l-0.783,0.528l-0.327-0.2l-0.145,0.146l-0.037,0.163v0.183l-0.109,0.146
			l-0.072,0.217l0.072,0.493l-0.035,0.219l-0.165,0.108l-0.146,0.272l-0.437,0.183h-0.383l-0.4-0.254l-0.237-0.073l-0.291-0.236
			l-0.218-0.291l-0.165-0.255l-0.182-0.165l0.036-0.182l-0.109-0.218l-0.602-0.146l-0.145-0.108l-0.22-0.165l-0.345-0.437
			l-0.073-0.491l0.31-0.528l0.51-0.364l0.564-0.327l0.31-0.237v-0.965l0.183-0.291L267.574,166.746z"/>
		<path d="M280.301,166.818l0.145,0.092l0.437-0.055l0.273,0.055l0.329,0.146l0.309,0.291l0.036,0.292l0.036,0.2v0.183l-0.145,0.326
			l-0.528,0.311l-0.183,0.036l-0.272,0.073l-0.402,0.183l-0.182,0.182l-0.163,0.2l-0.293,0.674l-0.072,0.145v0.146l-0.036,0.256
			l-0.036,0.637v0.419l-0.109,2.457l-0.091,1.075l-0.037,0.182l-0.073,0.272l0.165,0.292l-0.055,0.292l0.2,0.164v0.254l0.036,0.292
			l-0.073,0.273v0.4l-0.109,0.237l-0.127,0.437v0.218l0.073,0.201v0.145l-0.073,0.256l0.2,0.601v0.491l0.036,0.364v0.855
			l-0.109,0.109l-0.091,0.2v0.363l0.037,0.42l-0.037,0.29l-0.146,0.364l0.273,0.037l0.072,0.236v0.255v0.492l0.073,0.254
			l-0.035,0.183v0.745l0.035,0.346l-0.073,0.292l-0.108,0.329l0.073,0.272l0.108,0.399v0.31l0.074,0.219l0.034,0.183l0.038,0.347
			l0.108,0.291l0.073,0.254l0.236,0.128l0.819,0.218l0.364,0.328l0.036,0.146v0.383l-0.254,0.4l-0.528,0.454l-0.256,0.184
			l-0.109,0.272l-0.418,0.073l-0.183,0.146l-0.454,0.527l-0.11,0.255l0.22,0.492l0.2,0.182l0.073,0.364l-0.201,0.491l-0.292,0.292
			l-0.254,0.035l-0.346-0.073l-0.146-0.108h-0.182l-0.109-0.073l-0.347-0.183l-0.254-0.309l-0.292-0.183l-0.382-0.219l-0.146-0.182
			l-0.146-0.201l-0.109-0.036l-0.419-0.291l-0.528-0.218l-0.4-0.2l-0.31-0.11l-0.291-0.146L274,191.179l-0.127-0.109l-0.073-0.2
			l-0.073-0.364l0.183-0.383l0.201-0.182l0.145-0.073l0.364-0.182l0.273-0.528v-0.782l0.109-0.219l-0.109-0.183l-0.036-0.236
			l-0.036-0.183l0.109-0.182l0.072-0.602v-0.254l-0.072-0.455l0.183-0.11v-0.254l0.035-0.273l0.036-0.401l0.073-0.218l-0.073-0.201
			l-0.145-0.072v-0.437l-0.183-0.564l0.036-0.456l0.109-0.327l0.072-0.6l-0.035-0.22l0.073-0.818l0.035-0.419v-0.183l-0.108-0.327
			l0.073-0.2l-0.073-0.146l-0.073-0.965l0.036-0.638v-0.438v-0.273l0.035-0.291l0.146-0.346l0.218-0.219l-0.218-0.292l-0.183-0.527
			l-0.036-0.291l0.036-0.164l-0.036-0.145l0.072-0.184l-0.035-0.527l-0.036-0.619l-0.036-0.419l-0.073-2.385l-0.109-0.527
			l-0.055-0.364l-0.035-0.383l-0.512-0.582l-0.236-0.164l-0.219-0.328l-0.072-0.383l0.183-0.327l0.31-0.219l0.582-0.036l0.602,0.072
			l0.309,0.074l0.401,0.108h0.146l0.673,0.419l0.347,0.256l0.218,0.218l0.4,0.419l0.2,0.182l0.219-0.073l0.073-0.183l-0.146-0.235
			l0.364-0.929l0.2-0.219l0.473-0.674l0.528-0.218l0.328-0.164L280.301,166.818z"/>
		<path d="M289.439,166.818l0.146,0.092l0.437-0.055l0.272,0.055l0.328,0.146l0.31,0.291l0.036,0.292l0.037,0.2v0.183l-0.146,0.326
			l-0.528,0.311l-0.183,0.036l-0.273,0.073l-0.4,0.183l-0.182,0.182l-0.164,0.2l-0.292,0.674l-0.073,0.145v0.146l-0.036,0.256
			l-0.036,0.637v0.419l-0.109,2.457l-0.09,1.075l-0.038,0.182l-0.072,0.272l0.164,0.292l-0.054,0.292l0.199,0.164v0.254l0.036,0.292
			l-0.073,0.273v0.4l-0.109,0.237l-0.127,0.437v0.218l0.074,0.201v0.145l-0.074,0.256l0.201,0.601v0.491l0.035,0.364v0.855
			l-0.109,0.109l-0.091,0.2v0.363l0.036,0.42l-0.036,0.29l-0.145,0.364l0.272,0.037l0.073,0.236v0.255v0.492l0.072,0.254
			l-0.035,0.183v0.745l0.035,0.346l-0.072,0.292l-0.109,0.329l0.073,0.272l0.108,0.399v0.31l0.073,0.219l0.037,0.183l0.035,0.347
			l0.109,0.291l0.073,0.254l0.237,0.128l0.819,0.218l0.363,0.328l0.036,0.146v0.383l-0.254,0.4l-0.528,0.454l-0.255,0.184
			l-0.109,0.272l-0.418,0.073l-0.183,0.146l-0.454,0.527l-0.11,0.255l0.219,0.492l0.2,0.182l0.073,0.364l-0.2,0.491l-0.292,0.292
			l-0.255,0.035l-0.346-0.073l-0.146-0.108h-0.182l-0.109-0.073l-0.346-0.183l-0.255-0.309l-0.291-0.183l-0.383-0.219l-0.146-0.182
			l-0.146-0.201l-0.109-0.036l-0.419-0.291l-0.528-0.218l-0.4-0.2l-0.31-0.11l-0.292-0.146l-0.399-0.218l-0.128-0.109l-0.072-0.2
			l-0.073-0.364l0.183-0.383l0.2-0.182l0.146-0.073l0.364-0.182l0.273-0.528v-0.782l0.108-0.219l-0.108-0.183l-0.038-0.236
			l-0.035-0.183l0.108-0.182l0.073-0.602v-0.254l-0.073-0.455l0.184-0.11v-0.254l0.035-0.273l0.036-0.401l0.073-0.218l-0.073-0.201
			l-0.146-0.072v-0.437l-0.183-0.564l0.038-0.456l0.108-0.327l0.073-0.6l-0.037-0.22l0.074-0.818l0.035-0.419v-0.183l-0.109-0.327
			l0.074-0.2l-0.074-0.146l-0.072-0.965l0.036-0.638v-0.438v-0.273l0.036-0.291l0.146-0.346l0.219-0.219l-0.219-0.292l-0.183-0.527
			l-0.036-0.291l0.036-0.164l-0.036-0.145l0.073-0.184l-0.036-0.527l-0.036-0.619l-0.037-0.419l-0.073-2.385l-0.108-0.527
			l-0.055-0.364l-0.035-0.383l-0.511-0.582l-0.236-0.164l-0.219-0.328l-0.072-0.383l0.182-0.327l0.31-0.219l0.582-0.036l0.602,0.072
			l0.31,0.074l0.4,0.108h0.146l0.673,0.419l0.347,0.256l0.218,0.218l0.4,0.419l0.2,0.182l0.22-0.073l0.072-0.183l-0.145-0.235
			l0.363-0.929l0.199-0.219l0.475-0.674l0.527-0.218l0.328-0.164L289.439,166.818z"/>
		<path d="M298.269,173.465h0.2l0.4,0.035l0.855,0.419l0.182,0.291l0.347,0.109l1.183,0.892l0.311,0.146l0.546,0.309l0.164,0.073
			l0.219,0.073l0.218,0.073l0.528,0.219l0.455,0.127l0.582,0.4l0.073,0.419l-0.036,0.219l-0.11,0.219l-0.108,0.145l-0.109,0.527
			l0.036,0.22v0.235l-0.146,0.51l-0.073,0.492l0.11,0.565l-0.11,0.399v0.183l0.037,0.236l-0.037,0.183v0.491l-0.072,0.182v0.329
			l0.036,0.236l-0.036,0.437v0.292l0.072,0.163l0.037,0.292l-0.037,0.219l-0.072,0.345l0.109,0.401v0.31l-0.037,0.182l-0.108,0.71
			l-0.091,0.146l0.163,0.108l-0.072,0.146l0.146,0.947l0.073,0.511l-0.073,0.108l0.036,0.236l-0.036,0.183l0.109,0.327l0.327,0.109
			l0.311,0.419v0.146l-0.165,0.272l-0.146,0.219l-0.146,0.071l-0.491,0.11l-0.146,0.073l-0.182,0.108h-0.255l-0.273,0.037
			l-0.254,0.108l-0.292,0.092l-0.71,0.327l-0.383,0.108l-0.674,0.256l-0.145,0.092l-0.82,0.363l-0.29,0.255l-0.146,0.236
			l0.036,0.292l0.183,0.346l0.073,0.437l-0.146,0.292l-0.638,0.418l-0.455-0.036l-0.182-0.073l-0.146-0.035l-0.109-0.11
			l-0.492-0.309l-0.4-0.073l-0.073-0.146l-0.31-0.036l-0.145-0.073l-0.146-0.109l-0.273-0.108l-0.146-0.165l-0.601-0.327
			l-0.473-0.419l-0.965-0.437l-0.273-0.109l-0.219-0.11l-0.182-0.091h-0.146l-0.455-0.219l-0.256-0.073l-0.235-0.326l0.108-0.383
			l0.455-0.528l0.073-0.219l0.146-0.327l0.109-0.419l0.055-0.437l0.036-0.109l0.109-0.838l0.036-0.855l0.182-0.146l-0.218-0.219
			v-0.527v-0.474v-0.164l-0.036-0.219l0.073-0.327l-0.037-0.2l-0.036-0.51l0.146-0.492v-0.219l-0.146-0.254l0.036-0.236l0.109-0.364
			l-0.146-0.146l-0.036-0.346v-0.146v-0.346l0.073-0.182l-0.073-0.22l-0.036-0.254l0.036-0.564l-0.036-0.291l-0.036-0.637
			l-0.2-0.493l-0.22-0.146l-0.217-0.254l-0.073-0.311l0.036-0.108l0.108-0.183l0.074-0.145l0.436-0.2l0.384-0.109l0.326-0.037
			l0.493-0.109l0.218-0.035l0.491-0.146l0.492-0.182l0.819-0.237l0.327-0.292l0.455-0.254l0.329-0.31l0.183-0.328l0.072-0.237
			l-0.037-0.4l0.037-0.146l0.163-0.273l0.292-0.218L298.269,173.465z M297.449,177.305l-0.291,0.11v0.218l0.036,0.164l0.146,0.291
			v0.71l0.036,0.674v0.473l0.036,0.165v0.109v0.182v0.364v0.2v0.182l-0.036,0.292l0.073,0.236v0.582l0.036,0.237l0.036,0.292
			l-0.073,0.327l-0.073,0.383l0.256,0.564v0.145l-0.184,0.473l0.037,0.274l-0.037,0.29l-0.108,0.311l0.073,0.146l-0.073,0.364
			l-0.073,0.71l-0.073,0.455l-0.146,0.327l-0.2,0.419l-0.073,0.183l0.164,0.182l0.547,0.219l0.236,0.036h0.146l0.473,0.128h0.347
			l0.182,0.036l0.746,0.145h0.219l0.382-0.036l0.073-0.273v-0.146l-0.418-0.473l-0.219-0.382l-0.109-0.71l0.036-0.256l0.073-0.929
			l0.035-0.383v-0.218l-0.035-0.108l0.035-0.346l-0.07-0.182l0.036-0.639l0.255-0.254l0.037-0.146l-0.219-0.419l0.036-0.328
			l0.183-0.419l-0.256-0.291v-0.182l-0.072-0.456v-0.711l-0.072-0.29l0.072-0.346v-0.402l0.074-0.254l-0.037-0.346l0.073-0.292
			l0.146-0.309v-0.291l-0.546,0.146l-0.237-0.073l-0.255-0.072l-0.29-0.183l-0.273-0.201l-0.22-0.219l-0.491-0.146L297.449,177.305z
			"/>
	</g>
	<text transform="matrix(1 0 0 1 169.1934 165.124)" font-family="'BlackmoorLetPlain'" font-size="28.2877">Welcome to </text>
	<path d="M296.582,150.154l1.659,3.365l3.792,0.579l-2.78,2.574l0.605,3.685l-3.377-1.773l-3.419,1.698l0.692-3.671l-2.719-2.636
		l3.806-0.493L296.582,150.154z"/>
	<path d="M159.923,150.154l1.659,3.365l3.792,0.579l-2.781,2.574l0.605,3.685l-3.376-1.773l-3.42,1.699l0.694-3.672l-2.718-2.635
		l3.805-0.494L159.923,150.154z"/>
</g>
<g>
	<path fill="#FFFFFF" d="M67.18,88.707c2.048,3.371,2.752,5.852,1.215,7.287l-2.125,1.791l2.539,4.176l30.956-18.776l-9.131-15.023
		l-4.621,2.802l2.45,4.031c2.139,3.518,1.328,6.316-3.806,9.43c-5.356,3.249-7.808,1.527-10.347-2.65L60.057,58.322
		c-2.092-3.444-2.504-6.103-1.216-7.286l2.125-1.791l-2.539-4.177L40.75,55.791l2.539,4.178l2.569-1.057
		c1.646-0.597,3.817,0.995,5.911,4.439L67.18,88.707z"/>
	<path fill="#FFFFFF" d="M132.803,48.355l-5.834-14.658c-4.044-9.928-13.706-15.408-23.674-11.448
		c-9.968,3.96-13.082,15.161-9.341,24.563l5.978,15.248c4.232,10.867,13.786,15.375,23.754,11.416
		C133.732,69.484,136.878,58.361,132.803,48.355z M121.656,68.377c-4.786,1.9-7.692-2.85-10.007-8.665l-8.436-21.192
		c-1.775-4.46-2.643-9.191,2.143-11.092c4.704-1.869,7.406,2.132,9.182,6.594l8.434,21.191
		C125.128,60.63,126.36,66.508,121.656,68.377z"/>
	<path fill="#FFFFFF" d="M179.715,28.177l-4.974-24.976l-5.724,1.139c0.434,2.187,0.03,2.791-0.813,2.958
		c-1.009,0.201-2.828-0.138-4.324-0.627c-2.407-0.657-4.696-0.728-7.136-0.243c-10.607,2.109-15.382,13.724-13.624,22.553
		l2.779,13.96c2.044,10.26,9.238,20.021,22.538,17.376c12.205-2.425,15.212-12.378,13.42-21.376l-8.671,1.724
		c1.859,9.334-0.519,13.217-5.57,14.22c-4.965,0.987-8.208-3.439-9.532-10.083l-4.455-22.369c-0.938-4.71-0.849-9.536,4.202-10.539
		c6.566-1.306,11.554,9.68,13.212,18.005L179.715,28.177z"/>
	<path fill="#FFFFFF" d="M233.874,49.971l-2.416-0.908c-1.467-0.494-2.961-2.958-4.594-8.937l-10.7-39.028l-7.979,0.116
		l-9.335,36.578c-2.273,8.865-3.694,11.458-5.831,12.175l-1.877,0.627l0.07,4.886l18.192-0.265l-0.071-4.887l-2.24-0.567
		c-1.897-0.659-3.24-4.327-2.026-9.403l0.649-2.582l10.383-0.152l0.639,2.563c1.469,6.496,0.471,8.739-1.751,9.457l-2.222,0.633
		l0.073,4.886l21.108-0.309L233.874,49.971z M207.577,30.118l3.413-13.168l0.344-0.004l3.024,13.074L207.577,30.118z"/>
	<path fill="#FFFFFF" d="M240.67,23.117l5.009,0.744l0.705-4.75c0.745-5.004,2.838-10.327,6.487-9.786
		c3.228,0.479,2.823,5.534,2.344,8.757l-4.037,27.139c-0.58,3.901-1.625,6.261-3.811,6.369l-2.78,0.021l-0.719,4.834l20.545,3.049
		l0.718-4.833l-2.567-0.815c-2.144-0.752-2.458-3.312-1.878-7.213l4.037-27.139c0.479-3.223,1.562-8.177,4.789-7.697
		c3.651,0.542,4.104,6.243,3.36,11.247l-0.707,4.75l5.008,0.743l3.167-21.287L243.836,1.83L240.67,23.117z"/>
	<path fill="#FFFFFF" d="M288.23,52.818c-1.137,3.777-2.511,5.96-4.605,5.778l-2.754-0.379l-1.409,4.68l19.889,5.973l1.407-4.68
		l-2.505-1.2c-1.932-1.028-1.871-3.607-0.735-7.382l8.549-28.408c1.159-3.859,2.863-5.944,4.606-5.779l2.753,0.38l1.409-4.681
		l-19.809-5.948l-1.408,4.679l2.508,1.201c1.544,0.822,1.813,3.5,0.653,7.358L288.23,52.818z"/>
	<path fill="#FFFFFF" d="M347.185,29.678c-9.708-4.563-20.021,0.822-24.334,9.977l-7.058,14.782
		c-5.048,10.515-1.812,20.564,7.895,25.126c9.786,4.601,20.063-0.708,24.589-10.52l6.725-14.275
		C359.49,45.033,356.891,34.241,347.185,29.678z M346.267,45.924l-9.721,20.636c-2.484,5.276-5.938,10.191-10.521,8.038
		c-4.66-2.192-3.174-7.558-0.508-13.222l9.721-20.636c2.047-4.345,4.911-8.21,9.57-6.019
		C349.391,36.875,348.312,41.58,346.267,45.924z"/>
	<path fill="#FFFFFF" d="M380.932,63.312l0.14,0.1l-12.414,42.686l8.062,5.836l24.576-33.88c2.367-3.265,4.662-4.673,6.323-3.895
		l2.405,1.212l2.871-3.957l-13.344-9.66l-2.869,3.958l1.971,1.958c1.189,1.283,0.562,3.9-1.805,7.164l-10.93,15.065l-0.068-0.05
		l8.905-31.567l-15.567-11.27l-2.869,3.958l1.972,1.958c1.188,1.284,0.562,3.901-1.806,7.163l-17.424,24.023
		c-2.317,3.194-4.333,4.805-6.254,3.944l-2.475-1.263l-2.871,3.958l12.718,9.206l2.87-3.958l-1.276-1.453
		c-1.435-1.675-0.582-4.02,1.735-7.214L380.932,63.312z"/>
</g>
<g>
	<path fill="#000100" d="M79.737,83.18c1.225,1.974,3.004,1.579,4.173,0.854c1.39-0.862,1.616-3.432-0.061-6.137l-2.54-4.093
		l7.09-4.398l10.062,3.982l10.111,16.301l-34.137,21.173l-8.487-3.239l-4.171-6.725l2.58-2.207c1.208-1.154,0.45-3.518-1.138-6.077
		l-15.46-24.927c-2.085-3.362-3.744-3.751-5.224-3.036l-2.611,1.013l-4.171-6.726l20.249-12.559l9.852,3.808l3.582,5.775
		l-2.039,1.771c-1.226,0.963-1.442,3.223,1.006,7.17L79.737,83.18z M64.689,92.21c2.085,3.362,2.815,5.845,1.287,7.299l-2.112,1.816
		l2.584,4.167l30.847-19.134l-9.294-14.986l-4.605,2.856l2.494,4.021c2.176,3.509,1.392,6.323-3.726,9.497
		c-5.336,3.31-7.811,1.605-10.396-2.561L57.262,61.795c-2.131-3.436-2.569-6.099-1.288-7.298l2.112-1.817l-2.584-4.167L37.885,59.44
		l2.584,4.167l2.565-1.086c1.644-0.615,3.836,0.961,5.967,4.396L64.689,92.21z M50.317,66.102c-3.446-5.555-5.842-5.992-7.34-5.468
		l-2.082,0.886l-0.998-1.608l15.131-9.385l0.997,1.607l-1.719,1.472c-1.135,1.109-1.808,3.45,1.638,9.005l7.345,11.842
		c-1.094-0.132-2.117,0.503-2.705,1.677c1.028,0.678,2.784,1.715,4.561,2.131c0.4,3.092,1.681,6.954,5.023,13.484
		c-4.366-5.896-7.255-8.76-9.848-10.492c0.417-1.777,0.269-3.811,0.044-4.988c-1.386,0.051-2.336,0.64-2.705,1.678L50.317,66.102z
		 M60.541,76.057c-1.148-2.83-1.251-4.791-0.835-6.567c-2.185-1.074-4.621-3.207-8.533-8.372c2.889,5.8,3.717,8.93,3.708,11.364
		c1.777,0.417,3.488,1.38,5.44,3.711L60.541,76.057z"/>
	<path fill="#000100" d="M138.867,51.961c6.25,15.288,1.062,26.237-10.006,30.762c-11.385,4.655-25.744,0.675-32.874-16.762
		l-6.25-15.288c-4.882-11.943,0.624-23.023,9.94-26.832c15.208-6.218,29.261,3.835,33.2,13.47L138.867,51.961z M124.069,36.451
		c-4.148-9.92-13.886-15.326-23.839-11.256c-9.953,4.069-12.966,15.337-9.125,24.733l6.138,15.24
		c4.348,10.861,13.965,15.292,23.918,11.224c10.032-4.101,13.079-15.291,8.897-25.29L124.069,36.451z M103.189,52.887
		c-0.898-0.377-2.49,0.274-3.822,1.562c0.821,0.872,2.428,2.074,4.063,2.892c-0.04,3.083,0.657,8.653,3.905,13.644
		c-4.381-4.807-7.417-9.049-9.081-11.528c0.594-1.73,0.739-3.647,0.873-4.911c-1.772-0.018-3.444,0.665-3.9,1.595l-2.767-6.767
		c-3.321-8.122-1.39-18.855,8.325-22.826c9.634-3.938,18.532,2.367,21.852,10.489l2.767,6.767c-0.978-0.343-2.569,0.308-3.902,1.596
		c0.98,0.808,2.428,2.074,4.063,2.893c0.727,3.141,1.88,7.781,1.676,14.555c-1.787-5.961-4.583-10.3-6.852-12.44
		c0.673-1.762,0.899-3.712,0.874-4.91c-1.853,0.013-3.445,0.665-3.822,1.562l-4.394-10.749c-3.158-7.724-7.226-9.034-11.286-7.374
		c-4.14,1.692-6.125,5.477-2.967,13.201L103.189,52.887z M99.301,54.29c-0.741-2.95-0.403-4.853,0.19-6.583
		c-2.702-2.52-4.037-5.784-5.158-10.344c-0.667,4.733-0.592,8.327-0.018,12.46c1.636,0.818,3.13,1.973,4.747,4.564L99.301,54.29z
		 M100.307,41.52c-1.823-4.459-2.737-9.196,2.04-11.149c4.698-1.921,7.443,2.067,9.267,6.526l8.659,21.181
		c2.213,5.413,3.504,11.298-1.194,13.219c-4.777,1.953-7.737-2.785-10.113-8.598L100.307,41.52z M111.399,40.237
		c-1.302-3.185-2.374-5.349-3.488-4.893c-0.956,0.39-0.861,2.21,0.863,6.431l7.682,18.791c1.27,3.105,2.973,6.591,3.77,6.266
		c1.194-0.489,0.384-4.061-1.373-8.36L111.399,40.237z M121.437,45.241c-0.662-2.983-0.404-4.854,0.189-6.583
		c-2.532-3.24-4.935-6.161-8.741-8.879c2.069,3.243,3.729,7.304,3.566,10.995c1.715,0.786,3.209,1.94,4.746,4.564L121.437,45.241z"
		/>
	<path fill="#000100" d="M138.717,31.791c-2.375-11.367,4.23-22.237,14.166-24.313c2.863-0.598,5.175-0.466,7.372-0.046
		c1.759,0.423,3.415,0.78,3.92,0.675c0.505-0.106,0.378-1.134,0.062-2.649l7.747-1.619l8.744,6.521l5.646,27.028l-11.451,2.393
		l-7.793-5.754c-2.24-9.462-5.201-14.379-6.884-14.027c-1.853,0.387-1.862,3.289-1.158,6.657l4.908,23.492
		c0.51,2.442,1.756,4.203,3.272,3.886c2.189-0.457,2.709-4.696,1.498-12.176l11.199-2.339l8.727,6.437
		c1.648,17.144-7.5,22.569-17.267,24.61c-12.041,2.516-26.057-6.947-29.769-24.713L138.717,31.791z M176.917,30.401l-5.224-25.007
		l-5.726,1.196c0.458,2.189,0.058,2.8-0.784,2.975c-1.011,0.211-2.835-0.11-4.341-0.587c-2.418-0.638-4.712-0.685-7.154-0.175
		c-10.609,2.217-15.284,13.915-13.437,22.755l2.92,13.978c2.146,10.272,9.45,19.995,22.753,17.215
		c12.209-2.55,15.126-12.562,13.244-21.572l-8.673,1.812c1.953,9.347-0.392,13.264-5.444,14.319
		c-4.968,1.038-8.262-3.372-9.652-10.023l-4.679-22.397c-0.985-4.716-0.942-9.557,4.11-10.613
		c6.567-1.373,11.672,9.601,13.413,17.937L176.917,30.401z M151.281,35.142c-1.134-0.378-2.734-0.044-4.042,0.844
		c0.65,1.007,2.012,2.479,3.473,3.581c-0.581,3.109-0.8,7.108,1.267,14.059c-3.705-5.113-5.271-8.829-6.741-12.916
		c0.897-1.593,1.472-3.471,1.749-4.671c-1.723-0.255-3.239,0.061-4.126,0.862l-0.968-4.631c-1.952-9.346,2.747-20.082,12.094-22.035
		c2.526-0.528,4.789-0.21,6.53,0.129c2.232,0.588,4.057,0.911,5.657,0.576c1.179-0.246,2.013-1.299,1.626-3.152l2.694-0.562
		l4.609,22.061l-5.641,1.179c-2.789-10.402-8.043-19.146-14.947-17.704c-6.399,1.337-6.434,7.056-5.309,12.445L151.281,35.142z
		 M147.133,35.48c0.175-1.266,0.599-3.024,1.749-4.671c-2.033-3.002-2.839-6.437-3.217-11.191c-1.531,4.45-2.167,8.978-2.256,12.335
		c1.544,1.083,2.889,2.472,3.472,3.581L147.133,35.48z"/>
	<path fill="#000100" d="M213.733,1.323l9.874,9.829l10.059,35.208c0.84,2.733,2.914,6.641,5.707,8.294l0.256,10.577l-22.272,0.539
		l-2.309-2.956l0.073,3.01l-21.843,0.528l-6.125-7.768l-0.17-7.051l2.219-0.742c2.133-0.74,3.612-3.615,5.416-10.886l9.312-38.344
		L213.733,1.323z M213.452,39.534l0.665,2.566c1.534,6.502,0.556,8.763-1.664,9.504l-2.221,0.656l0.119,4.901l21.154-0.511
		l-0.118-4.902l-2.431-0.888c-1.475-0.479-2.997-2.939-4.69-8.92L213.168,2.886l-7.998,0.193l-9.005,36.787
		c-2.193,8.916-3.594,11.53-5.727,12.271l-1.877,0.647l0.118,4.901l18.231-0.44l-0.119-4.902l-2.25-0.548
		c-1.908-0.643-3.288-4.309-2.121-9.413l0.625-2.597L213.452,39.534z M206.496,4.51l5.418-0.131l7.046,24.524
		c-1.049-0.663-2.081-0.638-3.096,0.075c0.543,1.105,1.962,2.878,3.456,4.132c-0.346,3.536-0.43,7.153,0.771,14.093
		c-2.405-6.912-3.858-10.061-6.275-13.96c0.829-1.311,1.731-3.139,1.79-4.259c-1.307-0.657-2.424-0.63-3.096,0.075l-4.112-17.023
		l-0.172,0.004l-4.23,17.225c-1.048-0.663-2.253-0.634-3.526,0.085L206.496,4.51z M204.839,32.084l3.294-13.243l0.344-0.009
		l3.156,13.088L204.839,32.084z M215.862,28.893c-0.073-3.01,0.229-4.738,0.714-6.041c-1.598-2.027-2.962-5.092-5.44-11.484
		c0.93,6.431,0.918,9.529,0.539,11.603c1.321,1.259,2.566,2.95,3.929,5.929L215.862,28.893z"/>
	<path fill="#000100" d="M284.452,16.352l-3.23,23.26l-8.181-1.136l-4.372-7.902l-3.574,25.731l4.446,8l-0.898,6.475l-24.368-3.384
		l-4.459-7.915l1.089-7.838l3.31-0.062c1.751-0.104,2.594-2.418,3.007-5.401l1.539-11.076l-5.624-0.782l-6.93-8.256l3.396-24.454
		l39.704,5.515L284.452,16.352z M237.952,24.744l5.026,0.699l0.664-4.771c0.698-5.027,2.744-10.388,6.41-9.878
		c3.237,0.449,2.879,5.524,2.43,8.761l-3.787,27.265c-0.545,3.919-1.568,6.296-3.758,6.426l-2.786,0.048l-0.674,4.856l20.619,2.864
		l0.674-4.856l-2.581-0.793c-2.157-0.733-2.495-3.3-1.952-7.219l3.788-27.265c0.449-3.237,1.488-8.217,4.726-7.768
		c3.664,0.509,4.173,6.225,3.475,11.251l-0.663,4.772l5.027,0.698l2.97-21.386l-36.637-5.089L237.952,24.744z M275.911,9.694
		l-2.568,18.489l-2.13-0.296l0.413-2.982c0.747-5.368,0.609-12.508-4.674-13.242c-3.664-0.51-5.452,2.369-6.162,7.481l-1.822,13.121
		c-0.673-0.788-1.866-0.954-3.153-0.438c0.356,1.178,1.045,3.098,2.062,4.541c-1.583,2.646-3.065,6.436-4.752,13.583
		c0.408-7.325,0.017-11.374-0.786-14.352c1.371-1.112,2.556-2.771,3.221-3.808c-1.012-0.835-2.205-1-3.236-0.45l1.821-13.121
		c0.71-5.112-0.228-8.368-3.892-8.877c-5.282-0.733-7.359,6.099-8.105,11.467l-0.414,2.982l-2.13-0.295l2.567-18.489L275.911,9.694z
		 M255.827,31.743c0.924-2.911,2.098-4.486,3.384-5.609c-0.824-2.199-1.336-5.396-1.129-11.881
		c-1.485,6.307-2.848,9.245-4.325,11.124c1.018,1.443,1.718,3.277,1.813,6.331L255.827,31.743z"/>
	<path fill="#000100" d="M292.795,25.094c1.105-3.799,0.283-5.292-1.238-5.913l-2.499-1.263l2.205-7.601l22.883,6.642l3.765,9.871
		l-1.895,6.526l-2.682-0.33c-1.535-0.266-3.359,1.084-4.655,5.545l-7.912,27.262l3.333,8.581l-1.823,6.278l-23.71-6.881
		l-3.272-8.474l2.206-7.601l3.367,0.44c1.664,0.125,2.915-2.021,3.753-4.912L292.795,25.094z M285.904,54.085
		c-1.104,3.8-2.459,6.004-4.562,5.842l-2.763-0.354l-1.366,4.709l19.991,5.803l1.366-4.708l-2.522-1.181
		c-1.947-1.012-1.912-3.6-0.809-7.4l8.296-28.584c1.127-3.882,2.812-5.99,4.562-5.842l2.764,0.354l1.366-4.708l-19.909-5.779
		l-1.367,4.709l2.524,1.181c1.557,0.81,1.853,3.493,0.726,7.376L285.904,54.085z M298.165,41.162
		c-0.635-0.9-1.791-1.236-3.058-0.887c0.185,1.218,0.59,3.216,1.469,4.815c-2.029,2.367-4.041,5.903-6.657,12.757
		c1.459-7.19,1.653-11.253,1.205-14.34c1.6-0.879,3.011-2.35,3.735-3.304c-0.964-0.997-2.037-1.309-3.056-0.888l3.885-13.382
		c1.821-6.279,0.542-8.352-0.848-9.113l-2.054-0.954l0.527-1.818l17.102,4.963l-0.528,1.818l-2.242-0.293
		c-1.584-0.101-3.774,0.965-5.597,7.243L298.165,41.162z M295.132,40.192c1.334-2.747,2.724-4.135,4.322-5.015
		c-0.663-2.342-0.71-5.581,0.51-11.944c-2.375,6.028-4.147,8.738-5.962,10.362c0.879,1.599,1.308,3.514,0.883,6.525L295.132,40.192z
		"/>
	<path fill="#000100" d="M351.644,76.817c-6.891,15.01-18.431,18.705-29.297,13.715c-11.18-5.133-18.085-18.335-10.225-35.457
		l6.891-15.01c5.382-11.726,17.235-15.277,26.382-11.078c14.932,6.854,17.196,23.985,12.853,33.445L351.644,76.817z M352.856,55.414
		c4.407-9.808,1.7-20.611-8.071-25.097c-9.772-4.486-20.06,1.014-24.294,10.239l-6.934,14.896
		c-4.959,10.597-1.622,20.646,8.149,25.133c9.851,4.522,20.102-0.9,24.546-10.786L352.856,55.414z M326.588,51.4
		c-0.339-0.912-1.903-1.63-3.754-1.722c-0.075,1.195,0.145,3.189,0.665,4.942c-2.279,2.078-5.869,6.393-7.293,12.175
		c0.516-6.483,1.539-11.598,2.212-14.508c1.669-0.749,3.169-1.953,4.182-2.718c-1.197-1.308-2.839-2.061-3.829-1.759l3.05-6.645
		c3.66-7.974,12.817-13.898,22.354-9.52c9.46,4.342,10.936,15.147,7.274,23.122l-3.05,6.645c-0.416-0.948-1.979-1.666-3.831-1.758
		c0.081,1.268,0.145,3.19,0.665,4.943c-1.798,2.677-4.396,6.69-9.481,11.17c3.13-5.378,4.388-10.385,4.399-13.503
		c1.748-0.712,3.325-1.88,4.184-2.718c-1.277-1.343-2.841-2.061-3.754-1.723l4.846-10.554c3.481-7.583,1.659-11.449-2.328-13.28
		c-4.065-1.865-8.184-0.728-11.666,6.855L326.588,51.4z M332.918,41.528c2.009-4.378,4.844-8.283,9.534-6.129
		c4.611,2.117,3.577,6.847,1.567,11.226l-9.549,20.795c-2.439,5.315-5.854,10.279-10.467,8.162
		c-4.689-2.154-3.253-7.552-0.634-13.258L332.918,41.528z M322.906,49.521c1.646-2.557,3.267-3.611,4.937-4.36
		c-0.008-3.695,1.463-6.9,4.026-10.834c-3.911,2.748-6.483,5.258-9.108,8.502c0.521,1.753,0.698,3.633-0.088,6.584L322.906,49.521z
		 M341.434,48.75c1.436-3.126,2.284-5.388,1.189-5.89c-0.938-0.431-2.203,0.881-4.105,5.024l-8.47,18.451
		c-1.399,3.048-2.78,6.673-1.999,7.033c1.173,0.539,3.228-2.493,5.166-6.715L341.434,48.75z M344.641,59.498
		c1.724-2.521,3.266-3.611,4.935-4.359c0.635-4.063,1.125-7.813,0.509-12.45c-0.954,3.727-2.783,7.714-5.59,10.116
		c0.597,1.79,0.776,3.67-0.09,6.585L344.641,59.498z"/>
	<path fill="#000100" d="M365.443,116.416l-0.256-9.89l4.538-16.191l-5.529,7.785l0.222,7.859l-4.584,6.451l-16.061-11.406
		l-0.303-9.08l4.583-6.452l3.033,1.522c1.532,0.666,3.419-0.949,5.161-3.403l16.985-23.914c2.292-3.226,2.008-4.906,0.774-5.992
		l-1.944-2.015l4.583-6.452l17.954,12.752l0.153,5.279l2.439-3.437l15.991,11.358l0.307,10.559l-3.935,5.54l-2.424-1.193
		c-1.362-0.756-3.46-0.031-6.148,3.756l-24.46,34.435L365.443,116.416z M378.915,63.732l0.14,0.099l-12.035,42.941l8.134,5.78
		l24.309-34.225c2.342-3.296,4.628-4.731,6.3-3.967l2.424,1.194l2.839-3.998l-13.465-9.563l-2.84,3.997l1.996,1.944
		c1.202,1.276,0.6,3.908-1.741,7.205l-10.81,15.218l-0.069-0.05l8.625-31.752l-15.709-11.158l-2.839,3.997l1.994,1.945
		c1.204,1.276,0.601,3.908-1.74,7.205l-17.235,24.264c-2.291,3.226-4.298,4.862-6.229,4.017l-2.493-1.244l-2.839,3.998l12.834,9.116
		l2.839-3.998l-1.294-1.446c-1.454-1.666-0.62-4.029,1.67-7.254L378.915,63.732z M390.821,59l-6.933,25.357
		c-0.934-1.507-2.125-2.355-3.647-2.59c0.055,1.41,0.261,3.35,0.785,5.728c-1.602,2.554-3.323,5.869-6.415,12.747
		c1.47-7.714,1.938-12.235,2.069-15.835c1.456-0.864,2.705-1.877,3.351-2.789c-1.073-1.606-2.196-2.404-3.436-2.44l4.012-14.561
		c0.476-1.561,0.604-2.631-0.31-3.279c-0.841-0.598-1.728,0.354-2.476,1.407l-8.17,11.501c-0.232-1.009-1.073-1.607-2.032-1.445
		l8.069-11.36c3.785-5.331,3.259-7.709,2.196-8.886l-1.623-1.576l1.095-1.542L390.821,59z M380.292,81.698
		c1.743-2.455,2.739-3.857,3.855-5.28c-0.298-3.589-0.038-7.52,0.864-13.842c-2.005,5.646-3.557,8.869-5.721,11.025
		c0.866,2.197,0.991,4.397,0.791,7.947L380.292,81.698z M408.986,71.902l-1.097,1.542l-2.021-1.014
		c-1.462-0.616-3.881-0.33-7.668,4.999l-8.069,11.362c-0.022-0.86-1.074-1.607-1.963-1.395l8.068-11.361
		c3.786-5.33,3.261-7.708,2.198-8.885l-1.625-1.576l1.096-1.542L408.986,71.902z"/>
</g>
<g>
	<polygon fill="#000100" points="435.986,113.051 429.74,125.705 415.775,127.733 425.881,137.584 423.495,151.493 435.986,144.926 
		448.477,151.493 446.092,137.584 456.196,127.733 442.23,125.705 	"/>
	<polygon fill="#FFFFFF" points="436.486,109.423 431.709,122.702 418.061,126.292 429.213,134.939 428.411,149.029 
		440.082,141.096 453.232,146.212 449.295,132.66 458.224,121.733 444.119,121.292 	"/>
</g>
<g>
	<polygon fill="#000100" points="22.237,109.051 28.483,121.705 42.448,123.733 32.343,133.584 34.729,147.493 22.237,140.926 
		9.747,147.493 12.132,133.584 2.027,123.733 15.993,121.705 	"/>
	<polygon fill="#FFFFFF" points="21.737,105.423 26.515,118.702 40.163,122.292 29.011,130.939 29.812,145.029 18.142,137.096 
		4.991,142.212 8.929,128.66 0,117.733 14.104,117.292 	"/>
</g>
</svg>
