<?xml version="1.0" encoding="utf-8"?>
<!-- Generator: Adobe Illustrator 15.1.0, SVG Export Plug-In . SVG Version: 6.00 Build 0)  -->
<!DOCTYPE svg PUBLIC "-//W3C//DTD SVG 1.1//EN" "http://www.w3.org/Graphics/SVG/1.1/DTD/svg11.dtd">
<svg version="1.1" id="Layer_1" xmlns="http://www.w3.org/2000/svg" xmlns:xlink="http://www.w3.org/1999/xlink" x="0px" y="0px"
	 width="181.167px" height="30px" viewBox="0 0 181.167 30" enable-background="new 0 0 181.167 30" xml:space="preserve">
<polygon opacity="0.6" points="15,0 19.635,9.392 30,10.898 22.5,18.209 24.271,28.532 15,23.658 5.729,28.532 7.5,18.209 0,10.898 
	10.365,9.392 "/>
<text transform="matrix(1 0 0 1 12.5991 19.0552)" fill="#FFFFFF" font-family="'MyriadPro-Cond'" font-size="12.4726">1</text>
<polygon opacity="0.6" points="45,0 49.635,9.392 60,10.898 52.5,18.209 54.271,28.532 45,23.658 35.729,28.532 37.5,18.209 
	30,10.898 40.365,9.392 "/>
<text transform="matrix(1 0 0 1 42.5991 19.0552)" fill="#FFFFFF" font-family="'MyriadPro-Cond'" font-size="12.4726">2</text>
<polygon opacity="0.6" points="75,0 79.635,9.392 90,10.898 82.5,18.209 84.271,28.532 75,23.658 65.729,28.532 67.5,18.209 
	60,10.898 70.365,9.392 "/>
<text transform="matrix(1 0 0 1 72.5991 19.0552)" fill="#FFFFFF" font-family="'MyriadPro-Cond'" font-size="12.4726">3</text>
<polygon opacity="0.6" points="105,0 109.635,9.392 120,10.898 112.5,18.209 114.271,28.532 105,23.658 95.729,28.532 97.5,18.209 
	90,10.898 100.365,9.392 "/>
<text transform="matrix(1 0 0 1 102.5991 19.0552)" fill="#FFFFFF" font-family="'MyriadPro-Cond'" font-size="12.4726">4</text>
<polygon opacity="0.6" points="135,0 139.635,9.392 150,10.898 142.5,18.209 144.271,28.532 135,23.658 125.729,28.532 
	127.5,18.209 120,10.898 130.365,9.392 "/>
<text transform="matrix(1 0 0 1 132.5991 19.0552)" fill="#FFFFFF" font-family="'MyriadPro-Cond'" font-size="12.4726">5</text>
<polygon opacity="0.6" points="165,0 169.635,9.392 180,10.898 172.5,18.209 174.271,28.532 165,23.658 155.729,28.532 
	157.5,18.209 150,10.898 160.365,9.392 "/>
<text transform="matrix(1 0 0 1 162.5991 19.0552)" fill="#FFFFFF" font-family="'MyriadPro-Cond'" font-size="12.4726">6</text>
</svg>
