<?xml version="1.0" encoding="utf-8"?>
<!-- Generator: Adobe Illustrator 15.1.0, SVG Export Plug-In . SVG Version: 6.00 Build 0)  -->
<!DOCTYPE svg PUBLIC "-//W3C//DTD SVG 1.1//EN" "http://www.w3.org/Graphics/SVG/1.1/DTD/svg11.dtd">
<svg version="1.1" id="Layer_1" xmlns="http://www.w3.org/2000/svg" xmlns:xlink="http://www.w3.org/1999/xlink" x="0px" y="0px"
	 width="158.047px" height="30px" viewBox="0 0 158.047 30" enable-background="new 0 0 158.047 30" xml:space="preserve">
<polygon opacity="0.6" points="15,0 18.708,11.217 30,11.459 21,18.633 24.271,30 15,23.217 5.729,30 9,18.633 0,11.459 
	11.292,11.217 "/>
<text transform="matrix(1 0 0 1 12.5991 20.3887)" fill="#FFFFFF" font-family="'MyriadPro-Cond'" font-size="12.4726">1</text>
<polygon opacity="0.6" points="45,0 48.708,11.217 60,11.459 51,18.633 54.271,30 45,23.217 35.729,30 39,18.633 30,11.459 
	41.292,11.217 "/>
<text transform="matrix(1 0 0 1 42.5991 20.3887)" fill="#FFFFFF" font-family="'MyriadPro-Cond'" font-size="12.4726">2</text>
<polygon opacity="0.6" points="75,0 78.708,11.217 90,11.459 81,18.633 84.271,30 75,23.217 65.729,30 69,18.633 60,11.459 
	71.292,11.217 "/>
<text transform="matrix(1 0 0 1 72.5991 20.3887)" fill="#FFFFFF" font-family="'MyriadPro-Cond'" font-size="12.4726">3</text>
<polygon opacity="0.6" points="105,0 108.708,11.217 120,11.459 111,18.633 114.271,30 105,23.217 95.729,30 99,18.633 90,11.459 
	101.292,11.217 "/>
<text transform="matrix(1 0 0 1 102.5991 20.3887)" fill="#FFFFFF" font-family="'MyriadPro-Cond'" font-size="12.4726">4</text>
<polygon opacity="0.6" points="135,0 138.708,11.217 150,11.459 141,18.633 144.271,30 135,23.217 125.729,30 129,18.633 
	120,11.459 131.292,11.217 "/>
<text transform="matrix(1 0 0 1 132.5991 20.3887)" fill="#FFFFFF" font-family="'MyriadPro-Cond'" font-size="12.4726">5</text>
</svg>
