<?xml version="1.0" encoding="utf-8"?>
<!-- Generator: Adobe Illustrator 16.0.0, SVG Export Plug-In . SVG Version: 6.00 Build 0)  -->
<!DOCTYPE svg PUBLIC "-//W3C//DTD SVG 1.1//EN" "http://www.w3.org/Graphics/SVG/1.1/DTD/svg11.dtd">
<svg version="1.1" id="Layer_1" xmlns="http://www.w3.org/2000/svg" xmlns:xlink="http://www.w3.org/1999/xlink" x="0px" y="0px"
	 width="48.235px" height="41.604px" viewBox="0 0 48.235 41.604" enable-background="new 0 0 48.235 41.604" xml:space="preserve">
<path fill="#010101" d="M23.548,2.235c-9.941,0-18,6.48-18,14.475c0,4.762,2.871,8.973,7.283,11.61l-1.657,8.319l8.642-5.77
	c1.204,0.204,2.451,0.315,3.732,0.315c9.941,0,18-6.481,18-14.476S33.489,2.235,23.548,2.235z M21.791,23.196h-8.283V10.213h8.015
	v2.408h-5.066v2.697h4.776v2.388h-4.776v3.082h5.335V23.196z M35.024,23.196h-3.082l-2.773-5.008
	c-0.771-1.387-1.619-3.063-2.254-4.585l-0.059,0.019c0.078,1.715,0.116,3.545,0.116,5.664v3.91h-2.697V10.213h3.429l2.697,4.758
	c0.771,1.368,1.541,2.986,2.119,4.45h0.058c-0.192-1.715-0.25-3.467-0.25-5.414v-3.794h2.696V23.196z"/>
</svg>
