<?xml version="1.0" encoding="utf-8"?>
<!-- Generator: Adobe Illustrator 16.0.0, SVG Export Plug-In . SVG Version: 6.00 Build 0)  -->
<!DOCTYPE svg PUBLIC "-//W3C//DTD SVG 1.1//EN" "http://www.w3.org/Graphics/SVG/1.1/DTD/svg11.dtd">
<svg version="1.1" id="Layer_1" xmlns="http://www.w3.org/2000/svg" xmlns:xlink="http://www.w3.org/1999/xlink" x="0px" y="0px"
	 width="535.023px" height="202.354px" viewBox="0 0 535.023 202.354" enable-background="new 0 0 535.023 202.354"
	 xml:space="preserve">
<g>
	<g>
		<g>
			<path fill="#FFFFFF" d="M50.292,122.452c-2.713-2.8-3.838-7.694,0.182-11.591c3.087-2.99,8.899-4.03,11.792-3.633
				c2.398,0.32,5.207,1.496,7.797,3.162l3.517-3.408L60.501,93.488l-3.517,3.408c-0.017,0.988-0.033,2.121-0.896,2.955
				c-1.076,1.044-2.5,1.729-3.997,2.481c-1.781,0.893-4.567,2.756-6.792,4.912c-7.106,6.888-8.329,17.26-0.956,24.869
				c6.957,7.178,13.437,8.691,22.54,5.158l7.825-3.129c3.343-1.29,8.816-3.255,12.781,0.837c2.783,2.872,3.062,7.611,0.048,10.534
				c-4.882,4.729-10.767,5.839-15.343,4.707c-2.888-0.683-5.137-1.564-7.373-3.155l-3.59,3.479l14.957,15.434l3.589-3.479
				c-0.605-1.919-1.208-4.119-0.06-5.231s3.066-1.72,5.483-2.529c2.344-0.74,5.689-2.174,8.416-4.815
				c7.322-7.096,7.634-17.978-0.227-26.089c-8.348-8.612-16.268-8.455-28.384-2.143C58.021,125.401,54.186,126.613,50.292,122.452z"
				/>
			<path fill="#FFFFFF" d="M130.193,80.595l-16.012-25.001l-5.725,3.666c1.402,2.188,1.221,3.02,0.379,3.558
				c-1.01,0.646-3.125,1.053-4.957,1.156c-2.89,0.309-5.402,1.204-7.844,2.769c-10.604,6.793-10.846,21.43-5.185,30.268l8.95,13.976
				c6.577,10.271,18.528,17.811,31.829,9.291c12.206-7.816,11.235-19.896,5.467-28.903l-8.671,5.553
				c5.985,9.345,5.057,14.568,0.007,17.804c-4.967,3.182-10.367-0.246-14.626-6.896L99.464,85.439
				c-3.02-4.714-4.975-9.989,0.076-13.226c6.566-4.206,16.646,5.603,21.983,13.937L130.193,80.595z"/>
			<path fill="#FFFFFF" d="M158.875,51.539c-1.544-4.438-1.363-7.569,0.488-8.638l2.763-1.49l-1.872-5.381L137.5,43.948l1.872,5.381
				l3.186-0.578c2.02-0.28,4.105,2.063,5.649,6.502l11.365,32.667c1.511,4.344,1.709,7.345-0.394,8.604l-2.856,1.522l1.872,5.381
				l22.849-7.948l-1.872-5.382l-3.186,0.578c-2.525,0.351-4.233-2.126-5.744-6.469L165.74,71.27l15.485-5.388l4.499,12.936
				c1.512,4.344,1.709,7.345-0.582,8.67l-2.762,1.49l1.872,5.382l22.754-7.916l-1.872-5.382l-3.092,0.546
				c-2.524,0.351-4.231-2.126-5.743-6.47L184.933,42.47c-1.543-4.438-1.363-7.568,0.488-8.637l2.762-1.491l-1.872-5.382
				l-22.754,7.918l1.872,5.381l3.092-0.546c2.209-0.346,4.294,1.999,5.838,6.438l3.975,11.425l-15.483,5.388L158.875,51.539z"/>
			<path fill="#FFFFFF" d="M244.495,52.151l-0.675-7.064l-9.852,0.939l-1.234-12.938c-0.438-4.578,0.827-7.108,5.902-7.593
				c4.678-0.446,9.028,3.054,9.741,10.519l0.398,4.18l6.27-0.6l-2.071-21.692l-39.108,3.732l0.542,5.673l3.231,0.192
				c2.028,0.209,3.498,2.979,3.944,7.657l3.287,34.432c0.438,4.578-0.074,7.64-2.424,8.267l-3.138,0.802l0.542,5.673l39.108-3.734
				l-2.146-22.488l-6.271,0.6l0.466,4.876c0.59,6.17-0.618,11.406-7.584,12.07c-5.075,0.483-6.843-2.259-7.224-6.238l-1.559-16.32
				L244.495,52.151z"/>
			<path fill="#FFFFFF" d="M308.211,21.443L280.27,17.7l-0.756,5.647l3.104,0.92c1.928,0.662,2.731,3.693,2.108,8.353l-4.594,34.285
				c-0.609,4.559-1.787,7.324-4.23,7.503l-3.236,0.069l-0.757,5.647l24.477,3.276c13.973,1.871,26.096-10.322,28.363-27.27
				C327.84,33.047,320.4,23.075,308.211,21.443z M311.504,53.353c-1.301,9.711-6.237,23.979-13.472,23.011l-4.558-0.61
				c-2.082-0.278-2.756-2.79-2.145-7.348l4.523-33.79c0.609-4.559,1.207-7.505,4.379-7.08l6.736,0.902
				C311.232,29.008,314.171,33.437,311.504,53.353z"/>
			<path fill="#FFFFFF" d="M342.16,33.24l2.849,1.537c1.751,1.045,1.915,4.178,0.35,8.605l-7.903,22.335
				c-5.836,16.491-4.706,25.587,10.184,30.854c9.707,3.437,16.687,0.497,22.954-17.221l8.503-24.031
				c1.27-3.58,3.102-6.962,5.778-6.438l3.182,0.597l1.9-5.371l-18.188-6.437l-1.898,5.371l2.755,1.505
				c2.505,1.312,1.804,5.093,0.537,8.673l-9.07,25.634c-4.202,11.874-8.756,13.655-13.656,11.923
				c-7.633-2.7-6.764-8.756-1.525-23.552l7.102-20.072c1.567-4.43,3.666-6.763,5.686-6.474l3.183,0.597l1.9-5.37l-22.713-8.037
				L342.16,33.24z"/>
			<path fill="#FFFFFF" d="M386.434,97.175c-2.387,3.933-4.574,5.994-6.887,5.177l-2.994-1.232l-2.958,4.87l36.062,21.9
				l10.639-17.518l-5.382-3.271l-2.855,4.698c-2.489,4.103-5.819,4.771-11.803,1.138c-6.236-3.789-5.771-7.25-2.812-12.12
				l16.605-27.344c2.439-4.018,4.97-5.871,6.886-5.176l2.995,1.233l2.958-4.87l-20.594-12.509l-2.958,4.871l2.476,2.087
				c1.5,1.381,1.021,4.48-1.418,8.497L386.434,97.175z"/>
			<path fill="#FFFFFF" d="M460.506,133.156l4.87-5.163l-7.199-6.791l8.916-9.453c3.155-3.347,5.894-4.062,9.604-0.562
				c3.417,3.225,3.649,8.805-1.492,14.257l-2.881,3.056l4.581,4.32l14.953-15.854L463.276,90.01l-3.909,4.146l1.982,2.559
				c1.182,1.662,0.063,4.596-3.158,8.014l-23.732,25.162c-3.154,3.345-5.794,4.979-7.812,3.621l-2.671-1.83l-3.908,4.146
				l28.577,26.955l15.504-16.437l-4.582-4.32l-3.36,3.562c-4.252,4.51-8.986,7.053-14.077,2.25
				c-3.709-3.498-2.811-6.636-0.065-9.545l11.247-11.926L460.506,133.156z"/>
		</g>
		<g enable-background="new    ">
			<path fill="#010101" d="M44.271,130.68c-8.489-8.758-6.752-20.326,1.216-28.049c2.082-2.02,4.37-3.68,6.154-4.712
				c1.784-1.033,3.137-1.647,3.854-2.343c0.79-0.766,0.735-1.827,0.607-2.678l5.312-5.148l12.271,2.029l14.611,15.075l-4.738,4.594
				l-12.305,0.231c-3.636-2.604-7.917-4.578-10.861-1.726c-2.584,2.505-2.344,5.193-0.257,7.349
				c1.809,1.867,3.638,2.461,10.048-0.55c13.532-6.294,25.89-5.322,36.396,5.519c8.767,9.045,7.719,21.754,0.541,28.713
				c-3.015,2.923-6.582,4.988-8.992,5.375c-1.914,0.322-3.761,0.859-4.694,1.765c-1.005,0.975,0.227,3.539,0.562,4.746l-6.246,6.053
				l-10.862-1.583l-17.187-17.731l6.317-6.123c3.725,1.4,8.656,2.609,11.126,2.859c3.034,0.402,6.929-0.032,9.657-2.676
				c1.508-1.461,2.754-4.342,0.946-6.207c-2.574-2.656-9.786,1.826-14.188,3.03C65.822,140.562,53.733,140.444,44.271,130.68z
				 M51.305,119.407c-2.714-2.801-3.839-7.695,0.181-11.593c3.087-2.991,8.901-4.031,11.793-3.634
				c2.398,0.32,5.208,1.496,7.798,3.162l3.518-3.409l-13.08-13.496l-3.518,3.409c-0.016,0.989-0.034,2.12-0.895,2.955
				c-1.077,1.043-2.501,1.729-3.998,2.483c-1.782,0.891-4.569,2.756-6.794,4.913c-7.107,6.889-8.33,17.263-0.954,24.871
				c6.958,7.181,13.438,8.694,22.543,5.16l7.826-3.13c3.344-1.29,8.818-3.255,12.784,0.837c2.783,2.871,3.062,7.612,0.047,10.535
				c-4.882,4.73-10.767,5.842-15.345,4.709c-2.888-0.682-5.137-1.563-7.375-3.156l-3.589,3.479l14.96,15.435l3.589-3.479
				c-0.607-1.919-1.208-4.119-0.06-5.232c1.149-1.112,3.067-1.721,5.483-2.53c2.345-0.74,5.69-2.175,8.418-4.817
				c7.322-7.097,7.634-17.979-0.229-26.093c-8.35-8.615-16.271-8.455-28.388-2.141C59.036,122.356,55.199,123.569,51.305,119.407z
				 M78.646,116.159c-2.854,1.651-4.218,2.974-4.953,4.801c-2.064,0.887-3.644,2.418-4.882,4.73
				c4.926-3.104,8.713-5.662,11.561-6.89c5.848,1.293,10.18,4.613,13.669,12.092c-5.433-5.316-11.77-6.972-15.05-5.186
				c-2.033-1.092-4.778-1.912-10.468,0.262c-1.993,0.816-3.644,2.418-4.523,4.384c-2.064,0.887-3.141,1.932-3.518,3.409
				c-5.805,0.475-9.591-1.563-13.835-5.943c-6.61-6.819-5.401-16.346,0.701-22.26c1.866-1.809,3.584-3.197,5.296-4.16
				c1.854-0.961,4.346-2.124,5.782-3.515c1.077-1.044,1.238-2.314,1.182-3.234l1.866-1.809l10.715,11.056l-1.364,1.322
				c-5.665-3.978-14.925-4.052-20.525,1.375c-5.169,5.01-3.489,10.623-0.428,13.781c3.688,3.805,7.281,4.639,13.265,1.762
				C69.266,119.264,74.471,116.448,78.646,116.159z M68.672,125.548c-6.821,2.155-10.78,2.094-13.491-0.848
				c-3.119,0.518-6.068-0.802-9.893-4.894c1.639,3.703,3.981,7.699,6.696,10.357c4.513,0.776,9.268-0.351,16.4-4.34L68.672,125.548z
				"/>
		</g>
		<g enable-background="new    ">
			<path fill="#010101" d="M90.296,94.855c-7.28-11.364-4.601-25.902,5.333-32.266c2.862-1.833,5.429-2.647,7.988-3.099
				c2.085-0.268,4.031-0.565,4.536-0.889c0.505-0.324-0.057-1.387-1.028-2.902l7.745-4.961l12.194,3.468l17.31,27.022l-11.449,7.334
				l-10.843-3.026c-6.346-9.353-11.595-13.469-13.279-12.391c-1.852,1.188-0.662,4.342,1.495,7.709l15.045,23.487
				c1.564,2.443,3.646,3.84,5.161,2.869c2.188-1.402,1.002-6.221-3.407-13.846l11.197-7.173l12.14,3.385
				c8.878,17.938,1.187,27.615-8.579,33.871c-12.039,7.712-31.175,3.229-42.553-14.534L90.296,94.855z M131.213,77.55
				l-16.015-25.003l-5.725,3.667c1.401,2.188,1.221,3.018,0.378,3.557c-1.01,0.647-3.125,1.053-4.958,1.157
				c-2.889,0.307-5.402,1.204-7.843,2.769c-10.607,6.794-10.847,21.433-5.186,30.272l8.952,13.975
				c6.578,10.271,18.532,17.812,31.833,9.291c12.207-7.818,11.236-19.9,5.466-28.908l-8.671,5.554
				c5.986,9.345,5.058,14.567,0.007,17.804c-4.967,3.183-10.367-0.244-14.627-6.896l-14.345-22.394
				c-3.02-4.714-4.976-9.991,0.076-13.227c6.567-4.206,16.649,5.603,21.987,13.937L131.213,77.55z M105.328,93.299
				c-1.388,0.06-2.987,1.084-4.041,2.588c1.122,0.825,3.211,1.863,5.252,2.455c0.655,3.618,2.071,8.052,7.19,14.747
				c-6.138-4.022-9.376-7.409-12.662-11.242c0.316-2.101,0.163-4.378-0.033-5.797c-1.977,0.437-3.492,1.408-4.125,2.643
				l-2.966-4.629c-5.986-9.346-5.321-22.949,4.023-28.936c2.525-1.618,5.116-2.207,7.146-2.56c2.668-0.283,4.783-0.688,6.383-1.713
				c1.179-0.755,1.649-2.243,0.463-4.096l2.694-1.726l14.128,22.058l-5.641,3.613c-7.33-10.146-16.653-17.473-23.556-13.05
				c-6.398,4.098-4.072,10.324-0.621,15.712L105.328,93.299z M100.963,95.383c-0.334-1.447-0.601-3.532-0.032-5.795
				c-3.45-2.421-5.745-5.819-8.122-10.827c0.177,5.467,1.358,10.647,2.649,14.332c2.125,0.538,4.161,1.49,5.252,2.452
				L100.963,95.383z"/>
		</g>
		<g enable-background="new    ">
			<path fill="#010101" d="M147.622,52.774c-1.511-4.344-3.293-5.205-5.152-4.771l-3.218,0.484l-3.022-8.687l52.211-18.164
				l10.205,6.821l2.596,7.459l-2.763,1.49c-1.634,0.778-2.455,3.287-0.682,8.386l10.84,31.157l8.929,5.89l2.496,7.176l-24.735,8.605
				l-2.739-1.482l0.756,2.172l-26.436,9.198l-8.801-5.83l-3.022-8.686l3.485-1.849c1.662-1.001,1.403-3.874,0.254-7.179
				L147.622,52.774z M159.896,48.504c-1.543-4.438-1.363-7.57,0.488-8.638l2.763-1.49l-1.872-5.382l-22.754,7.917l1.872,5.382
				l3.187-0.58c2.019-0.278,4.104,2.064,5.648,6.503l11.365,32.666c1.511,4.344,1.708,7.344-0.394,8.604l-2.857,1.523l1.872,5.381
				l22.849-7.949l-1.872-5.381l-3.186,0.579c-2.525,0.349-4.233-2.126-5.744-6.47l-4.5-12.936l15.484-5.387l4.5,12.936
				c1.511,4.344,1.708,7.344-0.582,8.67l-2.764,1.489l1.872,5.382l22.754-7.917l-1.872-5.382l-3.092,0.548
				c-2.524,0.349-4.231-2.126-5.742-6.471l-11.365-32.666c-1.544-4.438-1.364-7.569,0.487-8.638l2.763-1.49l-1.872-5.382
				l-22.754,7.917l1.872,5.382l3.092-0.547c2.208-0.345,4.294,2,5.838,6.438l3.975,11.423l-15.484,5.387L159.896,48.504z
				 M186.285,26.093l0.723,2.077l-2.323,1.23c-2.229,1.198-2.335,5.152-0.43,10.629l5.321,15.294
				c-1.019-0.492-2.341-0.032-3.399,1.183c0.805,1.097,2.627,2.685,4.441,3.641c-0.238,3.576,0.141,8.313,2.271,16.567
				c-3.358-7.827-6.002-11.776-8.408-14.433c0.829-1.875,1.272-4.251,1.317-5.645c-2.435,0-4.605,0.756-6.515,2.266
				c-2.34-0.031-4.512,0.724-6.325,2.201c-2.435,0.001-4.606,0.756-6.42,2.233c-2.435,0.001-4.512,0.724-6.515,2.267
				c0.994,1.031,2.722,2.651,4.536,3.608c-0.237,3.576,0.235,8.28,2.365,16.535c-3.452-7.795-6.002-11.776-8.503-14.399
				c0.925-1.909,1.273-4.252,1.318-5.645c-1.679-0.263-3,0.197-3.493,1.215l-5.321-15.294c-1.904-5.478-4.442-8.511-6.934-8.067
				l-2.587,0.479l-0.723-2.077l19.544-6.8l0.723,2.076l-2.323,1.231c-2.229,1.198-2.335,5.152-0.431,10.629l4.566,13.123
				l18.787-6.537l-4.565-13.123c-1.905-5.477-4.348-8.543-6.934-8.065l-2.492,0.443l-0.723-2.077L186.285,26.093z M159.991,65.51
				c-0.583-3.501-0.201-5.75,0.628-7.626c-2.11-1.806-4.331-4.843-7.456-11.694c1.803,7.312,1.947,11.07,1.318,13.829
				c1.91,0.924,3.605,2.45,5.227,5.59L159.991,65.51z M177.096,53.527l-2.857-8.214l-1.979,1.006
				c-2.167,1.072-2.294,3.444-0.685,8.07l0.328,0.944L177.096,53.527z M182.086,84.6l3.107-1.716
				c1.224-0.743,1.231-2.544-0.148-6.51l-1.183-3.398l-5.192,1.807L182.086,84.6z M186.144,56.411
				c-0.771-3.436-0.296-5.718,0.533-7.595c-2.11-1.806-4.426-4.81-7.55-11.66c1.897,7.277,1.946,11.07,1.413,13.796
				c1.814,0.958,3.604,2.45,5.226,5.591L186.144,56.411z"/>
		</g>
		<g enable-background="new    ">
			<path fill="#010101" d="M217.041,26.426l-3.241-0.292l-0.874-9.155l42.293-4.036l8.729,9.41l2.241,23.484l-10.448,0.997
				l-7.503-8.12l-0.333-3.483c-0.199-2.089-0.811-3.235-2.402-3.084c-1.692,0.161-2.336,1.829-2.056,3.71l0.336,2.479l9.869,10.807
				l0.427,4.479l4.976-0.476l8.749,9.609l2.299,24.082l-43.687,4.169l-7.167-7.752l-0.873-9.154l3.823-0.968
				c1.854-0.578,2.284-3.43,1.951-6.914l-3.238-33.933C220.477,27.705,218.95,26.445,217.041,26.426z M245.515,49.115l-0.674-7.064
				l-9.852,0.94l-1.234-12.938c-0.437-4.578,0.828-7.108,5.903-7.592c4.678-0.446,9.027,3.055,9.74,10.519l0.398,4.18l6.27-0.599
				l-2.07-21.691l-39.107,3.731l0.541,5.672l3.231,0.193c2.028,0.208,3.498,2.98,3.944,7.657l3.285,34.431
				c0.438,4.578-0.074,7.639-2.425,8.265l-3.136,0.803l0.541,5.672l39.107-3.732l-2.146-22.488l-6.27,0.598l0.465,4.875
				c0.589,6.171-0.619,11.407-7.584,12.071c-5.075,0.483-6.844-2.26-7.224-6.24l-1.557-16.32L245.515,49.115z M252.465,16.719
				l1.748,18.311l-2.786,0.266l-0.237-2.487c-0.988-10.35-7.215-12.466-11.692-12.039c-6.667,0.637-7.941,5.176-7.533,9.455
				l1.405,14.729l9.951-0.949l0.228,2.389c-2.364-0.579-4.942-0.231-6.856,0.754c-2.165-0.597-4.563-0.468-6.776,0.547
				c0.721,1.237,2.015,3.223,3.65,4.571c-1.18,3.427-1.838,8.109-1.728,16.634c-1.503-8.392-3.034-12.864-4.841-16.007
				c1.351-1.634,2.246-3.828,2.62-5.169c-1.47-0.664-2.862-0.531-3.683,0.353l-1.538-16.121c-0.722-7.563-2.991-9.255-4.821-9.481
				l-2.625-0.149l-0.209-2.189L252.465,16.719z M229.905,47.591c0.266-3.54,1.17-5.633,2.421-7.259
				c-1.621-2.254-3.058-5.733-4.467-13.129c0.016,7.528-0.737,11.217-2.002,13.747c1.636,1.351,2.92,3.235,3.75,6.67L229.905,47.591
				z M246.334,66.107c0.151,1.594,0.692,3.049,1.688,2.953c1.193-0.113,2.856-2.683,2.296-8.554l-0.151-1.593l-4.478,0.427
				L246.334,66.107z"/>
		</g>
		<g enable-background="new    ">
			<path fill="#010101" d="M284.059,29.354c0.609-4.558-0.591-6.131-2.447-6.581l-3.092-1.02l1.222-9.116l30.619,4.101
				c16.053,2.148,26.508,22.007,23.337,45.689c-2.534,18.926-17.729,30.711-29.026,29.199l-28.537-3.821l-5.228-9.173l1.22-9.116
				l3.944-0.077c1.936-0.145,3-2.826,3.465-6.294L284.059,29.354z M281.152,63.865c-0.609,4.559-1.787,7.325-4.231,7.503
				l-3.237,0.07l-0.756,5.648l24.477,3.277c13.971,1.87,26.094-10.326,28.361-27.271c3.092-23.089-4.349-33.062-16.536-34.694
				l-27.944-3.74l-0.756,5.647l3.104,0.92c1.929,0.662,2.733,3.694,2.109,8.353L281.152,63.865z M287.525,29.819
				c1.01-7.53-0.819-9.691-2.551-10.326l-2.522-0.742l0.292-2.181l26.356,3.529c16.55,2.215,16.235,19.624,15.12,30.974
				c-1.281-0.979-2.669-1.165-4.756-0.638c0.903,1.533,1.84,3.575,2.123,5.228c-1.449,5.556-5.112,10.311-10.398,15.149
				c3.621-5.97,4.809-11.057,3.858-16.024c1.646-0.99,3.371-2.574,4.021-4.404c-1.679-1.032-3.265-1.244-4.559-0.61
				c3.035-19.667-0.549-25.29-6.791-26.125l-6.54-0.876c-3.964-0.529-5.426,3.611-6.089,8.565l-2.083,15.557
				c-1.084-0.952-2.272-1.11-3.766-0.504c0.321,1.354,1.233,3.595,2.422,5.268c-1.824,3.084-3.625,7.482-5.347,15.826
				c0.334-8.528-0.146-13.232-0.996-16.676c1.488-1.312,2.855-3.249,3.623-4.458c-1.381-0.992-2.569-1.15-3.566-0.478
				L287.525,29.819z M289.255,46.29c1.159-3.375,2.515-5.212,4.001-6.525c-0.97-2.551-1.582-6.264-1.38-13.802
				c-1.788,7.325-3.354,10.747-4.962,12.953c1.09,1.658,1.914,3.787,2.044,7.334L289.255,46.29z M307.99,25.397
				c4.261,0.57,7.196,4.998,4.531,24.915c-1.301,9.711-6.236,23.979-13.471,23.011l-4.559-0.61c-2.081-0.279-2.754-2.79-2.145-7.348
				l4.524-33.79c0.608-4.559,1.206-7.505,4.377-7.08L307.99,25.397z M308.222,35.716c-1.485-0.199-2.914,1.426-3.299,4.299
				l-3.808,28.439c-0.119,0.892,0.156,1.836,1.147,1.969c1.188,0.159,7.008-8.644,8.573-20.337
				c1.354-10.107,1.15-13.866-0.336-14.065L308.222,35.716z M319.479,50.337c1.368-1.937,2.593-4.293,3.702-6.565
				c-0.506-2.992-1.516-6.76-4.055-14.159c0.108,7.479-0.369,11.046-2.485,13.284c1.545,2.022,2.449,5.068,2.44,7.389
				L319.479,50.337z"/>
		</g>
		<g enable-background="new    ">
			<path fill="#010101" d="M371.048,34.448l0.733-2.073l21.391,7.568l3.801,11.736l-2.635,7.445l-3.184-0.598
				c-1.763-0.411-3.972,1.033-5.771,6.122l-9.504,26.856c-4.968,14.04-15.771,17.003-26.514,13.202
				c-13.004-4.604-21.133-18.188-12.496-42.595l7.902-22.333c1.534-4.336,0.683-6.121-1.041-6.943l-2.814-1.632l3.066-8.669
				l26.104,9.235L371.048,34.448z M343.178,30.205l2.851,1.538c1.751,1.043,1.914,4.177,0.348,8.604l-7.904,22.333
				c-5.835,16.491-4.705,25.585,10.185,30.854c9.705,3.435,16.684,0.496,22.953-17.22l8.502-24.028
				c1.268-3.582,3.1-6.963,5.776-6.438l3.185,0.596l1.899-5.37l-18.188-6.438l-1.9,5.371l2.754,1.506
				c2.507,1.311,1.806,5.091,0.537,8.672l-9.069,25.631c-4.202,11.874-8.757,13.655-13.656,11.921
				c-7.633-2.7-6.765-8.755-1.527-23.55l7.104-20.069c1.566-4.431,3.665-6.764,5.684-6.473l3.183,0.597l1.9-5.371l-22.71-8.036
				L343.178,30.205z M365.62,33.906l-0.733,2.071l-2.584-0.488c-1.829-0.225-4.44,0.865-6.977,8.027l-5.402,15.267
				c-0.108-0.889-1.617-1.422-3.486-1.234c0.134,1.426,0.503,3.678,1.382,5.685c-2.514,2.609-5.084,6.577-7.318,14.693
				c0.633-8.684,0.941-13.451,1.1-16.895c1.947-1.007,3.65-2.524,4.556-3.583c-1.24-1.288-2.748-1.821-3.486-1.233l5.402-15.266
				c2.535-7.162,1.188-9.653-0.373-10.631l-2.316-1.243l0.732-2.072L365.62,33.906z M346.504,57.359
				c1.732-3.098,3.403-4.521,5.35-5.527c-0.61-2.764-0.447-6.522,1.394-13.823c-3.16,6.834-5.396,9.859-7.611,11.622
				c0.88,2.009,1.283,4.165,0.588,7.63L346.504,57.359z M356.461,72.97c-3.502,9.896-2.139,11.438,0.123,12.237
				c1.508,0.533,4.256-2.735,6.89-10.18l8.536-24.125l-3.426-1.105c-2.711-0.429-4.486,1.594-6.088,6.117L356.461,72.97z
				 M388.801,42.109l-0.733,2.072l-1.642-0.157c-4.352-0.586-6.178,2.479-8.012,7.662l-5.402,15.267
				c-0.486-1.021-1.522-1.389-2.639-0.935l5.402-15.266c1.834-5.184,2.118-8.688-1.507-11.03l-1.09-0.811l0.732-2.072
				L388.801,42.109z"/>
		</g>
		<g enable-background="new    ">
			<path fill="#010101" d="M404.723,104.978c-1.399,2.309-0.055,3.943,1.312,4.773c1.623,0.985,4.405-0.131,6.326-3.292l2.904-4.784
				l8.287,5.033l1.167,12.521l-11.571,19.053L373.25,114.05l-1.108-10.498l4.773-7.86l3.644,1.513
				c1.831,0.645,3.883-1.386,5.698-4.375l17.694-29.133c2.387-3.933,1.917-5.854,0.396-7.012l-2.423-2.173l4.773-7.86l23.666,14.374
				l1.237,12.212l-4.1,6.75l-2.908-1.182c-1.643-0.764-4.099,0.2-6.899,4.813L404.723,104.978z M387.449,94.136
				c-2.387,3.932-4.575,5.993-6.885,5.176l-2.994-1.232l-2.957,4.869l36.054,21.896l10.638-17.516l-5.383-3.269l-2.854,4.699
				c-2.49,4.1-5.82,4.769-11.802,1.137c-6.235-3.789-5.771-7.25-2.813-12.119l16.604-27.34c2.439-4.016,4.971-5.87,6.887-5.174
				l2.992,1.232l2.957-4.869l-20.59-12.505l-2.957,4.869l2.476,2.089c1.501,1.379,1.021,4.479-1.418,8.494L387.449,94.136z
				 M406.941,65.51c3.942-6.493,3.135-9.207,1.805-10.48l-2.014-1.691l1.141-1.88l17.686,10.741l-1.141,1.88l-2.43-1.008
				c-1.744-0.594-4.525-0.06-8.47,6.435l-8.405,13.841c-0.439-1.202-1.636-1.929-3.16-1.92c-0.163,1.422-0.312,3.786,0.19,5.847
				c-2.993,2.041-6.321,5.4-11.329,12.3c3.812-7.625,5.26-12.126,5.689-15.726c2.061-0.502,4.089-1.725,5.191-2.576
				c-0.78-1.409-1.893-2.085-3.161-1.92L406.941,65.51z M402.005,81.341c2.328-2.679,4.306-3.816,6.366-4.319
				c-0.037-2.829,0.891-6.476,4.186-13.246c-4.489,6.046-7.299,8.55-9.824,9.82c0.503,2.062,0.404,4.34-0.983,7.59L402.005,81.341z"
				/>
		</g>
		<g enable-background="new    ">
			<path fill="#010101" d="M459.822,93.748l-1.916-2.631l6.31-6.69l30.907,29.148l-1.324,12.767l-16.186,17.163l-7.638-7.201
				l1.164-10.996l2.4-2.545c1.44-1.527,1.899-2.742,0.736-3.84c-1.236-1.166-2.916-0.551-4.146,0.899l-1.642,1.886l-1.625,14.545
				l-3.086,3.271l3.636,3.431l-1.46,12.912l-16.598,17.6l-31.926-30.108l1.107-10.499l6.31-6.688l3.248,2.238
				c1.655,1.013,4.084-0.543,6.485-3.09l23.386-24.798C461.125,97.175,461.066,95.196,459.822,93.748z M461.523,130.115l4.868-5.163
				l-7.198-6.789l8.916-9.454c3.153-3.347,5.891-4.062,9.6-0.563c3.418,3.224,3.652,8.804-1.491,14.256l-2.88,3.056l4.581,4.319
				l14.95-15.853L464.29,86.97l-3.909,4.146l1.984,2.559c1.18,1.662,0.063,4.594-3.16,8.012l-23.729,25.161
				c-3.155,3.345-5.795,4.979-7.813,3.624l-2.67-1.832l-3.909,4.146l28.579,26.952l15.5-16.434l-4.582-4.321l-3.359,3.563
				c-4.253,4.509-8.985,7.051-14.077,2.251c-3.709-3.498-2.812-6.636-0.066-9.545l11.248-11.927L461.523,130.115z M490.467,113.994
				l-12.619,13.38l-2.034-1.92l1.715-1.818c7.133-7.562,4.62-13.641,1.348-16.727c-4.872-4.597-9.127-2.562-12.075,0.564
				l-10.148,10.763l7.271,6.857l-1.646,1.746c-1.123-2.159-3.082-3.87-5.086-4.66c-0.979-2.021-2.655-3.74-4.877-4.736
				c-0.455,1.357-1.096,3.64-1.032,5.759c-3.354,1.371-7.311,3.963-13.647,9.663c5.32-6.661,7.675-10.762,8.849-14.189
				c2.118-0.062,4.358-0.834,5.613-1.437c-0.47-1.541-1.486-2.503-2.689-2.537l11.109-11.781c5.214-5.527,4.989-8.351,3.954-9.874
				l-1.617-2.073l1.51-1.601L490.467,113.994z M449.283,141.928c-1.099,1.164-1.836,2.529-1.109,3.215
				c0.873,0.823,3.9,0.381,7.947-3.909l1.098-1.163l-3.272-3.086L449.283,141.928z M452.382,117.372
				c2.837-2.133,5.009-2.834,7.056-2.965c0.628-2.705,2.297-6.077,6.932-12.013c-5.653,4.976-8.922,6.838-11.658,7.555
				c0.062,2.119-0.51,4.328-2.546,7.218L452.382,117.372z"/>
		</g>
		<g>
			<polygon opacity="0.8" fill="#010101" enable-background="new    " points="22.58,156.023 28.434,168.508 42.035,170.764 
				31.971,180.189 34.031,193.824 21.953,187.164 9.625,193.338 12.227,179.795 2.547,169.973 16.23,168.264 			"/>
			<polygon fill="#FFFFFF" points="20.842,151.91 25.93,164.727 39.369,167.802 28.75,176.602 29.98,190.338 18.33,182.957 
				5.646,188.369 9.066,175.01 0,164.619 13.762,163.742 			"/>
		</g>
		<g>
			<polygon opacity="0.8" fill="#010101" enable-background="new    " points="515.566,156.023 521.422,168.508 535.023,170.764 
				524.957,180.189 527.018,193.824 514.941,187.164 502.611,193.338 505.215,179.795 495.535,169.973 509.217,168.264 			"/>
			<polygon fill="#FFFFFF" points="513.828,151.91 518.916,164.727 532.355,167.802 521.738,176.602 522.967,190.338 
				511.316,182.957 498.635,188.369 502.053,175.01 492.986,164.619 506.75,163.742 			"/>
		</g>
	</g>
</g>
<path fill="#231F20" d="M268.262,110.992c-54.012,0-102.824,22.225-137.82,58.017h275.639
	C371.086,133.217,322.273,110.992,268.262,110.992z M242.986,149.766c0,1.094-0.068,2.028-0.205,2.803s-0.396,1.408-0.779,1.9
	s-0.916,0.853-1.6,1.08s-1.572,0.342-2.666,0.342h-1.75v-2.625c0.656,0,1.208-0.019,1.654-0.055c0.446-0.036,0.807-0.164,1.08-0.383
	s0.469-0.565,0.588-1.039c0.118-0.474,0.178-1.148,0.178-2.023v-18.375h3.5V149.766z M261.354,147.141
	c0,0.729-0.032,1.458-0.096,2.188c-0.064,0.729-0.185,1.427-0.362,2.092s-0.426,1.287-0.745,1.866
	c-0.319,0.579-0.738,1.08-1.258,1.504s-1.151,0.757-1.894,0.998c-0.743,0.241-1.625,0.362-2.646,0.362
	c-1.021,0-1.903-0.121-2.646-0.362c-0.743-0.241-1.374-0.574-1.894-0.998s-0.939-0.925-1.258-1.504
	c-0.319-0.579-0.567-1.201-0.745-1.866s-0.299-1.362-0.362-2.092c-0.064-0.729-0.096-1.458-0.096-2.188v-15.75h3.5v15.76
	c0,0.438,0.004,0.894,0.014,1.368c0.009,0.475,0.048,0.938,0.116,1.389s0.171,0.882,0.308,1.293c0.137,0.41,0.335,0.769,0.595,1.073
	c0.26,0.306,0.59,0.55,0.991,0.732c0.401,0.183,0.893,0.273,1.477,0.273c0.583,0,1.075-0.091,1.477-0.273
	c0.401-0.183,0.731-0.427,0.991-0.732c0.26-0.305,0.458-0.663,0.595-1.073c0.137-0.411,0.239-0.842,0.308-1.293
	s0.107-0.914,0.116-1.389c0.009-0.475,0.014-0.931,0.014-1.368v-15.76h3.5V147.141z M277.973,155.891h-2.488l-6.262-16.298v16.298
	h-3.5v-24.5h2.297l6.453,15.996v-15.996h3.5V155.891z M290.215,141.891v2.625h-4.375v8.75h6.125v2.625h-9.625v-24.5h9.625v2.625
	h-6.125v7.875H290.215z"/>
</svg>
