<?xml version="1.0" encoding="utf-8"?>
<!-- Generator: Adobe Illustrator 16.0.0, SVG Export Plug-In . SVG Version: 6.00 Build 0)  -->
<!DOCTYPE svg PUBLIC "-//W3C//DTD SVG 1.1//EN" "http://www.w3.org/Graphics/SVG/1.1/DTD/svg11.dtd">
<svg version="1.1" id="Layer_1" xmlns="http://www.w3.org/2000/svg" xmlns:xlink="http://www.w3.org/1999/xlink" x="0px" y="0px"
	 width="535.023px" height="202.354px" viewBox="0 0 535.023 202.354" enable-background="new 0 0 535.023 202.354"
	 xml:space="preserve">
<g>
	<g>
		<g>
			<path fill="#FFFFFF" d="M50.292,122.452c-2.713-2.799-3.838-7.694,0.182-11.59c3.087-2.991,8.899-4.031,11.792-3.633
				c2.398,0.32,5.207,1.496,7.797,3.162l3.517-3.408L60.501,93.488l-3.517,3.408c-0.017,0.988-0.033,2.121-0.896,2.955
				c-1.076,1.044-2.5,1.729-3.997,2.481c-1.781,0.893-4.567,2.756-6.792,4.912c-7.106,6.888-8.329,17.26-0.956,24.869
				c6.957,7.178,13.437,8.692,22.54,5.159l7.825-3.129c3.343-1.29,8.816-3.255,12.781,0.837c2.783,2.872,3.062,7.611,0.048,10.534
				c-4.882,4.729-10.767,5.839-15.343,4.707c-2.888-0.683-5.137-1.565-7.373-3.155l-3.59,3.479l14.957,15.434l3.589-3.479
				c-0.605-1.919-1.208-4.119-0.06-5.231c1.148-1.113,3.066-1.72,5.483-2.53c2.344-0.74,5.689-2.173,8.416-4.815
				c7.322-7.096,7.634-17.978-0.227-26.089c-8.348-8.612-16.268-8.455-28.384-2.142C58.021,125.401,54.186,126.613,50.292,122.452z"
				/>
			<path fill="#FFFFFF" d="M130.193,80.595l-16.012-25.001l-5.725,3.666c1.402,2.188,1.221,3.019,0.379,3.558
				c-1.01,0.646-3.125,1.052-4.957,1.156c-2.89,0.308-5.402,1.204-7.844,2.768c-10.604,6.793-10.846,21.43-5.185,30.268l8.95,13.976
				c6.577,10.27,18.528,17.81,31.829,9.291c12.206-7.817,11.235-19.897,5.467-28.904l-8.671,5.553
				c5.985,9.345,5.057,14.568,0.007,17.804c-4.967,3.181-10.367-0.246-14.626-6.896L99.464,85.439
				c-3.02-4.714-4.975-9.99,0.076-13.226c6.566-4.206,16.646,5.603,21.983,13.937L130.193,80.595z"/>
			<path fill="#FFFFFF" d="M158.875,51.539c-1.544-4.437-1.363-7.569,0.488-8.637l2.763-1.491l-1.872-5.381L137.5,43.947
				l1.872,5.381l3.186-0.578c2.02-0.28,4.105,2.064,5.649,6.502l11.365,32.667c1.511,4.344,1.709,7.345-0.394,8.604l-2.856,1.522
				l1.872,5.381l22.849-7.948l-1.872-5.382l-3.186,0.578c-2.525,0.351-4.233-2.126-5.744-6.469L165.74,71.27l15.485-5.388
				l4.499,12.936c1.512,4.343,1.709,7.344-0.582,8.67l-2.762,1.49l1.872,5.382l22.754-7.916l-1.872-5.382l-3.092,0.546
				c-2.524,0.35-4.231-2.126-5.743-6.47L184.933,42.47c-1.543-4.438-1.363-7.568,0.488-8.637l2.762-1.491l-1.872-5.382
				l-22.754,7.918l1.872,5.381l3.092-0.546c2.209-0.346,4.294,1.999,5.838,6.438l3.975,11.424l-15.483,5.388L158.875,51.539z"/>
			<path fill="#FFFFFF" d="M244.495,52.151l-0.675-7.065l-9.852,0.94l-1.234-12.938c-0.438-4.578,0.827-7.108,5.902-7.593
				c4.678-0.446,9.028,3.054,9.741,10.519l0.398,4.18l6.27-0.6l-2.071-21.692l-39.108,3.732l0.542,5.673l3.231,0.192
				c2.028,0.209,3.498,2.98,3.944,7.657l3.287,34.432c0.438,4.578-0.074,7.64-2.424,8.267l-3.138,0.801l0.542,5.673l39.108-3.734
				l-2.146-22.488l-6.271,0.599l0.466,4.876c0.59,6.17-0.618,11.406-7.584,12.071c-5.075,0.483-6.843-2.259-7.224-6.239
				l-1.559-16.32L244.495,52.151z"/>
			<path fill="#FFFFFF" d="M308.211,21.443L280.27,17.7l-0.756,5.648l3.104,0.92c1.928,0.662,2.732,3.693,2.109,8.352l-4.594,34.285
				c-0.609,4.559-1.787,7.325-4.23,7.503l-3.237,0.07l-0.757,5.647l24.477,3.277c13.972,1.871,26.095-10.323,28.363-27.27
				C327.84,33.047,320.4,23.075,308.211,21.443z M311.504,53.353c-1.301,9.711-6.237,23.979-13.472,23.01l-4.558-0.61
				c-2.082-0.278-2.755-2.79-2.144-7.348l4.524-33.79c0.609-4.558,1.207-7.504,4.378-7.08l6.737,0.903
				C311.232,29.008,314.171,33.437,311.504,53.353z"/>
			<path fill="#FFFFFF" d="M342.16,33.239l2.849,1.538c1.751,1.044,1.915,4.177,0.349,8.605l-7.903,22.335
				c-5.836,16.491-4.706,25.587,10.184,30.854c9.707,3.436,16.686,0.497,22.954-17.221l8.503-24.031
				c1.269-3.581,3.101-6.962,5.778-6.438l3.182,0.597l1.9-5.371l-18.188-6.437l-1.899,5.371l2.755,1.505
				c2.505,1.312,1.804,5.093,0.537,8.673l-9.07,25.634c-4.202,11.874-8.756,13.655-13.656,11.923
				c-7.633-2.701-6.764-8.756-1.526-23.552l7.102-20.072c1.567-4.43,3.666-6.763,5.685-6.474l3.183,0.597l1.9-5.371l-22.713-8.037
				L342.16,33.239z"/>
			<path fill="#FFFFFF" d="M386.434,97.175c-2.387,3.933-4.575,5.994-6.887,5.177l-2.994-1.233l-2.958,4.87l36.061,21.901
				l10.639-17.518l-5.382-3.27l-2.855,4.698c-2.49,4.103-5.82,4.771-11.803,1.138c-6.236-3.789-5.771-7.25-2.813-12.12
				l16.606-27.344c2.439-4.018,4.97-5.871,6.886-5.176l2.995,1.233l2.958-4.87l-20.594-12.508l-2.958,4.871l2.476,2.087
				c1.5,1.38,1.021,4.48-1.418,8.497L386.434,97.175z"/>
			<path fill="#FFFFFF" d="M460.506,133.156l4.87-5.163l-7.199-6.791l8.916-9.453c3.155-3.346,5.893-4.062,9.603-0.562
				c3.417,3.224,3.65,8.804-1.492,14.257l-2.881,3.055l4.581,4.321l14.953-15.854l-28.581-26.956l-3.909,4.146l1.983,2.559
				c1.181,1.662,0.063,4.596-3.159,8.014l-23.732,25.162c-3.154,3.345-5.794,4.978-7.813,3.621l-2.67-1.83l-3.909,4.146
				l28.578,26.955l15.503-16.436l-4.582-4.32l-3.36,3.562c-4.252,4.51-8.986,7.053-14.077,2.25
				c-3.709-3.498-2.811-6.636-0.066-9.545l11.248-11.926L460.506,133.156z"/>
		</g>
		<g enable-background="new    ">
			<path fill="#010101" d="M44.271,130.68c-8.489-8.758-6.752-20.326,1.216-28.049c2.082-2.019,4.37-3.68,6.154-4.712
				c1.784-1.033,3.137-1.647,3.854-2.343c0.79-0.765,0.735-1.827,0.607-2.677l5.312-5.149l12.271,2.03l14.611,15.075l-4.738,4.593
				l-12.305,0.232c-3.636-2.604-7.917-4.578-10.861-1.726c-2.584,2.505-2.344,5.194-0.257,7.349
				c1.809,1.867,3.638,2.461,10.048-0.55c13.532-6.294,25.89-5.322,36.396,5.519c8.767,9.045,7.719,21.754,0.541,28.713
				c-3.015,2.922-6.582,4.988-8.992,5.375c-1.914,0.322-3.761,0.859-4.694,1.764c-1.005,0.975,0.227,3.539,0.562,4.746l-6.246,6.053
				l-10.862-1.583l-17.187-17.731l6.317-6.123c3.725,1.4,8.656,2.609,11.126,2.859c3.034,0.402,6.929-0.032,9.657-2.676
				c1.508-1.461,2.754-4.342,0.946-6.207c-2.574-2.656-9.786,1.826-14.188,3.03C65.822,140.562,53.733,140.444,44.271,130.68z
				 M51.305,119.407c-2.714-2.8-3.839-7.695,0.181-11.592c3.087-2.992,8.901-4.032,11.793-3.634c2.398,0.32,5.208,1.496,7.798,3.162
				l3.518-3.409L61.515,90.438l-3.518,3.409c-0.016,0.989-0.034,2.12-0.895,2.955c-1.077,1.043-2.501,1.729-3.998,2.483
				c-1.782,0.891-4.569,2.756-6.794,4.913c-7.107,6.889-8.33,17.263-0.954,24.872c6.958,7.18,13.438,8.694,22.543,5.16l7.826-3.13
				c3.344-1.29,8.818-3.255,12.784,0.837c2.783,2.871,3.062,7.612,0.047,10.535c-4.882,4.73-10.767,5.842-15.345,4.709
				c-2.888-0.682-5.137-1.564-7.375-3.156l-3.589,3.479l14.96,15.435l3.589-3.479c-0.607-1.919-1.208-4.119-0.06-5.232
				c1.149-1.113,3.067-1.721,5.483-2.531c2.345-0.74,5.69-2.174,8.418-4.817c7.322-7.097,7.634-17.979-0.229-26.093
				c-8.35-8.615-16.271-8.455-28.388-2.14C59.036,122.356,55.199,123.569,51.305,119.407z M78.646,116.159
				c-2.854,1.652-4.218,2.974-4.953,4.801c-2.064,0.887-3.644,2.418-4.882,4.731c4.926-3.104,8.713-5.662,11.561-6.89
				c5.848,1.293,10.18,4.613,13.669,12.092c-5.433-5.317-11.77-6.972-15.05-5.186c-2.033-1.092-4.778-1.912-10.468,0.262
				c-1.993,0.816-3.644,2.418-4.523,4.384c-2.064,0.886-3.141,1.931-3.518,3.409c-5.805,0.475-9.591-1.564-13.835-5.943
				c-6.61-6.82-5.401-16.346,0.701-22.26c1.866-1.809,3.584-3.197,5.296-4.16c1.854-0.961,4.346-2.124,5.782-3.515
				c1.077-1.044,1.238-2.314,1.182-3.234l1.866-1.809l10.715,11.056l-1.364,1.322c-5.665-3.978-14.925-4.052-20.525,1.375
				c-5.169,5.01-3.489,10.623-0.428,13.781c3.688,3.805,7.281,4.639,13.265,1.762C69.266,119.264,74.471,116.447,78.646,116.159z
				 M68.672,125.548c-6.821,2.155-10.78,2.094-13.491-0.848c-3.119,0.518-6.068-0.801-9.893-4.893
				c1.639,3.703,3.981,7.699,6.696,10.357c4.513,0.777,9.268-0.35,16.4-4.34L68.672,125.548z"/>
		</g>
		<g enable-background="new    ">
			<path fill="#010101" d="M90.296,94.855c-7.28-11.365-4.601-25.903,5.333-32.266c2.862-1.833,5.429-2.647,7.988-3.099
				c2.085-0.267,4.031-0.565,4.536-0.888c0.505-0.324-0.057-1.387-1.028-2.903l7.745-4.961l12.194,3.468l17.31,27.023l-11.449,7.334
				l-10.843-3.027c-6.346-9.352-11.595-13.468-13.279-12.39c-1.852,1.187-0.662,4.341,1.495,7.709l15.045,23.487
				c1.564,2.443,3.646,3.84,5.161,2.869c2.188-1.402,1.002-6.221-3.407-13.846l11.197-7.172l12.14,3.384
				c8.878,17.938,1.187,27.616-8.579,33.871c-12.039,7.712-31.175,3.229-42.553-14.534L90.296,94.855z M131.213,77.55
				l-16.015-25.003l-5.725,3.667c1.401,2.188,1.221,3.018,0.378,3.557c-1.01,0.647-3.125,1.052-4.958,1.157
				c-2.889,0.307-5.402,1.204-7.843,2.768c-10.607,6.794-10.847,21.433-5.186,30.273l8.952,13.975
				c6.578,10.27,18.532,17.811,31.833,9.291c12.207-7.819,11.236-19.901,5.466-28.909l-8.671,5.554
				c5.986,9.345,5.058,14.567,0.007,17.804c-4.967,3.182-10.367-0.244-14.627-6.896l-14.345-22.393
				c-3.02-4.714-4.976-9.992,0.076-13.227c6.567-4.206,16.649,5.603,21.987,13.937L131.213,77.55z M105.328,93.299
				c-1.388,0.06-2.987,1.084-4.041,2.588c1.122,0.825,3.211,1.863,5.252,2.455c0.655,3.618,2.071,8.052,7.19,14.747
				c-6.138-4.022-9.376-7.409-12.662-11.242c0.316-2.101,0.163-4.378-0.033-5.797c-1.977,0.437-3.492,1.408-4.125,2.643
				l-2.966-4.629c-5.986-9.346-5.321-22.95,4.023-28.936c2.525-1.618,5.116-2.207,7.146-2.559c2.668-0.284,4.783-0.689,6.383-1.713
				c1.179-0.755,1.649-2.244,0.463-4.096l2.694-1.726l14.128,22.058l-5.641,3.613c-7.33-10.146-16.653-17.472-23.556-13.05
				c-6.398,4.098-4.072,10.325-0.621,15.712L105.328,93.299z M100.963,95.383c-0.334-1.447-0.601-3.532-0.032-5.795
				c-3.45-2.421-5.745-5.819-8.122-10.827c0.177,5.467,1.358,10.647,2.649,14.332c2.125,0.538,4.161,1.49,5.252,2.452
				L100.963,95.383z"/>
		</g>
		<g enable-background="new    ">
			<path fill="#010101" d="M147.622,52.774c-1.511-4.344-3.293-5.205-5.152-4.771l-3.218,0.484l-3.022-8.686l52.211-18.164
				l10.205,6.821l2.596,7.459l-2.763,1.49c-1.634,0.779-2.455,3.288-0.682,8.386l10.84,31.157l8.929,5.89l2.496,7.176l-24.735,8.605
				l-2.739-1.482l0.756,2.172l-26.436,9.198l-8.801-5.83l-3.022-8.686l3.485-1.848c1.662-1.001,1.403-3.874,0.254-7.179
				L147.622,52.774z M159.896,48.504c-1.543-4.438-1.363-7.57,0.488-8.638l2.763-1.49l-1.872-5.382l-22.754,7.917l1.872,5.382
				l3.187-0.58c2.019-0.278,4.104,2.065,5.648,6.503l11.365,32.666c1.511,4.344,1.708,7.344-0.394,8.604l-2.857,1.523l1.872,5.381
				l22.849-7.949l-1.872-5.381l-3.186,0.579c-2.525,0.349-4.233-2.126-5.744-6.47l-4.5-12.935l15.484-5.387l4.5,12.935
				c1.511,4.344,1.708,7.344-0.582,8.67l-2.764,1.49l1.872,5.381l22.754-7.917l-1.872-5.381l-3.092,0.547
				c-2.524,0.349-4.231-2.126-5.742-6.47l-11.365-32.666c-1.544-4.438-1.364-7.57,0.487-8.638l2.763-1.49l-1.872-5.382
				l-22.754,7.917l1.872,5.382l3.092-0.547c2.208-0.345,4.294,2,5.838,6.437l3.975,11.423l-15.484,5.387L159.896,48.504z
				 M186.285,26.093l0.723,2.077l-2.323,1.231c-2.229,1.198-2.335,5.152-0.43,10.628l5.321,15.294
				c-1.019-0.492-2.341-0.032-3.399,1.183c0.805,1.097,2.627,2.685,4.441,3.641c-0.238,3.576,0.141,8.313,2.271,16.567
				c-3.358-7.827-6.002-11.776-8.408-14.433c0.829-1.875,1.272-4.251,1.317-5.644c-2.435,0-4.605,0.756-6.515,2.266
				c-2.34-0.032-4.512,0.723-6.325,2.201c-2.435,0.001-4.606,0.756-6.42,2.233c-2.435,0.001-4.512,0.724-6.515,2.267
				c0.994,1.031,2.722,2.651,4.536,3.608c-0.237,3.576,0.235,8.28,2.365,16.535c-3.452-7.795-6.002-11.776-8.503-14.399
				c0.925-1.909,1.273-4.252,1.318-5.645c-1.679-0.262-3,0.198-3.493,1.215l-5.321-15.294c-1.904-5.477-4.442-8.511-6.934-8.067
				l-2.587,0.478l-0.723-2.077l19.544-6.8l0.723,2.077l-2.323,1.231c-2.229,1.198-2.335,5.152-0.431,10.629l4.566,13.123
				l18.787-6.537l-4.565-13.123c-1.905-5.477-4.348-8.543-6.934-8.066l-2.492,0.444l-0.723-2.077L186.285,26.093z M159.991,65.51
				c-0.583-3.501-0.201-5.75,0.628-7.626c-2.11-1.806-4.331-4.843-7.456-11.694c1.803,7.311,1.947,11.07,1.318,13.829
				c1.91,0.924,3.605,2.45,5.227,5.59L159.991,65.51z M177.096,53.527l-2.857-8.214l-1.979,1.006
				c-2.167,1.072-2.294,3.444-0.685,8.07l0.328,0.944L177.096,53.527z M182.086,84.6l3.107-1.716
				c1.224-0.743,1.231-2.544-0.148-6.51l-1.183-3.398l-5.192,1.806L182.086,84.6z M186.144,56.411
				c-0.771-3.435-0.296-5.717,0.533-7.594c-2.11-1.806-4.426-4.81-7.55-11.661c1.897,7.278,1.946,11.071,1.413,13.796
				c1.814,0.958,3.604,2.451,5.226,5.591L186.144,56.411z"/>
		</g>
		<g enable-background="new    ">
			<path fill="#010101" d="M217.041,26.426l-3.241-0.292l-0.874-9.155l42.293-4.036l8.729,9.41l2.241,23.484l-10.448,0.997
				l-7.503-8.12l-0.333-3.483c-0.199-2.089-0.811-3.236-2.402-3.084c-1.692,0.161-2.336,1.829-2.056,3.71l0.336,2.479l9.869,10.807
				l0.427,4.478l4.976-0.475l8.749,9.609l2.299,24.082l-43.686,4.169l-7.167-7.752l-0.873-9.154l3.823-0.968
				c1.854-0.578,2.284-3.43,1.951-6.914l-3.238-33.933C220.477,27.705,218.95,26.445,217.041,26.426z M245.515,49.114l-0.674-7.064
				l-9.852,0.94l-1.234-12.937c-0.437-4.578,0.828-7.108,5.903-7.592c4.678-0.446,9.027,3.055,9.74,10.519l0.398,4.179l6.27-0.598
				l-2.07-21.692l-39.107,3.732l0.541,5.672l3.231,0.193c2.028,0.208,3.498,2.98,3.944,7.657l3.285,34.431
				c0.438,4.578-0.074,7.639-2.425,8.265l-3.136,0.802l0.541,5.672l39.107-3.732l-2.146-22.489l-6.27,0.598l0.465,4.875
				c0.589,6.171-0.619,11.407-7.584,12.071c-5.075,0.484-6.844-2.259-7.224-6.24l-1.557-16.32L245.515,49.114z M252.465,16.719
				l1.748,18.31l-2.786,0.266l-0.237-2.487c-0.988-10.35-7.215-12.466-11.692-12.039c-6.667,0.636-7.941,5.176-7.533,9.455
				l1.405,14.728l9.951-0.949l0.228,2.389c-2.364-0.579-4.942-0.232-6.856,0.754c-2.165-0.597-4.563-0.468-6.776,0.547
				c0.721,1.237,2.015,3.222,3.65,4.571c-1.18,3.427-1.838,8.109-1.728,16.634c-1.503-8.392-3.034-12.865-4.841-16.007
				c1.351-1.634,2.246-3.828,2.62-5.169c-1.47-0.664-2.862-0.531-3.683,0.352l-1.538-16.121c-0.722-7.563-2.991-9.255-4.821-9.481
				l-2.625-0.15l-0.209-2.189L252.465,16.719z M229.905,47.591c0.266-3.54,1.17-5.633,2.421-7.259
				c-1.621-2.254-3.058-5.733-4.467-13.129c0.016,7.529-0.737,11.217-2.002,13.747c1.636,1.351,2.92,3.236,3.75,6.67L229.905,47.591
				z M246.334,66.107c0.151,1.593,0.692,3.048,1.688,2.953c1.193-0.114,2.856-2.683,2.296-8.554l-0.151-1.593l-4.478,0.427
				L246.334,66.107z"/>
		</g>
		<g enable-background="new    ">
			<path fill="#010101" d="M284.058,29.354c0.61-4.558-0.59-6.131-2.446-6.581l-3.092-1.02l1.221-9.116l30.619,4.1
				c16.053,2.149,26.508,22.007,23.337,45.69c-2.534,18.926-17.729,30.711-29.026,29.199l-28.537-3.821l-5.228-9.173l1.22-9.116
				l3.944-0.077c1.936-0.145,3.001-2.827,3.465-6.294L284.058,29.354z M281.153,63.865c-0.61,4.559-1.788,7.326-4.232,7.503
				l-3.237,0.071l-0.757,5.648l24.477,3.277c13.971,1.871,26.094-10.326,28.362-27.27c3.091-23.089-4.349-33.062-16.537-34.694
				l-27.944-3.741l-0.756,5.648l3.105,0.92c1.928,0.662,2.733,3.694,2.109,8.352L281.153,63.865z M287.526,29.819
				c1.009-7.531-0.82-9.692-2.551-10.327l-2.523-0.742l0.292-2.18l26.357,3.529c16.549,2.215,16.235,19.624,15.12,30.973
				c-1.282-0.979-2.669-1.165-4.756-0.637c0.903,1.533,1.84,3.575,2.123,5.227c-1.449,5.556-5.112,10.311-10.399,15.15
				c3.622-5.97,4.809-11.057,3.859-16.025c1.646-0.99,3.371-2.574,4.02-4.404c-1.678-1.032-3.264-1.244-4.558-0.61
				c3.035-19.667-0.549-25.29-6.791-26.125l-6.54-0.876c-3.964-0.53-5.426,3.611-6.089,8.565l-2.083,15.557
				c-1.084-0.952-2.272-1.111-3.766-0.504c0.322,1.354,1.234,3.595,2.422,5.267c-1.824,3.084-3.625,7.483-5.347,15.827
				c0.335-8.529-0.145-13.233-0.995-16.676c1.487-1.313,2.855-3.249,3.623-4.458c-1.381-0.992-2.57-1.151-3.567-0.478
				L287.526,29.819z M289.255,46.29c1.159-3.375,2.515-5.212,4.001-6.525c-0.97-2.551-1.582-6.264-1.38-13.802
				c-1.788,7.325-3.355,10.747-4.962,12.953c1.09,1.658,1.914,3.787,2.044,7.334L289.255,46.29z M307.99,25.397
				c4.261,0.57,7.197,4.998,4.531,24.915c-1.3,9.711-6.236,23.979-13.47,23.01l-4.559-0.61c-2.081-0.279-2.754-2.79-2.144-7.348
				l4.524-33.79c0.609-4.558,1.206-7.504,4.377-7.08L307.99,25.397z M308.222,35.716c-1.486-0.199-2.914,1.426-3.299,4.299
				l-3.808,28.439c-0.119,0.892,0.157,1.836,1.148,1.969c1.188,0.159,7.008-8.644,8.573-20.337
				c1.353-10.107,1.15-13.866-0.336-14.065L308.222,35.716z M319.479,50.337c1.368-1.936,2.592-4.293,3.702-6.565
				c-0.506-2.993-1.516-6.76-4.055-14.16c0.108,7.479-0.369,11.046-2.485,13.285c1.545,2.022,2.449,5.068,2.44,7.388L319.479,50.337
				z"/>
		</g>
		<g enable-background="new    ">
			<path fill="#010101" d="M371.048,34.447l0.733-2.073l21.391,7.569l3.801,11.736l-2.635,7.445l-3.184-0.597
				c-1.762-0.412-3.971,1.033-5.771,6.122l-9.504,26.856c-4.968,14.04-15.771,17.003-26.514,13.202
				c-13.004-4.603-21.133-18.188-12.496-42.595l7.902-22.333c1.535-4.335,0.683-6.121-1.041-6.943l-2.814-1.632l3.066-8.669
				l26.104,9.236L371.048,34.447z M343.178,30.205l2.85,1.538c1.751,1.043,1.914,4.177,0.348,8.605l-7.904,22.333
				c-5.835,16.491-4.705,25.585,10.184,30.854c9.705,3.435,16.684,0.496,22.953-17.219l8.502-24.029
				c1.268-3.582,3.1-6.963,5.777-6.438l3.184,0.596l1.9-5.371l-18.188-6.437l-1.9,5.371l2.754,1.506
				c2.506,1.31,1.805,5.091,0.537,8.672l-9.07,25.631c-4.202,11.874-8.756,13.655-13.656,11.921
				c-7.633-2.701-6.764-8.755-1.527-23.55l7.103-20.07c1.567-4.43,3.665-6.763,5.684-6.472l3.183,0.596l1.9-5.371l-22.71-8.036
				L343.178,30.205z M365.62,33.905l-0.733,2.072l-2.584-0.489c-1.829-0.224-4.441,0.866-6.977,8.028l-5.402,15.266
				c-0.109-0.888-1.617-1.421-3.486-1.234c0.133,1.426,0.502,3.678,1.381,5.685c-2.513,2.609-5.084,6.577-7.318,14.693
				c0.633-8.684,0.941-13.451,1.1-16.895c1.947-1.006,3.65-2.524,4.555-3.583c-1.24-1.288-2.748-1.821-3.486-1.233l5.402-15.266
				c2.535-7.162,1.189-9.653-0.373-10.63l-2.316-1.244l0.732-2.072L365.62,33.905z M346.504,57.359
				c1.732-3.098,3.403-4.521,5.35-5.528c-0.611-2.763-0.448-6.522,1.393-13.823c-3.16,6.834-5.396,9.859-7.611,11.622
				c0.88,2.009,1.283,4.165,0.588,7.63L346.504,57.359z M356.461,72.97c-3.502,9.895-2.139,11.438,0.123,12.237
				c1.508,0.533,4.256-2.735,6.89-10.179l8.536-24.125l-3.426-1.106c-2.711-0.429-4.486,1.594-6.088,6.117L356.461,72.97z
				 M388.801,42.109l-0.734,2.072l-1.641-0.157c-4.352-0.586-6.178,2.479-8.012,7.662l-5.402,15.266
				c-0.487-1.021-1.523-1.388-2.639-0.934l5.402-15.266c1.834-5.183,2.119-8.688-1.506-11.03l-1.09-0.811l0.732-2.072
				L388.801,42.109z"/>
		</g>
		<g enable-background="new    ">
			<path fill="#010101" d="M404.723,104.978c-1.4,2.308-0.055,3.943,1.312,4.773c1.623,0.986,4.405-0.131,6.326-3.292l2.905-4.784
				l8.287,5.033l1.167,12.521l-11.572,19.052L373.25,114.05l-1.108-10.498l4.773-7.86l3.644,1.512
				c1.831,0.645,3.882-1.385,5.698-4.375l17.694-29.133c2.387-3.932,1.917-5.854,0.397-7.011l-2.423-2.173l4.773-7.86l23.666,14.374
				l1.238,12.211l-4.1,6.75l-2.908-1.181c-1.643-0.764-4.099,0.2-6.9,4.813L404.723,104.978z M387.449,94.136
				c-2.387,3.932-4.575,5.993-6.885,5.176l-2.994-1.233l-2.957,4.869l36.054,21.897l10.638-17.516l-5.383-3.268l-2.854,4.699
				c-2.49,4.1-5.82,4.769-11.801,1.137c-6.236-3.789-5.772-7.25-2.814-12.119l16.604-27.34c2.439-4.016,4.97-5.87,6.886-5.174
				l2.993,1.232l2.957-4.869l-20.59-12.505l-2.957,4.869l2.475,2.089c1.501,1.379,1.021,4.479-1.418,8.494L387.449,94.136z
				 M406.941,65.51c3.943-6.493,3.135-9.207,1.805-10.481l-2.014-1.691l1.141-1.88l17.686,10.741l-1.141,1.88l-2.43-1.008
				c-1.744-0.593-4.525-0.059-8.469,6.435l-8.406,13.841c-0.439-1.202-1.635-1.929-3.16-1.92c-0.163,1.422-0.312,3.786,0.191,5.847
				c-2.994,2.041-6.322,5.4-11.33,12.299c3.812-7.625,5.26-12.126,5.69-15.725c2.06-0.502,4.089-1.725,5.191-2.576
				c-0.78-1.41-1.892-2.085-3.161-1.92L406.941,65.51z M402.005,81.341c2.328-2.679,4.306-3.816,6.366-4.319
				c-0.037-2.829,0.891-6.476,4.186-13.246c-4.49,6.045-7.299,8.549-9.825,9.82c0.503,2.061,0.405,4.34-0.983,7.59L402.005,81.341z"
				/>
		</g>
		<g enable-background="new    ">
			<path fill="#010101" d="M459.822,93.748l-1.916-2.631l6.31-6.69l30.907,29.148l-1.324,12.767l-16.186,17.163l-7.637-7.201
				l1.164-10.996l2.4-2.545c1.44-1.527,1.899-2.742,0.736-3.84c-1.236-1.166-2.916-0.551-4.146,0.899l-1.642,1.886l-1.625,14.545
				l-3.086,3.271l3.636,3.43l-1.46,12.912l-16.598,17.6l-31.925-30.108l1.107-10.499l6.31-6.689l3.248,2.238
				c1.655,1.013,4.084-0.543,6.485-3.089l23.386-24.798C461.125,97.175,461.066,95.196,459.822,93.748z M461.523,130.115
				l4.869-5.163l-7.199-6.789l8.916-9.454c3.154-3.346,5.891-4.062,9.6-0.563c3.418,3.223,3.652,8.803-1.491,14.256l-2.88,3.055
				l4.581,4.32l14.95-15.853L464.29,86.97l-3.909,4.146l1.984,2.559c1.18,1.662,0.064,4.594-3.16,8.012l-23.729,25.161
				c-3.156,3.345-5.795,4.978-7.814,3.624l-2.67-1.832l-3.909,4.145l28.579,26.953l15.5-16.434l-4.582-4.321l-3.359,3.563
				c-4.253,4.509-8.986,7.051-14.077,2.251c-3.709-3.498-2.812-6.636-0.067-9.545l11.248-11.927L461.523,130.115z M490.467,113.994
				l-12.619,13.38l-2.035-1.92l1.715-1.818c7.133-7.562,4.62-13.641,1.348-16.727c-4.872-4.596-9.127-2.562-12.075,0.565
				l-10.149,10.763l7.271,6.857l-1.646,1.746c-1.123-2.159-3.082-3.87-5.086-4.66c-0.979-2.021-2.655-3.74-4.877-4.736
				c-0.455,1.357-1.095,3.639-1.032,5.758c-3.354,1.371-7.31,3.963-13.647,9.663c5.32-6.661,7.675-10.761,8.848-14.189
				c2.119-0.062,4.359-0.834,5.614-1.437c-0.47-1.541-1.487-2.502-2.69-2.537l11.11-11.781c5.213-5.527,4.989-8.35,3.954-9.874
				l-1.617-2.073l1.509-1.601L490.467,113.994z M449.283,141.928c-1.098,1.164-1.836,2.529-1.109,3.215
				c0.873,0.823,3.9,0.381,7.947-3.909l1.098-1.163l-3.273-3.086L449.283,141.928z M452.382,117.372
				c2.837-2.133,5.009-2.834,7.056-2.965c0.627-2.705,2.296-6.077,6.931-12.012c-5.653,4.975-8.922,6.838-11.658,7.554
				c0.062,2.12-0.51,4.329-2.546,7.218L452.382,117.372z"/>
		</g>
		<g>
			<polygon opacity="0.8" fill="#010101" enable-background="new    " points="22.58,156.023 28.434,168.508 42.035,170.764 
				31.971,180.189 34.031,193.824 21.953,187.164 9.625,193.338 12.227,179.795 2.547,169.973 16.23,168.264 			"/>
			<polygon fill="#FFFFFF" points="20.842,151.91 25.93,164.727 39.369,167.802 28.75,176.602 29.98,190.338 18.33,182.957 
				5.646,188.369 9.066,175.01 0,164.619 13.762,163.742 			"/>
		</g>
		<g>
			<polygon opacity="0.8" fill="#010101" enable-background="new    " points="515.566,156.023 521.422,168.508 535.023,170.764 
				524.957,180.189 527.018,193.824 514.941,187.164 502.611,193.338 505.215,179.795 495.535,169.973 509.217,168.264 			"/>
			<polygon fill="#FFFFFF" points="513.828,151.91 518.916,164.727 532.355,167.802 521.738,176.602 522.967,190.338 
				511.316,182.957 498.635,188.369 502.053,175.01 492.986,164.619 506.75,163.742 			"/>
		</g>
	</g>
</g>
</svg>
