<?xml version="1.0" encoding="utf-8"?>
<!-- Generator: Adobe Illustrator 16.2.1, SVG Export Plug-In . SVG Version: 6.00 Build 0)  -->
<!DOCTYPE svg PUBLIC "-//W3C//DTD SVG 1.1//EN" "http://www.w3.org/Graphics/SVG/1.1/DTD/svg11.dtd">
<svg version="1.1" id="Isolation_Mode" xmlns="http://www.w3.org/2000/svg" xmlns:xlink="http://www.w3.org/1999/xlink" x="0px"
	 y="0px" width="300.509px" height="62.309px" viewBox="0 0 300.509 62.309" enable-background="new 0 0 300.509 62.309"
	 xml:space="preserve">
<g>
	<g>
		<polygon fill="#D9DADB" points="209.493,59.737 209.493,50.912 92.307,50.912 92.307,59.737 5.325,59.737 24.512,35.567 
			5.325,11.396 43.112,11.396 43.112,2.572 258.461,2.572 258.461,11.396 295.83,11.396 280.48,35.567 295.83,59.737 		"/>
		<path d="M255.888,5.143v8.825h35.262l-13.716,21.599l13.716,21.598h-79.084V48.34H89.734v8.824H10.65l17.145-21.598L10.65,13.968
			h35.033V5.143H255.888 M261.031,0h-5.144H45.684H40.54v5.143v3.682H10.65H0l6.621,8.342l14.606,18.4l-14.606,18.4L0,62.309h10.65
			h79.084h5.144v-5.144v-3.681h112.044v3.681v5.144h5.144h79.084h9.36l-5.018-7.901l-11.966-18.841l11.966-18.841l5.018-7.901h-9.36
			h-30.118V5.143V0L261.031,0z"/>
	</g>
	<polygon fill="#B0B4B7" points="89.734,57.165 89.734,13.968 10.65,13.968 27.795,35.567 10.65,57.165 	"/>
	<polygon fill="#B0B4B7" points="291.149,13.968 212.065,13.968 212.065,57.165 291.149,57.165 277.434,35.567 	"/>
	<polygon points="40.48,12.024 40.48,51.503 77.613,59.908 91.653,58.849 49.286,12.024 	"/>
	<polygon points="261.047,11.853 261.047,51.333 223.913,59.737 209.873,58.677 252.24,11.853 	"/>
	<polygon fill="#8B8B8B" points="255.888,5.143 255.888,48.34 212.065,57.165 211.893,13.968 	"/>
	<polygon fill="#8B8B8B" points="45.684,5.143 45.684,48.34 89.507,57.165 89.681,13.968 	"/>
	<rect x="45.684" y="5.143" fill="#D9DADB" width="210.204" height="43.197"/>
</g>
<g>
	<path d="M90.064,18.587l0.297-0.057l0.198,0.085l0.255-0.028l0.156,0.085l0.17,0.057l0.438,0.142l0.17,0.057h0.142l0.298,0.071
		l0.198-0.043l0.17-0.028l0.17,0.071l0.24,0.028l0.198,0.028l0.468-0.028l0.438,0.085l0.198-0.028l0.227-0.028l0.241,0.085
		l0.198-0.028l0.113-0.028l0.552-0.028l0.411,0.028l0.382,0.057h0.566l0.128,0.028l0.17-0.057h0.312h0.495h0.326l0.198,0.057
		l0.142,0.085l0.099-0.113l0.227-0.028l0.227-0.028l0.27,0.057h0.17h0.085h0.24h0.864l0.113,0.227l0.438-0.227h0.17l0.113-0.213
		l0.185-0.085l0.255,0.185h0.438l0.439-0.071l0.142-0.057l0.637-0.028l0.255-0.057h0.213l0.34-0.057l0.297-0.142l0.17-0.028
		l0.113-0.057l0.213,0.085h0.142l0.227,0.085l0.142,0.113l0.028,0.326l-0.028,0.113l-0.057,0.113l-0.085,0.17l-0.028,0.155
		l-0.085,0.227l-0.057,0.17l-0.057,0.439l0.085,0.835l0.057,0.326l-0.028,0.255l0.028,0.24l-0.028,0.17l0.028,0.142l0.028,0.128
		l0.028,0.693l0.028,0.255v0.906l0.113,0.255l-0.028,0.935l-0.113,0.085l-0.085,0.227v0.198l0.057,0.298l0.142,0.198v0.297v0.198
		l-0.113,0.028l-0.028,0.17l-0.085,0.383v0.41l-0.085,0.312l-0.057,0.185l-0.213,0.396l-0.142,0.17l-0.113,0.184l-0.693,0.723
		l-0.113,0.113l-0.27,0.17l-0.198,0.07l-0.325,0.057h-0.198l-0.411-0.127h-0.085l-0.227-0.057l-0.085-0.142l-0.325-0.751v-0.113
		l0.085-0.41l0.24-0.198l0.113-0.128l0.396-0.113h0.213l0.198,0.057l0.198-0.028l0.155-0.17l0.142-0.325l0.113-0.198l0.057-0.142
		l-0.028-0.198l0.057-0.185l0.085-0.198l-0.057-0.438l0.085-0.17l-0.085-0.354l-0.057-0.368l-0.312-0.085l-0.269-0.523l-0.028-0.27
		v-0.255l-0.057-0.297v-0.368l-0.198-0.85l-0.213-0.481l-0.057-0.185l-0.198-0.34l-0.113-0.155v-0.142l-0.17-0.057l-0.155-0.17
		l-0.17-0.326l-0.057-0.113l-0.17-0.113l-0.156-0.085l-0.085-0.085l-0.198-0.028l-0.17-0.155l-0.382-0.028l-0.142,0.028
		l-0.113,0.028l-0.27,0.269l-0.142,0.17l-0.113,0.411l-0.028,0.255l-0.028,1.359l-0.028,0.127l-0.07,0.723v0.312v0.155l0.07,0.609
		l-0.155,0.198l-0.085,0.142v0.523l0.085,0.198l0.155,0.241v0.255v0.269l-0.07,0.396l0.269,0.524v0.17l-0.113,0.269l-0.057,0.354
		l0.028,0.425l-0.028,0.552l-0.07,0.17v0.213l0.127,0.17l-0.057,0.142l-0.07,0.269l0.07,0.085l0.142,0.17l-0.028,0.17l-0.057,0.185
		l0.028,0.368l0.057,0.24l0.028,0.198l-0.085,0.142l-0.028,0.156l0.057,0.113l0.113-0.113l0.283,0.085l-0.057,0.142l0.085,0.438
		l-0.113,0.227l-0.113,0.255l0.057,0.213l0.354,0.396v0.127l-0.028,0.17l0.227,0.227l0.057,0.213l0.354,0.608l0.581,0.496
		l0.608,0.142l0.227,0.085h0.17l0.241-0.142l0.085-0.156v-0.51L103.432,35l0.142-0.142l0.212-0.27l0.255-0.057l0.113-0.028
		l0.128-0.028l0.198,0.028l0.17,0.028l0.17,0.057l0.184,0.085l0.255,0.354l0.085,0.297l0.057,0.34v0.142l-0.113,0.213l-0.028,0.17
		l-0.057,0.113l-0.085,0.085l-0.113,0.212l-0.085,0.142l-0.184,0.17l-0.283,0.241h-0.113l-0.27-0.071l-0.227,0.439l-0.269,0.212
		h-0.142l-0.255,0.113l-0.298-0.269l-0.142,0.057l-0.608,0.184l-0.609-0.028l-0.467-0.057h-0.396l-0.298-0.042l-0.227-0.057
		l-0.495-0.085l-0.581-0.028l-0.17-0.142h-0.269l-0.142,0.028l-0.085-0.113l-0.142-0.028l-0.383-0.028l-0.17-0.085l-0.608-0.1H96.79
		l-0.552,0.071l-0.723-0.043l-0.17,0.071l-0.24,0.057l-0.17-0.028l-0.227-0.1l-0.27,0.213l-0.552,0.17l-0.17,0.085l-0.227,0.184
		l-0.185,0.057l-0.113,0.255l-0.085,0.085l-0.142,0.142l-0.382,0.241l-0.425-0.028h-0.156l-0.34-0.383l-0.113-0.057l-0.042-0.227
		l-0.057-0.212v-0.227l0.099-0.298l0.057-0.113l0.227-0.312l0.496-0.495l0.113-0.113l0.354-0.27l0.113-0.028l0.113,0.113
		l0.227-0.142l0.028-0.198l0.439-0.24l0.142-0.057l0.24-0.142l0.17-0.057l0.255-0.085l0.185-0.17l0.057-0.213h0.142l0.17-0.283
		l0.057-0.17l0.127-0.382v-0.113v-0.156l0.085-0.255l-0.085-0.227l0.057-0.24v-0.425l-0.142-0.241l0.057-0.255l0.142-0.24v-0.17
		V31.29l0.113-0.241V30.85l-0.057-0.17l-0.028-0.17v-0.184l0.17-0.524l-0.028-0.34l-0.085-0.142l-0.028-0.184v-0.283l0.227-0.468
		v-0.255l-0.17-0.057l-0.227-0.127l0.085-0.255l0.198-0.142l0.028-0.156l0.028-0.113v-0.085l-0.113-0.142l0.028-0.198l-0.028-0.41
		l0.085-0.142l0.085-0.241l-0.028-0.17l0.028-0.17l-0.028-0.155l-0.028-0.17l0.057-0.198l-0.028-0.411l-0.028-0.142l-0.142-0.354
		l-0.028-0.198l0.142-0.524l-0.028-0.807l-0.028-0.27l-0.028-0.198l-0.057-0.665l-0.028-0.298l-0.028-0.198l-0.495-0.283
		l-0.17,0.085l-0.666,0.312l-0.495,0.468l-0.17,0.325l-0.185,0.198l-0.028,0.113l-0.255,0.354l-0.057,0.113l-0.155-0.27l-0.17,0.1
		l0.085,0.255l-0.057,0.325l-0.085,0.142l-0.113,0.142l0.028,0.198l0.057,0.27l-0.113,0.227l-0.241,0.523l-0.142,0.468l-0.028,0.198
		l-0.028,0.17l-0.057,0.24l-0.057,0.17l0.028,0.27l-0.028,0.198v0.142l-0.028,0.142v0.127l-0.028,0.142v0.17l-0.028,0.836
		l0.113,0.297l0.057,0.17l0.057,0.185l0.27,0.198l0.198,0.028h0.41l0.255,0.085l0.326,0.382l0.057,0.34v0.185l-0.1,0.396
		l-0.085,0.17l-0.085,0.07l-0.198,0.198L92.5,30.935h-0.113l-0.27,0.057l-0.453-0.028l-0.325-0.085l-0.113-0.085l-0.113-0.085
		l-0.439-0.467l-0.17-0.198l-0.057-0.298l-0.085-0.142l-0.042-0.227l-0.142-0.057v-0.24l-0.113-0.17l-0.085-0.298L89.951,28.5
		l-0.028-0.198l-0.028-0.198l-0.028-1.218V26.73l0.028-0.283l-0.241-0.113l-0.085-0.185l-0.113-0.312l0.057-0.198l0.085-0.354
		l0.113-0.17l0.1-0.27v-0.17l0.057-0.227l0.198-0.495l0.057-0.666l0.057-0.212l-0.085-0.255l0.085-0.17v-0.156l0.085-0.481
		l-0.028-0.269l0.028-0.227v-0.496l-0.142-0.722l-0.085-0.241l-0.085-0.085l-0.113-0.142l-0.128-0.269l-0.028-0.142l-0.028-0.255
		l0.028-0.142l0.213-0.298L90.064,18.587z"/>
	<path d="M112.479,16.463l0.524,0.028l0.198-0.028l0.155,0.057l0.142,0.028l0.227,0.043l0.128,0.085l0.113,0.028l0.113,0.142
		l0.17,0.028l0.17,0.142l0.155,0.113l0.368,0.438l0.128,0.213l0.028,0.17l0.028,0.113l0.057,0.495l-0.057,0.113v0.142l-0.028,0.241
		l-0.1,0.113l-0.113,0.198l-0.227,0.142l-0.17,0.127l-0.708,0.028l-0.283-0.41l-0.085-0.326l0.113-0.425v-0.269l-0.085-0.113
		l-0.142-0.142l-0.212-0.028l-0.142-0.028l-0.17,0.085l-0.185,0.057l-0.227,0.255l-0.17,0.325l-0.24,0.638l-0.028,0.17v0.155
		l-0.057,0.34v0.198l-0.057,0.27l0.085,0.17l-0.028,0.269l-0.085,0.255l0.028,0.354l-0.028,0.425l-0.028,0.24l0.113,0.921
		l0.142,0.325l0.41,0.028l0.354-0.382l0.057-0.142l-0.057-0.468l0.028-0.142l0.057-0.17l0.17-0.269l0.17-0.085l0.523-0.057
		l0.185,0.028l0.17,0.113l0.17,0.028l0.325,0.212l0.425,0.34l0.156,0.085l0.057,0.128l0.312,0.142l0.325,0.227l0.524,0.113
		l0.198,0.155h0.085l0.382,0.227l0.113,0.057l0.283,0.057l0.128,0.113l0.283,0.128l0.142,0.17v0.396l-0.057,0.127l-0.255,0.283
		l0.113-0.142l-0.227,0.17l-0.085,0.113l-0.1,0.241l-0.113,0.608l-0.027,0.581v0.198v0.41l0.027,0.312l-0.057,0.694l-0.057,0.325
		l0.028,0.255v0.383l0.085,0.142v0.212l-0.085,0.113l-0.085,0.255l0.199,0.27l0.057,0.637v0.142l-0.057,0.468l0.057,0.425
		l-0.029,0.155v0.227l0.057,0.113l0.057,0.638l0.043,0.24l0.113,0.312v0.213l0.085,0.227l0.283,0.312l-0.057,0.354l-0.425,0.298
		l-0.354,0.028l-0.255,0.17l-0.127,0.057l-0.581,0.255l-0.17,0.184l-0.113,0.057l-0.142,0.113l-0.184,0.17l-0.085,0.085
		l-0.227,0.439l-0.057,0.17l-0.028,0.438v0.198l0.057,0.27l0.396,0.523l0.127,0.057l0.17,0.142l0.057,0.113l0.113,0.185l0.085,0.481
		l-0.142,0.58l-0.34,0.326l-0.184,0.057l-0.198,0.057h-0.113l-0.213,0.028l-0.481-0.17l-0.438-0.468l-0.085-0.227l-0.113-0.269
		l-0.1-0.34v-0.213l-0.028-0.396v-0.155l0.057-0.538l0.156-0.524v-0.085l0.057-0.24l0.085-0.227V35.58l0.057-0.255l0.028-0.127
		l0.028-0.227l0.028-0.326l-0.028-0.312l-0.085-0.467v-0.368l-0.028-0.524l0.028-0.297l-0.057-0.142v-0.694l-0.057-0.552
		l-0.028-0.142l-0.085-0.326l-0.071-0.438l0.043-0.17l-0.071-0.227v-0.524l-0.057-0.17v-0.24l0.028-0.34l-0.085-0.213l0.057-0.255
		l0.057-0.523l0.028-0.17l0.156-0.736l0.113-0.453l0.142-0.354l0.085-0.283l-0.142-0.127l-0.439-0.198l-0.227-0.057l-0.665-0.411
		l-0.142-0.198l-0.439,0.298l0.028,0.113l-0.085-0.057l-0.212,0.552l-0.028,0.255l-0.028,0.283l-0.028,0.85l0.028,0.17l0.085,0.142
		l-0.057,0.411v0.113l0.028,0.438l0.028,0.411l0.042,0.085v0.283l0.028,0.269l-0.028,0.978l-0.042,0.212v0.142l0.042,0.113v0.609
		v0.113l-0.07,0.24l0.07,0.113v0.283l0.085,0.298l0.057,0.283l0.142,0.325l0.113,0.142l0.057,0.085l0.028,0.213l0.383,0.028
		l0.41,0.198l0.113,0.227l-0.028,0.155l0.028,0.142l-0.085,0.198l-0.113,0.085l-0.099,0.213l-0.198,0.142l-0.142,0.085l-0.27,0.227
		l-0.227,0.057l-0.113,0.099l-0.212,0.057l-0.255,0.17l-0.113,0.255v0.185l0.085,0.198l0.057,0.142l0.028,0.155v0.198l-0.057,0.368
		l-0.255,0.241l-0.354,0.057h-0.113l-0.41-0.142l-0.198-0.085l-0.27-0.185l-0.312-0.255l0.113,0.028l-0.227-0.17l-0.127-0.028
		l-0.142-0.155v-0.113l-0.425-0.283l-0.298-0.156l-0.17-0.028l-0.155-0.028l-0.113-0.113l-0.553-0.085l-0.142-0.142l-0.085-0.184
		l-0.028-0.396l0.057-0.213l0.255-0.255l0.27-0.142l0.142-0.113l0.142-0.099l0.028-0.142l0.155-0.496l0.057-0.312v-0.142
		l0.028-0.155l-0.028-0.198l-0.113-0.411l0.028-0.17l0.113-0.283l0.028-0.24l-0.028-0.312l0.085-0.298v-0.142l-0.085-0.198v-0.184
		l-0.028-0.085v-0.312l-0.113-0.383l-0.07-0.142l0.07-0.269l0.028-0.142l0.17-0.227V28.5l-0.028-0.142l0.028-0.382l0.028-0.142
		l0.028-0.227l-0.17-0.609l0.085-0.269l0.028-0.113l-0.028-0.312l-0.028-0.213v-0.198l0.028-0.17l-0.057-0.184l0.028-0.113
		l-0.113-0.17v-0.142l-0.028-0.185l0.028-0.34l0.113-0.297l0.028-1.062l-0.028-0.127l-0.057-0.17l-0.028-0.312v-0.1v-0.255
		l0.085-0.297l0.028-0.283l0.057-0.142V21.25v-0.255l-0.028-0.085v-0.127l-0.028-0.17l-0.057-0.34l0.028-0.439l-0.028-0.142v-0.184
		v-0.113l-0.113-0.34l-0.028-0.213l-0.155-0.17l-0.113-0.113l-0.496-0.467l0.028-0.17l-0.028-0.185l0.028-0.142l0.128-0.057
		l0.113-0.142l0.227-0.028l0.382-0.057l0.17,0.057l0.298,0.142l0.198,0.028l0.17,0.142l0.354,0.298l0.283,0.312h0.213l0.34-0.666
		l0.198-0.312l0.41-0.382l0.496-0.255l0.552-0.213H112.479z"/>
	<path d="M126.867,21.887l0.523-0.057l0.17,0.085l0.297,0.099l0.256,0.283l0.141,0.198l0.086,0.156l0.184,0.113l0.113,0.085
		l0.085,0.17l0.113,0.142l0.212,0.155l0.17,0.085l0.113,0.085l0.666,0.142l0.354,0.085l0.227,0.354l-0.027,0.255l-0.057,0.269
		l-0.283,0.255l-0.27,0.185l-0.17,0.113l-0.085,0.142l-0.085,0.41v1.884l-0.1,0.34l-0.027,0.325v0.17l0.027,0.17l0.057,0.765
		l0.043,0.198v0.142v0.213v0.113l0.028,0.113l0.028,0.113l-0.057,0.17v0.155l0.113,0.283l-0.113,0.17v0.185l0.198,0.283
		l-0.113,0.212l-0.028,0.283l0.113,0.227l-0.085,0.241v0.198l0.028,0.297l0.113,0.581l0.142,0.057l0.269,0.028l0.227,0.085
		l0.143,0.142l0.113,0.17v0.24l-0.17,0.425l-0.143,0.128l-0.354,0.368l-0.368,0.24l-0.185,0.198l-0.113,0.326l-0.084,0.17
		l0.17,0.142l0.084,0.269l0.043,0.113l-0.1,0.368l-0.141,0.241l-0.312,0.113l-0.155,0.028h-0.17h-0.198l-0.297-0.085l-0.199-0.085
		l-0.141-0.028l-0.383-0.241l-0.283-0.113l-0.184-0.17l-0.17-0.184l-0.227-0.255l-0.128-0.142l-0.028-0.142l-0.113-0.156
		l-0.113-0.085l-0.17-0.057l-0.156-0.028l-0.057-0.113l-0.113-0.113l-0.141-0.057l-0.524-0.099l-0.411,0.155l-0.141,0.142
		l-0.143,0.383v0.227l0.113,0.17l0.199,0.325l0.099,0.198l-0.028,0.198l-0.07,0.156l-0.17,0.198l-0.34,0.142l-0.383-0.028
		l-0.17-0.028l-0.326-0.085l-0.113-0.057l-0.41-0.241l-0.17-0.113l-0.17-0.085l-0.113-0.085l-0.354-0.255l-0.143-0.184l-0.637-0.396
		l-0.213-0.185h-0.113l-0.113-0.057l-0.325-0.113l-0.312-0.085l-0.17-0.17l-0.07-0.212l0.042-0.255l0.057-0.113l0.142-0.241
		l0.467-0.552l0.086-0.198l0.027-0.17l0.057-0.354v-0.41l-0.027-0.538l-0.086-0.185l0.029-0.17l0.027-0.227l-0.057-0.24l0.143-0.113
		v-0.411l0.057-0.227l-0.029-0.142l-0.027-0.155l0.057-0.17l-0.029-0.396l0.029-0.185v-0.142l-0.113-0.17v-0.155l0.057-0.227
		l-0.029-0.581l-0.027-0.312l-0.199-0.325l0.086-0.283l0.084-0.185v-0.198l0.029-0.495l-0.029-0.198l-0.057-0.241l-0.027-0.198
		l-0.156-0.113h-0.142l-0.085-0.142h-0.312l-0.325-0.325l-0.029-0.198l0.143-0.496l0.113-0.142l0.736-0.765l0.084-0.113l0.143-0.17
		l0.17-0.255v-0.184l-0.113-0.17l-0.086-0.283l0.029-0.185l0.227-0.495l0.297-0.057h0.283l0.184,0.028l0.369,0.127l0.084,0.085
		l0.241,0.198l0.17,0.113l0.552,0.468l0.113,0.113l0.199,0.085l0.184,0.085l0.142,0.127l0.325,0.113l0.029,0.142h0.17l0.311,0.17
		l0.029,0.213v0.283l-0.113,0.212l-0.143,0.142l-0.197,0.283l-0.029,0.113v0.128l-0.057,0.198l0.029,0.198l0.057,0.85v0.17
		l-0.086,0.41l0.057,0.396V28.5v0.213l-0.027,0.396l0.027,0.467l0.057,0.354l0.029,0.227l0.027,0.198l-0.057,0.155l0.029,0.51
		l-0.029,0.241l-0.027,0.523l-0.128,0.553l-0.085,0.17l-0.142,0.227l-0.085,0.382l0.113,0.198l0.354,0.028l0.113,0.028l0.113,0.057
		l0.439,0.028l0.113,0.071l0.227,0.028l0.326,0.057l0.254,0.057l0.439,0.085l0.227-0.142l-0.028-0.383l-0.198-0.17l-0.198-0.325
		l-0.113-0.694l0.028-0.665v-0.142l0.057-0.213v-0.085l0.028-0.312l-0.028-0.325l0.028-0.113l0.028-0.383l0.028-0.142l0.085-0.368
		l0.17-0.24l-0.198-0.057l-0.057-0.17l-0.057-0.326l0.028-0.227v-0.41l0.057-0.524v-0.142l0.028-0.142v-0.142l-0.028-0.184
		l-0.057-0.453l-0.085-0.213l-0.241-0.113l-0.17-0.113l-0.325-0.17l-0.17-0.269l-0.028-0.17l0.057-0.439l0.184-0.312l0.143-0.212
		l0.141-0.085l0.086-0.113l0.17-0.17l0.099-0.185l0.227-0.17l0.227-0.057l0.212-0.057l-0.127-0.198l-0.17-0.297l-0.057-0.255
		l0.028-0.156l0.057-0.198l0.269-0.312L126.867,21.887z"/>
	<path d="M133.352,21.859h0.411l0.17,0.028l0.099,0.028l0.227,0.028l0.143,0.028l0.325,0.07l0.255,0.085l0.27,0.085l0.254,0.17
		L136,22.793l0.085,0.17l0.382,0.58l0.113,0.198l0.143,0.128h0.227l0.269-0.071l0.283-0.283l0.269-0.283l0.086-0.382l-0.029-0.142
		v-0.156l0.057-0.17l0.199-0.312l0.212-0.127h0.198l0.113-0.028l0.326,0.057l0.113,0.042l0.113,0.113l0.254,0.198l0.213,0.085
		l0.255,0.27l0.142,0.057l0.467,0.198l0.113,0.028l0.213,0.057h0.142l0.283,0.24l0.155,0.255l0.057,0.198v0.128l-0.027,0.113
		l-0.241,0.368l-0.17,0.24l-0.17,0.142l-0.113,0.227l-0.438,0.326l-0.086,0.17l-0.325,0.523v0.113l-0.028,0.185l0.028,0.142
		l-0.028,0.227l-0.028,0.325l-0.283,0.368l-0.128,0.085l-0.17,0.071l-0.197-0.043l-0.27-0.028l-0.227-0.227l-0.198-0.382
		l-0.085-0.453v0.113l-0.07-0.326l-0.17-0.368l-0.057-0.113l-0.17-0.184l-0.298-0.17h-0.198l-0.198,0.028l-0.185,0.142l-0.057,0.184
		l-0.027,0.142l-0.029,0.198l0.029,0.723v0.085l0.027,0.212l0.029,0.17l0.027,0.411l0.029,0.255l0.184,0.269l-0.057,0.198
		l-0.1,0.198l-0.027,0.213l-0.057,0.142v0.198v0.142l0.027,0.155l0.128,0.142v0.921l-0.042,0.127l-0.057,0.425l0.155,0.496
		l-0.057,0.198l-0.071,0.155l-0.113,0.312l-0.084,0.241l-0.143,0.028l-0.113,0.113l-0.027,0.198l-0.1,0.142l-0.085,0.297
		l0.212,0.085h0.143l0.197,0.057l0.143,0.028l0.127,0.028l0.368,0.028l0.185,0.028l0.227,0.057l0.41,0.043l0.312,0.085l0.354,0.113
		l0.197,0.495l-0.057,0.312l-0.254,0.354l-0.439,0.255l-0.821,0.297l-0.198,0.085l-0.17,0.057l-0.142,0.142l-0.057,0.213v0.142
		l0.113,0.283l0.028,0.297v0.227l-0.028,0.17l-0.241,0.185l-0.424,0.198l-0.27-0.028l-0.523-0.227l-0.143-0.1l-0.17-0.142
		l-0.184-0.085l-0.17-0.227l-0.142-0.057l-0.198-0.155l-0.24-0.17l-0.143-0.057h-0.325l-0.312-0.354l-0.297-0.085l-0.227-0.113
		h-0.199l-0.269-0.142l-0.34-0.184l-0.155-0.17l-0.029-0.227l0.071-0.17l0.198-0.298l0.312-0.113l0.155-0.113l0.143-0.184
		l0.141-0.227v-0.411l0.029-0.142l0.027-0.113l-0.057-0.552l0.086-0.17l0.057-0.156l0.027-0.693l-0.057-0.312v-0.241l-0.113-0.227
		l-0.027-0.142l0.057-0.41l0.113-0.283l-0.057-0.411l0.084-0.227l0.071-0.212l-0.071-0.255l-0.113-0.468l0.241-0.142l-0.155-0.269
		l-0.029-0.113l0.029-0.085l-0.029-0.326l-0.027-0.142l0.027-0.495l-0.027-0.198v-0.283l-0.057-0.213l-0.143-0.142l-0.113-0.085
		l-0.155-0.085l-0.113-0.057l-0.495-0.057l-0.113-0.07l-0.113-0.113l-0.086-0.255v-0.113l0.029-0.185l0.113-0.227l0.084-0.142
		l0.213-0.24l0.17-0.17l0.085-0.113l0.113-0.113l0.155-0.156l0.113-0.255l0.143-0.382l-0.113-0.312l-0.029-0.113l-0.084-0.185
		v-0.227l0.227-0.41L133.352,21.859z"/>
	<path d="M147.215,21.547l0.17,0.028l0.496,0.17l0.113,0.085l0.127,0.085l0.368,0.155l0.142,0.085l0.24,0.113l0.143,0.085
		l0.467,0.227l0.863,0.496l0.326,0.028l0.396-0.198l0.354-0.142l0.283,0.028h0.128l0.17,0.113l0.17,0.325l-0.028,0.312l-0.028,0.142
		l-0.312,0.439l-0.41,0.283l-0.143,0.07l-0.212,0.142l-0.198,0.113l-0.227,0.17l-0.24,0.085l-0.029,0.213l-0.113,0.113l-0.027,0.227
		l0.027,0.155l0.029,0.255l-0.086,0.298l-0.113,0.142l-0.184,0.085l-0.312,0.028l-0.198-0.028l-0.553-0.17l-0.127-0.156
		l-0.113-0.028l-0.17-0.142l-0.666-0.467l-0.41-0.312l-0.255-0.241l-0.269-0.198l-0.113-0.142l-0.113-0.028l-0.383-0.354
		l0.156,0.382l0.057,0.283v0.128v0.396l-0.029,0.212l-0.027,0.198v0.34v0.185l0.027,0.312l0.113,0.269l0.34,0.227l0.156,0.028
		l0.142,0.028l0.085,0.057h0.227l0.523,0.185l0.213,0.028l0.666,0.142h0.227l0.382,0.198l0.425,0.113l0.213,0.155l0.227,0.057
		l0.141,0.028l0.213,0.057l0.255,0.142l0.325,0.411l0.086,0.425l-0.057,0.184l0.084,0.198l-0.057,0.298l-0.027,0.368l0.027,0.113
		l0.029,0.523l-0.086,0.27v0.255v0.113l-0.084,0.552l0.027,0.142l-0.027,0.128v0.113v0.467l0.027,0.142v0.312l0.057,0.185
		l0.227,0.17l0.057,0.17v0.113l-0.141,0.297l-0.256,0.255h-0.155l-0.453,0.057l-0.354,0.156l-0.227,0.028h-0.297l-0.383,0.142
		l-0.283,0.17l-0.325-0.085l-0.113,0.227l-0.227,0.127l-0.608,0.198l-0.143,0.113l-0.297,0.439l0.113,0.41v0.113l-0.085,0.34
		l-0.255,0.27l-0.354,0.113l-0.227-0.028l-0.185,0.028l-0.694-0.255l-0.227-0.185l-0.297-0.142l-0.085-0.085l-0.227-0.17
		l-0.085-0.057l-0.297-0.269l-0.113-0.113l-0.17-0.142l-0.17-0.128l-0.439-0.255l-0.326-0.113h-0.495l-0.425,0.312l-0.113,0.326
		l-0.07,0.227l0.042,0.325l0.057,0.113l0.113,0.113l0.227,0.113l0.142-0.028l0.27-0.085l0.113-0.085h0.269l0.255,0.085l0.17,0.17
		l0.113,0.128l0.07,0.113l0.029,0.368l-0.029,0.099l-0.07,0.198l-0.17,0.283l-0.255,0.27l-0.524,0.113h-0.212h-0.312l-0.17-0.085
		l-0.127-0.028l-0.113,0.028l-0.143-0.113l-0.227-0.156l-0.438-0.396l-0.085-0.113l-0.085-0.155l-0.185-0.453v-0.156l-0.084-0.481
		l-0.029-0.325v-0.198l0.113-0.383l0.1-0.312l0.085-0.184l0.057-0.113l0.227-0.468l0.113-0.085l0.185-0.085l0.367-0.283l0.411-0.269
		l0.227-0.17l0.113-0.085l0.155-0.241l0.113-0.227l0.029-0.17l-0.029-0.24l0.086-0.283l0.382-0.383l0.283-0.057l0.608,0.057
		l0.213,0.113l0.368,0.185l0.382,0.227l0.312,0.227l0.113,0.127l0.297,0.198l0.255-0.085l0.241,0.255l0.693,0.411l0.383,0.142
		l0.34,0.028l0.197-0.028l0.1-0.113l0.085-0.198l-0.438-0.524l-0.199-0.438l-0.027-0.142l-0.029-0.27l0.057-0.722l-0.057-0.439
		l-0.155-0.085l-0.368-0.142l-0.213-0.057l-0.197-0.113l-0.227-0.057l-0.241-0.057l-0.085-0.127l-0.637-0.113h-0.199l-0.325-0.142
		l-0.524-0.198l-0.17-0.1L144,29.746l-0.552-0.312l-0.17-0.212l-0.325-0.396l-0.086-0.241l-0.057-0.608l-0.027-0.312v-0.383v-0.368
		l0.084-0.297l0.029-0.142l0.027-0.17l-0.027-0.241l0.057-0.227l-0.086-0.142l0.029-0.212l0.113-0.227l-0.113-0.198l-0.086-0.411
		l-0.354-0.269l-0.057-0.142l0.028-0.312l0.113-0.185l0.185-0.142l0.254-0.085h0.113l0.143,0.028l0.297-0.057l0.113-0.028
		l0.439-0.113l0.34,0.085l0.184-0.057l0.17-0.085l0.354-0.099h0.227l0.354-0.057l0.142-0.057l0.113-0.028l0.227-0.085l0.085-0.113
		l0.071-0.198l-0.071-0.298l0.042-0.142l0.057-0.17l0.312-0.325l0.24-0.113L147.215,21.547z"/>
	<path d="M157.977,15.246h0.637l0.085,0.156l0.113-0.071l0.113,0.128l0.099,0.142l0.17,0.255l0.029,0.24v0.34l-0.057,0.27
		l-0.113,0.085l-0.128,0.17l-0.113,0.028l-0.255,0.354l-0.057,0.113l-0.028,0.354l0.085,0.481l0.198,0.438l0.113,0.227l0.155,0.241
		l0.227,0.227l0.086,0.212l0.17,0.113l0.24,0.255l0.113,0.085l0.198,0.27v0.113l-0.085,0.227l0.297,0.325l0.113,0.142l0.256,0.241
		l0.141,0.085l0.27,0.057l0.113,0.17l0.17,0.227l0.24,0.212l0.17,0.198l0.113,0.227l0.113,0.156l0.326,0.227l0.113,0.142
		l0.113,0.057l0.085,0.127l0.241,0.17l0.227,0.17l0.212,0.326l0.028,0.17l0.028,0.227l-0.185,0.24l-0.027,0.17l-0.057,0.085
		l-0.17,1.303v0.326v0.665l0.027,0.17v0.113l0.057,0.354v-0.142l-0.084,0.396v0.269l-0.113,0.057l0.141,0.085v0.411l0.113,0.142
		v0.142l-0.027,0.41l-0.143,0.255v0.128l0.057,0.198l0.086,0.142v0.693l-0.029,0.185v0.17v0.255l0.057,0.24l0.029,0.553
		l-0.057,0.312l0.084,0.467l0.326,0.468l0.113,0.368l-0.198,0.325l-0.085,0.057l-0.383,0.085l-0.269,0.028l-0.34,0.057l-0.298,0.057
		h-0.254l-0.326,0.128l-0.227,0.028l-0.113,0.028l-0.085,0.085h-0.113l-0.552,0.198l-0.156,0.085l-0.227,0.113l-0.383,0.184
		l-0.141,0.142l-0.369-0.028l-0.184,0.198l0.439,0.793l0.027,0.255l-0.057,0.227l-0.297,0.326l-0.198,0.028l-0.142,0.028h-0.142
		l-0.128-0.028l-0.197-0.028l-0.283-0.113l-0.213-0.085l-0.255-0.128l-0.113-0.028l-0.382-0.227l-0.17-0.17l-0.553-0.382
		l-0.113-0.057l-0.127-0.113l-0.143-0.028l-0.197-0.156l-0.326-0.142l-0.227-0.113l-0.326-0.113l-0.197-0.028l-0.312-0.057
		l-0.212-0.057l-0.227-0.155l-0.113-0.113l-0.128-0.255v-0.156l0.156-0.312l0.085-0.227l0.283-0.382l0.085-0.326v-1.033l0.07-0.241
		l-0.07-0.453l0.1-0.382l-0.071-0.468l-0.085-0.283V30.44l0.028-0.198l0.028-0.17l0.127-0.383l0.029-0.34l-0.029-0.765l-0.057-0.807
		l0.029-0.227l-0.029-0.694l-0.042-0.127l-0.057-0.142v-0.142l0.128-0.085v-0.113l-0.071-0.156l0.042-0.17l0.029-0.113l-0.071-0.325
		l-0.142-0.17l-0.198-0.057l-0.227-0.326V24.62l0.17-0.212l0.142-0.085l0.113,0.028l0.113-0.057h0.326l0.227-0.028l0.184-0.028
		l0.227-0.085l0.142,0.028l0.155-0.028l0.17-0.057l0.283-0.142l0.213-0.057l0.453-0.27l0.297-0.198l0.256-0.142l0.155-0.057
		l0.283-0.07l0.227,0.127l0.185,0.227l-0.029,0.198l-0.057,0.241l-0.212,0.425l-0.028,0.184l-0.028,0.255l0.028,1.048l0.028,0.255
		l0.142,0.326l-0.085,0.227l0.028,0.297l0.028,0.312l0.028,0.524v0.142v0.155l-0.085,0.425l-0.113,0.27l0.028,0.142l0.057,0.438
		l0.028,0.283v0.694l0.028,0.24l0.028,0.17l-0.028,0.666l-0.028,0.297l-0.227,0.453l-0.085,0.156l-0.113,0.142l-0.213,0.17
		l-0.197,0.24v0.142h0.197l0.185,0.028l0.312,0.255l0.227,0.113l0.213,0.156h0.254l0.185,0.057l0.921,0.198l0.197,0.057l0.185-0.057
		l0.17-0.17l0.057-0.113v-0.213l-0.057-0.113l-0.468-0.34l-0.084-0.297l-0.029-0.142l-0.027-0.17v-0.213l-0.086-1.798v-0.439v-0.142
		v-0.312l0.029-0.523l0.113-0.057l0.027-0.142l-0.084-0.156l-0.057-0.523V27.75l0.057-0.638v-0.17l0.141-0.382l0.029-0.17
		l-0.086-0.27l0.086-0.255v-0.198l0.113-0.467l0.099-0.142l0.142-0.1l-0.028-0.198l-0.438-0.142l-0.468-0.212l-0.085-0.17
		l-0.142-0.113l-0.411-0.354l-0.17-0.312l-0.325-0.382l-0.113-0.17l-0.17-0.283l-0.057-0.128l-0.298-0.396v-0.212l-0.311-0.113
		l0.057-0.34l-0.326-0.028l-0.142-0.185l-0.255-0.34l-0.113-0.269l-0.1-0.142l-0.283-0.198l-0.084-0.128l-0.185-0.085l-0.227-0.085
		l-0.34-0.028l-0.325,0.17l-0.199,0.1l-0.184,0.085l-0.255,0.028l-0.468-0.298l-0.027-0.198l0.084-0.637l0.057-0.142l0.156-0.028
		l0.113-0.156l0.467-0.198l0.057-0.113l0.524-0.142h0.113l0.255-0.099l0.297,0.028l0.17-0.057l0.383,0.028l0.368,0.127l0.17,0.113
		l0.298,0.113l0.113,0.17l0.354-0.028l-0.496-1.161V17.54l-0.057-0.17l-0.057-0.665l0.143-0.496l0.084-0.142l0.113-0.354
		l0.185-0.085l0.198-0.198l0.198-0.057L157.977,15.246z"/>
	<path d="M170.07,21.689h0.17l0.382,0.085l0.438,0.198l0.524,0.325l0.368,0.326l0.213,0.085l0.17,0.227l0.197,0.028l0.086,0.17
		l0.212,0.155l0.524,0.17l0.141,0.113l0.199,0.057l0.113-0.028h0.184l0.283,0.057l0.27,0.057h0.227l0.17,0.128l0.113,0.198v0.227
		l-0.086,0.269l-0.227,0.255l-0.141,0.439l-0.029,0.142l-0.027,0.198v0.935l-0.071,0.467l0.042,0.198l-0.042,0.255l0.071,0.468
		l-0.029,0.665l0.029,0.185v0.722l-0.1,0.227l0.028,0.581v0.269l0.042,0.142l0.143,0.142l0.027,0.113v0.383l-0.027,0.34l0.057,0.184
		l0.057,0.142v0.354l0.027,0.198l0.029,0.552l0.084,0.142l0.17,0.057h0.128l0.142,0.028h0.142h0.198l0.297,0.241v0.396l-0.027,0.113
		l-0.113,0.212l-0.156,0.255l-0.227,0.298l-0.113-0.028l-0.085,0.142l-0.113,0.142l-0.128,0.142l-0.17,0.127l-0.027,0.113
		l-0.113,0.085l-0.199,0.142l-0.127,0.17l-0.028,0.241l0.028,0.113l0.085,0.113l0.155,0.325v-0.113l-0.084,0.538l-0.213,0.241
		l-0.17,0.057l-0.383,0.028l-0.396-0.113l-0.382-0.113l-0.198-0.1l-0.354-0.17v-0.113l-0.694-0.467l-0.142-0.198l-0.184-0.142
		l-0.283-0.27l-0.298-0.198l-0.142-0.198l-0.17-0.127l-0.255-0.085l-0.212,0.028l-0.34,0.212l-0.071,0.17l-0.057,0.609l0.325,0.34
		l0.086,0.325l-0.113,0.326l-0.468,0.17l-0.34,0.057l-0.298-0.028l-0.523-0.198l-0.396-0.156l-0.07-0.113l-0.199-0.227l-0.17-0.184
		l-0.297-0.198l-0.142-0.142l-0.17-0.057l-0.085-0.142l-0.383-0.241l-0.141-0.057h-0.468l-0.113-0.057h-0.17l-0.212-0.17
		l-0.057-0.099l-0.086-0.198l0.086-0.34l0.17-0.213l0.127-0.085l0.227-0.227l0.17-0.269l0.085-0.227v-0.113v-0.185l0.099-0.283
		v-0.255l-0.07-0.155l-0.028-0.368l0.057-0.156l0.071-0.142v-0.227l-0.071-0.142l-0.028-0.354l0.028-0.085l0.042-0.142l0.029-0.213
		l-0.029-0.892l-0.24-0.383v-0.255l0.142-0.184l0.212-0.17l0.113-0.057l0.411-0.057l0.453-0.057l0.128,0.028l0.396-0.057
		l0.113-0.057l0.155-0.028l0.198-0.028h0.354h0.143l0.113-0.028l0.467-0.213l0.142-0.113h0.354l0.283-0.198l0.297-0.212l0.227-0.283
		l0.085-0.439l0.085-0.227v-0.142V26.73l0.184-0.368l-0.042-0.383l-0.057-0.255l-0.142-0.269l-0.467-0.496l-0.199-0.085l-0.17-0.085
		h-0.269l-0.396-0.227l-0.298-0.085h-0.227l-0.495,0.085l-0.495,0.396l-0.113,0.213v0.283v0.297l0.084,0.198l0.143,0.057
		l0.354-0.113h0.113l0.113,0.057l0.27,0.028l0.367,0.298l0.029,0.113l0.027,0.113l0.029,0.283l-0.029,0.467l-0.141,0.27
		l-0.256,0.255l-0.41,0.198l-0.312,0.057h-0.354l-0.254-0.057l-0.27-0.113l-0.283-0.085l-0.383-0.383l-0.17-0.198v-0.17
		l-0.027-0.113l-0.128-0.057l-0.028-0.325l-0.085-0.326l0.028-0.425l0.028-0.142v-0.212l0.128-0.34l0.027-0.241l0.482-0.693
		l0.07-0.17l0.227-0.185l0.553-0.312l0.197-0.113l0.496-0.142l0.283-0.184l0.496-0.17l0.269-0.298l0.028-0.085l0.057-0.198
		l0.057-0.255l0.354-0.269L170.07,21.689z M171.09,29.137l-0.326,0.212l-0.227,0.142l-0.255,0.057h-0.185l-0.254,0.113l-0.185,0.17
		l-0.142-0.028h-0.17l-0.17,0.156l0.028,0.198l0.028,0.198l0.057,0.269l0.085,0.836l0.028,0.142l-0.085,0.212l0.028,0.34
		l-0.057,0.85v0.312l-0.27,0.27l0.241,0.028l0.17,0.028h0.354l0.17,0.028l0.17-0.028l0.552,0.028l0.298,0.057l0.34,0.085
		l-0.086-0.198l-0.084-0.113l-0.143-2.237l-0.084-0.468l0.113-0.283L171.09,29.137z"/>
	<path d="M178.806,21.944l0.142-0.028l0.383,0.127l0.17,0.028l0.41,0.142l0.17,0.198l0.326,0.213l0.057,0.142l0.367,0.34l0.27,0.184
		l0.227,0.255l0.41,0.227l0.17,0.071l0.143,0.028l0.24,0.255l-0.028,0.354l-0.185,0.312l-0.17,0.17l-0.17,0.156l-0.057,0.085
		l-0.057,0.198v0.17v0.269l0.029,0.368l0.057,0.553l0.027,1.458v0.113l-0.113,0.354l0.029,0.312l0.141,0.269v0.17l-0.084,0.198
		l0.027,0.113l0.057,0.581v0.155l-0.057,0.425l0.029,0.185l-0.029,0.227l0.029,0.665l-0.086,0.553l-0.057,0.255l-0.24,0.552
		l0.383,0.057l0.283,0.028l0.382,0.128l0.411,0.057l0.311,0.085h0.17l0.156,0.028l0.368-0.028v-0.27l-0.057-0.34l-0.198-0.467
		l-0.057-0.553v-0.227v-0.382l0.057-0.553l-0.028-0.283v-0.269l0.198-0.198l0.057-0.142l-0.085-0.241l-0.113-0.637v-0.368
		l0.113-0.028l-0.085-0.383l0.028-0.41l-0.113-0.142v-0.439l0.142-0.283v-0.085l-0.057-0.467l0.028-0.17l-0.057-0.085l-0.198-0.156
		l-0.213-0.142l-0.17-0.085l-0.254-0.255l-0.071-0.155l0.042-0.553l0.17-0.142l0.17-0.17l0.143-0.24l0.127-0.085l0.481-0.453
		l0.128-0.156l0.057-0.17v-0.227l-0.029-0.269l-0.099-0.283l-0.028-0.185l0.127-0.227l0.312-0.227l0.197-0.057l0.185,0.057
		l0.255,0.057l0.142,0.057l0.155,0.17v0.085l0.113,0.028l0.369,0.241l0.382,0.312l0.17,0.142l0.155,0.155l0.312,0.17l0.41,0.227
		l0.17,0.057l0.142,0.071l0.382,0.17l0.057,0.113l0.086,0.227l-0.029,0.297l-0.227,0.227l-0.325,0.27l-0.057,0.113l-0.085,0.227
		l-0.057,0.693l0.085,0.156v0.255l-0.057,0.17l-0.028,0.297l-0.113,0.411l0.057,0.538l-0.17,0.269l-0.156,0.17l0.156,0.057
		l0.057,0.241v0.425l0.057,0.184l0.028,0.113v0.17l-0.028,0.27v0.17l-0.057,0.467l0.028,0.17l0.028,0.312l-0.028,0.213v0.835
		l0.028,0.113v0.496l-0.156,0.142l-0.084,0.269l0.325,0.113l0.113,0.411l0.057,0.113l0.325,0.312l0.113,0.127l0.199,0.34l0.17,0.354
		l0.07,0.198l0.057,0.142l-0.085,0.963l0.057,0.113l-0.028,0.24l-0.156,0.538l-0.197,0.383l-0.029,0.227l-0.197,0.325l-0.057,0.113
		l-0.326,0.326l-0.227,0.142l-0.156,0.142l-0.113,0.028l-0.523,0.41l-0.283,0.028l-0.553,0.326l-0.325,0.142l-0.51,0.255
		l-0.212,0.057l-0.227,0.057l-0.241,0.099l-0.34,0.17l-0.241,0.085l-0.566,0.255l-0.269,0.156l-0.17,0.113l-0.298,0.255
		l-0.084,0.142l-0.057,0.212l0.057,0.34v0.185l-0.17,0.34l-0.383,0.269h-0.368l-0.128-0.057l-0.424-0.099l-0.581-0.255l-0.269-0.142
		l-0.113-0.085l-0.17-0.1l-0.143-0.113l-0.354-0.198l-0.17-0.227l-0.297-0.155l-0.283-0.283l-0.439-0.298l-0.142-0.113l-0.17-0.085
		l-0.269-0.085l-0.256-0.085l-0.269-0.212l-0.255-0.057l-0.113-0.057l-0.27-0.057l-0.608-0.17l-0.142-0.028l-0.297,0.028
		l-0.256,0.085l-0.197,0.142l-0.156,0.269v0.255l0.213,0.227l0.396-0.085h0.127l0.17-0.057l0.198,0.028h0.113l0.185,0.085
		l0.227,0.439v0.382l-0.057,0.283l-0.113,0.113l-0.086,0.156l-0.269,0.198l-0.085,0.113l-0.142,0.028l-0.113,0.057l-0.325,0.057
		l-0.227-0.028l-0.241-0.085l-0.34-0.142l-0.694-0.496l-0.127-0.283l-0.085-0.24l-0.085-0.198l-0.028-0.283l-0.028-0.213v-0.142
		l-0.028-0.17l0.113-0.637l0.142-0.241l0.213-0.438l0.113-0.085l0.17-0.17l0.212-0.113l0.312-0.198l0.142-0.1l0.438-0.142
		l0.199-0.028l0.127-0.028h0.396l0.156-0.028l0.141,0.057h0.17l0.439,0.028l0.142,0.085l0.325,0.057l0.086-0.113l0.057-0.396
		l0.197-0.382l0.057-0.113l0.496-0.298l0.723,0.028l0.793,0.411l-0.128,0.028l0.298,0.17l0.113,0.085l0.197,0.099l0.128,0.198
		l0.17,0.028l0.312,0.283l0.523,0.496l0.241,0.113l0.198,0.099l0.255,0.142l0.325,0.085l0.312,0.057h0.269h0.34l0.298-0.17
		l0.227-0.057l0.24-0.184l0.283-0.142l0.17-0.198l0.27-0.354l0.382-0.523l0.057-0.51l0.028-0.128l-0.057-0.425l-0.07-0.269
		l-0.086-0.085l-0.113-0.255l-0.113-0.1l-0.141-0.028l-0.156-0.142l0.043-0.113l-0.128-0.028l-0.227-0.113l-0.468-0.155
		l-0.197-0.028l-0.17,0.07l-0.411-0.042l-0.298,0.325l-0.227,0.198l-0.17,0.553l0.17,0.325l-0.057,0.312l-0.325,0.354l-0.17,0.057
		L181.1,37.35l-0.24-0.057h-0.113l-0.396-0.241l-0.468-0.255l-0.298-0.227l-0.34-0.325l-0.184-0.085l-0.198-0.17l-0.34-0.213
		l-0.155-0.085l-0.199-0.057l-0.297-0.113h-0.142l-0.283-0.198l-0.028-0.523l0.057-0.156l0.17-0.227l0.41-0.283l0.143-0.354
		l0.084-1.331l-0.084-0.383l0.057-0.693l-0.029-0.354l0.029-0.538l-0.057-0.184l-0.057-0.17v-0.085l0.027-0.113l0.113-0.241v-0.17
		v-0.227l-0.027-0.184l-0.143-0.283l0.029-0.17v-0.298l0.113-0.227l0.027-0.212l0.029-0.142l-0.029-0.283v-0.411l-0.113-0.297
		v-0.198l-0.113-0.283l-0.467-0.439l-0.255-0.113l-0.185-0.057l-0.113-0.269v-0.468l0.227-0.283l0.411-0.354l0.354-0.34l0.113-0.113
		l0.17-0.156l0.113-0.057l0.027-0.113l0.071-0.227l-0.155-0.297l-0.057-0.312l0.027-0.185l0.057-0.17L178.806,21.944z"/>
	<path d="M204.039,18.417l0.213,0.085l0.17,0.057l0.085,0.142l0.028,0.227l-0.198,0.468l-0.113,0.212l-0.185,0.227l-0.197,0.227
		l-0.496,0.666l-0.467,0.637l-0.029,0.1l-0.367,0.58l-0.213,0.283l-0.142,0.227l-0.142,0.241l-0.326,0.523l-0.113,0.255
		l-0.197,0.326l-0.057,0.113l-0.029,0.495l-0.184,0.312l-0.142,0.241l-0.028,0.608l-0.057,0.227l-0.113,0.312l-0.028,0.354
		l-0.057,0.198l-0.269,0.438l-0.057,0.298l0.084,0.283l-0.084,0.198l0.212,0.438l-0.099,0.354l-0.086,0.312l0.241,0.325v0.142
		l0.028,0.113l-0.085,0.878v0.453l0.028,0.185l0.057,0.58l-0.085,0.198l0.085,0.354l-0.028,0.113l-0.057,0.113v0.113v0.297
		l0.057,0.198l0.085,0.142l0.028,0.241l0.057,0.227l0.057,0.198l-0.028,0.155v0.17l0.142,0.142v0.298l0.085,0.198L201.15,35
		l0.029,0.198l0.027,0.127l0.17,0.17l0.057,0.255l0.143,0.113l0.269,0.298l0.198,0.085l0.113,0.028l0.142,0.142l0.241,0.057
		l0.467-0.028l0.255-0.17l0.142,0.028l0.24-0.17l0.143-0.113l0.438-0.609l0.227-0.523l0.142-0.383l0.085-0.368l0.057-0.382
		l0.099-0.326l0.227-0.255l-0.141-0.142l-0.057-0.212l0.057-0.368l-0.029-0.354l0.029-0.142l-0.029-0.297l-0.027-0.227l0.084-0.17
		l-0.027-0.142l-0.086-0.213l0.113-0.34v-0.354l-0.027-0.227l-0.057-0.383l-0.086-0.142l-0.155-0.354l0.028-0.227l0.028-0.113
		l-0.057-0.27l-0.085-0.227l-0.283-0.467l-0.27-0.227l-0.467-0.085l-0.34,0.057l-0.17,0.113l-0.326,0.17l-0.141,0.113l-0.213,0.184
		l-0.17,0.113l-0.312,0.057h-0.185l-0.34-0.198l-0.17-0.382l-0.042-0.198l0.099-0.439l0.086-0.198l0.495-0.354l0.581-0.326
		l0.283-0.028l0.637-0.085l0.666-0.057l0.17-0.028l0.467,0.17l0.184-0.028l0.256,0.128l0.438,0.085h0.113l0.198,0.142l0.496,0.227
		l0.197,0.085l0.185,0.07l0.283,0.198l0.17,0.113l0.185,0.142l0.057,0.128l0.227,0.198l0.141,0.198l0.185,0.297l0.283,0.453
		l0.113,0.298l0.099,0.113l0.113,0.325l0.086,0.255l0.057,0.326l0.057,0.312l0.027,0.142v0.24l0.113,0.227l0.113,0.354l0.043,0.142
		v0.283l0.142,0.07l0.198,0.17l0.057,0.17l-0.028,0.198l-0.312,0.326l-0.127,0.17l-0.086,0.113l-0.084,0.184l-0.227,0.312
		l-0.086,0.241l-0.155,0.34l-0.17,0.085l-0.142,0.269l0.057,0.227l-0.028,0.241l-0.057,0.142l-0.241,0.17l-0.141,0.057l-0.199,0.467
		l-0.084,0.198l-0.156,0.185l-0.198,0.17h-0.17v0.198l-0.354,0.113h-0.113l-0.354,0.325l-0.227,0.227l-0.057,0.241h-0.085
		l-0.113,0.057l-0.524,0.283l-0.354,0.085l-0.227,0.07l-0.906,0.085l-0.34,0.057h-0.523l-0.199,0.028l-0.24-0.057h-0.439
		l-0.197-0.057l-0.256-0.057l-0.608-0.212l-0.113-0.028l-0.241-0.057l-0.863-0.411l-0.27-0.17l-0.197-0.227l-0.27-0.085
		l-0.113-0.127l-0.085-0.113l-0.142-0.113l-0.17-0.255l-0.156-0.156l-0.141-0.113l-0.113-0.255l-0.256-0.325l-0.127-0.198
		l-0.34-0.609l-0.113-0.325l-0.184-0.553v-0.227v-0.198l-0.029-0.24l-0.17-0.057l-0.197-0.779l-0.029-0.269l-0.099-0.17
		l-0.028-0.312l-0.113-0.496l-0.028-0.24v-0.085l-0.028-0.198v-0.17v-0.213l-0.028-0.142l-0.255-0.637l-0.184-0.354l0.084-0.255
		l0.185-0.17l0.113-0.269l0.057-0.198l0.552-1.388l0.057-0.156l0.029-0.17l0.084-0.227l0.143-0.212l0.127-0.142l0.17-0.17
		l0.142-0.17l0.17-0.27l0.071-0.198l0.141-0.17l0.113-0.297l0.326-0.198l0.142-0.354l0.17-0.312l0.255-0.269l0.043-0.113l0.17-0.283
		l0.254-0.241l0.298-0.34l0.198-0.382l0.227-0.085l0.553-0.638l0.637-0.58l0.383-0.354l0.354-0.198l0.453-0.41l0.354-0.17
		l0.312-0.27l0.155-0.057l0.113-0.085l0.142-0.057l0.113-0.085L204.039,18.417z"/>
</g>
<polygon points="75.733,21.167 77.377,24.496 81.051,25.03 78.393,27.621 79.02,31.279 75.733,29.552 72.447,31.279 73.075,27.621 
	70.418,25.03 74.091,24.496 "/>
<polygon points="223.89,21.167 225.532,24.496 229.206,25.03 226.548,27.621 227.175,31.279 223.89,29.552 220.603,31.279 
	221.231,27.621 218.573,25.03 222.246,24.496 "/>
</svg>
