<?xml version="1.0" encoding="utf-8"?>
<!-- Generator: Adobe Illustrator 16.0.0, SVG Export Plug-In . SVG Version: 6.00 Build 0)  -->
<!DOCTYPE svg PUBLIC "-//W3C//DTD SVG 1.1//EN" "http://www.w3.org/Graphics/SVG/1.1/DTD/svg11.dtd">
<svg version="1.1" id="Layer_2" xmlns="http://www.w3.org/2000/svg" xmlns:xlink="http://www.w3.org/1999/xlink" x="0px" y="0px"
	 width="238.123px" height="48.244px" viewBox="0 0 238.123 48.244" enable-background="new 0 0 238.123 48.244"
	 xml:space="preserve">
<g>
	<g>
		<g>
			<polygon fill="#D9DADB" points="166.651,46.254 166.651,39.42 72.506,39.42 72.506,46.254 5.159,46.254 20.014,27.539 
				5.159,8.824 34.416,8.824 34.416,1.991 204.565,1.991 204.565,8.824 233.5,8.824 221.615,27.539 233.5,46.254 			"/>
			<path d="M202.574,3.983v6.833h27.302l-10.62,16.723l10.62,16.723h-61.233V37.43H70.515v6.832H9.281l13.275-16.723L9.281,10.816
				h27.125V3.983H202.574 M206.556,0h-3.981H36.407h-3.982v3.983v2.85H9.281H1.036l5.126,6.46l11.311,14.246L6.162,41.785
				l-5.126,6.459h8.246h61.234h3.982v-3.982v-2.85h90.162v2.85v3.982h3.983h61.233h7.247l-3.885-6.117l-9.265-14.588l9.265-14.588
				l3.885-6.118h-7.247h-23.32v-2.85V0L206.556,0z"/>
		</g>
		<polygon fill="#B0B4B7" points="70.515,44.262 70.515,10.816 9.281,10.816 22.557,27.539 9.281,44.262 		"/>
		<polygon fill="#B0B4B7" points="229.876,10.816 168.643,10.816 168.643,44.262 229.876,44.262 219.256,27.539 		"/>
		<polygon points="32.379,9.311 32.379,39.879 61.13,46.386 72.001,45.565 39.198,9.311 		"/>
		<polygon points="206.567,9.179 206.567,39.746 177.815,46.254 166.944,45.434 199.749,9.179 		"/>
		<polygon fill="#8B8B8B" points="202.574,3.983 202.574,37.43 168.643,44.262 168.509,10.816 		"/>
		<polygon fill="#8B8B8B" points="36.407,3.983 36.407,37.43 70.471,44.262 70.473,10.816 		"/>
		<rect x="36.407" y="3.983" fill="#FFFFFF" width="166.167" height="33.446"/>
	</g>
	<g>
		<g>
			<polygon points="185.418,15.958 186.755,18.667 189.743,19.102 187.581,21.209 188.091,24.187 185.418,22.78 182.744,24.187 
				183.255,21.209 181.093,19.102 184.081,18.667 			"/>
			<polygon points="52.77,15.958 54.105,18.667 57.095,19.102 54.931,21.209 55.442,24.187 52.77,22.78 50.095,24.187 
				50.605,21.209 48.443,19.102 51.432,18.667 			"/>
		</g>
		<g>
			<path d="M84.882,12.747h0.152l0.467,0.043l0.272,0.131l0.174,0.206l0.13,0.174l0.228,0.131h0.108l0.109,0.021l0.207,0.043h0.195
				l0.087,0.022l0.229-0.022l0.195,0.055l0.141,0.021h0.391l0.12,0.022l0.196,0.043l0.185-0.021l0.13-0.044H89l0.261,0.044
				l0.315-0.044l0.239,0.044l0.293-0.044h0.174l0.207,0.131v0.108l0.315-0.195l0.261,0.021l0.087-0.021h0.12h0.196l0.13-0.021h0.228
				l0.217,0.021l0.109-0.044h0.163l0.935-0.076l0.152-0.064l0.13-0.022l0.25-0.021l0.152-0.043l0.12-0.152l0.152-0.108l0.402,0.151
				l0.13,0.087l0.043,0.131l0.021,0.142v0.151l0.022,0.065l0.065,0.315l-0.021,0.087l-0.022,0.978l-0.152,0.315l0.021,0.087
				l0.087,0.13l-0.021,0.087l-0.043,0.358v0.186l-0.022,0.087l-0.043,0.151l-0.021,0.131l-0.043,0.163l0.043,0.087l-0.022,0.261
				v0.185l-0.021,0.152l0.021,0.185v0.087v0.13l0.043,0.152h0.087l0.337,0.098l0.13,0.131l0.13,0.152v0.087l0.043,0.38l-0.022,0.206
				L95.27,19.31l-0.087,0.152l-0.315,0.141l-0.13,0.044h-0.152l-0.163-0.021l-0.304-0.12l-0.228-0.152l-0.065-0.108l-0.152-0.206
				l-0.043-0.131l-0.043-0.174l-0.022-0.087l-0.054-0.314l-0.021-0.087l-0.087-0.359l-0.043-0.337l-0.065-0.488l-0.087-0.152
				l-0.065-0.271l-0.043-0.174l-0.206-0.294l-0.087-0.13l-0.109-0.25l-0.043-0.152l-0.12-0.021l-0.152-0.195l-0.109-0.142
				l-0.141-0.152l-0.283-0.151l-0.315-0.142l-0.13-0.044l-0.293-0.064h-0.304l-0.098-0.022h-0.087l-0.109,0.044l-0.293,0.065
				l-0.261,0.141l-0.272,0.196l-0.065,0.217l-0.174,0.142l-0.043,0.108l-0.098,0.424l-0.021,0.087l-0.065,0.358l-0.065,0.282
				l-0.043,0.142v0.131l0.043,0.195v0.076l0.043,0.108l-0.043,0.195l0.021,0.229l-0.021,0.935l0.065,0.217h0.13h0.142l0.152,0.022
				h0.152h0.271l0.25-0.022h0.195l0.131-0.043l0.108-0.021l0.185,0.043l0.13-0.087h0.152l0.445-0.293l0.229-0.174l0.174-0.294
				l0.119-0.087l0.217-0.087l0.174-0.021l0.142,0.021l0.108,0.044l0.13,0.108l0.109,0.543v0.108l-0.239,0.771l-0.043,0.337v0.109
				l0.022,0.228l-0.065,0.152l0.022,0.087l0.043,0.337l-0.022,0.206l0.13,0.174l0.065,0.272l0.065,0.369l-0.021,0.185l-0.022,0.174
				l-0.108,0.337l-0.109,0.174l-0.25,0.229l-0.152,0.064h-0.13l-0.271-0.108l-0.218-0.229l-0.043-0.151l0.022-0.294l0.087-0.282
				v-0.119l-0.022-0.087l-0.043-0.131l-0.043-0.087l-0.141-0.185l-0.326-0.239l-0.337-0.043l-0.315-0.022l-0.402,0.044l-0.174-0.021
				l-0.511,0.021l-0.228,0.043l-0.022,0.109l0.022,0.293l0.163,0.152v0.152l-0.022,0.185l-0.076,0.151l0.022,0.152v0.142
				l0.054,0.369l0.065,0.163l-0.022,0.358l0.087,0.369l-0.021,0.12l-0.109,0.108l-0.021,0.131v0.151l0.108,0.359l0.109,0.064
				l0.108,0.076l0.065,0.131l-0.043,0.13l0.021,0.174l0.022,0.163l0.098,0.131l0.13,0.314l0.315,0.305l0.152,0.076l0.108,0.304
				l0.109-0.043l0.12,0.087l0.065,0.098l0.196,0.043l0.598-0.25l0.141,0.044l0.065-0.282v-0.098l0.087-0.174l0.043-0.131
				l0.206-0.163l0.087-0.043l0.217-0.065h0.12h0.152l0.087,0.043l0.337,0.186l0.13,0.174l0.065,0.13l0.022,0.119v0.326l-0.087,0.271
				l-0.043,0.109l-0.043,0.13l-0.087,0.12l-0.163,0.195l-0.304,0.271l-0.359,0.13l-0.108,0.065l-0.163,0.044l-0.13,0.043
				l-0.109,0.022l-0.315,0.021l-0.087,0.043H91.13l-0.174,0.055l-0.782-0.119h-0.087l-0.109-0.022l-0.337-0.043l-0.108-0.087
				l-0.315-0.044l-0.195-0.021l-0.185,0.021l-0.13-0.021l-0.196-0.065h-0.315l-0.152-0.043h-0.271l-0.087-0.022h-0.152l-0.163-0.098
				l-0.283-0.064l-0.163,0.064l-0.087,0.022l-0.152-0.022l-0.533-0.043l-0.63,0.065l-0.174,0.021h-0.163l-0.109,0.098l-0.261,0.13
				l-0.119,0.294l-0.511,0.391l-0.348-0.064l-0.207-0.022l-0.217-0.174l-0.141-0.228v-0.174v-0.25l0.021-0.218l0.043-0.108
				l0.163-0.25l0.065-0.087l0.196-0.152l0.043-0.098l0.098-0.043l0.283-0.174l0.141-0.044l0.109-0.108l0.087-0.044l0.358-0.206
				l0.195-0.13l0.109-0.109l0.271-0.424l0.022-0.119l0.087-0.174l0.065-0.337v-0.108l0.098-0.358l0.021-0.174l0.065-0.152
				l-0.087-0.271l0.043-0.294l0.065-0.087l-0.065-0.261V22.58l0.043-0.402v-0.174V21.58l0.043-0.13l-0.022-0.163l-0.021-0.065
				v-0.087l-0.043-0.108l0.043-0.25v-0.131l0.021-0.108l-0.108-0.119l-0.022-0.108v-0.131l0.109-0.185l0.043-0.174l-0.022-0.271
				l0.043-0.326l0.043-0.163l-0.043-0.108l0.022-0.109l-0.043-0.087v-0.76l0.043-0.446l-0.022-0.108l-0.021-0.087l-0.022-0.467
				l0.022-0.869l-0.13-0.152l0.065-0.142l0.043-0.174v-0.13l-0.152-0.521l-0.055-0.131l-0.13-0.217l-0.261-0.044l-0.207-0.076
				l-0.021-0.087l-0.087-0.064h-0.207l-0.174-0.087l-0.13-0.109l-0.087-0.163l-0.076-0.238l-0.021-0.272l0.043-0.174l0.141-0.185
				l0.13-0.151L84.882,12.747z"/>
			<path d="M97.421,15.746h0.315l0.13,0.021l0.076,0.021l0.174,0.021l0.108,0.022l0.25,0.054l0.196,0.065l0.206,0.065l0.196,0.13
				l0.38,0.315l0.065,0.13l0.293,0.446l0.087,0.151l0.109,0.098h0.174l0.206-0.054l0.217-0.218l0.207-0.217l0.065-0.294
				l-0.022-0.108v-0.119l0.043-0.131l0.152-0.239l0.163-0.098h0.152l0.087-0.021l0.25,0.044l0.087,0.032l0.087,0.087l0.195,0.152
				l0.163,0.064l0.196,0.207l0.108,0.043l0.359,0.152l0.087,0.021l0.163,0.044h0.109l0.217,0.185l0.12,0.195l0.043,0.152v0.098
				l-0.022,0.087l-0.185,0.282l-0.13,0.186l-0.13,0.108l-0.087,0.174l-0.337,0.25l-0.065,0.13l-0.25,0.402v0.087l-0.022,0.142
				l0.022,0.108l-0.022,0.174l-0.021,0.25l-0.217,0.282l-0.098,0.065l-0.13,0.054l-0.152-0.032l-0.207-0.021l-0.174-0.174
				l-0.152-0.294l-0.065-0.348v0.087l-0.054-0.249l-0.13-0.283l-0.043-0.087l-0.13-0.141l-0.229-0.131h-0.152l-0.152,0.021
				l-0.141,0.109l-0.043,0.141l-0.021,0.108l-0.022,0.152l0.022,0.555v0.064l0.021,0.163l0.022,0.131l0.021,0.314l0.022,0.196
				l0.141,0.206l-0.043,0.152l-0.076,0.152l-0.021,0.163l-0.043,0.108v0.152v0.108l0.021,0.119l0.098,0.109v0.706l-0.032,0.098
				l-0.043,0.326l0.119,0.38l-0.043,0.152l-0.054,0.119l-0.087,0.239l-0.065,0.185l-0.109,0.021l-0.087,0.087l-0.021,0.152
				l-0.076,0.108l-0.065,0.229l0.163,0.065h0.109l0.152,0.043l0.109,0.022l0.098,0.021l0.282,0.021l0.142,0.021l0.174,0.044
				l0.315,0.032l0.239,0.065l0.271,0.087l0.152,0.38l-0.043,0.239l-0.195,0.271l-0.337,0.196l-0.63,0.228l-0.152,0.065l-0.13,0.043
				l-0.109,0.109l-0.043,0.163v0.108l0.087,0.217l0.022,0.229v0.174l-0.022,0.131l-0.185,0.141l-0.326,0.152l-0.207-0.021
				l-0.402-0.174l-0.108-0.076l-0.13-0.108l-0.141-0.065l-0.13-0.174l-0.109-0.044l-0.152-0.119l-0.185-0.131L98.16,26.72h-0.25
				l-0.239-0.271l-0.228-0.065l-0.174-0.087h-0.152l-0.207-0.108l-0.261-0.142l-0.12-0.13l-0.022-0.174l0.055-0.131l0.152-0.229
				l0.239-0.087l0.119-0.087l0.109-0.141l0.109-0.174v-0.315l0.021-0.108l0.022-0.087l-0.043-0.424l0.065-0.131l0.043-0.119
				l0.022-0.532l-0.043-0.239v-0.185l-0.087-0.174l-0.022-0.108l0.043-0.315l0.087-0.218l-0.043-0.314l0.065-0.174l0.054-0.163
				l-0.054-0.195l-0.087-0.359l0.185-0.108l-0.12-0.206l-0.021-0.087l0.021-0.065l-0.021-0.25l-0.022-0.108l0.022-0.381
				l-0.022-0.151v-0.218l-0.043-0.163l-0.108-0.108l-0.087-0.065l-0.12-0.065l-0.087-0.043l-0.38-0.044l-0.087-0.054l-0.087-0.087
				l-0.065-0.195v-0.087l0.022-0.142l0.087-0.174l0.065-0.108l0.163-0.186l0.13-0.13l0.065-0.087l0.087-0.087l0.119-0.119
				l0.087-0.196l0.108-0.293l-0.087-0.239l-0.021-0.087l-0.065-0.142v-0.174l0.174-0.314L97.421,15.746z"/>
			<path d="M105.276,15.702l0.229,0.021l0.195,0.022l0.065,0.087h0.108l0.185,0.119l0.174,0.195l0.108,0.044l0.098,0.043l0.109,0.12
				l0.282,0.174l0.163,0.151l0.196,0.272l0.152,0.108l0.142,0.021l0.239,0.021l0.12,0.044l0.174,0.119l0.152,0.195v0.065
				l-0.108,0.271l-0.174,0.305l-0.12,0.043l-0.13,0.055l-0.065,0.218l-0.065,0.401v0.065v0.131l-0.021,0.358l-0.043,0.532
				l0.021,0.315v0.13v0.25l-0.021,0.174l-0.022,0.206l-0.076,0.087l-0.087,0.305v0.119l0.12,0.218l0.087,0.043l0.087,0.207v0.325
				l-0.021,0.337l-0.185,0.109l0.207,0.141l-0.021,0.152l-0.022,0.174l0.043,0.163l0.022,0.869l0.043,0.282l0.043,0.109l0.065,0.098
				l0.185,0.087l0.152,0.043l0.152,0.087l0.12,0.108l0.087,0.099l-0.021,0.13l-0.065,0.131l-0.185,0.293l-0.196,0.108l-0.228,0.196
				l-0.261,0.228l-0.228,0.358l-0.043,0.087l-0.022,0.131l0.065,0.185l0.065,0.152v0.174l-0.065,0.163l-0.239,0.195l-0.38-0.044
				l-0.206-0.087l-0.174-0.064l-0.109-0.098l-0.25-0.196l-0.217-0.25l-0.108-0.021l-0.337-0.282l-0.293-0.142l-0.445-0.174
				l-0.109-0.021l-0.13-0.021l-0.141-0.065l-0.043-0.131l-0.087-0.098l-0.043-0.151l0.043-0.272l0.163-0.13l0.195-0.174l0.152-0.185
				l0.021-0.152l0.098-0.239l0.043-0.098l0.022-0.152l-0.022-0.151l0.065-0.25l-0.065-0.261l0.065-0.272v-0.445l0.022-0.271
				l-0.043-0.195l0.065-0.152l0.043-0.185v-0.282v-0.445v-0.229l-0.043-0.131l-0.087-0.25l0.022-0.13l0.087-0.152l-0.022-0.358
				l0.043-0.218l-0.021-0.119l-0.065-0.261l0.022-0.119l-0.022-0.348l-0.065-0.294l-0.076-0.152l-0.065-0.087h-0.174l-0.13-0.054
				l-0.098-0.087l-0.087-0.065l-0.043-0.195l0.043-0.315l0.163-0.152l0.13-0.163l0.087-0.043l0.228-0.195l0.152-0.185l0.043-0.131
				l0.108-0.13l0.12-0.087l0.021-0.099l-0.021-0.304l-0.098-0.294v-0.108l0.098-0.13l0.174-0.142L105.276,15.702z M105.766,11.606
				l0.25,0.021h0.108l0.174,0.141l0.065,0.109l0.076,0.021l0.152,0.152l0.282,0.314l0.098,0.131l0.065,0.087h0.087l0.272,0.229
				l0.108,0.043l0.174,0.195l0.185,0.25l-0.076,0.402l-0.467,0.315l-0.196-0.12l-0.087,0.087l-0.021,0.098v0.109l-0.065,0.087
				l-0.043,0.13l0.043,0.293l-0.021,0.131l-0.098,0.065l-0.087,0.163l-0.261,0.108h-0.228l-0.239-0.152l-0.142-0.043l-0.174-0.142
				l-0.13-0.174l-0.098-0.152l-0.109-0.098l0.022-0.108l-0.065-0.131l-0.358-0.087l-0.087-0.064l-0.13-0.099l-0.207-0.261
				l-0.043-0.293l0.185-0.315l0.304-0.217l0.336-0.196l0.185-0.141v-0.576l0.108-0.174L105.766,11.606z"/>
			<path d="M112.937,10.672h0.489l0.065,0.119l0.087-0.055l0.087,0.099l0.076,0.108l0.13,0.195l0.022,0.185v0.261l-0.043,0.207
				l-0.087,0.064l-0.098,0.131l-0.087,0.021l-0.195,0.271l-0.043,0.087l-0.022,0.271l0.065,0.37l0.152,0.337l0.087,0.174l0.12,0.185
				l0.174,0.174l0.065,0.163l0.13,0.087l0.185,0.195l0.087,0.065l0.152,0.206v0.087l-0.065,0.174l0.228,0.25l0.087,0.108
				l0.196,0.186l0.108,0.064l0.207,0.044l0.087,0.13l0.13,0.174l0.185,0.163l0.13,0.152l0.087,0.174L116,16.419l0.25,0.174
				l0.087,0.109l0.087,0.043l0.065,0.098l0.185,0.131l0.174,0.13l0.163,0.25l0.022,0.131l0.021,0.174l-0.141,0.185l-0.022,0.13
				l-0.043,0.065l-0.13,1v0.25v0.511l0.022,0.13v0.087l0.043,0.271v-0.108l-0.065,0.305v0.206l-0.087,0.043l0.109,0.065v0.315
				l0.087,0.108v0.108l-0.022,0.315l-0.108,0.195v0.098l0.043,0.152l0.065,0.108v0.533l-0.021,0.141v0.131v0.195l0.043,0.185
				l0.021,0.424l-0.043,0.239l0.065,0.358l0.25,0.358l0.087,0.282l-0.152,0.25l-0.065,0.044l-0.293,0.065l-0.207,0.021l-0.261,0.043
				L116,25.514h-0.196l-0.25,0.098l-0.174,0.021l-0.087,0.022l-0.065,0.064h-0.087l-0.424,0.152l-0.12,0.065l-0.174,0.087
				l-0.293,0.141l-0.108,0.109l-0.283-0.022l-0.141,0.152l0.337,0.608l0.021,0.196l-0.043,0.174l-0.228,0.249l-0.152,0.022
				l-0.108,0.021h-0.109l-0.098-0.021l-0.152-0.022l-0.217-0.087l-0.163-0.064l-0.196-0.098l-0.087-0.022l-0.293-0.174l-0.13-0.13
				l-0.423-0.294l-0.087-0.043l-0.098-0.087l-0.108-0.021l-0.152-0.12l-0.25-0.108l-0.174-0.087l-0.25-0.087l-0.152-0.021
				l-0.239-0.044l-0.163-0.043l-0.174-0.12l-0.087-0.087l-0.098-0.195v-0.119l0.12-0.239l0.065-0.174l0.217-0.294l0.065-0.249
				v-0.794l0.054-0.185l-0.054-0.348l0.076-0.293l-0.054-0.358l-0.065-0.218V22.33l0.022-0.152l0.021-0.13l0.098-0.294l0.022-0.261
				l-0.022-0.587l-0.043-0.619l0.022-0.174l-0.022-0.532l-0.032-0.098l-0.043-0.108v-0.109l0.098-0.064v-0.087l-0.054-0.12
				l0.032-0.13l0.022-0.087l-0.054-0.25l-0.109-0.131l-0.152-0.043l-0.174-0.25v-0.239l0.13-0.163l0.108-0.065l0.087,0.022
				l0.087-0.044h0.25l0.174-0.021l0.141-0.021l0.174-0.065l0.109,0.021l0.12-0.021l0.13-0.044l0.217-0.108l0.163-0.043l0.348-0.207
				l0.228-0.151l0.195-0.109l0.12-0.043l0.217-0.055l0.174,0.098l0.142,0.174l-0.022,0.152l-0.043,0.185l-0.163,0.326l-0.021,0.142
				l-0.022,0.195l0.022,0.804l0.021,0.196l0.109,0.249l-0.065,0.174l0.022,0.229l0.021,0.239l0.022,0.402v0.108v0.119l-0.065,0.326
				l-0.087,0.206l0.022,0.109l0.043,0.337l0.021,0.217v0.532l0.022,0.185l0.021,0.131l-0.021,0.511l-0.022,0.228l-0.174,0.348
				l-0.065,0.12l-0.087,0.108l-0.163,0.131l-0.152,0.185v0.108h0.152l0.141,0.021l0.239,0.196l0.174,0.087l0.163,0.119h0.195
				l0.141,0.043l0.707,0.152l0.152,0.044l0.142-0.044l0.13-0.13l0.043-0.087v-0.163l-0.043-0.087l-0.359-0.261l-0.065-0.229
				l-0.022-0.108l-0.021-0.131v-0.163l-0.065-1.38v-0.336v-0.109v-0.238l0.022-0.402l0.087-0.044l0.021-0.108l-0.065-0.119
				l-0.043-0.402v-0.174l0.043-0.489v-0.13l0.108-0.294l0.022-0.13l-0.065-0.206l0.065-0.196v-0.152l0.087-0.358l0.076-0.108
				l0.108-0.076l-0.021-0.152l-0.337-0.108l-0.359-0.163l-0.065-0.13l-0.109-0.087l-0.315-0.271l-0.13-0.239l-0.25-0.294
				l-0.087-0.13l-0.13-0.218l-0.043-0.098l-0.228-0.304v-0.163l-0.239-0.087l0.043-0.261l-0.25-0.021l-0.109-0.142l-0.195-0.261
				l-0.087-0.207l-0.076-0.108l-0.217-0.152l-0.065-0.098l-0.141-0.064l-0.174-0.065l-0.261-0.021l-0.25,0.13l-0.152,0.076
				l-0.141,0.065l-0.195,0.021l-0.359-0.229l-0.021-0.151l0.065-0.489l0.043-0.108l0.12-0.022l0.087-0.119l0.358-0.152l0.043-0.087
				l0.402-0.108h0.087l0.195-0.076l0.229,0.021l0.13-0.043l0.293,0.021l0.282,0.098l0.13,0.087l0.228,0.087l0.087,0.131l0.272-0.022
				l-0.38-0.891v-0.087l-0.043-0.13l-0.043-0.511l0.108-0.381l0.065-0.108l0.087-0.271l0.141-0.065l0.152-0.152l0.152-0.043
				L112.937,10.672z"/>
			<path d="M122.216,15.615h0.13l0.293,0.065l0.337,0.152l0.402,0.249l0.282,0.25l0.163,0.065l0.13,0.174l0.152,0.021l0.065,0.131
				l0.163,0.119l0.402,0.131l0.109,0.087l0.152,0.043l0.087-0.021h0.141l0.217,0.044l0.207,0.043h0.174l0.13,0.098l0.087,0.152
				v0.174l-0.065,0.206l-0.174,0.196l-0.109,0.337l-0.021,0.108l-0.022,0.152v0.717l-0.054,0.358l0.033,0.152l-0.033,0.195
				l0.054,0.358l-0.021,0.511l0.021,0.142v0.554l-0.076,0.174l0.021,0.445v0.207l0.033,0.108l0.108,0.108l0.022,0.087v0.294
				l-0.022,0.261l0.043,0.141l0.043,0.109v0.271l0.022,0.152l0.021,0.424l0.065,0.108l0.13,0.043h0.098l0.109,0.022h0.108h0.152
				l0.228,0.185v0.304l-0.021,0.087l-0.087,0.163l-0.119,0.195l-0.174,0.229l-0.087-0.021l-0.065,0.108l-0.087,0.108l-0.098,0.109
				l-0.13,0.098l-0.022,0.087l-0.087,0.064l-0.152,0.109l-0.098,0.13l-0.022,0.185l0.022,0.087l0.065,0.087l0.12,0.25v-0.087
				l-0.065,0.413l-0.163,0.185l-0.131,0.044l-0.293,0.021l-0.304-0.087l-0.293-0.087l-0.152-0.076l-0.271-0.13v-0.087l-0.532-0.359
				l-0.109-0.151l-0.141-0.109l-0.217-0.206l-0.229-0.152l-0.108-0.152l-0.13-0.098l-0.196-0.064l-0.163,0.021l-0.261,0.163
				l-0.055,0.13l-0.043,0.468l0.25,0.261l0.065,0.25l-0.087,0.249l-0.359,0.131l-0.261,0.043l-0.228-0.021l-0.402-0.152
				l-0.304-0.119l-0.055-0.087l-0.152-0.174l-0.13-0.142l-0.229-0.151l-0.108-0.109l-0.13-0.043l-0.065-0.108l-0.293-0.186
				l-0.109-0.043h-0.358l-0.087-0.044h-0.13l-0.163-0.13l-0.043-0.076l-0.065-0.152l0.065-0.261l0.13-0.163l0.098-0.064l0.174-0.174
				l0.13-0.207l0.065-0.174v-0.087v-0.141l0.076-0.218V24.21l-0.054-0.12l-0.021-0.282l0.043-0.119l0.054-0.109v-0.174l-0.054-0.108
				l-0.022-0.271l0.022-0.065l0.032-0.108l0.022-0.163l-0.022-0.685l-0.185-0.293v-0.195l0.109-0.142l0.163-0.131l0.087-0.043
				l0.315-0.044l0.348-0.043l0.098,0.021l0.304-0.043l0.087-0.044l0.12-0.021l0.152-0.021h0.271h0.108l0.087-0.022l0.359-0.163
				l0.108-0.087h0.272l0.217-0.151l0.228-0.163l0.174-0.218l0.065-0.337l0.065-0.174v-0.108v-0.098l0.141-0.282l-0.033-0.294
				l-0.043-0.195l-0.108-0.206l-0.358-0.381l-0.152-0.065l-0.13-0.064h-0.207l-0.304-0.174l-0.228-0.065h-0.174l-0.38,0.065
				l-0.38,0.304l-0.087,0.163v0.218v0.228l0.065,0.152l0.108,0.044l0.272-0.088h0.087l0.087,0.044l0.206,0.021l0.283,0.229
				l0.021,0.087l0.022,0.087l0.021,0.217l-0.021,0.359l-0.109,0.206l-0.195,0.195l-0.315,0.152l-0.239,0.044h-0.271l-0.196-0.044
				l-0.207-0.087l-0.217-0.065l-0.293-0.293l-0.13-0.152v-0.13l-0.022-0.087l-0.098-0.044l-0.022-0.25l-0.065-0.25l0.021-0.326
				l0.022-0.108v-0.163l0.098-0.261l0.021-0.185l0.37-0.532l0.054-0.131l0.174-0.141l0.424-0.239l0.152-0.087l0.38-0.108
				l0.217-0.142l0.38-0.13l0.207-0.229l0.022-0.065l0.043-0.152l0.043-0.195l0.271-0.206L122.216,15.615z M122.998,21.33
				l-0.25,0.163l-0.174,0.109l-0.196,0.043h-0.141l-0.195,0.087l-0.142,0.131l-0.108-0.022h-0.13l-0.13,0.12l0.021,0.151
				l0.022,0.152l0.043,0.207l0.065,0.641l0.022,0.108l-0.065,0.163l0.022,0.261l-0.043,0.652v0.239l-0.207,0.206l0.185,0.021
				l0.13,0.021h0.272l0.13,0.022l0.13-0.022l0.423,0.022l0.229,0.043l0.261,0.065l-0.065-0.152l-0.065-0.087l-0.109-1.717
				l-0.065-0.358l0.087-0.217L122.998,21.33z"/>
			<path d="M128.919,15.811l0.108-0.021l0.293,0.098l0.13,0.021l0.315,0.109l0.13,0.151l0.25,0.163l0.043,0.109l0.283,0.261
				l0.207,0.141l0.174,0.196l0.315,0.174l0.13,0.054l0.109,0.021l0.185,0.196l-0.022,0.271l-0.141,0.239l-0.13,0.13l-0.13,0.12
				l-0.043,0.064l-0.043,0.152v0.131v0.206l0.022,0.282l0.043,0.424l0.021,1.119v0.087l-0.087,0.271l0.022,0.239l0.108,0.207v0.13
				l-0.065,0.152l0.021,0.087l0.043,0.445v0.119l-0.043,0.326l0.022,0.142l-0.022,0.174l0.022,0.511l-0.065,0.424l-0.043,0.195
				l-0.185,0.424l0.293,0.043l0.217,0.022l0.293,0.098l0.315,0.043l0.239,0.065h0.13l0.12,0.021l0.283-0.021v-0.206l-0.043-0.261
				l-0.152-0.359l-0.043-0.424v-0.174v-0.293l0.043-0.424l-0.021-0.217v-0.207l0.152-0.152l0.043-0.108l-0.065-0.185l-0.087-0.489
				v-0.282l0.087-0.021l-0.065-0.294l0.022-0.314l-0.087-0.108v-0.337l0.108-0.218v-0.065l-0.043-0.358l0.022-0.13l-0.043-0.065
				l-0.152-0.119l-0.163-0.109l-0.13-0.065l-0.195-0.195l-0.055-0.119l0.033-0.424l0.13-0.108l0.13-0.131l0.109-0.185l0.098-0.065
				l0.37-0.348l0.098-0.119l0.043-0.131v-0.174l-0.022-0.206l-0.076-0.218l-0.022-0.141l0.098-0.174l0.239-0.174l0.152-0.044
				l0.142,0.044l0.195,0.043l0.109,0.044l0.12,0.13v0.065l0.087,0.021l0.282,0.185l0.293,0.239l0.13,0.108l0.12,0.12l0.239,0.13
				l0.315,0.174l0.13,0.044l0.108,0.054l0.293,0.131l0.043,0.087l0.065,0.174l-0.022,0.229l-0.174,0.174l-0.25,0.206l-0.043,0.087
				l-0.065,0.174l-0.043,0.532l0.065,0.12v0.195l-0.043,0.13l-0.021,0.229l-0.087,0.315l0.043,0.413l-0.13,0.206l-0.12,0.13
				l0.12,0.044l0.043,0.185v0.326l0.043,0.142l0.021,0.087v0.13l-0.021,0.206v0.131l-0.043,0.358l0.021,0.131l0.022,0.238
				l-0.022,0.163v0.642l0.022,0.087v0.38l-0.12,0.108l-0.065,0.207l0.25,0.087l0.087,0.314l0.043,0.087l0.25,0.239l0.087,0.098
				l0.152,0.261l0.13,0.272l0.054,0.151l0.043,0.109l-0.065,0.738l0.043,0.087l-0.021,0.185l-0.12,0.413l-0.152,0.294l-0.022,0.174
				l-0.152,0.249l-0.043,0.087l-0.25,0.25l-0.174,0.109l-0.12,0.108l-0.087,0.021l-0.402,0.315l-0.218,0.021l-0.423,0.25
				l-0.25,0.108l-0.391,0.195l-0.163,0.044l-0.174,0.043l-0.185,0.076l-0.261,0.131l-0.185,0.065l-0.435,0.195l-0.207,0.119
				l-0.13,0.087l-0.228,0.196l-0.065,0.108l-0.043,0.163l0.043,0.261v0.141l-0.13,0.261l-0.293,0.207h-0.283l-0.098-0.044
				l-0.326-0.076l-0.445-0.195l-0.207-0.108l-0.087-0.065l-0.13-0.076l-0.108-0.087l-0.272-0.152l-0.13-0.174l-0.228-0.119
				l-0.217-0.217l-0.337-0.229l-0.108-0.087l-0.13-0.065l-0.207-0.065l-0.196-0.064l-0.206-0.163l-0.196-0.044l-0.087-0.043
				l-0.207-0.044l-0.467-0.13l-0.108-0.022l-0.228,0.022l-0.196,0.064l-0.152,0.109l-0.119,0.206v0.195l0.163,0.174l0.305-0.064
				h0.098l0.13-0.044l0.152,0.021h0.087l0.142,0.065l0.174,0.337v0.293l-0.043,0.218l-0.087,0.087l-0.065,0.119l-0.207,0.152
				l-0.065,0.087l-0.109,0.021l-0.087,0.044l-0.25,0.043l-0.174-0.021l-0.185-0.065l-0.261-0.108l-0.532-0.38l-0.098-0.218
				l-0.065-0.185l-0.065-0.152l-0.021-0.217l-0.022-0.163v-0.108l-0.021-0.131l0.087-0.489l0.108-0.185l0.163-0.337l0.087-0.064
				l0.13-0.131l0.163-0.087l0.239-0.152l0.108-0.076l0.337-0.108l0.152-0.021l0.098-0.021h0.304l0.12-0.022l0.108,0.044h0.13
				l0.337,0.021l0.109,0.065l0.25,0.043l0.065-0.087l0.043-0.304l0.152-0.294l0.043-0.087l0.38-0.228l0.554,0.021l0.608,0.315
				l-0.098,0.021l0.228,0.131l0.087,0.064l0.152,0.076l0.098,0.152l0.13,0.021l0.239,0.218l0.402,0.38l0.185,0.087l0.152,0.076
				l0.195,0.108l0.25,0.065l0.239,0.044h0.206h0.261l0.229-0.131l0.174-0.044l0.185-0.141l0.217-0.108l0.13-0.152l0.207-0.271
				l0.293-0.402l0.043-0.392l0.021-0.098l-0.043-0.325l-0.054-0.207l-0.065-0.065l-0.087-0.195l-0.087-0.076l-0.108-0.021
				l-0.12-0.108l0.033-0.087l-0.098-0.022l-0.174-0.087l-0.359-0.119l-0.152-0.021l-0.13,0.054l-0.315-0.032l-0.228,0.25
				l-0.174,0.152l-0.13,0.424l0.13,0.25l-0.043,0.238l-0.25,0.271l-0.13,0.044l-0.152-0.044l-0.185-0.043h-0.087l-0.304-0.185
				l-0.358-0.195l-0.228-0.174l-0.261-0.25l-0.142-0.065l-0.152-0.131l-0.261-0.162l-0.12-0.065l-0.152-0.044l-0.229-0.087h-0.108
				l-0.217-0.152l-0.022-0.401l0.043-0.12l0.13-0.174l0.315-0.217l0.108-0.271l0.065-1.021l-0.065-0.294l0.043-0.532l-0.021-0.271
				l0.021-0.413l-0.043-0.141l-0.043-0.131v-0.065l0.022-0.087l0.087-0.185v-0.13V21.45l-0.022-0.142l-0.108-0.217l0.021-0.131
				v-0.229l0.087-0.174l0.022-0.162l0.021-0.109l-0.021-0.217v-0.315l-0.087-0.229v-0.151l-0.087-0.218l-0.359-0.337l-0.195-0.087
				l-0.142-0.043l-0.087-0.207v-0.358l0.174-0.217l0.315-0.272l0.271-0.261l0.087-0.087l0.13-0.119l0.087-0.043l0.022-0.087
				l0.054-0.174l-0.12-0.229l-0.043-0.239l0.022-0.142l0.043-0.13L128.919,15.811z"/>
			<path d="M154.845,11.172h0.146h0.171l0.256,0.109l0.244,0.318v0.207l-0.049,0.195l-0.171,0.672l-0.049,0.121l-0.159,0.403
				l-0.146,0.28l-0.146,0.293l-0.305,0.452l-0.195,0.306l-0.195,0.316l-0.061,0.11l-0.244,0.342l-0.049,0.183l-0.049,0.172
				l-0.098,0.146l-0.085,0.146l-0.867,1.062l-0.208,0.22l-0.049,0.146l0.024,0.122l-0.049,0.208l-0.122,0.244l-0.073,0.109
				l-0.024,0.098l-0.159,0.22l-0.073,0.098l-0.024,0.134l-0.024,0.146l-0.073,0.221l-0.098,0.329l-0.171,0.146l-0.134-0.049
				l0.073,0.122l0.11,0.305l-0.049,0.123v0.098l-0.183,0.5l-0.049,0.184l-0.146,0.646v0.22l-0.049,0.306l-0.024,0.268l0.024,0.428
				l0.073,0.232l0.098,0.195l0.049,0.17l0.049,0.184l0.281,0.049l0.073,0.122l0.049,0.231l0.403,0.195l0.122,0.074l0.122,0.049
				l0.134,0.049l0.146,0.207l0.024,0.146l-0.171,0.428l-0.159,0.17l-0.073,0.098l-0.146,0.098l-0.073,0.025l-0.574,0.402
				l-0.183,0.024l-0.342,0.073l-0.183,0.061l-0.244,0.195l0.024,0.123l-0.305,0.098l-0.171,0.109l-0.208,0.098l-0.171,0.171
				l-0.171,0.329l0.073,0.27l-0.024,0.329l-0.195,0.293l-0.11,0.062l-0.146,0.049h-0.122h-0.122l-0.159-0.086l-0.391-0.171
				l-0.183-0.146l-0.122-0.146l-0.378-0.403l-0.122-0.231l-0.024-0.098l-0.073-0.098l-0.098-0.28l-0.024-0.074l-0.134-0.427
				l-0.024-0.171l-0.073-0.402V25.1l-0.171-0.305l0.024-0.244v-0.379v-0.17l0.049-0.221l0.073-0.158v-0.146v-0.195l0.073-0.184
				v-0.293l0.073-0.183l0.049-0.195l-0.098-0.122v-0.207l0.134-0.123l0.195-0.098l0.122-0.049v-0.28l0.122-0.317l-0.049-0.184
				l0.049-0.17l0.11-0.098l0.049-0.123v-0.158l0.22-0.244l0.171-0.379l0.085-0.098l0.171-0.121l-0.073-0.184l0.049-0.195
				l0.073-0.098l0.122-0.184l0.098-0.098l0.305-0.427V18.35l0.146-0.171l0.183-0.049l0.024-0.073l0.293-0.402l0.354-0.159
				l0.098-0.122l0.281-0.244l0.024-0.158l0.073-0.244l0.171-0.074l0.122-0.072l0.232-0.257l0.269-0.244l0.11-0.159l0.146-0.049
				l0.696-0.695l0.122-0.171l0.134-0.159l0.122-0.195l0.098-0.28l-0.146,0.11l-0.146,0.072l-0.452,0.098l-0.732,0.025l-0.598,0.023
				l-0.098-0.023l-0.146-0.025l-0.183,0.025l-0.317-0.098l-0.403,0.072l-0.854-0.049l-0.317-0.023l-0.208,0.023l-0.452,0.146
				l-0.098,0.049l-0.244,0.159l-0.122,0.195l-0.085,0.098l-0.073,0.122l-0.22,0.184l-0.281,0.072l-0.22-0.049l-0.281-0.28
				l-0.049-0.098l-0.024-0.22l0.024-0.305l0.354-0.672l0.073-0.184l0.195-0.268l0.134-0.257l0.269-0.573l0.049-0.221l-0.049-0.427
				l-0.073-0.098l0.024-0.306l0.098-0.195l0.208-0.146l0.146-0.049h0.098h0.281l0.098,0.098l0.098,0.074l0.256,0.195l0.122,0.023
				l0.073,0.098l0.22,0.037l0.598,0.024l0.757,0.073l0.549-0.098l0.171,0.073l0.208-0.024h0.122l0.098,0.024l0.427-0.024
				l0.452,0.049l0.244-0.024h0.305h0.293l0.781-0.073l0.269-0.086l0.11-0.098l0.293-0.342L154.845,11.172z"/>
		</g>
	</g>
</g>
</svg>
