<?xml version="1.0" encoding="utf-8"?>
<!-- Generator: Adobe Illustrator 16.0.0, SVG Export Plug-In . SVG Version: 6.00 Build 0)  -->
<!DOCTYPE svg PUBLIC "-//W3C//DTD SVG 1.1//EN" "http://www.w3.org/Graphics/SVG/1.1/DTD/svg11.dtd">
<svg version="1.1" id="Layer_2" xmlns="http://www.w3.org/2000/svg" xmlns:xlink="http://www.w3.org/1999/xlink" x="0px" y="0px"
	 width="238.123px" height="48.244px" viewBox="0 0 238.123 48.244" enable-background="new 0 0 238.123 48.244"
	 xml:space="preserve">
<g>
	<g>
		<g>
			<polygon fill="#D9DADB" points="166.651,46.254 166.651,39.42 72.506,39.42 72.506,46.254 5.159,46.254 20.014,27.539 
				5.159,8.824 34.416,8.824 34.416,1.991 204.565,1.991 204.565,8.824 233.5,8.824 221.615,27.539 233.5,46.254 			"/>
			<path d="M202.574,3.983v6.833h27.302l-10.62,16.723l10.62,16.723h-61.233V37.43H70.515v6.832H9.281l13.275-16.723L9.281,10.816
				h27.125V3.983H202.574 M206.556,0h-3.981H36.407h-3.982v3.983v2.85H9.281H1.036l5.126,6.46l11.311,14.246L6.162,41.785
				l-5.126,6.459h8.246h61.234h3.982v-3.982v-2.85h90.162v2.85v3.982h3.983h61.233h7.247l-3.885-6.117l-9.265-14.588l9.265-14.588
				l3.885-6.118h-7.247h-23.32v-2.85V0L206.556,0z"/>
		</g>
		<polygon fill="#B0B4B7" points="70.515,44.262 70.515,10.816 9.281,10.816 22.557,27.539 9.281,44.262 		"/>
		<polygon fill="#B0B4B7" points="229.876,10.816 168.643,10.816 168.643,44.262 229.876,44.262 219.256,27.539 		"/>
		<polygon points="32.379,9.311 32.379,39.879 61.13,46.386 72.001,45.565 39.198,9.311 		"/>
		<polygon points="206.567,9.179 206.567,39.746 177.815,46.254 166.944,45.434 199.749,9.179 		"/>
		<polygon fill="#8B8B8B" points="202.574,3.983 202.574,37.43 168.643,44.262 168.509,10.816 		"/>
		<polygon fill="#8B8B8B" points="36.407,3.983 36.407,37.43 70.471,44.262 70.473,10.816 		"/>
		<rect x="36.407" y="3.983" fill="#FFFFFF" width="166.167" height="33.446"/>
	</g>
	<g>
		<g>
			<polygon points="185.418,15.958 186.755,18.667 189.743,19.102 187.581,21.209 188.091,24.187 185.418,22.78 182.744,24.187 
				183.255,21.209 181.093,19.102 184.081,18.667 			"/>
			<polygon points="52.77,15.958 54.105,18.667 57.095,19.102 54.931,21.209 55.442,24.187 52.77,22.78 50.095,24.187 
				50.605,21.209 48.443,19.102 51.432,18.667 			"/>
		</g>
		<g>
			<path d="M82.311,13.192l0.25-0.021l0.087,0.021l0.283,0.13l0.141,0.229L83.05,13.92l-0.098,0.099l-0.043,0.151l-0.304,0.283
				l-0.12,0.054l-0.174,0.044l-0.228,0.108l-0.174,0.043l-0.152,0.109l-0.108,0.043l-0.12,0.098l-0.174,0.326l-0.087,0.511
				l-0.021,0.206l-0.098,1.358v0.174l-0.043,0.087l-0.087,0.087l-0.021,0.142l-0.022,0.087l0.022,0.108v0.207l0.021,0.108
				l0.13,0.108l-0.021,0.185l0.021,0.489l0.076,0.108v0.195l-0.021,0.087l-0.055,0.12l-0.108,0.195V20.2l0.021,0.152l0.207,0.229
				l-0.12,0.38l0.033,0.218l-0.033,0.401l0.055,0.109l0.021,0.151l-0.021,0.294l-0.022,0.087l0.043,0.358v0.087l-0.021,0.25
				l0.043,0.348v0.337v0.163l-0.043,0.064l0.021,0.261l0.065,0.163l0.043,0.131l0.021,0.239v0.141l0.087,0.108l0.022,0.131v0.142
				l0.108,0.391l0.043,0.207l0.207,0.445l0.065,0.108l0.13,0.108l0.336,0.142l0.337,0.065l0.261,0.043l0.098,0.065l0.108,0.13
				l0.043,0.109v0.098v0.261l-0.021-0.108l-0.043,0.217l-0.272,0.229l-0.174,0.087l-0.163,0.021l-0.51,0.044h-0.109h-0.196
				l-0.043-0.109L81.55,27.72l-0.109,0.087l-0.293-0.044l-0.13-0.108l-0.13-0.065l-0.065,0.087l-0.185,0.021l-0.663-0.087
				l-0.489-0.043l-0.087,0.021l-0.185-0.021l-0.152,0.021l-0.196,0.021l-0.271,0.065l-0.087-0.021l-0.185,0.043h-0.109l-0.065,0.022
				h-0.217l-0.315,0.064l-0.152,0.044l-0.543,0.119l-0.282,0.021l-0.12,0.044l-0.489,0.021h-0.109H75.77l-0.087-0.021h-0.098
				l-0.261,0.043l-0.087-0.021L74.9,28.013l-0.087-0.021l-0.402-0.044l-0.087-0.054h-0.141l-0.087-0.065l-0.239-0.087l-0.163-0.065
				l-0.13-0.044l-0.358-0.151l-0.087-0.098h-0.065l-0.272-0.109l-0.152-0.021l-0.043,0.206l-0.13,0.152l-0.163,0.065l-0.283,0.108
				l-0.293,0.142L71.5,27.947l-0.25,0.087l-0.196-0.065h-0.065l-0.207,0.065L70.696,28.1l-0.207,0.021h-0.283L70.098,28.1L70,27.947
				h-0.13l-0.38,0.108l-0.348-0.064h-0.12l-0.326-0.142l-0.271-0.021l-0.152-0.021l-0.315-0.152l-0.13-0.044l-0.065-0.25
				l-0.163-0.021L67.36,27.36l-0.336-0.217l-0.196-0.207l-0.098-0.043l-0.087-0.065l-0.304-0.304l-0.272-0.163l-0.043-0.131
				l-0.043-0.152l-0.043-0.098l-0.141-0.282l-0.087-0.142l-0.021-0.087l-0.109-0.043l-0.021-0.261l-0.043-0.098l-0.065-0.109
				l-0.12-0.358l-0.021-0.174V24.21l-0.022-0.229v-0.108l0.043-0.131l0.043-0.098l0.022-0.195l-0.109-0.206v-0.109l0.065-0.401
				l0.076-0.109l0.065-0.043l0.022-0.108l-0.12-0.272l0.054-0.195v-0.206l0.109-0.326l0.13-0.25l0.065-0.13l0.065-0.186l0.054-0.064
				l0.13-0.239l0.021-0.087l0.065-0.142l0.13-0.151l0.043-0.207l0.076-0.195l0.043-0.195l0.195-0.142l0.087-0.152l0.087-0.195
				l0.098-0.119l0.348-0.446l0.141-0.108l0.13-0.195l0.087-0.065l0.087-0.119l0.12-0.044l0.043-0.152l0.282,0.022l-0.021-0.229
				l0.25-0.326l0.174-0.228v-0.087l0.087-0.109l0.021-0.087l0.076-0.163l0.108-0.174l0.065-0.358l0.043-0.195l0.043-0.142
				l0.021-0.369v-0.229l-0.065-0.151l-0.043-0.207l-0.152-0.217l-0.021-0.152l-0.12-0.163l-0.195-0.043l-0.13,0.021l0.021,0.13
				l-0.185-0.021l-0.174-0.021l-0.109,0.043l-0.271,0.163l-0.174,0.282v0.186l0.043,0.304l0.326,0.381l0.098,0.228l-0.022,0.282
				l-0.021,0.099l-0.076,0.108l-0.196,0.239L67.36,16.8l-0.271,0.065l-0.195,0.021l-0.163-0.044l-0.087-0.021l-0.196-0.098H66.36
				l-0.098-0.108L66.11,16.55l-0.065-0.218l-0.152-0.185l-0.163-0.706v-0.163l0.065-0.239l0.043-0.206l0.054-0.108l0.109-0.196
				l0.087-0.162l0.38-0.576l0.174-0.065l0.554-0.315l0.206-0.021l0.087-0.043l0.13-0.022l0.163-0.021l0.326-0.021l0.358,0.021
				l0.13,0.021l0.12,0.022l0.239,0.108l0.359,0.043v0.099l0.195,0.087l0.043,0.087l0.12,0.043l0.065,0.087l0.152,0.163l0.337,0.489
				l0.152,0.325l0.022,0.099v0.087l0.043,0.087l0.076,0.13l0.043,0.294l0.043,0.13l0.021,0.131V16.3l0.043,0.206v0.402l-0.021,0.108
				l-0.065,0.532l0.022,0.186l-0.043,0.087l-0.076,0.174l-0.022,0.206l-0.108,0.489l-0.065,0.174l-0.043,0.152l-0.271,0.738
				l-0.065,0.152l-0.109,0.337l-0.152,0.217l-0.043,0.142l0.043,0.217v0.087l-0.185,0.381l-0.065,0.185v0.131v0.064l-0.174,0.445
				l-0.065,0.152l-0.076,0.185l-0.043,0.174l0.043,0.131l-0.065,0.185v0.131L69,23.808l0.043,0.282l-0.021,0.337l-0.043,0.196
				l0.065,0.293l0.098,0.174l0.152,0.467l0.13,0.25l0.25,0.239l0.174,0.185L70,26.296l0.119,0.065l0.196,0.108h0.087l0.207,0.055
				l0.554,0.087l0.217-0.065l0.119,0.021l0.109-0.043l0.021-0.272l-0.152-0.108l-0.022-0.119l-0.119-0.087l-0.022-0.108
				l-0.108-0.044l-0.087-0.206l-0.087-0.196l-0.163-0.271v-0.087l-0.022-0.087l-0.087-0.087v-0.108l-0.043-0.119l-0.065-0.087
				l-0.022-0.305l-0.065-0.25l-0.022-0.174l-0.021-0.163l0.021-0.511l-0.076-0.304l0.055-0.142l0.043-0.152l-0.043-0.108l0.043-0.25
				l0.108-0.282l0.043-0.206l0.065-0.152l0.13-0.207l0.163-0.217l0.108-0.185l-0.065-0.087v-0.196l0.021-0.13l0.087-0.098
				l0.043-0.131l0.087-0.043l0.12-0.174l0.13-0.207l0.021-0.13l0.174-0.229l0.098-0.087l0.195-0.261l0.152-0.163l0.087-0.174
				l0.141-0.152l0.13-0.141l0.13-0.195l0.12-0.065l0.108-0.207l0.152,0.022l0.13-0.305l0.228-0.25l0.196-0.314l0.098-0.087
				l0.152-0.218V16.8l0.065-0.098l0.065-0.152l-0.043,0.087l0.152-0.261l0.022-0.163l0.185-0.305l0.109-0.162v-0.131l0.021-0.25
				l0.022-0.195l-0.022-0.294l-0.358-0.488l-0.196-0.065l-0.228-0.043l-0.445,0.13l-0.174,0.229l-0.087,0.195v0.142l-0.044,0.151
				l-0.043,0.196l-0.087,0.141l-0.228,0.196l-0.087,0.043l-0.152,0.021l-0.293,0.044l-0.337-0.218l-0.152-0.108l-0.108-0.63
				l0.087-0.218l0.043-0.163l0.315-0.488l0.348-0.283l0.229-0.141l0.282-0.131l0.141-0.021l0.087-0.044l0.261-0.043l0.206-0.021
				l0.446,0.043h0.13l0.228,0.044l0.196,0.021l0.174,0.065l0.141,0.043l0.087,0.098l0.293,0.152l0.217,0.218l0.228,0.271
				l0.196,0.314l0.195,0.555l0.022,0.239l0.021,0.119l-0.021,0.239l0.021,0.25l-0.021,0.641l-0.022,0.195l-0.021,0.142l-0.022,0.174
				l-0.021,0.131l-0.022,0.075l-0.043,0.174l-0.065,0.272l-0.022,0.195v0.152l-0.043,0.163l-0.108,0.238l-0.055,0.185l-0.043,0.109
				L75.52,18.93l-0.152,0.401l-0.065,0.195l-0.25,0.468l-0.087,0.163l-0.087,0.152l-0.022,0.087l0.109,0.206v0.108l-0.022,0.108
				v0.25l-0.152,0.381l0.021,0.108l-0.021,0.131l-0.271,0.336l-0.065,0.152v0.065l0.087,0.043l0.022,0.12v0.087l-0.065,0.195
				l-0.043,0.087l-0.021,0.163l-0.087,0.239l-0.022,0.206v0.282l0.065,0.163v0.174l-0.022,0.087l-0.021,0.142v0.152v0.087
				l0.108,0.087v0.087v0.098l-0.065,0.174l0.087,0.13l0.271-0.423l0.174-0.305l0.108-0.25l0.12-0.239l0.13-0.163l0.359-0.108
				l0.239,0.065l0.109,0.142l0.043,0.108l0.098,0.239l-0.12,0.532l-0.174,0.5l-0.065,0.13l-0.359,0.532l-0.087,0.109l-0.207,0.249
				l-0.043,0.174l-0.021,0.109l0.12,0.119l0.152,0.065l0.174,0.065l0.207,0.064h0.152l0.021-0.087l0.358,0.044h0.109l0.445-0.337
				l0.359-0.195l0.152-0.163l0.065-0.218l0.065-0.087l0.054-0.228l0.087-0.152l0.022-0.152l0.021-0.163l-0.087-0.261l0.326-0.488
				l0.098-0.163l-0.021-0.131l-0.076-0.293l-0.022-0.131l0.043-0.13l-0.087-0.087l-0.13-0.12l-0.13-0.108l0.065-0.315l0.337-0.282
				l0.043-0.185l-0.098-0.174v-0.131v-0.401l-0.065-0.108v-0.142l-0.022-0.108L77.769,21.2v-0.152v-0.087l0.043-0.229l0.021-0.13
				v-0.468l0.022-0.717l-0.022-0.195v-0.087l-0.021-0.315l0.021-0.065l0.022-0.185l-0.022-0.108l-0.043-0.282l-0.021-0.185
				l-0.043-0.381l0.065-0.087l0.087-0.261v-0.185l-0.043-0.065V16.93l-0.021-0.108l0.021-0.119l-0.043-0.131v-0.13l0.022-0.186
				l-0.043-0.282v-0.087v-0.163v-0.238l-0.087-0.142l-0.065-0.261l-0.152-0.229l-0.695-0.282l-0.152-0.142l-0.098-0.151
				l-0.043-0.109l0.043-0.271l0.076-0.152l0.152-0.174l0.022-0.076h0.108h0.12l0.109-0.043l0.021,0.142l0.402-0.076l0.174-0.044
				l0.272,0.163l0.152,0.021l0.272-0.021l0.065,0.044l0.174,0.021l0.337,0.043l0.195-0.021l0.163,0.021h0.913l0.152-0.021
				l0.174-0.021l0.109,0.021l-0.065,0.108h0.12l0.152,0.022l0.152-0.044l0.087-0.043l0.207-0.022l0.108-0.25l0.174-0.021
				l0.163-0.087l0.174-0.108l0.207-0.065L82.311,13.192z"/>
			<path d="M88.7,15.594h0.315l0.196,0.13l0.043,0.142l0.293,0.467l0.217,0.37l0.098,0.25l0.152,0.238l0.087,0.207l0.043,0.13
				l-0.021,0.087l0.021,0.185l0.043,0.109l0.043,0.174l0.163,0.206l0.261,0.218l0.087,0.162l0.054,0.218l0.065,0.229l0.108,0.174
				l0.109,0.337l0.293,0.238l0.065,0.229l-0.043,0.195l-0.185,0.196l-0.087,0.162l-0.532,0.315l-0.359,0.218l-0.261,0.108
				l-0.108,0.087l-0.142,0.142l-0.108,0.043l-0.271,0.065l-0.174,0.13l-0.13,0.044l-0.38,0.228h-0.087l-0.163,0.131l-0.087,0.021
				l-0.304,0.294l-0.12,0.195l-0.021,0.087v0.098l-0.022,0.131l-0.174,0.174l-0.315-0.022l0.021,0.25l-0.021,0.174l-0.087,0.131
				l-0.065,0.206l-0.108,0.131l-0.055,0.13l0.033,0.207l0.087,0.151l0.109,0.022l0.108,0.043h0.13h0.272l0.206,0.098l0.304,0.021
				l0.25,0.022l0.13,0.021h0.087l0.293,0.043l0.304,0.022l0.293-0.044l0.13-0.087l0.043-0.098l0.054-0.108l-0.021-0.087v-0.087
				l-0.076-0.12l-0.087-0.151l-0.087-0.283l0.065-0.271l0.065-0.108l0.087-0.142l0.228-0.108l0.13-0.021h0.142l0.217,0.087
				l0.13,0.043l0.163,0.185l0.087,0.196l0.043,0.575l-0.043,0.099l-0.043,0.261l-0.043,0.271l-0.065,0.174l-0.12,0.087l-0.087,0.141
				l-0.021,0.131l-0.196,0.217l-0.163,0.163l-0.956,0.771l-0.087,0.142l-0.043,0.282l0.065,0.12l0.021,0.195l-0.043,0.174
				l-0.13,0.185l-0.12,0.021l-0.348,0.065l-0.163-0.044l-0.282-0.043l-0.141-0.044l-0.196-0.087l-0.13-0.075l-0.141-0.022
				l-0.13-0.021l-0.174-0.13l-0.207-0.044l-0.37-0.229l-0.119-0.043l-0.196-0.108l-0.228-0.131l-0.196-0.087l-0.315-0.206
				l-0.304-0.109l-0.271-0.13l-0.13-0.021h-0.337l-0.13-0.076l-0.163-0.152l-0.065-0.152l0.022-0.064l0.043-0.163l0.098-0.152
				l0.261-0.25l0.13-0.195l0.022-0.196l0.054-0.162l0.043-0.305V24.09l-0.022-0.238V23.71l-0.076-0.065l-0.022-0.195l0.12-0.065
				l-0.065-0.141l0.043-0.218l-0.021-0.13l-0.098-0.25l0.098-0.109l0.021-0.087v-0.087l-0.021-0.358l0.021-0.087V21.2l-0.021-0.152
				v-0.206l-0.022-0.305l0.022-0.206l-0.022-0.239l0.022-0.163l0.021-0.108l-0.043-0.087l-0.054-0.402l-0.021-0.25l0.021-0.174
				l-0.087-0.261l-0.065-0.098l-0.239-0.174l-0.076-0.087l-0.021-0.108l0.021-0.207l0.142-0.195l0.304-0.119l0.467-0.065l0.25-0.065
				l0.087-0.043l0.13-0.022l0.935-0.271l0.141-0.064h0.109l0.065-0.065l0.087-0.108l0.163,0.043l0.217-0.108l0.152-0.12l0.337-0.195
				l0.087-0.043l0.423-0.402l0.065-0.152l0.021-0.163l0.142-0.151L88.7,15.594z M87.233,17.777l-0.065,0.174v0.174l0.043,0.12
				l0.043,0.174l0.043,0.293l0.022,0.108l0.043,0.087l0.021,0.468l0.022,0.087l0.043,0.141l0.043,0.218l-0.065,0.152l0.065,0.206
				v0.131l-0.043,0.13l-0.065,0.229l0.022,0.087l0.021,0.087l-0.021,0.185l0.021,0.108v0.152l0.022,0.108l-0.043,0.207l0.065,0.108
				l0.293-0.381l0.315-0.108l0.043-0.108l0.087-0.044l0.087-0.064l0.13-0.044l0.185-0.315l0.043-0.087l-0.043-0.119l-0.109-0.195
				l-0.043-0.109l-0.033-0.141l-0.152-0.326l-0.315-0.804l-0.087-0.065l-0.217-0.424l-0.043-0.152l-0.272-0.467L87.233,17.777z"/>
			<path d="M95.827,10.672h0.489l0.065,0.119l0.087-0.055l0.087,0.099l0.076,0.108l0.13,0.195l0.022,0.185v0.261l-0.043,0.207
				l-0.087,0.064l-0.098,0.131l-0.087,0.021l-0.195,0.271l-0.043,0.087l-0.022,0.271l0.065,0.37l0.152,0.337l0.087,0.174l0.12,0.185
				l0.174,0.174l0.065,0.163L97,14.127l0.185,0.195l0.087,0.065l0.152,0.206v0.087l-0.065,0.174l0.228,0.25l0.087,0.108l0.196,0.186
				l0.108,0.064l0.207,0.044l0.087,0.13l0.13,0.174l0.185,0.163l0.13,0.152l0.087,0.174l0.087,0.119l0.25,0.174l0.087,0.109
				l0.087,0.043l0.065,0.098l0.185,0.131l0.174,0.13l0.163,0.25l0.022,0.131l0.021,0.174l-0.141,0.185l-0.022,0.13l-0.043,0.065
				l-0.13,1v0.25v0.511l0.022,0.13v0.087l0.043,0.271v-0.108l-0.065,0.305v0.206l-0.087,0.043l0.109,0.065v0.315l0.087,0.108v0.108
				l-0.022,0.315l-0.108,0.195v0.098l0.043,0.152l0.065,0.108v0.533l-0.021,0.141v0.131v0.195l0.043,0.185l0.021,0.424l-0.043,0.239
				l0.065,0.358l0.25,0.358l0.087,0.282l-0.152,0.25L99.88,25.34l-0.293,0.065l-0.207,0.021l-0.261,0.043l-0.228,0.044h-0.196
				l-0.25,0.098l-0.174,0.021l-0.087,0.022L98.12,25.72h-0.087l-0.424,0.152l-0.12,0.065l-0.174,0.087l-0.293,0.141l-0.108,0.109
				l-0.283-0.022l-0.141,0.152l0.337,0.608l0.021,0.196l-0.043,0.174l-0.228,0.249l-0.152,0.022l-0.108,0.021h-0.109l-0.098-0.021
				l-0.152-0.022l-0.217-0.087l-0.163-0.064l-0.196-0.098l-0.087-0.022l-0.293-0.174l-0.13-0.13l-0.423-0.294L94.36,26.72
				l-0.098-0.087l-0.108-0.021l-0.152-0.12l-0.25-0.108l-0.174-0.087l-0.25-0.087l-0.152-0.021l-0.239-0.044l-0.163-0.043
				L92.6,25.98l-0.087-0.087l-0.098-0.195v-0.119l0.12-0.239l0.065-0.174l0.217-0.294l0.065-0.249v-0.794l0.054-0.185l-0.054-0.348
				l0.076-0.293l-0.054-0.358l-0.065-0.218V22.33l0.022-0.152l0.021-0.13l0.098-0.294l0.022-0.261l-0.022-0.587l-0.043-0.619
				l0.022-0.174l-0.022-0.532l-0.032-0.098l-0.043-0.108v-0.109l0.098-0.064v-0.087l-0.054-0.12l0.032-0.13l0.022-0.087l-0.054-0.25
				l-0.109-0.131l-0.152-0.043l-0.174-0.25v-0.239l0.13-0.163l0.108-0.065l0.087,0.022l0.087-0.044h0.25l0.174-0.021l0.141-0.021
				l0.174-0.065l0.109,0.021l0.12-0.021l0.13-0.044l0.217-0.108l0.163-0.043l0.348-0.207l0.228-0.151l0.195-0.109l0.12-0.043
				l0.217-0.055l0.174,0.098l0.142,0.174l-0.022,0.152l-0.043,0.185l-0.163,0.326l-0.021,0.142l-0.022,0.195l0.022,0.804
				l0.021,0.196l0.109,0.249l-0.065,0.174l0.022,0.229l0.021,0.239l0.022,0.402v0.108v0.119l-0.065,0.326l-0.087,0.206l0.022,0.109
				l0.043,0.337l0.021,0.217v0.532l0.022,0.185l0.021,0.131l-0.021,0.511l-0.022,0.228l-0.174,0.348l-0.065,0.12l-0.087,0.108
				l-0.163,0.131l-0.152,0.185v0.108h0.152l0.141,0.021l0.239,0.196l0.174,0.087l0.163,0.119h0.195l0.141,0.043l0.707,0.152
				l0.152,0.044l0.142-0.044l0.13-0.13l0.043-0.087v-0.163l-0.043-0.087l-0.359-0.261l-0.065-0.229l-0.022-0.108l-0.021-0.131
				v-0.163l-0.065-1.38v-0.336v-0.109v-0.238l0.022-0.402l0.087-0.044l0.021-0.108l-0.065-0.119l-0.043-0.402v-0.174l0.043-0.489
				v-0.13l0.108-0.294l0.022-0.13l-0.065-0.206l0.065-0.196v-0.152l0.087-0.358l0.076-0.108l0.108-0.076l-0.021-0.152l-0.337-0.108
				l-0.359-0.163l-0.065-0.13l-0.109-0.087l-0.315-0.271l-0.13-0.239l-0.25-0.294l-0.087-0.13l-0.13-0.218l-0.043-0.098
				l-0.228-0.304v-0.163l-0.239-0.087l0.043-0.261l-0.25-0.021l-0.109-0.142l-0.195-0.261l-0.087-0.207l-0.076-0.108l-0.217-0.152
				l-0.065-0.098l-0.141-0.064l-0.174-0.065l-0.261-0.021l-0.25,0.13l-0.152,0.076l-0.141,0.065l-0.195,0.021l-0.359-0.229
				l-0.021-0.151l0.065-0.489l0.043-0.108l0.12-0.022l0.087-0.119l0.358-0.152l0.043-0.087l0.402-0.108h0.087l0.195-0.076
				l0.229,0.021l0.13-0.043l0.293,0.021l0.282,0.098l0.13,0.087l0.228,0.087l0.087,0.131l0.272-0.022l-0.38-0.891v-0.087
				l-0.043-0.13l-0.043-0.511l0.108-0.381l0.065-0.108l0.087-0.271l0.141-0.065l0.152-0.152l0.152-0.043L95.827,10.672z"/>
			<path d="M105.997,15.746h0.293l0.348,0.141l0.076,0.108l0.152,0.044l0.174,0.065l0.163,0.13l0.13,0.021l0.109,0.044l0.207,0.163
				l0.174,0.152l0.336,0.206l0.359,0.108l0.641,0.065l0.13,0.044l0.021,0.087l0.25,0.087l0.021,0.162l-0.021,0.261l-0.207,0.294
				l-0.13,0.358l-0.065,0.282l-0.022,0.207v0.174v0.271l-0.021,0.13l-0.043,0.359l0.021,0.13l0.022,0.358l-0.022,0.152l-0.163,0.424
				v0.087l-0.021,0.142l0.043,0.108V21.2v0.087l-0.065,0.511l0.065,0.065v0.336l0.054,0.533l0.043,0.206v0.174v0.271v0.087
				l-0.021,0.218v0.206v0.174l0.065,0.207l0.022,0.087l0.13,0.13l0.043,0.087l0.108,0.119l0.674,0.218l0.087,0.229l-0.022,0.238
				l-0.217,0.174l-0.228,0.142l-0.174,0.108l-0.141,0.109l-0.217,0.064l-0.272,0.315l-0.152,0.315l0.021,0.13l0.065,0.174v0.12
				l0.043,0.13l0.043,0.218l-0.043,0.141l-0.13,0.152l-0.217,0.087h-0.25l-0.13-0.065l-0.185-0.108l-0.152-0.065l-0.108-0.043
				l-0.142-0.163l-0.108-0.065l-0.109-0.152l-0.25-0.064l-0.021-0.207l-0.174-0.217l-0.109-0.087l-0.087-0.076l-0.141-0.087
				l-0.195-0.065l-0.13-0.065l-0.207-0.152l-0.065-0.228l0.022-0.174l0.271-0.25l0.109-0.065l0.13-0.217v-0.099l0.021-0.282
				l0.022-0.185l-0.043-0.087v-0.087l-0.022-0.174v-0.229l-0.065-0.488l0.021-0.271l-0.043-0.087l0.022-0.402l-0.022-0.065
				l-0.043-0.13v-0.109l0.043-0.163l0.022-0.087l0.021-0.13l0.022-0.131l0.108-0.075l-0.13-0.022v-0.325l0.022-0.142l0.021-0.305
				l0.022-0.108l-0.022-0.229l0.022-0.108l-0.043-0.163l0.043-0.195l0.021-0.271l-0.021-0.131l0.043-0.174l0.141-0.651l0.043-0.196
				l0.13-0.087l-0.228-0.064l-0.174-0.098l-0.239-0.131l-0.141-0.108l-0.152-0.108h-0.087l-0.185-0.099l-0.283-0.195l-0.228-0.065
				l-0.337-0.043l-0.13,0.065l-0.065,0.151l0.021,0.12l0.109,0.195l0.098,0.131l0.043,0.162l0.022,0.131l0.043,0.282l0.021,0.565
				v0.065l0.022,0.087l-0.022,0.13l0.043,0.163v0.305l-0.021,0.206l-0.087,0.087l-0.142,0.065l0.142,0.087l0.021,0.119l0.087,0.468
				l0.022,0.217l0.021,0.152l0.022,0.163l-0.043,0.151l0.021,0.131l0.022,0.119v0.131l-0.022,0.087l-0.021,0.271v0.152l0.021,0.358
				l-0.108,0.489l-0.065,0.261l-0.12,0.141l-0.043,0.152v0.174l0.12,0.065l0.152,0.032l0.261,0.065l0.163,0.021l0.13,0.044
				l0.207,0.151v0.294l-0.076,0.195l-0.087,0.108l-0.239,0.272l-0.38,0.271l-0.065,0.087l-0.142,0.043l-0.108,0.315l-0.13,0.152
				l0.108,0.195l0.022,0.065l0.087,0.163l-0.022,0.282l-0.13,0.141l-0.424,0.131l-0.152-0.044l-0.228-0.087l-0.13-0.064
				l-0.152-0.207l-0.207-0.13l-0.282-0.185l-0.142-0.218l-0.087-0.065l-0.152-0.064l-0.207-0.163l-0.174-0.087h-0.108l-0.207-0.065
				l-0.087-0.044l-0.109-0.064l-0.108-0.109l-0.043-0.119l0.021-0.261l0.065-0.142l0.195-0.174l0.152-0.087l0.185-0.467l0.022-0.315
				l-0.022-0.151l0.022-0.272l0.065-0.108v-0.13l-0.021-0.109l0.043-0.185l-0.022-0.152v-0.141l0.022-0.087l-0.065-0.195V22.71
				l0.109-0.282v-0.315c0-0.072-0.007-0.123-0.022-0.151l0.022-0.098v-0.174l-0.065-0.109l0.043-0.228l0.022-0.576v-0.358
				l-0.022-0.108v-0.196l-0.021-0.141l-0.022-0.087l-0.043-0.131v-0.087l0.022-0.087l0.043-0.098l-0.022-0.152l0.022-0.108
				l-0.109-0.424l-0.598-0.021l-0.098-0.022l-0.283-0.206l-0.065-0.261l0.13-0.337l0.13-0.152l0.087-0.021l0.141-0.163l0.13-0.152
				l0.152-0.174l0.207-0.206l-0.022-0.087l0.043-0.065l0.043-0.087v-0.098l-0.021-0.087l-0.022-0.087l-0.043-0.239l0.022-0.206
				l0.261-0.293l0.141-0.044l0.065,0.044l0.402,0.032l0.087,0.021l0.174,0.044l0.163,0.021l0.391,0.152h0.119l0.261,0.174
				l0.13,0.098l0.163,0.174l0.13,0.152l0.109,0.141l0.163,0.152l0.108,0.021l0.293-0.043l0.326-0.294l0.12-0.217l0.022-0.087
				l-0.098-0.229l0.076-0.261L105.997,15.746z"/>
			<path d="M115.428,15.594h0.315l0.196,0.13l0.043,0.142l0.293,0.467l0.217,0.37l0.098,0.25l0.152,0.238l0.087,0.207l0.043,0.13
				l-0.021,0.087l0.021,0.185l0.043,0.109l0.043,0.174l0.163,0.206l0.261,0.218l0.087,0.162l0.054,0.218l0.065,0.229l0.108,0.174
				l0.109,0.337l0.293,0.238l0.065,0.229l-0.043,0.195l-0.185,0.196l-0.087,0.162l-0.532,0.315l-0.359,0.218l-0.261,0.108
				l-0.108,0.087l-0.142,0.142l-0.108,0.043l-0.271,0.065l-0.174,0.13l-0.13,0.044l-0.38,0.228h-0.087l-0.163,0.131l-0.087,0.021
				l-0.304,0.294l-0.12,0.195l-0.021,0.087v0.098l-0.022,0.131l-0.174,0.174l-0.315-0.022l0.021,0.25l-0.021,0.174l-0.087,0.131
				l-0.065,0.206l-0.108,0.131l-0.055,0.13l0.033,0.207l0.087,0.151l0.109,0.022l0.108,0.043h0.13h0.272l0.206,0.098l0.304,0.021
				l0.25,0.022l0.13,0.021h0.087l0.293,0.043l0.304,0.022l0.293-0.044l0.13-0.087l0.043-0.098l0.054-0.108l-0.021-0.087v-0.087
				l-0.076-0.12l-0.087-0.151l-0.087-0.283l0.065-0.271l0.065-0.108l0.087-0.142l0.228-0.108l0.13-0.021h0.142l0.217,0.087
				l0.13,0.043l0.163,0.185l0.087,0.196l0.043,0.575l-0.043,0.099l-0.043,0.261l-0.043,0.271l-0.065,0.174l-0.12,0.087l-0.087,0.141
				l-0.021,0.131l-0.196,0.217l-0.163,0.163l-0.956,0.771l-0.087,0.142l-0.043,0.282l0.065,0.12l0.021,0.195l-0.043,0.174
				l-0.13,0.185l-0.12,0.021l-0.348,0.065l-0.163-0.044l-0.282-0.043l-0.141-0.044l-0.196-0.087l-0.13-0.075l-0.141-0.022
				l-0.13-0.021l-0.174-0.13l-0.207-0.044l-0.37-0.229l-0.119-0.043l-0.196-0.108l-0.228-0.131l-0.196-0.087l-0.315-0.206
				l-0.304-0.109l-0.271-0.13l-0.13-0.021h-0.337l-0.13-0.076l-0.163-0.152l-0.065-0.152l0.022-0.064l0.043-0.163l0.098-0.152
				l0.261-0.25l0.13-0.195l0.022-0.196l0.054-0.162l0.043-0.305V24.09l-0.022-0.238V23.71l-0.076-0.065l-0.022-0.195l0.12-0.065
				l-0.065-0.141l0.043-0.218l-0.021-0.13l-0.098-0.25l0.098-0.109l0.021-0.087v-0.087l-0.021-0.358l0.021-0.087V21.2l-0.021-0.152
				v-0.206l-0.022-0.305l0.022-0.206l-0.022-0.239l0.022-0.163l0.021-0.108l-0.043-0.087l-0.054-0.402l-0.021-0.25l0.021-0.174
				l-0.087-0.261l-0.065-0.098l-0.239-0.174l-0.076-0.087l-0.021-0.108l0.021-0.207l0.142-0.195l0.304-0.119l0.467-0.065l0.25-0.065
				l0.087-0.043l0.13-0.022l0.935-0.271l0.141-0.064h0.109l0.065-0.065l0.087-0.108l0.163,0.043l0.217-0.108l0.152-0.12l0.337-0.195
				l0.087-0.043l0.423-0.402l0.065-0.152l0.021-0.163l0.142-0.151L115.428,15.594z M113.961,17.777l-0.065,0.174v0.174l0.043,0.12
				l0.043,0.174l0.043,0.293l0.022,0.108l0.043,0.087l0.021,0.468l0.022,0.087l0.043,0.141l0.043,0.218l-0.065,0.152l0.065,0.206
				v0.131l-0.043,0.13l-0.065,0.229l0.022,0.087l0.021,0.087l-0.021,0.185l0.021,0.108v0.152l0.022,0.108l-0.043,0.207l0.065,0.108
				l0.293-0.381l0.315-0.108l0.043-0.108l0.087-0.044l0.087-0.064l0.13-0.044l0.185-0.315l0.043-0.087l-0.043-0.119l-0.109-0.195
				l-0.043-0.109l-0.033-0.141l-0.152-0.326l-0.315-0.804l-0.087-0.065l-0.217-0.424l-0.043-0.152l-0.272-0.467L113.961,17.777z"/>
			<path d="M123.132,15.507l0.13,0.021l0.38,0.131l0.087,0.064l0.098,0.065l0.283,0.119l0.108,0.065l0.185,0.087l0.109,0.065
				l0.358,0.174l0.663,0.38l0.25,0.022l0.305-0.152l0.271-0.108l0.217,0.021h0.098l0.13,0.087l0.13,0.25l-0.021,0.239l-0.022,0.108
				l-0.239,0.337l-0.315,0.217l-0.108,0.055l-0.163,0.108l-0.152,0.087l-0.174,0.131l-0.185,0.064l-0.021,0.163l-0.087,0.087
				l-0.022,0.174l0.022,0.12l0.021,0.195l-0.065,0.229l-0.087,0.108l-0.142,0.065l-0.239,0.021l-0.152-0.021l-0.424-0.131
				l-0.098-0.119l-0.087-0.021l-0.13-0.109l-0.511-0.358l-0.315-0.239l-0.196-0.185l-0.206-0.152l-0.087-0.108l-0.087-0.021
				l-0.293-0.271l0.12,0.293l0.043,0.218v0.098v0.304l-0.022,0.163l-0.021,0.152v0.261v0.142l0.021,0.238l0.087,0.207l0.261,0.174
				l0.12,0.021l0.108,0.021l0.065,0.044h0.174l0.402,0.141l0.163,0.022l0.511,0.108h0.174l0.293,0.152l0.326,0.087l0.163,0.119
				l0.174,0.044l0.109,0.021l0.163,0.043l0.196,0.109l0.25,0.314l0.065,0.326l-0.043,0.142l0.065,0.152l-0.043,0.228l-0.022,0.282
				l0.022,0.087l0.021,0.402l-0.065,0.207v0.195v0.087l-0.065,0.424l0.022,0.108l-0.022,0.098v0.087v0.358l0.022,0.109v0.238
				l0.043,0.142l0.174,0.13l0.043,0.131v0.087l-0.109,0.229l-0.195,0.195h-0.12l-0.348,0.043l-0.271,0.12l-0.174,0.021H125
				l-0.293,0.108l-0.217,0.131l-0.25-0.065l-0.087,0.174l-0.174,0.098l-0.467,0.152l-0.109,0.087l-0.228,0.337l0.087,0.315v0.087
				l-0.065,0.261l-0.195,0.206l-0.271,0.087l-0.174-0.021l-0.142,0.021l-0.532-0.195l-0.174-0.142l-0.228-0.108l-0.065-0.065
				l-0.174-0.13l-0.065-0.044l-0.229-0.206l-0.087-0.087l-0.13-0.109l-0.13-0.098l-0.337-0.195l-0.25-0.087h-0.38l-0.326,0.239
				l-0.087,0.25l-0.054,0.174l0.033,0.25l0.043,0.087l0.087,0.087l0.174,0.087l0.108-0.022l0.207-0.064l0.087-0.065h0.207
				l0.195,0.065l0.13,0.13l0.087,0.098l0.055,0.087l0.021,0.283l-0.021,0.075l-0.055,0.152l-0.13,0.218l-0.195,0.206l-0.402,0.087
				h-0.163h-0.239l-0.13-0.065l-0.098-0.021l-0.087,0.021l-0.109-0.087l-0.174-0.119l-0.337-0.305l-0.065-0.087l-0.065-0.119
				l-0.141-0.348v-0.119l-0.065-0.37l-0.022-0.25v-0.151l0.087-0.294l0.076-0.239l0.065-0.141l0.043-0.087l0.174-0.358l0.087-0.065
				l0.141-0.065l0.282-0.217l0.315-0.207l0.174-0.13l0.087-0.065l0.12-0.185l0.087-0.174l0.021-0.131l-0.021-0.185l0.065-0.217
				l0.293-0.294l0.217-0.043l0.467,0.043l0.163,0.087l0.282,0.142l0.293,0.174l0.239,0.174l0.087,0.098l0.229,0.152l0.195-0.065
				l0.185,0.195l0.532,0.315l0.293,0.108l0.261,0.021l0.152-0.021l0.076-0.087l0.065-0.152l-0.337-0.401l-0.152-0.337l-0.021-0.108
				l-0.022-0.207l0.043-0.554l-0.043-0.337l-0.12-0.065l-0.282-0.108l-0.163-0.044l-0.152-0.087l-0.174-0.043l-0.185-0.044
				l-0.065-0.098l-0.489-0.087h-0.152l-0.25-0.108l-0.402-0.152l-0.13-0.076l-0.174-0.043l-0.424-0.239l-0.13-0.163l-0.25-0.304
				l-0.065-0.186l-0.043-0.467l-0.022-0.239v-0.293v-0.282l0.065-0.229l0.021-0.108l0.022-0.131l-0.022-0.185l0.043-0.174
				l-0.065-0.108l0.021-0.163l0.087-0.174l-0.087-0.152l-0.065-0.315l-0.272-0.206l-0.043-0.108l0.022-0.239l0.087-0.142
				l0.141-0.108l0.196-0.065h0.087l0.108,0.022l0.228-0.044l0.087-0.021l0.337-0.087l0.261,0.065l0.142-0.044l0.13-0.065
				l0.271-0.076h0.174l0.271-0.043l0.109-0.044l0.087-0.021l0.174-0.065l0.065-0.087l0.055-0.151l-0.055-0.229l0.033-0.108
				l0.043-0.131l0.239-0.25l0.185-0.087L123.132,15.507z"/>
			<path d="M131.39,10.672h0.489l0.065,0.119l0.087-0.055l0.087,0.099l0.076,0.108l0.13,0.195l0.022,0.185v0.261l-0.043,0.207
				l-0.087,0.064l-0.098,0.131l-0.087,0.021l-0.195,0.271l-0.043,0.087l-0.022,0.271l0.065,0.37l0.152,0.337l0.087,0.174l0.12,0.185
				l0.174,0.174l0.065,0.163l0.13,0.087l0.185,0.195l0.087,0.065l0.152,0.206v0.087l-0.065,0.174l0.228,0.25l0.087,0.108
				l0.196,0.186l0.108,0.064l0.207,0.044l0.087,0.13l0.13,0.174l0.185,0.163l0.13,0.152l0.087,0.174l0.087,0.119l0.25,0.174
				l0.087,0.109l0.087,0.043l0.065,0.098l0.185,0.131l0.174,0.13l0.163,0.25l0.022,0.131l0.021,0.174l-0.141,0.185l-0.022,0.13
				l-0.043,0.065l-0.13,1v0.25v0.511l0.022,0.13v0.087l0.043,0.271v-0.108l-0.065,0.305v0.206l-0.087,0.043l0.109,0.065v0.315
				l0.087,0.108v0.108l-0.022,0.315l-0.108,0.195v0.098l0.043,0.152l0.065,0.108v0.533l-0.021,0.141v0.131v0.195l0.043,0.185
				l0.021,0.424l-0.043,0.239l0.065,0.358l0.25,0.358l0.087,0.282l-0.152,0.25l-0.065,0.044l-0.293,0.065l-0.207,0.021l-0.261,0.043
				l-0.228,0.044h-0.196l-0.25,0.098l-0.174,0.021l-0.087,0.022l-0.065,0.064h-0.087l-0.424,0.152l-0.12,0.065l-0.174,0.087
				l-0.293,0.141l-0.108,0.109l-0.283-0.022l-0.141,0.152l0.337,0.608l0.021,0.196l-0.043,0.174l-0.228,0.249l-0.152,0.022
				l-0.108,0.021h-0.109l-0.098-0.021l-0.152-0.022l-0.217-0.087l-0.163-0.064l-0.196-0.098l-0.087-0.022l-0.293-0.174l-0.13-0.13
				l-0.423-0.294l-0.087-0.043l-0.098-0.087l-0.108-0.021l-0.152-0.12l-0.25-0.108l-0.174-0.087l-0.25-0.087l-0.152-0.021
				l-0.239-0.044l-0.163-0.043l-0.174-0.12l-0.087-0.087l-0.098-0.195v-0.119l0.12-0.239l0.065-0.174l0.217-0.294l0.065-0.249
				v-0.794l0.054-0.185l-0.054-0.348l0.076-0.293l-0.054-0.358l-0.065-0.218V22.33l0.022-0.152l0.021-0.13l0.098-0.294l0.022-0.261
				l-0.022-0.587l-0.043-0.619l0.022-0.174l-0.022-0.532l-0.032-0.098l-0.043-0.108v-0.109l0.098-0.064v-0.087l-0.054-0.12
				l0.032-0.13l0.022-0.087l-0.054-0.25l-0.109-0.131l-0.152-0.043l-0.174-0.25v-0.239l0.13-0.163l0.108-0.065l0.087,0.022
				l0.087-0.044h0.25l0.174-0.021l0.141-0.021l0.174-0.065l0.109,0.021l0.12-0.021l0.13-0.044l0.217-0.108l0.163-0.043l0.348-0.207
				l0.228-0.151l0.195-0.109l0.12-0.043l0.217-0.055l0.174,0.098l0.142,0.174l-0.022,0.152l-0.043,0.185l-0.163,0.326l-0.021,0.142
				l-0.022,0.195l0.022,0.804l0.021,0.196l0.109,0.249l-0.065,0.174l0.022,0.229l0.021,0.239l0.022,0.402v0.108v0.119l-0.065,0.326
				l-0.087,0.206l0.022,0.109l0.043,0.337l0.021,0.217v0.532l0.022,0.185l0.021,0.131l-0.021,0.511l-0.022,0.228l-0.174,0.348
				l-0.065,0.12l-0.087,0.108l-0.163,0.131l-0.152,0.185v0.108h0.152l0.141,0.021l0.239,0.196l0.174,0.087l0.163,0.119h0.195
				l0.141,0.043l0.707,0.152l0.152,0.044l0.142-0.044l0.13-0.13l0.043-0.087v-0.163l-0.043-0.087l-0.359-0.261l-0.065-0.229
				l-0.022-0.108l-0.021-0.131v-0.163l-0.065-1.38v-0.336v-0.109v-0.238l0.022-0.402l0.087-0.044l0.021-0.108l-0.065-0.119
				l-0.043-0.402v-0.174l0.043-0.489v-0.13l0.108-0.294l0.022-0.13l-0.065-0.206l0.065-0.196v-0.152l0.087-0.358l0.076-0.108
				l0.108-0.076l-0.021-0.152l-0.337-0.108l-0.359-0.163l-0.065-0.13l-0.109-0.087l-0.315-0.271l-0.13-0.239l-0.25-0.294
				l-0.087-0.13l-0.13-0.218l-0.043-0.098l-0.228-0.304v-0.163l-0.239-0.087l0.043-0.261l-0.25-0.021l-0.109-0.142l-0.195-0.261
				l-0.087-0.207l-0.076-0.108l-0.217-0.152l-0.065-0.098l-0.141-0.064l-0.174-0.065l-0.261-0.021l-0.25,0.13l-0.152,0.076
				l-0.141,0.065l-0.195,0.021l-0.359-0.229l-0.021-0.151l0.065-0.489l0.043-0.108l0.12-0.022l0.087-0.119l0.358-0.152l0.043-0.087
				l0.402-0.108h0.087l0.195-0.076l0.229,0.021l0.13-0.043l0.293,0.021l0.282,0.098l0.13,0.087l0.228,0.087l0.087,0.131l0.272-0.022
				l-0.38-0.891v-0.087l-0.043-0.13l-0.043-0.511l0.108-0.381l0.065-0.108l0.087-0.271l0.141-0.065l0.152-0.152l0.152-0.043
				L131.39,10.672z"/>
			<path d="M140.668,15.615h0.13l0.293,0.065l0.337,0.152l0.402,0.249l0.282,0.25l0.163,0.065l0.13,0.174l0.152,0.021l0.065,0.131
				l0.163,0.119l0.402,0.131l0.109,0.087l0.152,0.043l0.087-0.021h0.141l0.217,0.044l0.207,0.043h0.174l0.13,0.098l0.087,0.152
				v0.174l-0.065,0.206l-0.174,0.196l-0.109,0.337l-0.021,0.108l-0.022,0.152v0.717l-0.054,0.358l0.033,0.152l-0.033,0.195
				l0.054,0.358l-0.021,0.511l0.021,0.142v0.554l-0.076,0.174l0.021,0.445v0.207l0.033,0.108l0.108,0.108l0.022,0.087v0.294
				l-0.022,0.261l0.043,0.141l0.043,0.109v0.271l0.022,0.152l0.021,0.424l0.065,0.108l0.13,0.043h0.098l0.109,0.022h0.108h0.152
				l0.228,0.185v0.304l-0.021,0.087l-0.087,0.163l-0.119,0.195l-0.174,0.229l-0.087-0.021l-0.065,0.108l-0.087,0.108l-0.098,0.109
				l-0.13,0.098l-0.022,0.087l-0.087,0.064l-0.152,0.109l-0.098,0.13l-0.022,0.185l0.022,0.087l0.065,0.087l0.12,0.25v-0.087
				l-0.065,0.413l-0.163,0.185l-0.131,0.044l-0.293,0.021l-0.304-0.087l-0.293-0.087l-0.152-0.076l-0.271-0.13v-0.087l-0.532-0.359
				l-0.109-0.151l-0.141-0.109l-0.217-0.206l-0.229-0.152l-0.108-0.152l-0.13-0.098l-0.196-0.064l-0.163,0.021l-0.261,0.163
				l-0.055,0.13l-0.043,0.468l0.25,0.261l0.065,0.25l-0.087,0.249l-0.359,0.131l-0.261,0.043l-0.228-0.021l-0.402-0.152
				l-0.304-0.119l-0.055-0.087l-0.152-0.174l-0.13-0.142l-0.229-0.151l-0.108-0.109l-0.13-0.043l-0.065-0.108l-0.293-0.186
				l-0.109-0.043h-0.358l-0.087-0.044h-0.13l-0.163-0.13l-0.043-0.076l-0.065-0.152l0.065-0.261l0.13-0.163l0.098-0.064l0.174-0.174
				l0.13-0.207l0.065-0.174v-0.087v-0.141l0.076-0.218V24.21l-0.054-0.12l-0.021-0.282l0.043-0.119l0.054-0.109v-0.174l-0.054-0.108
				l-0.022-0.271l0.022-0.065l0.032-0.108l0.022-0.163l-0.022-0.685l-0.185-0.293v-0.195l0.109-0.142l0.163-0.131l0.087-0.043
				l0.315-0.044l0.348-0.043l0.098,0.021l0.304-0.043l0.087-0.044l0.12-0.021l0.152-0.021h0.271h0.108l0.087-0.022l0.359-0.163
				l0.108-0.087h0.272l0.217-0.151l0.228-0.163l0.174-0.218l0.065-0.337l0.065-0.174v-0.108v-0.098l0.141-0.282l-0.033-0.294
				l-0.043-0.195l-0.108-0.206l-0.358-0.381l-0.152-0.065l-0.13-0.064h-0.207l-0.304-0.174l-0.228-0.065h-0.174l-0.38,0.065
				l-0.38,0.304l-0.087,0.163v0.218v0.228l0.065,0.152l0.108,0.044l0.272-0.088h0.087l0.087,0.044l0.206,0.021l0.283,0.229
				l0.021,0.087l0.022,0.087l0.021,0.217l-0.021,0.359l-0.109,0.206l-0.195,0.195l-0.315,0.152l-0.239,0.044h-0.271l-0.196-0.044
				l-0.207-0.087l-0.217-0.065l-0.293-0.293l-0.13-0.152v-0.13l-0.022-0.087l-0.098-0.044l-0.022-0.25l-0.065-0.25l0.021-0.326
				l0.022-0.108v-0.163l0.098-0.261l0.021-0.185l0.37-0.532l0.054-0.131l0.174-0.141l0.424-0.239l0.152-0.087l0.38-0.108
				l0.217-0.142l0.38-0.13l0.207-0.229l0.022-0.065l0.043-0.152l0.043-0.195l0.271-0.206L140.668,15.615z M141.451,21.33
				l-0.25,0.163l-0.174,0.109l-0.196,0.043h-0.141l-0.195,0.087l-0.142,0.131l-0.108-0.022h-0.13l-0.13,0.12l0.021,0.151
				l0.022,0.152l0.043,0.207l0.065,0.641l0.022,0.108l-0.065,0.163l0.022,0.261l-0.043,0.652v0.239l-0.207,0.206l0.185,0.021
				l0.13,0.021h0.272l0.13,0.022l0.13-0.022l0.423,0.022l0.229,0.043l0.261,0.065l-0.065-0.152l-0.065-0.087l-0.109-1.717
				l-0.065-0.358l0.087-0.217L141.451,21.33z"/>
			<path d="M147.372,15.811l0.108-0.021l0.293,0.098l0.13,0.021l0.315,0.109l0.13,0.151l0.25,0.163l0.043,0.109l0.283,0.261
				l0.207,0.141l0.174,0.196l0.315,0.174l0.13,0.054l0.109,0.021l0.185,0.196l-0.022,0.271l-0.141,0.239l-0.13,0.13l-0.13,0.12
				l-0.043,0.064l-0.043,0.152v0.131v0.206l0.022,0.282l0.043,0.424l0.021,1.119v0.087l-0.087,0.271l0.022,0.239l0.108,0.207v0.13
				l-0.065,0.152l0.021,0.087l0.043,0.445v0.119l-0.043,0.326l0.022,0.142l-0.022,0.174l0.022,0.511l-0.065,0.424l-0.043,0.195
				l-0.185,0.424l0.293,0.043l0.217,0.022l0.293,0.098l0.315,0.043l0.239,0.065h0.13l0.12,0.021l0.283-0.021v-0.206l-0.043-0.261
				l-0.152-0.359l-0.043-0.424v-0.174v-0.293l0.043-0.424l-0.021-0.217v-0.207l0.152-0.152l0.043-0.108l-0.065-0.185l-0.087-0.489
				v-0.282l0.087-0.021l-0.065-0.294l0.022-0.314l-0.087-0.108v-0.337l0.108-0.218v-0.065l-0.043-0.358l0.022-0.13l-0.043-0.065
				l-0.152-0.119l-0.163-0.109l-0.13-0.065l-0.195-0.195l-0.055-0.119l0.033-0.424l0.13-0.108l0.13-0.131l0.109-0.185l0.098-0.065
				l0.37-0.348l0.098-0.119l0.043-0.131v-0.174l-0.022-0.206l-0.076-0.218l-0.022-0.141l0.098-0.174l0.239-0.174l0.152-0.044
				l0.142,0.044l0.195,0.043l0.109,0.044l0.12,0.13v0.065l0.087,0.021l0.282,0.185l0.293,0.239l0.13,0.108l0.12,0.12l0.239,0.13
				l0.315,0.174l0.13,0.044l0.108,0.054l0.293,0.131l0.043,0.087l0.065,0.174l-0.022,0.229l-0.174,0.174l-0.25,0.206l-0.043,0.087
				l-0.065,0.174l-0.043,0.532l0.065,0.12v0.195l-0.043,0.13l-0.021,0.229l-0.087,0.315l0.043,0.413l-0.13,0.206l-0.12,0.13
				l0.12,0.044l0.043,0.185v0.326l0.043,0.142l0.021,0.087v0.13l-0.021,0.206v0.131l-0.043,0.358l0.021,0.131l0.022,0.238
				l-0.022,0.163v0.642l0.022,0.087v0.38l-0.12,0.108l-0.065,0.207l0.25,0.087l0.087,0.314l0.043,0.087l0.25,0.239l0.087,0.098
				l0.152,0.261l0.13,0.272l0.054,0.151l0.043,0.109l-0.065,0.738l0.043,0.087l-0.021,0.185l-0.12,0.413l-0.152,0.294l-0.022,0.174
				l-0.152,0.249l-0.043,0.087l-0.25,0.25l-0.174,0.109l-0.12,0.108l-0.087,0.021l-0.402,0.315l-0.218,0.021l-0.423,0.25
				l-0.25,0.108l-0.391,0.195l-0.163,0.044l-0.174,0.043l-0.185,0.076l-0.261,0.131l-0.185,0.065l-0.435,0.195l-0.207,0.119
				l-0.13,0.087l-0.228,0.196l-0.065,0.108l-0.043,0.163l0.043,0.261v0.141l-0.13,0.261l-0.293,0.207h-0.283l-0.098-0.044
				l-0.326-0.076l-0.445-0.195l-0.207-0.108l-0.087-0.065l-0.13-0.076l-0.108-0.087l-0.272-0.152l-0.13-0.174l-0.228-0.119
				l-0.217-0.217l-0.337-0.229l-0.108-0.087l-0.13-0.065l-0.207-0.065l-0.196-0.064l-0.206-0.163l-0.196-0.044l-0.087-0.043
				l-0.207-0.044l-0.467-0.13l-0.108-0.022l-0.228,0.022l-0.196,0.064l-0.152,0.109l-0.119,0.206v0.195l0.163,0.174l0.305-0.064
				h0.098l0.13-0.044l0.152,0.021h0.087l0.142,0.065l0.174,0.337v0.293l-0.043,0.218l-0.087,0.087l-0.065,0.119l-0.207,0.152
				l-0.065,0.087l-0.109,0.021l-0.087,0.044l-0.25,0.043l-0.174-0.021l-0.185-0.065l-0.261-0.108l-0.532-0.38l-0.098-0.218
				l-0.065-0.185l-0.065-0.152l-0.021-0.217l-0.022-0.163v-0.108l-0.021-0.131l0.087-0.489l0.108-0.185l0.163-0.337l0.087-0.064
				l0.13-0.131l0.163-0.087l0.239-0.152l0.108-0.076l0.337-0.108l0.152-0.021l0.098-0.021h0.304l0.12-0.022l0.108,0.044h0.13
				l0.337,0.021l0.109,0.065l0.25,0.043l0.065-0.087l0.043-0.304l0.152-0.294l0.043-0.087l0.38-0.228l0.554,0.021l0.608,0.315
				l-0.098,0.021l0.228,0.131l0.087,0.064l0.152,0.076l0.098,0.152l0.13,0.021l0.239,0.218l0.402,0.38l0.185,0.087l0.152,0.076
				l0.195,0.108l0.25,0.065l0.239,0.044h0.206h0.261l0.229-0.131l0.174-0.044l0.185-0.141l0.217-0.108l0.13-0.152l0.207-0.271
				l0.293-0.402l0.043-0.392l0.021-0.098l-0.043-0.325l-0.054-0.207l-0.065-0.065l-0.087-0.195l-0.087-0.076l-0.108-0.021
				l-0.12-0.108l0.033-0.087l-0.098-0.022l-0.174-0.087l-0.359-0.119l-0.152-0.021l-0.13,0.054l-0.315-0.032l-0.228,0.25
				l-0.174,0.152l-0.13,0.424l0.13,0.25l-0.043,0.238l-0.25,0.271l-0.13,0.044l-0.152-0.044l-0.185-0.043h-0.087l-0.304-0.185
				l-0.358-0.195l-0.228-0.174l-0.261-0.25l-0.142-0.065l-0.152-0.131l-0.261-0.162l-0.12-0.065l-0.152-0.044l-0.229-0.087h-0.108
				l-0.217-0.152l-0.022-0.401l0.043-0.12l0.13-0.174l0.315-0.217l0.108-0.271l0.065-1.021l-0.065-0.294l0.043-0.532l-0.021-0.271
				l0.021-0.413l-0.043-0.141l-0.043-0.131v-0.065l0.022-0.087l0.087-0.185v-0.13V21.45l-0.022-0.142l-0.108-0.217l0.021-0.131
				v-0.229l0.087-0.174l0.022-0.162l0.021-0.109l-0.021-0.217v-0.315l-0.087-0.229v-0.151l-0.087-0.218l-0.359-0.337l-0.195-0.087
				l-0.142-0.043l-0.087-0.207v-0.358l0.174-0.217l0.315-0.272l0.271-0.261l0.087-0.087l0.13-0.119l0.087-0.043l0.022-0.087
				l0.054-0.174l-0.12-0.229l-0.043-0.239l0.022-0.142l0.043-0.13L147.372,15.811z"/>
			<path d="M172.895,11.123h0.146l0.183,0.098l0.195,0.232l0.024,0.427l-0.024,0.195l-0.195,0.476l-0.159,0.172l-0.122,0.134
				l-0.122,0.098l-0.098,0.146l-0.183,0.122l-0.452,0.281l-0.195,0.121l-0.098,0.123l-0.024,0.134l0.024,0.171l0.049,0.293v0.158
				l-0.232,0.293l-0.598,0.208h-0.146h-0.098l-0.403-0.024l-0.122,0.024l-0.073,0.049l-0.256-0.049l-0.146-0.024h-0.232
				l-0.464-0.049l-0.232-0.037l-0.098-0.023h-0.146l-0.183-0.074h-0.146l-0.195,0.025l-0.256-0.049l-0.354-0.049l-0.122,0.049
				h-0.122l-0.146-0.098l-0.159,0.072l-0.244-0.049l-0.33-0.049l-0.098,0.025l-0.098,0.072l-0.024,0.098l-0.024,0.574l-0.073,0.281
				l0.073,0.146l-0.024,0.207v0.171l-0.122,0.452l0.024,0.72l0.415-0.024l0.159-0.073l0.525-0.049l0.525-0.073l0.476,0.024
				l0.366,0.024l0.232,0.073l0.22,0.049h0.256l0.244,0.098l0.427,0.134l0.22,0.025l0.183,0.098l0.244,0.121l0.159,0.123l0.293,0.109
				l0.195,0.195l0.134,0.098l0.024,0.098l0.269,0.207l0.098,0.146l0.085,0.098l0.073,0.123l0.244,0.207l0.183,0.22v0.122
				l0.073,0.207l0.171,0.123l0.049,0.121l0.049,0.135l0.098,0.195l0.037,0.146l0.073,0.122l0.049,0.28l0.049,0.221l0.073,0.183
				l0.22,0.195l0.085,0.231l0.073,0.098v0.342l-0.073,0.33l-0.281,0.598l-0.146,0.208l-0.073,0.146l-0.11,0.171l-0.22,0.354
				l-0.098,0.172l-0.232,0.256l-0.049,0.146l-0.269,0.244l-0.024,0.184l-0.305,0.146l-0.122,0.231l-0.122,0.146l-0.208,0.024
				l-0.122,0.098l-0.33,0.402l-0.122,0.146l-0.22,0.098l-0.134,0.025l-0.073,0.049l-0.598,0.451l-0.5,0.281l-0.073,0.049
				l-0.244,0.195l-0.208,0.109l-0.195,0.049l-0.281,0.146l-0.098,0.22l-0.769,0.306l-0.134,0.072l-0.146,0.025l-0.122,0.098
				l-0.305,0.072h-0.098l-0.403,0.11h-0.098l-0.244,0.049l-0.134,0.024l-0.195-0.073l-0.171-0.208l-0.073-0.365l0.098-0.11
				l0.024-0.098l0.098-0.073l0.305-0.22l0.098-0.062l0.073-0.072l0.098-0.074l0.073-0.049l0.073-0.098l0.134-0.023l0.122-0.049
				l0.098-0.074l0.195-0.231l0.085-0.146l0.366-0.024l0.159-0.146l0.049-0.281l0.122-0.023l0.244-0.281l0.049-0.171l0.085-0.098
				l0.122-0.195h0.146l0.256-0.329l0.024-0.098l0.098-0.257l0.22-0.049l0.256-0.122l0.024-0.195l-0.049-0.158v-0.123l0.073-0.219
				l0.171-0.208l0.073-0.22l0.11-0.184l0.122-0.365l0.146-0.11l0.024-0.098v-0.098l0.098-0.195l-0.122-0.159v-0.098l0.073-0.121
				l0.122-0.195l-0.049-0.306l-0.22-0.195l-0.024-0.183l-0.098-0.244l-0.024-0.306l-0.11-0.366l-0.146-0.256l-0.049-0.098
				l-0.403-0.428l-0.22-0.22l-0.073-0.134l-0.159-0.025l-0.098-0.072l-0.244-0.123l-0.378-0.098l-0.22-0.049l-0.208-0.023
				l-0.171-0.025l-0.195,0.025h-0.208l-0.244-0.025l-0.134,0.025l-0.293,0.049l-0.281-0.025l-0.22,0.049l-0.171-0.049l-0.183-0.134
				l-0.122-0.22V18.13l0.024-0.134l0.073-0.94l0.049-0.257v-0.244l0.024-0.354l0.024-0.33l0.024-0.219l0.11-0.306l0.049-0.22
				l-0.024-0.098l-0.024-0.135l-0.024-0.316l0.024-0.074l0.024-0.098l0.024-0.231l-0.049-0.098v-0.146l0.024-0.306l0.073-0.354
				v-0.146v-0.122v-0.146l0.049-0.257l-0.024-0.121l0.073-0.403l0.049-0.329l0.049-0.123l0.146-0.146l0.085-0.072l0.171-0.074
				l0.22-0.049l0.427,0.244l0.122,0.281l0.208,0.22h0.098l0.098,0.024h0.073l0.378,0.024h0.256l0.647,0.049l0.244-0.024h0.098
				l0.208-0.024l0.72,0.024l0.33-0.049l0.745,0.049l0.159-0.049l0.195-0.049l0.244-0.024l0.586,0.024l0.22-0.049l0.305-0.305
				l0.049-0.123l0.098-0.121l0.049-0.074l0.22-0.183L172.895,11.123z"/>
		</g>
	</g>
</g>
</svg>
