<?xml version="1.0" encoding="utf-8"?>
<!-- Generator: Adobe Illustrator 16.0.0, SVG Export Plug-In . SVG Version: 6.00 Build 0)  -->
<!DOCTYPE svg PUBLIC "-//W3C//DTD SVG 1.1//EN" "http://www.w3.org/Graphics/SVG/1.1/DTD/svg11.dtd">
<svg version="1.1" id="Layer_2" xmlns="http://www.w3.org/2000/svg" xmlns:xlink="http://www.w3.org/1999/xlink" x="0px" y="0px"
	 width="238.123px" height="48.244px" viewBox="0 0 238.123 48.244" enable-background="new 0 0 238.123 48.244"
	 xml:space="preserve">
<g>
	<g>
		<g>
			<polygon fill="#D9DADB" points="166.651,46.254 166.651,39.42 72.506,39.42 72.506,46.254 5.159,46.254 20.014,27.539 
				5.159,8.824 34.416,8.824 34.416,1.991 204.565,1.991 204.565,8.824 233.5,8.824 221.615,27.539 233.5,46.254 			"/>
			<path d="M202.574,3.983v6.833h27.302l-10.62,16.723l10.62,16.723h-61.233V37.43H70.515v6.832H9.281l13.275-16.723L9.281,10.816
				h27.125V3.983H202.574 M206.556,0h-3.981H36.407h-3.982v3.983v2.85H9.281H1.036l5.126,6.46l11.311,14.246L6.162,41.785
				l-5.126,6.459h8.246h61.234h3.982v-3.982v-2.85h90.162v2.85v3.982h3.983h61.233h7.247l-3.885-6.117l-9.265-14.588l9.265-14.588
				l3.885-6.118h-7.247h-23.32v-2.85V0L206.556,0z"/>
		</g>
		<polygon fill="#B0B4B7" points="70.515,44.262 70.515,10.816 9.281,10.816 22.557,27.539 9.281,44.262 		"/>
		<polygon fill="#B0B4B7" points="229.876,10.816 168.643,10.816 168.643,44.262 229.876,44.262 219.256,27.539 		"/>
		<polygon points="32.379,9.311 32.379,39.879 61.13,46.386 72.001,45.565 39.198,9.311 		"/>
		<polygon points="206.567,9.179 206.567,39.746 177.815,46.254 166.944,45.434 199.749,9.179 		"/>
		<polygon fill="#8B8B8B" points="202.574,3.983 202.574,37.43 168.643,44.262 168.509,10.816 		"/>
		<polygon fill="#8B8B8B" points="36.407,3.983 36.407,37.43 70.471,44.262 70.473,10.816 		"/>
		<rect x="36.407" y="3.983" fill="#FFFFFF" width="166.167" height="33.446"/>
	</g>
	<g>
		<g>
			<polygon points="185.418,15.958 186.755,18.667 189.743,19.102 187.581,21.209 188.091,24.187 185.418,22.78 182.744,24.187 
				183.255,21.209 181.093,19.102 184.081,18.667 			"/>
			<polygon points="52.77,15.958 54.105,18.667 57.095,19.102 54.931,21.209 55.442,24.187 52.77,22.78 50.095,24.187 
				50.605,21.209 48.443,19.102 51.432,18.667 			"/>
		</g>
		<g>
			<path d="M70.773,13.235l0.228-0.043l0.152,0.065l0.196-0.022l0.119,0.065l0.13,0.044l0.337,0.108l0.13,0.043h0.109l0.228,0.055
				l0.152-0.032l0.13-0.022l0.13,0.055l0.185,0.021l0.152,0.022l0.359-0.022l0.337,0.065L74,13.616l0.174-0.021l0.185,0.064
				l0.152-0.021l0.087-0.021l0.424-0.021l0.315,0.021l0.293,0.043h0.435l0.098,0.022l0.13-0.044h0.239h0.38h0.25l0.152,0.044
				l0.109,0.064l0.076-0.087l0.174-0.021l0.174-0.021l0.207,0.043h0.13h0.065h0.185h0.663l0.087,0.174l0.337-0.174h0.13l0.087-0.163
				l0.142-0.064l0.195,0.141h0.337l0.337-0.054l0.108-0.044l0.489-0.021l0.195-0.044h0.163l0.261-0.043l0.228-0.108l0.13-0.022
				l0.087-0.043l0.163,0.065h0.109l0.174,0.064l0.108,0.087l0.022,0.25l-0.022,0.087l-0.043,0.087l-0.065,0.131l-0.022,0.119
				l-0.065,0.174l-0.043,0.131l-0.043,0.337l0.065,0.641l0.043,0.25l-0.021,0.195l0.021,0.185l-0.021,0.131l0.021,0.108l0.022,0.098
				l0.021,0.533l0.022,0.195v0.695l0.087,0.195l-0.022,0.717l-0.087,0.065l-0.065,0.174v0.152l0.043,0.229l0.108,0.151v0.229v0.152
				l-0.087,0.021l-0.021,0.131l-0.065,0.293v0.315l-0.065,0.238l-0.043,0.142l-0.163,0.305l-0.109,0.13l-0.087,0.142l-0.532,0.554
				l-0.087,0.087l-0.207,0.131l-0.152,0.054l-0.25,0.044H80.9l-0.315-0.098H80.52l-0.174-0.044l-0.065-0.108l-0.25-0.576v-0.087
				l0.065-0.314l0.185-0.152l0.087-0.098l0.304-0.087h0.163l0.152,0.043l0.152-0.021l0.12-0.131l0.108-0.249l0.087-0.152
				l0.043-0.108l-0.021-0.152l0.043-0.142l0.065-0.152l-0.043-0.337l0.065-0.13l-0.065-0.271l-0.043-0.283l-0.239-0.064
				l-0.207-0.402l-0.022-0.206v-0.196l-0.043-0.228v-0.283l-0.152-0.651l-0.163-0.369l-0.043-0.142l-0.152-0.261l-0.087-0.119
				v-0.109l-0.13-0.043L80.14,15.55l-0.13-0.25l-0.043-0.087l-0.131-0.087l-0.119-0.064l-0.065-0.065l-0.152-0.021l-0.13-0.12
				l-0.293-0.021l-0.109,0.021l-0.087,0.021l-0.206,0.207l-0.109,0.13l-0.087,0.315l-0.022,0.195l-0.021,1.043l-0.022,0.099
				l-0.054,0.554v0.239v0.119l0.054,0.468l-0.119,0.151l-0.065,0.109v0.401l0.065,0.152l0.119,0.185v0.195v0.207l-0.054,0.304
				l0.207,0.402v0.131l-0.087,0.206l-0.043,0.271l0.021,0.326l-0.021,0.424l-0.054,0.13v0.163l0.098,0.131l-0.043,0.108
				l-0.054,0.206l0.054,0.065l0.108,0.131l-0.021,0.13l-0.043,0.142l0.021,0.282l0.043,0.185l0.022,0.152l-0.065,0.108l-0.021,0.12
				l0.043,0.087l0.087-0.087l0.217,0.064l-0.043,0.109l0.065,0.337l-0.087,0.174l-0.087,0.195l0.043,0.163l0.271,0.304v0.098
				l-0.022,0.131l0.174,0.174l0.043,0.163l0.272,0.467l0.445,0.381l0.467,0.108l0.174,0.065h0.13l0.185-0.109l0.065-0.119v-0.392
				l0.108-0.249l0.109-0.109l0.163-0.206l0.195-0.044l0.087-0.021l0.098-0.021l0.152,0.021l0.13,0.021l0.13,0.044l0.141,0.065
				l0.196,0.271l0.065,0.228l0.043,0.261v0.109l-0.087,0.163l-0.021,0.13l-0.043,0.087l-0.065,0.065l-0.087,0.163l-0.065,0.108
				l-0.142,0.131l-0.217,0.185h-0.087l-0.206-0.055l-0.174,0.337l-0.207,0.163H81.03l-0.195,0.087l-0.229-0.206l-0.108,0.043
				l-0.467,0.142l-0.467-0.022l-0.358-0.043h-0.304l-0.228-0.032l-0.174-0.044l-0.38-0.065l-0.446-0.021l-0.13-0.108h-0.206
				l-0.109,0.021l-0.065-0.087l-0.108-0.021l-0.293-0.022l-0.13-0.064l-0.467-0.076h-0.228l-0.424,0.054l-0.554-0.032l-0.13,0.055
				l-0.185,0.043l-0.13-0.021l-0.174-0.076l-0.207,0.163l-0.424,0.131l-0.13,0.064l-0.174,0.142l-0.141,0.043l-0.087,0.196
				l-0.065,0.064l-0.108,0.109l-0.293,0.185l-0.326-0.021h-0.12l-0.261-0.294l-0.087-0.043l-0.033-0.174l-0.043-0.163v-0.174
				l0.076-0.229l0.043-0.087l0.174-0.239l0.38-0.38l0.087-0.087l0.271-0.206l0.087-0.022l0.087,0.087l0.174-0.108l0.021-0.152
				l0.337-0.185l0.109-0.043l0.185-0.109L74,25.851l0.196-0.065l0.141-0.13l0.043-0.163h0.108l0.13-0.218l0.043-0.13l0.098-0.294
				v-0.087v-0.119l0.065-0.195l-0.065-0.174l0.043-0.186v-0.325l-0.109-0.186l0.043-0.195l0.109-0.185v-0.13v-0.087l0.087-0.186
				v-0.151l-0.043-0.131l-0.022-0.13v-0.142L75,21.841l-0.021-0.261l-0.065-0.108l-0.021-0.142v-0.217l0.174-0.358v-0.196
				l-0.13-0.043l-0.174-0.098l0.065-0.195l0.152-0.109L75,19.994l0.022-0.087v-0.065l-0.087-0.108l0.021-0.152l-0.021-0.315
				L75,19.157l0.065-0.185l-0.022-0.131l0.022-0.13l-0.022-0.119l-0.021-0.131l0.043-0.152l-0.022-0.314l-0.021-0.109l-0.109-0.271
				l-0.021-0.152L75,17.061l-0.021-0.619l-0.022-0.207l-0.021-0.152l-0.043-0.51l-0.022-0.229l-0.021-0.152l-0.38-0.217l-0.13,0.064
				l-0.511,0.239l-0.38,0.358l-0.13,0.25l-0.141,0.152l-0.022,0.087l-0.195,0.271l-0.043,0.087l-0.12-0.206l-0.13,0.076l0.065,0.195
				l-0.043,0.25l-0.065,0.108l-0.087,0.108l0.022,0.152l0.043,0.206l-0.087,0.174l-0.185,0.402l-0.108,0.358l-0.022,0.152
				l-0.021,0.131l-0.043,0.185l-0.043,0.13l0.021,0.207l-0.021,0.151v0.109l-0.022,0.108v0.098l-0.021,0.108v0.131l-0.022,0.641
				l0.087,0.229l0.043,0.13l0.043,0.142l0.207,0.152l0.152,0.021h0.315l0.195,0.065l0.25,0.293l0.043,0.261v0.142l-0.076,0.304
				l-0.065,0.131l-0.065,0.055l-0.152,0.151l-0.358,0.174h-0.087l-0.207,0.044l-0.348-0.021l-0.25-0.065l-0.087-0.065l-0.087-0.065
				l-0.337-0.358l-0.13-0.152l-0.043-0.228l-0.065-0.108l-0.032-0.174l-0.109-0.044v-0.185l-0.087-0.131l-0.065-0.228l-0.022-0.087
				l-0.021-0.152l-0.022-0.152l-0.021-0.935v-0.119l0.021-0.218l-0.185-0.087l-0.065-0.141l-0.087-0.239l0.043-0.152l0.065-0.271
				l0.087-0.13l0.076-0.207v-0.13l0.043-0.174l0.152-0.381l0.043-0.511l0.043-0.163l-0.065-0.195l0.065-0.13v-0.12l0.065-0.369
				l-0.022-0.206l0.022-0.174v-0.381l-0.109-0.554l-0.065-0.185l-0.065-0.065L70.6,14.192l-0.098-0.207l-0.022-0.108l-0.021-0.195
				l0.021-0.109l0.163-0.228L70.773,13.235z"/>
			<path d="M87.974,11.606l0.402,0.021l0.152-0.021l0.12,0.043l0.109,0.021l0.174,0.033l0.098,0.064l0.087,0.022l0.087,0.108
				l0.13,0.021l0.13,0.108l0.12,0.087l0.282,0.337l0.098,0.163l0.021,0.131l0.022,0.087l0.043,0.38l-0.043,0.087v0.108l-0.022,0.186
				l-0.076,0.087l-0.087,0.151l-0.174,0.109l-0.13,0.098l-0.543,0.021l-0.217-0.315l-0.065-0.25l0.087-0.325v-0.207l-0.065-0.087
				l-0.109-0.108l-0.163-0.021l-0.108-0.021l-0.13,0.064l-0.141,0.044l-0.174,0.195l-0.13,0.25l-0.185,0.489l-0.021,0.13v0.12
				l-0.043,0.261v0.151l-0.043,0.207l0.065,0.13l-0.021,0.207l-0.065,0.195l0.022,0.271l-0.022,0.326l-0.021,0.185l0.087,0.706
				l0.108,0.25l0.315,0.021l0.271-0.293l0.043-0.108l-0.043-0.359l0.021-0.108l0.043-0.13l0.13-0.207l0.13-0.064l0.402-0.044
				l0.141,0.021l0.13,0.087l0.13,0.022l0.25,0.162l0.326,0.261l0.12,0.065l0.043,0.098l0.239,0.109l0.25,0.174l0.402,0.087
				l0.152,0.119h0.065l0.293,0.174l0.087,0.044l0.217,0.043l0.098,0.087l0.217,0.098l0.109,0.131v0.304l-0.043,0.098l-0.196,0.218
				l0.087-0.108l-0.174,0.13l-0.065,0.087l-0.076,0.185l-0.087,0.468l-0.022,0.445v0.152v0.314l0.022,0.239l-0.043,0.532
				l-0.043,0.25l0.021,0.195V21.2l0.065,0.108v0.163l-0.065,0.087l-0.065,0.195l0.152,0.207l0.043,0.488v0.109l-0.043,0.358
				l0.043,0.326l-0.021,0.119v0.174l0.043,0.087l0.043,0.489l0.033,0.185l0.087,0.239v0.162l0.065,0.174l0.217,0.239l-0.043,0.271
				l-0.326,0.229l-0.272,0.021l-0.195,0.131l-0.098,0.043l-0.446,0.196l-0.13,0.141l-0.087,0.044l-0.108,0.087l-0.142,0.13
				l-0.065,0.065l-0.174,0.337l-0.043,0.13l-0.022,0.337v0.152l0.043,0.206l0.304,0.402l0.098,0.044l0.13,0.108l0.043,0.087
				l0.087,0.142l0.065,0.369l-0.108,0.445l-0.261,0.25l-0.142,0.043l-0.152,0.044h-0.087l-0.163,0.021l-0.37-0.13L89.18,29.1
				l-0.065-0.175l-0.087-0.206l-0.076-0.261v-0.163l-0.021-0.304v-0.12l0.043-0.413l0.12-0.401v-0.065l0.043-0.185l0.065-0.174
				v-0.358l0.043-0.196l0.022-0.098l0.021-0.174l0.022-0.25l-0.022-0.238l-0.065-0.359v-0.282l-0.022-0.401l0.022-0.229
				l-0.043-0.108v-0.533l-0.043-0.423l-0.022-0.109l-0.065-0.25l-0.055-0.337l0.033-0.13l-0.054-0.174V21.58l-0.043-0.13v-0.185
				l0.021-0.261l-0.065-0.163l0.043-0.196l0.043-0.401l0.021-0.131l0.12-0.564l0.087-0.348l0.109-0.271l0.065-0.218l-0.108-0.098
				l-0.337-0.152l-0.174-0.043l-0.511-0.315l-0.109-0.152L87.8,18.18l0.021,0.087l-0.065-0.044l-0.163,0.424l-0.022,0.195
				L87.55,19.06l-0.022,0.652l0.022,0.13l0.065,0.108l-0.043,0.315v0.087l0.022,0.337l0.021,0.315l0.033,0.064v0.218l0.022,0.206
				l-0.022,0.75l-0.033,0.163v0.108l0.033,0.087v0.468v0.087l-0.054,0.185l0.054,0.087v0.217l0.065,0.229l0.043,0.217l0.108,0.25
				l0.087,0.109l0.043,0.064l0.022,0.163l0.293,0.021l0.315,0.152l0.087,0.174l-0.022,0.12l0.022,0.108l-0.065,0.152L88.56,25.47
				l-0.076,0.163l-0.152,0.109l-0.109,0.064l-0.206,0.174l-0.174,0.044l-0.087,0.076l-0.163,0.043l-0.196,0.131l-0.087,0.195v0.142
				l0.065,0.151l0.043,0.109l0.021,0.119v0.152l-0.043,0.282l-0.195,0.185l-0.272,0.044h-0.087l-0.315-0.109l-0.152-0.064
				l-0.207-0.142l-0.239-0.195l0.087,0.021l-0.174-0.13l-0.098-0.022l-0.109-0.119v-0.087l-0.326-0.218l-0.228-0.119l-0.13-0.021
				l-0.12-0.021l-0.087-0.088l-0.424-0.064l-0.109-0.109l-0.065-0.141l-0.022-0.305l0.043-0.163l0.196-0.195l0.207-0.108
				l0.108-0.087l0.109-0.076l0.021-0.108l0.12-0.381l0.043-0.238v-0.109l0.022-0.119l-0.022-0.152l-0.087-0.315l0.021-0.13
				l0.087-0.218l0.021-0.185l-0.021-0.238l0.065-0.229v-0.108l-0.065-0.152v-0.142l-0.022-0.065v-0.238l-0.087-0.294l-0.054-0.108
				l0.054-0.206l0.021-0.109l0.131-0.174v-0.228l-0.022-0.109l0.022-0.293l0.021-0.108l0.022-0.174l-0.13-0.468l0.065-0.206
				l0.022-0.087l-0.022-0.239l-0.021-0.163v-0.152l0.021-0.13l-0.043-0.142l0.022-0.087l-0.087-0.13v-0.108l-0.021-0.142
				l0.021-0.261l0.087-0.229l0.021-0.814l-0.021-0.098l-0.043-0.131l-0.022-0.239v-0.076v-0.195l0.065-0.228l0.021-0.218
				l0.043-0.108v-0.229v-0.195l-0.021-0.065V14.92l-0.022-0.131l-0.043-0.261l0.022-0.336l-0.022-0.109v-0.141v-0.087l-0.087-0.261
				l-0.022-0.163l-0.119-0.131l-0.087-0.087l-0.38-0.358l0.021-0.13l-0.021-0.142l0.021-0.108l0.098-0.044l0.087-0.108l0.174-0.021
				l0.293-0.044l0.13,0.044l0.228,0.108l0.152,0.021l0.13,0.108l0.272,0.229l0.217,0.239h0.163l0.261-0.511l0.152-0.239l0.315-0.293
				l0.38-0.196l0.424-0.162H87.974z"/>
			<path d="M99.013,15.768l0.402-0.044l0.13,0.065l0.229,0.076l0.195,0.217l0.109,0.152l0.065,0.12l0.141,0.087l0.087,0.064
				l0.065,0.131l0.087,0.108l0.163,0.12l0.13,0.064l0.087,0.065l0.511,0.108l0.271,0.065l0.174,0.271l-0.021,0.195l-0.043,0.207
				l-0.218,0.195l-0.206,0.142l-0.13,0.087l-0.065,0.108l-0.065,0.315v1.444l-0.076,0.262l-0.022,0.249v0.131l0.022,0.13
				l0.043,0.587l0.033,0.152v0.108v0.163v0.087l0.021,0.087l0.022,0.087l-0.043,0.131v0.119l0.087,0.218l-0.087,0.13v0.142
				l0.152,0.217l-0.087,0.163l-0.021,0.218l0.087,0.174l-0.065,0.185v0.152l0.022,0.228l0.087,0.445l0.108,0.044l0.207,0.021
				l0.174,0.065l0.109,0.108l0.087,0.131v0.185l-0.13,0.326l-0.109,0.098l-0.271,0.282l-0.283,0.185l-0.141,0.152l-0.087,0.25
				l-0.065,0.13l0.13,0.109l0.065,0.206l0.033,0.087l-0.076,0.282l-0.109,0.185l-0.239,0.087l-0.12,0.022h-0.13h-0.152l-0.228-0.065
				l-0.152-0.065l-0.109-0.021l-0.293-0.185l-0.217-0.087L99.143,27.1l-0.13-0.141l-0.174-0.196l-0.098-0.108l-0.022-0.108
				l-0.087-0.119l-0.087-0.065l-0.13-0.044l-0.12-0.021l-0.043-0.087l-0.087-0.087l-0.108-0.044l-0.402-0.075l-0.315,0.119
				l-0.108,0.108l-0.109,0.294v0.174l0.087,0.13l0.152,0.25l0.076,0.152l-0.021,0.152l-0.054,0.119l-0.13,0.152l-0.261,0.108
				l-0.293-0.021l-0.13-0.021l-0.25-0.065l-0.087-0.044l-0.315-0.185l-0.13-0.087l-0.13-0.065l-0.087-0.064l-0.272-0.196
				l-0.108-0.141l-0.489-0.305l-0.163-0.141h-0.087l-0.087-0.044l-0.25-0.087l-0.239-0.065l-0.13-0.13l-0.054-0.163l0.033-0.195
				l0.043-0.087l0.108-0.186l0.358-0.424l0.065-0.151l0.022-0.131l0.043-0.271v-0.315l-0.022-0.412l-0.065-0.142l0.021-0.131
				l0.022-0.174l-0.043-0.185l0.108-0.087v-0.314l0.043-0.174l-0.021-0.109l-0.022-0.119l0.043-0.131l-0.021-0.304l0.021-0.142
				v-0.108l-0.087-0.13v-0.12l0.043-0.174l-0.021-0.445l-0.022-0.239l-0.152-0.25l0.065-0.217l0.065-0.142v-0.152l0.021-0.38
				l-0.021-0.152l-0.043-0.185l-0.022-0.152l-0.12-0.087h-0.108l-0.065-0.108H93.7l-0.25-0.25l-0.022-0.152l0.109-0.38l0.087-0.108
				l0.565-0.587l0.065-0.087l0.108-0.131l0.13-0.195V16.68l-0.087-0.13l-0.065-0.218l0.021-0.141l0.174-0.381l0.228-0.043h0.217
				l0.142,0.021l0.282,0.098l0.065,0.065l0.185,0.152l0.13,0.087l0.424,0.358l0.087,0.087l0.152,0.065l0.142,0.064l0.108,0.099
				l0.25,0.087l0.022,0.108h0.13l0.239,0.13l0.022,0.163v0.218l-0.087,0.163l-0.109,0.108l-0.152,0.217l-0.022,0.087v0.099
				l-0.043,0.151l0.022,0.152l0.043,0.652v0.13l-0.065,0.315l0.043,0.304v0.892v0.163l-0.021,0.304l0.021,0.358l0.043,0.271
				l0.022,0.174l0.021,0.152l-0.043,0.12l0.022,0.391l-0.022,0.185l-0.021,0.402l-0.098,0.424l-0.065,0.13l-0.109,0.174
				l-0.065,0.294l0.087,0.152l0.271,0.021l0.087,0.021l0.087,0.044l0.337,0.021l0.087,0.054l0.174,0.022l0.25,0.043l0.195,0.044
				l0.337,0.064l0.174-0.108l-0.021-0.293l-0.152-0.131l-0.152-0.25l-0.087-0.532l0.021-0.511v-0.108l0.043-0.163V22.71l0.022-0.238
				l-0.022-0.25l0.022-0.087l0.021-0.294l0.022-0.108l0.065-0.282l0.13-0.185l-0.152-0.044l-0.043-0.13l-0.043-0.25l0.021-0.174
				v-0.315l0.043-0.402v-0.108l0.022-0.108v-0.108l-0.022-0.142l-0.043-0.348l-0.065-0.163l-0.185-0.087l-0.13-0.087l-0.25-0.131
				l-0.13-0.206l-0.021-0.13l0.043-0.337l0.141-0.239l0.109-0.163l0.108-0.065l0.065-0.087l0.13-0.13l0.076-0.142l0.174-0.13
				l0.174-0.044l0.163-0.043L98.763,16.8l-0.13-0.229l-0.043-0.195l0.022-0.12l0.043-0.151l0.206-0.239L99.013,15.768z"/>
			<path d="M103.989,15.746h0.315l0.13,0.021l0.076,0.021l0.174,0.021l0.108,0.022l0.25,0.054l0.196,0.065l0.206,0.065l0.196,0.13
				l0.38,0.315l0.065,0.13l0.293,0.446l0.087,0.151l0.109,0.098h0.174l0.206-0.054l0.217-0.218l0.207-0.217l0.065-0.294
				l-0.022-0.108v-0.119l0.043-0.131l0.152-0.239l0.163-0.098h0.152l0.087-0.021l0.25,0.044l0.087,0.032l0.087,0.087l0.195,0.152
				l0.163,0.064l0.196,0.207l0.108,0.043l0.359,0.152l0.087,0.021l0.163,0.044h0.109l0.217,0.185l0.12,0.195l0.043,0.152v0.098
				l-0.022,0.087l-0.185,0.282l-0.13,0.186l-0.13,0.108l-0.087,0.174l-0.337,0.25l-0.065,0.13l-0.25,0.402v0.087l-0.022,0.142
				l0.022,0.108l-0.022,0.174l-0.021,0.25l-0.217,0.282l-0.098,0.065l-0.13,0.054l-0.152-0.032l-0.207-0.021l-0.174-0.174
				l-0.152-0.294l-0.065-0.348v0.087l-0.054-0.249l-0.13-0.283l-0.043-0.087l-0.13-0.141l-0.229-0.131h-0.152l-0.152,0.021
				l-0.141,0.109l-0.043,0.141l-0.021,0.108l-0.022,0.152l0.022,0.555v0.064l0.021,0.163l0.022,0.131l0.021,0.314l0.022,0.196
				l0.141,0.206l-0.043,0.152l-0.076,0.152l-0.021,0.163l-0.043,0.108v0.152v0.108l0.021,0.119l0.098,0.109v0.706l-0.032,0.098
				l-0.043,0.326l0.119,0.38l-0.043,0.152l-0.054,0.119l-0.087,0.239l-0.065,0.185l-0.109,0.021l-0.087,0.087l-0.021,0.152
				l-0.076,0.108l-0.065,0.229l0.163,0.065h0.109l0.152,0.043l0.109,0.022l0.098,0.021l0.282,0.021l0.142,0.021l0.174,0.044
				l0.315,0.032l0.239,0.065l0.271,0.087l0.152,0.38l-0.043,0.239l-0.195,0.271l-0.337,0.196l-0.63,0.228l-0.152,0.065l-0.13,0.043
				l-0.109,0.109l-0.043,0.163v0.108l0.087,0.217l0.022,0.229v0.174l-0.022,0.131l-0.185,0.141l-0.326,0.152l-0.207-0.021
				l-0.402-0.174l-0.108-0.076l-0.13-0.108l-0.141-0.065l-0.13-0.174l-0.109-0.044l-0.152-0.119l-0.185-0.131l-0.108-0.043h-0.25
				l-0.239-0.271l-0.228-0.065l-0.174-0.087h-0.152l-0.207-0.108l-0.261-0.142l-0.12-0.13l-0.022-0.174l0.055-0.131l0.152-0.229
				l0.239-0.087l0.119-0.087l0.109-0.141l0.109-0.174v-0.315l0.021-0.108l0.022-0.087l-0.043-0.424l0.065-0.131l0.043-0.119
				l0.022-0.532l-0.043-0.239v-0.185l-0.087-0.174l-0.022-0.108l0.043-0.315l0.087-0.218l-0.043-0.314l0.065-0.174l0.054-0.163
				l-0.054-0.195l-0.087-0.359l0.185-0.108l-0.12-0.206l-0.021-0.087l0.021-0.065l-0.021-0.25l-0.022-0.108l0.022-0.381
				l-0.022-0.151v-0.218l-0.043-0.163l-0.108-0.108l-0.087-0.065l-0.12-0.065l-0.087-0.043l-0.38-0.044l-0.087-0.054l-0.087-0.087
				l-0.065-0.195v-0.087l0.022-0.142l0.087-0.174l0.065-0.108l0.163-0.186l0.13-0.13l0.065-0.087l0.087-0.087l0.119-0.119
				l0.087-0.196l0.108-0.293l-0.087-0.239l-0.021-0.087l-0.065-0.142v-0.174l0.174-0.314L103.989,15.746z"/>
			<path d="M114.626,15.507l0.13,0.021l0.38,0.131l0.087,0.064l0.098,0.065l0.283,0.119l0.108,0.065l0.185,0.087l0.109,0.065
				l0.358,0.174l0.663,0.38l0.25,0.022l0.305-0.152l0.271-0.108l0.217,0.021h0.098l0.13,0.087l0.13,0.25l-0.021,0.239l-0.022,0.108
				l-0.239,0.337l-0.315,0.217l-0.108,0.055l-0.163,0.108l-0.152,0.087l-0.174,0.131l-0.185,0.064l-0.021,0.163l-0.087,0.087
				l-0.022,0.174l0.022,0.12l0.021,0.195l-0.065,0.229l-0.087,0.108l-0.142,0.065l-0.239,0.021l-0.152-0.021l-0.424-0.131
				l-0.098-0.119l-0.087-0.021l-0.13-0.109l-0.511-0.358l-0.315-0.239l-0.196-0.185l-0.206-0.152l-0.087-0.108l-0.087-0.021
				l-0.293-0.271l0.12,0.293l0.043,0.218v0.098v0.304l-0.022,0.163l-0.021,0.152v0.261v0.142l0.021,0.238l0.087,0.207l0.261,0.174
				l0.12,0.021l0.108,0.021l0.065,0.044h0.174l0.402,0.141l0.163,0.022l0.511,0.108h0.174l0.293,0.152l0.326,0.087l0.163,0.119
				l0.174,0.044l0.109,0.021l0.163,0.043l0.196,0.109l0.25,0.314l0.065,0.326l-0.043,0.142l0.065,0.152l-0.043,0.228l-0.022,0.282
				l0.022,0.087l0.021,0.402l-0.065,0.207v0.195v0.087l-0.065,0.424l0.022,0.108l-0.022,0.098v0.087v0.358l0.022,0.109v0.238
				l0.043,0.142l0.174,0.13l0.043,0.131v0.087l-0.109,0.229l-0.195,0.195h-0.12l-0.348,0.043l-0.271,0.12l-0.174,0.021h-0.229
				l-0.293,0.108l-0.217,0.131l-0.25-0.065l-0.087,0.174l-0.174,0.098l-0.467,0.152l-0.109,0.087l-0.228,0.337l0.087,0.315v0.087
				l-0.065,0.261l-0.195,0.206l-0.271,0.087l-0.174-0.021l-0.142,0.021l-0.532-0.195l-0.174-0.142l-0.228-0.108l-0.065-0.065
				l-0.174-0.13l-0.065-0.044l-0.229-0.206l-0.087-0.087l-0.13-0.109l-0.13-0.098l-0.337-0.195l-0.25-0.087h-0.38l-0.326,0.239
				l-0.087,0.25l-0.054,0.174l0.033,0.25l0.043,0.087l0.087,0.087l0.174,0.087l0.108-0.022l0.207-0.064l0.087-0.065h0.207
				l0.195,0.065l0.13,0.13l0.087,0.098l0.055,0.087l0.021,0.283l-0.021,0.075l-0.055,0.152l-0.13,0.218l-0.195,0.206l-0.402,0.087
				h-0.163h-0.239l-0.13-0.065l-0.098-0.021l-0.087,0.021l-0.109-0.087l-0.174-0.119l-0.337-0.305l-0.065-0.087l-0.065-0.119
				l-0.141-0.348v-0.119l-0.065-0.37l-0.022-0.25v-0.151l0.087-0.294l0.076-0.239l0.065-0.141l0.043-0.087l0.174-0.358l0.087-0.065
				l0.141-0.065l0.282-0.217l0.315-0.207l0.174-0.13l0.087-0.065l0.12-0.185l0.087-0.174l0.021-0.131l-0.021-0.185l0.065-0.217
				l0.293-0.294l0.217-0.043l0.467,0.043l0.163,0.087l0.282,0.142l0.293,0.174l0.239,0.174l0.087,0.098l0.229,0.152l0.195-0.065
				l0.185,0.195l0.532,0.315l0.293,0.108l0.261,0.021l0.152-0.021l0.076-0.087l0.065-0.152l-0.337-0.401l-0.152-0.337l-0.021-0.108
				l-0.022-0.207l0.043-0.554l-0.043-0.337l-0.12-0.065l-0.282-0.108l-0.163-0.044l-0.152-0.087l-0.174-0.043l-0.185-0.044
				l-0.065-0.098l-0.489-0.087h-0.152l-0.25-0.108l-0.402-0.152l-0.13-0.076l-0.174-0.043l-0.424-0.239l-0.13-0.163l-0.25-0.304
				l-0.065-0.186l-0.043-0.467l-0.022-0.239v-0.293v-0.282l0.065-0.229l0.021-0.108l0.022-0.131l-0.022-0.185l0.043-0.174
				l-0.065-0.108l0.021-0.163l0.087-0.174l-0.087-0.152l-0.065-0.315l-0.272-0.206l-0.043-0.108l0.022-0.239l0.087-0.142
				l0.141-0.108l0.196-0.065h0.087l0.108,0.022l0.228-0.044l0.087-0.021l0.337-0.087l0.261,0.065l0.142-0.044l0.13-0.065
				l0.271-0.076h0.174l0.271-0.043l0.109-0.044l0.087-0.021l0.174-0.065l0.065-0.087l0.055-0.151l-0.055-0.229l0.033-0.108
				l0.043-0.131l0.239-0.25l0.185-0.087L114.626,15.507z"/>
			<path d="M122.884,10.672h0.489l0.065,0.119l0.087-0.055l0.087,0.099l0.076,0.108l0.13,0.195l0.022,0.185v0.261l-0.043,0.207
				l-0.087,0.064l-0.098,0.131l-0.087,0.021l-0.195,0.271l-0.043,0.087l-0.022,0.271l0.065,0.37l0.152,0.337l0.087,0.174l0.12,0.185
				l0.174,0.174l0.065,0.163l0.13,0.087l0.185,0.195l0.087,0.065l0.152,0.206v0.087l-0.065,0.174l0.228,0.25l0.087,0.108
				l0.196,0.186l0.108,0.064l0.207,0.044l0.087,0.13l0.13,0.174l0.185,0.163l0.13,0.152l0.087,0.174l0.087,0.119l0.25,0.174
				l0.087,0.109l0.087,0.043l0.065,0.098l0.185,0.131l0.174,0.13l0.163,0.25l0.022,0.131l0.021,0.174l-0.141,0.185l-0.022,0.13
				l-0.043,0.065l-0.13,1v0.25v0.511l0.022,0.13v0.087l0.043,0.271v-0.108l-0.065,0.305v0.206l-0.087,0.043l0.109,0.065v0.315
				l0.087,0.108v0.108l-0.022,0.315l-0.108,0.195v0.098l0.043,0.152l0.065,0.108v0.533l-0.021,0.141v0.131v0.195l0.043,0.185
				l0.021,0.424l-0.043,0.239l0.065,0.358l0.25,0.358l0.087,0.282l-0.152,0.25l-0.065,0.044l-0.293,0.065l-0.207,0.021l-0.261,0.043
				l-0.228,0.044h-0.196l-0.25,0.098l-0.174,0.021l-0.087,0.022l-0.065,0.064h-0.087l-0.424,0.152l-0.12,0.065l-0.174,0.087
				l-0.293,0.141l-0.108,0.109l-0.283-0.022l-0.141,0.152l0.337,0.608l0.021,0.196l-0.043,0.174l-0.228,0.249l-0.152,0.022
				l-0.108,0.021h-0.109l-0.098-0.021l-0.152-0.022l-0.217-0.087l-0.163-0.064l-0.196-0.098l-0.087-0.022l-0.293-0.174l-0.13-0.13
				l-0.423-0.294l-0.087-0.043l-0.098-0.087l-0.108-0.021l-0.152-0.12l-0.25-0.108l-0.174-0.087l-0.25-0.087l-0.152-0.021
				l-0.239-0.044l-0.163-0.043l-0.174-0.12l-0.087-0.087l-0.098-0.195v-0.119l0.12-0.239l0.065-0.174l0.217-0.294l0.065-0.249
				v-0.794l0.054-0.185l-0.054-0.348l0.076-0.293l-0.054-0.358l-0.065-0.218V22.33l0.022-0.152l0.021-0.13l0.098-0.294l0.022-0.261
				l-0.022-0.587l-0.043-0.619l0.022-0.174l-0.022-0.532l-0.032-0.098l-0.043-0.108v-0.109l0.098-0.064v-0.087l-0.054-0.12
				l0.032-0.13l0.022-0.087l-0.054-0.25l-0.109-0.131l-0.152-0.043l-0.174-0.25v-0.239l0.13-0.163l0.108-0.065l0.087,0.022
				l0.087-0.044h0.25l0.174-0.021l0.141-0.021l0.174-0.065l0.109,0.021l0.12-0.021l0.13-0.044l0.217-0.108l0.163-0.043l0.348-0.207
				l0.228-0.151l0.195-0.109l0.12-0.043l0.217-0.055l0.174,0.098l0.142,0.174l-0.022,0.152l-0.043,0.185l-0.163,0.326l-0.021,0.142
				l-0.022,0.195l0.022,0.804l0.021,0.196l0.109,0.249l-0.065,0.174l0.022,0.229l0.021,0.239l0.022,0.402v0.108v0.119l-0.065,0.326
				l-0.087,0.206l0.022,0.109l0.043,0.337l0.021,0.217v0.532l0.022,0.185l0.021,0.131l-0.021,0.511l-0.022,0.228l-0.174,0.348
				l-0.065,0.12l-0.087,0.108l-0.163,0.131l-0.152,0.185v0.108h0.152l0.141,0.021l0.239,0.196l0.174,0.087l0.163,0.119h0.195
				l0.141,0.043l0.707,0.152l0.152,0.044l0.142-0.044l0.13-0.13l0.043-0.087v-0.163l-0.043-0.087l-0.359-0.261l-0.065-0.229
				l-0.022-0.108l-0.021-0.131v-0.163l-0.065-1.38v-0.336v-0.109v-0.238l0.022-0.402l0.087-0.044l0.021-0.108l-0.065-0.119
				l-0.043-0.402v-0.174l0.043-0.489v-0.13l0.108-0.294l0.022-0.13l-0.065-0.206l0.065-0.196v-0.152l0.087-0.358l0.076-0.108
				l0.108-0.076l-0.021-0.152l-0.337-0.108l-0.359-0.163l-0.065-0.13l-0.109-0.087l-0.315-0.271l-0.13-0.239l-0.25-0.294
				l-0.087-0.13l-0.13-0.218l-0.043-0.098l-0.228-0.304v-0.163l-0.239-0.087l0.043-0.261l-0.25-0.021l-0.109-0.142l-0.195-0.261
				l-0.087-0.207l-0.076-0.108l-0.217-0.152l-0.065-0.098l-0.141-0.064l-0.174-0.065l-0.261-0.021l-0.25,0.13l-0.152,0.076
				l-0.141,0.065l-0.195,0.021l-0.359-0.229l-0.021-0.151l0.065-0.489l0.043-0.108l0.12-0.022l0.087-0.119l0.358-0.152l0.043-0.087
				l0.402-0.108h0.087l0.195-0.076l0.229,0.021l0.13-0.043l0.293,0.021l0.282,0.098l0.13,0.087l0.228,0.087l0.087,0.131l0.272-0.022
				l-0.38-0.891v-0.087l-0.043-0.13l-0.043-0.511l0.108-0.381l0.065-0.108l0.087-0.271l0.141-0.065l0.152-0.152l0.152-0.043
				L122.884,10.672z"/>
			<path d="M132.163,15.615h0.13l0.293,0.065l0.337,0.152l0.402,0.249l0.282,0.25l0.163,0.065l0.13,0.174l0.152,0.021l0.065,0.131
				l0.163,0.119l0.402,0.131l0.109,0.087l0.152,0.043l0.087-0.021h0.141l0.217,0.044l0.207,0.043h0.174l0.13,0.098l0.087,0.152
				v0.174l-0.065,0.206l-0.174,0.196l-0.109,0.337l-0.021,0.108l-0.022,0.152v0.717l-0.054,0.358l0.033,0.152l-0.033,0.195
				l0.054,0.358l-0.021,0.511l0.021,0.142v0.554l-0.076,0.174l0.021,0.445v0.207l0.033,0.108l0.108,0.108l0.022,0.087v0.294
				l-0.022,0.261l0.043,0.141l0.043,0.109v0.271l0.022,0.152l0.021,0.424l0.065,0.108l0.13,0.043h0.098l0.109,0.022h0.108h0.152
				l0.228,0.185v0.304l-0.021,0.087l-0.087,0.163l-0.119,0.195l-0.174,0.229l-0.087-0.021l-0.065,0.108l-0.087,0.108l-0.098,0.109
				l-0.13,0.098l-0.022,0.087l-0.087,0.064l-0.152,0.109l-0.098,0.13l-0.022,0.185l0.022,0.087l0.065,0.087l0.12,0.25v-0.087
				l-0.065,0.413l-0.163,0.185l-0.131,0.044l-0.293,0.021l-0.304-0.087l-0.293-0.087l-0.152-0.076l-0.271-0.13v-0.087l-0.532-0.359
				l-0.109-0.151l-0.141-0.109l-0.217-0.206l-0.229-0.152l-0.108-0.152l-0.13-0.098l-0.196-0.064l-0.163,0.021l-0.261,0.163
				l-0.055,0.13l-0.043,0.468l0.25,0.261l0.065,0.25l-0.087,0.249l-0.359,0.131l-0.261,0.043l-0.228-0.021l-0.402-0.152
				l-0.304-0.119l-0.055-0.087l-0.152-0.174l-0.13-0.142l-0.229-0.151l-0.108-0.109l-0.13-0.043l-0.065-0.108l-0.293-0.186
				l-0.109-0.043h-0.358l-0.087-0.044h-0.13l-0.163-0.13l-0.043-0.076l-0.065-0.152l0.065-0.261l0.13-0.163l0.098-0.064l0.174-0.174
				l0.13-0.207l0.065-0.174v-0.087v-0.141l0.076-0.218V24.21l-0.054-0.12l-0.021-0.282l0.043-0.119l0.054-0.109v-0.174l-0.054-0.108
				l-0.022-0.271l0.022-0.065l0.032-0.108l0.022-0.163l-0.022-0.685l-0.185-0.293v-0.195l0.109-0.142l0.163-0.131l0.087-0.043
				l0.315-0.044l0.348-0.043l0.098,0.021l0.304-0.043l0.087-0.044l0.12-0.021l0.152-0.021h0.271h0.108l0.087-0.022l0.359-0.163
				l0.108-0.087h0.272l0.217-0.151l0.228-0.163l0.174-0.218l0.065-0.337l0.065-0.174v-0.108v-0.098l0.141-0.282l-0.033-0.294
				l-0.043-0.195l-0.108-0.206l-0.358-0.381l-0.152-0.065l-0.13-0.064h-0.207l-0.304-0.174l-0.228-0.065h-0.174l-0.38,0.065
				l-0.38,0.304l-0.087,0.163v0.218v0.228l0.065,0.152l0.108,0.044l0.272-0.088h0.087l0.087,0.044l0.206,0.021l0.283,0.229
				l0.021,0.087l0.022,0.087l0.021,0.217l-0.021,0.359l-0.109,0.206l-0.195,0.195l-0.315,0.152l-0.239,0.044h-0.271l-0.196-0.044
				l-0.207-0.087l-0.217-0.065l-0.293-0.293l-0.13-0.152v-0.13l-0.022-0.087l-0.098-0.044l-0.022-0.25l-0.065-0.25L129,18.755
				l0.022-0.108v-0.163l0.098-0.261l0.021-0.185l0.37-0.532l0.054-0.131l0.174-0.141l0.424-0.239l0.152-0.087l0.38-0.108
				l0.217-0.142l0.38-0.13L131.5,16.3l0.022-0.065l0.043-0.152l0.043-0.195l0.271-0.206L132.163,15.615z M132.945,21.33l-0.25,0.163
				l-0.174,0.109l-0.196,0.043h-0.141l-0.195,0.087l-0.142,0.131l-0.108-0.022h-0.13l-0.13,0.12l0.021,0.151l0.022,0.152
				l0.043,0.207l0.065,0.641l0.022,0.108l-0.065,0.163l0.022,0.261l-0.043,0.652v0.239l-0.207,0.206l0.185,0.021l0.13,0.021h0.272
				l0.13,0.022l0.13-0.022l0.423,0.022l0.229,0.043l0.261,0.065l-0.065-0.152l-0.065-0.087l-0.109-1.717l-0.065-0.358l0.087-0.217
				L132.945,21.33z"/>
			<path d="M138.867,15.811l0.108-0.021l0.293,0.098l0.13,0.021l0.315,0.109l0.13,0.151l0.25,0.163l0.043,0.109l0.283,0.261
				l0.207,0.141l0.174,0.196l0.315,0.174l0.13,0.054l0.109,0.021l0.185,0.196l-0.022,0.271l-0.141,0.239l-0.13,0.13l-0.13,0.12
				l-0.043,0.064l-0.043,0.152v0.131v0.206l0.022,0.282l0.043,0.424l0.021,1.119v0.087l-0.087,0.271l0.022,0.239l0.108,0.207v0.13
				l-0.065,0.152l0.021,0.087l0.043,0.445v0.119l-0.043,0.326l0.022,0.142l-0.022,0.174l0.022,0.511l-0.065,0.424l-0.043,0.195
				l-0.185,0.424l0.293,0.043l0.217,0.022l0.293,0.098l0.315,0.043l0.239,0.065h0.13l0.12,0.021l0.283-0.021v-0.206l-0.043-0.261
				l-0.152-0.359l-0.043-0.424v-0.174v-0.293l0.043-0.424l-0.021-0.217v-0.207l0.152-0.152l0.043-0.108l-0.065-0.185l-0.087-0.489
				v-0.282l0.087-0.021l-0.065-0.294l0.022-0.314l-0.087-0.108v-0.337l0.108-0.218v-0.065l-0.043-0.358l0.022-0.13l-0.043-0.065
				l-0.152-0.119l-0.163-0.109l-0.13-0.065l-0.195-0.195l-0.055-0.119l0.033-0.424l0.13-0.108l0.13-0.131l0.109-0.185l0.098-0.065
				l0.37-0.348l0.098-0.119l0.043-0.131v-0.174l-0.022-0.206l-0.076-0.218l-0.022-0.141l0.098-0.174l0.239-0.174l0.152-0.044
				l0.142,0.044l0.195,0.043l0.109,0.044l0.12,0.13v0.065l0.087,0.021l0.282,0.185l0.293,0.239l0.13,0.108l0.12,0.12l0.239,0.13
				l0.315,0.174l0.13,0.044l0.108,0.054l0.293,0.131l0.043,0.087l0.065,0.174l-0.022,0.229l-0.174,0.174l-0.25,0.206l-0.043,0.087
				l-0.065,0.174l-0.043,0.532l0.065,0.12v0.195l-0.043,0.13l-0.021,0.229l-0.087,0.315l0.043,0.413l-0.13,0.206l-0.12,0.13
				l0.12,0.044l0.043,0.185v0.326l0.043,0.142l0.021,0.087v0.13l-0.021,0.206v0.131l-0.043,0.358l0.021,0.131l0.022,0.238
				l-0.022,0.163v0.642l0.022,0.087v0.38l-0.12,0.108l-0.065,0.207l0.25,0.087l0.087,0.314l0.043,0.087l0.25,0.239l0.087,0.098
				l0.152,0.261l0.13,0.272l0.054,0.151l0.043,0.109l-0.065,0.738l0.043,0.087l-0.021,0.185l-0.12,0.413l-0.152,0.294l-0.022,0.174
				l-0.152,0.249l-0.043,0.087l-0.25,0.25l-0.174,0.109l-0.12,0.108l-0.087,0.021l-0.402,0.315l-0.218,0.021l-0.423,0.25
				l-0.25,0.108l-0.391,0.195l-0.163,0.044l-0.174,0.043l-0.185,0.076l-0.261,0.131l-0.185,0.065l-0.435,0.195l-0.207,0.119
				l-0.13,0.087l-0.228,0.196l-0.065,0.108l-0.043,0.163l0.043,0.261v0.141l-0.13,0.261l-0.293,0.207h-0.283l-0.098-0.044
				l-0.326-0.076l-0.445-0.195l-0.207-0.108l-0.087-0.065l-0.13-0.076l-0.108-0.087l-0.272-0.152l-0.13-0.174l-0.228-0.119
				l-0.217-0.217l-0.337-0.229l-0.108-0.087l-0.13-0.065l-0.207-0.065l-0.196-0.064l-0.206-0.163l-0.196-0.044l-0.087-0.043
				l-0.207-0.044l-0.467-0.13l-0.108-0.022l-0.228,0.022l-0.196,0.064l-0.152,0.109l-0.119,0.206v0.195l0.163,0.174l0.305-0.064
				h0.098l0.13-0.044l0.152,0.021h0.087l0.142,0.065l0.174,0.337v0.293l-0.043,0.218l-0.087,0.087l-0.065,0.119l-0.207,0.152
				l-0.065,0.087l-0.109,0.021l-0.087,0.044l-0.25,0.043l-0.174-0.021l-0.185-0.065l-0.261-0.108l-0.532-0.38l-0.098-0.218
				l-0.065-0.185l-0.065-0.152l-0.021-0.217l-0.022-0.163v-0.108l-0.021-0.131l0.087-0.489l0.108-0.185l0.163-0.337l0.087-0.064
				l0.13-0.131l0.163-0.087l0.239-0.152l0.108-0.076l0.337-0.108l0.152-0.021l0.098-0.021h0.304l0.12-0.022l0.108,0.044h0.13
				l0.337,0.021l0.109,0.065l0.25,0.043l0.065-0.087l0.043-0.304l0.152-0.294l0.043-0.087l0.38-0.228l0.554,0.021l0.608,0.315
				l-0.098,0.021l0.228,0.131l0.087,0.064l0.152,0.076l0.098,0.152l0.13,0.021l0.239,0.218l0.402,0.38l0.185,0.087l0.152,0.076
				l0.195,0.108l0.25,0.065l0.239,0.044h0.206h0.261l0.229-0.131l0.174-0.044l0.185-0.141l0.217-0.108l0.13-0.152l0.207-0.271
				l0.293-0.402l0.043-0.392l0.021-0.098l-0.043-0.325l-0.054-0.207l-0.065-0.065l-0.087-0.195l-0.087-0.076l-0.108-0.021
				l-0.12-0.108l0.033-0.087l-0.098-0.022l-0.174-0.087l-0.359-0.119l-0.152-0.021l-0.13,0.054l-0.315-0.032l-0.228,0.25
				l-0.174,0.152l-0.13,0.424l0.13,0.25l-0.043,0.238l-0.25,0.271l-0.13,0.044l-0.152-0.044l-0.185-0.043h-0.087l-0.304-0.185
				l-0.358-0.195l-0.228-0.174l-0.261-0.25l-0.142-0.065l-0.152-0.131l-0.261-0.162l-0.12-0.065l-0.152-0.044l-0.229-0.087h-0.108
				l-0.217-0.152l-0.022-0.401l0.043-0.12l0.13-0.174l0.315-0.217l0.108-0.271l0.065-1.021l-0.065-0.294l0.043-0.532l-0.021-0.271
				l0.021-0.413l-0.043-0.141l-0.043-0.131v-0.065l0.022-0.087l0.087-0.185v-0.13V21.45l-0.022-0.142l-0.108-0.217l0.021-0.131
				v-0.229l0.087-0.174l0.022-0.162l0.021-0.109l-0.021-0.217v-0.315l-0.087-0.229v-0.151l-0.087-0.218l-0.359-0.337l-0.195-0.087
				l-0.142-0.043l-0.087-0.207v-0.358l0.174-0.217l0.315-0.272l0.271-0.261l0.087-0.087l0.13-0.119l0.087-0.043l0.022-0.087
				l0.054-0.174l-0.12-0.229l-0.043-0.239l0.022-0.142l0.043-0.13L138.867,15.811z"/>
			<path d="M163.56,11.307l0.183,0.072l0.146,0.049l0.073,0.123l0.024,0.195l-0.171,0.402l-0.098,0.184l-0.159,0.195l-0.171,0.195
				l-0.427,0.573l-0.403,0.55l-0.024,0.085l-0.317,0.501l-0.183,0.244l-0.122,0.195l-0.122,0.207l-0.281,0.451l-0.098,0.221
				l-0.171,0.28l-0.049,0.098l-0.024,0.427l-0.159,0.27l-0.122,0.207l-0.024,0.525l-0.049,0.195l-0.098,0.268l-0.024,0.306
				l-0.049,0.171l-0.232,0.379l-0.049,0.256l0.073,0.244l-0.073,0.171l0.183,0.378l-0.085,0.306l-0.073,0.269l0.208,0.281V20.9
				l0.024,0.098l-0.073,0.758v0.391l0.024,0.158l0.049,0.5l-0.073,0.172l0.073,0.305l-0.024,0.098l-0.049,0.098v0.098v0.256
				l0.049,0.172l0.073,0.121l0.024,0.208l0.049,0.195l0.049,0.171l-0.024,0.135v0.146l0.122,0.121v0.257l0.073,0.171l0.11,0.073
				l0.024,0.171l0.024,0.109l0.146,0.146l0.049,0.221l0.122,0.098l0.232,0.256l0.171,0.073l0.098,0.024l0.122,0.122l0.208,0.049
				l0.403-0.024l0.22-0.146l0.122,0.024l0.208-0.146l0.122-0.098l0.378-0.524l0.195-0.452l0.122-0.329l0.073-0.318l0.049-0.329
				l0.085-0.28l0.195-0.221l-0.122-0.121l-0.049-0.184l0.049-0.317l-0.024-0.306l0.024-0.121l-0.024-0.257l-0.024-0.195l0.073-0.146
				l-0.024-0.122l-0.073-0.184l0.098-0.293v-0.305l-0.024-0.195l-0.049-0.33l-0.073-0.121l-0.134-0.306l0.024-0.195l0.024-0.098
				l-0.049-0.231l-0.073-0.195l-0.244-0.403l-0.232-0.195l-0.403-0.073l-0.293,0.049l-0.146,0.098l-0.281,0.146l-0.122,0.098
				l-0.183,0.158l-0.146,0.098l-0.269,0.049h-0.159l-0.293-0.17l-0.146-0.33l-0.037-0.171l0.085-0.378l0.073-0.172l0.427-0.305
				l0.5-0.281l0.244-0.023l0.549-0.074l0.574-0.049l0.146-0.023l0.403,0.146l0.159-0.025l0.22,0.11l0.378,0.073h0.098l0.171,0.122
				l0.427,0.195l0.171,0.073l0.159,0.061l0.244,0.172l0.146,0.098l0.159,0.121l0.049,0.11l0.195,0.171l0.122,0.171l0.159,0.257
				l0.244,0.391l0.098,0.256l0.085,0.098l0.098,0.281l0.073,0.219l0.049,0.281l0.049,0.269l0.024,0.122v0.207l0.098,0.195
				l0.098,0.306l0.037,0.122v0.244l0.122,0.061l0.171,0.146l0.049,0.146l-0.024,0.172l-0.269,0.28l-0.11,0.146l-0.073,0.098
				l-0.073,0.159l-0.195,0.268l-0.073,0.208l-0.134,0.293l-0.146,0.073l-0.122,0.232l0.049,0.195l-0.024,0.207l-0.049,0.122
				l-0.208,0.146l-0.122,0.049l-0.171,0.403l-0.073,0.17l-0.134,0.159l-0.171,0.146h-0.146v0.171l-0.305,0.098h-0.098l-0.305,0.281
				l-0.195,0.195l-0.049,0.207h-0.073l-0.098,0.049l-0.452,0.244l-0.305,0.073l-0.195,0.062l-0.781,0.072l-0.293,0.049h-0.452
				l-0.171,0.025l-0.208-0.049h-0.378l-0.171-0.049l-0.22-0.049l-0.525-0.184l-0.098-0.024l-0.208-0.049l-0.745-0.354l-0.232-0.146
				l-0.171-0.195l-0.232-0.072l-0.098-0.11l-0.073-0.098l-0.122-0.098l-0.146-0.22l-0.134-0.135l-0.122-0.098l-0.098-0.219
				l-0.22-0.281l-0.11-0.171l-0.293-0.524l-0.098-0.281l-0.159-0.477v-0.195v-0.17l-0.024-0.208l-0.146-0.049l-0.171-0.671
				l-0.024-0.232l-0.085-0.146l-0.024-0.269l-0.098-0.427l-0.024-0.208v-0.073l-0.024-0.171v-0.146v-0.183l-0.024-0.123l-0.22-0.549
				l-0.159-0.305l0.073-0.221l0.159-0.146l0.098-0.231l0.049-0.171l0.476-1.196l0.049-0.134l0.024-0.146l0.073-0.195l0.122-0.184
				l0.11-0.122l0.146-0.146l0.122-0.146l0.146-0.231l0.061-0.172l0.122-0.146l0.098-0.256l0.281-0.171l0.122-0.306l0.146-0.268
				l0.22-0.232l0.037-0.098l0.146-0.244l0.22-0.207l0.256-0.293l0.171-0.33l0.195-0.073l0.476-0.55l0.549-0.5l0.33-0.305
				l0.305-0.172l0.391-0.354l0.305-0.146l0.269-0.232l0.134-0.049l0.098-0.072l0.122-0.049l0.098-0.074L163.56,11.307z"/>
		</g>
	</g>
</g>
</svg>
