<?xml version="1.0" encoding="utf-8"?>
<!-- Generator: Adobe Illustrator 16.2.1, SVG Export Plug-In . SVG Version: 6.00 Build 0)  -->
<!DOCTYPE svg PUBLIC "-//W3C//DTD SVG 1.1//EN" "http://www.w3.org/Graphics/SVG/1.1/DTD/svg11.dtd">
<svg version="1.1" id="Isolation_Mode" xmlns="http://www.w3.org/2000/svg" xmlns:xlink="http://www.w3.org/1999/xlink" x="0px"
	 y="0px" width="300.509px" height="62.309px" viewBox="0 0 300.509 62.309" enable-background="new 0 0 300.509 62.309"
	 xml:space="preserve">
<g>
	<g>
		<polygon fill="#D9DADB" points="209.493,59.737 209.493,50.912 92.307,50.912 92.307,59.737 5.325,59.737 24.512,35.567 
			5.325,11.396 43.112,11.396 43.112,2.572 258.461,2.572 258.461,11.396 295.83,11.396 280.48,35.567 295.83,59.737 		"/>
		<path d="M255.888,5.143v8.825h35.262l-13.716,21.599l13.716,21.598h-79.084V48.34H89.734v8.824H10.65l17.145-21.598L10.65,13.968
			h35.033V5.143H255.888 M261.031,0h-5.144H45.684H40.54v5.143v3.682H10.65H0l6.621,8.342l14.606,18.4l-14.606,18.4L0,62.309h10.65
			h79.084h5.144v-5.144v-3.681h112.044v3.681v5.144h5.144h79.084h9.36l-5.018-7.901l-11.966-18.841l11.966-18.841l5.018-7.901h-9.36
			h-30.118V5.143V0L261.031,0z"/>
	</g>
	<polygon fill="#B0B4B7" points="89.734,57.165 89.734,13.968 10.65,13.968 27.795,35.567 10.65,57.165 	"/>
	<polygon fill="#B0B4B7" points="291.149,13.968 212.065,13.968 212.065,57.165 291.149,57.165 277.434,35.567 	"/>
	<polygon points="40.48,12.024 40.48,51.503 77.613,59.908 91.653,58.849 49.286,12.024 	"/>
	<polygon points="261.047,11.853 261.047,51.333 223.913,59.737 209.873,58.677 252.24,11.853 	"/>
	<polygon fill="#8B8B8B" points="255.888,5.143 255.888,48.34 212.065,57.165 211.893,13.968 	"/>
	<polygon fill="#8B8B8B" points="45.684,5.143 45.684,48.34 89.507,57.165 89.681,13.968 	"/>
	<rect x="45.684" y="5.143" fill="#D9DADB" width="210.204" height="43.197"/>
</g>
<g>
	<path d="M104.89,18.531l0.326-0.028l0.113,0.028l0.368,0.17l0.184,0.298l-0.028,0.481l-0.127,0.127l-0.057,0.198l-0.396,0.368
		l-0.156,0.071l-0.227,0.057l-0.297,0.142l-0.227,0.057l-0.198,0.142l-0.142,0.057l-0.156,0.127l-0.227,0.425l-0.113,0.666
		l-0.028,0.269l-0.127,1.771v0.227l-0.057,0.113l-0.113,0.113l-0.028,0.184l-0.028,0.113l0.028,0.142v0.27l0.028,0.142l0.17,0.142
		l-0.028,0.24l0.028,0.638l0.099,0.142v0.255l-0.028,0.113l-0.071,0.155l-0.142,0.255v0.468l0.028,0.198l0.269,0.297l-0.156,0.496
		l0.042,0.283l-0.042,0.523l0.071,0.142l0.028,0.198l-0.028,0.383l-0.028,0.113l0.057,0.467v0.113l-0.028,0.326l0.057,0.453v0.438
		v0.213l-0.057,0.085l0.028,0.34l0.085,0.212l0.057,0.17l0.028,0.312v0.185l0.113,0.142l0.028,0.17v0.184l0.142,0.51l0.057,0.27
		l0.269,0.58l0.085,0.142l0.17,0.142l0.439,0.185l0.439,0.085l0.34,0.057l0.127,0.085l0.142,0.17l0.057,0.142v0.127v0.34
		l-0.028-0.142l-0.057,0.283l-0.354,0.298l-0.227,0.113l-0.212,0.028l-0.666,0.057h-0.142h-0.255l-0.057-0.142l-0.156,0.028
		l-0.142,0.113l-0.382-0.057l-0.17-0.142l-0.17-0.085l-0.085,0.113l-0.241,0.028l-0.864-0.113l-0.637-0.057l-0.113,0.028
		l-0.241-0.028l-0.198,0.028l-0.255,0.028l-0.354,0.085l-0.113-0.028l-0.241,0.057h-0.142l-0.085,0.028h-0.283l-0.411,0.085
		l-0.198,0.057l-0.708,0.155l-0.368,0.028l-0.156,0.057l-0.637,0.028h-0.142h-0.198l-0.113-0.028h-0.127l-0.34,0.057l-0.113-0.028
		l-0.439-0.028l-0.113-0.028l-0.524-0.057l-0.113-0.07h-0.184l-0.113-0.085l-0.312-0.113l-0.212-0.085l-0.17-0.057l-0.467-0.198
		l-0.113-0.128h-0.085l-0.354-0.142l-0.198-0.028l-0.057,0.27l-0.17,0.198l-0.212,0.085l-0.368,0.142l-0.382,0.184L90.8,37.76
		l-0.326,0.113l-0.255-0.085h-0.085l-0.269,0.085l-0.113,0.085l-0.269,0.028h-0.368l-0.142-0.028l-0.127-0.198h-0.17l-0.496,0.142
		l-0.453-0.085h-0.156l-0.425-0.184l-0.354-0.028l-0.198-0.028l-0.411-0.198l-0.17-0.057l-0.085-0.326l-0.212-0.028l-0.312,0.028
		l-0.439-0.283l-0.255-0.269l-0.127-0.057l-0.113-0.085l-0.396-0.396l-0.354-0.213l-0.057-0.17l-0.057-0.198l-0.057-0.127
		l-0.184-0.368l-0.113-0.185l-0.028-0.113l-0.142-0.057l-0.028-0.34l-0.057-0.127l-0.085-0.142l-0.156-0.468l-0.028-0.227v-0.283
		l-0.028-0.297v-0.142l0.057-0.17l0.057-0.128l0.028-0.255l-0.142-0.269v-0.142l0.085-0.524l0.099-0.142l0.085-0.057l0.028-0.142
		l-0.156-0.354l0.071-0.255v-0.27l0.142-0.425l0.17-0.325l0.085-0.17l0.085-0.241l0.071-0.085l0.17-0.312l0.028-0.113l0.085-0.184
		l0.17-0.198l0.057-0.27l0.099-0.255l0.057-0.255l0.255-0.184l0.113-0.198l0.113-0.255l0.127-0.156l0.453-0.58l0.184-0.142
		l0.17-0.255l0.113-0.085l0.113-0.156l0.156-0.057l0.057-0.198l0.368,0.028l-0.028-0.297l0.326-0.425l0.227-0.298v-0.113
		l0.113-0.142l0.028-0.113l0.099-0.212l0.142-0.227l0.085-0.468l0.057-0.255l0.057-0.184l0.028-0.481v-0.298l-0.085-0.198
		l-0.057-0.269l-0.198-0.283l-0.028-0.198l-0.156-0.213l-0.255-0.057l-0.17,0.028l0.028,0.17l-0.241-0.028l-0.227-0.028
		l-0.142,0.057l-0.354,0.213l-0.227,0.368v0.24l0.057,0.396l0.425,0.496l0.127,0.297l-0.028,0.368l-0.028,0.128l-0.099,0.142
		l-0.255,0.312l-0.17,0.127l-0.354,0.085l-0.255,0.028l-0.212-0.057l-0.113-0.028l-0.255-0.127h-0.113l-0.127-0.142l-0.198-0.085
		l-0.085-0.283l-0.198-0.241l-0.212-0.92V21.25l0.085-0.312l0.057-0.269l0.071-0.142l0.142-0.255l0.113-0.213l0.496-0.75
		l0.227-0.085l0.722-0.411l0.269-0.028l0.113-0.057l0.17-0.028l0.212-0.028l0.425-0.028l0.467,0.028l0.17,0.028l0.156,0.028
		l0.312,0.142l0.467,0.057v0.128l0.255,0.113l0.057,0.113l0.156,0.057l0.085,0.113l0.198,0.212l0.439,0.638l0.198,0.425l0.028,0.127
		v0.113l0.057,0.113l0.099,0.17l0.057,0.383l0.057,0.17l0.028,0.17v0.608l0.057,0.27v0.523l-0.028,0.142l-0.085,0.694l0.028,0.24
		l-0.057,0.113l-0.099,0.227l-0.028,0.27l-0.142,0.637l-0.085,0.227l-0.057,0.198l-0.354,0.963l-0.085,0.198l-0.142,0.439
		l-0.198,0.283l-0.057,0.184l0.057,0.283v0.113l-0.241,0.496l-0.085,0.24v0.17v0.085l-0.227,0.581l-0.085,0.198l-0.099,0.24
		L87.6,30.822l0.057,0.17l-0.085,0.241v0.17l-0.028,0.963l0.057,0.368l-0.028,0.438l-0.057,0.255L87.6,33.81l0.127,0.227
		l0.198,0.608l0.17,0.326l0.326,0.312l0.227,0.24l0.198,0.085l0.156,0.085l0.255,0.142h0.113l0.269,0.071l0.722,0.113l0.283-0.085
		l0.156,0.028l0.142-0.057l0.028-0.354l-0.198-0.142l-0.028-0.155l-0.156-0.113L90.56,35l-0.142-0.057l-0.113-0.27l-0.113-0.255
		l-0.212-0.354v-0.113l-0.028-0.113l-0.113-0.113v-0.142l-0.057-0.156l-0.085-0.113l-0.028-0.396l-0.085-0.325l-0.028-0.227
		l-0.028-0.213l0.028-0.665l-0.099-0.396l0.071-0.185l0.057-0.198l-0.057-0.142l0.057-0.325l0.142-0.368l0.057-0.27l0.085-0.198
		l0.17-0.269l0.212-0.283l0.142-0.241L90.305,28.5v-0.255l0.028-0.17l0.113-0.127l0.057-0.17l0.113-0.057l0.156-0.227l0.17-0.27
		l0.028-0.17l0.227-0.297l0.127-0.113l0.255-0.34l0.198-0.213l0.113-0.227l0.184-0.198l0.17-0.184l0.17-0.255l0.156-0.085
		l0.142-0.27l0.198,0.028l0.17-0.396l0.297-0.325l0.255-0.411l0.127-0.113l0.198-0.283v-0.142l0.085-0.127l0.085-0.198l-0.057,0.113
		l0.198-0.34l0.028-0.213l0.241-0.396l0.142-0.212v-0.17l0.028-0.326l0.028-0.255l-0.028-0.382l-0.467-0.638l-0.255-0.085
		l-0.297-0.057l-0.581,0.17l-0.227,0.298l-0.113,0.255v0.184l-0.057,0.198l-0.057,0.255l-0.113,0.185l-0.297,0.255l-0.113,0.057
		l-0.198,0.028l-0.382,0.057l-0.439-0.283l-0.198-0.142l-0.142-0.821l0.113-0.283l0.057-0.213l0.411-0.637l0.453-0.368l0.297-0.185
		l0.368-0.17l0.184-0.028l0.113-0.057l0.34-0.057l0.269-0.028l0.581,0.057h0.17l0.297,0.057l0.255,0.028l0.227,0.085l0.184,0.057
		l0.113,0.128l0.382,0.198l0.283,0.283l0.297,0.354l0.255,0.411l0.255,0.722l0.028,0.312l0.028,0.156l-0.028,0.312l0.028,0.325
		l-0.028,0.836l-0.028,0.255l-0.028,0.184L96.62,23.6l-0.028,0.17l-0.028,0.1l-0.057,0.227l-0.085,0.354l-0.028,0.255v0.198
		l-0.057,0.213l-0.142,0.312l-0.071,0.24l-0.057,0.142l-0.028,0.198l-0.198,0.524l-0.085,0.255l-0.326,0.608l-0.113,0.213
		l-0.113,0.198l-0.028,0.113l0.142,0.269v0.142l-0.028,0.142v0.326l-0.198,0.495l0.028,0.142l-0.028,0.17l-0.354,0.439l-0.085,0.198
		v0.085l0.113,0.057l0.028,0.155v0.113l-0.085,0.255l-0.057,0.113l-0.028,0.213l-0.113,0.312l-0.028,0.269v0.368l0.085,0.213v0.227
		l-0.028,0.113l-0.028,0.184v0.198v0.113l0.142,0.113v0.113v0.128l-0.085,0.227l0.113,0.17l0.354-0.553l0.227-0.396l0.142-0.325
		l0.156-0.312l0.17-0.213l0.467-0.142l0.312,0.085l0.142,0.185l0.057,0.142l0.127,0.312l-0.156,0.693l-0.227,0.651l-0.085,0.17
		l-0.467,0.694l-0.113,0.142l-0.269,0.325l-0.057,0.227l-0.028,0.142l0.156,0.156l0.198,0.085l0.227,0.085l0.269,0.085h0.198
		l0.028-0.113l0.467,0.057h0.142l0.581-0.439l0.467-0.255l0.198-0.212l0.085-0.283l0.085-0.113l0.071-0.298l0.113-0.198l0.028-0.198
		l0.028-0.212l-0.113-0.34l0.425-0.638l0.127-0.212l-0.028-0.17l-0.099-0.383l-0.028-0.17l0.057-0.17l-0.113-0.113l-0.17-0.155
		l-0.17-0.142l0.085-0.411l0.439-0.368l0.057-0.24l-0.127-0.227v-0.17v-0.524l-0.085-0.142v-0.184l-0.028-0.142l-0.028-0.085v-0.198
		v-0.113l0.057-0.298l0.028-0.17V27.58l0.028-0.935l-0.028-0.255v-0.113l-0.028-0.411l0.028-0.085l0.028-0.24l-0.028-0.142
		l-0.057-0.368l-0.028-0.241l-0.057-0.495l0.085-0.113l0.113-0.34V23.6l-0.057-0.085v-0.113l-0.028-0.142l0.028-0.155l-0.057-0.17
		v-0.17l0.028-0.241l-0.057-0.368v-0.113v-0.212v-0.312l-0.113-0.185l-0.085-0.34l-0.198-0.297l-0.906-0.368l-0.198-0.185
		l-0.127-0.198l-0.057-0.142l0.057-0.354l0.099-0.198l0.198-0.227l0.028-0.1h0.142h0.156l0.142-0.057l0.028,0.185l0.524-0.1
		l0.227-0.057l0.354,0.213l0.198,0.028l0.354-0.028l0.085,0.057l0.227,0.028l0.439,0.057l0.255-0.028l0.212,0.028h1.189l0.198-0.028
		l0.227-0.028l0.142,0.028l-0.085,0.142h0.156l0.198,0.028l0.198-0.057l0.113-0.057l0.269-0.028l0.142-0.326l0.227-0.028
		l0.212-0.113l0.227-0.142l0.269-0.085L104.89,18.531z"/>
	<path d="M113.216,21.661h0.411l0.255,0.17l0.057,0.184l0.382,0.609l0.283,0.481l0.127,0.325l0.198,0.312l0.113,0.27l0.057,0.17
		l-0.028,0.113l0.028,0.24l0.057,0.142l0.057,0.227l0.212,0.27l0.34,0.283l0.113,0.212l0.071,0.283l0.085,0.298l0.142,0.227
		l0.142,0.438l0.382,0.312l0.085,0.298l-0.057,0.255l-0.241,0.255l-0.113,0.212l-0.694,0.411l-0.467,0.283l-0.34,0.142l-0.142,0.113
		l-0.184,0.184l-0.142,0.057l-0.354,0.085l-0.227,0.17l-0.17,0.057l-0.496,0.298h-0.113l-0.212,0.17l-0.113,0.028l-0.396,0.382
		l-0.156,0.255l-0.028,0.113v0.128l-0.028,0.17l-0.227,0.227l-0.411-0.028l0.028,0.325l-0.028,0.227l-0.113,0.17l-0.085,0.27
		l-0.142,0.17l-0.071,0.17l0.042,0.269l0.113,0.198l0.142,0.028l0.142,0.057h0.17h0.354l0.269,0.128l0.396,0.028l0.326,0.028
		l0.17,0.028h0.113l0.382,0.057l0.396,0.028l0.382-0.057l0.17-0.113l0.057-0.128l0.071-0.142l-0.028-0.113v-0.113l-0.099-0.155
		l-0.113-0.198l-0.113-0.368l0.085-0.354l0.085-0.142l0.113-0.184l0.297-0.142l0.17-0.028h0.184l0.283,0.113l0.17,0.057l0.212,0.24
		l0.113,0.255l0.057,0.751l-0.057,0.127l-0.057,0.34l-0.057,0.354l-0.085,0.227l-0.156,0.113l-0.113,0.184l-0.028,0.17l-0.255,0.283
		l-0.212,0.213l-1.246,1.005l-0.113,0.185l-0.057,0.368l0.085,0.155l0.028,0.255l-0.057,0.227l-0.17,0.241l-0.156,0.028
		l-0.453,0.085l-0.212-0.057l-0.368-0.057l-0.184-0.057l-0.255-0.113l-0.17-0.1l-0.184-0.028l-0.17-0.028l-0.227-0.17l-0.269-0.057
		l-0.481-0.297l-0.156-0.057l-0.255-0.142l-0.297-0.17l-0.255-0.113l-0.411-0.27l-0.396-0.142l-0.354-0.17l-0.17-0.028h-0.439
		l-0.17-0.099l-0.212-0.198l-0.085-0.198l0.028-0.085l0.057-0.213l0.127-0.198l0.34-0.325l0.17-0.255l0.028-0.255l0.071-0.213
		l0.057-0.396v-0.184l-0.028-0.312v-0.185l-0.099-0.085l-0.028-0.255l0.156-0.085l-0.085-0.184l0.057-0.283l-0.028-0.17
		l-0.127-0.326l0.127-0.142l0.028-0.113v-0.113l-0.028-0.467l0.028-0.113v-0.935l-0.028-0.198V28.5l-0.028-0.396l0.028-0.269
		l-0.028-0.312l0.028-0.213l0.028-0.142l-0.057-0.113l-0.071-0.523l-0.028-0.326l0.028-0.227l-0.113-0.34l-0.085-0.127l-0.312-0.227
		l-0.099-0.113l-0.028-0.142l0.028-0.27l0.184-0.255l0.396-0.155l0.609-0.085l0.326-0.085l0.113-0.057l0.17-0.028l1.218-0.354
		l0.184-0.085h0.142l0.085-0.085l0.113-0.142l0.212,0.057l0.283-0.142l0.198-0.155l0.439-0.255l0.113-0.057l0.552-0.524l0.085-0.198
		l0.028-0.212l0.184-0.198L113.216,21.661z M111.304,24.506l-0.085,0.227v0.227l0.057,0.156l0.057,0.227l0.057,0.382l0.028,0.142
		l0.057,0.113l0.028,0.609l0.028,0.113l0.057,0.184l0.057,0.283l-0.085,0.198l0.085,0.27v0.17l-0.057,0.17l-0.085,0.297l0.028,0.113
		l0.028,0.113l-0.028,0.241l0.028,0.142v0.198l0.028,0.142l-0.057,0.269l0.085,0.142l0.382-0.495l0.411-0.142l0.057-0.142
		l0.113-0.057l0.113-0.085l0.17-0.057l0.241-0.411l0.057-0.113l-0.057-0.155l-0.142-0.255l-0.057-0.142l-0.042-0.185l-0.198-0.425
		l-0.411-1.048l-0.113-0.085l-0.283-0.552l-0.057-0.198l-0.354-0.609L111.304,24.506z"/>
	<path d="M122.505,15.246h0.637l0.085,0.156l0.113-0.071l0.113,0.128l0.099,0.142l0.17,0.255l0.029,0.24v0.34l-0.057,0.27
		l-0.113,0.085l-0.128,0.17l-0.113,0.028l-0.255,0.354l-0.057,0.113L123,17.809l0.085,0.481l0.198,0.438l0.113,0.227l0.155,0.241
		l0.227,0.227l0.086,0.212l0.17,0.113l0.24,0.255l0.113,0.085l0.198,0.27v0.113l-0.085,0.227l0.297,0.325l0.113,0.142l0.256,0.241
		l0.141,0.085l0.27,0.057l0.113,0.17l0.17,0.227l0.24,0.212l0.17,0.198l0.113,0.227l0.113,0.156l0.326,0.227l0.113,0.142
		l0.113,0.057l0.085,0.127l0.241,0.17l0.227,0.17l0.212,0.326l0.028,0.17l0.028,0.227l-0.185,0.24l-0.027,0.17l-0.057,0.085
		l-0.17,1.303v0.326v0.665l0.027,0.17v0.113l0.057,0.354v-0.142l-0.084,0.396v0.269l-0.113,0.057l0.141,0.085v0.411l0.113,0.142
		v0.142l-0.027,0.41l-0.143,0.255v0.128l0.057,0.198l0.086,0.142v0.693l-0.029,0.185v0.17v0.255l0.057,0.24l0.029,0.553
		l-0.057,0.312l0.084,0.467l0.326,0.468l0.113,0.368l-0.198,0.325l-0.085,0.057l-0.383,0.085l-0.269,0.028l-0.34,0.057l-0.298,0.057
		h-0.254l-0.326,0.128l-0.227,0.028l-0.113,0.028l-0.085,0.085h-0.113l-0.552,0.198l-0.156,0.085l-0.227,0.113l-0.383,0.184
		l-0.141,0.142l-0.369-0.028l-0.184,0.198l0.439,0.793l0.027,0.255l-0.057,0.227l-0.297,0.326l-0.198,0.028l-0.142,0.028H123
		l-0.128-0.028l-0.197-0.028l-0.283-0.113l-0.213-0.085l-0.255-0.128l-0.113-0.028l-0.382-0.227l-0.17-0.17l-0.553-0.382
		l-0.113-0.057l-0.127-0.113l-0.143-0.028l-0.197-0.156l-0.326-0.142l-0.227-0.113l-0.326-0.113l-0.197-0.028l-0.312-0.057
		l-0.212-0.057l-0.227-0.155l-0.113-0.113l-0.128-0.255v-0.156l0.156-0.312l0.085-0.227l0.283-0.382l0.085-0.326v-1.033l0.07-0.241
		l-0.07-0.453l0.1-0.382l-0.071-0.468l-0.085-0.283V30.44l0.028-0.198l0.028-0.17l0.127-0.383l0.029-0.34l-0.029-0.765l-0.057-0.807
		l0.029-0.227l-0.029-0.694l-0.042-0.127l-0.057-0.142v-0.142l0.128-0.085v-0.113l-0.071-0.156l0.042-0.17l0.029-0.113l-0.071-0.325
		l-0.142-0.17l-0.198-0.057l-0.227-0.326V24.62l0.17-0.212l0.142-0.085l0.113,0.028l0.113-0.057h0.326l0.227-0.028l0.184-0.028
		l0.227-0.085l0.142,0.028l0.155-0.028l0.17-0.057l0.283-0.142l0.213-0.057l0.453-0.27l0.297-0.198l0.256-0.142l0.155-0.057
		l0.283-0.07l0.227,0.127l0.185,0.227l-0.029,0.198l-0.057,0.241l-0.212,0.425l-0.028,0.184l-0.028,0.255l0.028,1.048l0.028,0.255
		l0.142,0.326l-0.085,0.227l0.028,0.297l0.028,0.312l0.028,0.524v0.142v0.155l-0.085,0.425l-0.113,0.27l0.028,0.142l0.057,0.438
		l0.028,0.283v0.694l0.028,0.24l0.028,0.17l-0.028,0.666l-0.028,0.297l-0.227,0.453l-0.085,0.156l-0.113,0.142l-0.213,0.17
		l-0.197,0.24v0.142h0.197l0.185,0.028l0.312,0.255l0.227,0.113l0.213,0.156h0.254l0.185,0.057l0.921,0.198l0.197,0.057l0.185-0.057
		l0.17-0.17l0.057-0.113v-0.213l-0.057-0.113l-0.468-0.34l-0.084-0.297l-0.029-0.142l-0.027-0.17v-0.213l-0.086-1.798v-0.439v-0.142
		v-0.312l0.029-0.523l0.113-0.057l0.027-0.142l-0.084-0.156l-0.057-0.523V27.75l0.057-0.638v-0.17l0.141-0.382l0.029-0.17
		l-0.086-0.27l0.086-0.255v-0.198l0.113-0.467l0.099-0.142l0.142-0.1l-0.028-0.198l-0.438-0.142l-0.468-0.212l-0.085-0.17
		l-0.142-0.113l-0.411-0.354l-0.17-0.312l-0.325-0.382l-0.113-0.17l-0.17-0.283l-0.057-0.128l-0.298-0.396v-0.212l-0.311-0.113
		l0.057-0.34l-0.326-0.028l-0.142-0.185l-0.255-0.34l-0.113-0.269l-0.1-0.142l-0.283-0.198l-0.084-0.128l-0.185-0.085l-0.227-0.085
		l-0.34-0.028l-0.325,0.17l-0.199,0.1l-0.184,0.085l-0.255,0.028l-0.468-0.298l-0.027-0.198l0.084-0.637l0.057-0.142l0.156-0.028
		l0.113-0.156l0.467-0.198l0.057-0.113l0.524-0.142h0.113l0.255-0.099l0.297,0.028l0.17-0.057l0.383,0.028l0.368,0.127l0.17,0.113
		l0.298,0.113l0.113,0.17l0.354-0.028l-0.496-1.161V17.54l-0.057-0.17l-0.057-0.665l0.143-0.496l0.084-0.142l0.113-0.354
		l0.185-0.085l0.198-0.198l0.198-0.057L122.505,15.246z"/>
	<path d="M135.758,21.859h0.383l0.453,0.184l0.1,0.142l0.197,0.057l0.227,0.085l0.213,0.17l0.17,0.028l0.142,0.057l0.269,0.213
		l0.227,0.198l0.439,0.269l0.467,0.142l0.836,0.085l0.17,0.057l0.028,0.113l0.325,0.113l0.029,0.213l-0.029,0.34l-0.269,0.382
		l-0.17,0.468l-0.085,0.368l-0.028,0.269v0.227v0.354l-0.028,0.17l-0.057,0.467l0.028,0.17l0.028,0.468l-0.028,0.198l-0.212,0.552
		v0.113l-0.029,0.185l0.057,0.142v0.113v0.113l-0.084,0.665l0.084,0.085v0.439l0.071,0.693l0.057,0.27v0.227v0.354v0.113
		l-0.028,0.283v0.27v0.227l0.085,0.269l0.028,0.113l0.17,0.17l0.057,0.113l0.142,0.156l0.878,0.283l0.113,0.297l-0.028,0.312
		l-0.283,0.227l-0.298,0.185l-0.227,0.142l-0.184,0.142l-0.283,0.085l-0.354,0.41l-0.199,0.411l0.029,0.17l0.084,0.227v0.155
		l0.057,0.17l0.057,0.283l-0.057,0.185l-0.17,0.198l-0.283,0.113h-0.325l-0.17-0.085l-0.241-0.142l-0.197-0.085l-0.143-0.057
		l-0.184-0.213l-0.142-0.085l-0.142-0.198l-0.326-0.085l-0.027-0.269l-0.227-0.283l-0.143-0.113l-0.113-0.1l-0.184-0.113
		l-0.255-0.085l-0.17-0.085l-0.269-0.198l-0.086-0.297l0.029-0.227l0.354-0.326l0.142-0.085l0.17-0.283V33.98l0.028-0.368
		l0.028-0.241l-0.057-0.113v-0.113l-0.028-0.227v-0.297l-0.085-0.638l0.028-0.354l-0.057-0.113l0.028-0.524l-0.028-0.085
		l-0.057-0.17v-0.142l0.057-0.212l0.028-0.113l0.028-0.17l0.028-0.17l0.142-0.1l-0.17-0.028v-0.425l0.028-0.184l0.028-0.396
		l0.028-0.142l-0.028-0.298l0.028-0.142l-0.057-0.212l0.057-0.255l0.028-0.354l-0.028-0.17l0.057-0.227l0.185-0.85l0.057-0.255
		l0.17-0.113l-0.298-0.085l-0.227-0.127l-0.312-0.17l-0.184-0.142l-0.199-0.142h-0.113l-0.24-0.128l-0.368-0.255l-0.298-0.085
		l-0.438-0.057l-0.17,0.085l-0.085,0.198l0.028,0.156l0.142,0.255l0.127,0.17l0.057,0.212l0.029,0.17l0.057,0.368l0.027,0.736v0.085
		l0.029,0.113l-0.029,0.17l0.057,0.213v0.396l-0.027,0.269l-0.113,0.113l-0.185,0.085l0.185,0.113l0.027,0.156l0.113,0.608
		l0.029,0.283l0.027,0.198l0.029,0.213l-0.057,0.198l0.027,0.17l0.029,0.155v0.17l-0.029,0.113l-0.027,0.354v0.198l0.027,0.467
		l-0.141,0.638l-0.086,0.34l-0.155,0.184l-0.057,0.198v0.227l0.155,0.085l0.199,0.043l0.34,0.085l0.212,0.028l0.17,0.057
		l0.269,0.198v0.382l-0.099,0.255l-0.113,0.142L134.895,35l-0.496,0.354l-0.084,0.113l-0.185,0.057l-0.142,0.411l-0.17,0.198
		l0.142,0.255l0.028,0.085l0.113,0.212l-0.028,0.368l-0.17,0.185l-0.552,0.17l-0.199-0.057l-0.297-0.113l-0.17-0.085l-0.198-0.27
		l-0.269-0.17l-0.369-0.24l-0.184-0.283l-0.113-0.085l-0.198-0.085l-0.269-0.213l-0.227-0.113h-0.143l-0.269-0.085l-0.113-0.057
		l-0.142-0.085l-0.142-0.142l-0.057-0.155l0.028-0.34l0.085-0.185l0.255-0.227l0.198-0.113l0.241-0.608l0.027-0.411l-0.027-0.198
		l0.027-0.354l0.086-0.142v-0.17l-0.029-0.142l0.057-0.241l-0.027-0.198v-0.184l0.027-0.113l-0.084-0.255v-0.354L131,30.567v-0.41
		c0-0.095-0.009-0.161-0.027-0.198L131,29.831v-0.227l-0.084-0.142l0.057-0.297L131,28.415v-0.467l-0.027-0.142v-0.255l-0.029-0.185
		l-0.027-0.113l-0.057-0.17V26.97l0.027-0.113l0.057-0.127l-0.027-0.198l0.027-0.142l-0.141-0.553l-0.779-0.028l-0.127-0.028
		l-0.369-0.269l-0.084-0.34l0.17-0.439l0.17-0.198l0.113-0.028l0.184-0.212l0.17-0.198l0.198-0.227l0.269-0.27l-0.027-0.113
		l0.057-0.085l0.057-0.113v-0.127l-0.029-0.113l-0.027-0.113l-0.057-0.312l0.027-0.27l0.34-0.382l0.185-0.057l0.085,0.057
		l0.523,0.042l0.113,0.028l0.227,0.057l0.213,0.028l0.51,0.198h0.156l0.34,0.227l0.17,0.128l0.212,0.227l0.17,0.198l0.142,0.184
		l0.213,0.198l0.141,0.028l0.383-0.057l0.425-0.382l0.155-0.283l0.029-0.113l-0.128-0.298l0.099-0.34L135.758,21.859z"/>
	<path d="M148.05,21.661h0.41l0.255,0.17l0.057,0.184l0.382,0.609l0.283,0.481l0.128,0.325l0.198,0.312l0.113,0.27l0.057,0.17
		l-0.028,0.113l0.028,0.24l0.057,0.142l0.057,0.227l0.213,0.27l0.34,0.283l0.113,0.212l0.07,0.283l0.085,0.298l0.142,0.227
		l0.142,0.438l0.382,0.312l0.086,0.298l-0.057,0.255l-0.241,0.255l-0.113,0.212l-0.694,0.411l-0.467,0.283l-0.34,0.142l-0.142,0.113
		l-0.185,0.184l-0.141,0.057l-0.354,0.085l-0.227,0.17l-0.17,0.057l-0.495,0.298h-0.113l-0.213,0.17l-0.113,0.028l-0.396,0.382
		l-0.156,0.255l-0.027,0.113v0.128l-0.029,0.17l-0.227,0.227l-0.41-0.028l0.028,0.325l-0.028,0.227l-0.113,0.17l-0.085,0.27
		l-0.142,0.17l-0.07,0.17l0.042,0.269l0.113,0.198l0.142,0.028l0.142,0.057h0.17h0.354l0.269,0.128l0.396,0.028l0.325,0.028
		l0.17,0.028h0.113l0.383,0.057l0.396,0.028l0.383-0.057l0.17-0.113l0.057-0.128l0.07-0.142l-0.028-0.113v-0.113l-0.099-0.155
		l-0.113-0.198l-0.113-0.368l0.084-0.354l0.086-0.142l0.113-0.184l0.297-0.142l0.17-0.028h0.184l0.283,0.113l0.17,0.057l0.213,0.24
		l0.113,0.255l0.057,0.751l-0.057,0.127l-0.057,0.34l-0.057,0.354l-0.085,0.227l-0.155,0.113l-0.113,0.184l-0.029,0.17l-0.254,0.283
		l-0.213,0.213l-1.246,1.005l-0.113,0.185l-0.057,0.368l0.085,0.155l0.028,0.255l-0.057,0.227l-0.17,0.241l-0.156,0.028
		l-0.453,0.085l-0.212-0.057l-0.368-0.057l-0.184-0.057l-0.256-0.113l-0.17-0.1l-0.184-0.028l-0.17-0.028l-0.227-0.17l-0.27-0.057
		l-0.48-0.297l-0.156-0.057l-0.255-0.142l-0.298-0.17l-0.254-0.113l-0.411-0.27l-0.396-0.142l-0.354-0.17l-0.17-0.028h-0.438
		l-0.17-0.099l-0.212-0.198l-0.086-0.198l0.029-0.085l0.057-0.213l0.127-0.198l0.34-0.325l0.17-0.255l0.028-0.255l0.071-0.213
		l0.057-0.396v-0.184l-0.029-0.312v-0.185l-0.099-0.085l-0.028-0.255l0.156-0.085l-0.086-0.184l0.057-0.283l-0.027-0.17
		l-0.128-0.326l0.128-0.142l0.027-0.113v-0.113l-0.027-0.467l0.027-0.113v-0.935l-0.027-0.198V28.5l-0.029-0.396l0.029-0.269
		l-0.029-0.312l0.029-0.213l0.027-0.142l-0.057-0.113l-0.07-0.523l-0.028-0.326l0.028-0.227l-0.113-0.34l-0.085-0.127l-0.312-0.227
		l-0.1-0.113l-0.027-0.142l0.027-0.27l0.185-0.255l0.396-0.155l0.608-0.085l0.326-0.085l0.113-0.057l0.17-0.028l1.218-0.354
		l0.185-0.085h0.141l0.086-0.085l0.113-0.142l0.212,0.057l0.283-0.142l0.198-0.155l0.439-0.255l0.113-0.057l0.552-0.524l0.085-0.198
		l0.028-0.212l0.185-0.198L148.05,21.661z M146.138,24.506l-0.085,0.227v0.227l0.057,0.156l0.057,0.227l0.057,0.382l0.028,0.142
		l0.057,0.113l0.028,0.609l0.028,0.113l0.057,0.184l0.057,0.283l-0.085,0.198l0.085,0.27v0.17l-0.057,0.17l-0.085,0.297l0.028,0.113
		l0.028,0.113l-0.028,0.241l0.028,0.142v0.198l0.028,0.142l-0.057,0.269l0.085,0.142l0.382-0.495l0.411-0.142l0.057-0.142
		l0.113-0.057l0.113-0.085l0.17-0.057l0.241-0.411l0.057-0.113l-0.057-0.155l-0.143-0.255l-0.057-0.142l-0.042-0.185l-0.198-0.425
		l-0.41-1.048l-0.113-0.085l-0.283-0.552l-0.057-0.198l-0.354-0.609L146.138,24.506z"/>
	<path d="M158.089,21.547l0.17,0.028l0.496,0.17l0.113,0.085l0.127,0.085l0.368,0.155l0.142,0.085l0.24,0.113l0.143,0.085
		l0.467,0.227l0.863,0.496l0.326,0.028l0.396-0.198l0.354-0.142l0.283,0.028h0.128l0.17,0.113l0.17,0.325l-0.028,0.312l-0.028,0.142
		l-0.312,0.439l-0.41,0.283l-0.143,0.07l-0.212,0.142l-0.198,0.113l-0.227,0.17l-0.24,0.085l-0.029,0.213l-0.113,0.113l-0.027,0.227
		l0.027,0.155l0.029,0.255l-0.086,0.298l-0.113,0.142l-0.184,0.085l-0.312,0.028l-0.198-0.028l-0.553-0.17l-0.127-0.156
		l-0.113-0.028l-0.17-0.142l-0.666-0.467l-0.41-0.312l-0.255-0.241l-0.269-0.198l-0.113-0.142l-0.113-0.028l-0.383-0.354
		l0.156,0.382l0.057,0.283v0.128v0.396l-0.029,0.212l-0.027,0.198v0.34v0.185l0.027,0.312l0.113,0.269l0.34,0.227l0.156,0.028
		l0.142,0.028l0.085,0.057h0.227l0.523,0.185l0.213,0.028l0.666,0.142h0.227l0.382,0.198l0.425,0.113l0.213,0.155l0.227,0.057
		l0.141,0.028l0.213,0.057l0.255,0.142l0.325,0.411l0.086,0.425l-0.057,0.184l0.084,0.198l-0.057,0.298l-0.027,0.368l0.027,0.113
		l0.029,0.523l-0.086,0.27v0.255v0.113l-0.084,0.552l0.027,0.142l-0.027,0.128v0.113v0.467l0.027,0.142v0.312l0.057,0.185
		l0.227,0.17l0.057,0.17v0.113l-0.141,0.297l-0.256,0.255h-0.155l-0.453,0.057l-0.354,0.156l-0.227,0.028h-0.297l-0.383,0.142
		l-0.283,0.17l-0.325-0.085l-0.113,0.227l-0.227,0.127l-0.608,0.198l-0.143,0.113l-0.297,0.439l0.113,0.41v0.113l-0.085,0.34
		l-0.255,0.27l-0.354,0.113l-0.227-0.028l-0.185,0.028l-0.694-0.255l-0.227-0.185l-0.297-0.142l-0.085-0.085l-0.227-0.17
		l-0.085-0.057l-0.297-0.269l-0.113-0.113l-0.17-0.142l-0.17-0.128l-0.439-0.255l-0.326-0.113h-0.495l-0.425,0.312l-0.113,0.326
		l-0.07,0.227l0.042,0.325l0.057,0.113l0.113,0.113l0.227,0.113l0.142-0.028l0.27-0.085l0.113-0.085h0.269l0.255,0.085l0.17,0.17
		l0.113,0.128l0.07,0.113l0.029,0.368l-0.029,0.099l-0.07,0.198l-0.17,0.283l-0.255,0.27l-0.524,0.113h-0.212h-0.312l-0.17-0.085
		l-0.127-0.028l-0.113,0.028l-0.143-0.113l-0.227-0.156L152,37.902l-0.085-0.113l-0.085-0.155l-0.185-0.453v-0.156l-0.084-0.481
		l-0.029-0.325v-0.198l0.113-0.383l0.1-0.312l0.085-0.184l0.057-0.113l0.227-0.468l0.113-0.085l0.185-0.085l0.367-0.283l0.411-0.269
		l0.227-0.17l0.113-0.085l0.155-0.241l0.113-0.227l0.029-0.17l-0.029-0.24l0.086-0.283l0.382-0.383l0.283-0.057l0.608,0.057
		l0.213,0.113l0.368,0.185l0.382,0.227l0.312,0.227l0.113,0.127l0.297,0.198l0.255-0.085l0.241,0.255l0.693,0.411l0.383,0.142
		l0.34,0.028l0.197-0.028l0.1-0.113l0.085-0.198l-0.438-0.524l-0.199-0.438l-0.027-0.142l-0.029-0.27l0.057-0.722l-0.057-0.439
		l-0.155-0.085l-0.368-0.142l-0.213-0.057l-0.197-0.113l-0.227-0.057l-0.241-0.057l-0.085-0.127l-0.637-0.113h-0.199l-0.325-0.142
		l-0.524-0.198l-0.17-0.1l-0.227-0.057l-0.552-0.312l-0.17-0.212l-0.325-0.396l-0.086-0.241l-0.057-0.608l-0.027-0.312v-0.383
		v-0.368l0.084-0.297l0.029-0.142l0.027-0.17l-0.027-0.241l0.057-0.227l-0.086-0.142l0.029-0.212l0.113-0.227l-0.113-0.198
		l-0.086-0.411l-0.354-0.269l-0.057-0.142l0.028-0.312l0.113-0.185l0.185-0.142l0.254-0.085h0.113l0.143,0.028l0.297-0.057
		l0.113-0.028l0.439-0.113l0.34,0.085l0.184-0.057l0.17-0.085l0.354-0.099h0.227l0.354-0.057l0.142-0.057l0.113-0.028l0.227-0.085
		l0.085-0.113l0.071-0.198l-0.071-0.298l0.042-0.142l0.057-0.17l0.312-0.325l0.24-0.113L158.089,21.547z"/>
	<path d="M168.851,15.246h0.637l0.085,0.156l0.113-0.071l0.113,0.128l0.099,0.142l0.17,0.255l0.029,0.24v0.34l-0.057,0.27
		l-0.113,0.085l-0.128,0.17l-0.113,0.028l-0.255,0.354l-0.057,0.113l-0.028,0.354l0.085,0.481l0.198,0.438l0.113,0.227l0.155,0.241
		l0.227,0.227l0.086,0.212l0.17,0.113l0.24,0.255l0.113,0.085l0.198,0.27v0.113l-0.085,0.227l0.297,0.325l0.113,0.142l0.256,0.241
		l0.141,0.085l0.27,0.057l0.113,0.17l0.17,0.227l0.24,0.212l0.17,0.198l0.113,0.227l0.113,0.156l0.326,0.227l0.113,0.142
		l0.113,0.057l0.085,0.127l0.241,0.17l0.227,0.17l0.212,0.326l0.028,0.17l0.028,0.227l-0.185,0.24l-0.027,0.17l-0.057,0.085
		l-0.17,1.303v0.326v0.665l0.027,0.17v0.113l0.057,0.354v-0.142l-0.084,0.396v0.269l-0.113,0.057l0.141,0.085v0.411l0.113,0.142
		v0.142l-0.027,0.41l-0.143,0.255v0.128l0.057,0.198l0.086,0.142v0.693l-0.029,0.185v0.17v0.255l0.057,0.24l0.029,0.553
		l-0.057,0.312l0.084,0.467l0.326,0.468l0.113,0.368l-0.198,0.325l-0.085,0.057l-0.383,0.085l-0.269,0.028l-0.34,0.057l-0.298,0.057
		h-0.254l-0.326,0.128l-0.227,0.028l-0.113,0.028l-0.085,0.085h-0.113l-0.552,0.198l-0.156,0.085l-0.227,0.113l-0.383,0.184
		l-0.141,0.142l-0.369-0.028l-0.184,0.198l0.439,0.793l0.027,0.255l-0.057,0.227l-0.297,0.326l-0.198,0.028l-0.142,0.028h-0.142
		l-0.128-0.028l-0.197-0.028l-0.283-0.113l-0.213-0.085l-0.255-0.128l-0.113-0.028l-0.382-0.227l-0.17-0.17l-0.553-0.382
		l-0.113-0.057l-0.127-0.113l-0.143-0.028l-0.197-0.156l-0.326-0.142l-0.227-0.113l-0.326-0.113l-0.197-0.028l-0.312-0.057
		l-0.212-0.057l-0.227-0.155l-0.113-0.113l-0.128-0.255v-0.156l0.156-0.312l0.085-0.227l0.283-0.382l0.085-0.326v-1.033l0.07-0.241
		l-0.07-0.453l0.1-0.382l-0.071-0.468l-0.085-0.283V30.44l0.028-0.198l0.028-0.17l0.127-0.383l0.029-0.34l-0.029-0.765l-0.057-0.807
		l0.029-0.227l-0.029-0.694l-0.042-0.127l-0.057-0.142v-0.142l0.128-0.085v-0.113l-0.071-0.156l0.042-0.17l0.029-0.113l-0.071-0.325
		l-0.142-0.17l-0.198-0.057l-0.227-0.326V24.62l0.17-0.212l0.142-0.085l0.113,0.028l0.113-0.057h0.326l0.227-0.028l0.184-0.028
		l0.227-0.085l0.142,0.028l0.155-0.028l0.17-0.057l0.283-0.142l0.213-0.057l0.453-0.27l0.297-0.198l0.256-0.142l0.155-0.057
		l0.283-0.07l0.227,0.127l0.185,0.227l-0.029,0.198l-0.057,0.241l-0.212,0.425l-0.028,0.184l-0.028,0.255l0.028,1.048l0.028,0.255
		l0.142,0.326l-0.085,0.227l0.028,0.297l0.028,0.312l0.028,0.524v0.142v0.155l-0.085,0.425l-0.113,0.27l0.028,0.142l0.057,0.438
		l0.028,0.283v0.694l0.028,0.24l0.028,0.17l-0.028,0.666l-0.028,0.297l-0.227,0.453l-0.085,0.156l-0.113,0.142l-0.213,0.17
		l-0.197,0.24v0.142h0.197l0.185,0.028l0.312,0.255l0.227,0.113l0.213,0.156h0.254l0.185,0.057l0.921,0.198l0.197,0.057l0.185-0.057
		l0.17-0.17l0.057-0.113v-0.213l-0.057-0.113l-0.468-0.34l-0.084-0.297l-0.029-0.142l-0.027-0.17v-0.213l-0.086-1.798v-0.439v-0.142
		v-0.312l0.029-0.523l0.113-0.057l0.027-0.142l-0.084-0.156l-0.057-0.523V27.75l0.057-0.638v-0.17l0.141-0.382l0.029-0.17
		l-0.086-0.27l0.086-0.255v-0.198l0.113-0.467l0.099-0.142l0.142-0.1l-0.028-0.198l-0.438-0.142l-0.468-0.212l-0.085-0.17
		l-0.142-0.113l-0.411-0.354l-0.17-0.312l-0.325-0.382l-0.113-0.17l-0.17-0.283l-0.057-0.128l-0.298-0.396v-0.212l-0.311-0.113
		l0.057-0.34l-0.326-0.028l-0.142-0.185l-0.255-0.34l-0.113-0.269l-0.1-0.142l-0.283-0.198l-0.084-0.128l-0.185-0.085l-0.227-0.085
		l-0.34-0.028l-0.325,0.17l-0.199,0.1l-0.184,0.085l-0.255,0.028l-0.468-0.298l-0.027-0.198l0.084-0.637l0.057-0.142l0.156-0.028
		l0.113-0.156l0.467-0.198l0.057-0.113l0.524-0.142h0.113l0.255-0.099l0.297,0.028l0.17-0.057l0.383,0.028l0.368,0.127l0.17,0.113
		l0.298,0.113l0.113,0.17l0.354-0.028l-0.496-1.161V17.54l-0.057-0.17l-0.057-0.665l0.143-0.496l0.084-0.142l0.113-0.354
		l0.185-0.085l0.198-0.198l0.198-0.057L168.851,15.246z"/>
	<path d="M180.945,21.689h0.17l0.382,0.085l0.438,0.198l0.524,0.325l0.368,0.326l0.213,0.085l0.17,0.227l0.197,0.028l0.086,0.17
		l0.212,0.155l0.524,0.17l0.141,0.113l0.199,0.057l0.113-0.028h0.184l0.283,0.057l0.27,0.057h0.227l0.17,0.128l0.113,0.198v0.227
		l-0.086,0.269l-0.227,0.255l-0.141,0.439l-0.029,0.142l-0.027,0.198v0.935l-0.071,0.467l0.042,0.198l-0.042,0.255l0.071,0.468
		l-0.029,0.665l0.029,0.185v0.722l-0.1,0.227l0.028,0.581v0.269l0.042,0.142l0.143,0.142l0.027,0.113v0.383l-0.027,0.34l0.057,0.184
		l0.057,0.142v0.354l0.027,0.198l0.029,0.552l0.084,0.142l0.17,0.057h0.128l0.142,0.028h0.142h0.198l0.297,0.241v0.396l-0.027,0.113
		l-0.113,0.212l-0.156,0.255l-0.227,0.298l-0.113-0.028l-0.085,0.142l-0.113,0.142l-0.128,0.142l-0.17,0.127l-0.027,0.113
		l-0.113,0.085l-0.199,0.142l-0.127,0.17l-0.028,0.241l0.028,0.113l0.085,0.113l0.155,0.325v-0.113l-0.084,0.538l-0.213,0.241
		l-0.17,0.057l-0.383,0.028l-0.396-0.113l-0.382-0.113l-0.198-0.1l-0.354-0.17v-0.113l-0.694-0.467l-0.142-0.198l-0.184-0.142
		l-0.283-0.27l-0.298-0.198l-0.142-0.198l-0.17-0.127l-0.255-0.085l-0.212,0.028l-0.34,0.212l-0.071,0.17l-0.057,0.609l0.325,0.34
		l0.086,0.325l-0.113,0.326l-0.468,0.17l-0.34,0.057l-0.298-0.028l-0.523-0.198l-0.396-0.156l-0.07-0.113l-0.199-0.227l-0.17-0.184
		l-0.297-0.198l-0.142-0.142l-0.17-0.057l-0.085-0.142l-0.383-0.241l-0.141-0.057h-0.468l-0.113-0.057h-0.17l-0.212-0.17
		l-0.057-0.099l-0.086-0.198l0.086-0.34l0.17-0.213l0.127-0.085l0.227-0.227l0.17-0.269l0.085-0.227v-0.113v-0.185l0.099-0.283
		v-0.255l-0.07-0.155l-0.028-0.368l0.057-0.156l0.071-0.142v-0.227l-0.071-0.142l-0.028-0.354l0.028-0.085l0.042-0.142l0.029-0.213
		l-0.029-0.892l-0.24-0.383v-0.255l0.142-0.184l0.212-0.17l0.113-0.057l0.411-0.057l0.453-0.057l0.128,0.028l0.396-0.057
		l0.113-0.057l0.155-0.028l0.198-0.028h0.354h0.143l0.113-0.028l0.467-0.213l0.142-0.113h0.354l0.283-0.198l0.297-0.212l0.227-0.283
		l0.085-0.439l0.085-0.227v-0.142V26.73l0.184-0.368l-0.042-0.383l-0.057-0.255l-0.142-0.269l-0.467-0.496l-0.199-0.085l-0.17-0.085
		h-0.269l-0.396-0.227l-0.298-0.085H179.5l-0.495,0.085l-0.495,0.396l-0.113,0.213v0.283v0.297l0.084,0.198l0.143,0.057l0.354-0.113
		h0.113l0.113,0.057l0.27,0.028l0.367,0.298l0.029,0.113l0.027,0.113l0.029,0.283l-0.029,0.467l-0.141,0.27l-0.256,0.255
		l-0.41,0.198l-0.312,0.057h-0.354l-0.254-0.057l-0.27-0.113l-0.283-0.085l-0.383-0.383l-0.17-0.198v-0.17l-0.027-0.113
		l-0.128-0.057l-0.028-0.325l-0.085-0.326l0.028-0.425l0.028-0.142v-0.212l0.128-0.34l0.027-0.241l0.482-0.693l0.07-0.17
		l0.227-0.185l0.553-0.312l0.197-0.113l0.496-0.142l0.283-0.184l0.496-0.17l0.269-0.298l0.028-0.085l0.057-0.198l0.057-0.255
		l0.354-0.269L180.945,21.689z M181.964,29.137l-0.326,0.212l-0.227,0.142l-0.255,0.057h-0.185l-0.254,0.113l-0.185,0.17
		l-0.142-0.028h-0.17l-0.17,0.156l0.028,0.198l0.028,0.198l0.057,0.269l0.085,0.836l0.028,0.142l-0.085,0.212l0.028,0.34
		l-0.057,0.85v0.312l-0.27,0.27l0.241,0.028l0.17,0.028h0.354l0.17,0.028l0.17-0.028l0.552,0.028l0.298,0.057l0.34,0.085
		l-0.086-0.198l-0.084-0.113l-0.143-2.237l-0.084-0.468l0.113-0.283L181.964,29.137z"/>
	<path d="M189.68,21.944l0.142-0.028l0.383,0.127l0.17,0.028l0.41,0.142l0.17,0.198l0.326,0.213l0.057,0.142l0.367,0.34l0.27,0.184
		l0.227,0.255l0.41,0.227l0.17,0.071l0.143,0.028l0.24,0.255l-0.028,0.354l-0.185,0.312l-0.17,0.17l-0.17,0.156l-0.057,0.085
		l-0.057,0.198v0.17v0.269l0.029,0.368l0.057,0.553l0.027,1.458v0.113l-0.113,0.354l0.029,0.312l0.141,0.269v0.17l-0.084,0.198
		l0.027,0.113l0.057,0.581v0.155l-0.057,0.425l0.029,0.185l-0.029,0.227l0.029,0.665l-0.086,0.553l-0.057,0.255l-0.24,0.552
		l0.383,0.057l0.283,0.028l0.382,0.128l0.411,0.057l0.311,0.085h0.17l0.156,0.028l0.368-0.028v-0.27l-0.057-0.34l-0.198-0.467
		l-0.057-0.553v-0.227v-0.382l0.057-0.553l-0.028-0.283v-0.269l0.198-0.198l0.057-0.142l-0.085-0.241l-0.113-0.637v-0.368
		l0.113-0.028l-0.085-0.383l0.028-0.41l-0.113-0.142v-0.439l0.142-0.283v-0.085l-0.057-0.467l0.028-0.17l-0.057-0.085l-0.198-0.156
		l-0.213-0.142l-0.17-0.085l-0.254-0.255l-0.071-0.155l0.042-0.553l0.17-0.142l0.17-0.17l0.143-0.24l0.127-0.085l0.481-0.453
		l0.128-0.156l0.057-0.17v-0.227l-0.029-0.269l-0.099-0.283l-0.028-0.185l0.127-0.227l0.312-0.227l0.197-0.057l0.185,0.057
		l0.255,0.057l0.142,0.057l0.155,0.17v0.085l0.113,0.028l0.369,0.241l0.382,0.312l0.17,0.142l0.155,0.155l0.312,0.17l0.41,0.227
		l0.17,0.057l0.142,0.071l0.382,0.17l0.057,0.113l0.086,0.227l-0.029,0.297l-0.227,0.227l-0.325,0.27l-0.057,0.113l-0.085,0.227
		l-0.057,0.693l0.085,0.156v0.255l-0.057,0.17l-0.028,0.297l-0.113,0.411l0.057,0.538l-0.17,0.269l-0.156,0.17l0.156,0.057
		l0.057,0.241v0.425l0.057,0.184l0.028,0.113v0.17l-0.028,0.27v0.17l-0.057,0.467l0.028,0.17l0.028,0.312l-0.028,0.213v0.835
		l0.028,0.113v0.496l-0.156,0.142l-0.084,0.269l0.325,0.113l0.113,0.411l0.057,0.113l0.325,0.312l0.113,0.127l0.199,0.34l0.17,0.354
		l0.07,0.198l0.057,0.142l-0.085,0.963l0.057,0.113l-0.028,0.24l-0.156,0.538l-0.197,0.383l-0.029,0.227l-0.197,0.325l-0.057,0.113
		l-0.326,0.326l-0.227,0.142l-0.156,0.142l-0.113,0.028l-0.523,0.41l-0.283,0.028l-0.553,0.326l-0.325,0.142l-0.51,0.255
		l-0.212,0.057l-0.227,0.057l-0.241,0.099l-0.34,0.17l-0.241,0.085l-0.566,0.255l-0.269,0.156l-0.17,0.113l-0.298,0.255
		l-0.084,0.142l-0.057,0.212l0.057,0.34v0.185l-0.17,0.34l-0.383,0.269h-0.368l-0.128-0.057l-0.424-0.099l-0.581-0.255l-0.269-0.142
		l-0.113-0.085l-0.17-0.1l-0.143-0.113l-0.354-0.198l-0.17-0.227l-0.297-0.155l-0.283-0.283l-0.439-0.298l-0.142-0.113l-0.17-0.085
		l-0.269-0.085l-0.256-0.085l-0.269-0.212l-0.255-0.057l-0.113-0.057l-0.27-0.057l-0.608-0.17l-0.142-0.028l-0.297,0.028
		l-0.256,0.085l-0.197,0.142l-0.156,0.269v0.255l0.213,0.227l0.396-0.085h0.127l0.17-0.057l0.198,0.028h0.113l0.185,0.085
		l0.227,0.439v0.382l-0.057,0.283l-0.113,0.113l-0.086,0.156l-0.269,0.198l-0.085,0.113l-0.142,0.028l-0.113,0.057l-0.325,0.057
		l-0.227-0.028l-0.241-0.085l-0.34-0.142l-0.694-0.496l-0.127-0.283l-0.085-0.24l-0.085-0.198l-0.028-0.283l-0.028-0.213v-0.142
		l-0.028-0.17l0.113-0.637l0.142-0.241l0.213-0.438l0.113-0.085l0.17-0.17l0.212-0.113l0.312-0.198l0.142-0.1l0.438-0.142
		l0.199-0.028l0.127-0.028h0.396l0.156-0.028l0.141,0.057h0.17l0.439,0.028l0.142,0.085l0.325,0.057l0.086-0.113l0.057-0.396
		l0.197-0.382l0.057-0.113l0.496-0.298l0.723,0.028l0.793,0.411l-0.128,0.028l0.298,0.17l0.113,0.085l0.197,0.099l0.128,0.198
		l0.17,0.028l0.312,0.283l0.523,0.496l0.241,0.113l0.198,0.099l0.255,0.142l0.325,0.085l0.312,0.057h0.269h0.34l0.298-0.17
		l0.227-0.057l0.24-0.184l0.283-0.142l0.17-0.198l0.27-0.354l0.382-0.523l0.057-0.51l0.028-0.128l-0.057-0.425l-0.07-0.269
		l-0.086-0.085l-0.113-0.255l-0.113-0.1l-0.141-0.028l-0.156-0.142l0.043-0.113l-0.128-0.028l-0.227-0.113l-0.468-0.155
		l-0.197-0.028l-0.17,0.07l-0.411-0.042l-0.298,0.325l-0.227,0.198l-0.17,0.553l0.17,0.325l-0.057,0.312l-0.325,0.354l-0.17,0.057
		l-0.198-0.057l-0.24-0.057h-0.113l-0.396-0.241l-0.468-0.255l-0.298-0.227l-0.34-0.325l-0.184-0.085l-0.198-0.17l-0.34-0.213
		l-0.155-0.085l-0.199-0.057l-0.297-0.113h-0.142l-0.283-0.198l-0.028-0.523l0.057-0.156l0.17-0.227l0.41-0.283l0.143-0.354
		l0.084-1.331l-0.084-0.383l0.057-0.693l-0.029-0.354l0.029-0.538l-0.057-0.184l-0.057-0.17v-0.085l0.027-0.113l0.113-0.241v-0.17
		v-0.227l-0.027-0.184l-0.143-0.283l0.029-0.17v-0.298l0.113-0.227l0.027-0.212l0.029-0.142l-0.029-0.283v-0.411l-0.113-0.297
		v-0.198l-0.113-0.283l-0.467-0.439l-0.255-0.113l-0.185-0.057l-0.113-0.269v-0.468l0.227-0.283l0.411-0.354l0.354-0.34l0.113-0.113
		l0.17-0.156l0.113-0.057l0.027-0.113l0.071-0.227l-0.155-0.297l-0.057-0.312l0.027-0.185l0.057-0.17L189.68,21.944z"/>
	<path d="M215.876,18.206h0.17l0.213,0.113l0.227,0.269l0.028,0.496l-0.028,0.227l-0.227,0.552l-0.184,0.198l-0.143,0.156
		l-0.141,0.113l-0.113,0.17l-0.213,0.142l-0.523,0.325l-0.227,0.142l-0.113,0.142l-0.029,0.156l0.029,0.198l0.057,0.34v0.184
		l-0.27,0.34l-0.693,0.241h-0.17h-0.113l-0.468-0.028l-0.142,0.028l-0.085,0.057l-0.298-0.057l-0.17-0.028h-0.269l-0.538-0.057
		l-0.27-0.043l-0.113-0.028h-0.17l-0.212-0.085h-0.17l-0.227,0.028l-0.298-0.057l-0.41-0.057l-0.142,0.057h-0.142l-0.17-0.113
		l-0.184,0.085l-0.283-0.057l-0.383-0.057l-0.113,0.028l-0.113,0.085l-0.028,0.113l-0.028,0.666l-0.085,0.325l0.085,0.17
		l-0.028,0.241v0.198l-0.142,0.523l0.028,0.836l0.481-0.028l0.184-0.085l0.609-0.057l0.609-0.085l0.552,0.028l0.425,0.028
		l0.27,0.085l0.254,0.057h0.298l0.283,0.113l0.495,0.155l0.256,0.028l0.212,0.113l0.283,0.142l0.185,0.142l0.34,0.128l0.227,0.227
		l0.155,0.113l0.028,0.113l0.312,0.24l0.113,0.17l0.099,0.113l0.086,0.142l0.283,0.241l0.212,0.255v0.142l0.085,0.24l0.198,0.142
		l0.057,0.142l0.057,0.156l0.113,0.227l0.042,0.17l0.086,0.142l0.057,0.325l0.057,0.255l0.084,0.213l0.256,0.227l0.099,0.269
		l0.085,0.113v0.396l-0.085,0.383l-0.325,0.693l-0.17,0.241l-0.086,0.17l-0.127,0.198l-0.255,0.41l-0.113,0.198l-0.269,0.298
		l-0.057,0.17l-0.312,0.283l-0.027,0.212l-0.354,0.17l-0.142,0.27l-0.142,0.17l-0.241,0.028l-0.141,0.113l-0.383,0.467l-0.142,0.17
		l-0.255,0.113l-0.156,0.028l-0.084,0.057l-0.694,0.524l-0.581,0.325l-0.084,0.057l-0.283,0.227l-0.241,0.128l-0.227,0.057
		l-0.325,0.17l-0.113,0.255l-0.893,0.354l-0.156,0.085l-0.17,0.028l-0.141,0.113l-0.354,0.085h-0.113l-0.468,0.128h-0.113
		l-0.283,0.057l-0.155,0.028l-0.227-0.085l-0.198-0.241l-0.085-0.425l0.113-0.127l0.028-0.113l0.113-0.085l0.354-0.255l0.113-0.071
		l0.086-0.085l0.113-0.085l0.084-0.057l0.086-0.113l0.155-0.028l0.142-0.057l0.113-0.085l0.227-0.269l0.1-0.17l0.424-0.028
		l0.185-0.17l0.057-0.326l0.142-0.028l0.283-0.325l0.057-0.198l0.1-0.113l0.141-0.227h0.17l0.298-0.383l0.028-0.113l0.113-0.297
		l0.255-0.057l0.298-0.142l0.027-0.227l-0.057-0.185v-0.142l0.086-0.255l0.197-0.24l0.086-0.255l0.127-0.213l0.142-0.425l0.17-0.127
		l0.028-0.113v-0.113l0.113-0.227l-0.142-0.185v-0.113l0.085-0.142l0.142-0.227l-0.057-0.354l-0.255-0.227l-0.028-0.213
		l-0.113-0.283l-0.028-0.354l-0.127-0.425l-0.17-0.298l-0.057-0.113l-0.468-0.495l-0.255-0.255l-0.085-0.156l-0.185-0.028
		l-0.113-0.085l-0.283-0.142l-0.438-0.113l-0.255-0.057l-0.24-0.028l-0.199-0.028l-0.227,0.028h-0.24l-0.283-0.028l-0.156,0.028
		l-0.34,0.057l-0.325-0.028l-0.255,0.057l-0.198-0.057l-0.212-0.155l-0.143-0.255v-0.198l0.029-0.156l0.084-1.09l0.057-0.298v-0.283
		l0.029-0.41l0.027-0.383l0.029-0.255l0.127-0.354l0.057-0.255l-0.028-0.113l-0.028-0.156l-0.028-0.368l0.028-0.085l0.028-0.113
		l0.028-0.269l-0.057-0.113v-0.17l0.028-0.354l0.085-0.41v-0.17v-0.142v-0.17l0.057-0.298l-0.028-0.142l0.085-0.467l0.057-0.383
		l0.057-0.142l0.17-0.17l0.1-0.085l0.197-0.085l0.256-0.057l0.495,0.283l0.142,0.326l0.24,0.255h0.113l0.113,0.028h0.086
		l0.438,0.028h0.298l0.75,0.057l0.283-0.028h0.113l0.24-0.028l0.836,0.028l0.383-0.057l0.863,0.057l0.184-0.057l0.227-0.057
		l0.283-0.028l0.68,0.028l0.256-0.057l0.354-0.354l0.057-0.142l0.113-0.142l0.057-0.085l0.255-0.212L215.876,18.206z"/>
</g>
<polygon points="71.733,21.167 73.377,24.496 77.051,25.03 74.393,27.621 75.02,31.279 71.733,29.552 68.447,31.279 69.075,27.621 
	66.418,25.03 70.091,24.496 "/>
<polygon points="226.89,21.167 228.532,24.496 232.206,25.03 229.548,27.621 230.175,31.279 226.89,29.552 223.603,31.279 
	224.231,27.621 221.573,25.03 225.246,24.496 "/>
</svg>
